<?xml version="1.0" standalone="no"?>
<!DOCTYPE svg PUBLIC "-//W3C//DTD SVG 1.1//EN"
	"http://www.w3.org/Graphics/SVG/1.1/DTD/svg11.dtd">
<svg xmlns="http://www.w3.org/2000/svg" version="1.1"
	xmlns:xlink="http://www.w3.org/1999/xlink"
	xml:space='preserve' color="black"
	width="7.38in" height="1.34in" viewBox="0 0 531 97">
<title>0021.abc (0021) tune 1</title>
<!-- Creator: abcm2ps-7.8.14 -->
<!-- CreationDate: Mar 13, 2016 18:53 -->
<!-- CommandLine: -qxg 0021.abc -O ../svgs/0021.svg -->
<g transform="scale(0.750)" stroke-width="0.70" font-family="Times" font-size="20.00">
<text x="354.13" y="21.67" text-anchor="middle">0021.  Iberia III, El Albaicin (El Pollo)</text>
</g>
<g transform="scale(0.750)" stroke-width="0.70" font-family="Times" font-size="14.00" font-style="italic">
<text x="694.93" y="45.34" text-anchor="end">Isaac M. F. Albeniz</text>
</g>
<g transform="scale(0.525)" stroke-width="0.70" font-family="Times" font-size="14.00" font-style="italic">
<defs>
<ellipse id="hd" rx="4.1" ry="2.9"
	transform="rotate(-20)" fill="currentColor"/>
</defs>
<use x="130.61" y="94.16" xlink:href="#hd"/>
<path d="M134.11 94.16v-20.00" stroke="currentColor" fill="none"/>
</g>
<g transform="scale(0.750)" stroke-width="0.70" font-family="Times" font-size="15.00" font-weight="bold">
<text x="99.13" y="68.01">= 120</text>
<path stroke="currentColor" fill="none"
	d="M187.13 106.01v-24.00"/>
<path stroke="currentColor" fill="none"
	d="M295.03 106.01v-24.00"/>
<path stroke="currentColor" fill="none"
	d="M417.73 106.01v-24.00"/>
<path stroke="currentColor" fill="none"
	d="M529.13 106.01v-24.00"/>
<path stroke="currentColor" fill="none"
	d="M653.43 106.01v-24.00"/>
<path stroke="currentColor" fill="none"
	d="M13.33 106.01h681.60m-681.60 -6h681.60m-681.60 -6h681.60m-681.60 -6h681.60m-681.60 -6h681.60"/>
<defs>
<path id="utclef" fill="currentColor" d="m-50 -90
	c-72 -41 -72 -158 52 -188
	c150 -10 220 188 90 256
	c-114 52 -275 0 -293 -136
	c-15 -181 93 -229 220 -334
	c88 -87 79 -133 62 -210
	c-51 33 -94 105 -89 186
	c17 267 36 374 49 574
	c6 96 -19 134 -77 135
	c-80 1 -126 -93 -61 -133
	c85 -41 133 101 31 105
	c23 17 92 37 90 -92
	c-10 -223 -39 -342 -50 -617
	c0 -90 0 -162 96 -232
	c56 72 63 230 22 289
	c-74 106 -257 168 -255 316
	c9 153 148 185 252 133
	c86 -65 29 -192 -80 -176
	c-71 12 -105 67 -59 124"/>
<use id="tclef" transform="scale(0.045)"
	xlink:href="#utclef"/>
</defs>
<use x="25.33" y="106.01" xlink:href="#tclef"/>
<defs>
<path id="uflat" fill="currentColor" d="
	m100 -746
	h32
	v734
	l-32 4
	m32 -332
	c46 -72 152 -90 208 -20
	c100 110 -120 326 -208 348
	m0 -28
	c54 0 200 -206 130 -290
	c-50 -60 -130 -4 -130 34"/>
<use id="ft0" transform="translate(-3.5,3.5) scale(0.018)"
	xlink:href="#uflat"/>
</defs>
<use x="40.33" y="94.01" xlink:href="#ft0"/>
<use x="45.83" y="85.01" xlink:href="#ft0"/>
<use x="51.33" y="97.01" xlink:href="#ft0"/>
<use x="56.83" y="88.01" xlink:href="#ft0"/>
<g font-family="serif" font-size="16" font-weight="bold" font-style="normal"
	transform="translate(72.83,106.01) scale(1.2,1)">
	<text y="-1" text-anchor="middle">8</text>
	<text y="-13" text-anchor="middle">3</text>
</g>
<path fill="currentColor"
	d="M87.03 106.21l58.40 0.00v-3.20l-58.40 -0.00"/>
<path fill="currentColor"
	d="M139.13 101.21l6.00 0.00v-3.20l-6.00 -0.00"/>
<use x="90.83" y="82.01" xlink:href="#hd"/>
<path d="M87.33 82.01v23.20" stroke="currentColor" fill="none"/>
<use x="119.73" y="82.01" xlink:href="#hd"/>
<path d="M116.23 82.01v23.20" stroke="currentColor" fill="none"/>
<use x="148.63" y="82.01" xlink:href="#hd"/>
<path d="M145.13 82.01v23.20" stroke="currentColor" fill="none"/>
<defs>
<path id="r8e" fill="currentColor" d="m 0 0
	c-1.5 1.5 -2.4 2 -3.6 2
	c2.4 -2.8 -2.8 -4 -2.8 -1.2
	c0 2.7 4.3 2.4 5.9 0.6"/>
<g id="r16">
	<path d="m3.3 -4l-4 15.6" stroke="currentColor" fill="none"/>
	<use x="3.4" y="-4" xlink:href="#r8e"/>
	<use x="1.9" y="2" xlink:href="#r8e"/>
</g>
</defs>
<use x="169.03" y="94.01" xlink:href="#r16"/>
<path fill="currentColor"
	d="M199.33 116.31l41.50 -6.30v-3.20l-41.50 6.30"/>
<path fill="currentColor"
	d="M205.73 110.31l-6.00 0.90v-3.20l6.00 -0.90"/>
<use x="203.23" y="94.01" xlink:href="#hd"/>
<path d="M199.73 94.01v21.20" stroke="currentColor" fill="none"/>
<use x="223.63" y="94.01" xlink:href="#r16"/>
<use x="244.03" y="85.01" xlink:href="#hd"/>
<circle fill="currentColor" cx="252.03" cy="85.01" r="1.2"/>
<path d="M240.53 85.01v24.00" stroke="currentColor" fill="none"/>
<use x="276.83" y="94.01" xlink:href="#r16"/>
<defs>
<g id="r32">
	<path d="m4.8 -10l-5.5 21.6" stroke="currentColor" fill="none"/>
	<use x="4.9" y="-10" xlink:href="#r8e"/>
	<use x="3.4" y="-4" xlink:href="#r8e"/>
	<use x="1.9" y="2" xlink:href="#r8e"/>
</g>
</defs>
<use x="311.03" y="94.01" xlink:href="#r32"/>
<path fill="currentColor"
	d="M323.23 106.21l52.80 0.00v-3.20l-52.80 -0.00"/>
<path fill="currentColor"
	d="M329.63 101.21l-6.00 -0.00v-3.20l6.00 0.00"/>
<path fill="currentColor"
	d="M369.73 101.21l6.00 0.00v-3.20l-6.00 -0.00"/>
<use x="327.13" y="82.01" xlink:href="#hd"/>
<circle fill="currentColor" cx="335.13" cy="79.01" r="1.2"/>
<path d="M323.63 82.01v23.20" stroke="currentColor" fill="none"/>
<use x="350.33" y="85.01" xlink:href="#hd"/>
<path d="M346.83 85.01v20.20" stroke="currentColor" fill="none"/>
<use x="379.23" y="82.01" xlink:href="#hd"/>
<path d="M375.73 82.01v23.20" stroke="currentColor" fill="none"/>
<use x="399.63" y="94.01" xlink:href="#r16"/>
<path fill="currentColor"
	d="M429.93 116.21l70.40 -4.90v-3.20l-70.40 4.90"/>
<path fill="currentColor"
	d="M436.33 110.81l-6.00 0.40v-3.20l6.00 -0.40"/>
<use x="433.83" y="94.01" xlink:href="#hd"/>
<path d="M430.33 94.01v21.20" stroke="currentColor" fill="none"/>
<use x="454.23" y="94.01" xlink:href="#r16"/>
<use x="474.63" y="88.01" xlink:href="#hd"/>
<path d="M471.13 88.01v24.40" stroke="currentColor" fill="none"/>
<use x="503.53" y="85.01" xlink:href="#hd"/>
<path d="M500.03 85.01v25.40" stroke="currentColor" fill="none"/>
<path fill="currentColor"
	d="M541.33 112.21l70.40 0.00v-3.20l-70.40 -0.00"/>
<path fill="currentColor"
	d="M547.73 107.21l-6.00 -0.00v-3.20l6.00 0.00"/>
<path fill="currentColor"
	d="M605.43 107.21l6.00 0.00v-3.20l-6.00 -0.00"/>
<use x="545.23" y="82.01" xlink:href="#hd"/>
<path d="M541.73 82.01v29.20" stroke="currentColor" fill="none"/>
<use x="565.63" y="94.01" xlink:href="#r16"/>
<use x="586.03" y="82.01" xlink:href="#hd"/>
<path d="M582.53 82.01v29.20" stroke="currentColor" fill="none"/>
<use x="614.93" y="82.01" xlink:href="#hd"/>
<path d="M611.43 82.01v29.20" stroke="currentColor" fill="none"/>
<use x="635.33" y="94.01" xlink:href="#r16"/>
<use x="672.23" y="94.01" xlink:href="#hd"/>
<defs>
<path id="unat" fill="currentColor" d="
	m96 -750
	h-32
	v716
	l32 -8
	l182 -54
	v282
	h32
	v-706
	l-34 10
	l-180 50
	v-290
	m0 592
	v-190
	l182 -52
	v188"/>
<use id="nt0" transform="translate(-3,5) scale(0.018)"
	xlink:href="#unat"/>
</defs>
<use x="663.23" y="94.01" xlink:href="#nt0"/>
<path d="M668.73 94.01v22.00" stroke="currentColor" fill="none"/>
<path fill="currentColor"
	d="M668.73 116.01c0.9 -3.7 9.1 -6.4 6 -12.4
	c1 5.4 -4.2 8.4 -6 8.4
M668.73 110.61c0.9 -3.7 9.1 -6.4 6 -12.4
	c1 5.4 -4.2 8.4 -6 8.4
"/>
</g>
</svg>
