<?xml version="1.0" standalone="no"?>
<!DOCTYPE svg PUBLIC "-//W3C//DTD SVG 1.1//EN"
	"http://www.w3.org/Graphics/SVG/1.1/DTD/svg11.dtd">
<svg xmlns="http://www.w3.org/2000/svg" version="1.1"
	xmlns:xlink="http://www.w3.org/1999/xlink"
	xml:space='preserve' color="black"
	width="7.38in" height="1.40in" viewBox="0 0 531 101">
<title>0030.abc (0030) tune 1</title>
<!-- Creator: abcm2ps-7.8.14 -->
<!-- CreationDate: Mar 13, 2016 18:53 -->
<!-- CommandLine: -qxg 0030.abc -O ../svgs/0030.svg -->
<g transform="scale(0.750)" stroke-width="0.70" font-family="Times" font-size="20.00">
<text x="354.13" y="21.67" text-anchor="middle">0030.  Sous Le Palmier, 2nd. Theme</text>
</g>
<g transform="scale(0.750)" stroke-width="0.70" font-family="Times" font-size="14.00" font-style="italic">
<text x="694.93" y="45.34" text-anchor="end">Isaac M. F. Albeniz</text>
</g>
<g transform="scale(0.525)" stroke-width="0.70" font-family="Times" font-size="14.00" font-style="italic">
<defs>
<ellipse id="hd" rx="4.1" ry="2.9"
	transform="rotate(-20)" fill="currentColor"/>
</defs>
<use x="122.76" y="94.16" xlink:href="#hd"/>
<path d="M126.26 94.16v-20.00" stroke="currentColor" fill="none"/>
</g>
<g transform="scale(0.750)" stroke-width="0.70" font-family="Times" font-size="15.00" font-weight="bold">
<text x="93.63" y="68.01">= 120</text>
<path stroke="currentColor" fill="none"
	d="M227.43 111.21v-24.00"/>
<path stroke="currentColor" fill="none"
	d="M363.43 111.21v-24.00"/>
<path stroke="currentColor" fill="none"
	d="M557.43 111.21v-24.00"/>
<path stroke="currentColor" fill="none"
	d="M694.93 111.21v-24.00"/>
<path stroke="currentColor" fill="none"
	d="M13.33 111.21h681.60m-681.60 -6h681.60m-681.60 -6h681.60m-681.60 -6h681.60m-681.60 -6h681.60"/>
<text font-family="serif" font-size="12" font-style="italic" font-weight="normal"
	x="111.93" y="80.01" text-anchor="middle">3</text>
<text font-family="serif" font-size="12" font-style="italic" font-weight="normal"
	x="271.83" y="71.31" text-anchor="middle">3</text>
<text font-family="serif" font-size="12" font-style="italic" font-weight="normal"
	x="511.83" y="74.01" text-anchor="middle">3</text>
<text font-family="serif" font-size="12" font-style="italic" font-weight="normal"
	x="603.33" y="78.41" text-anchor="middle">3</text>
<defs>
<path id="utclef" fill="currentColor" d="m-50 -90
	c-72 -41 -72 -158 52 -188
	c150 -10 220 188 90 256
	c-114 52 -275 0 -293 -136
	c-15 -181 93 -229 220 -334
	c88 -87 79 -133 62 -210
	c-51 33 -94 105 -89 186
	c17 267 36 374 49 574
	c6 96 -19 134 -77 135
	c-80 1 -126 -93 -61 -133
	c85 -41 133 101 31 105
	c23 17 92 37 90 -92
	c-10 -223 -39 -342 -50 -617
	c0 -90 0 -162 96 -232
	c56 72 63 230 22 289
	c-74 106 -257 168 -255 316
	c9 153 148 185 252 133
	c86 -65 29 -192 -80 -176
	c-71 12 -105 67 -59 124"/>
<use id="tclef" transform="scale(0.045)"
	xlink:href="#utclef"/>
</defs>
<use x="25.33" y="111.21" xlink:href="#tclef"/>
<defs>
<path id="uflat" fill="currentColor" d="
	m100 -746
	h32
	v734
	l-32 4
	m32 -332
	c46 -72 152 -90 208 -20
	c100 110 -120 326 -208 348
	m0 -28
	c54 0 200 -206 130 -290
	c-50 -60 -130 -4 -130 34"/>
<use id="ft0" transform="translate(-3.5,3.5) scale(0.018)"
	xlink:href="#uflat"/>
</defs>
<use x="40.33" y="99.21" xlink:href="#ft0"/>
<use x="45.83" y="90.21" xlink:href="#ft0"/>
<use x="51.33" y="102.21" xlink:href="#ft0"/>
<g font-family="serif" font-size="16" font-weight="bold" font-style="normal"
	transform="translate(67.33,111.21) scale(1.2,1)">
	<text y="-1" text-anchor="middle">4</text>
	<text y="-13" text-anchor="middle">2</text>
</g>
<path fill="currentColor"
	d="M88.53 90.61l50.70 -4.90v3.20l-50.70 4.90"/>
<use x="85.33" y="111.21" xlink:href="#hd"/>
<path d="M88.83 111.21v-19.60" stroke="currentColor" fill="none"/>
<use x="110.33" y="108.21" xlink:href="#hd"/>
<path d="M113.83 108.21v-19.00" stroke="currentColor" fill="none"/>
<use x="135.43" y="105.21" xlink:href="#hd"/>
<path d="M138.93 105.21v-18.40" stroke="currentColor" fill="none"/>
<use x="163.23" y="102.21" xlink:href="#hd"/>
<defs>
<path id="unat" fill="currentColor" d="
	m96 -750
	h-32
	v716
	l32 -8
	l182 -54
	v282
	h32
	v-706
	l-34 10
	l-180 50
	v-290
	m0 592
	v-190
	l182 -52
	v188"/>
<use id="nt0" transform="translate(-3,5) scale(0.018)"
	xlink:href="#unat"/>
</defs>
<use x="154.23" y="102.21" xlink:href="#nt0"/>
<path d="M166.73 102.21v-20.00" stroke="currentColor" fill="none"/>
<path fill="currentColor"
	d="	M166.73 82.21c0.6 5.6 9.6 9 5.6 18.4
	c1.6 -6 -1.3 -11.6 -5.6 -12.8
"/>
<use x="198.83" y="93.21" xlink:href="#hd"/>
<path d="M195.33 93.21v20.00" stroke="currentColor" fill="none"/>
<path fill="currentColor"
	d="M195.33 113.21c0.6 -5.6 9.6 -9 5.6 -18.4
	c1.6 6 -1.3 11.6 -5.6 12.8
"/>
<path fill="currentColor"
	d="M248.43 76.91l50.70 4.50v3.20l-50.70 -4.50"/>
<use x="245.23" y="96.21" xlink:href="#hd"/>
<path d="M248.73 96.21v-18.20" stroke="currentColor" fill="none"/>
<use x="270.23" y="99.21" xlink:href="#hd"/>
<path d="M273.73 99.21v-19.00" stroke="currentColor" fill="none"/>
<use x="295.33" y="105.21" xlink:href="#hd"/>
<path d="M298.83 105.21v-22.80" stroke="currentColor" fill="none"/>
<use x="323.13" y="108.21" xlink:href="#hd"/>
<path d="M326.63 108.21v-20.00" stroke="currentColor" fill="none"/>
<defs>
<path id="r8e" fill="currentColor" d="m 0 0
	c-1.5 1.5 -2.4 2 -3.6 2
	c2.4 -2.8 -2.8 -4 -2.8 -1.2
	c0 2.7 4.3 2.4 5.9 0.6"/>
<g id="r16">
	<path d="m3.3 -4l-4 15.6" stroke="currentColor" fill="none"/>
	<use x="3.4" y="-4" xlink:href="#r8e"/>
	<use x="1.9" y="2" xlink:href="#r8e"/>
</g>
</defs>
<use x="381.23" y="99.21" xlink:href="#r16"/>
<circle fill="currentColor" cx="389.23" cy="96.21" r="1.2"/>
<path fill="currentColor"
	d="M410.23 86.21l53.60 0.00v3.20l-53.60 -0.00"/>
<path fill="currentColor"
	d="M410.53 91.21l52.90 0.00v3.20l-52.90 -0.00"/>
<path fill="currentColor"
	d="M427.23 96.21l6.00 0.00v3.20l-6.00 -0.00"/>
<use x="407.03" y="111.21" xlink:href="#hd"/>
<path d="M410.53 111.21v-24.00" stroke="currentColor" fill="none"/>
<use x="429.73" y="111.21" xlink:href="#hd"/>
<path d="M433.23 111.21v-24.00" stroke="currentColor" fill="none"/>
<use x="436.73" y="108.21" xlink:href="#hd"/>
<use x="459.93" y="108.21" xlink:href="#hd"/>
<path d="M463.43 108.21v-21.00" stroke="currentColor" fill="none"/>
<path fill="currentColor"
	d="M488.33 84.61l50.70 -4.90v3.20l-50.70 4.90"/>
<use x="485.13" y="105.21" xlink:href="#hd"/>
<path d="M488.63 105.21v-19.60" stroke="currentColor" fill="none"/>
<use x="510.23" y="102.21" xlink:href="#hd"/>
<use x="501.23" y="102.21" xlink:href="#nt0"/>
<path d="M513.73 102.21v-19.00" stroke="currentColor" fill="none"/>
<use x="535.23" y="99.21" xlink:href="#hd"/>
<path d="M538.73 99.21v-18.40" stroke="currentColor" fill="none"/>
<path fill="currentColor"
	d="M579.93 82.91l50.70 5.70v3.20l-50.70 -5.70"/>
<use x="576.73" y="102.21" xlink:href="#hd"/>
<use x="567.73" y="102.21" xlink:href="#nt0"/>
<path d="M580.23 102.21v-18.20" stroke="currentColor" fill="none"/>
<use x="601.73" y="105.21" xlink:href="#hd"/>
<path d="M605.23 105.21v-18.40" stroke="currentColor" fill="none"/>
<use x="626.83" y="114.21" xlink:href="#hd"/>
<path d="M630.33 114.21v-24.60" stroke="currentColor" fill="none"/>
<use x="654.63" y="108.21" xlink:href="#hd"/>
<path d="M658.13 108.21v-20.00" stroke="currentColor" fill="none"/>
<path fill="currentColor"
	d="M410.53 111.21c2.47 4.78 13.21 4.78 15.68 -0.00
	l0.00 0.22c-2.94 6.57 -12.74 6.57 -15.68 -0.22"/>
<path fill="currentColor"
	d="M437.43 110.21c2.99 4.84 16.00 4.84 18.99 -0.00
	l0.00 0.22c-3.56 6.62 -15.43 6.62 -18.99 -0.22"/>
</g>
</svg>
