<?xml version="1.0" standalone="no"?>
<!DOCTYPE svg PUBLIC "-//W3C//DTD SVG 1.1//EN"
	"http://www.w3.org/Graphics/SVG/1.1/DTD/svg11.dtd">
<svg xmlns="http://www.w3.org/2000/svg" version="1.1"
	xmlns:xlink="http://www.w3.org/1999/xlink"
	xml:space='preserve' color="black"
	width="7.38in" height="1.34in" viewBox="0 0 531 97">
<title>0088.abc (0088) tune 1</title>
<!-- Creator: abcm2ps-7.8.14 -->
<!-- CreationDate: Mar 13, 2016 18:53 -->
<!-- CommandLine: -qxg 0088.abc -O ../svgs/0088.svg -->
<g transform="scale(0.750)" stroke-width="0.70" font-family="Times" font-size="20.00">
<text x="354.13" y="21.67" text-anchor="middle">0088.  Les Matelots, 5th. Mvt. - 2nd. Theme</text>
</g>
<g transform="scale(0.750)" stroke-width="0.70" font-family="Times" font-size="14.00" font-style="italic">
<text x="694.93" y="45.34" text-anchor="end">Georges Auric</text>
</g>
<g transform="scale(0.525)" stroke-width="0.70" font-family="Times" font-size="14.00" font-style="italic">
<defs>
<ellipse id="hd" rx="4.1" ry="2.9"
	transform="rotate(-20)" fill="currentColor"/>
</defs>
<use x="107.04" y="94.16" xlink:href="#hd"/>
<path d="M110.54 94.16v-20.00" stroke="currentColor" fill="none"/>
</g>
<g transform="scale(0.750)" stroke-width="0.70" font-family="Times" font-size="15.00" font-weight="bold">
<text x="82.63" y="68.01">= 120</text>
<path stroke="currentColor" fill="none"
	d="M253.83 106.01v-24.00"/>
<path stroke="currentColor" fill="none"
	d="M450.63 106.01v-24.00"/>
<path stroke="currentColor" fill="none"
	d="M641.43 106.01v-24.00"/>
<path stroke="currentColor" fill="none"
	d="M13.33 106.01h681.60m-681.60 -6h681.60m-681.60 -6h681.60m-681.60 -6h681.60m-681.60 -6h681.60"/>
<path stroke="currentColor" fill="none"
	d="M129.63 74.31v-3l38.30 -12.00v3"/>
<rect x="141.83" y="59.31" width="14.00" height="12" fill="white"/>
<text font-family="serif" font-size="12" font-style="italic" font-weight="normal"
	x="148.83" y="69.31" text-anchor="middle">3</text>
<path stroke="currentColor" fill="none"
	d="M321.63 71.31v-3l38.30 -12.00v3"/>
<rect x="333.83" y="56.31" width="14.00" height="12" fill="white"/>
<text font-family="serif" font-size="12" font-style="italic" font-weight="normal"
	x="340.83" y="66.31" text-anchor="middle">3</text>
<path stroke="currentColor" fill="none"
	d="M518.43 77.01v-3l38.30 -0.00v3"/>
<rect x="530.63" y="68.01" width="14.00" height="12" fill="white"/>
<text font-family="serif" font-size="12" font-style="italic" font-weight="normal"
	x="537.63" y="78.01" text-anchor="middle">3</text>
<defs>
<path id="utclef" fill="currentColor" d="m-50 -90
	c-72 -41 -72 -158 52 -188
	c150 -10 220 188 90 256
	c-114 52 -275 0 -293 -136
	c-15 -181 93 -229 220 -334
	c88 -87 79 -133 62 -210
	c-51 33 -94 105 -89 186
	c17 267 36 374 49 574
	c6 96 -19 134 -77 135
	c-80 1 -126 -93 -61 -133
	c85 -41 133 101 31 105
	c23 17 92 37 90 -92
	c-10 -223 -39 -342 -50 -617
	c0 -90 0 -162 96 -232
	c56 72 63 230 22 289
	c-74 106 -257 168 -255 316
	c9 153 148 185 252 133
	c86 -65 29 -192 -80 -176
	c-71 12 -105 67 -59 124"/>
<use id="tclef" transform="scale(0.045)"
	xlink:href="#utclef"/>
</defs>
<use x="25.33" y="106.01" xlink:href="#tclef"/>
<defs>
<path id="usharp" fill="currentColor" d="
	m136 -702
	v890
	h32
	v-890
	m128 840
	h32
	v-888
	h-32
	m-232 286
	v116
	l338 -96
	v-116
	m-338 442
	v116
	l338 -98
	v-114"/>
<use id="sh0" transform="translate(-4,5) scale(0.018)"
	xlink:href="#usharp"/>
</defs>
<use x="40.33" y="82.01" xlink:href="#sh0"/>
<g font-family="serif" font-size="16" font-weight="bold" font-style="normal"
	transform="translate(56.33,106.01) scale(1.2,1)">
	<text y="-1" text-anchor="middle">4</text>
	<text y="-13" text-anchor="middle">6</text>
</g>
<use x="74.33" y="91.01" xlink:href="#hd"/>
<circle fill="currentColor" cx="82.33" cy="91.01" r="1.2"/>
<path d="M70.83 91.01v20.00" stroke="currentColor" fill="none"/>
<use x="104.03" y="91.01" xlink:href="#hd"/>
<circle fill="currentColor" cx="112.03" cy="91.01" r="1.2"/>
<path d="M100.53 91.01v20.00" stroke="currentColor" fill="none"/>
<use x="133.63" y="91.01" xlink:href="#hd"/>
<path d="M130.13 91.01v20.00" stroke="currentColor" fill="none"/>
<use x="155.03" y="91.01" xlink:href="#hd"/>
<path d="M151.53 91.01v22.00" stroke="currentColor" fill="none"/>
<path fill="currentColor"
	d="M151.53 113.01c0.9 -3.7 9.1 -6.4 6 -12.4
	c1 5.4 -4.2 8.4 -6 8.4
M151.53 107.61c0.9 -3.7 9.1 -6.4 6 -12.4
	c1 5.4 -4.2 8.4 -6 8.4
"/>
<use x="165.63" y="79.01" xlink:href="#hd"/>
<path d="M162.13 79.01v20.00" stroke="currentColor" fill="none"/>
<use x="186.93" y="79.01" xlink:href="#hd"/>
<path d="M183.43 79.01v22.00" stroke="currentColor" fill="none"/>
<path fill="currentColor"
	d="M183.43 101.01c0.9 -3.7 9.1 -6.4 6 -12.4
	c1 5.4 -4.2 8.4 -6 8.4
M183.43 95.61c0.9 -3.7 9.1 -6.4 6 -12.4
	c1 5.4 -4.2 8.4 -6 8.4
"/>
<use x="200.23" y="85.01" xlink:href="#hd"/>
<path d="M196.73 85.01v20.00" stroke="currentColor" fill="none"/>
<path fill="currentColor"
	d="M223.03 108.41l12.80 3.20v-3.20l-12.80 -3.20"/>
<path fill="currentColor"
	d="M229.33 105.01l-6.00 -1.50v-3.20l6.00 1.50"/>
<use x="226.83" y="85.01" xlink:href="#hd"/>
<path d="M223.33 85.01v22.50" stroke="currentColor" fill="none"/>
<use x="238.93" y="91.01" xlink:href="#hd"/>
<path d="M235.43 91.01v19.50" stroke="currentColor" fill="none"/>
<use x="266.33" y="88.01" xlink:href="#hd"/>
<circle fill="currentColor" cx="274.33" cy="85.01" r="1.2"/>
<path d="M262.83 88.01v20.00" stroke="currentColor" fill="none"/>
<use x="296.03" y="88.01" xlink:href="#hd"/>
<circle fill="currentColor" cx="304.03" cy="85.01" r="1.2"/>
<path d="M292.53 88.01v20.00" stroke="currentColor" fill="none"/>
<use x="325.63" y="88.01" xlink:href="#hd"/>
<path d="M322.13 88.01v20.00" stroke="currentColor" fill="none"/>
<use x="347.03" y="88.01" xlink:href="#hd"/>
<path d="M343.53 88.01v22.00" stroke="currentColor" fill="none"/>
<path fill="currentColor"
	d="M343.53 110.01c0.9 -3.7 9.1 -6.4 6 -12.4
	c1 5.4 -4.2 8.4 -6 8.4
M343.53 104.61c0.9 -3.7 9.1 -6.4 6 -12.4
	c1 5.4 -4.2 8.4 -6 8.4
"/>
<defs>
<path id="hl" stroke="currentColor" d="m-6 0h12"/>
</defs>
<use x="357.63" y="76.01" xlink:href="#hl"/>
<use x="357.63" y="76.01" xlink:href="#hd"/>
<path d="M354.13 76.01v20.00" stroke="currentColor" fill="none"/>
<use x="379.03" y="76.01" xlink:href="#hl"/>
<use x="379.03" y="76.01" xlink:href="#hd"/>
<path d="M375.53 76.01v22.00" stroke="currentColor" fill="none"/>
<path fill="currentColor"
	d="M375.53 98.01c0.9 -3.7 9.1 -6.4 6 -12.4
	c1 5.4 -4.2 8.4 -6 8.4
M375.53 92.61c0.9 -3.7 9.1 -6.4 6 -12.4
	c1 5.4 -4.2 8.4 -6 8.4
"/>
<use x="397.03" y="82.01" xlink:href="#hd"/>
<defs>
<path id="unat" fill="currentColor" d="
	m96 -750
	h-32
	v716
	l32 -8
	l182 -54
	v282
	h32
	v-706
	l-34 10
	l-180 50
	v-290
	m0 592
	v-190
	l182 -52
	v188"/>
<use id="nt0" transform="translate(-3,5) scale(0.018)"
	xlink:href="#unat"/>
</defs>
<use x="388.03" y="82.01" xlink:href="#nt0"/>
<path d="M393.53 82.01v20.00" stroke="currentColor" fill="none"/>
<path fill="currentColor"
	d="M419.83 105.41l12.80 3.20v-3.20l-12.80 -3.20"/>
<path fill="currentColor"
	d="M426.13 102.01l-6.00 -1.50v-3.20l6.00 1.50"/>
<use x="423.63" y="82.01" xlink:href="#hd"/>
<use x="414.63" y="82.01" xlink:href="#nt0"/>
<path d="M420.13 82.01v22.50" stroke="currentColor" fill="none"/>
<use x="435.73" y="88.01" xlink:href="#hd"/>
<path d="M432.23 88.01v19.50" stroke="currentColor" fill="none"/>
<use x="463.13" y="91.01" xlink:href="#hd"/>
<circle fill="currentColor" cx="471.13" cy="91.01" r="1.2"/>
<path d="M459.63 91.01v20.00" stroke="currentColor" fill="none"/>
<use x="492.73" y="91.01" xlink:href="#hd"/>
<circle fill="currentColor" cx="500.73" cy="91.01" r="1.2"/>
<path d="M489.23 91.01v20.00" stroke="currentColor" fill="none"/>
<use x="522.43" y="91.01" xlink:href="#hd"/>
<path d="M518.93 91.01v20.00" stroke="currentColor" fill="none"/>
<use x="543.83" y="91.01" xlink:href="#hd"/>
<path d="M540.33 91.01v22.00" stroke="currentColor" fill="none"/>
<path fill="currentColor"
	d="M540.33 113.01c0.9 -3.7 9.1 -6.4 6 -12.4
	c1 5.4 -4.2 8.4 -6 8.4
M540.33 107.61c0.9 -3.7 9.1 -6.4 6 -12.4
	c1 5.4 -4.2 8.4 -6 8.4
"/>
<use x="554.43" y="94.01" xlink:href="#hd"/>
<path d="M550.93 94.01v20.00" stroke="currentColor" fill="none"/>
<use x="575.73" y="94.01" xlink:href="#hd"/>
<path d="M572.23 94.01v22.00" stroke="currentColor" fill="none"/>
<path fill="currentColor"
	d="M572.23 116.01c0.9 -3.7 9.1 -6.4 6 -12.4
	c1 5.4 -4.2 8.4 -6 8.4
M572.23 110.61c0.9 -3.7 9.1 -6.4 6 -12.4
	c1 5.4 -4.2 8.4 -6 8.4
"/>
<use x="587.83" y="97.01" xlink:href="#hd"/>
<path d="M591.33 97.01v-20.00" stroke="currentColor" fill="none"/>
<path fill="currentColor"
	d="M617.63 74.91l12.80 -2.10v3.20l-12.80 2.10"/>
<path fill="currentColor"
	d="M623.93 78.81l-6.00 1.00v3.20l6.00 -1.00"/>
<use x="614.43" y="97.01" xlink:href="#hd"/>
<path d="M617.93 97.01v-21.20" stroke="currentColor" fill="none"/>
<use x="626.53" y="94.01" xlink:href="#hd"/>
<path d="M630.03 94.01v-20.20" stroke="currentColor" fill="none"/>
<defs>
<path id="Hd" fill="currentColor" d="m3 -1.6
	c-1 -1.8 -7 1.4 -6 3.2
	c1 1.8 7 -1.4 6 -3.2
	m0.5 -0.3
	c2 3.8 -5 7.6 -7 3.8
	c-2 -3.8 5 -7.6 7 -3.8"/>
</defs>
<use x="654.43" y="91.01" xlink:href="#Hd"/>
<circle fill="currentColor" cx="663.43" cy="91.01" r="1.2"/>
<path d="M650.93 91.01v20.00" stroke="currentColor" fill="none"/>
<path fill="currentColor"
	d="M137.13 89.01c2.26 -4.76 12.09 -4.76 14.35 -0.00
	l0.00 -0.21c-2.69 -6.54 -11.66 -6.54 -14.35 0.21"/>
<path fill="currentColor"
	d="M169.13 77.01c2.26 -4.76 12.09 -4.76 14.35 -0.00
	l0.00 -0.21c-2.69 -6.54 -11.66 -6.54 -14.35 0.21"/>
<path fill="currentColor"
	d="M203.73 83.01c3.09 -4.85 16.53 -4.85 19.62 -0.00
	l0.00 -0.22c-3.68 -6.63 -15.94 -6.63 -19.62 0.22"/>
<path fill="currentColor"
	d="M329.13 88.01c2.26 -4.76 12.09 -4.76 14.35 -0.00
	l0.00 -0.21c-2.69 -6.54 -11.66 -6.54 -14.35 0.21"/>
<path fill="currentColor"
	d="M361.13 76.01c2.26 -4.76 12.09 -4.76 14.35 -0.00
	l0.00 -0.21c-2.69 -6.54 -11.66 -6.54 -14.35 0.21"/>
<path fill="currentColor"
	d="M400.53 82.01c3.09 -4.85 16.53 -4.85 19.62 -0.00
	l0.00 -0.22c-3.68 -6.63 -15.94 -6.63 -19.62 0.22"/>
<path fill="currentColor"
	d="M525.93 89.01c2.26 -4.76 12.09 -4.76 14.35 -0.00
	l0.00 -0.21c-2.69 -6.54 -11.66 -6.54 -14.35 0.21"/>
<path fill="currentColor"
	d="M557.93 94.01c2.26 -4.76 12.09 -4.76 14.35 -0.00
	l0.00 -0.21c-2.69 -6.54 -11.66 -6.54 -14.35 0.21"/>
<path fill="currentColor"
	d="M591.33 99.01c3.09 4.85 16.53 4.85 19.62 -0.00
	l0.00 0.22c-3.68 6.63 -15.94 6.63 -19.62 -0.22"/>
</g>
</svg>
