<?xml version="1.0" standalone="no"?>
<!DOCTYPE svg PUBLIC "-//W3C//DTD SVG 1.1//EN"
	"http://www.w3.org/Graphics/SVG/1.1/DTD/svg11.dtd">
<svg xmlns="http://www.w3.org/2000/svg" version="1.1"
	xmlns:xlink="http://www.w3.org/1999/xlink"
	xml:space='preserve' color="black"
	width="7.38in" height="1.34in" viewBox="0 0 531 97">
<title>0116.abc (0116) tune 1</title>
<!-- Creator: abcm2ps-7.8.14 -->
<!-- CreationDate: Mar 13, 2016 18:53 -->
<!-- CommandLine: -qxg 0116.abc -O ../svgs/0116.svg -->
<g transform="scale(0.750)" stroke-width="0.70" font-family="Times" font-size="20.00">
<text x="354.13" y="21.67" text-anchor="middle">0116.  Jesu, Joy of Man&apos;s Desiring (from Cantata 147), 1st. Mvt. - 1st. Theme</text>
</g>
<g transform="scale(0.750)" stroke-width="0.70" font-family="Times" font-size="14.00" font-style="italic">
<text x="694.93" y="45.34" text-anchor="end">Johann Sebastian Bach</text>
</g>
<g transform="scale(0.525)" stroke-width="0.70" font-family="Times" font-size="14.00" font-style="italic">
<defs>
<ellipse id="hd" rx="4.1" ry="2.9"
	transform="rotate(-20)" fill="currentColor"/>
</defs>
<use x="107.04" y="94.16" xlink:href="#hd"/>
<path d="M110.54 94.16v-20.00" stroke="currentColor" fill="none"/>
</g>
<g transform="scale(0.750)" stroke-width="0.70" font-family="Times" font-size="15.00" font-weight="bold">
<text x="82.63" y="68.01">= 120</text>
<path stroke="currentColor" fill="none"
	d="M306.43 106.01v-24.00"/>
<path stroke="currentColor" fill="none"
	d="M549.73 106.01v-24.00"/>
<path stroke="currentColor" fill="none"
	d="M13.33 106.01h536.40m-536.40 -6h536.40m-536.40 -6h536.40m-536.40 -6h536.40m-536.40 -6h536.40"/>
<defs>
<path id="utclef" fill="currentColor" d="m-50 -90
	c-72 -41 -72 -158 52 -188
	c150 -10 220 188 90 256
	c-114 52 -275 0 -293 -136
	c-15 -181 93 -229 220 -334
	c88 -87 79 -133 62 -210
	c-51 33 -94 105 -89 186
	c17 267 36 374 49 574
	c6 96 -19 134 -77 135
	c-80 1 -126 -93 -61 -133
	c85 -41 133 101 31 105
	c23 17 92 37 90 -92
	c-10 -223 -39 -342 -50 -617
	c0 -90 0 -162 96 -232
	c56 72 63 230 22 289
	c-74 106 -257 168 -255 316
	c9 153 148 185 252 133
	c86 -65 29 -192 -80 -176
	c-71 12 -105 67 -59 124"/>
<use id="tclef" transform="scale(0.045)"
	xlink:href="#utclef"/>
</defs>
<use x="25.33" y="106.01" xlink:href="#tclef"/>
<defs>
<path id="usharp" fill="currentColor" d="
	m136 -702
	v890
	h32
	v-890
	m128 840
	h32
	v-888
	h-32
	m-232 286
	v116
	l338 -96
	v-116
	m-338 442
	v116
	l338 -98
	v-114"/>
<use id="sh0" transform="translate(-4,5) scale(0.018)"
	xlink:href="#usharp"/>
</defs>
<use x="40.33" y="82.01" xlink:href="#sh0"/>
<g font-family="serif" font-size="16" font-weight="bold" font-style="normal"
	transform="translate(56.33,106.01) scale(1.2,1)">
	<text y="-1" text-anchor="middle">8</text>
	<text y="-13" text-anchor="middle">9</text>
</g>
<defs>
<path id="r8e" fill="currentColor" d="m 0 0
	c-1.5 1.5 -2.4 2 -3.6 2
	c2.4 -2.8 -2.8 -4 -2.8 -1.2
	c0 2.7 4.3 2.4 5.9 0.6"/>
<g id="r8">
	<path d="m3.3 -4l-3.4 9.6" stroke="currentColor" fill="none"/>
	<use x="3.4" y="-4" xlink:href="#r8e"/>
</g>
</defs>
<use x="74.33" y="94.01" xlink:href="#r8"/>
<path fill="currentColor"
	d="M102.93 79.71l26.10 -2.50v3.20l-26.10 2.50"/>
<use x="99.83" y="100.01" xlink:href="#hd"/>
<path d="M103.33 100.01v-19.30" stroke="currentColor" fill="none"/>
<use x="125.23" y="97.01" xlink:href="#hd"/>
<path d="M128.73 97.01v-18.70" stroke="currentColor" fill="none"/>
<path fill="currentColor"
	d="M149.73 113.21l51.60 0.00v-3.20l-51.60 -0.00"/>
<use x="153.53" y="94.01" xlink:href="#hd"/>
<path d="M150.03 94.01v18.20" stroke="currentColor" fill="none"/>
<use x="179.03" y="88.01" xlink:href="#hd"/>
<path d="M175.53 88.01v24.20" stroke="currentColor" fill="none"/>
<use x="204.53" y="91.01" xlink:href="#hd"/>
<path d="M201.03 91.01v21.20" stroke="currentColor" fill="none"/>
<path fill="currentColor"
	d="M228.93 109.01l51.60 0.00v-3.20l-51.60 -0.00"/>
<use x="232.83" y="91.01" xlink:href="#hd"/>
<path d="M229.33 91.01v17.00" stroke="currentColor" fill="none"/>
<use x="258.33" y="85.01" xlink:href="#hd"/>
<path d="M254.83 85.01v23.00" stroke="currentColor" fill="none"/>
<use x="283.73" y="88.01" xlink:href="#hd"/>
<path d="M280.23 88.01v20.00" stroke="currentColor" fill="none"/>
<path fill="currentColor"
	d="M316.73 107.21l51.60 -3.20v-3.20l-51.60 3.20"/>
<use x="320.53" y="88.01" xlink:href="#hd"/>
<path d="M317.03 88.01v18.20" stroke="currentColor" fill="none"/>
<use x="346.03" y="79.01" xlink:href="#hd"/>
<path d="M342.53 79.01v25.60" stroke="currentColor" fill="none"/>
<use x="371.43" y="82.01" xlink:href="#hd"/>
<path d="M367.93 82.01v21.00" stroke="currentColor" fill="none"/>
<path fill="currentColor"
	d="M395.93 106.51l51.60 6.70v-3.20l-51.60 -6.70"/>
<use x="399.73" y="79.01" xlink:href="#hd"/>
<path d="M396.23 79.01v26.50" stroke="currentColor" fill="none"/>
<use x="425.23" y="88.01" xlink:href="#hd"/>
<path d="M421.73 88.01v20.90" stroke="currentColor" fill="none"/>
<use x="450.73" y="94.01" xlink:href="#hd"/>
<path d="M447.23 94.01v18.20" stroke="currentColor" fill="none"/>
<path fill="currentColor"
	d="M479.33 79.51l51.60 -4.90v3.20l-51.60 4.90"/>
<use x="476.23" y="100.01" xlink:href="#hd"/>
<path d="M479.73 100.01v-19.60" stroke="currentColor" fill="none"/>
<use x="501.63" y="97.01" xlink:href="#hd"/>
<path d="M505.13 97.01v-19.00" stroke="currentColor" fill="none"/>
<use x="527.13" y="94.01" xlink:href="#hd"/>
<path d="M530.63 94.01v-18.40" stroke="currentColor" fill="none"/>
</g>
</svg>
