<?xml version="1.0" standalone="no"?>
<!DOCTYPE svg PUBLIC "-//W3C//DTD SVG 1.1//EN"
	"http://www.w3.org/Graphics/SVG/1.1/DTD/svg11.dtd">
<svg xmlns="http://www.w3.org/2000/svg" version="1.1"
	xmlns:xlink="http://www.w3.org/1999/xlink"
	xml:space='preserve' color="black"
	width="7.38in" height="1.34in" viewBox="0 0 531 97">
<title>0120.abc (0120) tune 1</title>
<!-- Creator: abcm2ps-7.8.14 -->
<!-- CreationDate: Mar 13, 2016 18:53 -->
<!-- CommandLine: -qxg 0120.abc -O ../svgs/0120.svg -->
<g transform="scale(0.750)" stroke-width="0.70" font-family="Times" font-size="20.00">
<text x="354.13" y="21.67" text-anchor="middle">0120.  Wachet Auf Organ Chorale</text>
</g>
<g transform="scale(0.750)" stroke-width="0.70" font-family="Times" font-size="14.00" font-style="italic">
<text x="694.93" y="45.34" text-anchor="end">Johann Sebastian Bach</text>
</g>
<g transform="scale(0.525)" stroke-width="0.70" font-family="Times" font-size="14.00" font-style="italic">
<defs>
<ellipse id="hd" rx="4.1" ry="2.9"
	transform="rotate(-20)" fill="currentColor"/>
</defs>
<use x="122.76" y="94.16" xlink:href="#hd"/>
<path d="M126.26 94.16v-20.00" stroke="currentColor" fill="none"/>
</g>
<g transform="scale(0.750)" stroke-width="0.70" font-family="Times" font-size="15.00" font-weight="bold">
<text x="93.63" y="68.01">= 120</text>
<path stroke="currentColor" fill="none"
	d="M315.73 106.01v-24.00"/>
<path stroke="currentColor" fill="none"
	d="M13.33 106.01h524.40m-524.40 -6h524.40m-524.40 -6h524.40m-524.40 -6h524.40m-524.40 -6h524.40"/>
<defs>
<path id="utclef" fill="currentColor" d="m-50 -90
	c-72 -41 -72 -158 52 -188
	c150 -10 220 188 90 256
	c-114 52 -275 0 -293 -136
	c-15 -181 93 -229 220 -334
	c88 -87 79 -133 62 -210
	c-51 33 -94 105 -89 186
	c17 267 36 374 49 574
	c6 96 -19 134 -77 135
	c-80 1 -126 -93 -61 -133
	c85 -41 133 101 31 105
	c23 17 92 37 90 -92
	c-10 -223 -39 -342 -50 -617
	c0 -90 0 -162 96 -232
	c56 72 63 230 22 289
	c-74 106 -257 168 -255 316
	c9 153 148 185 252 133
	c86 -65 29 -192 -80 -176
	c-71 12 -105 67 -59 124"/>
<use id="tclef" transform="scale(0.045)"
	xlink:href="#utclef"/>
</defs>
<use x="25.33" y="106.01" xlink:href="#tclef"/>
<defs>
<path id="uflat" fill="currentColor" d="
	m100 -746
	h32
	v734
	l-32 4
	m32 -332
	c46 -72 152 -90 208 -20
	c100 110 -120 326 -208 348
	m0 -28
	c54 0 200 -206 130 -290
	c-50 -60 -130 -4 -130 34"/>
<use id="ft0" transform="translate(-3.5,3.5) scale(0.018)"
	xlink:href="#uflat"/>
</defs>
<use x="40.33" y="94.01" xlink:href="#ft0"/>
<use x="45.83" y="85.01" xlink:href="#ft0"/>
<use x="51.33" y="97.01" xlink:href="#ft0"/>
<g font-family="serif" font-size="16" font-weight="bold" font-style="normal"
	transform="translate(67.33,106.01) scale(1.2,1)">
	<text y="-1" text-anchor="middle">4</text>
	<text y="-13" text-anchor="middle">4</text>
</g>
<defs>
<path id="hl" stroke="currentColor" d="m-6 0h12"/>
</defs>
<use x="85.33" y="112.01" xlink:href="#hl"/>
<use x="85.33" y="115.01" xlink:href="#hd"/>
<path d="M88.83 115.01v-21.00" stroke="currentColor" fill="none"/>
<path fill="currentColor"
	d="	M88.83 94.01c0.6 5.6 9.6 9 5.6 18.4
	c1.6 -6 -1.3 -11.6 -5.6 -12.8
"/>
<path fill="currentColor"
	d="M116.83 83.11l18.70 -2.30v3.20l-18.70 2.30"/>
<path fill="currentColor"
	d="M117.13 88.11l18.00 -2.20v3.20l-18.00 2.20"/>
<use x="113.63" y="106.01" xlink:href="#hd"/>
<path d="M117.13 106.01v-22.00" stroke="currentColor" fill="none"/>
<use x="131.63" y="103.01" xlink:href="#hd"/>
<path d="M135.13 103.01v-21.20" stroke="currentColor" fill="none"/>
<use x="151.63" y="100.01" xlink:href="#hd"/>
<path d="M155.13 100.01v-20.00" stroke="currentColor" fill="none"/>
<path fill="currentColor"
	d="	M155.13 80.01c0.6 5.6 9.6 9 5.6 18.4
	c1.6 -6 -1.3 -11.6 -5.6 -12.8
"/>
<use x="179.93" y="100.01" xlink:href="#hd"/>
<path d="M183.43 100.01v-20.00" stroke="currentColor" fill="none"/>
<path fill="currentColor"
	d="	M183.43 80.01c0.6 5.6 9.6 9 5.6 18.4
	c1.6 -6 -1.3 -11.6 -5.6 -12.8
"/>
<use x="208.23" y="103.01" xlink:href="#hd"/>
<path d="M211.73 103.01v-20.00" stroke="currentColor" fill="none"/>
<path fill="currentColor"
	d="	M211.73 83.01c0.6 5.6 9.6 9 5.6 18.4
	c1.6 -6 -1.3 -11.6 -5.6 -12.8
"/>
<use x="236.53" y="97.01" xlink:href="#hd"/>
<path d="M240.03 97.01v-20.00" stroke="currentColor" fill="none"/>
<path fill="currentColor"
	d="	M240.03 77.01c0.6 5.6 9.6 9 5.6 18.4
	c1.6 -6 -1.3 -11.6 -5.6 -12.8
"/>
<use x="264.83" y="100.01" xlink:href="#hd"/>
<path d="M268.33 100.01v-20.00" stroke="currentColor" fill="none"/>
<path fill="currentColor"
	d="	M268.33 80.01c0.6 5.6 9.6 9 5.6 18.4
	c1.6 -6 -1.3 -11.6 -5.6 -12.8
"/>
<use x="293.13" y="112.01" xlink:href="#hl"/>
<use x="293.13" y="115.01" xlink:href="#hd"/>
<path d="M296.63 115.01v-21.00" stroke="currentColor" fill="none"/>
<path fill="currentColor"
	d="	M296.63 94.01c0.6 5.6 9.6 9 5.6 18.4
	c1.6 -6 -1.3 -11.6 -5.6 -12.8
"/>
<use x="329.93" y="112.01" xlink:href="#hl"/>
<use x="329.93" y="118.01" xlink:href="#hl"/>
<use x="329.93" y="118.01" xlink:href="#hd"/>
<path d="M333.43 118.01v-24.00" stroke="currentColor" fill="none"/>
<path fill="currentColor"
	d="	M333.43 94.01c0.6 5.6 9.6 9 5.6 18.4
	c1.6 -6 -1.3 -11.6 -5.6 -12.8
"/>
<path fill="currentColor"
	d="M361.33 77.71l18.70 3.70v3.20l-18.70 -3.70"/>
<path fill="currentColor"
	d="M361.73 82.81l18.00 3.60v3.20l-18.00 -3.60"/>
<use x="358.23" y="100.01" xlink:href="#hd"/>
<path d="M361.73 100.01v-21.20" stroke="currentColor" fill="none"/>
<use x="376.23" y="106.01" xlink:href="#hd"/>
<path d="M379.73 106.01v-23.60" stroke="currentColor" fill="none"/>
<use x="396.23" y="103.01" xlink:href="#hd"/>
<path d="M399.73 103.01v-20.00" stroke="currentColor" fill="none"/>
<path fill="currentColor"
	d="	M399.73 83.01c0.6 5.6 9.6 9 5.6 18.4
	c1.6 -6 -1.3 -11.6 -5.6 -12.8
"/>
<use x="424.53" y="112.01" xlink:href="#hl"/>
<use x="424.53" y="118.01" xlink:href="#hl"/>
<use x="424.53" y="118.01" xlink:href="#hd"/>
<path d="M428.03 118.01v-24.00" stroke="currentColor" fill="none"/>
<path fill="currentColor"
	d="	M428.03 94.01c0.6 5.6 9.6 9 5.6 18.4
	c1.6 -6 -1.3 -11.6 -5.6 -12.8
"/>
<use x="452.83" y="112.01" xlink:href="#hl"/>
<use x="452.83" y="118.01" xlink:href="#hl"/>
<use x="452.83" y="121.01" xlink:href="#hd"/>
<path d="M456.33 121.01v-27.00" stroke="currentColor" fill="none"/>
<path fill="currentColor"
	d="	M456.33 94.01c0.6 5.6 9.6 9 5.6 18.4
	c1.6 -6 -1.3 -11.6 -5.6 -12.8
"/>
<use x="481.13" y="109.01" xlink:href="#hd"/>
<path d="M484.63 109.01v-20.00" stroke="currentColor" fill="none"/>
<path fill="currentColor"
	d="	M484.63 89.01c0.6 5.6 9.6 9 5.6 18.4
	c1.6 -6 -1.3 -11.6 -5.6 -12.8
"/>
<use x="509.43" y="106.01" xlink:href="#hd"/>
<path d="M512.93 106.01v-20.00" stroke="currentColor" fill="none"/>
<path fill="currentColor"
	d="	M512.93 86.01c0.6 5.6 9.6 9 5.6 18.4
	c1.6 -6 -1.3 -11.6 -5.6 -12.8
"/>
</g>
</svg>
