<?xml version="1.0" standalone="no"?>
<!DOCTYPE svg PUBLIC "-//W3C//DTD SVG 1.1//EN"
	"http://www.w3.org/Graphics/SVG/1.1/DTD/svg11.dtd">
<svg xmlns="http://www.w3.org/2000/svg" version="1.1"
	xmlns:xlink="http://www.w3.org/1999/xlink"
	xml:space='preserve' color="black"
	width="7.38in" height="1.34in" viewBox="0 0 531 97">
<title>0132.abc (0132) tune 1</title>
<!-- Creator: abcm2ps-7.8.14 -->
<!-- CreationDate: Mar 13, 2016 18:53 -->
<!-- CommandLine: -qxg 0132.abc -O ../svgs/0132.svg -->
<g transform="scale(0.750)" stroke-width="0.70" font-family="Times" font-size="20.00">
<text x="354.13" y="21.67" text-anchor="middle">0132.  Brandenburg Concerto No. 3, in G, 3rd. Mvt.</text>
</g>
<g transform="scale(0.750)" stroke-width="0.70" font-family="Times" font-size="14.00" font-style="italic">
<text x="694.93" y="45.34" text-anchor="end">Johann Sebastian Bach</text>
</g>
<g transform="scale(0.525)" stroke-width="0.70" font-family="Times" font-size="14.00" font-style="italic">
<defs>
<ellipse id="hd" rx="4.1" ry="2.9"
	transform="rotate(-20)" fill="currentColor"/>
</defs>
<use x="107.04" y="94.16" xlink:href="#hd"/>
<path d="M110.54 94.16v-20.00" stroke="currentColor" fill="none"/>
</g>
<g transform="scale(0.750)" stroke-width="0.70" font-family="Times" font-size="15.00" font-weight="bold">
<text x="82.63" y="68.01">= 120</text>
<path stroke="currentColor" fill="none"
	d="M485.53 106.01v-24.00"/>
<path stroke="currentColor" fill="none"
	d="M13.33 106.01h514.70m-514.70 -6h514.70m-514.70 -6h514.70m-514.70 -6h514.70m-514.70 -6h514.70"/>
<defs>
<path id="utclef" fill="currentColor" d="m-50 -90
	c-72 -41 -72 -158 52 -188
	c150 -10 220 188 90 256
	c-114 52 -275 0 -293 -136
	c-15 -181 93 -229 220 -334
	c88 -87 79 -133 62 -210
	c-51 33 -94 105 -89 186
	c17 267 36 374 49 574
	c6 96 -19 134 -77 135
	c-80 1 -126 -93 -61 -133
	c85 -41 133 101 31 105
	c23 17 92 37 90 -92
	c-10 -223 -39 -342 -50 -617
	c0 -90 0 -162 96 -232
	c56 72 63 230 22 289
	c-74 106 -257 168 -255 316
	c9 153 148 185 252 133
	c86 -65 29 -192 -80 -176
	c-71 12 -105 67 -59 124"/>
<use id="tclef" transform="scale(0.045)"
	xlink:href="#utclef"/>
</defs>
<use x="25.33" y="106.01" xlink:href="#tclef"/>
<defs>
<path id="usharp" fill="currentColor" d="
	m136 -702
	v890
	h32
	v-890
	m128 840
	h32
	v-888
	h-32
	m-232 286
	v116
	l338 -96
	v-116
	m-338 442
	v116
	l338 -98
	v-114"/>
<use id="sh0" transform="translate(-4,5) scale(0.018)"
	xlink:href="#usharp"/>
</defs>
<use x="40.33" y="82.01" xlink:href="#sh0"/>
<g font-family="serif" font-size="16" font-weight="bold" font-style="normal"
	transform="translate(56.33,106.01) scale(1.2,1)">
	<text y="-1" text-anchor="middle">4</text>
	<text y="-13" text-anchor="middle">6</text>
</g>
<path fill="currentColor"
	d="M77.53 75.81l36.70 0.00v3.20l-36.70 -0.00"/>
<path fill="currentColor"
	d="M77.83 80.81l36.00 0.00v3.20l-36.00 -0.00"/>
<use x="74.33" y="100.01" xlink:href="#hd"/>
<path d="M77.83 100.01v-23.20" stroke="currentColor" fill="none"/>
<use x="92.33" y="103.01" xlink:href="#hd"/>
<path d="M95.83 103.01v-26.20" stroke="currentColor" fill="none"/>
<use x="110.33" y="100.01" xlink:href="#hd"/>
<path d="M113.83 100.01v-23.20" stroke="currentColor" fill="none"/>
<path fill="currentColor"
	d="M133.53 73.31l36.70 -4.60v3.20l-36.70 4.60"/>
<path fill="currentColor"
	d="M133.83 78.31l36.00 -4.50v3.20l-36.00 4.50"/>
<use x="130.33" y="97.01" xlink:href="#hd"/>
<path d="M133.83 97.01v-22.70" stroke="currentColor" fill="none"/>
<use x="148.33" y="94.01" xlink:href="#hd"/>
<path d="M151.83 94.01v-22.00" stroke="currentColor" fill="none"/>
<use x="166.33" y="91.01" xlink:href="#hd"/>
<path d="M169.83 91.01v-21.20" stroke="currentColor" fill="none"/>
<path fill="currentColor"
	d="M182.53 108.01l36.70 0.00v-3.20l-36.70 -0.00"/>
<path fill="currentColor"
	d="M182.83 103.01l36.00 0.00v-3.20l-36.00 -0.00"/>
<use x="186.33" y="88.01" xlink:href="#hd"/>
<path d="M182.83 88.01v19.00" stroke="currentColor" fill="none"/>
<use x="204.33" y="85.01" xlink:href="#hd"/>
<path d="M200.83 85.01v22.00" stroke="currentColor" fill="none"/>
<use x="222.33" y="88.01" xlink:href="#hd"/>
<path d="M218.83 88.01v19.00" stroke="currentColor" fill="none"/>
<path fill="currentColor"
	d="M238.53 114.71l36.70 4.60v-3.20l-36.70 -4.60"/>
<path fill="currentColor"
	d="M238.83 109.71l36.00 4.50v-3.20l-36.00 -4.50"/>
<use x="242.33" y="91.01" xlink:href="#hd"/>
<path d="M238.83 91.01v22.70" stroke="currentColor" fill="none"/>
<use x="260.33" y="94.01" xlink:href="#hd"/>
<path d="M256.83 94.01v22.00" stroke="currentColor" fill="none"/>
<use x="278.33" y="97.01" xlink:href="#hd"/>
<path d="M274.83 97.01v21.20" stroke="currentColor" fill="none"/>
<path fill="currentColor"
	d="M294.53 113.21l51.60 -6.70v-3.20l-51.60 6.70"/>
<use x="298.33" y="94.01" xlink:href="#hd"/>
<path d="M294.83 94.01v18.20" stroke="currentColor" fill="none"/>
<use x="323.83" y="88.01" xlink:href="#hd"/>
<path d="M320.33 88.01v20.90" stroke="currentColor" fill="none"/>
<use x="349.23" y="79.01" xlink:href="#hd"/>
<path d="M345.73 79.01v26.50" stroke="currentColor" fill="none"/>
<path fill="currentColor"
	d="M373.73 106.21l36.70 0.00v-3.20l-36.70 -0.00"/>
<path fill="currentColor"
	d="M374.03 101.21l36.00 0.00v-3.20l-36.00 -0.00"/>
<use x="377.53" y="82.01" xlink:href="#hd"/>
<path d="M374.03 82.01v23.20" stroke="currentColor" fill="none"/>
<use x="395.53" y="79.01" xlink:href="#hd"/>
<path d="M392.03 79.01v26.20" stroke="currentColor" fill="none"/>
<use x="413.53" y="82.01" xlink:href="#hd"/>
<path d="M410.03 82.01v23.20" stroke="currentColor" fill="none"/>
<path fill="currentColor"
	d="M429.73 108.71l36.70 4.60v-3.20l-36.70 -4.60"/>
<path fill="currentColor"
	d="M430.03 103.71l36.00 4.50v-3.20l-36.00 -4.50"/>
<use x="433.53" y="85.01" xlink:href="#hd"/>
<path d="M430.03 85.01v22.70" stroke="currentColor" fill="none"/>
<use x="451.53" y="88.01" xlink:href="#hd"/>
<path d="M448.03 88.01v22.00" stroke="currentColor" fill="none"/>
<use x="469.53" y="91.01" xlink:href="#hd"/>
<path d="M466.03 91.01v21.20" stroke="currentColor" fill="none"/>
<use x="499.73" y="94.01" xlink:href="#hd"/>
<path d="M496.23 94.01v20.00" stroke="currentColor" fill="none"/>
<path fill="currentColor"
	d="M496.23 114.01c0.6 -5.6 9.6 -9 5.6 -18.4
	c1.6 6 -1.3 11.6 -5.6 12.8
"/>
</g>
</svg>
