<?xml version="1.0" standalone="no"?>
<!DOCTYPE svg PUBLIC "-//W3C//DTD SVG 1.1//EN"
	"http://www.w3.org/Graphics/SVG/1.1/DTD/svg11.dtd">
<svg xmlns="http://www.w3.org/2000/svg" version="1.1"
	xmlns:xlink="http://www.w3.org/1999/xlink"
	xml:space='preserve' color="black"
	width="7.38in" height="1.34in" viewBox="0 0 531 97">
<title>0166.abc (0166) tune 1</title>
<!-- Creator: abcm2ps-7.8.14 -->
<!-- CreationDate: Mar 13, 2016 18:53 -->
<!-- CommandLine: -qxg 0166.abc -O ../svgs/0166.svg -->
<g transform="scale(0.750)" stroke-width="0.70" font-family="Times" font-size="20.00">
<text x="354.13" y="21.67" text-anchor="middle">0166.  Concerto No. 3, in C Minor, 2nd. Mvt.</text>
</g>
<g transform="scale(0.750)" stroke-width="0.70" font-family="Times" font-size="14.00" font-style="italic">
<text x="694.93" y="45.34" text-anchor="end">Johann Sebastian Bach</text>
</g>
<g transform="scale(0.525)" stroke-width="0.70" font-family="Times" font-size="14.00" font-style="italic">
<defs>
<ellipse id="hd" rx="4.1" ry="2.9"
	transform="rotate(-20)" fill="currentColor"/>
</defs>
<use x="123.47" y="94.16" xlink:href="#hd"/>
<path d="M126.97 94.16v-20.00" stroke="currentColor" fill="none"/>
</g>
<g transform="scale(0.750)" stroke-width="0.70" font-family="Times" font-size="15.00" font-weight="bold">
<text x="94.13" y="68.01">= 120</text>
<path stroke="currentColor" fill="none"
	d="M314.03 106.01v-24.00"/>
<path stroke="currentColor" fill="none"
	d="M657.73 106.01v-24.00"/>
<path stroke="currentColor" fill="none"
	d="M13.33 106.01h681.60m-681.60 -6h681.60m-681.60 -6h681.60m-681.60 -6h681.60m-681.60 -6h681.60"/>
<defs>
<path id="utclef" fill="currentColor" d="m-50 -90
	c-72 -41 -72 -158 52 -188
	c150 -10 220 188 90 256
	c-114 52 -275 0 -293 -136
	c-15 -181 93 -229 220 -334
	c88 -87 79 -133 62 -210
	c-51 33 -94 105 -89 186
	c17 267 36 374 49 574
	c6 96 -19 134 -77 135
	c-80 1 -126 -93 -61 -133
	c85 -41 133 101 31 105
	c23 17 92 37 90 -92
	c-10 -223 -39 -342 -50 -617
	c0 -90 0 -162 96 -232
	c56 72 63 230 22 289
	c-74 106 -257 168 -255 316
	c9 153 148 185 252 133
	c86 -65 29 -192 -80 -176
	c-71 12 -105 67 -59 124"/>
<use id="tclef" transform="scale(0.045)"
	xlink:href="#utclef"/>
</defs>
<use x="25.33" y="106.01" xlink:href="#tclef"/>
<defs>
<path id="uflat" fill="currentColor" d="
	m100 -746
	h32
	v734
	l-32 4
	m32 -332
	c46 -72 152 -90 208 -20
	c100 110 -120 326 -208 348
	m0 -28
	c54 0 200 -206 130 -290
	c-50 -60 -130 -4 -130 34"/>
<use id="ft0" transform="translate(-3.5,3.5) scale(0.018)"
	xlink:href="#uflat"/>
</defs>
<use x="40.33" y="94.01" xlink:href="#ft0"/>
<use x="45.83" y="85.01" xlink:href="#ft0"/>
<use x="51.33" y="97.01" xlink:href="#ft0"/>
<g font-family="serif" font-size="16" font-weight="bold" font-style="normal"
	transform="translate(67.33,106.01) scale(1.2,1)">
	<text y="-1" text-anchor="middle">4</text>
	<text y="-13" text-anchor="middle">6</text>
</g>
<defs>
<path id="Hd" fill="currentColor" d="m3 -1.6
	c-1 -1.8 -7 1.4 -6 3.2
	c1 1.8 7 -1.4 6 -3.2
	m0.5 -0.3
	c2 3.8 -5 7.6 -7 3.8
	c-2 -3.8 5 -7.6 7 -3.8"/>
</defs>
<use x="85.83" y="85.01" xlink:href="#Hd"/>
<path d="M82.33 85.01v20.00" stroke="currentColor" fill="none"/>
<path fill="currentColor"
	d="M143.63 108.21l28.40 2.50v-3.20l-28.40 -2.50"/>
<use x="147.53" y="88.01" xlink:href="#hd"/>
<path d="M144.03 88.01v19.30" stroke="currentColor" fill="none"/>
<use x="175.23" y="91.01" xlink:href="#hd"/>
<path d="M171.73 91.01v18.70" stroke="currentColor" fill="none"/>
<use x="206.13" y="94.01" xlink:href="#Hd"/>
<path d="M202.63 94.01v20.00" stroke="currentColor" fill="none"/>
<path fill="currentColor"
	d="M264.73 77.21l28.40 2.50v3.20l-28.40 -2.50"/>
<use x="261.63" y="97.01" xlink:href="#hd"/>
<path d="M265.13 97.01v-18.70" stroke="currentColor" fill="none"/>
<use x="289.33" y="100.01" xlink:href="#hd"/>
<path d="M292.83 100.01v-19.30" stroke="currentColor" fill="none"/>
<defs>
<path id="r8e" fill="currentColor" d="m 0 0
	c-1.5 1.5 -2.4 2 -3.6 2
	c2.4 -2.8 -2.8 -4 -2.8 -1.2
	c0 2.7 4.3 2.4 5.9 0.6"/>
<g id="r32">
	<path d="m4.8 -10l-5.5 21.6" stroke="currentColor" fill="none"/>
	<use x="4.9" y="-10" xlink:href="#r8e"/>
	<use x="3.4" y="-4" xlink:href="#r8e"/>
	<use x="1.9" y="2" xlink:href="#r8e"/>
</g>
</defs>
<use x="329.43" y="94.01" xlink:href="#r32"/>
<path fill="currentColor"
	d="M346.43 75.81l57.80 0.00v3.20l-57.80 -0.00"/>
<path fill="currentColor"
	d="M346.83 80.81l34.80 0.00v3.20l-34.80 -0.00"/>
<use x="343.33" y="103.01" xlink:href="#hd"/>
<circle fill="currentColor" cx="351.33" cy="103.01" r="1.2"/>
<path d="M346.83 103.01v-26.20" stroke="currentColor" fill="none"/>
<use x="365.63" y="94.01" xlink:href="#r32"/>
<use x="378.13" y="109.01" xlink:href="#hd"/>
<circle fill="currentColor" cx="386.13" cy="109.01" r="1.2"/>
<path d="M381.63 109.01v-32.20" stroke="currentColor" fill="none"/>
<use x="400.43" y="106.01" xlink:href="#hd"/>
<path d="M403.93 106.01v-29.20" stroke="currentColor" fill="none"/>
<use x="431.23" y="97.01" xlink:href="#Hd"/>
<path d="M434.73 97.01v-20.00" stroke="currentColor" fill="none"/>
<path fill="currentColor"
	d="M496.13 79.01l28.40 -4.30v3.20l-28.40 4.30"/>
<use x="492.93" y="100.01" xlink:href="#hd"/>
<path d="M496.43 100.01v-20.00" stroke="currentColor" fill="none"/>
<use x="520.73" y="94.01" xlink:href="#hd"/>
<path d="M524.23 94.01v-18.20" stroke="currentColor" fill="none"/>
<path fill="currentColor"
	d="M547.73 106.81l28.40 -2.50v-3.20l-28.40 2.50"/>
<path fill="currentColor"
	d="M569.73 99.81l6.00 -0.50v-3.20l-6.00 0.50"/>
<use x="551.53" y="85.01" xlink:href="#hd"/>
<path d="M548.03 85.01v20.70" stroke="currentColor" fill="none"/>
<use x="579.23" y="82.01" xlink:href="#hd"/>
<path d="M575.73 82.01v21.30" stroke="currentColor" fill="none"/>
<path fill="currentColor"
	d="M597.23 108.61l39.90 4.70v-3.20l-39.90 -4.70"/>
<path fill="currentColor"
	d="M597.53 103.61l39.20 4.60v-3.20l-39.20 -4.60"/>
<use x="601.03" y="85.01" xlink:href="#hd"/>
<path d="M597.53 85.01v22.60" stroke="currentColor" fill="none"/>
<use x="620.63" y="88.01" xlink:href="#hd"/>
<path d="M617.13 88.01v21.90" stroke="currentColor" fill="none"/>
<use x="640.33" y="91.01" xlink:href="#hd"/>
<path d="M636.83 91.01v21.20" stroke="currentColor" fill="none"/>
<use x="673.13" y="88.01" xlink:href="#hd"/>
<path d="M669.63 88.01v22.00" stroke="currentColor" fill="none"/>
<path fill="currentColor"
	d="M669.63 110.01c0.9 -3.7 9.1 -6.4 6 -12.4
	c1 5.4 -4.2 8.4 -6 8.4
M669.63 104.61c0.9 -3.7 9.1 -6.4 6 -12.4
	c1 5.4 -4.2 8.4 -6 8.4
"/>
</g>
</svg>
