<?xml version="1.0" standalone="no"?>
<!DOCTYPE svg PUBLIC "-//W3C//DTD SVG 1.1//EN"
	"http://www.w3.org/Graphics/SVG/1.1/DTD/svg11.dtd">
<svg xmlns="http://www.w3.org/2000/svg" version="1.1"
	xmlns:xlink="http://www.w3.org/1999/xlink"
	xml:space='preserve' color="black"
	width="7.38in" height="1.34in" viewBox="0 0 531 97">
<title>0192.abc (0192) tune 1</title>
<!-- Creator: abcm2ps-7.8.14 -->
<!-- CreationDate: Mar 13, 2016 18:53 -->
<!-- CommandLine: -qxg 0192.abc -O ../svgs/0192.svg -->
<g transform="scale(0.750)" stroke-width="0.70" font-family="Times" font-size="20.00">
<text x="354.13" y="21.67" text-anchor="middle">0192.  Pft. Aria for Goldberg Variations</text>
</g>
<g transform="scale(0.750)" stroke-width="0.70" font-family="Times" font-size="14.00" font-style="italic">
<text x="694.93" y="45.34" text-anchor="end">Johann Sebastian Bach</text>
</g>
<g transform="scale(0.525)" stroke-width="0.70" font-family="Times" font-size="14.00" font-style="italic">
<defs>
<ellipse id="hd" rx="4.1" ry="2.9"
	transform="rotate(-20)" fill="currentColor"/>
</defs>
<use x="107.04" y="94.16" xlink:href="#hd"/>
<path d="M110.54 94.16v-20.00" stroke="currentColor" fill="none"/>
</g>
<g transform="scale(0.750)" stroke-width="0.70" font-family="Times" font-size="15.00" font-weight="bold">
<text x="82.63" y="68.01">= 120</text>
<path stroke="currentColor" fill="none"
	d="M215.83 106.01v-24.00"/>
<path stroke="currentColor" fill="none"
	d="M343.03 106.01v-24.00"/>
<path stroke="currentColor" fill="none"
	d="M543.93 106.01v-24.00"/>
<path stroke="currentColor" fill="none"
	d="M694.93 106.01v-24.00"/>
<path stroke="currentColor" fill="none"
	d="M13.33 106.01h681.60m-681.60 -6h681.60m-681.60 -6h681.60m-681.60 -6h681.60m-681.60 -6h681.60"/>
<defs>
<path id="utclef" fill="currentColor" d="m-50 -90
	c-72 -41 -72 -158 52 -188
	c150 -10 220 188 90 256
	c-114 52 -275 0 -293 -136
	c-15 -181 93 -229 220 -334
	c88 -87 79 -133 62 -210
	c-51 33 -94 105 -89 186
	c17 267 36 374 49 574
	c6 96 -19 134 -77 135
	c-80 1 -126 -93 -61 -133
	c85 -41 133 101 31 105
	c23 17 92 37 90 -92
	c-10 -223 -39 -342 -50 -617
	c0 -90 0 -162 96 -232
	c56 72 63 230 22 289
	c-74 106 -257 168 -255 316
	c9 153 148 185 252 133
	c86 -65 29 -192 -80 -176
	c-71 12 -105 67 -59 124"/>
<use id="tclef" transform="scale(0.045)"
	xlink:href="#utclef"/>
</defs>
<use x="25.33" y="106.01" xlink:href="#tclef"/>
<defs>
<path id="usharp" fill="currentColor" d="
	m136 -702
	v890
	h32
	v-890
	m128 840
	h32
	v-888
	h-32
	m-232 286
	v116
	l338 -96
	v-116
	m-338 442
	v116
	l338 -98
	v-114"/>
<use id="sh0" transform="translate(-4,5) scale(0.018)"
	xlink:href="#usharp"/>
</defs>
<use x="40.33" y="82.01" xlink:href="#sh0"/>
<g font-family="serif" font-size="16" font-weight="bold" font-style="normal"
	transform="translate(56.33,106.01) scale(1.2,1)">
	<text y="-1" text-anchor="middle">4</text>
	<text y="-13" text-anchor="middle">3</text>
</g>
<use x="74.33" y="79.01" xlink:href="#hd"/>
<path d="M70.83 79.01v20.00" stroke="currentColor" fill="none"/>
<use x="106.13" y="79.01" xlink:href="#hd"/>
<path d="M102.63 79.01v20.00" stroke="currentColor" fill="none"/>
<path fill="currentColor"
	d="M134.03 101.31l11.30 -2.00v-3.20l-11.30 2.00"/>
<path fill="currentColor"
	d="M134.33 96.21l10.70 -1.90v-3.20l-10.70 1.90"/>
<path fill="currentColor"
	d="M134.33 91.21l10.70 -1.90v-3.20l-10.70 1.90"/>
<defs>
<path id="hl" stroke="currentColor" d="m-6 0h12"/>
</defs>
<use x="137.83" y="76.01" xlink:href="#hl"/>
<use x="137.83" y="76.01" xlink:href="#hd"/>
<path d="M134.33 76.01v24.20" stroke="currentColor" fill="none"/>
<use x="148.53" y="76.01" xlink:href="#hl"/>
<use x="148.53" y="73.01" xlink:href="#hd"/>
<path d="M145.03 73.01v25.30" stroke="currentColor" fill="none"/>
<path fill="currentColor"
	d="M156.43 118.21l43.10 0.00v-3.20l-43.10 -0.00"/>
<path fill="currentColor"
	d="M156.73 113.21l42.40 0.00v-3.20l-42.40 -0.00"/>
<path fill="currentColor"
	d="M156.73 108.21l31.80 0.00v-3.20l-31.80 -0.00"/>
<use x="160.23" y="76.01" xlink:href="#hl"/>
<use x="160.23" y="76.01" xlink:href="#hd"/>
<path d="M156.73 76.01v41.20" stroke="currentColor" fill="none"/>
<use x="170.93" y="76.01" xlink:href="#hl"/>
<use x="170.93" y="73.01" xlink:href="#hd"/>
<path d="M167.43 73.01v44.20" stroke="currentColor" fill="none"/>
<defs>
<path id="r8e" fill="currentColor" d="m 0 0
	c-1.5 1.5 -2.4 2 -3.6 2
	c2.4 -2.8 -2.8 -4 -2.8 -1.2
	c0 2.7 4.3 2.4 5.9 0.6"/>
<g id="r32">
	<path d="m4.8 -10l-5.5 21.6" stroke="currentColor" fill="none"/>
	<use x="4.9" y="-10" xlink:href="#r8e"/>
	<use x="3.4" y="-4" xlink:href="#r8e"/>
	<use x="1.9" y="2" xlink:href="#r8e"/>
</g>
</defs>
<use x="181.43" y="94.01" xlink:href="#r32"/>
<use x="192.03" y="76.01" xlink:href="#hl"/>
<use x="192.03" y="76.01" xlink:href="#hd"/>
<path d="M188.53 76.01v41.20" stroke="currentColor" fill="none"/>
<use x="202.73" y="76.01" xlink:href="#hl"/>
<use x="202.73" y="73.01" xlink:href="#hd"/>
<path d="M199.23 73.01v44.20" stroke="currentColor" fill="none"/>
<path fill="currentColor"
	d="M224.43 102.91l48.80 4.30v-3.20l-48.80 -4.30"/>
<path fill="currentColor"
	d="M245.23 99.71l27.70 2.50v-3.20l-27.70 -2.50"/>
<path fill="currentColor"
	d="M251.23 95.31l-6.00 -0.50v-3.20l6.00 0.50"/>
<use x="228.33" y="76.01" xlink:href="#hl"/>
<use x="228.33" y="76.01" xlink:href="#hd"/>
<path d="M224.83 76.01v25.90" stroke="currentColor" fill="none"/>
<use x="248.73" y="79.01" xlink:href="#hd"/>
<path d="M245.23 79.01v24.70" stroke="currentColor" fill="none"/>
<use x="259.33" y="82.01" xlink:href="#hd"/>
<circle fill="currentColor" cx="267.33" cy="79.01" r="1.2"/>
<path d="M255.83 82.01v22.70" stroke="currentColor" fill="none"/>
<use x="276.43" y="85.01" xlink:href="#hd"/>
<path d="M272.93 85.01v21.20" stroke="currentColor" fill="none"/>
<use x="292.63" y="88.01" xlink:href="#hd"/>
<circle fill="currentColor" cx="300.63" cy="85.01" r="1.2"/>
<path d="M289.13 88.01v20.00" stroke="currentColor" fill="none"/>
<use x="329.93" y="88.01" xlink:href="#hd"/>
<path d="M326.43 88.01v22.00" stroke="currentColor" fill="none"/>
<path fill="currentColor"
	d="M326.43 110.01c0.9 -3.7 9.1 -6.4 6 -12.4
	c1 5.4 -4.2 8.4 -6 8.4
M326.43 104.61c0.9 -3.7 9.1 -6.4 6 -12.4
	c1 5.4 -4.2 8.4 -6 8.4
"/>
<use x="355.53" y="100.01" xlink:href="#hd"/>
<path d="M359.03 100.01v-20.00" stroke="currentColor" fill="none"/>
<path fill="currentColor"
	d="M390.43 69.81l32.30 0.00v3.20l-32.30 -0.00"/>
<path fill="currentColor"
	d="M390.83 74.81l31.70 0.00v3.20l-31.70 -0.00"/>
<path fill="currentColor"
	d="M390.83 79.81l31.70 0.00v3.20l-31.70 -0.00"/>
<use x="387.33" y="100.01" xlink:href="#hd"/>
<path d="M390.83 100.01v-29.20" stroke="currentColor" fill="none"/>
<use x="397.83" y="97.01" xlink:href="#hd"/>
<path d="M401.33 97.01v-26.20" stroke="currentColor" fill="none"/>
<use x="408.43" y="100.01" xlink:href="#hd"/>
<path d="M411.93 100.01v-29.20" stroke="currentColor" fill="none"/>
<use x="418.93" y="97.01" xlink:href="#hd"/>
<path d="M422.43 97.01v-26.20" stroke="currentColor" fill="none"/>
<path fill="currentColor"
	d="M433.73 69.81l53.40 0.00v3.20l-53.40 -0.00"/>
<path fill="currentColor"
	d="M434.13 74.81l52.80 0.00v3.20l-52.80 -0.00"/>
<path fill="currentColor"
	d="M434.13 79.81l52.80 0.00v3.20l-52.80 -0.00"/>
<use x="430.63" y="100.01" xlink:href="#hd"/>
<path d="M434.13 100.01v-29.20" stroke="currentColor" fill="none"/>
<use x="441.13" y="97.01" xlink:href="#hd"/>
<path d="M444.63 97.01v-26.20" stroke="currentColor" fill="none"/>
<use x="451.73" y="100.01" xlink:href="#hd"/>
<path d="M455.23 100.01v-29.20" stroke="currentColor" fill="none"/>
<use x="462.23" y="97.01" xlink:href="#hd"/>
<path d="M465.73 97.01v-26.20" stroke="currentColor" fill="none"/>
<use x="472.83" y="100.01" xlink:href="#hd"/>
<path d="M476.33 100.01v-29.20" stroke="currentColor" fill="none"/>
<use x="483.33" y="97.01" xlink:href="#hd"/>
<path d="M486.83 97.01v-26.20" stroke="currentColor" fill="none"/>
<path fill="currentColor"
	d="M498.23 69.81l36.40 0.00v3.20l-36.40 -0.00"/>
<path fill="currentColor"
	d="M498.53 74.81l35.70 0.00v3.20l-35.70 -0.00"/>
<path fill="currentColor"
	d="M498.53 79.81l10.60 0.00v3.20l-10.60 -0.00"/>
<use x="495.03" y="100.01" xlink:href="#hd"/>
<path d="M498.53 100.01v-29.20" stroke="currentColor" fill="none"/>
<use x="505.53" y="97.01" xlink:href="#hd"/>
<path d="M509.03 97.01v-26.20" stroke="currentColor" fill="none"/>
<use x="516.13" y="103.01" xlink:href="#hd"/>
<path d="M519.63 103.01v-32.20" stroke="currentColor" fill="none"/>
<use x="530.73" y="100.01" xlink:href="#hd"/>
<path d="M534.23 100.01v-29.20" stroke="currentColor" fill="none"/>
<path fill="currentColor"
	d="M559.53 69.81l47.00 0.00v3.20l-47.00 -0.00"/>
<path fill="currentColor"
	d="M559.93 74.81l46.30 0.00v3.20l-46.30 -0.00"/>
<path fill="currentColor"
	d="M559.93 79.81l10.60 0.00v3.20l-10.60 -0.00"/>
<path fill="currentColor"
	d="M595.63 79.81l10.60 0.00v3.20l-10.60 -0.00"/>
<use x="556.43" y="97.01" xlink:href="#hd"/>
<path d="M559.93 97.01v-26.20" stroke="currentColor" fill="none"/>
<use x="566.93" y="100.01" xlink:href="#hd"/>
<path d="M570.43 100.01v-29.20" stroke="currentColor" fill="none"/>
<use x="577.53" y="103.01" xlink:href="#hd"/>
<path d="M581.03 103.01v-32.20" stroke="currentColor" fill="none"/>
<use x="592.13" y="100.01" xlink:href="#hd"/>
<path d="M595.63 100.01v-29.20" stroke="currentColor" fill="none"/>
<use x="602.73" y="103.01" xlink:href="#hd"/>
<path d="M606.23 103.01v-32.20" stroke="currentColor" fill="none"/>
<path fill="currentColor"
	d="M617.53 81.01l15.30 0.00v3.20l-15.30 -0.00"/>
<path fill="currentColor"
	d="M617.83 86.01l14.60 0.00v3.20l-14.60 -0.00"/>
<path fill="currentColor"
	d="M626.53 91.01l6.00 0.00v3.20l-6.00 -0.00"/>
<use x="614.33" y="106.01" xlink:href="#hd"/>
<path d="M617.83 106.01v-24.00" stroke="currentColor" fill="none"/>
<use x="629.03" y="106.01" xlink:href="#hd"/>
<path d="M632.53 106.01v-24.00" stroke="currentColor" fill="none"/>
<use x="640.63" y="109.01" xlink:href="#hd"/>
<circle fill="currentColor" cx="648.63" cy="109.01" r="1.2"/>
<path d="M644.13 109.01v-20.00" stroke="currentColor" fill="none"/>
<use x="677.93" y="109.01" xlink:href="#hd"/>
<circle fill="currentColor" cx="685.93" cy="109.01" r="1.2"/>
<path d="M681.43 109.01v-21.00" stroke="currentColor" fill="none"/>
<path fill="currentColor"
	d="M681.43 88.01c0.9 3.7 9.1 6.4 6 12.4
	c1 -5.4 -4.2 -8.4 -6 -8.4
M681.43 93.41c0.9 3.7 9.1 6.4 6 12.4
	c1 -5.4 -4.2 -8.4 -6 -8.4
"/>
<path fill="currentColor"
	d="M296.13 82.01c4.77 -5.05 25.51 -5.05 30.28 -0.00
	l0.00 -0.23c-5.68 -6.81 -24.60 -6.81 -30.28 0.23"/>
<path fill="currentColor"
	d="M644.13 111.01c4.77 5.05 25.51 5.05 30.28 -0.00
	l0.00 0.23c-5.68 6.81 -24.60 6.81 -30.28 -0.23"/>
</g>
</svg>
