<?xml version="1.0" standalone="no"?>
<!DOCTYPE svg PUBLIC "-//W3C//DTD SVG 1.1//EN"
	"http://www.w3.org/Graphics/SVG/1.1/DTD/svg11.dtd">
<svg xmlns="http://www.w3.org/2000/svg" version="1.1"
	xmlns:xlink="http://www.w3.org/1999/xlink"
	xml:space='preserve' color="black"
	width="7.38in" height="1.39in" viewBox="0 0 531 100">
<title>0200.abc (0200) tune 1</title>
<!-- Creator: abcm2ps-7.8.14 -->
<!-- CreationDate: Mar 13, 2016 18:53 -->
<!-- CommandLine: -qxg 0200.abc -O ../svgs/0200.svg -->
<g transform="scale(0.750)" stroke-width="0.70" font-family="Times" font-size="20.00">
<text x="354.13" y="21.67" text-anchor="middle">0200.  Two-Part Inventions, Pft., No. 7 in E Minor</text>
</g>
<g transform="scale(0.750)" stroke-width="0.70" font-family="Times" font-size="14.00" font-style="italic">
<text x="694.93" y="45.34" text-anchor="end">Johann Sebastian Bach</text>
</g>
<g transform="scale(0.525)" stroke-width="0.70" font-family="Times" font-size="14.00" font-style="italic">
<defs>
<ellipse id="hd" rx="4.1" ry="2.9"
	transform="rotate(-20)" fill="currentColor"/>
</defs>
<use x="107.04" y="94.16" xlink:href="#hd"/>
<path d="M110.54 94.16v-20.00" stroke="currentColor" fill="none"/>
</g>
<g transform="scale(0.750)" stroke-width="0.70" font-family="Times" font-size="15.00" font-weight="bold">
<text x="82.63" y="68.01">= 120</text>
<path stroke="currentColor" fill="none"
	d="M337.23 110.01v-24.00"/>
<path stroke="currentColor" fill="none"
	d="M13.33 110.01h362.40m-362.40 -6h362.40m-362.40 -6h362.40m-362.40 -6h362.40m-362.40 -6h362.40"/>
<defs>
<path id="utclef" fill="currentColor" d="m-50 -90
	c-72 -41 -72 -158 52 -188
	c150 -10 220 188 90 256
	c-114 52 -275 0 -293 -136
	c-15 -181 93 -229 220 -334
	c88 -87 79 -133 62 -210
	c-51 33 -94 105 -89 186
	c17 267 36 374 49 574
	c6 96 -19 134 -77 135
	c-80 1 -126 -93 -61 -133
	c85 -41 133 101 31 105
	c23 17 92 37 90 -92
	c-10 -223 -39 -342 -50 -617
	c0 -90 0 -162 96 -232
	c56 72 63 230 22 289
	c-74 106 -257 168 -255 316
	c9 153 148 185 252 133
	c86 -65 29 -192 -80 -176
	c-71 12 -105 67 -59 124"/>
<use id="tclef" transform="scale(0.045)"
	xlink:href="#utclef"/>
</defs>
<use x="25.33" y="110.01" xlink:href="#tclef"/>
<defs>
<path id="usharp" fill="currentColor" d="
	m136 -702
	v890
	h32
	v-890
	m128 840
	h32
	v-888
	h-32
	m-232 286
	v116
	l338 -96
	v-116
	m-338 442
	v116
	l338 -98
	v-114"/>
<use id="sh0" transform="translate(-4,5) scale(0.018)"
	xlink:href="#usharp"/>
</defs>
<use x="40.33" y="86.01" xlink:href="#sh0"/>
<g font-family="serif" font-size="16" font-weight="bold" font-style="normal"
	transform="translate(56.33,110.01) scale(1.2,1)">
	<text y="-1" text-anchor="middle">4</text>
	<text y="-13" text-anchor="middle">4</text>
</g>
<defs>
<path id="r8e" fill="currentColor" d="m 0 0
	c-1.5 1.5 -2.4 2 -3.6 2
	c2.4 -2.8 -2.8 -4 -2.8 -1.2
	c0 2.7 4.3 2.4 5.9 0.6"/>
<g id="r8">
	<path d="m3.3 -4l-3.4 9.6" stroke="currentColor" fill="none"/>
	<use x="3.4" y="-4" xlink:href="#r8e"/>
</g>
</defs>
<use x="74.33" y="98.01" xlink:href="#r8"/>
<path fill="currentColor"
	d="M102.93 75.81l18.70 2.30v3.20l-18.70 -2.30"/>
<path fill="currentColor"
	d="M103.33 80.81l18.00 2.20v3.20l-18.00 -2.20"/>
<use x="99.83" y="98.01" xlink:href="#hd"/>
<path d="M103.33 98.01v-21.20" stroke="currentColor" fill="none"/>
<use x="117.83" y="101.01" xlink:href="#hd"/>
<path d="M121.33 101.01v-22.00" stroke="currentColor" fill="none"/>
<path fill="currentColor"
	d="M140.93 81.81l18.70 2.30v3.20l-18.70 -2.30"/>
<path fill="currentColor"
	d="M141.33 86.81l18.00 2.30v3.20l-18.00 -2.30"/>
<use x="137.83" y="104.01" xlink:href="#hd"/>
<path d="M141.33 104.01v-21.20" stroke="currentColor" fill="none"/>
<use x="155.83" y="107.01" xlink:href="#hd"/>
<path d="M159.33 107.01v-21.90" stroke="currentColor" fill="none"/>
<path fill="currentColor"
	d="M178.93 81.71l18.70 3.70v3.20l-18.70 -3.70"/>
<path fill="currentColor"
	d="M179.33 86.81l18.00 3.60v3.20l-18.00 -3.60"/>
<use x="175.83" y="104.01" xlink:href="#hd"/>
<path d="M179.33 104.01v-21.20" stroke="currentColor" fill="none"/>
<use x="193.83" y="110.01" xlink:href="#hd"/>
<path d="M197.33 110.01v-23.60" stroke="currentColor" fill="none"/>
<use x="213.83" y="98.01" xlink:href="#hd"/>
<path d="M210.33 98.01v20.00" stroke="currentColor" fill="none"/>
<path fill="currentColor"
	d="M210.33 118.01c0.6 -5.6 9.6 -9 5.6 -18.4
	c1.6 6 -1.3 11.6 -5.6 12.8
"/>
<defs>
<g id="r32">
	<path d="m4.8 -10l-5.5 21.6" stroke="currentColor" fill="none"/>
	<use x="4.9" y="-10" xlink:href="#r8e"/>
	<use x="3.4" y="-4" xlink:href="#r8e"/>
	<use x="1.9" y="2" xlink:href="#r8e"/>
</g>
</defs>
<use x="239.23" y="98.01" xlink:href="#r32"/>
<use x="252.03" y="98.01" xlink:href="#r32"/>
<path fill="currentColor"
	d="M262.33 125.21l60.40 -4.80v-3.20l-60.40 4.80"/>
<path fill="currentColor"
	d="M268.63 119.71l-6.00 0.50v-3.20l6.00 -0.50"/>
<path fill="currentColor"
	d="M316.33 115.91l6.00 -0.50v-3.20l-6.00 0.50"/>
<path fill="currentColor"
	d="M316.33 110.91l6.00 -0.50v-3.20l-6.00 0.50"/>
<use x="266.13" y="98.01" xlink:href="#hd"/>
<path d="M262.63 98.01v26.20" stroke="currentColor" fill="none"/>
<use x="284.13" y="89.01" xlink:href="#hd"/>
<circle fill="currentColor" cx="292.13" cy="89.01" r="1.2"/>
<path d="M280.63 89.01v33.80" stroke="currentColor" fill="none"/>
<use x="313.13" y="98.01" xlink:href="#r32"/>
<use x="325.83" y="86.01" xlink:href="#hd"/>
<path d="M322.33 86.01v33.50" stroke="currentColor" fill="none"/>
<use x="355.73" y="92.01" xlink:href="#hd"/>
<use x="346.73" y="92.01" xlink:href="#sh0"/>
<path d="M352.23 92.01v22.00" stroke="currentColor" fill="none"/>
<path fill="currentColor"
	d="M352.23 114.01c0.9 -3.7 9.1 -6.4 6 -12.4
	c1 5.4 -4.2 8.4 -6 8.4
M352.23 108.61c0.9 -3.7 9.1 -6.4 6 -12.4
	c1 5.4 -4.2 8.4 -6 8.4
"/>
</g>
</svg>
