<?xml version="1.0" standalone="no"?>
<!DOCTYPE svg PUBLIC "-//W3C//DTD SVG 1.1//EN"
	"http://www.w3.org/Graphics/SVG/1.1/DTD/svg11.dtd">
<svg xmlns="http://www.w3.org/2000/svg" version="1.1"
	xmlns:xlink="http://www.w3.org/1999/xlink"
	xml:space='preserve' color="black"
	width="7.38in" height="1.34in" viewBox="0 0 531 97">
<title>0207.abc (0207) tune 1</title>
<!-- Creator: abcm2ps-7.8.14 -->
<!-- CreationDate: Mar 13, 2016 18:53 -->
<!-- CommandLine: -qxg 0207.abc -O ../svgs/0207.svg -->
<g transform="scale(0.750)" stroke-width="0.70" font-family="Times" font-size="20.00">
<text x="354.13" y="21.67" text-anchor="middle">0207.  Two-Part Inventions, Pft., No. 14 in B Flat</text>
</g>
<g transform="scale(0.750)" stroke-width="0.70" font-family="Times" font-size="14.00" font-style="italic">
<text x="694.93" y="45.34" text-anchor="end">Johann Sebastian Bach</text>
</g>
<g transform="scale(0.525)" stroke-width="0.70" font-family="Times" font-size="14.00" font-style="italic">
<defs>
<ellipse id="hd" rx="4.1" ry="2.9"
	transform="rotate(-20)" fill="currentColor"/>
</defs>
<use x="114.90" y="94.16" xlink:href="#hd"/>
<path d="M118.40 94.16v-20.00" stroke="currentColor" fill="none"/>
</g>
<g transform="scale(0.750)" stroke-width="0.70" font-family="Times" font-size="15.00" font-weight="bold">
<text x="88.13" y="68.01">= 120</text>
<path stroke="currentColor" fill="none"
	d="M371.73 106.01v-24.00"/>
<path stroke="currentColor" fill="none"
	d="M13.33 106.01h446.60m-446.60 -6h446.60m-446.60 -6h446.60m-446.60 -6h446.60m-446.60 -6h446.60"/>
<defs>
<path id="utclef" fill="currentColor" d="m-50 -90
	c-72 -41 -72 -158 52 -188
	c150 -10 220 188 90 256
	c-114 52 -275 0 -293 -136
	c-15 -181 93 -229 220 -334
	c88 -87 79 -133 62 -210
	c-51 33 -94 105 -89 186
	c17 267 36 374 49 574
	c6 96 -19 134 -77 135
	c-80 1 -126 -93 -61 -133
	c85 -41 133 101 31 105
	c23 17 92 37 90 -92
	c-10 -223 -39 -342 -50 -617
	c0 -90 0 -162 96 -232
	c56 72 63 230 22 289
	c-74 106 -257 168 -255 316
	c9 153 148 185 252 133
	c86 -65 29 -192 -80 -176
	c-71 12 -105 67 -59 124"/>
<use id="tclef" transform="scale(0.045)"
	xlink:href="#utclef"/>
</defs>
<use x="25.33" y="106.01" xlink:href="#tclef"/>
<defs>
<path id="uflat" fill="currentColor" d="
	m100 -746
	h32
	v734
	l-32 4
	m32 -332
	c46 -72 152 -90 208 -20
	c100 110 -120 326 -208 348
	m0 -28
	c54 0 200 -206 130 -290
	c-50 -60 -130 -4 -130 34"/>
<use id="ft0" transform="translate(-3.5,3.5) scale(0.018)"
	xlink:href="#uflat"/>
</defs>
<use x="40.33" y="94.01" xlink:href="#ft0"/>
<use x="45.83" y="85.01" xlink:href="#ft0"/>
<g font-family="serif" font-size="16" font-weight="bold" font-style="normal"
	transform="translate(61.83,106.01) scale(1.2,1)">
	<text y="-1" text-anchor="middle">4</text>
	<text y="-13" text-anchor="middle">4</text>
</g>
<defs>
<path id="r8e" fill="currentColor" d="m 0 0
	c-1.5 1.5 -2.4 2 -3.6 2
	c2.4 -2.8 -2.8 -4 -2.8 -1.2
	c0 2.7 4.3 2.4 5.9 0.6"/>
<g id="r16">
	<path d="m3.3 -4l-4 15.6" stroke="currentColor" fill="none"/>
	<use x="3.4" y="-4" xlink:href="#r8e"/>
	<use x="1.9" y="2" xlink:href="#r8e"/>
</g>
</defs>
<use x="79.83" y="94.01" xlink:href="#r16"/>
<path fill="currentColor"
	d="M96.03 119.31l13.40 -2.10v-3.20l-13.40 2.10"/>
<path fill="currentColor"
	d="M96.33 114.21l12.70 -2.00v-3.20l-12.70 2.00"/>
<path fill="currentColor"
	d="M96.33 109.21l12.70 -2.00v-3.20l-12.70 2.00"/>
<use x="99.83" y="94.01" xlink:href="#hd"/>
<path d="M96.33 94.01v24.20" stroke="currentColor" fill="none"/>
<use x="112.53" y="91.01" xlink:href="#hd"/>
<path d="M109.03 91.01v25.20" stroke="currentColor" fill="none"/>
<path fill="currentColor"
	d="M122.83 114.11l26.10 4.20v-3.20l-26.10 -4.20"/>
<path fill="currentColor"
	d="M123.23 109.21l25.50 4.10v-3.20l-25.50 -4.10"/>
<path fill="currentColor"
	d="M123.23 104.21l12.70 2.00v-3.20l-12.70 -2.00"/>
<use x="126.73" y="88.01" xlink:href="#hd"/>
<path d="M123.23 88.01v25.20" stroke="currentColor" fill="none"/>
<use x="139.43" y="91.01" xlink:href="#hd"/>
<path d="M135.93 91.01v24.20" stroke="currentColor" fill="none"/>
<use x="152.23" y="94.01" xlink:href="#hd"/>
<path d="M148.73 94.01v23.20" stroke="currentColor" fill="none"/>
<use x="172.23" y="82.01" xlink:href="#hd"/>
<path d="M168.73 82.01v20.00" stroke="currentColor" fill="none"/>
<path fill="currentColor"
	d="M168.73 102.01c0.6 -5.6 9.6 -9 5.6 -18.4
	c1.6 6 -1.3 11.6 -5.6 12.8
"/>
<use x="200.53" y="88.01" xlink:href="#hd"/>
<path d="M197.03 88.01v20.00" stroke="currentColor" fill="none"/>
<path fill="currentColor"
	d="M197.03 108.01c0.6 -5.6 9.6 -9 5.6 -18.4
	c1.6 6 -1.3 11.6 -5.6 12.8
"/>
<defs>
<path id="hl" stroke="currentColor" d="m-6 0h12"/>
</defs>
<use x="228.83" y="76.01" xlink:href="#hl"/>
<use x="228.83" y="73.01" xlink:href="#hd"/>
<path d="M225.33 73.01v21.00" stroke="currentColor" fill="none"/>
<path fill="currentColor"
	d="M225.33 94.01c0.6 -5.6 9.6 -9 5.6 -18.4
	c1.6 6 -1.3 11.6 -5.6 12.8
"/>
<use x="257.13" y="82.01" xlink:href="#hd"/>
<path d="M253.63 82.01v20.00" stroke="currentColor" fill="none"/>
<path fill="currentColor"
	d="M253.63 102.01c0.6 -5.6 9.6 -9 5.6 -18.4
	c1.6 6 -1.3 11.6 -5.6 12.8
"/>
<path fill="currentColor"
	d="M281.53 113.01l31.40 0.00v-3.20l-31.40 -0.00"/>
<path fill="currentColor"
	d="M281.93 108.01l30.70 0.00v-3.20l-30.70 -0.00"/>
<path fill="currentColor"
	d="M299.93 103.01l12.70 0.00v-3.20l-12.70 -0.00"/>
<use x="285.43" y="88.01" xlink:href="#hd"/>
<path d="M281.93 88.01v24.00" stroke="currentColor" fill="none"/>
<use x="303.43" y="82.01" xlink:href="#hd"/>
<path d="M299.93 82.01v30.00" stroke="currentColor" fill="none"/>
<use x="316.13" y="85.01" xlink:href="#hd"/>
<path d="M312.63 85.01v27.00" stroke="currentColor" fill="none"/>
<path fill="currentColor"
	d="M326.43 113.31l26.10 -4.20v-3.20l-26.10 4.20"/>
<path fill="currentColor"
	d="M326.73 108.21l25.50 -4.10v-3.20l-25.50 4.10"/>
<path fill="currentColor"
	d="M326.73 103.21l12.70 -2.00v-3.20l-12.70 2.00"/>
<use x="330.23" y="88.01" xlink:href="#hd"/>
<path d="M326.73 88.01v24.20" stroke="currentColor" fill="none"/>
<use x="343.03" y="85.01" xlink:href="#hd"/>
<path d="M339.53 85.01v25.20" stroke="currentColor" fill="none"/>
<use x="355.73" y="82.01" xlink:href="#hd"/>
<path d="M352.23 82.01v26.10" stroke="currentColor" fill="none"/>
<path fill="currentColor"
	d="M382.03 116.31l18.70 -3.70v-3.20l-18.70 3.70"/>
<path fill="currentColor"
	d="M382.43 111.21l18.00 -3.60v-3.20l-18.00 3.60"/>
<use x="385.93" y="94.01" xlink:href="#hd"/>
<path d="M382.43 94.01v21.20" stroke="currentColor" fill="none"/>
<use x="403.93" y="88.01" xlink:href="#hd"/>
<path d="M400.43 88.01v23.60" stroke="currentColor" fill="none"/>
<path fill="currentColor"
	d="M425.03 78.51l18.70 -3.70v3.20l-18.70 3.70"/>
<path fill="currentColor"
	d="M425.43 83.41l18.00 -3.60v3.20l-18.00 3.60"/>
<use x="421.93" y="103.01" xlink:href="#hd"/>
<path d="M425.43 103.01v-23.60" stroke="currentColor" fill="none"/>
<use x="439.93" y="97.01" xlink:href="#hd"/>
<use x="430.93" y="97.01" xlink:href="#ft0"/>
<path d="M443.43 97.01v-21.20" stroke="currentColor" fill="none"/>
</g>
</svg>
