<?xml version="1.0" standalone="no"?>
<!DOCTYPE svg PUBLIC "-//W3C//DTD SVG 1.1//EN"
	"http://www.w3.org/Graphics/SVG/1.1/DTD/svg11.dtd">
<svg xmlns="http://www.w3.org/2000/svg" version="1.1"
	xmlns:xlink="http://www.w3.org/1999/xlink"
	xml:space='preserve' color="black"
	width="7.38in" height="1.34in" viewBox="0 0 531 97">
<title>0230.abc (0230) tune 1</title>
<!-- Creator: abcm2ps-7.8.14 -->
<!-- CreationDate: Mar 13, 2016 18:53 -->
<!-- CommandLine: -qxg 0230.abc -O ../svgs/0230.svg -->
<g transform="scale(0.750)" stroke-width="0.70" font-family="Times" font-size="20.00">
<text x="354.13" y="21.67" text-anchor="middle">0230.  Partita No. 2 in C Minor, Capriccio</text>
</g>
<g transform="scale(0.750)" stroke-width="0.70" font-family="Times" font-size="14.00" font-style="italic">
<text x="694.93" y="45.34" text-anchor="end">Johann Sebastian Bach</text>
</g>
<g transform="scale(0.525)" stroke-width="0.70" font-family="Times" font-size="14.00" font-style="italic">
<defs>
<ellipse id="hd" rx="4.1" ry="2.9"
	transform="rotate(-20)" fill="currentColor"/>
</defs>
<use x="122.76" y="94.16" xlink:href="#hd"/>
<path d="M126.26 94.16v-20.00" stroke="currentColor" fill="none"/>
</g>
<g transform="scale(0.750)" stroke-width="0.70" font-family="Times" font-size="15.00" font-weight="bold">
<text x="93.63" y="68.01">= 120</text>
<path stroke="currentColor" fill="none"
	d="M171.13 106.01v-24.00"/>
<path stroke="currentColor" fill="none"
	d="M321.53 106.01v-24.00"/>
<path stroke="currentColor" fill="none"
	d="M440.43 106.01v-24.00"/>
<path stroke="currentColor" fill="none"
	d="M13.33 106.01h461.20m-461.20 -6h461.20m-461.20 -6h461.20m-461.20 -6h461.20m-461.20 -6h461.20"/>
<defs>
<path id="utclef" fill="currentColor" d="m-50 -90
	c-72 -41 -72 -158 52 -188
	c150 -10 220 188 90 256
	c-114 52 -275 0 -293 -136
	c-15 -181 93 -229 220 -334
	c88 -87 79 -133 62 -210
	c-51 33 -94 105 -89 186
	c17 267 36 374 49 574
	c6 96 -19 134 -77 135
	c-80 1 -126 -93 -61 -133
	c85 -41 133 101 31 105
	c23 17 92 37 90 -92
	c-10 -223 -39 -342 -50 -617
	c0 -90 0 -162 96 -232
	c56 72 63 230 22 289
	c-74 106 -257 168 -255 316
	c9 153 148 185 252 133
	c86 -65 29 -192 -80 -176
	c-71 12 -105 67 -59 124"/>
<use id="tclef" transform="scale(0.045)"
	xlink:href="#utclef"/>
</defs>
<use x="25.33" y="106.01" xlink:href="#tclef"/>
<defs>
<path id="uflat" fill="currentColor" d="
	m100 -746
	h32
	v734
	l-32 4
	m32 -332
	c46 -72 152 -90 208 -20
	c100 110 -120 326 -208 348
	m0 -28
	c54 0 200 -206 130 -290
	c-50 -60 -130 -4 -130 34"/>
<use id="ft0" transform="translate(-3.5,3.5) scale(0.018)"
	xlink:href="#uflat"/>
</defs>
<use x="40.33" y="94.01" xlink:href="#ft0"/>
<use x="45.83" y="85.01" xlink:href="#ft0"/>
<use x="51.33" y="97.01" xlink:href="#ft0"/>
<g font-family="serif" font-size="16" font-weight="bold" font-style="normal"
	transform="translate(67.33,106.01) scale(1.2,1)">
	<text y="-1" text-anchor="middle">4</text>
	<text y="-13" text-anchor="middle">2</text>
</g>
<defs>
<path id="r8e" fill="currentColor" d="m 0 0
	c-1.5 1.5 -2.4 2 -3.6 2
	c2.4 -2.8 -2.8 -4 -2.8 -1.2
	c0 2.7 4.3 2.4 5.9 0.6"/>
<g id="r8">
	<path d="m3.3 -4l-3.4 9.6" stroke="currentColor" fill="none"/>
	<use x="3.4" y="-4" xlink:href="#r8e"/>
</g>
</defs>
<use x="85.33" y="94.01" xlink:href="#r8"/>
<use x="110.83" y="100.01" xlink:href="#hd"/>
<path d="M114.33 100.01v-20.00" stroke="currentColor" fill="none"/>
<path fill="currentColor"
	d="	M114.33 80.01c0.6 5.6 9.6 9 5.6 18.4
	c1.6 -6 -1.3 -11.6 -5.6 -12.8
"/>
<use x="139.13" y="91.01" xlink:href="#hd"/>
<path d="M135.63 91.01v20.00" stroke="currentColor" fill="none"/>
<use x="185.23" y="91.01" xlink:href="#hd"/>
<path d="M181.73 91.01v20.00" stroke="currentColor" fill="none"/>
<path fill="currentColor"
	d="M181.73 111.01c0.6 -5.6 9.6 -9 5.6 -18.4
	c1.6 6 -1.3 11.6 -5.6 12.8
"/>
<path fill="currentColor"
	d="M209.73 110.91l18.70 2.30v-3.20l-18.70 -2.30"/>
<path fill="currentColor"
	d="M210.03 106.01l18.00 2.20v-3.20l-18.00 -2.20"/>
<use x="213.53" y="88.01" xlink:href="#hd"/>
<path d="M210.03 88.01v22.00" stroke="currentColor" fill="none"/>
<use x="231.53" y="91.01" xlink:href="#hd"/>
<path d="M228.03 91.01v21.20" stroke="currentColor" fill="none"/>
<path fill="currentColor"
	d="M252.73 71.81l18.70 2.30v3.20l-18.70 -2.30"/>
<path fill="currentColor"
	d="M253.03 76.81l18.00 2.20v3.20l-18.00 -2.20"/>
<use x="249.53" y="94.01" xlink:href="#hd"/>
<defs>
<path id="unat" fill="currentColor" d="
	m96 -750
	h-32
	v716
	l32 -8
	l182 -54
	v282
	h32
	v-706
	l-34 10
	l-180 50
	v-290
	m0 592
	v-190
	l182 -52
	v188"/>
<use id="nt0" transform="translate(-3,5) scale(0.018)"
	xlink:href="#unat"/>
</defs>
<use x="240.53" y="94.01" xlink:href="#nt0"/>
<path d="M253.03 94.01v-21.20" stroke="currentColor" fill="none"/>
<use x="267.53" y="97.01" xlink:href="#hd"/>
<use x="258.53" y="97.01" xlink:href="#nt0"/>
<path d="M271.03 97.01v-22.00" stroke="currentColor" fill="none"/>
<path fill="currentColor"
	d="M290.73 77.81l18.70 2.30v3.20l-18.70 -2.30"/>
<path fill="currentColor"
	d="M291.03 82.81l18.00 2.20v3.20l-18.00 -2.20"/>
<use x="287.53" y="100.01" xlink:href="#hd"/>
<path d="M291.03 100.01v-21.20" stroke="currentColor" fill="none"/>
<use x="305.53" y="103.01" xlink:href="#hd"/>
<path d="M309.03 103.01v-22.00" stroke="currentColor" fill="none"/>
<use x="335.73" y="106.01" xlink:href="#hd"/>
<path d="M339.23 106.01v-20.00" stroke="currentColor" fill="none"/>
<path fill="currentColor"
	d="	M339.23 86.01c0.6 5.6 9.6 9 5.6 18.4
	c1.6 -6 -1.3 -11.6 -5.6 -12.8
"/>
<use x="364.03" y="79.01" xlink:href="#hd"/>
<path d="M360.53 79.01v20.00" stroke="currentColor" fill="none"/>
<path fill="currentColor"
	d="M360.53 99.01c0.6 -5.6 9.6 -9 5.6 -18.4
	c1.6 6 -1.3 11.6 -5.6 12.8
"/>
<use x="389.43" y="109.01" xlink:href="#hd"/>
<path d="M392.93 109.01v-20.00" stroke="currentColor" fill="none"/>
<path fill="currentColor"
	d="	M392.93 89.01c0.6 5.6 9.6 9 5.6 18.4
	c1.6 -6 -1.3 -11.6 -5.6 -12.8
"/>
<use x="417.73" y="82.01" xlink:href="#hd"/>
<path d="M414.23 82.01v20.00" stroke="currentColor" fill="none"/>
<path fill="currentColor"
	d="M414.23 102.01c0.6 -5.6 9.6 -9 5.6 -18.4
	c1.6 6 -1.3 11.6 -5.6 12.8
"/>
<use x="454.53" y="85.01" xlink:href="#hd"/>
<path d="M451.03 85.01v22.00" stroke="currentColor" fill="none"/>
<path fill="currentColor"
	d="M451.03 107.01c0.9 -3.7 9.1 -6.4 6 -12.4
	c1 5.4 -4.2 8.4 -6 8.4
M451.03 101.61c0.9 -3.7 9.1 -6.4 6 -12.4
	c1 5.4 -4.2 8.4 -6 8.4
"/>
</g>
</svg>
