<?xml version="1.0" standalone="no"?>
<!DOCTYPE svg PUBLIC "-//W3C//DTD SVG 1.1//EN"
	"http://www.w3.org/Graphics/SVG/1.1/DTD/svg11.dtd">
<svg xmlns="http://www.w3.org/2000/svg" version="1.1"
	xmlns:xlink="http://www.w3.org/1999/xlink"
	xml:space='preserve' color="black"
	width="7.38in" height="1.34in" viewBox="0 0 531 97">
<title>0250.abc (0250) tune 1</title>
<!-- Creator: abcm2ps-7.8.14 -->
<!-- CreationDate: Mar 13, 2016 18:53 -->
<!-- CommandLine: -qxg 0250.abc -O ../svgs/0250.svg -->
<g transform="scale(0.750)" stroke-width="0.70" font-family="Times" font-size="20.00">
<text x="354.13" y="21.67" text-anchor="middle">0250.  Partita No. 2 in D Minor, Courante</text>
</g>
<g transform="scale(0.750)" stroke-width="0.70" font-family="Times" font-size="14.00" font-style="italic">
<text x="694.93" y="45.34" text-anchor="end">Johann Sebastian Bach</text>
</g>
<g transform="scale(0.525)" stroke-width="0.70" font-family="Times" font-size="14.00" font-style="italic">
<defs>
<ellipse id="hd" rx="4.1" ry="2.9"
	transform="rotate(-20)" fill="currentColor"/>
</defs>
<use x="107.04" y="94.16" xlink:href="#hd"/>
<path d="M110.54 94.16v-20.00" stroke="currentColor" fill="none"/>
</g>
<g transform="scale(0.750)" stroke-width="0.70" font-family="Times" font-size="15.00" font-weight="bold">
<text x="82.63" y="68.01">= 120</text>
<path stroke="currentColor" fill="none"
	d="M270.63 106.01v-24.00"/>
<path stroke="currentColor" fill="none"
	d="M485.73 106.01v-24.00"/>
<path stroke="currentColor" fill="none"
	d="M694.93 106.01v-24.00"/>
<path stroke="currentColor" fill="none"
	d="M13.33 106.01h681.60m-681.60 -6h681.60m-681.60 -6h681.60m-681.60 -6h681.60m-681.60 -6h681.60"/>
<defs>
<path id="utclef" fill="currentColor" d="m-50 -90
	c-72 -41 -72 -158 52 -188
	c150 -10 220 188 90 256
	c-114 52 -275 0 -293 -136
	c-15 -181 93 -229 220 -334
	c88 -87 79 -133 62 -210
	c-51 33 -94 105 -89 186
	c17 267 36 374 49 574
	c6 96 -19 134 -77 135
	c-80 1 -126 -93 -61 -133
	c85 -41 133 101 31 105
	c23 17 92 37 90 -92
	c-10 -223 -39 -342 -50 -617
	c0 -90 0 -162 96 -232
	c56 72 63 230 22 289
	c-74 106 -257 168 -255 316
	c9 153 148 185 252 133
	c86 -65 29 -192 -80 -176
	c-71 12 -105 67 -59 124"/>
<use id="tclef" transform="scale(0.045)"
	xlink:href="#utclef"/>
</defs>
<use x="25.33" y="106.01" xlink:href="#tclef"/>
<defs>
<path id="uflat" fill="currentColor" d="
	m100 -746
	h32
	v734
	l-32 4
	m32 -332
	c46 -72 152 -90 208 -20
	c100 110 -120 326 -208 348
	m0 -28
	c54 0 200 -206 130 -290
	c-50 -60 -130 -4 -130 34"/>
<use id="ft0" transform="translate(-3.5,3.5) scale(0.018)"
	xlink:href="#uflat"/>
</defs>
<use x="40.33" y="94.01" xlink:href="#ft0"/>
<g font-family="serif" font-size="16" font-weight="bold" font-style="normal"
	transform="translate(56.33,106.01) scale(1.2,1)">
	<text y="-1" text-anchor="middle">4</text>
	<text y="-13" text-anchor="middle">3</text>
</g>
<use x="74.33" y="97.01" xlink:href="#hd"/>
<path d="M77.83 97.01v-21.00" stroke="currentColor" fill="none"/>
<path fill="currentColor"
	d="M77.83 76.01c0.9 3.7 9.1 6.4 6 12.4
	c1 -5.4 -4.2 -8.4 -6 -8.4
M77.83 81.41c0.9 3.7 9.1 6.4 6 12.4
	c1 -5.4 -4.2 -8.4 -6 -8.4
"/>
<use x="99.63" y="97.01" xlink:href="#hd"/>
<path d="M103.13 97.01v-20.00" stroke="currentColor" fill="none"/>
<path fill="currentColor"
	d="M153.33 82.61l32.90 -7.90v3.20l-32.90 7.90"/>
<use x="150.23" y="109.01" xlink:href="#hd"/>
<use x="141.23" y="109.01" xlink:href="#ft0"/>
<path d="M153.73 109.01v-25.40" stroke="currentColor" fill="none"/>
<use x="182.33" y="94.01" xlink:href="#hd"/>
<path d="M185.83 94.01v-18.20" stroke="currentColor" fill="none"/>
<path fill="currentColor"
	d="M221.33 75.21l32.90 2.60v3.20l-32.90 -2.60"/>
<path fill="currentColor"
	d="M247.83 82.31l6.00 0.50v3.20l-6.00 -0.50"/>
<use x="218.13" y="97.01" xlink:href="#hd"/>
<path d="M221.63 97.01v-20.70" stroke="currentColor" fill="none"/>
<use x="250.33" y="100.01" xlink:href="#hd"/>
<path d="M253.83 100.01v-21.20" stroke="currentColor" fill="none"/>
<path fill="currentColor"
	d="M291.63 77.81l23.40 2.40v3.20l-23.40 -2.40"/>
<path fill="currentColor"
	d="M297.93 83.41l-6.00 -0.60v3.20l6.00 0.60"/>
<use x="288.43" y="100.01" xlink:href="#hd"/>
<path d="M291.93 100.01v-21.20" stroke="currentColor" fill="none"/>
<use x="311.23" y="103.01" xlink:href="#hd"/>
<path d="M314.73 103.01v-21.80" stroke="currentColor" fill="none"/>
<use x="347.03" y="106.01" xlink:href="#hd"/>
<path d="M350.53 106.01v-20.00" stroke="currentColor" fill="none"/>
<path fill="currentColor"
	d="	M350.53 86.01c0.6 5.6 9.6 9 5.6 18.4
	c1.6 -6 -1.3 -11.6 -5.6 -12.8
"/>
<use x="382.73" y="103.01" xlink:href="#hd"/>
<path d="M386.23 103.01v-20.00" stroke="currentColor" fill="none"/>
<path fill="currentColor"
	d="M436.53 85.61l32.90 -7.90v3.20l-32.90 7.90"/>
<path fill="currentColor"
	d="M463.03 84.21l6.00 -1.40v3.20l-6.00 1.40"/>
<defs>
<path id="hl" stroke="currentColor" d="m-6 0h12"/>
</defs>
<use x="433.33" y="112.01" xlink:href="#hl"/>
<use x="433.33" y="118.01" xlink:href="#hl"/>
<use x="433.33" y="118.01" xlink:href="#hd"/>
<path d="M436.83 118.01v-31.40" stroke="currentColor" fill="none"/>
<use x="465.53" y="100.01" xlink:href="#hd"/>
<path d="M469.03 100.01v-21.20" stroke="currentColor" fill="none"/>
<path fill="currentColor"
	d="M506.83 77.81l23.40 2.40v3.20l-23.40 -2.40"/>
<path fill="currentColor"
	d="M513.13 83.41l-6.00 -0.60v3.20l6.00 0.60"/>
<use x="503.63" y="100.01" xlink:href="#hd"/>
<path d="M507.13 100.01v-21.20" stroke="currentColor" fill="none"/>
<use x="526.43" y="103.01" xlink:href="#hd"/>
<path d="M529.93 103.01v-21.80" stroke="currentColor" fill="none"/>
<path fill="currentColor"
	d="M565.33 87.81l65.10 0.00v3.20l-65.10 -0.00"/>
<use x="562.23" y="106.01" xlink:href="#hd"/>
<path d="M565.73 106.01v-17.20" stroke="currentColor" fill="none"/>
<use x="594.43" y="109.01" xlink:href="#hd"/>
<defs>
<path id="unat" fill="currentColor" d="
	m96 -750
	h-32
	v716
	l32 -8
	l182 -54
	v282
	h32
	v-706
	l-34 10
	l-180 50
	v-290
	m0 592
	v-190
	l182 -52
	v188"/>
<use id="nt0" transform="translate(-3,5) scale(0.018)"
	xlink:href="#unat"/>
</defs>
<use x="585.43" y="109.01" xlink:href="#nt0"/>
<path d="M597.93 109.01v-20.20" stroke="currentColor" fill="none"/>
<use x="626.63" y="109.01" xlink:href="#hd"/>
<use x="617.63" y="109.01" xlink:href="#ft0"/>
<path d="M630.13 109.01v-20.20" stroke="currentColor" fill="none"/>
<use x="662.33" y="109.01" xlink:href="#hd"/>
<circle fill="currentColor" cx="670.33" cy="109.01" r="1.2"/>
<use x="653.33" y="109.01" xlink:href="#nt0"/>
<path d="M665.83 109.01v-20.00" stroke="currentColor" fill="none"/>
<path fill="currentColor"
	d="	M665.83 89.01c0.6 5.6 9.6 9 5.6 18.4
	c1.6 -6 -1.3 -11.6 -5.6 -12.8
"/>
<path fill="currentColor"
	d="M253.83 100.01c4.90 5.06 26.21 5.06 31.12 -0.00
	l0.00 0.23c-5.83 6.83 -25.28 6.83 -31.12 -0.23"/>
<path fill="currentColor"
	d="M469.03 100.01c4.90 5.06 26.21 5.06 31.12 -0.00
	l0.00 0.23c-5.83 6.83 -25.28 6.83 -31.12 -0.23"/>
</g>
</svg>
