<?xml version="1.0" standalone="no"?>
<!DOCTYPE svg PUBLIC "-//W3C//DTD SVG 1.1//EN"
	"http://www.w3.org/Graphics/SVG/1.1/DTD/svg11.dtd">
<svg xmlns="http://www.w3.org/2000/svg" version="1.1"
	xmlns:xlink="http://www.w3.org/1999/xlink"
	xml:space='preserve' color="black"
	width="7.38in" height="1.49in" viewBox="0 0 531 107">
<title>0254.abc (0254) tune 1</title>
<!-- Creator: abcm2ps-7.8.14 -->
<!-- CreationDate: Mar 13, 2016 18:53 -->
<!-- CommandLine: -qxg 0254.abc -O ../svgs/0254.svg -->
<g transform="scale(0.750)" stroke-width="0.70" font-family="Times" font-size="20.00">
<text x="354.13" y="21.67" text-anchor="middle">0254.  Partita No. 3 in E, Prelude Vn.</text>
</g>
<g transform="scale(0.750)" stroke-width="0.70" font-family="Times" font-size="14.00" font-style="italic">
<text x="694.93" y="45.34" text-anchor="end">Johann Sebastian Bach</text>
</g>
<g transform="scale(0.525)" stroke-width="0.70" font-family="Times" font-size="14.00" font-style="italic">
<defs>
<ellipse id="hd" rx="4.1" ry="2.9"
	transform="rotate(-20)" fill="currentColor"/>
</defs>
<use x="130.61" y="94.16" xlink:href="#hd"/>
<path d="M134.11 94.16v-20.00" stroke="currentColor" fill="none"/>
</g>
<g transform="scale(0.750)" stroke-width="0.70" font-family="Times" font-size="15.00" font-weight="bold">
<text x="99.13" y="68.01">= 120</text>
<path stroke="currentColor" fill="none"
	d="M251.43 120.01v-24.00"/>
<path stroke="currentColor" fill="none"
	d="M430.43 120.01v-24.00"/>
<path stroke="currentColor" fill="none"
	d="M654.33 120.01v-24.00"/>
<path stroke="currentColor" fill="none"
	d="M13.33 120.01h681.60m-681.60 -6h681.60m-681.60 -6h681.60m-681.60 -6h681.60m-681.60 -6h681.60"/>
<defs>
<path id="utclef" fill="currentColor" d="m-50 -90
	c-72 -41 -72 -158 52 -188
	c150 -10 220 188 90 256
	c-114 52 -275 0 -293 -136
	c-15 -181 93 -229 220 -334
	c88 -87 79 -133 62 -210
	c-51 33 -94 105 -89 186
	c17 267 36 374 49 574
	c6 96 -19 134 -77 135
	c-80 1 -126 -93 -61 -133
	c85 -41 133 101 31 105
	c23 17 92 37 90 -92
	c-10 -223 -39 -342 -50 -617
	c0 -90 0 -162 96 -232
	c56 72 63 230 22 289
	c-74 106 -257 168 -255 316
	c9 153 148 185 252 133
	c86 -65 29 -192 -80 -176
	c-71 12 -105 67 -59 124"/>
<use id="tclef" transform="scale(0.045)"
	xlink:href="#utclef"/>
</defs>
<use x="25.33" y="120.01" xlink:href="#tclef"/>
<defs>
<path id="usharp" fill="currentColor" d="
	m136 -702
	v890
	h32
	v-890
	m128 840
	h32
	v-888
	h-32
	m-232 286
	v116
	l338 -96
	v-116
	m-338 442
	v116
	l338 -98
	v-114"/>
<use id="sh0" transform="translate(-4,5) scale(0.018)"
	xlink:href="#usharp"/>
</defs>
<use x="40.33" y="96.01" xlink:href="#sh0"/>
<use x="45.83" y="105.01" xlink:href="#sh0"/>
<use x="51.33" y="93.01" xlink:href="#sh0"/>
<use x="56.83" y="102.01" xlink:href="#sh0"/>
<g font-family="serif" font-size="16" font-weight="bold" font-style="normal"
	transform="translate(72.83,120.01) scale(1.2,1)">
	<text y="-1" text-anchor="middle">4</text>
	<text y="-13" text-anchor="middle">3</text>
</g>
<defs>
<path id="r8e" fill="currentColor" d="m 0 0
	c-1.5 1.5 -2.4 2 -3.6 2
	c2.4 -2.8 -2.8 -4 -2.8 -1.2
	c0 2.7 4.3 2.4 5.9 0.6"/>
<g id="r8">
	<path d="m3.3 -4l-3.4 9.6" stroke="currentColor" fill="none"/>
	<use x="3.4" y="-4" xlink:href="#r8e"/>
</g>
</defs>
<use x="90.83" y="108.01" xlink:href="#r8"/>
<defs>
<path id="hl" stroke="currentColor" d="m-6 0h12"/>
</defs>
<use x="117.83" y="90.01" xlink:href="#hl"/>
<use x="117.83" y="84.01" xlink:href="#hl"/>
<use x="117.83" y="78.01" xlink:href="#hl"/>
<use x="117.83" y="78.01" xlink:href="#hd"/>
<path d="M114.33 78.01v30.00" stroke="currentColor" fill="none"/>
<path fill="currentColor"
	d="M114.33 108.01c0.9 -3.7 9.1 -6.4 6 -12.4
	c1 5.4 -4.2 8.4 -6 8.4
M114.33 102.61c0.9 -3.7 9.1 -6.4 6 -12.4
	c1 5.4 -4.2 8.4 -6 8.4
"/>
<path fill="currentColor"
	d="M133.13 108.21l17.90 0.00v-3.20l-17.90 -0.00"/>
<path fill="currentColor"
	d="M139.43 103.21l-6.00 -0.00v-3.20l6.00 0.00"/>
<use x="136.93" y="90.01" xlink:href="#hl"/>
<use x="136.93" y="84.01" xlink:href="#hl"/>
<use x="136.93" y="81.01" xlink:href="#hd"/>
<path d="M133.43 81.01v26.20" stroke="currentColor" fill="none"/>
<use x="154.23" y="90.01" xlink:href="#hl"/>
<use x="154.23" y="84.01" xlink:href="#hl"/>
<use x="154.23" y="78.01" xlink:href="#hl"/>
<use x="154.23" y="78.01" xlink:href="#hd"/>
<path d="M150.73 78.01v29.20" stroke="currentColor" fill="none"/>
<path fill="currentColor"
	d="M177.33 111.01l49.30 0.00v-3.20l-49.30 -0.00"/>
<use x="181.23" y="90.01" xlink:href="#hl"/>
<use x="181.23" y="87.01" xlink:href="#hd"/>
<path d="M177.73 87.01v23.00" stroke="currentColor" fill="none"/>
<use x="205.53" y="93.01" xlink:href="#hd"/>
<path d="M202.03 93.01v17.00" stroke="currentColor" fill="none"/>
<use x="229.83" y="90.01" xlink:href="#hl"/>
<use x="229.83" y="87.01" xlink:href="#hd"/>
<path d="M226.33 87.01v23.00" stroke="currentColor" fill="none"/>
<path fill="currentColor"
	d="M261.23 121.91l35.10 0.00v-3.20l-35.10 -0.00"/>
<path fill="currentColor"
	d="M261.53 116.91l34.40 0.00v-3.20l-34.40 -0.00"/>
<use x="265.03" y="99.01" xlink:href="#hd"/>
<path d="M261.53 99.01v22.00" stroke="currentColor" fill="none"/>
<use x="282.23" y="96.01" xlink:href="#hd"/>
<path d="M278.73 96.01v25.00" stroke="currentColor" fill="none"/>
<use x="299.53" y="99.01" xlink:href="#hd"/>
<path d="M296.03 99.01v22.00" stroke="currentColor" fill="none"/>
<path fill="currentColor"
	d="M314.73 124.21l17.90 -2.30v-3.20l-17.90 2.30"/>
<path fill="currentColor"
	d="M321.13 118.41l-6.00 0.80v-3.20l6.00 -0.80"/>
<use x="318.63" y="102.01" xlink:href="#hd"/>
<path d="M315.13 102.01v21.20" stroke="currentColor" fill="none"/>
<use x="335.83" y="99.01" xlink:href="#hd"/>
<path d="M332.33 99.01v22.00" stroke="currentColor" fill="none"/>
<path fill="currentColor"
	d="M363.33 88.81l49.30 0.00v3.20l-49.30 -0.00"/>
<use x="360.13" y="108.01" xlink:href="#hd"/>
<path d="M363.63 108.01v-18.20" stroke="currentColor" fill="none"/>
<use x="384.43" y="114.01" xlink:href="#hd"/>
<path d="M387.93 114.01v-24.20" stroke="currentColor" fill="none"/>
<use x="408.73" y="108.01" xlink:href="#hd"/>
<path d="M412.23 108.01v-18.20" stroke="currentColor" fill="none"/>
<path fill="currentColor"
	d="M447.13 83.81l35.10 0.00v3.20l-35.10 -0.00"/>
<path fill="currentColor"
	d="M447.43 88.81l34.40 0.00v3.20l-34.40 -0.00"/>
<use x="443.93" y="120.01" xlink:href="#hd"/>
<path d="M447.43 120.01v-35.20" stroke="currentColor" fill="none"/>
<use x="461.13" y="108.01" xlink:href="#hd"/>
<path d="M464.63 108.01v-23.20" stroke="currentColor" fill="none"/>
<use x="478.43" y="117.01" xlink:href="#hd"/>
<path d="M481.93 117.01v-32.20" stroke="currentColor" fill="none"/>
<path fill="currentColor"
	d="M500.63 83.81l35.10 0.00v3.20l-35.10 -0.00"/>
<path fill="currentColor"
	d="M501.03 88.81l34.40 0.00v3.20l-34.40 -0.00"/>
<use x="497.53" y="108.01" xlink:href="#hd"/>
<path d="M501.03 108.01v-23.20" stroke="currentColor" fill="none"/>
<use x="514.73" y="114.01" xlink:href="#hd"/>
<path d="M518.23 114.01v-29.20" stroke="currentColor" fill="none"/>
<use x="531.93" y="108.01" xlink:href="#hd"/>
<path d="M535.43 108.01v-23.20" stroke="currentColor" fill="none"/>
<path fill="currentColor"
	d="M554.23 83.81l35.10 0.00v3.20l-35.10 -0.00"/>
<path fill="currentColor"
	d="M554.53 88.81l34.40 0.00v3.20l-34.40 -0.00"/>
<use x="551.03" y="111.01" xlink:href="#hd"/>
<path d="M554.53 111.01v-26.20" stroke="currentColor" fill="none"/>
<use x="568.23" y="108.01" xlink:href="#hd"/>
<path d="M571.73 108.01v-23.20" stroke="currentColor" fill="none"/>
<use x="585.43" y="114.01" xlink:href="#hd"/>
<path d="M588.93 114.01v-29.20" stroke="currentColor" fill="none"/>
<path fill="currentColor"
	d="M607.73 83.81l35.10 0.00v3.20l-35.10 -0.00"/>
<path fill="currentColor"
	d="M608.03 88.81l34.40 0.00v3.20l-34.40 -0.00"/>
<use x="604.53" y="108.01" xlink:href="#hd"/>
<path d="M608.03 108.01v-23.20" stroke="currentColor" fill="none"/>
<use x="621.83" y="117.01" xlink:href="#hd"/>
<path d="M625.33 117.01v-32.20" stroke="currentColor" fill="none"/>
<use x="639.03" y="108.01" xlink:href="#hd"/>
<path d="M642.53 108.01v-23.20" stroke="currentColor" fill="none"/>
<use x="667.93" y="120.01" xlink:href="#hd"/>
<path d="M671.43 120.01v-20.00" stroke="currentColor" fill="none"/>
<path fill="currentColor"
	d="	M671.43 100.01c0.6 5.6 9.6 9 5.6 18.4
	c1.6 -6 -1.3 -11.6 -5.6 -12.8
"/>
</g>
</svg>
