<?xml version="1.0" standalone="no"?>
<!DOCTYPE svg PUBLIC "-//W3C//DTD SVG 1.1//EN"
	"http://www.w3.org/Graphics/SVG/1.1/DTD/svg11.dtd">
<svg xmlns="http://www.w3.org/2000/svg" version="1.1"
	xmlns:xlink="http://www.w3.org/1999/xlink"
	xml:space='preserve' color="black"
	width="7.38in" height="1.34in" viewBox="0 0 531 97">
<title>0263.abc (0263) tune 1</title>
<!-- Creator: abcm2ps-7.8.14 -->
<!-- CreationDate: Mar 13, 2016 18:53 -->
<!-- CommandLine: -qxg 0263.abc -O ../svgs/0263.svg -->
<g transform="scale(0.750)" stroke-width="0.70" font-family="Times" font-size="20.00">
<text x="354.13" y="21.67" text-anchor="middle">0263.  Sonata No. 1 in B Minor, 2nd. Mvt.</text>
</g>
<g transform="scale(0.750)" stroke-width="0.70" font-family="Times" font-size="14.00" font-style="italic">
<text x="694.93" y="45.34" text-anchor="end">Johann Sebastian Bach</text>
</g>
<g transform="scale(0.525)" stroke-width="0.70" font-family="Times" font-size="14.00" font-style="italic">
<defs>
<ellipse id="hd" rx="4.1" ry="2.9"
	transform="rotate(-20)" fill="currentColor"/>
</defs>
<use x="114.90" y="94.16" xlink:href="#hd"/>
<path d="M118.40 94.16v-20.00" stroke="currentColor" fill="none"/>
</g>
<g transform="scale(0.750)" stroke-width="0.70" font-family="Times" font-size="15.00" font-weight="bold">
<text x="88.13" y="68.01">= 120</text>
<path stroke="currentColor" fill="none"
	d="M238.23 106.01v-24.00"/>
<path stroke="currentColor" fill="none"
	d="M442.63 106.01v-24.00"/>
<path stroke="currentColor" fill="none"
	d="M13.33 106.01h429.30m-429.30 -6h429.30m-429.30 -6h429.30m-429.30 -6h429.30m-429.30 -6h429.30"/>
<defs>
<path id="utclef" fill="currentColor" d="m-50 -90
	c-72 -41 -72 -158 52 -188
	c150 -10 220 188 90 256
	c-114 52 -275 0 -293 -136
	c-15 -181 93 -229 220 -334
	c88 -87 79 -133 62 -210
	c-51 33 -94 105 -89 186
	c17 267 36 374 49 574
	c6 96 -19 134 -77 135
	c-80 1 -126 -93 -61 -133
	c85 -41 133 101 31 105
	c23 17 92 37 90 -92
	c-10 -223 -39 -342 -50 -617
	c0 -90 0 -162 96 -232
	c56 72 63 230 22 289
	c-74 106 -257 168 -255 316
	c9 153 148 185 252 133
	c86 -65 29 -192 -80 -176
	c-71 12 -105 67 -59 124"/>
<use id="tclef" transform="scale(0.045)"
	xlink:href="#utclef"/>
</defs>
<use x="25.33" y="106.01" xlink:href="#tclef"/>
<defs>
<path id="usharp" fill="currentColor" d="
	m136 -702
	v890
	h32
	v-890
	m128 840
	h32
	v-888
	h-32
	m-232 286
	v116
	l338 -96
	v-116
	m-338 442
	v116
	l338 -98
	v-114"/>
<use id="sh0" transform="translate(-4,5) scale(0.018)"
	xlink:href="#usharp"/>
</defs>
<use x="40.33" y="82.01" xlink:href="#sh0"/>
<use x="45.83" y="91.01" xlink:href="#sh0"/>
<g font-family="serif" font-size="16" font-weight="bold" font-style="normal"
	transform="translate(61.83,106.01) scale(1.2,1)">
	<text y="-1" text-anchor="middle">8</text>
	<text y="-13" text-anchor="middle">6</text>
</g>
<use x="79.83" y="88.01" xlink:href="#hd"/>
<circle fill="currentColor" cx="87.83" cy="85.01" r="1.2"/>
<path d="M76.33 88.01v20.00" stroke="currentColor" fill="none"/>
<path fill="currentColor"
	d="M76.33 108.01c0.6 -5.6 9.6 -9 5.6 -18.4
	c1.6 6 -1.3 11.6 -5.6 12.8
"/>
<path fill="currentColor"
	d="M108.23 104.31l18.70 -3.70v-3.20l-18.70 3.70"/>
<path fill="currentColor"
	d="M114.53 98.01l-6.00 1.20v-3.20l6.00 -1.20"/>
<use x="112.03" y="82.01" xlink:href="#hd"/>
<path d="M108.53 82.01v21.20" stroke="currentColor" fill="none"/>
<defs>
<path id="hl" stroke="currentColor" d="m-6 0h12"/>
</defs>
<use x="130.03" y="76.01" xlink:href="#hl"/>
<use x="130.03" y="76.01" xlink:href="#hd"/>
<path d="M126.53 76.01v23.60" stroke="currentColor" fill="none"/>
<defs>
<path id="r8e" fill="currentColor" d="m 0 0
	c-1.5 1.5 -2.4 2 -3.6 2
	c2.4 -2.8 -2.8 -4 -2.8 -1.2
	c0 2.7 4.3 2.4 5.9 0.6"/>
<g id="r32">
	<path d="m4.8 -10l-5.5 21.6" stroke="currentColor" fill="none"/>
	<use x="4.9" y="-10" xlink:href="#r8e"/>
	<use x="3.4" y="-4" xlink:href="#r8e"/>
	<use x="1.9" y="2" xlink:href="#r8e"/>
</g>
</defs>
<use x="155.53" y="94.01" xlink:href="#r32"/>
<path fill="currentColor"
	d="M165.83 95.31l21.20 2.40v-3.20l-21.20 -2.40"/>
<path fill="currentColor"
	d="M172.13 91.01l-6.00 -0.70v-3.20l6.00 0.70"/>
<use x="169.63" y="76.01" xlink:href="#hl"/>
<use x="169.63" y="73.01" xlink:href="#hd"/>
<circle fill="currentColor" cx="177.63" cy="73.01" r="1.2"/>
<path d="M166.13 73.01v21.30" stroke="currentColor" fill="none"/>
<use x="190.13" y="76.01" xlink:href="#hl"/>
<use x="190.13" y="76.01" xlink:href="#hd"/>
<path d="M186.63 76.01v20.70" stroke="currentColor" fill="none"/>
<defs>
<g id="r8">
	<path d="m3.3 -4l-3.4 9.6" stroke="currentColor" fill="none"/>
	<use x="3.4" y="-4" xlink:href="#r8e"/>
</g>
</defs>
<use x="215.63" y="94.01" xlink:href="#r8"/>
<use x="252.43" y="94.01" xlink:href="#r32"/>
<path fill="currentColor"
	d="M262.73 119.21l79.90 -6.80v-3.20l-79.90 6.80"/>
<path fill="currentColor"
	d="M263.03 114.21l79.20 -6.70v-3.20l-79.20 6.70"/>
<path fill="currentColor"
	d="M269.03 108.71l-6.00 0.50v-3.20l6.00 -0.50"/>
<path fill="currentColor"
	d="M290.23 106.91l6.00 -0.50v-3.20l-6.00 0.50"/>
<path fill="currentColor"
	d="M323.53 104.11l6.00 -0.50v-3.20l-6.00 0.50"/>
<use x="266.53" y="94.01" xlink:href="#hd"/>
<path d="M263.03 94.01v24.20" stroke="currentColor" fill="none"/>
<use x="279.33" y="91.01" xlink:href="#hd"/>
<circle fill="currentColor" cx="287.33" cy="91.01" r="1.2"/>
<path d="M275.83 91.01v26.10" stroke="currentColor" fill="none"/>
<use x="299.73" y="88.01" xlink:href="#hd"/>
<path d="M296.23 88.01v27.40" stroke="currentColor" fill="none"/>
<use x="312.53" y="85.01" xlink:href="#hd"/>
<circle fill="currentColor" cx="320.53" cy="85.01" r="1.2"/>
<path d="M309.03 85.01v29.30" stroke="currentColor" fill="none"/>
<use x="333.03" y="82.01" xlink:href="#hd"/>
<path d="M329.53 82.01v30.60" stroke="currentColor" fill="none"/>
<use x="345.73" y="79.01" xlink:href="#hd"/>
<path d="M342.23 79.01v32.50" stroke="currentColor" fill="none"/>
<use x="363.73" y="94.01" xlink:href="#r32"/>
<path fill="currentColor"
	d="M374.03 110.41l13.40 2.10v-3.20l-13.40 -2.10"/>
<path fill="currentColor"
	d="M374.43 105.51l12.70 2.00v-3.20l-12.70 -2.00"/>
<path fill="currentColor"
	d="M380.43 101.41l-6.00 -1.00v-3.20l6.00 1.00"/>
<use x="377.93" y="85.01" xlink:href="#hd"/>
<path d="M374.43 85.01v24.50" stroke="currentColor" fill="none"/>
<use x="390.63" y="88.01" xlink:href="#hd"/>
<path d="M387.13 88.01v23.50" stroke="currentColor" fill="none"/>
<use x="410.63" y="88.01" xlink:href="#hd"/>
<path d="M407.13 88.01v20.00" stroke="currentColor" fill="none"/>
</g>
</svg>
