<?xml version="1.0" standalone="no"?>
<!DOCTYPE svg PUBLIC "-//W3C//DTD SVG 1.1//EN"
	"http://www.w3.org/Graphics/SVG/1.1/DTD/svg11.dtd">
<svg xmlns="http://www.w3.org/2000/svg" version="1.1"
	xmlns:xlink="http://www.w3.org/1999/xlink"
	xml:space='preserve' color="black"
	width="7.38in" height="1.34in" viewBox="0 0 531 97">
<title>0282.abc (0282) tune 1</title>
<!-- Creator: abcm2ps-7.8.14 -->
<!-- CreationDate: Mar 13, 2016 18:53 -->
<!-- CommandLine: -qxg 0282.abc -O ../svgs/0282.svg -->
<g transform="scale(0.750)" stroke-width="0.70" font-family="Times" font-size="20.00">
<text x="354.13" y="21.67" text-anchor="middle">0282.  Sonata No. 2 in A, 2nd. Mvt.</text>
</g>
<g transform="scale(0.750)" stroke-width="0.70" font-family="Times" font-size="14.00" font-style="italic">
<text x="694.93" y="45.34" text-anchor="end">Johann Sebastian Bach</text>
</g>
<g transform="scale(0.525)" stroke-width="0.70" font-family="Times" font-size="14.00" font-style="italic">
<defs>
<ellipse id="hd" rx="4.1" ry="2.9"
	transform="rotate(-20)" fill="currentColor"/>
</defs>
<use x="114.90" y="94.16" xlink:href="#hd"/>
<path d="M118.40 94.16v-20.00" stroke="currentColor" fill="none"/>
</g>
<g transform="scale(0.750)" stroke-width="0.70" font-family="Times" font-size="15.00" font-weight="bold">
<text x="88.13" y="68.01">= 120</text>
<path stroke="currentColor" fill="none"
	d="M267.03 106.01v-24.00"/>
<path stroke="currentColor" fill="none"
	d="M446.53 106.01v-24.00"/>
<path stroke="currentColor" fill="none"
	d="M13.33 106.01h475.70m-475.70 -6h475.70m-475.70 -6h475.70m-475.70 -6h475.70m-475.70 -6h475.70"/>
<defs>
<path id="utclef" fill="currentColor" d="m-50 -90
	c-72 -41 -72 -158 52 -188
	c150 -10 220 188 90 256
	c-114 52 -275 0 -293 -136
	c-15 -181 93 -229 220 -334
	c88 -87 79 -133 62 -210
	c-51 33 -94 105 -89 186
	c17 267 36 374 49 574
	c6 96 -19 134 -77 135
	c-80 1 -126 -93 -61 -133
	c85 -41 133 101 31 105
	c23 17 92 37 90 -92
	c-10 -223 -39 -342 -50 -617
	c0 -90 0 -162 96 -232
	c56 72 63 230 22 289
	c-74 106 -257 168 -255 316
	c9 153 148 185 252 133
	c86 -65 29 -192 -80 -176
	c-71 12 -105 67 -59 124"/>
<use id="tclef" transform="scale(0.045)"
	xlink:href="#utclef"/>
</defs>
<use x="25.33" y="106.01" xlink:href="#tclef"/>
<defs>
<path id="usharp" fill="currentColor" d="
	m136 -702
	v890
	h32
	v-890
	m128 840
	h32
	v-888
	h-32
	m-232 286
	v116
	l338 -96
	v-116
	m-338 442
	v116
	l338 -98
	v-114"/>
<use id="sh0" transform="translate(-4,5) scale(0.018)"
	xlink:href="#usharp"/>
</defs>
<use x="40.33" y="82.01" xlink:href="#sh0"/>
<use x="45.83" y="91.01" xlink:href="#sh0"/>
<g font-family="serif" font-size="16" font-weight="bold" font-style="normal"
	transform="translate(61.83,106.01) scale(1.2,1)">
	<text y="-1" text-anchor="middle">4</text>
	<text y="-13" text-anchor="middle">3</text>
</g>
<defs>
<path id="r8e" fill="currentColor" d="m 0 0
	c-1.5 1.5 -2.4 2 -3.6 2
	c2.4 -2.8 -2.8 -4 -2.8 -1.2
	c0 2.7 4.3 2.4 5.9 0.6"/>
<g id="r8">
	<path d="m3.3 -4l-3.4 9.6" stroke="currentColor" fill="none"/>
	<use x="3.4" y="-4" xlink:href="#r8e"/>
</g>
</defs>
<use x="79.83" y="94.01" xlink:href="#r8"/>
<use x="105.33" y="97.01" xlink:href="#hd"/>
<path d="M108.83 97.01v-21.00" stroke="currentColor" fill="none"/>
<path fill="currentColor"
	d="M108.83 76.01c0.9 3.7 9.1 6.4 6 12.4
	c1 -5.4 -4.2 -8.4 -6 -8.4
M108.83 81.41c0.9 3.7 9.1 6.4 6 12.4
	c1 -5.4 -4.2 -8.4 -6 -8.4
"/>
<path fill="currentColor"
	d="M121.43 116.21l18.70 -2.30v-3.20l-18.70 2.30"/>
<path fill="currentColor"
	d="M127.83 110.41l-6.00 0.80v-3.20l6.00 -0.80"/>
<use x="125.33" y="94.01" xlink:href="#hd"/>
<path d="M121.83 94.01v21.20" stroke="currentColor" fill="none"/>
<use x="143.33" y="91.01" xlink:href="#hd"/>
<path d="M139.83 91.01v22.00" stroke="currentColor" fill="none"/>
<path fill="currentColor"
	d="M167.73 113.21l80.10 -6.00v-3.20l-80.10 6.00"/>
<path fill="currentColor"
	d="M168.13 108.21l18.00 -1.30v-3.20l-18.00 1.30"/>
<path fill="currentColor"
	d="M229.53 103.61l18.00 -1.30v-3.20l-18.00 1.30"/>
<use x="171.63" y="91.01" xlink:href="#hd"/>
<path d="M168.13 91.01v21.20" stroke="currentColor" fill="none"/>
<use x="189.63" y="88.01" xlink:href="#hd"/>
<path d="M186.13 88.01v22.90" stroke="currentColor" fill="none"/>
<use x="207.63" y="85.01" xlink:href="#hd"/>
<path d="M204.13 85.01v24.50" stroke="currentColor" fill="none"/>
<use x="233.03" y="82.01" xlink:href="#hd"/>
<path d="M229.53 82.01v25.60" stroke="currentColor" fill="none"/>
<use x="251.03" y="79.01" xlink:href="#hd"/>
<path d="M247.53 79.01v27.30" stroke="currentColor" fill="none"/>
<path fill="currentColor"
	d="M277.43 98.71l26.10 2.50v-3.20l-26.10 -2.50"/>
<path fill="currentColor"
	d="M297.23 95.61l6.00 0.60v-3.20l-6.00 -0.60"/>
<defs>
<path id="hl" stroke="currentColor" d="m-6 0h12"/>
</defs>
<use x="281.23" y="76.01" xlink:href="#hl"/>
<use x="281.23" y="76.01" xlink:href="#hd"/>
<path d="M277.73 76.01v21.80" stroke="currentColor" fill="none"/>
<use x="306.73" y="79.01" xlink:href="#hd"/>
<path d="M303.23 79.01v21.20" stroke="currentColor" fill="none"/>
<path fill="currentColor"
	d="M322.83 104.31l18.70 2.30v-3.20l-18.70 -2.30"/>
<path fill="currentColor"
	d="M329.23 100.11l-6.00 -0.80v-3.20l6.00 0.80"/>
<use x="326.73" y="82.01" xlink:href="#hd"/>
<path d="M323.23 82.01v21.40" stroke="currentColor" fill="none"/>
<use x="344.73" y="85.01" xlink:href="#hd"/>
<path d="M341.23 85.01v20.60" stroke="currentColor" fill="none"/>
<path fill="currentColor"
	d="M369.13 108.51l51.60 4.90v-3.20l-51.60 -4.90"/>
<use x="373.03" y="88.01" xlink:href="#hd"/>
<path d="M369.53 88.01v19.60" stroke="currentColor" fill="none"/>
<use x="398.43" y="91.01" xlink:href="#hd"/>
<path d="M394.93 91.01v19.00" stroke="currentColor" fill="none"/>
<use x="423.93" y="94.01" xlink:href="#hd"/>
<path d="M420.43 94.01v18.40" stroke="currentColor" fill="none"/>
<use x="460.73" y="97.01" xlink:href="#hd"/>
<path d="M464.23 97.01v-20.00" stroke="currentColor" fill="none"/>
<path fill="currentColor"
	d="	M464.23 77.01c0.6 5.6 9.6 9 5.6 18.4
	c1.6 -6 -1.3 -11.6 -5.6 -12.8
"/>
</g>
</svg>
