<?xml version="1.0" standalone="no"?>
<!DOCTYPE svg PUBLIC "-//W3C//DTD SVG 1.1//EN"
	"http://www.w3.org/Graphics/SVG/1.1/DTD/svg11.dtd">
<svg xmlns="http://www.w3.org/2000/svg" version="1.1"
	xmlns:xlink="http://www.w3.org/1999/xlink"
	xml:space='preserve' color="black"
	width="7.38in" height="1.34in" viewBox="0 0 531 97">
<title>0294.abc (0294) tune 1</title>
<!-- Creator: abcm2ps-7.8.14 -->
<!-- CreationDate: Mar 13, 2016 18:53 -->
<!-- CommandLine: -qxg 0294.abc -O ../svgs/0294.svg -->
<g transform="scale(0.750)" stroke-width="0.70" font-family="Times" font-size="20.00">
<text x="354.13" y="21.67" text-anchor="middle">0294.  Sonata No. 5 in F Minor, 2nd. Mvt.</text>
</g>
<g transform="scale(0.750)" stroke-width="0.70" font-family="Times" font-size="14.00" font-style="italic">
<text x="694.93" y="45.34" text-anchor="end">Johann Sebastian Bach</text>
</g>
<g transform="scale(0.525)" stroke-width="0.70" font-family="Times" font-size="14.00" font-style="italic">
<defs>
<ellipse id="hd" rx="4.1" ry="2.9"
	transform="rotate(-20)" fill="currentColor"/>
</defs>
<use x="131.33" y="94.16" xlink:href="#hd"/>
<path d="M134.83 94.16v-20.00" stroke="currentColor" fill="none"/>
</g>
<g transform="scale(0.750)" stroke-width="0.70" font-family="Times" font-size="15.00" font-weight="bold">
<text x="99.63" y="68.01">= 120</text>
<path stroke="currentColor" fill="none"
	d="M205.93 106.01v-24.00"/>
<path stroke="currentColor" fill="none"
	d="M441.13 106.01v-24.00"/>
<path stroke="currentColor" fill="none"
	d="M694.93 106.01v-24.00"/>
<path stroke="currentColor" fill="none"
	d="M13.33 106.01h681.60m-681.60 -6h681.60m-681.60 -6h681.60m-681.60 -6h681.60m-681.60 -6h681.60"/>
<defs>
<path id="utclef" fill="currentColor" d="m-50 -90
	c-72 -41 -72 -158 52 -188
	c150 -10 220 188 90 256
	c-114 52 -275 0 -293 -136
	c-15 -181 93 -229 220 -334
	c88 -87 79 -133 62 -210
	c-51 33 -94 105 -89 186
	c17 267 36 374 49 574
	c6 96 -19 134 -77 135
	c-80 1 -126 -93 -61 -133
	c85 -41 133 101 31 105
	c23 17 92 37 90 -92
	c-10 -223 -39 -342 -50 -617
	c0 -90 0 -162 96 -232
	c56 72 63 230 22 289
	c-74 106 -257 168 -255 316
	c9 153 148 185 252 133
	c86 -65 29 -192 -80 -176
	c-71 12 -105 67 -59 124"/>
<use id="tclef" transform="scale(0.045)"
	xlink:href="#utclef"/>
</defs>
<use x="25.33" y="106.01" xlink:href="#tclef"/>
<defs>
<path id="uflat" fill="currentColor" d="
	m100 -746
	h32
	v734
	l-32 4
	m32 -332
	c46 -72 152 -90 208 -20
	c100 110 -120 326 -208 348
	m0 -28
	c54 0 200 -206 130 -290
	c-50 -60 -130 -4 -130 34"/>
<use id="ft0" transform="translate(-3.5,3.5) scale(0.018)"
	xlink:href="#uflat"/>
</defs>
<use x="40.33" y="94.01" xlink:href="#ft0"/>
<use x="45.83" y="85.01" xlink:href="#ft0"/>
<use x="51.33" y="97.01" xlink:href="#ft0"/>
<use x="56.83" y="88.01" xlink:href="#ft0"/>
<g font-family="serif" font-size="16" font-weight="bold" font-style="normal"
	transform="translate(72.83,106.01) scale(1.2,1)">
	<text y="-1" text-anchor="middle">4</text>
	<text y="-13" text-anchor="middle">4</text>
</g>
<defs>
<path id="Hd" fill="currentColor" d="m3 -1.6
	c-1 -1.8 -7 1.4 -6 3.2
	c1 1.8 7 -1.4 6 -3.2
	m0.5 -0.3
	c2 3.8 -5 7.6 -7 3.8
	c-2 -3.8 5 -7.6 7 -3.8"/>
</defs>
<use x="91.33" y="82.01" xlink:href="#Hd"/>
<path d="M87.83 82.01v20.00" stroke="currentColor" fill="none"/>
<use x="155.03" y="79.01" xlink:href="#Hd"/>
<path d="M151.53 79.01v20.00" stroke="currentColor" fill="none"/>
<defs>
<path id="hl" stroke="currentColor" d="m-6 0h12"/>
</defs>
<use x="221.83" y="76.01" xlink:href="#hl"/>
<use x="221.83" y="76.01" xlink:href="#hd"/>
<path d="M218.33 76.01v20.00" stroke="currentColor" fill="none"/>
<path fill="currentColor"
	d="M218.33 96.01c0.6 -5.6 9.6 -9 5.6 -18.4
	c1.6 6 -1.3 11.6 -5.6 12.8
"/>
<path fill="currentColor"
	d="M249.83 101.81l20.90 2.40v-3.20l-20.90 -2.40"/>
<path fill="currentColor"
	d="M250.23 96.91l20.20 2.30v-3.20l-20.20 -2.30"/>
<use x="253.73" y="79.01" xlink:href="#hd"/>
<path d="M250.23 79.01v21.90" stroke="currentColor" fill="none"/>
<use x="273.93" y="82.01" xlink:href="#hd"/>
<path d="M270.43 82.01v21.20" stroke="currentColor" fill="none"/>
<use x="296.43" y="85.01" xlink:href="#hd"/>
<defs>
<path id="unat" fill="currentColor" d="
	m96 -750
	h-32
	v716
	l32 -8
	l182 -54
	v282
	h32
	v-706
	l-34 10
	l-180 50
	v-290
	m0 592
	v-190
	l182 -52
	v188"/>
<use id="nt0" transform="translate(-3,5) scale(0.018)"
	xlink:href="#unat"/>
</defs>
<use x="287.43" y="85.01" xlink:href="#nt0"/>
<path d="M292.93 85.01v20.00" stroke="currentColor" fill="none"/>
<path fill="currentColor"
	d="M292.93 105.01c0.6 -5.6 9.6 -9 5.6 -18.4
	c1.6 6 -1.3 11.6 -5.6 12.8
"/>
<use x="328.23" y="79.01" xlink:href="#hd"/>
<path d="M324.73 79.01v20.00" stroke="currentColor" fill="none"/>
<path fill="currentColor"
	d="M324.73 99.01c0.6 -5.6 9.6 -9 5.6 -18.4
	c1.6 6 -1.3 11.6 -5.6 12.8
"/>
<use x="360.13" y="91.01" xlink:href="#hd"/>
<path d="M356.63 91.01v20.00" stroke="currentColor" fill="none"/>
<use x="405.13" y="76.01" xlink:href="#hl"/>
<use x="405.13" y="70.01" xlink:href="#hl"/>
<use x="405.13" y="70.01" xlink:href="#hd"/>
<path d="M401.63 70.01v24.00" stroke="currentColor" fill="none"/>
<use x="457.03" y="76.01" xlink:href="#hl"/>
<use x="457.03" y="70.01" xlink:href="#hl"/>
<use x="457.03" y="70.01" xlink:href="#hd"/>
<path d="M453.53 70.01v24.00" stroke="currentColor" fill="none"/>
<path fill="currentColor"
	d="M453.53 94.01c0.6 -5.6 9.6 -9 5.6 -18.4
	c1.6 6 -1.3 11.6 -5.6 12.8
"/>
<path fill="currentColor"
	d="M485.03 95.81l20.90 2.40v-3.20l-20.90 -2.40"/>
<path fill="currentColor"
	d="M485.33 90.91l20.20 2.30v-3.20l-20.20 -2.30"/>
<use x="488.83" y="76.01" xlink:href="#hl"/>
<use x="488.83" y="73.01" xlink:href="#hd"/>
<path d="M485.33 73.01v21.90" stroke="currentColor" fill="none"/>
<use x="509.13" y="76.01" xlink:href="#hl"/>
<use x="509.13" y="76.01" xlink:href="#hd"/>
<path d="M505.63 76.01v21.20" stroke="currentColor" fill="none"/>
<use x="531.63" y="79.01" xlink:href="#hd"/>
<path d="M528.13 79.01v20.00" stroke="currentColor" fill="none"/>
<path fill="currentColor"
	d="M528.13 99.01c0.6 -5.6 9.6 -9 5.6 -18.4
	c1.6 6 -1.3 11.6 -5.6 12.8
"/>
<use x="563.43" y="76.01" xlink:href="#hl"/>
<use x="563.43" y="73.01" xlink:href="#hd"/>
<path d="M559.93 73.01v21.00" stroke="currentColor" fill="none"/>
<path fill="currentColor"
	d="M559.93 94.01c0.6 -5.6 9.6 -9 5.6 -18.4
	c1.6 6 -1.3 11.6 -5.6 12.8
"/>
<use x="595.23" y="85.01" xlink:href="#hd"/>
<use x="586.23" y="85.01" xlink:href="#nt0"/>
<path d="M591.73 85.01v20.00" stroke="currentColor" fill="none"/>
<path fill="currentColor"
	d="M591.73 105.01c0.6 -5.6 9.6 -9 5.6 -18.4
	c1.6 6 -1.3 11.6 -5.6 12.8
"/>
<use x="627.13" y="91.01" xlink:href="#hd"/>
<path d="M623.63 91.01v20.00" stroke="currentColor" fill="none"/>
<path fill="currentColor"
	d="M623.63 111.01c0.6 -5.6 9.6 -9 5.6 -18.4
	c1.6 6 -1.3 11.6 -5.6 12.8
"/>
<use x="658.93" y="82.01" xlink:href="#hd"/>
<path d="M655.43 82.01v20.00" stroke="currentColor" fill="none"/>
<path fill="currentColor"
	d="M408.63 70.01c6.97 -5.31 37.94 -5.31 44.91 -0.00
	l0.00 -0.24c-8.32 -7.06 -36.59 -7.06 -44.91 0.24"/>
</g>
</svg>
