<?xml version="1.0" standalone="no"?>
<!DOCTYPE svg PUBLIC "-//W3C//DTD SVG 1.1//EN"
	"http://www.w3.org/Graphics/SVG/1.1/DTD/svg11.dtd">
<svg xmlns="http://www.w3.org/2000/svg" version="1.1"
	xmlns:xlink="http://www.w3.org/1999/xlink"
	xml:space='preserve' color="black"
	width="7.38in" height="1.34in" viewBox="0 0 531 97">
<title>0314.abc (0314) tune 1</title>
<!-- Creator: abcm2ps-7.8.14 -->
<!-- CreationDate: Mar 13, 2016 18:53 -->
<!-- CommandLine: -qxg 0314.abc -O ../svgs/0314.svg -->
<g transform="scale(0.750)" stroke-width="0.70" font-family="Times" font-size="20.00">
<text x="354.13" y="21.67" text-anchor="middle">0314.  Suite No. 1 in C, Orch., Overture - Courante</text>
</g>
<g transform="scale(0.750)" stroke-width="0.70" font-family="Times" font-size="14.00" font-style="italic">
<text x="694.93" y="45.34" text-anchor="end">Johann Sebastian Bach</text>
</g>
<g transform="scale(0.525)" stroke-width="0.70" font-family="Times" font-size="14.00" font-style="italic">
<defs>
<ellipse id="hd" rx="4.1" ry="2.9"
	transform="rotate(-20)" fill="currentColor"/>
</defs>
<use x="89.19" y="94.16" xlink:href="#hd"/>
<path d="M92.69 94.16v-20.00" stroke="currentColor" fill="none"/>
</g>
<g transform="scale(0.750)" stroke-width="0.70" font-family="Times" font-size="15.00" font-weight="bold">
<text x="70.13" y="68.01">= 120</text>
<path stroke="currentColor" fill="none"
	d="M265.33 106.01v-24.00"/>
<path stroke="currentColor" fill="none"
	d="M430.83 106.01v-24.00"/>
<path stroke="currentColor" fill="none"
	d="M637.63 106.01v-24.00"/>
<path stroke="currentColor" fill="none"
	d="M13.33 106.01h681.60m-681.60 -6h681.60m-681.60 -6h681.60m-681.60 -6h681.60m-681.60 -6h681.60"/>
<defs>
<path id="utclef" fill="currentColor" d="m-50 -90
	c-72 -41 -72 -158 52 -188
	c150 -10 220 188 90 256
	c-114 52 -275 0 -293 -136
	c-15 -181 93 -229 220 -334
	c88 -87 79 -133 62 -210
	c-51 33 -94 105 -89 186
	c17 267 36 374 49 574
	c6 96 -19 134 -77 135
	c-80 1 -126 -93 -61 -133
	c85 -41 133 101 31 105
	c23 17 92 37 90 -92
	c-10 -223 -39 -342 -50 -617
	c0 -90 0 -162 96 -232
	c56 72 63 230 22 289
	c-74 106 -257 168 -255 316
	c9 153 148 185 252 133
	c86 -65 29 -192 -80 -176
	c-71 12 -105 67 -59 124"/>
<use id="tclef" transform="scale(0.045)"
	xlink:href="#utclef"/>
</defs>
<use x="25.33" y="106.01" xlink:href="#tclef"/>
<g font-family="serif" font-size="16" font-weight="bold" font-style="normal"
	transform="translate(43.83,106.01) scale(1.2,1)">
	<text y="-1" text-anchor="middle">2</text>
	<text y="-13" text-anchor="middle">3</text>
</g>
<path fill="currentColor"
	d="M58.03 113.21l43.30 0.00v-3.20l-43.30 -0.00"/>
<use x="61.83" y="91.01" xlink:href="#hd"/>
<path d="M58.33 91.01v21.20" stroke="currentColor" fill="none"/>
<use x="83.13" y="91.01" xlink:href="#hd"/>
<path d="M79.63 91.01v21.20" stroke="currentColor" fill="none"/>
<use x="104.43" y="94.01" xlink:href="#hd"/>
<path d="M100.93 94.01v18.20" stroke="currentColor" fill="none"/>
<path fill="currentColor"
	d="M124.23 110.71l22.00 -2.40v-3.20l-22.00 2.40"/>
<use x="128.13" y="91.01" xlink:href="#hd"/>
<path d="M124.63 91.01v18.70" stroke="currentColor" fill="none"/>
<use x="149.43" y="88.01" xlink:href="#hd"/>
<path d="M145.93 88.01v19.30" stroke="currentColor" fill="none"/>
<use x="173.03" y="85.01" xlink:href="#hd"/>
<circle fill="currentColor" cx="181.03" cy="85.01" r="1.2"/>
<path d="M169.53 85.01v20.00" stroke="currentColor" fill="none"/>
<use x="211.13" y="82.01" xlink:href="#hd"/>
<path d="M207.63 82.01v20.00" stroke="currentColor" fill="none"/>
<path fill="currentColor"
	d="M207.63 102.01c0.6 -5.6 9.6 -9 5.6 -18.4
	c1.6 6 -1.3 11.6 -5.6 12.8
"/>
<use x="234.83" y="88.01" xlink:href="#hd"/>
<circle fill="currentColor" cx="242.83" cy="85.01" r="1.2"/>
<path d="M231.33 88.01v20.00" stroke="currentColor" fill="none"/>
<use x="277.83" y="91.01" xlink:href="#hd"/>
<path d="M274.33 91.01v20.00" stroke="currentColor" fill="none"/>
<path fill="currentColor"
	d="M274.33 111.01c0.6 -5.6 9.6 -9 5.6 -18.4
	c1.6 6 -1.3 11.6 -5.6 12.8
"/>
<defs>
<path id="Hd" fill="currentColor" d="m3 -1.6
	c-1 -1.8 -7 1.4 -6 3.2
	c1 1.8 7 -1.4 6 -3.2
	m0.5 -0.3
	c2 3.8 -5 7.6 -7 3.8
	c-2 -3.8 5 -7.6 7 -3.8"/>
</defs>
<use x="301.53" y="79.01" xlink:href="#Hd"/>
<circle fill="currentColor" cx="310.53" cy="79.01" r="1.2"/>
<path d="M298.03 79.01v20.00" stroke="currentColor" fill="none"/>
<path fill="currentColor"
	d="M351.43 102.31l22.00 2.40v-3.20l-22.00 -2.40"/>
<use x="355.33" y="82.01" xlink:href="#hd"/>
<path d="M351.83 82.01v19.30" stroke="currentColor" fill="none"/>
<use x="376.63" y="85.01" xlink:href="#hd"/>
<path d="M373.13 85.01v18.70" stroke="currentColor" fill="none"/>
<use x="400.23" y="82.01" xlink:href="#hd"/>
<circle fill="currentColor" cx="408.23" cy="79.01" r="1.2"/>
<path d="M396.73 82.01v20.00" stroke="currentColor" fill="none"/>
<use x="443.33" y="79.01" xlink:href="#hd"/>
<path d="M439.83 79.01v20.00" stroke="currentColor" fill="none"/>
<path fill="currentColor"
	d="M439.83 99.01c0.6 -5.6 9.6 -9 5.6 -18.4
	c1.6 6 -1.3 11.6 -5.6 12.8
"/>
<defs>
<path id="hl" stroke="currentColor" d="m-6 0h12"/>
</defs>
<use x="466.93" y="76.01" xlink:href="#hl"/>
<use x="466.93" y="76.01" xlink:href="#hd"/>
<circle fill="currentColor" cx="474.93" cy="73.01" r="1.2"/>
<path d="M463.43 76.01v20.00" stroke="currentColor" fill="none"/>
<use x="505.03" y="79.01" xlink:href="#hd"/>
<path d="M501.53 79.01v20.00" stroke="currentColor" fill="none"/>
<path fill="currentColor"
	d="M501.53 99.01c0.6 -5.6 9.6 -9 5.6 -18.4
	c1.6 6 -1.3 11.6 -5.6 12.8
"/>
<use x="528.73" y="82.01" xlink:href="#hd"/>
<path d="M525.23 82.01v20.00" stroke="currentColor" fill="none"/>
<path fill="currentColor"
	d="M558.23 105.31l22.00 2.40v-3.20l-22.00 -2.40"/>
<use x="562.03" y="85.01" xlink:href="#hd"/>
<path d="M558.53 85.01v19.30" stroke="currentColor" fill="none"/>
<use x="583.33" y="88.01" xlink:href="#hd"/>
<path d="M579.83 88.01v18.70" stroke="currentColor" fill="none"/>
<use x="607.03" y="85.01" xlink:href="#hd"/>
<circle fill="currentColor" cx="615.03" cy="85.01" r="1.2"/>
<path d="M603.53 85.01v20.00" stroke="currentColor" fill="none"/>
<path fill="currentColor"
	d="M646.23 105.21l22.00 5.00v-3.20l-22.00 -5.00"/>
<use x="650.13" y="82.01" xlink:href="#hd"/>
<path d="M646.63 82.01v22.30" stroke="currentColor" fill="none"/>
<use x="671.43" y="91.01" xlink:href="#hd"/>
<path d="M667.93 91.01v18.20" stroke="currentColor" fill="none"/>
</g>
</svg>
