<?xml version="1.0" standalone="no"?>
<!DOCTYPE svg PUBLIC "-//W3C//DTD SVG 1.1//EN"
	"http://www.w3.org/Graphics/SVG/1.1/DTD/svg11.dtd">
<svg xmlns="http://www.w3.org/2000/svg" version="1.1"
	xmlns:xlink="http://www.w3.org/1999/xlink"
	xml:space='preserve' color="black"
	width="7.38in" height="1.34in" viewBox="0 0 531 97">
<title>0408.abc (0408) tune 1</title>
<!-- Creator: abcm2ps-7.8.14 -->
<!-- CreationDate: Mar 13, 2016 18:53 -->
<!-- CommandLine: -qxg 0408.abc -O ../svgs/0408.svg -->
<g transform="scale(0.750)" stroke-width="0.70" font-family="Times" font-size="20.00">
<text x="354.13" y="21.67" text-anchor="middle">0408.  Well-tempered Clavichord, Book I, Prelude No. 8</text>
</g>
<g transform="scale(0.750)" stroke-width="0.70" font-family="Times" font-size="14.00" font-style="italic">
<text x="694.93" y="45.34" text-anchor="end">Johann Sebastian Bach</text>
</g>
<g transform="scale(0.525)" stroke-width="0.70" font-family="Times" font-size="14.00" font-style="italic">
<defs>
<ellipse id="hd" rx="4.1" ry="2.9"
	transform="rotate(-20)" fill="currentColor"/>
</defs>
<use x="154.90" y="94.16" xlink:href="#hd"/>
<path d="M158.40 94.16v-20.00" stroke="currentColor" fill="none"/>
</g>
<g transform="scale(0.750)" stroke-width="0.70" font-family="Times" font-size="15.00" font-weight="bold">
<text x="116.13" y="68.01">= 120</text>
<path stroke="currentColor" fill="none"
	d="M245.03 106.01v-24.00"/>
<path stroke="currentColor" fill="none"
	d="M395.03 106.01v-24.00"/>
<path stroke="currentColor" fill="none"
	d="M640.13 106.01v-24.00"/>
<path stroke="currentColor" fill="none"
	d="M13.33 106.01h681.60m-681.60 -6h681.60m-681.60 -6h681.60m-681.60 -6h681.60m-681.60 -6h681.60"/>
<path stroke="currentColor" fill="none"
	d="M599.63 65.01v-3l27.70 -0.00v3"/>
<rect x="606.43" y="56.01" width="14.00" height="12" fill="white"/>
<text font-family="serif" font-size="12" font-style="italic" font-weight="normal"
	x="613.43" y="66.01" text-anchor="middle">3</text>
<defs>
<path id="utclef" fill="currentColor" d="m-50 -90
	c-72 -41 -72 -158 52 -188
	c150 -10 220 188 90 256
	c-114 52 -275 0 -293 -136
	c-15 -181 93 -229 220 -334
	c88 -87 79 -133 62 -210
	c-51 33 -94 105 -89 186
	c17 267 36 374 49 574
	c6 96 -19 134 -77 135
	c-80 1 -126 -93 -61 -133
	c85 -41 133 101 31 105
	c23 17 92 37 90 -92
	c-10 -223 -39 -342 -50 -617
	c0 -90 0 -162 96 -232
	c56 72 63 230 22 289
	c-74 106 -257 168 -255 316
	c9 153 148 185 252 133
	c86 -65 29 -192 -80 -176
	c-71 12 -105 67 -59 124"/>
<use id="tclef" transform="scale(0.045)"
	xlink:href="#utclef"/>
</defs>
<use x="25.33" y="106.01" xlink:href="#tclef"/>
<defs>
<path id="uflat" fill="currentColor" d="
	m100 -746
	h32
	v734
	l-32 4
	m32 -332
	c46 -72 152 -90 208 -20
	c100 110 -120 326 -208 348
	m0 -28
	c54 0 200 -206 130 -290
	c-50 -60 -130 -4 -130 34"/>
<use id="ft0" transform="translate(-3.5,3.5) scale(0.018)"
	xlink:href="#uflat"/>
</defs>
<use x="40.33" y="94.01" xlink:href="#ft0"/>
<use x="45.83" y="85.01" xlink:href="#ft0"/>
<use x="51.33" y="97.01" xlink:href="#ft0"/>
<use x="56.83" y="88.01" xlink:href="#ft0"/>
<use x="62.33" y="100.01" xlink:href="#ft0"/>
<use x="67.83" y="91.01" xlink:href="#ft0"/>
<g font-family="serif" font-size="16" font-weight="bold" font-style="normal"
	transform="translate(83.83,106.01) scale(1.2,1)">
	<text y="-1" text-anchor="middle">2</text>
	<text y="-13" text-anchor="middle">3</text>
</g>
<use x="107.83" y="94.01" xlink:href="#hd"/>
<use x="98.83" y="94.01" xlink:href="#ft0"/>
<path d="M104.33 94.01v20.00" stroke="currentColor" fill="none"/>
<defs>
<path id="r4" fill="currentColor" d="m-1 -8.5
	l3.6 5.1 -2.1 5.2 2.2 4.3
	c-2.6 -2.3 -5.1 0 -2.4 2.6
	c-4.8 -3 -1.5 -6.9 1.4 -4.1
	l-3.1 -4.5 1.9 -5.1 -1.5 -3.5"/>
</defs>
<use x="131.73" y="94.01" xlink:href="#r4"/>
<circle fill="currentColor" cx="139.73" cy="91.01" r="1.2"/>
<use x="160.23" y="94.01" xlink:href="#hd"/>
<path d="M156.73 94.01v20.00" stroke="currentColor" fill="none"/>
<path fill="currentColor"
	d="M156.73 114.01c0.6 -5.6 9.6 -9 5.6 -18.4
	c1.6 6 -1.3 11.6 -5.6 12.8
"/>
<use x="177.63" y="85.01" xlink:href="#hd"/>
<circle fill="currentColor" cx="185.63" cy="85.01" r="1.2"/>
<path d="M174.13 85.01v20.00" stroke="currentColor" fill="none"/>
<use x="206.13" y="79.01" xlink:href="#hd"/>
<path d="M202.63 79.01v20.00" stroke="currentColor" fill="none"/>
<path fill="currentColor"
	d="M202.63 99.01c0.6 -5.6 9.6 -9 5.6 -18.4
	c1.6 6 -1.3 11.6 -5.6 12.8
"/>
<use x="225.43" y="94.01" xlink:href="#hd"/>
<defs>
<path id="unat" fill="currentColor" d="
	m96 -750
	h-32
	v716
	l32 -8
	l182 -54
	v282
	h32
	v-706
	l-34 10
	l-180 50
	v-290
	m0 592
	v-190
	l182 -52
	v188"/>
<use id="nt0" transform="translate(-3,5) scale(0.018)"
	xlink:href="#unat"/>
</defs>
<use x="216.43" y="94.01" xlink:href="#nt0"/>
<path d="M221.93 94.01v20.00" stroke="currentColor" fill="none"/>
<use x="257.53" y="94.01" xlink:href="#hd"/>
<path d="M254.03 94.01v20.00" stroke="currentColor" fill="none"/>
<use x="281.43" y="94.01" xlink:href="#r4"/>
<circle fill="currentColor" cx="289.43" cy="91.01" r="1.2"/>
<use x="309.93" y="85.01" xlink:href="#hd"/>
<path d="M306.43 85.01v20.00" stroke="currentColor" fill="none"/>
<path fill="currentColor"
	d="M306.43 105.01c0.6 -5.6 9.6 -9 5.6 -18.4
	c1.6 6 -1.3 11.6 -5.6 12.8
"/>
<defs>
<path id="hl" stroke="currentColor" d="m-6 0h12"/>
</defs>
<use x="327.33" y="76.01" xlink:href="#hl"/>
<use x="327.33" y="76.01" xlink:href="#hd"/>
<circle fill="currentColor" cx="335.33" cy="73.01" r="1.2"/>
<path d="M323.83 76.01v20.00" stroke="currentColor" fill="none"/>
<use x="356.13" y="76.01" xlink:href="#hl"/>
<use x="356.13" y="73.01" xlink:href="#hd"/>
<path d="M352.63 73.01v21.00" stroke="currentColor" fill="none"/>
<path fill="currentColor"
	d="M352.63 94.01c0.6 -5.6 9.6 -9 5.6 -18.4
	c1.6 6 -1.3 11.6 -5.6 12.8
"/>
<use x="375.43" y="88.01" xlink:href="#hd"/>
<use x="366.43" y="88.01" xlink:href="#nt0"/>
<path d="M371.93 88.01v20.00" stroke="currentColor" fill="none"/>
<use x="413.53" y="88.01" xlink:href="#hd"/>
<use x="404.53" y="88.01" xlink:href="#nt0"/>
<path d="M410.03 88.01v20.00" stroke="currentColor" fill="none"/>
<use x="437.43" y="94.01" xlink:href="#r4"/>
<circle fill="currentColor" cx="445.43" cy="91.01" r="1.2"/>
<use x="465.93" y="82.01" xlink:href="#hd"/>
<path d="M462.43 82.01v20.00" stroke="currentColor" fill="none"/>
<path fill="currentColor"
	d="M462.43 102.01c0.6 -5.6 9.6 -9 5.6 -18.4
	c1.6 6 -1.3 11.6 -5.6 12.8
"/>
<path fill="currentColor"
	d="M484.93 69.01l65.00 0.00v3.20l-65.00 -0.00"/>
<path fill="currentColor"
	d="M485.33 74.01l36.00 0.00v3.20l-36.00 -0.00"/>
<path fill="currentColor"
	d="M543.73 74.01l6.00 0.00v3.20l-6.00 -0.00"/>
<path fill="currentColor"
	d="M485.33 79.01l36.00 0.00v3.20l-36.00 -0.00"/>
<use x="481.83" y="97.01" xlink:href="#hd"/>
<path d="M485.33 97.01v-27.00" stroke="currentColor" fill="none"/>
<use x="490.83" y="100.01" xlink:href="#hd"/>
<path d="M494.33 100.01v-30.00" stroke="currentColor" fill="none"/>
<use x="499.83" y="97.01" xlink:href="#hd"/>
<path d="M503.33 97.01v-27.00" stroke="currentColor" fill="none"/>
<use x="517.83" y="94.01" xlink:href="#hd"/>
<use x="508.83" y="94.01" xlink:href="#ft0"/>
<path d="M521.33 94.01v-24.00" stroke="currentColor" fill="none"/>
<use x="526.83" y="97.01" xlink:href="#hd"/>
<circle fill="currentColor" cx="534.83" cy="97.01" r="1.2"/>
<path d="M530.33 97.01v-27.00" stroke="currentColor" fill="none"/>
<use x="546.23" y="100.01" xlink:href="#hd"/>
<path d="M549.73 100.01v-30.00" stroke="currentColor" fill="none"/>
<path fill="currentColor"
	d="M562.23 69.81l24.20 0.00v3.20l-24.20 -0.00"/>
<path fill="currentColor"
	d="M562.53 74.81l23.50 0.00v3.20l-23.50 -0.00"/>
<path fill="currentColor"
	d="M580.13 79.81l6.00 0.00v3.20l-6.00 -0.00"/>
<use x="559.03" y="97.01" xlink:href="#hd"/>
<path d="M562.53 97.01v-26.20" stroke="currentColor" fill="none"/>
<use x="570.83" y="94.01" xlink:href="#hd"/>
<path d="M574.33 94.01v-23.20" stroke="currentColor" fill="none"/>
<use x="582.63" y="100.01" xlink:href="#hd"/>
<path d="M586.13 100.01v-29.20" stroke="currentColor" fill="none"/>
<defs>
<path id="r8e" fill="currentColor" d="m 0 0
	c-1.5 1.5 -2.4 2 -3.6 2
	c2.4 -2.8 -2.8 -4 -2.8 -1.2
	c0 2.7 4.3 2.4 5.9 0.6"/>
<g id="r32">
	<path d="m4.8 -10l-5.5 21.6" stroke="currentColor" fill="none"/>
	<use x="4.9" y="-10" xlink:href="#r8e"/>
	<use x="3.4" y="-4" xlink:href="#r8e"/>
	<use x="1.9" y="2" xlink:href="#r8e"/>
</g>
</defs>
<use x="591.63" y="94.01" xlink:href="#r32"/>
<path fill="currentColor"
	d="M603.73 74.01l29.50 0.00v3.20l-29.50 -0.00"/>
<path fill="currentColor"
	d="M604.13 79.01l28.80 0.00v3.20l-28.80 -0.00"/>
<use x="600.63" y="103.01" xlink:href="#hd"/>
<path d="M604.13 103.01v-28.00" stroke="currentColor" fill="none"/>
<use x="610.23" y="100.01" xlink:href="#hd"/>
<path d="M613.73 100.01v-25.00" stroke="currentColor" fill="none"/>
<use x="619.83" y="97.01" xlink:href="#hd"/>
<path d="M623.33 97.01v-22.00" stroke="currentColor" fill="none"/>
<use x="629.43" y="100.01" xlink:href="#hd"/>
<path d="M632.93 100.01v-25.00" stroke="currentColor" fill="none"/>
<path fill="currentColor"
	d="M655.83 78.61l16.60 2.30v3.20l-16.60 -2.30"/>
<path fill="currentColor"
	d="M666.03 85.01l6.00 0.80v3.20l-6.00 -0.80"/>
<use x="652.63" y="100.01" xlink:href="#hd"/>
<path d="M656.13 100.01v-20.40" stroke="currentColor" fill="none"/>
<use x="668.53" y="103.01" xlink:href="#hd"/>
<path d="M672.03 103.01v-21.20" stroke="currentColor" fill="none"/>
<use x="681.43" y="106.01" xlink:href="#hd"/>
<path d="M684.93 106.01v-21.00" stroke="currentColor" fill="none"/>
<path fill="currentColor"
	d="M684.93 85.01c0.9 3.7 9.1 6.4 6 12.4
	c1 -5.4 -4.2 -8.4 -6 -8.4
M684.93 90.41c0.9 3.7 9.1 6.4 6 12.4
	c1 -5.4 -4.2 -8.4 -6 -8.4
"/>
<path fill="currentColor"
	d="M228.93 94.01c3.95 -4.95 21.14 -4.95 25.09 -0.00
	l0.00 -0.23c-4.70 -6.73 -20.38 -6.73 -25.09 0.23"/>
<path fill="currentColor"
	d="M378.93 88.01c4.90 -5.06 26.19 -5.06 31.09 -0.00
	l0.00 -0.23c-5.83 -6.83 -25.26 -6.83 -31.09 0.23"/>
<path fill="currentColor"
	d="M632.93 100.01c2.56 4.79 13.71 4.79 16.27 -0.00
	l0.00 0.22c-3.05 6.58 -13.22 6.58 -16.27 -0.22"/>
</g>
</svg>
