<?xml version="1.0" standalone="no"?>
<!DOCTYPE svg PUBLIC "-//W3C//DTD SVG 1.1//EN"
	"http://www.w3.org/Graphics/SVG/1.1/DTD/svg11.dtd">
<svg xmlns="http://www.w3.org/2000/svg" version="1.1"
	xmlns:xlink="http://www.w3.org/1999/xlink"
	xml:space='preserve' color="black"
	width="7.38in" height="1.36in" viewBox="0 0 531 98">
<title>0417.abc (0417) tune 1</title>
<!-- Creator: abcm2ps-7.8.14 -->
<!-- CreationDate: Mar 13, 2016 18:53 -->
<!-- CommandLine: -qxg 0417.abc -O ../svgs/0417.svg -->
<g transform="scale(0.750)" stroke-width="0.70" font-family="Times" font-size="20.00">
<text x="354.13" y="21.67" text-anchor="middle">0417.  Well-tempered Clavichord, Book I, Fugue No. 12</text>
</g>
<g transform="scale(0.750)" stroke-width="0.70" font-family="Times" font-size="14.00" font-style="italic">
<text x="694.93" y="45.34" text-anchor="end">Johann Sebastian Bach</text>
</g>
<g transform="scale(0.525)" stroke-width="0.70" font-family="Times" font-size="14.00" font-style="italic">
<defs>
<ellipse id="hd" rx="4.1" ry="2.9"
	transform="rotate(-20)" fill="currentColor"/>
</defs>
<use x="130.61" y="94.16" xlink:href="#hd"/>
<path d="M134.11 94.16v-20.00" stroke="currentColor" fill="none"/>
</g>
<g transform="scale(0.750)" stroke-width="0.70" font-family="Times" font-size="15.00" font-weight="bold">
<text x="99.13" y="68.01">= 120</text>
<path stroke="currentColor" fill="none"
	d="M235.33 108.01v-24.00"/>
<path stroke="currentColor" fill="none"
	d="M398.53 108.01v-24.00"/>
<path stroke="currentColor" fill="none"
	d="M536.13 108.01v-24.00"/>
<path stroke="currentColor" fill="none"
	d="M13.33 108.01h681.60m-681.60 -6h681.60m-681.60 -6h681.60m-681.60 -6h681.60m-681.60 -6h681.60"/>
<defs>
<path id="ubclef" fill="currentColor" d="m-200 -87
	c124 -35 222 -78 254 -236
	c43 -228 -167 -246 -192 -103
	c59 -80 157 22 92 78
	c-62 47 -115 -22 -106 -88
	c21 -141 270 -136 274 52
	c-1 175 -106 264 -322 297
	m357 -250
	c0 -36 51 -34 51 0
	c0 37 -51 36 -51 0
	m-2 -129
	c0 -36 51 -34 51 0
	c0 38 -51 37 -51 0"/>
<use id="bclef" transform="scale(0.045)"
	xlink:href="#ubclef"/>
</defs>
<use x="25.33" y="108.01" xlink:href="#bclef"/>
<defs>
<path id="uflat" fill="currentColor" d="
	m100 -746
	h32
	v734
	l-32 4
	m32 -332
	c46 -72 152 -90 208 -20
	c100 110 -120 326 -208 348
	m0 -28
	c54 0 200 -206 130 -290
	c-50 -60 -130 -4 -130 34"/>
<use id="ft0" transform="translate(-3.5,3.5) scale(0.018)"
	xlink:href="#uflat"/>
</defs>
<use x="40.33" y="102.01" xlink:href="#ft0"/>
<use x="45.83" y="93.01" xlink:href="#ft0"/>
<use x="51.33" y="105.01" xlink:href="#ft0"/>
<use x="56.83" y="96.01" xlink:href="#ft0"/>
<g font-family="serif" font-size="16" font-weight="bold" font-style="normal"
	transform="translate(72.83,108.01) scale(1.2,1)">
	<text y="-1" text-anchor="middle">4</text>
	<text y="-13" text-anchor="middle">4</text>
</g>
<defs>
<path id="r4" fill="currentColor" d="m-1 -8.5
	l3.6 5.1 -2.1 5.2 2.2 4.3
	c-2.6 -2.3 -5.1 0 -2.4 2.6
	c-4.8 -3 -1.5 -6.9 1.4 -4.1
	l-3.1 -4.5 1.9 -5.1 -1.5 -3.5"/>
</defs>
<use x="90.83" y="96.01" xlink:href="#r4"/>
<defs>
<path id="hl" stroke="currentColor" d="m-6 0h12"/>
</defs>
<use x="128.83" y="78.01" xlink:href="#hl"/>
<use x="128.83" y="78.01" xlink:href="#hd"/>
<path d="M125.33 78.01v20.00" stroke="currentColor" fill="none"/>
<use x="166.83" y="78.01" xlink:href="#hl"/>
<use x="166.83" y="75.01" xlink:href="#hd"/>
<path d="M163.33 75.01v21.00" stroke="currentColor" fill="none"/>
<use x="204.83" y="78.01" xlink:href="#hl"/>
<use x="204.83" y="78.01" xlink:href="#hd"/>
<path d="M201.33 78.01v20.00" stroke="currentColor" fill="none"/>
<use x="253.83" y="81.01" xlink:href="#hd"/>
<defs>
<path id="unat" fill="currentColor" d="
	m96 -750
	h-32
	v716
	l32 -8
	l182 -54
	v282
	h32
	v-706
	l-34 10
	l-180 50
	v-290
	m0 592
	v-190
	l182 -52
	v188"/>
<use id="nt0" transform="translate(-3,5) scale(0.018)"
	xlink:href="#unat"/>
</defs>
<use x="244.83" y="81.01" xlink:href="#nt0"/>
<path d="M250.33 81.01v20.00" stroke="currentColor" fill="none"/>
<use x="291.93" y="78.01" xlink:href="#hl"/>
<use x="291.93" y="72.01" xlink:href="#hl"/>
<use x="291.93" y="72.01" xlink:href="#hd"/>
<use x="282.93" y="72.01" xlink:href="#nt0"/>
<path d="M288.43 72.01v24.00" stroke="currentColor" fill="none"/>
<use x="329.93" y="78.01" xlink:href="#hl"/>
<use x="329.93" y="72.01" xlink:href="#hl"/>
<use x="329.93" y="69.01" xlink:href="#hd"/>
<path d="M326.43 69.01v27.00" stroke="currentColor" fill="none"/>
<use x="368.03" y="81.01" xlink:href="#hd"/>
<use x="359.03" y="81.01" xlink:href="#ft0"/>
<path d="M364.53 81.01v20.00" stroke="currentColor" fill="none"/>
<use x="417.03" y="84.01" xlink:href="#hd"/>
<use x="408.03" y="84.01" xlink:href="#nt0"/>
<path d="M413.53 84.01v20.00" stroke="currentColor" fill="none"/>
<use x="455.13" y="84.01" xlink:href="#hd"/>
<use x="446.13" y="84.01" xlink:href="#ft0"/>
<path d="M451.63 84.01v20.00" stroke="currentColor" fill="none"/>
<defs>
<path id="Hd" fill="currentColor" d="m3 -1.6
	c-1 -1.8 -7 1.4 -6 3.2
	c1 1.8 7 -1.4 6 -3.2
	m0.5 -0.3
	c2 3.8 -5 7.6 -7 3.8
	c-2 -3.8 5 -7.6 7 -3.8"/>
</defs>
<use x="493.13" y="87.01" xlink:href="#Hd"/>
<path d="M489.63 87.01v20.00" stroke="currentColor" fill="none"/>
<use x="549.73" y="90.01" xlink:href="#hd"/>
<path d="M546.23 90.01v20.00" stroke="currentColor" fill="none"/>
<path fill="currentColor"
	d="M546.23 110.01c0.6 -5.6 9.6 -9 5.6 -18.4
	c1.6 6 -1.3 11.6 -5.6 12.8
"/>
<path fill="currentColor"
	d="M572.83 112.21l17.80 -2.30v-3.20l-17.80 2.30"/>
<path fill="currentColor"
	d="M573.13 107.21l17.20 -2.20v-3.20l-17.20 2.20"/>
<use x="576.63" y="90.01" xlink:href="#hd"/>
<path d="M573.13 90.01v21.20" stroke="currentColor" fill="none"/>
<use x="593.83" y="87.01" xlink:href="#hd"/>
<path d="M590.33 87.01v22.00" stroke="currentColor" fill="none"/>
<use x="612.83" y="84.01" xlink:href="#hd"/>
<path d="M609.33 84.01v20.00" stroke="currentColor" fill="none"/>
<path fill="currentColor"
	d="M609.33 104.01c0.6 -5.6 9.6 -9 5.6 -18.4
	c1.6 6 -1.3 11.6 -5.6 12.8
"/>
<path fill="currentColor"
	d="M635.93 106.21l17.80 -2.30v-3.20l-17.80 2.30"/>
<path fill="currentColor"
	d="M636.23 101.21l17.20 -2.20v-3.20l-17.20 2.20"/>
<use x="639.73" y="84.01" xlink:href="#hd"/>
<path d="M636.23 84.01v21.20" stroke="currentColor" fill="none"/>
<use x="656.93" y="81.01" xlink:href="#hd"/>
<path d="M653.43 81.01v22.00" stroke="currentColor" fill="none"/>
<use x="676.03" y="78.01" xlink:href="#hl"/>
<use x="676.03" y="78.01" xlink:href="#hd"/>
<path d="M672.53 78.01v22.00" stroke="currentColor" fill="none"/>
<path fill="currentColor"
	d="M672.53 100.01c0.9 -3.7 9.1 -6.4 6 -12.4
	c1 5.4 -4.2 8.4 -6 8.4
M672.53 94.61c0.9 -3.7 9.1 -6.4 6 -12.4
	c1 5.4 -4.2 8.4 -6 8.4
"/>
</g>
</svg>
