<?xml version="1.0" standalone="no"?>
<!DOCTYPE svg PUBLIC "-//W3C//DTD SVG 1.1//EN"
	"http://www.w3.org/Graphics/SVG/1.1/DTD/svg11.dtd">
<svg xmlns="http://www.w3.org/2000/svg" version="1.1"
	xmlns:xlink="http://www.w3.org/1999/xlink"
	xml:space='preserve' color="black"
	width="7.38in" height="1.39in" viewBox="0 0 531 100">
<title>0428.abc (0428) tune 1</title>
<!-- Creator: abcm2ps-7.8.14 -->
<!-- CreationDate: Mar 13, 2016 18:53 -->
<!-- CommandLine: -qxg 0428.abc -O ../svgs/0428.svg -->
<g transform="scale(0.750)" stroke-width="0.70" font-family="Times" font-size="20.00">
<text x="354.13" y="21.67" text-anchor="middle">0428.  Well-tempered Clavichord, Book I, Prelude No. 18</text>
</g>
<g transform="scale(0.750)" stroke-width="0.70" font-family="Times" font-size="14.00" font-style="italic">
<text x="694.93" y="45.34" text-anchor="end">Johann Sebastian Bach</text>
</g>
<g transform="scale(0.525)" stroke-width="0.70" font-family="Times" font-size="14.00" font-style="italic">
<defs>
<ellipse id="hd" rx="4.1" ry="2.9"
	transform="rotate(-20)" fill="currentColor"/>
</defs>
<use x="138.47" y="94.16" xlink:href="#hd"/>
<path d="M141.97 94.16v-20.00" stroke="currentColor" fill="none"/>
</g>
<g transform="scale(0.750)" stroke-width="0.70" font-family="Times" font-size="15.00" font-weight="bold">
<text x="104.63" y="68.01">= 120</text>
<path stroke="currentColor" fill="none"
	d="M281.93 110.01v-24.00"/>
<path stroke="currentColor" fill="none"
	d="M400.83 110.01v-24.00"/>
<path stroke="currentColor" fill="none"
	d="M13.33 110.01h426.00m-426.00 -6h426.00m-426.00 -6h426.00m-426.00 -6h426.00m-426.00 -6h426.00"/>
<defs>
<path id="utclef" fill="currentColor" d="m-50 -90
	c-72 -41 -72 -158 52 -188
	c150 -10 220 188 90 256
	c-114 52 -275 0 -293 -136
	c-15 -181 93 -229 220 -334
	c88 -87 79 -133 62 -210
	c-51 33 -94 105 -89 186
	c17 267 36 374 49 574
	c6 96 -19 134 -77 135
	c-80 1 -126 -93 -61 -133
	c85 -41 133 101 31 105
	c23 17 92 37 90 -92
	c-10 -223 -39 -342 -50 -617
	c0 -90 0 -162 96 -232
	c56 72 63 230 22 289
	c-74 106 -257 168 -255 316
	c9 153 148 185 252 133
	c86 -65 29 -192 -80 -176
	c-71 12 -105 67 -59 124"/>
<use id="tclef" transform="scale(0.045)"
	xlink:href="#utclef"/>
</defs>
<use x="25.33" y="110.01" xlink:href="#tclef"/>
<defs>
<path id="usharp" fill="currentColor" d="
	m136 -702
	v890
	h32
	v-890
	m128 840
	h32
	v-888
	h-32
	m-232 286
	v116
	l338 -96
	v-116
	m-338 442
	v116
	l338 -98
	v-114"/>
<use id="sh0" transform="translate(-4,5) scale(0.018)"
	xlink:href="#usharp"/>
</defs>
<use x="40.33" y="86.01" xlink:href="#sh0"/>
<use x="45.83" y="95.01" xlink:href="#sh0"/>
<use x="51.33" y="83.01" xlink:href="#sh0"/>
<use x="56.83" y="92.01" xlink:href="#sh0"/>
<use x="62.33" y="101.01" xlink:href="#sh0"/>
<g font-family="serif" font-size="16" font-weight="bold" font-style="normal"
	transform="translate(78.33,110.01) scale(1.2,1)">
	<text y="-1" text-anchor="middle">8</text>
	<text y="-13" text-anchor="middle">6</text>
</g>
<path fill="currentColor"
	d="M99.53 80.31l36.70 -4.60v3.20l-36.70 4.60"/>
<path fill="currentColor"
	d="M99.83 85.31l36.00 -4.50v3.20l-36.00 4.50"/>
<use x="96.33" y="104.01" xlink:href="#hd"/>
<path d="M99.83 104.01v-22.70" stroke="currentColor" fill="none"/>
<use x="114.33" y="101.01" xlink:href="#hd"/>
<path d="M117.83 101.01v-22.00" stroke="currentColor" fill="none"/>
<use x="132.33" y="98.01" xlink:href="#hd"/>
<path d="M135.83 98.01v-21.20" stroke="currentColor" fill="none"/>
<path fill="currentColor"
	d="M155.53 77.01l36.70 -4.20v3.20l-36.70 4.20"/>
<path fill="currentColor"
	d="M155.83 82.01l36.00 -4.20v3.20l-36.00 4.20"/>
<use x="152.33" y="104.01" xlink:href="#hd"/>
<path d="M155.83 104.01v-26.00" stroke="currentColor" fill="none"/>
<use x="170.33" y="101.01" xlink:href="#hd"/>
<path d="M173.83 101.01v-25.10" stroke="currentColor" fill="none"/>
<use x="188.33" y="95.01" xlink:href="#hd"/>
<path d="M191.83 95.01v-21.20" stroke="currentColor" fill="none"/>
<path fill="currentColor"
	d="M204.53 109.51l51.60 4.90v-3.20l-51.60 -4.90"/>
<use x="208.33" y="89.01" xlink:href="#hd"/>
<path d="M204.83 89.01v19.60" stroke="currentColor" fill="none"/>
<use x="233.83" y="92.01" xlink:href="#hd"/>
<path d="M230.33 92.01v19.00" stroke="currentColor" fill="none"/>
<use x="259.23" y="95.01" xlink:href="#hd"/>
<path d="M255.73 95.01v18.40" stroke="currentColor" fill="none"/>
<use x="296.03" y="98.01" xlink:href="#hd"/>
<path d="M292.53 98.01v20.00" stroke="currentColor" fill="none"/>
<path fill="currentColor"
	d="M292.53 118.01c0.6 -5.6 9.6 -9 5.6 -18.4
	c1.6 6 -1.3 11.6 -5.6 12.8
"/>
<use x="324.33" y="83.01" xlink:href="#hd"/>
<path d="M320.83 83.01v20.00" stroke="currentColor" fill="none"/>
<use x="364.33" y="83.01" xlink:href="#hd"/>
<circle fill="currentColor" cx="372.33" cy="83.01" r="1.2"/>
<defs>
<path id="unat" fill="currentColor" d="
	m96 -750
	h-32
	v716
	l32 -8
	l182 -54
	v282
	h32
	v-706
	l-34 10
	l-180 50
	v-290
	m0 592
	v-190
	l182 -52
	v188"/>
<use id="nt0" transform="translate(-3,5) scale(0.018)"
	xlink:href="#unat"/>
</defs>
<use x="355.33" y="83.01" xlink:href="#nt0"/>
<path d="M360.83 83.01v20.00" stroke="currentColor" fill="none"/>
<use x="419.33" y="83.01" xlink:href="#hd"/>
<use x="410.33" y="83.01" xlink:href="#sh0"/>
<path d="M415.83 83.01v22.00" stroke="currentColor" fill="none"/>
<path fill="currentColor"
	d="M415.83 105.01c0.9 -3.7 9.1 -6.4 6 -12.4
	c1 5.4 -4.2 8.4 -6 8.4
M415.83 99.61c0.9 -3.7 9.1 -6.4 6 -12.4
	c1 5.4 -4.2 8.4 -6 8.4
"/>
</g>
</svg>
