<?xml version="1.0" standalone="no"?>
<!DOCTYPE svg PUBLIC "-//W3C//DTD SVG 1.1//EN"
	"http://www.w3.org/Graphics/SVG/1.1/DTD/svg11.dtd">
<svg xmlns="http://www.w3.org/2000/svg" version="1.1"
	xmlns:xlink="http://www.w3.org/1999/xlink"
	xml:space='preserve' color="black"
	width="7.38in" height="1.36in" viewBox="0 0 531 98">
<title>0455.abc (0455) tune 1</title>
<!-- Creator: abcm2ps-7.8.14 -->
<!-- CreationDate: Mar 13, 2016 18:53 -->
<!-- CommandLine: -qxg 0455.abc -O ../svgs/0455.svg -->
<g transform="scale(0.750)" stroke-width="0.70" font-family="Times" font-size="20.00">
<text x="354.13" y="21.67" text-anchor="middle">0455.  Well-tempered Clavichord, Book II, Prelude No. 7</text>
</g>
<g transform="scale(0.750)" stroke-width="0.70" font-family="Times" font-size="14.00" font-style="italic">
<text x="694.93" y="45.34" text-anchor="end">Johann Sebastian Bach</text>
</g>
<g transform="scale(0.525)" stroke-width="0.70" font-family="Times" font-size="14.00" font-style="italic">
<defs>
<ellipse id="hd" rx="4.1" ry="2.9"
	transform="rotate(-20)" fill="currentColor"/>
</defs>
<use x="122.76" y="94.16" xlink:href="#hd"/>
<path d="M126.26 94.16v-20.00" stroke="currentColor" fill="none"/>
</g>
<g transform="scale(0.750)" stroke-width="0.70" font-family="Times" font-size="15.00" font-weight="bold">
<text x="93.63" y="68.01">= 120</text>
<path stroke="currentColor" fill="none"
	d="M220.43 108.01v-24.00"/>
<path stroke="currentColor" fill="none"
	d="M391.93 108.01v-24.00"/>
<path stroke="currentColor" fill="none"
	d="M613.73 108.01v-24.00"/>
<path stroke="currentColor" fill="none"
	d="M13.33 108.01h681.60m-681.60 -6h681.60m-681.60 -6h681.60m-681.60 -6h681.60m-681.60 -6h681.60"/>
<defs>
<path id="utclef" fill="currentColor" d="m-50 -90
	c-72 -41 -72 -158 52 -188
	c150 -10 220 188 90 256
	c-114 52 -275 0 -293 -136
	c-15 -181 93 -229 220 -334
	c88 -87 79 -133 62 -210
	c-51 33 -94 105 -89 186
	c17 267 36 374 49 574
	c6 96 -19 134 -77 135
	c-80 1 -126 -93 -61 -133
	c85 -41 133 101 31 105
	c23 17 92 37 90 -92
	c-10 -223 -39 -342 -50 -617
	c0 -90 0 -162 96 -232
	c56 72 63 230 22 289
	c-74 106 -257 168 -255 316
	c9 153 148 185 252 133
	c86 -65 29 -192 -80 -176
	c-71 12 -105 67 -59 124"/>
<use id="tclef" transform="scale(0.045)"
	xlink:href="#utclef"/>
</defs>
<use x="25.33" y="108.01" xlink:href="#tclef"/>
<defs>
<path id="uflat" fill="currentColor" d="
	m100 -746
	h32
	v734
	l-32 4
	m32 -332
	c46 -72 152 -90 208 -20
	c100 110 -120 326 -208 348
	m0 -28
	c54 0 200 -206 130 -290
	c-50 -60 -130 -4 -130 34"/>
<use id="ft0" transform="translate(-3.5,3.5) scale(0.018)"
	xlink:href="#uflat"/>
</defs>
<use x="40.33" y="96.01" xlink:href="#ft0"/>
<use x="45.83" y="87.01" xlink:href="#ft0"/>
<use x="51.33" y="99.01" xlink:href="#ft0"/>
<g font-family="serif" font-size="16" font-weight="bold" font-style="normal"
	transform="translate(67.33,108.01) scale(1.2,1)">
	<text y="-1" text-anchor="middle">8</text>
	<text y="-13" text-anchor="middle">9</text>
</g>
<use x="85.33" y="96.01" xlink:href="#hd"/>
<circle fill="currentColor" cx="93.33" cy="93.01" r="1.2"/>
<path d="M88.83 96.01v-20.00" stroke="currentColor" fill="none"/>
<defs>
<rect id="r2" fill="currentColor"
	x="-3.5" y="-3" width="7" height="3"/>
</defs>
<use x="126.33" y="96.01" xlink:href="#r2"/>
<path fill="currentColor"
	d="M173.23 121.31l23.60 -6.70v-3.20l-23.60 6.70"/>
<use x="177.13" y="102.01" xlink:href="#hd"/>
<path d="M173.63 102.01v18.20" stroke="currentColor" fill="none"/>
<use x="200.03" y="87.01" xlink:href="#hd"/>
<path d="M196.53 87.01v26.70" stroke="currentColor" fill="none"/>
<defs>
<path id="r8e" fill="currentColor" d="m 0 0
	c-1.5 1.5 -2.4 2 -3.6 2
	c2.4 -2.8 -2.8 -4 -2.8 -1.2
	c0 2.7 4.3 2.4 5.9 0.6"/>
<g id="r32">
	<path d="m4.8 -10l-5.5 21.6" stroke="currentColor" fill="none"/>
	<use x="4.9" y="-10" xlink:href="#r8e"/>
	<use x="3.4" y="-4" xlink:href="#r8e"/>
	<use x="1.9" y="2" xlink:href="#r8e"/>
</g>
</defs>
<use x="233.33" y="96.01" xlink:href="#r32"/>
<use x="246.13" y="90.01" xlink:href="#hd"/>
<path d="M242.63 90.01v20.00" stroke="currentColor" fill="none"/>
<use x="282.23" y="90.01" xlink:href="#hd"/>
<circle fill="currentColor" cx="290.23" cy="87.01" r="1.2"/>
<path d="M278.73 90.01v22.00" stroke="currentColor" fill="none"/>
<path fill="currentColor"
	d="M278.73 112.01c0.9 -3.7 9.1 -6.4 6 -12.4
	c1 5.4 -4.2 8.4 -6 8.4
M278.73 106.61c0.9 -3.7 9.1 -6.4 6 -12.4
	c1 5.4 -4.2 8.4 -6 8.4
"/>
<use x="302.93" y="96.01" xlink:href="#r2"/>
<path fill="currentColor"
	d="M351.73 84.71l23.60 -2.40v3.20l-23.60 2.40"/>
<use x="348.63" y="105.01" xlink:href="#hd"/>
<path d="M352.13 105.01v-19.30" stroke="currentColor" fill="none"/>
<use x="371.53" y="102.01" xlink:href="#hd"/>
<path d="M375.03 102.01v-18.70" stroke="currentColor" fill="none"/>
<path fill="currentColor"
	d="M408.03 79.81l46.50 4.40v3.20l-46.50 -4.40"/>
<use x="404.83" y="99.01" xlink:href="#hd"/>
<path d="M408.33 99.01v-18.20" stroke="currentColor" fill="none"/>
<defs>
<path id="hl" stroke="currentColor" d="m-6 0h12"/>
</defs>
<use x="427.73" y="114.01" xlink:href="#hl"/>
<use x="427.73" y="114.01" xlink:href="#hd"/>
<path d="M431.23 114.01v-31.00" stroke="currentColor" fill="none"/>
<use x="450.73" y="108.01" xlink:href="#hd"/>
<path d="M454.23 108.01v-22.80" stroke="currentColor" fill="none"/>
<path fill="currentColor"
	d="M479.33 83.31l46.50 -6.60v3.20l-46.50 6.60"/>
<use x="476.13" y="111.01" xlink:href="#hd"/>
<path d="M479.63 111.01v-26.70" stroke="currentColor" fill="none"/>
<use x="499.03" y="105.01" xlink:href="#hd"/>
<path d="M502.53 105.01v-24.00" stroke="currentColor" fill="none"/>
<use x="522.03" y="96.01" xlink:href="#hd"/>
<path d="M525.53 96.01v-18.20" stroke="currentColor" fill="none"/>
<path fill="currentColor"
	d="M550.63 86.91l46.50 -7.20v3.20l-46.50 7.20"/>
<use x="547.43" y="114.01" xlink:href="#hl"/>
<use x="547.43" y="117.01" xlink:href="#hd"/>
<path d="M550.93 117.01v-29.10" stroke="currentColor" fill="none"/>
<use x="570.43" y="105.01" xlink:href="#hd"/>
<path d="M573.93 105.01v-20.70" stroke="currentColor" fill="none"/>
<use x="593.33" y="99.01" xlink:href="#hd"/>
<path d="M596.83 99.01v-18.20" stroke="currentColor" fill="none"/>
<use x="626.63" y="96.01" xlink:href="#r32"/>
<use x="638.13" y="102.01" xlink:href="#hd"/>
<path d="M641.63 102.01v-20.00" stroke="currentColor" fill="none"/>
<use x="674.23" y="102.01" xlink:href="#hd"/>
<circle fill="currentColor" cx="687.23" cy="99.01" r="1.2"/>
<path d="M677.73 102.01v-21.00" stroke="currentColor" fill="none"/>
<path fill="currentColor"
	d="M677.73 81.01c0.9 3.7 9.1 6.4 6 12.4
	c1 -5.4 -4.2 -8.4 -6 -8.4
M677.73 86.41c0.9 3.7 9.1 6.4 6 12.4
	c1 -5.4 -4.2 -8.4 -6 -8.4
"/>
<path fill="currentColor"
	d="M249.63 90.01c4.58 -5.02 24.51 -5.02 29.10 -0.00
	l0.00 -0.23c-5.46 -6.79 -23.64 -6.79 -29.10 0.23"/>
<path fill="currentColor"
	d="M641.63 102.01c4.58 5.02 24.51 5.02 29.10 -0.00
	l0.00 0.23c-5.46 6.79 -23.64 6.79 -29.10 -0.23"/>
</g>
</svg>
