<?xml version="1.0" standalone="no"?>
<!DOCTYPE svg PUBLIC "-//W3C//DTD SVG 1.1//EN"
	"http://www.w3.org/Graphics/SVG/1.1/DTD/svg11.dtd">
<svg xmlns="http://www.w3.org/2000/svg" version="1.1"
	xmlns:xlink="http://www.w3.org/1999/xlink"
	xml:space='preserve' color="black"
	width="7.38in" height="1.34in" viewBox="0 0 531 97">
<title>0464.abc (0464) tune 1</title>
<!-- Creator: abcm2ps-7.8.14 -->
<!-- CreationDate: Mar 13, 2016 18:53 -->
<!-- CommandLine: -qxg 0464.abc -O ../svgs/0464.svg -->
<g transform="scale(0.750)" stroke-width="0.70" font-family="Times" font-size="20.00">
<text x="354.13" y="21.67" text-anchor="middle">0464.  Well-tempered Clavichord, Book II, Fugue No. 11</text>
</g>
<g transform="scale(0.750)" stroke-width="0.70" font-family="Times" font-size="14.00" font-style="italic">
<text x="694.93" y="45.34" text-anchor="end">Johann Sebastian Bach</text>
</g>
<g transform="scale(0.525)" stroke-width="0.70" font-family="Times" font-size="14.00" font-style="italic">
<defs>
<ellipse id="hd" rx="4.1" ry="2.9"
	transform="rotate(-20)" fill="currentColor"/>
</defs>
<use x="107.04" y="94.16" xlink:href="#hd"/>
<path d="M110.54 94.16v-20.00" stroke="currentColor" fill="none"/>
</g>
<g transform="scale(0.750)" stroke-width="0.70" font-family="Times" font-size="15.00" font-weight="bold">
<text x="82.63" y="68.01">= 120</text>
<path stroke="currentColor" fill="none"
	d="M161.23 106.01v-24.00"/>
<path stroke="currentColor" fill="none"
	d="M278.83 106.01v-24.00"/>
<path stroke="currentColor" fill="none"
	d="M398.53 106.01v-24.00"/>
<path stroke="currentColor" fill="none"
	d="M529.63 106.01v-24.00"/>
<path stroke="currentColor" fill="none"
	d="M649.43 106.01v-24.00"/>
<path stroke="currentColor" fill="none"
	d="M13.33 106.01h681.60m-681.60 -6h681.60m-681.60 -6h681.60m-681.60 -6h681.60m-681.60 -6h681.60"/>
<defs>
<path id="utclef" fill="currentColor" d="m-50 -90
	c-72 -41 -72 -158 52 -188
	c150 -10 220 188 90 256
	c-114 52 -275 0 -293 -136
	c-15 -181 93 -229 220 -334
	c88 -87 79 -133 62 -210
	c-51 33 -94 105 -89 186
	c17 267 36 374 49 574
	c6 96 -19 134 -77 135
	c-80 1 -126 -93 -61 -133
	c85 -41 133 101 31 105
	c23 17 92 37 90 -92
	c-10 -223 -39 -342 -50 -617
	c0 -90 0 -162 96 -232
	c56 72 63 230 22 289
	c-74 106 -257 168 -255 316
	c9 153 148 185 252 133
	c86 -65 29 -192 -80 -176
	c-71 12 -105 67 -59 124"/>
<use id="tclef" transform="scale(0.045)"
	xlink:href="#utclef"/>
</defs>
<use x="25.33" y="106.01" xlink:href="#tclef"/>
<defs>
<path id="uflat" fill="currentColor" d="
	m100 -746
	h32
	v734
	l-32 4
	m32 -332
	c46 -72 152 -90 208 -20
	c100 110 -120 326 -208 348
	m0 -28
	c54 0 200 -206 130 -290
	c-50 -60 -130 -4 -130 34"/>
<use id="ft0" transform="translate(-3.5,3.5) scale(0.018)"
	xlink:href="#uflat"/>
</defs>
<use x="40.33" y="94.01" xlink:href="#ft0"/>
<g font-family="serif" font-size="16" font-weight="bold" font-style="normal"
	transform="translate(56.33,106.01) scale(1.2,1)">
	<text y="-1" text-anchor="middle">8</text>
	<text y="-13" text-anchor="middle">3</text>
</g>
<defs>
<path id="r8e" fill="currentColor" d="m 0 0
	c-1.5 1.5 -2.4 2 -3.6 2
	c2.4 -2.8 -2.8 -4 -2.8 -1.2
	c0 2.7 4.3 2.4 5.9 0.6"/>
<g id="r8">
	<path d="m3.3 -4l-3.4 9.6" stroke="currentColor" fill="none"/>
	<use x="3.4" y="-4" xlink:href="#r8e"/>
</g>
</defs>
<use x="74.33" y="94.01" xlink:href="#r8"/>
<circle fill="currentColor" cx="82.33" cy="91.01" r="1.2"/>
<path fill="currentColor"
	d="M108.63 80.01l39.30 0.00v3.20l-39.30 -0.00"/>
<path fill="currentColor"
	d="M108.93 85.01l38.60 0.00v3.20l-38.60 -0.00"/>
<use x="105.43" y="103.01" xlink:href="#hd"/>
<path d="M108.93 103.01v-22.00" stroke="currentColor" fill="none"/>
<use x="124.73" y="106.01" xlink:href="#hd"/>
<path d="M128.23 106.01v-25.00" stroke="currentColor" fill="none"/>
<use x="144.03" y="103.01" xlink:href="#hd"/>
<path d="M147.53 103.01v-22.00" stroke="currentColor" fill="none"/>
<use x="176.43" y="91.01" xlink:href="#hd"/>
<path d="M172.93 91.01v20.00" stroke="currentColor" fill="none"/>
<path fill="currentColor"
	d="M172.93 111.01c0.6 -5.6 9.6 -9 5.6 -18.4
	c1.6 6 -1.3 11.6 -5.6 12.8
"/>
<defs>
<g id="r16">
	<path d="m3.3 -4l-4 15.6" stroke="currentColor" fill="none"/>
	<use x="3.4" y="-4" xlink:href="#r8e"/>
	<use x="1.9" y="2" xlink:href="#r8e"/>
</g>
</defs>
<use x="203.73" y="94.01" xlink:href="#r16"/>
<path fill="currentColor"
	d="M226.23 74.01l39.30 0.00v3.20l-39.30 -0.00"/>
<path fill="currentColor"
	d="M226.53 79.01l38.60 0.00v3.20l-38.60 -0.00"/>
<use x="223.03" y="97.01" xlink:href="#hd"/>
<path d="M226.53 97.01v-22.00" stroke="currentColor" fill="none"/>
<use x="242.33" y="100.01" xlink:href="#hd"/>
<path d="M245.83 100.01v-25.00" stroke="currentColor" fill="none"/>
<use x="261.63" y="97.01" xlink:href="#hd"/>
<path d="M265.13 97.01v-22.00" stroke="currentColor" fill="none"/>
<use x="294.03" y="88.01" xlink:href="#hd"/>
<path d="M290.53 88.01v20.00" stroke="currentColor" fill="none"/>
<path fill="currentColor"
	d="M290.53 108.01c0.6 -5.6 9.6 -9 5.6 -18.4
	c1.6 6 -1.3 11.6 -5.6 12.8
"/>
<use x="321.33" y="94.01" xlink:href="#r16"/>
<path fill="currentColor"
	d="M338.93 113.21l39.30 -4.70v-3.20l-39.30 4.70"/>
<path fill="currentColor"
	d="M339.33 108.21l38.60 -4.60v-3.20l-38.60 4.60"/>
<use x="342.83" y="91.01" xlink:href="#hd"/>
<path d="M339.33 91.01v21.20" stroke="currentColor" fill="none"/>
<use x="362.13" y="88.01" xlink:href="#hd"/>
<path d="M358.63 88.01v21.90" stroke="currentColor" fill="none"/>
<use x="381.43" y="85.01" xlink:href="#hd"/>
<path d="M377.93 85.01v22.60" stroke="currentColor" fill="none"/>
<path fill="currentColor"
	d="M409.93 105.61l39.30 4.70v-3.20l-39.30 -4.70"/>
<path fill="currentColor"
	d="M410.23 100.61l38.60 4.60v-3.20l-38.60 -4.60"/>
<use x="413.73" y="82.01" xlink:href="#hd"/>
<path d="M410.23 82.01v22.60" stroke="currentColor" fill="none"/>
<use x="433.03" y="85.01" xlink:href="#hd"/>
<path d="M429.53 85.01v21.90" stroke="currentColor" fill="none"/>
<use x="452.43" y="88.01" xlink:href="#hd"/>
<path d="M448.93 88.01v21.20" stroke="currentColor" fill="none"/>
<path fill="currentColor"
	d="M470.03 114.01l39.30 0.00v-3.20l-39.30 -0.00"/>
<path fill="currentColor"
	d="M470.33 109.01l38.60 0.00v-3.20l-38.60 -0.00"/>
<use x="473.83" y="91.01" xlink:href="#hd"/>
<path d="M470.33 91.01v22.00" stroke="currentColor" fill="none"/>
<use x="493.13" y="88.01" xlink:href="#hd"/>
<path d="M489.63 88.01v25.00" stroke="currentColor" fill="none"/>
<use x="512.43" y="94.01" xlink:href="#hd"/>
<path d="M508.93 94.01v19.00" stroke="currentColor" fill="none"/>
<path fill="currentColor"
	d="M547.93 74.81l39.30 4.70v3.20l-39.30 -4.70"/>
<path fill="currentColor"
	d="M548.33 79.81l38.60 4.60v3.20l-38.60 -4.60"/>
<use x="544.83" y="97.01" xlink:href="#hd"/>
<path d="M548.33 97.01v-21.20" stroke="currentColor" fill="none"/>
<use x="564.13" y="100.01" xlink:href="#hd"/>
<path d="M567.63 100.01v-21.90" stroke="currentColor" fill="none"/>
<use x="583.43" y="103.01" xlink:href="#hd"/>
<path d="M586.93 103.01v-22.60" stroke="currentColor" fill="none"/>
<path fill="currentColor"
	d="M608.03 78.31l28.00 -6.50v3.20l-28.00 6.50"/>
<path fill="currentColor"
	d="M629.73 78.21l6.00 -1.40v3.20l-6.00 1.40"/>
<use x="604.93" y="106.01" xlink:href="#hd"/>
<path d="M608.43 106.01v-26.80" stroke="currentColor" fill="none"/>
<use x="632.23" y="94.01" xlink:href="#hd"/>
<path d="M635.73 94.01v-21.20" stroke="currentColor" fill="none"/>
<use x="664.53" y="97.01" xlink:href="#hd"/>
<path d="M668.03 97.01v-20.00" stroke="currentColor" fill="none"/>
<path fill="currentColor"
	d="	M668.03 77.01c0.6 5.6 9.6 9 5.6 18.4
	c1.6 -6 -1.3 -11.6 -5.6 -12.8
"/>
</g>
</svg>
