<?xml version="1.0" standalone="no"?>
<!DOCTYPE svg PUBLIC "-//W3C//DTD SVG 1.1//EN"
	"http://www.w3.org/Graphics/SVG/1.1/DTD/svg11.dtd">
<svg xmlns="http://www.w3.org/2000/svg" version="1.1"
	xmlns:xlink="http://www.w3.org/1999/xlink"
	xml:space='preserve' color="black"
	width="7.38in" height="1.34in" viewBox="0 0 531 97">
<title>0469.abc (0469) tune 1</title>
<!-- Creator: abcm2ps-7.8.14 -->
<!-- CreationDate: Mar 13, 2016 18:53 -->
<!-- CommandLine: -qxg 0469.abc -O ../svgs/0469.svg -->
<g transform="scale(0.750)" stroke-width="0.70" font-family="Times" font-size="20.00">
<text x="354.13" y="21.67" text-anchor="middle">0469.  Well-tempered Clavichord, Book II, Prelude No. 14</text>
</g>
<g transform="scale(0.750)" stroke-width="0.70" font-family="Times" font-size="14.00" font-style="italic">
<text x="694.93" y="45.34" text-anchor="end">Johann Sebastian Bach</text>
</g>
<g transform="scale(0.525)" stroke-width="0.70" font-family="Times" font-size="14.00" font-style="italic">
<defs>
<ellipse id="hd" rx="4.1" ry="2.9"
	transform="rotate(-20)" fill="currentColor"/>
</defs>
<use x="122.76" y="94.16" xlink:href="#hd"/>
<path d="M126.26 94.16v-20.00" stroke="currentColor" fill="none"/>
</g>
<g transform="scale(0.750)" stroke-width="0.70" font-family="Times" font-size="15.00" font-weight="bold">
<text x="93.63" y="68.01">= 120</text>
<path stroke="currentColor" fill="none"
	d="M327.13 106.01v-24.00"/>
<path stroke="currentColor" fill="none"
	d="M649.73 106.01v-24.00"/>
<path stroke="currentColor" fill="none"
	d="M13.33 106.01h681.60m-681.60 -6h681.60m-681.60 -6h681.60m-681.60 -6h681.60m-681.60 -6h681.60"/>
<text font-family="serif" font-size="12" font-style="italic" font-weight="normal"
	x="237.73" y="63.21" text-anchor="middle">3</text>
<text font-family="serif" font-size="12" font-style="italic" font-weight="normal"
	x="294.33" y="66.21" text-anchor="middle">3</text>
<text font-family="serif" font-size="12" font-style="italic" font-weight="normal"
	x="556.53" y="118.81" text-anchor="middle">3</text>
<text font-family="serif" font-size="12" font-style="italic" font-weight="normal"
	x="613.43" y="122.01" text-anchor="middle">3</text>
<defs>
<path id="utclef" fill="currentColor" d="m-50 -90
	c-72 -41 -72 -158 52 -188
	c150 -10 220 188 90 256
	c-114 52 -275 0 -293 -136
	c-15 -181 93 -229 220 -334
	c88 -87 79 -133 62 -210
	c-51 33 -94 105 -89 186
	c17 267 36 374 49 574
	c6 96 -19 134 -77 135
	c-80 1 -126 -93 -61 -133
	c85 -41 133 101 31 105
	c23 17 92 37 90 -92
	c-10 -223 -39 -342 -50 -617
	c0 -90 0 -162 96 -232
	c56 72 63 230 22 289
	c-74 106 -257 168 -255 316
	c9 153 148 185 252 133
	c86 -65 29 -192 -80 -176
	c-71 12 -105 67 -59 124"/>
<use id="tclef" transform="scale(0.045)"
	xlink:href="#utclef"/>
</defs>
<use x="25.33" y="106.01" xlink:href="#tclef"/>
<defs>
<path id="usharp" fill="currentColor" d="
	m136 -702
	v890
	h32
	v-890
	m128 840
	h32
	v-888
	h-32
	m-232 286
	v116
	l338 -96
	v-116
	m-338 442
	v116
	l338 -98
	v-114"/>
<use id="sh0" transform="translate(-4,5) scale(0.018)"
	xlink:href="#usharp"/>
</defs>
<use x="40.33" y="82.01" xlink:href="#sh0"/>
<use x="45.83" y="91.01" xlink:href="#sh0"/>
<use x="51.33" y="79.01" xlink:href="#sh0"/>
<g font-family="serif" font-size="16" font-weight="bold" font-style="normal"
	transform="translate(67.33,106.01) scale(1.2,1)">
	<text y="-1" text-anchor="middle">4</text>
	<text y="-13" text-anchor="middle">3</text>
</g>
<use x="85.33" y="82.01" xlink:href="#hd"/>
<path d="M81.83 82.01v20.00" stroke="currentColor" fill="none"/>
<path fill="currentColor"
	d="M81.83 102.01c0.6 -5.6 9.6 -9 5.6 -18.4
	c1.6 6 -1.3 11.6 -5.6 12.8
"/>
<use x="122.03" y="91.01" xlink:href="#hd"/>
<path d="M118.53 91.01v20.00" stroke="currentColor" fill="none"/>
<path fill="currentColor"
	d="M171.83 74.21l24.00 -2.50v3.20l-24.00 2.50"/>
<path fill="currentColor"
	d="M172.13 79.21l23.30 -2.40v3.20l-23.30 2.40"/>
<use x="168.63" y="97.01" xlink:href="#hd"/>
<path d="M172.13 97.01v-21.80" stroke="currentColor" fill="none"/>
<use x="192.03" y="94.01" xlink:href="#hd"/>
<path d="M195.53 94.01v-21.20" stroke="currentColor" fill="none"/>
<path fill="currentColor"
	d="M221.03 68.81l37.10 4.60v3.20l-37.10 -4.60"/>
<path fill="currentColor"
	d="M221.43 73.81l36.40 4.50v3.20l-36.40 -4.50"/>
<use x="217.93" y="91.01" xlink:href="#hd"/>
<path d="M221.43 91.01v-21.20" stroke="currentColor" fill="none"/>
<use x="236.13" y="94.01" xlink:href="#hd"/>
<path d="M239.63 94.01v-21.90" stroke="currentColor" fill="none"/>
<use x="254.33" y="97.01" xlink:href="#hd"/>
<path d="M257.83 97.01v-22.70" stroke="currentColor" fill="none"/>
<path fill="currentColor"
	d="M277.73 71.81l37.10 4.60v3.20l-37.10 -4.60"/>
<path fill="currentColor"
	d="M278.03 76.81l36.40 4.50v3.20l-36.40 -4.50"/>
<use x="274.53" y="94.01" xlink:href="#hd"/>
<path d="M278.03 94.01v-21.20" stroke="currentColor" fill="none"/>
<use x="292.73" y="97.01" xlink:href="#hd"/>
<path d="M296.23 97.01v-21.90" stroke="currentColor" fill="none"/>
<use x="310.93" y="100.01" xlink:href="#hd"/>
<path d="M314.43 100.01v-22.70" stroke="currentColor" fill="none"/>
<path fill="currentColor"
	d="M348.63 69.81l47.30 0.00v3.20l-47.30 -0.00"/>
<path fill="currentColor"
	d="M349.03 74.81l46.70 0.00v3.20l-46.70 -0.00"/>
<use x="345.53" y="97.01" xlink:href="#hd"/>
<path d="M349.03 97.01v-26.20" stroke="currentColor" fill="none"/>
<use x="368.83" y="94.01" xlink:href="#hd"/>
<path d="M372.33 94.01v-23.20" stroke="currentColor" fill="none"/>
<use x="392.13" y="97.01" xlink:href="#hd"/>
<path d="M395.63 97.01v-26.20" stroke="currentColor" fill="none"/>
<path fill="currentColor"
	d="M421.23 73.21l47.30 -4.40v3.20l-47.30 4.40"/>
<path fill="currentColor"
	d="M421.53 78.21l46.70 -4.40v3.20l-46.70 4.40"/>
<use x="418.03" y="100.01" xlink:href="#hd"/>
<path d="M421.53 100.01v-25.80" stroke="currentColor" fill="none"/>
<use x="441.43" y="97.01" xlink:href="#hd"/>
<path d="M444.93 97.01v-25.00" stroke="currentColor" fill="none"/>
<use x="464.73" y="91.01" xlink:href="#hd"/>
<path d="M468.23 91.01v-21.20" stroke="currentColor" fill="none"/>
<path fill="currentColor"
	d="M486.83 104.21l24.00 -2.50v-3.20l-24.00 2.50"/>
<path fill="currentColor"
	d="M487.13 99.21l23.30 -2.40v-3.20l-23.30 2.40"/>
<use x="490.63" y="82.01" xlink:href="#hd"/>
<path d="M487.13 82.01v21.20" stroke="currentColor" fill="none"/>
<use x="513.93" y="79.01" xlink:href="#hd"/>
<path d="M510.43 79.01v21.80" stroke="currentColor" fill="none"/>
<path fill="currentColor"
	d="M536.03 99.61l37.10 4.60v-3.20l-37.10 -4.60"/>
<path fill="currentColor"
	d="M536.43 94.71l36.40 4.50v-3.20l-36.40 -4.50"/>
<defs>
<path id="hl" stroke="currentColor" d="m-6 0h12"/>
</defs>
<use x="539.93" y="76.01" xlink:href="#hl"/>
<use x="539.93" y="76.01" xlink:href="#hd"/>
<path d="M536.43 76.01v22.70" stroke="currentColor" fill="none"/>
<use x="558.13" y="79.01" xlink:href="#hd"/>
<path d="M554.63 79.01v21.90" stroke="currentColor" fill="none"/>
<use x="576.33" y="82.01" xlink:href="#hd"/>
<path d="M572.83 82.01v21.20" stroke="currentColor" fill="none"/>
<path fill="currentColor"
	d="M592.73 106.21l37.70 0.00v-3.20l-37.70 -0.00"/>
<path fill="currentColor"
	d="M593.03 101.21l37.00 0.00v-3.20l-37.00 -0.00"/>
<use x="596.53" y="79.01" xlink:href="#hd"/>
<path d="M593.03 79.01v26.20" stroke="currentColor" fill="none"/>
<use x="614.73" y="82.01" xlink:href="#hd"/>
<path d="M611.23 82.01v23.20" stroke="currentColor" fill="none"/>
<use x="633.53" y="82.01" xlink:href="#hd"/>
<defs>
<path id="unat" fill="currentColor" d="
	m96 -750
	h-32
	v716
	l32 -8
	l182 -54
	v282
	h32
	v-706
	l-34 10
	l-180 50
	v-290
	m0 592
	v-190
	l182 -52
	v188"/>
<use id="nt0" transform="translate(-3,5) scale(0.018)"
	xlink:href="#unat"/>
</defs>
<use x="624.53" y="82.01" xlink:href="#nt0"/>
<path d="M630.03 82.01v23.20" stroke="currentColor" fill="none"/>
<use x="669.03" y="82.01" xlink:href="#hd"/>
<use x="660.03" y="82.01" xlink:href="#sh0"/>
<path d="M665.53 82.01v22.00" stroke="currentColor" fill="none"/>
<path fill="currentColor"
	d="M665.53 104.01c0.9 -3.7 9.1 -6.4 6 -12.4
	c1 5.4 -4.2 8.4 -6 8.4
M665.53 98.61c0.9 -3.7 9.1 -6.4 6 -12.4
	c1 5.4 -4.2 8.4 -6 8.4
"/>
</g>
</svg>
