<?xml version="1.0" standalone="no"?>
<!DOCTYPE svg PUBLIC "-//W3C//DTD SVG 1.1//EN"
	"http://www.w3.org/Graphics/SVG/1.1/DTD/svg11.dtd">
<svg xmlns="http://www.w3.org/2000/svg" version="1.1"
	xmlns:xlink="http://www.w3.org/1999/xlink"
	xml:space='preserve' color="black"
	width="7.38in" height="1.34in" viewBox="0 0 531 97">
<title>0487.abc (0487) tune 1</title>
<!-- Creator: abcm2ps-7.8.14 -->
<!-- CreationDate: Mar 13, 2016 18:53 -->
<!-- CommandLine: -qxg 0487.abc -O ../svgs/0487.svg -->
<g transform="scale(0.750)" stroke-width="0.70" font-family="Times" font-size="20.00">
<text x="354.13" y="21.67" text-anchor="middle">0487.  Well-tempered Clavichord, Book II, Fugue No. 22</text>
</g>
<g transform="scale(0.750)" stroke-width="0.70" font-family="Times" font-size="14.00" font-style="italic">
<text x="694.93" y="45.34" text-anchor="end">Johann Sebastian Bach</text>
</g>
<g transform="scale(0.525)" stroke-width="0.70" font-family="Times" font-size="14.00" font-style="italic">
<defs>
<ellipse id="hd" rx="4.1" ry="2.9"
	transform="rotate(-20)" fill="currentColor"/>
</defs>
<use x="139.19" y="94.16" xlink:href="#hd"/>
<path d="M142.69 94.16v-20.00" stroke="currentColor" fill="none"/>
</g>
<g transform="scale(0.750)" stroke-width="0.70" font-family="Times" font-size="15.00" font-weight="bold">
<text x="105.13" y="68.01">= 120</text>
<path stroke="currentColor" fill="none"
	d="M224.23 106.01v-24.00"/>
<path stroke="currentColor" fill="none"
	d="M381.63 106.01v-24.00"/>
<path stroke="currentColor" fill="none"
	d="M616.33 106.01v-24.00"/>
<path stroke="currentColor" fill="none"
	d="M13.33 106.01h681.60m-681.60 -6h681.60m-681.60 -6h681.60m-681.60 -6h681.60m-681.60 -6h681.60"/>
<defs>
<path id="utclef" fill="currentColor" d="m-50 -90
	c-72 -41 -72 -158 52 -188
	c150 -10 220 188 90 256
	c-114 52 -275 0 -293 -136
	c-15 -181 93 -229 220 -334
	c88 -87 79 -133 62 -210
	c-51 33 -94 105 -89 186
	c17 267 36 374 49 574
	c6 96 -19 134 -77 135
	c-80 1 -126 -93 -61 -133
	c85 -41 133 101 31 105
	c23 17 92 37 90 -92
	c-10 -223 -39 -342 -50 -617
	c0 -90 0 -162 96 -232
	c56 72 63 230 22 289
	c-74 106 -257 168 -255 316
	c9 153 148 185 252 133
	c86 -65 29 -192 -80 -176
	c-71 12 -105 67 -59 124"/>
<use id="tclef" transform="scale(0.045)"
	xlink:href="#utclef"/>
</defs>
<use x="25.33" y="106.01" xlink:href="#tclef"/>
<defs>
<path id="uflat" fill="currentColor" d="
	m100 -746
	h32
	v734
	l-32 4
	m32 -332
	c46 -72 152 -90 208 -20
	c100 110 -120 326 -208 348
	m0 -28
	c54 0 200 -206 130 -290
	c-50 -60 -130 -4 -130 34"/>
<use id="ft0" transform="translate(-3.5,3.5) scale(0.018)"
	xlink:href="#uflat"/>
</defs>
<use x="40.33" y="94.01" xlink:href="#ft0"/>
<use x="45.83" y="85.01" xlink:href="#ft0"/>
<use x="51.33" y="97.01" xlink:href="#ft0"/>
<use x="56.83" y="88.01" xlink:href="#ft0"/>
<use x="62.33" y="100.01" xlink:href="#ft0"/>
<g font-family="serif" font-size="16" font-weight="bold" font-style="normal"
	transform="translate(78.33,106.01) scale(1.2,1)">
	<text y="-1" text-anchor="middle">2</text>
	<text y="-13" text-anchor="middle">3</text>
</g>
<defs>
<path id="hl" stroke="currentColor" d="m-6 0h12"/>
</defs>
<use x="96.83" y="112.01" xlink:href="#hl"/>
<defs>
<path id="Hd" fill="currentColor" d="m3 -1.6
	c-1 -1.8 -7 1.4 -6 3.2
	c1 1.8 7 -1.4 6 -3.2
	m0.5 -0.3
	c2 3.8 -5 7.6 -7 3.8
	c-2 -3.8 5 -7.6 7 -3.8"/>
</defs>
<use x="96.83" y="115.01" xlink:href="#Hd"/>
<path d="M100.33 115.01v-21.00" stroke="currentColor" fill="none"/>
<use x="136.53" y="112.01" xlink:href="#hl"/>
<use x="136.53" y="112.01" xlink:href="#Hd"/>
<path d="M140.03 112.01v-20.00" stroke="currentColor" fill="none"/>
<defs>
<path id="r4" fill="currentColor" d="m-1 -8.5
	l3.6 5.1 -2.1 5.2 2.2 4.3
	c-2.6 -2.3 -5.1 0 -2.4 2.6
	c-4.8 -3 -1.5 -6.9 1.4 -4.1
	l-3.1 -4.5 1.9 -5.1 -1.5 -3.5"/>
</defs>
<use x="176.13" y="94.01" xlink:href="#r4"/>
<use x="201.53" y="109.01" xlink:href="#hd"/>
<path d="M205.03 109.01v-20.00" stroke="currentColor" fill="none"/>
<use x="236.73" y="106.01" xlink:href="#hd"/>
<path d="M240.23 106.01v-20.00" stroke="currentColor" fill="none"/>
<use x="265.63" y="112.01" xlink:href="#hl"/>
<use x="265.63" y="118.01" xlink:href="#hl"/>
<use x="265.63" y="118.01" xlink:href="#hd"/>
<defs>
<path id="unat" fill="currentColor" d="
	m96 -750
	h-32
	v716
	l32 -8
	l182 -54
	v282
	h32
	v-706
	l-34 10
	l-180 50
	v-290
	m0 592
	v-190
	l182 -52
	v188"/>
<use id="nt0" transform="translate(-3,5) scale(0.018)"
	xlink:href="#unat"/>
</defs>
<use x="256.63" y="118.01" xlink:href="#nt0"/>
<path d="M269.13 118.01v-24.00" stroke="currentColor" fill="none"/>
<use x="293.93" y="112.01" xlink:href="#hl"/>
<use x="293.93" y="115.01" xlink:href="#Hd"/>
<path d="M297.43 115.01v-21.00" stroke="currentColor" fill="none"/>
<use x="333.53" y="94.01" xlink:href="#r4"/>
<use x="358.93" y="112.01" xlink:href="#hl"/>
<use x="358.93" y="112.01" xlink:href="#hd"/>
<path d="M362.43 112.01v-20.00" stroke="currentColor" fill="none"/>
<path fill="currentColor"
	d="M397.23 91.01l37.20 0.00v3.20l-37.20 -0.00"/>
<use x="394.13" y="109.01" xlink:href="#hd"/>
<path d="M397.63 109.01v-17.00" stroke="currentColor" fill="none"/>
<use x="412.33" y="112.01" xlink:href="#hl"/>
<use x="412.33" y="115.01" xlink:href="#hd"/>
<path d="M415.83 115.01v-23.00" stroke="currentColor" fill="none"/>
<use x="430.53" y="112.01" xlink:href="#hl"/>
<use x="430.53" y="112.01" xlink:href="#hd"/>
<path d="M434.03 112.01v-20.00" stroke="currentColor" fill="none"/>
<path fill="currentColor"
	d="M453.83 87.81l37.00 0.00v3.20l-37.00 -0.00"/>
<use x="450.73" y="109.01" xlink:href="#hd"/>
<path d="M454.23 109.01v-20.20" stroke="currentColor" fill="none"/>
<use x="468.93" y="106.01" xlink:href="#hd"/>
<path d="M472.43 106.01v-17.20" stroke="currentColor" fill="none"/>
<use x="487.03" y="112.01" xlink:href="#hl"/>
<use x="487.03" y="112.01" xlink:href="#hd"/>
<path d="M490.53 112.01v-23.20" stroke="currentColor" fill="none"/>
<path fill="currentColor"
	d="M510.33 88.31l37.00 -4.60v3.20l-37.00 4.60"/>
<use x="507.23" y="109.01" xlink:href="#hd"/>
<path d="M510.73 109.01v-19.70" stroke="currentColor" fill="none"/>
<use x="525.33" y="106.01" xlink:href="#hd"/>
<path d="M528.83 106.01v-19.00" stroke="currentColor" fill="none"/>
<use x="543.53" y="103.01" xlink:href="#hd"/>
<path d="M547.03 103.01v-18.30" stroke="currentColor" fill="none"/>
<path fill="currentColor"
	d="M566.83 88.31l37.00 -4.60v3.20l-37.00 4.60"/>
<use x="563.63" y="109.01" xlink:href="#hd"/>
<path d="M567.13 109.01v-19.70" stroke="currentColor" fill="none"/>
<use x="581.83" y="106.01" xlink:href="#hd"/>
<path d="M585.33 106.01v-19.00" stroke="currentColor" fill="none"/>
<use x="600.03" y="103.01" xlink:href="#hd"/>
<path d="M603.53 103.01v-18.30" stroke="currentColor" fill="none"/>
<path fill="currentColor"
	d="M631.93 80.71l18.90 3.70v3.20l-18.90 -3.70"/>
<use x="628.83" y="100.01" xlink:href="#hd"/>
<path d="M632.33 100.01v-18.20" stroke="currentColor" fill="none"/>
<use x="647.03" y="106.01" xlink:href="#hd"/>
<path d="M650.53 106.01v-20.60" stroke="currentColor" fill="none"/>
<use x="667.13" y="103.01" xlink:href="#hd"/>
<path d="M670.63 103.01v-20.00" stroke="currentColor" fill="none"/>
</g>
</svg>
