<?xml version="1.0" standalone="no"?>
<!DOCTYPE svg PUBLIC "-//W3C//DTD SVG 1.1//EN"
	"http://www.w3.org/Graphics/SVG/1.1/DTD/svg11.dtd">
<svg xmlns="http://www.w3.org/2000/svg" version="1.1"
	xmlns:xlink="http://www.w3.org/1999/xlink"
	xml:space='preserve' color="black"
	width="7.38in" height="1.34in" viewBox="0 0 531 97">
<title>0489.abc (0489) tune 1</title>
<!-- Creator: abcm2ps-7.8.14 -->
<!-- CreationDate: Mar 13, 2016 18:53 -->
<!-- CommandLine: -qxg 0489.abc -O ../svgs/0489.svg -->
<g transform="scale(0.750)" stroke-width="0.70" font-family="Times" font-size="20.00">
<text x="354.13" y="21.67" text-anchor="middle">0489.  Well-tempered Clavichord, Book II, Fugue No. 23</text>
</g>
<g transform="scale(0.750)" stroke-width="0.70" font-family="Times" font-size="14.00" font-style="italic">
<text x="694.93" y="45.34" text-anchor="end">Johann Sebastian Bach</text>
</g>
<g transform="scale(0.525)" stroke-width="0.70" font-family="Times" font-size="14.00" font-style="italic">
<defs>
<ellipse id="hd" rx="4.1" ry="2.9"
	transform="rotate(-20)" fill="currentColor"/>
</defs>
<use x="139.19" y="94.16" xlink:href="#hd"/>
<path d="M142.69 94.16v-20.00" stroke="currentColor" fill="none"/>
</g>
<g transform="scale(0.750)" stroke-width="0.70" font-family="Times" font-size="15.00" font-weight="bold">
<text x="105.13" y="68.01">= 120</text>
<path stroke="currentColor" fill="none"
	d="M205.83 106.01v-24.00"/>
<path stroke="currentColor" fill="none"
	d="M329.93 106.01v-24.00"/>
<path stroke="currentColor" fill="none"
	d="M454.03 106.01v-24.00"/>
<path stroke="currentColor" fill="none"
	d="M649.53 106.01v-24.00"/>
<path stroke="currentColor" fill="none"
	d="M13.33 106.01h681.60m-681.60 -6h681.60m-681.60 -6h681.60m-681.60 -6h681.60m-681.60 -6h681.60"/>
<defs>
<path id="ubclef" fill="currentColor" d="m-200 -87
	c124 -35 222 -78 254 -236
	c43 -228 -167 -246 -192 -103
	c59 -80 157 22 92 78
	c-62 47 -115 -22 -106 -88
	c21 -141 270 -136 274 52
	c-1 175 -106 264 -322 297
	m357 -250
	c0 -36 51 -34 51 0
	c0 37 -51 36 -51 0
	m-2 -129
	c0 -36 51 -34 51 0
	c0 38 -51 37 -51 0"/>
<use id="bclef" transform="scale(0.045)"
	xlink:href="#ubclef"/>
</defs>
<use x="25.33" y="106.01" xlink:href="#bclef"/>
<defs>
<path id="usharp" fill="currentColor" d="
	m136 -702
	v890
	h32
	v-890
	m128 840
	h32
	v-888
	h-32
	m-232 286
	v116
	l338 -96
	v-116
	m-338 442
	v116
	l338 -98
	v-114"/>
<use id="sh0" transform="translate(-4,5) scale(0.018)"
	xlink:href="#usharp"/>
</defs>
<use x="40.33" y="88.01" xlink:href="#sh0"/>
<use x="45.83" y="97.01" xlink:href="#sh0"/>
<use x="51.33" y="85.01" xlink:href="#sh0"/>
<use x="56.83" y="94.01" xlink:href="#sh0"/>
<use x="62.33" y="103.01" xlink:href="#sh0"/>
<g font-family="serif" font-size="16" font-weight="bold" font-style="normal"
	transform="translate(78.33,106.01) scale(1.2,1)">
	<text y="-1" text-anchor="middle">4</text>
	<text y="-13" text-anchor="middle">4</text>
</g>
<defs>
<path id="Hd" fill="currentColor" d="m3 -1.6
	c-1 -1.8 -7 1.4 -6 3.2
	c1 1.8 7 -1.4 6 -3.2
	m0.5 -0.3
	c2 3.8 -5 7.6 -7 3.8
	c-2 -3.8 5 -7.6 7 -3.8"/>
</defs>
<use x="96.83" y="100.01" xlink:href="#Hd"/>
<path d="M100.33 100.01v-20.00" stroke="currentColor" fill="none"/>
<use x="157.33" y="94.01" xlink:href="#Hd"/>
<path d="M160.83 94.01v-20.00" stroke="currentColor" fill="none"/>
<use x="220.93" y="85.01" xlink:href="#Hd"/>
<path d="M217.43 85.01v20.00" stroke="currentColor" fill="none"/>
<use x="281.53" y="91.01" xlink:href="#Hd"/>
<path d="M278.03 91.01v20.00" stroke="currentColor" fill="none"/>
<use x="345.03" y="97.01" xlink:href="#Hd"/>
<path d="M348.53 97.01v-20.00" stroke="currentColor" fill="none"/>
<use x="405.63" y="82.01" xlink:href="#Hd"/>
<path d="M402.13 82.01v20.00" stroke="currentColor" fill="none"/>
<use x="469.13" y="79.01" xlink:href="#hd"/>
<path d="M465.63 79.01v20.00" stroke="currentColor" fill="none"/>
<use x="511.93" y="82.01" xlink:href="#hd"/>
<path d="M508.43 82.01v20.00" stroke="currentColor" fill="none"/>
<path fill="currentColor"
	d="M508.43 102.01c0.6 -5.6 9.6 -9 5.6 -18.4
	c1.6 6 -1.3 11.6 -5.6 12.8
"/>
<use x="542.23" y="85.01" xlink:href="#hd"/>
<path d="M538.73 85.01v20.00" stroke="currentColor" fill="none"/>
<path fill="currentColor"
	d="M538.73 105.01c0.6 -5.6 9.6 -9 5.6 -18.4
	c1.6 6 -1.3 11.6 -5.6 12.8
"/>
<use x="572.53" y="88.01" xlink:href="#hd"/>
<path d="M569.03 88.01v20.00" stroke="currentColor" fill="none"/>
<use x="615.33" y="91.01" xlink:href="#hd"/>
<path d="M611.83 91.01v20.00" stroke="currentColor" fill="none"/>
<use x="664.63" y="94.01" xlink:href="#hd"/>
<path d="M661.13 94.01v20.00" stroke="currentColor" fill="none"/>
<path fill="currentColor"
	d="M661.13 114.01c0.6 -5.6 9.6 -9 5.6 -18.4
	c1.6 6 -1.3 11.6 -5.6 12.8
"/>
</g>
</svg>
