<?xml version="1.0" standalone="no"?>
<!DOCTYPE svg PUBLIC "-//W3C//DTD SVG 1.1//EN"
	"http://www.w3.org/Graphics/SVG/1.1/DTD/svg11.dtd">
<svg xmlns="http://www.w3.org/2000/svg" version="1.1"
	xmlns:xlink="http://www.w3.org/1999/xlink"
	xml:space='preserve' color="black"
	width="7.38in" height="1.34in" viewBox="0 0 531 97">
<title>0529.abc (0529) tune 1</title>
<!-- Creator: abcm2ps-7.8.14 -->
<!-- CreationDate: Mar 13, 2016 18:53 -->
<!-- CommandLine: -qxg 0529.abc -O ../svgs/0529.svg -->
<g transform="scale(0.750)" stroke-width="0.70" font-family="Times" font-size="20.00">
<text x="354.13" y="21.67" text-anchor="middle">0529.  Islamey, 2nd. Theme A</text>
</g>
<g transform="scale(0.750)" stroke-width="0.70" font-family="Times" font-size="14.00" font-style="italic">
<text x="694.93" y="45.34" text-anchor="end">Mily Balakireff</text>
</g>
<g transform="scale(0.525)" stroke-width="0.70" font-family="Times" font-size="14.00" font-style="italic">
<defs>
<ellipse id="hd" rx="4.1" ry="2.9"
	transform="rotate(-20)" fill="currentColor"/>
</defs>
<use x="114.90" y="94.16" xlink:href="#hd"/>
<path d="M118.40 94.16v-20.00" stroke="currentColor" fill="none"/>
</g>
<g transform="scale(0.750)" stroke-width="0.70" font-family="Times" font-size="15.00" font-weight="bold">
<text x="88.13" y="68.01">= 120</text>
<path stroke="currentColor" fill="none"
	d="M187.53 106.01v-24.00"/>
<path stroke="currentColor" fill="none"
	d="M302.43 106.01v-24.00"/>
<path stroke="currentColor" fill="none"
	d="M450.43 106.01v-24.00"/>
<path stroke="currentColor" fill="none"
	d="M571.73 106.01v-24.00"/>
<path stroke="currentColor" fill="none"
	d="M694.93 106.01v-24.00"/>
<path stroke="currentColor" fill="none"
	d="M13.33 106.01h681.60m-681.60 -6h681.60m-681.60 -6h681.60m-681.60 -6h681.60m-681.60 -6h681.60"/>
<defs>
<path id="utclef" fill="currentColor" d="m-50 -90
	c-72 -41 -72 -158 52 -188
	c150 -10 220 188 90 256
	c-114 52 -275 0 -293 -136
	c-15 -181 93 -229 220 -334
	c88 -87 79 -133 62 -210
	c-51 33 -94 105 -89 186
	c17 267 36 374 49 574
	c6 96 -19 134 -77 135
	c-80 1 -126 -93 -61 -133
	c85 -41 133 101 31 105
	c23 17 92 37 90 -92
	c-10 -223 -39 -342 -50 -617
	c0 -90 0 -162 96 -232
	c56 72 63 230 22 289
	c-74 106 -257 168 -255 316
	c9 153 148 185 252 133
	c86 -65 29 -192 -80 -176
	c-71 12 -105 67 -59 124"/>
<use id="tclef" transform="scale(0.045)"
	xlink:href="#utclef"/>
</defs>
<use x="25.33" y="106.01" xlink:href="#tclef"/>
<defs>
<path id="usharp" fill="currentColor" d="
	m136 -702
	v890
	h32
	v-890
	m128 840
	h32
	v-888
	h-32
	m-232 286
	v116
	l338 -96
	v-116
	m-338 442
	v116
	l338 -98
	v-114"/>
<use id="sh0" transform="translate(-4,5) scale(0.018)"
	xlink:href="#usharp"/>
</defs>
<use x="40.33" y="82.01" xlink:href="#sh0"/>
<use x="45.83" y="91.01" xlink:href="#sh0"/>
<g font-family="serif" font-size="16" font-weight="bold" font-style="normal"
	transform="translate(61.83,106.01) scale(1.2,1)">
	<text y="-1" text-anchor="middle">8</text>
	<text y="-13" text-anchor="middle">6</text>
</g>
<defs>
<path id="r4" fill="currentColor" d="m-1 -8.5
	l3.6 5.1 -2.1 5.2 2.2 4.3
	c-2.6 -2.3 -5.1 0 -2.4 2.6
	c-4.8 -3 -1.5 -6.9 1.4 -4.1
	l-3.1 -4.5 1.9 -5.1 -1.5 -3.5"/>
</defs>
<use x="79.83" y="94.01" xlink:href="#r4"/>
<use x="107.63" y="103.01" xlink:href="#hd"/>
<path d="M111.13 103.01v-20.00" stroke="currentColor" fill="none"/>
<path fill="currentColor"
	d="	M111.13 83.01c0.6 5.6 9.6 9 5.6 18.4
	c1.6 -6 -1.3 -11.6 -5.6 -12.8
"/>
<path fill="currentColor"
	d="M133.23 85.01l40.40 0.00v3.20l-40.40 -0.00"/>
<use x="130.13" y="106.01" xlink:href="#hd"/>
<path d="M133.63 106.01v-20.00" stroke="currentColor" fill="none"/>
<use x="149.93" y="103.01" xlink:href="#hd"/>
<path d="M153.43 103.01v-17.00" stroke="currentColor" fill="none"/>
<use x="169.83" y="109.01" xlink:href="#hd"/>
<path d="M173.33 109.01v-23.00" stroke="currentColor" fill="none"/>
<use x="200.03" y="109.01" xlink:href="#hd"/>
<path d="M203.53 109.01v-20.00" stroke="currentColor" fill="none"/>
<use x="230.93" y="97.01" xlink:href="#hd"/>
<path d="M234.43 97.01v-20.00" stroke="currentColor" fill="none"/>
<path fill="currentColor"
	d="	M234.43 77.01c0.6 5.6 9.6 9 5.6 18.4
	c1.6 -6 -1.3 -11.6 -5.6 -12.8
"/>
<use x="253.33" y="97.01" xlink:href="#hd"/>
<path d="M256.83 97.01v-20.00" stroke="currentColor" fill="none"/>
<use x="284.23" y="94.01" xlink:href="#hd"/>
<path d="M287.73 94.01v-20.00" stroke="currentColor" fill="none"/>
<path fill="currentColor"
	d="	M287.73 74.01c0.6 5.6 9.6 9 5.6 18.4
	c1.6 -6 -1.3 -11.6 -5.6 -12.8
"/>
<defs>
<path id="r8e" fill="currentColor" d="m 0 0
	c-1.5 1.5 -2.4 2 -3.6 2
	c2.4 -2.8 -2.8 -4 -2.8 -1.2
	c0 2.7 4.3 2.4 5.9 0.6"/>
<g id="r32">
	<path d="m4.8 -10l-5.5 21.6" stroke="currentColor" fill="none"/>
	<use x="4.9" y="-10" xlink:href="#r8e"/>
	<use x="3.4" y="-4" xlink:href="#r8e"/>
	<use x="1.9" y="2" xlink:href="#r8e"/>
</g>
</defs>
<use x="314.93" y="94.01" xlink:href="#r32"/>
<path fill="currentColor"
	d="M328.23 69.81l21.10 0.00v3.20l-21.10 -0.00"/>
<path fill="currentColor"
	d="M343.03 74.81l6.00 0.00v3.20l-6.00 -0.00"/>
<path fill="currentColor"
	d="M343.03 79.81l6.00 0.00v3.20l-6.00 -0.00"/>
<use x="325.13" y="97.01" xlink:href="#hd"/>
<path d="M328.63 97.01v-26.20" stroke="currentColor" fill="none"/>
<use x="345.53" y="97.01" xlink:href="#hd"/>
<path d="M349.03 97.01v-26.20" stroke="currentColor" fill="none"/>
<path fill="currentColor"
	d="M359.93 77.71l14.90 2.20v3.20l-14.90 -2.20"/>
<path fill="currentColor"
	d="M366.33 83.71l-6.00 -0.90v3.20l6.00 0.90"/>
<use x="356.83" y="100.01" xlink:href="#hd"/>
<path d="M360.33 100.01v-21.20" stroke="currentColor" fill="none"/>
<use x="370.93" y="103.01" xlink:href="#hd"/>
<path d="M374.43 103.01v-22.10" stroke="currentColor" fill="none"/>
<path fill="currentColor"
	d="M396.13 85.01l40.40 0.00v3.20l-40.40 -0.00"/>
<use x="392.93" y="106.01" xlink:href="#hd"/>
<path d="M396.43 106.01v-20.00" stroke="currentColor" fill="none"/>
<use x="412.83" y="103.01" xlink:href="#hd"/>
<path d="M416.33 103.01v-17.00" stroke="currentColor" fill="none"/>
<use x="432.63" y="109.01" xlink:href="#hd"/>
<path d="M436.13 109.01v-23.00" stroke="currentColor" fill="none"/>
<path fill="currentColor"
	d="M466.03 82.81l38.40 -4.60v3.20l-38.40 4.60"/>
<use x="462.93" y="109.01" xlink:href="#hd"/>
<path d="M466.43 109.01v-25.20" stroke="currentColor" fill="none"/>
<defs>
<g id="r8">
	<path d="m3.3 -4l-3.4 9.6" stroke="currentColor" fill="none"/>
	<use x="3.4" y="-4" xlink:href="#r8e"/>
</g>
</defs>
<use x="482.73" y="94.01" xlink:href="#r8"/>
<use x="500.63" y="103.01" xlink:href="#hd"/>
<path d="M504.13 103.01v-23.80" stroke="currentColor" fill="none"/>
<use x="522.63" y="103.01" xlink:href="#hd"/>
<path d="M526.13 103.01v-20.00" stroke="currentColor" fill="none"/>
<use x="553.53" y="106.01" xlink:href="#hd"/>
<path d="M557.03 106.01v-20.00" stroke="currentColor" fill="none"/>
<path fill="currentColor"
	d="	M557.03 86.01c0.6 5.6 9.6 9 5.6 18.4
	c1.6 -6 -1.3 -11.6 -5.6 -12.8
"/>
<use x="584.23" y="106.01" xlink:href="#hd"/>
<path d="M587.73 106.01v-20.00" stroke="currentColor" fill="none"/>
<defs>
<path id="hl" stroke="currentColor" d="m-6 0h12"/>
</defs>
<use x="615.03" y="112.01" xlink:href="#hl"/>
<use x="615.03" y="112.01" xlink:href="#hd"/>
<path d="M618.53 112.01v-20.00" stroke="currentColor" fill="none"/>
<path fill="currentColor"
	d="	M618.53 92.01c0.6 5.6 9.6 9 5.6 18.4
	c1.6 -6 -1.3 -11.6 -5.6 -12.8
"/>
<use x="637.53" y="109.01" xlink:href="#hd"/>
<circle fill="currentColor" cx="645.53" cy="109.01" r="1.2"/>
<path d="M641.03 109.01v-20.00" stroke="currentColor" fill="none"/>
<path fill="currentColor"
	d="	M641.03 89.01c0.6 5.6 9.6 9 5.6 18.4
	c1.6 -6 -1.3 -11.6 -5.6 -12.8
"/>
<path fill="currentColor"
	d="M666.03 89.71l15.00 2.20v3.20l-15.00 -2.20"/>
<path fill="currentColor"
	d="M672.43 95.71l-6.00 -0.90v3.20l6.00 0.90"/>
<use x="662.93" y="112.01" xlink:href="#hl"/>
<use x="662.93" y="112.01" xlink:href="#hd"/>
<path d="M666.43 112.01v-21.20" stroke="currentColor" fill="none"/>
<use x="677.23" y="112.01" xlink:href="#hl"/>
<use x="677.23" y="115.01" xlink:href="#hd"/>
<path d="M680.73 115.01v-22.10" stroke="currentColor" fill="none"/>
<path fill="currentColor"
	d="M173.33 111.01c3.66 4.92 19.57 4.92 23.23 -0.00
	l0.00 0.22c-4.36 6.69 -18.88 6.69 -23.23 -0.22"/>
<path fill="currentColor"
	d="M328.63 99.01c2.11 4.74 11.31 4.74 13.43 -0.00
	l0.00 0.21c-2.52 6.53 -10.91 6.53 -13.43 -0.21"/>
<path fill="currentColor"
	d="M436.13 111.01c3.66 4.92 19.57 4.92 23.23 -0.00
	l0.00 0.22c-4.36 6.69 -18.88 6.69 -23.23 -0.22"/>
</g>
</svg>
