<?xml version="1.0" standalone="no"?>
<!DOCTYPE svg PUBLIC "-//W3C//DTD SVG 1.1//EN"
	"http://www.w3.org/Graphics/SVG/1.1/DTD/svg11.dtd">
<svg xmlns="http://www.w3.org/2000/svg" version="1.1"
	xmlns:xlink="http://www.w3.org/1999/xlink"
	xml:space='preserve' color="black"
	width="7.38in" height="1.34in" viewBox="0 0 531 97">
<title>0531.abc (0531) tune 1</title>
<!-- Creator: abcm2ps-7.8.14 -->
<!-- CreationDate: Mar 13, 2016 18:53 -->
<!-- CommandLine: -qxg 0531.abc -O ../svgs/0531.svg -->
<g transform="scale(0.750)" stroke-width="0.70" font-family="Times" font-size="20.00">
<text x="354.13" y="21.67" text-anchor="middle">0531.  Russia (Symphonic Poem), 1st. Theme</text>
</g>
<g transform="scale(0.750)" stroke-width="0.70" font-family="Times" font-size="14.00" font-style="italic">
<text x="694.93" y="45.34" text-anchor="end">Mily Balakireff</text>
</g>
<g transform="scale(0.525)" stroke-width="0.70" font-family="Times" font-size="14.00" font-style="italic">
<defs>
<ellipse id="hd" rx="4.1" ry="2.9"
	transform="rotate(-20)" fill="currentColor"/>
</defs>
<use x="138.47" y="94.16" xlink:href="#hd"/>
<path d="M141.97 94.16v-20.00" stroke="currentColor" fill="none"/>
</g>
<g transform="scale(0.750)" stroke-width="0.70" font-family="Times" font-size="15.00" font-weight="bold">
<text x="104.63" y="68.01">= 120</text>
<path stroke="currentColor" fill="none"
	d="M213.03 106.01v-24.00"/>
<path stroke="currentColor" fill="none"
	d="M314.03 106.01v-24.00"/>
<path stroke="currentColor" fill="none"
	d="M449.43 106.01v-24.00"/>
<path stroke="currentColor" fill="none"
	d="M554.83 106.01v-24.00"/>
<path stroke="currentColor" fill="none"
	d="M694.93 106.01v-24.00"/>
<path stroke="currentColor" fill="none"
	d="M13.33 106.01h681.60m-681.60 -6h681.60m-681.60 -6h681.60m-681.60 -6h681.60m-681.60 -6h681.60"/>
<defs>
<path id="utclef" fill="currentColor" d="m-50 -90
	c-72 -41 -72 -158 52 -188
	c150 -10 220 188 90 256
	c-114 52 -275 0 -293 -136
	c-15 -181 93 -229 220 -334
	c88 -87 79 -133 62 -210
	c-51 33 -94 105 -89 186
	c17 267 36 374 49 574
	c6 96 -19 134 -77 135
	c-80 1 -126 -93 -61 -133
	c85 -41 133 101 31 105
	c23 17 92 37 90 -92
	c-10 -223 -39 -342 -50 -617
	c0 -90 0 -162 96 -232
	c56 72 63 230 22 289
	c-74 106 -257 168 -255 316
	c9 153 148 185 252 133
	c86 -65 29 -192 -80 -176
	c-71 12 -105 67 -59 124"/>
<use id="tclef" transform="scale(0.045)"
	xlink:href="#utclef"/>
</defs>
<use x="25.33" y="106.01" xlink:href="#tclef"/>
<defs>
<path id="uflat" fill="currentColor" d="
	m100 -746
	h32
	v734
	l-32 4
	m32 -332
	c46 -72 152 -90 208 -20
	c100 110 -120 326 -208 348
	m0 -28
	c54 0 200 -206 130 -290
	c-50 -60 -130 -4 -130 34"/>
<use id="ft0" transform="translate(-3.5,3.5) scale(0.018)"
	xlink:href="#uflat"/>
</defs>
<use x="40.33" y="94.01" xlink:href="#ft0"/>
<use x="45.83" y="85.01" xlink:href="#ft0"/>
<use x="51.33" y="97.01" xlink:href="#ft0"/>
<use x="56.83" y="88.01" xlink:href="#ft0"/>
<use x="62.33" y="100.01" xlink:href="#ft0"/>
<g font-family="serif" font-size="16" font-weight="bold" font-style="normal"
	transform="translate(78.33,106.01) scale(1.2,1)">
	<text y="-1" text-anchor="middle">4</text>
	<text y="-13" text-anchor="middle">3</text>
</g>
<path fill="currentColor"
	d="M99.53 93.81l43.30 0.00v3.20l-43.30 -0.00"/>
<defs>
<path id="hl" stroke="currentColor" d="m-6 0h12"/>
</defs>
<use x="96.33" y="112.01" xlink:href="#hl"/>
<use x="96.33" y="115.01" xlink:href="#hd"/>
<path d="M99.83 115.01v-20.20" stroke="currentColor" fill="none"/>
<use x="117.63" y="112.01" xlink:href="#hl"/>
<use x="117.63" y="118.01" xlink:href="#hl"/>
<use x="117.63" y="118.01" xlink:href="#hd"/>
<path d="M121.13 118.01v-23.20" stroke="currentColor" fill="none"/>
<use x="138.93" y="112.01" xlink:href="#hl"/>
<use x="138.93" y="115.01" xlink:href="#hd"/>
<path d="M142.43 115.01v-20.20" stroke="currentColor" fill="none"/>
<use x="162.53" y="109.01" xlink:href="#hd"/>
<path d="M166.03 109.01v-20.00" stroke="currentColor" fill="none"/>
<path fill="currentColor"
	d="	M166.03 89.01c0.6 5.6 9.6 9 5.6 18.4
	c1.6 -6 -1.3 -11.6 -5.6 -12.8
"/>
<use x="186.43" y="106.01" xlink:href="#hd"/>
<path d="M189.93 106.01v-20.00" stroke="currentColor" fill="none"/>
<use x="225.53" y="109.01" xlink:href="#hd"/>
<circle fill="currentColor" cx="233.53" cy="109.01" r="1.2"/>
<path d="M229.03 109.01v-20.00" stroke="currentColor" fill="none"/>
<use x="263.53" y="112.01" xlink:href="#hl"/>
<use x="263.53" y="115.01" xlink:href="#hd"/>
<path d="M267.03 115.01v-21.00" stroke="currentColor" fill="none"/>
<path fill="currentColor"
	d="	M267.03 94.01c0.6 5.6 9.6 9 5.6 18.4
	c1.6 -6 -1.3 -11.6 -5.6 -12.8
"/>
<use x="287.43" y="106.01" xlink:href="#hd"/>
<path d="M290.93 106.01v-20.00" stroke="currentColor" fill="none"/>
<path fill="currentColor"
	d="M329.63 89.71l21.90 3.50v3.20l-21.90 -3.50"/>
<use x="326.53" y="109.01" xlink:href="#hd"/>
<path d="M330.03 109.01v-18.20" stroke="currentColor" fill="none"/>
<use x="347.73" y="112.01" xlink:href="#hl"/>
<use x="347.73" y="115.01" xlink:href="#hd"/>
<path d="M351.23 115.01v-20.80" stroke="currentColor" fill="none"/>
<use x="371.33" y="106.01" xlink:href="#hd"/>
<path d="M374.83 106.01v-20.00" stroke="currentColor" fill="none"/>
<path fill="currentColor"
	d="M407.63 81.01l35.90 0.00v3.20l-35.90 -0.00"/>
<path fill="currentColor"
	d="M432.43 86.01l10.80 0.00v3.20l-10.80 -0.00"/>
<path fill="currentColor"
	d="M432.43 91.01l10.80 0.00v3.20l-10.80 -0.00"/>
<use x="404.43" y="109.01" xlink:href="#hd"/>
<circle fill="currentColor" cx="412.43" cy="109.01" r="1.2"/>
<path d="M407.93 109.01v-27.00" stroke="currentColor" fill="none"/>
<use x="428.93" y="106.01" xlink:href="#hd"/>
<path d="M432.43 106.01v-24.00" stroke="currentColor" fill="none"/>
<use x="439.73" y="109.01" xlink:href="#hd"/>
<path d="M443.23 109.01v-27.00" stroke="currentColor" fill="none"/>
<use x="461.93" y="112.01" xlink:href="#hl"/>
<use x="461.93" y="115.01" xlink:href="#hd"/>
<path d="M465.43 115.01v-21.00" stroke="currentColor" fill="none"/>
<use x="495.13" y="112.01" xlink:href="#hl"/>
<use x="495.13" y="118.01" xlink:href="#hl"/>
<use x="495.13" y="118.01" xlink:href="#hd"/>
<path d="M498.63 118.01v-24.00" stroke="currentColor" fill="none"/>
<use x="528.23" y="106.01" xlink:href="#hd"/>
<path d="M531.73 106.01v-20.00" stroke="currentColor" fill="none"/>
<path fill="currentColor"
	d="M570.53 89.61l43.20 4.10v3.20l-43.20 -4.10"/>
<use x="567.33" y="109.01" xlink:href="#hd"/>
<path d="M570.83 109.01v-18.40" stroke="currentColor" fill="none"/>
<use x="588.63" y="112.01" xlink:href="#hl"/>
<use x="588.63" y="112.01" xlink:href="#hd"/>
<path d="M592.13 112.01v-19.30" stroke="currentColor" fill="none"/>
<use x="609.93" y="112.01" xlink:href="#hl"/>
<use x="609.93" y="115.01" xlink:href="#hd"/>
<path d="M613.43 115.01v-20.30" stroke="currentColor" fill="none"/>
<path fill="currentColor"
	d="M636.63 87.81l43.20 0.00v3.20l-43.20 -0.00"/>
<use x="633.53" y="109.01" xlink:href="#hd"/>
<path d="M637.03 109.01v-20.20" stroke="currentColor" fill="none"/>
<use x="654.73" y="112.01" xlink:href="#hl"/>
<use x="654.73" y="112.01" xlink:href="#hd"/>
<path d="M658.23 112.01v-23.20" stroke="currentColor" fill="none"/>
<use x="676.03" y="106.01" xlink:href="#hd"/>
<path d="M679.53 106.01v-17.20" stroke="currentColor" fill="none"/>
</g>
</svg>
