<?xml version="1.0" standalone="no"?>
<!DOCTYPE svg PUBLIC "-//W3C//DTD SVG 1.1//EN"
	"http://www.w3.org/Graphics/SVG/1.1/DTD/svg11.dtd">
<svg xmlns="http://www.w3.org/2000/svg" version="1.1"
	xmlns:xlink="http://www.w3.org/1999/xlink"
	xml:space='preserve' color="black"
	width="7.38in" height="1.34in" viewBox="0 0 531 97">
<title>0577.abc (0577) tune 1</title>
<!-- Creator: abcm2ps-7.8.14 -->
<!-- CreationDate: Mar 13, 2016 18:53 -->
<!-- CommandLine: -qxg 0577.abc -O ../svgs/0577.svg -->
<g transform="scale(0.750)" stroke-width="0.70" font-family="Times" font-size="20.00">
<text x="354.13" y="21.67" text-anchor="middle">0577.  Hungarian Folk Songs, Vn. and Pft., 2nd. Mvt. - 1st. Theme</text>
</g>
<g transform="scale(0.750)" stroke-width="0.70" font-family="Times" font-size="14.00" font-style="italic">
<text x="694.93" y="45.34" text-anchor="end">Bela Bartok</text>
</g>
<g transform="scale(0.525)" stroke-width="0.70" font-family="Times" font-size="14.00" font-style="italic">
<defs>
<ellipse id="hd" rx="4.1" ry="2.9"
	transform="rotate(-20)" fill="currentColor"/>
</defs>
<use x="130.61" y="94.16" xlink:href="#hd"/>
<path d="M134.11 94.16v-20.00" stroke="currentColor" fill="none"/>
</g>
<g transform="scale(0.750)" stroke-width="0.70" font-family="Times" font-size="15.00" font-weight="bold">
<text x="99.13" y="68.01">= 120</text>
<path stroke="currentColor" fill="none"
	d="M203.73 106.01v-24.00"/>
<path stroke="currentColor" fill="none"
	d="M305.73 106.01v-24.00"/>
<path stroke="currentColor" fill="none"
	d="M386.73 106.01v-24.00"/>
<path stroke="currentColor" fill="none"
	d="M513.03 106.01v-24.00"/>
<path stroke="currentColor" fill="none"
	d="M613.93 106.01v-24.00"/>
<path stroke="currentColor" fill="none"
	d="M694.93 106.01v-24.00"/>
<path stroke="currentColor" fill="none"
	d="M13.33 106.01h681.60m-681.60 -6h681.60m-681.60 -6h681.60m-681.60 -6h681.60m-681.60 -6h681.60"/>
<defs>
<path id="utclef" fill="currentColor" d="m-50 -90
	c-72 -41 -72 -158 52 -188
	c150 -10 220 188 90 256
	c-114 52 -275 0 -293 -136
	c-15 -181 93 -229 220 -334
	c88 -87 79 -133 62 -210
	c-51 33 -94 105 -89 186
	c17 267 36 374 49 574
	c6 96 -19 134 -77 135
	c-80 1 -126 -93 -61 -133
	c85 -41 133 101 31 105
	c23 17 92 37 90 -92
	c-10 -223 -39 -342 -50 -617
	c0 -90 0 -162 96 -232
	c56 72 63 230 22 289
	c-74 106 -257 168 -255 316
	c9 153 148 185 252 133
	c86 -65 29 -192 -80 -176
	c-71 12 -105 67 -59 124"/>
<use id="tclef" transform="scale(0.045)"
	xlink:href="#utclef"/>
</defs>
<use x="25.33" y="106.01" xlink:href="#tclef"/>
<defs>
<path id="uflat" fill="currentColor" d="
	m100 -746
	h32
	v734
	l-32 4
	m32 -332
	c46 -72 152 -90 208 -20
	c100 110 -120 326 -208 348
	m0 -28
	c54 0 200 -206 130 -290
	c-50 -60 -130 -4 -130 34"/>
<use id="ft0" transform="translate(-3.5,3.5) scale(0.018)"
	xlink:href="#uflat"/>
</defs>
<use x="40.33" y="94.01" xlink:href="#ft0"/>
<use x="45.83" y="85.01" xlink:href="#ft0"/>
<use x="51.33" y="97.01" xlink:href="#ft0"/>
<use x="56.83" y="88.01" xlink:href="#ft0"/>
<g font-family="serif" font-size="16" font-weight="bold" font-style="normal"
	transform="translate(72.83,106.01) scale(1.2,1)">
	<text y="-1" text-anchor="middle">4</text>
	<text y="-13" text-anchor="middle">2</text>
</g>
<path fill="currentColor"
	d="M87.03 106.21l17.60 0.00v-3.20l-17.60 -0.00"/>
<path fill="currentColor"
	d="M87.33 101.21l17.00 0.00v-3.20l-17.00 -0.00"/>
<use x="90.83" y="82.01" xlink:href="#hd"/>
<path d="M87.33 82.01v23.20" stroke="currentColor" fill="none"/>
<use x="107.83" y="82.01" xlink:href="#hd"/>
<path d="M104.33 82.01v23.20" stroke="currentColor" fill="none"/>
<path fill="currentColor"
	d="M122.83 101.91l17.60 2.30v-3.20l-17.60 -2.30"/>
<path fill="currentColor"
	d="M123.13 97.01l17.00 2.20v-3.20l-17.00 -2.20"/>
<use x="126.63" y="79.01" xlink:href="#hd"/>
<path d="M123.13 79.01v22.00" stroke="currentColor" fill="none"/>
<use x="143.63" y="82.01" xlink:href="#hd"/>
<path d="M140.13 82.01v21.20" stroke="currentColor" fill="none"/>
<path fill="currentColor"
	d="M158.53 114.21l17.60 3.70v-3.20l-17.60 -3.70"/>
<path fill="currentColor"
	d="M164.93 110.51l-6.00 -1.20v-3.20l6.00 1.20"/>
<use x="162.43" y="91.01" xlink:href="#hd"/>
<path d="M158.93 91.01v22.20" stroke="currentColor" fill="none"/>
<use x="179.43" y="97.01" xlink:href="#hd"/>
<circle fill="currentColor" cx="187.43" cy="97.01" r="1.2"/>
<path d="M175.93 97.01v19.80" stroke="currentColor" fill="none"/>
<path fill="currentColor"
	d="M213.33 104.31l17.60 2.30v-3.20l-17.60 -2.30"/>
<path fill="currentColor"
	d="M219.63 100.21l-6.00 -0.80v-3.20l6.00 0.80"/>
<use x="217.13" y="82.01" xlink:href="#hd"/>
<path d="M213.63 82.01v21.40" stroke="currentColor" fill="none"/>
<use x="234.13" y="85.01" xlink:href="#hd"/>
<circle fill="currentColor" cx="242.13" cy="85.01" r="1.2"/>
<path d="M230.63 85.01v20.60" stroke="currentColor" fill="none"/>
<path fill="currentColor"
	d="M260.63 113.31l17.60 2.30v-3.20l-17.60 -2.30"/>
<path fill="currentColor"
	d="M266.93 109.21l-6.00 -0.80v-3.20l6.00 0.80"/>
<use x="264.43" y="91.01" xlink:href="#hd"/>
<path d="M260.93 91.01v21.40" stroke="currentColor" fill="none"/>
<use x="281.43" y="94.01" xlink:href="#hd"/>
<circle fill="currentColor" cx="289.43" cy="91.01" r="1.2"/>
<path d="M277.93 94.01v20.60" stroke="currentColor" fill="none"/>
<use x="319.13" y="103.01" xlink:href="#hd"/>
<path d="M322.63 103.01v-20.00" stroke="currentColor" fill="none"/>
<use x="356.73" y="103.01" xlink:href="#hd"/>
<path d="M360.23 103.01v-20.00" stroke="currentColor" fill="none"/>
<path fill="currentColor"
	d="M396.33 98.91l17.60 2.30v-3.20l-17.60 -2.30"/>
<path fill="currentColor"
	d="M396.63 94.01l17.00 2.20v-3.20l-17.00 -2.20"/>
<defs>
<path id="hl" stroke="currentColor" d="m-6 0h12"/>
</defs>
<use x="400.13" y="76.01" xlink:href="#hl"/>
<use x="400.13" y="76.01" xlink:href="#hd"/>
<path d="M396.63 76.01v22.00" stroke="currentColor" fill="none"/>
<use x="417.13" y="79.01" xlink:href="#hd"/>
<path d="M413.63 79.01v21.20" stroke="currentColor" fill="none"/>
<path fill="currentColor"
	d="M432.13 104.21l17.60 -2.30v-3.20l-17.60 2.30"/>
<path fill="currentColor"
	d="M432.43 99.21l17.00 -2.20v-3.20l-17.00 2.20"/>
<use x="435.93" y="82.01" xlink:href="#hd"/>
<path d="M432.43 82.01v21.20" stroke="currentColor" fill="none"/>
<use x="452.93" y="79.01" xlink:href="#hd"/>
<path d="M449.43 79.01v22.00" stroke="currentColor" fill="none"/>
<path fill="currentColor"
	d="M467.93 108.01l17.60 0.00v-3.20l-17.60 -0.00"/>
<path fill="currentColor"
	d="M474.23 103.01l-6.00 -0.00v-3.20l6.00 0.00"/>
<use x="471.73" y="85.01" xlink:href="#hd"/>
<path d="M468.23 85.01v22.00" stroke="currentColor" fill="none"/>
<use x="488.73" y="85.01" xlink:href="#hd"/>
<circle fill="currentColor" cx="496.73" cy="85.01" r="1.2"/>
<path d="M485.23 85.01v22.00" stroke="currentColor" fill="none"/>
<path fill="currentColor"
	d="M522.63 103.81l28.00 -2.50v-3.20l-28.00 2.50"/>
<path fill="currentColor"
	d="M544.33 96.81l6.00 -0.50v-3.20l-6.00 0.50"/>
<use x="526.43" y="82.01" xlink:href="#hd"/>
<circle fill="currentColor" cx="534.43" cy="79.01" r="1.2"/>
<path d="M522.93 82.01v20.70" stroke="currentColor" fill="none"/>
<use x="553.83" y="79.01" xlink:href="#hd"/>
<path d="M550.33 79.01v21.30" stroke="currentColor" fill="none"/>
<path fill="currentColor"
	d="M568.83 98.31l17.60 2.30v-3.20l-17.60 -2.30"/>
<path fill="currentColor"
	d="M575.13 94.21l-6.00 -0.80v-3.20l6.00 0.80"/>
<use x="572.63" y="76.01" xlink:href="#hl"/>
<use x="572.63" y="76.01" xlink:href="#hd"/>
<path d="M569.13 76.01v21.40" stroke="currentColor" fill="none"/>
<use x="589.63" y="79.01" xlink:href="#hd"/>
<circle fill="currentColor" cx="597.63" cy="79.01" r="1.2"/>
<path d="M586.13 79.01v20.60" stroke="currentColor" fill="none"/>
<use x="627.33" y="91.01" xlink:href="#hd"/>
<path d="M623.83 91.01v20.00" stroke="currentColor" fill="none"/>
<use x="664.83" y="91.01" xlink:href="#hd"/>
<path d="M661.33 91.01v20.00" stroke="currentColor" fill="none"/>
</g>
</svg>
