<?xml version="1.0" standalone="no"?>
<!DOCTYPE svg PUBLIC "-//W3C//DTD SVG 1.1//EN"
	"http://www.w3.org/Graphics/SVG/1.1/DTD/svg11.dtd">
<svg xmlns="http://www.w3.org/2000/svg" version="1.1"
	xmlns:xlink="http://www.w3.org/1999/xlink"
	xml:space='preserve' color="black"
	width="7.38in" height="1.34in" viewBox="0 0 531 97">
<title>0600.abc (0600) tune 1</title>
<!-- Creator: abcm2ps-7.8.14 -->
<!-- CreationDate: Mar 13, 2016 18:53 -->
<!-- CommandLine: -qxg 0600.abc -O ../svgs/0600.svg -->
<g transform="scale(0.750)" stroke-width="0.70" font-family="Times" font-size="20.00">
<text x="354.13" y="21.67" text-anchor="middle">0600.  Rhapsody No. 1, Vn. and Orch., 2nd. Mvt. - 2nd. Theme</text>
</g>
<g transform="scale(0.750)" stroke-width="0.70" font-family="Times" font-size="14.00" font-style="italic">
<text x="694.93" y="45.34" text-anchor="end">Bela Bartok</text>
</g>
<g transform="scale(0.525)" stroke-width="0.70" font-family="Times" font-size="14.00" font-style="italic">
<defs>
<ellipse id="hd" rx="4.1" ry="2.9"
	transform="rotate(-20)" fill="currentColor"/>
</defs>
<use x="146.33" y="94.16" xlink:href="#hd"/>
<path d="M149.83 94.16v-20.00" stroke="currentColor" fill="none"/>
</g>
<g transform="scale(0.750)" stroke-width="0.70" font-family="Times" font-size="15.00" font-weight="bold">
<text x="110.13" y="68.01">= 120</text>
<path stroke="currentColor" fill="none"
	d="M322.53 106.01v-24.00"/>
<path stroke="currentColor" fill="none"
	d="M521.93 106.01v-24.00"/>
<path stroke="currentColor" fill="none"
	d="M13.33 106.01h508.60m-508.60 -6h508.60m-508.60 -6h508.60m-508.60 -6h508.60m-508.60 -6h508.60"/>
<defs>
<path id="utclef" fill="currentColor" d="m-50 -90
	c-72 -41 -72 -158 52 -188
	c150 -10 220 188 90 256
	c-114 52 -275 0 -293 -136
	c-15 -181 93 -229 220 -334
	c88 -87 79 -133 62 -210
	c-51 33 -94 105 -89 186
	c17 267 36 374 49 574
	c6 96 -19 134 -77 135
	c-80 1 -126 -93 -61 -133
	c85 -41 133 101 31 105
	c23 17 92 37 90 -92
	c-10 -223 -39 -342 -50 -617
	c0 -90 0 -162 96 -232
	c56 72 63 230 22 289
	c-74 106 -257 168 -255 316
	c9 153 148 185 252 133
	c86 -65 29 -192 -80 -176
	c-71 12 -105 67 -59 124"/>
<use id="tclef" transform="scale(0.045)"
	xlink:href="#utclef"/>
</defs>
<use x="25.33" y="106.01" xlink:href="#tclef"/>
<defs>
<path id="usharp" fill="currentColor" d="
	m136 -702
	v890
	h32
	v-890
	m128 840
	h32
	v-888
	h-32
	m-232 286
	v116
	l338 -96
	v-116
	m-338 442
	v116
	l338 -98
	v-114"/>
<use id="sh0" transform="translate(-4,5) scale(0.018)"
	xlink:href="#usharp"/>
</defs>
<use x="40.33" y="82.01" xlink:href="#sh0"/>
<use x="45.83" y="91.01" xlink:href="#sh0"/>
<use x="51.33" y="79.01" xlink:href="#sh0"/>
<use x="56.83" y="88.01" xlink:href="#sh0"/>
<use x="62.33" y="97.01" xlink:href="#sh0"/>
<use x="67.83" y="85.01" xlink:href="#sh0"/>
<g font-family="serif" font-size="16" font-weight="bold" font-style="normal"
	transform="translate(83.83,106.01) scale(1.2,1)">
	<text y="-1" text-anchor="middle">4</text>
	<text y="-13" text-anchor="middle">4</text>
</g>
<use x="101.83" y="106.01" xlink:href="#hd"/>
<path d="M105.33 106.01v-20.00" stroke="currentColor" fill="none"/>
<path fill="currentColor"
	d="	M105.33 86.01c0.6 5.6 9.6 9 5.6 18.4
	c1.6 -6 -1.3 -11.6 -5.6 -12.8
"/>
<use x="130.13" y="100.01" xlink:href="#hd"/>
<path d="M133.63 100.01v-20.00" stroke="currentColor" fill="none"/>
<path fill="currentColor"
	d="	M133.63 80.01c0.6 5.6 9.6 9 5.6 18.4
	c1.6 -6 -1.3 -11.6 -5.6 -12.8
"/>
<use x="158.43" y="100.01" xlink:href="#hd"/>
<path d="M161.93 100.01v-20.00" stroke="currentColor" fill="none"/>
<path fill="currentColor"
	d="	M161.93 80.01c0.6 5.6 9.6 9 5.6 18.4
	c1.6 -6 -1.3 -11.6 -5.6 -12.8
"/>
<use x="186.73" y="97.01" xlink:href="#hd"/>
<path d="M190.23 97.01v-20.00" stroke="currentColor" fill="none"/>
<path fill="currentColor"
	d="	M190.23 77.01c0.6 5.6 9.6 9 5.6 18.4
	c1.6 -6 -1.3 -11.6 -5.6 -12.8
"/>
<use x="215.03" y="106.01" xlink:href="#hd"/>
<path d="M218.53 106.01v-20.00" stroke="currentColor" fill="none"/>
<path fill="currentColor"
	d="	M218.53 86.01c0.6 5.6 9.6 9 5.6 18.4
	c1.6 -6 -1.3 -11.6 -5.6 -12.8
"/>
<use x="243.33" y="100.01" xlink:href="#hd"/>
<path d="M246.83 100.01v-20.00" stroke="currentColor" fill="none"/>
<path fill="currentColor"
	d="	M246.83 80.01c0.6 5.6 9.6 9 5.6 18.4
	c1.6 -6 -1.3 -11.6 -5.6 -12.8
"/>
<use x="271.63" y="100.01" xlink:href="#hd"/>
<path d="M275.13 100.01v-20.00" stroke="currentColor" fill="none"/>
<path fill="currentColor"
	d="	M275.13 80.01c0.6 5.6 9.6 9 5.6 18.4
	c1.6 -6 -1.3 -11.6 -5.6 -12.8
"/>
<use x="299.93" y="97.01" xlink:href="#hd"/>
<path d="M303.43 97.01v-20.00" stroke="currentColor" fill="none"/>
<path fill="currentColor"
	d="	M303.43 77.01c0.6 5.6 9.6 9 5.6 18.4
	c1.6 -6 -1.3 -11.6 -5.6 -12.8
"/>
<use x="336.73" y="103.01" xlink:href="#hd"/>
<path d="M340.23 103.01v-20.00" stroke="currentColor" fill="none"/>
<path fill="currentColor"
	d="	M340.23 83.01c0.6 5.6 9.6 9 5.6 18.4
	c1.6 -6 -1.3 -11.6 -5.6 -12.8
"/>
<use x="365.03" y="106.01" xlink:href="#hd"/>
<path d="M368.53 106.01v-20.00" stroke="currentColor" fill="none"/>
<path fill="currentColor"
	d="	M368.53 86.01c0.6 5.6 9.6 9 5.6 18.4
	c1.6 -6 -1.3 -11.6 -5.6 -12.8
"/>
<use x="393.33" y="103.01" xlink:href="#hd"/>
<path d="M396.83 103.01v-20.00" stroke="currentColor" fill="none"/>
<path fill="currentColor"
	d="	M396.83 83.01c0.6 5.6 9.6 9 5.6 18.4
	c1.6 -6 -1.3 -11.6 -5.6 -12.8
"/>
<use x="421.63" y="106.01" xlink:href="#hd"/>
<path d="M425.13 106.01v-20.00" stroke="currentColor" fill="none"/>
<path fill="currentColor"
	d="	M425.13 86.01c0.6 5.6 9.6 9 5.6 18.4
	c1.6 -6 -1.3 -11.6 -5.6 -12.8
"/>
<use x="449.93" y="109.01" xlink:href="#hd"/>
<path d="M453.43 109.01v-20.00" stroke="currentColor" fill="none"/>
<use x="489.93" y="109.01" xlink:href="#hd"/>
<path d="M493.43 109.01v-20.00" stroke="currentColor" fill="none"/>
</g>
</svg>
