<?xml version="1.0" standalone="no"?>
<!DOCTYPE svg PUBLIC "-//W3C//DTD SVG 1.1//EN"
	"http://www.w3.org/Graphics/SVG/1.1/DTD/svg11.dtd">
<svg xmlns="http://www.w3.org/2000/svg" version="1.1"
	xmlns:xlink="http://www.w3.org/1999/xlink"
	xml:space='preserve' color="black"
	width="7.38in" height="1.34in" viewBox="0 0 531 97">
<title>0625.abc (0625) tune 1</title>
<!-- Creator: abcm2ps-7.8.14 -->
<!-- CreationDate: Mar 13, 2016 18:53 -->
<!-- CommandLine: -qxg 0625.abc -O ../svgs/0625.svg -->
<g transform="scale(0.750)" stroke-width="0.70" font-family="Times" font-size="20.00">
<text x="354.13" y="21.67" text-anchor="middle">0625.  Concerto No. 1 in C, Op. 15, 1st. Mvt. - 2nd. Theme</text>
</g>
<g transform="scale(0.750)" stroke-width="0.70" font-family="Times" font-size="14.00" font-style="italic">
<text x="694.93" y="45.34" text-anchor="end">Ludwig Van Beethoven</text>
</g>
<g transform="scale(0.525)" stroke-width="0.70" font-family="Times" font-size="14.00" font-style="italic">
<defs>
<ellipse id="hd" rx="4.1" ry="2.9"
	transform="rotate(-20)" fill="currentColor"/>
</defs>
<use x="99.19" y="94.16" xlink:href="#hd"/>
<path d="M102.69 94.16v-20.00" stroke="currentColor" fill="none"/>
</g>
<g transform="scale(0.750)" stroke-width="0.70" font-family="Times" font-size="15.00" font-weight="bold">
<text x="77.13" y="68.01">= 120</text>
<path stroke="currentColor" fill="none"
	d="M207.83 106.01v-24.00"/>
<path stroke="currentColor" fill="none"
	d="M422.13 106.01v-24.00"/>
<path stroke="currentColor" fill="none"
	d="M617.13 106.01v-24.00"/>
<path stroke="currentColor" fill="none"
	d="M13.33 106.01h681.60m-681.60 -6h681.60m-681.60 -6h681.60m-681.60 -6h681.60m-681.60 -6h681.60"/>
<defs>
<path id="utclef" fill="currentColor" d="m-50 -90
	c-72 -41 -72 -158 52 -188
	c150 -10 220 188 90 256
	c-114 52 -275 0 -293 -136
	c-15 -181 93 -229 220 -334
	c88 -87 79 -133 62 -210
	c-51 33 -94 105 -89 186
	c17 267 36 374 49 574
	c6 96 -19 134 -77 135
	c-80 1 -126 -93 -61 -133
	c85 -41 133 101 31 105
	c23 17 92 37 90 -92
	c-10 -223 -39 -342 -50 -617
	c0 -90 0 -162 96 -232
	c56 72 63 230 22 289
	c-74 106 -257 168 -255 316
	c9 153 148 185 252 133
	c86 -65 29 -192 -80 -176
	c-71 12 -105 67 -59 124"/>
<use id="tclef" transform="scale(0.045)"
	xlink:href="#utclef"/>
</defs>
<use x="25.33" y="106.01" xlink:href="#tclef"/>
<g font-family="serif" font-size="16" font-weight="bold" font-style="normal"
	transform="translate(43.83,106.01) scale(1.2,1)">
	<text y="-1" text-anchor="middle">4</text>
	<text y="-13" text-anchor="middle">4</text>
</g>
<defs>
<path id="Hd" fill="currentColor" d="m3 -1.6
	c-1 -1.8 -7 1.4 -6 3.2
	c1 1.8 7 -1.4 6 -3.2
	m0.5 -0.3
	c2 3.8 -5 7.6 -7 3.8
	c-2 -3.8 5 -7.6 7 -3.8"/>
</defs>
<use x="68.83" y="97.01" xlink:href="#Hd"/>
<defs>
<path id="usharp" fill="currentColor" d="
	m136 -702
	v890
	h32
	v-890
	m128 840
	h32
	v-888
	h-32
	m-232 286
	v116
	l338 -96
	v-116
	m-338 442
	v116
	l338 -98
	v-114"/>
<use id="sh0" transform="translate(-4,5) scale(0.018)"
	xlink:href="#usharp"/>
</defs>
<use x="58.83" y="97.01" xlink:href="#sh0"/>
<path d="M72.33 97.01v-20.00" stroke="currentColor" fill="none"/>
<use x="115.93" y="97.01" xlink:href="#hd"/>
<defs>
<path id="unat" fill="currentColor" d="
	m96 -750
	h-32
	v716
	l32 -8
	l182 -54
	v282
	h32
	v-706
	l-34 10
	l-180 50
	v-290
	m0 592
	v-190
	l182 -52
	v188"/>
<use id="nt0" transform="translate(-3,5) scale(0.018)"
	xlink:href="#unat"/>
</defs>
<use x="106.93" y="97.01" xlink:href="#nt0"/>
<path d="M119.43 97.01v-20.00" stroke="currentColor" fill="none"/>
<path fill="currentColor"
	d="	M119.43 77.01c0.6 5.6 9.6 9 5.6 18.4
	c1.6 -6 -1.3 -11.6 -5.6 -12.8
"/>
<use x="141.43" y="97.01" xlink:href="#hd"/>
<use x="132.43" y="97.01" xlink:href="#sh0"/>
<path d="M144.93 97.01v-20.00" stroke="currentColor" fill="none"/>
<path fill="currentColor"
	d="	M144.93 77.01c0.6 5.6 9.6 9 5.6 18.4
	c1.6 -6 -1.3 -11.6 -5.6 -12.8
"/>
<use x="165.93" y="91.01" xlink:href="#hd"/>
<path d="M162.43 91.01v20.00" stroke="currentColor" fill="none"/>
<path fill="currentColor"
	d="M162.43 111.01c0.6 -5.6 9.6 -9 5.6 -18.4
	c1.6 6 -1.3 11.6 -5.6 12.8
"/>
<use x="188.03" y="97.01" xlink:href="#hd"/>
<use x="179.03" y="97.01" xlink:href="#sh0"/>
<path d="M191.53 97.01v-20.00" stroke="currentColor" fill="none"/>
<path fill="currentColor"
	d="	M191.53 77.01c0.6 5.6 9.6 9 5.6 18.4
	c1.6 -6 -1.3 -11.6 -5.6 -12.8
"/>
<use x="226.33" y="97.01" xlink:href="#hd"/>
<use x="217.33" y="97.01" xlink:href="#sh0"/>
<path d="M229.83 97.01v-20.00" stroke="currentColor" fill="none"/>
<path fill="currentColor"
	d="	M229.83 77.01c0.6 5.6 9.6 9 5.6 18.4
	c1.6 -6 -1.3 -11.6 -5.6 -12.8
"/>
<use x="251.83" y="100.01" xlink:href="#hd"/>
<use x="242.83" y="100.01" xlink:href="#sh0"/>
<path d="M255.33 100.01v-20.00" stroke="currentColor" fill="none"/>
<path fill="currentColor"
	d="	M255.33 80.01c0.6 5.6 9.6 9 5.6 18.4
	c1.6 -6 -1.3 -11.6 -5.6 -12.8
"/>
<use x="277.33" y="100.01" xlink:href="#hd"/>
<use x="268.33" y="100.01" xlink:href="#nt0"/>
<path d="M280.83 100.01v-20.00" stroke="currentColor" fill="none"/>
<path fill="currentColor"
	d="	M280.83 80.01c0.6 5.6 9.6 9 5.6 18.4
	c1.6 -6 -1.3 -11.6 -5.6 -12.8
"/>
<use x="301.63" y="103.01" xlink:href="#hd"/>
<path d="M305.13 103.01v-20.00" stroke="currentColor" fill="none"/>
<path fill="currentColor"
	d="	M305.13 83.01c0.6 5.6 9.6 9 5.6 18.4
	c1.6 -6 -1.3 -11.6 -5.6 -12.8
"/>
<use x="327.13" y="109.01" xlink:href="#hd"/>
<use x="318.13" y="109.01" xlink:href="#sh0"/>
<path d="M330.63 109.01v-20.00" stroke="currentColor" fill="none"/>
<path fill="currentColor"
	d="	M330.63 89.01c0.6 5.6 9.6 9 5.6 18.4
	c1.6 -6 -1.3 -11.6 -5.6 -12.8
"/>
<use x="352.63" y="109.01" xlink:href="#hd"/>
<use x="343.63" y="109.01" xlink:href="#nt0"/>
<path d="M356.13 109.01v-20.00" stroke="currentColor" fill="none"/>
<path fill="currentColor"
	d="	M356.13 89.01c0.6 5.6 9.6 9 5.6 18.4
	c1.6 -6 -1.3 -11.6 -5.6 -12.8
"/>
<defs>
<path id="hl" stroke="currentColor" d="m-6 0h12"/>
</defs>
<use x="376.83" y="112.01" xlink:href="#hl"/>
<use x="376.83" y="112.01" xlink:href="#hd"/>
<path d="M380.33 112.01v-20.00" stroke="currentColor" fill="none"/>
<path fill="currentColor"
	d="	M380.33 92.01c0.6 5.6 9.6 9 5.6 18.4
	c1.6 -6 -1.3 -11.6 -5.6 -12.8
"/>
<use x="402.33" y="112.01" xlink:href="#hl"/>
<use x="402.33" y="118.01" xlink:href="#hl"/>
<use x="402.33" y="118.01" xlink:href="#hd"/>
<use x="393.33" y="118.01" xlink:href="#sh0"/>
<path d="M405.83 118.01v-24.00" stroke="currentColor" fill="none"/>
<path fill="currentColor"
	d="	M405.83 94.01c0.6 5.6 9.6 9 5.6 18.4
	c1.6 -6 -1.3 -11.6 -5.6 -12.8
"/>
<use x="440.63" y="109.01" xlink:href="#hd"/>
<use x="431.63" y="109.01" xlink:href="#sh0"/>
<path d="M444.13 109.01v-20.00" stroke="currentColor" fill="none"/>
<use x="474.43" y="109.01" xlink:href="#hd"/>
<use x="465.43" y="109.01" xlink:href="#sh0"/>
<path d="M477.93 109.01v-20.00" stroke="currentColor" fill="none"/>
<defs>
<path id="r8e" fill="currentColor" d="m 0 0
	c-1.5 1.5 -2.4 2 -3.6 2
	c2.4 -2.8 -2.8 -4 -2.8 -1.2
	c0 2.7 4.3 2.4 5.9 0.6"/>
<g id="r32">
	<path d="m4.8 -10l-5.5 21.6" stroke="currentColor" fill="none"/>
	<use x="4.9" y="-10" xlink:href="#r8e"/>
	<use x="3.4" y="-4" xlink:href="#r8e"/>
	<use x="1.9" y="2" xlink:href="#r8e"/>
</g>
</defs>
<use x="504.03" y="94.01" xlink:href="#r32"/>
<use x="522.03" y="109.01" xlink:href="#hd"/>
<circle fill="currentColor" cx="530.03" cy="109.01" r="1.2"/>
<use x="513.03" y="109.01" xlink:href="#sh0"/>
<path d="M525.53 109.01v-21.00" stroke="currentColor" fill="none"/>
<path fill="currentColor"
	d="M525.53 88.01c0.9 3.7 9.1 6.4 6 12.4
	c1 -5.4 -4.2 -8.4 -6 -8.4
M525.53 93.41c0.9 3.7 9.1 6.4 6 12.4
	c1 -5.4 -4.2 -8.4 -6 -8.4
"/>
<use x="547.53" y="109.01" xlink:href="#hd"/>
<use x="538.53" y="109.01" xlink:href="#nt0"/>
<path d="M551.03 109.01v-20.00" stroke="currentColor" fill="none"/>
<path fill="currentColor"
	d="	M551.03 89.01c0.6 5.6 9.6 9 5.6 18.4
	c1.6 -6 -1.3 -11.6 -5.6 -12.8
"/>
<use x="573.03" y="109.01" xlink:href="#hd"/>
<use x="564.03" y="109.01" xlink:href="#sh0"/>
<path d="M576.53 109.01v-20.00" stroke="currentColor" fill="none"/>
<path fill="currentColor"
	d="	M576.53 89.01c0.6 5.6 9.6 9 5.6 18.4
	c1.6 -6 -1.3 -11.6 -5.6 -12.8
"/>
<use x="597.33" y="100.01" xlink:href="#hd"/>
<path d="M600.83 100.01v-20.00" stroke="currentColor" fill="none"/>
<path fill="currentColor"
	d="	M600.83 80.01c0.6 5.6 9.6 9 5.6 18.4
	c1.6 -6 -1.3 -11.6 -5.6 -12.8
"/>
<use x="629.73" y="106.01" xlink:href="#hd"/>
<path d="M633.23 106.01v-20.00" stroke="currentColor" fill="none"/>
<use x="662.53" y="103.01" xlink:href="#hd"/>
<path d="M666.03 103.01v-20.00" stroke="currentColor" fill="none"/>
</g>
</svg>
