<?xml version="1.0" standalone="no"?>
<!DOCTYPE svg PUBLIC "-//W3C//DTD SVG 1.1//EN"
	"http://www.w3.org/Graphics/SVG/1.1/DTD/svg11.dtd">
<svg xmlns="http://www.w3.org/2000/svg" version="1.1"
	xmlns:xlink="http://www.w3.org/1999/xlink"
	xml:space='preserve' color="black"
	width="7.38in" height="1.34in" viewBox="0 0 531 97">
<title>0671.abc (0671) tune 1</title>
<!-- Creator: abcm2ps-7.8.14 -->
<!-- CreationDate: Mar 13, 2016 18:53 -->
<!-- CommandLine: -qxg 0671.abc -O ../svgs/0671.svg -->
<g transform="scale(0.750)" stroke-width="0.70" font-family="Times" font-size="20.00">
<text x="354.13" y="21.67" text-anchor="middle">0671.  Leonore, Nos. 2 and 3, Op. 72a, Overture - 2nd. Theme</text>
</g>
<g transform="scale(0.750)" stroke-width="0.70" font-family="Times" font-size="14.00" font-style="italic">
<text x="694.93" y="45.34" text-anchor="end">Ludwig Van Beethoven</text>
</g>
<g transform="scale(0.525)" stroke-width="0.70" font-family="Times" font-size="14.00" font-style="italic">
<defs>
<ellipse id="hd" rx="4.1" ry="2.9"
	transform="rotate(-20)" fill="currentColor"/>
</defs>
<use x="89.19" y="94.16" xlink:href="#hd"/>
<path d="M92.69 94.16v-20.00" stroke="currentColor" fill="none"/>
</g>
<g transform="scale(0.750)" stroke-width="0.70" font-family="Times" font-size="15.00" font-weight="bold">
<text x="70.13" y="68.01">= 120</text>
<path stroke="currentColor" fill="none"
	d="M168.03 106.01v-24.00"/>
<path stroke="currentColor" fill="none"
	d="M260.63 106.01v-24.00"/>
<path stroke="currentColor" fill="none"
	d="M395.43 106.01v-24.00"/>
<path stroke="currentColor" fill="none"
	d="M483.63 106.01v-24.00"/>
<path stroke="currentColor" fill="none"
	d="M602.23 106.01v-24.00"/>
<path stroke="currentColor" fill="none"
	d="M694.93 106.01v-24.00"/>
<path stroke="currentColor" fill="none"
	d="M13.33 106.01h681.60m-681.60 -6h681.60m-681.60 -6h681.60m-681.60 -6h681.60m-681.60 -6h681.60"/>
<defs>
<path id="ubclef" fill="currentColor" d="m-200 -87
	c124 -35 222 -78 254 -236
	c43 -228 -167 -246 -192 -103
	c59 -80 157 22 92 78
	c-62 47 -115 -22 -106 -88
	c21 -141 270 -136 274 52
	c-1 175 -106 264 -322 297
	m357 -250
	c0 -36 51 -34 51 0
	c0 37 -51 36 -51 0
	m-2 -129
	c0 -36 51 -34 51 0
	c0 38 -51 37 -51 0"/>
<use id="bclef" transform="scale(0.045)"
	xlink:href="#ubclef"/>
</defs>
<use x="25.33" y="106.01" xlink:href="#bclef"/>
<g font-family="serif" font-size="16" font-weight="bold" font-style="normal"
	transform="translate(43.83,106.01) scale(1.2,1)">
	<text y="-1" text-anchor="middle">2</text>
	<text y="-13" text-anchor="middle">2</text>
</g>
<use x="61.83" y="97.01" xlink:href="#hd"/>
<path d="M65.33 97.01v-20.00" stroke="currentColor" fill="none"/>
<defs>
<path id="Hd" fill="currentColor" d="m3 -1.6
	c-1 -1.8 -7 1.4 -6 3.2
	c1 1.8 7 -1.4 6 -3.2
	m0.5 -0.3
	c2 3.8 -5 7.6 -7 3.8
	c-2 -3.8 5 -7.6 7 -3.8"/>
</defs>
<use x="94.93" y="91.01" xlink:href="#Hd"/>
<path d="M91.43 91.01v20.00" stroke="currentColor" fill="none"/>
<use x="141.53" y="85.01" xlink:href="#hd"/>
<path d="M138.03 85.01v20.00" stroke="currentColor" fill="none"/>
<use x="181.03" y="82.01" xlink:href="#Hd"/>
<circle fill="currentColor" cx="190.03" cy="79.01" r="1.2"/>
<path d="M177.53 82.01v20.00" stroke="currentColor" fill="none"/>
<use x="234.23" y="85.01" xlink:href="#hd"/>
<path d="M230.73 85.01v20.00" stroke="currentColor" fill="none"/>
<use x="273.13" y="91.01" xlink:href="#hd"/>
<path d="M269.63 91.01v20.00" stroke="currentColor" fill="none"/>
<use x="302.93" y="97.01" xlink:href="#hd"/>
<path d="M306.43 97.01v-20.00" stroke="currentColor" fill="none"/>
<use x="335.93" y="103.01" xlink:href="#hd"/>
<path d="M339.43 103.01v-20.00" stroke="currentColor" fill="none"/>
<use x="368.93" y="106.01" xlink:href="#hd"/>
<path d="M372.43 106.01v-20.00" stroke="currentColor" fill="none"/>
<use x="407.93" y="106.01" xlink:href="#hd"/>
<path d="M411.43 106.01v-20.00" stroke="currentColor" fill="none"/>
<defs>
<rect id="r2" fill="currentColor"
	x="-3.5" y="-3" width="7" height="3"/>
</defs>
<use x="440.93" y="94.01" xlink:href="#r2"/>
<circle fill="currentColor" cx="448.93" cy="91.01" r="1.2"/>
<use x="496.13" y="91.01" xlink:href="#hd"/>
<path d="M492.63 91.01v20.00" stroke="currentColor" fill="none"/>
<use x="529.13" y="85.01" xlink:href="#Hd"/>
<path d="M525.63 85.01v20.00" stroke="currentColor" fill="none"/>
<defs>
<path id="hl" stroke="currentColor" d="m-6 0h12"/>
</defs>
<use x="575.73" y="76.01" xlink:href="#hl"/>
<use x="575.73" y="76.01" xlink:href="#hd"/>
<path d="M572.23 76.01v20.00" stroke="currentColor" fill="none"/>
<use x="615.23" y="76.01" xlink:href="#hl"/>
<use x="615.23" y="73.01" xlink:href="#Hd"/>
<circle fill="currentColor" cx="624.23" cy="73.01" r="1.2"/>
<path d="M611.73 73.01v21.00" stroke="currentColor" fill="none"/>
<use x="668.43" y="76.01" xlink:href="#hl"/>
<use x="668.43" y="76.01" xlink:href="#hd"/>
<path d="M664.93 76.01v20.00" stroke="currentColor" fill="none"/>
</g>
</svg>
