<?xml version="1.0" standalone="no"?>
<!DOCTYPE svg PUBLIC "-//W3C//DTD SVG 1.1//EN"
	"http://www.w3.org/Graphics/SVG/1.1/DTD/svg11.dtd">
<svg xmlns="http://www.w3.org/2000/svg" version="1.1"
	xmlns:xlink="http://www.w3.org/1999/xlink"
	xml:space='preserve' color="black"
	width="7.38in" height="1.34in" viewBox="0 0 531 97">
<title>0682.abc (0682) tune 1</title>
<!-- Creator: abcm2ps-7.8.14 -->
<!-- CreationDate: Mar 13, 2016 18:53 -->
<!-- CommandLine: -qxg 0682.abc -O ../svgs/0682.svg -->
<g transform="scale(0.750)" stroke-width="0.70" font-family="Times" font-size="20.00">
<text x="354.13" y="21.67" text-anchor="middle">0682.  Quartet in G, Op. 18, No. 2, 1st. Mvt. - 2nd. Theme</text>
</g>
<g transform="scale(0.750)" stroke-width="0.70" font-family="Times" font-size="14.00" font-style="italic">
<text x="694.93" y="45.34" text-anchor="end">Ludwig Van Beethoven</text>
</g>
<g transform="scale(0.525)" stroke-width="0.70" font-family="Times" font-size="14.00" font-style="italic">
<defs>
<ellipse id="hd" rx="4.1" ry="2.9"
	transform="rotate(-20)" fill="currentColor"/>
</defs>
<use x="107.04" y="94.16" xlink:href="#hd"/>
<path d="M110.54 94.16v-20.00" stroke="currentColor" fill="none"/>
</g>
<g transform="scale(0.750)" stroke-width="0.70" font-family="Times" font-size="15.00" font-weight="bold">
<text x="82.63" y="68.01">= 120</text>
<path stroke="currentColor" fill="none"
	d="M180.13 106.01v-24.00"/>
<path stroke="currentColor" fill="none"
	d="M271.93 106.01v-24.00"/>
<path stroke="currentColor" fill="none"
	d="M413.53 106.01v-24.00"/>
<path stroke="currentColor" fill="none"
	d="M587.73 106.01v-24.00"/>
<path stroke="currentColor" fill="none"
	d="M13.33 106.01h681.60m-681.60 -6h681.60m-681.60 -6h681.60m-681.60 -6h681.60m-681.60 -6h681.60"/>
<defs>
<path id="utclef" fill="currentColor" d="m-50 -90
	c-72 -41 -72 -158 52 -188
	c150 -10 220 188 90 256
	c-114 52 -275 0 -293 -136
	c-15 -181 93 -229 220 -334
	c88 -87 79 -133 62 -210
	c-51 33 -94 105 -89 186
	c17 267 36 374 49 574
	c6 96 -19 134 -77 135
	c-80 1 -126 -93 -61 -133
	c85 -41 133 101 31 105
	c23 17 92 37 90 -92
	c-10 -223 -39 -342 -50 -617
	c0 -90 0 -162 96 -232
	c56 72 63 230 22 289
	c-74 106 -257 168 -255 316
	c9 153 148 185 252 133
	c86 -65 29 -192 -80 -176
	c-71 12 -105 67 -59 124"/>
<use id="tclef" transform="scale(0.045)"
	xlink:href="#utclef"/>
</defs>
<use x="25.33" y="106.01" xlink:href="#tclef"/>
<defs>
<path id="usharp" fill="currentColor" d="
	m136 -702
	v890
	h32
	v-890
	m128 840
	h32
	v-888
	h-32
	m-232 286
	v116
	l338 -96
	v-116
	m-338 442
	v116
	l338 -98
	v-114"/>
<use id="sh0" transform="translate(-4,5) scale(0.018)"
	xlink:href="#usharp"/>
</defs>
<use x="40.33" y="82.01" xlink:href="#sh0"/>
<g font-family="serif" font-size="16" font-weight="bold" font-style="normal"
	transform="translate(56.33,106.01) scale(1.2,1)">
	<text y="-1" text-anchor="middle">4</text>
	<text y="-13" text-anchor="middle">2</text>
</g>
<use x="74.33" y="97.01" xlink:href="#hd"/>
<path d="M77.83 97.01v-20.00" stroke="currentColor" fill="none"/>
<path fill="currentColor"
	d="	M77.83 77.01c0.6 5.6 9.6 9 5.6 18.4
	c1.6 -6 -1.3 -11.6 -5.6 -12.8
"/>
<use x="107.23" y="82.01" xlink:href="#hd"/>
<path d="M103.73 82.01v20.00" stroke="currentColor" fill="none"/>
<use x="153.83" y="85.01" xlink:href="#hd"/>
<path d="M150.33 85.01v20.00" stroke="currentColor" fill="none"/>
<path fill="currentColor"
	d="M150.33 105.01c0.6 -5.6 9.6 -9 5.6 -18.4
	c1.6 6 -1.3 11.6 -5.6 12.8
"/>
<use x="196.63" y="85.01" xlink:href="#hd"/>
<path d="M193.13 85.01v20.00" stroke="currentColor" fill="none"/>
<path fill="currentColor"
	d="M193.13 105.01c0.6 -5.6 9.6 -9 5.6 -18.4
	c1.6 6 -1.3 11.6 -5.6 12.8
"/>
<defs>
<path id="hl" stroke="currentColor" d="m-6 0h12"/>
</defs>
<use x="229.53" y="76.01" xlink:href="#hl"/>
<use x="229.53" y="76.01" xlink:href="#hd"/>
<circle fill="currentColor" cx="237.53" cy="73.01" r="1.2"/>
<path d="M226.03 76.01v20.00" stroke="currentColor" fill="none"/>
<use x="288.43" y="79.01" xlink:href="#hd"/>
<path d="M284.93 79.01v20.00" stroke="currentColor" fill="none"/>
<path fill="currentColor"
	d="M284.93 99.01c0.6 -5.6 9.6 -9 5.6 -18.4
	c1.6 6 -1.3 11.6 -5.6 12.8
"/>
<use x="321.33" y="82.01" xlink:href="#hd"/>
<path d="M317.83 82.01v20.00" stroke="currentColor" fill="none"/>
<path fill="currentColor"
	d="M317.83 102.01c0.6 -5.6 9.6 -9 5.6 -18.4
	c1.6 6 -1.3 11.6 -5.6 12.8
"/>
<use x="354.33" y="85.01" xlink:href="#hd"/>
<path d="M350.83 85.01v20.00" stroke="currentColor" fill="none"/>
<path fill="currentColor"
	d="M350.83 105.01c0.6 -5.6 9.6 -9 5.6 -18.4
	c1.6 6 -1.3 11.6 -5.6 12.8
"/>
<use x="387.23" y="88.01" xlink:href="#hd"/>
<path d="M383.73 88.01v20.00" stroke="currentColor" fill="none"/>
<path fill="currentColor"
	d="M383.73 108.01c0.6 -5.6 9.6 -9 5.6 -18.4
	c1.6 6 -1.3 11.6 -5.6 12.8
"/>
<use x="430.03" y="85.01" xlink:href="#hd"/>
<path d="M426.53 85.01v20.00" stroke="currentColor" fill="none"/>
<path fill="currentColor"
	d="M426.53 105.01c0.6 -5.6 9.6 -9 5.6 -18.4
	c1.6 6 -1.3 11.6 -5.6 12.8
"/>
<path fill="currentColor"
	d="M462.83 74.01l21.60 0.00v3.20l-21.60 -0.00"/>
<path fill="currentColor"
	d="M463.13 79.01l20.90 0.00v3.20l-20.90 -0.00"/>
<use x="459.63" y="97.01" xlink:href="#hd"/>
<path d="M463.13 97.01v-22.00" stroke="currentColor" fill="none"/>
<use x="480.63" y="97.01" xlink:href="#hd"/>
<path d="M484.13 97.01v-22.00" stroke="currentColor" fill="none"/>
<path fill="currentColor"
	d="M500.03 116.21l21.60 -2.40v-3.20l-21.60 2.40"/>
<path fill="currentColor"
	d="M500.43 111.21l20.90 -2.30v-3.20l-20.90 2.30"/>
<use x="503.93" y="94.01" xlink:href="#hd"/>
<path d="M500.43 94.01v21.20" stroke="currentColor" fill="none"/>
<use x="524.83" y="91.01" xlink:href="#hd"/>
<use x="515.83" y="91.01" xlink:href="#sh0"/>
<path d="M521.33 91.01v21.90" stroke="currentColor" fill="none"/>
<path fill="currentColor"
	d="M544.33 108.01l21.60 0.00v-3.20l-21.60 -0.00"/>
<path fill="currentColor"
	d="M544.63 103.01l20.90 0.00v-3.20l-20.90 -0.00"/>
<use x="548.13" y="88.01" xlink:href="#hd"/>
<path d="M544.63 88.01v19.00" stroke="currentColor" fill="none"/>
<use x="569.03" y="88.01" xlink:href="#hd"/>
<use x="560.03" y="88.01" xlink:href="#sh0"/>
<path d="M565.53 88.01v19.00" stroke="currentColor" fill="none"/>
<path fill="currentColor"
	d="M600.33 107.21l21.60 -2.40v-3.20l-21.60 2.40"/>
<path fill="currentColor"
	d="M600.63 102.21l20.90 -2.30v-3.20l-20.90 2.30"/>
<use x="604.13" y="85.01" xlink:href="#hd"/>
<path d="M600.63 85.01v21.20" stroke="currentColor" fill="none"/>
<use x="625.13" y="82.01" xlink:href="#hd"/>
<path d="M621.63 82.01v21.90" stroke="currentColor" fill="none"/>
<use x="648.43" y="79.01" xlink:href="#hd"/>
<path d="M644.93 79.01v20.00" stroke="currentColor" fill="none"/>
<path fill="currentColor"
	d="M157.33 83.01c5.64 -5.14 30.17 -5.14 35.81 -0.00
	l0.00 -0.24c-6.72 -6.91 -29.10 -6.91 -35.81 0.24"/>
</g>
</svg>
