<?xml version="1.0" standalone="no"?>
<!DOCTYPE svg PUBLIC "-//W3C//DTD SVG 1.1//EN"
	"http://www.w3.org/Graphics/SVG/1.1/DTD/svg11.dtd">
<svg xmlns="http://www.w3.org/2000/svg" version="1.1"
	xmlns:xlink="http://www.w3.org/1999/xlink"
	xml:space='preserve' color="black"
	width="7.38in" height="1.34in" viewBox="0 0 531 97">
<title>0685.abc (0685) tune 1</title>
<!-- Creator: abcm2ps-7.8.14 -->
<!-- CreationDate: Mar 13, 2016 18:53 -->
<!-- CommandLine: -qxg 0685.abc -O ../svgs/0685.svg -->
<g transform="scale(0.750)" stroke-width="0.70" font-family="Times" font-size="20.00">
<text x="354.13" y="21.67" text-anchor="middle">0685.  Quartet in G, Op. 18, No. 2, 3rd. Mvt. - 1st. Theme - Scherzo</text>
</g>
<g transform="scale(0.750)" stroke-width="0.70" font-family="Times" font-size="14.00" font-style="italic">
<text x="694.93" y="45.34" text-anchor="end">Ludwig Van Beethoven</text>
</g>
<g transform="scale(0.525)" stroke-width="0.70" font-family="Times" font-size="14.00" font-style="italic">
<defs>
<ellipse id="hd" rx="4.1" ry="2.9"
	transform="rotate(-20)" fill="currentColor"/>
</defs>
<use x="107.04" y="94.16" xlink:href="#hd"/>
<path d="M110.54 94.16v-20.00" stroke="currentColor" fill="none"/>
</g>
<g transform="scale(0.750)" stroke-width="0.70" font-family="Times" font-size="15.00" font-weight="bold">
<text x="82.63" y="68.01">= 120</text>
<path stroke="currentColor" fill="none"
	d="M215.13 106.01v-24.00"/>
<path stroke="currentColor" fill="none"
	d="M368.33 106.01v-24.00"/>
<path stroke="currentColor" fill="none"
	d="M574.53 106.01v-24.00"/>
<path stroke="currentColor" fill="none"
	d="M13.33 106.01h681.60m-681.60 -6h681.60m-681.60 -6h681.60m-681.60 -6h681.60m-681.60 -6h681.60"/>
<defs>
<path id="utclef" fill="currentColor" d="m-50 -90
	c-72 -41 -72 -158 52 -188
	c150 -10 220 188 90 256
	c-114 52 -275 0 -293 -136
	c-15 -181 93 -229 220 -334
	c88 -87 79 -133 62 -210
	c-51 33 -94 105 -89 186
	c17 267 36 374 49 574
	c6 96 -19 134 -77 135
	c-80 1 -126 -93 -61 -133
	c85 -41 133 101 31 105
	c23 17 92 37 90 -92
	c-10 -223 -39 -342 -50 -617
	c0 -90 0 -162 96 -232
	c56 72 63 230 22 289
	c-74 106 -257 168 -255 316
	c9 153 148 185 252 133
	c86 -65 29 -192 -80 -176
	c-71 12 -105 67 -59 124"/>
<use id="tclef" transform="scale(0.045)"
	xlink:href="#utclef"/>
</defs>
<use x="25.33" y="106.01" xlink:href="#tclef"/>
<defs>
<path id="usharp" fill="currentColor" d="
	m136 -702
	v890
	h32
	v-890
	m128 840
	h32
	v-888
	h-32
	m-232 286
	v116
	l338 -96
	v-116
	m-338 442
	v116
	l338 -98
	v-114"/>
<use id="sh0" transform="translate(-4,5) scale(0.018)"
	xlink:href="#usharp"/>
</defs>
<use x="40.33" y="82.01" xlink:href="#sh0"/>
<g font-family="serif" font-size="16" font-weight="bold" font-style="normal"
	transform="translate(56.33,106.01) scale(1.2,1)">
	<text y="-1" text-anchor="middle">4</text>
	<text y="-13" text-anchor="middle">3</text>
</g>
<path fill="currentColor"
	d="M70.53 108.01l26.80 0.00v-3.20l-26.80 -0.00"/>
<path fill="currentColor"
	d="M90.93 103.01l6.00 0.00v-3.20l-6.00 -0.00"/>
<use x="74.33" y="88.01" xlink:href="#hd"/>
<path d="M70.83 88.01v19.00" stroke="currentColor" fill="none"/>
<use x="100.43" y="88.01" xlink:href="#hd"/>
<path d="M96.93 88.01v19.00" stroke="currentColor" fill="none"/>
<use x="120.93" y="94.01" xlink:href="#hd"/>
<path d="M117.43 94.01v22.00" stroke="currentColor" fill="none"/>
<path fill="currentColor"
	d="M117.43 116.01c0.9 -3.7 9.1 -6.4 6 -12.4
	c1 5.4 -4.2 8.4 -6 8.4
M117.43 110.61c0.9 -3.7 9.1 -6.4 6 -12.4
	c1 5.4 -4.2 8.4 -6 8.4
"/>
<use x="141.33" y="79.01" xlink:href="#hd"/>
<path d="M137.83 79.01v20.00" stroke="currentColor" fill="none"/>
<defs>
<path id="r4" fill="currentColor" d="m-1 -8.5
	l3.6 5.1 -2.1 5.2 2.2 4.3
	c-2.6 -2.3 -5.1 0 -2.4 2.6
	c-4.8 -3 -1.5 -6.9 1.4 -4.1
	l-3.1 -4.5 1.9 -5.1 -1.5 -3.5"/>
</defs>
<use x="182.33" y="94.01" xlink:href="#r4"/>
<path fill="currentColor"
	d="M225.73 108.01l26.80 0.00v-3.20l-26.80 -0.00"/>
<path fill="currentColor"
	d="M246.13 103.01l6.00 0.00v-3.20l-6.00 -0.00"/>
<use x="229.53" y="88.01" xlink:href="#hd"/>
<path d="M226.03 88.01v19.00" stroke="currentColor" fill="none"/>
<use x="255.63" y="88.01" xlink:href="#hd"/>
<path d="M252.13 88.01v19.00" stroke="currentColor" fill="none"/>
<use x="276.13" y="94.01" xlink:href="#hd"/>
<path d="M272.63 94.01v22.00" stroke="currentColor" fill="none"/>
<path fill="currentColor"
	d="M272.63 116.01c0.9 -3.7 9.1 -6.4 6 -12.4
	c1 5.4 -4.2 8.4 -6 8.4
M272.63 110.61c0.9 -3.7 9.1 -6.4 6 -12.4
	c1 5.4 -4.2 8.4 -6 8.4
"/>
<use x="294.53" y="100.01" xlink:href="#hd"/>
<path d="M298.03 100.01v-20.00" stroke="currentColor" fill="none"/>
<use x="335.53" y="94.01" xlink:href="#r4"/>
<path fill="currentColor"
	d="M385.93 69.81l26.80 0.00v3.20l-26.80 -0.00"/>
<path fill="currentColor"
	d="M406.33 74.81l6.00 0.00v3.20l-6.00 -0.00"/>
<use x="382.73" y="94.01" xlink:href="#hd"/>
<path d="M386.23 94.01v-23.20" stroke="currentColor" fill="none"/>
<use x="408.83" y="94.01" xlink:href="#hd"/>
<path d="M412.33 94.01v-23.20" stroke="currentColor" fill="none"/>
<path fill="currentColor"
	d="M432.53 77.81l19.10 2.30v3.20l-19.10 -2.30"/>
<path fill="currentColor"
	d="M438.83 83.51l-6.00 -0.70v3.20l6.00 0.70"/>
<use x="429.33" y="100.01" xlink:href="#hd"/>
<path d="M432.83 100.01v-21.20" stroke="currentColor" fill="none"/>
<use x="447.73" y="103.01" xlink:href="#hd"/>
<path d="M451.23 103.01v-21.90" stroke="currentColor" fill="none"/>
<path fill="currentColor"
	d="M472.93 122.21l82.10 0.00v-3.20l-82.10 -0.00"/>
<path fill="currentColor"
	d="M473.23 117.21l18.40 0.00v-3.20l-18.40 -0.00"/>
<path fill="currentColor"
	d="M536.23 117.21l18.40 0.00v-3.20l-18.40 -0.00"/>
<use x="476.73" y="91.01" xlink:href="#hd"/>
<use x="467.73" y="91.01" xlink:href="#sh0"/>
<path d="M473.23 91.01v30.20" stroke="currentColor" fill="none"/>
<use x="495.13" y="88.01" xlink:href="#hd"/>
<path d="M491.63 88.01v33.20" stroke="currentColor" fill="none"/>
<use x="513.63" y="103.01" xlink:href="#hd"/>
<path d="M510.13 103.01v18.20" stroke="currentColor" fill="none"/>
<use x="539.73" y="91.01" xlink:href="#hd"/>
<use x="530.73" y="91.01" xlink:href="#sh0"/>
<path d="M536.23 91.01v30.20" stroke="currentColor" fill="none"/>
<use x="558.13" y="88.01" xlink:href="#hd"/>
<path d="M554.63 88.01v33.20" stroke="currentColor" fill="none"/>
<path fill="currentColor"
	d="M592.13 74.21l26.80 -5.50v3.20l-26.80 5.50"/>
<path fill="currentColor"
	d="M612.53 75.01l6.00 -1.20v3.20l-6.00 1.20"/>
<use x="589.03" y="100.01" xlink:href="#hd"/>
<path d="M592.53 100.01v-24.90" stroke="currentColor" fill="none"/>
<use x="615.03" y="91.01" xlink:href="#hd"/>
<use x="606.03" y="91.01" xlink:href="#sh0"/>
<path d="M618.53 91.01v-21.20" stroke="currentColor" fill="none"/>
<use x="635.53" y="88.01" xlink:href="#hd"/>
<path d="M632.03 88.01v22.00" stroke="currentColor" fill="none"/>
<path fill="currentColor"
	d="M632.03 110.01c0.9 -3.7 9.1 -6.4 6 -12.4
	c1 5.4 -4.2 8.4 -6 8.4
M632.03 104.61c0.9 -3.7 9.1 -6.4 6 -12.4
	c1 5.4 -4.2 8.4 -6 8.4
"/>
<use x="653.93" y="97.01" xlink:href="#hd"/>
<path d="M657.43 97.01v-20.00" stroke="currentColor" fill="none"/>
</g>
</svg>
