<?xml version="1.0" standalone="no"?>
<!DOCTYPE svg PUBLIC "-//W3C//DTD SVG 1.1//EN"
	"http://www.w3.org/Graphics/SVG/1.1/DTD/svg11.dtd">
<svg xmlns="http://www.w3.org/2000/svg" version="1.1"
	xmlns:xlink="http://www.w3.org/1999/xlink"
	xml:space='preserve' color="black"
	width="7.38in" height="1.34in" viewBox="0 0 531 97">
<title>0687.abc (0687) tune 1</title>
<!-- Creator: abcm2ps-7.8.14 -->
<!-- CreationDate: Mar 13, 2016 18:53 -->
<!-- CommandLine: -qxg 0687.abc -O ../svgs/0687.svg -->
<g transform="scale(0.750)" stroke-width="0.70" font-family="Times" font-size="20.00">
<text x="354.13" y="21.67" text-anchor="middle">0687.  Quartet in G, Op. 18, No. 2, 4th. Mvt. - 1st. Theme</text>
</g>
<g transform="scale(0.750)" stroke-width="0.70" font-family="Times" font-size="14.00" font-style="italic">
<text x="694.93" y="45.34" text-anchor="end">Ludwig Van Beethoven</text>
</g>
<g transform="scale(0.525)" stroke-width="0.70" font-family="Times" font-size="14.00" font-style="italic">
<defs>
<ellipse id="hd" rx="4.1" ry="2.9"
	transform="rotate(-20)" fill="currentColor"/>
</defs>
<use x="107.04" y="94.16" xlink:href="#hd"/>
<path d="M110.54 94.16v-20.00" stroke="currentColor" fill="none"/>
</g>
<g transform="scale(0.750)" stroke-width="0.70" font-family="Times" font-size="15.00" font-weight="bold">
<text x="82.63" y="68.01">= 120</text>
<path stroke="currentColor" fill="none"
	d="M146.33 106.01v-24.00"/>
<path stroke="currentColor" fill="none"
	d="M240.03 106.01v-24.00"/>
<path stroke="currentColor" fill="none"
	d="M361.73 106.01v-24.00"/>
<path stroke="currentColor" fill="none"
	d="M13.33 106.01h402.50m-402.50 -6h402.50m-402.50 -6h402.50m-402.50 -6h402.50m-402.50 -6h402.50"/>
<defs>
<path id="ubclef" fill="currentColor" d="m-200 -87
	c124 -35 222 -78 254 -236
	c43 -228 -167 -246 -192 -103
	c59 -80 157 22 92 78
	c-62 47 -115 -22 -106 -88
	c21 -141 270 -136 274 52
	c-1 175 -106 264 -322 297
	m357 -250
	c0 -36 51 -34 51 0
	c0 37 -51 36 -51 0
	m-2 -129
	c0 -36 51 -34 51 0
	c0 38 -51 37 -51 0"/>
<use id="bclef" transform="scale(0.045)"
	xlink:href="#ubclef"/>
</defs>
<use x="25.33" y="106.01" xlink:href="#bclef"/>
<defs>
<path id="usharp" fill="currentColor" d="
	m136 -702
	v890
	h32
	v-890
	m128 840
	h32
	v-888
	h-32
	m-232 286
	v116
	l338 -96
	v-116
	m-338 442
	v116
	l338 -98
	v-114"/>
<use id="sh0" transform="translate(-4,5) scale(0.018)"
	xlink:href="#usharp"/>
</defs>
<use x="40.33" y="88.01" xlink:href="#sh0"/>
<g font-family="serif" font-size="16" font-weight="bold" font-style="normal"
	transform="translate(56.33,106.01) scale(1.2,1)">
	<text y="-1" text-anchor="middle">4</text>
	<text y="-13" text-anchor="middle">2</text>
</g>
<use x="74.33" y="94.01" xlink:href="#hd"/>
<path d="M70.83 94.01v20.00" stroke="currentColor" fill="none"/>
<use x="114.33" y="85.01" xlink:href="#hd"/>
<path d="M110.83 85.01v20.00" stroke="currentColor" fill="none"/>
<use x="160.43" y="79.01" xlink:href="#hd"/>
<circle fill="currentColor" cx="168.43" cy="79.01" r="1.2"/>
<path d="M156.93 79.01v20.00" stroke="currentColor" fill="none"/>
<path fill="currentColor"
	d="M202.13 104.91l18.70 2.30v-3.20l-18.70 -2.30"/>
<path fill="currentColor"
	d="M202.53 99.91l18.00 2.30v-3.20l-18.00 -2.30"/>
<use x="206.03" y="82.01" xlink:href="#hd"/>
<path d="M202.53 82.01v21.90" stroke="currentColor" fill="none"/>
<use x="224.03" y="85.01" xlink:href="#hd"/>
<path d="M220.53 85.01v21.20" stroke="currentColor" fill="none"/>
<use x="254.13" y="88.01" xlink:href="#hd"/>
<path d="M250.63 88.01v20.00" stroke="currentColor" fill="none"/>
<path fill="currentColor"
	d="M250.63 108.01c0.6 -5.6 9.6 -9 5.6 -18.4
	c1.6 6 -1.3 11.6 -5.6 12.8
"/>
<use x="282.43" y="85.01" xlink:href="#hd"/>
<path d="M278.93 85.01v20.00" stroke="currentColor" fill="none"/>
<path fill="currentColor"
	d="M278.93 105.01c0.6 -5.6 9.6 -9 5.6 -18.4
	c1.6 6 -1.3 11.6 -5.6 12.8
"/>
<use x="310.73" y="82.01" xlink:href="#hd"/>
<path d="M307.23 82.01v20.00" stroke="currentColor" fill="none"/>
<path fill="currentColor"
	d="M307.23 102.01c0.6 -5.6 9.6 -9 5.6 -18.4
	c1.6 6 -1.3 11.6 -5.6 12.8
"/>
<use x="339.03" y="79.01" xlink:href="#hd"/>
<path d="M335.53 79.01v20.00" stroke="currentColor" fill="none"/>
<path fill="currentColor"
	d="M335.53 99.01c0.6 -5.6 9.6 -9 5.6 -18.4
	c1.6 6 -1.3 11.6 -5.6 12.8
"/>
<defs>
<path id="hl" stroke="currentColor" d="m-6 0h12"/>
</defs>
<use x="375.83" y="76.01" xlink:href="#hl"/>
<use x="375.83" y="76.01" xlink:href="#hd"/>
<path d="M372.33 76.01v20.00" stroke="currentColor" fill="none"/>
</g>
</svg>
