<?xml version="1.0" standalone="no"?>
<!DOCTYPE svg PUBLIC "-//W3C//DTD SVG 1.1//EN"
	"http://www.w3.org/Graphics/SVG/1.1/DTD/svg11.dtd">
<svg xmlns="http://www.w3.org/2000/svg" version="1.1"
	xmlns:xlink="http://www.w3.org/1999/xlink"
	xml:space='preserve' color="black"
	width="7.38in" height="1.34in" viewBox="0 0 531 97">
<title>0703.abc (0703) tune 1</title>
<!-- Creator: abcm2ps-7.8.14 -->
<!-- CreationDate: Mar 13, 2016 18:53 -->
<!-- CommandLine: -qxg 0703.abc -O ../svgs/0703.svg -->
<g transform="scale(0.750)" stroke-width="0.70" font-family="Times" font-size="20.00">
<text x="354.13" y="21.67" text-anchor="middle">0703.  Quartet in A, Op. 18, No. 5, 2nd. Mvt. - Minuet</text>
</g>
<g transform="scale(0.750)" stroke-width="0.70" font-family="Times" font-size="14.00" font-style="italic">
<text x="694.93" y="45.34" text-anchor="end">Ludwig Van Beethoven</text>
</g>
<g transform="scale(0.525)" stroke-width="0.70" font-family="Times" font-size="14.00" font-style="italic">
<defs>
<ellipse id="hd" rx="4.1" ry="2.9"
	transform="rotate(-20)" fill="currentColor"/>
</defs>
<use x="122.76" y="94.16" xlink:href="#hd"/>
<path d="M126.26 94.16v-20.00" stroke="currentColor" fill="none"/>
</g>
<g transform="scale(0.750)" stroke-width="0.70" font-family="Times" font-size="15.00" font-weight="bold">
<text x="93.63" y="68.01">= 120</text>
<path stroke="currentColor" fill="none"
	d="M167.23 106.01v-24.00"/>
<path stroke="currentColor" fill="none"
	d="M262.83 106.01v-24.00"/>
<path stroke="currentColor" fill="none"
	d="M412.83 106.01v-24.00"/>
<path stroke="currentColor" fill="none"
	d="M547.33 106.01v-24.00"/>
<path stroke="currentColor" fill="none"
	d="M642.93 106.01v-24.00"/>
<path stroke="currentColor" fill="none"
	d="M13.33 106.01h681.60m-681.60 -6h681.60m-681.60 -6h681.60m-681.60 -6h681.60m-681.60 -6h681.60"/>
<defs>
<path id="utclef" fill="currentColor" d="m-50 -90
	c-72 -41 -72 -158 52 -188
	c150 -10 220 188 90 256
	c-114 52 -275 0 -293 -136
	c-15 -181 93 -229 220 -334
	c88 -87 79 -133 62 -210
	c-51 33 -94 105 -89 186
	c17 267 36 374 49 574
	c6 96 -19 134 -77 135
	c-80 1 -126 -93 -61 -133
	c85 -41 133 101 31 105
	c23 17 92 37 90 -92
	c-10 -223 -39 -342 -50 -617
	c0 -90 0 -162 96 -232
	c56 72 63 230 22 289
	c-74 106 -257 168 -255 316
	c9 153 148 185 252 133
	c86 -65 29 -192 -80 -176
	c-71 12 -105 67 -59 124"/>
<use id="tclef" transform="scale(0.045)"
	xlink:href="#utclef"/>
</defs>
<use x="25.33" y="106.01" xlink:href="#tclef"/>
<defs>
<path id="usharp" fill="currentColor" d="
	m136 -702
	v890
	h32
	v-890
	m128 840
	h32
	v-888
	h-32
	m-232 286
	v116
	l338 -96
	v-116
	m-338 442
	v116
	l338 -98
	v-114"/>
<use id="sh0" transform="translate(-4,5) scale(0.018)"
	xlink:href="#usharp"/>
</defs>
<use x="40.33" y="82.01" xlink:href="#sh0"/>
<use x="45.83" y="91.01" xlink:href="#sh0"/>
<use x="51.33" y="79.01" xlink:href="#sh0"/>
<g font-family="serif" font-size="16" font-weight="bold" font-style="normal"
	transform="translate(67.33,106.01) scale(1.2,1)">
	<text y="-1" text-anchor="middle">4</text>
	<text y="-13" text-anchor="middle">3</text>
</g>
<use x="85.33" y="91.01" xlink:href="#hd"/>
<path d="M81.83 91.01v20.00" stroke="currentColor" fill="none"/>
<defs>
<path id="Hd" fill="currentColor" d="m3 -1.6
	c-1 -1.8 -7 1.4 -6 3.2
	c1 1.8 7 -1.4 6 -3.2
	m0.5 -0.3
	c2 3.8 -5 7.6 -7 3.8
	c-2 -3.8 5 -7.6 7 -3.8"/>
</defs>
<use x="123.73" y="85.01" xlink:href="#Hd"/>
<path d="M120.23 85.01v20.00" stroke="currentColor" fill="none"/>
<use x="180.93" y="85.01" xlink:href="#hd"/>
<path d="M177.43 85.01v20.00" stroke="currentColor" fill="none"/>
<use x="219.33" y="94.01" xlink:href="#Hd"/>
<path d="M215.83 94.01v20.00" stroke="currentColor" fill="none"/>
<use x="276.43" y="94.01" xlink:href="#hd"/>
<path d="M272.93 94.01v20.00" stroke="currentColor" fill="none"/>
<use x="314.83" y="88.01" xlink:href="#hd"/>
<path d="M311.33 88.01v20.00" stroke="currentColor" fill="none"/>
<path fill="currentColor"
	d="M311.33 108.01c0.6 -5.6 9.6 -9 5.6 -18.4
	c1.6 6 -1.3 11.6 -5.6 12.8
"/>
<path fill="currentColor"
	d="M338.23 111.61l49.60 4.90v-3.20l-49.60 -4.90"/>
<use x="342.03" y="91.01" xlink:href="#hd"/>
<path d="M338.53 91.01v19.60" stroke="currentColor" fill="none"/>
<use x="366.53" y="94.01" xlink:href="#hd"/>
<path d="M363.03 94.01v19.00" stroke="currentColor" fill="none"/>
<use x="391.03" y="97.01" xlink:href="#hd"/>
<path d="M387.53 97.01v18.40" stroke="currentColor" fill="none"/>
<path fill="currentColor"
	d="M429.63 79.71l25.20 -2.50v3.20l-25.20 2.50"/>
<use x="426.43" y="100.01" xlink:href="#hd"/>
<path d="M429.93 100.01v-19.30" stroke="currentColor" fill="none"/>
<use x="450.93" y="97.01" xlink:href="#hd"/>
<path d="M454.43 97.01v-18.70" stroke="currentColor" fill="none"/>
<use x="478.13" y="91.01" xlink:href="#hd"/>
<path d="M474.63 91.01v20.00" stroke="currentColor" fill="none"/>
<use x="516.53" y="94.01" xlink:href="#hd"/>
<path d="M513.03 94.01v20.00" stroke="currentColor" fill="none"/>
<use x="560.93" y="91.01" xlink:href="#hd"/>
<path d="M557.43 91.01v20.00" stroke="currentColor" fill="none"/>
<use x="599.43" y="85.01" xlink:href="#Hd"/>
<path d="M595.93 85.01v20.00" stroke="currentColor" fill="none"/>
<use x="656.53" y="85.01" xlink:href="#hd"/>
<path d="M653.03 85.01v20.00" stroke="currentColor" fill="none"/>
<path fill="currentColor"
	d="M127.23 83.01c7.67 -5.40 42.47 -5.40 50.14 -0.00
	l0.00 -0.25c-9.17 -7.15 -40.97 -7.15 -50.14 0.25"/>
<path fill="currentColor"
	d="M222.83 94.01c7.67 -5.40 42.47 -5.40 50.14 -0.00
	l0.00 -0.25c-9.17 -7.15 -40.97 -7.15 -50.14 0.25"/>
<path fill="currentColor"
	d="M602.93 83.01c7.67 -5.40 42.47 -5.40 50.14 -0.00
	l0.00 -0.25c-9.17 -7.15 -40.97 -7.15 -50.14 0.25"/>
</g>
</svg>
