<?xml version="1.0" standalone="no"?>
<!DOCTYPE svg PUBLIC "-//W3C//DTD SVG 1.1//EN"
	"http://www.w3.org/Graphics/SVG/1.1/DTD/svg11.dtd">
<svg xmlns="http://www.w3.org/2000/svg" version="1.1"
	xmlns:xlink="http://www.w3.org/1999/xlink"
	xml:space='preserve' color="black"
	width="7.38in" height="1.36in" viewBox="0 0 531 98">
<title>0716.abc (0716) tune 1</title>
<!-- Creator: abcm2ps-7.8.14 -->
<!-- CreationDate: Mar 13, 2016 18:53 -->
<!-- CommandLine: -qxg 0716.abc -O ../svgs/0716.svg -->
<g transform="scale(0.750)" stroke-width="0.70" font-family="Times" font-size="20.00">
<text x="354.13" y="21.67" text-anchor="middle">0716.  Quartet in F, Op. 59, No. 1, 4th. Mvt.</text>
</g>
<g transform="scale(0.750)" stroke-width="0.70" font-family="Times" font-size="14.00" font-style="italic">
<text x="694.93" y="45.34" text-anchor="end">Ludwig Van Beethoven</text>
</g>
<g transform="scale(0.525)" stroke-width="0.70" font-family="Times" font-size="14.00" font-style="italic">
<defs>
<ellipse id="hd" rx="4.1" ry="2.9"
	transform="rotate(-20)" fill="currentColor"/>
</defs>
<use x="107.04" y="94.16" xlink:href="#hd"/>
<path d="M110.54 94.16v-20.00" stroke="currentColor" fill="none"/>
</g>
<g transform="scale(0.750)" stroke-width="0.70" font-family="Times" font-size="15.00" font-weight="bold">
<text x="82.63" y="68.01">= 120</text>
<path stroke="currentColor" fill="none"
	d="M176.63 108.01v-24.00"/>
<path stroke="currentColor" fill="none"
	d="M298.33 108.01v-24.00"/>
<path stroke="currentColor" fill="none"
	d="M414.73 108.01v-24.00"/>
<path stroke="currentColor" fill="none"
	d="M13.33 108.01h455.60m-455.60 -6h455.60m-455.60 -6h455.60m-455.60 -6h455.60m-455.60 -6h455.60"/>
<defs>
<path id="ubclef" fill="currentColor" d="m-200 -87
	c124 -35 222 -78 254 -236
	c43 -228 -167 -246 -192 -103
	c59 -80 157 22 92 78
	c-62 47 -115 -22 -106 -88
	c21 -141 270 -136 274 52
	c-1 175 -106 264 -322 297
	m357 -250
	c0 -36 51 -34 51 0
	c0 37 -51 36 -51 0
	m-2 -129
	c0 -36 51 -34 51 0
	c0 38 -51 37 -51 0"/>
<use id="bclef" transform="scale(0.045)"
	xlink:href="#ubclef"/>
</defs>
<use x="25.33" y="108.01" xlink:href="#bclef"/>
<defs>
<path id="uflat" fill="currentColor" d="
	m100 -746
	h32
	v734
	l-32 4
	m32 -332
	c46 -72 152 -90 208 -20
	c100 110 -120 326 -208 348
	m0 -28
	c54 0 200 -206 130 -290
	c-50 -60 -130 -4 -130 34"/>
<use id="ft0" transform="translate(-3.5,3.5) scale(0.018)"
	xlink:href="#uflat"/>
</defs>
<use x="40.33" y="102.01" xlink:href="#ft0"/>
<g font-family="serif" font-size="16" font-weight="bold" font-style="normal"
	transform="translate(56.33,108.01) scale(1.2,1)">
	<text y="-1" text-anchor="middle">4</text>
	<text y="-13" text-anchor="middle">2</text>
</g>
<use x="74.33" y="96.01" xlink:href="#hd"/>
<path d="M77.83 96.01v-20.00" stroke="currentColor" fill="none"/>
<use x="114.33" y="99.01" xlink:href="#hd"/>
<path d="M117.83 99.01v-20.00" stroke="currentColor" fill="none"/>
<path fill="currentColor"
	d="	M117.83 79.01c0.6 5.6 9.6 9 5.6 18.4
	c1.6 -6 -1.3 -11.6 -5.6 -12.8
"/>
<path fill="currentColor"
	d="M138.83 118.21l18.70 -2.30v-3.20l-18.70 2.30"/>
<path fill="currentColor"
	d="M139.13 113.21l18.00 -2.20v-3.20l-18.00 2.20"/>
<use x="142.63" y="96.01" xlink:href="#hd"/>
<path d="M139.13 96.01v21.20" stroke="currentColor" fill="none"/>
<use x="160.63" y="93.01" xlink:href="#hd"/>
<path d="M157.13 93.01v22.00" stroke="currentColor" fill="none"/>
<use x="190.73" y="90.01" xlink:href="#hd"/>
<path d="M187.23 90.01v20.00" stroke="currentColor" fill="none"/>
<path fill="currentColor"
	d="M187.23 110.01c0.6 -5.6 9.6 -9 5.6 -18.4
	c1.6 6 -1.3 11.6 -5.6 12.8
"/>
<use x="219.13" y="90.01" xlink:href="#hd"/>
<path d="M215.63 90.01v20.00" stroke="currentColor" fill="none"/>
<path fill="currentColor"
	d="M215.63 110.01c0.6 -5.6 9.6 -9 5.6 -18.4
	c1.6 6 -1.3 11.6 -5.6 12.8
"/>
<use x="247.43" y="87.01" xlink:href="#hd"/>
<path d="M243.93 87.01v20.00" stroke="currentColor" fill="none"/>
<path fill="currentColor"
	d="M243.93 107.01c0.6 -5.6 9.6 -9 5.6 -18.4
	c1.6 6 -1.3 11.6 -5.6 12.8
"/>
<use x="275.73" y="87.01" xlink:href="#hd"/>
<path d="M272.23 87.01v20.00" stroke="currentColor" fill="none"/>
<path fill="currentColor"
	d="M272.23 107.01c0.6 -5.6 9.6 -9 5.6 -18.4
	c1.6 6 -1.3 11.6 -5.6 12.8
"/>
<use x="312.43" y="84.01" xlink:href="#hd"/>
<path d="M308.93 84.01v20.00" stroke="currentColor" fill="none"/>
<defs>
<path id="hl" stroke="currentColor" d="m-6 0h12"/>
</defs>
<use x="352.43" y="78.01" xlink:href="#hl"/>
<use x="352.43" y="78.01" xlink:href="#hd"/>
<path d="M348.93 78.01v20.00" stroke="currentColor" fill="none"/>
<path fill="currentColor"
	d="M348.93 98.01c0.6 -5.6 9.6 -9 5.6 -18.4
	c1.6 6 -1.3 11.6 -5.6 12.8
"/>
<path fill="currentColor"
	d="M376.93 100.91l18.70 2.30v-3.20l-18.70 -2.30"/>
<path fill="currentColor"
	d="M377.23 96.01l18.00 2.20v-3.20l-18.00 -2.20"/>
<use x="380.73" y="78.01" xlink:href="#hl"/>
<use x="380.73" y="78.01" xlink:href="#hd"/>
<path d="M377.23 78.01v22.00" stroke="currentColor" fill="none"/>
<use x="398.73" y="81.01" xlink:href="#hd"/>
<path d="M395.23 81.01v21.20" stroke="currentColor" fill="none"/>
<use x="428.93" y="84.01" xlink:href="#hd"/>
<path d="M425.43 84.01v20.00" stroke="currentColor" fill="none"/>
</g>
</svg>
