<?xml version="1.0" standalone="no"?>
<!DOCTYPE svg PUBLIC "-//W3C//DTD SVG 1.1//EN"
	"http://www.w3.org/Graphics/SVG/1.1/DTD/svg11.dtd">
<svg xmlns="http://www.w3.org/2000/svg" version="1.1"
	xmlns:xlink="http://www.w3.org/1999/xlink"
	xml:space='preserve' color="black"
	width="7.38in" height="1.34in" viewBox="0 0 531 97">
<title>0763.abc (0763) tune 1</title>
<!-- Creator: abcm2ps-7.8.14 -->
<!-- CreationDate: Mar 13, 2016 18:53 -->
<!-- CommandLine: -qxg 0763.abc -O ../svgs/0763.svg -->
<g transform="scale(0.750)" stroke-width="0.70" font-family="Times" font-size="20.00">
<text x="354.13" y="21.67" text-anchor="middle">0763.  Quartet in A Minor, Op. 132, 2nd. Mvt. - 1st. Theme - Two Motives</text>
</g>
<g transform="scale(0.750)" stroke-width="0.70" font-family="Times" font-size="14.00" font-style="italic">
<text x="694.93" y="45.34" text-anchor="end">Ludwig Van Beethoven</text>
</g>
<g transform="scale(0.525)" stroke-width="0.70" font-family="Times" font-size="14.00" font-style="italic">
<defs>
<ellipse id="hd" rx="4.1" ry="2.9"
	transform="rotate(-20)" fill="currentColor"/>
</defs>
<use x="122.76" y="94.16" xlink:href="#hd"/>
<path d="M126.26 94.16v-20.00" stroke="currentColor" fill="none"/>
</g>
<g transform="scale(0.750)" stroke-width="0.70" font-family="Times" font-size="15.00" font-weight="bold">
<text x="93.63" y="68.01">= 120</text>
<path stroke="currentColor" fill="none"
	d="M178.53 106.01v-24.00"/>
<path stroke="currentColor" fill="none"
	d="M284.13 106.01v-24.00"/>
<path stroke="currentColor" fill="none"
	d="M396.23 106.01v-24.00"/>
<path stroke="currentColor" fill="none"
	d="M507.73 106.01v-24.00"/>
<path stroke="currentColor" fill="none"
	d="M603.63 106.01v-24.00"/>
<path stroke="currentColor" fill="none"
	d="M13.33 106.01h681.60m-681.60 -6h681.60m-681.60 -6h681.60m-681.60 -6h681.60m-681.60 -6h681.60"/>
<defs>
<path id="utclef" fill="currentColor" d="m-50 -90
	c-72 -41 -72 -158 52 -188
	c150 -10 220 188 90 256
	c-114 52 -275 0 -293 -136
	c-15 -181 93 -229 220 -334
	c88 -87 79 -133 62 -210
	c-51 33 -94 105 -89 186
	c17 267 36 374 49 574
	c6 96 -19 134 -77 135
	c-80 1 -126 -93 -61 -133
	c85 -41 133 101 31 105
	c23 17 92 37 90 -92
	c-10 -223 -39 -342 -50 -617
	c0 -90 0 -162 96 -232
	c56 72 63 230 22 289
	c-74 106 -257 168 -255 316
	c9 153 148 185 252 133
	c86 -65 29 -192 -80 -176
	c-71 12 -105 67 -59 124"/>
<use id="tclef" transform="scale(0.045)"
	xlink:href="#utclef"/>
</defs>
<use x="25.33" y="106.01" xlink:href="#tclef"/>
<defs>
<path id="usharp" fill="currentColor" d="
	m136 -702
	v890
	h32
	v-890
	m128 840
	h32
	v-888
	h-32
	m-232 286
	v116
	l338 -96
	v-116
	m-338 442
	v116
	l338 -98
	v-114"/>
<use id="sh0" transform="translate(-4,5) scale(0.018)"
	xlink:href="#usharp"/>
</defs>
<use x="40.33" y="82.01" xlink:href="#sh0"/>
<use x="45.83" y="91.01" xlink:href="#sh0"/>
<use x="51.33" y="79.01" xlink:href="#sh0"/>
<g font-family="serif" font-size="16" font-weight="bold" font-style="normal"
	transform="translate(67.33,106.01) scale(1.2,1)">
	<text y="-1" text-anchor="middle">4</text>
	<text y="-13" text-anchor="middle">3</text>
</g>
<defs>
<path id="hl" stroke="currentColor" d="m-6 0h12"/>
</defs>
<use x="85.33" y="112.01" xlink:href="#hl"/>
<use x="85.33" y="118.01" xlink:href="#hl"/>
<use x="85.33" y="121.01" xlink:href="#hd"/>
<path d="M88.83 121.01v-27.00" stroke="currentColor" fill="none"/>
<use x="118.63" y="112.01" xlink:href="#hl"/>
<use x="118.63" y="118.01" xlink:href="#hl"/>
<use x="118.63" y="118.01" xlink:href="#hd"/>
<path d="M122.13 118.01v-24.00" stroke="currentColor" fill="none"/>
<use x="151.83" y="112.01" xlink:href="#hl"/>
<use x="151.83" y="112.01" xlink:href="#hd"/>
<path d="M155.33 112.01v-20.00" stroke="currentColor" fill="none"/>
<use x="191.03" y="112.01" xlink:href="#hl"/>
<use x="191.03" y="112.01" xlink:href="#hd"/>
<path d="M194.53 112.01v-20.00" stroke="currentColor" fill="none"/>
<use x="224.23" y="109.01" xlink:href="#hd"/>
<path d="M227.73 109.01v-20.00" stroke="currentColor" fill="none"/>
<use x="257.43" y="103.01" xlink:href="#hd"/>
<path d="M260.93 103.01v-20.00" stroke="currentColor" fill="none"/>
<use x="302.63" y="112.01" xlink:href="#hl"/>
<use x="302.63" y="118.01" xlink:href="#hl"/>
<use x="302.63" y="118.01" xlink:href="#hd"/>
<use x="293.63" y="118.01" xlink:href="#sh0"/>
<path d="M306.13 118.01v-24.00" stroke="currentColor" fill="none"/>
<use x="335.93" y="112.01" xlink:href="#hl"/>
<use x="335.93" y="115.01" xlink:href="#hd"/>
<path d="M339.43 115.01v-21.00" stroke="currentColor" fill="none"/>
<use x="369.53" y="109.01" xlink:href="#hd"/>
<use x="360.53" y="109.01" xlink:href="#sh0"/>
<path d="M373.03 109.01v-20.00" stroke="currentColor" fill="none"/>
<use x="414.73" y="109.01" xlink:href="#hd"/>
<use x="405.73" y="109.01" xlink:href="#sh0"/>
<path d="M418.23 109.01v-20.00" stroke="currentColor" fill="none"/>
<use x="447.93" y="106.01" xlink:href="#hd"/>
<path d="M451.43 106.01v-20.00" stroke="currentColor" fill="none"/>
<use x="481.13" y="100.01" xlink:href="#hd"/>
<path d="M484.63 100.01v-20.00" stroke="currentColor" fill="none"/>
<defs>
<path id="Hd" fill="currentColor" d="m3 -1.6
	c-1 -1.8 -7 1.4 -6 3.2
	c1 1.8 7 -1.4 6 -3.2
	m0.5 -0.3
	c2 3.8 -5 7.6 -7 3.8
	c-2 -3.8 5 -7.6 7 -3.8"/>
</defs>
<use x="520.73" y="91.01" xlink:href="#Hd"/>
<path d="M517.23 91.01v20.00" stroke="currentColor" fill="none"/>
<path fill="currentColor"
	d="M566.13 74.31l22.40 2.40v3.20l-22.40 -2.40"/>
<use x="562.93" y="94.01" xlink:href="#hd"/>
<path d="M566.43 94.01v-18.70" stroke="currentColor" fill="none"/>
<use x="584.63" y="97.01" xlink:href="#hd"/>
<defs>
<path id="unat" fill="currentColor" d="
	m96 -750
	h-32
	v716
	l32 -8
	l182 -54
	v282
	h32
	v-706
	l-34 10
	l-180 50
	v-290
	m0 592
	v-190
	l182 -52
	v188"/>
<use id="nt0" transform="translate(-3,5) scale(0.018)"
	xlink:href="#unat"/>
</defs>
<use x="575.63" y="97.01" xlink:href="#nt0"/>
<path d="M588.13 97.01v-19.30" stroke="currentColor" fill="none"/>
<path fill="currentColor"
	d="M619.33 80.31l22.40 2.40v3.20l-22.40 -2.40"/>
<use x="616.13" y="100.01" xlink:href="#hd"/>
<path d="M619.63 100.01v-18.70" stroke="currentColor" fill="none"/>
<use x="637.93" y="103.01" xlink:href="#hd"/>
<use x="628.93" y="103.01" xlink:href="#nt0"/>
<path d="M641.43 103.01v-19.30" stroke="currentColor" fill="none"/>
<use x="661.93" y="103.01" xlink:href="#hd"/>
<use x="652.93" y="103.01" xlink:href="#sh0"/>
<path d="M665.43 103.01v-20.00" stroke="currentColor" fill="none"/>
</g>
</svg>
