<?xml version="1.0" standalone="no"?>
<!DOCTYPE svg PUBLIC "-//W3C//DTD SVG 1.1//EN"
	"http://www.w3.org/Graphics/SVG/1.1/DTD/svg11.dtd">
<svg xmlns="http://www.w3.org/2000/svg" version="1.1"
	xmlns:xlink="http://www.w3.org/1999/xlink"
	xml:space='preserve' color="black"
	width="7.38in" height="1.34in" viewBox="0 0 531 97">
<title>0781.abc (0781) tune 1</title>
<!-- Creator: abcm2ps-7.8.14 -->
<!-- CreationDate: Mar 13, 2016 18:53 -->
<!-- CommandLine: -qxg 0781.abc -O ../svgs/0781.svg -->
<g transform="scale(0.750)" stroke-width="0.70" font-family="Times" font-size="20.00">
<text x="354.13" y="21.67" text-anchor="middle">0781.  Romance No. 2, in F, Op. 50, Vn. and Orch.</text>
</g>
<g transform="scale(0.750)" stroke-width="0.70" font-family="Times" font-size="14.00" font-style="italic">
<text x="694.93" y="45.34" text-anchor="end">Ludwig Van Beethoven</text>
</g>
<g transform="scale(0.525)" stroke-width="0.70" font-family="Times" font-size="14.00" font-style="italic">
<defs>
<ellipse id="hd" rx="4.1" ry="2.9"
	transform="rotate(-20)" fill="currentColor"/>
</defs>
<use x="107.04" y="94.16" xlink:href="#hd"/>
<path d="M110.54 94.16v-20.00" stroke="currentColor" fill="none"/>
</g>
<g transform="scale(0.750)" stroke-width="0.70" font-family="Times" font-size="15.00" font-weight="bold">
<text x="82.63" y="68.01">= 120</text>
<path stroke="currentColor" fill="none"
	d="M306.33 106.01v-24.00"/>
<path stroke="currentColor" fill="none"
	d="M524.13 106.01v-24.00"/>
<path stroke="currentColor" fill="none"
	d="M13.33 106.01h681.60m-681.60 -6h681.60m-681.60 -6h681.60m-681.60 -6h681.60m-681.60 -6h681.60"/>
<defs>
<path id="utclef" fill="currentColor" d="m-50 -90
	c-72 -41 -72 -158 52 -188
	c150 -10 220 188 90 256
	c-114 52 -275 0 -293 -136
	c-15 -181 93 -229 220 -334
	c88 -87 79 -133 62 -210
	c-51 33 -94 105 -89 186
	c17 267 36 374 49 574
	c6 96 -19 134 -77 135
	c-80 1 -126 -93 -61 -133
	c85 -41 133 101 31 105
	c23 17 92 37 90 -92
	c-10 -223 -39 -342 -50 -617
	c0 -90 0 -162 96 -232
	c56 72 63 230 22 289
	c-74 106 -257 168 -255 316
	c9 153 148 185 252 133
	c86 -65 29 -192 -80 -176
	c-71 12 -105 67 -59 124"/>
<use id="tclef" transform="scale(0.045)"
	xlink:href="#utclef"/>
</defs>
<use x="25.33" y="106.01" xlink:href="#tclef"/>
<defs>
<path id="uflat" fill="currentColor" d="
	m100 -746
	h32
	v734
	l-32 4
	m32 -332
	c46 -72 152 -90 208 -20
	c100 110 -120 326 -208 348
	m0 -28
	c54 0 200 -206 130 -290
	c-50 -60 -130 -4 -130 34"/>
<use id="ft0" transform="translate(-3.5,3.5) scale(0.018)"
	xlink:href="#uflat"/>
</defs>
<use x="40.33" y="94.01" xlink:href="#ft0"/>
<g font-family="serif" font-size="16" font-weight="bold" font-style="normal"
	transform="translate(56.33,106.01) scale(1.2,1)">
	<text y="-1" text-anchor="middle">2</text>
	<text y="-13" text-anchor="middle">2</text>
</g>
<path fill="currentColor"
	d="M70.53 104.21l18.80 -2.30v-3.20l-18.80 2.30"/>
<path fill="currentColor"
	d="M70.83 99.21l18.10 -2.30v-3.20l-18.10 2.30"/>
<use x="74.33" y="82.01" xlink:href="#hd"/>
<path d="M70.83 82.01v21.20" stroke="currentColor" fill="none"/>
<use x="92.43" y="79.01" xlink:href="#hd"/>
<path d="M88.93 79.01v21.90" stroke="currentColor" fill="none"/>
<path fill="currentColor"
	d="M108.73 104.91l18.80 2.30v-3.20l-18.80 -2.30"/>
<path fill="currentColor"
	d="M109.13 99.91l18.10 2.30v-3.20l-18.10 -2.30"/>
<use x="112.63" y="82.01" xlink:href="#hd"/>
<path d="M109.13 82.01v21.90" stroke="currentColor" fill="none"/>
<use x="130.73" y="85.01" xlink:href="#hd"/>
<path d="M127.23 85.01v21.20" stroke="currentColor" fill="none"/>
<use x="150.83" y="82.01" xlink:href="#hd"/>
<path d="M147.33 82.01v20.00" stroke="currentColor" fill="none"/>
<defs>
<path id="hl" stroke="currentColor" d="m-6 0h12"/>
</defs>
<use x="191.13" y="76.01" xlink:href="#hl"/>
<use x="191.13" y="76.01" xlink:href="#hd"/>
<path d="M187.63 76.01v20.00" stroke="currentColor" fill="none"/>
<path fill="currentColor"
	d="M187.63 96.01c0.6 -5.6 9.6 -9 5.6 -18.4
	c1.6 6 -1.3 11.6 -5.6 12.8
"/>
<path fill="currentColor"
	d="M215.73 102.01l44.40 0.00v-3.20l-44.40 -0.00"/>
<path fill="currentColor"
	d="M222.13 97.01l-6.00 -0.00v-3.20l6.00 0.00"/>
<path fill="currentColor"
	d="M253.83 97.01l6.00 0.00v-3.20l-6.00 -0.00"/>
<use x="219.63" y="79.01" xlink:href="#hd"/>
<path d="M216.13 79.01v22.00" stroke="currentColor" fill="none"/>
<use x="237.73" y="76.01" xlink:href="#hl"/>
<use x="237.73" y="73.01" xlink:href="#hd"/>
<path d="M234.23 73.01v28.00" stroke="currentColor" fill="none"/>
<use x="263.33" y="79.01" xlink:href="#hd"/>
<path d="M259.83 79.01v22.00" stroke="currentColor" fill="none"/>
<use x="283.53" y="82.01" xlink:href="#hd"/>
<path d="M280.03 82.01v20.00" stroke="currentColor" fill="none"/>
<path fill="currentColor"
	d="M280.03 102.01c0.6 -5.6 9.6 -9 5.6 -18.4
	c1.6 6 -1.3 11.6 -5.6 12.8
"/>
<path fill="currentColor"
	d="M316.73 104.71l29.90 2.50v-3.20l-29.90 -2.50"/>
<path fill="currentColor"
	d="M340.23 101.71l6.00 0.50v-3.20l-6.00 -0.50"/>
<use x="320.53" y="82.01" xlink:href="#hd"/>
<circle fill="currentColor" cx="328.53" cy="79.01" r="1.2"/>
<path d="M317.03 82.01v21.70" stroke="currentColor" fill="none"/>
<use x="349.73" y="85.01" xlink:href="#hd"/>
<path d="M346.23 85.01v21.20" stroke="currentColor" fill="none"/>
<path fill="currentColor"
	d="M366.03 103.51l18.80 3.70v-3.20l-18.80 -3.70"/>
<path fill="currentColor"
	d="M366.33 98.61l18.10 3.60v-3.20l-18.10 -3.60"/>
<use x="369.83" y="79.01" xlink:href="#hd"/>
<path d="M366.33 79.01v23.60" stroke="currentColor" fill="none"/>
<use x="387.93" y="85.01" xlink:href="#hd"/>
<path d="M384.43 85.01v21.20" stroke="currentColor" fill="none"/>
<use x="408.13" y="91.01" xlink:href="#hd"/>
<path d="M404.63 91.01v20.00" stroke="currentColor" fill="none"/>
<defs>
<path id="r8e" fill="currentColor" d="m 0 0
	c-1.5 1.5 -2.4 2 -3.6 2
	c2.4 -2.8 -2.8 -4 -2.8 -1.2
	c0 2.7 4.3 2.4 5.9 0.6"/>
<g id="r8">
	<path d="m3.3 -4l-3.4 9.6" stroke="currentColor" fill="none"/>
	<use x="3.4" y="-4" xlink:href="#r8e"/>
</g>
</defs>
<use x="444.33" y="94.01" xlink:href="#r8"/>
<use x="472.83" y="91.01" xlink:href="#hd"/>
<path d="M469.33 91.01v20.00" stroke="currentColor" fill="none"/>
<path fill="currentColor"
	d="M469.33 111.01c0.6 -5.6 9.6 -9 5.6 -18.4
	c1.6 6 -1.3 11.6 -5.6 12.8
"/>
<use x="501.33" y="82.01" xlink:href="#hd"/>
<path d="M497.83 82.01v20.00" stroke="currentColor" fill="none"/>
<path fill="currentColor"
	d="M497.83 102.01c0.6 -5.6 9.6 -9 5.6 -18.4
	c1.6 6 -1.3 11.6 -5.6 12.8
"/>
<use x="538.33" y="82.01" xlink:href="#hd"/>
<path d="M534.83 82.01v20.00" stroke="currentColor" fill="none"/>
<path fill="currentColor"
	d="M534.83 102.01c0.6 -5.6 9.6 -9 5.6 -18.4
	c1.6 6 -1.3 11.6 -5.6 12.8
"/>
<defs>
<g id="r32">
	<path d="m4.8 -10l-5.5 21.6" stroke="currentColor" fill="none"/>
	<use x="4.9" y="-10" xlink:href="#r8e"/>
	<use x="3.4" y="-4" xlink:href="#r8e"/>
	<use x="1.9" y="2" xlink:href="#r8e"/>
</g>
</defs>
<use x="564.03" y="94.01" xlink:href="#r32"/>
<path fill="currentColor"
	d="M574.43 106.21l18.70 0.00v-3.20l-18.70 -0.00"/>
<path fill="currentColor"
	d="M574.73 101.21l18.00 0.00v-3.20l-18.00 -0.00"/>
<path fill="currentColor"
	d="M580.73 96.21l-6.00 -0.00v-3.20l6.00 0.00"/>
<use x="578.23" y="79.01" xlink:href="#hd"/>
<path d="M574.73 79.01v26.20" stroke="currentColor" fill="none"/>
<use x="596.23" y="79.01" xlink:href="#hd"/>
<use x="587.23" y="79.01" xlink:href="#ft0"/>
<path d="M592.73 79.01v26.20" stroke="currentColor" fill="none"/>
<path fill="currentColor"
	d="M612.53 101.21l18.80 -2.30v-3.20l-18.80 2.30"/>
<path fill="currentColor"
	d="M612.93 96.21l18.10 -2.30v-3.20l-18.10 2.30"/>
<use x="616.43" y="79.01" xlink:href="#hd"/>
<defs>
<path id="unat" fill="currentColor" d="
	m96 -750
	h-32
	v716
	l32 -8
	l182 -54
	v282
	h32
	v-706
	l-34 10
	l-180 50
	v-290
	m0 592
	v-190
	l182 -52
	v188"/>
<use id="nt0" transform="translate(-3,5) scale(0.018)"
	xlink:href="#unat"/>
</defs>
<use x="607.43" y="79.01" xlink:href="#nt0"/>
<path d="M612.93 79.01v21.20" stroke="currentColor" fill="none"/>
<use x="634.53" y="76.01" xlink:href="#hl"/>
<use x="634.53" y="76.01" xlink:href="#hd"/>
<use x="625.53" y="76.01" xlink:href="#ft0"/>
<path d="M631.03 76.01v21.90" stroke="currentColor" fill="none"/>
<use x="654.63" y="76.01" xlink:href="#hl"/>
<use x="654.63" y="76.01" xlink:href="#hd"/>
<use x="645.63" y="76.01" xlink:href="#nt0"/>
<path d="M651.13 76.01v20.00" stroke="currentColor" fill="none"/>
<path fill="currentColor"
	d="M287.03 82.01c4.73 -5.04 25.31 -5.04 30.04 -0.00
	l0.00 -0.23c-5.63 -6.81 -24.41 -6.81 -30.04 0.23"/>
<path fill="currentColor"
	d="M504.83 82.01c4.73 -5.04 25.31 -5.04 30.04 -0.00
	l0.00 -0.23c-5.63 -6.81 -24.41 -6.81 -30.04 0.23"/>
</g>
</svg>
