<?xml version="1.0" standalone="no"?>
<!DOCTYPE svg PUBLIC "-//W3C//DTD SVG 1.1//EN"
	"http://www.w3.org/Graphics/SVG/1.1/DTD/svg11.dtd">
<svg xmlns="http://www.w3.org/2000/svg" version="1.1"
	xmlns:xlink="http://www.w3.org/1999/xlink"
	xml:space='preserve' color="black"
	width="7.38in" height="1.34in" viewBox="0 0 531 97">
<title>0785.abc (0785) tune 1</title>
<!-- Creator: abcm2ps-7.8.14 -->
<!-- CreationDate: Mar 13, 2016 18:53 -->
<!-- CommandLine: -qxg 0785.abc -O ../svgs/0785.svg -->
<g transform="scale(0.750)" stroke-width="0.70" font-family="Times" font-size="20.00">
<text x="354.13" y="21.67" text-anchor="middle">0785.  Septet in E Flat, Op. 20, 1st. Mvt. - 2nd. Theme</text>
</g>
<g transform="scale(0.750)" stroke-width="0.70" font-family="Times" font-size="14.00" font-style="italic">
<text x="694.93" y="45.34" text-anchor="end">Ludwig Van Beethoven</text>
</g>
<g transform="scale(0.525)" stroke-width="0.70" font-family="Times" font-size="14.00" font-style="italic">
<defs>
<ellipse id="hd" rx="4.1" ry="2.9"
	transform="rotate(-20)" fill="currentColor"/>
</defs>
<use x="122.76" y="94.16" xlink:href="#hd"/>
<path d="M126.26 94.16v-20.00" stroke="currentColor" fill="none"/>
</g>
<g transform="scale(0.750)" stroke-width="0.70" font-family="Times" font-size="15.00" font-weight="bold">
<text x="93.63" y="68.01">= 120</text>
<path stroke="currentColor" fill="none"
	d="M197.13 106.01v-24.00"/>
<path stroke="currentColor" fill="none"
	d="M332.73 106.01v-24.00"/>
<path stroke="currentColor" fill="none"
	d="M511.33 106.01v-24.00"/>
<path stroke="currentColor" fill="none"
	d="M13.33 106.01h681.60m-681.60 -6h681.60m-681.60 -6h681.60m-681.60 -6h681.60m-681.60 -6h681.60"/>
<defs>
<path id="utclef" fill="currentColor" d="m-50 -90
	c-72 -41 -72 -158 52 -188
	c150 -10 220 188 90 256
	c-114 52 -275 0 -293 -136
	c-15 -181 93 -229 220 -334
	c88 -87 79 -133 62 -210
	c-51 33 -94 105 -89 186
	c17 267 36 374 49 574
	c6 96 -19 134 -77 135
	c-80 1 -126 -93 -61 -133
	c85 -41 133 101 31 105
	c23 17 92 37 90 -92
	c-10 -223 -39 -342 -50 -617
	c0 -90 0 -162 96 -232
	c56 72 63 230 22 289
	c-74 106 -257 168 -255 316
	c9 153 148 185 252 133
	c86 -65 29 -192 -80 -176
	c-71 12 -105 67 -59 124"/>
<use id="tclef" transform="scale(0.045)"
	xlink:href="#utclef"/>
</defs>
<use x="25.33" y="106.01" xlink:href="#tclef"/>
<defs>
<path id="uflat" fill="currentColor" d="
	m100 -746
	h32
	v734
	l-32 4
	m32 -332
	c46 -72 152 -90 208 -20
	c100 110 -120 326 -208 348
	m0 -28
	c54 0 200 -206 130 -290
	c-50 -60 -130 -4 -130 34"/>
<use id="ft0" transform="translate(-3.5,3.5) scale(0.018)"
	xlink:href="#uflat"/>
</defs>
<use x="40.33" y="94.01" xlink:href="#ft0"/>
<use x="45.83" y="85.01" xlink:href="#ft0"/>
<use x="51.33" y="97.01" xlink:href="#ft0"/>
<g font-family="serif" font-size="16" font-weight="bold" font-style="normal"
	transform="translate(67.33,106.01) scale(1.2,1)">
	<text y="-1" text-anchor="middle">4</text>
	<text y="-13" text-anchor="middle">4</text>
</g>
<use x="85.33" y="103.01" xlink:href="#hd"/>
<path d="M88.83 103.01v-20.00" stroke="currentColor" fill="none"/>
<path fill="currentColor"
	d="	M88.83 83.01c0.6 5.6 9.6 9 5.6 18.4
	c1.6 -6 -1.3 -11.6 -5.6 -12.8
"/>
<defs>
<path id="Hd" fill="currentColor" d="m3 -1.6
	c-1 -1.8 -7 1.4 -6 3.2
	c1 1.8 7 -1.4 6 -3.2
	m0.5 -0.3
	c2 3.8 -5 7.6 -7 3.8
	c-2 -3.8 5 -7.6 7 -3.8"/>
</defs>
<use x="112.73" y="88.01" xlink:href="#Hd"/>
<path d="M109.23 88.01v20.00" stroke="currentColor" fill="none"/>
<use x="161.93" y="97.01" xlink:href="#hd"/>
<circle fill="currentColor" cx="169.93" cy="97.01" r="1.2"/>
<defs>
<path id="unat" fill="currentColor" d="
	m96 -750
	h-32
	v716
	l32 -8
	l182 -54
	v282
	h32
	v-706
	l-34 10
	l-180 50
	v-290
	m0 592
	v-190
	l182 -52
	v188"/>
<use id="nt0" transform="translate(-3,5) scale(0.018)"
	xlink:href="#unat"/>
</defs>
<use x="152.93" y="97.01" xlink:href="#nt0"/>
<path d="M165.43 97.01v-20.00" stroke="currentColor" fill="none"/>
<use x="215.63" y="97.01" xlink:href="#hd"/>
<use x="206.63" y="97.01" xlink:href="#nt0"/>
<path d="M219.13 97.01v-20.00" stroke="currentColor" fill="none"/>
<path fill="currentColor"
	d="	M219.13 77.01c0.6 5.6 9.6 9 5.6 18.4
	c1.6 -6 -1.3 -11.6 -5.6 -12.8
"/>
<use x="242.93" y="94.01" xlink:href="#Hd"/>
<path d="M246.43 94.01v-20.00" stroke="currentColor" fill="none"/>
<use x="297.53" y="85.01" xlink:href="#hd"/>
<circle fill="currentColor" cx="305.53" cy="85.01" r="1.2"/>
<path d="M294.03 85.01v20.00" stroke="currentColor" fill="none"/>
<use x="346.43" y="85.01" xlink:href="#hd"/>
<path d="M342.93 85.01v20.00" stroke="currentColor" fill="none"/>
<path fill="currentColor"
	d="M342.93 105.01c0.6 -5.6 9.6 -9 5.6 -18.4
	c1.6 6 -1.3 11.6 -5.6 12.8
"/>
<use x="373.73" y="88.01" xlink:href="#hd"/>
<path d="M370.23 88.01v20.00" stroke="currentColor" fill="none"/>
<use x="412.33" y="91.01" xlink:href="#hd"/>
<path d="M408.83 91.01v20.00" stroke="currentColor" fill="none"/>
<use x="450.83" y="94.01" xlink:href="#hd"/>
<path d="M447.33 94.01v20.00" stroke="currentColor" fill="none"/>
<use x="489.43" y="94.01" xlink:href="#hd"/>
<path d="M485.93 94.01v20.00" stroke="currentColor" fill="none"/>
<path fill="currentColor"
	d="M485.93 114.01c0.6 -5.6 9.6 -9 5.6 -18.4
	c1.6 6 -1.3 11.6 -5.6 12.8
"/>
<use x="525.03" y="94.01" xlink:href="#hd"/>
<path d="M521.53 94.01v20.00" stroke="currentColor" fill="none"/>
<path fill="currentColor"
	d="M521.53 114.01c0.6 -5.6 9.6 -9 5.6 -18.4
	c1.6 6 -1.3 11.6 -5.6 12.8
"/>
<use x="552.33" y="94.01" xlink:href="#hd"/>
<path d="M548.83 94.01v20.00" stroke="currentColor" fill="none"/>
<path fill="currentColor"
	d="M548.83 114.01c0.6 -5.6 9.6 -9 5.6 -18.4
	c1.6 6 -1.3 11.6 -5.6 12.8
"/>
<use x="577.03" y="97.01" xlink:href="#hd"/>
<use x="568.03" y="97.01" xlink:href="#nt0"/>
<path d="M580.53 97.01v-20.00" stroke="currentColor" fill="none"/>
<path fill="currentColor"
	d="	M580.53 77.01c0.6 5.6 9.6 9 5.6 18.4
	c1.6 -6 -1.3 -11.6 -5.6 -12.8
"/>
<use x="604.33" y="91.01" xlink:href="#hd"/>
<path d="M600.83 91.01v20.00" stroke="currentColor" fill="none"/>
<path fill="currentColor"
	d="M600.83 111.01c0.6 -5.6 9.6 -9 5.6 -18.4
	c1.6 6 -1.3 11.6 -5.6 12.8
"/>
<use x="629.03" y="97.01" xlink:href="#hd"/>
<use x="620.03" y="97.01" xlink:href="#nt0"/>
<path d="M632.53 97.01v-20.00" stroke="currentColor" fill="none"/>
<path fill="currentColor"
	d="	M632.53 77.01c0.6 5.6 9.6 9 5.6 18.4
	c1.6 -6 -1.3 -11.6 -5.6 -12.8
"/>
<use x="656.43" y="103.01" xlink:href="#hd"/>
<path d="M659.93 103.01v-20.00" stroke="currentColor" fill="none"/>
<path fill="currentColor"
	d="M165.43 99.01c7.21 5.34 39.48 5.34 46.69 -0.00
	l0.00 0.25c-8.61 7.09 -38.08 7.09 -46.69 -0.25"/>
<path fill="currentColor"
	d="M301.03 83.01c6.56 -5.25 35.35 -5.25 41.91 -0.00
	l0.00 -0.24c-7.82 -7.01 -34.09 -7.01 -41.91 0.24"/>
<path fill="currentColor"
	d="M492.93 94.01c4.50 -5.01 24.08 -5.01 28.58 -0.00
	l0.00 -0.23c-5.36 -6.79 -23.22 -6.79 -28.58 0.23"/>
</g>
</svg>
