<?xml version="1.0" standalone="no"?>
<!DOCTYPE svg PUBLIC "-//W3C//DTD SVG 1.1//EN"
	"http://www.w3.org/Graphics/SVG/1.1/DTD/svg11.dtd">
<svg xmlns="http://www.w3.org/2000/svg" version="1.1"
	xmlns:xlink="http://www.w3.org/1999/xlink"
	xml:space='preserve' color="black"
	width="7.38in" height="1.34in" viewBox="0 0 531 97">
<title>0813.abc (0813) tune 1</title>
<!-- Creator: abcm2ps-7.8.14 -->
<!-- CreationDate: Mar 13, 2016 18:53 -->
<!-- CommandLine: -qxg 0813.abc -O ../svgs/0813.svg -->
<g transform="scale(0.750)" stroke-width="0.70" font-family="Times" font-size="20.00">
<text x="354.13" y="21.67" text-anchor="middle">0813.  Sonata No. 1, in F Minor, Op. 2, No. 1, Pft., 1st. Mvt. - 1st. Theme</text>
</g>
<g transform="scale(0.750)" stroke-width="0.70" font-family="Times" font-size="14.00" font-style="italic">
<text x="694.93" y="45.34" text-anchor="end">Ludwig Van Beethoven</text>
</g>
<g transform="scale(0.525)" stroke-width="0.70" font-family="Times" font-size="14.00" font-style="italic">
<defs>
<ellipse id="hd" rx="4.1" ry="2.9"
	transform="rotate(-20)" fill="currentColor"/>
</defs>
<use x="130.61" y="94.16" xlink:href="#hd"/>
<path d="M134.11 94.16v-20.00" stroke="currentColor" fill="none"/>
</g>
<g transform="scale(0.750)" stroke-width="0.70" font-family="Times" font-size="15.00" font-weight="bold">
<text x="99.13" y="68.01">= 120</text>
<path stroke="currentColor" fill="none"
	d="M242.83 106.01v-24.00"/>
<path stroke="currentColor" fill="none"
	d="M422.13 106.01v-24.00"/>
<path stroke="currentColor" fill="none"
	d="M13.33 106.01h408.80m-408.80 -6h408.80m-408.80 -6h408.80m-408.80 -6h408.80m-408.80 -6h408.80"/>
<text font-family="serif" font-size="12" font-style="italic" font-weight="normal"
	x="356.93" y="122.81" text-anchor="middle">3</text>
<defs>
<path id="utclef" fill="currentColor" d="m-50 -90
	c-72 -41 -72 -158 52 -188
	c150 -10 220 188 90 256
	c-114 52 -275 0 -293 -136
	c-15 -181 93 -229 220 -334
	c88 -87 79 -133 62 -210
	c-51 33 -94 105 -89 186
	c17 267 36 374 49 574
	c6 96 -19 134 -77 135
	c-80 1 -126 -93 -61 -133
	c85 -41 133 101 31 105
	c23 17 92 37 90 -92
	c-10 -223 -39 -342 -50 -617
	c0 -90 0 -162 96 -232
	c56 72 63 230 22 289
	c-74 106 -257 168 -255 316
	c9 153 148 185 252 133
	c86 -65 29 -192 -80 -176
	c-71 12 -105 67 -59 124"/>
<use id="tclef" transform="scale(0.045)"
	xlink:href="#utclef"/>
</defs>
<use x="25.33" y="106.01" xlink:href="#tclef"/>
<defs>
<path id="uflat" fill="currentColor" d="
	m100 -746
	h32
	v734
	l-32 4
	m32 -332
	c46 -72 152 -90 208 -20
	c100 110 -120 326 -208 348
	m0 -28
	c54 0 200 -206 130 -290
	c-50 -60 -130 -4 -130 34"/>
<use id="ft0" transform="translate(-3.5,3.5) scale(0.018)"
	xlink:href="#uflat"/>
</defs>
<use x="40.33" y="94.01" xlink:href="#ft0"/>
<use x="45.83" y="85.01" xlink:href="#ft0"/>
<use x="51.33" y="97.01" xlink:href="#ft0"/>
<use x="56.83" y="88.01" xlink:href="#ft0"/>
<g font-family="serif" font-size="16" font-weight="bold" font-style="normal"
	transform="translate(72.83,106.01) scale(1.2,1)">
	<text y="-1" text-anchor="middle">2</text>
	<text y="-13" text-anchor="middle">2</text>
</g>
<defs>
<path id="hl" stroke="currentColor" d="m-6 0h12"/>
</defs>
<use x="90.83" y="112.01" xlink:href="#hl"/>
<use x="90.83" y="112.01" xlink:href="#hd"/>
<path d="M94.33 112.01v-20.00" stroke="currentColor" fill="none"/>
<use x="130.83" y="103.01" xlink:href="#hd"/>
<path d="M134.33 103.01v-20.00" stroke="currentColor" fill="none"/>
<use x="170.83" y="97.01" xlink:href="#hd"/>
<path d="M174.33 97.01v-20.00" stroke="currentColor" fill="none"/>
<use x="210.83" y="91.01" xlink:href="#hd"/>
<path d="M207.33 91.01v20.00" stroke="currentColor" fill="none"/>
<use x="256.93" y="82.01" xlink:href="#hd"/>
<path d="M253.43 82.01v20.00" stroke="currentColor" fill="none"/>
<use x="296.93" y="76.01" xlink:href="#hl"/>
<use x="296.93" y="76.01" xlink:href="#hd"/>
<circle fill="currentColor" cx="304.93" cy="73.01" r="1.2"/>
<path d="M293.43 76.01v20.00" stroke="currentColor" fill="none"/>
<path fill="currentColor"
	d="M338.63 102.81l32.70 4.40v-3.20l-32.70 -4.40"/>
<path fill="currentColor"
	d="M339.03 97.91l32.10 4.30v-3.20l-32.10 -4.30"/>
<use x="342.53" y="79.01" xlink:href="#hd"/>
<path d="M339.03 79.01v22.90" stroke="currentColor" fill="none"/>
<use x="356.53" y="82.01" xlink:href="#hd"/>
<path d="M353.03 82.01v21.80" stroke="currentColor" fill="none"/>
<use x="374.53" y="85.01" xlink:href="#hd"/>
<defs>
<path id="unat" fill="currentColor" d="
	m96 -750
	h-32
	v716
	l32 -8
	l182 -54
	v282
	h32
	v-706
	l-34 10
	l-180 50
	v-290
	m0 592
	v-190
	l182 -52
	v188"/>
<use id="nt0" transform="translate(-3,5) scale(0.018)"
	xlink:href="#unat"/>
</defs>
<use x="365.53" y="85.01" xlink:href="#nt0"/>
<path d="M371.03 85.01v21.20" stroke="currentColor" fill="none"/>
<use x="390.13" y="82.01" xlink:href="#hd"/>
<path d="M386.63 82.01v20.00" stroke="currentColor" fill="none"/>
</g>
</svg>
