<?xml version="1.0" standalone="no"?>
<!DOCTYPE svg PUBLIC "-//W3C//DTD SVG 1.1//EN"
	"http://www.w3.org/Graphics/SVG/1.1/DTD/svg11.dtd">
<svg xmlns="http://www.w3.org/2000/svg" version="1.1"
	xmlns:xlink="http://www.w3.org/1999/xlink"
	xml:space='preserve' color="black"
	width="7.38in" height="1.34in" viewBox="0 0 531 97">
<title>0821.abc (0821) tune 1</title>
<!-- Creator: abcm2ps-7.8.14 -->
<!-- CreationDate: Mar 13, 2016 18:53 -->
<!-- CommandLine: -qxg 0821.abc -O ../svgs/0821.svg -->
<g transform="scale(0.750)" stroke-width="0.70" font-family="Times" font-size="20.00">
<text x="354.13" y="21.67" text-anchor="middle">0821.  Sonata No. 2, in A, Op. 2, No. 2, 1st. Mvt. - 2nd. Theme</text>
</g>
<g transform="scale(0.750)" stroke-width="0.70" font-family="Times" font-size="14.00" font-style="italic">
<text x="694.93" y="45.34" text-anchor="end">Ludwig Van Beethoven</text>
</g>
<g transform="scale(0.525)" stroke-width="0.70" font-family="Times" font-size="14.00" font-style="italic">
<defs>
<ellipse id="hd" rx="4.1" ry="2.9"
	transform="rotate(-20)" fill="currentColor"/>
</defs>
<use x="122.76" y="94.16" xlink:href="#hd"/>
<path d="M126.26 94.16v-20.00" stroke="currentColor" fill="none"/>
</g>
<g transform="scale(0.750)" stroke-width="0.70" font-family="Times" font-size="15.00" font-weight="bold">
<text x="93.63" y="68.01">= 120</text>
<path stroke="currentColor" fill="none"
	d="M192.83 106.01v-24.00"/>
<path stroke="currentColor" fill="none"
	d="M317.63 106.01v-24.00"/>
<path stroke="currentColor" fill="none"
	d="M404.33 106.01v-24.00"/>
<path stroke="currentColor" fill="none"
	d="M483.23 106.01v-24.00"/>
<path stroke="currentColor" fill="none"
	d="M13.33 106.01h469.90m-469.90 -6h469.90m-469.90 -6h469.90m-469.90 -6h469.90m-469.90 -6h469.90"/>
<defs>
<path id="utclef" fill="currentColor" d="m-50 -90
	c-72 -41 -72 -158 52 -188
	c150 -10 220 188 90 256
	c-114 52 -275 0 -293 -136
	c-15 -181 93 -229 220 -334
	c88 -87 79 -133 62 -210
	c-51 33 -94 105 -89 186
	c17 267 36 374 49 574
	c6 96 -19 134 -77 135
	c-80 1 -126 -93 -61 -133
	c85 -41 133 101 31 105
	c23 17 92 37 90 -92
	c-10 -223 -39 -342 -50 -617
	c0 -90 0 -162 96 -232
	c56 72 63 230 22 289
	c-74 106 -257 168 -255 316
	c9 153 148 185 252 133
	c86 -65 29 -192 -80 -176
	c-71 12 -105 67 -59 124"/>
<use id="tclef" transform="scale(0.045)"
	xlink:href="#utclef"/>
</defs>
<use x="25.33" y="106.01" xlink:href="#tclef"/>
<defs>
<path id="usharp" fill="currentColor" d="
	m136 -702
	v890
	h32
	v-890
	m128 840
	h32
	v-888
	h-32
	m-232 286
	v116
	l338 -96
	v-116
	m-338 442
	v116
	l338 -98
	v-114"/>
<use id="sh0" transform="translate(-4,5) scale(0.018)"
	xlink:href="#usharp"/>
</defs>
<use x="40.33" y="82.01" xlink:href="#sh0"/>
<use x="45.83" y="91.01" xlink:href="#sh0"/>
<use x="51.33" y="79.01" xlink:href="#sh0"/>
<g font-family="serif" font-size="16" font-weight="bold" font-style="normal"
	transform="translate(67.33,106.01) scale(1.2,1)">
	<text y="-1" text-anchor="middle">4</text>
	<text y="-13" text-anchor="middle">2</text>
</g>
<use x="85.33" y="85.01" xlink:href="#hd"/>
<path d="M81.83 85.01v20.00" stroke="currentColor" fill="none"/>
<path fill="currentColor"
	d="M81.83 105.01c0.6 -5.6 9.6 -9 5.6 -18.4
	c1.6 6 -1.3 11.6 -5.6 12.8
"/>
<use x="113.63" y="88.01" xlink:href="#hd"/>
<use x="104.63" y="88.01" xlink:href="#sh0"/>
<path d="M110.13 88.01v20.00" stroke="currentColor" fill="none"/>
<path fill="currentColor"
	d="M110.13 108.01c0.6 -5.6 9.6 -9 5.6 -18.4
	c1.6 6 -1.3 11.6 -5.6 12.8
"/>
<use x="141.93" y="85.01" xlink:href="#hd"/>
<path d="M138.43 85.01v20.00" stroke="currentColor" fill="none"/>
<path fill="currentColor"
	d="M138.43 105.01c0.6 -5.6 9.6 -9 5.6 -18.4
	c1.6 6 -1.3 11.6 -5.6 12.8
"/>
<use x="170.23" y="79.01" xlink:href="#hd"/>
<defs>
<path id="unat" fill="currentColor" d="
	m96 -750
	h-32
	v716
	l32 -8
	l182 -54
	v282
	h32
	v-706
	l-34 10
	l-180 50
	v-290
	m0 592
	v-190
	l182 -52
	v188"/>
<use id="nt0" transform="translate(-3,5) scale(0.018)"
	xlink:href="#unat"/>
</defs>
<use x="161.23" y="79.01" xlink:href="#nt0"/>
<path d="M166.73 79.01v20.00" stroke="currentColor" fill="none"/>
<path fill="currentColor"
	d="M166.73 99.01c0.6 -5.6 9.6 -9 5.6 -18.4
	c1.6 6 -1.3 11.6 -5.6 12.8
"/>
<use x="207.03" y="85.01" xlink:href="#hd"/>
<path d="M203.53 85.01v20.00" stroke="currentColor" fill="none"/>
<path fill="currentColor"
	d="M203.53 105.01c0.6 -5.6 9.6 -9 5.6 -18.4
	c1.6 6 -1.3 11.6 -5.6 12.8
"/>
<path fill="currentColor"
	d="M231.53 113.01l42.40 0.00v-3.20l-42.40 -0.00"/>
<path fill="currentColor"
	d="M260.83 108.01l12.70 0.00v-3.20l-12.70 -0.00"/>
<path fill="currentColor"
	d="M260.83 103.01l12.70 0.00v-3.20l-12.70 -0.00"/>
<use x="235.33" y="85.01" xlink:href="#hd"/>
<circle fill="currentColor" cx="243.33" cy="85.01" r="1.2"/>
<path d="M231.83 85.01v27.00" stroke="currentColor" fill="none"/>
<use x="264.33" y="82.01" xlink:href="#hd"/>
<path d="M260.83 82.01v30.00" stroke="currentColor" fill="none"/>
<use x="277.03" y="85.01" xlink:href="#hd"/>
<path d="M273.53 85.01v27.00" stroke="currentColor" fill="none"/>
<use x="295.03" y="88.01" xlink:href="#hd"/>
<use x="286.03" y="88.01" xlink:href="#sh0"/>
<path d="M291.53 88.01v20.00" stroke="currentColor" fill="none"/>
<path fill="currentColor"
	d="M291.53 108.01c0.6 -5.6 9.6 -9 5.6 -18.4
	c1.6 6 -1.3 11.6 -5.6 12.8
"/>
<use x="336.13" y="88.01" xlink:href="#hd"/>
<circle fill="currentColor" cx="344.13" cy="85.01" r="1.2"/>
<use x="327.13" y="88.01" xlink:href="#sh0"/>
<path d="M332.63 88.01v20.00" stroke="currentColor" fill="none"/>
<use x="381.73" y="88.01" xlink:href="#hd"/>
<use x="372.73" y="88.01" xlink:href="#nt0"/>
<path d="M378.23 88.01v20.00" stroke="currentColor" fill="none"/>
<path fill="currentColor"
	d="M378.23 108.01c0.6 -5.6 9.6 -9 5.6 -18.4
	c1.6 6 -1.3 11.6 -5.6 12.8
"/>
<use x="418.53" y="88.01" xlink:href="#hd"/>
<path d="M415.03 88.01v20.00" stroke="currentColor" fill="none"/>
<path fill="currentColor"
	d="M415.03 108.01c0.6 -5.6 9.6 -9 5.6 -18.4
	c1.6 6 -1.3 11.6 -5.6 12.8
"/>
<use x="446.83" y="88.01" xlink:href="#hd"/>
<circle fill="currentColor" cx="454.83" cy="85.01" r="1.2"/>
<path d="M443.33 88.01v20.00" stroke="currentColor" fill="none"/>
<path fill="currentColor"
	d="M298.53 88.01c5.38 -5.11 28.76 -5.11 34.14 -0.00
	l0.00 -0.23c-6.40 -6.88 -27.74 -6.88 -34.14 0.23"/>
<path fill="currentColor"
	d="M385.23 88.01c4.69 -5.04 25.10 -5.04 29.79 -0.00
	l0.00 -0.23c-5.59 -6.81 -24.20 -6.81 -29.79 0.23"/>
</g>
</svg>
