<?xml version="1.0" standalone="no"?>
<!DOCTYPE svg PUBLIC "-//W3C//DTD SVG 1.1//EN"
	"http://www.w3.org/Graphics/SVG/1.1/DTD/svg11.dtd">
<svg xmlns="http://www.w3.org/2000/svg" version="1.1"
	xmlns:xlink="http://www.w3.org/1999/xlink"
	xml:space='preserve' color="black"
	width="7.38in" height="1.34in" viewBox="0 0 531 97">
<title>0906.abc (0906) tune 1</title>
<!-- Creator: abcm2ps-7.8.14 -->
<!-- CreationDate: Mar 13, 2016 18:53 -->
<!-- CommandLine: -qxg 0906.abc -O ../svgs/0906.svg -->
<g transform="scale(0.750)" stroke-width="0.70" font-family="Times" font-size="20.00">
<text x="354.13" y="21.67" text-anchor="middle">0906.  Sonata No. 17, in D Minor, Op. 31, No. 2, 2nd. Mvt. - 1st. Theme</text>
</g>
<g transform="scale(0.750)" stroke-width="0.70" font-family="Times" font-size="14.00" font-style="italic">
<text x="694.93" y="45.34" text-anchor="end">Ludwig Van Beethoven</text>
</g>
<g transform="scale(0.525)" stroke-width="0.70" font-family="Times" font-size="14.00" font-style="italic">
<defs>
<ellipse id="hd" rx="4.1" ry="2.9"
	transform="rotate(-20)" fill="currentColor"/>
</defs>
<use x="114.90" y="94.16" xlink:href="#hd"/>
<path d="M118.40 94.16v-20.00" stroke="currentColor" fill="none"/>
</g>
<g transform="scale(0.750)" stroke-width="0.70" font-family="Times" font-size="15.00" font-weight="bold">
<text x="88.13" y="68.01">= 120</text>
<path stroke="currentColor" fill="none"
	d="M206.93 106.01v-24.00"/>
<path stroke="currentColor" fill="none"
	d="M272.63 106.01v-24.00"/>
<path stroke="currentColor" fill="none"
	d="M413.83 106.01v-24.00"/>
<path stroke="currentColor" fill="none"
	d="M479.53 106.01v-24.00"/>
<path stroke="currentColor" fill="none"
	d="M13.33 106.01h466.20m-466.20 -6h466.20m-466.20 -6h466.20m-466.20 -6h466.20m-466.20 -6h466.20"/>
<defs>
<path id="utclef" fill="currentColor" d="m-50 -90
	c-72 -41 -72 -158 52 -188
	c150 -10 220 188 90 256
	c-114 52 -275 0 -293 -136
	c-15 -181 93 -229 220 -334
	c88 -87 79 -133 62 -210
	c-51 33 -94 105 -89 186
	c17 267 36 374 49 574
	c6 96 -19 134 -77 135
	c-80 1 -126 -93 -61 -133
	c85 -41 133 101 31 105
	c23 17 92 37 90 -92
	c-10 -223 -39 -342 -50 -617
	c0 -90 0 -162 96 -232
	c56 72 63 230 22 289
	c-74 106 -257 168 -255 316
	c9 153 148 185 252 133
	c86 -65 29 -192 -80 -176
	c-71 12 -105 67 -59 124"/>
<use id="tclef" transform="scale(0.045)"
	xlink:href="#utclef"/>
</defs>
<use x="25.33" y="106.01" xlink:href="#tclef"/>
<defs>
<path id="uflat" fill="currentColor" d="
	m100 -746
	h32
	v734
	l-32 4
	m32 -332
	c46 -72 152 -90 208 -20
	c100 110 -120 326 -208 348
	m0 -28
	c54 0 200 -206 130 -290
	c-50 -60 -130 -4 -130 34"/>
<use id="ft0" transform="translate(-3.5,3.5) scale(0.018)"
	xlink:href="#uflat"/>
</defs>
<use x="40.33" y="94.01" xlink:href="#ft0"/>
<use x="45.83" y="85.01" xlink:href="#ft0"/>
<g font-family="serif" font-size="16" font-weight="bold" font-style="normal"
	transform="translate(61.83,106.01) scale(1.2,1)">
	<text y="-1" text-anchor="middle">4</text>
	<text y="-13" text-anchor="middle">3</text>
</g>
<use x="79.83" y="88.01" xlink:href="#hd"/>
<circle fill="currentColor" cx="87.83" cy="85.01" r="1.2"/>
<path d="M76.33 88.01v20.00" stroke="currentColor" fill="none"/>
<path fill="currentColor"
	d="M76.33 108.01c0.6 -5.6 9.6 -9 5.6 -18.4
	c1.6 6 -1.3 11.6 -5.6 12.8
"/>
<path fill="currentColor"
	d="M108.23 113.31l13.40 -2.10v-3.20l-13.40 2.10"/>
<path fill="currentColor"
	d="M108.53 108.21l12.70 -2.00v-3.20l-12.70 2.00"/>
<path fill="currentColor"
	d="M108.53 103.21l12.70 -2.00v-3.20l-12.70 2.00"/>
<use x="112.03" y="88.01" xlink:href="#hd"/>
<path d="M108.53 88.01v24.20" stroke="currentColor" fill="none"/>
<use x="124.73" y="85.01" xlink:href="#hd"/>
<path d="M121.23 85.01v25.20" stroke="currentColor" fill="none"/>
<use x="138.93" y="82.01" xlink:href="#hd"/>
<path d="M135.43 82.01v20.00" stroke="currentColor" fill="none"/>
<defs>
<path id="hl" stroke="currentColor" d="m-6 0h12"/>
</defs>
<use x="174.93" y="112.01" xlink:href="#hl"/>
<use x="174.93" y="115.01" xlink:href="#hd"/>
<path d="M178.43 115.01v-21.00" stroke="currentColor" fill="none"/>
<use x="221.03" y="112.01" xlink:href="#hl"/>
<use x="221.03" y="118.01" xlink:href="#hl"/>
<defs>
<path id="Hd" fill="currentColor" d="m3 -1.6
	c-1 -1.8 -7 1.4 -6 3.2
	c1 1.8 7 -1.4 6 -3.2
	m0.5 -0.3
	c2 3.8 -5 7.6 -7 3.8
	c-2 -3.8 5 -7.6 7 -3.8"/>
</defs>
<use x="221.03" y="118.01" xlink:href="#Hd"/>
<circle fill="currentColor" cx="230.03" cy="115.01" r="1.2"/>
<path d="M224.53 118.01v-24.00" stroke="currentColor" fill="none"/>
<use x="286.73" y="76.01" xlink:href="#hl"/>
<use x="286.73" y="76.01" xlink:href="#hd"/>
<circle fill="currentColor" cx="294.73" cy="73.01" r="1.2"/>
<path d="M283.23 76.01v20.00" stroke="currentColor" fill="none"/>
<path fill="currentColor"
	d="M283.23 96.01c0.6 -5.6 9.6 -9 5.6 -18.4
	c1.6 6 -1.3 11.6 -5.6 12.8
"/>
<path fill="currentColor"
	d="M315.13 101.31l13.40 -2.10v-3.20l-13.40 2.10"/>
<path fill="currentColor"
	d="M315.43 96.21l12.70 -2.00v-3.20l-12.70 2.00"/>
<path fill="currentColor"
	d="M315.43 91.21l12.70 -2.00v-3.20l-12.70 2.00"/>
<use x="318.93" y="76.01" xlink:href="#hl"/>
<use x="318.93" y="76.01" xlink:href="#hd"/>
<path d="M315.43 76.01v24.20" stroke="currentColor" fill="none"/>
<use x="331.63" y="76.01" xlink:href="#hl"/>
<use x="331.63" y="73.01" xlink:href="#hd"/>
<path d="M328.13 73.01v25.20" stroke="currentColor" fill="none"/>
<use x="345.83" y="76.01" xlink:href="#hl"/>
<use x="345.83" y="70.01" xlink:href="#hl"/>
<use x="345.83" y="70.01" xlink:href="#hd"/>
<path d="M342.33 70.01v24.00" stroke="currentColor" fill="none"/>
<use x="381.83" y="106.01" xlink:href="#hd"/>
<path d="M385.33 106.01v-20.00" stroke="currentColor" fill="none"/>
<use x="427.93" y="109.01" xlink:href="#Hd"/>
<circle fill="currentColor" cx="436.93" cy="109.01" r="1.2"/>
<path d="M431.43 109.01v-20.00" stroke="currentColor" fill="none"/>
<path fill="currentColor"
	d="M83.33 82.01c3.97 -4.95 21.23 -4.95 25.20 -0.00
	l0.00 -0.23c-4.72 -6.73 -20.47 -6.73 -25.20 0.23"/>
<path fill="currentColor"
	d="M290.23 70.01c3.97 -4.95 21.23 -4.95 25.20 -0.00
	l0.00 -0.23c-4.73 -6.73 -20.48 -6.73 -25.20 0.23"/>
</g>
</svg>
