<?xml version="1.0" standalone="no"?>
<!DOCTYPE svg PUBLIC "-//W3C//DTD SVG 1.1//EN"
	"http://www.w3.org/Graphics/SVG/1.1/DTD/svg11.dtd">
<svg xmlns="http://www.w3.org/2000/svg" version="1.1"
	xmlns:xlink="http://www.w3.org/1999/xlink"
	xml:space='preserve' color="black"
	width="7.38in" height="1.40in" viewBox="0 0 531 101">
<title>0948.abc (0948) tune 1</title>
<!-- Creator: abcm2ps-7.8.14 -->
<!-- CreationDate: Mar 13, 2016 18:53 -->
<!-- CommandLine: -qxg 0948.abc -O ../svgs/0948.svg -->
<g transform="scale(0.750)" stroke-width="0.70" font-family="Times" font-size="20.00">
<text x="354.13" y="21.67" text-anchor="middle">0948.  Sonata No. 26, in E Flat, Op. 81a, Les Adieux, 3rd. Mvt., Et le retour</text>
</g>
<g transform="scale(0.750)" stroke-width="0.70" font-family="Times" font-size="14.00" font-style="italic">
<text x="694.93" y="45.34" text-anchor="end">Ludwig Van Beethoven</text>
</g>
<g transform="scale(0.525)" stroke-width="0.70" font-family="Times" font-size="14.00" font-style="italic">
<defs>
<ellipse id="hd" rx="4.1" ry="2.9"
	transform="rotate(-20)" fill="currentColor"/>
</defs>
<use x="122.76" y="94.16" xlink:href="#hd"/>
<path d="M126.26 94.16v-20.00" stroke="currentColor" fill="none"/>
</g>
<g transform="scale(0.750)" stroke-width="0.70" font-family="Times" font-size="15.00" font-weight="bold">
<text x="93.63" y="68.01">= 120</text>
<path stroke="currentColor" fill="none"
	d="M227.73 111.01v-24.00"/>
<path stroke="currentColor" fill="none"
	d="M383.43 111.01v-24.00"/>
<path stroke="currentColor" fill="none"
	d="M539.23 111.01v-24.00"/>
<path stroke="currentColor" fill="none"
	d="M694.93 111.01v-24.00"/>
<path stroke="currentColor" fill="none"
	d="M13.33 111.01h681.60m-681.60 -6h681.60m-681.60 -6h681.60m-681.60 -6h681.60m-681.60 -6h681.60"/>
<defs>
<path id="utclef" fill="currentColor" d="m-50 -90
	c-72 -41 -72 -158 52 -188
	c150 -10 220 188 90 256
	c-114 52 -275 0 -293 -136
	c-15 -181 93 -229 220 -334
	c88 -87 79 -133 62 -210
	c-51 33 -94 105 -89 186
	c17 267 36 374 49 574
	c6 96 -19 134 -77 135
	c-80 1 -126 -93 -61 -133
	c85 -41 133 101 31 105
	c23 17 92 37 90 -92
	c-10 -223 -39 -342 -50 -617
	c0 -90 0 -162 96 -232
	c56 72 63 230 22 289
	c-74 106 -257 168 -255 316
	c9 153 148 185 252 133
	c86 -65 29 -192 -80 -176
	c-71 12 -105 67 -59 124"/>
<use id="tclef" transform="scale(0.045)"
	xlink:href="#utclef"/>
</defs>
<use x="25.33" y="111.01" xlink:href="#tclef"/>
<defs>
<path id="uflat" fill="currentColor" d="
	m100 -746
	h32
	v734
	l-32 4
	m32 -332
	c46 -72 152 -90 208 -20
	c100 110 -120 326 -208 348
	m0 -28
	c54 0 200 -206 130 -290
	c-50 -60 -130 -4 -130 34"/>
<use id="ft0" transform="translate(-3.5,3.5) scale(0.018)"
	xlink:href="#uflat"/>
</defs>
<use x="40.33" y="99.01" xlink:href="#ft0"/>
<use x="45.83" y="90.01" xlink:href="#ft0"/>
<use x="51.33" y="102.01" xlink:href="#ft0"/>
<g font-family="serif" font-size="16" font-weight="bold" font-style="normal"
	transform="translate(67.33,111.01) scale(1.2,1)">
	<text y="-1" text-anchor="middle">8</text>
	<text y="-13" text-anchor="middle">6</text>
</g>
<path fill="currentColor"
	d="M81.53 101.61l48.10 7.60v-3.20l-48.10 -7.60"/>
<defs>
<path id="hl" stroke="currentColor" d="m-6 0h12"/>
</defs>
<use x="85.33" y="81.01" xlink:href="#hl"/>
<use x="85.33" y="78.01" xlink:href="#hd"/>
<path d="M81.83 78.01v22.70" stroke="currentColor" fill="none"/>
<use x="109.03" y="84.01" xlink:href="#hd"/>
<path d="M105.53 84.01v20.40" stroke="currentColor" fill="none"/>
<use x="132.83" y="90.01" xlink:href="#hd"/>
<path d="M129.33 90.01v18.20" stroke="currentColor" fill="none"/>
<path fill="currentColor"
	d="M155.33 112.21l48.10 -6.30v-3.20l-48.10 6.30"/>
<use x="159.13" y="93.01" xlink:href="#hd"/>
<path d="M155.63 93.01v18.20" stroke="currentColor" fill="none"/>
<use x="182.93" y="87.01" xlink:href="#hd"/>
<path d="M179.43 87.01v21.10" stroke="currentColor" fill="none"/>
<use x="206.63" y="81.01" xlink:href="#hl"/>
<use x="206.63" y="78.01" xlink:href="#hd"/>
<path d="M203.13 78.01v27.00" stroke="currentColor" fill="none"/>
<path fill="currentColor"
	d="M237.13 101.61l48.10 7.60v-3.20l-48.10 -7.60"/>
<use x="241.03" y="81.01" xlink:href="#hl"/>
<use x="241.03" y="78.01" xlink:href="#hd"/>
<path d="M237.53 78.01v22.70" stroke="currentColor" fill="none"/>
<use x="264.73" y="84.01" xlink:href="#hd"/>
<path d="M261.23 84.01v20.40" stroke="currentColor" fill="none"/>
<use x="288.43" y="90.01" xlink:href="#hd"/>
<path d="M284.93 90.01v18.20" stroke="currentColor" fill="none"/>
<path fill="currentColor"
	d="M311.03 109.31l48.10 -7.60v-3.20l-48.10 7.60"/>
<use x="314.83" y="90.01" xlink:href="#hd"/>
<path d="M311.33 90.01v18.20" stroke="currentColor" fill="none"/>
<use x="338.53" y="84.01" xlink:href="#hd"/>
<path d="M335.03 84.01v20.40" stroke="currentColor" fill="none"/>
<use x="362.33" y="81.01" xlink:href="#hl"/>
<use x="362.33" y="75.01" xlink:href="#hl"/>
<use x="362.33" y="75.01" xlink:href="#hd"/>
<path d="M358.83 75.01v25.70" stroke="currentColor" fill="none"/>
<path fill="currentColor"
	d="M392.83 102.21l48.20 4.00v-3.20l-48.20 -4.00"/>
<use x="396.73" y="81.01" xlink:href="#hl"/>
<use x="396.73" y="75.01" xlink:href="#hl"/>
<use x="396.73" y="75.01" xlink:href="#hd"/>
<path d="M393.23 75.01v26.20" stroke="currentColor" fill="none"/>
<use x="420.43" y="81.01" xlink:href="#hl"/>
<use x="420.43" y="81.01" xlink:href="#hd"/>
<path d="M416.93 81.01v22.20" stroke="currentColor" fill="none"/>
<use x="444.13" y="87.01" xlink:href="#hd"/>
<path d="M440.63 87.01v18.20" stroke="currentColor" fill="none"/>
<path fill="currentColor"
	d="M466.83 109.31l48.10 -7.60v-3.20l-48.10 7.60"/>
<use x="470.63" y="90.01" xlink:href="#hd"/>
<defs>
<path id="unat" fill="currentColor" d="
	m96 -750
	h-32
	v716
	l32 -8
	l182 -54
	v282
	h32
	v-706
	l-34 10
	l-180 50
	v-290
	m0 592
	v-190
	l182 -52
	v188"/>
<use id="nt0" transform="translate(-3,5) scale(0.018)"
	xlink:href="#unat"/>
</defs>
<use x="461.63" y="90.01" xlink:href="#nt0"/>
<path d="M467.13 90.01v18.20" stroke="currentColor" fill="none"/>
<use x="494.43" y="84.01" xlink:href="#hd"/>
<path d="M490.93 84.01v20.40" stroke="currentColor" fill="none"/>
<use x="518.13" y="81.01" xlink:href="#hl"/>
<use x="518.13" y="75.01" xlink:href="#hl"/>
<use x="518.13" y="75.01" xlink:href="#hd"/>
<path d="M514.63 75.01v25.70" stroke="currentColor" fill="none"/>
<path fill="currentColor"
	d="M548.63 102.21l48.20 4.00v-3.20l-48.20 -4.00"/>
<use x="552.53" y="81.01" xlink:href="#hl"/>
<use x="552.53" y="75.01" xlink:href="#hl"/>
<use x="552.53" y="75.01" xlink:href="#hd"/>
<path d="M549.03 75.01v26.20" stroke="currentColor" fill="none"/>
<use x="576.23" y="81.01" xlink:href="#hl"/>
<use x="576.23" y="81.01" xlink:href="#hd"/>
<path d="M572.73 81.01v22.20" stroke="currentColor" fill="none"/>
<use x="600.03" y="87.01" xlink:href="#hd"/>
<path d="M596.53 87.01v18.20" stroke="currentColor" fill="none"/>
<path fill="currentColor"
	d="M622.53 112.21l48.10 -6.30v-3.20l-48.10 6.30"/>
<use x="626.33" y="93.01" xlink:href="#hd"/>
<path d="M622.83 93.01v18.20" stroke="currentColor" fill="none"/>
<use x="650.13" y="87.01" xlink:href="#hd"/>
<path d="M646.63 87.01v21.10" stroke="currentColor" fill="none"/>
<use x="673.83" y="81.01" xlink:href="#hl"/>
<use x="673.83" y="78.01" xlink:href="#hd"/>
<path d="M670.33 78.01v27.00" stroke="currentColor" fill="none"/>
</g>
</svg>
