<?xml version="1.0" standalone="no"?>
<!DOCTYPE svg PUBLIC "-//W3C//DTD SVG 1.1//EN"
	"http://www.w3.org/Graphics/SVG/1.1/DTD/svg11.dtd">
<svg xmlns="http://www.w3.org/2000/svg" version="1.1"
	xmlns:xlink="http://www.w3.org/1999/xlink"
	xml:space='preserve' color="black"
	width="7.38in" height="1.46in" viewBox="0 0 531 105">
<title>0951.abc (0951) tune 1</title>
<!-- Creator: abcm2ps-7.8.14 -->
<!-- CreationDate: Mar 13, 2016 18:53 -->
<!-- CommandLine: -qxg 0951.abc -O ../svgs/0951.svg -->
<g transform="scale(0.750)" stroke-width="0.70" font-family="Times" font-size="20.00">
<text x="354.13" y="21.67" text-anchor="middle">0951.  Sonata No. 28, in A, Op. 101, Pft., 1st. Mvt.</text>
</g>
<g transform="scale(0.750)" stroke-width="0.70" font-family="Times" font-size="14.00" font-style="italic">
<text x="694.93" y="45.34" text-anchor="end">Ludwig Van Beethoven</text>
</g>
<g transform="scale(0.525)" stroke-width="0.70" font-family="Times" font-size="14.00" font-style="italic">
<defs>
<ellipse id="hd" rx="4.1" ry="2.9"
	transform="rotate(-20)" fill="currentColor"/>
</defs>
<use x="122.76" y="94.16" xlink:href="#hd"/>
<path d="M126.26 94.16v-20.00" stroke="currentColor" fill="none"/>
</g>
<g transform="scale(0.750)" stroke-width="0.70" font-family="Times" font-size="15.00" font-weight="bold">
<text x="93.63" y="68.01">= 120</text>
<path stroke="currentColor" fill="none"
	d="M242.93 117.01v-24.00"/>
<path stroke="currentColor" fill="none"
	d="M406.33 117.01v-24.00"/>
<path stroke="currentColor" fill="none"
	d="M573.13 117.01v-24.00"/>
<path stroke="currentColor" fill="none"
	d="M694.93 117.01v-24.00"/>
<path stroke="currentColor" fill="none"
	d="M13.33 117.01h681.60m-681.60 -6h681.60m-681.60 -6h681.60m-681.60 -6h681.60m-681.60 -6h681.60"/>
<path stroke="currentColor" fill="none"
	d="M84.33 79.01v-3l52.60 -0.00v3"/>
<rect x="103.63" y="70.01" width="14.00" height="12" fill="white"/>
<text font-family="serif" font-size="12" font-style="italic" font-weight="normal"
	x="110.63" y="80.01" text-anchor="middle">3</text>
<path stroke="currentColor" fill="none"
	d="M251.43 80.01v-3l52.60 -0.00v3"/>
<rect x="270.73" y="71.01" width="14.00" height="12" fill="white"/>
<text font-family="serif" font-size="12" font-style="italic" font-weight="normal"
	x="277.73" y="81.01" text-anchor="middle">3</text>
<path stroke="currentColor" fill="none"
	d="M414.83 71.01v-3l52.60 -0.00v3"/>
<rect x="434.13" y="62.01" width="14.00" height="12" fill="white"/>
<text font-family="serif" font-size="12" font-style="italic" font-weight="normal"
	x="441.13" y="72.01" text-anchor="middle">3</text>
<defs>
<path id="utclef" fill="currentColor" d="m-50 -90
	c-72 -41 -72 -158 52 -188
	c150 -10 220 188 90 256
	c-114 52 -275 0 -293 -136
	c-15 -181 93 -229 220 -334
	c88 -87 79 -133 62 -210
	c-51 33 -94 105 -89 186
	c17 267 36 374 49 574
	c6 96 -19 134 -77 135
	c-80 1 -126 -93 -61 -133
	c85 -41 133 101 31 105
	c23 17 92 37 90 -92
	c-10 -223 -39 -342 -50 -617
	c0 -90 0 -162 96 -232
	c56 72 63 230 22 289
	c-74 106 -257 168 -255 316
	c9 153 148 185 252 133
	c86 -65 29 -192 -80 -176
	c-71 12 -105 67 -59 124"/>
<use id="tclef" transform="scale(0.045)"
	xlink:href="#utclef"/>
</defs>
<use x="25.33" y="117.01" xlink:href="#tclef"/>
<defs>
<path id="usharp" fill="currentColor" d="
	m136 -702
	v890
	h32
	v-890
	m128 840
	h32
	v-888
	h-32
	m-232 286
	v116
	l338 -96
	v-116
	m-338 442
	v116
	l338 -98
	v-114"/>
<use id="sh0" transform="translate(-4,5) scale(0.018)"
	xlink:href="#usharp"/>
</defs>
<use x="40.33" y="93.01" xlink:href="#sh0"/>
<use x="45.83" y="102.01" xlink:href="#sh0"/>
<use x="51.33" y="90.01" xlink:href="#sh0"/>
<g font-family="serif" font-size="16" font-weight="bold" font-style="normal"
	transform="translate(67.33,117.01) scale(1.2,1)">
	<text y="-1" text-anchor="middle">8</text>
	<text y="-13" text-anchor="middle">6</text>
</g>
<use x="85.33" y="111.01" xlink:href="#hd"/>
<path d="M88.83 111.01v-20.00" stroke="currentColor" fill="none"/>
<use x="112.43" y="111.01" xlink:href="#hd"/>
<path d="M115.93 111.01v-21.00" stroke="currentColor" fill="none"/>
<path fill="currentColor"
	d="M115.93 90.01c0.9 3.7 9.1 6.4 6 12.4
	c1 -5.4 -4.2 -8.4 -6 -8.4
M115.93 95.41c0.9 3.7 9.1 6.4 6 12.4
	c1 -5.4 -4.2 -8.4 -6 -8.4
"/>
<use x="128.93" y="108.01" xlink:href="#hd"/>
<path d="M132.43 108.01v-20.00" stroke="currentColor" fill="none"/>
<use x="155.93" y="108.01" xlink:href="#hd"/>
<path d="M159.43 108.01v-21.00" stroke="currentColor" fill="none"/>
<path fill="currentColor"
	d="M159.43 87.01c0.9 3.7 9.1 6.4 6 12.4
	c1 -5.4 -4.2 -8.4 -6 -8.4
M159.43 92.41c0.9 3.7 9.1 6.4 6 12.4
	c1 -5.4 -4.2 -8.4 -6 -8.4
"/>
<use x="173.53" y="105.01" xlink:href="#hd"/>
<path d="M177.03 105.01v-20.00" stroke="currentColor" fill="none"/>
<path fill="currentColor"
	d="M204.13 127.21l16.20 -2.30v-3.20l-16.20 2.30"/>
<path fill="currentColor"
	d="M210.43 121.41l-6.00 0.80v-3.20l6.00 -0.80"/>
<use x="207.93" y="105.01" xlink:href="#hd"/>
<path d="M204.43 105.01v21.20" stroke="currentColor" fill="none"/>
<use x="223.43" y="102.01" xlink:href="#hd"/>
<path d="M219.93 102.01v22.00" stroke="currentColor" fill="none"/>
<use x="255.43" y="96.01" xlink:href="#hd"/>
<path d="M251.93 96.01v20.00" stroke="currentColor" fill="none"/>
<use x="282.43" y="96.01" xlink:href="#hd"/>
<path d="M278.93 96.01v22.00" stroke="currentColor" fill="none"/>
<path fill="currentColor"
	d="M278.93 118.01c0.9 -3.7 9.1 -6.4 6 -12.4
	c1 5.4 -4.2 8.4 -6 8.4
M278.93 112.61c0.9 -3.7 9.1 -6.4 6 -12.4
	c1 5.4 -4.2 8.4 -6 8.4
"/>
<use x="296.03" y="99.01" xlink:href="#hd"/>
<path d="M292.53 99.01v20.00" stroke="currentColor" fill="none"/>
<use x="323.03" y="99.01" xlink:href="#hd"/>
<path d="M319.53 99.01v22.00" stroke="currentColor" fill="none"/>
<path fill="currentColor"
	d="M319.53 121.01c0.9 -3.7 9.1 -6.4 6 -12.4
	c1 5.4 -4.2 8.4 -6 8.4
M319.53 115.61c0.9 -3.7 9.1 -6.4 6 -12.4
	c1 5.4 -4.2 8.4 -6 8.4
"/>
<use x="340.23" y="105.01" xlink:href="#hd"/>
<path d="M336.73 105.01v20.00" stroke="currentColor" fill="none"/>
<path fill="currentColor"
	d="M374.53 82.81l16.20 2.30v3.20l-16.20 -2.30"/>
<path fill="currentColor"
	d="M380.83 88.61l-6.00 -0.80v3.20l6.00 0.80"/>
<use x="371.33" y="105.01" xlink:href="#hd"/>
<path d="M374.83 105.01v-21.20" stroke="currentColor" fill="none"/>
<use x="386.83" y="108.01" xlink:href="#hd"/>
<path d="M390.33 108.01v-22.00" stroke="currentColor" fill="none"/>
<defs>
<path id="hl" stroke="currentColor" d="m-6 0h12"/>
</defs>
<use x="418.83" y="87.01" xlink:href="#hl"/>
<use x="418.83" y="87.01" xlink:href="#hd"/>
<path d="M415.33 87.01v20.00" stroke="currentColor" fill="none"/>
<use x="445.83" y="87.01" xlink:href="#hl"/>
<use x="445.83" y="87.01" xlink:href="#hd"/>
<path d="M442.33 87.01v22.00" stroke="currentColor" fill="none"/>
<path fill="currentColor"
	d="M442.33 109.01c0.9 -3.7 9.1 -6.4 6 -12.4
	c1 5.4 -4.2 8.4 -6 8.4
M442.33 103.61c0.9 -3.7 9.1 -6.4 6 -12.4
	c1 5.4 -4.2 8.4 -6 8.4
"/>
<use x="459.43" y="90.01" xlink:href="#hd"/>
<path d="M455.93 90.01v20.00" stroke="currentColor" fill="none"/>
<use x="486.43" y="90.01" xlink:href="#hd"/>
<path d="M482.93 90.01v22.00" stroke="currentColor" fill="none"/>
<path fill="currentColor"
	d="M482.93 112.01c0.9 -3.7 9.1 -6.4 6 -12.4
	c1 5.4 -4.2 8.4 -6 8.4
M482.93 106.61c0.9 -3.7 9.1 -6.4 6 -12.4
	c1 5.4 -4.2 8.4 -6 8.4
"/>
<use x="503.63" y="93.01" xlink:href="#hd"/>
<path d="M500.13 93.01v20.00" stroke="currentColor" fill="none"/>
<path fill="currentColor"
	d="M534.23 115.41l16.20 2.30v-3.20l-16.20 -2.30"/>
<path fill="currentColor"
	d="M540.63 111.31l-6.00 -0.80v-3.20l6.00 0.80"/>
<use x="538.13" y="93.01" xlink:href="#hd"/>
<path d="M534.63 93.01v21.40" stroke="currentColor" fill="none"/>
<use x="553.63" y="96.01" xlink:href="#hd"/>
<path d="M550.13 96.01v20.60" stroke="currentColor" fill="none"/>
<use x="585.63" y="93.01" xlink:href="#hd"/>
<path d="M582.13 93.01v20.00" stroke="currentColor" fill="none"/>
<use x="619.63" y="96.01" xlink:href="#hd"/>
<path d="M616.13 96.01v20.00" stroke="currentColor" fill="none"/>
<path fill="currentColor"
	d="M649.83 122.31l22.50 2.40v-3.20l-22.50 -2.40"/>
<use x="653.63" y="102.01" xlink:href="#hd"/>
<path d="M650.13 102.01v19.30" stroke="currentColor" fill="none"/>
<use x="675.43" y="105.01" xlink:href="#hd"/>
<path d="M671.93 105.01v18.70" stroke="currentColor" fill="none"/>
<path fill="currentColor"
	d="M88.83 111.01c3.16 4.86 16.90 4.86 20.06 -0.00
	l0.00 0.22c-3.76 6.64 -16.30 6.64 -20.06 -0.22"/>
<path fill="currentColor"
	d="M132.43 110.01c3.16 4.86 16.90 4.86 20.06 -0.00
	l0.00 0.22c-3.76 6.64 -16.30 6.64 -20.06 -0.22"/>
<path fill="currentColor"
	d="M177.03 105.01c4.32 4.99 23.12 4.99 27.44 -0.00
	l0.00 0.23c-5.15 6.77 -22.30 6.77 -27.44 -0.23"/>
<path fill="currentColor"
	d="M258.93 94.01c3.16 -4.86 16.90 -4.86 20.06 -0.00
	l0.00 -0.22c-3.76 -6.64 -16.30 -6.64 -20.06 0.22"/>
<path fill="currentColor"
	d="M299.53 99.01c3.16 -4.86 16.90 -4.86 20.06 -0.00
	l0.00 -0.22c-3.76 -6.64 -16.30 -6.64 -20.06 0.22"/>
<path fill="currentColor"
	d="M343.73 105.01c3.79 -4.93 20.29 -4.93 24.08 -0.00
	l0.00 -0.22c-4.51 -6.71 -19.56 -6.71 -24.08 0.22"/>
<path fill="currentColor"
	d="M422.33 87.01c3.16 -4.86 16.90 -4.86 20.06 -0.00
	l0.00 -0.22c-3.76 -6.64 -16.30 -6.64 -20.06 0.22"/>
<path fill="currentColor"
	d="M462.93 88.01c3.16 -4.86 16.90 -4.86 20.06 -0.00
	l0.00 -0.22c-3.76 -6.64 -16.30 -6.64 -20.06 0.22"/>
<path fill="currentColor"
	d="M507.13 93.01c4.32 -4.99 23.12 -4.99 27.44 -0.00
	l0.00 -0.23c-5.15 -6.77 -22.30 -6.77 -27.44 0.23"/>
</g>
</svg>
