<?xml version="1.0" standalone="no"?>
<!DOCTYPE svg PUBLIC "-//W3C//DTD SVG 1.1//EN"
	"http://www.w3.org/Graphics/SVG/1.1/DTD/svg11.dtd">
<svg xmlns="http://www.w3.org/2000/svg" version="1.1"
	xmlns:xlink="http://www.w3.org/1999/xlink"
	xml:space='preserve' color="black"
	width="7.38in" height="1.36in" viewBox="0 0 531 98">
<title>0966.abc (0966) tune 1</title>
<!-- Creator: abcm2ps-7.8.14 -->
<!-- CreationDate: Mar 13, 2016 18:53 -->
<!-- CommandLine: -qxg 0966.abc -O ../svgs/0966.svg -->
<g transform="scale(0.750)" stroke-width="0.70" font-family="Times" font-size="20.00">
<text x="354.13" y="21.67" text-anchor="middle">0966.  Sonata No. 31, in A Flat, Op. 110, Pft., 1st. Mvt. - 1st. Theme</text>
</g>
<g transform="scale(0.750)" stroke-width="0.70" font-family="Times" font-size="14.00" font-style="italic">
<text x="694.93" y="45.34" text-anchor="end">Ludwig Van Beethoven</text>
</g>
<g transform="scale(0.525)" stroke-width="0.70" font-family="Times" font-size="14.00" font-style="italic">
<defs>
<ellipse id="hd" rx="4.1" ry="2.9"
	transform="rotate(-20)" fill="currentColor"/>
</defs>
<use x="130.61" y="94.16" xlink:href="#hd"/>
<path d="M134.11 94.16v-20.00" stroke="currentColor" fill="none"/>
</g>
<g transform="scale(0.750)" stroke-width="0.70" font-family="Times" font-size="15.00" font-weight="bold">
<text x="99.13" y="68.01">= 120</text>
<path stroke="currentColor" fill="none"
	d="M222.03 108.01v-24.00"/>
<path stroke="currentColor" fill="none"
	d="M339.03 108.01v-24.00"/>
<path stroke="currentColor" fill="none"
	d="M495.93 108.01v-24.00"/>
<path stroke="currentColor" fill="none"
	d="M13.33 108.01h681.60m-681.60 -6h681.60m-681.60 -6h681.60m-681.60 -6h681.60m-681.60 -6h681.60"/>
<defs>
<path id="utclef" fill="currentColor" d="m-50 -90
	c-72 -41 -72 -158 52 -188
	c150 -10 220 188 90 256
	c-114 52 -275 0 -293 -136
	c-15 -181 93 -229 220 -334
	c88 -87 79 -133 62 -210
	c-51 33 -94 105 -89 186
	c17 267 36 374 49 574
	c6 96 -19 134 -77 135
	c-80 1 -126 -93 -61 -133
	c85 -41 133 101 31 105
	c23 17 92 37 90 -92
	c-10 -223 -39 -342 -50 -617
	c0 -90 0 -162 96 -232
	c56 72 63 230 22 289
	c-74 106 -257 168 -255 316
	c9 153 148 185 252 133
	c86 -65 29 -192 -80 -176
	c-71 12 -105 67 -59 124"/>
<use id="tclef" transform="scale(0.045)"
	xlink:href="#utclef"/>
</defs>
<use x="25.33" y="108.01" xlink:href="#tclef"/>
<defs>
<path id="uflat" fill="currentColor" d="
	m100 -746
	h32
	v734
	l-32 4
	m32 -332
	c46 -72 152 -90 208 -20
	c100 110 -120 326 -208 348
	m0 -28
	c54 0 200 -206 130 -290
	c-50 -60 -130 -4 -130 34"/>
<use id="ft0" transform="translate(-3.5,3.5) scale(0.018)"
	xlink:href="#uflat"/>
</defs>
<use x="40.33" y="96.01" xlink:href="#ft0"/>
<use x="45.83" y="87.01" xlink:href="#ft0"/>
<use x="51.33" y="99.01" xlink:href="#ft0"/>
<use x="56.83" y="90.01" xlink:href="#ft0"/>
<g font-family="serif" font-size="16" font-weight="bold" font-style="normal"
	transform="translate(72.83,108.01) scale(1.2,1)">
	<text y="-1" text-anchor="middle">4</text>
	<text y="-13" text-anchor="middle">3</text>
</g>
<use x="90.83" y="93.01" xlink:href="#hd"/>
<circle fill="currentColor" cx="98.83" cy="93.01" r="1.2"/>
<path d="M87.33 93.01v20.00" stroke="currentColor" fill="none"/>
<path fill="currentColor"
	d="M142.23 76.01l64.80 0.00v3.20l-64.80 -0.00"/>
<path fill="currentColor"
	d="M200.63 81.01l6.00 0.00v3.20l-6.00 -0.00"/>
<use x="139.03" y="99.01" xlink:href="#hd"/>
<path d="M142.53 99.01v-22.00" stroke="currentColor" fill="none"/>
<use x="169.03" y="99.01" xlink:href="#hd"/>
<circle fill="currentColor" cx="177.03" cy="99.01" r="1.2"/>
<path d="M172.53 99.01v-22.00" stroke="currentColor" fill="none"/>
<use x="203.13" y="99.01" xlink:href="#hd"/>
<path d="M206.63 99.01v-22.00" stroke="currentColor" fill="none"/>
<use x="238.63" y="90.01" xlink:href="#hd"/>
<path d="M235.13 90.01v20.00" stroke="currentColor" fill="none"/>
<defs>
<path id="Hd" fill="currentColor" d="m3 -1.6
	c-1 -1.8 -7 1.4 -6 3.2
	c1 1.8 7 -1.4 6 -3.2
	m0.5 -0.3
	c2 3.8 -5 7.6 -7 3.8
	c-2 -3.8 5 -7.6 7 -3.8"/>
</defs>
<use x="285.73" y="96.01" xlink:href="#Hd"/>
<path d="M282.23 96.01v20.00" stroke="currentColor" fill="none"/>
<use x="355.73" y="87.01" xlink:href="#hd"/>
<circle fill="currentColor" cx="363.73" cy="87.01" r="1.2"/>
<path d="M352.23 87.01v20.00" stroke="currentColor" fill="none"/>
<path fill="currentColor"
	d="M405.43 109.51l60.60 -5.10v-3.20l-60.60 5.10"/>
<use x="409.33" y="90.01" xlink:href="#hd"/>
<path d="M405.83 90.01v18.50" stroke="currentColor" fill="none"/>
<use x="439.33" y="87.01" xlink:href="#hd"/>
<path d="M435.83 87.01v19.00" stroke="currentColor" fill="none"/>
<use x="469.23" y="84.01" xlink:href="#hd"/>
<path d="M465.73 84.01v19.50" stroke="currentColor" fill="none"/>
<use x="512.53" y="87.01" xlink:href="#hd"/>
<circle fill="currentColor" cx="520.53" cy="87.01" r="1.2"/>
<path d="M509.03 87.01v20.00" stroke="currentColor" fill="none"/>
<path fill="currentColor"
	d="M509.03 107.01c0.6 -5.6 9.6 -9 5.6 -18.4
	c1.6 6 -1.3 11.6 -5.6 12.8
"/>
<path fill="currentColor"
	d="M546.63 115.01l66.80 0.00v-3.20l-66.80 -0.00"/>
<path fill="currentColor"
	d="M547.03 110.01l66.20 0.00v-3.20l-66.20 -0.00"/>
<path fill="currentColor"
	d="M568.13 105.01l45.00 0.00v-3.20l-45.00 -0.00"/>
<use x="550.53" y="90.01" xlink:href="#hd"/>
<defs>
<path id="unat" fill="currentColor" d="
	m96 -750
	h-32
	v716
	l32 -8
	l182 -54
	v282
	h32
	v-706
	l-34 10
	l-180 50
	v-290
	m0 592
	v-190
	l182 -52
	v188"/>
<use id="nt0" transform="translate(-3,5) scale(0.018)"
	xlink:href="#unat"/>
</defs>
<use x="541.53" y="90.01" xlink:href="#nt0"/>
<path d="M547.03 90.01v24.00" stroke="currentColor" fill="none"/>
<use x="571.63" y="90.01" xlink:href="#hd"/>
<use x="562.63" y="90.01" xlink:href="#ft0"/>
<path d="M568.13 90.01v24.00" stroke="currentColor" fill="none"/>
<use x="586.63" y="87.01" xlink:href="#hd"/>
<path d="M583.13 87.01v27.00" stroke="currentColor" fill="none"/>
<use x="601.63" y="90.01" xlink:href="#hd"/>
<path d="M598.13 90.01v24.00" stroke="currentColor" fill="none"/>
<use x="616.63" y="87.01" xlink:href="#hd"/>
<path d="M613.13 87.01v27.00" stroke="currentColor" fill="none"/>
<path fill="currentColor"
	d="M629.43 120.91l45.70 0.00v-3.20l-45.70 -0.00"/>
<path fill="currentColor"
	d="M629.83 115.91l45.00 0.00v-3.20l-45.00 -0.00"/>
<path fill="currentColor"
	d="M629.83 110.91l45.00 0.00v-3.20l-45.00 -0.00"/>
<use x="633.33" y="90.01" xlink:href="#hd"/>
<path d="M629.83 90.01v30.00" stroke="currentColor" fill="none"/>
<use x="648.33" y="93.01" xlink:href="#hd"/>
<path d="M644.83 93.01v27.00" stroke="currentColor" fill="none"/>
<use x="663.33" y="90.01" xlink:href="#hd"/>
<path d="M659.83 90.01v30.00" stroke="currentColor" fill="none"/>
<use x="678.23" y="87.01" xlink:href="#hd"/>
<path d="M674.73 87.01v33.00" stroke="currentColor" fill="none"/>
</g>
</svg>
