<?xml version="1.0" standalone="no"?>
<!DOCTYPE svg PUBLIC "-//W3C//DTD SVG 1.1//EN"
	"http://www.w3.org/Graphics/SVG/1.1/DTD/svg11.dtd">
<svg xmlns="http://www.w3.org/2000/svg" version="1.1"
	xmlns:xlink="http://www.w3.org/1999/xlink"
	xml:space='preserve' color="black"
	width="7.38in" height="1.34in" viewBox="0 0 531 97">
<title>0983.abc (0983) tune 1</title>
<!-- Creator: abcm2ps-7.8.14 -->
<!-- CreationDate: Mar 13, 2016 18:53 -->
<!-- CommandLine: -qxg 0983.abc -O ../svgs/0983.svg -->
<g transform="scale(0.750)" stroke-width="0.70" font-family="Times" font-size="20.00">
<text x="354.13" y="21.67" text-anchor="middle">0983.  Sonata No. 3, in E Flat, Op. 12, No. 3, 2nd. Mvt.</text>
</g>
<g transform="scale(0.750)" stroke-width="0.70" font-family="Times" font-size="14.00" font-style="italic">
<text x="694.93" y="45.34" text-anchor="end">Ludwig Van Beethoven</text>
</g>
<g transform="scale(0.525)" stroke-width="0.70" font-family="Times" font-size="14.00" font-style="italic">
<defs>
<ellipse id="hd" rx="4.1" ry="2.9"
	transform="rotate(-20)" fill="currentColor"/>
</defs>
<use x="89.19" y="94.16" xlink:href="#hd"/>
<path d="M92.69 94.16v-20.00" stroke="currentColor" fill="none"/>
</g>
<g transform="scale(0.750)" stroke-width="0.70" font-family="Times" font-size="15.00" font-weight="bold">
<text x="70.13" y="68.01">= 120</text>
<path stroke="currentColor" fill="none"
	d="M191.73 106.01v-24.00"/>
<path stroke="currentColor" fill="none"
	d="M355.63 106.01v-24.00"/>
<path stroke="currentColor" fill="none"
	d="M563.53 106.01v-24.00"/>
<path stroke="currentColor" fill="none"
	d="M13.33 106.01h681.60m-681.60 -6h681.60m-681.60 -6h681.60m-681.60 -6h681.60m-681.60 -6h681.60"/>
<defs>
<path id="utclef" fill="currentColor" d="m-50 -90
	c-72 -41 -72 -158 52 -188
	c150 -10 220 188 90 256
	c-114 52 -275 0 -293 -136
	c-15 -181 93 -229 220 -334
	c88 -87 79 -133 62 -210
	c-51 33 -94 105 -89 186
	c17 267 36 374 49 574
	c6 96 -19 134 -77 135
	c-80 1 -126 -93 -61 -133
	c85 -41 133 101 31 105
	c23 17 92 37 90 -92
	c-10 -223 -39 -342 -50 -617
	c0 -90 0 -162 96 -232
	c56 72 63 230 22 289
	c-74 106 -257 168 -255 316
	c9 153 148 185 252 133
	c86 -65 29 -192 -80 -176
	c-71 12 -105 67 -59 124"/>
<use id="tclef" transform="scale(0.045)"
	xlink:href="#utclef"/>
</defs>
<use x="25.33" y="106.01" xlink:href="#tclef"/>
<g font-family="serif" font-size="16" font-weight="bold" font-style="normal"
	transform="translate(43.83,106.01) scale(1.2,1)">
	<text y="-1" text-anchor="middle">4</text>
	<text y="-13" text-anchor="middle">3</text>
</g>
<use x="61.83" y="79.01" xlink:href="#hd"/>
<path d="M58.33 79.01v20.00" stroke="currentColor" fill="none"/>
<use x="108.23" y="85.01" xlink:href="#hd"/>
<path d="M104.73 85.01v20.00" stroke="currentColor" fill="none"/>
<use x="154.63" y="91.01" xlink:href="#hd"/>
<path d="M151.13 91.01v20.00" stroke="currentColor" fill="none"/>
<use x="208.13" y="94.01" xlink:href="#hd"/>
<circle fill="currentColor" cx="216.13" cy="91.01" r="1.2"/>
<path d="M204.63 94.01v20.00" stroke="currentColor" fill="none"/>
<path fill="currentColor"
	d="M204.63 114.01c0.6 -5.6 9.6 -9 5.6 -18.4
	c1.6 6 -1.3 11.6 -5.6 12.8
"/>
<path fill="currentColor"
	d="M241.63 114.01l15.50 2.20v-3.20l-15.50 -2.20"/>
<path fill="currentColor"
	d="M242.03 109.11l14.80 2.10v-3.20l-14.80 -2.10"/>
<path fill="currentColor"
	d="M242.03 104.11l14.80 2.10v-3.20l-14.80 -2.10"/>
<use x="245.53" y="88.01" xlink:href="#hd"/>
<path d="M242.03 88.01v25.10" stroke="currentColor" fill="none"/>
<use x="260.33" y="91.01" xlink:href="#hd"/>
<path d="M256.83 91.01v24.20" stroke="currentColor" fill="none"/>
<use x="276.73" y="94.01" xlink:href="#hd"/>
<path d="M273.23 94.01v20.00" stroke="currentColor" fill="none"/>
<use x="318.43" y="100.01" xlink:href="#hd"/>
<path d="M321.93 100.01v-20.00" stroke="currentColor" fill="none"/>
<use x="372.03" y="91.01" xlink:href="#hd"/>
<circle fill="currentColor" cx="380.03" cy="91.01" r="1.2"/>
<path d="M368.53 91.01v20.00" stroke="currentColor" fill="none"/>
<path fill="currentColor"
	d="M368.53 111.01c0.6 -5.6 9.6 -9 5.6 -18.4
	c1.6 6 -1.3 11.6 -5.6 12.8
"/>
<path fill="currentColor"
	d="M405.53 125.21l141.80 0.00v-3.20l-141.80 -0.00"/>
<path fill="currentColor"
	d="M405.83 120.21l14.80 0.00v-3.20l-14.80 -0.00"/>
<path fill="currentColor"
	d="M469.03 120.21l14.80 0.00v-3.20l-14.80 -0.00"/>
<path fill="currentColor"
	d="M532.13 120.21l14.80 0.00v-3.20l-14.80 -0.00"/>
<path fill="currentColor"
	d="M405.83 115.21l14.80 0.00v-3.20l-14.80 -0.00"/>
<path fill="currentColor"
	d="M469.03 115.21l14.80 0.00v-3.20l-14.80 -0.00"/>
<path fill="currentColor"
	d="M532.13 115.21l14.80 0.00v-3.20l-14.80 -0.00"/>
<use x="409.33" y="91.01" xlink:href="#hd"/>
<path d="M405.83 91.01v33.20" stroke="currentColor" fill="none"/>
<use x="424.13" y="100.01" xlink:href="#hd"/>
<path d="M420.63 100.01v24.20" stroke="currentColor" fill="none"/>
<use x="438.93" y="88.01" xlink:href="#hd"/>
<circle fill="currentColor" cx="446.93" cy="85.01" r="1.2"/>
<path d="M435.43 88.01v36.20" stroke="currentColor" fill="none"/>
<use x="472.53" y="88.01" xlink:href="#hd"/>
<path d="M469.03 88.01v36.20" stroke="currentColor" fill="none"/>
<use x="487.33" y="100.01" xlink:href="#hd"/>
<path d="M483.83 100.01v24.20" stroke="currentColor" fill="none"/>
<use x="502.03" y="85.01" xlink:href="#hd"/>
<circle fill="currentColor" cx="510.03" cy="85.01" r="1.2"/>
<path d="M498.53 85.01v39.20" stroke="currentColor" fill="none"/>
<use x="535.63" y="85.01" xlink:href="#hd"/>
<path d="M532.13 85.01v39.20" stroke="currentColor" fill="none"/>
<use x="550.43" y="100.01" xlink:href="#hd"/>
<path d="M546.93 100.01v24.20" stroke="currentColor" fill="none"/>
<use x="580.03" y="79.01" xlink:href="#hd"/>
<circle fill="currentColor" cx="588.03" cy="79.01" r="1.2"/>
<path d="M576.53 79.01v20.00" stroke="currentColor" fill="none"/>
<path fill="currentColor"
	d="M576.53 99.01c0.6 -5.6 9.6 -9 5.6 -18.4
	c1.6 6 -1.3 11.6 -5.6 12.8
"/>
<path fill="currentColor"
	d="M613.53 105.01l15.50 2.20v-3.20l-15.50 -2.20"/>
<path fill="currentColor"
	d="M613.83 100.11l14.80 2.10v-3.20l-14.80 -2.10"/>
<path fill="currentColor"
	d="M613.83 95.11l14.80 2.10v-3.20l-14.80 -2.10"/>
<use x="617.33" y="79.01" xlink:href="#hd"/>
<path d="M613.83 79.01v25.10" stroke="currentColor" fill="none"/>
<use x="632.13" y="82.01" xlink:href="#hd"/>
<path d="M628.63 82.01v24.20" stroke="currentColor" fill="none"/>
<use x="648.53" y="88.01" xlink:href="#hd"/>
<path d="M645.03 88.01v20.00" stroke="currentColor" fill="none"/>
<path fill="currentColor"
	d="M375.53 89.01c4.78 -5.05 25.57 -5.05 30.35 -0.00
	l0.00 -0.23c-5.69 -6.82 -24.66 -6.82 -30.35 0.23"/>
<path fill="currentColor"
	d="M442.43 82.01c4.19 -4.98 22.42 -4.98 26.62 -0.00
	l0.00 -0.23c-4.99 -6.75 -21.63 -6.75 -26.62 0.23"/>
<path fill="currentColor"
	d="M505.53 83.01c4.19 -4.98 22.42 -4.98 26.62 -0.00
	l0.00 -0.23c-4.99 -6.75 -21.63 -6.75 -26.62 0.23"/>
<path fill="currentColor"
	d="M583.53 77.01c4.78 -5.05 25.57 -5.05 30.35 -0.00
	l0.00 -0.23c-5.69 -6.82 -24.66 -6.82 -30.35 0.23"/>
</g>
</svg>
