<?xml version="1.0" standalone="no"?>
<!DOCTYPE svg PUBLIC "-//W3C//DTD SVG 1.1//EN"
	"http://www.w3.org/Graphics/SVG/1.1/DTD/svg11.dtd">
<svg xmlns="http://www.w3.org/2000/svg" version="1.1"
	xmlns:xlink="http://www.w3.org/1999/xlink"
	xml:space='preserve' color="black"
	width="7.38in" height="1.49in" viewBox="0 0 531 107">
<title>1045.abc (1045) tune 1</title>
<!-- Creator: abcm2ps-7.8.14 -->
<!-- CreationDate: Mar 13, 2016 18:53 -->
<!-- CommandLine: -qxg 1045.abc -O ../svgs/1045.svg -->
<g transform="scale(0.750)" stroke-width="0.70" font-family="Times" font-size="20.00">
<text x="354.13" y="21.67" text-anchor="middle">1045.  Symphony No. 3, in E Flat, Op. 55, 1st. Mvt. - 4th. Theme</text>
</g>
<g transform="scale(0.750)" stroke-width="0.70" font-family="Times" font-size="14.00" font-style="italic">
<text x="694.93" y="45.34" text-anchor="end">Ludwig Van Beethoven</text>
</g>
<g transform="scale(0.525)" stroke-width="0.70" font-family="Times" font-size="14.00" font-style="italic">
<defs>
<ellipse id="hd" rx="4.1" ry="2.9"
	transform="rotate(-20)" fill="currentColor"/>
</defs>
<use x="122.76" y="94.16" xlink:href="#hd"/>
<path d="M126.26 94.16v-20.00" stroke="currentColor" fill="none"/>
</g>
<g transform="scale(0.750)" stroke-width="0.70" font-family="Times" font-size="15.00" font-weight="bold">
<text x="93.63" y="68.01">= 120</text>
<path stroke="currentColor" fill="none"
	d="M293.83 120.01v-24.00"/>
<path stroke="currentColor" fill="none"
	d="M505.43 120.01v-24.00"/>
<path stroke="currentColor" fill="none"
	d="M13.33 120.01h681.60m-681.60 -6h681.60m-681.60 -6h681.60m-681.60 -6h681.60m-681.60 -6h681.60"/>
<defs>
<path id="utclef" fill="currentColor" d="m-50 -90
	c-72 -41 -72 -158 52 -188
	c150 -10 220 188 90 256
	c-114 52 -275 0 -293 -136
	c-15 -181 93 -229 220 -334
	c88 -87 79 -133 62 -210
	c-51 33 -94 105 -89 186
	c17 267 36 374 49 574
	c6 96 -19 134 -77 135
	c-80 1 -126 -93 -61 -133
	c85 -41 133 101 31 105
	c23 17 92 37 90 -92
	c-10 -223 -39 -342 -50 -617
	c0 -90 0 -162 96 -232
	c56 72 63 230 22 289
	c-74 106 -257 168 -255 316
	c9 153 148 185 252 133
	c86 -65 29 -192 -80 -176
	c-71 12 -105 67 -59 124"/>
<use id="tclef" transform="scale(0.045)"
	xlink:href="#utclef"/>
</defs>
<use x="25.33" y="120.01" xlink:href="#tclef"/>
<defs>
<path id="uflat" fill="currentColor" d="
	m100 -746
	h32
	v734
	l-32 4
	m32 -332
	c46 -72 152 -90 208 -20
	c100 110 -120 326 -208 348
	m0 -28
	c54 0 200 -206 130 -290
	c-50 -60 -130 -4 -130 34"/>
<use id="ft0" transform="translate(-3.5,3.5) scale(0.018)"
	xlink:href="#uflat"/>
</defs>
<use x="40.33" y="108.01" xlink:href="#ft0"/>
<use x="45.83" y="99.01" xlink:href="#ft0"/>
<use x="51.33" y="111.01" xlink:href="#ft0"/>
<g font-family="serif" font-size="16" font-weight="bold" font-style="normal"
	transform="translate(67.33,120.01) scale(1.2,1)">
	<text y="-1" text-anchor="middle">4</text>
	<text y="-13" text-anchor="middle">3</text>
</g>
<path fill="currentColor"
	d="M81.53 108.21l29.00 0.00v-3.20l-29.00 -0.00"/>
<path fill="currentColor"
	d="M104.23 103.21l6.00 0.00v-3.20l-6.00 -0.00"/>
<defs>
<path id="hl" stroke="currentColor" d="m-6 0h12"/>
</defs>
<use x="85.33" y="90.01" xlink:href="#hl"/>
<use x="85.33" y="84.01" xlink:href="#hl"/>
<use x="85.33" y="78.01" xlink:href="#hl"/>
<use x="85.33" y="78.01" xlink:href="#hd"/>
<path d="M81.83 78.01v29.20" stroke="currentColor" fill="none"/>
<use x="113.73" y="90.01" xlink:href="#hl"/>
<use x="113.73" y="84.01" xlink:href="#hl"/>
<use x="113.73" y="84.01" xlink:href="#hd"/>
<path d="M110.23 84.01v23.20" stroke="currentColor" fill="none"/>
<path fill="currentColor"
	d="M132.13 108.21l20.70 0.00v-3.20l-20.70 -0.00"/>
<path fill="currentColor"
	d="M138.43 103.21l-6.00 -0.00v-3.20l6.00 0.00"/>
<use x="135.93" y="90.01" xlink:href="#hl"/>
<use x="135.93" y="84.01" xlink:href="#hl"/>
<use x="135.93" y="81.01" xlink:href="#hd"/>
<path d="M132.43 81.01v26.20" stroke="currentColor" fill="none"/>
<use x="156.03" y="90.01" xlink:href="#hl"/>
<use x="156.03" y="84.01" xlink:href="#hl"/>
<use x="156.03" y="84.01" xlink:href="#hd"/>
<path d="M152.53 84.01v23.20" stroke="currentColor" fill="none"/>
<path fill="currentColor"
	d="M183.63 117.11l89.20 5.30v-3.20l-89.20 -5.30"/>
<path fill="currentColor"
	d="M184.03 112.11l20.00 1.20v-3.20l-20.00 -1.20"/>
<path fill="currentColor"
	d="M252.43 116.21l20.00 1.20v-3.20l-20.00 -1.20"/>
<use x="187.53" y="90.01" xlink:href="#hl"/>
<use x="187.53" y="90.01" xlink:href="#hd"/>
<defs>
<path id="unat" fill="currentColor" d="
	m96 -750
	h-32
	v716
	l32 -8
	l182 -54
	v282
	h32
	v-706
	l-34 10
	l-180 50
	v-290
	m0 592
	v-190
	l182 -52
	v188"/>
<use id="nt0" transform="translate(-3,5) scale(0.018)"
	xlink:href="#unat"/>
</defs>
<use x="178.53" y="90.01" xlink:href="#nt0"/>
<path d="M184.03 90.01v26.10" stroke="currentColor" fill="none"/>
<use x="207.53" y="90.01" xlink:href="#hl"/>
<use x="207.53" y="87.01" xlink:href="#hd"/>
<path d="M204.03 87.01v30.30" stroke="currentColor" fill="none"/>
<use x="227.63" y="90.01" xlink:href="#hl"/>
<use x="227.63" y="90.01" xlink:href="#hd"/>
<use x="218.63" y="90.01" xlink:href="#nt0"/>
<path d="M224.13 90.01v28.50" stroke="currentColor" fill="none"/>
<use x="255.93" y="99.01" xlink:href="#hd"/>
<path d="M252.43 99.01v21.20" stroke="currentColor" fill="none"/>
<use x="276.03" y="96.01" xlink:href="#hd"/>
<path d="M272.53 96.01v25.40" stroke="currentColor" fill="none"/>
<path fill="currentColor"
	d="M305.73 122.91l29.00 4.30v-3.20l-29.00 -4.30"/>
<path fill="currentColor"
	d="M328.43 121.31l6.00 0.90v-3.20l-6.00 -0.90"/>
<use x="309.53" y="99.01" xlink:href="#hd"/>
<path d="M306.03 99.01v23.00" stroke="currentColor" fill="none"/>
<use x="337.93" y="105.01" xlink:href="#hd"/>
<path d="M334.43 105.01v21.20" stroke="currentColor" fill="none"/>
<path fill="currentColor"
	d="M356.33 124.31l20.70 2.40v-3.20l-20.70 -2.40"/>
<path fill="currentColor"
	d="M362.73 120.01l-6.00 -0.70v-3.20l6.00 0.70"/>
<use x="360.23" y="102.01" xlink:href="#hd"/>
<path d="M356.73 102.01v21.30" stroke="currentColor" fill="none"/>
<use x="380.23" y="105.01" xlink:href="#hd"/>
<path d="M376.73 105.01v20.70" stroke="currentColor" fill="none"/>
<path fill="currentColor"
	d="M407.93 136.11l69.10 -10.10v-3.20l-69.10 10.10"/>
<path fill="currentColor"
	d="M408.23 131.11l20.00 -2.90v-3.20l-20.00 2.90"/>
<use x="411.73" y="111.01" xlink:href="#hd"/>
<use x="402.73" y="111.01" xlink:href="#nt0"/>
<path d="M408.23 111.01v24.10" stroke="currentColor" fill="none"/>
<use x="431.83" y="108.01" xlink:href="#hd"/>
<path d="M428.33 108.01v24.10" stroke="currentColor" fill="none"/>
<use x="451.83" y="111.01" xlink:href="#hd"/>
<use x="442.83" y="111.01" xlink:href="#nt0"/>
<path d="M448.33 111.01v18.20" stroke="currentColor" fill="none"/>
<use x="480.23" y="90.01" xlink:href="#hl"/>
<use x="480.23" y="84.01" xlink:href="#hl"/>
<use x="480.23" y="78.01" xlink:href="#hl"/>
<use x="480.23" y="78.01" xlink:href="#hd"/>
<path d="M476.73 78.01v47.00" stroke="currentColor" fill="none"/>
<path fill="currentColor"
	d="M517.33 110.01l29.00 0.00v-3.20l-29.00 -0.00"/>
<path fill="currentColor"
	d="M540.03 105.01l6.00 0.00v-3.20l-6.00 -0.00"/>
<use x="521.13" y="90.01" xlink:href="#hl"/>
<use x="521.13" y="84.01" xlink:href="#hl"/>
<use x="521.13" y="81.01" xlink:href="#hd"/>
<path d="M517.63 81.01v28.00" stroke="currentColor" fill="none"/>
<use x="549.53" y="90.01" xlink:href="#hl"/>
<use x="549.53" y="87.01" xlink:href="#hd"/>
<path d="M546.03 87.01v22.00" stroke="currentColor" fill="none"/>
<path fill="currentColor"
	d="M567.93 108.21l20.70 0.00v-3.20l-20.70 -0.00"/>
<path fill="currentColor"
	d="M574.33 103.21l-6.00 -0.00v-3.20l6.00 0.00"/>
<use x="571.83" y="90.01" xlink:href="#hl"/>
<use x="571.83" y="84.01" xlink:href="#hl"/>
<use x="571.83" y="84.01" xlink:href="#hd"/>
<path d="M568.33 84.01v23.20" stroke="currentColor" fill="none"/>
<use x="591.83" y="90.01" xlink:href="#hl"/>
<use x="591.83" y="87.01" xlink:href="#hd"/>
<path d="M588.33 87.01v20.20" stroke="currentColor" fill="none"/>
<path fill="currentColor"
	d="M619.53 115.91l40.80 0.00v-3.20l-40.80 -0.00"/>
<path fill="currentColor"
	d="M619.83 110.91l20.00 0.00v-3.20l-20.00 -0.00"/>
<use x="623.33" y="93.01" xlink:href="#hd"/>
<path d="M619.83 93.01v22.00" stroke="currentColor" fill="none"/>
<use x="643.33" y="90.01" xlink:href="#hl"/>
<use x="643.33" y="90.01" xlink:href="#hd"/>
<use x="634.33" y="90.01" xlink:href="#nt0"/>
<path d="M639.83 90.01v25.00" stroke="currentColor" fill="none"/>
<use x="663.43" y="93.01" xlink:href="#hd"/>
<path d="M659.93 93.01v22.00" stroke="currentColor" fill="none"/>
</g>
</svg>
