<?xml version="1.0" standalone="no"?>
<!DOCTYPE svg PUBLIC "-//W3C//DTD SVG 1.1//EN"
	"http://www.w3.org/Graphics/SVG/1.1/DTD/svg11.dtd">
<svg xmlns="http://www.w3.org/2000/svg" version="1.1"
	xmlns:xlink="http://www.w3.org/1999/xlink"
	xml:space='preserve' color="black"
	width="7.38in" height="1.46in" viewBox="0 0 531 105">
<title>1060.abc (1060) tune 1</title>
<!-- Creator: abcm2ps-7.8.14 -->
<!-- CreationDate: Mar 13, 2016 18:53 -->
<!-- CommandLine: -qxg 1060.abc -O ../svgs/1060.svg -->
<g transform="scale(0.750)" stroke-width="0.70" font-family="Times" font-size="20.00">
<text x="354.13" y="21.67" text-anchor="middle">1060.  Symphony No. 4, in B Flat, Op. 60, 1st. Mvt. - 1st. Theme</text>
</g>
<g transform="scale(0.750)" stroke-width="0.70" font-family="Times" font-size="14.00" font-style="italic">
<text x="694.93" y="45.34" text-anchor="end">Ludwig Van Beethoven</text>
</g>
<g transform="scale(0.525)" stroke-width="0.70" font-family="Times" font-size="14.00" font-style="italic">
<defs>
<ellipse id="hd" rx="4.1" ry="2.9"
	transform="rotate(-20)" fill="currentColor"/>
</defs>
<use x="114.90" y="94.16" xlink:href="#hd"/>
<path d="M118.40 94.16v-20.00" stroke="currentColor" fill="none"/>
</g>
<g transform="scale(0.750)" stroke-width="0.70" font-family="Times" font-size="15.00" font-weight="bold">
<text x="88.13" y="68.01">= 120</text>
<path stroke="currentColor" fill="none"
	d="M267.33 117.01v-24.00"/>
<path stroke="currentColor" fill="none"
	d="M454.03 117.01v-24.00"/>
<path stroke="currentColor" fill="none"
	d="M638.63 117.01v-24.00"/>
<path stroke="currentColor" fill="none"
	d="M13.33 117.01h681.60m-681.60 -6h681.60m-681.60 -6h681.60m-681.60 -6h681.60m-681.60 -6h681.60"/>
<text font-family="serif" font-size="12" font-style="italic" font-weight="normal"
	x="89.93" y="128.01" text-anchor="middle">3</text>
<defs>
<path id="utclef" fill="currentColor" d="m-50 -90
	c-72 -41 -72 -158 52 -188
	c150 -10 220 188 90 256
	c-114 52 -275 0 -293 -136
	c-15 -181 93 -229 220 -334
	c88 -87 79 -133 62 -210
	c-51 33 -94 105 -89 186
	c17 267 36 374 49 574
	c6 96 -19 134 -77 135
	c-80 1 -126 -93 -61 -133
	c85 -41 133 101 31 105
	c23 17 92 37 90 -92
	c-10 -223 -39 -342 -50 -617
	c0 -90 0 -162 96 -232
	c56 72 63 230 22 289
	c-74 106 -257 168 -255 316
	c9 153 148 185 252 133
	c86 -65 29 -192 -80 -176
	c-71 12 -105 67 -59 124"/>
<use id="tclef" transform="scale(0.045)"
	xlink:href="#utclef"/>
</defs>
<use x="25.33" y="117.01" xlink:href="#tclef"/>
<defs>
<path id="uflat" fill="currentColor" d="
	m100 -746
	h32
	v734
	l-32 4
	m32 -332
	c46 -72 152 -90 208 -20
	c100 110 -120 326 -208 348
	m0 -28
	c54 0 200 -206 130 -290
	c-50 -60 -130 -4 -130 34"/>
<use id="ft0" transform="translate(-3.5,3.5) scale(0.018)"
	xlink:href="#uflat"/>
</defs>
<use x="40.33" y="105.01" xlink:href="#ft0"/>
<use x="45.83" y="96.01" xlink:href="#ft0"/>
<g font-family="serif" font-size="16" font-weight="bold" font-style="normal"
	transform="translate(61.83,117.01) scale(1.2,1)">
	<text y="-1" text-anchor="middle">2</text>
	<text y="-13" text-anchor="middle">2</text>
</g>
<path fill="currentColor"
	d="M76.03 111.21l24.20 0.00v-3.20l-24.20 -0.00"/>
<path fill="currentColor"
	d="M76.33 106.21l23.50 0.00v-3.20l-23.50 -0.00"/>
<defs>
<path id="hl" stroke="currentColor" d="m-6 0h12"/>
</defs>
<use x="79.83" y="87.01" xlink:href="#hl"/>
<use x="79.83" y="87.01" xlink:href="#hd"/>
<path d="M76.33 87.01v23.20" stroke="currentColor" fill="none"/>
<use x="91.53" y="87.01" xlink:href="#hl"/>
<use x="91.53" y="84.01" xlink:href="#hd"/>
<path d="M88.03 84.01v26.20" stroke="currentColor" fill="none"/>
<use x="103.33" y="87.01" xlink:href="#hl"/>
<use x="103.33" y="81.01" xlink:href="#hl"/>
<use x="103.33" y="81.01" xlink:href="#hd"/>
<path d="M99.83 81.01v29.20" stroke="currentColor" fill="none"/>
<use x="116.33" y="87.01" xlink:href="#hl"/>
<use x="116.33" y="81.01" xlink:href="#hl"/>
<use x="116.33" y="78.01" xlink:href="#hd"/>
<path d="M112.83 78.01v27.00" stroke="currentColor" fill="none"/>
<path fill="currentColor"
	d="M112.83 105.01c0.6 -5.6 9.6 -9 5.6 -18.4
	c1.6 6 -1.3 11.6 -5.6 12.8
"/>
<defs>
<path id="r8e" fill="currentColor" d="m 0 0
	c-1.5 1.5 -2.4 2 -3.6 2
	c2.4 -2.8 -2.8 -4 -2.8 -1.2
	c0 2.7 4.3 2.4 5.9 0.6"/>
<g id="r8">
	<path d="m3.3 -4l-3.4 9.6" stroke="currentColor" fill="none"/>
	<use x="3.4" y="-4" xlink:href="#r8e"/>
</g>
</defs>
<use x="137.23" y="105.01" xlink:href="#r8"/>
<use x="160.43" y="87.01" xlink:href="#hl"/>
<use x="160.43" y="84.01" xlink:href="#hd"/>
<path d="M156.93 84.01v21.00" stroke="currentColor" fill="none"/>
<path fill="currentColor"
	d="M156.93 105.01c0.6 -5.6 9.6 -9 5.6 -18.4
	c1.6 6 -1.3 11.6 -5.6 12.8
"/>
<use x="181.33" y="105.01" xlink:href="#r8"/>
<use x="204.53" y="93.01" xlink:href="#hd"/>
<path d="M201.03 93.01v20.00" stroke="currentColor" fill="none"/>
<path fill="currentColor"
	d="M201.03 113.01c0.6 -5.6 9.6 -9 5.6 -18.4
	c1.6 6 -1.3 11.6 -5.6 12.8
"/>
<use x="225.43" y="105.01" xlink:href="#r8"/>
<use x="248.63" y="87.01" xlink:href="#hl"/>
<use x="248.63" y="84.01" xlink:href="#hd"/>
<path d="M245.13 84.01v21.00" stroke="currentColor" fill="none"/>
<path fill="currentColor"
	d="M245.13 105.01c0.6 -5.6 9.6 -9 5.6 -18.4
	c1.6 6 -1.3 11.6 -5.6 12.8
"/>
<use x="279.83" y="105.01" xlink:href="#r8"/>
<use x="303.03" y="99.01" xlink:href="#hd"/>
<path d="M299.53 99.01v20.00" stroke="currentColor" fill="none"/>
<path fill="currentColor"
	d="M299.53 119.01c0.6 -5.6 9.6 -9 5.6 -18.4
	c1.6 6 -1.3 11.6 -5.6 12.8
"/>
<use x="323.93" y="105.01" xlink:href="#r8"/>
<use x="347.13" y="93.01" xlink:href="#hd"/>
<path d="M343.63 93.01v20.00" stroke="currentColor" fill="none"/>
<path fill="currentColor"
	d="M343.63 113.01c0.6 -5.6 9.6 -9 5.6 -18.4
	c1.6 6 -1.3 11.6 -5.6 12.8
"/>
<use x="368.03" y="105.01" xlink:href="#r8"/>
<use x="391.23" y="105.01" xlink:href="#hd"/>
<path d="M387.73 105.01v20.00" stroke="currentColor" fill="none"/>
<path fill="currentColor"
	d="M387.73 125.01c0.6 -5.6 9.6 -9 5.6 -18.4
	c1.6 6 -1.3 11.6 -5.6 12.8
"/>
<use x="412.13" y="105.01" xlink:href="#r8"/>
<use x="435.33" y="99.01" xlink:href="#hd"/>
<path d="M431.83 99.01v20.00" stroke="currentColor" fill="none"/>
<path fill="currentColor"
	d="M431.83 119.01c0.6 -5.6 9.6 -9 5.6 -18.4
	c1.6 6 -1.3 11.6 -5.6 12.8
"/>
<use x="466.53" y="105.01" xlink:href="#r8"/>
<use x="487.43" y="111.01" xlink:href="#hd"/>
<path d="M490.93 111.01v-20.00" stroke="currentColor" fill="none"/>
<path fill="currentColor"
	d="	M490.93 91.01c0.6 5.6 9.6 9 5.6 18.4
	c1.6 -6 -1.3 -11.6 -5.6 -12.8
"/>
<use x="508.63" y="105.01" xlink:href="#r8"/>
<use x="531.83" y="96.01" xlink:href="#hd"/>
<path d="M528.33 96.01v20.00" stroke="currentColor" fill="none"/>
<path fill="currentColor"
	d="M528.33 116.01c0.6 -5.6 9.6 -9 5.6 -18.4
	c1.6 6 -1.3 11.6 -5.6 12.8
"/>
<use x="552.73" y="105.01" xlink:href="#r8"/>
<use x="575.93" y="102.01" xlink:href="#hd"/>
<path d="M572.43 102.01v20.00" stroke="currentColor" fill="none"/>
<path fill="currentColor"
	d="M572.43 122.01c0.6 -5.6 9.6 -9 5.6 -18.4
	c1.6 6 -1.3 11.6 -5.6 12.8
"/>
<use x="596.83" y="105.01" xlink:href="#r8"/>
<use x="620.03" y="105.01" xlink:href="#hd"/>
<path d="M616.53 105.01v20.00" stroke="currentColor" fill="none"/>
<path fill="currentColor"
	d="M616.53 125.01c0.6 -5.6 9.6 -9 5.6 -18.4
	c1.6 6 -1.3 11.6 -5.6 12.8
"/>
<use x="651.13" y="105.01" xlink:href="#r8"/>
<use x="672.03" y="108.01" xlink:href="#hd"/>
<path d="M675.53 108.01v-20.00" stroke="currentColor" fill="none"/>
<path fill="currentColor"
	d="	M675.53 88.01c0.6 5.6 9.6 9 5.6 18.4
	c1.6 -6 -1.3 -11.6 -5.6 -12.8
"/>
</g>
</svg>
