<?xml version="1.0" standalone="no"?>
<!DOCTYPE svg PUBLIC "-//W3C//DTD SVG 1.1//EN"
	"http://www.w3.org/Graphics/SVG/1.1/DTD/svg11.dtd">
<svg xmlns="http://www.w3.org/2000/svg" version="1.1"
	xmlns:xlink="http://www.w3.org/1999/xlink"
	xml:space='preserve' color="black"
	width="7.38in" height="1.36in" viewBox="0 0 531 98">
<title>1110.abc (1110) tune 1</title>
<!-- Creator: abcm2ps-7.8.14 -->
<!-- CreationDate: Mar 13, 2016 18:53 -->
<!-- CommandLine: -qxg 1110.abc -O ../svgs/1110.svg -->
<g transform="scale(0.750)" stroke-width="0.70" font-family="Times" font-size="20.00">
<text x="354.13" y="21.67" text-anchor="middle">1110.  Symphony No. 7, in A, Op. 92, 1st. Mvt. - Intro A</text>
</g>
<g transform="scale(0.750)" stroke-width="0.70" font-family="Times" font-size="14.00" font-style="italic">
<text x="694.93" y="45.34" text-anchor="end">Ludwig Van Beethoven</text>
</g>
<g transform="scale(0.525)" stroke-width="0.70" font-family="Times" font-size="14.00" font-style="italic">
<defs>
<ellipse id="hd" rx="4.1" ry="2.9"
	transform="rotate(-20)" fill="currentColor"/>
</defs>
<use x="123.47" y="94.16" xlink:href="#hd"/>
<path d="M126.97 94.16v-20.00" stroke="currentColor" fill="none"/>
</g>
<g transform="scale(0.750)" stroke-width="0.70" font-family="Times" font-size="15.00" font-weight="bold">
<text x="94.13" y="68.01">= 120</text>
<path stroke="currentColor" fill="none"
	d="M164.53 108.01v-24.00"/>
<path stroke="currentColor" fill="none"
	d="M253.13 108.01v-24.00"/>
<path stroke="currentColor" fill="none"
	d="M344.83 108.01v-24.00"/>
<path stroke="currentColor" fill="none"
	d="M403.73 108.01v-24.00"/>
<path stroke="currentColor" fill="none"
	d="M530.93 108.01v-24.00"/>
<path stroke="currentColor" fill="none"
	d="M631.83 108.01v-24.00"/>
<path stroke="currentColor" fill="none"
	d="M13.33 108.01h681.60m-681.60 -6h681.60m-681.60 -6h681.60m-681.60 -6h681.60m-681.60 -6h681.60"/>
<defs>
<path id="utclef" fill="currentColor" d="m-50 -90
	c-72 -41 -72 -158 52 -188
	c150 -10 220 188 90 256
	c-114 52 -275 0 -293 -136
	c-15 -181 93 -229 220 -334
	c88 -87 79 -133 62 -210
	c-51 33 -94 105 -89 186
	c17 267 36 374 49 574
	c6 96 -19 134 -77 135
	c-80 1 -126 -93 -61 -133
	c85 -41 133 101 31 105
	c23 17 92 37 90 -92
	c-10 -223 -39 -342 -50 -617
	c0 -90 0 -162 96 -232
	c56 72 63 230 22 289
	c-74 106 -257 168 -255 316
	c9 153 148 185 252 133
	c86 -65 29 -192 -80 -176
	c-71 12 -105 67 -59 124"/>
<use id="tclef" transform="scale(0.045)"
	xlink:href="#utclef"/>
</defs>
<use x="25.33" y="108.01" xlink:href="#tclef"/>
<defs>
<path id="usharp" fill="currentColor" d="
	m136 -702
	v890
	h32
	v-890
	m128 840
	h32
	v-888
	h-32
	m-232 286
	v116
	l338 -96
	v-116
	m-338 442
	v116
	l338 -98
	v-114"/>
<use id="sh0" transform="translate(-4,5) scale(0.018)"
	xlink:href="#usharp"/>
</defs>
<use x="40.33" y="84.01" xlink:href="#sh0"/>
<use x="45.83" y="93.01" xlink:href="#sh0"/>
<use x="51.33" y="81.01" xlink:href="#sh0"/>
<g font-family="serif" font-size="16" font-weight="bold" font-style="normal"
	transform="translate(67.33,108.01) scale(1.2,1)">
	<text y="-1" text-anchor="middle">4</text>
	<text y="-13" text-anchor="middle">3</text>
</g>
<defs>
<path id="hl" stroke="currentColor" d="m-6 0h12"/>
</defs>
<use x="85.83" y="78.01" xlink:href="#hl"/>
<defs>
<path id="Hd" fill="currentColor" d="m3 -1.6
	c-1 -1.8 -7 1.4 -6 3.2
	c1 1.8 7 -1.4 6 -3.2
	m0.5 -0.3
	c2 3.8 -5 7.6 -7 3.8
	c-2 -3.8 5 -7.6 7 -3.8"/>
</defs>
<use x="85.83" y="78.01" xlink:href="#Hd"/>
<path d="M82.33 78.01v20.00" stroke="currentColor" fill="none"/>
<use x="136.03" y="87.01" xlink:href="#hd"/>
<path d="M132.53 87.01v20.00" stroke="currentColor" fill="none"/>
<use x="177.33" y="87.01" xlink:href="#hd"/>
<path d="M173.83 87.01v20.00" stroke="currentColor" fill="none"/>
<use x="212.83" y="93.01" xlink:href="#Hd"/>
<path d="M209.33 93.01v20.00" stroke="currentColor" fill="none"/>
<use x="266.13" y="84.01" xlink:href="#Hd"/>
<path d="M262.63 84.01v20.00" stroke="currentColor" fill="none"/>
<use x="316.33" y="87.01" xlink:href="#hd"/>
<path d="M312.83 87.01v20.00" stroke="currentColor" fill="none"/>
<use x="357.83" y="87.01" xlink:href="#Hd"/>
<circle fill="currentColor" cx="366.83" cy="87.01" r="1.2"/>
<path d="M354.33 87.01v20.00" stroke="currentColor" fill="none"/>
<use x="416.43" y="87.01" xlink:href="#hd"/>
<path d="M412.93 87.01v20.00" stroke="currentColor" fill="none"/>
<use x="452.03" y="84.01" xlink:href="#hd"/>
<path d="M448.53 84.01v20.00" stroke="currentColor" fill="none"/>
<path fill="currentColor"
	d="M448.53 104.01c0.6 -5.6 9.6 -9 5.6 -18.4
	c1.6 6 -1.3 11.6 -5.6 12.8
"/>
<use x="477.23" y="87.01" xlink:href="#hd"/>
<path d="M473.73 87.01v20.00" stroke="currentColor" fill="none"/>
<path fill="currentColor"
	d="M473.73 107.01c0.6 -5.6 9.6 -9 5.6 -18.4
	c1.6 6 -1.3 11.6 -5.6 12.8
"/>
<use x="502.43" y="87.01" xlink:href="#hd"/>
<path d="M498.93 87.01v20.00" stroke="currentColor" fill="none"/>
<path fill="currentColor"
	d="M539.83 104.31l23.40 2.40v-3.20l-23.40 -2.40"/>
<use x="543.63" y="84.01" xlink:href="#hd"/>
<path d="M540.13 84.01v19.30" stroke="currentColor" fill="none"/>
<use x="566.33" y="87.01" xlink:href="#hd"/>
<path d="M562.83 87.01v18.70" stroke="currentColor" fill="none"/>
<use x="591.53" y="87.01" xlink:href="#Hd"/>
<path d="M588.03 87.01v20.00" stroke="currentColor" fill="none"/>
<use x="644.83" y="87.01" xlink:href="#Hd"/>
<path d="M641.33 87.01v20.00" stroke="currentColor" fill="none"/>
<path fill="currentColor"
	d="M139.53 85.01c5.39 -5.12 28.85 -5.12 34.24 -0.00
	l0.00 -0.23c-6.42 -6.88 -27.82 -6.88 -34.24 0.23"/>
<path fill="currentColor"
	d="M319.83 85.01c5.43 -5.12 29.05 -5.12 34.48 -0.00
	l0.00 -0.23c-6.47 -6.89 -28.02 -6.89 -34.48 0.23"/>
<path fill="currentColor"
	d="M361.33 85.01c7.87 -5.43 43.80 -5.43 51.67 -0.00
	l0.00 -0.25c-9.42 -7.18 -42.25 -7.18 -51.67 0.25"/>
<path fill="currentColor"
	d="M595.03 85.01c7.15 -5.33 39.08 -5.33 46.23 -0.00
	l0.00 -0.25c-8.54 -7.09 -37.69 -7.09 -46.23 0.25"/>
</g>
</svg>
