<?xml version="1.0" standalone="no"?>
<!DOCTYPE svg PUBLIC "-//W3C//DTD SVG 1.1//EN"
	"http://www.w3.org/Graphics/SVG/1.1/DTD/svg11.dtd">
<svg xmlns="http://www.w3.org/2000/svg" version="1.1"
	xmlns:xlink="http://www.w3.org/1999/xlink"
	xml:space='preserve' color="black"
	width="7.38in" height="1.39in" viewBox="0 0 531 100">
<title>1167.abc (1167) tune 1</title>
<!-- Creator: abcm2ps-7.8.14 -->
<!-- CreationDate: Mar 13, 2016 18:53 -->
<!-- CommandLine: -qxg 1167.abc -O ../svgs/1167.svg -->
<g transform="scale(0.750)" stroke-width="0.70" font-family="Times" font-size="20.00">
<text x="354.13" y="21.67" text-anchor="middle">1167.  Trio in D, Op. 70, No. 1 &quot;Geister&quot;, Vn., Cello, Pft., 1st. Mvt. - 1st. Theme</text>
</g>
<g transform="scale(0.750)" stroke-width="0.70" font-family="Times" font-size="14.00" font-style="italic">
<text x="694.93" y="45.34" text-anchor="end">Ludwig Van Beethoven</text>
</g>
<g transform="scale(0.525)" stroke-width="0.70" font-family="Times" font-size="14.00" font-style="italic">
<defs>
<ellipse id="hd" rx="4.1" ry="2.9"
	transform="rotate(-20)" fill="currentColor"/>
</defs>
<use x="114.90" y="94.16" xlink:href="#hd"/>
<path d="M118.40 94.16v-20.00" stroke="currentColor" fill="none"/>
</g>
<g transform="scale(0.750)" stroke-width="0.70" font-family="Times" font-size="15.00" font-weight="bold">
<text x="88.13" y="68.01">= 120</text>
<path stroke="currentColor" fill="none"
	d="M262.03 110.01v-24.00"/>
<path stroke="currentColor" fill="none"
	d="M448.33 110.01v-24.00"/>
<path stroke="currentColor" fill="none"
	d="M634.53 110.01v-24.00"/>
<path stroke="currentColor" fill="none"
	d="M13.33 110.01h681.60m-681.60 -6h681.60m-681.60 -6h681.60m-681.60 -6h681.60m-681.60 -6h681.60"/>
<defs>
<path id="utclef" fill="currentColor" d="m-50 -90
	c-72 -41 -72 -158 52 -188
	c150 -10 220 188 90 256
	c-114 52 -275 0 -293 -136
	c-15 -181 93 -229 220 -334
	c88 -87 79 -133 62 -210
	c-51 33 -94 105 -89 186
	c17 267 36 374 49 574
	c6 96 -19 134 -77 135
	c-80 1 -126 -93 -61 -133
	c85 -41 133 101 31 105
	c23 17 92 37 90 -92
	c-10 -223 -39 -342 -50 -617
	c0 -90 0 -162 96 -232
	c56 72 63 230 22 289
	c-74 106 -257 168 -255 316
	c9 153 148 185 252 133
	c86 -65 29 -192 -80 -176
	c-71 12 -105 67 -59 124"/>
<use id="tclef" transform="scale(0.045)"
	xlink:href="#utclef"/>
</defs>
<use x="25.33" y="110.01" xlink:href="#tclef"/>
<defs>
<path id="usharp" fill="currentColor" d="
	m136 -702
	v890
	h32
	v-890
	m128 840
	h32
	v-888
	h-32
	m-232 286
	v116
	l338 -96
	v-116
	m-338 442
	v116
	l338 -98
	v-114"/>
<use id="sh0" transform="translate(-4,5) scale(0.018)"
	xlink:href="#usharp"/>
</defs>
<use x="40.33" y="86.01" xlink:href="#sh0"/>
<use x="45.83" y="95.01" xlink:href="#sh0"/>
<g font-family="serif" font-size="16" font-weight="bold" font-style="normal"
	transform="translate(61.83,110.01) scale(1.2,1)">
	<text y="-1" text-anchor="middle">4</text>
	<text y="-13" text-anchor="middle">3</text>
</g>
<path fill="currentColor"
	d="M76.03 114.71l29.10 2.50v-3.20l-29.10 -2.50"/>
<path fill="currentColor"
	d="M98.73 111.71l6.00 0.50v-3.20l-6.00 -0.50"/>
<use x="79.83" y="92.01" xlink:href="#hd"/>
<path d="M76.33 92.01v21.70" stroke="currentColor" fill="none"/>
<use x="108.23" y="95.01" xlink:href="#hd"/>
<path d="M104.73 95.01v21.20" stroke="currentColor" fill="none"/>
<path fill="currentColor"
	d="M131.43 75.81l20.80 2.40v3.20l-20.80 -2.40"/>
<path fill="currentColor"
	d="M137.83 81.51l-6.00 -0.70v3.20l6.00 0.70"/>
<use x="128.33" y="98.01" xlink:href="#hd"/>
<path d="M131.83 98.01v-21.20" stroke="currentColor" fill="none"/>
<use x="148.43" y="101.01" xlink:href="#hd"/>
<path d="M151.93 101.01v-21.90" stroke="currentColor" fill="none"/>
<path fill="currentColor"
	d="M176.13 103.51l57.50 5.00v-3.20l-57.50 -5.00"/>
<use x="179.93" y="83.01" xlink:href="#hd"/>
<path d="M176.43 83.01v19.50" stroke="currentColor" fill="none"/>
<use x="208.33" y="86.01" xlink:href="#hd"/>
<path d="M204.83 86.01v19.00" stroke="currentColor" fill="none"/>
<use x="236.83" y="89.01" xlink:href="#hd"/>
<path d="M233.33 89.01v18.50" stroke="currentColor" fill="none"/>
<path fill="currentColor"
	d="M274.03 111.21l57.50 -5.80v-3.20l-57.50 5.80"/>
<use x="277.83" y="92.01" xlink:href="#hd"/>
<path d="M274.33 92.01v18.20" stroke="currentColor" fill="none"/>
<defs>
<path id="hl" stroke="currentColor" d="m-6 0h12"/>
</defs>
<use x="306.23" y="80.01" xlink:href="#hl"/>
<use x="306.23" y="77.01" xlink:href="#hd"/>
<path d="M302.73 77.01v30.30" stroke="currentColor" fill="none"/>
<use x="334.63" y="80.01" xlink:href="#hl"/>
<use x="334.63" y="80.01" xlink:href="#hd"/>
<path d="M331.13 80.01v24.50" stroke="currentColor" fill="none"/>
<path fill="currentColor"
	d="M362.33 106.61l57.50 -2.70v-3.20l-57.50 2.70"/>
<use x="366.23" y="83.01" xlink:href="#hd"/>
<path d="M362.73 83.01v22.60" stroke="currentColor" fill="none"/>
<use x="394.63" y="86.01" xlink:href="#hd"/>
<path d="M391.13 86.01v18.20" stroke="currentColor" fill="none"/>
<use x="423.03" y="80.01" xlink:href="#hl"/>
<use x="423.03" y="74.01" xlink:href="#hl"/>
<use x="423.03" y="71.01" xlink:href="#hd"/>
<path d="M419.53 71.01v31.80" stroke="currentColor" fill="none"/>
<path fill="currentColor"
	d="M460.23 98.21l57.50 0.00v-3.20l-57.50 -0.00"/>
<use x="464.03" y="80.01" xlink:href="#hl"/>
<use x="464.03" y="74.01" xlink:href="#hl"/>
<use x="464.03" y="74.01" xlink:href="#hd"/>
<path d="M460.53 74.01v23.20" stroke="currentColor" fill="none"/>
<use x="492.43" y="80.01" xlink:href="#hl"/>
<use x="492.43" y="77.01" xlink:href="#hd"/>
<path d="M488.93 77.01v20.20" stroke="currentColor" fill="none"/>
<use x="520.93" y="80.01" xlink:href="#hl"/>
<use x="520.93" y="80.01" xlink:href="#hd"/>
<path d="M517.43 80.01v17.20" stroke="currentColor" fill="none"/>
<path fill="currentColor"
	d="M548.63 98.21l57.50 0.00v-3.20l-57.50 -0.00"/>
<use x="552.43" y="80.01" xlink:href="#hl"/>
<use x="552.43" y="74.01" xlink:href="#hl"/>
<use x="552.43" y="68.01" xlink:href="#hl"/>
<use x="552.43" y="62.01" xlink:href="#hl"/>
<use x="552.43" y="62.01" xlink:href="#hd"/>
<path d="M548.93 62.01v35.20" stroke="currentColor" fill="none"/>
<use x="580.83" y="80.01" xlink:href="#hl"/>
<use x="580.83" y="74.01" xlink:href="#hl"/>
<use x="580.83" y="68.01" xlink:href="#hl"/>
<use x="580.83" y="65.01" xlink:href="#hd"/>
<path d="M577.33 65.01v32.20" stroke="currentColor" fill="none"/>
<use x="609.23" y="80.01" xlink:href="#hl"/>
<use x="609.23" y="74.01" xlink:href="#hl"/>
<use x="609.23" y="68.01" xlink:href="#hl"/>
<use x="609.23" y="68.01" xlink:href="#hd"/>
<path d="M605.73 68.01v29.20" stroke="currentColor" fill="none"/>
<use x="650.33" y="80.01" xlink:href="#hl"/>
<use x="650.33" y="74.01" xlink:href="#hl"/>
<use x="650.33" y="71.01" xlink:href="#hd"/>
<path d="M646.83 71.01v27.00" stroke="currentColor" fill="none"/>
</g>
</svg>
