<?xml version="1.0" standalone="no"?>
<!DOCTYPE svg PUBLIC "-//W3C//DTD SVG 1.1//EN"
	"http://www.w3.org/Graphics/SVG/1.1/DTD/svg11.dtd">
<svg xmlns="http://www.w3.org/2000/svg" version="1.1"
	xmlns:xlink="http://www.w3.org/1999/xlink"
	xml:space='preserve' color="black"
	width="7.38in" height="1.46in" viewBox="0 0 531 105">
<title>1192.abc (1192) tune 1</title>
<!-- Creator: abcm2ps-7.8.14 -->
<!-- CreationDate: Mar 13, 2016 18:53 -->
<!-- CommandLine: -qxg 1192.abc -O ../svgs/1192.svg -->
<g transform="scale(0.750)" stroke-width="0.70" font-family="Times" font-size="20.00">
<text x="354.13" y="21.67" text-anchor="middle">1192.  Carnaval Overture, Op. 92 - 4th. Theme</text>
</g>
<g transform="scale(0.750)" stroke-width="0.70" font-family="Times" font-size="14.00" font-style="italic">
<text x="694.93" y="45.34" text-anchor="end">Antonin Dvorak</text>
</g>
<g transform="scale(0.525)" stroke-width="0.70" font-family="Times" font-size="14.00" font-style="italic">
<defs>
<ellipse id="hd" rx="4.1" ry="2.9"
	transform="rotate(-20)" fill="currentColor"/>
</defs>
<use x="107.04" y="94.16" xlink:href="#hd"/>
<path d="M110.54 94.16v-20.00" stroke="currentColor" fill="none"/>
</g>
<g transform="scale(0.750)" stroke-width="0.70" font-family="Times" font-size="15.00" font-weight="bold">
<text x="82.63" y="68.01">= 120</text>
<path stroke="currentColor" fill="none"
	d="M110.73 117.01v-24.00"/>
<path stroke="currentColor" fill="none"
	d="M195.33 117.01v-24.00"/>
<path stroke="currentColor" fill="none"
	d="M245.93 117.01v-24.00"/>
<path stroke="currentColor" fill="none"
	d="M349.63 117.01v-24.00"/>
<path stroke="currentColor" fill="none"
	d="M400.23 117.01v-24.00"/>
<path stroke="currentColor" fill="none"
	d="M13.33 117.01h441.00m-441.00 -6h441.00m-441.00 -6h441.00m-441.00 -6h441.00m-441.00 -6h441.00"/>
<defs>
<path id="utclef" fill="currentColor" d="m-50 -90
	c-72 -41 -72 -158 52 -188
	c150 -10 220 188 90 256
	c-114 52 -275 0 -293 -136
	c-15 -181 93 -229 220 -334
	c88 -87 79 -133 62 -210
	c-51 33 -94 105 -89 186
	c17 267 36 374 49 574
	c6 96 -19 134 -77 135
	c-80 1 -126 -93 -61 -133
	c85 -41 133 101 31 105
	c23 17 92 37 90 -92
	c-10 -223 -39 -342 -50 -617
	c0 -90 0 -162 96 -232
	c56 72 63 230 22 289
	c-74 106 -257 168 -255 316
	c9 153 148 185 252 133
	c86 -65 29 -192 -80 -176
	c-71 12 -105 67 -59 124"/>
<use id="tclef" transform="scale(0.045)"
	xlink:href="#utclef"/>
</defs>
<use x="25.33" y="117.01" xlink:href="#tclef"/>
<defs>
<path id="usharp" fill="currentColor" d="
	m136 -702
	v890
	h32
	v-890
	m128 840
	h32
	v-888
	h-32
	m-232 286
	v116
	l338 -96
	v-116
	m-338 442
	v116
	l338 -98
	v-114"/>
<use id="sh0" transform="translate(-4,5) scale(0.018)"
	xlink:href="#usharp"/>
</defs>
<use x="40.33" y="93.01" xlink:href="#sh0"/>
<g font-family="serif" font-size="16" font-weight="bold" font-style="normal"
	transform="translate(56.33,117.01) scale(1.2,1)">
	<text y="-1" text-anchor="middle">8</text>
	<text y="-13" text-anchor="middle">3</text>
</g>
<defs>
<path id="hl" stroke="currentColor" d="m-6 0h12"/>
</defs>
<use x="74.33" y="87.01" xlink:href="#hl"/>
<use x="74.33" y="81.01" xlink:href="#hl"/>
<use x="74.33" y="78.01" xlink:href="#hd"/>
<circle fill="currentColor" cx="82.33" cy="78.01" r="1.2"/>
<path d="M70.83 78.01v27.00" stroke="currentColor" fill="none"/>
<path fill="currentColor"
	d="M121.03 108.91l55.10 3.30v-3.20l-55.10 -3.30"/>
<path fill="currentColor"
	d="M169.83 106.81l6.00 0.40v-3.20l-6.00 -0.40"/>
<use x="124.93" y="87.01" xlink:href="#hl"/>
<use x="124.93" y="84.01" xlink:href="#hd"/>
<path d="M121.43 84.01v23.90" stroke="currentColor" fill="none"/>
<use x="150.33" y="87.01" xlink:href="#hl"/>
<use x="150.33" y="81.01" xlink:href="#hl"/>
<use x="150.33" y="78.01" xlink:href="#hd"/>
<circle fill="currentColor" cx="158.33" cy="78.01" r="1.2"/>
<path d="M146.83 78.01v31.50" stroke="currentColor" fill="none"/>
<use x="179.33" y="90.01" xlink:href="#hd"/>
<path d="M175.83 90.01v21.20" stroke="currentColor" fill="none"/>
<use x="209.53" y="87.01" xlink:href="#hl"/>
<use x="209.53" y="81.01" xlink:href="#hl"/>
<use x="209.53" y="75.01" xlink:href="#hl"/>
<use x="209.53" y="69.01" xlink:href="#hl"/>
<use x="209.53" y="69.01" xlink:href="#hd"/>
<circle fill="currentColor" cx="217.53" cy="66.01" r="1.2"/>
<path d="M206.03 69.01v36.00" stroke="currentColor" fill="none"/>
<use x="260.13" y="87.01" xlink:href="#hl"/>
<use x="260.13" y="81.01" xlink:href="#hl"/>
<use x="260.13" y="75.01" xlink:href="#hl"/>
<use x="260.13" y="69.01" xlink:href="#hl"/>
<use x="260.13" y="69.01" xlink:href="#hd"/>
<path d="M256.63 69.01v36.00" stroke="currentColor" fill="none"/>
<path fill="currentColor"
	d="M296.23 105.21l38.90 0.00v-3.20l-38.90 -0.00"/>
<path fill="currentColor"
	d="M296.63 100.21l38.20 0.00v-3.20l-38.20 -0.00"/>
<path fill="currentColor"
	d="M296.63 95.21l38.20 0.00v-3.20l-38.20 -0.00"/>
<use x="300.13" y="87.01" xlink:href="#hl"/>
<use x="300.13" y="81.01" xlink:href="#hl"/>
<use x="300.13" y="75.01" xlink:href="#hl"/>
<use x="300.13" y="72.01" xlink:href="#hd"/>
<path d="M296.63 72.01v32.20" stroke="currentColor" fill="none"/>
<use x="312.83" y="87.01" xlink:href="#hl"/>
<use x="312.83" y="81.01" xlink:href="#hl"/>
<use x="312.83" y="75.01" xlink:href="#hl"/>
<use x="312.83" y="69.01" xlink:href="#hl"/>
<use x="312.83" y="69.01" xlink:href="#hd"/>
<path d="M309.33 69.01v35.20" stroke="currentColor" fill="none"/>
<use x="325.53" y="87.01" xlink:href="#hl"/>
<use x="325.53" y="81.01" xlink:href="#hl"/>
<use x="325.53" y="75.01" xlink:href="#hl"/>
<use x="325.53" y="72.01" xlink:href="#hd"/>
<path d="M322.03 72.01v32.20" stroke="currentColor" fill="none"/>
<use x="338.33" y="87.01" xlink:href="#hl"/>
<use x="338.33" y="81.01" xlink:href="#hl"/>
<use x="338.33" y="75.01" xlink:href="#hl"/>
<use x="338.33" y="75.01" xlink:href="#hd"/>
<path d="M334.83 75.01v29.20" stroke="currentColor" fill="none"/>
<use x="363.73" y="87.01" xlink:href="#hl"/>
<use x="363.73" y="84.01" xlink:href="#hd"/>
<circle fill="currentColor" cx="371.73" cy="84.01" r="1.2"/>
<path d="M360.23 84.01v21.00" stroke="currentColor" fill="none"/>
<use x="414.33" y="87.01" xlink:href="#hl"/>
<use x="414.33" y="84.01" xlink:href="#hd"/>
<path d="M410.83 84.01v21.00" stroke="currentColor" fill="none"/>
<path fill="currentColor"
	d="M213.03 63.01c6.79 -5.28 36.78 -5.28 43.58 -0.00
	l0.00 -0.24c-8.10 -7.04 -35.48 -7.04 -43.58 0.24"/>
<path fill="currentColor"
	d="M367.23 82.01c6.79 -5.28 36.78 -5.28 43.58 -0.00
	l0.00 -0.24c-8.10 -7.04 -35.48 -7.04 -43.58 0.24"/>
</g>
</svg>
