<?xml version="1.0" standalone="no"?>
<!DOCTYPE svg PUBLIC "-//W3C//DTD SVG 1.1//EN"
	"http://www.w3.org/Graphics/SVG/1.1/DTD/svg11.dtd">
<svg xmlns="http://www.w3.org/2000/svg" version="1.1"
	xmlns:xlink="http://www.w3.org/1999/xlink"
	xml:space='preserve' color="black"
	width="7.38in" height="1.34in" viewBox="0 0 531 97">
<title>1197.abc (1197) tune 1</title>
<!-- Creator: abcm2ps-7.8.14 -->
<!-- CreationDate: Mar 13, 2016 18:53 -->
<!-- CommandLine: -qxg 1197.abc -O ../svgs/1197.svg -->
<g transform="scale(0.750)" stroke-width="0.70" font-family="Times" font-size="20.00">
<text x="354.13" y="21.67" text-anchor="middle">1197.  Concerto in B Minor, Op. 104, 3rd. Mvt. - 1st. Theme</text>
</g>
<g transform="scale(0.750)" stroke-width="0.70" font-family="Times" font-size="14.00" font-style="italic">
<text x="694.93" y="45.34" text-anchor="end">Antonin Dvorak</text>
</g>
<g transform="scale(0.525)" stroke-width="0.70" font-family="Times" font-size="14.00" font-style="italic">
<defs>
<ellipse id="hd" rx="4.1" ry="2.9"
	transform="rotate(-20)" fill="currentColor"/>
</defs>
<use x="114.90" y="94.16" xlink:href="#hd"/>
<path d="M118.40 94.16v-20.00" stroke="currentColor" fill="none"/>
</g>
<g transform="scale(0.750)" stroke-width="0.70" font-family="Times" font-size="15.00" font-weight="bold">
<text x="88.13" y="68.01">= 120</text>
<path stroke="currentColor" fill="none"
	d="M146.23 106.01v-24.00"/>
<path stroke="currentColor" fill="none"
	d="M250.43 106.01v-24.00"/>
<path stroke="currentColor" fill="none"
	d="M367.33 106.01v-24.00"/>
<path stroke="currentColor" fill="none"
	d="M439.33 106.01v-24.00"/>
<path stroke="currentColor" fill="none"
	d="M519.13 106.01v-24.00"/>
<path stroke="currentColor" fill="none"
	d="M611.43 106.01v-24.00"/>
<path stroke="currentColor" fill="none"
	d="M13.33 106.01h681.60m-681.60 -6h681.60m-681.60 -6h681.60m-681.60 -6h681.60m-681.60 -6h681.60"/>
<defs>
<path id="ubclef" fill="currentColor" d="m-200 -87
	c124 -35 222 -78 254 -236
	c43 -228 -167 -246 -192 -103
	c59 -80 157 22 92 78
	c-62 47 -115 -22 -106 -88
	c21 -141 270 -136 274 52
	c-1 175 -106 264 -322 297
	m357 -250
	c0 -36 51 -34 51 0
	c0 37 -51 36 -51 0
	m-2 -129
	c0 -36 51 -34 51 0
	c0 38 -51 37 -51 0"/>
<use id="bclef" transform="scale(0.045)"
	xlink:href="#ubclef"/>
</defs>
<use x="25.33" y="106.01" xlink:href="#bclef"/>
<defs>
<path id="usharp" fill="currentColor" d="
	m136 -702
	v890
	h32
	v-890
	m128 840
	h32
	v-888
	h-32
	m-232 286
	v116
	l338 -96
	v-116
	m-338 442
	v116
	l338 -98
	v-114"/>
<use id="sh0" transform="translate(-4,5) scale(0.018)"
	xlink:href="#usharp"/>
</defs>
<use x="40.33" y="88.01" xlink:href="#sh0"/>
<use x="45.83" y="97.01" xlink:href="#sh0"/>
<g font-family="serif" font-size="16" font-weight="bold" font-style="normal"
	transform="translate(61.83,106.01) scale(1.2,1)">
	<text y="-1" text-anchor="middle">4</text>
	<text y="-13" text-anchor="middle">2</text>
</g>
<use x="79.83" y="88.01" xlink:href="#hd"/>
<path d="M76.33 88.01v20.00" stroke="currentColor" fill="none"/>
<use x="116.73" y="79.01" xlink:href="#hd"/>
<path d="M113.23 79.01v20.00" stroke="currentColor" fill="none"/>
<defs>
<path id="hl" stroke="currentColor" d="m-6 0h12"/>
</defs>
<use x="159.43" y="76.01" xlink:href="#hl"/>
<use x="159.43" y="76.01" xlink:href="#hd"/>
<path d="M155.93 76.01v20.00" stroke="currentColor" fill="none"/>
<path fill="currentColor"
	d="M155.93 96.01c0.6 -5.6 9.6 -9 5.6 -18.4
	c1.6 6 -1.3 11.6 -5.6 12.8
"/>
<path fill="currentColor"
	d="M181.83 95.91l17.40 2.30v-3.20l-17.40 -2.30"/>
<path fill="currentColor"
	d="M182.13 91.01l16.70 2.20v-3.20l-16.70 -2.20"/>
<use x="185.63" y="76.01" xlink:href="#hl"/>
<use x="185.63" y="73.01" xlink:href="#hd"/>
<path d="M182.13 73.01v22.00" stroke="currentColor" fill="none"/>
<use x="202.33" y="76.01" xlink:href="#hl"/>
<use x="202.33" y="76.01" xlink:href="#hd"/>
<path d="M198.83 76.01v21.20" stroke="currentColor" fill="none"/>
<use x="220.83" y="79.01" xlink:href="#hd"/>
<path d="M217.33 79.01v20.00" stroke="currentColor" fill="none"/>
<use x="263.63" y="76.01" xlink:href="#hl"/>
<use x="263.63" y="70.01" xlink:href="#hl"/>
<use x="263.63" y="67.01" xlink:href="#hd"/>
<path d="M260.13 67.01v27.00" stroke="currentColor" fill="none"/>
<path fill="currentColor"
	d="M296.73 96.01l17.40 0.00v-3.20l-17.40 -0.00"/>
<path fill="currentColor"
	d="M297.03 91.01l16.70 0.00v-3.20l-16.70 -0.00"/>
<use x="300.53" y="76.01" xlink:href="#hl"/>
<use x="300.53" y="70.01" xlink:href="#hl"/>
<use x="300.53" y="70.01" xlink:href="#hd"/>
<path d="M297.03 70.01v25.00" stroke="currentColor" fill="none"/>
<use x="317.23" y="76.01" xlink:href="#hl"/>
<use x="317.23" y="73.01" xlink:href="#hd"/>
<path d="M313.73 73.01v22.00" stroke="currentColor" fill="none"/>
<path fill="currentColor"
	d="M331.93 98.91l17.40 2.30v-3.20l-17.40 -2.30"/>
<path fill="currentColor"
	d="M332.23 94.01l16.70 2.20v-3.20l-16.70 -2.20"/>
<use x="335.73" y="76.01" xlink:href="#hl"/>
<use x="335.73" y="76.01" xlink:href="#hd"/>
<path d="M332.23 76.01v22.00" stroke="currentColor" fill="none"/>
<use x="352.43" y="79.01" xlink:href="#hd"/>
<path d="M348.93 79.01v21.20" stroke="currentColor" fill="none"/>
<use x="380.53" y="76.01" xlink:href="#hl"/>
<use x="380.53" y="76.01" xlink:href="#hd"/>
<circle fill="currentColor" cx="388.53" cy="73.01" r="1.2"/>
<path d="M377.03 76.01v20.00" stroke="currentColor" fill="none"/>
<defs>
<path id="r8e" fill="currentColor" d="m 0 0
	c-1.5 1.5 -2.4 2 -3.6 2
	c2.4 -2.8 -2.8 -4 -2.8 -1.2
	c0 2.7 4.3 2.4 5.9 0.6"/>
<g id="r8">
	<path d="m3.3 -4l-3.4 9.6" stroke="currentColor" fill="none"/>
	<use x="3.4" y="-4" xlink:href="#r8e"/>
</g>
</defs>
<use x="418.43" y="94.01" xlink:href="#r8"/>
<use x="452.53" y="76.01" xlink:href="#hl"/>
<use x="452.53" y="76.01" xlink:href="#hd"/>
<path d="M449.03 76.01v20.00" stroke="currentColor" fill="none"/>
<use x="489.63" y="76.01" xlink:href="#hl"/>
<use x="489.63" y="73.01" xlink:href="#hd"/>
<use x="480.63" y="73.01" xlink:href="#sh0"/>
<path d="M486.13 73.01v21.00" stroke="currentColor" fill="none"/>
<use x="532.33" y="76.01" xlink:href="#hl"/>
<use x="532.33" y="70.01" xlink:href="#hl"/>
<use x="532.33" y="70.01" xlink:href="#hd"/>
<path d="M528.83 70.01v24.00" stroke="currentColor" fill="none"/>
<use x="569.23" y="76.01" xlink:href="#hl"/>
<use x="569.23" y="70.01" xlink:href="#hl"/>
<use x="569.23" y="67.01" xlink:href="#hd"/>
<path d="M565.73 67.01v27.00" stroke="currentColor" fill="none"/>
<defs>
<path id="utclef" fill="currentColor" d="m-50 -90
	c-72 -41 -72 -158 52 -188
	c150 -10 220 188 90 256
	c-114 52 -275 0 -293 -136
	c-15 -181 93 -229 220 -334
	c88 -87 79 -133 62 -210
	c-51 33 -94 105 -89 186
	c17 267 36 374 49 574
	c6 96 -19 134 -77 135
	c-80 1 -126 -93 -61 -133
	c85 -41 133 101 31 105
	c23 17 92 37 90 -92
	c-10 -223 -39 -342 -50 -617
	c0 -90 0 -162 96 -232
	c56 72 63 230 22 289
	c-74 106 -257 168 -255 316
	c9 153 148 185 252 133
	c86 -65 29 -192 -80 -176
	c-71 12 -105 67 -59 124"/>
<use id="stclef" transform="translate(0,-0.6) scale(0.037)"
	xlink:href="#utclef"/>
</defs>
<use x="596.43" y="106.01" xlink:href="#stclef"/>
<path fill="currentColor"
	d="M627.73 74.81l17.40 2.30v3.20l-17.40 -2.30"/>
<path fill="currentColor"
	d="M628.13 79.81l16.70 2.20v3.20l-16.70 -2.20"/>
<use x="624.63" y="97.01" xlink:href="#hd"/>
<path d="M628.13 97.01v-21.20" stroke="currentColor" fill="none"/>
<use x="641.33" y="100.01" xlink:href="#hd"/>
<path d="M644.83 100.01v-22.00" stroke="currentColor" fill="none"/>
<path fill="currentColor"
	d="M662.93 80.81l17.40 2.30v3.20l-17.40 -2.30"/>
<path fill="currentColor"
	d="M663.33 85.81l16.70 2.20v3.20l-16.70 -2.20"/>
<use x="659.83" y="103.01" xlink:href="#hd"/>
<path d="M663.33 103.01v-21.20" stroke="currentColor" fill="none"/>
<use x="676.53" y="106.01" xlink:href="#hd"/>
<path d="M680.03 106.01v-22.00" stroke="currentColor" fill="none"/>
</g>
</svg>
