<?xml version="1.0" standalone="no"?>
<!DOCTYPE svg PUBLIC "-//W3C//DTD SVG 1.1//EN"
	"http://www.w3.org/Graphics/SVG/1.1/DTD/svg11.dtd">
<svg xmlns="http://www.w3.org/2000/svg" version="1.1"
	xmlns:xlink="http://www.w3.org/1999/xlink"
	xml:space='preserve' color="black"
	width="7.38in" height="1.34in" viewBox="0 0 531 97">
<title>1307.abc (1307) tune 1</title>
<!-- Creator: abcm2ps-7.8.14 -->
<!-- CreationDate: Mar 13, 2016 18:53 -->
<!-- CommandLine: -qxg 1307.abc -O ../svgs/1307.svg -->
<g transform="scale(0.750)" stroke-width="0.70" font-family="Times" font-size="20.00">
<text x="354.13" y="21.67" text-anchor="middle">1307.  Slavonic Dances, Op. 72, No. 3, 4th. Theme</text>
</g>
<g transform="scale(0.750)" stroke-width="0.70" font-family="Times" font-size="14.00" font-style="italic">
<text x="694.93" y="45.34" text-anchor="end">Antonin Dvorak</text>
</g>
<g transform="scale(0.525)" stroke-width="0.70" font-family="Times" font-size="14.00" font-style="italic">
<defs>
<ellipse id="hd" rx="4.1" ry="2.9"
	transform="rotate(-20)" fill="currentColor"/>
</defs>
<use x="114.90" y="94.16" xlink:href="#hd"/>
<path d="M118.40 94.16v-20.00" stroke="currentColor" fill="none"/>
</g>
<g transform="scale(0.750)" stroke-width="0.70" font-family="Times" font-size="15.00" font-weight="bold">
<text x="88.13" y="68.01">= 120</text>
<path stroke="currentColor" fill="none"
	d="M201.73 106.01v-24.00"/>
<path stroke="currentColor" fill="none"
	d="M313.13 106.01v-24.00"/>
<path stroke="currentColor" fill="none"
	d="M434.83 106.01v-24.00"/>
<path stroke="currentColor" fill="none"
	d="M537.53 106.01v-24.00"/>
<path stroke="currentColor" fill="none"
	d="M13.33 106.01h524.20m-524.20 -6h524.20m-524.20 -6h524.20m-524.20 -6h524.20m-524.20 -6h524.20"/>
<defs>
<path id="utclef" fill="currentColor" d="m-50 -90
	c-72 -41 -72 -158 52 -188
	c150 -10 220 188 90 256
	c-114 52 -275 0 -293 -136
	c-15 -181 93 -229 220 -334
	c88 -87 79 -133 62 -210
	c-51 33 -94 105 -89 186
	c17 267 36 374 49 574
	c6 96 -19 134 -77 135
	c-80 1 -126 -93 -61 -133
	c85 -41 133 101 31 105
	c23 17 92 37 90 -92
	c-10 -223 -39 -342 -50 -617
	c0 -90 0 -162 96 -232
	c56 72 63 230 22 289
	c-74 106 -257 168 -255 316
	c9 153 148 185 252 133
	c86 -65 29 -192 -80 -176
	c-71 12 -105 67 -59 124"/>
<use id="tclef" transform="scale(0.045)"
	xlink:href="#utclef"/>
</defs>
<use x="25.33" y="106.01" xlink:href="#tclef"/>
<defs>
<path id="uflat" fill="currentColor" d="
	m100 -746
	h32
	v734
	l-32 4
	m32 -332
	c46 -72 152 -90 208 -20
	c100 110 -120 326 -208 348
	m0 -28
	c54 0 200 -206 130 -290
	c-50 -60 -130 -4 -130 34"/>
<use id="ft0" transform="translate(-3.5,3.5) scale(0.018)"
	xlink:href="#uflat"/>
</defs>
<use x="40.33" y="94.01" xlink:href="#ft0"/>
<use x="45.83" y="85.01" xlink:href="#ft0"/>
<g font-family="serif" font-size="16" font-weight="bold" font-style="normal"
	transform="translate(61.83,106.01) scale(1.2,1)">
	<text y="-1" text-anchor="middle">4</text>
	<text y="-13" text-anchor="middle">2</text>
</g>
<defs>
<path id="r8e" fill="currentColor" d="m 0 0
	c-1.5 1.5 -2.4 2 -3.6 2
	c2.4 -2.8 -2.8 -4 -2.8 -1.2
	c0 2.7 4.3 2.4 5.9 0.6"/>
<g id="r32">
	<path d="m4.8 -10l-5.5 21.6" stroke="currentColor" fill="none"/>
	<use x="4.9" y="-10" xlink:href="#r8e"/>
	<use x="3.4" y="-4" xlink:href="#r8e"/>
	<use x="1.9" y="2" xlink:href="#r8e"/>
</g>
</defs>
<use x="79.83" y="94.01" xlink:href="#r32"/>
<use x="94.03" y="82.01" xlink:href="#hd"/>
<circle fill="currentColor" cx="102.03" cy="79.01" r="1.2"/>
<path d="M90.53 82.01v22.00" stroke="currentColor" fill="none"/>
<path fill="currentColor"
	d="M90.53 104.01c0.9 -3.7 9.1 -6.4 6 -12.4
	c1 5.4 -4.2 8.4 -6 8.4
M90.53 98.61c0.9 -3.7 9.1 -6.4 6 -12.4
	c1 5.4 -4.2 8.4 -6 8.4
"/>
<use x="116.73" y="94.01" xlink:href="#hd"/>
<path d="M113.23 94.01v20.00" stroke="currentColor" fill="none"/>
<path fill="currentColor"
	d="M113.23 114.01c0.6 -5.6 9.6 -9 5.6 -18.4
	c1.6 6 -1.3 11.6 -5.6 12.8
"/>
<use x="142.23" y="94.01" xlink:href="#r32"/>
<use x="156.33" y="82.01" xlink:href="#hd"/>
<circle fill="currentColor" cx="164.33" cy="79.01" r="1.2"/>
<path d="M152.83 82.01v22.00" stroke="currentColor" fill="none"/>
<path fill="currentColor"
	d="M152.83 104.01c0.9 -3.7 9.1 -6.4 6 -12.4
	c1 5.4 -4.2 8.4 -6 8.4
M152.83 98.61c0.9 -3.7 9.1 -6.4 6 -12.4
	c1 5.4 -4.2 8.4 -6 8.4
"/>
<use x="179.13" y="94.01" xlink:href="#hd"/>
<path d="M175.63 94.01v20.00" stroke="currentColor" fill="none"/>
<path fill="currentColor"
	d="M175.63 114.01c0.6 -5.6 9.6 -9 5.6 -18.4
	c1.6 6 -1.3 11.6 -5.6 12.8
"/>
<use x="215.93" y="94.01" xlink:href="#r32"/>
<use x="230.03" y="82.01" xlink:href="#hd"/>
<circle fill="currentColor" cx="238.03" cy="79.01" r="1.2"/>
<path d="M226.53 82.01v22.00" stroke="currentColor" fill="none"/>
<path fill="currentColor"
	d="M226.53 104.01c0.9 -3.7 9.1 -6.4 6 -12.4
	c1 5.4 -4.2 8.4 -6 8.4
M226.53 98.61c0.9 -3.7 9.1 -6.4 6 -12.4
	c1 5.4 -4.2 8.4 -6 8.4
"/>
<use x="252.83" y="94.01" xlink:href="#hd"/>
<path d="M249.33 94.01v20.00" stroke="currentColor" fill="none"/>
<path fill="currentColor"
	d="M249.33 114.01c0.6 -5.6 9.6 -9 5.6 -18.4
	c1.6 6 -1.3 11.6 -5.6 12.8
"/>
<use x="281.13" y="82.01" xlink:href="#hd"/>
<path d="M277.63 82.01v20.00" stroke="currentColor" fill="none"/>
<use x="327.33" y="85.01" xlink:href="#hd"/>
<path d="M323.83 85.01v20.00" stroke="currentColor" fill="none"/>
<path fill="currentColor"
	d="M323.83 105.01c0.6 -5.6 9.6 -9 5.6 -18.4
	c1.6 6 -1.3 11.6 -5.6 12.8
"/>
<use x="355.63" y="88.01" xlink:href="#hd"/>
<use x="346.63" y="88.01" xlink:href="#ft0"/>
<path d="M352.13 88.01v20.00" stroke="currentColor" fill="none"/>
<path fill="currentColor"
	d="M352.13 108.01c0.6 -5.6 9.6 -9 5.6 -18.4
	c1.6 6 -1.3 11.6 -5.6 12.8
"/>
<use x="383.93" y="94.01" xlink:href="#hd"/>
<defs>
<path id="unat" fill="currentColor" d="
	m96 -750
	h-32
	v716
	l32 -8
	l182 -54
	v282
	h32
	v-706
	l-34 10
	l-180 50
	v-290
	m0 592
	v-190
	l182 -52
	v188"/>
<use id="nt0" transform="translate(-3,5) scale(0.018)"
	xlink:href="#unat"/>
</defs>
<use x="374.93" y="94.01" xlink:href="#nt0"/>
<path d="M380.43 94.01v20.00" stroke="currentColor" fill="none"/>
<path fill="currentColor"
	d="M380.43 114.01c0.6 -5.6 9.6 -9 5.6 -18.4
	c1.6 6 -1.3 11.6 -5.6 12.8
"/>
<use x="412.23" y="94.01" xlink:href="#hd"/>
<use x="403.23" y="94.01" xlink:href="#ft0"/>
<path d="M408.73 94.01v20.00" stroke="currentColor" fill="none"/>
<path fill="currentColor"
	d="M408.73 114.01c0.6 -5.6 9.6 -9 5.6 -18.4
	c1.6 6 -1.3 11.6 -5.6 12.8
"/>
<use x="448.93" y="97.01" xlink:href="#hd"/>
<path d="M452.43 97.01v-20.00" stroke="currentColor" fill="none"/>
<path fill="currentColor"
	d="	M452.43 77.01c0.6 5.6 9.6 9 5.6 18.4
	c1.6 -6 -1.3 -11.6 -5.6 -12.8
"/>
<use x="477.23" y="97.01" xlink:href="#hd"/>
<use x="468.23" y="97.01" xlink:href="#ft0"/>
<path d="M480.73 97.01v-20.00" stroke="currentColor" fill="none"/>
<path fill="currentColor"
	d="	M480.73 77.01c0.6 5.6 9.6 9 5.6 18.4
	c1.6 -6 -1.3 -11.6 -5.6 -12.8
"/>
<use x="505.53" y="100.01" xlink:href="#hd"/>
<use x="496.53" y="100.01" xlink:href="#ft0"/>
<path d="M509.03 100.01v-20.00" stroke="currentColor" fill="none"/>
</g>
</svg>
