<?xml version="1.0" standalone="no"?>
<!DOCTYPE svg PUBLIC "-//W3C//DTD SVG 1.1//EN"
	"http://www.w3.org/Graphics/SVG/1.1/DTD/svg11.dtd">
<svg xmlns="http://www.w3.org/2000/svg" version="1.1"
	xmlns:xlink="http://www.w3.org/1999/xlink"
	xml:space='preserve' color="black"
	width="7.38in" height="1.40in" viewBox="0 0 531 101">
<title>1364.abc (1364) tune 1</title>
<!-- Creator: abcm2ps-7.8.14 -->
<!-- CreationDate: Mar 13, 2016 18:53 -->
<!-- CommandLine: -qxg 1364.abc -O ../svgs/1364.svg -->
<g transform="scale(0.750)" stroke-width="0.70" font-family="Times" font-size="20.00">
<text x="354.13" y="21.67" text-anchor="middle">1364.  Symphony No. 5 in E Minor, Op. 95, 3rd. Mvt. - 1st. Theme</text>
</g>
<g transform="scale(0.750)" stroke-width="0.70" font-family="Times" font-size="14.00" font-style="italic">
<text x="694.93" y="45.34" text-anchor="end">Antonin Dvorak</text>
</g>
<g transform="scale(0.525)" stroke-width="0.70" font-family="Times" font-size="14.00" font-style="italic">
<defs>
<ellipse id="hd" rx="4.1" ry="2.9"
	transform="rotate(-20)" fill="currentColor"/>
</defs>
<use x="107.04" y="94.16" xlink:href="#hd"/>
<path d="M110.54 94.16v-20.00" stroke="currentColor" fill="none"/>
</g>
<g transform="scale(0.750)" stroke-width="0.70" font-family="Times" font-size="15.00" font-weight="bold">
<text x="82.63" y="68.01">= 120</text>
<path stroke="currentColor" fill="none"
	d="M149.23 111.01v-24.00"/>
<path stroke="currentColor" fill="none"
	d="M225.93 111.01v-24.00"/>
<path stroke="currentColor" fill="none"
	d="M302.63 111.01v-24.00"/>
<path stroke="currentColor" fill="none"
	d="M388.03 111.01v-24.00"/>
<path stroke="currentColor" fill="none"
	d="M475.33 111.01v-24.00"/>
<path stroke="currentColor" fill="none"
	d="M552.03 111.01v-24.00"/>
<path stroke="currentColor" fill="none"
	d="M628.73 111.01v-24.00"/>
<path stroke="currentColor" fill="none"
	d="M13.33 111.01h681.60m-681.60 -6h681.60m-681.60 -6h681.60m-681.60 -6h681.60m-681.60 -6h681.60"/>
<defs>
<path id="utclef" fill="currentColor" d="m-50 -90
	c-72 -41 -72 -158 52 -188
	c150 -10 220 188 90 256
	c-114 52 -275 0 -293 -136
	c-15 -181 93 -229 220 -334
	c88 -87 79 -133 62 -210
	c-51 33 -94 105 -89 186
	c17 267 36 374 49 574
	c6 96 -19 134 -77 135
	c-80 1 -126 -93 -61 -133
	c85 -41 133 101 31 105
	c23 17 92 37 90 -92
	c-10 -223 -39 -342 -50 -617
	c0 -90 0 -162 96 -232
	c56 72 63 230 22 289
	c-74 106 -257 168 -255 316
	c9 153 148 185 252 133
	c86 -65 29 -192 -80 -176
	c-71 12 -105 67 -59 124"/>
<use id="tclef" transform="scale(0.045)"
	xlink:href="#utclef"/>
</defs>
<use x="25.33" y="111.01" xlink:href="#tclef"/>
<defs>
<path id="usharp" fill="currentColor" d="
	m136 -702
	v890
	h32
	v-890
	m128 840
	h32
	v-888
	h-32
	m-232 286
	v116
	l338 -96
	v-116
	m-338 442
	v116
	l338 -98
	v-114"/>
<use id="sh0" transform="translate(-4,5) scale(0.018)"
	xlink:href="#usharp"/>
</defs>
<use x="40.33" y="87.01" xlink:href="#sh0"/>
<g font-family="serif" font-size="16" font-weight="bold" font-style="normal"
	transform="translate(56.33,111.01) scale(1.2,1)">
	<text y="-1" text-anchor="middle">4</text>
	<text y="-13" text-anchor="middle">3</text>
</g>
<defs>
<path id="r4" fill="currentColor" d="m-1 -8.5
	l3.6 5.1 -2.1 5.2 2.2 4.3
	c-2.6 -2.3 -5.1 0 -2.4 2.6
	c-4.8 -3 -1.5 -6.9 1.4 -4.1
	l-3.1 -4.5 1.9 -5.1 -1.5 -3.5"/>
</defs>
<use x="74.33" y="99.01" xlink:href="#r4"/>
<defs>
<path id="hl" stroke="currentColor" d="m-6 0h12"/>
</defs>
<use x="97.13" y="81.01" xlink:href="#hl"/>
<use x="97.13" y="78.01" xlink:href="#hd"/>
<path d="M93.63 78.01v21.00" stroke="currentColor" fill="none"/>
<path fill="currentColor"
	d="M93.63 99.01c0.6 -5.6 9.6 -9 5.6 -18.4
	c1.6 6 -1.3 11.6 -5.6 12.8
"/>
<use x="113.83" y="81.01" xlink:href="#hl"/>
<use x="113.83" y="78.01" xlink:href="#hd"/>
<path d="M110.33 78.01v21.00" stroke="currentColor" fill="none"/>
<path fill="currentColor"
	d="M110.33 99.01c0.6 -5.6 9.6 -9 5.6 -18.4
	c1.6 6 -1.3 11.6 -5.6 12.8
"/>
<use x="130.63" y="81.01" xlink:href="#hl"/>
<use x="130.63" y="78.01" xlink:href="#hd"/>
<path d="M127.13 78.01v21.00" stroke="currentColor" fill="none"/>
<use x="161.73" y="90.01" xlink:href="#hd"/>
<path d="M158.23 90.01v20.00" stroke="currentColor" fill="none"/>
<use x="184.53" y="90.01" xlink:href="#hd"/>
<path d="M181.03 90.01v20.00" stroke="currentColor" fill="none"/>
<use x="207.33" y="99.01" xlink:href="#r4"/>
<use x="238.43" y="99.01" xlink:href="#r4"/>
<use x="261.23" y="87.01" xlink:href="#hd"/>
<path d="M257.73 87.01v20.00" stroke="currentColor" fill="none"/>
<use x="284.03" y="81.01" xlink:href="#hl"/>
<use x="284.03" y="81.01" xlink:href="#hd"/>
<path d="M280.53 81.01v20.00" stroke="currentColor" fill="none"/>
<path fill="currentColor"
	d="M311.23 104.41l15.70 2.20v-3.20l-15.70 -2.20"/>
<use x="315.13" y="84.01" xlink:href="#hd"/>
<path d="M311.63 84.01v19.40" stroke="currentColor" fill="none"/>
<use x="330.13" y="87.01" xlink:href="#hd"/>
<path d="M326.63 87.01v18.60" stroke="currentColor" fill="none"/>
<use x="346.63" y="90.01" xlink:href="#hd"/>
<path d="M343.13 90.01v20.00" stroke="currentColor" fill="none"/>
<use x="369.43" y="99.01" xlink:href="#r4"/>
<use x="400.53" y="99.01" xlink:href="#r4"/>
<use x="423.33" y="81.01" xlink:href="#hl"/>
<use x="423.33" y="78.01" xlink:href="#hd"/>
<path d="M419.83 78.01v21.00" stroke="currentColor" fill="none"/>
<path fill="currentColor"
	d="M419.83 99.01c0.6 -5.6 9.6 -9 5.6 -18.4
	c1.6 6 -1.3 11.6 -5.6 12.8
"/>
<use x="440.03" y="81.01" xlink:href="#hl"/>
<use x="440.03" y="78.01" xlink:href="#hd"/>
<path d="M436.53 78.01v21.00" stroke="currentColor" fill="none"/>
<path fill="currentColor"
	d="M436.53 99.01c0.6 -5.6 9.6 -9 5.6 -18.4
	c1.6 6 -1.3 11.6 -5.6 12.8
"/>
<use x="456.73" y="81.01" xlink:href="#hl"/>
<use x="456.73" y="78.01" xlink:href="#hd"/>
<path d="M453.23 78.01v21.00" stroke="currentColor" fill="none"/>
<use x="487.83" y="90.01" xlink:href="#hd"/>
<path d="M484.33 90.01v20.00" stroke="currentColor" fill="none"/>
<use x="510.63" y="90.01" xlink:href="#hd"/>
<path d="M507.13 90.01v20.00" stroke="currentColor" fill="none"/>
<use x="533.43" y="99.01" xlink:href="#r4"/>
<use x="564.53" y="99.01" xlink:href="#r4"/>
<use x="587.33" y="87.01" xlink:href="#hd"/>
<path d="M583.83 87.01v20.00" stroke="currentColor" fill="none"/>
<use x="610.13" y="81.01" xlink:href="#hl"/>
<use x="610.13" y="81.01" xlink:href="#hd"/>
<path d="M606.63 81.01v20.00" stroke="currentColor" fill="none"/>
<path fill="currentColor"
	d="M637.43 104.41l15.70 2.20v-3.20l-15.70 -2.20"/>
<use x="641.23" y="84.01" xlink:href="#hd"/>
<path d="M637.73 84.01v19.40" stroke="currentColor" fill="none"/>
<use x="656.23" y="87.01" xlink:href="#hd"/>
<path d="M652.73 87.01v18.60" stroke="currentColor" fill="none"/>
<use x="672.73" y="90.01" xlink:href="#hd"/>
<path d="M669.23 90.01v20.00" stroke="currentColor" fill="none"/>
</g>
</svg>
