<?xml version="1.0" standalone="no"?>
<!DOCTYPE svg PUBLIC "-//W3C//DTD SVG 1.1//EN"
	"http://www.w3.org/Graphics/SVG/1.1/DTD/svg11.dtd">
<svg xmlns="http://www.w3.org/2000/svg" version="1.1"
	xmlns:xlink="http://www.w3.org/1999/xlink"
	xml:space='preserve' color="black"
	width="7.38in" height="1.34in" viewBox="0 0 531 97">
<title>1366.abc (1366) tune 1</title>
<!-- Creator: abcm2ps-7.8.14 -->
<!-- CreationDate: Mar 13, 2016 18:53 -->
<!-- CommandLine: -qxg 1366.abc -O ../svgs/1366.svg -->
<g transform="scale(0.750)" stroke-width="0.70" font-family="Times" font-size="20.00">
<text x="354.13" y="21.67" text-anchor="middle">1366.  Symphony No. 5 in E Minor, Op. 95, 3rd. Mvt. - 3rd. Theme</text>
</g>
<g transform="scale(0.750)" stroke-width="0.70" font-family="Times" font-size="14.00" font-style="italic">
<text x="694.93" y="45.34" text-anchor="end">Antonin Dvorak</text>
</g>
<g transform="scale(0.525)" stroke-width="0.70" font-family="Times" font-size="14.00" font-style="italic">
<defs>
<ellipse id="hd" rx="4.1" ry="2.9"
	transform="rotate(-20)" fill="currentColor"/>
</defs>
<use x="107.04" y="94.16" xlink:href="#hd"/>
<path d="M110.54 94.16v-20.00" stroke="currentColor" fill="none"/>
</g>
<g transform="scale(0.750)" stroke-width="0.70" font-family="Times" font-size="15.00" font-weight="bold">
<text x="82.63" y="68.01">= 120</text>
<path stroke="currentColor" fill="none"
	d="M149.83 106.01v-24.00"/>
<path stroke="currentColor" fill="none"
	d="M247.93 106.01v-24.00"/>
<path stroke="currentColor" fill="none"
	d="M329.23 106.01v-24.00"/>
<path stroke="currentColor" fill="none"
	d="M378.33 106.01v-24.00"/>
<path stroke="currentColor" fill="none"
	d="M466.33 106.01v-24.00"/>
<path stroke="currentColor" fill="none"
	d="M564.53 106.01v-24.00"/>
<path stroke="currentColor" fill="none"
	d="M645.83 106.01v-24.00"/>
<path stroke="currentColor" fill="none"
	d="M694.93 106.01v-24.00"/>
<path stroke="currentColor" fill="none"
	d="M13.33 106.01h681.60m-681.60 -6h681.60m-681.60 -6h681.60m-681.60 -6h681.60m-681.60 -6h681.60"/>
<defs>
<path id="utclef" fill="currentColor" d="m-50 -90
	c-72 -41 -72 -158 52 -188
	c150 -10 220 188 90 256
	c-114 52 -275 0 -293 -136
	c-15 -181 93 -229 220 -334
	c88 -87 79 -133 62 -210
	c-51 33 -94 105 -89 186
	c17 267 36 374 49 574
	c6 96 -19 134 -77 135
	c-80 1 -126 -93 -61 -133
	c85 -41 133 101 31 105
	c23 17 92 37 90 -92
	c-10 -223 -39 -342 -50 -617
	c0 -90 0 -162 96 -232
	c56 72 63 230 22 289
	c-74 106 -257 168 -255 316
	c9 153 148 185 252 133
	c86 -65 29 -192 -80 -176
	c-71 12 -105 67 -59 124"/>
<use id="tclef" transform="scale(0.045)"
	xlink:href="#utclef"/>
</defs>
<use x="25.33" y="106.01" xlink:href="#tclef"/>
<defs>
<path id="usharp" fill="currentColor" d="
	m136 -702
	v890
	h32
	v-890
	m128 840
	h32
	v-888
	h-32
	m-232 286
	v116
	l338 -96
	v-116
	m-338 442
	v116
	l338 -98
	v-114"/>
<use id="sh0" transform="translate(-4,5) scale(0.018)"
	xlink:href="#usharp"/>
</defs>
<use x="40.33" y="82.01" xlink:href="#sh0"/>
<g font-family="serif" font-size="16" font-weight="bold" font-style="normal"
	transform="translate(56.33,106.01) scale(1.2,1)">
	<text y="-1" text-anchor="middle">4</text>
	<text y="-13" text-anchor="middle">3</text>
</g>
<use x="74.33" y="91.01" xlink:href="#hd"/>
<path d="M70.83 91.01v20.00" stroke="currentColor" fill="none"/>
<use x="101.83" y="91.01" xlink:href="#hd"/>
<circle fill="currentColor" cx="109.83" cy="91.01" r="1.2"/>
<path d="M98.33 91.01v20.00" stroke="currentColor" fill="none"/>
<use x="133.83" y="91.01" xlink:href="#hd"/>
<path d="M130.33 91.01v20.00" stroke="currentColor" fill="none"/>
<path fill="currentColor"
	d="M130.33 111.01c0.6 -5.6 9.6 -9 5.6 -18.4
	c1.6 6 -1.3 11.6 -5.6 12.8
"/>
<use x="162.33" y="85.01" xlink:href="#hd"/>
<path d="M158.83 85.01v20.00" stroke="currentColor" fill="none"/>
<path fill="currentColor"
	d="M158.83 105.01c0.6 -5.6 9.6 -9 5.6 -18.4
	c1.6 6 -1.3 11.6 -5.6 12.8
"/>
<defs>
<path id="r8e" fill="currentColor" d="m 0 0
	c-1.5 1.5 -2.4 2 -3.6 2
	c2.4 -2.8 -2.8 -4 -2.8 -1.2
	c0 2.7 4.3 2.4 5.9 0.6"/>
<g id="r8">
	<path d="m3.3 -4l-3.4 9.6" stroke="currentColor" fill="none"/>
	<use x="3.4" y="-4" xlink:href="#r8e"/>
</g>
</defs>
<use x="180.23" y="94.01" xlink:href="#r8"/>
<use x="199.93" y="85.01" xlink:href="#hd"/>
<circle fill="currentColor" cx="207.93" cy="85.01" r="1.2"/>
<path d="M196.43 85.01v20.00" stroke="currentColor" fill="none"/>
<use x="231.93" y="85.01" xlink:href="#hd"/>
<path d="M228.43 85.01v20.00" stroke="currentColor" fill="none"/>
<path fill="currentColor"
	d="M228.43 105.01c0.6 -5.6 9.6 -9 5.6 -18.4
	c1.6 6 -1.3 11.6 -5.6 12.8
"/>
<use x="260.43" y="79.01" xlink:href="#hd"/>
<path d="M256.93 79.01v20.00" stroke="currentColor" fill="none"/>
<path fill="currentColor"
	d="M256.93 99.01c0.6 -5.6 9.6 -9 5.6 -18.4
	c1.6 6 -1.3 11.6 -5.6 12.8
"/>
<use x="278.23" y="94.01" xlink:href="#r8"/>
<defs>
<path id="Hd" fill="currentColor" d="m3 -1.6
	c-1 -1.8 -7 1.4 -6 3.2
	c1 1.8 7 -1.4 6 -3.2
	m0.5 -0.3
	c2 3.8 -5 7.6 -7 3.8
	c-2 -3.8 5 -7.6 7 -3.8"/>
</defs>
<use x="298.03" y="79.01" xlink:href="#Hd"/>
<path d="M294.53 79.01v20.00" stroke="currentColor" fill="none"/>
<use x="342.23" y="79.01" xlink:href="#Hd"/>
<circle fill="currentColor" cx="351.23" cy="79.01" r="1.2"/>
<path d="M338.73 79.01v20.00" stroke="currentColor" fill="none"/>
<use x="390.83" y="79.01" xlink:href="#hd"/>
<path d="M387.33 79.01v20.00" stroke="currentColor" fill="none"/>
<use x="418.33" y="79.01" xlink:href="#hd"/>
<circle fill="currentColor" cx="426.33" cy="79.01" r="1.2"/>
<path d="M414.83 79.01v20.00" stroke="currentColor" fill="none"/>
<use x="450.33" y="79.01" xlink:href="#hd"/>
<path d="M446.83 79.01v20.00" stroke="currentColor" fill="none"/>
<path fill="currentColor"
	d="M446.83 99.01c0.6 -5.6 9.6 -9 5.6 -18.4
	c1.6 6 -1.3 11.6 -5.6 12.8
"/>
<defs>
<path id="hl" stroke="currentColor" d="m-6 0h12"/>
</defs>
<use x="478.83" y="76.01" xlink:href="#hl"/>
<use x="478.83" y="70.01" xlink:href="#hl"/>
<use x="478.83" y="70.01" xlink:href="#hd"/>
<path d="M475.33 70.01v24.00" stroke="currentColor" fill="none"/>
<path fill="currentColor"
	d="M475.33 94.01c0.6 -5.6 9.6 -9 5.6 -18.4
	c1.6 6 -1.3 11.6 -5.6 12.8
"/>
<use x="496.63" y="94.01" xlink:href="#r8"/>
<use x="516.43" y="76.01" xlink:href="#hl"/>
<use x="516.43" y="73.01" xlink:href="#hd"/>
<circle fill="currentColor" cx="524.43" cy="73.01" r="1.2"/>
<path d="M512.93 73.01v21.00" stroke="currentColor" fill="none"/>
<use x="548.53" y="76.01" xlink:href="#hl"/>
<use x="548.53" y="73.01" xlink:href="#hd"/>
<path d="M545.03 73.01v21.00" stroke="currentColor" fill="none"/>
<path fill="currentColor"
	d="M545.03 94.01c0.6 -5.6 9.6 -9 5.6 -18.4
	c1.6 6 -1.3 11.6 -5.6 12.8
"/>
<use x="577.03" y="76.01" xlink:href="#hl"/>
<use x="577.03" y="76.01" xlink:href="#hd"/>
<path d="M573.53 76.01v20.00" stroke="currentColor" fill="none"/>
<path fill="currentColor"
	d="M573.53 96.01c0.6 -5.6 9.6 -9 5.6 -18.4
	c1.6 6 -1.3 11.6 -5.6 12.8
"/>
<use x="594.93" y="94.01" xlink:href="#r8"/>
<use x="614.73" y="79.01" xlink:href="#Hd"/>
<path d="M611.23 79.01v20.00" stroke="currentColor" fill="none"/>
<use x="658.83" y="79.01" xlink:href="#Hd"/>
<circle fill="currentColor" cx="667.83" cy="79.01" r="1.2"/>
<path d="M655.33 79.01v20.00" stroke="currentColor" fill="none"/>
<path fill="currentColor"
	d="M301.53 77.01c5.85 -5.17 31.29 -5.17 37.14 -0.00
	l0.00 -0.24c-6.96 -6.93 -30.18 -6.93 -37.14 0.24"/>
<path fill="currentColor"
	d="M618.23 77.01c5.85 -5.17 31.29 -5.17 37.14 -0.00
	l0.00 -0.24c-6.96 -6.93 -30.18 -6.93 -37.14 0.24"/>
</g>
</svg>
