<?xml version="1.0" standalone="no"?>
<!DOCTYPE svg PUBLIC "-//W3C//DTD SVG 1.1//EN"
	"http://www.w3.org/Graphics/SVG/1.1/DTD/svg11.dtd">
<svg xmlns="http://www.w3.org/2000/svg" version="1.1"
	xmlns:xlink="http://www.w3.org/1999/xlink"
	xml:space='preserve' color="black"
	width="7.38in" height="1.34in" viewBox="0 0 531 97">
<title>1401.abc (1401) tune 1</title>
<!-- Creator: abcm2ps-7.8.14 -->
<!-- CreationDate: Mar 13, 2016 18:53 -->
<!-- CommandLine: -qxg 1401.abc -O ../svgs/1401.svg -->
<g transform="scale(0.750)" stroke-width="0.70" font-family="Times" font-size="20.00">
<text x="354.13" y="21.67" text-anchor="middle">1401.  Concerto in E Minor, Op. 85, 1st. Mvt. - 2nd. Theme</text>
</g>
<g transform="scale(0.750)" stroke-width="0.70" font-family="Times" font-size="14.00" font-style="italic">
<text x="694.93" y="45.34" text-anchor="end">Sir Edward Elgar</text>
</g>
<g transform="scale(0.525)" stroke-width="0.70" font-family="Times" font-size="14.00" font-style="italic">
<defs>
<ellipse id="hd" rx="4.1" ry="2.9"
	transform="rotate(-20)" fill="currentColor"/>
</defs>
<use x="130.61" y="94.16" xlink:href="#hd"/>
<path d="M134.11 94.16v-20.00" stroke="currentColor" fill="none"/>
</g>
<g transform="scale(0.750)" stroke-width="0.70" font-family="Times" font-size="15.00" font-weight="bold">
<text x="99.13" y="68.01">= 120</text>
<path stroke="currentColor" fill="none"
	d="M278.23 106.01v-24.00"/>
<path stroke="currentColor" fill="none"
	d="M443.13 106.01v-24.00"/>
<path stroke="currentColor" fill="none"
	d="M631.93 106.01v-24.00"/>
<path stroke="currentColor" fill="none"
	d="M13.33 106.01h681.60m-681.60 -6h681.60m-681.60 -6h681.60m-681.60 -6h681.60m-681.60 -6h681.60"/>
<defs>
<path id="utclef" fill="currentColor" d="m-50 -90
	c-72 -41 -72 -158 52 -188
	c150 -10 220 188 90 256
	c-114 52 -275 0 -293 -136
	c-15 -181 93 -229 220 -334
	c88 -87 79 -133 62 -210
	c-51 33 -94 105 -89 186
	c17 267 36 374 49 574
	c6 96 -19 134 -77 135
	c-80 1 -126 -93 -61 -133
	c85 -41 133 101 31 105
	c23 17 92 37 90 -92
	c-10 -223 -39 -342 -50 -617
	c0 -90 0 -162 96 -232
	c56 72 63 230 22 289
	c-74 106 -257 168 -255 316
	c9 153 148 185 252 133
	c86 -65 29 -192 -80 -176
	c-71 12 -105 67 -59 124"/>
<use id="tclef" transform="scale(0.045)"
	xlink:href="#utclef"/>
</defs>
<use x="25.33" y="106.01" xlink:href="#tclef"/>
<defs>
<path id="usharp" fill="currentColor" d="
	m136 -702
	v890
	h32
	v-890
	m128 840
	h32
	v-888
	h-32
	m-232 286
	v116
	l338 -96
	v-116
	m-338 442
	v116
	l338 -98
	v-114"/>
<use id="sh0" transform="translate(-4,5) scale(0.018)"
	xlink:href="#usharp"/>
</defs>
<use x="40.33" y="82.01" xlink:href="#sh0"/>
<use x="45.83" y="91.01" xlink:href="#sh0"/>
<use x="51.33" y="79.01" xlink:href="#sh0"/>
<use x="56.83" y="88.01" xlink:href="#sh0"/>
<g font-family="serif" font-size="16" font-weight="bold" font-style="normal"
	transform="translate(72.83,106.01) scale(1.2,1)">
	<text y="-1" text-anchor="middle">4</text>
	<text y="-13" text-anchor="middle">4</text>
</g>
<path fill="currentColor"
	d="M94.03 93.81l31.30 0.00v3.20l-31.30 -0.00"/>
<path fill="currentColor"
	d="M118.93 98.81l6.00 0.00v3.20l-6.00 -0.00"/>
<defs>
<path id="hl" stroke="currentColor" d="m-6 0h12"/>
</defs>
<use x="90.83" y="112.01" xlink:href="#hl"/>
<use x="90.83" y="118.01" xlink:href="#hl"/>
<use x="90.83" y="121.01" xlink:href="#hd"/>
<circle fill="currentColor" cx="98.83" cy="121.01" r="1.2"/>
<path d="M94.33 121.01v-26.20" stroke="currentColor" fill="none"/>
<use x="121.43" y="112.01" xlink:href="#hl"/>
<use x="121.43" y="118.01" xlink:href="#hl"/>
<use x="121.43" y="118.01" xlink:href="#hd"/>
<path d="M124.93 118.01v-23.20" stroke="currentColor" fill="none"/>
<use x="142.53" y="112.01" xlink:href="#hl"/>
<use x="142.53" y="118.01" xlink:href="#hl"/>
<use x="142.53" y="121.01" xlink:href="#hd"/>
<path d="M146.03 121.01v-27.00" stroke="currentColor" fill="none"/>
<path fill="currentColor"
	d="	M146.03 94.01c0.6 5.6 9.6 9 5.6 18.4
	c1.6 -6 -1.3 -11.6 -5.6 -12.8
"/>
<use x="172.43" y="112.01" xlink:href="#hl"/>
<use x="172.43" y="112.01" xlink:href="#hd"/>
<path d="M175.93 112.01v-20.00" stroke="currentColor" fill="none"/>
<use x="214.63" y="103.01" xlink:href="#hd"/>
<path d="M218.13 103.01v-20.00" stroke="currentColor" fill="none"/>
<path fill="currentColor"
	d="	M218.13 83.01c0.6 5.6 9.6 9 5.6 18.4
	c1.6 -6 -1.3 -11.6 -5.6 -12.8
"/>
<use x="244.53" y="103.01" xlink:href="#hd"/>
<path d="M248.03 103.01v-20.00" stroke="currentColor" fill="none"/>
<use x="293.23" y="103.01" xlink:href="#hd"/>
<path d="M296.73 103.01v-20.00" stroke="currentColor" fill="none"/>
<path fill="currentColor"
	d="	M296.73 83.01c0.6 5.6 9.6 9 5.6 18.4
	c1.6 -6 -1.3 -11.6 -5.6 -12.8
"/>
<use x="323.03" y="106.01" xlink:href="#hd"/>
<circle fill="currentColor" cx="331.03" cy="103.01" r="1.2"/>
<path d="M326.53 106.01v-20.00" stroke="currentColor" fill="none"/>
<use x="371.13" y="109.01" xlink:href="#hd"/>
<circle fill="currentColor" cx="379.13" cy="109.01" r="1.2"/>
<path d="M374.63 109.01v-20.00" stroke="currentColor" fill="none"/>
<use x="419.23" y="112.01" xlink:href="#hl"/>
<use x="419.23" y="112.01" xlink:href="#hd"/>
<path d="M422.73 112.01v-20.00" stroke="currentColor" fill="none"/>
<path fill="currentColor"
	d="	M422.73 92.01c0.6 5.6 9.6 9 5.6 18.4
	c1.6 -6 -1.3 -11.6 -5.6 -12.8
"/>
<use x="458.03" y="112.01" xlink:href="#hl"/>
<use x="458.03" y="112.01" xlink:href="#hd"/>
<path d="M461.53 112.01v-20.00" stroke="currentColor" fill="none"/>
<path fill="currentColor"
	d="	M461.53 92.01c0.6 5.6 9.6 9 5.6 18.4
	c1.6 -6 -1.3 -11.6 -5.6 -12.8
"/>
<use x="487.93" y="109.01" xlink:href="#hd"/>
<path d="M491.43 109.01v-20.00" stroke="currentColor" fill="none"/>
<path fill="currentColor"
	d="	M491.43 89.01c0.6 5.6 9.6 9 5.6 18.4
	c1.6 -6 -1.3 -11.6 -5.6 -12.8
"/>
<use x="517.73" y="112.01" xlink:href="#hl"/>
<use x="517.73" y="115.01" xlink:href="#hd"/>
<circle fill="currentColor" cx="525.73" cy="115.01" r="1.2"/>
<path d="M521.23 115.01v-21.00" stroke="currentColor" fill="none"/>
<use x="565.83" y="112.01" xlink:href="#hl"/>
<use x="565.83" y="118.01" xlink:href="#hl"/>
<use x="565.83" y="118.01" xlink:href="#hd"/>
<use x="556.83" y="118.01" xlink:href="#sh0"/>
<path d="M569.33 118.01v-24.00" stroke="currentColor" fill="none"/>
<use x="608.03" y="112.01" xlink:href="#hl"/>
<use x="608.03" y="115.01" xlink:href="#hd"/>
<path d="M611.53 115.01v-21.00" stroke="currentColor" fill="none"/>
<path fill="currentColor"
	d="	M611.53 94.01c0.6 5.6 9.6 9 5.6 18.4
	c1.6 -6 -1.3 -11.6 -5.6 -12.8
"/>
<use x="646.83" y="112.01" xlink:href="#hl"/>
<use x="646.83" y="118.01" xlink:href="#hl"/>
<use x="646.83" y="121.01" xlink:href="#hd"/>
<circle fill="currentColor" cx="654.83" cy="121.01" r="1.2"/>
<path d="M650.33 121.01v-27.00" stroke="currentColor" fill="none"/>
<path fill="currentColor"
	d="M248.03 105.01c6.54 5.25 35.17 5.25 41.71 -0.00
	l0.00 0.24c-7.79 7.01 -33.92 7.01 -41.71 -0.24"/>
<path fill="currentColor"
	d="M422.73 112.01c5.01 5.07 26.82 5.07 31.83 -0.00
	l0.00 0.23c-5.97 6.84 -25.86 6.84 -31.83 -0.23"/>
</g>
</svg>
