<?xml version="1.0" standalone="no"?>
<!DOCTYPE svg PUBLIC "-//W3C//DTD SVG 1.1//EN"
	"http://www.w3.org/Graphics/SVG/1.1/DTD/svg11.dtd">
<svg xmlns="http://www.w3.org/2000/svg" version="1.1"
	xmlns:xlink="http://www.w3.org/1999/xlink"
	xml:space='preserve' color="black"
	width="7.38in" height="1.54in" viewBox="0 0 531 111">
<title>1455.abc (1455) tune 1</title>
<!-- Creator: abcm2ps-7.8.14 -->
<!-- CreationDate: Mar 13, 2016 18:53 -->
<!-- CommandLine: -qxg 1455.abc -O ../svgs/1455.svg -->
<g transform="scale(0.750)" stroke-width="0.70" font-family="Times" font-size="20.00">
<text x="354.13" y="21.67" text-anchor="middle">1455.  Symphony No. 1, in A Flat, Op. 55, 1st. Mvt. - 2nd. Theme</text>
</g>
<g transform="scale(0.750)" stroke-width="0.70" font-family="Times" font-size="14.00" font-style="italic">
<text x="694.93" y="45.34" text-anchor="end">Sir Edward Elgar</text>
</g>
<g transform="scale(0.525)" stroke-width="0.70" font-family="Times" font-size="14.00" font-style="italic">
<defs>
<ellipse id="hd" rx="4.1" ry="2.9"
	transform="rotate(-20)" fill="currentColor"/>
</defs>
<use x="107.76" y="94.16" xlink:href="#hd"/>
<path d="M111.26 94.16v-20.00" stroke="currentColor" fill="none"/>
</g>
<g transform="scale(0.750)" stroke-width="0.70" font-family="Times" font-size="15.00" font-weight="bold">
<text x="83.13" y="68.01">= 120</text>
<path stroke="currentColor" fill="none"
	d="M260.03 125.01v-24.00"/>
<path stroke="currentColor" fill="none"
	d="M422.23 125.01v-24.00"/>
<path stroke="currentColor" fill="none"
	d="M518.83 125.01v-24.00"/>
<path stroke="currentColor" fill="none"
	d="M642.03 125.01v-24.00"/>
<path stroke="currentColor" fill="none"
	d="M13.33 125.01h681.60m-681.60 -6h681.60m-681.60 -6h681.60m-681.60 -6h681.60m-681.60 -6h681.60"/>
<path stroke="currentColor" fill="none"
	d="M70.83 79.01v-3l65.50 -0.00v3"/>
<rect x="96.53" y="70.01" width="14.00" height="12" fill="white"/>
<text font-family="serif" font-size="12" font-style="italic" font-weight="normal"
	x="103.53" y="80.01" text-anchor="middle">3</text>
<defs>
<path id="utclef" fill="currentColor" d="m-50 -90
	c-72 -41 -72 -158 52 -188
	c150 -10 220 188 90 256
	c-114 52 -275 0 -293 -136
	c-15 -181 93 -229 220 -334
	c88 -87 79 -133 62 -210
	c-51 33 -94 105 -89 186
	c17 267 36 374 49 574
	c6 96 -19 134 -77 135
	c-80 1 -126 -93 -61 -133
	c85 -41 133 101 31 105
	c23 17 92 37 90 -92
	c-10 -223 -39 -342 -50 -617
	c0 -90 0 -162 96 -232
	c56 72 63 230 22 289
	c-74 106 -257 168 -255 316
	c9 153 148 185 252 133
	c86 -65 29 -192 -80 -176
	c-71 12 -105 67 -59 124"/>
<use id="tclef" transform="scale(0.045)"
	xlink:href="#utclef"/>
</defs>
<use x="25.33" y="125.01" xlink:href="#tclef"/>
<defs>
<path id="uflat" fill="currentColor" d="
	m100 -746
	h32
	v734
	l-32 4
	m32 -332
	c46 -72 152 -90 208 -20
	c100 110 -120 326 -208 348
	m0 -28
	c54 0 200 -206 130 -290
	c-50 -60 -130 -4 -130 34"/>
<use id="ft0" transform="translate(-3.5,3.5) scale(0.018)"
	xlink:href="#uflat"/>
</defs>
<use x="40.33" y="113.01" xlink:href="#ft0"/>
<g font-family="serif" font-size="16" font-weight="bold" font-style="normal"
	transform="translate(56.33,125.01) scale(1.2,1)">
	<text y="-1" text-anchor="middle">4</text>
	<text y="-13" text-anchor="middle">6</text>
</g>
<defs>
<path id="hl" stroke="currentColor" d="m-6 0h12"/>
</defs>
<use x="74.83" y="95.01" xlink:href="#hl"/>
<defs>
<path id="Hd" fill="currentColor" d="m3 -1.6
	c-1 -1.8 -7 1.4 -6 3.2
	c1 1.8 7 -1.4 6 -3.2
	m0.5 -0.3
	c2 3.8 -5 7.6 -7 3.8
	c-2 -3.8 5 -7.6 7 -3.8"/>
</defs>
<use x="74.83" y="95.01" xlink:href="#Hd"/>
<path d="M71.33 95.01v20.00" stroke="currentColor" fill="none"/>
<use x="107.03" y="95.01" xlink:href="#hl"/>
<use x="107.03" y="95.01" xlink:href="#hd"/>
<path d="M103.53 95.01v20.00" stroke="currentColor" fill="none"/>
<path fill="currentColor"
	d="M103.53 115.01c0.6 -5.6 9.6 -9 5.6 -18.4
	c1.6 6 -1.3 11.6 -5.6 12.8
"/>
<use x="123.13" y="101.01" xlink:href="#Hd"/>
<path d="M119.63 101.01v20.00" stroke="currentColor" fill="none"/>
<use x="155.33" y="101.01" xlink:href="#hd"/>
<path d="M151.83 101.01v20.00" stroke="currentColor" fill="none"/>
<path fill="currentColor"
	d="M151.83 121.01c0.6 -5.6 9.6 -9 5.6 -18.4
	c1.6 6 -1.3 11.6 -5.6 12.8
"/>
<use x="175.73" y="104.01" xlink:href="#Hd"/>
<path d="M172.23 104.01v20.00" stroke="currentColor" fill="none"/>
<use x="216.63" y="104.01" xlink:href="#hd"/>
<path d="M213.13 104.01v20.00" stroke="currentColor" fill="none"/>
<path fill="currentColor"
	d="M213.13 124.01c0.6 -5.6 9.6 -9 5.6 -18.4
	c1.6 6 -1.3 11.6 -5.6 12.8
"/>
<use x="237.03" y="107.01" xlink:href="#hd"/>
<path d="M233.53 107.01v20.00" stroke="currentColor" fill="none"/>
<use x="272.53" y="104.01" xlink:href="#hd"/>
<path d="M269.03 104.01v20.00" stroke="currentColor" fill="none"/>
<use x="301.13" y="101.01" xlink:href="#hd"/>
<path d="M297.63 101.01v20.00" stroke="currentColor" fill="none"/>
<use x="329.73" y="107.01" xlink:href="#hd"/>
<path d="M326.23 107.01v20.00" stroke="currentColor" fill="none"/>
<use x="358.43" y="110.01" xlink:href="#Hd"/>
<path d="M354.93 110.01v20.00" stroke="currentColor" fill="none"/>
<use x="399.23" y="113.01" xlink:href="#hd"/>
<defs>
<path id="unat" fill="currentColor" d="
	m96 -750
	h-32
	v716
	l32 -8
	l182 -54
	v282
	h32
	v-706
	l-34 10
	l-180 50
	v-290
	m0 592
	v-190
	l182 -52
	v188"/>
<use id="nt0" transform="translate(-3,5) scale(0.018)"
	xlink:href="#unat"/>
</defs>
<use x="390.23" y="113.01" xlink:href="#nt0"/>
<path d="M395.73 113.01v20.00" stroke="currentColor" fill="none"/>
<use x="435.23" y="107.01" xlink:href="#Hd"/>
<circle fill="currentColor" cx="444.23" cy="104.01" r="1.2"/>
<path d="M431.73 107.01v20.00" stroke="currentColor" fill="none"/>
<use x="481.53" y="101.01" xlink:href="#Hd"/>
<circle fill="currentColor" cx="490.53" cy="98.01" r="1.2"/>
<path d="M478.03 101.01v20.00" stroke="currentColor" fill="none"/>
<use x="531.83" y="95.01" xlink:href="#hl"/>
<use x="531.83" y="95.01" xlink:href="#Hd"/>
<circle fill="currentColor" cx="540.83" cy="92.01" r="1.2"/>
<path d="M528.33 95.01v20.00" stroke="currentColor" fill="none"/>
<use x="578.13" y="101.01" xlink:href="#Hd"/>
<path d="M574.63 101.01v20.00" stroke="currentColor" fill="none"/>
<use x="618.93" y="113.01" xlink:href="#hd"/>
<use x="609.93" y="113.01" xlink:href="#nt0"/>
<path d="M615.43 113.01v20.00" stroke="currentColor" fill="none"/>
<use x="655.03" y="110.01" xlink:href="#Hd"/>
<path d="M651.53 110.01v20.00" stroke="currentColor" fill="none"/>
<path fill="currentColor"
	d="M78.33 95.01c3.97 -4.95 21.22 -4.95 25.18 -0.00
	l0.00 -0.23c-4.72 -6.73 -20.46 -6.73 -25.18 0.23"/>
<path fill="currentColor"
	d="M126.63 101.01c3.97 -4.95 21.22 -4.95 25.18 -0.00
	l0.00 -0.23c-4.72 -6.73 -20.46 -6.73 -25.18 0.23"/>
<path fill="currentColor"
	d="M179.23 102.01c5.34 -5.11 28.55 -5.11 33.89 -0.00
	l0.00 -0.23c-6.35 -6.88 -27.54 -6.88 -33.89 0.23"/>
</g>
</svg>
