<?xml version="1.0" standalone="no"?>
<!DOCTYPE svg PUBLIC "-//W3C//DTD SVG 1.1//EN"
	"http://www.w3.org/Graphics/SVG/1.1/DTD/svg11.dtd">
<svg xmlns="http://www.w3.org/2000/svg" version="1.1"
	xmlns:xlink="http://www.w3.org/1999/xlink"
	xml:space='preserve' color="black"
	width="7.38in" height="1.34in" viewBox="0 0 531 97">
<title>1472.abc (1472) tune 1</title>
<!-- Creator: abcm2ps-7.8.14 -->
<!-- CreationDate: Mar 13, 2016 18:53 -->
<!-- CommandLine: -qxg 1472.abc -O ../svgs/1472.svg -->
<g transform="scale(0.750)" stroke-width="0.70" font-family="Times" font-size="20.00">
<text x="354.13" y="21.67" text-anchor="middle">1472.  The Wand of Youth, Suite No. 1, Op. 1a, Orch., Slumber Scene</text>
</g>
<g transform="scale(0.750)" stroke-width="0.70" font-family="Times" font-size="14.00" font-style="italic">
<text x="694.93" y="45.34" text-anchor="end">Sir Edward Elgar</text>
</g>
<g transform="scale(0.525)" stroke-width="0.70" font-family="Times" font-size="14.00" font-style="italic">
<defs>
<ellipse id="hd" rx="4.1" ry="2.9"
	transform="rotate(-20)" fill="currentColor"/>
</defs>
<use x="107.04" y="94.16" xlink:href="#hd"/>
<path d="M110.54 94.16v-20.00" stroke="currentColor" fill="none"/>
</g>
<g transform="scale(0.750)" stroke-width="0.70" font-family="Times" font-size="15.00" font-weight="bold">
<text x="82.63" y="68.01">= 120</text>
<path stroke="currentColor" fill="none"
	d="M217.33 106.01v-24.00"/>
<path stroke="currentColor" fill="none"
	d="M373.63 106.01v-24.00"/>
<path stroke="currentColor" fill="none"
	d="M526.73 106.01v-24.00"/>
<path stroke="currentColor" fill="none"
	d="M665.93 106.01v-24.00"/>
<path stroke="currentColor" fill="none"
	d="M13.33 106.01h681.60m-681.60 -6h681.60m-681.60 -6h681.60m-681.60 -6h681.60m-681.60 -6h681.60"/>
<defs>
<path id="utclef" fill="currentColor" d="m-50 -90
	c-72 -41 -72 -158 52 -188
	c150 -10 220 188 90 256
	c-114 52 -275 0 -293 -136
	c-15 -181 93 -229 220 -334
	c88 -87 79 -133 62 -210
	c-51 33 -94 105 -89 186
	c17 267 36 374 49 574
	c6 96 -19 134 -77 135
	c-80 1 -126 -93 -61 -133
	c85 -41 133 101 31 105
	c23 17 92 37 90 -92
	c-10 -223 -39 -342 -50 -617
	c0 -90 0 -162 96 -232
	c56 72 63 230 22 289
	c-74 106 -257 168 -255 316
	c9 153 148 185 252 133
	c86 -65 29 -192 -80 -176
	c-71 12 -105 67 -59 124"/>
<use id="tclef" transform="scale(0.045)"
	xlink:href="#utclef"/>
</defs>
<use x="25.33" y="106.01" xlink:href="#tclef"/>
<defs>
<path id="usharp" fill="currentColor" d="
	m136 -702
	v890
	h32
	v-890
	m128 840
	h32
	v-888
	h-32
	m-232 286
	v116
	l338 -96
	v-116
	m-338 442
	v116
	l338 -98
	v-114"/>
<use id="sh0" transform="translate(-4,5) scale(0.018)"
	xlink:href="#usharp"/>
</defs>
<use x="40.33" y="82.01" xlink:href="#sh0"/>
<g font-family="serif" font-size="16" font-weight="bold" font-style="normal"
	transform="translate(56.33,106.01) scale(1.2,1)">
	<text y="-1" text-anchor="middle">4</text>
	<text y="-13" text-anchor="middle">4</text>
</g>
<defs>
<path id="r8e" fill="currentColor" d="m 0 0
	c-1.5 1.5 -2.4 2 -3.6 2
	c2.4 -2.8 -2.8 -4 -2.8 -1.2
	c0 2.7 4.3 2.4 5.9 0.6"/>
<g id="r8">
	<path d="m3.3 -4l-3.4 9.6" stroke="currentColor" fill="none"/>
	<use x="3.4" y="-4" xlink:href="#r8e"/>
</g>
</defs>
<use x="74.33" y="94.01" xlink:href="#r8"/>
<use x="91.73" y="91.01" xlink:href="#hd"/>
<path d="M88.23 91.01v20.00" stroke="currentColor" fill="none"/>
<path fill="currentColor"
	d="M88.23 111.01c0.6 -5.6 9.6 -9 5.6 -18.4
	c1.6 6 -1.3 11.6 -5.6 12.8
"/>
<use x="109.13" y="94.01" xlink:href="#hd"/>
<path d="M105.63 94.01v20.00" stroke="currentColor" fill="none"/>
<path fill="currentColor"
	d="M105.63 114.01c0.6 -5.6 9.6 -9 5.6 -18.4
	c1.6 6 -1.3 11.6 -5.6 12.8
"/>
<use x="124.93" y="97.01" xlink:href="#hd"/>
<path d="M128.43 97.01v-20.00" stroke="currentColor" fill="none"/>
<path fill="currentColor"
	d="	M128.43 77.01c0.6 5.6 9.6 9 5.6 18.4
	c1.6 -6 -1.3 -11.6 -5.6 -12.8
"/>
<use x="143.83" y="100.01" xlink:href="#hd"/>
<path d="M147.33 100.01v-20.00" stroke="currentColor" fill="none"/>
<path fill="currentColor"
	d="	M147.33 80.01c0.6 5.6 9.6 9 5.6 18.4
	c1.6 -6 -1.3 -11.6 -5.6 -12.8
"/>
<use x="162.63" y="106.01" xlink:href="#hd"/>
<path d="M166.13 106.01v-20.00" stroke="currentColor" fill="none"/>
<path fill="currentColor"
	d="	M166.13 86.01c0.6 5.6 9.6 9 5.6 18.4
	c1.6 -6 -1.3 -11.6 -5.6 -12.8
"/>
<use x="181.43" y="109.01" xlink:href="#hd"/>
<path d="M184.93 109.01v-20.00" stroke="currentColor" fill="none"/>
<path fill="currentColor"
	d="	M184.93 89.01c0.6 5.6 9.6 9 5.6 18.4
	c1.6 -6 -1.3 -11.6 -5.6 -12.8
"/>
<use x="200.33" y="103.01" xlink:href="#hd"/>
<path d="M203.83 103.01v-20.00" stroke="currentColor" fill="none"/>
<path fill="currentColor"
	d="	M203.83 83.01c0.6 5.6 9.6 9 5.6 18.4
	c1.6 -6 -1.3 -11.6 -5.6 -12.8
"/>
<use x="229.83" y="109.01" xlink:href="#hd"/>
<path d="M233.33 109.01v-20.00" stroke="currentColor" fill="none"/>
<path fill="currentColor"
	d="	M233.33 89.01c0.6 5.6 9.6 9 5.6 18.4
	c1.6 -6 -1.3 -11.6 -5.6 -12.8
"/>
<use x="249.13" y="94.01" xlink:href="#hd"/>
<path d="M245.63 94.01v20.00" stroke="currentColor" fill="none"/>
<path fill="currentColor"
	d="M245.63 114.01c0.6 -5.6 9.6 -9 5.6 -18.4
	c1.6 6 -1.3 11.6 -5.6 12.8
"/>
<use x="264.93" y="97.01" xlink:href="#hd"/>
<path d="M268.43 97.01v-20.00" stroke="currentColor" fill="none"/>
<path fill="currentColor"
	d="	M268.43 77.01c0.6 5.6 9.6 9 5.6 18.4
	c1.6 -6 -1.3 -11.6 -5.6 -12.8
"/>
<use x="283.83" y="100.01" xlink:href="#hd"/>
<path d="M287.33 100.01v-20.00" stroke="currentColor" fill="none"/>
<path fill="currentColor"
	d="	M287.33 80.01c0.6 5.6 9.6 9 5.6 18.4
	c1.6 -6 -1.3 -11.6 -5.6 -12.8
"/>
<use x="303.13" y="91.01" xlink:href="#hd"/>
<path d="M299.63 91.01v20.00" stroke="currentColor" fill="none"/>
<path fill="currentColor"
	d="M299.63 111.01c0.6 -5.6 9.6 -9 5.6 -18.4
	c1.6 6 -1.3 11.6 -5.6 12.8
"/>
<use x="318.93" y="97.01" xlink:href="#hd"/>
<path d="M322.43 97.01v-20.00" stroke="currentColor" fill="none"/>
<path fill="currentColor"
	d="	M322.43 77.01c0.6 5.6 9.6 9 5.6 18.4
	c1.6 -6 -1.3 -11.6 -5.6 -12.8
"/>
<use x="337.73" y="103.01" xlink:href="#hd"/>
<path d="M341.23 103.01v-20.00" stroke="currentColor" fill="none"/>
<path fill="currentColor"
	d="	M341.23 83.01c0.6 5.6 9.6 9 5.6 18.4
	c1.6 -6 -1.3 -11.6 -5.6 -12.8
"/>
<use x="356.63" y="100.01" xlink:href="#hd"/>
<path d="M360.13 100.01v-20.00" stroke="currentColor" fill="none"/>
<path fill="currentColor"
	d="	M360.13 80.01c0.6 5.6 9.6 9 5.6 18.4
	c1.6 -6 -1.3 -11.6 -5.6 -12.8
"/>
<use x="386.13" y="97.01" xlink:href="#hd"/>
<path d="M389.63 97.01v-20.00" stroke="currentColor" fill="none"/>
<path fill="currentColor"
	d="	M389.63 77.01c0.6 5.6 9.6 9 5.6 18.4
	c1.6 -6 -1.3 -11.6 -5.6 -12.8
"/>
<use x="405.43" y="88.01" xlink:href="#hd"/>
<path d="M401.93 88.01v20.00" stroke="currentColor" fill="none"/>
<path fill="currentColor"
	d="M401.93 108.01c0.6 -5.6 9.6 -9 5.6 -18.4
	c1.6 6 -1.3 11.6 -5.6 12.8
"/>
<use x="422.83" y="91.01" xlink:href="#hd"/>
<path d="M419.33 91.01v20.00" stroke="currentColor" fill="none"/>
<path fill="currentColor"
	d="M419.33 111.01c0.6 -5.6 9.6 -9 5.6 -18.4
	c1.6 6 -1.3 11.6 -5.6 12.8
"/>
<use x="440.23" y="94.01" xlink:href="#hd"/>
<path d="M436.73 94.01v20.00" stroke="currentColor" fill="none"/>
<path fill="currentColor"
	d="M436.73 114.01c0.6 -5.6 9.6 -9 5.6 -18.4
	c1.6 6 -1.3 11.6 -5.6 12.8
"/>
<use x="457.63" y="85.01" xlink:href="#hd"/>
<path d="M454.13 85.01v20.00" stroke="currentColor" fill="none"/>
<path fill="currentColor"
	d="M454.13 105.01c0.6 -5.6 9.6 -9 5.6 -18.4
	c1.6 6 -1.3 11.6 -5.6 12.8
"/>
<use x="475.03" y="94.01" xlink:href="#hd"/>
<path d="M471.53 94.01v20.00" stroke="currentColor" fill="none"/>
<path fill="currentColor"
	d="M471.53 114.01c0.6 -5.6 9.6 -9 5.6 -18.4
	c1.6 6 -1.3 11.6 -5.6 12.8
"/>
<use x="490.83" y="97.01" xlink:href="#hd"/>
<path d="M494.33 97.01v-20.00" stroke="currentColor" fill="none"/>
<path fill="currentColor"
	d="	M494.33 77.01c0.6 5.6 9.6 9 5.6 18.4
	c1.6 -6 -1.3 -11.6 -5.6 -12.8
"/>
<use x="509.73" y="94.01" xlink:href="#hd"/>
<path d="M513.23 94.01v-20.00" stroke="currentColor" fill="none"/>
<path fill="currentColor"
	d="	M513.23 74.01c0.6 5.6 9.6 9 5.6 18.4
	c1.6 -6 -1.3 -11.6 -5.6 -12.8
"/>
<use x="539.23" y="91.01" xlink:href="#hd"/>
<path d="M535.73 91.01v20.00" stroke="currentColor" fill="none"/>
<path fill="currentColor"
	d="M535.73 111.01c0.6 -5.6 9.6 -9 5.6 -18.4
	c1.6 6 -1.3 11.6 -5.6 12.8
"/>
<use x="556.63" y="91.01" xlink:href="#hd"/>
<path d="M553.13 91.01v20.00" stroke="currentColor" fill="none"/>
<path fill="currentColor"
	d="M553.13 111.01c0.6 -5.6 9.6 -9 5.6 -18.4
	c1.6 6 -1.3 11.6 -5.6 12.8
"/>
<use x="574.03" y="94.01" xlink:href="#hd"/>
<path d="M570.53 94.01v20.00" stroke="currentColor" fill="none"/>
<path fill="currentColor"
	d="M570.53 114.01c0.6 -5.6 9.6 -9 5.6 -18.4
	c1.6 6 -1.3 11.6 -5.6 12.8
"/>
<use x="589.83" y="97.01" xlink:href="#hd"/>
<path d="M593.33 97.01v-20.00" stroke="currentColor" fill="none"/>
<use x="614.23" y="88.01" xlink:href="#hd"/>
<path d="M610.73 88.01v20.00" stroke="currentColor" fill="none"/>
<path fill="currentColor"
	d="M610.73 108.01c0.6 -5.6 9.6 -9 5.6 -18.4
	c1.6 6 -1.3 11.6 -5.6 12.8
"/>
<use x="630.03" y="100.01" xlink:href="#hd"/>
<path d="M633.53 100.01v-20.00" stroke="currentColor" fill="none"/>
<path fill="currentColor"
	d="	M633.53 80.01c0.6 5.6 9.6 9 5.6 18.4
	c1.6 -6 -1.3 -11.6 -5.6 -12.8
"/>
<use x="648.93" y="97.01" xlink:href="#hd"/>
<path d="M652.43 97.01v-20.00" stroke="currentColor" fill="none"/>
<path fill="currentColor"
	d="	M652.43 77.01c0.6 5.6 9.6 9 5.6 18.4
	c1.6 -6 -1.3 -11.6 -5.6 -12.8
"/>
<use x="678.43" y="94.01" xlink:href="#hd"/>
<path d="M674.93 94.01v20.00" stroke="currentColor" fill="none"/>
<path fill="currentColor"
	d="M674.93 114.01c0.6 -5.6 9.6 -9 5.6 -18.4
	c1.6 6 -1.3 11.6 -5.6 12.8
"/>
</g>
</svg>
