<?xml version="1.0" standalone="no"?>
<!DOCTYPE svg PUBLIC "-//W3C//DTD SVG 1.1//EN"
	"http://www.w3.org/Graphics/SVG/1.1/DTD/svg11.dtd">
<svg xmlns="http://www.w3.org/2000/svg" version="1.1"
	xmlns:xlink="http://www.w3.org/1999/xlink"
	xml:space='preserve' color="black"
	width="7.38in" height="1.49in" viewBox="0 0 531 107">
<title>1477.abc (1477) tune 1</title>
<!-- Creator: abcm2ps-7.8.14 -->
<!-- CreationDate: Mar 13, 2016 18:53 -->
<!-- CommandLine: -qxg 1477.abc -O ../svgs/1477.svg -->
<g transform="scale(0.750)" stroke-width="0.70" font-family="Times" font-size="20.00">
<text x="354.13" y="21.67" text-anchor="middle">1477.  Poeme Roumain, Op. 1, Symphonic Suite, 2nd. Mvt. - 2nd. Theme</text>
</g>
<g transform="scale(0.750)" stroke-width="0.70" font-family="Times" font-size="14.00" font-style="italic">
<text x="694.93" y="45.34" text-anchor="end">Georges Enesco</text>
</g>
<g transform="scale(0.525)" stroke-width="0.70" font-family="Times" font-size="14.00" font-style="italic">
<defs>
<ellipse id="hd" rx="4.1" ry="2.9"
	transform="rotate(-20)" fill="currentColor"/>
</defs>
<use x="89.19" y="94.16" xlink:href="#hd"/>
<path d="M92.69 94.16v-20.00" stroke="currentColor" fill="none"/>
</g>
<g transform="scale(0.750)" stroke-width="0.70" font-family="Times" font-size="15.00" font-weight="bold">
<text x="70.13" y="68.01">= 120</text>
<path stroke="currentColor" fill="none"
	d="M254.93 120.01v-24.00"/>
<path stroke="currentColor" fill="none"
	d="M462.93 120.01v-24.00"/>
<path stroke="currentColor" fill="none"
	d="M694.93 120.01v-24.00"/>
<path stroke="currentColor" fill="none"
	d="M13.33 120.01h681.60m-681.60 -6h681.60m-681.60 -6h681.60m-681.60 -6h681.60m-681.60 -6h681.60"/>
<path stroke="currentColor" fill="none"
	d="M496.73 65.01v-3l54.60 -0.00v3"/>
<rect x="517.03" y="56.01" width="14.00" height="12" fill="white"/>
<text font-family="serif" font-size="12" font-style="italic" font-weight="normal"
	x="524.03" y="66.01" text-anchor="middle">3</text>
<defs>
<path id="utclef" fill="currentColor" d="m-50 -90
	c-72 -41 -72 -158 52 -188
	c150 -10 220 188 90 256
	c-114 52 -275 0 -293 -136
	c-15 -181 93 -229 220 -334
	c88 -87 79 -133 62 -210
	c-51 33 -94 105 -89 186
	c17 267 36 374 49 574
	c6 96 -19 134 -77 135
	c-80 1 -126 -93 -61 -133
	c85 -41 133 101 31 105
	c23 17 92 37 90 -92
	c-10 -223 -39 -342 -50 -617
	c0 -90 0 -162 96 -232
	c56 72 63 230 22 289
	c-74 106 -257 168 -255 316
	c9 153 148 185 252 133
	c86 -65 29 -192 -80 -176
	c-71 12 -105 67 -59 124"/>
<use id="tclef" transform="scale(0.045)"
	xlink:href="#utclef"/>
</defs>
<use x="25.33" y="120.01" xlink:href="#tclef"/>
<g font-family="serif" font-size="16" font-weight="bold" font-style="normal"
	transform="translate(43.83,120.01) scale(1.2,1)">
	<text y="-1" text-anchor="middle">8</text>
	<text y="-13" text-anchor="middle">9</text>
</g>
<defs>
<path id="hl" stroke="currentColor" d="m-6 0h12"/>
</defs>
<use x="61.83" y="90.01" xlink:href="#hl"/>
<use x="61.83" y="84.01" xlink:href="#hl"/>
<use x="61.83" y="78.01" xlink:href="#hl"/>
<use x="61.83" y="78.01" xlink:href="#hd"/>
<circle fill="currentColor" cx="69.83" cy="75.01" r="1.2"/>
<path d="M58.33 78.01v30.00" stroke="currentColor" fill="none"/>
<path fill="currentColor"
	d="M58.33 108.01c0.6 -5.6 9.6 -9 5.6 -18.4
	c1.6 6 -1.3 11.6 -5.6 12.8
"/>
<path fill="currentColor"
	d="M86.63 108.21l16.70 0.00v-3.20l-16.70 -0.00"/>
<path fill="currentColor"
	d="M93.03 103.21l-6.00 -0.00v-3.20l6.00 0.00"/>
<use x="90.53" y="90.01" xlink:href="#hl"/>
<use x="90.53" y="84.01" xlink:href="#hl"/>
<use x="90.53" y="78.01" xlink:href="#hl"/>
<use x="90.53" y="78.01" xlink:href="#hd"/>
<path d="M87.03 78.01v29.20" stroke="currentColor" fill="none"/>
<use x="106.53" y="90.01" xlink:href="#hl"/>
<use x="106.53" y="84.01" xlink:href="#hl"/>
<use x="106.53" y="78.01" xlink:href="#hl"/>
<use x="106.53" y="78.01" xlink:href="#hd"/>
<path d="M103.03 78.01v29.20" stroke="currentColor" fill="none"/>
<use x="131.63" y="90.01" xlink:href="#hl"/>
<use x="131.63" y="84.01" xlink:href="#hl"/>
<use x="131.63" y="84.01" xlink:href="#hd"/>
<circle fill="currentColor" cx="139.63" cy="81.01" r="1.2"/>
<path d="M128.13 84.01v24.00" stroke="currentColor" fill="none"/>
<path fill="currentColor"
	d="M128.13 108.01c0.6 -5.6 9.6 -9 5.6 -18.4
	c1.6 6 -1.3 11.6 -5.6 12.8
"/>
<path fill="currentColor"
	d="M156.53 108.21l16.70 0.00v-3.20l-16.70 -0.00"/>
<path fill="currentColor"
	d="M162.83 103.21l-6.00 -0.00v-3.20l6.00 0.00"/>
<use x="160.33" y="90.01" xlink:href="#hl"/>
<use x="160.33" y="84.01" xlink:href="#hl"/>
<use x="160.33" y="84.01" xlink:href="#hd"/>
<path d="M156.83 84.01v23.20" stroke="currentColor" fill="none"/>
<use x="176.43" y="90.01" xlink:href="#hl"/>
<use x="176.43" y="84.01" xlink:href="#hl"/>
<use x="176.43" y="84.01" xlink:href="#hd"/>
<path d="M172.93 84.01v23.20" stroke="currentColor" fill="none"/>
<use x="201.53" y="93.01" xlink:href="#hd"/>
<path d="M198.03 93.01v20.00" stroke="currentColor" fill="none"/>
<path fill="currentColor"
	d="M198.03 113.01c0.6 -5.6 9.6 -9 5.6 -18.4
	c1.6 6 -1.3 11.6 -5.6 12.8
"/>
<use x="226.63" y="90.01" xlink:href="#hl"/>
<use x="226.63" y="90.01" xlink:href="#hd"/>
<path d="M223.13 90.01v20.00" stroke="currentColor" fill="none"/>
<use x="267.63" y="90.01" xlink:href="#hl"/>
<use x="267.63" y="84.01" xlink:href="#hl"/>
<use x="267.63" y="84.01" xlink:href="#hd"/>
<circle fill="currentColor" cx="275.63" cy="81.01" r="1.2"/>
<path d="M264.13 84.01v24.00" stroke="currentColor" fill="none"/>
<path fill="currentColor"
	d="M264.13 108.01c0.6 -5.6 9.6 -9 5.6 -18.4
	c1.6 6 -1.3 11.6 -5.6 12.8
"/>
<path fill="currentColor"
	d="M292.53 108.21l16.70 0.00v-3.20l-16.70 -0.00"/>
<path fill="currentColor"
	d="M298.83 103.21l-6.00 -0.00v-3.20l6.00 0.00"/>
<use x="296.33" y="90.01" xlink:href="#hl"/>
<use x="296.33" y="84.01" xlink:href="#hl"/>
<use x="296.33" y="84.01" xlink:href="#hd"/>
<path d="M292.83 84.01v23.20" stroke="currentColor" fill="none"/>
<use x="312.33" y="90.01" xlink:href="#hl"/>
<use x="312.33" y="84.01" xlink:href="#hl"/>
<use x="312.33" y="84.01" xlink:href="#hd"/>
<path d="M308.83 84.01v23.20" stroke="currentColor" fill="none"/>
<use x="337.53" y="90.01" xlink:href="#hl"/>
<use x="337.53" y="84.01" xlink:href="#hl"/>
<use x="337.53" y="81.01" xlink:href="#hd"/>
<path d="M334.03 81.01v27.00" stroke="currentColor" fill="none"/>
<path fill="currentColor"
	d="M334.03 108.01c0.6 -5.6 9.6 -9 5.6 -18.4
	c1.6 6 -1.3 11.6 -5.6 12.8
"/>
<use x="362.63" y="90.01" xlink:href="#hl"/>
<use x="362.63" y="84.01" xlink:href="#hl"/>
<use x="362.63" y="78.01" xlink:href="#hl"/>
<use x="362.63" y="78.01" xlink:href="#hd"/>
<path d="M359.13 78.01v30.00" stroke="currentColor" fill="none"/>
<use x="398.03" y="90.01" xlink:href="#hl"/>
<use x="398.03" y="84.01" xlink:href="#hl"/>
<use x="398.03" y="78.01" xlink:href="#hl"/>
<use x="398.03" y="72.01" xlink:href="#hl"/>
<use x="398.03" y="72.01" xlink:href="#hd"/>
<circle fill="currentColor" cx="406.03" cy="69.01" r="1.2"/>
<path d="M394.53 72.01v36.00" stroke="currentColor" fill="none"/>
<path fill="currentColor"
	d="M394.53 108.01c0.6 -5.6 9.6 -9 5.6 -18.4
	c1.6 6 -1.3 11.6 -5.6 12.8
"/>
<path fill="currentColor"
	d="M422.93 108.21l16.70 0.00v-3.20l-16.70 -0.00"/>
<path fill="currentColor"
	d="M429.23 103.21l-6.00 -0.00v-3.20l6.00 0.00"/>
<use x="426.73" y="90.01" xlink:href="#hl"/>
<use x="426.73" y="84.01" xlink:href="#hl"/>
<use x="426.73" y="78.01" xlink:href="#hl"/>
<use x="426.73" y="72.01" xlink:href="#hl"/>
<use x="426.73" y="72.01" xlink:href="#hd"/>
<path d="M423.23 72.01v35.20" stroke="currentColor" fill="none"/>
<use x="442.83" y="90.01" xlink:href="#hl"/>
<use x="442.83" y="84.01" xlink:href="#hl"/>
<use x="442.83" y="78.01" xlink:href="#hl"/>
<use x="442.83" y="72.01" xlink:href="#hl"/>
<use x="442.83" y="72.01" xlink:href="#hd"/>
<path d="M439.33 72.01v35.20" stroke="currentColor" fill="none"/>
<use x="475.63" y="99.01" xlink:href="#hd"/>
<path d="M472.13 99.01v20.00" stroke="currentColor" fill="none"/>
<path fill="currentColor"
	d="M472.13 119.01c0.6 -5.6 9.6 -9 5.6 -18.4
	c1.6 6 -1.3 11.6 -5.6 12.8
"/>
<use x="500.73" y="90.01" xlink:href="#hl"/>
<use x="500.73" y="84.01" xlink:href="#hl"/>
<use x="500.73" y="84.01" xlink:href="#hd"/>
<path d="M497.23 84.01v24.00" stroke="currentColor" fill="none"/>
<use x="528.53" y="90.01" xlink:href="#hl"/>
<use x="528.53" y="84.01" xlink:href="#hl"/>
<use x="528.53" y="84.01" xlink:href="#hd"/>
<path d="M525.03 84.01v24.00" stroke="currentColor" fill="none"/>
<path fill="currentColor"
	d="M525.03 108.01c0.9 -3.7 9.1 -6.4 6 -12.4
	c1 5.4 -4.2 8.4 -6 8.4
M525.03 102.61c0.9 -3.7 9.1 -6.4 6 -12.4
	c1 5.4 -4.2 8.4 -6 8.4
"/>
<use x="542.43" y="90.01" xlink:href="#hl"/>
<use x="542.43" y="84.01" xlink:href="#hl"/>
<use x="542.43" y="81.01" xlink:href="#hd"/>
<path d="M538.93 81.01v27.00" stroke="currentColor" fill="none"/>
<use x="570.33" y="90.01" xlink:href="#hl"/>
<use x="570.33" y="84.01" xlink:href="#hl"/>
<use x="570.33" y="81.01" xlink:href="#hd"/>
<path d="M566.83 81.01v27.00" stroke="currentColor" fill="none"/>
<path fill="currentColor"
	d="M566.83 108.01c0.9 -3.7 9.1 -6.4 6 -12.4
	c1 5.4 -4.2 8.4 -6 8.4
M566.83 102.61c0.9 -3.7 9.1 -6.4 6 -12.4
	c1 5.4 -4.2 8.4 -6 8.4
"/>
<use x="588.13" y="90.01" xlink:href="#hl"/>
<use x="588.13" y="90.01" xlink:href="#hd"/>
<path d="M584.63 90.01v20.00" stroke="currentColor" fill="none"/>
<use x="623.63" y="90.01" xlink:href="#hl"/>
<use x="623.63" y="90.01" xlink:href="#hd"/>
<path d="M620.13 90.01v22.00" stroke="currentColor" fill="none"/>
<path fill="currentColor"
	d="M620.13 112.01c0.9 -3.7 9.1 -6.4 6 -12.4
	c1 5.4 -4.2 8.4 -6 8.4
M620.13 106.61c0.9 -3.7 9.1 -6.4 6 -12.4
	c1 5.4 -4.2 8.4 -6 8.4
"/>
<use x="641.43" y="90.01" xlink:href="#hl"/>
<use x="641.43" y="87.01" xlink:href="#hd"/>
<path d="M637.93 87.01v21.00" stroke="currentColor" fill="none"/>
<path fill="currentColor"
	d="M637.93 108.01c0.6 -5.6 9.6 -9 5.6 -18.4
	c1.6 6 -1.3 11.6 -5.6 12.8
"/>
<use x="666.53" y="93.01" xlink:href="#hd"/>
<path d="M663.03 93.01v20.00" stroke="currentColor" fill="none"/>
<path fill="currentColor"
	d="M504.23 84.01c3.28 -4.87 17.55 -4.87 20.83 -0.00
	l0.00 -0.22c-3.91 -6.65 -16.93 -6.65 -20.83 0.22"/>
<path fill="currentColor"
	d="M545.93 79.01c3.28 -4.87 17.55 -4.87 20.83 -0.00
	l0.00 -0.22c-3.91 -6.65 -16.93 -6.65 -20.83 0.22"/>
<path fill="currentColor"
	d="M591.63 90.01c4.50 -5.01 24.07 -5.01 28.57 -0.00
	l0.00 -0.23c-5.36 -6.79 -23.21 -6.79 -28.57 0.23"/>
</g>
</svg>
