<?xml version="1.0" standalone="no"?>
<!DOCTYPE svg PUBLIC "-//W3C//DTD SVG 1.1//EN"
	"http://www.w3.org/Graphics/SVG/1.1/DTD/svg11.dtd">
<svg xmlns="http://www.w3.org/2000/svg" version="1.1"
	xmlns:xlink="http://www.w3.org/1999/xlink"
	xml:space='preserve' color="black"
	width="7.38in" height="1.34in" viewBox="0 0 531 97">
<title>1478.abc (1478) tune 1</title>
<!-- Creator: abcm2ps-7.8.14 -->
<!-- CreationDate: Mar 13, 2016 18:53 -->
<!-- CommandLine: -qxg 1478.abc -O ../svgs/1478.svg -->
<g transform="scale(0.750)" stroke-width="0.70" font-family="Times" font-size="20.00">
<text x="354.13" y="21.67" text-anchor="middle">1478.  Poeme Roumain, Op. 1, Symphonic Suite, 2nd. Mvt. - Roumanian Folk Song, 3rd. Theme</text>
</g>
<g transform="scale(0.750)" stroke-width="0.70" font-family="Times" font-size="14.00" font-style="italic">
<text x="694.93" y="45.34" text-anchor="end">Georges Enesco</text>
</g>
<g transform="scale(0.525)" stroke-width="0.70" font-family="Times" font-size="14.00" font-style="italic">
<defs>
<ellipse id="hd" rx="4.1" ry="2.9"
	transform="rotate(-20)" fill="currentColor"/>
</defs>
<use x="122.76" y="94.16" xlink:href="#hd"/>
<path d="M126.26 94.16v-20.00" stroke="currentColor" fill="none"/>
</g>
<g transform="scale(0.750)" stroke-width="0.70" font-family="Times" font-size="15.00" font-weight="bold">
<text x="93.63" y="68.01">= 120</text>
<path stroke="currentColor" fill="none"
	d="M145.13 106.01v-24.00"/>
<path stroke="currentColor" fill="none"
	d="M217.43 106.01v-24.00"/>
<path stroke="currentColor" fill="none"
	d="M306.43 106.01v-24.00"/>
<path stroke="currentColor" fill="none"
	d="M378.33 106.01v-24.00"/>
<path stroke="currentColor" fill="none"
	d="M450.63 106.01v-24.00"/>
<path stroke="currentColor" fill="none"
	d="M523.03 106.01v-24.00"/>
<path stroke="currentColor" fill="none"
	d="M623.03 106.01v-24.00"/>
<path stroke="currentColor" fill="none"
	d="M694.93 106.01v-24.00"/>
<path stroke="currentColor" fill="none"
	d="M13.33 106.01h681.60m-681.60 -6h681.60m-681.60 -6h681.60m-681.60 -6h681.60m-681.60 -6h681.60"/>
<defs>
<path id="utclef" fill="currentColor" d="m-50 -90
	c-72 -41 -72 -158 52 -188
	c150 -10 220 188 90 256
	c-114 52 -275 0 -293 -136
	c-15 -181 93 -229 220 -334
	c88 -87 79 -133 62 -210
	c-51 33 -94 105 -89 186
	c17 267 36 374 49 574
	c6 96 -19 134 -77 135
	c-80 1 -126 -93 -61 -133
	c85 -41 133 101 31 105
	c23 17 92 37 90 -92
	c-10 -223 -39 -342 -50 -617
	c0 -90 0 -162 96 -232
	c56 72 63 230 22 289
	c-74 106 -257 168 -255 316
	c9 153 148 185 252 133
	c86 -65 29 -192 -80 -176
	c-71 12 -105 67 -59 124"/>
<use id="tclef" transform="scale(0.045)"
	xlink:href="#utclef"/>
</defs>
<use x="25.33" y="106.01" xlink:href="#tclef"/>
<defs>
<path id="uflat" fill="currentColor" d="
	m100 -746
	h32
	v734
	l-32 4
	m32 -332
	c46 -72 152 -90 208 -20
	c100 110 -120 326 -208 348
	m0 -28
	c54 0 200 -206 130 -290
	c-50 -60 -130 -4 -130 34"/>
<use id="ft0" transform="translate(-3.5,3.5) scale(0.018)"
	xlink:href="#uflat"/>
</defs>
<use x="40.33" y="94.01" xlink:href="#ft0"/>
<use x="45.83" y="85.01" xlink:href="#ft0"/>
<use x="51.33" y="97.01" xlink:href="#ft0"/>
<g font-family="serif" font-size="16" font-weight="bold" font-style="normal"
	transform="translate(67.33,106.01) scale(1.2,1)">
	<text y="-1" text-anchor="middle">4</text>
	<text y="-13" text-anchor="middle">2</text>
</g>
<defs>
<path id="hl" stroke="currentColor" d="m-6 0h12"/>
</defs>
<use x="85.33" y="112.01" xlink:href="#hl"/>
<use x="85.33" y="115.01" xlink:href="#hd"/>
<path d="M88.83 115.01v-21.00" stroke="currentColor" fill="none"/>
<path fill="currentColor"
	d="	M88.83 94.01c0.6 5.6 9.6 9 5.6 18.4
	c1.6 -6 -1.3 -11.6 -5.6 -12.8
"/>
<use x="105.33" y="112.01" xlink:href="#hl"/>
<use x="105.33" y="112.01" xlink:href="#hd"/>
<path d="M108.83 112.01v-20.00" stroke="currentColor" fill="none"/>
<path fill="currentColor"
	d="	M108.83 92.01c0.6 5.6 9.6 9 5.6 18.4
	c1.6 -6 -1.3 -11.6 -5.6 -12.8
"/>
<use x="125.23" y="112.01" xlink:href="#hl"/>
<use x="125.23" y="112.01" xlink:href="#hd"/>
<path d="M128.73 112.01v-20.00" stroke="currentColor" fill="none"/>
<use x="157.63" y="112.01" xlink:href="#hl"/>
<use x="157.63" y="115.01" xlink:href="#hd"/>
<path d="M161.13 115.01v-21.00" stroke="currentColor" fill="none"/>
<path fill="currentColor"
	d="	M161.13 94.01c0.6 5.6 9.6 9 5.6 18.4
	c1.6 -6 -1.3 -11.6 -5.6 -12.8
"/>
<use x="177.63" y="112.01" xlink:href="#hl"/>
<use x="177.63" y="112.01" xlink:href="#hd"/>
<path d="M181.13 112.01v-20.00" stroke="currentColor" fill="none"/>
<path fill="currentColor"
	d="	M181.13 92.01c0.6 5.6 9.6 9 5.6 18.4
	c1.6 -6 -1.3 -11.6 -5.6 -12.8
"/>
<use x="197.53" y="112.01" xlink:href="#hl"/>
<use x="197.53" y="112.01" xlink:href="#hd"/>
<path d="M201.03 112.01v-20.00" stroke="currentColor" fill="none"/>
<use x="229.93" y="112.01" xlink:href="#hl"/>
<use x="229.93" y="115.01" xlink:href="#hd"/>
<path d="M233.43 115.01v-21.00" stroke="currentColor" fill="none"/>
<path fill="currentColor"
	d="	M233.43 94.01c0.6 5.6 9.6 9 5.6 18.4
	c1.6 -6 -1.3 -11.6 -5.6 -12.8
"/>
<use x="249.93" y="112.01" xlink:href="#hl"/>
<use x="249.93" y="112.01" xlink:href="#hd"/>
<path d="M253.43 112.01v-20.00" stroke="currentColor" fill="none"/>
<path fill="currentColor"
	d="	M253.43 92.01c0.6 5.6 9.6 9 5.6 18.4
	c1.6 -6 -1.3 -11.6 -5.6 -12.8
"/>
<use x="269.83" y="112.01" xlink:href="#hl"/>
<use x="269.83" y="112.01" xlink:href="#hd"/>
<path d="M273.33 112.01v-20.00" stroke="currentColor" fill="none"/>
<path fill="currentColor"
	d="	M273.33 92.01c0.6 5.6 9.6 9 5.6 18.4
	c1.6 -6 -1.3 -11.6 -5.6 -12.8
"/>
<use x="289.43" y="106.01" xlink:href="#hd"/>
<path d="M292.93 106.01v-20.00" stroke="currentColor" fill="none"/>
<path fill="currentColor"
	d="	M292.93 86.01c0.6 5.6 9.6 9 5.6 18.4
	c1.6 -6 -1.3 -11.6 -5.6 -12.8
"/>
<use x="318.93" y="109.01" xlink:href="#hd"/>
<path d="M322.43 109.01v-20.00" stroke="currentColor" fill="none"/>
<path fill="currentColor"
	d="	M322.43 89.01c0.6 5.6 9.6 9 5.6 18.4
	c1.6 -6 -1.3 -11.6 -5.6 -12.8
"/>
<use x="338.53" y="112.01" xlink:href="#hl"/>
<use x="338.53" y="115.01" xlink:href="#hd"/>
<path d="M342.03 115.01v-21.00" stroke="currentColor" fill="none"/>
<path fill="currentColor"
	d="	M342.03 94.01c0.6 5.6 9.6 9 5.6 18.4
	c1.6 -6 -1.3 -11.6 -5.6 -12.8
"/>
<use x="358.43" y="112.01" xlink:href="#hl"/>
<use x="358.43" y="112.01" xlink:href="#hd"/>
<path d="M361.93 112.01v-20.00" stroke="currentColor" fill="none"/>
<use x="390.83" y="112.01" xlink:href="#hl"/>
<use x="390.83" y="115.01" xlink:href="#hd"/>
<path d="M394.33 115.01v-21.00" stroke="currentColor" fill="none"/>
<path fill="currentColor"
	d="	M394.33 94.01c0.6 5.6 9.6 9 5.6 18.4
	c1.6 -6 -1.3 -11.6 -5.6 -12.8
"/>
<use x="410.83" y="112.01" xlink:href="#hl"/>
<use x="410.83" y="112.01" xlink:href="#hd"/>
<path d="M414.33 112.01v-20.00" stroke="currentColor" fill="none"/>
<path fill="currentColor"
	d="	M414.33 92.01c0.6 5.6 9.6 9 5.6 18.4
	c1.6 -6 -1.3 -11.6 -5.6 -12.8
"/>
<use x="430.73" y="112.01" xlink:href="#hl"/>
<use x="430.73" y="112.01" xlink:href="#hd"/>
<path d="M434.23 112.01v-20.00" stroke="currentColor" fill="none"/>
<use x="463.13" y="112.01" xlink:href="#hl"/>
<use x="463.13" y="115.01" xlink:href="#hd"/>
<path d="M466.63 115.01v-21.00" stroke="currentColor" fill="none"/>
<path fill="currentColor"
	d="	M466.63 94.01c0.6 5.6 9.6 9 5.6 18.4
	c1.6 -6 -1.3 -11.6 -5.6 -12.8
"/>
<use x="483.13" y="112.01" xlink:href="#hl"/>
<use x="483.13" y="112.01" xlink:href="#hd"/>
<path d="M486.63 112.01v-20.00" stroke="currentColor" fill="none"/>
<path fill="currentColor"
	d="	M486.63 92.01c0.6 5.6 9.6 9 5.6 18.4
	c1.6 -6 -1.3 -11.6 -5.6 -12.8
"/>
<use x="503.03" y="112.01" xlink:href="#hl"/>
<use x="503.03" y="112.01" xlink:href="#hd"/>
<path d="M506.53 112.01v-20.00" stroke="currentColor" fill="none"/>
<path fill="currentColor"
	d="M538.63 91.91l13.10 -2.10v3.20l-13.10 2.10"/>
<path fill="currentColor"
	d="M539.03 96.81l12.50 -2.00v3.20l-12.50 2.00"/>
<use x="535.53" y="112.01" xlink:href="#hl"/>
<use x="535.53" y="115.01" xlink:href="#hd"/>
<path d="M539.03 115.01v-22.20" stroke="currentColor" fill="none"/>
<use x="547.93" y="112.01" xlink:href="#hl"/>
<use x="547.93" y="112.01" xlink:href="#hd"/>
<path d="M551.43 112.01v-21.20" stroke="currentColor" fill="none"/>
<path fill="currentColor"
	d="M564.33 85.91l12.80 -2.10v3.20l-12.80 2.10"/>
<path fill="currentColor"
	d="M564.63 90.81l12.10 -2.00v3.20l-12.10 2.00"/>
<use x="561.13" y="109.01" xlink:href="#hd"/>
<path d="M564.63 109.01v-22.20" stroke="currentColor" fill="none"/>
<use x="573.23" y="106.01" xlink:href="#hd"/>
<path d="M576.73 106.01v-21.20" stroke="currentColor" fill="none"/>
<use x="586.43" y="103.01" xlink:href="#hd"/>
<path d="M589.93 103.01v-20.00" stroke="currentColor" fill="none"/>
<path fill="currentColor"
	d="	M589.93 83.01c0.6 5.6 9.6 9 5.6 18.4
	c1.6 -6 -1.3 -11.6 -5.6 -12.8
"/>
<use x="606.03" y="106.01" xlink:href="#hd"/>
<path d="M609.53 106.01v-20.00" stroke="currentColor" fill="none"/>
<path fill="currentColor"
	d="	M609.53 86.01c0.6 5.6 9.6 9 5.6 18.4
	c1.6 -6 -1.3 -11.6 -5.6 -12.8
"/>
<use x="635.53" y="109.01" xlink:href="#hd"/>
<path d="M639.03 109.01v-20.00" stroke="currentColor" fill="none"/>
<path fill="currentColor"
	d="	M639.03 89.01c0.6 5.6 9.6 9 5.6 18.4
	c1.6 -6 -1.3 -11.6 -5.6 -12.8
"/>
<use x="655.03" y="112.01" xlink:href="#hl"/>
<use x="655.03" y="115.01" xlink:href="#hd"/>
<path d="M658.53 115.01v-21.00" stroke="currentColor" fill="none"/>
<path fill="currentColor"
	d="	M658.53 94.01c0.6 5.6 9.6 9 5.6 18.4
	c1.6 -6 -1.3 -11.6 -5.6 -12.8
"/>
<use x="675.03" y="112.01" xlink:href="#hl"/>
<use x="675.03" y="112.01" xlink:href="#hd"/>
<path d="M678.53 112.01v-20.00" stroke="currentColor" fill="none"/>
</g>
</svg>
