<?xml version="1.0" standalone="no"?>
<!DOCTYPE svg PUBLIC "-//W3C//DTD SVG 1.1//EN"
	"http://www.w3.org/Graphics/SVG/1.1/DTD/svg11.dtd">
<svg xmlns="http://www.w3.org/2000/svg" version="1.1"
	xmlns:xlink="http://www.w3.org/1999/xlink"
	xml:space='preserve' color="black"
	width="7.38in" height="1.40in" viewBox="0 0 531 101">
<title>1480.abc (1480) tune 1</title>
<!-- Creator: abcm2ps-7.8.14 -->
<!-- CreationDate: Mar 13, 2016 18:53 -->
<!-- CommandLine: -qxg 1480.abc -O ../svgs/1480.svg -->
<g transform="scale(0.750)" stroke-width="0.70" font-family="Times" font-size="20.00">
<text x="354.13" y="21.67" text-anchor="middle">1480.  Poeme Roumain, Op. 1, Symphonic Suite, 2nd. Mvt. - 5th. Theme</text>
</g>
<g transform="scale(0.750)" stroke-width="0.70" font-family="Times" font-size="14.00" font-style="italic">
<text x="694.93" y="45.34" text-anchor="end">Georges Enesco</text>
</g>
<g transform="scale(0.525)" stroke-width="0.70" font-family="Times" font-size="14.00" font-style="italic">
<defs>
<ellipse id="hd" rx="4.1" ry="2.9"
	transform="rotate(-20)" fill="currentColor"/>
</defs>
<use x="115.61" y="94.16" xlink:href="#hd"/>
<path d="M119.11 94.16v-20.00" stroke="currentColor" fill="none"/>
</g>
<g transform="scale(0.750)" stroke-width="0.70" font-family="Times" font-size="15.00" font-weight="bold">
<text x="88.63" y="68.01">= 120</text>
<path stroke="currentColor" fill="none"
	d="M197.33 111.01v-24.00"/>
<path stroke="currentColor" fill="none"
	d="M378.33 111.01v-24.00"/>
<path stroke="currentColor" fill="none"
	d="M513.93 111.01v-24.00"/>
<path stroke="currentColor" fill="none"
	d="M694.93 111.01v-24.00"/>
<path stroke="currentColor" fill="none"
	d="M13.33 111.01h681.60m-681.60 -6h681.60m-681.60 -6h681.60m-681.60 -6h681.60m-681.60 -6h681.60"/>
<defs>
<path id="utclef" fill="currentColor" d="m-50 -90
	c-72 -41 -72 -158 52 -188
	c150 -10 220 188 90 256
	c-114 52 -275 0 -293 -136
	c-15 -181 93 -229 220 -334
	c88 -87 79 -133 62 -210
	c-51 33 -94 105 -89 186
	c17 267 36 374 49 574
	c6 96 -19 134 -77 135
	c-80 1 -126 -93 -61 -133
	c85 -41 133 101 31 105
	c23 17 92 37 90 -92
	c-10 -223 -39 -342 -50 -617
	c0 -90 0 -162 96 -232
	c56 72 63 230 22 289
	c-74 106 -257 168 -255 316
	c9 153 148 185 252 133
	c86 -65 29 -192 -80 -176
	c-71 12 -105 67 -59 124"/>
<use id="tclef" transform="scale(0.045)"
	xlink:href="#utclef"/>
</defs>
<use x="25.33" y="111.01" xlink:href="#tclef"/>
<defs>
<path id="usharp" fill="currentColor" d="
	m136 -702
	v890
	h32
	v-890
	m128 840
	h32
	v-888
	h-32
	m-232 286
	v116
	l338 -96
	v-116
	m-338 442
	v116
	l338 -98
	v-114"/>
<use id="sh0" transform="translate(-4,5) scale(0.018)"
	xlink:href="#usharp"/>
</defs>
<use x="40.33" y="87.01" xlink:href="#sh0"/>
<g font-family="serif" font-size="16" font-weight="bold" font-style="normal"
	transform="translate(56.33,111.01) scale(1.2,1)">
	<text y="-1" text-anchor="middle">4</text>
	<text y="-13" text-anchor="middle">2</text>
</g>
<path fill="currentColor"
	d="M76.53 106.21l64.60 -3.80v-3.20l-64.60 3.80"/>
<path fill="currentColor"
	d="M76.83 101.21l17.70 -1.10v-3.20l-17.70 1.10"/>
<path fill="currentColor"
	d="M134.73 97.81l6.00 -0.40v-3.20l-6.00 0.40"/>
<use x="80.33" y="84.01" xlink:href="#hd"/>
<use x="71.33" y="84.01" xlink:href="#sh0"/>
<path d="M76.83 84.01v21.20" stroke="currentColor" fill="none"/>
<defs>
<path id="hl" stroke="currentColor" d="m-6 0h12"/>
</defs>
<use x="98.03" y="81.01" xlink:href="#hl"/>
<use x="98.03" y="81.01" xlink:href="#hd"/>
<path d="M94.53 81.01v23.10" stroke="currentColor" fill="none"/>
<use x="115.73" y="81.01" xlink:href="#hl"/>
<use x="115.73" y="78.01" xlink:href="#hd"/>
<circle fill="currentColor" cx="123.73" cy="78.01" r="1.2"/>
<path d="M112.23 78.01v25.10" stroke="currentColor" fill="none"/>
<use x="144.23" y="81.01" xlink:href="#hl"/>
<use x="144.23" y="75.01" xlink:href="#hl"/>
<use x="144.23" y="69.01" xlink:href="#hl"/>
<use x="144.23" y="69.01" xlink:href="#hd"/>
<path d="M140.73 69.01v32.40" stroke="currentColor" fill="none"/>
<path fill="currentColor"
	d="M160.03 99.21l18.40 0.00v-3.20l-18.40 -0.00"/>
<path fill="currentColor"
	d="M160.43 94.21l17.70 0.00v-3.20l-17.70 -0.00"/>
<use x="163.93" y="81.01" xlink:href="#hl"/>
<use x="163.93" y="75.01" xlink:href="#hl"/>
<use x="163.93" y="72.01" xlink:href="#hd"/>
<use x="154.93" y="72.01" xlink:href="#sh0"/>
<path d="M160.43 72.01v26.20" stroke="currentColor" fill="none"/>
<use x="181.63" y="81.01" xlink:href="#hl"/>
<use x="181.63" y="75.01" xlink:href="#hl"/>
<use x="181.63" y="69.01" xlink:href="#hl"/>
<use x="181.63" y="69.01" xlink:href="#hd"/>
<path d="M178.13 69.01v29.20" stroke="currentColor" fill="none"/>
<path fill="currentColor"
	d="M207.43 101.01l18.40 0.00v-3.20l-18.40 -0.00"/>
<path fill="currentColor"
	d="M207.73 96.01l17.70 0.00v-3.20l-17.70 -0.00"/>
<use x="211.23" y="81.01" xlink:href="#hl"/>
<use x="211.23" y="78.01" xlink:href="#hd"/>
<path d="M207.73 78.01v22.00" stroke="currentColor" fill="none"/>
<use x="228.93" y="81.01" xlink:href="#hl"/>
<use x="228.93" y="75.01" xlink:href="#hl"/>
<use x="228.93" y="69.01" xlink:href="#hl"/>
<use x="228.93" y="69.01" xlink:href="#hd"/>
<path d="M225.43 69.01v31.00" stroke="currentColor" fill="none"/>
<path fill="currentColor"
	d="M244.83 99.21l18.40 0.00v-3.20l-18.40 -0.00"/>
<path fill="currentColor"
	d="M245.13 94.21l17.70 0.00v-3.20l-17.70 -0.00"/>
<use x="248.63" y="81.01" xlink:href="#hl"/>
<use x="248.63" y="75.01" xlink:href="#hl"/>
<use x="248.63" y="72.01" xlink:href="#hd"/>
<use x="239.63" y="72.01" xlink:href="#sh0"/>
<path d="M245.13 72.01v26.20" stroke="currentColor" fill="none"/>
<use x="266.33" y="81.01" xlink:href="#hl"/>
<use x="266.33" y="75.01" xlink:href="#hl"/>
<use x="266.33" y="69.01" xlink:href="#hl"/>
<use x="266.33" y="69.01" xlink:href="#hd"/>
<path d="M262.83 69.01v29.20" stroke="currentColor" fill="none"/>
<path fill="currentColor"
	d="M282.23 105.21l38.30 0.00v-3.20l-38.30 -0.00"/>
<path fill="currentColor"
	d="M282.53 100.21l37.60 0.00v-3.20l-37.60 -0.00"/>
<path fill="currentColor"
	d="M282.53 95.21l37.60 0.00v-3.20l-37.60 -0.00"/>
<use x="286.03" y="81.01" xlink:href="#hl"/>
<use x="286.03" y="78.01" xlink:href="#hd"/>
<path d="M282.53 78.01v26.20" stroke="currentColor" fill="none"/>
<use x="298.53" y="81.01" xlink:href="#hl"/>
<use x="298.53" y="75.01" xlink:href="#hl"/>
<use x="298.53" y="75.01" xlink:href="#hd"/>
<path d="M295.03 75.01v29.20" stroke="currentColor" fill="none"/>
<use x="311.13" y="81.01" xlink:href="#hl"/>
<use x="311.13" y="78.01" xlink:href="#hd"/>
<path d="M307.63 78.01v26.20" stroke="currentColor" fill="none"/>
<use x="323.63" y="81.01" xlink:href="#hl"/>
<use x="323.63" y="75.01" xlink:href="#hl"/>
<use x="323.63" y="75.01" xlink:href="#hd"/>
<path d="M320.13 75.01v29.20" stroke="currentColor" fill="none"/>
<path fill="currentColor"
	d="M333.73 105.21l25.80 0.00v-3.20l-25.80 -0.00"/>
<path fill="currentColor"
	d="M334.03 100.21l25.10 0.00v-3.20l-25.10 -0.00"/>
<path fill="currentColor"
	d="M334.03 95.21l12.50 0.00v-3.20l-12.50 -0.00"/>
<use x="337.53" y="81.01" xlink:href="#hl"/>
<use x="337.53" y="78.01" xlink:href="#hd"/>
<path d="M334.03 78.01v26.20" stroke="currentColor" fill="none"/>
<use x="350.13" y="81.01" xlink:href="#hl"/>
<use x="350.13" y="75.01" xlink:href="#hl"/>
<use x="350.13" y="75.01" xlink:href="#hd"/>
<path d="M346.63 75.01v29.20" stroke="currentColor" fill="none"/>
<use x="362.63" y="81.01" xlink:href="#hl"/>
<use x="362.63" y="81.01" xlink:href="#hd"/>
<path d="M359.13 81.01v23.20" stroke="currentColor" fill="none"/>
<path fill="currentColor"
	d="M393.03 106.21l64.60 -3.80v-3.20l-64.60 3.80"/>
<path fill="currentColor"
	d="M393.33 101.21l17.70 -1.10v-3.20l-17.70 1.10"/>
<path fill="currentColor"
	d="M451.23 97.81l6.00 -0.40v-3.20l-6.00 0.40"/>
<use x="396.83" y="84.01" xlink:href="#hd"/>
<use x="387.83" y="84.01" xlink:href="#sh0"/>
<path d="M393.33 84.01v21.20" stroke="currentColor" fill="none"/>
<use x="414.53" y="81.01" xlink:href="#hl"/>
<use x="414.53" y="81.01" xlink:href="#hd"/>
<path d="M411.03 81.01v23.10" stroke="currentColor" fill="none"/>
<use x="432.23" y="81.01" xlink:href="#hl"/>
<use x="432.23" y="78.01" xlink:href="#hd"/>
<circle fill="currentColor" cx="440.23" cy="78.01" r="1.2"/>
<path d="M428.73 78.01v25.10" stroke="currentColor" fill="none"/>
<use x="460.73" y="81.01" xlink:href="#hl"/>
<use x="460.73" y="75.01" xlink:href="#hl"/>
<use x="460.73" y="69.01" xlink:href="#hl"/>
<use x="460.73" y="69.01" xlink:href="#hd"/>
<path d="M457.23 69.01v32.40" stroke="currentColor" fill="none"/>
<path fill="currentColor"
	d="M476.63 99.21l18.40 0.00v-3.20l-18.40 -0.00"/>
<path fill="currentColor"
	d="M476.93 94.21l17.70 0.00v-3.20l-17.70 -0.00"/>
<use x="480.43" y="81.01" xlink:href="#hl"/>
<use x="480.43" y="75.01" xlink:href="#hl"/>
<use x="480.43" y="72.01" xlink:href="#hd"/>
<use x="471.43" y="72.01" xlink:href="#sh0"/>
<path d="M476.93 72.01v26.20" stroke="currentColor" fill="none"/>
<use x="498.13" y="81.01" xlink:href="#hl"/>
<use x="498.13" y="75.01" xlink:href="#hl"/>
<use x="498.13" y="69.01" xlink:href="#hl"/>
<use x="498.13" y="69.01" xlink:href="#hd"/>
<path d="M494.63 69.01v29.20" stroke="currentColor" fill="none"/>
<path fill="currentColor"
	d="M524.03 101.01l18.40 0.00v-3.20l-18.40 -0.00"/>
<path fill="currentColor"
	d="M524.33 96.01l17.70 0.00v-3.20l-17.70 -0.00"/>
<use x="527.83" y="81.01" xlink:href="#hl"/>
<use x="527.83" y="78.01" xlink:href="#hd"/>
<path d="M524.33 78.01v22.00" stroke="currentColor" fill="none"/>
<use x="545.53" y="81.01" xlink:href="#hl"/>
<use x="545.53" y="75.01" xlink:href="#hl"/>
<use x="545.53" y="69.01" xlink:href="#hl"/>
<use x="545.53" y="69.01" xlink:href="#hd"/>
<path d="M542.03 69.01v31.00" stroke="currentColor" fill="none"/>
<path fill="currentColor"
	d="M561.43 99.21l18.40 0.00v-3.20l-18.40 -0.00"/>
<path fill="currentColor"
	d="M561.73 94.21l17.70 0.00v-3.20l-17.70 -0.00"/>
<use x="565.23" y="81.01" xlink:href="#hl"/>
<use x="565.23" y="75.01" xlink:href="#hl"/>
<use x="565.23" y="72.01" xlink:href="#hd"/>
<use x="556.23" y="72.01" xlink:href="#sh0"/>
<path d="M561.73 72.01v26.20" stroke="currentColor" fill="none"/>
<use x="582.93" y="81.01" xlink:href="#hl"/>
<use x="582.93" y="75.01" xlink:href="#hl"/>
<use x="582.93" y="69.01" xlink:href="#hl"/>
<use x="582.93" y="69.01" xlink:href="#hd"/>
<path d="M579.43 69.01v29.20" stroke="currentColor" fill="none"/>
<path fill="currentColor"
	d="M598.73 105.21l38.30 0.00v-3.20l-38.30 -0.00"/>
<path fill="currentColor"
	d="M599.03 100.21l37.60 0.00v-3.20l-37.60 -0.00"/>
<path fill="currentColor"
	d="M599.03 95.21l37.60 0.00v-3.20l-37.60 -0.00"/>
<use x="602.53" y="81.01" xlink:href="#hl"/>
<use x="602.53" y="78.01" xlink:href="#hd"/>
<path d="M599.03 78.01v26.20" stroke="currentColor" fill="none"/>
<use x="615.13" y="81.01" xlink:href="#hl"/>
<use x="615.13" y="75.01" xlink:href="#hl"/>
<use x="615.13" y="75.01" xlink:href="#hd"/>
<path d="M611.63 75.01v29.20" stroke="currentColor" fill="none"/>
<use x="627.63" y="81.01" xlink:href="#hl"/>
<use x="627.63" y="78.01" xlink:href="#hd"/>
<path d="M624.13 78.01v26.20" stroke="currentColor" fill="none"/>
<use x="640.23" y="81.01" xlink:href="#hl"/>
<use x="640.23" y="75.01" xlink:href="#hl"/>
<use x="640.23" y="75.01" xlink:href="#hd"/>
<path d="M636.73 75.01v29.20" stroke="currentColor" fill="none"/>
<path fill="currentColor"
	d="M650.23 105.21l25.80 0.00v-3.20l-25.80 -0.00"/>
<path fill="currentColor"
	d="M650.63 100.21l25.10 0.00v-3.20l-25.10 -0.00"/>
<path fill="currentColor"
	d="M650.63 95.21l12.50 0.00v-3.20l-12.50 -0.00"/>
<use x="654.13" y="81.01" xlink:href="#hl"/>
<use x="654.13" y="78.01" xlink:href="#hd"/>
<path d="M650.63 78.01v26.20" stroke="currentColor" fill="none"/>
<use x="666.63" y="81.01" xlink:href="#hl"/>
<use x="666.63" y="75.01" xlink:href="#hl"/>
<use x="666.63" y="75.01" xlink:href="#hd"/>
<path d="M663.13 75.01v29.20" stroke="currentColor" fill="none"/>
<use x="679.23" y="81.01" xlink:href="#hl"/>
<use x="679.23" y="81.01" xlink:href="#hd"/>
<path d="M675.73 81.01v23.20" stroke="currentColor" fill="none"/>
</g>
</svg>
