<?xml version="1.0" standalone="no"?>
<!DOCTYPE svg PUBLIC "-//W3C//DTD SVG 1.1//EN"
	"http://www.w3.org/Graphics/SVG/1.1/DTD/svg11.dtd">
<svg xmlns="http://www.w3.org/2000/svg" version="1.1"
	xmlns:xlink="http://www.w3.org/1999/xlink"
	xml:space='preserve' color="black"
	width="7.38in" height="1.34in" viewBox="0 0 531 97">
<title>1515.abc (1515) tune 1</title>
<!-- Creator: abcm2ps-7.8.14 -->
<!-- CreationDate: Mar 13, 2016 18:53 -->
<!-- CommandLine: -qxg 1515.abc -O ../svgs/1515.svg -->
<g transform="scale(0.750)" stroke-width="0.70" font-family="Times" font-size="20.00">
<text x="354.13" y="21.67" text-anchor="middle">1515.  Concerto in D, 1st. Mvt. - 1st. Theme</text>
</g>
<g transform="scale(0.750)" stroke-width="0.70" font-family="Times" font-size="14.00" font-style="italic">
<text x="694.93" y="45.34" text-anchor="end">Manuel de Falla</text>
</g>
<g transform="scale(0.525)" stroke-width="0.70" font-family="Times" font-size="14.00" font-style="italic">
<defs>
<ellipse id="hd" rx="4.1" ry="2.9"
	transform="rotate(-20)" fill="currentColor"/>
</defs>
<use x="114.90" y="94.16" xlink:href="#hd"/>
<path d="M118.40 94.16v-20.00" stroke="currentColor" fill="none"/>
</g>
<g transform="scale(0.750)" stroke-width="0.70" font-family="Times" font-size="15.00" font-weight="bold">
<text x="88.13" y="68.01">= 120</text>
<path stroke="currentColor" fill="none"
	d="M146.83 106.01v-24.00"/>
<path stroke="currentColor" fill="none"
	d="M244.83 106.01v-24.00"/>
<path stroke="currentColor" fill="none"
	d="M325.13 106.01v-24.00"/>
<path stroke="currentColor" fill="none"
	d="M420.93 106.01v-24.00"/>
<path stroke="currentColor" fill="none"
	d="M518.83 106.01v-24.00"/>
<path stroke="currentColor" fill="none"
	d="M614.63 106.01v-24.00"/>
<path stroke="currentColor" fill="none"
	d="M694.93 106.01v-24.00"/>
<path stroke="currentColor" fill="none"
	d="M13.33 106.01h681.60m-681.60 -6h681.60m-681.60 -6h681.60m-681.60 -6h681.60m-681.60 -6h681.60"/>
<defs>
<path id="utclef" fill="currentColor" d="m-50 -90
	c-72 -41 -72 -158 52 -188
	c150 -10 220 188 90 256
	c-114 52 -275 0 -293 -136
	c-15 -181 93 -229 220 -334
	c88 -87 79 -133 62 -210
	c-51 33 -94 105 -89 186
	c17 267 36 374 49 574
	c6 96 -19 134 -77 135
	c-80 1 -126 -93 -61 -133
	c85 -41 133 101 31 105
	c23 17 92 37 90 -92
	c-10 -223 -39 -342 -50 -617
	c0 -90 0 -162 96 -232
	c56 72 63 230 22 289
	c-74 106 -257 168 -255 316
	c9 153 148 185 252 133
	c86 -65 29 -192 -80 -176
	c-71 12 -105 67 -59 124"/>
<use id="tclef" transform="scale(0.045)"
	xlink:href="#utclef"/>
</defs>
<use x="25.33" y="106.01" xlink:href="#tclef"/>
<defs>
<path id="usharp" fill="currentColor" d="
	m136 -702
	v890
	h32
	v-890
	m128 840
	h32
	v-888
	h-32
	m-232 286
	v116
	l338 -96
	v-116
	m-338 442
	v116
	l338 -98
	v-114"/>
<use id="sh0" transform="translate(-4,5) scale(0.018)"
	xlink:href="#usharp"/>
</defs>
<use x="40.33" y="82.01" xlink:href="#sh0"/>
<use x="45.83" y="91.01" xlink:href="#sh0"/>
<g font-family="serif" font-size="16" font-weight="bold" font-style="normal"
	transform="translate(61.83,106.01) scale(1.2,1)">
	<text y="-1" text-anchor="middle">4</text>
	<text y="-13" text-anchor="middle">2</text>
</g>
<use x="79.83" y="82.01" xlink:href="#hd"/>
<path d="M76.33 82.01v20.00" stroke="currentColor" fill="none"/>
<use x="117.03" y="82.01" xlink:href="#hd"/>
<path d="M113.53 82.01v20.00" stroke="currentColor" fill="none"/>
<use x="160.13" y="82.01" xlink:href="#hd"/>
<path d="M156.63 82.01v20.00" stroke="currentColor" fill="none"/>
<use x="197.33" y="82.01" xlink:href="#hd"/>
<path d="M193.83 82.01v20.00" stroke="currentColor" fill="none"/>
<path fill="currentColor"
	d="M193.83 102.01c0.6 -5.6 9.6 -9 5.6 -18.4
	c1.6 6 -1.3 11.6 -5.6 12.8
"/>
<use x="223.73" y="85.01" xlink:href="#hd"/>
<path d="M220.23 85.01v20.00" stroke="currentColor" fill="none"/>
<path fill="currentColor"
	d="M220.23 105.01c0.6 -5.6 9.6 -9 5.6 -18.4
	c1.6 6 -1.3 11.6 -5.6 12.8
"/>
<use x="258.03" y="82.01" xlink:href="#hd"/>
<path d="M254.53 82.01v20.00" stroke="currentColor" fill="none"/>
<use x="295.33" y="82.01" xlink:href="#hd"/>
<path d="M291.83 82.01v20.00" stroke="currentColor" fill="none"/>
<use x="338.33" y="82.01" xlink:href="#hd"/>
<path d="M334.83 82.01v20.00" stroke="currentColor" fill="none"/>
<path fill="currentColor"
	d="M334.83 102.01c0.6 -5.6 9.6 -9 5.6 -18.4
	c1.6 6 -1.3 11.6 -5.6 12.8
"/>
<use x="364.73" y="85.01" xlink:href="#hd"/>
<path d="M361.23 85.01v20.00" stroke="currentColor" fill="none"/>
<path fill="currentColor"
	d="M361.23 105.01c0.6 -5.6 9.6 -9 5.6 -18.4
	c1.6 6 -1.3 11.6 -5.6 12.8
"/>
<use x="391.13" y="79.01" xlink:href="#hd"/>
<path d="M387.63 79.01v20.00" stroke="currentColor" fill="none"/>
<use x="434.13" y="82.01" xlink:href="#hd"/>
<path d="M430.63 82.01v20.00" stroke="currentColor" fill="none"/>
<use x="471.33" y="82.01" xlink:href="#hd"/>
<path d="M467.83 82.01v20.00" stroke="currentColor" fill="none"/>
<path fill="currentColor"
	d="M467.83 102.01c0.6 -5.6 9.6 -9 5.6 -18.4
	c1.6 6 -1.3 11.6 -5.6 12.8
"/>
<use x="497.73" y="85.01" xlink:href="#hd"/>
<path d="M494.23 85.01v20.00" stroke="currentColor" fill="none"/>
<path fill="currentColor"
	d="M494.23 105.01c0.6 -5.6 9.6 -9 5.6 -18.4
	c1.6 6 -1.3 11.6 -5.6 12.8
"/>
<use x="532.13" y="82.01" xlink:href="#hd"/>
<path d="M528.63 82.01v20.00" stroke="currentColor" fill="none"/>
<path fill="currentColor"
	d="M528.63 102.01c0.6 -5.6 9.6 -9 5.6 -18.4
	c1.6 6 -1.3 11.6 -5.6 12.8
"/>
<use x="558.53" y="85.01" xlink:href="#hd"/>
<path d="M555.03 85.01v20.00" stroke="currentColor" fill="none"/>
<path fill="currentColor"
	d="M555.03 105.01c0.6 -5.6 9.6 -9 5.6 -18.4
	c1.6 6 -1.3 11.6 -5.6 12.8
"/>
<use x="584.83" y="79.01" xlink:href="#hd"/>
<path d="M581.33 79.01v20.00" stroke="currentColor" fill="none"/>
<use x="627.93" y="82.01" xlink:href="#hd"/>
<path d="M624.43 82.01v20.00" stroke="currentColor" fill="none"/>
<use x="665.13" y="85.01" xlink:href="#hd"/>
<path d="M661.63 85.01v20.00" stroke="currentColor" fill="none"/>
</g>
</svg>
