<?xml version="1.0" standalone="no"?>
<!DOCTYPE svg PUBLIC "-//W3C//DTD SVG 1.1//EN"
	"http://www.w3.org/Graphics/SVG/1.1/DTD/svg11.dtd">
<svg xmlns="http://www.w3.org/2000/svg" version="1.1"
	xmlns:xlink="http://www.w3.org/1999/xlink"
	xml:space='preserve' color="black"
	width="7.38in" height="1.35in" viewBox="0 0 531 98">
<title>1523.abc (1523) tune 1</title>
<!-- Creator: abcm2ps-7.8.14 -->
<!-- CreationDate: Mar 13, 2016 18:53 -->
<!-- CommandLine: -qxg 1523.abc -O ../svgs/1523.svg -->
<g transform="scale(0.750)" stroke-width="0.70" font-family="Times" font-size="20.00">
<text x="354.13" y="21.67" text-anchor="middle">1523.  Noches en los Jardines de Espana Danza Lejana, 1st. Theme</text>
</g>
<g transform="scale(0.750)" stroke-width="0.70" font-family="Times" font-size="14.00" font-style="italic">
<text x="694.93" y="45.34" text-anchor="end">Manuel de Falla</text>
</g>
<g transform="scale(0.525)" stroke-width="0.70" font-family="Times" font-size="14.00" font-style="italic">
<defs>
<ellipse id="hd" rx="4.1" ry="2.9"
	transform="rotate(-20)" fill="currentColor"/>
</defs>
<use x="107.76" y="94.16" xlink:href="#hd"/>
<path d="M111.26 94.16v-20.00" stroke="currentColor" fill="none"/>
</g>
<g transform="scale(0.750)" stroke-width="0.70" font-family="Times" font-size="15.00" font-weight="bold">
<text x="83.13" y="68.01">= 120</text>
<path stroke="currentColor" fill="none"
	d="M149.63 106.01v-24.00"/>
<path stroke="currentColor" fill="none"
	d="M257.53 106.01v-24.00"/>
<path stroke="currentColor" fill="none"
	d="M356.23 106.01v-24.00"/>
<path stroke="currentColor" fill="none"
	d="M542.13 106.01v-24.00"/>
<path stroke="currentColor" fill="none"
	d="M654.63 106.01v-24.00"/>
<path stroke="currentColor" fill="none"
	d="M13.33 106.01h681.60m-681.60 -6h681.60m-681.60 -6h681.60m-681.60 -6h681.60m-681.60 -6h681.60"/>
<text font-family="serif" font-size="12" font-style="italic" font-weight="normal"
	x="596.63" y="130.01" text-anchor="middle">3</text>
<defs>
<path id="utclef" fill="currentColor" d="m-50 -90
	c-72 -41 -72 -158 52 -188
	c150 -10 220 188 90 256
	c-114 52 -275 0 -293 -136
	c-15 -181 93 -229 220 -334
	c88 -87 79 -133 62 -210
	c-51 33 -94 105 -89 186
	c17 267 36 374 49 574
	c6 96 -19 134 -77 135
	c-80 1 -126 -93 -61 -133
	c85 -41 133 101 31 105
	c23 17 92 37 90 -92
	c-10 -223 -39 -342 -50 -617
	c0 -90 0 -162 96 -232
	c56 72 63 230 22 289
	c-74 106 -257 168 -255 316
	c9 153 148 185 252 133
	c86 -65 29 -192 -80 -176
	c-71 12 -105 67 -59 124"/>
<use id="tclef" transform="scale(0.045)"
	xlink:href="#utclef"/>
</defs>
<use x="25.33" y="106.01" xlink:href="#tclef"/>
<defs>
<path id="uflat" fill="currentColor" d="
	m100 -746
	h32
	v734
	l-32 4
	m32 -332
	c46 -72 152 -90 208 -20
	c100 110 -120 326 -208 348
	m0 -28
	c54 0 200 -206 130 -290
	c-50 -60 -130 -4 -130 34"/>
<use id="ft0" transform="translate(-3.5,3.5) scale(0.018)"
	xlink:href="#uflat"/>
</defs>
<use x="40.33" y="94.01" xlink:href="#ft0"/>
<g font-family="serif" font-size="16" font-weight="bold" font-style="normal"
	transform="translate(56.33,106.01) scale(1.2,1)">
	<text y="-1" text-anchor="middle">4</text>
	<text y="-13" text-anchor="middle">3</text>
</g>
<defs>
<path id="Hd" fill="currentColor" d="m3 -1.6
	c-1 -1.8 -7 1.4 -6 3.2
	c1 1.8 7 -1.4 6 -3.2
	m0.5 -0.3
	c2 3.8 -5 7.6 -7 3.8
	c-2 -3.8 5 -7.6 7 -3.8"/>
</defs>
<use x="74.83" y="106.01" xlink:href="#Hd"/>
<path d="M78.33 106.01v-20.00" stroke="currentColor" fill="none"/>
<path fill="currentColor"
	d="M117.73 79.01l19.10 0.00v3.20l-19.10 -0.00"/>
<use x="114.63" y="100.01" xlink:href="#hd"/>
<path d="M118.13 100.01v-20.00" stroke="currentColor" fill="none"/>
<use x="133.03" y="100.01" xlink:href="#hd"/>
<path d="M136.53 100.01v-20.00" stroke="currentColor" fill="none"/>
<defs>
<path id="r8e" fill="currentColor" d="m 0 0
	c-1.5 1.5 -2.4 2 -3.6 2
	c2.4 -2.8 -2.8 -4 -2.8 -1.2
	c0 2.7 4.3 2.4 5.9 0.6"/>
<g id="r32">
	<path d="m4.8 -10l-5.5 21.6" stroke="currentColor" fill="none"/>
	<use x="4.9" y="-10" xlink:href="#r8e"/>
	<use x="3.4" y="-4" xlink:href="#r8e"/>
	<use x="1.9" y="2" xlink:href="#r8e"/>
</g>
</defs>
<use x="162.13" y="94.01" xlink:href="#r32"/>
<use x="171.83" y="106.01" xlink:href="#hd"/>
<circle fill="currentColor" cx="179.83" cy="103.01" r="1.2"/>
<path d="M175.33 106.01v-20.00" stroke="currentColor" fill="none"/>
<path fill="currentColor"
	d="M209.13 82.21l35.60 -3.00v3.20l-35.60 3.00"/>
<path fill="currentColor"
	d="M215.53 86.71l-6.00 0.50v3.20l6.00 -0.50"/>
<use x="206.03" y="106.01" xlink:href="#hd"/>
<circle fill="currentColor" cx="214.03" cy="103.01" r="1.2"/>
<path d="M209.53 106.01v-22.80" stroke="currentColor" fill="none"/>
<use x="222.53" y="100.01" xlink:href="#hd"/>
<path d="M226.03 100.01v-18.20" stroke="currentColor" fill="none"/>
<use x="240.93" y="100.01" xlink:href="#hd"/>
<path d="M244.43 100.01v-19.80" stroke="currentColor" fill="none"/>
<use x="270.03" y="94.01" xlink:href="#r32"/>
<use x="279.83" y="106.01" xlink:href="#Hd"/>
<path d="M283.33 106.01v-20.00" stroke="currentColor" fill="none"/>
<path fill="currentColor"
	d="M323.93 81.01l26.70 0.00v3.20l-26.70 -0.00"/>
<path fill="currentColor"
	d="M344.23 86.01l6.00 0.00v3.20l-6.00 -0.00"/>
<path fill="currentColor"
	d="M344.23 91.01l6.00 0.00v3.20l-6.00 -0.00"/>
<use x="320.73" y="106.01" xlink:href="#hd"/>
<circle fill="currentColor" cx="328.73" cy="103.01" r="1.2"/>
<path d="M324.23 106.01v-24.00" stroke="currentColor" fill="none"/>
<use x="346.73" y="106.01" xlink:href="#hd"/>
<path d="M350.23 106.01v-24.00" stroke="currentColor" fill="none"/>
<defs>
<g id="r16">
	<path d="m3.3 -4l-4 15.6" stroke="currentColor" fill="none"/>
	<use x="3.4" y="-4" xlink:href="#r8e"/>
	<use x="1.9" y="2" xlink:href="#r8e"/>
</g>
</defs>
<use x="368.73" y="94.01" xlink:href="#r16"/>
<path fill="currentColor"
	d="M385.23 85.91l14.00 -2.20v3.20l-14.00 2.20"/>
<path fill="currentColor"
	d="M385.53 90.91l13.30 -2.10v3.20l-13.30 2.10"/>
<use x="382.03" y="109.01" xlink:href="#hd"/>
<path d="M385.53 109.01v-22.10" stroke="currentColor" fill="none"/>
<use x="395.43" y="106.01" xlink:href="#hd"/>
<path d="M398.93 106.01v-21.20" stroke="currentColor" fill="none"/>
<path fill="currentColor"
	d="M413.33 69.81l32.80 0.00v3.20l-32.80 -0.00"/>
<path fill="currentColor"
	d="M413.63 74.81l32.10 0.00v3.20l-32.10 -0.00"/>
<path fill="currentColor"
	d="M429.93 79.81l6.00 0.00v3.20l-6.00 -0.00"/>
<use x="410.13" y="103.01" xlink:href="#hd"/>
<path d="M413.63 103.01v-32.20" stroke="currentColor" fill="none"/>
<use x="423.43" y="94.01" xlink:href="#r32"/>
<use x="432.43" y="100.01" xlink:href="#hd"/>
<path d="M435.93 100.01v-29.20" stroke="currentColor" fill="none"/>
<use x="442.23" y="103.01" xlink:href="#hd"/>
<path d="M445.73 103.01v-32.20" stroke="currentColor" fill="none"/>
<path fill="currentColor"
	d="M460.13 72.01l36.40 -3.20v3.20l-36.40 3.20"/>
<path fill="currentColor"
	d="M460.43 76.91l35.70 -3.10v3.20l-35.70 3.10"/>
<path fill="currentColor"
	d="M490.13 79.31l6.00 -0.50v3.20l-6.00 0.50"/>
<use x="456.93" y="100.01" xlink:href="#hd"/>
<path d="M460.43 100.01v-27.10" stroke="currentColor" fill="none"/>
<use x="470.33" y="97.01" xlink:href="#hd"/>
<path d="M473.83 97.01v-25.20" stroke="currentColor" fill="none"/>
<use x="483.63" y="94.01" xlink:href="#r32"/>
<use x="492.63" y="94.01" xlink:href="#hd"/>
<path d="M496.13 94.01v-24.20" stroke="currentColor" fill="none"/>
<path fill="currentColor"
	d="M506.53 73.01l27.40 -4.20v3.20l-27.40 4.20"/>
<path fill="currentColor"
	d="M506.83 77.91l26.70 -4.10v3.20l-26.70 4.10"/>
<use x="503.33" y="97.01" xlink:href="#hd"/>
<path d="M506.83 97.01v-23.10" stroke="currentColor" fill="none"/>
<use x="516.73" y="94.01" xlink:href="#hd"/>
<path d="M520.23 94.01v-22.10" stroke="currentColor" fill="none"/>
<use x="530.03" y="91.01" xlink:href="#hd"/>
<path d="M533.53 91.01v-21.20" stroke="currentColor" fill="none"/>
<use x="554.63" y="88.01" xlink:href="#hd"/>
<circle fill="currentColor" cx="562.63" cy="85.01" r="1.2"/>
<path d="M551.13 88.01v20.00" stroke="currentColor" fill="none"/>
<path fill="currentColor"
	d="M583.73 114.01l51.10 0.00v-3.20l-51.10 -0.00"/>
<path fill="currentColor"
	d="M584.13 109.01l21.30 0.00v-3.20l-21.30 -0.00"/>
<use x="587.63" y="91.01" xlink:href="#hd"/>
<path d="M584.13 91.01v22.00" stroke="currentColor" fill="none"/>
<use x="598.23" y="88.01" xlink:href="#hd"/>
<path d="M594.73 88.01v25.00" stroke="currentColor" fill="none"/>
<use x="608.93" y="91.01" xlink:href="#hd"/>
<path d="M605.43 91.01v22.00" stroke="currentColor" fill="none"/>
<use x="619.53" y="94.01" xlink:href="#hd"/>
<path d="M616.03 94.01v19.00" stroke="currentColor" fill="none"/>
<use x="638.03" y="91.01" xlink:href="#hd"/>
<path d="M634.53 91.01v22.00" stroke="currentColor" fill="none"/>
<use x="667.13" y="88.01" xlink:href="#hd"/>
<path d="M663.63 88.01v20.00" stroke="currentColor" fill="none"/>
<path fill="currentColor"
	d="M175.33 106.01c4.27 4.99 22.87 4.99 27.14 -0.00
	l0.00 0.23c-5.09 6.76 -22.05 6.76 -27.14 -0.23"/>
<path fill="currentColor"
	d="M283.33 106.01c5.34 5.11 28.54 5.11 33.88 -0.00
	l0.00 0.23c-6.35 6.88 -27.53 6.88 -33.88 -0.23"/>
<path fill="currentColor"
	d="M324.23 106.01c2.99 4.84 16.01 4.84 19.00 -0.00
	l0.00 0.22c-3.56 6.62 -15.44 6.62 -19.00 -0.22"/>
</g>
</svg>
