<?xml version="1.0" standalone="no"?>
<!DOCTYPE svg PUBLIC "-//W3C//DTD SVG 1.1//EN"
	"http://www.w3.org/Graphics/SVG/1.1/DTD/svg11.dtd">
<svg xmlns="http://www.w3.org/2000/svg" version="1.1"
	xmlns:xlink="http://www.w3.org/1999/xlink"
	xml:space='preserve' color="black"
	width="7.38in" height="1.34in" viewBox="0 0 531 97">
<title>1526.abc (1526) tune 1</title>
<!-- Creator: abcm2ps-7.8.14 -->
<!-- CreationDate: Mar 13, 2016 18:53 -->
<!-- CommandLine: -qxg 1526.abc -O ../svgs/1526.svg -->
<g transform="scale(0.750)" stroke-width="0.70" font-family="Times" font-size="20.00">
<text x="354.13" y="21.67" text-anchor="middle">1526.  Noches en los Jardines de Espana, En los Jardines de la Sierra de Cordoba, 2nd. Theme</text>
</g>
<g transform="scale(0.750)" stroke-width="0.70" font-family="Times" font-size="14.00" font-style="italic">
<text x="694.93" y="45.34" text-anchor="end">Manuel de Falla</text>
</g>
<g transform="scale(0.525)" stroke-width="0.70" font-family="Times" font-size="14.00" font-style="italic">
<defs>
<ellipse id="hd" rx="4.1" ry="2.9"
	transform="rotate(-20)" fill="currentColor"/>
</defs>
<use x="107.04" y="94.16" xlink:href="#hd"/>
<path d="M110.54 94.16v-20.00" stroke="currentColor" fill="none"/>
</g>
<g transform="scale(0.750)" stroke-width="0.70" font-family="Times" font-size="15.00" font-weight="bold">
<text x="82.63" y="68.01">= 120</text>
<path stroke="currentColor" fill="none"
	d="M190.63 106.01v-24.00"/>
<path stroke="currentColor" fill="none"
	d="M279.53 106.01v-24.00"/>
<path stroke="currentColor" fill="none"
	d="M408.23 106.01v-24.00"/>
<path stroke="currentColor" fill="none"
	d="M516.03 106.01v-24.00"/>
<path stroke="currentColor" fill="none"
	d="M628.33 106.01v-24.00"/>
<path stroke="currentColor" fill="none"
	d="M13.33 106.01h681.60m-681.60 -6h681.60m-681.60 -6h681.60m-681.60 -6h681.60m-681.60 -6h681.60"/>
<defs>
<path id="utclef" fill="currentColor" d="m-50 -90
	c-72 -41 -72 -158 52 -188
	c150 -10 220 188 90 256
	c-114 52 -275 0 -293 -136
	c-15 -181 93 -229 220 -334
	c88 -87 79 -133 62 -210
	c-51 33 -94 105 -89 186
	c17 267 36 374 49 574
	c6 96 -19 134 -77 135
	c-80 1 -126 -93 -61 -133
	c85 -41 133 101 31 105
	c23 17 92 37 90 -92
	c-10 -223 -39 -342 -50 -617
	c0 -90 0 -162 96 -232
	c56 72 63 230 22 289
	c-74 106 -257 168 -255 316
	c9 153 148 185 252 133
	c86 -65 29 -192 -80 -176
	c-71 12 -105 67 -59 124"/>
<use id="tclef" transform="scale(0.045)"
	xlink:href="#utclef"/>
</defs>
<use x="25.33" y="106.01" xlink:href="#tclef"/>
<defs>
<path id="uflat" fill="currentColor" d="
	m100 -746
	h32
	v734
	l-32 4
	m32 -332
	c46 -72 152 -90 208 -20
	c100 110 -120 326 -208 348
	m0 -28
	c54 0 200 -206 130 -290
	c-50 -60 -130 -4 -130 34"/>
<use id="ft0" transform="translate(-3.5,3.5) scale(0.018)"
	xlink:href="#uflat"/>
</defs>
<use x="40.33" y="94.01" xlink:href="#ft0"/>
<g font-family="serif" font-size="16" font-weight="bold" font-style="normal"
	transform="translate(56.33,106.01) scale(1.2,1)">
	<text y="-1" text-anchor="middle">8</text>
	<text y="-13" text-anchor="middle">6</text>
</g>
<defs>
<path id="r8e" fill="currentColor" d="m 0 0
	c-1.5 1.5 -2.4 2 -3.6 2
	c2.4 -2.8 -2.8 -4 -2.8 -1.2
	c0 2.7 4.3 2.4 5.9 0.6"/>
<g id="r32">
	<path d="m4.8 -10l-5.5 21.6" stroke="currentColor" fill="none"/>
	<use x="4.9" y="-10" xlink:href="#r8e"/>
	<use x="3.4" y="-4" xlink:href="#r8e"/>
	<use x="1.9" y="2" xlink:href="#r8e"/>
</g>
</defs>
<use x="74.33" y="94.01" xlink:href="#r32"/>
<path fill="currentColor"
	d="M87.03 75.81l36.20 0.00v3.20l-36.20 -0.00"/>
<path fill="currentColor"
	d="M107.33 80.81l6.00 0.00v3.20l-6.00 -0.00"/>
<path fill="currentColor"
	d="M107.33 85.81l6.00 0.00v3.20l-6.00 -0.00"/>
<use x="83.83" y="103.01" xlink:href="#hd"/>
<circle fill="currentColor" cx="91.83" cy="103.01" r="1.2"/>
<path d="M87.33 103.01v-26.20" stroke="currentColor" fill="none"/>
<use x="109.83" y="103.01" xlink:href="#hd"/>
<path d="M113.33 103.01v-26.20" stroke="currentColor" fill="none"/>
<use x="119.43" y="106.01" xlink:href="#hd"/>
<path d="M122.93 106.01v-29.20" stroke="currentColor" fill="none"/>
<path fill="currentColor"
	d="M142.13 88.31l36.20 -4.60v3.20l-36.20 4.60"/>
<use x="139.03" y="109.01" xlink:href="#hd"/>
<path d="M142.53 109.01v-19.80" stroke="currentColor" fill="none"/>
<use x="156.83" y="106.01" xlink:href="#hd"/>
<path d="M160.33 106.01v-19.00" stroke="currentColor" fill="none"/>
<use x="174.53" y="103.01" xlink:href="#hd"/>
<path d="M178.03 103.01v-18.20" stroke="currentColor" fill="none"/>
<use x="203.13" y="106.01" xlink:href="#hd"/>
<path d="M206.63 106.01v-20.00" stroke="currentColor" fill="none"/>
<use x="230.23" y="109.01" xlink:href="#hd"/>
<path d="M233.73 109.01v-20.00" stroke="currentColor" fill="none"/>
<use x="257.43" y="106.01" xlink:href="#hd"/>
<path d="M260.93 106.01v-20.00" stroke="currentColor" fill="none"/>
<use x="292.03" y="94.01" xlink:href="#r32"/>
<path fill="currentColor"
	d="M304.73 75.81l36.20 0.00v3.20l-36.20 -0.00"/>
<path fill="currentColor"
	d="M325.03 80.81l6.00 0.00v3.20l-6.00 -0.00"/>
<path fill="currentColor"
	d="M325.03 85.81l6.00 0.00v3.20l-6.00 -0.00"/>
<use x="301.53" y="103.01" xlink:href="#hd"/>
<circle fill="currentColor" cx="309.53" cy="103.01" r="1.2"/>
<path d="M305.03 103.01v-26.20" stroke="currentColor" fill="none"/>
<use x="327.53" y="103.01" xlink:href="#hd"/>
<path d="M331.03 103.01v-26.20" stroke="currentColor" fill="none"/>
<use x="337.13" y="106.01" xlink:href="#hd"/>
<path d="M340.63 106.01v-29.20" stroke="currentColor" fill="none"/>
<path fill="currentColor"
	d="M359.83 88.31l36.20 -4.60v3.20l-36.20 4.60"/>
<use x="356.73" y="109.01" xlink:href="#hd"/>
<path d="M360.23 109.01v-19.80" stroke="currentColor" fill="none"/>
<use x="374.43" y="106.01" xlink:href="#hd"/>
<path d="M377.93 106.01v-19.00" stroke="currentColor" fill="none"/>
<use x="392.23" y="103.01" xlink:href="#hd"/>
<path d="M395.73 103.01v-18.20" stroke="currentColor" fill="none"/>
<use x="420.73" y="94.01" xlink:href="#r32"/>
<path fill="currentColor"
	d="M433.43 81.01l26.70 0.00v3.20l-26.70 -0.00"/>
<path fill="currentColor"
	d="M453.83 86.01l6.00 0.00v3.20l-6.00 -0.00"/>
<path fill="currentColor"
	d="M453.83 91.01l6.00 0.00v3.20l-6.00 -0.00"/>
<use x="430.33" y="106.01" xlink:href="#hd"/>
<circle fill="currentColor" cx="438.33" cy="103.01" r="1.2"/>
<path d="M433.83 106.01v-24.00" stroke="currentColor" fill="none"/>
<use x="456.33" y="106.01" xlink:href="#hd"/>
<path d="M459.83 106.01v-24.00" stroke="currentColor" fill="none"/>
<defs>
<path id="hl" stroke="currentColor" d="m-6 0h12"/>
</defs>
<use x="466.73" y="112.01" xlink:href="#hl"/>
<use x="466.73" y="112.01" xlink:href="#hd"/>
<path d="M470.23 112.01v-20.00" stroke="currentColor" fill="none"/>
<use x="493.93" y="106.01" xlink:href="#hd"/>
<path d="M497.43 106.01v-20.00" stroke="currentColor" fill="none"/>
<use x="528.53" y="109.01" xlink:href="#hd"/>
<path d="M532.03 109.01v-20.00" stroke="currentColor" fill="none"/>
<use x="555.63" y="112.01" xlink:href="#hl"/>
<use x="555.63" y="112.01" xlink:href="#hd"/>
<path d="M559.13 112.01v-20.00" stroke="currentColor" fill="none"/>
<path fill="currentColor"
	d="	M559.13 92.01c0.6 5.6 9.6 9 5.6 18.4
	c1.6 -6 -1.3 -11.6 -5.6 -12.8
"/>
<path fill="currentColor"
	d="M579.73 93.71l36.40 -4.00v3.20l-36.40 4.00"/>
<use x="576.53" y="112.01" xlink:href="#hl"/>
<use x="576.53" y="115.01" xlink:href="#hd"/>
<path d="M580.03 115.01v-20.40" stroke="currentColor" fill="none"/>
<use x="594.53" y="112.01" xlink:href="#hl"/>
<use x="594.53" y="112.01" xlink:href="#hd"/>
<path d="M598.03 112.01v-19.30" stroke="currentColor" fill="none"/>
<use x="612.33" y="109.01" xlink:href="#hd"/>
<path d="M615.83 109.01v-18.30" stroke="currentColor" fill="none"/>
<use x="640.83" y="94.01" xlink:href="#r32"/>
<use x="650.43" y="112.01" xlink:href="#hl"/>
<use x="650.43" y="115.01" xlink:href="#hd"/>
<circle fill="currentColor" cx="658.43" cy="115.01" r="1.2"/>
<path d="M653.93 115.01v-21.00" stroke="currentColor" fill="none"/>
<path fill="currentColor"
	d="M653.93 94.01c0.9 3.7 9.1 6.4 6 12.4
	c1 -5.4 -4.2 -8.4 -6 -8.4
M653.93 99.41c0.9 3.7 9.1 6.4 6 12.4
	c1 -5.4 -4.2 -8.4 -6 -8.4
"/>
<use x="668.43" y="112.01" xlink:href="#hl"/>
<use x="668.43" y="118.01" xlink:href="#hl"/>
<use x="668.43" y="118.01" xlink:href="#hd"/>
<path d="M671.93 118.01v-24.00" stroke="currentColor" fill="none"/>
<path fill="currentColor"
	d="M87.33 105.01c2.99 4.84 16.01 4.84 19.00 -0.00
	l0.00 0.22c-3.56 6.62 -15.44 6.62 -19.00 -0.22"/>
<path fill="currentColor"
	d="M305.03 105.01c2.99 4.84 16.01 4.84 19.00 -0.00
	l0.00 0.22c-3.56 6.62 -15.44 6.62 -19.00 -0.22"/>
<path fill="currentColor"
	d="M433.83 106.01c2.99 4.84 16.01 4.84 19.00 -0.00
	l0.00 0.22c-3.56 6.62 -15.44 6.62 -19.00 -0.22"/>
</g>
</svg>
