<?xml version="1.0" standalone="no"?>
<!DOCTYPE svg PUBLIC "-//W3C//DTD SVG 1.1//EN"
	"http://www.w3.org/Graphics/SVG/1.1/DTD/svg11.dtd">
<svg xmlns="http://www.w3.org/2000/svg" version="1.1"
	xmlns:xlink="http://www.w3.org/1999/xlink"
	xml:space='preserve' color="black"
	width="7.38in" height="1.36in" viewBox="0 0 531 98">
<title>1540.abc (1540) tune 1</title>
<!-- Creator: abcm2ps-7.8.14 -->
<!-- CreationDate: Mar 13, 2016 18:53 -->
<!-- CommandLine: -qxg 1540.abc -O ../svgs/1540.svg -->
<g transform="scale(0.750)" stroke-width="0.70" font-family="Times" font-size="20.00">
<text x="354.13" y="21.67" text-anchor="middle">1540.  Three dances, from El Sombrero de Tres Picos, Jota - 4th. Theme</text>
</g>
<g transform="scale(0.750)" stroke-width="0.70" font-family="Times" font-size="14.00" font-style="italic">
<text x="694.93" y="45.34" text-anchor="end">Manuel de Falla</text>
</g>
<g transform="scale(0.525)" stroke-width="0.70" font-family="Times" font-size="14.00" font-style="italic">
<defs>
<ellipse id="hd" rx="4.1" ry="2.9"
	transform="rotate(-20)" fill="currentColor"/>
</defs>
<use x="122.76" y="94.16" xlink:href="#hd"/>
<path d="M126.26 94.16v-20.00" stroke="currentColor" fill="none"/>
</g>
<g transform="scale(0.750)" stroke-width="0.70" font-family="Times" font-size="15.00" font-weight="bold">
<text x="93.63" y="68.01">= 120</text>
<path stroke="currentColor" fill="none"
	d="M238.13 108.01v-24.00"/>
<path stroke="currentColor" fill="none"
	d="M13.33 108.01h352.50m-352.50 -6h352.50m-352.50 -6h352.50m-352.50 -6h352.50m-352.50 -6h352.50"/>
<defs>
<path id="utclef" fill="currentColor" d="m-50 -90
	c-72 -41 -72 -158 52 -188
	c150 -10 220 188 90 256
	c-114 52 -275 0 -293 -136
	c-15 -181 93 -229 220 -334
	c88 -87 79 -133 62 -210
	c-51 33 -94 105 -89 186
	c17 267 36 374 49 574
	c6 96 -19 134 -77 135
	c-80 1 -126 -93 -61 -133
	c85 -41 133 101 31 105
	c23 17 92 37 90 -92
	c-10 -223 -39 -342 -50 -617
	c0 -90 0 -162 96 -232
	c56 72 63 230 22 289
	c-74 106 -257 168 -255 316
	c9 153 148 185 252 133
	c86 -65 29 -192 -80 -176
	c-71 12 -105 67 -59 124"/>
<use id="tclef" transform="scale(0.045)"
	xlink:href="#utclef"/>
</defs>
<use x="25.33" y="108.01" xlink:href="#tclef"/>
<defs>
<path id="usharp" fill="currentColor" d="
	m136 -702
	v890
	h32
	v-890
	m128 840
	h32
	v-888
	h-32
	m-232 286
	v116
	l338 -96
	v-116
	m-338 442
	v116
	l338 -98
	v-114"/>
<use id="sh0" transform="translate(-4,5) scale(0.018)"
	xlink:href="#usharp"/>
</defs>
<use x="40.33" y="84.01" xlink:href="#sh0"/>
<use x="45.83" y="93.01" xlink:href="#sh0"/>
<use x="51.33" y="81.01" xlink:href="#sh0"/>
<g font-family="serif" font-size="16" font-weight="bold" font-style="normal"
	transform="translate(67.33,108.01) scale(1.2,1)">
	<text y="-1" text-anchor="middle">8</text>
	<text y="-13" text-anchor="middle">6</text>
</g>
<path fill="currentColor"
	d="M81.53 98.51l51.60 4.90v-3.20l-51.60 -4.90"/>
<defs>
<path id="hl" stroke="currentColor" d="m-6 0h12"/>
</defs>
<use x="85.33" y="78.01" xlink:href="#hl"/>
<use x="85.33" y="78.01" xlink:href="#hd"/>
<path d="M81.83 78.01v19.60" stroke="currentColor" fill="none"/>
<use x="110.83" y="81.01" xlink:href="#hd"/>
<path d="M107.33 81.01v19.00" stroke="currentColor" fill="none"/>
<use x="136.23" y="84.01" xlink:href="#hd"/>
<path d="M132.73 84.01v18.40" stroke="currentColor" fill="none"/>
<path fill="currentColor"
	d="M160.73 108.21l51.60 0.00v-3.20l-51.60 -0.00"/>
<use x="164.53" y="87.01" xlink:href="#hd"/>
<path d="M161.03 87.01v20.20" stroke="currentColor" fill="none"/>
<use x="190.03" y="90.01" xlink:href="#hd"/>
<path d="M186.53 90.01v17.20" stroke="currentColor" fill="none"/>
<use x="215.53" y="84.01" xlink:href="#hd"/>
<path d="M212.03 84.01v23.20" stroke="currentColor" fill="none"/>
<defs>
<path id="r8e" fill="currentColor" d="m 0 0
	c-1.5 1.5 -2.4 2 -3.6 2
	c2.4 -2.8 -2.8 -4 -2.8 -1.2
	c0 2.7 4.3 2.4 5.9 0.6"/>
<g id="r32">
	<path d="m4.8 -10l-5.5 21.6" stroke="currentColor" fill="none"/>
	<use x="4.9" y="-10" xlink:href="#r8e"/>
	<use x="3.4" y="-4" xlink:href="#r8e"/>
	<use x="1.9" y="2" xlink:href="#r8e"/>
</g>
</defs>
<use x="252.33" y="96.01" xlink:href="#r32"/>
<path fill="currentColor"
	d="M262.63 120.21l67.90 0.00v-3.20l-67.90 -0.00"/>
<path fill="currentColor"
	d="M268.93 115.21l-6.00 -0.00v-3.20l6.00 0.00"/>
<path fill="currentColor"
	d="M311.43 115.21l6.00 0.00v-3.20l-6.00 -0.00"/>
<path fill="currentColor"
	d="M268.93 110.21l-6.00 -0.00v-3.20l6.00 0.00"/>
<path fill="currentColor"
	d="M311.43 110.21l6.00 0.00v-3.20l-6.00 -0.00"/>
<use x="266.43" y="78.01" xlink:href="#hl"/>
<use x="266.43" y="72.01" xlink:href="#hl"/>
<use x="266.43" y="66.01" xlink:href="#hl"/>
<use x="266.43" y="63.01" xlink:href="#hd"/>
<path d="M262.93 63.01v56.20" stroke="currentColor" fill="none"/>
<use x="279.23" y="78.01" xlink:href="#hl"/>
<use x="279.23" y="72.01" xlink:href="#hl"/>
<use x="279.23" y="66.01" xlink:href="#hl"/>
<use x="279.23" y="66.01" xlink:href="#hd"/>
<circle fill="currentColor" cx="287.23" cy="63.01" r="1.2"/>
<path d="M275.73 66.01v53.20" stroke="currentColor" fill="none"/>
<use x="308.13" y="96.01" xlink:href="#r32"/>
<use x="320.93" y="78.01" xlink:href="#hl"/>
<use x="320.93" y="72.01" xlink:href="#hl"/>
<use x="320.93" y="66.01" xlink:href="#hl"/>
<use x="320.93" y="66.01" xlink:href="#hd"/>
<path d="M317.43 66.01v53.20" stroke="currentColor" fill="none"/>
<use x="333.63" y="78.01" xlink:href="#hl"/>
<use x="333.63" y="72.01" xlink:href="#hl"/>
<use x="333.63" y="69.01" xlink:href="#hd"/>
<circle fill="currentColor" cx="341.63" cy="69.01" r="1.2"/>
<path d="M330.13 69.01v50.20" stroke="currentColor" fill="none"/>
</g>
</svg>
