<?xml version="1.0" standalone="no"?>
<!DOCTYPE svg PUBLIC "-//W3C//DTD SVG 1.1//EN"
	"http://www.w3.org/Graphics/SVG/1.1/DTD/svg11.dtd">
<svg xmlns="http://www.w3.org/2000/svg" version="1.1"
	xmlns:xlink="http://www.w3.org/1999/xlink"
	xml:space='preserve' color="black"
	width="7.38in" height="1.36in" viewBox="0 0 531 98">
<title>1554.abc (1554) tune 1</title>
<!-- Creator: abcm2ps-7.8.14 -->
<!-- CreationDate: Mar 13, 2016 18:53 -->
<!-- CommandLine: -qxg 1554.abc -O ../svgs/1554.svg -->
<g transform="scale(0.750)" stroke-width="0.70" font-family="Times" font-size="20.00">
<text x="354.13" y="21.67" text-anchor="middle">1554.  His Dreame, Fitzwilliam Virginal Book No. 260, Harpsi.</text>
</g>
<g transform="scale(0.750)" stroke-width="0.70" font-family="Times" font-size="14.00" font-style="italic">
<text x="694.93" y="45.34" text-anchor="end">Giles Farnaby</text>
</g>
<g transform="scale(0.525)" stroke-width="0.70" font-family="Times" font-size="14.00" font-style="italic">
<defs>
<ellipse id="hd" rx="4.1" ry="2.9"
	transform="rotate(-20)" fill="currentColor"/>
</defs>
<use x="89.19" y="94.16" xlink:href="#hd"/>
<path d="M92.69 94.16v-20.00" stroke="currentColor" fill="none"/>
</g>
<g transform="scale(0.750)" stroke-width="0.70" font-family="Times" font-size="15.00" font-weight="bold">
<text x="70.13" y="68.01">= 120</text>
<path stroke="currentColor" fill="none"
	d="M202.53 108.01v-24.00"/>
<path stroke="currentColor" fill="none"
	d="M396.03 108.01v-24.00"/>
<path stroke="currentColor" fill="none"
	d="M574.23 108.01v-24.00"/>
<path stroke="currentColor" fill="none"
	d="M694.93 108.01v-24.00"/>
<path stroke="currentColor" fill="none"
	d="M13.33 108.01h681.60m-681.60 -6h681.60m-681.60 -6h681.60m-681.60 -6h681.60m-681.60 -6h681.60"/>
<path stroke="currentColor" fill="none"
	d="M211.03 70.01v-3l45.10 -0.00v3"/>
<rect x="226.53" y="61.01" width="14.00" height="12" fill="white"/>
<text font-family="serif" font-size="12" font-style="italic" font-weight="normal"
	x="233.53" y="71.01" text-anchor="middle">3</text>
<defs>
<path id="utclef" fill="currentColor" d="m-50 -90
	c-72 -41 -72 -158 52 -188
	c150 -10 220 188 90 256
	c-114 52 -275 0 -293 -136
	c-15 -181 93 -229 220 -334
	c88 -87 79 -133 62 -210
	c-51 33 -94 105 -89 186
	c17 267 36 374 49 574
	c6 96 -19 134 -77 135
	c-80 1 -126 -93 -61 -133
	c85 -41 133 101 31 105
	c23 17 92 37 90 -92
	c-10 -223 -39 -342 -50 -617
	c0 -90 0 -162 96 -232
	c56 72 63 230 22 289
	c-74 106 -257 168 -255 316
	c9 153 148 185 252 133
	c86 -65 29 -192 -80 -176
	c-71 12 -105 67 -59 124"/>
<use id="tclef" transform="scale(0.045)"
	xlink:href="#utclef"/>
</defs>
<use x="25.33" y="108.01" xlink:href="#tclef"/>
<g font-family="serif" font-size="16" font-weight="bold" font-style="normal"
	transform="translate(43.83,108.01) scale(1.2,1)">
	<text y="-1" text-anchor="middle">4</text>
	<text y="-13" text-anchor="middle">4</text>
</g>
<use x="61.83" y="99.01" xlink:href="#hd"/>
<path d="M65.33 99.01v-20.00" stroke="currentColor" fill="none"/>
<use x="91.73" y="96.01" xlink:href="#hd"/>
<path d="M95.23 96.01v-20.00" stroke="currentColor" fill="none"/>
<path fill="currentColor"
	d="	M95.23 76.01c0.6 5.6 9.6 9 5.6 18.4
	c1.6 -6 -1.3 -11.6 -5.6 -12.8
"/>
<use x="114.23" y="93.01" xlink:href="#hd"/>
<path d="M110.73 93.01v20.00" stroke="currentColor" fill="none"/>
<path fill="currentColor"
	d="M110.73 113.01c0.6 -5.6 9.6 -9 5.6 -18.4
	c1.6 6 -1.3 11.6 -5.6 12.8
"/>
<use x="135.63" y="90.01" xlink:href="#hd"/>
<path d="M132.13 90.01v20.00" stroke="currentColor" fill="none"/>
<use x="162.63" y="99.01" xlink:href="#hd"/>
<path d="M166.13 99.01v-20.00" stroke="currentColor" fill="none"/>
<path fill="currentColor"
	d="	M166.13 79.01c0.6 5.6 9.6 9 5.6 18.4
	c1.6 -6 -1.3 -11.6 -5.6 -12.8
"/>
<use x="185.13" y="93.01" xlink:href="#hd"/>
<path d="M181.63 93.01v20.00" stroke="currentColor" fill="none"/>
<path fill="currentColor"
	d="M181.63 113.01c0.6 -5.6 9.6 -9 5.6 -18.4
	c1.6 6 -1.3 11.6 -5.6 12.8
"/>
<use x="215.03" y="96.01" xlink:href="#hd"/>
<path d="M211.53 96.01v20.00" stroke="currentColor" fill="none"/>
<use x="239.53" y="96.01" xlink:href="#hd"/>
<path d="M236.03 96.01v22.00" stroke="currentColor" fill="none"/>
<path fill="currentColor"
	d="M236.03 118.01c0.9 -3.7 9.1 -6.4 6 -12.4
	c1 5.4 -4.2 8.4 -6 8.4
M236.03 112.61c0.9 -3.7 9.1 -6.4 6 -12.4
	c1 5.4 -4.2 8.4 -6 8.4
"/>
<use x="250.63" y="99.01" xlink:href="#hd"/>
<path d="M254.13 99.01v-20.00" stroke="currentColor" fill="none"/>
<use x="275.13" y="99.01" xlink:href="#hd"/>
<path d="M278.63 99.01v-21.00" stroke="currentColor" fill="none"/>
<path fill="currentColor"
	d="M278.63 78.01c0.9 3.7 9.1 6.4 6 12.4
	c1 -5.4 -4.2 -8.4 -6 -8.4
M278.63 83.41c0.9 3.7 9.1 6.4 6 12.4
	c1 -5.4 -4.2 -8.4 -6 -8.4
"/>
<use x="291.63" y="102.01" xlink:href="#hd"/>
<path d="M295.13 102.01v-20.00" stroke="currentColor" fill="none"/>
<use x="322.53" y="102.01" xlink:href="#hd"/>
<path d="M326.03 102.01v-21.00" stroke="currentColor" fill="none"/>
<path fill="currentColor"
	d="M326.03 81.01c0.9 3.7 9.1 6.4 6 12.4
	c1 -5.4 -4.2 -8.4 -6 -8.4
M326.03 86.41c0.9 3.7 9.1 6.4 6 12.4
	c1 -5.4 -4.2 -8.4 -6 -8.4
"/>
<use x="348.03" y="105.01" xlink:href="#hd"/>
<defs>
<path id="usharp" fill="currentColor" d="
	m136 -702
	v890
	h32
	v-890
	m128 840
	h32
	v-888
	h-32
	m-232 286
	v116
	l338 -96
	v-116
	m-338 442
	v116
	l338 -98
	v-114"/>
<use id="sh0" transform="translate(-4,5) scale(0.018)"
	xlink:href="#usharp"/>
</defs>
<use x="339.03" y="105.01" xlink:href="#sh0"/>
<path d="M351.53 105.01v-20.00" stroke="currentColor" fill="none"/>
<use x="377.93" y="111.01" xlink:href="#hd"/>
<path d="M381.43 111.01v-20.00" stroke="currentColor" fill="none"/>
<path fill="currentColor"
	d="	M381.43 91.01c0.6 5.6 9.6 9 5.6 18.4
	c1.6 -6 -1.3 -11.6 -5.6 -12.8
"/>
<use x="408.53" y="99.01" xlink:href="#hd"/>
<path d="M412.03 99.01v-20.00" stroke="currentColor" fill="none"/>
<use x="438.53" y="102.01" xlink:href="#hd"/>
<path d="M442.03 102.01v-20.00" stroke="currentColor" fill="none"/>
<path fill="currentColor"
	d="	M442.03 82.01c0.6 5.6 9.6 9 5.6 18.4
	c1.6 -6 -1.3 -11.6 -5.6 -12.8
"/>
<use x="460.73" y="99.01" xlink:href="#hd"/>
<path d="M464.23 99.01v-20.00" stroke="currentColor" fill="none"/>
<path fill="currentColor"
	d="	M464.23 79.01c0.6 5.6 9.6 9 5.6 18.4
	c1.6 -6 -1.3 -11.6 -5.6 -12.8
"/>
<use x="486.23" y="105.01" xlink:href="#hd"/>
<use x="477.23" y="105.01" xlink:href="#sh0"/>
<path d="M489.73 105.01v-20.00" stroke="currentColor" fill="none"/>
<path fill="currentColor"
	d="	M489.73 85.01c0.6 5.6 9.6 9 5.6 18.4
	c1.6 -6 -1.3 -11.6 -5.6 -12.8
"/>
<use x="508.33" y="111.01" xlink:href="#hd"/>
<path d="M511.83 111.01v-20.00" stroke="currentColor" fill="none"/>
<path fill="currentColor"
	d="	M511.83 91.01c0.6 5.6 9.6 9 5.6 18.4
	c1.6 -6 -1.3 -11.6 -5.6 -12.8
"/>
<use x="530.53" y="102.01" xlink:href="#hd"/>
<path d="M534.03 102.01v-20.00" stroke="currentColor" fill="none"/>
<path fill="currentColor"
	d="	M534.03 82.01c0.6 5.6 9.6 9 5.6 18.4
	c1.6 -6 -1.3 -11.6 -5.6 -12.8
"/>
<use x="556.03" y="105.01" xlink:href="#hd"/>
<use x="547.03" y="105.01" xlink:href="#sh0"/>
<path d="M559.53 105.01v-20.00" stroke="currentColor" fill="none"/>
<path fill="currentColor"
	d="	M559.53 85.01c0.6 5.6 9.6 9 5.6 18.4
	c1.6 -6 -1.3 -11.6 -5.6 -12.8
"/>
<use x="586.73" y="108.01" xlink:href="#hd"/>
<path d="M590.23 108.01v-20.00" stroke="currentColor" fill="none"/>
<path fill="currentColor"
	d="	M590.23 88.01c0.6 5.6 9.6 9 5.6 18.4
	c1.6 -6 -1.3 -11.6 -5.6 -12.8
"/>
<use x="608.93" y="111.01" xlink:href="#hd"/>
<path d="M612.43 111.01v-20.00" stroke="currentColor" fill="none"/>
<path fill="currentColor"
	d="	M612.43 91.01c0.6 5.6 9.6 9 5.6 18.4
	c1.6 -6 -1.3 -11.6 -5.6 -12.8
"/>
<use x="631.13" y="108.01" xlink:href="#hd"/>
<path d="M634.63 108.01v-20.00" stroke="currentColor" fill="none"/>
<defs>
<path id="Hd" fill="currentColor" d="m3 -1.6
	c-1 -1.8 -7 1.4 -6 3.2
	c1 1.8 7 -1.4 6 -3.2
	m0.5 -0.3
	c2 3.8 -5 7.6 -7 3.8
	c-2 -3.8 5 -7.6 7 -3.8"/>
</defs>
<use x="661.03" y="111.01" xlink:href="#Hd"/>
<path d="M664.53 111.01v-20.00" stroke="currentColor" fill="none"/>
<path fill="currentColor"
	d="M218.53 96.01c2.76 -4.82 14.76 -4.82 17.51 -0.00
	l0.00 -0.22c-3.28 -6.60 -14.23 -6.60 -17.51 0.22"/>
<path fill="currentColor"
	d="M254.13 101.01c2.76 4.82 14.76 4.82 17.51 -0.00
	l0.00 0.22c-3.28 6.60 -14.23 6.60 -17.51 -0.22"/>
<path fill="currentColor"
	d="M295.13 102.01c3.76 4.93 20.12 4.93 23.88 -0.00
	l0.00 0.22c-4.48 6.71 -19.40 6.71 -23.88 -0.22"/>
</g>
</svg>
