<?xml version="1.0" standalone="no"?>
<!DOCTYPE svg PUBLIC "-//W3C//DTD SVG 1.1//EN"
	"http://www.w3.org/Graphics/SVG/1.1/DTD/svg11.dtd">
<svg xmlns="http://www.w3.org/2000/svg" version="1.1"
	xmlns:xlink="http://www.w3.org/1999/xlink"
	xml:space='preserve' color="black"
	width="7.38in" height="1.34in" viewBox="0 0 531 97">
<title>1611.abc (1611) tune 1</title>
<!-- Creator: abcm2ps-7.8.14 -->
<!-- CreationDate: Mar 13, 2016 18:53 -->
<!-- CommandLine: -qxg 1611.abc -O ../svgs/1611.svg -->
<g transform="scale(0.750)" stroke-width="0.70" font-family="Times" font-size="20.00">
<text x="354.13" y="21.67" text-anchor="middle">1611.  Sonata in A, Op. 13, 4th. Mvt. - 2nd. Theme</text>
</g>
<g transform="scale(0.750)" stroke-width="0.70" font-family="Times" font-size="14.00" font-style="italic">
<text x="694.93" y="45.34" text-anchor="end">Gabriel Faure</text>
</g>
<g transform="scale(0.525)" stroke-width="0.70" font-family="Times" font-size="14.00" font-style="italic">
<defs>
<ellipse id="hd" rx="4.1" ry="2.9"
	transform="rotate(-20)" fill="currentColor"/>
</defs>
<use x="122.76" y="94.16" xlink:href="#hd"/>
<path d="M126.26 94.16v-20.00" stroke="currentColor" fill="none"/>
</g>
<g transform="scale(0.750)" stroke-width="0.70" font-family="Times" font-size="15.00" font-weight="bold">
<text x="93.63" y="68.01">= 120</text>
<path stroke="currentColor" fill="none"
	d="M165.93 106.01v-24.00"/>
<path stroke="currentColor" fill="none"
	d="M241.93 106.01v-24.00"/>
<path stroke="currentColor" fill="none"
	d="M318.03 106.01v-24.00"/>
<path stroke="currentColor" fill="none"
	d="M398.33 106.01v-24.00"/>
<path stroke="currentColor" fill="none"
	d="M498.93 106.01v-24.00"/>
<path stroke="currentColor" fill="none"
	d="M571.63 106.01v-24.00"/>
<path stroke="currentColor" fill="none"
	d="M647.63 106.01v-24.00"/>
<path stroke="currentColor" fill="none"
	d="M13.33 106.01h681.60m-681.60 -6h681.60m-681.60 -6h681.60m-681.60 -6h681.60m-681.60 -6h681.60"/>
<defs>
<path id="utclef" fill="currentColor" d="m-50 -90
	c-72 -41 -72 -158 52 -188
	c150 -10 220 188 90 256
	c-114 52 -275 0 -293 -136
	c-15 -181 93 -229 220 -334
	c88 -87 79 -133 62 -210
	c-51 33 -94 105 -89 186
	c17 267 36 374 49 574
	c6 96 -19 134 -77 135
	c-80 1 -126 -93 -61 -133
	c85 -41 133 101 31 105
	c23 17 92 37 90 -92
	c-10 -223 -39 -342 -50 -617
	c0 -90 0 -162 96 -232
	c56 72 63 230 22 289
	c-74 106 -257 168 -255 316
	c9 153 148 185 252 133
	c86 -65 29 -192 -80 -176
	c-71 12 -105 67 -59 124"/>
<use id="tclef" transform="scale(0.045)"
	xlink:href="#utclef"/>
</defs>
<use x="25.33" y="106.01" xlink:href="#tclef"/>
<defs>
<path id="usharp" fill="currentColor" d="
	m136 -702
	v890
	h32
	v-890
	m128 840
	h32
	v-888
	h-32
	m-232 286
	v116
	l338 -96
	v-116
	m-338 442
	v116
	l338 -98
	v-114"/>
<use id="sh0" transform="translate(-4,5) scale(0.018)"
	xlink:href="#usharp"/>
</defs>
<use x="40.33" y="82.01" xlink:href="#sh0"/>
<use x="45.83" y="91.01" xlink:href="#sh0"/>
<use x="51.33" y="79.01" xlink:href="#sh0"/>
<g font-family="serif" font-size="16" font-weight="bold" font-style="normal"
	transform="translate(67.33,106.01) scale(1.2,1)">
	<text y="-1" text-anchor="middle">8</text>
	<text y="-13" text-anchor="middle">6</text>
</g>
<use x="85.33" y="91.01" xlink:href="#hd"/>
<path d="M81.83 91.01v20.00" stroke="currentColor" fill="none"/>
<use x="115.73" y="91.01" xlink:href="#hd"/>
<path d="M112.23 91.01v20.00" stroke="currentColor" fill="none"/>
<path fill="currentColor"
	d="M112.23 111.01c0.6 -5.6 9.6 -9 5.6 -18.4
	c1.6 6 -1.3 11.6 -5.6 12.8
"/>
<use x="137.43" y="88.01" xlink:href="#hd"/>
<circle fill="currentColor" cx="145.43" cy="85.01" r="1.2"/>
<path d="M133.93 88.01v20.00" stroke="currentColor" fill="none"/>
<use x="178.43" y="88.01" xlink:href="#hd"/>
<circle fill="currentColor" cx="186.43" cy="85.01" r="1.2"/>
<path d="M174.93 88.01v20.00" stroke="currentColor" fill="none"/>
<use x="213.53" y="91.01" xlink:href="#hd"/>
<circle fill="currentColor" cx="221.53" cy="91.01" r="1.2"/>
<path d="M210.03 91.01v20.00" stroke="currentColor" fill="none"/>
<use x="254.43" y="91.01" xlink:href="#hd"/>
<circle fill="currentColor" cx="262.43" cy="91.01" r="1.2"/>
<path d="M250.93 91.01v20.00" stroke="currentColor" fill="none"/>
<use x="289.63" y="94.01" xlink:href="#hd"/>
<circle fill="currentColor" cx="297.63" cy="91.01" r="1.2"/>
<path d="M286.13 94.01v20.00" stroke="currentColor" fill="none"/>
<defs>
<path id="Hd" fill="currentColor" d="m3 -1.6
	c-1 -1.8 -7 1.4 -6 3.2
	c1 1.8 7 -1.4 6 -3.2
	m0.5 -0.3
	c2 3.8 -5 7.6 -7 3.8
	c-2 -3.8 5 -7.6 7 -3.8"/>
</defs>
<use x="331.03" y="94.01" xlink:href="#Hd"/>
<path d="M327.53 94.01v20.00" stroke="currentColor" fill="none"/>
<defs>
<path id="r4" fill="currentColor" d="m-1 -8.5
	l3.6 5.1 -2.1 5.2 2.2 4.3
	c-2.6 -2.3 -5.1 0 -2.4 2.6
	c-4.8 -3 -1.5 -6.9 1.4 -4.1
	l-3.1 -4.5 1.9 -5.1 -1.5 -3.5"/>
</defs>
<use x="373.83" y="94.01" xlink:href="#r4"/>
<use x="416.83" y="91.01" xlink:href="#hd"/>
<defs>
<path id="unat" fill="currentColor" d="
	m96 -750
	h-32
	v716
	l32 -8
	l182 -54
	v282
	h32
	v-706
	l-34 10
	l-180 50
	v-290
	m0 592
	v-190
	l182 -52
	v188"/>
<use id="nt0" transform="translate(-3,5) scale(0.018)"
	xlink:href="#unat"/>
</defs>
<use x="407.83" y="91.01" xlink:href="#nt0"/>
<path d="M413.33 91.01v20.00" stroke="currentColor" fill="none"/>
<use x="448.03" y="91.01" xlink:href="#hd"/>
<use x="439.03" y="91.01" xlink:href="#nt0"/>
<path d="M444.53 91.01v20.00" stroke="currentColor" fill="none"/>
<path fill="currentColor"
	d="M444.53 111.01c0.6 -5.6 9.6 -9 5.6 -18.4
	c1.6 6 -1.3 11.6 -5.6 12.8
"/>
<use x="470.43" y="91.01" xlink:href="#hd"/>
<circle fill="currentColor" cx="478.43" cy="91.01" r="1.2"/>
<use x="461.43" y="91.01" xlink:href="#sh0"/>
<path d="M466.93 91.01v20.00" stroke="currentColor" fill="none"/>
<use x="511.43" y="91.01" xlink:href="#hd"/>
<circle fill="currentColor" cx="519.43" cy="91.01" r="1.2"/>
<path d="M507.93 91.01v20.00" stroke="currentColor" fill="none"/>
<defs>
<path id="hl" stroke="currentColor" d="m-6 0h12"/>
</defs>
<use x="543.13" y="112.01" xlink:href="#hl"/>
<use x="543.13" y="112.01" xlink:href="#hd"/>
<circle fill="currentColor" cx="551.13" cy="109.01" r="1.2"/>
<path d="M546.63 112.01v-20.00" stroke="currentColor" fill="none"/>
<use x="584.13" y="112.01" xlink:href="#hl"/>
<use x="584.13" y="112.01" xlink:href="#hd"/>
<circle fill="currentColor" cx="592.13" cy="109.01" r="1.2"/>
<path d="M587.63 112.01v-20.00" stroke="currentColor" fill="none"/>
<use x="619.23" y="103.01" xlink:href="#hd"/>
<circle fill="currentColor" cx="627.23" cy="103.01" r="1.2"/>
<path d="M622.73 103.01v-20.00" stroke="currentColor" fill="none"/>
<use x="660.13" y="103.01" xlink:href="#hd"/>
<circle fill="currentColor" cx="668.13" cy="103.01" r="1.2"/>
<path d="M663.63 103.01v-20.00" stroke="currentColor" fill="none"/>
<path fill="currentColor"
	d="M140.93 82.01c5.34 -5.11 28.59 -5.11 33.93 -0.00
	l0.00 -0.23c-6.36 -6.88 -27.57 -6.88 -33.93 0.23"/>
<path fill="currentColor"
	d="M217.03 89.01c5.34 -5.11 28.59 -5.11 33.93 -0.00
	l0.00 -0.23c-6.36 -6.88 -27.57 -6.88 -33.93 0.23"/>
<path fill="currentColor"
	d="M293.13 88.01c5.42 -5.12 29.01 -5.12 34.43 -0.00
	l0.00 -0.23c-6.46 -6.89 -27.97 -6.89 -34.43 0.23"/>
<path fill="currentColor"
	d="M473.93 89.01c5.34 -5.11 28.59 -5.11 33.93 -0.00
	l0.00 -0.23c-6.36 -6.88 -27.57 -6.88 -33.93 0.23"/>
<path fill="currentColor"
	d="M546.63 112.01c5.34 5.11 28.59 5.11 33.93 -0.00
	l0.00 0.23c-6.36 6.88 -27.57 6.88 -33.93 -0.23"/>
<path fill="currentColor"
	d="M622.73 105.01c5.34 5.11 28.59 5.11 33.93 -0.00
	l0.00 0.23c-6.36 6.88 -27.57 6.88 -33.93 -0.23"/>
</g>
</svg>
