<?xml version="1.0" standalone="no"?>
<!DOCTYPE svg PUBLIC "-//W3C//DTD SVG 1.1//EN"
	"http://www.w3.org/Graphics/SVG/1.1/DTD/svg11.dtd">
<svg xmlns="http://www.w3.org/2000/svg" version="1.1"
	xmlns:xlink="http://www.w3.org/1999/xlink"
	xml:space='preserve' color="black"
	width="7.38in" height="1.34in" viewBox="0 0 531 97">
<title>1618.abc (1618) tune 1</title>
<!-- Creator: abcm2ps-7.8.14 -->
<!-- CreationDate: Mar 13, 2016 18:53 -->
<!-- CommandLine: -qxg 1618.abc -O ../svgs/1618.svg -->
<g transform="scale(0.750)" stroke-width="0.70" font-family="Times" font-size="20.00">
<text x="354.13" y="21.67" text-anchor="middle">1618.  Sonata in C Minor, Op. 1, No. 3, 2nd. Mvt. - 2nd. Theme</text>
</g>
<g transform="scale(0.750)" stroke-width="0.70" font-family="Times" font-size="14.00" font-style="italic">
<text x="694.93" y="45.34" text-anchor="end">John Field</text>
</g>
<g transform="scale(0.525)" stroke-width="0.70" font-family="Times" font-size="14.00" font-style="italic">
<defs>
<ellipse id="hd" rx="4.1" ry="2.9"
	transform="rotate(-20)" fill="currentColor"/>
</defs>
<use x="89.19" y="94.16" xlink:href="#hd"/>
<path d="M92.69 94.16v-20.00" stroke="currentColor" fill="none"/>
</g>
<g transform="scale(0.750)" stroke-width="0.70" font-family="Times" font-size="15.00" font-weight="bold">
<text x="70.13" y="68.01">= 120</text>
<path stroke="currentColor" fill="none"
	d="M214.13 106.01v-24.00"/>
<path stroke="currentColor" fill="none"
	d="M381.13 106.01v-24.00"/>
<path stroke="currentColor" fill="none"
	d="M13.33 106.01h410.20m-410.20 -6h410.20m-410.20 -6h410.20m-410.20 -6h410.20m-410.20 -6h410.20"/>
<defs>
<path id="utclef" fill="currentColor" d="m-50 -90
	c-72 -41 -72 -158 52 -188
	c150 -10 220 188 90 256
	c-114 52 -275 0 -293 -136
	c-15 -181 93 -229 220 -334
	c88 -87 79 -133 62 -210
	c-51 33 -94 105 -89 186
	c17 267 36 374 49 574
	c6 96 -19 134 -77 135
	c-80 1 -126 -93 -61 -133
	c85 -41 133 101 31 105
	c23 17 92 37 90 -92
	c-10 -223 -39 -342 -50 -617
	c0 -90 0 -162 96 -232
	c56 72 63 230 22 289
	c-74 106 -257 168 -255 316
	c9 153 148 185 252 133
	c86 -65 29 -192 -80 -176
	c-71 12 -105 67 -59 124"/>
<use id="tclef" transform="scale(0.045)"
	xlink:href="#utclef"/>
</defs>
<use x="25.33" y="106.01" xlink:href="#tclef"/>
<g font-family="serif" font-size="16" font-weight="bold" font-style="normal"
	transform="translate(43.83,106.01) scale(1.2,1)">
	<text y="-1" text-anchor="middle">8</text>
	<text y="-13" text-anchor="middle">6</text>
</g>
<path fill="currentColor"
	d="M58.03 110.91l64.40 2.80v-3.20l-64.40 -2.80"/>
<path fill="currentColor"
	d="M90.53 107.31l6.00 0.30v-3.20l-6.00 -0.30"/>
<use x="61.83" y="85.01" xlink:href="#hd"/>
<path d="M58.33 85.01v24.90" stroke="currentColor" fill="none"/>
<defs>
<path id="r8e" fill="currentColor" d="m 0 0
	c-1.5 1.5 -2.4 2 -3.6 2
	c2.4 -2.8 -2.8 -4 -2.8 -1.2
	c0 2.7 4.3 2.4 5.9 0.6"/>
<g id="r32">
	<path d="m4.8 -10l-5.5 21.6" stroke="currentColor" fill="none"/>
	<use x="4.9" y="-10" xlink:href="#r8e"/>
	<use x="3.4" y="-4" xlink:href="#r8e"/>
	<use x="1.9" y="2" xlink:href="#r8e"/>
</g>
</defs>
<use x="87.33" y="94.01" xlink:href="#r32"/>
<use x="100.03" y="85.01" xlink:href="#hd"/>
<circle fill="currentColor" cx="108.03" cy="85.01" r="1.2"/>
<path d="M96.53 85.01v26.60" stroke="currentColor" fill="none"/>
<use x="125.53" y="88.01" xlink:href="#hd"/>
<defs>
<path id="usharp" fill="currentColor" d="
	m136 -702
	v890
	h32
	v-890
	m128 840
	h32
	v-888
	h-32
	m-232 286
	v116
	l338 -96
	v-116
	m-338 442
	v116
	l338 -98
	v-114"/>
<use id="sh0" transform="translate(-4,5) scale(0.018)"
	xlink:href="#usharp"/>
</defs>
<use x="116.53" y="88.01" xlink:href="#sh0"/>
<path d="M122.03 88.01v24.70" stroke="currentColor" fill="none"/>
<use x="153.83" y="85.01" xlink:href="#hd"/>
<path d="M150.33 85.01v20.00" stroke="currentColor" fill="none"/>
<path fill="currentColor"
	d="M150.33 105.01c0.6 -5.6 9.6 -9 5.6 -18.4
	c1.6 6 -1.3 11.6 -5.6 12.8
"/>
<use x="182.13" y="79.01" xlink:href="#hd"/>
<use x="173.13" y="79.01" xlink:href="#sh0"/>
<path d="M178.63 79.01v20.00" stroke="currentColor" fill="none"/>
<path fill="currentColor"
	d="M224.43 104.21l51.60 -5.30v-3.20l-51.60 5.30"/>
<use x="228.33" y="85.01" xlink:href="#hd"/>
<path d="M224.83 85.01v18.20" stroke="currentColor" fill="none"/>
<defs>
<path id="hl" stroke="currentColor" d="m-6 0h12"/>
</defs>
<use x="253.73" y="76.01" xlink:href="#hl"/>
<use x="253.73" y="76.01" xlink:href="#hd"/>
<path d="M250.23 76.01v24.60" stroke="currentColor" fill="none"/>
<use x="279.23" y="76.01" xlink:href="#hl"/>
<use x="279.23" y="73.01" xlink:href="#hd"/>
<path d="M275.73 73.01v25.00" stroke="currentColor" fill="none"/>
<path fill="currentColor"
	d="M303.73 94.21l51.60 0.00v-3.20l-51.60 -0.00"/>
<use x="307.53" y="76.01" xlink:href="#hl"/>
<use x="307.53" y="70.01" xlink:href="#hl"/>
<use x="307.53" y="70.01" xlink:href="#hd"/>
<path d="M304.03 70.01v23.20" stroke="currentColor" fill="none"/>
<use x="333.03" y="76.01" xlink:href="#hl"/>
<use x="333.03" y="70.01" xlink:href="#hl"/>
<use x="333.03" y="67.01" xlink:href="#hd"/>
<defs>
<path id="unat" fill="currentColor" d="
	m96 -750
	h-32
	v716
	l32 -8
	l182 -54
	v282
	h32
	v-706
	l-34 10
	l-180 50
	v-290
	m0 592
	v-190
	l182 -52
	v188"/>
<use id="nt0" transform="translate(-3,5) scale(0.018)"
	xlink:href="#unat"/>
</defs>
<use x="324.03" y="67.01" xlink:href="#nt0"/>
<path d="M329.53 67.01v26.20" stroke="currentColor" fill="none"/>
<use x="358.43" y="76.01" xlink:href="#hl"/>
<use x="358.43" y="70.01" xlink:href="#hl"/>
<use x="358.43" y="67.01" xlink:href="#hd"/>
<use x="349.43" y="67.01" xlink:href="#sh0"/>
<path d="M354.93 67.01v26.20" stroke="currentColor" fill="none"/>
<use x="395.23" y="76.01" xlink:href="#hl"/>
<use x="395.23" y="70.01" xlink:href="#hl"/>
<use x="395.23" y="64.01" xlink:href="#hl"/>
<use x="395.23" y="64.01" xlink:href="#hd"/>
<path d="M391.73 64.01v30.00" stroke="currentColor" fill="none"/>
<path fill="currentColor"
	d="M391.73 94.01c0.6 -5.6 9.6 -9 5.6 -18.4
	c1.6 6 -1.3 11.6 -5.6 12.8
"/>
</g>
</svg>
