<?xml version="1.0" standalone="no"?>
<!DOCTYPE svg PUBLIC "-//W3C//DTD SVG 1.1//EN"
	"http://www.w3.org/Graphics/SVG/1.1/DTD/svg11.dtd">
<svg xmlns="http://www.w3.org/2000/svg" version="1.1"
	xmlns:xlink="http://www.w3.org/1999/xlink"
	xml:space='preserve' color="black"
	width="7.38in" height="1.34in" viewBox="0 0 531 97">
<title>1626.abc (1626) tune 1</title>
<!-- Creator: abcm2ps-7.8.14 -->
<!-- CreationDate: Mar 13, 2016 18:53 -->
<!-- CommandLine: -qxg 1626.abc -O ../svgs/1626.svg -->
<g transform="scale(0.750)" stroke-width="0.70" font-family="Times" font-size="20.00">
<text x="354.13" y="21.67" text-anchor="middle">1626.  Martha, Overture, 1st. Theme</text>
</g>
<g transform="scale(0.750)" stroke-width="0.70" font-family="Times" font-size="14.00" font-style="italic">
<text x="694.93" y="45.34" text-anchor="end">Friedrich von Flotow</text>
</g>
<g transform="scale(0.525)" stroke-width="0.70" font-family="Times" font-size="14.00" font-style="italic">
<defs>
<ellipse id="hd" rx="4.1" ry="2.9"
	transform="rotate(-20)" fill="currentColor"/>
</defs>
<use x="122.76" y="94.16" xlink:href="#hd"/>
<path d="M126.26 94.16v-20.00" stroke="currentColor" fill="none"/>
</g>
<g transform="scale(0.750)" stroke-width="0.70" font-family="Times" font-size="15.00" font-weight="bold">
<text x="93.63" y="68.01">= 120</text>
<path stroke="currentColor" fill="none"
	d="M227.13 106.01v-24.00"/>
<path stroke="currentColor" fill="none"
	d="M369.13 106.01v-24.00"/>
<path stroke="currentColor" fill="none"
	d="M583.53 106.01v-24.00"/>
<path stroke="currentColor" fill="none"
	d="M694.93 106.01v-24.00"/>
<path stroke="currentColor" fill="none"
	d="M13.33 106.01h681.60m-681.60 -6h681.60m-681.60 -6h681.60m-681.60 -6h681.60m-681.60 -6h681.60"/>
<path stroke="currentColor" fill="none"
	d="M417.93 77.01v-3l59.70 -0.00v3"/>
<rect x="440.83" y="68.01" width="14.00" height="12" fill="white"/>
<text font-family="serif" font-size="12" font-style="italic" font-weight="normal"
	x="447.83" y="78.01" text-anchor="middle">3</text>
<defs>
<path id="utclef" fill="currentColor" d="m-50 -90
	c-72 -41 -72 -158 52 -188
	c150 -10 220 188 90 256
	c-114 52 -275 0 -293 -136
	c-15 -181 93 -229 220 -334
	c88 -87 79 -133 62 -210
	c-51 33 -94 105 -89 186
	c17 267 36 374 49 574
	c6 96 -19 134 -77 135
	c-80 1 -126 -93 -61 -133
	c85 -41 133 101 31 105
	c23 17 92 37 90 -92
	c-10 -223 -39 -342 -50 -617
	c0 -90 0 -162 96 -232
	c56 72 63 230 22 289
	c-74 106 -257 168 -255 316
	c9 153 148 185 252 133
	c86 -65 29 -192 -80 -176
	c-71 12 -105 67 -59 124"/>
<use id="tclef" transform="scale(0.045)"
	xlink:href="#utclef"/>
</defs>
<use x="25.33" y="106.01" xlink:href="#tclef"/>
<defs>
<path id="usharp" fill="currentColor" d="
	m136 -702
	v890
	h32
	v-890
	m128 840
	h32
	v-888
	h-32
	m-232 286
	v116
	l338 -96
	v-116
	m-338 442
	v116
	l338 -98
	v-114"/>
<use id="sh0" transform="translate(-4,5) scale(0.018)"
	xlink:href="#usharp"/>
</defs>
<use x="40.33" y="82.01" xlink:href="#sh0"/>
<use x="45.83" y="91.01" xlink:href="#sh0"/>
<use x="51.33" y="79.01" xlink:href="#sh0"/>
<g font-family="serif" font-size="16" font-weight="bold" font-style="normal"
	transform="translate(67.33,106.01) scale(1.2,1)">
	<text y="-1" text-anchor="middle">8</text>
	<text y="-13" text-anchor="middle">9</text>
</g>
<use x="85.33" y="106.01" xlink:href="#hd"/>
<path d="M88.83 106.01v-20.00" stroke="currentColor" fill="none"/>
<use x="117.73" y="109.01" xlink:href="#hd"/>
<path d="M121.23 109.01v-20.00" stroke="currentColor" fill="none"/>
<path fill="currentColor"
	d="	M121.23 89.01c0.6 5.6 9.6 9 5.6 18.4
	c1.6 -6 -1.3 -11.6 -5.6 -12.8
"/>
<defs>
<path id="hl" stroke="currentColor" d="m-6 0h12"/>
</defs>
<use x="141.43" y="112.01" xlink:href="#hl"/>
<defs>
<path id="Hd" fill="currentColor" d="m3 -1.6
	c-1 -1.8 -7 1.4 -6 3.2
	c1 1.8 7 -1.4 6 -3.2
	m0.5 -0.3
	c2 3.8 -5 7.6 -7 3.8
	c-2 -3.8 5 -7.6 7 -3.8"/>
</defs>
<use x="141.43" y="112.01" xlink:href="#Hd"/>
<path d="M144.93 112.01v-20.00" stroke="currentColor" fill="none"/>
<path fill="currentColor"
	d="M190.83 91.71l21.50 -2.40v3.20l-21.50 2.40"/>
<use x="187.63" y="112.01" xlink:href="#hl"/>
<use x="187.63" y="112.01" xlink:href="#hd"/>
<path d="M191.13 112.01v-19.30" stroke="currentColor" fill="none"/>
<use x="208.53" y="109.01" xlink:href="#hd"/>
<path d="M212.03 109.01v-18.70" stroke="currentColor" fill="none"/>
<use x="245.63" y="109.01" xlink:href="#hd"/>
<use x="236.63" y="109.01" xlink:href="#sh0"/>
<path d="M249.13 109.01v-20.00" stroke="currentColor" fill="none"/>
<use x="278.03" y="106.01" xlink:href="#hd"/>
<path d="M281.53 106.01v-20.00" stroke="currentColor" fill="none"/>
<path fill="currentColor"
	d="	M281.53 86.01c0.6 5.6 9.6 9 5.6 18.4
	c1.6 -6 -1.3 -11.6 -5.6 -12.8
"/>
<use x="301.73" y="97.01" xlink:href="#hd"/>
<circle fill="currentColor" cx="309.73" cy="97.01" r="1.2"/>
<path d="M305.23 97.01v-20.00" stroke="currentColor" fill="none"/>
<use x="339.03" y="106.01" xlink:href="#hd"/>
<circle fill="currentColor" cx="347.03" cy="103.01" r="1.2"/>
<path d="M342.53 106.01v-20.00" stroke="currentColor" fill="none"/>
<use x="381.63" y="106.01" xlink:href="#hd"/>
<circle fill="currentColor" cx="389.63" cy="103.01" r="1.2"/>
<path d="M385.13 106.01v-20.00" stroke="currentColor" fill="none"/>
<use x="418.93" y="112.01" xlink:href="#hl"/>
<use x="418.93" y="112.01" xlink:href="#hd"/>
<path d="M422.43 112.01v-20.00" stroke="currentColor" fill="none"/>
<use x="445.13" y="112.01" xlink:href="#hl"/>
<use x="445.13" y="112.01" xlink:href="#hd"/>
<path d="M448.63 112.01v-21.00" stroke="currentColor" fill="none"/>
<path fill="currentColor"
	d="M448.63 91.01c0.9 3.7 9.1 6.4 6 12.4
	c1 -5.4 -4.2 -8.4 -6 -8.4
M448.63 96.41c0.9 3.7 9.1 6.4 6 12.4
	c1 -5.4 -4.2 -8.4 -6 -8.4
"/>
<use x="470.63" y="109.01" xlink:href="#hd"/>
<defs>
<path id="unat" fill="currentColor" d="
	m96 -750
	h-32
	v716
	l32 -8
	l182 -54
	v282
	h32
	v-706
	l-34 10
	l-180 50
	v-290
	m0 592
	v-190
	l182 -52
	v188"/>
<use id="nt0" transform="translate(-3,5) scale(0.018)"
	xlink:href="#unat"/>
</defs>
<use x="461.63" y="109.01" xlink:href="#nt0"/>
<path d="M474.13 109.01v-20.00" stroke="currentColor" fill="none"/>
<use x="496.73" y="109.01" xlink:href="#hd"/>
<path d="M500.23 109.01v-21.00" stroke="currentColor" fill="none"/>
<path fill="currentColor"
	d="M500.23 88.01c0.9 3.7 9.1 6.4 6 12.4
	c1 -5.4 -4.2 -8.4 -6 -8.4
M500.23 93.41c0.9 3.7 9.1 6.4 6 12.4
	c1 -5.4 -4.2 -8.4 -6 -8.4
"/>
<use x="513.83" y="106.01" xlink:href="#hd"/>
<path d="M517.33 106.01v-20.00" stroke="currentColor" fill="none"/>
<path fill="currentColor"
	d="M550.03 83.81l18.70 -2.30v3.20l-18.70 2.30"/>
<path fill="currentColor"
	d="M556.33 88.01l-6.00 0.80v3.20l6.00 -0.80"/>
<use x="546.83" y="106.01" xlink:href="#hd"/>
<path d="M550.33 106.01v-21.20" stroke="currentColor" fill="none"/>
<use x="564.83" y="103.01" xlink:href="#hd"/>
<use x="555.83" y="103.01" xlink:href="#nt0"/>
<path d="M568.33 103.01v-20.50" stroke="currentColor" fill="none"/>
<use x="596.03" y="100.01" xlink:href="#hd"/>
<path d="M599.53 100.01v-20.00" stroke="currentColor" fill="none"/>
<use x="629.03" y="103.01" xlink:href="#hd"/>
<use x="620.03" y="103.01" xlink:href="#sh0"/>
<path d="M632.53 103.01v-20.00" stroke="currentColor" fill="none"/>
<path fill="currentColor"
	d="	M632.53 83.01c0.6 5.6 9.6 9 5.6 18.4
	c1.6 -6 -1.3 -11.6 -5.6 -12.8
"/>
<use x="652.73" y="112.01" xlink:href="#hl"/>
<use x="652.73" y="115.01" xlink:href="#Hd"/>
<circle fill="currentColor" cx="661.73" cy="115.01" r="1.2"/>
<path d="M656.23 115.01v-21.00" stroke="currentColor" fill="none"/>
<path fill="currentColor"
	d="M144.93 112.01c6.19 5.21 33.09 5.21 39.27 -0.00
	l0.00 0.24c-7.36 6.97 -31.91 6.97 -39.27 -0.24"/>
<path fill="currentColor"
	d="M342.53 106.01c5.61 5.14 30.02 5.14 35.63 -0.00
	l0.00 0.24c-6.68 6.91 -28.95 6.91 -35.63 -0.24"/>
<path fill="currentColor"
	d="M422.43 112.01c3.01 4.84 16.11 4.84 19.12 -0.00
	l0.00 0.22c-3.59 6.63 -15.54 6.63 -19.12 -0.22"/>
<path fill="currentColor"
	d="M474.13 111.01c3.01 4.84 16.11 4.84 19.12 -0.00
	l0.00 0.22c-3.59 6.63 -15.54 6.63 -19.12 -0.22"/>
<path fill="currentColor"
	d="M517.33 106.01c4.11 4.97 21.97 4.97 26.08 -0.00
	l0.00 0.23c-4.89 6.74 -21.19 6.74 -26.08 -0.23"/>
</g>
</svg>
