<?xml version="1.0" standalone="no"?>
<!DOCTYPE svg PUBLIC "-//W3C//DTD SVG 1.1//EN"
	"http://www.w3.org/Graphics/SVG/1.1/DTD/svg11.dtd">
<svg xmlns="http://www.w3.org/2000/svg" version="1.1"
	xmlns:xlink="http://www.w3.org/1999/xlink"
	xml:space='preserve' color="black"
	width="7.38in" height="1.46in" viewBox="0 0 531 105">
<title>1681.abc (1681) tune 1</title>
<!-- Creator: abcm2ps-7.8.14 -->
<!-- CreationDate: Mar 13, 2016 18:53 -->
<!-- CommandLine: -qxg 1681.abc -O ../svgs/1681.svg -->
<g transform="scale(0.750)" stroke-width="0.70" font-family="Times" font-size="20.00">
<text x="354.13" y="21.67" text-anchor="middle">1681.  Quintet in F Minor, 1st. Mvt. - 1st. Theme</text>
</g>
<g transform="scale(0.750)" stroke-width="0.70" font-family="Times" font-size="14.00" font-style="italic">
<text x="694.93" y="45.34" text-anchor="end">Cesar Franck</text>
</g>
<g transform="scale(0.525)" stroke-width="0.70" font-family="Times" font-size="14.00" font-style="italic">
<defs>
<ellipse id="hd" rx="4.1" ry="2.9"
	transform="rotate(-20)" fill="currentColor"/>
</defs>
<use x="130.61" y="94.16" xlink:href="#hd"/>
<path d="M134.11 94.16v-20.00" stroke="currentColor" fill="none"/>
</g>
<g transform="scale(0.750)" stroke-width="0.70" font-family="Times" font-size="15.00" font-weight="bold">
<text x="99.13" y="68.01">= 120</text>
<path stroke="currentColor" fill="none"
	d="M198.93 117.01v-24.00"/>
<path stroke="currentColor" fill="none"
	d="M339.03 117.01v-24.00"/>
<path stroke="currentColor" fill="none"
	d="M539.23 117.01v-24.00"/>
<path stroke="currentColor" fill="none"
	d="M13.33 117.01h681.60m-681.60 -6h681.60m-681.60 -6h681.60m-681.60 -6h681.60m-681.60 -6h681.60"/>
<defs>
<path id="utclef" fill="currentColor" d="m-50 -90
	c-72 -41 -72 -158 52 -188
	c150 -10 220 188 90 256
	c-114 52 -275 0 -293 -136
	c-15 -181 93 -229 220 -334
	c88 -87 79 -133 62 -210
	c-51 33 -94 105 -89 186
	c17 267 36 374 49 574
	c6 96 -19 134 -77 135
	c-80 1 -126 -93 -61 -133
	c85 -41 133 101 31 105
	c23 17 92 37 90 -92
	c-10 -223 -39 -342 -50 -617
	c0 -90 0 -162 96 -232
	c56 72 63 230 22 289
	c-74 106 -257 168 -255 316
	c9 153 148 185 252 133
	c86 -65 29 -192 -80 -176
	c-71 12 -105 67 -59 124"/>
<use id="tclef" transform="scale(0.045)"
	xlink:href="#utclef"/>
</defs>
<use x="25.33" y="117.01" xlink:href="#tclef"/>
<defs>
<path id="uflat" fill="currentColor" d="
	m100 -746
	h32
	v734
	l-32 4
	m32 -332
	c46 -72 152 -90 208 -20
	c100 110 -120 326 -208 348
	m0 -28
	c54 0 200 -206 130 -290
	c-50 -60 -130 -4 -130 34"/>
<use id="ft0" transform="translate(-3.5,3.5) scale(0.018)"
	xlink:href="#uflat"/>
</defs>
<use x="40.33" y="105.01" xlink:href="#ft0"/>
<use x="45.83" y="96.01" xlink:href="#ft0"/>
<use x="51.33" y="108.01" xlink:href="#ft0"/>
<use x="56.83" y="99.01" xlink:href="#ft0"/>
<g font-family="serif" font-size="16" font-weight="bold" font-style="normal"
	transform="translate(72.83,117.01) scale(1.2,1)">
	<text y="-1" text-anchor="middle">4</text>
	<text y="-13" text-anchor="middle">4</text>
</g>
<path fill="currentColor"
	d="M87.03 105.21l23.70 0.00v-3.20l-23.70 -0.00"/>
<path fill="currentColor"
	d="M104.33 100.21l6.00 0.00v-3.20l-6.00 -0.00"/>
<defs>
<path id="hl" stroke="currentColor" d="m-6 0h12"/>
</defs>
<use x="90.83" y="87.01" xlink:href="#hl"/>
<use x="90.83" y="81.01" xlink:href="#hl"/>
<use x="90.83" y="78.01" xlink:href="#hd"/>
<circle fill="currentColor" cx="98.83" cy="78.01" r="1.2"/>
<path d="M87.33 78.01v26.20" stroke="currentColor" fill="none"/>
<use x="113.83" y="87.01" xlink:href="#hl"/>
<use x="113.83" y="81.01" xlink:href="#hl"/>
<use x="113.83" y="81.01" xlink:href="#hd"/>
<path d="M110.33 81.01v23.20" stroke="currentColor" fill="none"/>
<use x="132.83" y="87.01" xlink:href="#hl"/>
<defs>
<path id="Hd" fill="currentColor" d="m3 -1.6
	c-1 -1.8 -7 1.4 -6 3.2
	c1 1.8 7 -1.4 6 -3.2
	m0.5 -0.3
	c2 3.8 -5 7.6 -7 3.8
	c-2 -3.8 5 -7.6 7 -3.8"/>
</defs>
<use x="132.83" y="84.01" xlink:href="#Hd"/>
<defs>
<path id="unat" fill="currentColor" d="
	m96 -750
	h-32
	v716
	l32 -8
	l182 -54
	v282
	h32
	v-706
	l-34 10
	l-180 50
	v-290
	m0 592
	v-190
	l182 -52
	v188"/>
<use id="nt0" transform="translate(-3,5) scale(0.018)"
	xlink:href="#unat"/>
</defs>
<use x="122.83" y="84.01" xlink:href="#nt0"/>
<path d="M129.33 84.01v21.00" stroke="currentColor" fill="none"/>
<use x="175.13" y="87.01" xlink:href="#hl"/>
<use x="175.13" y="84.01" xlink:href="#hd"/>
<use x="166.13" y="84.01" xlink:href="#ft0"/>
<path d="M171.63 84.01v21.00" stroke="currentColor" fill="none"/>
<path fill="currentColor"
	d="M207.53 109.81l23.50 2.40v-3.20l-23.50 -2.40"/>
<path fill="currentColor"
	d="M224.73 106.61l6.00 0.60v-3.20l-6.00 -0.60"/>
<use x="211.43" y="87.01" xlink:href="#hl"/>
<use x="211.43" y="87.01" xlink:href="#hd"/>
<circle fill="currentColor" cx="219.43" cy="84.01" r="1.2"/>
<path d="M207.93 87.01v21.80" stroke="currentColor" fill="none"/>
<use x="234.23" y="90.01" xlink:href="#hd"/>
<path d="M230.73 90.01v21.20" stroke="currentColor" fill="none"/>
<use x="249.53" y="93.01" xlink:href="#hd"/>
<path d="M246.03 93.01v20.00" stroke="currentColor" fill="none"/>
<defs>
<path id="r4" fill="currentColor" d="m-1 -8.5
	l3.6 5.1 -2.1 5.2 2.2 4.3
	c-2.6 -2.3 -5.1 0 -2.4 2.6
	c-4.8 -3 -1.5 -6.9 1.4 -4.1
	l-3.1 -4.5 1.9 -5.1 -1.5 -3.5"/>
</defs>
<use x="278.73" y="105.01" xlink:href="#r4"/>
<defs>
<path id="ubclef" fill="currentColor" d="m-200 -87
	c124 -35 222 -78 254 -236
	c43 -228 -167 -246 -192 -103
	c59 -80 157 22 92 78
	c-62 47 -115 -22 -106 -88
	c21 -141 270 -136 274 52
	c-1 175 -106 264 -322 297
	m357 -250
	c0 -36 51 -34 51 0
	c0 37 -51 36 -51 0
	m-2 -129
	c0 -36 51 -34 51 0
	c0 38 -51 37 -51 0"/>
<use id="sbclef" transform="translate(0,-3.5) scale(0.037)"
	xlink:href="#ubclef"/>
</defs>
<use x="300.83" y="117.01" xlink:href="#sbclef"/>
<use x="315.33" y="99.01" xlink:href="#hd"/>
<path d="M311.83 99.01v20.00" stroke="currentColor" fill="none"/>
<path fill="currentColor"
	d="M353.73 118.91l101.00 0.00v-3.20l-101.00 -0.00"/>
<path fill="currentColor"
	d="M370.83 113.91l6.00 0.00v-3.20l-6.00 -0.00"/>
<path fill="currentColor"
	d="M411.63 113.91l6.00 0.00v-3.20l-6.00 -0.00"/>
<path fill="currentColor"
	d="M448.33 113.91l6.00 0.00v-3.20l-6.00 -0.00"/>
<use x="357.53" y="96.01" xlink:href="#hd"/>
<circle fill="currentColor" cx="365.53" cy="96.01" r="1.2"/>
<use x="348.53" y="96.01" xlink:href="#ft0"/>
<path d="M354.03 96.01v22.00" stroke="currentColor" fill="none"/>
<use x="380.33" y="99.01" xlink:href="#hd"/>
<path d="M376.83 99.01v19.00" stroke="currentColor" fill="none"/>
<use x="398.33" y="96.01" xlink:href="#hd"/>
<circle fill="currentColor" cx="406.33" cy="96.01" r="1.2"/>
<use x="389.33" y="96.01" xlink:href="#nt0"/>
<path d="M394.83 96.01v22.00" stroke="currentColor" fill="none"/>
<use x="421.13" y="99.01" xlink:href="#hd"/>
<path d="M417.63 99.01v19.00" stroke="currentColor" fill="none"/>
<use x="435.13" y="93.01" xlink:href="#hd"/>
<circle fill="currentColor" cx="443.13" cy="90.01" r="1.2"/>
<path d="M431.63 93.01v25.00" stroke="currentColor" fill="none"/>
<use x="457.83" y="96.01" xlink:href="#hd"/>
<path d="M454.33 96.01v22.00" stroke="currentColor" fill="none"/>
<use x="473.23" y="99.01" xlink:href="#hd"/>
<path d="M469.73 99.01v20.00" stroke="currentColor" fill="none"/>
<path fill="currentColor"
	d="M469.73 119.01c0.6 -5.6 9.6 -9 5.6 -18.4
	c1.6 6 -1.3 11.6 -5.6 12.8
"/>
<defs>
<path id="r8e" fill="currentColor" d="m 0 0
	c-1.5 1.5 -2.4 2 -3.6 2
	c2.4 -2.8 -2.8 -4 -2.8 -1.2
	c0 2.7 4.3 2.4 5.9 0.6"/>
<g id="r16">
	<path d="m3.3 -4l-4 15.6" stroke="currentColor" fill="none"/>
	<use x="3.4" y="-4" xlink:href="#r8e"/>
	<use x="1.9" y="2" xlink:href="#r8e"/>
</g>
</defs>
<use x="492.33" y="105.01" xlink:href="#r16"/>
<use x="507.73" y="87.01" xlink:href="#hl"/>
<use x="507.73" y="81.01" xlink:href="#hl"/>
<use x="507.73" y="78.01" xlink:href="#hd"/>
<path d="M504.23 78.01v27.00" stroke="currentColor" fill="none"/>
<path fill="currentColor"
	d="M504.23 105.01c0.9 -3.7 9.1 -6.4 6 -12.4
	c1 5.4 -4.2 8.4 -6 8.4
M504.23 99.61c0.9 -3.7 9.1 -6.4 6 -12.4
	c1 5.4 -4.2 8.4 -6 8.4
"/>
<defs>
<use id="stclef" transform="translate(0,-0.6) scale(0.037)"
	xlink:href="#utclef"/>
</defs>
<use x="524.23" y="117.01" xlink:href="#stclef"/>
<path fill="currentColor"
	d="M560.83 86.81l101.00 0.00v3.20l-101.00 -0.00"/>
<path fill="currentColor"
	d="M577.93 91.81l6.00 0.00v3.20l-6.00 -0.00"/>
<path fill="currentColor"
	d="M618.73 91.81l6.00 0.00v3.20l-6.00 -0.00"/>
<path fill="currentColor"
	d="M655.53 91.81l6.00 0.00v3.20l-6.00 -0.00"/>
<use x="557.73" y="111.01" xlink:href="#hd"/>
<circle fill="currentColor" cx="565.73" cy="108.01" r="1.2"/>
<use x="548.73" y="111.01" xlink:href="#ft0"/>
<path d="M561.23 111.01v-23.20" stroke="currentColor" fill="none"/>
<use x="580.43" y="114.01" xlink:href="#hd"/>
<path d="M583.93 114.01v-26.20" stroke="currentColor" fill="none"/>
<use x="598.43" y="111.01" xlink:href="#hd"/>
<circle fill="currentColor" cx="606.43" cy="108.01" r="1.2"/>
<use x="589.43" y="111.01" xlink:href="#nt0"/>
<path d="M601.93 111.01v-23.20" stroke="currentColor" fill="none"/>
<use x="621.23" y="114.01" xlink:href="#hd"/>
<path d="M624.73 114.01v-26.20" stroke="currentColor" fill="none"/>
<use x="635.23" y="108.01" xlink:href="#hd"/>
<circle fill="currentColor" cx="643.23" cy="108.01" r="1.2"/>
<path d="M638.73 108.01v-20.20" stroke="currentColor" fill="none"/>
<use x="658.03" y="111.01" xlink:href="#hd"/>
<path d="M661.53 111.01v-23.20" stroke="currentColor" fill="none"/>
<use x="673.33" y="114.01" xlink:href="#hd"/>
<path d="M676.83 114.01v-20.00" stroke="currentColor" fill="none"/>
<path fill="currentColor"
	d="	M676.83 94.01c0.6 5.6 9.6 9 5.6 18.4
	c1.6 -6 -1.3 -11.6 -5.6 -12.8
"/>
</g>
</svg>
