<?xml version="1.0" standalone="no"?>
<!DOCTYPE svg PUBLIC "-//W3C//DTD SVG 1.1//EN"
	"http://www.w3.org/Graphics/SVG/1.1/DTD/svg11.dtd">
<svg xmlns="http://www.w3.org/2000/svg" version="1.1"
	xmlns:xlink="http://www.w3.org/1999/xlink"
	xml:space='preserve' color="black"
	width="7.38in" height="1.34in" viewBox="0 0 531 97">
<title>1700.abc (1700) tune 1</title>
<!-- Creator: abcm2ps-7.8.14 -->
<!-- CreationDate: Mar 13, 2016 18:53 -->
<!-- CommandLine: -qxg 1700.abc -O ../svgs/1700.svg -->
<g transform="scale(0.750)" stroke-width="0.70" font-family="Times" font-size="20.00">
<text x="354.13" y="21.67" text-anchor="middle">1700.  Symphonic Variations, Pft., 2nd. Theme</text>
</g>
<g transform="scale(0.750)" stroke-width="0.70" font-family="Times" font-size="14.00" font-style="italic">
<text x="694.93" y="45.34" text-anchor="end">Cesar Franck</text>
</g>
<g transform="scale(0.525)" stroke-width="0.70" font-family="Times" font-size="14.00" font-style="italic">
<defs>
<ellipse id="hd" rx="4.1" ry="2.9"
	transform="rotate(-20)" fill="currentColor"/>
</defs>
<use x="122.76" y="94.16" xlink:href="#hd"/>
<path d="M126.26 94.16v-20.00" stroke="currentColor" fill="none"/>
</g>
<g transform="scale(0.750)" stroke-width="0.70" font-family="Times" font-size="15.00" font-weight="bold">
<text x="93.63" y="68.01">= 120</text>
<path stroke="currentColor" fill="none"
	d="M151.53 106.01v-24.00"/>
<path stroke="currentColor" fill="none"
	d="M230.73 106.01v-24.00"/>
<path stroke="currentColor" fill="none"
	d="M311.53 106.01v-24.00"/>
<path stroke="currentColor" fill="none"
	d="M397.83 106.01v-24.00"/>
<path stroke="currentColor" fill="none"
	d="M476.53 106.01v-24.00"/>
<path stroke="currentColor" fill="none"
	d="M555.33 106.01v-24.00"/>
<path stroke="currentColor" fill="none"
	d="M636.13 106.01v-24.00"/>
<path stroke="currentColor" fill="none"
	d="M13.33 106.01h681.60m-681.60 -6h681.60m-681.60 -6h681.60m-681.60 -6h681.60m-681.60 -6h681.60"/>
<defs>
<path id="utclef" fill="currentColor" d="m-50 -90
	c-72 -41 -72 -158 52 -188
	c150 -10 220 188 90 256
	c-114 52 -275 0 -293 -136
	c-15 -181 93 -229 220 -334
	c88 -87 79 -133 62 -210
	c-51 33 -94 105 -89 186
	c17 267 36 374 49 574
	c6 96 -19 134 -77 135
	c-80 1 -126 -93 -61 -133
	c85 -41 133 101 31 105
	c23 17 92 37 90 -92
	c-10 -223 -39 -342 -50 -617
	c0 -90 0 -162 96 -232
	c56 72 63 230 22 289
	c-74 106 -257 168 -255 316
	c9 153 148 185 252 133
	c86 -65 29 -192 -80 -176
	c-71 12 -105 67 -59 124"/>
<use id="tclef" transform="scale(0.045)"
	xlink:href="#utclef"/>
</defs>
<use x="25.33" y="106.01" xlink:href="#tclef"/>
<defs>
<path id="usharp" fill="currentColor" d="
	m136 -702
	v890
	h32
	v-890
	m128 840
	h32
	v-888
	h-32
	m-232 286
	v116
	l338 -96
	v-116
	m-338 442
	v116
	l338 -98
	v-114"/>
<use id="sh0" transform="translate(-4,5) scale(0.018)"
	xlink:href="#usharp"/>
</defs>
<use x="40.33" y="82.01" xlink:href="#sh0"/>
<use x="45.83" y="91.01" xlink:href="#sh0"/>
<use x="51.33" y="79.01" xlink:href="#sh0"/>
<g font-family="serif" font-size="16" font-weight="bold" font-style="normal"
	transform="translate(67.33,106.01) scale(1.2,1)">
	<text y="-1" text-anchor="middle">4</text>
	<text y="-13" text-anchor="middle">3</text>
</g>
<use x="85.33" y="100.01" xlink:href="#hd"/>
<path d="M88.83 100.01v-20.00" stroke="currentColor" fill="none"/>
<use x="108.83" y="97.01" xlink:href="#hd"/>
<path d="M112.33 97.01v-20.00" stroke="currentColor" fill="none"/>
<defs>
<path id="r4" fill="currentColor" d="m-1 -8.5
	l3.6 5.1 -2.1 5.2 2.2 4.3
	c-2.6 -2.3 -5.1 0 -2.4 2.6
	c-4.8 -3 -1.5 -6.9 1.4 -4.1
	l-3.1 -4.5 1.9 -5.1 -1.5 -3.5"/>
</defs>
<use x="132.33" y="94.01" xlink:href="#r4"/>
<use x="164.03" y="103.01" xlink:href="#hd"/>
<path d="M167.53 103.01v-20.00" stroke="currentColor" fill="none"/>
<use x="188.03" y="91.01" xlink:href="#hd"/>
<path d="M184.53 91.01v20.00" stroke="currentColor" fill="none"/>
<use x="211.53" y="94.01" xlink:href="#r4"/>
<use x="243.23" y="97.01" xlink:href="#hd"/>
<path d="M246.73 97.01v-20.00" stroke="currentColor" fill="none"/>
<use x="266.73" y="100.01" xlink:href="#hd"/>
<circle fill="currentColor" cx="274.73" cy="97.01" r="1.2"/>
<path d="M270.23 100.01v-20.00" stroke="currentColor" fill="none"/>
<use x="294.53" y="103.01" xlink:href="#hd"/>
<path d="M298.03 103.01v-20.00" stroke="currentColor" fill="none"/>
<path fill="currentColor"
	d="	M298.03 83.01c0.6 5.6 9.6 9 5.6 18.4
	c1.6 -6 -1.3 -11.6 -5.6 -12.8
"/>
<use x="330.03" y="103.01" xlink:href="#hd"/>
<defs>
<path id="unat" fill="currentColor" d="
	m96 -750
	h-32
	v716
	l32 -8
	l182 -54
	v282
	h32
	v-706
	l-34 10
	l-180 50
	v-290
	m0 592
	v-190
	l182 -52
	v188"/>
<use id="nt0" transform="translate(-3,5) scale(0.018)"
	xlink:href="#unat"/>
</defs>
<use x="321.03" y="103.01" xlink:href="#nt0"/>
<path d="M333.53 103.01v-20.00" stroke="currentColor" fill="none"/>
<use x="355.13" y="103.01" xlink:href="#hd"/>
<use x="346.13" y="103.01" xlink:href="#sh0"/>
<path d="M358.63 103.01v-20.00" stroke="currentColor" fill="none"/>
<use x="378.63" y="94.01" xlink:href="#r4"/>
<use x="410.33" y="91.01" xlink:href="#hd"/>
<path d="M406.83 91.01v20.00" stroke="currentColor" fill="none"/>
<use x="433.83" y="85.01" xlink:href="#hd"/>
<path d="M430.33 85.01v20.00" stroke="currentColor" fill="none"/>
<use x="457.33" y="88.01" xlink:href="#hd"/>
<path d="M453.83 88.01v20.00" stroke="currentColor" fill="none"/>
<use x="489.03" y="91.01" xlink:href="#hd"/>
<path d="M485.53 91.01v20.00" stroke="currentColor" fill="none"/>
<use x="512.53" y="91.01" xlink:href="#hd"/>
<path d="M509.03 91.01v20.00" stroke="currentColor" fill="none"/>
<use x="536.13" y="94.01" xlink:href="#r4"/>
<use x="567.83" y="97.01" xlink:href="#hd"/>
<path d="M571.33 97.01v-20.00" stroke="currentColor" fill="none"/>
<use x="591.33" y="94.01" xlink:href="#hd"/>
<circle fill="currentColor" cx="599.33" cy="91.01" r="1.2"/>
<path d="M594.83 94.01v-20.00" stroke="currentColor" fill="none"/>
<use x="619.13" y="97.01" xlink:href="#hd"/>
<path d="M622.63 97.01v-20.00" stroke="currentColor" fill="none"/>
<path fill="currentColor"
	d="	M622.63 77.01c0.6 5.6 9.6 9 5.6 18.4
	c1.6 -6 -1.3 -11.6 -5.6 -12.8
"/>
<use x="648.63" y="94.01" xlink:href="#hd"/>
<path d="M645.13 94.01v20.00" stroke="currentColor" fill="none"/>
<use x="672.13" y="91.01" xlink:href="#hd"/>
<path d="M668.63 91.01v20.00" stroke="currentColor" fill="none"/>
</g>
</svg>
