<?xml version="1.0" standalone="no"?>
<!DOCTYPE svg PUBLIC "-//W3C//DTD SVG 1.1//EN"
	"http://www.w3.org/Graphics/SVG/1.1/DTD/svg11.dtd">
<svg xmlns="http://www.w3.org/2000/svg" version="1.1"
	xmlns:xlink="http://www.w3.org/1999/xlink"
	xml:space='preserve' color="black"
	width="7.38in" height="1.34in" viewBox="0 0 531 97">
<title>1721.abc (1721) tune 1</title>
<!-- Creator: abcm2ps-7.8.14 -->
<!-- CreationDate: Mar 13, 2016 18:53 -->
<!-- CommandLine: -qxg 1721.abc -O ../svgs/1721.svg -->
<g transform="scale(0.750)" stroke-width="0.70" font-family="Times" font-size="20.00">
<text x="354.13" y="21.67" text-anchor="middle">1721.  Concerto No. 2 in G, 1st. Mvt. - 1st. Theme</text>
</g>
<g transform="scale(0.750)" stroke-width="0.70" font-family="Times" font-size="14.00" font-style="italic">
<text x="694.93" y="45.34" text-anchor="end">King of Prussia Frederick II</text>
</g>
<g transform="scale(0.525)" stroke-width="0.70" font-family="Times" font-size="14.00" font-style="italic">
<defs>
<ellipse id="hd" rx="4.1" ry="2.9"
	transform="rotate(-20)" fill="currentColor"/>
</defs>
<use x="107.04" y="94.16" xlink:href="#hd"/>
<path d="M110.54 94.16v-20.00" stroke="currentColor" fill="none"/>
</g>
<g transform="scale(0.750)" stroke-width="0.70" font-family="Times" font-size="15.00" font-weight="bold">
<text x="82.63" y="68.01">= 120</text>
<path stroke="currentColor" fill="none"
	d="M256.23 106.01v-24.00"/>
<path stroke="currentColor" fill="none"
	d="M482.13 106.01v-24.00"/>
<path stroke="currentColor" fill="none"
	d="M13.33 106.01h681.60m-681.60 -6h681.60m-681.60 -6h681.60m-681.60 -6h681.60m-681.60 -6h681.60"/>
<defs>
<path id="utclef" fill="currentColor" d="m-50 -90
	c-72 -41 -72 -158 52 -188
	c150 -10 220 188 90 256
	c-114 52 -275 0 -293 -136
	c-15 -181 93 -229 220 -334
	c88 -87 79 -133 62 -210
	c-51 33 -94 105 -89 186
	c17 267 36 374 49 574
	c6 96 -19 134 -77 135
	c-80 1 -126 -93 -61 -133
	c85 -41 133 101 31 105
	c23 17 92 37 90 -92
	c-10 -223 -39 -342 -50 -617
	c0 -90 0 -162 96 -232
	c56 72 63 230 22 289
	c-74 106 -257 168 -255 316
	c9 153 148 185 252 133
	c86 -65 29 -192 -80 -176
	c-71 12 -105 67 -59 124"/>
<use id="tclef" transform="scale(0.045)"
	xlink:href="#utclef"/>
</defs>
<use x="25.33" y="106.01" xlink:href="#tclef"/>
<defs>
<path id="usharp" fill="currentColor" d="
	m136 -702
	v890
	h32
	v-890
	m128 840
	h32
	v-888
	h-32
	m-232 286
	v116
	l338 -96
	v-116
	m-338 442
	v116
	l338 -98
	v-114"/>
<use id="sh0" transform="translate(-4,5) scale(0.018)"
	xlink:href="#usharp"/>
</defs>
<use x="40.33" y="82.01" xlink:href="#sh0"/>
<g font-family="serif" font-size="16" font-weight="bold" font-style="normal"
	transform="translate(56.33,106.01) scale(1.2,1)">
	<text y="-1" text-anchor="middle">4</text>
	<text y="-13" text-anchor="middle">4</text>
</g>
<use x="74.33" y="100.01" xlink:href="#hd"/>
<path d="M77.83 100.01v-20.00" stroke="currentColor" fill="none"/>
<use x="112.63" y="88.01" xlink:href="#hd"/>
<path d="M109.13 88.01v20.00" stroke="currentColor" fill="none"/>
<use x="150.83" y="79.01" xlink:href="#hd"/>
<path d="M147.33 79.01v20.00" stroke="currentColor" fill="none"/>
<defs>
<path id="r8e" fill="currentColor" d="m 0 0
	c-1.5 1.5 -2.4 2 -3.6 2
	c2.4 -2.8 -2.8 -4 -2.8 -1.2
	c0 2.7 4.3 2.4 5.9 0.6"/>
<g id="r16">
	<path d="m3.3 -4l-4 15.6" stroke="currentColor" fill="none"/>
	<use x="3.4" y="-4" xlink:href="#r8e"/>
	<use x="1.9" y="2" xlink:href="#r8e"/>
</g>
</defs>
<use x="185.33" y="94.01" xlink:href="#r16"/>
<use x="204.43" y="88.01" xlink:href="#hd"/>
<path d="M200.93 88.01v22.00" stroke="currentColor" fill="none"/>
<path fill="currentColor"
	d="M200.93 110.01c0.9 -3.7 9.1 -6.4 6 -12.4
	c1 5.4 -4.2 8.4 -6 8.4
M200.93 104.61c0.9 -3.7 9.1 -6.4 6 -12.4
	c1 5.4 -4.2 8.4 -6 8.4
"/>
<path fill="currentColor"
	d="M219.73 107.21l17.90 -2.30v-3.20l-17.90 2.30"/>
<path fill="currentColor"
	d="M220.13 102.21l17.30 -2.20v-3.20l-17.30 2.20"/>
<use x="223.63" y="85.01" xlink:href="#hd"/>
<path d="M220.13 85.01v21.20" stroke="currentColor" fill="none"/>
<use x="240.83" y="82.01" xlink:href="#hd"/>
<path d="M237.33 82.01v22.00" stroke="currentColor" fill="none"/>
<use x="269.83" y="79.01" xlink:href="#hd"/>
<path d="M266.33 79.01v20.00" stroke="currentColor" fill="none"/>
<path fill="currentColor"
	d="M266.33 99.01c0.6 -5.6 9.6 -9 5.6 -18.4
	c1.6 6 -1.3 11.6 -5.6 12.8
"/>
<use x="296.93" y="88.01" xlink:href="#hd"/>
<path d="M293.43 88.01v20.00" stroke="currentColor" fill="none"/>
<path fill="currentColor"
	d="M293.43 108.01c0.6 -5.6 9.6 -9 5.6 -18.4
	c1.6 6 -1.3 11.6 -5.6 12.8
"/>
<use x="324.03" y="88.01" xlink:href="#hd"/>
<path d="M320.53 88.01v20.00" stroke="currentColor" fill="none"/>
<path fill="currentColor"
	d="M320.53 108.01c0.6 -5.6 9.6 -9 5.6 -18.4
	c1.6 6 -1.3 11.6 -5.6 12.8
"/>
<use x="351.03" y="91.01" xlink:href="#hd"/>
<path d="M347.53 91.01v20.00" stroke="currentColor" fill="none"/>
<path fill="currentColor"
	d="M347.53 111.01c0.6 -5.6 9.6 -9 5.6 -18.4
	c1.6 6 -1.3 11.6 -5.6 12.8
"/>
<use x="378.13" y="94.01" xlink:href="#hd"/>
<path d="M374.63 94.01v20.00" stroke="currentColor" fill="none"/>
<path fill="currentColor"
	d="M374.63 114.01c0.6 -5.6 9.6 -9 5.6 -18.4
	c1.6 6 -1.3 11.6 -5.6 12.8
"/>
<path fill="currentColor"
	d="M405.73 80.71l28.50 5.60v3.20l-28.50 -5.60"/>
<path fill="currentColor"
	d="M427.83 90.11l6.00 1.20v3.20l-6.00 -1.20"/>
<use x="402.53" y="100.01" xlink:href="#hd"/>
<circle fill="currentColor" cx="410.53" cy="97.01" r="1.2"/>
<path d="M406.03 100.01v-18.20" stroke="currentColor" fill="none"/>
<use x="430.33" y="109.01" xlink:href="#hd"/>
<path d="M433.83 109.01v-21.80" stroke="currentColor" fill="none"/>
<path fill="currentColor"
	d="M452.63 83.11l17.90 -2.30v3.20l-17.90 2.30"/>
<path fill="currentColor"
	d="M453.03 88.01l17.30 -2.20v3.20l-17.30 2.20"/>
<use x="449.53" y="106.01" xlink:href="#hd"/>
<path d="M453.03 106.01v-22.00" stroke="currentColor" fill="none"/>
<use x="466.73" y="103.01" xlink:href="#hd"/>
<path d="M470.23 103.01v-21.20" stroke="currentColor" fill="none"/>
<use x="495.73" y="100.01" xlink:href="#hd"/>
<path d="M499.23 100.01v-20.00" stroke="currentColor" fill="none"/>
<path fill="currentColor"
	d="	M499.23 80.01c0.6 5.6 9.6 9 5.6 18.4
	c1.6 -6 -1.3 -11.6 -5.6 -12.8
"/>
<use x="522.83" y="109.01" xlink:href="#hd"/>
<path d="M526.33 109.01v-20.00" stroke="currentColor" fill="none"/>
<path fill="currentColor"
	d="	M526.33 89.01c0.6 5.6 9.6 9 5.6 18.4
	c1.6 -6 -1.3 -11.6 -5.6 -12.8
"/>
<use x="549.93" y="109.01" xlink:href="#hd"/>
<path d="M553.43 109.01v-20.00" stroke="currentColor" fill="none"/>
<path fill="currentColor"
	d="	M553.43 89.01c0.6 5.6 9.6 9 5.6 18.4
	c1.6 -6 -1.3 -11.6 -5.6 -12.8
"/>
<defs>
<path id="hl" stroke="currentColor" d="m-6 0h12"/>
</defs>
<use x="577.13" y="112.01" xlink:href="#hl"/>
<use x="577.13" y="112.01" xlink:href="#hd"/>
<path d="M580.63 112.01v-20.00" stroke="currentColor" fill="none"/>
<path fill="currentColor"
	d="	M580.63 92.01c0.6 5.6 9.6 9 5.6 18.4
	c1.6 -6 -1.3 -11.6 -5.6 -12.8
"/>
<use x="604.23" y="112.01" xlink:href="#hl"/>
<use x="604.23" y="115.01" xlink:href="#hd"/>
<path d="M607.73 115.01v-21.00" stroke="currentColor" fill="none"/>
<path fill="currentColor"
	d="	M607.73 94.01c0.6 5.6 9.6 9 5.6 18.4
	c1.6 -6 -1.3 -11.6 -5.6 -12.8
"/>
<path fill="currentColor"
	d="M634.53 92.11l17.90 -2.30v3.20l-17.90 2.30"/>
<path fill="currentColor"
	d="M634.93 97.01l17.30 -2.20v3.20l-17.30 2.20"/>
<use x="631.43" y="112.01" xlink:href="#hl"/>
<use x="631.43" y="115.01" xlink:href="#hd"/>
<path d="M634.93 115.01v-22.00" stroke="currentColor" fill="none"/>
<use x="648.63" y="112.01" xlink:href="#hl"/>
<use x="648.63" y="112.01" xlink:href="#hd"/>
<path d="M652.13 112.01v-21.20" stroke="currentColor" fill="none"/>
<use x="667.83" y="109.01" xlink:href="#hd"/>
<path d="M671.33 109.01v-20.00" stroke="currentColor" fill="none"/>
<path fill="currentColor"
	d="	M671.33 89.01c0.6 5.6 9.6 9 5.6 18.4
	c1.6 -6 -1.3 -11.6 -5.6 -12.8
"/>
</g>
</svg>
