<?xml version="1.0" standalone="no"?>
<!DOCTYPE svg PUBLIC "-//W3C//DTD SVG 1.1//EN"
	"http://www.w3.org/Graphics/SVG/1.1/DTD/svg11.dtd">
<svg xmlns="http://www.w3.org/2000/svg" version="1.1"
	xmlns:xlink="http://www.w3.org/1999/xlink"
	xml:space='preserve' color="black"
	width="7.38in" height="1.34in" viewBox="0 0 531 97">
<title>1726.abc (1726) tune 1</title>
<!-- Creator: abcm2ps-7.8.14 -->
<!-- CreationDate: Mar 13, 2016 18:53 -->
<!-- CommandLine: -qxg 1726.abc -O ../svgs/1726.svg -->
<g transform="scale(0.750)" stroke-width="0.70" font-family="Times" font-size="20.00">
<text x="354.13" y="21.67" text-anchor="middle">1726.  Capriccio on La Girolometa, Harpsi.</text>
</g>
<g transform="scale(0.750)" stroke-width="0.70" font-family="Times" font-size="14.00" font-style="italic">
<text x="694.93" y="45.34" text-anchor="end">Girolamo Frescobaldi</text>
</g>
<g transform="scale(0.525)" stroke-width="0.70" font-family="Times" font-size="14.00" font-style="italic">
<defs>
<ellipse id="hd" rx="4.1" ry="2.9"
	transform="rotate(-20)" fill="currentColor"/>
</defs>
<use x="89.19" y="94.16" xlink:href="#hd"/>
<path d="M92.69 94.16v-20.00" stroke="currentColor" fill="none"/>
</g>
<g transform="scale(0.750)" stroke-width="0.70" font-family="Times" font-size="15.00" font-weight="bold">
<text x="70.13" y="68.01">= 120</text>
<path stroke="currentColor" fill="none"
	d="M269.83 106.01v-24.00"/>
<path stroke="currentColor" fill="none"
	d="M525.53 106.01v-24.00"/>
<path stroke="currentColor" fill="none"
	d="M13.33 106.01h681.60m-681.60 -6h681.60m-681.60 -6h681.60m-681.60 -6h681.60m-681.60 -6h681.60"/>
<defs>
<path id="utclef" fill="currentColor" d="m-50 -90
	c-72 -41 -72 -158 52 -188
	c150 -10 220 188 90 256
	c-114 52 -275 0 -293 -136
	c-15 -181 93 -229 220 -334
	c88 -87 79 -133 62 -210
	c-51 33 -94 105 -89 186
	c17 267 36 374 49 574
	c6 96 -19 134 -77 135
	c-80 1 -126 -93 -61 -133
	c85 -41 133 101 31 105
	c23 17 92 37 90 -92
	c-10 -223 -39 -342 -50 -617
	c0 -90 0 -162 96 -232
	c56 72 63 230 22 289
	c-74 106 -257 168 -255 316
	c9 153 148 185 252 133
	c86 -65 29 -192 -80 -176
	c-71 12 -105 67 -59 124"/>
<use id="tclef" transform="scale(0.045)"
	xlink:href="#utclef"/>
</defs>
<use x="25.33" y="106.01" xlink:href="#tclef"/>
<g font-family="serif" font-size="16" font-weight="bold" font-style="normal"
	transform="translate(43.83,106.01) scale(1.2,1)">
	<text y="-1" text-anchor="middle">4</text>
	<text y="-13" text-anchor="middle">4</text>
</g>
<use x="61.83" y="106.01" xlink:href="#hd"/>
<circle fill="currentColor" cx="69.83" cy="103.01" r="1.2"/>
<path d="M65.33 106.01v-20.00" stroke="currentColor" fill="none"/>
<use x="119.33" y="103.01" xlink:href="#hd"/>
<defs>
<path id="usharp" fill="currentColor" d="
	m136 -702
	v890
	h32
	v-890
	m128 840
	h32
	v-888
	h-32
	m-232 286
	v116
	l338 -96
	v-116
	m-338 442
	v116
	l338 -98
	v-114"/>
<use id="sh0" transform="translate(-4,5) scale(0.018)"
	xlink:href="#usharp"/>
</defs>
<use x="110.33" y="103.01" xlink:href="#sh0"/>
<path d="M122.83 103.01v-20.00" stroke="currentColor" fill="none"/>
<path fill="currentColor"
	d="	M122.83 83.01c0.6 5.6 9.6 9 5.6 18.4
	c1.6 -6 -1.3 -11.6 -5.6 -12.8
"/>
<use x="155.03" y="100.01" xlink:href="#hd"/>
<path d="M158.53 100.01v-20.00" stroke="currentColor" fill="none"/>
<use x="205.53" y="106.01" xlink:href="#hd"/>
<path d="M209.03 106.01v-20.00" stroke="currentColor" fill="none"/>
<path fill="currentColor"
	d="	M209.03 86.01c0.6 5.6 9.6 9 5.6 18.4
	c1.6 -6 -1.3 -11.6 -5.6 -12.8
"/>
<use x="241.23" y="100.01" xlink:href="#hd"/>
<path d="M244.73 100.01v-20.00" stroke="currentColor" fill="none"/>
<path fill="currentColor"
	d="	M244.73 80.01c0.6 5.6 9.6 9 5.6 18.4
	c1.6 -6 -1.3 -11.6 -5.6 -12.8
"/>
<use x="288.83" y="103.01" xlink:href="#hd"/>
<defs>
<path id="unat" fill="currentColor" d="
	m96 -750
	h-32
	v716
	l32 -8
	l182 -54
	v282
	h32
	v-706
	l-34 10
	l-180 50
	v-290
	m0 592
	v-190
	l182 -52
	v188"/>
<use id="nt0" transform="translate(-3,5) scale(0.018)"
	xlink:href="#unat"/>
</defs>
<use x="279.83" y="103.01" xlink:href="#nt0"/>
<path d="M292.33 103.01v-20.00" stroke="currentColor" fill="none"/>
<use x="339.33" y="106.01" xlink:href="#hd"/>
<path d="M342.83 106.01v-20.00" stroke="currentColor" fill="none"/>
<use x="389.83" y="109.01" xlink:href="#hd"/>
<path d="M393.33 109.01v-20.00" stroke="currentColor" fill="none"/>
<path fill="currentColor"
	d="	M393.33 89.01c0.6 5.6 9.6 9 5.6 18.4
	c1.6 -6 -1.3 -11.6 -5.6 -12.8
"/>
<defs>
<path id="hl" stroke="currentColor" d="m-6 0h12"/>
</defs>
<use x="425.53" y="112.01" xlink:href="#hl"/>
<use x="425.53" y="112.01" xlink:href="#hd"/>
<path d="M429.03 112.01v-20.00" stroke="currentColor" fill="none"/>
<path fill="currentColor"
	d="	M429.03 92.01c0.6 5.6 9.6 9 5.6 18.4
	c1.6 -6 -1.3 -11.6 -5.6 -12.8
"/>
<use x="461.23" y="100.01" xlink:href="#hd"/>
<path d="M464.73 100.01v-20.00" stroke="currentColor" fill="none"/>
<path fill="currentColor"
	d="	M464.73 80.01c0.6 5.6 9.6 9 5.6 18.4
	c1.6 -6 -1.3 -11.6 -5.6 -12.8
"/>
<use x="497.03" y="103.01" xlink:href="#hd"/>
<path d="M500.53 103.01v-20.00" stroke="currentColor" fill="none"/>
<path fill="currentColor"
	d="	M500.53 83.01c0.6 5.6 9.6 9 5.6 18.4
	c1.6 -6 -1.3 -11.6 -5.6 -12.8
"/>
<use x="543.43" y="106.01" xlink:href="#hd"/>
<path d="M546.93 106.01v-20.00" stroke="currentColor" fill="none"/>
<use x="593.93" y="109.01" xlink:href="#hd"/>
<path d="M597.43 109.01v-20.00" stroke="currentColor" fill="none"/>
<use x="644.43" y="112.01" xlink:href="#hl"/>
<use x="644.43" y="112.01" xlink:href="#hd"/>
<path d="M647.93 112.01v-20.00" stroke="currentColor" fill="none"/>
</g>
</svg>
