<?xml version="1.0" standalone="no"?>
<!DOCTYPE svg PUBLIC "-//W3C//DTD SVG 1.1//EN"
	"http://www.w3.org/Graphics/SVG/1.1/DTD/svg11.dtd">
<svg xmlns="http://www.w3.org/2000/svg" version="1.1"
	xmlns:xlink="http://www.w3.org/1999/xlink"
	xml:space='preserve' color="black"
	width="7.38in" height="1.34in" viewBox="0 0 531 97">
<title>1742.abc (1742) tune 1</title>
<!-- Creator: abcm2ps-7.8.14 -->
<!-- CreationDate: Mar 13, 2016 18:53 -->
<!-- CommandLine: -qxg 1742.abc -O ../svgs/1742.svg -->
<g transform="scale(0.750)" stroke-width="0.70" font-family="Times" font-size="20.00">
<text x="354.13" y="21.67" text-anchor="middle">1742.  Trio, Op. 42, 4th. Mvt. - Theme A</text>
</g>
<g transform="scale(0.750)" stroke-width="0.70" font-family="Times" font-size="14.00" font-style="italic">
<text x="694.93" y="45.34" text-anchor="end">Niels Gade</text>
</g>
<g transform="scale(0.525)" stroke-width="0.70" font-family="Times" font-size="14.00" font-style="italic">
<defs>
<ellipse id="hd" rx="4.1" ry="2.9"
	transform="rotate(-20)" fill="currentColor"/>
</defs>
<use x="107.04" y="94.16" xlink:href="#hd"/>
<path d="M110.54 94.16v-20.00" stroke="currentColor" fill="none"/>
</g>
<g transform="scale(0.750)" stroke-width="0.70" font-family="Times" font-size="15.00" font-weight="bold">
<text x="82.63" y="68.01">= 120</text>
<path stroke="currentColor" fill="none"
	d="M244.13 106.01v-24.00"/>
<path stroke="currentColor" fill="none"
	d="M428.63 106.01v-24.00"/>
<path stroke="currentColor" fill="none"
	d="M638.53 106.01v-24.00"/>
<path stroke="currentColor" fill="none"
	d="M13.33 106.01h681.60m-681.60 -6h681.60m-681.60 -6h681.60m-681.60 -6h681.60m-681.60 -6h681.60"/>
<defs>
<path id="utclef" fill="currentColor" d="m-50 -90
	c-72 -41 -72 -158 52 -188
	c150 -10 220 188 90 256
	c-114 52 -275 0 -293 -136
	c-15 -181 93 -229 220 -334
	c88 -87 79 -133 62 -210
	c-51 33 -94 105 -89 186
	c17 267 36 374 49 574
	c6 96 -19 134 -77 135
	c-80 1 -126 -93 -61 -133
	c85 -41 133 101 31 105
	c23 17 92 37 90 -92
	c-10 -223 -39 -342 -50 -617
	c0 -90 0 -162 96 -232
	c56 72 63 230 22 289
	c-74 106 -257 168 -255 316
	c9 153 148 185 252 133
	c86 -65 29 -192 -80 -176
	c-71 12 -105 67 -59 124"/>
<use id="tclef" transform="scale(0.045)"
	xlink:href="#utclef"/>
</defs>
<use x="25.33" y="106.01" xlink:href="#tclef"/>
<defs>
<path id="uflat" fill="currentColor" d="
	m100 -746
	h32
	v734
	l-32 4
	m32 -332
	c46 -72 152 -90 208 -20
	c100 110 -120 326 -208 348
	m0 -28
	c54 0 200 -206 130 -290
	c-50 -60 -130 -4 -130 34"/>
<use id="ft0" transform="translate(-3.5,3.5) scale(0.018)"
	xlink:href="#uflat"/>
</defs>
<use x="40.33" y="94.01" xlink:href="#ft0"/>
<g font-family="serif" font-size="16" font-weight="bold" font-style="normal"
	transform="translate(56.33,106.01) scale(1.2,1)">
	<text y="-1" text-anchor="middle">2</text>
	<text y="-13" text-anchor="middle">2</text>
</g>
<defs>
<path id="hl" stroke="currentColor" d="m-6 0h12"/>
</defs>
<use x="74.33" y="112.01" xlink:href="#hl"/>
<use x="74.33" y="112.01" xlink:href="#hd"/>
<circle fill="currentColor" cx="82.33" cy="109.01" r="1.2"/>
<path d="M77.83 112.01v-20.00" stroke="currentColor" fill="none"/>
<path fill="currentColor"
	d="M124.93 87.81l19.40 0.00v3.20l-19.40 -0.00"/>
<path fill="currentColor"
	d="M125.23 92.81l18.70 0.00v3.20l-18.70 -0.00"/>
<use x="121.73" y="112.01" xlink:href="#hl"/>
<use x="121.73" y="112.01" xlink:href="#hd"/>
<path d="M125.23 112.01v-23.20" stroke="currentColor" fill="none"/>
<use x="140.43" y="112.01" xlink:href="#hl"/>
<use x="140.43" y="112.01" xlink:href="#hd"/>
<path d="M143.93 112.01v-23.20" stroke="currentColor" fill="none"/>
<use x="161.33" y="106.01" xlink:href="#hd"/>
<circle fill="currentColor" cx="169.33" cy="103.01" r="1.2"/>
<path d="M164.83 106.01v-20.00" stroke="currentColor" fill="none"/>
<path fill="currentColor"
	d="M211.83 81.81l19.40 0.00v3.20l-19.40 -0.00"/>
<path fill="currentColor"
	d="M212.23 86.81l18.70 0.00v3.20l-18.70 -0.00"/>
<use x="208.73" y="106.01" xlink:href="#hd"/>
<path d="M212.23 106.01v-23.20" stroke="currentColor" fill="none"/>
<use x="227.43" y="106.01" xlink:href="#hd"/>
<path d="M230.93 106.01v-23.20" stroke="currentColor" fill="none"/>
<use x="258.83" y="97.01" xlink:href="#hd"/>
<circle fill="currentColor" cx="266.83" cy="97.01" r="1.2"/>
<path d="M262.33 97.01v-20.00" stroke="currentColor" fill="none"/>
<path fill="currentColor"
	d="M309.43 74.01l19.40 0.00v3.20l-19.40 -0.00"/>
<path fill="currentColor"
	d="M309.73 79.01l18.70 0.00v3.20l-18.70 -0.00"/>
<use x="306.23" y="97.01" xlink:href="#hd"/>
<path d="M309.73 97.01v-22.00" stroke="currentColor" fill="none"/>
<use x="324.93" y="97.01" xlink:href="#hd"/>
<path d="M328.43 97.01v-22.00" stroke="currentColor" fill="none"/>
<use x="345.83" y="91.01" xlink:href="#hd"/>
<circle fill="currentColor" cx="353.83" cy="91.01" r="1.2"/>
<path d="M342.33 91.01v20.00" stroke="currentColor" fill="none"/>
<path fill="currentColor"
	d="M389.33 113.31l19.40 -3.80v-3.20l-19.40 3.80"/>
<path fill="currentColor"
	d="M389.73 108.21l18.70 -3.70v-3.20l-18.70 3.70"/>
<use x="393.23" y="91.01" xlink:href="#hd"/>
<path d="M389.73 91.01v21.20" stroke="currentColor" fill="none"/>
<use x="411.93" y="85.01" xlink:href="#hd"/>
<path d="M408.43 85.01v23.50" stroke="currentColor" fill="none"/>
<use x="443.33" y="79.01" xlink:href="#hd"/>
<path d="M439.83 79.01v20.00" stroke="currentColor" fill="none"/>
<use x="484.93" y="76.01" xlink:href="#hl"/>
<use x="484.93" y="76.01" xlink:href="#hd"/>
<path d="M481.43 76.01v20.00" stroke="currentColor" fill="none"/>
<use x="526.63" y="76.01" xlink:href="#hl"/>
<use x="526.63" y="73.01" xlink:href="#hd"/>
<path d="M523.13 73.01v21.00" stroke="currentColor" fill="none"/>
<path fill="currentColor"
	d="M523.13 94.01c0.6 -5.6 9.6 -9 5.6 -18.4
	c1.6 6 -1.3 11.6 -5.6 12.8
"/>
<use x="556.03" y="79.01" xlink:href="#hd"/>
<use x="547.03" y="79.01" xlink:href="#ft0"/>
<path d="M552.53 79.01v20.00" stroke="currentColor" fill="none"/>
<path fill="currentColor"
	d="M552.53 99.01c0.6 -5.6 9.6 -9 5.6 -18.4
	c1.6 6 -1.3 11.6 -5.6 12.8
"/>
<use x="585.53" y="79.01" xlink:href="#hd"/>
<defs>
<path id="unat" fill="currentColor" d="
	m96 -750
	h-32
	v716
	l32 -8
	l182 -54
	v282
	h32
	v-706
	l-34 10
	l-180 50
	v-290
	m0 592
	v-190
	l182 -52
	v188"/>
<use id="nt0" transform="translate(-3,5) scale(0.018)"
	xlink:href="#unat"/>
</defs>
<use x="576.53" y="79.01" xlink:href="#nt0"/>
<path d="M582.03 79.01v20.00" stroke="currentColor" fill="none"/>
<path fill="currentColor"
	d="M582.03 99.01c0.6 -5.6 9.6 -9 5.6 -18.4
	c1.6 6 -1.3 11.6 -5.6 12.8
"/>
<use x="615.03" y="85.01" xlink:href="#hd"/>
<path d="M611.53 85.01v20.00" stroke="currentColor" fill="none"/>
<path fill="currentColor"
	d="M611.53 105.01c0.6 -5.6 9.6 -9 5.6 -18.4
	c1.6 6 -1.3 11.6 -5.6 12.8
"/>
<use x="653.33" y="91.01" xlink:href="#hd"/>
<path d="M649.83 91.01v20.00" stroke="currentColor" fill="none"/>
<path fill="currentColor"
	d="M77.83 112.01c6.36 5.23 34.05 5.23 40.40 -0.00
	l0.00 0.24c-7.57 6.99 -32.83 6.99 -40.40 -0.24"/>
<path fill="currentColor"
	d="M164.83 106.01c6.36 5.23 34.05 5.23 40.40 -0.00
	l0.00 0.24c-7.57 6.99 -32.83 6.99 -40.40 -0.24"/>
<path fill="currentColor"
	d="M262.33 99.01c6.36 5.23 34.05 5.23 40.40 -0.00
	l0.00 0.24c-7.57 6.99 -32.83 6.99 -40.40 -0.24"/>
<path fill="currentColor"
	d="M349.33 89.01c6.36 -5.23 34.05 -5.23 40.40 -0.00
	l0.00 -0.24c-7.57 -6.99 -32.83 -6.99 -40.40 0.24"/>
</g>
</svg>
