<?xml version="1.0" standalone="no"?>
<!DOCTYPE svg PUBLIC "-//W3C//DTD SVG 1.1//EN"
	"http://www.w3.org/Graphics/SVG/1.1/DTD/svg11.dtd">
<svg xmlns="http://www.w3.org/2000/svg" version="1.1"
	xmlns:xlink="http://www.w3.org/1999/xlink"
	xml:space='preserve' color="black"
	width="7.38in" height="1.34in" viewBox="0 0 531 97">
<title>1746.abc (1746) tune 1</title>
<!-- Creator: abcm2ps-7.8.14 -->
<!-- CreationDate: Mar 13, 2016 18:53 -->
<!-- CommandLine: -qxg 1746.abc -O ../svgs/1746.svg -->
<g transform="scale(0.750)" stroke-width="0.70" font-family="Times" font-size="20.00">
<text x="354.13" y="21.67" text-anchor="middle">1746.  Sonata in A, 2nd. Mvt.</text>
</g>
<g transform="scale(0.750)" stroke-width="0.70" font-family="Times" font-size="14.00" font-style="italic">
<text x="694.93" y="45.34" text-anchor="end">Baldassare Galuppi</text>
</g>
<g transform="scale(0.525)" stroke-width="0.70" font-family="Times" font-size="14.00" font-style="italic">
<defs>
<ellipse id="hd" rx="4.1" ry="2.9"
	transform="rotate(-20)" fill="currentColor"/>
</defs>
<use x="122.76" y="94.16" xlink:href="#hd"/>
<path d="M126.26 94.16v-20.00" stroke="currentColor" fill="none"/>
</g>
<g transform="scale(0.750)" stroke-width="0.70" font-family="Times" font-size="15.00" font-weight="bold">
<text x="93.63" y="68.01">= 120</text>
<path stroke="currentColor" fill="none"
	d="M149.93 106.01v-24.00"/>
<path stroke="currentColor" fill="none"
	d="M290.93 106.01v-24.00"/>
<path stroke="currentColor" fill="none"
	d="M368.03 106.01v-24.00"/>
<path stroke="currentColor" fill="none"
	d="M511.23 106.01v-24.00"/>
<path stroke="currentColor" fill="none"
	d="M694.93 106.01v-24.00"/>
<path stroke="currentColor" fill="none"
	d="M13.33 106.01h681.60m-681.60 -6h681.60m-681.60 -6h681.60m-681.60 -6h681.60m-681.60 -6h681.60"/>
<defs>
<path id="utclef" fill="currentColor" d="m-50 -90
	c-72 -41 -72 -158 52 -188
	c150 -10 220 188 90 256
	c-114 52 -275 0 -293 -136
	c-15 -181 93 -229 220 -334
	c88 -87 79 -133 62 -210
	c-51 33 -94 105 -89 186
	c17 267 36 374 49 574
	c6 96 -19 134 -77 135
	c-80 1 -126 -93 -61 -133
	c85 -41 133 101 31 105
	c23 17 92 37 90 -92
	c-10 -223 -39 -342 -50 -617
	c0 -90 0 -162 96 -232
	c56 72 63 230 22 289
	c-74 106 -257 168 -255 316
	c9 153 148 185 252 133
	c86 -65 29 -192 -80 -176
	c-71 12 -105 67 -59 124"/>
<use id="tclef" transform="scale(0.045)"
	xlink:href="#utclef"/>
</defs>
<use x="25.33" y="106.01" xlink:href="#tclef"/>
<defs>
<path id="usharp" fill="currentColor" d="
	m136 -702
	v890
	h32
	v-890
	m128 840
	h32
	v-888
	h-32
	m-232 286
	v116
	l338 -96
	v-116
	m-338 442
	v116
	l338 -98
	v-114"/>
<use id="sh0" transform="translate(-4,5) scale(0.018)"
	xlink:href="#usharp"/>
</defs>
<use x="40.33" y="82.01" xlink:href="#sh0"/>
<use x="45.83" y="91.01" xlink:href="#sh0"/>
<use x="51.33" y="79.01" xlink:href="#sh0"/>
<g font-family="serif" font-size="16" font-weight="bold" font-style="normal"
	transform="translate(67.33,106.01) scale(1.2,1)">
	<text y="-1" text-anchor="middle">4</text>
	<text y="-13" text-anchor="middle">3</text>
</g>
<use x="85.33" y="97.01" xlink:href="#hd"/>
<path d="M88.83 97.01v-20.00" stroke="currentColor" fill="none"/>
<defs>
<rect id="r2" fill="currentColor"
	x="-3.5" y="-3" width="7" height="3"/>
</defs>
<use x="115.63" y="94.01" xlink:href="#r2"/>
<defs>
<path id="r8e" fill="currentColor" d="m 0 0
	c-1.5 1.5 -2.4 2 -3.6 2
	c2.4 -2.8 -2.8 -4 -2.8 -1.2
	c0 2.7 4.3 2.4 5.9 0.6"/>
<g id="r8">
	<path d="m3.3 -4l-3.4 9.6" stroke="currentColor" fill="none"/>
	<use x="3.4" y="-4" xlink:href="#r8e"/>
</g>
</defs>
<use x="162.43" y="94.01" xlink:href="#r8"/>
<use x="181.93" y="103.01" xlink:href="#hd"/>
<path d="M185.43 103.01v-21.00" stroke="currentColor" fill="none"/>
<path fill="currentColor"
	d="M185.43 82.01c0.9 3.7 9.1 6.4 6 12.4
	c1 -5.4 -4.2 -8.4 -6 -8.4
M185.43 87.41c0.9 3.7 9.1 6.4 6 12.4
	c1 -5.4 -4.2 -8.4 -6 -8.4
"/>
<path fill="currentColor"
	d="M201.63 77.91l14.70 -2.20v3.20l-14.70 2.20"/>
<path fill="currentColor"
	d="M207.93 81.91l-6.00 0.90v3.20l6.00 -0.90"/>
<use x="198.43" y="100.01" xlink:href="#hd"/>
<path d="M201.93 100.01v-21.20" stroke="currentColor" fill="none"/>
<use x="212.53" y="97.01" xlink:href="#hd"/>
<path d="M216.03 97.01v-20.30" stroke="currentColor" fill="none"/>
<path fill="currentColor"
	d="M230.43 113.31l39.80 -4.70v-3.20l-39.80 4.70"/>
<use x="234.33" y="94.01" xlink:href="#hd"/>
<path d="M230.83 94.01v18.30" stroke="currentColor" fill="none"/>
<use x="253.83" y="91.01" xlink:href="#hd"/>
<path d="M250.33 91.01v19.00" stroke="currentColor" fill="none"/>
<use x="273.43" y="88.01" xlink:href="#hd"/>
<path d="M269.93 88.01v19.70" stroke="currentColor" fill="none"/>
<use x="303.43" y="91.01" xlink:href="#hd"/>
<path d="M299.93 91.01v20.00" stroke="currentColor" fill="none"/>
<use x="333.73" y="94.01" xlink:href="#r2"/>
<use x="380.53" y="94.01" xlink:href="#r8"/>
<use x="400.03" y="97.01" xlink:href="#hd"/>
<path d="M403.53 97.01v-21.00" stroke="currentColor" fill="none"/>
<path fill="currentColor"
	d="M403.53 76.01c0.9 3.7 9.1 6.4 6 12.4
	c1 -5.4 -4.2 -8.4 -6 -8.4
M403.53 81.41c0.9 3.7 9.1 6.4 6 12.4
	c1 -5.4 -4.2 -8.4 -6 -8.4
"/>
<path fill="currentColor"
	d="M415.23 116.31l14.70 -2.20v-3.20l-14.70 2.20"/>
<path fill="currentColor"
	d="M421.53 110.31l-6.00 0.90v-3.20l6.00 -0.90"/>
<use x="419.03" y="94.01" xlink:href="#hd"/>
<path d="M415.53 94.01v21.20" stroke="currentColor" fill="none"/>
<use x="433.03" y="91.01" xlink:href="#hd"/>
<path d="M429.53 91.01v22.10" stroke="currentColor" fill="none"/>
<path fill="currentColor"
	d="M450.83 107.31l39.80 -4.70v-3.20l-39.80 4.70"/>
<use x="454.73" y="88.01" xlink:href="#hd"/>
<path d="M451.23 88.01v18.30" stroke="currentColor" fill="none"/>
<use x="474.23" y="85.01" xlink:href="#hd"/>
<path d="M470.73 85.01v19.00" stroke="currentColor" fill="none"/>
<use x="493.73" y="82.01" xlink:href="#hd"/>
<path d="M490.23 82.01v19.70" stroke="currentColor" fill="none"/>
<path fill="currentColor"
	d="M519.93 117.21l28.70 4.00v-3.20l-28.70 -4.00"/>
<path fill="currentColor"
	d="M520.23 112.31l28.00 3.90v-3.20l-28.00 -3.90"/>
<use x="523.73" y="85.01" xlink:href="#hd"/>
<path d="M520.23 85.01v31.30" stroke="currentColor" fill="none"/>
<use x="537.73" y="97.01" xlink:href="#hd"/>
<path d="M534.23 97.01v21.20" stroke="currentColor" fill="none"/>
<use x="551.83" y="94.01" xlink:href="#hd"/>
<path d="M548.33 94.01v26.10" stroke="currentColor" fill="none"/>
<path fill="currentColor"
	d="M563.43 113.31l28.70 -4.30v-3.20l-28.70 4.30"/>
<path fill="currentColor"
	d="M563.73 108.21l28.00 -4.20v-3.20l-28.00 4.20"/>
<use x="567.23" y="91.01" xlink:href="#hd"/>
<path d="M563.73 91.01v21.20" stroke="currentColor" fill="none"/>
<use x="581.33" y="88.01" xlink:href="#hd"/>
<path d="M577.83 88.01v22.10" stroke="currentColor" fill="none"/>
<use x="595.33" y="85.01" xlink:href="#hd"/>
<path d="M591.83 85.01v23.00" stroke="currentColor" fill="none"/>
<path fill="currentColor"
	d="M606.93 104.31l28.70 -4.30v-3.20l-28.70 4.30"/>
<path fill="currentColor"
	d="M607.33 99.21l28.00 -4.20v-3.20l-28.00 4.20"/>
<use x="610.83" y="82.01" xlink:href="#hd"/>
<path d="M607.33 82.01v21.20" stroke="currentColor" fill="none"/>
<use x="624.83" y="79.01" xlink:href="#hd"/>
<path d="M621.33 79.01v22.10" stroke="currentColor" fill="none"/>
<defs>
<path id="hl" stroke="currentColor" d="m-6 0h12"/>
</defs>
<use x="638.83" y="76.01" xlink:href="#hl"/>
<use x="638.83" y="76.01" xlink:href="#hd"/>
<path d="M635.33 76.01v23.00" stroke="currentColor" fill="none"/>
<path fill="currentColor"
	d="M650.53 102.91l28.70 4.30v-3.20l-28.70 -4.30"/>
<path fill="currentColor"
	d="M650.83 98.01l28.00 4.20v-3.20l-28.00 -4.20"/>
<use x="654.33" y="79.01" xlink:href="#hd"/>
<path d="M650.83 79.01v23.00" stroke="currentColor" fill="none"/>
<use x="668.33" y="82.01" xlink:href="#hd"/>
<path d="M664.83 82.01v22.10" stroke="currentColor" fill="none"/>
<use x="682.33" y="85.01" xlink:href="#hd"/>
<path d="M678.83 85.01v21.20" stroke="currentColor" fill="none"/>
</g>
</svg>
