<?xml version="1.0" standalone="no"?>
<!DOCTYPE svg PUBLIC "-//W3C//DTD SVG 1.1//EN"
	"http://www.w3.org/Graphics/SVG/1.1/DTD/svg11.dtd">
<svg xmlns="http://www.w3.org/2000/svg" version="1.1"
	xmlns:xlink="http://www.w3.org/1999/xlink"
	xml:space='preserve' color="black"
	width="7.38in" height="1.34in" viewBox="0 0 531 97">
<title>1751.abc (1751) tune 1</title>
<!-- Creator: abcm2ps-7.8.14 -->
<!-- CreationDate: Mar 13, 2016 18:53 -->
<!-- CommandLine: -qxg 1751.abc -O ../svgs/1751.svg -->
<g transform="scale(0.750)" stroke-width="0.70" font-family="Times" font-size="20.00">
<text x="354.13" y="21.67" text-anchor="middle">1751.  Sonata in D, 1st. Mvt.</text>
</g>
<g transform="scale(0.750)" stroke-width="0.70" font-family="Times" font-size="14.00" font-style="italic">
<text x="694.93" y="45.34" text-anchor="end">Baldassare Galuppi</text>
</g>
<g transform="scale(0.525)" stroke-width="0.70" font-family="Times" font-size="14.00" font-style="italic">
<defs>
<ellipse id="hd" rx="4.1" ry="2.9"
	transform="rotate(-20)" fill="currentColor"/>
</defs>
<use x="114.90" y="94.16" xlink:href="#hd"/>
<path d="M118.40 94.16v-20.00" stroke="currentColor" fill="none"/>
</g>
<g transform="scale(0.750)" stroke-width="0.70" font-family="Times" font-size="15.00" font-weight="bold">
<text x="88.13" y="68.01">= 120</text>
<path stroke="currentColor" fill="none"
	d="M290.43 106.01v-24.00"/>
<path stroke="currentColor" fill="none"
	d="M528.23 106.01v-24.00"/>
<path stroke="currentColor" fill="none"
	d="M13.33 106.01h681.60m-681.60 -6h681.60m-681.60 -6h681.60m-681.60 -6h681.60m-681.60 -6h681.60"/>
<path stroke="currentColor" fill="none"
	d="M342.33 74.01v-3l31.00 -0.00v3"/>
<rect x="350.83" y="65.01" width="14.00" height="12" fill="white"/>
<text font-family="serif" font-size="12" font-style="italic" font-weight="normal"
	x="357.83" y="75.01" text-anchor="middle">3</text>
<path stroke="currentColor" fill="none"
	d="M459.23 77.01v-3l31.00 -0.00v3"/>
<rect x="467.73" y="68.01" width="14.00" height="12" fill="white"/>
<text font-family="serif" font-size="12" font-style="italic" font-weight="normal"
	x="474.73" y="78.01" text-anchor="middle">3</text>
<defs>
<path id="utclef" fill="currentColor" d="m-50 -90
	c-72 -41 -72 -158 52 -188
	c150 -10 220 188 90 256
	c-114 52 -275 0 -293 -136
	c-15 -181 93 -229 220 -334
	c88 -87 79 -133 62 -210
	c-51 33 -94 105 -89 186
	c17 267 36 374 49 574
	c6 96 -19 134 -77 135
	c-80 1 -126 -93 -61 -133
	c85 -41 133 101 31 105
	c23 17 92 37 90 -92
	c-10 -223 -39 -342 -50 -617
	c0 -90 0 -162 96 -232
	c56 72 63 230 22 289
	c-74 106 -257 168 -255 316
	c9 153 148 185 252 133
	c86 -65 29 -192 -80 -176
	c-71 12 -105 67 -59 124"/>
<use id="tclef" transform="scale(0.045)"
	xlink:href="#utclef"/>
</defs>
<use x="25.33" y="106.01" xlink:href="#tclef"/>
<defs>
<path id="usharp" fill="currentColor" d="
	m136 -702
	v890
	h32
	v-890
	m128 840
	h32
	v-888
	h-32
	m-232 286
	v116
	l338 -96
	v-116
	m-338 442
	v116
	l338 -98
	v-114"/>
<use id="sh0" transform="translate(-4,5) scale(0.018)"
	xlink:href="#usharp"/>
</defs>
<use x="40.33" y="82.01" xlink:href="#sh0"/>
<use x="45.83" y="91.01" xlink:href="#sh0"/>
<g font-family="serif" font-size="16" font-weight="bold" font-style="normal"
	transform="translate(61.83,106.01) scale(1.2,1)">
	<text y="-1" text-anchor="middle">4</text>
	<text y="-13" text-anchor="middle">4</text>
</g>
<path fill="currentColor"
	d="M76.03 103.71l24.10 -2.50v-3.20l-24.10 2.50"/>
<path fill="currentColor"
	d="M93.83 96.91l6.00 -0.60v-3.20l-6.00 0.60"/>
<use x="79.83" y="82.01" xlink:href="#hd"/>
<circle fill="currentColor" cx="87.83" cy="79.01" r="1.2"/>
<path d="M76.33 82.01v20.70" stroke="currentColor" fill="none"/>
<use x="103.33" y="79.01" xlink:href="#hd"/>
<path d="M99.83 79.01v21.30" stroke="currentColor" fill="none"/>
<defs>
<path id="r8e" fill="currentColor" d="m 0 0
	c-1.5 1.5 -2.4 2 -3.6 2
	c2.4 -2.8 -2.8 -4 -2.8 -1.2
	c0 2.7 4.3 2.4 5.9 0.6"/>
<g id="r32">
	<path d="m4.8 -10l-5.5 21.6" stroke="currentColor" fill="none"/>
	<use x="4.9" y="-10" xlink:href="#r8e"/>
	<use x="3.4" y="-4" xlink:href="#r8e"/>
	<use x="1.9" y="2" xlink:href="#r8e"/>
</g>
</defs>
<use x="117.73" y="94.01" xlink:href="#r32"/>
<path fill="currentColor"
	d="M125.43 106.21l21.70 0.00v-3.20l-21.70 -0.00"/>
<path fill="currentColor"
	d="M125.83 101.21l21.00 0.00v-3.20l-21.00 -0.00"/>
<path fill="currentColor"
	d="M125.83 96.21l21.00 0.00v-3.20l-21.00 -0.00"/>
<use x="129.33" y="79.01" xlink:href="#hd"/>
<path d="M125.83 79.01v26.20" stroke="currentColor" fill="none"/>
<defs>
<path id="hl" stroke="currentColor" d="m-6 0h12"/>
</defs>
<use x="139.83" y="76.01" xlink:href="#hl"/>
<use x="139.83" y="76.01" xlink:href="#hd"/>
<path d="M136.33 76.01v29.20" stroke="currentColor" fill="none"/>
<use x="150.33" y="79.01" xlink:href="#hd"/>
<path d="M146.83 79.01v26.20" stroke="currentColor" fill="none"/>
<path fill="currentColor"
	d="M158.03 106.21l36.70 0.00v-3.20l-36.70 -0.00"/>
<path fill="currentColor"
	d="M158.43 101.21l36.00 0.00v-3.20l-36.00 -0.00"/>
<path fill="currentColor"
	d="M158.43 96.21l36.00 0.00v-3.20l-36.00 -0.00"/>
<path fill="currentColor"
	d="M164.43 91.21l-6.00 -0.00v-3.20l6.00 0.00"/>
<use x="161.93" y="76.01" xlink:href="#hl"/>
<use x="161.93" y="76.01" xlink:href="#hd"/>
<path d="M158.43 76.01v29.20" stroke="currentColor" fill="none"/>
<use x="170.93" y="79.01" xlink:href="#hd"/>
<circle fill="currentColor" cx="178.93" cy="79.01" r="1.2"/>
<path d="M167.43 79.01v26.20" stroke="currentColor" fill="none"/>
<use x="187.43" y="82.01" xlink:href="#hd"/>
<path d="M183.93 82.01v23.20" stroke="currentColor" fill="none"/>
<use x="197.93" y="79.01" xlink:href="#hd"/>
<path d="M194.43 79.01v26.20" stroke="currentColor" fill="none"/>
<use x="209.43" y="76.01" xlink:href="#hl"/>
<use x="209.43" y="76.01" xlink:href="#hd"/>
<path d="M205.93 76.01v20.00" stroke="currentColor" fill="none"/>
<path fill="currentColor"
	d="M205.93 96.01c0.6 -5.6 9.6 -9 5.6 -18.4
	c1.6 6 -1.3 11.6 -5.6 12.8
"/>
<use x="231.53" y="88.01" xlink:href="#hd"/>
<path d="M228.03 88.01v20.00" stroke="currentColor" fill="none"/>
<path fill="currentColor"
	d="M228.03 108.01c0.6 -5.6 9.6 -9 5.6 -18.4
	c1.6 6 -1.3 11.6 -5.6 12.8
"/>
<defs>
<g id="r8">
	<path d="m3.3 -4l-3.4 9.6" stroke="currentColor" fill="none"/>
	<use x="3.4" y="-4" xlink:href="#r8e"/>
</g>
</defs>
<use x="251.63" y="94.01" xlink:href="#r8"/>
<use x="271.63" y="97.01" xlink:href="#hd"/>
<path d="M275.13 97.01v-20.00" stroke="currentColor" fill="none"/>
<path fill="currentColor"
	d="	M275.13 77.01c0.6 5.6 9.6 9 5.6 18.4
	c1.6 -6 -1.3 -11.6 -5.6 -12.8
"/>
<use x="302.93" y="94.01" xlink:href="#hd"/>
<path d="M299.43 94.01v20.00" stroke="currentColor" fill="none"/>
<use x="334.83" y="94.01" xlink:href="#hd"/>
<path d="M331.33 94.01v25.00" stroke="currentColor" fill="none"/>
<path fill="currentColor"
	d="M331.33 119.01c0.9 -3.7 9.1 -6.4 6 -12.4
	c1 5.4 -4.2 8.4 -6 8.4
M331.33 113.61c0.9 -3.7 9.1 -6.4 6 -12.4
	c1 5.4 -4.2 8.4 -6 8.4
M331.33 108.21c0.9 -3.7 9.1 -6.4 6 -12.4
	c1 5.4 -4.2 8.4 -6 8.4
"/>
<path fill="currentColor"
	d="M342.53 121.81l56.20 -5.30v-3.20l-56.20 5.30"/>
<path fill="currentColor"
	d="M342.83 116.81l55.50 -5.20v-3.20l-55.50 5.20"/>
<path fill="currentColor"
	d="M377.33 108.51l21.00 -2.00v-3.20l-21.00 2.00"/>
<use x="346.33" y="91.01" xlink:href="#hd"/>
<path d="M342.83 91.01v29.80" stroke="currentColor" fill="none"/>
<use x="357.83" y="88.01" xlink:href="#hd"/>
<path d="M354.33 88.01v31.70" stroke="currentColor" fill="none"/>
<use x="369.33" y="85.01" xlink:href="#hd"/>
<path d="M365.83 85.01v33.60" stroke="currentColor" fill="none"/>
<use x="380.83" y="82.01" xlink:href="#hd"/>
<path d="M377.33 82.01v35.50" stroke="currentColor" fill="none"/>
<use x="391.33" y="94.01" xlink:href="#r32"/>
<use x="401.83" y="79.01" xlink:href="#hd"/>
<path d="M398.33 79.01v36.50" stroke="currentColor" fill="none"/>
<use x="412.33" y="97.01" xlink:href="#hd"/>
<path d="M415.83 97.01v-20.00" stroke="currentColor" fill="none"/>
<use x="444.23" y="97.01" xlink:href="#hd"/>
<path d="M447.73 97.01v-24.00" stroke="currentColor" fill="none"/>
<path fill="currentColor"
	d="M447.73 73.01c0.9 3.7 9.1 6.4 6 12.4
	c1 -5.4 -4.2 -8.4 -6 -8.4
M447.73 78.41c0.9 3.7 9.1 6.4 6 12.4
	c1 -5.4 -4.2 -8.4 -6 -8.4
M447.73 83.81c0.9 3.7 9.1 6.4 6 12.4
	c1 -5.4 -4.2 -8.4 -6 -8.4
"/>
<path fill="currentColor"
	d="M459.43 121.81l56.20 -5.30v-3.20l-56.20 5.30"/>
<path fill="currentColor"
	d="M459.73 116.81l55.50 -5.20v-3.20l-55.50 5.20"/>
<path fill="currentColor"
	d="M494.23 108.51l21.00 -2.00v-3.20l-21.00 2.00"/>
<use x="463.23" y="94.01" xlink:href="#hd"/>
<path d="M459.73 94.01v26.80" stroke="currentColor" fill="none"/>
<use x="474.73" y="91.01" xlink:href="#hd"/>
<path d="M471.23 91.01v28.70" stroke="currentColor" fill="none"/>
<use x="486.23" y="88.01" xlink:href="#hd"/>
<path d="M482.73 88.01v30.60" stroke="currentColor" fill="none"/>
<use x="497.73" y="85.01" xlink:href="#hd"/>
<path d="M494.23 85.01v32.50" stroke="currentColor" fill="none"/>
<use x="508.23" y="94.01" xlink:href="#r32"/>
<use x="518.73" y="82.01" xlink:href="#hd"/>
<path d="M515.23 82.01v33.50" stroke="currentColor" fill="none"/>
<use x="540.73" y="97.01" xlink:href="#hd"/>
<path d="M544.23 97.01v-20.00" stroke="currentColor" fill="none"/>
<path fill="currentColor"
	d="	M544.23 77.01c0.6 5.6 9.6 9 5.6 18.4
	c1.6 -6 -1.3 -11.6 -5.6 -12.8
"/>
<path fill="currentColor"
	d="M566.93 75.51l17.80 2.30v3.20l-17.80 -2.30"/>
<path fill="currentColor"
	d="M567.23 80.61l17.10 2.20v3.20l-17.10 -2.20"/>
<path fill="currentColor"
	d="M578.33 87.01l6.00 0.80v3.20l-6.00 -0.80"/>
<use x="563.73" y="100.01" xlink:href="#hd"/>
<circle fill="currentColor" cx="571.73" cy="97.01" r="1.2"/>
<path d="M567.23 100.01v-23.40" stroke="currentColor" fill="none"/>
<use x="580.83" y="103.01" xlink:href="#hd"/>
<path d="M584.33 103.01v-24.20" stroke="currentColor" fill="none"/>
<path fill="currentColor"
	d="M595.63 69.81l32.20 0.00v3.20l-32.20 -0.00"/>
<path fill="currentColor"
	d="M595.93 74.81l31.50 0.00v3.20l-31.50 -0.00"/>
<path fill="currentColor"
	d="M595.93 79.81l31.50 0.00v3.20l-31.50 -0.00"/>
<use x="592.43" y="100.01" xlink:href="#hd"/>
<path d="M595.93 100.01v-29.20" stroke="currentColor" fill="none"/>
<use x="602.93" y="97.01" xlink:href="#hd"/>
<path d="M606.43 97.01v-26.20" stroke="currentColor" fill="none"/>
<use x="613.43" y="100.01" xlink:href="#hd"/>
<path d="M616.93 100.01v-29.20" stroke="currentColor" fill="none"/>
<use x="623.93" y="97.01" xlink:href="#hd"/>
<path d="M627.43 97.01v-26.20" stroke="currentColor" fill="none"/>
<path fill="currentColor"
	d="M638.73 69.81l21.70 0.00v3.20l-21.70 -0.00"/>
<path fill="currentColor"
	d="M639.03 74.81l21.00 0.00v3.20l-21.00 -0.00"/>
<path fill="currentColor"
	d="M639.03 79.81l10.50 0.00v3.20l-10.50 -0.00"/>
<use x="635.53" y="100.01" xlink:href="#hd"/>
<path d="M639.03 100.01v-29.20" stroke="currentColor" fill="none"/>
<use x="646.03" y="97.01" xlink:href="#hd"/>
<path d="M649.53 97.01v-26.20" stroke="currentColor" fill="none"/>
<use x="656.53" y="103.01" xlink:href="#hd"/>
<path d="M660.03 103.01v-32.20" stroke="currentColor" fill="none"/>
<use x="672.43" y="103.01" xlink:href="#hd"/>
<path d="M675.93 103.01v-20.00" stroke="currentColor" fill="none"/>
<path fill="currentColor"
	d="	M675.93 83.01c0.6 5.6 9.6 9 5.6 18.4
	c1.6 -6 -1.3 -11.6 -5.6 -12.8
"/>
<path fill="currentColor"
	d="M306.43 94.01c3.92 -4.95 20.99 -4.95 24.91 -0.00
	l0.00 -0.22c-4.67 -6.72 -20.24 -6.72 -24.91 0.22"/>
<path fill="currentColor"
	d="M415.83 99.01c3.92 4.95 20.99 4.95 24.91 -0.00
	l0.00 0.22c-4.67 6.72 -20.24 6.72 -24.91 -0.22"/>
</g>
</svg>
