<?xml version="1.0" standalone="no"?>
<!DOCTYPE svg PUBLIC "-//W3C//DTD SVG 1.1//EN"
	"http://www.w3.org/Graphics/SVG/1.1/DTD/svg11.dtd">
<svg xmlns="http://www.w3.org/2000/svg" version="1.1"
	xmlns:xlink="http://www.w3.org/1999/xlink"
	xml:space='preserve' color="black"
	width="7.38in" height="1.34in" viewBox="0 0 531 97">
<title>1785.abc (1785) tune 1</title>
<!-- Creator: abcm2ps-7.8.14 -->
<!-- CreationDate: Mar 13, 2016 18:53 -->
<!-- CommandLine: -qxg 1785.abc -O ../svgs/1785.svg -->
<g transform="scale(0.750)" stroke-width="0.70" font-family="Times" font-size="20.00">
<text x="354.13" y="21.67" text-anchor="middle">1785.  Concerto in F, 2nd. Mvt. - 1st. Theme B</text>
</g>
<g transform="scale(0.750)" stroke-width="0.70" font-family="Times" font-size="14.00" font-style="italic">
<text x="694.93" y="45.34" text-anchor="end">George Gershwin</text>
</g>
<g transform="scale(0.525)" stroke-width="0.70" font-family="Times" font-size="14.00" font-style="italic">
<defs>
<ellipse id="hd" rx="4.1" ry="2.9"
	transform="rotate(-20)" fill="currentColor"/>
</defs>
<use x="140.61" y="94.16" xlink:href="#hd"/>
<path d="M144.11 94.16v-20.00" stroke="currentColor" fill="none"/>
</g>
<g transform="scale(0.750)" stroke-width="0.70" font-family="Times" font-size="15.00" font-weight="bold">
<text x="106.13" y="68.01">= 120</text>
<path stroke="currentColor" fill="none"
	d="M141.43 106.01v-24.00"/>
<path stroke="currentColor" fill="none"
	d="M269.63 106.01v-24.00"/>
<path stroke="currentColor" fill="none"
	d="M398.63 106.01v-24.00"/>
<path stroke="currentColor" fill="none"
	d="M456.23 106.01v-24.00"/>
<path stroke="currentColor" fill="none"
	d="M586.83 106.01v-24.00"/>
<path stroke="currentColor" fill="none"
	d="M644.53 106.01v-24.00"/>
<path stroke="currentColor" fill="none"
	d="M13.33 106.01h681.60m-681.60 -6h681.60m-681.60 -6h681.60m-681.60 -6h681.60m-681.60 -6h681.60"/>
<defs>
<path id="utclef" fill="currentColor" d="m-50 -90
	c-72 -41 -72 -158 52 -188
	c150 -10 220 188 90 256
	c-114 52 -275 0 -293 -136
	c-15 -181 93 -229 220 -334
	c88 -87 79 -133 62 -210
	c-51 33 -94 105 -89 186
	c17 267 36 374 49 574
	c6 96 -19 134 -77 135
	c-80 1 -126 -93 -61 -133
	c85 -41 133 101 31 105
	c23 17 92 37 90 -92
	c-10 -223 -39 -342 -50 -617
	c0 -90 0 -162 96 -232
	c56 72 63 230 22 289
	c-74 106 -257 168 -255 316
	c9 153 148 185 252 133
	c86 -65 29 -192 -80 -176
	c-71 12 -105 67 -59 124"/>
<use id="tclef" transform="scale(0.045)"
	xlink:href="#utclef"/>
</defs>
<use x="25.33" y="106.01" xlink:href="#tclef"/>
<defs>
<path id="uflat" fill="currentColor" d="
	m100 -746
	h32
	v734
	l-32 4
	m32 -332
	c46 -72 152 -90 208 -20
	c100 110 -120 326 -208 348
	m0 -28
	c54 0 200 -206 130 -290
	c-50 -60 -130 -4 -130 34"/>
<use id="ft0" transform="translate(-3.5,3.5) scale(0.018)"
	xlink:href="#uflat"/>
</defs>
<use x="40.33" y="94.01" xlink:href="#ft0"/>
<use x="45.83" y="85.01" xlink:href="#ft0"/>
<use x="51.33" y="97.01" xlink:href="#ft0"/>
<use x="56.83" y="88.01" xlink:href="#ft0"/>
<use x="62.33" y="100.01" xlink:href="#ft0"/>
<g font-family="serif" font-size="16" font-weight="bold" font-style="normal"
	transform="translate(78.33,106.01) scale(1.2,1)">
	<text y="-1" text-anchor="middle">4</text>
	<text y="-13" text-anchor="middle">4</text>
</g>
<defs>
<path id="HD" fill="currentColor" d="m-2.7 -1.4
	c1.5 -2.8 6.9 0 5.3 2.7
	c-1.5 2.8 -6.9 0 -5.3 -2.7
	m8.3 1.4
	c0 -1.5 -2.2 -3 -5.6 -3
	c-3.4 0 -5.6 1.5 -5.6 3
	c0 1.5 2.2 3 5.6 3
	c3.4 0 5.6 -1.5 5.6 -3"/>
</defs>
<use x="98.83" y="88.01" xlink:href="#HD"/>
<defs>
<path id="Hd" fill="currentColor" d="m3 -1.6
	c-1 -1.8 -7 1.4 -6 3.2
	c1 1.8 7 -1.4 6 -3.2
	m0.5 -0.3
	c2 3.8 -5 7.6 -7 3.8
	c-2 -3.8 5 -7.6 7 -3.8"/>
</defs>
<use x="154.43" y="88.01" xlink:href="#Hd"/>
<path d="M150.93 88.01v20.00" stroke="currentColor" fill="none"/>
<use x="194.13" y="88.01" xlink:href="#hd"/>
<path d="M190.63 88.01v20.00" stroke="currentColor" fill="none"/>
<path fill="currentColor"
	d="M190.63 108.01c0.6 -5.6 9.6 -9 5.6 -18.4
	c1.6 6 -1.3 11.6 -5.6 12.8
"/>
<use x="213.93" y="88.01" xlink:href="#hd"/>
<path d="M210.43 88.01v20.00" stroke="currentColor" fill="none"/>
<path fill="currentColor"
	d="M210.43 108.01c0.6 -5.6 9.6 -9 5.6 -18.4
	c1.6 6 -1.3 11.6 -5.6 12.8
"/>
<use x="233.73" y="85.01" xlink:href="#hd"/>
<path d="M230.23 85.01v20.00" stroke="currentColor" fill="none"/>
<path fill="currentColor"
	d="M230.23 105.01c0.6 -5.6 9.6 -9 5.6 -18.4
	c1.6 6 -1.3 11.6 -5.6 12.8
"/>
<use x="253.53" y="88.01" xlink:href="#hd"/>
<path d="M250.03 88.01v20.00" stroke="currentColor" fill="none"/>
<path fill="currentColor"
	d="M250.03 108.01c0.6 -5.6 9.6 -9 5.6 -18.4
	c1.6 6 -1.3 11.6 -5.6 12.8
"/>
<use x="282.63" y="85.01" xlink:href="#Hd"/>
<path d="M279.13 85.01v20.00" stroke="currentColor" fill="none"/>
<use x="322.33" y="85.01" xlink:href="#hd"/>
<path d="M318.83 85.01v20.00" stroke="currentColor" fill="none"/>
<path fill="currentColor"
	d="M318.83 105.01c0.6 -5.6 9.6 -9 5.6 -18.4
	c1.6 6 -1.3 11.6 -5.6 12.8
"/>
<use x="340.23" y="109.01" xlink:href="#hd"/>
<path d="M343.73 109.01v-20.00" stroke="currentColor" fill="none"/>
<path fill="currentColor"
	d="	M343.73 89.01c0.6 5.6 9.6 9 5.6 18.4
	c1.6 -6 -1.3 -11.6 -5.6 -12.8
"/>
<use x="360.93" y="106.01" xlink:href="#hd"/>
<path d="M364.43 106.01v-20.00" stroke="currentColor" fill="none"/>
<path fill="currentColor"
	d="	M364.43 86.01c0.6 5.6 9.6 9 5.6 18.4
	c1.6 -6 -1.3 -11.6 -5.6 -12.8
"/>
<use x="381.63" y="109.01" xlink:href="#hd"/>
<path d="M385.13 109.01v-20.00" stroke="currentColor" fill="none"/>
<path fill="currentColor"
	d="	M385.13 89.01c0.6 5.6 9.6 9 5.6 18.4
	c1.6 -6 -1.3 -11.6 -5.6 -12.8
"/>
<use x="413.63" y="106.01" xlink:href="#HD"/>
<use x="469.23" y="106.01" xlink:href="#Hd"/>
<path d="M472.73 106.01v-20.00" stroke="currentColor" fill="none"/>
<use x="507.83" y="106.01" xlink:href="#hd"/>
<path d="M511.33 106.01v-20.00" stroke="currentColor" fill="none"/>
<path fill="currentColor"
	d="	M511.33 86.01c0.6 5.6 9.6 9 5.6 18.4
	c1.6 -6 -1.3 -11.6 -5.6 -12.8
"/>
<use x="528.53" y="103.01" xlink:href="#hd"/>
<path d="M532.03 103.01v-20.00" stroke="currentColor" fill="none"/>
<path fill="currentColor"
	d="	M532.03 83.01c0.6 5.6 9.6 9 5.6 18.4
	c1.6 -6 -1.3 -11.6 -5.6 -12.8
"/>
<use x="549.23" y="100.01" xlink:href="#hd"/>
<path d="M552.73 100.01v-20.00" stroke="currentColor" fill="none"/>
<path fill="currentColor"
	d="	M552.73 80.01c0.6 5.6 9.6 9 5.6 18.4
	c1.6 -6 -1.3 -11.6 -5.6 -12.8
"/>
<use x="569.83" y="97.01" xlink:href="#hd"/>
<path d="M573.33 97.01v-20.00" stroke="currentColor" fill="none"/>
<path fill="currentColor"
	d="	M573.33 77.01c0.6 5.6 9.6 9 5.6 18.4
	c1.6 -6 -1.3 -11.6 -5.6 -12.8
"/>
<use x="601.83" y="97.01" xlink:href="#HD"/>
<use x="657.53" y="97.01" xlink:href="#Hd"/>
<path d="M661.03 97.01v-20.00" stroke="currentColor" fill="none"/>
<path fill="currentColor"
	d="M101.33 88.01c7.60 -5.39 42.03 -5.39 49.63 -0.00
	l0.00 -0.25c-9.09 -7.14 -40.54 -7.14 -49.63 0.25"/>
<path fill="currentColor"
	d="M157.93 88.01c5.15 -5.09 27.55 -5.09 32.70 -0.00
	l0.00 -0.23c-6.13 -6.86 -26.57 -6.86 -32.70 0.23"/>
<path fill="currentColor"
	d="M286.13 83.01c5.15 -5.09 27.55 -5.09 32.70 -0.00
	l0.00 -0.23c-6.13 -6.86 -26.57 -6.86 -32.70 0.23"/>
<path fill="currentColor"
	d="M416.13 106.01c7.60 5.39 42.03 5.39 49.63 -0.00
	l0.00 0.25c-9.09 7.14 -40.54 7.14 -49.63 -0.25"/>
<path fill="currentColor"
	d="M604.33 99.01c7.60 5.39 42.03 5.39 49.63 -0.00
	l0.00 0.25c-9.09 7.14 -40.54 7.14 -49.63 -0.25"/>
</g>
</svg>
