<?xml version="1.0" standalone="no"?>
<!DOCTYPE svg PUBLIC "-//W3C//DTD SVG 1.1//EN"
	"http://www.w3.org/Graphics/SVG/1.1/DTD/svg11.dtd">
<svg xmlns="http://www.w3.org/2000/svg" version="1.1"
	xmlns:xlink="http://www.w3.org/1999/xlink"
	xml:space='preserve' color="black"
	width="7.38in" height="1.34in" viewBox="0 0 531 97">
<title>1836.abc (1836) tune 1</title>
<!-- Creator: abcm2ps-7.8.14 -->
<!-- CreationDate: Mar 13, 2016 18:53 -->
<!-- CommandLine: -qxg 1836.abc -O ../svgs/1836.svg -->
<g transform="scale(0.750)" stroke-width="0.70" font-family="Times" font-size="20.00">
<text x="354.13" y="21.67" text-anchor="middle">1836.  Russian Sailor&apos;s Dance, from the Red Poppy, Ballet</text>
</g>
<g transform="scale(0.750)" stroke-width="0.70" font-family="Times" font-size="14.00" font-style="italic">
<text x="694.93" y="45.34" text-anchor="end">Reinhold Gliere</text>
</g>
<g transform="scale(0.525)" stroke-width="0.70" font-family="Times" font-size="14.00" font-style="italic">
<defs>
<ellipse id="hd" rx="4.1" ry="2.9"
	transform="rotate(-20)" fill="currentColor"/>
</defs>
<use x="107.04" y="94.16" xlink:href="#hd"/>
<path d="M110.54 94.16v-20.00" stroke="currentColor" fill="none"/>
</g>
<g transform="scale(0.750)" stroke-width="0.70" font-family="Times" font-size="15.00" font-weight="bold">
<text x="82.63" y="68.01">= 120</text>
<path stroke="currentColor" fill="none"
	d="M136.93 106.01v-24.00"/>
<path stroke="currentColor" fill="none"
	d="M215.73 106.01v-24.00"/>
<path stroke="currentColor" fill="none"
	d="M292.83 106.01v-24.00"/>
<path stroke="currentColor" fill="none"
	d="M370.33 106.01v-24.00"/>
<path stroke="currentColor" fill="none"
	d="M445.53 106.01v-24.00"/>
<path stroke="currentColor" fill="none"
	d="M525.83 106.01v-24.00"/>
<path stroke="currentColor" fill="none"
	d="M630.33 106.01v-24.00"/>
<path stroke="currentColor" fill="none"
	d="M694.93 106.01v-24.00"/>
<path stroke="currentColor" fill="none"
	d="M13.33 106.01h681.60m-681.60 -6h681.60m-681.60 -6h681.60m-681.60 -6h681.60m-681.60 -6h681.60"/>
<defs>
<path id="ubclef" fill="currentColor" d="m-200 -87
	c124 -35 222 -78 254 -236
	c43 -228 -167 -246 -192 -103
	c59 -80 157 22 92 78
	c-62 47 -115 -22 -106 -88
	c21 -141 270 -136 274 52
	c-1 175 -106 264 -322 297
	m357 -250
	c0 -36 51 -34 51 0
	c0 37 -51 36 -51 0
	m-2 -129
	c0 -36 51 -34 51 0
	c0 38 -51 37 -51 0"/>
<use id="bclef" transform="scale(0.045)"
	xlink:href="#ubclef"/>
</defs>
<use x="25.33" y="106.01" xlink:href="#bclef"/>
<defs>
<path id="uflat" fill="currentColor" d="
	m100 -746
	h32
	v734
	l-32 4
	m32 -332
	c46 -72 152 -90 208 -20
	c100 110 -120 326 -208 348
	m0 -28
	c54 0 200 -206 130 -290
	c-50 -60 -130 -4 -130 34"/>
<use id="ft0" transform="translate(-3.5,3.5) scale(0.018)"
	xlink:href="#uflat"/>
</defs>
<use x="40.33" y="100.01" xlink:href="#ft0"/>
<g font-family="serif" font-size="16" font-weight="bold" font-style="normal"
	transform="translate(56.33,106.01) scale(1.2,1)">
	<text y="-1" text-anchor="middle">4</text>
	<text y="-13" text-anchor="middle">2</text>
</g>
<use x="74.33" y="82.01" xlink:href="#hd"/>
<path d="M70.83 82.01v20.00" stroke="currentColor" fill="none"/>
<path fill="currentColor"
	d="M70.83 102.01c0.6 -5.6 9.6 -9 5.6 -18.4
	c1.6 6 -1.3 11.6 -5.6 12.8
"/>
<defs>
<path id="r8e" fill="currentColor" d="m 0 0
	c-1.5 1.5 -2.4 2 -3.6 2
	c2.4 -2.8 -2.8 -4 -2.8 -1.2
	c0 2.7 4.3 2.4 5.9 0.6"/>
<g id="r8">
	<path d="m3.3 -4l-3.4 9.6" stroke="currentColor" fill="none"/>
	<use x="3.4" y="-4" xlink:href="#r8e"/>
</g>
</defs>
<use x="93.03" y="94.01" xlink:href="#r8"/>
<use x="113.63" y="82.01" xlink:href="#hd"/>
<path d="M110.13 82.01v20.00" stroke="currentColor" fill="none"/>
<use x="149.43" y="91.01" xlink:href="#hd"/>
<path d="M145.93 91.01v20.00" stroke="currentColor" fill="none"/>
<path fill="currentColor"
	d="M145.93 111.01c0.6 -5.6 9.6 -9 5.6 -18.4
	c1.6 6 -1.3 11.6 -5.6 12.8
"/>
<use x="170.13" y="85.01" xlink:href="#hd"/>
<path d="M166.63 85.01v20.00" stroke="currentColor" fill="none"/>
<use x="198.93" y="91.01" xlink:href="#hd"/>
<path d="M195.43 91.01v20.00" stroke="currentColor" fill="none"/>
<path fill="currentColor"
	d="M195.43 111.01c0.6 -5.6 9.6 -9 5.6 -18.4
	c1.6 6 -1.3 11.6 -5.6 12.8
"/>
<use x="228.23" y="88.01" xlink:href="#hd"/>
<path d="M224.73 88.01v20.00" stroke="currentColor" fill="none"/>
<path fill="currentColor"
	d="M224.73 108.01c0.6 -5.6 9.6 -9 5.6 -18.4
	c1.6 6 -1.3 11.6 -5.6 12.8
"/>
<use x="248.83" y="94.01" xlink:href="#hd"/>
<path d="M245.33 94.01v20.00" stroke="currentColor" fill="none"/>
<path fill="currentColor"
	d="M245.33 114.01c0.6 -5.6 9.6 -9 5.6 -18.4
	c1.6 6 -1.3 11.6 -5.6 12.8
"/>
<use x="269.53" y="82.01" xlink:href="#hd"/>
<path d="M266.03 82.01v20.00" stroke="currentColor" fill="none"/>
<use x="305.33" y="91.01" xlink:href="#hd"/>
<path d="M301.83 91.01v20.00" stroke="currentColor" fill="none"/>
<path fill="currentColor"
	d="M301.83 111.01c0.6 -5.6 9.6 -9 5.6 -18.4
	c1.6 6 -1.3 11.6 -5.6 12.8
"/>
<use x="323.93" y="97.01" xlink:href="#hd"/>
<path d="M327.43 97.01v-20.00" stroke="currentColor" fill="none"/>
<use x="352.73" y="97.01" xlink:href="#hd"/>
<path d="M356.23 97.01v-20.00" stroke="currentColor" fill="none"/>
<path fill="currentColor"
	d="	M356.23 77.01c0.6 5.6 9.6 9 5.6 18.4
	c1.6 -6 -1.3 -11.6 -5.6 -12.8
"/>
<use x="382.83" y="94.01" xlink:href="#hd"/>
<path d="M379.33 94.01v20.00" stroke="currentColor" fill="none"/>
<path fill="currentColor"
	d="M379.33 114.01c0.6 -5.6 9.6 -9 5.6 -18.4
	c1.6 6 -1.3 11.6 -5.6 12.8
"/>
<use x="401.53" y="94.01" xlink:href="#r8"/>
<use x="422.23" y="94.01" xlink:href="#hd"/>
<path d="M418.73 94.01v20.00" stroke="currentColor" fill="none"/>
<use x="458.03" y="103.01" xlink:href="#hd"/>
<path d="M461.53 103.01v-20.00" stroke="currentColor" fill="none"/>
<path fill="currentColor"
	d="	M461.53 83.01c0.6 5.6 9.6 9 5.6 18.4
	c1.6 -6 -1.3 -11.6 -5.6 -12.8
"/>
<use x="479.43" y="97.01" xlink:href="#hd"/>
<path d="M482.93 97.01v-20.00" stroke="currentColor" fill="none"/>
<use x="508.23" y="97.01" xlink:href="#hd"/>
<path d="M511.73 97.01v-20.00" stroke="currentColor" fill="none"/>
<path fill="currentColor"
	d="	M511.73 77.01c0.6 5.6 9.6 9 5.6 18.4
	c1.6 -6 -1.3 -11.6 -5.6 -12.8
"/>
<use x="544.33" y="100.01" xlink:href="#hd"/>
<defs>
<path id="unat" fill="currentColor" d="
	m96 -750
	h-32
	v716
	l32 -8
	l182 -54
	v282
	h32
	v-706
	l-34 10
	l-180 50
	v-290
	m0 592
	v-190
	l182 -52
	v188"/>
<use id="nt0" transform="translate(-3,5) scale(0.018)"
	xlink:href="#unat"/>
</defs>
<use x="535.33" y="100.01" xlink:href="#nt0"/>
<path d="M547.83 100.01v-20.00" stroke="currentColor" fill="none"/>
<path fill="currentColor"
	d="	M547.83 80.01c0.6 5.6 9.6 9 5.6 18.4
	c1.6 -6 -1.3 -11.6 -5.6 -12.8
"/>
<use x="565.83" y="103.01" xlink:href="#hd"/>
<path d="M569.33 103.01v-20.00" stroke="currentColor" fill="none"/>
<path fill="currentColor"
	d="	M569.33 83.01c0.6 5.6 9.6 9 5.6 18.4
	c1.6 -6 -1.3 -11.6 -5.6 -12.8
"/>
<use x="591.33" y="100.01" xlink:href="#hd"/>
<use x="582.33" y="100.01" xlink:href="#nt0"/>
<path d="M594.83 100.01v-20.00" stroke="currentColor" fill="none"/>
<path fill="currentColor"
	d="	M594.83 80.01c0.6 5.6 9.6 9 5.6 18.4
	c1.6 -6 -1.3 -11.6 -5.6 -12.8
"/>
<use x="612.73" y="97.01" xlink:href="#hd"/>
<path d="M616.23 97.01v-20.00" stroke="currentColor" fill="none"/>
<path fill="currentColor"
	d="	M616.23 77.01c0.6 5.6 9.6 9 5.6 18.4
	c1.6 -6 -1.3 -11.6 -5.6 -12.8
"/>
<use x="642.83" y="103.01" xlink:href="#hd"/>
<path d="M646.33 103.01v-20.00" stroke="currentColor" fill="none"/>
<use x="671.63" y="103.01" xlink:href="#hd"/>
<path d="M675.13 103.01v-20.00" stroke="currentColor" fill="none"/>
</g>
</svg>
