<?xml version="1.0" standalone="no"?>
<!DOCTYPE svg PUBLIC "-//W3C//DTD SVG 1.1//EN"
	"http://www.w3.org/Graphics/SVG/1.1/DTD/svg11.dtd">
<svg xmlns="http://www.w3.org/2000/svg" version="1.1"
	xmlns:xlink="http://www.w3.org/1999/xlink"
	xml:space='preserve' color="black"
	width="7.38in" height="1.36in" viewBox="0 0 531 98">
<title>1845.abc (1845) tune 1</title>
<!-- Creator: abcm2ps-7.8.14 -->
<!-- CreationDate: Mar 13, 2016 18:53 -->
<!-- CommandLine: -qxg 1845.abc -O ../svgs/1845.svg -->
<g transform="scale(0.750)" stroke-width="0.70" font-family="Times" font-size="20.00">
<text x="354.13" y="21.67" text-anchor="middle">1845.  Intro A Life for the Czar (Ivan Soussanine), Overture</text>
</g>
<g transform="scale(0.750)" stroke-width="0.70" font-family="Times" font-size="14.00" font-style="italic">
<text x="694.93" y="45.34" text-anchor="end">Michael Glinka</text>
</g>
<g transform="scale(0.525)" stroke-width="0.70" font-family="Times" font-size="14.00" font-style="italic">
<defs>
<ellipse id="hd" rx="4.1" ry="2.9"
	transform="rotate(-20)" fill="currentColor"/>
</defs>
<use x="114.90" y="94.16" xlink:href="#hd"/>
<path d="M118.40 94.16v-20.00" stroke="currentColor" fill="none"/>
</g>
<g transform="scale(0.750)" stroke-width="0.70" font-family="Times" font-size="15.00" font-weight="bold">
<text x="88.13" y="68.01">= 120</text>
<path stroke="currentColor" fill="none"
	d="M157.63 108.01v-24.00"/>
<path stroke="currentColor" fill="none"
	d="M239.93 108.01v-24.00"/>
<path stroke="currentColor" fill="none"
	d="M385.13 108.01v-24.00"/>
<path stroke="currentColor" fill="none"
	d="M476.53 108.01v-24.00"/>
<path stroke="currentColor" fill="none"
	d="M594.03 108.01v-24.00"/>
<path stroke="currentColor" fill="none"
	d="M694.93 108.01v-24.00"/>
<path stroke="currentColor" fill="none"
	d="M13.33 108.01h681.60m-681.60 -6h681.60m-681.60 -6h681.60m-681.60 -6h681.60m-681.60 -6h681.60"/>
<defs>
<path id="utclef" fill="currentColor" d="m-50 -90
	c-72 -41 -72 -158 52 -188
	c150 -10 220 188 90 256
	c-114 52 -275 0 -293 -136
	c-15 -181 93 -229 220 -334
	c88 -87 79 -133 62 -210
	c-51 33 -94 105 -89 186
	c17 267 36 374 49 574
	c6 96 -19 134 -77 135
	c-80 1 -126 -93 -61 -133
	c85 -41 133 101 31 105
	c23 17 92 37 90 -92
	c-10 -223 -39 -342 -50 -617
	c0 -90 0 -162 96 -232
	c56 72 63 230 22 289
	c-74 106 -257 168 -255 316
	c9 153 148 185 252 133
	c86 -65 29 -192 -80 -176
	c-71 12 -105 67 -59 124"/>
<use id="tclef" transform="scale(0.045)"
	xlink:href="#utclef"/>
</defs>
<use x="25.33" y="108.01" xlink:href="#tclef"/>
<defs>
<path id="uflat" fill="currentColor" d="
	m100 -746
	h32
	v734
	l-32 4
	m32 -332
	c46 -72 152 -90 208 -20
	c100 110 -120 326 -208 348
	m0 -28
	c54 0 200 -206 130 -290
	c-50 -60 -130 -4 -130 34"/>
<use id="ft0" transform="translate(-3.5,3.5) scale(0.018)"
	xlink:href="#uflat"/>
</defs>
<use x="40.33" y="96.01" xlink:href="#ft0"/>
<use x="45.83" y="87.01" xlink:href="#ft0"/>
<g font-family="serif" font-size="16" font-weight="bold" font-style="normal"
	transform="translate(61.83,108.01) scale(1.2,1)">
	<text y="-1" text-anchor="middle">4</text>
	<text y="-13" text-anchor="middle">2</text>
</g>
<use x="79.83" y="96.01" xlink:href="#hd"/>
<path d="M83.33 96.01v-20.00" stroke="currentColor" fill="none"/>
<path fill="currentColor"
	d="	M83.33 76.01c0.6 5.6 9.6 9 5.6 18.4
	c1.6 -6 -1.3 -11.6 -5.6 -12.8
"/>
<use x="104.83" y="102.01" xlink:href="#hd"/>
<path d="M108.33 102.01v-20.00" stroke="currentColor" fill="none"/>
<path fill="currentColor"
	d="	M108.33 82.01c0.6 5.6 9.6 9 5.6 18.4
	c1.6 -6 -1.3 -11.6 -5.6 -12.8
"/>
<use x="129.83" y="90.01" xlink:href="#hd"/>
<path d="M126.33 90.01v20.00" stroke="currentColor" fill="none"/>
<use x="170.33" y="90.01" xlink:href="#hd"/>
<circle fill="currentColor" cx="178.33" cy="87.01" r="1.2"/>
<path d="M166.83 90.01v20.00" stroke="currentColor" fill="none"/>
<path fill="currentColor"
	d="M206.13 116.01l16.50 2.30v-3.20l-16.50 -2.30"/>
<path fill="currentColor"
	d="M206.43 111.01l15.80 2.20v-3.20l-15.80 -2.20"/>
<use x="209.93" y="93.01" xlink:href="#hd"/>
<path d="M206.43 93.01v22.00" stroke="currentColor" fill="none"/>
<use x="225.73" y="96.01" xlink:href="#hd"/>
<path d="M222.23 96.01v21.20" stroke="currentColor" fill="none"/>
<path fill="currentColor"
	d="M255.73 76.81l16.50 2.30v3.20l-16.50 -2.30"/>
<path fill="currentColor"
	d="M256.03 81.81l15.80 2.20v3.20l-15.80 -2.20"/>
<use x="252.53" y="99.01" xlink:href="#hd"/>
<path d="M256.03 99.01v-21.20" stroke="currentColor" fill="none"/>
<use x="268.33" y="102.01" xlink:href="#hd"/>
<path d="M271.83 102.01v-22.00" stroke="currentColor" fill="none"/>
<path fill="currentColor"
	d="M289.03 74.31l16.50 -3.60v3.20l-16.50 3.60"/>
<path fill="currentColor"
	d="M289.33 79.21l15.80 -3.40v3.20l-15.80 3.40"/>
<use x="285.83" y="99.01" xlink:href="#hd"/>
<path d="M289.33 99.01v-23.80" stroke="currentColor" fill="none"/>
<use x="301.63" y="93.01" xlink:href="#hd"/>
<path d="M305.13 93.01v-21.20" stroke="currentColor" fill="none"/>
<path fill="currentColor"
	d="M322.33 73.71l18.70 3.70v3.20l-18.70 -3.70"/>
<path fill="currentColor"
	d="M322.63 78.81l18.00 3.60v3.20l-18.00 -3.60"/>
<use x="319.13" y="96.01" xlink:href="#hd"/>
<path d="M322.63 96.01v-21.20" stroke="currentColor" fill="none"/>
<use x="337.13" y="102.01" xlink:href="#hd"/>
<use x="328.13" y="102.01" xlink:href="#ft0"/>
<path d="M340.63 102.01v-23.60" stroke="currentColor" fill="none"/>
<path fill="currentColor"
	d="M358.33 79.01l16.50 -2.30v3.20l-16.50 2.30"/>
<path fill="currentColor"
	d="M358.63 84.01l15.80 -2.20v3.20l-15.80 2.20"/>
<use x="355.13" y="102.01" xlink:href="#hd"/>
<defs>
<path id="unat" fill="currentColor" d="
	m96 -750
	h-32
	v716
	l32 -8
	l182 -54
	v282
	h32
	v-706
	l-34 10
	l-180 50
	v-290
	m0 592
	v-190
	l182 -52
	v188"/>
<use id="nt0" transform="translate(-3,5) scale(0.018)"
	xlink:href="#unat"/>
</defs>
<use x="346.13" y="102.01" xlink:href="#nt0"/>
<path d="M358.63 102.01v-22.00" stroke="currentColor" fill="none"/>
<use x="370.93" y="99.01" xlink:href="#hd"/>
<path d="M374.43 99.01v-21.20" stroke="currentColor" fill="none"/>
<use x="397.83" y="111.01" xlink:href="#hd"/>
<path d="M401.33 111.01v-20.00" stroke="currentColor" fill="none"/>
<path fill="currentColor"
	d="	M401.33 91.01c0.6 5.6 9.6 9 5.6 18.4
	c1.6 -6 -1.3 -11.6 -5.6 -12.8
"/>
<use x="423.33" y="102.01" xlink:href="#hd"/>
<use x="414.33" y="102.01" xlink:href="#ft0"/>
<path d="M426.83 102.01v-20.00" stroke="currentColor" fill="none"/>
<path fill="currentColor"
	d="	M426.83 82.01c0.6 5.6 9.6 9 5.6 18.4
	c1.6 -6 -1.3 -11.6 -5.6 -12.8
"/>
<use x="448.83" y="102.01" xlink:href="#hd"/>
<use x="439.83" y="102.01" xlink:href="#nt0"/>
<path d="M452.33 102.01v-20.00" stroke="currentColor" fill="none"/>
<use x="489.23" y="102.01" xlink:href="#hd"/>
<path d="M492.73 102.01v-20.00" stroke="currentColor" fill="none"/>
<path fill="currentColor"
	d="	M492.73 82.01c0.6 5.6 9.6 9 5.6 18.4
	c1.6 -6 -1.3 -11.6 -5.6 -12.8
"/>
<use x="514.23" y="96.01" xlink:href="#hd"/>
<path d="M517.73 96.01v-20.00" stroke="currentColor" fill="none"/>
<path fill="currentColor"
	d="	M517.73 76.01c0.6 5.6 9.6 9 5.6 18.4
	c1.6 -6 -1.3 -11.6 -5.6 -12.8
"/>
<use x="539.13" y="99.01" xlink:href="#hd"/>
<path d="M542.63 99.01v-20.00" stroke="currentColor" fill="none"/>
<path fill="currentColor"
	d="	M542.63 79.01c0.6 5.6 9.6 9 5.6 18.4
	c1.6 -6 -1.3 -11.6 -5.6 -12.8
"/>
<path fill="currentColor"
	d="M567.23 79.81l16.50 2.30v3.20l-16.50 -2.30"/>
<path fill="currentColor"
	d="M567.63 84.81l15.80 2.20v3.20l-15.80 -2.20"/>
<use x="564.13" y="102.01" xlink:href="#hd"/>
<path d="M567.63 102.01v-21.20" stroke="currentColor" fill="none"/>
<use x="579.93" y="105.01" xlink:href="#hd"/>
<path d="M583.43 105.01v-22.00" stroke="currentColor" fill="none"/>
<use x="606.73" y="102.01" xlink:href="#hd"/>
<path d="M610.23 102.01v-20.00" stroke="currentColor" fill="none"/>
<path fill="currentColor"
	d="	M610.23 82.01c0.6 5.6 9.6 9 5.6 18.4
	c1.6 -6 -1.3 -11.6 -5.6 -12.8
"/>
<path fill="currentColor"
	d="M634.83 82.81l18.70 2.30v3.20l-18.70 -2.30"/>
<path fill="currentColor"
	d="M635.13 87.81l18.00 2.20v3.20l-18.00 -2.20"/>
<use x="631.63" y="105.01" xlink:href="#hd"/>
<path d="M635.13 105.01v-21.20" stroke="currentColor" fill="none"/>
<use x="649.63" y="108.01" xlink:href="#hd"/>
<use x="640.63" y="108.01" xlink:href="#nt0"/>
<path d="M653.13 108.01v-22.00" stroke="currentColor" fill="none"/>
<use x="667.13" y="105.01" xlink:href="#hd"/>
<path d="M670.63 105.01v-20.00" stroke="currentColor" fill="none"/>
<path fill="currentColor"
	d="M133.33 90.01c5.27 -5.10 28.18 -5.10 33.45 -0.00
	l0.00 -0.23c-6.27 -6.87 -27.18 -6.87 -33.45 0.23"/>
<path fill="currentColor"
	d="M452.33 102.01c5.27 5.10 28.18 5.10 33.45 -0.00
	l0.00 0.23c-6.27 6.87 -27.18 6.87 -33.45 -0.23"/>
</g>
</svg>
