<?xml version="1.0" standalone="no"?>
<!DOCTYPE svg PUBLIC "-//W3C//DTD SVG 1.1//EN"
	"http://www.w3.org/Graphics/SVG/1.1/DTD/svg11.dtd">
<svg xmlns="http://www.w3.org/2000/svg" version="1.1"
	xmlns:xlink="http://www.w3.org/1999/xlink"
	xml:space='preserve' color="black"
	width="7.38in" height="1.40in" viewBox="0 0 531 101">
<title>1854.abc (1854) tune 1</title>
<!-- Creator: abcm2ps-7.8.14 -->
<!-- CreationDate: Mar 13, 2016 18:53 -->
<!-- CommandLine: -qxg 1854.abc -O ../svgs/1854.svg -->
<g transform="scale(0.750)" stroke-width="0.70" font-family="Times" font-size="20.00">
<text x="354.13" y="21.67" text-anchor="middle">1854.  Quartet in F, 3rd. Mvt. - 2nd. Theme</text>
</g>
<g transform="scale(0.750)" stroke-width="0.70" font-family="Times" font-size="14.00" font-style="italic">
<text x="694.93" y="45.34" text-anchor="end">Michael Glinka</text>
</g>
<g transform="scale(0.525)" stroke-width="0.70" font-family="Times" font-size="14.00" font-style="italic">
<defs>
<ellipse id="hd" rx="4.1" ry="2.9"
	transform="rotate(-20)" fill="currentColor"/>
</defs>
<use x="114.90" y="94.16" xlink:href="#hd"/>
<path d="M118.40 94.16v-20.00" stroke="currentColor" fill="none"/>
</g>
<g transform="scale(0.750)" stroke-width="0.70" font-family="Times" font-size="15.00" font-weight="bold">
<text x="88.13" y="68.01">= 120</text>
<path stroke="currentColor" fill="none"
	d="M182.63 111.01v-24.00"/>
<path stroke="currentColor" fill="none"
	d="M325.13 111.01v-24.00"/>
<path stroke="currentColor" fill="none"
	d="M526.33 111.01v-24.00"/>
<path stroke="currentColor" fill="none"
	d="M694.93 111.01v-24.00"/>
<path stroke="currentColor" fill="none"
	d="M13.33 111.01h681.60m-681.60 -6h681.60m-681.60 -6h681.60m-681.60 -6h681.60m-681.60 -6h681.60"/>
<defs>
<path id="utclef" fill="currentColor" d="m-50 -90
	c-72 -41 -72 -158 52 -188
	c150 -10 220 188 90 256
	c-114 52 -275 0 -293 -136
	c-15 -181 93 -229 220 -334
	c88 -87 79 -133 62 -210
	c-51 33 -94 105 -89 186
	c17 267 36 374 49 574
	c6 96 -19 134 -77 135
	c-80 1 -126 -93 -61 -133
	c85 -41 133 101 31 105
	c23 17 92 37 90 -92
	c-10 -223 -39 -342 -50 -617
	c0 -90 0 -162 96 -232
	c56 72 63 230 22 289
	c-74 106 -257 168 -255 316
	c9 153 148 185 252 133
	c86 -65 29 -192 -80 -176
	c-71 12 -105 67 -59 124"/>
<use id="tclef" transform="scale(0.045)"
	xlink:href="#utclef"/>
</defs>
<use x="25.33" y="111.01" xlink:href="#tclef"/>
<defs>
<path id="uflat" fill="currentColor" d="
	m100 -746
	h32
	v734
	l-32 4
	m32 -332
	c46 -72 152 -90 208 -20
	c100 110 -120 326 -208 348
	m0 -28
	c54 0 200 -206 130 -290
	c-50 -60 -130 -4 -130 34"/>
<use id="ft0" transform="translate(-3.5,3.5) scale(0.018)"
	xlink:href="#uflat"/>
</defs>
<use x="40.33" y="99.01" xlink:href="#ft0"/>
<use x="45.83" y="90.01" xlink:href="#ft0"/>
<g font-family="serif" font-size="16" font-weight="bold" font-style="normal"
	transform="translate(61.83,111.01) scale(1.2,1)">
	<text y="-1" text-anchor="middle">4</text>
	<text y="-13" text-anchor="middle">3</text>
</g>
<defs>
<path id="hl" stroke="currentColor" d="m-6 0h12"/>
</defs>
<use x="79.83" y="81.01" xlink:href="#hl"/>
<use x="79.83" y="78.01" xlink:href="#hd"/>
<path d="M76.33 78.01v21.00" stroke="currentColor" fill="none"/>
<defs>
<path id="Hd" fill="currentColor" d="m3 -1.6
	c-1 -1.8 -7 1.4 -6 3.2
	c1 1.8 7 -1.4 6 -3.2
	m0.5 -0.3
	c2 3.8 -5 7.6 -7 3.8
	c-2 -3.8 5 -7.6 7 -3.8"/>
</defs>
<use x="128.03" y="93.01" xlink:href="#Hd"/>
<path d="M124.53 93.01v20.00" stroke="currentColor" fill="none"/>
<use x="199.63" y="87.01" xlink:href="#hd"/>
<path d="M196.13 87.01v20.00" stroke="currentColor" fill="none"/>
<use x="243.03" y="102.01" xlink:href="#hd"/>
<circle fill="currentColor" cx="251.03" cy="102.01" r="1.2"/>
<path d="M246.53 102.01v-20.00" stroke="currentColor" fill="none"/>
<use x="297.83" y="96.01" xlink:href="#hd"/>
<path d="M294.33 96.01v20.00" stroke="currentColor" fill="none"/>
<path fill="currentColor"
	d="M294.33 116.01c0.6 -5.6 9.6 -9 5.6 -18.4
	c1.6 6 -1.3 11.6 -5.6 12.8
"/>
<path fill="currentColor"
	d="M338.33 109.21l62.10 -4.60v-3.20l-62.10 4.60"/>
<use x="342.23" y="90.01" xlink:href="#hd"/>
<path d="M338.73 90.01v18.20" stroke="currentColor" fill="none"/>
<use x="372.93" y="87.01" xlink:href="#hd"/>
<path d="M369.43 87.01v18.90" stroke="currentColor" fill="none"/>
<use x="403.63" y="81.01" xlink:href="#hl"/>
<use x="403.63" y="81.01" xlink:href="#hd"/>
<path d="M400.13 81.01v22.60" stroke="currentColor" fill="none"/>
<path fill="currentColor"
	d="M433.83 99.21l62.10 0.00v-3.20l-62.10 -0.00"/>
<use x="437.73" y="81.01" xlink:href="#hl"/>
<use x="437.73" y="78.01" xlink:href="#hd"/>
<path d="M434.23 78.01v20.20" stroke="currentColor" fill="none"/>
<use x="468.33" y="81.01" xlink:href="#hl"/>
<use x="468.33" y="78.01" xlink:href="#hd"/>
<defs>
<path id="unat" fill="currentColor" d="
	m96 -750
	h-32
	v716
	l32 -8
	l182 -54
	v282
	h32
	v-706
	l-34 10
	l-180 50
	v-290
	m0 592
	v-190
	l182 -52
	v188"/>
<use id="nt0" transform="translate(-3,5) scale(0.018)"
	xlink:href="#unat"/>
</defs>
<use x="459.33" y="78.01" xlink:href="#nt0"/>
<path d="M464.83 78.01v20.20" stroke="currentColor" fill="none"/>
<use x="499.03" y="81.01" xlink:href="#hl"/>
<use x="499.03" y="75.01" xlink:href="#hl"/>
<use x="499.03" y="75.01" xlink:href="#hd"/>
<path d="M495.53 75.01v23.20" stroke="currentColor" fill="none"/>
<path fill="currentColor"
	d="M539.53 99.21l31.40 0.00v-3.20l-31.40 -0.00"/>
<use x="543.43" y="81.01" xlink:href="#hl"/>
<use x="543.43" y="75.01" xlink:href="#hl"/>
<use x="543.43" y="72.01" xlink:href="#hd"/>
<path d="M539.93 72.01v26.20" stroke="currentColor" fill="none"/>
<use x="574.03" y="81.01" xlink:href="#hl"/>
<use x="574.03" y="75.01" xlink:href="#hl"/>
<use x="574.03" y="75.01" xlink:href="#hd"/>
<path d="M570.53 75.01v23.20" stroke="currentColor" fill="none"/>
<use x="608.13" y="81.01" xlink:href="#hl"/>
<use x="608.13" y="78.01" xlink:href="#hd"/>
<use x="599.13" y="78.01" xlink:href="#ft0"/>
<path d="M604.63 78.01v21.00" stroke="currentColor" fill="none"/>
<use x="656.33" y="87.01" xlink:href="#hd"/>
<path d="M652.83 87.01v20.00" stroke="currentColor" fill="none"/>
</g>
</svg>
