<?xml version="1.0" standalone="no"?>
<!DOCTYPE svg PUBLIC "-//W3C//DTD SVG 1.1//EN"
	"http://www.w3.org/Graphics/SVG/1.1/DTD/svg11.dtd">
<svg xmlns="http://www.w3.org/2000/svg" version="1.1"
	xmlns:xlink="http://www.w3.org/1999/xlink"
	xml:space='preserve' color="black"
	width="7.38in" height="1.46in" viewBox="0 0 531 105">
<title>1871.abc (1871) tune 1</title>
<!-- Creator: abcm2ps-7.8.14 -->
<!-- CreationDate: Mar 13, 2016 18:53 -->
<!-- CommandLine: -qxg 1871.abc -O ../svgs/1871.svg -->
<g transform="scale(0.750)" stroke-width="0.70" font-family="Times" font-size="20.00">
<text x="354.13" y="21.67" text-anchor="middle">1871.  Air de Ballet, Act IV, 2nd. Mvt. - March</text>
</g>
<g transform="scale(0.750)" stroke-width="0.70" font-family="Times" font-size="14.00" font-style="italic">
<text x="694.93" y="45.34" text-anchor="end">Christoph Gluck</text>
</g>
<g transform="scale(0.525)" stroke-width="0.70" font-family="Times" font-size="14.00" font-style="italic">
<defs>
<ellipse id="hd" rx="4.1" ry="2.9"
	transform="rotate(-20)" fill="currentColor"/>
</defs>
<use x="115.61" y="94.16" xlink:href="#hd"/>
<path d="M119.11 94.16v-20.00" stroke="currentColor" fill="none"/>
</g>
<g transform="scale(0.750)" stroke-width="0.70" font-family="Times" font-size="15.00" font-weight="bold">
<text x="88.63" y="68.01">= 120</text>
<path stroke="currentColor" fill="none"
	d="M200.63 117.01v-24.00"/>
<path stroke="currentColor" fill="none"
	d="M373.23 117.01v-24.00"/>
<path stroke="currentColor" fill="none"
	d="M549.53 117.01v-24.00"/>
<path stroke="currentColor" fill="none"
	d="M13.33 117.01h681.60m-681.60 -6h681.60m-681.60 -6h681.60m-681.60 -6h681.60m-681.60 -6h681.60"/>
<defs>
<path id="utclef" fill="currentColor" d="m-50 -90
	c-72 -41 -72 -158 52 -188
	c150 -10 220 188 90 256
	c-114 52 -275 0 -293 -136
	c-15 -181 93 -229 220 -334
	c88 -87 79 -133 62 -210
	c-51 33 -94 105 -89 186
	c17 267 36 374 49 574
	c6 96 -19 134 -77 135
	c-80 1 -126 -93 -61 -133
	c85 -41 133 101 31 105
	c23 17 92 37 90 -92
	c-10 -223 -39 -342 -50 -617
	c0 -90 0 -162 96 -232
	c56 72 63 230 22 289
	c-74 106 -257 168 -255 316
	c9 153 148 185 252 133
	c86 -65 29 -192 -80 -176
	c-71 12 -105 67 -59 124"/>
<use id="tclef" transform="scale(0.045)"
	xlink:href="#utclef"/>
</defs>
<use x="25.33" y="117.01" xlink:href="#tclef"/>
<defs>
<path id="usharp" fill="currentColor" d="
	m136 -702
	v890
	h32
	v-890
	m128 840
	h32
	v-888
	h-32
	m-232 286
	v116
	l338 -96
	v-116
	m-338 442
	v116
	l338 -98
	v-114"/>
<use id="sh0" transform="translate(-4,5) scale(0.018)"
	xlink:href="#usharp"/>
</defs>
<use x="40.33" y="93.01" xlink:href="#sh0"/>
<use x="45.83" y="102.01" xlink:href="#sh0"/>
<g font-family="serif" font-size="16" font-weight="bold" font-style="normal"
	transform="translate(61.83,117.01) scale(1.2,1)">
	<text y="-1" text-anchor="middle">4</text>
	<text y="-13" text-anchor="middle">4</text>
</g>
<defs>
<path id="hl" stroke="currentColor" d="m-6 0h12"/>
</defs>
<use x="80.33" y="87.01" xlink:href="#hl"/>
<use x="80.33" y="81.01" xlink:href="#hl"/>
<defs>
<path id="Hd" fill="currentColor" d="m3 -1.6
	c-1 -1.8 -7 1.4 -6 3.2
	c1 1.8 7 -1.4 6 -3.2
	m0.5 -0.3
	c2 3.8 -5 7.6 -7 3.8
	c-2 -3.8 5 -7.6 7 -3.8"/>
</defs>
<use x="80.33" y="78.01" xlink:href="#Hd"/>
<path d="M76.83 78.01v27.00" stroke="currentColor" fill="none"/>
<use x="134.93" y="87.01" xlink:href="#hl"/>
<use x="134.93" y="87.01" xlink:href="#hd"/>
<circle fill="currentColor" cx="142.93" cy="84.01" r="1.2"/>
<path d="M131.43 87.01v20.00" stroke="currentColor" fill="none"/>
<use x="178.83" y="87.01" xlink:href="#hl"/>
<use x="178.83" y="84.01" xlink:href="#hd"/>
<path d="M175.33 84.01v21.00" stroke="currentColor" fill="none"/>
<path fill="currentColor"
	d="M175.33 105.01c0.6 -5.6 9.6 -9 5.6 -18.4
	c1.6 6 -1.3 11.6 -5.6 12.8
"/>
<use x="214.33" y="87.01" xlink:href="#hl"/>
<use x="214.33" y="87.01" xlink:href="#hd"/>
<path d="M210.83 87.01v20.00" stroke="currentColor" fill="none"/>
<use x="252.93" y="93.01" xlink:href="#hd"/>
<path d="M249.43 93.01v20.00" stroke="currentColor" fill="none"/>
<path fill="currentColor"
	d="M249.43 113.01c0.6 -5.6 9.6 -9 5.6 -18.4
	c1.6 6 -1.3 11.6 -5.6 12.8
"/>
<use x="280.23" y="93.01" xlink:href="#hd"/>
<path d="M276.73 93.01v20.00" stroke="currentColor" fill="none"/>
<path fill="currentColor"
	d="M276.73 113.01c0.6 -5.6 9.6 -9 5.6 -18.4
	c1.6 6 -1.3 11.6 -5.6 12.8
"/>
<use x="307.53" y="93.01" xlink:href="#hd"/>
<circle fill="currentColor" cx="315.53" cy="90.01" r="1.2"/>
<path d="M304.03 93.01v20.00" stroke="currentColor" fill="none"/>
<use x="351.43" y="90.01" xlink:href="#hd"/>
<path d="M347.93 90.01v20.00" stroke="currentColor" fill="none"/>
<path fill="currentColor"
	d="M347.93 110.01c0.6 -5.6 9.6 -9 5.6 -18.4
	c1.6 6 -1.3 11.6 -5.6 12.8
"/>
<use x="386.93" y="87.01" xlink:href="#hl"/>
<use x="386.93" y="87.01" xlink:href="#hd"/>
<path d="M383.43 87.01v20.00" stroke="currentColor" fill="none"/>
<use x="425.53" y="87.01" xlink:href="#hl"/>
<use x="425.53" y="87.01" xlink:href="#hd"/>
<path d="M422.03 87.01v20.00" stroke="currentColor" fill="none"/>
<path fill="currentColor"
	d="M422.03 107.01c0.6 -5.6 9.6 -9 5.6 -18.4
	c1.6 6 -1.3 11.6 -5.6 12.8
"/>
<use x="452.83" y="87.01" xlink:href="#hl"/>
<use x="452.83" y="84.01" xlink:href="#hd"/>
<path d="M449.33 84.01v21.00" stroke="currentColor" fill="none"/>
<path fill="currentColor"
	d="M449.33 105.01c0.6 -5.6 9.6 -9 5.6 -18.4
	c1.6 6 -1.3 11.6 -5.6 12.8
"/>
<use x="480.13" y="87.01" xlink:href="#hl"/>
<use x="480.13" y="87.01" xlink:href="#hd"/>
<path d="M476.63 87.01v20.00" stroke="currentColor" fill="none"/>
<use x="518.73" y="90.01" xlink:href="#hd"/>
<path d="M515.23 90.01v20.00" stroke="currentColor" fill="none"/>
<use x="563.23" y="93.01" xlink:href="#hd"/>
<path d="M559.73 93.01v20.00" stroke="currentColor" fill="none"/>
<use x="601.83" y="99.01" xlink:href="#hd"/>
<path d="M598.33 99.01v20.00" stroke="currentColor" fill="none"/>
<path fill="currentColor"
	d="M598.33 119.01c0.6 -5.6 9.6 -9 5.6 -18.4
	c1.6 6 -1.3 11.6 -5.6 12.8
"/>
<use x="629.13" y="99.01" xlink:href="#hd"/>
<path d="M625.63 99.01v20.00" stroke="currentColor" fill="none"/>
<path fill="currentColor"
	d="M625.63 119.01c0.6 -5.6 9.6 -9 5.6 -18.4
	c1.6 6 -1.3 11.6 -5.6 12.8
"/>
<use x="656.43" y="99.01" xlink:href="#hd"/>
<path d="M652.93 99.01v20.00" stroke="currentColor" fill="none"/>
</g>
</svg>
