<?xml version="1.0" standalone="no"?>
<!DOCTYPE svg PUBLIC "-//W3C//DTD SVG 1.1//EN"
	"http://www.w3.org/Graphics/SVG/1.1/DTD/svg11.dtd">
<svg xmlns="http://www.w3.org/2000/svg" version="1.1"
	xmlns:xlink="http://www.w3.org/1999/xlink"
	xml:space='preserve' color="black"
	width="7.38in" height="1.36in" viewBox="0 0 531 98">
<title>1876.abc (1876) tune 1</title>
<!-- Creator: abcm2ps-7.8.14 -->
<!-- CreationDate: Mar 13, 2016 18:53 -->
<!-- CommandLine: -qxg 1876.abc -O ../svgs/1876.svg -->
<g transform="scale(0.750)" stroke-width="0.70" font-family="Times" font-size="20.00">
<text x="354.13" y="21.67" text-anchor="middle">1876.  Armide, Musette, from Ballet, Act IV</text>
</g>
<g transform="scale(0.750)" stroke-width="0.70" font-family="Times" font-size="14.00" font-style="italic">
<text x="694.93" y="45.34" text-anchor="end">Christoph Gluck</text>
</g>
<g transform="scale(0.525)" stroke-width="0.70" font-family="Times" font-size="14.00" font-style="italic">
<defs>
<ellipse id="hd" rx="4.1" ry="2.9"
	transform="rotate(-20)" fill="currentColor"/>
</defs>
<use x="107.04" y="94.16" xlink:href="#hd"/>
<path d="M110.54 94.16v-20.00" stroke="currentColor" fill="none"/>
</g>
<g transform="scale(0.750)" stroke-width="0.70" font-family="Times" font-size="15.00" font-weight="bold">
<text x="82.63" y="68.01">= 120</text>
<path stroke="currentColor" fill="none"
	d="M199.83 108.01v-24.00"/>
<path stroke="currentColor" fill="none"
	d="M336.13 108.01v-24.00"/>
<path stroke="currentColor" fill="none"
	d="M516.43 108.01v-24.00"/>
<path stroke="currentColor" fill="none"
	d="M694.93 108.01v-24.00"/>
<path stroke="currentColor" fill="none"
	d="M13.33 108.01h681.60m-681.60 -6h681.60m-681.60 -6h681.60m-681.60 -6h681.60m-681.60 -6h681.60"/>
<defs>
<path id="utclef" fill="currentColor" d="m-50 -90
	c-72 -41 -72 -158 52 -188
	c150 -10 220 188 90 256
	c-114 52 -275 0 -293 -136
	c-15 -181 93 -229 220 -334
	c88 -87 79 -133 62 -210
	c-51 33 -94 105 -89 186
	c17 267 36 374 49 574
	c6 96 -19 134 -77 135
	c-80 1 -126 -93 -61 -133
	c85 -41 133 101 31 105
	c23 17 92 37 90 -92
	c-10 -223 -39 -342 -50 -617
	c0 -90 0 -162 96 -232
	c56 72 63 230 22 289
	c-74 106 -257 168 -255 316
	c9 153 148 185 252 133
	c86 -65 29 -192 -80 -176
	c-71 12 -105 67 -59 124"/>
<use id="tclef" transform="scale(0.045)"
	xlink:href="#utclef"/>
</defs>
<use x="25.33" y="108.01" xlink:href="#tclef"/>
<defs>
<path id="uflat" fill="currentColor" d="
	m100 -746
	h32
	v734
	l-32 4
	m32 -332
	c46 -72 152 -90 208 -20
	c100 110 -120 326 -208 348
	m0 -28
	c54 0 200 -206 130 -290
	c-50 -60 -130 -4 -130 34"/>
<use id="ft0" transform="translate(-3.5,3.5) scale(0.018)"
	xlink:href="#uflat"/>
</defs>
<use x="40.33" y="96.01" xlink:href="#ft0"/>
<g font-family="serif" font-size="16" font-weight="bold" font-style="normal"
	transform="translate(56.33,108.01) scale(1.2,1)">
	<text y="-1" text-anchor="middle">4</text>
	<text y="-13" text-anchor="middle">4</text>
</g>
<defs>
<path id="hl" stroke="currentColor" d="m-6 0h12"/>
</defs>
<use x="74.33" y="78.01" xlink:href="#hl"/>
<use x="74.33" y="78.01" xlink:href="#hd"/>
<path d="M70.83 78.01v20.00" stroke="currentColor" fill="none"/>
<defs>
<path id="Hd" fill="currentColor" d="m3 -1.6
	c-1 -1.8 -7 1.4 -6 3.2
	c1 1.8 7 -1.4 6 -3.2
	m0.5 -0.3
	c2 3.8 -5 7.6 -7 3.8
	c-2 -3.8 5 -7.6 7 -3.8"/>
</defs>
<use x="113.43" y="84.01" xlink:href="#Hd"/>
<path d="M109.93 84.01v20.00" stroke="currentColor" fill="none"/>
<use x="168.63" y="84.01" xlink:href="#hd"/>
<path d="M165.13 84.01v20.00" stroke="currentColor" fill="none"/>
<use x="213.73" y="84.01" xlink:href="#hd"/>
<path d="M210.23 84.01v20.00" stroke="currentColor" fill="none"/>
<use x="252.83" y="81.01" xlink:href="#hd"/>
<use x="243.83" y="81.01" xlink:href="#ft0"/>
<path d="M249.33 81.01v20.00" stroke="currentColor" fill="none"/>
<use x="291.93" y="81.01" xlink:href="#Hd"/>
<defs>
<path id="unat" fill="currentColor" d="
	m96 -750
	h-32
	v716
	l32 -8
	l182 -54
	v282
	h32
	v-706
	l-34 10
	l-180 50
	v-290
	m0 592
	v-190
	l182 -52
	v188"/>
<use id="nt0" transform="translate(-3,5) scale(0.018)"
	xlink:href="#unat"/>
</defs>
<use x="281.93" y="81.01" xlink:href="#nt0"/>
<path d="M288.43 81.01v20.00" stroke="currentColor" fill="none"/>
<use x="349.93" y="78.01" xlink:href="#hl"/>
<use x="349.93" y="75.01" xlink:href="#hd"/>
<path d="M346.43 75.01v21.00" stroke="currentColor" fill="none"/>
<use x="389.03" y="87.01" xlink:href="#hd"/>
<path d="M385.53 87.01v20.00" stroke="currentColor" fill="none"/>
<use x="428.03" y="87.01" xlink:href="#hd"/>
<path d="M424.53 87.01v20.00" stroke="currentColor" fill="none"/>
<defs>
<path id="r8e" fill="currentColor" d="m 0 0
	c-1.5 1.5 -2.4 2 -3.6 2
	c2.4 -2.8 -2.8 -4 -2.8 -1.2
	c0 2.7 4.3 2.4 5.9 0.6"/>
<g id="r32">
	<path d="m4.8 -10l-5.5 21.6" stroke="currentColor" fill="none"/>
	<use x="4.9" y="-10" xlink:href="#r8e"/>
	<use x="3.4" y="-4" xlink:href="#r8e"/>
	<use x="1.9" y="2" xlink:href="#r8e"/>
</g>
</defs>
<use x="463.23" y="96.01" xlink:href="#r32"/>
<path fill="currentColor"
	d="M473.23 115.01l29.00 0.00v-3.20l-29.00 -0.00"/>
<path fill="currentColor"
	d="M495.93 110.01l6.00 0.00v-3.20l-6.00 -0.00"/>
<path fill="currentColor"
	d="M495.93 105.01l6.00 0.00v-3.20l-6.00 -0.00"/>
<use x="477.03" y="87.01" xlink:href="#hd"/>
<circle fill="currentColor" cx="485.03" cy="87.01" r="1.2"/>
<path d="M473.53 87.01v27.00" stroke="currentColor" fill="none"/>
<use x="505.43" y="87.01" xlink:href="#hd"/>
<path d="M501.93 87.01v27.00" stroke="currentColor" fill="none"/>
<use x="530.33" y="90.01" xlink:href="#hd"/>
<path d="M526.83 90.01v20.00" stroke="currentColor" fill="none"/>
<path fill="currentColor"
	d="M526.83 110.01c0.6 -5.6 9.6 -9 5.6 -18.4
	c1.6 6 -1.3 11.6 -5.6 12.8
"/>
<use x="557.93" y="87.01" xlink:href="#hd"/>
<path d="M554.43 87.01v20.00" stroke="currentColor" fill="none"/>
<path fill="currentColor"
	d="M554.43 107.01c0.6 -5.6 9.6 -9 5.6 -18.4
	c1.6 6 -1.3 11.6 -5.6 12.8
"/>
<use x="585.53" y="84.01" xlink:href="#hd"/>
<path d="M582.03 84.01v20.00" stroke="currentColor" fill="none"/>
<use x="624.63" y="78.01" xlink:href="#hl"/>
<use x="624.63" y="78.01" xlink:href="#hd"/>
<path d="M621.13 78.01v20.00" stroke="currentColor" fill="none"/>
<use x="663.73" y="93.01" xlink:href="#hd"/>
<path d="M660.23 93.01v20.00" stroke="currentColor" fill="none"/>
<path fill="currentColor"
	d="M172.13 84.01c6.00 -5.19 32.09 -5.19 38.09 -0.00
	l0.00 -0.24c-7.14 -6.95 -30.95 -6.95 -38.09 0.24"/>
<path fill="currentColor"
	d="M480.53 85.01c3.36 -4.88 17.99 -4.88 21.36 -0.00
	l0.00 -0.22c-4.00 -6.66 -17.35 -6.66 -21.36 0.22"/>
</g>
</svg>
