<?xml version="1.0" standalone="no"?>
<!DOCTYPE svg PUBLIC "-//W3C//DTD SVG 1.1//EN"
	"http://www.w3.org/Graphics/SVG/1.1/DTD/svg11.dtd">
<svg xmlns="http://www.w3.org/2000/svg" version="1.1"
	xmlns:xlink="http://www.w3.org/1999/xlink"
	xml:space='preserve' color="black"
	width="7.38in" height="1.35in" viewBox="0 0 531 98">
<title>1917.abc (1917) tune 1</title>
<!-- Creator: abcm2ps-7.8.14 -->
<!-- CreationDate: Mar 13, 2016 18:53 -->
<!-- CommandLine: -qxg 1917.abc -O ../svgs/1917.svg -->
<g transform="scale(0.750)" stroke-width="0.70" font-family="Times" font-size="20.00">
<text x="354.13" y="21.67" text-anchor="middle">1917.  Tambourin, Vn. and Pft.</text>
</g>
<g transform="scale(0.750)" stroke-width="0.70" font-family="Times" font-size="14.00" font-style="italic">
<text x="694.93" y="45.34" text-anchor="end">Francois Joseph Gossec</text>
</g>
<g transform="scale(0.525)" stroke-width="0.70" font-family="Times" font-size="14.00" font-style="italic">
<defs>
<ellipse id="hd" rx="4.1" ry="2.9"
	transform="rotate(-20)" fill="currentColor"/>
</defs>
<use x="107.04" y="94.16" xlink:href="#hd"/>
<path d="M110.54 94.16v-20.00" stroke="currentColor" fill="none"/>
</g>
<g transform="scale(0.750)" stroke-width="0.70" font-family="Times" font-size="15.00" font-weight="bold">
<text x="82.63" y="68.01">= 120</text>
<path stroke="currentColor" fill="none"
	d="M158.53 107.01v-24.00"/>
<path stroke="currentColor" fill="none"
	d="M219.63 107.01v-24.00"/>
<path stroke="currentColor" fill="none"
	d="M308.83 107.01v-24.00"/>
<path stroke="currentColor" fill="none"
	d="M377.43 107.01v-24.00"/>
<path stroke="currentColor" fill="none"
	d="M463.13 107.01v-24.00"/>
<path stroke="currentColor" fill="none"
	d="M548.73 107.01v-24.00"/>
<path stroke="currentColor" fill="none"
	d="M635.53 107.01v-24.00"/>
<path stroke="currentColor" fill="none"
	d="M13.33 107.01h681.60m-681.60 -6h681.60m-681.60 -6h681.60m-681.60 -6h681.60m-681.60 -6h681.60"/>
<defs>
<path id="utclef" fill="currentColor" d="m-50 -90
	c-72 -41 -72 -158 52 -188
	c150 -10 220 188 90 256
	c-114 52 -275 0 -293 -136
	c-15 -181 93 -229 220 -334
	c88 -87 79 -133 62 -210
	c-51 33 -94 105 -89 186
	c17 267 36 374 49 574
	c6 96 -19 134 -77 135
	c-80 1 -126 -93 -61 -133
	c85 -41 133 101 31 105
	c23 17 92 37 90 -92
	c-10 -223 -39 -342 -50 -617
	c0 -90 0 -162 96 -232
	c56 72 63 230 22 289
	c-74 106 -257 168 -255 316
	c9 153 148 185 252 133
	c86 -65 29 -192 -80 -176
	c-71 12 -105 67 -59 124"/>
<use id="tclef" transform="scale(0.045)"
	xlink:href="#utclef"/>
</defs>
<use x="25.33" y="107.01" xlink:href="#tclef"/>
<defs>
<path id="uflat" fill="currentColor" d="
	m100 -746
	h32
	v734
	l-32 4
	m32 -332
	c46 -72 152 -90 208 -20
	c100 110 -120 326 -208 348
	m0 -28
	c54 0 200 -206 130 -290
	c-50 -60 -130 -4 -130 34"/>
<use id="ft0" transform="translate(-3.5,3.5) scale(0.018)"
	xlink:href="#uflat"/>
</defs>
<use x="40.33" y="95.01" xlink:href="#ft0"/>
<g font-family="serif" font-size="16" font-weight="bold" font-style="normal"
	transform="translate(56.33,107.01) scale(1.2,1)">
	<text y="-1" text-anchor="middle">4</text>
	<text y="-13" text-anchor="middle">2</text>
</g>
<use x="74.33" y="104.01" xlink:href="#hd"/>
<path d="M77.83 104.01v-20.00" stroke="currentColor" fill="none"/>
<path fill="currentColor"
	d="	M77.83 84.01c0.6 5.6 9.6 9 5.6 18.4
	c1.6 -6 -1.3 -11.6 -5.6 -12.8
"/>
<path fill="currentColor"
	d="M98.03 75.71l13.50 2.20v3.20l-13.50 -2.20"/>
<path fill="currentColor"
	d="M98.33 80.81l12.80 2.00v3.20l-12.80 -2.00"/>
<use x="94.83" y="98.01" xlink:href="#hd"/>
<path d="M98.33 98.01v-21.20" stroke="currentColor" fill="none"/>
<use x="107.63" y="101.01" xlink:href="#hd"/>
<path d="M111.13 101.01v-22.20" stroke="currentColor" fill="none"/>
<use x="121.83" y="104.01" xlink:href="#hd"/>
<path d="M125.33 104.01v-20.00" stroke="currentColor" fill="none"/>
<path fill="currentColor"
	d="	M125.33 84.01c0.6 5.6 9.6 9 5.6 18.4
	c1.6 -6 -1.3 -11.6 -5.6 -12.8
"/>
<use x="142.63" y="83.01" xlink:href="#hd"/>
<path d="M139.13 83.01v20.00" stroke="currentColor" fill="none"/>
<path fill="currentColor"
	d="M139.13 103.01c0.6 -5.6 9.6 -9 5.6 -18.4
	c1.6 6 -1.3 11.6 -5.6 12.8
"/>
<use x="171.03" y="104.01" xlink:href="#hd"/>
<circle fill="currentColor" cx="179.03" cy="104.01" r="1.2"/>
<path d="M174.53 104.01v-20.00" stroke="currentColor" fill="none"/>
<use x="202.63" y="104.01" xlink:href="#hd"/>
<path d="M206.13 104.01v-20.00" stroke="currentColor" fill="none"/>
<path fill="currentColor"
	d="	M206.13 84.01c0.6 5.6 9.6 9 5.6 18.4
	c1.6 -6 -1.3 -11.6 -5.6 -12.8
"/>
<use x="232.13" y="98.01" xlink:href="#hd"/>
<path d="M235.63 98.01v-20.00" stroke="currentColor" fill="none"/>
<path fill="currentColor"
	d="	M235.63 78.01c0.6 5.6 9.6 9 5.6 18.4
	c1.6 -6 -1.3 -11.6 -5.6 -12.8
"/>
<use x="252.63" y="95.01" xlink:href="#hd"/>
<path d="M256.13 95.01v-20.00" stroke="currentColor" fill="none"/>
<path fill="currentColor"
	d="	M256.13 75.01c0.6 5.6 9.6 9 5.6 18.4
	c1.6 -6 -1.3 -11.6 -5.6 -12.8
"/>
<use x="273.53" y="92.01" xlink:href="#hd"/>
<path d="M270.03 92.01v20.00" stroke="currentColor" fill="none"/>
<path fill="currentColor"
	d="M270.03 112.01c0.6 -5.6 9.6 -9 5.6 -18.4
	c1.6 6 -1.3 11.6 -5.6 12.8
"/>
<use x="292.93" y="89.01" xlink:href="#hd"/>
<path d="M289.43 89.01v20.00" stroke="currentColor" fill="none"/>
<path fill="currentColor"
	d="M289.43 109.01c0.6 -5.6 9.6 -9 5.6 -18.4
	c1.6 6 -1.3 11.6 -5.6 12.8
"/>
<use x="321.33" y="92.01" xlink:href="#hd"/>
<circle fill="currentColor" cx="329.33" cy="92.01" r="1.2"/>
<path d="M317.83 92.01v20.00" stroke="currentColor" fill="none"/>
<path fill="currentColor"
	d="M349.13 111.31l13.50 -2.20v-3.20l-13.50 2.20"/>
<path fill="currentColor"
	d="M349.43 106.21l12.80 -2.00v-3.20l-12.80 2.00"/>
<use x="352.93" y="89.01" xlink:href="#hd"/>
<path d="M349.43 89.01v21.20" stroke="currentColor" fill="none"/>
<use x="365.83" y="86.01" xlink:href="#hd"/>
<path d="M362.33 86.01v22.20" stroke="currentColor" fill="none"/>
<use x="389.93" y="83.01" xlink:href="#hd"/>
<path d="M386.43 83.01v20.00" stroke="currentColor" fill="none"/>
<path fill="currentColor"
	d="M386.43 103.01c0.6 -5.6 9.6 -9 5.6 -18.4
	c1.6 6 -1.3 11.6 -5.6 12.8
"/>
<use x="407.63" y="104.01" xlink:href="#hd"/>
<path d="M411.13 104.01v-20.00" stroke="currentColor" fill="none"/>
<path fill="currentColor"
	d="	M411.13 84.01c0.6 5.6 9.6 9 5.6 18.4
	c1.6 -6 -1.3 -11.6 -5.6 -12.8
"/>
<use x="428.43" y="86.01" xlink:href="#hd"/>
<path d="M424.93 86.01v20.00" stroke="currentColor" fill="none"/>
<path fill="currentColor"
	d="M424.93 106.01c0.6 -5.6 9.6 -9 5.6 -18.4
	c1.6 6 -1.3 11.6 -5.6 12.8
"/>
<use x="446.13" y="104.01" xlink:href="#hd"/>
<path d="M449.63 104.01v-20.00" stroke="currentColor" fill="none"/>
<path fill="currentColor"
	d="	M449.63 84.01c0.6 5.6 9.6 9 5.6 18.4
	c1.6 -6 -1.3 -11.6 -5.6 -12.8
"/>
<use x="475.63" y="89.01" xlink:href="#hd"/>
<path d="M472.13 89.01v20.00" stroke="currentColor" fill="none"/>
<path fill="currentColor"
	d="M472.13 109.01c0.6 -5.6 9.6 -9 5.6 -18.4
	c1.6 6 -1.3 11.6 -5.6 12.8
"/>
<use x="493.23" y="104.01" xlink:href="#hd"/>
<path d="M496.73 104.01v-20.00" stroke="currentColor" fill="none"/>
<path fill="currentColor"
	d="	M496.73 84.01c0.6 5.6 9.6 9 5.6 18.4
	c1.6 -6 -1.3 -11.6 -5.6 -12.8
"/>
<use x="514.13" y="92.01" xlink:href="#hd"/>
<path d="M510.63 92.01v20.00" stroke="currentColor" fill="none"/>
<path fill="currentColor"
	d="M510.63 112.01c0.6 -5.6 9.6 -9 5.6 -18.4
	c1.6 6 -1.3 11.6 -5.6 12.8
"/>
<use x="531.73" y="104.01" xlink:href="#hd"/>
<path d="M535.23 104.01v-20.00" stroke="currentColor" fill="none"/>
<path fill="currentColor"
	d="	M535.23 84.01c0.6 5.6 9.6 9 5.6 18.4
	c1.6 -6 -1.3 -11.6 -5.6 -12.8
"/>
<use x="561.23" y="95.01" xlink:href="#hd"/>
<path d="M557.73 95.01v20.00" stroke="currentColor" fill="none"/>
<path fill="currentColor"
	d="M557.73 115.01c0.6 -5.6 9.6 -9 5.6 -18.4
	c1.6 6 -1.3 11.6 -5.6 12.8
"/>
<use x="580.73" y="92.01" xlink:href="#hd"/>
<path d="M577.23 92.01v20.00" stroke="currentColor" fill="none"/>
<path fill="currentColor"
	d="M577.23 112.01c0.6 -5.6 9.6 -9 5.6 -18.4
	c1.6 6 -1.3 11.6 -5.6 12.8
"/>
<use x="600.13" y="89.01" xlink:href="#hd"/>
<path d="M596.63 89.01v20.00" stroke="currentColor" fill="none"/>
<path fill="currentColor"
	d="M596.63 109.01c0.6 -5.6 9.6 -9 5.6 -18.4
	c1.6 6 -1.3 11.6 -5.6 12.8
"/>
<use x="619.63" y="95.01" xlink:href="#hd"/>
<path d="M616.13 95.01v20.00" stroke="currentColor" fill="none"/>
<path fill="currentColor"
	d="M616.13 115.01c0.6 -5.6 9.6 -9 5.6 -18.4
	c1.6 6 -1.3 11.6 -5.6 12.8
"/>
<use x="648.03" y="98.01" xlink:href="#hd"/>
<path d="M651.53 98.01v-20.00" stroke="currentColor" fill="none"/>
<use x="675.03" y="101.01" xlink:href="#hd"/>
<path d="M678.53 101.01v-20.00" stroke="currentColor" fill="none"/>
<path fill="currentColor"
	d="	M678.53 81.01c0.6 5.6 9.6 9 5.6 18.4
	c1.6 -6 -1.3 -11.6 -5.6 -12.8
"/>
</g>
</svg>
