<?xml version="1.0" standalone="no"?>
<!DOCTYPE svg PUBLIC "-//W3C//DTD SVG 1.1//EN"
	"http://www.w3.org/Graphics/SVG/1.1/DTD/svg11.dtd">
<svg xmlns="http://www.w3.org/2000/svg" version="1.1"
	xmlns:xlink="http://www.w3.org/1999/xlink"
	xml:space='preserve' color="black"
	width="7.38in" height="1.34in" viewBox="0 0 531 97">
<title>1928.abc (1928) tune 1</title>
<!-- Creator: abcm2ps-7.8.14 -->
<!-- CreationDate: Mar 13, 2016 18:53 -->
<!-- CommandLine: -qxg 1928.abc -O ../svgs/1928.svg -->
<g transform="scale(0.750)" stroke-width="0.70" font-family="Times" font-size="20.00">
<text x="354.13" y="21.67" text-anchor="middle">1928.  Die Flote von Sans-Souci, Op. 88, Intro, 1st. Theme</text>
</g>
<g transform="scale(0.750)" stroke-width="0.70" font-family="Times" font-size="14.00" font-style="italic">
<text x="694.93" y="45.34" text-anchor="end">Paul Graener</text>
</g>
<g transform="scale(0.525)" stroke-width="0.70" font-family="Times" font-size="14.00" font-style="italic">
<defs>
<ellipse id="hd" rx="4.1" ry="2.9"
	transform="rotate(-20)" fill="currentColor"/>
</defs>
<use x="107.04" y="94.16" xlink:href="#hd"/>
<path d="M110.54 94.16v-20.00" stroke="currentColor" fill="none"/>
</g>
<g transform="scale(0.750)" stroke-width="0.70" font-family="Times" font-size="15.00" font-weight="bold">
<text x="82.63" y="68.01">= 120</text>
<path stroke="currentColor" fill="none"
	d="M195.63 106.01v-24.00"/>
<path stroke="currentColor" fill="none"
	d="M329.53 106.01v-24.00"/>
<path stroke="currentColor" fill="none"
	d="M463.33 106.01v-24.00"/>
<path stroke="currentColor" fill="none"
	d="M594.93 106.01v-24.00"/>
<path stroke="currentColor" fill="none"
	d="M694.93 106.01v-24.00"/>
<path stroke="currentColor" fill="none"
	d="M13.33 106.01h681.60m-681.60 -6h681.60m-681.60 -6h681.60m-681.60 -6h681.60m-681.60 -6h681.60"/>
<defs>
<path id="utclef" fill="currentColor" d="m-50 -90
	c-72 -41 -72 -158 52 -188
	c150 -10 220 188 90 256
	c-114 52 -275 0 -293 -136
	c-15 -181 93 -229 220 -334
	c88 -87 79 -133 62 -210
	c-51 33 -94 105 -89 186
	c17 267 36 374 49 574
	c6 96 -19 134 -77 135
	c-80 1 -126 -93 -61 -133
	c85 -41 133 101 31 105
	c23 17 92 37 90 -92
	c-10 -223 -39 -342 -50 -617
	c0 -90 0 -162 96 -232
	c56 72 63 230 22 289
	c-74 106 -257 168 -255 316
	c9 153 148 185 252 133
	c86 -65 29 -192 -80 -176
	c-71 12 -105 67 -59 124"/>
<use id="tclef" transform="scale(0.045)"
	xlink:href="#utclef"/>
</defs>
<use x="25.33" y="106.01" xlink:href="#tclef"/>
<defs>
<path id="uflat" fill="currentColor" d="
	m100 -746
	h32
	v734
	l-32 4
	m32 -332
	c46 -72 152 -90 208 -20
	c100 110 -120 326 -208 348
	m0 -28
	c54 0 200 -206 130 -290
	c-50 -60 -130 -4 -130 34"/>
<use id="ft0" transform="translate(-3.5,3.5) scale(0.018)"
	xlink:href="#uflat"/>
</defs>
<use x="40.33" y="94.01" xlink:href="#ft0"/>
<g font-family="serif" font-size="16" font-weight="bold" font-style="normal"
	transform="translate(56.33,106.01) scale(1.2,1)">
	<text y="-1" text-anchor="middle">4</text>
	<text y="-13" text-anchor="middle">4</text>
</g>
<defs>
<path id="hl" stroke="currentColor" d="m-6 0h12"/>
</defs>
<use x="74.33" y="112.01" xlink:href="#hl"/>
<use x="74.33" y="118.01" xlink:href="#hl"/>
<use x="74.33" y="118.01" xlink:href="#hd"/>
<path d="M77.83 118.01v-24.00" stroke="currentColor" fill="none"/>
<use x="102.23" y="103.01" xlink:href="#hd"/>
<path d="M105.73 103.01v-20.00" stroke="currentColor" fill="none"/>
<use x="130.23" y="109.01" xlink:href="#hd"/>
<path d="M133.73 109.01v-20.00" stroke="currentColor" fill="none"/>
<use x="158.13" y="106.01" xlink:href="#hd"/>
<path d="M161.63 106.01v-20.00" stroke="currentColor" fill="none"/>
<path fill="currentColor"
	d="	M161.63 86.01c0.6 5.6 9.6 9 5.6 18.4
	c1.6 -6 -1.3 -11.6 -5.6 -12.8
"/>
<use x="178.63" y="103.01" xlink:href="#hd"/>
<path d="M182.13 103.01v-20.00" stroke="currentColor" fill="none"/>
<path fill="currentColor"
	d="	M182.13 83.01c0.6 5.6 9.6 9 5.6 18.4
	c1.6 -6 -1.3 -11.6 -5.6 -12.8
"/>
<use x="208.13" y="100.01" xlink:href="#hd"/>
<path d="M211.63 100.01v-20.00" stroke="currentColor" fill="none"/>
<use x="236.13" y="97.01" xlink:href="#hd"/>
<path d="M239.63 97.01v-20.00" stroke="currentColor" fill="none"/>
<use x="264.03" y="109.01" xlink:href="#hd"/>
<path d="M267.53 109.01v-20.00" stroke="currentColor" fill="none"/>
<use x="292.03" y="106.01" xlink:href="#hd"/>
<path d="M295.53 106.01v-20.00" stroke="currentColor" fill="none"/>
<path fill="currentColor"
	d="	M295.53 86.01c0.6 5.6 9.6 9 5.6 18.4
	c1.6 -6 -1.3 -11.6 -5.6 -12.8
"/>
<use x="312.53" y="103.01" xlink:href="#hd"/>
<path d="M316.03 103.01v-20.00" stroke="currentColor" fill="none"/>
<path fill="currentColor"
	d="	M316.03 83.01c0.6 5.6 9.6 9 5.6 18.4
	c1.6 -6 -1.3 -11.6 -5.6 -12.8
"/>
<use x="342.03" y="100.01" xlink:href="#hd"/>
<path d="M345.53 100.01v-20.00" stroke="currentColor" fill="none"/>
<use x="369.93" y="97.01" xlink:href="#hd"/>
<path d="M373.43 97.01v-20.00" stroke="currentColor" fill="none"/>
<use x="397.93" y="94.01" xlink:href="#hd"/>
<path d="M401.43 94.01v-20.00" stroke="currentColor" fill="none"/>
<use x="425.83" y="97.01" xlink:href="#hd"/>
<path d="M429.33 97.01v-20.00" stroke="currentColor" fill="none"/>
<path fill="currentColor"
	d="	M429.33 77.01c0.6 5.6 9.6 9 5.6 18.4
	c1.6 -6 -1.3 -11.6 -5.6 -12.8
"/>
<use x="446.33" y="94.01" xlink:href="#hd"/>
<path d="M449.83 94.01v-20.00" stroke="currentColor" fill="none"/>
<path fill="currentColor"
	d="	M449.83 74.01c0.6 5.6 9.6 9 5.6 18.4
	c1.6 -6 -1.3 -11.6 -5.6 -12.8
"/>
<use x="475.83" y="100.01" xlink:href="#hd"/>
<path d="M479.33 100.01v-20.00" stroke="currentColor" fill="none"/>
<use x="503.83" y="97.01" xlink:href="#hd"/>
<path d="M507.33 97.01v-20.00" stroke="currentColor" fill="none"/>
<use x="531.93" y="91.01" xlink:href="#hd"/>
<path d="M528.43 91.01v20.00" stroke="currentColor" fill="none"/>
<use x="559.83" y="94.01" xlink:href="#hd"/>
<path d="M556.33 94.01v20.00" stroke="currentColor" fill="none"/>
<path fill="currentColor"
	d="M556.33 114.01c0.6 -5.6 9.6 -9 5.6 -18.4
	c1.6 6 -1.3 11.6 -5.6 12.8
"/>
<use x="577.93" y="97.01" xlink:href="#hd"/>
<path d="M581.43 97.01v-20.00" stroke="currentColor" fill="none"/>
<path fill="currentColor"
	d="	M581.43 77.01c0.6 5.6 9.6 9 5.6 18.4
	c1.6 -6 -1.3 -11.6 -5.6 -12.8
"/>
<use x="607.43" y="100.01" xlink:href="#hd"/>
<path d="M610.93 100.01v-20.00" stroke="currentColor" fill="none"/>
<use x="635.33" y="97.01" xlink:href="#hd"/>
<path d="M638.83 97.01v-20.00" stroke="currentColor" fill="none"/>
<defs>
<path id="Hd" fill="currentColor" d="m3 -1.6
	c-1 -1.8 -7 1.4 -6 3.2
	c1 1.8 7 -1.4 6 -3.2
	m0.5 -0.3
	c2 3.8 -5 7.6 -7 3.8
	c-2 -3.8 5 -7.6 7 -3.8"/>
</defs>
<use x="663.33" y="100.01" xlink:href="#Hd"/>
<path d="M666.83 100.01v-20.00" stroke="currentColor" fill="none"/>
</g>
</svg>
