<?xml version="1.0" standalone="no"?>
<!DOCTYPE svg PUBLIC "-//W3C//DTD SVG 1.1//EN"
	"http://www.w3.org/Graphics/SVG/1.1/DTD/svg11.dtd">
<svg xmlns="http://www.w3.org/2000/svg" version="1.1"
	xmlns:xlink="http://www.w3.org/1999/xlink"
	xml:space='preserve' color="black"
	width="7.38in" height="1.34in" viewBox="0 0 531 97">
<title>1932.abc (1932) tune 1</title>
<!-- Creator: abcm2ps-7.8.14 -->
<!-- CreationDate: Mar 13, 2016 18:53 -->
<!-- CommandLine: -qxg 1932.abc -O ../svgs/1932.svg -->
<g transform="scale(0.750)" stroke-width="0.70" font-family="Times" font-size="20.00">
<text x="354.13" y="21.67" text-anchor="middle">1932.  Die Flote von Sans-Souci, Op. 88, 3rd. Mvt. - Air</text>
</g>
<g transform="scale(0.750)" stroke-width="0.70" font-family="Times" font-size="14.00" font-style="italic">
<text x="694.93" y="45.34" text-anchor="end">Paul Graener</text>
</g>
<g transform="scale(0.525)" stroke-width="0.70" font-family="Times" font-size="14.00" font-style="italic">
<defs>
<ellipse id="hd" rx="4.1" ry="2.9"
	transform="rotate(-20)" fill="currentColor"/>
</defs>
<use x="122.76" y="94.16" xlink:href="#hd"/>
<path d="M126.26 94.16v-20.00" stroke="currentColor" fill="none"/>
</g>
<g transform="scale(0.750)" stroke-width="0.70" font-family="Times" font-size="15.00" font-weight="bold">
<text x="93.63" y="68.01">= 120</text>
<path stroke="currentColor" fill="none"
	d="M259.03 106.01v-24.00"/>
<path stroke="currentColor" fill="none"
	d="M423.33 106.01v-24.00"/>
<path stroke="currentColor" fill="none"
	d="M607.13 106.01v-24.00"/>
<path stroke="currentColor" fill="none"
	d="M13.33 106.01h681.60m-681.60 -6h681.60m-681.60 -6h681.60m-681.60 -6h681.60m-681.60 -6h681.60"/>
<text font-family="serif" font-size="12" font-style="italic" font-weight="normal"
	x="360.73" y="124.01" text-anchor="middle">3</text>
<defs>
<path id="utclef" fill="currentColor" d="m-50 -90
	c-72 -41 -72 -158 52 -188
	c150 -10 220 188 90 256
	c-114 52 -275 0 -293 -136
	c-15 -181 93 -229 220 -334
	c88 -87 79 -133 62 -210
	c-51 33 -94 105 -89 186
	c17 267 36 374 49 574
	c6 96 -19 134 -77 135
	c-80 1 -126 -93 -61 -133
	c85 -41 133 101 31 105
	c23 17 92 37 90 -92
	c-10 -223 -39 -342 -50 -617
	c0 -90 0 -162 96 -232
	c56 72 63 230 22 289
	c-74 106 -257 168 -255 316
	c9 153 148 185 252 133
	c86 -65 29 -192 -80 -176
	c-71 12 -105 67 -59 124"/>
<use id="tclef" transform="scale(0.045)"
	xlink:href="#utclef"/>
</defs>
<use x="25.33" y="106.01" xlink:href="#tclef"/>
<defs>
<path id="uflat" fill="currentColor" d="
	m100 -746
	h32
	v734
	l-32 4
	m32 -332
	c46 -72 152 -90 208 -20
	c100 110 -120 326 -208 348
	m0 -28
	c54 0 200 -206 130 -290
	c-50 -60 -130 -4 -130 34"/>
<use id="ft0" transform="translate(-3.5,3.5) scale(0.018)"
	xlink:href="#uflat"/>
</defs>
<use x="40.33" y="94.01" xlink:href="#ft0"/>
<use x="45.83" y="85.01" xlink:href="#ft0"/>
<use x="51.33" y="97.01" xlink:href="#ft0"/>
<g font-family="serif" font-size="16" font-weight="bold" font-style="normal"
	transform="translate(67.33,106.01) scale(1.2,1)">
	<text y="-1" text-anchor="middle">4</text>
	<text y="-13" text-anchor="middle">3</text>
</g>
<use x="85.33" y="79.01" xlink:href="#hd"/>
<circle fill="currentColor" cx="93.33" cy="79.01" r="1.2"/>
<path d="M81.83 79.01v20.00" stroke="currentColor" fill="none"/>
<path fill="currentColor"
	d="M81.83 99.01c0.6 -5.6 9.6 -9 5.6 -18.4
	c1.6 6 -1.3 11.6 -5.6 12.8
"/>
<path fill="currentColor"
	d="M116.93 118.91l126.40 0.00v-3.20l-126.40 -0.00"/>
<path fill="currentColor"
	d="M123.33 113.91l-6.00 -0.00v-3.20l6.00 0.00"/>
<path fill="currentColor"
	d="M169.03 113.91l14.00 0.00v-3.20l-14.00 -0.00"/>
<path fill="currentColor"
	d="M229.03 113.91l14.00 0.00v-3.20l-14.00 -0.00"/>
<path fill="currentColor"
	d="M169.03 108.91l14.00 0.00v-3.20l-14.00 -0.00"/>
<path fill="currentColor"
	d="M229.03 108.91l14.00 0.00v-3.20l-14.00 -0.00"/>
<use x="120.83" y="82.01" xlink:href="#hd"/>
<path d="M117.33 82.01v36.00" stroke="currentColor" fill="none"/>
<use x="140.63" y="85.01" xlink:href="#hd"/>
<circle fill="currentColor" cx="148.63" cy="85.01" r="1.2"/>
<path d="M137.13 85.01v33.00" stroke="currentColor" fill="none"/>
<use x="172.53" y="88.01" xlink:href="#hd"/>
<path d="M169.03 88.01v30.00" stroke="currentColor" fill="none"/>
<use x="186.63" y="91.01" xlink:href="#hd"/>
<path d="M183.13 91.01v27.00" stroke="currentColor" fill="none"/>
<defs>
<path id="hl" stroke="currentColor" d="m-6 0h12"/>
</defs>
<use x="200.63" y="76.01" xlink:href="#hl"/>
<use x="200.63" y="70.01" xlink:href="#hl"/>
<use x="200.63" y="70.01" xlink:href="#hd"/>
<circle fill="currentColor" cx="208.63" cy="67.01" r="1.2"/>
<path d="M197.13 70.01v48.00" stroke="currentColor" fill="none"/>
<use x="232.53" y="91.01" xlink:href="#hd"/>
<path d="M229.03 91.01v27.00" stroke="currentColor" fill="none"/>
<use x="246.53" y="88.01" xlink:href="#hd"/>
<path d="M243.03 88.01v30.00" stroke="currentColor" fill="none"/>
<use x="274.63" y="85.01" xlink:href="#hd"/>
<circle fill="currentColor" cx="282.63" cy="85.01" r="1.2"/>
<path d="M271.13 85.01v20.00" stroke="currentColor" fill="none"/>
<use x="324.73" y="85.01" xlink:href="#hd"/>
<path d="M321.23 85.01v22.00" stroke="currentColor" fill="none"/>
<path fill="currentColor"
	d="M321.23 107.01c0.9 -3.7 9.1 -6.4 6 -12.4
	c1 5.4 -4.2 8.4 -6 8.4
M321.23 101.61c0.9 -3.7 9.1 -6.4 6 -12.4
	c1 5.4 -4.2 8.4 -6 8.4
"/>
<path fill="currentColor"
	d="M342.93 108.01l31.60 0.00v-3.20l-31.60 -0.00"/>
<path fill="currentColor"
	d="M343.33 103.01l31.00 0.00v-3.20l-31.00 -0.00"/>
<use x="346.83" y="85.01" xlink:href="#hd"/>
<path d="M343.33 85.01v22.00" stroke="currentColor" fill="none"/>
<use x="362.33" y="88.01" xlink:href="#hd"/>
<path d="M358.83 88.01v19.00" stroke="currentColor" fill="none"/>
<use x="377.73" y="85.01" xlink:href="#hd"/>
<path d="M374.23 85.01v22.00" stroke="currentColor" fill="none"/>
<use x="394.93" y="82.01" xlink:href="#hd"/>
<circle fill="currentColor" cx="402.93" cy="79.01" r="1.2"/>
<path d="M391.43 82.01v20.00" stroke="currentColor" fill="none"/>
<path fill="currentColor"
	d="M391.43 102.01c0.6 -5.6 9.6 -9 5.6 -18.4
	c1.6 6 -1.3 11.6 -5.6 12.8
"/>
<path fill="currentColor"
	d="M435.13 110.31l14.70 -2.20v-3.20l-14.70 2.20"/>
<path fill="currentColor"
	d="M435.43 105.21l14.00 -2.10v-3.20l-14.00 2.10"/>
<path fill="currentColor"
	d="M435.43 100.21l14.00 -2.10v-3.20l-14.00 2.10"/>
<use x="438.93" y="85.01" xlink:href="#hd"/>
<path d="M435.43 85.01v24.20" stroke="currentColor" fill="none"/>
<use x="452.93" y="82.01" xlink:href="#hd"/>
<path d="M449.43 82.01v25.10" stroke="currentColor" fill="none"/>
<use x="468.53" y="79.01" xlink:href="#hd"/>
<circle fill="currentColor" cx="476.53" cy="79.01" r="1.2"/>
<path d="M465.03 79.01v20.00" stroke="currentColor" fill="none"/>
<use x="518.73" y="85.01" xlink:href="#hd"/>
<path d="M515.23 85.01v20.00" stroke="currentColor" fill="none"/>
<path fill="currentColor"
	d="M515.23 105.01c0.6 -5.6 9.6 -9 5.6 -18.4
	c1.6 6 -1.3 11.6 -5.6 12.8
"/>
<path fill="currentColor"
	d="M546.03 99.61l40.30 4.70v-3.20l-40.30 -4.70"/>
<path fill="currentColor"
	d="M546.33 94.61l39.70 4.60v-3.20l-39.70 -4.60"/>
<use x="549.83" y="76.01" xlink:href="#hl"/>
<use x="549.83" y="76.01" xlink:href="#hd"/>
<path d="M546.33 76.01v22.60" stroke="currentColor" fill="none"/>
<use x="569.73" y="79.01" xlink:href="#hd"/>
<path d="M566.23 79.01v21.90" stroke="currentColor" fill="none"/>
<use x="589.53" y="82.01" xlink:href="#hd"/>
<path d="M586.03 82.01v21.20" stroke="currentColor" fill="none"/>
<use x="622.73" y="85.01" xlink:href="#hd"/>
<path d="M619.23 85.01v22.00" stroke="currentColor" fill="none"/>
<path fill="currentColor"
	d="M619.23 107.01c0.9 -3.7 9.1 -6.4 6 -12.4
	c1 5.4 -4.2 8.4 -6 8.4
M619.23 101.61c0.9 -3.7 9.1 -6.4 6 -12.4
	c1 5.4 -4.2 8.4 -6 8.4
"/>
<use x="644.73" y="82.01" xlink:href="#hd"/>
<circle fill="currentColor" cx="652.73" cy="79.01" r="1.2"/>
<path d="M641.23 82.01v20.00" stroke="currentColor" fill="none"/>
<path fill="currentColor"
	d="M278.13 83.01c6.74 -5.28 36.42 -5.28 43.16 -0.00
	l0.00 -0.24c-8.03 -7.03 -35.13 -7.03 -43.16 0.24"/>
</g>
</svg>
