<?xml version="1.0" standalone="no"?>
<!DOCTYPE svg PUBLIC "-//W3C//DTD SVG 1.1//EN"
	"http://www.w3.org/Graphics/SVG/1.1/DTD/svg11.dtd">
<svg xmlns="http://www.w3.org/2000/svg" version="1.1"
	xmlns:xlink="http://www.w3.org/1999/xlink"
	xml:space='preserve' color="black"
	width="7.38in" height="1.34in" viewBox="0 0 531 97">
<title>1942.abc (1942) tune 1</title>
<!-- Creator: abcm2ps-7.8.14 -->
<!-- CreationDate: Mar 13, 2016 18:53 -->
<!-- CommandLine: -qxg 1942.abc -O ../svgs/1942.svg -->
<g transform="scale(0.750)" stroke-width="0.70" font-family="Times" font-size="20.00">
<text x="354.13" y="21.67" text-anchor="middle">1942.  In A Nutshell, Gay but wistful, 2nd. Theme</text>
</g>
<g transform="scale(0.750)" stroke-width="0.70" font-family="Times" font-size="14.00" font-style="italic">
<text x="694.93" y="45.34" text-anchor="end">Percy Grainger</text>
</g>
<g transform="scale(0.525)" stroke-width="0.70" font-family="Times" font-size="14.00" font-style="italic">
<defs>
<ellipse id="hd" rx="4.1" ry="2.9"
	transform="rotate(-20)" fill="currentColor"/>
</defs>
<use x="130.61" y="94.16" xlink:href="#hd"/>
<path d="M134.11 94.16v-20.00" stroke="currentColor" fill="none"/>
</g>
<g transform="scale(0.750)" stroke-width="0.70" font-family="Times" font-size="15.00" font-weight="bold">
<text x="99.13" y="68.01">= 120</text>
<path stroke="currentColor" fill="none"
	d="M145.13 106.01v-24.00"/>
<path stroke="currentColor" fill="none"
	d="M240.03 106.01v-24.00"/>
<path stroke="currentColor" fill="none"
	d="M383.93 106.01v-24.00"/>
<path stroke="currentColor" fill="none"
	d="M521.43 106.01v-24.00"/>
<path stroke="currentColor" fill="none"
	d="M665.33 106.01v-24.00"/>
<path stroke="currentColor" fill="none"
	d="M13.33 106.01h681.60m-681.60 -6h681.60m-681.60 -6h681.60m-681.60 -6h681.60m-681.60 -6h681.60"/>
<path stroke="currentColor" fill="none"
	d="M251.53 68.01v-3l42.50 -0.00v3"/>
<rect x="265.83" y="59.01" width="14.00" height="12" fill="white"/>
<text font-family="serif" font-size="12" font-style="italic" font-weight="normal"
	x="272.83" y="69.01" text-anchor="middle">3</text>
<path stroke="currentColor" fill="none"
	d="M392.43 71.01v-3l39.10 -0.00v3"/>
<rect x="405.03" y="62.01" width="14.00" height="12" fill="white"/>
<text font-family="serif" font-size="12" font-style="italic" font-weight="normal"
	x="412.03" y="72.01" text-anchor="middle">3</text>
<path stroke="currentColor" fill="none"
	d="M532.93 74.01v-3l42.50 -0.00v3"/>
<rect x="547.23" y="65.01" width="14.00" height="12" fill="white"/>
<text font-family="serif" font-size="12" font-style="italic" font-weight="normal"
	x="554.23" y="75.01" text-anchor="middle">3</text>
<defs>
<path id="utclef" fill="currentColor" d="m-50 -90
	c-72 -41 -72 -158 52 -188
	c150 -10 220 188 90 256
	c-114 52 -275 0 -293 -136
	c-15 -181 93 -229 220 -334
	c88 -87 79 -133 62 -210
	c-51 33 -94 105 -89 186
	c17 267 36 374 49 574
	c6 96 -19 134 -77 135
	c-80 1 -126 -93 -61 -133
	c85 -41 133 101 31 105
	c23 17 92 37 90 -92
	c-10 -223 -39 -342 -50 -617
	c0 -90 0 -162 96 -232
	c56 72 63 230 22 289
	c-74 106 -257 168 -255 316
	c9 153 148 185 252 133
	c86 -65 29 -192 -80 -176
	c-71 12 -105 67 -59 124"/>
<use id="tclef" transform="scale(0.045)"
	xlink:href="#utclef"/>
</defs>
<use x="25.33" y="106.01" xlink:href="#tclef"/>
<defs>
<path id="usharp" fill="currentColor" d="
	m136 -702
	v890
	h32
	v-890
	m128 840
	h32
	v-888
	h-32
	m-232 286
	v116
	l338 -96
	v-116
	m-338 442
	v116
	l338 -98
	v-114"/>
<use id="sh0" transform="translate(-4,5) scale(0.018)"
	xlink:href="#usharp"/>
</defs>
<use x="40.33" y="82.01" xlink:href="#sh0"/>
<use x="45.83" y="91.01" xlink:href="#sh0"/>
<use x="51.33" y="79.01" xlink:href="#sh0"/>
<use x="56.83" y="88.01" xlink:href="#sh0"/>
<g font-family="serif" font-size="16" font-weight="bold" font-style="normal"
	transform="translate(72.83,106.01) scale(1.2,1)">
	<text y="-1" text-anchor="middle">8</text>
	<text y="-13" text-anchor="middle">6</text>
</g>
<defs>
<path id="r4" fill="currentColor" d="m-1 -8.5
	l3.6 5.1 -2.1 5.2 2.2 4.3
	c-2.6 -2.3 -5.1 0 -2.4 2.6
	c-4.8 -3 -1.5 -6.9 1.4 -4.1
	l-3.1 -4.5 1.9 -5.1 -1.5 -3.5"/>
</defs>
<use x="90.83" y="94.01" xlink:href="#r4"/>
<circle fill="currentColor" cx="98.83" cy="91.01" r="1.2"/>
<use x="120.53" y="85.01" xlink:href="#hd"/>
<circle fill="currentColor" cx="128.53" cy="85.01" r="1.2"/>
<path d="M117.03 85.01v20.00" stroke="currentColor" fill="none"/>
<use x="157.63" y="85.01" xlink:href="#hd"/>
<path d="M154.13 85.01v20.00" stroke="currentColor" fill="none"/>
<use x="182.43" y="91.01" xlink:href="#hd"/>
<path d="M178.93 91.01v20.00" stroke="currentColor" fill="none"/>
<path fill="currentColor"
	d="M178.93 111.01c0.6 -5.6 9.6 -9 5.6 -18.4
	c1.6 6 -1.3 11.6 -5.6 12.8
"/>
<use x="200.53" y="94.01" xlink:href="#hd"/>
<path d="M197.03 94.01v20.00" stroke="currentColor" fill="none"/>
<use x="223.03" y="97.01" xlink:href="#hd"/>
<path d="M226.53 97.01v-20.00" stroke="currentColor" fill="none"/>
<path fill="currentColor"
	d="	M226.53 77.01c0.6 5.6 9.6 9 5.6 18.4
	c1.6 -6 -1.3 -11.6 -5.6 -12.8
"/>
<use x="252.53" y="100.01" xlink:href="#hd"/>
<path d="M256.03 100.01v-20.00" stroke="currentColor" fill="none"/>
<use x="274.63" y="100.01" xlink:href="#hd"/>
<path d="M278.13 100.01v-21.00" stroke="currentColor" fill="none"/>
<path fill="currentColor"
	d="M278.13 79.01c0.9 3.7 9.1 6.4 6 12.4
	c1 -5.4 -4.2 -8.4 -6 -8.4
M278.13 84.41c0.9 3.7 9.1 6.4 6 12.4
	c1 -5.4 -4.2 -8.4 -6 -8.4
"/>
<use x="291.13" y="97.01" xlink:href="#hd"/>
<path d="M294.63 97.01v-20.00" stroke="currentColor" fill="none"/>
<use x="313.13" y="97.01" xlink:href="#hd"/>
<path d="M316.63 97.01v-21.00" stroke="currentColor" fill="none"/>
<path fill="currentColor"
	d="M316.63 76.01c0.9 3.7 9.1 6.4 6 12.4
	c1 -5.4 -4.2 -8.4 -6 -8.4
M316.63 81.41c0.9 3.7 9.1 6.4 6 12.4
	c1 -5.4 -4.2 -8.4 -6 -8.4
"/>
<use x="329.63" y="94.01" xlink:href="#hd"/>
<path d="M333.13 94.01v-20.00" stroke="currentColor" fill="none"/>
<path fill="currentColor"
	d="M352.73 116.31l13.00 -2.10v-3.20l-13.00 2.10"/>
<path fill="currentColor"
	d="M359.13 110.21l-6.00 1.00v-3.20l6.00 -1.00"/>
<use x="356.63" y="94.01" xlink:href="#hd"/>
<path d="M353.13 94.01v21.20" stroke="currentColor" fill="none"/>
<use x="368.93" y="91.01" xlink:href="#hd"/>
<path d="M365.43 91.01v22.20" stroke="currentColor" fill="none"/>
<use x="396.43" y="94.01" xlink:href="#hd"/>
<path d="M392.93 94.01v20.00" stroke="currentColor" fill="none"/>
<use x="418.53" y="94.01" xlink:href="#hd"/>
<path d="M415.03 94.01v22.00" stroke="currentColor" fill="none"/>
<path fill="currentColor"
	d="M415.03 116.01c0.9 -3.7 9.1 -6.4 6 -12.4
	c1 5.4 -4.2 8.4 -6 8.4
M415.03 110.61c0.9 -3.7 9.1 -6.4 6 -12.4
	c1 5.4 -4.2 8.4 -6 8.4
"/>
<use x="428.53" y="100.01" xlink:href="#hd"/>
<path d="M432.03 100.01v-20.00" stroke="currentColor" fill="none"/>
<use x="450.53" y="100.01" xlink:href="#hd"/>
<path d="M454.03 100.01v-21.00" stroke="currentColor" fill="none"/>
<path fill="currentColor"
	d="M454.03 79.01c0.9 3.7 9.1 6.4 6 12.4
	c1 -5.4 -4.2 -8.4 -6 -8.4
M454.03 84.41c0.9 3.7 9.1 6.4 6 12.4
	c1 -5.4 -4.2 -8.4 -6 -8.4
"/>
<use x="467.03" y="103.01" xlink:href="#hd"/>
<path d="M470.53 103.01v-20.00" stroke="currentColor" fill="none"/>
<path fill="currentColor"
	d="M497.23 80.91l13.00 -2.10v3.20l-13.00 2.10"/>
<path fill="currentColor"
	d="M503.53 84.81l-6.00 1.00v3.20l6.00 -1.00"/>
<use x="494.03" y="103.01" xlink:href="#hd"/>
<path d="M497.53 103.01v-21.20" stroke="currentColor" fill="none"/>
<use x="506.33" y="100.01" xlink:href="#hd"/>
<path d="M509.83 100.01v-20.20" stroke="currentColor" fill="none"/>
<use x="533.93" y="106.01" xlink:href="#hd"/>
<path d="M537.43 106.01v-20.00" stroke="currentColor" fill="none"/>
<use x="555.93" y="106.01" xlink:href="#hd"/>
<path d="M559.43 106.01v-21.00" stroke="currentColor" fill="none"/>
<path fill="currentColor"
	d="M559.43 85.01c0.9 3.7 9.1 6.4 6 12.4
	c1 -5.4 -4.2 -8.4 -6 -8.4
M559.43 90.41c0.9 3.7 9.1 6.4 6 12.4
	c1 -5.4 -4.2 -8.4 -6 -8.4
"/>
<use x="572.43" y="103.01" xlink:href="#hd"/>
<path d="M575.93 103.01v-20.00" stroke="currentColor" fill="none"/>
<use x="594.43" y="103.01" xlink:href="#hd"/>
<path d="M597.93 103.01v-21.00" stroke="currentColor" fill="none"/>
<path fill="currentColor"
	d="M597.93 82.01c0.9 3.7 9.1 6.4 6 12.4
	c1 -5.4 -4.2 -8.4 -6 -8.4
M597.93 87.41c0.9 3.7 9.1 6.4 6 12.4
	c1 -5.4 -4.2 -8.4 -6 -8.4
"/>
<use x="610.93" y="100.01" xlink:href="#hd"/>
<path d="M614.43 100.01v-20.00" stroke="currentColor" fill="none"/>
<path fill="currentColor"
	d="M641.13 77.61l13.00 -3.20v3.20l-13.00 3.20"/>
<path fill="currentColor"
	d="M647.43 81.01l-6.00 1.50v3.20l6.00 -1.50"/>
<use x="637.93" y="100.01" xlink:href="#hd"/>
<path d="M641.43 100.01v-21.50" stroke="currentColor" fill="none"/>
<use x="650.23" y="94.01" xlink:href="#hd"/>
<path d="M653.73 94.01v-18.50" stroke="currentColor" fill="none"/>
<use x="677.83" y="85.01" xlink:href="#hd"/>
<path d="M674.33 85.01v20.00" stroke="currentColor" fill="none"/>
<path fill="currentColor"
	d="M674.33 105.01c0.6 -5.6 9.6 -9 5.6 -18.4
	c1.6 6 -1.3 11.6 -5.6 12.8
"/>
<path fill="currentColor"
	d="M124.03 83.01c4.74 -5.04 25.38 -5.04 30.12 -0.00
	l0.00 -0.23c-5.65 -6.81 -24.47 -6.81 -30.12 0.23"/>
<path fill="currentColor"
	d="M256.03 100.01c2.37 4.77 12.65 4.77 15.02 -0.00
	l0.00 0.22c-2.82 6.56 -12.20 6.56 -15.02 -0.22"/>
<path fill="currentColor"
	d="M294.63 99.01c2.37 4.77 12.65 4.77 15.02 -0.00
	l0.00 0.22c-2.82 6.56 -12.20 6.56 -15.02 -0.22"/>
<path fill="currentColor"
	d="M333.13 94.01c3.15 4.86 16.85 4.86 20.00 -0.00
	l0.00 0.22c-3.75 6.64 -16.25 6.64 -20.00 -0.22"/>
<path fill="currentColor"
	d="M399.93 94.01c2.37 -4.77 12.65 -4.77 15.02 -0.00
	l0.00 -0.22c-2.82 -6.56 -12.20 -6.56 -15.02 0.22"/>
<path fill="currentColor"
	d="M432.03 100.01c2.37 4.77 12.65 4.77 15.02 -0.00
	l0.00 0.22c-2.82 6.56 -12.20 6.56 -15.02 -0.22"/>
<path fill="currentColor"
	d="M470.53 105.01c3.15 4.86 16.85 4.86 20.00 -0.00
	l0.00 0.22c-3.75 6.64 -16.25 6.64 -20.00 -0.22"/>
<path fill="currentColor"
	d="M537.43 106.01c2.37 4.77 12.65 4.77 15.02 -0.00
	l0.00 0.22c-2.82 6.56 -12.20 6.56 -15.02 -0.22"/>
<path fill="currentColor"
	d="M575.93 105.01c2.37 4.77 12.65 4.77 15.02 -0.00
	l0.00 0.22c-2.82 6.56 -12.20 6.56 -15.02 -0.22"/>
<path fill="currentColor"
	d="M614.43 100.01c3.15 4.86 16.85 4.86 20.00 -0.00
	l0.00 0.22c-3.75 6.64 -16.25 6.64 -20.00 -0.22"/>
</g>
</svg>
