<?xml version="1.0" standalone="no"?>
<!DOCTYPE svg PUBLIC "-//W3C//DTD SVG 1.1//EN"
	"http://www.w3.org/Graphics/SVG/1.1/DTD/svg11.dtd">
<svg xmlns="http://www.w3.org/2000/svg" version="1.1"
	xmlns:xlink="http://www.w3.org/1999/xlink"
	xml:space='preserve' color="black"
	width="7.38in" height="1.34in" viewBox="0 0 531 97">
<title>1952.abc (1952) tune 1</title>
<!-- Creator: abcm2ps-7.8.14 -->
<!-- CreationDate: Mar 13, 2016 18:53 -->
<!-- CommandLine: -qxg 1952.abc -O ../svgs/1952.svg -->
<g transform="scale(0.750)" stroke-width="0.70" font-family="Times" font-size="20.00">
<text x="354.13" y="21.67" text-anchor="middle">1952.  Goyescas, 2nd. Theme</text>
</g>
<g transform="scale(0.750)" stroke-width="0.70" font-family="Times" font-size="14.00" font-style="italic">
<text x="694.93" y="45.34" text-anchor="end">Enrique Granados</text>
</g>
<g transform="scale(0.525)" stroke-width="0.70" font-family="Times" font-size="14.00" font-style="italic">
<defs>
<ellipse id="hd" rx="4.1" ry="2.9"
	transform="rotate(-20)" fill="currentColor"/>
</defs>
<use x="97.76" y="94.16" xlink:href="#hd"/>
<path d="M101.26 94.16v-20.00" stroke="currentColor" fill="none"/>
</g>
<g transform="scale(0.750)" stroke-width="0.70" font-family="Times" font-size="15.00" font-weight="bold">
<text x="76.13" y="68.01">= 120</text>
<path stroke="currentColor" fill="none"
	d="M127.83 106.01v-24.00"/>
<path stroke="currentColor" fill="none"
	d="M179.43 106.01v-24.00"/>
<path stroke="currentColor" fill="none"
	d="M239.23 106.01v-24.00"/>
<path stroke="currentColor" fill="none"
	d="M291.43 106.01v-24.00"/>
<path stroke="currentColor" fill="none"
	d="M335.23 106.01v-24.00"/>
<path stroke="currentColor" fill="none"
	d="M395.03 106.01v-24.00"/>
<path stroke="currentColor" fill="none"
	d="M472.53 106.01v-24.00"/>
<path stroke="currentColor" fill="none"
	d="M537.73 106.01v-24.00"/>
<path stroke="currentColor" fill="none"
	d="M668.63 106.01v-24.00"/>
<path stroke="currentColor" fill="none"
	d="M13.33 106.01h681.60m-681.60 -6h681.60m-681.60 -6h681.60m-681.60 -6h681.60m-681.60 -6h681.60"/>
<text font-family="serif" font-size="12" font-style="italic" font-weight="normal"
	x="591.83" y="64.01" text-anchor="middle">3</text>
<text font-family="serif" font-size="12" font-style="italic" font-weight="normal"
	x="642.13" y="71.01" text-anchor="middle">3</text>
<defs>
<path id="utclef" fill="currentColor" d="m-50 -90
	c-72 -41 -72 -158 52 -188
	c150 -10 220 188 90 256
	c-114 52 -275 0 -293 -136
	c-15 -181 93 -229 220 -334
	c88 -87 79 -133 62 -210
	c-51 33 -94 105 -89 186
	c17 267 36 374 49 574
	c6 96 -19 134 -77 135
	c-80 1 -126 -93 -61 -133
	c85 -41 133 101 31 105
	c23 17 92 37 90 -92
	c-10 -223 -39 -342 -50 -617
	c0 -90 0 -162 96 -232
	c56 72 63 230 22 289
	c-74 106 -257 168 -255 316
	c9 153 148 185 252 133
	c86 -65 29 -192 -80 -176
	c-71 12 -105 67 -59 124"/>
<use id="tclef" transform="scale(0.045)"
	xlink:href="#utclef"/>
</defs>
<use x="25.33" y="106.01" xlink:href="#tclef"/>
<g font-family="serif" font-size="16" font-weight="bold" font-style="normal"
	transform="translate(43.83,106.01) scale(1.2,1)">
	<text y="-1" text-anchor="middle">4</text>
	<text y="-13" text-anchor="middle">3</text>
</g>
<use x="67.83" y="97.01" xlink:href="#hd"/>
<defs>
<path id="usharp" fill="currentColor" d="
	m136 -702
	v890
	h32
	v-890
	m128 840
	h32
	v-888
	h-32
	m-232 286
	v116
	l338 -96
	v-116
	m-338 442
	v116
	l338 -98
	v-114"/>
<use id="sh0" transform="translate(-4,5) scale(0.018)"
	xlink:href="#usharp"/>
</defs>
<use x="58.83" y="97.01" xlink:href="#sh0"/>
<path d="M71.33 97.01v-20.00" stroke="currentColor" fill="none"/>
<use x="85.33" y="91.01" xlink:href="#hd"/>
<circle fill="currentColor" cx="93.33" cy="91.01" r="1.2"/>
<path d="M81.83 91.01v20.00" stroke="currentColor" fill="none"/>
<use x="110.83" y="97.01" xlink:href="#hd"/>
<use x="101.83" y="97.01" xlink:href="#sh0"/>
<path d="M114.33 97.01v-20.00" stroke="currentColor" fill="none"/>
<path fill="currentColor"
	d="	M114.33 77.01c0.6 5.6 9.6 9 5.6 18.4
	c1.6 -6 -1.3 -11.6 -5.6 -12.8
"/>
<defs>
<path id="Hd" fill="currentColor" d="m3 -1.6
	c-1 -1.8 -7 1.4 -6 3.2
	c1 1.8 7 -1.4 6 -3.2
	m0.5 -0.3
	c2 3.8 -5 7.6 -7 3.8
	c-2 -3.8 5 -7.6 7 -3.8"/>
</defs>
<use x="140.83" y="91.01" xlink:href="#Hd"/>
<path d="M137.33 91.01v20.00" stroke="currentColor" fill="none"/>
<use x="165.23" y="100.01" xlink:href="#hd"/>
<use x="156.23" y="100.01" xlink:href="#sh0"/>
<path d="M168.73 100.01v-20.00" stroke="currentColor" fill="none"/>
<use x="198.93" y="97.01" xlink:href="#Hd"/>
<use x="188.93" y="97.01" xlink:href="#sh0"/>
<path d="M202.43 97.01v-20.00" stroke="currentColor" fill="none"/>
<use x="225.03" y="100.01" xlink:href="#hd"/>
<defs>
<path id="unat" fill="currentColor" d="
	m96 -750
	h-32
	v716
	l32 -8
	l182 -54
	v282
	h32
	v-706
	l-34 10
	l-180 50
	v-290
	m0 592
	v-190
	l182 -52
	v188"/>
<use id="nt0" transform="translate(-3,5) scale(0.018)"
	xlink:href="#unat"/>
</defs>
<use x="216.03" y="100.01" xlink:href="#nt0"/>
<path d="M228.53 100.01v-20.00" stroke="currentColor" fill="none"/>
<use x="251.73" y="103.01" xlink:href="#hd"/>
<path d="M255.23 103.01v-20.00" stroke="currentColor" fill="none"/>
<use x="273.23" y="109.01" xlink:href="#Hd"/>
<use x="263.23" y="109.01" xlink:href="#sh0"/>
<path d="M276.73 109.01v-20.00" stroke="currentColor" fill="none"/>
<use x="310.93" y="109.01" xlink:href="#Hd"/>
<circle fill="currentColor" cx="319.93" cy="109.01" r="1.2"/>
<use x="300.93" y="109.01" xlink:href="#sh0"/>
<path d="M314.43 109.01v-20.00" stroke="currentColor" fill="none"/>
<use x="353.73" y="109.01" xlink:href="#hd"/>
<circle fill="currentColor" cx="361.73" cy="109.01" r="1.2"/>
<use x="344.73" y="109.01" xlink:href="#sh0"/>
<path d="M357.23 109.01v-20.00" stroke="currentColor" fill="none"/>
<defs>
<path id="r4" fill="currentColor" d="m-1 -8.5
	l3.6 5.1 -2.1 5.2 2.2 4.3
	c-2.6 -2.3 -5.1 0 -2.4 2.6
	c-4.8 -3 -1.5 -6.9 1.4 -4.1
	l-3.1 -4.5 1.9 -5.1 -1.5 -3.5"/>
</defs>
<use x="375.53" y="94.01" xlink:href="#r4"/>
<circle fill="currentColor" cx="383.53" cy="91.01" r="1.2"/>
<use x="413.53" y="97.01" xlink:href="#hd"/>
<use x="404.53" y="97.01" xlink:href="#sh0"/>
<path d="M417.03 97.01v-20.00" stroke="currentColor" fill="none"/>
<use x="434.43" y="88.01" xlink:href="#hd"/>
<circle fill="currentColor" cx="442.43" cy="85.01" r="1.2"/>
<use x="425.43" y="88.01" xlink:href="#sh0"/>
<path d="M430.93 88.01v20.00" stroke="currentColor" fill="none"/>
<use x="461.03" y="88.01" xlink:href="#hd"/>
<use x="452.03" y="88.01" xlink:href="#nt0"/>
<path d="M457.53 88.01v20.00" stroke="currentColor" fill="none"/>
<path fill="currentColor"
	d="M457.53 108.01c0.6 -5.6 9.6 -9 5.6 -18.4
	c1.6 6 -1.3 11.6 -5.6 12.8
"/>
<use x="491.03" y="88.01" xlink:href="#hd"/>
<use x="482.03" y="88.01" xlink:href="#sh0"/>
<path d="M487.53 88.01v20.00" stroke="currentColor" fill="none"/>
<use x="507.23" y="85.01" xlink:href="#hd"/>
<path d="M503.73 85.01v20.00" stroke="currentColor" fill="none"/>
<use x="523.53" y="91.01" xlink:href="#hd"/>
<path d="M520.03 91.01v20.00" stroke="currentColor" fill="none"/>
<use x="556.23" y="88.01" xlink:href="#hd"/>
<use x="547.23" y="88.01" xlink:href="#nt0"/>
<path d="M552.73 88.01v20.00" stroke="currentColor" fill="none"/>
<path fill="currentColor"
	d="M579.23 71.81l29.10 0.00v3.20l-29.10 -0.00"/>
<use x="576.03" y="97.01" xlink:href="#hd"/>
<use x="567.03" y="97.01" xlink:href="#sh0"/>
<path d="M579.53 97.01v-24.20" stroke="currentColor" fill="none"/>
<use x="586.53" y="91.01" xlink:href="#hd"/>
<path d="M590.03 91.01v-18.20" stroke="currentColor" fill="none"/>
<use x="604.53" y="97.01" xlink:href="#hd"/>
<use x="595.53" y="97.01" xlink:href="#sh0"/>
<path d="M608.03 97.01v-24.20" stroke="currentColor" fill="none"/>
<path fill="currentColor"
	d="M625.63 79.01l36.70 0.00v3.20l-36.70 -0.00"/>
<use x="622.53" y="100.01" xlink:href="#hd"/>
<use x="613.53" y="100.01" xlink:href="#sh0"/>
<path d="M626.03 100.01v-20.00" stroke="currentColor" fill="none"/>
<use x="640.53" y="97.01" xlink:href="#hd"/>
<use x="631.53" y="97.01" xlink:href="#sh0"/>
<path d="M644.03 97.01v-17.00" stroke="currentColor" fill="none"/>
<use x="658.53" y="100.01" xlink:href="#hd"/>
<use x="649.53" y="100.01" xlink:href="#sh0"/>
<path d="M662.03 100.01v-20.00" stroke="currentColor" fill="none"/>
<use x="681.13" y="103.01" xlink:href="#hd"/>
<path d="M684.63 103.01v-20.00" stroke="currentColor" fill="none"/>
<path fill="currentColor"
	d="M276.73 111.01c4.85 5.05 25.92 5.05 30.77 -0.00
	l0.00 0.23c-5.77 6.82 -25.00 6.82 -30.77 -0.23"/>
<path fill="currentColor"
	d="M314.43 111.01c5.64 5.14 30.16 5.14 35.79 -0.00
	l0.00 0.24c-6.71 6.91 -29.08 6.91 -35.79 -0.24"/>
</g>
</svg>
