<?xml version="1.0" standalone="no"?>
<!DOCTYPE svg PUBLIC "-//W3C//DTD SVG 1.1//EN"
	"http://www.w3.org/Graphics/SVG/1.1/DTD/svg11.dtd">
<svg xmlns="http://www.w3.org/2000/svg" version="1.1"
	xmlns:xlink="http://www.w3.org/1999/xlink"
	xml:space='preserve' color="black"
	width="7.38in" height="1.35in" viewBox="0 0 531 98">
<title>1976.abc (1976) tune 1</title>
<!-- Creator: abcm2ps-7.8.14 -->
<!-- CreationDate: Mar 13, 2016 18:53 -->
<!-- CommandLine: -qxg 1976.abc -O ../svgs/1976.svg -->
<g transform="scale(0.750)" stroke-width="0.70" font-family="Times" font-size="20.00">
<text x="354.13" y="21.67" text-anchor="middle">1976.  Ballet Suite, from La Rosiere Republicaine, Gavotte Gracieuse</text>
</g>
<g transform="scale(0.750)" stroke-width="0.70" font-family="Times" font-size="14.00" font-style="italic">
<text x="694.93" y="45.34" text-anchor="end">Andre Gretry</text>
</g>
<g transform="scale(0.525)" stroke-width="0.70" font-family="Times" font-size="14.00" font-style="italic">
<defs>
<ellipse id="hd" rx="4.1" ry="2.9"
	transform="rotate(-20)" fill="currentColor"/>
</defs>
<use x="107.04" y="94.16" xlink:href="#hd"/>
<path d="M110.54 94.16v-20.00" stroke="currentColor" fill="none"/>
</g>
<g transform="scale(0.750)" stroke-width="0.70" font-family="Times" font-size="15.00" font-weight="bold">
<text x="82.63" y="68.01">= 120</text>
<path stroke="currentColor" fill="none"
	d="M217.03 107.01v-24.00"/>
<path stroke="currentColor" fill="none"
	d="M387.83 107.01v-24.00"/>
<path stroke="currentColor" fill="none"
	d="M592.43 107.01v-24.00"/>
<path stroke="currentColor" fill="none"
	d="M13.33 107.01h681.60m-681.60 -6h681.60m-681.60 -6h681.60m-681.60 -6h681.60m-681.60 -6h681.60"/>
<defs>
<path id="utclef" fill="currentColor" d="m-50 -90
	c-72 -41 -72 -158 52 -188
	c150 -10 220 188 90 256
	c-114 52 -275 0 -293 -136
	c-15 -181 93 -229 220 -334
	c88 -87 79 -133 62 -210
	c-51 33 -94 105 -89 186
	c17 267 36 374 49 574
	c6 96 -19 134 -77 135
	c-80 1 -126 -93 -61 -133
	c85 -41 133 101 31 105
	c23 17 92 37 90 -92
	c-10 -223 -39 -342 -50 -617
	c0 -90 0 -162 96 -232
	c56 72 63 230 22 289
	c-74 106 -257 168 -255 316
	c9 153 148 185 252 133
	c86 -65 29 -192 -80 -176
	c-71 12 -105 67 -59 124"/>
<use id="tclef" transform="scale(0.045)"
	xlink:href="#utclef"/>
</defs>
<use x="25.33" y="107.01" xlink:href="#tclef"/>
<defs>
<path id="uflat" fill="currentColor" d="
	m100 -746
	h32
	v734
	l-32 4
	m32 -332
	c46 -72 152 -90 208 -20
	c100 110 -120 326 -208 348
	m0 -28
	c54 0 200 -206 130 -290
	c-50 -60 -130 -4 -130 34"/>
<use id="ft0" transform="translate(-3.5,3.5) scale(0.018)"
	xlink:href="#uflat"/>
</defs>
<use x="40.33" y="95.01" xlink:href="#ft0"/>
<g font-family="serif" font-size="16" font-weight="bold" font-style="normal"
	transform="translate(56.33,107.01) scale(1.2,1)">
	<text y="-1" text-anchor="middle">4</text>
	<text y="-13" text-anchor="middle">2</text>
</g>
<use x="74.33" y="83.01" xlink:href="#hd"/>
<path d="M70.83 83.01v20.00" stroke="currentColor" fill="none"/>
<path fill="currentColor"
	d="M121.43 105.31l23.60 -4.10v-3.20l-23.60 4.10"/>
<path fill="currentColor"
	d="M121.83 100.21l22.90 -3.90v-3.20l-22.90 3.90"/>
<use x="125.33" y="83.01" xlink:href="#hd"/>
<path d="M121.83 83.01v21.20" stroke="currentColor" fill="none"/>
<defs>
<path id="hl" stroke="currentColor" d="m-6 0h12"/>
</defs>
<use x="148.23" y="77.01" xlink:href="#hl"/>
<use x="148.23" y="77.01" xlink:href="#hd"/>
<path d="M144.73 77.01v23.30" stroke="currentColor" fill="none"/>
<path fill="currentColor"
	d="M169.93 96.21l23.60 3.10v-3.20l-23.60 -3.10"/>
<path fill="currentColor"
	d="M170.23 91.21l22.90 3.00v-3.20l-22.90 -3.00"/>
<use x="173.73" y="77.01" xlink:href="#hl"/>
<use x="173.73" y="71.01" xlink:href="#hl"/>
<use x="173.73" y="71.01" xlink:href="#hd"/>
<path d="M170.23 71.01v24.20" stroke="currentColor" fill="none"/>
<use x="196.63" y="77.01" xlink:href="#hl"/>
<use x="196.63" y="77.01" xlink:href="#hd"/>
<path d="M193.13 77.01v21.20" stroke="currentColor" fill="none"/>
<defs>
<path id="r8e" fill="currentColor" d="m 0 0
	c-1.5 1.5 -2.4 2 -3.6 2
	c2.4 -2.8 -2.8 -4 -2.8 -1.2
	c0 2.7 4.3 2.4 5.9 0.6"/>
<g id="r32">
	<path d="m4.8 -10l-5.5 21.6" stroke="currentColor" fill="none"/>
	<use x="4.9" y="-10" xlink:href="#r8e"/>
	<use x="3.4" y="-4" xlink:href="#r8e"/>
	<use x="1.9" y="2" xlink:href="#r8e"/>
</g>
</defs>
<use x="235.13" y="95.01" xlink:href="#r32"/>
<use x="253.13" y="83.01" xlink:href="#hd"/>
<circle fill="currentColor" cx="261.13" cy="80.01" r="1.2"/>
<path d="M249.63 83.01v22.00" stroke="currentColor" fill="none"/>
<path fill="currentColor"
	d="M249.63 105.01c0.9 -3.7 9.1 -6.4 6 -12.4
	c1 5.4 -4.2 8.4 -6 8.4
M249.63 99.61c0.9 -3.7 9.1 -6.4 6 -12.4
	c1 5.4 -4.2 8.4 -6 8.4
"/>
<path fill="currentColor"
	d="M278.33 108.61l37.60 2.60v-3.20l-37.60 -2.60"/>
<path fill="currentColor"
	d="M309.53 105.81l6.00 0.40v-3.20l-6.00 -0.40"/>
<use x="282.13" y="86.01" xlink:href="#hd"/>
<circle fill="currentColor" cx="290.13" cy="86.01" r="1.2"/>
<path d="M278.63 86.01v21.60" stroke="currentColor" fill="none"/>
<use x="319.03" y="89.01" xlink:href="#hd"/>
<path d="M315.53 89.01v21.20" stroke="currentColor" fill="none"/>
<path fill="currentColor"
	d="M340.73 107.21l23.60 4.10v-3.20l-23.60 -4.10"/>
<path fill="currentColor"
	d="M341.03 102.31l22.90 3.90v-3.20l-22.90 -3.90"/>
<use x="344.53" y="83.01" xlink:href="#hd"/>
<path d="M341.03 83.01v23.30" stroke="currentColor" fill="none"/>
<use x="367.53" y="89.01" xlink:href="#hd"/>
<path d="M364.03 89.01v21.20" stroke="currentColor" fill="none"/>
<use x="405.93" y="95.01" xlink:href="#r32"/>
<path fill="currentColor"
	d="M420.13 114.41l16.90 2.30v-3.20l-16.90 -2.30"/>
<path fill="currentColor"
	d="M420.43 109.41l16.20 2.20v-3.20l-16.20 -2.20"/>
<path fill="currentColor"
	d="M426.43 105.21l-6.00 -0.80v-3.20l6.00 0.80"/>
<use x="423.93" y="89.01" xlink:href="#hd"/>
<path d="M420.43 89.01v24.40" stroke="currentColor" fill="none"/>
<use x="440.13" y="92.01" xlink:href="#hd"/>
<path d="M436.63 92.01v23.60" stroke="currentColor" fill="none"/>
<use x="465.63" y="92.01" xlink:href="#hd"/>
<path d="M462.13 92.01v20.00" stroke="currentColor" fill="none"/>
<path fill="currentColor"
	d="M462.13 112.01c0.6 -5.6 9.6 -9 5.6 -18.4
	c1.6 6 -1.3 11.6 -5.6 12.8
"/>
<defs>
<g id="r16">
	<path d="m3.3 -4l-4 15.6" stroke="currentColor" fill="none"/>
	<use x="3.4" y="-4" xlink:href="#r8e"/>
	<use x="1.9" y="2" xlink:href="#r8e"/>
</g>
</defs>
<use x="498.13" y="95.01" xlink:href="#r16"/>
<use x="523.63" y="80.01" xlink:href="#hd"/>
<path d="M520.13 80.01v22.00" stroke="currentColor" fill="none"/>
<path fill="currentColor"
	d="M520.13 102.01c0.9 -3.7 9.1 -6.4 6 -12.4
	c1 5.4 -4.2 8.4 -6 8.4
M520.13 96.61c0.9 -3.7 9.1 -6.4 6 -12.4
	c1 5.4 -4.2 8.4 -6 8.4
"/>
<path fill="currentColor"
	d="M545.23 99.21l23.60 -2.40v-3.20l-23.60 2.40"/>
<path fill="currentColor"
	d="M545.63 94.21l22.90 -2.40v-3.20l-22.90 2.40"/>
<use x="549.13" y="77.01" xlink:href="#hl"/>
<use x="549.13" y="77.01" xlink:href="#hd"/>
<path d="M545.63 77.01v21.20" stroke="currentColor" fill="none"/>
<use x="572.03" y="77.01" xlink:href="#hl"/>
<use x="572.03" y="74.01" xlink:href="#hd"/>
<path d="M568.53 74.01v21.80" stroke="currentColor" fill="none"/>
<path fill="currentColor"
	d="M606.63 101.21l23.60 4.10v-3.20l-23.60 -4.10"/>
<path fill="currentColor"
	d="M606.93 96.31l22.90 3.90v-3.20l-22.90 -3.90"/>
<use x="610.43" y="77.01" xlink:href="#hl"/>
<use x="610.43" y="77.01" xlink:href="#hd"/>
<path d="M606.93 77.01v23.30" stroke="currentColor" fill="none"/>
<use x="633.33" y="83.01" xlink:href="#hd"/>
<path d="M629.83 83.01v21.20" stroke="currentColor" fill="none"/>
<use x="658.83" y="80.01" xlink:href="#hd"/>
<path d="M655.33 80.01v20.00" stroke="currentColor" fill="none"/>
<path fill="currentColor"
	d="M655.33 100.01c0.6 -5.6 9.6 -9 5.6 -18.4
	c1.6 6 -1.3 11.6 -5.6 12.8
"/>
<path fill="currentColor"
	d="M77.83 83.01c6.85 -5.29 37.13 -5.29 43.97 -0.00
	l0.00 -0.24c-8.17 -7.05 -35.81 -7.05 -43.97 0.24"/>
</g>
</svg>
