<?xml version="1.0" standalone="no"?>
<!DOCTYPE svg PUBLIC "-//W3C//DTD SVG 1.1//EN"
	"http://www.w3.org/Graphics/SVG/1.1/DTD/svg11.dtd">
<svg xmlns="http://www.w3.org/2000/svg" version="1.1"
	xmlns:xlink="http://www.w3.org/1999/xlink"
	xml:space='preserve' color="black"
	width="7.38in" height="1.34in" viewBox="0 0 531 97">
<title>1984.abc (1984) tune 1</title>
<!-- Creator: abcm2ps-7.8.14 -->
<!-- CreationDate: Mar 13, 2016 18:54 -->
<!-- CommandLine: -qxg 1984.abc -O ../svgs/1984.svg -->
<g transform="scale(0.750)" stroke-width="0.70" font-family="Times" font-size="20.00">
<text x="354.13" y="21.67" text-anchor="middle">1984.  Pft. Album Leaf, Op. 12, No. 7</text>
</g>
<g transform="scale(0.750)" stroke-width="0.70" font-family="Times" font-size="14.00" font-style="italic">
<text x="694.93" y="45.34" text-anchor="end">Edvard Grieg</text>
</g>
<g transform="scale(0.525)" stroke-width="0.70" font-family="Times" font-size="14.00" font-style="italic">
<defs>
<ellipse id="hd" rx="4.1" ry="2.9"
	transform="rotate(-20)" fill="currentColor"/>
</defs>
<use x="107.04" y="94.16" xlink:href="#hd"/>
<path d="M110.54 94.16v-20.00" stroke="currentColor" fill="none"/>
</g>
<g transform="scale(0.750)" stroke-width="0.70" font-family="Times" font-size="15.00" font-weight="bold">
<text x="82.63" y="68.01">= 120</text>
<path stroke="currentColor" fill="none"
	d="M191.33 106.01v-24.00"/>
<path stroke="currentColor" fill="none"
	d="M340.63 106.01v-24.00"/>
<path stroke="currentColor" fill="none"
	d="M489.93 106.01v-24.00"/>
<path stroke="currentColor" fill="none"
	d="M645.23 106.01v-24.00"/>
<path stroke="currentColor" fill="none"
	d="M13.33 106.01h681.60m-681.60 -6h681.60m-681.60 -6h681.60m-681.60 -6h681.60m-681.60 -6h681.60"/>
<defs>
<path id="utclef" fill="currentColor" d="m-50 -90
	c-72 -41 -72 -158 52 -188
	c150 -10 220 188 90 256
	c-114 52 -275 0 -293 -136
	c-15 -181 93 -229 220 -334
	c88 -87 79 -133 62 -210
	c-51 33 -94 105 -89 186
	c17 267 36 374 49 574
	c6 96 -19 134 -77 135
	c-80 1 -126 -93 -61 -133
	c85 -41 133 101 31 105
	c23 17 92 37 90 -92
	c-10 -223 -39 -342 -50 -617
	c0 -90 0 -162 96 -232
	c56 72 63 230 22 289
	c-74 106 -257 168 -255 316
	c9 153 148 185 252 133
	c86 -65 29 -192 -80 -176
	c-71 12 -105 67 -59 124"/>
<use id="tclef" transform="scale(0.045)"
	xlink:href="#utclef"/>
</defs>
<use x="25.33" y="106.01" xlink:href="#tclef"/>
<defs>
<path id="usharp" fill="currentColor" d="
	m136 -702
	v890
	h32
	v-890
	m128 840
	h32
	v-888
	h-32
	m-232 286
	v116
	l338 -96
	v-116
	m-338 442
	v116
	l338 -98
	v-114"/>
<use id="sh0" transform="translate(-4,5) scale(0.018)"
	xlink:href="#usharp"/>
</defs>
<use x="40.33" y="82.01" xlink:href="#sh0"/>
<g font-family="serif" font-size="16" font-weight="bold" font-style="normal"
	transform="translate(56.33,106.01) scale(1.2,1)">
	<text y="-1" text-anchor="middle">4</text>
	<text y="-13" text-anchor="middle">2</text>
</g>
<use x="74.33" y="94.01" xlink:href="#hd"/>
<path d="M70.83 94.01v20.00" stroke="currentColor" fill="none"/>
<path fill="currentColor"
	d="M70.83 114.01c0.6 -5.6 9.6 -9 5.6 -18.4
	c1.6 6 -1.3 11.6 -5.6 12.8
"/>
<path fill="currentColor"
	d="M103.63 106.81l34.60 -2.60v-3.20l-34.60 2.60"/>
<path fill="currentColor"
	d="M131.93 99.71l6.00 -0.50v-3.20l-6.00 0.50"/>
<use x="107.43" y="85.01" xlink:href="#hd"/>
<circle fill="currentColor" cx="115.43" cy="85.01" r="1.2"/>
<path d="M103.93 85.01v20.80" stroke="currentColor" fill="none"/>
<use x="141.43" y="82.01" xlink:href="#hd"/>
<path d="M137.93 82.01v21.20" stroke="currentColor" fill="none"/>
<use x="164.83" y="79.01" xlink:href="#hd"/>
<path d="M161.33 79.01v20.00" stroke="currentColor" fill="none"/>
<path fill="currentColor"
	d="M161.33 99.01c0.6 -5.6 9.6 -9 5.6 -18.4
	c1.6 6 -1.3 11.6 -5.6 12.8
"/>
<use x="207.93" y="82.01" xlink:href="#hd"/>
<path d="M204.43 82.01v20.00" stroke="currentColor" fill="none"/>
<path fill="currentColor"
	d="M204.43 102.01c0.6 -5.6 9.6 -9 5.6 -18.4
	c1.6 6 -1.3 11.6 -5.6 12.8
"/>
<defs>
<path id="r8e" fill="currentColor" d="m 0 0
	c-1.5 1.5 -2.4 2 -3.6 2
	c2.4 -2.8 -2.8 -4 -2.8 -1.2
	c0 2.7 4.3 2.4 5.9 0.6"/>
<g id="r32">
	<path d="m4.8 -10l-5.5 21.6" stroke="currentColor" fill="none"/>
	<use x="4.9" y="-10" xlink:href="#r8e"/>
	<use x="3.4" y="-4" xlink:href="#r8e"/>
	<use x="1.9" y="2" xlink:href="#r8e"/>
</g>
</defs>
<use x="237.73" y="94.01" xlink:href="#r32"/>
<defs>
<path id="hl" stroke="currentColor" d="m-6 0h12"/>
</defs>
<use x="254.33" y="76.01" xlink:href="#hl"/>
<use x="254.33" y="73.01" xlink:href="#hd"/>
<circle fill="currentColor" cx="262.33" cy="73.01" r="1.2"/>
<path d="M250.83 73.01v22.00" stroke="currentColor" fill="none"/>
<path fill="currentColor"
	d="M250.83 95.01c0.9 -3.7 9.1 -6.4 6 -12.4
	c1 5.4 -4.2 8.4 -6 8.4
M250.83 89.61c0.9 -3.7 9.1 -6.4 6 -12.4
	c1 5.4 -4.2 8.4 -6 8.4
"/>
<use x="280.93" y="76.01" xlink:href="#hl"/>
<use x="280.93" y="73.01" xlink:href="#hd"/>
<path d="M277.43 73.01v21.00" stroke="currentColor" fill="none"/>
<path fill="currentColor"
	d="M277.43 94.01c0.6 -5.6 9.6 -9 5.6 -18.4
	c1.6 6 -1.3 11.6 -5.6 12.8
"/>
<use x="314.13" y="85.01" xlink:href="#hd"/>
<path d="M310.63 85.01v20.00" stroke="currentColor" fill="none"/>
<path fill="currentColor"
	d="M310.63 105.01c0.6 -5.6 9.6 -9 5.6 -18.4
	c1.6 6 -1.3 11.6 -5.6 12.8
"/>
<use x="357.23" y="85.01" xlink:href="#hd"/>
<path d="M353.73 85.01v20.00" stroke="currentColor" fill="none"/>
<path fill="currentColor"
	d="M353.73 105.01c0.6 -5.6 9.6 -9 5.6 -18.4
	c1.6 6 -1.3 11.6 -5.6 12.8
"/>
<use x="387.03" y="94.01" xlink:href="#r32"/>
<use x="403.63" y="82.01" xlink:href="#hd"/>
<circle fill="currentColor" cx="411.63" cy="79.01" r="1.2"/>
<path d="M400.13 82.01v22.00" stroke="currentColor" fill="none"/>
<path fill="currentColor"
	d="M400.13 104.01c0.9 -3.7 9.1 -6.4 6 -12.4
	c1 5.4 -4.2 8.4 -6 8.4
M400.13 98.61c0.9 -3.7 9.1 -6.4 6 -12.4
	c1 5.4 -4.2 8.4 -6 8.4
"/>
<use x="430.23" y="82.01" xlink:href="#hd"/>
<path d="M426.73 82.01v20.00" stroke="currentColor" fill="none"/>
<path fill="currentColor"
	d="M426.73 102.01c0.6 -5.6 9.6 -9 5.6 -18.4
	c1.6 6 -1.3 11.6 -5.6 12.8
"/>
<use x="463.43" y="94.01" xlink:href="#hd"/>
<path d="M459.93 94.01v20.00" stroke="currentColor" fill="none"/>
<path fill="currentColor"
	d="M459.93 114.01c0.6 -5.6 9.6 -9 5.6 -18.4
	c1.6 6 -1.3 11.6 -5.6 12.8
"/>
<use x="506.53" y="94.01" xlink:href="#hd"/>
<path d="M503.03 94.01v20.00" stroke="currentColor" fill="none"/>
<path fill="currentColor"
	d="M503.03 114.01c0.6 -5.6 9.6 -9 5.6 -18.4
	c1.6 6 -1.3 11.6 -5.6 12.8
"/>
<use x="536.33" y="94.01" xlink:href="#r32"/>
<path fill="currentColor"
	d="M549.03 113.01l45.40 0.00v-3.20l-45.40 -0.00"/>
<path fill="currentColor"
	d="M579.23 108.01l14.90 0.00v-3.20l-14.90 -0.00"/>
<path fill="currentColor"
	d="M585.23 103.01l-6.00 -0.00v-3.20l6.00 0.00"/>
<use x="552.93" y="85.01" xlink:href="#hd"/>
<path d="M549.43 85.01v27.00" stroke="currentColor" fill="none"/>
<use x="582.73" y="85.01" xlink:href="#hd"/>
<path d="M579.23 85.01v27.00" stroke="currentColor" fill="none"/>
<use x="597.63" y="85.01" xlink:href="#hd"/>
<path d="M594.13 85.01v27.00" stroke="currentColor" fill="none"/>
<use x="618.73" y="106.01" xlink:href="#hd"/>
<path d="M622.23 106.01v-20.00" stroke="currentColor" fill="none"/>
<path fill="currentColor"
	d="	M622.23 86.01c0.6 5.6 9.6 9 5.6 18.4
	c1.6 -6 -1.3 -11.6 -5.6 -12.8
"/>
<use x="661.83" y="94.01" xlink:href="#hd"/>
<path d="M658.33 94.01v20.00" stroke="currentColor" fill="none"/>
<path fill="currentColor"
	d="M658.33 114.01c0.6 -5.6 9.6 -9 5.6 -18.4
	c1.6 6 -1.3 11.6 -5.6 12.8
"/>
<path fill="currentColor"
	d="M317.63 83.01c5.68 -5.15 30.40 -5.15 36.08 -0.00
	l0.00 -0.24c-6.77 -6.91 -29.32 -6.91 -36.08 0.24"/>
<path fill="currentColor"
	d="M466.93 94.01c5.68 -5.15 30.40 -5.15 36.08 -0.00
	l0.00 -0.24c-6.77 -6.91 -29.32 -6.91 -36.08 0.24"/>
<path fill="currentColor"
	d="M556.43 83.01c3.60 -4.91 19.23 -4.91 22.83 -0.00
	l0.00 -0.22c-4.28 -6.69 -18.55 -6.69 -22.83 0.22"/>
</g>
</svg>
