<?xml version="1.0" standalone="no"?>
<!DOCTYPE svg PUBLIC "-//W3C//DTD SVG 1.1//EN"
	"http://www.w3.org/Graphics/SVG/1.1/DTD/svg11.dtd">
<svg xmlns="http://www.w3.org/2000/svg" version="1.1"
	xmlns:xlink="http://www.w3.org/1999/xlink"
	xml:space='preserve' color="black"
	width="7.38in" height="1.34in" viewBox="0 0 531 97">
<title>2001.abc (2001) tune 1</title>
<!-- Creator: abcm2ps-7.8.14 -->
<!-- CreationDate: Mar 13, 2016 18:54 -->
<!-- CommandLine: -qxg 2001.abc -O ../svgs/2001.svg -->
<g transform="scale(0.750)" stroke-width="0.70" font-family="Times" font-size="20.00">
<text x="354.13" y="21.67" text-anchor="middle">2001.  Pft. French Serenade, Op. 62, No. 3</text>
</g>
<g transform="scale(0.750)" stroke-width="0.70" font-family="Times" font-size="14.00" font-style="italic">
<text x="694.93" y="45.34" text-anchor="end">Edvard Grieg</text>
</g>
<g transform="scale(0.525)" stroke-width="0.70" font-family="Times" font-size="14.00" font-style="italic">
<defs>
<ellipse id="hd" rx="4.1" ry="2.9"
	transform="rotate(-20)" fill="currentColor"/>
</defs>
<use x="122.76" y="94.16" xlink:href="#hd"/>
<path d="M126.26 94.16v-20.00" stroke="currentColor" fill="none"/>
</g>
<g transform="scale(0.750)" stroke-width="0.70" font-family="Times" font-size="15.00" font-weight="bold">
<text x="93.63" y="68.01">= 120</text>
<path stroke="currentColor" fill="none"
	d="M254.73 106.01v-24.00"/>
<path stroke="currentColor" fill="none"
	d="M398.33 106.01v-24.00"/>
<path stroke="currentColor" fill="none"
	d="M580.23 106.01v-24.00"/>
<path stroke="currentColor" fill="none"
	d="M13.33 106.01h681.60m-681.60 -6h681.60m-681.60 -6h681.60m-681.60 -6h681.60m-681.60 -6h681.60"/>
<defs>
<path id="utclef" fill="currentColor" d="m-50 -90
	c-72 -41 -72 -158 52 -188
	c150 -10 220 188 90 256
	c-114 52 -275 0 -293 -136
	c-15 -181 93 -229 220 -334
	c88 -87 79 -133 62 -210
	c-51 33 -94 105 -89 186
	c17 267 36 374 49 574
	c6 96 -19 134 -77 135
	c-80 1 -126 -93 -61 -133
	c85 -41 133 101 31 105
	c23 17 92 37 90 -92
	c-10 -223 -39 -342 -50 -617
	c0 -90 0 -162 96 -232
	c56 72 63 230 22 289
	c-74 106 -257 168 -255 316
	c9 153 148 185 252 133
	c86 -65 29 -192 -80 -176
	c-71 12 -105 67 -59 124"/>
<use id="tclef" transform="scale(0.045)"
	xlink:href="#utclef"/>
</defs>
<use x="25.33" y="106.01" xlink:href="#tclef"/>
<defs>
<path id="usharp" fill="currentColor" d="
	m136 -702
	v890
	h32
	v-890
	m128 840
	h32
	v-888
	h-32
	m-232 286
	v116
	l338 -96
	v-116
	m-338 442
	v116
	l338 -98
	v-114"/>
<use id="sh0" transform="translate(-4,5) scale(0.018)"
	xlink:href="#usharp"/>
</defs>
<use x="40.33" y="82.01" xlink:href="#sh0"/>
<use x="45.83" y="91.01" xlink:href="#sh0"/>
<use x="51.33" y="79.01" xlink:href="#sh0"/>
<g font-family="serif" font-size="16" font-weight="bold" font-style="normal"
	transform="translate(67.33,106.01) scale(1.2,1)">
	<text y="-1" text-anchor="middle">4</text>
	<text y="-13" text-anchor="middle">4</text>
</g>
<use x="85.33" y="106.01" xlink:href="#hd"/>
<path d="M88.83 106.01v-20.00" stroke="currentColor" fill="none"/>
<path fill="currentColor"
	d="	M88.83 86.01c0.6 5.6 9.6 9 5.6 18.4
	c1.6 -6 -1.3 -11.6 -5.6 -12.8
"/>
<use x="107.33" y="103.01" xlink:href="#hd"/>
<path d="M110.83 103.01v-20.00" stroke="currentColor" fill="none"/>
<path fill="currentColor"
	d="	M110.83 83.01c0.6 5.6 9.6 9 5.6 18.4
	c1.6 -6 -1.3 -11.6 -5.6 -12.8
"/>
<use x="129.33" y="100.01" xlink:href="#hd"/>
<path d="M132.83 100.01v-20.00" stroke="currentColor" fill="none"/>
<path fill="currentColor"
	d="	M132.83 80.01c0.6 5.6 9.6 9 5.6 18.4
	c1.6 -6 -1.3 -11.6 -5.6 -12.8
"/>
<use x="151.33" y="97.01" xlink:href="#hd"/>
<path d="M154.83 97.01v-20.00" stroke="currentColor" fill="none"/>
<path fill="currentColor"
	d="	M154.83 77.01c0.6 5.6 9.6 9 5.6 18.4
	c1.6 -6 -1.3 -11.6 -5.6 -12.8
"/>
<use x="173.33" y="100.01" xlink:href="#hd"/>
<path d="M176.83 100.01v-20.00" stroke="currentColor" fill="none"/>
<path fill="currentColor"
	d="	M176.83 80.01c0.6 5.6 9.6 9 5.6 18.4
	c1.6 -6 -1.3 -11.6 -5.6 -12.8
"/>
<use x="195.33" y="103.01" xlink:href="#hd"/>
<path d="M198.83 103.01v-20.00" stroke="currentColor" fill="none"/>
<path fill="currentColor"
	d="	M198.83 83.01c0.6 5.6 9.6 9 5.6 18.4
	c1.6 -6 -1.3 -11.6 -5.6 -12.8
"/>
<use x="217.53" y="94.01" xlink:href="#hd"/>
<path d="M214.03 94.01v20.00" stroke="currentColor" fill="none"/>
<path fill="currentColor"
	d="M214.03 114.01c0.6 -5.6 9.6 -9 5.6 -18.4
	c1.6 6 -1.3 11.6 -5.6 12.8
"/>
<use x="236.83" y="100.01" xlink:href="#hd"/>
<path d="M240.33 100.01v-20.00" stroke="currentColor" fill="none"/>
<path fill="currentColor"
	d="	M240.33 80.01c0.6 5.6 9.6 9 5.6 18.4
	c1.6 -6 -1.3 -11.6 -5.6 -12.8
"/>
<use x="267.23" y="106.01" xlink:href="#hd"/>
<path d="M270.73 106.01v-20.00" stroke="currentColor" fill="none"/>
<path fill="currentColor"
	d="	M270.73 86.01c0.6 5.6 9.6 9 5.6 18.4
	c1.6 -6 -1.3 -11.6 -5.6 -12.8
"/>
<use x="289.23" y="97.01" xlink:href="#hd"/>
<path d="M292.73 97.01v-20.00" stroke="currentColor" fill="none"/>
<path fill="currentColor"
	d="	M292.73 77.01c0.6 5.6 9.6 9 5.6 18.4
	c1.6 -6 -1.3 -11.6 -5.6 -12.8
"/>
<path fill="currentColor"
	d="M307.63 113.31l14.50 -2.20v-3.20l-14.50 2.20"/>
<path fill="currentColor"
	d="M307.93 108.21l13.90 -2.10v-3.20l-13.90 2.10"/>
<use x="311.43" y="91.01" xlink:href="#hd"/>
<path d="M307.93 91.01v21.20" stroke="currentColor" fill="none"/>
<use x="325.33" y="88.01" xlink:href="#hd"/>
<path d="M321.83 88.01v22.10" stroke="currentColor" fill="none"/>
<use x="340.63" y="85.01" xlink:href="#hd"/>
<path d="M337.13 85.01v20.00" stroke="currentColor" fill="none"/>
<defs>
<path id="r4" fill="currentColor" d="m-1 -8.5
	l3.6 5.1 -2.1 5.2 2.2 4.3
	c-2.6 -2.3 -5.1 0 -2.4 2.6
	c-4.8 -3 -1.5 -6.9 1.4 -4.1
	l-3.1 -4.5 1.9 -5.1 -1.5 -3.5"/>
</defs>
<use x="370.43" y="94.01" xlink:href="#r4"/>
<circle fill="currentColor" cx="378.43" cy="91.01" r="1.2"/>
<use x="410.83" y="106.01" xlink:href="#hd"/>
<path d="M414.33 106.01v-20.00" stroke="currentColor" fill="none"/>
<path fill="currentColor"
	d="	M414.33 86.01c0.6 5.6 9.6 9 5.6 18.4
	c1.6 -6 -1.3 -11.6 -5.6 -12.8
"/>
<use x="432.83" y="103.01" xlink:href="#hd"/>
<path d="M436.33 103.01v-20.00" stroke="currentColor" fill="none"/>
<path fill="currentColor"
	d="	M436.33 83.01c0.6 5.6 9.6 9 5.6 18.4
	c1.6 -6 -1.3 -11.6 -5.6 -12.8
"/>
<use x="454.83" y="100.01" xlink:href="#hd"/>
<path d="M458.33 100.01v-20.00" stroke="currentColor" fill="none"/>
<path fill="currentColor"
	d="	M458.33 80.01c0.6 5.6 9.6 9 5.6 18.4
	c1.6 -6 -1.3 -11.6 -5.6 -12.8
"/>
<use x="476.83" y="97.01" xlink:href="#hd"/>
<path d="M480.33 97.01v-20.00" stroke="currentColor" fill="none"/>
<path fill="currentColor"
	d="	M480.33 77.01c0.6 5.6 9.6 9 5.6 18.4
	c1.6 -6 -1.3 -11.6 -5.6 -12.8
"/>
<use x="499.03" y="91.01" xlink:href="#hd"/>
<path d="M495.53 91.01v20.00" stroke="currentColor" fill="none"/>
<path fill="currentColor"
	d="M495.53 111.01c0.6 -5.6 9.6 -9 5.6 -18.4
	c1.6 6 -1.3 11.6 -5.6 12.8
"/>
<use x="518.33" y="97.01" xlink:href="#hd"/>
<path d="M521.83 97.01v-20.00" stroke="currentColor" fill="none"/>
<path fill="currentColor"
	d="	M521.83 77.01c0.6 5.6 9.6 9 5.6 18.4
	c1.6 -6 -1.3 -11.6 -5.6 -12.8
"/>
<use x="540.33" y="100.01" xlink:href="#hd"/>
<path d="M543.83 100.01v-20.00" stroke="currentColor" fill="none"/>
<path fill="currentColor"
	d="	M543.83 80.01c0.6 5.6 9.6 9 5.6 18.4
	c1.6 -6 -1.3 -11.6 -5.6 -12.8
"/>
<use x="562.33" y="94.01" xlink:href="#hd"/>
<path d="M565.83 94.01v-20.00" stroke="currentColor" fill="none"/>
<path fill="currentColor"
	d="	M565.83 74.01c0.6 5.6 9.6 9 5.6 18.4
	c1.6 -6 -1.3 -11.6 -5.6 -12.8
"/>
<use x="592.73" y="100.01" xlink:href="#hd"/>
<path d="M596.23 100.01v-20.00" stroke="currentColor" fill="none"/>
<path fill="currentColor"
	d="	M596.23 80.01c0.6 5.6 9.6 9 5.6 18.4
	c1.6 -6 -1.3 -11.6 -5.6 -12.8
"/>
<use x="614.73" y="106.01" xlink:href="#hd"/>
<path d="M618.23 106.01v-20.00" stroke="currentColor" fill="none"/>
<path fill="currentColor"
	d="	M618.23 86.01c0.6 5.6 9.6 9 5.6 18.4
	c1.6 -6 -1.3 -11.6 -5.6 -12.8
"/>
<path fill="currentColor"
	d="M639.93 76.91l14.50 -2.20v3.20l-14.50 2.20"/>
<path fill="currentColor"
	d="M640.23 81.91l13.90 -2.10v3.20l-13.90 2.10"/>
<use x="636.73" y="100.01" xlink:href="#hd"/>
<path d="M640.23 100.01v-22.10" stroke="currentColor" fill="none"/>
<use x="650.63" y="97.01" xlink:href="#hd"/>
<path d="M654.13 97.01v-21.20" stroke="currentColor" fill="none"/>
<use x="665.93" y="94.01" xlink:href="#hd"/>
<path d="M669.43 94.01v-20.00" stroke="currentColor" fill="none"/>
</g>
</svg>
