<?xml version="1.0" standalone="no"?>
<!DOCTYPE svg PUBLIC "-//W3C//DTD SVG 1.1//EN"
	"http://www.w3.org/Graphics/SVG/1.1/DTD/svg11.dtd">
<svg xmlns="http://www.w3.org/2000/svg" version="1.1"
	xmlns:xlink="http://www.w3.org/1999/xlink"
	xml:space='preserve' color="black"
	width="7.38in" height="1.40in" viewBox="0 0 531 101">
<title>2009.abc (2009) tune 1</title>
<!-- Creator: abcm2ps-7.8.14 -->
<!-- CreationDate: Mar 13, 2016 18:54 -->
<!-- CommandLine: -qxg 2009.abc -O ../svgs/2009.svg -->
<g transform="scale(0.750)" stroke-width="0.70" font-family="Times" font-size="20.00">
<text x="354.13" y="21.67" text-anchor="middle">2009.  Pft. Little Bird, Op. 43, No. 4</text>
</g>
<g transform="scale(0.750)" stroke-width="0.70" font-family="Times" font-size="14.00" font-style="italic">
<text x="694.93" y="45.34" text-anchor="end">Edvard Grieg</text>
</g>
<g transform="scale(0.525)" stroke-width="0.70" font-family="Times" font-size="14.00" font-style="italic">
<defs>
<ellipse id="hd" rx="4.1" ry="2.9"
	transform="rotate(-20)" fill="currentColor"/>
</defs>
<use x="107.04" y="94.16" xlink:href="#hd"/>
<path d="M110.54 94.16v-20.00" stroke="currentColor" fill="none"/>
</g>
<g transform="scale(0.750)" stroke-width="0.70" font-family="Times" font-size="15.00" font-weight="bold">
<text x="82.63" y="68.01">= 120</text>
<path stroke="currentColor" fill="none"
	d="M228.53 111.01v-24.00"/>
<path stroke="currentColor" fill="none"
	d="M398.73 111.01v-24.00"/>
<path stroke="currentColor" fill="none"
	d="M606.03 111.01v-24.00"/>
<path stroke="currentColor" fill="none"
	d="M13.33 111.01h681.60m-681.60 -6h681.60m-681.60 -6h681.60m-681.60 -6h681.60m-681.60 -6h681.60"/>
<defs>
<path id="utclef" fill="currentColor" d="m-50 -90
	c-72 -41 -72 -158 52 -188
	c150 -10 220 188 90 256
	c-114 52 -275 0 -293 -136
	c-15 -181 93 -229 220 -334
	c88 -87 79 -133 62 -210
	c-51 33 -94 105 -89 186
	c17 267 36 374 49 574
	c6 96 -19 134 -77 135
	c-80 1 -126 -93 -61 -133
	c85 -41 133 101 31 105
	c23 17 92 37 90 -92
	c-10 -223 -39 -342 -50 -617
	c0 -90 0 -162 96 -232
	c56 72 63 230 22 289
	c-74 106 -257 168 -255 316
	c9 153 148 185 252 133
	c86 -65 29 -192 -80 -176
	c-71 12 -105 67 -59 124"/>
<use id="tclef" transform="scale(0.045)"
	xlink:href="#utclef"/>
</defs>
<use x="25.33" y="111.01" xlink:href="#tclef"/>
<defs>
<path id="uflat" fill="currentColor" d="
	m100 -746
	h32
	v734
	l-32 4
	m32 -332
	c46 -72 152 -90 208 -20
	c100 110 -120 326 -208 348
	m0 -28
	c54 0 200 -206 130 -290
	c-50 -60 -130 -4 -130 34"/>
<use id="ft0" transform="translate(-3.5,3.5) scale(0.018)"
	xlink:href="#uflat"/>
</defs>
<use x="40.33" y="99.01" xlink:href="#ft0"/>
<g font-family="serif" font-size="16" font-weight="bold" font-style="normal"
	transform="translate(56.33,111.01) scale(1.2,1)">
	<text y="-1" text-anchor="middle">8</text>
	<text y="-13" text-anchor="middle">6</text>
</g>
<path fill="currentColor"
	d="M70.53 106.01l49.30 0.00v-3.20l-49.30 -0.00"/>
<path fill="currentColor"
	d="M70.83 101.01l36.40 0.00v-3.20l-36.40 -0.00"/>
<path fill="currentColor"
	d="M70.83 96.01l36.40 0.00v-3.20l-36.40 -0.00"/>
<defs>
<path id="hl" stroke="currentColor" d="m-6 0h12"/>
</defs>
<use x="74.33" y="81.01" xlink:href="#hl"/>
<use x="74.33" y="81.01" xlink:href="#hd"/>
<path d="M70.83 81.01v24.00" stroke="currentColor" fill="none"/>
<use x="86.43" y="81.01" xlink:href="#hl"/>
<use x="86.43" y="78.01" xlink:href="#hd"/>
<path d="M82.93 78.01v27.00" stroke="currentColor" fill="none"/>
<use x="98.63" y="81.01" xlink:href="#hl"/>
<use x="98.63" y="81.01" xlink:href="#hd"/>
<path d="M95.13 81.01v24.00" stroke="currentColor" fill="none"/>
<use x="110.73" y="81.01" xlink:href="#hl"/>
<use x="110.73" y="78.01" xlink:href="#hd"/>
<path d="M107.23 78.01v27.00" stroke="currentColor" fill="none"/>
<use x="122.93" y="81.01" xlink:href="#hl"/>
<use x="122.93" y="81.01" xlink:href="#hd"/>
<path d="M119.43 81.01v24.00" stroke="currentColor" fill="none"/>
<defs>
<path id="r8e" fill="currentColor" d="m 0 0
	c-1.5 1.5 -2.4 2 -3.6 2
	c2.4 -2.8 -2.8 -4 -2.8 -1.2
	c0 2.7 4.3 2.4 5.9 0.6"/>
<g id="r8">
	<path d="m3.3 -4l-3.4 9.6" stroke="currentColor" fill="none"/>
	<use x="3.4" y="-4" xlink:href="#r8e"/>
</g>
</defs>
<use x="147.03" y="99.01" xlink:href="#r8"/>
<use x="171.23" y="102.01" xlink:href="#hd"/>
<path d="M174.73 102.01v-20.00" stroke="currentColor" fill="none"/>
<path fill="currentColor"
	d="	M174.73 82.01c0.6 5.6 9.6 9 5.6 18.4
	c1.6 -6 -1.3 -11.6 -5.6 -12.8
"/>
<use x="198.13" y="102.01" xlink:href="#hd"/>
<path d="M201.63 102.01v-20.00" stroke="currentColor" fill="none"/>
<path fill="currentColor"
	d="M238.13 99.21l49.30 0.00v-3.20l-49.30 -0.00"/>
<path fill="currentColor"
	d="M238.53 94.21l36.40 0.00v-3.20l-36.40 -0.00"/>
<path fill="currentColor"
	d="M238.53 89.21l36.40 0.00v-3.20l-36.40 -0.00"/>
<use x="242.03" y="81.01" xlink:href="#hl"/>
<use x="242.03" y="75.01" xlink:href="#hl"/>
<use x="242.03" y="72.01" xlink:href="#hd"/>
<path d="M238.53 72.01v26.20" stroke="currentColor" fill="none"/>
<use x="254.13" y="81.01" xlink:href="#hl"/>
<use x="254.13" y="75.01" xlink:href="#hl"/>
<use x="254.13" y="69.01" xlink:href="#hl"/>
<use x="254.13" y="69.01" xlink:href="#hd"/>
<path d="M250.63 69.01v29.20" stroke="currentColor" fill="none"/>
<use x="266.33" y="81.01" xlink:href="#hl"/>
<use x="266.33" y="75.01" xlink:href="#hl"/>
<use x="266.33" y="72.01" xlink:href="#hd"/>
<path d="M262.83 72.01v26.20" stroke="currentColor" fill="none"/>
<use x="278.43" y="81.01" xlink:href="#hl"/>
<use x="278.43" y="75.01" xlink:href="#hl"/>
<use x="278.43" y="69.01" xlink:href="#hl"/>
<use x="278.43" y="69.01" xlink:href="#hd"/>
<path d="M274.93 69.01v29.20" stroke="currentColor" fill="none"/>
<use x="290.63" y="81.01" xlink:href="#hl"/>
<use x="290.63" y="75.01" xlink:href="#hl"/>
<use x="290.63" y="72.01" xlink:href="#hd"/>
<path d="M287.13 72.01v26.20" stroke="currentColor" fill="none"/>
<use x="314.73" y="99.01" xlink:href="#r8"/>
<use x="341.63" y="93.01" xlink:href="#hd"/>
<path d="M338.13 93.01v20.00" stroke="currentColor" fill="none"/>
<path fill="currentColor"
	d="M338.13 113.01c0.6 -5.6 9.6 -9 5.6 -18.4
	c1.6 6 -1.3 11.6 -5.6 12.8
"/>
<use x="368.43" y="93.01" xlink:href="#hd"/>
<path d="M364.93 93.01v20.00" stroke="currentColor" fill="none"/>
<path fill="currentColor"
	d="M408.43 106.01l49.30 0.00v-3.20l-49.30 -0.00"/>
<path fill="currentColor"
	d="M408.83 101.01l36.40 0.00v-3.20l-36.40 -0.00"/>
<path fill="currentColor"
	d="M408.83 96.01l36.40 0.00v-3.20l-36.40 -0.00"/>
<use x="412.33" y="81.01" xlink:href="#hl"/>
<use x="412.33" y="81.01" xlink:href="#hd"/>
<path d="M408.83 81.01v24.00" stroke="currentColor" fill="none"/>
<use x="424.43" y="81.01" xlink:href="#hl"/>
<use x="424.43" y="78.01" xlink:href="#hd"/>
<path d="M420.93 78.01v27.00" stroke="currentColor" fill="none"/>
<use x="436.53" y="81.01" xlink:href="#hl"/>
<use x="436.53" y="81.01" xlink:href="#hd"/>
<path d="M433.03 81.01v24.00" stroke="currentColor" fill="none"/>
<use x="448.73" y="81.01" xlink:href="#hl"/>
<use x="448.73" y="78.01" xlink:href="#hd"/>
<path d="M445.23 78.01v27.00" stroke="currentColor" fill="none"/>
<use x="460.83" y="81.01" xlink:href="#hl"/>
<use x="460.83" y="81.01" xlink:href="#hd"/>
<path d="M457.33 81.01v24.00" stroke="currentColor" fill="none"/>
<use x="485.03" y="99.01" xlink:href="#r8"/>
<path fill="currentColor"
	d="M508.03 112.01l49.20 0.00v-3.20l-49.20 -0.00"/>
<path fill="currentColor"
	d="M508.33 107.01l36.40 0.00v-3.20l-36.40 -0.00"/>
<path fill="currentColor"
	d="M508.33 102.01l36.40 0.00v-3.20l-36.40 -0.00"/>
<use x="511.83" y="87.01" xlink:href="#hd"/>
<path d="M508.33 87.01v24.00" stroke="currentColor" fill="none"/>
<use x="524.03" y="84.01" xlink:href="#hd"/>
<path d="M520.53 84.01v27.00" stroke="currentColor" fill="none"/>
<use x="536.13" y="87.01" xlink:href="#hd"/>
<path d="M532.63 87.01v24.00" stroke="currentColor" fill="none"/>
<use x="548.23" y="84.01" xlink:href="#hd"/>
<path d="M544.73 84.01v27.00" stroke="currentColor" fill="none"/>
<use x="560.43" y="87.01" xlink:href="#hd"/>
<path d="M556.93 87.01v24.00" stroke="currentColor" fill="none"/>
<use x="584.53" y="99.01" xlink:href="#r8"/>
<path fill="currentColor"
	d="M615.73 106.01l49.30 0.00v-3.20l-49.30 -0.00"/>
<path fill="currentColor"
	d="M616.03 101.01l36.40 0.00v-3.20l-36.40 -0.00"/>
<path fill="currentColor"
	d="M616.03 96.01l36.40 0.00v-3.20l-36.40 -0.00"/>
<use x="619.53" y="81.01" xlink:href="#hl"/>
<use x="619.53" y="81.01" xlink:href="#hd"/>
<path d="M616.03 81.01v24.00" stroke="currentColor" fill="none"/>
<use x="631.73" y="81.01" xlink:href="#hl"/>
<use x="631.73" y="78.01" xlink:href="#hd"/>
<path d="M628.23 78.01v27.00" stroke="currentColor" fill="none"/>
<use x="643.83" y="81.01" xlink:href="#hl"/>
<use x="643.83" y="81.01" xlink:href="#hd"/>
<path d="M640.33 81.01v24.00" stroke="currentColor" fill="none"/>
<use x="656.03" y="81.01" xlink:href="#hl"/>
<use x="656.03" y="78.01" xlink:href="#hd"/>
<path d="M652.53 78.01v27.00" stroke="currentColor" fill="none"/>
<use x="668.13" y="81.01" xlink:href="#hl"/>
<use x="668.13" y="81.01" xlink:href="#hd"/>
<path d="M664.63 81.01v24.00" stroke="currentColor" fill="none"/>
</g>
</svg>
