<?xml version="1.0" standalone="no"?>
<!DOCTYPE svg PUBLIC "-//W3C//DTD SVG 1.1//EN"
	"http://www.w3.org/Graphics/SVG/1.1/DTD/svg11.dtd">
<svg xmlns="http://www.w3.org/2000/svg" version="1.1"
	xmlns:xlink="http://www.w3.org/1999/xlink"
	xml:space='preserve' color="black"
	width="7.38in" height="1.34in" viewBox="0 0 531 97">
<title>2031.abc (2031) tune 1</title>
<!-- Creator: abcm2ps-7.8.14 -->
<!-- CreationDate: Mar 13, 2016 18:54 -->
<!-- CommandLine: -qxg 2031.abc -O ../svgs/2031.svg -->
<g transform="scale(0.750)" stroke-width="0.70" font-family="Times" font-size="20.00">
<text x="354.13" y="21.67" text-anchor="middle">2031.  Pft. Papillon (Butterfly), Op. 43, No. 1</text>
</g>
<g transform="scale(0.750)" stroke-width="0.70" font-family="Times" font-size="14.00" font-style="italic">
<text x="694.93" y="45.34" text-anchor="end">Edvard Grieg</text>
</g>
<g transform="scale(0.525)" stroke-width="0.70" font-family="Times" font-size="14.00" font-style="italic">
<defs>
<ellipse id="hd" rx="4.1" ry="2.9"
	transform="rotate(-20)" fill="currentColor"/>
</defs>
<use x="122.76" y="94.16" xlink:href="#hd"/>
<path d="M126.26 94.16v-20.00" stroke="currentColor" fill="none"/>
</g>
<g transform="scale(0.750)" stroke-width="0.70" font-family="Times" font-size="15.00" font-weight="bold">
<text x="93.63" y="68.01">= 120</text>
<path stroke="currentColor" fill="none"
	d="M435.53 106.01v-24.00"/>
<path stroke="currentColor" fill="none"
	d="M694.93 106.01v-24.00"/>
<path stroke="currentColor" fill="none"
	d="M13.33 106.01h681.60m-681.60 -6h681.60m-681.60 -6h681.60m-681.60 -6h681.60m-681.60 -6h681.60"/>
<defs>
<path id="utclef" fill="currentColor" d="m-50 -90
	c-72 -41 -72 -158 52 -188
	c150 -10 220 188 90 256
	c-114 52 -275 0 -293 -136
	c-15 -181 93 -229 220 -334
	c88 -87 79 -133 62 -210
	c-51 33 -94 105 -89 186
	c17 267 36 374 49 574
	c6 96 -19 134 -77 135
	c-80 1 -126 -93 -61 -133
	c85 -41 133 101 31 105
	c23 17 92 37 90 -92
	c-10 -223 -39 -342 -50 -617
	c0 -90 0 -162 96 -232
	c56 72 63 230 22 289
	c-74 106 -257 168 -255 316
	c9 153 148 185 252 133
	c86 -65 29 -192 -80 -176
	c-71 12 -105 67 -59 124"/>
<use id="tclef" transform="scale(0.045)"
	xlink:href="#utclef"/>
</defs>
<use x="25.33" y="106.01" xlink:href="#tclef"/>
<defs>
<path id="usharp" fill="currentColor" d="
	m136 -702
	v890
	h32
	v-890
	m128 840
	h32
	v-888
	h-32
	m-232 286
	v116
	l338 -96
	v-116
	m-338 442
	v116
	l338 -98
	v-114"/>
<use id="sh0" transform="translate(-4,5) scale(0.018)"
	xlink:href="#usharp"/>
</defs>
<use x="40.33" y="82.01" xlink:href="#sh0"/>
<use x="45.83" y="91.01" xlink:href="#sh0"/>
<use x="51.33" y="79.01" xlink:href="#sh0"/>
<g font-family="serif" font-size="16" font-weight="bold" font-style="normal"
	transform="translate(67.33,106.01) scale(1.2,1)">
	<text y="-1" text-anchor="middle">4</text>
	<text y="-13" text-anchor="middle">4</text>
</g>
<path fill="currentColor"
	d="M81.53 112.91l38.10 9.30v-3.20l-38.10 -9.30"/>
<path fill="currentColor"
	d="M113.23 115.71l6.00 1.50v-3.20l-6.00 -1.50"/>
<use x="85.33" y="82.01" xlink:href="#hd"/>
<circle fill="currentColor" cx="93.33" cy="79.01" r="1.2"/>
<path d="M81.83 82.01v30.00" stroke="currentColor" fill="none"/>
<use x="122.73" y="100.01" xlink:href="#hd"/>
<path d="M119.23 100.01v21.20" stroke="currentColor" fill="none"/>
<path fill="currentColor"
	d="M149.23 74.01l23.90 0.00v3.20l-23.90 -0.00"/>
<path fill="currentColor"
	d="M149.53 79.01l23.30 0.00v3.20l-23.30 -0.00"/>
<use x="146.03" y="97.01" xlink:href="#hd"/>
<path d="M149.53 97.01v-22.00" stroke="currentColor" fill="none"/>
<use x="169.33" y="97.01" xlink:href="#hd"/>
<use x="160.33" y="97.01" xlink:href="#sh0"/>
<path d="M172.83 97.01v-22.00" stroke="currentColor" fill="none"/>
<path fill="currentColor"
	d="M191.33 116.21l23.90 -2.50v-3.20l-23.90 2.50"/>
<path fill="currentColor"
	d="M191.63 111.21l23.30 -2.40v-3.20l-23.30 2.40"/>
<use x="195.13" y="94.01" xlink:href="#hd"/>
<path d="M191.63 94.01v21.20" stroke="currentColor" fill="none"/>
<use x="218.43" y="91.01" xlink:href="#hd"/>
<defs>
<path id="unat" fill="currentColor" d="
	m96 -750
	h-32
	v716
	l32 -8
	l182 -54
	v282
	h32
	v-706
	l-34 10
	l-180 50
	v-290
	m0 592
	v-190
	l182 -52
	v188"/>
<use id="nt0" transform="translate(-3,5) scale(0.018)"
	xlink:href="#unat"/>
</defs>
<use x="209.43" y="91.01" xlink:href="#nt0"/>
<path d="M214.93 91.01v21.80" stroke="currentColor" fill="none"/>
<path fill="currentColor"
	d="M240.43 113.21l23.90 -2.50v-3.20l-23.90 2.50"/>
<path fill="currentColor"
	d="M240.73 108.21l23.30 -2.40v-3.20l-23.30 2.40"/>
<use x="244.23" y="91.01" xlink:href="#hd"/>
<use x="235.23" y="91.01" xlink:href="#sh0"/>
<path d="M240.73 91.01v21.20" stroke="currentColor" fill="none"/>
<use x="267.53" y="88.01" xlink:href="#hd"/>
<path d="M264.03 88.01v21.80" stroke="currentColor" fill="none"/>
<path fill="currentColor"
	d="M289.53 110.21l23.90 -2.50v-3.20l-23.90 2.50"/>
<path fill="currentColor"
	d="M289.83 105.21l23.30 -2.40v-3.20l-23.30 2.40"/>
<use x="293.33" y="88.01" xlink:href="#hd"/>
<use x="284.33" y="88.01" xlink:href="#sh0"/>
<path d="M289.83 88.01v21.20" stroke="currentColor" fill="none"/>
<use x="316.63" y="85.01" xlink:href="#hd"/>
<path d="M313.13 85.01v21.80" stroke="currentColor" fill="none"/>
<path fill="currentColor"
	d="M338.63 102.11l23.90 5.20v-3.20l-23.90 -5.20"/>
<path fill="currentColor"
	d="M338.93 97.11l23.30 5.10v-3.20l-23.30 -5.10"/>
<defs>
<path id="hl" stroke="currentColor" d="m-6 0h12"/>
</defs>
<use x="342.43" y="76.01" xlink:href="#hl"/>
<use x="342.43" y="76.01" xlink:href="#hd"/>
<use x="333.43" y="76.01" xlink:href="#nt0"/>
<path d="M338.93 76.01v25.10" stroke="currentColor" fill="none"/>
<use x="365.73" y="85.01" xlink:href="#hd"/>
<path d="M362.23 85.01v21.20" stroke="currentColor" fill="none"/>
<path fill="currentColor"
	d="M387.73 115.21l23.90 4.10v-3.20l-23.90 -4.10"/>
<path fill="currentColor"
	d="M388.03 110.21l23.30 4.00v-3.20l-23.30 -4.00"/>
<use x="391.53" y="91.01" xlink:href="#hd"/>
<path d="M388.03 91.01v23.20" stroke="currentColor" fill="none"/>
<use x="414.83" y="97.01" xlink:href="#hd"/>
<path d="M411.33 97.01v21.20" stroke="currentColor" fill="none"/>
<path fill="currentColor"
	d="M450.83 119.21l220.30 0.00v-3.20l-220.30 -0.00"/>
<path fill="currentColor"
	d="M482.63 114.21l6.00 0.00v-3.20l-6.00 -0.00"/>
<path fill="currentColor"
	d="M543.33 114.21l6.00 0.00v-3.20l-6.00 -0.00"/>
<path fill="currentColor"
	d="M604.03 114.21l6.00 0.00v-3.20l-6.00 -0.00"/>
<path fill="currentColor"
	d="M664.73 114.21l6.00 0.00v-3.20l-6.00 -0.00"/>
<use x="454.63" y="100.01" xlink:href="#hd"/>
<circle fill="currentColor" cx="462.63" cy="97.01" r="1.2"/>
<use x="445.63" y="100.01" xlink:href="#nt0"/>
<path d="M451.13 100.01v18.20" stroke="currentColor" fill="none"/>
<use x="492.13" y="85.01" xlink:href="#hd"/>
<path d="M488.63 85.01v33.20" stroke="currentColor" fill="none"/>
<use x="515.43" y="100.01" xlink:href="#hd"/>
<circle fill="currentColor" cx="523.43" cy="97.01" r="1.2"/>
<use x="506.43" y="100.01" xlink:href="#sh0"/>
<path d="M511.93 100.01v18.20" stroke="currentColor" fill="none"/>
<use x="552.83" y="85.01" xlink:href="#hd"/>
<path d="M549.33 85.01v33.20" stroke="currentColor" fill="none"/>
<use x="576.13" y="100.01" xlink:href="#hd"/>
<circle fill="currentColor" cx="584.13" cy="97.01" r="1.2"/>
<use x="567.13" y="100.01" xlink:href="#nt0"/>
<path d="M572.63 100.01v18.20" stroke="currentColor" fill="none"/>
<use x="613.53" y="85.01" xlink:href="#hd"/>
<path d="M610.03 85.01v33.20" stroke="currentColor" fill="none"/>
<use x="636.83" y="100.01" xlink:href="#hd"/>
<circle fill="currentColor" cx="644.83" cy="97.01" r="1.2"/>
<use x="627.83" y="100.01" xlink:href="#nt0"/>
<path d="M633.33 100.01v18.20" stroke="currentColor" fill="none"/>
<use x="674.23" y="82.01" xlink:href="#hd"/>
<use x="665.23" y="82.01" xlink:href="#nt0"/>
<path d="M670.73 82.01v36.20" stroke="currentColor" fill="none"/>
</g>
</svg>
