<?xml version="1.0" standalone="no"?>
<!DOCTYPE svg PUBLIC "-//W3C//DTD SVG 1.1//EN"
	"http://www.w3.org/Graphics/SVG/1.1/DTD/svg11.dtd">
<svg xmlns="http://www.w3.org/2000/svg" version="1.1"
	xmlns:xlink="http://www.w3.org/1999/xlink"
	xml:space='preserve' color="black"
	width="7.38in" height="1.34in" viewBox="0 0 531 97">
<title>2114.abc (2114) tune 1</title>
<!-- Creator: abcm2ps-7.8.14 -->
<!-- CreationDate: Mar 13, 2016 18:54 -->
<!-- CommandLine: -qxg 2114.abc -O ../svgs/2114.svg -->
<g transform="scale(0.750)" stroke-width="0.70" font-family="Times" font-size="20.00">
<text x="354.13" y="21.67" text-anchor="middle">2114.  Grand Canyon Suite, 3rd. Mvt., 2nd. Theme</text>
</g>
<g transform="scale(0.750)" stroke-width="0.70" font-family="Times" font-size="14.00" font-style="italic">
<text x="694.93" y="45.34" text-anchor="end">Ferde Grofe</text>
</g>
<g transform="scale(0.525)" stroke-width="0.70" font-family="Times" font-size="14.00" font-style="italic">
<defs>
<ellipse id="hd" rx="4.1" ry="2.9"
	transform="rotate(-20)" fill="currentColor"/>
</defs>
<use x="122.76" y="94.16" xlink:href="#hd"/>
<path d="M126.26 94.16v-20.00" stroke="currentColor" fill="none"/>
</g>
<g transform="scale(0.750)" stroke-width="0.70" font-family="Times" font-size="15.00" font-weight="bold">
<text x="93.63" y="68.01">= 120</text>
<path stroke="currentColor" fill="none"
	d="M135.63 106.01v-24.00"/>
<path stroke="currentColor" fill="none"
	d="M199.83 106.01v-24.00"/>
<path stroke="currentColor" fill="none"
	d="M262.63 106.01v-24.00"/>
<path stroke="currentColor" fill="none"
	d="M326.83 106.01v-24.00"/>
<path stroke="currentColor" fill="none"
	d="M420.13 106.01v-24.00"/>
<path stroke="currentColor" fill="none"
	d="M558.63 106.01v-24.00"/>
<path stroke="currentColor" fill="none"
	d="M648.23 106.01v-24.00"/>
<path stroke="currentColor" fill="none"
	d="M694.93 106.01v-24.00"/>
<path stroke="currentColor" fill="none"
	d="M13.33 106.01h681.60m-681.60 -6h681.60m-681.60 -6h681.60m-681.60 -6h681.60m-681.60 -6h681.60"/>
<defs>
<path id="utclef" fill="currentColor" d="m-50 -90
	c-72 -41 -72 -158 52 -188
	c150 -10 220 188 90 256
	c-114 52 -275 0 -293 -136
	c-15 -181 93 -229 220 -334
	c88 -87 79 -133 62 -210
	c-51 33 -94 105 -89 186
	c17 267 36 374 49 574
	c6 96 -19 134 -77 135
	c-80 1 -126 -93 -61 -133
	c85 -41 133 101 31 105
	c23 17 92 37 90 -92
	c-10 -223 -39 -342 -50 -617
	c0 -90 0 -162 96 -232
	c56 72 63 230 22 289
	c-74 106 -257 168 -255 316
	c9 153 148 185 252 133
	c86 -65 29 -192 -80 -176
	c-71 12 -105 67 -59 124"/>
<use id="tclef" transform="scale(0.045)"
	xlink:href="#utclef"/>
</defs>
<use x="25.33" y="106.01" xlink:href="#tclef"/>
<defs>
<path id="usharp" fill="currentColor" d="
	m136 -702
	v890
	h32
	v-890
	m128 840
	h32
	v-888
	h-32
	m-232 286
	v116
	l338 -96
	v-116
	m-338 442
	v116
	l338 -98
	v-114"/>
<use id="sh0" transform="translate(-4,5) scale(0.018)"
	xlink:href="#usharp"/>
</defs>
<use x="40.33" y="82.01" xlink:href="#sh0"/>
<use x="45.83" y="91.01" xlink:href="#sh0"/>
<use x="51.33" y="79.01" xlink:href="#sh0"/>
<g font-family="serif" font-size="16" font-weight="bold" font-style="normal"
	transform="translate(67.33,106.01) scale(1.2,1)">
	<text y="-1" text-anchor="middle">2</text>
	<text y="-13" text-anchor="middle">2</text>
</g>
<defs>
<path id="hl" stroke="currentColor" d="m-6 0h12"/>
</defs>
<use x="85.33" y="112.01" xlink:href="#hl"/>
<use x="85.33" y="112.01" xlink:href="#hd"/>
<path d="M88.83 112.01v-20.00" stroke="currentColor" fill="none"/>
<defs>
<path id="Hd" fill="currentColor" d="m3 -1.6
	c-1 -1.8 -7 1.4 -6 3.2
	c1 1.8 7 -1.4 6 -3.2
	m0.5 -0.3
	c2 3.8 -5 7.6 -7 3.8
	c-2 -3.8 5 -7.6 7 -3.8"/>
</defs>
<use x="106.53" y="106.01" xlink:href="#Hd"/>
<circle fill="currentColor" cx="115.53" cy="103.01" r="1.2"/>
<path d="M110.03 106.01v-20.00" stroke="currentColor" fill="none"/>
<defs>
<path id="HD" fill="currentColor" d="m-2.7 -1.4
	c1.5 -2.8 6.9 0 5.3 2.7
	c-1.5 2.8 -6.9 0 -5.3 -2.7
	m8.3 1.4
	c0 -1.5 -2.2 -3 -5.6 -3
	c-3.4 0 -5.6 1.5 -5.6 3
	c0 1.5 2.2 3 5.6 3
	c3.4 0 5.6 -1.5 5.6 -3"/>
</defs>
<use x="150.63" y="106.01" xlink:href="#HD"/>
<defs>
<path id="ubclef" fill="currentColor" d="m-200 -87
	c124 -35 222 -78 254 -236
	c43 -228 -167 -246 -192 -103
	c59 -80 157 22 92 78
	c-62 47 -115 -22 -106 -88
	c21 -141 270 -136 274 52
	c-1 175 -106 264 -322 297
	m357 -250
	c0 -36 51 -34 51 0
	c0 37 -51 36 -51 0
	m-2 -129
	c0 -36 51 -34 51 0
	c0 38 -51 37 -51 0"/>
<use id="sbclef" transform="translate(0,-3.5) scale(0.037)"
	xlink:href="#ubclef"/>
</defs>
<use x="184.83" y="106.01" xlink:href="#sbclef"/>
<use x="212.33" y="76.01" xlink:href="#hl"/>
<use x="212.33" y="76.01" xlink:href="#hd"/>
<path d="M208.83 76.01v20.00" stroke="currentColor" fill="none"/>
<use x="233.53" y="91.01" xlink:href="#Hd"/>
<circle fill="currentColor" cx="242.53" cy="91.01" r="1.2"/>
<path d="M230.03 91.01v20.00" stroke="currentColor" fill="none"/>
<use x="277.63" y="91.01" xlink:href="#HD"/>
<defs>
<use id="stclef" transform="translate(0,-0.6) scale(0.037)"
	xlink:href="#utclef"/>
</defs>
<use x="311.83" y="106.01" xlink:href="#stclef"/>
<use x="339.33" y="112.01" xlink:href="#hl"/>
<use x="339.33" y="112.01" xlink:href="#hd"/>
<path d="M342.83 112.01v-20.00" stroke="currentColor" fill="none"/>
<use x="360.43" y="106.01" xlink:href="#hd"/>
<path d="M363.93 106.01v-20.00" stroke="currentColor" fill="none"/>
<use x="381.53" y="97.01" xlink:href="#hd"/>
<path d="M385.03 97.01v-20.00" stroke="currentColor" fill="none"/>
<use x="402.63" y="103.01" xlink:href="#hd"/>
<path d="M406.13 103.01v-20.00" stroke="currentColor" fill="none"/>
<use x="433.13" y="103.01" xlink:href="#Hd"/>
<path d="M436.63 103.01v-20.00" stroke="currentColor" fill="none"/>
<use x="462.03" y="106.01" xlink:href="#hd"/>
<path d="M465.53 106.01v-20.00" stroke="currentColor" fill="none"/>
<use x="483.13" y="112.01" xlink:href="#hl"/>
<use x="483.13" y="112.01" xlink:href="#hd"/>
<path d="M486.63 112.01v-20.00" stroke="currentColor" fill="none"/>
<path fill="currentColor"
	d="	M486.63 92.01c0.6 5.6 9.6 9 5.6 18.4
	c1.6 -6 -1.3 -11.6 -5.6 -12.8
"/>
<path fill="currentColor"
	d="M512.33 86.71l11.20 3.00v3.20l-11.20 -3.00"/>
<path fill="currentColor"
	d="M512.63 91.81l10.50 2.80v3.20l-10.50 -2.80"/>
<path fill="currentColor"
	d="M518.63 98.41l-6.00 -1.60v3.20l6.00 1.60"/>
<use x="509.13" y="112.01" xlink:href="#hl"/>
<use x="509.13" y="112.01" xlink:href="#hd"/>
<path d="M512.63 112.01v-24.20" stroke="currentColor" fill="none"/>
<use x="519.63" y="112.01" xlink:href="#hl"/>
<use x="519.63" y="118.01" xlink:href="#hl"/>
<use x="519.63" y="118.01" xlink:href="#hd"/>
<circle fill="currentColor" cx="527.63" cy="115.01" r="1.2"/>
<path d="M523.13 118.01v-27.40" stroke="currentColor" fill="none"/>
<use x="543.63" y="106.01" xlink:href="#sbclef"/>
<path fill="currentColor"
	d="M567.33 116.01l39.20 3.10v-3.20l-39.20 -3.10"/>
<path fill="currentColor"
	d="M573.63 111.51l-6.00 -0.50v-3.20l6.00 0.50"/>
<path fill="currentColor"
	d="M600.13 113.61l6.00 0.50v-3.20l-6.00 -0.50"/>
<path fill="currentColor"
	d="M600.13 108.61l6.00 0.50v-3.20l-6.00 -0.50"/>
<use x="571.13" y="82.01" xlink:href="#hd"/>
<path d="M567.63 82.01v33.10" stroke="currentColor" fill="none"/>
<defs>
<path id="r8e" fill="currentColor" d="m 0 0
	c-1.5 1.5 -2.4 2 -3.6 2
	c2.4 -2.8 -2.8 -4 -2.8 -1.2
	c0 2.7 4.3 2.4 5.9 0.6"/>
<g id="r32">
	<path d="m4.8 -10l-5.5 21.6" stroke="currentColor" fill="none"/>
	<use x="4.9" y="-10" xlink:href="#r8e"/>
	<use x="3.4" y="-4" xlink:href="#r8e"/>
	<use x="1.9" y="2" xlink:href="#r8e"/>
</g>
</defs>
<use x="582.13" y="94.01" xlink:href="#r32"/>
<use x="591.13" y="88.01" xlink:href="#hd"/>
<path d="M587.63 88.01v28.60" stroke="currentColor" fill="none"/>
<use x="609.63" y="88.01" xlink:href="#hd"/>
<path d="M606.13 88.01v30.10" stroke="currentColor" fill="none"/>
<use x="619.13" y="79.01" xlink:href="#Hd"/>
<circle fill="currentColor" cx="628.13" cy="79.01" r="1.2"/>
<path d="M615.63 79.01v20.00" stroke="currentColor" fill="none"/>
<use x="663.23" y="79.01" xlink:href="#HD"/>
<path fill="currentColor"
	d="M110.03 106.01c5.68 5.15 30.40 5.15 36.08 -0.00
	l0.00 0.24c-6.77 6.91 -29.32 6.91 -36.08 -0.24"/>
<path fill="currentColor"
	d="M237.03 89.01c5.68 -5.15 30.40 -5.15 36.08 -0.00
	l0.00 -0.24c-6.77 -6.91 -29.32 -6.91 -36.08 0.24"/>
<path fill="currentColor"
	d="M406.13 105.01c3.71 4.92 19.85 4.92 23.56 -0.00
	l0.00 0.22c-4.42 6.70 -19.14 6.70 -23.56 -0.22"/>
<path fill="currentColor"
	d="M486.63 112.01c2.99 4.84 16.01 4.84 19.00 -0.00
	l0.00 0.22c-3.56 6.62 -15.44 6.62 -19.00 -0.22"/>
<path fill="currentColor"
	d="M523.13 118.01c3.06 4.85 16.34 4.85 19.40 -0.00
	l0.00 0.22c-3.64 6.63 -15.76 6.63 -19.40 -0.22"/>
<path fill="currentColor"
	d="M550.63 82.01c2.68 -4.81 14.32 -4.81 17.00 -0.00
	l0.00 -0.22c-3.19 -6.59 -13.81 -6.59 -17.00 0.22"/>
<path fill="currentColor"
	d="M591.13 88.01c2.91 -4.83 15.59 -4.83 18.50 -0.00
	l0.00 -0.22c-3.47 -6.61 -15.03 -6.61 -18.50 0.22"/>
<path fill="currentColor"
	d="M622.63 77.01c5.68 -5.15 30.40 -5.15 36.08 -0.00
	l0.00 -0.24c-6.77 -6.91 -29.32 -6.91 -36.08 0.24"/>
</g>
</svg>
