<?xml version="1.0" standalone="no"?>
<!DOCTYPE svg PUBLIC "-//W3C//DTD SVG 1.1//EN"
	"http://www.w3.org/Graphics/SVG/1.1/DTD/svg11.dtd">
<svg xmlns="http://www.w3.org/2000/svg" version="1.1"
	xmlns:xlink="http://www.w3.org/1999/xlink"
	xml:space='preserve' color="black"
	width="7.38in" height="1.34in" viewBox="0 0 531 97">
<title>2151.abc (2151) tune 1</title>
<!-- Creator: abcm2ps-7.8.14 -->
<!-- CreationDate: Mar 13, 2016 18:54 -->
<!-- CommandLine: -qxg 2151.abc -O ../svgs/2151.svg -->
<g transform="scale(0.750)" stroke-width="0.70" font-family="Times" font-size="20.00">
<text x="354.13" y="21.67" text-anchor="middle">2151.  Concerto No. 7 in B Flat , Op. 7, No. 1, 2nd. Mvt., 1st. Theme</text>
</g>
<g transform="scale(0.750)" stroke-width="0.70" font-family="Times" font-size="14.00" font-style="italic">
<text x="694.93" y="45.34" text-anchor="end">George Frideric Handel</text>
</g>
<g transform="scale(0.525)" stroke-width="0.70" font-family="Times" font-size="14.00" font-style="italic">
<defs>
<ellipse id="hd" rx="4.1" ry="2.9"
	transform="rotate(-20)" fill="currentColor"/>
</defs>
<use x="114.90" y="94.16" xlink:href="#hd"/>
<path d="M118.40 94.16v-20.00" stroke="currentColor" fill="none"/>
</g>
<g transform="scale(0.750)" stroke-width="0.70" font-family="Times" font-size="15.00" font-weight="bold">
<text x="88.13" y="68.01">= 120</text>
<path stroke="currentColor" fill="none"
	d="M226.23 106.01v-24.00"/>
<path stroke="currentColor" fill="none"
	d="M383.33 106.01v-24.00"/>
<path stroke="currentColor" fill="none"
	d="M540.43 106.01v-24.00"/>
<path stroke="currentColor" fill="none"
	d="M694.93 106.01v-24.00"/>
<path stroke="currentColor" fill="none"
	d="M13.33 106.01h681.60m-681.60 -6h681.60m-681.60 -6h681.60m-681.60 -6h681.60m-681.60 -6h681.60"/>
<defs>
<path id="utclef" fill="currentColor" d="m-50 -90
	c-72 -41 -72 -158 52 -188
	c150 -10 220 188 90 256
	c-114 52 -275 0 -293 -136
	c-15 -181 93 -229 220 -334
	c88 -87 79 -133 62 -210
	c-51 33 -94 105 -89 186
	c17 267 36 374 49 574
	c6 96 -19 134 -77 135
	c-80 1 -126 -93 -61 -133
	c85 -41 133 101 31 105
	c23 17 92 37 90 -92
	c-10 -223 -39 -342 -50 -617
	c0 -90 0 -162 96 -232
	c56 72 63 230 22 289
	c-74 106 -257 168 -255 316
	c9 153 148 185 252 133
	c86 -65 29 -192 -80 -176
	c-71 12 -105 67 -59 124"/>
<use id="tclef" transform="scale(0.045)"
	xlink:href="#utclef"/>
</defs>
<use x="25.33" y="106.01" xlink:href="#tclef"/>
<defs>
<path id="uflat" fill="currentColor" d="
	m100 -746
	h32
	v734
	l-32 4
	m32 -332
	c46 -72 152 -90 208 -20
	c100 110 -120 326 -208 348
	m0 -28
	c54 0 200 -206 130 -290
	c-50 -60 -130 -4 -130 34"/>
<use id="ft0" transform="translate(-3.5,3.5) scale(0.018)"
	xlink:href="#uflat"/>
</defs>
<use x="40.33" y="94.01" xlink:href="#ft0"/>
<use x="45.83" y="85.01" xlink:href="#ft0"/>
<g font-family="serif" font-size="16" font-weight="bold" font-style="normal"
	transform="translate(61.83,106.01) scale(1.2,1)">
	<text y="-1" text-anchor="middle">4</text>
	<text y="-13" text-anchor="middle">3</text>
</g>
<defs>
<path id="r8e" fill="currentColor" d="m 0 0
	c-1.5 1.5 -2.4 2 -3.6 2
	c2.4 -2.8 -2.8 -4 -2.8 -1.2
	c0 2.7 4.3 2.4 5.9 0.6"/>
<g id="r8">
	<path d="m3.3 -4l-3.4 9.6" stroke="currentColor" fill="none"/>
	<use x="3.4" y="-4" xlink:href="#r8e"/>
</g>
</defs>
<use x="79.83" y="94.01" xlink:href="#r8"/>
<path fill="currentColor"
	d="M102.63 113.31l24.60 -4.10v-3.20l-24.60 4.10"/>
<use x="106.43" y="94.01" xlink:href="#hd"/>
<path d="M102.93 94.01v18.20" stroke="currentColor" fill="none"/>
<use x="130.43" y="88.01" xlink:href="#hd"/>
<path d="M126.93 88.01v20.20" stroke="currentColor" fill="none"/>
<path fill="currentColor"
	d="M153.13 101.21l48.60 -3.20v-3.20l-48.60 3.20"/>
<use x="157.03" y="82.01" xlink:href="#hd"/>
<path d="M153.53 82.01v18.20" stroke="currentColor" fill="none"/>
<defs>
<path id="hl" stroke="currentColor" d="m-6 0h12"/>
</defs>
<use x="180.93" y="76.01" xlink:href="#hl"/>
<use x="180.93" y="73.01" xlink:href="#hd"/>
<path d="M177.43 73.01v25.60" stroke="currentColor" fill="none"/>
<use x="204.93" y="76.01" xlink:href="#hl"/>
<use x="204.93" y="76.01" xlink:href="#hd"/>
<path d="M201.43 76.01v21.10" stroke="currentColor" fill="none"/>
<path fill="currentColor"
	d="M235.73 99.61l48.60 4.90v-3.20l-48.60 -4.90"/>
<use x="239.63" y="79.01" xlink:href="#hd"/>
<path d="M236.13 79.01v19.60" stroke="currentColor" fill="none"/>
<use x="263.53" y="82.01" xlink:href="#hd"/>
<path d="M260.03 82.01v19.00" stroke="currentColor" fill="none"/>
<use x="287.53" y="85.01" xlink:href="#hd"/>
<path d="M284.03 85.01v18.40" stroke="currentColor" fill="none"/>
<path fill="currentColor"
	d="M310.33 108.61l48.60 4.90v-3.20l-48.60 -4.90"/>
<use x="314.13" y="88.01" xlink:href="#hd"/>
<path d="M310.63 88.01v19.60" stroke="currentColor" fill="none"/>
<use x="338.03" y="91.01" xlink:href="#hd"/>
<path d="M334.53 91.01v19.00" stroke="currentColor" fill="none"/>
<use x="362.03" y="94.01" xlink:href="#hd"/>
<path d="M358.53 94.01v18.40" stroke="currentColor" fill="none"/>
<path fill="currentColor"
	d="M399.83 79.01l48.60 0.00v3.20l-48.60 -0.00"/>
<use x="396.73" y="97.01" xlink:href="#hd"/>
<path d="M400.23 97.01v-17.00" stroke="currentColor" fill="none"/>
<use x="420.63" y="103.01" xlink:href="#hd"/>
<path d="M424.13 103.01v-23.00" stroke="currentColor" fill="none"/>
<use x="444.63" y="97.01" xlink:href="#hd"/>
<path d="M448.13 97.01v-17.00" stroke="currentColor" fill="none"/>
<path fill="currentColor"
	d="M467.43 110.21l48.60 -3.20v-3.20l-48.60 3.20"/>
<use x="471.23" y="91.01" xlink:href="#hd"/>
<path d="M467.73 91.01v18.20" stroke="currentColor" fill="none"/>
<use x="495.23" y="82.01" xlink:href="#hd"/>
<path d="M491.73 82.01v25.60" stroke="currentColor" fill="none"/>
<use x="519.13" y="85.01" xlink:href="#hd"/>
<path d="M515.63 85.01v21.10" stroke="currentColor" fill="none"/>
<path fill="currentColor"
	d="M550.03 108.61l48.60 4.90v-3.20l-48.60 -4.90"/>
<use x="553.83" y="88.01" xlink:href="#hd"/>
<path d="M550.33 88.01v19.60" stroke="currentColor" fill="none"/>
<use x="577.83" y="91.01" xlink:href="#hd"/>
<path d="M574.33 91.01v19.00" stroke="currentColor" fill="none"/>
<use x="601.73" y="94.01" xlink:href="#hd"/>
<path d="M598.23 94.01v18.40" stroke="currentColor" fill="none"/>
<path fill="currentColor"
	d="M628.83 77.61l48.60 4.90v3.20l-48.60 -4.90"/>
<use x="625.73" y="97.01" xlink:href="#hd"/>
<path d="M629.23 97.01v-18.40" stroke="currentColor" fill="none"/>
<use x="649.63" y="100.01" xlink:href="#hd"/>
<path d="M653.13 100.01v-19.00" stroke="currentColor" fill="none"/>
<use x="673.63" y="103.01" xlink:href="#hd"/>
<path d="M677.13 103.01v-19.60" stroke="currentColor" fill="none"/>
</g>
</svg>
