<?xml version="1.0" standalone="no"?>
<!DOCTYPE svg PUBLIC "-//W3C//DTD SVG 1.1//EN"
	"http://www.w3.org/Graphics/SVG/1.1/DTD/svg11.dtd">
<svg xmlns="http://www.w3.org/2000/svg" version="1.1"
	xmlns:xlink="http://www.w3.org/1999/xlink"
	xml:space='preserve' color="black"
	width="7.38in" height="1.34in" viewBox="0 0 531 97">
<title>2154.abc (2154) tune 1</title>
<!-- Creator: abcm2ps-7.8.14 -->
<!-- CreationDate: Mar 13, 2016 18:54 -->
<!-- CommandLine: -qxg 2154.abc -O ../svgs/2154.svg -->
<g transform="scale(0.750)" stroke-width="0.70" font-family="Times" font-size="20.00">
<text x="354.13" y="21.67" text-anchor="middle">2154.  Concerto No. 7 in B Flat , Op. 7, No. 1, 4th. Mvt., Bouree</text>
</g>
<g transform="scale(0.750)" stroke-width="0.70" font-family="Times" font-size="14.00" font-style="italic">
<text x="694.93" y="45.34" text-anchor="end">George Frideric Handel</text>
</g>
<g transform="scale(0.525)" stroke-width="0.70" font-family="Times" font-size="14.00" font-style="italic">
<defs>
<ellipse id="hd" rx="4.1" ry="2.9"
	transform="rotate(-20)" fill="currentColor"/>
</defs>
<use x="114.90" y="94.16" xlink:href="#hd"/>
<path d="M118.40 94.16v-20.00" stroke="currentColor" fill="none"/>
</g>
<g transform="scale(0.750)" stroke-width="0.70" font-family="Times" font-size="15.00" font-weight="bold">
<text x="88.13" y="68.01">= 120</text>
<path stroke="currentColor" fill="none"
	d="M235.03 106.01v-24.00"/>
<path stroke="currentColor" fill="none"
	d="M370.43 106.01v-24.00"/>
<path stroke="currentColor" fill="none"
	d="M553.83 106.01v-24.00"/>
<path stroke="currentColor" fill="none"
	d="M694.93 106.01v-24.00"/>
<path stroke="currentColor" fill="none"
	d="M13.33 106.01h681.60m-681.60 -6h681.60m-681.60 -6h681.60m-681.60 -6h681.60m-681.60 -6h681.60"/>
<defs>
<path id="utclef" fill="currentColor" d="m-50 -90
	c-72 -41 -72 -158 52 -188
	c150 -10 220 188 90 256
	c-114 52 -275 0 -293 -136
	c-15 -181 93 -229 220 -334
	c88 -87 79 -133 62 -210
	c-51 33 -94 105 -89 186
	c17 267 36 374 49 574
	c6 96 -19 134 -77 135
	c-80 1 -126 -93 -61 -133
	c85 -41 133 101 31 105
	c23 17 92 37 90 -92
	c-10 -223 -39 -342 -50 -617
	c0 -90 0 -162 96 -232
	c56 72 63 230 22 289
	c-74 106 -257 168 -255 316
	c9 153 148 185 252 133
	c86 -65 29 -192 -80 -176
	c-71 12 -105 67 -59 124"/>
<use id="tclef" transform="scale(0.045)"
	xlink:href="#utclef"/>
</defs>
<use x="25.33" y="106.01" xlink:href="#tclef"/>
<defs>
<path id="uflat" fill="currentColor" d="
	m100 -746
	h32
	v734
	l-32 4
	m32 -332
	c46 -72 152 -90 208 -20
	c100 110 -120 326 -208 348
	m0 -28
	c54 0 200 -206 130 -290
	c-50 -60 -130 -4 -130 34"/>
<use id="ft0" transform="translate(-3.5,3.5) scale(0.018)"
	xlink:href="#uflat"/>
</defs>
<use x="40.33" y="94.01" xlink:href="#ft0"/>
<use x="45.83" y="85.01" xlink:href="#ft0"/>
<g font-family="serif" font-size="16" font-weight="bold" font-style="normal"
	transform="translate(61.83,106.01) scale(1.2,1)">
	<text y="-1" text-anchor="middle">2</text>
	<text y="-13" text-anchor="middle">2</text>
</g>
<path fill="currentColor"
	d="M76.03 107.81l27.20 5.50v-3.20l-27.20 -5.50"/>
<path fill="currentColor"
	d="M96.93 107.01l6.00 1.20v-3.20l-6.00 -1.20"/>
<use x="79.83" y="82.01" xlink:href="#hd"/>
<circle fill="currentColor" cx="87.83" cy="79.01" r="1.2"/>
<path d="M76.33 82.01v24.80" stroke="currentColor" fill="none"/>
<use x="106.43" y="91.01" xlink:href="#hd"/>
<path d="M102.93 91.01v21.20" stroke="currentColor" fill="none"/>
<use x="124.63" y="88.01" xlink:href="#hd"/>
<path d="M121.13 88.01v20.00" stroke="currentColor" fill="none"/>
<path fill="currentColor"
	d="M157.23 109.81l27.20 6.50v-3.20l-27.20 -6.50"/>
<path fill="currentColor"
	d="M178.13 109.81l6.00 1.40v-3.20l-6.00 -1.40"/>
<use x="161.03" y="82.01" xlink:href="#hd"/>
<circle fill="currentColor" cx="169.03" cy="79.01" r="1.2"/>
<path d="M157.53 82.01v26.90" stroke="currentColor" fill="none"/>
<use x="187.63" y="94.01" xlink:href="#hd"/>
<path d="M184.13 94.01v21.20" stroke="currentColor" fill="none"/>
<use x="205.83" y="91.01" xlink:href="#hd"/>
<path d="M202.33 91.01v20.00" stroke="currentColor" fill="none"/>
<path fill="currentColor"
	d="M244.23 112.11l27.20 7.20v-3.20l-27.20 -7.20"/>
<path fill="currentColor"
	d="M265.13 112.61l6.00 1.60v-3.20l-6.00 -1.60"/>
<use x="248.03" y="82.01" xlink:href="#hd"/>
<circle fill="currentColor" cx="256.03" cy="79.01" r="1.2"/>
<path d="M244.53 82.01v29.20" stroke="currentColor" fill="none"/>
<use x="274.63" y="97.01" xlink:href="#hd"/>
<path d="M271.13 97.01v21.20" stroke="currentColor" fill="none"/>
<use x="292.93" y="94.01" xlink:href="#hd"/>
<path d="M289.43 94.01v20.00" stroke="currentColor" fill="none"/>
<defs>
<path id="Hd" fill="currentColor" d="m3 -1.6
	c-1 -1.8 -7 1.4 -6 3.2
	c1 1.8 7 -1.4 6 -3.2
	m0.5 -0.3
	c2 3.8 -5 7.6 -7 3.8
	c-2 -3.8 5 -7.6 7 -3.8"/>
</defs>
<use x="329.23" y="94.01" xlink:href="#Hd"/>
<path d="M325.73 94.01v20.00" stroke="currentColor" fill="none"/>
<path fill="currentColor"
	d="M379.63 95.61l156.40 8.70v-3.20l-156.40 -8.70"/>
<path fill="currentColor"
	d="M400.53 91.71l6.00 0.30v-3.20l-6.00 -0.30"/>
<path fill="currentColor"
	d="M443.63 94.11l6.00 0.30v-3.20l-6.00 -0.30"/>
<path fill="currentColor"
	d="M486.73 96.51l6.00 0.30v-3.20l-6.00 -0.30"/>
<path fill="currentColor"
	d="M529.73 98.91l6.00 0.30v-3.20l-6.00 -0.30"/>
<defs>
<path id="hl" stroke="currentColor" d="m-6 0h12"/>
</defs>
<use x="383.43" y="76.01" xlink:href="#hl"/>
<use x="383.43" y="73.01" xlink:href="#hd"/>
<circle fill="currentColor" cx="391.43" cy="73.01" r="1.2"/>
<path d="M379.93 73.01v21.60" stroke="currentColor" fill="none"/>
<use x="410.03" y="76.01" xlink:href="#hl"/>
<use x="410.03" y="73.01" xlink:href="#hd"/>
<path d="M406.53 73.01v23.00" stroke="currentColor" fill="none"/>
<use x="426.53" y="76.01" xlink:href="#hl"/>
<use x="426.53" y="76.01" xlink:href="#hd"/>
<circle fill="currentColor" cx="434.53" cy="73.01" r="1.2"/>
<path d="M423.03 76.01v21.00" stroke="currentColor" fill="none"/>
<use x="453.13" y="76.01" xlink:href="#hl"/>
<use x="453.13" y="76.01" xlink:href="#hd"/>
<path d="M449.63 76.01v22.40" stroke="currentColor" fill="none"/>
<use x="469.63" y="79.01" xlink:href="#hd"/>
<circle fill="currentColor" cx="477.63" cy="79.01" r="1.2"/>
<path d="M466.13 79.01v20.30" stroke="currentColor" fill="none"/>
<use x="496.23" y="79.01" xlink:href="#hd"/>
<path d="M492.73 79.01v21.80" stroke="currentColor" fill="none"/>
<use x="512.63" y="82.01" xlink:href="#hd"/>
<circle fill="currentColor" cx="520.63" cy="79.01" r="1.2"/>
<path d="M509.13 82.01v19.70" stroke="currentColor" fill="none"/>
<use x="539.23" y="82.01" xlink:href="#hd"/>
<path d="M535.73 82.01v21.20" stroke="currentColor" fill="none"/>
<path fill="currentColor"
	d="M568.53 108.01l27.40 0.00v-3.20l-27.40 -0.00"/>
<path fill="currentColor"
	d="M589.63 103.01l6.00 0.00v-3.20l-6.00 -0.00"/>
<use x="572.33" y="85.01" xlink:href="#hd"/>
<circle fill="currentColor" cx="580.33" cy="85.01" r="1.2"/>
<defs>
<path id="unat" fill="currentColor" d="
	m96 -750
	h-32
	v716
	l32 -8
	l182 -54
	v282
	h32
	v-706
	l-34 10
	l-180 50
	v-290
	m0 592
	v-190
	l182 -52
	v188"/>
<use id="nt0" transform="translate(-3,5) scale(0.018)"
	xlink:href="#unat"/>
</defs>
<use x="563.33" y="85.01" xlink:href="#nt0"/>
<path d="M568.83 85.01v22.00" stroke="currentColor" fill="none"/>
<use x="599.13" y="85.01" xlink:href="#hd"/>
<use x="590.13" y="85.01" xlink:href="#nt0"/>
<path d="M595.63 85.01v22.00" stroke="currentColor" fill="none"/>
<use x="617.43" y="82.01" xlink:href="#hd"/>
<path d="M613.93 82.01v20.00" stroke="currentColor" fill="none"/>
<use x="653.73" y="82.01" xlink:href="#Hd"/>
<path d="M650.23 82.01v20.00" stroke="currentColor" fill="none"/>
</g>
</svg>
