<?xml version="1.0" standalone="no"?>
<!DOCTYPE svg PUBLIC "-//W3C//DTD SVG 1.1//EN"
	"http://www.w3.org/Graphics/SVG/1.1/DTD/svg11.dtd">
<svg xmlns="http://www.w3.org/2000/svg" version="1.1"
	xmlns:xlink="http://www.w3.org/1999/xlink"
	xml:space='preserve' color="black"
	width="7.38in" height="1.34in" viewBox="0 0 531 97">
<title>2178.abc (2178) tune 1</title>
<!-- Creator: abcm2ps-7.8.14 -->
<!-- CreationDate: Mar 13, 2016 18:54 -->
<!-- CommandLine: -qxg 2178.abc -O ../svgs/2178.svg -->
<g transform="scale(0.750)" stroke-width="0.70" font-family="Times" font-size="20.00">
<text x="354.13" y="21.67" text-anchor="middle">2178.  Concerto Grosso in F, Op. 6, No. 2, 3rd. Mvt., 2nd. Theme</text>
</g>
<g transform="scale(0.750)" stroke-width="0.70" font-family="Times" font-size="14.00" font-style="italic">
<text x="694.93" y="45.34" text-anchor="end">George Frideric Handel</text>
</g>
<g transform="scale(0.525)" stroke-width="0.70" font-family="Times" font-size="14.00" font-style="italic">
<defs>
<ellipse id="hd" rx="4.1" ry="2.9"
	transform="rotate(-20)" fill="currentColor"/>
</defs>
<use x="107.04" y="94.16" xlink:href="#hd"/>
<path d="M110.54 94.16v-20.00" stroke="currentColor" fill="none"/>
</g>
<g transform="scale(0.750)" stroke-width="0.70" font-family="Times" font-size="15.00" font-weight="bold">
<text x="82.63" y="68.01">= 120</text>
<path stroke="currentColor" fill="none"
	d="M164.73 106.01v-24.00"/>
<path stroke="currentColor" fill="none"
	d="M287.73 106.01v-24.00"/>
<path stroke="currentColor" fill="none"
	d="M390.53 106.01v-24.00"/>
<path stroke="currentColor" fill="none"
	d="M496.43 106.01v-24.00"/>
<path stroke="currentColor" fill="none"
	d="M610.83 106.01v-24.00"/>
<path stroke="currentColor" fill="none"
	d="M13.33 106.01h681.60m-681.60 -6h681.60m-681.60 -6h681.60m-681.60 -6h681.60m-681.60 -6h681.60"/>
<defs>
<path id="utclef" fill="currentColor" d="m-50 -90
	c-72 -41 -72 -158 52 -188
	c150 -10 220 188 90 256
	c-114 52 -275 0 -293 -136
	c-15 -181 93 -229 220 -334
	c88 -87 79 -133 62 -210
	c-51 33 -94 105 -89 186
	c17 267 36 374 49 574
	c6 96 -19 134 -77 135
	c-80 1 -126 -93 -61 -133
	c85 -41 133 101 31 105
	c23 17 92 37 90 -92
	c-10 -223 -39 -342 -50 -617
	c0 -90 0 -162 96 -232
	c56 72 63 230 22 289
	c-74 106 -257 168 -255 316
	c9 153 148 185 252 133
	c86 -65 29 -192 -80 -176
	c-71 12 -105 67 -59 124"/>
<use id="tclef" transform="scale(0.045)"
	xlink:href="#utclef"/>
</defs>
<use x="25.33" y="106.01" xlink:href="#tclef"/>
<defs>
<path id="uflat" fill="currentColor" d="
	m100 -746
	h32
	v734
	l-32 4
	m32 -332
	c46 -72 152 -90 208 -20
	c100 110 -120 326 -208 348
	m0 -28
	c54 0 200 -206 130 -290
	c-50 -60 -130 -4 -130 34"/>
<use id="ft0" transform="translate(-3.5,3.5) scale(0.018)"
	xlink:href="#uflat"/>
</defs>
<use x="40.33" y="94.01" xlink:href="#ft0"/>
<g font-family="serif" font-size="16" font-weight="bold" font-style="normal"
	transform="translate(56.33,106.01) scale(1.2,1)">
	<text y="-1" text-anchor="middle">4</text>
	<text y="-13" text-anchor="middle">3</text>
</g>
<path fill="currentColor"
	d="M70.53 114.01l30.80 0.00v-3.20l-30.80 -0.00"/>
<use x="74.33" y="94.01" xlink:href="#hd"/>
<path d="M70.83 94.01v19.00" stroke="currentColor" fill="none"/>
<use x="89.33" y="94.01" xlink:href="#hd"/>
<path d="M85.83 94.01v19.00" stroke="currentColor" fill="none"/>
<use x="104.43" y="94.01" xlink:href="#hd"/>
<path d="M100.93 94.01v19.00" stroke="currentColor" fill="none"/>
<path fill="currentColor"
	d="M117.03 114.01l30.80 0.00v-3.20l-30.80 -0.00"/>
<use x="120.83" y="94.01" xlink:href="#hd"/>
<path d="M117.33 94.01v19.00" stroke="currentColor" fill="none"/>
<use x="135.93" y="94.01" xlink:href="#hd"/>
<path d="M132.43 94.01v19.00" stroke="currentColor" fill="none"/>
<use x="150.93" y="94.01" xlink:href="#hd"/>
<path d="M147.43 94.01v19.00" stroke="currentColor" fill="none"/>
<path fill="currentColor"
	d="M179.33 106.21l36.70 0.00v-3.20l-36.70 -0.00"/>
<use x="183.23" y="85.01" xlink:href="#hd"/>
<use x="174.23" y="85.01" xlink:href="#ft0"/>
<path d="M179.73 85.01v20.20" stroke="currentColor" fill="none"/>
<use x="201.23" y="85.01" xlink:href="#hd"/>
<use x="192.23" y="85.01" xlink:href="#ft0"/>
<path d="M197.73 85.01v20.20" stroke="currentColor" fill="none"/>
<use x="219.23" y="85.01" xlink:href="#hd"/>
<use x="210.23" y="85.01" xlink:href="#ft0"/>
<path d="M215.73 85.01v20.20" stroke="currentColor" fill="none"/>
<path fill="currentColor"
	d="M234.13 106.21l36.70 0.00v-3.20l-36.70 -0.00"/>
<use x="237.93" y="85.01" xlink:href="#hd"/>
<use x="228.93" y="85.01" xlink:href="#ft0"/>
<path d="M234.43 85.01v20.20" stroke="currentColor" fill="none"/>
<use x="255.93" y="85.01" xlink:href="#hd"/>
<use x="246.93" y="85.01" xlink:href="#ft0"/>
<path d="M252.43 85.01v20.20" stroke="currentColor" fill="none"/>
<use x="273.93" y="85.01" xlink:href="#hd"/>
<use x="264.93" y="85.01" xlink:href="#ft0"/>
<path d="M270.43 85.01v20.20" stroke="currentColor" fill="none"/>
<path fill="currentColor"
	d="M296.33 103.01l30.80 0.00v-3.20l-30.80 -0.00"/>
<use x="300.23" y="82.01" xlink:href="#hd"/>
<path d="M296.73 82.01v20.00" stroke="currentColor" fill="none"/>
<use x="315.23" y="82.01" xlink:href="#hd"/>
<path d="M311.73 82.01v20.00" stroke="currentColor" fill="none"/>
<use x="330.23" y="82.01" xlink:href="#hd"/>
<path d="M326.73 82.01v20.00" stroke="currentColor" fill="none"/>
<path fill="currentColor"
	d="M342.93 103.01l30.80 0.00v-3.20l-30.80 -0.00"/>
<use x="346.73" y="82.01" xlink:href="#hd"/>
<path d="M343.23 82.01v20.00" stroke="currentColor" fill="none"/>
<use x="361.73" y="82.01" xlink:href="#hd"/>
<path d="M358.23 82.01v20.00" stroke="currentColor" fill="none"/>
<use x="376.83" y="82.01" xlink:href="#hd"/>
<path d="M373.33 82.01v20.00" stroke="currentColor" fill="none"/>
<path fill="currentColor"
	d="M399.23 103.01l33.70 0.00v-3.20l-33.70 -0.00"/>
<use x="403.03" y="82.01" xlink:href="#hd"/>
<path d="M399.53 82.01v20.00" stroke="currentColor" fill="none"/>
<use x="418.13" y="82.01" xlink:href="#hd"/>
<path d="M414.63 82.01v20.00" stroke="currentColor" fill="none"/>
<use x="436.13" y="85.01" xlink:href="#hd"/>
<use x="427.13" y="85.01" xlink:href="#ft0"/>
<path d="M432.63 85.01v17.00" stroke="currentColor" fill="none"/>
<path fill="currentColor"
	d="M448.73 108.91l30.80 4.40v-3.20l-30.80 -4.40"/>
<use x="452.53" y="88.01" xlink:href="#hd"/>
<path d="M449.03 88.01v19.90" stroke="currentColor" fill="none"/>
<use x="467.63" y="91.01" xlink:href="#hd"/>
<path d="M464.13 91.01v19.10" stroke="currentColor" fill="none"/>
<use x="482.63" y="94.01" xlink:href="#hd"/>
<path d="M479.13 94.01v18.20" stroke="currentColor" fill="none"/>
<use x="508.93" y="97.01" xlink:href="#hd"/>
<path d="M512.43 97.01v-20.00" stroke="currentColor" fill="none"/>
<defs>
<path id="r8e" fill="currentColor" d="m 0 0
	c-1.5 1.5 -2.4 2 -3.6 2
	c2.4 -2.8 -2.8 -4 -2.8 -1.2
	c0 2.7 4.3 2.4 5.9 0.6"/>
<g id="r8">
	<path d="m3.3 -4l-3.4 9.6" stroke="currentColor" fill="none"/>
	<use x="3.4" y="-4" xlink:href="#r8e"/>
</g>
</defs>
<use x="529.23" y="94.01" xlink:href="#r8"/>
<path fill="currentColor"
	d="M541.83 118.91l24.70 0.00v-3.20l-24.70 -0.00"/>
<path fill="currentColor"
	d="M557.23 113.91l9.00 0.00v-3.20l-9.00 -0.00"/>
<path fill="currentColor"
	d="M557.23 108.91l9.00 0.00v-3.20l-9.00 -0.00"/>
<use x="545.73" y="88.01" xlink:href="#hd"/>
<path d="M542.23 88.01v30.00" stroke="currentColor" fill="none"/>
<use x="560.73" y="91.01" xlink:href="#hd"/>
<path d="M557.23 91.01v27.00" stroke="currentColor" fill="none"/>
<use x="569.73" y="88.01" xlink:href="#hd"/>
<path d="M566.23 88.01v30.00" stroke="currentColor" fill="none"/>
<path fill="currentColor"
	d="M575.23 118.91l18.70 0.00v-3.20l-18.70 -0.00"/>
<path fill="currentColor"
	d="M575.63 113.91l9.00 0.00v-3.20l-9.00 -0.00"/>
<path fill="currentColor"
	d="M575.63 108.91l9.00 0.00v-3.20l-9.00 -0.00"/>
<use x="579.13" y="91.01" xlink:href="#hd"/>
<path d="M575.63 91.01v27.00" stroke="currentColor" fill="none"/>
<use x="588.13" y="88.01" xlink:href="#hd"/>
<path d="M584.63 88.01v30.00" stroke="currentColor" fill="none"/>
<use x="597.13" y="88.01" xlink:href="#hd"/>
<path d="M593.63 88.01v30.00" stroke="currentColor" fill="none"/>
<path fill="currentColor"
	d="M619.53 118.91l45.70 0.00v-3.20l-45.70 -0.00"/>
<path fill="currentColor"
	d="M619.83 113.91l45.00 0.00v-3.20l-45.00 -0.00"/>
<path fill="currentColor"
	d="M619.83 108.91l45.00 0.00v-3.20l-45.00 -0.00"/>
<use x="623.33" y="91.01" xlink:href="#hd"/>
<path d="M619.83 91.01v27.00" stroke="currentColor" fill="none"/>
<use x="632.33" y="88.01" xlink:href="#hd"/>
<path d="M628.83 88.01v30.00" stroke="currentColor" fill="none"/>
<use x="641.33" y="91.01" xlink:href="#hd"/>
<path d="M637.83 91.01v27.00" stroke="currentColor" fill="none"/>
<use x="650.33" y="88.01" xlink:href="#hd"/>
<path d="M646.83 88.01v30.00" stroke="currentColor" fill="none"/>
<use x="659.33" y="91.01" xlink:href="#hd"/>
<path d="M655.83 91.01v27.00" stroke="currentColor" fill="none"/>
<use x="668.33" y="88.01" xlink:href="#hd"/>
<path d="M664.83 88.01v30.00" stroke="currentColor" fill="none"/>
<path fill="currentColor"
	d="M673.83 116.31l9.70 -1.90v-3.20l-9.70 1.90"/>
<path fill="currentColor"
	d="M674.23 111.21l9.00 -1.80v-3.20l-9.00 1.80"/>
<path fill="currentColor"
	d="M674.23 106.21l9.00 -1.80v-3.20l-9.00 1.80"/>
<use x="677.73" y="91.01" xlink:href="#hd"/>
<path d="M674.23 91.01v24.20" stroke="currentColor" fill="none"/>
<use x="686.73" y="88.01" xlink:href="#hd"/>
<path d="M683.23 88.01v25.40" stroke="currentColor" fill="none"/>
</g>
</svg>
