<?xml version="1.0" standalone="no"?>
<!DOCTYPE svg PUBLIC "-//W3C//DTD SVG 1.1//EN"
	"http://www.w3.org/Graphics/SVG/1.1/DTD/svg11.dtd">
<svg xmlns="http://www.w3.org/2000/svg" version="1.1"
	xmlns:xlink="http://www.w3.org/1999/xlink"
	xml:space='preserve' color="black"
	width="7.38in" height="1.34in" viewBox="0 0 531 97">
<title>2202.abc (2202) tune 1</title>
<!-- Creator: abcm2ps-7.8.14 -->
<!-- CreationDate: Mar 13, 2016 18:54 -->
<!-- CommandLine: -qxg 2202.abc -O ../svgs/2202.svg -->
<g transform="scale(0.750)" stroke-width="0.70" font-family="Times" font-size="20.00">
<text x="354.13" y="21.67" text-anchor="middle">2202.  Concerto Grosso in G Minor, Op. 6, No. 6, 4th. Mvt.</text>
</g>
<g transform="scale(0.750)" stroke-width="0.70" font-family="Times" font-size="14.00" font-style="italic">
<text x="694.93" y="45.34" text-anchor="end">George Frideric Handel</text>
</g>
<g transform="scale(0.525)" stroke-width="0.70" font-family="Times" font-size="14.00" font-style="italic">
<defs>
<ellipse id="hd" rx="4.1" ry="2.9"
	transform="rotate(-20)" fill="currentColor"/>
</defs>
<use x="114.90" y="94.16" xlink:href="#hd"/>
<path d="M118.40 94.16v-20.00" stroke="currentColor" fill="none"/>
</g>
<g transform="scale(0.750)" stroke-width="0.70" font-family="Times" font-size="15.00" font-weight="bold">
<text x="88.13" y="68.01">= 120</text>
<path stroke="currentColor" fill="none"
	d="M292.13 106.01v-24.00"/>
<path stroke="currentColor" fill="none"
	d="M13.33 106.01h484.10m-484.10 -6h484.10m-484.10 -6h484.10m-484.10 -6h484.10m-484.10 -6h484.10"/>
<defs>
<path id="utclef" fill="currentColor" d="m-50 -90
	c-72 -41 -72 -158 52 -188
	c150 -10 220 188 90 256
	c-114 52 -275 0 -293 -136
	c-15 -181 93 -229 220 -334
	c88 -87 79 -133 62 -210
	c-51 33 -94 105 -89 186
	c17 267 36 374 49 574
	c6 96 -19 134 -77 135
	c-80 1 -126 -93 -61 -133
	c85 -41 133 101 31 105
	c23 17 92 37 90 -92
	c-10 -223 -39 -342 -50 -617
	c0 -90 0 -162 96 -232
	c56 72 63 230 22 289
	c-74 106 -257 168 -255 316
	c9 153 148 185 252 133
	c86 -65 29 -192 -80 -176
	c-71 12 -105 67 -59 124"/>
<use id="tclef" transform="scale(0.045)"
	xlink:href="#utclef"/>
</defs>
<use x="25.33" y="106.01" xlink:href="#tclef"/>
<defs>
<path id="uflat" fill="currentColor" d="
	m100 -746
	h32
	v734
	l-32 4
	m32 -332
	c46 -72 152 -90 208 -20
	c100 110 -120 326 -208 348
	m0 -28
	c54 0 200 -206 130 -290
	c-50 -60 -130 -4 -130 34"/>
<use id="ft0" transform="translate(-3.5,3.5) scale(0.018)"
	xlink:href="#uflat"/>
</defs>
<use x="40.33" y="94.01" xlink:href="#ft0"/>
<use x="45.83" y="85.01" xlink:href="#ft0"/>
<g font-family="serif" font-size="16" font-weight="bold" font-style="normal"
	transform="translate(61.83,106.01) scale(1.2,1)">
	<text y="-1" text-anchor="middle">4</text>
	<text y="-13" text-anchor="middle">4</text>
</g>
<use x="79.83" y="88.01" xlink:href="#hd"/>
<path d="M76.33 88.01v20.00" stroke="currentColor" fill="none"/>
<path fill="currentColor"
	d="M76.33 108.01c0.6 -5.6 9.6 -9 5.6 -18.4
	c1.6 6 -1.3 11.6 -5.6 12.8
"/>
<use x="108.13" y="79.01" xlink:href="#hd"/>
<path d="M104.63 79.01v20.00" stroke="currentColor" fill="none"/>
<path fill="currentColor"
	d="M104.63 99.01c0.6 -5.6 9.6 -9 5.6 -18.4
	c1.6 6 -1.3 11.6 -5.6 12.8
"/>
<use x="133.63" y="100.01" xlink:href="#hd"/>
<path d="M137.13 100.01v-20.00" stroke="currentColor" fill="none"/>
<path fill="currentColor"
	d="	M137.13 80.01c0.6 5.6 9.6 9 5.6 18.4
	c1.6 -6 -1.3 -11.6 -5.6 -12.8
"/>
<use x="161.93" y="85.01" xlink:href="#hd"/>
<path d="M158.43 85.01v20.00" stroke="currentColor" fill="none"/>
<path fill="currentColor"
	d="M158.43 105.01c0.6 -5.6 9.6 -9 5.6 -18.4
	c1.6 6 -1.3 11.6 -5.6 12.8
"/>
<use x="187.33" y="100.01" xlink:href="#hd"/>
<use x="178.33" y="100.01" xlink:href="#ft0"/>
<path d="M190.83 100.01v-20.00" stroke="currentColor" fill="none"/>
<path fill="currentColor"
	d="	M190.83 80.01c0.6 5.6 9.6 9 5.6 18.4
	c1.6 -6 -1.3 -11.6 -5.6 -12.8
"/>
<use x="215.63" y="88.01" xlink:href="#hd"/>
<path d="M212.13 88.01v20.00" stroke="currentColor" fill="none"/>
<path fill="currentColor"
	d="M212.13 108.01c0.6 -5.6 9.6 -9 5.6 -18.4
	c1.6 6 -1.3 11.6 -5.6 12.8
"/>
<use x="241.13" y="100.01" xlink:href="#hd"/>
<defs>
<path id="unat" fill="currentColor" d="
	m96 -750
	h-32
	v716
	l32 -8
	l182 -54
	v282
	h32
	v-706
	l-34 10
	l-180 50
	v-290
	m0 592
	v-190
	l182 -52
	v188"/>
<use id="nt0" transform="translate(-3,5) scale(0.018)"
	xlink:href="#unat"/>
</defs>
<use x="232.13" y="100.01" xlink:href="#nt0"/>
<path d="M244.63 100.01v-20.00" stroke="currentColor" fill="none"/>
<path fill="currentColor"
	d="	M244.63 80.01c0.6 5.6 9.6 9 5.6 18.4
	c1.6 -6 -1.3 -11.6 -5.6 -12.8
"/>
<use x="269.43" y="91.01" xlink:href="#hd"/>
<path d="M265.93 91.01v20.00" stroke="currentColor" fill="none"/>
<path fill="currentColor"
	d="M265.93 111.01c0.6 -5.6 9.6 -9 5.6 -18.4
	c1.6 6 -1.3 11.6 -5.6 12.8
"/>
<path fill="currentColor"
	d="M309.43 71.81l18.70 2.30v3.20l-18.70 -2.30"/>
<path fill="currentColor"
	d="M309.73 76.81l18.00 2.20v3.20l-18.00 -2.20"/>
<use x="306.23" y="94.01" xlink:href="#hd"/>
<path d="M309.73 94.01v-21.20" stroke="currentColor" fill="none"/>
<use x="324.23" y="97.01" xlink:href="#hd"/>
<path d="M327.73 97.01v-22.00" stroke="currentColor" fill="none"/>
<use x="344.23" y="94.01" xlink:href="#hd"/>
<path d="M347.73 94.01v-20.00" stroke="currentColor" fill="none"/>
<path fill="currentColor"
	d="	M347.73 74.01c0.6 5.6 9.6 9 5.6 18.4
	c1.6 -6 -1.3 -11.6 -5.6 -12.8
"/>
<use x="372.53" y="100.01" xlink:href="#hd"/>
<path d="M376.03 100.01v-20.00" stroke="currentColor" fill="none"/>
<path fill="currentColor"
	d="	M376.03 80.01c0.6 5.6 9.6 9 5.6 18.4
	c1.6 -6 -1.3 -11.6 -5.6 -12.8
"/>
<use x="400.83" y="88.01" xlink:href="#hd"/>
<path d="M397.33 88.01v20.00" stroke="currentColor" fill="none"/>
<path fill="currentColor"
	d="M397.33 108.01c0.6 -5.6 9.6 -9 5.6 -18.4
	c1.6 6 -1.3 11.6 -5.6 12.8
"/>
<use x="429.13" y="79.01" xlink:href="#hd"/>
<path d="M425.63 79.01v20.00" stroke="currentColor" fill="none"/>
<path fill="currentColor"
	d="M425.63 99.01c0.6 -5.6 9.6 -9 5.6 -18.4
	c1.6 6 -1.3 11.6 -5.6 12.8
"/>
<use x="457.43" y="79.01" xlink:href="#hd"/>
<use x="448.43" y="79.01" xlink:href="#ft0"/>
<path d="M453.93 79.01v20.00" stroke="currentColor" fill="none"/>
</g>
</svg>
