<?xml version="1.0" standalone="no"?>
<!DOCTYPE svg PUBLIC "-//W3C//DTD SVG 1.1//EN"
	"http://www.w3.org/Graphics/SVG/1.1/DTD/svg11.dtd">
<svg xmlns="http://www.w3.org/2000/svg" version="1.1"
	xmlns:xlink="http://www.w3.org/1999/xlink"
	xml:space='preserve' color="black"
	width="7.38in" height="1.34in" viewBox="0 0 531 97">
<title>2245.abc (2245) tune 1</title>
<!-- Creator: abcm2ps-7.8.14 -->
<!-- CreationDate: Mar 13, 2016 18:54 -->
<!-- CommandLine: -qxg 2245.abc -O ../svgs/2245.svg -->
<g transform="scale(0.750)" stroke-width="0.70" font-family="Times" font-size="20.00">
<text x="354.13" y="21.67" text-anchor="middle">2245.  Fireworks Music, 6th. Mvt., Minuet No. 2</text>
</g>
<g transform="scale(0.750)" stroke-width="0.70" font-family="Times" font-size="14.00" font-style="italic">
<text x="694.93" y="45.34" text-anchor="end">George Frideric Handel</text>
</g>
<g transform="scale(0.525)" stroke-width="0.70" font-family="Times" font-size="14.00" font-style="italic">
<defs>
<ellipse id="hd" rx="4.1" ry="2.9"
	transform="rotate(-20)" fill="currentColor"/>
</defs>
<use x="115.61" y="94.16" xlink:href="#hd"/>
<path d="M119.11 94.16v-20.00" stroke="currentColor" fill="none"/>
</g>
<g transform="scale(0.750)" stroke-width="0.70" font-family="Times" font-size="15.00" font-weight="bold">
<text x="88.63" y="68.01">= 120</text>
<path stroke="currentColor" fill="none"
	d="M109.83 106.01v-24.00"/>
<path stroke="currentColor" fill="none"
	d="M182.23 106.01v-24.00"/>
<path stroke="currentColor" fill="none"
	d="M244.73 106.01v-24.00"/>
<path stroke="currentColor" fill="none"
	d="M481.23 106.01v-24.00"/>
<path stroke="currentColor" fill="none"
	d="M543.83 106.01v-24.00"/>
<path stroke="currentColor" fill="none"
	d="M606.33 106.01v-24.00"/>
<path stroke="currentColor" fill="none"
	d="M659.83 106.01v-24.00"/>
<path stroke="currentColor" fill="none"
	d="M694.93 106.01v-24.00"/>
<path stroke="currentColor" fill="none"
	d="M13.33 106.01h681.60m-681.60 -6h681.60m-681.60 -6h681.60m-681.60 -6h681.60m-681.60 -6h681.60"/>
<defs>
<path id="utclef" fill="currentColor" d="m-50 -90
	c-72 -41 -72 -158 52 -188
	c150 -10 220 188 90 256
	c-114 52 -275 0 -293 -136
	c-15 -181 93 -229 220 -334
	c88 -87 79 -133 62 -210
	c-51 33 -94 105 -89 186
	c17 267 36 374 49 574
	c6 96 -19 134 -77 135
	c-80 1 -126 -93 -61 -133
	c85 -41 133 101 31 105
	c23 17 92 37 90 -92
	c-10 -223 -39 -342 -50 -617
	c0 -90 0 -162 96 -232
	c56 72 63 230 22 289
	c-74 106 -257 168 -255 316
	c9 153 148 185 252 133
	c86 -65 29 -192 -80 -176
	c-71 12 -105 67 -59 124"/>
<use id="tclef" transform="scale(0.045)"
	xlink:href="#utclef"/>
</defs>
<use x="25.33" y="106.01" xlink:href="#tclef"/>
<defs>
<path id="usharp" fill="currentColor" d="
	m136 -702
	v890
	h32
	v-890
	m128 840
	h32
	v-888
	h-32
	m-232 286
	v116
	l338 -96
	v-116
	m-338 442
	v116
	l338 -98
	v-114"/>
<use id="sh0" transform="translate(-4,5) scale(0.018)"
	xlink:href="#usharp"/>
</defs>
<use x="40.33" y="82.01" xlink:href="#sh0"/>
<use x="45.83" y="91.01" xlink:href="#sh0"/>
<g font-family="serif" font-size="16" font-weight="bold" font-style="normal"
	transform="translate(61.83,106.01) scale(1.2,1)">
	<text y="-1" text-anchor="middle">4</text>
	<text y="-13" text-anchor="middle">3</text>
</g>
<defs>
<path id="Hd" fill="currentColor" d="m3 -1.6
	c-1 -1.8 -7 1.4 -6 3.2
	c1 1.8 7 -1.4 6 -3.2
	m0.5 -0.3
	c2 3.8 -5 7.6 -7 3.8
	c-2 -3.8 5 -7.6 7 -3.8"/>
</defs>
<use x="80.33" y="88.01" xlink:href="#Hd"/>
<path d="M76.83 88.01v20.00" stroke="currentColor" fill="none"/>
<use x="97.13" y="97.01" xlink:href="#hd"/>
<path d="M100.63 97.01v-20.00" stroke="currentColor" fill="none"/>
<use x="122.33" y="103.01" xlink:href="#hd"/>
<path d="M125.83 103.01v-20.00" stroke="currentColor" fill="none"/>
<use x="136.53" y="106.01" xlink:href="#hd"/>
<path d="M140.03 106.01v-20.00" stroke="currentColor" fill="none"/>
<path fill="currentColor"
	d="	M140.03 86.01c0.6 5.6 9.6 9 5.6 18.4
	c1.6 -6 -1.3 -11.6 -5.6 -12.8
"/>
<use x="153.03" y="109.01" xlink:href="#hd"/>
<path d="M156.53 109.01v-20.00" stroke="currentColor" fill="none"/>
<path fill="currentColor"
	d="	M156.53 89.01c0.6 5.6 9.6 9 5.6 18.4
	c1.6 -6 -1.3 -11.6 -5.6 -12.8
"/>
<use x="169.53" y="97.01" xlink:href="#hd"/>
<path d="M173.03 97.01v-20.00" stroke="currentColor" fill="none"/>
<use x="194.73" y="88.01" xlink:href="#hd"/>
<path d="M191.23 88.01v20.00" stroke="currentColor" fill="none"/>
<use x="208.83" y="88.01" xlink:href="#hd"/>
<path d="M205.33 88.01v20.00" stroke="currentColor" fill="none"/>
<path fill="currentColor"
	d="M205.33 108.01c0.6 -5.6 9.6 -9 5.6 -18.4
	c1.6 6 -1.3 11.6 -5.6 12.8
"/>
<use x="220.43" y="85.01" xlink:href="#hd"/>
<path d="M216.93 85.01v20.00" stroke="currentColor" fill="none"/>
<path fill="currentColor"
	d="M216.93 105.01c0.6 -5.6 9.6 -9 5.6 -18.4
	c1.6 6 -1.3 11.6 -5.6 12.8
"/>
<use x="232.03" y="82.01" xlink:href="#hd"/>
<path d="M228.53 82.01v20.00" stroke="currentColor" fill="none"/>
<defs>
<path id="r8e" fill="currentColor" d="m 0 0
	c-1.5 1.5 -2.4 2 -3.6 2
	c2.4 -2.8 -2.8 -4 -2.8 -1.2
	c0 2.7 4.3 2.4 5.9 0.6"/>
<g id="r32">
	<path d="m4.8 -10l-5.5 21.6" stroke="currentColor" fill="none"/>
	<use x="4.9" y="-10" xlink:href="#r8e"/>
	<use x="3.4" y="-4" xlink:href="#r8e"/>
	<use x="1.9" y="2" xlink:href="#r8e"/>
</g>
</defs>
<use x="257.23" y="94.01" xlink:href="#r32"/>
<path fill="currentColor"
	d="M262.43 113.01l36.70 0.00v-3.20l-36.70 -0.00"/>
<path fill="currentColor"
	d="M262.73 108.01l36.00 0.00v-3.20l-36.00 -0.00"/>
<path fill="currentColor"
	d="M262.73 103.01l36.00 0.00v-3.20l-36.00 -0.00"/>
<use x="266.23" y="88.01" xlink:href="#hd"/>
<path d="M262.73 88.01v24.00" stroke="currentColor" fill="none"/>
<use x="275.23" y="85.01" xlink:href="#hd"/>
<path d="M271.73 85.01v27.00" stroke="currentColor" fill="none"/>
<use x="284.23" y="88.01" xlink:href="#hd"/>
<path d="M280.73 88.01v24.00" stroke="currentColor" fill="none"/>
<use x="293.23" y="85.01" xlink:href="#hd"/>
<path d="M289.73 85.01v27.00" stroke="currentColor" fill="none"/>
<use x="302.23" y="88.01" xlink:href="#hd"/>
<path d="M298.73 88.01v24.00" stroke="currentColor" fill="none"/>
<path fill="currentColor"
	d="M307.43 113.01l45.70 0.00v-3.20l-45.70 -0.00"/>
<path fill="currentColor"
	d="M307.73 108.01l45.00 0.00v-3.20l-45.00 -0.00"/>
<path fill="currentColor"
	d="M307.73 103.01l45.00 0.00v-3.20l-45.00 -0.00"/>
<use x="311.23" y="85.01" xlink:href="#hd"/>
<path d="M307.73 85.01v27.00" stroke="currentColor" fill="none"/>
<use x="320.23" y="88.01" xlink:href="#hd"/>
<path d="M316.73 88.01v24.00" stroke="currentColor" fill="none"/>
<use x="329.23" y="85.01" xlink:href="#hd"/>
<path d="M325.73 85.01v27.00" stroke="currentColor" fill="none"/>
<use x="338.23" y="88.01" xlink:href="#hd"/>
<path d="M334.73 88.01v24.00" stroke="currentColor" fill="none"/>
<use x="347.23" y="85.01" xlink:href="#hd"/>
<path d="M343.73 85.01v27.00" stroke="currentColor" fill="none"/>
<use x="356.23" y="88.01" xlink:href="#hd"/>
<path d="M352.73 88.01v24.00" stroke="currentColor" fill="none"/>
<path fill="currentColor"
	d="M361.43 113.01l45.70 0.00v-3.20l-45.70 -0.00"/>
<path fill="currentColor"
	d="M361.73 108.01l45.00 0.00v-3.20l-45.00 -0.00"/>
<path fill="currentColor"
	d="M361.73 103.01l45.00 0.00v-3.20l-45.00 -0.00"/>
<use x="365.23" y="85.01" xlink:href="#hd"/>
<path d="M361.73 85.01v27.00" stroke="currentColor" fill="none"/>
<use x="374.23" y="88.01" xlink:href="#hd"/>
<path d="M370.73 88.01v24.00" stroke="currentColor" fill="none"/>
<use x="383.23" y="85.01" xlink:href="#hd"/>
<path d="M379.73 85.01v27.00" stroke="currentColor" fill="none"/>
<use x="392.23" y="88.01" xlink:href="#hd"/>
<path d="M388.73 88.01v24.00" stroke="currentColor" fill="none"/>
<use x="401.23" y="85.01" xlink:href="#hd"/>
<path d="M397.73 85.01v27.00" stroke="currentColor" fill="none"/>
<use x="410.23" y="88.01" xlink:href="#hd"/>
<path d="M406.73 88.01v24.00" stroke="currentColor" fill="none"/>
<path fill="currentColor"
	d="M415.43 112.21l45.70 0.00v-3.20l-45.70 -0.00"/>
<path fill="currentColor"
	d="M415.73 107.21l45.00 0.00v-3.20l-45.00 -0.00"/>
<path fill="currentColor"
	d="M415.73 102.21l45.00 0.00v-3.20l-45.00 -0.00"/>
<path fill="currentColor"
	d="M457.73 97.21l-6.00 -0.00v-3.20l6.00 0.00"/>
<use x="419.23" y="85.01" xlink:href="#hd"/>
<path d="M415.73 85.01v26.20" stroke="currentColor" fill="none"/>
<use x="428.23" y="88.01" xlink:href="#hd"/>
<path d="M424.73 88.01v23.20" stroke="currentColor" fill="none"/>
<use x="437.23" y="85.01" xlink:href="#hd"/>
<path d="M433.73 85.01v26.20" stroke="currentColor" fill="none"/>
<use x="446.23" y="88.01" xlink:href="#hd"/>
<path d="M442.73 88.01v23.20" stroke="currentColor" fill="none"/>
<use x="455.23" y="85.01" xlink:href="#hd"/>
<path d="M451.73 85.01v26.20" stroke="currentColor" fill="none"/>
<use x="464.23" y="88.01" xlink:href="#hd"/>
<circle fill="currentColor" cx="472.23" cy="85.01" r="1.2"/>
<path d="M460.73 88.01v23.20" stroke="currentColor" fill="none"/>
<use x="493.73" y="88.01" xlink:href="#hd"/>
<path d="M490.23 88.01v20.00" stroke="currentColor" fill="none"/>
<use x="507.93" y="88.01" xlink:href="#hd"/>
<path d="M504.43 88.01v20.00" stroke="currentColor" fill="none"/>
<path fill="currentColor"
	d="M504.43 108.01c0.6 -5.6 9.6 -9 5.6 -18.4
	c1.6 6 -1.3 11.6 -5.6 12.8
"/>
<use x="519.53" y="85.01" xlink:href="#hd"/>
<path d="M516.03 85.01v20.00" stroke="currentColor" fill="none"/>
<path fill="currentColor"
	d="M516.03 105.01c0.6 -5.6 9.6 -9 5.6 -18.4
	c1.6 6 -1.3 11.6 -5.6 12.8
"/>
<use x="531.13" y="88.01" xlink:href="#hd"/>
<path d="M527.63 88.01v20.00" stroke="currentColor" fill="none"/>
<use x="556.33" y="85.01" xlink:href="#hd"/>
<path d="M552.83 85.01v20.00" stroke="currentColor" fill="none"/>
<use x="570.43" y="85.01" xlink:href="#hd"/>
<path d="M566.93 85.01v20.00" stroke="currentColor" fill="none"/>
<path fill="currentColor"
	d="M566.93 105.01c0.6 -5.6 9.6 -9 5.6 -18.4
	c1.6 6 -1.3 11.6 -5.6 12.8
"/>
<use x="582.03" y="82.01" xlink:href="#hd"/>
<path d="M578.53 82.01v20.00" stroke="currentColor" fill="none"/>
<path fill="currentColor"
	d="M578.53 102.01c0.6 -5.6 9.6 -9 5.6 -18.4
	c1.6 6 -1.3 11.6 -5.6 12.8
"/>
<use x="593.63" y="85.01" xlink:href="#hd"/>
<path d="M590.13 85.01v20.00" stroke="currentColor" fill="none"/>
<use x="618.83" y="82.01" xlink:href="#hd"/>
<path d="M615.33 82.01v20.00" stroke="currentColor" fill="none"/>
<use x="633.03" y="79.01" xlink:href="#hd"/>
<path d="M629.53 79.01v20.00" stroke="currentColor" fill="none"/>
<use x="647.13" y="82.01" xlink:href="#hd"/>
<path d="M643.63 82.01v20.00" stroke="currentColor" fill="none"/>
<use x="672.83" y="85.01" xlink:href="#Hd"/>
<circle fill="currentColor" cx="681.83" cy="85.01" r="1.2"/>
<path d="M669.33 85.01v20.00" stroke="currentColor" fill="none"/>
</g>
</svg>
