<?xml version="1.0" standalone="no"?>
<!DOCTYPE svg PUBLIC "-//W3C//DTD SVG 1.1//EN"
	"http://www.w3.org/Graphics/SVG/1.1/DTD/svg11.dtd">
<svg xmlns="http://www.w3.org/2000/svg" version="1.1"
	xmlns:xlink="http://www.w3.org/1999/xlink"
	xml:space='preserve' color="black"
	width="7.38in" height="1.34in" viewBox="0 0 531 97">
<title>2283.abc (2283) tune 1</title>
<!-- Creator: abcm2ps-7.8.14 -->
<!-- CreationDate: Mar 13, 2016 18:54 -->
<!-- CommandLine: -qxg 2283.abc -O ../svgs/2283.svg -->
<g transform="scale(0.750)" stroke-width="0.70" font-family="Times" font-size="20.00">
<text x="354.13" y="21.67" text-anchor="middle">2283.  Sonata in C Minor, Op. 2, No. 1, 2nd. Mvt.</text>
</g>
<g transform="scale(0.750)" stroke-width="0.70" font-family="Times" font-size="14.00" font-style="italic">
<text x="694.93" y="45.34" text-anchor="end">George Frideric Handel</text>
</g>
<g transform="scale(0.525)" stroke-width="0.70" font-family="Times" font-size="14.00" font-style="italic">
<defs>
<ellipse id="hd" rx="4.1" ry="2.9"
	transform="rotate(-20)" fill="currentColor"/>
</defs>
<use x="114.90" y="94.16" xlink:href="#hd"/>
<path d="M118.40 94.16v-20.00" stroke="currentColor" fill="none"/>
</g>
<g transform="scale(0.750)" stroke-width="0.70" font-family="Times" font-size="15.00" font-weight="bold">
<text x="88.13" y="68.01">= 120</text>
<path stroke="currentColor" fill="none"
	d="M238.73 106.01v-24.00"/>
<path stroke="currentColor" fill="none"
	d="M381.03 106.01v-24.00"/>
<path stroke="currentColor" fill="none"
	d="M522.93 106.01v-24.00"/>
<path stroke="currentColor" fill="none"
	d="M13.33 106.01h681.60m-681.60 -6h681.60m-681.60 -6h681.60m-681.60 -6h681.60m-681.60 -6h681.60"/>
<defs>
<path id="utclef" fill="currentColor" d="m-50 -90
	c-72 -41 -72 -158 52 -188
	c150 -10 220 188 90 256
	c-114 52 -275 0 -293 -136
	c-15 -181 93 -229 220 -334
	c88 -87 79 -133 62 -210
	c-51 33 -94 105 -89 186
	c17 267 36 374 49 574
	c6 96 -19 134 -77 135
	c-80 1 -126 -93 -61 -133
	c85 -41 133 101 31 105
	c23 17 92 37 90 -92
	c-10 -223 -39 -342 -50 -617
	c0 -90 0 -162 96 -232
	c56 72 63 230 22 289
	c-74 106 -257 168 -255 316
	c9 153 148 185 252 133
	c86 -65 29 -192 -80 -176
	c-71 12 -105 67 -59 124"/>
<use id="tclef" transform="scale(0.045)"
	xlink:href="#utclef"/>
</defs>
<use x="25.33" y="106.01" xlink:href="#tclef"/>
<defs>
<path id="uflat" fill="currentColor" d="
	m100 -746
	h32
	v734
	l-32 4
	m32 -332
	c46 -72 152 -90 208 -20
	c100 110 -120 326 -208 348
	m0 -28
	c54 0 200 -206 130 -290
	c-50 -60 -130 -4 -130 34"/>
<use id="ft0" transform="translate(-3.5,3.5) scale(0.018)"
	xlink:href="#uflat"/>
</defs>
<use x="40.33" y="94.01" xlink:href="#ft0"/>
<use x="45.83" y="85.01" xlink:href="#ft0"/>
<g font-family="serif" font-size="16" font-weight="bold" font-style="normal"
	transform="translate(61.83,106.01) scale(1.2,1)">
	<text y="-1" text-anchor="middle">4</text>
	<text y="-13" text-anchor="middle">4</text>
</g>
<use x="79.83" y="91.01" xlink:href="#hd"/>
<path d="M76.33 91.01v20.00" stroke="currentColor" fill="none"/>
<path fill="currentColor"
	d="M101.53 113.01l28.60 0.00v-3.20l-28.60 -0.00"/>
<path fill="currentColor"
	d="M101.93 108.01l27.90 0.00v-3.20l-27.90 -0.00"/>
<path fill="currentColor"
	d="M101.93 103.01l27.90 0.00v-3.20l-27.90 -0.00"/>
<use x="105.43" y="88.01" xlink:href="#hd"/>
<path d="M101.93 88.01v24.00" stroke="currentColor" fill="none"/>
<use x="114.73" y="85.01" xlink:href="#hd"/>
<path d="M111.23 85.01v27.00" stroke="currentColor" fill="none"/>
<use x="124.03" y="88.01" xlink:href="#hd"/>
<path d="M120.53 88.01v24.00" stroke="currentColor" fill="none"/>
<use x="133.33" y="85.01" xlink:href="#hd"/>
<path d="M129.83 85.01v27.00" stroke="currentColor" fill="none"/>
<path fill="currentColor"
	d="M139.63 113.01l28.60 0.00v-3.20l-28.60 -0.00"/>
<path fill="currentColor"
	d="M140.03 108.01l27.90 0.00v-3.20l-27.90 -0.00"/>
<path fill="currentColor"
	d="M140.03 103.01l27.90 0.00v-3.20l-27.90 -0.00"/>
<use x="143.53" y="88.01" xlink:href="#hd"/>
<path d="M140.03 88.01v24.00" stroke="currentColor" fill="none"/>
<use x="152.83" y="85.01" xlink:href="#hd"/>
<path d="M149.33 85.01v27.00" stroke="currentColor" fill="none"/>
<use x="162.13" y="88.01" xlink:href="#hd"/>
<path d="M158.63 88.01v24.00" stroke="currentColor" fill="none"/>
<use x="171.43" y="85.01" xlink:href="#hd"/>
<path d="M167.93 85.01v27.00" stroke="currentColor" fill="none"/>
<use x="181.63" y="85.01" xlink:href="#hd"/>
<path d="M178.13 85.01v20.00" stroke="currentColor" fill="none"/>
<defs>
<path id="r8e" fill="currentColor" d="m 0 0
	c-1.5 1.5 -2.4 2 -3.6 2
	c2.4 -2.8 -2.8 -4 -2.8 -1.2
	c0 2.7 4.3 2.4 5.9 0.6"/>
<g id="r8">
	<path d="m3.3 -4l-3.4 9.6" stroke="currentColor" fill="none"/>
	<use x="3.4" y="-4" xlink:href="#r8e"/>
</g>
</defs>
<use x="204.83" y="94.01" xlink:href="#r8"/>
<use x="223.43" y="82.01" xlink:href="#hd"/>
<path d="M219.93 82.01v20.00" stroke="currentColor" fill="none"/>
<path fill="currentColor"
	d="M219.93 102.01c0.6 -5.6 9.6 -9 5.6 -18.4
	c1.6 6 -1.3 11.6 -5.6 12.8
"/>
<use x="251.23" y="88.01" xlink:href="#hd"/>
<path d="M247.73 88.01v20.00" stroke="currentColor" fill="none"/>
<path fill="currentColor"
	d="M247.73 108.01c0.6 -5.6 9.6 -9 5.6 -18.4
	c1.6 6 -1.3 11.6 -5.6 12.8
"/>
<use x="269.83" y="94.01" xlink:href="#hd"/>
<path d="M266.33 94.01v20.00" stroke="currentColor" fill="none"/>
<path fill="currentColor"
	d="M266.33 114.01c0.6 -5.6 9.6 -9 5.6 -18.4
	c1.6 6 -1.3 11.6 -5.6 12.8
"/>
<use x="286.73" y="94.01" xlink:href="#r8"/>
<use x="305.33" y="85.01" xlink:href="#hd"/>
<path d="M301.83 85.01v20.00" stroke="currentColor" fill="none"/>
<path fill="currentColor"
	d="M301.83 105.01c0.6 -5.6 9.6 -9 5.6 -18.4
	c1.6 6 -1.3 11.6 -5.6 12.8
"/>
<use x="323.93" y="91.01" xlink:href="#hd"/>
<path d="M320.43 91.01v20.00" stroke="currentColor" fill="none"/>
<use x="347.13" y="94.01" xlink:href="#r8"/>
<use x="365.73" y="88.01" xlink:href="#hd"/>
<path d="M362.23 88.01v20.00" stroke="currentColor" fill="none"/>
<path fill="currentColor"
	d="M362.23 108.01c0.6 -5.6 9.6 -9 5.6 -18.4
	c1.6 6 -1.3 11.6 -5.6 12.8
"/>
<use x="399.53" y="94.01" xlink:href="#hd"/>
<defs>
<path id="unat" fill="currentColor" d="
	m96 -750
	h-32
	v716
	l32 -8
	l182 -54
	v282
	h32
	v-706
	l-34 10
	l-180 50
	v-290
	m0 592
	v-190
	l182 -52
	v188"/>
<use id="nt0" transform="translate(-3,5) scale(0.018)"
	xlink:href="#unat"/>
</defs>
<use x="390.53" y="94.01" xlink:href="#nt0"/>
<path d="M403.03 94.01v-20.00" stroke="currentColor" fill="none"/>
<path fill="currentColor"
	d="	M403.03 74.01c0.6 5.6 9.6 9 5.6 18.4
	c1.6 -6 -1.3 -11.6 -5.6 -12.8
"/>
<use x="419.53" y="100.01" xlink:href="#hd"/>
<path d="M423.03 100.01v-20.00" stroke="currentColor" fill="none"/>
<path fill="currentColor"
	d="	M423.03 80.01c0.6 5.6 9.6 9 5.6 18.4
	c1.6 -6 -1.3 -11.6 -5.6 -12.8
"/>
<use x="440.03" y="79.01" xlink:href="#hd"/>
<circle fill="currentColor" cx="448.03" cy="79.01" r="1.2"/>
<path d="M436.53 79.01v20.00" stroke="currentColor" fill="none"/>
<use x="470.43" y="82.01" xlink:href="#hd"/>
<path d="M466.93 82.01v20.00" stroke="currentColor" fill="none"/>
<path fill="currentColor"
	d="M466.93 102.01c0.6 -5.6 9.6 -9 5.6 -18.4
	c1.6 6 -1.3 11.6 -5.6 12.8
"/>
<use x="489.03" y="85.01" xlink:href="#hd"/>
<path d="M485.53 85.01v20.00" stroke="currentColor" fill="none"/>
<path fill="currentColor"
	d="M485.53 105.01c0.6 -5.6 9.6 -9 5.6 -18.4
	c1.6 6 -1.3 11.6 -5.6 12.8
"/>
<use x="507.63" y="88.01" xlink:href="#hd"/>
<path d="M504.13 88.01v20.00" stroke="currentColor" fill="none"/>
<path fill="currentColor"
	d="M504.13 108.01c0.6 -5.6 9.6 -9 5.6 -18.4
	c1.6 6 -1.3 11.6 -5.6 12.8
"/>
<use x="535.43" y="91.01" xlink:href="#hd"/>
<path d="M531.93 91.01v20.00" stroke="currentColor" fill="none"/>
<path fill="currentColor"
	d="M531.93 111.01c0.6 -5.6 9.6 -9 5.6 -18.4
	c1.6 6 -1.3 11.6 -5.6 12.8
"/>
<use x="555.73" y="94.01" xlink:href="#hd"/>
<use x="546.73" y="94.01" xlink:href="#ft0"/>
<path d="M552.23 94.01v20.00" stroke="currentColor" fill="none"/>
<path fill="currentColor"
	d="M552.23 114.01c0.6 -5.6 9.6 -9 5.6 -18.4
	c1.6 6 -1.3 11.6 -5.6 12.8
"/>
<path fill="currentColor"
	d="M577.53 69.01l37.30 0.00v3.20l-37.30 -0.00"/>
<path fill="currentColor"
	d="M577.83 74.01l36.60 0.00v3.20l-36.60 -0.00"/>
<path fill="currentColor"
	d="M577.83 79.01l36.60 0.00v3.20l-36.60 -0.00"/>
<use x="574.33" y="97.01" xlink:href="#hd"/>
<use x="565.33" y="97.01" xlink:href="#ft0"/>
<path d="M577.83 97.01v-27.00" stroke="currentColor" fill="none"/>
<use x="583.63" y="94.01" xlink:href="#hd"/>
<path d="M587.13 94.01v-24.00" stroke="currentColor" fill="none"/>
<use x="601.63" y="97.01" xlink:href="#hd"/>
<use x="592.63" y="97.01" xlink:href="#ft0"/>
<path d="M605.13 97.01v-27.00" stroke="currentColor" fill="none"/>
<use x="610.93" y="94.01" xlink:href="#hd"/>
<path d="M614.43 94.01v-24.00" stroke="currentColor" fill="none"/>
<path fill="currentColor"
	d="M632.13 69.01l37.30 0.00v3.20l-37.30 -0.00"/>
<path fill="currentColor"
	d="M632.43 74.01l36.60 0.00v3.20l-36.60 -0.00"/>
<path fill="currentColor"
	d="M632.43 79.01l36.60 0.00v3.20l-36.60 -0.00"/>
<use x="628.93" y="97.01" xlink:href="#hd"/>
<use x="619.93" y="97.01" xlink:href="#ft0"/>
<path d="M632.43 97.01v-27.00" stroke="currentColor" fill="none"/>
<use x="638.33" y="94.01" xlink:href="#hd"/>
<path d="M641.83 94.01v-24.00" stroke="currentColor" fill="none"/>
<use x="656.33" y="97.01" xlink:href="#hd"/>
<use x="647.33" y="97.01" xlink:href="#ft0"/>
<path d="M659.83 97.01v-27.00" stroke="currentColor" fill="none"/>
<use x="665.63" y="94.01" xlink:href="#hd"/>
<path d="M669.13 94.01v-24.00" stroke="currentColor" fill="none"/>
<use x="675.73" y="100.01" xlink:href="#hd"/>
<path d="M679.23 100.01v-20.00" stroke="currentColor" fill="none"/>
<path fill="currentColor"
	d="	M679.23 80.01c0.6 5.6 9.6 9 5.6 18.4
	c1.6 -6 -1.3 -11.6 -5.6 -12.8
"/>
</g>
</svg>
