<?xml version="1.0" standalone="no"?>
<!DOCTYPE svg PUBLIC "-//W3C//DTD SVG 1.1//EN"
	"http://www.w3.org/Graphics/SVG/1.1/DTD/svg11.dtd">
<svg xmlns="http://www.w3.org/2000/svg" version="1.1"
	xmlns:xlink="http://www.w3.org/1999/xlink"
	xml:space='preserve' color="black"
	width="7.38in" height="1.36in" viewBox="0 0 531 98">
<title>2291.abc (2291) tune 1</title>
<!-- Creator: abcm2ps-7.8.14 -->
<!-- CreationDate: Mar 13, 2016 18:54 -->
<!-- CommandLine: -qxg 2291.abc -O ../svgs/2291.svg -->
<g transform="scale(0.750)" stroke-width="0.70" font-family="Times" font-size="20.00">
<text x="354.13" y="21.67" text-anchor="middle">2291.  Sonata in G Minor, Op. 1, No. 6, 2nd. Mvt.</text>
</g>
<g transform="scale(0.750)" stroke-width="0.70" font-family="Times" font-size="14.00" font-style="italic">
<text x="694.93" y="45.34" text-anchor="end">George Frideric Handel</text>
</g>
<g transform="scale(0.525)" stroke-width="0.70" font-family="Times" font-size="14.00" font-style="italic">
<defs>
<ellipse id="hd" rx="4.1" ry="2.9"
	transform="rotate(-20)" fill="currentColor"/>
</defs>
<use x="114.90" y="94.16" xlink:href="#hd"/>
<path d="M118.40 94.16v-20.00" stroke="currentColor" fill="none"/>
</g>
<g transform="scale(0.750)" stroke-width="0.70" font-family="Times" font-size="15.00" font-weight="bold">
<text x="88.13" y="68.01">= 120</text>
<path stroke="currentColor" fill="none"
	d="M238.73 108.01v-24.00"/>
<path stroke="currentColor" fill="none"
	d="M433.23 108.01v-24.00"/>
<path stroke="currentColor" fill="none"
	d="M647.93 108.01v-24.00"/>
<path stroke="currentColor" fill="none"
	d="M13.33 108.01h681.60m-681.60 -6h681.60m-681.60 -6h681.60m-681.60 -6h681.60m-681.60 -6h681.60"/>
<defs>
<path id="utclef" fill="currentColor" d="m-50 -90
	c-72 -41 -72 -158 52 -188
	c150 -10 220 188 90 256
	c-114 52 -275 0 -293 -136
	c-15 -181 93 -229 220 -334
	c88 -87 79 -133 62 -210
	c-51 33 -94 105 -89 186
	c17 267 36 374 49 574
	c6 96 -19 134 -77 135
	c-80 1 -126 -93 -61 -133
	c85 -41 133 101 31 105
	c23 17 92 37 90 -92
	c-10 -223 -39 -342 -50 -617
	c0 -90 0 -162 96 -232
	c56 72 63 230 22 289
	c-74 106 -257 168 -255 316
	c9 153 148 185 252 133
	c86 -65 29 -192 -80 -176
	c-71 12 -105 67 -59 124"/>
<use id="tclef" transform="scale(0.045)"
	xlink:href="#utclef"/>
</defs>
<use x="25.33" y="108.01" xlink:href="#tclef"/>
<defs>
<path id="uflat" fill="currentColor" d="
	m100 -746
	h32
	v734
	l-32 4
	m32 -332
	c46 -72 152 -90 208 -20
	c100 110 -120 326 -208 348
	m0 -28
	c54 0 200 -206 130 -290
	c-50 -60 -130 -4 -130 34"/>
<use id="ft0" transform="translate(-3.5,3.5) scale(0.018)"
	xlink:href="#uflat"/>
</defs>
<use x="40.33" y="96.01" xlink:href="#ft0"/>
<use x="45.83" y="87.01" xlink:href="#ft0"/>
<g font-family="serif" font-size="16" font-weight="bold" font-style="normal"
	transform="translate(61.83,108.01) scale(1.2,1)">
	<text y="-1" text-anchor="middle">4</text>
	<text y="-13" text-anchor="middle">4</text>
</g>
<defs>
<path id="r8e" fill="currentColor" d="m 0 0
	c-1.5 1.5 -2.4 2 -3.6 2
	c2.4 -2.8 -2.8 -4 -2.8 -1.2
	c0 2.7 4.3 2.4 5.9 0.6"/>
<g id="r8">
	<path d="m3.3 -4l-3.4 9.6" stroke="currentColor" fill="none"/>
	<use x="3.4" y="-4" xlink:href="#r8e"/>
</g>
</defs>
<use x="79.83" y="96.01" xlink:href="#r8"/>
<use x="101.93" y="102.01" xlink:href="#hd"/>
<path d="M105.43 102.01v-20.00" stroke="currentColor" fill="none"/>
<path fill="currentColor"
	d="	M105.43 82.01c0.6 5.6 9.6 9 5.6 18.4
	c1.6 -6 -1.3 -11.6 -5.6 -12.8
"/>
<use x="126.73" y="96.01" xlink:href="#hd"/>
<path d="M130.23 96.01v-20.00" stroke="currentColor" fill="none"/>
<path fill="currentColor"
	d="	M130.23 76.01c0.6 5.6 9.6 9 5.6 18.4
	c1.6 -6 -1.3 -11.6 -5.6 -12.8
"/>
<use x="151.53" y="102.01" xlink:href="#hd"/>
<path d="M155.03 102.01v-20.00" stroke="currentColor" fill="none"/>
<path fill="currentColor"
	d="	M155.03 82.01c0.6 5.6 9.6 9 5.6 18.4
	c1.6 -6 -1.3 -11.6 -5.6 -12.8
"/>
<use x="176.43" y="90.01" xlink:href="#hd"/>
<path d="M172.93 90.01v20.00" stroke="currentColor" fill="none"/>
<use x="211.03" y="81.01" xlink:href="#hd"/>
<path d="M207.53 81.01v20.00" stroke="currentColor" fill="none"/>
<use x="251.33" y="84.01" xlink:href="#hd"/>
<path d="M247.83 84.01v20.00" stroke="currentColor" fill="none"/>
<path fill="currentColor"
	d="M247.83 104.01c0.6 -5.6 9.6 -9 5.6 -18.4
	c1.6 6 -1.3 11.6 -5.6 12.8
"/>
<use x="273.43" y="99.01" xlink:href="#hd"/>
<path d="M276.93 99.01v-20.00" stroke="currentColor" fill="none"/>
<path fill="currentColor"
	d="	M276.93 79.01c0.6 5.6 9.6 9 5.6 18.4
	c1.6 -6 -1.3 -11.6 -5.6 -12.8
"/>
<use x="298.23" y="96.01" xlink:href="#hd"/>
<path d="M301.73 96.01v-20.00" stroke="currentColor" fill="none"/>
<path fill="currentColor"
	d="	M301.73 76.01c0.6 5.6 9.6 9 5.6 18.4
	c1.6 -6 -1.3 -11.6 -5.6 -12.8
"/>
<use x="323.13" y="87.01" xlink:href="#hd"/>
<path d="M319.63 87.01v20.00" stroke="currentColor" fill="none"/>
<path fill="currentColor"
	d="M353.83 113.01l16.40 2.30v-3.20l-16.40 -2.30"/>
<path fill="currentColor"
	d="M354.13 108.01l15.70 2.20v-3.20l-15.70 -2.20"/>
<use x="357.63" y="90.01" xlink:href="#hd"/>
<path d="M354.13 90.01v22.00" stroke="currentColor" fill="none"/>
<use x="373.43" y="93.01" xlink:href="#hd"/>
<path d="M369.93 93.01v21.20" stroke="currentColor" fill="none"/>
<use x="390.83" y="90.01" xlink:href="#hd"/>
<path d="M387.33 90.01v20.00" stroke="currentColor" fill="none"/>
<path fill="currentColor"
	d="M387.33 110.01c0.6 -5.6 9.6 -9 5.6 -18.4
	c1.6 6 -1.3 11.6 -5.6 12.8
"/>
<use x="413.23" y="102.01" xlink:href="#hd"/>
<use x="404.23" y="102.01" xlink:href="#ft0"/>
<path d="M416.73 102.01v-20.00" stroke="currentColor" fill="none"/>
<path fill="currentColor"
	d="	M416.73 82.01c0.6 5.6 9.6 9 5.6 18.4
	c1.6 -6 -1.3 -11.6 -5.6 -12.8
"/>
<use x="451.73" y="102.01" xlink:href="#hd"/>
<defs>
<path id="unat" fill="currentColor" d="
	m96 -750
	h-32
	v716
	l32 -8
	l182 -54
	v282
	h32
	v-706
	l-34 10
	l-180 50
	v-290
	m0 592
	v-190
	l182 -52
	v188"/>
<use id="nt0" transform="translate(-3,5) scale(0.018)"
	xlink:href="#unat"/>
</defs>
<use x="442.73" y="102.01" xlink:href="#nt0"/>
<path d="M455.23 102.01v-20.00" stroke="currentColor" fill="none"/>
<path fill="currentColor"
	d="	M455.23 82.01c0.6 5.6 9.6 9 5.6 18.4
	c1.6 -6 -1.3 -11.6 -5.6 -12.8
"/>
<path fill="currentColor"
	d="M479.73 76.01l16.40 -2.30v3.20l-16.40 2.30"/>
<path fill="currentColor"
	d="M480.03 81.01l15.70 -2.20v3.20l-15.70 2.20"/>
<use x="476.53" y="99.01" xlink:href="#hd"/>
<path d="M480.03 99.01v-22.00" stroke="currentColor" fill="none"/>
<use x="492.23" y="96.01" xlink:href="#hd"/>
<path d="M495.73 96.01v-21.20" stroke="currentColor" fill="none"/>
<use x="509.73" y="93.01" xlink:href="#hd"/>
<path d="M506.23 93.01v20.00" stroke="currentColor" fill="none"/>
<path fill="currentColor"
	d="M506.23 113.01c0.6 -5.6 9.6 -9 5.6 -18.4
	c1.6 6 -1.3 11.6 -5.6 12.8
"/>
<use x="534.33" y="93.01" xlink:href="#hd"/>
<path d="M530.83 93.01v20.00" stroke="currentColor" fill="none"/>
<path fill="currentColor"
	d="M530.83 113.01c0.6 -5.6 9.6 -9 5.6 -18.4
	c1.6 6 -1.3 11.6 -5.6 12.8
"/>
<use x="556.43" y="111.01" xlink:href="#hd"/>
<path d="M559.93 111.01v-20.00" stroke="currentColor" fill="none"/>
<path fill="currentColor"
	d="	M559.93 91.01c0.6 5.6 9.6 9 5.6 18.4
	c1.6 -6 -1.3 -11.6 -5.6 -12.8
"/>
<use x="581.33" y="93.01" xlink:href="#hd"/>
<path d="M577.83 93.01v20.00" stroke="currentColor" fill="none"/>
<path fill="currentColor"
	d="M577.83 113.01c0.6 -5.6 9.6 -9 5.6 -18.4
	c1.6 6 -1.3 11.6 -5.6 12.8
"/>
<use x="605.83" y="96.01" xlink:href="#hd"/>
<path d="M602.33 96.01v20.00" stroke="currentColor" fill="none"/>
<path fill="currentColor"
	d="M602.33 116.01c0.6 -5.6 9.6 -9 5.6 -18.4
	c1.6 6 -1.3 11.6 -5.6 12.8
"/>
<use x="628.03" y="99.01" xlink:href="#hd"/>
<path d="M631.53 99.01v-20.00" stroke="currentColor" fill="none"/>
<path fill="currentColor"
	d="	M631.53 79.01c0.6 5.6 9.6 9 5.6 18.4
	c1.6 -6 -1.3 -11.6 -5.6 -12.8
"/>
<use x="660.53" y="96.01" xlink:href="#hd"/>
<path d="M657.03 96.01v20.00" stroke="currentColor" fill="none"/>
</g>
</svg>
