<?xml version="1.0" standalone="no"?>
<!DOCTYPE svg PUBLIC "-//W3C//DTD SVG 1.1//EN"
	"http://www.w3.org/Graphics/SVG/1.1/DTD/svg11.dtd">
<svg xmlns="http://www.w3.org/2000/svg" version="1.1"
	xmlns:xlink="http://www.w3.org/1999/xlink"
	xml:space='preserve' color="black"
	width="7.38in" height="1.34in" viewBox="0 0 531 97">
<title>2306.abc (2306) tune 1</title>
<!-- Creator: abcm2ps-7.8.14 -->
<!-- CreationDate: Mar 13, 2016 18:54 -->
<!-- CommandLine: -qxg 2306.abc -O ../svgs/2306.svg -->
<g transform="scale(0.750)" stroke-width="0.70" font-family="Times" font-size="20.00">
<text x="354.13" y="21.67" text-anchor="middle">2306.  Sonata in F, Op. 1, No. 12, 1st. Mvt.</text>
</g>
<g transform="scale(0.750)" stroke-width="0.70" font-family="Times" font-size="14.00" font-style="italic">
<text x="694.93" y="45.34" text-anchor="end">George Frideric Handel</text>
</g>
<g transform="scale(0.525)" stroke-width="0.70" font-family="Times" font-size="14.00" font-style="italic">
<defs>
<ellipse id="hd" rx="4.1" ry="2.9"
	transform="rotate(-20)" fill="currentColor"/>
</defs>
<use x="107.04" y="94.16" xlink:href="#hd"/>
<path d="M110.54 94.16v-20.00" stroke="currentColor" fill="none"/>
</g>
<g transform="scale(0.750)" stroke-width="0.70" font-family="Times" font-size="15.00" font-weight="bold">
<text x="82.63" y="68.01">= 120</text>
<path stroke="currentColor" fill="none"
	d="M172.93 106.01v-24.00"/>
<path stroke="currentColor" fill="none"
	d="M266.93 106.01v-24.00"/>
<path stroke="currentColor" fill="none"
	d="M378.53 106.01v-24.00"/>
<path stroke="currentColor" fill="none"
	d="M472.43 106.01v-24.00"/>
<path stroke="currentColor" fill="none"
	d="M656.13 106.01v-24.00"/>
<path stroke="currentColor" fill="none"
	d="M13.33 106.01h681.60m-681.60 -6h681.60m-681.60 -6h681.60m-681.60 -6h681.60m-681.60 -6h681.60"/>
<defs>
<path id="utclef" fill="currentColor" d="m-50 -90
	c-72 -41 -72 -158 52 -188
	c150 -10 220 188 90 256
	c-114 52 -275 0 -293 -136
	c-15 -181 93 -229 220 -334
	c88 -87 79 -133 62 -210
	c-51 33 -94 105 -89 186
	c17 267 36 374 49 574
	c6 96 -19 134 -77 135
	c-80 1 -126 -93 -61 -133
	c85 -41 133 101 31 105
	c23 17 92 37 90 -92
	c-10 -223 -39 -342 -50 -617
	c0 -90 0 -162 96 -232
	c56 72 63 230 22 289
	c-74 106 -257 168 -255 316
	c9 153 148 185 252 133
	c86 -65 29 -192 -80 -176
	c-71 12 -105 67 -59 124"/>
<use id="tclef" transform="scale(0.045)"
	xlink:href="#utclef"/>
</defs>
<use x="25.33" y="106.01" xlink:href="#tclef"/>
<defs>
<path id="uflat" fill="currentColor" d="
	m100 -746
	h32
	v734
	l-32 4
	m32 -332
	c46 -72 152 -90 208 -20
	c100 110 -120 326 -208 348
	m0 -28
	c54 0 200 -206 130 -290
	c-50 -60 -130 -4 -130 34"/>
<use id="ft0" transform="translate(-3.5,3.5) scale(0.018)"
	xlink:href="#uflat"/>
</defs>
<use x="40.33" y="94.01" xlink:href="#ft0"/>
<g font-family="serif" font-size="16" font-weight="bold" font-style="normal"
	transform="translate(56.33,106.01) scale(1.2,1)">
	<text y="-1" text-anchor="middle">4</text>
	<text y="-13" text-anchor="middle">3</text>
</g>
<use x="74.33" y="82.01" xlink:href="#hd"/>
<path d="M70.83 82.01v20.00" stroke="currentColor" fill="none"/>
<use x="110.83" y="91.01" xlink:href="#hd"/>
<path d="M107.33 91.01v20.00" stroke="currentColor" fill="none"/>
<use x="143.73" y="97.01" xlink:href="#hd"/>
<path d="M147.23 97.01v-20.00" stroke="currentColor" fill="none"/>
<defs>
<path id="Hd" fill="currentColor" d="m3 -1.6
	c-1 -1.8 -7 1.4 -6 3.2
	c1 1.8 7 -1.4 6 -3.2
	m0.5 -0.3
	c2 3.8 -5 7.6 -7 3.8
	c-2 -3.8 5 -7.6 7 -3.8"/>
</defs>
<use x="186.03" y="97.01" xlink:href="#Hd"/>
<path d="M189.53 97.01v-20.00" stroke="currentColor" fill="none"/>
<use x="237.63" y="91.01" xlink:href="#hd"/>
<path d="M234.13 91.01v20.00" stroke="currentColor" fill="none"/>
<use x="279.93" y="88.01" xlink:href="#hd"/>
<path d="M276.43 88.01v20.00" stroke="currentColor" fill="none"/>
<use x="316.43" y="94.01" xlink:href="#hd"/>
<path d="M312.93 94.01v20.00" stroke="currentColor" fill="none"/>
<use x="349.33" y="100.01" xlink:href="#hd"/>
<path d="M352.83 100.01v-20.00" stroke="currentColor" fill="none"/>
<use x="391.53" y="106.01" xlink:href="#Hd"/>
<path d="M395.03 106.01v-20.00" stroke="currentColor" fill="none"/>
<use x="443.23" y="103.01" xlink:href="#hd"/>
<path d="M446.73 103.01v-20.00" stroke="currentColor" fill="none"/>
<path fill="currentColor"
	d="M488.63 68.81l33.70 0.00v3.20l-33.70 -0.00"/>
<path fill="currentColor"
	d="M488.93 73.81l33.00 0.00v3.20l-33.00 -0.00"/>
<use x="485.43" y="94.01" xlink:href="#hd"/>
<path d="M488.93 94.01v-24.20" stroke="currentColor" fill="none"/>
<use x="501.93" y="91.01" xlink:href="#hd"/>
<path d="M505.43 91.01v-21.20" stroke="currentColor" fill="none"/>
<use x="518.43" y="97.01" xlink:href="#hd"/>
<path d="M521.93 97.01v-27.20" stroke="currentColor" fill="none"/>
<path fill="currentColor"
	d="M532.93 113.41l17.20 2.30v-3.20l-17.20 -2.30"/>
<path fill="currentColor"
	d="M539.33 109.21l-6.00 -0.80v-3.20l6.00 0.80"/>
<use x="536.83" y="91.01" xlink:href="#hd"/>
<path d="M533.33 91.01v21.40" stroke="currentColor" fill="none"/>
<use x="553.33" y="94.01" xlink:href="#hd"/>
<path d="M549.83 94.01v20.60" stroke="currentColor" fill="none"/>
<path fill="currentColor"
	d="M575.33 109.11l57.00 4.10v-3.20l-57.00 -4.10"/>
<path fill="currentColor"
	d="M575.63 104.11l16.50 1.20v-3.20l-16.50 -1.20"/>
<use x="579.13" y="85.01" xlink:href="#hd"/>
<path d="M575.63 85.01v23.10" stroke="currentColor" fill="none"/>
<use x="595.63" y="82.01" xlink:href="#hd"/>
<path d="M592.13 82.01v27.30" stroke="currentColor" fill="none"/>
<use x="612.13" y="79.01" xlink:href="#hd"/>
<path d="M608.63 79.01v31.50" stroke="currentColor" fill="none"/>
<use x="635.43" y="94.01" xlink:href="#hd"/>
<path d="M631.93 94.01v18.20" stroke="currentColor" fill="none"/>
<use x="669.13" y="97.01" xlink:href="#hd"/>
<path d="M672.63 97.01v-20.00" stroke="currentColor" fill="none"/>
<path fill="currentColor"
	d="	M672.63 77.01c0.6 5.6 9.6 9 5.6 18.4
	c1.6 -6 -1.3 -11.6 -5.6 -12.8
"/>
</g>
</svg>
