<?xml version="1.0" standalone="no"?>
<!DOCTYPE svg PUBLIC "-//W3C//DTD SVG 1.1//EN"
	"http://www.w3.org/Graphics/SVG/1.1/DTD/svg11.dtd">
<svg xmlns="http://www.w3.org/2000/svg" version="1.1"
	xmlns:xlink="http://www.w3.org/1999/xlink"
	xml:space='preserve' color="black"
	width="7.38in" height="1.42in" viewBox="0 0 531 102">
<title>2371.abc (2371) tune 1</title>
<!-- Creator: abcm2ps-7.8.14 -->
<!-- CreationDate: Mar 13, 2016 18:54 -->
<!-- CommandLine: -qxg 2371.abc -O ../svgs/2371.svg -->
<g transform="scale(0.750)" stroke-width="0.70" font-family="Times" font-size="20.00">
<text x="354.13" y="21.67" text-anchor="middle">2371.  Air Water Music, 7th. Mvt.</text>
</g>
<g transform="scale(0.750)" stroke-width="0.70" font-family="Times" font-size="14.00" font-style="italic">
<text x="694.93" y="45.34" text-anchor="end">George Frideric Handel</text>
</g>
<g transform="scale(0.525)" stroke-width="0.70" font-family="Times" font-size="14.00" font-style="italic">
<defs>
<ellipse id="hd" rx="4.1" ry="2.9"
	transform="rotate(-20)" fill="currentColor"/>
</defs>
<use x="107.04" y="94.16" xlink:href="#hd"/>
<path d="M110.54 94.16v-20.00" stroke="currentColor" fill="none"/>
</g>
<g transform="scale(0.750)" stroke-width="0.70" font-family="Times" font-size="15.00" font-weight="bold">
<text x="82.63" y="68.01">= 120</text>
<path stroke="currentColor" fill="none"
	d="M308.33 113.01v-24.00"/>
<path stroke="currentColor" fill="none"
	d="M447.23 113.01v-24.00"/>
<path stroke="currentColor" fill="none"
	d="M582.43 113.01v-24.00"/>
<path stroke="currentColor" fill="none"
	d="M694.93 113.01v-24.00"/>
<path stroke="currentColor" fill="none"
	d="M13.33 113.01h681.60m-681.60 -6h681.60m-681.60 -6h681.60m-681.60 -6h681.60m-681.60 -6h681.60"/>
<defs>
<path id="utclef" fill="currentColor" d="m-50 -90
	c-72 -41 -72 -158 52 -188
	c150 -10 220 188 90 256
	c-114 52 -275 0 -293 -136
	c-15 -181 93 -229 220 -334
	c88 -87 79 -133 62 -210
	c-51 33 -94 105 -89 186
	c17 267 36 374 49 574
	c6 96 -19 134 -77 135
	c-80 1 -126 -93 -61 -133
	c85 -41 133 101 31 105
	c23 17 92 37 90 -92
	c-10 -223 -39 -342 -50 -617
	c0 -90 0 -162 96 -232
	c56 72 63 230 22 289
	c-74 106 -257 168 -255 316
	c9 153 148 185 252 133
	c86 -65 29 -192 -80 -176
	c-71 12 -105 67 -59 124"/>
<use id="tclef" transform="scale(0.045)"
	xlink:href="#utclef"/>
</defs>
<use x="25.33" y="113.01" xlink:href="#tclef"/>
<defs>
<path id="uflat" fill="currentColor" d="
	m100 -746
	h32
	v734
	l-32 4
	m32 -332
	c46 -72 152 -90 208 -20
	c100 110 -120 326 -208 348
	m0 -28
	c54 0 200 -206 130 -290
	c-50 -60 -130 -4 -130 34"/>
<use id="ft0" transform="translate(-3.5,3.5) scale(0.018)"
	xlink:href="#uflat"/>
</defs>
<use x="40.33" y="101.01" xlink:href="#ft0"/>
<g font-family="serif" font-size="16" font-weight="bold" font-style="normal"
	transform="translate(56.33,113.01) scale(1.2,1)">
	<text y="-1" text-anchor="middle">4</text>
	<text y="-13" text-anchor="middle">4</text>
</g>
<path fill="currentColor"
	d="M77.53 75.81l58.70 0.00v3.20l-58.70 -0.00"/>
<path fill="currentColor"
	d="M94.03 80.81l6.00 0.00v3.20l-6.00 -0.00"/>
<path fill="currentColor"
	d="M129.83 80.81l6.00 0.00v3.20l-6.00 -0.00"/>
<use x="74.33" y="104.01" xlink:href="#hd"/>
<circle fill="currentColor" cx="82.33" cy="104.01" r="1.2"/>
<path d="M77.83 104.01v-27.20" stroke="currentColor" fill="none"/>
<use x="96.53" y="98.01" xlink:href="#hd"/>
<path d="M100.03 98.01v-21.20" stroke="currentColor" fill="none"/>
<use x="110.13" y="110.01" xlink:href="#hd"/>
<circle fill="currentColor" cx="118.13" cy="110.01" r="1.2"/>
<path d="M113.63 110.01v-33.20" stroke="currentColor" fill="none"/>
<use x="132.33" y="104.01" xlink:href="#hd"/>
<path d="M135.83 104.01v-27.20" stroke="currentColor" fill="none"/>
<path fill="currentColor"
	d="M150.53 76.81l30.40 0.00v3.20l-30.40 -0.00"/>
<path fill="currentColor"
	d="M150.93 81.81l29.70 0.00v3.20l-29.70 -0.00"/>
<path fill="currentColor"
	d="M150.93 86.81l29.70 0.00v3.20l-29.70 -0.00"/>
<use x="147.43" y="107.01" xlink:href="#hd"/>
<path d="M150.93 107.01v-29.20" stroke="currentColor" fill="none"/>
<use x="157.33" y="104.01" xlink:href="#hd"/>
<path d="M160.83 104.01v-26.20" stroke="currentColor" fill="none"/>
<use x="167.23" y="107.01" xlink:href="#hd"/>
<path d="M170.73 107.01v-29.20" stroke="currentColor" fill="none"/>
<use x="177.13" y="104.01" xlink:href="#hd"/>
<path d="M180.63 104.01v-26.20" stroke="currentColor" fill="none"/>
<path fill="currentColor"
	d="M191.13 76.81l30.40 0.00v3.20l-30.40 -0.00"/>
<path fill="currentColor"
	d="M191.53 81.81l29.70 0.00v3.20l-29.70 -0.00"/>
<path fill="currentColor"
	d="M191.53 86.81l29.70 0.00v3.20l-29.70 -0.00"/>
<use x="188.03" y="107.01" xlink:href="#hd"/>
<path d="M191.53 107.01v-29.20" stroke="currentColor" fill="none"/>
<use x="197.83" y="104.01" xlink:href="#hd"/>
<path d="M201.33 104.01v-26.20" stroke="currentColor" fill="none"/>
<use x="207.73" y="107.01" xlink:href="#hd"/>
<path d="M211.23 107.01v-29.20" stroke="currentColor" fill="none"/>
<use x="217.63" y="104.01" xlink:href="#hd"/>
<path d="M221.13 104.01v-26.20" stroke="currentColor" fill="none"/>
<path fill="currentColor"
	d="M231.73 76.81l30.40 0.00v3.20l-30.40 -0.00"/>
<path fill="currentColor"
	d="M232.03 81.81l29.70 0.00v3.20l-29.70 -0.00"/>
<path fill="currentColor"
	d="M232.03 86.81l29.70 0.00v3.20l-29.70 -0.00"/>
<use x="228.53" y="107.01" xlink:href="#hd"/>
<path d="M232.03 107.01v-29.20" stroke="currentColor" fill="none"/>
<use x="238.43" y="104.01" xlink:href="#hd"/>
<path d="M241.93 104.01v-26.20" stroke="currentColor" fill="none"/>
<use x="248.33" y="107.01" xlink:href="#hd"/>
<path d="M251.83 107.01v-29.20" stroke="currentColor" fill="none"/>
<use x="258.23" y="104.01" xlink:href="#hd"/>
<path d="M261.73 104.01v-26.20" stroke="currentColor" fill="none"/>
<path fill="currentColor"
	d="M272.33 76.81l30.40 0.00v3.20l-30.40 -0.00"/>
<path fill="currentColor"
	d="M272.63 81.81l29.70 0.00v3.20l-29.70 -0.00"/>
<path fill="currentColor"
	d="M272.63 86.81l29.70 0.00v3.20l-29.70 -0.00"/>
<use x="269.13" y="107.01" xlink:href="#hd"/>
<path d="M272.63 107.01v-29.20" stroke="currentColor" fill="none"/>
<use x="279.03" y="104.01" xlink:href="#hd"/>
<path d="M282.53 104.01v-26.20" stroke="currentColor" fill="none"/>
<use x="288.93" y="107.01" xlink:href="#hd"/>
<path d="M292.43 107.01v-29.20" stroke="currentColor" fill="none"/>
<use x="298.83" y="104.01" xlink:href="#hd"/>
<path d="M302.33 104.01v-26.20" stroke="currentColor" fill="none"/>
<path fill="currentColor"
	d="M323.93 75.81l58.70 0.00v3.20l-58.70 -0.00"/>
<path fill="currentColor"
	d="M340.43 80.81l6.00 0.00v3.20l-6.00 -0.00"/>
<path fill="currentColor"
	d="M376.33 80.81l6.00 0.00v3.20l-6.00 -0.00"/>
<use x="320.83" y="104.01" xlink:href="#hd"/>
<circle fill="currentColor" cx="328.83" cy="104.01" r="1.2"/>
<path d="M324.33 104.01v-27.20" stroke="currentColor" fill="none"/>
<use x="342.93" y="98.01" xlink:href="#hd"/>
<path d="M346.43 98.01v-21.20" stroke="currentColor" fill="none"/>
<use x="356.63" y="110.01" xlink:href="#hd"/>
<circle fill="currentColor" cx="364.63" cy="110.01" r="1.2"/>
<path d="M360.13 110.01v-33.20" stroke="currentColor" fill="none"/>
<use x="378.83" y="104.01" xlink:href="#hd"/>
<path d="M382.33 104.01v-27.20" stroke="currentColor" fill="none"/>
<use x="393.93" y="107.01" xlink:href="#hd"/>
<path d="M397.43 107.01v-20.00" stroke="currentColor" fill="none"/>
<use x="423.53" y="98.01" xlink:href="#hd"/>
<path d="M420.03 98.01v20.00" stroke="currentColor" fill="none"/>
<use x="459.73" y="98.01" xlink:href="#hd"/>
<path d="M456.23 98.01v20.00" stroke="currentColor" fill="none"/>
<use x="489.13" y="101.01" xlink:href="#hd"/>
<circle fill="currentColor" cx="497.13" cy="98.01" r="1.2"/>
<path d="M485.63 101.01v20.00" stroke="currentColor" fill="none"/>
<path fill="currentColor"
	d="M523.83 76.81l50.20 0.00v3.20l-50.20 -0.00"/>
<path fill="currentColor"
	d="M524.23 81.81l13.70 0.00v3.20l-13.70 -0.00"/>
<path fill="currentColor"
	d="M567.73 81.81l6.00 0.00v3.20l-6.00 -0.00"/>
<use x="520.73" y="101.01" xlink:href="#hd"/>
<path d="M524.23 101.01v-23.20" stroke="currentColor" fill="none"/>
<use x="534.33" y="107.01" xlink:href="#hd"/>
<path d="M537.83 107.01v-29.20" stroke="currentColor" fill="none"/>
<use x="548.03" y="104.01" xlink:href="#hd"/>
<circle fill="currentColor" cx="556.03" cy="104.01" r="1.2"/>
<path d="M551.53 104.01v-26.20" stroke="currentColor" fill="none"/>
<use x="570.23" y="101.01" xlink:href="#hd"/>
<path d="M573.73 101.01v-23.20" stroke="currentColor" fill="none"/>
<use x="594.93" y="104.01" xlink:href="#hd"/>
<path d="M598.43 104.01v-20.00" stroke="currentColor" fill="none"/>
<path fill="currentColor"
	d="M627.53 85.41l22.80 2.40v3.20l-22.80 -2.40"/>
<path fill="currentColor"
	d="M644.03 92.21l6.00 0.60v3.20l-6.00 -0.60"/>
<use x="624.33" y="107.01" xlink:href="#hd"/>
<circle fill="currentColor" cx="632.33" cy="104.01" r="1.2"/>
<path d="M627.83 107.01v-20.60" stroke="currentColor" fill="none"/>
<use x="646.53" y="110.01" xlink:href="#hd"/>
<path d="M650.03 110.01v-21.20" stroke="currentColor" fill="none"/>
<defs>
<path id="Hd" fill="currentColor" d="m3 -1.6
	c-1 -1.8 -7 1.4 -6 3.2
	c1 1.8 7 -1.4 6 -3.2
	m0.5 -0.3
	c2 3.8 -5 7.6 -7 3.8
	c-2 -3.8 5 -7.6 7 -3.8"/>
</defs>
<use x="661.63" y="110.01" xlink:href="#Hd"/>
<path d="M665.13 110.01v-20.00" stroke="currentColor" fill="none"/>
<path fill="currentColor"
	d="M427.03 96.01c4.60 -5.03 24.62 -5.03 29.22 -0.00
	l0.00 -0.23c-5.48 -6.80 -23.74 -6.80 -29.22 0.23"/>
<path fill="currentColor"
	d="M492.63 95.01c3.87 -4.94 20.70 -4.94 24.57 -0.00
	l0.00 -0.22c-4.61 -6.72 -19.97 -6.72 -24.57 0.22"/>
</g>
</svg>
