<?xml version="1.0" standalone="no"?>
<!DOCTYPE svg PUBLIC "-//W3C//DTD SVG 1.1//EN"
	"http://www.w3.org/Graphics/SVG/1.1/DTD/svg11.dtd">
<svg xmlns="http://www.w3.org/2000/svg" version="1.1"
	xmlns:xlink="http://www.w3.org/1999/xlink"
	xml:space='preserve' color="black"
	width="7.38in" height="1.49in" viewBox="0 0 531 107">
<title>2427.abc (2427) tune 1</title>
<!-- Creator: abcm2ps-7.8.14 -->
<!-- CreationDate: Mar 13, 2016 18:54 -->
<!-- CommandLine: -qxg 2427.abc -O ../svgs/2427.svg -->
<g transform="scale(0.750)" stroke-width="0.70" font-family="Times" font-size="20.00">
<text x="354.13" y="21.67" text-anchor="middle">2427.  Concerto in D, 2nd. Mvt., 2nd. Theme</text>
</g>
<g transform="scale(0.750)" stroke-width="0.70" font-family="Times" font-size="14.00" font-style="italic">
<text x="694.93" y="45.34" text-anchor="end">Franz Josef Haydn</text>
</g>
<g transform="scale(0.525)" stroke-width="0.70" font-family="Times" font-size="14.00" font-style="italic">
<defs>
<ellipse id="hd" rx="4.1" ry="2.9"
	transform="rotate(-20)" fill="currentColor"/>
</defs>
<use x="122.76" y="94.16" xlink:href="#hd"/>
<path d="M126.26 94.16v-20.00" stroke="currentColor" fill="none"/>
</g>
<g transform="scale(0.750)" stroke-width="0.70" font-family="Times" font-size="15.00" font-weight="bold">
<text x="93.63" y="68.01">= 120</text>
<path stroke="currentColor" fill="none"
	d="M290.23 120.01v-24.00"/>
<path stroke="currentColor" fill="none"
	d="M510.73 120.01v-24.00"/>
<path stroke="currentColor" fill="none"
	d="M13.33 120.01h681.60m-681.60 -6h681.60m-681.60 -6h681.60m-681.60 -6h681.60m-681.60 -6h681.60"/>
<path stroke="currentColor" fill="none"
	d="M96.93 79.01v-3l39.10 -0.00v3"/>
<rect x="109.53" y="70.01" width="14.00" height="12" fill="white"/>
<text font-family="serif" font-size="12" font-style="italic" font-weight="normal"
	x="116.53" y="80.01" text-anchor="middle">3</text>
<path stroke="currentColor" fill="none"
	d="M317.53 79.01v-3l39.10 -0.00v3"/>
<rect x="330.03" y="70.01" width="14.00" height="12" fill="white"/>
<text font-family="serif" font-size="12" font-style="italic" font-weight="normal"
	x="337.03" y="80.01" text-anchor="middle">3</text>
<path stroke="currentColor" fill="none"
	d="M538.03 72.41v-3l39.10 6.00v3"/>
<rect x="550.53" y="66.41" width="14.00" height="12" fill="white"/>
<text font-family="serif" font-size="12" font-style="italic" font-weight="normal"
	x="557.53" y="76.41" text-anchor="middle">3</text>
<defs>
<path id="utclef" fill="currentColor" d="m-50 -90
	c-72 -41 -72 -158 52 -188
	c150 -10 220 188 90 256
	c-114 52 -275 0 -293 -136
	c-15 -181 93 -229 220 -334
	c88 -87 79 -133 62 -210
	c-51 33 -94 105 -89 186
	c17 267 36 374 49 574
	c6 96 -19 134 -77 135
	c-80 1 -126 -93 -61 -133
	c85 -41 133 101 31 105
	c23 17 92 37 90 -92
	c-10 -223 -39 -342 -50 -617
	c0 -90 0 -162 96 -232
	c56 72 63 230 22 289
	c-74 106 -257 168 -255 316
	c9 153 148 185 252 133
	c86 -65 29 -192 -80 -176
	c-71 12 -105 67 -59 124"/>
<use id="tclef" transform="scale(0.045)"
	xlink:href="#utclef"/>
</defs>
<use x="25.33" y="120.01" xlink:href="#tclef"/>
<defs>
<path id="usharp" fill="currentColor" d="
	m136 -702
	v890
	h32
	v-890
	m128 840
	h32
	v-888
	h-32
	m-232 286
	v116
	l338 -96
	v-116
	m-338 442
	v116
	l338 -98
	v-114"/>
<use id="sh0" transform="translate(-4,5) scale(0.018)"
	xlink:href="#usharp"/>
</defs>
<use x="40.33" y="96.01" xlink:href="#sh0"/>
<use x="45.83" y="105.01" xlink:href="#sh0"/>
<use x="51.33" y="93.01" xlink:href="#sh0"/>
<g font-family="serif" font-size="16" font-weight="bold" font-style="normal"
	transform="translate(67.33,120.01) scale(1.2,1)">
	<text y="-1" text-anchor="middle">4</text>
	<text y="-13" text-anchor="middle">3</text>
</g>
<defs>
<path id="r8e" fill="currentColor" d="m 0 0
	c-1.5 1.5 -2.4 2 -3.6 2
	c2.4 -2.8 -2.8 -4 -2.8 -1.2
	c0 2.7 4.3 2.4 5.9 0.6"/>
<g id="r32">
	<path d="m4.8 -10l-5.5 21.6" stroke="currentColor" fill="none"/>
	<use x="4.9" y="-10" xlink:href="#r8e"/>
	<use x="3.4" y="-4" xlink:href="#r8e"/>
	<use x="1.9" y="2" xlink:href="#r8e"/>
</g>
</defs>
<use x="85.33" y="108.01" xlink:href="#r32"/>
<path fill="currentColor"
	d="M97.13 115.01l47.30 0.00v-3.20l-47.30 -0.00"/>
<path fill="currentColor"
	d="M97.43 110.01l46.60 0.00v-3.20l-46.60 -0.00"/>
<path fill="currentColor"
	d="M138.03 105.01l6.00 0.00v-3.20l-6.00 -0.00"/>
<defs>
<path id="hl" stroke="currentColor" d="m-6 0h12"/>
</defs>
<use x="100.93" y="90.01" xlink:href="#hl"/>
<use x="100.93" y="90.01" xlink:href="#hd"/>
<path d="M97.43 90.01v24.00" stroke="currentColor" fill="none"/>
<use x="116.53" y="90.01" xlink:href="#hl"/>
<use x="116.53" y="90.01" xlink:href="#hd"/>
<path d="M113.03 90.01v24.00" stroke="currentColor" fill="none"/>
<use x="132.03" y="90.01" xlink:href="#hl"/>
<use x="132.03" y="90.01" xlink:href="#hd"/>
<path d="M128.53 90.01v24.00" stroke="currentColor" fill="none"/>
<use x="147.53" y="90.01" xlink:href="#hl"/>
<use x="147.53" y="90.01" xlink:href="#hd"/>
<path d="M144.03 90.01v24.00" stroke="currentColor" fill="none"/>
<use x="163.13" y="90.01" xlink:href="#hl"/>
<use x="163.13" y="90.01" xlink:href="#hd"/>
<path d="M159.63 90.01v25.00" stroke="currentColor" fill="none"/>
<path fill="currentColor"
	d="M159.63 115.01c0.9 -3.7 9.1 -6.4 6 -12.4
	c1 5.4 -4.2 8.4 -6 8.4
M159.63 109.61c0.9 -3.7 9.1 -6.4 6 -12.4
	c1 5.4 -4.2 8.4 -6 8.4
M159.63 104.21c0.9 -3.7 9.1 -6.4 6 -12.4
	c1 5.4 -4.2 8.4 -6 8.4
"/>
<use x="177.23" y="108.01" xlink:href="#r32"/>
<use x="192.93" y="90.01" xlink:href="#hl"/>
<use x="192.93" y="90.01" xlink:href="#hd"/>
<path d="M189.43 90.01v20.00" stroke="currentColor" fill="none"/>
<use x="237.03" y="96.01" xlink:href="#hd"/>
<path d="M233.53 96.01v20.00" stroke="currentColor" fill="none"/>
<path fill="currentColor"
	d="M233.53 116.01c0.6 -5.6 9.6 -9 5.6 -18.4
	c1.6 6 -1.3 11.6 -5.6 12.8
"/>
<defs>
<g id="r8">
	<path d="m3.3 -4l-3.4 9.6" stroke="currentColor" fill="none"/>
	<use x="3.4" y="-4" xlink:href="#r8e"/>
</g>
</defs>
<use x="265.23" y="108.01" xlink:href="#r8"/>
<use x="305.83" y="108.01" xlink:href="#r32"/>
<path fill="currentColor"
	d="M317.63 115.01l47.30 0.00v-3.20l-47.30 -0.00"/>
<path fill="currentColor"
	d="M318.03 110.01l46.60 0.00v-3.20l-46.60 -0.00"/>
<path fill="currentColor"
	d="M358.53 105.01l6.00 0.00v-3.20l-6.00 -0.00"/>
<use x="321.53" y="90.01" xlink:href="#hl"/>
<use x="321.53" y="90.01" xlink:href="#hd"/>
<path d="M318.03 90.01v24.00" stroke="currentColor" fill="none"/>
<use x="337.03" y="90.01" xlink:href="#hl"/>
<use x="337.03" y="90.01" xlink:href="#hd"/>
<path d="M333.53 90.01v24.00" stroke="currentColor" fill="none"/>
<use x="352.53" y="90.01" xlink:href="#hl"/>
<use x="352.53" y="90.01" xlink:href="#hd"/>
<path d="M349.03 90.01v24.00" stroke="currentColor" fill="none"/>
<use x="368.03" y="90.01" xlink:href="#hl"/>
<use x="368.03" y="90.01" xlink:href="#hd"/>
<path d="M364.53 90.01v24.00" stroke="currentColor" fill="none"/>
<use x="383.73" y="90.01" xlink:href="#hl"/>
<use x="383.73" y="90.01" xlink:href="#hd"/>
<path d="M380.23 90.01v25.00" stroke="currentColor" fill="none"/>
<path fill="currentColor"
	d="M380.23 115.01c0.9 -3.7 9.1 -6.4 6 -12.4
	c1 5.4 -4.2 8.4 -6 8.4
M380.23 109.61c0.9 -3.7 9.1 -6.4 6 -12.4
	c1 5.4 -4.2 8.4 -6 8.4
M380.23 104.21c0.9 -3.7 9.1 -6.4 6 -12.4
	c1 5.4 -4.2 8.4 -6 8.4
"/>
<use x="397.83" y="108.01" xlink:href="#r32"/>
<use x="413.43" y="90.01" xlink:href="#hl"/>
<use x="413.43" y="90.01" xlink:href="#hd"/>
<path d="M409.93 90.01v20.00" stroke="currentColor" fill="none"/>
<use x="457.63" y="99.01" xlink:href="#hd"/>
<path d="M454.13 99.01v20.00" stroke="currentColor" fill="none"/>
<path fill="currentColor"
	d="M454.13 119.01c0.6 -5.6 9.6 -9 5.6 -18.4
	c1.6 6 -1.3 11.6 -5.6 12.8
"/>
<use x="485.73" y="108.01" xlink:href="#r8"/>
<use x="526.43" y="108.01" xlink:href="#r32"/>
<path fill="currentColor"
	d="M538.23 113.81l47.30 4.40v-3.20l-47.30 -4.40"/>
<path fill="currentColor"
	d="M538.53 108.81l46.60 4.40v-3.20l-46.60 -4.40"/>
<path fill="currentColor"
	d="M579.13 107.61l6.00 0.60v-3.20l-6.00 -0.60"/>
<use x="542.03" y="90.01" xlink:href="#hl"/>
<use x="542.03" y="84.01" xlink:href="#hl"/>
<use x="542.03" y="84.01" xlink:href="#hd"/>
<path d="M538.53 84.01v28.80" stroke="currentColor" fill="none"/>
<use x="557.53" y="90.01" xlink:href="#hl"/>
<use x="557.53" y="87.01" xlink:href="#hd"/>
<path d="M554.03 87.01v27.30" stroke="currentColor" fill="none"/>
<use x="573.13" y="90.01" xlink:href="#hl"/>
<use x="573.13" y="90.01" xlink:href="#hd"/>
<path d="M569.63 90.01v25.70" stroke="currentColor" fill="none"/>
<use x="588.63" y="93.01" xlink:href="#hd"/>
<path d="M585.13 93.01v24.20" stroke="currentColor" fill="none"/>
<path fill="currentColor"
	d="M600.43 129.61l28.80 2.50v-3.20l-28.80 -2.50"/>
<path fill="currentColor"
	d="M606.73 125.21l-6.00 -0.50v-3.20l6.00 0.50"/>
<path fill="currentColor"
	d="M606.73 120.21l-6.00 -0.50v-3.20l6.00 0.50"/>
<use x="604.23" y="96.01" xlink:href="#hd"/>
<path d="M600.73 96.01v32.70" stroke="currentColor" fill="none"/>
<use x="618.33" y="108.01" xlink:href="#r32"/>
<use x="632.43" y="99.01" xlink:href="#hd"/>
<path d="M628.93 99.01v32.10" stroke="currentColor" fill="none"/>
<use x="663.63" y="102.01" xlink:href="#hd"/>
<use x="654.63" y="102.01" xlink:href="#sh0"/>
<path d="M660.13 102.01v20.00" stroke="currentColor" fill="none"/>
<path fill="currentColor"
	d="M660.13 122.01c0.6 -5.6 9.6 -9 5.6 -18.4
	c1.6 6 -1.3 11.6 -5.6 12.8
"/>
</g>
</svg>
