<?xml version="1.0" standalone="no"?>
<!DOCTYPE svg PUBLIC "-//W3C//DTD SVG 1.1//EN"
	"http://www.w3.org/Graphics/SVG/1.1/DTD/svg11.dtd">
<svg xmlns="http://www.w3.org/2000/svg" version="1.1"
	xmlns:xlink="http://www.w3.org/1999/xlink"
	xml:space='preserve' color="black"
	width="7.38in" height="1.36in" viewBox="0 0 531 98">
<title>2434.abc (2434) tune 1</title>
<!-- Creator: abcm2ps-7.8.14 -->
<!-- CreationDate: Mar 13, 2016 18:54 -->
<!-- CommandLine: -qxg 2434.abc -O ../svgs/2434.svg -->
<g transform="scale(0.750)" stroke-width="0.70" font-family="Times" font-size="20.00">
<text x="354.13" y="21.67" text-anchor="middle">2434.  Quartet in B Flat, Op. 1, No. 1, &quot;La Chasse&quot;, 1st. Mvt.</text>
</g>
<g transform="scale(0.750)" stroke-width="0.70" font-family="Times" font-size="14.00" font-style="italic">
<text x="694.93" y="45.34" text-anchor="end">Franz Josef Haydn</text>
</g>
<g transform="scale(0.525)" stroke-width="0.70" font-family="Times" font-size="14.00" font-style="italic">
<defs>
<ellipse id="hd" rx="4.1" ry="2.9"
	transform="rotate(-20)" fill="currentColor"/>
</defs>
<use x="114.90" y="94.16" xlink:href="#hd"/>
<path d="M118.40 94.16v-20.00" stroke="currentColor" fill="none"/>
</g>
<g transform="scale(0.750)" stroke-width="0.70" font-family="Times" font-size="15.00" font-weight="bold">
<text x="88.13" y="68.01">= 120</text>
<path stroke="currentColor" fill="none"
	d="M246.83 108.01v-24.00"/>
<path stroke="currentColor" fill="none"
	d="M425.83 108.01v-24.00"/>
<path stroke="currentColor" fill="none"
	d="M560.33 108.01v-24.00"/>
<path stroke="currentColor" fill="none"
	d="M694.93 108.01v-24.00"/>
<path stroke="currentColor" fill="none"
	d="M13.33 108.01h681.60m-681.60 -6h681.60m-681.60 -6h681.60m-681.60 -6h681.60m-681.60 -6h681.60"/>
<path stroke="currentColor" fill="none"
	d="M103.93 79.01v-3l53.80 -0.00v3"/>
<rect x="123.83" y="70.01" width="14.00" height="12" fill="white"/>
<text font-family="serif" font-size="12" font-style="italic" font-weight="normal"
	x="130.83" y="80.01" text-anchor="middle">3</text>
<path stroke="currentColor" fill="none"
	d="M283.53 75.01v-3l56.30 -0.00v3"/>
<rect x="304.73" y="66.01" width="14.00" height="12" fill="white"/>
<text font-family="serif" font-size="12" font-style="italic" font-weight="normal"
	x="311.73" y="76.01" text-anchor="middle">3</text>
<defs>
<path id="utclef" fill="currentColor" d="m-50 -90
	c-72 -41 -72 -158 52 -188
	c150 -10 220 188 90 256
	c-114 52 -275 0 -293 -136
	c-15 -181 93 -229 220 -334
	c88 -87 79 -133 62 -210
	c-51 33 -94 105 -89 186
	c17 267 36 374 49 574
	c6 96 -19 134 -77 135
	c-80 1 -126 -93 -61 -133
	c85 -41 133 101 31 105
	c23 17 92 37 90 -92
	c-10 -223 -39 -342 -50 -617
	c0 -90 0 -162 96 -232
	c56 72 63 230 22 289
	c-74 106 -257 168 -255 316
	c9 153 148 185 252 133
	c86 -65 29 -192 -80 -176
	c-71 12 -105 67 -59 124"/>
<use id="tclef" transform="scale(0.045)"
	xlink:href="#utclef"/>
</defs>
<use x="25.33" y="108.01" xlink:href="#tclef"/>
<defs>
<path id="uflat" fill="currentColor" d="
	m100 -746
	h32
	v734
	l-32 4
	m32 -332
	c46 -72 152 -90 208 -20
	c100 110 -120 326 -208 348
	m0 -28
	c54 0 200 -206 130 -290
	c-50 -60 -130 -4 -130 34"/>
<use id="ft0" transform="translate(-3.5,3.5) scale(0.018)"
	xlink:href="#uflat"/>
</defs>
<use x="40.33" y="96.01" xlink:href="#ft0"/>
<use x="45.83" y="87.01" xlink:href="#ft0"/>
<g font-family="serif" font-size="16" font-weight="bold" font-style="normal"
	transform="translate(61.83,108.01) scale(1.2,1)">
	<text y="-1" text-anchor="middle">8</text>
	<text y="-13" text-anchor="middle">6</text>
</g>
<defs>
<path id="hl" stroke="currentColor" d="m-6 0h12"/>
</defs>
<use x="79.83" y="114.01" xlink:href="#hl"/>
<use x="79.83" y="117.01" xlink:href="#hd"/>
<path d="M83.33 117.01v-21.00" stroke="currentColor" fill="none"/>
<path fill="currentColor"
	d="	M83.33 96.01c0.6 5.6 9.6 9 5.6 18.4
	c1.6 -6 -1.3 -11.6 -5.6 -12.8
"/>
<use x="104.93" y="114.01" xlink:href="#hl"/>
<use x="104.93" y="117.01" xlink:href="#hd"/>
<path d="M108.43 117.01v-21.00" stroke="currentColor" fill="none"/>
<use x="132.63" y="114.01" xlink:href="#hl"/>
<use x="132.63" y="117.01" xlink:href="#hd"/>
<path d="M136.13 117.01v-21.00" stroke="currentColor" fill="none"/>
<path fill="currentColor"
	d="M136.13 96.01c0.9 3.7 9.1 6.4 6 12.4
	c1 -5.4 -4.2 -8.4 -6 -8.4
M136.13 101.41c0.9 3.7 9.1 6.4 6 12.4
	c1 -5.4 -4.2 -8.4 -6 -8.4
"/>
<use x="149.13" y="111.01" xlink:href="#hd"/>
<path d="M152.63 111.01v-20.00" stroke="currentColor" fill="none"/>
<use x="176.73" y="111.01" xlink:href="#hd"/>
<path d="M180.23 111.01v-21.00" stroke="currentColor" fill="none"/>
<path fill="currentColor"
	d="M180.23 90.01c0.9 3.7 9.1 6.4 6 12.4
	c1 -5.4 -4.2 -8.4 -6 -8.4
M180.23 95.41c0.9 3.7 9.1 6.4 6 12.4
	c1 -5.4 -4.2 -8.4 -6 -8.4
"/>
<use x="194.63" y="111.01" xlink:href="#hd"/>
<path d="M198.13 111.01v-20.00" stroke="currentColor" fill="none"/>
<use x="229.83" y="111.01" xlink:href="#hd"/>
<path d="M233.33 111.01v-21.00" stroke="currentColor" fill="none"/>
<path fill="currentColor"
	d="M233.33 90.01c0.9 3.7 9.1 6.4 6 12.4
	c1 -5.4 -4.2 -8.4 -6 -8.4
M233.33 95.41c0.9 3.7 9.1 6.4 6 12.4
	c1 -5.4 -4.2 -8.4 -6 -8.4
"/>
<use x="259.53" y="105.01" xlink:href="#hd"/>
<path d="M263.03 105.01v-20.00" stroke="currentColor" fill="none"/>
<path fill="currentColor"
	d="	M263.03 85.01c0.6 5.6 9.6 9 5.6 18.4
	c1.6 -6 -1.3 -11.6 -5.6 -12.8
"/>
<use x="284.53" y="105.01" xlink:href="#hd"/>
<path d="M288.03 105.01v-20.00" stroke="currentColor" fill="none"/>
<use x="312.23" y="105.01" xlink:href="#hd"/>
<path d="M315.73 105.01v-21.00" stroke="currentColor" fill="none"/>
<path fill="currentColor"
	d="M315.73 84.01c0.9 3.7 9.1 6.4 6 12.4
	c1 -5.4 -4.2 -8.4 -6 -8.4
M315.73 89.41c0.9 3.7 9.1 6.4 6 12.4
	c1 -5.4 -4.2 -8.4 -6 -8.4
"/>
<use x="331.23" y="96.01" xlink:href="#hd"/>
<path d="M327.73 96.01v20.00" stroke="currentColor" fill="none"/>
<use x="358.83" y="96.01" xlink:href="#hd"/>
<path d="M355.33 96.01v22.00" stroke="currentColor" fill="none"/>
<path fill="currentColor"
	d="M355.33 118.01c0.9 -3.7 9.1 -6.4 6 -12.4
	c1 5.4 -4.2 8.4 -6 8.4
M355.33 112.61c0.9 -3.7 9.1 -6.4 6 -12.4
	c1 5.4 -4.2 8.4 -6 8.4
"/>
<use x="376.43" y="96.01" xlink:href="#hd"/>
<path d="M372.93 96.01v20.00" stroke="currentColor" fill="none"/>
<use x="411.63" y="96.01" xlink:href="#hd"/>
<path d="M408.13 96.01v22.00" stroke="currentColor" fill="none"/>
<path fill="currentColor"
	d="M408.13 118.01c0.9 -3.7 9.1 -6.4 6 -12.4
	c1 5.4 -4.2 8.4 -6 8.4
M408.13 112.61c0.9 -3.7 9.1 -6.4 6 -12.4
	c1 5.4 -4.2 8.4 -6 8.4
"/>
<path fill="currentColor"
	d="M434.63 105.21l45.20 -4.00v-3.20l-45.20 4.00"/>
<use x="438.53" y="84.01" xlink:href="#hd"/>
<path d="M435.03 84.01v20.20" stroke="currentColor" fill="none"/>
<use x="460.73" y="84.01" xlink:href="#hd"/>
<path d="M457.23 84.01v18.20" stroke="currentColor" fill="none"/>
<use x="483.03" y="78.01" xlink:href="#hl"/>
<use x="483.03" y="75.01" xlink:href="#hd"/>
<path d="M479.53 75.01v25.20" stroke="currentColor" fill="none"/>
<use x="507.73" y="81.01" xlink:href="#hd"/>
<path d="M504.23 81.01v20.00" stroke="currentColor" fill="none"/>
<path fill="currentColor"
	d="M504.23 101.01c0.6 -5.6 9.6 -9 5.6 -18.4
	c1.6 6 -1.3 11.6 -5.6 12.8
"/>
<use x="532.43" y="84.01" xlink:href="#hd"/>
<path d="M528.93 84.01v20.00" stroke="currentColor" fill="none"/>
<path fill="currentColor"
	d="M569.23 111.01l45.20 0.00v-3.20l-45.20 -0.00"/>
<use x="573.03" y="90.01" xlink:href="#hd"/>
<path d="M569.53 90.01v20.00" stroke="currentColor" fill="none"/>
<use x="595.33" y="93.01" xlink:href="#hd"/>
<path d="M591.83 93.01v17.00" stroke="currentColor" fill="none"/>
<use x="617.63" y="90.01" xlink:href="#hd"/>
<path d="M614.13 90.01v20.00" stroke="currentColor" fill="none"/>
<use x="642.33" y="87.01" xlink:href="#hd"/>
<path d="M638.83 87.01v20.00" stroke="currentColor" fill="none"/>
<path fill="currentColor"
	d="M638.83 107.01c0.6 -5.6 9.6 -9 5.6 -18.4
	c1.6 6 -1.3 11.6 -5.6 12.8
"/>
<use x="667.03" y="90.01" xlink:href="#hd"/>
<path d="M663.53 90.01v20.00" stroke="currentColor" fill="none"/>
<path fill="currentColor"
	d="M108.43 119.01c3.25 4.87 17.39 4.87 20.64 -0.00
	l0.00 0.22c-3.87 6.65 -16.77 6.65 -20.64 -0.22"/>
<path fill="currentColor"
	d="M152.63 113.01c3.25 4.87 17.39 4.87 20.64 -0.00
	l0.00 0.22c-3.87 6.65 -16.77 6.65 -20.64 -0.22"/>
<path fill="currentColor"
	d="M198.13 113.01c4.44 5.01 23.74 5.01 28.18 -0.00
	l0.00 0.23c-5.28 6.78 -22.89 6.78 -28.18 -0.23"/>
<path fill="currentColor"
	d="M288.03 107.01c3.25 4.87 17.39 4.87 20.64 -0.00
	l0.00 0.22c-3.87 6.65 -16.77 6.65 -20.64 -0.22"/>
<path fill="currentColor"
	d="M334.73 96.01c3.25 -4.87 17.39 -4.87 20.64 -0.00
	l0.00 -0.22c-3.87 -6.65 -16.77 -6.65 -20.64 0.22"/>
<path fill="currentColor"
	d="M379.93 96.01c4.44 -5.01 23.74 -5.01 28.18 -0.00
	l0.00 -0.23c-5.28 -6.78 -22.89 -6.78 -28.18 0.23"/>
</g>
</svg>
