<?xml version="1.0" standalone="no"?>
<!DOCTYPE svg PUBLIC "-//W3C//DTD SVG 1.1//EN"
	"http://www.w3.org/Graphics/SVG/1.1/DTD/svg11.dtd">
<svg xmlns="http://www.w3.org/2000/svg" version="1.1"
	xmlns:xlink="http://www.w3.org/1999/xlink"
	xml:space='preserve' color="black"
	width="7.38in" height="1.34in" viewBox="0 0 531 97">
<title>2461.abc (2461) tune 1</title>
<!-- Creator: abcm2ps-7.8.14 -->
<!-- CreationDate: Mar 13, 2016 18:54 -->
<!-- CommandLine: -qxg 2461.abc -O ../svgs/2461.svg -->
<g transform="scale(0.750)" stroke-width="0.70" font-family="Times" font-size="20.00">
<text x="354.13" y="21.67" text-anchor="middle">2461.  Quartet in C, Op. 20, No. 2, 2nd. Mvt., 2nd. Theme</text>
</g>
<g transform="scale(0.750)" stroke-width="0.70" font-family="Times" font-size="14.00" font-style="italic">
<text x="694.93" y="45.34" text-anchor="end">Franz Josef Haydn</text>
</g>
<g transform="scale(0.525)" stroke-width="0.70" font-family="Times" font-size="14.00" font-style="italic">
<defs>
<ellipse id="hd" rx="4.1" ry="2.9"
	transform="rotate(-20)" fill="currentColor"/>
</defs>
<use x="123.47" y="94.16" xlink:href="#hd"/>
<path d="M126.97 94.16v-20.00" stroke="currentColor" fill="none"/>
</g>
<g transform="scale(0.750)" stroke-width="0.70" font-family="Times" font-size="15.00" font-weight="bold">
<text x="94.13" y="68.01">= 120</text>
<path stroke="currentColor" fill="none"
	d="M217.23 106.01v-24.00"/>
<path stroke="currentColor" fill="none"
	d="M423.93 106.01v-24.00"/>
<path stroke="currentColor" fill="none"
	d="M596.23 106.01v-24.00"/>
<path stroke="currentColor" fill="none"
	d="M13.33 106.01h681.60m-681.60 -6h681.60m-681.60 -6h681.60m-681.60 -6h681.60m-681.60 -6h681.60"/>
<defs>
<path id="utclef" fill="currentColor" d="m-50 -90
	c-72 -41 -72 -158 52 -188
	c150 -10 220 188 90 256
	c-114 52 -275 0 -293 -136
	c-15 -181 93 -229 220 -334
	c88 -87 79 -133 62 -210
	c-51 33 -94 105 -89 186
	c17 267 36 374 49 574
	c6 96 -19 134 -77 135
	c-80 1 -126 -93 -61 -133
	c85 -41 133 101 31 105
	c23 17 92 37 90 -92
	c-10 -223 -39 -342 -50 -617
	c0 -90 0 -162 96 -232
	c56 72 63 230 22 289
	c-74 106 -257 168 -255 316
	c9 153 148 185 252 133
	c86 -65 29 -192 -80 -176
	c-71 12 -105 67 -59 124"/>
<use id="tclef" transform="scale(0.045)"
	xlink:href="#utclef"/>
</defs>
<use x="25.33" y="106.01" xlink:href="#tclef"/>
<defs>
<path id="uflat" fill="currentColor" d="
	m100 -746
	h32
	v734
	l-32 4
	m32 -332
	c46 -72 152 -90 208 -20
	c100 110 -120 326 -208 348
	m0 -28
	c54 0 200 -206 130 -290
	c-50 -60 -130 -4 -130 34"/>
<use id="ft0" transform="translate(-3.5,3.5) scale(0.018)"
	xlink:href="#uflat"/>
</defs>
<use x="40.33" y="94.01" xlink:href="#ft0"/>
<use x="45.83" y="85.01" xlink:href="#ft0"/>
<use x="51.33" y="97.01" xlink:href="#ft0"/>
<g font-family="serif" font-size="16" font-weight="bold" font-style="normal"
	transform="translate(67.33,106.01) scale(1.2,1)">
	<text y="-1" text-anchor="middle">4</text>
	<text y="-13" text-anchor="middle">4</text>
</g>
<defs>
<path id="Hd" fill="currentColor" d="m3 -1.6
	c-1 -1.8 -7 1.4 -6 3.2
	c1 1.8 7 -1.4 6 -3.2
	m0.5 -0.3
	c2 3.8 -5 7.6 -7 3.8
	c-2 -3.8 5 -7.6 7 -3.8"/>
</defs>
<use x="85.83" y="94.01" xlink:href="#Hd"/>
<path d="M82.33 94.01v20.00" stroke="currentColor" fill="none"/>
<use x="136.13" y="79.01" xlink:href="#hd"/>
<path d="M132.63 79.01v20.00" stroke="currentColor" fill="none"/>
<use x="171.73" y="82.01" xlink:href="#hd"/>
<path d="M168.23 82.01v20.00" stroke="currentColor" fill="none"/>
<path fill="currentColor"
	d="M168.23 102.01c0.6 -5.6 9.6 -9 5.6 -18.4
	c1.6 6 -1.3 11.6 -5.6 12.8
"/>
<use x="196.93" y="85.01" xlink:href="#hd"/>
<path d="M193.43 85.01v20.00" stroke="currentColor" fill="none"/>
<path fill="currentColor"
	d="M193.43 105.01c0.6 -5.6 9.6 -9 5.6 -18.4
	c1.6 6 -1.3 11.6 -5.6 12.8
"/>
<use x="230.03" y="88.01" xlink:href="#hd"/>
<path d="M226.53 88.01v20.00" stroke="currentColor" fill="none"/>
<path fill="currentColor"
	d="M261.73 113.01l35.10 0.00v-3.20l-35.10 -0.00"/>
<path fill="currentColor"
	d="M262.13 108.01l34.40 0.00v-3.20l-34.40 -0.00"/>
<path fill="currentColor"
	d="M262.13 103.01l34.40 0.00v-3.20l-34.40 -0.00"/>
<use x="265.63" y="88.01" xlink:href="#hd"/>
<path d="M262.13 88.01v24.00" stroke="currentColor" fill="none"/>
<use x="277.03" y="85.01" xlink:href="#hd"/>
<path d="M273.53 85.01v27.00" stroke="currentColor" fill="none"/>
<use x="288.53" y="88.01" xlink:href="#hd"/>
<path d="M285.03 88.01v24.00" stroke="currentColor" fill="none"/>
<use x="300.03" y="85.01" xlink:href="#hd"/>
<path d="M296.53 85.01v27.00" stroke="currentColor" fill="none"/>
<path fill="currentColor"
	d="M308.93 113.01l35.10 0.00v-3.20l-35.10 -0.00"/>
<path fill="currentColor"
	d="M309.23 108.01l34.40 0.00v-3.20l-34.40 -0.00"/>
<path fill="currentColor"
	d="M309.23 103.01l34.40 0.00v-3.20l-34.40 -0.00"/>
<use x="312.73" y="88.01" xlink:href="#hd"/>
<path d="M309.23 88.01v24.00" stroke="currentColor" fill="none"/>
<use x="324.23" y="85.01" xlink:href="#hd"/>
<path d="M320.73 85.01v27.00" stroke="currentColor" fill="none"/>
<use x="335.63" y="85.01" xlink:href="#hd"/>
<path d="M332.13 85.01v27.00" stroke="currentColor" fill="none"/>
<use x="347.13" y="82.01" xlink:href="#hd"/>
<path d="M343.63 82.01v30.00" stroke="currentColor" fill="none"/>
<use x="359.83" y="85.01" xlink:href="#hd"/>
<path d="M356.33 85.01v20.00" stroke="currentColor" fill="none"/>
<defs>
<path id="r4" fill="currentColor" d="m-1 -8.5
	l3.6 5.1 -2.1 5.2 2.2 4.3
	c-2.6 -2.3 -5.1 0 -2.4 2.6
	c-4.8 -3 -1.5 -6.9 1.4 -4.1
	l-3.1 -4.5 1.9 -5.1 -1.5 -3.5"/>
</defs>
<use x="395.43" y="94.01" xlink:href="#r4"/>
<defs>
<path id="hl" stroke="currentColor" d="m-6 0h12"/>
</defs>
<use x="436.93" y="76.01" xlink:href="#hl"/>
<use x="436.93" y="70.01" xlink:href="#hl"/>
<use x="436.93" y="70.01" xlink:href="#Hd"/>
<path d="M433.43 70.01v24.00" stroke="currentColor" fill="none"/>
<use x="487.33" y="76.01" xlink:href="#hl"/>
<use x="487.33" y="73.01" xlink:href="#hd"/>
<path d="M483.83 73.01v21.00" stroke="currentColor" fill="none"/>
<path fill="currentColor"
	d="M483.83 94.01c0.6 -5.6 9.6 -9 5.6 -18.4
	c1.6 6 -1.3 11.6 -5.6 12.8
"/>
<use x="512.53" y="76.01" xlink:href="#hl"/>
<use x="512.53" y="70.01" xlink:href="#hl"/>
<use x="512.53" y="64.01" xlink:href="#hl"/>
<use x="512.53" y="58.01" xlink:href="#hl"/>
<use x="512.53" y="58.01" xlink:href="#hd"/>
<path d="M509.03 58.01v36.00" stroke="currentColor" fill="none"/>
<path fill="currentColor"
	d="M509.03 94.01c0.6 -5.6 9.6 -9 5.6 -18.4
	c1.6 6 -1.3 11.6 -5.6 12.8
"/>
<defs>
<path id="r8e" fill="currentColor" d="m 0 0
	c-1.5 1.5 -2.4 2 -3.6 2
	c2.4 -2.8 -2.8 -4 -2.8 -1.2
	c0 2.7 4.3 2.4 5.9 0.6"/>
<g id="r32">
	<path d="m4.8 -10l-5.5 21.6" stroke="currentColor" fill="none"/>
	<use x="4.9" y="-10" xlink:href="#r8e"/>
	<use x="3.4" y="-4" xlink:href="#r8e"/>
	<use x="1.9" y="2" xlink:href="#r8e"/>
</g>
</defs>
<use x="535.33" y="94.01" xlink:href="#r32"/>
<use x="548.03" y="76.01" xlink:href="#hl"/>
<use x="548.03" y="70.01" xlink:href="#hl"/>
<use x="548.03" y="64.01" xlink:href="#hl"/>
<use x="548.03" y="64.01" xlink:href="#hd"/>
<circle fill="currentColor" cx="556.03" cy="61.01" r="1.2"/>
<path d="M544.53 64.01v30.00" stroke="currentColor" fill="none"/>
<path fill="currentColor"
	d="M544.53 94.01c0.9 -3.7 9.1 -6.4 6 -12.4
	c1 5.4 -4.2 8.4 -6 8.4
M544.53 88.61c0.9 -3.7 9.1 -6.4 6 -12.4
	c1 5.4 -4.2 8.4 -6 8.4
"/>
<use x="566.53" y="94.01" xlink:href="#r32"/>
<use x="579.23" y="76.01" xlink:href="#hl"/>
<use x="579.23" y="70.01" xlink:href="#hl"/>
<use x="579.23" y="70.01" xlink:href="#hd"/>
<circle fill="currentColor" cx="587.23" cy="67.01" r="1.2"/>
<path d="M575.73 70.01v24.00" stroke="currentColor" fill="none"/>
<path fill="currentColor"
	d="M575.73 94.01c0.9 -3.7 9.1 -6.4 6 -12.4
	c1 5.4 -4.2 8.4 -6 8.4
M575.73 88.61c0.9 -3.7 9.1 -6.4 6 -12.4
	c1 5.4 -4.2 8.4 -6 8.4
"/>
<use x="609.23" y="76.01" xlink:href="#hl"/>
<use x="609.23" y="76.01" xlink:href="#Hd"/>
<path d="M605.73 76.01v20.00" stroke="currentColor" fill="none"/>
<use x="659.53" y="79.01" xlink:href="#hd"/>
<path d="M656.03 79.01v20.00" stroke="currentColor" fill="none"/>
</g>
</svg>
