<?xml version="1.0" standalone="no"?>
<!DOCTYPE svg PUBLIC "-//W3C//DTD SVG 1.1//EN"
	"http://www.w3.org/Graphics/SVG/1.1/DTD/svg11.dtd">
<svg xmlns="http://www.w3.org/2000/svg" version="1.1"
	xmlns:xlink="http://www.w3.org/1999/xlink"
	xml:space='preserve' color="black"
	width="7.38in" height="1.34in" viewBox="0 0 531 97">
<title>2478.abc (2478) tune 1</title>
<!-- Creator: abcm2ps-7.8.14 -->
<!-- CreationDate: Mar 13, 2016 18:54 -->
<!-- CommandLine: -qxg 2478.abc -O ../svgs/2478.svg -->
<g transform="scale(0.750)" stroke-width="0.70" font-family="Times" font-size="20.00">
<text x="354.13" y="21.67" text-anchor="middle">2478.  Quartet in C, Op. 33, No. 3, &quot;The Bird&quot;, 1st. Mvt., 1st. Theme</text>
</g>
<g transform="scale(0.750)" stroke-width="0.70" font-family="Times" font-size="14.00" font-style="italic">
<text x="694.93" y="45.34" text-anchor="end">Franz Josef Haydn</text>
</g>
<g transform="scale(0.525)" stroke-width="0.70" font-family="Times" font-size="14.00" font-style="italic">
<defs>
<ellipse id="hd" rx="4.1" ry="2.9"
	transform="rotate(-20)" fill="currentColor"/>
</defs>
<use x="91.33" y="94.16" xlink:href="#hd"/>
<path d="M94.83 94.16v-20.00" stroke="currentColor" fill="none"/>
</g>
<g transform="scale(0.750)" stroke-width="0.70" font-family="Times" font-size="15.00" font-weight="bold">
<text x="71.63" y="68.01">= 120</text>
<path stroke="currentColor" fill="none"
	d="M131.93 106.01v-24.00"/>
<path stroke="currentColor" fill="none"
	d="M316.63 106.01v-24.00"/>
<path stroke="currentColor" fill="none"
	d="M557.53 106.01v-24.00"/>
<path stroke="currentColor" fill="none"
	d="M13.33 106.01h681.60m-681.60 -6h681.60m-681.60 -6h681.60m-681.60 -6h681.60m-681.60 -6h681.60"/>
<defs>
<path id="utclef" fill="currentColor" d="m-50 -90
	c-72 -41 -72 -158 52 -188
	c150 -10 220 188 90 256
	c-114 52 -275 0 -293 -136
	c-15 -181 93 -229 220 -334
	c88 -87 79 -133 62 -210
	c-51 33 -94 105 -89 186
	c17 267 36 374 49 574
	c6 96 -19 134 -77 135
	c-80 1 -126 -93 -61 -133
	c85 -41 133 101 31 105
	c23 17 92 37 90 -92
	c-10 -223 -39 -342 -50 -617
	c0 -90 0 -162 96 -232
	c56 72 63 230 22 289
	c-74 106 -257 168 -255 316
	c9 153 148 185 252 133
	c86 -65 29 -192 -80 -176
	c-71 12 -105 67 -59 124"/>
<use id="tclef" transform="scale(0.045)"
	xlink:href="#utclef"/>
</defs>
<use x="25.33" y="106.01" xlink:href="#tclef"/>
<g font-family="serif" font-size="16" font-weight="bold" font-style="normal"
	transform="translate(43.83,106.01) scale(1.2,1)">
	<text y="-1" text-anchor="middle">4</text>
	<text y="-13" text-anchor="middle">4</text>
</g>
<defs>
<path id="HD" fill="currentColor" d="m-2.7 -1.4
	c1.5 -2.8 6.9 0 5.3 2.7
	c-1.5 2.8 -6.9 0 -5.3 -2.7
	m8.3 1.4
	c0 -1.5 -2.2 -3 -5.6 -3
	c-3.4 0 -5.6 1.5 -5.6 3
	c0 1.5 2.2 3 5.6 3
	c3.4 0 5.6 -1.5 5.6 -3"/>
</defs>
<use x="64.33" y="79.01" xlink:href="#HD"/>
<defs>
<path id="r8e" fill="currentColor" d="m 0 0
	c-1.5 1.5 -2.4 2 -3.6 2
	c2.4 -2.8 -2.8 -4 -2.8 -1.2
	c0 2.7 4.3 2.4 5.9 0.6"/>
<g id="r32">
	<path d="m4.8 -10l-5.5 21.6" stroke="currentColor" fill="none"/>
	<use x="4.9" y="-10" xlink:href="#r8e"/>
	<use x="3.4" y="-4" xlink:href="#r8e"/>
	<use x="1.9" y="2" xlink:href="#r8e"/>
</g>
</defs>
<use x="147.13" y="94.01" xlink:href="#r32"/>
<use x="162.33" y="79.01" xlink:href="#hd"/>
<circle fill="currentColor" cx="170.33" cy="79.01" r="1.2"/>
<path d="M158.83 79.01v20.00" stroke="currentColor" fill="none"/>
<use x="211.13" y="79.01" xlink:href="#hd"/>
<circle fill="currentColor" cx="219.13" cy="79.01" r="1.2"/>
<path d="M207.63 79.01v22.00" stroke="currentColor" fill="none"/>
<path fill="currentColor"
	d="M207.63 101.01c0.9 -3.7 9.1 -6.4 6 -12.4
	c1 5.4 -4.2 8.4 -6 8.4
M207.63 95.61c0.9 -3.7 9.1 -6.4 6 -12.4
	c1 5.4 -4.2 8.4 -6 8.4
"/>
<use x="233.13" y="94.01" xlink:href="#r32"/>
<use x="248.33" y="79.01" xlink:href="#hd"/>
<circle fill="currentColor" cx="256.33" cy="79.01" r="1.2"/>
<path d="M244.83 79.01v20.00" stroke="currentColor" fill="none"/>
<use x="297.13" y="79.01" xlink:href="#hd"/>
<circle fill="currentColor" cx="305.13" cy="79.01" r="1.2"/>
<path d="M293.63 79.01v22.00" stroke="currentColor" fill="none"/>
<path fill="currentColor"
	d="M293.63 101.01c0.9 -3.7 9.1 -6.4 6 -12.4
	c1 5.4 -4.2 8.4 -6 8.4
M293.63 95.61c0.9 -3.7 9.1 -6.4 6 -12.4
	c1 5.4 -4.2 8.4 -6 8.4
"/>
<use x="331.83" y="94.01" xlink:href="#r32"/>
<use x="345.53" y="94.01" xlink:href="#r32"/>
<defs>
<path id="Hd" fill="currentColor" d="m3 -1.6
	c-1 -1.8 -7 1.4 -6 3.2
	c1 1.8 7 -1.4 6 -3.2
	m0.5 -0.3
	c2 3.8 -5 7.6 -7 3.8
	c-2 -3.8 5 -7.6 7 -3.8"/>
</defs>
<use x="360.63" y="79.01" xlink:href="#Hd"/>
<path d="M357.13 79.01v20.00" stroke="currentColor" fill="none"/>
<use x="421.33" y="79.01" xlink:href="#hd"/>
<path d="M417.83 79.01v22.00" stroke="currentColor" fill="none"/>
<path fill="currentColor"
	d="M417.83 101.01c0.9 -3.7 9.1 -6.4 6 -12.4
	c1 5.4 -4.2 8.4 -6 8.4
M417.83 95.61c0.9 -3.7 9.1 -6.4 6 -12.4
	c1 5.4 -4.2 8.4 -6 8.4
"/>
<path fill="currentColor"
	d="M439.03 107.31l20.00 -3.80v-3.20l-20.00 3.80"/>
<path fill="currentColor"
	d="M439.33 102.21l19.30 -3.70v-3.20l-19.30 3.70"/>
<use x="442.83" y="85.01" xlink:href="#hd"/>
<path d="M439.33 85.01v21.20" stroke="currentColor" fill="none"/>
<use x="462.13" y="79.01" xlink:href="#hd"/>
<path d="M458.63 79.01v23.50" stroke="currentColor" fill="none"/>
<use x="481.43" y="94.01" xlink:href="#r32"/>
<use x="496.63" y="82.01" xlink:href="#hd"/>
<circle fill="currentColor" cx="504.63" cy="79.01" r="1.2"/>
<path d="M493.13 82.01v22.00" stroke="currentColor" fill="none"/>
<path fill="currentColor"
	d="M493.13 104.01c0.9 -3.7 9.1 -6.4 6 -12.4
	c1 5.4 -4.2 8.4 -6 8.4
M493.13 98.61c0.9 -3.7 9.1 -6.4 6 -12.4
	c1 5.4 -4.2 8.4 -6 8.4
"/>
<path fill="currentColor"
	d="M517.23 112.41l20.00 3.80v-3.20l-20.00 -3.80"/>
<path fill="currentColor"
	d="M517.53 107.51l19.30 3.70v-3.20l-19.30 -3.70"/>
<use x="521.03" y="88.01" xlink:href="#hd"/>
<path d="M517.53 88.01v23.50" stroke="currentColor" fill="none"/>
<use x="540.33" y="94.01" xlink:href="#hd"/>
<path d="M536.83 94.01v21.20" stroke="currentColor" fill="none"/>
<path fill="currentColor"
	d="M568.83 116.21l20.00 -2.40v-3.20l-20.00 2.40"/>
<path fill="currentColor"
	d="M569.13 111.21l19.30 -2.30v-3.20l-19.30 2.30"/>
<use x="572.63" y="94.01" xlink:href="#hd"/>
<path d="M569.13 94.01v21.20" stroke="currentColor" fill="none"/>
<use x="591.93" y="91.01" xlink:href="#hd"/>
<path d="M588.43 91.01v21.90" stroke="currentColor" fill="none"/>
<path fill="currentColor"
	d="M609.63 109.41l20.00 3.80v-3.20l-20.00 -3.80"/>
<path fill="currentColor"
	d="M609.93 104.51l19.30 3.70v-3.20l-19.30 -3.70"/>
<use x="613.43" y="85.01" xlink:href="#hd"/>
<path d="M609.93 85.01v23.50" stroke="currentColor" fill="none"/>
<use x="632.73" y="91.01" xlink:href="#hd"/>
<path d="M629.23 91.01v21.20" stroke="currentColor" fill="none"/>
<use x="652.03" y="100.01" xlink:href="#hd"/>
<path d="M655.53 100.01v-20.00" stroke="currentColor" fill="none"/>
<path fill="currentColor"
	d="M165.83 77.01c6.55 -5.25 35.28 -5.25 41.83 -0.00
	l0.00 -0.24c-7.81 -7.01 -34.02 -7.01 -41.83 0.24"/>
<path fill="currentColor"
	d="M251.83 77.01c6.55 -5.25 35.28 -5.25 41.83 -0.00
	l0.00 -0.24c-7.81 -7.01 -34.02 -7.01 -41.83 0.24"/>
<path fill="currentColor"
	d="M364.13 77.01c8.13 -5.47 45.57 -5.47 53.70 -0.00
	l0.00 -0.25c-9.74 -7.21 -43.96 -7.21 -53.70 0.25"/>
</g>
</svg>
