<?xml version="1.0" standalone="no"?>
<!DOCTYPE svg PUBLIC "-//W3C//DTD SVG 1.1//EN"
	"http://www.w3.org/Graphics/SVG/1.1/DTD/svg11.dtd">
<svg xmlns="http://www.w3.org/2000/svg" version="1.1"
	xmlns:xlink="http://www.w3.org/1999/xlink"
	xml:space='preserve' color="black"
	width="7.38in" height="1.34in" viewBox="0 0 531 97">
<title>2492.abc (2492) tune 1</title>
<!-- Creator: abcm2ps-7.8.14 -->
<!-- CreationDate: Mar 13, 2016 18:54 -->
<!-- CommandLine: -qxg 2492.abc -O ../svgs/2492.svg -->
<g transform="scale(0.750)" stroke-width="0.70" font-family="Times" font-size="20.00">
<text x="354.13" y="21.67" text-anchor="middle">2492.  Quartet in E Flat, Op. 50, No. 3, 4th. Mvt.</text>
</g>
<g transform="scale(0.750)" stroke-width="0.70" font-family="Times" font-size="14.00" font-style="italic">
<text x="694.93" y="45.34" text-anchor="end">Franz Josef Haydn</text>
</g>
<g transform="scale(0.525)" stroke-width="0.70" font-family="Times" font-size="14.00" font-style="italic">
<defs>
<ellipse id="hd" rx="4.1" ry="2.9"
	transform="rotate(-20)" fill="currentColor"/>
</defs>
<use x="122.76" y="94.16" xlink:href="#hd"/>
<path d="M126.26 94.16v-20.00" stroke="currentColor" fill="none"/>
</g>
<g transform="scale(0.750)" stroke-width="0.70" font-family="Times" font-size="15.00" font-weight="bold">
<text x="93.63" y="68.01">= 120</text>
<path stroke="currentColor" fill="none"
	d="M147.53 106.01v-24.00"/>
<path stroke="currentColor" fill="none"
	d="M264.63 106.01v-24.00"/>
<path stroke="currentColor" fill="none"
	d="M345.33 106.01v-24.00"/>
<path stroke="currentColor" fill="none"
	d="M462.43 106.01v-24.00"/>
<path stroke="currentColor" fill="none"
	d="M543.23 106.01v-24.00"/>
<path stroke="currentColor" fill="none"
	d="M619.13 106.01v-24.00"/>
<path stroke="currentColor" fill="none"
	d="M694.93 106.01v-24.00"/>
<path stroke="currentColor" fill="none"
	d="M13.33 106.01h681.60m-681.60 -6h681.60m-681.60 -6h681.60m-681.60 -6h681.60m-681.60 -6h681.60"/>
<defs>
<path id="utclef" fill="currentColor" d="m-50 -90
	c-72 -41 -72 -158 52 -188
	c150 -10 220 188 90 256
	c-114 52 -275 0 -293 -136
	c-15 -181 93 -229 220 -334
	c88 -87 79 -133 62 -210
	c-51 33 -94 105 -89 186
	c17 267 36 374 49 574
	c6 96 -19 134 -77 135
	c-80 1 -126 -93 -61 -133
	c85 -41 133 101 31 105
	c23 17 92 37 90 -92
	c-10 -223 -39 -342 -50 -617
	c0 -90 0 -162 96 -232
	c56 72 63 230 22 289
	c-74 106 -257 168 -255 316
	c9 153 148 185 252 133
	c86 -65 29 -192 -80 -176
	c-71 12 -105 67 -59 124"/>
<use id="tclef" transform="scale(0.045)"
	xlink:href="#utclef"/>
</defs>
<use x="25.33" y="106.01" xlink:href="#tclef"/>
<defs>
<path id="uflat" fill="currentColor" d="
	m100 -746
	h32
	v734
	l-32 4
	m32 -332
	c46 -72 152 -90 208 -20
	c100 110 -120 326 -208 348
	m0 -28
	c54 0 200 -206 130 -290
	c-50 -60 -130 -4 -130 34"/>
<use id="ft0" transform="translate(-3.5,3.5) scale(0.018)"
	xlink:href="#uflat"/>
</defs>
<use x="40.33" y="94.01" xlink:href="#ft0"/>
<use x="45.83" y="85.01" xlink:href="#ft0"/>
<use x="51.33" y="97.01" xlink:href="#ft0"/>
<g font-family="serif" font-size="16" font-weight="bold" font-style="normal"
	transform="translate(67.33,106.01) scale(1.2,1)">
	<text y="-1" text-anchor="middle">4</text>
	<text y="-13" text-anchor="middle">2</text>
</g>
<defs>
<path id="hl" stroke="currentColor" d="m-6 0h12"/>
</defs>
<use x="85.33" y="112.01" xlink:href="#hl"/>
<use x="85.33" y="115.01" xlink:href="#hd"/>
<path d="M88.83 115.01v-21.00" stroke="currentColor" fill="none"/>
<path fill="currentColor"
	d="	M88.83 94.01c0.6 5.6 9.6 9 5.6 18.4
	c1.6 -6 -1.3 -11.6 -5.6 -12.8
"/>
<use x="112.53" y="106.01" xlink:href="#hd"/>
<circle fill="currentColor" cx="120.53" cy="103.01" r="1.2"/>
<path d="M116.03 106.01v-20.00" stroke="currentColor" fill="none"/>
<use x="161.13" y="103.01" xlink:href="#hd"/>
<path d="M164.63 103.01v-20.00" stroke="currentColor" fill="none"/>
<path fill="currentColor"
	d="	M164.63 83.01c0.6 5.6 9.6 9 5.6 18.4
	c1.6 -6 -1.3 -11.6 -5.6 -12.8
"/>
<use x="188.43" y="100.01" xlink:href="#hd"/>
<path d="M191.93 100.01v-20.00" stroke="currentColor" fill="none"/>
<path fill="currentColor"
	d="	M191.93 80.01c0.6 5.6 9.6 9 5.6 18.4
	c1.6 -6 -1.3 -11.6 -5.6 -12.8
"/>
<use x="215.63" y="106.01" xlink:href="#hd"/>
<path d="M219.13 106.01v-20.00" stroke="currentColor" fill="none"/>
<path fill="currentColor"
	d="	M219.13 86.01c0.6 5.6 9.6 9 5.6 18.4
	c1.6 -6 -1.3 -11.6 -5.6 -12.8
"/>
<use x="242.83" y="106.01" xlink:href="#hd"/>
<path d="M246.33 106.01v-20.00" stroke="currentColor" fill="none"/>
<path fill="currentColor"
	d="	M246.33 86.01c0.6 5.6 9.6 9 5.6 18.4
	c1.6 -6 -1.3 -11.6 -5.6 -12.8
"/>
<use x="283.13" y="106.01" xlink:href="#hd"/>
<defs>
<path id="unat" fill="currentColor" d="
	m96 -750
	h-32
	v716
	l32 -8
	l182 -54
	v282
	h32
	v-706
	l-34 10
	l-180 50
	v-290
	m0 592
	v-190
	l182 -52
	v188"/>
<use id="nt0" transform="translate(-3,5) scale(0.018)"
	xlink:href="#unat"/>
</defs>
<use x="274.13" y="106.01" xlink:href="#nt0"/>
<path d="M286.63 106.01v-20.00" stroke="currentColor" fill="none"/>
<path fill="currentColor"
	d="	M286.63 86.01c0.6 5.6 9.6 9 5.6 18.4
	c1.6 -6 -1.3 -11.6 -5.6 -12.8
"/>
<use x="310.33" y="103.01" xlink:href="#hd"/>
<circle fill="currentColor" cx="318.33" cy="103.01" r="1.2"/>
<path d="M313.83 103.01v-20.00" stroke="currentColor" fill="none"/>
<use x="358.93" y="100.01" xlink:href="#hd"/>
<path d="M362.43 100.01v-20.00" stroke="currentColor" fill="none"/>
<path fill="currentColor"
	d="	M362.43 80.01c0.6 5.6 9.6 9 5.6 18.4
	c1.6 -6 -1.3 -11.6 -5.6 -12.8
"/>
<use x="386.23" y="97.01" xlink:href="#hd"/>
<path d="M389.73 97.01v-20.00" stroke="currentColor" fill="none"/>
<path fill="currentColor"
	d="	M389.73 77.01c0.6 5.6 9.6 9 5.6 18.4
	c1.6 -6 -1.3 -11.6 -5.6 -12.8
"/>
<use x="413.43" y="103.01" xlink:href="#hd"/>
<path d="M416.93 103.01v-20.00" stroke="currentColor" fill="none"/>
<path fill="currentColor"
	d="	M416.93 83.01c0.6 5.6 9.6 9 5.6 18.4
	c1.6 -6 -1.3 -11.6 -5.6 -12.8
"/>
<use x="440.63" y="103.01" xlink:href="#hd"/>
<path d="M444.13 103.01v-20.00" stroke="currentColor" fill="none"/>
<path fill="currentColor"
	d="	M444.13 83.01c0.6 5.6 9.6 9 5.6 18.4
	c1.6 -6 -1.3 -11.6 -5.6 -12.8
"/>
<use x="480.93" y="100.01" xlink:href="#hd"/>
<use x="471.93" y="100.01" xlink:href="#ft0"/>
<path d="M484.43 100.01v-20.00" stroke="currentColor" fill="none"/>
<path fill="currentColor"
	d="	M484.43 80.01c0.6 5.6 9.6 9 5.6 18.4
	c1.6 -6 -1.3 -11.6 -5.6 -12.8
"/>
<use x="508.33" y="100.01" xlink:href="#hd"/>
<circle fill="currentColor" cx="516.33" cy="97.01" r="1.2"/>
<use x="499.33" y="100.01" xlink:href="#nt0"/>
<path d="M511.83 100.01v-20.00" stroke="currentColor" fill="none"/>
<use x="556.93" y="94.01" xlink:href="#hd"/>
<path d="M560.43 94.01v-20.00" stroke="currentColor" fill="none"/>
<path fill="currentColor"
	d="	M560.43 74.01c0.6 5.6 9.6 9 5.6 18.4
	c1.6 -6 -1.3 -11.6 -5.6 -12.8
"/>
<use x="584.13" y="109.01" xlink:href="#hd"/>
<circle fill="currentColor" cx="592.13" cy="109.01" r="1.2"/>
<path d="M587.63 109.01v-20.00" stroke="currentColor" fill="none"/>
<use x="632.73" y="97.01" xlink:href="#hd"/>
<path d="M636.23 97.01v-20.00" stroke="currentColor" fill="none"/>
<path fill="currentColor"
	d="	M636.23 77.01c0.6 5.6 9.6 9 5.6 18.4
	c1.6 -6 -1.3 -11.6 -5.6 -12.8
"/>
<use x="659.93" y="100.01" xlink:href="#hd"/>
<circle fill="currentColor" cx="667.93" cy="97.01" r="1.2"/>
<path d="M663.43 100.01v-20.00" stroke="currentColor" fill="none"/>
</g>
</svg>
