<?xml version="1.0" standalone="no"?>
<!DOCTYPE svg PUBLIC "-//W3C//DTD SVG 1.1//EN"
	"http://www.w3.org/Graphics/SVG/1.1/DTD/svg11.dtd">
<svg xmlns="http://www.w3.org/2000/svg" version="1.1"
	xmlns:xlink="http://www.w3.org/1999/xlink"
	xml:space='preserve' color="black"
	width="7.38in" height="1.34in" viewBox="0 0 531 97">
<title>2552.abc (2552) tune 1</title>
<!-- Creator: abcm2ps-7.8.14 -->
<!-- CreationDate: Mar 13, 2016 18:54 -->
<!-- CommandLine: -qxg 2552.abc -O ../svgs/2552.svg -->
<g transform="scale(0.750)" stroke-width="0.70" font-family="Times" font-size="20.00">
<text x="354.13" y="21.67" text-anchor="middle">2552.  Quartet in B Flat, Op. 71, No. 1, 4th. Mvt.</text>
</g>
<g transform="scale(0.750)" stroke-width="0.70" font-family="Times" font-size="14.00" font-style="italic">
<text x="694.93" y="45.34" text-anchor="end">Franz Josef Haydn</text>
</g>
<g transform="scale(0.525)" stroke-width="0.70" font-family="Times" font-size="14.00" font-style="italic">
<defs>
<ellipse id="hd" rx="4.1" ry="2.9"
	transform="rotate(-20)" fill="currentColor"/>
</defs>
<use x="114.90" y="94.16" xlink:href="#hd"/>
<path d="M118.40 94.16v-20.00" stroke="currentColor" fill="none"/>
</g>
<g transform="scale(0.750)" stroke-width="0.70" font-family="Times" font-size="15.00" font-weight="bold">
<text x="88.13" y="68.01">= 120</text>
<path stroke="currentColor" fill="none"
	d="M167.93 106.01v-24.00"/>
<path stroke="currentColor" fill="none"
	d="M248.43 106.01v-24.00"/>
<path stroke="currentColor" fill="none"
	d="M349.33 106.01v-24.00"/>
<path stroke="currentColor" fill="none"
	d="M429.73 106.01v-24.00"/>
<path stroke="currentColor" fill="none"
	d="M577.13 106.01v-24.00"/>
<path stroke="currentColor" fill="none"
	d="M694.93 106.01v-24.00"/>
<path stroke="currentColor" fill="none"
	d="M13.33 106.01h681.60m-681.60 -6h681.60m-681.60 -6h681.60m-681.60 -6h681.60m-681.60 -6h681.60"/>
<defs>
<path id="utclef" fill="currentColor" d="m-50 -90
	c-72 -41 -72 -158 52 -188
	c150 -10 220 188 90 256
	c-114 52 -275 0 -293 -136
	c-15 -181 93 -229 220 -334
	c88 -87 79 -133 62 -210
	c-51 33 -94 105 -89 186
	c17 267 36 374 49 574
	c6 96 -19 134 -77 135
	c-80 1 -126 -93 -61 -133
	c85 -41 133 101 31 105
	c23 17 92 37 90 -92
	c-10 -223 -39 -342 -50 -617
	c0 -90 0 -162 96 -232
	c56 72 63 230 22 289
	c-74 106 -257 168 -255 316
	c9 153 148 185 252 133
	c86 -65 29 -192 -80 -176
	c-71 12 -105 67 -59 124"/>
<use id="tclef" transform="scale(0.045)"
	xlink:href="#utclef"/>
</defs>
<use x="25.33" y="106.01" xlink:href="#tclef"/>
<defs>
<path id="uflat" fill="currentColor" d="
	m100 -746
	h32
	v734
	l-32 4
	m32 -332
	c46 -72 152 -90 208 -20
	c100 110 -120 326 -208 348
	m0 -28
	c54 0 200 -206 130 -290
	c-50 -60 -130 -4 -130 34"/>
<use id="ft0" transform="translate(-3.5,3.5) scale(0.018)"
	xlink:href="#uflat"/>
</defs>
<use x="40.33" y="94.01" xlink:href="#ft0"/>
<use x="45.83" y="85.01" xlink:href="#ft0"/>
<g font-family="serif" font-size="16" font-weight="bold" font-style="normal"
	transform="translate(61.83,106.01) scale(1.2,1)">
	<text y="-1" text-anchor="middle">4</text>
	<text y="-13" text-anchor="middle">2</text>
</g>
<use x="79.83" y="103.01" xlink:href="#hd"/>
<path d="M83.33 103.01v-20.00" stroke="currentColor" fill="none"/>
<path fill="currentColor"
	d="	M83.33 83.01c0.6 5.6 9.6 9 5.6 18.4
	c1.6 -6 -1.3 -11.6 -5.6 -12.8
"/>
<use x="105.63" y="94.01" xlink:href="#hd"/>
<path d="M102.13 94.01v20.00" stroke="currentColor" fill="none"/>
<defs>
<path id="r8e" fill="currentColor" d="m 0 0
	c-1.5 1.5 -2.4 2 -3.6 2
	c2.4 -2.8 -2.8 -4 -2.8 -1.2
	c0 2.7 4.3 2.4 5.9 0.6"/>
<g id="r32">
	<path d="m4.8 -10l-5.5 21.6" stroke="currentColor" fill="none"/>
	<use x="4.9" y="-10" xlink:href="#r8e"/>
	<use x="3.4" y="-4" xlink:href="#r8e"/>
	<use x="1.9" y="2" xlink:href="#r8e"/>
</g>
</defs>
<use x="138.13" y="94.01" xlink:href="#r32"/>
<use x="150.93" y="91.01" xlink:href="#hd"/>
<circle fill="currentColor" cx="158.93" cy="91.01" r="1.2"/>
<path d="M147.43 91.01v22.00" stroke="currentColor" fill="none"/>
<path fill="currentColor"
	d="M147.43 113.01c0.9 -3.7 9.1 -6.4 6 -12.4
	c1 5.4 -4.2 8.4 -6 8.4
M147.43 107.61c0.9 -3.7 9.1 -6.4 6 -12.4
	c1 5.4 -4.2 8.4 -6 8.4
"/>
<path fill="currentColor"
	d="M177.13 116.21l17.00 -2.30v-3.20l-17.00 2.30"/>
<path fill="currentColor"
	d="M177.43 111.21l16.30 -2.20v-3.20l-16.30 2.20"/>
<use x="180.93" y="94.01" xlink:href="#hd"/>
<path d="M177.43 94.01v21.20" stroke="currentColor" fill="none"/>
<use x="197.23" y="91.01" xlink:href="#hd"/>
<path d="M193.73 91.01v22.00" stroke="currentColor" fill="none"/>
<use x="215.43" y="94.01" xlink:href="#hd"/>
<circle fill="currentColor" cx="223.43" cy="91.01" r="1.2"/>
<path d="M211.93 94.01v20.00" stroke="currentColor" fill="none"/>
<use x="261.43" y="91.01" xlink:href="#hd"/>
<path d="M257.93 91.01v20.00" stroke="currentColor" fill="none"/>
<path fill="currentColor"
	d="M257.93 111.01c0.6 -5.6 9.6 -9 5.6 -18.4
	c1.6 6 -1.3 11.6 -5.6 12.8
"/>
<use x="286.93" y="88.01" xlink:href="#hd"/>
<path d="M283.43 88.01v20.00" stroke="currentColor" fill="none"/>
<use x="319.43" y="94.01" xlink:href="#r32"/>
<use x="332.33" y="85.01" xlink:href="#hd"/>
<circle fill="currentColor" cx="340.33" cy="85.01" r="1.2"/>
<path d="M328.83 85.01v22.00" stroke="currentColor" fill="none"/>
<path fill="currentColor"
	d="M328.83 107.01c0.9 -3.7 9.1 -6.4 6 -12.4
	c1 5.4 -4.2 8.4 -6 8.4
M328.83 101.61c0.9 -3.7 9.1 -6.4 6 -12.4
	c1 5.4 -4.2 8.4 -6 8.4
"/>
<path fill="currentColor"
	d="M358.43 110.21l17.00 -2.30v-3.20l-17.00 2.30"/>
<path fill="currentColor"
	d="M358.73 105.21l16.30 -2.20v-3.20l-16.30 2.20"/>
<use x="362.23" y="88.01" xlink:href="#hd"/>
<path d="M358.73 88.01v21.20" stroke="currentColor" fill="none"/>
<use x="378.63" y="85.01" xlink:href="#hd"/>
<path d="M375.13 85.01v22.00" stroke="currentColor" fill="none"/>
<use x="396.73" y="82.01" xlink:href="#hd"/>
<circle fill="currentColor" cx="404.73" cy="79.01" r="1.2"/>
<path d="M393.23 82.01v20.00" stroke="currentColor" fill="none"/>
<path fill="currentColor"
	d="M438.93 94.21l17.10 0.00v-3.20l-17.10 -0.00"/>
<path fill="currentColor"
	d="M439.23 89.21l16.40 0.00v-3.20l-16.40 -0.00"/>
<defs>
<path id="hl" stroke="currentColor" d="m-6 0h12"/>
</defs>
<use x="442.73" y="76.01" xlink:href="#hl"/>
<use x="442.73" y="70.01" xlink:href="#hl"/>
<use x="442.73" y="67.01" xlink:href="#hd"/>
<path d="M439.23 67.01v26.20" stroke="currentColor" fill="none"/>
<use x="459.13" y="76.01" xlink:href="#hl"/>
<use x="459.13" y="70.01" xlink:href="#hl"/>
<use x="459.13" y="70.01" xlink:href="#hd"/>
<path d="M455.63 70.01v23.20" stroke="currentColor" fill="none"/>
<path fill="currentColor"
	d="M473.43 96.01l17.10 2.30v-3.20l-17.10 -2.30"/>
<path fill="currentColor"
	d="M473.73 91.01l16.40 2.20v-3.20l-16.40 -2.20"/>
<use x="477.23" y="76.01" xlink:href="#hl"/>
<use x="477.23" y="73.01" xlink:href="#hd"/>
<path d="M473.73 73.01v22.00" stroke="currentColor" fill="none"/>
<use x="493.63" y="76.01" xlink:href="#hl"/>
<use x="493.63" y="76.01" xlink:href="#hd"/>
<path d="M490.13 76.01v21.20" stroke="currentColor" fill="none"/>
<path fill="currentColor"
	d="M507.93 102.01l17.00 2.30v-3.20l-17.00 -2.30"/>
<path fill="currentColor"
	d="M508.23 97.01l16.30 2.20v-3.20l-16.30 -2.20"/>
<use x="511.73" y="79.01" xlink:href="#hd"/>
<path d="M508.23 79.01v22.00" stroke="currentColor" fill="none"/>
<use x="528.13" y="82.01" xlink:href="#hd"/>
<path d="M524.63 82.01v21.20" stroke="currentColor" fill="none"/>
<path fill="currentColor"
	d="M542.43 108.01l17.00 2.30v-3.20l-17.00 -2.30"/>
<path fill="currentColor"
	d="M542.73 103.01l16.30 2.20v-3.20l-16.30 -2.20"/>
<use x="546.23" y="85.01" xlink:href="#hd"/>
<path d="M542.73 85.01v22.00" stroke="currentColor" fill="none"/>
<use x="562.53" y="88.01" xlink:href="#hd"/>
<path d="M559.03 88.01v21.20" stroke="currentColor" fill="none"/>
<path fill="currentColor"
	d="M586.23 114.01l17.00 2.30v-3.20l-17.00 -2.30"/>
<path fill="currentColor"
	d="M586.63 109.01l16.30 2.20v-3.20l-16.30 -2.20"/>
<use x="590.13" y="91.01" xlink:href="#hd"/>
<path d="M586.63 91.01v22.00" stroke="currentColor" fill="none"/>
<use x="606.43" y="94.01" xlink:href="#hd"/>
<path d="M602.93 94.01v21.20" stroke="currentColor" fill="none"/>
<use x="622.73" y="97.01" xlink:href="#hd"/>
<path d="M626.23 97.01v-20.00" stroke="currentColor" fill="none"/>
<path fill="currentColor"
	d="	M626.23 77.01c0.6 5.6 9.6 9 5.6 18.4
	c1.6 -6 -1.3 -11.6 -5.6 -12.8
"/>
<use x="648.53" y="97.01" xlink:href="#hd"/>
<path d="M652.03 97.01v-20.00" stroke="currentColor" fill="none"/>
<path fill="currentColor"
	d="	M652.03 77.01c0.6 5.6 9.6 9 5.6 18.4
	c1.6 -6 -1.3 -11.6 -5.6 -12.8
"/>
<use x="674.23" y="97.01" xlink:href="#hd"/>
<path d="M677.73 97.01v-20.00" stroke="currentColor" fill="none"/>
<path fill="currentColor"
	d="	M677.73 77.01c0.6 5.6 9.6 9 5.6 18.4
	c1.6 -6 -1.3 -11.6 -5.6 -12.8
"/>
</g>
</svg>
