<?xml version="1.0" standalone="no"?>
<!DOCTYPE svg PUBLIC "-//W3C//DTD SVG 1.1//EN"
	"http://www.w3.org/Graphics/SVG/1.1/DTD/svg11.dtd">
<svg xmlns="http://www.w3.org/2000/svg" version="1.1"
	xmlns:xlink="http://www.w3.org/1999/xlink"
	xml:space='preserve' color="black"
	width="7.38in" height="1.34in" viewBox="0 0 531 97">
<title>2571.abc (2571) tune 1</title>
<!-- Creator: abcm2ps-7.8.14 -->
<!-- CreationDate: Mar 13, 2016 18:54 -->
<!-- CommandLine: -qxg 2571.abc -O ../svgs/2571.svg -->
<g transform="scale(0.750)" stroke-width="0.70" font-family="Times" font-size="20.00">
<text x="354.13" y="21.67" text-anchor="middle">2571.  Quartet in G Minor, Op. 74, No. 3, 3rd. Mvt., 1st. Theme</text>
</g>
<g transform="scale(0.750)" stroke-width="0.70" font-family="Times" font-size="14.00" font-style="italic">
<text x="694.93" y="45.34" text-anchor="end">Franz Josef Haydn</text>
</g>
<g transform="scale(0.525)" stroke-width="0.70" font-family="Times" font-size="14.00" font-style="italic">
<defs>
<ellipse id="hd" rx="4.1" ry="2.9"
	transform="rotate(-20)" fill="currentColor"/>
</defs>
<use x="107.04" y="94.16" xlink:href="#hd"/>
<path d="M110.54 94.16v-20.00" stroke="currentColor" fill="none"/>
</g>
<g transform="scale(0.750)" stroke-width="0.70" font-family="Times" font-size="15.00" font-weight="bold">
<text x="82.63" y="68.01">= 120</text>
<path stroke="currentColor" fill="none"
	d="M212.73 106.01v-24.00"/>
<path stroke="currentColor" fill="none"
	d="M368.73 106.01v-24.00"/>
<path stroke="currentColor" fill="none"
	d="M561.53 106.01v-24.00"/>
<path stroke="currentColor" fill="none"
	d="M13.33 106.01h681.60m-681.60 -6h681.60m-681.60 -6h681.60m-681.60 -6h681.60m-681.60 -6h681.60"/>
<defs>
<path id="utclef" fill="currentColor" d="m-50 -90
	c-72 -41 -72 -158 52 -188
	c150 -10 220 188 90 256
	c-114 52 -275 0 -293 -136
	c-15 -181 93 -229 220 -334
	c88 -87 79 -133 62 -210
	c-51 33 -94 105 -89 186
	c17 267 36 374 49 574
	c6 96 -19 134 -77 135
	c-80 1 -126 -93 -61 -133
	c85 -41 133 101 31 105
	c23 17 92 37 90 -92
	c-10 -223 -39 -342 -50 -617
	c0 -90 0 -162 96 -232
	c56 72 63 230 22 289
	c-74 106 -257 168 -255 316
	c9 153 148 185 252 133
	c86 -65 29 -192 -80 -176
	c-71 12 -105 67 -59 124"/>
<use id="tclef" transform="scale(0.045)"
	xlink:href="#utclef"/>
</defs>
<use x="25.33" y="106.01" xlink:href="#tclef"/>
<defs>
<path id="usharp" fill="currentColor" d="
	m136 -702
	v890
	h32
	v-890
	m128 840
	h32
	v-888
	h-32
	m-232 286
	v116
	l338 -96
	v-116
	m-338 442
	v116
	l338 -98
	v-114"/>
<use id="sh0" transform="translate(-4,5) scale(0.018)"
	xlink:href="#usharp"/>
</defs>
<use x="40.33" y="82.01" xlink:href="#sh0"/>
<g font-family="serif" font-size="16" font-weight="bold" font-style="normal"
	transform="translate(56.33,106.01) scale(1.2,1)">
	<text y="-1" text-anchor="middle">4</text>
	<text y="-13" text-anchor="middle">3</text>
</g>
<use x="74.33" y="85.01" xlink:href="#hd"/>
<path d="M70.83 85.01v20.00" stroke="currentColor" fill="none"/>
<use x="123.73" y="88.01" xlink:href="#hd"/>
<path d="M120.23 88.01v20.00" stroke="currentColor" fill="none"/>
<use x="173.23" y="91.01" xlink:href="#hd"/>
<path d="M169.73 91.01v20.00" stroke="currentColor" fill="none"/>
<use x="230.23" y="94.01" xlink:href="#hd"/>
<path d="M233.73 94.01v-20.00" stroke="currentColor" fill="none"/>
<use x="279.73" y="97.01" xlink:href="#hd"/>
<path d="M283.23 97.01v-20.00" stroke="currentColor" fill="none"/>
<use x="329.13" y="100.01" xlink:href="#hd"/>
<path d="M332.63 100.01v-20.00" stroke="currentColor" fill="none"/>
<use x="386.13" y="103.01" xlink:href="#hd"/>
<path d="M389.63 103.01v-20.00" stroke="currentColor" fill="none"/>
<use x="435.63" y="100.01" xlink:href="#hd"/>
<path d="M439.13 100.01v-20.00" stroke="currentColor" fill="none"/>
<path fill="currentColor"
	d="	M439.13 80.01c0.6 5.6 9.6 9 5.6 18.4
	c1.6 -6 -1.3 -11.6 -5.6 -12.8
"/>
<path fill="currentColor"
	d="M473.73 79.01l63.60 0.00v3.20l-63.60 -0.00"/>
<use x="470.63" y="109.01" xlink:href="#hd"/>
<path d="M474.13 109.01v-29.00" stroke="currentColor" fill="none"/>
<use x="502.03" y="97.01" xlink:href="#hd"/>
<path d="M505.53 97.01v-17.00" stroke="currentColor" fill="none"/>
<use x="533.53" y="109.01" xlink:href="#hd"/>
<path d="M537.03 109.01v-29.00" stroke="currentColor" fill="none"/>
<path fill="currentColor"
	d="M582.23 74.71l32.20 7.80v3.20l-32.20 -7.80"/>
<use x="579.03" y="94.01" xlink:href="#hd"/>
<path d="M582.53 94.01v-18.20" stroke="currentColor" fill="none"/>
<use x="610.53" y="109.01" xlink:href="#hd"/>
<path d="M614.03 109.01v-25.50" stroke="currentColor" fill="none"/>
<use x="645.53" y="91.01" xlink:href="#hd"/>
<path d="M642.03 91.01v20.00" stroke="currentColor" fill="none"/>
</g>
</svg>
