<?xml version="1.0" standalone="no"?>
<!DOCTYPE svg PUBLIC "-//W3C//DTD SVG 1.1//EN"
	"http://www.w3.org/Graphics/SVG/1.1/DTD/svg11.dtd">
<svg xmlns="http://www.w3.org/2000/svg" version="1.1"
	xmlns:xlink="http://www.w3.org/1999/xlink"
	xml:space='preserve' color="black"
	width="7.38in" height="1.34in" viewBox="0 0 531 97">
<title>2577.abc (2577) tune 1</title>
<!-- Creator: abcm2ps-7.8.14 -->
<!-- CreationDate: Mar 13, 2016 18:54 -->
<!-- CommandLine: -qxg 2577.abc -O ../svgs/2577.svg -->
<g transform="scale(0.750)" stroke-width="0.70" font-family="Times" font-size="20.00">
<text x="354.13" y="21.67" text-anchor="middle">2577.  Quartet in G, Op. 76, No. 1, 2nd. Mvt.</text>
</g>
<g transform="scale(0.750)" stroke-width="0.70" font-family="Times" font-size="14.00" font-style="italic">
<text x="694.93" y="45.34" text-anchor="end">Franz Josef Haydn</text>
</g>
<g transform="scale(0.525)" stroke-width="0.70" font-family="Times" font-size="14.00" font-style="italic">
<defs>
<ellipse id="hd" rx="4.1" ry="2.9"
	transform="rotate(-20)" fill="currentColor"/>
</defs>
<use x="89.19" y="94.16" xlink:href="#hd"/>
<path d="M92.69 94.16v-20.00" stroke="currentColor" fill="none"/>
</g>
<g transform="scale(0.750)" stroke-width="0.70" font-family="Times" font-size="15.00" font-weight="bold">
<text x="70.13" y="68.01">= 120</text>
<path stroke="currentColor" fill="none"
	d="M133.83 106.01v-24.00"/>
<path stroke="currentColor" fill="none"
	d="M247.93 106.01v-24.00"/>
<path stroke="currentColor" fill="none"
	d="M369.63 106.01v-24.00"/>
<path stroke="currentColor" fill="none"
	d="M484.63 106.01v-24.00"/>
<path stroke="currentColor" fill="none"
	d="M13.33 106.01h525.40m-525.40 -6h525.40m-525.40 -6h525.40m-525.40 -6h525.40m-525.40 -6h525.40"/>
<defs>
<path id="utclef" fill="currentColor" d="m-50 -90
	c-72 -41 -72 -158 52 -188
	c150 -10 220 188 90 256
	c-114 52 -275 0 -293 -136
	c-15 -181 93 -229 220 -334
	c88 -87 79 -133 62 -210
	c-51 33 -94 105 -89 186
	c17 267 36 374 49 574
	c6 96 -19 134 -77 135
	c-80 1 -126 -93 -61 -133
	c85 -41 133 101 31 105
	c23 17 92 37 90 -92
	c-10 -223 -39 -342 -50 -617
	c0 -90 0 -162 96 -232
	c56 72 63 230 22 289
	c-74 106 -257 168 -255 316
	c9 153 148 185 252 133
	c86 -65 29 -192 -80 -176
	c-71 12 -105 67 -59 124"/>
<use id="tclef" transform="scale(0.045)"
	xlink:href="#utclef"/>
</defs>
<use x="25.33" y="106.01" xlink:href="#tclef"/>
<g font-family="serif" font-size="16" font-weight="bold" font-style="normal"
	transform="translate(43.83,106.01) scale(1.2,1)">
	<text y="-1" text-anchor="middle">4</text>
	<text y="-13" text-anchor="middle">2</text>
</g>
<use x="61.83" y="106.01" xlink:href="#hd"/>
<path d="M65.33 106.01v-20.00" stroke="currentColor" fill="none"/>
<use x="101.83" y="109.01" xlink:href="#hd"/>
<path d="M105.33 109.01v-20.00" stroke="currentColor" fill="none"/>
<path fill="currentColor"
	d="M151.13 87.81l29.70 0.00v3.20l-29.70 -0.00"/>
<path fill="currentColor"
	d="M174.43 92.81l6.00 0.00v3.20l-6.00 -0.00"/>
<defs>
<path id="hl" stroke="currentColor" d="m-6 0h12"/>
</defs>
<use x="147.93" y="112.01" xlink:href="#hl"/>
<use x="147.93" y="112.01" xlink:href="#hd"/>
<circle fill="currentColor" cx="155.93" cy="109.01" r="1.2"/>
<path d="M151.43 112.01v-23.20" stroke="currentColor" fill="none"/>
<use x="176.93" y="112.01" xlink:href="#hl"/>
<use x="176.93" y="112.01" xlink:href="#hd"/>
<defs>
<path id="usharp" fill="currentColor" d="
	m136 -702
	v890
	h32
	v-890
	m128 840
	h32
	v-888
	h-32
	m-232 286
	v116
	l338 -96
	v-116
	m-338 442
	v116
	l338 -98
	v-114"/>
<use id="sh0" transform="translate(-4,5) scale(0.018)"
	xlink:href="#usharp"/>
</defs>
<use x="167.93" y="112.01" xlink:href="#sh0"/>
<path d="M180.43 112.01v-23.20" stroke="currentColor" fill="none"/>
<use x="196.93" y="109.01" xlink:href="#hd"/>
<path d="M200.43 109.01v-20.00" stroke="currentColor" fill="none"/>
<path fill="currentColor"
	d="	M200.43 89.01c0.6 5.6 9.6 9 5.6 18.4
	c1.6 -6 -1.3 -11.6 -5.6 -12.8
"/>
<use x="225.23" y="106.01" xlink:href="#hd"/>
<path d="M228.73 106.01v-20.00" stroke="currentColor" fill="none"/>
<path fill="currentColor"
	d="	M228.73 86.01c0.6 5.6 9.6 9 5.6 18.4
	c1.6 -6 -1.3 -11.6 -5.6 -12.8
"/>
<use x="262.03" y="103.01" xlink:href="#hd"/>
<path d="M265.53 103.01v-20.00" stroke="currentColor" fill="none"/>
<path fill="currentColor"
	d="	M265.53 83.01c0.6 5.6 9.6 9 5.6 18.4
	c1.6 -6 -1.3 -11.6 -5.6 -12.8
"/>
<use x="290.33" y="97.01" xlink:href="#hd"/>
<path d="M293.83 97.01v-20.00" stroke="currentColor" fill="none"/>
<path fill="currentColor"
	d="	M293.83 77.01c0.6 5.6 9.6 9 5.6 18.4
	c1.6 -6 -1.3 -11.6 -5.6 -12.8
"/>
<use x="318.63" y="100.01" xlink:href="#hd"/>
<path d="M322.13 100.01v-20.00" stroke="currentColor" fill="none"/>
<path fill="currentColor"
	d="	M322.13 80.01c0.6 5.6 9.6 9 5.6 18.4
	c1.6 -6 -1.3 -11.6 -5.6 -12.8
"/>
<use x="346.93" y="103.01" xlink:href="#hd"/>
<path d="M350.43 103.01v-20.00" stroke="currentColor" fill="none"/>
<path fill="currentColor"
	d="	M350.43 83.01c0.6 5.6 9.6 9 5.6 18.4
	c1.6 -6 -1.3 -11.6 -5.6 -12.8
"/>
<defs>
<path id="r8e" fill="currentColor" d="m 0 0
	c-1.5 1.5 -2.4 2 -3.6 2
	c2.4 -2.8 -2.8 -4 -2.8 -1.2
	c0 2.7 4.3 2.4 5.9 0.6"/>
<g id="r32">
	<path d="m4.8 -10l-5.5 21.6" stroke="currentColor" fill="none"/>
	<use x="4.9" y="-10" xlink:href="#r8e"/>
	<use x="3.4" y="-4" xlink:href="#r8e"/>
	<use x="1.9" y="2" xlink:href="#r8e"/>
</g>
</defs>
<use x="383.73" y="94.01" xlink:href="#r32"/>
<path fill="currentColor"
	d="M399.63 81.01l29.70 0.00v3.20l-29.70 -0.00"/>
<path fill="currentColor"
	d="M422.93 86.01l6.00 0.00v3.20l-6.00 -0.00"/>
<path fill="currentColor"
	d="M422.93 91.01l6.00 0.00v3.20l-6.00 -0.00"/>
<use x="396.43" y="106.01" xlink:href="#hd"/>
<circle fill="currentColor" cx="404.43" cy="103.01" r="1.2"/>
<path d="M399.93 106.01v-24.00" stroke="currentColor" fill="none"/>
<use x="425.43" y="106.01" xlink:href="#hd"/>
<path d="M428.93 106.01v-24.00" stroke="currentColor" fill="none"/>
<path fill="currentColor"
	d="M442.73 86.01l29.70 0.00v3.20l-29.70 -0.00"/>
<path fill="currentColor"
	d="M466.13 91.01l6.00 0.00v3.20l-6.00 -0.00"/>
<use x="439.63" y="109.01" xlink:href="#hd"/>
<circle fill="currentColor" cx="447.63" cy="109.01" r="1.2"/>
<path d="M443.13 109.01v-22.00" stroke="currentColor" fill="none"/>
<use x="468.63" y="109.01" xlink:href="#hd"/>
<use x="459.63" y="109.01" xlink:href="#sh0"/>
<path d="M472.13 109.01v-22.00" stroke="currentColor" fill="none"/>
<use x="498.73" y="106.01" xlink:href="#hd"/>
<path d="M502.23 106.01v-20.00" stroke="currentColor" fill="none"/>
<path fill="currentColor"
	d="M399.93 106.01c3.46 4.90 18.52 4.90 21.98 -0.00
	l0.00 0.22c-4.12 6.67 -17.86 6.67 -21.98 -0.22"/>
</g>
</svg>
