<?xml version="1.0" standalone="no"?>
<!DOCTYPE svg PUBLIC "-//W3C//DTD SVG 1.1//EN"
	"http://www.w3.org/Graphics/SVG/1.1/DTD/svg11.dtd">
<svg xmlns="http://www.w3.org/2000/svg" version="1.1"
	xmlns:xlink="http://www.w3.org/1999/xlink"
	xml:space='preserve' color="black"
	width="7.38in" height="1.34in" viewBox="0 0 531 97">
<title>2610.abc (2610) tune 1</title>
<!-- Creator: abcm2ps-7.8.14 -->
<!-- CreationDate: Mar 13, 2016 18:54 -->
<!-- CommandLine: -qxg 2610.abc -O ../svgs/2610.svg -->
<g transform="scale(0.750)" stroke-width="0.70" font-family="Times" font-size="20.00">
<text x="354.13" y="21.67" text-anchor="middle">2610.  Quartet in E Flat, Op. 76, No. 6, 3rd. Mvt., 2nd. Theme</text>
</g>
<g transform="scale(0.750)" stroke-width="0.70" font-family="Times" font-size="14.00" font-style="italic">
<text x="694.93" y="45.34" text-anchor="end">Franz Josef Haydn</text>
</g>
<g transform="scale(0.525)" stroke-width="0.70" font-family="Times" font-size="14.00" font-style="italic">
<defs>
<ellipse id="hd" rx="4.1" ry="2.9"
	transform="rotate(-20)" fill="currentColor"/>
</defs>
<use x="122.76" y="94.16" xlink:href="#hd"/>
<path d="M126.26 94.16v-20.00" stroke="currentColor" fill="none"/>
</g>
<g transform="scale(0.750)" stroke-width="0.70" font-family="Times" font-size="15.00" font-weight="bold">
<text x="93.63" y="68.01">= 120</text>
<path stroke="currentColor" fill="none"
	d="M173.63 106.01v-24.00"/>
<path stroke="currentColor" fill="none"
	d="M276.43 106.01v-24.00"/>
<path stroke="currentColor" fill="none"
	d="M379.33 106.01v-24.00"/>
<path stroke="currentColor" fill="none"
	d="M482.23 106.01v-24.00"/>
<path stroke="currentColor" fill="none"
	d="M588.63 106.01v-24.00"/>
<path stroke="currentColor" fill="none"
	d="M694.93 106.01v-24.00"/>
<path stroke="currentColor" fill="none"
	d="M13.33 106.01h681.60m-681.60 -6h681.60m-681.60 -6h681.60m-681.60 -6h681.60m-681.60 -6h681.60"/>
<defs>
<path id="ubclef" fill="currentColor" d="m-200 -87
	c124 -35 222 -78 254 -236
	c43 -228 -167 -246 -192 -103
	c59 -80 157 22 92 78
	c-62 47 -115 -22 -106 -88
	c21 -141 270 -136 274 52
	c-1 175 -106 264 -322 297
	m357 -250
	c0 -36 51 -34 51 0
	c0 37 -51 36 -51 0
	m-2 -129
	c0 -36 51 -34 51 0
	c0 38 -51 37 -51 0"/>
<use id="bclef" transform="scale(0.045)"
	xlink:href="#ubclef"/>
</defs>
<use x="25.33" y="106.01" xlink:href="#bclef"/>
<defs>
<path id="uflat" fill="currentColor" d="
	m100 -746
	h32
	v734
	l-32 4
	m32 -332
	c46 -72 152 -90 208 -20
	c100 110 -120 326 -208 348
	m0 -28
	c54 0 200 -206 130 -290
	c-50 -60 -130 -4 -130 34"/>
<use id="ft0" transform="translate(-3.5,3.5) scale(0.018)"
	xlink:href="#uflat"/>
</defs>
<use x="40.33" y="100.01" xlink:href="#ft0"/>
<use x="45.83" y="91.01" xlink:href="#ft0"/>
<use x="51.33" y="103.01" xlink:href="#ft0"/>
<g font-family="serif" font-size="16" font-weight="bold" font-style="normal"
	transform="translate(67.33,106.01) scale(1.2,1)">
	<text y="-1" text-anchor="middle">4</text>
	<text y="-13" text-anchor="middle">3</text>
</g>
<use x="85.33" y="91.01" xlink:href="#hd"/>
<path d="M81.83 91.01v20.00" stroke="currentColor" fill="none"/>
<defs>
<path id="Hd" fill="currentColor" d="m3 -1.6
	c-1 -1.8 -7 1.4 -6 3.2
	c1 1.8 7 -1.4 6 -3.2
	m0.5 -0.3
	c2 3.8 -5 7.6 -7 3.8
	c-2 -3.8 5 -7.6 7 -3.8"/>
</defs>
<use x="126.73" y="94.01" xlink:href="#Hd"/>
<path d="M123.23 94.01v20.00" stroke="currentColor" fill="none"/>
<use x="188.23" y="97.01" xlink:href="#hd"/>
<path d="M191.73 97.01v-20.00" stroke="currentColor" fill="none"/>
<use x="229.63" y="100.01" xlink:href="#Hd"/>
<path d="M233.13 100.01v-20.00" stroke="currentColor" fill="none"/>
<use x="291.13" y="103.01" xlink:href="#hd"/>
<path d="M294.63 103.01v-20.00" stroke="currentColor" fill="none"/>
<use x="332.53" y="106.01" xlink:href="#Hd"/>
<path d="M336.03 106.01v-20.00" stroke="currentColor" fill="none"/>
<use x="394.03" y="109.01" xlink:href="#hd"/>
<path d="M397.53 109.01v-20.00" stroke="currentColor" fill="none"/>
<defs>
<path id="hl" stroke="currentColor" d="m-6 0h12"/>
</defs>
<use x="435.43" y="112.01" xlink:href="#hl"/>
<use x="435.43" y="112.01" xlink:href="#Hd"/>
<path d="M438.93 112.01v-20.00" stroke="currentColor" fill="none"/>
<use x="496.93" y="76.01" xlink:href="#hl"/>
<use x="496.93" y="76.01" xlink:href="#Hd"/>
<path d="M493.43 76.01v20.00" stroke="currentColor" fill="none"/>
<use x="555.53" y="79.01" xlink:href="#hd"/>
<path d="M552.03 79.01v20.00" stroke="currentColor" fill="none"/>
<use x="603.23" y="82.01" xlink:href="#Hd"/>
<path d="M599.73 82.01v20.00" stroke="currentColor" fill="none"/>
<use x="661.83" y="85.01" xlink:href="#hd"/>
<path d="M658.33 85.01v20.00" stroke="currentColor" fill="none"/>
</g>
</svg>
