<?xml version="1.0" standalone="no"?>
<!DOCTYPE svg PUBLIC "-//W3C//DTD SVG 1.1//EN"
	"http://www.w3.org/Graphics/SVG/1.1/DTD/svg11.dtd">
<svg xmlns="http://www.w3.org/2000/svg" version="1.1"
	xmlns:xlink="http://www.w3.org/1999/xlink"
	xml:space='preserve' color="black"
	width="7.38in" height="1.34in" viewBox="0 0 531 97">
<title>2702.abc (2702) tune 1</title>
<!-- Creator: abcm2ps-7.8.14 -->
<!-- CreationDate: Mar 13, 2016 18:54 -->
<!-- CommandLine: -qxg 2702.abc -O ../svgs/2702.svg -->
<g transform="scale(0.750)" stroke-width="0.70" font-family="Times" font-size="20.00">
<text x="354.13" y="21.67" text-anchor="middle">2702.  Intro Symphony in G, B. and H. No. 92, &quot;Oxford&quot; 1st. Mvt.</text>
</g>
<g transform="scale(0.750)" stroke-width="0.70" font-family="Times" font-size="14.00" font-style="italic">
<text x="694.93" y="45.34" text-anchor="end">Franz Josef Haydn</text>
</g>
<g transform="scale(0.525)" stroke-width="0.70" font-family="Times" font-size="14.00" font-style="italic">
<defs>
<ellipse id="hd" rx="4.1" ry="2.9"
	transform="rotate(-20)" fill="currentColor"/>
</defs>
<use x="107.04" y="94.16" xlink:href="#hd"/>
<path d="M110.54 94.16v-20.00" stroke="currentColor" fill="none"/>
</g>
<g transform="scale(0.750)" stroke-width="0.70" font-family="Times" font-size="15.00" font-weight="bold">
<text x="82.63" y="68.01">= 120</text>
<path stroke="currentColor" fill="none"
	d="M177.33 106.01v-24.00"/>
<path stroke="currentColor" fill="none"
	d="M225.03 106.01v-24.00"/>
<path stroke="currentColor" fill="none"
	d="M332.53 106.01v-24.00"/>
<path stroke="currentColor" fill="none"
	d="M416.23 106.01v-24.00"/>
<path stroke="currentColor" fill="none"
	d="M531.73 106.01v-24.00"/>
<path stroke="currentColor" fill="none"
	d="M579.43 106.01v-24.00"/>
<path stroke="currentColor" fill="none"
	d="M694.93 106.01v-24.00"/>
<path stroke="currentColor" fill="none"
	d="M13.33 106.01h681.60m-681.60 -6h681.60m-681.60 -6h681.60m-681.60 -6h681.60m-681.60 -6h681.60"/>
<defs>
<path id="utclef" fill="currentColor" d="m-50 -90
	c-72 -41 -72 -158 52 -188
	c150 -10 220 188 90 256
	c-114 52 -275 0 -293 -136
	c-15 -181 93 -229 220 -334
	c88 -87 79 -133 62 -210
	c-51 33 -94 105 -89 186
	c17 267 36 374 49 574
	c6 96 -19 134 -77 135
	c-80 1 -126 -93 -61 -133
	c85 -41 133 101 31 105
	c23 17 92 37 90 -92
	c-10 -223 -39 -342 -50 -617
	c0 -90 0 -162 96 -232
	c56 72 63 230 22 289
	c-74 106 -257 168 -255 316
	c9 153 148 185 252 133
	c86 -65 29 -192 -80 -176
	c-71 12 -105 67 -59 124"/>
<use id="tclef" transform="scale(0.045)"
	xlink:href="#utclef"/>
</defs>
<use x="25.33" y="106.01" xlink:href="#tclef"/>
<defs>
<path id="usharp" fill="currentColor" d="
	m136 -702
	v890
	h32
	v-890
	m128 840
	h32
	v-888
	h-32
	m-232 286
	v116
	l338 -96
	v-116
	m-338 442
	v116
	l338 -98
	v-114"/>
<use id="sh0" transform="translate(-4,5) scale(0.018)"
	xlink:href="#usharp"/>
</defs>
<use x="40.33" y="82.01" xlink:href="#sh0"/>
<g font-family="serif" font-size="16" font-weight="bold" font-style="normal"
	transform="translate(56.33,106.01) scale(1.2,1)">
	<text y="-1" text-anchor="middle">4</text>
	<text y="-13" text-anchor="middle">3</text>
</g>
<path fill="currentColor"
	d="M70.53 109.01l35.00 0.00v-3.20l-35.00 -0.00"/>
<use x="74.33" y="88.01" xlink:href="#hd"/>
<path d="M70.83 88.01v20.00" stroke="currentColor" fill="none"/>
<defs>
<path id="r8e" fill="currentColor" d="m 0 0
	c-1.5 1.5 -2.4 2 -3.6 2
	c2.4 -2.8 -2.8 -4 -2.8 -1.2
	c0 2.7 4.3 2.4 5.9 0.6"/>
<g id="r8">
	<path d="m3.3 -4l-3.4 9.6" stroke="currentColor" fill="none"/>
	<use x="3.4" y="-4" xlink:href="#r8e"/>
</g>
</defs>
<use x="91.53" y="94.01" xlink:href="#r8"/>
<use x="108.63" y="88.01" xlink:href="#hd"/>
<path d="M105.13 88.01v20.00" stroke="currentColor" fill="none"/>
<use x="125.83" y="94.01" xlink:href="#r8"/>
<use x="144.73" y="88.01" xlink:href="#hd"/>
<path d="M141.23 88.01v20.00" stroke="currentColor" fill="none"/>
<path fill="currentColor"
	d="M141.23 108.01c0.6 -5.6 9.6 -9 5.6 -18.4
	c1.6 6 -1.3 11.6 -5.6 12.8
"/>
<use x="161.93" y="94.01" xlink:href="#r8"/>
<defs>
<path id="Hd" fill="currentColor" d="m3 -1.6
	c-1 -1.8 -7 1.4 -6 3.2
	c1 1.8 7 -1.4 6 -3.2
	m0.5 -0.3
	c2 3.8 -5 7.6 -7 3.8
	c-2 -3.8 5 -7.6 7 -3.8"/>
</defs>
<use x="190.33" y="88.01" xlink:href="#Hd"/>
<circle fill="currentColor" cx="199.33" cy="85.01" r="1.2"/>
<path d="M186.83 88.01v20.00" stroke="currentColor" fill="none"/>
<use x="237.53" y="88.01" xlink:href="#hd"/>
<path d="M234.03 88.01v20.00" stroke="currentColor" fill="none"/>
<use x="263.93" y="91.01" xlink:href="#hd"/>
<path d="M260.43 91.01v20.00" stroke="currentColor" fill="none"/>
<path fill="currentColor"
	d="M260.43 111.01c0.6 -5.6 9.6 -9 5.6 -18.4
	c1.6 6 -1.3 11.6 -5.6 12.8
"/>
<path fill="currentColor"
	d="M279.03 118.31l35.00 -4.20v-3.20l-35.00 4.20"/>
<use x="282.83" y="94.01" xlink:href="#hd"/>
<path d="M279.33 94.01v23.30" stroke="currentColor" fill="none"/>
<use x="300.03" y="97.01" xlink:href="#hd"/>
<path d="M296.53 97.01v18.20" stroke="currentColor" fill="none"/>
<use x="317.13" y="85.01" xlink:href="#hd"/>
<path d="M313.63 85.01v28.10" stroke="currentColor" fill="none"/>
<use x="345.03" y="100.01" xlink:href="#hd"/>
<path d="M348.53 100.01v-20.00" stroke="currentColor" fill="none"/>
<use x="371.43" y="103.01" xlink:href="#hd"/>
<path d="M374.93 103.01v-20.00" stroke="currentColor" fill="none"/>
<path fill="currentColor"
	d="	M374.93 83.01c0.6 5.6 9.6 9 5.6 18.4
	c1.6 -6 -1.3 -11.6 -5.6 -12.8
"/>
<defs>
<path id="r4" fill="currentColor" d="m-1 -8.5
	l3.6 5.1 -2.1 5.2 2.2 4.3
	c-2.6 -2.3 -5.1 0 -2.4 2.6
	c-4.8 -3 -1.5 -6.9 1.4 -4.1
	l-3.1 -4.5 1.9 -5.1 -1.5 -3.5"/>
</defs>
<use x="391.23" y="94.01" xlink:href="#r4"/>
<circle fill="currentColor" cx="399.23" cy="91.01" r="1.2"/>
<path fill="currentColor"
	d="M424.93 112.21l35.00 0.00v-3.20l-35.00 -0.00"/>
<use x="428.73" y="91.01" xlink:href="#hd"/>
<path d="M425.23 91.01v20.20" stroke="currentColor" fill="none"/>
<use x="445.93" y="94.01" xlink:href="#r8"/>
<use x="463.03" y="91.01" xlink:href="#hd"/>
<path d="M459.53 91.01v20.20" stroke="currentColor" fill="none"/>
<use x="480.23" y="94.01" xlink:href="#r8"/>
<use x="499.13" y="91.01" xlink:href="#hd"/>
<path d="M495.63 91.01v20.00" stroke="currentColor" fill="none"/>
<path fill="currentColor"
	d="M495.63 111.01c0.6 -5.6 9.6 -9 5.6 -18.4
	c1.6 6 -1.3 11.6 -5.6 12.8
"/>
<use x="516.33" y="94.01" xlink:href="#r8"/>
<use x="544.73" y="91.01" xlink:href="#Hd"/>
<circle fill="currentColor" cx="553.73" cy="91.01" r="1.2"/>
<path d="M541.23 91.01v20.00" stroke="currentColor" fill="none"/>
<path fill="currentColor"
	d="M588.13 109.01l35.00 0.00v-3.20l-35.00 -0.00"/>
<use x="591.93" y="91.01" xlink:href="#hd"/>
<path d="M588.43 91.01v17.00" stroke="currentColor" fill="none"/>
<use x="609.13" y="85.01" xlink:href="#hd"/>
<path d="M605.63 85.01v23.00" stroke="currentColor" fill="none"/>
<use x="626.23" y="88.01" xlink:href="#hd"/>
<path d="M622.73 88.01v20.00" stroke="currentColor" fill="none"/>
<path fill="currentColor"
	d="M641.33 111.71l35.00 4.50v-3.20l-35.00 -4.50"/>
<use x="645.23" y="91.01" xlink:href="#hd"/>
<path d="M641.73 91.01v19.80" stroke="currentColor" fill="none"/>
<use x="662.33" y="94.01" xlink:href="#hd"/>
<path d="M658.83 94.01v19.00" stroke="currentColor" fill="none"/>
<use x="679.53" y="97.01" xlink:href="#hd"/>
<path d="M676.03 97.01v18.20" stroke="currentColor" fill="none"/>
<path fill="currentColor"
	d="M193.83 82.01c6.33 -5.22 33.86 -5.22 40.18 -0.00
	l0.00 -0.24c-7.53 -6.98 -32.65 -6.98 -40.18 0.24"/>
<path fill="currentColor"
	d="M548.23 89.01c6.33 -5.22 33.86 -5.22 40.18 -0.00
	l0.00 -0.24c-7.53 -6.98 -32.65 -6.98 -40.18 0.24"/>
</g>
</svg>
