<?xml version="1.0" standalone="no"?>
<!DOCTYPE svg PUBLIC "-//W3C//DTD SVG 1.1//EN"
	"http://www.w3.org/Graphics/SVG/1.1/DTD/svg11.dtd">
<svg xmlns="http://www.w3.org/2000/svg" version="1.1"
	xmlns:xlink="http://www.w3.org/1999/xlink"
	xml:space='preserve' color="black"
	width="7.38in" height="1.34in" viewBox="0 0 531 97">
<title>2713.abc (2713) tune 1</title>
<!-- Creator: abcm2ps-7.8.14 -->
<!-- CreationDate: Mar 13, 2016 18:54 -->
<!-- CommandLine: -qxg 2713.abc -O ../svgs/2713.svg -->
<g transform="scale(0.750)" stroke-width="0.70" font-family="Times" font-size="20.00">
<text x="354.13" y="21.67" text-anchor="middle">2713.  Symphony in D, B. and H. No. 93, 2nd. Mvt.</text>
</g>
<g transform="scale(0.750)" stroke-width="0.70" font-family="Times" font-size="14.00" font-style="italic">
<text x="694.93" y="45.34" text-anchor="end">Franz Josef Haydn</text>
</g>
<g transform="scale(0.525)" stroke-width="0.70" font-family="Times" font-size="14.00" font-style="italic">
<defs>
<ellipse id="hd" rx="4.1" ry="2.9"
	transform="rotate(-20)" fill="currentColor"/>
</defs>
<use x="107.04" y="94.16" xlink:href="#hd"/>
<path d="M110.54 94.16v-20.00" stroke="currentColor" fill="none"/>
</g>
<g transform="scale(0.750)" stroke-width="0.70" font-family="Times" font-size="15.00" font-weight="bold">
<text x="82.63" y="68.01">= 120</text>
<path stroke="currentColor" fill="none"
	d="M269.93 106.01v-24.00"/>
<path stroke="currentColor" fill="none"
	d="M517.53 106.01v-24.00"/>
<path stroke="currentColor" fill="none"
	d="M13.33 106.01h681.60m-681.60 -6h681.60m-681.60 -6h681.60m-681.60 -6h681.60m-681.60 -6h681.60"/>
<defs>
<path id="utclef" fill="currentColor" d="m-50 -90
	c-72 -41 -72 -158 52 -188
	c150 -10 220 188 90 256
	c-114 52 -275 0 -293 -136
	c-15 -181 93 -229 220 -334
	c88 -87 79 -133 62 -210
	c-51 33 -94 105 -89 186
	c17 267 36 374 49 574
	c6 96 -19 134 -77 135
	c-80 1 -126 -93 -61 -133
	c85 -41 133 101 31 105
	c23 17 92 37 90 -92
	c-10 -223 -39 -342 -50 -617
	c0 -90 0 -162 96 -232
	c56 72 63 230 22 289
	c-74 106 -257 168 -255 316
	c9 153 148 185 252 133
	c86 -65 29 -192 -80 -176
	c-71 12 -105 67 -59 124"/>
<use id="tclef" transform="scale(0.045)"
	xlink:href="#utclef"/>
</defs>
<use x="25.33" y="106.01" xlink:href="#tclef"/>
<defs>
<path id="usharp" fill="currentColor" d="
	m136 -702
	v890
	h32
	v-890
	m128 840
	h32
	v-888
	h-32
	m-232 286
	v116
	l338 -96
	v-116
	m-338 442
	v116
	l338 -98
	v-114"/>
<use id="sh0" transform="translate(-4,5) scale(0.018)"
	xlink:href="#usharp"/>
</defs>
<use x="40.33" y="82.01" xlink:href="#sh0"/>
<g font-family="serif" font-size="16" font-weight="bold" font-style="normal"
	transform="translate(56.33,106.01) scale(1.2,1)">
	<text y="-1" text-anchor="middle">4</text>
	<text y="-13" text-anchor="middle">4</text>
</g>
<use x="74.33" y="100.01" xlink:href="#hd"/>
<path d="M77.83 100.01v-20.00" stroke="currentColor" fill="none"/>
<use x="112.43" y="109.01" xlink:href="#hd"/>
<path d="M115.93 109.01v-20.00" stroke="currentColor" fill="none"/>
<path fill="currentColor"
	d="	M115.93 89.01c0.6 5.6 9.6 9 5.6 18.4
	c1.6 -6 -1.3 -11.6 -5.6 -12.8
"/>
<defs>
<path id="r8e" fill="currentColor" d="m 0 0
	c-1.5 1.5 -2.4 2 -3.6 2
	c2.4 -2.8 -2.8 -4 -2.8 -1.2
	c0 2.7 4.3 2.4 5.9 0.6"/>
<g id="r16">
	<path d="m3.3 -4l-4 15.6" stroke="currentColor" fill="none"/>
	<use x="3.4" y="-4" xlink:href="#r8e"/>
	<use x="1.9" y="2" xlink:href="#r8e"/>
</g>
</defs>
<use x="136.83" y="94.01" xlink:href="#r16"/>
<use x="155.93" y="94.01" xlink:href="#hd"/>
<path d="M152.43 94.01v22.00" stroke="currentColor" fill="none"/>
<path fill="currentColor"
	d="M152.43 116.01c0.9 -3.7 9.1 -6.4 6 -12.4
	c1 5.4 -4.2 8.4 -6 8.4
M152.43 110.61c0.9 -3.7 9.1 -6.4 6 -12.4
	c1 5.4 -4.2 8.4 -6 8.4
"/>
<use x="173.13" y="100.01" xlink:href="#hd"/>
<path d="M176.63 100.01v-20.00" stroke="currentColor" fill="none"/>
<use x="211.23" y="109.01" xlink:href="#hd"/>
<path d="M214.73 109.01v-20.00" stroke="currentColor" fill="none"/>
<path fill="currentColor"
	d="	M214.73 89.01c0.6 5.6 9.6 9 5.6 18.4
	c1.6 -6 -1.3 -11.6 -5.6 -12.8
"/>
<use x="235.53" y="94.01" xlink:href="#r16"/>
<use x="254.63" y="79.01" xlink:href="#hd"/>
<path d="M251.13 79.01v22.00" stroke="currentColor" fill="none"/>
<path fill="currentColor"
	d="M251.13 101.01c0.9 -3.7 9.1 -6.4 6 -12.4
	c1 5.4 -4.2 8.4 -6 8.4
M251.13 95.61c0.9 -3.7 9.1 -6.4 6 -12.4
	c1 5.4 -4.2 8.4 -6 8.4
"/>
<use x="283.53" y="88.01" xlink:href="#hd"/>
<path d="M280.03 88.01v20.00" stroke="currentColor" fill="none"/>
<path fill="currentColor"
	d="M317.83 118.91l37.20 0.00v-3.20l-37.20 -0.00"/>
<path fill="currentColor"
	d="M318.13 113.91l36.60 0.00v-3.20l-36.60 -0.00"/>
<path fill="currentColor"
	d="M318.13 108.91l36.60 0.00v-3.20l-36.60 -0.00"/>
<use x="321.63" y="91.01" xlink:href="#hd"/>
<path d="M318.13 91.01v27.00" stroke="currentColor" fill="none"/>
<use x="333.83" y="88.01" xlink:href="#hd"/>
<path d="M330.33 88.01v30.00" stroke="currentColor" fill="none"/>
<use x="346.03" y="91.01" xlink:href="#hd"/>
<path d="M342.53 91.01v27.00" stroke="currentColor" fill="none"/>
<use x="358.13" y="88.01" xlink:href="#hd"/>
<path d="M354.63 88.01v30.00" stroke="currentColor" fill="none"/>
<path fill="currentColor"
	d="M367.83 118.91l37.20 0.00v-3.20l-37.20 -0.00"/>
<path fill="currentColor"
	d="M368.23 113.91l36.60 0.00v-3.20l-36.60 -0.00"/>
<path fill="currentColor"
	d="M368.23 108.91l36.60 0.00v-3.20l-36.60 -0.00"/>
<use x="371.73" y="91.01" xlink:href="#hd"/>
<path d="M368.23 91.01v27.00" stroke="currentColor" fill="none"/>
<use x="383.93" y="88.01" xlink:href="#hd"/>
<path d="M380.43 88.01v30.00" stroke="currentColor" fill="none"/>
<use x="396.03" y="94.01" xlink:href="#hd"/>
<path d="M392.53 94.01v24.00" stroke="currentColor" fill="none"/>
<use x="408.23" y="91.01" xlink:href="#hd"/>
<path d="M404.73 91.01v27.00" stroke="currentColor" fill="none"/>
<use x="421.83" y="94.01" xlink:href="#hd"/>
<path d="M418.33 94.01v20.00" stroke="currentColor" fill="none"/>
<path fill="currentColor"
	d="M418.33 114.01c0.6 -5.6 9.6 -9 5.6 -18.4
	c1.6 6 -1.3 11.6 -5.6 12.8
"/>
<defs>
<path id="r4" fill="currentColor" d="m-1 -8.5
	l3.6 5.1 -2.1 5.2 2.2 4.3
	c-2.6 -2.3 -5.1 0 -2.4 2.6
	c-4.8 -3 -1.5 -6.9 1.4 -4.1
	l-3.1 -4.5 1.9 -5.1 -1.5 -3.5"/>
</defs>
<use x="448.73" y="94.01" xlink:href="#r4"/>
<use x="483.13" y="94.01" xlink:href="#r16"/>
<use x="502.23" y="85.01" xlink:href="#hd"/>
<path d="M498.73 85.01v22.00" stroke="currentColor" fill="none"/>
<path fill="currentColor"
	d="M498.73 107.01c0.9 -3.7 9.1 -6.4 6 -12.4
	c1 5.4 -4.2 8.4 -6 8.4
M498.73 101.61c0.9 -3.7 9.1 -6.4 6 -12.4
	c1 5.4 -4.2 8.4 -6 8.4
"/>
<use x="531.03" y="94.01" xlink:href="#hd"/>
<path d="M534.53 94.01v-20.00" stroke="currentColor" fill="none"/>
<use x="569.13" y="97.01" xlink:href="#hd"/>
<path d="M572.63 97.01v-20.00" stroke="currentColor" fill="none"/>
<path fill="currentColor"
	d="	M572.63 77.01c0.6 5.6 9.6 9 5.6 18.4
	c1.6 -6 -1.3 -11.6 -5.6 -12.8
"/>
<use x="593.53" y="94.01" xlink:href="#r16"/>
<use x="612.63" y="85.01" xlink:href="#hd"/>
<path d="M609.13 85.01v22.00" stroke="currentColor" fill="none"/>
<path fill="currentColor"
	d="M609.13 107.01c0.9 -3.7 9.1 -6.4 6 -12.4
	c1 5.4 -4.2 8.4 -6 8.4
M609.13 101.61c0.9 -3.7 9.1 -6.4 6 -12.4
	c1 5.4 -4.2 8.4 -6 8.4
"/>
<use x="629.83" y="97.01" xlink:href="#hd"/>
<path d="M633.33 97.01v-20.00" stroke="currentColor" fill="none"/>
<use x="667.93" y="100.01" xlink:href="#hd"/>
<path d="M671.43 100.01v-20.00" stroke="currentColor" fill="none"/>
<path fill="currentColor"
	d="	M671.43 80.01c0.6 5.6 9.6 9 5.6 18.4
	c1.6 -6 -1.3 -11.6 -5.6 -12.8
"/>
</g>
</svg>
