<?xml version="1.0" standalone="no"?>
<!DOCTYPE svg PUBLIC "-//W3C//DTD SVG 1.1//EN"
	"http://www.w3.org/Graphics/SVG/1.1/DTD/svg11.dtd">
<svg xmlns="http://www.w3.org/2000/svg" version="1.1"
	xmlns:xlink="http://www.w3.org/1999/xlink"
	xml:space='preserve' color="black"
	width="7.38in" height="1.34in" viewBox="0 0 531 97">
<title>2768.abc (2768) tune 1</title>
<!-- Creator: abcm2ps-7.8.14 -->
<!-- CreationDate: Mar 13, 2016 18:54 -->
<!-- CommandLine: -qxg 2768.abc -O ../svgs/2768.svg -->
<g transform="scale(0.750)" stroke-width="0.70" font-family="Times" font-size="20.00">
<text x="354.13" y="21.67" text-anchor="middle">2768.  Symphony in G, B. and H. No. 100, 4th. Mvt., 2nd. Theme, Pt. 1</text>
</g>
<g transform="scale(0.750)" stroke-width="0.70" font-family="Times" font-size="14.00" font-style="italic">
<text x="694.93" y="45.34" text-anchor="end">Franz Josef Haydn</text>
</g>
<g transform="scale(0.525)" stroke-width="0.70" font-family="Times" font-size="14.00" font-style="italic">
<defs>
<ellipse id="hd" rx="4.1" ry="2.9"
	transform="rotate(-20)" fill="currentColor"/>
</defs>
<use x="107.04" y="94.16" xlink:href="#hd"/>
<path d="M110.54 94.16v-20.00" stroke="currentColor" fill="none"/>
</g>
<g transform="scale(0.750)" stroke-width="0.70" font-family="Times" font-size="15.00" font-weight="bold">
<text x="82.63" y="68.01">= 120</text>
<path stroke="currentColor" fill="none"
	d="M207.93 106.01v-24.00"/>
<path stroke="currentColor" fill="none"
	d="M363.43 106.01v-24.00"/>
<path stroke="currentColor" fill="none"
	d="M13.33 106.01h421.60m-421.60 -6h421.60m-421.60 -6h421.60m-421.60 -6h421.60m-421.60 -6h421.60"/>
<defs>
<path id="ubclef" fill="currentColor" d="m-200 -87
	c124 -35 222 -78 254 -236
	c43 -228 -167 -246 -192 -103
	c59 -80 157 22 92 78
	c-62 47 -115 -22 -106 -88
	c21 -141 270 -136 274 52
	c-1 175 -106 264 -322 297
	m357 -250
	c0 -36 51 -34 51 0
	c0 37 -51 36 -51 0
	m-2 -129
	c0 -36 51 -34 51 0
	c0 38 -51 37 -51 0"/>
<use id="bclef" transform="scale(0.045)"
	xlink:href="#ubclef"/>
</defs>
<use x="25.33" y="106.01" xlink:href="#bclef"/>
<defs>
<path id="usharp" fill="currentColor" d="
	m136 -702
	v890
	h32
	v-890
	m128 840
	h32
	v-888
	h-32
	m-232 286
	v116
	l338 -96
	v-116
	m-338 442
	v116
	l338 -98
	v-114"/>
<use id="sh0" transform="translate(-4,5) scale(0.018)"
	xlink:href="#usharp"/>
</defs>
<use x="40.33" y="88.01" xlink:href="#sh0"/>
<g font-family="serif" font-size="16" font-weight="bold" font-style="normal"
	transform="translate(56.33,106.01) scale(1.2,1)">
	<text y="-1" text-anchor="middle">8</text>
	<text y="-13" text-anchor="middle">6</text>
</g>
<use x="74.33" y="94.01" xlink:href="#hd"/>
<path d="M70.83 94.01v20.00" stroke="currentColor" fill="none"/>
<defs>
<path id="r8e" fill="currentColor" d="m 0 0
	c-1.5 1.5 -2.4 2 -3.6 2
	c2.4 -2.8 -2.8 -4 -2.8 -1.2
	c0 2.7 4.3 2.4 5.9 0.6"/>
<g id="r8">
	<path d="m3.3 -4l-3.4 9.6" stroke="currentColor" fill="none"/>
	<use x="3.4" y="-4" xlink:href="#r8e"/>
</g>
</defs>
<use x="110.33" y="94.01" xlink:href="#r8"/>
<defs>
<path id="hl" stroke="currentColor" d="m-6 0h12"/>
</defs>
<use x="138.63" y="76.01" xlink:href="#hl"/>
<use x="138.63" y="73.01" xlink:href="#hd"/>
<path d="M135.13 73.01v21.00" stroke="currentColor" fill="none"/>
<use x="174.63" y="94.01" xlink:href="#r8"/>
<defs>
<path id="utclef" fill="currentColor" d="m-50 -90
	c-72 -41 -72 -158 52 -188
	c150 -10 220 188 90 256
	c-114 52 -275 0 -293 -136
	c-15 -181 93 -229 220 -334
	c88 -87 79 -133 62 -210
	c-51 33 -94 105 -89 186
	c17 267 36 374 49 574
	c6 96 -19 134 -77 135
	c-80 1 -126 -93 -61 -133
	c85 -41 133 101 31 105
	c23 17 92 37 90 -92
	c-10 -223 -39 -342 -50 -617
	c0 -90 0 -162 96 -232
	c56 72 63 230 22 289
	c-74 106 -257 168 -255 316
	c9 153 148 185 252 133
	c86 -65 29 -192 -80 -176
	c-71 12 -105 67 -59 124"/>
<use id="stclef" transform="translate(0,-0.6) scale(0.037)"
	xlink:href="#utclef"/>
</defs>
<use x="192.93" y="106.01" xlink:href="#stclef"/>
<defs>
<g id="r32">
	<path d="m4.8 -10l-5.5 21.6" stroke="currentColor" fill="none"/>
	<use x="4.9" y="-10" xlink:href="#r8e"/>
	<use x="3.4" y="-4" xlink:href="#r8e"/>
	<use x="1.9" y="2" xlink:href="#r8e"/>
</g>
</defs>
<use x="222.13" y="94.01" xlink:href="#r32"/>
<path fill="currentColor"
	d="M237.93 81.01l29.70 0.00v3.20l-29.70 -0.00"/>
<path fill="currentColor"
	d="M261.33 86.01l6.00 0.00v3.20l-6.00 -0.00"/>
<path fill="currentColor"
	d="M261.33 91.01l6.00 0.00v3.20l-6.00 -0.00"/>
<use x="234.83" y="106.01" xlink:href="#hd"/>
<circle fill="currentColor" cx="242.83" cy="103.01" r="1.2"/>
<path d="M238.33 106.01v-24.00" stroke="currentColor" fill="none"/>
<use x="263.83" y="106.01" xlink:href="#hd"/>
<path d="M267.33 106.01v-24.00" stroke="currentColor" fill="none"/>
<use x="276.53" y="94.01" xlink:href="#r8"/>
<use x="304.83" y="91.01" xlink:href="#hd"/>
<use x="295.83" y="91.01" xlink:href="#sh0"/>
<path d="M301.33 91.01v20.00" stroke="currentColor" fill="none"/>
<use x="340.83" y="94.01" xlink:href="#r8"/>
<use x="377.63" y="94.01" xlink:href="#r32"/>
<path fill="currentColor"
	d="M387.93 107.01l29.70 0.00v-3.20l-29.70 -0.00"/>
<path fill="currentColor"
	d="M411.23 102.01l6.00 0.00v-3.20l-6.00 -0.00"/>
<path fill="currentColor"
	d="M411.23 97.01l6.00 0.00v-3.20l-6.00 -0.00"/>
<use x="391.73" y="82.01" xlink:href="#hd"/>
<circle fill="currentColor" cx="399.73" cy="79.01" r="1.2"/>
<path d="M388.23 82.01v24.00" stroke="currentColor" fill="none"/>
<use x="420.73" y="82.01" xlink:href="#hd"/>
<path d="M417.23 82.01v24.00" stroke="currentColor" fill="none"/>
<path fill="currentColor"
	d="M238.33 106.01c3.46 4.90 18.52 4.90 21.98 -0.00
	l0.00 0.22c-4.12 6.67 -17.86 6.67 -21.98 -0.22"/>
<path fill="currentColor"
	d="M395.23 76.01c3.46 -4.90 18.52 -4.90 21.98 -0.00
	l0.00 -0.22c-4.12 -6.67 -17.86 -6.67 -21.98 0.22"/>
</g>
</svg>
