<?xml version="1.0" standalone="no"?>
<!DOCTYPE svg PUBLIC "-//W3C//DTD SVG 1.1//EN"
	"http://www.w3.org/Graphics/SVG/1.1/DTD/svg11.dtd">
<svg xmlns="http://www.w3.org/2000/svg" version="1.1"
	xmlns:xlink="http://www.w3.org/1999/xlink"
	xml:space='preserve' color="black"
	width="7.38in" height="1.34in" viewBox="0 0 531 97">
<title>2809.abc (2809) tune 1</title>
<!-- Creator: abcm2ps-7.8.14 -->
<!-- CreationDate: Mar 13, 2016 18:54 -->
<!-- CommandLine: -qxg 2809.abc -O ../svgs/2809.svg -->
<g transform="scale(0.750)" stroke-width="0.70" font-family="Times" font-size="20.00">
<text x="354.13" y="21.67" text-anchor="middle">2809.  Trio No. 1 in G, 1st. Mvt.</text>
</g>
<g transform="scale(0.750)" stroke-width="0.70" font-family="Times" font-size="14.00" font-style="italic">
<text x="694.93" y="45.34" text-anchor="end">Franz Josef Haydn</text>
</g>
<g transform="scale(0.525)" stroke-width="0.70" font-family="Times" font-size="14.00" font-style="italic">
<defs>
<ellipse id="hd" rx="4.1" ry="2.9"
	transform="rotate(-20)" fill="currentColor"/>
</defs>
<use x="107.04" y="94.16" xlink:href="#hd"/>
<path d="M110.54 94.16v-20.00" stroke="currentColor" fill="none"/>
</g>
<g transform="scale(0.750)" stroke-width="0.70" font-family="Times" font-size="15.00" font-weight="bold">
<text x="82.63" y="68.01">= 120</text>
<path stroke="currentColor" fill="none"
	d="M207.33 106.01v-24.00"/>
<path stroke="currentColor" fill="none"
	d="M326.23 106.01v-24.00"/>
<path stroke="currentColor" fill="none"
	d="M454.83 106.01v-24.00"/>
<path stroke="currentColor" fill="none"
	d="M541.43 106.01v-24.00"/>
<path stroke="currentColor" fill="none"
	d="M13.33 106.01h528.10m-528.10 -6h528.10m-528.10 -6h528.10m-528.10 -6h528.10m-528.10 -6h528.10"/>
<defs>
<path id="utclef" fill="currentColor" d="m-50 -90
	c-72 -41 -72 -158 52 -188
	c150 -10 220 188 90 256
	c-114 52 -275 0 -293 -136
	c-15 -181 93 -229 220 -334
	c88 -87 79 -133 62 -210
	c-51 33 -94 105 -89 186
	c17 267 36 374 49 574
	c6 96 -19 134 -77 135
	c-80 1 -126 -93 -61 -133
	c85 -41 133 101 31 105
	c23 17 92 37 90 -92
	c-10 -223 -39 -342 -50 -617
	c0 -90 0 -162 96 -232
	c56 72 63 230 22 289
	c-74 106 -257 168 -255 316
	c9 153 148 185 252 133
	c86 -65 29 -192 -80 -176
	c-71 12 -105 67 -59 124"/>
<use id="tclef" transform="scale(0.045)"
	xlink:href="#utclef"/>
</defs>
<use x="25.33" y="106.01" xlink:href="#tclef"/>
<defs>
<path id="usharp" fill="currentColor" d="
	m136 -702
	v890
	h32
	v-890
	m128 840
	h32
	v-888
	h-32
	m-232 286
	v116
	l338 -96
	v-116
	m-338 442
	v116
	l338 -98
	v-114"/>
<use id="sh0" transform="translate(-4,5) scale(0.018)"
	xlink:href="#usharp"/>
</defs>
<use x="40.33" y="82.01" xlink:href="#sh0"/>
<g font-family="serif" font-size="16" font-weight="bold" font-style="normal"
	transform="translate(56.33,106.01) scale(1.2,1)">
	<text y="-1" text-anchor="middle">4</text>
	<text y="-13" text-anchor="middle">2</text>
</g>
<defs>
<path id="r8e" fill="currentColor" d="m 0 0
	c-1.5 1.5 -2.4 2 -3.6 2
	c2.4 -2.8 -2.8 -4 -2.8 -1.2
	c0 2.7 4.3 2.4 5.9 0.6"/>
<g id="r32">
	<path d="m4.8 -10l-5.5 21.6" stroke="currentColor" fill="none"/>
	<use x="4.9" y="-10" xlink:href="#r8e"/>
	<use x="3.4" y="-4" xlink:href="#r8e"/>
	<use x="1.9" y="2" xlink:href="#r8e"/>
</g>
</defs>
<use x="74.33" y="94.01" xlink:href="#r32"/>
<path fill="currentColor"
	d="M84.63 112.01l26.20 0.00v-3.20l-26.20 -0.00"/>
<path fill="currentColor"
	d="M85.03 107.01l25.50 0.00v-3.20l-25.50 -0.00"/>
<path fill="currentColor"
	d="M85.03 102.01l25.50 0.00v-3.20l-25.50 -0.00"/>
<path fill="currentColor"
	d="M95.53 97.01l6.00 0.00v-3.20l-6.00 -0.00"/>
<use x="88.53" y="79.01" xlink:href="#hd"/>
<circle fill="currentColor" cx="96.53" cy="79.01" r="1.2"/>
<path d="M85.03 79.01v32.00" stroke="currentColor" fill="none"/>
<use x="105.03" y="82.01" xlink:href="#hd"/>
<path d="M101.53 82.01v29.00" stroke="currentColor" fill="none"/>
<use x="114.03" y="79.01" xlink:href="#hd"/>
<path d="M110.53 79.01v32.00" stroke="currentColor" fill="none"/>
<use x="128.13" y="88.01" xlink:href="#hd"/>
<path d="M124.63 88.01v20.00" stroke="currentColor" fill="none"/>
<path fill="currentColor"
	d="M124.63 108.01c0.6 -5.6 9.6 -9 5.6 -18.4
	c1.6 6 -1.3 11.6 -5.6 12.8
"/>
<use x="156.43" y="94.01" xlink:href="#hd"/>
<path d="M152.93 94.01v20.00" stroke="currentColor" fill="none"/>
<path fill="currentColor"
	d="M152.93 114.01c0.6 -5.6 9.6 -9 5.6 -18.4
	c1.6 6 -1.3 11.6 -5.6 12.8
"/>
<use x="184.73" y="91.01" xlink:href="#hd"/>
<path d="M181.23 91.01v20.00" stroke="currentColor" fill="none"/>
<path fill="currentColor"
	d="M181.23 111.01c0.6 -5.6 9.6 -9 5.6 -18.4
	c1.6 6 -1.3 11.6 -5.6 12.8
"/>
<use x="221.53" y="85.01" xlink:href="#hd"/>
<path d="M218.03 85.01v20.00" stroke="currentColor" fill="none"/>
<path fill="currentColor"
	d="M218.03 105.01c0.6 -5.6 9.6 -9 5.6 -18.4
	c1.6 6 -1.3 11.6 -5.6 12.8
"/>
<use x="249.83" y="88.01" xlink:href="#hd"/>
<path d="M246.33 88.01v20.00" stroke="currentColor" fill="none"/>
<path fill="currentColor"
	d="M246.33 108.01c0.6 -5.6 9.6 -9 5.6 -18.4
	c1.6 6 -1.3 11.6 -5.6 12.8
"/>
<use x="278.13" y="94.01" xlink:href="#hd"/>
<path d="M274.63 94.01v20.00" stroke="currentColor" fill="none"/>
<path fill="currentColor"
	d="M274.63 114.01c0.6 -5.6 9.6 -9 5.6 -18.4
	c1.6 6 -1.3 11.6 -5.6 12.8
"/>
<use x="303.63" y="100.01" xlink:href="#hd"/>
<path d="M307.13 100.01v-20.00" stroke="currentColor" fill="none"/>
<path fill="currentColor"
	d="	M307.13 80.01c0.6 5.6 9.6 9 5.6 18.4
	c1.6 -6 -1.3 -11.6 -5.6 -12.8
"/>
<use x="340.43" y="97.01" xlink:href="#hd"/>
<path d="M343.93 97.01v-20.00" stroke="currentColor" fill="none"/>
<path fill="currentColor"
	d="	M343.93 77.01c0.6 5.6 9.6 9 5.6 18.4
	c1.6 -6 -1.3 -11.6 -5.6 -12.8
"/>
<use x="368.73" y="94.01" xlink:href="#hd"/>
<path d="M372.23 94.01v-20.00" stroke="currentColor" fill="none"/>
<path fill="currentColor"
	d="	M372.23 74.01c0.6 5.6 9.6 9 5.6 18.4
	c1.6 -6 -1.3 -11.6 -5.6 -12.8
"/>
<use x="396.93" y="91.01" xlink:href="#hd"/>
<path d="M393.43 91.01v20.00" stroke="currentColor" fill="none"/>
<path fill="currentColor"
	d="M393.43 111.01c0.6 -5.6 9.6 -9 5.6 -18.4
	c1.6 6 -1.3 11.6 -5.6 12.8
"/>
<use x="422.43" y="94.01" xlink:href="#r32"/>
<use x="436.63" y="88.01" xlink:href="#hd"/>
<circle fill="currentColor" cx="444.63" cy="85.01" r="1.2"/>
<path d="M433.13 88.01v22.00" stroke="currentColor" fill="none"/>
<path fill="currentColor"
	d="M433.13 110.01c0.9 -3.7 9.1 -6.4 6 -12.4
	c1 5.4 -4.2 8.4 -6 8.4
M433.13 104.61c0.9 -3.7 9.1 -6.4 6 -12.4
	c1 5.4 -4.2 8.4 -6 8.4
"/>
<path fill="currentColor"
	d="M465.13 113.91l18.70 2.30v-3.20l-18.70 -2.30"/>
<path fill="currentColor"
	d="M465.43 108.91l18.00 2.30v-3.20l-18.00 -2.30"/>
<use x="468.93" y="91.01" xlink:href="#hd"/>
<path d="M465.43 91.01v21.90" stroke="currentColor" fill="none"/>
<use x="486.93" y="94.01" xlink:href="#hd"/>
<path d="M483.43 94.01v21.20" stroke="currentColor" fill="none"/>
<use x="504.93" y="97.01" xlink:href="#hd"/>
<circle fill="currentColor" cx="512.93" cy="97.01" r="1.2"/>
<path d="M508.43 97.01v-20.00" stroke="currentColor" fill="none"/>
</g>
</svg>
