<?xml version="1.0" standalone="no"?>
<!DOCTYPE svg PUBLIC "-//W3C//DTD SVG 1.1//EN"
	"http://www.w3.org/Graphics/SVG/1.1/DTD/svg11.dtd">
<svg xmlns="http://www.w3.org/2000/svg" version="1.1"
	xmlns:xlink="http://www.w3.org/1999/xlink"
	xml:space='preserve' color="black"
	width="7.38in" height="1.34in" viewBox="0 0 531 97">
<title>2850.abc (2850) tune 1</title>
<!-- Creator: abcm2ps-7.8.14 -->
<!-- CreationDate: Mar 13, 2016 18:54 -->
<!-- CommandLine: -qxg 2850.abc -O ../svgs/2850.svg -->
<g transform="scale(0.750)" stroke-width="0.70" font-family="Times" font-size="20.00">
<text x="354.13" y="21.67" text-anchor="middle">2850.  Kleine Kammermusik, Op. 24, No. 2, 3rd. Mvt., 2nd. Theme</text>
</g>
<g transform="scale(0.750)" stroke-width="0.70" font-family="Times" font-size="14.00" font-style="italic">
<text x="694.93" y="45.34" text-anchor="end">Paul Hindemith</text>
</g>
<g transform="scale(0.525)" stroke-width="0.70" font-family="Times" font-size="14.00" font-style="italic">
<defs>
<ellipse id="hd" rx="4.1" ry="2.9"
	transform="rotate(-20)" fill="currentColor"/>
</defs>
<use x="99.19" y="94.16" xlink:href="#hd"/>
<path d="M102.69 94.16v-20.00" stroke="currentColor" fill="none"/>
</g>
<g transform="scale(0.750)" stroke-width="0.70" font-family="Times" font-size="15.00" font-weight="bold">
<text x="77.13" y="68.01">= 120</text>
<path stroke="currentColor" fill="none"
	d="M168.13 106.01v-24.00"/>
<path stroke="currentColor" fill="none"
	d="M367.63 106.01v-24.00"/>
<path stroke="currentColor" fill="none"
	d="M512.13 106.01v-24.00"/>
<path stroke="currentColor" fill="none"
	d="M625.13 106.01v-24.00"/>
<path stroke="currentColor" fill="none"
	d="M694.93 106.01v-24.00"/>
<path stroke="currentColor" fill="none"
	d="M13.33 106.01h681.60m-681.60 -6h681.60m-681.60 -6h681.60m-681.60 -6h681.60m-681.60 -6h681.60"/>
<path stroke="currentColor" fill="none"
	d="M210.23 60.01v-3l64.10 -0.00v3"/>
<rect x="235.33" y="51.01" width="14.00" height="12" fill="white"/>
<text font-family="serif" font-size="12" font-style="italic" font-weight="normal"
	x="242.33" y="61.01" text-anchor="middle">3</text>
<text font-family="serif" font-size="12" font-style="italic" font-weight="normal"
	x="399.23" y="125.01" text-anchor="middle">3</text>
<defs>
<path id="utclef" fill="currentColor" d="m-50 -90
	c-72 -41 -72 -158 52 -188
	c150 -10 220 188 90 256
	c-114 52 -275 0 -293 -136
	c-15 -181 93 -229 220 -334
	c88 -87 79 -133 62 -210
	c-51 33 -94 105 -89 186
	c17 267 36 374 49 574
	c6 96 -19 134 -77 135
	c-80 1 -126 -93 -61 -133
	c85 -41 133 101 31 105
	c23 17 92 37 90 -92
	c-10 -223 -39 -342 -50 -617
	c0 -90 0 -162 96 -232
	c56 72 63 230 22 289
	c-74 106 -257 168 -255 316
	c9 153 148 185 252 133
	c86 -65 29 -192 -80 -176
	c-71 12 -105 67 -59 124"/>
<use id="tclef" transform="scale(0.045)"
	xlink:href="#utclef"/>
</defs>
<use x="25.33" y="106.01" xlink:href="#tclef"/>
<g font-family="serif" font-size="16" font-weight="bold" font-style="normal"
	transform="translate(43.83,106.01) scale(1.2,1)">
	<text y="-1" text-anchor="middle">4</text>
	<text y="-13" text-anchor="middle">3</text>
</g>
<defs>
<path id="Hd" fill="currentColor" d="m3 -1.6
	c-1 -1.8 -7 1.4 -6 3.2
	c1 1.8 7 -1.4 6 -3.2
	m0.5 -0.3
	c2 3.8 -5 7.6 -7 3.8
	c-2 -3.8 5 -7.6 7 -3.8"/>
</defs>
<use x="68.83" y="82.01" xlink:href="#Hd"/>
<defs>
<path id="usharp" fill="currentColor" d="
	m136 -702
	v890
	h32
	v-890
	m128 840
	h32
	v-888
	h-32
	m-232 286
	v116
	l338 -96
	v-116
	m-338 442
	v116
	l338 -98
	v-114"/>
<use id="sh0" transform="translate(-4,5) scale(0.018)"
	xlink:href="#usharp"/>
</defs>
<use x="58.83" y="82.01" xlink:href="#sh0"/>
<path d="M65.33 82.01v20.00" stroke="currentColor" fill="none"/>
<path fill="currentColor"
	d="M120.23 106.21l29.10 0.00v-3.20l-29.10 -0.00"/>
<path fill="currentColor"
	d="M142.93 101.21l6.00 0.00v-3.20l-6.00 -0.00"/>
<use x="124.03" y="82.01" xlink:href="#hd"/>
<circle fill="currentColor" cx="132.03" cy="79.01" r="1.2"/>
<use x="115.03" y="82.01" xlink:href="#sh0"/>
<path d="M120.53 82.01v23.20" stroke="currentColor" fill="none"/>
<use x="152.43" y="82.01" xlink:href="#hd"/>
<use x="143.43" y="82.01" xlink:href="#sh0"/>
<path d="M148.93 82.01v23.20" stroke="currentColor" fill="none"/>
<use x="186.63" y="82.01" xlink:href="#hd"/>
<use x="177.63" y="82.01" xlink:href="#sh0"/>
<path d="M183.13 82.01v20.00" stroke="currentColor" fill="none"/>
<path fill="currentColor"
	d="M183.13 102.01c0.6 -5.6 9.6 -9 5.6 -18.4
	c1.6 6 -1.3 11.6 -5.6 12.8
"/>
<defs>
<path id="hl" stroke="currentColor" d="m-6 0h12"/>
</defs>
<use x="214.23" y="76.01" xlink:href="#hl"/>
<use x="214.23" y="76.01" xlink:href="#hd"/>
<path d="M210.73 76.01v20.00" stroke="currentColor" fill="none"/>
<use x="244.83" y="76.01" xlink:href="#hl"/>
<use x="244.83" y="76.01" xlink:href="#hd"/>
<path d="M241.33 76.01v22.00" stroke="currentColor" fill="none"/>
<path fill="currentColor"
	d="M241.33 98.01c0.9 -3.7 9.1 -6.4 6 -12.4
	c1 5.4 -4.2 8.4 -6 8.4
M241.33 92.61c0.9 -3.7 9.1 -6.4 6 -12.4
	c1 5.4 -4.2 8.4 -6 8.4
"/>
<use x="262.83" y="82.01" xlink:href="#hd"/>
<use x="253.83" y="82.01" xlink:href="#sh0"/>
<path d="M259.33 82.01v20.00" stroke="currentColor" fill="none"/>
<use x="293.33" y="82.01" xlink:href="#hd"/>
<use x="284.33" y="82.01" xlink:href="#sh0"/>
<path d="M289.83 82.01v22.00" stroke="currentColor" fill="none"/>
<path fill="currentColor"
	d="M289.83 104.01c0.9 -3.7 9.1 -6.4 6 -12.4
	c1 5.4 -4.2 8.4 -6 8.4
M289.83 98.61c0.9 -3.7 9.1 -6.4 6 -12.4
	c1 5.4 -4.2 8.4 -6 8.4
"/>
<use x="312.83" y="85.01" xlink:href="#hd"/>
<path d="M309.33 85.01v20.00" stroke="currentColor" fill="none"/>
<use x="351.93" y="85.01" xlink:href="#hd"/>
<path d="M348.43 85.01v22.00" stroke="currentColor" fill="none"/>
<path fill="currentColor"
	d="M348.43 107.01c0.9 -3.7 9.1 -6.4 6 -12.4
	c1 5.4 -4.2 8.4 -6 8.4
M348.43 101.61c0.9 -3.7 9.1 -6.4 6 -12.4
	c1 5.4 -4.2 8.4 -6 8.4
"/>
<path fill="currentColor"
	d="M377.63 109.01l39.50 0.00v-3.20l-39.50 -0.00"/>
<use x="381.43" y="88.01" xlink:href="#hd"/>
<path d="M377.93 88.01v20.00" stroke="currentColor" fill="none"/>
<use x="400.83" y="85.01" xlink:href="#hd"/>
<path d="M397.33 85.01v23.00" stroke="currentColor" fill="none"/>
<use x="420.33" y="91.01" xlink:href="#hd"/>
<path d="M416.83 91.01v17.00" stroke="currentColor" fill="none"/>
<use x="441.83" y="88.01" xlink:href="#hd"/>
<path d="M438.33 88.01v20.00" stroke="currentColor" fill="none"/>
<use x="480.83" y="94.01" xlink:href="#hd"/>
<path d="M477.33 94.01v20.00" stroke="currentColor" fill="none"/>
<use x="525.93" y="79.01" xlink:href="#Hd"/>
<path d="M522.43 79.01v20.00" stroke="currentColor" fill="none"/>
<path fill="currentColor"
	d="M577.33 96.91l29.00 4.30v-3.20l-29.00 -4.30"/>
<path fill="currentColor"
	d="M600.03 95.31l6.00 0.90v-3.20l-6.00 -0.90"/>
<use x="581.13" y="76.01" xlink:href="#hl"/>
<use x="581.13" y="73.01" xlink:href="#hd"/>
<circle fill="currentColor" cx="589.13" cy="73.01" r="1.2"/>
<path d="M577.63 73.01v23.00" stroke="currentColor" fill="none"/>
<use x="609.53" y="79.01" xlink:href="#hd"/>
<path d="M606.03 79.01v21.20" stroke="currentColor" fill="none"/>
<use x="644.63" y="82.01" xlink:href="#Hd"/>
<circle fill="currentColor" cx="653.63" cy="79.01" r="1.2"/>
<use x="634.63" y="82.01" xlink:href="#sh0"/>
<path d="M641.13 82.01v20.00" stroke="currentColor" fill="none"/>
<path fill="currentColor"
	d="M217.73 76.01c3.71 -4.92 19.83 -4.92 23.54 -0.00
	l0.00 -0.22c-4.41 -6.70 -19.12 -6.70 -23.54 0.22"/>
<path fill="currentColor"
	d="M266.33 82.01c3.71 -4.92 19.83 -4.92 23.54 -0.00
	l0.00 -0.22c-4.41 -6.70 -19.12 -6.70 -23.54 0.22"/>
<path fill="currentColor"
	d="M316.33 83.01c5.05 -5.08 27.03 -5.08 32.08 -0.00
	l0.00 -0.23c-6.02 -6.85 -26.07 -6.85 -32.08 0.23"/>
</g>
</svg>
