<?xml version="1.0" standalone="no"?>
<!DOCTYPE svg PUBLIC "-//W3C//DTD SVG 1.1//EN"
	"http://www.w3.org/Graphics/SVG/1.1/DTD/svg11.dtd">
<svg xmlns="http://www.w3.org/2000/svg" version="1.1"
	xmlns:xlink="http://www.w3.org/1999/xlink"
	xml:space='preserve' color="black"
	width="7.38in" height="1.34in" viewBox="0 0 531 97">
<title>2869.abc (2869) tune 1</title>
<!-- Creator: abcm2ps-7.8.14 -->
<!-- CreationDate: Mar 13, 2016 18:54 -->
<!-- CommandLine: -qxg 2869.abc -O ../svgs/2869.svg -->
<g transform="scale(0.750)" stroke-width="0.70" font-family="Times" font-size="20.00">
<text x="354.13" y="21.67" text-anchor="middle">2869.  Mathis der Mahler Symphony, 3rd. Mvt., 5th. Theme</text>
</g>
<g transform="scale(0.750)" stroke-width="0.70" font-family="Times" font-size="14.00" font-style="italic">
<text x="694.93" y="45.34" text-anchor="end">Paul Hindemith</text>
</g>
<g transform="scale(0.525)" stroke-width="0.70" font-family="Times" font-size="14.00" font-style="italic">
<defs>
<ellipse id="hd" rx="4.1" ry="2.9"
	transform="rotate(-20)" fill="currentColor"/>
</defs>
<use x="97.76" y="94.16" xlink:href="#hd"/>
<path d="M101.26 94.16v-20.00" stroke="currentColor" fill="none"/>
</g>
<g transform="scale(0.750)" stroke-width="0.70" font-family="Times" font-size="15.00" font-weight="bold">
<text x="76.13" y="68.01">= 120</text>
<path stroke="currentColor" fill="none"
	d="M212.13 106.01v-24.00"/>
<path stroke="currentColor" fill="none"
	d="M375.13 106.01v-24.00"/>
<path stroke="currentColor" fill="none"
	d="M537.33 106.01v-24.00"/>
<path stroke="currentColor" fill="none"
	d="M694.93 106.01v-24.00"/>
<path stroke="currentColor" fill="none"
	d="M13.33 106.01h681.60m-681.60 -6h681.60m-681.60 -6h681.60m-681.60 -6h681.60m-681.60 -6h681.60"/>
<defs>
<path id="utclef" fill="currentColor" d="m-50 -90
	c-72 -41 -72 -158 52 -188
	c150 -10 220 188 90 256
	c-114 52 -275 0 -293 -136
	c-15 -181 93 -229 220 -334
	c88 -87 79 -133 62 -210
	c-51 33 -94 105 -89 186
	c17 267 36 374 49 574
	c6 96 -19 134 -77 135
	c-80 1 -126 -93 -61 -133
	c85 -41 133 101 31 105
	c23 17 92 37 90 -92
	c-10 -223 -39 -342 -50 -617
	c0 -90 0 -162 96 -232
	c56 72 63 230 22 289
	c-74 106 -257 168 -255 316
	c9 153 148 185 252 133
	c86 -65 29 -192 -80 -176
	c-71 12 -105 67 -59 124"/>
<use id="tclef" transform="scale(0.045)"
	xlink:href="#utclef"/>
</defs>
<use x="25.33" y="106.01" xlink:href="#tclef"/>
<g font-family="serif" font-size="16" font-weight="bold" font-style="normal"
	transform="translate(43.83,106.01) scale(1.2,1)">
	<text y="-1" text-anchor="middle">4</text>
	<text y="-13" text-anchor="middle">3</text>
</g>
<path fill="currentColor"
	d="M71.03 92.51l48.70 -2.70v3.20l-48.70 2.70"/>
<defs>
<path id="hl" stroke="currentColor" d="m-6 0h12"/>
</defs>
<use x="67.83" y="112.01" xlink:href="#hl"/>
<use x="67.83" y="118.01" xlink:href="#hl"/>
<use x="67.83" y="121.01" xlink:href="#hd"/>
<defs>
<path id="usharp" fill="currentColor" d="
	m136 -702
	v890
	h32
	v-890
	m128 840
	h32
	v-888
	h-32
	m-232 286
	v116
	l338 -96
	v-116
	m-338 442
	v116
	l338 -98
	v-114"/>
<use id="sh0" transform="translate(-4,5) scale(0.018)"
	xlink:href="#usharp"/>
</defs>
<use x="58.83" y="121.01" xlink:href="#sh0"/>
<path d="M71.33 121.01v-27.50" stroke="currentColor" fill="none"/>
<use x="91.83" y="112.01" xlink:href="#hl"/>
<use x="91.83" y="115.01" xlink:href="#hd"/>
<path d="M95.33 115.01v-22.90" stroke="currentColor" fill="none"/>
<use x="115.93" y="109.01" xlink:href="#hd"/>
<use x="106.93" y="109.01" xlink:href="#sh0"/>
<path d="M119.43 109.01v-18.20" stroke="currentColor" fill="none"/>
<path fill="currentColor"
	d="M145.83 87.81l48.90 0.00v3.20l-48.90 -0.00"/>
<use x="142.63" y="109.01" xlink:href="#hd"/>
<use x="133.63" y="109.01" xlink:href="#sh0"/>
<path d="M146.13 109.01v-20.20" stroke="currentColor" fill="none"/>
<use x="166.73" y="109.01" xlink:href="#hd"/>
<use x="157.73" y="109.01" xlink:href="#sh0"/>
<path d="M170.23 109.01v-20.20" stroke="currentColor" fill="none"/>
<use x="190.83" y="109.01" xlink:href="#hd"/>
<defs>
<path id="unat" fill="currentColor" d="
	m96 -750
	h-32
	v716
	l32 -8
	l182 -54
	v282
	h32
	v-706
	l-34 10
	l-180 50
	v-290
	m0 592
	v-190
	l182 -52
	v188"/>
<use id="nt0" transform="translate(-3,5) scale(0.018)"
	xlink:href="#unat"/>
</defs>
<use x="181.83" y="109.01" xlink:href="#nt0"/>
<path d="M194.33 109.01v-20.20" stroke="currentColor" fill="none"/>
<path fill="currentColor"
	d="M233.83 83.01l48.90 -4.50v3.20l-48.90 4.50"/>
<use x="230.63" y="109.01" xlink:href="#hd"/>
<use x="221.63" y="109.01" xlink:href="#sh0"/>
<path d="M234.13 109.01v-25.00" stroke="currentColor" fill="none"/>
<use x="254.73" y="100.01" xlink:href="#hd"/>
<use x="245.73" y="100.01" xlink:href="#sh0"/>
<path d="M258.23 100.01v-18.20" stroke="currentColor" fill="none"/>
<use x="278.83" y="100.01" xlink:href="#hd"/>
<use x="269.83" y="100.01" xlink:href="#sh0"/>
<path d="M282.33 100.01v-20.40" stroke="currentColor" fill="none"/>
<path fill="currentColor"
	d="M308.73 81.81l48.90 0.00v3.20l-48.90 -0.00"/>
<use x="305.63" y="100.01" xlink:href="#hd"/>
<use x="296.63" y="100.01" xlink:href="#sh0"/>
<path d="M309.13 100.01v-17.20" stroke="currentColor" fill="none"/>
<use x="329.73" y="103.01" xlink:href="#hd"/>
<use x="320.73" y="103.01" xlink:href="#sh0"/>
<path d="M333.23 103.01v-20.20" stroke="currentColor" fill="none"/>
<use x="353.83" y="103.01" xlink:href="#hd"/>
<use x="344.83" y="103.01" xlink:href="#nt0"/>
<path d="M357.33 103.01v-20.20" stroke="currentColor" fill="none"/>
<path fill="currentColor"
	d="M396.73 81.41l48.70 -6.60v3.20l-48.70 6.60"/>
<use x="393.63" y="109.01" xlink:href="#hd"/>
<use x="384.63" y="109.01" xlink:href="#nt0"/>
<path d="M397.13 109.01v-26.70" stroke="currentColor" fill="none"/>
<use x="417.73" y="109.01" xlink:href="#hd"/>
<use x="408.73" y="109.01" xlink:href="#sh0"/>
<path d="M421.23 109.01v-29.90" stroke="currentColor" fill="none"/>
<use x="441.63" y="94.01" xlink:href="#hd"/>
<path d="M445.13 94.01v-18.20" stroke="currentColor" fill="none"/>
<path fill="currentColor"
	d="M471.33 74.01l48.60 0.00v3.20l-48.60 -0.00"/>
<use x="468.23" y="94.01" xlink:href="#hd"/>
<path d="M471.73 94.01v-19.00" stroke="currentColor" fill="none"/>
<use x="492.13" y="94.01" xlink:href="#hd"/>
<path d="M495.63 94.01v-19.00" stroke="currentColor" fill="none"/>
<use x="516.03" y="94.01" xlink:href="#hd"/>
<path d="M519.53 94.01v-19.00" stroke="currentColor" fill="none"/>
<path fill="currentColor"
	d="M553.93 74.81l48.70 0.00v3.20l-48.70 -0.00"/>
<use x="550.83" y="94.01" xlink:href="#hd"/>
<path d="M554.33 94.01v-18.20" stroke="currentColor" fill="none"/>
<use x="574.73" y="94.01" xlink:href="#hd"/>
<path d="M578.23 94.01v-18.20" stroke="currentColor" fill="none"/>
<use x="598.83" y="97.01" xlink:href="#hd"/>
<use x="589.83" y="97.01" xlink:href="#sh0"/>
<path d="M602.33 97.01v-21.20" stroke="currentColor" fill="none"/>
<path fill="currentColor"
	d="M628.73 75.81l48.70 0.00v3.20l-48.70 -0.00"/>
<use x="625.63" y="97.01" xlink:href="#hd"/>
<use x="616.63" y="97.01" xlink:href="#sh0"/>
<path d="M629.13 97.01v-20.20" stroke="currentColor" fill="none"/>
<use x="649.73" y="97.01" xlink:href="#hd"/>
<use x="640.73" y="97.01" xlink:href="#nt0"/>
<path d="M653.23 97.01v-20.20" stroke="currentColor" fill="none"/>
<use x="673.63" y="97.01" xlink:href="#hd"/>
<path d="M677.13 97.01v-20.20" stroke="currentColor" fill="none"/>
</g>
</svg>
