<?xml version="1.0" standalone="no"?>
<!DOCTYPE svg PUBLIC "-//W3C//DTD SVG 1.1//EN"
	"http://www.w3.org/Graphics/SVG/1.1/DTD/svg11.dtd">
<svg xmlns="http://www.w3.org/2000/svg" version="1.1"
	xmlns:xlink="http://www.w3.org/1999/xlink"
	xml:space='preserve' color="black"
	width="7.38in" height="1.34in" viewBox="0 0 531 97">
<title>2950.abc (2950) tune 1</title>
<!-- Creator: abcm2ps-7.8.14 -->
<!-- CreationDate: Mar 13, 2016 18:54 -->
<!-- CommandLine: -qxg 2950.abc -O ../svgs/2950.svg -->
<g transform="scale(0.750)" stroke-width="0.70" font-family="Times" font-size="20.00">
<text x="354.13" y="21.67" text-anchor="middle">2950.  Chant de Nigamon, 4th. Theme</text>
</g>
<g transform="scale(0.750)" stroke-width="0.70" font-family="Times" font-size="14.00" font-style="italic">
<text x="694.93" y="45.34" text-anchor="end">Arthur Honegger</text>
</g>
<g transform="scale(0.525)" stroke-width="0.70" font-family="Times" font-size="14.00" font-style="italic">
<defs>
<ellipse id="hd" rx="4.1" ry="2.9"
	transform="rotate(-20)" fill="currentColor"/>
</defs>
<use x="122.76" y="94.16" xlink:href="#hd"/>
<path d="M126.26 94.16v-20.00" stroke="currentColor" fill="none"/>
</g>
<g transform="scale(0.750)" stroke-width="0.70" font-family="Times" font-size="15.00" font-weight="bold">
<text x="93.63" y="68.01">= 120</text>
<path stroke="currentColor" fill="none"
	d="M205.53 106.01v-24.00"/>
<path stroke="currentColor" fill="none"
	d="M354.13 106.01v-24.00"/>
<path stroke="currentColor" fill="none"
	d="M472.23 106.01v-24.00"/>
<path stroke="currentColor" fill="none"
	d="M614.23 106.01v-24.00"/>
<path stroke="currentColor" fill="none"
	d="M13.33 106.01h681.60m-681.60 -6h681.60m-681.60 -6h681.60m-681.60 -6h681.60m-681.60 -6h681.60"/>
<defs>
<path id="utclef" fill="currentColor" d="m-50 -90
	c-72 -41 -72 -158 52 -188
	c150 -10 220 188 90 256
	c-114 52 -275 0 -293 -136
	c-15 -181 93 -229 220 -334
	c88 -87 79 -133 62 -210
	c-51 33 -94 105 -89 186
	c17 267 36 374 49 574
	c6 96 -19 134 -77 135
	c-80 1 -126 -93 -61 -133
	c85 -41 133 101 31 105
	c23 17 92 37 90 -92
	c-10 -223 -39 -342 -50 -617
	c0 -90 0 -162 96 -232
	c56 72 63 230 22 289
	c-74 106 -257 168 -255 316
	c9 153 148 185 252 133
	c86 -65 29 -192 -80 -176
	c-71 12 -105 67 -59 124"/>
<use id="tclef" transform="scale(0.045)"
	xlink:href="#utclef"/>
</defs>
<use x="25.33" y="106.01" xlink:href="#tclef"/>
<defs>
<path id="uflat" fill="currentColor" d="
	m100 -746
	h32
	v734
	l-32 4
	m32 -332
	c46 -72 152 -90 208 -20
	c100 110 -120 326 -208 348
	m0 -28
	c54 0 200 -206 130 -290
	c-50 -60 -130 -4 -130 34"/>
<use id="ft0" transform="translate(-3.5,3.5) scale(0.018)"
	xlink:href="#uflat"/>
</defs>
<use x="40.33" y="94.01" xlink:href="#ft0"/>
<use x="45.83" y="85.01" xlink:href="#ft0"/>
<use x="51.33" y="97.01" xlink:href="#ft0"/>
<g font-family="serif" font-size="16" font-weight="bold" font-style="normal"
	transform="translate(67.33,106.01) scale(1.2,1)">
	<text y="-1" text-anchor="middle">4</text>
	<text y="-13" text-anchor="middle">4</text>
</g>
<use x="85.33" y="109.01" xlink:href="#hd"/>
<path d="M88.83 109.01v-20.00" stroke="currentColor" fill="none"/>
<defs>
<path id="hl" stroke="currentColor" d="m-6 0h12"/>
</defs>
<use x="117.33" y="112.01" xlink:href="#hl"/>
<use x="117.33" y="112.01" xlink:href="#hd"/>
<path d="M120.83 112.01v-20.00" stroke="currentColor" fill="none"/>
<path fill="currentColor"
	d="	M120.83 92.01c0.6 5.6 9.6 9 5.6 18.4
	c1.6 -6 -1.3 -11.6 -5.6 -12.8
"/>
<defs>
<path id="Hd" fill="currentColor" d="m3 -1.6
	c-1 -1.8 -7 1.4 -6 3.2
	c1 1.8 7 -1.4 6 -3.2
	m0.5 -0.3
	c2 3.8 -5 7.6 -7 3.8
	c-2 -3.8 5 -7.6 7 -3.8"/>
</defs>
<use x="140.83" y="109.01" xlink:href="#Hd"/>
<path d="M144.33 109.01v-20.00" stroke="currentColor" fill="none"/>
<use x="186.53" y="109.01" xlink:href="#hd"/>
<path d="M190.03 109.01v-20.00" stroke="currentColor" fill="none"/>
<path fill="currentColor"
	d="	M190.03 89.01c0.6 5.6 9.6 9 5.6 18.4
	c1.6 -6 -1.3 -11.6 -5.6 -12.8
"/>
<use x="218.03" y="109.01" xlink:href="#hd"/>
<path d="M221.53 109.01v-20.00" stroke="currentColor" fill="none"/>
<path fill="currentColor"
	d="	M221.53 89.01c0.6 5.6 9.6 9 5.6 18.4
	c1.6 -6 -1.3 -11.6 -5.6 -12.8
"/>
<use x="241.43" y="112.01" xlink:href="#hl"/>
<use x="241.43" y="112.01" xlink:href="#hd"/>
<path d="M244.93 112.01v-20.00" stroke="currentColor" fill="none"/>
<use x="274.13" y="112.01" xlink:href="#hl"/>
<use x="274.13" y="118.01" xlink:href="#hl"/>
<use x="274.13" y="118.01" xlink:href="#hd"/>
<defs>
<path id="unat" fill="currentColor" d="
	m96 -750
	h-32
	v716
	l32 -8
	l182 -54
	v282
	h32
	v-706
	l-34 10
	l-180 50
	v-290
	m0 592
	v-190
	l182 -52
	v188"/>
<use id="nt0" transform="translate(-3,5) scale(0.018)"
	xlink:href="#unat"/>
</defs>
<use x="265.13" y="118.01" xlink:href="#nt0"/>
<path d="M277.63 118.01v-24.00" stroke="currentColor" fill="none"/>
<path fill="currentColor"
	d="	M277.63 94.01c0.6 5.6 9.6 9 5.6 18.4
	c1.6 -6 -1.3 -11.6 -5.6 -12.8
"/>
<use x="297.53" y="112.01" xlink:href="#hl"/>
<use x="297.53" y="112.01" xlink:href="#hd"/>
<circle fill="currentColor" cx="305.53" cy="109.01" r="1.2"/>
<path d="M301.03 112.01v-20.00" stroke="currentColor" fill="none"/>
<use x="335.13" y="112.01" xlink:href="#hl"/>
<use x="335.13" y="118.01" xlink:href="#hl"/>
<use x="335.13" y="118.01" xlink:href="#hd"/>
<use x="326.13" y="118.01" xlink:href="#nt0"/>
<path d="M338.63 118.01v-24.00" stroke="currentColor" fill="none"/>
<path fill="currentColor"
	d="	M338.63 94.01c0.6 5.6 9.6 9 5.6 18.4
	c1.6 -6 -1.3 -11.6 -5.6 -12.8
"/>
<path fill="currentColor"
	d="M375.73 93.81l18.70 0.00v3.20l-18.70 -0.00"/>
<path fill="currentColor"
	d="M376.13 98.81l18.00 0.00v3.20l-18.00 -0.00"/>
<use x="372.63" y="112.01" xlink:href="#hl"/>
<use x="372.63" y="118.01" xlink:href="#hl"/>
<use x="372.63" y="118.01" xlink:href="#hd"/>
<use x="363.63" y="118.01" xlink:href="#nt0"/>
<path d="M376.13 118.01v-23.20" stroke="currentColor" fill="none"/>
<use x="390.63" y="112.01" xlink:href="#hl"/>
<use x="390.63" y="118.01" xlink:href="#hl"/>
<use x="390.63" y="118.01" xlink:href="#hd"/>
<use x="381.63" y="118.01" xlink:href="#nt0"/>
<path d="M394.13 118.01v-23.20" stroke="currentColor" fill="none"/>
<use x="407.03" y="112.01" xlink:href="#hl"/>
<use x="407.03" y="118.01" xlink:href="#hl"/>
<use x="407.03" y="121.01" xlink:href="#hd"/>
<path d="M410.53 121.01v-27.00" stroke="currentColor" fill="none"/>
<path fill="currentColor"
	d="	M410.53 94.01c0.6 5.6 9.6 9 5.6 18.4
	c1.6 -6 -1.3 -11.6 -5.6 -12.8
"/>
<use x="430.53" y="112.01" xlink:href="#hl"/>
<use x="430.53" y="118.01" xlink:href="#hl"/>
<use x="430.53" y="121.01" xlink:href="#Hd"/>
<circle fill="currentColor" cx="439.53" cy="121.01" r="1.2"/>
<path d="M434.03 121.01v-27.00" stroke="currentColor" fill="none"/>
<use x="484.73" y="103.01" xlink:href="#hd"/>
<path d="M488.23 103.01v-20.00" stroke="currentColor" fill="none"/>
<use x="516.83" y="109.01" xlink:href="#hd"/>
<path d="M520.33 109.01v-20.00" stroke="currentColor" fill="none"/>
<path fill="currentColor"
	d="	M520.33 89.01c0.6 5.6 9.6 9 5.6 18.4
	c1.6 -6 -1.3 -11.6 -5.6 -12.8
"/>
<use x="540.13" y="103.01" xlink:href="#hd"/>
<circle fill="currentColor" cx="548.13" cy="103.01" r="1.2"/>
<path d="M543.63 103.01v-20.00" stroke="currentColor" fill="none"/>
<path fill="currentColor"
	d="M580.23 86.01l24.60 0.00v3.20l-24.60 -0.00"/>
<path fill="currentColor"
	d="M598.53 91.01l6.00 0.00v3.20l-6.00 -0.00"/>
<use x="577.13" y="109.01" xlink:href="#hd"/>
<circle fill="currentColor" cx="585.13" cy="109.01" r="1.2"/>
<path d="M580.63 109.01v-22.00" stroke="currentColor" fill="none"/>
<use x="601.03" y="109.01" xlink:href="#hd"/>
<path d="M604.53 109.01v-22.00" stroke="currentColor" fill="none"/>
<use x="626.73" y="109.01" xlink:href="#hd"/>
<path d="M630.23 109.01v-20.00" stroke="currentColor" fill="none"/>
<path fill="currentColor"
	d="	M630.23 89.01c0.6 5.6 9.6 9 5.6 18.4
	c1.6 -6 -1.3 -11.6 -5.6 -12.8
"/>
<use x="650.13" y="112.01" xlink:href="#hl"/>
<use x="650.13" y="112.01" xlink:href="#Hd"/>
<path d="M653.63 112.01v-20.00" stroke="currentColor" fill="none"/>
<path fill="currentColor"
	d="M144.33 111.01c6.11 5.20 32.67 5.20 38.77 -0.00
	l0.00 0.24c-7.27 6.96 -31.50 6.96 -38.77 -0.24"/>
<path fill="currentColor"
	d="M190.03 111.01c3.85 4.94 20.62 4.94 24.48 -0.00
	l0.00 0.22c-4.59 6.72 -19.89 6.72 -24.48 -0.22"/>
<path fill="currentColor"
	d="M338.63 118.01c4.80 5.05 25.68 5.05 30.48 -0.00
	l0.00 0.23c-5.71 6.82 -24.76 6.82 -30.48 -0.23"/>
</g>
</svg>
