<?xml version="1.0" standalone="no"?>
<!DOCTYPE svg PUBLIC "-//W3C//DTD SVG 1.1//EN"
	"http://www.w3.org/Graphics/SVG/1.1/DTD/svg11.dtd">
<svg xmlns="http://www.w3.org/2000/svg" version="1.1"
	xmlns:xlink="http://www.w3.org/1999/xlink"
	xml:space='preserve' color="black"
	width="7.38in" height="1.34in" viewBox="0 0 531 97">
<title>2957.abc (2957) tune 1</title>
<!-- Creator: abcm2ps-7.8.14 -->
<!-- CreationDate: Mar 13, 2016 18:54 -->
<!-- CommandLine: -qxg 2957.abc -O ../svgs/2957.svg -->
<g transform="scale(0.750)" stroke-width="0.70" font-family="Times" font-size="20.00">
<text x="354.13" y="21.67" text-anchor="middle">2957.  Intro King David Symphonic Psalm, 1st. Mvt.</text>
</g>
<g transform="scale(0.750)" stroke-width="0.70" font-family="Times" font-size="14.00" font-style="italic">
<text x="694.93" y="45.34" text-anchor="end">Arthur Honegger</text>
</g>
<g transform="scale(0.525)" stroke-width="0.70" font-family="Times" font-size="14.00" font-style="italic">
<defs>
<ellipse id="hd" rx="4.1" ry="2.9"
	transform="rotate(-20)" fill="currentColor"/>
</defs>
<use x="89.19" y="94.16" xlink:href="#hd"/>
<path d="M92.69 94.16v-20.00" stroke="currentColor" fill="none"/>
</g>
<g transform="scale(0.750)" stroke-width="0.70" font-family="Times" font-size="15.00" font-weight="bold">
<text x="70.13" y="68.01">= 120</text>
<path stroke="currentColor" fill="none"
	d="M236.73 106.01v-24.00"/>
<path stroke="currentColor" fill="none"
	d="M430.03 106.01v-24.00"/>
<path stroke="currentColor" fill="none"
	d="M648.63 106.01v-24.00"/>
<path stroke="currentColor" fill="none"
	d="M13.33 106.01h681.60m-681.60 -6h681.60m-681.60 -6h681.60m-681.60 -6h681.60m-681.60 -6h681.60"/>
<text font-family="serif" font-size="12" font-style="italic" font-weight="normal"
	x="355.53" y="113.91" text-anchor="middle">3</text>
<text font-family="serif" font-size="12" font-style="italic" font-weight="normal"
	x="548.83" y="113.91" text-anchor="middle">3</text>
<text font-family="serif" font-size="12" font-style="italic" font-weight="normal"
	x="609.93" y="123.81" text-anchor="middle">3</text>
<defs>
<path id="utclef" fill="currentColor" d="m-50 -90
	c-72 -41 -72 -158 52 -188
	c150 -10 220 188 90 256
	c-114 52 -275 0 -293 -136
	c-15 -181 93 -229 220 -334
	c88 -87 79 -133 62 -210
	c-51 33 -94 105 -89 186
	c17 267 36 374 49 574
	c6 96 -19 134 -77 135
	c-80 1 -126 -93 -61 -133
	c85 -41 133 101 31 105
	c23 17 92 37 90 -92
	c-10 -223 -39 -342 -50 -617
	c0 -90 0 -162 96 -232
	c56 72 63 230 22 289
	c-74 106 -257 168 -255 316
	c9 153 148 185 252 133
	c86 -65 29 -192 -80 -176
	c-71 12 -105 67 -59 124"/>
<use id="tclef" transform="scale(0.045)"
	xlink:href="#utclef"/>
</defs>
<use x="25.33" y="106.01" xlink:href="#tclef"/>
<g font-family="serif" font-size="16" font-weight="bold" font-style="normal"
	transform="translate(43.83,106.01) scale(1.2,1)">
	<text y="-1" text-anchor="middle">4</text>
	<text y="-13" text-anchor="middle">3</text>
</g>
<defs>
<path id="r8e" fill="currentColor" d="m 0 0
	c-1.5 1.5 -2.4 2 -3.6 2
	c2.4 -2.8 -2.8 -4 -2.8 -1.2
	c0 2.7 4.3 2.4 5.9 0.6"/>
<g id="r8">
	<path d="m3.3 -4l-3.4 9.6" stroke="currentColor" fill="none"/>
	<use x="3.4" y="-4" xlink:href="#r8e"/>
</g>
</defs>
<use x="61.83" y="94.01" xlink:href="#r8"/>
<use x="86.93" y="97.01" xlink:href="#hd"/>
<path d="M90.43 97.01v-21.00" stroke="currentColor" fill="none"/>
<path fill="currentColor"
	d="M90.43 76.01c0.9 3.7 9.1 6.4 6 12.4
	c1 -5.4 -4.2 -8.4 -6 -8.4
M90.43 81.41c0.9 3.7 9.1 6.4 6 12.4
	c1 -5.4 -4.2 -8.4 -6 -8.4
"/>
<path fill="currentColor"
	d="M108.53 119.21l36.20 -5.20v-3.20l-36.20 5.20"/>
<path fill="currentColor"
	d="M108.93 114.21l35.50 -5.10v-3.20l-35.50 5.10"/>
<use x="112.43" y="97.01" xlink:href="#hd"/>
<defs>
<path id="usharp" fill="currentColor" d="
	m136 -702
	v890
	h32
	v-890
	m128 840
	h32
	v-888
	h-32
	m-232 286
	v116
	l338 -96
	v-116
	m-338 442
	v116
	l338 -98
	v-114"/>
<use id="sh0" transform="translate(-4,5) scale(0.018)"
	xlink:href="#usharp"/>
</defs>
<use x="103.43" y="97.01" xlink:href="#sh0"/>
<path d="M108.93 97.01v21.20" stroke="currentColor" fill="none"/>
<use x="130.13" y="88.01" xlink:href="#hd"/>
<path d="M126.63 88.01v27.60" stroke="currentColor" fill="none"/>
<use x="147.93" y="85.01" xlink:href="#hd"/>
<path d="M144.43 85.01v28.10" stroke="currentColor" fill="none"/>
<path fill="currentColor"
	d="M163.83 104.21l18.40 -2.30v-3.20l-18.40 2.30"/>
<path fill="currentColor"
	d="M164.13 99.21l17.80 -2.20v-3.20l-17.80 2.20"/>
<use x="167.63" y="82.01" xlink:href="#hd"/>
<path d="M164.13 82.01v21.20" stroke="currentColor" fill="none"/>
<use x="185.43" y="79.01" xlink:href="#hd"/>
<path d="M181.93 79.01v22.00" stroke="currentColor" fill="none"/>
<use x="205.23" y="79.01" xlink:href="#hd"/>
<use x="196.23" y="79.01" xlink:href="#sh0"/>
<path d="M201.73 79.01v20.00" stroke="currentColor" fill="none"/>
<path fill="currentColor"
	d="M251.33 101.01l44.70 0.00v-3.20l-44.70 -0.00"/>
<path fill="currentColor"
	d="M251.73 96.01l44.00 0.00v-3.20l-44.00 -0.00"/>
<path fill="currentColor"
	d="M289.73 91.01l6.00 0.00v-3.20l-6.00 -0.00"/>
<use x="255.23" y="79.01" xlink:href="#hd"/>
<circle fill="currentColor" cx="263.23" cy="79.01" r="1.2"/>
<use x="246.23" y="79.01" xlink:href="#sh0"/>
<path d="M251.73 79.01v21.00" stroke="currentColor" fill="none"/>
<use x="280.73" y="79.01" xlink:href="#hd"/>
<defs>
<path id="unat" fill="currentColor" d="
	m96 -750
	h-32
	v716
	l32 -8
	l182 -54
	v282
	h32
	v-706
	l-34 10
	l-180 50
	v-290
	m0 592
	v-190
	l182 -52
	v188"/>
<use id="nt0" transform="translate(-3,5) scale(0.018)"
	xlink:href="#unat"/>
</defs>
<use x="271.73" y="79.01" xlink:href="#nt0"/>
<path d="M277.23 79.01v21.00" stroke="currentColor" fill="none"/>
<defs>
<path id="hl" stroke="currentColor" d="m-6 0h12"/>
</defs>
<use x="299.23" y="76.01" xlink:href="#hl"/>
<use x="299.23" y="70.01" xlink:href="#hl"/>
<use x="299.23" y="70.01" xlink:href="#hd"/>
<use x="290.23" y="70.01" xlink:href="#sh0"/>
<path d="M295.73 70.01v30.00" stroke="currentColor" fill="none"/>
<use x="299.23" y="79.01" xlink:href="#hd"/>
<use x="317.73" y="76.01" xlink:href="#hl"/>
<use x="317.73" y="70.01" xlink:href="#hl"/>
<use x="317.73" y="70.01" xlink:href="#hd"/>
<use x="308.73" y="70.01" xlink:href="#sh0"/>
<path d="M314.23 70.01v24.00" stroke="currentColor" fill="none"/>
<path fill="currentColor"
	d="M314.23 94.01c0.9 -3.7 9.1 -6.4 6 -12.4
	c1 5.4 -4.2 8.4 -6 8.4
M314.23 88.61c0.9 -3.7 9.1 -6.4 6 -12.4
	c1 5.4 -4.2 8.4 -6 8.4
"/>
<path fill="currentColor"
	d="M333.73 95.61l39.90 2.60v-3.20l-39.90 -2.60"/>
<use x="337.53" y="76.01" xlink:href="#hl"/>
<use x="337.53" y="70.01" xlink:href="#hl"/>
<use x="337.53" y="70.01" xlink:href="#hd"/>
<use x="328.53" y="70.01" xlink:href="#nt0"/>
<path d="M334.03 70.01v24.60" stroke="currentColor" fill="none"/>
<use x="357.13" y="76.01" xlink:href="#hl"/>
<use x="357.13" y="73.01" xlink:href="#hd"/>
<path d="M353.63 73.01v22.90" stroke="currentColor" fill="none"/>
<use x="376.73" y="79.01" xlink:href="#hd"/>
<path d="M373.23 79.01v18.20" stroke="currentColor" fill="none"/>
<use x="398.53" y="79.01" xlink:href="#hd"/>
<use x="389.53" y="79.01" xlink:href="#sh0"/>
<path d="M395.03 79.01v20.00" stroke="currentColor" fill="none"/>
<path fill="currentColor"
	d="M444.73 101.01l44.70 0.00v-3.20l-44.70 -0.00"/>
<path fill="currentColor"
	d="M445.03 96.01l44.00 0.00v-3.20l-44.00 -0.00"/>
<path fill="currentColor"
	d="M483.03 91.01l6.00 0.00v-3.20l-6.00 -0.00"/>
<use x="448.53" y="79.01" xlink:href="#hd"/>
<circle fill="currentColor" cx="456.53" cy="79.01" r="1.2"/>
<use x="439.53" y="79.01" xlink:href="#sh0"/>
<path d="M445.03 79.01v21.00" stroke="currentColor" fill="none"/>
<use x="474.03" y="79.01" xlink:href="#hd"/>
<use x="465.03" y="79.01" xlink:href="#nt0"/>
<path d="M470.53 79.01v21.00" stroke="currentColor" fill="none"/>
<use x="492.53" y="76.01" xlink:href="#hl"/>
<use x="492.53" y="70.01" xlink:href="#hl"/>
<use x="492.53" y="70.01" xlink:href="#hd"/>
<use x="483.53" y="70.01" xlink:href="#sh0"/>
<path d="M489.03 70.01v30.00" stroke="currentColor" fill="none"/>
<use x="492.53" y="79.01" xlink:href="#hd"/>
<use x="511.03" y="76.01" xlink:href="#hl"/>
<use x="511.03" y="70.01" xlink:href="#hl"/>
<use x="511.03" y="70.01" xlink:href="#hd"/>
<use x="502.03" y="70.01" xlink:href="#sh0"/>
<path d="M507.53 70.01v24.00" stroke="currentColor" fill="none"/>
<path fill="currentColor"
	d="M507.53 94.01c0.9 -3.7 9.1 -6.4 6 -12.4
	c1 5.4 -4.2 8.4 -6 8.4
M507.53 88.61c0.9 -3.7 9.1 -6.4 6 -12.4
	c1 5.4 -4.2 8.4 -6 8.4
"/>
<path fill="currentColor"
	d="M527.03 95.61l39.90 2.60v-3.20l-39.90 -2.60"/>
<use x="530.83" y="76.01" xlink:href="#hl"/>
<use x="530.83" y="70.01" xlink:href="#hl"/>
<use x="530.83" y="70.01" xlink:href="#hd"/>
<use x="521.83" y="70.01" xlink:href="#nt0"/>
<path d="M527.33 70.01v24.60" stroke="currentColor" fill="none"/>
<use x="550.43" y="76.01" xlink:href="#hl"/>
<use x="550.43" y="73.01" xlink:href="#hd"/>
<path d="M546.93 73.01v22.90" stroke="currentColor" fill="none"/>
<use x="570.03" y="79.01" xlink:href="#hd"/>
<path d="M566.53 79.01v18.20" stroke="currentColor" fill="none"/>
<path fill="currentColor"
	d="M588.03 104.91l40.00 5.40v-3.20l-40.00 -5.40"/>
<use x="591.93" y="79.01" xlink:href="#hd"/>
<use x="582.93" y="79.01" xlink:href="#sh0"/>
<path d="M588.43 79.01v24.90" stroke="currentColor" fill="none"/>
<use x="611.63" y="79.01" xlink:href="#hd"/>
<use x="602.63" y="79.01" xlink:href="#nt0"/>
<path d="M608.13 79.01v27.60" stroke="currentColor" fill="none"/>
<use x="631.23" y="91.01" xlink:href="#hd"/>
<path d="M627.73 91.01v18.20" stroke="currentColor" fill="none"/>
<use x="667.13" y="91.01" xlink:href="#hd"/>
<use x="658.13" y="91.01" xlink:href="#sh0"/>
<path d="M663.63 91.01v20.00" stroke="currentColor" fill="none"/>
<path fill="currentColor"
	d="M663.63 111.01c0.6 -5.6 9.6 -9 5.6 -18.4
	c1.6 6 -1.3 11.6 -5.6 12.8
"/>
<path fill="currentColor"
	d="M208.73 77.01c6.71 -5.27 36.28 -5.27 43.00 -0.00
	l0.00 -0.24c-8.00 -7.03 -34.99 -7.03 -43.00 0.24"/>
<path fill="currentColor"
	d="M280.73 77.01c2.91 -4.83 15.59 -4.83 18.50 -0.00
	l0.00 -0.22c-3.47 -6.61 -15.03 -6.61 -18.50 0.22"/>
<path fill="currentColor"
	d="M299.23 70.01c2.91 -4.83 15.59 -4.83 18.50 -0.00
	l0.00 -0.22c-3.47 -6.61 -15.03 -6.61 -18.50 0.22"/>
<path fill="currentColor"
	d="M402.03 77.01c6.71 -5.27 36.28 -5.27 43.00 -0.00
	l0.00 -0.24c-8.00 -7.03 -34.99 -7.03 -43.00 0.24"/>
<path fill="currentColor"
	d="M474.03 77.01c2.91 -4.83 15.59 -4.83 18.50 -0.00
	l0.00 -0.22c-3.47 -6.61 -15.03 -6.61 -18.50 0.22"/>
<path fill="currentColor"
	d="M492.53 70.01c2.91 -4.83 15.59 -4.83 18.50 -0.00
	l0.00 -0.22c-3.47 -6.61 -15.03 -6.61 -18.50 0.22"/>
</g>
</svg>
