<?xml version="1.0" standalone="no"?>
<!DOCTYPE svg PUBLIC "-//W3C//DTD SVG 1.1//EN"
	"http://www.w3.org/Graphics/SVG/1.1/DTD/svg11.dtd">
<svg xmlns="http://www.w3.org/2000/svg" version="1.1"
	xmlns:xlink="http://www.w3.org/1999/xlink"
	xml:space='preserve' color="black"
	width="7.38in" height="1.43in" viewBox="0 0 531 103">
<title>3041.abc (3041) tune 1</title>
<!-- Creator: abcm2ps-7.8.14 -->
<!-- CreationDate: Mar 13, 2016 18:54 -->
<!-- CommandLine: -qxg 3041.abc -O ../svgs/3041.svg -->
<g transform="scale(0.750)" stroke-width="0.70" font-family="Times" font-size="20.00">
<text x="354.13" y="21.67" text-anchor="middle">3041.  Suite en Parties, Op. 91, 3rd. Mvt., 3rd. Theme</text>
</g>
<g transform="scale(0.750)" stroke-width="0.70" font-family="Times" font-size="14.00" font-style="italic">
<text x="694.93" y="45.34" text-anchor="end">Vincent D&apos;Indy</text>
</g>
<g transform="scale(0.525)" stroke-width="0.70" font-family="Times" font-size="14.00" font-style="italic">
<defs>
<ellipse id="hd" rx="4.1" ry="2.9"
	transform="rotate(-20)" fill="currentColor"/>
</defs>
<use x="130.61" y="94.16" xlink:href="#hd"/>
<path d="M134.11 94.16v-20.00" stroke="currentColor" fill="none"/>
</g>
<g transform="scale(0.750)" stroke-width="0.70" font-family="Times" font-size="15.00" font-weight="bold">
<text x="99.13" y="68.01">= 120</text>
<path stroke="currentColor" fill="none"
	d="M253.73 114.01v-24.00"/>
<path stroke="currentColor" fill="none"
	d="M429.93 114.01v-24.00"/>
<path stroke="currentColor" fill="none"
	d="M628.83 114.01v-24.00"/>
<path stroke="currentColor" fill="none"
	d="M13.33 114.01h681.60m-681.60 -6h681.60m-681.60 -6h681.60m-681.60 -6h681.60m-681.60 -6h681.60"/>
<defs>
<path id="utclef" fill="currentColor" d="m-50 -90
	c-72 -41 -72 -158 52 -188
	c150 -10 220 188 90 256
	c-114 52 -275 0 -293 -136
	c-15 -181 93 -229 220 -334
	c88 -87 79 -133 62 -210
	c-51 33 -94 105 -89 186
	c17 267 36 374 49 574
	c6 96 -19 134 -77 135
	c-80 1 -126 -93 -61 -133
	c85 -41 133 101 31 105
	c23 17 92 37 90 -92
	c-10 -223 -39 -342 -50 -617
	c0 -90 0 -162 96 -232
	c56 72 63 230 22 289
	c-74 106 -257 168 -255 316
	c9 153 148 185 252 133
	c86 -65 29 -192 -80 -176
	c-71 12 -105 67 -59 124"/>
<use id="tclef" transform="scale(0.045)"
	xlink:href="#utclef"/>
</defs>
<use x="25.33" y="114.01" xlink:href="#tclef"/>
<defs>
<path id="usharp" fill="currentColor" d="
	m136 -702
	v890
	h32
	v-890
	m128 840
	h32
	v-888
	h-32
	m-232 286
	v116
	l338 -96
	v-116
	m-338 442
	v116
	l338 -98
	v-114"/>
<use id="sh0" transform="translate(-4,5) scale(0.018)"
	xlink:href="#usharp"/>
</defs>
<use x="40.33" y="90.01" xlink:href="#sh0"/>
<use x="45.83" y="99.01" xlink:href="#sh0"/>
<use x="51.33" y="87.01" xlink:href="#sh0"/>
<use x="56.83" y="96.01" xlink:href="#sh0"/>
<g font-family="serif" font-size="16" font-weight="bold" font-style="normal"
	transform="translate(72.83,114.01) scale(1.2,1)">
	<text y="-1" text-anchor="middle">8</text>
	<text y="-13" text-anchor="middle">6</text>
</g>
<path fill="currentColor"
	d="M87.03 118.21l65.50 -8.20v-3.20l-65.50 8.20"/>
<path fill="currentColor"
	d="M135.23 107.21l17.00 -2.10v-3.20l-17.00 2.10"/>
<use x="90.83" y="99.01" xlink:href="#hd"/>
<path d="M87.33 99.01v18.20" stroke="currentColor" fill="none"/>
<use x="114.73" y="87.01" xlink:href="#hd"/>
<path d="M111.23 87.01v27.20" stroke="currentColor" fill="none"/>
<defs>
<path id="hl" stroke="currentColor" d="m-6 0h12"/>
</defs>
<use x="138.73" y="84.01" xlink:href="#hl"/>
<use x="138.73" y="78.01" xlink:href="#hl"/>
<use x="138.73" y="78.01" xlink:href="#hd"/>
<path d="M135.23 78.01v33.20" stroke="currentColor" fill="none"/>
<use x="155.73" y="84.01" xlink:href="#hl"/>
<use x="155.73" y="81.01" xlink:href="#hd"/>
<path d="M152.23 81.01v28.10" stroke="currentColor" fill="none"/>
<path fill="currentColor"
	d="M170.73 111.41l58.60 6.80v-3.20l-58.60 -6.80"/>
<path fill="currentColor"
	d="M171.03 106.51l17.00 2.00v-3.20l-17.00 -2.00"/>
<use x="174.53" y="84.01" xlink:href="#hl"/>
<use x="174.53" y="84.01" xlink:href="#hd"/>
<path d="M171.03 84.01v26.50" stroke="currentColor" fill="none"/>
<use x="191.53" y="84.01" xlink:href="#hl"/>
<use x="191.53" y="81.01" xlink:href="#hd"/>
<path d="M188.03 81.01v31.40" stroke="currentColor" fill="none"/>
<use x="208.43" y="84.01" xlink:href="#hl"/>
<use x="208.43" y="78.01" xlink:href="#hl"/>
<use x="208.43" y="78.01" xlink:href="#hd"/>
<path d="M204.93 78.01v36.40" stroke="currentColor" fill="none"/>
<use x="232.43" y="99.01" xlink:href="#hd"/>
<path d="M228.93 99.01v18.20" stroke="currentColor" fill="none"/>
<path fill="currentColor"
	d="M263.23 110.01l65.50 0.00v-3.20l-65.50 -0.00"/>
<path fill="currentColor"
	d="M311.53 105.01l17.00 0.00v-3.20l-17.00 -0.00"/>
<use x="267.13" y="84.01" xlink:href="#hl"/>
<use x="267.13" y="78.01" xlink:href="#hl"/>
<use x="267.13" y="78.01" xlink:href="#hd"/>
<path d="M263.63 78.01v31.00" stroke="currentColor" fill="none"/>
<use x="291.03" y="90.01" xlink:href="#hd"/>
<path d="M287.53 90.01v19.00" stroke="currentColor" fill="none"/>
<use x="315.03" y="84.01" xlink:href="#hl"/>
<use x="315.03" y="84.01" xlink:href="#hd"/>
<path d="M311.53 84.01v25.00" stroke="currentColor" fill="none"/>
<use x="331.93" y="87.01" xlink:href="#hd"/>
<path d="M328.43 87.01v22.00" stroke="currentColor" fill="none"/>
<path fill="currentColor"
	d="M346.93 117.71l58.50 6.50v-3.20l-58.50 -6.50"/>
<path fill="currentColor"
	d="M347.23 112.81l17.00 1.90v-3.20l-17.00 -1.90"/>
<use x="350.73" y="90.01" xlink:href="#hd"/>
<path d="M347.23 90.01v26.80" stroke="currentColor" fill="none"/>
<use x="367.73" y="87.01" xlink:href="#hd"/>
<path d="M364.23 87.01v31.60" stroke="currentColor" fill="none"/>
<use x="384.73" y="84.01" xlink:href="#hl"/>
<use x="384.73" y="84.01" xlink:href="#hd"/>
<path d="M381.23 84.01v36.50" stroke="currentColor" fill="none"/>
<use x="408.63" y="105.01" xlink:href="#hd"/>
<path d="M405.13 105.01v18.20" stroke="currentColor" fill="none"/>
<path fill="currentColor"
	d="M439.53 116.71l65.50 -4.00v-3.20l-65.50 4.00"/>
<path fill="currentColor"
	d="M487.73 108.71l17.00 -1.00v-3.20l-17.00 1.00"/>
<use x="443.33" y="84.01" xlink:href="#hl"/>
<use x="443.33" y="84.01" xlink:href="#hd"/>
<path d="M439.83 84.01v31.70" stroke="currentColor" fill="none"/>
<use x="467.23" y="96.01" xlink:href="#hd"/>
<path d="M463.73 96.01v18.20" stroke="currentColor" fill="none"/>
<use x="491.23" y="84.01" xlink:href="#hl"/>
<use x="491.23" y="78.01" xlink:href="#hl"/>
<use x="491.23" y="72.01" xlink:href="#hl"/>
<use x="491.23" y="66.01" xlink:href="#hl"/>
<use x="491.23" y="63.01" xlink:href="#hd"/>
<path d="M487.73 63.01v49.70" stroke="currentColor" fill="none"/>
<use x="508.13" y="84.01" xlink:href="#hl"/>
<use x="508.13" y="78.01" xlink:href="#hl"/>
<use x="508.13" y="72.01" xlink:href="#hl"/>
<use x="508.13" y="66.01" xlink:href="#hl"/>
<use x="508.13" y="66.01" xlink:href="#hd"/>
<path d="M504.63 66.01v45.70" stroke="currentColor" fill="none"/>
<path fill="currentColor"
	d="M523.23 102.21l34.60 0.00v-3.20l-34.60 -0.00"/>
<path fill="currentColor"
	d="M523.53 97.21l33.90 0.00v-3.20l-33.90 -0.00"/>
<use x="527.03" y="84.01" xlink:href="#hl"/>
<use x="527.03" y="78.01" xlink:href="#hl"/>
<use x="527.03" y="72.01" xlink:href="#hl"/>
<use x="527.03" y="69.01" xlink:href="#hd"/>
<path d="M523.53 69.01v32.20" stroke="currentColor" fill="none"/>
<use x="544.03" y="84.01" xlink:href="#hl"/>
<use x="544.03" y="78.01" xlink:href="#hl"/>
<use x="544.03" y="72.01" xlink:href="#hl"/>
<use x="544.03" y="72.01" xlink:href="#hd"/>
<path d="M540.53 72.01v29.20" stroke="currentColor" fill="none"/>
<use x="560.93" y="84.01" xlink:href="#hl"/>
<use x="560.93" y="78.01" xlink:href="#hl"/>
<use x="560.93" y="75.01" xlink:href="#hd"/>
<path d="M557.43 75.01v26.20" stroke="currentColor" fill="none"/>
<path fill="currentColor"
	d="M575.93 108.21l34.60 0.00v-3.20l-34.60 -0.00"/>
<path fill="currentColor"
	d="M576.33 103.21l33.90 0.00v-3.20l-33.90 -0.00"/>
<use x="579.83" y="84.01" xlink:href="#hl"/>
<use x="579.83" y="78.01" xlink:href="#hl"/>
<use x="579.83" y="78.01" xlink:href="#hd"/>
<path d="M576.33 78.01v29.20" stroke="currentColor" fill="none"/>
<use x="596.83" y="84.01" xlink:href="#hl"/>
<use x="596.83" y="81.01" xlink:href="#hd"/>
<path d="M593.33 81.01v26.20" stroke="currentColor" fill="none"/>
<use x="613.73" y="84.01" xlink:href="#hl"/>
<use x="613.73" y="84.01" xlink:href="#hd"/>
<path d="M610.23 84.01v23.20" stroke="currentColor" fill="none"/>
<path fill="currentColor"
	d="M638.43 110.71l34.60 4.50v-3.20l-34.60 -4.50"/>
<path fill="currentColor"
	d="M638.73 105.81l33.90 4.40v-3.20l-33.90 -4.40"/>
<use x="642.23" y="87.01" xlink:href="#hd"/>
<path d="M638.73 87.01v22.80" stroke="currentColor" fill="none"/>
<use x="659.23" y="90.01" xlink:href="#hd"/>
<path d="M655.73 90.01v22.00" stroke="currentColor" fill="none"/>
<use x="676.13" y="93.01" xlink:href="#hd"/>
<path d="M672.63 93.01v21.20" stroke="currentColor" fill="none"/>
</g>
</svg>
