<?xml version="1.0" standalone="no"?>
<!DOCTYPE svg PUBLIC "-//W3C//DTD SVG 1.1//EN"
	"http://www.w3.org/Graphics/SVG/1.1/DTD/svg11.dtd">
<svg xmlns="http://www.w3.org/2000/svg" version="1.1"
	xmlns:xlink="http://www.w3.org/1999/xlink"
	xml:space='preserve' color="black"
	width="7.38in" height="1.39in" viewBox="0 0 531 100">
<title>3046.abc (3046) tune 1</title>
<!-- Creator: abcm2ps-7.8.14 -->
<!-- CreationDate: Mar 13, 2016 18:54 -->
<!-- CommandLine: -qxg 3046.abc -O ../svgs/3046.svg -->
<g transform="scale(0.750)" stroke-width="0.70" font-family="Times" font-size="20.00">
<text x="354.13" y="21.67" text-anchor="middle">3046.  Symphony on a French Mountain Theme, Op. 25, 3rd. Mvt., 1st. Theme</text>
</g>
<g transform="scale(0.750)" stroke-width="0.70" font-family="Times" font-size="14.00" font-style="italic">
<text x="694.93" y="45.34" text-anchor="end">Vincent D&apos;Indy</text>
</g>
<g transform="scale(0.525)" stroke-width="0.70" font-family="Times" font-size="14.00" font-style="italic">
<defs>
<ellipse id="hd" rx="4.1" ry="2.9"
	transform="rotate(-20)" fill="currentColor"/>
</defs>
<use x="107.04" y="94.16" xlink:href="#hd"/>
<path d="M110.54 94.16v-20.00" stroke="currentColor" fill="none"/>
</g>
<g transform="scale(0.750)" stroke-width="0.70" font-family="Times" font-size="15.00" font-weight="bold">
<text x="82.63" y="68.01">= 120</text>
<path stroke="currentColor" fill="none"
	d="M120.93 110.01v-24.00"/>
<path stroke="currentColor" fill="none"
	d="M179.93 110.01v-24.00"/>
<path stroke="currentColor" fill="none"
	d="M229.73 110.01v-24.00"/>
<path stroke="currentColor" fill="none"
	d="M279.63 110.01v-24.00"/>
<path stroke="currentColor" fill="none"
	d="M315.63 110.01v-24.00"/>
<path stroke="currentColor" fill="none"
	d="M351.53 110.01v-24.00"/>
<path stroke="currentColor" fill="none"
	d="M387.53 110.01v-24.00"/>
<path stroke="currentColor" fill="none"
	d="M437.43 110.01v-24.00"/>
<path stroke="currentColor" fill="none"
	d="M498.33 110.01v-24.00"/>
<path stroke="currentColor" fill="none"
	d="M559.33 110.01v-24.00"/>
<path stroke="currentColor" fill="none"
	d="M609.13 110.01v-24.00"/>
<path stroke="currentColor" fill="none"
	d="M658.93 110.01v-24.00"/>
<path stroke="currentColor" fill="none"
	d="M694.93 110.01v-24.00"/>
<path stroke="currentColor" fill="none"
	d="M13.33 110.01h681.60m-681.60 -6h681.60m-681.60 -6h681.60m-681.60 -6h681.60m-681.60 -6h681.60"/>
<defs>
<path id="utclef" fill="currentColor" d="m-50 -90
	c-72 -41 -72 -158 52 -188
	c150 -10 220 188 90 256
	c-114 52 -275 0 -293 -136
	c-15 -181 93 -229 220 -334
	c88 -87 79 -133 62 -210
	c-51 33 -94 105 -89 186
	c17 267 36 374 49 574
	c6 96 -19 134 -77 135
	c-80 1 -126 -93 -61 -133
	c85 -41 133 101 31 105
	c23 17 92 37 90 -92
	c-10 -223 -39 -342 -50 -617
	c0 -90 0 -162 96 -232
	c56 72 63 230 22 289
	c-74 106 -257 168 -255 316
	c9 153 148 185 252 133
	c86 -65 29 -192 -80 -176
	c-71 12 -105 67 -59 124"/>
<use id="tclef" transform="scale(0.045)"
	xlink:href="#utclef"/>
</defs>
<use x="25.33" y="110.01" xlink:href="#tclef"/>
<defs>
<path id="usharp" fill="currentColor" d="
	m136 -702
	v890
	h32
	v-890
	m128 840
	h32
	v-888
	h-32
	m-232 286
	v116
	l338 -96
	v-116
	m-338 442
	v116
	l338 -98
	v-114"/>
<use id="sh0" transform="translate(-4,5) scale(0.018)"
	xlink:href="#usharp"/>
</defs>
<use x="40.33" y="86.01" xlink:href="#sh0"/>
<g font-family="serif" font-size="16" font-weight="bold" font-style="normal"
	transform="translate(56.33,110.01) scale(1.2,1)">
	<text y="-1" text-anchor="middle">4</text>
	<text y="-13" text-anchor="middle">2</text>
</g>
<use x="74.33" y="98.01" xlink:href="#hd"/>
<circle fill="currentColor" cx="82.33" cy="95.01" r="1.2"/>
<path d="M70.83 98.01v20.00" stroke="currentColor" fill="none"/>
<path fill="currentColor"
	d="M103.53 75.71l11.30 2.00v3.20l-11.30 -2.00"/>
<path fill="currentColor"
	d="M103.83 80.81l10.60 1.90v3.20l-10.60 -1.90"/>
<use x="100.33" y="98.01" xlink:href="#hd"/>
<path d="M103.83 98.01v-21.20" stroke="currentColor" fill="none"/>
<use x="110.93" y="101.01" xlink:href="#hd"/>
<path d="M114.43 101.01v-22.30" stroke="currentColor" fill="none"/>
<use x="133.43" y="98.01" xlink:href="#hd"/>
<circle fill="currentColor" cx="141.43" cy="95.01" r="1.2"/>
<path d="M129.93 98.01v20.00" stroke="currentColor" fill="none"/>
<path fill="currentColor"
	d="M162.53 75.71l11.30 2.00v3.20l-11.30 -2.00"/>
<path fill="currentColor"
	d="M162.93 80.81l10.60 1.90v3.20l-10.60 -1.90"/>
<use x="159.43" y="98.01" xlink:href="#hd"/>
<path d="M162.93 98.01v-21.20" stroke="currentColor" fill="none"/>
<use x="170.03" y="101.01" xlink:href="#hd"/>
<path d="M173.53 101.01v-22.30" stroke="currentColor" fill="none"/>
<use x="192.43" y="98.01" xlink:href="#hd"/>
<path d="M188.93 98.01v20.00" stroke="currentColor" fill="none"/>
<use x="212.83" y="92.01" xlink:href="#hd"/>
<path d="M209.33 92.01v20.00" stroke="currentColor" fill="none"/>
<use x="242.23" y="98.01" xlink:href="#hd"/>
<path d="M245.73 98.01v-20.00" stroke="currentColor" fill="none"/>
<use x="262.63" y="101.01" xlink:href="#hd"/>
<path d="M266.13 101.01v-20.00" stroke="currentColor" fill="none"/>
<defs>
<path id="Hd" fill="currentColor" d="m3 -1.6
	c-1 -1.8 -7 1.4 -6 3.2
	c1 1.8 7 -1.4 6 -3.2
	m0.5 -0.3
	c2 3.8 -5 7.6 -7 3.8
	c-2 -3.8 5 -7.6 7 -3.8"/>
</defs>
<use x="292.63" y="98.01" xlink:href="#Hd"/>
<path d="M289.13 98.01v20.00" stroke="currentColor" fill="none"/>
<use x="328.63" y="98.01" xlink:href="#Hd"/>
<path d="M325.13 98.01v20.00" stroke="currentColor" fill="none"/>
<use x="364.53" y="98.01" xlink:href="#Hd"/>
<path d="M361.03 98.01v20.00" stroke="currentColor" fill="none"/>
<use x="400.03" y="98.01" xlink:href="#hd"/>
<path d="M396.53 98.01v20.00" stroke="currentColor" fill="none"/>
<defs>
<path id="r4" fill="currentColor" d="m-1 -8.5
	l3.6 5.1 -2.1 5.2 2.2 4.3
	c-2.6 -2.3 -5.1 0 -2.4 2.6
	c-4.8 -3 -1.5 -6.9 1.4 -4.1
	l-3.1 -4.5 1.9 -5.1 -1.5 -3.5"/>
</defs>
<use x="420.43" y="98.01" xlink:href="#r4"/>
<use x="449.93" y="92.01" xlink:href="#hd"/>
<circle fill="currentColor" cx="457.93" cy="89.01" r="1.2"/>
<path d="M446.43 92.01v20.00" stroke="currentColor" fill="none"/>
<path fill="currentColor"
	d="M473.93 115.21l11.30 2.00v-3.20l-11.30 -2.00"/>
<path fill="currentColor"
	d="M474.23 110.31l10.60 1.90v-3.20l-10.60 -1.90"/>
<use x="477.73" y="92.01" xlink:href="#hd"/>
<path d="M474.23 92.01v22.30" stroke="currentColor" fill="none"/>
<use x="488.43" y="95.01" xlink:href="#hd"/>
<path d="M484.93 95.01v21.20" stroke="currentColor" fill="none"/>
<use x="510.83" y="92.01" xlink:href="#hd"/>
<circle fill="currentColor" cx="518.83" cy="89.01" r="1.2"/>
<path d="M507.33 92.01v20.00" stroke="currentColor" fill="none"/>
<path fill="currentColor"
	d="M534.93 115.21l11.30 2.00v-3.20l-11.30 -2.00"/>
<path fill="currentColor"
	d="M535.23 110.31l10.60 1.90v-3.20l-10.60 -1.90"/>
<use x="538.73" y="92.01" xlink:href="#hd"/>
<path d="M535.23 92.01v22.30" stroke="currentColor" fill="none"/>
<use x="549.33" y="95.01" xlink:href="#hd"/>
<path d="M545.83 95.01v21.20" stroke="currentColor" fill="none"/>
<use x="571.83" y="92.01" xlink:href="#hd"/>
<path d="M568.33 92.01v20.00" stroke="currentColor" fill="none"/>
<use x="592.13" y="83.01" xlink:href="#hd"/>
<path d="M588.63 83.01v20.00" stroke="currentColor" fill="none"/>
<use x="621.63" y="92.01" xlink:href="#hd"/>
<path d="M618.13 92.01v20.00" stroke="currentColor" fill="none"/>
<use x="641.93" y="95.01" xlink:href="#hd"/>
<path d="M638.43 95.01v20.00" stroke="currentColor" fill="none"/>
<use x="671.93" y="92.01" xlink:href="#Hd"/>
<path d="M668.43 92.01v20.00" stroke="currentColor" fill="none"/>
<path fill="currentColor"
	d="M77.83 92.01c2.99 -4.84 16.01 -4.84 19.00 -0.00
	l0.00 -0.22c-3.56 -6.62 -15.44 -6.62 -19.00 0.22"/>
<path fill="currentColor"
	d="M136.93 92.01c2.99 -4.84 16.01 -4.84 19.00 -0.00
	l0.00 -0.22c-3.56 -6.62 -15.44 -6.62 -19.00 0.22"/>
<path fill="currentColor"
	d="M296.13 98.01c4.57 -5.02 24.42 -5.02 28.98 -0.00
	l0.00 -0.23c-5.43 -6.79 -23.55 -6.79 -28.98 0.23"/>
<path fill="currentColor"
	d="M332.13 98.01c4.57 -5.02 24.42 -5.02 28.98 -0.00
	l0.00 -0.23c-5.43 -6.79 -23.55 -6.79 -28.98 0.23"/>
<path fill="currentColor"
	d="M368.03 98.01c4.49 -5.01 24.00 -5.01 28.48 -0.00
	l0.00 -0.23c-5.34 -6.78 -23.14 -6.78 -28.48 0.23"/>
<path fill="currentColor"
	d="M453.43 86.01c3.29 -4.88 17.61 -4.88 20.90 -0.00
	l0.00 -0.22c-3.92 -6.66 -16.98 -6.66 -20.90 0.22"/>
<path fill="currentColor"
	d="M514.33 86.01c3.29 -4.88 17.61 -4.88 20.90 -0.00
	l0.00 -0.22c-3.92 -6.66 -16.98 -6.66 -20.90 0.22"/>
</g>
</svg>
