<?xml version="1.0" standalone="no"?>
<!DOCTYPE svg PUBLIC "-//W3C//DTD SVG 1.1//EN"
	"http://www.w3.org/Graphics/SVG/1.1/DTD/svg11.dtd">
<svg xmlns="http://www.w3.org/2000/svg" version="1.1"
	xmlns:xlink="http://www.w3.org/1999/xlink"
	xml:space='preserve' color="black"
	width="7.38in" height="1.34in" viewBox="0 0 531 97">
<title>3071.abc (3071) tune 1</title>
<!-- Creator: abcm2ps-7.8.14 -->
<!-- CreationDate: Mar 13, 2016 18:54 -->
<!-- CommandLine: -qxg 3071.abc -O ../svgs/3071.svg -->
<g transform="scale(0.750)" stroke-width="0.70" font-family="Times" font-size="20.00">
<text x="354.13" y="21.67" text-anchor="middle">3071.  Caucasian Sketches, Op. 10, 4th. Mvt., Procession of the Sardar, 2nd. Theme</text>
</g>
<g transform="scale(0.750)" stroke-width="0.70" font-family="Times" font-size="14.00" font-style="italic">
<text x="694.93" y="45.34" text-anchor="end">Michael Ippolitoff-Ivanoff</text>
</g>
<g transform="scale(0.525)" stroke-width="0.70" font-family="Times" font-size="14.00" font-style="italic">
<defs>
<ellipse id="hd" rx="4.1" ry="2.9"
	transform="rotate(-20)" fill="currentColor"/>
</defs>
<use x="130.61" y="94.16" xlink:href="#hd"/>
<path d="M134.11 94.16v-20.00" stroke="currentColor" fill="none"/>
</g>
<g transform="scale(0.750)" stroke-width="0.70" font-family="Times" font-size="15.00" font-weight="bold">
<text x="99.13" y="68.01">= 120</text>
<path stroke="currentColor" fill="none"
	d="M362.03 106.01v-24.00"/>
<path stroke="currentColor" fill="none"
	d="M546.03 106.01v-24.00"/>
<path stroke="currentColor" fill="none"
	d="M13.33 106.01h681.60m-681.60 -6h681.60m-681.60 -6h681.60m-681.60 -6h681.60m-681.60 -6h681.60"/>
<path stroke="currentColor" fill="none"
	d="M147.33 70.61v-3l38.10 4.00v3"/>
<rect x="159.33" y="63.61" width="14.00" height="12" fill="white"/>
<text font-family="serif" font-size="12" font-style="italic" font-weight="normal"
	x="166.33" y="73.61" text-anchor="middle">3</text>
<defs>
<path id="utclef" fill="currentColor" d="m-50 -90
	c-72 -41 -72 -158 52 -188
	c150 -10 220 188 90 256
	c-114 52 -275 0 -293 -136
	c-15 -181 93 -229 220 -334
	c88 -87 79 -133 62 -210
	c-51 33 -94 105 -89 186
	c17 267 36 374 49 574
	c6 96 -19 134 -77 135
	c-80 1 -126 -93 -61 -133
	c85 -41 133 101 31 105
	c23 17 92 37 90 -92
	c-10 -223 -39 -342 -50 -617
	c0 -90 0 -162 96 -232
	c56 72 63 230 22 289
	c-74 106 -257 168 -255 316
	c9 153 148 185 252 133
	c86 -65 29 -192 -80 -176
	c-71 12 -105 67 -59 124"/>
<use id="tclef" transform="scale(0.045)"
	xlink:href="#utclef"/>
</defs>
<use x="25.33" y="106.01" xlink:href="#tclef"/>
<defs>
<path id="usharp" fill="currentColor" d="
	m136 -702
	v890
	h32
	v-890
	m128 840
	h32
	v-888
	h-32
	m-232 286
	v116
	l338 -96
	v-116
	m-338 442
	v116
	l338 -98
	v-114"/>
<use id="sh0" transform="translate(-4,5) scale(0.018)"
	xlink:href="#usharp"/>
</defs>
<use x="40.33" y="82.01" xlink:href="#sh0"/>
<use x="45.83" y="91.01" xlink:href="#sh0"/>
<use x="51.33" y="79.01" xlink:href="#sh0"/>
<use x="56.83" y="88.01" xlink:href="#sh0"/>
<g font-family="serif" font-size="16" font-weight="bold" font-style="normal"
	transform="translate(72.83,106.01) scale(1.2,1)">
	<text y="-1" text-anchor="middle">4</text>
	<text y="-13" text-anchor="middle">4</text>
</g>
<defs>
<path id="r8e" fill="currentColor" d="m 0 0
	c-1.5 1.5 -2.4 2 -3.6 2
	c2.4 -2.8 -2.8 -4 -2.8 -1.2
	c0 2.7 4.3 2.4 5.9 0.6"/>
<g id="r8">
	<path d="m3.3 -4l-3.4 9.6" stroke="currentColor" fill="none"/>
	<use x="3.4" y="-4" xlink:href="#r8e"/>
</g>
</defs>
<use x="90.83" y="94.01" xlink:href="#r8"/>
<use x="114.63" y="85.01" xlink:href="#hd"/>
<path d="M111.13 85.01v20.00" stroke="currentColor" fill="none"/>
<path fill="currentColor"
	d="M111.13 105.01c0.6 -5.6 9.6 -9 5.6 -18.4
	c1.6 6 -1.3 11.6 -5.6 12.8
"/>
<use x="139.13" y="85.01" xlink:href="#hd"/>
<path d="M135.63 85.01v25.00" stroke="currentColor" fill="none"/>
<path fill="currentColor"
	d="M135.63 110.01c0.9 -3.7 9.1 -6.4 6 -12.4
	c1 5.4 -4.2 8.4 -6 8.4
M135.63 104.61c0.9 -3.7 9.1 -6.4 6 -12.4
	c1 5.4 -4.2 8.4 -6 8.4
M135.63 99.21c0.9 -3.7 9.1 -6.4 6 -12.4
	c1 5.4 -4.2 8.4 -6 8.4
"/>
<path fill="currentColor"
	d="M147.43 112.91l72.00 5.40v-3.20l-72.00 -5.40"/>
<path fill="currentColor"
	d="M147.83 107.91l71.30 5.40v-3.20l-71.30 -5.40"/>
<path fill="currentColor"
	d="M190.03 106.11l29.00 2.20v-3.20l-29.00 -2.20"/>
<use x="151.33" y="82.01" xlink:href="#hd"/>
<path d="M147.83 82.01v29.90" stroke="currentColor" fill="none"/>
<use x="163.43" y="85.01" xlink:href="#hd"/>
<path d="M159.93 85.01v27.80" stroke="currentColor" fill="none"/>
<use x="181.43" y="88.01" xlink:href="#hd"/>
<defs>
<path id="unat" fill="currentColor" d="
	m96 -750
	h-32
	v716
	l32 -8
	l182 -54
	v282
	h32
	v-706
	l-34 10
	l-180 50
	v-290
	m0 592
	v-190
	l182 -52
	v188"/>
<use id="nt0" transform="translate(-3,5) scale(0.018)"
	xlink:href="#unat"/>
</defs>
<use x="172.43" y="88.01" xlink:href="#nt0"/>
<path d="M177.93 88.01v26.20" stroke="currentColor" fill="none"/>
<use x="193.53" y="85.01" xlink:href="#hd"/>
<path d="M190.03 85.01v30.10" stroke="currentColor" fill="none"/>
<defs>
<g id="r32">
	<path d="m4.8 -10l-5.5 21.6" stroke="currentColor" fill="none"/>
	<use x="4.9" y="-10" xlink:href="#r8e"/>
	<use x="3.4" y="-4" xlink:href="#r8e"/>
	<use x="1.9" y="2" xlink:href="#r8e"/>
</g>
</defs>
<use x="204.63" y="94.01" xlink:href="#r32"/>
<use x="222.63" y="88.01" xlink:href="#hd"/>
<use x="213.63" y="88.01" xlink:href="#nt0"/>
<path d="M219.13 88.01v29.30" stroke="currentColor" fill="none"/>
<path fill="currentColor"
	d="M230.93 113.21l18.70 -2.30v-3.20l-18.70 2.30"/>
<path fill="currentColor"
	d="M231.33 108.21l18.00 -2.30v-3.20l-18.00 2.30"/>
<use x="234.83" y="91.01" xlink:href="#hd"/>
<path d="M231.33 91.01v21.20" stroke="currentColor" fill="none"/>
<use x="252.83" y="88.01" xlink:href="#hd"/>
<use x="243.83" y="88.01" xlink:href="#nt0"/>
<path d="M249.33 88.01v21.90" stroke="currentColor" fill="none"/>
<path fill="currentColor"
	d="M265.93 114.01l16.00 2.30v-3.20l-16.00 -2.30"/>
<path fill="currentColor"
	d="M266.33 109.01l15.40 2.20v-3.20l-15.40 -2.20"/>
<use x="269.83" y="91.01" xlink:href="#hd"/>
<path d="M266.33 91.01v22.00" stroke="currentColor" fill="none"/>
<use x="285.13" y="94.01" xlink:href="#hd"/>
<path d="M281.63 94.01v21.20" stroke="currentColor" fill="none"/>
<path fill="currentColor"
	d="M298.33 114.01l16.00 2.30v-3.20l-16.00 -2.30"/>
<path fill="currentColor"
	d="M298.63 109.01l15.40 2.20v-3.20l-15.40 -2.20"/>
<use x="302.13" y="91.01" xlink:href="#hd"/>
<path d="M298.63 91.01v22.00" stroke="currentColor" fill="none"/>
<use x="317.53" y="94.01" xlink:href="#hd"/>
<path d="M314.03 94.01v21.20" stroke="currentColor" fill="none"/>
<path fill="currentColor"
	d="M336.03 74.01l16.00 -2.30v3.20l-16.00 2.30"/>
<path fill="currentColor"
	d="M336.43 79.01l15.40 -2.20v3.20l-15.40 2.20"/>
<use x="332.93" y="97.01" xlink:href="#hd"/>
<path d="M336.43 97.01v-22.00" stroke="currentColor" fill="none"/>
<use x="348.23" y="94.01" xlink:href="#hd"/>
<path d="M351.73 94.01v-21.20" stroke="currentColor" fill="none"/>
<path fill="currentColor"
	d="M377.63 74.71l16.00 3.50v3.20l-16.00 -3.50"/>
<path fill="currentColor"
	d="M378.03 79.81l15.40 3.40v3.20l-15.40 -3.40"/>
<use x="374.53" y="97.01" xlink:href="#hd"/>
<path d="M378.03 97.01v-21.20" stroke="currentColor" fill="none"/>
<use x="389.83" y="103.01" xlink:href="#hd"/>
<path d="M393.33 103.01v-23.80" stroke="currentColor" fill="none"/>
<path fill="currentColor"
	d="M410.03 77.81l16.00 2.30v3.20l-16.00 -2.30"/>
<path fill="currentColor"
	d="M410.33 82.81l15.40 2.20v3.20l-15.40 -2.20"/>
<use x="406.83" y="100.01" xlink:href="#hd"/>
<path d="M410.33 100.01v-21.20" stroke="currentColor" fill="none"/>
<use x="422.23" y="103.01" xlink:href="#hd"/>
<path d="M425.73 103.01v-22.00" stroke="currentColor" fill="none"/>
<use x="439.23" y="106.01" xlink:href="#hd"/>
<circle fill="currentColor" cx="447.23" cy="103.01" r="1.2"/>
<path d="M442.73 106.01v-20.00" stroke="currentColor" fill="none"/>
<use x="477.63" y="106.01" xlink:href="#hd"/>
<path d="M481.13 106.01v-20.00" stroke="currentColor" fill="none"/>
<path fill="currentColor"
	d="	M481.13 86.01c0.6 5.6 9.6 9 5.6 18.4
	c1.6 -6 -1.3 -11.6 -5.6 -12.8
"/>
<use x="501.93" y="97.01" xlink:href="#hd"/>
<path d="M505.43 97.01v-20.00" stroke="currentColor" fill="none"/>
<path fill="currentColor"
	d="	M505.43 77.01c0.6 5.6 9.6 9 5.6 18.4
	c1.6 -6 -1.3 -11.6 -5.6 -12.8
"/>
<use x="526.33" y="100.01" xlink:href="#hd"/>
<path d="M529.83 100.01v-20.00" stroke="currentColor" fill="none"/>
<path fill="currentColor"
	d="	M529.83 80.01c0.6 5.6 9.6 9 5.6 18.4
	c1.6 -6 -1.3 -11.6 -5.6 -12.8
"/>
<path fill="currentColor"
	d="M561.63 74.81l16.00 2.30v3.20l-16.00 -2.30"/>
<path fill="currentColor"
	d="M562.03 79.81l15.40 2.20v3.20l-15.40 -2.20"/>
<use x="558.53" y="97.01" xlink:href="#hd"/>
<path d="M562.03 97.01v-21.20" stroke="currentColor" fill="none"/>
<use x="573.83" y="100.01" xlink:href="#hd"/>
<path d="M577.33 100.01v-22.00" stroke="currentColor" fill="none"/>
<path fill="currentColor"
	d="M594.03 77.81l16.00 2.30v3.20l-16.00 -2.30"/>
<path fill="currentColor"
	d="M594.33 82.81l15.40 2.20v3.20l-15.40 -2.20"/>
<use x="590.83" y="100.01" xlink:href="#hd"/>
<path d="M594.33 100.01v-21.20" stroke="currentColor" fill="none"/>
<use x="606.23" y="103.01" xlink:href="#hd"/>
<path d="M609.73 103.01v-22.00" stroke="currentColor" fill="none"/>
<defs>
<path id="Hd" fill="currentColor" d="m3 -1.6
	c-1 -1.8 -7 1.4 -6 3.2
	c1 1.8 7 -1.4 6 -3.2
	m0.5 -0.3
	c2 3.8 -5 7.6 -7 3.8
	c-2 -3.8 5 -7.6 7 -3.8"/>
</defs>
<use x="623.23" y="106.01" xlink:href="#Hd"/>
<path d="M626.73 106.01v-20.00" stroke="currentColor" fill="none"/>
<use x="670.93" y="106.01" xlink:href="#hd"/>
<path d="M674.43 106.01v-20.00" stroke="currentColor" fill="none"/>
<path fill="currentColor"
	d="	M674.43 86.01c0.6 5.6 9.6 9 5.6 18.4
	c1.6 -6 -1.3 -11.6 -5.6 -12.8
"/>
<path fill="currentColor"
	d="M118.13 83.01c2.75 -4.81 14.70 -4.81 17.45 -0.00
	l0.00 -0.22c-3.27 -6.60 -14.18 -6.60 -17.45 0.22"/>
<path fill="currentColor"
	d="M626.73 106.01c6.39 5.23 34.28 5.23 40.67 -0.00
	l0.00 0.24c-7.61 6.99 -33.06 6.99 -40.67 -0.24"/>
</g>
</svg>
