<?xml version="1.0" standalone="no"?>
<!DOCTYPE svg PUBLIC "-//W3C//DTD SVG 1.1//EN"
	"http://www.w3.org/Graphics/SVG/1.1/DTD/svg11.dtd">
<svg xmlns="http://www.w3.org/2000/svg" version="1.1"
	xmlns:xlink="http://www.w3.org/1999/xlink"
	xml:space='preserve' color="black"
	width="7.38in" height="1.35in" viewBox="0 0 531 98">
<title>3090.abc (3090) tune 1</title>
<!-- Creator: abcm2ps-7.8.14 -->
<!-- CreationDate: Mar 13, 2016 18:54 -->
<!-- CommandLine: -qxg 3090.abc -O ../svgs/3090.svg -->
<g transform="scale(0.750)" stroke-width="0.70" font-family="Times" font-size="20.00">
<text x="354.13" y="21.67" text-anchor="middle">3090.  Concerto in E Flat, 3rd. Mvt., 1st. Theme</text>
</g>
<g transform="scale(0.750)" stroke-width="0.70" font-family="Times" font-size="14.00" font-style="italic">
<text x="694.93" y="45.34" text-anchor="end">John Ireland</text>
</g>
<g transform="scale(0.525)" stroke-width="0.70" font-family="Times" font-size="14.00" font-style="italic">
<defs>
<ellipse id="hd" rx="4.1" ry="2.9"
	transform="rotate(-20)" fill="currentColor"/>
</defs>
<use x="122.76" y="94.16" xlink:href="#hd"/>
<path d="M126.26 94.16v-20.00" stroke="currentColor" fill="none"/>
</g>
<g transform="scale(0.750)" stroke-width="0.70" font-family="Times" font-size="15.00" font-weight="bold">
<text x="93.63" y="68.01">= 120</text>
<path stroke="currentColor" fill="none"
	d="M212.23 107.01v-24.00"/>
<path stroke="currentColor" fill="none"
	d="M352.53 107.01v-24.00"/>
<path stroke="currentColor" fill="none"
	d="M491.63 107.01v-24.00"/>
<path stroke="currentColor" fill="none"
	d="M13.33 107.01h478.30m-478.30 -6h478.30m-478.30 -6h478.30m-478.30 -6h478.30m-478.30 -6h478.30"/>
<defs>
<path id="utclef" fill="currentColor" d="m-50 -90
	c-72 -41 -72 -158 52 -188
	c150 -10 220 188 90 256
	c-114 52 -275 0 -293 -136
	c-15 -181 93 -229 220 -334
	c88 -87 79 -133 62 -210
	c-51 33 -94 105 -89 186
	c17 267 36 374 49 574
	c6 96 -19 134 -77 135
	c-80 1 -126 -93 -61 -133
	c85 -41 133 101 31 105
	c23 17 92 37 90 -92
	c-10 -223 -39 -342 -50 -617
	c0 -90 0 -162 96 -232
	c56 72 63 230 22 289
	c-74 106 -257 168 -255 316
	c9 153 148 185 252 133
	c86 -65 29 -192 -80 -176
	c-71 12 -105 67 -59 124"/>
<use id="tclef" transform="scale(0.045)"
	xlink:href="#utclef"/>
</defs>
<use x="25.33" y="107.01" xlink:href="#tclef"/>
<defs>
<path id="uflat" fill="currentColor" d="
	m100 -746
	h32
	v734
	l-32 4
	m32 -332
	c46 -72 152 -90 208 -20
	c100 110 -120 326 -208 348
	m0 -28
	c54 0 200 -206 130 -290
	c-50 -60 -130 -4 -130 34"/>
<use id="ft0" transform="translate(-3.5,3.5) scale(0.018)"
	xlink:href="#uflat"/>
</defs>
<use x="40.33" y="95.01" xlink:href="#ft0"/>
<use x="45.83" y="86.01" xlink:href="#ft0"/>
<use x="51.33" y="98.01" xlink:href="#ft0"/>
<g font-family="serif" font-size="16" font-weight="bold" font-style="normal"
	transform="translate(67.33,107.01) scale(1.2,1)">
	<text y="-1" text-anchor="middle">4</text>
	<text y="-13" text-anchor="middle">2</text>
</g>
<path fill="currentColor"
	d="M88.53 84.11l18.70 -2.30v3.20l-18.70 2.30"/>
<path fill="currentColor"
	d="M88.83 89.01l18.00 -2.20v3.20l-18.00 2.20"/>
<use x="85.33" y="107.01" xlink:href="#hd"/>
<path d="M88.83 107.01v-22.00" stroke="currentColor" fill="none"/>
<use x="103.33" y="104.01" xlink:href="#hd"/>
<path d="M106.83 104.01v-21.20" stroke="currentColor" fill="none"/>
<path fill="currentColor"
	d="M126.53 75.81l18.70 2.30v3.20l-18.70 -2.30"/>
<path fill="currentColor"
	d="M126.83 80.81l18.00 2.20v3.20l-18.00 -2.20"/>
<use x="123.33" y="98.01" xlink:href="#hd"/>
<path d="M126.83 98.01v-21.20" stroke="currentColor" fill="none"/>
<use x="141.33" y="101.01" xlink:href="#hd"/>
<path d="M144.83 101.01v-22.00" stroke="currentColor" fill="none"/>
<use x="161.33" y="95.01" xlink:href="#hd"/>
<path d="M164.83 95.01v-20.00" stroke="currentColor" fill="none"/>
<path fill="currentColor"
	d="	M164.83 75.01c0.6 5.6 9.6 9 5.6 18.4
	c1.6 -6 -1.3 -11.6 -5.6 -12.8
"/>
<use x="189.63" y="95.01" xlink:href="#hd"/>
<path d="M193.13 95.01v-20.00" stroke="currentColor" fill="none"/>
<path fill="currentColor"
	d="	M193.13 75.01c0.6 5.6 9.6 9 5.6 18.4
	c1.6 -6 -1.3 -11.6 -5.6 -12.8
"/>
<defs>
<path id="r8e" fill="currentColor" d="m 0 0
	c-1.5 1.5 -2.4 2 -3.6 2
	c2.4 -2.8 -2.8 -4 -2.8 -1.2
	c0 2.7 4.3 2.4 5.9 0.6"/>
<g id="r32">
	<path d="m4.8 -10l-5.5 21.6" stroke="currentColor" fill="none"/>
	<use x="4.9" y="-10" xlink:href="#r8e"/>
	<use x="3.4" y="-4" xlink:href="#r8e"/>
	<use x="1.9" y="2" xlink:href="#r8e"/>
</g>
</defs>
<use x="226.43" y="95.01" xlink:href="#r32"/>
<use x="239.13" y="95.01" xlink:href="#hd"/>
<circle fill="currentColor" cx="252.13" cy="92.01" r="1.2"/>
<path d="M242.63 95.01v-21.00" stroke="currentColor" fill="none"/>
<path fill="currentColor"
	d="M242.63 74.01c0.9 3.7 9.1 6.4 6 12.4
	c1 -5.4 -4.2 -8.4 -6 -8.4
M242.63 79.41c0.9 3.7 9.1 6.4 6 12.4
	c1 -5.4 -4.2 -8.4 -6 -8.4
"/>
<use x="261.93" y="95.01" xlink:href="#hd"/>
<path d="M265.43 95.01v-20.00" stroke="currentColor" fill="none"/>
<path fill="currentColor"
	d="	M265.43 75.01c0.6 5.6 9.6 9 5.6 18.4
	c1.6 -6 -1.3 -11.6 -5.6 -12.8
"/>
<use x="290.23" y="86.01" xlink:href="#hd"/>
<path d="M286.73 86.01v20.00" stroke="currentColor" fill="none"/>
<path fill="currentColor"
	d="M286.73 106.01c0.6 -5.6 9.6 -9 5.6 -18.4
	c1.6 6 -1.3 11.6 -5.6 12.8
"/>
<path fill="currentColor"
	d="M314.73 111.91l18.70 2.30v-3.20l-18.70 -2.30"/>
<path fill="currentColor"
	d="M315.03 106.91l18.00 2.30v-3.20l-18.00 -2.30"/>
<use x="318.53" y="89.01" xlink:href="#hd"/>
<use x="309.53" y="89.01" xlink:href="#ft0"/>
<path d="M315.03 89.01v21.90" stroke="currentColor" fill="none"/>
<use x="336.53" y="92.01" xlink:href="#hd"/>
<path d="M333.03 92.01v21.20" stroke="currentColor" fill="none"/>
<use x="366.63" y="95.01" xlink:href="#hd"/>
<path d="M370.13 95.01v-21.00" stroke="currentColor" fill="none"/>
<path fill="currentColor"
	d="M370.13 74.01c0.9 3.7 9.1 6.4 6 12.4
	c1 -5.4 -4.2 -8.4 -6 -8.4
M370.13 79.41c0.9 3.7 9.1 6.4 6 12.4
	c1 -5.4 -4.2 -8.4 -6 -8.4
"/>
<defs>
<g id="r16">
	<path d="m3.3 -4l-4 15.6" stroke="currentColor" fill="none"/>
	<use x="3.4" y="-4" xlink:href="#r8e"/>
	<use x="1.9" y="2" xlink:href="#r8e"/>
</g>
</defs>
<use x="384.63" y="95.01" xlink:href="#r16"/>
<path fill="currentColor"
	d="M405.83 81.81l18.70 2.30v3.20l-18.70 -2.30"/>
<path fill="currentColor"
	d="M406.13 86.81l18.00 2.20v3.20l-18.00 -2.20"/>
<use x="402.63" y="104.01" xlink:href="#hd"/>
<path d="M406.13 104.01v-21.20" stroke="currentColor" fill="none"/>
<use x="420.63" y="107.01" xlink:href="#hd"/>
<path d="M424.13 107.01v-22.00" stroke="currentColor" fill="none"/>
<use x="440.63" y="95.01" xlink:href="#hd"/>
<path d="M437.13 95.01v20.00" stroke="currentColor" fill="none"/>
<path fill="currentColor"
	d="M437.13 115.01c0.6 -5.6 9.6 -9 5.6 -18.4
	c1.6 6 -1.3 11.6 -5.6 12.8
"/>
<use x="468.93" y="95.01" xlink:href="#hd"/>
<path d="M465.43 95.01v20.00" stroke="currentColor" fill="none"/>
<path fill="currentColor"
	d="M465.43 115.01c0.6 -5.6 9.6 -9 5.6 -18.4
	c1.6 6 -1.3 11.6 -5.6 12.8
"/>
</g>
</svg>
