<?xml version="1.0" standalone="no"?>
<!DOCTYPE svg PUBLIC "-//W3C//DTD SVG 1.1//EN"
	"http://www.w3.org/Graphics/SVG/1.1/DTD/svg11.dtd">
<svg xmlns="http://www.w3.org/2000/svg" version="1.1"
	xmlns:xlink="http://www.w3.org/1999/xlink"
	xml:space='preserve' color="black"
	width="7.38in" height="1.34in" viewBox="0 0 531 97">
<title>3099.abc (3099) tune 1</title>
<!-- Creator: abcm2ps-7.8.14 -->
<!-- CreationDate: Mar 13, 2016 18:54 -->
<!-- CommandLine: -qxg 3099.abc -O ../svgs/3099.svg -->
<g transform="scale(0.750)" stroke-width="0.70" font-family="Times" font-size="20.00">
<text x="354.13" y="21.67" text-anchor="middle">3099.  Phantasy in A Minor, 3rd. Theme</text>
</g>
<g transform="scale(0.750)" stroke-width="0.70" font-family="Times" font-size="14.00" font-style="italic">
<text x="694.93" y="45.34" text-anchor="end">John Ireland</text>
</g>
<g transform="scale(0.525)" stroke-width="0.70" font-family="Times" font-size="14.00" font-style="italic">
<defs>
<ellipse id="hd" rx="4.1" ry="2.9"
	transform="rotate(-20)" fill="currentColor"/>
</defs>
<use x="130.61" y="94.16" xlink:href="#hd"/>
<path d="M134.11 94.16v-20.00" stroke="currentColor" fill="none"/>
</g>
<g transform="scale(0.750)" stroke-width="0.70" font-family="Times" font-size="15.00" font-weight="bold">
<text x="99.13" y="68.01">= 120</text>
<path stroke="currentColor" fill="none"
	d="M223.73 106.01v-24.00"/>
<path stroke="currentColor" fill="none"
	d="M370.73 106.01v-24.00"/>
<path stroke="currentColor" fill="none"
	d="M453.03 106.01v-24.00"/>
<path stroke="currentColor" fill="none"
	d="M596.03 106.01v-24.00"/>
<path stroke="currentColor" fill="none"
	d="M13.33 106.01h681.60m-681.60 -6h681.60m-681.60 -6h681.60m-681.60 -6h681.60m-681.60 -6h681.60"/>
<defs>
<path id="utclef" fill="currentColor" d="m-50 -90
	c-72 -41 -72 -158 52 -188
	c150 -10 220 188 90 256
	c-114 52 -275 0 -293 -136
	c-15 -181 93 -229 220 -334
	c88 -87 79 -133 62 -210
	c-51 33 -94 105 -89 186
	c17 267 36 374 49 574
	c6 96 -19 134 -77 135
	c-80 1 -126 -93 -61 -133
	c85 -41 133 101 31 105
	c23 17 92 37 90 -92
	c-10 -223 -39 -342 -50 -617
	c0 -90 0 -162 96 -232
	c56 72 63 230 22 289
	c-74 106 -257 168 -255 316
	c9 153 148 185 252 133
	c86 -65 29 -192 -80 -176
	c-71 12 -105 67 -59 124"/>
<use id="tclef" transform="scale(0.045)"
	xlink:href="#utclef"/>
</defs>
<use x="25.33" y="106.01" xlink:href="#tclef"/>
<defs>
<path id="uflat" fill="currentColor" d="
	m100 -746
	h32
	v734
	l-32 4
	m32 -332
	c46 -72 152 -90 208 -20
	c100 110 -120 326 -208 348
	m0 -28
	c54 0 200 -206 130 -290
	c-50 -60 -130 -4 -130 34"/>
<use id="ft0" transform="translate(-3.5,3.5) scale(0.018)"
	xlink:href="#uflat"/>
</defs>
<use x="40.33" y="94.01" xlink:href="#ft0"/>
<use x="45.83" y="85.01" xlink:href="#ft0"/>
<use x="51.33" y="97.01" xlink:href="#ft0"/>
<use x="56.83" y="88.01" xlink:href="#ft0"/>
<g font-family="serif" font-size="16" font-weight="bold" font-style="normal"
	transform="translate(72.83,106.01) scale(1.2,1)">
	<text y="-1" text-anchor="middle">4</text>
	<text y="-13" text-anchor="middle">4</text>
</g>
<use x="90.83" y="106.01" xlink:href="#hd"/>
<path d="M94.33 106.01v-20.00" stroke="currentColor" fill="none"/>
<path fill="currentColor"
	d="	M94.33 86.01c0.6 5.6 9.6 9 5.6 18.4
	c1.6 -6 -1.3 -11.6 -5.6 -12.8
"/>
<defs>
<path id="r8e" fill="currentColor" d="m 0 0
	c-1.5 1.5 -2.4 2 -3.6 2
	c2.4 -2.8 -2.8 -4 -2.8 -1.2
	c0 2.7 4.3 2.4 5.9 0.6"/>
<g id="r16">
	<path d="m3.3 -4l-4 15.6" stroke="currentColor" fill="none"/>
	<use x="3.4" y="-4" xlink:href="#r8e"/>
	<use x="1.9" y="2" xlink:href="#r8e"/>
</g>
</defs>
<use x="109.53" y="94.01" xlink:href="#r16"/>
<use x="122.43" y="97.01" xlink:href="#hd"/>
<path d="M125.93 97.01v-21.00" stroke="currentColor" fill="none"/>
<path fill="currentColor"
	d="M125.93 76.01c0.9 3.7 9.1 6.4 6 12.4
	c1 -5.4 -4.2 -8.4 -6 -8.4
M125.93 81.41c0.9 3.7 9.1 6.4 6 12.4
	c1 -5.4 -4.2 -8.4 -6 -8.4
"/>
<use x="141.43" y="91.01" xlink:href="#hd"/>
<circle fill="currentColor" cx="149.43" cy="91.01" r="1.2"/>
<path d="M137.93 91.01v20.00" stroke="currentColor" fill="none"/>
<path fill="currentColor"
	d="M170.63 113.31l13.60 -2.20v-3.20l-13.60 2.20"/>
<path fill="currentColor"
	d="M171.03 108.21l12.90 -2.00v-3.20l-12.90 2.00"/>
<use x="174.53" y="91.01" xlink:href="#hd"/>
<path d="M171.03 91.01v21.20" stroke="currentColor" fill="none"/>
<use x="187.43" y="88.01" xlink:href="#hd"/>
<path d="M183.93 88.01v22.20" stroke="currentColor" fill="none"/>
<use x="201.63" y="85.01" xlink:href="#hd"/>
<path d="M198.13 85.01v20.00" stroke="currentColor" fill="none"/>
<path fill="currentColor"
	d="M232.43 108.01l123.50 0.00v-3.20l-123.50 -0.00"/>
<path fill="currentColor"
	d="M247.83 103.01l6.00 0.00v-3.20l-6.00 -0.00"/>
<path fill="currentColor"
	d="M281.73 103.01l6.00 0.00v-3.20l-6.00 -0.00"/>
<path fill="currentColor"
	d="M315.63 103.01l6.00 0.00v-3.20l-6.00 -0.00"/>
<path fill="currentColor"
	d="M349.63 103.01l6.00 0.00v-3.20l-6.00 -0.00"/>
<use x="236.23" y="85.01" xlink:href="#hd"/>
<circle fill="currentColor" cx="244.23" cy="85.01" r="1.2"/>
<path d="M232.73 85.01v22.00" stroke="currentColor" fill="none"/>
<use x="257.33" y="82.01" xlink:href="#hd"/>
<path d="M253.83 82.01v25.00" stroke="currentColor" fill="none"/>
<use x="270.23" y="91.01" xlink:href="#hd"/>
<circle fill="currentColor" cx="278.23" cy="91.01" r="1.2"/>
<path d="M266.73 91.01v16.00" stroke="currentColor" fill="none"/>
<use x="291.23" y="88.01" xlink:href="#hd"/>
<path d="M287.73 88.01v19.00" stroke="currentColor" fill="none"/>
<use x="304.13" y="85.01" xlink:href="#hd"/>
<circle fill="currentColor" cx="312.13" cy="85.01" r="1.2"/>
<path d="M300.63 85.01v22.00" stroke="currentColor" fill="none"/>
<use x="325.13" y="82.01" xlink:href="#hd"/>
<path d="M321.63 82.01v25.00" stroke="currentColor" fill="none"/>
<use x="338.03" y="91.01" xlink:href="#hd"/>
<circle fill="currentColor" cx="346.03" cy="91.01" r="1.2"/>
<path d="M334.53 91.01v16.00" stroke="currentColor" fill="none"/>
<use x="359.13" y="88.01" xlink:href="#hd"/>
<path d="M355.63 88.01v19.00" stroke="currentColor" fill="none"/>
<defs>
<path id="Hd" fill="currentColor" d="m3 -1.6
	c-1 -1.8 -7 1.4 -6 3.2
	c1 1.8 7 -1.4 6 -3.2
	m0.5 -0.3
	c2 3.8 -5 7.6 -7 3.8
	c-2 -3.8 5 -7.6 7 -3.8"/>
</defs>
<use x="383.73" y="85.01" xlink:href="#Hd"/>
<path d="M380.23 85.01v20.00" stroke="currentColor" fill="none"/>
<defs>
<path id="hl" stroke="currentColor" d="m-6 0h12"/>
</defs>
<use x="422.03" y="76.01" xlink:href="#hl"/>
<use x="422.03" y="70.01" xlink:href="#hl"/>
<use x="422.03" y="70.01" xlink:href="#Hd"/>
<path d="M418.53 70.01v24.00" stroke="currentColor" fill="none"/>
<use x="465.53" y="76.01" xlink:href="#hl"/>
<use x="465.53" y="73.01" xlink:href="#hd"/>
<path d="M462.03 73.01v21.00" stroke="currentColor" fill="none"/>
<use x="493.03" y="76.01" xlink:href="#hl"/>
<use x="493.03" y="70.01" xlink:href="#hl"/>
<use x="493.03" y="64.01" xlink:href="#hl"/>
<use x="493.03" y="61.01" xlink:href="#hd"/>
<path d="M489.53 61.01v33.00" stroke="currentColor" fill="none"/>
<use x="520.53" y="76.01" xlink:href="#hl"/>
<use x="520.53" y="70.01" xlink:href="#hl"/>
<use x="520.53" y="64.01" xlink:href="#hl"/>
<use x="520.53" y="64.01" xlink:href="#hd"/>
<path d="M517.03 64.01v30.00" stroke="currentColor" fill="none"/>
<path fill="currentColor"
	d="M517.03 94.01c0.6 -5.6 9.6 -9 5.6 -18.4
	c1.6 6 -1.3 11.6 -5.6 12.8
"/>
<use x="540.33" y="76.01" xlink:href="#hl"/>
<use x="540.33" y="70.01" xlink:href="#hl"/>
<use x="540.33" y="67.01" xlink:href="#hd"/>
<path d="M536.83 67.01v27.00" stroke="currentColor" fill="none"/>
<path fill="currentColor"
	d="M536.83 94.01c0.6 -5.6 9.6 -9 5.6 -18.4
	c1.6 6 -1.3 11.6 -5.6 12.8
"/>
<use x="560.23" y="76.01" xlink:href="#hl"/>
<use x="560.23" y="70.01" xlink:href="#hl"/>
<use x="560.23" y="70.01" xlink:href="#hd"/>
<path d="M556.73 70.01v24.00" stroke="currentColor" fill="none"/>
<path fill="currentColor"
	d="M556.73 94.01c0.6 -5.6 9.6 -9 5.6 -18.4
	c1.6 6 -1.3 11.6 -5.6 12.8
"/>
<use x="580.03" y="76.01" xlink:href="#hl"/>
<use x="580.03" y="73.01" xlink:href="#hd"/>
<path d="M576.53 73.01v21.00" stroke="currentColor" fill="none"/>
<path fill="currentColor"
	d="M576.53 94.01c0.6 -5.6 9.6 -9 5.6 -18.4
	c1.6 6 -1.3 11.6 -5.6 12.8
"/>
<use x="608.53" y="76.01" xlink:href="#hl"/>
<use x="608.53" y="76.01" xlink:href="#hd"/>
<circle fill="currentColor" cx="616.53" cy="73.01" r="1.2"/>
<path d="M605.03 76.01v20.00" stroke="currentColor" fill="none"/>
<path fill="currentColor"
	d="M637.73 99.11l13.60 2.20v-3.20l-13.60 -2.20"/>
<path fill="currentColor"
	d="M638.13 94.11l12.90 2.10v-3.20l-12.90 -2.10"/>
<use x="641.63" y="76.01" xlink:href="#hl"/>
<use x="641.63" y="76.01" xlink:href="#hd"/>
<path d="M638.13 76.01v22.10" stroke="currentColor" fill="none"/>
<use x="654.53" y="79.01" xlink:href="#hd"/>
<path d="M651.03 79.01v21.20" stroke="currentColor" fill="none"/>
<use x="668.73" y="79.01" xlink:href="#hd"/>
<path d="M665.23 79.01v20.00" stroke="currentColor" fill="none"/>
<path fill="currentColor"
	d="M144.93 89.01c4.10 -4.97 21.94 -4.97 26.04 -0.00
	l0.00 -0.23c-4.88 -6.74 -21.16 -6.74 -26.04 0.23"/>
<path fill="currentColor"
	d="M205.13 83.01c4.35 -5.00 23.29 -5.00 27.64 -0.00
	l0.00 -0.23c-5.18 -6.77 -22.46 -6.77 -27.64 0.23"/>
<path fill="currentColor"
	d="M612.03 70.01c4.10 -4.97 21.94 -4.97 26.04 -0.00
	l0.00 -0.23c-4.88 -6.74 -21.16 -6.74 -26.04 0.23"/>
</g>
</svg>
