<?xml version="1.0" standalone="no"?>
<!DOCTYPE svg PUBLIC "-//W3C//DTD SVG 1.1//EN"
	"http://www.w3.org/Graphics/SVG/1.1/DTD/svg11.dtd">
<svg xmlns="http://www.w3.org/2000/svg" version="1.1"
	xmlns:xlink="http://www.w3.org/1999/xlink"
	xml:space='preserve' color="black"
	width="7.38in" height="1.34in" viewBox="0 0 531 97">
<title>3103.abc (3103) tune 1</title>
<!-- Creator: abcm2ps-7.8.14 -->
<!-- CreationDate: Mar 13, 2016 18:54 -->
<!-- CommandLine: -qxg 3103.abc -O ../svgs/3103.svg -->
<g transform="scale(0.750)" stroke-width="0.70" font-family="Times" font-size="20.00">
<text x="354.13" y="21.67" text-anchor="middle">3103.  Sonata in G Minor, 2nd. Mvt., 2nd. Theme</text>
</g>
<g transform="scale(0.750)" stroke-width="0.70" font-family="Times" font-size="14.00" font-style="italic">
<text x="694.93" y="45.34" text-anchor="end">John Ireland</text>
</g>
<g transform="scale(0.525)" stroke-width="0.70" font-family="Times" font-size="14.00" font-style="italic">
<defs>
<ellipse id="hd" rx="4.1" ry="2.9"
	transform="rotate(-20)" fill="currentColor"/>
</defs>
<use x="122.76" y="94.16" xlink:href="#hd"/>
<path d="M126.26 94.16v-20.00" stroke="currentColor" fill="none"/>
</g>
<g transform="scale(0.750)" stroke-width="0.70" font-family="Times" font-size="15.00" font-weight="bold">
<text x="93.63" y="68.01">= 120</text>
<path stroke="currentColor" fill="none"
	d="M161.73 106.01v-24.00"/>
<path stroke="currentColor" fill="none"
	d="M253.33 106.01v-24.00"/>
<path stroke="currentColor" fill="none"
	d="M344.93 106.01v-24.00"/>
<path stroke="currentColor" fill="none"
	d="M436.53 106.01v-24.00"/>
<path stroke="currentColor" fill="none"
	d="M543.13 106.01v-24.00"/>
<path stroke="currentColor" fill="none"
	d="M642.93 106.01v-24.00"/>
<path stroke="currentColor" fill="none"
	d="M694.93 106.01v-24.00"/>
<path stroke="currentColor" fill="none"
	d="M13.33 106.01h681.60m-681.60 -6h681.60m-681.60 -6h681.60m-681.60 -6h681.60m-681.60 -6h681.60"/>
<defs>
<path id="utclef" fill="currentColor" d="m-50 -90
	c-72 -41 -72 -158 52 -188
	c150 -10 220 188 90 256
	c-114 52 -275 0 -293 -136
	c-15 -181 93 -229 220 -334
	c88 -87 79 -133 62 -210
	c-51 33 -94 105 -89 186
	c17 267 36 374 49 574
	c6 96 -19 134 -77 135
	c-80 1 -126 -93 -61 -133
	c85 -41 133 101 31 105
	c23 17 92 37 90 -92
	c-10 -223 -39 -342 -50 -617
	c0 -90 0 -162 96 -232
	c56 72 63 230 22 289
	c-74 106 -257 168 -255 316
	c9 153 148 185 252 133
	c86 -65 29 -192 -80 -176
	c-71 12 -105 67 -59 124"/>
<use id="tclef" transform="scale(0.045)"
	xlink:href="#utclef"/>
</defs>
<use x="25.33" y="106.01" xlink:href="#tclef"/>
<defs>
<path id="uflat" fill="currentColor" d="
	m100 -746
	h32
	v734
	l-32 4
	m32 -332
	c46 -72 152 -90 208 -20
	c100 110 -120 326 -208 348
	m0 -28
	c54 0 200 -206 130 -290
	c-50 -60 -130 -4 -130 34"/>
<use id="ft0" transform="translate(-3.5,3.5) scale(0.018)"
	xlink:href="#uflat"/>
</defs>
<use x="40.33" y="94.01" xlink:href="#ft0"/>
<use x="45.83" y="85.01" xlink:href="#ft0"/>
<use x="51.33" y="97.01" xlink:href="#ft0"/>
<g font-family="serif" font-size="16" font-weight="bold" font-style="normal"
	transform="translate(67.33,106.01) scale(1.2,1)">
	<text y="-1" text-anchor="middle">8</text>
	<text y="-13" text-anchor="middle">4</text>
</g>
<defs>
<path id="r8e" fill="currentColor" d="m 0 0
	c-1.5 1.5 -2.4 2 -3.6 2
	c2.4 -2.8 -2.8 -4 -2.8 -1.2
	c0 2.7 4.3 2.4 5.9 0.6"/>
<g id="r8">
	<path d="m3.3 -4l-3.4 9.6" stroke="currentColor" fill="none"/>
	<use x="3.4" y="-4" xlink:href="#r8e"/>
</g>
</defs>
<use x="85.33" y="94.01" xlink:href="#r8"/>
<use x="107.33" y="100.01" xlink:href="#hd"/>
<path d="M110.83 100.01v-20.00" stroke="currentColor" fill="none"/>
<use x="141.83" y="100.01" xlink:href="#hd"/>
<path d="M145.33 100.01v-20.00" stroke="currentColor" fill="none"/>
<path fill="currentColor"
	d="	M145.33 80.01c0.6 5.6 9.6 9 5.6 18.4
	c1.6 -6 -1.3 -11.6 -5.6 -12.8
"/>
<use x="174.23" y="100.01" xlink:href="#hd"/>
<path d="M177.73 100.01v-20.00" stroke="currentColor" fill="none"/>
<path fill="currentColor"
	d="	M177.73 80.01c0.6 5.6 9.6 9 5.6 18.4
	c1.6 -6 -1.3 -11.6 -5.6 -12.8
"/>
<use x="198.93" y="103.01" xlink:href="#hd"/>
<path d="M202.43 103.01v-20.00" stroke="currentColor" fill="none"/>
<defs>
<path id="hl" stroke="currentColor" d="m-6 0h12"/>
</defs>
<use x="233.43" y="112.01" xlink:href="#hl"/>
<use x="233.43" y="115.01" xlink:href="#hd"/>
<path d="M236.93 115.01v-21.00" stroke="currentColor" fill="none"/>
<path fill="currentColor"
	d="	M236.93 94.01c0.6 5.6 9.6 9 5.6 18.4
	c1.6 -6 -1.3 -11.6 -5.6 -12.8
"/>
<use x="265.83" y="100.01" xlink:href="#hd"/>
<path d="M269.33 100.01v-20.00" stroke="currentColor" fill="none"/>
<path fill="currentColor"
	d="	M269.33 80.01c0.6 5.6 9.6 9 5.6 18.4
	c1.6 -6 -1.3 -11.6 -5.6 -12.8
"/>
<use x="290.53" y="100.01" xlink:href="#hd"/>
<path d="M294.03 100.01v-20.00" stroke="currentColor" fill="none"/>
<use x="325.03" y="100.01" xlink:href="#hd"/>
<path d="M328.53 100.01v-20.00" stroke="currentColor" fill="none"/>
<path fill="currentColor"
	d="	M328.53 80.01c0.6 5.6 9.6 9 5.6 18.4
	c1.6 -6 -1.3 -11.6 -5.6 -12.8
"/>
<use x="357.43" y="100.01" xlink:href="#hd"/>
<path d="M360.93 100.01v-20.00" stroke="currentColor" fill="none"/>
<path fill="currentColor"
	d="	M360.93 80.01c0.6 5.6 9.6 9 5.6 18.4
	c1.6 -6 -1.3 -11.6 -5.6 -12.8
"/>
<use x="382.13" y="103.01" xlink:href="#hd"/>
<path d="M385.63 103.01v-20.00" stroke="currentColor" fill="none"/>
<use x="416.63" y="112.01" xlink:href="#hl"/>
<use x="416.63" y="115.01" xlink:href="#hd"/>
<path d="M420.13 115.01v-21.00" stroke="currentColor" fill="none"/>
<path fill="currentColor"
	d="	M420.13 94.01c0.6 5.6 9.6 9 5.6 18.4
	c1.6 -6 -1.3 -11.6 -5.6 -12.8
"/>
<use x="449.03" y="100.01" xlink:href="#hd"/>
<path d="M452.53 100.01v-20.00" stroke="currentColor" fill="none"/>
<path fill="currentColor"
	d="	M452.53 80.01c0.6 5.6 9.6 9 5.6 18.4
	c1.6 -6 -1.3 -11.6 -5.6 -12.8
"/>
<use x="473.73" y="94.01" xlink:href="#hd"/>
<path d="M477.23 94.01v-20.00" stroke="currentColor" fill="none"/>
<path fill="currentColor"
	d="	M477.23 74.01c0.6 5.6 9.6 9 5.6 18.4
	c1.6 -6 -1.3 -11.6 -5.6 -12.8
"/>
<use x="498.43" y="106.01" xlink:href="#hd"/>
<path d="M501.93 106.01v-20.00" stroke="currentColor" fill="none"/>
<path fill="currentColor"
	d="	M501.93 86.01c0.6 5.6 9.6 9 5.6 18.4
	c1.6 -6 -1.3 -11.6 -5.6 -12.8
"/>
<use x="523.23" y="109.01" xlink:href="#hd"/>
<path d="M526.73 109.01v-20.00" stroke="currentColor" fill="none"/>
<path fill="currentColor"
	d="	M526.73 89.01c0.6 5.6 9.6 9 5.6 18.4
	c1.6 -6 -1.3 -11.6 -5.6 -12.8
"/>
<path fill="currentColor"
	d="M558.83 89.31l26.00 -2.50v3.20l-26.00 2.50"/>
<path fill="currentColor"
	d="M578.43 92.41l6.00 -0.60v3.20l-6.00 0.60"/>
<use x="555.63" y="112.01" xlink:href="#hl"/>
<use x="555.63" y="112.01" xlink:href="#hd"/>
<circle fill="currentColor" cx="563.63" cy="109.01" r="1.2"/>
<path d="M559.13 112.01v-21.80" stroke="currentColor" fill="none"/>
<use x="580.93" y="109.01" xlink:href="#hd"/>
<path d="M584.43 109.01v-21.20" stroke="currentColor" fill="none"/>
<use x="598.33" y="112.01" xlink:href="#hl"/>
<use x="598.33" y="112.01" xlink:href="#hd"/>
<path d="M601.83 112.01v-20.00" stroke="currentColor" fill="none"/>
<path fill="currentColor"
	d="	M601.83 92.01c0.6 5.6 9.6 9 5.6 18.4
	c1.6 -6 -1.3 -11.6 -5.6 -12.8
"/>
<use x="623.03" y="100.01" xlink:href="#hd"/>
<path d="M626.53 100.01v-20.00" stroke="currentColor" fill="none"/>
<path fill="currentColor"
	d="	M626.53 80.01c0.6 5.6 9.6 9 5.6 18.4
	c1.6 -6 -1.3 -11.6 -5.6 -12.8
"/>
<defs>
<path id="Hd" fill="currentColor" d="m3 -1.6
	c-1 -1.8 -7 1.4 -6 3.2
	c1 1.8 7 -1.4 6 -3.2
	m0.5 -0.3
	c2 3.8 -5 7.6 -7 3.8
	c-2 -3.8 5 -7.6 7 -3.8"/>
</defs>
<use x="655.93" y="103.01" xlink:href="#Hd"/>
<path d="M659.43 103.01v-20.00" stroke="currentColor" fill="none"/>
</g>
</svg>
