<?xml version="1.0" standalone="no"?>
<!DOCTYPE svg PUBLIC "-//W3C//DTD SVG 1.1//EN"
	"http://www.w3.org/Graphics/SVG/1.1/DTD/svg11.dtd">
<svg xmlns="http://www.w3.org/2000/svg" version="1.1"
	xmlns:xlink="http://www.w3.org/1999/xlink"
	xml:space='preserve' color="black"
	width="7.38in" height="1.34in" viewBox="0 0 531 97">
<title>3133.abc (3133) tune 1</title>
<!-- Creator: abcm2ps-7.8.14 -->
<!-- CreationDate: Mar 13, 2016 18:54 -->
<!-- CommandLine: -qxg 3133.abc -O ../svgs/3133.svg -->
<g transform="scale(0.750)" stroke-width="0.70" font-family="Times" font-size="20.00">
<text x="354.13" y="21.67" text-anchor="middle">3133.  Lasske Tance, Bohemian Folk Dances, Starodavny, 3rd. Theme, Pt. 1</text>
</g>
<g transform="scale(0.750)" stroke-width="0.70" font-family="Times" font-size="14.00" font-style="italic">
<text x="694.93" y="45.34" text-anchor="end">Leos Janacek</text>
</g>
<g transform="scale(0.525)" stroke-width="0.70" font-family="Times" font-size="14.00" font-style="italic">
<defs>
<ellipse id="hd" rx="4.1" ry="2.9"
	transform="rotate(-20)" fill="currentColor"/>
</defs>
<use x="89.19" y="94.16" xlink:href="#hd"/>
<path d="M92.69 94.16v-20.00" stroke="currentColor" fill="none"/>
</g>
<g transform="scale(0.750)" stroke-width="0.70" font-family="Times" font-size="15.00" font-weight="bold">
<text x="70.13" y="68.01">= 120</text>
<path stroke="currentColor" fill="none"
	d="M169.33 106.01v-24.00"/>
<path stroke="currentColor" fill="none"
	d="M291.03 106.01v-24.00"/>
<path stroke="currentColor" fill="none"
	d="M412.73 106.01v-24.00"/>
<path stroke="currentColor" fill="none"
	d="M534.43 106.01v-24.00"/>
<path stroke="currentColor" fill="none"
	d="M13.33 106.01h521.10m-521.10 -6h521.10m-521.10 -6h521.10m-521.10 -6h521.10m-521.10 -6h521.10"/>
<defs>
<path id="utclef" fill="currentColor" d="m-50 -90
	c-72 -41 -72 -158 52 -188
	c150 -10 220 188 90 256
	c-114 52 -275 0 -293 -136
	c-15 -181 93 -229 220 -334
	c88 -87 79 -133 62 -210
	c-51 33 -94 105 -89 186
	c17 267 36 374 49 574
	c6 96 -19 134 -77 135
	c-80 1 -126 -93 -61 -133
	c85 -41 133 101 31 105
	c23 17 92 37 90 -92
	c-10 -223 -39 -342 -50 -617
	c0 -90 0 -162 96 -232
	c56 72 63 230 22 289
	c-74 106 -257 168 -255 316
	c9 153 148 185 252 133
	c86 -65 29 -192 -80 -176
	c-71 12 -105 67 -59 124"/>
<use id="tclef" transform="scale(0.045)"
	xlink:href="#utclef"/>
</defs>
<use x="25.33" y="106.01" xlink:href="#tclef"/>
<g font-family="serif" font-size="16" font-weight="bold" font-style="normal"
	transform="translate(43.83,106.01) scale(1.2,1)">
	<text y="-1" text-anchor="middle">4</text>
	<text y="-13" text-anchor="middle">2</text>
</g>
<use x="61.83" y="85.01" xlink:href="#hd"/>
<path d="M58.33 85.01v20.00" stroke="currentColor" fill="none"/>
<path fill="currentColor"
	d="M58.33 105.01c0.6 -5.6 9.6 -9 5.6 -18.4
	c1.6 6 -1.3 11.6 -5.6 12.8
"/>
<use x="90.13" y="85.01" xlink:href="#hd"/>
<path d="M86.63 85.01v20.00" stroke="currentColor" fill="none"/>
<path fill="currentColor"
	d="M86.63 105.01c0.6 -5.6 9.6 -9 5.6 -18.4
	c1.6 6 -1.3 11.6 -5.6 12.8
"/>
<use x="118.43" y="91.01" xlink:href="#hd"/>
<path d="M114.93 91.01v20.00" stroke="currentColor" fill="none"/>
<path fill="currentColor"
	d="M114.93 111.01c0.6 -5.6 9.6 -9 5.6 -18.4
	c1.6 6 -1.3 11.6 -5.6 12.8
"/>
<use x="146.73" y="91.01" xlink:href="#hd"/>
<path d="M143.23 91.01v20.00" stroke="currentColor" fill="none"/>
<path fill="currentColor"
	d="M143.23 111.01c0.6 -5.6 9.6 -9 5.6 -18.4
	c1.6 6 -1.3 11.6 -5.6 12.8
"/>
<use x="183.53" y="85.01" xlink:href="#hd"/>
<path d="M180.03 85.01v20.00" stroke="currentColor" fill="none"/>
<path fill="currentColor"
	d="M180.03 105.01c0.6 -5.6 9.6 -9 5.6 -18.4
	c1.6 6 -1.3 11.6 -5.6 12.8
"/>
<use x="211.83" y="85.01" xlink:href="#hd"/>
<path d="M208.33 85.01v20.00" stroke="currentColor" fill="none"/>
<path fill="currentColor"
	d="M208.33 105.01c0.6 -5.6 9.6 -9 5.6 -18.4
	c1.6 6 -1.3 11.6 -5.6 12.8
"/>
<use x="240.13" y="91.01" xlink:href="#hd"/>
<path d="M236.63 91.01v20.00" stroke="currentColor" fill="none"/>
<path fill="currentColor"
	d="M236.63 111.01c0.6 -5.6 9.6 -9 5.6 -18.4
	c1.6 6 -1.3 11.6 -5.6 12.8
"/>
<use x="268.43" y="91.01" xlink:href="#hd"/>
<path d="M264.93 91.01v20.00" stroke="currentColor" fill="none"/>
<path fill="currentColor"
	d="M264.93 111.01c0.6 -5.6 9.6 -9 5.6 -18.4
	c1.6 6 -1.3 11.6 -5.6 12.8
"/>
<use x="305.23" y="94.01" xlink:href="#hd"/>
<path d="M301.73 94.01v20.00" stroke="currentColor" fill="none"/>
<path fill="currentColor"
	d="M301.73 114.01c0.6 -5.6 9.6 -9 5.6 -18.4
	c1.6 6 -1.3 11.6 -5.6 12.8
"/>
<use x="333.53" y="88.01" xlink:href="#hd"/>
<path d="M330.03 88.01v20.00" stroke="currentColor" fill="none"/>
<path fill="currentColor"
	d="M330.03 108.01c0.6 -5.6 9.6 -9 5.6 -18.4
	c1.6 6 -1.3 11.6 -5.6 12.8
"/>
<use x="361.83" y="82.01" xlink:href="#hd"/>
<path d="M358.33 82.01v20.00" stroke="currentColor" fill="none"/>
<path fill="currentColor"
	d="M358.33 102.01c0.6 -5.6 9.6 -9 5.6 -18.4
	c1.6 6 -1.3 11.6 -5.6 12.8
"/>
<use x="390.13" y="94.01" xlink:href="#hd"/>
<path d="M386.63 94.01v20.00" stroke="currentColor" fill="none"/>
<path fill="currentColor"
	d="M386.63 114.01c0.6 -5.6 9.6 -9 5.6 -18.4
	c1.6 6 -1.3 11.6 -5.6 12.8
"/>
<use x="426.93" y="91.01" xlink:href="#hd"/>
<path d="M423.43 91.01v20.00" stroke="currentColor" fill="none"/>
<path fill="currentColor"
	d="M423.43 111.01c0.6 -5.6 9.6 -9 5.6 -18.4
	c1.6 6 -1.3 11.6 -5.6 12.8
"/>
<use x="455.23" y="85.01" xlink:href="#hd"/>
<path d="M451.73 85.01v20.00" stroke="currentColor" fill="none"/>
<path fill="currentColor"
	d="M451.73 105.01c0.6 -5.6 9.6 -9 5.6 -18.4
	c1.6 6 -1.3 11.6 -5.6 12.8
"/>
<use x="483.53" y="91.01" xlink:href="#hd"/>
<path d="M480.03 91.01v20.00" stroke="currentColor" fill="none"/>
<path fill="currentColor"
	d="M480.03 111.01c0.6 -5.6 9.6 -9 5.6 -18.4
	c1.6 6 -1.3 11.6 -5.6 12.8
"/>
<use x="511.83" y="91.01" xlink:href="#hd"/>
<path d="M508.33 91.01v20.00" stroke="currentColor" fill="none"/>
<path fill="currentColor"
	d="M508.33 111.01c0.6 -5.6 9.6 -9 5.6 -18.4
	c1.6 6 -1.3 11.6 -5.6 12.8
"/>
</g>
</svg>
