<?xml version="1.0" standalone="no"?>
<!DOCTYPE svg PUBLIC "-//W3C//DTD SVG 1.1//EN"
	"http://www.w3.org/Graphics/SVG/1.1/DTD/svg11.dtd">
<svg xmlns="http://www.w3.org/2000/svg" version="1.1"
	xmlns:xlink="http://www.w3.org/1999/xlink"
	xml:space='preserve' color="black"
	width="7.38in" height="1.34in" viewBox="0 0 531 97">
<title>3272.abc (3272) tune 1</title>
<!-- Creator: abcm2ps-7.8.14 -->
<!-- CreationDate: Mar 13, 2016 18:54 -->
<!-- CommandLine: -qxg 3272.abc -O ../svgs/3272.svg -->
<g transform="scale(0.750)" stroke-width="0.70" font-family="Times" font-size="20.00">
<text x="354.13" y="21.67" text-anchor="middle">3272.  La Chasse, Caprice, (Style ofJean-Baptiste Cartier)</text>
</g>
<g transform="scale(0.750)" stroke-width="0.70" font-family="Times" font-size="14.00" font-style="italic">
<text x="694.93" y="45.34" text-anchor="end">Fritz Kreisler</text>
</g>
<g transform="scale(0.525)" stroke-width="0.70" font-family="Times" font-size="14.00" font-style="italic">
<defs>
<ellipse id="hd" rx="4.1" ry="2.9"
	transform="rotate(-20)" fill="currentColor"/>
</defs>
<use x="122.76" y="94.16" xlink:href="#hd"/>
<path d="M126.26 94.16v-20.00" stroke="currentColor" fill="none"/>
</g>
<g transform="scale(0.750)" stroke-width="0.70" font-family="Times" font-size="15.00" font-weight="bold">
<text x="93.63" y="68.01">= 120</text>
<path stroke="currentColor" fill="none"
	d="M244.83 106.01v-24.00"/>
<path stroke="currentColor" fill="none"
	d="M377.83 106.01v-24.00"/>
<path stroke="currentColor" fill="none"
	d="M551.23 106.01v-24.00"/>
<path stroke="currentColor" fill="none"
	d="M13.33 106.01h681.60m-681.60 -6h681.60m-681.60 -6h681.60m-681.60 -6h681.60m-681.60 -6h681.60"/>
<defs>
<path id="utclef" fill="currentColor" d="m-50 -90
	c-72 -41 -72 -158 52 -188
	c150 -10 220 188 90 256
	c-114 52 -275 0 -293 -136
	c-15 -181 93 -229 220 -334
	c88 -87 79 -133 62 -210
	c-51 33 -94 105 -89 186
	c17 267 36 374 49 574
	c6 96 -19 134 -77 135
	c-80 1 -126 -93 -61 -133
	c85 -41 133 101 31 105
	c23 17 92 37 90 -92
	c-10 -223 -39 -342 -50 -617
	c0 -90 0 -162 96 -232
	c56 72 63 230 22 289
	c-74 106 -257 168 -255 316
	c9 153 148 185 252 133
	c86 -65 29 -192 -80 -176
	c-71 12 -105 67 -59 124"/>
<use id="tclef" transform="scale(0.045)"
	xlink:href="#utclef"/>
</defs>
<use x="25.33" y="106.01" xlink:href="#tclef"/>
<defs>
<path id="uflat" fill="currentColor" d="
	m100 -746
	h32
	v734
	l-32 4
	m32 -332
	c46 -72 152 -90 208 -20
	c100 110 -120 326 -208 348
	m0 -28
	c54 0 200 -206 130 -290
	c-50 -60 -130 -4 -130 34"/>
<use id="ft0" transform="translate(-3.5,3.5) scale(0.018)"
	xlink:href="#uflat"/>
</defs>
<use x="40.33" y="94.01" xlink:href="#ft0"/>
<use x="45.83" y="85.01" xlink:href="#ft0"/>
<use x="51.33" y="97.01" xlink:href="#ft0"/>
<g font-family="serif" font-size="16" font-weight="bold" font-style="normal"
	transform="translate(67.33,106.01) scale(1.2,1)">
	<text y="-1" text-anchor="middle">8</text>
	<text y="-13" text-anchor="middle">6</text>
</g>
<path fill="currentColor"
	d="M81.53 108.01l60.70 0.00v-3.20l-60.70 -0.00"/>
<path fill="currentColor"
	d="M81.83 103.01l17.60 0.00v-3.20l-17.60 -0.00"/>
<use x="85.33" y="85.01" xlink:href="#hd"/>
<path d="M81.83 85.01v22.00" stroke="currentColor" fill="none"/>
<use x="102.93" y="85.01" xlink:href="#hd"/>
<path d="M99.43 85.01v22.00" stroke="currentColor" fill="none"/>
<use x="120.53" y="85.01" xlink:href="#hd"/>
<path d="M117.03 85.01v22.00" stroke="currentColor" fill="none"/>
<use x="145.43" y="82.01" xlink:href="#hd"/>
<path d="M141.93 82.01v25.00" stroke="currentColor" fill="none"/>
<path fill="currentColor"
	d="M169.13 100.21l50.40 0.00v-3.20l-50.40 -0.00"/>
<use x="173.03" y="79.01" xlink:href="#hd"/>
<path d="M169.53 79.01v20.20" stroke="currentColor" fill="none"/>
<use x="197.93" y="82.01" xlink:href="#hd"/>
<path d="M194.43 82.01v17.20" stroke="currentColor" fill="none"/>
<use x="222.73" y="79.01" xlink:href="#hd"/>
<path d="M219.23 79.01v20.20" stroke="currentColor" fill="none"/>
<defs>
<path id="hl" stroke="currentColor" d="m-6 0h12"/>
</defs>
<use x="258.73" y="76.01" xlink:href="#hl"/>
<use x="258.73" y="76.01" xlink:href="#hd"/>
<path d="M255.23 76.01v20.00" stroke="currentColor" fill="none"/>
<path fill="currentColor"
	d="M255.23 96.01c0.6 -5.6 9.6 -9 5.6 -18.4
	c1.6 6 -1.3 11.6 -5.6 12.8
"/>
<use x="286.33" y="76.01" xlink:href="#hl"/>
<use x="286.33" y="73.01" xlink:href="#hd"/>
<circle fill="currentColor" cx="294.33" cy="73.01" r="1.2"/>
<path d="M282.83 73.01v21.00" stroke="currentColor" fill="none"/>
<use x="330.83" y="79.01" xlink:href="#hd"/>
<path d="M327.33 79.01v20.00" stroke="currentColor" fill="none"/>
<path fill="currentColor"
	d="M327.33 99.01c0.6 -5.6 9.6 -9 5.6 -18.4
	c1.6 6 -1.3 11.6 -5.6 12.8
"/>
<defs>
<path id="r8e" fill="currentColor" d="m 0 0
	c-1.5 1.5 -2.4 2 -3.6 2
	c2.4 -2.8 -2.8 -4 -2.8 -1.2
	c0 2.7 4.3 2.4 5.9 0.6"/>
<g id="r8">
	<path d="m3.3 -4l-3.4 9.6" stroke="currentColor" fill="none"/>
	<use x="3.4" y="-4" xlink:href="#r8e"/>
</g>
</defs>
<use x="355.73" y="94.01" xlink:href="#r8"/>
<path fill="currentColor"
	d="M387.83 106.21l60.70 0.00v-3.20l-60.70 -0.00"/>
<path fill="currentColor"
	d="M388.13 101.21l17.60 0.00v-3.20l-17.60 -0.00"/>
<use x="391.63" y="82.01" xlink:href="#hd"/>
<path d="M388.13 82.01v23.20" stroke="currentColor" fill="none"/>
<use x="409.23" y="82.01" xlink:href="#hd"/>
<path d="M405.73 82.01v23.20" stroke="currentColor" fill="none"/>
<use x="426.83" y="79.01" xlink:href="#hd"/>
<path d="M423.33 79.01v26.20" stroke="currentColor" fill="none"/>
<use x="451.73" y="82.01" xlink:href="#hd"/>
<path d="M448.23 82.01v23.20" stroke="currentColor" fill="none"/>
<path fill="currentColor"
	d="M475.53 103.01l50.40 0.00v-3.20l-50.40 -0.00"/>
<use x="479.33" y="85.01" xlink:href="#hd"/>
<path d="M475.83 85.01v17.00" stroke="currentColor" fill="none"/>
<use x="504.23" y="82.01" xlink:href="#hd"/>
<path d="M500.73 82.01v20.00" stroke="currentColor" fill="none"/>
<use x="529.13" y="85.01" xlink:href="#hd"/>
<path d="M525.63 85.01v17.00" stroke="currentColor" fill="none"/>
<path fill="currentColor"
	d="M568.23 74.81l50.40 4.50v3.20l-50.40 -4.50"/>
<use x="565.03" y="94.01" xlink:href="#hd"/>
<path d="M568.53 94.01v-18.20" stroke="currentColor" fill="none"/>
<use x="589.93" y="100.01" xlink:href="#hd"/>
<path d="M593.43 100.01v-22.00" stroke="currentColor" fill="none"/>
<use x="614.83" y="103.01" xlink:href="#hd"/>
<path d="M618.33 103.01v-22.80" stroke="currentColor" fill="none"/>
<path fill="currentColor"
	d="M645.63 85.71l25.60 -2.50v3.20l-25.60 2.50"/>
<use x="642.43" y="106.01" xlink:href="#hd"/>
<path d="M645.93 106.01v-19.30" stroke="currentColor" fill="none"/>
<use x="667.33" y="103.01" xlink:href="#hd"/>
<path d="M670.83 103.01v-18.70" stroke="currentColor" fill="none"/>
</g>
</svg>
