<?xml version="1.0" standalone="no"?>
<!DOCTYPE svg PUBLIC "-//W3C//DTD SVG 1.1//EN"
	"http://www.w3.org/Graphics/SVG/1.1/DTD/svg11.dtd">
<svg xmlns="http://www.w3.org/2000/svg" version="1.1"
	xmlns:xlink="http://www.w3.org/1999/xlink"
	xml:space='preserve' color="black"
	width="7.38in" height="1.34in" viewBox="0 0 531 97">
<title>3296.abc (3296) tune 1</title>
<!-- Creator: abcm2ps-7.8.14 -->
<!-- CreationDate: Mar 13, 2016 18:54 -->
<!-- CommandLine: -qxg 3296.abc -O ../svgs/3296.svg -->
<g transform="scale(0.750)" stroke-width="0.70" font-family="Times" font-size="20.00">
<text x="354.13" y="21.67" text-anchor="middle">3296.  Sonata, The Combat Between David and Goliath, 4th. Theme, The Contest</text>
</g>
<g transform="scale(0.750)" stroke-width="0.70" font-family="Times" font-size="14.00" font-style="italic">
<text x="694.93" y="45.34" text-anchor="end">Johann Kuhnau</text>
</g>
<g transform="scale(0.525)" stroke-width="0.70" font-family="Times" font-size="14.00" font-style="italic">
<defs>
<ellipse id="hd" rx="4.1" ry="2.9"
	transform="rotate(-20)" fill="currentColor"/>
</defs>
<use x="89.19" y="94.16" xlink:href="#hd"/>
<path d="M92.69 94.16v-20.00" stroke="currentColor" fill="none"/>
</g>
<g transform="scale(0.750)" stroke-width="0.70" font-family="Times" font-size="15.00" font-weight="bold">
<text x="70.13" y="68.01">= 120</text>
<path stroke="currentColor" fill="none"
	d="M364.43 106.01v-24.00"/>
<path stroke="currentColor" fill="none"
	d="M694.93 106.01v-24.00"/>
<path stroke="currentColor" fill="none"
	d="M13.33 106.01h681.60m-681.60 -6h681.60m-681.60 -6h681.60m-681.60 -6h681.60m-681.60 -6h681.60"/>
<defs>
<path id="utclef" fill="currentColor" d="m-50 -90
	c-72 -41 -72 -158 52 -188
	c150 -10 220 188 90 256
	c-114 52 -275 0 -293 -136
	c-15 -181 93 -229 220 -334
	c88 -87 79 -133 62 -210
	c-51 33 -94 105 -89 186
	c17 267 36 374 49 574
	c6 96 -19 134 -77 135
	c-80 1 -126 -93 -61 -133
	c85 -41 133 101 31 105
	c23 17 92 37 90 -92
	c-10 -223 -39 -342 -50 -617
	c0 -90 0 -162 96 -232
	c56 72 63 230 22 289
	c-74 106 -257 168 -255 316
	c9 153 148 185 252 133
	c86 -65 29 -192 -80 -176
	c-71 12 -105 67 -59 124"/>
<use id="tclef" transform="scale(0.045)"
	xlink:href="#utclef"/>
</defs>
<use x="25.33" y="106.01" xlink:href="#tclef"/>
<g font-family="serif" font-size="16" font-weight="bold" font-style="normal"
	transform="translate(43.83,106.01) scale(1.2,1)">
	<text y="-1" text-anchor="middle">4</text>
	<text y="-13" text-anchor="middle">4</text>
</g>
<path fill="currentColor"
	d="M65.03 77.81l22.40 2.40v3.20l-22.40 -2.40"/>
<path fill="currentColor"
	d="M65.33 82.81l21.70 2.40v3.20l-21.70 -2.40"/>
<use x="61.83" y="100.01" xlink:href="#hd"/>
<path d="M65.33 100.01v-21.20" stroke="currentColor" fill="none"/>
<use x="83.53" y="103.01" xlink:href="#hd"/>
<path d="M87.03 103.01v-21.80" stroke="currentColor" fill="none"/>
<path fill="currentColor"
	d="M110.83 77.81l22.40 2.40v3.20l-22.40 -2.40"/>
<path fill="currentColor"
	d="M111.13 82.81l21.70 2.40v3.20l-21.70 -2.40"/>
<use x="107.63" y="100.01" xlink:href="#hd"/>
<path d="M111.13 100.01v-21.20" stroke="currentColor" fill="none"/>
<use x="129.33" y="103.01" xlink:href="#hd"/>
<path d="M132.83 103.01v-21.80" stroke="currentColor" fill="none"/>
<use x="153.43" y="106.01" xlink:href="#hd"/>
<path d="M156.93 106.01v-20.00" stroke="currentColor" fill="none"/>
<path fill="currentColor"
	d="	M156.93 86.01c0.6 5.6 9.6 9 5.6 18.4
	c1.6 -6 -1.3 -11.6 -5.6 -12.8
"/>
<defs>
<path id="r8e" fill="currentColor" d="m 0 0
	c-1.5 1.5 -2.4 2 -3.6 2
	c2.4 -2.8 -2.8 -4 -2.8 -1.2
	c0 2.7 4.3 2.4 5.9 0.6"/>
<g id="r8">
	<path d="m3.3 -4l-3.4 9.6" stroke="currentColor" fill="none"/>
	<use x="3.4" y="-4" xlink:href="#r8e"/>
</g>
</defs>
<use x="184.13" y="94.01" xlink:href="#r8"/>
<path fill="currentColor"
	d="M218.03 83.81l22.40 2.40v3.20l-22.40 -2.40"/>
<path fill="currentColor"
	d="M218.33 88.81l21.70 2.40v3.20l-21.70 -2.40"/>
<use x="214.83" y="106.01" xlink:href="#hd"/>
<path d="M218.33 106.01v-21.20" stroke="currentColor" fill="none"/>
<use x="236.53" y="109.01" xlink:href="#hd"/>
<path d="M240.03 109.01v-21.80" stroke="currentColor" fill="none"/>
<path fill="currentColor"
	d="M263.83 83.81l22.40 2.40v3.20l-22.40 -2.40"/>
<path fill="currentColor"
	d="M264.13 88.81l21.70 2.40v3.20l-21.70 -2.40"/>
<use x="260.63" y="106.01" xlink:href="#hd"/>
<path d="M264.13 106.01v-21.20" stroke="currentColor" fill="none"/>
<use x="282.33" y="109.01" xlink:href="#hd"/>
<path d="M285.83 109.01v-21.80" stroke="currentColor" fill="none"/>
<defs>
<path id="hl" stroke="currentColor" d="m-6 0h12"/>
</defs>
<use x="306.43" y="112.01" xlink:href="#hl"/>
<use x="306.43" y="112.01" xlink:href="#hd"/>
<path d="M309.93 112.01v-20.00" stroke="currentColor" fill="none"/>
<path fill="currentColor"
	d="	M309.93 92.01c0.6 5.6 9.6 9 5.6 18.4
	c1.6 -6 -1.3 -11.6 -5.6 -12.8
"/>
<use x="337.13" y="94.01" xlink:href="#r8"/>
<path fill="currentColor"
	d="M384.63 80.81l22.40 2.40v3.20l-22.40 -2.40"/>
<path fill="currentColor"
	d="M385.03 85.81l21.70 2.40v3.20l-21.70 -2.40"/>
<use x="381.53" y="103.01" xlink:href="#hd"/>
<path d="M385.03 103.01v-21.20" stroke="currentColor" fill="none"/>
<use x="403.23" y="106.01" xlink:href="#hd"/>
<path d="M406.73 106.01v-21.80" stroke="currentColor" fill="none"/>
<path fill="currentColor"
	d="M430.53 80.81l22.40 2.40v3.20l-22.40 -2.40"/>
<path fill="currentColor"
	d="M430.83 85.81l21.70 2.40v3.20l-21.70 -2.40"/>
<use x="427.33" y="103.01" xlink:href="#hd"/>
<path d="M430.83 103.01v-21.20" stroke="currentColor" fill="none"/>
<use x="449.03" y="106.01" xlink:href="#hd"/>
<path d="M452.53 106.01v-21.80" stroke="currentColor" fill="none"/>
<path fill="currentColor"
	d="M476.33 82.81l22.40 -5.10v3.20l-22.40 5.10"/>
<path fill="currentColor"
	d="M476.63 87.71l21.70 -4.90v3.20l-21.70 4.90"/>
<use x="473.13" y="109.01" xlink:href="#hd"/>
<path d="M476.63 109.01v-25.30" stroke="currentColor" fill="none"/>
<use x="494.83" y="100.01" xlink:href="#hd"/>
<path d="M498.33 100.01v-21.20" stroke="currentColor" fill="none"/>
<path fill="currentColor"
	d="M522.13 80.21l22.40 -2.40v3.20l-22.40 2.40"/>
<path fill="currentColor"
	d="M522.43 85.11l21.70 -2.30v3.20l-21.70 2.30"/>
<use x="518.93" y="103.01" xlink:href="#hd"/>
<path d="M522.43 103.01v-21.90" stroke="currentColor" fill="none"/>
<use x="540.63" y="100.01" xlink:href="#hd"/>
<path d="M544.13 100.01v-21.20" stroke="currentColor" fill="none"/>
<path fill="currentColor"
	d="M567.93 86.21l22.40 -2.40v3.20l-22.40 2.40"/>
<path fill="currentColor"
	d="M568.23 91.11l21.70 -2.30v3.20l-21.70 2.30"/>
<use x="564.73" y="109.01" xlink:href="#hd"/>
<path d="M568.23 109.01v-21.90" stroke="currentColor" fill="none"/>
<use x="586.43" y="106.01" xlink:href="#hd"/>
<path d="M589.93 106.01v-21.20" stroke="currentColor" fill="none"/>
<path fill="currentColor"
	d="M613.73 80.21l22.40 -2.40v3.20l-22.40 2.40"/>
<path fill="currentColor"
	d="M614.03 85.21l21.70 -2.40v3.20l-21.70 2.40"/>
<use x="610.53" y="103.01" xlink:href="#hd"/>
<path d="M614.03 103.01v-21.80" stroke="currentColor" fill="none"/>
<use x="632.23" y="100.01" xlink:href="#hd"/>
<path d="M635.73 100.01v-21.20" stroke="currentColor" fill="none"/>
<use x="656.33" y="106.01" xlink:href="#hd"/>
<path d="M659.83 106.01v-20.00" stroke="currentColor" fill="none"/>
</g>
</svg>
