<?xml version="1.0" standalone="no"?>
<!DOCTYPE svg PUBLIC "-//W3C//DTD SVG 1.1//EN"
	"http://www.w3.org/Graphics/SVG/1.1/DTD/svg11.dtd">
<svg xmlns="http://www.w3.org/2000/svg" version="1.1"
	xmlns:xlink="http://www.w3.org/1999/xlink"
	xml:space='preserve' color="black"
	width="7.38in" height="1.42in" viewBox="0 0 531 102">
<title>3298.abc (3298) tune 1</title>
<!-- Creator: abcm2ps-7.8.14 -->
<!-- CreationDate: Mar 13, 2016 18:54 -->
<!-- CommandLine: -qxg 3298.abc -O ../svgs/3298.svg -->
<g transform="scale(0.750)" stroke-width="0.70" font-family="Times" font-size="20.00">
<text x="354.13" y="21.67" text-anchor="middle">3298.  Pft. Idilio, Op. 134</text>
</g>
<g transform="scale(0.750)" stroke-width="0.70" font-family="Times" font-size="14.00" font-style="italic">
<text x="694.93" y="45.34" text-anchor="end">Theodore Lack</text>
</g>
<g transform="scale(0.525)" stroke-width="0.70" font-family="Times" font-size="14.00" font-style="italic">
<defs>
<ellipse id="hd" rx="4.1" ry="2.9"
	transform="rotate(-20)" fill="currentColor"/>
</defs>
<use x="130.61" y="94.16" xlink:href="#hd"/>
<path d="M134.11 94.16v-20.00" stroke="currentColor" fill="none"/>
</g>
<g transform="scale(0.750)" stroke-width="0.70" font-family="Times" font-size="15.00" font-weight="bold">
<text x="99.13" y="68.01">= 120</text>
<path stroke="currentColor" fill="none"
	d="M247.43 113.01v-24.00"/>
<path stroke="currentColor" fill="none"
	d="M406.93 113.01v-24.00"/>
<path stroke="currentColor" fill="none"
	d="M560.83 113.01v-24.00"/>
<path stroke="currentColor" fill="none"
	d="M13.33 113.01h681.60m-681.60 -6h681.60m-681.60 -6h681.60m-681.60 -6h681.60m-681.60 -6h681.60"/>
<defs>
<path id="utclef" fill="currentColor" d="m-50 -90
	c-72 -41 -72 -158 52 -188
	c150 -10 220 188 90 256
	c-114 52 -275 0 -293 -136
	c-15 -181 93 -229 220 -334
	c88 -87 79 -133 62 -210
	c-51 33 -94 105 -89 186
	c17 267 36 374 49 574
	c6 96 -19 134 -77 135
	c-80 1 -126 -93 -61 -133
	c85 -41 133 101 31 105
	c23 17 92 37 90 -92
	c-10 -223 -39 -342 -50 -617
	c0 -90 0 -162 96 -232
	c56 72 63 230 22 289
	c-74 106 -257 168 -255 316
	c9 153 148 185 252 133
	c86 -65 29 -192 -80 -176
	c-71 12 -105 67 -59 124"/>
<use id="tclef" transform="scale(0.045)"
	xlink:href="#utclef"/>
</defs>
<use x="25.33" y="113.01" xlink:href="#tclef"/>
<defs>
<path id="uflat" fill="currentColor" d="
	m100 -746
	h32
	v734
	l-32 4
	m32 -332
	c46 -72 152 -90 208 -20
	c100 110 -120 326 -208 348
	m0 -28
	c54 0 200 -206 130 -290
	c-50 -60 -130 -4 -130 34"/>
<use id="ft0" transform="translate(-3.5,3.5) scale(0.018)"
	xlink:href="#uflat"/>
</defs>
<use x="40.33" y="101.01" xlink:href="#ft0"/>
<use x="45.83" y="92.01" xlink:href="#ft0"/>
<use x="51.33" y="104.01" xlink:href="#ft0"/>
<use x="56.83" y="95.01" xlink:href="#ft0"/>
<g font-family="serif" font-size="16" font-weight="bold" font-style="normal"
	transform="translate(72.83,113.01) scale(1.2,1)">
	<text y="-1" text-anchor="middle">4</text>
	<text y="-13" text-anchor="middle">4</text>
</g>
<path fill="currentColor"
	d="M94.03 94.11l15.00 -3.40v3.20l-15.00 3.40"/>
<path fill="currentColor"
	d="M94.33 99.11l14.30 -3.30v3.20l-14.30 3.30"/>
<defs>
<path id="hl" stroke="currentColor" d="m-6 0h12"/>
</defs>
<use x="90.83" y="119.01" xlink:href="#hl"/>
<use x="90.83" y="119.01" xlink:href="#hd"/>
<path d="M94.33 119.01v-23.90" stroke="currentColor" fill="none"/>
<use x="105.13" y="113.01" xlink:href="#hd"/>
<path d="M108.63 113.01v-21.20" stroke="currentColor" fill="none"/>
<path fill="currentColor"
	d="M124.23 79.11l15.00 -3.40v3.20l-15.00 3.40"/>
<path fill="currentColor"
	d="M124.53 84.11l14.30 -3.30v3.20l-14.30 3.30"/>
<use x="121.03" y="104.01" xlink:href="#hd"/>
<path d="M124.53 104.01v-23.90" stroke="currentColor" fill="none"/>
<use x="135.33" y="98.01" xlink:href="#hd"/>
<path d="M138.83 98.01v-21.20" stroke="currentColor" fill="none"/>
<use x="151.43" y="89.01" xlink:href="#hd"/>
<path d="M147.93 89.01v20.00" stroke="currentColor" fill="none"/>
<path fill="currentColor"
	d="M147.93 109.01c0.6 -5.6 9.6 -9 5.6 -18.4
	c1.6 6 -1.3 11.6 -5.6 12.8
"/>
<defs>
<path id="r8e" fill="currentColor" d="m 0 0
	c-1.5 1.5 -2.4 2 -3.6 2
	c2.4 -2.8 -2.8 -4 -2.8 -1.2
	c0 2.7 4.3 2.4 5.9 0.6"/>
<g id="r8">
	<path d="m3.3 -4l-3.4 9.6" stroke="currentColor" fill="none"/>
	<use x="3.4" y="-4" xlink:href="#r8e"/>
</g>
</defs>
<use x="171.43" y="101.01" xlink:href="#r8"/>
<use x="193.63" y="89.01" xlink:href="#hd"/>
<circle fill="currentColor" cx="201.63" cy="86.01" r="1.2"/>
<path d="M190.13 89.01v20.00" stroke="currentColor" fill="none"/>
<use x="229.53" y="83.01" xlink:href="#hl"/>
<use x="229.53" y="83.01" xlink:href="#hd"/>
<path d="M226.03 83.01v20.00" stroke="currentColor" fill="none"/>
<path fill="currentColor"
	d="M226.03 103.01c0.6 -5.6 9.6 -9 5.6 -18.4
	c1.6 6 -1.3 11.6 -5.6 12.8
"/>
<use x="259.93" y="86.01" xlink:href="#hd"/>
<path d="M256.43 86.01v20.00" stroke="currentColor" fill="none"/>
<path fill="currentColor"
	d="M256.43 106.01c0.6 -5.6 9.6 -9 5.6 -18.4
	c1.6 6 -1.3 11.6 -5.6 12.8
"/>
<use x="282.13" y="92.01" xlink:href="#hd"/>
<path d="M278.63 92.01v20.00" stroke="currentColor" fill="none"/>
<path fill="currentColor"
	d="M278.63 112.01c0.6 -5.6 9.6 -9 5.6 -18.4
	c1.6 6 -1.3 11.6 -5.6 12.8
"/>
<use x="304.33" y="89.01" xlink:href="#hd"/>
<path d="M300.83 89.01v20.00" stroke="currentColor" fill="none"/>
<path fill="currentColor"
	d="M300.83 109.01c0.6 -5.6 9.6 -9 5.6 -18.4
	c1.6 6 -1.3 11.6 -5.6 12.8
"/>
<defs>
<g id="r16">
	<path d="m3.3 -4l-4 15.6" stroke="currentColor" fill="none"/>
	<use x="3.4" y="-4" xlink:href="#r8e"/>
	<use x="1.9" y="2" xlink:href="#r8e"/>
</g>
</defs>
<use x="324.43" y="101.01" xlink:href="#r16"/>
<use x="340.23" y="98.01" xlink:href="#hd"/>
<path d="M336.73 98.01v22.00" stroke="currentColor" fill="none"/>
<path fill="currentColor"
	d="M336.73 120.01c0.9 -3.7 9.1 -6.4 6 -12.4
	c1 5.4 -4.2 8.4 -6 8.4
M336.73 114.61c0.9 -3.7 9.1 -6.4 6 -12.4
	c1 5.4 -4.2 8.4 -6 8.4
"/>
<use x="356.13" y="92.01" xlink:href="#hd"/>
<circle fill="currentColor" cx="364.13" cy="92.01" r="1.2"/>
<path d="M352.63 92.01v20.00" stroke="currentColor" fill="none"/>
<use x="388.53" y="104.01" xlink:href="#hd"/>
<path d="M392.03 104.01v-20.00" stroke="currentColor" fill="none"/>
<path fill="currentColor"
	d="	M392.03 84.01c0.6 5.6 9.6 9 5.6 18.4
	c1.6 -6 -1.3 -11.6 -5.6 -12.8
"/>
<use x="419.43" y="101.01" xlink:href="#hd"/>
<path d="M415.93 101.01v20.00" stroke="currentColor" fill="none"/>
<path fill="currentColor"
	d="M415.93 121.01c0.6 -5.6 9.6 -9 5.6 -18.4
	c1.6 6 -1.3 11.6 -5.6 12.8
"/>
<use x="441.63" y="98.01" xlink:href="#hd"/>
<path d="M438.13 98.01v20.00" stroke="currentColor" fill="none"/>
<path fill="currentColor"
	d="M438.13 118.01c0.6 -5.6 9.6 -9 5.6 -18.4
	c1.6 6 -1.3 11.6 -5.6 12.8
"/>
<use x="463.83" y="98.01" xlink:href="#hd"/>
<path d="M460.33 98.01v20.00" stroke="currentColor" fill="none"/>
<path fill="currentColor"
	d="M460.33 118.01c0.6 -5.6 9.6 -9 5.6 -18.4
	c1.6 6 -1.3 11.6 -5.6 12.8
"/>
<use x="483.93" y="110.01" xlink:href="#hd"/>
<path d="M487.43 110.01v-20.00" stroke="currentColor" fill="none"/>
<path fill="currentColor"
	d="	M487.43 90.01c0.6 5.6 9.6 9 5.6 18.4
	c1.6 -6 -1.3 -11.6 -5.6 -12.8
"/>
<use x="506.53" y="110.01" xlink:href="#hd"/>
<circle fill="currentColor" cx="514.53" cy="110.01" r="1.2"/>
<path d="M510.03 110.01v-20.00" stroke="currentColor" fill="none"/>
<use x="542.43" y="104.01" xlink:href="#hd"/>
<path d="M545.93 104.01v-20.00" stroke="currentColor" fill="none"/>
<path fill="currentColor"
	d="	M545.93 84.01c0.6 5.6 9.6 9 5.6 18.4
	c1.6 -6 -1.3 -11.6 -5.6 -12.8
"/>
<use x="573.33" y="107.01" xlink:href="#hd"/>
<path d="M576.83 107.01v-20.00" stroke="currentColor" fill="none"/>
<path fill="currentColor"
	d="	M576.83 87.01c0.6 5.6 9.6 9 5.6 18.4
	c1.6 -6 -1.3 -11.6 -5.6 -12.8
"/>
<use x="596.03" y="101.01" xlink:href="#hd"/>
<path d="M599.53 101.01v-20.00" stroke="currentColor" fill="none"/>
<path fill="currentColor"
	d="	M599.53 81.01c0.6 5.6 9.6 9 5.6 18.4
	c1.6 -6 -1.3 -11.6 -5.6 -12.8
"/>
<use x="618.63" y="101.01" xlink:href="#hd"/>
<path d="M622.13 101.01v-20.00" stroke="currentColor" fill="none"/>
<path fill="currentColor"
	d="	M622.13 81.01c0.6 5.6 9.6 9 5.6 18.4
	c1.6 -6 -1.3 -11.6 -5.6 -12.8
"/>
<use x="641.33" y="113.01" xlink:href="#hd"/>
<path d="M644.83 113.01v-20.00" stroke="currentColor" fill="none"/>
<path fill="currentColor"
	d="	M644.83 93.01c0.6 5.6 9.6 9 5.6 18.4
	c1.6 -6 -1.3 -11.6 -5.6 -12.8
"/>
<use x="664.03" y="113.01" xlink:href="#hd"/>
<path d="M667.53 113.01v-20.00" stroke="currentColor" fill="none"/>
</g>
</svg>
