<?xml version="1.0" standalone="no"?>
<!DOCTYPE svg PUBLIC "-//W3C//DTD SVG 1.1//EN"
	"http://www.w3.org/Graphics/SVG/1.1/DTD/svg11.dtd">
<svg xmlns="http://www.w3.org/2000/svg" version="1.1"
	xmlns:xlink="http://www.w3.org/1999/xlink"
	xml:space='preserve' color="black"
	width="7.38in" height="1.34in" viewBox="0 0 531 97">
<title>3314.abc (3314) tune 1</title>
<!-- Creator: abcm2ps-7.8.14 -->
<!-- CreationDate: Mar 13, 2016 18:54 -->
<!-- CommandLine: -qxg 3314.abc -O ../svgs/3314.svg -->
<g transform="scale(0.750)" stroke-width="0.70" font-family="Times" font-size="20.00">
<text x="354.13" y="21.67" text-anchor="middle">3314.  Namouna, Ballet Suite, Prelude, 1st. Theme</text>
</g>
<g transform="scale(0.750)" stroke-width="0.70" font-family="Times" font-size="14.00" font-style="italic">
<text x="694.93" y="45.34" text-anchor="end">Edward Lalo</text>
</g>
<g transform="scale(0.525)" stroke-width="0.70" font-family="Times" font-size="14.00" font-style="italic">
<defs>
<ellipse id="hd" rx="4.1" ry="2.9"
	transform="rotate(-20)" fill="currentColor"/>
</defs>
<use x="107.04" y="94.16" xlink:href="#hd"/>
<path d="M110.54 94.16v-20.00" stroke="currentColor" fill="none"/>
</g>
<g transform="scale(0.750)" stroke-width="0.70" font-family="Times" font-size="15.00" font-weight="bold">
<text x="82.63" y="68.01">= 120</text>
<path stroke="currentColor" fill="none"
	d="M218.73 106.01v-24.00"/>
<path stroke="currentColor" fill="none"
	d="M377.83 106.01v-24.00"/>
<path stroke="currentColor" fill="none"
	d="M552.13 106.01v-24.00"/>
<path stroke="currentColor" fill="none"
	d="M13.33 106.01h681.60m-681.60 -6h681.60m-681.60 -6h681.60m-681.60 -6h681.60m-681.60 -6h681.60"/>
<defs>
<path id="ubclef" fill="currentColor" d="m-200 -87
	c124 -35 222 -78 254 -236
	c43 -228 -167 -246 -192 -103
	c59 -80 157 22 92 78
	c-62 47 -115 -22 -106 -88
	c21 -141 270 -136 274 52
	c-1 175 -106 264 -322 297
	m357 -250
	c0 -36 51 -34 51 0
	c0 37 -51 36 -51 0
	m-2 -129
	c0 -36 51 -34 51 0
	c0 38 -51 37 -51 0"/>
<use id="bclef" transform="scale(0.045)"
	xlink:href="#ubclef"/>
</defs>
<use x="25.33" y="106.01" xlink:href="#bclef"/>
<defs>
<path id="usharp" fill="currentColor" d="
	m136 -702
	v890
	h32
	v-890
	m128 840
	h32
	v-888
	h-32
	m-232 286
	v116
	l338 -96
	v-116
	m-338 442
	v116
	l338 -98
	v-114"/>
<use id="sh0" transform="translate(-4,5) scale(0.018)"
	xlink:href="#usharp"/>
</defs>
<use x="40.33" y="88.01" xlink:href="#sh0"/>
<g font-family="serif" font-size="16" font-weight="bold" font-style="normal"
	transform="translate(56.33,106.01) scale(1.2,1)">
	<text y="-1" text-anchor="middle">4</text>
	<text y="-13" text-anchor="middle">4</text>
</g>
<path fill="currentColor"
	d="M77.53 90.81l14.60 -4.10v3.20l-14.60 4.10"/>
<path fill="currentColor"
	d="M83.83 94.01l-6.00 1.70v3.20l6.00 -1.70"/>
<defs>
<path id="hl" stroke="currentColor" d="m-6 0h12"/>
</defs>
<use x="74.33" y="112.01" xlink:href="#hl"/>
<use x="74.33" y="115.01" xlink:href="#hd"/>
<path d="M77.83 115.01v-23.30" stroke="currentColor" fill="none"/>
<use x="88.23" y="106.01" xlink:href="#hd"/>
<circle fill="currentColor" cx="96.23" cy="103.01" r="1.2"/>
<path d="M91.73 106.01v-18.20" stroke="currentColor" fill="none"/>
<use x="113.13" y="100.01" xlink:href="#hd"/>
<path d="M116.63 100.01v-21.00" stroke="currentColor" fill="none"/>
<path fill="currentColor"
	d="M116.63 79.01c0.9 3.7 9.1 6.4 6 12.4
	c1 -5.4 -4.2 -8.4 -6 -8.4
M116.63 84.41c0.9 3.7 9.1 6.4 6 12.4
	c1 -5.4 -4.2 -8.4 -6 -8.4
"/>
<use x="129.63" y="94.01" xlink:href="#hd"/>
<circle fill="currentColor" cx="137.63" cy="91.01" r="1.2"/>
<path d="M133.13 94.01v-20.00" stroke="currentColor" fill="none"/>
<use x="165.33" y="94.01" xlink:href="#hd"/>
<path d="M168.83 94.01v-21.00" stroke="currentColor" fill="none"/>
<path fill="currentColor"
	d="M168.83 73.01c0.9 3.7 9.1 6.4 6 12.4
	c1 -5.4 -4.2 -8.4 -6 -8.4
M168.83 78.41c0.9 3.7 9.1 6.4 6 12.4
	c1 -5.4 -4.2 -8.4 -6 -8.4
"/>
<path fill="currentColor"
	d="M180.53 116.31l14.60 -2.20v-3.20l-14.60 2.20"/>
<path fill="currentColor"
	d="M186.83 110.31l-6.00 0.90v-3.20l6.00 -0.90"/>
<use x="184.33" y="94.01" xlink:href="#hd"/>
<path d="M180.83 94.01v21.20" stroke="currentColor" fill="none"/>
<use x="198.23" y="91.01" xlink:href="#hd"/>
<circle fill="currentColor" cx="206.23" cy="91.01" r="1.2"/>
<path d="M194.73 91.01v22.10" stroke="currentColor" fill="none"/>
<path fill="currentColor"
	d="M227.43 125.31l21.20 -4.90v-3.20l-21.20 4.90"/>
<path fill="currentColor"
	d="M227.73 120.21l10.20 -2.40v-3.20l-10.20 2.40"/>
<path fill="currentColor"
	d="M227.73 115.21l10.20 -2.40v-3.20l-10.20 2.40"/>
<use x="231.23" y="100.01" xlink:href="#hd"/>
<path d="M227.73 100.01v24.20" stroke="currentColor" fill="none"/>
<use x="241.53" y="94.01" xlink:href="#hd"/>
<path d="M238.03 94.01v27.80" stroke="currentColor" fill="none"/>
<use x="251.73" y="85.01" xlink:href="#hd"/>
<circle fill="currentColor" cx="259.73" cy="85.01" r="1.2"/>
<path d="M248.23 85.01v34.40" stroke="currentColor" fill="none"/>
<use x="276.63" y="79.01" xlink:href="#hd"/>
<path d="M273.13 79.01v22.00" stroke="currentColor" fill="none"/>
<path fill="currentColor"
	d="M273.13 101.01c0.9 -3.7 9.1 -6.4 6 -12.4
	c1 5.4 -4.2 8.4 -6 8.4
M273.13 95.61c0.9 -3.7 9.1 -6.4 6 -12.4
	c1 5.4 -4.2 8.4 -6 8.4
"/>
<use x="291.93" y="76.01" xlink:href="#hl"/>
<use x="291.93" y="73.01" xlink:href="#hd"/>
<circle fill="currentColor" cx="299.93" cy="73.01" r="1.2"/>
<path d="M288.43 73.01v21.00" stroke="currentColor" fill="none"/>
<use x="327.63" y="76.01" xlink:href="#hl"/>
<use x="327.63" y="73.01" xlink:href="#hd"/>
<path d="M324.13 73.01v22.00" stroke="currentColor" fill="none"/>
<path fill="currentColor"
	d="M324.13 95.01c0.9 -3.7 9.1 -6.4 6 -12.4
	c1 5.4 -4.2 8.4 -6 8.4
M324.13 89.61c0.9 -3.7 9.1 -6.4 6 -12.4
	c1 5.4 -4.2 8.4 -6 8.4
"/>
<path fill="currentColor"
	d="M339.33 94.21l14.80 0.00v-3.20l-14.80 -0.00"/>
<path fill="currentColor"
	d="M345.63 89.21l-6.00 -0.00v-3.20l6.00 0.00"/>
<use x="343.13" y="76.01" xlink:href="#hl"/>
<use x="343.13" y="70.01" xlink:href="#hl"/>
<use x="343.13" y="70.01" xlink:href="#hd"/>
<path d="M339.63 70.01v23.20" stroke="currentColor" fill="none"/>
<use x="357.23" y="76.01" xlink:href="#hl"/>
<use x="357.23" y="73.01" xlink:href="#hd"/>
<circle fill="currentColor" cx="365.23" cy="73.01" r="1.2"/>
<path d="M353.73 73.01v20.20" stroke="currentColor" fill="none"/>
<path fill="currentColor"
	d="M386.43 107.01l21.20 0.00v-3.20l-21.20 -0.00"/>
<path fill="currentColor"
	d="M386.83 102.01l10.20 0.00v-3.20l-10.20 -0.00"/>
<path fill="currentColor"
	d="M386.83 97.01l10.20 0.00v-3.20l-10.20 -0.00"/>
<use x="390.33" y="79.01" xlink:href="#hd"/>
<path d="M386.83 79.01v27.00" stroke="currentColor" fill="none"/>
<use x="400.53" y="82.01" xlink:href="#hd"/>
<path d="M397.03 82.01v24.00" stroke="currentColor" fill="none"/>
<use x="410.73" y="79.01" xlink:href="#hd"/>
<circle fill="currentColor" cx="418.73" cy="79.01" r="1.2"/>
<path d="M407.23 79.01v27.00" stroke="currentColor" fill="none"/>
<path fill="currentColor"
	d="M431.83 104.41l14.60 2.20v-3.20l-14.60 -2.20"/>
<path fill="currentColor"
	d="M438.23 100.41l-6.00 -0.90v-3.20l6.00 0.90"/>
<use x="435.73" y="82.01" xlink:href="#hd"/>
<path d="M432.23 82.01v21.50" stroke="currentColor" fill="none"/>
<use x="449.63" y="85.01" xlink:href="#hd"/>
<circle fill="currentColor" cx="457.63" cy="85.01" r="1.2"/>
<path d="M446.13 85.01v20.50" stroke="currentColor" fill="none"/>
<path fill="currentColor"
	d="M470.73 118.91l21.20 0.00v-3.20l-21.20 -0.00"/>
<path fill="currentColor"
	d="M471.03 113.91l10.20 0.00v-3.20l-10.20 -0.00"/>
<path fill="currentColor"
	d="M471.03 108.91l10.20 0.00v-3.20l-10.20 -0.00"/>
<use x="474.53" y="91.01" xlink:href="#hd"/>
<path d="M471.03 91.01v27.00" stroke="currentColor" fill="none"/>
<use x="484.73" y="94.01" xlink:href="#hd"/>
<path d="M481.23 94.01v24.00" stroke="currentColor" fill="none"/>
<use x="495.03" y="91.01" xlink:href="#hd"/>
<circle fill="currentColor" cx="503.03" cy="91.01" r="1.2"/>
<path d="M491.53 91.01v27.00" stroke="currentColor" fill="none"/>
<path fill="currentColor"
	d="M520.83 71.71l14.60 3.40v3.20l-14.60 -3.40"/>
<path fill="currentColor"
	d="M527.23 78.21l-6.00 -1.40v3.20l6.00 1.40"/>
<use x="517.73" y="94.01" xlink:href="#hd"/>
<path d="M521.23 94.01v-21.20" stroke="currentColor" fill="none"/>
<use x="531.63" y="100.01" xlink:href="#hd"/>
<circle fill="currentColor" cx="539.63" cy="97.01" r="1.2"/>
<path d="M535.13 100.01v-24.00" stroke="currentColor" fill="none"/>
<path fill="currentColor"
	d="M567.83 75.01l56.40 0.00v3.20l-56.40 -0.00"/>
<path fill="currentColor"
	d="M568.13 80.01l55.80 0.00v3.20l-55.80 -0.00"/>
<path fill="currentColor"
	d="M568.13 85.01l10.20 0.00v3.20l-10.20 -0.00"/>
<path fill="currentColor"
	d="M617.83 85.01l6.00 0.00v3.20l-6.00 -0.00"/>
<use x="564.63" y="103.01" xlink:href="#hd"/>
<path d="M568.13 103.01v-27.00" stroke="currentColor" fill="none"/>
<use x="574.83" y="100.01" xlink:href="#hd"/>
<path d="M578.33 100.01v-24.00" stroke="currentColor" fill="none"/>
<use x="585.13" y="103.01" xlink:href="#hd"/>
<circle fill="currentColor" cx="593.13" cy="103.01" r="1.2"/>
<path d="M588.63 103.01v-27.00" stroke="currentColor" fill="none"/>
<use x="601.83" y="106.01" xlink:href="#hd"/>
<path d="M605.33 106.01v-30.00" stroke="currentColor" fill="none"/>
<use x="620.33" y="106.01" xlink:href="#hd"/>
<path d="M623.83 106.01v-30.00" stroke="currentColor" fill="none"/>
<use x="627.43" y="103.01" xlink:href="#hd"/>
<use x="649.93" y="103.01" xlink:href="#hd"/>
<path d="M653.43 103.01v-21.00" stroke="currentColor" fill="none"/>
<path fill="currentColor"
	d="M653.43 82.01c0.9 3.7 9.1 6.4 6 12.4
	c1 -5.4 -4.2 -8.4 -6 -8.4
M653.43 87.41c0.9 3.7 9.1 6.4 6 12.4
	c1 -5.4 -4.2 -8.4 -6 -8.4
"/>
<use x="666.43" y="100.01" xlink:href="#hd"/>
<path d="M669.93 100.01v-20.00" stroke="currentColor" fill="none"/>
<path fill="currentColor"
	d="M133.13 94.01c4.51 5.02 24.15 5.02 28.66 -0.00
	l0.00 0.23c-5.37 6.79 -23.29 6.79 -28.66 -0.23"/>
<path fill="currentColor"
	d="M295.43 71.01c4.51 -5.02 24.15 -5.02 28.66 -0.00
	l0.00 -0.23c-5.37 -6.79 -23.29 -6.79 -28.66 0.23"/>
<path fill="currentColor"
	d="M601.83 106.01c2.91 4.83 15.59 4.83 18.50 -0.00
	l0.00 0.22c-3.47 6.61 -15.03 6.61 -18.50 -0.22"/>
<path fill="currentColor"
	d="M628.13 105.01c2.88 4.83 15.42 4.83 18.31 -0.00
	l0.00 0.22c-3.43 6.61 -14.88 6.61 -18.31 -0.22"/>
</g>
</svg>
