<?xml version="1.0" standalone="no"?>
<!DOCTYPE svg PUBLIC "-//W3C//DTD SVG 1.1//EN"
	"http://www.w3.org/Graphics/SVG/1.1/DTD/svg11.dtd">
<svg xmlns="http://www.w3.org/2000/svg" version="1.1"
	xmlns:xlink="http://www.w3.org/1999/xlink"
	xml:space='preserve' color="black"
	width="7.38in" height="1.34in" viewBox="0 0 531 97">
<title>3324.abc (3324) tune 1</title>
<!-- Creator: abcm2ps-7.8.14 -->
<!-- CreationDate: Mar 13, 2016 18:54 -->
<!-- CommandLine: -qxg 3324.abc -O ../svgs/3324.svg -->
<g transform="scale(0.750)" stroke-width="0.70" font-family="Times" font-size="20.00">
<text x="354.13" y="21.67" text-anchor="middle">3324.  Rapsodie Norvegienne, 2nd. Mvt. - 1st. Theme A</text>
</g>
<g transform="scale(0.750)" stroke-width="0.70" font-family="Times" font-size="14.00" font-style="italic">
<text x="694.93" y="45.34" text-anchor="end">Edward Lalo</text>
</g>
<g transform="scale(0.525)" stroke-width="0.70" font-family="Times" font-size="14.00" font-style="italic">
<defs>
<ellipse id="hd" rx="4.1" ry="2.9"
	transform="rotate(-20)" fill="currentColor"/>
</defs>
<use x="107.04" y="94.16" xlink:href="#hd"/>
<path d="M110.54 94.16v-20.00" stroke="currentColor" fill="none"/>
</g>
<g transform="scale(0.750)" stroke-width="0.70" font-family="Times" font-size="15.00" font-weight="bold">
<text x="82.63" y="68.01">= 120</text>
<path stroke="currentColor" fill="none"
	d="M122.03 106.01v-24.00"/>
<path stroke="currentColor" fill="none"
	d="M173.73 106.01v-24.00"/>
<path stroke="currentColor" fill="none"
	d="M233.93 106.01v-24.00"/>
<path stroke="currentColor" fill="none"
	d="M278.53 106.01v-24.00"/>
<path stroke="currentColor" fill="none"
	d="M338.73 106.01v-24.00"/>
<path stroke="currentColor" fill="none"
	d="M390.43 106.01v-24.00"/>
<path stroke="currentColor" fill="none"
	d="M450.63 106.01v-24.00"/>
<path stroke="currentColor" fill="none"
	d="M495.23 106.01v-24.00"/>
<path stroke="currentColor" fill="none"
	d="M555.43 106.01v-24.00"/>
<path stroke="currentColor" fill="none"
	d="M615.43 106.01v-24.00"/>
<path stroke="currentColor" fill="none"
	d="M675.63 106.01v-24.00"/>
<path stroke="currentColor" fill="none"
	d="M13.33 106.01h681.60m-681.60 -6h681.60m-681.60 -6h681.60m-681.60 -6h681.60m-681.60 -6h681.60"/>
<defs>
<path id="utclef" fill="currentColor" d="m-50 -90
	c-72 -41 -72 -158 52 -188
	c150 -10 220 188 90 256
	c-114 52 -275 0 -293 -136
	c-15 -181 93 -229 220 -334
	c88 -87 79 -133 62 -210
	c-51 33 -94 105 -89 186
	c17 267 36 374 49 574
	c6 96 -19 134 -77 135
	c-80 1 -126 -93 -61 -133
	c85 -41 133 101 31 105
	c23 17 92 37 90 -92
	c-10 -223 -39 -342 -50 -617
	c0 -90 0 -162 96 -232
	c56 72 63 230 22 289
	c-74 106 -257 168 -255 316
	c9 153 148 185 252 133
	c86 -65 29 -192 -80 -176
	c-71 12 -105 67 -59 124"/>
<use id="tclef" transform="scale(0.045)"
	xlink:href="#utclef"/>
</defs>
<use x="25.33" y="106.01" xlink:href="#tclef"/>
<defs>
<path id="uflat" fill="currentColor" d="
	m100 -746
	h32
	v734
	l-32 4
	m32 -332
	c46 -72 152 -90 208 -20
	c100 110 -120 326 -208 348
	m0 -28
	c54 0 200 -206 130 -290
	c-50 -60 -130 -4 -130 34"/>
<use id="ft0" transform="translate(-3.5,3.5) scale(0.018)"
	xlink:href="#uflat"/>
</defs>
<use x="40.33" y="94.01" xlink:href="#ft0"/>
<g font-family="serif" font-size="16" font-weight="bold" font-style="normal"
	transform="translate(56.33,106.01) scale(1.2,1)">
	<text y="-1" text-anchor="middle">4</text>
	<text y="-13" text-anchor="middle">3</text>
</g>
<use x="74.33" y="88.01" xlink:href="#hd"/>
<path d="M70.83 88.01v20.00" stroke="currentColor" fill="none"/>
<use x="84.73" y="91.01" xlink:href="#hd"/>
<path d="M81.23 91.01v20.00" stroke="currentColor" fill="none"/>
<path fill="currentColor"
	d="M81.23 111.01c0.6 -5.6 9.6 -9 5.6 -18.4
	c1.6 6 -1.3 11.6 -5.6 12.8
"/>
<path fill="currentColor"
	d="M90.33 107.31l19.10 -3.80v-3.20l-19.10 3.80"/>
<use x="94.13" y="88.01" xlink:href="#hd"/>
<path d="M90.63 88.01v18.20" stroke="currentColor" fill="none"/>
<use x="103.33" y="85.01" xlink:href="#hd"/>
<path d="M99.83 85.01v19.40" stroke="currentColor" fill="none"/>
<use x="112.53" y="82.01" xlink:href="#hd"/>
<path d="M109.03 82.01v20.60" stroke="currentColor" fill="none"/>
<use x="134.53" y="88.01" xlink:href="#hd"/>
<path d="M131.03 88.01v20.00" stroke="currentColor" fill="none"/>
<use x="144.93" y="85.01" xlink:href="#hd"/>
<path d="M141.43 85.01v20.00" stroke="currentColor" fill="none"/>
<path fill="currentColor"
	d="M141.43 105.01c0.6 -5.6 9.6 -9 5.6 -18.4
	c1.6 6 -1.3 11.6 -5.6 12.8
"/>
<use x="154.33" y="91.01" xlink:href="#hd"/>
<path d="M150.83 91.01v20.00" stroke="currentColor" fill="none"/>
<path fill="currentColor"
	d="M150.83 111.01c0.6 -5.6 9.6 -9 5.6 -18.4
	c1.6 6 -1.3 11.6 -5.6 12.8
"/>
<use x="163.63" y="97.01" xlink:href="#hd"/>
<path d="M167.13 97.01v-20.00" stroke="currentColor" fill="none"/>
<use x="186.23" y="88.01" xlink:href="#hd"/>
<path d="M182.73 88.01v20.00" stroke="currentColor" fill="none"/>
<use x="196.63" y="91.01" xlink:href="#hd"/>
<path d="M193.13 91.01v20.00" stroke="currentColor" fill="none"/>
<path fill="currentColor"
	d="M193.13 111.01c0.6 -5.6 9.6 -9 5.6 -18.4
	c1.6 6 -1.3 11.6 -5.6 12.8
"/>
<path fill="currentColor"
	d="M202.23 107.31l19.10 -3.80v-3.20l-19.10 3.80"/>
<use x="206.03" y="88.01" xlink:href="#hd"/>
<path d="M202.53 88.01v18.20" stroke="currentColor" fill="none"/>
<use x="215.23" y="85.01" xlink:href="#hd"/>
<path d="M211.73 85.01v19.40" stroke="currentColor" fill="none"/>
<use x="224.43" y="82.01" xlink:href="#hd"/>
<path d="M220.93 82.01v20.60" stroke="currentColor" fill="none"/>
<use x="246.43" y="88.01" xlink:href="#hd"/>
<path d="M242.93 88.01v20.00" stroke="currentColor" fill="none"/>
<defs>
<path id="hl" stroke="currentColor" d="m-6 0h12"/>
</defs>
<use x="256.83" y="76.01" xlink:href="#hl"/>
<use x="256.83" y="70.01" xlink:href="#hl"/>
<use x="256.83" y="67.01" xlink:href="#hd"/>
<path d="M253.33 67.01v27.00" stroke="currentColor" fill="none"/>
<use x="268.43" y="76.01" xlink:href="#hl"/>
<use x="268.43" y="70.01" xlink:href="#hl"/>
<use x="268.43" y="67.01" xlink:href="#hd"/>
<path d="M264.93 67.01v27.00" stroke="currentColor" fill="none"/>
<use x="291.03" y="88.01" xlink:href="#hd"/>
<path d="M287.53 88.01v20.00" stroke="currentColor" fill="none"/>
<use x="301.43" y="91.01" xlink:href="#hd"/>
<path d="M297.93 91.01v20.00" stroke="currentColor" fill="none"/>
<path fill="currentColor"
	d="M297.93 111.01c0.6 -5.6 9.6 -9 5.6 -18.4
	c1.6 6 -1.3 11.6 -5.6 12.8
"/>
<path fill="currentColor"
	d="M307.03 107.31l19.10 -3.80v-3.20l-19.10 3.80"/>
<use x="310.83" y="88.01" xlink:href="#hd"/>
<path d="M307.33 88.01v18.20" stroke="currentColor" fill="none"/>
<use x="320.03" y="85.01" xlink:href="#hd"/>
<path d="M316.53 85.01v19.40" stroke="currentColor" fill="none"/>
<use x="329.23" y="82.01" xlink:href="#hd"/>
<path d="M325.73 82.01v20.60" stroke="currentColor" fill="none"/>
<use x="351.23" y="88.01" xlink:href="#hd"/>
<path d="M347.73 88.01v20.00" stroke="currentColor" fill="none"/>
<use x="361.63" y="85.01" xlink:href="#hd"/>
<path d="M358.13 85.01v20.00" stroke="currentColor" fill="none"/>
<path fill="currentColor"
	d="M358.13 105.01c0.6 -5.6 9.6 -9 5.6 -18.4
	c1.6 6 -1.3 11.6 -5.6 12.8
"/>
<use x="371.13" y="91.01" xlink:href="#hd"/>
<path d="M367.63 91.01v20.00" stroke="currentColor" fill="none"/>
<path fill="currentColor"
	d="M367.63 111.01c0.6 -5.6 9.6 -9 5.6 -18.4
	c1.6 6 -1.3 11.6 -5.6 12.8
"/>
<use x="380.33" y="97.01" xlink:href="#hd"/>
<path d="M383.83 97.01v-20.00" stroke="currentColor" fill="none"/>
<use x="402.93" y="88.01" xlink:href="#hd"/>
<path d="M399.43 88.01v20.00" stroke="currentColor" fill="none"/>
<use x="413.33" y="91.01" xlink:href="#hd"/>
<path d="M409.83 91.01v20.00" stroke="currentColor" fill="none"/>
<path fill="currentColor"
	d="M409.83 111.01c0.6 -5.6 9.6 -9 5.6 -18.4
	c1.6 6 -1.3 11.6 -5.6 12.8
"/>
<path fill="currentColor"
	d="M418.93 107.31l19.10 -3.80v-3.20l-19.10 3.80"/>
<use x="422.73" y="88.01" xlink:href="#hd"/>
<path d="M419.23 88.01v18.20" stroke="currentColor" fill="none"/>
<use x="431.93" y="85.01" xlink:href="#hd"/>
<path d="M428.43 85.01v19.40" stroke="currentColor" fill="none"/>
<use x="441.13" y="82.01" xlink:href="#hd"/>
<path d="M437.63 82.01v20.60" stroke="currentColor" fill="none"/>
<use x="463.13" y="88.01" xlink:href="#hd"/>
<path d="M459.63 88.01v20.00" stroke="currentColor" fill="none"/>
<use x="473.53" y="76.01" xlink:href="#hl"/>
<use x="473.53" y="70.01" xlink:href="#hl"/>
<use x="473.53" y="67.01" xlink:href="#hd"/>
<path d="M470.03 67.01v27.00" stroke="currentColor" fill="none"/>
<use x="485.13" y="76.01" xlink:href="#hl"/>
<use x="485.13" y="70.01" xlink:href="#hl"/>
<use x="485.13" y="67.01" xlink:href="#hd"/>
<path d="M481.63 67.01v27.00" stroke="currentColor" fill="none"/>
<use x="507.73" y="76.01" xlink:href="#hl"/>
<use x="507.73" y="76.01" xlink:href="#hd"/>
<path d="M504.23 76.01v20.00" stroke="currentColor" fill="none"/>
<use x="518.13" y="79.01" xlink:href="#hd"/>
<path d="M514.63 79.01v20.00" stroke="currentColor" fill="none"/>
<path fill="currentColor"
	d="M514.63 99.01c0.6 -5.6 9.6 -9 5.6 -18.4
	c1.6 6 -1.3 11.6 -5.6 12.8
"/>
<path fill="currentColor"
	d="M523.73 100.21l19.10 0.00v-3.20l-19.10 -0.00"/>
<use x="527.53" y="76.01" xlink:href="#hl"/>
<use x="527.53" y="76.01" xlink:href="#hd"/>
<path d="M524.03 76.01v23.20" stroke="currentColor" fill="none"/>
<use x="536.73" y="82.01" xlink:href="#hd"/>
<path d="M533.23 82.01v17.20" stroke="currentColor" fill="none"/>
<use x="545.93" y="79.01" xlink:href="#hd"/>
<path d="M542.43 79.01v20.20" stroke="currentColor" fill="none"/>
<path fill="currentColor"
	d="M564.13 106.21l19.10 0.00v-3.20l-19.10 -0.00"/>
<use x="567.93" y="85.01" xlink:href="#hd"/>
<path d="M564.43 85.01v20.20" stroke="currentColor" fill="none"/>
<use x="577.23" y="82.01" xlink:href="#hd"/>
<path d="M573.73 82.01v23.20" stroke="currentColor" fill="none"/>
<use x="586.43" y="88.01" xlink:href="#hd"/>
<path d="M582.93 88.01v17.20" stroke="currentColor" fill="none"/>
<use x="595.83" y="85.01" xlink:href="#hd"/>
<path d="M592.33 85.01v20.00" stroke="currentColor" fill="none"/>
<path fill="currentColor"
	d="M592.33 105.01c0.6 -5.6 9.6 -9 5.6 -18.4
	c1.6 6 -1.3 11.6 -5.6 12.8
"/>
<use x="605.33" y="91.01" xlink:href="#hd"/>
<path d="M601.83 91.01v20.00" stroke="currentColor" fill="none"/>
<use x="627.93" y="88.01" xlink:href="#hd"/>
<path d="M624.43 88.01v20.00" stroke="currentColor" fill="none"/>
<use x="638.33" y="91.01" xlink:href="#hd"/>
<path d="M634.83 91.01v20.00" stroke="currentColor" fill="none"/>
<path fill="currentColor"
	d="M634.83 111.01c0.6 -5.6 9.6 -9 5.6 -18.4
	c1.6 6 -1.3 11.6 -5.6 12.8
"/>
<path fill="currentColor"
	d="M643.93 107.31l19.10 -3.80v-3.20l-19.10 3.80"/>
<use x="647.73" y="88.01" xlink:href="#hd"/>
<path d="M644.23 88.01v18.20" stroke="currentColor" fill="none"/>
<use x="656.93" y="85.01" xlink:href="#hd"/>
<path d="M653.43 85.01v19.40" stroke="currentColor" fill="none"/>
<use x="666.13" y="82.01" xlink:href="#hd"/>
<path d="M662.63 82.01v20.60" stroke="currentColor" fill="none"/>
<use x="688.13" y="88.01" xlink:href="#hd"/>
<path d="M684.63 88.01v20.00" stroke="currentColor" fill="none"/>
</g>
</svg>
