<?xml version="1.0" standalone="no"?>
<!DOCTYPE svg PUBLIC "-//W3C//DTD SVG 1.1//EN"
	"http://www.w3.org/Graphics/SVG/1.1/DTD/svg11.dtd">
<svg xmlns="http://www.w3.org/2000/svg" version="1.1"
	xmlns:xlink="http://www.w3.org/1999/xlink"
	xml:space='preserve' color="black"
	width="7.38in" height="1.36in" viewBox="0 0 531 98">
<title>3346.abc (3346) tune 1</title>
<!-- Creator: abcm2ps-7.8.14 -->
<!-- CreationDate: Mar 13, 2016 18:54 -->
<!-- CommandLine: -qxg 3346.abc -O ../svgs/3346.svg -->
<g transform="scale(0.750)" stroke-width="0.70" font-family="Times" font-size="20.00">
<text x="354.13" y="21.67" text-anchor="middle">3346.  Fest-Overture, Op. 51, 1st. Theme</text>
</g>
<g transform="scale(0.750)" stroke-width="0.70" font-family="Times" font-size="14.00" font-style="italic">
<text x="694.93" y="45.34" text-anchor="end">Eduard Lassen</text>
</g>
<g transform="scale(0.525)" stroke-width="0.70" font-family="Times" font-size="14.00" font-style="italic">
<defs>
<ellipse id="hd" rx="4.1" ry="2.9"
	transform="rotate(-20)" fill="currentColor"/>
</defs>
<use x="123.47" y="94.16" xlink:href="#hd"/>
<path d="M126.97 94.16v-20.00" stroke="currentColor" fill="none"/>
</g>
<g transform="scale(0.750)" stroke-width="0.70" font-family="Times" font-size="15.00" font-weight="bold">
<text x="94.13" y="68.01">= 120</text>
<path stroke="currentColor" fill="none"
	d="M153.83 108.01v-24.00"/>
<path stroke="currentColor" fill="none"
	d="M249.23 108.01v-24.00"/>
<path stroke="currentColor" fill="none"
	d="M330.23 108.01v-24.00"/>
<path stroke="currentColor" fill="none"
	d="M409.43 108.01v-24.00"/>
<path stroke="currentColor" fill="none"
	d="M496.93 108.01v-24.00"/>
<path stroke="currentColor" fill="none"
	d="M578.53 108.01v-24.00"/>
<path stroke="currentColor" fill="none"
	d="M657.13 108.01v-24.00"/>
<path stroke="currentColor" fill="none"
	d="M13.33 108.01h681.60m-681.60 -6h681.60m-681.60 -6h681.60m-681.60 -6h681.60m-681.60 -6h681.60"/>
<defs>
<path id="utclef" fill="currentColor" d="m-50 -90
	c-72 -41 -72 -158 52 -188
	c150 -10 220 188 90 256
	c-114 52 -275 0 -293 -136
	c-15 -181 93 -229 220 -334
	c88 -87 79 -133 62 -210
	c-51 33 -94 105 -89 186
	c17 267 36 374 49 574
	c6 96 -19 134 -77 135
	c-80 1 -126 -93 -61 -133
	c85 -41 133 101 31 105
	c23 17 92 37 90 -92
	c-10 -223 -39 -342 -50 -617
	c0 -90 0 -162 96 -232
	c56 72 63 230 22 289
	c-74 106 -257 168 -255 316
	c9 153 148 185 252 133
	c86 -65 29 -192 -80 -176
	c-71 12 -105 67 -59 124"/>
<use id="tclef" transform="scale(0.045)"
	xlink:href="#utclef"/>
</defs>
<use x="25.33" y="108.01" xlink:href="#tclef"/>
<defs>
<path id="uflat" fill="currentColor" d="
	m100 -746
	h32
	v734
	l-32 4
	m32 -332
	c46 -72 152 -90 208 -20
	c100 110 -120 326 -208 348
	m0 -28
	c54 0 200 -206 130 -290
	c-50 -60 -130 -4 -130 34"/>
<use id="ft0" transform="translate(-3.5,3.5) scale(0.018)"
	xlink:href="#uflat"/>
</defs>
<use x="40.33" y="96.01" xlink:href="#ft0"/>
<use x="45.83" y="87.01" xlink:href="#ft0"/>
<use x="51.33" y="99.01" xlink:href="#ft0"/>
<g font-family="serif" font-size="16" font-weight="bold" font-style="normal"
	transform="translate(67.33,108.01) scale(1.2,1)">
	<text y="-1" text-anchor="middle">4</text>
	<text y="-13" text-anchor="middle">4</text>
</g>
<defs>
<path id="Hd" fill="currentColor" d="m3 -1.6
	c-1 -1.8 -7 1.4 -6 3.2
	c1 1.8 7 -1.4 6 -3.2
	m0.5 -0.3
	c2 3.8 -5 7.6 -7 3.8
	c-2 -3.8 5 -7.6 7 -3.8"/>
</defs>
<use x="85.83" y="96.01" xlink:href="#Hd"/>
<path d="M89.33 96.01v-20.00" stroke="currentColor" fill="none"/>
<use x="116.33" y="102.01" xlink:href="#hd"/>
<use x="107.33" y="102.01" xlink:href="#ft0"/>
<path d="M119.83 102.01v-20.00" stroke="currentColor" fill="none"/>
<use x="136.83" y="108.01" xlink:href="#hd"/>
<path d="M140.33 108.01v-20.00" stroke="currentColor" fill="none"/>
<use x="172.33" y="111.01" xlink:href="#hd"/>
<circle fill="currentColor" cx="180.33" cy="111.01" r="1.2"/>
<use x="163.33" y="111.01" xlink:href="#ft0"/>
<path d="M175.83 111.01v-20.00" stroke="currentColor" fill="none"/>
<use x="199.63" y="102.01" xlink:href="#hd"/>
<use x="190.63" y="102.01" xlink:href="#ft0"/>
<path d="M203.13 102.01v-20.00" stroke="currentColor" fill="none"/>
<path fill="currentColor"
	d="	M203.13 82.01c0.6 5.6 9.6 9 5.6 18.4
	c1.6 -6 -1.3 -11.6 -5.6 -12.8
"/>
<use x="226.13" y="102.01" xlink:href="#Hd"/>
<use x="216.13" y="102.01" xlink:href="#ft0"/>
<path d="M229.63 102.01v-20.00" stroke="currentColor" fill="none"/>
<use x="262.23" y="99.01" xlink:href="#Hd"/>
<path d="M265.73 99.01v-20.00" stroke="currentColor" fill="none"/>
<use x="292.73" y="102.01" xlink:href="#hd"/>
<use x="283.73" y="102.01" xlink:href="#ft0"/>
<path d="M296.23 102.01v-20.00" stroke="currentColor" fill="none"/>
<use x="313.23" y="99.01" xlink:href="#hd"/>
<path d="M316.73 99.01v-20.00" stroke="currentColor" fill="none"/>
<use x="342.73" y="96.01" xlink:href="#hd"/>
<path d="M346.23 96.01v-20.00" stroke="currentColor" fill="none"/>
<use x="363.23" y="108.01" xlink:href="#hd"/>
<path d="M366.73 108.01v-20.00" stroke="currentColor" fill="none"/>
<use x="386.33" y="111.01" xlink:href="#Hd"/>
<use x="376.33" y="111.01" xlink:href="#ft0"/>
<path d="M389.83 111.01v-20.00" stroke="currentColor" fill="none"/>
<use x="428.93" y="111.01" xlink:href="#Hd"/>
<use x="418.93" y="111.01" xlink:href="#ft0"/>
<path d="M432.43 111.01v-20.00" stroke="currentColor" fill="none"/>
<defs>
<path id="hl" stroke="currentColor" d="m-6 0h12"/>
</defs>
<use x="457.13" y="114.01" xlink:href="#hl"/>
<use x="457.13" y="114.01" xlink:href="#hd"/>
<path d="M460.63 114.01v-20.00" stroke="currentColor" fill="none"/>
<use x="479.93" y="111.01" xlink:href="#hd"/>
<use x="470.93" y="111.01" xlink:href="#ft0"/>
<path d="M483.43 111.01v-20.00" stroke="currentColor" fill="none"/>
<use x="509.43" y="108.01" xlink:href="#hd"/>
<path d="M512.93 108.01v-20.00" stroke="currentColor" fill="none"/>
<use x="532.23" y="96.01" xlink:href="#hd"/>
<defs>
<path id="unat" fill="currentColor" d="
	m96 -750
	h-32
	v716
	l32 -8
	l182 -54
	v282
	h32
	v-706
	l-34 10
	l-180 50
	v-290
	m0 592
	v-190
	l182 -52
	v188"/>
<use id="nt0" transform="translate(-3,5) scale(0.018)"
	xlink:href="#unat"/>
</defs>
<use x="523.23" y="96.01" xlink:href="#nt0"/>
<path d="M528.73 96.01v20.00" stroke="currentColor" fill="none"/>
<use x="555.43" y="96.01" xlink:href="#Hd"/>
<use x="545.43" y="96.01" xlink:href="#ft0"/>
<path d="M551.93 96.01v20.00" stroke="currentColor" fill="none"/>
<use x="591.53" y="99.01" xlink:href="#Hd"/>
<path d="M595.03 99.01v-20.00" stroke="currentColor" fill="none"/>
<use x="619.63" y="96.01" xlink:href="#hd"/>
<path d="M623.13 96.01v-20.00" stroke="currentColor" fill="none"/>
<use x="640.13" y="99.01" xlink:href="#hd"/>
<path d="M643.63 99.01v-20.00" stroke="currentColor" fill="none"/>
<use x="675.63" y="111.01" xlink:href="#hd"/>
<use x="666.63" y="111.01" xlink:href="#ft0"/>
<path d="M679.13 111.01v-20.00" stroke="currentColor" fill="none"/>
</g>
</svg>
