<?xml version="1.0" standalone="no"?>
<!DOCTYPE svg PUBLIC "-//W3C//DTD SVG 1.1//EN"
	"http://www.w3.org/Graphics/SVG/1.1/DTD/svg11.dtd">
<svg xmlns="http://www.w3.org/2000/svg" version="1.1"
	xmlns:xlink="http://www.w3.org/1999/xlink"
	xml:space='preserve' color="black"
	width="7.38in" height="1.34in" viewBox="0 0 531 97">
<title>3368.abc (3368) tune 1</title>
<!-- Creator: abcm2ps-7.8.14 -->
<!-- CreationDate: Mar 13, 2016 18:54 -->
<!-- CommandLine: -qxg 3368.abc -O ../svgs/3368.svg -->
<g transform="scale(0.750)" stroke-width="0.70" font-family="Times" font-size="20.00">
<text x="354.13" y="21.67" text-anchor="middle">3368.  Suite Andalucia, 3rd. Theme</text>
</g>
<g transform="scale(0.750)" stroke-width="0.70" font-family="Times" font-size="14.00" font-style="italic">
<text x="694.93" y="45.34" text-anchor="end">Ernesto Lecuona</text>
</g>
<g transform="scale(0.525)" stroke-width="0.70" font-family="Times" font-size="14.00" font-style="italic">
<defs>
<ellipse id="hd" rx="4.1" ry="2.9"
	transform="rotate(-20)" fill="currentColor"/>
</defs>
<use x="130.61" y="94.16" xlink:href="#hd"/>
<path d="M134.11 94.16v-20.00" stroke="currentColor" fill="none"/>
</g>
<g transform="scale(0.750)" stroke-width="0.70" font-family="Times" font-size="15.00" font-weight="bold">
<text x="99.13" y="68.01">= 120</text>
<path stroke="currentColor" fill="none"
	d="M221.33 106.01v-24.00"/>
<path stroke="currentColor" fill="none"
	d="M381.33 106.01v-24.00"/>
<path stroke="currentColor" fill="none"
	d="M551.23 106.01v-24.00"/>
<path stroke="currentColor" fill="none"
	d="M694.93 106.01v-24.00"/>
<path stroke="currentColor" fill="none"
	d="M13.33 106.01h681.60m-681.60 -6h681.60m-681.60 -6h681.60m-681.60 -6h681.60m-681.60 -6h681.60"/>
<defs>
<path id="utclef" fill="currentColor" d="m-50 -90
	c-72 -41 -72 -158 52 -188
	c150 -10 220 188 90 256
	c-114 52 -275 0 -293 -136
	c-15 -181 93 -229 220 -334
	c88 -87 79 -133 62 -210
	c-51 33 -94 105 -89 186
	c17 267 36 374 49 574
	c6 96 -19 134 -77 135
	c-80 1 -126 -93 -61 -133
	c85 -41 133 101 31 105
	c23 17 92 37 90 -92
	c-10 -223 -39 -342 -50 -617
	c0 -90 0 -162 96 -232
	c56 72 63 230 22 289
	c-74 106 -257 168 -255 316
	c9 153 148 185 252 133
	c86 -65 29 -192 -80 -176
	c-71 12 -105 67 -59 124"/>
<use id="tclef" transform="scale(0.045)"
	xlink:href="#utclef"/>
</defs>
<use x="25.33" y="106.01" xlink:href="#tclef"/>
<defs>
<path id="usharp" fill="currentColor" d="
	m136 -702
	v890
	h32
	v-890
	m128 840
	h32
	v-888
	h-32
	m-232 286
	v116
	l338 -96
	v-116
	m-338 442
	v116
	l338 -98
	v-114"/>
<use id="sh0" transform="translate(-4,5) scale(0.018)"
	xlink:href="#usharp"/>
</defs>
<use x="40.33" y="82.01" xlink:href="#sh0"/>
<use x="45.83" y="91.01" xlink:href="#sh0"/>
<use x="51.33" y="79.01" xlink:href="#sh0"/>
<use x="56.83" y="88.01" xlink:href="#sh0"/>
<g font-family="serif" font-size="16" font-weight="bold" font-style="normal"
	transform="translate(72.83,106.01) scale(1.2,1)">
	<text y="-1" text-anchor="middle">4</text>
	<text y="-13" text-anchor="middle">3</text>
</g>
<path fill="currentColor"
	d="M87.03 110.41l48.40 -4.90v-3.20l-48.40 4.90"/>
<use x="90.83" y="91.01" xlink:href="#hd"/>
<path d="M87.33 91.01v18.40" stroke="currentColor" fill="none"/>
<use x="114.83" y="88.01" xlink:href="#hd"/>
<defs>
<path id="unat" fill="currentColor" d="
	m96 -750
	h-32
	v716
	l32 -8
	l182 -54
	v282
	h32
	v-706
	l-34 10
	l-180 50
	v-290
	m0 592
	v-190
	l182 -52
	v188"/>
<use id="nt0" transform="translate(-3,5) scale(0.018)"
	xlink:href="#unat"/>
</defs>
<use x="105.83" y="88.01" xlink:href="#nt0"/>
<path d="M111.33 88.01v19.00" stroke="currentColor" fill="none"/>
<use x="138.53" y="85.01" xlink:href="#hd"/>
<path d="M135.03 85.01v19.60" stroke="currentColor" fill="none"/>
<use x="165.13" y="88.01" xlink:href="#hd"/>
<use x="156.13" y="88.01" xlink:href="#nt0"/>
<path d="M161.63 88.01v20.00" stroke="currentColor" fill="none"/>
<path fill="currentColor"
	d="M161.63 108.01c0.6 -5.6 9.6 -9 5.6 -18.4
	c1.6 6 -1.3 11.6 -5.6 12.8
"/>
<use x="191.53" y="91.01" xlink:href="#hd"/>
<path d="M188.03 91.01v20.00" stroke="currentColor" fill="none"/>
<path fill="currentColor"
	d="M237.93 74.81l48.20 0.00v3.20l-48.20 -0.00"/>
<use x="234.73" y="100.01" xlink:href="#hd"/>
<path d="M238.23 100.01v-24.20" stroke="currentColor" fill="none"/>
<use x="258.53" y="94.01" xlink:href="#hd"/>
<path d="M262.03 94.01v-18.20" stroke="currentColor" fill="none"/>
<use x="282.23" y="97.01" xlink:href="#hd"/>
<path d="M285.73 97.01v-21.20" stroke="currentColor" fill="none"/>
<path fill="currentColor"
	d="M311.83 69.81l62.60 0.00v3.20l-62.60 -0.00"/>
<path fill="currentColor"
	d="M368.13 74.81l6.00 0.00v3.20l-6.00 -0.00"/>
<path fill="currentColor"
	d="M368.13 79.81l6.00 0.00v3.20l-6.00 -0.00"/>
<use x="308.63" y="100.01" xlink:href="#hd"/>
<path d="M312.13 100.01v-29.20" stroke="currentColor" fill="none"/>
<defs>
<path id="r8e" fill="currentColor" d="m 0 0
	c-1.5 1.5 -2.4 2 -3.6 2
	c2.4 -2.8 -2.8 -4 -2.8 -1.2
	c0 2.7 4.3 2.4 5.9 0.6"/>
<g id="r32">
	<path d="m4.8 -10l-5.5 21.6" stroke="currentColor" fill="none"/>
	<use x="4.9" y="-10" xlink:href="#r8e"/>
	<use x="3.4" y="-4" xlink:href="#r8e"/>
	<use x="1.9" y="2" xlink:href="#r8e"/>
</g>
</defs>
<use x="332.43" y="94.01" xlink:href="#r32"/>
<use x="343.23" y="97.01" xlink:href="#hd"/>
<circle fill="currentColor" cx="351.23" cy="97.01" r="1.2"/>
<path d="M346.73 97.01v-26.20" stroke="currentColor" fill="none"/>
<use x="370.63" y="97.01" xlink:href="#hd"/>
<path d="M374.13 97.01v-26.20" stroke="currentColor" fill="none"/>
<use x="394.63" y="94.01" xlink:href="#r32"/>
<path fill="currentColor"
	d="M409.83 80.01l50.10 0.00v3.20l-50.10 -0.00"/>
<path fill="currentColor"
	d="M416.13 85.01l-6.00 -0.00v3.20l6.00 0.00"/>
<use x="406.63" y="103.01" xlink:href="#hd"/>
<circle fill="currentColor" cx="414.63" cy="103.01" r="1.2"/>
<path d="M410.13 103.01v-22.00" stroke="currentColor" fill="none"/>
<use x="432.13" y="103.01" xlink:href="#hd"/>
<use x="423.13" y="103.01" xlink:href="#nt0"/>
<path d="M435.63 103.01v-22.00" stroke="currentColor" fill="none"/>
<use x="456.03" y="103.01" xlink:href="#hd"/>
<use x="447.03" y="103.01" xlink:href="#sh0"/>
<path d="M459.53 103.01v-22.00" stroke="currentColor" fill="none"/>
<path fill="currentColor"
	d="M485.63 79.01l48.20 0.00v3.20l-48.20 -0.00"/>
<use x="482.43" y="100.01" xlink:href="#hd"/>
<path d="M485.93 100.01v-20.00" stroke="currentColor" fill="none"/>
<use x="506.23" y="97.01" xlink:href="#hd"/>
<path d="M509.73 97.01v-17.00" stroke="currentColor" fill="none"/>
<use x="530.03" y="100.01" xlink:href="#hd"/>
<path d="M533.53 100.01v-20.00" stroke="currentColor" fill="none"/>
<path fill="currentColor"
	d="M567.73 74.61l48.20 4.90v3.20l-48.20 -4.90"/>
<use x="564.53" y="94.01" xlink:href="#hd"/>
<path d="M568.03 94.01v-18.40" stroke="currentColor" fill="none"/>
<use x="588.33" y="97.01" xlink:href="#hd"/>
<path d="M591.83 97.01v-19.00" stroke="currentColor" fill="none"/>
<use x="612.13" y="100.01" xlink:href="#hd"/>
<path d="M615.63 100.01v-19.60" stroke="currentColor" fill="none"/>
<use x="638.53" y="103.01" xlink:href="#hd"/>
<path d="M642.03 103.01v-20.00" stroke="currentColor" fill="none"/>
<path fill="currentColor"
	d="	M642.03 83.01c0.6 5.6 9.6 9 5.6 18.4
	c1.6 -6 -1.3 -11.6 -5.6 -12.8
"/>
<use x="665.13" y="91.01" xlink:href="#hd"/>
<path d="M661.63 91.01v20.00" stroke="currentColor" fill="none"/>
<path fill="currentColor"
	d="M346.73 99.01c3.21 4.87 17.16 4.87 20.37 -0.00
	l0.00 0.22c-3.82 6.65 -16.55 6.65 -20.37 -0.22"/>
</g>
</svg>
