<?xml version="1.0" standalone="no"?>
<!DOCTYPE svg PUBLIC "-//W3C//DTD SVG 1.1//EN"
	"http://www.w3.org/Graphics/SVG/1.1/DTD/svg11.dtd">
<svg xmlns="http://www.w3.org/2000/svg" version="1.1"
	xmlns:xlink="http://www.w3.org/1999/xlink"
	xml:space='preserve' color="black"
	width="7.38in" height="1.34in" viewBox="0 0 531 97">
<title>3410.abc (3410) tune 1</title>
<!-- Creator: abcm2ps-7.8.14 -->
<!-- CreationDate: Mar 13, 2016 18:54 -->
<!-- CommandLine: -qxg 3410.abc -O ../svgs/3410.svg -->
<g transform="scale(0.750)" stroke-width="0.70" font-family="Times" font-size="20.00">
<text x="354.13" y="21.67" text-anchor="middle">3410.  Pft. Etude No. 2 in F Minor</text>
</g>
<g transform="scale(0.750)" stroke-width="0.70" font-family="Times" font-size="14.00" font-style="italic">
<text x="694.93" y="45.34" text-anchor="end">Franz Liszt</text>
</g>
<g transform="scale(0.525)" stroke-width="0.70" font-family="Times" font-size="14.00" font-style="italic">
<defs>
<ellipse id="hd" rx="4.1" ry="2.9"
	transform="rotate(-20)" fill="currentColor"/>
</defs>
<use x="130.61" y="94.16" xlink:href="#hd"/>
<path d="M134.11 94.16v-20.00" stroke="currentColor" fill="none"/>
</g>
<g transform="scale(0.750)" stroke-width="0.70" font-family="Times" font-size="15.00" font-weight="bold">
<text x="99.13" y="68.01">= 120</text>
<path stroke="currentColor" fill="none"
	d="M240.03 106.01v-24.00"/>
<path stroke="currentColor" fill="none"
	d="M370.03 106.01v-24.00"/>
<path stroke="currentColor" fill="none"
	d="M546.73 106.01v-24.00"/>
<path stroke="currentColor" fill="none"
	d="M13.33 106.01h681.60m-681.60 -6h681.60m-681.60 -6h681.60m-681.60 -6h681.60m-681.60 -6h681.60"/>
<defs>
<path id="utclef" fill="currentColor" d="m-50 -90
	c-72 -41 -72 -158 52 -188
	c150 -10 220 188 90 256
	c-114 52 -275 0 -293 -136
	c-15 -181 93 -229 220 -334
	c88 -87 79 -133 62 -210
	c-51 33 -94 105 -89 186
	c17 267 36 374 49 574
	c6 96 -19 134 -77 135
	c-80 1 -126 -93 -61 -133
	c85 -41 133 101 31 105
	c23 17 92 37 90 -92
	c-10 -223 -39 -342 -50 -617
	c0 -90 0 -162 96 -232
	c56 72 63 230 22 289
	c-74 106 -257 168 -255 316
	c9 153 148 185 252 133
	c86 -65 29 -192 -80 -176
	c-71 12 -105 67 -59 124"/>
<use id="tclef" transform="scale(0.045)"
	xlink:href="#utclef"/>
</defs>
<use x="25.33" y="106.01" xlink:href="#tclef"/>
<defs>
<path id="uflat" fill="currentColor" d="
	m100 -746
	h32
	v734
	l-32 4
	m32 -332
	c46 -72 152 -90 208 -20
	c100 110 -120 326 -208 348
	m0 -28
	c54 0 200 -206 130 -290
	c-50 -60 -130 -4 -130 34"/>
<use id="ft0" transform="translate(-3.5,3.5) scale(0.018)"
	xlink:href="#uflat"/>
</defs>
<use x="40.33" y="94.01" xlink:href="#ft0"/>
<use x="45.83" y="85.01" xlink:href="#ft0"/>
<use x="51.33" y="97.01" xlink:href="#ft0"/>
<use x="56.83" y="88.01" xlink:href="#ft0"/>
<g font-family="serif" font-size="16" font-weight="bold" font-style="normal"
	transform="translate(72.83,106.01) scale(1.2,1)">
	<text y="-1" text-anchor="middle">4</text>
	<text y="-13" text-anchor="middle">3</text>
</g>
<path fill="currentColor"
	d="M87.03 110.21l50.40 -4.50v-3.20l-50.40 4.50"/>
<use x="90.83" y="91.01" xlink:href="#hd"/>
<path d="M87.33 91.01v18.20" stroke="currentColor" fill="none"/>
<use x="115.73" y="85.01" xlink:href="#hd"/>
<defs>
<path id="unat" fill="currentColor" d="
	m96 -750
	h-32
	v716
	l32 -8
	l182 -54
	v282
	h32
	v-706
	l-34 10
	l-180 50
	v-290
	m0 592
	v-190
	l182 -52
	v188"/>
<use id="nt0" transform="translate(-3,5) scale(0.018)"
	xlink:href="#unat"/>
</defs>
<use x="106.73" y="85.01" xlink:href="#nt0"/>
<path d="M112.23 85.01v22.00" stroke="currentColor" fill="none"/>
<use x="140.53" y="82.01" xlink:href="#hd"/>
<path d="M137.03 82.01v22.80" stroke="currentColor" fill="none"/>
<path fill="currentColor"
	d="M164.33 113.91l50.40 4.50v-3.20l-50.40 -4.50"/>
<use x="168.23" y="85.01" xlink:href="#hd"/>
<use x="159.23" y="85.01" xlink:href="#ft0"/>
<path d="M164.73 85.01v28.00" stroke="currentColor" fill="none"/>
<use x="193.13" y="97.01" xlink:href="#hd"/>
<use x="184.13" y="97.01" xlink:href="#nt0"/>
<path d="M189.63 97.01v18.20" stroke="currentColor" fill="none"/>
<use x="217.93" y="94.01" xlink:href="#hd"/>
<path d="M214.43 94.01v23.40" stroke="currentColor" fill="none"/>
<use x="253.83" y="88.01" xlink:href="#hd"/>
<circle fill="currentColor" cx="261.83" cy="85.01" r="1.2"/>
<path d="M250.33 88.01v20.00" stroke="currentColor" fill="none"/>
<path fill="currentColor"
	d="M294.43 113.21l50.40 0.00v-3.20l-50.40 -0.00"/>
<use x="298.23" y="91.01" xlink:href="#hd"/>
<path d="M294.73 91.01v21.20" stroke="currentColor" fill="none"/>
<use x="323.13" y="94.01" xlink:href="#hd"/>
<use x="314.13" y="94.01" xlink:href="#nt0"/>
<path d="M319.63 94.01v18.20" stroke="currentColor" fill="none"/>
<use x="347.93" y="91.01" xlink:href="#hd"/>
<path d="M344.43 91.01v21.20" stroke="currentColor" fill="none"/>
<path fill="currentColor"
	d="M391.73 75.81l61.50 0.00v3.20l-61.50 -0.00"/>
<path fill="currentColor"
	d="M446.93 80.81l6.00 0.00v3.20l-6.00 -0.00"/>
<use x="388.53" y="100.01" xlink:href="#hd"/>
<use x="379.53" y="100.01" xlink:href="#ft0"/>
<path d="M392.03 100.01v-23.20" stroke="currentColor" fill="none"/>
<use x="413.33" y="103.01" xlink:href="#hd"/>
<path d="M416.83 103.01v-26.20" stroke="currentColor" fill="none"/>
<defs>
<path id="r8e" fill="currentColor" d="m 0 0
	c-1.5 1.5 -2.4 2 -3.6 2
	c2.4 -2.8 -2.8 -4 -2.8 -1.2
	c0 2.7 4.3 2.4 5.9 0.6"/>
<g id="r32">
	<path d="m4.8 -10l-5.5 21.6" stroke="currentColor" fill="none"/>
	<use x="4.9" y="-10" xlink:href="#r8e"/>
	<use x="3.4" y="-4" xlink:href="#r8e"/>
	<use x="1.9" y="2" xlink:href="#r8e"/>
</g>
</defs>
<use x="438.23" y="94.01" xlink:href="#r32"/>
<use x="449.43" y="103.01" xlink:href="#hd"/>
<circle fill="currentColor" cx="457.43" cy="103.01" r="1.2"/>
<path d="M452.93 103.01v-26.20" stroke="currentColor" fill="none"/>
<path fill="currentColor"
	d="M478.03 82.31l50.40 -4.50v3.20l-50.40 4.50"/>
<use x="474.93" y="106.01" xlink:href="#hd"/>
<use x="465.93" y="106.01" xlink:href="#nt0"/>
<path d="M478.43 106.01v-22.80" stroke="currentColor" fill="none"/>
<use x="499.73" y="103.01" xlink:href="#hd"/>
<path d="M503.23 103.01v-22.00" stroke="currentColor" fill="none"/>
<use x="524.63" y="97.01" xlink:href="#hd"/>
<use x="515.63" y="97.01" xlink:href="#ft0"/>
<path d="M528.13 97.01v-18.20" stroke="currentColor" fill="none"/>
<path fill="currentColor"
	d="M568.33 85.41l50.40 -4.90v3.20l-50.40 4.90"/>
<use x="565.23" y="106.01" xlink:href="#hd"/>
<use x="556.23" y="106.01" xlink:href="#nt0"/>
<path d="M568.73 106.01v-19.60" stroke="currentColor" fill="none"/>
<use x="590.03" y="103.01" xlink:href="#hd"/>
<path d="M593.53 103.01v-19.00" stroke="currentColor" fill="none"/>
<use x="614.93" y="100.01" xlink:href="#hd"/>
<use x="605.93" y="100.01" xlink:href="#nt0"/>
<path d="M618.43 100.01v-18.40" stroke="currentColor" fill="none"/>
<path fill="currentColor"
	d="M638.73 113.71l25.50 -2.50v-3.20l-25.50 2.50"/>
<use x="642.63" y="94.01" xlink:href="#hd"/>
<use x="633.63" y="94.01" xlink:href="#nt0"/>
<path d="M639.13 94.01v18.70" stroke="currentColor" fill="none"/>
<use x="667.43" y="91.01" xlink:href="#hd"/>
<path d="M663.93 91.01v19.30" stroke="currentColor" fill="none"/>
</g>
</svg>
