<?xml version="1.0" standalone="no"?>
<!DOCTYPE svg PUBLIC "-//W3C//DTD SVG 1.1//EN"
	"http://www.w3.org/Graphics/SVG/1.1/DTD/svg11.dtd">
<svg xmlns="http://www.w3.org/2000/svg" version="1.1"
	xmlns:xlink="http://www.w3.org/1999/xlink"
	xml:space='preserve' color="black"
	width="7.38in" height="1.34in" viewBox="0 0 531 97">
<title>3418.abc (3418) tune 1</title>
<!-- Creator: abcm2ps-7.8.14 -->
<!-- CreationDate: Mar 13, 2016 18:54 -->
<!-- CommandLine: -qxg 3418.abc -O ../svgs/3418.svg -->
<g transform="scale(0.750)" stroke-width="0.70" font-family="Times" font-size="20.00">
<text x="354.13" y="21.67" text-anchor="middle">3418.  Eight Grandes Etudes de Paganini, Etude No. 6 in A Minor, (Paganini Caprice, No. 24) (Theme also used by Brahms and Rachmaninoff)</text>
</g>
<g transform="scale(0.750)" stroke-width="0.70" font-family="Times" font-size="14.00" font-style="italic">
<text x="694.93" y="45.34" text-anchor="end">Franz Liszt</text>
</g>
<g transform="scale(0.525)" stroke-width="0.70" font-family="Times" font-size="14.00" font-style="italic">
<defs>
<ellipse id="hd" rx="4.1" ry="2.9"
	transform="rotate(-20)" fill="currentColor"/>
</defs>
<use x="89.19" y="94.16" xlink:href="#hd"/>
<path d="M92.69 94.16v-20.00" stroke="currentColor" fill="none"/>
</g>
<g transform="scale(0.750)" stroke-width="0.70" font-family="Times" font-size="15.00" font-weight="bold">
<text x="70.13" y="68.01">= 120</text>
<path stroke="currentColor" fill="none"
	d="M228.13 106.01v-24.00"/>
<path stroke="currentColor" fill="none"
	d="M412.13 106.01v-24.00"/>
<path stroke="currentColor" fill="none"
	d="M596.23 106.01v-24.00"/>
<path stroke="currentColor" fill="none"
	d="M13.33 106.01h681.60m-681.60 -6h681.60m-681.60 -6h681.60m-681.60 -6h681.60m-681.60 -6h681.60"/>
<defs>
<path id="utclef" fill="currentColor" d="m-50 -90
	c-72 -41 -72 -158 52 -188
	c150 -10 220 188 90 256
	c-114 52 -275 0 -293 -136
	c-15 -181 93 -229 220 -334
	c88 -87 79 -133 62 -210
	c-51 33 -94 105 -89 186
	c17 267 36 374 49 574
	c6 96 -19 134 -77 135
	c-80 1 -126 -93 -61 -133
	c85 -41 133 101 31 105
	c23 17 92 37 90 -92
	c-10 -223 -39 -342 -50 -617
	c0 -90 0 -162 96 -232
	c56 72 63 230 22 289
	c-74 106 -257 168 -255 316
	c9 153 148 185 252 133
	c86 -65 29 -192 -80 -176
	c-71 12 -105 67 -59 124"/>
<use id="tclef" transform="scale(0.045)"
	xlink:href="#utclef"/>
</defs>
<use x="25.33" y="106.01" xlink:href="#tclef"/>
<g font-family="serif" font-size="16" font-weight="bold" font-style="normal"
	transform="translate(43.83,106.01) scale(1.2,1)">
	<text y="-1" text-anchor="middle">4</text>
	<text y="-13" text-anchor="middle">2</text>
</g>
<use x="61.83" y="97.01" xlink:href="#hd"/>
<path d="M65.33 97.01v-20.00" stroke="currentColor" fill="none"/>
<path fill="currentColor"
	d="	M65.33 77.01c0.6 5.6 9.6 9 5.6 18.4
	c1.6 -6 -1.3 -11.6 -5.6 -12.8
"/>
<defs>
<path id="r8e" fill="currentColor" d="m 0 0
	c-1.5 1.5 -2.4 2 -3.6 2
	c2.4 -2.8 -2.8 -4 -2.8 -1.2
	c0 2.7 4.3 2.4 5.9 0.6"/>
<g id="r16">
	<path d="m3.3 -4l-4 15.6" stroke="currentColor" fill="none"/>
	<use x="3.4" y="-4" xlink:href="#r8e"/>
	<use x="1.9" y="2" xlink:href="#r8e"/>
</g>
</defs>
<use x="93.93" y="94.01" xlink:href="#r16"/>
<circle fill="currentColor" cx="101.93" cy="91.01" r="1.2"/>
<use x="119.63" y="97.01" xlink:href="#hd"/>
<path d="M123.13 97.01v-24.00" stroke="currentColor" fill="none"/>
<path fill="currentColor"
	d="M123.13 73.01c0.9 3.7 9.1 6.4 6 12.4
	c1 -5.4 -4.2 -8.4 -6 -8.4
M123.13 78.41c0.9 3.7 9.1 6.4 6 12.4
	c1 -5.4 -4.2 -8.4 -6 -8.4
M123.13 83.81c0.9 3.7 9.1 6.4 6 12.4
	c1 -5.4 -4.2 -8.4 -6 -8.4
"/>
<path fill="currentColor"
	d="M140.63 72.81l23.30 -4.00v3.20l-23.30 4.00"/>
<path fill="currentColor"
	d="M140.93 77.71l22.70 -3.90v3.20l-22.70 3.90"/>
<use x="137.43" y="97.01" xlink:href="#hd"/>
<path d="M140.93 97.01v-23.30" stroke="currentColor" fill="none"/>
<use x="160.13" y="91.01" xlink:href="#hd"/>
<path d="M163.63 91.01v-21.20" stroke="currentColor" fill="none"/>
<path fill="currentColor"
	d="M188.43 71.81l23.30 2.40v3.20l-23.30 -2.40"/>
<path fill="currentColor"
	d="M188.83 76.81l22.70 2.40v3.20l-22.70 -2.40"/>
<use x="185.33" y="94.01" xlink:href="#hd"/>
<path d="M188.83 94.01v-21.20" stroke="currentColor" fill="none"/>
<use x="207.93" y="97.01" xlink:href="#hd"/>
<path d="M211.43 97.01v-21.80" stroke="currentColor" fill="none"/>
<use x="245.93" y="85.01" xlink:href="#hd"/>
<path d="M242.43 85.01v20.00" stroke="currentColor" fill="none"/>
<path fill="currentColor"
	d="M242.43 105.01c0.6 -5.6 9.6 -9 5.6 -18.4
	c1.6 6 -1.3 11.6 -5.6 12.8
"/>
<use x="277.93" y="94.01" xlink:href="#r16"/>
<circle fill="currentColor" cx="285.93" cy="91.01" r="1.2"/>
<use x="303.73" y="106.01" xlink:href="#hd"/>
<path d="M307.23 106.01v-24.00" stroke="currentColor" fill="none"/>
<path fill="currentColor"
	d="M307.23 82.01c0.9 3.7 9.1 6.4 6 12.4
	c1 -5.4 -4.2 -8.4 -6 -8.4
M307.23 87.41c0.9 3.7 9.1 6.4 6 12.4
	c1 -5.4 -4.2 -8.4 -6 -8.4
M307.23 92.81c0.9 3.7 9.1 6.4 6 12.4
	c1 -5.4 -4.2 -8.4 -6 -8.4
"/>
<path fill="currentColor"
	d="M324.73 81.81l23.30 -4.00v3.20l-23.30 4.00"/>
<path fill="currentColor"
	d="M325.03 86.71l22.70 -3.90v3.20l-22.70 3.90"/>
<use x="321.53" y="106.01" xlink:href="#hd"/>
<path d="M325.03 106.01v-23.30" stroke="currentColor" fill="none"/>
<use x="344.23" y="100.01" xlink:href="#hd"/>
<defs>
<path id="usharp" fill="currentColor" d="
	m136 -702
	v890
	h32
	v-890
	m128 840
	h32
	v-888
	h-32
	m-232 286
	v116
	l338 -96
	v-116
	m-338 442
	v116
	l338 -98
	v-114"/>
<use id="sh0" transform="translate(-4,5) scale(0.018)"
	xlink:href="#usharp"/>
</defs>
<use x="335.23" y="100.01" xlink:href="#sh0"/>
<path d="M347.73 100.01v-21.20" stroke="currentColor" fill="none"/>
<path fill="currentColor"
	d="M372.53 80.81l23.30 2.40v3.20l-23.30 -2.40"/>
<path fill="currentColor"
	d="M372.83 85.81l22.70 2.40v3.20l-22.70 -2.40"/>
<use x="369.33" y="103.01" xlink:href="#hd"/>
<use x="360.33" y="103.01" xlink:href="#sh0"/>
<path d="M372.83 103.01v-21.20" stroke="currentColor" fill="none"/>
<use x="392.03" y="106.01" xlink:href="#hd"/>
<path d="M395.53 106.01v-21.80" stroke="currentColor" fill="none"/>
<use x="429.93" y="97.01" xlink:href="#hd"/>
<path d="M433.43 97.01v-20.00" stroke="currentColor" fill="none"/>
<path fill="currentColor"
	d="	M433.43 77.01c0.6 5.6 9.6 9 5.6 18.4
	c1.6 -6 -1.3 -11.6 -5.6 -12.8
"/>
<use x="462.03" y="94.01" xlink:href="#r16"/>
<circle fill="currentColor" cx="470.03" cy="91.01" r="1.2"/>
<use x="487.83" y="97.01" xlink:href="#hd"/>
<path d="M491.33 97.01v-24.00" stroke="currentColor" fill="none"/>
<path fill="currentColor"
	d="M491.33 73.01c0.9 3.7 9.1 6.4 6 12.4
	c1 -5.4 -4.2 -8.4 -6 -8.4
M491.33 78.41c0.9 3.7 9.1 6.4 6 12.4
	c1 -5.4 -4.2 -8.4 -6 -8.4
M491.33 83.81c0.9 3.7 9.1 6.4 6 12.4
	c1 -5.4 -4.2 -8.4 -6 -8.4
"/>
<path fill="currentColor"
	d="M508.73 72.81l23.30 -4.00v3.20l-23.30 4.00"/>
<path fill="currentColor"
	d="M509.13 77.71l22.70 -3.90v3.20l-22.70 3.90"/>
<use x="505.63" y="97.01" xlink:href="#hd"/>
<path d="M509.13 97.01v-23.30" stroke="currentColor" fill="none"/>
<use x="528.23" y="91.01" xlink:href="#hd"/>
<path d="M531.73 91.01v-21.20" stroke="currentColor" fill="none"/>
<path fill="currentColor"
	d="M556.53 71.81l23.30 2.40v3.20l-23.30 -2.40"/>
<path fill="currentColor"
	d="M556.93 76.81l22.70 2.40v3.20l-22.70 -2.40"/>
<use x="553.43" y="94.01" xlink:href="#hd"/>
<path d="M556.93 94.01v-21.20" stroke="currentColor" fill="none"/>
<use x="576.03" y="97.01" xlink:href="#hd"/>
<path d="M579.53 97.01v-21.80" stroke="currentColor" fill="none"/>
<use x="614.03" y="85.01" xlink:href="#hd"/>
<path d="M610.53 85.01v20.00" stroke="currentColor" fill="none"/>
<use x="659.33" y="106.01" xlink:href="#hd"/>
<path d="M662.83 106.01v-20.00" stroke="currentColor" fill="none"/>
<path fill="currentColor"
	d="	M662.83 86.01c0.6 5.6 9.6 9 5.6 18.4
	c1.6 -6 -1.3 -11.6 -5.6 -12.8
"/>
</g>
</svg>
