<?xml version="1.0" standalone="no"?>
<!DOCTYPE svg PUBLIC "-//W3C//DTD SVG 1.1//EN"
	"http://www.w3.org/Graphics/SVG/1.1/DTD/svg11.dtd">
<svg xmlns="http://www.w3.org/2000/svg" version="1.1"
	xmlns:xlink="http://www.w3.org/1999/xlink"
	xml:space='preserve' color="black"
	width="7.38in" height="1.34in" viewBox="0 0 531 97">
<title>3420.abc (3420) tune 1</title>
<!-- Creator: abcm2ps-7.8.14 -->
<!-- CreationDate: Mar 13, 2016 18:54 -->
<!-- CommandLine: -qxg 3420.abc -O ../svgs/3420.svg -->
<g transform="scale(0.750)" stroke-width="0.70" font-family="Times" font-size="20.00">
<text x="354.13" y="21.67" text-anchor="middle">3420.  Faust Symphony, 1st. Mvt. - Faust, 1st. Theme</text>
</g>
<g transform="scale(0.750)" stroke-width="0.70" font-family="Times" font-size="14.00" font-style="italic">
<text x="694.93" y="45.34" text-anchor="end">Franz Liszt</text>
</g>
<g transform="scale(0.525)" stroke-width="0.70" font-family="Times" font-size="14.00" font-style="italic">
<defs>
<ellipse id="hd" rx="4.1" ry="2.9"
	transform="rotate(-20)" fill="currentColor"/>
</defs>
<use x="99.19" y="94.16" xlink:href="#hd"/>
<path d="M102.69 94.16v-20.00" stroke="currentColor" fill="none"/>
</g>
<g transform="scale(0.750)" stroke-width="0.70" font-family="Times" font-size="15.00" font-weight="bold">
<text x="77.13" y="68.01">= 120</text>
<path stroke="currentColor" fill="none"
	d="M232.93 106.01v-24.00"/>
<path stroke="currentColor" fill="none"
	d="M465.33 106.01v-24.00"/>
<path stroke="currentColor" fill="none"
	d="M13.33 106.01h532.40m-532.40 -6h532.40m-532.40 -6h532.40m-532.40 -6h532.40m-532.40 -6h532.40"/>
<defs>
<path id="ubclef" fill="currentColor" d="m-200 -87
	c124 -35 222 -78 254 -236
	c43 -228 -167 -246 -192 -103
	c59 -80 157 22 92 78
	c-62 47 -115 -22 -106 -88
	c21 -141 270 -136 274 52
	c-1 175 -106 264 -322 297
	m357 -250
	c0 -36 51 -34 51 0
	c0 37 -51 36 -51 0
	m-2 -129
	c0 -36 51 -34 51 0
	c0 38 -51 37 -51 0"/>
<use id="bclef" transform="scale(0.045)"
	xlink:href="#ubclef"/>
</defs>
<use x="25.33" y="106.01" xlink:href="#bclef"/>
<g font-family="serif" font-size="16" font-weight="bold" font-style="normal"
	transform="translate(43.83,106.01) scale(1.2,1)">
	<text y="-1" text-anchor="middle">4</text>
	<text y="-13" text-anchor="middle">4</text>
</g>
<defs>
<path id="Hd" fill="currentColor" d="m3 -1.6
	c-1 -1.8 -7 1.4 -6 3.2
	c1 1.8 7 -1.4 6 -3.2
	m0.5 -0.3
	c2 3.8 -5 7.6 -7 3.8
	c-2 -3.8 5 -7.6 7 -3.8"/>
</defs>
<use x="68.83" y="85.01" xlink:href="#Hd"/>
<defs>
<path id="usharp" fill="currentColor" d="
	m136 -702
	v890
	h32
	v-890
	m128 840
	h32
	v-888
	h-32
	m-232 286
	v116
	l338 -96
	v-116
	m-338 442
	v116
	l338 -98
	v-114"/>
<use id="sh0" transform="translate(-4,5) scale(0.018)"
	xlink:href="#usharp"/>
</defs>
<use x="58.83" y="85.01" xlink:href="#sh0"/>
<path d="M65.33 85.01v20.00" stroke="currentColor" fill="none"/>
<use x="125.43" y="85.01" xlink:href="#hd"/>
<defs>
<path id="unat" fill="currentColor" d="
	m96 -750
	h-32
	v716
	l32 -8
	l182 -54
	v282
	h32
	v-706
	l-34 10
	l-180 50
	v-290
	m0 592
	v-190
	l182 -52
	v188"/>
<use id="nt0" transform="translate(-3,5) scale(0.018)"
	xlink:href="#unat"/>
</defs>
<use x="116.43" y="85.01" xlink:href="#nt0"/>
<path d="M121.93 85.01v20.00" stroke="currentColor" fill="none"/>
<path fill="currentColor"
	d="M121.93 105.01c0.6 -5.6 9.6 -9 5.6 -18.4
	c1.6 6 -1.3 11.6 -5.6 12.8
"/>
<use x="153.73" y="79.01" xlink:href="#hd"/>
<path d="M150.23 79.01v20.00" stroke="currentColor" fill="none"/>
<path fill="currentColor"
	d="M150.23 99.01c0.6 -5.6 9.6 -9 5.6 -18.4
	c1.6 6 -1.3 11.6 -5.6 12.8
"/>
<defs>
<path id="hl" stroke="currentColor" d="m-6 0h12"/>
</defs>
<use x="182.03" y="76.01" xlink:href="#hl"/>
<use x="182.03" y="73.01" xlink:href="#hd"/>
<use x="173.03" y="73.01" xlink:href="#sh0"/>
<path d="M178.53 73.01v21.00" stroke="currentColor" fill="none"/>
<path fill="currentColor"
	d="M178.53 94.01c0.6 -5.6 9.6 -9 5.6 -18.4
	c1.6 6 -1.3 11.6 -5.6 12.8
"/>
<use x="210.33" y="88.01" xlink:href="#hd"/>
<use x="201.33" y="88.01" xlink:href="#sh0"/>
<path d="M206.83 88.01v20.00" stroke="currentColor" fill="none"/>
<path fill="currentColor"
	d="M206.83 108.01c0.6 -5.6 9.6 -9 5.6 -18.4
	c1.6 6 -1.3 11.6 -5.6 12.8
"/>
<path fill="currentColor"
	d="M247.63 110.31l18.70 -3.70v-3.20l-18.70 3.70"/>
<path fill="currentColor"
	d="M247.93 105.21l18.00 -3.60v-3.20l-18.00 3.60"/>
<use x="251.43" y="88.01" xlink:href="#hd"/>
<use x="242.43" y="88.01" xlink:href="#sh0"/>
<path d="M247.93 88.01v21.20" stroke="currentColor" fill="none"/>
<use x="269.43" y="82.01" xlink:href="#hd"/>
<use x="260.43" y="82.01" xlink:href="#sh0"/>
<path d="M265.93 82.01v23.60" stroke="currentColor" fill="none"/>
<use x="289.43" y="76.01" xlink:href="#hl"/>
<use x="289.43" y="73.01" xlink:href="#hd"/>
<use x="280.43" y="73.01" xlink:href="#nt0"/>
<path d="M285.93 73.01v21.00" stroke="currentColor" fill="none"/>
<path fill="currentColor"
	d="M285.93 94.01c0.6 -5.6 9.6 -9 5.6 -18.4
	c1.6 6 -1.3 11.6 -5.6 12.8
"/>
<defs>
<path id="r4" fill="currentColor" d="m-1 -8.5
	l3.6 5.1 -2.1 5.2 2.2 4.3
	c-2.6 -2.3 -5.1 0 -2.4 2.6
	c-4.8 -3 -1.5 -6.9 1.4 -4.1
	l-3.1 -4.5 1.9 -5.1 -1.5 -3.5"/>
</defs>
<use x="317.73" y="94.01" xlink:href="#r4"/>
<use x="357.73" y="88.01" xlink:href="#hd"/>
<use x="348.73" y="88.01" xlink:href="#nt0"/>
<path d="M354.23 88.01v20.00" stroke="currentColor" fill="none"/>
<path fill="currentColor"
	d="M354.23 108.01c0.6 -5.6 9.6 -9 5.6 -18.4
	c1.6 6 -1.3 11.6 -5.6 12.8
"/>
<use x="386.03" y="82.01" xlink:href="#hd"/>
<use x="377.03" y="82.01" xlink:href="#nt0"/>
<path d="M382.53 82.01v20.00" stroke="currentColor" fill="none"/>
<path fill="currentColor"
	d="M382.53 102.01c0.6 -5.6 9.6 -9 5.6 -18.4
	c1.6 6 -1.3 11.6 -5.6 12.8
"/>
<use x="414.33" y="76.01" xlink:href="#hl"/>
<use x="414.33" y="76.01" xlink:href="#hd"/>
<use x="405.33" y="76.01" xlink:href="#sh0"/>
<path d="M410.83 76.01v20.00" stroke="currentColor" fill="none"/>
<path fill="currentColor"
	d="M410.83 96.01c0.6 -5.6 9.6 -9 5.6 -18.4
	c1.6 6 -1.3 11.6 -5.6 12.8
"/>
<use x="442.63" y="91.01" xlink:href="#hd"/>
<path d="M439.13 91.01v20.00" stroke="currentColor" fill="none"/>
<path fill="currentColor"
	d="M439.13 111.01c0.6 -5.6 9.6 -9 5.6 -18.4
	c1.6 6 -1.3 11.6 -5.6 12.8
"/>
<path fill="currentColor"
	d="M475.63 113.31l18.70 -3.70v-3.20l-18.70 3.70"/>
<path fill="currentColor"
	d="M475.93 108.21l18.00 -3.60v-3.20l-18.00 3.60"/>
<use x="479.43" y="91.01" xlink:href="#hd"/>
<path d="M475.93 91.01v21.20" stroke="currentColor" fill="none"/>
<use x="497.43" y="85.01" xlink:href="#hd"/>
<use x="488.43" y="85.01" xlink:href="#sh0"/>
<path d="M493.93 85.01v23.60" stroke="currentColor" fill="none"/>
<use x="517.43" y="76.01" xlink:href="#hl"/>
<use x="517.43" y="76.01" xlink:href="#hd"/>
<use x="508.43" y="76.01" xlink:href="#nt0"/>
<path d="M513.93 76.01v20.00" stroke="currentColor" fill="none"/>
<path fill="currentColor"
	d="M513.93 96.01c0.6 -5.6 9.6 -9 5.6 -18.4
	c1.6 6 -1.3 11.6 -5.6 12.8
"/>
<path fill="currentColor"
	d="M213.83 88.01c5.38 -5.11 28.76 -5.11 34.14 -0.00
	l0.00 -0.23c-6.40 -6.88 -27.74 -6.88 -34.14 0.23"/>
<path fill="currentColor"
	d="M446.13 89.01c4.69 -5.04 25.10 -5.04 29.79 -0.00
	l0.00 -0.23c-5.59 -6.81 -24.20 -6.81 -29.79 0.23"/>
</g>
</svg>
