<?xml version="1.0" standalone="no"?>
<!DOCTYPE svg PUBLIC "-//W3C//DTD SVG 1.1//EN"
	"http://www.w3.org/Graphics/SVG/1.1/DTD/svg11.dtd">
<svg xmlns="http://www.w3.org/2000/svg" version="1.1"
	xmlns:xlink="http://www.w3.org/1999/xlink"
	xml:space='preserve' color="black"
	width="7.38in" height="1.34in" viewBox="0 0 531 97">
<title>3431.abc (3431) tune 1</title>
<!-- Creator: abcm2ps-7.8.14 -->
<!-- CreationDate: Mar 13, 2016 18:54 -->
<!-- CommandLine: -qxg 3431.abc -O ../svgs/3431.svg -->
<g transform="scale(0.750)" stroke-width="0.70" font-family="Times" font-size="20.00">
<text x="354.13" y="21.67" text-anchor="middle">3431.  Faust Symphony, 3rd. Mvt. - 3rd. Theme</text>
</g>
<g transform="scale(0.750)" stroke-width="0.70" font-family="Times" font-size="14.00" font-style="italic">
<text x="694.93" y="45.34" text-anchor="end">Franz Liszt</text>
</g>
<g transform="scale(0.525)" stroke-width="0.70" font-family="Times" font-size="14.00" font-style="italic">
<defs>
<ellipse id="hd" rx="4.1" ry="2.9"
	transform="rotate(-20)" fill="currentColor"/>
</defs>
<use x="89.90" y="94.16" xlink:href="#hd"/>
<path d="M93.40 94.16v-20.00" stroke="currentColor" fill="none"/>
</g>
<g transform="scale(0.750)" stroke-width="0.70" font-family="Times" font-size="15.00" font-weight="bold">
<text x="70.63" y="68.01">= 120</text>
<path stroke="currentColor" fill="none"
	d="M218.73 106.01v-24.00"/>
<path stroke="currentColor" fill="none"
	d="M391.53 106.01v-24.00"/>
<path stroke="currentColor" fill="none"
	d="M560.93 106.01v-24.00"/>
<path stroke="currentColor" fill="none"
	d="M13.33 106.01h681.60m-681.60 -6h681.60m-681.60 -6h681.60m-681.60 -6h681.60m-681.60 -6h681.60"/>
<defs>
<path id="utclef" fill="currentColor" d="m-50 -90
	c-72 -41 -72 -158 52 -188
	c150 -10 220 188 90 256
	c-114 52 -275 0 -293 -136
	c-15 -181 93 -229 220 -334
	c88 -87 79 -133 62 -210
	c-51 33 -94 105 -89 186
	c17 267 36 374 49 574
	c6 96 -19 134 -77 135
	c-80 1 -126 -93 -61 -133
	c85 -41 133 101 31 105
	c23 17 92 37 90 -92
	c-10 -223 -39 -342 -50 -617
	c0 -90 0 -162 96 -232
	c56 72 63 230 22 289
	c-74 106 -257 168 -255 316
	c9 153 148 185 252 133
	c86 -65 29 -192 -80 -176
	c-71 12 -105 67 -59 124"/>
<use id="tclef" transform="scale(0.045)"
	xlink:href="#utclef"/>
</defs>
<use x="25.33" y="106.01" xlink:href="#tclef"/>
<g font-family="serif" font-size="16" font-weight="bold" font-style="normal"
	transform="translate(43.83,106.01) scale(1.2,1)">
	<text y="-1" text-anchor="middle">2</text>
	<text y="-13" text-anchor="middle">4</text>
</g>
<defs>
<rect id="r2" fill="currentColor"
	x="-3.5" y="-3" width="7" height="3"/>
</defs>
<use x="62.33" y="94.01" xlink:href="#r2"/>
<defs>
<path id="hl" stroke="currentColor" d="m-6 0h12"/>
</defs>
<use x="100.53" y="112.01" xlink:href="#hl"/>
<use x="100.53" y="118.01" xlink:href="#hl"/>
<defs>
<path id="Hd" fill="currentColor" d="m3 -1.6
	c-1 -1.8 -7 1.4 -6 3.2
	c1 1.8 7 -1.4 6 -3.2
	m0.5 -0.3
	c2 3.8 -5 7.6 -7 3.8
	c-2 -3.8 5 -7.6 7 -3.8"/>
</defs>
<use x="100.53" y="121.01" xlink:href="#Hd"/>
<defs>
<path id="usharp" fill="currentColor" d="
	m136 -702
	v890
	h32
	v-890
	m128 840
	h32
	v-888
	h-32
	m-232 286
	v116
	l338 -96
	v-116
	m-338 442
	v116
	l338 -98
	v-114"/>
<use id="sh0" transform="translate(-4,5) scale(0.018)"
	xlink:href="#usharp"/>
</defs>
<use x="90.53" y="121.01" xlink:href="#sh0"/>
<path d="M104.03 121.01v-27.00" stroke="currentColor" fill="none"/>
<use x="142.83" y="112.01" xlink:href="#hl"/>
<use x="142.83" y="118.01" xlink:href="#hl"/>
<use x="142.83" y="121.01" xlink:href="#Hd"/>
<use x="132.83" y="121.01" xlink:href="#sh0"/>
<path d="M146.33 121.01v-27.00" stroke="currentColor" fill="none"/>
<use x="185.13" y="112.01" xlink:href="#hl"/>
<use x="185.13" y="118.01" xlink:href="#hl"/>
<use x="185.13" y="121.01" xlink:href="#Hd"/>
<use x="175.13" y="121.01" xlink:href="#sh0"/>
<path d="M188.63 121.01v-27.00" stroke="currentColor" fill="none"/>
<use x="231.73" y="112.01" xlink:href="#hl"/>
<use x="231.73" y="112.01" xlink:href="#Hd"/>
<circle fill="currentColor" cx="240.73" cy="109.01" r="1.2"/>
<path d="M235.23 112.01v-20.00" stroke="currentColor" fill="none"/>
<use x="280.13" y="112.01" xlink:href="#hl"/>
<use x="280.13" y="112.01" xlink:href="#hd"/>
<path d="M283.63 112.01v-20.00" stroke="currentColor" fill="none"/>
<path fill="currentColor"
	d="	M283.63 92.01c0.6 5.6 9.6 9 5.6 18.4
	c1.6 -6 -1.3 -11.6 -5.6 -12.8
"/>
<use x="301.73" y="112.01" xlink:href="#hl"/>
<use x="301.73" y="112.01" xlink:href="#hd"/>
<path d="M305.23 112.01v-20.00" stroke="currentColor" fill="none"/>
<path fill="currentColor"
	d="	M305.23 92.01c0.6 5.6 9.6 9 5.6 18.4
	c1.6 -6 -1.3 -11.6 -5.6 -12.8
"/>
<use x="323.33" y="112.01" xlink:href="#hl"/>
<use x="323.33" y="112.01" xlink:href="#hd"/>
<path d="M326.83 112.01v-20.00" stroke="currentColor" fill="none"/>
<use x="353.03" y="94.01" xlink:href="#r2"/>
<circle fill="currentColor" cx="361.03" cy="91.01" r="1.2"/>
<use x="404.53" y="94.01" xlink:href="#r2"/>
<use x="442.73" y="112.01" xlink:href="#hl"/>
<use x="442.73" y="118.01" xlink:href="#hl"/>
<use x="442.73" y="121.01" xlink:href="#Hd"/>
<use x="432.73" y="121.01" xlink:href="#sh0"/>
<path d="M446.23 121.01v-27.00" stroke="currentColor" fill="none"/>
<use x="485.03" y="112.01" xlink:href="#hl"/>
<use x="485.03" y="118.01" xlink:href="#hl"/>
<use x="485.03" y="121.01" xlink:href="#Hd"/>
<use x="475.03" y="121.01" xlink:href="#sh0"/>
<path d="M488.53 121.01v-27.00" stroke="currentColor" fill="none"/>
<use x="527.33" y="112.01" xlink:href="#hl"/>
<use x="527.33" y="118.01" xlink:href="#hl"/>
<use x="527.33" y="121.01" xlink:href="#Hd"/>
<use x="517.33" y="121.01" xlink:href="#sh0"/>
<path d="M530.83 121.01v-27.00" stroke="currentColor" fill="none"/>
<use x="573.93" y="112.01" xlink:href="#hl"/>
<use x="573.93" y="112.01" xlink:href="#Hd"/>
<circle fill="currentColor" cx="582.93" cy="109.01" r="1.2"/>
<path d="M577.43 112.01v-20.00" stroke="currentColor" fill="none"/>
<use x="622.33" y="112.01" xlink:href="#hl"/>
<use x="622.33" y="112.01" xlink:href="#hd"/>
<path d="M625.83 112.01v-20.00" stroke="currentColor" fill="none"/>
<path fill="currentColor"
	d="	M625.83 92.01c0.6 5.6 9.6 9 5.6 18.4
	c1.6 -6 -1.3 -11.6 -5.6 -12.8
"/>
<use x="643.93" y="112.01" xlink:href="#hl"/>
<use x="643.93" y="112.01" xlink:href="#hd"/>
<path d="M647.43 112.01v-20.00" stroke="currentColor" fill="none"/>
<path fill="currentColor"
	d="	M647.43 92.01c0.6 5.6 9.6 9 5.6 18.4
	c1.6 -6 -1.3 -11.6 -5.6 -12.8
"/>
<use x="665.53" y="112.01" xlink:href="#hl"/>
<use x="665.53" y="112.01" xlink:href="#hd"/>
<path d="M669.03 112.01v-20.00" stroke="currentColor" fill="none"/>
<path fill="currentColor"
	d="M235.23 112.01c6.50 5.25 34.92 5.25 41.41 -0.00
	l0.00 0.24c-7.74 7.00 -33.67 7.00 -41.41 -0.24"/>
<path fill="currentColor"
	d="M577.43 112.01c6.50 5.25 34.92 5.25 41.41 -0.00
	l0.00 0.24c-7.74 7.00 -33.67 7.00 -41.41 -0.24"/>
</g>
</svg>
