<?xml version="1.0" standalone="no"?>
<!DOCTYPE svg PUBLIC "-//W3C//DTD SVG 1.1//EN"
	"http://www.w3.org/Graphics/SVG/1.1/DTD/svg11.dtd">
<svg xmlns="http://www.w3.org/2000/svg" version="1.1"
	xmlns:xlink="http://www.w3.org/1999/xlink"
	xml:space='preserve' color="black"
	width="7.38in" height="1.34in" viewBox="0 0 531 97">
<title>3445.abc (3445) tune 1</title>
<!-- Creator: abcm2ps-7.8.14 -->
<!-- CreationDate: Mar 13, 2016 18:54 -->
<!-- CommandLine: -qxg 3445.abc -O ../svgs/3445.svg -->
<g transform="scale(0.750)" stroke-width="0.70" font-family="Times" font-size="20.00">
<text x="354.13" y="21.67" text-anchor="middle">3445.  Hungarian Rhapsody No. 2 in C Sharp Minor, 3rd. Theme</text>
</g>
<g transform="scale(0.750)" stroke-width="0.70" font-family="Times" font-size="14.00" font-style="italic">
<text x="694.93" y="45.34" text-anchor="end">Franz Liszt</text>
</g>
<g transform="scale(0.525)" stroke-width="0.70" font-family="Times" font-size="14.00" font-style="italic">
<defs>
<ellipse id="hd" rx="4.1" ry="2.9"
	transform="rotate(-20)" fill="currentColor"/>
</defs>
<use x="122.76" y="94.16" xlink:href="#hd"/>
<path d="M126.26 94.16v-20.00" stroke="currentColor" fill="none"/>
</g>
<g transform="scale(0.750)" stroke-width="0.70" font-family="Times" font-size="15.00" font-weight="bold">
<text x="93.63" y="68.01">= 120</text>
<path stroke="currentColor" fill="none"
	d="M193.93 106.01v-24.00"/>
<path stroke="currentColor" fill="none"
	d="M319.13 106.01v-24.00"/>
<path stroke="currentColor" fill="none"
	d="M444.43 106.01v-24.00"/>
<path stroke="currentColor" fill="none"
	d="M569.63 106.01v-24.00"/>
<path stroke="currentColor" fill="none"
	d="M694.93 106.01v-24.00"/>
<path stroke="currentColor" fill="none"
	d="M13.33 106.01h681.60m-681.60 -6h681.60m-681.60 -6h681.60m-681.60 -6h681.60m-681.60 -6h681.60"/>
<defs>
<path id="utclef" fill="currentColor" d="m-50 -90
	c-72 -41 -72 -158 52 -188
	c150 -10 220 188 90 256
	c-114 52 -275 0 -293 -136
	c-15 -181 93 -229 220 -334
	c88 -87 79 -133 62 -210
	c-51 33 -94 105 -89 186
	c17 267 36 374 49 574
	c6 96 -19 134 -77 135
	c-80 1 -126 -93 -61 -133
	c85 -41 133 101 31 105
	c23 17 92 37 90 -92
	c-10 -223 -39 -342 -50 -617
	c0 -90 0 -162 96 -232
	c56 72 63 230 22 289
	c-74 106 -257 168 -255 316
	c9 153 148 185 252 133
	c86 -65 29 -192 -80 -176
	c-71 12 -105 67 -59 124"/>
<use id="tclef" transform="scale(0.045)"
	xlink:href="#utclef"/>
</defs>
<use x="25.33" y="106.01" xlink:href="#tclef"/>
<defs>
<path id="usharp" fill="currentColor" d="
	m136 -702
	v890
	h32
	v-890
	m128 840
	h32
	v-888
	h-32
	m-232 286
	v116
	l338 -96
	v-116
	m-338 442
	v116
	l338 -98
	v-114"/>
<use id="sh0" transform="translate(-4,5) scale(0.018)"
	xlink:href="#usharp"/>
</defs>
<use x="40.33" y="82.01" xlink:href="#sh0"/>
<use x="45.83" y="91.01" xlink:href="#sh0"/>
<use x="51.33" y="79.01" xlink:href="#sh0"/>
<g font-family="serif" font-size="16" font-weight="bold" font-style="normal"
	transform="translate(67.33,106.01) scale(1.2,1)">
	<text y="-1" text-anchor="middle">4</text>
	<text y="-13" text-anchor="middle">2</text>
</g>
<path fill="currentColor"
	d="M81.53 114.01l90.30 0.00v-3.20l-90.30 -0.00"/>
<path fill="currentColor"
	d="M110.03 109.01l6.00 0.00v-3.20l-6.00 -0.00"/>
<path fill="currentColor"
	d="M165.53 109.01l6.00 0.00v-3.20l-6.00 -0.00"/>
<use x="85.33" y="79.01" xlink:href="#hd"/>
<circle fill="currentColor" cx="93.33" cy="79.01" r="1.2"/>
<path d="M81.83 79.01v34.00" stroke="currentColor" fill="none"/>
<use x="119.53" y="91.01" xlink:href="#hd"/>
<path d="M116.03 91.01v22.00" stroke="currentColor" fill="none"/>
<use x="140.83" y="79.01" xlink:href="#hd"/>
<circle fill="currentColor" cx="148.83" cy="79.01" r="1.2"/>
<path d="M137.33 79.01v34.00" stroke="currentColor" fill="none"/>
<defs>
<path id="hl" stroke="currentColor" d="m-6 0h12"/>
</defs>
<use x="175.03" y="76.01" xlink:href="#hl"/>
<use x="175.03" y="76.01" xlink:href="#hd"/>
<path d="M171.53 76.01v37.00" stroke="currentColor" fill="none"/>
<path fill="currentColor"
	d="M206.73 102.01l90.30 0.00v-3.20l-90.30 -0.00"/>
<path fill="currentColor"
	d="M235.33 97.01l6.00 0.00v-3.20l-6.00 -0.00"/>
<path fill="currentColor"
	d="M290.73 97.01l6.00 0.00v-3.20l-6.00 -0.00"/>
<use x="210.63" y="79.01" xlink:href="#hd"/>
<circle fill="currentColor" cx="218.63" cy="79.01" r="1.2"/>
<path d="M207.13 79.01v22.00" stroke="currentColor" fill="none"/>
<use x="244.83" y="76.01" xlink:href="#hl"/>
<use x="244.83" y="73.01" xlink:href="#hd"/>
<path d="M241.33 73.01v28.00" stroke="currentColor" fill="none"/>
<use x="266.03" y="76.01" xlink:href="#hl"/>
<use x="266.03" y="76.01" xlink:href="#hd"/>
<circle fill="currentColor" cx="274.03" cy="73.01" r="1.2"/>
<path d="M262.53 76.01v25.00" stroke="currentColor" fill="none"/>
<use x="300.23" y="79.01" xlink:href="#hd"/>
<path d="M296.73 79.01v22.00" stroke="currentColor" fill="none"/>
<path fill="currentColor"
	d="M332.03 114.01l90.30 0.00v-3.20l-90.30 -0.00"/>
<path fill="currentColor"
	d="M360.53 109.01l6.00 0.00v-3.20l-6.00 -0.00"/>
<path fill="currentColor"
	d="M416.03 109.01l6.00 0.00v-3.20l-6.00 -0.00"/>
<use x="335.83" y="82.01" xlink:href="#hd"/>
<circle fill="currentColor" cx="343.83" cy="79.01" r="1.2"/>
<path d="M332.33 82.01v31.00" stroke="currentColor" fill="none"/>
<use x="370.03" y="91.01" xlink:href="#hd"/>
<path d="M366.53 91.01v22.00" stroke="currentColor" fill="none"/>
<use x="391.33" y="82.01" xlink:href="#hd"/>
<circle fill="currentColor" cx="399.33" cy="79.01" r="1.2"/>
<path d="M387.83 82.01v31.00" stroke="currentColor" fill="none"/>
<use x="425.53" y="79.01" xlink:href="#hd"/>
<path d="M422.03 79.01v34.00" stroke="currentColor" fill="none"/>
<path fill="currentColor"
	d="M457.23 100.21l90.30 0.00v-3.20l-90.30 -0.00"/>
<path fill="currentColor"
	d="M485.83 95.21l6.00 0.00v-3.20l-6.00 -0.00"/>
<path fill="currentColor"
	d="M541.33 95.21l6.00 0.00v-3.20l-6.00 -0.00"/>
<use x="461.13" y="76.01" xlink:href="#hl"/>
<use x="461.13" y="76.01" xlink:href="#hd"/>
<circle fill="currentColor" cx="469.13" cy="73.01" r="1.2"/>
<path d="M457.63 76.01v23.20" stroke="currentColor" fill="none"/>
<use x="495.33" y="76.01" xlink:href="#hl"/>
<use x="495.33" y="70.01" xlink:href="#hl"/>
<use x="495.33" y="70.01" xlink:href="#hd"/>
<path d="M491.83 70.01v29.20" stroke="currentColor" fill="none"/>
<use x="516.53" y="76.01" xlink:href="#hl"/>
<use x="516.53" y="73.01" xlink:href="#hd"/>
<circle fill="currentColor" cx="524.53" cy="73.01" r="1.2"/>
<path d="M513.03 73.01v26.20" stroke="currentColor" fill="none"/>
<use x="550.83" y="76.01" xlink:href="#hl"/>
<use x="550.83" y="76.01" xlink:href="#hd"/>
<path d="M547.33 76.01v23.20" stroke="currentColor" fill="none"/>
<path fill="currentColor"
	d="M582.53 114.01l90.30 0.00v-3.20l-90.30 -0.00"/>
<path fill="currentColor"
	d="M611.13 109.01l6.00 0.00v-3.20l-6.00 -0.00"/>
<path fill="currentColor"
	d="M666.53 109.01l6.00 0.00v-3.20l-6.00 -0.00"/>
<use x="586.33" y="79.01" xlink:href="#hd"/>
<circle fill="currentColor" cx="594.33" cy="79.01" r="1.2"/>
<path d="M582.83 79.01v34.00" stroke="currentColor" fill="none"/>
<use x="620.63" y="91.01" xlink:href="#hd"/>
<path d="M617.13 91.01v22.00" stroke="currentColor" fill="none"/>
<use x="641.83" y="79.01" xlink:href="#hd"/>
<circle fill="currentColor" cx="649.83" cy="79.01" r="1.2"/>
<path d="M638.33 79.01v34.00" stroke="currentColor" fill="none"/>
<use x="676.03" y="76.01" xlink:href="#hl"/>
<use x="676.03" y="76.01" xlink:href="#hd"/>
<path d="M672.53 76.01v37.00" stroke="currentColor" fill="none"/>
</g>
</svg>
