<?xml version="1.0" standalone="no"?>
<!DOCTYPE svg PUBLIC "-//W3C//DTD SVG 1.1//EN"
	"http://www.w3.org/Graphics/SVG/1.1/DTD/svg11.dtd">
<svg xmlns="http://www.w3.org/2000/svg" version="1.1"
	xmlns:xlink="http://www.w3.org/1999/xlink"
	xml:space='preserve' color="black"
	width="7.38in" height="1.45in" viewBox="0 0 531 104">
<title>3506.abc (3506) tune 1</title>
<!-- Creator: abcm2ps-7.8.14 -->
<!-- CreationDate: Mar 13, 2016 18:54 -->
<!-- CommandLine: -qxg 3506.abc -O ../svgs/3506.svg -->
<g transform="scale(0.750)" stroke-width="0.70" font-family="Times" font-size="20.00">
<text x="354.13" y="21.67" text-anchor="middle">3506.  Funeral Triumph of Tasso, Symphonic Poem No. 2A, 3rd. Theme</text>
</g>
<g transform="scale(0.750)" stroke-width="0.70" font-family="Times" font-size="14.00" font-style="italic">
<text x="694.93" y="45.34" text-anchor="end">Franz Liszt</text>
</g>
<g transform="scale(0.525)" stroke-width="0.70" font-family="Times" font-size="14.00" font-style="italic">
<defs>
<ellipse id="hd" rx="4.1" ry="2.9"
	transform="rotate(-20)" fill="currentColor"/>
</defs>
<use x="123.47" y="94.16" xlink:href="#hd"/>
<path d="M126.97 94.16v-20.00" stroke="currentColor" fill="none"/>
</g>
<g transform="scale(0.750)" stroke-width="0.70" font-family="Times" font-size="15.00" font-weight="bold">
<text x="94.13" y="68.01">= 120</text>
<path stroke="currentColor" fill="none"
	d="M236.93 116.01v-24.00"/>
<path stroke="currentColor" fill="none"
	d="M360.33 116.01v-24.00"/>
<path stroke="currentColor" fill="none"
	d="M526.53 116.01v-24.00"/>
<path stroke="currentColor" fill="none"
	d="M647.63 116.01v-24.00"/>
<path stroke="currentColor" fill="none"
	d="M13.33 116.01h681.60m-681.60 -6h681.60m-681.60 -6h681.60m-681.60 -6h681.60m-681.60 -6h681.60"/>
<text font-family="serif" font-size="12" font-style="italic" font-weight="normal"
	x="208.73" y="121.01" text-anchor="middle">3</text>
<text font-family="serif" font-size="12" font-style="italic" font-weight="normal"
	x="496.63" y="124.01" text-anchor="middle">3</text>
<defs>
<path id="utclef" fill="currentColor" d="m-50 -90
	c-72 -41 -72 -158 52 -188
	c150 -10 220 188 90 256
	c-114 52 -275 0 -293 -136
	c-15 -181 93 -229 220 -334
	c88 -87 79 -133 62 -210
	c-51 33 -94 105 -89 186
	c17 267 36 374 49 574
	c6 96 -19 134 -77 135
	c-80 1 -126 -93 -61 -133
	c85 -41 133 101 31 105
	c23 17 92 37 90 -92
	c-10 -223 -39 -342 -50 -617
	c0 -90 0 -162 96 -232
	c56 72 63 230 22 289
	c-74 106 -257 168 -255 316
	c9 153 148 185 252 133
	c86 -65 29 -192 -80 -176
	c-71 12 -105 67 -59 124"/>
<use id="tclef" transform="scale(0.045)"
	xlink:href="#utclef"/>
</defs>
<use x="25.33" y="116.01" xlink:href="#tclef"/>
<defs>
<path id="uflat" fill="currentColor" d="
	m100 -746
	h32
	v734
	l-32 4
	m32 -332
	c46 -72 152 -90 208 -20
	c100 110 -120 326 -208 348
	m0 -28
	c54 0 200 -206 130 -290
	c-50 -60 -130 -4 -130 34"/>
<use id="ft0" transform="translate(-3.5,3.5) scale(0.018)"
	xlink:href="#uflat"/>
</defs>
<use x="40.33" y="104.01" xlink:href="#ft0"/>
<use x="45.83" y="95.01" xlink:href="#ft0"/>
<use x="51.33" y="107.01" xlink:href="#ft0"/>
<g font-family="serif" font-size="16" font-weight="bold" font-style="normal"
	transform="translate(67.33,116.01) scale(1.2,1)">
	<text y="-1" text-anchor="middle">4</text>
	<text y="-13" text-anchor="middle">4</text>
</g>
<defs>
<path id="hl" stroke="currentColor" d="m-6 0h12"/>
</defs>
<use x="85.83" y="86.01" xlink:href="#hl"/>
<defs>
<path id="Hd" fill="currentColor" d="m3 -1.6
	c-1 -1.8 -7 1.4 -6 3.2
	c1 1.8 7 -1.4 6 -3.2
	m0.5 -0.3
	c2 3.8 -5 7.6 -7 3.8
	c-2 -3.8 5 -7.6 7 -3.8"/>
</defs>
<use x="85.83" y="83.01" xlink:href="#Hd"/>
<path d="M82.33 83.01v21.00" stroke="currentColor" fill="none"/>
<path fill="currentColor"
	d="M119.43 105.01l55.70 0.00v-3.20l-55.70 -0.00"/>
<path fill="currentColor"
	d="M119.83 100.01l55.00 0.00v-3.20l-55.00 -0.00"/>
<path fill="currentColor"
	d="M150.33 95.01l6.00 0.00v-3.20l-6.00 -0.00"/>
<use x="123.33" y="86.01" xlink:href="#hl"/>
<use x="123.33" y="83.01" xlink:href="#hd"/>
<circle fill="currentColor" cx="131.33" cy="83.01" r="1.2"/>
<path d="M119.83 83.01v21.00" stroke="currentColor" fill="none"/>
<use x="141.33" y="86.01" xlink:href="#hl"/>
<use x="141.33" y="80.01" xlink:href="#hl"/>
<use x="141.33" y="80.01" xlink:href="#hd"/>
<path d="M137.83 80.01v24.00" stroke="currentColor" fill="none"/>
<use x="159.83" y="86.01" xlink:href="#hl"/>
<use x="159.83" y="80.01" xlink:href="#hl"/>
<use x="159.83" y="80.01" xlink:href="#hd"/>
<path d="M156.33 80.01v24.00" stroke="currentColor" fill="none"/>
<use x="152.83" y="83.01" xlink:href="#hd"/>
<use x="178.33" y="86.01" xlink:href="#hl"/>
<use x="178.33" y="83.01" xlink:href="#hd"/>
<path d="M174.83 83.01v21.00" stroke="currentColor" fill="none"/>
<path fill="currentColor"
	d="M192.43 104.21l28.70 0.00v-3.20l-28.70 -0.00"/>
<use x="196.33" y="86.01" xlink:href="#hl"/>
<use x="196.33" y="86.01" xlink:href="#hd"/>
<defs>
<path id="unat" fill="currentColor" d="
	m96 -750
	h-32
	v716
	l32 -8
	l182 -54
	v282
	h32
	v-706
	l-34 10
	l-180 50
	v-290
	m0 592
	v-190
	l182 -52
	v188"/>
<use id="nt0" transform="translate(-3,5) scale(0.018)"
	xlink:href="#unat"/>
</defs>
<use x="187.33" y="86.01" xlink:href="#nt0"/>
<path d="M192.83 86.01v17.20" stroke="currentColor" fill="none"/>
<use x="210.33" y="86.01" xlink:href="#hl"/>
<use x="210.33" y="83.01" xlink:href="#hd"/>
<path d="M206.83 83.01v20.20" stroke="currentColor" fill="none"/>
<use x="224.33" y="86.01" xlink:href="#hl"/>
<use x="224.33" y="80.01" xlink:href="#hl"/>
<use x="224.33" y="80.01" xlink:href="#hd"/>
<path d="M220.83 80.01v23.20" stroke="currentColor" fill="none"/>
<use x="249.43" y="86.01" xlink:href="#hl"/>
<use x="249.43" y="83.01" xlink:href="#hd"/>
<path d="M245.93 83.01v21.00" stroke="currentColor" fill="none"/>
<use x="276.93" y="86.01" xlink:href="#hl"/>
<use x="276.93" y="86.01" xlink:href="#hd"/>
<use x="267.93" y="86.01" xlink:href="#ft0"/>
<path d="M273.43 86.01v20.00" stroke="currentColor" fill="none"/>
<path fill="currentColor"
	d="M273.43 106.01c0.6 -5.6 9.6 -9 5.6 -18.4
	c1.6 6 -1.3 11.6 -5.6 12.8
"/>
<use x="295.53" y="89.01" xlink:href="#hd"/>
<path d="M292.03 89.01v20.00" stroke="currentColor" fill="none"/>
<path fill="currentColor"
	d="M292.03 109.01c0.6 -5.6 9.6 -9 5.6 -18.4
	c1.6 6 -1.3 11.6 -5.6 12.8
"/>
<use x="314.13" y="86.01" xlink:href="#hl"/>
<use x="314.13" y="83.01" xlink:href="#hd"/>
<circle fill="currentColor" cx="322.13" cy="83.01" r="1.2"/>
<path d="M310.63 83.01v21.00" stroke="currentColor" fill="none"/>
<use x="344.93" y="86.01" xlink:href="#hl"/>
<use x="344.93" y="86.01" xlink:href="#hd"/>
<path d="M341.43 86.01v20.00" stroke="currentColor" fill="none"/>
<path fill="currentColor"
	d="M341.43 106.01c0.6 -5.6 9.6 -9 5.6 -18.4
	c1.6 6 -1.3 11.6 -5.6 12.8
"/>
<use x="373.33" y="89.01" xlink:href="#Hd"/>
<path d="M369.83 89.01v20.00" stroke="currentColor" fill="none"/>
<path fill="currentColor"
	d="M407.03 111.01l54.20 0.00v-3.20l-54.20 -0.00"/>
<path fill="currentColor"
	d="M407.33 106.01l53.50 0.00v-3.20l-53.50 -0.00"/>
<path fill="currentColor"
	d="M436.33 101.01l6.00 0.00v-3.20l-6.00 -0.00"/>
<use x="410.83" y="89.01" xlink:href="#hd"/>
<circle fill="currentColor" cx="418.83" cy="89.01" r="1.2"/>
<path d="M407.33 89.01v21.00" stroke="currentColor" fill="none"/>
<use x="427.33" y="86.01" xlink:href="#hl"/>
<use x="427.33" y="86.01" xlink:href="#hd"/>
<path d="M423.83 86.01v24.00" stroke="currentColor" fill="none"/>
<use x="445.83" y="86.01" xlink:href="#hl"/>
<use x="445.83" y="86.01" xlink:href="#hd"/>
<path d="M442.33 86.01v24.00" stroke="currentColor" fill="none"/>
<use x="438.83" y="89.01" xlink:href="#hd"/>
<use x="464.33" y="89.01" xlink:href="#hd"/>
<path d="M460.83 89.01v21.00" stroke="currentColor" fill="none"/>
<path fill="currentColor"
	d="M478.53 107.01l32.40 0.00v-3.20l-32.40 -0.00"/>
<use x="482.33" y="89.01" xlink:href="#hd"/>
<use x="473.33" y="89.01" xlink:href="#ft0"/>
<path d="M478.83 89.01v17.00" stroke="currentColor" fill="none"/>
<use x="500.33" y="89.01" xlink:href="#hd"/>
<use x="491.33" y="89.01" xlink:href="#nt0"/>
<path d="M496.83 89.01v17.00" stroke="currentColor" fill="none"/>
<use x="514.03" y="86.01" xlink:href="#hl"/>
<use x="514.03" y="86.01" xlink:href="#hd"/>
<path d="M510.53 86.01v20.00" stroke="currentColor" fill="none"/>
<use x="539.03" y="89.01" xlink:href="#hd"/>
<path d="M535.53 89.01v20.00" stroke="currentColor" fill="none"/>
<use x="564.53" y="92.01" xlink:href="#hd"/>
<path d="M561.03 92.01v20.00" stroke="currentColor" fill="none"/>
<path fill="currentColor"
	d="M561.03 112.01c0.6 -5.6 9.6 -9 5.6 -18.4
	c1.6 6 -1.3 11.6 -5.6 12.8
"/>
<use x="583.13" y="95.01" xlink:href="#hd"/>
<path d="M579.63 95.01v20.00" stroke="currentColor" fill="none"/>
<path fill="currentColor"
	d="M579.63 115.01c0.6 -5.6 9.6 -9 5.6 -18.4
	c1.6 6 -1.3 11.6 -5.6 12.8
"/>
<use x="601.83" y="89.01" xlink:href="#hd"/>
<circle fill="currentColor" cx="609.83" cy="89.01" r="1.2"/>
<path d="M598.33 89.01v20.00" stroke="currentColor" fill="none"/>
<use x="632.23" y="92.01" xlink:href="#hd"/>
<path d="M628.73 92.01v20.00" stroke="currentColor" fill="none"/>
<path fill="currentColor"
	d="M628.73 112.01c0.6 -5.6 9.6 -9 5.6 -18.4
	c1.6 6 -1.3 11.6 -5.6 12.8
"/>
<use x="660.63" y="95.01" xlink:href="#Hd"/>
<path d="M657.13 95.01v20.00" stroke="currentColor" fill="none"/>
<path fill="currentColor"
	d="M89.33 81.01c4.80 -5.05 25.68 -5.05 30.48 -0.00
	l0.00 -0.23c-5.72 -6.82 -24.77 -6.82 -30.48 0.23"/>
<path fill="currentColor"
	d="M141.33 80.01c2.91 -4.83 15.59 -4.83 18.50 -0.00
	l0.00 -0.22c-3.47 -6.61 -15.03 -6.61 -18.50 0.22"/>
<path fill="currentColor"
	d="M159.83 81.01c2.91 -4.83 15.59 -4.83 18.50 -0.00
	l0.00 -0.22c-3.47 -6.61 -15.03 -6.61 -18.50 0.22"/>
<path fill="currentColor"
	d="M376.83 87.01c4.80 -5.05 25.68 -5.05 30.48 -0.00
	l0.00 -0.23c-5.72 -6.82 -24.77 -6.82 -30.48 0.23"/>
<path fill="currentColor"
	d="M427.33 86.01c2.91 -4.83 15.59 -4.83 18.50 -0.00
	l0.00 -0.22c-3.47 -6.61 -15.03 -6.61 -18.50 0.22"/>
<path fill="currentColor"
	d="M445.83 87.01c2.91 -4.83 15.59 -4.83 18.50 -0.00
	l0.00 -0.22c-3.47 -6.61 -15.03 -6.61 -18.50 0.22"/>
</g>
</svg>
