<?xml version="1.0" standalone="no"?>
<!DOCTYPE svg PUBLIC "-//W3C//DTD SVG 1.1//EN"
	"http://www.w3.org/Graphics/SVG/1.1/DTD/svg11.dtd">
<svg xmlns="http://www.w3.org/2000/svg" version="1.1"
	xmlns:xlink="http://www.w3.org/1999/xlink"
	xml:space='preserve' color="black"
	width="7.38in" height="1.34in" viewBox="0 0 531 97">
<title>3547.abc (3547) tune 1</title>
<!-- Creator: abcm2ps-7.8.14 -->
<!-- CreationDate: Mar 13, 2016 18:54 -->
<!-- CommandLine: -qxg 3547.abc -O ../svgs/3547.svg -->
<g transform="scale(0.750)" stroke-width="0.70" font-family="Times" font-size="20.00">
<text x="354.13" y="21.67" text-anchor="middle">3547.  A Pagan Poem (after Virgil), Op. 14, 1st. Theme</text>
</g>
<g transform="scale(0.750)" stroke-width="0.70" font-family="Times" font-size="14.00" font-style="italic">
<text x="694.93" y="45.34" text-anchor="end">Charles Martin Loeffler</text>
</g>
<g transform="scale(0.525)" stroke-width="0.70" font-family="Times" font-size="14.00" font-style="italic">
<defs>
<ellipse id="hd" rx="4.1" ry="2.9"
	transform="rotate(-20)" fill="currentColor"/>
</defs>
<use x="115.61" y="94.16" xlink:href="#hd"/>
<path d="M119.11 94.16v-20.00" stroke="currentColor" fill="none"/>
</g>
<g transform="scale(0.750)" stroke-width="0.70" font-family="Times" font-size="15.00" font-weight="bold">
<text x="88.63" y="68.01">= 120</text>
<path stroke="currentColor" fill="none"
	d="M137.53 106.01v-24.00"/>
<path stroke="currentColor" fill="none"
	d="M195.63 106.01v-24.00"/>
<path stroke="currentColor" fill="none"
	d="M273.93 106.01v-24.00"/>
<path stroke="currentColor" fill="none"
	d="M345.73 106.01v-24.00"/>
<path stroke="currentColor" fill="none"
	d="M396.33 106.01v-24.00"/>
<path stroke="currentColor" fill="none"
	d="M470.03 106.01v-24.00"/>
<path stroke="currentColor" fill="none"
	d="M528.13 106.01v-24.00"/>
<path stroke="currentColor" fill="none"
	d="M586.23 106.01v-24.00"/>
<path stroke="currentColor" fill="none"
	d="M644.33 106.01v-24.00"/>
<path stroke="currentColor" fill="none"
	d="M694.93 106.01v-24.00"/>
<path stroke="currentColor" fill="none"
	d="M13.33 106.01h681.60m-681.60 -6h681.60m-681.60 -6h681.60m-681.60 -6h681.60m-681.60 -6h681.60"/>
<defs>
<path id="utclef" fill="currentColor" d="m-50 -90
	c-72 -41 -72 -158 52 -188
	c150 -10 220 188 90 256
	c-114 52 -275 0 -293 -136
	c-15 -181 93 -229 220 -334
	c88 -87 79 -133 62 -210
	c-51 33 -94 105 -89 186
	c17 267 36 374 49 574
	c6 96 -19 134 -77 135
	c-80 1 -126 -93 -61 -133
	c85 -41 133 101 31 105
	c23 17 92 37 90 -92
	c-10 -223 -39 -342 -50 -617
	c0 -90 0 -162 96 -232
	c56 72 63 230 22 289
	c-74 106 -257 168 -255 316
	c9 153 148 185 252 133
	c86 -65 29 -192 -80 -176
	c-71 12 -105 67 -59 124"/>
<use id="tclef" transform="scale(0.045)"
	xlink:href="#utclef"/>
</defs>
<use x="25.33" y="106.01" xlink:href="#tclef"/>
<defs>
<path id="uflat" fill="currentColor" d="
	m100 -746
	h32
	v734
	l-32 4
	m32 -332
	c46 -72 152 -90 208 -20
	c100 110 -120 326 -208 348
	m0 -28
	c54 0 200 -206 130 -290
	c-50 -60 -130 -4 -130 34"/>
<use id="ft0" transform="translate(-3.5,3.5) scale(0.018)"
	xlink:href="#uflat"/>
</defs>
<use x="40.33" y="94.01" xlink:href="#ft0"/>
<use x="45.83" y="85.01" xlink:href="#ft0"/>
<g font-family="serif" font-size="16" font-weight="bold" font-style="normal"
	transform="translate(61.83,106.01) scale(1.2,1)">
	<text y="-1" text-anchor="middle">2</text>
	<text y="-13" text-anchor="middle">2</text>
</g>
<defs>
<path id="Hd" fill="currentColor" d="m3 -1.6
	c-1 -1.8 -7 1.4 -6 3.2
	c1 1.8 7 -1.4 6 -3.2
	m0.5 -0.3
	c2 3.8 -5 7.6 -7 3.8
	c-2 -3.8 5 -7.6 7 -3.8"/>
</defs>
<use x="80.33" y="103.01" xlink:href="#Hd"/>
<circle fill="currentColor" cx="90.33" cy="103.01" r="1.2"/>
<path d="M83.83 103.01v-20.00" stroke="currentColor" fill="none"/>
<use x="118.43" y="100.01" xlink:href="#hd"/>
<path d="M121.93 100.01v-20.00" stroke="currentColor" fill="none"/>
<defs>
<path id="HD" fill="currentColor" d="m-2.7 -1.4
	c1.5 -2.8 6.9 0 5.3 2.7
	c-1.5 2.8 -6.9 0 -5.3 -2.7
	m8.3 1.4
	c0 -1.5 -2.2 -3 -5.6 -3
	c-3.4 0 -5.6 1.5 -5.6 3
	c0 1.5 2.2 3 5.6 3
	c3.4 0 5.6 -1.5 5.6 -3"/>
</defs>
<use x="160.03" y="109.01" xlink:href="#HD"/>
<use x="148.03" y="109.01" xlink:href="#ft0"/>
<use x="215.13" y="109.01" xlink:href="#Hd"/>
<use x="205.13" y="109.01" xlink:href="#ft0"/>
<path d="M218.63 109.01v-20.00" stroke="currentColor" fill="none"/>
<use x="247.63" y="106.01" xlink:href="#Hd"/>
<path d="M251.13 106.01v-20.00" stroke="currentColor" fill="none"/>
<use x="286.93" y="103.01" xlink:href="#Hd"/>
<path d="M290.43 103.01v-20.00" stroke="currentColor" fill="none"/>
<use x="319.33" y="100.01" xlink:href="#Hd"/>
<path d="M322.83 100.01v-20.00" stroke="currentColor" fill="none"/>
<use x="360.73" y="94.01" xlink:href="#HD"/>
<use x="409.33" y="94.01" xlink:href="#Hd"/>
<path d="M412.83 94.01v-20.00" stroke="currentColor" fill="none"/>
<use x="443.63" y="97.01" xlink:href="#Hd"/>
<use x="433.63" y="97.01" xlink:href="#ft0"/>
<path d="M447.13 97.01v-20.00" stroke="currentColor" fill="none"/>
<use x="492.53" y="88.01" xlink:href="#HD"/>
<use x="480.53" y="88.01" xlink:href="#ft0"/>
<use x="550.63" y="94.01" xlink:href="#HD"/>
<defs>
<path id="unat" fill="currentColor" d="
	m96 -750
	h-32
	v716
	l32 -8
	l182 -54
	v282
	h32
	v-706
	l-34 10
	l-180 50
	v-290
	m0 592
	v-190
	l182 -52
	v188"/>
<use id="nt0" transform="translate(-3,5) scale(0.018)"
	xlink:href="#unat"/>
</defs>
<use x="538.63" y="94.01" xlink:href="#nt0"/>
<use x="608.73" y="97.01" xlink:href="#HD"/>
<use x="596.73" y="97.01" xlink:href="#nt0"/>
<use x="659.33" y="100.01" xlink:href="#HD"/>
<path fill="currentColor"
	d="M162.53 111.01c7.53 5.38 41.58 5.38 49.11 -0.00
	l0.00 0.25c-9.01 7.13 -40.10 7.13 -49.11 -0.25"/>
<path fill="currentColor"
	d="M363.23 94.01c6.66 -5.27 35.95 -5.27 42.61 -0.00
	l0.00 -0.24c-7.94 -7.02 -34.67 -7.02 -42.61 0.24"/>
</g>
</svg>
