<?xml version="1.0" standalone="no"?>
<!DOCTYPE svg PUBLIC "-//W3C//DTD SVG 1.1//EN"
	"http://www.w3.org/Graphics/SVG/1.1/DTD/svg11.dtd">
<svg xmlns="http://www.w3.org/2000/svg" version="1.1"
	xmlns:xlink="http://www.w3.org/1999/xlink"
	xml:space='preserve' color="black"
	width="7.38in" height="1.36in" viewBox="0 0 531 98">
<title>3573.abc (3573) tune 1</title>
<!-- Creator: abcm2ps-7.8.14 -->
<!-- CreationDate: Mar 13, 2016 18:54 -->
<!-- CommandLine: -qxg 3573.abc -O ../svgs/3573.svg -->
<g transform="scale(0.750)" stroke-width="0.70" font-family="Times" font-size="20.00">
<text x="354.13" y="21.67" text-anchor="middle">3573.  Czar und Zimmerman, Overture, 3rd. Theme</text>
</g>
<g transform="scale(0.750)" stroke-width="0.70" font-family="Times" font-size="14.00" font-style="italic">
<text x="694.93" y="45.34" text-anchor="end">Gustav Albert Lortzing</text>
</g>
<g transform="scale(0.525)" stroke-width="0.70" font-family="Times" font-size="14.00" font-style="italic">
<defs>
<ellipse id="hd" rx="4.1" ry="2.9"
	transform="rotate(-20)" fill="currentColor"/>
</defs>
<use x="107.04" y="94.16" xlink:href="#hd"/>
<path d="M110.54 94.16v-20.00" stroke="currentColor" fill="none"/>
</g>
<g transform="scale(0.750)" stroke-width="0.70" font-family="Times" font-size="15.00" font-weight="bold">
<text x="82.63" y="68.01">= 120</text>
<path stroke="currentColor" fill="none"
	d="M158.63 108.01v-24.00"/>
<path stroke="currentColor" fill="none"
	d="M301.33 108.01v-24.00"/>
<path stroke="currentColor" fill="none"
	d="M398.13 108.01v-24.00"/>
<path stroke="currentColor" fill="none"
	d="M540.83 108.01v-24.00"/>
<path stroke="currentColor" fill="none"
	d="M638.83 108.01v-24.00"/>
<path stroke="currentColor" fill="none"
	d="M13.33 108.01h681.60m-681.60 -6h681.60m-681.60 -6h681.60m-681.60 -6h681.60m-681.60 -6h681.60"/>
<defs>
<path id="utclef" fill="currentColor" d="m-50 -90
	c-72 -41 -72 -158 52 -188
	c150 -10 220 188 90 256
	c-114 52 -275 0 -293 -136
	c-15 -181 93 -229 220 -334
	c88 -87 79 -133 62 -210
	c-51 33 -94 105 -89 186
	c17 267 36 374 49 574
	c6 96 -19 134 -77 135
	c-80 1 -126 -93 -61 -133
	c85 -41 133 101 31 105
	c23 17 92 37 90 -92
	c-10 -223 -39 -342 -50 -617
	c0 -90 0 -162 96 -232
	c56 72 63 230 22 289
	c-74 106 -257 168 -255 316
	c9 153 148 185 252 133
	c86 -65 29 -192 -80 -176
	c-71 12 -105 67 -59 124"/>
<use id="tclef" transform="scale(0.045)"
	xlink:href="#utclef"/>
</defs>
<use x="25.33" y="108.01" xlink:href="#tclef"/>
<defs>
<path id="usharp" fill="currentColor" d="
	m136 -702
	v890
	h32
	v-890
	m128 840
	h32
	v-888
	h-32
	m-232 286
	v116
	l338 -96
	v-116
	m-338 442
	v116
	l338 -98
	v-114"/>
<use id="sh0" transform="translate(-4,5) scale(0.018)"
	xlink:href="#usharp"/>
</defs>
<use x="40.33" y="84.01" xlink:href="#sh0"/>
<g font-family="serif" font-size="16" font-weight="bold" font-style="normal"
	transform="translate(56.33,108.01) scale(1.2,1)">
	<text y="-1" text-anchor="middle">4</text>
	<text y="-13" text-anchor="middle">2</text>
</g>
<path fill="currentColor"
	d="M77.53 78.91l13.50 -2.20v3.20l-13.50 2.20"/>
<path fill="currentColor"
	d="M77.83 83.81l12.80 -2.00v3.20l-12.80 2.00"/>
<use x="74.33" y="102.01" xlink:href="#hd"/>
<path d="M77.83 102.01v-22.20" stroke="currentColor" fill="none"/>
<use x="87.13" y="99.01" xlink:href="#hd"/>
<path d="M90.63 99.01v-21.20" stroke="currentColor" fill="none"/>
<use x="101.13" y="96.01" xlink:href="#hd"/>
<path d="M104.63 96.01v-20.00" stroke="currentColor" fill="none"/>
<path fill="currentColor"
	d="	M104.63 76.01c0.6 5.6 9.6 9 5.6 18.4
	c1.6 -6 -1.3 -11.6 -5.6 -12.8
"/>
<use x="121.73" y="102.01" xlink:href="#hd"/>
<path d="M125.23 102.01v-20.00" stroke="currentColor" fill="none"/>
<path fill="currentColor"
	d="	M125.23 82.01c0.6 5.6 9.6 9 5.6 18.4
	c1.6 -6 -1.3 -11.6 -5.6 -12.8
"/>
<use x="142.93" y="87.01" xlink:href="#hd"/>
<path d="M139.43 87.01v20.00" stroke="currentColor" fill="none"/>
<path fill="currentColor"
	d="M139.43 107.01c0.6 -5.6 9.6 -9 5.6 -18.4
	c1.6 6 -1.3 11.6 -5.6 12.8
"/>
<use x="177.13" y="93.01" xlink:href="#hd"/>
<use x="168.13" y="93.01" xlink:href="#sh0"/>
<path d="M173.63 93.01v20.00" stroke="currentColor" fill="none"/>
<path fill="currentColor"
	d="M173.63 113.01c0.6 -5.6 9.6 -9 5.6 -18.4
	c1.6 6 -1.3 11.6 -5.6 12.8
"/>
<path fill="currentColor"
	d="M192.33 115.01l29.50 0.00v-3.20l-29.50 -0.00"/>
<path fill="currentColor"
	d="M192.63 110.01l28.80 0.00v-3.20l-28.80 -0.00"/>
<path fill="currentColor"
	d="M192.63 105.01l28.80 0.00v-3.20l-28.80 -0.00"/>
<use x="196.13" y="90.01" xlink:href="#hd"/>
<path d="M192.63 90.01v24.00" stroke="currentColor" fill="none"/>
<use x="205.73" y="87.01" xlink:href="#hd"/>
<path d="M202.23 87.01v27.00" stroke="currentColor" fill="none"/>
<use x="215.33" y="90.01" xlink:href="#hd"/>
<path d="M211.83 90.01v24.00" stroke="currentColor" fill="none"/>
<use x="224.93" y="87.01" xlink:href="#hd"/>
<path d="M221.43 87.01v27.00" stroke="currentColor" fill="none"/>
<path fill="currentColor"
	d="M231.63 115.01l29.50 0.00v-3.20l-29.50 -0.00"/>
<path fill="currentColor"
	d="M231.93 110.01l28.80 0.00v-3.20l-28.80 -0.00"/>
<path fill="currentColor"
	d="M231.93 105.01l28.80 0.00v-3.20l-28.80 -0.00"/>
<use x="235.43" y="90.01" xlink:href="#hd"/>
<path d="M231.93 90.01v24.00" stroke="currentColor" fill="none"/>
<use x="245.03" y="87.01" xlink:href="#hd"/>
<path d="M241.53 87.01v27.00" stroke="currentColor" fill="none"/>
<use x="254.63" y="90.01" xlink:href="#hd"/>
<path d="M251.13 90.01v24.00" stroke="currentColor" fill="none"/>
<use x="264.23" y="87.01" xlink:href="#hd"/>
<path d="M260.73 87.01v27.00" stroke="currentColor" fill="none"/>
<defs>
<path id="r8e" fill="currentColor" d="m 0 0
	c-1.5 1.5 -2.4 2 -3.6 2
	c2.4 -2.8 -2.8 -4 -2.8 -1.2
	c0 2.7 4.3 2.4 5.9 0.6"/>
<g id="r32">
	<path d="m4.8 -10l-5.5 21.6" stroke="currentColor" fill="none"/>
	<use x="4.9" y="-10" xlink:href="#r8e"/>
	<use x="3.4" y="-4" xlink:href="#r8e"/>
	<use x="1.9" y="2" xlink:href="#r8e"/>
</g>
</defs>
<use x="273.83" y="96.01" xlink:href="#r32"/>
<use x="284.33" y="81.01" xlink:href="#hd"/>
<circle fill="currentColor" cx="292.33" cy="81.01" r="1.2"/>
<path d="M280.83 81.01v22.00" stroke="currentColor" fill="none"/>
<path fill="currentColor"
	d="M280.83 103.01c0.9 -3.7 9.1 -6.4 6 -12.4
	c1 5.4 -4.2 8.4 -6 8.4
M280.83 97.61c0.9 -3.7 9.1 -6.4 6 -12.4
	c1 5.4 -4.2 8.4 -6 8.4
"/>
<path fill="currentColor"
	d="M317.03 78.91l13.50 -2.20v3.20l-13.50 2.20"/>
<path fill="currentColor"
	d="M317.33 83.81l12.80 -2.00v3.20l-12.80 2.00"/>
<use x="313.83" y="102.01" xlink:href="#hd"/>
<path d="M317.33 102.01v-22.20" stroke="currentColor" fill="none"/>
<use x="326.63" y="99.01" xlink:href="#hd"/>
<path d="M330.13 99.01v-21.20" stroke="currentColor" fill="none"/>
<use x="340.63" y="96.01" xlink:href="#hd"/>
<path d="M344.13 96.01v-20.00" stroke="currentColor" fill="none"/>
<path fill="currentColor"
	d="	M344.13 76.01c0.6 5.6 9.6 9 5.6 18.4
	c1.6 -6 -1.3 -11.6 -5.6 -12.8
"/>
<use x="361.23" y="102.01" xlink:href="#hd"/>
<path d="M364.73 102.01v-20.00" stroke="currentColor" fill="none"/>
<path fill="currentColor"
	d="	M364.73 82.01c0.6 5.6 9.6 9 5.6 18.4
	c1.6 -6 -1.3 -11.6 -5.6 -12.8
"/>
<use x="382.43" y="87.01" xlink:href="#hd"/>
<path d="M378.93 87.01v20.00" stroke="currentColor" fill="none"/>
<path fill="currentColor"
	d="M378.93 107.01c0.6 -5.6 9.6 -9 5.6 -18.4
	c1.6 6 -1.3 11.6 -5.6 12.8
"/>
<use x="416.63" y="93.01" xlink:href="#hd"/>
<use x="407.63" y="93.01" xlink:href="#sh0"/>
<path d="M413.13 93.01v20.00" stroke="currentColor" fill="none"/>
<path fill="currentColor"
	d="M413.13 113.01c0.6 -5.6 9.6 -9 5.6 -18.4
	c1.6 6 -1.3 11.6 -5.6 12.8
"/>
<path fill="currentColor"
	d="M431.83 115.01l29.50 0.00v-3.20l-29.50 -0.00"/>
<path fill="currentColor"
	d="M432.13 110.01l28.80 0.00v-3.20l-28.80 -0.00"/>
<path fill="currentColor"
	d="M432.13 105.01l28.80 0.00v-3.20l-28.80 -0.00"/>
<use x="435.63" y="90.01" xlink:href="#hd"/>
<path d="M432.13 90.01v24.00" stroke="currentColor" fill="none"/>
<use x="445.23" y="87.01" xlink:href="#hd"/>
<path d="M441.73 87.01v27.00" stroke="currentColor" fill="none"/>
<use x="454.83" y="90.01" xlink:href="#hd"/>
<path d="M451.33 90.01v24.00" stroke="currentColor" fill="none"/>
<use x="464.43" y="87.01" xlink:href="#hd"/>
<path d="M460.93 87.01v27.00" stroke="currentColor" fill="none"/>
<path fill="currentColor"
	d="M471.13 115.01l29.50 0.00v-3.20l-29.50 -0.00"/>
<path fill="currentColor"
	d="M471.43 110.01l28.80 0.00v-3.20l-28.80 -0.00"/>
<path fill="currentColor"
	d="M471.43 105.01l28.80 0.00v-3.20l-28.80 -0.00"/>
<use x="474.93" y="90.01" xlink:href="#hd"/>
<path d="M471.43 90.01v24.00" stroke="currentColor" fill="none"/>
<use x="484.53" y="87.01" xlink:href="#hd"/>
<path d="M481.03 87.01v27.00" stroke="currentColor" fill="none"/>
<use x="494.13" y="90.01" xlink:href="#hd"/>
<path d="M490.63 90.01v24.00" stroke="currentColor" fill="none"/>
<use x="503.73" y="87.01" xlink:href="#hd"/>
<path d="M500.23 87.01v27.00" stroke="currentColor" fill="none"/>
<use x="513.33" y="96.01" xlink:href="#r32"/>
<defs>
<path id="hl" stroke="currentColor" d="m-6 0h12"/>
</defs>
<use x="523.83" y="78.01" xlink:href="#hl"/>
<use x="523.83" y="75.01" xlink:href="#hd"/>
<circle fill="currentColor" cx="531.83" cy="75.01" r="1.2"/>
<path d="M520.33 75.01v22.00" stroke="currentColor" fill="none"/>
<path fill="currentColor"
	d="M520.33 97.01c0.9 -3.7 9.1 -6.4 6 -12.4
	c1 5.4 -4.2 8.4 -6 8.4
M520.33 91.61c0.9 -3.7 9.1 -6.4 6 -12.4
	c1 5.4 -4.2 8.4 -6 8.4
"/>
<path fill="currentColor"
	d="M549.53 100.31l13.80 -2.20v-3.20l-13.80 2.20"/>
<path fill="currentColor"
	d="M549.83 95.21l13.10 -2.10v-3.20l-13.10 2.10"/>
<use x="553.33" y="78.01" xlink:href="#hl"/>
<use x="553.33" y="78.01" xlink:href="#hd"/>
<path d="M549.83 78.01v21.20" stroke="currentColor" fill="none"/>
<use x="566.43" y="78.01" xlink:href="#hl"/>
<use x="566.43" y="75.01" xlink:href="#hd"/>
<path d="M562.93 75.01v22.10" stroke="currentColor" fill="none"/>
<use x="584.43" y="78.01" xlink:href="#hl"/>
<use x="584.43" y="72.01" xlink:href="#hl"/>
<use x="584.43" y="72.01" xlink:href="#hd"/>
<defs>
<path id="unat" fill="currentColor" d="
	m96 -750
	h-32
	v716
	l32 -8
	l182 -54
	v282
	h32
	v-706
	l-34 10
	l-180 50
	v-290
	m0 592
	v-190
	l182 -52
	v188"/>
<use id="nt0" transform="translate(-3,5) scale(0.018)"
	xlink:href="#unat"/>
</defs>
<use x="575.43" y="72.01" xlink:href="#nt0"/>
<path d="M580.93 72.01v24.00" stroke="currentColor" fill="none"/>
<path fill="currentColor"
	d="M580.93 96.01c0.6 -5.6 9.6 -9 5.6 -18.4
	c1.6 6 -1.3 11.6 -5.6 12.8
"/>
<use x="603.83" y="78.01" xlink:href="#hl"/>
<use x="603.83" y="72.01" xlink:href="#hl"/>
<use x="603.83" y="66.01" xlink:href="#hl"/>
<use x="603.83" y="66.01" xlink:href="#hd"/>
<path d="M600.33 66.01v30.00" stroke="currentColor" fill="none"/>
<path fill="currentColor"
	d="M600.33 96.01c0.6 -5.6 9.6 -9 5.6 -18.4
	c1.6 6 -1.3 11.6 -5.6 12.8
"/>
<use x="623.13" y="78.01" xlink:href="#hl"/>
<use x="623.13" y="78.01" xlink:href="#hd"/>
<path d="M619.63 78.01v20.00" stroke="currentColor" fill="none"/>
<path fill="currentColor"
	d="M619.63 98.01c0.6 -5.6 9.6 -9 5.6 -18.4
	c1.6 6 -1.3 11.6 -5.6 12.8
"/>
<use x="651.33" y="78.01" xlink:href="#hl"/>
<use x="651.33" y="75.01" xlink:href="#hd"/>
<path d="M647.83 75.01v21.00" stroke="currentColor" fill="none"/>
<path fill="currentColor"
	d="M647.83 96.01c0.6 -5.6 9.6 -9 5.6 -18.4
	c1.6 6 -1.3 11.6 -5.6 12.8
"/>
<use x="670.73" y="78.01" xlink:href="#hl"/>
<use x="670.73" y="72.01" xlink:href="#hl"/>
<use x="670.73" y="69.01" xlink:href="#hd"/>
<path d="M667.23 69.01v27.00" stroke="currentColor" fill="none"/>
</g>
</svg>
