<?xml version="1.0" standalone="no"?>
<!DOCTYPE svg PUBLIC "-//W3C//DTD SVG 1.1//EN"
	"http://www.w3.org/Graphics/SVG/1.1/DTD/svg11.dtd">
<svg xmlns="http://www.w3.org/2000/svg" version="1.1"
	xmlns:xlink="http://www.w3.org/1999/xlink"
	xml:space='preserve' color="black"
	width="7.38in" height="1.34in" viewBox="0 0 531 97">
<title>3586.abc (3586) tune 1</title>
<!-- Creator: abcm2ps-7.8.14 -->
<!-- CreationDate: Mar 13, 2016 18:54 -->
<!-- CommandLine: -qxg 3586.abc -O ../svgs/3586.svg -->
<g transform="scale(0.750)" stroke-width="0.70" font-family="Times" font-size="20.00">
<text x="354.13" y="21.67" text-anchor="middle">3586.  Amadis de Gaule Opera, Minuet</text>
</g>
<g transform="scale(0.750)" stroke-width="0.70" font-family="Times" font-size="14.00" font-style="italic">
<text x="694.93" y="45.34" text-anchor="end">Jean Baptiste Lully</text>
</g>
<g transform="scale(0.525)" stroke-width="0.70" font-family="Times" font-size="14.00" font-style="italic">
<defs>
<ellipse id="hd" rx="4.1" ry="2.9"
	transform="rotate(-20)" fill="currentColor"/>
</defs>
<use x="114.90" y="94.16" xlink:href="#hd"/>
<path d="M118.40 94.16v-20.00" stroke="currentColor" fill="none"/>
</g>
<g transform="scale(0.750)" stroke-width="0.70" font-family="Times" font-size="15.00" font-weight="bold">
<text x="88.13" y="68.01">= 120</text>
<path stroke="currentColor" fill="none"
	d="M155.13 106.01v-24.00"/>
<path stroke="currentColor" fill="none"
	d="M246.43 106.01v-24.00"/>
<path stroke="currentColor" fill="none"
	d="M335.03 106.01v-24.00"/>
<path stroke="currentColor" fill="none"
	d="M422.83 106.01v-24.00"/>
<path stroke="currentColor" fill="none"
	d="M515.03 106.01v-24.00"/>
<path stroke="currentColor" fill="none"
	d="M619.83 106.01v-24.00"/>
<path stroke="currentColor" fill="none"
	d="M694.93 106.01v-24.00"/>
<path stroke="currentColor" fill="none"
	d="M13.33 106.01h681.60m-681.60 -6h681.60m-681.60 -6h681.60m-681.60 -6h681.60m-681.60 -6h681.60"/>
<defs>
<path id="utclef" fill="currentColor" d="m-50 -90
	c-72 -41 -72 -158 52 -188
	c150 -10 220 188 90 256
	c-114 52 -275 0 -293 -136
	c-15 -181 93 -229 220 -334
	c88 -87 79 -133 62 -210
	c-51 33 -94 105 -89 186
	c17 267 36 374 49 574
	c6 96 -19 134 -77 135
	c-80 1 -126 -93 -61 -133
	c85 -41 133 101 31 105
	c23 17 92 37 90 -92
	c-10 -223 -39 -342 -50 -617
	c0 -90 0 -162 96 -232
	c56 72 63 230 22 289
	c-74 106 -257 168 -255 316
	c9 153 148 185 252 133
	c86 -65 29 -192 -80 -176
	c-71 12 -105 67 -59 124"/>
<use id="tclef" transform="scale(0.045)"
	xlink:href="#utclef"/>
</defs>
<use x="25.33" y="106.01" xlink:href="#tclef"/>
<defs>
<path id="usharp" fill="currentColor" d="
	m136 -702
	v890
	h32
	v-890
	m128 840
	h32
	v-888
	h-32
	m-232 286
	v116
	l338 -96
	v-116
	m-338 442
	v116
	l338 -98
	v-114"/>
<use id="sh0" transform="translate(-4,5) scale(0.018)"
	xlink:href="#usharp"/>
</defs>
<use x="40.33" y="82.01" xlink:href="#sh0"/>
<use x="45.83" y="91.01" xlink:href="#sh0"/>
<g font-family="serif" font-size="16" font-weight="bold" font-style="normal"
	transform="translate(61.83,106.01) scale(1.2,1)">
	<text y="-1" text-anchor="middle">4</text>
	<text y="-13" text-anchor="middle">3</text>
</g>
<use x="79.83" y="91.01" xlink:href="#hd"/>
<circle fill="currentColor" cx="87.83" cy="91.01" r="1.2"/>
<path d="M76.33 91.01v20.00" stroke="currentColor" fill="none"/>
<use x="112.33" y="88.01" xlink:href="#hd"/>
<path d="M108.83 88.01v20.00" stroke="currentColor" fill="none"/>
<path fill="currentColor"
	d="M108.83 108.01c0.6 -5.6 9.6 -9 5.6 -18.4
	c1.6 6 -1.3 11.6 -5.6 12.8
"/>
<use x="132.53" y="85.01" xlink:href="#hd"/>
<path d="M129.03 85.01v20.00" stroke="currentColor" fill="none"/>
<use x="167.63" y="88.01" xlink:href="#hd"/>
<path d="M164.13 88.01v20.00" stroke="currentColor" fill="none"/>
<use x="195.73" y="94.01" xlink:href="#hd"/>
<path d="M192.23 94.01v20.00" stroke="currentColor" fill="none"/>
<use x="223.73" y="85.01" xlink:href="#hd"/>
<path d="M220.23 85.01v20.00" stroke="currentColor" fill="none"/>
<use x="258.93" y="97.01" xlink:href="#hd"/>
<circle fill="currentColor" cx="266.93" cy="97.01" r="1.2"/>
<path d="M262.43 97.01v-20.00" stroke="currentColor" fill="none"/>
<use x="291.53" y="97.01" xlink:href="#hd"/>
<path d="M295.03 97.01v-20.00" stroke="currentColor" fill="none"/>
<path fill="currentColor"
	d="	M295.03 77.01c0.6 5.6 9.6 9 5.6 18.4
	c1.6 -6 -1.3 -11.6 -5.6 -12.8
"/>
<use x="312.33" y="94.01" xlink:href="#hd"/>
<path d="M315.83 94.01v-20.00" stroke="currentColor" fill="none"/>
<use x="347.53" y="91.01" xlink:href="#hd"/>
<circle fill="currentColor" cx="355.53" cy="91.01" r="1.2"/>
<path d="M344.03 91.01v20.00" stroke="currentColor" fill="none"/>
<use x="380.03" y="88.01" xlink:href="#hd"/>
<path d="M376.53 88.01v20.00" stroke="currentColor" fill="none"/>
<path fill="currentColor"
	d="M376.53 108.01c0.6 -5.6 9.6 -9 5.6 -18.4
	c1.6 6 -1.3 11.6 -5.6 12.8
"/>
<use x="400.13" y="85.01" xlink:href="#hd"/>
<path d="M396.63 85.01v20.00" stroke="currentColor" fill="none"/>
<use x="435.33" y="82.01" xlink:href="#hd"/>
<path d="M431.83 82.01v20.00" stroke="currentColor" fill="none"/>
<use x="464.23" y="79.01" xlink:href="#hd"/>
<use x="455.23" y="79.01" xlink:href="#sh0"/>
<path d="M460.73 79.01v20.00" stroke="currentColor" fill="none"/>
<defs>
<path id="hl" stroke="currentColor" d="m-6 0h12"/>
</defs>
<use x="492.33" y="76.01" xlink:href="#hl"/>
<use x="492.33" y="76.01" xlink:href="#hd"/>
<path d="M488.83 76.01v20.00" stroke="currentColor" fill="none"/>
<use x="533.53" y="79.01" xlink:href="#hd"/>
<use x="524.53" y="79.01" xlink:href="#sh0"/>
<path d="M530.03 79.01v20.00" stroke="currentColor" fill="none"/>
<use x="561.53" y="76.01" xlink:href="#hl"/>
<use x="561.53" y="76.01" xlink:href="#hd"/>
<circle fill="currentColor" cx="569.53" cy="73.01" r="1.2"/>
<path d="M558.03 76.01v20.00" stroke="currentColor" fill="none"/>
<path fill="currentColor"
	d="M591.13 101.31l13.80 -2.20v-3.20l-13.80 2.20"/>
<path fill="currentColor"
	d="M591.43 96.21l13.10 -2.10v-3.20l-13.10 2.10"/>
<use x="594.93" y="79.01" xlink:href="#hd"/>
<use x="585.93" y="79.01" xlink:href="#sh0"/>
<path d="M591.43 79.01v21.20" stroke="currentColor" fill="none"/>
<use x="608.03" y="76.01" xlink:href="#hl"/>
<use x="608.03" y="76.01" xlink:href="#hd"/>
<path d="M604.53 76.01v22.10" stroke="currentColor" fill="none"/>
<use x="632.83" y="76.01" xlink:href="#hl"/>
<defs>
<path id="Hd" fill="currentColor" d="m3 -1.6
	c-1 -1.8 -7 1.4 -6 3.2
	c1 1.8 7 -1.4 6 -3.2
	m0.5 -0.3
	c2 3.8 -5 7.6 -7 3.8
	c-2 -3.8 5 -7.6 7 -3.8"/>
</defs>
<use x="632.83" y="73.01" xlink:href="#Hd"/>
<path d="M629.33 73.01v21.00" stroke="currentColor" fill="none"/>
<use x="672.23" y="85.01" xlink:href="#hd"/>
<path d="M668.73 85.01v20.00" stroke="currentColor" fill="none"/>
</g>
</svg>
