<?xml version="1.0" standalone="no"?>
<!DOCTYPE svg PUBLIC "-//W3C//DTD SVG 1.1//EN"
	"http://www.w3.org/Graphics/SVG/1.1/DTD/svg11.dtd">
<svg xmlns="http://www.w3.org/2000/svg" version="1.1"
	xmlns:xlink="http://www.w3.org/1999/xlink"
	xml:space='preserve' color="black"
	width="7.38in" height="1.34in" viewBox="0 0 531 97">
<title>3640.abc (3640) tune 1</title>
<!-- Creator: abcm2ps-7.8.14 -->
<!-- CreationDate: Mar 13, 2016 18:54 -->
<!-- CommandLine: -qxg 3640.abc -O ../svgs/3640.svg -->
<g transform="scale(0.750)" stroke-width="0.70" font-family="Times" font-size="20.00">
<text x="354.13" y="21.67" text-anchor="middle">3640.  Suite No. 2, III. In War-Time</text>
</g>
<g transform="scale(0.750)" stroke-width="0.70" font-family="Times" font-size="14.00" font-style="italic">
<text x="694.93" y="45.34" text-anchor="end">Edward MacDowell</text>
</g>
<g transform="scale(0.525)" stroke-width="0.70" font-family="Times" font-size="14.00" font-style="italic">
<defs>
<ellipse id="hd" rx="4.1" ry="2.9"
	transform="rotate(-20)" fill="currentColor"/>
</defs>
<use x="107.04" y="94.16" xlink:href="#hd"/>
<path d="M110.54 94.16v-20.00" stroke="currentColor" fill="none"/>
</g>
<g transform="scale(0.750)" stroke-width="0.70" font-family="Times" font-size="15.00" font-weight="bold">
<text x="82.63" y="68.01">= 120</text>
<path stroke="currentColor" fill="none"
	d="M174.23 106.01v-24.00"/>
<path stroke="currentColor" fill="none"
	d="M305.63 106.01v-24.00"/>
<path stroke="currentColor" fill="none"
	d="M427.33 106.01v-24.00"/>
<path stroke="currentColor" fill="none"
	d="M530.03 106.01v-24.00"/>
<path stroke="currentColor" fill="none"
	d="M13.33 106.01h516.70m-516.70 -6h516.70m-516.70 -6h516.70m-516.70 -6h516.70m-516.70 -6h516.70"/>
<defs>
<path id="utclef" fill="currentColor" d="m-50 -90
	c-72 -41 -72 -158 52 -188
	c150 -10 220 188 90 256
	c-114 52 -275 0 -293 -136
	c-15 -181 93 -229 220 -334
	c88 -87 79 -133 62 -210
	c-51 33 -94 105 -89 186
	c17 267 36 374 49 574
	c6 96 -19 134 -77 135
	c-80 1 -126 -93 -61 -133
	c85 -41 133 101 31 105
	c23 17 92 37 90 -92
	c-10 -223 -39 -342 -50 -617
	c0 -90 0 -162 96 -232
	c56 72 63 230 22 289
	c-74 106 -257 168 -255 316
	c9 153 148 185 252 133
	c86 -65 29 -192 -80 -176
	c-71 12 -105 67 -59 124"/>
<use id="tclef" transform="scale(0.045)"
	xlink:href="#utclef"/>
</defs>
<use x="25.33" y="106.01" xlink:href="#tclef"/>
<defs>
<path id="uflat" fill="currentColor" d="
	m100 -746
	h32
	v734
	l-32 4
	m32 -332
	c46 -72 152 -90 208 -20
	c100 110 -120 326 -208 348
	m0 -28
	c54 0 200 -206 130 -290
	c-50 -60 -130 -4 -130 34"/>
<use id="ft0" transform="translate(-3.5,3.5) scale(0.018)"
	xlink:href="#uflat"/>
</defs>
<use x="40.33" y="94.01" xlink:href="#ft0"/>
<g font-family="serif" font-size="16" font-weight="bold" font-style="normal"
	transform="translate(56.33,106.01) scale(1.2,1)">
	<text y="-1" text-anchor="middle">4</text>
	<text y="-13" text-anchor="middle">2</text>
</g>
<path fill="currentColor"
	d="M77.53 86.31l29.70 -2.50v3.20l-29.70 2.50"/>
<path fill="currentColor"
	d="M100.83 89.31l6.00 -0.50v3.20l-6.00 0.50"/>
<use x="74.33" y="109.01" xlink:href="#hd"/>
<circle fill="currentColor" cx="82.33" cy="109.01" r="1.2"/>
<path d="M77.83 109.01v-21.70" stroke="currentColor" fill="none"/>
<use x="103.33" y="106.01" xlink:href="#hd"/>
<path d="M106.83 106.01v-21.20" stroke="currentColor" fill="none"/>
<use x="123.33" y="103.01" xlink:href="#hd"/>
<path d="M126.83 103.01v-20.00" stroke="currentColor" fill="none"/>
<path fill="currentColor"
	d="	M126.83 83.01c0.6 5.6 9.6 9 5.6 18.4
	c1.6 -6 -1.3 -11.6 -5.6 -12.8
"/>
<use x="151.63" y="97.01" xlink:href="#hd"/>
<path d="M155.13 97.01v-20.00" stroke="currentColor" fill="none"/>
<path fill="currentColor"
	d="	M155.13 77.01c0.6 5.6 9.6 9 5.6 18.4
	c1.6 -6 -1.3 -11.6 -5.6 -12.8
"/>
<use x="188.43" y="100.01" xlink:href="#hd"/>
<path d="M191.93 100.01v-20.00" stroke="currentColor" fill="none"/>
<path fill="currentColor"
	d="	M191.93 80.01c0.6 5.6 9.6 9 5.6 18.4
	c1.6 -6 -1.3 -11.6 -5.6 -12.8
"/>
<path fill="currentColor"
	d="M219.83 77.81l18.70 2.30v3.20l-18.70 -2.30"/>
<path fill="currentColor"
	d="M220.23 82.81l18.00 2.30v3.20l-18.00 -2.30"/>
<use x="216.73" y="100.01" xlink:href="#hd"/>
<path d="M220.23 100.01v-21.20" stroke="currentColor" fill="none"/>
<use x="234.73" y="103.01" xlink:href="#hd"/>
<path d="M238.23 103.01v-21.90" stroke="currentColor" fill="none"/>
<use x="254.73" y="106.01" xlink:href="#hd"/>
<path d="M258.23 106.01v-20.00" stroke="currentColor" fill="none"/>
<path fill="currentColor"
	d="	M258.23 86.01c0.6 5.6 9.6 9 5.6 18.4
	c1.6 -6 -1.3 -11.6 -5.6 -12.8
"/>
<defs>
<path id="hl" stroke="currentColor" d="m-6 0h12"/>
</defs>
<use x="283.03" y="112.01" xlink:href="#hl"/>
<use x="283.03" y="112.01" xlink:href="#hd"/>
<path d="M286.53 112.01v-20.00" stroke="currentColor" fill="none"/>
<path fill="currentColor"
	d="	M286.53 92.01c0.6 5.6 9.6 9 5.6 18.4
	c1.6 -6 -1.3 -11.6 -5.6 -12.8
"/>
<use x="319.83" y="109.01" xlink:href="#hd"/>
<path d="M323.33 109.01v-20.00" stroke="currentColor" fill="none"/>
<path fill="currentColor"
	d="	M323.33 89.01c0.6 5.6 9.6 9 5.6 18.4
	c1.6 -6 -1.3 -11.6 -5.6 -12.8
"/>
<use x="348.13" y="97.01" xlink:href="#hd"/>
<path d="M351.63 97.01v-20.00" stroke="currentColor" fill="none"/>
<path fill="currentColor"
	d="	M351.63 77.01c0.6 5.6 9.6 9 5.6 18.4
	c1.6 -6 -1.3 -11.6 -5.6 -12.8
"/>
<use x="376.43" y="100.01" xlink:href="#hd"/>
<path d="M379.93 100.01v-20.00" stroke="currentColor" fill="none"/>
<path fill="currentColor"
	d="	M379.93 80.01c0.6 5.6 9.6 9 5.6 18.4
	c1.6 -6 -1.3 -11.6 -5.6 -12.8
"/>
<use x="404.73" y="103.01" xlink:href="#hd"/>
<path d="M408.23 103.01v-20.00" stroke="currentColor" fill="none"/>
<path fill="currentColor"
	d="	M408.23 83.01c0.6 5.6 9.6 9 5.6 18.4
	c1.6 -6 -1.3 -11.6 -5.6 -12.8
"/>
<use x="441.43" y="106.01" xlink:href="#hd"/>
<path d="M444.93 106.01v-20.00" stroke="currentColor" fill="none"/>
<path fill="currentColor"
	d="	M444.93 86.01c0.6 5.6 9.6 9 5.6 18.4
	c1.6 -6 -1.3 -11.6 -5.6 -12.8
"/>
<use x="469.73" y="106.01" xlink:href="#hd"/>
<path d="M473.23 106.01v-20.00" stroke="currentColor" fill="none"/>
<path fill="currentColor"
	d="	M473.23 86.01c0.6 5.6 9.6 9 5.6 18.4
	c1.6 -6 -1.3 -11.6 -5.6 -12.8
"/>
<use x="498.03" y="109.01" xlink:href="#hd"/>
<path d="M501.53 109.01v-20.00" stroke="currentColor" fill="none"/>
</g>
</svg>
