<?xml version="1.0" standalone="no"?>
<!DOCTYPE svg PUBLIC "-//W3C//DTD SVG 1.1//EN"
	"http://www.w3.org/Graphics/SVG/1.1/DTD/svg11.dtd">
<svg xmlns="http://www.w3.org/2000/svg" version="1.1"
	xmlns:xlink="http://www.w3.org/1999/xlink"
	xml:space='preserve' color="black"
	width="7.38in" height="1.48in" viewBox="0 0 531 107">
<title>3670.abc (3670) tune 1</title>
<!-- Creator: abcm2ps-7.8.14 -->
<!-- CreationDate: Mar 13, 2016 18:54 -->
<!-- CommandLine: -qxg 3670.abc -O ../svgs/3670.svg -->
<g transform="scale(0.750)" stroke-width="0.70" font-family="Times" font-size="20.00">
<text x="354.13" y="21.67" text-anchor="middle">3670.  Symphony No. 2, in C Minor, 2nd. Mvt. - 2nd. Theme</text>
</g>
<g transform="scale(0.750)" stroke-width="0.70" font-family="Times" font-size="14.00" font-style="italic">
<text x="694.93" y="45.34" text-anchor="end">Gustav Mahler</text>
</g>
<g transform="scale(0.525)" stroke-width="0.70" font-family="Times" font-size="14.00" font-style="italic">
<defs>
<ellipse id="hd" rx="4.1" ry="2.9"
	transform="rotate(-20)" fill="currentColor"/>
</defs>
<use x="138.47" y="94.16" xlink:href="#hd"/>
<path d="M141.97 94.16v-20.00" stroke="currentColor" fill="none"/>
</g>
<g transform="scale(0.750)" stroke-width="0.70" font-family="Times" font-size="15.00" font-weight="bold">
<text x="104.63" y="68.01">= 120</text>
<path stroke="currentColor" fill="none"
	d="M260.63 119.01v-24.00"/>
<path stroke="currentColor" fill="none"
	d="M441.13 119.01v-24.00"/>
<path stroke="currentColor" fill="none"
	d="M621.33 119.01v-24.00"/>
<path stroke="currentColor" fill="none"
	d="M13.33 119.01h681.60m-681.60 -6h681.60m-681.60 -6h681.60m-681.60 -6h681.60m-681.60 -6h681.60"/>
<text font-family="serif" font-size="12" font-style="italic" font-weight="normal"
	x="113.93" y="124.01" text-anchor="middle">3</text>
<text font-family="serif" font-size="12" font-style="italic" font-weight="normal"
	x="170.83" y="124.01" text-anchor="middle">3</text>
<text font-family="serif" font-size="12" font-style="italic" font-weight="normal"
	x="226.03" y="128.81" text-anchor="middle">3</text>
<text font-family="serif" font-size="12" font-style="italic" font-weight="normal"
	x="297.03" y="132.01" text-anchor="middle">3</text>
<text font-family="serif" font-size="12" font-style="italic" font-weight="normal"
	x="352.23" y="138.81" text-anchor="middle">3</text>
<text font-family="serif" font-size="12" font-style="italic" font-weight="normal"
	x="406.53" y="137.01" text-anchor="middle">3</text>
<text font-family="serif" font-size="12" font-style="italic" font-weight="normal"
	x="474.63" y="137.01" text-anchor="middle">3</text>
<text font-family="serif" font-size="12" font-style="italic" font-weight="normal"
	x="528.93" y="137.01" text-anchor="middle">3</text>
<text font-family="serif" font-size="12" font-style="italic" font-weight="normal"
	x="585.03" y="132.01" text-anchor="middle">3</text>
<text font-family="serif" font-size="12" font-style="italic" font-weight="normal"
	x="655.63" y="130.81" text-anchor="middle">3</text>
<defs>
<path id="utclef" fill="currentColor" d="m-50 -90
	c-72 -41 -72 -158 52 -188
	c150 -10 220 188 90 256
	c-114 52 -275 0 -293 -136
	c-15 -181 93 -229 220 -334
	c88 -87 79 -133 62 -210
	c-51 33 -94 105 -89 186
	c17 267 36 374 49 574
	c6 96 -19 134 -77 135
	c-80 1 -126 -93 -61 -133
	c85 -41 133 101 31 105
	c23 17 92 37 90 -92
	c-10 -223 -39 -342 -50 -617
	c0 -90 0 -162 96 -232
	c56 72 63 230 22 289
	c-74 106 -257 168 -255 316
	c9 153 148 185 252 133
	c86 -65 29 -192 -80 -176
	c-71 12 -105 67 -59 124"/>
<use id="tclef" transform="scale(0.045)"
	xlink:href="#utclef"/>
</defs>
<use x="25.33" y="119.01" xlink:href="#tclef"/>
<defs>
<path id="usharp" fill="currentColor" d="
	m136 -702
	v890
	h32
	v-890
	m128 840
	h32
	v-888
	h-32
	m-232 286
	v116
	l338 -96
	v-116
	m-338 442
	v116
	l338 -98
	v-114"/>
<use id="sh0" transform="translate(-4,5) scale(0.018)"
	xlink:href="#usharp"/>
</defs>
<use x="40.33" y="95.01" xlink:href="#sh0"/>
<use x="45.83" y="104.01" xlink:href="#sh0"/>
<use x="51.33" y="92.01" xlink:href="#sh0"/>
<use x="56.83" y="101.01" xlink:href="#sh0"/>
<use x="62.33" y="110.01" xlink:href="#sh0"/>
<g font-family="serif" font-size="16" font-weight="bold" font-style="normal"
	transform="translate(78.33,119.01) scale(1.2,1)">
	<text y="-1" text-anchor="middle">8</text>
	<text y="-13" text-anchor="middle">3</text>
</g>
<path fill="currentColor"
	d="M92.53 107.21l39.00 0.00v-3.20l-39.00 -0.00"/>
<path fill="currentColor"
	d="M92.83 102.21l38.30 0.00v-3.20l-38.30 -0.00"/>
<defs>
<path id="hl" stroke="currentColor" d="m-6 0h12"/>
</defs>
<use x="96.33" y="89.01" xlink:href="#hl"/>
<use x="96.33" y="83.01" xlink:href="#hl"/>
<use x="96.33" y="80.01" xlink:href="#hd"/>
<path d="M92.83 80.01v26.20" stroke="currentColor" fill="none"/>
<use x="115.53" y="89.01" xlink:href="#hl"/>
<use x="115.53" y="83.01" xlink:href="#hl"/>
<use x="115.53" y="80.01" xlink:href="#hd"/>
<defs>
<path id="unat" fill="currentColor" d="
	m96 -750
	h-32
	v716
	l32 -8
	l182 -54
	v282
	h32
	v-706
	l-34 10
	l-180 50
	v-290
	m0 592
	v-190
	l182 -52
	v188"/>
<use id="nt0" transform="translate(-3,5) scale(0.018)"
	xlink:href="#unat"/>
</defs>
<use x="106.53" y="80.01" xlink:href="#nt0"/>
<path d="M112.03 80.01v26.20" stroke="currentColor" fill="none"/>
<use x="134.63" y="89.01" xlink:href="#hl"/>
<use x="134.63" y="83.01" xlink:href="#hl"/>
<use x="134.63" y="80.01" xlink:href="#hd"/>
<use x="125.63" y="80.01" xlink:href="#nt0"/>
<path d="M131.13 80.01v26.20" stroke="currentColor" fill="none"/>
<path fill="currentColor"
	d="M150.23 107.21l37.30 0.00v-3.20l-37.30 -0.00"/>
<path fill="currentColor"
	d="M150.63 102.21l36.60 0.00v-3.20l-36.60 -0.00"/>
<use x="154.13" y="89.01" xlink:href="#hl"/>
<use x="154.13" y="83.01" xlink:href="#hl"/>
<use x="154.13" y="77.01" xlink:href="#hl"/>
<use x="154.13" y="77.01" xlink:href="#hd"/>
<path d="M150.63 77.01v29.20" stroke="currentColor" fill="none"/>
<use x="173.23" y="89.01" xlink:href="#hl"/>
<use x="173.23" y="83.01" xlink:href="#hl"/>
<use x="173.23" y="80.01" xlink:href="#hd"/>
<use x="164.23" y="80.01" xlink:href="#sh0"/>
<path d="M169.73 80.01v26.20" stroke="currentColor" fill="none"/>
<use x="190.73" y="89.01" xlink:href="#hl"/>
<use x="190.73" y="83.01" xlink:href="#hl"/>
<use x="190.73" y="83.01" xlink:href="#hd"/>
<path d="M187.23 83.01v23.20" stroke="currentColor" fill="none"/>
<path fill="currentColor"
	d="M206.33 109.71l35.60 4.60v-3.20l-35.60 -4.60"/>
<path fill="currentColor"
	d="M206.63 104.71l34.90 4.50v-3.20l-34.90 -4.50"/>
<use x="210.13" y="89.01" xlink:href="#hl"/>
<use x="210.13" y="86.01" xlink:href="#hd"/>
<path d="M206.63 86.01v22.70" stroke="currentColor" fill="none"/>
<use x="227.63" y="89.01" xlink:href="#hl"/>
<use x="227.63" y="89.01" xlink:href="#hd"/>
<path d="M224.13 89.01v22.00" stroke="currentColor" fill="none"/>
<use x="245.03" y="92.01" xlink:href="#hd"/>
<path d="M241.53 92.01v21.20" stroke="currentColor" fill="none"/>
<path fill="currentColor"
	d="M276.43 115.01l37.30 0.00v-3.20l-37.30 -0.00"/>
<path fill="currentColor"
	d="M276.73 110.01l36.60 0.00v-3.20l-36.60 -0.00"/>
<use x="280.23" y="92.01" xlink:href="#hd"/>
<use x="271.23" y="92.01" xlink:href="#nt0"/>
<path d="M276.73 92.01v22.00" stroke="currentColor" fill="none"/>
<use x="299.43" y="92.01" xlink:href="#hd"/>
<use x="290.43" y="92.01" xlink:href="#nt0"/>
<path d="M295.93 92.01v22.00" stroke="currentColor" fill="none"/>
<use x="316.93" y="89.01" xlink:href="#hl"/>
<use x="316.93" y="89.01" xlink:href="#hd"/>
<path d="M313.43 89.01v25.00" stroke="currentColor" fill="none"/>
<path fill="currentColor"
	d="M332.53 121.11l35.60 4.20v-3.20l-35.60 -4.20"/>
<path fill="currentColor"
	d="M332.83 116.11l34.90 4.10v-3.20l-34.90 -4.10"/>
<use x="336.33" y="92.01" xlink:href="#hd"/>
<use x="327.33" y="92.01" xlink:href="#sh0"/>
<path d="M332.83 92.01v28.10" stroke="currentColor" fill="none"/>
<use x="353.83" y="101.01" xlink:href="#hd"/>
<path d="M350.33 101.01v21.20" stroke="currentColor" fill="none"/>
<use x="371.23" y="101.01" xlink:href="#hd"/>
<path d="M367.73 101.01v23.30" stroke="currentColor" fill="none"/>
<path fill="currentColor"
	d="M386.83 120.91l35.60 0.00v-3.20l-35.60 -0.00"/>
<path fill="currentColor"
	d="M387.13 115.91l34.90 0.00v-3.20l-34.90 -0.00"/>
<use x="390.63" y="101.01" xlink:href="#hd"/>
<path d="M387.13 101.01v19.00" stroke="currentColor" fill="none"/>
<use x="408.13" y="101.01" xlink:href="#hd"/>
<path d="M404.63 101.01v19.00" stroke="currentColor" fill="none"/>
<use x="425.63" y="101.01" xlink:href="#hd"/>
<path d="M422.13 101.01v19.00" stroke="currentColor" fill="none"/>
<path fill="currentColor"
	d="M454.93 120.91l35.60 0.00v-3.20l-35.60 -0.00"/>
<path fill="currentColor"
	d="M455.23 115.91l34.90 0.00v-3.20l-34.90 -0.00"/>
<use x="458.73" y="101.01" xlink:href="#hd"/>
<path d="M455.23 101.01v19.00" stroke="currentColor" fill="none"/>
<use x="476.23" y="101.01" xlink:href="#hd"/>
<path d="M472.73 101.01v19.00" stroke="currentColor" fill="none"/>
<use x="493.63" y="101.01" xlink:href="#hd"/>
<path d="M490.13 101.01v19.00" stroke="currentColor" fill="none"/>
<path fill="currentColor"
	d="M509.23 120.91l35.60 0.00v-3.20l-35.60 -0.00"/>
<path fill="currentColor"
	d="M509.53 115.91l34.90 0.00v-3.20l-34.90 -0.00"/>
<use x="513.03" y="98.01" xlink:href="#hd"/>
<path d="M509.53 98.01v22.00" stroke="currentColor" fill="none"/>
<use x="530.53" y="101.01" xlink:href="#hd"/>
<path d="M527.03 101.01v19.00" stroke="currentColor" fill="none"/>
<use x="548.03" y="98.01" xlink:href="#hd"/>
<path d="M544.53 98.01v22.00" stroke="currentColor" fill="none"/>
<path fill="currentColor"
	d="M563.63 115.01l39.00 0.00v-3.20l-39.00 -0.00"/>
<path fill="currentColor"
	d="M563.93 110.01l38.30 0.00v-3.20l-38.30 -0.00"/>
<use x="567.43" y="92.01" xlink:href="#hd"/>
<path d="M563.93 92.01v22.00" stroke="currentColor" fill="none"/>
<use x="586.63" y="92.01" xlink:href="#hd"/>
<use x="577.63" y="92.01" xlink:href="#nt0"/>
<path d="M583.13 92.01v22.00" stroke="currentColor" fill="none"/>
<use x="605.73" y="92.01" xlink:href="#hd"/>
<use x="596.73" y="92.01" xlink:href="#nt0"/>
<path d="M602.23 92.01v22.00" stroke="currentColor" fill="none"/>
<path fill="currentColor"
	d="M635.03 109.61l37.30 4.60v-3.20l-37.30 -4.60"/>
<path fill="currentColor"
	d="M635.43 104.71l36.60 4.50v-3.20l-36.60 -4.50"/>
<use x="638.93" y="89.01" xlink:href="#hl"/>
<use x="638.93" y="86.01" xlink:href="#hd"/>
<path d="M635.43 86.01v22.70" stroke="currentColor" fill="none"/>
<use x="656.33" y="89.01" xlink:href="#hl"/>
<use x="656.33" y="89.01" xlink:href="#hd"/>
<path d="M652.83 89.01v21.80" stroke="currentColor" fill="none"/>
<use x="675.53" y="92.01" xlink:href="#hd"/>
<use x="666.53" y="92.01" xlink:href="#nt0"/>
<path d="M672.03 92.01v21.20" stroke="currentColor" fill="none"/>
</g>
</svg>
