<?xml version="1.0" standalone="no"?>
<!DOCTYPE svg PUBLIC "-//W3C//DTD SVG 1.1//EN"
	"http://www.w3.org/Graphics/SVG/1.1/DTD/svg11.dtd">
<svg xmlns="http://www.w3.org/2000/svg" version="1.1"
	xmlns:xlink="http://www.w3.org/1999/xlink"
	xml:space='preserve' color="black"
	width="7.38in" height="1.34in" viewBox="0 0 531 97">
<title>3676.abc (3676) tune 1</title>
<!-- Creator: abcm2ps-7.8.14 -->
<!-- CreationDate: Mar 13, 2016 18:54 -->
<!-- CommandLine: -qxg 3676.abc -O ../svgs/3676.svg -->
<g transform="scale(0.750)" stroke-width="0.70" font-family="Times" font-size="20.00">
<text x="354.13" y="21.67" text-anchor="middle">3676.  Symphony No. 2, in C Minor, &quot;Urlicht&quot; from Des Knaben Wunderhorn, 4th. Mvt. - 2nd. Theme</text>
</g>
<g transform="scale(0.750)" stroke-width="0.70" font-family="Times" font-size="14.00" font-style="italic">
<text x="694.93" y="45.34" text-anchor="end">Gustav Mahler</text>
</g>
<g transform="scale(0.525)" stroke-width="0.70" font-family="Times" font-size="14.00" font-style="italic">
<defs>
<ellipse id="hd" rx="4.1" ry="2.9"
	transform="rotate(-20)" fill="currentColor"/>
</defs>
<use x="138.47" y="94.16" xlink:href="#hd"/>
<path d="M141.97 94.16v-20.00" stroke="currentColor" fill="none"/>
</g>
<g transform="scale(0.750)" stroke-width="0.70" font-family="Times" font-size="15.00" font-weight="bold">
<text x="104.63" y="68.01">= 120</text>
<path stroke="currentColor" fill="none"
	d="M283.83 106.01v-24.00"/>
<path stroke="currentColor" fill="none"
	d="M498.83 106.01v-24.00"/>
<path stroke="currentColor" fill="none"
	d="M13.33 106.01h485.50m-485.50 -6h485.50m-485.50 -6h485.50m-485.50 -6h485.50m-485.50 -6h485.50"/>
<defs>
<path id="utclef" fill="currentColor" d="m-50 -90
	c-72 -41 -72 -158 52 -188
	c150 -10 220 188 90 256
	c-114 52 -275 0 -293 -136
	c-15 -181 93 -229 220 -334
	c88 -87 79 -133 62 -210
	c-51 33 -94 105 -89 186
	c17 267 36 374 49 574
	c6 96 -19 134 -77 135
	c-80 1 -126 -93 -61 -133
	c85 -41 133 101 31 105
	c23 17 92 37 90 -92
	c-10 -223 -39 -342 -50 -617
	c0 -90 0 -162 96 -232
	c56 72 63 230 22 289
	c-74 106 -257 168 -255 316
	c9 153 148 185 252 133
	c86 -65 29 -192 -80 -176
	c-71 12 -105 67 -59 124"/>
<use id="tclef" transform="scale(0.045)"
	xlink:href="#utclef"/>
</defs>
<use x="25.33" y="106.01" xlink:href="#tclef"/>
<defs>
<path id="uflat" fill="currentColor" d="
	m100 -746
	h32
	v734
	l-32 4
	m32 -332
	c46 -72 152 -90 208 -20
	c100 110 -120 326 -208 348
	m0 -28
	c54 0 200 -206 130 -290
	c-50 -60 -130 -4 -130 34"/>
<use id="ft0" transform="translate(-3.5,3.5) scale(0.018)"
	xlink:href="#uflat"/>
</defs>
<use x="40.33" y="94.01" xlink:href="#ft0"/>
<use x="45.83" y="85.01" xlink:href="#ft0"/>
<use x="51.33" y="97.01" xlink:href="#ft0"/>
<use x="56.83" y="88.01" xlink:href="#ft0"/>
<use x="62.33" y="100.01" xlink:href="#ft0"/>
<g font-family="serif" font-size="16" font-weight="bold" font-style="normal"
	transform="translate(78.33,106.01) scale(1.2,1)">
	<text y="-1" text-anchor="middle">4</text>
	<text y="-13" text-anchor="middle">4</text>
</g>
<use x="96.33" y="82.01" xlink:href="#hd"/>
<path d="M92.83 82.01v20.00" stroke="currentColor" fill="none"/>
<use x="136.33" y="88.01" xlink:href="#hd"/>
<path d="M132.83 88.01v20.00" stroke="currentColor" fill="none"/>
<path fill="currentColor"
	d="M132.83 108.01c0.6 -5.6 9.6 -9 5.6 -18.4
	c1.6 6 -1.3 11.6 -5.6 12.8
"/>
<defs>
<path id="hl" stroke="currentColor" d="m-6 0h12"/>
</defs>
<use x="164.63" y="76.01" xlink:href="#hl"/>
<use x="164.63" y="73.01" xlink:href="#hd"/>
<path d="M161.13 73.01v21.00" stroke="currentColor" fill="none"/>
<path fill="currentColor"
	d="M161.13 94.01c0.6 -5.6 9.6 -9 5.6 -18.4
	c1.6 6 -1.3 11.6 -5.6 12.8
"/>
<use x="192.93" y="82.01" xlink:href="#hd"/>
<path d="M189.43 82.01v20.00" stroke="currentColor" fill="none"/>
<use x="232.93" y="88.01" xlink:href="#hd"/>
<path d="M229.43 88.01v20.00" stroke="currentColor" fill="none"/>
<path fill="currentColor"
	d="M229.43 108.01c0.6 -5.6 9.6 -9 5.6 -18.4
	c1.6 6 -1.3 11.6 -5.6 12.8
"/>
<use x="261.23" y="94.01" xlink:href="#hd"/>
<path d="M257.73 94.01v20.00" stroke="currentColor" fill="none"/>
<path fill="currentColor"
	d="M257.73 114.01c0.6 -5.6 9.6 -9 5.6 -18.4
	c1.6 6 -1.3 11.6 -5.6 12.8
"/>
<path fill="currentColor"
	d="M294.23 104.21l18.70 -2.30v-3.20l-18.70 2.30"/>
<path fill="currentColor"
	d="M294.53 99.21l18.00 -2.20v-3.20l-18.00 2.20"/>
<use x="298.03" y="82.01" xlink:href="#hd"/>
<path d="M294.53 82.01v21.20" stroke="currentColor" fill="none"/>
<use x="316.03" y="79.01" xlink:href="#hd"/>
<path d="M312.53 79.01v22.00" stroke="currentColor" fill="none"/>
<path fill="currentColor"
	d="M332.23 104.91l18.70 2.30v-3.20l-18.70 -2.30"/>
<path fill="currentColor"
	d="M332.53 100.01l18.00 2.20v-3.20l-18.00 -2.20"/>
<use x="336.03" y="82.01" xlink:href="#hd"/>
<path d="M332.53 82.01v22.00" stroke="currentColor" fill="none"/>
<use x="354.03" y="85.01" xlink:href="#hd"/>
<path d="M350.53 85.01v21.20" stroke="currentColor" fill="none"/>
<use x="374.03" y="88.01" xlink:href="#hd"/>
<path d="M370.53 88.01v20.00" stroke="currentColor" fill="none"/>
<path fill="currentColor"
	d="M370.53 108.01c0.6 -5.6 9.6 -9 5.6 -18.4
	c1.6 6 -1.3 11.6 -5.6 12.8
"/>
<use x="402.33" y="76.01" xlink:href="#hl"/>
<use x="402.33" y="73.01" xlink:href="#hd"/>
<path d="M398.83 73.01v21.00" stroke="currentColor" fill="none"/>
<path fill="currentColor"
	d="M398.83 94.01c0.6 -5.6 9.6 -9 5.6 -18.4
	c1.6 6 -1.3 11.6 -5.6 12.8
"/>
<use x="430.63" y="82.01" xlink:href="#hd"/>
<circle fill="currentColor" cx="438.63" cy="79.01" r="1.2"/>
<path d="M427.13 82.01v20.00" stroke="currentColor" fill="none"/>
<use x="476.13" y="94.01" xlink:href="#hd"/>
<path d="M472.63 94.01v20.00" stroke="currentColor" fill="none"/>
<path fill="currentColor"
	d="M472.63 114.01c0.6 -5.6 9.6 -9 5.6 -18.4
	c1.6 6 -1.3 11.6 -5.6 12.8
"/>
</g>
</svg>
