<?xml version="1.0" standalone="no"?>
<!DOCTYPE svg PUBLIC "-//W3C//DTD SVG 1.1//EN"
	"http://www.w3.org/Graphics/SVG/1.1/DTD/svg11.dtd">
<svg xmlns="http://www.w3.org/2000/svg" version="1.1"
	xmlns:xlink="http://www.w3.org/1999/xlink"
	xml:space='preserve' color="black"
	width="7.38in" height="1.34in" viewBox="0 0 531 97">
<title>3708.abc (3708) tune 1</title>
<!-- Creator: abcm2ps-7.8.14 -->
<!-- CreationDate: Mar 13, 2016 18:54 -->
<!-- CommandLine: -qxg 3708.abc -O ../svgs/3708.svg -->
<g transform="scale(0.750)" stroke-width="0.70" font-family="Times" font-size="20.00">
<text x="354.13" y="21.67" text-anchor="middle">3708.  Symphony No. 9, in D, 2nd. Mvt. - 5th. Theme</text>
</g>
<g transform="scale(0.750)" stroke-width="0.70" font-family="Times" font-size="14.00" font-style="italic">
<text x="694.93" y="45.34" text-anchor="end">Gustav Mahler</text>
</g>
<g transform="scale(0.525)" stroke-width="0.70" font-family="Times" font-size="14.00" font-style="italic">
<defs>
<ellipse id="hd" rx="4.1" ry="2.9"
	transform="rotate(-20)" fill="currentColor"/>
</defs>
<use x="107.04" y="94.16" xlink:href="#hd"/>
<path d="M110.54 94.16v-20.00" stroke="currentColor" fill="none"/>
</g>
<g transform="scale(0.750)" stroke-width="0.70" font-family="Times" font-size="15.00" font-weight="bold">
<text x="82.63" y="68.01">= 120</text>
<path stroke="currentColor" fill="none"
	d="M110.63 106.01v-24.00"/>
<path stroke="currentColor" fill="none"
	d="M159.43 106.01v-24.00"/>
<path stroke="currentColor" fill="none"
	d="M225.33 106.01v-24.00"/>
<path stroke="currentColor" fill="none"
	d="M297.23 106.01v-24.00"/>
<path stroke="currentColor" fill="none"
	d="M346.13 106.01v-24.00"/>
<path stroke="currentColor" fill="none"
	d="M394.93 106.01v-24.00"/>
<path stroke="currentColor" fill="none"
	d="M543.23 106.01v-24.00"/>
<path stroke="currentColor" fill="none"
	d="M694.93 106.01v-24.00"/>
<path stroke="currentColor" fill="none"
	d="M13.33 106.01h681.60m-681.60 -6h681.60m-681.60 -6h681.60m-681.60 -6h681.60m-681.60 -6h681.60"/>
<defs>
<path id="utclef" fill="currentColor" d="m-50 -90
	c-72 -41 -72 -158 52 -188
	c150 -10 220 188 90 256
	c-114 52 -275 0 -293 -136
	c-15 -181 93 -229 220 -334
	c88 -87 79 -133 62 -210
	c-51 33 -94 105 -89 186
	c17 267 36 374 49 574
	c6 96 -19 134 -77 135
	c-80 1 -126 -93 -61 -133
	c85 -41 133 101 31 105
	c23 17 92 37 90 -92
	c-10 -223 -39 -342 -50 -617
	c0 -90 0 -162 96 -232
	c56 72 63 230 22 289
	c-74 106 -257 168 -255 316
	c9 153 148 185 252 133
	c86 -65 29 -192 -80 -176
	c-71 12 -105 67 -59 124"/>
<use id="tclef" transform="scale(0.045)"
	xlink:href="#utclef"/>
</defs>
<use x="25.33" y="106.01" xlink:href="#tclef"/>
<defs>
<path id="uflat" fill="currentColor" d="
	m100 -746
	h32
	v734
	l-32 4
	m32 -332
	c46 -72 152 -90 208 -20
	c100 110 -120 326 -208 348
	m0 -28
	c54 0 200 -206 130 -290
	c-50 -60 -130 -4 -130 34"/>
<use id="ft0" transform="translate(-3.5,3.5) scale(0.018)"
	xlink:href="#uflat"/>
</defs>
<use x="40.33" y="94.01" xlink:href="#ft0"/>
<g font-family="serif" font-size="16" font-weight="bold" font-style="normal"
	transform="translate(56.33,106.01) scale(1.2,1)">
	<text y="-1" text-anchor="middle">4</text>
	<text y="-13" text-anchor="middle">3</text>
</g>
<use x="74.33" y="97.01" xlink:href="#hd"/>
<path d="M77.83 97.01v-20.00" stroke="currentColor" fill="none"/>
<defs>
<path id="Hd" fill="currentColor" d="m3 -1.6
	c-1 -1.8 -7 1.4 -6 3.2
	c1 1.8 7 -1.4 6 -3.2
	m0.5 -0.3
	c2 3.8 -5 7.6 -7 3.8
	c-2 -3.8 5 -7.6 7 -3.8"/>
</defs>
<use x="91.53" y="100.01" xlink:href="#Hd"/>
<path d="M95.03 100.01v-20.00" stroke="currentColor" fill="none"/>
<use x="123.13" y="97.01" xlink:href="#hd"/>
<path d="M126.63 97.01v-20.00" stroke="currentColor" fill="none"/>
<use x="140.33" y="100.01" xlink:href="#Hd"/>
<path d="M143.83 100.01v-20.00" stroke="currentColor" fill="none"/>
<use x="171.93" y="94.01" xlink:href="#hd"/>
<circle fill="currentColor" cx="179.93" cy="91.01" r="1.2"/>
<path d="M175.43 94.01v-20.00" stroke="currentColor" fill="none"/>
<use x="194.13" y="97.01" xlink:href="#hd"/>
<path d="M197.63 97.01v-20.00" stroke="currentColor" fill="none"/>
<path fill="currentColor"
	d="	M197.63 77.01c0.6 5.6 9.6 9 5.6 18.4
	c1.6 -6 -1.3 -11.6 -5.6 -12.8
"/>
<use x="210.73" y="97.01" xlink:href="#hd"/>
<path d="M214.23 97.01v-20.00" stroke="currentColor" fill="none"/>
<use x="237.83" y="94.01" xlink:href="#hd"/>
<circle fill="currentColor" cx="245.83" cy="91.01" r="1.2"/>
<path d="M241.33 94.01v-20.00" stroke="currentColor" fill="none"/>
<path fill="currentColor"
	d="M257.23 118.91l25.30 -5.30v-3.20l-25.30 5.30"/>
<use x="261.13" y="97.01" xlink:href="#hd"/>
<path d="M257.63 97.01v20.80" stroke="currentColor" fill="none"/>
<use x="273.43" y="97.01" xlink:href="#hd"/>
<path d="M269.93 97.01v18.20" stroke="currentColor" fill="none"/>
<use x="285.63" y="82.01" xlink:href="#hd"/>
<path d="M282.13 82.01v30.60" stroke="currentColor" fill="none"/>
<use x="309.73" y="82.01" xlink:href="#hd"/>
<path d="M306.23 82.01v20.00" stroke="currentColor" fill="none"/>
<use x="326.93" y="85.01" xlink:href="#Hd"/>
<path d="M323.43 85.01v20.00" stroke="currentColor" fill="none"/>
<use x="358.63" y="85.01" xlink:href="#hd"/>
<path d="M355.13 85.01v20.00" stroke="currentColor" fill="none"/>
<use x="375.83" y="88.01" xlink:href="#Hd"/>
<path d="M372.33 88.01v20.00" stroke="currentColor" fill="none"/>
<path fill="currentColor"
	d="M403.53 113.01l45.70 0.00v-3.20l-45.70 -0.00"/>
<path fill="currentColor"
	d="M403.93 108.01l45.00 0.00v-3.20l-45.00 -0.00"/>
<path fill="currentColor"
	d="M403.93 103.01l45.00 0.00v-3.20l-45.00 -0.00"/>
<use x="407.43" y="88.01" xlink:href="#hd"/>
<path d="M403.93 88.01v24.00" stroke="currentColor" fill="none"/>
<use x="416.43" y="85.01" xlink:href="#hd"/>
<path d="M412.93 85.01v27.00" stroke="currentColor" fill="none"/>
<use x="425.43" y="88.01" xlink:href="#hd"/>
<path d="M421.93 88.01v24.00" stroke="currentColor" fill="none"/>
<use x="434.43" y="85.01" xlink:href="#hd"/>
<path d="M430.93 85.01v27.00" stroke="currentColor" fill="none"/>
<use x="443.43" y="88.01" xlink:href="#hd"/>
<path d="M439.93 88.01v24.00" stroke="currentColor" fill="none"/>
<use x="452.43" y="85.01" xlink:href="#hd"/>
<path d="M448.93 85.01v27.00" stroke="currentColor" fill="none"/>
<path fill="currentColor"
	d="M457.53 113.01l45.70 0.00v-3.20l-45.70 -0.00"/>
<path fill="currentColor"
	d="M457.93 108.01l45.00 0.00v-3.20l-45.00 -0.00"/>
<path fill="currentColor"
	d="M457.93 103.01l45.00 0.00v-3.20l-45.00 -0.00"/>
<use x="461.43" y="88.01" xlink:href="#hd"/>
<path d="M457.93 88.01v24.00" stroke="currentColor" fill="none"/>
<use x="470.43" y="85.01" xlink:href="#hd"/>
<path d="M466.93 85.01v27.00" stroke="currentColor" fill="none"/>
<use x="479.43" y="88.01" xlink:href="#hd"/>
<path d="M475.93 88.01v24.00" stroke="currentColor" fill="none"/>
<use x="488.43" y="85.01" xlink:href="#hd"/>
<path d="M484.93 85.01v27.00" stroke="currentColor" fill="none"/>
<use x="497.43" y="88.01" xlink:href="#hd"/>
<path d="M493.93 88.01v24.00" stroke="currentColor" fill="none"/>
<use x="506.43" y="85.01" xlink:href="#hd"/>
<path d="M502.93 85.01v27.00" stroke="currentColor" fill="none"/>
<use x="515.43" y="91.01" xlink:href="#hd"/>
<path d="M511.93 91.01v20.00" stroke="currentColor" fill="none"/>
<path fill="currentColor"
	d="M511.93 111.01c0.6 -5.6 9.6 -9 5.6 -18.4
	c1.6 6 -1.3 11.6 -5.6 12.8
"/>
<use x="528.63" y="91.01" xlink:href="#hd"/>
<path d="M525.13 91.01v20.00" stroke="currentColor" fill="none"/>
<path fill="currentColor"
	d="M551.83 118.91l45.70 0.00v-3.20l-45.70 -0.00"/>
<path fill="currentColor"
	d="M552.23 113.91l45.00 0.00v-3.20l-45.00 -0.00"/>
<path fill="currentColor"
	d="M552.23 108.91l45.00 0.00v-3.20l-45.00 -0.00"/>
<use x="555.73" y="94.01" xlink:href="#hd"/>
<path d="M552.23 94.01v24.00" stroke="currentColor" fill="none"/>
<use x="564.73" y="91.01" xlink:href="#hd"/>
<path d="M561.23 91.01v27.00" stroke="currentColor" fill="none"/>
<use x="573.73" y="94.01" xlink:href="#hd"/>
<path d="M570.23 94.01v24.00" stroke="currentColor" fill="none"/>
<use x="582.73" y="91.01" xlink:href="#hd"/>
<path d="M579.23 91.01v27.00" stroke="currentColor" fill="none"/>
<use x="591.73" y="94.01" xlink:href="#hd"/>
<path d="M588.23 94.01v24.00" stroke="currentColor" fill="none"/>
<use x="600.73" y="91.01" xlink:href="#hd"/>
<path d="M597.23 91.01v27.00" stroke="currentColor" fill="none"/>
<path fill="currentColor"
	d="M605.83 118.91l45.70 0.00v-3.20l-45.70 -0.00"/>
<path fill="currentColor"
	d="M606.23 113.91l45.00 0.00v-3.20l-45.00 -0.00"/>
<path fill="currentColor"
	d="M606.23 108.91l45.00 0.00v-3.20l-45.00 -0.00"/>
<use x="609.73" y="94.01" xlink:href="#hd"/>
<path d="M606.23 94.01v24.00" stroke="currentColor" fill="none"/>
<use x="618.73" y="91.01" xlink:href="#hd"/>
<path d="M615.23 91.01v27.00" stroke="currentColor" fill="none"/>
<use x="627.73" y="94.01" xlink:href="#hd"/>
<path d="M624.23 94.01v24.00" stroke="currentColor" fill="none"/>
<use x="636.73" y="91.01" xlink:href="#hd"/>
<path d="M633.23 91.01v27.00" stroke="currentColor" fill="none"/>
<use x="645.73" y="94.01" xlink:href="#hd"/>
<path d="M642.23 94.01v24.00" stroke="currentColor" fill="none"/>
<use x="654.73" y="91.01" xlink:href="#hd"/>
<path d="M651.23 91.01v27.00" stroke="currentColor" fill="none"/>
<use x="663.73" y="97.01" xlink:href="#hd"/>
<path d="M667.23 97.01v-20.00" stroke="currentColor" fill="none"/>
<path fill="currentColor"
	d="	M667.23 77.01c0.6 5.6 9.6 9 5.6 18.4
	c1.6 -6 -1.3 -11.6 -5.6 -12.8
"/>
<use x="680.33" y="97.01" xlink:href="#hd"/>
<path d="M683.83 97.01v-20.00" stroke="currentColor" fill="none"/>
</g>
</svg>
