<?xml version="1.0" standalone="no"?>
<!DOCTYPE svg PUBLIC "-//W3C//DTD SVG 1.1//EN"
	"http://www.w3.org/Graphics/SVG/1.1/DTD/svg11.dtd">
<svg xmlns="http://www.w3.org/2000/svg" version="1.1"
	xmlns:xlink="http://www.w3.org/1999/xlink"
	xml:space='preserve' color="black"
	width="7.38in" height="1.34in" viewBox="0 0 531 97">
<title>3709.abc (3709) tune 1</title>
<!-- Creator: abcm2ps-7.8.14 -->
<!-- CreationDate: Mar 13, 2016 18:54 -->
<!-- CommandLine: -qxg 3709.abc -O ../svgs/3709.svg -->
<g transform="scale(0.750)" stroke-width="0.70" font-family="Times" font-size="20.00">
<text x="354.13" y="21.67" text-anchor="middle">3709.  Symphony No. 9, in D, 3rd. Mvt. - 1st. Theme</text>
</g>
<g transform="scale(0.750)" stroke-width="0.70" font-family="Times" font-size="14.00" font-style="italic">
<text x="694.93" y="45.34" text-anchor="end">Gustav Mahler</text>
</g>
<g transform="scale(0.525)" stroke-width="0.70" font-family="Times" font-size="14.00" font-style="italic">
<defs>
<ellipse id="hd" rx="4.1" ry="2.9"
	transform="rotate(-20)" fill="currentColor"/>
</defs>
<use x="97.76" y="94.16" xlink:href="#hd"/>
<path d="M101.26 94.16v-20.00" stroke="currentColor" fill="none"/>
</g>
<g transform="scale(0.750)" stroke-width="0.70" font-family="Times" font-size="15.00" font-weight="bold">
<text x="76.13" y="68.01">= 120</text>
<path stroke="currentColor" fill="none"
	d="M155.33 106.01v-24.00"/>
<path stroke="currentColor" fill="none"
	d="M320.03 106.01v-24.00"/>
<path stroke="currentColor" fill="none"
	d="M486.73 106.01v-24.00"/>
<path stroke="currentColor" fill="none"
	d="M631.53 106.01v-24.00"/>
<path stroke="currentColor" fill="none"
	d="M13.33 106.01h681.60m-681.60 -6h681.60m-681.60 -6h681.60m-681.60 -6h681.60m-681.60 -6h681.60"/>
<defs>
<path id="utclef" fill="currentColor" d="m-50 -90
	c-72 -41 -72 -158 52 -188
	c150 -10 220 188 90 256
	c-114 52 -275 0 -293 -136
	c-15 -181 93 -229 220 -334
	c88 -87 79 -133 62 -210
	c-51 33 -94 105 -89 186
	c17 267 36 374 49 574
	c6 96 -19 134 -77 135
	c-80 1 -126 -93 -61 -133
	c85 -41 133 101 31 105
	c23 17 92 37 90 -92
	c-10 -223 -39 -342 -50 -617
	c0 -90 0 -162 96 -232
	c56 72 63 230 22 289
	c-74 106 -257 168 -255 316
	c9 153 148 185 252 133
	c86 -65 29 -192 -80 -176
	c-71 12 -105 67 -59 124"/>
<use id="tclef" transform="scale(0.045)"
	xlink:href="#utclef"/>
</defs>
<use x="25.33" y="106.01" xlink:href="#tclef"/>
<g font-family="serif" font-size="16" font-weight="bold" font-style="normal"
	transform="translate(43.83,106.01) scale(1.2,1)">
	<text y="-1" text-anchor="middle">2</text>
	<text y="-13" text-anchor="middle">2</text>
</g>
<use x="67.83" y="109.01" xlink:href="#hd"/>
<defs>
<path id="usharp" fill="currentColor" d="
	m136 -702
	v890
	h32
	v-890
	m128 840
	h32
	v-888
	h-32
	m-232 286
	v116
	l338 -96
	v-116
	m-338 442
	v116
	l338 -98
	v-114"/>
<use id="sh0" transform="translate(-4,5) scale(0.018)"
	xlink:href="#usharp"/>
</defs>
<use x="58.83" y="109.01" xlink:href="#sh0"/>
<path d="M71.33 109.01v-20.00" stroke="currentColor" fill="none"/>
<path fill="currentColor"
	d="	M71.33 89.01c0.6 5.6 9.6 9 5.6 18.4
	c1.6 -6 -1.3 -11.6 -5.6 -12.8
"/>
<use x="91.03" y="106.01" xlink:href="#hd"/>
<path d="M94.53 106.01v-20.00" stroke="currentColor" fill="none"/>
<path fill="currentColor"
	d="	M94.53 86.01c0.6 5.6 9.6 9 5.6 18.4
	c1.6 -6 -1.3 -11.6 -5.6 -12.8
"/>
<defs>
<path id="hl" stroke="currentColor" d="m-6 0h12"/>
</defs>
<use x="114.23" y="112.01" xlink:href="#hl"/>
<use x="114.23" y="118.01" xlink:href="#hl"/>
<defs>
<path id="Hd" fill="currentColor" d="m3 -1.6
	c-1 -1.8 -7 1.4 -6 3.2
	c1 1.8 7 -1.4 6 -3.2
	m0.5 -0.3
	c2 3.8 -5 7.6 -7 3.8
	c-2 -3.8 5 -7.6 7 -3.8"/>
</defs>
<use x="114.23" y="118.01" xlink:href="#Hd"/>
<circle fill="currentColor" cx="123.23" cy="115.01" r="1.2"/>
<path d="M117.73 118.01v-24.00" stroke="currentColor" fill="none"/>
<use x="167.83" y="112.01" xlink:href="#hl"/>
<use x="167.83" y="115.01" xlink:href="#hd"/>
<path d="M171.33 115.01v-21.00" stroke="currentColor" fill="none"/>
<path fill="currentColor"
	d="	M171.33 94.01c0.6 5.6 9.6 9 5.6 18.4
	c1.6 -6 -1.3 -11.6 -5.6 -12.8
"/>
<use x="191.13" y="112.01" xlink:href="#hl"/>
<use x="191.13" y="112.01" xlink:href="#hd"/>
<path d="M194.63 112.01v-20.00" stroke="currentColor" fill="none"/>
<path fill="currentColor"
	d="	M194.63 92.01c0.6 5.6 9.6 9 5.6 18.4
	c1.6 -6 -1.3 -11.6 -5.6 -12.8
"/>
<use x="216.63" y="109.01" xlink:href="#hd"/>
<defs>
<path id="unat" fill="currentColor" d="
	m96 -750
	h-32
	v716
	l32 -8
	l182 -54
	v282
	h32
	v-706
	l-34 10
	l-180 50
	v-290
	m0 592
	v-190
	l182 -52
	v188"/>
<use id="nt0" transform="translate(-3,5) scale(0.018)"
	xlink:href="#unat"/>
</defs>
<use x="207.63" y="109.01" xlink:href="#nt0"/>
<path d="M220.13 109.01v-20.00" stroke="currentColor" fill="none"/>
<path fill="currentColor"
	d="	M220.13 89.01c0.6 5.6 9.6 9 5.6 18.4
	c1.6 -6 -1.3 -11.6 -5.6 -12.8
"/>
<use x="239.83" y="112.01" xlink:href="#hl"/>
<use x="239.83" y="112.01" xlink:href="#hd"/>
<path d="M243.33 112.01v-20.00" stroke="currentColor" fill="none"/>
<path fill="currentColor"
	d="	M243.33 92.01c0.6 5.6 9.6 9 5.6 18.4
	c1.6 -6 -1.3 -11.6 -5.6 -12.8
"/>
<use x="263.13" y="112.01" xlink:href="#hl"/>
<use x="263.13" y="115.01" xlink:href="#hd"/>
<path d="M266.63 115.01v-21.00" stroke="currentColor" fill="none"/>
<defs>
<path id="r4" fill="currentColor" d="m-1 -8.5
	l3.6 5.1 -2.1 5.2 2.2 4.3
	c-2.6 -2.3 -5.1 0 -2.4 2.6
	c-4.8 -3 -1.5 -6.9 1.4 -4.1
	l-3.1 -4.5 1.9 -5.1 -1.5 -3.5"/>
</defs>
<use x="294.63" y="94.01" xlink:href="#r4"/>
<use x="332.53" y="112.01" xlink:href="#hl"/>
<use x="332.53" y="112.01" xlink:href="#hd"/>
<path d="M336.03 112.01v-20.00" stroke="currentColor" fill="none"/>
<path fill="currentColor"
	d="	M336.03 92.01c0.6 5.6 9.6 9 5.6 18.4
	c1.6 -6 -1.3 -11.6 -5.6 -12.8
"/>
<use x="355.63" y="106.01" xlink:href="#hd"/>
<path d="M359.13 106.01v-20.00" stroke="currentColor" fill="none"/>
<path fill="currentColor"
	d="	M359.13 86.01c0.6 5.6 9.6 9 5.6 18.4
	c1.6 -6 -1.3 -11.6 -5.6 -12.8
"/>
<use x="381.13" y="100.01" xlink:href="#hd"/>
<use x="372.13" y="100.01" xlink:href="#sh0"/>
<path d="M384.63 100.01v-20.00" stroke="currentColor" fill="none"/>
<use x="412.63" y="94.01" xlink:href="#hd"/>
<path d="M416.13 94.01v-20.00" stroke="currentColor" fill="none"/>
<path fill="currentColor"
	d="	M416.13 74.01c0.6 5.6 9.6 9 5.6 18.4
	c1.6 -6 -1.3 -11.6 -5.6 -12.8
"/>
<use x="438.13" y="100.01" xlink:href="#hd"/>
<use x="429.13" y="100.01" xlink:href="#sh0"/>
<path d="M441.63 100.01v-20.00" stroke="currentColor" fill="none"/>
<path fill="currentColor"
	d="	M441.63 80.01c0.6 5.6 9.6 9 5.6 18.4
	c1.6 -6 -1.3 -11.6 -5.6 -12.8
"/>
<use x="461.33" y="103.01" xlink:href="#hd"/>
<path d="M464.83 103.01v-20.00" stroke="currentColor" fill="none"/>
<use x="505.23" y="100.01" xlink:href="#hd"/>
<use x="496.23" y="100.01" xlink:href="#sh0"/>
<path d="M508.73 100.01v-20.00" stroke="currentColor" fill="none"/>
<path fill="currentColor"
	d="	M508.73 80.01c0.6 5.6 9.6 9 5.6 18.4
	c1.6 -6 -1.3 -11.6 -5.6 -12.8
"/>
<use x="528.43" y="103.01" xlink:href="#hd"/>
<path d="M531.93 103.01v-20.00" stroke="currentColor" fill="none"/>
<path fill="currentColor"
	d="	M531.93 83.01c0.6 5.6 9.6 9 5.6 18.4
	c1.6 -6 -1.3 -11.6 -5.6 -12.8
"/>
<use x="551.63" y="106.01" xlink:href="#Hd"/>
<path d="M555.13 106.01v-20.00" stroke="currentColor" fill="none"/>
<defs>
<path id="r8e" fill="currentColor" d="m 0 0
	c-1.5 1.5 -2.4 2 -3.6 2
	c2.4 -2.8 -2.8 -4 -2.8 -1.2
	c0 2.7 4.3 2.4 5.9 0.6"/>
<g id="r8">
	<path d="m3.3 -4l-3.4 9.6" stroke="currentColor" fill="none"/>
	<use x="3.4" y="-4" xlink:href="#r8e"/>
</g>
</defs>
<use x="591.53" y="94.01" xlink:href="#r8"/>
<use x="612.63" y="103.01" xlink:href="#hd"/>
<use x="603.63" y="103.01" xlink:href="#sh0"/>
<path d="M616.13 103.01v-20.00" stroke="currentColor" fill="none"/>
<path fill="currentColor"
	d="	M616.13 83.01c0.6 5.6 9.6 9 5.6 18.4
	c1.6 -6 -1.3 -11.6 -5.6 -12.8
"/>
<use x="650.03" y="100.01" xlink:href="#hd"/>
<use x="641.03" y="100.01" xlink:href="#sh0"/>
<path d="M653.53 100.01v-20.00" stroke="currentColor" fill="none"/>
<path fill="currentColor"
	d="	M653.53 80.01c0.6 5.6 9.6 9 5.6 18.4
	c1.6 -6 -1.3 -11.6 -5.6 -12.8
"/>
<use x="673.23" y="97.01" xlink:href="#hd"/>
<path d="M676.73 97.01v-20.00" stroke="currentColor" fill="none"/>
<path fill="currentColor"
	d="	M676.73 77.01c0.6 5.6 9.6 9 5.6 18.4
	c1.6 -6 -1.3 -11.6 -5.6 -12.8
"/>
</g>
</svg>
