<?xml version="1.0" standalone="no"?>
<!DOCTYPE svg PUBLIC "-//W3C//DTD SVG 1.1//EN"
	"http://www.w3.org/Graphics/SVG/1.1/DTD/svg11.dtd">
<svg xmlns="http://www.w3.org/2000/svg" version="1.1"
	xmlns:xlink="http://www.w3.org/1999/xlink"
	xml:space='preserve' color="black"
	width="7.38in" height="1.34in" viewBox="0 0 531 97">
<title>3710.abc (3710) tune 1</title>
<!-- Creator: abcm2ps-7.8.14 -->
<!-- CreationDate: Mar 13, 2016 18:54 -->
<!-- CommandLine: -qxg 3710.abc -O ../svgs/3710.svg -->
<g transform="scale(0.750)" stroke-width="0.70" font-family="Times" font-size="20.00">
<text x="354.13" y="21.67" text-anchor="middle">3710.  Symphony No. 9, in D, 3rd. Mvt. - 2nd. Theme</text>
</g>
<g transform="scale(0.750)" stroke-width="0.70" font-family="Times" font-size="14.00" font-style="italic">
<text x="694.93" y="45.34" text-anchor="end">Gustav Mahler</text>
</g>
<g transform="scale(0.525)" stroke-width="0.70" font-family="Times" font-size="14.00" font-style="italic">
<defs>
<ellipse id="hd" rx="4.1" ry="2.9"
	transform="rotate(-20)" fill="currentColor"/>
</defs>
<use x="89.19" y="94.16" xlink:href="#hd"/>
<path d="M92.69 94.16v-20.00" stroke="currentColor" fill="none"/>
</g>
<g transform="scale(0.750)" stroke-width="0.70" font-family="Times" font-size="15.00" font-weight="bold">
<text x="70.13" y="68.01">= 120</text>
<path stroke="currentColor" fill="none"
	d="M170.63 106.01v-24.00"/>
<path stroke="currentColor" fill="none"
	d="M300.33 106.01v-24.00"/>
<path stroke="currentColor" fill="none"
	d="M410.13 106.01v-24.00"/>
<path stroke="currentColor" fill="none"
	d="M500.73 106.01v-24.00"/>
<path stroke="currentColor" fill="none"
	d="M648.33 106.01v-24.00"/>
<path stroke="currentColor" fill="none"
	d="M13.33 106.01h681.60m-681.60 -6h681.60m-681.60 -6h681.60m-681.60 -6h681.60m-681.60 -6h681.60"/>
<defs>
<path id="utclef" fill="currentColor" d="m-50 -90
	c-72 -41 -72 -158 52 -188
	c150 -10 220 188 90 256
	c-114 52 -275 0 -293 -136
	c-15 -181 93 -229 220 -334
	c88 -87 79 -133 62 -210
	c-51 33 -94 105 -89 186
	c17 267 36 374 49 574
	c6 96 -19 134 -77 135
	c-80 1 -126 -93 -61 -133
	c85 -41 133 101 31 105
	c23 17 92 37 90 -92
	c-10 -223 -39 -342 -50 -617
	c0 -90 0 -162 96 -232
	c56 72 63 230 22 289
	c-74 106 -257 168 -255 316
	c9 153 148 185 252 133
	c86 -65 29 -192 -80 -176
	c-71 12 -105 67 -59 124"/>
<use id="tclef" transform="scale(0.045)"
	xlink:href="#utclef"/>
</defs>
<use x="25.33" y="106.01" xlink:href="#tclef"/>
<g font-family="serif" font-size="16" font-weight="bold" font-style="normal"
	transform="translate(43.83,106.01) scale(1.2,1)">
	<text y="-1" text-anchor="middle">2</text>
	<text y="-13" text-anchor="middle">2</text>
</g>
<defs>
<path id="hl" stroke="currentColor" d="m-6 0h12"/>
</defs>
<use x="61.83" y="112.01" xlink:href="#hl"/>
<use x="61.83" y="118.01" xlink:href="#hl"/>
<use x="61.83" y="118.01" xlink:href="#hd"/>
<path d="M65.33 118.01v-24.00" stroke="currentColor" fill="none"/>
<path fill="currentColor"
	d="	M65.33 94.01c0.6 5.6 9.6 9 5.6 18.4
	c1.6 -6 -1.3 -11.6 -5.6 -12.8
"/>
<use x="80.93" y="112.01" xlink:href="#hl"/>
<use x="80.93" y="112.01" xlink:href="#hd"/>
<path d="M84.43 112.01v-20.00" stroke="currentColor" fill="none"/>
<path fill="currentColor"
	d="	M84.43 92.01c0.6 5.6 9.6 9 5.6 18.4
	c1.6 -6 -1.3 -11.6 -5.6 -12.8
"/>
<use x="99.73" y="106.01" xlink:href="#hd"/>
<path d="M103.23 106.01v-20.00" stroke="currentColor" fill="none"/>
<path fill="currentColor"
	d="	M103.23 86.01c0.6 5.6 9.6 9 5.6 18.4
	c1.6 -6 -1.3 -11.6 -5.6 -12.8
"/>
<defs>
<path id="Hd" fill="currentColor" d="m3 -1.6
	c-1 -1.8 -7 1.4 -6 3.2
	c1 1.8 7 -1.4 6 -3.2
	m0.5 -0.3
	c2 3.8 -5 7.6 -7 3.8
	c-2 -3.8 5 -7.6 7 -3.8"/>
</defs>
<use x="118.63" y="103.01" xlink:href="#Hd"/>
<path d="M122.13 103.01v-20.00" stroke="currentColor" fill="none"/>
<use x="153.63" y="100.01" xlink:href="#hd"/>
<defs>
<path id="usharp" fill="currentColor" d="
	m136 -702
	v890
	h32
	v-890
	m128 840
	h32
	v-888
	h-32
	m-232 286
	v116
	l338 -96
	v-116
	m-338 442
	v116
	l338 -98
	v-114"/>
<use id="sh0" transform="translate(-4,5) scale(0.018)"
	xlink:href="#usharp"/>
</defs>
<use x="144.63" y="100.01" xlink:href="#sh0"/>
<path d="M157.13 100.01v-20.00" stroke="currentColor" fill="none"/>
<path fill="currentColor"
	d="	M157.13 80.01c0.6 5.6 9.6 9 5.6 18.4
	c1.6 -6 -1.3 -11.6 -5.6 -12.8
"/>
<use x="189.13" y="100.01" xlink:href="#hd"/>
<circle fill="currentColor" cx="197.13" cy="97.01" r="1.2"/>
<use x="180.13" y="100.01" xlink:href="#sh0"/>
<path d="M192.63 100.01v-20.00" stroke="currentColor" fill="none"/>
<use x="217.63" y="97.01" xlink:href="#hd"/>
<path d="M221.13 97.01v-20.00" stroke="currentColor" fill="none"/>
<path fill="currentColor"
	d="	M221.13 77.01c0.6 5.6 9.6 9 5.6 18.4
	c1.6 -6 -1.3 -11.6 -5.6 -12.8
"/>
<use x="243.13" y="100.01" xlink:href="#hd"/>
<use x="234.13" y="100.01" xlink:href="#sh0"/>
<path d="M246.63 100.01v-20.00" stroke="currentColor" fill="none"/>
<path fill="currentColor"
	d="	M246.63 80.01c0.6 5.6 9.6 9 5.6 18.4
	c1.6 -6 -1.3 -11.6 -5.6 -12.8
"/>
<use x="261.93" y="97.01" xlink:href="#hd"/>
<path d="M265.43 97.01v-20.00" stroke="currentColor" fill="none"/>
<path fill="currentColor"
	d="	M265.43 77.01c0.6 5.6 9.6 9 5.6 18.4
	c1.6 -6 -1.3 -11.6 -5.6 -12.8
"/>
<defs>
<path id="r4" fill="currentColor" d="m-1 -8.5
	l3.6 5.1 -2.1 5.2 2.2 4.3
	c-2.6 -2.3 -5.1 0 -2.4 2.6
	c-4.8 -3 -1.5 -6.9 1.4 -4.1
	l-3.1 -4.5 1.9 -5.1 -1.5 -3.5"/>
</defs>
<use x="280.73" y="94.01" xlink:href="#r4"/>
<defs>
<path id="r8e" fill="currentColor" d="m 0 0
	c-1.5 1.5 -2.4 2 -3.6 2
	c2.4 -2.8 -2.8 -4 -2.8 -1.2
	c0 2.7 4.3 2.4 5.9 0.6"/>
<g id="r8">
	<path d="m3.3 -4l-3.4 9.6" stroke="currentColor" fill="none"/>
	<use x="3.4" y="-4" xlink:href="#r8e"/>
</g>
</defs>
<use x="312.83" y="94.01" xlink:href="#r8"/>
<use x="328.73" y="97.01" xlink:href="#hd"/>
<path d="M332.23 97.01v-20.00" stroke="currentColor" fill="none"/>
<path fill="currentColor"
	d="	M332.23 77.01c0.6 5.6 9.6 9 5.6 18.4
	c1.6 -6 -1.3 -11.6 -5.6 -12.8
"/>
<use x="345.93" y="94.01" xlink:href="#r8"/>
<use x="361.93" y="94.01" xlink:href="#Hd"/>
<path d="M365.43 94.01v-20.00" stroke="currentColor" fill="none"/>
<use x="395.73" y="91.01" xlink:href="#hd"/>
<path d="M392.23 91.01v20.00" stroke="currentColor" fill="none"/>
<path fill="currentColor"
	d="M392.23 111.01c0.6 -5.6 9.6 -9 5.6 -18.4
	c1.6 6 -1.3 11.6 -5.6 12.8
"/>
<use x="422.63" y="91.01" xlink:href="#hd"/>
<circle fill="currentColor" cx="430.63" cy="91.01" r="1.2"/>
<path d="M419.13 91.01v20.00" stroke="currentColor" fill="none"/>
<use x="451.23" y="88.01" xlink:href="#Hd"/>
<path d="M447.73 88.01v20.00" stroke="currentColor" fill="none"/>
<use x="486.33" y="88.01" xlink:href="#hd"/>
<path d="M482.83 88.01v20.00" stroke="currentColor" fill="none"/>
<path fill="currentColor"
	d="M482.83 108.01c0.6 -5.6 9.6 -9 5.6 -18.4
	c1.6 6 -1.3 11.6 -5.6 12.8
"/>
<use x="513.23" y="88.01" xlink:href="#hd"/>
<path d="M509.73 88.01v20.00" stroke="currentColor" fill="none"/>
<path fill="currentColor"
	d="M509.73 108.01c0.6 -5.6 9.6 -9 5.6 -18.4
	c1.6 6 -1.3 11.6 -5.6 12.8
"/>
<use x="530.63" y="88.01" xlink:href="#hd"/>
<path d="M527.13 88.01v20.00" stroke="currentColor" fill="none"/>
<path fill="currentColor"
	d="M527.13 108.01c0.6 -5.6 9.6 -9 5.6 -18.4
	c1.6 6 -1.3 11.6 -5.6 12.8
"/>
<use x="546.53" y="94.01" xlink:href="#r8"/>
<use x="564.03" y="82.01" xlink:href="#hd"/>
<path d="M560.53 82.01v20.00" stroke="currentColor" fill="none"/>
<path fill="currentColor"
	d="M560.53 102.01c0.6 -5.6 9.6 -9 5.6 -18.4
	c1.6 6 -1.3 11.6 -5.6 12.8
"/>
<use x="579.93" y="94.01" xlink:href="#r8"/>
<use x="598.93" y="88.01" xlink:href="#hd"/>
<use x="589.93" y="88.01" xlink:href="#sh0"/>
<path d="M595.43 88.01v20.00" stroke="currentColor" fill="none"/>
<path fill="currentColor"
	d="M595.43 108.01c0.6 -5.6 9.6 -9 5.6 -18.4
	c1.6 6 -1.3 11.6 -5.6 12.8
"/>
<use x="614.83" y="94.01" xlink:href="#r8"/>
<use x="633.93" y="88.01" xlink:href="#hd"/>
<defs>
<path id="unat" fill="currentColor" d="
	m96 -750
	h-32
	v716
	l32 -8
	l182 -54
	v282
	h32
	v-706
	l-34 10
	l-180 50
	v-290
	m0 592
	v-190
	l182 -52
	v188"/>
<use id="nt0" transform="translate(-3,5) scale(0.018)"
	xlink:href="#unat"/>
</defs>
<use x="624.93" y="88.01" xlink:href="#nt0"/>
<path d="M630.43 88.01v20.00" stroke="currentColor" fill="none"/>
<path fill="currentColor"
	d="M630.43 108.01c0.6 -5.6 9.6 -9 5.6 -18.4
	c1.6 6 -1.3 11.6 -5.6 12.8
"/>
<use x="660.83" y="94.01" xlink:href="#r8"/>
<use x="678.23" y="91.01" xlink:href="#hd"/>
<path d="M674.73 91.01v20.00" stroke="currentColor" fill="none"/>
<path fill="currentColor"
	d="M674.73 111.01c0.6 -5.6 9.6 -9 5.6 -18.4
	c1.6 6 -1.3 11.6 -5.6 12.8
"/>
<path fill="currentColor"
	d="M157.13 100.01c4.49 5.01 24.01 5.01 28.50 -0.00
	l0.00 0.23c-5.34 6.78 -23.16 6.78 -28.50 -0.23"/>
<path fill="currentColor"
	d="M399.23 89.01c3.13 -4.86 16.75 -4.86 19.88 -0.00
	l0.00 -0.22c-3.73 -6.64 -16.16 -6.64 -19.88 0.22"/>
<path fill="currentColor"
	d="M454.73 88.01c4.43 -5.01 23.69 -5.01 28.11 -0.00
	l0.00 -0.23c-5.27 -6.78 -22.84 -6.78 -28.11 0.23"/>
<path fill="currentColor"
	d="M489.83 88.01c3.13 -4.86 16.75 -4.86 19.88 -0.00
	l0.00 -0.22c-3.73 -6.64 -16.16 -6.64 -19.88 0.22"/>
</g>
</svg>
