<?xml version="1.0" standalone="no"?>
<!DOCTYPE svg PUBLIC "-//W3C//DTD SVG 1.1//EN"
	"http://www.w3.org/Graphics/SVG/1.1/DTD/svg11.dtd">
<svg xmlns="http://www.w3.org/2000/svg" version="1.1"
	xmlns:xlink="http://www.w3.org/1999/xlink"
	xml:space='preserve' color="black"
	width="7.38in" height="1.34in" viewBox="0 0 531 97">
<title>3755.abc (3755) tune 1</title>
<!-- Creator: abcm2ps-7.8.14 -->
<!-- CreationDate: Mar 13, 2016 18:54 -->
<!-- CommandLine: -qxg 3755.abc -O ../svgs/3755.svg -->
<g transform="scale(0.750)" stroke-width="0.70" font-family="Times" font-size="20.00">
<text x="354.13" y="21.67" text-anchor="middle">3755.  Le Cid, 5th. Mvt. - Catalane, 2nd. Theme</text>
</g>
<g transform="scale(0.750)" stroke-width="0.70" font-family="Times" font-size="14.00" font-style="italic">
<text x="694.93" y="45.34" text-anchor="end">Jules Massenet</text>
</g>
<g transform="scale(0.525)" stroke-width="0.70" font-family="Times" font-size="14.00" font-style="italic">
<defs>
<ellipse id="hd" rx="4.1" ry="2.9"
	transform="rotate(-20)" fill="currentColor"/>
</defs>
<use x="114.90" y="94.16" xlink:href="#hd"/>
<path d="M118.40 94.16v-20.00" stroke="currentColor" fill="none"/>
</g>
<g transform="scale(0.750)" stroke-width="0.70" font-family="Times" font-size="15.00" font-weight="bold">
<text x="88.13" y="68.01">= 120</text>
<path stroke="currentColor" fill="none"
	d="M139.63 106.01v-24.00"/>
<path stroke="currentColor" fill="none"
	d="M212.03 106.01v-24.00"/>
<path stroke="currentColor" fill="none"
	d="M301.03 106.01v-24.00"/>
<path stroke="currentColor" fill="none"
	d="M391.33 106.01v-24.00"/>
<path stroke="currentColor" fill="none"
	d="M482.23 106.01v-24.00"/>
<path stroke="currentColor" fill="none"
	d="M580.23 106.01v-24.00"/>
<path stroke="currentColor" fill="none"
	d="M652.93 106.01v-24.00"/>
<path stroke="currentColor" fill="none"
	d="M694.93 106.01v-24.00"/>
<path stroke="currentColor" fill="none"
	d="M13.33 106.01h681.60m-681.60 -6h681.60m-681.60 -6h681.60m-681.60 -6h681.60m-681.60 -6h681.60"/>
<defs>
<path id="ubclef" fill="currentColor" d="m-200 -87
	c124 -35 222 -78 254 -236
	c43 -228 -167 -246 -192 -103
	c59 -80 157 22 92 78
	c-62 47 -115 -22 -106 -88
	c21 -141 270 -136 274 52
	c-1 175 -106 264 -322 297
	m357 -250
	c0 -36 51 -34 51 0
	c0 37 -51 36 -51 0
	m-2 -129
	c0 -36 51 -34 51 0
	c0 38 -51 37 -51 0"/>
<use id="bclef" transform="scale(0.045)"
	xlink:href="#ubclef"/>
</defs>
<use x="25.33" y="106.01" xlink:href="#bclef"/>
<defs>
<path id="uflat" fill="currentColor" d="
	m100 -746
	h32
	v734
	l-32 4
	m32 -332
	c46 -72 152 -90 208 -20
	c100 110 -120 326 -208 348
	m0 -28
	c54 0 200 -206 130 -290
	c-50 -60 -130 -4 -130 34"/>
<use id="ft0" transform="translate(-3.5,3.5) scale(0.018)"
	xlink:href="#uflat"/>
</defs>
<use x="40.33" y="100.01" xlink:href="#ft0"/>
<use x="45.83" y="91.01" xlink:href="#ft0"/>
<g font-family="serif" font-size="16" font-weight="bold" font-style="normal"
	transform="translate(61.83,106.01) scale(1.2,1)">
	<text y="-1" text-anchor="middle">4</text>
	<text y="-13" text-anchor="middle">2</text>
</g>
<use x="79.83" y="82.01" xlink:href="#hd"/>
<path d="M76.33 82.01v20.00" stroke="currentColor" fill="none"/>
<use x="105.53" y="85.01" xlink:href="#hd"/>
<path d="M102.03 85.01v20.00" stroke="currentColor" fill="none"/>
<path fill="currentColor"
	d="M102.03 105.01c0.6 -5.6 9.6 -9 5.6 -18.4
	c1.6 6 -1.3 11.6 -5.6 12.8
"/>
<use x="124.23" y="88.01" xlink:href="#hd"/>
<path d="M120.73 88.01v20.00" stroke="currentColor" fill="none"/>
<path fill="currentColor"
	d="M120.73 108.01c0.6 -5.6 9.6 -9 5.6 -18.4
	c1.6 6 -1.3 11.6 -5.6 12.8
"/>
<use x="152.13" y="85.01" xlink:href="#hd"/>
<path d="M148.63 85.01v20.00" stroke="currentColor" fill="none"/>
<use x="177.83" y="82.01" xlink:href="#hd"/>
<path d="M174.33 82.01v20.00" stroke="currentColor" fill="none"/>
<path fill="currentColor"
	d="M174.33 102.01c0.6 -5.6 9.6 -9 5.6 -18.4
	c1.6 6 -1.3 11.6 -5.6 12.8
"/>
<use x="196.53" y="79.01" xlink:href="#hd"/>
<path d="M193.03 79.01v20.00" stroke="currentColor" fill="none"/>
<path fill="currentColor"
	d="M193.03 99.01c0.6 -5.6 9.6 -9 5.6 -18.4
	c1.6 6 -1.3 11.6 -5.6 12.8
"/>
<defs>
<path id="hl" stroke="currentColor" d="m-6 0h12"/>
</defs>
<use x="224.53" y="76.01" xlink:href="#hl"/>
<use x="224.53" y="76.01" xlink:href="#hd"/>
<path d="M221.03 76.01v20.00" stroke="currentColor" fill="none"/>
<use x="250.43" y="76.01" xlink:href="#hl"/>
<use x="250.43" y="73.01" xlink:href="#hd"/>
<path d="M246.93 73.01v21.00" stroke="currentColor" fill="none"/>
<path fill="currentColor"
	d="M246.93 94.01c0.6 -5.6 9.6 -9 5.6 -18.4
	c1.6 6 -1.3 11.6 -5.6 12.8
"/>
<use x="269.53" y="76.01" xlink:href="#hl"/>
<use x="269.53" y="70.01" xlink:href="#hl"/>
<use x="269.53" y="70.01" xlink:href="#hd"/>
<path d="M266.03 70.01v24.00" stroke="currentColor" fill="none"/>
<path fill="currentColor"
	d="M266.03 94.01c0.6 -5.6 9.6 -9 5.6 -18.4
	c1.6 6 -1.3 11.6 -5.6 12.8
"/>
<defs>
<path id="utclef" fill="currentColor" d="m-50 -90
	c-72 -41 -72 -158 52 -188
	c150 -10 220 188 90 256
	c-114 52 -275 0 -293 -136
	c-15 -181 93 -229 220 -334
	c88 -87 79 -133 62 -210
	c-51 33 -94 105 -89 186
	c17 267 36 374 49 574
	c6 96 -19 134 -77 135
	c-80 1 -126 -93 -61 -133
	c85 -41 133 101 31 105
	c23 17 92 37 90 -92
	c-10 -223 -39 -342 -50 -617
	c0 -90 0 -162 96 -232
	c56 72 63 230 22 289
	c-74 106 -257 168 -255 316
	c9 153 148 185 252 133
	c86 -65 29 -192 -80 -176
	c-71 12 -105 67 -59 124"/>
<use id="stclef" transform="translate(0,-0.6) scale(0.037)"
	xlink:href="#utclef"/>
</defs>
<use x="286.03" y="106.01" xlink:href="#stclef"/>
<use x="313.53" y="100.01" xlink:href="#hd"/>
<path d="M317.03 100.01v-20.00" stroke="currentColor" fill="none"/>
<path fill="currentColor"
	d="	M317.03 80.01c0.6 5.6 9.6 9 5.6 18.4
	c1.6 -6 -1.3 -11.6 -5.6 -12.8
"/>
<use x="333.73" y="103.01" xlink:href="#hd"/>
<path d="M337.23 103.01v-20.00" stroke="currentColor" fill="none"/>
<path fill="currentColor"
	d="	M337.23 83.01c0.6 5.6 9.6 9 5.6 18.4
	c1.6 -6 -1.3 -11.6 -5.6 -12.8
"/>
<use x="354.03" y="106.01" xlink:href="#hd"/>
<path d="M357.53 106.01v-20.00" stroke="currentColor" fill="none"/>
<path fill="currentColor"
	d="	M357.53 86.01c0.6 5.6 9.6 9 5.6 18.4
	c1.6 -6 -1.3 -11.6 -5.6 -12.8
"/>
<use x="374.33" y="109.01" xlink:href="#hd"/>
<path d="M377.83 109.01v-20.00" stroke="currentColor" fill="none"/>
<path fill="currentColor"
	d="	M377.83 89.01c0.6 5.6 9.6 9 5.6 18.4
	c1.6 -6 -1.3 -11.6 -5.6 -12.8
"/>
<use x="403.83" y="109.01" xlink:href="#hd"/>
<path d="M407.33 109.01v-20.00" stroke="currentColor" fill="none"/>
<path fill="currentColor"
	d="	M407.33 89.01c0.6 5.6 9.6 9 5.6 18.4
	c1.6 -6 -1.3 -11.6 -5.6 -12.8
"/>
<use x="424.03" y="112.01" xlink:href="#hl"/>
<use x="424.03" y="112.01" xlink:href="#hd"/>
<path d="M427.53 112.01v-20.00" stroke="currentColor" fill="none"/>
<path fill="currentColor"
	d="	M427.53 92.01c0.6 5.6 9.6 9 5.6 18.4
	c1.6 -6 -1.3 -11.6 -5.6 -12.8
"/>
<use x="444.63" y="112.01" xlink:href="#hl"/>
<use x="444.63" y="115.01" xlink:href="#hd"/>
<path d="M448.13 115.01v-21.00" stroke="currentColor" fill="none"/>
<path fill="currentColor"
	d="	M448.13 94.01c0.6 5.6 9.6 9 5.6 18.4
	c1.6 -6 -1.3 -11.6 -5.6 -12.8
"/>
<use x="465.23" y="112.01" xlink:href="#hl"/>
<use x="465.23" y="118.01" xlink:href="#hl"/>
<use x="465.23" y="118.01" xlink:href="#hd"/>
<path d="M468.73 118.01v-24.00" stroke="currentColor" fill="none"/>
<path fill="currentColor"
	d="	M468.73 94.01c0.6 5.6 9.6 9 5.6 18.4
	c1.6 -6 -1.3 -11.6 -5.6 -12.8
"/>
<use x="494.73" y="112.01" xlink:href="#hl"/>
<use x="494.73" y="118.01" xlink:href="#hl"/>
<use x="494.73" y="121.01" xlink:href="#hd"/>
<path d="M498.23 121.01v-27.00" stroke="currentColor" fill="none"/>
<use x="520.73" y="112.01" xlink:href="#hl"/>
<use x="520.73" y="118.01" xlink:href="#hl"/>
<use x="520.73" y="118.01" xlink:href="#hd"/>
<path d="M524.23 118.01v-24.00" stroke="currentColor" fill="none"/>
<path fill="currentColor"
	d="	M524.23 94.01c0.6 5.6 9.6 9 5.6 18.4
	c1.6 -6 -1.3 -11.6 -5.6 -12.8
"/>
<use x="541.23" y="112.01" xlink:href="#hl"/>
<use x="541.23" y="115.01" xlink:href="#hd"/>
<path d="M544.73 115.01v-21.00" stroke="currentColor" fill="none"/>
<path fill="currentColor"
	d="	M544.73 94.01c0.6 5.6 9.6 9 5.6 18.4
	c1.6 -6 -1.3 -11.6 -5.6 -12.8
"/>
<defs>
<use id="sbclef" transform="translate(0,-3.5) scale(0.037)"
	xlink:href="#ubclef"/>
</defs>
<use x="565.23" y="106.01" xlink:href="#sbclef"/>
<use x="592.73" y="76.01" xlink:href="#hl"/>
<use x="592.73" y="73.01" xlink:href="#hd"/>
<path d="M589.23 73.01v21.00" stroke="currentColor" fill="none"/>
<use x="618.73" y="76.01" xlink:href="#hl"/>
<use x="618.73" y="76.01" xlink:href="#hd"/>
<path d="M615.23 76.01v20.00" stroke="currentColor" fill="none"/>
<path fill="currentColor"
	d="M615.23 96.01c0.6 -5.6 9.6 -9 5.6 -18.4
	c1.6 6 -1.3 11.6 -5.6 12.8
"/>
<use x="637.43" y="88.01" xlink:href="#hd"/>
<path d="M633.93 88.01v20.00" stroke="currentColor" fill="none"/>
<path fill="currentColor"
	d="M633.93 108.01c0.6 -5.6 9.6 -9 5.6 -18.4
	c1.6 6 -1.3 11.6 -5.6 12.8
"/>
<defs>
<path id="Hd" fill="currentColor" d="m3 -1.6
	c-1 -1.8 -7 1.4 -6 3.2
	c1 1.8 7 -1.4 6 -3.2
	m0.5 -0.3
	c2 3.8 -5 7.6 -7 3.8
	c-2 -3.8 5 -7.6 7 -3.8"/>
</defs>
<use x="665.93" y="79.01" xlink:href="#Hd"/>
<path d="M662.43 79.01v20.00" stroke="currentColor" fill="none"/>
</g>
</svg>
