<?xml version="1.0" standalone="no"?>
<!DOCTYPE svg PUBLIC "-//W3C//DTD SVG 1.1//EN"
	"http://www.w3.org/Graphics/SVG/1.1/DTD/svg11.dtd">
<svg xmlns="http://www.w3.org/2000/svg" version="1.1"
	xmlns:xlink="http://www.w3.org/1999/xlink"
	xml:space='preserve' color="black"
	width="7.38in" height="1.34in" viewBox="0 0 531 97">
<title>3757.abc (3757) tune 1</title>
<!-- Creator: abcm2ps-7.8.14 -->
<!-- CreationDate: Mar 13, 2016 18:54 -->
<!-- CommandLine: -qxg 3757.abc -O ../svgs/3757.svg -->
<g transform="scale(0.750)" stroke-width="0.70" font-family="Times" font-size="20.00">
<text x="354.13" y="21.67" text-anchor="middle">3757.  Le Cid, 6th. Mvt. - Madrilene, 2nd. Theme</text>
</g>
<g transform="scale(0.750)" stroke-width="0.70" font-family="Times" font-size="14.00" font-style="italic">
<text x="694.93" y="45.34" text-anchor="end">Jules Massenet</text>
</g>
<g transform="scale(0.525)" stroke-width="0.70" font-family="Times" font-size="14.00" font-style="italic">
<defs>
<ellipse id="hd" rx="4.1" ry="2.9"
	transform="rotate(-20)" fill="currentColor"/>
</defs>
<use x="130.61" y="94.16" xlink:href="#hd"/>
<path d="M134.11 94.16v-20.00" stroke="currentColor" fill="none"/>
</g>
<g transform="scale(0.750)" stroke-width="0.70" font-family="Times" font-size="15.00" font-weight="bold">
<text x="99.13" y="68.01">= 120</text>
<path stroke="currentColor" fill="none"
	d="M204.33 106.01v-24.00"/>
<path stroke="currentColor" fill="none"
	d="M333.93 106.01v-24.00"/>
<path stroke="currentColor" fill="none"
	d="M463.53 106.01v-24.00"/>
<path stroke="currentColor" fill="none"
	d="M557.43 106.01v-24.00"/>
<path stroke="currentColor" fill="none"
	d="M13.33 106.01h544.10m-544.10 -6h544.10m-544.10 -6h544.10m-544.10 -6h544.10m-544.10 -6h544.10"/>
<defs>
<path id="utclef" fill="currentColor" d="m-50 -90
	c-72 -41 -72 -158 52 -188
	c150 -10 220 188 90 256
	c-114 52 -275 0 -293 -136
	c-15 -181 93 -229 220 -334
	c88 -87 79 -133 62 -210
	c-51 33 -94 105 -89 186
	c17 267 36 374 49 574
	c6 96 -19 134 -77 135
	c-80 1 -126 -93 -61 -133
	c85 -41 133 101 31 105
	c23 17 92 37 90 -92
	c-10 -223 -39 -342 -50 -617
	c0 -90 0 -162 96 -232
	c56 72 63 230 22 289
	c-74 106 -257 168 -255 316
	c9 153 148 185 252 133
	c86 -65 29 -192 -80 -176
	c-71 12 -105 67 -59 124"/>
<use id="tclef" transform="scale(0.045)"
	xlink:href="#utclef"/>
</defs>
<use x="25.33" y="106.01" xlink:href="#tclef"/>
<defs>
<path id="usharp" fill="currentColor" d="
	m136 -702
	v890
	h32
	v-890
	m128 840
	h32
	v-888
	h-32
	m-232 286
	v116
	l338 -96
	v-116
	m-338 442
	v116
	l338 -98
	v-114"/>
<use id="sh0" transform="translate(-4,5) scale(0.018)"
	xlink:href="#usharp"/>
</defs>
<use x="40.33" y="82.01" xlink:href="#sh0"/>
<use x="45.83" y="91.01" xlink:href="#sh0"/>
<use x="51.33" y="79.01" xlink:href="#sh0"/>
<use x="56.83" y="88.01" xlink:href="#sh0"/>
<g font-family="serif" font-size="16" font-weight="bold" font-style="normal"
	transform="translate(72.83,106.01) scale(1.2,1)">
	<text y="-1" text-anchor="middle">8</text>
	<text y="-13" text-anchor="middle">3</text>
</g>
<path fill="currentColor"
	d="M87.03 112.01l36.70 4.20v-3.20l-36.70 -4.20"/>
<path fill="currentColor"
	d="M87.33 107.01l36.00 4.20v-3.20l-36.00 -4.20"/>
<use x="90.83" y="85.01" xlink:href="#hd"/>
<path d="M87.33 85.01v26.00" stroke="currentColor" fill="none"/>
<use x="108.83" y="88.01" xlink:href="#hd"/>
<path d="M105.33 88.01v25.10" stroke="currentColor" fill="none"/>
<use x="126.83" y="94.01" xlink:href="#hd"/>
<path d="M123.33 94.01v21.20" stroke="currentColor" fill="none"/>
<path fill="currentColor"
	d="M148.03 68.81l44.10 5.30v3.20l-44.10 -5.30"/>
<path fill="currentColor"
	d="M148.33 73.81l43.50 5.20v3.20l-43.50 -5.20"/>
<path fill="currentColor"
	d="M166.33 80.91l12.70 1.50v3.20l-12.70 -1.50"/>
<use x="144.83" y="91.01" xlink:href="#hd"/>
<path d="M148.33 91.01v-21.20" stroke="currentColor" fill="none"/>
<use x="162.83" y="103.01" xlink:href="#hd"/>
<path d="M166.33 103.01v-31.10" stroke="currentColor" fill="none"/>
<use x="175.53" y="103.01" xlink:href="#hd"/>
<path d="M179.03 103.01v-29.50" stroke="currentColor" fill="none"/>
<use x="188.33" y="103.01" xlink:href="#hd"/>
<path d="M191.83 103.01v-28.00" stroke="currentColor" fill="none"/>
<path fill="currentColor"
	d="M221.63 76.31l36.70 -4.60v3.20l-36.70 4.60"/>
<path fill="currentColor"
	d="M221.93 81.31l36.00 -4.50v3.20l-36.00 4.50"/>
<use x="218.43" y="100.01" xlink:href="#hd"/>
<path d="M221.93 100.01v-22.70" stroke="currentColor" fill="none"/>
<use x="236.43" y="97.01" xlink:href="#hd"/>
<path d="M239.93 97.01v-21.90" stroke="currentColor" fill="none"/>
<use x="254.43" y="94.01" xlink:href="#hd"/>
<path d="M257.93 94.01v-21.20" stroke="currentColor" fill="none"/>
<path fill="currentColor"
	d="M277.63 81.01l44.10 0.00v3.20l-44.10 -0.00"/>
<path fill="currentColor"
	d="M277.93 86.01l43.50 0.00v3.20l-43.50 -0.00"/>
<path fill="currentColor"
	d="M295.93 91.01l12.70 0.00v3.20l-12.70 -0.00"/>
<use x="274.43" y="106.01" xlink:href="#hd"/>
<path d="M277.93 106.01v-24.00" stroke="currentColor" fill="none"/>
<use x="292.43" y="106.01" xlink:href="#hd"/>
<path d="M295.93 106.01v-24.00" stroke="currentColor" fill="none"/>
<use x="305.23" y="106.01" xlink:href="#hd"/>
<path d="M308.73 106.01v-24.00" stroke="currentColor" fill="none"/>
<use x="317.93" y="106.01" xlink:href="#hd"/>
<path d="M321.43 106.01v-24.00" stroke="currentColor" fill="none"/>
<path fill="currentColor"
	d="M351.23 79.31l36.70 -4.60v3.20l-36.70 4.60"/>
<path fill="currentColor"
	d="M351.53 84.31l36.00 -4.50v3.20l-36.00 4.50"/>
<use x="348.03" y="103.01" xlink:href="#hd"/>
<path d="M351.53 103.01v-22.70" stroke="currentColor" fill="none"/>
<use x="366.03" y="100.01" xlink:href="#hd"/>
<path d="M369.53 100.01v-22.00" stroke="currentColor" fill="none"/>
<use x="384.03" y="97.01" xlink:href="#hd"/>
<path d="M387.53 97.01v-21.20" stroke="currentColor" fill="none"/>
<path fill="currentColor"
	d="M407.23 69.01l44.10 0.00v3.20l-44.10 -0.00"/>
<path fill="currentColor"
	d="M407.53 74.01l43.50 0.00v3.20l-43.50 -0.00"/>
<path fill="currentColor"
	d="M425.53 79.01l12.70 0.00v3.20l-12.70 -0.00"/>
<use x="404.03" y="94.01" xlink:href="#hd"/>
<path d="M407.53 94.01v-24.00" stroke="currentColor" fill="none"/>
<use x="422.03" y="94.01" xlink:href="#hd"/>
<path d="M425.53 94.01v-24.00" stroke="currentColor" fill="none"/>
<use x="434.83" y="94.01" xlink:href="#hd"/>
<path d="M438.33 94.01v-24.00" stroke="currentColor" fill="none"/>
<use x="447.53" y="94.01" xlink:href="#hd"/>
<path d="M451.03 94.01v-24.00" stroke="currentColor" fill="none"/>
<path fill="currentColor"
	d="M480.83 75.81l54.70 0.00v3.20l-54.70 -0.00"/>
<path fill="currentColor"
	d="M481.23 80.81l36.00 0.00v3.20l-36.00 -0.00"/>
<use x="477.73" y="100.01" xlink:href="#hd"/>
<path d="M481.23 100.01v-23.20" stroke="currentColor" fill="none"/>
<use x="495.73" y="103.01" xlink:href="#hd"/>
<path d="M499.23 103.01v-26.20" stroke="currentColor" fill="none"/>
<use x="513.73" y="100.01" xlink:href="#hd"/>
<path d="M517.23 100.01v-23.20" stroke="currentColor" fill="none"/>
<use x="531.73" y="106.01" xlink:href="#hd"/>
<circle fill="currentColor" cx="539.73" cy="103.01" r="1.2"/>
<path d="M535.23 106.01v-29.20" stroke="currentColor" fill="none"/>
</g>
</svg>
