<?xml version="1.0" standalone="no"?>
<!DOCTYPE svg PUBLIC "-//W3C//DTD SVG 1.1//EN"
	"http://www.w3.org/Graphics/SVG/1.1/DTD/svg11.dtd">
<svg xmlns="http://www.w3.org/2000/svg" version="1.1"
	xmlns:xlink="http://www.w3.org/1999/xlink"
	xml:space='preserve' color="black"
	width="7.38in" height="1.34in" viewBox="0 0 531 97">
<title>3758.abc (3758) tune 1</title>
<!-- Creator: abcm2ps-7.8.14 -->
<!-- CreationDate: Mar 13, 2016 18:54 -->
<!-- CommandLine: -qxg 3758.abc -O ../svgs/3758.svg -->
<g transform="scale(0.750)" stroke-width="0.70" font-family="Times" font-size="20.00">
<text x="354.13" y="21.67" text-anchor="middle">3758.  Le Cid, 7th. Mvt. - Navarraise</text>
</g>
<g transform="scale(0.750)" stroke-width="0.70" font-family="Times" font-size="14.00" font-style="italic">
<text x="694.93" y="45.34" text-anchor="end">Jules Massenet</text>
</g>
<g transform="scale(0.525)" stroke-width="0.70" font-family="Times" font-size="14.00" font-style="italic">
<defs>
<ellipse id="hd" rx="4.1" ry="2.9"
	transform="rotate(-20)" fill="currentColor"/>
</defs>
<use x="107.04" y="94.16" xlink:href="#hd"/>
<path d="M110.54 94.16v-20.00" stroke="currentColor" fill="none"/>
</g>
<g transform="scale(0.750)" stroke-width="0.70" font-family="Times" font-size="15.00" font-weight="bold">
<text x="82.63" y="68.01">= 120</text>
<path stroke="currentColor" fill="none"
	d="M291.03 106.01v-24.00"/>
<path stroke="currentColor" fill="none"
	d="M501.83 106.01v-24.00"/>
<path stroke="currentColor" fill="none"
	d="M13.33 106.01h531.00m-531.00 -6h531.00m-531.00 -6h531.00m-531.00 -6h531.00m-531.00 -6h531.00"/>
<defs>
<path id="utclef" fill="currentColor" d="m-50 -90
	c-72 -41 -72 -158 52 -188
	c150 -10 220 188 90 256
	c-114 52 -275 0 -293 -136
	c-15 -181 93 -229 220 -334
	c88 -87 79 -133 62 -210
	c-51 33 -94 105 -89 186
	c17 267 36 374 49 574
	c6 96 -19 134 -77 135
	c-80 1 -126 -93 -61 -133
	c85 -41 133 101 31 105
	c23 17 92 37 90 -92
	c-10 -223 -39 -342 -50 -617
	c0 -90 0 -162 96 -232
	c56 72 63 230 22 289
	c-74 106 -257 168 -255 316
	c9 153 148 185 252 133
	c86 -65 29 -192 -80 -176
	c-71 12 -105 67 -59 124"/>
<use id="tclef" transform="scale(0.045)"
	xlink:href="#utclef"/>
</defs>
<use x="25.33" y="106.01" xlink:href="#tclef"/>
<defs>
<path id="usharp" fill="currentColor" d="
	m136 -702
	v890
	h32
	v-890
	m128 840
	h32
	v-888
	h-32
	m-232 286
	v116
	l338 -96
	v-116
	m-338 442
	v116
	l338 -98
	v-114"/>
<use id="sh0" transform="translate(-4,5) scale(0.018)"
	xlink:href="#usharp"/>
</defs>
<use x="40.33" y="82.01" xlink:href="#sh0"/>
<g font-family="serif" font-size="16" font-weight="bold" font-style="normal"
	transform="translate(56.33,106.01) scale(1.2,1)">
	<text y="-1" text-anchor="middle">4</text>
	<text y="-13" text-anchor="middle">3</text>
</g>
<defs>
<path id="r8e" fill="currentColor" d="m 0 0
	c-1.5 1.5 -2.4 2 -3.6 2
	c2.4 -2.8 -2.8 -4 -2.8 -1.2
	c0 2.7 4.3 2.4 5.9 0.6"/>
<g id="r32">
	<path d="m4.8 -10l-5.5 21.6" stroke="currentColor" fill="none"/>
	<use x="4.9" y="-10" xlink:href="#r8e"/>
	<use x="3.4" y="-4" xlink:href="#r8e"/>
	<use x="1.9" y="2" xlink:href="#r8e"/>
</g>
</defs>
<use x="74.33" y="94.01" xlink:href="#r32"/>
<use x="87.03" y="94.01" xlink:href="#r32"/>
<use x="101.23" y="79.01" xlink:href="#hd"/>
<path d="M97.73 79.01v20.00" stroke="currentColor" fill="none"/>
<path fill="currentColor"
	d="M137.33 107.31l13.40 -2.10v-3.20l-13.40 2.10"/>
<path fill="currentColor"
	d="M137.73 102.21l12.70 -2.00v-3.20l-12.70 2.00"/>
<path fill="currentColor"
	d="M137.73 97.21l12.70 -2.00v-3.20l-12.70 2.00"/>
<use x="141.23" y="82.01" xlink:href="#hd"/>
<path d="M137.73 82.01v24.20" stroke="currentColor" fill="none"/>
<use x="153.93" y="79.01" xlink:href="#hd"/>
<path d="M150.43 79.01v25.20" stroke="currentColor" fill="none"/>
<path fill="currentColor"
	d="M164.23 104.01l51.60 8.30v-3.20l-51.60 -8.30"/>
<path fill="currentColor"
	d="M164.63 99.11l50.90 8.20v-3.20l-50.90 -8.20"/>
<path fill="currentColor"
	d="M164.63 94.11l38.20 6.10v-3.20l-38.20 -6.10"/>
<defs>
<path id="hl" stroke="currentColor" d="m-6 0h12"/>
</defs>
<use x="168.13" y="76.01" xlink:href="#hl"/>
<use x="168.13" y="76.01" xlink:href="#hd"/>
<path d="M164.63 76.01v27.10" stroke="currentColor" fill="none"/>
<use x="180.83" y="79.01" xlink:href="#hd"/>
<path d="M177.33 79.01v26.10" stroke="currentColor" fill="none"/>
<use x="193.53" y="82.01" xlink:href="#hd"/>
<path d="M190.03 82.01v25.20" stroke="currentColor" fill="none"/>
<use x="206.33" y="85.01" xlink:href="#hd"/>
<path d="M202.83 85.01v24.20" stroke="currentColor" fill="none"/>
<use x="219.03" y="88.01" xlink:href="#hd"/>
<path d="M215.53 88.01v23.20" stroke="currentColor" fill="none"/>
<defs>
<g id="r16">
	<path d="m3.3 -4l-4 15.6" stroke="currentColor" fill="none"/>
	<use x="3.4" y="-4" xlink:href="#r8e"/>
	<use x="1.9" y="2" xlink:href="#r8e"/>
</g>
</defs>
<use x="237.03" y="94.01" xlink:href="#r16"/>
<use x="257.03" y="94.01" xlink:href="#hd"/>
<path d="M253.53 94.01v22.00" stroke="currentColor" fill="none"/>
<path fill="currentColor"
	d="M253.53 116.01c0.9 -3.7 9.1 -6.4 6 -12.4
	c1 5.4 -4.2 8.4 -6 8.4
M253.53 110.61c0.9 -3.7 9.1 -6.4 6 -12.4
	c1 5.4 -4.2 8.4 -6 8.4
"/>
<use x="275.03" y="94.01" xlink:href="#r16"/>
<use x="305.23" y="97.01" xlink:href="#hd"/>
<circle fill="currentColor" cx="313.23" cy="97.01" r="1.2"/>
<path d="M308.73 97.01v-20.00" stroke="currentColor" fill="none"/>
<path fill="currentColor"
	d="	M308.73 77.01c0.6 5.6 9.6 9 5.6 18.4
	c1.6 -6 -1.3 -11.6 -5.6 -12.8
"/>
<path fill="currentColor"
	d="M340.53 69.81l95.20 0.00v3.20l-95.20 -0.00"/>
<path fill="currentColor"
	d="M340.93 74.81l12.70 0.00v3.20l-12.70 -0.00"/>
<path fill="currentColor"
	d="M402.63 74.81l32.80 0.00v3.20l-32.80 -0.00"/>
<path fill="currentColor"
	d="M340.93 79.81l12.70 0.00v3.20l-12.70 -0.00"/>
<path fill="currentColor"
	d="M402.63 79.81l12.70 0.00v3.20l-12.70 -0.00"/>
<use x="337.43" y="97.01" xlink:href="#hd"/>
<path d="M340.93 97.01v-26.20" stroke="currentColor" fill="none"/>
<use x="350.13" y="97.01" xlink:href="#hd"/>
<path d="M353.63 97.01v-26.20" stroke="currentColor" fill="none"/>
<use x="357.13" y="94.01" xlink:href="#hd"/>
<use x="370.13" y="100.01" xlink:href="#hd"/>
<circle fill="currentColor" cx="378.13" cy="97.01" r="1.2"/>
<path d="M373.63 100.01v-29.20" stroke="currentColor" fill="none"/>
<use x="399.13" y="100.01" xlink:href="#hd"/>
<path d="M402.63 100.01v-29.20" stroke="currentColor" fill="none"/>
<use x="411.83" y="100.01" xlink:href="#hd"/>
<path d="M415.33 100.01v-29.20" stroke="currentColor" fill="none"/>
<use x="418.83" y="97.01" xlink:href="#hd"/>
<use x="431.83" y="106.01" xlink:href="#hd"/>
<path d="M435.33 106.01v-35.20" stroke="currentColor" fill="none"/>
<use x="449.83" y="94.01" xlink:href="#r16"/>
<use x="467.83" y="109.01" xlink:href="#hd"/>
<path d="M471.33 109.01v-21.00" stroke="currentColor" fill="none"/>
<path fill="currentColor"
	d="M471.33 88.01c0.9 3.7 9.1 6.4 6 12.4
	c1 -5.4 -4.2 -8.4 -6 -8.4
M471.33 93.41c0.9 3.7 9.1 6.4 6 12.4
	c1 -5.4 -4.2 -8.4 -6 -8.4
"/>
<use x="485.83" y="94.01" xlink:href="#r16"/>
<use x="516.03" y="112.01" xlink:href="#hl"/>
<use x="516.03" y="115.01" xlink:href="#hd"/>
<path d="M519.53 115.01v-21.00" stroke="currentColor" fill="none"/>
<path fill="currentColor"
	d="	M519.53 94.01c0.6 5.6 9.6 9 5.6 18.4
	c1.6 -6 -1.3 -11.6 -5.6 -12.8
"/>
<path fill="currentColor"
	d="M308.73 99.01c3.97 4.95 21.23 4.95 25.20 -0.00
	l0.00 0.23c-4.73 6.73 -20.48 6.73 -25.20 -0.23"/>
<path fill="currentColor"
	d="M373.63 100.01c3.46 4.90 18.52 4.90 21.98 -0.00
	l0.00 0.22c-4.12 6.67 -17.86 6.67 -21.98 -0.22"/>
</g>
</svg>
