<?xml version="1.0" standalone="no"?>
<!DOCTYPE svg PUBLIC "-//W3C//DTD SVG 1.1//EN"
	"http://www.w3.org/Graphics/SVG/1.1/DTD/svg11.dtd">
<svg xmlns="http://www.w3.org/2000/svg" version="1.1"
	xmlns:xlink="http://www.w3.org/1999/xlink"
	xml:space='preserve' color="black"
	width="7.38in" height="1.49in" viewBox="0 0 531 107">
<title>3776.abc (3776) tune 1</title>
<!-- Creator: abcm2ps-7.8.14 -->
<!-- CreationDate: Mar 13, 2016 18:54 -->
<!-- CommandLine: -qxg 3776.abc -O ../svgs/3776.svg -->
<g transform="scale(0.750)" stroke-width="0.70" font-family="Times" font-size="20.00">
<text x="354.13" y="21.67" text-anchor="middle">3776.  Scenes Alsaciennes, Suite No. 7, II - Cabaret, 1st. Theme</text>
</g>
<g transform="scale(0.750)" stroke-width="0.70" font-family="Times" font-size="14.00" font-style="italic">
<text x="694.93" y="45.34" text-anchor="end">Jules Massenet</text>
</g>
<g transform="scale(0.525)" stroke-width="0.70" font-family="Times" font-size="14.00" font-style="italic">
<defs>
<ellipse id="hd" rx="4.1" ry="2.9"
	transform="rotate(-20)" fill="currentColor"/>
</defs>
<use x="107.04" y="94.16" xlink:href="#hd"/>
<path d="M110.54 94.16v-20.00" stroke="currentColor" fill="none"/>
</g>
<g transform="scale(0.750)" stroke-width="0.70" font-family="Times" font-size="15.00" font-weight="bold">
<text x="82.63" y="68.01">= 120</text>
<path stroke="currentColor" fill="none"
	d="M198.73 120.01v-24.00"/>
<path stroke="currentColor" fill="none"
	d="M384.13 120.01v-24.00"/>
<path stroke="currentColor" fill="none"
	d="M539.53 120.01v-24.00"/>
<path stroke="currentColor" fill="none"
	d="M694.93 120.01v-24.00"/>
<path stroke="currentColor" fill="none"
	d="M13.33 120.01h681.60m-681.60 -6h681.60m-681.60 -6h681.60m-681.60 -6h681.60m-681.60 -6h681.60"/>
<defs>
<path id="utclef" fill="currentColor" d="m-50 -90
	c-72 -41 -72 -158 52 -188
	c150 -10 220 188 90 256
	c-114 52 -275 0 -293 -136
	c-15 -181 93 -229 220 -334
	c88 -87 79 -133 62 -210
	c-51 33 -94 105 -89 186
	c17 267 36 374 49 574
	c6 96 -19 134 -77 135
	c-80 1 -126 -93 -61 -133
	c85 -41 133 101 31 105
	c23 17 92 37 90 -92
	c-10 -223 -39 -342 -50 -617
	c0 -90 0 -162 96 -232
	c56 72 63 230 22 289
	c-74 106 -257 168 -255 316
	c9 153 148 185 252 133
	c86 -65 29 -192 -80 -176
	c-71 12 -105 67 -59 124"/>
<use id="tclef" transform="scale(0.045)"
	xlink:href="#utclef"/>
</defs>
<use x="25.33" y="120.01" xlink:href="#tclef"/>
<defs>
<path id="usharp" fill="currentColor" d="
	m136 -702
	v890
	h32
	v-890
	m128 840
	h32
	v-888
	h-32
	m-232 286
	v116
	l338 -96
	v-116
	m-338 442
	v116
	l338 -98
	v-114"/>
<use id="sh0" transform="translate(-4,5) scale(0.018)"
	xlink:href="#usharp"/>
</defs>
<use x="40.33" y="96.01" xlink:href="#sh0"/>
<g font-family="serif" font-size="16" font-weight="bold" font-style="normal"
	transform="translate(56.33,120.01) scale(1.2,1)">
	<text y="-1" text-anchor="middle">4</text>
	<text y="-13" text-anchor="middle">3</text>
</g>
<defs>
<path id="hl" stroke="currentColor" d="m-6 0h12"/>
</defs>
<use x="74.33" y="90.01" xlink:href="#hl"/>
<use x="74.33" y="84.01" xlink:href="#hl"/>
<use x="74.33" y="78.01" xlink:href="#hl"/>
<use x="74.33" y="78.01" xlink:href="#hd"/>
<path d="M70.83 78.01v30.00" stroke="currentColor" fill="none"/>
<use x="118.73" y="90.01" xlink:href="#hl"/>
<use x="118.73" y="84.01" xlink:href="#hl"/>
<use x="118.73" y="78.01" xlink:href="#hl"/>
<use x="118.73" y="78.01" xlink:href="#hd"/>
<path d="M115.23 78.01v30.00" stroke="currentColor" fill="none"/>
<use x="163.13" y="90.01" xlink:href="#hl"/>
<use x="163.13" y="84.01" xlink:href="#hl"/>
<use x="163.13" y="78.01" xlink:href="#hl"/>
<use x="163.13" y="78.01" xlink:href="#hd"/>
<path d="M159.63 78.01v30.00" stroke="currentColor" fill="none"/>
<path fill="currentColor"
	d="M210.63 108.21l57.30 0.00v-3.20l-57.30 -0.00"/>
<use x="214.43" y="90.01" xlink:href="#hl"/>
<use x="214.43" y="84.01" xlink:href="#hl"/>
<use x="214.43" y="78.01" xlink:href="#hl"/>
<use x="214.43" y="78.01" xlink:href="#hd"/>
<path d="M210.93 78.01v29.20" stroke="currentColor" fill="none"/>
<use x="242.73" y="90.01" xlink:href="#hl"/>
<use x="242.73" y="84.01" xlink:href="#hl"/>
<use x="242.73" y="81.01" xlink:href="#hd"/>
<path d="M239.23 81.01v26.20" stroke="currentColor" fill="none"/>
<use x="271.03" y="90.01" xlink:href="#hl"/>
<use x="271.03" y="84.01" xlink:href="#hl"/>
<use x="271.03" y="81.01" xlink:href="#hd"/>
<path d="M267.53 81.01v26.20" stroke="currentColor" fill="none"/>
<path fill="currentColor"
	d="M298.63 108.21l29.00 0.00v-3.20l-29.00 -0.00"/>
<use x="302.43" y="90.01" xlink:href="#hl"/>
<use x="302.43" y="87.01" xlink:href="#hd"/>
<path d="M298.93 87.01v20.20" stroke="currentColor" fill="none"/>
<use x="330.73" y="90.01" xlink:href="#hl"/>
<use x="330.73" y="87.01" xlink:href="#hd"/>
<path d="M327.23 87.01v20.20" stroke="currentColor" fill="none"/>
<defs>
<path id="r8e" fill="currentColor" d="m 0 0
	c-1.5 1.5 -2.4 2 -3.6 2
	c2.4 -2.8 -2.8 -4 -2.8 -1.2
	c0 2.7 4.3 2.4 5.9 0.6"/>
<g id="r8">
	<path d="m3.3 -4l-3.4 9.6" stroke="currentColor" fill="none"/>
	<use x="3.4" y="-4" xlink:href="#r8e"/>
</g>
</defs>
<use x="359.03" y="108.01" xlink:href="#r8"/>
<path fill="currentColor"
	d="M403.03 102.81l29.00 -2.50v3.20l-29.00 2.50"/>
<use x="399.83" y="123.01" xlink:href="#hd"/>
<path d="M403.33 123.01v-19.30" stroke="currentColor" fill="none"/>
<use x="428.13" y="120.01" xlink:href="#hd"/>
<path d="M431.63 120.01v-18.70" stroke="currentColor" fill="none"/>
<use x="459.53" y="120.01" xlink:href="#hd"/>
<path d="M463.03 120.01v-20.00" stroke="currentColor" fill="none"/>
<use x="504.03" y="123.01" xlink:href="#hd"/>
<path d="M507.53 123.01v-20.00" stroke="currentColor" fill="none"/>
<path fill="currentColor"
	d="M558.43 106.11l29.00 1.80v3.20l-29.00 -1.80"/>
<use x="555.23" y="126.01" xlink:href="#hl"/>
<use x="555.23" y="126.01" xlink:href="#hd"/>
<path d="M558.73 126.01v-18.90" stroke="currentColor" fill="none"/>
<use x="583.53" y="126.01" xlink:href="#hl"/>
<use x="583.53" y="129.01" xlink:href="#hd"/>
<path d="M587.03 129.01v-20.10" stroke="currentColor" fill="none"/>
<use x="614.93" y="126.01" xlink:href="#hl"/>
<use x="614.93" y="132.01" xlink:href="#hl"/>
<use x="614.93" y="132.01" xlink:href="#hd"/>
<path d="M618.43 132.01v-24.00" stroke="currentColor" fill="none"/>
<use x="659.43" y="126.01" xlink:href="#hl"/>
<use x="659.43" y="132.01" xlink:href="#hl"/>
<use x="659.43" y="135.01" xlink:href="#hd"/>
<path d="M662.93 135.01v-27.00" stroke="currentColor" fill="none"/>
</g>
</svg>
