<?xml version="1.0" standalone="no"?>
<!DOCTYPE svg PUBLIC "-//W3C//DTD SVG 1.1//EN"
	"http://www.w3.org/Graphics/SVG/1.1/DTD/svg11.dtd">
<svg xmlns="http://www.w3.org/2000/svg" version="1.1"
	xmlns:xlink="http://www.w3.org/1999/xlink"
	xml:space='preserve' color="black"
	width="7.38in" height="1.35in" viewBox="0 0 531 97">
<title>3780.abc (3780) tune 1</title>
<!-- Creator: abcm2ps-7.8.14 -->
<!-- CreationDate: Mar 13, 2016 18:54 -->
<!-- CommandLine: -qxg 3780.abc -O ../svgs/3780.svg -->
<g transform="scale(0.750)" stroke-width="0.70" font-family="Times" font-size="20.00">
<text x="354.13" y="21.67" text-anchor="middle">3780.  Scenes Alsaciennes, Suite No. 7, IV - Sunday Evening, 1st. Theme</text>
</g>
<g transform="scale(0.750)" stroke-width="0.70" font-family="Times" font-size="14.00" font-style="italic">
<text x="694.93" y="45.34" text-anchor="end">Jules Massenet</text>
</g>
<g transform="scale(0.525)" stroke-width="0.70" font-family="Times" font-size="14.00" font-style="italic">
<defs>
<ellipse id="hd" rx="4.1" ry="2.9"
	transform="rotate(-20)" fill="currentColor"/>
</defs>
<use x="114.90" y="94.16" xlink:href="#hd"/>
<path d="M118.40 94.16v-20.00" stroke="currentColor" fill="none"/>
</g>
<g transform="scale(0.750)" stroke-width="0.70" font-family="Times" font-size="15.00" font-weight="bold">
<text x="88.13" y="68.01">= 120</text>
<path stroke="currentColor" fill="none"
	d="M268.83 106.01v-24.00"/>
<path stroke="currentColor" fill="none"
	d="M472.03 106.01v-24.00"/>
<path stroke="currentColor" fill="none"
	d="M13.33 106.01h501.10m-501.10 -6h501.10m-501.10 -6h501.10m-501.10 -6h501.10m-501.10 -6h501.10"/>
<text font-family="serif" font-size="12" font-style="italic" font-weight="normal"
	x="120.63" y="129.81" text-anchor="middle">3</text>
<text font-family="serif" font-size="12" font-style="italic" font-weight="normal"
	x="191.03" y="122.81" text-anchor="middle">3</text>
<text font-family="serif" font-size="12" font-style="italic" font-weight="normal"
	x="323.73" y="129.81" text-anchor="middle">3</text>
<text font-family="serif" font-size="12" font-style="italic" font-weight="normal"
	x="394.23" y="122.01" text-anchor="middle">3</text>
<defs>
<path id="utclef" fill="currentColor" d="m-50 -90
	c-72 -41 -72 -158 52 -188
	c150 -10 220 188 90 256
	c-114 52 -275 0 -293 -136
	c-15 -181 93 -229 220 -334
	c88 -87 79 -133 62 -210
	c-51 33 -94 105 -89 186
	c17 267 36 374 49 574
	c6 96 -19 134 -77 135
	c-80 1 -126 -93 -61 -133
	c85 -41 133 101 31 105
	c23 17 92 37 90 -92
	c-10 -223 -39 -342 -50 -617
	c0 -90 0 -162 96 -232
	c56 72 63 230 22 289
	c-74 106 -257 168 -255 316
	c9 153 148 185 252 133
	c86 -65 29 -192 -80 -176
	c-71 12 -105 67 -59 124"/>
<use id="tclef" transform="scale(0.045)"
	xlink:href="#utclef"/>
</defs>
<use x="25.33" y="106.01" xlink:href="#tclef"/>
<defs>
<path id="usharp" fill="currentColor" d="
	m136 -702
	v890
	h32
	v-890
	m128 840
	h32
	v-888
	h-32
	m-232 286
	v116
	l338 -96
	v-116
	m-338 442
	v116
	l338 -98
	v-114"/>
<use id="sh0" transform="translate(-4,5) scale(0.018)"
	xlink:href="#usharp"/>
</defs>
<use x="40.33" y="82.01" xlink:href="#sh0"/>
<use x="45.83" y="91.01" xlink:href="#sh0"/>
<g font-family="serif" font-size="16" font-weight="bold" font-style="normal"
	transform="translate(61.83,106.01) scale(1.2,1)">
	<text y="-1" text-anchor="middle">4</text>
	<text y="-13" text-anchor="middle">3</text>
</g>
<use x="79.83" y="88.01" xlink:href="#hd"/>
<path d="M76.33 88.01v20.00" stroke="currentColor" fill="none"/>
<path fill="currentColor"
	d="M76.33 108.01c0.6 -5.6 9.6 -9 5.6 -18.4
	c1.6 6 -1.3 11.6 -5.6 12.8
"/>
<path fill="currentColor"
	d="M104.33 111.91l42.80 6.40v-3.20l-42.80 -6.40"/>
<path fill="currentColor"
	d="M104.63 107.01l28.10 4.20v-3.20l-28.10 -4.20"/>
<use x="108.13" y="88.01" xlink:href="#hd"/>
<path d="M104.63 88.01v23.00" stroke="currentColor" fill="none"/>
<use x="122.23" y="91.01" xlink:href="#hd"/>
<path d="M118.73 91.01v22.10" stroke="currentColor" fill="none"/>
<use x="136.23" y="94.01" xlink:href="#hd"/>
<path d="M132.73 94.01v21.20" stroke="currentColor" fill="none"/>
<use x="150.33" y="97.01" xlink:href="#hd"/>
<path d="M146.83 97.01v20.30" stroke="currentColor" fill="none"/>
<path fill="currentColor"
	d="M174.73 105.31l68.30 8.00v-3.20l-68.30 -8.00"/>
<path fill="currentColor"
	d="M175.13 100.31l28.10 3.30v-3.20l-28.10 -3.30"/>
<defs>
<path id="hl" stroke="currentColor" d="m-6 0h12"/>
</defs>
<use x="178.63" y="76.01" xlink:href="#hl"/>
<use x="178.63" y="76.01" xlink:href="#hd"/>
<path d="M175.13 76.01v28.30" stroke="currentColor" fill="none"/>
<use x="192.63" y="79.01" xlink:href="#hd"/>
<path d="M189.13 79.01v27.00" stroke="currentColor" fill="none"/>
<use x="206.73" y="82.01" xlink:href="#hd"/>
<path d="M203.23 82.01v25.60" stroke="currentColor" fill="none"/>
<use x="220.73" y="85.01" xlink:href="#hd"/>
<path d="M217.23 85.01v24.20" stroke="currentColor" fill="none"/>
<use x="246.23" y="94.01" xlink:href="#hd"/>
<path d="M242.73 94.01v18.20" stroke="currentColor" fill="none"/>
<use x="283.03" y="88.01" xlink:href="#hd"/>
<path d="M279.53 88.01v20.00" stroke="currentColor" fill="none"/>
<path fill="currentColor"
	d="M279.53 108.01c0.6 -5.6 9.6 -9 5.6 -18.4
	c1.6 6 -1.3 11.6 -5.6 12.8
"/>
<path fill="currentColor"
	d="M307.43 111.91l42.80 6.40v-3.20l-42.80 -6.40"/>
<path fill="currentColor"
	d="M307.83 107.01l28.10 4.20v-3.20l-28.10 -4.20"/>
<use x="311.33" y="88.01" xlink:href="#hd"/>
<path d="M307.83 88.01v23.00" stroke="currentColor" fill="none"/>
<use x="325.33" y="91.01" xlink:href="#hd"/>
<path d="M321.83 91.01v22.10" stroke="currentColor" fill="none"/>
<use x="339.43" y="94.01" xlink:href="#hd"/>
<path d="M335.93 94.01v21.20" stroke="currentColor" fill="none"/>
<use x="353.43" y="97.01" xlink:href="#hd"/>
<path d="M349.93 97.01v20.30" stroke="currentColor" fill="none"/>
<path fill="currentColor"
	d="M377.93 106.21l68.30 0.00v-3.20l-68.30 -0.00"/>
<path fill="currentColor"
	d="M378.23 101.21l28.10 0.00v-3.20l-28.10 -0.00"/>
<use x="381.73" y="76.01" xlink:href="#hl"/>
<use x="381.73" y="76.01" xlink:href="#hd"/>
<path d="M378.23 76.01v29.20" stroke="currentColor" fill="none"/>
<use x="395.83" y="79.01" xlink:href="#hd"/>
<path d="M392.33 79.01v26.20" stroke="currentColor" fill="none"/>
<use x="409.83" y="82.01" xlink:href="#hd"/>
<path d="M406.33 82.01v23.20" stroke="currentColor" fill="none"/>
<use x="423.93" y="85.01" xlink:href="#hd"/>
<path d="M420.43 85.01v20.20" stroke="currentColor" fill="none"/>
<use x="449.33" y="79.01" xlink:href="#hd"/>
<path d="M445.83 79.01v26.20" stroke="currentColor" fill="none"/>
<use x="486.13" y="82.01" xlink:href="#hd"/>
<path d="M482.63 82.01v20.00" stroke="currentColor" fill="none"/>
<path fill="currentColor"
	d="M482.63 102.01c0.6 -5.6 9.6 -9 5.6 -18.4
	c1.6 6 -1.3 11.6 -5.6 12.8
"/>
</g>
</svg>
