<?xml version="1.0" standalone="no"?>
<!DOCTYPE svg PUBLIC "-//W3C//DTD SVG 1.1//EN"
	"http://www.w3.org/Graphics/SVG/1.1/DTD/svg11.dtd">
<svg xmlns="http://www.w3.org/2000/svg" version="1.1"
	xmlns:xlink="http://www.w3.org/1999/xlink"
	xml:space='preserve' color="black"
	width="7.38in" height="1.35in" viewBox="0 0 531 98">
<title>3803.abc (3803) tune 1</title>
<!-- Creator: abcm2ps-7.8.14 -->
<!-- CreationDate: Mar 13, 2016 18:54 -->
<!-- CommandLine: -qxg 3803.abc -O ../svgs/3803.svg -->
<g transform="scale(0.750)" stroke-width="0.70" font-family="Times" font-size="20.00">
<text x="354.13" y="21.67" text-anchor="middle">3803.  Fairy Tales, Op. 51, No. 1</text>
</g>
<g transform="scale(0.750)" stroke-width="0.70" font-family="Times" font-size="14.00" font-style="italic">
<text x="694.93" y="45.34" text-anchor="end">Nicolas Medtner</text>
</g>
<g transform="scale(0.525)" stroke-width="0.70" font-family="Times" font-size="14.00" font-style="italic">
<defs>
<ellipse id="hd" rx="4.1" ry="2.9"
	transform="rotate(-20)" fill="currentColor"/>
</defs>
<use x="107.04" y="94.16" xlink:href="#hd"/>
<path d="M110.54 94.16v-20.00" stroke="currentColor" fill="none"/>
</g>
<g transform="scale(0.750)" stroke-width="0.70" font-family="Times" font-size="15.00" font-weight="bold">
<text x="82.63" y="68.01">= 120</text>
<path stroke="currentColor" fill="none"
	d="M214.13 107.01v-24.00"/>
<path stroke="currentColor" fill="none"
	d="M342.43 107.01v-24.00"/>
<path stroke="currentColor" fill="none"
	d="M506.13 107.01v-24.00"/>
<path stroke="currentColor" fill="none"
	d="M648.83 107.01v-24.00"/>
<path stroke="currentColor" fill="none"
	d="M13.33 107.01h681.60m-681.60 -6h681.60m-681.60 -6h681.60m-681.60 -6h681.60m-681.60 -6h681.60"/>
<defs>
<path id="utclef" fill="currentColor" d="m-50 -90
	c-72 -41 -72 -158 52 -188
	c150 -10 220 188 90 256
	c-114 52 -275 0 -293 -136
	c-15 -181 93 -229 220 -334
	c88 -87 79 -133 62 -210
	c-51 33 -94 105 -89 186
	c17 267 36 374 49 574
	c6 96 -19 134 -77 135
	c-80 1 -126 -93 -61 -133
	c85 -41 133 101 31 105
	c23 17 92 37 90 -92
	c-10 -223 -39 -342 -50 -617
	c0 -90 0 -162 96 -232
	c56 72 63 230 22 289
	c-74 106 -257 168 -255 316
	c9 153 148 185 252 133
	c86 -65 29 -192 -80 -176
	c-71 12 -105 67 -59 124"/>
<use id="tclef" transform="scale(0.045)"
	xlink:href="#utclef"/>
</defs>
<use x="25.33" y="107.01" xlink:href="#tclef"/>
<defs>
<path id="uflat" fill="currentColor" d="
	m100 -746
	h32
	v734
	l-32 4
	m32 -332
	c46 -72 152 -90 208 -20
	c100 110 -120 326 -208 348
	m0 -28
	c54 0 200 -206 130 -290
	c-50 -60 -130 -4 -130 34"/>
<use id="ft0" transform="translate(-3.5,3.5) scale(0.018)"
	xlink:href="#uflat"/>
</defs>
<use x="40.33" y="95.01" xlink:href="#ft0"/>
<g font-family="serif" font-size="16" font-weight="bold" font-style="normal"
	transform="translate(56.33,107.01) scale(1.2,1)">
	<text y="-1" text-anchor="middle">4</text>
	<text y="-13" text-anchor="middle">2</text>
</g>
<path fill="currentColor"
	d="M77.53 82.11l42.20 -6.40v3.20l-42.20 6.40"/>
<path fill="currentColor"
	d="M77.83 87.11l41.50 -6.30v3.20l-41.50 6.30"/>
<path fill="currentColor"
	d="M77.83 92.11l41.50 -6.30v3.20l-41.50 6.30"/>
<use x="74.33" y="110.01" xlink:href="#hd"/>
<path d="M77.83 110.01v-26.90" stroke="currentColor" fill="none"/>
<use x="88.13" y="107.01" xlink:href="#hd"/>
<path d="M91.63 107.01v-26.00" stroke="currentColor" fill="none"/>
<use x="102.03" y="104.01" xlink:href="#hd"/>
<path d="M105.53 104.01v-25.10" stroke="currentColor" fill="none"/>
<use x="115.83" y="101.01" xlink:href="#hd"/>
<path d="M119.33 101.01v-24.20" stroke="currentColor" fill="none"/>
<use x="131.23" y="98.01" xlink:href="#hd"/>
<path d="M134.73 98.01v-20.00" stroke="currentColor" fill="none"/>
<path fill="currentColor"
	d="	M134.73 78.01c0.6 5.6 9.6 9 5.6 18.4
	c1.6 -6 -1.3 -11.6 -5.6 -12.8
"/>
<use x="161.93" y="89.01" xlink:href="#hd"/>
<path d="M158.43 89.01v20.00" stroke="currentColor" fill="none"/>
<path fill="currentColor"
	d="M158.43 109.01c0.6 -5.6 9.6 -9 5.6 -18.4
	c1.6 6 -1.3 11.6 -5.6 12.8
"/>
<use x="189.53" y="98.01" xlink:href="#hd"/>
<path d="M193.03 98.01v-20.00" stroke="currentColor" fill="none"/>
<path fill="currentColor"
	d="	M193.03 78.01c0.6 5.6 9.6 9 5.6 18.4
	c1.6 -6 -1.3 -11.6 -5.6 -12.8
"/>
<use x="229.53" y="98.01" xlink:href="#hd"/>
<path d="M233.03 98.01v-20.00" stroke="currentColor" fill="none"/>
<path fill="currentColor"
	d="	M233.03 78.01c0.6 5.6 9.6 9 5.6 18.4
	c1.6 -6 -1.3 -11.6 -5.6 -12.8
"/>
<defs>
<path id="r8e" fill="currentColor" d="m 0 0
	c-1.5 1.5 -2.4 2 -3.6 2
	c2.4 -2.8 -2.8 -4 -2.8 -1.2
	c0 2.7 4.3 2.4 5.9 0.6"/>
<g id="r8">
	<path d="m3.3 -4l-3.4 9.6" stroke="currentColor" fill="none"/>
	<use x="3.4" y="-4" xlink:href="#r8e"/>
</g>
</defs>
<use x="257.13" y="95.01" xlink:href="#r8"/>
<defs>
<g id="r32">
	<path d="m4.8 -10l-5.5 21.6" stroke="currentColor" fill="none"/>
	<use x="4.9" y="-10" xlink:href="#r8e"/>
	<use x="3.4" y="-4" xlink:href="#r8e"/>
	<use x="1.9" y="2" xlink:href="#r8e"/>
</g>
</defs>
<use x="284.83" y="95.01" xlink:href="#r32"/>
<path fill="currentColor"
	d="M301.83 70.81l32.10 0.00v3.20l-32.10 -0.00"/>
<path fill="currentColor"
	d="M327.63 75.81l6.00 0.00v3.20l-6.00 -0.00"/>
<path fill="currentColor"
	d="M327.63 80.81l6.00 0.00v3.20l-6.00 -0.00"/>
<use x="298.63" y="98.01" xlink:href="#hd"/>
<circle fill="currentColor" cx="306.63" cy="98.01" r="1.2"/>
<path d="M302.13 98.01v-26.20" stroke="currentColor" fill="none"/>
<use x="330.13" y="98.01" xlink:href="#hd"/>
<path d="M333.63 98.01v-26.20" stroke="currentColor" fill="none"/>
<path fill="currentColor"
	d="M360.93 78.81l20.20 2.40v3.20l-20.20 -2.40"/>
<path fill="currentColor"
	d="M361.33 83.81l19.50 2.30v3.20l-19.50 -2.30"/>
<use x="357.83" y="101.01" xlink:href="#hd"/>
<path d="M361.33 101.01v-21.20" stroke="currentColor" fill="none"/>
<use x="377.33" y="104.01" xlink:href="#hd"/>
<path d="M380.83 104.01v-21.90" stroke="currentColor" fill="none"/>
<path fill="currentColor"
	d="M402.23 75.81l20.20 2.40v3.20l-20.20 -2.40"/>
<path fill="currentColor"
	d="M402.53 80.81l19.50 2.30v3.20l-19.50 -2.30"/>
<use x="399.03" y="98.01" xlink:href="#hd"/>
<path d="M402.53 98.01v-21.20" stroke="currentColor" fill="none"/>
<use x="418.63" y="101.01" xlink:href="#hd"/>
<path d="M422.13 101.01v-21.90" stroke="currentColor" fill="none"/>
<path fill="currentColor"
	d="M443.43 81.81l20.20 2.40v3.20l-20.20 -2.40"/>
<path fill="currentColor"
	d="M443.83 86.81l19.50 2.30v3.20l-19.50 -2.30"/>
<use x="440.33" y="104.01" xlink:href="#hd"/>
<path d="M443.83 104.01v-21.20" stroke="currentColor" fill="none"/>
<use x="459.83" y="107.01" xlink:href="#hd"/>
<path d="M463.33 107.01v-21.90" stroke="currentColor" fill="none"/>
<use x="481.53" y="101.01" xlink:href="#hd"/>
<path d="M485.03 101.01v-20.00" stroke="currentColor" fill="none"/>
<path fill="currentColor"
	d="	M485.03 81.01c0.6 5.6 9.6 9 5.6 18.4
	c1.6 -6 -1.3 -11.6 -5.6 -12.8
"/>
<use x="521.53" y="101.01" xlink:href="#hd"/>
<path d="M525.03 101.01v-20.00" stroke="currentColor" fill="none"/>
<path fill="currentColor"
	d="	M525.03 81.01c0.6 5.6 9.6 9 5.6 18.4
	c1.6 -6 -1.3 -11.6 -5.6 -12.8
"/>
<use x="552.23" y="110.01" xlink:href="#hd"/>
<path d="M555.73 110.01v-20.00" stroke="currentColor" fill="none"/>
<path fill="currentColor"
	d="	M555.73 90.01c0.6 5.6 9.6 9 5.6 18.4
	c1.6 -6 -1.3 -11.6 -5.6 -12.8
"/>
<path fill="currentColor"
	d="M586.13 84.81l20.20 2.40v3.20l-20.20 -2.40"/>
<path fill="currentColor"
	d="M586.53 89.81l19.50 2.30v3.20l-19.50 -2.30"/>
<use x="583.03" y="107.01" xlink:href="#hd"/>
<path d="M586.53 107.01v-21.20" stroke="currentColor" fill="none"/>
<use x="602.53" y="110.01" xlink:href="#hd"/>
<path d="M606.03 110.01v-21.90" stroke="currentColor" fill="none"/>
<defs>
<path id="hl" stroke="currentColor" d="m-6 0h12"/>
</defs>
<use x="624.23" y="113.01" xlink:href="#hl"/>
<use x="624.23" y="113.01" xlink:href="#hd"/>
<path d="M627.73 113.01v-20.00" stroke="currentColor" fill="none"/>
<path fill="currentColor"
	d="	M627.73 93.01c0.6 5.6 9.6 9 5.6 18.4
	c1.6 -6 -1.3 -11.6 -5.6 -12.8
"/>
<use x="664.23" y="113.01" xlink:href="#hl"/>
<use x="664.23" y="119.01" xlink:href="#hl"/>
<use x="664.23" y="119.01" xlink:href="#hd"/>
<path d="M667.73 119.01v-24.00" stroke="currentColor" fill="none"/>
<path fill="currentColor"
	d="	M667.73 95.01c0.6 5.6 9.6 9 5.6 18.4
	c1.6 -6 -1.3 -11.6 -5.6 -12.8
"/>
<path fill="currentColor"
	d="M302.13 100.01c3.85 4.94 20.61 4.94 24.47 -0.00
	l0.00 0.22c-4.59 6.72 -19.88 6.72 -24.47 -0.22"/>
</g>
</svg>
