<?xml version="1.0" standalone="no"?>
<!DOCTYPE svg PUBLIC "-//W3C//DTD SVG 1.1//EN"
	"http://www.w3.org/Graphics/SVG/1.1/DTD/svg11.dtd">
<svg xmlns="http://www.w3.org/2000/svg" version="1.1"
	xmlns:xlink="http://www.w3.org/1999/xlink"
	xml:space='preserve' color="black"
	width="7.38in" height="1.43in" viewBox="0 0 531 103">
<title>3842.abc (3842) tune 1</title>
<!-- Creator: abcm2ps-7.8.14 -->
<!-- CreationDate: Mar 13, 2016 18:54 -->
<!-- CommandLine: -qxg 3842.abc -O ../svgs/3842.svg -->
<g transform="scale(0.750)" stroke-width="0.70" font-family="Times" font-size="20.00">
<text x="354.13" y="21.67" text-anchor="middle">3842.  Midsummer Night&apos;s Dream, Wedding March, Op. 61, No. 9, 1st. Theme</text>
</g>
<g transform="scale(0.750)" stroke-width="0.70" font-family="Times" font-size="14.00" font-style="italic">
<text x="694.93" y="45.34" text-anchor="end">Felix Mendelssohn</text>
</g>
<g transform="scale(0.525)" stroke-width="0.70" font-family="Times" font-size="14.00" font-style="italic">
<defs>
<ellipse id="hd" rx="4.1" ry="2.9"
	transform="rotate(-20)" fill="currentColor"/>
</defs>
<use x="89.90" y="94.16" xlink:href="#hd"/>
<path d="M93.40 94.16v-20.00" stroke="currentColor" fill="none"/>
</g>
<g transform="scale(0.750)" stroke-width="0.70" font-family="Times" font-size="15.00" font-weight="bold">
<text x="70.63" y="68.01">= 120</text>
<path stroke="currentColor" fill="none"
	d="M154.73 114.01v-24.00"/>
<path stroke="currentColor" fill="none"
	d="M278.83 114.01v-24.00"/>
<path stroke="currentColor" fill="none"
	d="M532.93 114.01v-24.00"/>
<path stroke="currentColor" fill="none"
	d="M694.93 114.01v-24.00"/>
<path stroke="currentColor" fill="none"
	d="M13.33 114.01h681.60m-681.60 -6h681.60m-681.60 -6h681.60m-681.60 -6h681.60m-681.60 -6h681.60"/>
<defs>
<path id="utclef" fill="currentColor" d="m-50 -90
	c-72 -41 -72 -158 52 -188
	c150 -10 220 188 90 256
	c-114 52 -275 0 -293 -136
	c-15 -181 93 -229 220 -334
	c88 -87 79 -133 62 -210
	c-51 33 -94 105 -89 186
	c17 267 36 374 49 574
	c6 96 -19 134 -77 135
	c-80 1 -126 -93 -61 -133
	c85 -41 133 101 31 105
	c23 17 92 37 90 -92
	c-10 -223 -39 -342 -50 -617
	c0 -90 0 -162 96 -232
	c56 72 63 230 22 289
	c-74 106 -257 168 -255 316
	c9 153 148 185 252 133
	c86 -65 29 -192 -80 -176
	c-71 12 -105 67 -59 124"/>
<use id="tclef" transform="scale(0.045)"
	xlink:href="#utclef"/>
</defs>
<use x="25.33" y="114.01" xlink:href="#tclef"/>
<g font-family="serif" font-size="16" font-weight="bold" font-style="normal"
	transform="translate(43.83,114.01) scale(1.2,1)">
	<text y="-1" text-anchor="middle">4</text>
	<text y="-13" text-anchor="middle">4</text>
</g>
<defs>
<path id="hl" stroke="currentColor" d="m-6 0h12"/>
</defs>
<use x="62.33" y="84.01" xlink:href="#hl"/>
<use x="62.33" y="78.01" xlink:href="#hl"/>
<defs>
<path id="Hd" fill="currentColor" d="m3 -1.6
	c-1 -1.8 -7 1.4 -6 3.2
	c1 1.8 7 -1.4 6 -3.2
	m0.5 -0.3
	c2 3.8 -5 7.6 -7 3.8
	c-2 -3.8 5 -7.6 7 -3.8"/>
</defs>
<use x="62.33" y="78.01" xlink:href="#Hd"/>
<path d="M58.83 78.01v24.00" stroke="currentColor" fill="none"/>
<use x="103.43" y="84.01" xlink:href="#hl"/>
<use x="103.43" y="81.01" xlink:href="#hd"/>
<circle fill="currentColor" cx="111.43" cy="81.01" r="1.2"/>
<path d="M99.93 81.01v21.00" stroke="currentColor" fill="none"/>
<use x="137.83" y="90.01" xlink:href="#hd"/>
<defs>
<path id="usharp" fill="currentColor" d="
	m136 -702
	v890
	h32
	v-890
	m128 840
	h32
	v-888
	h-32
	m-232 286
	v116
	l338 -96
	v-116
	m-338 442
	v116
	l338 -98
	v-114"/>
<use id="sh0" transform="translate(-4,5) scale(0.018)"
	xlink:href="#usharp"/>
</defs>
<use x="128.83" y="90.01" xlink:href="#sh0"/>
<path d="M134.33 90.01v20.00" stroke="currentColor" fill="none"/>
<path fill="currentColor"
	d="M134.33 110.01c0.6 -5.6 9.6 -9 5.6 -18.4
	c1.6 6 -1.3 11.6 -5.6 12.8
"/>
<use x="167.23" y="84.01" xlink:href="#hl"/>
<use x="167.23" y="84.01" xlink:href="#hd"/>
<path d="M163.73 84.01v20.00" stroke="currentColor" fill="none"/>
<use x="196.33" y="87.01" xlink:href="#hd"/>
<path d="M192.83 87.01v20.00" stroke="currentColor" fill="none"/>
<use x="226.23" y="90.01" xlink:href="#hd"/>
<defs>
<path id="unat" fill="currentColor" d="
	m96 -750
	h-32
	v716
	l32 -8
	l182 -54
	v282
	h32
	v-706
	l-34 10
	l-180 50
	v-290
	m0 592
	v-190
	l182 -52
	v188"/>
<use id="nt0" transform="translate(-3,5) scale(0.018)"
	xlink:href="#unat"/>
</defs>
<use x="217.23" y="90.01" xlink:href="#nt0"/>
<path d="M222.73 90.01v20.00" stroke="currentColor" fill="none"/>
<use x="255.33" y="96.01" xlink:href="#hd"/>
<path d="M251.83 96.01v20.00" stroke="currentColor" fill="none"/>
<path fill="currentColor"
	d="M287.53 126.91l30.10 0.00v-3.20l-30.10 -0.00"/>
<path fill="currentColor"
	d="M287.83 121.91l29.40 0.00v-3.20l-29.40 -0.00"/>
<path fill="currentColor"
	d="M287.83 116.91l29.40 0.00v-3.20l-29.40 -0.00"/>
<use x="291.33" y="99.01" xlink:href="#hd"/>
<path d="M287.83 99.01v27.00" stroke="currentColor" fill="none"/>
<use x="301.13" y="96.01" xlink:href="#hd"/>
<path d="M297.63 96.01v30.00" stroke="currentColor" fill="none"/>
<use x="310.93" y="99.01" xlink:href="#hd"/>
<path d="M307.43 99.01v27.00" stroke="currentColor" fill="none"/>
<use x="320.73" y="96.01" xlink:href="#hd"/>
<path d="M317.23 96.01v30.00" stroke="currentColor" fill="none"/>
<path fill="currentColor"
	d="M327.73 126.91l30.10 0.00v-3.20l-30.10 -0.00"/>
<path fill="currentColor"
	d="M328.03 121.91l29.40 0.00v-3.20l-29.40 -0.00"/>
<path fill="currentColor"
	d="M328.03 116.91l29.40 0.00v-3.20l-29.40 -0.00"/>
<use x="331.53" y="99.01" xlink:href="#hd"/>
<path d="M328.03 99.01v27.00" stroke="currentColor" fill="none"/>
<use x="341.43" y="96.01" xlink:href="#hd"/>
<path d="M337.93 96.01v30.00" stroke="currentColor" fill="none"/>
<use x="351.23" y="99.01" xlink:href="#hd"/>
<path d="M347.73 99.01v27.00" stroke="currentColor" fill="none"/>
<use x="361.03" y="96.01" xlink:href="#hd"/>
<path d="M357.53 96.01v30.00" stroke="currentColor" fill="none"/>
<path fill="currentColor"
	d="M367.93 126.91l30.10 0.00v-3.20l-30.10 -0.00"/>
<path fill="currentColor"
	d="M368.33 121.91l29.40 0.00v-3.20l-29.40 -0.00"/>
<path fill="currentColor"
	d="M368.33 116.91l29.40 0.00v-3.20l-29.40 -0.00"/>
<use x="371.83" y="99.01" xlink:href="#hd"/>
<path d="M368.33 99.01v27.00" stroke="currentColor" fill="none"/>
<use x="381.63" y="96.01" xlink:href="#hd"/>
<path d="M378.13 96.01v30.00" stroke="currentColor" fill="none"/>
<use x="391.43" y="99.01" xlink:href="#hd"/>
<path d="M387.93 99.01v27.00" stroke="currentColor" fill="none"/>
<use x="401.23" y="96.01" xlink:href="#hd"/>
<path d="M397.73 96.01v30.00" stroke="currentColor" fill="none"/>
<path fill="currentColor"
	d="M408.13 126.91l30.10 0.00v-3.20l-30.10 -0.00"/>
<path fill="currentColor"
	d="M408.53 121.91l29.40 0.00v-3.20l-29.40 -0.00"/>
<path fill="currentColor"
	d="M408.53 116.91l29.40 0.00v-3.20l-29.40 -0.00"/>
<use x="412.03" y="99.01" xlink:href="#hd"/>
<path d="M408.53 99.01v27.00" stroke="currentColor" fill="none"/>
<use x="421.83" y="96.01" xlink:href="#hd"/>
<path d="M418.33 96.01v30.00" stroke="currentColor" fill="none"/>
<use x="431.63" y="99.01" xlink:href="#hd"/>
<path d="M428.13 99.01v27.00" stroke="currentColor" fill="none"/>
<use x="441.43" y="96.01" xlink:href="#hd"/>
<path d="M437.93 96.01v30.00" stroke="currentColor" fill="none"/>
<defs>
<path id="r8e" fill="currentColor" d="m 0 0
	c-1.5 1.5 -2.4 2 -3.6 2
	c2.4 -2.8 -2.8 -4 -2.8 -1.2
	c0 2.7 4.3 2.4 5.9 0.6"/>
<g id="r32">
	<path d="m4.8 -10l-5.5 21.6" stroke="currentColor" fill="none"/>
	<use x="4.9" y="-10" xlink:href="#r8e"/>
	<use x="3.4" y="-4" xlink:href="#r8e"/>
	<use x="1.9" y="2" xlink:href="#r8e"/>
</g>
</defs>
<use x="451.23" y="102.01" xlink:href="#r32"/>
<path fill="currentColor"
	d="M458.23 120.91l26.70 0.00v-3.20l-26.70 -0.00"/>
<path fill="currentColor"
	d="M478.53 115.91l6.00 0.00v-3.20l-6.00 -0.00"/>
<path fill="currentColor"
	d="M478.53 110.91l6.00 0.00v-3.20l-6.00 -0.00"/>
<use x="462.03" y="96.01" xlink:href="#hd"/>
<circle fill="currentColor" cx="470.03" cy="93.01" r="1.2"/>
<path d="M458.53 96.01v24.00" stroke="currentColor" fill="none"/>
<use x="488.03" y="96.01" xlink:href="#hd"/>
<path d="M484.53 96.01v24.00" stroke="currentColor" fill="none"/>
<path fill="currentColor"
	d="M495.03 127.31l22.60 -5.90v-3.20l-22.60 5.90"/>
<path fill="currentColor"
	d="M511.33 118.01l6.00 -1.60v-3.20l-6.00 1.60"/>
<use x="498.83" y="108.01" xlink:href="#hd"/>
<circle fill="currentColor" cx="506.83" cy="105.01" r="1.2"/>
<path d="M495.33 108.01v18.20" stroke="currentColor" fill="none"/>
<use x="520.83" y="96.01" xlink:href="#hd"/>
<path d="M517.33 96.01v24.50" stroke="currentColor" fill="none"/>
<use x="545.43" y="93.01" xlink:href="#hd"/>
<path d="M541.93 93.01v20.00" stroke="currentColor" fill="none"/>
<use x="571.73" y="120.01" xlink:href="#hl"/>
<use x="571.73" y="120.01" xlink:href="#hd"/>
<path d="M575.23 120.01v-20.00" stroke="currentColor" fill="none"/>
<path fill="currentColor"
	d="	M575.23 100.01c0.6 5.6 9.6 9 5.6 18.4
	c1.6 -6 -1.3 -11.6 -5.6 -12.8
"/>
<use x="593.23" y="114.01" xlink:href="#hd"/>
<path d="M596.73 114.01v-20.00" stroke="currentColor" fill="none"/>
<path fill="currentColor"
	d="	M596.73 94.01c0.6 5.6 9.6 9 5.6 18.4
	c1.6 -6 -1.3 -11.6 -5.6 -12.8
"/>
<use x="614.73" y="108.01" xlink:href="#hd"/>
<path d="M618.23 108.01v-20.00" stroke="currentColor" fill="none"/>
<path fill="currentColor"
	d="	M618.23 88.01c0.6 5.6 9.6 9 5.6 18.4
	c1.6 -6 -1.3 -11.6 -5.6 -12.8
"/>
<use x="636.43" y="99.01" xlink:href="#hd"/>
<path d="M632.93 99.01v20.00" stroke="currentColor" fill="none"/>
<path fill="currentColor"
	d="M632.93 119.01c0.6 -5.6 9.6 -9 5.6 -18.4
	c1.6 6 -1.3 11.6 -5.6 12.8
"/>
<use x="657.23" y="93.01" xlink:href="#hd"/>
<path d="M653.73 93.01v20.00" stroke="currentColor" fill="none"/>
<path fill="currentColor"
	d="M653.73 113.01c0.6 -5.6 9.6 -9 5.6 -18.4
	c1.6 6 -1.3 11.6 -5.6 12.8
"/>
<use x="678.03" y="87.01" xlink:href="#hd"/>
<path d="M674.53 87.01v20.00" stroke="currentColor" fill="none"/>
<path fill="currentColor"
	d="M674.53 107.01c0.6 -5.6 9.6 -9 5.6 -18.4
	c1.6 6 -1.3 11.6 -5.6 12.8
"/>
<path fill="currentColor"
	d="M465.53 90.01c2.99 -4.84 16.01 -4.84 19.00 -0.00
	l0.00 -0.22c-3.56 -6.62 -15.44 -6.62 -19.00 0.22"/>
</g>
</svg>
