<?xml version="1.0" standalone="no"?>
<!DOCTYPE svg PUBLIC "-//W3C//DTD SVG 1.1//EN"
	"http://www.w3.org/Graphics/SVG/1.1/DTD/svg11.dtd">
<svg xmlns="http://www.w3.org/2000/svg" version="1.1"
	xmlns:xlink="http://www.w3.org/1999/xlink"
	xml:space='preserve' color="black"
	width="7.38in" height="1.46in" viewBox="0 0 531 105">
<title>3876.abc (3876) tune 1</title>
<!-- Creator: abcm2ps-7.8.14 -->
<!-- CreationDate: Mar 13, 2016 18:54 -->
<!-- CommandLine: -qxg 3876.abc -O ../svgs/3876.svg -->
<g transform="scale(0.750)" stroke-width="0.70" font-family="Times" font-size="20.00">
<text x="354.13" y="21.67" text-anchor="middle">3876.  Quartet No. 3, in D, Op. 44, No. 1, 1st. Mvt. - 1st. Theme</text>
</g>
<g transform="scale(0.750)" stroke-width="0.70" font-family="Times" font-size="14.00" font-style="italic">
<text x="694.93" y="45.34" text-anchor="end">Felix Mendelssohn</text>
</g>
<g transform="scale(0.525)" stroke-width="0.70" font-family="Times" font-size="14.00" font-style="italic">
<defs>
<ellipse id="hd" rx="4.1" ry="2.9"
	transform="rotate(-20)" fill="currentColor"/>
</defs>
<use x="114.90" y="94.16" xlink:href="#hd"/>
<path d="M118.40 94.16v-20.00" stroke="currentColor" fill="none"/>
</g>
<g transform="scale(0.750)" stroke-width="0.70" font-family="Times" font-size="15.00" font-weight="bold">
<text x="88.13" y="68.01">= 120</text>
<path stroke="currentColor" fill="none"
	d="M222.53 117.01v-24.00"/>
<path stroke="currentColor" fill="none"
	d="M361.53 117.01v-24.00"/>
<path stroke="currentColor" fill="none"
	d="M568.23 117.01v-24.00"/>
<path stroke="currentColor" fill="none"
	d="M13.33 117.01h681.60m-681.60 -6h681.60m-681.60 -6h681.60m-681.60 -6h681.60m-681.60 -6h681.60"/>
<defs>
<path id="utclef" fill="currentColor" d="m-50 -90
	c-72 -41 -72 -158 52 -188
	c150 -10 220 188 90 256
	c-114 52 -275 0 -293 -136
	c-15 -181 93 -229 220 -334
	c88 -87 79 -133 62 -210
	c-51 33 -94 105 -89 186
	c17 267 36 374 49 574
	c6 96 -19 134 -77 135
	c-80 1 -126 -93 -61 -133
	c85 -41 133 101 31 105
	c23 17 92 37 90 -92
	c-10 -223 -39 -342 -50 -617
	c0 -90 0 -162 96 -232
	c56 72 63 230 22 289
	c-74 106 -257 168 -255 316
	c9 153 148 185 252 133
	c86 -65 29 -192 -80 -176
	c-71 12 -105 67 -59 124"/>
<use id="tclef" transform="scale(0.045)"
	xlink:href="#utclef"/>
</defs>
<use x="25.33" y="117.01" xlink:href="#tclef"/>
<defs>
<path id="usharp" fill="currentColor" d="
	m136 -702
	v890
	h32
	v-890
	m128 840
	h32
	v-888
	h-32
	m-232 286
	v116
	l338 -96
	v-116
	m-338 442
	v116
	l338 -98
	v-114"/>
<use id="sh0" transform="translate(-4,5) scale(0.018)"
	xlink:href="#usharp"/>
</defs>
<use x="40.33" y="93.01" xlink:href="#sh0"/>
<use x="45.83" y="102.01" xlink:href="#sh0"/>
<g font-family="serif" font-size="16" font-weight="bold" font-style="normal"
	transform="translate(61.83,117.01) scale(1.2,1)">
	<text y="-1" text-anchor="middle">4</text>
	<text y="-13" text-anchor="middle">4</text>
</g>
<path fill="currentColor"
	d="M76.03 121.31l14.90 -3.40v-3.20l-14.90 3.40"/>
<path fill="currentColor"
	d="M76.33 116.21l14.20 -3.30v-3.20l-14.20 3.30"/>
<use x="79.83" y="99.01" xlink:href="#hd"/>
<path d="M76.33 99.01v21.20" stroke="currentColor" fill="none"/>
<use x="94.03" y="93.01" xlink:href="#hd"/>
<path d="M90.53 93.01v23.90" stroke="currentColor" fill="none"/>
<path fill="currentColor"
	d="M105.93 109.31l15.00 -2.70v-3.20l-15.00 2.70"/>
<path fill="currentColor"
	d="M106.23 104.21l14.30 -2.60v-3.20l-14.30 2.60"/>
<defs>
<path id="hl" stroke="currentColor" d="m-6 0h12"/>
</defs>
<use x="109.73" y="87.01" xlink:href="#hl"/>
<use x="109.73" y="87.01" xlink:href="#hd"/>
<path d="M106.23 87.01v21.20" stroke="currentColor" fill="none"/>
<use x="124.03" y="87.01" xlink:href="#hl"/>
<use x="124.03" y="81.01" xlink:href="#hl"/>
<use x="124.03" y="78.01" xlink:href="#hd"/>
<path d="M120.53 78.01v27.60" stroke="currentColor" fill="none"/>
<use x="139.83" y="87.01" xlink:href="#hl"/>
<use x="139.83" y="81.01" xlink:href="#hl"/>
<use x="139.83" y="75.01" xlink:href="#hl"/>
<use x="139.83" y="72.01" xlink:href="#hd"/>
<circle fill="currentColor" cx="147.83" cy="72.01" r="1.2"/>
<path d="M136.33 72.01v33.00" stroke="currentColor" fill="none"/>
<use x="175.53" y="87.01" xlink:href="#hl"/>
<use x="175.53" y="81.01" xlink:href="#hl"/>
<use x="175.53" y="75.01" xlink:href="#hl"/>
<use x="175.53" y="75.01" xlink:href="#hd"/>
<path d="M172.03 75.01v30.00" stroke="currentColor" fill="none"/>
<path fill="currentColor"
	d="M172.03 105.01c0.6 -5.6 9.6 -9 5.6 -18.4
	c1.6 6 -1.3 11.6 -5.6 12.8
"/>
<use x="197.63" y="87.01" xlink:href="#hl"/>
<use x="197.63" y="81.01" xlink:href="#hl"/>
<use x="197.63" y="78.01" xlink:href="#hd"/>
<path d="M194.13 78.01v27.00" stroke="currentColor" fill="none"/>
<use x="235.03" y="87.01" xlink:href="#hl"/>
<use x="235.03" y="81.01" xlink:href="#hl"/>
<use x="235.03" y="78.01" xlink:href="#hd"/>
<path d="M231.53 78.01v27.00" stroke="currentColor" fill="none"/>
<path fill="currentColor"
	d="M231.53 105.01c0.6 -5.6 9.6 -9 5.6 -18.4
	c1.6 6 -1.3 11.6 -5.6 12.8
"/>
<use x="257.13" y="87.01" xlink:href="#hl"/>
<use x="257.13" y="87.01" xlink:href="#hd"/>
<path d="M253.63 87.01v20.00" stroke="currentColor" fill="none"/>
<path fill="currentColor"
	d="M253.63 107.01c0.6 -5.6 9.6 -9 5.6 -18.4
	c1.6 6 -1.3 11.6 -5.6 12.8
"/>
<use x="279.13" y="93.01" xlink:href="#hd"/>
<circle fill="currentColor" cx="287.13" cy="90.01" r="1.2"/>
<path d="M275.63 93.01v20.00" stroke="currentColor" fill="none"/>
<use x="314.73" y="96.01" xlink:href="#hd"/>
<path d="M311.23 96.01v20.00" stroke="currentColor" fill="none"/>
<path fill="currentColor"
	d="M311.23 116.01c0.6 -5.6 9.6 -9 5.6 -18.4
	c1.6 6 -1.3 11.6 -5.6 12.8
"/>
<use x="336.73" y="99.01" xlink:href="#hd"/>
<path d="M333.23 99.01v20.00" stroke="currentColor" fill="none"/>
<use x="374.03" y="99.01" xlink:href="#hd"/>
<path d="M370.53 99.01v20.00" stroke="currentColor" fill="none"/>
<path fill="currentColor"
	d="M370.53 119.01c0.6 -5.6 9.6 -9 5.6 -18.4
	c1.6 6 -1.3 11.6 -5.6 12.8
"/>
<use x="393.93" y="108.01" xlink:href="#hd"/>
<path d="M397.43 108.01v-20.00" stroke="currentColor" fill="none"/>
<path fill="currentColor"
	d="	M397.43 88.01c0.6 5.6 9.6 9 5.6 18.4
	c1.6 -6 -1.3 -11.6 -5.6 -12.8
"/>
<use x="416.43" y="105.01" xlink:href="#hd"/>
<path d="M419.93 105.01v-20.00" stroke="currentColor" fill="none"/>
<path fill="currentColor"
	d="M450.43 80.81l23.70 0.00v3.20l-23.70 -0.00"/>
<path fill="currentColor"
	d="M467.83 85.81l6.00 0.00v3.20l-6.00 -0.00"/>
<use x="447.33" y="105.01" xlink:href="#hd"/>
<circle fill="currentColor" cx="455.33" cy="102.01" r="1.2"/>
<path d="M450.83 105.01v-23.20" stroke="currentColor" fill="none"/>
<use x="470.33" y="105.01" xlink:href="#hd"/>
<path d="M473.83 105.01v-23.20" stroke="currentColor" fill="none"/>
<path fill="currentColor"
	d="M482.33 129.91l31.30 0.00v-3.20l-31.30 -0.00"/>
<path fill="currentColor"
	d="M482.73 124.91l30.60 0.00v-3.20l-30.60 -0.00"/>
<path fill="currentColor"
	d="M482.73 119.91l30.60 0.00v-3.20l-30.60 -0.00"/>
<use x="486.23" y="105.01" xlink:href="#hd"/>
<path d="M482.73 105.01v24.00" stroke="currentColor" fill="none"/>
<use x="496.43" y="102.01" xlink:href="#hd"/>
<path d="M492.93 102.01v27.00" stroke="currentColor" fill="none"/>
<use x="506.63" y="105.01" xlink:href="#hd"/>
<path d="M503.13 105.01v24.00" stroke="currentColor" fill="none"/>
<use x="516.83" y="102.01" xlink:href="#hd"/>
<path d="M513.33 102.01v27.00" stroke="currentColor" fill="none"/>
<path fill="currentColor"
	d="M524.23 129.91l31.30 0.00v-3.20l-31.30 -0.00"/>
<path fill="currentColor"
	d="M524.63 124.91l30.60 0.00v-3.20l-30.60 -0.00"/>
<path fill="currentColor"
	d="M524.63 119.91l30.60 0.00v-3.20l-30.60 -0.00"/>
<use x="528.13" y="105.01" xlink:href="#hd"/>
<path d="M524.63 105.01v24.00" stroke="currentColor" fill="none"/>
<use x="538.33" y="102.01" xlink:href="#hd"/>
<path d="M534.83 102.01v27.00" stroke="currentColor" fill="none"/>
<use x="548.53" y="105.01" xlink:href="#hd"/>
<path d="M545.03 105.01v24.00" stroke="currentColor" fill="none"/>
<use x="558.73" y="102.01" xlink:href="#hd"/>
<path d="M555.23 102.01v27.00" stroke="currentColor" fill="none"/>
<path fill="currentColor"
	d="M576.93 129.91l31.30 0.00v-3.20l-31.30 -0.00"/>
<path fill="currentColor"
	d="M577.23 124.91l30.60 0.00v-3.20l-30.60 -0.00"/>
<path fill="currentColor"
	d="M577.23 119.91l30.60 0.00v-3.20l-30.60 -0.00"/>
<use x="580.73" y="105.01" xlink:href="#hd"/>
<path d="M577.23 105.01v24.00" stroke="currentColor" fill="none"/>
<use x="590.93" y="102.01" xlink:href="#hd"/>
<path d="M587.43 102.01v27.00" stroke="currentColor" fill="none"/>
<use x="601.13" y="105.01" xlink:href="#hd"/>
<path d="M597.63 105.01v24.00" stroke="currentColor" fill="none"/>
<use x="611.43" y="102.01" xlink:href="#hd"/>
<path d="M607.93 102.01v27.00" stroke="currentColor" fill="none"/>
<path fill="currentColor"
	d="M624.73 85.01l14.90 -2.20v3.20l-14.90 2.20"/>
<path fill="currentColor"
	d="M625.13 89.91l14.20 -2.10v3.20l-14.20 2.10"/>
<use x="621.63" y="108.01" xlink:href="#hd"/>
<path d="M625.13 108.01v-22.10" stroke="currentColor" fill="none"/>
<use x="635.83" y="105.01" xlink:href="#hd"/>
<path d="M639.33 105.01v-21.20" stroke="currentColor" fill="none"/>
<defs>
<path id="Hd" fill="currentColor" d="m3 -1.6
	c-1 -1.8 -7 1.4 -6 3.2
	c1 1.8 7 -1.4 6 -3.2
	m0.5 -0.3
	c2 3.8 -5 7.6 -7 3.8
	c-2 -3.8 5 -7.6 7 -3.8"/>
</defs>
<use x="651.73" y="102.01" xlink:href="#Hd"/>
<path d="M648.23 102.01v20.00" stroke="currentColor" fill="none"/>
<path fill="currentColor"
	d="M201.13 76.01c4.78 -5.05 25.58 -5.05 30.36 -0.00
	l0.00 -0.23c-5.69 -6.82 -24.67 -6.82 -30.36 0.23"/>
<path fill="currentColor"
	d="M340.23 99.01c4.78 -5.05 25.58 -5.05 30.36 -0.00
	l0.00 -0.23c-5.69 -6.82 -24.67 -6.82 -30.36 0.23"/>
</g>
</svg>
