<?xml version="1.0" standalone="no"?>
<!DOCTYPE svg PUBLIC "-//W3C//DTD SVG 1.1//EN"
	"http://www.w3.org/Graphics/SVG/1.1/DTD/svg11.dtd">
<svg xmlns="http://www.w3.org/2000/svg" version="1.1"
	xmlns:xlink="http://www.w3.org/1999/xlink"
	xml:space='preserve' color="black"
	width="7.38in" height="1.40in" viewBox="0 0 531 101">
<title>3920.abc (3920) tune 1</title>
<!-- Creator: abcm2ps-7.8.14 -->
<!-- CreationDate: Mar 13, 2016 18:54 -->
<!-- CommandLine: -qxg 3920.abc -O ../svgs/3920.svg -->
<g transform="scale(0.750)" stroke-width="0.70" font-family="Times" font-size="20.00">
<text x="354.13" y="21.67" text-anchor="middle">3920.  Songs Without Words, Scherzo, No. 16, No. 2, 2nd. Theme</text>
</g>
<g transform="scale(0.750)" stroke-width="0.70" font-family="Times" font-size="14.00" font-style="italic">
<text x="694.93" y="45.34" text-anchor="end">Felix Mendelssohn</text>
</g>
<g transform="scale(0.525)" stroke-width="0.70" font-family="Times" font-size="14.00" font-style="italic">
<defs>
<ellipse id="hd" rx="4.1" ry="2.9"
	transform="rotate(-20)" fill="currentColor"/>
</defs>
<use x="107.04" y="94.16" xlink:href="#hd"/>
<path d="M110.54 94.16v-20.00" stroke="currentColor" fill="none"/>
</g>
<g transform="scale(0.750)" stroke-width="0.70" font-family="Times" font-size="15.00" font-weight="bold">
<text x="82.63" y="68.01">= 120</text>
<path stroke="currentColor" fill="none"
	d="M348.03 111.01v-24.00"/>
<path stroke="currentColor" fill="none"
	d="M645.13 111.01v-24.00"/>
<path stroke="currentColor" fill="none"
	d="M13.33 111.01h681.60m-681.60 -6h681.60m-681.60 -6h681.60m-681.60 -6h681.60m-681.60 -6h681.60"/>
<defs>
<path id="utclef" fill="currentColor" d="m-50 -90
	c-72 -41 -72 -158 52 -188
	c150 -10 220 188 90 256
	c-114 52 -275 0 -293 -136
	c-15 -181 93 -229 220 -334
	c88 -87 79 -133 62 -210
	c-51 33 -94 105 -89 186
	c17 267 36 374 49 574
	c6 96 -19 134 -77 135
	c-80 1 -126 -93 -61 -133
	c85 -41 133 101 31 105
	c23 17 92 37 90 -92
	c-10 -223 -39 -342 -50 -617
	c0 -90 0 -162 96 -232
	c56 72 63 230 22 289
	c-74 106 -257 168 -255 316
	c9 153 148 185 252 133
	c86 -65 29 -192 -80 -176
	c-71 12 -105 67 -59 124"/>
<use id="tclef" transform="scale(0.045)"
	xlink:href="#utclef"/>
</defs>
<use x="25.33" y="111.01" xlink:href="#tclef"/>
<defs>
<path id="usharp" fill="currentColor" d="
	m136 -702
	v890
	h32
	v-890
	m128 840
	h32
	v-888
	h-32
	m-232 286
	v116
	l338 -96
	v-116
	m-338 442
	v116
	l338 -98
	v-114"/>
<use id="sh0" transform="translate(-4,5) scale(0.018)"
	xlink:href="#usharp"/>
</defs>
<use x="40.33" y="87.01" xlink:href="#sh0"/>
<g font-family="serif" font-size="16" font-weight="bold" font-style="normal"
	transform="translate(56.33,111.01) scale(1.2,1)">
	<text y="-1" text-anchor="middle">4</text>
	<text y="-13" text-anchor="middle">4</text>
</g>
<use x="74.33" y="87.01" xlink:href="#hd"/>
<path d="M70.83 87.01v20.00" stroke="currentColor" fill="none"/>
<path fill="currentColor"
	d="M70.83 107.01c0.6 -5.6 9.6 -9 5.6 -18.4
	c1.6 6 -1.3 11.6 -5.6 12.8
"/>
<defs>
<path id="hl" stroke="currentColor" d="m-6 0h12"/>
</defs>
<use x="107.53" y="81.01" xlink:href="#hl"/>
<use x="107.53" y="78.01" xlink:href="#hd"/>
<path d="M104.03 78.01v21.00" stroke="currentColor" fill="none"/>
<path fill="currentColor"
	d="M104.03 99.01c0.6 -5.6 9.6 -9 5.6 -18.4
	c1.6 6 -1.3 11.6 -5.6 12.8
"/>
<use x="140.73" y="87.01" xlink:href="#hd"/>
<path d="M137.23 87.01v20.00" stroke="currentColor" fill="none"/>
<path fill="currentColor"
	d="M137.23 107.01c0.6 -5.6 9.6 -9 5.6 -18.4
	c1.6 6 -1.3 11.6 -5.6 12.8
"/>
<defs>
<path id="r8e" fill="currentColor" d="m 0 0
	c-1.5 1.5 -2.4 2 -3.6 2
	c2.4 -2.8 -2.8 -4 -2.8 -1.2
	c0 2.7 4.3 2.4 5.9 0.6"/>
<g id="r32">
	<path d="m4.8 -10l-5.5 21.6" stroke="currentColor" fill="none"/>
	<use x="4.9" y="-10" xlink:href="#r8e"/>
	<use x="3.4" y="-4" xlink:href="#r8e"/>
	<use x="1.9" y="2" xlink:href="#r8e"/>
</g>
</defs>
<use x="170.53" y="99.01" xlink:href="#r32"/>
<use x="187.13" y="84.01" xlink:href="#hd"/>
<circle fill="currentColor" cx="195.13" cy="84.01" r="1.2"/>
<path d="M183.63 84.01v22.00" stroke="currentColor" fill="none"/>
<path fill="currentColor"
	d="M183.63 106.01c0.9 -3.7 9.1 -6.4 6 -12.4
	c1 5.4 -4.2 8.4 -6 8.4
M183.63 100.61c0.9 -3.7 9.1 -6.4 6 -12.4
	c1 5.4 -4.2 8.4 -6 8.4
"/>
<use x="213.83" y="87.01" xlink:href="#hd"/>
<path d="M210.33 87.01v20.00" stroke="currentColor" fill="none"/>
<path fill="currentColor"
	d="M210.33 107.01c0.6 -5.6 9.6 -9 5.6 -18.4
	c1.6 6 -1.3 11.6 -5.6 12.8
"/>
<use x="247.03" y="81.01" xlink:href="#hl"/>
<use x="247.03" y="78.01" xlink:href="#hd"/>
<path d="M243.53 78.01v21.00" stroke="currentColor" fill="none"/>
<path fill="currentColor"
	d="M243.53 99.01c0.6 -5.6 9.6 -9 5.6 -18.4
	c1.6 6 -1.3 11.6 -5.6 12.8
"/>
<use x="280.23" y="87.01" xlink:href="#hd"/>
<path d="M276.73 87.01v20.00" stroke="currentColor" fill="none"/>
<path fill="currentColor"
	d="M276.73 107.01c0.6 -5.6 9.6 -9 5.6 -18.4
	c1.6 6 -1.3 11.6 -5.6 12.8
"/>
<use x="310.13" y="99.01" xlink:href="#r32"/>
<use x="326.73" y="84.01" xlink:href="#hd"/>
<circle fill="currentColor" cx="334.73" cy="84.01" r="1.2"/>
<path d="M323.23 84.01v22.00" stroke="currentColor" fill="none"/>
<path fill="currentColor"
	d="M323.23 106.01c0.9 -3.7 9.1 -6.4 6 -12.4
	c1 5.4 -4.2 8.4 -6 8.4
M323.23 100.61c0.9 -3.7 9.1 -6.4 6 -12.4
	c1 5.4 -4.2 8.4 -6 8.4
"/>
<use x="364.63" y="87.01" xlink:href="#hd"/>
<path d="M361.13 87.01v20.00" stroke="currentColor" fill="none"/>
<path fill="currentColor"
	d="M361.13 107.01c0.6 -5.6 9.6 -9 5.6 -18.4
	c1.6 6 -1.3 11.6 -5.6 12.8
"/>
<use x="397.83" y="81.01" xlink:href="#hl"/>
<use x="397.83" y="75.01" xlink:href="#hl"/>
<use x="397.83" y="75.01" xlink:href="#hd"/>
<use x="388.83" y="75.01" xlink:href="#sh0"/>
<path d="M394.33 75.01v24.00" stroke="currentColor" fill="none"/>
<path fill="currentColor"
	d="M394.33 99.01c0.6 -5.6 9.6 -9 5.6 -18.4
	c1.6 6 -1.3 11.6 -5.6 12.8
"/>
<use x="431.03" y="87.01" xlink:href="#hd"/>
<path d="M427.53 87.01v20.00" stroke="currentColor" fill="none"/>
<path fill="currentColor"
	d="M427.53 107.01c0.6 -5.6 9.6 -9 5.6 -18.4
	c1.6 6 -1.3 11.6 -5.6 12.8
"/>
<use x="460.93" y="99.01" xlink:href="#r32"/>
<use x="477.43" y="84.01" xlink:href="#hd"/>
<circle fill="currentColor" cx="485.43" cy="84.01" r="1.2"/>
<path d="M473.93 84.01v22.00" stroke="currentColor" fill="none"/>
<path fill="currentColor"
	d="M473.93 106.01c0.9 -3.7 9.1 -6.4 6 -12.4
	c1 5.4 -4.2 8.4 -6 8.4
M473.93 100.61c0.9 -3.7 9.1 -6.4 6 -12.4
	c1 5.4 -4.2 8.4 -6 8.4
"/>
<use x="504.13" y="87.01" xlink:href="#hd"/>
<path d="M500.63 87.01v20.00" stroke="currentColor" fill="none"/>
<path fill="currentColor"
	d="M500.63 107.01c0.6 -5.6 9.6 -9 5.6 -18.4
	c1.6 6 -1.3 11.6 -5.6 12.8
"/>
<use x="534.03" y="99.01" xlink:href="#r32"/>
<use x="550.63" y="84.01" xlink:href="#hd"/>
<circle fill="currentColor" cx="558.63" cy="84.01" r="1.2"/>
<path d="M547.13 84.01v22.00" stroke="currentColor" fill="none"/>
<path fill="currentColor"
	d="M547.13 106.01c0.9 -3.7 9.1 -6.4 6 -12.4
	c1 5.4 -4.2 8.4 -6 8.4
M547.13 100.61c0.9 -3.7 9.1 -6.4 6 -12.4
	c1 5.4 -4.2 8.4 -6 8.4
"/>
<use x="577.33" y="87.01" xlink:href="#hd"/>
<path d="M573.83 87.01v20.00" stroke="currentColor" fill="none"/>
<path fill="currentColor"
	d="M573.83 107.01c0.6 -5.6 9.6 -9 5.6 -18.4
	c1.6 6 -1.3 11.6 -5.6 12.8
"/>
<use x="607.23" y="99.01" xlink:href="#r32"/>
<use x="623.83" y="84.01" xlink:href="#hd"/>
<circle fill="currentColor" cx="631.83" cy="84.01" r="1.2"/>
<path d="M620.33 84.01v22.00" stroke="currentColor" fill="none"/>
<path fill="currentColor"
	d="M620.33 106.01c0.9 -3.7 9.1 -6.4 6 -12.4
	c1 5.4 -4.2 8.4 -6 8.4
M620.33 100.61c0.9 -3.7 9.1 -6.4 6 -12.4
	c1 5.4 -4.2 8.4 -6 8.4
"/>
<use x="661.73" y="87.01" xlink:href="#hd"/>
<path d="M658.23 87.01v20.00" stroke="currentColor" fill="none"/>
<path fill="currentColor"
	d="M658.23 107.01c0.6 -5.6 9.6 -9 5.6 -18.4
	c1.6 6 -1.3 11.6 -5.6 12.8
"/>
</g>
</svg>
