<?xml version="1.0" standalone="no"?>
<!DOCTYPE svg PUBLIC "-//W3C//DTD SVG 1.1//EN"
	"http://www.w3.org/Graphics/SVG/1.1/DTD/svg11.dtd">
<svg xmlns="http://www.w3.org/2000/svg" version="1.1"
	xmlns:xlink="http://www.w3.org/1999/xlink"
	xml:space='preserve' color="black"
	width="7.38in" height="1.34in" viewBox="0 0 531 97">
<title>3942.abc (3942) tune 1</title>
<!-- Creator: abcm2ps-7.8.14 -->
<!-- CreationDate: Mar 13, 2016 18:54 -->
<!-- CommandLine: -qxg 3942.abc -O ../svgs/3942.svg -->
<g transform="scale(0.750)" stroke-width="0.70" font-family="Times" font-size="20.00">
<text x="354.13" y="21.67" text-anchor="middle">3942.  Symphony No. 4, in A, Op. 90, 3rd. Mvt. - 2nd. Theme</text>
</g>
<g transform="scale(0.750)" stroke-width="0.70" font-family="Times" font-size="14.00" font-style="italic">
<text x="694.93" y="45.34" text-anchor="end">Felix Mendelssohn</text>
</g>
<g transform="scale(0.525)" stroke-width="0.70" font-family="Times" font-size="14.00" font-style="italic">
<defs>
<ellipse id="hd" rx="4.1" ry="2.9"
	transform="rotate(-20)" fill="currentColor"/>
</defs>
<use x="130.61" y="94.16" xlink:href="#hd"/>
<path d="M134.11 94.16v-20.00" stroke="currentColor" fill="none"/>
</g>
<g transform="scale(0.750)" stroke-width="0.70" font-family="Times" font-size="15.00" font-weight="bold">
<text x="99.13" y="68.01">= 120</text>
<path stroke="currentColor" fill="none"
	d="M178.03 106.01v-24.00"/>
<path stroke="currentColor" fill="none"
	d="M255.93 106.01v-24.00"/>
<path stroke="currentColor" fill="none"
	d="M386.93 106.01v-24.00"/>
<path stroke="currentColor" fill="none"
	d="M545.73 106.01v-24.00"/>
<path stroke="currentColor" fill="none"
	d="M652.63 106.01v-24.00"/>
<path stroke="currentColor" fill="none"
	d="M13.33 106.01h681.60m-681.60 -6h681.60m-681.60 -6h681.60m-681.60 -6h681.60m-681.60 -6h681.60"/>
<defs>
<path id="utclef" fill="currentColor" d="m-50 -90
	c-72 -41 -72 -158 52 -188
	c150 -10 220 188 90 256
	c-114 52 -275 0 -293 -136
	c-15 -181 93 -229 220 -334
	c88 -87 79 -133 62 -210
	c-51 33 -94 105 -89 186
	c17 267 36 374 49 574
	c6 96 -19 134 -77 135
	c-80 1 -126 -93 -61 -133
	c85 -41 133 101 31 105
	c23 17 92 37 90 -92
	c-10 -223 -39 -342 -50 -617
	c0 -90 0 -162 96 -232
	c56 72 63 230 22 289
	c-74 106 -257 168 -255 316
	c9 153 148 185 252 133
	c86 -65 29 -192 -80 -176
	c-71 12 -105 67 -59 124"/>
<use id="tclef" transform="scale(0.045)"
	xlink:href="#utclef"/>
</defs>
<use x="25.33" y="106.01" xlink:href="#tclef"/>
<defs>
<path id="usharp" fill="currentColor" d="
	m136 -702
	v890
	h32
	v-890
	m128 840
	h32
	v-888
	h-32
	m-232 286
	v116
	l338 -96
	v-116
	m-338 442
	v116
	l338 -98
	v-114"/>
<use id="sh0" transform="translate(-4,5) scale(0.018)"
	xlink:href="#usharp"/>
</defs>
<use x="40.33" y="82.01" xlink:href="#sh0"/>
<use x="45.83" y="91.01" xlink:href="#sh0"/>
<use x="51.33" y="79.01" xlink:href="#sh0"/>
<use x="56.83" y="88.01" xlink:href="#sh0"/>
<g font-family="serif" font-size="16" font-weight="bold" font-style="normal"
	transform="translate(72.83,106.01) scale(1.2,1)">
	<text y="-1" text-anchor="middle">4</text>
	<text y="-13" text-anchor="middle">3</text>
</g>
<path fill="currentColor"
	d="M94.03 80.01l20.50 0.00v3.20l-20.50 -0.00"/>
<path fill="currentColor"
	d="M108.13 85.01l6.00 0.00v3.20l-6.00 -0.00"/>
<use x="90.83" y="103.01" xlink:href="#hd"/>
<path d="M94.33 103.01v-22.00" stroke="currentColor" fill="none"/>
<use x="110.63" y="103.01" xlink:href="#hd"/>
<path d="M114.13 103.01v-22.00" stroke="currentColor" fill="none"/>
<use x="126.33" y="103.01" xlink:href="#hd"/>
<path d="M129.83 103.01v-21.00" stroke="currentColor" fill="none"/>
<path fill="currentColor"
	d="M129.83 82.01c0.9 3.7 9.1 6.4 6 12.4
	c1 -5.4 -4.2 -8.4 -6 -8.4
M129.83 87.41c0.9 3.7 9.1 6.4 6 12.4
	c1 -5.4 -4.2 -8.4 -6 -8.4
"/>
<defs>
<path id="Hd" fill="currentColor" d="m3 -1.6
	c-1 -1.8 -7 1.4 -6 3.2
	c1 1.8 7 -1.4 6 -3.2
	m0.5 -0.3
	c2 3.8 -5 7.6 -7 3.8
	c-2 -3.8 5 -7.6 7 -3.8"/>
</defs>
<use x="143.33" y="103.01" xlink:href="#Hd"/>
<path d="M146.83 103.01v-20.00" stroke="currentColor" fill="none"/>
<use x="190.53" y="100.01" xlink:href="#hd"/>
<path d="M194.03 100.01v-20.00" stroke="currentColor" fill="none"/>
<use x="221.23" y="103.01" xlink:href="#Hd"/>
<path d="M224.73 103.01v-20.00" stroke="currentColor" fill="none"/>
<use x="268.43" y="100.01" xlink:href="#hd"/>
<path d="M271.93 100.01v-20.00" stroke="currentColor" fill="none"/>
<path fill="currentColor"
	d="M302.23 74.01l75.80 0.00v3.20l-75.80 -0.00"/>
<path fill="currentColor"
	d="M319.63 79.01l6.00 0.00v3.20l-6.00 -0.00"/>
<path fill="currentColor"
	d="M371.63 79.01l6.00 0.00v3.20l-6.00 -0.00"/>
<use x="299.03" y="103.01" xlink:href="#hd"/>
<circle fill="currentColor" cx="307.03" cy="103.01" r="1.2"/>
<path d="M302.53 103.01v-28.00" stroke="currentColor" fill="none"/>
<use x="322.13" y="100.01" xlink:href="#hd"/>
<path d="M325.63 100.01v-25.00" stroke="currentColor" fill="none"/>
<use x="336.33" y="97.01" xlink:href="#hd"/>
<path d="M339.83 97.01v-22.00" stroke="currentColor" fill="none"/>
<defs>
<path id="r8e" fill="currentColor" d="m 0 0
	c-1.5 1.5 -2.4 2 -3.6 2
	c2.4 -2.8 -2.8 -4 -2.8 -1.2
	c0 2.7 4.3 2.4 5.9 0.6"/>
<g id="r16">
	<path d="m3.3 -4l-4 15.6" stroke="currentColor" fill="none"/>
	<use x="3.4" y="-4" xlink:href="#r8e"/>
	<use x="1.9" y="2" xlink:href="#r8e"/>
</g>
</defs>
<use x="356.13" y="94.01" xlink:href="#r16"/>
<use x="374.13" y="97.01" xlink:href="#hd"/>
<use x="365.13" y="97.01" xlink:href="#sh0"/>
<path d="M377.63 97.01v-22.00" stroke="currentColor" fill="none"/>
<use x="399.43" y="94.01" xlink:href="#hd"/>
<path d="M395.93 94.01v20.00" stroke="currentColor" fill="none"/>
<path fill="currentColor"
	d="M395.93 114.01c0.6 -5.6 9.6 -9 5.6 -18.4
	c1.6 6 -1.3 11.6 -5.6 12.8
"/>
<use x="419.23" y="94.01" xlink:href="#r16"/>
<path fill="currentColor"
	d="M431.13 113.31l14.90 -2.20v-3.20l-14.90 2.20"/>
<path fill="currentColor"
	d="M437.43 107.31l-6.00 0.90v-3.20l6.00 -0.90"/>
<use x="434.93" y="91.01" xlink:href="#hd"/>
<path d="M431.43 91.01v21.20" stroke="currentColor" fill="none"/>
<use x="449.23" y="88.01" xlink:href="#hd"/>
<path d="M445.73 88.01v22.10" stroke="currentColor" fill="none"/>
<use x="469.03" y="94.01" xlink:href="#r16"/>
<path fill="currentColor"
	d="M480.83 114.41l48.90 -2.80v-3.20l-48.90 2.80"/>
<path fill="currentColor"
	d="M487.23 109.01l-6.00 0.30v-3.20l6.00 -0.30"/>
<path fill="currentColor"
	d="M523.43 106.91l6.00 -0.30v-3.20l-6.00 0.30"/>
<use x="484.73" y="85.01" xlink:href="#hd"/>
<path d="M481.23 85.01v28.30" stroke="currentColor" fill="none"/>
<use x="498.93" y="82.01" xlink:href="#hd"/>
<path d="M495.43 82.01v30.50" stroke="currentColor" fill="none"/>
<use x="518.73" y="94.01" xlink:href="#r16"/>
<use x="532.93" y="79.01" xlink:href="#hd"/>
<path d="M529.43 79.01v31.60" stroke="currentColor" fill="none"/>
<defs>
<path id="hl" stroke="currentColor" d="m-6 0h12"/>
</defs>
<use x="564.23" y="76.01" xlink:href="#hl"/>
<use x="564.23" y="76.01" xlink:href="#hd"/>
<defs>
<path id="unat" fill="currentColor" d="
	m96 -750
	h-32
	v716
	l32 -8
	l182 -54
	v282
	h32
	v-706
	l-34 10
	l-180 50
	v-290
	m0 592
	v-190
	l182 -52
	v188"/>
<use id="nt0" transform="translate(-3,5) scale(0.018)"
	xlink:href="#unat"/>
</defs>
<use x="555.23" y="76.01" xlink:href="#nt0"/>
<path d="M560.73 76.01v20.00" stroke="currentColor" fill="none"/>
<path fill="currentColor"
	d="M560.73 96.01c0.6 -5.6 9.6 -9 5.6 -18.4
	c1.6 6 -1.3 11.6 -5.6 12.8
"/>
<use x="584.03" y="94.01" xlink:href="#r16"/>
<use x="602.03" y="76.01" xlink:href="#hl"/>
<use x="602.03" y="76.01" xlink:href="#hd"/>
<use x="593.03" y="76.01" xlink:href="#sh0"/>
<path d="M598.53 76.01v22.00" stroke="currentColor" fill="none"/>
<path fill="currentColor"
	d="M598.53 98.01c0.9 -3.7 9.1 -6.4 6 -12.4
	c1 5.4 -4.2 8.4 -6 8.4
M598.53 92.61c0.9 -3.7 9.1 -6.4 6 -12.4
	c1 5.4 -4.2 8.4 -6 8.4
"/>
<use x="617.93" y="76.01" xlink:href="#hl"/>
<use x="617.93" y="73.01" xlink:href="#Hd"/>
<path d="M614.43 73.01v21.00" stroke="currentColor" fill="none"/>
<use x="665.13" y="76.01" xlink:href="#hl"/>
<use x="665.13" y="73.01" xlink:href="#hd"/>
<path d="M661.63 73.01v21.00" stroke="currentColor" fill="none"/>
<path fill="currentColor"
	d="M621.43 71.01c6.32 -5.22 33.85 -5.22 40.17 -0.00
	l0.00 -0.24c-7.53 -6.98 -32.64 -6.98 -40.17 0.24"/>
</g>
</svg>
