<?xml version="1.0" standalone="no"?>
<!DOCTYPE svg PUBLIC "-//W3C//DTD SVG 1.1//EN"
	"http://www.w3.org/Graphics/SVG/1.1/DTD/svg11.dtd">
<svg xmlns="http://www.w3.org/2000/svg" version="1.1"
	xmlns:xlink="http://www.w3.org/1999/xlink"
	xml:space='preserve' color="black"
	width="7.38in" height="1.34in" viewBox="0 0 531 97">
<title>3983.abc (3983) tune 1</title>
<!-- Creator: abcm2ps-7.8.14 -->
<!-- CreationDate: Mar 13, 2016 18:54 -->
<!-- CommandLine: -qxg 3983.abc -O ../svgs/3983.svg -->
<g transform="scale(0.750)" stroke-width="0.70" font-family="Times" font-size="20.00">
<text x="354.13" y="21.67" text-anchor="middle">3983.  Sinfonietta in B Minor, Op. 32, No. 2, 3rd. Mvt. - 3rd. Theme</text>
</g>
<g transform="scale(0.750)" stroke-width="0.70" font-family="Times" font-size="14.00" font-style="italic">
<text x="694.93" y="45.34" text-anchor="end">Nicolas Miaskovsky</text>
</g>
<g transform="scale(0.525)" stroke-width="0.70" font-family="Times" font-size="14.00" font-style="italic">
<defs>
<ellipse id="hd" rx="4.1" ry="2.9"
	transform="rotate(-20)" fill="currentColor"/>
</defs>
<use x="107.04" y="94.16" xlink:href="#hd"/>
<path d="M110.54 94.16v-20.00" stroke="currentColor" fill="none"/>
</g>
<g transform="scale(0.750)" stroke-width="0.70" font-family="Times" font-size="15.00" font-weight="bold">
<text x="82.63" y="68.01">= 120</text>
<path stroke="currentColor" fill="none"
	d="M243.53 106.01v-24.00"/>
<path stroke="currentColor" fill="none"
	d="M401.93 106.01v-24.00"/>
<path stroke="currentColor" fill="none"
	d="M551.13 106.01v-24.00"/>
<path stroke="currentColor" fill="none"
	d="M13.33 106.01h681.60m-681.60 -6h681.60m-681.60 -6h681.60m-681.60 -6h681.60m-681.60 -6h681.60"/>
<text font-family="serif" font-size="12" font-style="italic" font-weight="normal"
	x="621.03" y="83.01" text-anchor="middle">3</text>
<defs>
<path id="utclef" fill="currentColor" d="m-50 -90
	c-72 -41 -72 -158 52 -188
	c150 -10 220 188 90 256
	c-114 52 -275 0 -293 -136
	c-15 -181 93 -229 220 -334
	c88 -87 79 -133 62 -210
	c-51 33 -94 105 -89 186
	c17 267 36 374 49 574
	c6 96 -19 134 -77 135
	c-80 1 -126 -93 -61 -133
	c85 -41 133 101 31 105
	c23 17 92 37 90 -92
	c-10 -223 -39 -342 -50 -617
	c0 -90 0 -162 96 -232
	c56 72 63 230 22 289
	c-74 106 -257 168 -255 316
	c9 153 148 185 252 133
	c86 -65 29 -192 -80 -176
	c-71 12 -105 67 -59 124"/>
<use id="tclef" transform="scale(0.045)"
	xlink:href="#utclef"/>
</defs>
<use x="25.33" y="106.01" xlink:href="#tclef"/>
<defs>
<path id="usharp" fill="currentColor" d="
	m136 -702
	v890
	h32
	v-890
	m128 840
	h32
	v-888
	h-32
	m-232 286
	v116
	l338 -96
	v-116
	m-338 442
	v116
	l338 -98
	v-114"/>
<use id="sh0" transform="translate(-4,5) scale(0.018)"
	xlink:href="#usharp"/>
</defs>
<use x="40.33" y="82.01" xlink:href="#sh0"/>
<g font-family="serif" font-size="16" font-weight="bold" font-style="normal"
	transform="translate(56.33,106.01) scale(1.2,1)">
	<text y="-1" text-anchor="middle">4</text>
	<text y="-13" text-anchor="middle">4</text>
</g>
<defs>
<path id="r8e" fill="currentColor" d="m 0 0
	c-1.5 1.5 -2.4 2 -3.6 2
	c2.4 -2.8 -2.8 -4 -2.8 -1.2
	c0 2.7 4.3 2.4 5.9 0.6"/>
<g id="r32">
	<path d="m4.8 -10l-5.5 21.6" stroke="currentColor" fill="none"/>
	<use x="4.9" y="-10" xlink:href="#r8e"/>
	<use x="3.4" y="-4" xlink:href="#r8e"/>
	<use x="1.9" y="2" xlink:href="#r8e"/>
</g>
</defs>
<use x="74.33" y="94.01" xlink:href="#r32"/>
<use x="86.13" y="94.01" xlink:href="#r32"/>
<defs>
<path id="hl" stroke="currentColor" d="m-6 0h12"/>
</defs>
<use x="97.93" y="112.01" xlink:href="#hl"/>
<use x="97.93" y="115.01" xlink:href="#hd"/>
<circle fill="currentColor" cx="105.93" cy="115.01" r="1.2"/>
<path d="M101.43 115.01v-21.00" stroke="currentColor" fill="none"/>
<path fill="currentColor"
	d="	M101.43 94.01c0.6 5.6 9.6 9 5.6 18.4
	c1.6 -6 -1.3 -11.6 -5.6 -12.8
"/>
<defs>
<path id="r4" fill="currentColor" d="m-1 -8.5
	l3.6 5.1 -2.1 5.2 2.2 4.3
	c-2.6 -2.3 -5.1 0 -2.4 2.6
	c-4.8 -3 -1.5 -6.9 1.4 -4.1
	l-3.1 -4.5 1.9 -5.1 -1.5 -3.5"/>
</defs>
<use x="127.63" y="94.01" xlink:href="#r4"/>
<use x="160.73" y="94.01" xlink:href="#r32"/>
<use x="172.53" y="94.01" xlink:href="#r32"/>
<use x="184.33" y="112.01" xlink:href="#hl"/>
<use x="184.33" y="115.01" xlink:href="#hd"/>
<circle fill="currentColor" cx="192.33" cy="115.01" r="1.2"/>
<path d="M187.83 115.01v-21.00" stroke="currentColor" fill="none"/>
<path fill="currentColor"
	d="	M187.83 94.01c0.6 5.6 9.6 9 5.6 18.4
	c1.6 -6 -1.3 -11.6 -5.6 -12.8
"/>
<use x="214.03" y="94.01" xlink:href="#r4"/>
<use x="256.63" y="112.01" xlink:href="#hl"/>
<use x="256.63" y="115.01" xlink:href="#hd"/>
<path d="M260.13 115.01v-21.00" stroke="currentColor" fill="none"/>
<path fill="currentColor"
	d="M260.13 94.01c0.9 3.7 9.1 6.4 6 12.4
	c1 -5.4 -4.2 -8.4 -6 -8.4
M260.13 99.41c0.9 3.7 9.1 6.4 6 12.4
	c1 -5.4 -4.2 -8.4 -6 -8.4
"/>
<use x="275.13" y="109.01" xlink:href="#hd"/>
<circle fill="currentColor" cx="283.13" cy="109.01" r="1.2"/>
<path d="M278.63 109.01v-20.00" stroke="currentColor" fill="none"/>
<use x="317.13" y="106.01" xlink:href="#hd"/>
<path d="M320.63 106.01v-21.00" stroke="currentColor" fill="none"/>
<path fill="currentColor"
	d="M320.63 85.01c0.9 3.7 9.1 6.4 6 12.4
	c1 -5.4 -4.2 -8.4 -6 -8.4
M320.63 90.41c0.9 3.7 9.1 6.4 6 12.4
	c1 -5.4 -4.2 -8.4 -6 -8.4
"/>
<use x="335.63" y="112.01" xlink:href="#hl"/>
<use x="335.63" y="115.01" xlink:href="#hd"/>
<path d="M339.13 115.01v-21.00" stroke="currentColor" fill="none"/>
<use x="372.43" y="94.01" xlink:href="#r4"/>
<use x="415.03" y="94.01" xlink:href="#r4"/>
<use x="448.13" y="112.01" xlink:href="#hl"/>
<use x="448.13" y="115.01" xlink:href="#hd"/>
<path d="M451.63 115.01v-21.00" stroke="currentColor" fill="none"/>
<use x="484.93" y="109.01" xlink:href="#hd"/>
<path d="M488.43 109.01v-20.00" stroke="currentColor" fill="none"/>
<use x="521.73" y="106.01" xlink:href="#hd"/>
<path d="M525.23 106.01v-20.00" stroke="currentColor" fill="none"/>
<use x="564.33" y="112.01" xlink:href="#hl"/>
<use x="564.33" y="115.01" xlink:href="#hd"/>
<path d="M567.83 115.01v-21.00" stroke="currentColor" fill="none"/>
<path fill="currentColor"
	d="M604.23 91.01l37.40 0.00v3.20l-37.40 -0.00"/>
<use x="601.13" y="109.01" xlink:href="#hd"/>
<path d="M604.63 109.01v-17.00" stroke="currentColor" fill="none"/>
<use x="619.53" y="112.01" xlink:href="#hl"/>
<use x="619.53" y="118.01" xlink:href="#hl"/>
<use x="619.53" y="118.01" xlink:href="#hd"/>
<use x="610.53" y="118.01" xlink:href="#sh0"/>
<path d="M623.03 118.01v-26.00" stroke="currentColor" fill="none"/>
<use x="637.83" y="109.01" xlink:href="#hd"/>
<path d="M641.33 109.01v-17.00" stroke="currentColor" fill="none"/>
<use x="658.23" y="112.01" xlink:href="#hl"/>
<use x="658.23" y="115.01" xlink:href="#hd"/>
<path d="M661.73 115.01v-21.00" stroke="currentColor" fill="none"/>
</g>
</svg>
