<?xml version="1.0" standalone="no"?>
<!DOCTYPE svg PUBLIC "-//W3C//DTD SVG 1.1//EN"
	"http://www.w3.org/Graphics/SVG/1.1/DTD/svg11.dtd">
<svg xmlns="http://www.w3.org/2000/svg" version="1.1"
	xmlns:xlink="http://www.w3.org/1999/xlink"
	xml:space='preserve' color="black"
	width="7.38in" height="1.34in" viewBox="0 0 531 97">
<title>3987.abc (3987) tune 1</title>
<!-- Creator: abcm2ps-7.8.14 -->
<!-- CreationDate: Mar 13, 2016 18:54 -->
<!-- CommandLine: -qxg 3987.abc -O ../svgs/3987.svg -->
<g transform="scale(0.750)" stroke-width="0.70" font-family="Times" font-size="20.00">
<text x="354.13" y="21.67" text-anchor="middle">3987.  Symphony No. 21, in F Sharp Minor, Op. 51, 4th. Theme</text>
</g>
<g transform="scale(0.750)" stroke-width="0.70" font-family="Times" font-size="14.00" font-style="italic">
<text x="694.93" y="45.34" text-anchor="end">Nicolas Miaskovsky</text>
</g>
<g transform="scale(0.525)" stroke-width="0.70" font-family="Times" font-size="14.00" font-style="italic">
<defs>
<ellipse id="hd" rx="4.1" ry="2.9"
	transform="rotate(-20)" fill="currentColor"/>
</defs>
<use x="89.19" y="94.16" xlink:href="#hd"/>
<path d="M92.69 94.16v-20.00" stroke="currentColor" fill="none"/>
</g>
<g transform="scale(0.750)" stroke-width="0.70" font-family="Times" font-size="15.00" font-weight="bold">
<text x="70.13" y="68.01">= 120</text>
<path stroke="currentColor" fill="none"
	d="M158.43 106.01v-24.00"/>
<path stroke="currentColor" fill="none"
	d="M272.93 106.01v-24.00"/>
<path stroke="currentColor" fill="none"
	d="M387.43 106.01v-24.00"/>
<path stroke="currentColor" fill="none"
	d="M502.03 106.01v-24.00"/>
<path stroke="currentColor" fill="none"
	d="M655.23 106.01v-24.00"/>
<path stroke="currentColor" fill="none"
	d="M13.33 106.01h681.60m-681.60 -6h681.60m-681.60 -6h681.60m-681.60 -6h681.60m-681.60 -6h681.60"/>
<defs>
<path id="utclef" fill="currentColor" d="m-50 -90
	c-72 -41 -72 -158 52 -188
	c150 -10 220 188 90 256
	c-114 52 -275 0 -293 -136
	c-15 -181 93 -229 220 -334
	c88 -87 79 -133 62 -210
	c-51 33 -94 105 -89 186
	c17 267 36 374 49 574
	c6 96 -19 134 -77 135
	c-80 1 -126 -93 -61 -133
	c85 -41 133 101 31 105
	c23 17 92 37 90 -92
	c-10 -223 -39 -342 -50 -617
	c0 -90 0 -162 96 -232
	c56 72 63 230 22 289
	c-74 106 -257 168 -255 316
	c9 153 148 185 252 133
	c86 -65 29 -192 -80 -176
	c-71 12 -105 67 -59 124"/>
<use id="tclef" transform="scale(0.045)"
	xlink:href="#utclef"/>
</defs>
<use x="25.33" y="106.01" xlink:href="#tclef"/>
<g font-family="serif" font-size="16" font-weight="bold" font-style="normal"
	transform="translate(43.83,106.01) scale(1.2,1)">
	<text y="-1" text-anchor="middle">4</text>
	<text y="-13" text-anchor="middle">2</text>
</g>
<defs>
<path id="r8e" fill="currentColor" d="m 0 0
	c-1.5 1.5 -2.4 2 -3.6 2
	c2.4 -2.8 -2.8 -4 -2.8 -1.2
	c0 2.7 4.3 2.4 5.9 0.6"/>
<g id="r32">
	<path d="m4.8 -10l-5.5 21.6" stroke="currentColor" fill="none"/>
	<use x="4.9" y="-10" xlink:href="#r8e"/>
	<use x="3.4" y="-4" xlink:href="#r8e"/>
	<use x="1.9" y="2" xlink:href="#r8e"/>
</g>
</defs>
<use x="61.83" y="94.01" xlink:href="#r32"/>
<path fill="currentColor"
	d="M76.93 87.01l36.60 0.00v3.20l-36.60 -0.00"/>
<path fill="currentColor"
	d="M101.23 92.01l12.00 0.00v3.20l-12.00 -0.00"/>
<path fill="currentColor"
	d="M107.23 97.01l-6.00 -0.00v3.20l6.00 0.00"/>
<defs>
<path id="hl" stroke="currentColor" d="m-6 0h12"/>
</defs>
<use x="73.83" y="112.01" xlink:href="#hl"/>
<use x="73.83" y="112.01" xlink:href="#hd"/>
<path d="M77.33 112.01v-24.00" stroke="currentColor" fill="none"/>
<use x="97.73" y="112.01" xlink:href="#hl"/>
<use x="97.73" y="112.01" xlink:href="#hd"/>
<path d="M101.23 112.01v-24.00" stroke="currentColor" fill="none"/>
<use x="109.73" y="112.01" xlink:href="#hl"/>
<use x="109.73" y="118.01" xlink:href="#hl"/>
<use x="109.73" y="118.01" xlink:href="#hd"/>
<path d="M113.23 118.01v-30.00" stroke="currentColor" fill="none"/>
<use x="128.53" y="106.01" xlink:href="#hd"/>
<path d="M132.03 106.01v-20.00" stroke="currentColor" fill="none"/>
<use x="171.83" y="106.01" xlink:href="#hd"/>
<path d="M175.33 106.01v-20.00" stroke="currentColor" fill="none"/>
<path fill="currentColor"
	d="	M175.33 86.01c0.6 5.6 9.6 9 5.6 18.4
	c1.6 -6 -1.3 -11.6 -5.6 -12.8
"/>
<use x="198.33" y="100.01" xlink:href="#hd"/>
<path d="M201.83 100.01v-20.00" stroke="currentColor" fill="none"/>
<path fill="currentColor"
	d="	M201.83 80.01c0.6 5.6 9.6 9 5.6 18.4
	c1.6 -6 -1.3 -11.6 -5.6 -12.8
"/>
<use x="225.03" y="103.01" xlink:href="#hd"/>
<defs>
<path id="usharp" fill="currentColor" d="
	m136 -702
	v890
	h32
	v-890
	m128 840
	h32
	v-888
	h-32
	m-232 286
	v116
	l338 -96
	v-116
	m-338 442
	v116
	l338 -98
	v-114"/>
<use id="sh0" transform="translate(-4,5) scale(0.018)"
	xlink:href="#usharp"/>
</defs>
<use x="216.03" y="103.01" xlink:href="#sh0"/>
<path d="M228.53 103.01v-20.00" stroke="currentColor" fill="none"/>
<path fill="currentColor"
	d="	M228.53 83.01c0.6 5.6 9.6 9 5.6 18.4
	c1.6 -6 -1.3 -11.6 -5.6 -12.8
"/>
<use x="251.63" y="109.01" xlink:href="#hd"/>
<path d="M255.13 109.01v-20.00" stroke="currentColor" fill="none"/>
<path fill="currentColor"
	d="	M255.13 89.01c0.6 5.6 9.6 9 5.6 18.4
	c1.6 -6 -1.3 -11.6 -5.6 -12.8
"/>
<path fill="currentColor"
	d="M289.43 81.81l17.60 0.00v3.20l-17.60 -0.00"/>
<path fill="currentColor"
	d="M289.73 86.81l16.90 0.00v3.20l-16.90 -0.00"/>
<use x="286.23" y="106.01" xlink:href="#hd"/>
<path d="M289.73 106.01v-23.20" stroke="currentColor" fill="none"/>
<use x="303.13" y="106.01" xlink:href="#hd"/>
<path d="M306.63 106.01v-23.20" stroke="currentColor" fill="none"/>
<path fill="currentColor"
	d="M325.03 89.81l17.60 2.30v3.20l-17.60 -2.30"/>
<path fill="currentColor"
	d="M325.43 94.81l16.90 2.20v3.20l-16.90 -2.20"/>
<use x="321.93" y="112.01" xlink:href="#hl"/>
<use x="321.93" y="112.01" xlink:href="#hd"/>
<path d="M325.43 112.01v-21.20" stroke="currentColor" fill="none"/>
<use x="338.83" y="112.01" xlink:href="#hl"/>
<use x="338.83" y="118.01" xlink:href="#hl"/>
<use x="338.83" y="118.01" xlink:href="#hd"/>
<path d="M342.33 118.01v-25.00" stroke="currentColor" fill="none"/>
<use x="357.53" y="109.01" xlink:href="#hd"/>
<path d="M361.03 109.01v-20.00" stroke="currentColor" fill="none"/>
<path fill="currentColor"
	d="M403.93 86.11l17.60 -2.30v3.20l-17.60 2.30"/>
<path fill="currentColor"
	d="M404.33 91.01l16.90 -2.20v3.20l-16.90 2.20"/>
<use x="400.83" y="109.01" xlink:href="#hd"/>
<path d="M404.33 109.01v-22.00" stroke="currentColor" fill="none"/>
<use x="417.73" y="106.01" xlink:href="#hd"/>
<path d="M421.23 106.01v-21.20" stroke="currentColor" fill="none"/>
<path fill="currentColor"
	d="M439.63 89.81l17.60 2.30v3.20l-17.60 -2.30"/>
<path fill="currentColor"
	d="M439.93 94.81l16.90 2.20v3.20l-16.90 -2.20"/>
<use x="436.43" y="112.01" xlink:href="#hl"/>
<use x="436.43" y="112.01" xlink:href="#hd"/>
<path d="M439.93 112.01v-21.20" stroke="currentColor" fill="none"/>
<use x="453.33" y="112.01" xlink:href="#hl"/>
<use x="453.33" y="118.01" xlink:href="#hl"/>
<use x="453.33" y="118.01" xlink:href="#hd"/>
<path d="M456.83 118.01v-25.00" stroke="currentColor" fill="none"/>
<use x="472.03" y="109.01" xlink:href="#hd"/>
<path d="M475.53 109.01v-20.00" stroke="currentColor" fill="none"/>
<path fill="currentColor"
	d="M518.53 86.11l17.60 -2.30v3.20l-17.60 2.30"/>
<path fill="currentColor"
	d="M518.83 91.01l16.90 -2.20v3.20l-16.90 2.20"/>
<use x="515.33" y="109.01" xlink:href="#hd"/>
<path d="M518.83 109.01v-22.00" stroke="currentColor" fill="none"/>
<use x="532.23" y="106.01" xlink:href="#hd"/>
<path d="M535.73 106.01v-21.20" stroke="currentColor" fill="none"/>
<path fill="currentColor"
	d="M554.13 89.81l17.60 2.30v3.20l-17.60 -2.30"/>
<path fill="currentColor"
	d="M554.43 94.81l16.90 2.20v3.20l-16.90 -2.20"/>
<use x="550.93" y="112.01" xlink:href="#hl"/>
<use x="550.93" y="112.01" xlink:href="#hd"/>
<path d="M554.43 112.01v-21.20" stroke="currentColor" fill="none"/>
<use x="567.83" y="112.01" xlink:href="#hl"/>
<use x="567.83" y="118.01" xlink:href="#hl"/>
<use x="567.83" y="118.01" xlink:href="#hd"/>
<path d="M571.33 118.01v-25.00" stroke="currentColor" fill="none"/>
<path fill="currentColor"
	d="M589.73 86.71l17.60 3.60v3.20l-17.60 -3.60"/>
<path fill="currentColor"
	d="M590.13 91.81l16.90 3.50v3.20l-16.90 -3.50"/>
<use x="586.63" y="109.01" xlink:href="#hd"/>
<path d="M590.13 109.01v-21.20" stroke="currentColor" fill="none"/>
<use x="603.43" y="112.01" xlink:href="#hl"/>
<use x="603.43" y="115.01" xlink:href="#hd"/>
<path d="M606.93 115.01v-23.70" stroke="currentColor" fill="none"/>
<path fill="currentColor"
	d="M625.33 84.51l18.70 -3.70v3.20l-18.70 3.70"/>
<path fill="currentColor"
	d="M625.73 89.41l18.00 -3.60v3.20l-18.00 3.60"/>
<use x="622.23" y="109.01" xlink:href="#hd"/>
<path d="M625.73 109.01v-23.60" stroke="currentColor" fill="none"/>
<use x="640.23" y="103.01" xlink:href="#hd"/>
<use x="631.23" y="103.01" xlink:href="#sh0"/>
<path d="M643.73 103.01v-21.20" stroke="currentColor" fill="none"/>
<use x="668.63" y="97.01" xlink:href="#hd"/>
<path d="M672.13 97.01v-20.00" stroke="currentColor" fill="none"/>
<path fill="currentColor"
	d="	M672.13 77.01c0.6 5.6 9.6 9 5.6 18.4
	c1.6 -6 -1.3 -11.6 -5.6 -12.8
"/>
<path fill="currentColor"
	d="M77.33 112.01c2.67 4.81 14.29 4.81 16.97 -0.00
	l0.00 0.22c-3.18 6.59 -13.78 6.59 -16.97 -0.22"/>
<path fill="currentColor"
	d="M132.03 106.01c5.71 5.15 30.55 5.15 36.26 -0.00
	l0.00 0.24c-6.80 6.92 -29.46 6.92 -36.26 -0.24"/>
<path fill="currentColor"
	d="M361.03 111.01c5.71 5.15 30.55 5.15 36.26 -0.00
	l0.00 0.24c-6.80 6.92 -29.46 6.92 -36.26 -0.24"/>
<path fill="currentColor"
	d="M475.53 111.01c5.71 5.15 30.55 5.15 36.26 -0.00
	l0.00 0.24c-6.80 6.92 -29.46 6.92 -36.26 -0.24"/>
</g>
</svg>
