<?xml version="1.0" standalone="no"?>
<!DOCTYPE svg PUBLIC "-//W3C//DTD SVG 1.1//EN"
	"http://www.w3.org/Graphics/SVG/1.1/DTD/svg11.dtd">
<svg xmlns="http://www.w3.org/2000/svg" version="1.1"
	xmlns:xlink="http://www.w3.org/1999/xlink"
	xml:space='preserve' color="black"
	width="7.38in" height="1.43in" viewBox="0 0 531 103">
<title>3999.abc (3999) tune 1</title>
<!-- Creator: abcm2ps-7.8.14 -->
<!-- CreationDate: Mar 13, 2016 18:54 -->
<!-- CommandLine: -qxg 3999.abc -O ../svgs/3999.svg -->
<g transform="scale(0.750)" stroke-width="0.70" font-family="Times" font-size="20.00">
<text x="354.13" y="21.67" text-anchor="middle">3999.  Concerto, 1st. Mvt. - 1st. Theme</text>
</g>
<g transform="scale(0.750)" stroke-width="0.70" font-family="Times" font-size="14.00" font-style="italic">
<text x="694.93" y="45.34" text-anchor="end">Darius Milhaud</text>
</g>
<g transform="scale(0.525)" stroke-width="0.70" font-family="Times" font-size="14.00" font-style="italic">
<defs>
<ellipse id="hd" rx="4.1" ry="2.9"
	transform="rotate(-20)" fill="currentColor"/>
</defs>
<use x="89.19" y="94.16" xlink:href="#hd"/>
<path d="M92.69 94.16v-20.00" stroke="currentColor" fill="none"/>
</g>
<g transform="scale(0.750)" stroke-width="0.70" font-family="Times" font-size="15.00" font-weight="bold">
<text x="70.13" y="68.01">= 120</text>
<path stroke="currentColor" fill="none"
	d="M348.33 114.01v-24.00"/>
<path stroke="currentColor" fill="none"
	d="M616.83 114.01v-24.00"/>
<path stroke="currentColor" fill="none"
	d="M13.33 114.01h681.60m-681.60 -6h681.60m-681.60 -6h681.60m-681.60 -6h681.60m-681.60 -6h681.60"/>
<defs>
<path id="utclef" fill="currentColor" d="m-50 -90
	c-72 -41 -72 -158 52 -188
	c150 -10 220 188 90 256
	c-114 52 -275 0 -293 -136
	c-15 -181 93 -229 220 -334
	c88 -87 79 -133 62 -210
	c-51 33 -94 105 -89 186
	c17 267 36 374 49 574
	c6 96 -19 134 -77 135
	c-80 1 -126 -93 -61 -133
	c85 -41 133 101 31 105
	c23 17 92 37 90 -92
	c-10 -223 -39 -342 -50 -617
	c0 -90 0 -162 96 -232
	c56 72 63 230 22 289
	c-74 106 -257 168 -255 316
	c9 153 148 185 252 133
	c86 -65 29 -192 -80 -176
	c-71 12 -105 67 -59 124"/>
<use id="tclef" transform="scale(0.045)"
	xlink:href="#utclef"/>
</defs>
<use x="25.33" y="114.01" xlink:href="#tclef"/>
<g font-family="serif" font-size="16" font-weight="bold" font-style="normal"
	transform="translate(43.83,114.01) scale(1.2,1)">
	<text y="-1" text-anchor="middle">4</text>
	<text y="-13" text-anchor="middle">4</text>
</g>
<path fill="currentColor"
	d="M58.03 108.01l35.70 -5.10v-3.20l-35.70 5.10"/>
<path fill="currentColor"
	d="M87.33 98.91l6.00 -0.90v-3.20l-6.00 0.90"/>
<use x="61.83" y="87.01" xlink:href="#hd"/>
<circle fill="currentColor" cx="69.83" cy="87.01" r="1.2"/>
<path d="M58.33 87.01v20.00" stroke="currentColor" fill="none"/>
<defs>
<path id="hl" stroke="currentColor" d="m-6 0h12"/>
</defs>
<use x="96.83" y="84.01" xlink:href="#hl"/>
<use x="96.83" y="78.01" xlink:href="#hl"/>
<use x="96.83" y="78.01" xlink:href="#hd"/>
<path d="M93.33 78.01v24.00" stroke="currentColor" fill="none"/>
<path fill="currentColor"
	d="M117.23 109.21l22.40 -2.40v-3.20l-22.40 2.40"/>
<path fill="currentColor"
	d="M117.53 104.21l21.80 -2.40v-3.20l-21.80 2.40"/>
<use x="121.03" y="87.01" xlink:href="#hd"/>
<path d="M117.53 87.01v21.20" stroke="currentColor" fill="none"/>
<use x="142.83" y="84.01" xlink:href="#hl"/>
<use x="142.83" y="84.01" xlink:href="#hd"/>
<path d="M139.33 84.01v21.80" stroke="currentColor" fill="none"/>
<path fill="currentColor"
	d="M163.13 109.81l22.40 2.40v-3.20l-22.40 -2.40"/>
<path fill="currentColor"
	d="M163.53 104.81l21.80 2.40v-3.20l-21.80 -2.40"/>
<use x="167.03" y="87.01" xlink:href="#hd"/>
<path d="M163.53 87.01v21.80" stroke="currentColor" fill="none"/>
<use x="188.73" y="90.01" xlink:href="#hd"/>
<path d="M185.23 90.01v21.20" stroke="currentColor" fill="none"/>
<use x="212.93" y="93.01" xlink:href="#hd"/>
<path d="M209.43 93.01v20.00" stroke="currentColor" fill="none"/>
<path fill="currentColor"
	d="M257.43 121.21l22.40 -2.40v-3.20l-22.40 2.40"/>
<path fill="currentColor"
	d="M257.83 116.21l21.80 -2.40v-3.20l-21.80 2.40"/>
<use x="261.33" y="99.01" xlink:href="#hd"/>
<defs>
<path id="usharp" fill="currentColor" d="
	m136 -702
	v890
	h32
	v-890
	m128 840
	h32
	v-888
	h-32
	m-232 286
	v116
	l338 -96
	v-116
	m-338 442
	v116
	l338 -98
	v-114"/>
<use id="sh0" transform="translate(-4,5) scale(0.018)"
	xlink:href="#usharp"/>
</defs>
<use x="252.33" y="99.01" xlink:href="#sh0"/>
<path d="M257.83 99.01v21.20" stroke="currentColor" fill="none"/>
<use x="283.03" y="96.01" xlink:href="#hd"/>
<path d="M279.53 96.01v21.80" stroke="currentColor" fill="none"/>
<path fill="currentColor"
	d="M303.43 118.21l22.40 -2.40v-3.20l-22.40 2.40"/>
<path fill="currentColor"
	d="M303.73 113.21l21.80 -2.40v-3.20l-21.80 2.40"/>
<use x="307.23" y="96.01" xlink:href="#hd"/>
<use x="298.23" y="96.01" xlink:href="#sh0"/>
<path d="M303.73 96.01v21.20" stroke="currentColor" fill="none"/>
<use x="329.03" y="93.01" xlink:href="#hd"/>
<path d="M325.53 93.01v21.80" stroke="currentColor" fill="none"/>
<path fill="currentColor"
	d="M361.63 115.91l92.50 0.00v-3.20l-92.50 -0.00"/>
<path fill="currentColor"
	d="M391.03 110.91l6.00 0.00v-3.20l-6.00 -0.00"/>
<path fill="currentColor"
	d="M447.83 110.91l6.00 0.00v-3.20l-6.00 -0.00"/>
<use x="365.43" y="90.01" xlink:href="#hd"/>
<circle fill="currentColor" cx="373.43" cy="87.01" r="1.2"/>
<path d="M361.93 90.01v25.00" stroke="currentColor" fill="none"/>
<use x="400.53" y="87.01" xlink:href="#hd"/>
<path d="M397.03 87.01v28.00" stroke="currentColor" fill="none"/>
<use x="422.23" y="90.01" xlink:href="#hd"/>
<circle fill="currentColor" cx="430.23" cy="87.01" r="1.2"/>
<path d="M418.73 90.01v25.00" stroke="currentColor" fill="none"/>
<use x="457.33" y="93.01" xlink:href="#hd"/>
<path d="M453.83 93.01v22.00" stroke="currentColor" fill="none"/>
<use x="481.43" y="96.01" xlink:href="#hd"/>
<defs>
<path id="unat" fill="currentColor" d="
	m96 -750
	h-32
	v716
	l32 -8
	l182 -54
	v282
	h32
	v-706
	l-34 10
	l-180 50
	v-290
	m0 592
	v-190
	l182 -52
	v188"/>
<use id="nt0" transform="translate(-3,5) scale(0.018)"
	xlink:href="#unat"/>
</defs>
<use x="472.43" y="96.01" xlink:href="#nt0"/>
<path d="M477.93 96.01v20.00" stroke="currentColor" fill="none"/>
<path fill="currentColor"
	d="M526.03 124.21l22.40 -2.40v-3.20l-22.40 2.40"/>
<path fill="currentColor"
	d="M526.33 119.21l21.80 -2.40v-3.20l-21.80 2.40"/>
<use x="529.83" y="102.01" xlink:href="#hd"/>
<path d="M526.33 102.01v21.20" stroke="currentColor" fill="none"/>
<use x="551.63" y="99.01" xlink:href="#hd"/>
<use x="542.63" y="99.01" xlink:href="#nt0"/>
<path d="M548.13 99.01v21.80" stroke="currentColor" fill="none"/>
<path fill="currentColor"
	d="M571.93 121.21l22.40 -2.40v-3.20l-22.40 2.40"/>
<path fill="currentColor"
	d="M572.23 116.21l21.80 -2.40v-3.20l-21.80 2.40"/>
<use x="575.73" y="99.01" xlink:href="#hd"/>
<use x="566.73" y="99.01" xlink:href="#sh0"/>
<path d="M572.23 99.01v21.20" stroke="currentColor" fill="none"/>
<use x="597.53" y="96.01" xlink:href="#hd"/>
<path d="M594.03 96.01v21.80" stroke="currentColor" fill="none"/>
<path fill="currentColor"
	d="M631.83 116.51l35.70 -6.10v-3.20l-35.70 6.10"/>
<path fill="currentColor"
	d="M661.23 106.51l6.00 -1.00v-3.20l-6.00 1.00"/>
<use x="635.73" y="96.01" xlink:href="#hd"/>
<circle fill="currentColor" cx="643.73" cy="93.01" r="1.2"/>
<use x="626.73" y="96.01" xlink:href="#sh0"/>
<path d="M632.23 96.01v19.50" stroke="currentColor" fill="none"/>
<use x="670.73" y="87.01" xlink:href="#hd"/>
<use x="661.73" y="87.01" xlink:href="#sh0"/>
<path d="M667.23 87.01v22.50" stroke="currentColor" fill="none"/>
</g>
</svg>
