<?xml version="1.0" standalone="no"?>
<!DOCTYPE svg PUBLIC "-//W3C//DTD SVG 1.1//EN"
	"http://www.w3.org/Graphics/SVG/1.1/DTD/svg11.dtd">
<svg xmlns="http://www.w3.org/2000/svg" version="1.1"
	xmlns:xlink="http://www.w3.org/1999/xlink"
	xml:space='preserve' color="black"
	width="7.38in" height="1.40in" viewBox="0 0 531 101">
<title>4012.abc (4012) tune 1</title>
<!-- Creator: abcm2ps-7.8.14 -->
<!-- CreationDate: Mar 13, 2016 18:54 -->
<!-- CommandLine: -qxg 4012.abc -O ../svgs/4012.svg -->
<g transform="scale(0.750)" stroke-width="0.70" font-family="Times" font-size="20.00">
<text x="354.13" y="21.67" text-anchor="middle">4012.  Pastorale, 2nd. Theme</text>
</g>
<g transform="scale(0.750)" stroke-width="0.70" font-family="Times" font-size="14.00" font-style="italic">
<text x="694.93" y="45.34" text-anchor="end">Darius Milhaud</text>
</g>
<g transform="scale(0.525)" stroke-width="0.70" font-family="Times" font-size="14.00" font-style="italic">
<defs>
<ellipse id="hd" rx="4.1" ry="2.9"
	transform="rotate(-20)" fill="currentColor"/>
</defs>
<use x="89.19" y="94.16" xlink:href="#hd"/>
<path d="M92.69 94.16v-20.00" stroke="currentColor" fill="none"/>
</g>
<g transform="scale(0.750)" stroke-width="0.70" font-family="Times" font-size="15.00" font-weight="bold">
<text x="70.13" y="68.01">= 120</text>
<path stroke="currentColor" fill="none"
	d="M257.33 111.01v-24.00"/>
<path stroke="currentColor" fill="none"
	d="M421.83 111.01v-24.00"/>
<path stroke="currentColor" fill="none"
	d="M613.03 111.01v-24.00"/>
<path stroke="currentColor" fill="none"
	d="M13.33 111.01h681.60m-681.60 -6h681.60m-681.60 -6h681.60m-681.60 -6h681.60m-681.60 -6h681.60"/>
<defs>
<path id="utclef" fill="currentColor" d="m-50 -90
	c-72 -41 -72 -158 52 -188
	c150 -10 220 188 90 256
	c-114 52 -275 0 -293 -136
	c-15 -181 93 -229 220 -334
	c88 -87 79 -133 62 -210
	c-51 33 -94 105 -89 186
	c17 267 36 374 49 574
	c6 96 -19 134 -77 135
	c-80 1 -126 -93 -61 -133
	c85 -41 133 101 31 105
	c23 17 92 37 90 -92
	c-10 -223 -39 -342 -50 -617
	c0 -90 0 -162 96 -232
	c56 72 63 230 22 289
	c-74 106 -257 168 -255 316
	c9 153 148 185 252 133
	c86 -65 29 -192 -80 -176
	c-71 12 -105 67 -59 124"/>
<use id="tclef" transform="scale(0.045)"
	xlink:href="#utclef"/>
</defs>
<use x="25.33" y="111.01" xlink:href="#tclef"/>
<g font-family="serif" font-size="16" font-weight="bold" font-style="normal"
	transform="translate(43.83,111.01) scale(1.2,1)">
	<text y="-1" text-anchor="middle">2</text>
	<text y="-13" text-anchor="middle">2</text>
</g>
<use x="61.83" y="102.01" xlink:href="#hd"/>
<path d="M65.33 102.01v-20.00" stroke="currentColor" fill="none"/>
<path fill="currentColor"
	d="	M65.33 82.01c0.6 5.6 9.6 9 5.6 18.4
	c1.6 -6 -1.3 -11.6 -5.6 -12.8
"/>
<use x="87.33" y="87.01" xlink:href="#hd"/>
<defs>
<path id="usharp" fill="currentColor" d="
	m136 -702
	v890
	h32
	v-890
	m128 840
	h32
	v-888
	h-32
	m-232 286
	v116
	l338 -96
	v-116
	m-338 442
	v116
	l338 -98
	v-114"/>
<use id="sh0" transform="translate(-4,5) scale(0.018)"
	xlink:href="#usharp"/>
</defs>
<use x="78.33" y="87.01" xlink:href="#sh0"/>
<path d="M83.83 87.01v20.00" stroke="currentColor" fill="none"/>
<path fill="currentColor"
	d="M83.83 107.01c0.6 -5.6 9.6 -9 5.6 -18.4
	c1.6 6 -1.3 11.6 -5.6 12.8
"/>
<defs>
<path id="hl" stroke="currentColor" d="m-6 0h12"/>
</defs>
<use x="110.53" y="81.01" xlink:href="#hl"/>
<use x="110.53" y="78.01" xlink:href="#hd"/>
<path d="M107.03 78.01v21.00" stroke="currentColor" fill="none"/>
<path fill="currentColor"
	d="M107.03 99.01c0.6 -5.6 9.6 -9 5.6 -18.4
	c1.6 6 -1.3 11.6 -5.6 12.8
"/>
<use x="133.83" y="81.01" xlink:href="#hl"/>
<use x="133.83" y="81.01" xlink:href="#hd"/>
<path d="M130.33 81.01v20.00" stroke="currentColor" fill="none"/>
<path fill="currentColor"
	d="M130.33 101.01c0.6 -5.6 9.6 -9 5.6 -18.4
	c1.6 6 -1.3 11.6 -5.6 12.8
"/>
<path fill="currentColor"
	d="M153.23 106.91l18.70 2.30v-3.20l-18.70 -2.30"/>
<path fill="currentColor"
	d="M153.63 102.01l18.00 2.20v-3.20l-18.00 -2.20"/>
<use x="157.13" y="84.01" xlink:href="#hd"/>
<path d="M153.63 84.01v22.00" stroke="currentColor" fill="none"/>
<use x="175.13" y="87.01" xlink:href="#hd"/>
<use x="166.13" y="87.01" xlink:href="#sh0"/>
<path d="M171.63 87.01v21.20" stroke="currentColor" fill="none"/>
<use x="191.63" y="90.01" xlink:href="#hd"/>
<path d="M188.13 90.01v20.00" stroke="currentColor" fill="none"/>
<path fill="currentColor"
	d="M188.13 110.01c0.6 -5.6 9.6 -9 5.6 -18.4
	c1.6 6 -1.3 11.6 -5.6 12.8
"/>
<use x="214.83" y="84.01" xlink:href="#hd"/>
<path d="M211.33 84.01v20.00" stroke="currentColor" fill="none"/>
<path fill="currentColor"
	d="M211.33 104.01c0.6 -5.6 9.6 -9 5.6 -18.4
	c1.6 6 -1.3 11.6 -5.6 12.8
"/>
<use x="238.63" y="87.01" xlink:href="#hd"/>
<use x="229.63" y="87.01" xlink:href="#sh0"/>
<path d="M235.13 87.01v20.00" stroke="currentColor" fill="none"/>
<path fill="currentColor"
	d="M235.13 107.01c0.6 -5.6 9.6 -9 5.6 -18.4
	c1.6 6 -1.3 11.6 -5.6 12.8
"/>
<path fill="currentColor"
	d="M266.03 113.01l15.60 2.20v-3.20l-15.60 -2.20"/>
<path fill="currentColor"
	d="M266.33 108.11l15.00 2.10v-3.20l-15.00 -2.10"/>
<use x="269.83" y="90.01" xlink:href="#hd"/>
<path d="M266.33 90.01v22.10" stroke="currentColor" fill="none"/>
<use x="284.83" y="93.01" xlink:href="#hd"/>
<path d="M281.33 93.01v21.20" stroke="currentColor" fill="none"/>
<use x="302.83" y="96.01" xlink:href="#hd"/>
<use x="293.83" y="96.01" xlink:href="#sh0"/>
<path d="M299.33 96.01v20.00" stroke="currentColor" fill="none"/>
<path fill="currentColor"
	d="M299.33 116.01c0.6 -5.6 9.6 -9 5.6 -18.4
	c1.6 6 -1.3 11.6 -5.6 12.8
"/>
<use x="326.03" y="93.01" xlink:href="#hd"/>
<path d="M322.53 93.01v20.00" stroke="currentColor" fill="none"/>
<path fill="currentColor"
	d="M322.53 113.01c0.6 -5.6 9.6 -9 5.6 -18.4
	c1.6 6 -1.3 11.6 -5.6 12.8
"/>
<defs>
<path id="Hd" fill="currentColor" d="m3 -1.6
	c-1 -1.8 -7 1.4 -6 3.2
	c1 1.8 7 -1.4 6 -3.2
	m0.5 -0.3
	c2 3.8 -5 7.6 -7 3.8
	c-2 -3.8 5 -7.6 7 -3.8"/>
</defs>
<use x="347.03" y="102.01" xlink:href="#Hd"/>
<path d="M350.53 102.01v-20.00" stroke="currentColor" fill="none"/>
<path fill="currentColor"
	d="M396.63 85.01l15.60 -2.20v3.20l-15.60 2.20"/>
<path fill="currentColor"
	d="M397.03 89.91l15.00 -2.10v3.20l-15.00 2.10"/>
<use x="393.53" y="108.01" xlink:href="#hd"/>
<use x="384.53" y="108.01" xlink:href="#sh0"/>
<path d="M397.03 108.01v-22.10" stroke="currentColor" fill="none"/>
<use x="408.43" y="105.01" xlink:href="#hd"/>
<path d="M411.93 105.01v-21.20" stroke="currentColor" fill="none"/>
<path fill="currentColor"
	d="M443.53 85.01l15.60 -2.20v3.20l-15.60 2.20"/>
<path fill="currentColor"
	d="M443.83 89.91l15.00 -2.10v3.20l-15.00 2.10"/>
<use x="440.33" y="108.01" xlink:href="#hd"/>
<use x="431.33" y="108.01" xlink:href="#sh0"/>
<path d="M443.83 108.01v-22.10" stroke="currentColor" fill="none"/>
<use x="455.33" y="105.01" xlink:href="#hd"/>
<path d="M458.83 105.01v-21.20" stroke="currentColor" fill="none"/>
<path fill="currentColor"
	d="M475.03 79.01l15.60 -2.20v3.20l-15.60 2.20"/>
<path fill="currentColor"
	d="M475.33 83.91l15.00 -2.10v3.20l-15.00 2.10"/>
<use x="471.83" y="102.01" xlink:href="#hd"/>
<path d="M475.33 102.01v-22.10" stroke="currentColor" fill="none"/>
<use x="486.83" y="99.01" xlink:href="#hd"/>
<path d="M490.33 99.01v-21.20" stroke="currentColor" fill="none"/>
<path fill="currentColor"
	d="M501.03 118.21l15.60 -2.20v-3.20l-15.60 2.20"/>
<path fill="currentColor"
	d="M501.33 113.21l15.00 -2.10v-3.20l-15.00 2.10"/>
<use x="504.83" y="96.01" xlink:href="#hd"/>
<use x="495.83" y="96.01" xlink:href="#sh0"/>
<path d="M501.33 96.01v21.20" stroke="currentColor" fill="none"/>
<use x="519.83" y="93.01" xlink:href="#hd"/>
<path d="M516.33 93.01v22.10" stroke="currentColor" fill="none"/>
<use x="536.33" y="99.01" xlink:href="#hd"/>
<path d="M532.83 99.01v20.00" stroke="currentColor" fill="none"/>
<path fill="currentColor"
	d="M532.83 119.01c0.6 -5.6 9.6 -9 5.6 -18.4
	c1.6 6 -1.3 11.6 -5.6 12.8
"/>
<use x="559.63" y="93.01" xlink:href="#hd"/>
<path d="M556.13 93.01v20.00" stroke="currentColor" fill="none"/>
<path fill="currentColor"
	d="M556.13 113.01c0.6 -5.6 9.6 -9 5.6 -18.4
	c1.6 6 -1.3 11.6 -5.6 12.8
"/>
<use x="582.83" y="84.01" xlink:href="#hd"/>
<circle fill="currentColor" cx="590.83" cy="84.01" r="1.2"/>
<path d="M579.33 84.01v20.00" stroke="currentColor" fill="none"/>
<use x="625.53" y="81.01" xlink:href="#hl"/>
<use x="625.53" y="78.01" xlink:href="#hd"/>
<path d="M622.03 78.01v21.00" stroke="currentColor" fill="none"/>
<path fill="currentColor"
	d="M622.03 99.01c0.6 -5.6 9.6 -9 5.6 -18.4
	c1.6 6 -1.3 11.6 -5.6 12.8
"/>
<use x="648.73" y="90.01" xlink:href="#hd"/>
<path d="M645.23 90.01v20.00" stroke="currentColor" fill="none"/>
<path fill="currentColor"
	d="M645.23 110.01c0.6 -5.6 9.6 -9 5.6 -18.4
	c1.6 6 -1.3 11.6 -5.6 12.8
"/>
<use x="671.93" y="93.01" xlink:href="#hd"/>
<path d="M668.43 93.01v20.00" stroke="currentColor" fill="none"/>
<path fill="currentColor"
	d="M668.43 113.01c0.6 -5.6 9.6 -9 5.6 -18.4
	c1.6 6 -1.3 11.6 -5.6 12.8
"/>
</g>
</svg>
