<?xml version="1.0" standalone="no"?>
<!DOCTYPE svg PUBLIC "-//W3C//DTD SVG 1.1//EN"
	"http://www.w3.org/Graphics/SVG/1.1/DTD/svg11.dtd">
<svg xmlns="http://www.w3.org/2000/svg" version="1.1"
	xmlns:xlink="http://www.w3.org/1999/xlink"
	xml:space='preserve' color="black"
	width="7.38in" height="1.34in" viewBox="0 0 531 97">
<title>4041.abc (4041) tune 1</title>
<!-- Creator: abcm2ps-7.8.14 -->
<!-- CreationDate: Mar 13, 2016 18:54 -->
<!-- CommandLine: -qxg 4041.abc -O ../svgs/4041.svg -->
<g transform="scale(0.750)" stroke-width="0.70" font-family="Times" font-size="20.00">
<text x="354.13" y="21.67" text-anchor="middle">4041.  Spanish Dances, Op. 12, No. 4, 2nd. Theme</text>
</g>
<g transform="scale(0.750)" stroke-width="0.70" font-family="Times" font-size="14.00" font-style="italic">
<text x="694.93" y="45.34" text-anchor="end">Moritz Moszkowski</text>
</g>
<g transform="scale(0.525)" stroke-width="0.70" font-family="Times" font-size="14.00" font-style="italic">
<defs>
<ellipse id="hd" rx="4.1" ry="2.9"
	transform="rotate(-20)" fill="currentColor"/>
</defs>
<use x="114.90" y="94.16" xlink:href="#hd"/>
<path d="M118.40 94.16v-20.00" stroke="currentColor" fill="none"/>
</g>
<g transform="scale(0.750)" stroke-width="0.70" font-family="Times" font-size="15.00" font-weight="bold">
<text x="88.13" y="68.01">= 120</text>
<path stroke="currentColor" fill="none"
	d="M167.83 106.01v-24.00"/>
<path stroke="currentColor" fill="none"
	d="M221.73 106.01v-24.00"/>
<path stroke="currentColor" fill="none"
	d="M322.23 106.01v-24.00"/>
<path stroke="currentColor" fill="none"
	d="M376.03 106.01v-24.00"/>
<path stroke="currentColor" fill="none"
	d="M476.53 106.01v-24.00"/>
<path stroke="currentColor" fill="none"
	d="M536.93 106.01v-24.00"/>
<path stroke="currentColor" fill="none"
	d="M638.03 106.01v-24.00"/>
<path stroke="currentColor" fill="none"
	d="M13.33 106.01h681.60m-681.60 -6h681.60m-681.60 -6h681.60m-681.60 -6h681.60m-681.60 -6h681.60"/>
<defs>
<path id="utclef" fill="currentColor" d="m-50 -90
	c-72 -41 -72 -158 52 -188
	c150 -10 220 188 90 256
	c-114 52 -275 0 -293 -136
	c-15 -181 93 -229 220 -334
	c88 -87 79 -133 62 -210
	c-51 33 -94 105 -89 186
	c17 267 36 374 49 574
	c6 96 -19 134 -77 135
	c-80 1 -126 -93 -61 -133
	c85 -41 133 101 31 105
	c23 17 92 37 90 -92
	c-10 -223 -39 -342 -50 -617
	c0 -90 0 -162 96 -232
	c56 72 63 230 22 289
	c-74 106 -257 168 -255 316
	c9 153 148 185 252 133
	c86 -65 29 -192 -80 -176
	c-71 12 -105 67 -59 124"/>
<use id="tclef" transform="scale(0.045)"
	xlink:href="#utclef"/>
</defs>
<use x="25.33" y="106.01" xlink:href="#tclef"/>
<defs>
<path id="uflat" fill="currentColor" d="
	m100 -746
	h32
	v734
	l-32 4
	m32 -332
	c46 -72 152 -90 208 -20
	c100 110 -120 326 -208 348
	m0 -28
	c54 0 200 -206 130 -290
	c-50 -60 -130 -4 -130 34"/>
<use id="ft0" transform="translate(-3.5,3.5) scale(0.018)"
	xlink:href="#uflat"/>
</defs>
<use x="40.33" y="94.01" xlink:href="#ft0"/>
<use x="45.83" y="85.01" xlink:href="#ft0"/>
<g font-family="serif" font-size="16" font-weight="bold" font-style="normal"
	transform="translate(61.83,106.01) scale(1.2,1)">
	<text y="-1" text-anchor="middle">4</text>
	<text y="-13" text-anchor="middle">3</text>
</g>
<use x="79.83" y="94.01" xlink:href="#hd"/>
<path d="M76.33 94.01v20.00" stroke="currentColor" fill="none"/>
<use x="111.23" y="91.01" xlink:href="#hd"/>
<path d="M107.73 91.01v20.00" stroke="currentColor" fill="none"/>
<use x="142.63" y="88.01" xlink:href="#hd"/>
<path d="M139.13 88.01v20.00" stroke="currentColor" fill="none"/>
<defs>
<path id="Hd" fill="currentColor" d="m3 -1.6
	c-1 -1.8 -7 1.4 -6 3.2
	c1 1.8 7 -1.4 6 -3.2
	m0.5 -0.3
	c2 3.8 -5 7.6 -7 3.8
	c-2 -3.8 5 -7.6 7 -3.8"/>
</defs>
<use x="180.83" y="79.01" xlink:href="#Hd"/>
<circle fill="currentColor" cx="189.83" cy="79.01" r="1.2"/>
<path d="M177.33 79.01v20.00" stroke="currentColor" fill="none"/>
<use x="234.23" y="88.01" xlink:href="#hd"/>
<path d="M230.73 88.01v20.00" stroke="currentColor" fill="none"/>
<use x="265.53" y="91.01" xlink:href="#hd"/>
<path d="M262.03 91.01v20.00" stroke="currentColor" fill="none"/>
<use x="296.93" y="94.01" xlink:href="#hd"/>
<path d="M293.43 94.01v20.00" stroke="currentColor" fill="none"/>
<use x="335.23" y="100.01" xlink:href="#Hd"/>
<circle fill="currentColor" cx="344.23" cy="97.01" r="1.2"/>
<path d="M338.73 100.01v-20.00" stroke="currentColor" fill="none"/>
<use x="388.53" y="97.01" xlink:href="#hd"/>
<path d="M392.03 97.01v-20.00" stroke="currentColor" fill="none"/>
<use x="419.93" y="94.01" xlink:href="#hd"/>
<path d="M423.43 94.01v-20.00" stroke="currentColor" fill="none"/>
<use x="451.33" y="97.01" xlink:href="#hd"/>
<path d="M454.83 97.01v-20.00" stroke="currentColor" fill="none"/>
<use x="496.03" y="106.01" xlink:href="#Hd"/>
<circle fill="currentColor" cx="505.03" cy="103.01" r="1.2"/>
<defs>
<path id="unat" fill="currentColor" d="
	m96 -750
	h-32
	v716
	l32 -8
	l182 -54
	v282
	h32
	v-706
	l-34 10
	l-180 50
	v-290
	m0 592
	v-190
	l182 -52
	v188"/>
<use id="nt0" transform="translate(-3,5) scale(0.018)"
	xlink:href="#unat"/>
</defs>
<use x="486.03" y="106.01" xlink:href="#nt0"/>
<path d="M499.53 106.01v-20.00" stroke="currentColor" fill="none"/>
<use x="549.43" y="97.01" xlink:href="#hd"/>
<path d="M552.93 97.01v-20.00" stroke="currentColor" fill="none"/>
<use x="581.33" y="106.01" xlink:href="#hd"/>
<use x="572.33" y="106.01" xlink:href="#ft0"/>
<path d="M584.83 106.01v-20.00" stroke="currentColor" fill="none"/>
<use x="612.73" y="97.01" xlink:href="#hd"/>
<path d="M616.23 97.01v-20.00" stroke="currentColor" fill="none"/>
<use x="651.03" y="109.01" xlink:href="#Hd"/>
<path d="M654.53 109.01v-20.00" stroke="currentColor" fill="none"/>
</g>
</svg>
