<?xml version="1.0" standalone="no"?>
<!DOCTYPE svg PUBLIC "-//W3C//DTD SVG 1.1//EN"
	"http://www.w3.org/Graphics/SVG/1.1/DTD/svg11.dtd">
<svg xmlns="http://www.w3.org/2000/svg" version="1.1"
	xmlns:xlink="http://www.w3.org/1999/xlink"
	xml:space='preserve' color="black"
	width="7.38in" height="1.34in" viewBox="0 0 531 97">
<title>4051.abc (4051) tune 1</title>
<!-- Creator: abcm2ps-7.8.14 -->
<!-- CreationDate: Mar 13, 2016 18:54 -->
<!-- CommandLine: -qxg 4051.abc -O ../svgs/4051.svg -->
<g transform="scale(0.750)" stroke-width="0.70" font-family="Times" font-size="20.00">
<text x="354.13" y="21.67" text-anchor="middle">4051.  Andante in C, K 315</text>
</g>
<g transform="scale(0.750)" stroke-width="0.70" font-family="Times" font-size="14.00" font-style="italic">
<text x="694.93" y="45.34" text-anchor="end">Wolfgang Amadeus Mozart</text>
</g>
<g transform="scale(0.525)" stroke-width="0.70" font-family="Times" font-size="14.00" font-style="italic">
<defs>
<ellipse id="hd" rx="4.1" ry="2.9"
	transform="rotate(-20)" fill="currentColor"/>
</defs>
<use x="89.19" y="94.16" xlink:href="#hd"/>
<path d="M92.69 94.16v-20.00" stroke="currentColor" fill="none"/>
</g>
<g transform="scale(0.750)" stroke-width="0.70" font-family="Times" font-size="15.00" font-weight="bold">
<text x="70.13" y="68.01">= 120</text>
<path stroke="currentColor" fill="none"
	d="M139.73 106.01v-24.00"/>
<path stroke="currentColor" fill="none"
	d="M326.63 106.01v-24.00"/>
<path stroke="currentColor" fill="none"
	d="M450.93 106.01v-24.00"/>
<path stroke="currentColor" fill="none"
	d="M607.83 106.01v-24.00"/>
<path stroke="currentColor" fill="none"
	d="M13.33 106.01h681.60m-681.60 -6h681.60m-681.60 -6h681.60m-681.60 -6h681.60m-681.60 -6h681.60"/>
<defs>
<path id="utclef" fill="currentColor" d="m-50 -90
	c-72 -41 -72 -158 52 -188
	c150 -10 220 188 90 256
	c-114 52 -275 0 -293 -136
	c-15 -181 93 -229 220 -334
	c88 -87 79 -133 62 -210
	c-51 33 -94 105 -89 186
	c17 267 36 374 49 574
	c6 96 -19 134 -77 135
	c-80 1 -126 -93 -61 -133
	c85 -41 133 101 31 105
	c23 17 92 37 90 -92
	c-10 -223 -39 -342 -50 -617
	c0 -90 0 -162 96 -232
	c56 72 63 230 22 289
	c-74 106 -257 168 -255 316
	c9 153 148 185 252 133
	c86 -65 29 -192 -80 -176
	c-71 12 -105 67 -59 124"/>
<use id="tclef" transform="scale(0.045)"
	xlink:href="#utclef"/>
</defs>
<use x="25.33" y="106.01" xlink:href="#tclef"/>
<g font-family="serif" font-size="16" font-weight="bold" font-style="normal"
	transform="translate(43.83,106.01) scale(1.2,1)">
	<text y="-1" text-anchor="middle">4</text>
	<text y="-13" text-anchor="middle">2</text>
</g>
<use x="61.83" y="91.01" xlink:href="#hd"/>
<path d="M58.33 91.01v20.00" stroke="currentColor" fill="none"/>
<use x="105.13" y="94.01" xlink:href="#hd"/>
<path d="M101.63 94.01v20.00" stroke="currentColor" fill="none"/>
<use x="155.13" y="91.01" xlink:href="#hd"/>
<path d="M151.63 91.01v20.00" stroke="currentColor" fill="none"/>
<path fill="currentColor"
	d="M151.63 111.01c0.6 -5.6 9.6 -9 5.6 -18.4
	c1.6 6 -1.3 11.6 -5.6 12.8
"/>
<path fill="currentColor"
	d="M181.93 113.01l42.00 0.00v-3.20l-42.00 -0.00"/>
<path fill="currentColor"
	d="M182.23 108.01l41.40 0.00v-3.20l-41.40 -0.00"/>
<path fill="currentColor"
	d="M182.23 103.01l41.40 0.00v-3.20l-41.40 -0.00"/>
<use x="185.73" y="88.01" xlink:href="#hd"/>
<path d="M182.23 88.01v24.00" stroke="currentColor" fill="none"/>
<use x="199.53" y="85.01" xlink:href="#hd"/>
<path d="M196.03 85.01v27.00" stroke="currentColor" fill="none"/>
<use x="213.33" y="88.01" xlink:href="#hd"/>
<path d="M209.83 88.01v24.00" stroke="currentColor" fill="none"/>
<use x="227.13" y="85.01" xlink:href="#hd"/>
<path d="M223.63 85.01v27.00" stroke="currentColor" fill="none"/>
<use x="242.43" y="85.01" xlink:href="#hd"/>
<path d="M238.93 85.01v20.00" stroke="currentColor" fill="none"/>
<path fill="currentColor"
	d="M238.93 105.01c0.6 -5.6 9.6 -9 5.6 -18.4
	c1.6 6 -1.3 11.6 -5.6 12.8
"/>
<path fill="currentColor"
	d="M269.23 113.01l42.00 0.00v-3.20l-42.00 -0.00"/>
<path fill="currentColor"
	d="M269.53 108.01l41.40 0.00v-3.20l-41.40 -0.00"/>
<path fill="currentColor"
	d="M269.53 103.01l41.40 0.00v-3.20l-41.40 -0.00"/>
<use x="273.03" y="85.01" xlink:href="#hd"/>
<path d="M269.53 85.01v27.00" stroke="currentColor" fill="none"/>
<use x="286.83" y="82.01" xlink:href="#hd"/>
<path d="M283.33 82.01v30.00" stroke="currentColor" fill="none"/>
<use x="300.63" y="85.01" xlink:href="#hd"/>
<path d="M297.13 85.01v27.00" stroke="currentColor" fill="none"/>
<use x="314.43" y="82.01" xlink:href="#hd"/>
<path d="M310.93 82.01v30.00" stroke="currentColor" fill="none"/>
<path fill="currentColor"
	d="M338.13 103.41l20.20 3.80v-3.20l-20.20 -3.80"/>
<path fill="currentColor"
	d="M338.43 98.51l19.50 3.70v-3.20l-19.50 -3.70"/>
<use x="341.93" y="79.01" xlink:href="#hd"/>
<path d="M338.43 79.01v23.50" stroke="currentColor" fill="none"/>
<use x="361.43" y="85.01" xlink:href="#hd"/>
<path d="M357.93 85.01v21.20" stroke="currentColor" fill="none"/>
<use x="383.13" y="91.01" xlink:href="#hd"/>
<path d="M379.63 91.01v20.00" stroke="currentColor" fill="none"/>
<use x="426.43" y="88.01" xlink:href="#hd"/>
<path d="M422.93 88.01v20.00" stroke="currentColor" fill="none"/>
<path fill="currentColor"
	d="M422.93 108.01c0.6 -5.6 9.6 -9 5.6 -18.4
	c1.6 6 -1.3 11.6 -5.6 12.8
"/>
<use x="469.53" y="88.01" xlink:href="#hd"/>
<defs>
<path id="usharp" fill="currentColor" d="
	m136 -702
	v890
	h32
	v-890
	m128 840
	h32
	v-888
	h-32
	m-232 286
	v116
	l338 -96
	v-116
	m-338 442
	v116
	l338 -98
	v-114"/>
<use id="sh0" transform="translate(-4,5) scale(0.018)"
	xlink:href="#usharp"/>
</defs>
<use x="460.53" y="88.01" xlink:href="#sh0"/>
<path d="M466.03 88.01v20.00" stroke="currentColor" fill="none"/>
<path fill="currentColor"
	d="M466.03 108.01c0.6 -5.6 9.6 -9 5.6 -18.4
	c1.6 6 -1.3 11.6 -5.6 12.8
"/>
<use x="500.13" y="85.01" xlink:href="#hd"/>
<path d="M496.63 85.01v20.00" stroke="currentColor" fill="none"/>
<path fill="currentColor"
	d="M496.63 105.01c0.6 -5.6 9.6 -9 5.6 -18.4
	c1.6 6 -1.3 11.6 -5.6 12.8
"/>
<defs>
<path id="r8e" fill="currentColor" d="m 0 0
	c-1.5 1.5 -2.4 2 -3.6 2
	c2.4 -2.8 -2.8 -4 -2.8 -1.2
	c0 2.7 4.3 2.4 5.9 0.6"/>
<g id="r16">
	<path d="m3.3 -4l-4 15.6" stroke="currentColor" fill="none"/>
	<use x="3.4" y="-4" xlink:href="#r8e"/>
	<use x="1.9" y="2" xlink:href="#r8e"/>
</g>
</defs>
<use x="527.73" y="94.01" xlink:href="#r16"/>
<use x="549.43" y="85.01" xlink:href="#hd"/>
<path d="M545.93 85.01v22.00" stroke="currentColor" fill="none"/>
<path fill="currentColor"
	d="M545.93 107.01c0.9 -3.7 9.1 -6.4 6 -12.4
	c1 5.4 -4.2 8.4 -6 8.4
M545.93 101.61c0.9 -3.7 9.1 -6.4 6 -12.4
	c1 5.4 -4.2 8.4 -6 8.4
"/>
<path fill="currentColor"
	d="M567.23 104.21l20.20 -2.40v-3.20l-20.20 2.40"/>
<path fill="currentColor"
	d="M567.53 99.21l19.50 -2.30v-3.20l-19.50 2.30"/>
<use x="571.03" y="82.01" xlink:href="#hd"/>
<path d="M567.53 82.01v21.20" stroke="currentColor" fill="none"/>
<use x="590.53" y="79.01" xlink:href="#hd"/>
<path d="M587.03 79.01v21.90" stroke="currentColor" fill="none"/>
<path fill="currentColor"
	d="M619.33 100.41l20.20 3.80v-3.20l-20.20 -3.80"/>
<path fill="currentColor"
	d="M619.63 95.51l19.50 3.70v-3.20l-19.50 -3.70"/>
<defs>
<path id="hl" stroke="currentColor" d="m-6 0h12"/>
</defs>
<use x="623.13" y="76.01" xlink:href="#hl"/>
<use x="623.13" y="76.01" xlink:href="#hd"/>
<path d="M619.63 76.01v23.50" stroke="currentColor" fill="none"/>
<use x="642.63" y="82.01" xlink:href="#hd"/>
<path d="M639.13 82.01v21.20" stroke="currentColor" fill="none"/>
<use x="664.33" y="76.01" xlink:href="#hl"/>
<use x="664.33" y="70.01" xlink:href="#hl"/>
<use x="664.33" y="70.01" xlink:href="#hd"/>
<path d="M660.83 70.01v24.00" stroke="currentColor" fill="none"/>
<path fill="currentColor"
	d="M660.83 94.01c0.6 -5.6 9.6 -9 5.6 -18.4
	c1.6 6 -1.3 11.6 -5.6 12.8
"/>
</g>
</svg>
