<?xml version="1.0" standalone="no"?>
<!DOCTYPE svg PUBLIC "-//W3C//DTD SVG 1.1//EN"
	"http://www.w3.org/Graphics/SVG/1.1/DTD/svg11.dtd">
<svg xmlns="http://www.w3.org/2000/svg" version="1.1"
	xmlns:xlink="http://www.w3.org/1999/xlink"
	xml:space='preserve' color="black"
	width="7.38in" height="1.34in" viewBox="0 0 531 97">
<title>4076.abc (4076) tune 1</title>
<!-- Creator: abcm2ps-7.8.14 -->
<!-- CreationDate: Mar 13, 2016 18:54 -->
<!-- CommandLine: -qxg 4076.abc -O ../svgs/4076.svg -->
<g transform="scale(0.750)" stroke-width="0.70" font-family="Times" font-size="20.00">
<text x="354.13" y="21.67" text-anchor="middle">4076.  Concerto in A, K 414, 1st. Mvt. - 1st. Theme</text>
</g>
<g transform="scale(0.750)" stroke-width="0.70" font-family="Times" font-size="14.00" font-style="italic">
<text x="694.93" y="45.34" text-anchor="end">Wolfgang Amadeus Mozart</text>
</g>
<g transform="scale(0.525)" stroke-width="0.70" font-family="Times" font-size="14.00" font-style="italic">
<defs>
<ellipse id="hd" rx="4.1" ry="2.9"
	transform="rotate(-20)" fill="currentColor"/>
</defs>
<use x="122.76" y="94.16" xlink:href="#hd"/>
<path d="M126.26 94.16v-20.00" stroke="currentColor" fill="none"/>
</g>
<g transform="scale(0.750)" stroke-width="0.70" font-family="Times" font-size="15.00" font-weight="bold">
<text x="93.63" y="68.01">= 120</text>
<path stroke="currentColor" fill="none"
	d="M227.33 106.01v-24.00"/>
<path stroke="currentColor" fill="none"
	d="M419.93 106.01v-24.00"/>
<path stroke="currentColor" fill="none"
	d="M575.23 106.01v-24.00"/>
<path stroke="currentColor" fill="none"
	d="M13.33 106.01h681.60m-681.60 -6h681.60m-681.60 -6h681.60m-681.60 -6h681.60m-681.60 -6h681.60"/>
<defs>
<path id="utclef" fill="currentColor" d="m-50 -90
	c-72 -41 -72 -158 52 -188
	c150 -10 220 188 90 256
	c-114 52 -275 0 -293 -136
	c-15 -181 93 -229 220 -334
	c88 -87 79 -133 62 -210
	c-51 33 -94 105 -89 186
	c17 267 36 374 49 574
	c6 96 -19 134 -77 135
	c-80 1 -126 -93 -61 -133
	c85 -41 133 101 31 105
	c23 17 92 37 90 -92
	c-10 -223 -39 -342 -50 -617
	c0 -90 0 -162 96 -232
	c56 72 63 230 22 289
	c-74 106 -257 168 -255 316
	c9 153 148 185 252 133
	c86 -65 29 -192 -80 -176
	c-71 12 -105 67 -59 124"/>
<use id="tclef" transform="scale(0.045)"
	xlink:href="#utclef"/>
</defs>
<use x="25.33" y="106.01" xlink:href="#tclef"/>
<defs>
<path id="usharp" fill="currentColor" d="
	m136 -702
	v890
	h32
	v-890
	m128 840
	h32
	v-888
	h-32
	m-232 286
	v116
	l338 -96
	v-116
	m-338 442
	v116
	l338 -98
	v-114"/>
<use id="sh0" transform="translate(-4,5) scale(0.018)"
	xlink:href="#usharp"/>
</defs>
<use x="40.33" y="82.01" xlink:href="#sh0"/>
<use x="45.83" y="91.01" xlink:href="#sh0"/>
<use x="51.33" y="79.01" xlink:href="#sh0"/>
<g font-family="serif" font-size="16" font-weight="bold" font-style="normal"
	transform="translate(67.33,106.01) scale(1.2,1)">
	<text y="-1" text-anchor="middle">4</text>
	<text y="-13" text-anchor="middle">4</text>
</g>
<use x="85.33" y="97.01" xlink:href="#hd"/>
<path d="M88.83 97.01v-20.00" stroke="currentColor" fill="none"/>
<use x="122.73" y="97.01" xlink:href="#hd"/>
<path d="M126.23 97.01v-20.00" stroke="currentColor" fill="none"/>
<use x="160.13" y="91.01" xlink:href="#hd"/>
<path d="M156.63 91.01v20.00" stroke="currentColor" fill="none"/>
<use x="197.43" y="85.01" xlink:href="#hd"/>
<path d="M193.93 85.01v20.00" stroke="currentColor" fill="none"/>
<path fill="currentColor"
	d="M236.83 107.31l17.50 2.30v-3.20l-17.50 -2.30"/>
<path fill="currentColor"
	d="M243.23 103.21l-6.00 -0.80v-3.20l6.00 0.80"/>
<use x="240.73" y="85.01" xlink:href="#hd"/>
<path d="M237.23 85.01v21.40" stroke="currentColor" fill="none"/>
<use x="257.53" y="88.01" xlink:href="#hd"/>
<circle fill="currentColor" cx="265.53" cy="85.01" r="1.2"/>
<path d="M254.03 88.01v20.60" stroke="currentColor" fill="none"/>
<path fill="currentColor"
	d="M283.93 113.31l17.50 2.30v-3.20l-17.50 -2.30"/>
<path fill="currentColor"
	d="M290.23 109.21l-6.00 -0.80v-3.20l6.00 0.80"/>
<use x="287.73" y="91.01" xlink:href="#hd"/>
<path d="M284.23 91.01v21.40" stroke="currentColor" fill="none"/>
<use x="304.63" y="94.01" xlink:href="#hd"/>
<circle fill="currentColor" cx="312.63" cy="91.01" r="1.2"/>
<path d="M301.13 94.01v20.60" stroke="currentColor" fill="none"/>
<path fill="currentColor"
	d="M334.93 74.81l17.50 2.30v3.20l-17.50 -2.30"/>
<path fill="currentColor"
	d="M341.33 80.61l-6.00 -0.80v3.20l6.00 0.80"/>
<use x="331.83" y="97.01" xlink:href="#hd"/>
<path d="M335.33 97.01v-21.20" stroke="currentColor" fill="none"/>
<use x="348.63" y="100.01" xlink:href="#hd"/>
<circle fill="currentColor" cx="356.63" cy="97.01" r="1.2"/>
<path d="M352.13 100.01v-22.00" stroke="currentColor" fill="none"/>
<path fill="currentColor"
	d="M382.03 80.81l17.50 -2.30v3.20l-17.50 2.30"/>
<path fill="currentColor"
	d="M388.33 85.01l-6.00 0.80v3.20l6.00 -0.80"/>
<use x="378.83" y="103.01" xlink:href="#hd"/>
<path d="M382.33 103.01v-21.20" stroke="currentColor" fill="none"/>
<use x="395.73" y="100.01" xlink:href="#hd"/>
<circle fill="currentColor" cx="403.73" cy="97.01" r="1.2"/>
<path d="M399.23 100.01v-20.40" stroke="currentColor" fill="none"/>
<use x="433.23" y="94.01" xlink:href="#hd"/>
<path d="M429.73 94.01v20.00" stroke="currentColor" fill="none"/>
<use x="470.63" y="94.01" xlink:href="#hd"/>
<path d="M467.13 94.01v20.00" stroke="currentColor" fill="none"/>
<use x="507.93" y="88.01" xlink:href="#hd"/>
<path d="M504.43 88.01v20.00" stroke="currentColor" fill="none"/>
<use x="545.33" y="82.01" xlink:href="#hd"/>
<path d="M541.83 82.01v20.00" stroke="currentColor" fill="none"/>
<use x="588.53" y="85.01" xlink:href="#hd"/>
<circle fill="currentColor" cx="596.53" cy="85.01" r="1.2"/>
<path d="M585.03 85.01v20.00" stroke="currentColor" fill="none"/>
<use x="631.13" y="91.01" xlink:href="#hd"/>
<path d="M627.63 91.01v20.00" stroke="currentColor" fill="none"/>
<path fill="currentColor"
	d="M627.63 111.01c0.6 -5.6 9.6 -9 5.6 -18.4
	c1.6 6 -1.3 11.6 -5.6 12.8
"/>
<use x="657.63" y="85.01" xlink:href="#hd"/>
<path d="M654.13 85.01v20.00" stroke="currentColor" fill="none"/>
</g>
</svg>
