<?xml version="1.0" standalone="no"?>
<!DOCTYPE svg PUBLIC "-//W3C//DTD SVG 1.1//EN"
	"http://www.w3.org/Graphics/SVG/1.1/DTD/svg11.dtd">
<svg xmlns="http://www.w3.org/2000/svg" version="1.1"
	xmlns:xlink="http://www.w3.org/1999/xlink"
	xml:space='preserve' color="black"
	width="7.38in" height="1.34in" viewBox="0 0 531 97">
<title>4115.abc (4115) tune 1</title>
<!-- Creator: abcm2ps-7.8.14 -->
<!-- CreationDate: Mar 13, 2016 18:54 -->
<!-- CommandLine: -qxg 4115.abc -O ../svgs/4115.svg -->
<g transform="scale(0.750)" stroke-width="0.70" font-family="Times" font-size="20.00">
<text x="354.13" y="21.67" text-anchor="middle">4115.  Concerto in A, K 488, 2nd. Mvt. - 2nd. Theme</text>
</g>
<g transform="scale(0.750)" stroke-width="0.70" font-family="Times" font-size="14.00" font-style="italic">
<text x="694.93" y="45.34" text-anchor="end">Wolfgang Amadeus Mozart</text>
</g>
<g transform="scale(0.525)" stroke-width="0.70" font-family="Times" font-size="14.00" font-style="italic">
<defs>
<ellipse id="hd" rx="4.1" ry="2.9"
	transform="rotate(-20)" fill="currentColor"/>
</defs>
<use x="122.76" y="94.16" xlink:href="#hd"/>
<path d="M126.26 94.16v-20.00" stroke="currentColor" fill="none"/>
</g>
<g transform="scale(0.750)" stroke-width="0.70" font-family="Times" font-size="15.00" font-weight="bold">
<text x="93.63" y="68.01">= 120</text>
<path stroke="currentColor" fill="none"
	d="M232.53 106.01v-24.00"/>
<path stroke="currentColor" fill="none"
	d="M394.53 106.01v-24.00"/>
<path stroke="currentColor" fill="none"
	d="M534.43 106.01v-24.00"/>
<path stroke="currentColor" fill="none"
	d="M694.93 106.01v-24.00"/>
<path stroke="currentColor" fill="none"
	d="M13.33 106.01h681.60m-681.60 -6h681.60m-681.60 -6h681.60m-681.60 -6h681.60m-681.60 -6h681.60"/>
<defs>
<path id="utclef" fill="currentColor" d="m-50 -90
	c-72 -41 -72 -158 52 -188
	c150 -10 220 188 90 256
	c-114 52 -275 0 -293 -136
	c-15 -181 93 -229 220 -334
	c88 -87 79 -133 62 -210
	c-51 33 -94 105 -89 186
	c17 267 36 374 49 574
	c6 96 -19 134 -77 135
	c-80 1 -126 -93 -61 -133
	c85 -41 133 101 31 105
	c23 17 92 37 90 -92
	c-10 -223 -39 -342 -50 -617
	c0 -90 0 -162 96 -232
	c56 72 63 230 22 289
	c-74 106 -257 168 -255 316
	c9 153 148 185 252 133
	c86 -65 29 -192 -80 -176
	c-71 12 -105 67 -59 124"/>
<use id="tclef" transform="scale(0.045)"
	xlink:href="#utclef"/>
</defs>
<use x="25.33" y="106.01" xlink:href="#tclef"/>
<defs>
<path id="usharp" fill="currentColor" d="
	m136 -702
	v890
	h32
	v-890
	m128 840
	h32
	v-888
	h-32
	m-232 286
	v116
	l338 -96
	v-116
	m-338 442
	v116
	l338 -98
	v-114"/>
<use id="sh0" transform="translate(-4,5) scale(0.018)"
	xlink:href="#usharp"/>
</defs>
<use x="40.33" y="82.01" xlink:href="#sh0"/>
<use x="45.83" y="91.01" xlink:href="#sh0"/>
<use x="51.33" y="79.01" xlink:href="#sh0"/>
<g font-family="serif" font-size="16" font-weight="bold" font-style="normal"
	transform="translate(67.33,106.01) scale(1.2,1)">
	<text y="-1" text-anchor="middle">8</text>
	<text y="-13" text-anchor="middle">6</text>
</g>
<use x="85.33" y="97.01" xlink:href="#hd"/>
<circle fill="currentColor" cx="93.33" cy="97.01" r="1.2"/>
<path d="M88.83 97.01v-20.00" stroke="currentColor" fill="none"/>
<path fill="currentColor"
	d="M144.73 77.51l63.60 5.10v3.20l-63.60 -5.10"/>
<use x="141.63" y="97.01" xlink:href="#hd"/>
<path d="M145.13 97.01v-18.50" stroke="currentColor" fill="none"/>
<use x="173.13" y="100.01" xlink:href="#hd"/>
<path d="M176.63 100.01v-19.00" stroke="currentColor" fill="none"/>
<use x="204.53" y="103.01" xlink:href="#hd"/>
<path d="M208.03 103.01v-19.50" stroke="currentColor" fill="none"/>
<path fill="currentColor"
	d="M254.73 81.81l63.60 0.00v3.20l-63.60 -0.00"/>
<use x="251.53" y="103.01" xlink:href="#hd"/>
<defs>
<path id="unat" fill="currentColor" d="
	m96 -750
	h-32
	v716
	l32 -8
	l182 -54
	v282
	h32
	v-706
	l-34 10
	l-180 50
	v-290
	m0 592
	v-190
	l182 -52
	v188"/>
<use id="nt0" transform="translate(-3,5) scale(0.018)"
	xlink:href="#unat"/>
</defs>
<use x="242.53" y="103.01" xlink:href="#nt0"/>
<path d="M255.03 103.01v-20.20" stroke="currentColor" fill="none"/>
<use x="283.03" y="103.01" xlink:href="#hd"/>
<use x="274.03" y="103.01" xlink:href="#sh0"/>
<path d="M286.53 103.01v-20.20" stroke="currentColor" fill="none"/>
<use x="314.53" y="100.01" xlink:href="#hd"/>
<path d="M318.03 100.01v-17.20" stroke="currentColor" fill="none"/>
<defs>
<path id="hl" stroke="currentColor" d="m-6 0h12"/>
</defs>
<use x="349.53" y="112.01" xlink:href="#hl"/>
<use x="349.53" y="112.01" xlink:href="#hd"/>
<circle fill="currentColor" cx="357.53" cy="109.01" r="1.2"/>
<path d="M353.03 112.01v-20.00" stroke="currentColor" fill="none"/>
<defs>
<path id="Hd" fill="currentColor" d="m3 -1.6
	c-1 -1.8 -7 1.4 -6 3.2
	c1 1.8 7 -1.4 6 -3.2
	m0.5 -0.3
	c2 3.8 -5 7.6 -7 3.8
	c-2 -3.8 5 -7.6 7 -3.8"/>
</defs>
<use x="412.03" y="91.01" xlink:href="#Hd"/>
<path d="M408.53 91.01v20.00" stroke="currentColor" fill="none"/>
<path fill="currentColor"
	d="M478.13 74.21l32.20 2.60v3.20l-32.20 -2.60"/>
<use x="475.03" y="94.01" xlink:href="#hd"/>
<path d="M478.53 94.01v-18.80" stroke="currentColor" fill="none"/>
<use x="506.53" y="97.01" xlink:href="#hd"/>
<path d="M510.03 97.01v-19.20" stroke="currentColor" fill="none"/>
<path fill="currentColor"
	d="M555.13 79.51l63.60 -5.10v3.20l-63.60 5.10"/>
<use x="551.93" y="100.01" xlink:href="#hd"/>
<path d="M555.43 100.01v-19.50" stroke="currentColor" fill="none"/>
<use x="583.43" y="97.01" xlink:href="#hd"/>
<path d="M586.93 97.01v-19.00" stroke="currentColor" fill="none"/>
<use x="614.93" y="94.01" xlink:href="#hd"/>
<path d="M618.43 94.01v-18.50" stroke="currentColor" fill="none"/>
<use x="649.93" y="103.01" xlink:href="#hd"/>
<circle fill="currentColor" cx="657.93" cy="103.01" r="1.2"/>
<use x="640.93" y="103.01" xlink:href="#nt0"/>
<path d="M653.43 103.01v-20.00" stroke="currentColor" fill="none"/>
</g>
</svg>
