<?xml version="1.0" standalone="no"?>
<!DOCTYPE svg PUBLIC "-//W3C//DTD SVG 1.1//EN"
	"http://www.w3.org/Graphics/SVG/1.1/DTD/svg11.dtd">
<svg xmlns="http://www.w3.org/2000/svg" version="1.1"
	xmlns:xlink="http://www.w3.org/1999/xlink"
	xml:space='preserve' color="black"
	width="7.38in" height="1.34in" viewBox="0 0 531 97">
<title>4140.abc (4140) tune 1</title>
<!-- Creator: abcm2ps-7.8.14 -->
<!-- CreationDate: Mar 13, 2016 18:54 -->
<!-- CommandLine: -qxg 4140.abc -O ../svgs/4140.svg -->
<g transform="scale(0.750)" stroke-width="0.70" font-family="Times" font-size="20.00">
<text x="354.13" y="21.67" text-anchor="middle">4140.  Concerto in D, K 218, 1st. Mvt. - 2nd. Theme</text>
</g>
<g transform="scale(0.750)" stroke-width="0.70" font-family="Times" font-size="14.00" font-style="italic">
<text x="694.93" y="45.34" text-anchor="end">Wolfgang Amadeus Mozart</text>
</g>
<g transform="scale(0.525)" stroke-width="0.70" font-family="Times" font-size="14.00" font-style="italic">
<defs>
<ellipse id="hd" rx="4.1" ry="2.9"
	transform="rotate(-20)" fill="currentColor"/>
</defs>
<use x="114.90" y="94.16" xlink:href="#hd"/>
<path d="M118.40 94.16v-20.00" stroke="currentColor" fill="none"/>
</g>
<g transform="scale(0.750)" stroke-width="0.70" font-family="Times" font-size="15.00" font-weight="bold">
<text x="88.13" y="68.01">= 120</text>
<path stroke="currentColor" fill="none"
	d="M311.13 106.01v-24.00"/>
<path stroke="currentColor" fill="none"
	d="M535.73 106.01v-24.00"/>
<path stroke="currentColor" fill="none"
	d="M13.33 106.01h681.60m-681.60 -6h681.60m-681.60 -6h681.60m-681.60 -6h681.60m-681.60 -6h681.60"/>
<defs>
<path id="utclef" fill="currentColor" d="m-50 -90
	c-72 -41 -72 -158 52 -188
	c150 -10 220 188 90 256
	c-114 52 -275 0 -293 -136
	c-15 -181 93 -229 220 -334
	c88 -87 79 -133 62 -210
	c-51 33 -94 105 -89 186
	c17 267 36 374 49 574
	c6 96 -19 134 -77 135
	c-80 1 -126 -93 -61 -133
	c85 -41 133 101 31 105
	c23 17 92 37 90 -92
	c-10 -223 -39 -342 -50 -617
	c0 -90 0 -162 96 -232
	c56 72 63 230 22 289
	c-74 106 -257 168 -255 316
	c9 153 148 185 252 133
	c86 -65 29 -192 -80 -176
	c-71 12 -105 67 -59 124"/>
<use id="tclef" transform="scale(0.045)"
	xlink:href="#utclef"/>
</defs>
<use x="25.33" y="106.01" xlink:href="#tclef"/>
<defs>
<path id="usharp" fill="currentColor" d="
	m136 -702
	v890
	h32
	v-890
	m128 840
	h32
	v-888
	h-32
	m-232 286
	v116
	l338 -96
	v-116
	m-338 442
	v116
	l338 -98
	v-114"/>
<use id="sh0" transform="translate(-4,5) scale(0.018)"
	xlink:href="#usharp"/>
</defs>
<use x="40.33" y="82.01" xlink:href="#sh0"/>
<use x="45.83" y="91.01" xlink:href="#sh0"/>
<g font-family="serif" font-size="16" font-weight="bold" font-style="normal"
	transform="translate(61.83,106.01) scale(1.2,1)">
	<text y="-1" text-anchor="middle">4</text>
	<text y="-13" text-anchor="middle">4</text>
</g>
<use x="79.83" y="97.01" xlink:href="#hd"/>
<path d="M83.33 97.01v-20.00" stroke="currentColor" fill="none"/>
<path fill="currentColor"
	d="	M83.33 77.01c0.6 5.6 9.6 9 5.6 18.4
	c1.6 -6 -1.3 -11.6 -5.6 -12.8
"/>
<use x="109.53" y="100.01" xlink:href="#hd"/>
<use x="100.53" y="100.01" xlink:href="#sh0"/>
<path d="M113.03 100.01v-20.00" stroke="currentColor" fill="none"/>
<path fill="currentColor"
	d="	M113.03 80.01c0.6 5.6 9.6 9 5.6 18.4
	c1.6 -6 -1.3 -11.6 -5.6 -12.8
"/>
<use x="139.13" y="97.01" xlink:href="#hd"/>
<path d="M142.63 97.01v-20.00" stroke="currentColor" fill="none"/>
<path fill="currentColor"
	d="	M142.63 77.01c0.6 5.6 9.6 9 5.6 18.4
	c1.6 -6 -1.3 -11.6 -5.6 -12.8
"/>
<use x="168.83" y="94.01" xlink:href="#hd"/>
<path d="M172.33 94.01v-20.00" stroke="currentColor" fill="none"/>
<path fill="currentColor"
	d="	M172.33 74.01c0.6 5.6 9.6 9 5.6 18.4
	c1.6 -6 -1.3 -11.6 -5.6 -12.8
"/>
<use x="198.43" y="97.01" xlink:href="#hd"/>
<path d="M201.93 97.01v-20.00" stroke="currentColor" fill="none"/>
<path fill="currentColor"
	d="	M201.93 77.01c0.6 5.6 9.6 9 5.6 18.4
	c1.6 -6 -1.3 -11.6 -5.6 -12.8
"/>
<use x="228.13" y="100.01" xlink:href="#hd"/>
<use x="219.13" y="100.01" xlink:href="#sh0"/>
<path d="M231.63 100.01v-20.00" stroke="currentColor" fill="none"/>
<path fill="currentColor"
	d="	M231.63 80.01c0.6 5.6 9.6 9 5.6 18.4
	c1.6 -6 -1.3 -11.6 -5.6 -12.8
"/>
<use x="257.73" y="97.01" xlink:href="#hd"/>
<path d="M261.23 97.01v-20.00" stroke="currentColor" fill="none"/>
<path fill="currentColor"
	d="	M261.23 77.01c0.6 5.6 9.6 9 5.6 18.4
	c1.6 -6 -1.3 -11.6 -5.6 -12.8
"/>
<use x="287.43" y="100.01" xlink:href="#hd"/>
<defs>
<path id="unat" fill="currentColor" d="
	m96 -750
	h-32
	v716
	l32 -8
	l182 -54
	v282
	h32
	v-706
	l-34 10
	l-180 50
	v-290
	m0 592
	v-190
	l182 -52
	v188"/>
<use id="nt0" transform="translate(-3,5) scale(0.018)"
	xlink:href="#unat"/>
</defs>
<use x="278.43" y="100.01" xlink:href="#nt0"/>
<path d="M290.93 100.01v-20.00" stroke="currentColor" fill="none"/>
<path fill="currentColor"
	d="	M290.93 80.01c0.6 5.6 9.6 9 5.6 18.4
	c1.6 -6 -1.3 -11.6 -5.6 -12.8
"/>
<use x="325.93" y="103.01" xlink:href="#hd"/>
<path d="M329.43 103.01v-20.00" stroke="currentColor" fill="none"/>
<path fill="currentColor"
	d="	M329.43 83.01c0.6 5.6 9.6 9 5.6 18.4
	c1.6 -6 -1.3 -11.6 -5.6 -12.8
"/>
<use x="355.63" y="106.01" xlink:href="#hd"/>
<path d="M359.13 106.01v-20.00" stroke="currentColor" fill="none"/>
<path fill="currentColor"
	d="	M359.13 86.01c0.6 5.6 9.6 9 5.6 18.4
	c1.6 -6 -1.3 -11.6 -5.6 -12.8
"/>
<use x="385.33" y="109.01" xlink:href="#hd"/>
<path d="M388.83 109.01v-20.00" stroke="currentColor" fill="none"/>
<path fill="currentColor"
	d="	M388.83 89.01c0.6 5.6 9.6 9 5.6 18.4
	c1.6 -6 -1.3 -11.6 -5.6 -12.8
"/>
<defs>
<path id="hl" stroke="currentColor" d="m-6 0h12"/>
</defs>
<use x="414.93" y="112.01" xlink:href="#hl"/>
<use x="414.93" y="112.01" xlink:href="#hd"/>
<path d="M418.43 112.01v-20.00" stroke="currentColor" fill="none"/>
<path fill="currentColor"
	d="	M418.43 92.01c0.6 5.6 9.6 9 5.6 18.4
	c1.6 -6 -1.3 -11.6 -5.6 -12.8
"/>
<use x="444.63" y="106.01" xlink:href="#hd"/>
<path d="M448.13 106.01v-20.00" stroke="currentColor" fill="none"/>
<path fill="currentColor"
	d="	M448.13 86.01c0.6 5.6 9.6 9 5.6 18.4
	c1.6 -6 -1.3 -11.6 -5.6 -12.8
"/>
<use x="474.23" y="100.01" xlink:href="#hd"/>
<path d="M477.73 100.01v-20.00" stroke="currentColor" fill="none"/>
<defs>
<path id="r8e" fill="currentColor" d="m 0 0
	c-1.5 1.5 -2.4 2 -3.6 2
	c2.4 -2.8 -2.8 -4 -2.8 -1.2
	c0 2.7 4.3 2.4 5.9 0.6"/>
<g id="r8">
	<path d="m3.3 -4l-3.4 9.6" stroke="currentColor" fill="none"/>
	<use x="3.4" y="-4" xlink:href="#r8e"/>
</g>
</defs>
<use x="511.93" y="94.01" xlink:href="#r8"/>
<path fill="currentColor"
	d="M553.73 80.11l19.50 -2.40v3.20l-19.50 2.40"/>
<path fill="currentColor"
	d="M554.03 85.11l18.90 -2.30v3.20l-18.90 2.30"/>
<use x="550.53" y="103.01" xlink:href="#hd"/>
<path d="M554.03 103.01v-21.90" stroke="currentColor" fill="none"/>
<use x="569.43" y="100.01" xlink:href="#hd"/>
<path d="M572.93 100.01v-21.20" stroke="currentColor" fill="none"/>
<defs>
<g id="r32">
	<path d="m4.8 -10l-5.5 21.6" stroke="currentColor" fill="none"/>
	<use x="4.9" y="-10" xlink:href="#r8e"/>
	<use x="3.4" y="-4" xlink:href="#r8e"/>
	<use x="1.9" y="2" xlink:href="#r8e"/>
</g>
</defs>
<use x="588.23" y="94.01" xlink:href="#r32"/>
<use x="601.63" y="100.01" xlink:href="#hd"/>
<circle fill="currentColor" cx="614.63" cy="97.01" r="1.2"/>
<path d="M605.13 100.01v-21.00" stroke="currentColor" fill="none"/>
<path fill="currentColor"
	d="M605.13 79.01c0.9 3.7 9.1 6.4 6 12.4
	c1 -5.4 -4.2 -8.4 -6 -8.4
M605.13 84.41c0.9 3.7 9.1 6.4 6 12.4
	c1 -5.4 -4.2 -8.4 -6 -8.4
"/>
<path fill="currentColor"
	d="M628.63 80.81l19.50 2.40v3.20l-19.50 -2.40"/>
<path fill="currentColor"
	d="M628.93 85.81l18.90 2.30v3.20l-18.90 -2.30"/>
<use x="625.43" y="103.01" xlink:href="#hd"/>
<path d="M628.93 103.01v-21.20" stroke="currentColor" fill="none"/>
<use x="644.33" y="106.01" xlink:href="#hd"/>
<path d="M647.83 106.01v-21.90" stroke="currentColor" fill="none"/>
<use x="665.23" y="109.01" xlink:href="#hd"/>
<path d="M668.73 109.01v-20.00" stroke="currentColor" fill="none"/>
<path fill="currentColor"
	d="	M668.73 89.01c0.6 5.6 9.6 9 5.6 18.4
	c1.6 -6 -1.3 -11.6 -5.6 -12.8
"/>
</g>
</svg>
