<?xml version="1.0" standalone="no"?>
<!DOCTYPE svg PUBLIC "-//W3C//DTD SVG 1.1//EN"
	"http://www.w3.org/Graphics/SVG/1.1/DTD/svg11.dtd">
<svg xmlns="http://www.w3.org/2000/svg" version="1.1"
	xmlns:xlink="http://www.w3.org/1999/xlink"
	xml:space='preserve' color="black"
	width="7.38in" height="1.36in" viewBox="0 0 531 98">
<title>4146.abc (4146) tune 1</title>
<!-- Creator: abcm2ps-7.8.14 -->
<!-- CreationDate: Mar 13, 2016 18:54 -->
<!-- CommandLine: -qxg 4146.abc -O ../svgs/4146.svg -->
<g transform="scale(0.750)" stroke-width="0.70" font-family="Times" font-size="20.00">
<text x="354.13" y="21.67" text-anchor="middle">4146.  Concerto in A, K 219, 1st. Mvt. - 1st. Theme</text>
</g>
<g transform="scale(0.750)" stroke-width="0.70" font-family="Times" font-size="14.00" font-style="italic">
<text x="694.93" y="45.34" text-anchor="end">Wolfgang Amadeus Mozart</text>
</g>
<g transform="scale(0.525)" stroke-width="0.70" font-family="Times" font-size="14.00" font-style="italic">
<defs>
<ellipse id="hd" rx="4.1" ry="2.9"
	transform="rotate(-20)" fill="currentColor"/>
</defs>
<use x="122.76" y="94.16" xlink:href="#hd"/>
<path d="M126.26 94.16v-20.00" stroke="currentColor" fill="none"/>
</g>
<g transform="scale(0.750)" stroke-width="0.70" font-family="Times" font-size="15.00" font-weight="bold">
<text x="93.63" y="68.01">= 120</text>
<path stroke="currentColor" fill="none"
	d="M238.53 108.01v-24.00"/>
<path stroke="currentColor" fill="none"
	d="M457.43 108.01v-24.00"/>
<path stroke="currentColor" fill="none"
	d="M694.93 108.01v-24.00"/>
<path stroke="currentColor" fill="none"
	d="M13.33 108.01h681.60m-681.60 -6h681.60m-681.60 -6h681.60m-681.60 -6h681.60m-681.60 -6h681.60"/>
<defs>
<path id="utclef" fill="currentColor" d="m-50 -90
	c-72 -41 -72 -158 52 -188
	c150 -10 220 188 90 256
	c-114 52 -275 0 -293 -136
	c-15 -181 93 -229 220 -334
	c88 -87 79 -133 62 -210
	c-51 33 -94 105 -89 186
	c17 267 36 374 49 574
	c6 96 -19 134 -77 135
	c-80 1 -126 -93 -61 -133
	c85 -41 133 101 31 105
	c23 17 92 37 90 -92
	c-10 -223 -39 -342 -50 -617
	c0 -90 0 -162 96 -232
	c56 72 63 230 22 289
	c-74 106 -257 168 -255 316
	c9 153 148 185 252 133
	c86 -65 29 -192 -80 -176
	c-71 12 -105 67 -59 124"/>
<use id="tclef" transform="scale(0.045)"
	xlink:href="#utclef"/>
</defs>
<use x="25.33" y="108.01" xlink:href="#tclef"/>
<defs>
<path id="usharp" fill="currentColor" d="
	m136 -702
	v890
	h32
	v-890
	m128 840
	h32
	v-888
	h-32
	m-232 286
	v116
	l338 -96
	v-116
	m-338 442
	v116
	l338 -98
	v-114"/>
<use id="sh0" transform="translate(-4,5) scale(0.018)"
	xlink:href="#usharp"/>
</defs>
<use x="40.33" y="84.01" xlink:href="#sh0"/>
<use x="45.83" y="93.01" xlink:href="#sh0"/>
<use x="51.33" y="81.01" xlink:href="#sh0"/>
<g font-family="serif" font-size="16" font-weight="bold" font-style="normal"
	transform="translate(67.33,108.01) scale(1.2,1)">
	<text y="-1" text-anchor="middle">4</text>
	<text y="-13" text-anchor="middle">4</text>
</g>
<defs>
<path id="hl" stroke="currentColor" d="m-6 0h12"/>
</defs>
<use x="85.33" y="78.01" xlink:href="#hl"/>
<use x="85.33" y="78.01" xlink:href="#hd"/>
<circle fill="currentColor" cx="93.33" cy="75.01" r="1.2"/>
<path d="M81.83 78.01v20.00" stroke="currentColor" fill="none"/>
<use x="134.43" y="87.01" xlink:href="#hd"/>
<path d="M130.93 87.01v20.00" stroke="currentColor" fill="none"/>
<path fill="currentColor"
	d="M130.93 107.01c0.6 -5.6 9.6 -9 5.6 -18.4
	c1.6 6 -1.3 11.6 -5.6 12.8
"/>
<use x="164.93" y="78.01" xlink:href="#hl"/>
<use x="164.93" y="72.01" xlink:href="#hl"/>
<use x="164.93" y="72.01" xlink:href="#hd"/>
<circle fill="currentColor" cx="172.93" cy="69.01" r="1.2"/>
<path d="M161.43 72.01v24.00" stroke="currentColor" fill="none"/>
<use x="214.03" y="78.01" xlink:href="#hl"/>
<use x="214.03" y="78.01" xlink:href="#hd"/>
<path d="M210.53 78.01v20.00" stroke="currentColor" fill="none"/>
<path fill="currentColor"
	d="M210.53 98.01c0.6 -5.6 9.6 -9 5.6 -18.4
	c1.6 6 -1.3 11.6 -5.6 12.8
"/>
<use x="253.73" y="78.01" xlink:href="#hl"/>
<use x="253.73" y="72.01" xlink:href="#hl"/>
<use x="253.73" y="66.01" xlink:href="#hl"/>
<use x="253.73" y="66.01" xlink:href="#hd"/>
<path d="M250.23 66.01v30.00" stroke="currentColor" fill="none"/>
<use x="296.83" y="78.01" xlink:href="#hl"/>
<use x="296.83" y="72.01" xlink:href="#hl"/>
<use x="296.83" y="66.01" xlink:href="#hl"/>
<use x="296.83" y="66.01" xlink:href="#hd"/>
<circle fill="currentColor" cx="304.83" cy="63.01" r="1.2"/>
<path d="M293.33 66.01v30.00" stroke="currentColor" fill="none"/>
<path fill="currentColor"
	d="M342.13 96.21l41.90 0.00v-3.20l-41.90 -0.00"/>
<path fill="currentColor"
	d="M342.53 91.21l41.20 0.00v-3.20l-41.20 -0.00"/>
<path fill="currentColor"
	d="M342.53 86.21l41.20 0.00v-3.20l-41.20 -0.00"/>
<use x="346.03" y="78.01" xlink:href="#hl"/>
<use x="346.03" y="72.01" xlink:href="#hl"/>
<use x="346.03" y="66.01" xlink:href="#hl"/>
<use x="346.03" y="66.01" xlink:href="#hd"/>
<path d="M342.53 66.01v29.20" stroke="currentColor" fill="none"/>
<use x="359.73" y="78.01" xlink:href="#hl"/>
<use x="359.73" y="72.01" xlink:href="#hl"/>
<use x="359.73" y="66.01" xlink:href="#hl"/>
<use x="359.73" y="63.01" xlink:href="#hd"/>
<path d="M356.23 63.01v32.20" stroke="currentColor" fill="none"/>
<use x="373.43" y="78.01" xlink:href="#hl"/>
<use x="373.43" y="72.01" xlink:href="#hl"/>
<use x="373.43" y="66.01" xlink:href="#hl"/>
<use x="373.43" y="66.01" xlink:href="#hd"/>
<path d="M369.93 66.01v29.20" stroke="currentColor" fill="none"/>
<use x="387.23" y="78.01" xlink:href="#hl"/>
<use x="387.23" y="72.01" xlink:href="#hl"/>
<use x="387.23" y="66.01" xlink:href="#hl"/>
<use x="387.23" y="63.01" xlink:href="#hd"/>
<path d="M383.73 63.01v32.20" stroke="currentColor" fill="none"/>
<use x="402.43" y="78.01" xlink:href="#hl"/>
<use x="402.43" y="72.01" xlink:href="#hl"/>
<use x="402.43" y="66.01" xlink:href="#hl"/>
<use x="402.43" y="60.01" xlink:href="#hl"/>
<use x="402.43" y="57.01" xlink:href="#hd"/>
<path d="M398.93 57.01v39.00" stroke="currentColor" fill="none"/>
<path fill="currentColor"
	d="M398.93 96.01c0.6 -5.6 9.6 -9 5.6 -18.4
	c1.6 6 -1.3 11.6 -5.6 12.8
"/>
<use x="432.93" y="78.01" xlink:href="#hl"/>
<use x="432.93" y="72.01" xlink:href="#hl"/>
<use x="432.93" y="66.01" xlink:href="#hl"/>
<use x="432.93" y="66.01" xlink:href="#hd"/>
<path d="M429.43 66.01v30.00" stroke="currentColor" fill="none"/>
<path fill="currentColor"
	d="M429.43 96.01c0.6 -5.6 9.6 -9 5.6 -18.4
	c1.6 6 -1.3 11.6 -5.6 12.8
"/>
<defs>
<path id="r8e" fill="currentColor" d="m 0 0
	c-1.5 1.5 -2.4 2 -3.6 2
	c2.4 -2.8 -2.8 -4 -2.8 -1.2
	c0 2.7 4.3 2.4 5.9 0.6"/>
<g id="r32">
	<path d="m4.8 -10l-5.5 21.6" stroke="currentColor" fill="none"/>
	<use x="4.9" y="-10" xlink:href="#r8e"/>
	<use x="3.4" y="-4" xlink:href="#r8e"/>
	<use x="1.9" y="2" xlink:href="#r8e"/>
</g>
</defs>
<use x="472.63" y="96.01" xlink:href="#r32"/>
<path fill="currentColor"
	d="M484.03 97.01l31.90 0.00v-3.20l-31.90 -0.00"/>
<path fill="currentColor"
	d="M509.63 92.01l6.00 0.00v-3.20l-6.00 -0.00"/>
<path fill="currentColor"
	d="M509.63 87.01l6.00 0.00v-3.20l-6.00 -0.00"/>
<use x="487.93" y="78.01" xlink:href="#hl"/>
<use x="487.93" y="72.01" xlink:href="#hl"/>
<use x="487.93" y="72.01" xlink:href="#hd"/>
<circle fill="currentColor" cx="495.93" cy="69.01" r="1.2"/>
<path d="M484.43 72.01v24.00" stroke="currentColor" fill="none"/>
<use x="519.13" y="78.01" xlink:href="#hl"/>
<use x="519.13" y="72.01" xlink:href="#hl"/>
<use x="519.13" y="72.01" xlink:href="#hd"/>
<path d="M515.63 72.01v24.00" stroke="currentColor" fill="none"/>
<use x="534.43" y="78.01" xlink:href="#hl"/>
<use x="534.43" y="72.01" xlink:href="#hl"/>
<use x="534.43" y="72.01" xlink:href="#hd"/>
<circle fill="currentColor" cx="542.43" cy="69.01" r="1.2"/>
<path d="M530.93 72.01v24.00" stroke="currentColor" fill="none"/>
<path fill="currentColor"
	d="M579.73 97.01l41.90 0.00v-3.20l-41.90 -0.00"/>
<path fill="currentColor"
	d="M580.03 92.01l41.20 0.00v-3.20l-41.20 -0.00"/>
<path fill="currentColor"
	d="M580.03 87.01l41.20 0.00v-3.20l-41.20 -0.00"/>
<use x="583.53" y="78.01" xlink:href="#hl"/>
<use x="583.53" y="72.01" xlink:href="#hl"/>
<use x="583.53" y="72.01" xlink:href="#hd"/>
<path d="M580.03 72.01v24.00" stroke="currentColor" fill="none"/>
<use x="597.23" y="78.01" xlink:href="#hl"/>
<use x="597.23" y="72.01" xlink:href="#hl"/>
<use x="597.23" y="69.01" xlink:href="#hd"/>
<path d="M593.73 69.01v27.00" stroke="currentColor" fill="none"/>
<use x="611.03" y="78.01" xlink:href="#hl"/>
<use x="611.03" y="72.01" xlink:href="#hl"/>
<use x="611.03" y="72.01" xlink:href="#hd"/>
<path d="M607.53 72.01v24.00" stroke="currentColor" fill="none"/>
<use x="624.73" y="78.01" xlink:href="#hl"/>
<use x="624.73" y="72.01" xlink:href="#hl"/>
<use x="624.73" y="69.01" xlink:href="#hd"/>
<path d="M621.23 69.01v27.00" stroke="currentColor" fill="none"/>
<use x="640.03" y="78.01" xlink:href="#hl"/>
<use x="640.03" y="72.01" xlink:href="#hl"/>
<use x="640.03" y="66.01" xlink:href="#hl"/>
<use x="640.03" y="66.01" xlink:href="#hd"/>
<path d="M636.53 66.01v30.00" stroke="currentColor" fill="none"/>
<path fill="currentColor"
	d="M636.53 96.01c0.6 -5.6 9.6 -9 5.6 -18.4
	c1.6 6 -1.3 11.6 -5.6 12.8
"/>
<use x="670.53" y="78.01" xlink:href="#hl"/>
<use x="670.53" y="72.01" xlink:href="#hl"/>
<use x="670.53" y="72.01" xlink:href="#hd"/>
<path d="M667.03 72.01v24.00" stroke="currentColor" fill="none"/>
<path fill="currentColor"
	d="M667.03 96.01c0.6 -5.6 9.6 -9 5.6 -18.4
	c1.6 6 -1.3 11.6 -5.6 12.8
"/>
<path fill="currentColor"
	d="M491.43 66.01c3.82 -4.94 20.43 -4.94 24.25 -0.00
	l0.00 -0.22c-4.55 -6.71 -19.71 -6.71 -24.25 0.22"/>
</g>
</svg>
