<?xml version="1.0" standalone="no"?>
<!DOCTYPE svg PUBLIC "-//W3C//DTD SVG 1.1//EN"
	"http://www.w3.org/Graphics/SVG/1.1/DTD/svg11.dtd">
<svg xmlns="http://www.w3.org/2000/svg" version="1.1"
	xmlns:xlink="http://www.w3.org/1999/xlink"
	xml:space='preserve' color="black"
	width="7.38in" height="1.34in" viewBox="0 0 531 97">
<title>4160.abc (4160) tune 1</title>
<!-- Creator: abcm2ps-7.8.14 -->
<!-- CreationDate: Mar 13, 2016 18:54 -->
<!-- CommandLine: -qxg 4160.abc -O ../svgs/4160.svg -->
<g transform="scale(0.750)" stroke-width="0.70" font-family="Times" font-size="20.00">
<text x="354.13" y="21.67" text-anchor="middle">4160.  Deutsche Tanze, K 571, No. 4</text>
</g>
<g transform="scale(0.750)" stroke-width="0.70" font-family="Times" font-size="14.00" font-style="italic">
<text x="694.93" y="45.34" text-anchor="end">Wolfgang Amadeus Mozart</text>
</g>
<g transform="scale(0.525)" stroke-width="0.70" font-family="Times" font-size="14.00" font-style="italic">
<defs>
<ellipse id="hd" rx="4.1" ry="2.9"
	transform="rotate(-20)" fill="currentColor"/>
</defs>
<use x="107.76" y="94.16" xlink:href="#hd"/>
<path d="M111.26 94.16v-20.00" stroke="currentColor" fill="none"/>
</g>
<g transform="scale(0.750)" stroke-width="0.70" font-family="Times" font-size="15.00" font-weight="bold">
<text x="83.13" y="68.01">= 120</text>
<path stroke="currentColor" fill="none"
	d="M120.23 106.01v-24.00"/>
<path stroke="currentColor" fill="none"
	d="M178.53 106.01v-24.00"/>
<path stroke="currentColor" fill="none"
	d="M325.73 106.01v-24.00"/>
<path stroke="currentColor" fill="none"
	d="M436.73 106.01v-24.00"/>
<path stroke="currentColor" fill="none"
	d="M547.73 106.01v-24.00"/>
<path stroke="currentColor" fill="none"
	d="M694.93 106.01v-24.00"/>
<path stroke="currentColor" fill="none"
	d="M13.33 106.01h681.60m-681.60 -6h681.60m-681.60 -6h681.60m-681.60 -6h681.60m-681.60 -6h681.60"/>
<defs>
<path id="utclef" fill="currentColor" d="m-50 -90
	c-72 -41 -72 -158 52 -188
	c150 -10 220 188 90 256
	c-114 52 -275 0 -293 -136
	c-15 -181 93 -229 220 -334
	c88 -87 79 -133 62 -210
	c-51 33 -94 105 -89 186
	c17 267 36 374 49 574
	c6 96 -19 134 -77 135
	c-80 1 -126 -93 -61 -133
	c85 -41 133 101 31 105
	c23 17 92 37 90 -92
	c-10 -223 -39 -342 -50 -617
	c0 -90 0 -162 96 -232
	c56 72 63 230 22 289
	c-74 106 -257 168 -255 316
	c9 153 148 185 252 133
	c86 -65 29 -192 -80 -176
	c-71 12 -105 67 -59 124"/>
<use id="tclef" transform="scale(0.045)"
	xlink:href="#utclef"/>
</defs>
<use x="25.33" y="106.01" xlink:href="#tclef"/>
<defs>
<path id="usharp" fill="currentColor" d="
	m136 -702
	v890
	h32
	v-890
	m128 840
	h32
	v-888
	h-32
	m-232 286
	v116
	l338 -96
	v-116
	m-338 442
	v116
	l338 -98
	v-114"/>
<use id="sh0" transform="translate(-4,5) scale(0.018)"
	xlink:href="#usharp"/>
</defs>
<use x="40.33" y="82.01" xlink:href="#sh0"/>
<g font-family="serif" font-size="16" font-weight="bold" font-style="normal"
	transform="translate(56.33,106.01) scale(1.2,1)">
	<text y="-1" text-anchor="middle">4</text>
	<text y="-13" text-anchor="middle">3</text>
</g>
<defs>
<path id="Hd" fill="currentColor" d="m3 -1.6
	c-1 -1.8 -7 1.4 -6 3.2
	c1 1.8 7 -1.4 6 -3.2
	m0.5 -0.3
	c2 3.8 -5 7.6 -7 3.8
	c-2 -3.8 5 -7.6 7 -3.8"/>
</defs>
<use x="74.83" y="79.01" xlink:href="#Hd"/>
<circle fill="currentColor" cx="84.83" cy="79.01" r="1.2"/>
<path d="M71.33 79.01v20.00" stroke="currentColor" fill="none"/>
<defs>
<path id="hl" stroke="currentColor" d="m-6 0h12"/>
</defs>
<use x="133.23" y="76.01" xlink:href="#hl"/>
<use x="133.23" y="73.01" xlink:href="#Hd"/>
<circle fill="currentColor" cx="142.23" cy="73.01" r="1.2"/>
<path d="M129.73 73.01v21.00" stroke="currentColor" fill="none"/>
<path fill="currentColor"
	d="M187.33 94.21l45.60 0.00v-3.20l-45.60 -0.00"/>
<use x="191.13" y="76.01" xlink:href="#hl"/>
<use x="191.13" y="70.01" xlink:href="#hl"/>
<use x="191.13" y="70.01" xlink:href="#hd"/>
<path d="M187.63 70.01v23.20" stroke="currentColor" fill="none"/>
<use x="213.63" y="76.01" xlink:href="#hl"/>
<use x="213.63" y="73.01" xlink:href="#hd"/>
<path d="M210.13 73.01v20.20" stroke="currentColor" fill="none"/>
<use x="236.03" y="76.01" xlink:href="#hl"/>
<use x="236.03" y="76.01" xlink:href="#hd"/>
<path d="M232.53 76.01v17.20" stroke="currentColor" fill="none"/>
<path fill="currentColor"
	d="M257.13 99.61l45.50 4.80v-3.20l-45.50 -4.80"/>
<use x="260.93" y="79.01" xlink:href="#hd"/>
<path d="M257.43 79.01v19.60" stroke="currentColor" fill="none"/>
<use x="283.33" y="82.01" xlink:href="#hd"/>
<path d="M279.83 82.01v19.00" stroke="currentColor" fill="none"/>
<use x="305.83" y="85.01" xlink:href="#hd"/>
<path d="M302.33 85.01v18.40" stroke="currentColor" fill="none"/>
<use x="338.33" y="88.01" xlink:href="#hd"/>
<path d="M334.83 88.01v20.00" stroke="currentColor" fill="none"/>
<use x="373.53" y="88.01" xlink:href="#hd"/>
<path d="M370.03 88.01v20.00" stroke="currentColor" fill="none"/>
<use x="408.63" y="88.01" xlink:href="#hd"/>
<path d="M405.13 88.01v20.00" stroke="currentColor" fill="none"/>
<use x="449.33" y="88.01" xlink:href="#hd"/>
<path d="M445.83 88.01v20.00" stroke="currentColor" fill="none"/>
<use x="484.43" y="82.01" xlink:href="#hd"/>
<path d="M480.93 82.01v20.00" stroke="currentColor" fill="none"/>
<use x="519.53" y="76.01" xlink:href="#hl"/>
<use x="519.53" y="76.01" xlink:href="#hd"/>
<path d="M516.03 76.01v20.00" stroke="currentColor" fill="none"/>
<path fill="currentColor"
	d="M556.43 94.21l45.60 0.00v-3.20l-45.60 -0.00"/>
<use x="560.33" y="76.01" xlink:href="#hl"/>
<use x="560.33" y="70.01" xlink:href="#hl"/>
<use x="560.33" y="70.01" xlink:href="#hd"/>
<path d="M556.83 70.01v23.20" stroke="currentColor" fill="none"/>
<use x="582.73" y="76.01" xlink:href="#hl"/>
<use x="582.73" y="73.01" xlink:href="#hd"/>
<path d="M579.23 73.01v20.20" stroke="currentColor" fill="none"/>
<use x="605.23" y="76.01" xlink:href="#hl"/>
<use x="605.23" y="76.01" xlink:href="#hd"/>
<path d="M601.73 76.01v17.20" stroke="currentColor" fill="none"/>
<path fill="currentColor"
	d="M626.23 99.61l45.50 4.80v-3.20l-45.50 -4.80"/>
<use x="630.13" y="79.01" xlink:href="#hd"/>
<path d="M626.63 79.01v19.60" stroke="currentColor" fill="none"/>
<use x="652.53" y="82.01" xlink:href="#hd"/>
<path d="M649.03 82.01v19.00" stroke="currentColor" fill="none"/>
<use x="674.93" y="85.01" xlink:href="#hd"/>
<path d="M671.43 85.01v18.40" stroke="currentColor" fill="none"/>
</g>
</svg>
