<?xml version="1.0" standalone="no"?>
<!DOCTYPE svg PUBLIC "-//W3C//DTD SVG 1.1//EN"
	"http://www.w3.org/Graphics/SVG/1.1/DTD/svg11.dtd">
<svg xmlns="http://www.w3.org/2000/svg" version="1.1"
	xmlns:xlink="http://www.w3.org/1999/xlink"
	xml:space='preserve' color="black"
	width="7.38in" height="1.34in" viewBox="0 0 531 97">
<title>4190.abc (4190) tune 1</title>
<!-- Creator: abcm2ps-7.8.14 -->
<!-- CreationDate: Mar 13, 2016 18:54 -->
<!-- CommandLine: -qxg 4190.abc -O ../svgs/4190.svg -->
<g transform="scale(0.750)" stroke-width="0.70" font-family="Times" font-size="20.00">
<text x="354.13" y="21.67" text-anchor="middle">4190.  Divertimento in F, K 247, 1st. Mvt. - 2nd. Theme</text>
</g>
<g transform="scale(0.750)" stroke-width="0.70" font-family="Times" font-size="14.00" font-style="italic">
<text x="694.93" y="45.34" text-anchor="end">Wolfgang Amadeus Mozart</text>
</g>
<g transform="scale(0.525)" stroke-width="0.70" font-family="Times" font-size="14.00" font-style="italic">
<defs>
<ellipse id="hd" rx="4.1" ry="2.9"
	transform="rotate(-20)" fill="currentColor"/>
</defs>
<use x="107.04" y="94.16" xlink:href="#hd"/>
<path d="M110.54 94.16v-20.00" stroke="currentColor" fill="none"/>
</g>
<g transform="scale(0.750)" stroke-width="0.70" font-family="Times" font-size="15.00" font-weight="bold">
<text x="82.63" y="68.01">= 120</text>
<path stroke="currentColor" fill="none"
	d="M357.93 106.01v-24.00"/>
<path stroke="currentColor" fill="none"
	d="M537.43 106.01v-24.00"/>
<path stroke="currentColor" fill="none"
	d="M13.33 106.01h681.60m-681.60 -6h681.60m-681.60 -6h681.60m-681.60 -6h681.60m-681.60 -6h681.60"/>
<defs>
<path id="utclef" fill="currentColor" d="m-50 -90
	c-72 -41 -72 -158 52 -188
	c150 -10 220 188 90 256
	c-114 52 -275 0 -293 -136
	c-15 -181 93 -229 220 -334
	c88 -87 79 -133 62 -210
	c-51 33 -94 105 -89 186
	c17 267 36 374 49 574
	c6 96 -19 134 -77 135
	c-80 1 -126 -93 -61 -133
	c85 -41 133 101 31 105
	c23 17 92 37 90 -92
	c-10 -223 -39 -342 -50 -617
	c0 -90 0 -162 96 -232
	c56 72 63 230 22 289
	c-74 106 -257 168 -255 316
	c9 153 148 185 252 133
	c86 -65 29 -192 -80 -176
	c-71 12 -105 67 -59 124"/>
<use id="tclef" transform="scale(0.045)"
	xlink:href="#utclef"/>
</defs>
<use x="25.33" y="106.01" xlink:href="#tclef"/>
<defs>
<path id="uflat" fill="currentColor" d="
	m100 -746
	h32
	v734
	l-32 4
	m32 -332
	c46 -72 152 -90 208 -20
	c100 110 -120 326 -208 348
	m0 -28
	c54 0 200 -206 130 -290
	c-50 -60 -130 -4 -130 34"/>
<use id="ft0" transform="translate(-3.5,3.5) scale(0.018)"
	xlink:href="#uflat"/>
</defs>
<use x="40.33" y="94.01" xlink:href="#ft0"/>
<g font-family="serif" font-size="16" font-weight="bold" font-style="normal"
	transform="translate(56.33,106.01) scale(1.2,1)">
	<text y="-1" text-anchor="middle">4</text>
	<text y="-13" text-anchor="middle">4</text>
</g>
<defs>
<path id="hl" stroke="currentColor" d="m-6 0h12"/>
</defs>
<use x="74.33" y="112.01" xlink:href="#hl"/>
<use x="74.33" y="112.01" xlink:href="#hd"/>
<path d="M77.83 112.01v-20.00" stroke="currentColor" fill="none"/>
<path fill="currentColor"
	d="	M77.83 92.01c0.6 5.6 9.6 9 5.6 18.4
	c1.6 -6 -1.3 -11.6 -5.6 -12.8
"/>
<use x="107.73" y="103.01" xlink:href="#hd"/>
<path d="M111.23 103.01v-20.00" stroke="currentColor" fill="none"/>
<path fill="currentColor"
	d="	M111.23 83.01c0.6 5.6 9.6 9 5.6 18.4
	c1.6 -6 -1.3 -11.6 -5.6 -12.8
"/>
<use x="141.13" y="103.01" xlink:href="#hd"/>
<path d="M144.63 103.01v-20.00" stroke="currentColor" fill="none"/>
<path fill="currentColor"
	d="	M144.63 83.01c0.6 5.6 9.6 9 5.6 18.4
	c1.6 -6 -1.3 -11.6 -5.6 -12.8
"/>
<use x="174.63" y="103.01" xlink:href="#hd"/>
<path d="M178.13 103.01v-20.00" stroke="currentColor" fill="none"/>
<path fill="currentColor"
	d="	M178.13 83.01c0.6 5.6 9.6 9 5.6 18.4
	c1.6 -6 -1.3 -11.6 -5.6 -12.8
"/>
<use x="208.03" y="103.01" xlink:href="#hd"/>
<path d="M211.53 103.01v-20.00" stroke="currentColor" fill="none"/>
<path fill="currentColor"
	d="	M211.53 83.01c0.6 5.6 9.6 9 5.6 18.4
	c1.6 -6 -1.3 -11.6 -5.6 -12.8
"/>
<path fill="currentColor"
	d="M244.53 83.21l21.90 -2.40v3.20l-21.90 2.40"/>
<path fill="currentColor"
	d="M244.93 88.11l21.30 -2.30v3.20l-21.30 2.30"/>
<use x="241.43" y="106.01" xlink:href="#hd"/>
<path d="M244.93 106.01v-21.90" stroke="currentColor" fill="none"/>
<use x="262.63" y="103.01" xlink:href="#hd"/>
<path d="M266.13 103.01v-21.20" stroke="currentColor" fill="none"/>
<path fill="currentColor"
	d="M289.43 77.71l21.90 4.00v3.20l-21.90 -4.00"/>
<path fill="currentColor"
	d="M289.83 82.81l21.30 3.80v3.20l-21.30 -3.80"/>
<use x="286.33" y="100.01" xlink:href="#hd"/>
<path d="M289.83 100.01v-21.20" stroke="currentColor" fill="none"/>
<use x="307.53" y="106.01" xlink:href="#hd"/>
<path d="M311.03 106.01v-23.40" stroke="currentColor" fill="none"/>
<use x="331.13" y="112.01" xlink:href="#hl"/>
<use x="331.13" y="112.01" xlink:href="#hd"/>
<path d="M334.63 112.01v-20.00" stroke="currentColor" fill="none"/>
<path fill="currentColor"
	d="	M334.63 92.01c0.6 5.6 9.6 9 5.6 18.4
	c1.6 -6 -1.3 -11.6 -5.6 -12.8
"/>
<use x="374.63" y="112.01" xlink:href="#hl"/>
<use x="374.63" y="112.01" xlink:href="#hd"/>
<path d="M378.13 112.01v-20.00" stroke="currentColor" fill="none"/>
<path fill="currentColor"
	d="	M378.13 92.01c0.6 5.6 9.6 9 5.6 18.4
	c1.6 -6 -1.3 -11.6 -5.6 -12.8
"/>
<defs>
<path id="Hd" fill="currentColor" d="m3 -1.6
	c-1 -1.8 -7 1.4 -6 3.2
	c1 1.8 7 -1.4 6 -3.2
	m0.5 -0.3
	c2 3.8 -5 7.6 -7 3.8
	c-2 -3.8 5 -7.6 7 -3.8"/>
</defs>
<use x="408.03" y="91.01" xlink:href="#Hd"/>
<path d="M404.53 91.01v20.00" stroke="currentColor" fill="none"/>
<use x="468.13" y="97.01" xlink:href="#hd"/>
<path d="M471.63 97.01v-20.00" stroke="currentColor" fill="none"/>
<defs>
<path id="r8e" fill="currentColor" d="m 0 0
	c-1.5 1.5 -2.4 2 -3.6 2
	c2.4 -2.8 -2.8 -4 -2.8 -1.2
	c0 2.7 4.3 2.4 5.9 0.6"/>
<g id="r8">
	<path d="m3.3 -4l-3.4 9.6" stroke="currentColor" fill="none"/>
	<use x="3.4" y="-4" xlink:href="#r8e"/>
</g>
</defs>
<use x="510.73" y="94.01" xlink:href="#r8"/>
<use x="554.13" y="112.01" xlink:href="#hl"/>
<use x="554.13" y="112.01" xlink:href="#hd"/>
<path d="M557.63 112.01v-20.00" stroke="currentColor" fill="none"/>
<path fill="currentColor"
	d="	M557.63 92.01c0.6 5.6 9.6 9 5.6 18.4
	c1.6 -6 -1.3 -11.6 -5.6 -12.8
"/>
<use x="587.53" y="91.01" xlink:href="#Hd"/>
<path d="M584.03 91.01v20.00" stroke="currentColor" fill="none"/>
<use x="647.73" y="97.01" xlink:href="#hd"/>
<path d="M651.23 97.01v-20.00" stroke="currentColor" fill="none"/>
</g>
</svg>
