<?xml version="1.0" standalone="no"?>
<!DOCTYPE svg PUBLIC "-//W3C//DTD SVG 1.1//EN"
	"http://www.w3.org/Graphics/SVG/1.1/DTD/svg11.dtd">
<svg xmlns="http://www.w3.org/2000/svg" version="1.1"
	xmlns:xlink="http://www.w3.org/1999/xlink"
	xml:space='preserve' color="black"
	width="7.38in" height="1.40in" viewBox="0 0 531 101">
<title>4193.abc (4193) tune 1</title>
<!-- Creator: abcm2ps-7.8.14 -->
<!-- CreationDate: Mar 13, 2016 18:54 -->
<!-- CommandLine: -qxg 4193.abc -O ../svgs/4193.svg -->
<g transform="scale(0.750)" stroke-width="0.70" font-family="Times" font-size="20.00">
<text x="354.13" y="21.67" text-anchor="middle">4193.  Divertimento in F, K 247, 4th. Mvt.</text>
</g>
<g transform="scale(0.750)" stroke-width="0.70" font-family="Times" font-size="14.00" font-style="italic">
<text x="694.93" y="45.34" text-anchor="end">Wolfgang Amadeus Mozart</text>
</g>
<g transform="scale(0.525)" stroke-width="0.70" font-family="Times" font-size="14.00" font-style="italic">
<defs>
<ellipse id="hd" rx="4.1" ry="2.9"
	transform="rotate(-20)" fill="currentColor"/>
</defs>
<use x="114.90" y="94.16" xlink:href="#hd"/>
<path d="M118.40 94.16v-20.00" stroke="currentColor" fill="none"/>
</g>
<g transform="scale(0.750)" stroke-width="0.70" font-family="Times" font-size="15.00" font-weight="bold">
<text x="88.13" y="68.01">= 120</text>
<path stroke="currentColor" fill="none"
	d="M324.33 108.01v-24.00"/>
<path stroke="currentColor" fill="none"
	d="M592.73 108.01v-24.00"/>
<path stroke="currentColor" fill="none"
	d="M13.33 108.01h681.60m-681.60 -6h681.60m-681.60 -6h681.60m-681.60 -6h681.60m-681.60 -6h681.60"/>
<text font-family="serif" font-size="12" font-style="italic" font-weight="normal"
	x="188.73" y="124.01" text-anchor="middle">3</text>
<text font-family="serif" font-size="12" font-style="italic" font-weight="normal"
	x="549.63" y="134.01" text-anchor="middle">3</text>
<defs>
<path id="utclef" fill="currentColor" d="m-50 -90
	c-72 -41 -72 -158 52 -188
	c150 -10 220 188 90 256
	c-114 52 -275 0 -293 -136
	c-15 -181 93 -229 220 -334
	c88 -87 79 -133 62 -210
	c-51 33 -94 105 -89 186
	c17 267 36 374 49 574
	c6 96 -19 134 -77 135
	c-80 1 -126 -93 -61 -133
	c85 -41 133 101 31 105
	c23 17 92 37 90 -92
	c-10 -223 -39 -342 -50 -617
	c0 -90 0 -162 96 -232
	c56 72 63 230 22 289
	c-74 106 -257 168 -255 316
	c9 153 148 185 252 133
	c86 -65 29 -192 -80 -176
	c-71 12 -105 67 -59 124"/>
<use id="tclef" transform="scale(0.045)"
	xlink:href="#utclef"/>
</defs>
<use x="25.33" y="108.01" xlink:href="#tclef"/>
<defs>
<path id="uflat" fill="currentColor" d="
	m100 -746
	h32
	v734
	l-32 4
	m32 -332
	c46 -72 152 -90 208 -20
	c100 110 -120 326 -208 348
	m0 -28
	c54 0 200 -206 130 -290
	c-50 -60 -130 -4 -130 34"/>
<use id="ft0" transform="translate(-3.5,3.5) scale(0.018)"
	xlink:href="#uflat"/>
</defs>
<use x="40.33" y="96.01" xlink:href="#ft0"/>
<use x="45.83" y="87.01" xlink:href="#ft0"/>
<g font-family="serif" font-size="16" font-weight="bold" font-style="normal"
	transform="translate(61.83,108.01) scale(1.2,1)">
	<text y="-1" text-anchor="middle">2</text>
	<text y="-13" text-anchor="middle">2</text>
</g>
<use x="79.83" y="96.01" xlink:href="#hd"/>
<path d="M83.33 96.01v-20.00" stroke="currentColor" fill="none"/>
<use x="124.13" y="99.01" xlink:href="#hd"/>
<path d="M127.63 99.01v-20.00" stroke="currentColor" fill="none"/>
<path fill="currentColor"
	d="M164.53 108.21l44.60 0.00v-3.20l-44.60 -0.00"/>
<use x="168.33" y="87.01" xlink:href="#hd"/>
<path d="M164.83 87.01v20.20" stroke="currentColor" fill="none"/>
<use x="190.33" y="90.01" xlink:href="#hd"/>
<path d="M186.83 90.01v17.20" stroke="currentColor" fill="none"/>
<use x="212.33" y="87.01" xlink:href="#hd"/>
<path d="M208.83 87.01v20.20" stroke="currentColor" fill="none"/>
<path fill="currentColor"
	d="M237.43 71.01l73.10 0.00v3.20l-73.10 -0.00"/>
<path fill="currentColor"
	d="M237.83 76.01l72.40 0.00v3.20l-72.40 -0.00"/>
<path fill="currentColor"
	d="M274.33 81.01l6.00 0.00v3.20l-6.00 -0.00"/>
<use x="234.33" y="93.01" xlink:href="#hd"/>
<circle fill="currentColor" cx="242.33" cy="93.01" r="1.2"/>
<path d="M237.83 93.01v-21.00" stroke="currentColor" fill="none"/>
<use x="256.93" y="99.01" xlink:href="#hd"/>
<path d="M260.43 99.01v-27.00" stroke="currentColor" fill="none"/>
<use x="276.83" y="99.01" xlink:href="#hd"/>
<path d="M280.33 99.01v-27.00" stroke="currentColor" fill="none"/>
<use x="283.93" y="96.01" xlink:href="#hd"/>
<use x="306.63" y="96.01" xlink:href="#hd"/>
<path d="M310.13 96.01v-24.00" stroke="currentColor" fill="none"/>
<use x="340.03" y="96.01" xlink:href="#hd"/>
<path d="M336.53 96.01v20.00" stroke="currentColor" fill="none"/>
<path fill="currentColor"
	d="M336.53 116.01c0.6 -5.6 9.6 -9 5.6 -18.4
	c1.6 6 -1.3 11.6 -5.6 12.8
"/>
<use x="371.33" y="96.01" xlink:href="#hd"/>
<path d="M367.83 96.01v25.00" stroke="currentColor" fill="none"/>
<path fill="currentColor"
	d="M367.83 121.01c0.9 -3.7 9.1 -6.4 6 -12.4
	c1 5.4 -4.2 8.4 -6 8.4
M367.83 115.61c0.9 -3.7 9.1 -6.4 6 -12.4
	c1 5.4 -4.2 8.4 -6 8.4
M367.83 110.21c0.9 -3.7 9.1 -6.4 6 -12.4
	c1 5.4 -4.2 8.4 -6 8.4
"/>
<use x="385.43" y="99.01" xlink:href="#hd"/>
<path d="M388.93 99.01v-20.00" stroke="currentColor" fill="none"/>
<defs>
<path id="r8e" fill="currentColor" d="m 0 0
	c-1.5 1.5 -2.4 2 -3.6 2
	c2.4 -2.8 -2.8 -4 -2.8 -1.2
	c0 2.7 4.3 2.4 5.9 0.6"/>
<g id="r16">
	<path d="m3.3 -4l-4 15.6" stroke="currentColor" fill="none"/>
	<use x="3.4" y="-4" xlink:href="#r8e"/>
	<use x="1.9" y="2" xlink:href="#r8e"/>
</g>
</defs>
<use x="425.23" y="96.01" xlink:href="#r16"/>
<circle fill="currentColor" cx="433.23" cy="93.01" r="1.2"/>
<path fill="currentColor"
	d="M446.63 115.01l57.40 0.00v-3.20l-57.40 -0.00"/>
<path fill="currentColor"
	d="M446.93 110.01l56.70 0.00v-3.20l-56.70 -0.00"/>
<path fill="currentColor"
	d="M483.53 105.01l6.00 0.00v-3.20l-6.00 -0.00"/>
<use x="450.43" y="87.01" xlink:href="#hd"/>
<circle fill="currentColor" cx="458.43" cy="87.01" r="1.2"/>
<path d="M446.93 87.01v27.00" stroke="currentColor" fill="none"/>
<use x="473.13" y="90.01" xlink:href="#hd"/>
<path d="M469.63 90.01v24.00" stroke="currentColor" fill="none"/>
<use x="493.03" y="90.01" xlink:href="#hd"/>
<path d="M489.53 90.01v24.00" stroke="currentColor" fill="none"/>
<use x="507.13" y="87.01" xlink:href="#hd"/>
<path d="M503.63 87.01v27.00" stroke="currentColor" fill="none"/>
<path fill="currentColor"
	d="M525.43 118.21l44.60 0.00v-3.20l-44.60 -0.00"/>
<use x="529.23" y="93.01" xlink:href="#hd"/>
<path d="M525.73 93.01v24.20" stroke="currentColor" fill="none"/>
<use x="551.23" y="99.01" xlink:href="#hd"/>
<path d="M547.73 99.01v18.20" stroke="currentColor" fill="none"/>
<use x="573.23" y="93.01" xlink:href="#hd"/>
<path d="M569.73 93.01v24.20" stroke="currentColor" fill="none"/>
<path fill="currentColor"
	d="M604.53 120.21l62.00 0.00v-3.20l-62.00 -0.00"/>
<path fill="currentColor"
	d="M604.93 115.21l61.40 0.00v-3.20l-61.40 -0.00"/>
<path fill="currentColor"
	d="M653.43 110.21l-6.00 -0.00v-3.20l6.00 0.00"/>
<use x="608.43" y="96.01" xlink:href="#hd"/>
<circle fill="currentColor" cx="616.43" cy="93.01" r="1.2"/>
<path d="M604.93 96.01v23.20" stroke="currentColor" fill="none"/>
<use x="631.03" y="96.01" xlink:href="#hd"/>
<path d="M627.53 96.01v23.20" stroke="currentColor" fill="none"/>
<use x="650.93" y="96.01" xlink:href="#hd"/>
<path d="M647.43 96.01v23.20" stroke="currentColor" fill="none"/>
<use x="643.93" y="96.01" xlink:href="#hd"/>
<use x="669.73" y="96.01" xlink:href="#hd"/>
<circle fill="currentColor" cx="677.73" cy="93.01" r="1.2"/>
<path d="M666.23 96.01v23.20" stroke="currentColor" fill="none"/>
<path fill="currentColor"
	d="M256.93 101.01c3.14 4.86 16.78 4.86 19.91 -0.00
	l0.00 0.22c-3.73 6.64 -16.18 6.64 -19.91 -0.22"/>
<path fill="currentColor"
	d="M284.53 96.01c2.93 4.83 15.65 4.83 18.58 -0.00
	l0.00 0.22c-3.48 6.62 -15.09 6.62 -18.58 -0.22"/>
<path fill="currentColor"
	d="M310.13 96.01c4.15 4.97 22.21 4.97 26.36 -0.00
	l0.00 0.23c-4.94 6.75 -21.42 6.75 -26.36 -0.23"/>
<path fill="currentColor"
	d="M343.53 96.01c3.83 -4.94 20.48 -4.94 24.31 -0.00
	l0.00 -0.22c-4.56 -6.71 -19.75 -6.71 -24.31 0.22"/>
<path fill="currentColor"
	d="M473.13 90.01c3.14 -4.86 16.78 -4.86 19.91 -0.00
	l0.00 -0.22c-3.73 -6.64 -16.18 -6.64 -19.91 0.22"/>
<path fill="currentColor"
	d="M631.03 96.01c3.14 -4.86 16.78 -4.86 19.91 -0.00
	l0.00 -0.22c-3.73 -6.64 -16.18 -6.64 -19.91 0.22"/>
<path fill="currentColor"
	d="M650.23 96.01c2.52 -4.79 13.46 -4.79 15.98 -0.00
	l0.00 -0.22c-3.00 -6.57 -12.99 -6.57 -15.98 0.22"/>
</g>
</svg>
