<?xml version="1.0" standalone="no"?>
<!DOCTYPE svg PUBLIC "-//W3C//DTD SVG 1.1//EN"
	"http://www.w3.org/Graphics/SVG/1.1/DTD/svg11.dtd">
<svg xmlns="http://www.w3.org/2000/svg" version="1.1"
	xmlns:xlink="http://www.w3.org/1999/xlink"
	xml:space='preserve' color="black"
	width="7.38in" height="1.34in" viewBox="0 0 531 97">
<title>4273.abc (4273) tune 1</title>
<!-- Creator: abcm2ps-7.8.14 -->
<!-- CreationDate: Mar 13, 2016 18:54 -->
<!-- CommandLine: -qxg 4273.abc -O ../svgs/4273.svg -->
<g transform="scale(0.750)" stroke-width="0.70" font-family="Times" font-size="20.00">
<text x="354.13" y="21.67" text-anchor="middle">4273.  Quartet in E Flat, K 428, 3rd. Mvt.</text>
</g>
<g transform="scale(0.750)" stroke-width="0.70" font-family="Times" font-size="14.00" font-style="italic">
<text x="694.93" y="45.34" text-anchor="end">Wolfgang Amadeus Mozart</text>
</g>
<g transform="scale(0.525)" stroke-width="0.70" font-family="Times" font-size="14.00" font-style="italic">
<defs>
<ellipse id="hd" rx="4.1" ry="2.9"
	transform="rotate(-20)" fill="currentColor"/>
</defs>
<use x="122.76" y="94.16" xlink:href="#hd"/>
<path d="M126.26 94.16v-20.00" stroke="currentColor" fill="none"/>
</g>
<g transform="scale(0.750)" stroke-width="0.70" font-family="Times" font-size="15.00" font-weight="bold">
<text x="93.63" y="68.01">= 120</text>
<path stroke="currentColor" fill="none"
	d="M185.53 106.01v-24.00"/>
<path stroke="currentColor" fill="none"
	d="M299.73 106.01v-24.00"/>
<path stroke="currentColor" fill="none"
	d="M462.33 106.01v-24.00"/>
<path stroke="currentColor" fill="none"
	d="M627.63 106.01v-24.00"/>
<path stroke="currentColor" fill="none"
	d="M13.33 106.01h681.60m-681.60 -6h681.60m-681.60 -6h681.60m-681.60 -6h681.60m-681.60 -6h681.60"/>
<defs>
<path id="utclef" fill="currentColor" d="m-50 -90
	c-72 -41 -72 -158 52 -188
	c150 -10 220 188 90 256
	c-114 52 -275 0 -293 -136
	c-15 -181 93 -229 220 -334
	c88 -87 79 -133 62 -210
	c-51 33 -94 105 -89 186
	c17 267 36 374 49 574
	c6 96 -19 134 -77 135
	c-80 1 -126 -93 -61 -133
	c85 -41 133 101 31 105
	c23 17 92 37 90 -92
	c-10 -223 -39 -342 -50 -617
	c0 -90 0 -162 96 -232
	c56 72 63 230 22 289
	c-74 106 -257 168 -255 316
	c9 153 148 185 252 133
	c86 -65 29 -192 -80 -176
	c-71 12 -105 67 -59 124"/>
<use id="tclef" transform="scale(0.045)"
	xlink:href="#utclef"/>
</defs>
<use x="25.33" y="106.01" xlink:href="#tclef"/>
<defs>
<path id="uflat" fill="currentColor" d="
	m100 -746
	h32
	v734
	l-32 4
	m32 -332
	c46 -72 152 -90 208 -20
	c100 110 -120 326 -208 348
	m0 -28
	c54 0 200 -206 130 -290
	c-50 -60 -130 -4 -130 34"/>
<use id="ft0" transform="translate(-3.5,3.5) scale(0.018)"
	xlink:href="#uflat"/>
</defs>
<use x="40.33" y="94.01" xlink:href="#ft0"/>
<use x="45.83" y="85.01" xlink:href="#ft0"/>
<use x="51.33" y="97.01" xlink:href="#ft0"/>
<g font-family="serif" font-size="16" font-weight="bold" font-style="normal"
	transform="translate(67.33,106.01) scale(1.2,1)">
	<text y="-1" text-anchor="middle">4</text>
	<text y="-13" text-anchor="middle">3</text>
</g>
<defs>
<path id="r8e" fill="currentColor" d="m 0 0
	c-1.5 1.5 -2.4 2 -3.6 2
	c2.4 -2.8 -2.8 -4 -2.8 -1.2
	c0 2.7 4.3 2.4 5.9 0.6"/>
<g id="r32">
	<path d="m4.8 -10l-5.5 21.6" stroke="currentColor" fill="none"/>
	<use x="4.9" y="-10" xlink:href="#r8e"/>
	<use x="3.4" y="-4" xlink:href="#r8e"/>
	<use x="1.9" y="2" xlink:href="#r8e"/>
</g>
</defs>
<use x="85.33" y="94.01" xlink:href="#r32"/>
<path fill="currentColor"
	d="M95.53 113.01l29.40 0.00v-3.20l-29.40 -0.00"/>
<path fill="currentColor"
	d="M118.53 108.01l6.00 0.00v-3.20l-6.00 -0.00"/>
<path fill="currentColor"
	d="M118.53 103.01l6.00 0.00v-3.20l-6.00 -0.00"/>
<use x="99.33" y="85.01" xlink:href="#hd"/>
<circle fill="currentColor" cx="107.33" cy="85.01" r="1.2"/>
<path d="M95.83 85.01v27.00" stroke="currentColor" fill="none"/>
<use x="128.03" y="85.01" xlink:href="#hd"/>
<path d="M124.53 85.01v27.00" stroke="currentColor" fill="none"/>
<defs>
<path id="Hd" fill="currentColor" d="m3 -1.6
	c-1 -1.8 -7 1.4 -6 3.2
	c1 1.8 7 -1.4 6 -3.2
	m0.5 -0.3
	c2 3.8 -5 7.6 -7 3.8
	c-2 -3.8 5 -7.6 7 -3.8"/>
</defs>
<use x="140.73" y="106.01" xlink:href="#Hd"/>
<path d="M144.23 106.01v-20.00" stroke="currentColor" fill="none"/>
<use x="199.53" y="94.01" xlink:href="#r32"/>
<path fill="currentColor"
	d="M209.73 113.01l29.40 0.00v-3.20l-29.40 -0.00"/>
<path fill="currentColor"
	d="M232.83 108.01l6.00 0.00v-3.20l-6.00 -0.00"/>
<path fill="currentColor"
	d="M232.83 103.01l6.00 0.00v-3.20l-6.00 -0.00"/>
<use x="213.53" y="85.01" xlink:href="#hd"/>
<circle fill="currentColor" cx="221.53" cy="85.01" r="1.2"/>
<path d="M210.03 85.01v27.00" stroke="currentColor" fill="none"/>
<use x="242.33" y="85.01" xlink:href="#hd"/>
<path d="M238.83 85.01v27.00" stroke="currentColor" fill="none"/>
<use x="254.93" y="103.01" xlink:href="#Hd"/>
<path d="M258.43 103.01v-20.00" stroke="currentColor" fill="none"/>
<path fill="currentColor"
	d="M309.93 113.21l51.10 0.00v-3.20l-51.10 -0.00"/>
<use x="313.73" y="91.01" xlink:href="#hd"/>
<path d="M310.23 91.01v21.20" stroke="currentColor" fill="none"/>
<use x="339.03" y="94.01" xlink:href="#hd"/>
<path d="M335.53 94.01v18.20" stroke="currentColor" fill="none"/>
<use x="364.23" y="94.01" xlink:href="#hd"/>
<path d="M360.73 94.01v18.20" stroke="currentColor" fill="none"/>
<path fill="currentColor"
	d="M392.63 79.01l51.10 0.00v3.20l-51.10 -0.00"/>
<use x="389.43" y="97.01" xlink:href="#hd"/>
<path d="M392.93 97.01v-17.00" stroke="currentColor" fill="none"/>
<use x="414.63" y="97.01" xlink:href="#hd"/>
<path d="M418.13 97.01v-17.00" stroke="currentColor" fill="none"/>
<use x="439.93" y="100.01" xlink:href="#hd"/>
<path d="M443.43 100.01v-20.00" stroke="currentColor" fill="none"/>
<path fill="currentColor"
	d="M479.53 79.01l51.10 0.00v3.20l-51.10 -0.00"/>
<use x="476.33" y="97.01" xlink:href="#hd"/>
<path d="M479.83 97.01v-17.00" stroke="currentColor" fill="none"/>
<use x="501.53" y="100.01" xlink:href="#hd"/>
<path d="M505.03 100.01v-20.00" stroke="currentColor" fill="none"/>
<use x="526.73" y="100.01" xlink:href="#hd"/>
<path d="M530.23 100.01v-20.00" stroke="currentColor" fill="none"/>
<path fill="currentColor"
	d="M557.93 85.01l51.10 0.00v3.20l-51.10 -0.00"/>
<use x="554.83" y="103.01" xlink:href="#hd"/>
<path d="M558.33 103.01v-17.00" stroke="currentColor" fill="none"/>
<use x="580.03" y="103.01" xlink:href="#hd"/>
<path d="M583.53 103.01v-17.00" stroke="currentColor" fill="none"/>
<use x="605.23" y="106.01" xlink:href="#hd"/>
<path d="M608.73 106.01v-20.00" stroke="currentColor" fill="none"/>
<path fill="currentColor"
	d="M644.83 83.31l25.90 2.50v3.20l-25.90 -2.50"/>
<use x="641.73" y="103.01" xlink:href="#hd"/>
<path d="M645.23 103.01v-18.70" stroke="currentColor" fill="none"/>
<use x="666.93" y="106.01" xlink:href="#hd"/>
<path d="M670.43 106.01v-19.30" stroke="currentColor" fill="none"/>
<path fill="currentColor"
	d="M102.83 83.01c3.42 -4.89 18.31 -4.89 21.73 -0.00
	l0.00 -0.22c-4.07 -6.67 -17.65 -6.67 -21.73 0.22"/>
<path fill="currentColor"
	d="M217.03 83.01c3.42 -4.89 18.31 -4.89 21.73 -0.00
	l0.00 -0.22c-4.07 -6.67 -17.65 -6.67 -21.73 0.22"/>
</g>
</svg>
