<?xml version="1.0" standalone="no"?>
<!DOCTYPE svg PUBLIC "-//W3C//DTD SVG 1.1//EN"
	"http://www.w3.org/Graphics/SVG/1.1/DTD/svg11.dtd">
<svg xmlns="http://www.w3.org/2000/svg" version="1.1"
	xmlns:xlink="http://www.w3.org/1999/xlink"
	xml:space='preserve' color="black"
	width="7.38in" height="1.43in" viewBox="0 0 531 103">
<title>4305.abc (4305) tune 1</title>
<!-- Creator: abcm2ps-7.8.14 -->
<!-- CreationDate: Mar 13, 2016 18:54 -->
<!-- CommandLine: -qxg 4305.abc -O ../svgs/4305.svg -->
<g transform="scale(0.750)" stroke-width="0.70" font-family="Times" font-size="20.00">
<text x="354.13" y="21.67" text-anchor="middle">4305.  Quartet in F, K 590, 3rd. Mvt.</text>
</g>
<g transform="scale(0.750)" stroke-width="0.70" font-family="Times" font-size="14.00" font-style="italic">
<text x="694.93" y="45.34" text-anchor="end">Wolfgang Amadeus Mozart</text>
</g>
<g transform="scale(0.525)" stroke-width="0.70" font-family="Times" font-size="14.00" font-style="italic">
<defs>
<ellipse id="hd" rx="4.1" ry="2.9"
	transform="rotate(-20)" fill="currentColor"/>
</defs>
<use x="107.04" y="94.16" xlink:href="#hd"/>
<path d="M110.54 94.16v-20.00" stroke="currentColor" fill="none"/>
</g>
<g transform="scale(0.750)" stroke-width="0.70" font-family="Times" font-size="15.00" font-weight="bold">
<text x="82.63" y="68.01">= 120</text>
<path stroke="currentColor" fill="none"
	d="M175.03 114.01v-24.00"/>
<path stroke="currentColor" fill="none"
	d="M282.03 114.01v-24.00"/>
<path stroke="currentColor" fill="none"
	d="M388.93 114.01v-24.00"/>
<path stroke="currentColor" fill="none"
	d="M515.43 114.01v-24.00"/>
<path stroke="currentColor" fill="none"
	d="M651.13 114.01v-24.00"/>
<path stroke="currentColor" fill="none"
	d="M13.33 114.01h681.60m-681.60 -6h681.60m-681.60 -6h681.60m-681.60 -6h681.60m-681.60 -6h681.60"/>
<defs>
<path id="utclef" fill="currentColor" d="m-50 -90
	c-72 -41 -72 -158 52 -188
	c150 -10 220 188 90 256
	c-114 52 -275 0 -293 -136
	c-15 -181 93 -229 220 -334
	c88 -87 79 -133 62 -210
	c-51 33 -94 105 -89 186
	c17 267 36 374 49 574
	c6 96 -19 134 -77 135
	c-80 1 -126 -93 -61 -133
	c85 -41 133 101 31 105
	c23 17 92 37 90 -92
	c-10 -223 -39 -342 -50 -617
	c0 -90 0 -162 96 -232
	c56 72 63 230 22 289
	c-74 106 -257 168 -255 316
	c9 153 148 185 252 133
	c86 -65 29 -192 -80 -176
	c-71 12 -105 67 -59 124"/>
<use id="tclef" transform="scale(0.045)"
	xlink:href="#utclef"/>
</defs>
<use x="25.33" y="114.01" xlink:href="#tclef"/>
<defs>
<path id="uflat" fill="currentColor" d="
	m100 -746
	h32
	v734
	l-32 4
	m32 -332
	c46 -72 152 -90 208 -20
	c100 110 -120 326 -208 348
	m0 -28
	c54 0 200 -206 130 -290
	c-50 -60 -130 -4 -130 34"/>
<use id="ft0" transform="translate(-3.5,3.5) scale(0.018)"
	xlink:href="#uflat"/>
</defs>
<use x="40.33" y="102.01" xlink:href="#ft0"/>
<g font-family="serif" font-size="16" font-weight="bold" font-style="normal"
	transform="translate(56.33,114.01) scale(1.2,1)">
	<text y="-1" text-anchor="middle">4</text>
	<text y="-13" text-anchor="middle">3</text>
</g>
<path fill="currentColor"
	d="M70.53 109.31l21.10 -3.90v-3.20l-21.10 3.90"/>
<use x="74.33" y="90.01" xlink:href="#hd"/>
<path d="M70.83 90.01v18.20" stroke="currentColor" fill="none"/>
<defs>
<path id="hl" stroke="currentColor" d="m-6 0h12"/>
</defs>
<use x="94.83" y="84.01" xlink:href="#hl"/>
<use x="94.83" y="84.01" xlink:href="#hd"/>
<path d="M91.33 84.01v20.40" stroke="currentColor" fill="none"/>
<use x="117.53" y="84.01" xlink:href="#hl"/>
<use x="117.53" y="78.01" xlink:href="#hl"/>
<use x="117.53" y="78.01" xlink:href="#hd"/>
<path d="M114.03 78.01v24.00" stroke="currentColor" fill="none"/>
<use x="149.43" y="84.01" xlink:href="#hl"/>
<use x="149.43" y="78.01" xlink:href="#hl"/>
<use x="149.43" y="78.01" xlink:href="#hd"/>
<path d="M145.93 78.01v24.00" stroke="currentColor" fill="none"/>
<use x="187.53" y="84.01" xlink:href="#hl"/>
<use x="187.53" y="78.01" xlink:href="#hl"/>
<use x="187.53" y="78.01" xlink:href="#hd"/>
<path d="M184.03 78.01v24.00" stroke="currentColor" fill="none"/>
<defs>
<path id="r8e" fill="currentColor" d="m 0 0
	c-1.5 1.5 -2.4 2 -3.6 2
	c2.4 -2.8 -2.8 -4 -2.8 -1.2
	c0 2.7 4.3 2.4 5.9 0.6"/>
<g id="r32">
	<path d="m4.8 -10l-5.5 21.6" stroke="currentColor" fill="none"/>
	<use x="4.9" y="-10" xlink:href="#r8e"/>
	<use x="3.4" y="-4" xlink:href="#r8e"/>
	<use x="1.9" y="2" xlink:href="#r8e"/>
</g>
</defs>
<use x="216.23" y="102.01" xlink:href="#r32"/>
<use x="227.83" y="84.01" xlink:href="#hl"/>
<use x="227.83" y="78.01" xlink:href="#hl"/>
<use x="227.83" y="78.01" xlink:href="#hd"/>
<circle fill="currentColor" cx="235.83" cy="75.01" r="1.2"/>
<path d="M224.33 78.01v24.00" stroke="currentColor" fill="none"/>
<use x="265.03" y="84.01" xlink:href="#hl"/>
<use x="265.03" y="78.01" xlink:href="#hl"/>
<use x="265.03" y="78.01" xlink:href="#hd"/>
<circle fill="currentColor" cx="273.03" cy="75.01" r="1.2"/>
<path d="M261.53 78.01v24.00" stroke="currentColor" fill="none"/>
<path fill="currentColor"
	d="M261.53 102.01c0.9 -3.7 9.1 -6.4 6 -12.4
	c1 5.4 -4.2 8.4 -6 8.4
M261.53 96.61c0.9 -3.7 9.1 -6.4 6 -12.4
	c1 5.4 -4.2 8.4 -6 8.4
"/>
<use x="294.53" y="84.01" xlink:href="#hl"/>
<use x="294.53" y="78.01" xlink:href="#hl"/>
<use x="294.53" y="78.01" xlink:href="#hd"/>
<path d="M291.03 78.01v24.00" stroke="currentColor" fill="none"/>
<use x="323.13" y="102.01" xlink:href="#r32"/>
<use x="334.73" y="84.01" xlink:href="#hl"/>
<use x="334.73" y="78.01" xlink:href="#hl"/>
<use x="334.73" y="78.01" xlink:href="#hd"/>
<circle fill="currentColor" cx="342.73" cy="75.01" r="1.2"/>
<path d="M331.23 78.01v24.00" stroke="currentColor" fill="none"/>
<use x="371.93" y="84.01" xlink:href="#hl"/>
<use x="371.93" y="78.01" xlink:href="#hl"/>
<use x="371.93" y="78.01" xlink:href="#hd"/>
<circle fill="currentColor" cx="379.93" cy="75.01" r="1.2"/>
<path d="M368.43 78.01v24.00" stroke="currentColor" fill="none"/>
<path fill="currentColor"
	d="M368.43 102.01c0.9 -3.7 9.1 -6.4 6 -12.4
	c1 5.4 -4.2 8.4 -6 8.4
M368.43 96.61c0.9 -3.7 9.1 -6.4 6 -12.4
	c1 5.4 -4.2 8.4 -6 8.4
"/>
<use x="401.43" y="84.01" xlink:href="#hl"/>
<use x="401.43" y="78.01" xlink:href="#hl"/>
<use x="401.43" y="78.01" xlink:href="#hd"/>
<path d="M397.93 78.01v24.00" stroke="currentColor" fill="none"/>
<use x="433.33" y="84.01" xlink:href="#hl"/>
<use x="433.33" y="78.01" xlink:href="#hl"/>
<use x="433.33" y="75.01" xlink:href="#hd"/>
<path d="M429.83 75.01v27.00" stroke="currentColor" fill="none"/>
<path fill="currentColor"
	d="M429.83 102.01c0.6 -5.6 9.6 -9 5.6 -18.4
	c1.6 6 -1.3 11.6 -5.6 12.8
"/>
<path fill="currentColor"
	d="M452.23 102.21l41.80 0.00v-3.20l-41.80 -0.00"/>
<use x="456.13" y="84.01" xlink:href="#hl"/>
<use x="456.13" y="78.01" xlink:href="#hl"/>
<use x="456.13" y="78.01" xlink:href="#hd"/>
<path d="M452.63 78.01v23.20" stroke="currentColor" fill="none"/>
<use x="476.63" y="84.01" xlink:href="#hl"/>
<use x="476.63" y="78.01" xlink:href="#hl"/>
<use x="476.63" y="75.01" xlink:href="#hd"/>
<path d="M473.13 75.01v26.20" stroke="currentColor" fill="none"/>
<use x="497.13" y="84.01" xlink:href="#hl"/>
<use x="497.13" y="78.01" xlink:href="#hl"/>
<use x="497.13" y="78.01" xlink:href="#hd"/>
<path d="M493.63 78.01v23.20" stroke="currentColor" fill="none"/>
<path fill="currentColor"
	d="M524.13 102.21l41.80 0.00v-3.20l-41.80 -0.00"/>
<use x="527.93" y="84.01" xlink:href="#hl"/>
<use x="527.93" y="78.01" xlink:href="#hl"/>
<use x="527.93" y="75.01" xlink:href="#hd"/>
<path d="M524.43 75.01v26.20" stroke="currentColor" fill="none"/>
<use x="548.53" y="84.01" xlink:href="#hl"/>
<use x="548.53" y="78.01" xlink:href="#hl"/>
<use x="548.53" y="78.01" xlink:href="#hd"/>
<path d="M545.03 78.01v23.20" stroke="currentColor" fill="none"/>
<use x="569.03" y="84.01" xlink:href="#hl"/>
<use x="569.03" y="78.01" xlink:href="#hl"/>
<use x="569.03" y="75.01" xlink:href="#hd"/>
<path d="M565.53 75.01v26.20" stroke="currentColor" fill="none"/>
<path fill="currentColor"
	d="M587.93 102.21l41.80 0.00v-3.20l-41.80 -0.00"/>
<use x="591.83" y="84.01" xlink:href="#hl"/>
<use x="591.83" y="78.01" xlink:href="#hl"/>
<use x="591.83" y="78.01" xlink:href="#hd"/>
<path d="M588.33 78.01v23.20" stroke="currentColor" fill="none"/>
<use x="612.33" y="84.01" xlink:href="#hl"/>
<use x="612.33" y="81.01" xlink:href="#hd"/>
<path d="M608.83 81.01v20.20" stroke="currentColor" fill="none"/>
<use x="632.83" y="84.01" xlink:href="#hl"/>
<use x="632.83" y="84.01" xlink:href="#hd"/>
<path d="M629.33 84.01v17.20" stroke="currentColor" fill="none"/>
<use x="663.63" y="87.01" xlink:href="#hd"/>
<path d="M660.13 87.01v20.00" stroke="currentColor" fill="none"/>
<path fill="currentColor"
	d="M231.33 72.01c4.75 -5.04 25.40 -5.04 30.15 -0.00
	l0.00 -0.23c-5.65 -6.81 -24.50 -6.81 -30.15 0.23"/>
<path fill="currentColor"
	d="M268.53 72.01c3.54 -4.90 18.96 -4.90 22.50 -0.00
	l0.00 -0.22c-4.22 -6.68 -18.28 -6.68 -22.50 0.22"/>
<path fill="currentColor"
	d="M338.23 72.01c4.75 -5.04 25.40 -5.04 30.15 -0.00
	l0.00 -0.23c-5.65 -6.81 -24.50 -6.81 -30.15 0.23"/>
<path fill="currentColor"
	d="M375.43 72.01c3.54 -4.90 18.96 -4.90 22.50 -0.00
	l0.00 -0.22c-4.22 -6.68 -18.28 -6.68 -22.50 0.22"/>
</g>
</svg>
