<?xml version="1.0" standalone="no"?>
<!DOCTYPE svg PUBLIC "-//W3C//DTD SVG 1.1//EN"
	"http://www.w3.org/Graphics/SVG/1.1/DTD/svg11.dtd">
<svg xmlns="http://www.w3.org/2000/svg" version="1.1"
	xmlns:xlink="http://www.w3.org/1999/xlink"
	xml:space='preserve' color="black"
	width="7.38in" height="1.34in" viewBox="0 0 531 97">
<title>4311.abc (4311) tune 1</title>
<!-- Creator: abcm2ps-7.8.14 -->
<!-- CreationDate: Mar 13, 2016 18:54 -->
<!-- CommandLine: -qxg 4311.abc -O ../svgs/4311.svg -->
<g transform="scale(0.750)" stroke-width="0.70" font-family="Times" font-size="20.00">
<text x="354.13" y="21.67" text-anchor="middle">4311.  Quintet in A, K 581, 4th. Mvt.</text>
</g>
<g transform="scale(0.750)" stroke-width="0.70" font-family="Times" font-size="14.00" font-style="italic">
<text x="694.93" y="45.34" text-anchor="end">Wolfgang Amadeus Mozart</text>
</g>
<g transform="scale(0.525)" stroke-width="0.70" font-family="Times" font-size="14.00" font-style="italic">
<defs>
<ellipse id="hd" rx="4.1" ry="2.9"
	transform="rotate(-20)" fill="currentColor"/>
</defs>
<use x="122.76" y="94.16" xlink:href="#hd"/>
<path d="M126.26 94.16v-20.00" stroke="currentColor" fill="none"/>
</g>
<g transform="scale(0.750)" stroke-width="0.70" font-family="Times" font-size="15.00" font-weight="bold">
<text x="93.63" y="68.01">= 120</text>
<path stroke="currentColor" fill="none"
	d="M206.23 106.01v-24.00"/>
<path stroke="currentColor" fill="none"
	d="M353.83 106.01v-24.00"/>
<path stroke="currentColor" fill="none"
	d="M487.33 106.01v-24.00"/>
<path stroke="currentColor" fill="none"
	d="M694.93 106.01v-24.00"/>
<path stroke="currentColor" fill="none"
	d="M13.33 106.01h681.60m-681.60 -6h681.60m-681.60 -6h681.60m-681.60 -6h681.60m-681.60 -6h681.60"/>
<defs>
<path id="utclef" fill="currentColor" d="m-50 -90
	c-72 -41 -72 -158 52 -188
	c150 -10 220 188 90 256
	c-114 52 -275 0 -293 -136
	c-15 -181 93 -229 220 -334
	c88 -87 79 -133 62 -210
	c-51 33 -94 105 -89 186
	c17 267 36 374 49 574
	c6 96 -19 134 -77 135
	c-80 1 -126 -93 -61 -133
	c85 -41 133 101 31 105
	c23 17 92 37 90 -92
	c-10 -223 -39 -342 -50 -617
	c0 -90 0 -162 96 -232
	c56 72 63 230 22 289
	c-74 106 -257 168 -255 316
	c9 153 148 185 252 133
	c86 -65 29 -192 -80 -176
	c-71 12 -105 67 -59 124"/>
<use id="tclef" transform="scale(0.045)"
	xlink:href="#utclef"/>
</defs>
<use x="25.33" y="106.01" xlink:href="#tclef"/>
<defs>
<path id="usharp" fill="currentColor" d="
	m136 -702
	v890
	h32
	v-890
	m128 840
	h32
	v-888
	h-32
	m-232 286
	v116
	l338 -96
	v-116
	m-338 442
	v116
	l338 -98
	v-114"/>
<use id="sh0" transform="translate(-4,5) scale(0.018)"
	xlink:href="#usharp"/>
</defs>
<use x="40.33" y="82.01" xlink:href="#sh0"/>
<use x="45.83" y="91.01" xlink:href="#sh0"/>
<use x="51.33" y="79.01" xlink:href="#sh0"/>
<g font-family="serif" font-size="16" font-weight="bold" font-style="normal"
	transform="translate(67.33,106.01) scale(1.2,1)">
	<text y="-1" text-anchor="middle">2</text>
	<text y="-13" text-anchor="middle">2</text>
</g>
<use x="85.33" y="85.01" xlink:href="#hd"/>
<path d="M81.83 85.01v20.00" stroke="currentColor" fill="none"/>
<use x="117.13" y="85.01" xlink:href="#hd"/>
<path d="M113.63 85.01v20.00" stroke="currentColor" fill="none"/>
<use x="148.93" y="91.01" xlink:href="#hd"/>
<path d="M145.43 91.01v20.00" stroke="currentColor" fill="none"/>
<use x="180.73" y="91.01" xlink:href="#hd"/>
<path d="M177.23 91.01v20.00" stroke="currentColor" fill="none"/>
<path fill="currentColor"
	d="M214.93 108.01l62.30 0.00v-3.20l-62.30 -0.00"/>
<path fill="currentColor"
	d="M232.73 103.01l6.00 0.00v-3.20l-6.00 -0.00"/>
<path fill="currentColor"
	d="M270.83 103.01l6.00 0.00v-3.20l-6.00 -0.00"/>
<use x="218.73" y="88.01" xlink:href="#hd"/>
<circle fill="currentColor" cx="226.73" cy="85.01" r="1.2"/>
<path d="M215.23 88.01v19.00" stroke="currentColor" fill="none"/>
<use x="242.23" y="85.01" xlink:href="#hd"/>
<path d="M238.73 85.01v22.00" stroke="currentColor" fill="none"/>
<use x="256.83" y="82.01" xlink:href="#hd"/>
<circle fill="currentColor" cx="264.83" cy="79.01" r="1.2"/>
<path d="M253.33 82.01v25.00" stroke="currentColor" fill="none"/>
<use x="280.33" y="88.01" xlink:href="#hd"/>
<path d="M276.83 88.01v19.00" stroke="currentColor" fill="none"/>
<use x="296.43" y="94.01" xlink:href="#hd"/>
<path d="M292.93 94.01v20.00" stroke="currentColor" fill="none"/>
<use x="328.23" y="94.01" xlink:href="#hd"/>
<path d="M324.73 94.01v20.00" stroke="currentColor" fill="none"/>
<use x="366.33" y="97.01" xlink:href="#hd"/>
<path d="M369.83 97.01v-20.00" stroke="currentColor" fill="none"/>
<use x="398.13" y="97.01" xlink:href="#hd"/>
<path d="M401.63 97.01v-20.00" stroke="currentColor" fill="none"/>
<use x="430.03" y="85.01" xlink:href="#hd"/>
<path d="M426.53 85.01v20.00" stroke="currentColor" fill="none"/>
<use x="461.83" y="85.01" xlink:href="#hd"/>
<path d="M458.33 85.01v20.00" stroke="currentColor" fill="none"/>
<path fill="currentColor"
	d="M496.03 118.91l32.00 0.00v-3.20l-32.00 -0.00"/>
<path fill="currentColor"
	d="M496.33 113.91l31.30 0.00v-3.20l-31.30 -0.00"/>
<path fill="currentColor"
	d="M496.33 108.91l31.30 0.00v-3.20l-31.30 -0.00"/>
<use x="499.83" y="91.01" xlink:href="#hd"/>
<path d="M496.33 91.01v27.00" stroke="currentColor" fill="none"/>
<use x="510.23" y="88.01" xlink:href="#hd"/>
<path d="M506.73 88.01v30.00" stroke="currentColor" fill="none"/>
<use x="520.73" y="91.01" xlink:href="#hd"/>
<path d="M517.23 91.01v27.00" stroke="currentColor" fill="none"/>
<use x="531.13" y="88.01" xlink:href="#hd"/>
<path d="M527.63 88.01v30.00" stroke="currentColor" fill="none"/>
<path fill="currentColor"
	d="M538.83 118.91l32.00 0.00v-3.20l-32.00 -0.00"/>
<path fill="currentColor"
	d="M539.13 113.91l31.30 0.00v-3.20l-31.30 -0.00"/>
<path fill="currentColor"
	d="M539.13 108.91l31.30 0.00v-3.20l-31.30 -0.00"/>
<use x="542.63" y="91.01" xlink:href="#hd"/>
<path d="M539.13 91.01v27.00" stroke="currentColor" fill="none"/>
<use x="553.03" y="88.01" xlink:href="#hd"/>
<path d="M549.53 88.01v30.00" stroke="currentColor" fill="none"/>
<use x="563.53" y="91.01" xlink:href="#hd"/>
<path d="M560.03 91.01v27.00" stroke="currentColor" fill="none"/>
<use x="573.93" y="88.01" xlink:href="#hd"/>
<path d="M570.43 88.01v30.00" stroke="currentColor" fill="none"/>
<path fill="currentColor"
	d="M581.63 118.91l32.00 0.00v-3.20l-32.00 -0.00"/>
<path fill="currentColor"
	d="M581.93 113.91l31.30 0.00v-3.20l-31.30 -0.00"/>
<path fill="currentColor"
	d="M581.93 108.91l31.30 0.00v-3.20l-31.30 -0.00"/>
<use x="585.43" y="91.01" xlink:href="#hd"/>
<path d="M581.93 91.01v27.00" stroke="currentColor" fill="none"/>
<use x="595.83" y="88.01" xlink:href="#hd"/>
<path d="M592.33 88.01v30.00" stroke="currentColor" fill="none"/>
<use x="606.33" y="91.01" xlink:href="#hd"/>
<path d="M602.83 91.01v27.00" stroke="currentColor" fill="none"/>
<use x="616.73" y="88.01" xlink:href="#hd"/>
<path d="M613.23 88.01v30.00" stroke="currentColor" fill="none"/>
<path fill="currentColor"
	d="M624.43 116.21l15.20 -2.20v-3.20l-15.20 2.20"/>
<path fill="currentColor"
	d="M624.73 111.21l14.60 -2.10v-3.20l-14.60 2.10"/>
<use x="628.23" y="94.01" xlink:href="#hd"/>
<path d="M624.73 94.01v21.20" stroke="currentColor" fill="none"/>
<use x="642.83" y="91.01" xlink:href="#hd"/>
<path d="M639.33 91.01v22.10" stroke="currentColor" fill="none"/>
<defs>
<path id="Hd" fill="currentColor" d="m3 -1.6
	c-1 -1.8 -7 1.4 -6 3.2
	c1 1.8 7 -1.4 6 -3.2
	m0.5 -0.3
	c2 3.8 -5 7.6 -7 3.8
	c-2 -3.8 5 -7.6 7 -3.8"/>
</defs>
<use x="658.93" y="94.01" xlink:href="#Hd"/>
<path d="M655.43 94.01v20.00" stroke="currentColor" fill="none"/>
</g>
</svg>
