<?xml version="1.0" standalone="no"?>
<!DOCTYPE svg PUBLIC "-//W3C//DTD SVG 1.1//EN"
	"http://www.w3.org/Graphics/SVG/1.1/DTD/svg11.dtd">
<svg xmlns="http://www.w3.org/2000/svg" version="1.1"
	xmlns:xlink="http://www.w3.org/1999/xlink"
	xml:space='preserve' color="black"
	width="7.38in" height="1.34in" viewBox="0 0 531 97">
<title>4314.abc (4314) tune 1</title>
<!-- Creator: abcm2ps-7.8.14 -->
<!-- CreationDate: Mar 13, 2016 18:54 -->
<!-- CommandLine: -qxg 4314.abc -O ../svgs/4314.svg -->
<g transform="scale(0.750)" stroke-width="0.70" font-family="Times" font-size="20.00">
<text x="354.13" y="21.67" text-anchor="middle">4314.  Quintet in E Flat, K 452, 2nd. Mvt.</text>
</g>
<g transform="scale(0.750)" stroke-width="0.70" font-family="Times" font-size="14.00" font-style="italic">
<text x="694.93" y="45.34" text-anchor="end">Wolfgang Amadeus Mozart</text>
</g>
<g transform="scale(0.525)" stroke-width="0.70" font-family="Times" font-size="14.00" font-style="italic">
<defs>
<ellipse id="hd" rx="4.1" ry="2.9"
	transform="rotate(-20)" fill="currentColor"/>
</defs>
<use x="114.90" y="94.16" xlink:href="#hd"/>
<path d="M118.40 94.16v-20.00" stroke="currentColor" fill="none"/>
</g>
<g transform="scale(0.750)" stroke-width="0.70" font-family="Times" font-size="15.00" font-weight="bold">
<text x="88.13" y="68.01">= 120</text>
<path stroke="currentColor" fill="none"
	d="M180.33 106.01v-24.00"/>
<path stroke="currentColor" fill="none"
	d="M299.63 106.01v-24.00"/>
<path stroke="currentColor" fill="none"
	d="M387.43 106.01v-24.00"/>
<path stroke="currentColor" fill="none"
	d="M13.33 106.01h467.50m-467.50 -6h467.50m-467.50 -6h467.50m-467.50 -6h467.50m-467.50 -6h467.50"/>
<defs>
<path id="utclef" fill="currentColor" d="m-50 -90
	c-72 -41 -72 -158 52 -188
	c150 -10 220 188 90 256
	c-114 52 -275 0 -293 -136
	c-15 -181 93 -229 220 -334
	c88 -87 79 -133 62 -210
	c-51 33 -94 105 -89 186
	c17 267 36 374 49 574
	c6 96 -19 134 -77 135
	c-80 1 -126 -93 -61 -133
	c85 -41 133 101 31 105
	c23 17 92 37 90 -92
	c-10 -223 -39 -342 -50 -617
	c0 -90 0 -162 96 -232
	c56 72 63 230 22 289
	c-74 106 -257 168 -255 316
	c9 153 148 185 252 133
	c86 -65 29 -192 -80 -176
	c-71 12 -105 67 -59 124"/>
<use id="tclef" transform="scale(0.045)"
	xlink:href="#utclef"/>
</defs>
<use x="25.33" y="106.01" xlink:href="#tclef"/>
<defs>
<path id="uflat" fill="currentColor" d="
	m100 -746
	h32
	v734
	l-32 4
	m32 -332
	c46 -72 152 -90 208 -20
	c100 110 -120 326 -208 348
	m0 -28
	c54 0 200 -206 130 -290
	c-50 -60 -130 -4 -130 34"/>
<use id="ft0" transform="translate(-3.5,3.5) scale(0.018)"
	xlink:href="#uflat"/>
</defs>
<use x="40.33" y="94.01" xlink:href="#ft0"/>
<use x="45.83" y="85.01" xlink:href="#ft0"/>
<g font-family="serif" font-size="16" font-weight="bold" font-style="normal"
	transform="translate(61.83,106.01) scale(1.2,1)">
	<text y="-1" text-anchor="middle">8</text>
	<text y="-13" text-anchor="middle">3</text>
</g>
<path fill="currentColor"
	d="M76.03 113.01l89.80 0.00v-3.20l-89.80 -0.00"/>
<path fill="currentColor"
	d="M127.23 108.01l38.20 0.00v-3.20l-38.20 -0.00"/>
<path fill="currentColor"
	d="M127.23 103.01l38.20 0.00v-3.20l-38.20 -0.00"/>
<use x="79.83" y="82.01" xlink:href="#hd"/>
<path d="M76.33 82.01v30.00" stroke="currentColor" fill="none"/>
<use x="105.33" y="88.01" xlink:href="#hd"/>
<path d="M101.83 88.01v24.00" stroke="currentColor" fill="none"/>
<use x="130.73" y="82.01" xlink:href="#hd"/>
<path d="M127.23 82.01v30.00" stroke="currentColor" fill="none"/>
<use x="143.53" y="85.01" xlink:href="#hd"/>
<path d="M140.03 85.01v27.00" stroke="currentColor" fill="none"/>
<use x="156.23" y="88.01" xlink:href="#hd"/>
<path d="M152.73 88.01v24.00" stroke="currentColor" fill="none"/>
<use x="168.93" y="85.01" xlink:href="#hd"/>
<path d="M165.43 85.01v27.00" stroke="currentColor" fill="none"/>
<path fill="currentColor"
	d="M190.63 113.01l33.90 0.00v-3.20l-33.90 -0.00"/>
<path fill="currentColor"
	d="M190.93 108.01l33.20 0.00v-3.20l-33.20 -0.00"/>
<path fill="currentColor"
	d="M205.43 103.01l6.00 0.00v-3.20l-6.00 -0.00"/>
<use x="194.43" y="82.01" xlink:href="#hd"/>
<circle fill="currentColor" cx="202.43" cy="79.01" r="1.2"/>
<path d="M190.93 82.01v30.00" stroke="currentColor" fill="none"/>
<use x="214.93" y="88.01" xlink:href="#hd"/>
<path d="M211.43 88.01v24.00" stroke="currentColor" fill="none"/>
<use x="227.63" y="82.01" xlink:href="#hd"/>
<path d="M224.13 82.01v30.00" stroke="currentColor" fill="none"/>
<path fill="currentColor"
	d="M243.83 116.31l36.70 -7.30v-3.20l-36.70 7.30"/>
<path fill="currentColor"
	d="M244.13 111.21l36.00 -7.20v-3.20l-36.00 7.20"/>
<use x="247.63" y="94.01" xlink:href="#hd"/>
<path d="M244.13 94.01v21.20" stroke="currentColor" fill="none"/>
<use x="265.63" y="88.01" xlink:href="#hd"/>
<path d="M262.13 88.01v23.60" stroke="currentColor" fill="none"/>
<use x="283.63" y="82.01" xlink:href="#hd"/>
<path d="M280.13 82.01v26.00" stroke="currentColor" fill="none"/>
<path fill="currentColor"
	d="M309.93 94.21l51.60 4.20v-3.20l-51.60 -4.20"/>
<defs>
<path id="hl" stroke="currentColor" d="m-6 0h12"/>
</defs>
<use x="313.83" y="76.01" xlink:href="#hl"/>
<use x="313.83" y="73.01" xlink:href="#hd"/>
<path d="M310.33 73.01v20.20" stroke="currentColor" fill="none"/>
<use x="339.33" y="76.01" xlink:href="#hl"/>
<use x="339.33" y="76.01" xlink:href="#hd"/>
<path d="M335.83 76.01v19.30" stroke="currentColor" fill="none"/>
<use x="364.73" y="79.01" xlink:href="#hd"/>
<path d="M361.23 79.01v18.40" stroke="currentColor" fill="none"/>
<path fill="currentColor"
	d="M397.73 113.01l51.60 0.00v-3.20l-51.60 -0.00"/>
<path fill="currentColor"
	d="M398.03 108.01l38.20 0.00v-3.20l-38.20 -0.00"/>
<path fill="currentColor"
	d="M398.03 103.01l38.20 0.00v-3.20l-38.20 -0.00"/>
<use x="401.53" y="79.01" xlink:href="#hd"/>
<path d="M398.03 79.01v33.00" stroke="currentColor" fill="none"/>
<use x="414.33" y="82.01" xlink:href="#hd"/>
<path d="M410.83 82.01v30.00" stroke="currentColor" fill="none"/>
<use x="427.03" y="85.01" xlink:href="#hd"/>
<path d="M423.53 85.01v27.00" stroke="currentColor" fill="none"/>
<use x="439.73" y="88.01" xlink:href="#hd"/>
<path d="M436.23 88.01v24.00" stroke="currentColor" fill="none"/>
<use x="452.53" y="88.01" xlink:href="#hd"/>
<path d="M449.03 88.01v24.00" stroke="currentColor" fill="none"/>
</g>
</svg>
