<?xml version="1.0" standalone="no"?>
<!DOCTYPE svg PUBLIC "-//W3C//DTD SVG 1.1//EN"
	"http://www.w3.org/Graphics/SVG/1.1/DTD/svg11.dtd">
<svg xmlns="http://www.w3.org/2000/svg" version="1.1"
	xmlns:xlink="http://www.w3.org/1999/xlink"
	xml:space='preserve' color="black"
	width="7.38in" height="1.51in" viewBox="0 0 531 109">
<title>4345.abc (4345) tune 1</title>
<!-- Creator: abcm2ps-7.8.14 -->
<!-- CreationDate: Mar 13, 2016 18:54 -->
<!-- CommandLine: -qxg 4345.abc -O ../svgs/4345.svg -->
<g transform="scale(0.750)" stroke-width="0.70" font-family="Times" font-size="20.00">
<text x="354.13" y="21.67" text-anchor="middle">4345.  Serenade in D, K 250, 2nd. Mvt.</text>
</g>
<g transform="scale(0.750)" stroke-width="0.70" font-family="Times" font-size="14.00" font-style="italic">
<text x="694.93" y="45.34" text-anchor="end">Wolfgang Amadeus Mozart</text>
</g>
<g transform="scale(0.525)" stroke-width="0.70" font-family="Times" font-size="14.00" font-style="italic">
<defs>
<ellipse id="hd" rx="4.1" ry="2.9"
	transform="rotate(-20)" fill="currentColor"/>
</defs>
<use x="107.04" y="94.16" xlink:href="#hd"/>
<path d="M110.54 94.16v-20.00" stroke="currentColor" fill="none"/>
</g>
<g transform="scale(0.750)" stroke-width="0.70" font-family="Times" font-size="15.00" font-weight="bold">
<text x="82.63" y="68.01">= 120</text>
<path stroke="currentColor" fill="none"
	d="M217.43 122.01v-24.00"/>
<path stroke="currentColor" fill="none"
	d="M369.93 122.01v-24.00"/>
<path stroke="currentColor" fill="none"
	d="M526.43 122.01v-24.00"/>
<path stroke="currentColor" fill="none"
	d="M694.93 122.01v-24.00"/>
<path stroke="currentColor" fill="none"
	d="M13.33 122.01h681.60m-681.60 -6h681.60m-681.60 -6h681.60m-681.60 -6h681.60m-681.60 -6h681.60"/>
<defs>
<path id="utclef" fill="currentColor" d="m-50 -90
	c-72 -41 -72 -158 52 -188
	c150 -10 220 188 90 256
	c-114 52 -275 0 -293 -136
	c-15 -181 93 -229 220 -334
	c88 -87 79 -133 62 -210
	c-51 33 -94 105 -89 186
	c17 267 36 374 49 574
	c6 96 -19 134 -77 135
	c-80 1 -126 -93 -61 -133
	c85 -41 133 101 31 105
	c23 17 92 37 90 -92
	c-10 -223 -39 -342 -50 -617
	c0 -90 0 -162 96 -232
	c56 72 63 230 22 289
	c-74 106 -257 168 -255 316
	c9 153 148 185 252 133
	c86 -65 29 -192 -80 -176
	c-71 12 -105 67 -59 124"/>
<use id="tclef" transform="scale(0.045)"
	xlink:href="#utclef"/>
</defs>
<use x="25.33" y="122.01" xlink:href="#tclef"/>
<defs>
<path id="usharp" fill="currentColor" d="
	m136 -702
	v890
	h32
	v-890
	m128 840
	h32
	v-888
	h-32
	m-232 286
	v116
	l338 -96
	v-116
	m-338 442
	v116
	l338 -98
	v-114"/>
<use id="sh0" transform="translate(-4,5) scale(0.018)"
	xlink:href="#usharp"/>
</defs>
<use x="40.33" y="98.01" xlink:href="#sh0"/>
<g font-family="serif" font-size="16" font-weight="bold" font-style="normal"
	transform="translate(56.33,122.01) scale(1.2,1)">
	<text y="-1" text-anchor="middle">4</text>
	<text y="-13" text-anchor="middle">3</text>
</g>
<use x="74.33" y="104.01" xlink:href="#hd"/>
<path d="M70.83 104.01v20.00" stroke="currentColor" fill="none"/>
<defs>
<path id="hl" stroke="currentColor" d="m-6 0h12"/>
</defs>
<use x="111.93" y="92.01" xlink:href="#hl"/>
<use x="111.93" y="86.01" xlink:href="#hl"/>
<use x="111.93" y="83.01" xlink:href="#hd"/>
<path d="M108.43 83.01v27.00" stroke="currentColor" fill="none"/>
<use x="149.53" y="92.01" xlink:href="#hl"/>
<use x="149.53" y="86.01" xlink:href="#hl"/>
<use x="149.53" y="83.01" xlink:href="#hd"/>
<path d="M146.03 83.01v27.00" stroke="currentColor" fill="none"/>
<path fill="currentColor"
	d="M146.03 110.01c0.9 -3.7 9.1 -6.4 6 -12.4
	c1 5.4 -4.2 8.4 -6 8.4
M146.03 104.61c0.9 -3.7 9.1 -6.4 6 -12.4
	c1 5.4 -4.2 8.4 -6 8.4
"/>
<path fill="currentColor"
	d="M164.53 112.01l34.60 0.00v-3.20l-34.60 -0.00"/>
<path fill="currentColor"
	d="M164.83 107.01l33.90 0.00v-3.20l-33.90 -0.00"/>
<use x="168.33" y="92.01" xlink:href="#hl"/>
<use x="168.33" y="89.01" xlink:href="#hd"/>
<path d="M164.83 89.01v22.00" stroke="currentColor" fill="none"/>
<use x="185.33" y="92.01" xlink:href="#hl"/>
<use x="185.33" y="86.01" xlink:href="#hl"/>
<use x="185.33" y="83.01" xlink:href="#hd"/>
<path d="M181.83 83.01v28.00" stroke="currentColor" fill="none"/>
<use x="202.33" y="92.01" xlink:href="#hl"/>
<use x="202.33" y="89.01" xlink:href="#hd"/>
<path d="M198.83 89.01v22.00" stroke="currentColor" fill="none"/>
<path fill="currentColor"
	d="M226.93 113.81l34.60 3.40v-3.20l-34.60 -3.40"/>
<path fill="currentColor"
	d="M227.23 108.81l33.90 3.40v-3.20l-33.90 -3.40"/>
<use x="230.73" y="92.01" xlink:href="#hl"/>
<use x="230.73" y="86.01" xlink:href="#hl"/>
<use x="230.73" y="83.01" xlink:href="#hd"/>
<path d="M227.23 83.01v29.80" stroke="currentColor" fill="none"/>
<use x="247.73" y="92.01" xlink:href="#hl"/>
<use x="247.73" y="89.01" xlink:href="#hd"/>
<path d="M244.23 89.01v25.50" stroke="currentColor" fill="none"/>
<use x="264.73" y="95.01" xlink:href="#hd"/>
<path d="M261.23 95.01v21.20" stroke="currentColor" fill="none"/>
<use x="283.53" y="104.01" xlink:href="#hd"/>
<path d="M280.03 104.01v22.00" stroke="currentColor" fill="none"/>
<path fill="currentColor"
	d="M280.03 126.01c0.9 -3.7 9.1 -6.4 6 -12.4
	c1 5.4 -4.2 8.4 -6 8.4
M280.03 120.61c0.9 -3.7 9.1 -6.4 6 -12.4
	c1 5.4 -4.2 8.4 -6 8.4
"/>
<use x="302.33" y="107.01" xlink:href="#hd"/>
<path d="M298.83 107.01v20.00" stroke="currentColor" fill="none"/>
<defs>
<path id="r4" fill="currentColor" d="m-1 -8.5
	l3.6 5.1 -2.1 5.2 2.2 4.3
	c-2.6 -2.3 -5.1 0 -2.4 2.6
	c-4.8 -3 -1.5 -6.9 1.4 -4.1
	l-3.1 -4.5 1.9 -5.1 -1.5 -3.5"/>
</defs>
<use x="339.93" y="110.01" xlink:href="#r4"/>
<use x="383.33" y="107.01" xlink:href="#hd"/>
<path d="M379.83 107.01v20.00" stroke="currentColor" fill="none"/>
<use x="420.93" y="92.01" xlink:href="#hl"/>
<use x="420.93" y="86.01" xlink:href="#hl"/>
<use x="420.93" y="86.01" xlink:href="#hd"/>
<path d="M417.43 86.01v24.00" stroke="currentColor" fill="none"/>
<use x="458.53" y="92.01" xlink:href="#hl"/>
<use x="458.53" y="86.01" xlink:href="#hl"/>
<use x="458.53" y="86.01" xlink:href="#hd"/>
<path d="M455.03 86.01v24.00" stroke="currentColor" fill="none"/>
<path fill="currentColor"
	d="M455.03 110.01c0.9 -3.7 9.1 -6.4 6 -12.4
	c1 5.4 -4.2 8.4 -6 8.4
M455.03 104.61c0.9 -3.7 9.1 -6.4 6 -12.4
	c1 5.4 -4.2 8.4 -6 8.4
"/>
<path fill="currentColor"
	d="M473.53 116.21l34.60 0.00v-3.20l-34.60 -0.00"/>
<path fill="currentColor"
	d="M473.93 111.21l33.90 0.00v-3.20l-33.90 -0.00"/>
<use x="477.43" y="92.01" xlink:href="#hl"/>
<use x="477.43" y="92.01" xlink:href="#hd"/>
<path d="M473.93 92.01v23.20" stroke="currentColor" fill="none"/>
<use x="494.33" y="92.01" xlink:href="#hl"/>
<use x="494.33" y="86.01" xlink:href="#hl"/>
<use x="494.33" y="86.01" xlink:href="#hd"/>
<path d="M490.83 86.01v29.20" stroke="currentColor" fill="none"/>
<use x="511.33" y="92.01" xlink:href="#hl"/>
<use x="511.33" y="92.01" xlink:href="#hd"/>
<path d="M507.83 92.01v23.20" stroke="currentColor" fill="none"/>
<path fill="currentColor"
	d="M535.93 115.71l34.60 4.50v-3.20l-34.60 -4.50"/>
<path fill="currentColor"
	d="M536.33 110.81l33.90 4.40v-3.20l-33.90 -4.40"/>
<use x="539.83" y="92.01" xlink:href="#hl"/>
<use x="539.83" y="86.01" xlink:href="#hl"/>
<use x="539.83" y="86.01" xlink:href="#hd"/>
<path d="M536.33 86.01v28.80" stroke="currentColor" fill="none"/>
<use x="556.73" y="92.01" xlink:href="#hl"/>
<use x="556.73" y="92.01" xlink:href="#hd"/>
<path d="M553.23 92.01v25.00" stroke="currentColor" fill="none"/>
<use x="573.73" y="98.01" xlink:href="#hd"/>
<path d="M570.23 98.01v21.20" stroke="currentColor" fill="none"/>
<path fill="currentColor"
	d="M588.73 129.31l17.60 2.30v-3.20l-17.60 -2.30"/>
<path fill="currentColor"
	d="M595.03 125.21l-6.00 -0.80v-3.20l6.00 0.80"/>
<use x="592.53" y="107.01" xlink:href="#hd"/>
<path d="M589.03 107.01v21.40" stroke="currentColor" fill="none"/>
<use x="609.43" y="110.01" xlink:href="#hd"/>
<path d="M605.93 110.01v20.60" stroke="currentColor" fill="none"/>
<use x="636.03" y="104.01" xlink:href="#hd"/>
<path d="M632.53 104.01v20.00" stroke="currentColor" fill="none"/>
<use x="673.63" y="110.01" xlink:href="#hd"/>
<path d="M670.13 110.01v20.00" stroke="currentColor" fill="none"/>
<path fill="currentColor"
	d="M670.13 130.01c0.6 -5.6 9.6 -9 5.6 -18.4
	c1.6 6 -1.3 11.6 -5.6 12.8
"/>
<path fill="currentColor"
	d="M115.43 81.01c4.83 -5.05 25.82 -5.05 30.65 -0.00
	l0.00 -0.23c-5.75 -6.82 -24.91 -6.82 -30.65 0.23"/>
<path fill="currentColor"
	d="M424.43 86.01c4.83 -5.05 25.82 -5.05 30.65 -0.00
	l0.00 -0.23c-5.75 -6.82 -24.91 -6.82 -30.65 0.23"/>
</g>
</svg>
