<?xml version="1.0" standalone="no"?>
<!DOCTYPE svg PUBLIC "-//W3C//DTD SVG 1.1//EN"
	"http://www.w3.org/Graphics/SVG/1.1/DTD/svg11.dtd">
<svg xmlns="http://www.w3.org/2000/svg" version="1.1"
	xmlns:xlink="http://www.w3.org/1999/xlink"
	xml:space='preserve' color="black"
	width="7.38in" height="1.46in" viewBox="0 0 531 105">
<title>4347.abc (4347) tune 1</title>
<!-- Creator: abcm2ps-7.8.14 -->
<!-- CreationDate: Mar 13, 2016 18:54 -->
<!-- CommandLine: -qxg 4347.abc -O ../svgs/4347.svg -->
<g transform="scale(0.750)" stroke-width="0.70" font-family="Times" font-size="20.00">
<text x="354.13" y="21.67" text-anchor="middle">4347.  Serenade in D, K 250, 3rd. Mvt. - 2nd. Theme</text>
</g>
<g transform="scale(0.750)" stroke-width="0.70" font-family="Times" font-size="14.00" font-style="italic">
<text x="694.93" y="45.34" text-anchor="end">Wolfgang Amadeus Mozart</text>
</g>
<g transform="scale(0.525)" stroke-width="0.70" font-family="Times" font-size="14.00" font-style="italic">
<defs>
<ellipse id="hd" rx="4.1" ry="2.9"
	transform="rotate(-20)" fill="currentColor"/>
</defs>
<use x="107.04" y="94.16" xlink:href="#hd"/>
<path d="M110.54 94.16v-20.00" stroke="currentColor" fill="none"/>
</g>
<g transform="scale(0.750)" stroke-width="0.70" font-family="Times" font-size="15.00" font-weight="bold">
<text x="82.63" y="68.01">= 120</text>
<path stroke="currentColor" fill="none"
	d="M214.83 117.01v-24.00"/>
<path stroke="currentColor" fill="none"
	d="M384.93 117.01v-24.00"/>
<path stroke="currentColor" fill="none"
	d="M510.43 117.01v-24.00"/>
<path stroke="currentColor" fill="none"
	d="M694.93 117.01v-24.00"/>
<path stroke="currentColor" fill="none"
	d="M13.33 117.01h681.60m-681.60 -6h681.60m-681.60 -6h681.60m-681.60 -6h681.60m-681.60 -6h681.60"/>
<defs>
<path id="utclef" fill="currentColor" d="m-50 -90
	c-72 -41 -72 -158 52 -188
	c150 -10 220 188 90 256
	c-114 52 -275 0 -293 -136
	c-15 -181 93 -229 220 -334
	c88 -87 79 -133 62 -210
	c-51 33 -94 105 -89 186
	c17 267 36 374 49 574
	c6 96 -19 134 -77 135
	c-80 1 -126 -93 -61 -133
	c85 -41 133 101 31 105
	c23 17 92 37 90 -92
	c-10 -223 -39 -342 -50 -617
	c0 -90 0 -162 96 -232
	c56 72 63 230 22 289
	c-74 106 -257 168 -255 316
	c9 153 148 185 252 133
	c86 -65 29 -192 -80 -176
	c-71 12 -105 67 -59 124"/>
<use id="tclef" transform="scale(0.045)"
	xlink:href="#utclef"/>
</defs>
<use x="25.33" y="117.01" xlink:href="#tclef"/>
<defs>
<path id="usharp" fill="currentColor" d="
	m136 -702
	v890
	h32
	v-890
	m128 840
	h32
	v-888
	h-32
	m-232 286
	v116
	l338 -96
	v-116
	m-338 442
	v116
	l338 -98
	v-114"/>
<use id="sh0" transform="translate(-4,5) scale(0.018)"
	xlink:href="#usharp"/>
</defs>
<use x="40.33" y="93.01" xlink:href="#sh0"/>
<g font-family="serif" font-size="16" font-weight="bold" font-style="normal"
	transform="translate(56.33,117.01) scale(1.2,1)">
	<text y="-1" text-anchor="middle">4</text>
	<text y="-13" text-anchor="middle">3</text>
</g>
<use x="74.33" y="99.01" xlink:href="#hd"/>
<path d="M70.83 99.01v20.00" stroke="currentColor" fill="none"/>
<defs>
<path id="hl" stroke="currentColor" d="m-6 0h12"/>
</defs>
<use x="119.33" y="87.01" xlink:href="#hl"/>
<use x="119.33" y="81.01" xlink:href="#hl"/>
<use x="119.33" y="78.01" xlink:href="#hd"/>
<path d="M115.83 78.01v27.00" stroke="currentColor" fill="none"/>
<path fill="currentColor"
	d="M160.43 107.01l33.30 0.00v-3.20l-33.30 -0.00"/>
<path fill="currentColor"
	d="M187.33 102.01l6.00 0.00v-3.20l-6.00 -0.00"/>
<use x="164.23" y="87.01" xlink:href="#hl"/>
<use x="164.23" y="81.01" xlink:href="#hl"/>
<use x="164.23" y="78.01" xlink:href="#hd"/>
<circle fill="currentColor" cx="172.23" cy="78.01" r="1.2"/>
<path d="M160.73 78.01v28.00" stroke="currentColor" fill="none"/>
<use x="196.83" y="87.01" xlink:href="#hl"/>
<use x="196.83" y="84.01" xlink:href="#hd"/>
<path d="M193.33 84.01v22.00" stroke="currentColor" fill="none"/>
<use x="230.73" y="87.01" xlink:href="#hl"/>
<use x="230.73" y="81.01" xlink:href="#hl"/>
<use x="230.73" y="81.01" xlink:href="#hd"/>
<circle fill="currentColor" cx="238.73" cy="78.01" r="1.2"/>
<path d="M227.23 81.01v24.00" stroke="currentColor" fill="none"/>
<path fill="currentColor"
	d="M227.23 105.01c0.6 -5.6 9.6 -9 5.6 -18.4
	c1.6 6 -1.3 11.6 -5.6 12.8
"/>
<use x="266.93" y="87.01" xlink:href="#hl"/>
<use x="266.93" y="87.01" xlink:href="#hd"/>
<path d="M263.43 87.01v22.00" stroke="currentColor" fill="none"/>
<path fill="currentColor"
	d="M263.43 109.01c0.9 -3.7 9.1 -6.4 6 -12.4
	c1 5.4 -4.2 8.4 -6 8.4
M263.43 103.61c0.9 -3.7 9.1 -6.4 6 -12.4
	c1 5.4 -4.2 8.4 -6 8.4
"/>
<use x="289.43" y="87.01" xlink:href="#hl"/>
<use x="289.43" y="84.01" xlink:href="#hd"/>
<path d="M285.93 84.01v21.00" stroke="currentColor" fill="none"/>
<path fill="currentColor"
	d="M330.53 107.81l33.30 4.50v-3.20l-33.30 -4.50"/>
<path fill="currentColor"
	d="M357.43 106.41l6.00 0.80v-3.20l-6.00 -0.80"/>
<use x="334.33" y="87.01" xlink:href="#hl"/>
<use x="334.33" y="84.01" xlink:href="#hd"/>
<circle fill="currentColor" cx="342.33" cy="84.01" r="1.2"/>
<path d="M330.83 84.01v22.80" stroke="currentColor" fill="none"/>
<use x="366.93" y="90.01" xlink:href="#hd"/>
<path d="M363.43 90.01v21.20" stroke="currentColor" fill="none"/>
<use x="400.83" y="87.01" xlink:href="#hl"/>
<use x="400.83" y="87.01" xlink:href="#hd"/>
<circle fill="currentColor" cx="408.83" cy="84.01" r="1.2"/>
<path d="M397.33 87.01v20.00" stroke="currentColor" fill="none"/>
<path fill="currentColor"
	d="M397.33 107.01c0.6 -5.6 9.6 -9 5.6 -18.4
	c1.6 6 -1.3 11.6 -5.6 12.8
"/>
<use x="437.03" y="93.01" xlink:href="#hd"/>
<path d="M433.53 93.01v22.00" stroke="currentColor" fill="none"/>
<path fill="currentColor"
	d="M433.53 115.01c0.9 -3.7 9.1 -6.4 6 -12.4
	c1 5.4 -4.2 8.4 -6 8.4
M433.53 109.61c0.9 -3.7 9.1 -6.4 6 -12.4
	c1 5.4 -4.2 8.4 -6 8.4
"/>
<defs>
<path id="Hd" fill="currentColor" d="m3 -1.6
	c-1 -1.8 -7 1.4 -6 3.2
	c1 1.8 7 -1.4 6 -3.2
	m0.5 -0.3
	c2 3.8 -5 7.6 -7 3.8
	c-2 -3.8 5 -7.6 7 -3.8"/>
</defs>
<use x="459.53" y="90.01" xlink:href="#Hd"/>
<path d="M456.03 90.01v20.00" stroke="currentColor" fill="none"/>
<path fill="currentColor"
	d="M522.53 112.01l72.30 0.00v-3.20l-72.30 -0.00"/>
<path fill="currentColor"
	d="M522.83 107.01l71.60 0.00v-3.20l-71.60 -0.00"/>
<path fill="currentColor"
	d="M522.83 102.01l71.60 0.00v-3.20l-71.60 -0.00"/>
<use x="526.33" y="87.01" xlink:href="#hl"/>
<use x="526.33" y="87.01" xlink:href="#hd"/>
<path d="M522.83 87.01v24.00" stroke="currentColor" fill="none"/>
<use x="540.63" y="87.01" xlink:href="#hl"/>
<use x="540.63" y="84.01" xlink:href="#hd"/>
<path d="M537.13 84.01v27.00" stroke="currentColor" fill="none"/>
<use x="554.93" y="87.01" xlink:href="#hl"/>
<use x="554.93" y="87.01" xlink:href="#hd"/>
<path d="M551.43 87.01v24.00" stroke="currentColor" fill="none"/>
<use x="569.23" y="87.01" xlink:href="#hl"/>
<use x="569.23" y="84.01" xlink:href="#hd"/>
<path d="M565.73 84.01v27.00" stroke="currentColor" fill="none"/>
<use x="583.63" y="87.01" xlink:href="#hl"/>
<use x="583.63" y="87.01" xlink:href="#hd"/>
<path d="M580.13 87.01v24.00" stroke="currentColor" fill="none"/>
<use x="597.93" y="87.01" xlink:href="#hl"/>
<use x="597.93" y="84.01" xlink:href="#hd"/>
<path d="M594.43 84.01v27.00" stroke="currentColor" fill="none"/>
<path fill="currentColor"
	d="M609.93 115.31l15.00 -2.20v-3.20l-15.00 2.20"/>
<path fill="currentColor"
	d="M610.33 110.21l14.30 -2.10v-3.20l-14.30 2.10"/>
<path fill="currentColor"
	d="M610.33 105.21l14.30 -2.10v-3.20l-14.30 2.10"/>
<use x="613.83" y="90.01" xlink:href="#hd"/>
<path d="M610.33 90.01v24.20" stroke="currentColor" fill="none"/>
<use x="628.13" y="87.01" xlink:href="#hl"/>
<use x="628.13" y="87.01" xlink:href="#hd"/>
<path d="M624.63 87.01v25.10" stroke="currentColor" fill="none"/>
<use x="644.03" y="87.01" xlink:href="#hl"/>
<use x="644.03" y="84.01" xlink:href="#Hd"/>
<path d="M640.53 84.01v21.00" stroke="currentColor" fill="none"/>
</g>
</svg>
