<?xml version="1.0" standalone="no"?>
<!DOCTYPE svg PUBLIC "-//W3C//DTD SVG 1.1//EN"
	"http://www.w3.org/Graphics/SVG/1.1/DTD/svg11.dtd">
<svg xmlns="http://www.w3.org/2000/svg" version="1.1"
	xmlns:xlink="http://www.w3.org/1999/xlink"
	xml:space='preserve' color="black"
	width="7.38in" height="1.34in" viewBox="0 0 531 97">
<title>4381.abc (4381) tune 1</title>
<!-- Creator: abcm2ps-7.8.14 -->
<!-- CreationDate: Mar 13, 2016 18:54 -->
<!-- CommandLine: -qxg 4381.abc -O ../svgs/4381.svg -->
<g transform="scale(0.750)" stroke-width="0.70" font-family="Times" font-size="20.00">
<text x="354.13" y="21.67" text-anchor="middle">4381.  Serenade in G, Eine Kleine Nachtmusik, K 525, 2nd. Mvt.</text>
</g>
<g transform="scale(0.750)" stroke-width="0.70" font-family="Times" font-size="14.00" font-style="italic">
<text x="694.93" y="45.34" text-anchor="end">Wolfgang Amadeus Mozart</text>
</g>
<g transform="scale(0.525)" stroke-width="0.70" font-family="Times" font-size="14.00" font-style="italic">
<defs>
<ellipse id="hd" rx="4.1" ry="2.9"
	transform="rotate(-20)" fill="currentColor"/>
</defs>
<use x="89.19" y="94.16" xlink:href="#hd"/>
<path d="M92.69 94.16v-20.00" stroke="currentColor" fill="none"/>
</g>
<g transform="scale(0.750)" stroke-width="0.70" font-family="Times" font-size="15.00" font-weight="bold">
<text x="70.13" y="68.01">= 120</text>
<path stroke="currentColor" fill="none"
	d="M246.63 106.01v-24.00"/>
<path stroke="currentColor" fill="none"
	d="M482.73 106.01v-24.00"/>
<path stroke="currentColor" fill="none"
	d="M694.93 106.01v-24.00"/>
<path stroke="currentColor" fill="none"
	d="M13.33 106.01h681.60m-681.60 -6h681.60m-681.60 -6h681.60m-681.60 -6h681.60m-681.60 -6h681.60"/>
<defs>
<path id="utclef" fill="currentColor" d="m-50 -90
	c-72 -41 -72 -158 52 -188
	c150 -10 220 188 90 256
	c-114 52 -275 0 -293 -136
	c-15 -181 93 -229 220 -334
	c88 -87 79 -133 62 -210
	c-51 33 -94 105 -89 186
	c17 267 36 374 49 574
	c6 96 -19 134 -77 135
	c-80 1 -126 -93 -61 -133
	c85 -41 133 101 31 105
	c23 17 92 37 90 -92
	c-10 -223 -39 -342 -50 -617
	c0 -90 0 -162 96 -232
	c56 72 63 230 22 289
	c-74 106 -257 168 -255 316
	c9 153 148 185 252 133
	c86 -65 29 -192 -80 -176
	c-71 12 -105 67 -59 124"/>
<use id="tclef" transform="scale(0.045)"
	xlink:href="#utclef"/>
</defs>
<use x="25.33" y="106.01" xlink:href="#tclef"/>
<g font-family="serif" font-size="16" font-weight="bold" font-style="normal"
	transform="translate(43.83,106.01) scale(1.2,1)">
	<text y="-1" text-anchor="middle">2</text>
	<text y="-13" text-anchor="middle">2</text>
</g>
<use x="61.83" y="85.01" xlink:href="#hd"/>
<path d="M58.33 85.01v20.00" stroke="currentColor" fill="none"/>
<path fill="currentColor"
	d="M58.33 105.01c0.6 -5.6 9.6 -9 5.6 -18.4
	c1.6 6 -1.3 11.6 -5.6 12.8
"/>
<defs>
<path id="r8e" fill="currentColor" d="m 0 0
	c-1.5 1.5 -2.4 2 -3.6 2
	c2.4 -2.8 -2.8 -4 -2.8 -1.2
	c0 2.7 4.3 2.4 5.9 0.6"/>
<g id="r8">
	<path d="m3.3 -4l-3.4 9.6" stroke="currentColor" fill="none"/>
	<use x="3.4" y="-4" xlink:href="#r8e"/>
</g>
</defs>
<use x="88.63" y="94.01" xlink:href="#r8"/>
<use x="118.43" y="85.01" xlink:href="#hd"/>
<path d="M114.93 85.01v20.00" stroke="currentColor" fill="none"/>
<path fill="currentColor"
	d="M114.93 105.01c0.6 -5.6 9.6 -9 5.6 -18.4
	c1.6 6 -1.3 11.6 -5.6 12.8
"/>
<use x="145.23" y="94.01" xlink:href="#r8"/>
<use x="174.93" y="85.01" xlink:href="#hd"/>
<circle fill="currentColor" cx="182.93" cy="85.01" r="1.2"/>
<path d="M171.43 85.01v20.00" stroke="currentColor" fill="none"/>
<use x="222.83" y="79.01" xlink:href="#hd"/>
<path d="M219.33 79.01v20.00" stroke="currentColor" fill="none"/>
<path fill="currentColor"
	d="M219.33 99.01c0.6 -5.6 9.6 -9 5.6 -18.4
	c1.6 6 -1.3 11.6 -5.6 12.8
"/>
<use x="261.53" y="82.01" xlink:href="#hd"/>
<path d="M258.03 82.01v20.00" stroke="currentColor" fill="none"/>
<path fill="currentColor"
	d="M258.03 102.01c0.6 -5.6 9.6 -9 5.6 -18.4
	c1.6 6 -1.3 11.6 -5.6 12.8
"/>
<use x="291.33" y="88.01" xlink:href="#hd"/>
<path d="M287.83 88.01v20.00" stroke="currentColor" fill="none"/>
<path fill="currentColor"
	d="M287.83 108.01c0.6 -5.6 9.6 -9 5.6 -18.4
	c1.6 6 -1.3 11.6 -5.6 12.8
"/>
<use x="321.13" y="82.01" xlink:href="#hd"/>
<path d="M317.63 82.01v20.00" stroke="currentColor" fill="none"/>
<path fill="currentColor"
	d="M317.63 102.01c0.6 -5.6 9.6 -9 5.6 -18.4
	c1.6 6 -1.3 11.6 -5.6 12.8
"/>
<defs>
<path id="hl" stroke="currentColor" d="m-6 0h12"/>
</defs>
<use x="350.83" y="76.01" xlink:href="#hl"/>
<use x="350.83" y="76.01" xlink:href="#hd"/>
<path d="M347.33 76.01v20.00" stroke="currentColor" fill="none"/>
<path fill="currentColor"
	d="M347.33 96.01c0.6 -5.6 9.6 -9 5.6 -18.4
	c1.6 6 -1.3 11.6 -5.6 12.8
"/>
<path fill="currentColor"
	d="M376.83 102.81l31.20 4.40v-3.20l-31.20 -4.40"/>
<path fill="currentColor"
	d="M401.63 101.41l6.00 0.80v-3.20l-6.00 -0.80"/>
<use x="380.63" y="79.01" xlink:href="#hd"/>
<circle fill="currentColor" cx="388.63" cy="79.01" r="1.2"/>
<path d="M377.13 79.01v22.90" stroke="currentColor" fill="none"/>
<use x="411.13" y="85.01" xlink:href="#hd"/>
<path d="M407.63 85.01v21.20" stroke="currentColor" fill="none"/>
<use x="432.13" y="79.01" xlink:href="#hd"/>
<path d="M428.63 79.01v20.00" stroke="currentColor" fill="none"/>
<path fill="currentColor"
	d="M428.63 99.01c0.6 -5.6 9.6 -9 5.6 -18.4
	c1.6 6 -1.3 11.6 -5.6 12.8
"/>
<use x="458.93" y="94.01" xlink:href="#r8"/>
<use x="497.63" y="91.01" xlink:href="#hd"/>
<path d="M494.13 91.01v20.00" stroke="currentColor" fill="none"/>
<path fill="currentColor"
	d="M494.13 111.01c0.6 -5.6 9.6 -9 5.6 -18.4
	c1.6 6 -1.3 11.6 -5.6 12.8
"/>
<use x="527.43" y="76.01" xlink:href="#hl"/>
<use x="527.43" y="70.01" xlink:href="#hl"/>
<use x="527.43" y="70.01" xlink:href="#hd"/>
<path d="M523.93 70.01v24.00" stroke="currentColor" fill="none"/>
<use x="569.53" y="76.01" xlink:href="#hl"/>
<use x="569.53" y="73.01" xlink:href="#hd"/>
<path d="M566.03 73.01v21.00" stroke="currentColor" fill="none"/>
<path fill="currentColor"
	d="M566.03 94.01c0.6 -5.6 9.6 -9 5.6 -18.4
	c1.6 6 -1.3 11.6 -5.6 12.8
"/>
<use x="599.23" y="76.01" xlink:href="#hl"/>
<use x="599.23" y="76.01" xlink:href="#hd"/>
<path d="M595.73 76.01v20.00" stroke="currentColor" fill="none"/>
<path fill="currentColor"
	d="M595.73 96.01c0.6 -5.6 9.6 -9 5.6 -18.4
	c1.6 6 -1.3 11.6 -5.6 12.8
"/>
<use x="629.03" y="76.01" xlink:href="#hl"/>
<use x="629.03" y="76.01" xlink:href="#hd"/>
<path d="M625.53 76.01v20.00" stroke="currentColor" fill="none"/>
<use x="671.13" y="79.01" xlink:href="#hd"/>
<path d="M667.63 79.01v20.00" stroke="currentColor" fill="none"/>
<path fill="currentColor"
	d="M667.63 99.01c0.6 -5.6 9.6 -9 5.6 -18.4
	c1.6 6 -1.3 11.6 -5.6 12.8
"/>
</g>
</svg>
