<?xml version="1.0" standalone="no"?>
<!DOCTYPE svg PUBLIC "-//W3C//DTD SVG 1.1//EN"
	"http://www.w3.org/Graphics/SVG/1.1/DTD/svg11.dtd">
<svg xmlns="http://www.w3.org/2000/svg" version="1.1"
	xmlns:xlink="http://www.w3.org/1999/xlink"
	xml:space='preserve' color="black"
	width="7.38in" height="1.34in" viewBox="0 0 531 97">
<title>4410.abc (4410) tune 1</title>
<!-- Creator: abcm2ps-7.8.14 -->
<!-- CreationDate: Mar 13, 2016 18:54 -->
<!-- CommandLine: -qxg 4410.abc -O ../svgs/4410.svg -->
<g transform="scale(0.750)" stroke-width="0.70" font-family="Times" font-size="20.00">
<text x="354.13" y="21.67" text-anchor="middle">4410.  Sonata in C, K 330, 3rd. Mvt. - 1st. Theme</text>
</g>
<g transform="scale(0.750)" stroke-width="0.70" font-family="Times" font-size="14.00" font-style="italic">
<text x="694.93" y="45.34" text-anchor="end">Wolfgang Amadeus Mozart</text>
</g>
<g transform="scale(0.525)" stroke-width="0.70" font-family="Times" font-size="14.00" font-style="italic">
<defs>
<ellipse id="hd" rx="4.1" ry="2.9"
	transform="rotate(-20)" fill="currentColor"/>
</defs>
<use x="89.19" y="94.16" xlink:href="#hd"/>
<path d="M92.69 94.16v-20.00" stroke="currentColor" fill="none"/>
</g>
<g transform="scale(0.750)" stroke-width="0.70" font-family="Times" font-size="15.00" font-weight="bold">
<text x="70.13" y="68.01">= 120</text>
<path stroke="currentColor" fill="none"
	d="M168.63 106.01v-24.00"/>
<path stroke="currentColor" fill="none"
	d="M281.13 106.01v-24.00"/>
<path stroke="currentColor" fill="none"
	d="M402.03 106.01v-24.00"/>
<path stroke="currentColor" fill="none"
	d="M528.83 106.01v-24.00"/>
<path stroke="currentColor" fill="none"
	d="M13.33 106.01h515.50m-515.50 -6h515.50m-515.50 -6h515.50m-515.50 -6h515.50m-515.50 -6h515.50"/>
<defs>
<path id="utclef" fill="currentColor" d="m-50 -90
	c-72 -41 -72 -158 52 -188
	c150 -10 220 188 90 256
	c-114 52 -275 0 -293 -136
	c-15 -181 93 -229 220 -334
	c88 -87 79 -133 62 -210
	c-51 33 -94 105 -89 186
	c17 267 36 374 49 574
	c6 96 -19 134 -77 135
	c-80 1 -126 -93 -61 -133
	c85 -41 133 101 31 105
	c23 17 92 37 90 -92
	c-10 -223 -39 -342 -50 -617
	c0 -90 0 -162 96 -232
	c56 72 63 230 22 289
	c-74 106 -257 168 -255 316
	c9 153 148 185 252 133
	c86 -65 29 -192 -80 -176
	c-71 12 -105 67 -59 124"/>
<use id="tclef" transform="scale(0.045)"
	xlink:href="#utclef"/>
</defs>
<use x="25.33" y="106.01" xlink:href="#tclef"/>
<g font-family="serif" font-size="16" font-weight="bold" font-style="normal"
	transform="translate(43.83,106.01) scale(1.2,1)">
	<text y="-1" text-anchor="middle">4</text>
	<text y="-13" text-anchor="middle">2</text>
</g>
<path fill="currentColor"
	d="M58.03 109.31l42.40 -3.00v-3.20l-42.40 3.00"/>
<path fill="currentColor"
	d="M87.33 102.21l12.70 -0.90v-3.20l-12.70 0.90"/>
<path fill="currentColor"
	d="M87.33 97.21l12.70 -0.90v-3.20l-12.70 0.90"/>
<use x="61.83" y="85.01" xlink:href="#hd"/>
<circle fill="currentColor" cx="69.83" cy="85.01" r="1.2"/>
<path d="M58.33 85.01v23.20" stroke="currentColor" fill="none"/>
<use x="90.83" y="82.01" xlink:href="#hd"/>
<path d="M87.33 82.01v24.20" stroke="currentColor" fill="none"/>
<use x="103.53" y="79.01" xlink:href="#hd"/>
<path d="M100.03 79.01v26.30" stroke="currentColor" fill="none"/>
<use x="117.73" y="91.01" xlink:href="#hd"/>
<path d="M114.23 91.01v20.00" stroke="currentColor" fill="none"/>
<path fill="currentColor"
	d="M114.23 111.01c0.6 -5.6 9.6 -9 5.6 -18.4
	c1.6 6 -1.3 11.6 -5.6 12.8
"/>
<use x="146.03" y="88.01" xlink:href="#hd"/>
<path d="M142.53 88.01v20.00" stroke="currentColor" fill="none"/>
<path fill="currentColor"
	d="M142.53 108.01c0.6 -5.6 9.6 -9 5.6 -18.4
	c1.6 6 -1.3 11.6 -5.6 12.8
"/>
<use x="182.83" y="88.01" xlink:href="#hd"/>
<path d="M179.33 88.01v20.00" stroke="currentColor" fill="none"/>
<path fill="currentColor"
	d="M179.33 108.01c0.6 -5.6 9.6 -9 5.6 -18.4
	c1.6 6 -1.3 11.6 -5.6 12.8
"/>
<path fill="currentColor"
	d="M207.23 104.91l18.70 2.30v-3.20l-18.70 -2.30"/>
<path fill="currentColor"
	d="M207.63 100.01l18.00 2.20v-3.20l-18.00 -2.20"/>
<use x="211.13" y="82.01" xlink:href="#hd"/>
<path d="M207.63 82.01v22.00" stroke="currentColor" fill="none"/>
<use x="229.13" y="85.01" xlink:href="#hd"/>
<path d="M225.63 85.01v21.20" stroke="currentColor" fill="none"/>
<use x="249.13" y="88.01" xlink:href="#hd"/>
<path d="M245.63 88.01v20.00" stroke="currentColor" fill="none"/>
<path fill="currentColor"
	d="M291.43 109.31l42.40 -3.00v-3.20l-42.40 3.00"/>
<path fill="currentColor"
	d="M320.73 102.21l12.70 -0.90v-3.20l-12.70 0.90"/>
<path fill="currentColor"
	d="M320.73 97.21l12.70 -0.90v-3.20l-12.70 0.90"/>
<use x="295.23" y="85.01" xlink:href="#hd"/>
<circle fill="currentColor" cx="303.23" cy="85.01" r="1.2"/>
<path d="M291.73 85.01v23.20" stroke="currentColor" fill="none"/>
<use x="324.23" y="82.01" xlink:href="#hd"/>
<path d="M320.73 82.01v24.20" stroke="currentColor" fill="none"/>
<use x="336.93" y="79.01" xlink:href="#hd"/>
<path d="M333.43 79.01v26.30" stroke="currentColor" fill="none"/>
<use x="351.13" y="91.01" xlink:href="#hd"/>
<path d="M347.63 91.01v20.00" stroke="currentColor" fill="none"/>
<path fill="currentColor"
	d="M347.63 111.01c0.6 -5.6 9.6 -9 5.6 -18.4
	c1.6 6 -1.3 11.6 -5.6 12.8
"/>
<use x="379.43" y="88.01" xlink:href="#hd"/>
<path d="M375.93 88.01v20.00" stroke="currentColor" fill="none"/>
<path fill="currentColor"
	d="M375.93 108.01c0.6 -5.6 9.6 -9 5.6 -18.4
	c1.6 6 -1.3 11.6 -5.6 12.8
"/>
<use x="416.23" y="82.01" xlink:href="#hd"/>
<path d="M412.73 82.01v20.00" stroke="currentColor" fill="none"/>
<path fill="currentColor"
	d="M412.73 102.01c0.6 -5.6 9.6 -9 5.6 -18.4
	c1.6 6 -1.3 11.6 -5.6 12.8
"/>
<path fill="currentColor"
	d="M440.63 113.01l38.90 0.00v-3.20l-38.90 -0.00"/>
<path fill="currentColor"
	d="M441.03 108.01l38.20 0.00v-3.20l-38.20 -0.00"/>
<path fill="currentColor"
	d="M441.03 103.01l38.20 0.00v-3.20l-38.20 -0.00"/>
<use x="444.53" y="85.01" xlink:href="#hd"/>
<path d="M441.03 85.01v27.00" stroke="currentColor" fill="none"/>
<use x="457.23" y="82.01" xlink:href="#hd"/>
<path d="M453.73 82.01v30.00" stroke="currentColor" fill="none"/>
<use x="469.93" y="85.01" xlink:href="#hd"/>
<path d="M466.43 85.01v27.00" stroke="currentColor" fill="none"/>
<use x="482.73" y="82.01" xlink:href="#hd"/>
<path d="M479.23 82.01v30.00" stroke="currentColor" fill="none"/>
<use x="496.83" y="88.01" xlink:href="#hd"/>
<path d="M493.33 88.01v20.00" stroke="currentColor" fill="none"/>
</g>
</svg>
