<?xml version="1.0" standalone="no"?>
<!DOCTYPE svg PUBLIC "-//W3C//DTD SVG 1.1//EN"
	"http://www.w3.org/Graphics/SVG/1.1/DTD/svg11.dtd">
<svg xmlns="http://www.w3.org/2000/svg" version="1.1"
	xmlns:xlink="http://www.w3.org/1999/xlink"
	xml:space='preserve' color="black"
	width="7.38in" height="1.34in" viewBox="0 0 531 97">
<title>4452.abc (4452) tune 1</title>
<!-- Creator: abcm2ps-7.8.14 -->
<!-- CreationDate: Mar 13, 2016 18:54 -->
<!-- CommandLine: -qxg 4452.abc -O ../svgs/4452.svg -->
<g transform="scale(0.750)" stroke-width="0.70" font-family="Times" font-size="20.00">
<text x="354.13" y="21.67" text-anchor="middle">4452.  Sonata in C, K 296, 3rd. Mvt.</text>
</g>
<g transform="scale(0.750)" stroke-width="0.70" font-family="Times" font-size="14.00" font-style="italic">
<text x="694.93" y="45.34" text-anchor="end">Wolfgang Amadeus Mozart</text>
</g>
<g transform="scale(0.525)" stroke-width="0.70" font-family="Times" font-size="14.00" font-style="italic">
<defs>
<ellipse id="hd" rx="4.1" ry="2.9"
	transform="rotate(-20)" fill="currentColor"/>
</defs>
<use x="89.90" y="94.16" xlink:href="#hd"/>
<path d="M93.40 94.16v-20.00" stroke="currentColor" fill="none"/>
</g>
<g transform="scale(0.750)" stroke-width="0.70" font-family="Times" font-size="15.00" font-weight="bold">
<text x="70.63" y="68.01">= 120</text>
<path stroke="currentColor" fill="none"
	d="M224.03 106.01v-24.00"/>
<path stroke="currentColor" fill="none"
	d="M424.63 106.01v-24.00"/>
<path stroke="currentColor" fill="none"
	d="M532.13 106.01v-24.00"/>
<path stroke="currentColor" fill="none"
	d="M13.33 106.01h681.60m-681.60 -6h681.60m-681.60 -6h681.60m-681.60 -6h681.60m-681.60 -6h681.60"/>
<defs>
<path id="utclef" fill="currentColor" d="m-50 -90
	c-72 -41 -72 -158 52 -188
	c150 -10 220 188 90 256
	c-114 52 -275 0 -293 -136
	c-15 -181 93 -229 220 -334
	c88 -87 79 -133 62 -210
	c-51 33 -94 105 -89 186
	c17 267 36 374 49 574
	c6 96 -19 134 -77 135
	c-80 1 -126 -93 -61 -133
	c85 -41 133 101 31 105
	c23 17 92 37 90 -92
	c-10 -223 -39 -342 -50 -617
	c0 -90 0 -162 96 -232
	c56 72 63 230 22 289
	c-74 106 -257 168 -255 316
	c9 153 148 185 252 133
	c86 -65 29 -192 -80 -176
	c-71 12 -105 67 -59 124"/>
<use id="tclef" transform="scale(0.045)"
	xlink:href="#utclef"/>
</defs>
<use x="25.33" y="106.01" xlink:href="#tclef"/>
<g font-family="serif" font-size="16" font-weight="bold" font-style="normal"
	transform="translate(43.83,106.01) scale(1.2,1)">
	<text y="-1" text-anchor="middle">2</text>
	<text y="-13" text-anchor="middle">2</text>
</g>
<defs>
<path id="Hd" fill="currentColor" d="m3 -1.6
	c-1 -1.8 -7 1.4 -6 3.2
	c1 1.8 7 -1.4 6 -3.2
	m0.5 -0.3
	c2 3.8 -5 7.6 -7 3.8
	c-2 -3.8 5 -7.6 7 -3.8"/>
</defs>
<use x="62.33" y="85.01" xlink:href="#Hd"/>
<circle fill="currentColor" cx="72.33" cy="85.01" r="1.2"/>
<path d="M58.83 85.01v20.00" stroke="currentColor" fill="none"/>
<path fill="currentColor"
	d="M121.03 107.01l37.90 0.00v-3.20l-37.90 -0.00"/>
<path fill="currentColor"
	d="M121.43 102.01l37.20 0.00v-3.20l-37.20 -0.00"/>
<path fill="currentColor"
	d="M121.43 97.01l37.20 0.00v-3.20l-37.20 -0.00"/>
<use x="124.93" y="82.01" xlink:href="#hd"/>
<path d="M121.43 82.01v24.00" stroke="currentColor" fill="none"/>
<use x="137.33" y="79.01" xlink:href="#hd"/>
<path d="M133.83 79.01v27.00" stroke="currentColor" fill="none"/>
<use x="149.73" y="82.01" xlink:href="#hd"/>
<path d="M146.23 82.01v24.00" stroke="currentColor" fill="none"/>
<use x="162.13" y="79.01" xlink:href="#hd"/>
<path d="M158.63 79.01v27.00" stroke="currentColor" fill="none"/>
<path fill="currentColor"
	d="M172.03 107.01l37.90 0.00v-3.20l-37.90 -0.00"/>
<path fill="currentColor"
	d="M172.33 102.01l37.20 0.00v-3.20l-37.20 -0.00"/>
<path fill="currentColor"
	d="M172.33 97.01l37.20 0.00v-3.20l-37.20 -0.00"/>
<use x="175.83" y="82.01" xlink:href="#hd"/>
<path d="M172.33 82.01v24.00" stroke="currentColor" fill="none"/>
<use x="188.23" y="79.01" xlink:href="#hd"/>
<path d="M184.73 79.01v27.00" stroke="currentColor" fill="none"/>
<use x="200.63" y="82.01" xlink:href="#hd"/>
<path d="M197.13 82.01v24.00" stroke="currentColor" fill="none"/>
<use x="213.03" y="79.01" xlink:href="#hd"/>
<path d="M209.53 79.01v27.00" stroke="currentColor" fill="none"/>
<defs>
<path id="r8e" fill="currentColor" d="m 0 0
	c-1.5 1.5 -2.4 2 -3.6 2
	c2.4 -2.8 -2.8 -4 -2.8 -1.2
	c0 2.7 4.3 2.4 5.9 0.6"/>
<g id="r32">
	<path d="m4.8 -10l-5.5 21.6" stroke="currentColor" fill="none"/>
	<use x="4.9" y="-10" xlink:href="#r8e"/>
	<use x="3.4" y="-4" xlink:href="#r8e"/>
	<use x="1.9" y="2" xlink:href="#r8e"/>
</g>
</defs>
<use x="237.83" y="94.01" xlink:href="#r32"/>
<use x="251.63" y="79.01" xlink:href="#hd"/>
<path d="M248.13 79.01v20.00" stroke="currentColor" fill="none"/>
<use x="290.53" y="79.01" xlink:href="#hd"/>
<circle fill="currentColor" cx="298.53" cy="79.01" r="1.2"/>
<path d="M287.03 79.01v22.00" stroke="currentColor" fill="none"/>
<path fill="currentColor"
	d="M287.03 101.01c0.9 -3.7 9.1 -6.4 6 -12.4
	c1 5.4 -4.2 8.4 -6 8.4
M287.03 95.61c0.9 -3.7 9.1 -6.4 6 -12.4
	c1 5.4 -4.2 8.4 -6 8.4
"/>
<use x="312.73" y="85.01" xlink:href="#hd"/>
<path d="M309.23 85.01v20.00" stroke="currentColor" fill="none"/>
<path fill="currentColor"
	d="M309.23 105.01c0.6 -5.6 9.6 -9 5.6 -18.4
	c1.6 6 -1.3 11.6 -5.6 12.8
"/>
<use x="340.23" y="91.01" xlink:href="#hd"/>
<path d="M336.73 91.01v20.00" stroke="currentColor" fill="none"/>
<defs>
<g id="r8">
	<path d="m3.3 -4l-3.4 9.6" stroke="currentColor" fill="none"/>
	<use x="3.4" y="-4" xlink:href="#r8e"/>
</g>
</defs>
<use x="375.13" y="94.01" xlink:href="#r8"/>
<use x="402.63" y="91.01" xlink:href="#hd"/>
<path d="M399.13 91.01v20.00" stroke="currentColor" fill="none"/>
<path fill="currentColor"
	d="M399.13 111.01c0.6 -5.6 9.6 -9 5.6 -18.4
	c1.6 6 -1.3 11.6 -5.6 12.8
"/>
<defs>
<path id="hl" stroke="currentColor" d="m-6 0h12"/>
</defs>
<use x="438.43" y="76.01" xlink:href="#hl"/>
<use x="438.43" y="70.01" xlink:href="#hl"/>
<use x="438.43" y="70.01" xlink:href="#Hd"/>
<circle fill="currentColor" cx="447.43" cy="67.01" r="1.2"/>
<path d="M434.93 70.01v24.00" stroke="currentColor" fill="none"/>
<use x="501.03" y="76.01" xlink:href="#hl"/>
<use x="501.03" y="76.01" xlink:href="#hd"/>
<path d="M497.53 76.01v20.00" stroke="currentColor" fill="none"/>
<use x="545.93" y="94.01" xlink:href="#r32"/>
<path fill="currentColor"
	d="M555.83 106.21l28.90 0.00v-3.20l-28.90 -0.00"/>
<path fill="currentColor"
	d="M578.43 101.21l6.00 0.00v-3.20l-6.00 -0.00"/>
<path fill="currentColor"
	d="M578.43 96.21l6.00 0.00v-3.20l-6.00 -0.00"/>
<use x="559.73" y="79.01" xlink:href="#hd"/>
<circle fill="currentColor" cx="567.73" cy="79.01" r="1.2"/>
<path d="M556.23 79.01v26.20" stroke="currentColor" fill="none"/>
<use x="587.93" y="79.01" xlink:href="#hd"/>
<path d="M584.43 79.01v26.20" stroke="currentColor" fill="none"/>
<use x="600.33" y="94.01" xlink:href="#r32"/>
<path fill="currentColor"
	d="M610.23 113.01l28.90 0.00v-3.20l-28.90 -0.00"/>
<path fill="currentColor"
	d="M632.83 108.01l6.00 0.00v-3.20l-6.00 -0.00"/>
<path fill="currentColor"
	d="M632.83 103.01l6.00 0.00v-3.20l-6.00 -0.00"/>
<use x="614.13" y="85.01" xlink:href="#hd"/>
<circle fill="currentColor" cx="622.13" cy="85.01" r="1.2"/>
<path d="M610.63 85.01v27.00" stroke="currentColor" fill="none"/>
<use x="642.33" y="85.01" xlink:href="#hd"/>
<path d="M638.83 85.01v27.00" stroke="currentColor" fill="none"/>
<use x="656.13" y="91.01" xlink:href="#hd"/>
<path d="M652.63 91.01v20.00" stroke="currentColor" fill="none"/>
<path fill="currentColor"
	d="M255.13 77.01c5.02 -5.07 26.87 -5.07 31.90 -0.00
	l0.00 -0.23c-5.98 -6.84 -25.92 -6.84 -31.90 0.23"/>
<path fill="currentColor"
	d="M563.23 77.01c3.34 -4.88 17.89 -4.88 21.23 -0.00
	l0.00 -0.22c-3.98 -6.66 -17.25 -6.66 -21.23 0.22"/>
<path fill="currentColor"
	d="M617.63 83.01c3.34 -4.88 17.89 -4.88 21.23 -0.00
	l0.00 -0.22c-3.98 -6.66 -17.25 -6.66 -21.23 0.22"/>
</g>
</svg>
