<?xml version="1.0" standalone="no"?>
<!DOCTYPE svg PUBLIC "-//W3C//DTD SVG 1.1//EN"
	"http://www.w3.org/Graphics/SVG/1.1/DTD/svg11.dtd">
<svg xmlns="http://www.w3.org/2000/svg" version="1.1"
	xmlns:xlink="http://www.w3.org/1999/xlink"
	xml:space='preserve' color="black"
	width="7.38in" height="1.34in" viewBox="0 0 531 97">
<title>4463.abc (4463) tune 1</title>
<!-- Creator: abcm2ps-7.8.14 -->
<!-- CreationDate: Mar 13, 2016 18:54 -->
<!-- CommandLine: -qxg 4463.abc -O ../svgs/4463.svg -->
<g transform="scale(0.750)" stroke-width="0.70" font-family="Times" font-size="20.00">
<text x="354.13" y="21.67" text-anchor="middle">4463.  Sonata in F, K 377, 1st. Mvt.</text>
</g>
<g transform="scale(0.750)" stroke-width="0.70" font-family="Times" font-size="14.00" font-style="italic">
<text x="694.93" y="45.34" text-anchor="end">Wolfgang Amadeus Mozart</text>
</g>
<g transform="scale(0.525)" stroke-width="0.70" font-family="Times" font-size="14.00" font-style="italic">
<defs>
<ellipse id="hd" rx="4.1" ry="2.9"
	transform="rotate(-20)" fill="currentColor"/>
</defs>
<use x="107.76" y="94.16" xlink:href="#hd"/>
<path d="M111.26 94.16v-20.00" stroke="currentColor" fill="none"/>
</g>
<g transform="scale(0.750)" stroke-width="0.70" font-family="Times" font-size="15.00" font-weight="bold">
<text x="83.13" y="68.01">= 120</text>
<path stroke="currentColor" fill="none"
	d="M201.43 106.01v-24.00"/>
<path stroke="currentColor" fill="none"
	d="M341.13 106.01v-24.00"/>
<path stroke="currentColor" fill="none"
	d="M509.63 106.01v-24.00"/>
<path stroke="currentColor" fill="none"
	d="M649.23 106.01v-24.00"/>
<path stroke="currentColor" fill="none"
	d="M13.33 106.01h681.60m-681.60 -6h681.60m-681.60 -6h681.60m-681.60 -6h681.60m-681.60 -6h681.60"/>
<defs>
<path id="utclef" fill="currentColor" d="m-50 -90
	c-72 -41 -72 -158 52 -188
	c150 -10 220 188 90 256
	c-114 52 -275 0 -293 -136
	c-15 -181 93 -229 220 -334
	c88 -87 79 -133 62 -210
	c-51 33 -94 105 -89 186
	c17 267 36 374 49 574
	c6 96 -19 134 -77 135
	c-80 1 -126 -93 -61 -133
	c85 -41 133 101 31 105
	c23 17 92 37 90 -92
	c-10 -223 -39 -342 -50 -617
	c0 -90 0 -162 96 -232
	c56 72 63 230 22 289
	c-74 106 -257 168 -255 316
	c9 153 148 185 252 133
	c86 -65 29 -192 -80 -176
	c-71 12 -105 67 -59 124"/>
<use id="tclef" transform="scale(0.045)"
	xlink:href="#utclef"/>
</defs>
<use x="25.33" y="106.01" xlink:href="#tclef"/>
<defs>
<path id="uflat" fill="currentColor" d="
	m100 -746
	h32
	v734
	l-32 4
	m32 -332
	c46 -72 152 -90 208 -20
	c100 110 -120 326 -208 348
	m0 -28
	c54 0 200 -206 130 -290
	c-50 -60 -130 -4 -130 34"/>
<use id="ft0" transform="translate(-3.5,3.5) scale(0.018)"
	xlink:href="#uflat"/>
</defs>
<use x="40.33" y="94.01" xlink:href="#ft0"/>
<g font-family="serif" font-size="16" font-weight="bold" font-style="normal"
	transform="translate(56.33,106.01) scale(1.2,1)">
	<text y="-1" text-anchor="middle">2</text>
	<text y="-13" text-anchor="middle">2</text>
</g>
<defs>
<path id="Hd" fill="currentColor" d="m3 -1.6
	c-1 -1.8 -7 1.4 -6 3.2
	c1 1.8 7 -1.4 6 -3.2
	m0.5 -0.3
	c2 3.8 -5 7.6 -7 3.8
	c-2 -3.8 5 -7.6 7 -3.8"/>
</defs>
<use x="74.83" y="103.01" xlink:href="#Hd"/>
<path d="M78.33 103.01v-20.00" stroke="currentColor" fill="none"/>
<defs>
<path id="r8e" fill="currentColor" d="m 0 0
	c-1.5 1.5 -2.4 2 -3.6 2
	c2.4 -2.8 -2.8 -4 -2.8 -1.2
	c0 2.7 4.3 2.4 5.9 0.6"/>
<g id="r32">
	<path d="m4.8 -10l-5.5 21.6" stroke="currentColor" fill="none"/>
	<use x="4.9" y="-10" xlink:href="#r8e"/>
	<use x="3.4" y="-4" xlink:href="#r8e"/>
	<use x="1.9" y="2" xlink:href="#r8e"/>
</g>
</defs>
<use x="117.33" y="94.01" xlink:href="#r32"/>
<defs>
<path id="hl" stroke="currentColor" d="m-6 0h12"/>
</defs>
<use x="129.33" y="76.01" xlink:href="#hl"/>
<use x="129.33" y="76.01" xlink:href="#hd"/>
<path d="M125.83 76.01v20.00" stroke="currentColor" fill="none"/>
<use x="163.03" y="76.01" xlink:href="#hl"/>
<use x="163.03" y="76.01" xlink:href="#hd"/>
<circle fill="currentColor" cx="171.03" cy="73.01" r="1.2"/>
<path d="M159.53 76.01v22.00" stroke="currentColor" fill="none"/>
<path fill="currentColor"
	d="M159.53 98.01c0.9 -3.7 9.1 -6.4 6 -12.4
	c1 5.4 -4.2 8.4 -6 8.4
M159.53 92.61c0.9 -3.7 9.1 -6.4 6 -12.4
	c1 5.4 -4.2 8.4 -6 8.4
"/>
<use x="182.43" y="79.01" xlink:href="#hd"/>
<path d="M178.93 79.01v20.00" stroke="currentColor" fill="none"/>
<path fill="currentColor"
	d="M178.93 99.01c0.6 -5.6 9.6 -9 5.6 -18.4
	c1.6 6 -1.3 11.6 -5.6 12.8
"/>
<use x="213.93" y="82.01" xlink:href="#hd"/>
<path d="M210.43 82.01v20.00" stroke="currentColor" fill="none"/>
<use x="247.43" y="85.01" xlink:href="#hd"/>
<path d="M243.93 85.01v20.00" stroke="currentColor" fill="none"/>
<use x="280.83" y="88.01" xlink:href="#hd"/>
<path d="M277.33 88.01v20.00" stroke="currentColor" fill="none"/>
<use x="314.33" y="91.01" xlink:href="#hd"/>
<path d="M310.83 91.01v20.00" stroke="currentColor" fill="none"/>
<use x="353.63" y="94.01" xlink:href="#hd"/>
<path d="M350.13 94.01v20.00" stroke="currentColor" fill="none"/>
<defs>
<path id="r4" fill="currentColor" d="m-1 -8.5
	l3.6 5.1 -2.1 5.2 2.2 4.3
	c-2.6 -2.3 -5.1 0 -2.4 2.6
	c-4.8 -3 -1.5 -6.9 1.4 -4.1
	l-3.1 -4.5 1.9 -5.1 -1.5 -3.5"/>
</defs>
<use x="387.03" y="94.01" xlink:href="#r4"/>
<use x="417.13" y="94.01" xlink:href="#r32"/>
<use x="428.03" y="94.01" xlink:href="#r32"/>
<use x="440.03" y="79.01" xlink:href="#hd"/>
<path d="M436.53 79.01v20.00" stroke="currentColor" fill="none"/>
<use x="473.73" y="79.01" xlink:href="#hd"/>
<path d="M470.23 79.01v22.00" stroke="currentColor" fill="none"/>
<path fill="currentColor"
	d="M470.23 101.01c0.9 -3.7 9.1 -6.4 6 -12.4
	c1 5.4 -4.2 8.4 -6 8.4
M470.23 95.61c0.9 -3.7 9.1 -6.4 6 -12.4
	c1 5.4 -4.2 8.4 -6 8.4
"/>
<use x="490.53" y="82.01" xlink:href="#hd"/>
<path d="M487.03 82.01v20.00" stroke="currentColor" fill="none"/>
<path fill="currentColor"
	d="M487.03 102.01c0.6 -5.6 9.6 -9 5.6 -18.4
	c1.6 6 -1.3 11.6 -5.6 12.8
"/>
<use x="522.13" y="85.01" xlink:href="#hd"/>
<path d="M518.63 85.01v20.00" stroke="currentColor" fill="none"/>
<use x="555.53" y="88.01" xlink:href="#hd"/>
<path d="M552.03 88.01v20.00" stroke="currentColor" fill="none"/>
<use x="589.03" y="91.01" xlink:href="#hd"/>
<path d="M585.53 91.01v20.00" stroke="currentColor" fill="none"/>
<use x="622.43" y="94.01" xlink:href="#hd"/>
<path d="M618.93 94.01v20.00" stroke="currentColor" fill="none"/>
<use x="661.73" y="97.01" xlink:href="#hd"/>
<path d="M665.23 97.01v-20.00" stroke="currentColor" fill="none"/>
<path fill="currentColor"
	d="M132.83 76.01c4.21 -4.98 22.50 -4.98 26.71 -0.00
	l0.00 -0.23c-5.01 -6.75 -21.70 -6.75 -26.71 0.23"/>
<path fill="currentColor"
	d="M443.53 77.01c4.21 -4.98 22.50 -4.98 26.71 -0.00
	l0.00 -0.23c-5.01 -6.75 -21.70 -6.75 -26.71 0.23"/>
</g>
</svg>
