<?xml version="1.0" standalone="no"?>
<!DOCTYPE svg PUBLIC "-//W3C//DTD SVG 1.1//EN"
	"http://www.w3.org/Graphics/SVG/1.1/DTD/svg11.dtd">
<svg xmlns="http://www.w3.org/2000/svg" version="1.1"
	xmlns:xlink="http://www.w3.org/1999/xlink"
	xml:space='preserve' color="black"
	width="7.38in" height="1.34in" viewBox="0 0 531 97">
<title>4471.abc (4471) tune 1</title>
<!-- Creator: abcm2ps-7.8.14 -->
<!-- CreationDate: Mar 13, 2016 18:54 -->
<!-- CommandLine: -qxg 4471.abc -O ../svgs/4471.svg -->
<g transform="scale(0.750)" stroke-width="0.70" font-family="Times" font-size="20.00">
<text x="354.13" y="21.67" text-anchor="middle">4471.  Sonata in G, K 379, 2nd. Mvt.</text>
</g>
<g transform="scale(0.750)" stroke-width="0.70" font-family="Times" font-size="14.00" font-style="italic">
<text x="694.93" y="45.34" text-anchor="end">Wolfgang Amadeus Mozart</text>
</g>
<g transform="scale(0.525)" stroke-width="0.70" font-family="Times" font-size="14.00" font-style="italic">
<defs>
<ellipse id="hd" rx="4.1" ry="2.9"
	transform="rotate(-20)" fill="currentColor"/>
</defs>
<use x="107.04" y="94.16" xlink:href="#hd"/>
<path d="M110.54 94.16v-20.00" stroke="currentColor" fill="none"/>
</g>
<g transform="scale(0.750)" stroke-width="0.70" font-family="Times" font-size="15.00" font-weight="bold">
<text x="82.63" y="68.01">= 120</text>
<path stroke="currentColor" fill="none"
	d="M212.03 106.01v-24.00"/>
<path stroke="currentColor" fill="none"
	d="M362.93 106.01v-24.00"/>
<path stroke="currentColor" fill="none"
	d="M527.93 106.01v-24.00"/>
<path stroke="currentColor" fill="none"
	d="M694.93 106.01v-24.00"/>
<path stroke="currentColor" fill="none"
	d="M13.33 106.01h681.60m-681.60 -6h681.60m-681.60 -6h681.60m-681.60 -6h681.60m-681.60 -6h681.60"/>
<defs>
<path id="utclef" fill="currentColor" d="m-50 -90
	c-72 -41 -72 -158 52 -188
	c150 -10 220 188 90 256
	c-114 52 -275 0 -293 -136
	c-15 -181 93 -229 220 -334
	c88 -87 79 -133 62 -210
	c-51 33 -94 105 -89 186
	c17 267 36 374 49 574
	c6 96 -19 134 -77 135
	c-80 1 -126 -93 -61 -133
	c85 -41 133 101 31 105
	c23 17 92 37 90 -92
	c-10 -223 -39 -342 -50 -617
	c0 -90 0 -162 96 -232
	c56 72 63 230 22 289
	c-74 106 -257 168 -255 316
	c9 153 148 185 252 133
	c86 -65 29 -192 -80 -176
	c-71 12 -105 67 -59 124"/>
<use id="tclef" transform="scale(0.045)"
	xlink:href="#utclef"/>
</defs>
<use x="25.33" y="106.01" xlink:href="#tclef"/>
<defs>
<path id="usharp" fill="currentColor" d="
	m136 -702
	v890
	h32
	v-890
	m128 840
	h32
	v-888
	h-32
	m-232 286
	v116
	l338 -96
	v-116
	m-338 442
	v116
	l338 -98
	v-114"/>
<use id="sh0" transform="translate(-4,5) scale(0.018)"
	xlink:href="#usharp"/>
</defs>
<use x="40.33" y="82.01" xlink:href="#sh0"/>
<g font-family="serif" font-size="16" font-weight="bold" font-style="normal"
	transform="translate(56.33,106.01) scale(1.2,1)">
	<text y="-1" text-anchor="middle">4</text>
	<text y="-13" text-anchor="middle">2</text>
</g>
<use x="74.33" y="94.01" xlink:href="#hd"/>
<path d="M70.83 94.01v20.00" stroke="currentColor" fill="none"/>
<path fill="currentColor"
	d="M70.83 114.01c0.6 -5.6 9.6 -9 5.6 -18.4
	c1.6 6 -1.3 11.6 -5.6 12.8
"/>
<path fill="currentColor"
	d="M99.63 118.91l40.00 0.00v-3.20l-40.00 -0.00"/>
<path fill="currentColor"
	d="M100.03 113.91l39.40 0.00v-3.20l-39.40 -0.00"/>
<path fill="currentColor"
	d="M100.03 108.91l39.40 0.00v-3.20l-39.40 -0.00"/>
<use x="103.53" y="94.01" xlink:href="#hd"/>
<path d="M100.03 94.01v24.00" stroke="currentColor" fill="none"/>
<use x="116.63" y="91.01" xlink:href="#hd"/>
<path d="M113.13 91.01v27.00" stroke="currentColor" fill="none"/>
<use x="129.73" y="94.01" xlink:href="#hd"/>
<path d="M126.23 94.01v24.00" stroke="currentColor" fill="none"/>
<use x="142.83" y="91.01" xlink:href="#hd"/>
<path d="M139.33 91.01v27.00" stroke="currentColor" fill="none"/>
<defs>
<path id="r8e" fill="currentColor" d="m 0 0
	c-1.5 1.5 -2.4 2 -3.6 2
	c2.4 -2.8 -2.8 -4 -2.8 -1.2
	c0 2.7 4.3 2.4 5.9 0.6"/>
<g id="r32">
	<path d="m4.8 -10l-5.5 21.6" stroke="currentColor" fill="none"/>
	<use x="4.9" y="-10" xlink:href="#r8e"/>
	<use x="3.4" y="-4" xlink:href="#r8e"/>
	<use x="1.9" y="2" xlink:href="#r8e"/>
</g>
</defs>
<use x="155.93" y="94.01" xlink:href="#r32"/>
<path fill="currentColor"
	d="M166.73 113.01l30.50 0.00v-3.20l-30.50 -0.00"/>
<path fill="currentColor"
	d="M190.93 108.01l6.00 0.00v-3.20l-6.00 -0.00"/>
<path fill="currentColor"
	d="M190.93 103.01l6.00 0.00v-3.20l-6.00 -0.00"/>
<use x="170.53" y="88.01" xlink:href="#hd"/>
<circle fill="currentColor" cx="178.53" cy="85.01" r="1.2"/>
<path d="M167.03 88.01v24.00" stroke="currentColor" fill="none"/>
<use x="200.43" y="88.01" xlink:href="#hd"/>
<path d="M196.93 88.01v24.00" stroke="currentColor" fill="none"/>
<use x="226.63" y="100.01" xlink:href="#hd"/>
<path d="M230.13 100.01v-20.00" stroke="currentColor" fill="none"/>
<path fill="currentColor"
	d="	M230.13 80.01c0.6 5.6 9.6 9 5.6 18.4
	c1.6 -6 -1.3 -11.6 -5.6 -12.8
"/>
<path fill="currentColor"
	d="M258.93 69.81l40.00 0.00v3.20l-40.00 -0.00"/>
<path fill="currentColor"
	d="M259.33 74.81l39.40 0.00v3.20l-39.40 -0.00"/>
<path fill="currentColor"
	d="M259.33 79.81l39.40 0.00v3.20l-39.40 -0.00"/>
<use x="255.83" y="100.01" xlink:href="#hd"/>
<path d="M259.33 100.01v-29.20" stroke="currentColor" fill="none"/>
<use x="268.93" y="97.01" xlink:href="#hd"/>
<path d="M272.43 97.01v-26.20" stroke="currentColor" fill="none"/>
<use x="282.03" y="100.01" xlink:href="#hd"/>
<path d="M285.53 100.01v-29.20" stroke="currentColor" fill="none"/>
<use x="295.13" y="97.01" xlink:href="#hd"/>
<path d="M298.63 97.01v-26.20" stroke="currentColor" fill="none"/>
<use x="308.23" y="94.01" xlink:href="#r32"/>
<path fill="currentColor"
	d="M324.53 69.01l30.50 0.00v3.20l-30.50 -0.00"/>
<path fill="currentColor"
	d="M348.73 74.01l6.00 0.00v3.20l-6.00 -0.00"/>
<path fill="currentColor"
	d="M348.73 79.01l6.00 0.00v3.20l-6.00 -0.00"/>
<use x="321.43" y="94.01" xlink:href="#hd"/>
<circle fill="currentColor" cx="329.43" cy="91.01" r="1.2"/>
<path d="M324.93 94.01v-24.00" stroke="currentColor" fill="none"/>
<use x="351.23" y="94.01" xlink:href="#hd"/>
<path d="M354.73 94.01v-24.00" stroke="currentColor" fill="none"/>
<path fill="currentColor"
	d="M380.63 74.11l19.20 -2.30v3.20l-19.20 2.30"/>
<path fill="currentColor"
	d="M380.93 79.11l18.50 -2.30v3.20l-18.50 2.30"/>
<use x="377.43" y="97.01" xlink:href="#hd"/>
<path d="M380.93 97.01v-21.90" stroke="currentColor" fill="none"/>
<use x="396.03" y="94.01" xlink:href="#hd"/>
<path d="M399.53 94.01v-21.20" stroke="currentColor" fill="none"/>
<path fill="currentColor"
	d="M419.83 74.11l19.20 -2.30v3.20l-19.20 2.30"/>
<path fill="currentColor"
	d="M420.13 79.11l18.50 -2.30v3.20l-18.50 2.30"/>
<use x="416.63" y="97.01" xlink:href="#hd"/>
<path d="M420.13 97.01v-21.90" stroke="currentColor" fill="none"/>
<use x="435.13" y="94.01" xlink:href="#hd"/>
<path d="M438.63 94.01v-21.20" stroke="currentColor" fill="none"/>
<path fill="currentColor"
	d="M451.93 113.91l19.20 2.30v-3.20l-19.20 -2.30"/>
<path fill="currentColor"
	d="M452.23 108.91l18.50 2.30v-3.20l-18.50 -2.30"/>
<use x="455.73" y="91.01" xlink:href="#hd"/>
<path d="M452.23 91.01v21.90" stroke="currentColor" fill="none"/>
<use x="474.33" y="94.01" xlink:href="#hd"/>
<path d="M470.83 94.01v21.20" stroke="currentColor" fill="none"/>
<path fill="currentColor"
	d="M496.03 74.81l19.20 2.40v3.20l-19.20 -2.40"/>
<path fill="currentColor"
	d="M496.33 79.81l18.50 2.30v3.20l-18.50 -2.30"/>
<use x="492.83" y="97.01" xlink:href="#hd"/>
<path d="M496.33 97.01v-21.20" stroke="currentColor" fill="none"/>
<use x="511.43" y="100.01" xlink:href="#hd"/>
<path d="M514.93 100.01v-21.90" stroke="currentColor" fill="none"/>
<path fill="currentColor"
	d="M545.63 77.81l19.20 2.40v3.20l-19.20 -2.40"/>
<path fill="currentColor"
	d="M545.93 82.81l18.50 2.30v3.20l-18.50 -2.30"/>
<use x="542.43" y="100.01" xlink:href="#hd"/>
<path d="M545.93 100.01v-21.20" stroke="currentColor" fill="none"/>
<use x="561.03" y="103.01" xlink:href="#hd"/>
<path d="M564.53 103.01v-21.90" stroke="currentColor" fill="none"/>
<path fill="currentColor"
	d="M584.73 74.81l19.20 2.30v3.20l-19.20 -2.30"/>
<path fill="currentColor"
	d="M585.13 79.81l18.50 2.30v3.20l-18.50 -2.30"/>
<use x="581.63" y="97.01" xlink:href="#hd"/>
<path d="M585.13 97.01v-21.20" stroke="currentColor" fill="none"/>
<use x="600.13" y="100.01" xlink:href="#hd"/>
<path d="M603.63 100.01v-21.90" stroke="currentColor" fill="none"/>
<path fill="currentColor"
	d="M623.93 77.81l19.20 2.40v3.20l-19.20 -2.40"/>
<path fill="currentColor"
	d="M624.23 82.81l18.50 2.30v3.20l-18.50 -2.30"/>
<use x="620.73" y="100.01" xlink:href="#hd"/>
<path d="M624.23 100.01v-21.20" stroke="currentColor" fill="none"/>
<use x="639.33" y="103.01" xlink:href="#hd"/>
<path d="M642.83 103.01v-21.90" stroke="currentColor" fill="none"/>
<path fill="currentColor"
	d="M663.03 83.81l19.20 2.40v3.20l-19.20 -2.40"/>
<path fill="currentColor"
	d="M663.43 88.81l18.50 2.30v3.20l-18.50 -2.30"/>
<use x="659.93" y="106.01" xlink:href="#hd"/>
<path d="M663.43 106.01v-21.20" stroke="currentColor" fill="none"/>
<use x="678.43" y="109.01" xlink:href="#hd"/>
<path d="M681.93 109.01v-21.90" stroke="currentColor" fill="none"/>
<path fill="currentColor"
	d="M174.03 82.01c3.60 -4.91 19.26 -4.91 22.85 -0.00
	l0.00 -0.22c-4.29 -6.69 -18.57 -6.69 -22.85 0.22"/>
<path fill="currentColor"
	d="M324.93 94.01c3.60 4.91 19.26 4.91 22.85 -0.00
	l0.00 0.22c-4.29 6.69 -18.57 6.69 -22.85 -0.22"/>
</g>
</svg>
