<?xml version="1.0" standalone="no"?>
<!DOCTYPE svg PUBLIC "-//W3C//DTD SVG 1.1//EN"
	"http://www.w3.org/Graphics/SVG/1.1/DTD/svg11.dtd">
<svg xmlns="http://www.w3.org/2000/svg" version="1.1"
	xmlns:xlink="http://www.w3.org/1999/xlink"
	xml:space='preserve' color="black"
	width="7.38in" height="1.40in" viewBox="0 0 531 101">
<title>4511.abc (4511) tune 1</title>
<!-- Creator: abcm2ps-7.8.14 -->
<!-- CreationDate: Mar 13, 2016 18:54 -->
<!-- CommandLine: -qxg 4511.abc -O ../svgs/4511.svg -->
<g transform="scale(0.750)" stroke-width="0.70" font-family="Times" font-size="20.00">
<text x="354.13" y="21.67" text-anchor="middle">4511.  Symphony No. 25, in G Minor, K 183, 4th. Mvt. - 2nd. Theme</text>
</g>
<g transform="scale(0.750)" stroke-width="0.70" font-family="Times" font-size="14.00" font-style="italic">
<text x="694.93" y="45.34" text-anchor="end">Wolfgang Amadeus Mozart</text>
</g>
<g transform="scale(0.525)" stroke-width="0.70" font-family="Times" font-size="14.00" font-style="italic">
<defs>
<ellipse id="hd" rx="4.1" ry="2.9"
	transform="rotate(-20)" fill="currentColor"/>
</defs>
<use x="114.90" y="94.16" xlink:href="#hd"/>
<path d="M118.40 94.16v-20.00" stroke="currentColor" fill="none"/>
</g>
<g transform="scale(0.750)" stroke-width="0.70" font-family="Times" font-size="15.00" font-weight="bold">
<text x="88.13" y="68.01">= 120</text>
<path stroke="currentColor" fill="none"
	d="M236.93 111.01v-24.00"/>
<path stroke="currentColor" fill="none"
	d="M389.63 111.01v-24.00"/>
<path stroke="currentColor" fill="none"
	d="M542.23 111.01v-24.00"/>
<path stroke="currentColor" fill="none"
	d="M694.93 111.01v-24.00"/>
<path stroke="currentColor" fill="none"
	d="M13.33 111.01h681.60m-681.60 -6h681.60m-681.60 -6h681.60m-681.60 -6h681.60m-681.60 -6h681.60"/>
<defs>
<path id="utclef" fill="currentColor" d="m-50 -90
	c-72 -41 -72 -158 52 -188
	c150 -10 220 188 90 256
	c-114 52 -275 0 -293 -136
	c-15 -181 93 -229 220 -334
	c88 -87 79 -133 62 -210
	c-51 33 -94 105 -89 186
	c17 267 36 374 49 574
	c6 96 -19 134 -77 135
	c-80 1 -126 -93 -61 -133
	c85 -41 133 101 31 105
	c23 17 92 37 90 -92
	c-10 -223 -39 -342 -50 -617
	c0 -90 0 -162 96 -232
	c56 72 63 230 22 289
	c-74 106 -257 168 -255 316
	c9 153 148 185 252 133
	c86 -65 29 -192 -80 -176
	c-71 12 -105 67 -59 124"/>
<use id="tclef" transform="scale(0.045)"
	xlink:href="#utclef"/>
</defs>
<use x="25.33" y="111.01" xlink:href="#tclef"/>
<defs>
<path id="uflat" fill="currentColor" d="
	m100 -746
	h32
	v734
	l-32 4
	m32 -332
	c46 -72 152 -90 208 -20
	c100 110 -120 326 -208 348
	m0 -28
	c54 0 200 -206 130 -290
	c-50 -60 -130 -4 -130 34"/>
<use id="ft0" transform="translate(-3.5,3.5) scale(0.018)"
	xlink:href="#uflat"/>
</defs>
<use x="40.33" y="99.01" xlink:href="#ft0"/>
<use x="45.83" y="90.01" xlink:href="#ft0"/>
<g font-family="serif" font-size="16" font-weight="bold" font-style="normal"
	transform="translate(61.83,111.01) scale(1.2,1)">
	<text y="-1" text-anchor="middle">4</text>
	<text y="-13" text-anchor="middle">4</text>
</g>
<defs>
<path id="hl" stroke="currentColor" d="m-6 0h12"/>
</defs>
<use x="79.83" y="81.01" xlink:href="#hl"/>
<use x="79.83" y="78.01" xlink:href="#hd"/>
<path d="M76.33 78.01v21.00" stroke="currentColor" fill="none"/>
<defs>
<path id="r8e" fill="currentColor" d="m 0 0
	c-1.5 1.5 -2.4 2 -3.6 2
	c2.4 -2.8 -2.8 -4 -2.8 -1.2
	c0 2.7 4.3 2.4 5.9 0.6"/>
<g id="r8">
	<path d="m3.3 -4l-3.4 9.6" stroke="currentColor" fill="none"/>
	<use x="3.4" y="-4" xlink:href="#r8e"/>
</g>
</defs>
<use x="115.03" y="99.01" xlink:href="#r8"/>
<use x="142.63" y="87.01" xlink:href="#hd"/>
<path d="M139.13 87.01v20.00" stroke="currentColor" fill="none"/>
<path fill="currentColor"
	d="M139.13 107.01c0.6 -5.6 9.6 -9 5.6 -18.4
	c1.6 6 -1.3 11.6 -5.6 12.8
"/>
<use x="170.33" y="93.01" xlink:href="#hd"/>
<circle fill="currentColor" cx="178.33" cy="90.01" r="1.2"/>
<path d="M166.83 93.01v20.00" stroke="currentColor" fill="none"/>
<use x="214.83" y="90.01" xlink:href="#hd"/>
<path d="M211.33 90.01v20.00" stroke="currentColor" fill="none"/>
<path fill="currentColor"
	d="M211.33 110.01c0.6 -5.6 9.6 -9 5.6 -18.4
	c1.6 6 -1.3 11.6 -5.6 12.8
"/>
<use x="250.83" y="96.01" xlink:href="#hd"/>
<circle fill="currentColor" cx="258.83" cy="96.01" r="1.2"/>
<path d="M247.33 96.01v20.00" stroke="currentColor" fill="none"/>
<use x="295.33" y="93.01" xlink:href="#hd"/>
<path d="M291.83 93.01v20.00" stroke="currentColor" fill="none"/>
<path fill="currentColor"
	d="M291.83 113.01c0.6 -5.6 9.6 -9 5.6 -18.4
	c1.6 6 -1.3 11.6 -5.6 12.8
"/>
<use x="322.93" y="90.01" xlink:href="#hd"/>
<circle fill="currentColor" cx="330.93" cy="90.01" r="1.2"/>
<path d="M319.43 90.01v20.00" stroke="currentColor" fill="none"/>
<use x="367.43" y="87.01" xlink:href="#hd"/>
<path d="M363.93 87.01v20.00" stroke="currentColor" fill="none"/>
<path fill="currentColor"
	d="M363.93 107.01c0.6 -5.6 9.6 -9 5.6 -18.4
	c1.6 6 -1.3 11.6 -5.6 12.8
"/>
<use x="403.43" y="93.01" xlink:href="#hd"/>
<circle fill="currentColor" cx="411.43" cy="90.01" r="1.2"/>
<path d="M399.93 93.01v20.00" stroke="currentColor" fill="none"/>
<use x="447.93" y="87.01" xlink:href="#hd"/>
<path d="M444.43 87.01v20.00" stroke="currentColor" fill="none"/>
<path fill="currentColor"
	d="M444.43 107.01c0.6 -5.6 9.6 -9 5.6 -18.4
	c1.6 6 -1.3 11.6 -5.6 12.8
"/>
<use x="475.63" y="81.01" xlink:href="#hl"/>
<use x="475.63" y="78.01" xlink:href="#hd"/>
<circle fill="currentColor" cx="483.63" cy="78.01" r="1.2"/>
<path d="M472.13 78.01v21.00" stroke="currentColor" fill="none"/>
<use x="520.13" y="81.01" xlink:href="#hl"/>
<use x="520.13" y="75.01" xlink:href="#hl"/>
<use x="520.13" y="72.01" xlink:href="#hd"/>
<path d="M516.63 72.01v27.00" stroke="currentColor" fill="none"/>
<path fill="currentColor"
	d="M516.63 99.01c0.6 -5.6 9.6 -9 5.6 -18.4
	c1.6 6 -1.3 11.6 -5.6 12.8
"/>
<use x="556.13" y="81.01" xlink:href="#hl"/>
<use x="556.13" y="75.01" xlink:href="#hl"/>
<use x="556.13" y="75.01" xlink:href="#hd"/>
<circle fill="currentColor" cx="564.13" cy="72.01" r="1.2"/>
<path d="M552.63 75.01v24.00" stroke="currentColor" fill="none"/>
<use x="600.63" y="81.01" xlink:href="#hl"/>
<use x="600.63" y="75.01" xlink:href="#hl"/>
<use x="600.63" y="69.01" xlink:href="#hl"/>
<use x="600.63" y="69.01" xlink:href="#hd"/>
<path d="M597.13 69.01v30.00" stroke="currentColor" fill="none"/>
<path fill="currentColor"
	d="M597.13 99.01c0.6 -5.6 9.6 -9 5.6 -18.4
	c1.6 6 -1.3 11.6 -5.6 12.8
"/>
<use x="628.33" y="87.01" xlink:href="#hd"/>
<circle fill="currentColor" cx="636.33" cy="84.01" r="1.2"/>
<path d="M624.83 87.01v20.00" stroke="currentColor" fill="none"/>
<use x="672.83" y="81.01" xlink:href="#hl"/>
<use x="672.83" y="81.01" xlink:href="#hd"/>
<path d="M669.33 81.01v20.00" stroke="currentColor" fill="none"/>
<path fill="currentColor"
	d="M669.33 101.01c0.6 -5.6 9.6 -9 5.6 -18.4
	c1.6 6 -1.3 11.6 -5.6 12.8
"/>
</g>
</svg>
