<?xml version="1.0" standalone="no"?>
<!DOCTYPE svg PUBLIC "-//W3C//DTD SVG 1.1//EN"
	"http://www.w3.org/Graphics/SVG/1.1/DTD/svg11.dtd">
<svg xmlns="http://www.w3.org/2000/svg" version="1.1"
	xmlns:xlink="http://www.w3.org/1999/xlink"
	xml:space='preserve' color="black"
	width="7.38in" height="1.34in" viewBox="0 0 531 97">
<title>4537.abc (4537) tune 1</title>
<!-- Creator: abcm2ps-7.8.14 -->
<!-- CreationDate: Mar 13, 2016 18:54 -->
<!-- CommandLine: -qxg 4537.abc -O ../svgs/4537.svg -->
<g transform="scale(0.750)" stroke-width="0.70" font-family="Times" font-size="20.00">
<text x="354.13" y="21.67" text-anchor="middle">4537.  Symphony No. 32, in G, K 318, (In One Mvt.), 3rd. Theme</text>
</g>
<g transform="scale(0.750)" stroke-width="0.70" font-family="Times" font-size="14.00" font-style="italic">
<text x="694.93" y="45.34" text-anchor="end">Wolfgang Amadeus Mozart</text>
</g>
<g transform="scale(0.525)" stroke-width="0.70" font-family="Times" font-size="14.00" font-style="italic">
<defs>
<ellipse id="hd" rx="4.1" ry="2.9"
	transform="rotate(-20)" fill="currentColor"/>
</defs>
<use x="107.04" y="94.16" xlink:href="#hd"/>
<path d="M110.54 94.16v-20.00" stroke="currentColor" fill="none"/>
</g>
<g transform="scale(0.750)" stroke-width="0.70" font-family="Times" font-size="15.00" font-weight="bold">
<text x="82.63" y="68.01">= 120</text>
<path stroke="currentColor" fill="none"
	d="M130.63 106.01v-24.00"/>
<path stroke="currentColor" fill="none"
	d="M199.73 106.01v-24.00"/>
<path stroke="currentColor" fill="none"
	d="M269.03 106.01v-24.00"/>
<path stroke="currentColor" fill="none"
	d="M366.73 106.01v-24.00"/>
<path stroke="currentColor" fill="none"
	d="M445.73 106.01v-24.00"/>
<path stroke="currentColor" fill="none"
	d="M524.83 106.01v-24.00"/>
<path stroke="currentColor" fill="none"
	d="M625.63 106.01v-24.00"/>
<path stroke="currentColor" fill="none"
	d="M694.93 106.01v-24.00"/>
<path stroke="currentColor" fill="none"
	d="M13.33 106.01h681.60m-681.60 -6h681.60m-681.60 -6h681.60m-681.60 -6h681.60m-681.60 -6h681.60"/>
<defs>
<path id="utclef" fill="currentColor" d="m-50 -90
	c-72 -41 -72 -158 52 -188
	c150 -10 220 188 90 256
	c-114 52 -275 0 -293 -136
	c-15 -181 93 -229 220 -334
	c88 -87 79 -133 62 -210
	c-51 33 -94 105 -89 186
	c17 267 36 374 49 574
	c6 96 -19 134 -77 135
	c-80 1 -126 -93 -61 -133
	c85 -41 133 101 31 105
	c23 17 92 37 90 -92
	c-10 -223 -39 -342 -50 -617
	c0 -90 0 -162 96 -232
	c56 72 63 230 22 289
	c-74 106 -257 168 -255 316
	c9 153 148 185 252 133
	c86 -65 29 -192 -80 -176
	c-71 12 -105 67 -59 124"/>
<use id="tclef" transform="scale(0.045)"
	xlink:href="#utclef"/>
</defs>
<use x="25.33" y="106.01" xlink:href="#tclef"/>
<defs>
<path id="usharp" fill="currentColor" d="
	m136 -702
	v890
	h32
	v-890
	m128 840
	h32
	v-888
	h-32
	m-232 286
	v116
	l338 -96
	v-116
	m-338 442
	v116
	l338 -98
	v-114"/>
<use id="sh0" transform="translate(-4,5) scale(0.018)"
	xlink:href="#usharp"/>
</defs>
<use x="40.33" y="82.01" xlink:href="#sh0"/>
<g font-family="serif" font-size="16" font-weight="bold" font-style="normal"
	transform="translate(56.33,106.01) scale(1.2,1)">
	<text y="-1" text-anchor="middle">8</text>
	<text y="-13" text-anchor="middle">3</text>
</g>
<use x="74.33" y="88.01" xlink:href="#hd"/>
<path d="M70.83 88.01v20.00" stroke="currentColor" fill="none"/>
<use x="110.23" y="91.01" xlink:href="#hd"/>
<path d="M106.73 91.01v20.00" stroke="currentColor" fill="none"/>
<path fill="currentColor"
	d="M106.73 111.01c0.6 -5.6 9.6 -9 5.6 -18.4
	c1.6 6 -1.3 11.6 -5.6 12.8
"/>
<use x="143.43" y="94.01" xlink:href="#hd"/>
<path d="M139.93 94.01v20.00" stroke="currentColor" fill="none"/>
<use x="179.33" y="91.01" xlink:href="#hd"/>
<path d="M175.83 91.01v20.00" stroke="currentColor" fill="none"/>
<path fill="currentColor"
	d="M175.83 111.01c0.6 -5.6 9.6 -9 5.6 -18.4
	c1.6 6 -1.3 11.6 -5.6 12.8
"/>
<use x="212.63" y="97.01" xlink:href="#hd"/>
<path d="M216.13 97.01v-20.00" stroke="currentColor" fill="none"/>
<use x="248.53" y="94.01" xlink:href="#hd"/>
<path d="M252.03 94.01v-20.00" stroke="currentColor" fill="none"/>
<path fill="currentColor"
	d="	M252.03 74.01c0.6 5.6 9.6 9 5.6 18.4
	c1.6 -6 -1.3 -11.6 -5.6 -12.8
"/>
<defs>
<path id="r8e" fill="currentColor" d="m 0 0
	c-1.5 1.5 -2.4 2 -3.6 2
	c2.4 -2.8 -2.8 -4 -2.8 -1.2
	c0 2.7 4.3 2.4 5.9 0.6"/>
<g id="r32">
	<path d="m4.8 -10l-5.5 21.6" stroke="currentColor" fill="none"/>
	<use x="4.9" y="-10" xlink:href="#r8e"/>
	<use x="3.4" y="-4" xlink:href="#r8e"/>
	<use x="1.9" y="2" xlink:href="#r8e"/>
</g>
</defs>
<use x="281.93" y="94.01" xlink:href="#r32"/>
<path fill="currentColor"
	d="M296.63 74.81l19.30 2.40v3.20l-19.30 -2.40"/>
<path fill="currentColor"
	d="M296.93 79.81l18.60 2.30v3.20l-18.60 -2.30"/>
<use x="293.43" y="97.01" xlink:href="#hd"/>
<circle fill="currentColor" cx="301.43" cy="97.01" r="1.2"/>
<path d="M296.93 97.01v-21.20" stroke="currentColor" fill="none"/>
<use x="312.03" y="100.01" xlink:href="#hd"/>
<path d="M315.53 100.01v-21.90" stroke="currentColor" fill="none"/>
<path fill="currentColor"
	d="M333.23 80.81l16.90 -2.30v3.20l-16.90 2.30"/>
<path fill="currentColor"
	d="M339.53 85.01l-6.00 0.80v3.20l6.00 -0.80"/>
<use x="330.03" y="103.01" xlink:href="#hd"/>
<path d="M333.53 103.01v-21.20" stroke="currentColor" fill="none"/>
<use x="346.33" y="100.01" xlink:href="#hd"/>
<path d="M349.83 100.01v-20.40" stroke="currentColor" fill="none"/>
<path fill="currentColor"
	d="M382.73 77.61l46.50 -5.60v3.20l-46.50 5.60"/>
<use x="379.53" y="109.01" xlink:href="#hd"/>
<path d="M383.03 109.01v-30.50" stroke="currentColor" fill="none"/>
<use x="402.43" y="94.01" xlink:href="#hd"/>
<path d="M405.93 94.01v-18.20" stroke="currentColor" fill="none"/>
<use x="425.43" y="97.01" xlink:href="#hd"/>
<path d="M428.93 97.01v-23.90" stroke="currentColor" fill="none"/>
<path fill="currentColor"
	d="M461.83 75.11l46.50 -6.60v3.20l-46.50 6.60"/>
<use x="458.63" y="109.01" xlink:href="#hd"/>
<path d="M462.13 109.01v-33.00" stroke="currentColor" fill="none"/>
<use x="481.53" y="91.01" xlink:href="#hd"/>
<path d="M485.03 91.01v-18.20" stroke="currentColor" fill="none"/>
<use x="504.43" y="94.01" xlink:href="#hd"/>
<path d="M507.93 94.01v-24.40" stroke="currentColor" fill="none"/>
<path fill="currentColor"
	d="M540.93 67.71l23.60 -8.00v3.20l-23.60 8.00"/>
<path fill="currentColor"
	d="M558.13 66.81l6.00 -2.00v3.20l-6.00 2.00"/>
<use x="537.73" y="106.01" xlink:href="#hd"/>
<path d="M541.23 106.01v-37.40" stroke="currentColor" fill="none"/>
<use x="560.63" y="82.01" xlink:href="#hd"/>
<path d="M564.13 82.01v-21.20" stroke="currentColor" fill="none"/>
<path fill="currentColor"
	d="M574.83 108.81l33.20 4.50v-3.20l-33.20 -4.50"/>
<path fill="currentColor"
	d="M575.23 103.81l32.50 4.40v-3.20l-32.50 -4.40"/>
<use x="578.73" y="85.01" xlink:href="#hd"/>
<path d="M575.23 85.01v22.80" stroke="currentColor" fill="none"/>
<use x="594.93" y="88.01" xlink:href="#hd"/>
<path d="M591.43 88.01v22.00" stroke="currentColor" fill="none"/>
<use x="611.23" y="91.01" xlink:href="#hd"/>
<path d="M607.73 91.01v21.20" stroke="currentColor" fill="none"/>
<use x="638.53" y="94.01" xlink:href="#hd"/>
<path d="M642.03 94.01v-20.00" stroke="currentColor" fill="none"/>
<use x="674.43" y="97.01" xlink:href="#hd"/>
<path d="M677.93 97.01v-20.00" stroke="currentColor" fill="none"/>
<path fill="currentColor"
	d="	M677.93 77.01c0.6 5.6 9.6 9 5.6 18.4
	c1.6 -6 -1.3 -11.6 -5.6 -12.8
"/>
</g>
</svg>
