<?xml version="1.0" standalone="no"?>
<!DOCTYPE svg PUBLIC "-//W3C//DTD SVG 1.1//EN"
	"http://www.w3.org/Graphics/SVG/1.1/DTD/svg11.dtd">
<svg xmlns="http://www.w3.org/2000/svg" version="1.1"
	xmlns:xlink="http://www.w3.org/1999/xlink"
	xml:space='preserve' color="black"
	width="7.38in" height="1.47in" viewBox="0 0 531 106">
<title>4562.abc (4562) tune 1</title>
<!-- Creator: abcm2ps-7.8.14 -->
<!-- CreationDate: Mar 13, 2016 18:54 -->
<!-- CommandLine: -qxg 4562.abc -O ../svgs/4562.svg -->
<g transform="scale(0.750)" stroke-width="0.70" font-family="Times" font-size="20.00">
<text x="354.13" y="21.67" text-anchor="middle">4562.  Symphony No. 36, in C, K 425, &quot;Linz&quot;, 1st. Mvt. - Intro</text>
</g>
<g transform="scale(0.750)" stroke-width="0.70" font-family="Times" font-size="14.00" font-style="italic">
<text x="694.93" y="45.34" text-anchor="end">Wolfgang Amadeus Mozart</text>
</g>
<g transform="scale(0.525)" stroke-width="0.70" font-family="Times" font-size="14.00" font-style="italic">
<defs>
<ellipse id="hd" rx="4.1" ry="2.9"
	transform="rotate(-20)" fill="currentColor"/>
</defs>
<use x="89.19" y="94.16" xlink:href="#hd"/>
<path d="M92.69 94.16v-20.00" stroke="currentColor" fill="none"/>
</g>
<g transform="scale(0.750)" stroke-width="0.70" font-family="Times" font-size="15.00" font-weight="bold">
<text x="70.13" y="68.01">= 120</text>
<path stroke="currentColor" fill="none"
	d="M232.43 113.01v-24.00"/>
<path stroke="currentColor" fill="none"
	d="M401.33 113.01v-24.00"/>
<path stroke="currentColor" fill="none"
	d="M13.33 113.01h504.60m-504.60 -6h504.60m-504.60 -6h504.60m-504.60 -6h504.60m-504.60 -6h504.60"/>
<defs>
<path id="utclef" fill="currentColor" d="m-50 -90
	c-72 -41 -72 -158 52 -188
	c150 -10 220 188 90 256
	c-114 52 -275 0 -293 -136
	c-15 -181 93 -229 220 -334
	c88 -87 79 -133 62 -210
	c-51 33 -94 105 -89 186
	c17 267 36 374 49 574
	c6 96 -19 134 -77 135
	c-80 1 -126 -93 -61 -133
	c85 -41 133 101 31 105
	c23 17 92 37 90 -92
	c-10 -223 -39 -342 -50 -617
	c0 -90 0 -162 96 -232
	c56 72 63 230 22 289
	c-74 106 -257 168 -255 316
	c9 153 148 185 252 133
	c86 -65 29 -192 -80 -176
	c-71 12 -105 67 -59 124"/>
<use id="tclef" transform="scale(0.045)"
	xlink:href="#utclef"/>
</defs>
<use x="25.33" y="113.01" xlink:href="#tclef"/>
<g font-family="serif" font-size="16" font-weight="bold" font-style="normal"
	transform="translate(43.83,113.01) scale(1.2,1)">
	<text y="-1" text-anchor="middle">4</text>
	<text y="-13" text-anchor="middle">3</text>
</g>
<path fill="currentColor"
	d="M65.03 79.71l57.30 -4.90v3.20l-57.30 4.90"/>
<path fill="currentColor"
	d="M103.23 81.41l6.00 -0.50v3.20l-6.00 0.50"/>
<path fill="currentColor"
	d="M103.23 86.41l6.00 -0.50v3.20l-6.00 0.50"/>
<defs>
<path id="hl" stroke="currentColor" d="m-6 0h12"/>
</defs>
<use x="61.83" y="119.01" xlink:href="#hl"/>
<use x="61.83" y="119.01" xlink:href="#hd"/>
<path d="M65.33 119.01v-38.30" stroke="currentColor" fill="none"/>
<defs>
<path id="r8e" fill="currentColor" d="m 0 0
	c-1.5 1.5 -2.4 2 -3.6 2
	c2.4 -2.8 -2.8 -4 -2.8 -1.2
	c0 2.7 4.3 2.4 5.9 0.6"/>
<g id="r16">
	<path d="m3.3 -4l-4 15.6" stroke="currentColor" fill="none"/>
	<use x="3.4" y="-4" xlink:href="#r8e"/>
	<use x="1.9" y="2" xlink:href="#r8e"/>
</g>
</defs>
<use x="87.33" y="101.01" xlink:href="#r16"/>
<circle fill="currentColor" cx="95.33" cy="98.01" r="1.2"/>
<use x="105.73" y="119.01" xlink:href="#hl"/>
<use x="105.73" y="119.01" xlink:href="#hd"/>
<path d="M109.23 119.01v-42.10" stroke="currentColor" fill="none"/>
<use x="118.43" y="113.01" xlink:href="#hd"/>
<path d="M121.93 113.01v-37.10" stroke="currentColor" fill="none"/>
<use x="143.93" y="101.01" xlink:href="#r16"/>
<circle fill="currentColor" cx="151.93" cy="98.01" r="1.2"/>
<path fill="currentColor"
	d="M167.63 80.31l57.30 -4.20v3.20l-57.30 4.20"/>
<path fill="currentColor"
	d="M173.93 84.91l-6.00 0.40v3.20l6.00 -0.40"/>
<path fill="currentColor"
	d="M218.63 81.61l6.00 -0.40v3.20l-6.00 0.40"/>
<path fill="currentColor"
	d="M173.93 89.91l-6.00 0.40v3.20l6.00 -0.40"/>
<path fill="currentColor"
	d="M218.63 86.61l6.00 -0.40v3.20l-6.00 0.40"/>
<use x="164.43" y="113.01" xlink:href="#hd"/>
<path d="M167.93 113.01v-31.70" stroke="currentColor" fill="none"/>
<use x="177.13" y="104.01" xlink:href="#hd"/>
<path d="M180.63 104.01v-23.60" stroke="currentColor" fill="none"/>
<use x="202.63" y="101.01" xlink:href="#r16"/>
<circle fill="currentColor" cx="210.63" cy="98.01" r="1.2"/>
<use x="221.13" y="104.01" xlink:href="#hd"/>
<path d="M224.63 104.01v-26.80" stroke="currentColor" fill="none"/>
<path fill="currentColor"
	d="M242.73 137.31l46.60 -15.10v-3.20l-46.60 15.10"/>
<path fill="currentColor"
	d="M283.03 119.31l6.00 -1.90v-3.20l-6.00 1.90"/>
<path fill="currentColor"
	d="M283.03 114.31l6.00 -1.90v-3.20l-6.00 1.90"/>
<use x="246.53" y="119.01" xlink:href="#hl"/>
<use x="246.53" y="122.01" xlink:href="#hd"/>
<path d="M243.03 122.01v14.20" stroke="currentColor" fill="none"/>
<use x="272.03" y="101.01" xlink:href="#r16"/>
<circle fill="currentColor" cx="280.03" cy="98.01" r="1.2"/>
<use x="292.53" y="83.01" xlink:href="#hl"/>
<use x="292.53" y="77.01" xlink:href="#hl"/>
<use x="292.53" y="74.01" xlink:href="#hd"/>
<path d="M289.03 74.01v47.30" stroke="currentColor" fill="none"/>
<use x="306.63" y="83.01" xlink:href="#hl"/>
<use x="306.63" y="77.01" xlink:href="#hl"/>
<use x="306.63" y="74.01" xlink:href="#hd"/>
<path d="M303.13 74.01v27.00" stroke="currentColor" fill="none"/>
<defs>
<g id="r8">
	<path d="m3.3 -4l-3.4 9.6" stroke="currentColor" fill="none"/>
	<use x="3.4" y="-4" xlink:href="#r8e"/>
</g>
</defs>
<use x="342.63" y="101.01" xlink:href="#r8"/>
<circle fill="currentColor" cx="350.63" cy="98.01" r="1.2"/>
<defs>
<g id="r32">
	<path d="m4.8 -10l-5.5 21.6" stroke="currentColor" fill="none"/>
	<use x="4.9" y="-10" xlink:href="#r8e"/>
	<use x="3.4" y="-4" xlink:href="#r8e"/>
	<use x="1.9" y="2" xlink:href="#r8e"/>
</g>
</defs>
<use x="371.63" y="101.01" xlink:href="#r32"/>
<use x="384.33" y="119.01" xlink:href="#hl"/>
<use x="384.33" y="122.01" xlink:href="#hd"/>
<path d="M387.83 122.01v-24.00" stroke="currentColor" fill="none"/>
<path fill="currentColor"
	d="M387.83 98.01c0.9 3.7 9.1 6.4 6 12.4
	c1 -5.4 -4.2 -8.4 -6 -8.4
M387.83 103.41c0.9 3.7 9.1 6.4 6 12.4
	c1 -5.4 -4.2 -8.4 -6 -8.4
M387.83 108.81c0.9 3.7 9.1 6.4 6 12.4
	c1 -5.4 -4.2 -8.4 -6 -8.4
"/>
<path fill="currentColor"
	d="M423.03 70.61l44.60 -14.90v3.20l-44.60 14.90"/>
<path fill="currentColor"
	d="M461.33 62.81l6.00 -2.00v3.20l-6.00 2.00"/>
<path fill="currentColor"
	d="M461.33 67.81l6.00 -2.00v3.20l-6.00 2.00"/>
<use x="419.83" y="119.01" xlink:href="#hl"/>
<use x="419.83" y="125.01" xlink:href="#hl"/>
<use x="419.83" y="125.01" xlink:href="#hd"/>
<defs>
<path id="usharp" fill="currentColor" d="
	m136 -702
	v890
	h32
	v-890
	m128 840
	h32
	v-888
	h-32
	m-232 286
	v116
	l338 -96
	v-116
	m-338 442
	v116
	l338 -98
	v-114"/>
<use id="sh0" transform="translate(-4,5) scale(0.018)"
	xlink:href="#usharp"/>
</defs>
<use x="410.83" y="125.01" xlink:href="#sh0"/>
<path d="M423.33 125.01v-53.60" stroke="currentColor" fill="none"/>
<use x="445.33" y="101.01" xlink:href="#r16"/>
<circle fill="currentColor" cx="453.33" cy="98.01" r="1.2"/>
<use x="463.83" y="83.01" xlink:href="#hl"/>
<use x="463.83" y="77.01" xlink:href="#hl"/>
<use x="463.83" y="77.01" xlink:href="#hd"/>
<path d="M467.33 77.01v-20.20" stroke="currentColor" fill="none"/>
<use x="477.93" y="83.01" xlink:href="#hl"/>
<use x="477.93" y="77.01" xlink:href="#hl"/>
<use x="477.93" y="77.01" xlink:href="#hd"/>
<path d="M474.43 77.01v24.00" stroke="currentColor" fill="none"/>
</g>
</svg>
