<?xml version="1.0" standalone="no"?>
<!DOCTYPE svg PUBLIC "-//W3C//DTD SVG 1.1//EN"
	"http://www.w3.org/Graphics/SVG/1.1/DTD/svg11.dtd">
<svg xmlns="http://www.w3.org/2000/svg" version="1.1"
	xmlns:xlink="http://www.w3.org/1999/xlink"
	xml:space='preserve' color="black"
	width="7.38in" height="1.41in" viewBox="0 0 531 101">
<title>4569.abc (4569) tune 1</title>
<!-- Creator: abcm2ps-7.8.14 -->
<!-- CreationDate: Mar 13, 2016 18:54 -->
<!-- CommandLine: -qxg 4569.abc -O ../svgs/4569.svg -->
<g transform="scale(0.750)" stroke-width="0.70" font-family="Times" font-size="20.00">
<text x="354.13" y="21.67" text-anchor="middle">4569.  Symphony No. 36, in C, K 425, 3rd. Mvt. - 2nd. Theme</text>
</g>
<g transform="scale(0.750)" stroke-width="0.70" font-family="Times" font-size="14.00" font-style="italic">
<text x="694.93" y="45.34" text-anchor="end">Wolfgang Amadeus Mozart</text>
</g>
<g transform="scale(0.525)" stroke-width="0.70" font-family="Times" font-size="14.00" font-style="italic">
<defs>
<ellipse id="hd" rx="4.1" ry="2.9"
	transform="rotate(-20)" fill="currentColor"/>
</defs>
<use x="89.19" y="94.16" xlink:href="#hd"/>
<path d="M92.69 94.16v-20.00" stroke="currentColor" fill="none"/>
</g>
<g transform="scale(0.750)" stroke-width="0.70" font-family="Times" font-size="15.00" font-weight="bold">
<text x="70.13" y="68.01">= 120</text>
<path stroke="currentColor" fill="none"
	d="M173.33 112.01v-24.00"/>
<path stroke="currentColor" fill="none"
	d="M274.93 112.01v-24.00"/>
<path stroke="currentColor" fill="none"
	d="M399.33 112.01v-24.00"/>
<path stroke="currentColor" fill="none"
	d="M500.93 112.01v-24.00"/>
<path stroke="currentColor" fill="none"
	d="M625.33 112.01v-24.00"/>
<path stroke="currentColor" fill="none"
	d="M13.33 112.01h681.60m-681.60 -6h681.60m-681.60 -6h681.60m-681.60 -6h681.60m-681.60 -6h681.60"/>
<defs>
<path id="utclef" fill="currentColor" d="m-50 -90
	c-72 -41 -72 -158 52 -188
	c150 -10 220 188 90 256
	c-114 52 -275 0 -293 -136
	c-15 -181 93 -229 220 -334
	c88 -87 79 -133 62 -210
	c-51 33 -94 105 -89 186
	c17 267 36 374 49 574
	c6 96 -19 134 -77 135
	c-80 1 -126 -93 -61 -133
	c85 -41 133 101 31 105
	c23 17 92 37 90 -92
	c-10 -223 -39 -342 -50 -617
	c0 -90 0 -162 96 -232
	c56 72 63 230 22 289
	c-74 106 -257 168 -255 316
	c9 153 148 185 252 133
	c86 -65 29 -192 -80 -176
	c-71 12 -105 67 -59 124"/>
<use id="tclef" transform="scale(0.045)"
	xlink:href="#utclef"/>
</defs>
<use x="25.33" y="112.01" xlink:href="#tclef"/>
<g font-family="serif" font-size="16" font-weight="bold" font-style="normal"
	transform="translate(43.83,112.01) scale(1.2,1)">
	<text y="-1" text-anchor="middle">4</text>
	<text y="-13" text-anchor="middle">3</text>
</g>
<path fill="currentColor"
	d="M65.03 79.31l37.80 -3.10v3.20l-37.80 3.10"/>
<use x="61.83" y="106.01" xlink:href="#hd"/>
<path d="M65.33 106.01v-25.70" stroke="currentColor" fill="none"/>
<use x="80.43" y="97.01" xlink:href="#hd"/>
<path d="M83.93 97.01v-18.20" stroke="currentColor" fill="none"/>
<use x="98.93" y="100.01" xlink:href="#hd"/>
<path d="M102.43 100.01v-22.70" stroke="currentColor" fill="none"/>
<path fill="currentColor"
	d="M115.83 115.01l37.80 0.00v-3.20l-37.80 -0.00"/>
<use x="119.63" y="97.01" xlink:href="#hd"/>
<path d="M116.13 97.01v17.00" stroke="currentColor" fill="none"/>
<use x="138.23" y="94.01" xlink:href="#hd"/>
<path d="M134.73 94.01v20.00" stroke="currentColor" fill="none"/>
<use x="156.73" y="97.01" xlink:href="#hd"/>
<path d="M153.23 97.01v17.00" stroke="currentColor" fill="none"/>
<path fill="currentColor"
	d="M182.03 112.51l19.20 3.80v-3.20l-19.20 -3.80"/>
<use x="185.83" y="91.01" xlink:href="#hd"/>
<path d="M182.33 91.01v20.60" stroke="currentColor" fill="none"/>
<use x="204.43" y="97.01" xlink:href="#hd"/>
<path d="M200.93 97.01v18.20" stroke="currentColor" fill="none"/>
<use x="222.93" y="106.01" xlink:href="#hd"/>
<path d="M226.43 106.01v-20.00" stroke="currentColor" fill="none"/>
<defs>
<path id="r4" fill="currentColor" d="m-1 -8.5
	l3.6 5.1 -2.1 5.2 2.2 4.3
	c-2.6 -2.3 -5.1 0 -2.4 2.6
	c-4.8 -3 -1.5 -6.9 1.4 -4.1
	l-3.1 -4.5 1.9 -5.1 -1.5 -3.5"/>
</defs>
<use x="251.73" y="100.01" xlink:href="#r4"/>
<path fill="currentColor"
	d="M283.63 125.21l38.40 -4.20v-3.20l-38.40 4.20"/>
<use x="287.43" y="106.01" xlink:href="#hd"/>
<path d="M283.93 106.01v18.20" stroke="currentColor" fill="none"/>
<use x="305.93" y="94.01" xlink:href="#hd"/>
<path d="M302.43 94.01v28.10" stroke="currentColor" fill="none"/>
<use x="325.13" y="97.01" xlink:href="#hd"/>
<defs>
<path id="usharp" fill="currentColor" d="
	m136 -702
	v890
	h32
	v-890
	m128 840
	h32
	v-888
	h-32
	m-232 286
	v116
	l338 -96
	v-116
	m-338 442
	v116
	l338 -98
	v-114"/>
<use id="sh0" transform="translate(-4,5) scale(0.018)"
	xlink:href="#usharp"/>
</defs>
<use x="316.13" y="97.01" xlink:href="#sh0"/>
<path d="M321.63 97.01v23.00" stroke="currentColor" fill="none"/>
<path fill="currentColor"
	d="M341.83 112.21l37.80 0.00v-3.20l-37.80 -0.00"/>
<use x="345.63" y="94.01" xlink:href="#hd"/>
<path d="M342.13 94.01v17.20" stroke="currentColor" fill="none"/>
<use x="364.23" y="91.01" xlink:href="#hd"/>
<path d="M360.73 91.01v20.20" stroke="currentColor" fill="none"/>
<use x="382.73" y="94.01" xlink:href="#hd"/>
<path d="M379.23 94.01v17.20" stroke="currentColor" fill="none"/>
<path fill="currentColor"
	d="M408.03 109.51l19.20 3.80v-3.20l-19.20 -3.80"/>
<use x="411.83" y="88.01" xlink:href="#hd"/>
<path d="M408.33 88.01v20.60" stroke="currentColor" fill="none"/>
<use x="430.43" y="94.01" xlink:href="#hd"/>
<path d="M426.93 94.01v18.20" stroke="currentColor" fill="none"/>
<use x="448.93" y="106.01" xlink:href="#hd"/>
<path d="M452.43 106.01v-20.00" stroke="currentColor" fill="none"/>
<use x="477.73" y="100.01" xlink:href="#r4"/>
<path fill="currentColor"
	d="M509.63 125.31l37.80 -7.00v-3.20l-37.80 7.00"/>
<use x="513.43" y="106.01" xlink:href="#hd"/>
<path d="M509.93 106.01v18.20" stroke="currentColor" fill="none"/>
<use x="532.03" y="88.01" xlink:href="#hd"/>
<path d="M528.53 88.01v32.80" stroke="currentColor" fill="none"/>
<use x="550.53" y="88.01" xlink:href="#hd"/>
<path d="M547.03 88.01v29.40" stroke="currentColor" fill="none"/>
<path fill="currentColor"
	d="M567.23 111.71l38.40 4.60v-3.20l-38.40 -4.60"/>
<use x="571.13" y="91.01" xlink:href="#hd"/>
<path d="M567.63 91.01v19.70" stroke="currentColor" fill="none"/>
<use x="589.63" y="94.01" xlink:href="#hd"/>
<path d="M586.13 94.01v19.00" stroke="currentColor" fill="none"/>
<use x="608.83" y="97.01" xlink:href="#hd"/>
<defs>
<path id="unat" fill="currentColor" d="
	m96 -750
	h-32
	v716
	l32 -8
	l182 -54
	v282
	h32
	v-706
	l-34 10
	l-180 50
	v-290
	m0 592
	v-190
	l182 -52
	v188"/>
<use id="nt0" transform="translate(-3,5) scale(0.018)"
	xlink:href="#unat"/>
</defs>
<use x="599.83" y="97.01" xlink:href="#nt0"/>
<path d="M605.33 97.01v18.30" stroke="currentColor" fill="none"/>
<path fill="currentColor"
	d="M634.03 106.21l37.80 0.00v-3.20l-37.80 -0.00"/>
<use x="637.83" y="88.01" xlink:href="#hd"/>
<path d="M634.33 88.01v17.20" stroke="currentColor" fill="none"/>
<defs>
<path id="hl" stroke="currentColor" d="m-6 0h12"/>
</defs>
<use x="656.43" y="82.01" xlink:href="#hl"/>
<use x="656.43" y="82.01" xlink:href="#hd"/>
<path d="M652.93 82.01v23.20" stroke="currentColor" fill="none"/>
<use x="674.93" y="85.01" xlink:href="#hd"/>
<path d="M671.43 85.01v20.20" stroke="currentColor" fill="none"/>
</g>
</svg>
