<?xml version="1.0" standalone="no"?>
<!DOCTYPE svg PUBLIC "-//W3C//DTD SVG 1.1//EN"
	"http://www.w3.org/Graphics/SVG/1.1/DTD/svg11.dtd">
<svg xmlns="http://www.w3.org/2000/svg" version="1.1"
	xmlns:xlink="http://www.w3.org/1999/xlink"
	xml:space='preserve' color="black"
	width="7.38in" height="1.34in" viewBox="0 0 531 97">
<title>4605.abc (4605) tune 1</title>
<!-- Creator: abcm2ps-7.8.14 -->
<!-- CreationDate: Mar 13, 2016 18:54 -->
<!-- CommandLine: -qxg 4605.abc -O ../svgs/4605.svg -->
<g transform="scale(0.750)" stroke-width="0.70" font-family="Times" font-size="20.00">
<text x="354.13" y="21.67" text-anchor="middle">4605.  Symphony No. 40, in G Minor, K 550, 4th. Mvt. - 1st. Theme</text>
</g>
<g transform="scale(0.750)" stroke-width="0.70" font-family="Times" font-size="14.00" font-style="italic">
<text x="694.93" y="45.34" text-anchor="end">Wolfgang Amadeus Mozart</text>
</g>
<g transform="scale(0.525)" stroke-width="0.70" font-family="Times" font-size="14.00" font-style="italic">
<defs>
<ellipse id="hd" rx="4.1" ry="2.9"
	transform="rotate(-20)" fill="currentColor"/>
</defs>
<use x="114.90" y="94.16" xlink:href="#hd"/>
<path d="M118.40 94.16v-20.00" stroke="currentColor" fill="none"/>
</g>
<g transform="scale(0.750)" stroke-width="0.70" font-family="Times" font-size="15.00" font-weight="bold">
<text x="88.13" y="68.01">= 120</text>
<path stroke="currentColor" fill="none"
	d="M219.13 106.01v-24.00"/>
<path stroke="currentColor" fill="none"
	d="M350.03 106.01v-24.00"/>
<path stroke="currentColor" fill="none"
	d="M572.53 106.01v-24.00"/>
<path stroke="currentColor" fill="none"
	d="M13.33 106.01h681.60m-681.60 -6h681.60m-681.60 -6h681.60m-681.60 -6h681.60m-681.60 -6h681.60"/>
<defs>
<path id="utclef" fill="currentColor" d="m-50 -90
	c-72 -41 -72 -158 52 -188
	c150 -10 220 188 90 256
	c-114 52 -275 0 -293 -136
	c-15 -181 93 -229 220 -334
	c88 -87 79 -133 62 -210
	c-51 33 -94 105 -89 186
	c17 267 36 374 49 574
	c6 96 -19 134 -77 135
	c-80 1 -126 -93 -61 -133
	c85 -41 133 101 31 105
	c23 17 92 37 90 -92
	c-10 -223 -39 -342 -50 -617
	c0 -90 0 -162 96 -232
	c56 72 63 230 22 289
	c-74 106 -257 168 -255 316
	c9 153 148 185 252 133
	c86 -65 29 -192 -80 -176
	c-71 12 -105 67 -59 124"/>
<use id="tclef" transform="scale(0.045)"
	xlink:href="#utclef"/>
</defs>
<use x="25.33" y="106.01" xlink:href="#tclef"/>
<defs>
<path id="uflat" fill="currentColor" d="
	m100 -746
	h32
	v734
	l-32 4
	m32 -332
	c46 -72 152 -90 208 -20
	c100 110 -120 326 -208 348
	m0 -28
	c54 0 200 -206 130 -290
	c-50 -60 -130 -4 -130 34"/>
<use id="ft0" transform="translate(-3.5,3.5) scale(0.018)"
	xlink:href="#uflat"/>
</defs>
<use x="40.33" y="94.01" xlink:href="#ft0"/>
<use x="45.83" y="85.01" xlink:href="#ft0"/>
<g font-family="serif" font-size="16" font-weight="bold" font-style="normal"
	transform="translate(61.83,106.01) scale(1.2,1)">
	<text y="-1" text-anchor="middle">2</text>
	<text y="-13" text-anchor="middle">2</text>
</g>
<use x="79.83" y="109.01" xlink:href="#hd"/>
<path d="M83.33 109.01v-20.00" stroke="currentColor" fill="none"/>
<use x="116.43" y="100.01" xlink:href="#hd"/>
<path d="M119.93 100.01v-20.00" stroke="currentColor" fill="none"/>
<use x="153.13" y="94.01" xlink:href="#hd"/>
<path d="M156.63 94.01v-20.00" stroke="currentColor" fill="none"/>
<use x="189.73" y="88.01" xlink:href="#hd"/>
<path d="M186.23 88.01v20.00" stroke="currentColor" fill="none"/>
<use x="232.23" y="79.01" xlink:href="#hd"/>
<path d="M228.73 79.01v20.00" stroke="currentColor" fill="none"/>
<defs>
<path id="hl" stroke="currentColor" d="m-6 0h12"/>
</defs>
<use x="268.93" y="76.01" xlink:href="#hl"/>
<defs>
<path id="Hd" fill="currentColor" d="m3 -1.6
	c-1 -1.8 -7 1.4 -6 3.2
	c1 1.8 7 -1.4 6 -3.2
	m0.5 -0.3
	c2 3.8 -5 7.6 -7 3.8
	c-2 -3.8 5 -7.6 7 -3.8"/>
</defs>
<use x="268.93" y="73.01" xlink:href="#Hd"/>
<path d="M265.43 73.01v21.00" stroke="currentColor" fill="none"/>
<use x="320.73" y="76.01" xlink:href="#hl"/>
<use x="320.73" y="76.01" xlink:href="#hd"/>
<path d="M317.23 76.01v20.00" stroke="currentColor" fill="none"/>
<use x="368.53" y="88.01" xlink:href="#hd"/>
<use x="359.53" y="88.01" xlink:href="#ft0"/>
<path d="M365.03 88.01v20.00" stroke="currentColor" fill="none"/>
<path fill="currentColor"
	d="M365.03 108.01c0.6 -5.6 9.6 -9 5.6 -18.4
	c1.6 6 -1.3 11.6 -5.6 12.8
"/>
<use x="394.73" y="85.01" xlink:href="#hd"/>
<defs>
<path id="unat" fill="currentColor" d="
	m96 -750
	h-32
	v716
	l32 -8
	l182 -54
	v282
	h32
	v-706
	l-34 10
	l-180 50
	v-290
	m0 592
	v-190
	l182 -52
	v188"/>
<use id="nt0" transform="translate(-3,5) scale(0.018)"
	xlink:href="#unat"/>
</defs>
<use x="385.73" y="85.01" xlink:href="#nt0"/>
<path d="M391.23 85.01v20.00" stroke="currentColor" fill="none"/>
<path fill="currentColor"
	d="M391.23 105.01c0.6 -5.6 9.6 -9 5.6 -18.4
	c1.6 6 -1.3 11.6 -5.6 12.8
"/>
<use x="420.83" y="88.01" xlink:href="#hd"/>
<use x="411.83" y="88.01" xlink:href="#nt0"/>
<path d="M417.33 88.01v20.00" stroke="currentColor" fill="none"/>
<path fill="currentColor"
	d="M417.33 108.01c0.6 -5.6 9.6 -9 5.6 -18.4
	c1.6 6 -1.3 11.6 -5.6 12.8
"/>
<use x="447.03" y="79.01" xlink:href="#hd"/>
<use x="438.03" y="79.01" xlink:href="#ft0"/>
<path d="M443.53 79.01v20.00" stroke="currentColor" fill="none"/>
<path fill="currentColor"
	d="M443.53 99.01c0.6 -5.6 9.6 -9 5.6 -18.4
	c1.6 6 -1.3 11.6 -5.6 12.8
"/>
<use x="473.23" y="85.01" xlink:href="#hd"/>
<use x="464.23" y="85.01" xlink:href="#nt0"/>
<path d="M469.73 85.01v20.00" stroke="currentColor" fill="none"/>
<path fill="currentColor"
	d="M469.73 105.01c0.6 -5.6 9.6 -9 5.6 -18.4
	c1.6 6 -1.3 11.6 -5.6 12.8
"/>
<use x="499.33" y="88.01" xlink:href="#hd"/>
<use x="490.33" y="88.01" xlink:href="#ft0"/>
<path d="M495.83 88.01v20.00" stroke="currentColor" fill="none"/>
<path fill="currentColor"
	d="M495.83 108.01c0.6 -5.6 9.6 -9 5.6 -18.4
	c1.6 6 -1.3 11.6 -5.6 12.8
"/>
<use x="525.53" y="88.01" xlink:href="#hd"/>
<use x="516.53" y="88.01" xlink:href="#nt0"/>
<path d="M522.03 88.01v20.00" stroke="currentColor" fill="none"/>
<path fill="currentColor"
	d="M522.03 108.01c0.6 -5.6 9.6 -9 5.6 -18.4
	c1.6 6 -1.3 11.6 -5.6 12.8
"/>
<use x="551.73" y="79.01" xlink:href="#hd"/>
<use x="542.73" y="79.01" xlink:href="#ft0"/>
<path d="M548.23 79.01v20.00" stroke="currentColor" fill="none"/>
<path fill="currentColor"
	d="M548.23 99.01c0.6 -5.6 9.6 -9 5.6 -18.4
	c1.6 6 -1.3 11.6 -5.6 12.8
"/>
<use x="591.03" y="85.01" xlink:href="#hd"/>
<use x="582.03" y="85.01" xlink:href="#nt0"/>
<path d="M587.53 85.01v20.00" stroke="currentColor" fill="none"/>
<path fill="currentColor"
	d="M587.53 105.01c0.6 -5.6 9.6 -9 5.6 -18.4
	c1.6 6 -1.3 11.6 -5.6 12.8
"/>
<use x="617.23" y="88.01" xlink:href="#hd"/>
<use x="608.23" y="88.01" xlink:href="#ft0"/>
<path d="M613.73 88.01v20.00" stroke="currentColor" fill="none"/>
<path fill="currentColor"
	d="M613.73 108.01c0.6 -5.6 9.6 -9 5.6 -18.4
	c1.6 6 -1.3 11.6 -5.6 12.8
"/>
<use x="643.33" y="76.01" xlink:href="#hl"/>
<use x="643.33" y="70.01" xlink:href="#hl"/>
<use x="643.33" y="67.01" xlink:href="#Hd"/>
<use x="633.33" y="67.01" xlink:href="#nt0"/>
<path d="M639.83 67.01v27.00" stroke="currentColor" fill="none"/>
</g>
</svg>
