<?xml version="1.0" standalone="no"?>
<!DOCTYPE svg PUBLIC "-//W3C//DTD SVG 1.1//EN"
	"http://www.w3.org/Graphics/SVG/1.1/DTD/svg11.dtd">
<svg xmlns="http://www.w3.org/2000/svg" version="1.1"
	xmlns:xlink="http://www.w3.org/1999/xlink"
	xml:space='preserve' color="black"
	width="7.38in" height="1.34in" viewBox="0 0 531 97">
<title>4628.abc (4628) tune 1</title>
<!-- Creator: abcm2ps-7.8.14 -->
<!-- CreationDate: Mar 13, 2016 18:54 -->
<!-- CommandLine: -qxg 4628.abc -O ../svgs/4628.svg -->
<g transform="scale(0.750)" stroke-width="0.70" font-family="Times" font-size="20.00">
<text x="354.13" y="21.67" text-anchor="middle">4628.  Trio in C, K 548, 1st. Mvt.</text>
</g>
<g transform="scale(0.750)" stroke-width="0.70" font-family="Times" font-size="14.00" font-style="italic">
<text x="694.93" y="45.34" text-anchor="end">Wolfgang Amadeus Mozart</text>
</g>
<g transform="scale(0.525)" stroke-width="0.70" font-family="Times" font-size="14.00" font-style="italic">
<defs>
<ellipse id="hd" rx="4.1" ry="2.9"
	transform="rotate(-20)" fill="currentColor"/>
</defs>
<use x="89.90" y="94.16" xlink:href="#hd"/>
<path d="M93.40 94.16v-20.00" stroke="currentColor" fill="none"/>
</g>
<g transform="scale(0.750)" stroke-width="0.70" font-family="Times" font-size="15.00" font-weight="bold">
<text x="70.63" y="68.01">= 120</text>
<path stroke="currentColor" fill="none"
	d="M136.73 106.01v-24.00"/>
<path stroke="currentColor" fill="none"
	d="M223.83 106.01v-24.00"/>
<path stroke="currentColor" fill="none"
	d="M365.43 106.01v-24.00"/>
<path stroke="currentColor" fill="none"
	d="M472.83 106.01v-24.00"/>
<path stroke="currentColor" fill="none"
	d="M626.23 106.01v-24.00"/>
<path stroke="currentColor" fill="none"
	d="M13.33 106.01h681.60m-681.60 -6h681.60m-681.60 -6h681.60m-681.60 -6h681.60m-681.60 -6h681.60"/>
<defs>
<path id="utclef" fill="currentColor" d="m-50 -90
	c-72 -41 -72 -158 52 -188
	c150 -10 220 188 90 256
	c-114 52 -275 0 -293 -136
	c-15 -181 93 -229 220 -334
	c88 -87 79 -133 62 -210
	c-51 33 -94 105 -89 186
	c17 267 36 374 49 574
	c6 96 -19 134 -77 135
	c-80 1 -126 -93 -61 -133
	c85 -41 133 101 31 105
	c23 17 92 37 90 -92
	c-10 -223 -39 -342 -50 -617
	c0 -90 0 -162 96 -232
	c56 72 63 230 22 289
	c-74 106 -257 168 -255 316
	c9 153 148 185 252 133
	c86 -65 29 -192 -80 -176
	c-71 12 -105 67 -59 124"/>
<use id="tclef" transform="scale(0.045)"
	xlink:href="#utclef"/>
</defs>
<use x="25.33" y="106.01" xlink:href="#tclef"/>
<g font-family="serif" font-size="16" font-weight="bold" font-style="normal"
	transform="translate(43.83,106.01) scale(1.2,1)">
	<text y="-1" text-anchor="middle">4</text>
	<text y="-13" text-anchor="middle">4</text>
</g>
<defs>
<path id="hl" stroke="currentColor" d="m-6 0h12"/>
</defs>
<use x="62.33" y="112.01" xlink:href="#hl"/>
<defs>
<path id="Hd" fill="currentColor" d="m3 -1.6
	c-1 -1.8 -7 1.4 -6 3.2
	c1 1.8 7 -1.4 6 -3.2
	m0.5 -0.3
	c2 3.8 -5 7.6 -7 3.8
	c-2 -3.8 5 -7.6 7 -3.8"/>
</defs>
<use x="62.33" y="112.01" xlink:href="#Hd"/>
<circle fill="currentColor" cx="72.33" cy="109.01" r="1.2"/>
<path d="M65.83 112.01v-20.00" stroke="currentColor" fill="none"/>
<path fill="currentColor"
	d="M108.53 92.21l20.90 -2.40v3.20l-20.90 2.40"/>
<path fill="currentColor"
	d="M123.13 95.51l6.00 -0.70v3.20l-6.00 0.70"/>
<use x="105.33" y="112.01" xlink:href="#hl"/>
<use x="105.33" y="118.01" xlink:href="#hl"/>
<use x="105.33" y="121.01" xlink:href="#hd"/>
<circle fill="currentColor" cx="113.33" cy="121.01" r="1.2"/>
<path d="M108.83 121.01v-27.90" stroke="currentColor" fill="none"/>
<use x="125.63" y="112.01" xlink:href="#hl"/>
<use x="125.63" y="112.01" xlink:href="#hd"/>
<path d="M129.13 112.01v-21.20" stroke="currentColor" fill="none"/>
<use x="149.73" y="106.01" xlink:href="#Hd"/>
<circle fill="currentColor" cx="158.73" cy="103.01" r="1.2"/>
<path d="M153.23 106.01v-20.00" stroke="currentColor" fill="none"/>
<path fill="currentColor"
	d="M195.73 87.61l20.80 -3.90v3.20l-20.80 3.90"/>
<path fill="currentColor"
	d="M210.23 89.91l6.00 -1.10v3.20l-6.00 1.10"/>
<use x="192.63" y="112.01" xlink:href="#hl"/>
<use x="192.63" y="112.01" xlink:href="#hd"/>
<circle fill="currentColor" cx="200.63" cy="109.01" r="1.2"/>
<path d="M196.13 112.01v-23.40" stroke="currentColor" fill="none"/>
<use x="212.73" y="106.01" xlink:href="#hd"/>
<path d="M216.23 106.01v-21.20" stroke="currentColor" fill="none"/>
<use x="236.33" y="100.01" xlink:href="#hd"/>
<path d="M239.83 100.01v-20.00" stroke="currentColor" fill="none"/>
<path fill="currentColor"
	d="M265.93 81.61l20.80 -3.90v3.20l-20.80 3.90"/>
<path fill="currentColor"
	d="M280.43 83.91l6.00 -1.10v3.20l-6.00 1.10"/>
<use x="262.83" y="106.01" xlink:href="#hd"/>
<circle fill="currentColor" cx="270.83" cy="103.01" r="1.2"/>
<path d="M266.33 106.01v-23.40" stroke="currentColor" fill="none"/>
<use x="282.93" y="100.01" xlink:href="#hd"/>
<path d="M286.43 100.01v-21.20" stroke="currentColor" fill="none"/>
<use x="296.73" y="91.01" xlink:href="#hd"/>
<path d="M293.23 91.01v20.00" stroke="currentColor" fill="none"/>
<path fill="currentColor"
	d="M293.23 111.01c0.6 -5.6 9.6 -9 5.6 -18.4
	c1.6 6 -1.3 11.6 -5.6 12.8
"/>
<defs>
<path id="r8e" fill="currentColor" d="m 0 0
	c-1.5 1.5 -2.4 2 -3.6 2
	c2.4 -2.8 -2.8 -4 -2.8 -1.2
	c0 2.7 4.3 2.4 5.9 0.6"/>
<g id="r8">
	<path d="m3.3 -4l-3.4 9.6" stroke="currentColor" fill="none"/>
	<use x="3.4" y="-4" xlink:href="#r8e"/>
</g>
</defs>
<use x="313.93" y="94.01" xlink:href="#r8"/>
<use x="332.93" y="85.01" xlink:href="#hd"/>
<path d="M329.43 85.01v20.00" stroke="currentColor" fill="none"/>
<path fill="currentColor"
	d="M329.43 105.01c0.6 -5.6 9.6 -9 5.6 -18.4
	c1.6 6 -1.3 11.6 -5.6 12.8
"/>
<use x="350.03" y="94.01" xlink:href="#r8"/>
<use x="377.93" y="100.01" xlink:href="#hd"/>
<path d="M381.43 100.01v-20.00" stroke="currentColor" fill="none"/>
<defs>
<rect id="r2" fill="currentColor"
	x="-3.5" y="-3" width="7" height="3"/>
</defs>
<use x="404.43" y="94.01" xlink:href="#r2"/>
<path fill="currentColor"
	d="M437.73 106.71l20.80 -2.40v-3.20l-20.80 2.40"/>
<path fill="currentColor"
	d="M452.23 100.01l6.00 -0.70v-3.20l-6.00 0.70"/>
<use x="441.63" y="85.01" xlink:href="#hd"/>
<circle fill="currentColor" cx="449.63" cy="85.01" r="1.2"/>
<path d="M438.13 85.01v20.70" stroke="currentColor" fill="none"/>
<use x="461.73" y="82.01" xlink:href="#hd"/>
<path d="M458.23 82.01v21.30" stroke="currentColor" fill="none"/>
<use x="485.33" y="79.01" xlink:href="#hd"/>
<path d="M481.83 79.01v20.00" stroke="currentColor" fill="none"/>
<path fill="currentColor"
	d="M481.83 99.01c0.6 -5.6 9.6 -9 5.6 -18.4
	c1.6 6 -1.3 11.6 -5.6 12.8
"/>
<use x="502.53" y="94.01" xlink:href="#r8"/>
<use x="521.43" y="79.01" xlink:href="#hd"/>
<path d="M517.93 79.01v20.00" stroke="currentColor" fill="none"/>
<path fill="currentColor"
	d="M517.93 99.01c0.6 -5.6 9.6 -9 5.6 -18.4
	c1.6 6 -1.3 11.6 -5.6 12.8
"/>
<use x="538.63" y="94.01" xlink:href="#r8"/>
<use x="557.53" y="79.01" xlink:href="#hd"/>
<path d="M554.03 79.01v20.00" stroke="currentColor" fill="none"/>
<path fill="currentColor"
	d="M554.03 99.01c0.6 -5.6 9.6 -9 5.6 -18.4
	c1.6 6 -1.3 11.6 -5.6 12.8
"/>
<use x="574.73" y="94.01" xlink:href="#r8"/>
<use x="593.73" y="79.01" xlink:href="#hd"/>
<path d="M590.23 79.01v20.00" stroke="currentColor" fill="none"/>
<path fill="currentColor"
	d="M590.23 99.01c0.6 -5.6 9.6 -9 5.6 -18.4
	c1.6 6 -1.3 11.6 -5.6 12.8
"/>
<use x="610.83" y="94.01" xlink:href="#r8"/>
<use x="639.23" y="94.01" xlink:href="#Hd"/>
<path d="M635.73 94.01v20.00" stroke="currentColor" fill="none"/>
<use x="676.33" y="91.01" xlink:href="#hd"/>
<path d="M672.83 91.01v20.00" stroke="currentColor" fill="none"/>
<path fill="currentColor"
	d="M672.83 111.01c0.6 -5.6 9.6 -9 5.6 -18.4
	c1.6 6 -1.3 11.6 -5.6 12.8
"/>
</g>
</svg>
