<?xml version="1.0" standalone="no"?>
<!DOCTYPE svg PUBLIC "-//W3C//DTD SVG 1.1//EN"
	"http://www.w3.org/Graphics/SVG/1.1/DTD/svg11.dtd">
<svg xmlns="http://www.w3.org/2000/svg" version="1.1"
	xmlns:xlink="http://www.w3.org/1999/xlink"
	xml:space='preserve' color="black"
	width="7.38in" height="1.34in" viewBox="0 0 531 97">
<title>4669.abc (4669) tune 1</title>
<!-- Creator: abcm2ps-7.8.14 -->
<!-- CreationDate: Mar 13, 2016 18:54 -->
<!-- CommandLine: -qxg 4669.abc -O ../svgs/4669.svg -->
<g transform="scale(0.750)" stroke-width="0.70" font-family="Times" font-size="20.00">
<text x="354.13" y="21.67" text-anchor="middle">4669.  Sonata No. 2, in D, 3rd. Mvt. - (Larghetto from another Sonata)</text>
</g>
<g transform="scale(0.750)" stroke-width="0.70" font-family="Times" font-size="14.00" font-style="italic">
<text x="694.93" y="45.34" text-anchor="end">Pietro Nardini</text>
</g>
<g transform="scale(0.525)" stroke-width="0.70" font-family="Times" font-size="14.00" font-style="italic">
<defs>
<ellipse id="hd" rx="4.1" ry="2.9"
	transform="rotate(-20)" fill="currentColor"/>
</defs>
<use x="123.47" y="94.16" xlink:href="#hd"/>
<path d="M126.97 94.16v-20.00" stroke="currentColor" fill="none"/>
</g>
<g transform="scale(0.750)" stroke-width="0.70" font-family="Times" font-size="15.00" font-weight="bold">
<text x="94.13" y="68.01">= 120</text>
<path stroke="currentColor" fill="none"
	d="M217.53 106.01v-24.00"/>
<path stroke="currentColor" fill="none"
	d="M393.53 106.01v-24.00"/>
<path stroke="currentColor" fill="none"
	d="M561.13 106.01v-24.00"/>
<path stroke="currentColor" fill="none"
	d="M13.33 106.01h681.60m-681.60 -6h681.60m-681.60 -6h681.60m-681.60 -6h681.60m-681.60 -6h681.60"/>
<defs>
<path id="utclef" fill="currentColor" d="m-50 -90
	c-72 -41 -72 -158 52 -188
	c150 -10 220 188 90 256
	c-114 52 -275 0 -293 -136
	c-15 -181 93 -229 220 -334
	c88 -87 79 -133 62 -210
	c-51 33 -94 105 -89 186
	c17 267 36 374 49 574
	c6 96 -19 134 -77 135
	c-80 1 -126 -93 -61 -133
	c85 -41 133 101 31 105
	c23 17 92 37 90 -92
	c-10 -223 -39 -342 -50 -617
	c0 -90 0 -162 96 -232
	c56 72 63 230 22 289
	c-74 106 -257 168 -255 316
	c9 153 148 185 252 133
	c86 -65 29 -192 -80 -176
	c-71 12 -105 67 -59 124"/>
<use id="tclef" transform="scale(0.045)"
	xlink:href="#utclef"/>
</defs>
<use x="25.33" y="106.01" xlink:href="#tclef"/>
<defs>
<path id="usharp" fill="currentColor" d="
	m136 -702
	v890
	h32
	v-890
	m128 840
	h32
	v-888
	h-32
	m-232 286
	v116
	l338 -96
	v-116
	m-338 442
	v116
	l338 -98
	v-114"/>
<use id="sh0" transform="translate(-4,5) scale(0.018)"
	xlink:href="#usharp"/>
</defs>
<use x="40.33" y="82.01" xlink:href="#sh0"/>
<use x="45.83" y="91.01" xlink:href="#sh0"/>
<use x="51.33" y="79.01" xlink:href="#sh0"/>
<g font-family="serif" font-size="16" font-weight="bold" font-style="normal"
	transform="translate(67.33,106.01) scale(1.2,1)">
	<text y="-1" text-anchor="middle">4</text>
	<text y="-13" text-anchor="middle">3</text>
</g>
<defs>
<path id="Hd" fill="currentColor" d="m3 -1.6
	c-1 -1.8 -7 1.4 -6 3.2
	c1 1.8 7 -1.4 6 -3.2
	m0.5 -0.3
	c2 3.8 -5 7.6 -7 3.8
	c-2 -3.8 5 -7.6 7 -3.8"/>
</defs>
<use x="85.83" y="85.01" xlink:href="#Hd"/>
<path d="M82.33 85.01v20.00" stroke="currentColor" fill="none"/>
<path fill="currentColor"
	d="M153.23 108.21l32.70 2.60v-3.20l-32.70 -2.60"/>
<use x="157.03" y="88.01" xlink:href="#hd"/>
<path d="M153.53 88.01v19.20" stroke="currentColor" fill="none"/>
<use x="189.03" y="91.01" xlink:href="#hd"/>
<path d="M185.53 91.01v18.80" stroke="currentColor" fill="none"/>
<path fill="currentColor"
	d="M231.53 111.21l32.70 2.60v-3.20l-32.70 -2.60"/>
<use x="235.33" y="91.01" xlink:href="#hd"/>
<path d="M231.83 91.01v19.20" stroke="currentColor" fill="none"/>
<use x="267.33" y="94.01" xlink:href="#hd"/>
<path d="M263.83 94.01v18.80" stroke="currentColor" fill="none"/>
<use x="302.93" y="94.01" xlink:href="#hd"/>
<path d="M299.43 94.01v20.00" stroke="currentColor" fill="none"/>
<use x="353.33" y="91.01" xlink:href="#hd"/>
<path d="M349.83 91.01v20.00" stroke="currentColor" fill="none"/>
<use x="411.33" y="88.01" xlink:href="#hd"/>
<circle fill="currentColor" cx="419.33" cy="85.01" r="1.2"/>
<path d="M407.83 88.01v20.00" stroke="currentColor" fill="none"/>
<path fill="currentColor"
	d="M464.73 102.41l64.80 5.10v-3.20l-64.80 -5.10"/>
<use x="468.63" y="82.01" xlink:href="#hd"/>
<path d="M465.13 82.01v19.50" stroke="currentColor" fill="none"/>
<use x="500.63" y="85.01" xlink:href="#hd"/>
<path d="M497.13 85.01v19.00" stroke="currentColor" fill="none"/>
<use x="532.73" y="88.01" xlink:href="#hd"/>
<path d="M529.23 88.01v18.50" stroke="currentColor" fill="none"/>
<use x="578.93" y="85.01" xlink:href="#hd"/>
<circle fill="currentColor" cx="586.93" cy="85.01" r="1.2"/>
<path d="M575.43 85.01v20.00" stroke="currentColor" fill="none"/>
<path fill="currentColor"
	d="M575.43 105.01c0.6 -5.6 9.6 -9 5.6 -18.4
	c1.6 6 -1.3 11.6 -5.6 12.8
"/>
<use x="619.43" y="88.01" xlink:href="#hd"/>
<path d="M615.93 88.01v22.00" stroke="currentColor" fill="none"/>
<path fill="currentColor"
	d="M615.93 110.01c0.9 -3.7 9.1 -6.4 6 -12.4
	c1 5.4 -4.2 8.4 -6 8.4
M615.93 104.61c0.9 -3.7 9.1 -6.4 6 -12.4
	c1 5.4 -4.2 8.4 -6 8.4
"/>
<use x="644.63" y="91.01" xlink:href="#hd"/>
<path d="M641.13 91.01v20.00" stroke="currentColor" fill="none"/>
</g>
</svg>
