<?xml version="1.0" standalone="no"?>
<!DOCTYPE svg PUBLIC "-//W3C//DTD SVG 1.1//EN"
	"http://www.w3.org/Graphics/SVG/1.1/DTD/svg11.dtd">
<svg xmlns="http://www.w3.org/2000/svg" version="1.1"
	xmlns:xlink="http://www.w3.org/1999/xlink"
	xml:space='preserve' color="black"
	width="7.38in" height="1.34in" viewBox="0 0 531 97">
<title>4671.abc (4671) tune 1</title>
<!-- Creator: abcm2ps-7.8.14 -->
<!-- CreationDate: Mar 13, 2016 18:54 -->
<!-- CommandLine: -qxg 4671.abc -O ../svgs/4671.svg -->
<g transform="scale(0.750)" stroke-width="0.70" font-family="Times" font-size="20.00">
<text x="354.13" y="21.67" text-anchor="middle">4671.  Sonata No. 7, in B Flat, 1st. Mvt.</text>
</g>
<g transform="scale(0.750)" stroke-width="0.70" font-family="Times" font-size="14.00" font-style="italic">
<text x="694.93" y="45.34" text-anchor="end">Pietro Nardini</text>
</g>
<g transform="scale(0.525)" stroke-width="0.70" font-family="Times" font-size="14.00" font-style="italic">
<defs>
<ellipse id="hd" rx="4.1" ry="2.9"
	transform="rotate(-20)" fill="currentColor"/>
</defs>
<use x="114.90" y="94.16" xlink:href="#hd"/>
<path d="M118.40 94.16v-20.00" stroke="currentColor" fill="none"/>
</g>
<g transform="scale(0.750)" stroke-width="0.70" font-family="Times" font-size="15.00" font-weight="bold">
<text x="88.13" y="68.01">= 120</text>
<path stroke="currentColor" fill="none"
	d="M178.23 106.01v-24.00"/>
<path stroke="currentColor" fill="none"
	d="M325.53 106.01v-24.00"/>
<path stroke="currentColor" fill="none"
	d="M477.53 106.01v-24.00"/>
<path stroke="currentColor" fill="none"
	d="M694.93 106.01v-24.00"/>
<path stroke="currentColor" fill="none"
	d="M13.33 106.01h681.60m-681.60 -6h681.60m-681.60 -6h681.60m-681.60 -6h681.60m-681.60 -6h681.60"/>
<defs>
<path id="utclef" fill="currentColor" d="m-50 -90
	c-72 -41 -72 -158 52 -188
	c150 -10 220 188 90 256
	c-114 52 -275 0 -293 -136
	c-15 -181 93 -229 220 -334
	c88 -87 79 -133 62 -210
	c-51 33 -94 105 -89 186
	c17 267 36 374 49 574
	c6 96 -19 134 -77 135
	c-80 1 -126 -93 -61 -133
	c85 -41 133 101 31 105
	c23 17 92 37 90 -92
	c-10 -223 -39 -342 -50 -617
	c0 -90 0 -162 96 -232
	c56 72 63 230 22 289
	c-74 106 -257 168 -255 316
	c9 153 148 185 252 133
	c86 -65 29 -192 -80 -176
	c-71 12 -105 67 -59 124"/>
<use id="tclef" transform="scale(0.045)"
	xlink:href="#utclef"/>
</defs>
<use x="25.33" y="106.01" xlink:href="#tclef"/>
<defs>
<path id="uflat" fill="currentColor" d="
	m100 -746
	h32
	v734
	l-32 4
	m32 -332
	c46 -72 152 -90 208 -20
	c100 110 -120 326 -208 348
	m0 -28
	c54 0 200 -206 130 -290
	c-50 -60 -130 -4 -130 34"/>
<use id="ft0" transform="translate(-3.5,3.5) scale(0.018)"
	xlink:href="#uflat"/>
</defs>
<use x="40.33" y="94.01" xlink:href="#ft0"/>
<use x="45.83" y="85.01" xlink:href="#ft0"/>
<g font-family="serif" font-size="16" font-weight="bold" font-style="normal"
	transform="translate(61.83,106.01) scale(1.2,1)">
	<text y="-1" text-anchor="middle">4</text>
	<text y="-13" text-anchor="middle">3</text>
</g>
<use x="79.83" y="82.01" xlink:href="#hd"/>
<circle fill="currentColor" cx="87.83" cy="79.01" r="1.2"/>
<path d="M76.33 82.01v20.00" stroke="currentColor" fill="none"/>
<path fill="currentColor"
	d="M105.33 118.91l54.80 0.00v-3.20l-54.80 -0.00"/>
<path fill="currentColor"
	d="M105.63 113.91l28.30 0.00v-3.20l-28.30 -0.00"/>
<path fill="currentColor"
	d="M105.63 108.91l28.30 0.00v-3.20l-28.30 -0.00"/>
<use x="109.13" y="85.01" xlink:href="#hd"/>
<path d="M105.63 85.01v33.00" stroke="currentColor" fill="none"/>
<use x="118.63" y="88.01" xlink:href="#hd"/>
<path d="M115.13 88.01v30.00" stroke="currentColor" fill="none"/>
<use x="128.03" y="91.01" xlink:href="#hd"/>
<path d="M124.53 91.01v27.00" stroke="currentColor" fill="none"/>
<use x="137.53" y="94.01" xlink:href="#hd"/>
<path d="M134.03 94.01v24.00" stroke="currentColor" fill="none"/>
<defs>
<path id="hl" stroke="currentColor" d="m-6 0h12"/>
</defs>
<use x="146.93" y="76.01" xlink:href="#hl"/>
<use x="146.93" y="73.01" xlink:href="#hd"/>
<path d="M143.43 73.01v45.00" stroke="currentColor" fill="none"/>
<use x="163.23" y="88.01" xlink:href="#hd"/>
<path d="M159.73 88.01v30.00" stroke="currentColor" fill="none"/>
<path fill="currentColor"
	d="M186.93 108.41l17.00 2.30v-3.20l-17.00 -2.30"/>
<use x="190.73" y="88.01" xlink:href="#hd"/>
<path d="M187.23 88.01v19.40" stroke="currentColor" fill="none"/>
<use x="207.03" y="91.01" xlink:href="#hd"/>
<path d="M203.53 91.01v18.60" stroke="currentColor" fill="none"/>
<use x="224.93" y="91.01" xlink:href="#hd"/>
<path d="M221.43 91.01v20.00" stroke="currentColor" fill="none"/>
<path fill="currentColor"
	d="M245.33 113.31l10.10 -2.00v-3.20l-10.10 2.00"/>
<path fill="currentColor"
	d="M245.73 108.21l9.40 -1.80v-3.20l-9.40 1.80"/>
<path fill="currentColor"
	d="M245.73 103.21l9.40 -1.80v-3.20l-9.40 1.80"/>
<use x="249.23" y="88.01" xlink:href="#hd"/>
<path d="M245.73 88.01v24.20" stroke="currentColor" fill="none"/>
<use x="258.63" y="85.01" xlink:href="#hd"/>
<path d="M255.13 85.01v25.40" stroke="currentColor" fill="none"/>
<path fill="currentColor"
	d="M265.03 113.01l47.90 0.00v-3.20l-47.90 -0.00"/>
<path fill="currentColor"
	d="M265.33 108.01l47.20 0.00v-3.20l-47.20 -0.00"/>
<path fill="currentColor"
	d="M265.33 103.01l47.20 0.00v-3.20l-47.20 -0.00"/>
<use x="268.83" y="88.01" xlink:href="#hd"/>
<path d="M265.33 88.01v24.00" stroke="currentColor" fill="none"/>
<use x="278.23" y="85.01" xlink:href="#hd"/>
<path d="M274.73 85.01v27.00" stroke="currentColor" fill="none"/>
<use x="287.73" y="88.01" xlink:href="#hd"/>
<path d="M284.23 88.01v24.00" stroke="currentColor" fill="none"/>
<use x="297.13" y="85.01" xlink:href="#hd"/>
<path d="M293.63 85.01v27.00" stroke="currentColor" fill="none"/>
<use x="306.63" y="88.01" xlink:href="#hd"/>
<path d="M303.13 88.01v24.00" stroke="currentColor" fill="none"/>
<use x="316.03" y="85.01" xlink:href="#hd"/>
<path d="M312.53 85.01v27.00" stroke="currentColor" fill="none"/>
<defs>
<path id="r8e" fill="currentColor" d="m 0 0
	c-1.5 1.5 -2.4 2 -3.6 2
	c2.4 -2.8 -2.8 -4 -2.8 -1.2
	c0 2.7 4.3 2.4 5.9 0.6"/>
<g id="r32">
	<path d="m4.8 -10l-5.5 21.6" stroke="currentColor" fill="none"/>
	<use x="4.9" y="-10" xlink:href="#r8e"/>
	<use x="3.4" y="-4" xlink:href="#r8e"/>
	<use x="1.9" y="2" xlink:href="#r8e"/>
</g>
</defs>
<use x="338.03" y="94.01" xlink:href="#r32"/>
<use x="348.23" y="85.01" xlink:href="#hd"/>
<path d="M344.73 85.01v20.00" stroke="currentColor" fill="none"/>
<path fill="currentColor"
	d="M371.33 110.31l19.60 -3.80v-3.20l-19.60 3.80"/>
<path fill="currentColor"
	d="M371.63 105.21l18.90 -3.70v-3.20l-18.90 3.70"/>
<path fill="currentColor"
	d="M371.63 100.21l18.90 -3.70v-3.20l-18.90 3.70"/>
<use x="375.13" y="85.01" xlink:href="#hd"/>
<path d="M371.63 85.01v24.20" stroke="currentColor" fill="none"/>
<use x="384.63" y="82.01" xlink:href="#hd"/>
<path d="M381.13 82.01v25.40" stroke="currentColor" fill="none"/>
<use x="394.03" y="79.01" xlink:href="#hd"/>
<path d="M390.53 79.01v26.50" stroke="currentColor" fill="none"/>
<path fill="currentColor"
	d="M400.43 106.21l59.00 0.00v-3.20l-59.00 -0.00"/>
<path fill="currentColor"
	d="M400.73 101.21l31.50 0.00v-3.20l-31.50 -0.00"/>
<path fill="currentColor"
	d="M400.73 96.21l31.50 0.00v-3.20l-31.50 -0.00"/>
<use x="404.23" y="76.01" xlink:href="#hl"/>
<use x="404.23" y="76.01" xlink:href="#hd"/>
<path d="M400.73 76.01v29.20" stroke="currentColor" fill="none"/>
<use x="414.73" y="76.01" xlink:href="#hl"/>
<use x="414.73" y="73.01" xlink:href="#hd"/>
<path d="M411.23 73.01v32.20" stroke="currentColor" fill="none"/>
<use x="425.23" y="76.01" xlink:href="#hl"/>
<use x="425.23" y="70.01" xlink:href="#hl"/>
<use x="425.23" y="70.01" xlink:href="#hd"/>
<path d="M421.73 70.01v35.20" stroke="currentColor" fill="none"/>
<use x="435.73" y="76.01" xlink:href="#hl"/>
<use x="435.73" y="70.01" xlink:href="#hl"/>
<use x="435.73" y="67.01" xlink:href="#hd"/>
<path d="M432.23 67.01v38.20" stroke="currentColor" fill="none"/>
<use x="446.23" y="76.01" xlink:href="#hl"/>
<use x="446.23" y="70.01" xlink:href="#hl"/>
<use x="446.23" y="70.01" xlink:href="#hd"/>
<path d="M442.73 70.01v35.20" stroke="currentColor" fill="none"/>
<use x="462.53" y="85.01" xlink:href="#hd"/>
<path d="M459.03 85.01v20.20" stroke="currentColor" fill="none"/>
<use x="490.03" y="94.01" xlink:href="#r32"/>
<path fill="currentColor"
	d="M496.43 113.01l38.40 0.00v-3.20l-38.40 -0.00"/>
<path fill="currentColor"
	d="M496.73 108.01l37.80 0.00v-3.20l-37.80 -0.00"/>
<path fill="currentColor"
	d="M496.73 103.01l37.80 0.00v-3.20l-37.80 -0.00"/>
<use x="500.23" y="85.01" xlink:href="#hd"/>
<path d="M496.73 85.01v27.00" stroke="currentColor" fill="none"/>
<use x="509.63" y="82.01" xlink:href="#hd"/>
<path d="M506.13 82.01v30.00" stroke="currentColor" fill="none"/>
<use x="519.13" y="85.01" xlink:href="#hd"/>
<path d="M515.63 85.01v27.00" stroke="currentColor" fill="none"/>
<use x="528.53" y="82.01" xlink:href="#hd"/>
<path d="M525.03 82.01v30.00" stroke="currentColor" fill="none"/>
<use x="538.03" y="85.01" xlink:href="#hd"/>
<path d="M534.53 85.01v27.00" stroke="currentColor" fill="none"/>
<path fill="currentColor"
	d="M544.33 113.01l47.90 0.00v-3.20l-47.90 -0.00"/>
<path fill="currentColor"
	d="M544.73 108.01l47.20 0.00v-3.20l-47.20 -0.00"/>
<path fill="currentColor"
	d="M544.73 103.01l47.20 0.00v-3.20l-47.20 -0.00"/>
<use x="548.23" y="82.01" xlink:href="#hd"/>
<path d="M544.73 82.01v30.00" stroke="currentColor" fill="none"/>
<use x="557.63" y="85.01" xlink:href="#hd"/>
<path d="M554.13 85.01v27.00" stroke="currentColor" fill="none"/>
<use x="567.13" y="82.01" xlink:href="#hd"/>
<path d="M563.63 82.01v30.00" stroke="currentColor" fill="none"/>
<use x="576.53" y="85.01" xlink:href="#hd"/>
<path d="M573.03 85.01v27.00" stroke="currentColor" fill="none"/>
<use x="585.93" y="82.01" xlink:href="#hd"/>
<path d="M582.43 82.01v30.00" stroke="currentColor" fill="none"/>
<use x="595.43" y="85.01" xlink:href="#hd"/>
<path d="M591.93 85.01v27.00" stroke="currentColor" fill="none"/>
<path fill="currentColor"
	d="M601.73 123.91l80.50 0.00v-3.20l-80.50 -0.00"/>
<path fill="currentColor"
	d="M602.13 118.91l27.90 0.00v-3.20l-27.90 -0.00"/>
<path fill="currentColor"
	d="M675.93 118.91l6.00 0.00v-3.20l-6.00 -0.00"/>
<path fill="currentColor"
	d="M602.13 113.91l27.90 0.00v-3.20l-27.90 -0.00"/>
<path fill="currentColor"
	d="M675.93 113.91l6.00 0.00v-3.20l-6.00 -0.00"/>
<path fill="currentColor"
	d="M627.03 108.91l-6.00 -0.00v-3.20l6.00 0.00"/>
<use x="605.63" y="82.01" xlink:href="#hd"/>
<path d="M602.13 82.01v41.00" stroke="currentColor" fill="none"/>
<use x="615.03" y="85.01" xlink:href="#hd"/>
<path d="M611.53 85.01v38.00" stroke="currentColor" fill="none"/>
<use x="624.53" y="82.01" xlink:href="#hd"/>
<path d="M621.03 82.01v41.00" stroke="currentColor" fill="none"/>
<use x="633.53" y="85.01" xlink:href="#hd"/>
<circle fill="currentColor" cx="641.53" cy="85.01" r="1.2"/>
<path d="M630.03 85.01v38.00" stroke="currentColor" fill="none"/>
<use x="650.03" y="94.01" xlink:href="#r32"/>
<use x="659.43" y="88.01" xlink:href="#hd"/>
<circle fill="currentColor" cx="667.43" cy="85.01" r="1.2"/>
<path d="M655.93 88.01v35.00" stroke="currentColor" fill="none"/>
<use x="685.43" y="88.01" xlink:href="#hd"/>
<path d="M681.93 88.01v35.00" stroke="currentColor" fill="none"/>
<path fill="currentColor"
	d="M351.73 83.01c3.13 -4.86 16.77 -4.86 19.90 -0.00
	l0.00 -0.22c-3.73 -6.64 -16.17 -6.64 -19.90 0.22"/>
<path fill="currentColor"
	d="M662.93 82.01c2.99 -4.84 16.01 -4.84 19.00 -0.00
	l0.00 -0.22c-3.56 -6.62 -15.44 -6.62 -19.00 0.22"/>
</g>
</svg>
