<?xml version="1.0" standalone="no"?>
<!DOCTYPE svg PUBLIC "-//W3C//DTD SVG 1.1//EN"
	"http://www.w3.org/Graphics/SVG/1.1/DTD/svg11.dtd">
<svg xmlns="http://www.w3.org/2000/svg" version="1.1"
	xmlns:xlink="http://www.w3.org/1999/xlink"
	xml:space='preserve' color="black"
	width="7.38in" height="1.34in" viewBox="0 0 531 97">
<title>4679.abc (4679) tune 1</title>
<!-- Creator: abcm2ps-7.8.14 -->
<!-- CreationDate: Mar 13, 2016 18:54 -->
<!-- CommandLine: -qxg 4679.abc -O ../svgs/4679.svg -->
<g transform="scale(0.750)" stroke-width="0.70" font-family="Times" font-size="20.00">
<text x="354.13" y="21.67" text-anchor="middle">4679.  A Day in Venice, Op. 25, 2nd. Mvt. - Gondolieri</text>
</g>
<g transform="scale(0.750)" stroke-width="0.70" font-family="Times" font-size="14.00" font-style="italic">
<text x="694.93" y="45.34" text-anchor="end">Ethelbert Nevin</text>
</g>
<g transform="scale(0.525)" stroke-width="0.70" font-family="Times" font-size="14.00" font-style="italic">
<defs>
<ellipse id="hd" rx="4.1" ry="2.9"
	transform="rotate(-20)" fill="currentColor"/>
</defs>
<use x="130.61" y="94.16" xlink:href="#hd"/>
<path d="M134.11 94.16v-20.00" stroke="currentColor" fill="none"/>
</g>
<g transform="scale(0.750)" stroke-width="0.70" font-family="Times" font-size="15.00" font-weight="bold">
<text x="99.13" y="68.01">= 120</text>
<path stroke="currentColor" fill="none"
	d="M213.63 106.01v-24.00"/>
<path stroke="currentColor" fill="none"
	d="M364.23 106.01v-24.00"/>
<path stroke="currentColor" fill="none"
	d="M516.23 106.01v-24.00"/>
<path stroke="currentColor" fill="none"
	d="M665.03 106.01v-24.00"/>
<path stroke="currentColor" fill="none"
	d="M13.33 106.01h681.60m-681.60 -6h681.60m-681.60 -6h681.60m-681.60 -6h681.60m-681.60 -6h681.60"/>
<text font-family="serif" font-size="12" font-style="italic" font-weight="normal"
	x="145.13" y="118.41" text-anchor="middle">3</text>
<text font-family="serif" font-size="12" font-style="italic" font-weight="normal"
	x="255.43" y="124.31" text-anchor="middle">3</text>
<text font-family="serif" font-size="12" font-style="italic" font-weight="normal"
	x="295.73" y="124.31" text-anchor="middle">3</text>
<text font-family="serif" font-size="12" font-style="italic" font-weight="normal"
	x="410.33" y="65.71" text-anchor="middle">3</text>
<text font-family="serif" font-size="12" font-style="italic" font-weight="normal"
	x="447.73" y="121.31" text-anchor="middle">3</text>
<text font-family="serif" font-size="12" font-style="italic" font-weight="normal"
	x="596.63" y="124.31" text-anchor="middle">3</text>
<defs>
<path id="utclef" fill="currentColor" d="m-50 -90
	c-72 -41 -72 -158 52 -188
	c150 -10 220 188 90 256
	c-114 52 -275 0 -293 -136
	c-15 -181 93 -229 220 -334
	c88 -87 79 -133 62 -210
	c-51 33 -94 105 -89 186
	c17 267 36 374 49 574
	c6 96 -19 134 -77 135
	c-80 1 -126 -93 -61 -133
	c85 -41 133 101 31 105
	c23 17 92 37 90 -92
	c-10 -223 -39 -342 -50 -617
	c0 -90 0 -162 96 -232
	c56 72 63 230 22 289
	c-74 106 -257 168 -255 316
	c9 153 148 185 252 133
	c86 -65 29 -192 -80 -176
	c-71 12 -105 67 -59 124"/>
<use id="tclef" transform="scale(0.045)"
	xlink:href="#utclef"/>
</defs>
<use x="25.33" y="106.01" xlink:href="#tclef"/>
<defs>
<path id="usharp" fill="currentColor" d="
	m136 -702
	v890
	h32
	v-890
	m128 840
	h32
	v-888
	h-32
	m-232 286
	v116
	l338 -96
	v-116
	m-338 442
	v116
	l338 -98
	v-114"/>
<use id="sh0" transform="translate(-4,5) scale(0.018)"
	xlink:href="#usharp"/>
</defs>
<use x="40.33" y="82.01" xlink:href="#sh0"/>
<use x="45.83" y="91.01" xlink:href="#sh0"/>
<use x="51.33" y="79.01" xlink:href="#sh0"/>
<use x="56.83" y="88.01" xlink:href="#sh0"/>
<g font-family="serif" font-size="16" font-weight="bold" font-style="normal"
	transform="translate(72.83,106.01) scale(1.2,1)">
	<text y="-1" text-anchor="middle">4</text>
	<text y="-13" text-anchor="middle">4</text>
</g>
<use x="90.83" y="94.01" xlink:href="#hd"/>
<path d="M87.33 94.01v20.00" stroke="currentColor" fill="none"/>
<path fill="currentColor"
	d="M87.33 114.01c0.6 -5.6 9.6 -9 5.6 -18.4
	c1.6 6 -1.3 11.6 -5.6 12.8
"/>
<use x="108.83" y="85.01" xlink:href="#hd"/>
<path d="M105.33 85.01v20.00" stroke="currentColor" fill="none"/>
<path fill="currentColor"
	d="M129.83 104.31l26.70 -6.10v-3.20l-26.70 6.10"/>
<use x="133.73" y="85.01" xlink:href="#hd"/>
<path d="M130.23 85.01v18.20" stroke="currentColor" fill="none"/>
<use x="146.73" y="79.01" xlink:href="#hd"/>
<path d="M143.23 79.01v21.20" stroke="currentColor" fill="none"/>
<defs>
<path id="hl" stroke="currentColor" d="m-6 0h12"/>
</defs>
<use x="159.73" y="76.01" xlink:href="#hl"/>
<use x="159.73" y="73.01" xlink:href="#hd"/>
<path d="M156.23 73.01v24.20" stroke="currentColor" fill="none"/>
<use x="174.03" y="88.01" xlink:href="#hd"/>
<path d="M170.53 88.01v20.00" stroke="currentColor" fill="none"/>
<use x="198.93" y="88.01" xlink:href="#hd"/>
<path d="M195.43 88.01v20.00" stroke="currentColor" fill="none"/>
<path fill="currentColor"
	d="M195.43 108.01c0.6 -5.6 9.6 -9 5.6 -18.4
	c1.6 6 -1.3 11.6 -5.6 12.8
"/>
<use x="226.13" y="88.01" xlink:href="#hd"/>
<path d="M222.63 88.01v20.00" stroke="currentColor" fill="none"/>
<path fill="currentColor"
	d="M222.63 108.01c0.6 -5.6 9.6 -9 5.6 -18.4
	c1.6 6 -1.3 11.6 -5.6 12.8
"/>
<path fill="currentColor"
	d="M240.23 110.31l26.70 -4.20v-3.20l-26.70 4.20"/>
<use x="244.03" y="91.01" xlink:href="#hd"/>
<path d="M240.53 91.01v18.20" stroke="currentColor" fill="none"/>
<use x="257.03" y="88.01" xlink:href="#hd"/>
<path d="M253.53 88.01v19.10" stroke="currentColor" fill="none"/>
<use x="270.03" y="85.01" xlink:href="#hd"/>
<path d="M266.53 85.01v20.10" stroke="currentColor" fill="none"/>
<path fill="currentColor"
	d="M280.53 110.31l26.70 -4.20v-3.20l-26.70 4.20"/>
<use x="284.33" y="91.01" xlink:href="#hd"/>
<path d="M280.83 91.01v18.20" stroke="currentColor" fill="none"/>
<use x="297.33" y="88.01" xlink:href="#hd"/>
<path d="M293.83 88.01v19.10" stroke="currentColor" fill="none"/>
<use x="310.33" y="85.01" xlink:href="#hd"/>
<path d="M306.83 85.01v20.10" stroke="currentColor" fill="none"/>
<use x="324.63" y="94.01" xlink:href="#hd"/>
<path d="M321.13 94.01v20.00" stroke="currentColor" fill="none"/>
<use x="349.53" y="94.01" xlink:href="#hd"/>
<path d="M346.03 94.01v20.00" stroke="currentColor" fill="none"/>
<path fill="currentColor"
	d="M346.03 114.01c0.6 -5.6 9.6 -9 5.6 -18.4
	c1.6 6 -1.3 11.6 -5.6 12.8
"/>
<use x="376.73" y="94.01" xlink:href="#hd"/>
<path d="M380.23 94.01v-20.00" stroke="currentColor" fill="none"/>
<path fill="currentColor"
	d="	M380.23 74.01c0.6 5.6 9.6 9 5.6 18.4
	c1.6 -6 -1.3 -11.6 -5.6 -12.8
"/>
<path fill="currentColor"
	d="M398.93 76.01l26.70 -4.20v3.20l-26.70 4.20"/>
<use x="395.73" y="97.01" xlink:href="#hd"/>
<path d="M399.23 97.01v-20.10" stroke="currentColor" fill="none"/>
<use x="408.73" y="94.01" xlink:href="#hd"/>
<path d="M412.23 94.01v-19.10" stroke="currentColor" fill="none"/>
<use x="421.73" y="91.01" xlink:href="#hd"/>
<path d="M425.23 91.01v-18.20" stroke="currentColor" fill="none"/>
<path fill="currentColor"
	d="M432.53 107.31l26.70 -4.20v-3.20l-26.70 4.20"/>
<use x="436.33" y="88.01" xlink:href="#hd"/>
<path d="M432.83 88.01v18.20" stroke="currentColor" fill="none"/>
<use x="449.33" y="85.01" xlink:href="#hd"/>
<path d="M445.83 85.01v19.10" stroke="currentColor" fill="none"/>
<use x="462.33" y="82.01" xlink:href="#hd"/>
<path d="M458.83 82.01v20.10" stroke="currentColor" fill="none"/>
<use x="476.63" y="79.01" xlink:href="#hd"/>
<path d="M473.13 79.01v20.00" stroke="currentColor" fill="none"/>
<use x="501.53" y="76.01" xlink:href="#hl"/>
<use x="501.53" y="70.01" xlink:href="#hl"/>
<use x="501.53" y="70.01" xlink:href="#hd"/>
<path d="M498.03 70.01v24.00" stroke="currentColor" fill="none"/>
<path fill="currentColor"
	d="M498.03 94.01c0.6 -5.6 9.6 -9 5.6 -18.4
	c1.6 6 -1.3 11.6 -5.6 12.8
"/>
<path fill="currentColor"
	d="M524.93 102.01l44.10 0.00v-3.20l-44.10 -0.00"/>
<path fill="currentColor"
	d="M525.23 97.01l11.90 0.00v-3.20l-11.90 -0.00"/>
<path fill="currentColor"
	d="M562.63 97.01l6.00 0.00v-3.20l-6.00 -0.00"/>
<use x="528.73" y="76.01" xlink:href="#hl"/>
<use x="528.73" y="70.01" xlink:href="#hl"/>
<use x="528.73" y="70.01" xlink:href="#hd"/>
<path d="M525.23 70.01v31.00" stroke="currentColor" fill="none"/>
<use x="540.63" y="79.01" xlink:href="#hd"/>
<path d="M537.13 79.01v22.00" stroke="currentColor" fill="none"/>
<use x="552.53" y="76.01" xlink:href="#hl"/>
<use x="552.53" y="73.01" xlink:href="#hd"/>
<circle fill="currentColor" cx="560.53" cy="73.01" r="1.2"/>
<path d="M549.03 73.01v28.00" stroke="currentColor" fill="none"/>
<use x="572.13" y="76.01" xlink:href="#hl"/>
<use x="572.13" y="76.01" xlink:href="#hd"/>
<path d="M568.63 76.01v25.00" stroke="currentColor" fill="none"/>
<path fill="currentColor"
	d="M581.33 110.31l26.70 -4.20v-3.20l-26.70 4.20"/>
<use x="585.23" y="91.01" xlink:href="#hd"/>
<path d="M581.73 91.01v18.20" stroke="currentColor" fill="none"/>
<use x="598.23" y="88.01" xlink:href="#hd"/>
<path d="M594.73 88.01v19.10" stroke="currentColor" fill="none"/>
<use x="611.13" y="85.01" xlink:href="#hd"/>
<path d="M607.63 85.01v20.10" stroke="currentColor" fill="none"/>
<use x="625.43" y="79.01" xlink:href="#hd"/>
<path d="M621.93 79.01v20.00" stroke="currentColor" fill="none"/>
<use x="650.33" y="82.01" xlink:href="#hd"/>
<path d="M646.83 82.01v20.00" stroke="currentColor" fill="none"/>
<path fill="currentColor"
	d="M646.83 102.01c0.6 -5.6 9.6 -9 5.6 -18.4
	c1.6 6 -1.3 11.6 -5.6 12.8
"/>
<use x="677.53" y="82.01" xlink:href="#hd"/>
<path d="M674.03 82.01v20.00" stroke="currentColor" fill="none"/>
<path fill="currentColor"
	d="M674.03 102.01c0.6 -5.6 9.6 -9 5.6 -18.4
	c1.6 6 -1.3 11.6 -5.6 12.8
"/>
<path fill="currentColor"
	d="M202.43 88.01c3.18 -4.86 17.02 -4.86 20.20 -0.00
	l0.00 -0.22c-3.79 -6.64 -16.41 -6.64 -20.20 0.22"/>
<path fill="currentColor"
	d="M353.03 94.01c3.18 -4.86 17.02 -4.86 20.20 -0.00
	l0.00 -0.22c-3.79 -6.64 -16.41 -6.64 -20.20 0.22"/>
<path fill="currentColor"
	d="M505.03 70.01c3.18 -4.86 17.02 -4.86 20.20 -0.00
	l0.00 -0.22c-3.79 -6.64 -16.41 -6.64 -20.20 0.22"/>
<path fill="currentColor"
	d="M653.83 82.01c3.18 -4.86 17.02 -4.86 20.20 -0.00
	l0.00 -0.22c-3.79 -6.64 -16.41 -6.64 -20.20 0.22"/>
</g>
</svg>
