<?xml version="1.0" standalone="no"?>
<!DOCTYPE svg PUBLIC "-//W3C//DTD SVG 1.1//EN"
	"http://www.w3.org/Graphics/SVG/1.1/DTD/svg11.dtd">
<svg xmlns="http://www.w3.org/2000/svg" version="1.1"
	xmlns:xlink="http://www.w3.org/1999/xlink"
	xml:space='preserve' color="black"
	width="7.38in" height="1.39in" viewBox="0 0 531 100">
<title>4748.abc (4748) tune 1</title>
<!-- Creator: abcm2ps-7.8.14 -->
<!-- CreationDate: Mar 13, 2016 18:54 -->
<!-- CommandLine: -qxg 4748.abc -O ../svgs/4748.svg -->
<g transform="scale(0.750)" stroke-width="0.70" font-family="Times" font-size="20.00">
<text x="354.13" y="21.67" text-anchor="middle">4748.  Cracovienne Fantastique, Op. 14, No. 6, 1st. Theme</text>
</g>
<g transform="scale(0.750)" stroke-width="0.70" font-family="Times" font-size="14.00" font-style="italic">
<text x="694.93" y="45.34" text-anchor="end">Ignace Jan Paderewski</text>
</g>
<g transform="scale(0.525)" stroke-width="0.70" font-family="Times" font-size="14.00" font-style="italic">
<defs>
<ellipse id="hd" rx="4.1" ry="2.9"
	transform="rotate(-20)" fill="currentColor"/>
</defs>
<use x="138.47" y="94.16" xlink:href="#hd"/>
<path d="M141.97 94.16v-20.00" stroke="currentColor" fill="none"/>
</g>
<g transform="scale(0.750)" stroke-width="0.70" font-family="Times" font-size="15.00" font-weight="bold">
<text x="104.63" y="68.01">= 120</text>
<path stroke="currentColor" fill="none"
	d="M243.23 110.01v-24.00"/>
<path stroke="currentColor" fill="none"
	d="M409.83 110.01v-24.00"/>
<path stroke="currentColor" fill="none"
	d="M570.83 110.01v-24.00"/>
<path stroke="currentColor" fill="none"
	d="M13.33 110.01h681.60m-681.60 -6h681.60m-681.60 -6h681.60m-681.60 -6h681.60m-681.60 -6h681.60"/>
<defs>
<path id="utclef" fill="currentColor" d="m-50 -90
	c-72 -41 -72 -158 52 -188
	c150 -10 220 188 90 256
	c-114 52 -275 0 -293 -136
	c-15 -181 93 -229 220 -334
	c88 -87 79 -133 62 -210
	c-51 33 -94 105 -89 186
	c17 267 36 374 49 574
	c6 96 -19 134 -77 135
	c-80 1 -126 -93 -61 -133
	c85 -41 133 101 31 105
	c23 17 92 37 90 -92
	c-10 -223 -39 -342 -50 -617
	c0 -90 0 -162 96 -232
	c56 72 63 230 22 289
	c-74 106 -257 168 -255 316
	c9 153 148 185 252 133
	c86 -65 29 -192 -80 -176
	c-71 12 -105 67 -59 124"/>
<use id="tclef" transform="scale(0.045)"
	xlink:href="#utclef"/>
</defs>
<use x="25.33" y="110.01" xlink:href="#tclef"/>
<defs>
<path id="usharp" fill="currentColor" d="
	m136 -702
	v890
	h32
	v-890
	m128 840
	h32
	v-888
	h-32
	m-232 286
	v116
	l338 -96
	v-116
	m-338 442
	v116
	l338 -98
	v-114"/>
<use id="sh0" transform="translate(-4,5) scale(0.018)"
	xlink:href="#usharp"/>
</defs>
<use x="40.33" y="86.01" xlink:href="#sh0"/>
<use x="45.83" y="95.01" xlink:href="#sh0"/>
<use x="51.33" y="83.01" xlink:href="#sh0"/>
<use x="56.83" y="92.01" xlink:href="#sh0"/>
<use x="62.33" y="101.01" xlink:href="#sh0"/>
<g font-family="serif" font-size="16" font-weight="bold" font-style="normal"
	transform="translate(78.33,110.01) scale(1.2,1)">
	<text y="-1" text-anchor="middle">4</text>
	<text y="-13" text-anchor="middle">2</text>
</g>
<path fill="currentColor"
	d="M99.53 78.21l23.20 -2.40v3.20l-23.20 2.40"/>
<path fill="currentColor"
	d="M99.83 83.21l22.50 -2.40v3.20l-22.50 2.40"/>
<use x="96.33" y="101.01" xlink:href="#hd"/>
<path d="M99.83 101.01v-21.80" stroke="currentColor" fill="none"/>
<use x="118.83" y="98.01" xlink:href="#hd"/>
<path d="M122.33 98.01v-21.20" stroke="currentColor" fill="none"/>
<use x="143.93" y="95.01" xlink:href="#hd"/>
<path d="M140.43 95.01v20.00" stroke="currentColor" fill="none"/>
<path fill="currentColor"
	d="M140.43 115.01c0.6 -5.6 9.6 -9 5.6 -18.4
	c1.6 6 -1.3 11.6 -5.6 12.8
"/>
<use x="179.33" y="95.01" xlink:href="#hd"/>
<path d="M175.83 95.01v20.00" stroke="currentColor" fill="none"/>
<path fill="currentColor"
	d="M175.83 115.01c0.6 -5.6 9.6 -9 5.6 -18.4
	c1.6 6 -1.3 11.6 -5.6 12.8
"/>
<use x="214.83" y="95.01" xlink:href="#hd"/>
<path d="M211.33 95.01v20.00" stroke="currentColor" fill="none"/>
<path fill="currentColor"
	d="M211.33 115.01c0.6 -5.6 9.6 -9 5.6 -18.4
	c1.6 6 -1.3 11.6 -5.6 12.8
"/>
<use x="260.93" y="92.01" xlink:href="#hd"/>
<path d="M257.43 92.01v20.00" stroke="currentColor" fill="none"/>
<path fill="currentColor"
	d="M257.43 112.01c0.6 -5.6 9.6 -9 5.6 -18.4
	c1.6 6 -1.3 11.6 -5.6 12.8
"/>
<use x="296.33" y="86.01" xlink:href="#hd"/>
<path d="M292.83 86.01v20.00" stroke="currentColor" fill="none"/>
<path fill="currentColor"
	d="M292.83 106.01c0.6 -5.6 9.6 -9 5.6 -18.4
	c1.6 6 -1.3 11.6 -5.6 12.8
"/>
<use x="331.83" y="86.01" xlink:href="#hd"/>
<path d="M328.33 86.01v20.00" stroke="currentColor" fill="none"/>
<path fill="currentColor"
	d="M328.33 106.01c0.6 -5.6 9.6 -9 5.6 -18.4
	c1.6 6 -1.3 11.6 -5.6 12.8
"/>
<path fill="currentColor"
	d="M363.43 111.81l23.20 2.40v-3.20l-23.20 -2.40"/>
<path fill="currentColor"
	d="M363.73 106.81l22.50 2.40v-3.20l-22.50 -2.40"/>
<use x="367.23" y="89.01" xlink:href="#hd"/>
<path d="M363.73 89.01v21.80" stroke="currentColor" fill="none"/>
<use x="389.83" y="92.01" xlink:href="#hd"/>
<path d="M386.33 92.01v21.20" stroke="currentColor" fill="none"/>
<use x="427.53" y="95.01" xlink:href="#hd"/>
<path d="M424.03 95.01v20.00" stroke="currentColor" fill="none"/>
<path fill="currentColor"
	d="M424.03 115.01c0.6 -5.6 9.6 -9 5.6 -18.4
	c1.6 6 -1.3 11.6 -5.6 12.8
"/>
<path fill="currentColor"
	d="M462.63 78.21l23.20 -2.40v3.20l-23.20 2.40"/>
<path fill="currentColor"
	d="M462.93 83.21l22.50 -2.40v3.20l-22.50 2.40"/>
<use x="459.43" y="101.01" xlink:href="#hd"/>
<path d="M462.93 101.01v-21.80" stroke="currentColor" fill="none"/>
<use x="482.03" y="98.01" xlink:href="#hd"/>
<path d="M485.53 98.01v-21.20" stroke="currentColor" fill="none"/>
<use x="507.03" y="95.01" xlink:href="#hd"/>
<path d="M503.53 95.01v20.00" stroke="currentColor" fill="none"/>
<path fill="currentColor"
	d="M503.53 115.01c0.6 -5.6 9.6 -9 5.6 -18.4
	c1.6 6 -1.3 11.6 -5.6 12.8
"/>
<use x="542.53" y="95.01" xlink:href="#hd"/>
<path d="M539.03 95.01v20.00" stroke="currentColor" fill="none"/>
<path fill="currentColor"
	d="M539.03 115.01c0.6 -5.6 9.6 -9 5.6 -18.4
	c1.6 6 -1.3 11.6 -5.6 12.8
"/>
<use x="588.63" y="92.01" xlink:href="#hd"/>
<path d="M585.13 92.01v20.00" stroke="currentColor" fill="none"/>
<path fill="currentColor"
	d="M585.13 112.01c0.6 -5.6 9.6 -9 5.6 -18.4
	c1.6 6 -1.3 11.6 -5.6 12.8
"/>
<use x="624.03" y="86.01" xlink:href="#hd"/>
<path d="M620.53 86.01v20.00" stroke="currentColor" fill="none"/>
<path fill="currentColor"
	d="M620.53 106.01c0.6 -5.6 9.6 -9 5.6 -18.4
	c1.6 6 -1.3 11.6 -5.6 12.8
"/>
<use x="659.53" y="86.01" xlink:href="#hd"/>
<path d="M656.03 86.01v20.00" stroke="currentColor" fill="none"/>
<path fill="currentColor"
	d="M656.03 106.01c0.6 -5.6 9.6 -9 5.6 -18.4
	c1.6 6 -1.3 11.6 -5.6 12.8
"/>
</g>
</svg>
