<?xml version="1.0" standalone="no"?>
<!DOCTYPE svg PUBLIC "-//W3C//DTD SVG 1.1//EN"
	"http://www.w3.org/Graphics/SVG/1.1/DTD/svg11.dtd">
<svg xmlns="http://www.w3.org/2000/svg" version="1.1"
	xmlns:xlink="http://www.w3.org/1999/xlink"
	xml:space='preserve' color="black"
	width="7.38in" height="1.40in" viewBox="0 0 531 101">
<title>4776.abc (4776) tune 1</title>
<!-- Creator: abcm2ps-7.8.14 -->
<!-- CreationDate: Mar 13, 2016 18:54 -->
<!-- CommandLine: -qxg 4776.abc -O ../svgs/4776.svg -->
<g transform="scale(0.750)" stroke-width="0.70" font-family="Times" font-size="20.00">
<text x="354.13" y="21.67" text-anchor="middle">4776.  Concerto No. 1 in D, Op. 6, 2nd. Mvt.</text>
</g>
<g transform="scale(0.750)" stroke-width="0.70" font-family="Times" font-size="14.00" font-style="italic">
<text x="694.93" y="45.34" text-anchor="end">Niccolo Paganini</text>
</g>
<g transform="scale(0.525)" stroke-width="0.70" font-family="Times" font-size="14.00" font-style="italic">
<defs>
<ellipse id="hd" rx="4.1" ry="2.9"
	transform="rotate(-20)" fill="currentColor"/>
</defs>
<use x="115.61" y="94.16" xlink:href="#hd"/>
<path d="M119.11 94.16v-20.00" stroke="currentColor" fill="none"/>
</g>
<g transform="scale(0.750)" stroke-width="0.70" font-family="Times" font-size="15.00" font-weight="bold">
<text x="88.63" y="68.01">= 120</text>
<path stroke="currentColor" fill="none"
	d="M157.83 111.01v-24.00"/>
<path stroke="currentColor" fill="none"
	d="M284.43 111.01v-24.00"/>
<path stroke="currentColor" fill="none"
	d="M415.03 111.01v-24.00"/>
<path stroke="currentColor" fill="none"
	d="M620.23 111.01v-24.00"/>
<path stroke="currentColor" fill="none"
	d="M13.33 111.01h681.60m-681.60 -6h681.60m-681.60 -6h681.60m-681.60 -6h681.60m-681.60 -6h681.60"/>
<text font-family="serif" font-size="12" font-style="italic" font-weight="normal"
	x="591.53" y="123.81" text-anchor="middle">3</text>
<defs>
<path id="utclef" fill="currentColor" d="m-50 -90
	c-72 -41 -72 -158 52 -188
	c150 -10 220 188 90 256
	c-114 52 -275 0 -293 -136
	c-15 -181 93 -229 220 -334
	c88 -87 79 -133 62 -210
	c-51 33 -94 105 -89 186
	c17 267 36 374 49 574
	c6 96 -19 134 -77 135
	c-80 1 -126 -93 -61 -133
	c85 -41 133 101 31 105
	c23 17 92 37 90 -92
	c-10 -223 -39 -342 -50 -617
	c0 -90 0 -162 96 -232
	c56 72 63 230 22 289
	c-74 106 -257 168 -255 316
	c9 153 148 185 252 133
	c86 -65 29 -192 -80 -176
	c-71 12 -105 67 -59 124"/>
<use id="tclef" transform="scale(0.045)"
	xlink:href="#utclef"/>
</defs>
<use x="25.33" y="111.01" xlink:href="#tclef"/>
<defs>
<path id="usharp" fill="currentColor" d="
	m136 -702
	v890
	h32
	v-890
	m128 840
	h32
	v-888
	h-32
	m-232 286
	v116
	l338 -96
	v-116
	m-338 442
	v116
	l338 -98
	v-114"/>
<use id="sh0" transform="translate(-4,5) scale(0.018)"
	xlink:href="#usharp"/>
</defs>
<use x="40.33" y="87.01" xlink:href="#sh0"/>
<use x="45.83" y="96.01" xlink:href="#sh0"/>
<g font-family="serif" font-size="16" font-weight="bold" font-style="normal"
	transform="translate(61.83,111.01) scale(1.2,1)">
	<text y="-1" text-anchor="middle">4</text>
	<text y="-13" text-anchor="middle">4</text>
</g>
<defs>
<path id="hl" stroke="currentColor" d="m-6 0h12"/>
</defs>
<use x="80.33" y="81.01" xlink:href="#hl"/>
<defs>
<path id="Hd" fill="currentColor" d="m3 -1.6
	c-1 -1.8 -7 1.4 -6 3.2
	c1 1.8 7 -1.4 6 -3.2
	m0.5 -0.3
	c2 3.8 -5 7.6 -7 3.8
	c-2 -3.8 5 -7.6 7 -3.8"/>
</defs>
<use x="80.33" y="78.01" xlink:href="#Hd"/>
<circle fill="currentColor" cx="90.33" cy="78.01" r="1.2"/>
<path d="M76.83 78.01v21.00" stroke="currentColor" fill="none"/>
<path fill="currentColor"
	d="M120.83 111.31l22.00 4.00v-3.20l-22.00 -4.00"/>
<path fill="currentColor"
	d="M136.53 109.11l6.00 1.10v-3.20l-6.00 -1.10"/>
<use x="124.63" y="87.01" xlink:href="#hd"/>
<circle fill="currentColor" cx="132.63" cy="84.01" r="1.2"/>
<path d="M121.13 87.01v23.40" stroke="currentColor" fill="none"/>
<use x="146.03" y="93.01" xlink:href="#hd"/>
<path d="M142.53 93.01v21.20" stroke="currentColor" fill="none"/>
<defs>
<path id="r8e" fill="currentColor" d="m 0 0
	c-1.5 1.5 -2.4 2 -3.6 2
	c2.4 -2.8 -2.8 -4 -2.8 -1.2
	c0 2.7 4.3 2.4 5.9 0.6"/>
<g id="r32">
	<path d="m4.8 -10l-5.5 21.6" stroke="currentColor" fill="none"/>
	<use x="4.9" y="-10" xlink:href="#r8e"/>
	<use x="3.4" y="-4" xlink:href="#r8e"/>
	<use x="1.9" y="2" xlink:href="#r8e"/>
</g>
</defs>
<use x="170.33" y="99.01" xlink:href="#r32"/>
<path fill="currentColor"
	d="M177.03 117.91l29.70 0.00v-3.20l-29.70 -0.00"/>
<path fill="currentColor"
	d="M196.73 112.91l9.60 0.00v-3.20l-9.60 -0.00"/>
<path fill="currentColor"
	d="M202.73 107.91l-6.00 -0.00v-3.20l6.00 0.00"/>
<use x="180.83" y="93.01" xlink:href="#hd"/>
<path d="M177.33 93.01v24.00" stroke="currentColor" fill="none"/>
<use x="200.23" y="93.01" xlink:href="#hd"/>
<path d="M196.73 93.01v24.00" stroke="currentColor" fill="none"/>
<use x="209.83" y="96.01" xlink:href="#hd"/>
<path d="M206.33 96.01v21.00" stroke="currentColor" fill="none"/>
<use x="224.23" y="99.01" xlink:href="#Hd"/>
<path d="M220.73 99.01v20.00" stroke="currentColor" fill="none"/>
<use x="262.33" y="87.01" xlink:href="#hd"/>
<path d="M258.83 87.01v20.00" stroke="currentColor" fill="none"/>
<use x="297.43" y="81.01" xlink:href="#hl"/>
<use x="297.43" y="81.01" xlink:href="#Hd"/>
<path d="M293.93 81.01v20.00" stroke="currentColor" fill="none"/>
<use x="335.53" y="84.01" xlink:href="#hd"/>
<path d="M332.03 84.01v20.00" stroke="currentColor" fill="none"/>
<path fill="currentColor"
	d="M358.93 110.11l13.70 2.20v-3.20l-13.70 -2.20"/>
<path fill="currentColor"
	d="M359.23 105.11l13.00 2.10v-3.20l-13.00 -2.10"/>
<use x="362.73" y="87.01" xlink:href="#hd"/>
<path d="M359.23 87.01v22.10" stroke="currentColor" fill="none"/>
<use x="375.83" y="90.01" xlink:href="#hd"/>
<path d="M372.33 90.01v21.20" stroke="currentColor" fill="none"/>
<path fill="currentColor"
	d="M386.33 116.11l13.70 2.20v-3.20l-13.70 -2.20"/>
<path fill="currentColor"
	d="M386.63 111.11l13.00 2.10v-3.20l-13.00 -2.10"/>
<use x="390.13" y="93.01" xlink:href="#hd"/>
<path d="M386.63 93.01v22.10" stroke="currentColor" fill="none"/>
<use x="403.13" y="96.01" xlink:href="#hd"/>
<path d="M399.63 96.01v21.20" stroke="currentColor" fill="none"/>
<use x="427.53" y="99.01" xlink:href="#hd"/>
<path d="M431.03 99.01v-20.00" stroke="currentColor" fill="none"/>
<path fill="currentColor"
	d="	M431.03 79.01c0.6 5.6 9.6 9 5.6 18.4
	c1.6 -6 -1.3 -11.6 -5.6 -12.8
"/>
<use x="453.03" y="102.01" xlink:href="#hd"/>
<use x="444.03" y="102.01" xlink:href="#sh0"/>
<path d="M456.53 102.01v-20.00" stroke="currentColor" fill="none"/>
<path fill="currentColor"
	d="	M456.53 82.01c0.6 5.6 9.6 9 5.6 18.4
	c1.6 -6 -1.3 -11.6 -5.6 -12.8
"/>
<use x="474.23" y="81.01" xlink:href="#hl"/>
<use x="474.23" y="75.01" xlink:href="#hl"/>
<use x="474.23" y="75.01" xlink:href="#hd"/>
<path d="M470.73 75.01v24.00" stroke="currentColor" fill="none"/>
<path fill="currentColor"
	d="M499.13 105.21l62.20 0.00v-3.20l-62.20 -0.00"/>
<path fill="currentColor"
	d="M499.53 100.21l61.50 0.00v-3.20l-61.50 -0.00"/>
<path fill="currentColor"
	d="M536.53 95.21l6.00 0.00v-3.20l-6.00 -0.00"/>
<use x="503.03" y="81.01" xlink:href="#hl"/>
<use x="503.03" y="75.01" xlink:href="#hl"/>
<use x="503.03" y="75.01" xlink:href="#hd"/>
<circle fill="currentColor" cx="511.03" cy="72.01" r="1.2"/>
<path d="M499.53 75.01v29.20" stroke="currentColor" fill="none"/>
<use x="521.03" y="81.01" xlink:href="#hl"/>
<use x="521.03" y="78.01" xlink:href="#hd"/>
<path d="M517.53 78.01v26.20" stroke="currentColor" fill="none"/>
<use x="546.03" y="81.01" xlink:href="#hl"/>
<use x="546.03" y="78.01" xlink:href="#hd"/>
<path d="M542.53 78.01v26.20" stroke="currentColor" fill="none"/>
<use x="539.03" y="81.01" xlink:href="#hl"/>
<use x="539.03" y="81.01" xlink:href="#hd"/>
<use x="530.03" y="81.01" xlink:href="#sh0"/>
<use x="564.53" y="81.01" xlink:href="#hl"/>
<use x="564.53" y="81.01" xlink:href="#hd"/>
<use x="555.53" y="81.01" xlink:href="#sh0"/>
<path d="M561.03 81.01v23.20" stroke="currentColor" fill="none"/>
<path fill="currentColor"
	d="M575.03 104.91l29.20 4.30v-3.20l-29.20 -4.30"/>
<use x="578.83" y="84.01" xlink:href="#hd"/>
<path d="M575.33 84.01v20.00" stroke="currentColor" fill="none"/>
<use x="593.13" y="87.01" xlink:href="#hd"/>
<path d="M589.63 87.01v19.10" stroke="currentColor" fill="none"/>
<use x="607.33" y="90.01" xlink:href="#hd"/>
<path d="M603.83 90.01v18.20" stroke="currentColor" fill="none"/>
<path fill="currentColor"
	d="M628.93 109.81l22.00 2.40v-3.20l-22.00 -2.40"/>
<path fill="currentColor"
	d="M644.53 106.51l6.00 0.70v-3.20l-6.00 -0.70"/>
<use x="632.73" y="87.01" xlink:href="#hd"/>
<circle fill="currentColor" cx="640.73" cy="84.01" r="1.2"/>
<path d="M629.23 87.01v21.90" stroke="currentColor" fill="none"/>
<use x="654.03" y="90.01" xlink:href="#hd"/>
<path d="M650.53 90.01v21.20" stroke="currentColor" fill="none"/>
<use x="668.43" y="93.01" xlink:href="#hd"/>
<path d="M664.93 93.01v20.00" stroke="currentColor" fill="none"/>
<path fill="currentColor"
	d="M180.83 93.01c3.05 -4.85 16.31 -4.85 19.36 -0.00
	l0.00 -0.22c-3.63 -6.63 -15.73 -6.63 -19.36 0.22"/>
<path fill="currentColor"
	d="M477.73 75.01c3.42 -4.89 18.32 -4.89 21.74 -0.00
	l0.00 -0.22c-4.08 -6.67 -17.66 -6.67 -21.74 0.22"/>
<path fill="currentColor"
	d="M524.53 76.01c2.84 -4.82 15.18 -4.82 18.02 -0.00
	l0.00 -0.22c-3.38 -6.61 -14.64 -6.61 -18.02 0.22"/>
<path fill="currentColor"
	d="M546.03 81.01c2.91 -4.83 15.59 -4.83 18.50 -0.00
	l0.00 -0.22c-3.47 -6.61 -15.03 -6.61 -18.50 0.22"/>
</g>
</svg>
