<?xml version="1.0" standalone="no"?>
<!DOCTYPE svg PUBLIC "-//W3C//DTD SVG 1.1//EN"
	"http://www.w3.org/Graphics/SVG/1.1/DTD/svg11.dtd">
<svg xmlns="http://www.w3.org/2000/svg" version="1.1"
	xmlns:xlink="http://www.w3.org/1999/xlink"
	xml:space='preserve' color="black"
	width="7.38in" height="1.34in" viewBox="0 0 531 97">
<title>4797.abc (4797) tune 1</title>
<!-- Creator: abcm2ps-7.8.14 -->
<!-- CreationDate: Mar 13, 2016 18:54 -->
<!-- CommandLine: -qxg 4797.abc -O ../svgs/4797.svg -->
<g transform="scale(0.750)" stroke-width="0.70" font-family="Times" font-size="20.00">
<text x="354.13" y="21.67" text-anchor="middle">4797.  May Night</text>
</g>
<g transform="scale(0.750)" stroke-width="0.70" font-family="Times" font-size="14.00" font-style="italic">
<text x="694.93" y="45.34" text-anchor="end">Selim Palmgren</text>
</g>
<g transform="scale(0.525)" stroke-width="0.70" font-family="Times" font-size="14.00" font-style="italic">
<defs>
<ellipse id="hd" rx="4.1" ry="2.9"
	transform="rotate(-20)" fill="currentColor"/>
</defs>
<use x="130.61" y="94.16" xlink:href="#hd"/>
<path d="M134.11 94.16v-20.00" stroke="currentColor" fill="none"/>
</g>
<g transform="scale(0.750)" stroke-width="0.70" font-family="Times" font-size="15.00" font-weight="bold">
<text x="99.13" y="68.01">= 120</text>
<path stroke="currentColor" fill="none"
	d="M319.63 106.01v-24.00"/>
<path stroke="currentColor" fill="none"
	d="M386.63 106.01v-24.00"/>
<path stroke="currentColor" fill="none"
	d="M627.93 106.01v-24.00"/>
<path stroke="currentColor" fill="none"
	d="M694.93 106.01v-24.00"/>
<path stroke="currentColor" fill="none"
	d="M13.33 106.01h681.60m-681.60 -6h681.60m-681.60 -6h681.60m-681.60 -6h681.60m-681.60 -6h681.60"/>
<defs>
<path id="utclef" fill="currentColor" d="m-50 -90
	c-72 -41 -72 -158 52 -188
	c150 -10 220 188 90 256
	c-114 52 -275 0 -293 -136
	c-15 -181 93 -229 220 -334
	c88 -87 79 -133 62 -210
	c-51 33 -94 105 -89 186
	c17 267 36 374 49 574
	c6 96 -19 134 -77 135
	c-80 1 -126 -93 -61 -133
	c85 -41 133 101 31 105
	c23 17 92 37 90 -92
	c-10 -223 -39 -342 -50 -617
	c0 -90 0 -162 96 -232
	c56 72 63 230 22 289
	c-74 106 -257 168 -255 316
	c9 153 148 185 252 133
	c86 -65 29 -192 -80 -176
	c-71 12 -105 67 -59 124"/>
<use id="tclef" transform="scale(0.045)"
	xlink:href="#utclef"/>
</defs>
<use x="25.33" y="106.01" xlink:href="#tclef"/>
<defs>
<path id="usharp" fill="currentColor" d="
	m136 -702
	v890
	h32
	v-890
	m128 840
	h32
	v-888
	h-32
	m-232 286
	v116
	l338 -96
	v-116
	m-338 442
	v116
	l338 -98
	v-114"/>
<use id="sh0" transform="translate(-4,5) scale(0.018)"
	xlink:href="#usharp"/>
</defs>
<use x="40.33" y="82.01" xlink:href="#sh0"/>
<use x="45.83" y="91.01" xlink:href="#sh0"/>
<use x="51.33" y="79.01" xlink:href="#sh0"/>
<use x="56.83" y="88.01" xlink:href="#sh0"/>
<g font-family="serif" font-size="16" font-weight="bold" font-style="normal"
	transform="translate(72.83,106.01) scale(1.2,1)">
	<text y="-1" text-anchor="middle">2</text>
	<text y="-13" text-anchor="middle">3</text>
</g>
<defs>
<path id="r8e" fill="currentColor" d="m 0 0
	c-1.5 1.5 -2.4 2 -3.6 2
	c2.4 -2.8 -2.8 -4 -2.8 -1.2
	c0 2.7 4.3 2.4 5.9 0.6"/>
<g id="r8">
	<path d="m3.3 -4l-3.4 9.6" stroke="currentColor" fill="none"/>
	<use x="3.4" y="-4" xlink:href="#r8e"/>
</g>
</defs>
<use x="90.83" y="94.01" xlink:href="#r8"/>
<path fill="currentColor"
	d="M112.73 80.31l19.40 2.40v3.20l-19.40 -2.40"/>
<use x="109.53" y="100.01" xlink:href="#hd"/>
<path d="M113.03 100.01v-18.60" stroke="currentColor" fill="none"/>
<use x="128.23" y="103.01" xlink:href="#hd"/>
<path d="M131.73 103.01v-19.40" stroke="currentColor" fill="none"/>
<path fill="currentColor"
	d="M152.13 86.71l38.10 4.60v3.20l-38.10 -4.60"/>
<use x="148.93" y="106.01" xlink:href="#hd"/>
<path d="M152.43 106.01v-18.30" stroke="currentColor" fill="none"/>
<use x="167.73" y="109.01" xlink:href="#hd"/>
<path d="M171.23 109.01v-19.00" stroke="currentColor" fill="none"/>
<defs>
<path id="hl" stroke="currentColor" d="m-6 0h12"/>
</defs>
<use x="186.43" y="112.01" xlink:href="#hl"/>
<use x="186.43" y="112.01" xlink:href="#hd"/>
<path d="M189.93 112.01v-19.70" stroke="currentColor" fill="none"/>
<path fill="currentColor"
	d="M210.43 93.71l38.20 -4.00v3.20l-38.20 4.00"/>
<use x="207.23" y="112.01" xlink:href="#hl"/>
<use x="207.23" y="115.01" xlink:href="#hd"/>
<path d="M210.73 115.01v-20.40" stroke="currentColor" fill="none"/>
<use x="226.03" y="112.01" xlink:href="#hl"/>
<use x="226.03" y="112.01" xlink:href="#hd"/>
<path d="M229.53 112.01v-19.30" stroke="currentColor" fill="none"/>
<use x="244.73" y="109.01" xlink:href="#hd"/>
<path d="M248.23 109.01v-18.30" stroke="currentColor" fill="none"/>
<path fill="currentColor"
	d="M268.63 85.31l38.10 -4.60v3.20l-38.10 4.60"/>
<use x="265.53" y="106.01" xlink:href="#hd"/>
<path d="M269.03 106.01v-19.70" stroke="currentColor" fill="none"/>
<use x="284.23" y="103.01" xlink:href="#hd"/>
<path d="M287.73 103.01v-19.00" stroke="currentColor" fill="none"/>
<use x="302.93" y="100.01" xlink:href="#hd"/>
<path d="M306.43 100.01v-18.30" stroke="currentColor" fill="none"/>
<defs>
<path id="HD" fill="currentColor" d="m-2.7 -1.4
	c1.5 -2.8 6.9 0 5.3 2.7
	c-1.5 2.8 -6.9 0 -5.3 -2.7
	m8.3 1.4
	c0 -1.5 -2.2 -3 -5.6 -3
	c-3.4 0 -5.6 1.5 -5.6 3
	c0 1.5 2.2 3 5.6 3
	c3.4 0 5.6 -1.5 5.6 -3"/>
</defs>
<use x="334.63" y="103.01" xlink:href="#HD"/>
<circle fill="currentColor" cx="344.63" cy="103.01" r="1.2"/>
<use x="399.13" y="94.01" xlink:href="#r8"/>
<path fill="currentColor"
	d="M421.03 80.31l19.40 2.40v3.20l-19.40 -2.40"/>
<use x="417.83" y="100.01" xlink:href="#hd"/>
<path d="M421.33 100.01v-18.60" stroke="currentColor" fill="none"/>
<use x="436.53" y="103.01" xlink:href="#hd"/>
<path d="M440.03 103.01v-19.40" stroke="currentColor" fill="none"/>
<path fill="currentColor"
	d="M460.43 86.71l38.10 4.60v3.20l-38.10 -4.60"/>
<use x="457.23" y="106.01" xlink:href="#hd"/>
<path d="M460.73 106.01v-18.30" stroke="currentColor" fill="none"/>
<use x="476.03" y="109.01" xlink:href="#hd"/>
<path d="M479.53 109.01v-19.00" stroke="currentColor" fill="none"/>
<use x="494.73" y="112.01" xlink:href="#hl"/>
<use x="494.73" y="112.01" xlink:href="#hd"/>
<path d="M498.23 112.01v-19.70" stroke="currentColor" fill="none"/>
<path fill="currentColor"
	d="M518.73 93.71l38.20 -4.00v3.20l-38.20 4.00"/>
<use x="515.53" y="112.01" xlink:href="#hl"/>
<use x="515.53" y="115.01" xlink:href="#hd"/>
<path d="M519.03 115.01v-20.40" stroke="currentColor" fill="none"/>
<use x="534.33" y="112.01" xlink:href="#hl"/>
<use x="534.33" y="112.01" xlink:href="#hd"/>
<path d="M537.83 112.01v-19.30" stroke="currentColor" fill="none"/>
<use x="553.03" y="109.01" xlink:href="#hd"/>
<path d="M556.53 109.01v-18.30" stroke="currentColor" fill="none"/>
<path fill="currentColor"
	d="M576.93 80.01l38.10 -5.30v3.20l-38.10 5.30"/>
<use x="573.83" y="106.01" xlink:href="#hd"/>
<path d="M577.33 106.01v-25.00" stroke="currentColor" fill="none"/>
<use x="592.53" y="103.01" xlink:href="#hd"/>
<path d="M596.03 103.01v-24.60" stroke="currentColor" fill="none"/>
<use x="611.23" y="94.01" xlink:href="#hd"/>
<path d="M614.73 94.01v-18.20" stroke="currentColor" fill="none"/>
<use x="642.93" y="97.01" xlink:href="#HD"/>
<circle fill="currentColor" cx="652.93" cy="97.01" r="1.2"/>
</g>
</svg>
