<?xml version="1.0" standalone="no"?>
<!DOCTYPE svg PUBLIC "-//W3C//DTD SVG 1.1//EN"
	"http://www.w3.org/Graphics/SVG/1.1/DTD/svg11.dtd">
<svg xmlns="http://www.w3.org/2000/svg" version="1.1"
	xmlns:xlink="http://www.w3.org/1999/xlink"
	xml:space='preserve' color="black"
	width="7.38in" height="1.46in" viewBox="0 0 531 105">
<title>4827.abc (4827) tune 1</title>
<!-- Creator: abcm2ps-7.8.14 -->
<!-- CreationDate: Mar 13, 2016 18:54 -->
<!-- CommandLine: -qxg 4827.abc -O ../svgs/4827.svg -->
<g transform="scale(0.750)" stroke-width="0.70" font-family="Times" font-size="20.00">
<text x="354.13" y="21.67" text-anchor="middle">4827.  Notturno, Op. 28, No. 1, 2nd. Theme</text>
</g>
<g transform="scale(0.750)" stroke-width="0.70" font-family="Times" font-size="14.00" font-style="italic">
<text x="694.93" y="45.34" text-anchor="end">Riccardo Pick-Mangiagalli</text>
</g>
<g transform="scale(0.525)" stroke-width="0.70" font-family="Times" font-size="14.00" font-style="italic">
<defs>
<ellipse id="hd" rx="4.1" ry="2.9"
	transform="rotate(-20)" fill="currentColor"/>
</defs>
<use x="123.47" y="94.16" xlink:href="#hd"/>
<path d="M126.97 94.16v-20.00" stroke="currentColor" fill="none"/>
</g>
<g transform="scale(0.750)" stroke-width="0.70" font-family="Times" font-size="15.00" font-weight="bold">
<text x="94.13" y="68.01">= 120</text>
<path stroke="currentColor" fill="none"
	d="M184.83 117.01v-24.00"/>
<path stroke="currentColor" fill="none"
	d="M278.83 117.01v-24.00"/>
<path stroke="currentColor" fill="none"
	d="M397.63 117.01v-24.00"/>
<path stroke="currentColor" fill="none"
	d="M498.13 117.01v-24.00"/>
<path stroke="currentColor" fill="none"
	d="M616.83 117.01v-24.00"/>
<path stroke="currentColor" fill="none"
	d="M13.33 117.01h681.60m-681.60 -6h681.60m-681.60 -6h681.60m-681.60 -6h681.60m-681.60 -6h681.60"/>
<defs>
<path id="utclef" fill="currentColor" d="m-50 -90
	c-72 -41 -72 -158 52 -188
	c150 -10 220 188 90 256
	c-114 52 -275 0 -293 -136
	c-15 -181 93 -229 220 -334
	c88 -87 79 -133 62 -210
	c-51 33 -94 105 -89 186
	c17 267 36 374 49 574
	c6 96 -19 134 -77 135
	c-80 1 -126 -93 -61 -133
	c85 -41 133 101 31 105
	c23 17 92 37 90 -92
	c-10 -223 -39 -342 -50 -617
	c0 -90 0 -162 96 -232
	c56 72 63 230 22 289
	c-74 106 -257 168 -255 316
	c9 153 148 185 252 133
	c86 -65 29 -192 -80 -176
	c-71 12 -105 67 -59 124"/>
<use id="tclef" transform="scale(0.045)"
	xlink:href="#utclef"/>
</defs>
<use x="25.33" y="117.01" xlink:href="#tclef"/>
<defs>
<path id="uflat" fill="currentColor" d="
	m100 -746
	h32
	v734
	l-32 4
	m32 -332
	c46 -72 152 -90 208 -20
	c100 110 -120 326 -208 348
	m0 -28
	c54 0 200 -206 130 -290
	c-50 -60 -130 -4 -130 34"/>
<use id="ft0" transform="translate(-3.5,3.5) scale(0.018)"
	xlink:href="#uflat"/>
</defs>
<use x="40.33" y="105.01" xlink:href="#ft0"/>
<use x="45.83" y="96.01" xlink:href="#ft0"/>
<g font-family="serif" font-size="16" font-weight="bold" font-style="normal"
	transform="translate(61.83,117.01) scale(1.2,1)">
	<text y="-1" text-anchor="middle">4</text>
	<text y="-13" text-anchor="middle">3</text>
</g>
<use x="85.83" y="90.01" xlink:href="#hd"/>
<use x="76.83" y="90.01" xlink:href="#ft0"/>
<path d="M82.33 90.01v20.00" stroke="currentColor" fill="none"/>
<defs>
<path id="hl" stroke="currentColor" d="m-6 0h12"/>
</defs>
<use x="115.63" y="87.01" xlink:href="#hl"/>
<use x="115.63" y="81.01" xlink:href="#hl"/>
<use x="115.63" y="78.01" xlink:href="#hd"/>
<path d="M112.13 78.01v27.00" stroke="currentColor" fill="none"/>
<path fill="currentColor"
	d="M142.83 107.01l26.20 0.00v-3.20l-26.20 -0.00"/>
<path fill="currentColor"
	d="M162.63 102.01l6.00 0.00v-3.20l-6.00 -0.00"/>
<use x="146.63" y="87.01" xlink:href="#hl"/>
<use x="146.63" y="81.01" xlink:href="#hl"/>
<use x="146.63" y="78.01" xlink:href="#hd"/>
<circle fill="currentColor" cx="154.63" cy="78.01" r="1.2"/>
<use x="137.63" y="78.01" xlink:href="#ft0"/>
<path d="M143.13 78.01v28.00" stroke="currentColor" fill="none"/>
<use x="172.13" y="87.01" xlink:href="#hl"/>
<use x="172.13" y="84.01" xlink:href="#hd"/>
<defs>
<path id="unat" fill="currentColor" d="
	m96 -750
	h-32
	v716
	l32 -8
	l182 -54
	v282
	h32
	v-706
	l-34 10
	l-180 50
	v-290
	m0 592
	v-190
	l182 -52
	v188"/>
<use id="nt0" transform="translate(-3,5) scale(0.018)"
	xlink:href="#unat"/>
</defs>
<use x="163.13" y="84.01" xlink:href="#nt0"/>
<path d="M168.63 84.01v22.00" stroke="currentColor" fill="none"/>
<use x="197.83" y="87.01" xlink:href="#hl"/>
<defs>
<path id="Hd" fill="currentColor" d="m3 -1.6
	c-1 -1.8 -7 1.4 -6 3.2
	c1 1.8 7 -1.4 6 -3.2
	m0.5 -0.3
	c2 3.8 -5 7.6 -7 3.8
	c-2 -3.8 5 -7.6 7 -3.8"/>
</defs>
<use x="197.83" y="87.01" xlink:href="#Hd"/>
<path d="M194.33 87.01v20.00" stroke="currentColor" fill="none"/>
<path fill="currentColor"
	d="M236.93 107.31l21.30 2.40v-3.20l-21.30 -2.40"/>
<use x="240.83" y="87.01" xlink:href="#hl"/>
<use x="240.83" y="87.01" xlink:href="#hd"/>
<use x="231.83" y="87.01" xlink:href="#ft0"/>
<path d="M237.33 87.01v19.30" stroke="currentColor" fill="none"/>
<use x="261.43" y="90.01" xlink:href="#hd"/>
<use x="252.43" y="90.01" xlink:href="#nt0"/>
<path d="M257.93 90.01v18.70" stroke="currentColor" fill="none"/>
<use x="297.33" y="90.01" xlink:href="#hd"/>
<use x="288.33" y="90.01" xlink:href="#ft0"/>
<path d="M293.83 90.01v20.00" stroke="currentColor" fill="none"/>
<use x="328.33" y="87.01" xlink:href="#hl"/>
<use x="328.33" y="81.01" xlink:href="#hl"/>
<use x="328.33" y="78.01" xlink:href="#hd"/>
<use x="319.33" y="78.01" xlink:href="#nt0"/>
<path d="M324.83 78.01v27.00" stroke="currentColor" fill="none"/>
<path fill="currentColor"
	d="M355.53 107.01l26.20 0.00v-3.20l-26.20 -0.00"/>
<path fill="currentColor"
	d="M375.33 102.01l6.00 0.00v-3.20l-6.00 -0.00"/>
<use x="359.33" y="87.01" xlink:href="#hl"/>
<use x="359.33" y="81.01" xlink:href="#hl"/>
<use x="359.33" y="78.01" xlink:href="#hd"/>
<circle fill="currentColor" cx="367.33" cy="78.01" r="1.2"/>
<use x="350.33" y="78.01" xlink:href="#ft0"/>
<path d="M355.83 78.01v28.00" stroke="currentColor" fill="none"/>
<use x="384.83" y="87.01" xlink:href="#hl"/>
<use x="384.83" y="84.01" xlink:href="#hd"/>
<use x="375.83" y="84.01" xlink:href="#nt0"/>
<path d="M381.33 84.01v22.00" stroke="currentColor" fill="none"/>
<use x="417.13" y="87.01" xlink:href="#hl"/>
<use x="417.13" y="87.01" xlink:href="#Hd"/>
<use x="407.13" y="87.01" xlink:href="#nt0"/>
<path d="M413.63 87.01v20.00" stroke="currentColor" fill="none"/>
<path fill="currentColor"
	d="M456.23 107.31l21.30 2.40v-3.20l-21.30 -2.40"/>
<use x="460.03" y="87.01" xlink:href="#hl"/>
<use x="460.03" y="87.01" xlink:href="#hd"/>
<use x="451.03" y="87.01" xlink:href="#ft0"/>
<path d="M456.53 87.01v19.30" stroke="currentColor" fill="none"/>
<use x="480.63" y="90.01" xlink:href="#hd"/>
<use x="471.63" y="90.01" xlink:href="#nt0"/>
<path d="M477.13 90.01v18.70" stroke="currentColor" fill="none"/>
<use x="516.63" y="90.01" xlink:href="#hd"/>
<use x="507.63" y="90.01" xlink:href="#ft0"/>
<path d="M513.13 90.01v20.00" stroke="currentColor" fill="none"/>
<use x="547.63" y="87.01" xlink:href="#hl"/>
<use x="547.63" y="81.01" xlink:href="#hl"/>
<use x="547.63" y="78.01" xlink:href="#hd"/>
<use x="538.63" y="78.01" xlink:href="#nt0"/>
<path d="M544.13 78.01v27.00" stroke="currentColor" fill="none"/>
<path fill="currentColor"
	d="M574.73 105.21l26.20 0.00v-3.20l-26.20 -0.00"/>
<path fill="currentColor"
	d="M594.63 100.21l6.00 0.00v-3.20l-6.00 -0.00"/>
<use x="578.63" y="87.01" xlink:href="#hl"/>
<use x="578.63" y="81.01" xlink:href="#hl"/>
<use x="578.63" y="78.01" xlink:href="#hd"/>
<circle fill="currentColor" cx="586.63" cy="78.01" r="1.2"/>
<use x="569.63" y="78.01" xlink:href="#ft0"/>
<path d="M575.13 78.01v26.20" stroke="currentColor" fill="none"/>
<use x="604.13" y="87.01" xlink:href="#hl"/>
<use x="604.13" y="81.01" xlink:href="#hl"/>
<use x="604.13" y="78.01" xlink:href="#hd"/>
<use x="595.13" y="78.01" xlink:href="#nt0"/>
<path d="M600.63 78.01v26.20" stroke="currentColor" fill="none"/>
<use x="635.33" y="87.01" xlink:href="#hl"/>
<use x="635.33" y="84.01" xlink:href="#hd"/>
<use x="626.33" y="84.01" xlink:href="#nt0"/>
<path d="M631.83 84.01v21.00" stroke="currentColor" fill="none"/>
<use x="666.33" y="87.01" xlink:href="#hl"/>
<use x="666.33" y="81.01" xlink:href="#hl"/>
<use x="666.33" y="75.01" xlink:href="#hl"/>
<use x="666.33" y="69.01" xlink:href="#hl"/>
<use x="666.33" y="69.01" xlink:href="#hd"/>
<use x="657.33" y="69.01" xlink:href="#ft0"/>
<path d="M662.83 69.01v36.00" stroke="currentColor" fill="none"/>
</g>
</svg>
