<?xml version="1.0" standalone="no"?>
<!DOCTYPE svg PUBLIC "-//W3C//DTD SVG 1.1//EN"
	"http://www.w3.org/Graphics/SVG/1.1/DTD/svg11.dtd">
<svg xmlns="http://www.w3.org/2000/svg" version="1.1"
	xmlns:xlink="http://www.w3.org/1999/xlink"
	xml:space='preserve' color="black"
	width="7.38in" height="1.34in" viewBox="0 0 531 97">
<title>4875.abc (4875) tune 1</title>
<!-- Creator: abcm2ps-7.8.14 -->
<!-- CreationDate: Mar 13, 2016 18:54 -->
<!-- CommandLine: -qxg 4875.abc -O ../svgs/4875.svg -->
<g transform="scale(0.750)" stroke-width="0.70" font-family="Times" font-size="20.00">
<text x="354.13" y="21.67" text-anchor="middle">4875.  Suite for Oboe and Pft., 2nd. Mvt. - Sarabande</text>
</g>
<g transform="scale(0.750)" stroke-width="0.70" font-family="Times" font-size="14.00" font-style="italic">
<text x="694.93" y="45.34" text-anchor="end">Walter Piston</text>
</g>
<g transform="scale(0.525)" stroke-width="0.70" font-family="Times" font-size="14.00" font-style="italic">
<defs>
<ellipse id="hd" rx="4.1" ry="2.9"
	transform="rotate(-20)" fill="currentColor"/>
</defs>
<use x="89.90" y="94.16" xlink:href="#hd"/>
<path d="M93.40 94.16v-20.00" stroke="currentColor" fill="none"/>
</g>
<g transform="scale(0.750)" stroke-width="0.70" font-family="Times" font-size="15.00" font-weight="bold">
<text x="70.63" y="68.01">= 120</text>
<path stroke="currentColor" fill="none"
	d="M94.83 106.01v-24.00"/>
<path stroke="currentColor" fill="none"
	d="M176.13 106.01v-24.00"/>
<path stroke="currentColor" fill="none"
	d="M242.33 106.01v-24.00"/>
<path stroke="currentColor" fill="none"
	d="M332.53 106.01v-24.00"/>
<path stroke="currentColor" fill="none"
	d="M426.03 106.01v-24.00"/>
<path stroke="currentColor" fill="none"
	d="M537.03 106.01v-24.00"/>
<path stroke="currentColor" fill="none"
	d="M642.13 106.01v-24.00"/>
<path stroke="currentColor" fill="none"
	d="M13.33 106.01h681.60m-681.60 -6h681.60m-681.60 -6h681.60m-681.60 -6h681.60m-681.60 -6h681.60"/>
<defs>
<path id="utclef" fill="currentColor" d="m-50 -90
	c-72 -41 -72 -158 52 -188
	c150 -10 220 188 90 256
	c-114 52 -275 0 -293 -136
	c-15 -181 93 -229 220 -334
	c88 -87 79 -133 62 -210
	c-51 33 -94 105 -89 186
	c17 267 36 374 49 574
	c6 96 -19 134 -77 135
	c-80 1 -126 -93 -61 -133
	c85 -41 133 101 31 105
	c23 17 92 37 90 -92
	c-10 -223 -39 -342 -50 -617
	c0 -90 0 -162 96 -232
	c56 72 63 230 22 289
	c-74 106 -257 168 -255 316
	c9 153 148 185 252 133
	c86 -65 29 -192 -80 -176
	c-71 12 -105 67 -59 124"/>
<use id="tclef" transform="scale(0.045)"
	xlink:href="#utclef"/>
</defs>
<use x="25.33" y="106.01" xlink:href="#tclef"/>
<g font-family="serif" font-size="16" font-weight="bold" font-style="normal"
	transform="translate(43.83,106.01) scale(1.2,1)">
	<text y="-1" text-anchor="middle">4</text>
	<text y="-13" text-anchor="middle">3</text>
</g>
<defs>
<path id="Hd" fill="currentColor" d="m3 -1.6
	c-1 -1.8 -7 1.4 -6 3.2
	c1 1.8 7 -1.4 6 -3.2
	m0.5 -0.3
	c2 3.8 -5 7.6 -7 3.8
	c-2 -3.8 5 -7.6 7 -3.8"/>
</defs>
<use x="62.33" y="94.01" xlink:href="#Hd"/>
<circle fill="currentColor" cx="72.33" cy="91.01" r="1.2"/>
<path d="M58.83 94.01v20.00" stroke="currentColor" fill="none"/>
<use x="107.33" y="94.01" xlink:href="#hd"/>
<path d="M103.83 94.01v20.00" stroke="currentColor" fill="none"/>
<use x="131.73" y="94.01" xlink:href="#hd"/>
<path d="M128.23 94.01v20.00" stroke="currentColor" fill="none"/>
<use x="156.23" y="88.01" xlink:href="#hd"/>
<path d="M152.73 88.01v20.00" stroke="currentColor" fill="none"/>
<use x="188.63" y="94.01" xlink:href="#hd"/>
<path d="M185.13 94.01v20.00" stroke="currentColor" fill="none"/>
<use x="214.63" y="82.01" xlink:href="#Hd"/>
<defs>
<path id="usharp" fill="currentColor" d="
	m136 -702
	v890
	h32
	v-890
	m128 840
	h32
	v-888
	h-32
	m-232 286
	v116
	l338 -96
	v-116
	m-338 442
	v116
	l338 -98
	v-114"/>
<use id="sh0" transform="translate(-4,5) scale(0.018)"
	xlink:href="#usharp"/>
</defs>
<use x="204.63" y="82.01" xlink:href="#sh0"/>
<path d="M211.13 82.01v20.00" stroke="currentColor" fill="none"/>
<use x="260.83" y="82.01" xlink:href="#hd"/>
<use x="251.83" y="82.01" xlink:href="#sh0"/>
<path d="M257.33 82.01v20.00" stroke="currentColor" fill="none"/>
<use x="286.73" y="88.01" xlink:href="#hd"/>
<use x="277.73" y="88.01" xlink:href="#sh0"/>
<path d="M283.23 88.01v20.00" stroke="currentColor" fill="none"/>
<use x="312.53" y="88.01" xlink:href="#hd"/>
<defs>
<path id="unat" fill="currentColor" d="
	m96 -750
	h-32
	v716
	l32 -8
	l182 -54
	v282
	h32
	v-706
	l-34 10
	l-180 50
	v-290
	m0 592
	v-190
	l182 -52
	v188"/>
<use id="nt0" transform="translate(-3,5) scale(0.018)"
	xlink:href="#unat"/>
</defs>
<use x="303.53" y="88.01" xlink:href="#nt0"/>
<path d="M309.03 88.01v20.00" stroke="currentColor" fill="none"/>
<path fill="currentColor"
	d="M341.13 110.61l16.80 -2.30v-3.20l-16.80 2.30"/>
<use x="345.03" y="91.01" xlink:href="#hd"/>
<path d="M341.53 91.01v18.60" stroke="currentColor" fill="none"/>
<use x="361.03" y="88.01" xlink:href="#hd"/>
<path d="M357.53 88.01v19.40" stroke="currentColor" fill="none"/>
<use x="380.23" y="88.01" xlink:href="#hd"/>
<use x="371.23" y="88.01" xlink:href="#sh0"/>
<path d="M376.73 88.01v20.00" stroke="currentColor" fill="none"/>
<use x="406.13" y="88.01" xlink:href="#hd"/>
<use x="397.13" y="88.01" xlink:href="#nt0"/>
<path d="M402.63 88.01v20.00" stroke="currentColor" fill="none"/>
<path fill="currentColor"
	d="M434.63 108.21l32.80 2.60v-3.20l-32.80 -2.60"/>
<use x="438.53" y="88.01" xlink:href="#hd"/>
<path d="M435.03 88.01v19.20" stroke="currentColor" fill="none"/>
<defs>
<path id="r8e" fill="currentColor" d="m 0 0
	c-1.5 1.5 -2.4 2 -3.6 2
	c2.4 -2.8 -2.8 -4 -2.8 -1.2
	c0 2.7 4.3 2.4 5.9 0.6"/>
<g id="r8">
	<path d="m3.3 -4l-3.4 9.6" stroke="currentColor" fill="none"/>
	<use x="3.4" y="-4" xlink:href="#r8e"/>
</g>
</defs>
<use x="454.63" y="94.01" xlink:href="#r8"/>
<use x="470.73" y="91.01" xlink:href="#hd"/>
<path d="M467.23 91.01v18.80" stroke="currentColor" fill="none"/>
<path fill="currentColor"
	d="M484.53 109.01l34.80 0.00v-3.20l-34.80 -0.00"/>
<use x="488.43" y="88.01" xlink:href="#hd"/>
<path d="M484.93 88.01v20.00" stroke="currentColor" fill="none"/>
<use x="504.53" y="88.01" xlink:href="#hd"/>
<path d="M501.03 88.01v20.00" stroke="currentColor" fill="none"/>
<use x="522.53" y="88.01" xlink:href="#hd"/>
<use x="513.53" y="88.01" xlink:href="#sh0"/>
<path d="M519.03 88.01v20.00" stroke="currentColor" fill="none"/>
<path fill="currentColor"
	d="M551.73 108.41l16.80 2.30v-3.20l-16.80 -2.30"/>
<use x="555.53" y="88.01" xlink:href="#hd"/>
<use x="546.53" y="88.01" xlink:href="#nt0"/>
<path d="M552.03 88.01v19.40" stroke="currentColor" fill="none"/>
<use x="571.63" y="91.01" xlink:href="#hd"/>
<path d="M568.13 91.01v18.60" stroke="currentColor" fill="none"/>
<use x="589.33" y="94.01" xlink:href="#hd"/>
<path d="M585.83 94.01v20.00" stroke="currentColor" fill="none"/>
<path fill="currentColor"
	d="M614.63 77.41l16.80 2.30v3.20l-16.80 -2.30"/>
<use x="611.43" y="97.01" xlink:href="#hd"/>
<path d="M614.93 97.01v-18.60" stroke="currentColor" fill="none"/>
<use x="627.53" y="100.01" xlink:href="#hd"/>
<path d="M631.03 100.01v-19.40" stroke="currentColor" fill="none"/>
<use x="661.63" y="103.01" xlink:href="#Hd"/>
<use x="651.63" y="103.01" xlink:href="#nt0"/>
<path d="M665.13 103.01v-20.00" stroke="currentColor" fill="none"/>
<path fill="currentColor"
	d="M65.83 88.01c5.99 -5.18 32.02 -5.18 38.00 -0.00
	l0.00 -0.24c-7.13 -6.95 -30.88 -6.95 -38.00 0.24"/>
<path fill="currentColor"
	d="M218.13 82.01c6.16 -5.20 32.97 -5.20 39.14 -0.00
	l0.00 -0.24c-7.34 -6.97 -31.80 -6.97 -39.14 0.24"/>
<path fill="currentColor"
	d="M409.63 88.01c4.00 -4.96 21.42 -4.96 25.42 -0.00
	l0.00 -0.23c-4.77 -6.73 -20.65 -6.73 -25.42 0.23"/>
</g>
</svg>
