<?xml version="1.0" standalone="no"?>
<!DOCTYPE svg PUBLIC "-//W3C//DTD SVG 1.1//EN"
	"http://www.w3.org/Graphics/SVG/1.1/DTD/svg11.dtd">
<svg xmlns="http://www.w3.org/2000/svg" version="1.1"
	xmlns:xlink="http://www.w3.org/1999/xlink"
	xml:space='preserve' color="black"
	width="7.38in" height="1.39in" viewBox="0 0 531 100">
<title>4889.abc (4889) tune 1</title>
<!-- Creator: abcm2ps-7.8.14 -->
<!-- CreationDate: Mar 13, 2016 18:54 -->
<!-- CommandLine: -qxg 4889.abc -O ../svgs/4889.svg -->
<g transform="scale(0.750)" stroke-width="0.70" font-family="Times" font-size="20.00">
<text x="354.13" y="21.67" text-anchor="middle">4889.  Sonata No. 1 in E Minor, 2nd. Mvt.</text>
</g>
<g transform="scale(0.750)" stroke-width="0.70" font-family="Times" font-size="14.00" font-style="italic">
<text x="694.93" y="45.34" text-anchor="end">Giovanni Platti</text>
</g>
<g transform="scale(0.525)" stroke-width="0.70" font-family="Times" font-size="14.00" font-style="italic">
<defs>
<ellipse id="hd" rx="4.1" ry="2.9"
	transform="rotate(-20)" fill="currentColor"/>
</defs>
<use x="107.04" y="94.16" xlink:href="#hd"/>
<path d="M110.54 94.16v-20.00" stroke="currentColor" fill="none"/>
</g>
<g transform="scale(0.750)" stroke-width="0.70" font-family="Times" font-size="15.00" font-weight="bold">
<text x="82.63" y="68.01">= 120</text>
<path stroke="currentColor" fill="none"
	d="M228.93 110.01v-24.00"/>
<path stroke="currentColor" fill="none"
	d="M393.13 110.01v-24.00"/>
<path stroke="currentColor" fill="none"
	d="M560.43 110.01v-24.00"/>
<path stroke="currentColor" fill="none"
	d="M13.33 110.01h681.60m-681.60 -6h681.60m-681.60 -6h681.60m-681.60 -6h681.60m-681.60 -6h681.60"/>
<path stroke="currentColor" fill="none"
	d="M154.13 74.31v-3l33.20 6.00v3"/>
<rect x="163.73" y="68.31" width="14.00" height="12" fill="white"/>
<text font-family="serif" font-size="12" font-style="italic" font-weight="normal"
	x="170.73" y="78.31" text-anchor="middle">3</text>
<path stroke="currentColor" fill="none"
	d="M485.63 71.31v-3l33.20 6.00v3"/>
<rect x="495.23" y="65.31" width="14.00" height="12" fill="white"/>
<text font-family="serif" font-size="12" font-style="italic" font-weight="normal"
	x="502.23" y="75.31" text-anchor="middle">3</text>
<defs>
<path id="utclef" fill="currentColor" d="m-50 -90
	c-72 -41 -72 -158 52 -188
	c150 -10 220 188 90 256
	c-114 52 -275 0 -293 -136
	c-15 -181 93 -229 220 -334
	c88 -87 79 -133 62 -210
	c-51 33 -94 105 -89 186
	c17 267 36 374 49 574
	c6 96 -19 134 -77 135
	c-80 1 -126 -93 -61 -133
	c85 -41 133 101 31 105
	c23 17 92 37 90 -92
	c-10 -223 -39 -342 -50 -617
	c0 -90 0 -162 96 -232
	c56 72 63 230 22 289
	c-74 106 -257 168 -255 316
	c9 153 148 185 252 133
	c86 -65 29 -192 -80 -176
	c-71 12 -105 67 -59 124"/>
<use id="tclef" transform="scale(0.045)"
	xlink:href="#utclef"/>
</defs>
<use x="25.33" y="110.01" xlink:href="#tclef"/>
<defs>
<path id="usharp" fill="currentColor" d="
	m136 -702
	v890
	h32
	v-890
	m128 840
	h32
	v-888
	h-32
	m-232 286
	v116
	l338 -96
	v-116
	m-338 442
	v116
	l338 -98
	v-114"/>
<use id="sh0" transform="translate(-4,5) scale(0.018)"
	xlink:href="#usharp"/>
</defs>
<use x="40.33" y="86.01" xlink:href="#sh0"/>
<g font-family="serif" font-size="16" font-weight="bold" font-style="normal"
	transform="translate(56.33,110.01) scale(1.2,1)">
	<text y="-1" text-anchor="middle">4</text>
	<text y="-13" text-anchor="middle">3</text>
</g>
<use x="74.33" y="104.01" xlink:href="#hd"/>
<path d="M77.83 104.01v-20.00" stroke="currentColor" fill="none"/>
<use x="109.83" y="83.01" xlink:href="#hd"/>
<path d="M106.33 83.01v20.00" stroke="currentColor" fill="none"/>
<use x="145.43" y="83.01" xlink:href="#hd"/>
<path d="M141.93 83.01v25.00" stroke="currentColor" fill="none"/>
<path fill="currentColor"
	d="M141.93 108.01c0.9 -3.7 9.1 -6.4 6 -12.4
	c1 5.4 -4.2 8.4 -6 8.4
M141.93 102.61c0.9 -3.7 9.1 -6.4 6 -12.4
	c1 5.4 -4.2 8.4 -6 8.4
M141.93 97.21c0.9 -3.7 9.1 -6.4 6 -12.4
	c1 5.4 -4.2 8.4 -6 8.4
"/>
<path fill="currentColor"
	d="M154.33 116.71l61.30 6.50v-3.20l-61.30 -6.50"/>
<path fill="currentColor"
	d="M154.63 111.81l60.60 6.40v-3.20l-60.60 -6.40"/>
<path fill="currentColor"
	d="M192.33 110.81l22.80 2.40v-3.20l-22.80 -2.40"/>
<use x="158.13" y="86.01" xlink:href="#hd"/>
<path d="M154.63 86.01v29.80" stroke="currentColor" fill="none"/>
<use x="170.73" y="89.01" xlink:href="#hd"/>
<path d="M167.23 89.01v28.10" stroke="currentColor" fill="none"/>
<use x="183.33" y="92.01" xlink:href="#hd"/>
<path d="M179.83 92.01v26.40" stroke="currentColor" fill="none"/>
<use x="195.83" y="95.01" xlink:href="#hd"/>
<path d="M192.33 95.01v24.80" stroke="currentColor" fill="none"/>
<defs>
<path id="r8e" fill="currentColor" d="m 0 0
	c-1.5 1.5 -2.4 2 -3.6 2
	c2.4 -2.8 -2.8 -4 -2.8 -1.2
	c0 2.7 4.3 2.4 5.9 0.6"/>
<g id="r32">
	<path d="m4.8 -10l-5.5 21.6" stroke="currentColor" fill="none"/>
	<use x="4.9" y="-10" xlink:href="#r8e"/>
	<use x="3.4" y="-4" xlink:href="#r8e"/>
	<use x="1.9" y="2" xlink:href="#r8e"/>
</g>
</defs>
<use x="207.33" y="98.01" xlink:href="#r32"/>
<use x="218.73" y="98.01" xlink:href="#hd"/>
<path d="M215.23 98.01v24.20" stroke="currentColor" fill="none"/>
<path fill="currentColor"
	d="M237.83 122.91l57.80 0.00v-3.20l-57.80 -0.00"/>
<path fill="currentColor"
	d="M238.13 117.91l57.10 0.00v-3.20l-57.10 -0.00"/>
<path fill="currentColor"
	d="M238.13 112.91l57.10 0.00v-3.20l-57.10 -0.00"/>
<use x="241.63" y="95.01" xlink:href="#hd"/>
<path d="M238.13 95.01v27.00" stroke="currentColor" fill="none"/>
<use x="253.13" y="92.01" xlink:href="#hd"/>
<path d="M249.63 92.01v30.00" stroke="currentColor" fill="none"/>
<use x="264.53" y="95.01" xlink:href="#hd"/>
<path d="M261.03 95.01v27.00" stroke="currentColor" fill="none"/>
<use x="275.93" y="92.01" xlink:href="#hd"/>
<path d="M272.43 92.01v30.00" stroke="currentColor" fill="none"/>
<use x="287.33" y="95.01" xlink:href="#hd"/>
<path d="M283.83 95.01v27.00" stroke="currentColor" fill="none"/>
<use x="298.83" y="92.01" xlink:href="#hd"/>
<path d="M295.33 92.01v30.00" stroke="currentColor" fill="none"/>
<use x="311.43" y="98.01" xlink:href="#hd"/>
<path d="M307.93 98.01v22.00" stroke="currentColor" fill="none"/>
<path fill="currentColor"
	d="M307.93 120.01c0.9 -3.7 9.1 -6.4 6 -12.4
	c1 5.4 -4.2 8.4 -6 8.4
M307.93 114.61c0.9 -3.7 9.1 -6.4 6 -12.4
	c1 5.4 -4.2 8.4 -6 8.4
"/>
<use x="329.23" y="95.01" xlink:href="#hd"/>
<path d="M325.73 95.01v20.00" stroke="currentColor" fill="none"/>
<defs>
<path id="r4" fill="currentColor" d="m-1 -8.5
	l3.6 5.1 -2.1 5.2 2.2 4.3
	c-2.6 -2.3 -5.1 0 -2.4 2.6
	c-4.8 -3 -1.5 -6.9 1.4 -4.1
	l-3.1 -4.5 1.9 -5.1 -1.5 -3.5"/>
</defs>
<use x="364.73" y="98.01" xlink:href="#r4"/>
<use x="405.83" y="101.01" xlink:href="#hd"/>
<path d="M409.33 101.01v-20.00" stroke="currentColor" fill="none"/>
<defs>
<path id="hl" stroke="currentColor" d="m-6 0h12"/>
</defs>
<use x="441.33" y="80.01" xlink:href="#hl"/>
<use x="441.33" y="80.01" xlink:href="#hd"/>
<path d="M437.83 80.01v20.00" stroke="currentColor" fill="none"/>
<use x="476.93" y="80.01" xlink:href="#hl"/>
<use x="476.93" y="80.01" xlink:href="#hd"/>
<path d="M473.43 80.01v25.00" stroke="currentColor" fill="none"/>
<path fill="currentColor"
	d="M473.43 105.01c0.9 -3.7 9.1 -6.4 6 -12.4
	c1 5.4 -4.2 8.4 -6 8.4
M473.43 99.61c0.9 -3.7 9.1 -6.4 6 -12.4
	c1 5.4 -4.2 8.4 -6 8.4
M473.43 94.21c0.9 -3.7 9.1 -6.4 6 -12.4
	c1 5.4 -4.2 8.4 -6 8.4
"/>
<path fill="currentColor"
	d="M485.83 115.61l61.30 6.50v-3.20l-61.30 -6.50"/>
<path fill="currentColor"
	d="M486.13 110.61l60.60 6.40v-3.20l-60.60 -6.40"/>
<path fill="currentColor"
	d="M523.93 109.61l22.80 2.40v-3.20l-22.80 -2.40"/>
<use x="489.63" y="83.01" xlink:href="#hd"/>
<path d="M486.13 83.01v31.60" stroke="currentColor" fill="none"/>
<use x="502.23" y="86.01" xlink:href="#hd"/>
<path d="M498.73 86.01v30.00" stroke="currentColor" fill="none"/>
<use x="514.83" y="89.01" xlink:href="#hd"/>
<path d="M511.33 89.01v28.30" stroke="currentColor" fill="none"/>
<use x="527.43" y="92.01" xlink:href="#hd"/>
<path d="M523.93 92.01v26.60" stroke="currentColor" fill="none"/>
<use x="538.83" y="98.01" xlink:href="#r32"/>
<use x="550.23" y="95.01" xlink:href="#hd"/>
<path d="M546.73 95.01v26.00" stroke="currentColor" fill="none"/>
<path fill="currentColor"
	d="M569.33 122.91l57.80 0.00v-3.20l-57.80 -0.00"/>
<path fill="currentColor"
	d="M569.73 117.91l57.10 0.00v-3.20l-57.10 -0.00"/>
<path fill="currentColor"
	d="M569.73 112.91l57.10 0.00v-3.20l-57.10 -0.00"/>
<use x="573.23" y="98.01" xlink:href="#hd"/>
<path d="M569.73 98.01v24.00" stroke="currentColor" fill="none"/>
<use x="584.63" y="95.01" xlink:href="#hd"/>
<path d="M581.13 95.01v27.00" stroke="currentColor" fill="none"/>
<use x="596.03" y="98.01" xlink:href="#hd"/>
<path d="M592.53 98.01v24.00" stroke="currentColor" fill="none"/>
<use x="607.43" y="95.01" xlink:href="#hd"/>
<path d="M603.93 95.01v27.00" stroke="currentColor" fill="none"/>
<use x="618.83" y="98.01" xlink:href="#hd"/>
<path d="M615.33 98.01v24.00" stroke="currentColor" fill="none"/>
<use x="630.33" y="95.01" xlink:href="#hd"/>
<path d="M626.83 95.01v27.00" stroke="currentColor" fill="none"/>
<use x="641.73" y="101.01" xlink:href="#hd"/>
<path d="M645.23 101.01v-21.00" stroke="currentColor" fill="none"/>
<path fill="currentColor"
	d="M645.23 80.01c0.9 3.7 9.1 6.4 6 12.4
	c1 -5.4 -4.2 -8.4 -6 -8.4
M645.23 85.41c0.9 3.7 9.1 6.4 6 12.4
	c1 -5.4 -4.2 -8.4 -6 -8.4
"/>
<use x="659.73" y="98.01" xlink:href="#hd"/>
<path d="M663.23 98.01v-20.00" stroke="currentColor" fill="none"/>
<path fill="currentColor"
	d="M113.33 81.01c4.51 -5.02 24.14 -5.02 28.65 -0.00
	l0.00 -0.23c-5.37 -6.79 -23.28 -6.79 -28.65 0.23"/>
<path fill="currentColor"
	d="M444.83 80.01c4.51 -5.02 24.14 -5.02 28.65 -0.00
	l0.00 -0.23c-5.37 -6.79 -23.28 -6.79 -28.65 0.23"/>
</g>
</svg>
