<?xml version="1.0" standalone="no"?>
<!DOCTYPE svg PUBLIC "-//W3C//DTD SVG 1.1//EN"
	"http://www.w3.org/Graphics/SVG/1.1/DTD/svg11.dtd">
<svg xmlns="http://www.w3.org/2000/svg" version="1.1"
	xmlns:xlink="http://www.w3.org/1999/xlink"
	xml:space='preserve' color="black"
	width="7.38in" height="1.61in" viewBox="0 0 531 116">
<title>4917.abc (4917) tune 1</title>
<!-- Creator: abcm2ps-7.8.14 -->
<!-- CreationDate: Mar 13, 2016 18:54 -->
<!-- CommandLine: -qxg 4917.abc -O ../svgs/4917.svg -->
<g transform="scale(0.750)" stroke-width="0.70" font-family="Times" font-size="20.00">
<text x="354.13" y="21.67" text-anchor="middle">4917.  Novelette No. 2, 1st. Theme</text>
</g>
<g transform="scale(0.750)" stroke-width="0.70" font-family="Times" font-size="14.00" font-style="italic">
<text x="694.93" y="45.34" text-anchor="end">Francis Poulenc</text>
</g>
<g transform="scale(0.525)" stroke-width="0.70" font-family="Times" font-size="14.00" font-style="italic">
<defs>
<ellipse id="hd" rx="4.1" ry="2.9"
	transform="rotate(-20)" fill="currentColor"/>
</defs>
<use x="138.47" y="94.16" xlink:href="#hd"/>
<path d="M141.97 94.16v-20.00" stroke="currentColor" fill="none"/>
</g>
<g transform="scale(0.750)" stroke-width="0.70" font-family="Times" font-size="15.00" font-weight="bold">
<text x="104.63" y="68.01">= 120</text>
<path stroke="currentColor" fill="none"
	d="M256.33 132.01v-24.00"/>
<path stroke="currentColor" fill="none"
	d="M391.03 132.01v-24.00"/>
<path stroke="currentColor" fill="none"
	d="M588.73 132.01v-24.00"/>
<path stroke="currentColor" fill="none"
	d="M13.33 132.01h681.60m-681.60 -6h681.60m-681.60 -6h681.60m-681.60 -6h681.60m-681.60 -6h681.60"/>
<text font-family="serif" font-size="12" font-style="italic" font-weight="normal"
	x="457.53" y="100.01" text-anchor="middle">3</text>
<text font-family="serif" font-size="12" font-style="italic" font-weight="normal"
	x="507.33" y="90.01" text-anchor="middle">3</text>
<text font-family="serif" font-size="12" font-style="italic" font-weight="normal"
	x="556.23" y="146.11" text-anchor="middle">3</text>
<defs>
<path id="utclef" fill="currentColor" d="m-50 -90
	c-72 -41 -72 -158 52 -188
	c150 -10 220 188 90 256
	c-114 52 -275 0 -293 -136
	c-15 -181 93 -229 220 -334
	c88 -87 79 -133 62 -210
	c-51 33 -94 105 -89 186
	c17 267 36 374 49 574
	c6 96 -19 134 -77 135
	c-80 1 -126 -93 -61 -133
	c85 -41 133 101 31 105
	c23 17 92 37 90 -92
	c-10 -223 -39 -342 -50 -617
	c0 -90 0 -162 96 -232
	c56 72 63 230 22 289
	c-74 106 -257 168 -255 316
	c9 153 148 185 252 133
	c86 -65 29 -192 -80 -176
	c-71 12 -105 67 -59 124"/>
<use id="tclef" transform="scale(0.045)"
	xlink:href="#utclef"/>
</defs>
<use x="25.33" y="132.01" xlink:href="#tclef"/>
<defs>
<path id="uflat" fill="currentColor" d="
	m100 -746
	h32
	v734
	l-32 4
	m32 -332
	c46 -72 152 -90 208 -20
	c100 110 -120 326 -208 348
	m0 -28
	c54 0 200 -206 130 -290
	c-50 -60 -130 -4 -130 34"/>
<use id="ft0" transform="translate(-3.5,3.5) scale(0.018)"
	xlink:href="#uflat"/>
</defs>
<use x="40.33" y="120.01" xlink:href="#ft0"/>
<use x="45.83" y="111.01" xlink:href="#ft0"/>
<use x="51.33" y="123.01" xlink:href="#ft0"/>
<use x="56.83" y="114.01" xlink:href="#ft0"/>
<use x="62.33" y="126.01" xlink:href="#ft0"/>
<g font-family="serif" font-size="16" font-weight="bold" font-style="normal"
	transform="translate(78.33,132.01) scale(1.2,1)">
	<text y="-1" text-anchor="middle">2</text>
	<text y="-13" text-anchor="middle">2</text>
</g>
<defs>
<path id="r8e" fill="currentColor" d="m 0 0
	c-1.5 1.5 -2.4 2 -3.6 2
	c2.4 -2.8 -2.8 -4 -2.8 -1.2
	c0 2.7 4.3 2.4 5.9 0.6"/>
<g id="r32">
	<path d="m4.8 -10l-5.5 21.6" stroke="currentColor" fill="none"/>
	<use x="4.9" y="-10" xlink:href="#r8e"/>
	<use x="3.4" y="-4" xlink:href="#r8e"/>
	<use x="1.9" y="2" xlink:href="#r8e"/>
</g>
</defs>
<use x="96.33" y="120.01" xlink:href="#r32"/>
<use x="106.03" y="120.01" xlink:href="#r32"/>
<defs>
<path id="hl" stroke="currentColor" d="m-6 0h12"/>
</defs>
<use x="116.63" y="102.01" xlink:href="#hl"/>
<use x="116.63" y="96.01" xlink:href="#hl"/>
<use x="116.63" y="90.01" xlink:href="#hl"/>
<use x="116.63" y="84.01" xlink:href="#hl"/>
<use x="116.63" y="78.01" xlink:href="#hl"/>
<use x="116.63" y="78.01" xlink:href="#hd"/>
<path d="M113.13 78.01v42.00" stroke="currentColor" fill="none"/>
<path fill="currentColor"
	d="M113.13 120.01c0.9 -3.7 9.1 -6.4 6 -12.4
	c1 5.4 -4.2 8.4 -6 8.4
M113.13 114.61c0.9 -3.7 9.1 -6.4 6 -12.4
	c1 5.4 -4.2 8.4 -6 8.4
"/>
<defs>
<g id="r8">
	<path d="m3.3 -4l-3.4 9.6" stroke="currentColor" fill="none"/>
	<use x="3.4" y="-4" xlink:href="#r8e"/>
</g>
</defs>
<use x="129.63" y="120.01" xlink:href="#r8"/>
<use x="149.23" y="102.01" xlink:href="#hl"/>
<use x="149.23" y="96.01" xlink:href="#hl"/>
<use x="149.23" y="90.01" xlink:href="#hl"/>
<use x="149.23" y="84.01" xlink:href="#hl"/>
<use x="149.23" y="84.01" xlink:href="#hd"/>
<path d="M145.73 84.01v36.00" stroke="currentColor" fill="none"/>
<path fill="currentColor"
	d="M145.73 120.01c0.6 -5.6 9.6 -9 5.6 -18.4
	c1.6 6 -1.3 11.6 -5.6 12.8
"/>
<use x="167.03" y="120.01" xlink:href="#r8"/>
<path fill="currentColor"
	d="M182.83 120.21l22.30 0.00v-3.20l-22.30 -0.00"/>
<path fill="currentColor"
	d="M198.83 115.21l6.00 0.00v-3.20l-6.00 -0.00"/>
<use x="186.73" y="102.01" xlink:href="#hl"/>
<use x="186.73" y="96.01" xlink:href="#hl"/>
<use x="186.73" y="90.01" xlink:href="#hl"/>
<use x="186.73" y="87.01" xlink:href="#hd"/>
<circle fill="currentColor" cx="194.73" cy="87.01" r="1.2"/>
<path d="M183.23 87.01v32.20" stroke="currentColor" fill="none"/>
<use x="208.33" y="102.01" xlink:href="#hl"/>
<use x="208.33" y="96.01" xlink:href="#hl"/>
<use x="208.33" y="90.01" xlink:href="#hl"/>
<use x="208.33" y="90.01" xlink:href="#hd"/>
<path d="M204.83 90.01v29.20" stroke="currentColor" fill="none"/>
<path fill="currentColor"
	d="M219.03 120.21l22.30 0.00v-3.20l-22.30 -0.00"/>
<path fill="currentColor"
	d="M235.03 115.21l6.00 0.00v-3.20l-6.00 -0.00"/>
<use x="222.93" y="102.01" xlink:href="#hl"/>
<use x="222.93" y="96.01" xlink:href="#hl"/>
<use x="222.93" y="93.01" xlink:href="#hd"/>
<circle fill="currentColor" cx="230.93" cy="93.01" r="1.2"/>
<path d="M219.43 93.01v26.20" stroke="currentColor" fill="none"/>
<use x="244.53" y="102.01" xlink:href="#hl"/>
<use x="244.53" y="96.01" xlink:href="#hl"/>
<use x="244.53" y="96.01" xlink:href="#hd"/>
<path d="M241.03 96.01v23.20" stroke="currentColor" fill="none"/>
<use x="268.83" y="102.01" xlink:href="#hl"/>
<use x="268.83" y="96.01" xlink:href="#hl"/>
<use x="268.83" y="90.01" xlink:href="#hl"/>
<use x="268.83" y="87.01" xlink:href="#hd"/>
<path d="M265.33 87.01v33.00" stroke="currentColor" fill="none"/>
<path fill="currentColor"
	d="M265.33 120.01c0.6 -5.6 9.6 -9 5.6 -18.4
	c1.6 6 -1.3 11.6 -5.6 12.8
"/>
<use x="286.63" y="120.01" xlink:href="#r8"/>
<use x="307.83" y="102.01" xlink:href="#hl"/>
<use x="307.83" y="102.01" xlink:href="#hd"/>
<defs>
<path id="unat" fill="currentColor" d="
	m96 -750
	h-32
	v716
	l32 -8
	l182 -54
	v282
	h32
	v-706
	l-34 10
	l-180 50
	v-290
	m0 592
	v-190
	l182 -52
	v188"/>
<use id="nt0" transform="translate(-3,5) scale(0.018)"
	xlink:href="#unat"/>
</defs>
<use x="298.83" y="102.01" xlink:href="#nt0"/>
<path d="M304.33 102.01v20.00" stroke="currentColor" fill="none"/>
<path fill="currentColor"
	d="M304.33 122.01c0.6 -5.6 9.6 -9 5.6 -18.4
	c1.6 6 -1.3 11.6 -5.6 12.8
"/>
<use x="325.63" y="120.01" xlink:href="#r8"/>
<use x="345.23" y="102.01" xlink:href="#hl"/>
<use x="345.23" y="99.01" xlink:href="#hd"/>
<path d="M341.73 99.01v21.00" stroke="currentColor" fill="none"/>
<path fill="currentColor"
	d="M341.73 120.01c0.6 -5.6 9.6 -9 5.6 -18.4
	c1.6 6 -1.3 11.6 -5.6 12.8
"/>
<defs>
<path id="r4" fill="currentColor" d="m-1 -8.5
	l3.6 5.1 -2.1 5.2 2.2 4.3
	c-2.6 -2.3 -5.1 0 -2.4 2.6
	c-4.8 -3 -1.5 -6.9 1.4 -4.1
	l-3.1 -4.5 1.9 -5.1 -1.5 -3.5"/>
</defs>
<use x="364.93" y="120.01" xlink:href="#r4"/>
<circle fill="currentColor" cx="372.93" cy="117.01" r="1.2"/>
<path fill="currentColor"
	d="M399.73 136.81l22.00 2.40v-3.20l-22.00 -2.40"/>
<path fill="currentColor"
	d="M415.43 133.51l6.00 0.70v-3.20l-6.00 -0.70"/>
<use x="403.53" y="114.01" xlink:href="#hd"/>
<circle fill="currentColor" cx="411.53" cy="111.01" r="1.2"/>
<path d="M400.03 114.01v21.90" stroke="currentColor" fill="none"/>
<use x="424.93" y="117.01" xlink:href="#hd"/>
<path d="M421.43 117.01v21.20" stroke="currentColor" fill="none"/>
<path fill="currentColor"
	d="M441.13 107.81l36.70 0.00v3.20l-36.70 -0.00"/>
<use x="437.93" y="126.01" xlink:href="#hd"/>
<path d="M441.43 126.01v-17.20" stroke="currentColor" fill="none"/>
<use x="455.93" y="132.01" xlink:href="#hd"/>
<use x="446.93" y="132.01" xlink:href="#nt0"/>
<path d="M459.43 132.01v-23.20" stroke="currentColor" fill="none"/>
<use x="473.93" y="126.01" xlink:href="#hd"/>
<use x="464.93" y="126.01" xlink:href="#nt0"/>
<path d="M477.43 126.01v-17.20" stroke="currentColor" fill="none"/>
<path fill="currentColor"
	d="M492.73 97.81l32.90 0.00v3.20l-32.90 -0.00"/>
<use x="489.63" y="120.01" xlink:href="#hd"/>
<path d="M493.13 120.01v-21.20" stroke="currentColor" fill="none"/>
<use x="507.63" y="123.01" xlink:href="#hd"/>
<use x="498.63" y="123.01" xlink:href="#nt0"/>
<path d="M511.13 123.01v-24.20" stroke="currentColor" fill="none"/>
<use x="521.83" y="117.01" xlink:href="#hd"/>
<path d="M525.33 117.01v-18.20" stroke="currentColor" fill="none"/>
<path fill="currentColor"
	d="M536.03 131.71l36.70 -3.10v-3.20l-36.70 3.10"/>
<use x="539.83" y="111.01" xlink:href="#hd"/>
<use x="530.83" y="111.01" xlink:href="#ft0"/>
<path d="M536.33 111.01v19.70" stroke="currentColor" fill="none"/>
<use x="557.83" y="111.01" xlink:href="#hd"/>
<use x="548.83" y="111.01" xlink:href="#nt0"/>
<path d="M554.33 111.01v18.20" stroke="currentColor" fill="none"/>
<use x="575.83" y="105.01" xlink:href="#hd"/>
<use x="566.83" y="105.01" xlink:href="#nt0"/>
<path d="M572.33 105.01v22.70" stroke="currentColor" fill="none"/>
<use x="601.23" y="102.01" xlink:href="#hl"/>
<use x="601.23" y="99.01" xlink:href="#hd"/>
<path d="M597.73 99.01v21.00" stroke="currentColor" fill="none"/>
<path fill="currentColor"
	d="M597.73 120.01c0.6 -5.6 9.6 -9 5.6 -18.4
	c1.6 6 -1.3 11.6 -5.6 12.8
"/>
<use x="619.03" y="120.01" xlink:href="#r8"/>
<use x="638.73" y="108.01" xlink:href="#hd"/>
<path d="M635.23 108.01v20.00" stroke="currentColor" fill="none"/>
<path fill="currentColor"
	d="M635.23 128.01c0.6 -5.6 9.6 -9 5.6 -18.4
	c1.6 6 -1.3 11.6 -5.6 12.8
"/>
<use x="656.53" y="120.01" xlink:href="#r8"/>
<use x="676.13" y="114.01" xlink:href="#hd"/>
<path d="M672.63 114.01v20.00" stroke="currentColor" fill="none"/>
<path fill="currentColor"
	d="M672.63 134.01c0.6 -5.6 9.6 -9 5.6 -18.4
	c1.6 6 -1.3 11.6 -5.6 12.8
"/>
</g>
</svg>
