<?xml version="1.0" standalone="no"?>
<!DOCTYPE svg PUBLIC "-//W3C//DTD SVG 1.1//EN"
	"http://www.w3.org/Graphics/SVG/1.1/DTD/svg11.dtd">
<svg xmlns="http://www.w3.org/2000/svg" version="1.1"
	xmlns:xlink="http://www.w3.org/1999/xlink"
	xml:space='preserve' color="black"
	width="7.38in" height="1.34in" viewBox="0 0 531 97">
<title>4965.abc (4965) tune 1</title>
<!-- Creator: abcm2ps-7.8.14 -->
<!-- CreationDate: Mar 13, 2016 18:54 -->
<!-- CommandLine: -qxg 4965.abc -O ../svgs/4965.svg -->
<g transform="scale(0.750)" stroke-width="0.70" font-family="Times" font-size="20.00">
<text x="354.13" y="21.67" text-anchor="middle">4965.  Contes de la Veille Grand&apos;mere, Op. 31, No. 2</text>
</g>
<g transform="scale(0.750)" stroke-width="0.70" font-family="Times" font-size="14.00" font-style="italic">
<text x="694.93" y="45.34" text-anchor="end">Serge Prokofieff</text>
</g>
<g transform="scale(0.525)" stroke-width="0.70" font-family="Times" font-size="14.00" font-style="italic">
<defs>
<ellipse id="hd" rx="4.1" ry="2.9"
	transform="rotate(-20)" fill="currentColor"/>
</defs>
<use x="123.47" y="94.16" xlink:href="#hd"/>
<path d="M126.97 94.16v-20.00" stroke="currentColor" fill="none"/>
</g>
<g transform="scale(0.750)" stroke-width="0.70" font-family="Times" font-size="15.00" font-weight="bold">
<text x="94.13" y="68.01">= 120</text>
<path stroke="currentColor" fill="none"
	d="M144.23 106.01v-24.00"/>
<path stroke="currentColor" fill="none"
	d="M214.13 106.01v-24.00"/>
<path stroke="currentColor" fill="none"
	d="M314.83 106.01v-24.00"/>
<path stroke="currentColor" fill="none"
	d="M381.23 106.01v-24.00"/>
<path stroke="currentColor" fill="none"
	d="M468.03 106.01v-24.00"/>
<path stroke="currentColor" fill="none"
	d="M549.13 106.01v-24.00"/>
<path stroke="currentColor" fill="none"
	d="M694.93 106.01v-24.00"/>
<path stroke="currentColor" fill="none"
	d="M13.33 106.01h681.60m-681.60 -6h681.60m-681.60 -6h681.60m-681.60 -6h681.60m-681.60 -6h681.60"/>
<defs>
<path id="utclef" fill="currentColor" d="m-50 -90
	c-72 -41 -72 -158 52 -188
	c150 -10 220 188 90 256
	c-114 52 -275 0 -293 -136
	c-15 -181 93 -229 220 -334
	c88 -87 79 -133 62 -210
	c-51 33 -94 105 -89 186
	c17 267 36 374 49 574
	c6 96 -19 134 -77 135
	c-80 1 -126 -93 -61 -133
	c85 -41 133 101 31 105
	c23 17 92 37 90 -92
	c-10 -223 -39 -342 -50 -617
	c0 -90 0 -162 96 -232
	c56 72 63 230 22 289
	c-74 106 -257 168 -255 316
	c9 153 148 185 252 133
	c86 -65 29 -192 -80 -176
	c-71 12 -105 67 -59 124"/>
<use id="tclef" transform="scale(0.045)"
	xlink:href="#utclef"/>
</defs>
<use x="25.33" y="106.01" xlink:href="#tclef"/>
<defs>
<path id="usharp" fill="currentColor" d="
	m136 -702
	v890
	h32
	v-890
	m128 840
	h32
	v-888
	h-32
	m-232 286
	v116
	l338 -96
	v-116
	m-338 442
	v116
	l338 -98
	v-114"/>
<use id="sh0" transform="translate(-4,5) scale(0.018)"
	xlink:href="#usharp"/>
</defs>
<use x="40.33" y="82.01" xlink:href="#sh0"/>
<use x="45.83" y="91.01" xlink:href="#sh0"/>
<use x="51.33" y="79.01" xlink:href="#sh0"/>
<g font-family="serif" font-size="16" font-weight="bold" font-style="normal"
	transform="translate(67.33,106.01) scale(1.2,1)">
	<text y="-1" text-anchor="middle">4</text>
	<text y="-13" text-anchor="middle">4</text>
</g>
<defs>
<rect id="r2" fill="currentColor"
	x="-3.5" y="-3" width="7" height="3"/>
</defs>
<use x="85.83" y="94.01" xlink:href="#r2"/>
<defs>
<path id="Hd" fill="currentColor" d="m3 -1.6
	c-1 -1.8 -7 1.4 -6 3.2
	c1 1.8 7 -1.4 6 -3.2
	m0.5 -0.3
	c2 3.8 -5 7.6 -7 3.8
	c-2 -3.8 5 -7.6 7 -3.8"/>
</defs>
<use x="118.13" y="91.01" xlink:href="#Hd"/>
<path d="M114.63 91.01v20.00" stroke="currentColor" fill="none"/>
<defs>
<path id="hl" stroke="currentColor" d="m-6 0h12"/>
</defs>
<use x="157.23" y="112.01" xlink:href="#hl"/>
<use x="157.23" y="112.01" xlink:href="#Hd"/>
<circle fill="currentColor" cx="166.23" cy="109.01" r="1.2"/>
<path d="M160.73 112.01v-20.00" stroke="currentColor" fill="none"/>
<use x="195.33" y="91.01" xlink:href="#hd"/>
<path d="M191.83 91.01v20.00" stroke="currentColor" fill="none"/>
<use x="226.63" y="94.01" xlink:href="#hd"/>
<path d="M223.13 94.01v20.00" stroke="currentColor" fill="none"/>
<use x="249.73" y="91.01" xlink:href="#hd"/>
<path d="M246.23 91.01v20.00" stroke="currentColor" fill="none"/>
<use x="272.83" y="94.01" xlink:href="#hd"/>
<path d="M269.33 94.01v20.00" stroke="currentColor" fill="none"/>
<use x="296.03" y="85.01" xlink:href="#hd"/>
<path d="M292.53 85.01v20.00" stroke="currentColor" fill="none"/>
<use x="327.33" y="82.01" xlink:href="#hd"/>
<path d="M323.83 82.01v20.00" stroke="currentColor" fill="none"/>
<use x="350.53" y="91.01" xlink:href="#Hd"/>
<circle fill="currentColor" cx="359.53" cy="91.01" r="1.2"/>
<path d="M347.03 91.01v20.00" stroke="currentColor" fill="none"/>
<defs>
<path id="r4" fill="currentColor" d="m-1 -8.5
	l3.6 5.1 -2.1 5.2 2.2 4.3
	c-2.6 -2.3 -5.1 0 -2.4 2.6
	c-4.8 -3 -1.5 -6.9 1.4 -4.1
	l-3.1 -4.5 1.9 -5.1 -1.5 -3.5"/>
</defs>
<use x="393.73" y="94.01" xlink:href="#r4"/>
<use x="416.93" y="76.01" xlink:href="#hl"/>
<use x="416.93" y="76.01" xlink:href="#Hd"/>
<path d="M413.43 76.01v20.00" stroke="currentColor" fill="none"/>
<use x="449.13" y="85.01" xlink:href="#hd"/>
<path d="M445.63 85.01v20.00" stroke="currentColor" fill="none"/>
<use x="481.03" y="82.01" xlink:href="#Hd"/>
<circle fill="currentColor" cx="490.03" cy="79.01" r="1.2"/>
<path d="M477.53 82.01v20.00" stroke="currentColor" fill="none"/>
<use x="518.63" y="85.01" xlink:href="#hd"/>
<path d="M515.13 85.01v20.00" stroke="currentColor" fill="none"/>
<path fill="currentColor"
	d="M515.13 105.01c0.6 -5.6 9.6 -9 5.6 -18.4
	c1.6 6 -1.3 11.6 -5.6 12.8
"/>
<use x="535.43" y="91.01" xlink:href="#hd"/>
<path d="M531.93 91.01v20.00" stroke="currentColor" fill="none"/>
<path fill="currentColor"
	d="M531.93 111.01c0.6 -5.6 9.6 -9 5.6 -18.4
	c1.6 6 -1.3 11.6 -5.6 12.8
"/>
<use x="561.63" y="82.01" xlink:href="#hd"/>
<path d="M558.13 82.01v20.00" stroke="currentColor" fill="none"/>
<path fill="currentColor"
	d="M558.13 102.01c0.6 -5.6 9.6 -9 5.6 -18.4
	c1.6 6 -1.3 11.6 -5.6 12.8
"/>
<use x="578.43" y="79.01" xlink:href="#hd"/>
<path d="M574.93 79.01v20.00" stroke="currentColor" fill="none"/>
<path fill="currentColor"
	d="M574.93 99.01c0.6 -5.6 9.6 -9 5.6 -18.4
	c1.6 6 -1.3 11.6 -5.6 12.8
"/>
<use x="595.13" y="76.01" xlink:href="#hl"/>
<use x="595.13" y="76.01" xlink:href="#hd"/>
<path d="M591.63 76.01v20.00" stroke="currentColor" fill="none"/>
<path fill="currentColor"
	d="M591.63 96.01c0.6 -5.6 9.6 -9 5.6 -18.4
	c1.6 6 -1.3 11.6 -5.6 12.8
"/>
<use x="612.13" y="76.01" xlink:href="#hl"/>
<use x="612.13" y="73.01" xlink:href="#hd"/>
<path d="M608.63 73.01v21.00" stroke="currentColor" fill="none"/>
<path fill="currentColor"
	d="M608.63 94.01c0.6 -5.6 9.6 -9 5.6 -18.4
	c1.6 6 -1.3 11.6 -5.6 12.8
"/>
<use x="629.13" y="76.01" xlink:href="#hl"/>
<use x="629.13" y="70.01" xlink:href="#hl"/>
<use x="629.13" y="70.01" xlink:href="#hd"/>
<path d="M625.63 70.01v24.00" stroke="currentColor" fill="none"/>
<path fill="currentColor"
	d="M625.63 94.01c0.6 -5.6 9.6 -9 5.6 -18.4
	c1.6 6 -1.3 11.6 -5.6 12.8
"/>
<use x="646.13" y="76.01" xlink:href="#hl"/>
<use x="646.13" y="73.01" xlink:href="#hd"/>
<path d="M642.63 73.01v21.00" stroke="currentColor" fill="none"/>
<path fill="currentColor"
	d="M642.63 94.01c0.6 -5.6 9.6 -9 5.6 -18.4
	c1.6 6 -1.3 11.6 -5.6 12.8
"/>
<use x="663.03" y="76.01" xlink:href="#hl"/>
<use x="663.03" y="76.01" xlink:href="#hd"/>
<path d="M659.53 76.01v20.00" stroke="currentColor" fill="none"/>
<path fill="currentColor"
	d="M659.53 96.01c0.6 -5.6 9.6 -9 5.6 -18.4
	c1.6 6 -1.3 11.6 -5.6 12.8
"/>
<use x="681.23" y="82.01" xlink:href="#hd"/>
<defs>
<path id="unat" fill="currentColor" d="
	m96 -750
	h-32
	v716
	l32 -8
	l182 -54
	v282
	h32
	v-706
	l-34 10
	l-180 50
	v-290
	m0 592
	v-190
	l182 -52
	v188"/>
<use id="nt0" transform="translate(-3,5) scale(0.018)"
	xlink:href="#unat"/>
</defs>
<use x="672.23" y="82.01" xlink:href="#nt0"/>
<path d="M677.73 82.01v20.00" stroke="currentColor" fill="none"/>
<path fill="currentColor"
	d="M677.73 102.01c0.6 -5.6 9.6 -9 5.6 -18.4
	c1.6 6 -1.3 11.6 -5.6 12.8
"/>
</g>
</svg>
