<?xml version="1.0" standalone="no"?>
<!DOCTYPE svg PUBLIC "-//W3C//DTD SVG 1.1//EN"
	"http://www.w3.org/Graphics/SVG/1.1/DTD/svg11.dtd">
<svg xmlns="http://www.w3.org/2000/svg" version="1.1"
	xmlns:xlink="http://www.w3.org/1999/xlink"
	xml:space='preserve' color="black"
	width="7.38in" height="1.34in" viewBox="0 0 531 97">
<title>4967.abc (4967) tune 1</title>
<!-- Creator: abcm2ps-7.8.14 -->
<!-- CreationDate: Mar 13, 2016 18:54 -->
<!-- CommandLine: -qxg 4967.abc -O ../svgs/4967.svg -->
<g transform="scale(0.750)" stroke-width="0.70" font-family="Times" font-size="20.00">
<text x="354.13" y="21.67" text-anchor="middle">4967.  Gavotte, Op. 12, No. 2</text>
</g>
<g transform="scale(0.750)" stroke-width="0.70" font-family="Times" font-size="14.00" font-style="italic">
<text x="694.93" y="45.34" text-anchor="end">Serge Prokofieff</text>
</g>
<g transform="scale(0.525)" stroke-width="0.70" font-family="Times" font-size="14.00" font-style="italic">
<defs>
<ellipse id="hd" rx="4.1" ry="2.9"
	transform="rotate(-20)" fill="currentColor"/>
</defs>
<use x="114.90" y="94.16" xlink:href="#hd"/>
<path d="M118.40 94.16v-20.00" stroke="currentColor" fill="none"/>
</g>
<g transform="scale(0.750)" stroke-width="0.70" font-family="Times" font-size="15.00" font-weight="bold">
<text x="88.13" y="68.01">= 120</text>
<path stroke="currentColor" fill="none"
	d="M264.13 106.01v-24.00"/>
<path stroke="currentColor" fill="none"
	d="M381.93 106.01v-24.00"/>
<path stroke="currentColor" fill="none"
	d="M576.83 106.01v-24.00"/>
<path stroke="currentColor" fill="none"
	d="M694.93 106.01v-24.00"/>
<path stroke="currentColor" fill="none"
	d="M13.33 106.01h681.60m-681.60 -6h681.60m-681.60 -6h681.60m-681.60 -6h681.60m-681.60 -6h681.60"/>
<defs>
<path id="utclef" fill="currentColor" d="m-50 -90
	c-72 -41 -72 -158 52 -188
	c150 -10 220 188 90 256
	c-114 52 -275 0 -293 -136
	c-15 -181 93 -229 220 -334
	c88 -87 79 -133 62 -210
	c-51 33 -94 105 -89 186
	c17 267 36 374 49 574
	c6 96 -19 134 -77 135
	c-80 1 -126 -93 -61 -133
	c85 -41 133 101 31 105
	c23 17 92 37 90 -92
	c-10 -223 -39 -342 -50 -617
	c0 -90 0 -162 96 -232
	c56 72 63 230 22 289
	c-74 106 -257 168 -255 316
	c9 153 148 185 252 133
	c86 -65 29 -192 -80 -176
	c-71 12 -105 67 -59 124"/>
<use id="tclef" transform="scale(0.045)"
	xlink:href="#utclef"/>
</defs>
<use x="25.33" y="106.01" xlink:href="#tclef"/>
<defs>
<path id="uflat" fill="currentColor" d="
	m100 -746
	h32
	v734
	l-32 4
	m32 -332
	c46 -72 152 -90 208 -20
	c100 110 -120 326 -208 348
	m0 -28
	c54 0 200 -206 130 -290
	c-50 -60 -130 -4 -130 34"/>
<use id="ft0" transform="translate(-3.5,3.5) scale(0.018)"
	xlink:href="#uflat"/>
</defs>
<use x="40.33" y="94.01" xlink:href="#ft0"/>
<use x="45.83" y="85.01" xlink:href="#ft0"/>
<g font-family="serif" font-size="16" font-weight="bold" font-style="normal"
	transform="translate(61.83,106.01) scale(1.2,1)">
	<text y="-1" text-anchor="middle">4</text>
	<text y="-13" text-anchor="middle">4</text>
</g>
<use x="79.83" y="88.01" xlink:href="#hd"/>
<path d="M76.33 88.01v20.00" stroke="currentColor" fill="none"/>
<path fill="currentColor"
	d="M76.33 108.01c0.6 -5.6 9.6 -9 5.6 -18.4
	c1.6 6 -1.3 11.6 -5.6 12.8
"/>
<use x="103.73" y="91.01" xlink:href="#hd"/>
<path d="M100.23 91.01v20.00" stroke="currentColor" fill="none"/>
<path fill="currentColor"
	d="M100.23 111.01c0.6 -5.6 9.6 -9 5.6 -18.4
	c1.6 6 -1.3 11.6 -5.6 12.8
"/>
<use x="127.63" y="94.01" xlink:href="#hd"/>
<path d="M124.13 94.01v20.00" stroke="currentColor" fill="none"/>
<path fill="currentColor"
	d="M124.13 114.01c0.6 -5.6 9.6 -9 5.6 -18.4
	c1.6 6 -1.3 11.6 -5.6 12.8
"/>
<use x="149.13" y="97.01" xlink:href="#hd"/>
<path d="M152.63 97.01v-20.00" stroke="currentColor" fill="none"/>
<path fill="currentColor"
	d="	M152.63 77.01c0.6 5.6 9.6 9 5.6 18.4
	c1.6 -6 -1.3 -11.6 -5.6 -12.8
"/>
<use x="173.23" y="79.01" xlink:href="#hd"/>
<path d="M169.73 79.01v20.00" stroke="currentColor" fill="none"/>
<path fill="currentColor"
	d="M169.73 99.01c0.6 -5.6 9.6 -9 5.6 -18.4
	c1.6 6 -1.3 11.6 -5.6 12.8
"/>
<use x="197.13" y="82.01" xlink:href="#hd"/>
<path d="M193.63 82.01v20.00" stroke="currentColor" fill="none"/>
<path fill="currentColor"
	d="M193.63 102.01c0.6 -5.6 9.6 -9 5.6 -18.4
	c1.6 6 -1.3 11.6 -5.6 12.8
"/>
<use x="221.03" y="85.01" xlink:href="#hd"/>
<path d="M217.53 85.01v20.00" stroke="currentColor" fill="none"/>
<path fill="currentColor"
	d="M217.53 105.01c0.6 -5.6 9.6 -9 5.6 -18.4
	c1.6 6 -1.3 11.6 -5.6 12.8
"/>
<use x="244.93" y="88.01" xlink:href="#hd"/>
<path d="M241.43 88.01v20.00" stroke="currentColor" fill="none"/>
<path fill="currentColor"
	d="M241.43 108.01c0.6 -5.6 9.6 -9 5.6 -18.4
	c1.6 6 -1.3 11.6 -5.6 12.8
"/>
<use x="276.63" y="85.01" xlink:href="#hd"/>
<path d="M273.13 85.01v20.00" stroke="currentColor" fill="none"/>
<use x="310.23" y="88.01" xlink:href="#hd"/>
<path d="M306.73 88.01v20.00" stroke="currentColor" fill="none"/>
<defs>
<path id="Hd" fill="currentColor" d="m3 -1.6
	c-1 -1.8 -7 1.4 -6 3.2
	c1 1.8 7 -1.4 6 -3.2
	m0.5 -0.3
	c2 3.8 -5 7.6 -7 3.8
	c-2 -3.8 5 -7.6 7 -3.8"/>
</defs>
<use x="343.83" y="88.01" xlink:href="#Hd"/>
<path d="M340.33 88.01v20.00" stroke="currentColor" fill="none"/>
<use x="394.43" y="88.01" xlink:href="#hd"/>
<path d="M390.93 88.01v20.00" stroke="currentColor" fill="none"/>
<path fill="currentColor"
	d="M390.93 108.01c0.6 -5.6 9.6 -9 5.6 -18.4
	c1.6 6 -1.3 11.6 -5.6 12.8
"/>
<use x="418.33" y="91.01" xlink:href="#hd"/>
<path d="M414.83 91.01v20.00" stroke="currentColor" fill="none"/>
<path fill="currentColor"
	d="M414.83 111.01c0.6 -5.6 9.6 -9 5.6 -18.4
	c1.6 6 -1.3 11.6 -5.6 12.8
"/>
<use x="442.23" y="94.01" xlink:href="#hd"/>
<path d="M438.73 94.01v20.00" stroke="currentColor" fill="none"/>
<path fill="currentColor"
	d="M438.73 114.01c0.6 -5.6 9.6 -9 5.6 -18.4
	c1.6 6 -1.3 11.6 -5.6 12.8
"/>
<use x="463.73" y="97.01" xlink:href="#hd"/>
<path d="M467.23 97.01v-20.00" stroke="currentColor" fill="none"/>
<path fill="currentColor"
	d="	M467.23 77.01c0.6 5.6 9.6 9 5.6 18.4
	c1.6 -6 -1.3 -11.6 -5.6 -12.8
"/>
<use x="487.93" y="91.01" xlink:href="#hd"/>
<path d="M484.43 91.01v20.00" stroke="currentColor" fill="none"/>
<path fill="currentColor"
	d="M484.43 111.01c0.6 -5.6 9.6 -9 5.6 -18.4
	c1.6 6 -1.3 11.6 -5.6 12.8
"/>
<use x="511.73" y="94.01" xlink:href="#hd"/>
<path d="M508.23 94.01v20.00" stroke="currentColor" fill="none"/>
<path fill="currentColor"
	d="M508.23 114.01c0.6 -5.6 9.6 -9 5.6 -18.4
	c1.6 6 -1.3 11.6 -5.6 12.8
"/>
<use x="533.33" y="97.01" xlink:href="#hd"/>
<path d="M536.83 97.01v-20.00" stroke="currentColor" fill="none"/>
<path fill="currentColor"
	d="	M536.83 77.01c0.6 5.6 9.6 9 5.6 18.4
	c1.6 -6 -1.3 -11.6 -5.6 -12.8
"/>
<use x="557.43" y="100.01" xlink:href="#hd"/>
<path d="M560.93 100.01v-20.00" stroke="currentColor" fill="none"/>
<path fill="currentColor"
	d="	M560.93 80.01c0.6 5.6 9.6 9 5.6 18.4
	c1.6 -6 -1.3 -11.6 -5.6 -12.8
"/>
<use x="589.33" y="94.01" xlink:href="#hd"/>
<path d="M592.83 94.01v-20.00" stroke="currentColor" fill="none"/>
<use x="622.93" y="100.01" xlink:href="#hd"/>
<path d="M626.43 100.01v-20.00" stroke="currentColor" fill="none"/>
<use x="656.83" y="100.01" xlink:href="#Hd"/>
<use x="646.83" y="100.01" xlink:href="#ft0"/>
<path d="M660.33 100.01v-20.00" stroke="currentColor" fill="none"/>
<path fill="currentColor"
	d="M347.33 88.01c6.79 -5.28 36.78 -5.28 43.57 -0.00
	l0.00 -0.24c-8.10 -7.04 -35.47 -7.04 -43.57 0.24"/>
</g>
</svg>
