<?xml version="1.0" standalone="no"?>
<!DOCTYPE svg PUBLIC "-//W3C//DTD SVG 1.1//EN"
	"http://www.w3.org/Graphics/SVG/1.1/DTD/svg11.dtd">
<svg xmlns="http://www.w3.org/2000/svg" version="1.1"
	xmlns:xlink="http://www.w3.org/1999/xlink"
	xml:space='preserve' color="black"
	width="7.38in" height="1.34in" viewBox="0 0 531 97">
<title>4986.abc (4986) tune 1</title>
<!-- Creator: abcm2ps-7.8.14 -->
<!-- CreationDate: Mar 13, 2016 18:54 -->
<!-- CommandLine: -qxg 4986.abc -O ../svgs/4986.svg -->
<g transform="scale(0.750)" stroke-width="0.70" font-family="Times" font-size="20.00">
<text x="354.13" y="21.67" text-anchor="middle">4986.  Peter and the Wolf, Op. 67, 2nd. Theme, The Bird</text>
</g>
<g transform="scale(0.750)" stroke-width="0.70" font-family="Times" font-size="14.00" font-style="italic">
<text x="694.93" y="45.34" text-anchor="end">Serge Prokofieff</text>
</g>
<g transform="scale(0.525)" stroke-width="0.70" font-family="Times" font-size="14.00" font-style="italic">
<defs>
<ellipse id="hd" rx="4.1" ry="2.9"
	transform="rotate(-20)" fill="currentColor"/>
</defs>
<use x="89.19" y="94.16" xlink:href="#hd"/>
<path d="M92.69 94.16v-20.00" stroke="currentColor" fill="none"/>
</g>
<g transform="scale(0.750)" stroke-width="0.70" font-family="Times" font-size="15.00" font-weight="bold">
<text x="70.13" y="68.01">= 120</text>
<path stroke="currentColor" fill="none"
	d="M363.33 106.01v-24.00"/>
<path stroke="currentColor" fill="none"
	d="M694.93 106.01v-24.00"/>
<path stroke="currentColor" fill="none"
	d="M13.33 106.01h681.60m-681.60 -6h681.60m-681.60 -6h681.60m-681.60 -6h681.60m-681.60 -6h681.60"/>
<text font-family="serif" font-size="12" font-style="italic" font-weight="normal"
	x="526.03" y="62.01" text-anchor="middle">3</text>
<defs>
<path id="utclef" fill="currentColor" d="m-50 -90
	c-72 -41 -72 -158 52 -188
	c150 -10 220 188 90 256
	c-114 52 -275 0 -293 -136
	c-15 -181 93 -229 220 -334
	c88 -87 79 -133 62 -210
	c-51 33 -94 105 -89 186
	c17 267 36 374 49 574
	c6 96 -19 134 -77 135
	c-80 1 -126 -93 -61 -133
	c85 -41 133 101 31 105
	c23 17 92 37 90 -92
	c-10 -223 -39 -342 -50 -617
	c0 -90 0 -162 96 -232
	c56 72 63 230 22 289
	c-74 106 -257 168 -255 316
	c9 153 148 185 252 133
	c86 -65 29 -192 -80 -176
	c-71 12 -105 67 -59 124"/>
<use id="tclef" transform="scale(0.045)"
	xlink:href="#utclef"/>
</defs>
<use x="25.33" y="106.01" xlink:href="#tclef"/>
<g font-family="serif" font-size="16" font-weight="bold" font-style="normal"
	transform="translate(43.83,106.01) scale(1.2,1)">
	<text y="-1" text-anchor="middle">4</text>
	<text y="-13" text-anchor="middle">4</text>
</g>
<defs>
<path id="r8e" fill="currentColor" d="m 0 0
	c-1.5 1.5 -2.4 2 -3.6 2
	c2.4 -2.8 -2.8 -4 -2.8 -1.2
	c0 2.7 4.3 2.4 5.9 0.6"/>
<g id="r32">
	<path d="m4.8 -10l-5.5 21.6" stroke="currentColor" fill="none"/>
	<use x="4.9" y="-10" xlink:href="#r8e"/>
	<use x="3.4" y="-4" xlink:href="#r8e"/>
	<use x="1.9" y="2" xlink:href="#r8e"/>
</g>
</defs>
<use x="61.83" y="94.01" xlink:href="#r32"/>
<use x="79.43" y="79.01" xlink:href="#hd"/>
<circle fill="currentColor" cx="87.43" cy="79.01" r="1.2"/>
<path d="M75.93 79.01v22.00" stroke="currentColor" fill="none"/>
<path fill="currentColor"
	d="M75.93 101.01c0.9 -3.7 9.1 -6.4 6 -12.4
	c1 5.4 -4.2 8.4 -6 8.4
M75.93 95.61c0.9 -3.7 9.1 -6.4 6 -12.4
	c1 5.4 -4.2 8.4 -6 8.4
"/>
<use x="107.73" y="85.01" xlink:href="#hd"/>
<path d="M104.23 85.01v20.00" stroke="currentColor" fill="none"/>
<path fill="currentColor"
	d="M104.23 105.01c0.6 -5.6 9.6 -9 5.6 -18.4
	c1.6 6 -1.3 11.6 -5.6 12.8
"/>
<use x="139.33" y="94.01" xlink:href="#r32"/>
<use x="158.03" y="79.01" xlink:href="#hd"/>
<circle fill="currentColor" cx="166.03" cy="79.01" r="1.2"/>
<defs>
<path id="usharp" fill="currentColor" d="
	m136 -702
	v890
	h32
	v-890
	m128 840
	h32
	v-888
	h-32
	m-232 286
	v116
	l338 -96
	v-116
	m-338 442
	v116
	l338 -98
	v-114"/>
<use id="sh0" transform="translate(-4,5) scale(0.018)"
	xlink:href="#usharp"/>
</defs>
<use x="149.03" y="79.01" xlink:href="#sh0"/>
<path d="M154.53 79.01v22.00" stroke="currentColor" fill="none"/>
<path fill="currentColor"
	d="M154.53 101.01c0.9 -3.7 9.1 -6.4 6 -12.4
	c1 5.4 -4.2 8.4 -6 8.4
M154.53 95.61c0.9 -3.7 9.1 -6.4 6 -12.4
	c1 5.4 -4.2 8.4 -6 8.4
"/>
<use x="186.23" y="79.01" xlink:href="#hd"/>
<use x="177.23" y="79.01" xlink:href="#sh0"/>
<path d="M182.73 79.01v20.00" stroke="currentColor" fill="none"/>
<path fill="currentColor"
	d="M182.73 99.01c0.6 -5.6 9.6 -9 5.6 -18.4
	c1.6 6 -1.3 11.6 -5.6 12.8
"/>
<use x="221.43" y="79.01" xlink:href="#hd"/>
<use x="212.43" y="79.01" xlink:href="#sh0"/>
<path d="M217.93 79.01v20.00" stroke="currentColor" fill="none"/>
<path fill="currentColor"
	d="M217.93 99.01c0.6 -5.6 9.6 -9 5.6 -18.4
	c1.6 6 -1.3 11.6 -5.6 12.8
"/>
<use x="256.63" y="79.01" xlink:href="#hd"/>
<use x="247.63" y="79.01" xlink:href="#sh0"/>
<path d="M253.13 79.01v20.00" stroke="currentColor" fill="none"/>
<path fill="currentColor"
	d="M253.13 99.01c0.6 -5.6 9.6 -9 5.6 -18.4
	c1.6 6 -1.3 11.6 -5.6 12.8
"/>
<use x="288.23" y="94.01" xlink:href="#r32"/>
<use x="306.93" y="79.01" xlink:href="#hd"/>
<circle fill="currentColor" cx="314.93" cy="79.01" r="1.2"/>
<use x="297.93" y="79.01" xlink:href="#sh0"/>
<path d="M303.43 79.01v22.00" stroke="currentColor" fill="none"/>
<path fill="currentColor"
	d="M303.43 101.01c0.9 -3.7 9.1 -6.4 6 -12.4
	c1 5.4 -4.2 8.4 -6 8.4
M303.43 95.61c0.9 -3.7 9.1 -6.4 6 -12.4
	c1 5.4 -4.2 8.4 -6 8.4
"/>
<use x="335.23" y="85.01" xlink:href="#hd"/>
<path d="M331.73 85.01v20.00" stroke="currentColor" fill="none"/>
<path fill="currentColor"
	d="M331.73 105.01c0.6 -5.6 9.6 -9 5.6 -18.4
	c1.6 6 -1.3 11.6 -5.6 12.8
"/>
<path fill="currentColor"
	d="M377.03 108.01l23.00 0.00v-3.20l-23.00 -0.00"/>
<path fill="currentColor"
	d="M377.43 103.01l22.40 0.00v-3.20l-22.40 -0.00"/>
<use x="380.93" y="88.01" xlink:href="#hd"/>
<path d="M377.43 88.01v19.00" stroke="currentColor" fill="none"/>
<use x="403.23" y="88.01" xlink:href="#hd"/>
<use x="394.23" y="88.01" xlink:href="#sh0"/>
<path d="M399.73 88.01v19.00" stroke="currentColor" fill="none"/>
<path fill="currentColor"
	d="M424.23 114.01l23.00 0.00v-3.20l-23.00 -0.00"/>
<path fill="currentColor"
	d="M424.63 109.01l22.40 0.00v-3.20l-22.40 -0.00"/>
<use x="428.13" y="91.01" xlink:href="#hd"/>
<use x="419.13" y="91.01" xlink:href="#sh0"/>
<path d="M424.63 91.01v22.00" stroke="currentColor" fill="none"/>
<use x="450.53" y="91.01" xlink:href="#hd"/>
<defs>
<path id="unat" fill="currentColor" d="
	m96 -750
	h-32
	v716
	l32 -8
	l182 -54
	v282
	h32
	v-706
	l-34 10
	l-180 50
	v-290
	m0 592
	v-190
	l182 -52
	v188"/>
<use id="nt0" transform="translate(-3,5) scale(0.018)"
	xlink:href="#unat"/>
</defs>
<use x="441.53" y="91.01" xlink:href="#nt0"/>
<path d="M447.03 91.01v22.00" stroke="currentColor" fill="none"/>
<use x="475.33" y="94.01" xlink:href="#hd"/>
<path d="M471.83 94.01v20.00" stroke="currentColor" fill="none"/>
<path fill="currentColor"
	d="M471.83 114.01c0.6 -5.6 9.6 -9 5.6 -18.4
	c1.6 6 -1.3 11.6 -5.6 12.8
"/>
<path fill="currentColor"
	d="M510.13 69.81l35.60 0.00v3.20l-35.60 -0.00"/>
<path fill="currentColor"
	d="M510.53 74.81l34.90 0.00v3.20l-34.90 -0.00"/>
<use x="507.03" y="97.01" xlink:href="#hd"/>
<path d="M510.53 97.01v-26.20" stroke="currentColor" fill="none"/>
<use x="524.43" y="94.01" xlink:href="#hd"/>
<path d="M527.93 94.01v-23.20" stroke="currentColor" fill="none"/>
<use x="541.93" y="97.01" xlink:href="#hd"/>
<path d="M545.43 97.01v-26.20" stroke="currentColor" fill="none"/>
<use x="561.33" y="100.01" xlink:href="#hd"/>
<use x="552.33" y="100.01" xlink:href="#nt0"/>
<path d="M564.83 100.01v-20.00" stroke="currentColor" fill="none"/>
<path fill="currentColor"
	d="	M564.83 80.01c0.6 5.6 9.6 9 5.6 18.4
	c1.6 -6 -1.3 -11.6 -5.6 -12.8
"/>
<use x="596.43" y="100.01" xlink:href="#hd"/>
<path d="M599.93 100.01v-20.00" stroke="currentColor" fill="none"/>
<path fill="currentColor"
	d="	M599.93 80.01c0.6 5.6 9.6 9 5.6 18.4
	c1.6 -6 -1.3 -11.6 -5.6 -12.8
"/>
<use x="631.63" y="91.01" xlink:href="#hd"/>
<path d="M628.13 91.01v20.00" stroke="currentColor" fill="none"/>
<path fill="currentColor"
	d="M628.13 111.01c0.6 -5.6 9.6 -9 5.6 -18.4
	c1.6 6 -1.3 11.6 -5.6 12.8
"/>
<use x="666.83" y="85.01" xlink:href="#hd"/>
<path d="M663.33 85.01v20.00" stroke="currentColor" fill="none"/>
<path fill="currentColor"
	d="M663.33 105.01c0.6 -5.6 9.6 -9 5.6 -18.4
	c1.6 6 -1.3 11.6 -5.6 12.8
"/>
</g>
</svg>
