<?xml version="1.0" standalone="no"?>
<!DOCTYPE svg PUBLIC "-//W3C//DTD SVG 1.1//EN"
	"http://www.w3.org/Graphics/SVG/1.1/DTD/svg11.dtd">
<svg xmlns="http://www.w3.org/2000/svg" version="1.1"
	xmlns:xlink="http://www.w3.org/1999/xlink"
	xml:space='preserve' color="black"
	width="7.38in" height="1.34in" viewBox="0 0 531 97">
<title>4994.abc (4994) tune 1</title>
<!-- Creator: abcm2ps-7.8.14 -->
<!-- CreationDate: Mar 13, 2016 18:54 -->
<!-- CommandLine: -qxg 4994.abc -O ../svgs/4994.svg -->
<g transform="scale(0.750)" stroke-width="0.70" font-family="Times" font-size="20.00">
<text x="354.13" y="21.67" text-anchor="middle">4994.  Quartet, Op. 50, 2nd. Mvt. - 1st. Theme</text>
</g>
<g transform="scale(0.750)" stroke-width="0.70" font-family="Times" font-size="14.00" font-style="italic">
<text x="694.93" y="45.34" text-anchor="end">Serge Prokofieff</text>
</g>
<g transform="scale(0.525)" stroke-width="0.70" font-family="Times" font-size="14.00" font-style="italic">
<defs>
<ellipse id="hd" rx="4.1" ry="2.9"
	transform="rotate(-20)" fill="currentColor"/>
</defs>
<use x="89.19" y="94.16" xlink:href="#hd"/>
<path d="M92.69 94.16v-20.00" stroke="currentColor" fill="none"/>
</g>
<g transform="scale(0.750)" stroke-width="0.70" font-family="Times" font-size="15.00" font-weight="bold">
<text x="70.13" y="68.01">= 120</text>
<path stroke="currentColor" fill="none"
	d="M150.43 106.01v-24.00"/>
<path stroke="currentColor" fill="none"
	d="M310.53 106.01v-24.00"/>
<path stroke="currentColor" fill="none"
	d="M453.33 106.01v-24.00"/>
<path stroke="currentColor" fill="none"
	d="M536.53 106.01v-24.00"/>
<path stroke="currentColor" fill="none"
	d="M13.33 106.01h523.20m-523.20 -6h523.20m-523.20 -6h523.20m-523.20 -6h523.20m-523.20 -6h523.20"/>
<defs>
<path id="ubclef" fill="currentColor" d="m-200 -87
	c124 -35 222 -78 254 -236
	c43 -228 -167 -246 -192 -103
	c59 -80 157 22 92 78
	c-62 47 -115 -22 -106 -88
	c21 -141 270 -136 274 52
	c-1 175 -106 264 -322 297
	m357 -250
	c0 -36 51 -34 51 0
	c0 37 -51 36 -51 0
	m-2 -129
	c0 -36 51 -34 51 0
	c0 38 -51 37 -51 0"/>
<use id="bclef" transform="scale(0.045)"
	xlink:href="#ubclef"/>
</defs>
<use x="25.33" y="106.01" xlink:href="#bclef"/>
<g font-family="serif" font-size="16" font-weight="bold" font-style="normal"
	transform="translate(43.83,106.01) scale(1.2,1)">
	<text y="-1" text-anchor="middle">4</text>
	<text y="-13" text-anchor="middle">2</text>
</g>
<use x="61.83" y="97.01" xlink:href="#hd"/>
<path d="M65.33 97.01v-20.00" stroke="currentColor" fill="none"/>
<path fill="currentColor"
	d="	M65.33 77.01c0.6 5.6 9.6 9 5.6 18.4
	c1.6 -6 -1.3 -11.6 -5.6 -12.8
"/>
<use x="90.13" y="97.01" xlink:href="#hd"/>
<path d="M93.63 97.01v-20.00" stroke="currentColor" fill="none"/>
<path fill="currentColor"
	d="	M93.63 77.01c0.6 5.6 9.6 9 5.6 18.4
	c1.6 -6 -1.3 -11.6 -5.6 -12.8
"/>
<use x="118.43" y="94.01" xlink:href="#hd"/>
<path d="M121.93 94.01v-20.00" stroke="currentColor" fill="none"/>
<path fill="currentColor"
	d="M167.73 74.11l18.70 -2.30v3.20l-18.70 2.30"/>
<path fill="currentColor"
	d="M168.13 79.01l18.00 -2.20v3.20l-18.00 2.20"/>
<use x="164.53" y="97.01" xlink:href="#hd"/>
<path d="M168.03 97.01v-22.00" stroke="currentColor" fill="none"/>
<use x="182.53" y="94.01" xlink:href="#hd"/>
<path d="M186.03 94.01v-21.20" stroke="currentColor" fill="none"/>
<path fill="currentColor"
	d="M198.73 113.21l18.70 -2.30v-3.20l-18.70 2.30"/>
<path fill="currentColor"
	d="M199.13 108.21l18.00 -2.20v-3.20l-18.00 2.20"/>
<use x="202.53" y="91.01" xlink:href="#hd"/>
<path d="M199.03 91.01v21.20" stroke="currentColor" fill="none"/>
<use x="220.53" y="88.01" xlink:href="#hd"/>
<path d="M217.03 88.01v22.00" stroke="currentColor" fill="none"/>
<use x="240.53" y="85.01" xlink:href="#hd"/>
<path d="M237.03 85.01v22.00" stroke="currentColor" fill="none"/>
<path fill="currentColor"
	d="M237.03 107.01c0.9 -3.7 9.1 -6.4 6 -12.4
	c1 5.4 -4.2 8.4 -6 8.4
M237.03 101.61c0.9 -3.7 9.1 -6.4 6 -12.4
	c1 5.4 -4.2 8.4 -6 8.4
"/>
<defs>
<path id="r8e" fill="currentColor" d="m 0 0
	c-1.5 1.5 -2.4 2 -3.6 2
	c2.4 -2.8 -2.8 -4 -2.8 -1.2
	c0 2.7 4.3 2.4 5.9 0.6"/>
<g id="r16">
	<path d="m3.3 -4l-4 15.6" stroke="currentColor" fill="none"/>
	<use x="3.4" y="-4" xlink:href="#r8e"/>
	<use x="1.9" y="2" xlink:href="#r8e"/>
</g>
</defs>
<use x="258.53" y="94.01" xlink:href="#r16"/>
<use x="276.53" y="106.01" xlink:href="#hd"/>
<defs>
<path id="usharp" fill="currentColor" d="
	m136 -702
	v890
	h32
	v-890
	m128 840
	h32
	v-888
	h-32
	m-232 286
	v116
	l338 -96
	v-116
	m-338 442
	v116
	l338 -98
	v-114"/>
<use id="sh0" transform="translate(-4,5) scale(0.018)"
	xlink:href="#usharp"/>
</defs>
<use x="267.53" y="106.01" xlink:href="#sh0"/>
<path d="M280.03 106.01v-21.00" stroke="currentColor" fill="none"/>
<path fill="currentColor"
	d="M280.03 85.01c0.9 3.7 9.1 6.4 6 12.4
	c1 -5.4 -4.2 -8.4 -6 -8.4
M280.03 90.41c0.9 3.7 9.1 6.4 6 12.4
	c1 -5.4 -4.2 -8.4 -6 -8.4
"/>
<use x="294.53" y="94.01" xlink:href="#r16"/>
<use x="324.73" y="82.01" xlink:href="#hd"/>
<path d="M321.23 82.01v20.00" stroke="currentColor" fill="none"/>
<path fill="currentColor"
	d="M321.23 102.01c0.6 -5.6 9.6 -9 5.6 -18.4
	c1.6 6 -1.3 11.6 -5.6 12.8
"/>
<defs>
<path id="hl" stroke="currentColor" d="m-6 0h12"/>
</defs>
<use x="353.03" y="76.01" xlink:href="#hl"/>
<use x="353.03" y="76.01" xlink:href="#hd"/>
<path d="M349.53 76.01v22.00" stroke="currentColor" fill="none"/>
<path fill="currentColor"
	d="M349.53 98.01c0.9 -3.7 9.1 -6.4 6 -12.4
	c1 5.4 -4.2 8.4 -6 8.4
M349.53 92.61c0.9 -3.7 9.1 -6.4 6 -12.4
	c1 5.4 -4.2 8.4 -6 8.4
"/>
<use x="371.03" y="94.01" xlink:href="#r16"/>
<use x="391.03" y="76.01" xlink:href="#hl"/>
<use x="391.03" y="70.01" xlink:href="#hl"/>
<use x="391.03" y="70.01" xlink:href="#hd"/>
<path d="M387.53 70.01v24.00" stroke="currentColor" fill="none"/>
<path fill="currentColor"
	d="M387.53 94.01c0.6 -5.6 9.6 -9 5.6 -18.4
	c1.6 6 -1.3 11.6 -5.6 12.8
"/>
<use x="419.33" y="79.01" xlink:href="#hd"/>
<path d="M415.83 79.01v22.00" stroke="currentColor" fill="none"/>
<path fill="currentColor"
	d="M415.83 101.01c0.9 -3.7 9.1 -6.4 6 -12.4
	c1 5.4 -4.2 8.4 -6 8.4
M415.83 95.61c0.9 -3.7 9.1 -6.4 6 -12.4
	c1 5.4 -4.2 8.4 -6 8.4
"/>
<use x="437.33" y="94.01" xlink:href="#r16"/>
<use x="471.83" y="88.01" xlink:href="#hd"/>
<use x="462.83" y="88.01" xlink:href="#sh0"/>
<path d="M468.33 88.01v20.00" stroke="currentColor" fill="none"/>
<path fill="currentColor"
	d="M468.33 108.01c0.6 -5.6 9.6 -9 5.6 -18.4
	c1.6 6 -1.3 11.6 -5.6 12.8
"/>
<use x="500.13" y="82.01" xlink:href="#hd"/>
<circle fill="currentColor" cx="508.13" cy="79.01" r="1.2"/>
<path d="M496.63 82.01v20.00" stroke="currentColor" fill="none"/>
</g>
</svg>
