<?xml version="1.0" standalone="no"?>
<!DOCTYPE svg PUBLIC "-//W3C//DTD SVG 1.1//EN"
	"http://www.w3.org/Graphics/SVG/1.1/DTD/svg11.dtd">
<svg xmlns="http://www.w3.org/2000/svg" version="1.1"
	xmlns:xlink="http://www.w3.org/1999/xlink"
	xml:space='preserve' color="black"
	width="7.38in" height="1.34in" viewBox="0 0 531 97">
<title>4997.abc (4997) tune 1</title>
<!-- Creator: abcm2ps-7.8.14 -->
<!-- CreationDate: Mar 13, 2016 18:54 -->
<!-- CommandLine: -qxg 4997.abc -O ../svgs/4997.svg -->
<g transform="scale(0.750)" stroke-width="0.70" font-family="Times" font-size="20.00">
<text x="354.13" y="21.67" text-anchor="middle">4997.  Quartet, Op. 50, 2nd. Mvt. - 4th. Theme</text>
</g>
<g transform="scale(0.750)" stroke-width="0.70" font-family="Times" font-size="14.00" font-style="italic">
<text x="694.93" y="45.34" text-anchor="end">Serge Prokofieff</text>
</g>
<g transform="scale(0.525)" stroke-width="0.70" font-family="Times" font-size="14.00" font-style="italic">
<defs>
<ellipse id="hd" rx="4.1" ry="2.9"
	transform="rotate(-20)" fill="currentColor"/>
</defs>
<use x="107.04" y="94.16" xlink:href="#hd"/>
<path d="M110.54 94.16v-20.00" stroke="currentColor" fill="none"/>
</g>
<g transform="scale(0.750)" stroke-width="0.70" font-family="Times" font-size="15.00" font-weight="bold">
<text x="82.63" y="68.01">= 120</text>
<path stroke="currentColor" fill="none"
	d="M128.73 106.01v-24.00"/>
<path stroke="currentColor" fill="none"
	d="M210.93 106.01v-24.00"/>
<path stroke="currentColor" fill="none"
	d="M294.53 106.01v-24.00"/>
<path stroke="currentColor" fill="none"
	d="M373.23 106.01v-24.00"/>
<path stroke="currentColor" fill="none"
	d="M442.33 106.01v-24.00"/>
<path stroke="currentColor" fill="none"
	d="M527.73 106.01v-24.00"/>
<path stroke="currentColor" fill="none"
	d="M611.23 106.01v-24.00"/>
<path stroke="currentColor" fill="none"
	d="M694.93 106.01v-24.00"/>
<path stroke="currentColor" fill="none"
	d="M13.33 106.01h681.60m-681.60 -6h681.60m-681.60 -6h681.60m-681.60 -6h681.60m-681.60 -6h681.60"/>
<defs>
<path id="utclef" fill="currentColor" d="m-50 -90
	c-72 -41 -72 -158 52 -188
	c150 -10 220 188 90 256
	c-114 52 -275 0 -293 -136
	c-15 -181 93 -229 220 -334
	c88 -87 79 -133 62 -210
	c-51 33 -94 105 -89 186
	c17 267 36 374 49 574
	c6 96 -19 134 -77 135
	c-80 1 -126 -93 -61 -133
	c85 -41 133 101 31 105
	c23 17 92 37 90 -92
	c-10 -223 -39 -342 -50 -617
	c0 -90 0 -162 96 -232
	c56 72 63 230 22 289
	c-74 106 -257 168 -255 316
	c9 153 148 185 252 133
	c86 -65 29 -192 -80 -176
	c-71 12 -105 67 -59 124"/>
<use id="tclef" transform="scale(0.045)"
	xlink:href="#utclef"/>
</defs>
<use x="25.33" y="106.01" xlink:href="#tclef"/>
<defs>
<path id="uflat" fill="currentColor" d="
	m100 -746
	h32
	v734
	l-32 4
	m32 -332
	c46 -72 152 -90 208 -20
	c100 110 -120 326 -208 348
	m0 -28
	c54 0 200 -206 130 -290
	c-50 -60 -130 -4 -130 34"/>
<use id="ft0" transform="translate(-3.5,3.5) scale(0.018)"
	xlink:href="#uflat"/>
</defs>
<use x="40.33" y="94.01" xlink:href="#ft0"/>
<g font-family="serif" font-size="16" font-weight="bold" font-style="normal"
	transform="translate(56.33,106.01) scale(1.2,1)">
	<text y="-1" text-anchor="middle">4</text>
	<text y="-13" text-anchor="middle">2</text>
</g>
<use x="74.33" y="103.01" xlink:href="#hd"/>
<circle fill="currentColor" cx="82.33" cy="103.01" r="1.2"/>
<path d="M77.83 103.01v-20.00" stroke="currentColor" fill="none"/>
<use x="110.63" y="88.01" xlink:href="#hd"/>
<path d="M107.13 88.01v20.00" stroke="currentColor" fill="none"/>
<path fill="currentColor"
	d="M107.13 108.01c0.6 -5.6 9.6 -9 5.6 -18.4
	c1.6 6 -1.3 11.6 -5.6 12.8
"/>
<use x="141.23" y="91.01" xlink:href="#hd"/>
<path d="M137.73 91.01v20.00" stroke="currentColor" fill="none"/>
<use x="169.53" y="97.01" xlink:href="#hd"/>
<path d="M173.03 97.01v-20.00" stroke="currentColor" fill="none"/>
<path fill="currentColor"
	d="	M173.03 77.01c0.6 5.6 9.6 9 5.6 18.4
	c1.6 -6 -1.3 -11.6 -5.6 -12.8
"/>
<use x="192.43" y="106.01" xlink:href="#hd"/>
<path d="M195.93 106.01v-20.00" stroke="currentColor" fill="none"/>
<path fill="currentColor"
	d="	M195.93 86.01c0.6 5.6 9.6 9 5.6 18.4
	c1.6 -6 -1.3 -11.6 -5.6 -12.8
"/>
<use x="223.43" y="103.01" xlink:href="#hd"/>
<path d="M226.93 103.01v-20.00" stroke="currentColor" fill="none"/>
<path fill="currentColor"
	d="	M226.93 83.01c0.6 5.6 9.6 9 5.6 18.4
	c1.6 -6 -1.3 -11.6 -5.6 -12.8
"/>
<use x="246.33" y="100.01" xlink:href="#hd"/>
<path d="M249.83 100.01v-20.00" stroke="currentColor" fill="none"/>
<path fill="currentColor"
	d="	M249.83 80.01c0.6 5.6 9.6 9 5.6 18.4
	c1.6 -6 -1.3 -11.6 -5.6 -12.8
"/>
<use x="269.23" y="97.01" xlink:href="#hd"/>
<path d="M272.73 97.01v-20.00" stroke="currentColor" fill="none"/>
<use x="307.03" y="97.01" xlink:href="#hd"/>
<path d="M310.53 97.01v-20.00" stroke="currentColor" fill="none"/>
<path fill="currentColor"
	d="	M310.53 77.01c0.6 5.6 9.6 9 5.6 18.4
	c1.6 -6 -1.3 -11.6 -5.6 -12.8
"/>
<defs>
<path id="r8e" fill="currentColor" d="m 0 0
	c-1.5 1.5 -2.4 2 -3.6 2
	c2.4 -2.8 -2.8 -4 -2.8 -1.2
	c0 2.7 4.3 2.4 5.9 0.6"/>
<g id="r8">
	<path d="m3.3 -4l-3.4 9.6" stroke="currentColor" fill="none"/>
	<use x="3.4" y="-4" xlink:href="#r8e"/>
</g>
</defs>
<use x="327.73" y="94.01" xlink:href="#r8"/>
<use x="347.93" y="103.01" xlink:href="#hd"/>
<path d="M351.43 103.01v-20.00" stroke="currentColor" fill="none"/>
<use x="385.73" y="88.01" xlink:href="#hd"/>
<path d="M382.23 88.01v20.00" stroke="currentColor" fill="none"/>
<use x="417.13" y="91.01" xlink:href="#hd"/>
<path d="M413.63 91.01v20.00" stroke="currentColor" fill="none"/>
<use x="454.83" y="100.01" xlink:href="#hd"/>
<path d="M458.33 100.01v-20.00" stroke="currentColor" fill="none"/>
<use x="486.23" y="97.01" xlink:href="#hd"/>
<path d="M489.73 97.01v-20.00" stroke="currentColor" fill="none"/>
<path fill="currentColor"
	d="	M489.73 77.01c0.6 5.6 9.6 9 5.6 18.4
	c1.6 -6 -1.3 -11.6 -5.6 -12.8
"/>
<use x="509.13" y="106.01" xlink:href="#hd"/>
<path d="M512.63 106.01v-20.00" stroke="currentColor" fill="none"/>
<path fill="currentColor"
	d="	M512.63 86.01c0.6 5.6 9.6 9 5.6 18.4
	c1.6 -6 -1.3 -11.6 -5.6 -12.8
"/>
<use x="540.23" y="103.01" xlink:href="#hd"/>
<path d="M543.73 103.01v-20.00" stroke="currentColor" fill="none"/>
<path fill="currentColor"
	d="	M543.73 83.01c0.6 5.6 9.6 9 5.6 18.4
	c1.6 -6 -1.3 -11.6 -5.6 -12.8
"/>
<use x="563.03" y="100.01" xlink:href="#hd"/>
<path d="M566.53 100.01v-20.00" stroke="currentColor" fill="none"/>
<path fill="currentColor"
	d="	M566.53 80.01c0.6 5.6 9.6 9 5.6 18.4
	c1.6 -6 -1.3 -11.6 -5.6 -12.8
"/>
<use x="585.93" y="97.01" xlink:href="#hd"/>
<path d="M589.43 97.01v-20.00" stroke="currentColor" fill="none"/>
<use x="623.73" y="97.01" xlink:href="#hd"/>
<path d="M627.23 97.01v-20.00" stroke="currentColor" fill="none"/>
<path fill="currentColor"
	d="	M627.23 77.01c0.6 5.6 9.6 9 5.6 18.4
	c1.6 -6 -1.3 -11.6 -5.6 -12.8
"/>
<use x="646.63" y="94.01" xlink:href="#hd"/>
<path d="M650.13 94.01v-20.00" stroke="currentColor" fill="none"/>
<path fill="currentColor"
	d="	M650.13 74.01c0.6 5.6 9.6 9 5.6 18.4
	c1.6 -6 -1.3 -11.6 -5.6 -12.8
"/>
<use x="669.63" y="91.01" xlink:href="#hd"/>
<path d="M666.13 91.01v20.00" stroke="currentColor" fill="none"/>
<path fill="currentColor"
	d="M272.73 99.01c4.85 5.05 25.93 5.05 30.77 -0.00
	l0.00 0.23c-5.77 6.82 -25.00 6.82 -30.77 -0.23"/>
<path fill="currentColor"
	d="M589.43 99.01c4.85 5.05 25.93 5.05 30.77 -0.00
	l0.00 0.23c-5.77 6.82 -25.00 6.82 -30.77 -0.23"/>
</g>
</svg>
