<?xml version="1.0" standalone="no"?>
<!DOCTYPE svg PUBLIC "-//W3C//DTD SVG 1.1//EN"
	"http://www.w3.org/Graphics/SVG/1.1/DTD/svg11.dtd">
<svg xmlns="http://www.w3.org/2000/svg" version="1.1"
	xmlns:xlink="http://www.w3.org/1999/xlink"
	xml:space='preserve' color="black"
	width="7.38in" height="1.40in" viewBox="0 0 531 101">
<title>4999.abc (4999) tune 1</title>
<!-- Creator: abcm2ps-7.8.14 -->
<!-- CreationDate: Mar 13, 2016 18:54 -->
<!-- CommandLine: -qxg 4999.abc -O ../svgs/4999.svg -->
<g transform="scale(0.750)" stroke-width="0.70" font-family="Times" font-size="20.00">
<text x="354.13" y="21.67" text-anchor="middle">4999.  Romeo and Juliet, Op. 64, Suite No. 1, 1st. Mvt. - Folk Dance, 1st. Theme</text>
</g>
<g transform="scale(0.750)" stroke-width="0.70" font-family="Times" font-size="14.00" font-style="italic">
<text x="694.93" y="45.34" text-anchor="end">Serge Prokofieff</text>
</g>
<g transform="scale(0.525)" stroke-width="0.70" font-family="Times" font-size="14.00" font-style="italic">
<defs>
<ellipse id="hd" rx="4.1" ry="2.9"
	transform="rotate(-20)" fill="currentColor"/>
</defs>
<use x="114.90" y="94.16" xlink:href="#hd"/>
<path d="M118.40 94.16v-20.00" stroke="currentColor" fill="none"/>
</g>
<g transform="scale(0.750)" stroke-width="0.70" font-family="Times" font-size="15.00" font-weight="bold">
<text x="88.13" y="68.01">= 120</text>
<path stroke="currentColor" fill="none"
	d="M144.43 111.01v-24.00"/>
<path stroke="currentColor" fill="none"
	d="M234.33 111.01v-24.00"/>
<path stroke="currentColor" fill="none"
	d="M324.63 111.01v-24.00"/>
<path stroke="currentColor" fill="none"
	d="M401.73 111.01v-24.00"/>
<path stroke="currentColor" fill="none"
	d="M482.93 111.01v-24.00"/>
<path stroke="currentColor" fill="none"
	d="M560.03 111.01v-24.00"/>
<path stroke="currentColor" fill="none"
	d="M637.13 111.01v-24.00"/>
<path stroke="currentColor" fill="none"
	d="M13.33 111.01h681.60m-681.60 -6h681.60m-681.60 -6h681.60m-681.60 -6h681.60m-681.60 -6h681.60"/>
<defs>
<path id="utclef" fill="currentColor" d="m-50 -90
	c-72 -41 -72 -158 52 -188
	c150 -10 220 188 90 256
	c-114 52 -275 0 -293 -136
	c-15 -181 93 -229 220 -334
	c88 -87 79 -133 62 -210
	c-51 33 -94 105 -89 186
	c17 267 36 374 49 574
	c6 96 -19 134 -77 135
	c-80 1 -126 -93 -61 -133
	c85 -41 133 101 31 105
	c23 17 92 37 90 -92
	c-10 -223 -39 -342 -50 -617
	c0 -90 0 -162 96 -232
	c56 72 63 230 22 289
	c-74 106 -257 168 -255 316
	c9 153 148 185 252 133
	c86 -65 29 -192 -80 -176
	c-71 12 -105 67 -59 124"/>
<use id="tclef" transform="scale(0.045)"
	xlink:href="#utclef"/>
</defs>
<use x="25.33" y="111.01" xlink:href="#tclef"/>
<defs>
<path id="usharp" fill="currentColor" d="
	m136 -702
	v890
	h32
	v-890
	m128 840
	h32
	v-888
	h-32
	m-232 286
	v116
	l338 -96
	v-116
	m-338 442
	v116
	l338 -98
	v-114"/>
<use id="sh0" transform="translate(-4,5) scale(0.018)"
	xlink:href="#usharp"/>
</defs>
<use x="40.33" y="87.01" xlink:href="#sh0"/>
<use x="45.83" y="96.01" xlink:href="#sh0"/>
<g font-family="serif" font-size="16" font-weight="bold" font-style="normal"
	transform="translate(61.83,111.01) scale(1.2,1)">
	<text y="-1" text-anchor="middle">8</text>
	<text y="-13" text-anchor="middle">6</text>
</g>
<path fill="currentColor"
	d="M76.03 121.31l28.80 -5.60v-3.20l-28.80 5.60"/>
<use x="79.83" y="102.01" xlink:href="#hd"/>
<path d="M76.33 102.01v18.20" stroke="currentColor" fill="none"/>
<defs>
<path id="r8e" fill="currentColor" d="m 0 0
	c-1.5 1.5 -2.4 2 -3.6 2
	c2.4 -2.8 -2.8 -4 -2.8 -1.2
	c0 2.7 4.3 2.4 5.9 0.6"/>
<g id="r8">
	<path d="m3.3 -4l-3.4 9.6" stroke="currentColor" fill="none"/>
	<use x="3.4" y="-4" xlink:href="#r8e"/>
</g>
</defs>
<use x="93.93" y="99.01" xlink:href="#r8"/>
<use x="108.03" y="93.01" xlink:href="#hd"/>
<path d="M104.53 93.01v21.70" stroke="currentColor" fill="none"/>
<use x="123.43" y="96.01" xlink:href="#hd"/>
<circle fill="currentColor" cx="131.43" cy="96.01" r="1.2"/>
<path d="M119.93 96.01v20.00" stroke="currentColor" fill="none"/>
<path fill="currentColor"
	d="M153.13 115.21l28.80 -4.00v-3.20l-28.80 4.00"/>
<use x="156.93" y="96.01" xlink:href="#hd"/>
<path d="M153.43 96.01v18.20" stroke="currentColor" fill="none"/>
<use x="171.03" y="93.01" xlink:href="#hd"/>
<path d="M167.53 93.01v19.20" stroke="currentColor" fill="none"/>
<use x="185.03" y="87.01" xlink:href="#hd"/>
<path d="M181.53 87.01v23.30" stroke="currentColor" fill="none"/>
<use x="200.53" y="90.01" xlink:href="#hd"/>
<path d="M197.03 90.01v20.00" stroke="currentColor" fill="none"/>
<use x="221.53" y="87.01" xlink:href="#hd"/>
<path d="M218.03 87.01v20.00" stroke="currentColor" fill="none"/>
<path fill="currentColor"
	d="M218.03 107.01c0.6 -5.6 9.6 -9 5.6 -18.4
	c1.6 6 -1.3 11.6 -5.6 12.8
"/>
<path fill="currentColor"
	d="M243.03 114.01l28.80 0.00v-3.20l-28.80 -0.00"/>
<use x="246.83" y="93.01" xlink:href="#hd"/>
<path d="M243.33 93.01v20.00" stroke="currentColor" fill="none"/>
<use x="260.93" y="99.01" xlink:href="#r8"/>
<use x="275.03" y="93.01" xlink:href="#hd"/>
<path d="M271.53 93.01v20.00" stroke="currentColor" fill="none"/>
<defs>
<path id="hl" stroke="currentColor" d="m-6 0h12"/>
</defs>
<use x="290.43" y="81.01" xlink:href="#hl"/>
<use x="290.43" y="81.01" xlink:href="#hd"/>
<path d="M286.93 81.01v20.00" stroke="currentColor" fill="none"/>
<use x="311.83" y="81.01" xlink:href="#hl"/>
<use x="311.83" y="75.01" xlink:href="#hl"/>
<use x="311.83" y="69.01" xlink:href="#hl"/>
<use x="311.83" y="63.01" xlink:href="#hl"/>
<use x="311.83" y="57.01" xlink:href="#hl"/>
<use x="311.83" y="57.01" xlink:href="#hd"/>
<path d="M308.33 57.01v42.00" stroke="currentColor" fill="none"/>
<path fill="currentColor"
	d="M308.33 99.01c0.6 -5.6 9.6 -9 5.6 -18.4
	c1.6 6 -1.3 11.6 -5.6 12.8
"/>
<path fill="currentColor"
	d="M333.23 112.01l28.80 6.30v-3.20l-28.80 -6.30"/>
<use x="337.13" y="81.01" xlink:href="#hl"/>
<use x="337.13" y="81.01" xlink:href="#hd"/>
<path d="M333.63 81.01v30.10" stroke="currentColor" fill="none"/>
<use x="351.23" y="87.01" xlink:href="#hd"/>
<path d="M347.73 87.01v27.10" stroke="currentColor" fill="none"/>
<use x="365.23" y="99.01" xlink:href="#hd"/>
<path d="M361.73 99.01v18.20" stroke="currentColor" fill="none"/>
<use x="380.73" y="90.01" xlink:href="#hd"/>
<circle fill="currentColor" cx="388.73" cy="90.01" r="1.2"/>
<path d="M377.23 90.01v20.00" stroke="currentColor" fill="none"/>
<use x="414.23" y="81.01" xlink:href="#hl"/>
<use x="414.23" y="81.01" xlink:href="#hd"/>
<path d="M410.73 81.01v20.00" stroke="currentColor" fill="none"/>
<use x="433.33" y="99.01" xlink:href="#r8"/>
<use x="448.73" y="81.01" xlink:href="#hl"/>
<use x="448.73" y="75.01" xlink:href="#hl"/>
<use x="448.73" y="72.01" xlink:href="#hd"/>
<path d="M445.23 72.01v27.00" stroke="currentColor" fill="none"/>
<use x="470.13" y="81.01" xlink:href="#hl"/>
<use x="470.13" y="78.01" xlink:href="#hd"/>
<path d="M466.63 78.01v21.00" stroke="currentColor" fill="none"/>
<path fill="currentColor"
	d="M466.63 99.01c0.6 -5.6 9.6 -9 5.6 -18.4
	c1.6 6 -1.3 11.6 -5.6 12.8
"/>
<path fill="currentColor"
	d="M491.63 105.61l28.80 6.60v-3.20l-28.80 -6.60"/>
<use x="495.43" y="81.01" xlink:href="#hl"/>
<use x="495.43" y="81.01" xlink:href="#hd"/>
<path d="M491.93 81.01v23.70" stroke="currentColor" fill="none"/>
<use x="509.53" y="87.01" xlink:href="#hd"/>
<path d="M506.03 87.01v21.00" stroke="currentColor" fill="none"/>
<use x="523.53" y="93.01" xlink:href="#hd"/>
<path d="M520.03 93.01v18.20" stroke="currentColor" fill="none"/>
<use x="539.03" y="87.01" xlink:href="#hd"/>
<circle fill="currentColor" cx="547.03" cy="84.01" r="1.2"/>
<path d="M535.53 87.01v20.00" stroke="currentColor" fill="none"/>
<path fill="currentColor"
	d="M568.63 117.21l28.80 4.00v-3.20l-28.80 -4.00"/>
<use x="572.53" y="93.01" xlink:href="#hd"/>
<path d="M569.03 93.01v23.30" stroke="currentColor" fill="none"/>
<use x="586.63" y="99.01" xlink:href="#hd"/>
<path d="M583.13 99.01v19.20" stroke="currentColor" fill="none"/>
<use x="600.63" y="102.01" xlink:href="#hd"/>
<path d="M597.13 102.01v18.20" stroke="currentColor" fill="none"/>
<use x="616.13" y="90.01" xlink:href="#hd"/>
<circle fill="currentColor" cx="624.13" cy="90.01" r="1.2"/>
<path d="M612.63 90.01v20.00" stroke="currentColor" fill="none"/>
<use x="649.63" y="90.01" xlink:href="#hd"/>
<circle fill="currentColor" cx="657.63" cy="90.01" r="1.2"/>
<path d="M646.13 90.01v20.00" stroke="currentColor" fill="none"/>
<use x="674.83" y="93.01" xlink:href="#hd"/>
<path d="M671.33 93.01v20.00" stroke="currentColor" fill="none"/>
<path fill="currentColor"
	d="M126.93 94.01c4.17 -4.98 22.33 -4.98 26.51 -0.00
	l0.00 -0.23c-4.97 -6.75 -21.54 -6.75 -26.51 0.23"/>
<path fill="currentColor"
	d="M619.63 88.01c4.17 -4.98 22.33 -4.98 26.51 -0.00
	l0.00 -0.23c-4.97 -6.75 -21.54 -6.75 -26.51 0.23"/>
</g>
</svg>
