<?xml version="1.0" standalone="no"?>
<!DOCTYPE svg PUBLIC "-//W3C//DTD SVG 1.1//EN"
	"http://www.w3.org/Graphics/SVG/1.1/DTD/svg11.dtd">
<svg xmlns="http://www.w3.org/2000/svg" version="1.1"
	xmlns:xlink="http://www.w3.org/1999/xlink"
	xml:space='preserve' color="black"
	width="7.38in" height="1.43in" viewBox="0 0 531 103">
<title>5040.abc (5040) tune 1</title>
<!-- Creator: abcm2ps-7.8.14 -->
<!-- CreationDate: Mar 13, 2016 18:54 -->
<!-- CommandLine: -qxg 5040.abc -O ../svgs/5040.svg -->
<g transform="scale(0.750)" stroke-width="0.70" font-family="Times" font-size="20.00">
<text x="354.13" y="21.67" text-anchor="middle">5040.  Sonata in D, Op. 94, 1st. Mvt. - 1st. Theme</text>
</g>
<g transform="scale(0.750)" stroke-width="0.70" font-family="Times" font-size="14.00" font-style="italic">
<text x="694.93" y="45.34" text-anchor="end">Serge Prokofieff</text>
</g>
<g transform="scale(0.525)" stroke-width="0.70" font-family="Times" font-size="14.00" font-style="italic">
<defs>
<ellipse id="hd" rx="4.1" ry="2.9"
	transform="rotate(-20)" fill="currentColor"/>
</defs>
<use x="115.61" y="94.16" xlink:href="#hd"/>
<path d="M119.11 94.16v-20.00" stroke="currentColor" fill="none"/>
</g>
<g transform="scale(0.750)" stroke-width="0.70" font-family="Times" font-size="15.00" font-weight="bold">
<text x="88.63" y="68.01">= 120</text>
<path stroke="currentColor" fill="none"
	d="M169.53 108.01v-24.00"/>
<path stroke="currentColor" fill="none"
	d="M401.23 108.01v-24.00"/>
<path stroke="currentColor" fill="none"
	d="M622.03 108.01v-24.00"/>
<path stroke="currentColor" fill="none"
	d="M694.93 108.01v-24.00"/>
<path stroke="currentColor" fill="none"
	d="M13.33 108.01h681.60m-681.60 -6h681.60m-681.60 -6h681.60m-681.60 -6h681.60m-681.60 -6h681.60"/>
<text font-family="serif" font-size="12" font-style="italic" font-weight="normal"
	x="236.73" y="116.01" text-anchor="middle">3</text>
<text font-family="serif" font-size="12" font-style="italic" font-weight="normal"
	x="546.53" y="130.71" text-anchor="middle">3</text>
<text font-family="serif" font-size="12" font-style="italic" font-weight="normal"
	x="592.93" y="137.31" text-anchor="middle">3</text>
<defs>
<path id="utclef" fill="currentColor" d="m-50 -90
	c-72 -41 -72 -158 52 -188
	c150 -10 220 188 90 256
	c-114 52 -275 0 -293 -136
	c-15 -181 93 -229 220 -334
	c88 -87 79 -133 62 -210
	c-51 33 -94 105 -89 186
	c17 267 36 374 49 574
	c6 96 -19 134 -77 135
	c-80 1 -126 -93 -61 -133
	c85 -41 133 101 31 105
	c23 17 92 37 90 -92
	c-10 -223 -39 -342 -50 -617
	c0 -90 0 -162 96 -232
	c56 72 63 230 22 289
	c-74 106 -257 168 -255 316
	c9 153 148 185 252 133
	c86 -65 29 -192 -80 -176
	c-71 12 -105 67 -59 124"/>
<use id="tclef" transform="scale(0.045)"
	xlink:href="#utclef"/>
</defs>
<use x="25.33" y="108.01" xlink:href="#tclef"/>
<defs>
<path id="usharp" fill="currentColor" d="
	m136 -702
	v890
	h32
	v-890
	m128 840
	h32
	v-888
	h-32
	m-232 286
	v116
	l338 -96
	v-116
	m-338 442
	v116
	l338 -98
	v-114"/>
<use id="sh0" transform="translate(-4,5) scale(0.018)"
	xlink:href="#usharp"/>
</defs>
<use x="40.33" y="84.01" xlink:href="#sh0"/>
<use x="45.83" y="93.01" xlink:href="#sh0"/>
<g font-family="serif" font-size="16" font-weight="bold" font-style="normal"
	transform="translate(61.83,108.01) scale(1.2,1)">
	<text y="-1" text-anchor="middle">4</text>
	<text y="-13" text-anchor="middle">4</text>
</g>
<defs>
<path id="hl" stroke="currentColor" d="m-6 0h12"/>
</defs>
<use x="80.33" y="78.01" xlink:href="#hl"/>
<defs>
<path id="Hd" fill="currentColor" d="m3 -1.6
	c-1 -1.8 -7 1.4 -6 3.2
	c1 1.8 7 -1.4 6 -3.2
	m0.5 -0.3
	c2 3.8 -5 7.6 -7 3.8
	c-2 -3.8 5 -7.6 7 -3.8"/>
</defs>
<use x="80.33" y="78.01" xlink:href="#Hd"/>
<circle fill="currentColor" cx="90.33" cy="75.01" r="1.2"/>
<path d="M76.83 78.01v20.00" stroke="currentColor" fill="none"/>
<use x="139.93" y="78.01" xlink:href="#hl"/>
<use x="139.93" y="72.01" xlink:href="#hl"/>
<use x="139.93" y="69.01" xlink:href="#hd"/>
<path d="M136.43 69.01v27.00" stroke="currentColor" fill="none"/>
<use x="182.93" y="78.01" xlink:href="#hl"/>
<use x="182.93" y="78.01" xlink:href="#hd"/>
<path d="M179.43 78.01v20.00" stroke="currentColor" fill="none"/>
<path fill="currentColor"
	d="M216.03 99.01l37.80 0.00v-3.20l-37.80 -0.00"/>
<use x="219.83" y="78.01" xlink:href="#hl"/>
<use x="219.83" y="78.01" xlink:href="#hd"/>
<path d="M216.33 78.01v20.00" stroke="currentColor" fill="none"/>
<use x="238.33" y="78.01" xlink:href="#hl"/>
<use x="238.33" y="78.01" xlink:href="#hd"/>
<path d="M234.83 78.01v20.00" stroke="currentColor" fill="none"/>
<use x="256.93" y="78.01" xlink:href="#hl"/>
<use x="256.93" y="78.01" xlink:href="#hd"/>
<path d="M253.43 78.01v20.00" stroke="currentColor" fill="none"/>
<defs>
<path id="r8e" fill="currentColor" d="m 0 0
	c-1.5 1.5 -2.4 2 -3.6 2
	c2.4 -2.8 -2.8 -4 -2.8 -1.2
	c0 2.7 4.3 2.4 5.9 0.6"/>
<g id="r32">
	<path d="m4.8 -10l-5.5 21.6" stroke="currentColor" fill="none"/>
	<use x="4.9" y="-10" xlink:href="#r8e"/>
	<use x="3.4" y="-4" xlink:href="#r8e"/>
	<use x="1.9" y="2" xlink:href="#r8e"/>
</g>
</defs>
<use x="275.43" y="96.01" xlink:href="#r32"/>
<use x="288.63" y="78.01" xlink:href="#hl"/>
<use x="288.63" y="78.01" xlink:href="#hd"/>
<path d="M285.13 78.01v20.00" stroke="currentColor" fill="none"/>
<path fill="currentColor"
	d="M322.03 108.21l61.00 0.00v-3.20l-61.00 -0.00"/>
<path fill="currentColor"
	d="M322.43 103.21l60.30 0.00v-3.20l-60.30 -0.00"/>
<path fill="currentColor"
	d="M358.23 98.21l6.00 0.00v-3.20l-6.00 -0.00"/>
<use x="325.93" y="78.01" xlink:href="#hl"/>
<use x="325.93" y="78.01" xlink:href="#hd"/>
<path d="M322.43 78.01v29.20" stroke="currentColor" fill="none"/>
<use x="342.73" y="81.01" xlink:href="#hd"/>
<path d="M339.23 81.01v26.20" stroke="currentColor" fill="none"/>
<use x="367.73" y="81.01" xlink:href="#hd"/>
<path d="M364.23 81.01v26.20" stroke="currentColor" fill="none"/>
<use x="360.73" y="84.01" xlink:href="#hd"/>
<defs>
<path id="unat" fill="currentColor" d="
	m96 -750
	h-32
	v716
	l32 -8
	l182 -54
	v282
	h32
	v-706
	l-34 10
	l-180 50
	v-290
	m0 592
	v-190
	l182 -52
	v188"/>
<use id="nt0" transform="translate(-3,5) scale(0.018)"
	xlink:href="#unat"/>
</defs>
<use x="351.73" y="84.01" xlink:href="#nt0"/>
<use x="386.23" y="84.01" xlink:href="#hd"/>
<use x="377.23" y="84.01" xlink:href="#nt0"/>
<path d="M382.73 84.01v23.20" stroke="currentColor" fill="none"/>
<use x="414.63" y="87.01" xlink:href="#Hd"/>
<path d="M411.13 87.01v20.00" stroke="currentColor" fill="none"/>
<use x="466.73" y="87.01" xlink:href="#hd"/>
<path d="M463.23 87.01v20.00" stroke="currentColor" fill="none"/>
<path fill="currentColor"
	d="M463.23 107.01c0.6 -5.6 9.6 -9 5.6 -18.4
	c1.6 6 -1.3 11.6 -5.6 12.8
"/>
<use x="493.23" y="84.01" xlink:href="#hd"/>
<use x="484.23" y="84.01" xlink:href="#nt0"/>
<path d="M489.73 84.01v20.00" stroke="currentColor" fill="none"/>
<path fill="currentColor"
	d="M526.23 112.11l36.70 6.10v-3.20l-36.70 -6.10"/>
<path fill="currentColor"
	d="M526.63 107.21l36.00 6.00v-3.20l-36.00 -6.00"/>
<path fill="currentColor"
	d="M526.63 102.21l36.00 6.00v-3.20l-36.00 -6.00"/>
<use x="530.13" y="78.01" xlink:href="#hl"/>
<use x="530.13" y="78.01" xlink:href="#hd"/>
<path d="M526.63 78.01v33.20" stroke="currentColor" fill="none"/>
<use x="548.13" y="84.01" xlink:href="#hd"/>
<use x="539.13" y="84.01" xlink:href="#nt0"/>
<path d="M544.63 84.01v30.20" stroke="currentColor" fill="none"/>
<use x="566.13" y="93.01" xlink:href="#hd"/>
<use x="557.13" y="93.01" xlink:href="#nt0"/>
<path d="M562.63 93.01v24.20" stroke="currentColor" fill="none"/>
<path fill="currentColor"
	d="M572.63 124.31l36.70 -6.10v-3.20l-36.70 6.10"/>
<path fill="currentColor"
	d="M573.03 119.21l36.00 -6.00v-3.20l-36.00 6.00"/>
<path fill="currentColor"
	d="M573.03 114.21l36.00 -6.00v-3.20l-36.00 6.00"/>
<use x="576.53" y="99.01" xlink:href="#hd"/>
<path d="M573.03 99.01v24.20" stroke="currentColor" fill="none"/>
<use x="594.53" y="93.01" xlink:href="#hd"/>
<use x="585.53" y="93.01" xlink:href="#nt0"/>
<path d="M591.03 93.01v27.20" stroke="currentColor" fill="none"/>
<use x="612.53" y="84.01" xlink:href="#hd"/>
<use x="603.53" y="84.01" xlink:href="#nt0"/>
<path d="M609.03 84.01v33.20" stroke="currentColor" fill="none"/>
<defs>
<path id="HD" fill="currentColor" d="m-2.7 -1.4
	c1.5 -2.8 6.9 0 5.3 2.7
	c-1.5 2.8 -6.9 0 -5.3 -2.7
	m8.3 1.4
	c0 -1.5 -2.2 -3 -5.6 -3
	c-3.4 0 -5.6 1.5 -5.6 3
	c0 1.5 2.2 3 5.6 3
	c3.4 0 5.6 -1.5 5.6 -3"/>
</defs>
<use x="637.03" y="90.01" xlink:href="#HD"/>
<path fill="currentColor"
	d="M292.13 78.01c4.76 -5.04 25.48 -5.04 30.24 -0.00
	l0.00 -0.23c-5.67 -6.81 -24.57 -6.81 -30.24 0.23"/>
<path fill="currentColor"
	d="M346.23 79.01c2.84 -4.82 15.18 -4.82 18.02 -0.00
	l0.00 -0.22c-3.38 -6.61 -14.64 -6.61 -18.02 0.22"/>
<path fill="currentColor"
	d="M367.73 84.01c2.91 -4.83 15.59 -4.83 18.50 -0.00
	l0.00 -0.22c-3.47 -6.61 -15.03 -6.61 -18.50 0.22"/>
</g>
</svg>
