<?xml version="1.0" standalone="no"?>
<!DOCTYPE svg PUBLIC "-//W3C//DTD SVG 1.1//EN"
	"http://www.w3.org/Graphics/SVG/1.1/DTD/svg11.dtd">
<svg xmlns="http://www.w3.org/2000/svg" version="1.1"
	xmlns:xlink="http://www.w3.org/1999/xlink"
	xml:space='preserve' color="black"
	width="7.38in" height="1.36in" viewBox="0 0 531 98">
<title>5043.abc (5043) tune 1</title>
<!-- Creator: abcm2ps-7.8.14 -->
<!-- CreationDate: Mar 13, 2016 18:54 -->
<!-- CommandLine: -qxg 5043.abc -O ../svgs/5043.svg -->
<g transform="scale(0.750)" stroke-width="0.70" font-family="Times" font-size="20.00">
<text x="354.13" y="21.67" text-anchor="middle">5043.  Sonata in D, Op. 94, 2nd. Mvt. - 2nd. Theme</text>
</g>
<g transform="scale(0.750)" stroke-width="0.70" font-family="Times" font-size="14.00" font-style="italic">
<text x="694.93" y="45.34" text-anchor="end">Serge Prokofieff</text>
</g>
<g transform="scale(0.525)" stroke-width="0.70" font-family="Times" font-size="14.00" font-style="italic">
<defs>
<ellipse id="hd" rx="4.1" ry="2.9"
	transform="rotate(-20)" fill="currentColor"/>
</defs>
<use x="89.19" y="94.16" xlink:href="#hd"/>
<path d="M92.69 94.16v-20.00" stroke="currentColor" fill="none"/>
</g>
<g transform="scale(0.750)" stroke-width="0.70" font-family="Times" font-size="15.00" font-weight="bold">
<text x="70.13" y="68.01">= 120</text>
<path stroke="currentColor" fill="none"
	d="M113.53 108.01v-24.00"/>
<path stroke="currentColor" fill="none"
	d="M195.73 108.01v-24.00"/>
<path stroke="currentColor" fill="none"
	d="M288.73 108.01v-24.00"/>
<path stroke="currentColor" fill="none"
	d="M370.33 108.01v-24.00"/>
<path stroke="currentColor" fill="none"
	d="M493.93 108.01v-24.00"/>
<path stroke="currentColor" fill="none"
	d="M613.43 108.01v-24.00"/>
<path stroke="currentColor" fill="none"
	d="M13.33 108.01h681.60m-681.60 -6h681.60m-681.60 -6h681.60m-681.60 -6h681.60m-681.60 -6h681.60"/>
<defs>
<path id="utclef" fill="currentColor" d="m-50 -90
	c-72 -41 -72 -158 52 -188
	c150 -10 220 188 90 256
	c-114 52 -275 0 -293 -136
	c-15 -181 93 -229 220 -334
	c88 -87 79 -133 62 -210
	c-51 33 -94 105 -89 186
	c17 267 36 374 49 574
	c6 96 -19 134 -77 135
	c-80 1 -126 -93 -61 -133
	c85 -41 133 101 31 105
	c23 17 92 37 90 -92
	c-10 -223 -39 -342 -50 -617
	c0 -90 0 -162 96 -232
	c56 72 63 230 22 289
	c-74 106 -257 168 -255 316
	c9 153 148 185 252 133
	c86 -65 29 -192 -80 -176
	c-71 12 -105 67 -59 124"/>
<use id="tclef" transform="scale(0.045)"
	xlink:href="#utclef"/>
</defs>
<use x="25.33" y="108.01" xlink:href="#tclef"/>
<g font-family="serif" font-size="16" font-weight="bold" font-style="normal"
	transform="translate(43.83,108.01) scale(1.2,1)">
	<text y="-1" text-anchor="middle">4</text>
	<text y="-13" text-anchor="middle">3</text>
</g>
<use x="61.83" y="87.01" xlink:href="#hd"/>
<path d="M58.33 87.01v20.00" stroke="currentColor" fill="none"/>
<defs>
<path id="hl" stroke="currentColor" d="m-6 0h12"/>
</defs>
<use x="86.13" y="78.01" xlink:href="#hl"/>
<defs>
<path id="Hd" fill="currentColor" d="m3 -1.6
	c-1 -1.8 -7 1.4 -6 3.2
	c1 1.8 7 -1.4 6 -3.2
	m0.5 -0.3
	c2 3.8 -5 7.6 -7 3.8
	c-2 -3.8 5 -7.6 7 -3.8"/>
</defs>
<use x="86.13" y="78.01" xlink:href="#Hd"/>
<path d="M82.63 78.01v20.00" stroke="currentColor" fill="none"/>
<use x="126.03" y="78.01" xlink:href="#hl"/>
<use x="126.03" y="72.01" xlink:href="#hl"/>
<use x="126.03" y="66.01" xlink:href="#hl"/>
<use x="126.03" y="66.01" xlink:href="#hd"/>
<path d="M122.53 66.01v30.00" stroke="currentColor" fill="none"/>
<use x="150.53" y="78.01" xlink:href="#hl"/>
<use x="150.53" y="72.01" xlink:href="#hl"/>
<use x="150.53" y="66.01" xlink:href="#hl"/>
<use x="150.53" y="66.01" xlink:href="#hd"/>
<circle fill="currentColor" cx="158.53" cy="63.01" r="1.2"/>
<path d="M147.03 66.01v30.00" stroke="currentColor" fill="none"/>
<use x="181.13" y="84.01" xlink:href="#hd"/>
<defs>
<path id="usharp" fill="currentColor" d="
	m136 -702
	v890
	h32
	v-890
	m128 840
	h32
	v-888
	h-32
	m-232 286
	v116
	l338 -96
	v-116
	m-338 442
	v116
	l338 -98
	v-114"/>
<use id="sh0" transform="translate(-4,5) scale(0.018)"
	xlink:href="#usharp"/>
</defs>
<use x="172.13" y="84.01" xlink:href="#sh0"/>
<path d="M177.63 84.01v20.00" stroke="currentColor" fill="none"/>
<path fill="currentColor"
	d="M177.63 104.01c0.6 -5.6 9.6 -9 5.6 -18.4
	c1.6 6 -1.3 11.6 -5.6 12.8
"/>
<use x="208.23" y="87.01" xlink:href="#hd"/>
<path d="M204.73 87.01v20.00" stroke="currentColor" fill="none"/>
<use x="234.23" y="90.01" xlink:href="#hd"/>
<use x="225.23" y="90.01" xlink:href="#sh0"/>
<path d="M230.73 90.01v20.00" stroke="currentColor" fill="none"/>
<path fill="currentColor"
	d="M261.23 84.61l16.80 -2.30v3.20l-16.80 2.30"/>
<use x="258.03" y="105.01" xlink:href="#hd"/>
<use x="249.03" y="105.01" xlink:href="#sh0"/>
<path d="M261.53 105.01v-19.40" stroke="currentColor" fill="none"/>
<use x="274.13" y="102.01" xlink:href="#hd"/>
<path d="M277.63 102.01v-18.60" stroke="currentColor" fill="none"/>
<path fill="currentColor"
	d="M310.33 84.61l16.80 -2.30v3.20l-16.80 2.30"/>
<use x="307.23" y="105.01" xlink:href="#hd"/>
<use x="298.23" y="105.01" xlink:href="#sh0"/>
<path d="M310.73 105.01v-19.40" stroke="currentColor" fill="none"/>
<use x="323.33" y="102.01" xlink:href="#hd"/>
<path d="M326.83 102.01v-18.60" stroke="currentColor" fill="none"/>
<use x="342.93" y="102.01" xlink:href="#Hd"/>
<use x="332.93" y="102.01" xlink:href="#sh0"/>
<path d="M346.43 102.01v-20.00" stroke="currentColor" fill="none"/>
<use x="388.83" y="105.01" xlink:href="#hd"/>
<use x="379.83" y="105.01" xlink:href="#sh0"/>
<path d="M392.33 105.01v-20.00" stroke="currentColor" fill="none"/>
<defs>
<path id="r8e" fill="currentColor" d="m 0 0
	c-1.5 1.5 -2.4 2 -3.6 2
	c2.4 -2.8 -2.8 -4 -2.8 -1.2
	c0 2.7 4.3 2.4 5.9 0.6"/>
<g id="r32">
	<path d="m4.8 -10l-5.5 21.6" stroke="currentColor" fill="none"/>
	<use x="4.9" y="-10" xlink:href="#r8e"/>
	<use x="3.4" y="-4" xlink:href="#r8e"/>
	<use x="1.9" y="2" xlink:href="#r8e"/>
</g>
</defs>
<use x="410.83" y="96.01" xlink:href="#r32"/>
<use x="419.83" y="99.01" xlink:href="#hd"/>
<circle fill="currentColor" cx="427.83" cy="99.01" r="1.2"/>
<path d="M423.33 99.01v-21.00" stroke="currentColor" fill="none"/>
<path fill="currentColor"
	d="M423.33 78.01c0.9 3.7 9.1 6.4 6 12.4
	c1 -5.4 -4.2 -8.4 -6 -8.4
M423.33 83.41c0.9 3.7 9.1 6.4 6 12.4
	c1 -5.4 -4.2 -8.4 -6 -8.4
"/>
<path fill="currentColor"
	d="M441.43 112.31l34.80 -4.50v-3.20l-34.80 4.50"/>
<use x="445.33" y="93.01" xlink:href="#hd"/>
<use x="436.33" y="93.01" xlink:href="#sh0"/>
<path d="M441.83 93.01v18.30" stroke="currentColor" fill="none"/>
<use x="463.33" y="90.01" xlink:href="#hd"/>
<defs>
<path id="unat" fill="currentColor" d="
	m96 -750
	h-32
	v716
	l32 -8
	l182 -54
	v282
	h32
	v-706
	l-34 10
	l-180 50
	v-290
	m0 592
	v-190
	l182 -52
	v188"/>
<use id="nt0" transform="translate(-3,5) scale(0.018)"
	xlink:href="#unat"/>
</defs>
<use x="454.33" y="90.01" xlink:href="#nt0"/>
<path d="M459.83 90.01v18.90" stroke="currentColor" fill="none"/>
<use x="479.33" y="87.01" xlink:href="#hd"/>
<path d="M475.83 87.01v19.80" stroke="currentColor" fill="none"/>
<path fill="currentColor"
	d="M508.63 103.31l34.80 -4.50v-3.20l-34.80 4.50"/>
<use x="512.43" y="84.01" xlink:href="#hd"/>
<use x="503.43" y="84.01" xlink:href="#nt0"/>
<path d="M508.93 84.01v18.30" stroke="currentColor" fill="none"/>
<use x="530.43" y="81.01" xlink:href="#hd"/>
<use x="521.43" y="81.01" xlink:href="#nt0"/>
<path d="M526.93 81.01v18.90" stroke="currentColor" fill="none"/>
<use x="546.53" y="78.01" xlink:href="#hl"/>
<use x="546.53" y="78.01" xlink:href="#hd"/>
<path d="M543.03 78.01v19.80" stroke="currentColor" fill="none"/>
<path fill="currentColor"
	d="M560.63 99.41l35.10 3.80v-3.20l-35.10 -3.80"/>
<use x="564.53" y="78.01" xlink:href="#hl"/>
<use x="564.53" y="75.01" xlink:href="#hd"/>
<path d="M561.03 75.01v23.40" stroke="currentColor" fill="none"/>
<use x="580.83" y="78.01" xlink:href="#hl"/>
<use x="580.83" y="78.01" xlink:href="#hd"/>
<path d="M577.33 78.01v22.20" stroke="currentColor" fill="none"/>
<use x="598.83" y="84.01" xlink:href="#hd"/>
<use x="589.83" y="84.01" xlink:href="#sh0"/>
<path d="M595.33 84.01v18.20" stroke="currentColor" fill="none"/>
<path fill="currentColor"
	d="M622.13 96.21l33.40 0.00v-3.20l-33.40 -0.00"/>
<use x="625.93" y="78.01" xlink:href="#hl"/>
<use x="625.93" y="78.01" xlink:href="#hd"/>
<path d="M622.43 78.01v17.20" stroke="currentColor" fill="none"/>
<use x="642.33" y="78.01" xlink:href="#hl"/>
<use x="642.33" y="75.01" xlink:href="#hd"/>
<path d="M638.83 75.01v20.20" stroke="currentColor" fill="none"/>
<use x="658.73" y="78.01" xlink:href="#hl"/>
<use x="658.73" y="78.01" xlink:href="#hd"/>
<path d="M655.23 78.01v17.20" stroke="currentColor" fill="none"/>
<use x="678.23" y="84.01" xlink:href="#hd"/>
<use x="669.23" y="84.01" xlink:href="#nt0"/>
<path d="M674.73 84.01v20.00" stroke="currentColor" fill="none"/>
<path fill="currentColor"
	d="M674.73 104.01c0.6 -5.6 9.6 -9 5.6 -18.4
	c1.6 6 -1.3 11.6 -5.6 12.8
"/>
</g>
</svg>
