<?xml version="1.0" standalone="no"?>
<!DOCTYPE svg PUBLIC "-//W3C//DTD SVG 1.1//EN"
	"http://www.w3.org/Graphics/SVG/1.1/DTD/svg11.dtd">
<svg xmlns="http://www.w3.org/2000/svg" version="1.1"
	xmlns:xlink="http://www.w3.org/1999/xlink"
	xml:space='preserve' color="black"
	width="7.38in" height="1.34in" viewBox="0 0 531 97">
<title>5066.abc (5066) tune 1</title>
<!-- Creator: abcm2ps-7.8.14 -->
<!-- CreationDate: Mar 13, 2016 18:54 -->
<!-- CommandLine: -qxg 5066.abc -O ../svgs/5066.svg -->
<g transform="scale(0.750)" stroke-width="0.70" font-family="Times" font-size="20.00">
<text x="354.13" y="21.67" text-anchor="middle">5066.  Symphony No. 5 in B Flat, Op. 100, 4th. Mvt. - 3rd. Theme</text>
</g>
<g transform="scale(0.750)" stroke-width="0.70" font-family="Times" font-size="14.00" font-style="italic">
<text x="694.93" y="45.34" text-anchor="end">Serge Prokofieff</text>
</g>
<g transform="scale(0.525)" stroke-width="0.70" font-family="Times" font-size="14.00" font-style="italic">
<defs>
<ellipse id="hd" rx="4.1" ry="2.9"
	transform="rotate(-20)" fill="currentColor"/>
</defs>
<use x="138.47" y="94.16" xlink:href="#hd"/>
<path d="M141.97 94.16v-20.00" stroke="currentColor" fill="none"/>
</g>
<g transform="scale(0.750)" stroke-width="0.70" font-family="Times" font-size="15.00" font-weight="bold">
<text x="104.63" y="68.01">= 120</text>
<path stroke="currentColor" fill="none"
	d="M184.23 106.01v-24.00"/>
<path stroke="currentColor" fill="none"
	d="M270.83 106.01v-24.00"/>
<path stroke="currentColor" fill="none"
	d="M357.53 106.01v-24.00"/>
<path stroke="currentColor" fill="none"
	d="M446.83 106.01v-24.00"/>
<path stroke="currentColor" fill="none"
	d="M560.63 106.01v-24.00"/>
<path stroke="currentColor" fill="none"
	d="M649.53 106.01v-24.00"/>
<path stroke="currentColor" fill="none"
	d="M13.33 106.01h681.60m-681.60 -6h681.60m-681.60 -6h681.60m-681.60 -6h681.60m-681.60 -6h681.60"/>
<defs>
<path id="ubclef" fill="currentColor" d="m-200 -87
	c124 -35 222 -78 254 -236
	c43 -228 -167 -246 -192 -103
	c59 -80 157 22 92 78
	c-62 47 -115 -22 -106 -88
	c21 -141 270 -136 274 52
	c-1 175 -106 264 -322 297
	m357 -250
	c0 -36 51 -34 51 0
	c0 37 -51 36 -51 0
	m-2 -129
	c0 -36 51 -34 51 0
	c0 38 -51 37 -51 0"/>
<use id="bclef" transform="scale(0.045)"
	xlink:href="#ubclef"/>
</defs>
<use x="25.33" y="106.01" xlink:href="#bclef"/>
<defs>
<path id="uflat" fill="currentColor" d="
	m100 -746
	h32
	v734
	l-32 4
	m32 -332
	c46 -72 152 -90 208 -20
	c100 110 -120 326 -208 348
	m0 -28
	c54 0 200 -206 130 -290
	c-50 -60 -130 -4 -130 34"/>
<use id="ft0" transform="translate(-3.5,3.5) scale(0.018)"
	xlink:href="#uflat"/>
</defs>
<use x="40.33" y="100.01" xlink:href="#ft0"/>
<use x="45.83" y="91.01" xlink:href="#ft0"/>
<use x="51.33" y="103.01" xlink:href="#ft0"/>
<use x="56.83" y="94.01" xlink:href="#ft0"/>
<use x="62.33" y="106.01" xlink:href="#ft0"/>
<g font-family="serif" font-size="16" font-weight="bold" font-style="normal"
	transform="translate(78.33,106.01) scale(1.2,1)">
	<text y="-1" text-anchor="middle">2</text>
	<text y="-13" text-anchor="middle">2</text>
</g>
<defs>
<path id="r4" fill="currentColor" d="m-1 -8.5
	l3.6 5.1 -2.1 5.2 2.2 4.3
	c-2.6 -2.3 -5.1 0 -2.4 2.6
	c-4.8 -3 -1.5 -6.9 1.4 -4.1
	l-3.1 -4.5 1.9 -5.1 -1.5 -3.5"/>
</defs>
<use x="96.33" y="94.01" xlink:href="#r4"/>
<use x="119.93" y="88.01" xlink:href="#hd"/>
<path d="M116.43 88.01v20.00" stroke="currentColor" fill="none"/>
<use x="143.63" y="91.01" xlink:href="#hd"/>
<path d="M140.13 91.01v20.00" stroke="currentColor" fill="none"/>
<use x="165.03" y="103.01" xlink:href="#hd"/>
<path d="M168.53 103.01v-20.00" stroke="currentColor" fill="none"/>
<use x="196.73" y="94.01" xlink:href="#hd"/>
<path d="M193.23 94.01v20.00" stroke="currentColor" fill="none"/>
<use x="220.43" y="91.01" xlink:href="#hd"/>
<path d="M216.93 91.01v20.00" stroke="currentColor" fill="none"/>
<defs>
<path id="Hd" fill="currentColor" d="m3 -1.6
	c-1 -1.8 -7 1.4 -6 3.2
	c1 1.8 7 -1.4 6 -3.2
	m0.5 -0.3
	c2 3.8 -5 7.6 -7 3.8
	c-2 -3.8 5 -7.6 7 -3.8"/>
</defs>
<use x="244.13" y="88.01" xlink:href="#Hd"/>
<path d="M240.63 88.01v20.00" stroke="currentColor" fill="none"/>
<use x="283.33" y="88.01" xlink:href="#hd"/>
<path d="M279.83 88.01v20.00" stroke="currentColor" fill="none"/>
<use x="307.03" y="85.01" xlink:href="#hd"/>
<path d="M303.53 85.01v20.00" stroke="currentColor" fill="none"/>
<use x="330.73" y="82.01" xlink:href="#Hd"/>
<path d="M327.23 82.01v20.00" stroke="currentColor" fill="none"/>
<defs>
<path id="hl" stroke="currentColor" d="m-6 0h12"/>
</defs>
<use x="370.53" y="76.01" xlink:href="#hl"/>
<use x="370.53" y="70.01" xlink:href="#hl"/>
<use x="370.53" y="67.01" xlink:href="#Hd"/>
<path d="M367.03 67.01v27.00" stroke="currentColor" fill="none"/>
<use x="403.73" y="76.01" xlink:href="#hl"/>
<use x="403.73" y="70.01" xlink:href="#hl"/>
<use x="403.73" y="70.01" xlink:href="#hd"/>
<path d="M400.23 70.01v24.00" stroke="currentColor" fill="none"/>
<use x="427.53" y="76.01" xlink:href="#hl"/>
<use x="427.53" y="76.01" xlink:href="#hd"/>
<path d="M424.03 76.01v20.00" stroke="currentColor" fill="none"/>
<use x="459.33" y="76.01" xlink:href="#hl"/>
<use x="459.33" y="73.01" xlink:href="#hd"/>
<path d="M455.83 73.01v21.00" stroke="currentColor" fill="none"/>
<use x="483.13" y="76.01" xlink:href="#hl"/>
<use x="483.13" y="70.01" xlink:href="#hl"/>
<use x="483.13" y="67.01" xlink:href="#hd"/>
<path d="M479.63 67.01v27.00" stroke="currentColor" fill="none"/>
<path fill="currentColor"
	d="M479.63 94.01c0.6 -5.6 9.6 -9 5.6 -18.4
	c1.6 6 -1.3 11.6 -5.6 12.8
"/>
<use x="500.43" y="76.01" xlink:href="#hl"/>
<use x="500.43" y="73.01" xlink:href="#hd"/>
<path d="M496.93 73.01v21.00" stroke="currentColor" fill="none"/>
<path fill="currentColor"
	d="M496.93 94.01c0.6 -5.6 9.6 -9 5.6 -18.4
	c1.6 6 -1.3 11.6 -5.6 12.8
"/>
<use x="517.73" y="76.01" xlink:href="#hl"/>
<use x="517.73" y="76.01" xlink:href="#hd"/>
<path d="M514.23 76.01v20.00" stroke="currentColor" fill="none"/>
<use x="541.43" y="82.01" xlink:href="#hd"/>
<path d="M537.93 82.01v20.00" stroke="currentColor" fill="none"/>
<use x="573.63" y="79.01" xlink:href="#Hd"/>
<path d="M570.13 79.01v20.00" stroke="currentColor" fill="none"/>
<use x="606.63" y="88.01" xlink:href="#hd"/>
<path d="M603.13 88.01v20.00" stroke="currentColor" fill="none"/>
<use x="630.33" y="85.01" xlink:href="#hd"/>
<path d="M626.83 85.01v20.00" stroke="currentColor" fill="none"/>
<use x="662.53" y="82.01" xlink:href="#Hd"/>
<path d="M659.03 82.01v20.00" stroke="currentColor" fill="none"/>
<path fill="currentColor"
	d="M247.63 88.01c5.08 -5.08 27.16 -5.08 32.24 -0.00
	l0.00 -0.23c-6.05 -6.85 -26.20 -6.85 -32.24 0.23"/>
</g>
</svg>
