<?xml version="1.0" standalone="no"?>
<!DOCTYPE svg PUBLIC "-//W3C//DTD SVG 1.1//EN"
	"http://www.w3.org/Graphics/SVG/1.1/DTD/svg11.dtd">
<svg xmlns="http://www.w3.org/2000/svg" version="1.1"
	xmlns:xlink="http://www.w3.org/1999/xlink"
	xml:space='preserve' color="black"
	width="7.38in" height="1.34in" viewBox="0 0 531 97">
<title>5093.abc (5093) tune 1</title>
<!-- Creator: abcm2ps-7.8.14 -->
<!-- CreationDate: Mar 13, 2016 18:54 -->
<!-- CommandLine: -qxg 5093.abc -O ../svgs/5093.svg -->
<g transform="scale(0.750)" stroke-width="0.70" font-family="Times" font-size="20.00">
<text x="354.13" y="21.67" text-anchor="middle">5093.  Sonata No. 6, in G Minor, Ground Bass</text>
</g>
<g transform="scale(0.750)" stroke-width="0.70" font-family="Times" font-size="14.00" font-style="italic">
<text x="694.93" y="45.34" text-anchor="end">Henry Purcell</text>
</g>
<g transform="scale(0.525)" stroke-width="0.70" font-family="Times" font-size="14.00" font-style="italic">
<defs>
<ellipse id="hd" rx="4.1" ry="2.9"
	transform="rotate(-20)" fill="currentColor"/>
</defs>
<use x="115.61" y="94.16" xlink:href="#hd"/>
<path d="M119.11 94.16v-20.00" stroke="currentColor" fill="none"/>
</g>
<g transform="scale(0.750)" stroke-width="0.70" font-family="Times" font-size="15.00" font-weight="bold">
<text x="88.63" y="68.01">= 120</text>
<path stroke="currentColor" fill="none"
	d="M131.83 106.01v-24.00"/>
<path stroke="currentColor" fill="none"
	d="M197.53 106.01v-24.00"/>
<path stroke="currentColor" fill="none"
	d="M263.23 106.01v-24.00"/>
<path stroke="currentColor" fill="none"
	d="M383.13 106.01v-24.00"/>
<path stroke="currentColor" fill="none"
	d="M482.63 106.01v-24.00"/>
<path stroke="currentColor" fill="none"
	d="M548.23 106.01v-24.00"/>
<path stroke="currentColor" fill="none"
	d="M13.33 106.01h534.90m-534.90 -6h534.90m-534.90 -6h534.90m-534.90 -6h534.90m-534.90 -6h534.90"/>
<defs>
<path id="ubclef" fill="currentColor" d="m-200 -87
	c124 -35 222 -78 254 -236
	c43 -228 -167 -246 -192 -103
	c59 -80 157 22 92 78
	c-62 47 -115 -22 -106 -88
	c21 -141 270 -136 274 52
	c-1 175 -106 264 -322 297
	m357 -250
	c0 -36 51 -34 51 0
	c0 37 -51 36 -51 0
	m-2 -129
	c0 -36 51 -34 51 0
	c0 38 -51 37 -51 0"/>
<use id="bclef" transform="scale(0.045)"
	xlink:href="#ubclef"/>
</defs>
<use x="25.33" y="106.01" xlink:href="#bclef"/>
<defs>
<path id="uflat" fill="currentColor" d="
	m100 -746
	h32
	v734
	l-32 4
	m32 -332
	c46 -72 152 -90 208 -20
	c100 110 -120 326 -208 348
	m0 -28
	c54 0 200 -206 130 -290
	c-50 -60 -130 -4 -130 34"/>
<use id="ft0" transform="translate(-3.5,3.5) scale(0.018)"
	xlink:href="#uflat"/>
</defs>
<use x="40.33" y="100.01" xlink:href="#ft0"/>
<use x="45.83" y="91.01" xlink:href="#ft0"/>
<g font-family="serif" font-size="16" font-weight="bold" font-style="normal"
	transform="translate(61.83,106.01) scale(1.2,1)">
	<text y="-1" text-anchor="middle">4</text>
	<text y="-13" text-anchor="middle">3</text>
</g>
<defs>
<path id="Hd" fill="currentColor" d="m3 -1.6
	c-1 -1.8 -7 1.4 -6 3.2
	c1 1.8 7 -1.4 6 -3.2
	m0.5 -0.3
	c2 3.8 -5 7.6 -7 3.8
	c-2 -3.8 5 -7.6 7 -3.8"/>
</defs>
<use x="80.33" y="85.01" xlink:href="#Hd"/>
<circle fill="currentColor" cx="90.33" cy="85.01" r="1.2"/>
<path d="M76.83 85.01v20.00" stroke="currentColor" fill="none"/>
<use x="146.03" y="88.01" xlink:href="#Hd"/>
<circle fill="currentColor" cx="155.03" cy="85.01" r="1.2"/>
<path d="M142.53 88.01v20.00" stroke="currentColor" fill="none"/>
<use x="211.63" y="91.01" xlink:href="#Hd"/>
<circle fill="currentColor" cx="220.63" cy="91.01" r="1.2"/>
<path d="M208.13 91.01v20.00" stroke="currentColor" fill="none"/>
<use x="277.33" y="94.01" xlink:href="#hd"/>
<circle fill="currentColor" cx="285.33" cy="91.01" r="1.2"/>
<path d="M280.83 94.01v-20.00" stroke="currentColor" fill="none"/>
<use x="322.83" y="97.01" xlink:href="#hd"/>
<path d="M326.33 97.01v-20.00" stroke="currentColor" fill="none"/>
<path fill="currentColor"
	d="	M326.33 77.01c0.6 5.6 9.6 9 5.6 18.4
	c1.6 -6 -1.3 -11.6 -5.6 -12.8
"/>
<use x="351.13" y="100.01" xlink:href="#hd"/>
<path d="M354.63 100.01v-20.00" stroke="currentColor" fill="none"/>
<use x="397.33" y="97.01" xlink:href="#hd"/>
<path d="M400.83 97.01v-20.00" stroke="currentColor" fill="none"/>
<use x="437.33" y="94.01" xlink:href="#Hd"/>
<path d="M440.83 94.01v-20.00" stroke="currentColor" fill="none"/>
<use x="496.73" y="85.01" xlink:href="#Hd"/>
<circle fill="currentColor" cx="505.73" cy="85.01" r="1.2"/>
<path d="M493.23 85.01v20.00" stroke="currentColor" fill="none"/>
</g>
</svg>
