<?xml version="1.0" standalone="no"?>
<!DOCTYPE svg PUBLIC "-//W3C//DTD SVG 1.1//EN"
	"http://www.w3.org/Graphics/SVG/1.1/DTD/svg11.dtd">
<svg xmlns="http://www.w3.org/2000/svg" version="1.1"
	xmlns:xlink="http://www.w3.org/1999/xlink"
	xml:space='preserve' color="black"
	width="7.38in" height="1.34in" viewBox="0 0 531 97">
<title>5114.abc (5114) tune 1</title>
<!-- Creator: abcm2ps-7.8.14 -->
<!-- CreationDate: Mar 13, 2016 18:54 -->
<!-- CommandLine: -qxg 5114.abc -O ../svgs/5114.svg -->
<g transform="scale(0.750)" stroke-width="0.70" font-family="Times" font-size="20.00">
<text x="354.13" y="21.67" text-anchor="middle">5114.  Concerto in G, 1st. Mvt. - 1st. Theme B</text>
</g>
<g transform="scale(0.750)" stroke-width="0.70" font-family="Times" font-size="14.00" font-style="italic">
<text x="694.93" y="45.34" text-anchor="end">Johann Quantz</text>
</g>
<g transform="scale(0.525)" stroke-width="0.70" font-family="Times" font-size="14.00" font-style="italic">
<defs>
<ellipse id="hd" rx="4.1" ry="2.9"
	transform="rotate(-20)" fill="currentColor"/>
</defs>
<use x="107.04" y="94.16" xlink:href="#hd"/>
<path d="M110.54 94.16v-20.00" stroke="currentColor" fill="none"/>
</g>
<g transform="scale(0.750)" stroke-width="0.70" font-family="Times" font-size="15.00" font-weight="bold">
<text x="82.63" y="68.01">= 120</text>
<path stroke="currentColor" fill="none"
	d="M223.73 106.01v-24.00"/>
<path stroke="currentColor" fill="none"
	d="M380.53 106.01v-24.00"/>
<path stroke="currentColor" fill="none"
	d="M538.93 106.01v-24.00"/>
<path stroke="currentColor" fill="none"
	d="M13.33 106.01h681.60m-681.60 -6h681.60m-681.60 -6h681.60m-681.60 -6h681.60m-681.60 -6h681.60"/>
<defs>
<path id="utclef" fill="currentColor" d="m-50 -90
	c-72 -41 -72 -158 52 -188
	c150 -10 220 188 90 256
	c-114 52 -275 0 -293 -136
	c-15 -181 93 -229 220 -334
	c88 -87 79 -133 62 -210
	c-51 33 -94 105 -89 186
	c17 267 36 374 49 574
	c6 96 -19 134 -77 135
	c-80 1 -126 -93 -61 -133
	c85 -41 133 101 31 105
	c23 17 92 37 90 -92
	c-10 -223 -39 -342 -50 -617
	c0 -90 0 -162 96 -232
	c56 72 63 230 22 289
	c-74 106 -257 168 -255 316
	c9 153 148 185 252 133
	c86 -65 29 -192 -80 -176
	c-71 12 -105 67 -59 124"/>
<use id="tclef" transform="scale(0.045)"
	xlink:href="#utclef"/>
</defs>
<use x="25.33" y="106.01" xlink:href="#tclef"/>
<defs>
<path id="usharp" fill="currentColor" d="
	m136 -702
	v890
	h32
	v-890
	m128 840
	h32
	v-888
	h-32
	m-232 286
	v116
	l338 -96
	v-116
	m-338 442
	v116
	l338 -98
	v-114"/>
<use id="sh0" transform="translate(-4,5) scale(0.018)"
	xlink:href="#usharp"/>
</defs>
<use x="40.33" y="82.01" xlink:href="#sh0"/>
<g font-family="serif" font-size="16" font-weight="bold" font-style="normal"
	transform="translate(56.33,106.01) scale(1.2,1)">
	<text y="-1" text-anchor="middle">4</text>
	<text y="-13" text-anchor="middle">4</text>
</g>
<use x="74.33" y="100.01" xlink:href="#hd"/>
<path d="M77.83 100.01v-20.00" stroke="currentColor" fill="none"/>
<use x="109.63" y="100.01" xlink:href="#hd"/>
<path d="M113.13 100.01v-20.00" stroke="currentColor" fill="none"/>
<path fill="currentColor"
	d="	M113.13 80.01c0.6 5.6 9.6 9 5.6 18.4
	c1.6 -6 -1.3 -11.6 -5.6 -12.8
"/>
<use x="134.83" y="100.01" xlink:href="#hd"/>
<path d="M138.33 100.01v-20.00" stroke="currentColor" fill="none"/>
<path fill="currentColor"
	d="	M138.33 80.01c0.6 5.6 9.6 9 5.6 18.4
	c1.6 -6 -1.3 -11.6 -5.6 -12.8
"/>
<use x="160.03" y="94.01" xlink:href="#hd"/>
<path d="M163.53 94.01v-20.00" stroke="currentColor" fill="none"/>
<use x="195.43" y="88.01" xlink:href="#hd"/>
<path d="M191.93 88.01v20.00" stroke="currentColor" fill="none"/>
<use x="236.43" y="79.01" xlink:href="#hd"/>
<circle fill="currentColor" cx="244.43" cy="79.01" r="1.2"/>
<path d="M232.93 79.01v20.00" stroke="currentColor" fill="none"/>
<path fill="currentColor"
	d="M273.13 103.71l28.10 -4.20v-3.20l-28.10 4.20"/>
<path fill="currentColor"
	d="M273.43 98.61l27.40 -4.10v-3.20l-27.40 4.10"/>
<path fill="currentColor"
	d="M289.43 91.21l11.40 -1.70v-3.20l-11.40 1.70"/>
<use x="276.93" y="79.01" xlink:href="#hd"/>
<path d="M273.43 79.01v23.60" stroke="currentColor" fill="none"/>
<defs>
<path id="hl" stroke="currentColor" d="m-6 0h12"/>
</defs>
<use x="292.93" y="76.01" xlink:href="#hl"/>
<use x="292.93" y="76.01" xlink:href="#hd"/>
<path d="M289.43 76.01v24.20" stroke="currentColor" fill="none"/>
<use x="304.33" y="76.01" xlink:href="#hl"/>
<use x="304.33" y="73.01" xlink:href="#hd"/>
<path d="M300.83 73.01v25.50" stroke="currentColor" fill="none"/>
<use x="316.93" y="79.01" xlink:href="#hd"/>
<path d="M313.43 79.01v20.00" stroke="currentColor" fill="none"/>
<use x="352.23" y="88.01" xlink:href="#hd"/>
<path d="M348.73 88.01v20.00" stroke="currentColor" fill="none"/>
<path fill="currentColor"
	d="M389.43 105.01l16.70 2.30v-3.20l-16.70 -2.30"/>
<path fill="currentColor"
	d="M389.73 100.01l16.00 2.20v-3.20l-16.00 -2.20"/>
<use x="393.23" y="82.01" xlink:href="#hd"/>
<path d="M389.73 82.01v22.00" stroke="currentColor" fill="none"/>
<use x="409.23" y="85.01" xlink:href="#hd"/>
<path d="M405.73 85.01v21.20" stroke="currentColor" fill="none"/>
<path fill="currentColor"
	d="M423.13 111.01l16.70 2.30v-3.20l-16.70 -2.30"/>
<path fill="currentColor"
	d="M423.53 106.01l16.00 2.20v-3.20l-16.00 -2.20"/>
<use x="427.03" y="88.01" xlink:href="#hd"/>
<path d="M423.53 88.01v22.00" stroke="currentColor" fill="none"/>
<use x="443.03" y="91.01" xlink:href="#hd"/>
<path d="M439.53 91.01v21.20" stroke="currentColor" fill="none"/>
<defs>
<path id="Hd" fill="currentColor" d="m3 -1.6
	c-1 -1.8 -7 1.4 -6 3.2
	c1 1.8 7 -1.4 6 -3.2
	m0.5 -0.3
	c2 3.8 -5 7.6 -7 3.8
	c-2 -3.8 5 -7.6 7 -3.8"/>
</defs>
<use x="460.73" y="79.01" xlink:href="#Hd"/>
<path d="M457.23 79.01v20.00" stroke="currentColor" fill="none"/>
<use x="510.63" y="85.01" xlink:href="#hd"/>
<path d="M507.13 85.01v20.00" stroke="currentColor" fill="none"/>
<path fill="currentColor"
	d="M547.83 113.01l34.80 0.00v-3.20l-34.80 -0.00"/>
<path fill="currentColor"
	d="M548.13 108.01l34.10 0.00v-3.20l-34.10 -0.00"/>
<path fill="currentColor"
	d="M548.13 103.01l34.10 0.00v-3.20l-34.10 -0.00"/>
<use x="551.63" y="85.01" xlink:href="#hd"/>
<path d="M548.13 85.01v27.00" stroke="currentColor" fill="none"/>
<use x="563.03" y="82.01" xlink:href="#hd"/>
<path d="M559.53 82.01v30.00" stroke="currentColor" fill="none"/>
<use x="574.43" y="85.01" xlink:href="#hd"/>
<path d="M570.93 85.01v27.00" stroke="currentColor" fill="none"/>
<use x="585.73" y="82.01" xlink:href="#hd"/>
<path d="M582.23 82.01v30.00" stroke="currentColor" fill="none"/>
<path fill="currentColor"
	d="M594.53 113.01l34.80 0.00v-3.20l-34.80 -0.00"/>
<path fill="currentColor"
	d="M594.83 108.01l34.10 0.00v-3.20l-34.10 -0.00"/>
<path fill="currentColor"
	d="M594.83 103.01l34.10 0.00v-3.20l-34.10 -0.00"/>
<use x="598.33" y="85.01" xlink:href="#hd"/>
<path d="M594.83 85.01v27.00" stroke="currentColor" fill="none"/>
<use x="609.73" y="82.01" xlink:href="#hd"/>
<path d="M606.23 82.01v30.00" stroke="currentColor" fill="none"/>
<use x="621.13" y="85.01" xlink:href="#hd"/>
<path d="M617.63 85.01v27.00" stroke="currentColor" fill="none"/>
<use x="632.43" y="82.01" xlink:href="#hd"/>
<path d="M628.93 82.01v30.00" stroke="currentColor" fill="none"/>
<use x="645.13" y="88.01" xlink:href="#Hd"/>
<path d="M641.63 88.01v20.00" stroke="currentColor" fill="none"/>
<path fill="currentColor"
	d="M239.93 77.01c5.28 -5.10 28.24 -5.10 33.52 -0.00
	l0.00 -0.23c-6.29 -6.87 -27.24 -6.87 -33.52 0.23"/>
</g>
</svg>
