<?xml version="1.0" standalone="no"?>
<!DOCTYPE svg PUBLIC "-//W3C//DTD SVG 1.1//EN"
	"http://www.w3.org/Graphics/SVG/1.1/DTD/svg11.dtd">
<svg xmlns="http://www.w3.org/2000/svg" version="1.1"
	xmlns:xlink="http://www.w3.org/1999/xlink"
	xml:space='preserve' color="black"
	width="7.38in" height="1.34in" viewBox="0 0 531 97">
<title>5118.abc (5118) tune 1</title>
<!-- Creator: abcm2ps-7.8.14 -->
<!-- CreationDate: Mar 13, 2016 18:54 -->
<!-- CommandLine: -qxg 5118.abc -O ../svgs/5118.svg -->
<g transform="scale(0.750)" stroke-width="0.70" font-family="Times" font-size="20.00">
<text x="354.13" y="21.67" text-anchor="middle">5118.  A Children&apos;s Overture, 2nd. Theme, Upon Paul&apos;s Steeple Stands a Tree</text>
</g>
<g transform="scale(0.750)" stroke-width="0.70" font-family="Times" font-size="14.00" font-style="italic">
<text x="694.93" y="45.34" text-anchor="end">Roger Quilter</text>
</g>
<g transform="scale(0.525)" stroke-width="0.70" font-family="Times" font-size="14.00" font-style="italic">
<defs>
<ellipse id="hd" rx="4.1" ry="2.9"
	transform="rotate(-20)" fill="currentColor"/>
</defs>
<use x="114.90" y="94.16" xlink:href="#hd"/>
<path d="M118.40 94.16v-20.00" stroke="currentColor" fill="none"/>
</g>
<g transform="scale(0.750)" stroke-width="0.70" font-family="Times" font-size="15.00" font-weight="bold">
<text x="88.13" y="68.01">= 120</text>
<path stroke="currentColor" fill="none"
	d="M222.43 106.01v-24.00"/>
<path stroke="currentColor" fill="none"
	d="M382.43 106.01v-24.00"/>
<path stroke="currentColor" fill="none"
	d="M538.73 106.01v-24.00"/>
<path stroke="currentColor" fill="none"
	d="M694.93 106.01v-24.00"/>
<path stroke="currentColor" fill="none"
	d="M13.33 106.01h681.60m-681.60 -6h681.60m-681.60 -6h681.60m-681.60 -6h681.60m-681.60 -6h681.60"/>
<defs>
<path id="utclef" fill="currentColor" d="m-50 -90
	c-72 -41 -72 -158 52 -188
	c150 -10 220 188 90 256
	c-114 52 -275 0 -293 -136
	c-15 -181 93 -229 220 -334
	c88 -87 79 -133 62 -210
	c-51 33 -94 105 -89 186
	c17 267 36 374 49 574
	c6 96 -19 134 -77 135
	c-80 1 -126 -93 -61 -133
	c85 -41 133 101 31 105
	c23 17 92 37 90 -92
	c-10 -223 -39 -342 -50 -617
	c0 -90 0 -162 96 -232
	c56 72 63 230 22 289
	c-74 106 -257 168 -255 316
	c9 153 148 185 252 133
	c86 -65 29 -192 -80 -176
	c-71 12 -105 67 -59 124"/>
<use id="tclef" transform="scale(0.045)"
	xlink:href="#utclef"/>
</defs>
<use x="25.33" y="106.01" xlink:href="#tclef"/>
<defs>
<path id="usharp" fill="currentColor" d="
	m136 -702
	v890
	h32
	v-890
	m128 840
	h32
	v-888
	h-32
	m-232 286
	v116
	l338 -96
	v-116
	m-338 442
	v116
	l338 -98
	v-114"/>
<use id="sh0" transform="translate(-4,5) scale(0.018)"
	xlink:href="#usharp"/>
</defs>
<use x="40.33" y="82.01" xlink:href="#sh0"/>
<use x="45.83" y="91.01" xlink:href="#sh0"/>
<g font-family="serif" font-size="16" font-weight="bold" font-style="normal"
	transform="translate(61.83,106.01) scale(1.2,1)">
	<text y="-1" text-anchor="middle">2</text>
	<text y="-13" text-anchor="middle">2</text>
</g>
<use x="79.83" y="88.01" xlink:href="#hd"/>
<path d="M76.33 88.01v20.00" stroke="currentColor" fill="none"/>
<use x="118.33" y="91.01" xlink:href="#hd"/>
<path d="M114.83 91.01v20.00" stroke="currentColor" fill="none"/>
<use x="156.83" y="94.01" xlink:href="#hd"/>
<path d="M153.33 94.01v20.00" stroke="currentColor" fill="none"/>
<use x="191.53" y="97.01" xlink:href="#hd"/>
<path d="M195.03 97.01v-20.00" stroke="currentColor" fill="none"/>
<use x="236.03" y="100.01" xlink:href="#hd"/>
<path d="M239.53 100.01v-20.00" stroke="currentColor" fill="none"/>
<use x="274.63" y="103.01" xlink:href="#hd"/>
<path d="M278.13 103.01v-20.00" stroke="currentColor" fill="none"/>
<use x="313.13" y="106.01" xlink:href="#hd"/>
<path d="M316.63 106.01v-20.00" stroke="currentColor" fill="none"/>
<use x="351.63" y="109.01" xlink:href="#hd"/>
<path d="M355.13 109.01v-20.00" stroke="currentColor" fill="none"/>
<use x="396.13" y="88.01" xlink:href="#hd"/>
<path d="M392.63 88.01v20.00" stroke="currentColor" fill="none"/>
<use x="434.63" y="94.01" xlink:href="#hd"/>
<path d="M431.13 94.01v20.00" stroke="currentColor" fill="none"/>
<use x="469.33" y="100.01" xlink:href="#hd"/>
<path d="M472.83 100.01v-20.00" stroke="currentColor" fill="none"/>
<use x="507.83" y="106.01" xlink:href="#hd"/>
<path d="M511.33 106.01v-20.00" stroke="currentColor" fill="none"/>
<use x="552.33" y="91.01" xlink:href="#hd"/>
<path d="M548.83 91.01v20.00" stroke="currentColor" fill="none"/>
<use x="587.03" y="97.01" xlink:href="#hd"/>
<path d="M590.53 97.01v-20.00" stroke="currentColor" fill="none"/>
<use x="625.53" y="103.01" xlink:href="#hd"/>
<path d="M629.03 103.01v-20.00" stroke="currentColor" fill="none"/>
<use x="664.13" y="109.01" xlink:href="#hd"/>
<path d="M667.63 109.01v-20.00" stroke="currentColor" fill="none"/>
</g>
</svg>
