<?xml version="1.0" standalone="no"?>
<!DOCTYPE svg PUBLIC "-//W3C//DTD SVG 1.1//EN"
	"http://www.w3.org/Graphics/SVG/1.1/DTD/svg11.dtd">
<svg xmlns="http://www.w3.org/2000/svg" version="1.1"
	xmlns:xlink="http://www.w3.org/1999/xlink"
	xml:space='preserve' color="black"
	width="7.38in" height="1.34in" viewBox="0 0 531 97">
<title>5134.abc (5134) tune 1</title>
<!-- Creator: abcm2ps-7.8.14 -->
<!-- CreationDate: Mar 13, 2016 18:54 -->
<!-- CommandLine: -qxg 5134.abc -O ../svgs/5134.svg -->
<g transform="scale(0.750)" stroke-width="0.70" font-family="Times" font-size="20.00">
<text x="354.13" y="21.67" text-anchor="middle">5134.  Concerto No. 1, in F Sharp Minor, Op. 1, 3rd. Mvt. - 3rd. Theme</text>
</g>
<g transform="scale(0.750)" stroke-width="0.70" font-family="Times" font-size="14.00" font-style="italic">
<text x="694.93" y="45.34" text-anchor="end">Sergei Rachmaninoff</text>
</g>
<g transform="scale(0.525)" stroke-width="0.70" font-family="Times" font-size="14.00" font-style="italic">
<defs>
<ellipse id="hd" rx="4.1" ry="2.9"
	transform="rotate(-20)" fill="currentColor"/>
</defs>
<use x="122.76" y="94.16" xlink:href="#hd"/>
<path d="M126.26 94.16v-20.00" stroke="currentColor" fill="none"/>
</g>
<g transform="scale(0.750)" stroke-width="0.70" font-family="Times" font-size="15.00" font-weight="bold">
<text x="93.63" y="68.01">= 120</text>
<path stroke="currentColor" fill="none"
	d="M211.33 106.01v-24.00"/>
<path stroke="currentColor" fill="none"
	d="M324.03 106.01v-24.00"/>
<path stroke="currentColor" fill="none"
	d="M462.63 106.01v-24.00"/>
<path stroke="currentColor" fill="none"
	d="M572.63 106.01v-24.00"/>
<path stroke="currentColor" fill="none"
	d="M13.33 106.01h681.60m-681.60 -6h681.60m-681.60 -6h681.60m-681.60 -6h681.60m-681.60 -6h681.60"/>
<defs>
<path id="utclef" fill="currentColor" d="m-50 -90
	c-72 -41 -72 -158 52 -188
	c150 -10 220 188 90 256
	c-114 52 -275 0 -293 -136
	c-15 -181 93 -229 220 -334
	c88 -87 79 -133 62 -210
	c-51 33 -94 105 -89 186
	c17 267 36 374 49 574
	c6 96 -19 134 -77 135
	c-80 1 -126 -93 -61 -133
	c85 -41 133 101 31 105
	c23 17 92 37 90 -92
	c-10 -223 -39 -342 -50 -617
	c0 -90 0 -162 96 -232
	c56 72 63 230 22 289
	c-74 106 -257 168 -255 316
	c9 153 148 185 252 133
	c86 -65 29 -192 -80 -176
	c-71 12 -105 67 -59 124"/>
<use id="tclef" transform="scale(0.045)"
	xlink:href="#utclef"/>
</defs>
<use x="25.33" y="106.01" xlink:href="#tclef"/>
<defs>
<path id="uflat" fill="currentColor" d="
	m100 -746
	h32
	v734
	l-32 4
	m32 -332
	c46 -72 152 -90 208 -20
	c100 110 -120 326 -208 348
	m0 -28
	c54 0 200 -206 130 -290
	c-50 -60 -130 -4 -130 34"/>
<use id="ft0" transform="translate(-3.5,3.5) scale(0.018)"
	xlink:href="#uflat"/>
</defs>
<use x="40.33" y="94.01" xlink:href="#ft0"/>
<use x="45.83" y="85.01" xlink:href="#ft0"/>
<use x="51.33" y="97.01" xlink:href="#ft0"/>
<g font-family="serif" font-size="16" font-weight="bold" font-style="normal"
	transform="translate(67.33,106.01) scale(1.2,1)">
	<text y="-1" text-anchor="middle">4</text>
	<text y="-13" text-anchor="middle">3</text>
</g>
<path fill="currentColor"
	d="M88.53 80.61l42.70 4.70v3.20l-42.70 -4.70"/>
<use x="85.33" y="100.01" xlink:href="#hd"/>
<path d="M88.83 100.01v-18.30" stroke="currentColor" fill="none"/>
<use x="106.33" y="103.01" xlink:href="#hd"/>
<path d="M109.83 103.01v-19.00" stroke="currentColor" fill="none"/>
<use x="127.33" y="106.01" xlink:href="#hd"/>
<path d="M130.83 106.01v-19.70" stroke="currentColor" fill="none"/>
<path fill="currentColor"
	d="M153.73 88.41l42.70 -4.70v3.20l-42.70 4.70"/>
<use x="150.63" y="109.01" xlink:href="#hd"/>
<path d="M154.13 109.01v-19.70" stroke="currentColor" fill="none"/>
<use x="171.63" y="106.01" xlink:href="#hd"/>
<path d="M175.13 106.01v-19.00" stroke="currentColor" fill="none"/>
<use x="192.63" y="103.01" xlink:href="#hd"/>
<path d="M196.13 103.01v-18.30" stroke="currentColor" fill="none"/>
<use x="223.83" y="94.01" xlink:href="#hd"/>
<path d="M227.33 94.01v-20.00" stroke="currentColor" fill="none"/>
<path fill="currentColor"
	d="	M227.33 74.01c0.6 5.6 9.6 9 5.6 18.4
	c1.6 -6 -1.3 -11.6 -5.6 -12.8
"/>
<defs>
<path id="Hd" fill="currentColor" d="m3 -1.6
	c-1 -1.8 -7 1.4 -6 3.2
	c1 1.8 7 -1.4 6 -3.2
	m0.5 -0.3
	c2 3.8 -5 7.6 -7 3.8
	c-2 -3.8 5 -7.6 7 -3.8"/>
</defs>
<use x="247.53" y="100.01" xlink:href="#Hd"/>
<path d="M251.03 100.01v-20.00" stroke="currentColor" fill="none"/>
<use x="294.13" y="100.01" xlink:href="#hd"/>
<path d="M297.63 100.01v-21.00" stroke="currentColor" fill="none"/>
<path fill="currentColor"
	d="M297.63 79.01c0.9 3.7 9.1 6.4 6 12.4
	c1 -5.4 -4.2 -8.4 -6 -8.4
M297.63 84.41c0.9 3.7 9.1 6.4 6 12.4
	c1 -5.4 -4.2 -8.4 -6 -8.4
"/>
<defs>
<path id="r8e" fill="currentColor" d="m 0 0
	c-1.5 1.5 -2.4 2 -3.6 2
	c2.4 -2.8 -2.8 -4 -2.8 -1.2
	c0 2.7 4.3 2.4 5.9 0.6"/>
<g id="r16">
	<path d="m3.3 -4l-4 15.6" stroke="currentColor" fill="none"/>
	<use x="3.4" y="-4" xlink:href="#r8e"/>
	<use x="1.9" y="2" xlink:href="#r8e"/>
</g>
</defs>
<use x="310.63" y="94.01" xlink:href="#r16"/>
<path fill="currentColor"
	d="M339.73 80.61l42.70 4.70v3.20l-42.70 -4.70"/>
<use x="336.53" y="100.01" xlink:href="#hd"/>
<path d="M340.03 100.01v-18.30" stroke="currentColor" fill="none"/>
<use x="357.53" y="103.01" xlink:href="#hd"/>
<path d="M361.03 103.01v-19.00" stroke="currentColor" fill="none"/>
<use x="378.53" y="106.01" xlink:href="#hd"/>
<path d="M382.03 106.01v-19.70" stroke="currentColor" fill="none"/>
<path fill="currentColor"
	d="M405.03 88.41l42.70 -4.70v3.20l-42.70 4.70"/>
<use x="401.83" y="109.01" xlink:href="#hd"/>
<path d="M405.33 109.01v-19.70" stroke="currentColor" fill="none"/>
<use x="422.83" y="106.01" xlink:href="#hd"/>
<path d="M426.33 106.01v-19.00" stroke="currentColor" fill="none"/>
<use x="443.83" y="103.01" xlink:href="#hd"/>
<path d="M447.33 103.01v-18.30" stroke="currentColor" fill="none"/>
<use x="475.13" y="91.01" xlink:href="#hd"/>
<path d="M471.63 91.01v20.00" stroke="currentColor" fill="none"/>
<path fill="currentColor"
	d="M471.63 111.01c0.6 -5.6 9.6 -9 5.6 -18.4
	c1.6 6 -1.3 11.6 -5.6 12.8
"/>
<use x="496.13" y="100.01" xlink:href="#Hd"/>
<path d="M499.63 100.01v-20.00" stroke="currentColor" fill="none"/>
<use x="542.73" y="100.01" xlink:href="#hd"/>
<path d="M546.23 100.01v-21.00" stroke="currentColor" fill="none"/>
<path fill="currentColor"
	d="M546.23 79.01c0.9 3.7 9.1 6.4 6 12.4
	c1 -5.4 -4.2 -8.4 -6 -8.4
M546.23 84.41c0.9 3.7 9.1 6.4 6 12.4
	c1 -5.4 -4.2 -8.4 -6 -8.4
"/>
<use x="559.23" y="94.01" xlink:href="#r16"/>
<path fill="currentColor"
	d="M581.33 116.21l43.10 -4.40v-3.20l-43.10 4.40"/>
<use x="585.13" y="97.01" xlink:href="#hd"/>
<path d="M581.63 97.01v18.20" stroke="currentColor" fill="none"/>
<use x="606.13" y="94.01" xlink:href="#hd"/>
<path d="M602.63 94.01v19.10" stroke="currentColor" fill="none"/>
<use x="627.63" y="88.01" xlink:href="#hd"/>
<use x="618.63" y="88.01" xlink:href="#ft0"/>
<path d="M624.13 88.01v22.90" stroke="currentColor" fill="none"/>
<path fill="currentColor"
	d="M647.03 112.31l21.70 3.90v-3.20l-21.70 -3.90"/>
<use x="650.83" y="91.01" xlink:href="#hd"/>
<path d="M647.33 91.01v20.40" stroke="currentColor" fill="none"/>
<use x="671.83" y="97.01" xlink:href="#hd"/>
<path d="M668.33 97.01v18.20" stroke="currentColor" fill="none"/>
<path fill="currentColor"
	d="M251.03 100.01c6.24 5.21 33.38 5.21 39.62 -0.00
	l0.00 0.24c-7.43 6.97 -32.19 6.97 -39.62 -0.24"/>
<path fill="currentColor"
	d="M499.63 100.01c6.24 5.21 33.38 5.21 39.62 -0.00
	l0.00 0.24c-7.43 6.97 -32.19 6.97 -39.62 -0.24"/>
</g>
</svg>
