<?xml version="1.0" standalone="no"?>
<!DOCTYPE svg PUBLIC "-//W3C//DTD SVG 1.1//EN"
	"http://www.w3.org/Graphics/SVG/1.1/DTD/svg11.dtd">
<svg xmlns="http://www.w3.org/2000/svg" version="1.1"
	xmlns:xlink="http://www.w3.org/1999/xlink"
	xml:space='preserve' color="black"
	width="7.38in" height="1.39in" viewBox="0 0 531 100">
<title>5149.abc (5149) tune 1</title>
<!-- Creator: abcm2ps-7.8.14 -->
<!-- CreationDate: Mar 13, 2016 18:54 -->
<!-- CommandLine: -qxg 5149.abc -O ../svgs/5149.svg -->
<g transform="scale(0.750)" stroke-width="0.70" font-family="Times" font-size="20.00">
<text x="354.13" y="21.67" text-anchor="middle">5149.  Elegie, Op. 3, No. 1, 2nd. Theme</text>
</g>
<g transform="scale(0.750)" stroke-width="0.70" font-family="Times" font-size="14.00" font-style="italic">
<text x="694.93" y="45.34" text-anchor="end">Sergei Rachmaninoff</text>
</g>
<g transform="scale(0.525)" stroke-width="0.70" font-family="Times" font-size="14.00" font-style="italic">
<defs>
<ellipse id="hd" rx="4.1" ry="2.9"
	transform="rotate(-20)" fill="currentColor"/>
</defs>
<use x="146.33" y="94.16" xlink:href="#hd"/>
<path d="M149.83 94.16v-20.00" stroke="currentColor" fill="none"/>
</g>
<g transform="scale(0.750)" stroke-width="0.70" font-family="Times" font-size="15.00" font-weight="bold">
<text x="110.13" y="68.01">= 120</text>
<path stroke="currentColor" fill="none"
	d="M191.43 110.01v-24.00"/>
<path stroke="currentColor" fill="none"
	d="M295.33 110.01v-24.00"/>
<path stroke="currentColor" fill="none"
	d="M380.13 110.01v-24.00"/>
<path stroke="currentColor" fill="none"
	d="M481.23 110.01v-24.00"/>
<path stroke="currentColor" fill="none"
	d="M566.93 110.01v-24.00"/>
<path stroke="currentColor" fill="none"
	d="M694.93 110.01v-24.00"/>
<path stroke="currentColor" fill="none"
	d="M13.33 110.01h681.60m-681.60 -6h681.60m-681.60 -6h681.60m-681.60 -6h681.60m-681.60 -6h681.60"/>
<defs>
<path id="ubclef" fill="currentColor" d="m-200 -87
	c124 -35 222 -78 254 -236
	c43 -228 -167 -246 -192 -103
	c59 -80 157 22 92 78
	c-62 47 -115 -22 -106 -88
	c21 -141 270 -136 274 52
	c-1 175 -106 264 -322 297
	m357 -250
	c0 -36 51 -34 51 0
	c0 37 -51 36 -51 0
	m-2 -129
	c0 -36 51 -34 51 0
	c0 38 -51 37 -51 0"/>
<use id="bclef" transform="scale(0.045)"
	xlink:href="#ubclef"/>
</defs>
<use x="25.33" y="110.01" xlink:href="#bclef"/>
<defs>
<path id="uflat" fill="currentColor" d="
	m100 -746
	h32
	v734
	l-32 4
	m32 -332
	c46 -72 152 -90 208 -20
	c100 110 -120 326 -208 348
	m0 -28
	c54 0 200 -206 130 -290
	c-50 -60 -130 -4 -130 34"/>
<use id="ft0" transform="translate(-3.5,3.5) scale(0.018)"
	xlink:href="#uflat"/>
</defs>
<use x="40.33" y="104.01" xlink:href="#ft0"/>
<use x="45.83" y="95.01" xlink:href="#ft0"/>
<use x="51.33" y="107.01" xlink:href="#ft0"/>
<use x="56.83" y="98.01" xlink:href="#ft0"/>
<use x="62.33" y="110.01" xlink:href="#ft0"/>
<use x="67.83" y="101.01" xlink:href="#ft0"/>
<g font-family="serif" font-size="16" font-weight="bold" font-style="normal"
	transform="translate(83.83,110.01) scale(1.2,1)">
	<text y="-1" text-anchor="middle">4</text>
	<text y="-13" text-anchor="middle">4</text>
</g>
<defs>
<path id="r4" fill="currentColor" d="m-1 -8.5
	l3.6 5.1 -2.1 5.2 2.2 4.3
	c-2.6 -2.3 -5.1 0 -2.4 2.6
	c-4.8 -3 -1.5 -6.9 1.4 -4.1
	l-3.1 -4.5 1.9 -5.1 -1.5 -3.5"/>
</defs>
<use x="101.83" y="98.01" xlink:href="#r4"/>
<use x="130.13" y="98.01" xlink:href="#hd"/>
<path d="M126.63 98.01v20.00" stroke="currentColor" fill="none"/>
<defs>
<path id="Hd" fill="currentColor" d="m3 -1.6
	c-1 -1.8 -7 1.4 -6 3.2
	c1 1.8 7 -1.4 6 -3.2
	m0.5 -0.3
	c2 3.8 -5 7.6 -7 3.8
	c-2 -3.8 5 -7.6 7 -3.8"/>
</defs>
<use x="159.43" y="83.01" xlink:href="#Hd"/>
<use x="149.43" y="83.01" xlink:href="#ft0"/>
<path d="M155.93 83.01v20.00" stroke="currentColor" fill="none"/>
<use x="204.43" y="83.01" xlink:href="#Hd"/>
<path d="M200.93 83.01v20.00" stroke="currentColor" fill="none"/>
<use x="244.13" y="86.01" xlink:href="#hd"/>
<path d="M240.63 86.01v20.00" stroke="currentColor" fill="none"/>
<use x="272.43" y="95.01" xlink:href="#hd"/>
<path d="M268.93 95.01v20.00" stroke="currentColor" fill="none"/>
<use x="308.33" y="89.01" xlink:href="#Hd"/>
<path d="M304.83 89.01v20.00" stroke="currentColor" fill="none"/>
<use x="348.03" y="92.01" xlink:href="#Hd"/>
<path d="M344.53 92.01v20.00" stroke="currentColor" fill="none"/>
<use x="393.13" y="92.01" xlink:href="#Hd"/>
<path d="M389.63 92.01v20.00" stroke="currentColor" fill="none"/>
<use x="432.83" y="95.01" xlink:href="#hd"/>
<path d="M429.33 95.01v20.00" stroke="currentColor" fill="none"/>
<use x="458.33" y="104.01" xlink:href="#hd"/>
<path d="M461.83 104.01v-20.00" stroke="currentColor" fill="none"/>
<use x="494.23" y="98.01" xlink:href="#Hd"/>
<path d="M497.73 98.01v-20.00" stroke="currentColor" fill="none"/>
<use x="534.93" y="101.01" xlink:href="#Hd"/>
<defs>
<path id="unat" fill="currentColor" d="
	m96 -750
	h-32
	v716
	l32 -8
	l182 -54
	v282
	h32
	v-706
	l-34 10
	l-180 50
	v-290
	m0 592
	v-190
	l182 -52
	v188"/>
<use id="nt0" transform="translate(-3,5) scale(0.018)"
	xlink:href="#unat"/>
</defs>
<use x="524.93" y="101.01" xlink:href="#nt0"/>
<path d="M538.43 101.01v-20.00" stroke="currentColor" fill="none"/>
<use x="585.43" y="101.01" xlink:href="#hd"/>
<use x="576.43" y="101.01" xlink:href="#nt0"/>
<path d="M588.93 101.01v-20.00" stroke="currentColor" fill="none"/>
<use x="614.63" y="104.01" xlink:href="#hd"/>
<use x="605.63" y="104.01" xlink:href="#nt0"/>
<path d="M618.13 104.01v-20.00" stroke="currentColor" fill="none"/>
<use x="643.73" y="104.01" xlink:href="#hd"/>
<use x="634.73" y="104.01" xlink:href="#ft0"/>
<path d="M647.23 104.01v-20.00" stroke="currentColor" fill="none"/>
<use x="672.03" y="107.01" xlink:href="#hd"/>
<path d="M675.53 107.01v-20.00" stroke="currentColor" fill="none"/>
<path fill="currentColor"
	d="M162.93 81.01c5.99 -5.18 32.03 -5.18 38.01 -0.00
	l0.00 -0.24c-7.13 -6.95 -30.89 -6.95 -38.01 0.24"/>
<path fill="currentColor"
	d="M351.53 92.01c5.99 -5.18 32.03 -5.18 38.01 -0.00
	l0.00 -0.24c-7.13 -6.95 -30.89 -6.95 -38.01 0.24"/>
<path fill="currentColor"
	d="M538.43 103.01c6.78 5.28 36.73 5.28 43.51 -0.00
	l0.00 0.24c-8.09 7.04 -35.42 7.04 -43.51 -0.24"/>
</g>
</svg>
