<?xml version="1.0" standalone="no"?>
<!DOCTYPE svg PUBLIC "-//W3C//DTD SVG 1.1//EN"
	"http://www.w3.org/Graphics/SVG/1.1/DTD/svg11.dtd">
<svg xmlns="http://www.w3.org/2000/svg" version="1.1"
	xmlns:xlink="http://www.w3.org/1999/xlink"
	xml:space='preserve' color="black"
	width="7.38in" height="1.34in" viewBox="0 0 531 97">
<title>5165.abc (5165) tune 1</title>
<!-- Creator: abcm2ps-7.8.14 -->
<!-- CreationDate: Mar 13, 2016 18:54 -->
<!-- CommandLine: -qxg 5165.abc -O ../svgs/5165.svg -->
<g transform="scale(0.750)" stroke-width="0.70" font-family="Times" font-size="20.00">
<text x="354.13" y="21.67" text-anchor="middle">5165.  Preludes, Op. 3, No. 2, 2nd. Theme</text>
</g>
<g transform="scale(0.750)" stroke-width="0.70" font-family="Times" font-size="14.00" font-style="italic">
<text x="694.93" y="45.34" text-anchor="end">Sergei Rachmaninoff</text>
</g>
<g transform="scale(0.525)" stroke-width="0.70" font-family="Times" font-size="14.00" font-style="italic">
<defs>
<ellipse id="hd" rx="4.1" ry="2.9"
	transform="rotate(-20)" fill="currentColor"/>
</defs>
<use x="130.61" y="94.16" xlink:href="#hd"/>
<path d="M134.11 94.16v-20.00" stroke="currentColor" fill="none"/>
</g>
<g transform="scale(0.750)" stroke-width="0.70" font-family="Times" font-size="15.00" font-weight="bold">
<text x="99.13" y="68.01">= 120</text>
<path stroke="currentColor" fill="none"
	d="M228.03 106.01v-24.00"/>
<path stroke="currentColor" fill="none"
	d="M378.23 106.01v-24.00"/>
<path stroke="currentColor" fill="none"
	d="M528.13 106.01v-24.00"/>
<path stroke="currentColor" fill="none"
	d="M694.93 106.01v-24.00"/>
<path stroke="currentColor" fill="none"
	d="M13.33 106.01h681.60m-681.60 -6h681.60m-681.60 -6h681.60m-681.60 -6h681.60m-681.60 -6h681.60"/>
<defs>
<path id="utclef" fill="currentColor" d="m-50 -90
	c-72 -41 -72 -158 52 -188
	c150 -10 220 188 90 256
	c-114 52 -275 0 -293 -136
	c-15 -181 93 -229 220 -334
	c88 -87 79 -133 62 -210
	c-51 33 -94 105 -89 186
	c17 267 36 374 49 574
	c6 96 -19 134 -77 135
	c-80 1 -126 -93 -61 -133
	c85 -41 133 101 31 105
	c23 17 92 37 90 -92
	c-10 -223 -39 -342 -50 -617
	c0 -90 0 -162 96 -232
	c56 72 63 230 22 289
	c-74 106 -257 168 -255 316
	c9 153 148 185 252 133
	c86 -65 29 -192 -80 -176
	c-71 12 -105 67 -59 124"/>
<use id="tclef" transform="scale(0.045)"
	xlink:href="#utclef"/>
</defs>
<use x="25.33" y="106.01" xlink:href="#tclef"/>
<defs>
<path id="usharp" fill="currentColor" d="
	m136 -702
	v890
	h32
	v-890
	m128 840
	h32
	v-888
	h-32
	m-232 286
	v116
	l338 -96
	v-116
	m-338 442
	v116
	l338 -98
	v-114"/>
<use id="sh0" transform="translate(-4,5) scale(0.018)"
	xlink:href="#usharp"/>
</defs>
<use x="40.33" y="82.01" xlink:href="#sh0"/>
<use x="45.83" y="91.01" xlink:href="#sh0"/>
<use x="51.33" y="79.01" xlink:href="#sh0"/>
<use x="56.83" y="88.01" xlink:href="#sh0"/>
<g font-family="serif" font-size="16" font-weight="bold" font-style="normal"
	transform="translate(72.83,106.01) scale(1.2,1)">
	<text y="-1" text-anchor="middle">4</text>
	<text y="-13" text-anchor="middle">4</text>
</g>
<use x="90.83" y="106.01" xlink:href="#hd"/>
<path d="M94.33 106.01v-20.00" stroke="currentColor" fill="none"/>
<use x="126.83" y="109.01" xlink:href="#hd"/>
<path d="M130.33 109.01v-20.00" stroke="currentColor" fill="none"/>
<use x="163.03" y="109.01" xlink:href="#hd"/>
<defs>
<path id="unat" fill="currentColor" d="
	m96 -750
	h-32
	v716
	l32 -8
	l182 -54
	v282
	h32
	v-706
	l-34 10
	l-180 50
	v-290
	m0 592
	v-190
	l182 -52
	v188"/>
<use id="nt0" transform="translate(-3,5) scale(0.018)"
	xlink:href="#unat"/>
</defs>
<use x="154.03" y="109.01" xlink:href="#nt0"/>
<path d="M166.53 109.01v-20.00" stroke="currentColor" fill="none"/>
<defs>
<path id="hl" stroke="currentColor" d="m-6 0h12"/>
</defs>
<use x="199.13" y="112.01" xlink:href="#hl"/>
<use x="199.13" y="112.01" xlink:href="#hd"/>
<path d="M202.63 112.01v-20.00" stroke="currentColor" fill="none"/>
<use x="240.93" y="106.01" xlink:href="#hd"/>
<path d="M244.43 106.01v-20.00" stroke="currentColor" fill="none"/>
<use x="277.13" y="109.01" xlink:href="#hd"/>
<use x="268.13" y="109.01" xlink:href="#sh0"/>
<path d="M280.63 109.01v-20.00" stroke="currentColor" fill="none"/>
<use x="313.33" y="109.01" xlink:href="#hd"/>
<use x="304.33" y="109.01" xlink:href="#nt0"/>
<path d="M316.83 109.01v-20.00" stroke="currentColor" fill="none"/>
<use x="349.33" y="112.01" xlink:href="#hl"/>
<use x="349.33" y="112.01" xlink:href="#hd"/>
<path d="M352.83 112.01v-20.00" stroke="currentColor" fill="none"/>
<use x="391.13" y="100.01" xlink:href="#hd"/>
<path d="M394.63 100.01v-20.00" stroke="currentColor" fill="none"/>
<use x="427.23" y="103.01" xlink:href="#hd"/>
<path d="M430.73 103.01v-20.00" stroke="currentColor" fill="none"/>
<use x="463.23" y="97.01" xlink:href="#hd"/>
<path d="M466.73 97.01v-20.00" stroke="currentColor" fill="none"/>
<use x="499.23" y="100.01" xlink:href="#hd"/>
<path d="M502.73 100.01v-20.00" stroke="currentColor" fill="none"/>
<path fill="currentColor"
	d="M544.23 81.31l27.00 2.50v3.20l-27.00 -2.50"/>
<path fill="currentColor"
	d="M564.83 88.21l6.00 0.60v3.20l-6.00 -0.60"/>
<use x="541.03" y="103.01" xlink:href="#hd"/>
<circle fill="currentColor" cx="549.03" cy="103.01" r="1.2"/>
<path d="M544.53 103.01v-20.60" stroke="currentColor" fill="none"/>
<use x="567.33" y="106.01" xlink:href="#hd"/>
<path d="M570.83 106.01v-21.20" stroke="currentColor" fill="none"/>
<use x="585.43" y="103.01" xlink:href="#hd"/>
<path d="M588.93 103.01v-20.00" stroke="currentColor" fill="none"/>
<path fill="currentColor"
	d="M624.63 84.31l27.10 2.50v3.20l-27.10 -2.50"/>
<path fill="currentColor"
	d="M645.43 91.21l6.00 0.60v3.20l-6.00 -0.60"/>
<use x="621.53" y="106.01" xlink:href="#hd"/>
<circle fill="currentColor" cx="629.53" cy="103.01" r="1.2"/>
<path d="M625.03 106.01v-20.60" stroke="currentColor" fill="none"/>
<use x="647.93" y="109.01" xlink:href="#hd"/>
<use x="638.93" y="109.01" xlink:href="#sh0"/>
<path d="M651.43 109.01v-21.20" stroke="currentColor" fill="none"/>
<use x="666.03" y="106.01" xlink:href="#hd"/>
<path d="M669.53 106.01v-20.00" stroke="currentColor" fill="none"/>
</g>
</svg>
