<?xml version="1.0" standalone="no"?>
<!DOCTYPE svg PUBLIC "-//W3C//DTD SVG 1.1//EN"
	"http://www.w3.org/Graphics/SVG/1.1/DTD/svg11.dtd">
<svg xmlns="http://www.w3.org/2000/svg" version="1.1"
	xmlns:xlink="http://www.w3.org/1999/xlink"
	xml:space='preserve' color="black"
	width="7.38in" height="1.34in" viewBox="0 0 531 97">
<title>5225.abc (5225) tune 1</title>
<!-- Creator: abcm2ps-7.8.14 -->
<!-- CreationDate: Mar 13, 2016 18:54 -->
<!-- CommandLine: -qxg 5225.abc -O ../svgs/5225.svg -->
<g transform="scale(0.750)" stroke-width="0.70" font-family="Times" font-size="20.00">
<text x="354.13" y="21.67" text-anchor="middle">5225.  Pieces de Clavecin en Concert, No. 3, La Timide</text>
</g>
<g transform="scale(0.750)" stroke-width="0.70" font-family="Times" font-size="14.00" font-style="italic">
<text x="694.93" y="45.34" text-anchor="end">Jean Philippe Rameau</text>
</g>
<g transform="scale(0.525)" stroke-width="0.70" font-family="Times" font-size="14.00" font-style="italic">
<defs>
<ellipse id="hd" rx="4.1" ry="2.9"
	transform="rotate(-20)" fill="currentColor"/>
</defs>
<use x="89.19" y="94.16" xlink:href="#hd"/>
<path d="M92.69 94.16v-20.00" stroke="currentColor" fill="none"/>
</g>
<g transform="scale(0.750)" stroke-width="0.70" font-family="Times" font-size="15.00" font-weight="bold">
<text x="70.13" y="68.01">= 120</text>
<path stroke="currentColor" fill="none"
	d="M220.83 106.01v-24.00"/>
<path stroke="currentColor" fill="none"
	d="M392.43 106.01v-24.00"/>
<path stroke="currentColor" fill="none"
	d="M544.33 106.01v-24.00"/>
<path stroke="currentColor" fill="none"
	d="M694.93 106.01v-24.00"/>
<path stroke="currentColor" fill="none"
	d="M13.33 106.01h681.60m-681.60 -6h681.60m-681.60 -6h681.60m-681.60 -6h681.60m-681.60 -6h681.60"/>
<defs>
<path id="utclef" fill="currentColor" d="m-50 -90
	c-72 -41 -72 -158 52 -188
	c150 -10 220 188 90 256
	c-114 52 -275 0 -293 -136
	c-15 -181 93 -229 220 -334
	c88 -87 79 -133 62 -210
	c-51 33 -94 105 -89 186
	c17 267 36 374 49 574
	c6 96 -19 134 -77 135
	c-80 1 -126 -93 -61 -133
	c85 -41 133 101 31 105
	c23 17 92 37 90 -92
	c-10 -223 -39 -342 -50 -617
	c0 -90 0 -162 96 -232
	c56 72 63 230 22 289
	c-74 106 -257 168 -255 316
	c9 153 148 185 252 133
	c86 -65 29 -192 -80 -176
	c-71 12 -105 67 -59 124"/>
<use id="tclef" transform="scale(0.045)"
	xlink:href="#utclef"/>
</defs>
<use x="25.33" y="106.01" xlink:href="#tclef"/>
<g font-family="serif" font-size="16" font-weight="bold" font-style="normal"
	transform="translate(43.83,106.01) scale(1.2,1)">
	<text y="-1" text-anchor="middle">2</text>
	<text y="-13" text-anchor="middle">2</text>
</g>
<use x="61.83" y="91.01" xlink:href="#hd"/>
<path d="M58.33 91.01v20.00" stroke="currentColor" fill="none"/>
<path fill="currentColor"
	d="M58.33 111.01c0.6 -5.6 9.6 -9 5.6 -18.4
	c1.6 6 -1.3 11.6 -5.6 12.8
"/>
<use x="78.13" y="94.01" xlink:href="#hd"/>
<path d="M74.63 94.01v20.00" stroke="currentColor" fill="none"/>
<path fill="currentColor"
	d="M74.63 114.01c0.6 -5.6 9.6 -9 5.6 -18.4
	c1.6 6 -1.3 11.6 -5.6 12.8
"/>
<defs>
<path id="r8e" fill="currentColor" d="m 0 0
	c-1.5 1.5 -2.4 2 -3.6 2
	c2.4 -2.8 -2.8 -4 -2.8 -1.2
	c0 2.7 4.3 2.4 5.9 0.6"/>
<g id="r32">
	<path d="m4.8 -10l-5.5 21.6" stroke="currentColor" fill="none"/>
	<use x="4.9" y="-10" xlink:href="#r8e"/>
	<use x="3.4" y="-4" xlink:href="#r8e"/>
	<use x="1.9" y="2" xlink:href="#r8e"/>
</g>
</defs>
<use x="93.13" y="94.01" xlink:href="#r32"/>
<use x="102.13" y="94.01" xlink:href="#r32"/>
<use x="111.13" y="97.01" xlink:href="#hd"/>
<path d="M114.63 97.01v-21.00" stroke="currentColor" fill="none"/>
<path fill="currentColor"
	d="M114.63 76.01c0.9 3.7 9.1 6.4 6 12.4
	c1 -5.4 -4.2 -8.4 -6 -8.4
M114.63 81.41c0.9 3.7 9.1 6.4 6 12.4
	c1 -5.4 -4.2 -8.4 -6 -8.4
"/>
<use x="136.63" y="100.01" xlink:href="#hd"/>
<defs>
<path id="usharp" fill="currentColor" d="
	m136 -702
	v890
	h32
	v-890
	m128 840
	h32
	v-888
	h-32
	m-232 286
	v116
	l338 -96
	v-116
	m-338 442
	v116
	l338 -98
	v-114"/>
<use id="sh0" transform="translate(-4,5) scale(0.018)"
	xlink:href="#usharp"/>
</defs>
<use x="127.63" y="100.01" xlink:href="#sh0"/>
<path d="M140.13 100.01v-20.00" stroke="currentColor" fill="none"/>
<path fill="currentColor"
	d="	M140.13 80.01c0.6 5.6 9.6 9 5.6 18.4
	c1.6 -6 -1.3 -11.6 -5.6 -12.8
"/>
<use x="155.13" y="97.01" xlink:href="#hd"/>
<path d="M158.63 97.01v-20.00" stroke="currentColor" fill="none"/>
<path fill="currentColor"
	d="	M158.63 77.01c0.6 5.6 9.6 9 5.6 18.4
	c1.6 -6 -1.3 -11.6 -5.6 -12.8
"/>
<use x="174.43" y="91.01" xlink:href="#hd"/>
<path d="M170.93 91.01v20.00" stroke="currentColor" fill="none"/>
<path fill="currentColor"
	d="M170.93 111.01c0.6 -5.6 9.6 -9 5.6 -18.4
	c1.6 6 -1.3 11.6 -5.6 12.8
"/>
<use x="190.83" y="94.01" xlink:href="#hd"/>
<path d="M187.33 94.01v20.00" stroke="currentColor" fill="none"/>
<path fill="currentColor"
	d="M187.33 114.01c0.6 -5.6 9.6 -9 5.6 -18.4
	c1.6 6 -1.3 11.6 -5.6 12.8
"/>
<use x="207.13" y="88.01" xlink:href="#hd"/>
<path d="M203.63 88.01v20.00" stroke="currentColor" fill="none"/>
<path fill="currentColor"
	d="M203.63 108.01c0.6 -5.6 9.6 -9 5.6 -18.4
	c1.6 6 -1.3 11.6 -5.6 12.8
"/>
<use x="233.33" y="91.01" xlink:href="#hd"/>
<path d="M229.83 91.01v20.00" stroke="currentColor" fill="none"/>
<path fill="currentColor"
	d="M229.83 111.01c0.6 -5.6 9.6 -9 5.6 -18.4
	c1.6 6 -1.3 11.6 -5.6 12.8
"/>
<use x="249.73" y="94.01" xlink:href="#hd"/>
<path d="M246.23 94.01v20.00" stroke="currentColor" fill="none"/>
<path fill="currentColor"
	d="M246.23 114.01c0.6 -5.6 9.6 -9 5.6 -18.4
	c1.6 6 -1.3 11.6 -5.6 12.8
"/>
<use x="264.73" y="94.01" xlink:href="#r32"/>
<use x="273.73" y="94.01" xlink:href="#r32"/>
<use x="282.73" y="97.01" xlink:href="#hd"/>
<path d="M286.23 97.01v-21.00" stroke="currentColor" fill="none"/>
<path fill="currentColor"
	d="M286.23 76.01c0.9 3.7 9.1 6.4 6 12.4
	c1 -5.4 -4.2 -8.4 -6 -8.4
M286.23 81.41c0.9 3.7 9.1 6.4 6 12.4
	c1 -5.4 -4.2 -8.4 -6 -8.4
"/>
<use x="308.23" y="100.01" xlink:href="#hd"/>
<use x="299.23" y="100.01" xlink:href="#sh0"/>
<path d="M311.73 100.01v-20.00" stroke="currentColor" fill="none"/>
<path fill="currentColor"
	d="	M311.73 80.01c0.6 5.6 9.6 9 5.6 18.4
	c1.6 -6 -1.3 -11.6 -5.6 -12.8
"/>
<use x="326.73" y="97.01" xlink:href="#hd"/>
<path d="M330.23 97.01v-20.00" stroke="currentColor" fill="none"/>
<path fill="currentColor"
	d="	M330.23 77.01c0.6 5.6 9.6 9 5.6 18.4
	c1.6 -6 -1.3 -11.6 -5.6 -12.8
"/>
<use x="346.03" y="91.01" xlink:href="#hd"/>
<path d="M342.53 91.01v20.00" stroke="currentColor" fill="none"/>
<path fill="currentColor"
	d="M342.53 111.01c0.6 -5.6 9.6 -9 5.6 -18.4
	c1.6 6 -1.3 11.6 -5.6 12.8
"/>
<use x="362.33" y="94.01" xlink:href="#hd"/>
<path d="M358.83 94.01v20.00" stroke="currentColor" fill="none"/>
<path fill="currentColor"
	d="M358.83 114.01c0.6 -5.6 9.6 -9 5.6 -18.4
	c1.6 6 -1.3 11.6 -5.6 12.8
"/>
<use x="378.63" y="88.01" xlink:href="#hd"/>
<path d="M375.13 88.01v20.00" stroke="currentColor" fill="none"/>
<path fill="currentColor"
	d="M375.13 108.01c0.6 -5.6 9.6 -9 5.6 -18.4
	c1.6 6 -1.3 11.6 -5.6 12.8
"/>
<use x="410.93" y="91.01" xlink:href="#hd"/>
<use x="401.93" y="91.01" xlink:href="#sh0"/>
<path d="M407.43 91.01v20.00" stroke="currentColor" fill="none"/>
<path fill="currentColor"
	d="M407.43 111.01c0.6 -5.6 9.6 -9 5.6 -18.4
	c1.6 6 -1.3 11.6 -5.6 12.8
"/>
<use x="427.23" y="88.01" xlink:href="#hd"/>
<path d="M423.73 88.01v20.00" stroke="currentColor" fill="none"/>
<path fill="currentColor"
	d="M423.73 108.01c0.6 -5.6 9.6 -9 5.6 -18.4
	c1.6 6 -1.3 11.6 -5.6 12.8
"/>
<use x="443.63" y="94.01" xlink:href="#hd"/>
<path d="M440.13 94.01v20.00" stroke="currentColor" fill="none"/>
<path fill="currentColor"
	d="M440.13 114.01c0.6 -5.6 9.6 -9 5.6 -18.4
	c1.6 6 -1.3 11.6 -5.6 12.8
"/>
<use x="462.53" y="91.01" xlink:href="#hd"/>
<use x="453.53" y="91.01" xlink:href="#sh0"/>
<path d="M459.03 91.01v20.00" stroke="currentColor" fill="none"/>
<path fill="currentColor"
	d="M459.03 111.01c0.6 -5.6 9.6 -9 5.6 -18.4
	c1.6 6 -1.3 11.6 -5.6 12.8
"/>
<use x="478.93" y="88.01" xlink:href="#hd"/>
<path d="M475.43 88.01v20.00" stroke="currentColor" fill="none"/>
<path fill="currentColor"
	d="M475.43 108.01c0.6 -5.6 9.6 -9 5.6 -18.4
	c1.6 6 -1.3 11.6 -5.6 12.8
"/>
<use x="497.93" y="91.01" xlink:href="#hd"/>
<use x="488.93" y="91.01" xlink:href="#sh0"/>
<path d="M494.43 91.01v20.00" stroke="currentColor" fill="none"/>
<path fill="currentColor"
	d="M494.43 111.01c0.6 -5.6 9.6 -9 5.6 -18.4
	c1.6 6 -1.3 11.6 -5.6 12.8
"/>
<use x="514.23" y="82.01" xlink:href="#hd"/>
<path d="M510.73 82.01v20.00" stroke="currentColor" fill="none"/>
<path fill="currentColor"
	d="M510.73 102.01c0.6 -5.6 9.6 -9 5.6 -18.4
	c1.6 6 -1.3 11.6 -5.6 12.8
"/>
<use x="530.63" y="85.01" xlink:href="#hd"/>
<path d="M527.13 85.01v20.00" stroke="currentColor" fill="none"/>
<path fill="currentColor"
	d="M527.13 105.01c0.6 -5.6 9.6 -9 5.6 -18.4
	c1.6 6 -1.3 11.6 -5.6 12.8
"/>
<use x="556.83" y="88.01" xlink:href="#hd"/>
<path d="M553.33 88.01v20.00" stroke="currentColor" fill="none"/>
<path fill="currentColor"
	d="M553.33 108.01c0.6 -5.6 9.6 -9 5.6 -18.4
	c1.6 6 -1.3 11.6 -5.6 12.8
"/>
<use x="575.83" y="91.01" xlink:href="#hd"/>
<defs>
<path id="unat" fill="currentColor" d="
	m96 -750
	h-32
	v716
	l32 -8
	l182 -54
	v282
	h32
	v-706
	l-34 10
	l-180 50
	v-290
	m0 592
	v-190
	l182 -52
	v188"/>
<use id="nt0" transform="translate(-3,5) scale(0.018)"
	xlink:href="#unat"/>
</defs>
<use x="566.83" y="91.01" xlink:href="#nt0"/>
<path d="M572.33 91.01v20.00" stroke="currentColor" fill="none"/>
<path fill="currentColor"
	d="M572.33 111.01c0.6 -5.6 9.6 -9 5.6 -18.4
	c1.6 6 -1.3 11.6 -5.6 12.8
"/>
<use x="592.13" y="94.01" xlink:href="#hd"/>
<path d="M588.63 94.01v20.00" stroke="currentColor" fill="none"/>
<path fill="currentColor"
	d="M588.63 114.01c0.6 -5.6 9.6 -9 5.6 -18.4
	c1.6 6 -1.3 11.6 -5.6 12.8
"/>
<use x="607.13" y="97.01" xlink:href="#hd"/>
<path d="M610.63 97.01v-20.00" stroke="currentColor" fill="none"/>
<path fill="currentColor"
	d="	M610.63 77.01c0.6 5.6 9.6 9 5.6 18.4
	c1.6 -6 -1.3 -11.6 -5.6 -12.8
"/>
<use x="632.63" y="100.01" xlink:href="#hd"/>
<use x="623.63" y="100.01" xlink:href="#sh0"/>
<path d="M636.13 100.01v-20.00" stroke="currentColor" fill="none"/>
<path fill="currentColor"
	d="	M636.13 80.01c0.6 5.6 9.6 9 5.6 18.4
	c1.6 -6 -1.3 -11.6 -5.6 -12.8
"/>
<use x="658.13" y="103.01" xlink:href="#hd"/>
<use x="649.13" y="103.01" xlink:href="#sh0"/>
<path d="M661.63 103.01v-20.00" stroke="currentColor" fill="none"/>
<path fill="currentColor"
	d="	M661.63 83.01c0.6 5.6 9.6 9 5.6 18.4
	c1.6 -6 -1.3 -11.6 -5.6 -12.8
"/>
<use x="676.63" y="106.01" xlink:href="#hd"/>
<path d="M680.13 106.01v-20.00" stroke="currentColor" fill="none"/>
</g>
</svg>
