<?xml version="1.0" standalone="no"?>
<!DOCTYPE svg PUBLIC "-//W3C//DTD SVG 1.1//EN"
	"http://www.w3.org/Graphics/SVG/1.1/DTD/svg11.dtd">
<svg xmlns="http://www.w3.org/2000/svg" version="1.1"
	xmlns:xlink="http://www.w3.org/1999/xlink"
	xml:space='preserve' color="black"
	width="7.38in" height="1.34in" viewBox="0 0 531 97">
<title>5233.abc (5233) tune 1</title>
<!-- Creator: abcm2ps-7.8.14 -->
<!-- CreationDate: Mar 13, 2016 18:54 -->
<!-- CommandLine: -qxg 5233.abc -O ../svgs/5233.svg -->
<g transform="scale(0.750)" stroke-width="0.70" font-family="Times" font-size="20.00">
<text x="354.13" y="21.67" text-anchor="middle">5233.  Platee, Opera, Minuet, No. 1</text>
</g>
<g transform="scale(0.750)" stroke-width="0.70" font-family="Times" font-size="14.00" font-style="italic">
<text x="694.93" y="45.34" text-anchor="end">Jean Philippe Rameau</text>
</g>
<g transform="scale(0.525)" stroke-width="0.70" font-family="Times" font-size="14.00" font-style="italic">
<defs>
<ellipse id="hd" rx="4.1" ry="2.9"
	transform="rotate(-20)" fill="currentColor"/>
</defs>
<use x="114.90" y="94.16" xlink:href="#hd"/>
<path d="M118.40 94.16v-20.00" stroke="currentColor" fill="none"/>
</g>
<g transform="scale(0.750)" stroke-width="0.70" font-family="Times" font-size="15.00" font-weight="bold">
<text x="88.13" y="68.01">= 120</text>
<path stroke="currentColor" fill="none"
	d="M157.63 106.01v-24.00"/>
<path stroke="currentColor" fill="none"
	d="M270.23 106.01v-24.00"/>
<path stroke="currentColor" fill="none"
	d="M390.63 106.01v-24.00"/>
<path stroke="currentColor" fill="none"
	d="M470.53 106.01v-24.00"/>
<path stroke="currentColor" fill="none"
	d="M582.73 106.01v-24.00"/>
<path stroke="currentColor" fill="none"
	d="M694.93 106.01v-24.00"/>
<path stroke="currentColor" fill="none"
	d="M13.33 106.01h681.60m-681.60 -6h681.60m-681.60 -6h681.60m-681.60 -6h681.60m-681.60 -6h681.60"/>
<text font-family="serif" font-size="12" font-style="italic" font-weight="normal"
	x="187.93" y="129.01" text-anchor="middle">3</text>
<defs>
<path id="utclef" fill="currentColor" d="m-50 -90
	c-72 -41 -72 -158 52 -188
	c150 -10 220 188 90 256
	c-114 52 -275 0 -293 -136
	c-15 -181 93 -229 220 -334
	c88 -87 79 -133 62 -210
	c-51 33 -94 105 -89 186
	c17 267 36 374 49 574
	c6 96 -19 134 -77 135
	c-80 1 -126 -93 -61 -133
	c85 -41 133 101 31 105
	c23 17 92 37 90 -92
	c-10 -223 -39 -342 -50 -617
	c0 -90 0 -162 96 -232
	c56 72 63 230 22 289
	c-74 106 -257 168 -255 316
	c9 153 148 185 252 133
	c86 -65 29 -192 -80 -176
	c-71 12 -105 67 -59 124"/>
<use id="tclef" transform="scale(0.045)"
	xlink:href="#utclef"/>
</defs>
<use x="25.33" y="106.01" xlink:href="#tclef"/>
<defs>
<path id="usharp" fill="currentColor" d="
	m136 -702
	v890
	h32
	v-890
	m128 840
	h32
	v-888
	h-32
	m-232 286
	v116
	l338 -96
	v-116
	m-338 442
	v116
	l338 -98
	v-114"/>
<use id="sh0" transform="translate(-4,5) scale(0.018)"
	xlink:href="#usharp"/>
</defs>
<use x="40.33" y="82.01" xlink:href="#sh0"/>
<use x="45.83" y="91.01" xlink:href="#sh0"/>
<g font-family="serif" font-size="16" font-weight="bold" font-style="normal"
	transform="translate(61.83,106.01) scale(1.2,1)">
	<text y="-1" text-anchor="middle">4</text>
	<text y="-13" text-anchor="middle">3</text>
</g>
<use x="79.83" y="82.01" xlink:href="#hd"/>
<path d="M76.33 82.01v20.00" stroke="currentColor" fill="none"/>
<use x="107.53" y="82.01" xlink:href="#hd"/>
<path d="M104.03 82.01v20.00" stroke="currentColor" fill="none"/>
<use x="135.23" y="82.01" xlink:href="#hd"/>
<path d="M131.73 82.01v20.00" stroke="currentColor" fill="none"/>
<use x="170.13" y="82.01" xlink:href="#hd"/>
<path d="M166.63 82.01v25.00" stroke="currentColor" fill="none"/>
<path fill="currentColor"
	d="M166.63 107.01c0.9 -3.7 9.1 -6.4 6 -12.4
	c1 5.4 -4.2 8.4 -6 8.4
M166.63 101.61c0.9 -3.7 9.1 -6.4 6 -12.4
	c1 5.4 -4.2 8.4 -6 8.4
M166.63 96.21c0.9 -3.7 9.1 -6.4 6 -12.4
	c1 5.4 -4.2 8.4 -6 8.4
"/>
<path fill="currentColor"
	d="M176.73 113.01l27.70 0.00v-3.20l-27.70 -0.00"/>
<path fill="currentColor"
	d="M177.03 108.01l27.00 0.00v-3.20l-27.00 -0.00"/>
<path fill="currentColor"
	d="M177.03 103.01l18.00 0.00v-3.20l-18.00 -0.00"/>
<use x="180.53" y="85.01" xlink:href="#hd"/>
<path d="M177.03 85.01v27.00" stroke="currentColor" fill="none"/>
<use x="189.53" y="82.01" xlink:href="#hd"/>
<path d="M186.03 82.01v30.00" stroke="currentColor" fill="none"/>
<use x="198.53" y="79.01" xlink:href="#hd"/>
<path d="M195.03 79.01v33.00" stroke="currentColor" fill="none"/>
<use x="207.53" y="82.01" xlink:href="#hd"/>
<circle fill="currentColor" cx="215.53" cy="79.01" r="1.2"/>
<path d="M204.03 82.01v30.00" stroke="currentColor" fill="none"/>
<use x="224.53" y="85.01" xlink:href="#hd"/>
<path d="M221.03 85.01v22.00" stroke="currentColor" fill="none"/>
<path fill="currentColor"
	d="M221.03 107.01c0.9 -3.7 9.1 -6.4 6 -12.4
	c1 5.4 -4.2 8.4 -6 8.4
M221.03 101.61c0.9 -3.7 9.1 -6.4 6 -12.4
	c1 5.4 -4.2 8.4 -6 8.4
"/>
<defs>
<path id="Hd" fill="currentColor" d="m3 -1.6
	c-1 -1.8 -7 1.4 -6 3.2
	c1 1.8 7 -1.4 6 -3.2
	m0.5 -0.3
	c2 3.8 -5 7.6 -7 3.8
	c-2 -3.8 5 -7.6 7 -3.8"/>
</defs>
<use x="238.83" y="85.01" xlink:href="#Hd"/>
<path d="M235.33 85.01v20.00" stroke="currentColor" fill="none"/>
<path fill="currentColor"
	d="M278.93 103.01l36.60 0.00v-3.20l-36.60 -0.00"/>
<use x="282.73" y="79.01" xlink:href="#hd"/>
<path d="M279.23 79.01v23.00" stroke="currentColor" fill="none"/>
<use x="300.73" y="85.01" xlink:href="#hd"/>
<path d="M297.23 85.01v17.00" stroke="currentColor" fill="none"/>
<use x="318.73" y="82.01" xlink:href="#hd"/>
<path d="M315.23 82.01v20.00" stroke="currentColor" fill="none"/>
<path fill="currentColor"
	d="M334.73 109.01l36.60 0.00v-3.20l-36.60 -0.00"/>
<use x="338.53" y="88.01" xlink:href="#hd"/>
<path d="M335.03 88.01v20.00" stroke="currentColor" fill="none"/>
<use x="356.53" y="85.01" xlink:href="#hd"/>
<path d="M353.03 85.01v23.00" stroke="currentColor" fill="none"/>
<use x="374.53" y="91.01" xlink:href="#hd"/>
<path d="M371.03 91.01v17.00" stroke="currentColor" fill="none"/>
<path fill="currentColor"
	d="M399.33 111.61l18.70 4.70v-3.20l-18.70 -4.70"/>
<use x="403.13" y="88.01" xlink:href="#hd"/>
<path d="M399.63 88.01v22.70" stroke="currentColor" fill="none"/>
<use x="421.13" y="97.01" xlink:href="#hd"/>
<path d="M417.63 97.01v18.20" stroke="currentColor" fill="none"/>
<use x="439.13" y="97.01" xlink:href="#Hd"/>
<path d="M442.63 97.01v-20.00" stroke="currentColor" fill="none"/>
<use x="483.03" y="82.01" xlink:href="#hd"/>
<path d="M479.53 82.01v20.00" stroke="currentColor" fill="none"/>
<use x="510.73" y="85.01" xlink:href="#hd"/>
<path d="M507.23 85.01v20.00" stroke="currentColor" fill="none"/>
<path fill="currentColor"
	d="M507.23 105.01c0.6 -5.6 9.6 -9 5.6 -18.4
	c1.6 6 -1.3 11.6 -5.6 12.8
"/>
<path fill="currentColor"
	d="M526.83 101.31l36.60 -4.60v-3.20l-36.60 4.60"/>
<use x="530.63" y="82.01" xlink:href="#hd"/>
<path d="M527.13 82.01v18.20" stroke="currentColor" fill="none"/>
<use x="548.63" y="79.01" xlink:href="#hd"/>
<path d="M545.13 79.01v19.00" stroke="currentColor" fill="none"/>
<defs>
<path id="hl" stroke="currentColor" d="m-6 0h12"/>
</defs>
<use x="566.63" y="76.01" xlink:href="#hl"/>
<use x="566.63" y="76.01" xlink:href="#hd"/>
<path d="M563.13 76.01v19.80" stroke="currentColor" fill="none"/>
<use x="595.23" y="82.01" xlink:href="#hd"/>
<path d="M591.73 82.01v20.00" stroke="currentColor" fill="none"/>
<use x="622.93" y="85.01" xlink:href="#hd"/>
<path d="M619.43 85.01v20.00" stroke="currentColor" fill="none"/>
<path fill="currentColor"
	d="M619.43 105.01c0.6 -5.6 9.6 -9 5.6 -18.4
	c1.6 6 -1.3 11.6 -5.6 12.8
"/>
<path fill="currentColor"
	d="M639.03 101.31l36.60 -4.60v-3.20l-36.60 4.60"/>
<use x="642.83" y="82.01" xlink:href="#hd"/>
<path d="M639.33 82.01v18.20" stroke="currentColor" fill="none"/>
<use x="660.83" y="79.01" xlink:href="#hd"/>
<path d="M657.33 79.01v19.00" stroke="currentColor" fill="none"/>
<use x="678.83" y="76.01" xlink:href="#hl"/>
<use x="678.83" y="76.01" xlink:href="#hd"/>
<path d="M675.33 76.01v19.80" stroke="currentColor" fill="none"/>
</g>
</svg>
