<?xml version="1.0" standalone="no"?>
<!DOCTYPE svg PUBLIC "-//W3C//DTD SVG 1.1//EN"
	"http://www.w3.org/Graphics/SVG/1.1/DTD/svg11.dtd">
<svg xmlns="http://www.w3.org/2000/svg" version="1.1"
	xmlns:xlink="http://www.w3.org/1999/xlink"
	xml:space='preserve' color="black"
	width="7.38in" height="1.34in" viewBox="0 0 531 97">
<title>5261.abc (5261) tune 1</title>
<!-- Creator: abcm2ps-7.8.14 -->
<!-- CreationDate: Mar 13, 2016 18:54 -->
<!-- CommandLine: -qxg 5261.abc -O ../svgs/5261.svg -->
<g transform="scale(0.750)" stroke-width="0.70" font-family="Times" font-size="20.00">
<text x="354.13" y="21.67" text-anchor="middle">5261.  Concerto for the Left Hand, 1st. Theme A</text>
</g>
<g transform="scale(0.750)" stroke-width="0.70" font-family="Times" font-size="14.00" font-style="italic">
<text x="694.93" y="45.34" text-anchor="end">Maurice Ravel</text>
</g>
<g transform="scale(0.525)" stroke-width="0.70" font-family="Times" font-size="14.00" font-style="italic">
<defs>
<ellipse id="hd" rx="4.1" ry="2.9"
	transform="rotate(-20)" fill="currentColor"/>
</defs>
<use x="114.90" y="94.16" xlink:href="#hd"/>
<path d="M118.40 94.16v-20.00" stroke="currentColor" fill="none"/>
</g>
<g transform="scale(0.750)" stroke-width="0.70" font-family="Times" font-size="15.00" font-weight="bold">
<text x="88.13" y="68.01">= 120</text>
<path stroke="currentColor" fill="none"
	d="M238.63 106.01v-24.00"/>
<path stroke="currentColor" fill="none"
	d="M426.03 106.01v-24.00"/>
<path stroke="currentColor" fill="none"
	d="M602.43 106.01v-24.00"/>
<path stroke="currentColor" fill="none"
	d="M13.33 106.01h681.60m-681.60 -6h681.60m-681.60 -6h681.60m-681.60 -6h681.60m-681.60 -6h681.60"/>
<defs>
<path id="ubclef" fill="currentColor" d="m-200 -87
	c124 -35 222 -78 254 -236
	c43 -228 -167 -246 -192 -103
	c59 -80 157 22 92 78
	c-62 47 -115 -22 -106 -88
	c21 -141 270 -136 274 52
	c-1 175 -106 264 -322 297
	m357 -250
	c0 -36 51 -34 51 0
	c0 37 -51 36 -51 0
	m-2 -129
	c0 -36 51 -34 51 0
	c0 38 -51 37 -51 0"/>
<use id="bclef" transform="scale(0.045)"
	xlink:href="#ubclef"/>
</defs>
<use x="25.33" y="106.01" xlink:href="#bclef"/>
<defs>
<path id="usharp" fill="currentColor" d="
	m136 -702
	v890
	h32
	v-890
	m128 840
	h32
	v-888
	h-32
	m-232 286
	v116
	l338 -96
	v-116
	m-338 442
	v116
	l338 -98
	v-114"/>
<use id="sh0" transform="translate(-4,5) scale(0.018)"
	xlink:href="#usharp"/>
</defs>
<use x="40.33" y="88.01" xlink:href="#sh0"/>
<use x="45.83" y="97.01" xlink:href="#sh0"/>
<g font-family="serif" font-size="16" font-weight="bold" font-style="normal"
	transform="translate(61.83,106.01) scale(1.2,1)">
	<text y="-1" text-anchor="middle">4</text>
	<text y="-13" text-anchor="middle">3</text>
</g>
<defs>
<path id="hl" stroke="currentColor" d="m-6 0h12"/>
</defs>
<use x="79.83" y="112.01" xlink:href="#hl"/>
<use x="79.83" y="112.01" xlink:href="#hd"/>
<path d="M83.33 112.01v-21.00" stroke="currentColor" fill="none"/>
<path fill="currentColor"
	d="M83.33 91.01c0.9 3.7 9.1 6.4 6 12.4
	c1 -5.4 -4.2 -8.4 -6 -8.4
M83.33 96.41c0.9 3.7 9.1 6.4 6 12.4
	c1 -5.4 -4.2 -8.4 -6 -8.4
"/>
<use x="104.73" y="109.01" xlink:href="#hd"/>
<circle fill="currentColor" cx="112.73" cy="109.01" r="1.2"/>
<path d="M108.23 109.01v-20.00" stroke="currentColor" fill="none"/>
<path fill="currentColor"
	d="M164.73 86.01l45.60 0.00v3.20l-45.60 -0.00"/>
<path fill="currentColor"
	d="M165.03 91.01l22.40 0.00v3.20l-22.40 -0.00"/>
<use x="161.53" y="109.01" xlink:href="#hd"/>
<path d="M165.03 109.01v-22.00" stroke="currentColor" fill="none"/>
<use x="184.03" y="112.01" xlink:href="#hl"/>
<use x="184.03" y="112.01" xlink:href="#hd"/>
<path d="M187.53 112.01v-25.00" stroke="currentColor" fill="none"/>
<use x="206.43" y="106.01" xlink:href="#hd"/>
<circle fill="currentColor" cx="214.43" cy="103.01" r="1.2"/>
<path d="M209.93 106.01v-19.00" stroke="currentColor" fill="none"/>
<use x="256.23" y="109.01" xlink:href="#hd"/>
<path d="M259.73 109.01v-21.00" stroke="currentColor" fill="none"/>
<path fill="currentColor"
	d="M259.73 88.01c0.9 3.7 9.1 6.4 6 12.4
	c1 -5.4 -4.2 -8.4 -6 -8.4
M259.73 93.41c0.9 3.7 9.1 6.4 6 12.4
	c1 -5.4 -4.2 -8.4 -6 -8.4
"/>
<use x="281.13" y="103.01" xlink:href="#hd"/>
<circle fill="currentColor" cx="289.13" cy="103.01" r="1.2"/>
<path d="M284.63 103.01v-20.00" stroke="currentColor" fill="none"/>
<path fill="currentColor"
	d="M341.13 81.01l39.00 0.00v3.20l-39.00 -0.00"/>
<path fill="currentColor"
	d="M341.43 86.01l38.30 0.00v3.20l-38.30 -0.00"/>
<path fill="currentColor"
	d="M363.93 91.01l15.90 0.00v3.20l-15.90 -0.00"/>
<use x="337.93" y="103.01" xlink:href="#hd"/>
<path d="M341.43 103.01v-21.00" stroke="currentColor" fill="none"/>
<use x="360.43" y="112.01" xlink:href="#hl"/>
<use x="360.43" y="112.01" xlink:href="#hd"/>
<path d="M363.93 112.01v-30.00" stroke="currentColor" fill="none"/>
<use x="376.33" y="106.01" xlink:href="#hd"/>
<path d="M379.83 106.01v-24.00" stroke="currentColor" fill="none"/>
<use x="393.93" y="100.01" xlink:href="#hd"/>
<circle fill="currentColor" cx="406.93" cy="97.01" r="1.2"/>
<path d="M397.43 100.01v-20.00" stroke="currentColor" fill="none"/>
<path fill="currentColor"
	d="	M397.43 80.01c0.6 5.6 9.6 9 5.6 18.4
	c1.6 -6 -1.3 -11.6 -5.6 -12.8
"/>
<use x="443.73" y="88.01" xlink:href="#hd"/>
<path d="M440.23 88.01v22.00" stroke="currentColor" fill="none"/>
<path fill="currentColor"
	d="M440.23 110.01c0.9 -3.7 9.1 -6.4 6 -12.4
	c1 5.4 -4.2 8.4 -6 8.4
M440.23 104.61c0.9 -3.7 9.1 -6.4 6 -12.4
	c1 5.4 -4.2 8.4 -6 8.4
"/>
<use x="468.63" y="88.01" xlink:href="#hd"/>
<circle fill="currentColor" cx="476.63" cy="85.01" r="1.2"/>
<path d="M465.13 88.01v20.00" stroke="currentColor" fill="none"/>
<path fill="currentColor"
	d="M521.63 108.01l45.60 0.00v-3.20l-45.60 -0.00"/>
<path fill="currentColor"
	d="M521.93 103.01l22.40 0.00v-3.20l-22.40 -0.00"/>
<use x="525.43" y="88.01" xlink:href="#hd"/>
<path d="M521.93 88.01v19.00" stroke="currentColor" fill="none"/>
<use x="547.93" y="85.01" xlink:href="#hd"/>
<path d="M544.43 85.01v22.00" stroke="currentColor" fill="none"/>
<use x="570.33" y="91.01" xlink:href="#hd"/>
<circle fill="currentColor" cx="578.33" cy="91.01" r="1.2"/>
<path d="M566.83 91.01v16.00" stroke="currentColor" fill="none"/>
<use x="620.13" y="100.01" xlink:href="#hd"/>
<path d="M623.63 100.01v-21.00" stroke="currentColor" fill="none"/>
<path fill="currentColor"
	d="M623.63 79.01c0.9 3.7 9.1 6.4 6 12.4
	c1 -5.4 -4.2 -8.4 -6 -8.4
M623.63 84.41c0.9 3.7 9.1 6.4 6 12.4
	c1 -5.4 -4.2 -8.4 -6 -8.4
"/>
<use x="645.03" y="103.01" xlink:href="#hd"/>
<path d="M648.53 103.01v-20.00" stroke="currentColor" fill="none"/>
<path fill="currentColor"
	d="M108.23 111.01c7.62 5.40 42.16 5.40 49.79 -0.00
	l0.00 0.25c-9.12 7.15 -40.67 7.15 -49.79 -0.25"/>
<path fill="currentColor"
	d="M284.63 105.01c7.62 5.40 42.16 5.40 49.79 -0.00
	l0.00 0.25c-9.12 7.15 -40.67 7.15 -49.79 -0.25"/>
<path fill="currentColor"
	d="M472.13 82.01c7.62 -5.40 42.16 -5.40 49.79 -0.00
	l0.00 -0.25c-9.12 -7.15 -40.67 -7.15 -49.79 0.25"/>
</g>
</svg>
