<?xml version="1.0" standalone="no"?>
<!DOCTYPE svg PUBLIC "-//W3C//DTD SVG 1.1//EN"
	"http://www.w3.org/Graphics/SVG/1.1/DTD/svg11.dtd">
<svg xmlns="http://www.w3.org/2000/svg" version="1.1"
	xmlns:xlink="http://www.w3.org/1999/xlink"
	xml:space='preserve' color="black"
	width="7.38in" height="1.49in" viewBox="0 0 531 107">
<title>5289.abc (5289) tune 1</title>
<!-- Creator: abcm2ps-7.8.14 -->
<!-- CreationDate: Mar 13, 2016 18:54 -->
<!-- CommandLine: -qxg 5289.abc -O ../svgs/5289.svg -->
<g transform="scale(0.750)" stroke-width="0.70" font-family="Times" font-size="20.00">
<text x="354.13" y="21.67" text-anchor="middle">5289.  Ma Mere L&apos;Oye, Empress of the Pagodas (Laideronnette, Imperatrice des Pagodes)</text>
</g>
<g transform="scale(0.750)" stroke-width="0.70" font-family="Times" font-size="14.00" font-style="italic">
<text x="694.93" y="45.34" text-anchor="end">Maurice Ravel</text>
</g>
<g transform="scale(0.525)" stroke-width="0.70" font-family="Times" font-size="14.00" font-style="italic">
<defs>
<ellipse id="hd" rx="4.1" ry="2.9"
	transform="rotate(-20)" fill="currentColor"/>
</defs>
<use x="146.33" y="94.16" xlink:href="#hd"/>
<path d="M149.83 94.16v-20.00" stroke="currentColor" fill="none"/>
</g>
<g transform="scale(0.750)" stroke-width="0.70" font-family="Times" font-size="15.00" font-weight="bold">
<text x="110.13" y="68.01">= 120</text>
<path stroke="currentColor" fill="none"
	d="M230.33 120.01v-24.00"/>
<path stroke="currentColor" fill="none"
	d="M363.03 120.01v-24.00"/>
<path stroke="currentColor" fill="none"
	d="M504.83 120.01v-24.00"/>
<path stroke="currentColor" fill="none"
	d="M655.63 120.01v-24.00"/>
<path stroke="currentColor" fill="none"
	d="M13.33 120.01h681.60m-681.60 -6h681.60m-681.60 -6h681.60m-681.60 -6h681.60m-681.60 -6h681.60"/>
<defs>
<path id="utclef" fill="currentColor" d="m-50 -90
	c-72 -41 -72 -158 52 -188
	c150 -10 220 188 90 256
	c-114 52 -275 0 -293 -136
	c-15 -181 93 -229 220 -334
	c88 -87 79 -133 62 -210
	c-51 33 -94 105 -89 186
	c17 267 36 374 49 574
	c6 96 -19 134 -77 135
	c-80 1 -126 -93 -61 -133
	c85 -41 133 101 31 105
	c23 17 92 37 90 -92
	c-10 -223 -39 -342 -50 -617
	c0 -90 0 -162 96 -232
	c56 72 63 230 22 289
	c-74 106 -257 168 -255 316
	c9 153 148 185 252 133
	c86 -65 29 -192 -80 -176
	c-71 12 -105 67 -59 124"/>
<use id="tclef" transform="scale(0.045)"
	xlink:href="#utclef"/>
</defs>
<use x="25.33" y="120.01" xlink:href="#tclef"/>
<defs>
<path id="usharp" fill="currentColor" d="
	m136 -702
	v890
	h32
	v-890
	m128 840
	h32
	v-888
	h-32
	m-232 286
	v116
	l338 -96
	v-116
	m-338 442
	v116
	l338 -98
	v-114"/>
<use id="sh0" transform="translate(-4,5) scale(0.018)"
	xlink:href="#usharp"/>
</defs>
<use x="40.33" y="96.01" xlink:href="#sh0"/>
<use x="45.83" y="105.01" xlink:href="#sh0"/>
<use x="51.33" y="93.01" xlink:href="#sh0"/>
<use x="56.83" y="102.01" xlink:href="#sh0"/>
<use x="62.33" y="111.01" xlink:href="#sh0"/>
<use x="67.83" y="99.01" xlink:href="#sh0"/>
<g font-family="serif" font-size="16" font-weight="bold" font-style="normal"
	transform="translate(83.83,120.01) scale(1.2,1)">
	<text y="-1" text-anchor="middle">4</text>
	<text y="-13" text-anchor="middle">2</text>
</g>
<path fill="currentColor"
	d="M98.03 108.21l17.40 0.00v-3.20l-17.40 -0.00"/>
<path fill="currentColor"
	d="M98.33 103.21l16.80 0.00v-3.20l-16.80 -0.00"/>
<defs>
<path id="hl" stroke="currentColor" d="m-6 0h12"/>
</defs>
<use x="101.83" y="90.01" xlink:href="#hl"/>
<use x="101.83" y="84.01" xlink:href="#hl"/>
<use x="101.83" y="78.01" xlink:href="#hl"/>
<use x="101.83" y="78.01" xlink:href="#hd"/>
<path d="M98.33 78.01v29.20" stroke="currentColor" fill="none"/>
<use x="118.63" y="90.01" xlink:href="#hl"/>
<use x="118.63" y="84.01" xlink:href="#hl"/>
<use x="118.63" y="81.01" xlink:href="#hd"/>
<path d="M115.13 81.01v26.20" stroke="currentColor" fill="none"/>
<path fill="currentColor"
	d="M133.33 108.21l17.40 0.00v-3.20l-17.40 -0.00"/>
<path fill="currentColor"
	d="M133.63 103.21l16.80 0.00v-3.20l-16.80 -0.00"/>
<use x="137.13" y="90.01" xlink:href="#hl"/>
<use x="137.13" y="84.01" xlink:href="#hl"/>
<use x="137.13" y="84.01" xlink:href="#hd"/>
<path d="M133.63 84.01v23.20" stroke="currentColor" fill="none"/>
<use x="153.93" y="90.01" xlink:href="#hl"/>
<use x="153.93" y="84.01" xlink:href="#hl"/>
<use x="153.93" y="81.01" xlink:href="#hd"/>
<path d="M150.43 81.01v26.20" stroke="currentColor" fill="none"/>
<use x="172.53" y="90.01" xlink:href="#hl"/>
<use x="172.53" y="90.01" xlink:href="#hd"/>
<path d="M169.03 90.01v20.00" stroke="currentColor" fill="none"/>
<path fill="currentColor"
	d="M169.03 110.01c0.6 -5.6 9.6 -9 5.6 -18.4
	c1.6 6 -1.3 11.6 -5.6 12.8
"/>
<path fill="currentColor"
	d="M194.83 108.21l17.40 0.00v-3.20l-17.40 -0.00"/>
<path fill="currentColor"
	d="M195.23 103.21l16.80 0.00v-3.20l-16.80 -0.00"/>
<use x="198.73" y="90.01" xlink:href="#hl"/>
<use x="198.73" y="84.01" xlink:href="#hl"/>
<use x="198.73" y="78.01" xlink:href="#hl"/>
<use x="198.73" y="78.01" xlink:href="#hd"/>
<path d="M195.23 78.01v29.20" stroke="currentColor" fill="none"/>
<use x="215.43" y="90.01" xlink:href="#hl"/>
<use x="215.43" y="84.01" xlink:href="#hl"/>
<use x="215.43" y="84.01" xlink:href="#hd"/>
<path d="M211.93 84.01v23.20" stroke="currentColor" fill="none"/>
<use x="243.63" y="90.01" xlink:href="#hl"/>
<use x="243.63" y="84.01" xlink:href="#hl"/>
<use x="243.63" y="81.01" xlink:href="#hd"/>
<path d="M240.13 81.01v27.00" stroke="currentColor" fill="none"/>
<path fill="currentColor"
	d="M240.13 108.01c0.6 -5.6 9.6 -9 5.6 -18.4
	c1.6 6 -1.3 11.6 -5.6 12.8
"/>
<use x="269.83" y="90.01" xlink:href="#hl"/>
<use x="269.83" y="84.01" xlink:href="#hl"/>
<use x="269.83" y="81.01" xlink:href="#hd"/>
<path d="M266.33 81.01v27.00" stroke="currentColor" fill="none"/>
<path fill="currentColor"
	d="M266.33 108.01c0.6 -5.6 9.6 -9 5.6 -18.4
	c1.6 6 -1.3 11.6 -5.6 12.8
"/>
<path fill="currentColor"
	d="M292.23 108.21l17.40 0.00v-3.20l-17.40 -0.00"/>
<path fill="currentColor"
	d="M292.53 103.21l16.80 0.00v-3.20l-16.80 -0.00"/>
<use x="296.03" y="90.01" xlink:href="#hl"/>
<use x="296.03" y="84.01" xlink:href="#hl"/>
<use x="296.03" y="78.01" xlink:href="#hl"/>
<use x="296.03" y="78.01" xlink:href="#hd"/>
<path d="M292.53 78.01v29.20" stroke="currentColor" fill="none"/>
<use x="312.83" y="90.01" xlink:href="#hl"/>
<use x="312.83" y="84.01" xlink:href="#hl"/>
<use x="312.83" y="81.01" xlink:href="#hd"/>
<path d="M309.33 81.01v26.20" stroke="currentColor" fill="none"/>
<path fill="currentColor"
	d="M327.53 108.21l17.40 0.00v-3.20l-17.40 -0.00"/>
<path fill="currentColor"
	d="M327.83 103.21l16.80 0.00v-3.20l-16.80 -0.00"/>
<use x="331.33" y="90.01" xlink:href="#hl"/>
<use x="331.33" y="84.01" xlink:href="#hl"/>
<use x="331.33" y="84.01" xlink:href="#hd"/>
<path d="M327.83 84.01v23.20" stroke="currentColor" fill="none"/>
<use x="348.13" y="90.01" xlink:href="#hl"/>
<use x="348.13" y="84.01" xlink:href="#hl"/>
<use x="348.13" y="81.01" xlink:href="#hd"/>
<path d="M344.63 81.01v26.20" stroke="currentColor" fill="none"/>
<path fill="currentColor"
	d="M372.43 112.31l17.40 -2.80v-3.20l-17.40 2.80"/>
<path fill="currentColor"
	d="M372.73 107.21l16.80 -2.70v-3.20l-16.80 2.70"/>
<use x="376.23" y="90.01" xlink:href="#hl"/>
<use x="376.23" y="90.01" xlink:href="#hd"/>
<path d="M372.73 90.01v21.20" stroke="currentColor" fill="none"/>
<use x="393.03" y="90.01" xlink:href="#hl"/>
<use x="393.03" y="84.01" xlink:href="#hl"/>
<use x="393.03" y="81.01" xlink:href="#hd"/>
<path d="M389.53 81.01v27.50" stroke="currentColor" fill="none"/>
<path fill="currentColor"
	d="M407.73 108.21l17.40 0.00v-3.20l-17.40 -0.00"/>
<path fill="currentColor"
	d="M408.13 103.21l16.80 0.00v-3.20l-16.80 -0.00"/>
<use x="411.63" y="90.01" xlink:href="#hl"/>
<use x="411.63" y="84.01" xlink:href="#hl"/>
<use x="411.63" y="78.01" xlink:href="#hl"/>
<use x="411.63" y="78.01" xlink:href="#hd"/>
<path d="M408.13 78.01v29.20" stroke="currentColor" fill="none"/>
<use x="428.33" y="90.01" xlink:href="#hl"/>
<use x="428.33" y="84.01" xlink:href="#hl"/>
<use x="428.33" y="84.01" xlink:href="#hd"/>
<path d="M424.83 84.01v23.20" stroke="currentColor" fill="none"/>
<use x="446.93" y="90.01" xlink:href="#hl"/>
<use x="446.93" y="84.01" xlink:href="#hl"/>
<use x="446.93" y="81.01" xlink:href="#hd"/>
<path d="M443.43 81.01v27.00" stroke="currentColor" fill="none"/>
<path fill="currentColor"
	d="M443.43 108.01c0.6 -5.6 9.6 -9 5.6 -18.4
	c1.6 6 -1.3 11.6 -5.6 12.8
"/>
<path fill="currentColor"
	d="M469.33 108.21l17.40 0.00v-3.20l-17.40 -0.00"/>
<path fill="currentColor"
	d="M469.63 103.21l16.80 0.00v-3.20l-16.80 -0.00"/>
<use x="473.13" y="90.01" xlink:href="#hl"/>
<use x="473.13" y="84.01" xlink:href="#hl"/>
<use x="473.13" y="78.01" xlink:href="#hl"/>
<use x="473.13" y="78.01" xlink:href="#hd"/>
<path d="M469.63 78.01v29.20" stroke="currentColor" fill="none"/>
<use x="489.93" y="90.01" xlink:href="#hl"/>
<use x="489.93" y="84.01" xlink:href="#hl"/>
<use x="489.93" y="81.01" xlink:href="#hd"/>
<path d="M486.43 81.01v26.20" stroke="currentColor" fill="none"/>
<path fill="currentColor"
	d="M514.23 108.21l17.40 0.00v-3.20l-17.40 -0.00"/>
<path fill="currentColor"
	d="M514.53 103.21l16.80 0.00v-3.20l-16.80 -0.00"/>
<use x="518.03" y="90.01" xlink:href="#hl"/>
<use x="518.03" y="84.01" xlink:href="#hl"/>
<use x="518.03" y="84.01" xlink:href="#hd"/>
<path d="M514.53 84.01v23.20" stroke="currentColor" fill="none"/>
<use x="534.83" y="90.01" xlink:href="#hl"/>
<use x="534.83" y="84.01" xlink:href="#hl"/>
<use x="534.83" y="81.01" xlink:href="#hd"/>
<path d="M531.33 81.01v26.20" stroke="currentColor" fill="none"/>
<path fill="currentColor"
	d="M549.53 112.31l17.40 -2.80v-3.20l-17.40 2.80"/>
<path fill="currentColor"
	d="M549.93 107.21l16.80 -2.70v-3.20l-16.80 2.70"/>
<use x="553.43" y="90.01" xlink:href="#hl"/>
<use x="553.43" y="90.01" xlink:href="#hd"/>
<path d="M549.93 90.01v21.20" stroke="currentColor" fill="none"/>
<use x="570.13" y="90.01" xlink:href="#hl"/>
<use x="570.13" y="84.01" xlink:href="#hl"/>
<use x="570.13" y="84.01" xlink:href="#hd"/>
<path d="M566.63 84.01v24.50" stroke="currentColor" fill="none"/>
<path fill="currentColor"
	d="M584.83 115.21l17.40 -2.30v-3.20l-17.40 2.30"/>
<path fill="currentColor"
	d="M585.23 110.21l16.70 -2.20v-3.20l-16.70 2.20"/>
<use x="588.73" y="93.01" xlink:href="#hd"/>
<path d="M585.23 93.01v21.20" stroke="currentColor" fill="none"/>
<use x="605.43" y="90.01" xlink:href="#hl"/>
<use x="605.43" y="90.01" xlink:href="#hd"/>
<path d="M601.93 90.01v22.00" stroke="currentColor" fill="none"/>
<path fill="currentColor"
	d="M620.13 121.31l17.40 -3.60v-3.20l-17.40 3.60"/>
<path fill="currentColor"
	d="M620.43 116.21l16.70 -3.50v-3.20l-16.70 3.50"/>
<use x="623.93" y="99.01" xlink:href="#hd"/>
<path d="M620.43 99.01v21.20" stroke="currentColor" fill="none"/>
<use x="640.73" y="93.01" xlink:href="#hd"/>
<path d="M637.23 93.01v23.70" stroke="currentColor" fill="none"/>
<use x="668.83" y="102.01" xlink:href="#hd"/>
<path d="M665.33 102.01v20.00" stroke="currentColor" fill="none"/>
<path fill="currentColor"
	d="M665.33 122.01c0.6 -5.6 9.6 -9 5.6 -18.4
	c1.6 6 -1.3 11.6 -5.6 12.8
"/>
</g>
</svg>
