<?xml version="1.0" standalone="no"?>
<!DOCTYPE svg PUBLIC "-//W3C//DTD SVG 1.1//EN"
	"http://www.w3.org/Graphics/SVG/1.1/DTD/svg11.dtd">
<svg xmlns="http://www.w3.org/2000/svg" version="1.1"
	xmlns:xlink="http://www.w3.org/1999/xlink"
	xml:space='preserve' color="black"
	width="7.38in" height="1.43in" viewBox="0 0 531 103">
<title>5311.abc (5311) tune 1</title>
<!-- Creator: abcm2ps-7.8.14 -->
<!-- CreationDate: Mar 13, 2016 18:54 -->
<!-- CommandLine: -qxg 5311.abc -O ../svgs/5311.svg -->
<g transform="scale(0.750)" stroke-width="0.70" font-family="Times" font-size="20.00">
<text x="354.13" y="21.67" text-anchor="middle">5311.  Rapsodie Espagnole, 4th. Mvt. - Feria, 3rd. Theme</text>
</g>
<g transform="scale(0.750)" stroke-width="0.70" font-family="Times" font-size="14.00" font-style="italic">
<text x="694.93" y="45.34" text-anchor="end">Maurice Ravel</text>
</g>
<g transform="scale(0.525)" stroke-width="0.70" font-family="Times" font-size="14.00" font-style="italic">
<defs>
<ellipse id="hd" rx="4.1" ry="2.9"
	transform="rotate(-20)" fill="currentColor"/>
</defs>
<use x="123.47" y="94.16" xlink:href="#hd"/>
<path d="M126.97 94.16v-20.00" stroke="currentColor" fill="none"/>
</g>
<g transform="scale(0.750)" stroke-width="0.70" font-family="Times" font-size="15.00" font-weight="bold">
<text x="94.13" y="68.01">= 120</text>
<path stroke="currentColor" fill="none"
	d="M156.13 114.01v-24.00"/>
<path stroke="currentColor" fill="none"
	d="M248.03 114.01v-24.00"/>
<path stroke="currentColor" fill="none"
	d="M401.63 114.01v-24.00"/>
<path stroke="currentColor" fill="none"
	d="M516.53 114.01v-24.00"/>
<path stroke="currentColor" fill="none"
	d="M660.13 114.01v-24.00"/>
<path stroke="currentColor" fill="none"
	d="M13.33 114.01h681.60m-681.60 -6h681.60m-681.60 -6h681.60m-681.60 -6h681.60m-681.60 -6h681.60"/>
<defs>
<path id="utclef" fill="currentColor" d="m-50 -90
	c-72 -41 -72 -158 52 -188
	c150 -10 220 188 90 256
	c-114 52 -275 0 -293 -136
	c-15 -181 93 -229 220 -334
	c88 -87 79 -133 62 -210
	c-51 33 -94 105 -89 186
	c17 267 36 374 49 574
	c6 96 -19 134 -77 135
	c-80 1 -126 -93 -61 -133
	c85 -41 133 101 31 105
	c23 17 92 37 90 -92
	c-10 -223 -39 -342 -50 -617
	c0 -90 0 -162 96 -232
	c56 72 63 230 22 289
	c-74 106 -257 168 -255 316
	c9 153 148 185 252 133
	c86 -65 29 -192 -80 -176
	c-71 12 -105 67 -59 124"/>
<use id="tclef" transform="scale(0.045)"
	xlink:href="#utclef"/>
</defs>
<use x="25.33" y="114.01" xlink:href="#tclef"/>
<defs>
<path id="usharp" fill="currentColor" d="
	m136 -702
	v890
	h32
	v-890
	m128 840
	h32
	v-888
	h-32
	m-232 286
	v116
	l338 -96
	v-116
	m-338 442
	v116
	l338 -98
	v-114"/>
<use id="sh0" transform="translate(-4,5) scale(0.018)"
	xlink:href="#usharp"/>
</defs>
<use x="40.33" y="90.01" xlink:href="#sh0"/>
<use x="45.83" y="99.01" xlink:href="#sh0"/>
<use x="51.33" y="87.01" xlink:href="#sh0"/>
<g font-family="serif" font-size="16" font-weight="bold" font-style="normal"
	transform="translate(67.33,114.01) scale(1.2,1)">
	<text y="-1" text-anchor="middle">4</text>
	<text y="-13" text-anchor="middle">3</text>
</g>
<defs>
<path id="hl" stroke="currentColor" d="m-6 0h12"/>
</defs>
<use x="85.83" y="84.01" xlink:href="#hl"/>
<use x="85.83" y="78.01" xlink:href="#hl"/>
<defs>
<path id="Hd" fill="currentColor" d="m3 -1.6
	c-1 -1.8 -7 1.4 -6 3.2
	c1 1.8 7 -1.4 6 -3.2
	m0.5 -0.3
	c2 3.8 -5 7.6 -7 3.8
	c-2 -3.8 5 -7.6 7 -3.8"/>
</defs>
<use x="85.83" y="78.01" xlink:href="#Hd"/>
<path d="M82.33 78.01v24.00" stroke="currentColor" fill="none"/>
<use x="130.63" y="84.01" xlink:href="#hl"/>
<use x="130.63" y="78.01" xlink:href="#hl"/>
<use x="130.63" y="78.01" xlink:href="#hd"/>
<path d="M127.13 78.01v24.00" stroke="currentColor" fill="none"/>
<path fill="currentColor"
	d="M164.83 102.21l21.30 0.00v-3.20l-21.30 -0.00"/>
<use x="168.63" y="84.01" xlink:href="#hl"/>
<use x="168.63" y="78.01" xlink:href="#hl"/>
<use x="168.63" y="78.01" xlink:href="#hd"/>
<path d="M165.13 78.01v23.20" stroke="currentColor" fill="none"/>
<use x="189.33" y="84.01" xlink:href="#hl"/>
<use x="189.33" y="78.01" xlink:href="#hl"/>
<use x="189.33" y="78.01" xlink:href="#hd"/>
<path d="M185.83 78.01v23.20" stroke="currentColor" fill="none"/>
<use x="212.13" y="84.01" xlink:href="#hl"/>
<use x="212.13" y="78.01" xlink:href="#hl"/>
<use x="212.13" y="78.01" xlink:href="#Hd"/>
<path d="M208.63 78.01v24.00" stroke="currentColor" fill="none"/>
<use x="260.53" y="84.01" xlink:href="#hl"/>
<use x="260.53" y="78.01" xlink:href="#hl"/>
<use x="260.53" y="78.01" xlink:href="#hd"/>
<circle fill="currentColor" cx="268.53" cy="75.01" r="1.2"/>
<path d="M257.03 78.01v24.00" stroke="currentColor" fill="none"/>
<path fill="currentColor"
	d="M257.03 102.01c0.6 -5.6 9.6 -9 5.6 -18.4
	c1.6 6 -1.3 11.6 -5.6 12.8
"/>
<path fill="currentColor"
	d="M283.23 108.21l30.40 0.00v-3.20l-30.40 -0.00"/>
<path fill="currentColor"
	d="M283.53 103.21l29.70 0.00v-3.20l-29.70 -0.00"/>
<use x="287.03" y="84.01" xlink:href="#hl"/>
<use x="287.03" y="81.01" xlink:href="#hd"/>
<path d="M283.53 81.01v26.20" stroke="currentColor" fill="none"/>
<use x="301.93" y="84.01" xlink:href="#hl"/>
<use x="301.93" y="78.01" xlink:href="#hl"/>
<use x="301.93" y="78.01" xlink:href="#hd"/>
<path d="M298.43 78.01v29.20" stroke="currentColor" fill="none"/>
<use x="316.83" y="84.01" xlink:href="#hl"/>
<use x="316.83" y="84.01" xlink:href="#hd"/>
<path d="M313.33 84.01v23.20" stroke="currentColor" fill="none"/>
<path fill="currentColor"
	d="M329.33 105.21l30.30 4.00v-3.20l-30.30 -4.00"/>
<path fill="currentColor"
	d="M329.73 100.21l14.90 2.00v-3.20l-14.90 -2.00"/>
<use x="333.23" y="84.01" xlink:href="#hl"/>
<use x="333.23" y="81.01" xlink:href="#hd"/>
<path d="M329.73 81.01v23.20" stroke="currentColor" fill="none"/>
<use x="348.03" y="84.01" xlink:href="#hl"/>
<use x="348.03" y="84.01" xlink:href="#hd"/>
<path d="M344.53 84.01v22.20" stroke="currentColor" fill="none"/>
<use x="362.83" y="90.01" xlink:href="#hd"/>
<path d="M359.33 90.01v18.20" stroke="currentColor" fill="none"/>
<defs>
<path id="r8e" fill="currentColor" d="m 0 0
	c-1.5 1.5 -2.4 2 -3.6 2
	c2.4 -2.8 -2.8 -4 -2.8 -1.2
	c0 2.7 4.3 2.4 5.9 0.6"/>
<g id="r8">
	<path d="m3.3 -4l-3.4 9.6" stroke="currentColor" fill="none"/>
	<use x="3.4" y="-4" xlink:href="#r8e"/>
</g>
</defs>
<use x="383.33" y="102.01" xlink:href="#r8"/>
<use x="414.63" y="90.01" xlink:href="#Hd"/>
<path d="M411.13 90.01v20.00" stroke="currentColor" fill="none"/>
<path fill="currentColor"
	d="M456.23 115.01l47.50 0.00v-3.20l-47.50 -0.00"/>
<path fill="currentColor"
	d="M477.93 110.01l25.50 0.00v-3.20l-25.50 -0.00"/>
<path fill="currentColor"
	d="M497.43 105.01l6.00 0.00v-3.20l-6.00 -0.00"/>
<use x="460.13" y="90.01" xlink:href="#hd"/>
<defs>
<path id="unat" fill="currentColor" d="
	m96 -750
	h-32
	v716
	l32 -8
	l182 -54
	v282
	h32
	v-706
	l-34 10
	l-180 50
	v-290
	m0 592
	v-190
	l182 -52
	v188"/>
<use id="nt0" transform="translate(-3,5) scale(0.018)"
	xlink:href="#unat"/>
</defs>
<use x="451.13" y="90.01" xlink:href="#nt0"/>
<path d="M456.63 90.01v24.00" stroke="currentColor" fill="none"/>
<use x="481.43" y="90.01" xlink:href="#hd"/>
<circle fill="currentColor" cx="489.43" cy="87.01" r="1.2"/>
<use x="472.43" y="90.01" xlink:href="#nt0"/>
<path d="M477.93 90.01v24.00" stroke="currentColor" fill="none"/>
<use x="506.93" y="90.01" xlink:href="#hd"/>
<use x="497.93" y="90.01" xlink:href="#sh0"/>
<path d="M503.43 90.01v24.00" stroke="currentColor" fill="none"/>
<path fill="currentColor"
	d="M525.13 120.91l58.90 0.00v-3.20l-58.90 -0.00"/>
<path fill="currentColor"
	d="M525.53 115.91l43.50 0.00v-3.20l-43.50 -0.00"/>
<path fill="currentColor"
	d="M525.53 110.91l25.00 0.00v-3.20l-25.00 -0.00"/>
<use x="529.03" y="90.01" xlink:href="#hd"/>
<path d="M525.53 90.01v30.00" stroke="currentColor" fill="none"/>
<use x="554.03" y="90.01" xlink:href="#hd"/>
<use x="538.03" y="90.01" xlink:href="#nt0"/>
<path d="M550.53 90.01v30.00" stroke="currentColor" fill="none"/>
<use x="547.03" y="90.01" xlink:href="#hd"/>
<use x="572.53" y="90.01" xlink:href="#hd"/>
<use x="563.53" y="90.01" xlink:href="#nt0"/>
<path d="M569.03 90.01v30.00" stroke="currentColor" fill="none"/>
<use x="587.23" y="99.01" xlink:href="#hd"/>
<path d="M583.73 99.01v21.00" stroke="currentColor" fill="none"/>
<use x="607.73" y="102.01" xlink:href="#r8"/>
<use x="630.43" y="99.01" xlink:href="#hd"/>
<circle fill="currentColor" cx="638.43" cy="99.01" r="1.2"/>
<path d="M626.93 99.01v20.00" stroke="currentColor" fill="none"/>
<use x="672.63" y="99.01" xlink:href="#hd"/>
<path d="M669.13 99.01v20.00" stroke="currentColor" fill="none"/>
<path fill="currentColor"
	d="M669.13 119.01c0.6 -5.6 9.6 -9 5.6 -18.4
	c1.6 6 -1.3 11.6 -5.6 12.8
"/>
<path fill="currentColor"
	d="M215.63 78.01c6.50 -5.25 34.91 -5.25 41.41 -0.00
	l0.00 -0.24c-7.74 -7.00 -33.67 -7.00 -41.41 0.24"/>
<path fill="currentColor"
	d="M510.43 90.01c2.38 -4.77 12.73 -4.77 15.11 -0.00
	l0.00 -0.22c-2.83 -6.56 -12.28 -6.56 -15.11 0.22"/>
<path fill="currentColor"
	d="M532.53 90.01c2.84 -4.82 15.18 -4.82 18.02 -0.00
	l0.00 -0.22c-3.38 -6.61 -14.64 -6.61 -18.02 0.22"/>
<path fill="currentColor"
	d="M554.03 90.01c2.91 -4.83 15.59 -4.83 18.50 -0.00
	l0.00 -0.22c-3.47 -6.61 -15.03 -6.61 -18.50 0.22"/>
<path fill="currentColor"
	d="M633.93 97.01c5.54 -5.13 29.65 -5.13 35.20 -0.00
	l0.00 -0.24c-6.60 -6.90 -28.60 -6.90 -35.20 0.24"/>
</g>
</svg>
