<?xml version="1.0" standalone="no"?>
<!DOCTYPE svg PUBLIC "-//W3C//DTD SVG 1.1//EN"
	"http://www.w3.org/Graphics/SVG/1.1/DTD/svg11.dtd">
<svg xmlns="http://www.w3.org/2000/svg" version="1.1"
	xmlns:xlink="http://www.w3.org/1999/xlink"
	xml:space='preserve' color="black"
	width="7.38in" height="1.58in" viewBox="0 0 531 114">
<title>5362.abc (5362) tune 1</title>
<!-- Creator: abcm2ps-7.8.14 -->
<!-- CreationDate: Mar 13, 2016 18:54 -->
<!-- CommandLine: -qxg 5362.abc -O ../svgs/5362.svg -->
<g transform="scale(0.750)" stroke-width="0.70" font-family="Times" font-size="20.00">
<text x="354.13" y="21.67" text-anchor="middle">5362.  Quintet, in A, Op. 146, 1st. Mvt. - 2nd. Theme</text>
</g>
<g transform="scale(0.750)" stroke-width="0.70" font-family="Times" font-size="14.00" font-style="italic">
<text x="694.93" y="45.34" text-anchor="end">Max Reger</text>
</g>
<g transform="scale(0.525)" stroke-width="0.70" font-family="Times" font-size="14.00" font-style="italic">
<defs>
<ellipse id="hd" rx="4.1" ry="2.9"
	transform="rotate(-20)" fill="currentColor"/>
</defs>
<use x="122.76" y="94.16" xlink:href="#hd"/>
<path d="M126.26 94.16v-20.00" stroke="currentColor" fill="none"/>
</g>
<g transform="scale(0.750)" stroke-width="0.70" font-family="Times" font-size="15.00" font-weight="bold">
<text x="93.63" y="68.01">= 120</text>
<path stroke="currentColor" fill="none"
	d="M199.83 129.01v-24.00"/>
<path stroke="currentColor" fill="none"
	d="M359.33 129.01v-24.00"/>
<path stroke="currentColor" fill="none"
	d="M460.93 129.01v-24.00"/>
<path stroke="currentColor" fill="none"
	d="M589.93 129.01v-24.00"/>
<path stroke="currentColor" fill="none"
	d="M694.93 129.01v-24.00"/>
<path stroke="currentColor" fill="none"
	d="M13.33 129.01h681.60m-681.60 -6h681.60m-681.60 -6h681.60m-681.60 -6h681.60m-681.60 -6h681.60"/>
<defs>
<path id="utclef" fill="currentColor" d="m-50 -90
	c-72 -41 -72 -158 52 -188
	c150 -10 220 188 90 256
	c-114 52 -275 0 -293 -136
	c-15 -181 93 -229 220 -334
	c88 -87 79 -133 62 -210
	c-51 33 -94 105 -89 186
	c17 267 36 374 49 574
	c6 96 -19 134 -77 135
	c-80 1 -126 -93 -61 -133
	c85 -41 133 101 31 105
	c23 17 92 37 90 -92
	c-10 -223 -39 -342 -50 -617
	c0 -90 0 -162 96 -232
	c56 72 63 230 22 289
	c-74 106 -257 168 -255 316
	c9 153 148 185 252 133
	c86 -65 29 -192 -80 -176
	c-71 12 -105 67 -59 124"/>
<use id="tclef" transform="scale(0.045)"
	xlink:href="#utclef"/>
</defs>
<use x="25.33" y="129.01" xlink:href="#tclef"/>
<defs>
<path id="usharp" fill="currentColor" d="
	m136 -702
	v890
	h32
	v-890
	m128 840
	h32
	v-888
	h-32
	m-232 286
	v116
	l338 -96
	v-116
	m-338 442
	v116
	l338 -98
	v-114"/>
<use id="sh0" transform="translate(-4,5) scale(0.018)"
	xlink:href="#usharp"/>
</defs>
<use x="40.33" y="105.01" xlink:href="#sh0"/>
<use x="45.83" y="114.01" xlink:href="#sh0"/>
<use x="51.33" y="102.01" xlink:href="#sh0"/>
<g font-family="serif" font-size="16" font-weight="bold" font-style="normal"
	transform="translate(67.33,129.01) scale(1.2,1)">
	<text y="-1" text-anchor="middle">4</text>
	<text y="-13" text-anchor="middle">3</text>
</g>
<defs>
<path id="hl" stroke="currentColor" d="m-6 0h12"/>
</defs>
<use x="85.33" y="99.01" xlink:href="#hl"/>
<use x="85.33" y="93.01" xlink:href="#hl"/>
<use x="85.33" y="87.01" xlink:href="#hl"/>
<use x="85.33" y="81.01" xlink:href="#hl"/>
<use x="85.33" y="78.01" xlink:href="#hd"/>
<path d="M81.83 78.01v39.00" stroke="currentColor" fill="none"/>
<use x="126.23" y="99.01" xlink:href="#hl"/>
<use x="126.23" y="93.01" xlink:href="#hl"/>
<use x="126.23" y="87.01" xlink:href="#hl"/>
<use x="126.23" y="81.01" xlink:href="#hl"/>
<use x="126.23" y="81.01" xlink:href="#hd"/>
<path d="M122.73 81.01v36.00" stroke="currentColor" fill="none"/>
<use x="167.13" y="99.01" xlink:href="#hl"/>
<use x="167.13" y="93.01" xlink:href="#hl"/>
<use x="167.13" y="87.01" xlink:href="#hl"/>
<use x="167.13" y="84.01" xlink:href="#hd"/>
<path d="M163.63 84.01v33.00" stroke="currentColor" fill="none"/>
<use x="214.33" y="99.01" xlink:href="#hl"/>
<use x="214.33" y="93.01" xlink:href="#hl"/>
<use x="214.33" y="87.01" xlink:href="#hl"/>
<use x="214.33" y="84.01" xlink:href="#hd"/>
<path d="M210.83 84.01v33.00" stroke="currentColor" fill="none"/>
<use x="255.13" y="99.01" xlink:href="#hl"/>
<use x="255.13" y="93.01" xlink:href="#hl"/>
<use x="255.13" y="87.01" xlink:href="#hl"/>
<use x="255.13" y="87.01" xlink:href="#hd"/>
<path d="M251.63 87.01v30.00" stroke="currentColor" fill="none"/>
<path fill="currentColor"
	d="M251.63 117.01c0.6 -5.6 9.6 -9 5.6 -18.4
	c1.6 6 -1.3 11.6 -5.6 12.8
"/>
<path fill="currentColor"
	d="M280.23 117.21l52.80 0.00v-3.20l-52.80 -0.00"/>
<use x="284.13" y="99.01" xlink:href="#hl"/>
<use x="284.13" y="93.01" xlink:href="#hl"/>
<use x="284.13" y="90.01" xlink:href="#hd"/>
<use x="275.13" y="90.01" xlink:href="#sh0"/>
<path d="M280.63 90.01v26.20" stroke="currentColor" fill="none"/>
<use x="310.13" y="99.01" xlink:href="#hl"/>
<use x="310.13" y="93.01" xlink:href="#hl"/>
<use x="310.13" y="90.01" xlink:href="#hd"/>
<use x="301.13" y="90.01" xlink:href="#sh0"/>
<path d="M306.63 90.01v26.20" stroke="currentColor" fill="none"/>
<use x="336.13" y="99.01" xlink:href="#hl"/>
<use x="336.13" y="93.01" xlink:href="#hl"/>
<use x="336.13" y="93.01" xlink:href="#hd"/>
<path d="M332.63 93.01v23.20" stroke="currentColor" fill="none"/>
<use x="373.73" y="99.01" xlink:href="#hl"/>
<use x="373.73" y="96.01" xlink:href="#hd"/>
<path d="M370.23 96.01v21.00" stroke="currentColor" fill="none"/>
<defs>
<path id="Hd" fill="currentColor" d="m3 -1.6
	c-1 -1.8 -7 1.4 -6 3.2
	c1 1.8 7 -1.4 6 -3.2
	m0.5 -0.3
	c2 3.8 -5 7.6 -7 3.8
	c-2 -3.8 5 -7.6 7 -3.8"/>
</defs>
<use x="414.63" y="102.01" xlink:href="#Hd"/>
<path d="M411.13 102.01v20.00" stroke="currentColor" fill="none"/>
<use x="475.43" y="99.01" xlink:href="#hl"/>
<use x="475.43" y="93.01" xlink:href="#hl"/>
<use x="475.43" y="93.01" xlink:href="#hd"/>
<path d="M471.93 93.01v24.00" stroke="currentColor" fill="none"/>
<use x="516.33" y="105.01" xlink:href="#hd"/>
<path d="M512.83 105.01v20.00" stroke="currentColor" fill="none"/>
<use x="557.23" y="105.01" xlink:href="#hd"/>
<path d="M553.73 105.01v20.00" stroke="currentColor" fill="none"/>
<use x="604.33" y="99.01" xlink:href="#hl"/>
<use x="604.33" y="96.01" xlink:href="#Hd"/>
<path d="M600.83 96.01v21.00" stroke="currentColor" fill="none"/>
<use x="662.23" y="102.01" xlink:href="#hd"/>
<path d="M658.73 102.01v20.00" stroke="currentColor" fill="none"/>
<path fill="currentColor"
	d="M170.63 82.01c6.32 -5.22 33.85 -5.22 40.17 -0.00
	l0.00 -0.24c-7.53 -6.98 -32.65 -6.98 -40.17 0.24"/>
</g>
</svg>
