<?xml version="1.0" standalone="no"?>
<!DOCTYPE svg PUBLIC "-//W3C//DTD SVG 1.1//EN"
	"http://www.w3.org/Graphics/SVG/1.1/DTD/svg11.dtd">
<svg xmlns="http://www.w3.org/2000/svg" version="1.1"
	xmlns:xlink="http://www.w3.org/1999/xlink"
	xml:space='preserve' color="black"
	width="7.38in" height="1.68in" viewBox="0 0 531 121">
<title>5410.abc (5410) tune 1</title>
<!-- Creator: abcm2ps-7.8.14 -->
<!-- CreationDate: Mar 13, 2016 18:54 -->
<!-- CommandLine: -qxg 5410.abc -O ../svgs/5410.svg -->
<g transform="scale(0.750)" stroke-width="0.70" font-family="Times" font-size="20.00">
<text x="354.13" y="21.67" text-anchor="middle">5410.  Pines of Rome, The Pines of the Villa Borghese, 2nd. Theme</text>
</g>
<g transform="scale(0.750)" stroke-width="0.70" font-family="Times" font-size="14.00" font-style="italic">
<text x="694.93" y="45.34" text-anchor="end">Ottorino Respighi</text>
</g>
<g transform="scale(0.525)" stroke-width="0.70" font-family="Times" font-size="14.00" font-style="italic">
<defs>
<ellipse id="hd" rx="4.1" ry="2.9"
	transform="rotate(-20)" fill="currentColor"/>
</defs>
<use x="89.19" y="94.16" xlink:href="#hd"/>
<path d="M92.69 94.16v-20.00" stroke="currentColor" fill="none"/>
</g>
<g transform="scale(0.750)" stroke-width="0.70" font-family="Times" font-size="15.00" font-weight="bold">
<text x="70.13" y="68.01">= 120</text>
<path stroke="currentColor" fill="none"
	d="M192.83 138.01v-24.00"/>
<path stroke="currentColor" fill="none"
	d="M329.93 138.01v-24.00"/>
<path stroke="currentColor" fill="none"
	d="M416.13 138.01v-24.00"/>
<path stroke="currentColor" fill="none"
	d="M13.33 138.01h402.80m-402.80 -6h402.80m-402.80 -6h402.80m-402.80 -6h402.80m-402.80 -6h402.80"/>
<defs>
<path id="utclef" fill="currentColor" d="m-50 -90
	c-72 -41 -72 -158 52 -188
	c150 -10 220 188 90 256
	c-114 52 -275 0 -293 -136
	c-15 -181 93 -229 220 -334
	c88 -87 79 -133 62 -210
	c-51 33 -94 105 -89 186
	c17 267 36 374 49 574
	c6 96 -19 134 -77 135
	c-80 1 -126 -93 -61 -133
	c85 -41 133 101 31 105
	c23 17 92 37 90 -92
	c-10 -223 -39 -342 -50 -617
	c0 -90 0 -162 96 -232
	c56 72 63 230 22 289
	c-74 106 -257 168 -255 316
	c9 153 148 185 252 133
	c86 -65 29 -192 -80 -176
	c-71 12 -105 67 -59 124"/>
<use id="tclef" transform="scale(0.045)"
	xlink:href="#utclef"/>
</defs>
<use x="25.33" y="138.01" xlink:href="#tclef"/>
<g font-family="serif" font-size="16" font-weight="bold" font-style="normal"
	transform="translate(43.83,138.01) scale(1.2,1)">
	<text y="-1" text-anchor="middle">8</text>
	<text y="-13" text-anchor="middle">3</text>
</g>
<path fill="currentColor"
	d="M58.03 126.21l36.70 0.00v-3.20l-36.70 -0.00"/>
<path fill="currentColor"
	d="M58.33 121.21l36.00 0.00v-3.20l-36.00 -0.00"/>
<defs>
<path id="hl" stroke="currentColor" d="m-6 0h12"/>
</defs>
<use x="61.83" y="108.01" xlink:href="#hl"/>
<use x="61.83" y="102.01" xlink:href="#hl"/>
<use x="61.83" y="96.01" xlink:href="#hl"/>
<use x="61.83" y="90.01" xlink:href="#hl"/>
<use x="61.83" y="84.01" xlink:href="#hl"/>
<use x="61.83" y="78.01" xlink:href="#hl"/>
<use x="61.83" y="78.01" xlink:href="#hd"/>
<path d="M58.33 78.01v47.20" stroke="currentColor" fill="none"/>
<use x="79.83" y="108.01" xlink:href="#hl"/>
<use x="79.83" y="102.01" xlink:href="#hl"/>
<use x="79.83" y="96.01" xlink:href="#hl"/>
<use x="79.83" y="96.01" xlink:href="#hd"/>
<path d="M76.33 96.01v29.20" stroke="currentColor" fill="none"/>
<use x="97.83" y="108.01" xlink:href="#hl"/>
<use x="97.83" y="102.01" xlink:href="#hl"/>
<use x="97.83" y="96.01" xlink:href="#hl"/>
<use x="97.83" y="90.01" xlink:href="#hl"/>
<use x="97.83" y="87.01" xlink:href="#hd"/>
<path d="M94.33 87.01v38.20" stroke="currentColor" fill="none"/>
<path fill="currentColor"
	d="M114.03 126.21l64.40 0.00v-3.20l-64.40 -0.00"/>
<path fill="currentColor"
	d="M114.33 121.21l63.70 0.00v-3.20l-63.70 -0.00"/>
<path fill="currentColor"
	d="M114.33 116.21l63.70 0.00v-3.20l-63.70 -0.00"/>
<use x="117.83" y="108.01" xlink:href="#hl"/>
<use x="117.83" y="102.01" xlink:href="#hl"/>
<use x="117.83" y="96.01" xlink:href="#hl"/>
<use x="117.83" y="90.01" xlink:href="#hl"/>
<use x="117.83" y="84.01" xlink:href="#hl"/>
<use x="117.83" y="81.01" xlink:href="#hd"/>
<path d="M114.33 81.01v44.20" stroke="currentColor" fill="none"/>
<use x="130.53" y="108.01" xlink:href="#hl"/>
<use x="130.53" y="102.01" xlink:href="#hl"/>
<use x="130.53" y="96.01" xlink:href="#hl"/>
<use x="130.53" y="90.01" xlink:href="#hl"/>
<use x="130.53" y="84.01" xlink:href="#hl"/>
<use x="130.53" y="78.01" xlink:href="#hl"/>
<use x="130.53" y="78.01" xlink:href="#hd"/>
<path d="M127.03 78.01v47.20" stroke="currentColor" fill="none"/>
<use x="143.33" y="108.01" xlink:href="#hl"/>
<use x="143.33" y="102.01" xlink:href="#hl"/>
<use x="143.33" y="96.01" xlink:href="#hl"/>
<use x="143.33" y="90.01" xlink:href="#hl"/>
<use x="143.33" y="84.01" xlink:href="#hl"/>
<use x="143.33" y="81.01" xlink:href="#hd"/>
<path d="M139.83 81.01v44.20" stroke="currentColor" fill="none"/>
<use x="156.03" y="108.01" xlink:href="#hl"/>
<use x="156.03" y="102.01" xlink:href="#hl"/>
<use x="156.03" y="96.01" xlink:href="#hl"/>
<use x="156.03" y="90.01" xlink:href="#hl"/>
<use x="156.03" y="84.01" xlink:href="#hl"/>
<use x="156.03" y="78.01" xlink:href="#hl"/>
<use x="156.03" y="78.01" xlink:href="#hd"/>
<path d="M152.53 78.01v47.20" stroke="currentColor" fill="none"/>
<use x="168.73" y="108.01" xlink:href="#hl"/>
<use x="168.73" y="102.01" xlink:href="#hl"/>
<use x="168.73" y="96.01" xlink:href="#hl"/>
<use x="168.73" y="90.01" xlink:href="#hl"/>
<use x="168.73" y="84.01" xlink:href="#hl"/>
<use x="168.73" y="81.01" xlink:href="#hd"/>
<path d="M165.23 81.01v44.20" stroke="currentColor" fill="none"/>
<use x="181.53" y="108.01" xlink:href="#hl"/>
<use x="181.53" y="102.01" xlink:href="#hl"/>
<use x="181.53" y="96.01" xlink:href="#hl"/>
<use x="181.53" y="90.01" xlink:href="#hl"/>
<use x="181.53" y="84.01" xlink:href="#hl"/>
<use x="181.53" y="78.01" xlink:href="#hl"/>
<use x="181.53" y="78.01" xlink:href="#hd"/>
<path d="M178.03 78.01v47.20" stroke="currentColor" fill="none"/>
<path fill="currentColor"
	d="M203.13 126.21l36.70 0.00v-3.20l-36.70 -0.00"/>
<path fill="currentColor"
	d="M203.43 121.21l36.00 0.00v-3.20l-36.00 -0.00"/>
<use x="206.93" y="108.01" xlink:href="#hl"/>
<use x="206.93" y="102.01" xlink:href="#hl"/>
<use x="206.93" y="96.01" xlink:href="#hl"/>
<use x="206.93" y="90.01" xlink:href="#hl"/>
<use x="206.93" y="90.01" xlink:href="#hd"/>
<path d="M203.43 90.01v35.20" stroke="currentColor" fill="none"/>
<use x="224.93" y="108.01" xlink:href="#hl"/>
<use x="224.93" y="102.01" xlink:href="#hl"/>
<use x="224.93" y="96.01" xlink:href="#hl"/>
<use x="224.93" y="90.01" xlink:href="#hl"/>
<use x="224.93" y="84.01" xlink:href="#hl"/>
<use x="224.93" y="81.01" xlink:href="#hd"/>
<path d="M221.43 81.01v44.20" stroke="currentColor" fill="none"/>
<use x="242.93" y="108.01" xlink:href="#hl"/>
<use x="242.93" y="102.01" xlink:href="#hl"/>
<use x="242.93" y="96.01" xlink:href="#hl"/>
<use x="242.93" y="90.01" xlink:href="#hl"/>
<use x="242.93" y="84.01" xlink:href="#hl"/>
<use x="242.93" y="78.01" xlink:href="#hl"/>
<use x="242.93" y="72.01" xlink:href="#hl"/>
<use x="242.93" y="72.01" xlink:href="#hd"/>
<path d="M239.43 72.01v53.20" stroke="currentColor" fill="none"/>
<path fill="currentColor"
	d="M259.13 126.21l51.60 0.00v-3.20l-51.60 -0.00"/>
<path fill="currentColor"
	d="M259.43 121.21l50.90 0.00v-3.20l-50.90 -0.00"/>
<path fill="currentColor"
	d="M259.43 116.21l38.20 0.00v-3.20l-38.20 -0.00"/>
<use x="262.93" y="108.01" xlink:href="#hl"/>
<use x="262.93" y="102.01" xlink:href="#hl"/>
<use x="262.93" y="96.01" xlink:href="#hl"/>
<use x="262.93" y="90.01" xlink:href="#hl"/>
<use x="262.93" y="84.01" xlink:href="#hl"/>
<use x="262.93" y="78.01" xlink:href="#hl"/>
<use x="262.93" y="78.01" xlink:href="#hd"/>
<path d="M259.43 78.01v47.20" stroke="currentColor" fill="none"/>
<use x="275.73" y="108.01" xlink:href="#hl"/>
<use x="275.73" y="102.01" xlink:href="#hl"/>
<use x="275.73" y="96.01" xlink:href="#hl"/>
<use x="275.73" y="90.01" xlink:href="#hl"/>
<use x="275.73" y="84.01" xlink:href="#hl"/>
<use x="275.73" y="78.01" xlink:href="#hl"/>
<use x="275.73" y="72.01" xlink:href="#hl"/>
<use x="275.73" y="69.01" xlink:href="#hd"/>
<path d="M272.23 69.01v56.20" stroke="currentColor" fill="none"/>
<use x="288.43" y="108.01" xlink:href="#hl"/>
<use x="288.43" y="102.01" xlink:href="#hl"/>
<use x="288.43" y="96.01" xlink:href="#hl"/>
<use x="288.43" y="90.01" xlink:href="#hl"/>
<use x="288.43" y="84.01" xlink:href="#hl"/>
<use x="288.43" y="78.01" xlink:href="#hl"/>
<use x="288.43" y="78.01" xlink:href="#hd"/>
<path d="M284.93 78.01v47.20" stroke="currentColor" fill="none"/>
<use x="301.13" y="108.01" xlink:href="#hl"/>
<use x="301.13" y="102.01" xlink:href="#hl"/>
<use x="301.13" y="96.01" xlink:href="#hl"/>
<use x="301.13" y="90.01" xlink:href="#hl"/>
<use x="301.13" y="84.01" xlink:href="#hl"/>
<use x="301.13" y="78.01" xlink:href="#hl"/>
<use x="301.13" y="72.01" xlink:href="#hl"/>
<use x="301.13" y="69.01" xlink:href="#hd"/>
<path d="M297.63 69.01v56.20" stroke="currentColor" fill="none"/>
<use x="313.93" y="108.01" xlink:href="#hl"/>
<use x="313.93" y="102.01" xlink:href="#hl"/>
<use x="313.93" y="96.01" xlink:href="#hl"/>
<use x="313.93" y="90.01" xlink:href="#hl"/>
<use x="313.93" y="84.01" xlink:href="#hl"/>
<use x="313.93" y="81.01" xlink:href="#hd"/>
<path d="M310.43 81.01v44.20" stroke="currentColor" fill="none"/>
<path fill="currentColor"
	d="M340.23 126.21l18.70 0.00v-3.20l-18.70 -0.00"/>
<path fill="currentColor"
	d="M346.53 121.21l-6.00 -0.00v-3.20l6.00 0.00"/>
<use x="344.03" y="108.01" xlink:href="#hl"/>
<use x="344.03" y="102.01" xlink:href="#hl"/>
<use x="344.03" y="96.01" xlink:href="#hl"/>
<use x="344.03" y="90.01" xlink:href="#hl"/>
<use x="344.03" y="84.01" xlink:href="#hl"/>
<use x="344.03" y="81.01" xlink:href="#hd"/>
<path d="M340.53 81.01v44.20" stroke="currentColor" fill="none"/>
<use x="362.03" y="108.01" xlink:href="#hl"/>
<use x="362.03" y="102.01" xlink:href="#hl"/>
<use x="362.03" y="96.01" xlink:href="#hl"/>
<use x="362.03" y="90.01" xlink:href="#hl"/>
<use x="362.03" y="84.01" xlink:href="#hl"/>
<use x="362.03" y="78.01" xlink:href="#hl"/>
<use x="362.03" y="72.01" xlink:href="#hl"/>
<use x="362.03" y="72.01" xlink:href="#hd"/>
<path d="M358.53 72.01v53.20" stroke="currentColor" fill="none"/>
<use x="390.33" y="108.01" xlink:href="#hl"/>
<use x="390.33" y="102.01" xlink:href="#hl"/>
<use x="390.33" y="96.01" xlink:href="#hl"/>
<use x="390.33" y="90.01" xlink:href="#hl"/>
<use x="390.33" y="84.01" xlink:href="#hl"/>
<use x="390.33" y="84.01" xlink:href="#hd"/>
<circle fill="currentColor" cx="398.33" cy="81.01" r="1.2"/>
<path d="M386.83 84.01v42.00" stroke="currentColor" fill="none"/>
<path fill="currentColor"
	d="M386.83 126.01c0.6 -5.6 9.6 -9 5.6 -18.4
	c1.6 6 -1.3 11.6 -5.6 12.8
"/>
<path fill="currentColor"
	d="M317.43 79.01c3.65 -4.92 19.50 -4.92 23.15 -0.00
	l0.00 -0.22c-4.34 -6.69 -18.81 -6.69 -23.15 0.22"/>
</g>
</svg>
