<?xml version="1.0" standalone="no"?>
<!DOCTYPE svg PUBLIC "-//W3C//DTD SVG 1.1//EN"
	"http://www.w3.org/Graphics/SVG/1.1/DTD/svg11.dtd">
<svg xmlns="http://www.w3.org/2000/svg" version="1.1"
	xmlns:xlink="http://www.w3.org/1999/xlink"
	xml:space='preserve' color="black"
	width="7.38in" height="1.39in" viewBox="0 0 531 100">
<title>5414.abc (5414) tune 1</title>
<!-- Creator: abcm2ps-7.8.14 -->
<!-- CreationDate: Mar 13, 2016 18:54 -->
<!-- CommandLine: -qxg 5414.abc -O ../svgs/5414.svg -->
<g transform="scale(0.750)" stroke-width="0.70" font-family="Times" font-size="20.00">
<text x="354.13" y="21.67" text-anchor="middle">5414.  Pines of Rome, Pines of the Gianicolo, 2nd. Theme</text>
</g>
<g transform="scale(0.750)" stroke-width="0.70" font-family="Times" font-size="14.00" font-style="italic">
<text x="694.93" y="45.34" text-anchor="end">Ottorino Respighi</text>
</g>
<g transform="scale(0.525)" stroke-width="0.70" font-family="Times" font-size="14.00" font-style="italic">
<defs>
<ellipse id="hd" rx="4.1" ry="2.9"
	transform="rotate(-20)" fill="currentColor"/>
</defs>
<use x="130.61" y="94.16" xlink:href="#hd"/>
<path d="M134.11 94.16v-20.00" stroke="currentColor" fill="none"/>
</g>
<g transform="scale(0.750)" stroke-width="0.70" font-family="Times" font-size="15.00" font-weight="bold">
<text x="99.13" y="68.01">= 120</text>
<path stroke="currentColor" fill="none"
	d="M246.33 110.01v-24.00"/>
<path stroke="currentColor" fill="none"
	d="M379.63 110.01v-24.00"/>
<path stroke="currentColor" fill="none"
	d="M525.63 110.01v-24.00"/>
<path stroke="currentColor" fill="none"
	d="M13.33 110.01h512.30m-512.30 -6h512.30m-512.30 -6h512.30m-512.30 -6h512.30m-512.30 -6h512.30"/>
<defs>
<path id="utclef" fill="currentColor" d="m-50 -90
	c-72 -41 -72 -158 52 -188
	c150 -10 220 188 90 256
	c-114 52 -275 0 -293 -136
	c-15 -181 93 -229 220 -334
	c88 -87 79 -133 62 -210
	c-51 33 -94 105 -89 186
	c17 267 36 374 49 574
	c6 96 -19 134 -77 135
	c-80 1 -126 -93 -61 -133
	c85 -41 133 101 31 105
	c23 17 92 37 90 -92
	c-10 -223 -39 -342 -50 -617
	c0 -90 0 -162 96 -232
	c56 72 63 230 22 289
	c-74 106 -257 168 -255 316
	c9 153 148 185 252 133
	c86 -65 29 -192 -80 -176
	c-71 12 -105 67 -59 124"/>
<use id="tclef" transform="scale(0.045)"
	xlink:href="#utclef"/>
</defs>
<use x="25.33" y="110.01" xlink:href="#tclef"/>
<defs>
<path id="usharp" fill="currentColor" d="
	m136 -702
	v890
	h32
	v-890
	m128 840
	h32
	v-888
	h-32
	m-232 286
	v116
	l338 -96
	v-116
	m-338 442
	v116
	l338 -98
	v-114"/>
<use id="sh0" transform="translate(-4,5) scale(0.018)"
	xlink:href="#usharp"/>
</defs>
<use x="40.33" y="86.01" xlink:href="#sh0"/>
<use x="45.83" y="95.01" xlink:href="#sh0"/>
<use x="51.33" y="83.01" xlink:href="#sh0"/>
<use x="56.83" y="92.01" xlink:href="#sh0"/>
<g font-family="serif" font-size="16" font-weight="bold" font-style="normal"
	transform="translate(72.83,110.01) scale(1.2,1)">
	<text y="-1" text-anchor="middle">4</text>
	<text y="-13" text-anchor="middle">4</text>
</g>
<use x="90.83" y="89.01" xlink:href="#hd"/>
<circle fill="currentColor" cx="98.83" cy="89.01" r="1.2"/>
<path d="M87.33 89.01v20.00" stroke="currentColor" fill="none"/>
<use x="136.33" y="83.01" xlink:href="#hd"/>
<path d="M132.83 83.01v20.00" stroke="currentColor" fill="none"/>
<path fill="currentColor"
	d="M172.53 105.31l18.70 -3.70v-3.20l-18.70 3.70"/>
<path fill="currentColor"
	d="M172.83 100.21l18.00 -3.60v-3.20l-18.00 3.60"/>
<use x="176.33" y="83.01" xlink:href="#hd"/>
<path d="M172.83 83.01v21.20" stroke="currentColor" fill="none"/>
<defs>
<path id="hl" stroke="currentColor" d="m-6 0h12"/>
</defs>
<use x="194.33" y="80.01" xlink:href="#hl"/>
<use x="194.33" y="77.01" xlink:href="#hd"/>
<path d="M190.83 77.01v23.60" stroke="currentColor" fill="none"/>
<use x="214.33" y="80.01" xlink:href="#hl"/>
<use x="214.33" y="74.01" xlink:href="#hl"/>
<use x="214.33" y="68.01" xlink:href="#hl"/>
<use x="214.33" y="68.01" xlink:href="#hd"/>
<path d="M210.83 68.01v30.00" stroke="currentColor" fill="none"/>
<use x="260.53" y="80.01" xlink:href="#hl"/>
<use x="260.53" y="74.01" xlink:href="#hl"/>
<use x="260.53" y="68.01" xlink:href="#hl"/>
<use x="260.53" y="68.01" xlink:href="#hd"/>
<path d="M257.03 68.01v30.00" stroke="currentColor" fill="none"/>
<path fill="currentColor"
	d="M257.03 98.01c0.6 -5.6 9.6 -9 5.6 -18.4
	c1.6 6 -1.3 11.6 -5.6 12.8
"/>
<use x="288.83" y="80.01" xlink:href="#hl"/>
<use x="288.83" y="74.01" xlink:href="#hl"/>
<use x="288.83" y="68.01" xlink:href="#hl"/>
<use x="288.83" y="62.01" xlink:href="#hl"/>
<use x="288.83" y="62.01" xlink:href="#hd"/>
<circle fill="currentColor" cx="296.83" cy="59.01" r="1.2"/>
<path d="M285.33 62.01v36.00" stroke="currentColor" fill="none"/>
<use x="334.33" y="80.01" xlink:href="#hl"/>
<use x="334.33" y="74.01" xlink:href="#hl"/>
<use x="334.33" y="68.01" xlink:href="#hl"/>
<use x="334.33" y="62.01" xlink:href="#hl"/>
<defs>
<path id="Hd" fill="currentColor" d="m3 -1.6
	c-1 -1.8 -7 1.4 -6 3.2
	c1 1.8 7 -1.4 6 -3.2
	m0.5 -0.3
	c2 3.8 -5 7.6 -7 3.8
	c-2 -3.8 5 -7.6 7 -3.8"/>
</defs>
<use x="334.33" y="62.01" xlink:href="#Hd"/>
<defs>
<path id="unat" fill="currentColor" d="
	m96 -750
	h-32
	v716
	l32 -8
	l182 -54
	v282
	h32
	v-706
	l-34 10
	l-180 50
	v-290
	m0 592
	v-190
	l182 -52
	v188"/>
<use id="nt0" transform="translate(-3,5) scale(0.018)"
	xlink:href="#unat"/>
</defs>
<use x="324.33" y="62.01" xlink:href="#nt0"/>
<path d="M330.83 62.01v36.00" stroke="currentColor" fill="none"/>
<path fill="currentColor"
	d="M394.33 98.21l18.70 0.00v-3.20l-18.70 -0.00"/>
<path fill="currentColor"
	d="M394.63 93.21l18.00 0.00v-3.20l-18.00 -0.00"/>
<use x="398.13" y="80.01" xlink:href="#hl"/>
<use x="398.13" y="74.01" xlink:href="#hl"/>
<use x="398.13" y="68.01" xlink:href="#hl"/>
<use x="398.13" y="62.01" xlink:href="#hl"/>
<use x="398.13" y="62.01" xlink:href="#hd"/>
<use x="389.13" y="62.01" xlink:href="#nt0"/>
<path d="M394.63 62.01v35.20" stroke="currentColor" fill="none"/>
<use x="416.13" y="80.01" xlink:href="#hl"/>
<use x="416.13" y="74.01" xlink:href="#hl"/>
<use x="416.13" y="68.01" xlink:href="#hl"/>
<use x="416.13" y="68.01" xlink:href="#hd"/>
<path d="M412.63 68.01v29.20" stroke="currentColor" fill="none"/>
<path fill="currentColor"
	d="M432.33 99.91l18.70 2.30v-3.20l-18.70 -2.30"/>
<path fill="currentColor"
	d="M432.63 95.01l18.00 2.20v-3.20l-18.00 -2.20"/>
<use x="436.13" y="80.01" xlink:href="#hl"/>
<use x="436.13" y="77.01" xlink:href="#hd"/>
<path d="M432.63 77.01v22.00" stroke="currentColor" fill="none"/>
<use x="454.13" y="80.01" xlink:href="#hl"/>
<use x="454.13" y="80.01" xlink:href="#hd"/>
<path d="M450.63 80.01v21.20" stroke="currentColor" fill="none"/>
<use x="474.13" y="83.01" xlink:href="#Hd"/>
<circle fill="currentColor" cx="483.13" cy="83.01" r="1.2"/>
<use x="464.13" y="83.01" xlink:href="#nt0"/>
<path d="M470.63 83.01v20.00" stroke="currentColor" fill="none"/>
<path fill="currentColor"
	d="M139.83 81.01c5.20 -5.09 27.80 -5.09 33.00 -0.00
	l0.00 -0.23c-6.19 -6.86 -26.81 -6.86 -33.00 0.23"/>
<path fill="currentColor"
	d="M217.83 68.01c6.17 -5.20 32.98 -5.20 39.15 -0.00
	l0.00 -0.24c-7.34 -6.97 -31.81 -6.97 -39.15 0.24"/>
<path fill="currentColor"
	d="M337.83 62.01c8.51 -5.52 48.27 -5.52 56.78 -0.00
	l0.00 -0.26c-10.22 -7.27 -46.56 -7.27 -56.78 0.26"/>
</g>
</svg>
