<?xml version="1.0" standalone="no"?>
<!DOCTYPE svg PUBLIC "-//W3C//DTD SVG 1.1//EN"
	"http://www.w3.org/Graphics/SVG/1.1/DTD/svg11.dtd">
<svg xmlns="http://www.w3.org/2000/svg" version="1.1"
	xmlns:xlink="http://www.w3.org/1999/xlink"
	xml:space='preserve' color="black"
	width="7.38in" height="1.51in" viewBox="0 0 531 109">
<title>5433.abc (5433) tune 1</title>
<!-- Creator: abcm2ps-7.8.14 -->
<!-- CreationDate: Mar 13, 2016 18:54 -->
<!-- CommandLine: -qxg 5433.abc -O ../svgs/5433.svg -->
<g transform="scale(0.750)" stroke-width="0.70" font-family="Times" font-size="20.00">
<text x="354.13" y="21.67" text-anchor="middle">5433.  Sigurd, Overture, 3rd. Theme</text>
</g>
<g transform="scale(0.750)" stroke-width="0.70" font-family="Times" font-size="14.00" font-style="italic">
<text x="694.93" y="45.34" text-anchor="end">Ernest Reyer</text>
</g>
<g transform="scale(0.525)" stroke-width="0.70" font-family="Times" font-size="14.00" font-style="italic">
<defs>
<ellipse id="hd" rx="4.1" ry="2.9"
	transform="rotate(-20)" fill="currentColor"/>
</defs>
<use x="139.19" y="94.16" xlink:href="#hd"/>
<path d="M142.69 94.16v-20.00" stroke="currentColor" fill="none"/>
</g>
<g transform="scale(0.750)" stroke-width="0.70" font-family="Times" font-size="15.00" font-weight="bold">
<text x="105.13" y="68.01">= 120</text>
<path stroke="currentColor" fill="none"
	d="M213.73 122.01v-24.00"/>
<path stroke="currentColor" fill="none"
	d="M357.53 122.01v-24.00"/>
<path stroke="currentColor" fill="none"
	d="M525.63 122.01v-24.00"/>
<path stroke="currentColor" fill="none"
	d="M648.13 122.01v-24.00"/>
<path stroke="currentColor" fill="none"
	d="M13.33 122.01h681.60m-681.60 -6h681.60m-681.60 -6h681.60m-681.60 -6h681.60m-681.60 -6h681.60"/>
<text font-family="serif" font-size="12" font-style="italic" font-weight="normal"
	x="326.43" y="136.31" text-anchor="middle">3</text>
<text font-family="serif" font-size="12" font-style="italic" font-weight="normal"
	x="414.83" y="132.21" text-anchor="middle">3</text>
<text font-family="serif" font-size="12" font-style="italic" font-weight="normal"
	x="494.43" y="127.01" text-anchor="middle">3</text>
<defs>
<path id="utclef" fill="currentColor" d="m-50 -90
	c-72 -41 -72 -158 52 -188
	c150 -10 220 188 90 256
	c-114 52 -275 0 -293 -136
	c-15 -181 93 -229 220 -334
	c88 -87 79 -133 62 -210
	c-51 33 -94 105 -89 186
	c17 267 36 374 49 574
	c6 96 -19 134 -77 135
	c-80 1 -126 -93 -61 -133
	c85 -41 133 101 31 105
	c23 17 92 37 90 -92
	c-10 -223 -39 -342 -50 -617
	c0 -90 0 -162 96 -232
	c56 72 63 230 22 289
	c-74 106 -257 168 -255 316
	c9 153 148 185 252 133
	c86 -65 29 -192 -80 -176
	c-71 12 -105 67 -59 124"/>
<use id="tclef" transform="scale(0.045)"
	xlink:href="#utclef"/>
</defs>
<use x="25.33" y="122.01" xlink:href="#tclef"/>
<defs>
<path id="usharp" fill="currentColor" d="
	m136 -702
	v890
	h32
	v-890
	m128 840
	h32
	v-888
	h-32
	m-232 286
	v116
	l338 -96
	v-116
	m-338 442
	v116
	l338 -98
	v-114"/>
<use id="sh0" transform="translate(-4,5) scale(0.018)"
	xlink:href="#usharp"/>
</defs>
<use x="40.33" y="98.01" xlink:href="#sh0"/>
<use x="45.83" y="107.01" xlink:href="#sh0"/>
<use x="51.33" y="95.01" xlink:href="#sh0"/>
<use x="56.83" y="104.01" xlink:href="#sh0"/>
<use x="62.33" y="113.01" xlink:href="#sh0"/>
<g font-family="serif" font-size="16" font-weight="bold" font-style="normal"
	transform="translate(78.33,122.01) scale(1.2,1)">
	<text y="-1" text-anchor="middle">4</text>
	<text y="-13" text-anchor="middle">4</text>
</g>
<defs>
<path id="hl" stroke="currentColor" d="m-6 0h12"/>
</defs>
<use x="96.83" y="92.01" xlink:href="#hl"/>
<use x="96.83" y="86.01" xlink:href="#hl"/>
<defs>
<path id="Hd" fill="currentColor" d="m3 -1.6
	c-1 -1.8 -7 1.4 -6 3.2
	c1 1.8 7 -1.4 6 -3.2
	m0.5 -0.3
	c2 3.8 -5 7.6 -7 3.8
	c-2 -3.8 5 -7.6 7 -3.8"/>
</defs>
<use x="96.83" y="83.01" xlink:href="#Hd"/>
<path d="M93.33 83.01v27.00" stroke="currentColor" fill="none"/>
<path fill="currentColor"
	d="M136.93 115.51l61.00 4.70v-3.20l-61.00 -4.70"/>
<path fill="currentColor"
	d="M154.33 111.81l6.00 0.50v-3.20l-6.00 -0.50"/>
<path fill="currentColor"
	d="M191.53 114.71l6.00 0.50v-3.20l-6.00 -0.50"/>
<use x="140.73" y="92.01" xlink:href="#hl"/>
<use x="140.73" y="86.01" xlink:href="#hl"/>
<use x="140.73" y="83.01" xlink:href="#hd"/>
<circle fill="currentColor" cx="148.73" cy="83.01" r="1.2"/>
<path d="M137.23 83.01v31.50" stroke="currentColor" fill="none"/>
<use x="163.83" y="92.01" xlink:href="#hl"/>
<use x="163.83" y="89.01" xlink:href="#hd"/>
<path d="M160.33 89.01v27.30" stroke="currentColor" fill="none"/>
<use x="178.13" y="92.01" xlink:href="#hl"/>
<use x="178.13" y="89.01" xlink:href="#hd"/>
<circle fill="currentColor" cx="186.13" cy="89.01" r="1.2"/>
<path d="M174.63 89.01v28.40" stroke="currentColor" fill="none"/>
<use x="201.03" y="98.01" xlink:href="#hd"/>
<path d="M197.53 98.01v21.20" stroke="currentColor" fill="none"/>
<use x="226.73" y="98.01" xlink:href="#Hd"/>
<path d="M223.23 98.01v20.00" stroke="currentColor" fill="none"/>
<use x="270.73" y="98.01" xlink:href="#hd"/>
<path d="M267.23 98.01v20.00" stroke="currentColor" fill="none"/>
<path fill="currentColor"
	d="M267.23 118.01c0.6 -5.6 9.6 -9 5.6 -18.4
	c1.6 6 -1.3 11.6 -5.6 12.8
"/>
<defs>
<path id="r8e" fill="currentColor" d="m 0 0
	c-1.5 1.5 -2.4 2 -3.6 2
	c2.4 -2.8 -2.8 -4 -2.8 -1.2
	c0 2.7 4.3 2.4 5.9 0.6"/>
<g id="r8">
	<path d="m3.3 -4l-3.4 9.6" stroke="currentColor" fill="none"/>
	<use x="3.4" y="-4" xlink:href="#r8e"/>
</g>
</defs>
<use x="290.53" y="110.01" xlink:href="#r8"/>
<path fill="currentColor"
	d="M308.63 123.31l31.80 -5.60v-3.20l-31.80 5.60"/>
<use x="312.43" y="104.01" xlink:href="#hd"/>
<path d="M308.93 104.01v18.20" stroke="currentColor" fill="none"/>
<use x="328.03" y="98.01" xlink:href="#hd"/>
<path d="M324.53 98.01v21.50" stroke="currentColor" fill="none"/>
<use x="343.63" y="92.01" xlink:href="#hl"/>
<use x="343.63" y="89.01" xlink:href="#hd"/>
<path d="M340.13 89.01v27.70" stroke="currentColor" fill="none"/>
<use x="370.03" y="92.01" xlink:href="#hl"/>
<use x="370.03" y="89.01" xlink:href="#hd"/>
<path d="M366.53 89.01v21.00" stroke="currentColor" fill="none"/>
<path fill="currentColor"
	d="M397.03 117.21l31.90 -3.70v-3.20l-31.90 3.70"/>
<use x="400.83" y="98.01" xlink:href="#hd"/>
<path d="M397.33 98.01v18.20" stroke="currentColor" fill="none"/>
<use x="416.43" y="92.01" xlink:href="#hl"/>
<use x="416.43" y="89.01" xlink:href="#hd"/>
<path d="M412.93 89.01v25.40" stroke="currentColor" fill="none"/>
<use x="432.13" y="92.01" xlink:href="#hl"/>
<use x="432.13" y="86.01" xlink:href="#hl"/>
<use x="432.13" y="83.01" xlink:href="#hd"/>
<path d="M428.63 83.01v29.50" stroke="currentColor" fill="none"/>
<use x="449.43" y="92.01" xlink:href="#hl"/>
<use x="449.43" y="86.01" xlink:href="#hl"/>
<use x="449.43" y="83.01" xlink:href="#hd"/>
<path d="M445.93 83.01v27.00" stroke="currentColor" fill="none"/>
<path fill="currentColor"
	d="M476.43 110.21l32.10 0.00v-3.20l-32.10 -0.00"/>
<use x="480.33" y="92.01" xlink:href="#hl"/>
<use x="480.33" y="89.01" xlink:href="#hd"/>
<path d="M476.83 89.01v20.20" stroke="currentColor" fill="none"/>
<use x="496.03" y="92.01" xlink:href="#hl"/>
<use x="496.03" y="86.01" xlink:href="#hl"/>
<use x="496.03" y="83.01" xlink:href="#hd"/>
<path d="M492.53 83.01v26.20" stroke="currentColor" fill="none"/>
<use x="511.63" y="92.01" xlink:href="#hl"/>
<use x="511.63" y="86.01" xlink:href="#hl"/>
<use x="511.63" y="80.01" xlink:href="#hl"/>
<use x="511.63" y="77.01" xlink:href="#hd"/>
<path d="M508.13 77.01v32.20" stroke="currentColor" fill="none"/>
<use x="538.13" y="92.01" xlink:href="#hl"/>
<use x="538.13" y="86.01" xlink:href="#hl"/>
<use x="538.13" y="80.01" xlink:href="#hl"/>
<use x="538.13" y="77.01" xlink:href="#hd"/>
<path d="M534.63 77.01v33.00" stroke="currentColor" fill="none"/>
<use x="568.93" y="92.01" xlink:href="#hl"/>
<use x="568.93" y="86.01" xlink:href="#hl"/>
<use x="568.93" y="80.01" xlink:href="#hl"/>
<use x="568.93" y="74.01" xlink:href="#hl"/>
<use x="568.93" y="68.01" xlink:href="#hl"/>
<use x="568.93" y="62.01" xlink:href="#hl"/>
<use x="568.93" y="62.01" xlink:href="#Hd"/>
<path d="M565.43 62.01v48.00" stroke="currentColor" fill="none"/>
<path fill="currentColor"
	d="M608.53 110.21l23.70 0.00v-3.20l-23.70 -0.00"/>
<path fill="currentColor"
	d="M625.93 105.21l6.00 0.00v-3.20l-6.00 -0.00"/>
<use x="612.33" y="92.01" xlink:href="#hl"/>
<use x="612.33" y="86.01" xlink:href="#hl"/>
<use x="612.33" y="80.01" xlink:href="#hl"/>
<use x="612.33" y="74.01" xlink:href="#hl"/>
<use x="612.33" y="68.01" xlink:href="#hl"/>
<use x="612.33" y="68.01" xlink:href="#hd"/>
<circle fill="currentColor" cx="620.33" cy="65.01" r="1.2"/>
<path d="M608.83 68.01v41.20" stroke="currentColor" fill="none"/>
<use x="635.43" y="92.01" xlink:href="#hl"/>
<use x="635.43" y="86.01" xlink:href="#hl"/>
<use x="635.43" y="80.01" xlink:href="#hl"/>
<use x="635.43" y="77.01" xlink:href="#hd"/>
<path d="M631.93 77.01v32.20" stroke="currentColor" fill="none"/>
<use x="660.63" y="92.01" xlink:href="#hl"/>
<use x="660.63" y="86.01" xlink:href="#hl"/>
<use x="660.63" y="80.01" xlink:href="#hl"/>
<use x="660.63" y="74.01" xlink:href="#hl"/>
<use x="660.63" y="68.01" xlink:href="#hl"/>
<use x="660.63" y="65.01" xlink:href="#hd"/>
<circle fill="currentColor" cx="668.63" cy="65.01" r="1.2"/>
<path d="M657.13 65.01v45.00" stroke="currentColor" fill="none"/>
<path fill="currentColor"
	d="M100.33 81.01c5.82 -5.16 31.12 -5.16 36.94 -0.00
	l0.00 -0.24c-6.93 -6.93 -30.01 -6.93 -36.94 0.24"/>
<path fill="currentColor"
	d="M230.23 98.01c5.82 -5.16 31.12 -5.16 36.94 -0.00
	l0.00 -0.24c-6.93 -6.93 -30.01 -6.93 -36.94 0.24"/>
</g>
</svg>
