<?xml version="1.0" standalone="no"?>
<!DOCTYPE svg PUBLIC "-//W3C//DTD SVG 1.1//EN"
	"http://www.w3.org/Graphics/SVG/1.1/DTD/svg11.dtd">
<svg xmlns="http://www.w3.org/2000/svg" version="1.1"
	xmlns:xlink="http://www.w3.org/1999/xlink"
	xml:space='preserve' color="black"
	width="7.38in" height="1.52in" viewBox="0 0 531 110">
<title>5457.abc (5457) tune 1</title>
<!-- Creator: abcm2ps-7.8.14 -->
<!-- CreationDate: Mar 13, 2016 18:54 -->
<!-- CommandLine: -qxg 5457.abc -O ../svgs/5457.svg -->
<g transform="scale(0.750)" stroke-width="0.70" font-family="Times" font-size="20.00">
<text x="354.13" y="21.67" text-anchor="middle">5457.  Le Coq D&apos;Or, Suite, 2nd. Mvt.</text>
</g>
<g transform="scale(0.750)" stroke-width="0.70" font-family="Times" font-size="14.00" font-style="italic">
<text x="694.93" y="45.34" text-anchor="end">Nicolas Rimsky-Korsakoff</text>
</g>
<g transform="scale(0.525)" stroke-width="0.70" font-family="Times" font-size="14.00" font-style="italic">
<defs>
<ellipse id="hd" rx="4.1" ry="2.9"
	transform="rotate(-20)" fill="currentColor"/>
</defs>
<use x="130.61" y="94.16" xlink:href="#hd"/>
<path d="M134.11 94.16v-20.00" stroke="currentColor" fill="none"/>
</g>
<g transform="scale(0.750)" stroke-width="0.70" font-family="Times" font-size="15.00" font-weight="bold">
<text x="99.13" y="68.01">= 120</text>
<path stroke="currentColor" fill="none"
	d="M220.63 123.01v-24.00"/>
<path stroke="currentColor" fill="none"
	d="M375.93 123.01v-24.00"/>
<path stroke="currentColor" fill="none"
	d="M544.43 123.01v-24.00"/>
<path stroke="currentColor" fill="none"
	d="M694.93 123.01v-24.00"/>
<path stroke="currentColor" fill="none"
	d="M13.33 123.01h681.60m-681.60 -6h681.60m-681.60 -6h681.60m-681.60 -6h681.60m-681.60 -6h681.60"/>
<defs>
<path id="utclef" fill="currentColor" d="m-50 -90
	c-72 -41 -72 -158 52 -188
	c150 -10 220 188 90 256
	c-114 52 -275 0 -293 -136
	c-15 -181 93 -229 220 -334
	c88 -87 79 -133 62 -210
	c-51 33 -94 105 -89 186
	c17 267 36 374 49 574
	c6 96 -19 134 -77 135
	c-80 1 -126 -93 -61 -133
	c85 -41 133 101 31 105
	c23 17 92 37 90 -92
	c-10 -223 -39 -342 -50 -617
	c0 -90 0 -162 96 -232
	c56 72 63 230 22 289
	c-74 106 -257 168 -255 316
	c9 153 148 185 252 133
	c86 -65 29 -192 -80 -176
	c-71 12 -105 67 -59 124"/>
<use id="tclef" transform="scale(0.045)"
	xlink:href="#utclef"/>
</defs>
<use x="25.33" y="123.01" xlink:href="#tclef"/>
<defs>
<path id="uflat" fill="currentColor" d="
	m100 -746
	h32
	v734
	l-32 4
	m32 -332
	c46 -72 152 -90 208 -20
	c100 110 -120 326 -208 348
	m0 -28
	c54 0 200 -206 130 -290
	c-50 -60 -130 -4 -130 34"/>
<use id="ft0" transform="translate(-3.5,3.5) scale(0.018)"
	xlink:href="#uflat"/>
</defs>
<use x="40.33" y="111.01" xlink:href="#ft0"/>
<use x="45.83" y="102.01" xlink:href="#ft0"/>
<use x="51.33" y="114.01" xlink:href="#ft0"/>
<use x="56.83" y="105.01" xlink:href="#ft0"/>
<g font-family="serif" font-size="16" font-weight="bold" font-style="normal"
	transform="translate(72.83,123.01) scale(1.2,1)">
	<text y="-1" text-anchor="middle">4</text>
	<text y="-13" text-anchor="middle">4</text>
</g>
<defs>
<path id="hl" stroke="currentColor" d="m-6 0h12"/>
</defs>
<use x="90.83" y="93.01" xlink:href="#hl"/>
<use x="90.83" y="87.01" xlink:href="#hl"/>
<use x="90.83" y="81.01" xlink:href="#hl"/>
<use x="90.83" y="78.01" xlink:href="#hd"/>
<path d="M87.33 78.01v33.00" stroke="currentColor" fill="none"/>
<use x="120.93" y="93.01" xlink:href="#hl"/>
<use x="120.93" y="87.01" xlink:href="#hl"/>
<use x="120.93" y="81.01" xlink:href="#hl"/>
<use x="120.93" y="78.01" xlink:href="#hd"/>
<path d="M117.43 78.01v33.00" stroke="currentColor" fill="none"/>
<use x="151.03" y="93.01" xlink:href="#hl"/>
<use x="151.03" y="87.01" xlink:href="#hl"/>
<use x="151.03" y="81.01" xlink:href="#hl"/>
<use x="151.03" y="78.01" xlink:href="#hd"/>
<path d="M147.53 78.01v33.00" stroke="currentColor" fill="none"/>
<use x="181.73" y="93.01" xlink:href="#hl"/>
<use x="181.73" y="87.01" xlink:href="#hl"/>
<use x="181.73" y="81.01" xlink:href="#hl"/>
<use x="181.73" y="81.01" xlink:href="#hd"/>
<defs>
<path id="unat" fill="currentColor" d="
	m96 -750
	h-32
	v716
	l32 -8
	l182 -54
	v282
	h32
	v-706
	l-34 10
	l-180 50
	v-290
	m0 592
	v-190
	l182 -52
	v188"/>
<use id="nt0" transform="translate(-3,5) scale(0.018)"
	xlink:href="#unat"/>
</defs>
<use x="172.73" y="81.01" xlink:href="#nt0"/>
<path d="M178.23 81.01v30.00" stroke="currentColor" fill="none"/>
<path fill="currentColor"
	d="M178.23 111.01c0.6 -5.6 9.6 -9 5.6 -18.4
	c1.6 6 -1.3 11.6 -5.6 12.8
"/>
<use x="203.33" y="93.01" xlink:href="#hl"/>
<use x="203.33" y="87.01" xlink:href="#hl"/>
<use x="203.33" y="84.01" xlink:href="#hd"/>
<path d="M199.83 84.01v27.00" stroke="currentColor" fill="none"/>
<path fill="currentColor"
	d="M199.83 111.01c0.6 -5.6 9.6 -9 5.6 -18.4
	c1.6 6 -1.3 11.6 -5.6 12.8
"/>
<use x="233.13" y="93.01" xlink:href="#hl"/>
<use x="233.13" y="87.01" xlink:href="#hl"/>
<use x="233.13" y="87.01" xlink:href="#hd"/>
<path d="M229.63 87.01v24.00" stroke="currentColor" fill="none"/>
<use x="263.23" y="93.01" xlink:href="#hl"/>
<use x="263.23" y="87.01" xlink:href="#hl"/>
<use x="263.23" y="87.01" xlink:href="#hd"/>
<path d="M259.73 87.01v24.00" stroke="currentColor" fill="none"/>
<path fill="currentColor"
	d="M259.73 111.01c0.6 -5.6 9.6 -9 5.6 -18.4
	c1.6 6 -1.3 11.6 -5.6 12.8
"/>
<use x="284.73" y="93.01" xlink:href="#hl"/>
<use x="284.73" y="87.01" xlink:href="#hl"/>
<use x="284.73" y="87.01" xlink:href="#hd"/>
<path d="M281.23 87.01v24.00" stroke="currentColor" fill="none"/>
<path fill="currentColor"
	d="M281.23 111.01c0.6 -5.6 9.6 -9 5.6 -18.4
	c1.6 6 -1.3 11.6 -5.6 12.8
"/>
<use x="306.33" y="93.01" xlink:href="#hl"/>
<use x="306.33" y="87.01" xlink:href="#hl"/>
<use x="306.33" y="87.01" xlink:href="#hd"/>
<path d="M302.83 87.01v24.00" stroke="currentColor" fill="none"/>
<use x="337.03" y="93.01" xlink:href="#hl"/>
<use x="337.03" y="90.01" xlink:href="#hd"/>
<use x="328.03" y="90.01" xlink:href="#nt0"/>
<path d="M333.53 90.01v21.00" stroke="currentColor" fill="none"/>
<path fill="currentColor"
	d="M333.53 111.01c0.6 -5.6 9.6 -9 5.6 -18.4
	c1.6 6 -1.3 11.6 -5.6 12.8
"/>
<use x="358.63" y="93.01" xlink:href="#hl"/>
<use x="358.63" y="93.01" xlink:href="#hd"/>
<path d="M355.13 93.01v20.00" stroke="currentColor" fill="none"/>
<path fill="currentColor"
	d="M355.13 113.01c0.6 -5.6 9.6 -9 5.6 -18.4
	c1.6 6 -1.3 11.6 -5.6 12.8
"/>
<path fill="currentColor"
	d="M384.63 118.91l26.20 0.00v-3.20l-26.20 -0.00"/>
<path fill="currentColor"
	d="M404.43 113.91l6.00 0.00v-3.20l-6.00 -0.00"/>
<use x="388.43" y="96.01" xlink:href="#hd"/>
<circle fill="currentColor" cx="396.43" cy="96.01" r="1.2"/>
<path d="M384.93 96.01v22.00" stroke="currentColor" fill="none"/>
<use x="413.93" y="96.01" xlink:href="#hd"/>
<use x="404.93" y="96.01" xlink:href="#ft0"/>
<path d="M410.43 96.01v22.00" stroke="currentColor" fill="none"/>
<use x="431.93" y="96.01" xlink:href="#hd"/>
<use x="422.93" y="96.01" xlink:href="#nt0"/>
<path d="M428.43 96.01v20.00" stroke="currentColor" fill="none"/>
<path fill="currentColor"
	d="M428.43 116.01c0.6 -5.6 9.6 -9 5.6 -18.4
	c1.6 6 -1.3 11.6 -5.6 12.8
"/>
<use x="453.43" y="93.01" xlink:href="#hl"/>
<use x="453.43" y="93.01" xlink:href="#hd"/>
<path d="M449.93 93.01v20.00" stroke="currentColor" fill="none"/>
<path fill="currentColor"
	d="M449.93 113.01c0.6 -5.6 9.6 -9 5.6 -18.4
	c1.6 6 -1.3 11.6 -5.6 12.8
"/>
<use x="475.63" y="93.01" xlink:href="#hl"/>
<use x="475.63" y="90.01" xlink:href="#hd"/>
<use x="466.63" y="90.01" xlink:href="#ft0"/>
<path d="M472.13 90.01v21.00" stroke="currentColor" fill="none"/>
<use x="505.73" y="93.01" xlink:href="#hl"/>
<use x="505.73" y="93.01" xlink:href="#hd"/>
<path d="M502.23 93.01v20.00" stroke="currentColor" fill="none"/>
<path fill="currentColor"
	d="M502.23 113.01c0.6 -5.6 9.6 -9 5.6 -18.4
	c1.6 6 -1.3 11.6 -5.6 12.8
"/>
<use x="527.13" y="96.01" xlink:href="#hd"/>
<path d="M523.63 96.01v20.00" stroke="currentColor" fill="none"/>
<path fill="currentColor"
	d="M523.63 116.01c0.6 -5.6 9.6 -9 5.6 -18.4
	c1.6 6 -1.3 11.6 -5.6 12.8
"/>
<path fill="currentColor"
	d="M553.13 121.71l26.20 2.50v-3.20l-26.20 -2.50"/>
<path fill="currentColor"
	d="M572.93 118.61l6.00 0.60v-3.20l-6.00 -0.60"/>
<use x="556.93" y="99.01" xlink:href="#hd"/>
<circle fill="currentColor" cx="564.93" cy="96.01" r="1.2"/>
<path d="M553.43 99.01v21.80" stroke="currentColor" fill="none"/>
<use x="582.43" y="102.01" xlink:href="#hd"/>
<use x="573.43" y="102.01" xlink:href="#nt0"/>
<path d="M578.93 102.01v21.20" stroke="currentColor" fill="none"/>
<use x="597.83" y="99.01" xlink:href="#hd"/>
<path d="M594.33 99.01v20.00" stroke="currentColor" fill="none"/>
<path fill="currentColor"
	d="M594.33 119.01c0.6 -5.6 9.6 -9 5.6 -18.4
	c1.6 6 -1.3 11.6 -5.6 12.8
"/>
<use x="619.23" y="96.01" xlink:href="#hd"/>
<path d="M615.73 96.01v20.00" stroke="currentColor" fill="none"/>
<path fill="currentColor"
	d="M615.73 116.01c0.6 -5.6 9.6 -9 5.6 -18.4
	c1.6 6 -1.3 11.6 -5.6 12.8
"/>
<use x="640.73" y="93.01" xlink:href="#hl"/>
<use x="640.73" y="93.01" xlink:href="#hd"/>
<path d="M637.23 93.01v20.00" stroke="currentColor" fill="none"/>
<use x="670.73" y="93.01" xlink:href="#hl"/>
<use x="670.73" y="87.01" xlink:href="#hl"/>
<use x="670.73" y="87.01" xlink:href="#hd"/>
<path d="M667.23 87.01v24.00" stroke="currentColor" fill="none"/>
</g>
</svg>
