<?xml version="1.0" standalone="no"?>
<!DOCTYPE svg PUBLIC "-//W3C//DTD SVG 1.1//EN"
	"http://www.w3.org/Graphics/SVG/1.1/DTD/svg11.dtd">
<svg xmlns="http://www.w3.org/2000/svg" version="1.1"
	xmlns:xlink="http://www.w3.org/1999/xlink"
	xml:space='preserve' color="black"
	width="7.38in" height="1.34in" viewBox="0 0 531 97">
<title>5462.abc (5462) tune 1</title>
<!-- Creator: abcm2ps-7.8.14 -->
<!-- CreationDate: Mar 13, 2016 18:54 -->
<!-- CommandLine: -qxg 5462.abc -O ../svgs/5462.svg -->
<g transform="scale(0.750)" stroke-width="0.70" font-family="Times" font-size="20.00">
<text x="354.13" y="21.67" text-anchor="middle">5462.  La Grande Paque Russe, Overture, Op. 36, 1st. Theme</text>
</g>
<g transform="scale(0.750)" stroke-width="0.70" font-family="Times" font-size="14.00" font-style="italic">
<text x="694.93" y="45.34" text-anchor="end">Nicolas Rimsky-Korsakoff</text>
</g>
<g transform="scale(0.525)" stroke-width="0.70" font-family="Times" font-size="14.00" font-style="italic">
<defs>
<ellipse id="hd" rx="4.1" ry="2.9"
	transform="rotate(-20)" fill="currentColor"/>
</defs>
<use x="107.04" y="94.16" xlink:href="#hd"/>
<path d="M110.54 94.16v-20.00" stroke="currentColor" fill="none"/>
</g>
<g transform="scale(0.750)" stroke-width="0.70" font-family="Times" font-size="15.00" font-weight="bold">
<text x="82.63" y="68.01">= 120</text>
<path stroke="currentColor" fill="none"
	d="M325.43 106.01v-24.00"/>
<path stroke="currentColor" fill="none"
	d="M573.43 106.01v-24.00"/>
<path stroke="currentColor" fill="none"
	d="M694.93 106.01v-24.00"/>
<path stroke="currentColor" fill="none"
	d="M13.33 106.01h681.60m-681.60 -6h681.60m-681.60 -6h681.60m-681.60 -6h681.60m-681.60 -6h681.60"/>
<defs>
<path id="utclef" fill="currentColor" d="m-50 -90
	c-72 -41 -72 -158 52 -188
	c150 -10 220 188 90 256
	c-114 52 -275 0 -293 -136
	c-15 -181 93 -229 220 -334
	c88 -87 79 -133 62 -210
	c-51 33 -94 105 -89 186
	c17 267 36 374 49 574
	c6 96 -19 134 -77 135
	c-80 1 -126 -93 -61 -133
	c85 -41 133 101 31 105
	c23 17 92 37 90 -92
	c-10 -223 -39 -342 -50 -617
	c0 -90 0 -162 96 -232
	c56 72 63 230 22 289
	c-74 106 -257 168 -255 316
	c9 153 148 185 252 133
	c86 -65 29 -192 -80 -176
	c-71 12 -105 67 -59 124"/>
<use id="tclef" transform="scale(0.045)"
	xlink:href="#utclef"/>
</defs>
<use x="25.33" y="106.01" xlink:href="#tclef"/>
<defs>
<path id="uflat" fill="currentColor" d="
	m100 -746
	h32
	v734
	l-32 4
	m32 -332
	c46 -72 152 -90 208 -20
	c100 110 -120 326 -208 348
	m0 -28
	c54 0 200 -206 130 -290
	c-50 -60 -130 -4 -130 34"/>
<use id="ft0" transform="translate(-3.5,3.5) scale(0.018)"
	xlink:href="#uflat"/>
</defs>
<use x="40.33" y="94.01" xlink:href="#ft0"/>
<g font-family="serif" font-size="16" font-weight="bold" font-style="normal"
	transform="translate(56.33,106.01) scale(1.2,1)">
	<text y="-1" text-anchor="middle">2</text>
	<text y="-13" text-anchor="middle">5</text>
</g>
<use x="74.33" y="82.01" xlink:href="#hd"/>
<path d="M70.83 82.01v20.00" stroke="currentColor" fill="none"/>
<use x="101.63" y="82.01" xlink:href="#hd"/>
<path d="M98.13 82.01v20.00" stroke="currentColor" fill="none"/>
<use x="128.83" y="82.01" xlink:href="#hd"/>
<path d="M125.33 82.01v20.00" stroke="currentColor" fill="none"/>
<use x="156.13" y="85.01" xlink:href="#hd"/>
<path d="M152.63 85.01v20.00" stroke="currentColor" fill="none"/>
<defs>
<path id="Hd" fill="currentColor" d="m3 -1.6
	c-1 -1.8 -7 1.4 -6 3.2
	c1 1.8 7 -1.4 6 -3.2
	m0.5 -0.3
	c2 3.8 -5 7.6 -7 3.8
	c-2 -3.8 5 -7.6 7 -3.8"/>
</defs>
<use x="183.33" y="88.01" xlink:href="#Hd"/>
<path d="M179.83 88.01v20.00" stroke="currentColor" fill="none"/>
<defs>
<path id="r4" fill="currentColor" d="m-1 -8.5
	l3.6 5.1 -2.1 5.2 2.2 4.3
	c-2.6 -2.3 -5.1 0 -2.4 2.6
	c-4.8 -3 -1.5 -6.9 1.4 -4.1
	l-3.1 -4.5 1.9 -5.1 -1.5 -3.5"/>
</defs>
<use x="221.73" y="94.01" xlink:href="#r4"/>
<use x="249.03" y="82.01" xlink:href="#hd"/>
<path d="M245.53 82.01v20.00" stroke="currentColor" fill="none"/>
<use x="276.23" y="82.01" xlink:href="#hd"/>
<path d="M272.73 82.01v20.00" stroke="currentColor" fill="none"/>
<use x="303.53" y="79.01" xlink:href="#hd"/>
<path d="M300.03 79.01v20.00" stroke="currentColor" fill="none"/>
<defs>
<path id="hl" stroke="currentColor" d="m-6 0h12"/>
</defs>
<use x="338.43" y="76.01" xlink:href="#hl"/>
<use x="338.43" y="76.01" xlink:href="#Hd"/>
<path d="M334.93 76.01v20.00" stroke="currentColor" fill="none"/>
<use x="376.83" y="82.01" xlink:href="#hd"/>
<path d="M373.33 82.01v20.00" stroke="currentColor" fill="none"/>
<use x="404.03" y="82.01" xlink:href="#hd"/>
<path d="M400.53 82.01v20.00" stroke="currentColor" fill="none"/>
<use x="431.33" y="79.01" xlink:href="#Hd"/>
<path d="M427.83 79.01v20.00" stroke="currentColor" fill="none"/>
<use x="469.73" y="82.01" xlink:href="#hd"/>
<path d="M466.23 82.01v20.00" stroke="currentColor" fill="none"/>
<use x="496.93" y="85.01" xlink:href="#hd"/>
<path d="M493.43 85.01v20.00" stroke="currentColor" fill="none"/>
<use x="524.23" y="82.01" xlink:href="#hd"/>
<path d="M520.73 82.01v20.00" stroke="currentColor" fill="none"/>
<use x="551.53" y="85.01" xlink:href="#hd"/>
<path d="M548.03 85.01v20.00" stroke="currentColor" fill="none"/>
<defs>
<path id="HD" fill="currentColor" d="m-2.7 -1.4
	c1.5 -2.8 6.9 0 5.3 2.7
	c-1.5 2.8 -6.9 0 -5.3 -2.7
	m8.3 1.4
	c0 -1.5 -2.2 -3 -5.6 -3
	c-3.4 0 -5.6 1.5 -5.6 3
	c0 1.5 2.2 3 5.6 3
	c3.4 0 5.6 -1.5 5.6 -3"/>
<g id="HDD">
	<use xlink:href="#HD"/>
	<path d="m-6 -4v8m12 0v-8" stroke="currentColor" fill="none"/>
</g>
</defs>
<use x="588.43" y="88.01" xlink:href="#HDD"/>
<use x="664.13" y="88.01" xlink:href="#Hd"/>
<path d="M660.63 88.01v20.00" stroke="currentColor" fill="none"/>
<path fill="currentColor"
	d="M590.93 88.01c10.04 -5.75 59.63 -5.75 69.68 -0.00
	l0.00 -0.27c-12.13 -7.48 -57.54 -7.48 -69.68 0.27"/>
</g>
</svg>
