<?xml version="1.0" standalone="no"?>
<!DOCTYPE svg PUBLIC "-//W3C//DTD SVG 1.1//EN"
	"http://www.w3.org/Graphics/SVG/1.1/DTD/svg11.dtd">
<svg xmlns="http://www.w3.org/2000/svg" version="1.1"
	xmlns:xlink="http://www.w3.org/1999/xlink"
	xml:space='preserve' color="black"
	width="7.38in" height="1.55in" viewBox="0 0 531 112">
<title>5464.abc (5464) tune 1</title>
<!-- Creator: abcm2ps-7.8.14 -->
<!-- CreationDate: Mar 13, 2016 18:54 -->
<!-- CommandLine: -qxg 5464.abc -O ../svgs/5464.svg -->
<g transform="scale(0.750)" stroke-width="0.70" font-family="Times" font-size="20.00">
<text x="354.13" y="21.67" text-anchor="middle">5464.  La Grande Paque Russe, Overture, Op. 36, 3rd. Theme</text>
</g>
<g transform="scale(0.750)" stroke-width="0.70" font-family="Times" font-size="14.00" font-style="italic">
<text x="694.93" y="45.34" text-anchor="end">Nicolas Rimsky-Korsakoff</text>
</g>
<g transform="scale(0.525)" stroke-width="0.70" font-family="Times" font-size="14.00" font-style="italic">
<defs>
<ellipse id="hd" rx="4.1" ry="2.9"
	transform="rotate(-20)" fill="currentColor"/>
</defs>
<use x="107.04" y="94.16" xlink:href="#hd"/>
<path d="M110.54 94.16v-20.00" stroke="currentColor" fill="none"/>
</g>
<g transform="scale(0.750)" stroke-width="0.70" font-family="Times" font-size="15.00" font-weight="bold">
<text x="82.63" y="68.01">= 120</text>
<path stroke="currentColor" fill="none"
	d="M128.73 126.01v-24.00"/>
<path stroke="currentColor" fill="none"
	d="M208.53 126.01v-24.00"/>
<path stroke="currentColor" fill="none"
	d="M288.43 126.01v-24.00"/>
<path stroke="currentColor" fill="none"
	d="M370.33 126.01v-24.00"/>
<path stroke="currentColor" fill="none"
	d="M450.83 126.01v-24.00"/>
<path stroke="currentColor" fill="none"
	d="M534.73 126.01v-24.00"/>
<path stroke="currentColor" fill="none"
	d="M616.23 126.01v-24.00"/>
<path stroke="currentColor" fill="none"
	d="M694.93 126.01v-24.00"/>
<path stroke="currentColor" fill="none"
	d="M13.33 126.01h681.60m-681.60 -6h681.60m-681.60 -6h681.60m-681.60 -6h681.60m-681.60 -6h681.60"/>
<defs>
<path id="utclef" fill="currentColor" d="m-50 -90
	c-72 -41 -72 -158 52 -188
	c150 -10 220 188 90 256
	c-114 52 -275 0 -293 -136
	c-15 -181 93 -229 220 -334
	c88 -87 79 -133 62 -210
	c-51 33 -94 105 -89 186
	c17 267 36 374 49 574
	c6 96 -19 134 -77 135
	c-80 1 -126 -93 -61 -133
	c85 -41 133 101 31 105
	c23 17 92 37 90 -92
	c-10 -223 -39 -342 -50 -617
	c0 -90 0 -162 96 -232
	c56 72 63 230 22 289
	c-74 106 -257 168 -255 316
	c9 153 148 185 252 133
	c86 -65 29 -192 -80 -176
	c-71 12 -105 67 -59 124"/>
<use id="tclef" transform="scale(0.045)"
	xlink:href="#utclef"/>
</defs>
<use x="25.33" y="126.01" xlink:href="#tclef"/>
<defs>
<path id="uflat" fill="currentColor" d="
	m100 -746
	h32
	v734
	l-32 4
	m32 -332
	c46 -72 152 -90 208 -20
	c100 110 -120 326 -208 348
	m0 -28
	c54 0 200 -206 130 -290
	c-50 -60 -130 -4 -130 34"/>
<use id="ft0" transform="translate(-3.5,3.5) scale(0.018)"
	xlink:href="#uflat"/>
</defs>
<use x="40.33" y="114.01" xlink:href="#ft0"/>
<g font-family="serif" font-size="16" font-weight="bold" font-style="normal"
	transform="translate(56.33,126.01) scale(1.2,1)">
	<text y="-1" text-anchor="middle">2</text>
	<text y="-13" text-anchor="middle">2</text>
</g>
<defs>
<path id="r4" fill="currentColor" d="m-1 -8.5
	l3.6 5.1 -2.1 5.2 2.2 4.3
	c-2.6 -2.3 -5.1 0 -2.4 2.6
	c-4.8 -3 -1.5 -6.9 1.4 -4.1
	l-3.1 -4.5 1.9 -5.1 -1.5 -3.5"/>
</defs>
<use x="74.33" y="114.01" xlink:href="#r4"/>
<defs>
<path id="hl" stroke="currentColor" d="m-6 0h12"/>
</defs>
<use x="91.53" y="96.01" xlink:href="#hl"/>
<use x="91.53" y="90.01" xlink:href="#hl"/>
<use x="91.53" y="84.01" xlink:href="#hl"/>
<use x="91.53" y="81.01" xlink:href="#hd"/>
<path d="M88.03 81.01v33.00" stroke="currentColor" fill="none"/>
<use x="109.23" y="96.01" xlink:href="#hl"/>
<use x="109.23" y="90.01" xlink:href="#hl"/>
<use x="109.23" y="84.01" xlink:href="#hl"/>
<use x="109.23" y="78.01" xlink:href="#hl"/>
<defs>
<path id="Hd" fill="currentColor" d="m3 -1.6
	c-1 -1.8 -7 1.4 -6 3.2
	c1 1.8 7 -1.4 6 -3.2
	m0.5 -0.3
	c2 3.8 -5 7.6 -7 3.8
	c-2 -3.8 5 -7.6 7 -3.8"/>
</defs>
<use x="109.23" y="78.01" xlink:href="#Hd"/>
<path d="M105.73 78.01v36.00" stroke="currentColor" fill="none"/>
<use x="141.23" y="96.01" xlink:href="#hl"/>
<use x="141.23" y="90.01" xlink:href="#hl"/>
<use x="141.23" y="84.01" xlink:href="#hl"/>
<use x="141.23" y="81.01" xlink:href="#hd"/>
<path d="M137.73 81.01v33.00" stroke="currentColor" fill="none"/>
<use x="158.83" y="96.01" xlink:href="#hl"/>
<use x="158.83" y="90.01" xlink:href="#hl"/>
<use x="158.83" y="84.01" xlink:href="#hl"/>
<use x="158.83" y="84.01" xlink:href="#hd"/>
<path d="M155.33 84.01v30.00" stroke="currentColor" fill="none"/>
<use x="176.53" y="96.01" xlink:href="#hl"/>
<use x="176.53" y="90.01" xlink:href="#hl"/>
<use x="176.53" y="84.01" xlink:href="#hl"/>
<use x="176.53" y="81.01" xlink:href="#hd"/>
<path d="M173.03 81.01v33.00" stroke="currentColor" fill="none"/>
<use x="194.13" y="96.01" xlink:href="#hl"/>
<use x="194.13" y="90.01" xlink:href="#hl"/>
<use x="194.13" y="84.01" xlink:href="#hl"/>
<use x="194.13" y="84.01" xlink:href="#hd"/>
<path d="M190.63 84.01v30.00" stroke="currentColor" fill="none"/>
<use x="221.03" y="96.01" xlink:href="#hl"/>
<use x="221.03" y="90.01" xlink:href="#hl"/>
<use x="221.03" y="87.01" xlink:href="#hd"/>
<path d="M217.53 87.01v27.00" stroke="currentColor" fill="none"/>
<use x="238.73" y="96.01" xlink:href="#hl"/>
<use x="238.73" y="90.01" xlink:href="#hl"/>
<use x="238.73" y="84.01" xlink:href="#hl"/>
<use x="238.73" y="84.01" xlink:href="#hd"/>
<path d="M235.23 84.01v30.00" stroke="currentColor" fill="none"/>
<use x="256.33" y="96.01" xlink:href="#hl"/>
<use x="256.33" y="90.01" xlink:href="#hl"/>
<use x="256.33" y="87.01" xlink:href="#hd"/>
<path d="M252.83 87.01v27.00" stroke="currentColor" fill="none"/>
<use x="274.03" y="96.01" xlink:href="#hl"/>
<use x="274.03" y="90.01" xlink:href="#hl"/>
<use x="274.03" y="90.01" xlink:href="#hd"/>
<path d="M270.53 90.01v24.00" stroke="currentColor" fill="none"/>
<use x="300.93" y="96.01" xlink:href="#hl"/>
<use x="300.93" y="90.01" xlink:href="#hl"/>
<use x="300.93" y="90.01" xlink:href="#hd"/>
<path d="M297.43 90.01v24.00" stroke="currentColor" fill="none"/>
<use x="318.63" y="96.01" xlink:href="#hl"/>
<use x="318.63" y="90.01" xlink:href="#hl"/>
<use x="318.63" y="87.01" xlink:href="#hd"/>
<path d="M315.13 87.01v27.00" stroke="currentColor" fill="none"/>
<use x="336.23" y="96.01" xlink:href="#hl"/>
<use x="336.23" y="90.01" xlink:href="#hl"/>
<use x="336.23" y="90.01" xlink:href="#hd"/>
<path d="M332.73 90.01v24.00" stroke="currentColor" fill="none"/>
<use x="355.93" y="96.01" xlink:href="#hl"/>
<use x="355.93" y="93.01" xlink:href="#hd"/>
<defs>
<path id="unat" fill="currentColor" d="
	m96 -750
	h-32
	v716
	l32 -8
	l182 -54
	v282
	h32
	v-706
	l-34 10
	l-180 50
	v-290
	m0 592
	v-190
	l182 -52
	v188"/>
<use id="nt0" transform="translate(-3,5) scale(0.018)"
	xlink:href="#unat"/>
</defs>
<use x="346.93" y="93.01" xlink:href="#nt0"/>
<path d="M352.43 93.01v21.00" stroke="currentColor" fill="none"/>
<use x="388.83" y="96.01" xlink:href="#hl"/>
<use x="388.83" y="93.01" xlink:href="#hd"/>
<use x="379.83" y="93.01" xlink:href="#ft0"/>
<path d="M385.33 93.01v21.00" stroke="currentColor" fill="none"/>
<path fill="currentColor"
	d="M385.33 114.01c0.6 -5.6 9.6 -9 5.6 -18.4
	c1.6 6 -1.3 11.6 -5.6 12.8
"/>
<defs>
<path id="r8e" fill="currentColor" d="m 0 0
	c-1.5 1.5 -2.4 2 -3.6 2
	c2.4 -2.8 -2.8 -4 -2.8 -1.2
	c0 2.7 4.3 2.4 5.9 0.6"/>
<g id="r8">
	<path d="m3.3 -4l-3.4 9.6" stroke="currentColor" fill="none"/>
	<use x="3.4" y="-4" xlink:href="#r8e"/>
</g>
</defs>
<use x="400.73" y="114.01" xlink:href="#r8"/>
<use x="413.63" y="96.01" xlink:href="#hl"/>
<use x="413.63" y="90.01" xlink:href="#hl"/>
<use x="413.63" y="90.01" xlink:href="#hd"/>
<path d="M410.13 90.01v24.00" stroke="currentColor" fill="none"/>
<use x="431.33" y="96.01" xlink:href="#hl"/>
<use x="431.33" y="90.01" xlink:href="#hl"/>
<use x="431.33" y="87.01" xlink:href="#Hd"/>
<path d="M427.83 87.01v27.00" stroke="currentColor" fill="none"/>
<use x="463.33" y="96.01" xlink:href="#hl"/>
<use x="463.33" y="90.01" xlink:href="#hl"/>
<use x="463.33" y="90.01" xlink:href="#hd"/>
<path d="M459.83 90.01v24.00" stroke="currentColor" fill="none"/>
<use x="483.03" y="96.01" xlink:href="#hl"/>
<use x="483.03" y="93.01" xlink:href="#hd"/>
<use x="474.03" y="93.01" xlink:href="#nt0"/>
<path d="M479.53 93.01v21.00" stroke="currentColor" fill="none"/>
<use x="500.63" y="96.01" xlink:href="#hl"/>
<use x="500.63" y="90.01" xlink:href="#hl"/>
<use x="500.63" y="90.01" xlink:href="#hd"/>
<path d="M497.13 90.01v24.00" stroke="currentColor" fill="none"/>
<use x="520.33" y="96.01" xlink:href="#hl"/>
<use x="520.33" y="93.01" xlink:href="#hd"/>
<use x="511.33" y="93.01" xlink:href="#nt0"/>
<path d="M516.83 93.01v21.00" stroke="currentColor" fill="none"/>
<use x="547.23" y="96.01" xlink:href="#hl"/>
<use x="547.23" y="96.01" xlink:href="#hd"/>
<path d="M543.73 96.01v20.00" stroke="currentColor" fill="none"/>
<use x="566.93" y="96.01" xlink:href="#hl"/>
<use x="566.93" y="93.01" xlink:href="#hd"/>
<use x="557.93" y="93.01" xlink:href="#ft0"/>
<path d="M563.43 93.01v21.00" stroke="currentColor" fill="none"/>
<use x="584.63" y="96.01" xlink:href="#hl"/>
<use x="584.63" y="96.01" xlink:href="#hd"/>
<path d="M581.13 96.01v20.00" stroke="currentColor" fill="none"/>
<use x="601.83" y="99.01" xlink:href="#hd"/>
<path d="M598.33 99.01v20.00" stroke="currentColor" fill="none"/>
<use x="628.73" y="99.01" xlink:href="#hd"/>
<path d="M625.23 99.01v20.00" stroke="currentColor" fill="none"/>
<use x="646.03" y="96.01" xlink:href="#hl"/>
<use x="646.03" y="96.01" xlink:href="#hd"/>
<path d="M642.53 96.01v20.00" stroke="currentColor" fill="none"/>
<use x="663.23" y="99.01" xlink:href="#hd"/>
<path d="M659.73 99.01v20.00" stroke="currentColor" fill="none"/>
<use x="680.53" y="102.01" xlink:href="#hd"/>
<path d="M677.03 102.01v20.00" stroke="currentColor" fill="none"/>
<path fill="currentColor"
	d="M277.53 90.01c3.14 -4.86 16.78 -4.86 19.92 -0.00
	l0.00 -0.22c-3.74 -6.64 -16.19 -6.64 -19.92 0.22"/>
<path fill="currentColor"
	d="M605.33 97.01c3.14 -4.86 16.78 -4.86 19.92 -0.00
	l0.00 -0.22c-3.74 -6.64 -16.19 -6.64 -19.92 0.22"/>
</g>
</svg>
