<?xml version="1.0" standalone="no"?>
<!DOCTYPE svg PUBLIC "-//W3C//DTD SVG 1.1//EN"
	"http://www.w3.org/Graphics/SVG/1.1/DTD/svg11.dtd">
<svg xmlns="http://www.w3.org/2000/svg" version="1.1"
	xmlns:xlink="http://www.w3.org/1999/xlink"
	xml:space='preserve' color="black"
	width="7.38in" height="1.34in" viewBox="0 0 531 97">
<title>5474.abc (5474) tune 1</title>
<!-- Creator: abcm2ps-7.8.14 -->
<!-- CreationDate: Mar 13, 2016 18:54 -->
<!-- CommandLine: -qxg 5474.abc -O ../svgs/5474.svg -->
<g transform="scale(0.750)" stroke-width="0.70" font-family="Times" font-size="20.00">
<text x="354.13" y="21.67" text-anchor="middle">5474.  Scheherezade, Op. 35, 1st. Mvt. - 1st. Theme</text>
</g>
<g transform="scale(0.750)" stroke-width="0.70" font-family="Times" font-size="14.00" font-style="italic">
<text x="694.93" y="45.34" text-anchor="end">Nicolas Rimsky-Korsakoff</text>
</g>
<g transform="scale(0.525)" stroke-width="0.70" font-family="Times" font-size="14.00" font-style="italic">
<defs>
<ellipse id="hd" rx="4.1" ry="2.9"
	transform="rotate(-20)" fill="currentColor"/>
</defs>
<use x="132.76" y="94.16" xlink:href="#hd"/>
<path d="M136.26 94.16v-20.00" stroke="currentColor" fill="none"/>
</g>
<g transform="scale(0.750)" stroke-width="0.70" font-family="Times" font-size="15.00" font-weight="bold">
<text x="100.63" y="68.01">= 120</text>
<path stroke="currentColor" fill="none"
	d="M242.83 106.01v-24.00"/>
<path stroke="currentColor" fill="none"
	d="M413.73 106.01v-24.00"/>
<path stroke="currentColor" fill="none"
	d="M601.73 106.01v-24.00"/>
<path stroke="currentColor" fill="none"
	d="M13.33 106.01h681.60m-681.60 -6h681.60m-681.60 -6h681.60m-681.60 -6h681.60m-681.60 -6h681.60"/>
<defs>
<path id="utclef" fill="currentColor" d="m-50 -90
	c-72 -41 -72 -158 52 -188
	c150 -10 220 188 90 256
	c-114 52 -275 0 -293 -136
	c-15 -181 93 -229 220 -334
	c88 -87 79 -133 62 -210
	c-51 33 -94 105 -89 186
	c17 267 36 374 49 574
	c6 96 -19 134 -77 135
	c-80 1 -126 -93 -61 -133
	c85 -41 133 101 31 105
	c23 17 92 37 90 -92
	c-10 -223 -39 -342 -50 -617
	c0 -90 0 -162 96 -232
	c56 72 63 230 22 289
	c-74 106 -257 168 -255 316
	c9 153 148 185 252 133
	c86 -65 29 -192 -80 -176
	c-71 12 -105 67 -59 124"/>
<use id="tclef" transform="scale(0.045)"
	xlink:href="#utclef"/>
</defs>
<use x="25.33" y="106.01" xlink:href="#tclef"/>
<defs>
<path id="usharp" fill="currentColor" d="
	m136 -702
	v890
	h32
	v-890
	m128 840
	h32
	v-888
	h-32
	m-232 286
	v116
	l338 -96
	v-116
	m-338 442
	v116
	l338 -98
	v-114"/>
<use id="sh0" transform="translate(-4,5) scale(0.018)"
	xlink:href="#usharp"/>
</defs>
<use x="40.33" y="82.01" xlink:href="#sh0"/>
<use x="45.83" y="91.01" xlink:href="#sh0"/>
<use x="51.33" y="79.01" xlink:href="#sh0"/>
<use x="56.83" y="88.01" xlink:href="#sh0"/>
<g font-family="serif" font-size="16" font-weight="bold" font-style="normal"
	transform="translate(72.83,106.01) scale(1.2,1)">
	<text y="-1" text-anchor="middle">4</text>
	<text y="-13" text-anchor="middle">6</text>
</g>
<defs>
<path id="HD" fill="currentColor" d="m-2.7 -1.4
	c1.5 -2.8 6.9 0 5.3 2.7
	c-1.5 2.8 -6.9 0 -5.3 -2.7
	m8.3 1.4
	c0 -1.5 -2.2 -3 -5.6 -3
	c-3.4 0 -5.6 1.5 -5.6 3
	c0 1.5 2.2 3 5.6 3
	c3.4 0 5.6 -1.5 5.6 -3"/>
</defs>
<use x="93.33" y="85.01" xlink:href="#HD"/>
<use x="171.53" y="85.01" xlink:href="#hd"/>
<path d="M168.03 85.01v20.00" stroke="currentColor" fill="none"/>
<use x="211.13" y="94.01" xlink:href="#hd"/>
<path d="M207.63 94.01v20.00" stroke="currentColor" fill="none"/>
<defs>
<path id="Hd" fill="currentColor" d="m3 -1.6
	c-1 -1.8 -7 1.4 -6 3.2
	c1 1.8 7 -1.4 6 -3.2
	m0.5 -0.3
	c2 3.8 -5 7.6 -7 3.8
	c-2 -3.8 5 -7.6 7 -3.8"/>
</defs>
<use x="262.33" y="88.01" xlink:href="#Hd"/>
<circle fill="currentColor" cx="271.33" cy="85.01" r="1.2"/>
<defs>
<path id="unat" fill="currentColor" d="
	m96 -750
	h-32
	v716
	l32 -8
	l182 -54
	v282
	h32
	v-706
	l-34 10
	l-180 50
	v-290
	m0 592
	v-190
	l182 -52
	v188"/>
<use id="nt0" transform="translate(-3,5) scale(0.018)"
	xlink:href="#unat"/>
</defs>
<use x="252.33" y="88.01" xlink:href="#nt0"/>
<path d="M258.83 88.01v20.00" stroke="currentColor" fill="none"/>
<use x="326.03" y="91.01" xlink:href="#Hd"/>
<path d="M322.53 91.01v20.00" stroke="currentColor" fill="none"/>
<use x="382.13" y="91.01" xlink:href="#hd"/>
<use x="373.13" y="91.01" xlink:href="#nt0"/>
<path d="M378.63 91.01v20.00" stroke="currentColor" fill="none"/>
<use x="436.23" y="91.01" xlink:href="#HD"/>
<use x="424.23" y="91.01" xlink:href="#sh0"/>
<use x="514.43" y="91.01" xlink:href="#hd"/>
<path d="M510.93 91.01v20.00" stroke="currentColor" fill="none"/>
<path fill="currentColor"
	d="M550.23 112.21l25.90 0.00v-3.20l-25.90 -0.00"/>
<use x="554.03" y="91.01" xlink:href="#hd"/>
<use x="545.03" y="91.01" xlink:href="#nt0"/>
<path d="M550.53 91.01v20.20" stroke="currentColor" fill="none"/>
<use x="579.33" y="91.01" xlink:href="#hd"/>
<use x="570.33" y="91.01" xlink:href="#sh0"/>
<path d="M575.83 91.01v20.20" stroke="currentColor" fill="none"/>
<use x="615.73" y="82.01" xlink:href="#hd"/>
<path d="M612.23 82.01v20.00" stroke="currentColor" fill="none"/>
<use x="655.33" y="94.01" xlink:href="#hd"/>
<path d="M651.83 94.01v20.00" stroke="currentColor" fill="none"/>
<path fill="currentColor"
	d="M95.83 83.01c10.32 -5.80 61.87 -5.80 72.19 -0.00
	l0.00 -0.27c-12.49 -7.53 -59.70 -7.53 -72.19 0.27"/>
<path fill="currentColor"
	d="M438.73 89.01c10.32 -5.80 61.87 -5.80 72.19 -0.00
	l0.00 -0.27c-12.49 -7.53 -59.70 -7.53 -72.19 0.27"/>
</g>
</svg>
