<?xml version="1.0" standalone="no"?>
<!DOCTYPE svg PUBLIC "-//W3C//DTD SVG 1.1//EN"
	"http://www.w3.org/Graphics/SVG/1.1/DTD/svg11.dtd">
<svg xmlns="http://www.w3.org/2000/svg" version="1.1"
	xmlns:xlink="http://www.w3.org/1999/xlink"
	xml:space='preserve' color="black"
	width="7.38in" height="1.45in" viewBox="0 0 531 104">
<title>5494.abc (5494) tune 1</title>
<!-- Creator: abcm2ps-7.8.14 -->
<!-- CreationDate: Mar 13, 2016 18:54 -->
<!-- CommandLine: -qxg 5494.abc -O ../svgs/5494.svg -->
<g transform="scale(0.750)" stroke-width="0.70" font-family="Times" font-size="20.00">
<text x="354.13" y="21.67" text-anchor="middle">5494.  Over the Waves, Waltzes, 2nd. Theme</text>
</g>
<g transform="scale(0.750)" stroke-width="0.70" font-family="Times" font-size="14.00" font-style="italic">
<text x="694.93" y="45.34" text-anchor="end">J. Rosas</text>
</g>
<g transform="scale(0.525)" stroke-width="0.70" font-family="Times" font-size="14.00" font-style="italic">
<defs>
<ellipse id="hd" rx="4.1" ry="2.9"
	transform="rotate(-20)" fill="currentColor"/>
</defs>
<use x="107.04" y="94.16" xlink:href="#hd"/>
<path d="M110.54 94.16v-20.00" stroke="currentColor" fill="none"/>
</g>
<g transform="scale(0.750)" stroke-width="0.70" font-family="Times" font-size="15.00" font-weight="bold">
<text x="82.63" y="68.01">= 120</text>
<path stroke="currentColor" fill="none"
	d="M181.03 116.01v-24.00"/>
<path stroke="currentColor" fill="none"
	d="M272.43 116.01v-24.00"/>
<path stroke="currentColor" fill="none"
	d="M323.03 116.01v-24.00"/>
<path stroke="currentColor" fill="none"
	d="M416.33 116.01v-24.00"/>
<path stroke="currentColor" fill="none"
	d="M510.43 116.01v-24.00"/>
<path stroke="currentColor" fill="none"
	d="M603.63 116.01v-24.00"/>
<path stroke="currentColor" fill="none"
	d="M654.23 116.01v-24.00"/>
<path stroke="currentColor" fill="none"
	d="M13.33 116.01h681.60m-681.60 -6h681.60m-681.60 -6h681.60m-681.60 -6h681.60m-681.60 -6h681.60"/>
<defs>
<path id="utclef" fill="currentColor" d="m-50 -90
	c-72 -41 -72 -158 52 -188
	c150 -10 220 188 90 256
	c-114 52 -275 0 -293 -136
	c-15 -181 93 -229 220 -334
	c88 -87 79 -133 62 -210
	c-51 33 -94 105 -89 186
	c17 267 36 374 49 574
	c6 96 -19 134 -77 135
	c-80 1 -126 -93 -61 -133
	c85 -41 133 101 31 105
	c23 17 92 37 90 -92
	c-10 -223 -39 -342 -50 -617
	c0 -90 0 -162 96 -232
	c56 72 63 230 22 289
	c-74 106 -257 168 -255 316
	c9 153 148 185 252 133
	c86 -65 29 -192 -80 -176
	c-71 12 -105 67 -59 124"/>
<use id="tclef" transform="scale(0.045)"
	xlink:href="#utclef"/>
</defs>
<use x="25.33" y="116.01" xlink:href="#tclef"/>
<defs>
<path id="usharp" fill="currentColor" d="
	m136 -702
	v890
	h32
	v-890
	m128 840
	h32
	v-888
	h-32
	m-232 286
	v116
	l338 -96
	v-116
	m-338 442
	v116
	l338 -98
	v-114"/>
<use id="sh0" transform="translate(-4,5) scale(0.018)"
	xlink:href="#usharp"/>
</defs>
<use x="40.33" y="92.01" xlink:href="#sh0"/>
<g font-family="serif" font-size="16" font-weight="bold" font-style="normal"
	transform="translate(56.33,116.01) scale(1.2,1)">
	<text y="-1" text-anchor="middle">4</text>
	<text y="-13" text-anchor="middle">3</text>
</g>
<defs>
<path id="r8e" fill="currentColor" d="m 0 0
	c-1.5 1.5 -2.4 2 -3.6 2
	c2.4 -2.8 -2.8 -4 -2.8 -1.2
	c0 2.7 4.3 2.4 5.9 0.6"/>
<g id="r32">
	<path d="m4.8 -10l-5.5 21.6" stroke="currentColor" fill="none"/>
	<use x="4.9" y="-10" xlink:href="#r8e"/>
	<use x="3.4" y="-4" xlink:href="#r8e"/>
	<use x="1.9" y="2" xlink:href="#r8e"/>
</g>
</defs>
<use x="74.33" y="104.01" xlink:href="#r32"/>
<path fill="currentColor"
	d="M81.23 110.21l26.70 0.00v-3.20l-26.70 -0.00"/>
<path fill="currentColor"
	d="M101.53 105.21l6.00 0.00v-3.20l-6.00 -0.00"/>
<path fill="currentColor"
	d="M101.53 100.21l6.00 0.00v-3.20l-6.00 -0.00"/>
<defs>
<path id="hl" stroke="currentColor" d="m-6 0h12"/>
</defs>
<use x="85.03" y="86.01" xlink:href="#hl"/>
<use x="85.03" y="83.01" xlink:href="#hd"/>
<circle fill="currentColor" cx="93.03" cy="83.01" r="1.2"/>
<path d="M81.53 83.01v26.20" stroke="currentColor" fill="none"/>
<use x="111.03" y="86.01" xlink:href="#hl"/>
<use x="111.03" y="83.01" xlink:href="#hd"/>
<path d="M107.53 83.01v26.20" stroke="currentColor" fill="none"/>
<use x="129.03" y="86.01" xlink:href="#hl"/>
<use x="129.03" y="86.01" xlink:href="#hd"/>
<use x="120.03" y="86.01" xlink:href="#sh0"/>
<path d="M125.53 86.01v20.00" stroke="currentColor" fill="none"/>
<use x="157.93" y="86.01" xlink:href="#hl"/>
<use x="157.93" y="83.01" xlink:href="#hd"/>
<path d="M154.43 83.01v21.00" stroke="currentColor" fill="none"/>
<use x="193.53" y="86.01" xlink:href="#hl"/>
<use x="193.53" y="80.01" xlink:href="#hl"/>
<use x="193.53" y="74.01" xlink:href="#hl"/>
<use x="193.53" y="68.01" xlink:href="#hl"/>
<use x="193.53" y="68.01" xlink:href="#hd"/>
<path d="M190.03 68.01v36.00" stroke="currentColor" fill="none"/>
<use x="222.33" y="86.01" xlink:href="#hl"/>
<use x="222.33" y="80.01" xlink:href="#hl"/>
<use x="222.33" y="74.01" xlink:href="#hl"/>
<use x="222.33" y="71.01" xlink:href="#hd"/>
<circle fill="currentColor" cx="230.33" cy="71.01" r="1.2"/>
<path d="M218.83 71.01v33.00" stroke="currentColor" fill="none"/>
<use x="255.83" y="86.01" xlink:href="#hl"/>
<use x="255.83" y="80.01" xlink:href="#hl"/>
<use x="255.83" y="74.01" xlink:href="#hl"/>
<use x="255.83" y="74.01" xlink:href="#hd"/>
<path d="M252.33 74.01v30.00" stroke="currentColor" fill="none"/>
<path fill="currentColor"
	d="M252.33 104.01c0.6 -5.6 9.6 -9 5.6 -18.4
	c1.6 6 -1.3 11.6 -5.6 12.8
"/>
<use x="285.43" y="86.01" xlink:href="#hl"/>
<use x="285.43" y="80.01" xlink:href="#hl"/>
<use x="285.43" y="74.01" xlink:href="#hl"/>
<use x="285.43" y="68.01" xlink:href="#hl"/>
<defs>
<path id="Hd" fill="currentColor" d="m3 -1.6
	c-1 -1.8 -7 1.4 -6 3.2
	c1 1.8 7 -1.4 6 -3.2
	m0.5 -0.3
	c2 3.8 -5 7.6 -7 3.8
	c-2 -3.8 5 -7.6 7 -3.8"/>
</defs>
<use x="285.43" y="68.01" xlink:href="#Hd"/>
<circle fill="currentColor" cx="294.43" cy="65.01" r="1.2"/>
<path d="M281.93 68.01v36.00" stroke="currentColor" fill="none"/>
<use x="335.53" y="86.01" xlink:href="#hl"/>
<use x="335.53" y="80.01" xlink:href="#hl"/>
<use x="335.53" y="74.01" xlink:href="#hl"/>
<use x="335.53" y="68.01" xlink:href="#hl"/>
<use x="335.53" y="68.01" xlink:href="#hd"/>
<path d="M332.03 68.01v36.00" stroke="currentColor" fill="none"/>
<use x="364.33" y="86.01" xlink:href="#hl"/>
<use x="364.33" y="80.01" xlink:href="#hl"/>
<use x="364.33" y="74.01" xlink:href="#hl"/>
<use x="364.33" y="71.01" xlink:href="#hd"/>
<path d="M360.83 71.01v33.00" stroke="currentColor" fill="none"/>
<use x="393.13" y="86.01" xlink:href="#hl"/>
<use x="393.13" y="80.01" xlink:href="#hl"/>
<use x="393.13" y="74.01" xlink:href="#hl"/>
<use x="393.13" y="74.01" xlink:href="#hd"/>
<path d="M389.63 74.01v30.00" stroke="currentColor" fill="none"/>
<use x="428.83" y="86.01" xlink:href="#hl"/>
<use x="428.83" y="83.01" xlink:href="#hd"/>
<path d="M425.33 83.01v21.00" stroke="currentColor" fill="none"/>
<use x="458.43" y="86.01" xlink:href="#hl"/>
<use x="458.43" y="86.01" xlink:href="#hd"/>
<use x="449.43" y="86.01" xlink:href="#sh0"/>
<path d="M454.93 86.01v20.00" stroke="currentColor" fill="none"/>
<use x="487.23" y="86.01" xlink:href="#hl"/>
<use x="487.23" y="83.01" xlink:href="#hd"/>
<path d="M483.73 83.01v21.00" stroke="currentColor" fill="none"/>
<use x="522.93" y="86.01" xlink:href="#hl"/>
<use x="522.93" y="80.01" xlink:href="#hl"/>
<use x="522.93" y="74.01" xlink:href="#hl"/>
<use x="522.93" y="74.01" xlink:href="#hd"/>
<path d="M519.43 74.01v30.00" stroke="currentColor" fill="none"/>
<use x="551.73" y="86.01" xlink:href="#hl"/>
<use x="551.73" y="80.01" xlink:href="#hl"/>
<use x="551.73" y="77.01" xlink:href="#hd"/>
<path d="M548.23 77.01v27.00" stroke="currentColor" fill="none"/>
<use x="580.53" y="86.01" xlink:href="#hl"/>
<use x="580.53" y="80.01" xlink:href="#hl"/>
<use x="580.53" y="80.01" xlink:href="#hd"/>
<path d="M577.03 80.01v24.00" stroke="currentColor" fill="none"/>
<use x="616.63" y="92.01" xlink:href="#Hd"/>
<circle fill="currentColor" cx="625.63" cy="89.01" r="1.2"/>
<path d="M613.13 92.01v20.00" stroke="currentColor" fill="none"/>
<use x="666.73" y="92.01" xlink:href="#hd"/>
<path d="M663.23 92.01v20.00" stroke="currentColor" fill="none"/>
<path fill="currentColor"
	d="M88.53 81.01c2.99 -4.84 16.01 -4.84 19.00 -0.00
	l0.00 -0.22c-3.56 -6.62 -15.44 -6.62 -19.00 0.22"/>
<path fill="currentColor"
	d="M288.93 62.01c6.73 -5.28 36.35 -5.28 43.08 -0.00
	l0.00 -0.24c-8.02 -7.03 -35.06 -7.03 -43.08 0.24"/>
<path fill="currentColor"
	d="M620.13 86.01c6.73 -5.28 36.35 -5.28 43.08 -0.00
	l0.00 -0.24c-8.02 -7.03 -35.06 -7.03 -43.08 0.24"/>
</g>
</svg>
