<?xml version="1.0" standalone="no"?>
<!DOCTYPE svg PUBLIC "-//W3C//DTD SVG 1.1//EN"
	"http://www.w3.org/Graphics/SVG/1.1/DTD/svg11.dtd">
<svg xmlns="http://www.w3.org/2000/svg" version="1.1"
	xmlns:xlink="http://www.w3.org/1999/xlink"
	xml:space='preserve' color="black"
	width="7.38in" height="1.34in" viewBox="0 0 531 97">
<title>5528.abc (5528) tune 1</title>
<!-- Creator: abcm2ps-7.8.14 -->
<!-- CreationDate: Mar 13, 2016 18:54 -->
<!-- CommandLine: -qxg 5528.abc -O ../svgs/5528.svg -->
<g transform="scale(0.750)" stroke-width="0.70" font-family="Times" font-size="20.00">
<text x="354.13" y="21.67" text-anchor="middle">5528.  William Tell, Overture, 2nd. Theme</text>
</g>
<g transform="scale(0.750)" stroke-width="0.70" font-family="Times" font-size="14.00" font-style="italic">
<text x="694.93" y="45.34" text-anchor="end">Gioacchino Antonio Rossini</text>
</g>
<g transform="scale(0.525)" stroke-width="0.70" font-family="Times" font-size="14.00" font-style="italic">
<defs>
<ellipse id="hd" rx="4.1" ry="2.9"
	transform="rotate(-20)" fill="currentColor"/>
</defs>
<use x="130.61" y="94.16" xlink:href="#hd"/>
<path d="M134.11 94.16v-20.00" stroke="currentColor" fill="none"/>
</g>
<g transform="scale(0.750)" stroke-width="0.70" font-family="Times" font-size="15.00" font-weight="bold">
<text x="99.13" y="68.01">= 120</text>
<path stroke="currentColor" fill="none"
	d="M235.33 106.01v-24.00"/>
<path stroke="currentColor" fill="none"
	d="M384.83 106.01v-24.00"/>
<path stroke="currentColor" fill="none"
	d="M545.43 106.01v-24.00"/>
<path stroke="currentColor" fill="none"
	d="M694.93 106.01v-24.00"/>
<path stroke="currentColor" fill="none"
	d="M13.33 106.01h681.60m-681.60 -6h681.60m-681.60 -6h681.60m-681.60 -6h681.60m-681.60 -6h681.60"/>
<defs>
<path id="utclef" fill="currentColor" d="m-50 -90
	c-72 -41 -72 -158 52 -188
	c150 -10 220 188 90 256
	c-114 52 -275 0 -293 -136
	c-15 -181 93 -229 220 -334
	c88 -87 79 -133 62 -210
	c-51 33 -94 105 -89 186
	c17 267 36 374 49 574
	c6 96 -19 134 -77 135
	c-80 1 -126 -93 -61 -133
	c85 -41 133 101 31 105
	c23 17 92 37 90 -92
	c-10 -223 -39 -342 -50 -617
	c0 -90 0 -162 96 -232
	c56 72 63 230 22 289
	c-74 106 -257 168 -255 316
	c9 153 148 185 252 133
	c86 -65 29 -192 -80 -176
	c-71 12 -105 67 -59 124"/>
<use id="tclef" transform="scale(0.045)"
	xlink:href="#utclef"/>
</defs>
<use x="25.33" y="106.01" xlink:href="#tclef"/>
<defs>
<path id="usharp" fill="currentColor" d="
	m136 -702
	v890
	h32
	v-890
	m128 840
	h32
	v-888
	h-32
	m-232 286
	v116
	l338 -96
	v-116
	m-338 442
	v116
	l338 -98
	v-114"/>
<use id="sh0" transform="translate(-4,5) scale(0.018)"
	xlink:href="#usharp"/>
</defs>
<use x="40.33" y="82.01" xlink:href="#sh0"/>
<use x="45.83" y="91.01" xlink:href="#sh0"/>
<use x="51.33" y="79.01" xlink:href="#sh0"/>
<use x="56.83" y="88.01" xlink:href="#sh0"/>
<g font-family="serif" font-size="16" font-weight="bold" font-style="normal"
	transform="translate(72.83,106.01) scale(1.2,1)">
	<text y="-1" text-anchor="middle">4</text>
	<text y="-13" text-anchor="middle">2</text>
</g>
<path fill="currentColor"
	d="M87.03 114.01l21.20 0.00v-3.20l-21.20 -0.00"/>
<path fill="currentColor"
	d="M87.33 109.01l20.50 0.00v-3.20l-20.50 -0.00"/>
<use x="90.83" y="94.01" xlink:href="#hd"/>
<path d="M87.33 94.01v19.00" stroke="currentColor" fill="none"/>
<use x="111.33" y="94.01" xlink:href="#hd"/>
<path d="M107.83 94.01v19.00" stroke="currentColor" fill="none"/>
<use x="134.03" y="94.01" xlink:href="#hd"/>
<path d="M130.53 94.01v20.00" stroke="currentColor" fill="none"/>
<path fill="currentColor"
	d="M130.53 114.01c0.6 -5.6 9.6 -9 5.6 -18.4
	c1.6 6 -1.3 11.6 -5.6 12.8
"/>
<path fill="currentColor"
	d="M162.43 114.01l21.20 0.00v-3.20l-21.20 -0.00"/>
<path fill="currentColor"
	d="M162.83 109.01l20.50 0.00v-3.20l-20.50 -0.00"/>
<use x="166.33" y="94.01" xlink:href="#hd"/>
<path d="M162.83 94.01v19.00" stroke="currentColor" fill="none"/>
<use x="186.73" y="94.01" xlink:href="#hd"/>
<path d="M183.23 94.01v19.00" stroke="currentColor" fill="none"/>
<use x="209.53" y="94.01" xlink:href="#hd"/>
<path d="M206.03 94.01v20.00" stroke="currentColor" fill="none"/>
<path fill="currentColor"
	d="M206.03 114.01c0.6 -5.6 9.6 -9 5.6 -18.4
	c1.6 6 -1.3 11.6 -5.6 12.8
"/>
<path fill="currentColor"
	d="M247.53 114.01l21.20 0.00v-3.20l-21.20 -0.00"/>
<path fill="currentColor"
	d="M247.93 109.01l20.50 0.00v-3.20l-20.50 -0.00"/>
<use x="251.43" y="94.01" xlink:href="#hd"/>
<path d="M247.93 94.01v19.00" stroke="currentColor" fill="none"/>
<use x="271.93" y="94.01" xlink:href="#hd"/>
<path d="M268.43 94.01v19.00" stroke="currentColor" fill="none"/>
<use x="294.63" y="85.01" xlink:href="#hd"/>
<path d="M291.13 85.01v20.00" stroke="currentColor" fill="none"/>
<path fill="currentColor"
	d="M291.13 105.01c0.6 -5.6 9.6 -9 5.6 -18.4
	c1.6 6 -1.3 11.6 -5.6 12.8
"/>
<use x="326.83" y="82.01" xlink:href="#hd"/>
<path d="M323.33 82.01v20.00" stroke="currentColor" fill="none"/>
<path fill="currentColor"
	d="M323.33 102.01c0.6 -5.6 9.6 -9 5.6 -18.4
	c1.6 6 -1.3 11.6 -5.6 12.8
"/>
<use x="359.03" y="79.01" xlink:href="#hd"/>
<path d="M355.53 79.01v20.00" stroke="currentColor" fill="none"/>
<path fill="currentColor"
	d="M355.53 99.01c0.6 -5.6 9.6 -9 5.6 -18.4
	c1.6 6 -1.3 11.6 -5.6 12.8
"/>
<path fill="currentColor"
	d="M397.13 114.01l21.20 0.00v-3.20l-21.20 -0.00"/>
<path fill="currentColor"
	d="M397.43 109.01l20.50 0.00v-3.20l-20.50 -0.00"/>
<use x="400.93" y="94.01" xlink:href="#hd"/>
<path d="M397.43 94.01v19.00" stroke="currentColor" fill="none"/>
<use x="421.43" y="94.01" xlink:href="#hd"/>
<path d="M417.93 94.01v19.00" stroke="currentColor" fill="none"/>
<use x="444.13" y="94.01" xlink:href="#hd"/>
<path d="M440.63 94.01v20.00" stroke="currentColor" fill="none"/>
<path fill="currentColor"
	d="M440.63 114.01c0.6 -5.6 9.6 -9 5.6 -18.4
	c1.6 6 -1.3 11.6 -5.6 12.8
"/>
<path fill="currentColor"
	d="M472.53 114.01l21.20 0.00v-3.20l-21.20 -0.00"/>
<path fill="currentColor"
	d="M472.93 109.01l20.50 0.00v-3.20l-20.50 -0.00"/>
<use x="476.43" y="94.01" xlink:href="#hd"/>
<path d="M472.93 94.01v19.00" stroke="currentColor" fill="none"/>
<use x="496.83" y="94.01" xlink:href="#hd"/>
<path d="M493.33 94.01v19.00" stroke="currentColor" fill="none"/>
<use x="519.63" y="85.01" xlink:href="#hd"/>
<path d="M516.13 85.01v20.00" stroke="currentColor" fill="none"/>
<path fill="currentColor"
	d="M516.13 105.01c0.6 -5.6 9.6 -9 5.6 -18.4
	c1.6 6 -1.3 11.6 -5.6 12.8
"/>
<path fill="currentColor"
	d="M557.63 102.01l21.20 0.00v-3.20l-21.20 -0.00"/>
<path fill="currentColor"
	d="M558.03 97.01l20.50 0.00v-3.20l-20.50 -0.00"/>
<use x="561.53" y="79.01" xlink:href="#hd"/>
<path d="M558.03 79.01v22.00" stroke="currentColor" fill="none"/>
<use x="582.03" y="79.01" xlink:href="#hd"/>
<path d="M578.53 79.01v22.00" stroke="currentColor" fill="none"/>
<use x="604.73" y="82.01" xlink:href="#hd"/>
<path d="M601.23 82.01v20.00" stroke="currentColor" fill="none"/>
<path fill="currentColor"
	d="M601.23 102.01c0.6 -5.6 9.6 -9 5.6 -18.4
	c1.6 6 -1.3 11.6 -5.6 12.8
"/>
<use x="636.93" y="88.01" xlink:href="#hd"/>
<path d="M633.43 88.01v20.00" stroke="currentColor" fill="none"/>
<path fill="currentColor"
	d="M633.43 108.01c0.6 -5.6 9.6 -9 5.6 -18.4
	c1.6 6 -1.3 11.6 -5.6 12.8
"/>
<use x="669.13" y="94.01" xlink:href="#hd"/>
<path d="M665.63 94.01v20.00" stroke="currentColor" fill="none"/>
<path fill="currentColor"
	d="M665.63 114.01c0.6 -5.6 9.6 -9 5.6 -18.4
	c1.6 6 -1.3 11.6 -5.6 12.8
"/>
</g>
</svg>
