<?xml version="1.0" standalone="no"?>
<!DOCTYPE svg PUBLIC "-//W3C//DTD SVG 1.1//EN"
	"http://www.w3.org/Graphics/SVG/1.1/DTD/svg11.dtd">
<svg xmlns="http://www.w3.org/2000/svg" version="1.1"
	xmlns:xlink="http://www.w3.org/1999/xlink"
	xml:space='preserve' color="black"
	width="7.38in" height="1.52in" viewBox="0 0 531 110">
<title>5603.abc (5603) tune 1</title>
<!-- Creator: abcm2ps-7.8.14 -->
<!-- CreationDate: Mar 13, 2016 18:54 -->
<!-- CommandLine: -qxg 5603.abc -O ../svgs/5603.svg -->
<g transform="scale(0.750)" stroke-width="0.70" font-family="Times" font-size="20.00">
<text x="354.13" y="21.67" text-anchor="middle">5603.  Concerto No. 1, in A Minor, Op. 33, 2nd. Mvt.</text>
</g>
<g transform="scale(0.750)" stroke-width="0.70" font-family="Times" font-size="14.00" font-style="italic">
<text x="694.93" y="45.34" text-anchor="end">Camille Saint-Saens</text>
</g>
<g transform="scale(0.525)" stroke-width="0.70" font-family="Times" font-size="14.00" font-style="italic">
<defs>
<ellipse id="hd" rx="4.1" ry="2.9"
	transform="rotate(-20)" fill="currentColor"/>
</defs>
<use x="114.90" y="94.16" xlink:href="#hd"/>
<path d="M118.40 94.16v-20.00" stroke="currentColor" fill="none"/>
</g>
<g transform="scale(0.750)" stroke-width="0.70" font-family="Times" font-size="15.00" font-weight="bold">
<text x="88.13" y="68.01">= 120</text>
<path stroke="currentColor" fill="none"
	d="M180.03 123.01v-24.00"/>
<path stroke="currentColor" fill="none"
	d="M270.63 123.01v-24.00"/>
<path stroke="currentColor" fill="none"
	d="M380.53 123.01v-24.00"/>
<path stroke="currentColor" fill="none"
	d="M452.23 123.01v-24.00"/>
<path stroke="currentColor" fill="none"
	d="M564.93 123.01v-24.00"/>
<path stroke="currentColor" fill="none"
	d="M655.53 123.01v-24.00"/>
<path stroke="currentColor" fill="none"
	d="M13.33 123.01h681.60m-681.60 -6h681.60m-681.60 -6h681.60m-681.60 -6h681.60m-681.60 -6h681.60"/>
<defs>
<path id="utclef" fill="currentColor" d="m-50 -90
	c-72 -41 -72 -158 52 -188
	c150 -10 220 188 90 256
	c-114 52 -275 0 -293 -136
	c-15 -181 93 -229 220 -334
	c88 -87 79 -133 62 -210
	c-51 33 -94 105 -89 186
	c17 267 36 374 49 574
	c6 96 -19 134 -77 135
	c-80 1 -126 -93 -61 -133
	c85 -41 133 101 31 105
	c23 17 92 37 90 -92
	c-10 -223 -39 -342 -50 -617
	c0 -90 0 -162 96 -232
	c56 72 63 230 22 289
	c-74 106 -257 168 -255 316
	c9 153 148 185 252 133
	c86 -65 29 -192 -80 -176
	c-71 12 -105 67 -59 124"/>
<use id="tclef" transform="scale(0.045)"
	xlink:href="#utclef"/>
</defs>
<use x="25.33" y="123.01" xlink:href="#tclef"/>
<defs>
<path id="uflat" fill="currentColor" d="
	m100 -746
	h32
	v734
	l-32 4
	m32 -332
	c46 -72 152 -90 208 -20
	c100 110 -120 326 -208 348
	m0 -28
	c54 0 200 -206 130 -290
	c-50 -60 -130 -4 -130 34"/>
<use id="ft0" transform="translate(-3.5,3.5) scale(0.018)"
	xlink:href="#uflat"/>
</defs>
<use x="40.33" y="111.01" xlink:href="#ft0"/>
<use x="45.83" y="102.01" xlink:href="#ft0"/>
<g font-family="serif" font-size="16" font-weight="bold" font-style="normal"
	transform="translate(61.83,123.01) scale(1.2,1)">
	<text y="-1" text-anchor="middle">4</text>
	<text y="-13" text-anchor="middle">3</text>
</g>
<defs>
<path id="hl" stroke="currentColor" d="m-6 0h12"/>
</defs>
<use x="79.83" y="93.01" xlink:href="#hl"/>
<use x="79.83" y="87.01" xlink:href="#hl"/>
<use x="79.83" y="81.01" xlink:href="#hl"/>
<use x="79.83" y="78.01" xlink:href="#hd"/>
<path d="M76.33 78.01v33.00" stroke="currentColor" fill="none"/>
<use x="107.73" y="93.01" xlink:href="#hl"/>
<use x="107.73" y="87.01" xlink:href="#hl"/>
<use x="107.73" y="81.01" xlink:href="#hl"/>
<use x="107.73" y="81.01" xlink:href="#hd"/>
<path d="M104.23 81.01v30.00" stroke="currentColor" fill="none"/>
<path fill="currentColor"
	d="M104.23 111.01c0.6 -5.6 9.6 -9 5.6 -18.4
	c1.6 6 -1.3 11.6 -5.6 12.8
"/>
<path fill="currentColor"
	d="M123.83 111.21l36.90 0.00v-3.20l-36.90 -0.00"/>
<use x="127.73" y="93.01" xlink:href="#hl"/>
<use x="127.73" y="87.01" xlink:href="#hl"/>
<use x="127.73" y="81.01" xlink:href="#hl"/>
<use x="127.73" y="78.01" xlink:href="#hd"/>
<path d="M124.23 78.01v32.20" stroke="currentColor" fill="none"/>
<use x="145.83" y="93.01" xlink:href="#hl"/>
<use x="145.83" y="87.01" xlink:href="#hl"/>
<use x="145.83" y="81.01" xlink:href="#hl"/>
<use x="145.83" y="75.01" xlink:href="#hl"/>
<use x="145.83" y="75.01" xlink:href="#hd"/>
<path d="M142.33 75.01v35.20" stroke="currentColor" fill="none"/>
<use x="163.93" y="93.01" xlink:href="#hl"/>
<use x="163.93" y="87.01" xlink:href="#hl"/>
<use x="163.93" y="81.01" xlink:href="#hl"/>
<use x="163.93" y="81.01" xlink:href="#hd"/>
<path d="M160.43 81.01v29.20" stroke="currentColor" fill="none"/>
<use x="192.53" y="93.01" xlink:href="#hl"/>
<use x="192.53" y="87.01" xlink:href="#hl"/>
<use x="192.53" y="81.01" xlink:href="#hl"/>
<use x="192.53" y="75.01" xlink:href="#hl"/>
<use x="192.53" y="75.01" xlink:href="#hd"/>
<path d="M189.03 75.01v36.00" stroke="currentColor" fill="none"/>
<use x="220.43" y="93.01" xlink:href="#hl"/>
<use x="220.43" y="87.01" xlink:href="#hl"/>
<use x="220.43" y="81.01" xlink:href="#hl"/>
<use x="220.43" y="75.01" xlink:href="#hl"/>
<use x="220.43" y="75.01" xlink:href="#hd"/>
<path d="M216.93 75.01v36.00" stroke="currentColor" fill="none"/>
<use x="248.23" y="93.01" xlink:href="#hl"/>
<use x="248.23" y="87.01" xlink:href="#hl"/>
<use x="248.23" y="81.01" xlink:href="#hl"/>
<use x="248.23" y="78.01" xlink:href="#hd"/>
<path d="M244.73 78.01v33.00" stroke="currentColor" fill="none"/>
<use x="283.13" y="93.01" xlink:href="#hl"/>
<use x="283.13" y="87.01" xlink:href="#hl"/>
<use x="283.13" y="84.01" xlink:href="#hd"/>
<path d="M279.63 84.01v27.00" stroke="currentColor" fill="none"/>
<use x="311.03" y="93.01" xlink:href="#hl"/>
<use x="311.03" y="87.01" xlink:href="#hl"/>
<use x="311.03" y="81.01" xlink:href="#hl"/>
<use x="311.03" y="81.01" xlink:href="#hd"/>
<path d="M307.53 81.01v30.00" stroke="currentColor" fill="none"/>
<defs>
<path id="r8e" fill="currentColor" d="m 0 0
	c-1.5 1.5 -2.4 2 -3.6 2
	c2.4 -2.8 -2.8 -4 -2.8 -1.2
	c0 2.7 4.3 2.4 5.9 0.6"/>
<g id="r32">
	<path d="m4.8 -10l-5.5 21.6" stroke="currentColor" fill="none"/>
	<use x="4.9" y="-10" xlink:href="#r8e"/>
	<use x="3.4" y="-4" xlink:href="#r8e"/>
	<use x="1.9" y="2" xlink:href="#r8e"/>
</g>
</defs>
<use x="336.03" y="111.01" xlink:href="#r32"/>
<path fill="currentColor"
	d="M342.53 111.21l18.70 0.00v-3.20l-18.70 -0.00"/>
<path fill="currentColor"
	d="M348.93 106.21l-6.00 -0.00v-3.20l6.00 0.00"/>
<use x="346.43" y="93.01" xlink:href="#hl"/>
<use x="346.43" y="87.01" xlink:href="#hl"/>
<use x="346.43" y="81.01" xlink:href="#hl"/>
<use x="346.43" y="81.01" xlink:href="#hd"/>
<circle fill="currentColor" cx="354.43" cy="78.01" r="1.2"/>
<path d="M342.93 81.01v29.20" stroke="currentColor" fill="none"/>
<use x="364.43" y="93.01" xlink:href="#hl"/>
<use x="364.43" y="87.01" xlink:href="#hl"/>
<use x="364.43" y="84.01" xlink:href="#hd"/>
<path d="M360.93 84.01v26.20" stroke="currentColor" fill="none"/>
<use x="393.03" y="93.01" xlink:href="#hl"/>
<use x="393.03" y="87.01" xlink:href="#hl"/>
<use x="393.03" y="81.01" xlink:href="#hl"/>
<use x="393.03" y="81.01" xlink:href="#hd"/>
<path d="M389.53 81.01v30.00" stroke="currentColor" fill="none"/>
<use x="420.93" y="93.01" xlink:href="#hl"/>
<use x="420.93" y="87.01" xlink:href="#hl"/>
<use x="420.93" y="81.01" xlink:href="#hl"/>
<defs>
<path id="Hd" fill="currentColor" d="m3 -1.6
	c-1 -1.8 -7 1.4 -6 3.2
	c1 1.8 7 -1.4 6 -3.2
	m0.5 -0.3
	c2 3.8 -5 7.6 -7 3.8
	c-2 -3.8 5 -7.6 7 -3.8"/>
</defs>
<use x="420.93" y="81.01" xlink:href="#Hd"/>
<path d="M417.43 81.01v30.00" stroke="currentColor" fill="none"/>
<use x="464.73" y="93.01" xlink:href="#hl"/>
<use x="464.73" y="87.01" xlink:href="#hl"/>
<use x="464.73" y="81.01" xlink:href="#hl"/>
<use x="464.73" y="78.01" xlink:href="#hd"/>
<path d="M461.23 78.01v33.00" stroke="currentColor" fill="none"/>
<use x="492.63" y="93.01" xlink:href="#hl"/>
<use x="492.63" y="87.01" xlink:href="#hl"/>
<use x="492.63" y="81.01" xlink:href="#hl"/>
<use x="492.63" y="81.01" xlink:href="#hd"/>
<path d="M489.13 81.01v30.00" stroke="currentColor" fill="none"/>
<path fill="currentColor"
	d="M489.13 111.01c0.6 -5.6 9.6 -9 5.6 -18.4
	c1.6 6 -1.3 11.6 -5.6 12.8
"/>
<path fill="currentColor"
	d="M508.83 111.21l36.90 0.00v-3.20l-36.90 -0.00"/>
<use x="512.63" y="93.01" xlink:href="#hl"/>
<use x="512.63" y="87.01" xlink:href="#hl"/>
<use x="512.63" y="81.01" xlink:href="#hl"/>
<use x="512.63" y="78.01" xlink:href="#hd"/>
<path d="M509.13 78.01v32.20" stroke="currentColor" fill="none"/>
<use x="530.73" y="93.01" xlink:href="#hl"/>
<use x="530.73" y="87.01" xlink:href="#hl"/>
<use x="530.73" y="81.01" xlink:href="#hl"/>
<use x="530.73" y="75.01" xlink:href="#hl"/>
<use x="530.73" y="75.01" xlink:href="#hd"/>
<path d="M527.23 75.01v35.20" stroke="currentColor" fill="none"/>
<use x="548.83" y="93.01" xlink:href="#hl"/>
<use x="548.83" y="87.01" xlink:href="#hl"/>
<use x="548.83" y="81.01" xlink:href="#hl"/>
<use x="548.83" y="81.01" xlink:href="#hd"/>
<path d="M545.33 81.01v29.20" stroke="currentColor" fill="none"/>
<use x="577.43" y="93.01" xlink:href="#hl"/>
<use x="577.43" y="87.01" xlink:href="#hl"/>
<use x="577.43" y="81.01" xlink:href="#hl"/>
<use x="577.43" y="75.01" xlink:href="#hl"/>
<use x="577.43" y="75.01" xlink:href="#hd"/>
<path d="M573.93 75.01v36.00" stroke="currentColor" fill="none"/>
<use x="605.33" y="93.01" xlink:href="#hl"/>
<use x="605.33" y="87.01" xlink:href="#hl"/>
<use x="605.33" y="81.01" xlink:href="#hl"/>
<use x="605.33" y="75.01" xlink:href="#hl"/>
<use x="605.33" y="75.01" xlink:href="#hd"/>
<path d="M601.83 75.01v36.00" stroke="currentColor" fill="none"/>
<use x="633.13" y="93.01" xlink:href="#hl"/>
<use x="633.13" y="87.01" xlink:href="#hl"/>
<use x="633.13" y="81.01" xlink:href="#hl"/>
<use x="633.13" y="78.01" xlink:href="#hd"/>
<path d="M629.63 78.01v33.00" stroke="currentColor" fill="none"/>
<use x="668.03" y="93.01" xlink:href="#hl"/>
<use x="668.03" y="87.01" xlink:href="#hl"/>
<use x="668.03" y="84.01" xlink:href="#hd"/>
<path d="M664.53 84.01v27.00" stroke="currentColor" fill="none"/>
</g>
</svg>
