<?xml version="1.0" standalone="no"?>
<!DOCTYPE svg PUBLIC "-//W3C//DTD SVG 1.1//EN"
	"http://www.w3.org/Graphics/SVG/1.1/DTD/svg11.dtd">
<svg xmlns="http://www.w3.org/2000/svg" version="1.1"
	xmlns:xlink="http://www.w3.org/1999/xlink"
	xml:space='preserve' color="black"
	width="7.38in" height="1.34in" viewBox="0 0 531 97">
<title>5666.abc (5666) tune 1</title>
<!-- Creator: abcm2ps-7.8.14 -->
<!-- CreationDate: Mar 13, 2016 18:54 -->
<!-- CommandLine: -qxg 5666.abc -O ../svgs/5666.svg -->
<g transform="scale(0.750)" stroke-width="0.70" font-family="Times" font-size="20.00">
<text x="354.13" y="21.67" text-anchor="middle">5666.  Samson et Dalila, Op. 47, Bacchanale, 2nd. Theme A</text>
</g>
<g transform="scale(0.750)" stroke-width="0.70" font-family="Times" font-size="14.00" font-style="italic">
<text x="694.93" y="45.34" text-anchor="end">Camille Saint-Saens</text>
</g>
<g transform="scale(0.525)" stroke-width="0.70" font-family="Times" font-size="14.00" font-style="italic">
<defs>
<ellipse id="hd" rx="4.1" ry="2.9"
	transform="rotate(-20)" fill="currentColor"/>
</defs>
<use x="107.04" y="94.16" xlink:href="#hd"/>
<path d="M110.54 94.16v-20.00" stroke="currentColor" fill="none"/>
</g>
<g transform="scale(0.750)" stroke-width="0.70" font-family="Times" font-size="15.00" font-weight="bold">
<text x="82.63" y="68.01">= 120</text>
<path stroke="currentColor" fill="none"
	d="M179.13 106.01v-24.00"/>
<path stroke="currentColor" fill="none"
	d="M318.43 106.01v-24.00"/>
<path stroke="currentColor" fill="none"
	d="M437.03 106.01v-24.00"/>
<path stroke="currentColor" fill="none"
	d="M576.23 106.01v-24.00"/>
<path stroke="currentColor" fill="none"
	d="M694.93 106.01v-24.00"/>
<path stroke="currentColor" fill="none"
	d="M13.33 106.01h681.60m-681.60 -6h681.60m-681.60 -6h681.60m-681.60 -6h681.60m-681.60 -6h681.60"/>
<defs>
<path id="utclef" fill="currentColor" d="m-50 -90
	c-72 -41 -72 -158 52 -188
	c150 -10 220 188 90 256
	c-114 52 -275 0 -293 -136
	c-15 -181 93 -229 220 -334
	c88 -87 79 -133 62 -210
	c-51 33 -94 105 -89 186
	c17 267 36 374 49 574
	c6 96 -19 134 -77 135
	c-80 1 -126 -93 -61 -133
	c85 -41 133 101 31 105
	c23 17 92 37 90 -92
	c-10 -223 -39 -342 -50 -617
	c0 -90 0 -162 96 -232
	c56 72 63 230 22 289
	c-74 106 -257 168 -255 316
	c9 153 148 185 252 133
	c86 -65 29 -192 -80 -176
	c-71 12 -105 67 -59 124"/>
<use id="tclef" transform="scale(0.045)"
	xlink:href="#utclef"/>
</defs>
<use x="25.33" y="106.01" xlink:href="#tclef"/>
<defs>
<path id="uflat" fill="currentColor" d="
	m100 -746
	h32
	v734
	l-32 4
	m32 -332
	c46 -72 152 -90 208 -20
	c100 110 -120 326 -208 348
	m0 -28
	c54 0 200 -206 130 -290
	c-50 -60 -130 -4 -130 34"/>
<use id="ft0" transform="translate(-3.5,3.5) scale(0.018)"
	xlink:href="#uflat"/>
</defs>
<use x="40.33" y="94.01" xlink:href="#ft0"/>
<g font-family="serif" font-size="16" font-weight="bold" font-style="normal"
	transform="translate(56.33,106.01) scale(1.2,1)">
	<text y="-1" text-anchor="middle">4</text>
	<text y="-13" text-anchor="middle">2</text>
</g>
<use x="74.33" y="88.01" xlink:href="#hd"/>
<path d="M70.83 88.01v20.00" stroke="currentColor" fill="none"/>
<path fill="currentColor"
	d="M70.83 108.01c0.6 -5.6 9.6 -9 5.6 -18.4
	c1.6 6 -1.3 11.6 -5.6 12.8
"/>
<use x="101.93" y="88.01" xlink:href="#hd"/>
<path d="M98.43 88.01v20.00" stroke="currentColor" fill="none"/>
<path fill="currentColor"
	d="M98.43 108.01c0.6 -5.6 9.6 -9 5.6 -18.4
	c1.6 6 -1.3 11.6 -5.6 12.8
"/>
<use x="129.53" y="82.01" xlink:href="#hd"/>
<path d="M126.03 82.01v20.00" stroke="currentColor" fill="none"/>
<path fill="currentColor"
	d="M126.03 102.01c0.6 -5.6 9.6 -9 5.6 -18.4
	c1.6 6 -1.3 11.6 -5.6 12.8
"/>
<use x="157.13" y="82.01" xlink:href="#hd"/>
<path d="M153.63 82.01v20.00" stroke="currentColor" fill="none"/>
<path fill="currentColor"
	d="M153.63 102.01c0.6 -5.6 9.6 -9 5.6 -18.4
	c1.6 6 -1.3 11.6 -5.6 12.8
"/>
<defs>
<path id="r8e" fill="currentColor" d="m 0 0
	c-1.5 1.5 -2.4 2 -3.6 2
	c2.4 -2.8 -2.8 -4 -2.8 -1.2
	c0 2.7 4.3 2.4 5.9 0.6"/>
<g id="r8">
	<path d="m3.3 -4l-3.4 9.6" stroke="currentColor" fill="none"/>
	<use x="3.4" y="-4" xlink:href="#r8e"/>
</g>
</defs>
<use x="193.03" y="94.01" xlink:href="#r8"/>
<path fill="currentColor"
	d="M216.73 107.91l18.20 2.30v-3.20l-18.20 -2.30"/>
<path fill="currentColor"
	d="M217.03 103.01l17.60 2.20v-3.20l-17.60 -2.20"/>
<use x="220.53" y="85.01" xlink:href="#hd"/>
<path d="M217.03 85.01v22.00" stroke="currentColor" fill="none"/>
<use x="238.13" y="88.01" xlink:href="#hd"/>
<path d="M234.63 88.01v21.20" stroke="currentColor" fill="none"/>
<use x="257.63" y="85.01" xlink:href="#hd"/>
<path d="M254.13 85.01v20.00" stroke="currentColor" fill="none"/>
<path fill="currentColor"
	d="M254.13 105.01c0.6 -5.6 9.6 -9 5.6 -18.4
	c1.6 6 -1.3 11.6 -5.6 12.8
"/>
<path fill="currentColor"
	d="M281.33 104.91l18.20 2.30v-3.20l-18.20 -2.30"/>
<path fill="currentColor"
	d="M281.73 100.01l17.60 2.20v-3.20l-17.60 -2.20"/>
<use x="285.23" y="82.01" xlink:href="#hd"/>
<path d="M281.73 82.01v22.00" stroke="currentColor" fill="none"/>
<use x="302.73" y="85.01" xlink:href="#hd"/>
<path d="M299.23 85.01v21.20" stroke="currentColor" fill="none"/>
<use x="332.23" y="88.01" xlink:href="#hd"/>
<path d="M328.73 88.01v20.00" stroke="currentColor" fill="none"/>
<path fill="currentColor"
	d="M328.73 108.01c0.6 -5.6 9.6 -9 5.6 -18.4
	c1.6 6 -1.3 11.6 -5.6 12.8
"/>
<use x="359.83" y="88.01" xlink:href="#hd"/>
<path d="M356.33 88.01v20.00" stroke="currentColor" fill="none"/>
<path fill="currentColor"
	d="M356.33 108.01c0.6 -5.6 9.6 -9 5.6 -18.4
	c1.6 6 -1.3 11.6 -5.6 12.8
"/>
<use x="387.43" y="79.01" xlink:href="#hd"/>
<path d="M383.93 79.01v20.00" stroke="currentColor" fill="none"/>
<path fill="currentColor"
	d="M383.93 99.01c0.6 -5.6 9.6 -9 5.6 -18.4
	c1.6 6 -1.3 11.6 -5.6 12.8
"/>
<use x="414.93" y="79.01" xlink:href="#hd"/>
<path d="M411.43 79.01v20.00" stroke="currentColor" fill="none"/>
<path fill="currentColor"
	d="M411.43 99.01c0.6 -5.6 9.6 -9 5.6 -18.4
	c1.6 6 -1.3 11.6 -5.6 12.8
"/>
<use x="450.83" y="94.01" xlink:href="#r8"/>
<path fill="currentColor"
	d="M474.63 104.91l18.20 2.30v-3.20l-18.20 -2.30"/>
<path fill="currentColor"
	d="M474.93 100.01l17.60 2.20v-3.20l-17.60 -2.20"/>
<use x="478.43" y="82.01" xlink:href="#hd"/>
<path d="M474.93 82.01v22.00" stroke="currentColor" fill="none"/>
<use x="496.03" y="85.01" xlink:href="#hd"/>
<path d="M492.53 85.01v21.20" stroke="currentColor" fill="none"/>
<use x="515.53" y="82.01" xlink:href="#hd"/>
<path d="M512.03 82.01v20.00" stroke="currentColor" fill="none"/>
<path fill="currentColor"
	d="M512.03 102.01c0.6 -5.6 9.6 -9 5.6 -18.4
	c1.6 6 -1.3 11.6 -5.6 12.8
"/>
<path fill="currentColor"
	d="M539.23 101.91l18.20 2.30v-3.20l-18.20 -2.30"/>
<path fill="currentColor"
	d="M539.63 97.01l17.60 2.20v-3.20l-17.60 -2.20"/>
<use x="543.13" y="79.01" xlink:href="#hd"/>
<path d="M539.63 79.01v22.00" stroke="currentColor" fill="none"/>
<use x="560.63" y="82.01" xlink:href="#hd"/>
<path d="M557.13 82.01v21.20" stroke="currentColor" fill="none"/>
<use x="590.13" y="85.01" xlink:href="#hd"/>
<path d="M586.63 85.01v20.00" stroke="currentColor" fill="none"/>
<path fill="currentColor"
	d="M586.63 105.01c0.6 -5.6 9.6 -9 5.6 -18.4
	c1.6 6 -1.3 11.6 -5.6 12.8
"/>
<use x="617.63" y="85.01" xlink:href="#hd"/>
<path d="M614.13 85.01v20.00" stroke="currentColor" fill="none"/>
<path fill="currentColor"
	d="M614.13 105.01c0.6 -5.6 9.6 -9 5.6 -18.4
	c1.6 6 -1.3 11.6 -5.6 12.8
"/>
<defs>
<path id="hl" stroke="currentColor" d="m-6 0h12"/>
</defs>
<use x="645.23" y="76.01" xlink:href="#hl"/>
<use x="645.23" y="76.01" xlink:href="#hd"/>
<path d="M641.73 76.01v20.00" stroke="currentColor" fill="none"/>
<path fill="currentColor"
	d="M641.73 96.01c0.6 -5.6 9.6 -9 5.6 -18.4
	c1.6 6 -1.3 11.6 -5.6 12.8
"/>
<use x="672.83" y="76.01" xlink:href="#hl"/>
<use x="672.83" y="76.01" xlink:href="#hd"/>
<path d="M669.33 76.01v20.00" stroke="currentColor" fill="none"/>
<path fill="currentColor"
	d="M669.33 96.01c0.6 -5.6 9.6 -9 5.6 -18.4
	c1.6 6 -1.3 11.6 -5.6 12.8
"/>
</g>
</svg>
