<?xml version="1.0" standalone="no"?>
<!DOCTYPE svg PUBLIC "-//W3C//DTD SVG 1.1//EN"
	"http://www.w3.org/Graphics/SVG/1.1/DTD/svg11.dtd">
<svg xmlns="http://www.w3.org/2000/svg" version="1.1"
	xmlns:xlink="http://www.w3.org/1999/xlink"
	xml:space='preserve' color="black"
	width="7.38in" height="1.43in" viewBox="0 0 531 103">
<title>5718.abc (5718) tune 1</title>
<!-- Creator: abcm2ps-7.8.14 -->
<!-- CreationDate: Mar 13, 2016 18:54 -->
<!-- CommandLine: -qxg 5718.abc -O ../svgs/5718.svg -->
<g transform="scale(0.750)" stroke-width="0.70" font-family="Times" font-size="20.00">
<text x="354.13" y="21.67" text-anchor="middle">5718.  Symphony No. 3, in C Minor, Op. 78, 2nd. Mvt. - 2nd. Theme</text>
</g>
<g transform="scale(0.750)" stroke-width="0.70" font-family="Times" font-size="14.00" font-style="italic">
<text x="694.93" y="45.34" text-anchor="end">Camille Saint-Saens</text>
</g>
<g transform="scale(0.525)" stroke-width="0.70" font-family="Times" font-size="14.00" font-style="italic">
<defs>
<ellipse id="hd" rx="4.1" ry="2.9"
	transform="rotate(-20)" fill="currentColor"/>
</defs>
<use x="130.61" y="94.16" xlink:href="#hd"/>
<path d="M134.11 94.16v-20.00" stroke="currentColor" fill="none"/>
</g>
<g transform="scale(0.750)" stroke-width="0.70" font-family="Times" font-size="15.00" font-weight="bold">
<text x="99.13" y="68.01">= 120</text>
<path stroke="currentColor" fill="none"
	d="M146.43 114.01v-24.00"/>
<path stroke="currentColor" fill="none"
	d="M214.53 114.01v-24.00"/>
<path stroke="currentColor" fill="none"
	d="M283.43 114.01v-24.00"/>
<path stroke="currentColor" fill="none"
	d="M386.63 114.01v-24.00"/>
<path stroke="currentColor" fill="none"
	d="M454.73 114.01v-24.00"/>
<path stroke="currentColor" fill="none"
	d="M522.83 114.01v-24.00"/>
<path stroke="currentColor" fill="none"
	d="M591.73 114.01v-24.00"/>
<path stroke="currentColor" fill="none"
	d="M694.93 114.01v-24.00"/>
<path stroke="currentColor" fill="none"
	d="M13.33 114.01h681.60m-681.60 -6h681.60m-681.60 -6h681.60m-681.60 -6h681.60m-681.60 -6h681.60"/>
<defs>
<path id="utclef" fill="currentColor" d="m-50 -90
	c-72 -41 -72 -158 52 -188
	c150 -10 220 188 90 256
	c-114 52 -275 0 -293 -136
	c-15 -181 93 -229 220 -334
	c88 -87 79 -133 62 -210
	c-51 33 -94 105 -89 186
	c17 267 36 374 49 574
	c6 96 -19 134 -77 135
	c-80 1 -126 -93 -61 -133
	c85 -41 133 101 31 105
	c23 17 92 37 90 -92
	c-10 -223 -39 -342 -50 -617
	c0 -90 0 -162 96 -232
	c56 72 63 230 22 289
	c-74 106 -257 168 -255 316
	c9 153 148 185 252 133
	c86 -65 29 -192 -80 -176
	c-71 12 -105 67 -59 124"/>
<use id="tclef" transform="scale(0.045)"
	xlink:href="#utclef"/>
</defs>
<use x="25.33" y="114.01" xlink:href="#tclef"/>
<defs>
<path id="uflat" fill="currentColor" d="
	m100 -746
	h32
	v734
	l-32 4
	m32 -332
	c46 -72 152 -90 208 -20
	c100 110 -120 326 -208 348
	m0 -28
	c54 0 200 -206 130 -290
	c-50 -60 -130 -4 -130 34"/>
<use id="ft0" transform="translate(-3.5,3.5) scale(0.018)"
	xlink:href="#uflat"/>
</defs>
<use x="40.33" y="102.01" xlink:href="#ft0"/>
<use x="45.83" y="93.01" xlink:href="#ft0"/>
<use x="51.33" y="105.01" xlink:href="#ft0"/>
<use x="56.83" y="96.01" xlink:href="#ft0"/>
<g font-family="serif" font-size="16" font-weight="bold" font-style="normal"
	transform="translate(72.83,114.01) scale(1.2,1)">
	<text y="-1" text-anchor="middle">4</text>
	<text y="-13" text-anchor="middle">2</text>
</g>
<defs>
<path id="r4" fill="currentColor" d="m-1 -8.5
	l3.6 5.1 -2.1 5.2 2.2 4.3
	c-2.6 -2.3 -5.1 0 -2.4 2.6
	c-4.8 -3 -1.5 -6.9 1.4 -4.1
	l-3.1 -4.5 1.9 -5.1 -1.5 -3.5"/>
</defs>
<use x="90.83" y="102.01" xlink:href="#r4"/>
<defs>
<path id="hl" stroke="currentColor" d="m-6 0h12"/>
</defs>
<use x="121.63" y="84.01" xlink:href="#hl"/>
<use x="121.63" y="78.01" xlink:href="#hl"/>
<use x="121.63" y="78.01" xlink:href="#hd"/>
<path d="M118.13 78.01v24.00" stroke="currentColor" fill="none"/>
<use x="158.93" y="84.01" xlink:href="#hl"/>
<use x="158.93" y="84.01" xlink:href="#hd"/>
<path d="M155.43 84.01v20.00" stroke="currentColor" fill="none"/>
<use x="189.73" y="84.01" xlink:href="#hl"/>
<use x="189.73" y="81.01" xlink:href="#hd"/>
<path d="M186.23 81.01v21.00" stroke="currentColor" fill="none"/>
<use x="227.03" y="84.01" xlink:href="#hl"/>
<use x="227.03" y="78.01" xlink:href="#hl"/>
<use x="227.03" y="75.01" xlink:href="#hd"/>
<path d="M223.53 75.01v27.00" stroke="currentColor" fill="none"/>
<use x="258.63" y="84.01" xlink:href="#hl"/>
<use x="258.63" y="84.01" xlink:href="#hd"/>
<defs>
<path id="unat" fill="currentColor" d="
	m96 -750
	h-32
	v716
	l32 -8
	l182 -54
	v282
	h32
	v-706
	l-34 10
	l-180 50
	v-290
	m0 592
	v-190
	l182 -52
	v188"/>
<use id="nt0" transform="translate(-3,5) scale(0.018)"
	xlink:href="#unat"/>
</defs>
<use x="249.63" y="84.01" xlink:href="#nt0"/>
<path d="M255.13 84.01v20.00" stroke="currentColor" fill="none"/>
<use x="301.93" y="84.01" xlink:href="#hl"/>
<use x="301.93" y="84.01" xlink:href="#hd"/>
<use x="292.93" y="84.01" xlink:href="#nt0"/>
<path d="M298.43 84.01v20.00" stroke="currentColor" fill="none"/>
<path fill="currentColor"
	d="M298.43 104.01c0.6 -5.6 9.6 -9 5.6 -18.4
	c1.6 6 -1.3 11.6 -5.6 12.8
"/>
<use x="324.03" y="84.01" xlink:href="#hl"/>
<use x="324.03" y="78.01" xlink:href="#hl"/>
<use x="324.03" y="78.01" xlink:href="#hd"/>
<path d="M320.53 78.01v24.00" stroke="currentColor" fill="none"/>
<path fill="currentColor"
	d="M320.53 102.01c0.6 -5.6 9.6 -9 5.6 -18.4
	c1.6 6 -1.3 11.6 -5.6 12.8
"/>
<use x="346.73" y="84.01" xlink:href="#hl"/>
<use x="346.73" y="84.01" xlink:href="#hd"/>
<use x="337.73" y="84.01" xlink:href="#nt0"/>
<path d="M343.23 84.01v20.00" stroke="currentColor" fill="none"/>
<path fill="currentColor"
	d="M343.23 104.01c0.6 -5.6 9.6 -9 5.6 -18.4
	c1.6 6 -1.3 11.6 -5.6 12.8
"/>
<use x="368.83" y="84.01" xlink:href="#hl"/>
<use x="368.83" y="81.01" xlink:href="#hd"/>
<path d="M365.33 81.01v21.00" stroke="currentColor" fill="none"/>
<path fill="currentColor"
	d="M365.33 102.01c0.6 -5.6 9.6 -9 5.6 -18.4
	c1.6 6 -1.3 11.6 -5.6 12.8
"/>
<use x="399.13" y="102.01" xlink:href="#r4"/>
<use x="429.93" y="84.01" xlink:href="#hl"/>
<use x="429.93" y="78.01" xlink:href="#hl"/>
<use x="429.93" y="75.01" xlink:href="#hd"/>
<path d="M426.43 75.01v27.00" stroke="currentColor" fill="none"/>
<use x="467.23" y="84.01" xlink:href="#hl"/>
<use x="467.23" y="81.01" xlink:href="#hd"/>
<path d="M463.73 81.01v21.00" stroke="currentColor" fill="none"/>
<use x="498.03" y="84.01" xlink:href="#hl"/>
<use x="498.03" y="78.01" xlink:href="#hl"/>
<use x="498.03" y="78.01" xlink:href="#hd"/>
<path d="M494.53 78.01v24.00" stroke="currentColor" fill="none"/>
<use x="535.33" y="84.01" xlink:href="#hl"/>
<use x="535.33" y="78.01" xlink:href="#hl"/>
<use x="535.33" y="72.01" xlink:href="#hl"/>
<use x="535.33" y="69.01" xlink:href="#hd"/>
<path d="M531.83 69.01v33.00" stroke="currentColor" fill="none"/>
<use x="566.93" y="84.01" xlink:href="#hl"/>
<use x="566.93" y="81.01" xlink:href="#hd"/>
<use x="557.93" y="81.01" xlink:href="#nt0"/>
<path d="M563.43 81.01v21.00" stroke="currentColor" fill="none"/>
<use x="610.23" y="84.01" xlink:href="#hl"/>
<use x="610.23" y="81.01" xlink:href="#hd"/>
<use x="601.23" y="81.01" xlink:href="#nt0"/>
<path d="M606.73 81.01v21.00" stroke="currentColor" fill="none"/>
<path fill="currentColor"
	d="M606.73 102.01c0.6 -5.6 9.6 -9 5.6 -18.4
	c1.6 6 -1.3 11.6 -5.6 12.8
"/>
<use x="632.33" y="84.01" xlink:href="#hl"/>
<use x="632.33" y="78.01" xlink:href="#hl"/>
<use x="632.33" y="75.01" xlink:href="#hd"/>
<path d="M628.83 75.01v27.00" stroke="currentColor" fill="none"/>
<path fill="currentColor"
	d="M628.83 102.01c0.6 -5.6 9.6 -9 5.6 -18.4
	c1.6 6 -1.3 11.6 -5.6 12.8
"/>
<use x="655.03" y="84.01" xlink:href="#hl"/>
<use x="655.03" y="81.01" xlink:href="#hd"/>
<use x="646.03" y="81.01" xlink:href="#nt0"/>
<path d="M651.53 81.01v21.00" stroke="currentColor" fill="none"/>
<path fill="currentColor"
	d="M651.53 102.01c0.6 -5.6 9.6 -9 5.6 -18.4
	c1.6 6 -1.3 11.6 -5.6 12.8
"/>
<use x="677.13" y="84.01" xlink:href="#hl"/>
<use x="677.13" y="78.01" xlink:href="#hl"/>
<use x="677.13" y="78.01" xlink:href="#hd"/>
<path d="M673.63 78.01v24.00" stroke="currentColor" fill="none"/>
<path fill="currentColor"
	d="M673.63 102.01c0.6 -5.6 9.6 -9 5.6 -18.4
	c1.6 6 -1.3 11.6 -5.6 12.8
"/>
<path fill="currentColor"
	d="M262.13 84.01c5.72 -5.15 30.58 -5.15 36.30 -0.00
	l0.00 -0.24c-6.81 -6.92 -29.49 -6.92 -36.30 0.24"/>
<path fill="currentColor"
	d="M570.43 79.01c5.72 -5.15 30.58 -5.15 36.30 -0.00
	l0.00 -0.24c-6.81 -6.92 -29.49 -6.92 -36.30 0.24"/>
</g>
</svg>
