<?xml version="1.0" standalone="no"?>
<!DOCTYPE svg PUBLIC "-//W3C//DTD SVG 1.1//EN"
	"http://www.w3.org/Graphics/SVG/1.1/DTD/svg11.dtd">
<svg xmlns="http://www.w3.org/2000/svg" version="1.1"
	xmlns:xlink="http://www.w3.org/1999/xlink"
	xml:space='preserve' color="black"
	width="7.38in" height="1.58in" viewBox="0 0 531 114">
<title>5740.abc (5740) tune 1</title>
<!-- Creator: abcm2ps-7.8.14 -->
<!-- CreationDate: Mar 13, 2016 18:54 -->
<!-- CommandLine: -qxg 5740.abc -O ../svgs/5740.svg -->
<g transform="scale(0.750)" stroke-width="0.70" font-family="Times" font-size="20.00">
<text x="354.13" y="21.67" text-anchor="middle">5740.  Danses Espagnoles, Op. 22, No. 1, Romanza Andaluza, 2nd. Theme</text>
</g>
<g transform="scale(0.750)" stroke-width="0.70" font-family="Times" font-size="14.00" font-style="italic">
<text x="694.93" y="45.34" text-anchor="end">Pablo Sarasate</text>
</g>
<g transform="scale(0.525)" stroke-width="0.70" font-family="Times" font-size="14.00" font-style="italic">
<defs>
<ellipse id="hd" rx="4.1" ry="2.9"
	transform="rotate(-20)" fill="currentColor"/>
</defs>
<use x="89.90" y="94.16" xlink:href="#hd"/>
<path d="M93.40 94.16v-20.00" stroke="currentColor" fill="none"/>
</g>
<g transform="scale(0.750)" stroke-width="0.70" font-family="Times" font-size="15.00" font-weight="bold">
<text x="70.63" y="68.01">= 120</text>
<path stroke="currentColor" fill="none"
	d="M208.73 129.01v-24.00"/>
<path stroke="currentColor" fill="none"
	d="M390.33 129.01v-24.00"/>
<path stroke="currentColor" fill="none"
	d="M564.83 129.01v-24.00"/>
<path stroke="currentColor" fill="none"
	d="M694.93 129.01v-24.00"/>
<path stroke="currentColor" fill="none"
	d="M13.33 129.01h681.60m-681.60 -6h681.60m-681.60 -6h681.60m-681.60 -6h681.60m-681.60 -6h681.60"/>
<defs>
<path id="utclef" fill="currentColor" d="m-50 -90
	c-72 -41 -72 -158 52 -188
	c150 -10 220 188 90 256
	c-114 52 -275 0 -293 -136
	c-15 -181 93 -229 220 -334
	c88 -87 79 -133 62 -210
	c-51 33 -94 105 -89 186
	c17 267 36 374 49 574
	c6 96 -19 134 -77 135
	c-80 1 -126 -93 -61 -133
	c85 -41 133 101 31 105
	c23 17 92 37 90 -92
	c-10 -223 -39 -342 -50 -617
	c0 -90 0 -162 96 -232
	c56 72 63 230 22 289
	c-74 106 -257 168 -255 316
	c9 153 148 185 252 133
	c86 -65 29 -192 -80 -176
	c-71 12 -105 67 -59 124"/>
<use id="tclef" transform="scale(0.045)"
	xlink:href="#utclef"/>
</defs>
<use x="25.33" y="129.01" xlink:href="#tclef"/>
<g font-family="serif" font-size="16" font-weight="bold" font-style="normal"
	transform="translate(43.83,129.01) scale(1.2,1)">
	<text y="-1" text-anchor="middle">8</text>
	<text y="-13" text-anchor="middle">6</text>
</g>
<defs>
<path id="hl" stroke="currentColor" d="m-6 0h12"/>
</defs>
<use x="62.33" y="99.01" xlink:href="#hl"/>
<use x="62.33" y="93.01" xlink:href="#hl"/>
<use x="62.33" y="87.01" xlink:href="#hl"/>
<use x="62.33" y="81.01" xlink:href="#hl"/>
<defs>
<path id="Hd" fill="currentColor" d="m3 -1.6
	c-1 -1.8 -7 1.4 -6 3.2
	c1 1.8 7 -1.4 6 -3.2
	m0.5 -0.3
	c2 3.8 -5 7.6 -7 3.8
	c-2 -3.8 5 -7.6 7 -3.8"/>
</defs>
<use x="62.33" y="78.01" xlink:href="#Hd"/>
<path d="M58.83 78.01v39.00" stroke="currentColor" fill="none"/>
<defs>
<path id="r8e" fill="currentColor" d="m 0 0
	c-1.5 1.5 -2.4 2 -3.6 2
	c2.4 -2.8 -2.8 -4 -2.8 -1.2
	c0 2.7 4.3 2.4 5.9 0.6"/>
<g id="r32">
	<path d="m4.8 -10l-5.5 21.6" stroke="currentColor" fill="none"/>
	<use x="4.9" y="-10" xlink:href="#r8e"/>
	<use x="3.4" y="-4" xlink:href="#r8e"/>
	<use x="1.9" y="2" xlink:href="#r8e"/>
</g>
</defs>
<use x="116.73" y="117.01" xlink:href="#r32"/>
<use x="134.93" y="99.01" xlink:href="#hl"/>
<use x="134.93" y="93.01" xlink:href="#hl"/>
<use x="134.93" y="87.01" xlink:href="#hl"/>
<use x="134.93" y="81.01" xlink:href="#hl"/>
<use x="134.93" y="78.01" xlink:href="#hd"/>
<defs>
<path id="usharp" fill="currentColor" d="
	m136 -702
	v890
	h32
	v-890
	m128 840
	h32
	v-888
	h-32
	m-232 286
	v116
	l338 -96
	v-116
	m-338 442
	v116
	l338 -98
	v-114"/>
<use id="sh0" transform="translate(-4,5) scale(0.018)"
	xlink:href="#usharp"/>
</defs>
<use x="125.93" y="78.01" xlink:href="#sh0"/>
<path d="M131.43 78.01v39.00" stroke="currentColor" fill="none"/>
<path fill="currentColor"
	d="M131.43 117.01c0.9 -3.7 9.1 -6.4 6 -12.4
	c1 5.4 -4.2 8.4 -6 8.4
M131.43 111.61c0.9 -3.7 9.1 -6.4 6 -12.4
	c1 5.4 -4.2 8.4 -6 8.4
M131.43 106.21c0.9 -3.7 9.1 -6.4 6 -12.4
	c1 5.4 -4.2 8.4 -6 8.4
"/>
<path fill="currentColor"
	d="M149.33 117.21l39.20 0.00v-3.20l-39.20 -0.00"/>
<path fill="currentColor"
	d="M149.63 112.21l38.50 0.00v-3.20l-38.50 -0.00"/>
<use x="153.13" y="99.01" xlink:href="#hl"/>
<use x="153.13" y="93.01" xlink:href="#hl"/>
<use x="153.13" y="87.01" xlink:href="#hl"/>
<use x="153.13" y="81.01" xlink:href="#hl"/>
<use x="153.13" y="78.01" xlink:href="#hd"/>
<defs>
<path id="unat" fill="currentColor" d="
	m96 -750
	h-32
	v716
	l32 -8
	l182 -54
	v282
	h32
	v-706
	l-34 10
	l-180 50
	v-290
	m0 592
	v-190
	l182 -52
	v188"/>
<use id="nt0" transform="translate(-3,5) scale(0.018)"
	xlink:href="#unat"/>
</defs>
<use x="144.13" y="78.01" xlink:href="#nt0"/>
<path d="M149.63 78.01v38.20" stroke="currentColor" fill="none"/>
<use x="172.43" y="99.01" xlink:href="#hl"/>
<use x="172.43" y="93.01" xlink:href="#hl"/>
<use x="172.43" y="87.01" xlink:href="#hl"/>
<use x="172.43" y="81.01" xlink:href="#hl"/>
<use x="172.43" y="78.01" xlink:href="#hd"/>
<use x="163.43" y="78.01" xlink:href="#sh0"/>
<path d="M168.93 78.01v38.20" stroke="currentColor" fill="none"/>
<use x="191.63" y="99.01" xlink:href="#hl"/>
<use x="191.63" y="93.01" xlink:href="#hl"/>
<use x="191.63" y="87.01" xlink:href="#hl"/>
<use x="191.63" y="81.01" xlink:href="#hl"/>
<use x="191.63" y="75.01" xlink:href="#hl"/>
<use x="191.63" y="72.01" xlink:href="#hd"/>
<path d="M188.13 72.01v44.20" stroke="currentColor" fill="none"/>
<use x="227.43" y="99.01" xlink:href="#hl"/>
<use x="227.43" y="93.01" xlink:href="#hl"/>
<use x="227.43" y="87.01" xlink:href="#hl"/>
<use x="227.43" y="81.01" xlink:href="#hl"/>
<use x="227.43" y="78.01" xlink:href="#hd"/>
<use x="218.43" y="78.01" xlink:href="#nt0"/>
<path d="M223.93 78.01v39.00" stroke="currentColor" fill="none"/>
<path fill="currentColor"
	d="M223.93 117.01c0.6 -5.6 9.6 -9 5.6 -18.4
	c1.6 6 -1.3 11.6 -5.6 12.8
"/>
<use x="257.63" y="99.01" xlink:href="#hl"/>
<use x="257.63" y="93.01" xlink:href="#hl"/>
<use x="257.63" y="87.01" xlink:href="#hl"/>
<use x="257.63" y="81.01" xlink:href="#hl"/>
<use x="257.63" y="78.01" xlink:href="#hd"/>
<circle fill="currentColor" cx="265.63" cy="78.01" r="1.2"/>
<path d="M254.13 78.01v39.00" stroke="currentColor" fill="none"/>
<use x="301.43" y="117.01" xlink:href="#r32"/>
<use x="316.53" y="99.01" xlink:href="#hl"/>
<use x="316.53" y="93.01" xlink:href="#hl"/>
<use x="316.53" y="87.01" xlink:href="#hl"/>
<use x="316.53" y="81.01" xlink:href="#hl"/>
<use x="316.53" y="81.01" xlink:href="#hd"/>
<path d="M313.03 81.01v36.00" stroke="currentColor" fill="none"/>
<path fill="currentColor"
	d="M313.03 117.01c0.9 -3.7 9.1 -6.4 6 -12.4
	c1 5.4 -4.2 8.4 -6 8.4
M313.03 111.61c0.9 -3.7 9.1 -6.4 6 -12.4
	c1 5.4 -4.2 8.4 -6 8.4
M313.03 106.21c0.9 -3.7 9.1 -6.4 6 -12.4
	c1 5.4 -4.2 8.4 -6 8.4
"/>
<path fill="currentColor"
	d="M330.93 117.21l39.20 0.00v-3.20l-39.20 -0.00"/>
<path fill="currentColor"
	d="M331.23 112.21l38.50 0.00v-3.20l-38.50 -0.00"/>
<use x="334.73" y="99.01" xlink:href="#hl"/>
<use x="334.73" y="93.01" xlink:href="#hl"/>
<use x="334.73" y="87.01" xlink:href="#hl"/>
<use x="334.73" y="84.01" xlink:href="#hd"/>
<use x="325.73" y="84.01" xlink:href="#sh0"/>
<path d="M331.23 84.01v32.20" stroke="currentColor" fill="none"/>
<use x="354.03" y="99.01" xlink:href="#hl"/>
<use x="354.03" y="93.01" xlink:href="#hl"/>
<use x="354.03" y="87.01" xlink:href="#hl"/>
<use x="354.03" y="81.01" xlink:href="#hl"/>
<use x="354.03" y="81.01" xlink:href="#hd"/>
<path d="M350.53 81.01v35.20" stroke="currentColor" fill="none"/>
<use x="373.23" y="99.01" xlink:href="#hl"/>
<use x="373.23" y="93.01" xlink:href="#hl"/>
<use x="373.23" y="87.01" xlink:href="#hl"/>
<use x="373.23" y="81.01" xlink:href="#hl"/>
<use x="373.23" y="78.01" xlink:href="#hd"/>
<path d="M369.73 78.01v38.20" stroke="currentColor" fill="none"/>
<use x="409.03" y="99.01" xlink:href="#hl"/>
<use x="409.03" y="93.01" xlink:href="#hl"/>
<use x="409.03" y="87.01" xlink:href="#hl"/>
<use x="409.03" y="84.01" xlink:href="#hd"/>
<use x="400.03" y="84.01" xlink:href="#nt0"/>
<path d="M405.53 84.01v33.00" stroke="currentColor" fill="none"/>
<path fill="currentColor"
	d="M405.53 117.01c0.6 -5.6 9.6 -9 5.6 -18.4
	c1.6 6 -1.3 11.6 -5.6 12.8
"/>
<use x="439.23" y="99.01" xlink:href="#hl"/>
<use x="439.23" y="93.01" xlink:href="#hl"/>
<use x="439.23" y="87.01" xlink:href="#hl"/>
<use x="439.23" y="84.01" xlink:href="#hd"/>
<circle fill="currentColor" cx="447.23" cy="84.01" r="1.2"/>
<path d="M435.73 84.01v33.00" stroke="currentColor" fill="none"/>
<use x="487.93" y="99.01" xlink:href="#hl"/>
<use x="487.93" y="93.01" xlink:href="#hl"/>
<use x="487.93" y="87.01" xlink:href="#hl"/>
<use x="487.93" y="87.01" xlink:href="#hd"/>
<path d="M484.43 87.01v30.00" stroke="currentColor" fill="none"/>
<path fill="currentColor"
	d="M484.43 117.01c0.9 -3.7 9.1 -6.4 6 -12.4
	c1 5.4 -4.2 8.4 -6 8.4
M484.43 111.61c0.9 -3.7 9.1 -6.4 6 -12.4
	c1 5.4 -4.2 8.4 -6 8.4
"/>
<path fill="currentColor"
	d="M505.43 117.21l39.20 0.00v-3.20l-39.20 -0.00"/>
<path fill="currentColor"
	d="M505.83 112.21l38.50 0.00v-3.20l-38.50 -0.00"/>
<use x="509.33" y="99.01" xlink:href="#hl"/>
<use x="509.33" y="93.01" xlink:href="#hl"/>
<use x="509.33" y="90.01" xlink:href="#hd"/>
<path d="M505.83 90.01v26.20" stroke="currentColor" fill="none"/>
<use x="528.53" y="99.01" xlink:href="#hl"/>
<use x="528.53" y="93.01" xlink:href="#hl"/>
<use x="528.53" y="87.01" xlink:href="#hl"/>
<use x="528.53" y="87.01" xlink:href="#hd"/>
<path d="M525.03 87.01v29.20" stroke="currentColor" fill="none"/>
<use x="547.83" y="99.01" xlink:href="#hl"/>
<use x="547.83" y="93.01" xlink:href="#hl"/>
<use x="547.83" y="87.01" xlink:href="#hl"/>
<use x="547.83" y="84.01" xlink:href="#hd"/>
<path d="M544.33 84.01v32.20" stroke="currentColor" fill="none"/>
<use x="580.03" y="99.01" xlink:href="#hl"/>
<use x="580.03" y="93.01" xlink:href="#hl"/>
<use x="580.03" y="90.01" xlink:href="#hd"/>
<path d="M576.53 90.01v27.00" stroke="currentColor" fill="none"/>
<path fill="currentColor"
	d="M576.53 117.01c0.6 -5.6 9.6 -9 5.6 -18.4
	c1.6 6 -1.3 11.6 -5.6 12.8
"/>
<use x="610.23" y="99.01" xlink:href="#hl"/>
<use x="610.23" y="99.01" xlink:href="#Hd"/>
<path d="M606.73 99.01v20.00" stroke="currentColor" fill="none"/>
<use x="670.73" y="99.01" xlink:href="#hl"/>
<use x="670.73" y="99.01" xlink:href="#hd"/>
<path d="M667.23 99.01v20.00" stroke="currentColor" fill="none"/>
<path fill="currentColor"
	d="M667.23 119.01c0.6 -5.6 9.6 -9 5.6 -18.4
	c1.6 6 -1.3 11.6 -5.6 12.8
"/>
<path fill="currentColor"
	d="M613.73 99.01c8.10 -5.46 45.39 -5.46 53.49 -0.00
	l0.00 -0.25c-9.70 -7.21 -43.78 -7.21 -53.49 0.25"/>
</g>
</svg>
