<?xml version="1.0" standalone="no"?>
<!DOCTYPE svg PUBLIC "-//W3C//DTD SVG 1.1//EN"
	"http://www.w3.org/Graphics/SVG/1.1/DTD/svg11.dtd">
<svg xmlns="http://www.w3.org/2000/svg" version="1.1"
	xmlns:xlink="http://www.w3.org/1999/xlink"
	xml:space='preserve' color="black"
	width="7.38in" height="1.46in" viewBox="0 0 531 105">
<title>5743.abc (5743) tune 1</title>
<!-- Creator: abcm2ps-7.8.14 -->
<!-- CreationDate: Mar 13, 2016 18:54 -->
<!-- CommandLine: -qxg 5743.abc -O ../svgs/5743.svg -->
<g transform="scale(0.750)" stroke-width="0.70" font-family="Times" font-size="20.00">
<text x="354.13" y="21.67" text-anchor="middle">5743.  Danses Espagnoles, Op. 22, No. 2, Jota Navarra, 2nd. Theme</text>
</g>
<g transform="scale(0.750)" stroke-width="0.70" font-family="Times" font-size="14.00" font-style="italic">
<text x="694.93" y="45.34" text-anchor="end">Pablo Sarasate</text>
</g>
<g transform="scale(0.525)" stroke-width="0.70" font-family="Times" font-size="14.00" font-style="italic">
<defs>
<ellipse id="hd" rx="4.1" ry="2.9"
	transform="rotate(-20)" fill="currentColor"/>
</defs>
<use x="114.90" y="94.16" xlink:href="#hd"/>
<path d="M118.40 94.16v-20.00" stroke="currentColor" fill="none"/>
</g>
<g transform="scale(0.750)" stroke-width="0.70" font-family="Times" font-size="15.00" font-weight="bold">
<text x="88.13" y="68.01">= 120</text>
<path stroke="currentColor" fill="none"
	d="M151.13 117.01v-24.00"/>
<path stroke="currentColor" fill="none"
	d="M248.43 117.01v-24.00"/>
<path stroke="currentColor" fill="none"
	d="M345.63 117.01v-24.00"/>
<path stroke="currentColor" fill="none"
	d="M442.83 117.01v-24.00"/>
<path stroke="currentColor" fill="none"
	d="M540.13 117.01v-24.00"/>
<path stroke="currentColor" fill="none"
	d="M661.83 117.01v-24.00"/>
<path stroke="currentColor" fill="none"
	d="M13.33 117.01h681.60m-681.60 -6h681.60m-681.60 -6h681.60m-681.60 -6h681.60m-681.60 -6h681.60"/>
<defs>
<path id="utclef" fill="currentColor" d="m-50 -90
	c-72 -41 -72 -158 52 -188
	c150 -10 220 188 90 256
	c-114 52 -275 0 -293 -136
	c-15 -181 93 -229 220 -334
	c88 -87 79 -133 62 -210
	c-51 33 -94 105 -89 186
	c17 267 36 374 49 574
	c6 96 -19 134 -77 135
	c-80 1 -126 -93 -61 -133
	c85 -41 133 101 31 105
	c23 17 92 37 90 -92
	c-10 -223 -39 -342 -50 -617
	c0 -90 0 -162 96 -232
	c56 72 63 230 22 289
	c-74 106 -257 168 -255 316
	c9 153 148 185 252 133
	c86 -65 29 -192 -80 -176
	c-71 12 -105 67 -59 124"/>
<use id="tclef" transform="scale(0.045)"
	xlink:href="#utclef"/>
</defs>
<use x="25.33" y="117.01" xlink:href="#tclef"/>
<defs>
<path id="usharp" fill="currentColor" d="
	m136 -702
	v890
	h32
	v-890
	m128 840
	h32
	v-888
	h-32
	m-232 286
	v116
	l338 -96
	v-116
	m-338 442
	v116
	l338 -98
	v-114"/>
<use id="sh0" transform="translate(-4,5) scale(0.018)"
	xlink:href="#usharp"/>
</defs>
<use x="40.33" y="93.01" xlink:href="#sh0"/>
<use x="45.83" y="102.01" xlink:href="#sh0"/>
<g font-family="serif" font-size="16" font-weight="bold" font-style="normal"
	transform="translate(61.83,117.01) scale(1.2,1)">
	<text y="-1" text-anchor="middle">8</text>
	<text y="-13" text-anchor="middle">3</text>
</g>
<path fill="currentColor"
	d="M76.03 105.21l50.10 0.00v-3.20l-50.10 -0.00"/>
<defs>
<path id="hl" stroke="currentColor" d="m-6 0h12"/>
</defs>
<use x="79.83" y="87.01" xlink:href="#hl"/>
<use x="79.83" y="84.01" xlink:href="#hd"/>
<path d="M76.33 84.01v20.20" stroke="currentColor" fill="none"/>
<use x="104.53" y="87.01" xlink:href="#hl"/>
<use x="104.53" y="81.01" xlink:href="#hl"/>
<use x="104.53" y="81.01" xlink:href="#hd"/>
<defs>
<path id="unat" fill="currentColor" d="
	m96 -750
	h-32
	v716
	l32 -8
	l182 -54
	v282
	h32
	v-706
	l-34 10
	l-180 50
	v-290
	m0 592
	v-190
	l182 -52
	v188"/>
<use id="nt0" transform="translate(-3,5) scale(0.018)"
	xlink:href="#unat"/>
</defs>
<use x="95.53" y="81.01" xlink:href="#nt0"/>
<path d="M101.03 81.01v23.20" stroke="currentColor" fill="none"/>
<use x="129.23" y="87.01" xlink:href="#hl"/>
<use x="129.23" y="81.01" xlink:href="#hl"/>
<use x="129.23" y="78.01" xlink:href="#hd"/>
<path d="M125.73 78.01v26.20" stroke="currentColor" fill="none"/>
<path fill="currentColor"
	d="M161.13 105.21l25.40 0.00v-3.20l-25.40 -0.00"/>
<path fill="currentColor"
	d="M180.13 100.21l6.00 0.00v-3.20l-6.00 -0.00"/>
<use x="164.93" y="87.01" xlink:href="#hl"/>
<use x="164.93" y="81.01" xlink:href="#hl"/>
<use x="164.93" y="75.01" xlink:href="#hl"/>
<use x="164.93" y="69.01" xlink:href="#hl"/>
<use x="164.93" y="69.01" xlink:href="#hd"/>
<path d="M161.43 69.01v35.20" stroke="currentColor" fill="none"/>
<use x="189.63" y="87.01" xlink:href="#hl"/>
<use x="189.63" y="81.01" xlink:href="#hl"/>
<use x="189.63" y="75.01" xlink:href="#hl"/>
<use x="189.63" y="69.01" xlink:href="#hl"/>
<use x="189.63" y="69.01" xlink:href="#hd"/>
<path d="M186.13 69.01v35.20" stroke="currentColor" fill="none"/>
<path fill="currentColor"
	d="M205.13 105.21l18.10 0.00v-3.20l-18.10 -0.00"/>
<path fill="currentColor"
	d="M211.53 100.21l-6.00 -0.00v-3.20l6.00 0.00"/>
<use x="209.03" y="87.01" xlink:href="#hl"/>
<use x="209.03" y="81.01" xlink:href="#hl"/>
<use x="209.03" y="75.01" xlink:href="#hl"/>
<use x="209.03" y="69.01" xlink:href="#hl"/>
<use x="209.03" y="69.01" xlink:href="#hd"/>
<path d="M205.53 69.01v35.20" stroke="currentColor" fill="none"/>
<use x="226.43" y="87.01" xlink:href="#hl"/>
<use x="226.43" y="81.01" xlink:href="#hl"/>
<use x="226.43" y="75.01" xlink:href="#hl"/>
<use x="226.43" y="69.01" xlink:href="#hl"/>
<use x="226.43" y="69.01" xlink:href="#hd"/>
<path d="M222.93 69.01v35.20" stroke="currentColor" fill="none"/>
<path fill="currentColor"
	d="M258.33 105.21l25.40 0.00v-3.20l-25.40 -0.00"/>
<path fill="currentColor"
	d="M277.33 100.21l6.00 0.00v-3.20l-6.00 -0.00"/>
<use x="262.13" y="87.01" xlink:href="#hl"/>
<use x="262.13" y="81.01" xlink:href="#hl"/>
<use x="262.13" y="75.01" xlink:href="#hl"/>
<use x="262.13" y="72.01" xlink:href="#hd"/>
<path d="M258.63 72.01v32.20" stroke="currentColor" fill="none"/>
<use x="286.83" y="87.01" xlink:href="#hl"/>
<use x="286.83" y="81.01" xlink:href="#hl"/>
<use x="286.83" y="75.01" xlink:href="#hl"/>
<use x="286.83" y="72.01" xlink:href="#hd"/>
<path d="M283.33 72.01v32.20" stroke="currentColor" fill="none"/>
<path fill="currentColor"
	d="M302.43 105.21l18.10 0.00v-3.20l-18.10 -0.00"/>
<path fill="currentColor"
	d="M308.73 100.21l-6.00 -0.00v-3.20l6.00 0.00"/>
<use x="306.23" y="87.01" xlink:href="#hl"/>
<use x="306.23" y="81.01" xlink:href="#hl"/>
<use x="306.23" y="75.01" xlink:href="#hl"/>
<use x="306.23" y="72.01" xlink:href="#hd"/>
<path d="M302.73 72.01v32.20" stroke="currentColor" fill="none"/>
<use x="323.73" y="87.01" xlink:href="#hl"/>
<use x="323.73" y="81.01" xlink:href="#hl"/>
<use x="323.73" y="75.01" xlink:href="#hl"/>
<use x="323.73" y="72.01" xlink:href="#hd"/>
<path d="M320.23 72.01v32.20" stroke="currentColor" fill="none"/>
<path fill="currentColor"
	d="M355.53 105.21l25.40 0.00v-3.20l-25.40 -0.00"/>
<path fill="currentColor"
	d="M374.53 100.21l6.00 0.00v-3.20l-6.00 -0.00"/>
<use x="359.43" y="87.01" xlink:href="#hl"/>
<use x="359.43" y="81.01" xlink:href="#hl"/>
<use x="359.43" y="75.01" xlink:href="#hl"/>
<use x="359.43" y="75.01" xlink:href="#hd"/>
<path d="M355.93 75.01v29.20" stroke="currentColor" fill="none"/>
<use x="384.03" y="87.01" xlink:href="#hl"/>
<use x="384.03" y="81.01" xlink:href="#hl"/>
<use x="384.03" y="75.01" xlink:href="#hl"/>
<use x="384.03" y="75.01" xlink:href="#hd"/>
<path d="M380.53 75.01v29.20" stroke="currentColor" fill="none"/>
<path fill="currentColor"
	d="M399.63 105.21l18.10 0.00v-3.20l-18.10 -0.00"/>
<path fill="currentColor"
	d="M405.93 100.21l-6.00 -0.00v-3.20l6.00 0.00"/>
<use x="403.43" y="87.01" xlink:href="#hl"/>
<use x="403.43" y="81.01" xlink:href="#hl"/>
<use x="403.43" y="75.01" xlink:href="#hl"/>
<use x="403.43" y="75.01" xlink:href="#hd"/>
<path d="M399.93 75.01v29.20" stroke="currentColor" fill="none"/>
<use x="420.93" y="87.01" xlink:href="#hl"/>
<use x="420.93" y="81.01" xlink:href="#hl"/>
<use x="420.93" y="75.01" xlink:href="#hl"/>
<use x="420.93" y="75.01" xlink:href="#hd"/>
<path d="M417.43 75.01v29.20" stroke="currentColor" fill="none"/>
<path fill="currentColor"
	d="M452.83 105.21l25.40 0.00v-3.20l-25.40 -0.00"/>
<path fill="currentColor"
	d="M471.83 100.21l6.00 0.00v-3.20l-6.00 -0.00"/>
<use x="456.63" y="87.01" xlink:href="#hl"/>
<use x="456.63" y="81.01" xlink:href="#hl"/>
<use x="456.63" y="78.01" xlink:href="#hd"/>
<path d="M453.13 78.01v26.20" stroke="currentColor" fill="none"/>
<use x="481.33" y="87.01" xlink:href="#hl"/>
<use x="481.33" y="81.01" xlink:href="#hl"/>
<use x="481.33" y="78.01" xlink:href="#hd"/>
<path d="M477.83 78.01v26.20" stroke="currentColor" fill="none"/>
<path fill="currentColor"
	d="M496.83 105.21l18.10 0.00v-3.20l-18.10 -0.00"/>
<path fill="currentColor"
	d="M503.23 100.21l-6.00 -0.00v-3.20l6.00 0.00"/>
<use x="500.73" y="87.01" xlink:href="#hl"/>
<use x="500.73" y="81.01" xlink:href="#hl"/>
<use x="500.73" y="78.01" xlink:href="#hd"/>
<path d="M497.23 78.01v26.20" stroke="currentColor" fill="none"/>
<use x="518.13" y="87.01" xlink:href="#hl"/>
<use x="518.13" y="81.01" xlink:href="#hl"/>
<use x="518.13" y="78.01" xlink:href="#hd"/>
<path d="M514.63 78.01v26.20" stroke="currentColor" fill="none"/>
<defs>
<path id="r8e" fill="currentColor" d="m 0 0
	c-1.5 1.5 -2.4 2 -3.6 2
	c2.4 -2.8 -2.8 -4 -2.8 -1.2
	c0 2.7 4.3 2.4 5.9 0.6"/>
<g id="r32">
	<path d="m4.8 -10l-5.5 21.6" stroke="currentColor" fill="none"/>
	<use x="4.9" y="-10" xlink:href="#r8e"/>
	<use x="3.4" y="-4" xlink:href="#r8e"/>
	<use x="1.9" y="2" xlink:href="#r8e"/>
</g>
</defs>
<use x="553.83" y="105.01" xlink:href="#r32"/>
<path fill="currentColor"
	d="M563.73 105.21l36.10 0.00v-3.20l-36.10 -0.00"/>
<path fill="currentColor"
	d="M564.13 100.21l35.50 0.00v-3.20l-35.50 -0.00"/>
<path fill="currentColor"
	d="M570.13 95.21l-6.00 -0.00v-3.20l6.00 0.00"/>
<use x="567.63" y="87.01" xlink:href="#hl"/>
<use x="567.63" y="81.01" xlink:href="#hl"/>
<use x="567.63" y="78.01" xlink:href="#hd"/>
<path d="M564.13 78.01v26.20" stroke="currentColor" fill="none"/>
<use x="585.63" y="87.01" xlink:href="#hl"/>
<use x="585.63" y="81.01" xlink:href="#hl"/>
<use x="585.63" y="81.01" xlink:href="#hd"/>
<use x="576.63" y="81.01" xlink:href="#sh0"/>
<path d="M582.13 81.01v23.20" stroke="currentColor" fill="none"/>
<use x="603.03" y="87.01" xlink:href="#hl"/>
<use x="603.03" y="81.01" xlink:href="#hl"/>
<use x="603.03" y="78.01" xlink:href="#hd"/>
<path d="M599.53 78.01v26.20" stroke="currentColor" fill="none"/>
<path fill="currentColor"
	d="M618.63 105.21l18.10 0.00v-3.20l-18.10 -0.00"/>
<path fill="currentColor"
	d="M624.93 100.21l-6.00 -0.00v-3.20l6.00 0.00"/>
<use x="622.43" y="87.01" xlink:href="#hl"/>
<use x="622.43" y="81.01" xlink:href="#hl"/>
<use x="622.43" y="75.01" xlink:href="#hl"/>
<use x="622.43" y="75.01" xlink:href="#hd"/>
<path d="M618.93 75.01v29.20" stroke="currentColor" fill="none"/>
<use x="639.93" y="87.01" xlink:href="#hl"/>
<use x="639.93" y="81.01" xlink:href="#hl"/>
<use x="639.93" y="78.01" xlink:href="#hd"/>
<path d="M636.43 78.01v26.20" stroke="currentColor" fill="none"/>
<use x="675.63" y="87.01" xlink:href="#hl"/>
<use x="675.63" y="81.01" xlink:href="#hl"/>
<use x="675.63" y="78.01" xlink:href="#hd"/>
<path d="M672.13 78.01v27.00" stroke="currentColor" fill="none"/>
<path fill="currentColor"
	d="M672.13 105.01c0.9 -3.7 9.1 -6.4 6 -12.4
	c1 5.4 -4.2 8.4 -6 8.4
M672.13 99.61c0.9 -3.7 9.1 -6.4 6 -12.4
	c1 5.4 -4.2 8.4 -6 8.4
"/>
<path fill="currentColor"
	d="M643.43 76.01c4.52 -5.02 24.18 -5.02 28.70 -0.00
	l0.00 -0.23c-5.38 -6.79 -23.32 -6.79 -28.70 0.23"/>
</g>
</svg>
