<?xml version="1.0" standalone="no"?>
<!DOCTYPE svg PUBLIC "-//W3C//DTD SVG 1.1//EN"
	"http://www.w3.org/Graphics/SVG/1.1/DTD/svg11.dtd">
<svg xmlns="http://www.w3.org/2000/svg" version="1.1"
	xmlns:xlink="http://www.w3.org/1999/xlink"
	xml:space='preserve' color="black"
	width="7.38in" height="1.55in" viewBox="0 0 531 112">
<title>5774.abc (5774) tune 1</title>
<!-- Creator: abcm2ps-7.8.14 -->
<!-- CreationDate: Mar 13, 2016 18:54 -->
<!-- CommandLine: -qxg 5774.abc -O ../svgs/5774.svg -->
<g transform="scale(0.750)" stroke-width="0.70" font-family="Times" font-size="20.00">
<text x="354.13" y="21.67" text-anchor="middle">5774.  Sonatas, Longo 104 in C</text>
</g>
<g transform="scale(0.750)" stroke-width="0.70" font-family="Times" font-size="14.00" font-style="italic">
<text x="694.93" y="45.34" text-anchor="end">Domenico Scarlatti</text>
</g>
<g transform="scale(0.525)" stroke-width="0.70" font-family="Times" font-size="14.00" font-style="italic">
<defs>
<ellipse id="hd" rx="4.1" ry="2.9"
	transform="rotate(-20)" fill="currentColor"/>
</defs>
<use x="89.19" y="94.16" xlink:href="#hd"/>
<path d="M92.69 94.16v-20.00" stroke="currentColor" fill="none"/>
</g>
<g transform="scale(0.750)" stroke-width="0.70" font-family="Times" font-size="15.00" font-weight="bold">
<text x="70.13" y="68.01">= 120</text>
<path stroke="currentColor" fill="none"
	d="M185.63 126.01v-24.00"/>
<path stroke="currentColor" fill="none"
	d="M372.13 126.01v-24.00"/>
<path stroke="currentColor" fill="none"
	d="M508.43 126.01v-24.00"/>
<path stroke="currentColor" fill="none"
	d="M694.93 126.01v-24.00"/>
<path stroke="currentColor" fill="none"
	d="M13.33 126.01h681.60m-681.60 -6h681.60m-681.60 -6h681.60m-681.60 -6h681.60m-681.60 -6h681.60"/>
<defs>
<path id="utclef" fill="currentColor" d="m-50 -90
	c-72 -41 -72 -158 52 -188
	c150 -10 220 188 90 256
	c-114 52 -275 0 -293 -136
	c-15 -181 93 -229 220 -334
	c88 -87 79 -133 62 -210
	c-51 33 -94 105 -89 186
	c17 267 36 374 49 574
	c6 96 -19 134 -77 135
	c-80 1 -126 -93 -61 -133
	c85 -41 133 101 31 105
	c23 17 92 37 90 -92
	c-10 -223 -39 -342 -50 -617
	c0 -90 0 -162 96 -232
	c56 72 63 230 22 289
	c-74 106 -257 168 -255 316
	c9 153 148 185 252 133
	c86 -65 29 -192 -80 -176
	c-71 12 -105 67 -59 124"/>
<use id="tclef" transform="scale(0.045)"
	xlink:href="#utclef"/>
</defs>
<use x="25.33" y="126.01" xlink:href="#tclef"/>
<g font-family="serif" font-size="16" font-weight="bold" font-style="normal"
	transform="translate(43.83,126.01) scale(1.2,1)">
	<text y="-1" text-anchor="middle">8</text>
	<text y="-13" text-anchor="middle">6</text>
</g>
<path fill="currentColor"
	d="M58.03 114.21l42.00 0.00v-3.20l-42.00 -0.00"/>
<defs>
<path id="hl" stroke="currentColor" d="m-6 0h12"/>
</defs>
<use x="61.83" y="96.01" xlink:href="#hl"/>
<use x="61.83" y="90.01" xlink:href="#hl"/>
<use x="61.83" y="84.01" xlink:href="#hl"/>
<use x="61.83" y="78.01" xlink:href="#hl"/>
<use x="61.83" y="78.01" xlink:href="#hd"/>
<path d="M58.33 78.01v35.20" stroke="currentColor" fill="none"/>
<use x="82.43" y="96.01" xlink:href="#hl"/>
<use x="82.43" y="90.01" xlink:href="#hl"/>
<use x="82.43" y="84.01" xlink:href="#hl"/>
<use x="82.43" y="81.01" xlink:href="#hd"/>
<path d="M78.93 81.01v32.20" stroke="currentColor" fill="none"/>
<use x="103.13" y="96.01" xlink:href="#hl"/>
<use x="103.13" y="90.01" xlink:href="#hl"/>
<use x="103.13" y="84.01" xlink:href="#hl"/>
<use x="103.13" y="84.01" xlink:href="#hd"/>
<path d="M99.63 84.01v29.20" stroke="currentColor" fill="none"/>
<path fill="currentColor"
	d="M122.13 114.21l42.00 0.00v-3.20l-42.00 -0.00"/>
<use x="125.93" y="96.01" xlink:href="#hl"/>
<use x="125.93" y="90.01" xlink:href="#hl"/>
<use x="125.93" y="84.01" xlink:href="#hl"/>
<use x="125.93" y="84.01" xlink:href="#hd"/>
<path d="M122.43 84.01v29.20" stroke="currentColor" fill="none"/>
<use x="146.63" y="96.01" xlink:href="#hl"/>
<use x="146.63" y="90.01" xlink:href="#hl"/>
<use x="146.63" y="87.01" xlink:href="#hd"/>
<path d="M143.13 87.01v26.20" stroke="currentColor" fill="none"/>
<use x="167.23" y="96.01" xlink:href="#hl"/>
<use x="167.23" y="90.01" xlink:href="#hl"/>
<use x="167.23" y="90.01" xlink:href="#hd"/>
<path d="M163.73 90.01v23.20" stroke="currentColor" fill="none"/>
<path fill="currentColor"
	d="M194.23 138.21l73.90 0.00v-3.20l-73.90 -0.00"/>
<path fill="currentColor"
	d="M246.33 133.21l21.50 0.00v-3.20l-21.50 -0.00"/>
<path fill="currentColor"
	d="M246.33 128.21l21.50 0.00v-3.20l-21.50 -0.00"/>
<use x="198.13" y="96.01" xlink:href="#hl"/>
<use x="198.13" y="90.01" xlink:href="#hl"/>
<use x="198.13" y="90.01" xlink:href="#hd"/>
<path d="M194.63 90.01v47.20" stroke="currentColor" fill="none"/>
<use x="218.73" y="96.01" xlink:href="#hl"/>
<use x="218.73" y="90.01" xlink:href="#hl"/>
<use x="218.73" y="87.01" xlink:href="#hd"/>
<path d="M215.23 87.01v50.20" stroke="currentColor" fill="none"/>
<defs>
<path id="r8e" fill="currentColor" d="m 0 0
	c-1.5 1.5 -2.4 2 -3.6 2
	c2.4 -2.8 -2.8 -4 -2.8 -1.2
	c0 2.7 4.3 2.4 5.9 0.6"/>
<g id="r32">
	<path d="m4.8 -10l-5.5 21.6" stroke="currentColor" fill="none"/>
	<use x="4.9" y="-10" xlink:href="#r8e"/>
	<use x="3.4" y="-4" xlink:href="#r8e"/>
	<use x="1.9" y="2" xlink:href="#r8e"/>
</g>
</defs>
<use x="239.23" y="114.01" xlink:href="#r32"/>
<use x="249.83" y="96.01" xlink:href="#hl"/>
<use x="249.83" y="90.01" xlink:href="#hl"/>
<use x="249.83" y="84.01" xlink:href="#hl"/>
<use x="249.83" y="84.01" xlink:href="#hd"/>
<path d="M246.33 84.01v53.20" stroke="currentColor" fill="none"/>
<use x="260.63" y="96.01" xlink:href="#hl"/>
<use x="260.63" y="90.01" xlink:href="#hl"/>
<use x="260.63" y="84.01" xlink:href="#hl"/>
<use x="260.63" y="81.01" xlink:href="#hd"/>
<path d="M257.13 81.01v56.20" stroke="currentColor" fill="none"/>
<use x="271.33" y="96.01" xlink:href="#hl"/>
<use x="271.33" y="90.01" xlink:href="#hl"/>
<use x="271.33" y="84.01" xlink:href="#hl"/>
<use x="271.33" y="84.01" xlink:href="#hd"/>
<path d="M267.83 84.01v53.20" stroke="currentColor" fill="none"/>
<path fill="currentColor"
	d="M279.33 114.01l71.30 0.00v-3.20l-71.30 -0.00"/>
<path fill="currentColor"
	d="M279.63 109.01l32.00 0.00v-3.20l-32.00 -0.00"/>
<path fill="currentColor"
	d="M279.63 104.01l32.00 0.00v-3.20l-32.00 -0.00"/>
<path fill="currentColor"
	d="M307.13 99.01l-6.00 -0.00v-3.20l6.00 0.00"/>
<use x="283.13" y="96.01" xlink:href="#hl"/>
<use x="283.13" y="90.01" xlink:href="#hl"/>
<use x="283.13" y="84.01" xlink:href="#hl"/>
<use x="283.13" y="81.01" xlink:href="#hd"/>
<path d="M279.63 81.01v32.00" stroke="currentColor" fill="none"/>
<use x="293.93" y="96.01" xlink:href="#hl"/>
<use x="293.93" y="90.01" xlink:href="#hl"/>
<use x="293.93" y="84.01" xlink:href="#hl"/>
<use x="293.93" y="84.01" xlink:href="#hd"/>
<path d="M290.43 84.01v29.00" stroke="currentColor" fill="none"/>
<use x="304.63" y="96.01" xlink:href="#hl"/>
<use x="304.63" y="90.01" xlink:href="#hl"/>
<use x="304.63" y="84.01" xlink:href="#hl"/>
<use x="304.63" y="81.01" xlink:href="#hd"/>
<path d="M301.13 81.01v32.00" stroke="currentColor" fill="none"/>
<use x="315.13" y="96.01" xlink:href="#hl"/>
<use x="315.13" y="90.01" xlink:href="#hl"/>
<use x="315.13" y="84.01" xlink:href="#hl"/>
<use x="315.13" y="84.01" xlink:href="#hd"/>
<circle fill="currentColor" cx="323.13" cy="81.01" r="1.2"/>
<path d="M311.63 84.01v29.00" stroke="currentColor" fill="none"/>
<use x="333.13" y="96.01" xlink:href="#hl"/>
<use x="333.13" y="90.01" xlink:href="#hl"/>
<use x="333.13" y="87.01" xlink:href="#hd"/>
<path d="M329.63 87.01v26.00" stroke="currentColor" fill="none"/>
<use x="353.73" y="96.01" xlink:href="#hl"/>
<use x="353.73" y="90.01" xlink:href="#hl"/>
<use x="353.73" y="87.01" xlink:href="#hd"/>
<path d="M350.23 87.01v26.00" stroke="currentColor" fill="none"/>
<path fill="currentColor"
	d="M380.83 114.21l42.00 0.00v-3.20l-42.00 -0.00"/>
<use x="384.63" y="96.01" xlink:href="#hl"/>
<use x="384.63" y="90.01" xlink:href="#hl"/>
<use x="384.63" y="84.01" xlink:href="#hl"/>
<use x="384.63" y="78.01" xlink:href="#hl"/>
<use x="384.63" y="78.01" xlink:href="#hd"/>
<path d="M381.13 78.01v35.20" stroke="currentColor" fill="none"/>
<use x="405.23" y="96.01" xlink:href="#hl"/>
<use x="405.23" y="90.01" xlink:href="#hl"/>
<use x="405.23" y="84.01" xlink:href="#hl"/>
<use x="405.23" y="81.01" xlink:href="#hd"/>
<path d="M401.73 81.01v32.20" stroke="currentColor" fill="none"/>
<use x="425.93" y="96.01" xlink:href="#hl"/>
<use x="425.93" y="90.01" xlink:href="#hl"/>
<use x="425.93" y="84.01" xlink:href="#hl"/>
<use x="425.93" y="84.01" xlink:href="#hd"/>
<path d="M422.43 84.01v29.20" stroke="currentColor" fill="none"/>
<path fill="currentColor"
	d="M444.93 114.21l42.00 0.00v-3.20l-42.00 -0.00"/>
<use x="448.73" y="96.01" xlink:href="#hl"/>
<use x="448.73" y="90.01" xlink:href="#hl"/>
<use x="448.73" y="84.01" xlink:href="#hl"/>
<use x="448.73" y="84.01" xlink:href="#hd"/>
<path d="M445.23 84.01v29.20" stroke="currentColor" fill="none"/>
<use x="469.43" y="96.01" xlink:href="#hl"/>
<use x="469.43" y="90.01" xlink:href="#hl"/>
<use x="469.43" y="87.01" xlink:href="#hd"/>
<path d="M465.93 87.01v26.20" stroke="currentColor" fill="none"/>
<use x="490.03" y="96.01" xlink:href="#hl"/>
<use x="490.03" y="90.01" xlink:href="#hl"/>
<use x="490.03" y="90.01" xlink:href="#hd"/>
<path d="M486.53 90.01v23.20" stroke="currentColor" fill="none"/>
<path fill="currentColor"
	d="M517.03 138.21l73.90 0.00v-3.20l-73.90 -0.00"/>
<path fill="currentColor"
	d="M569.13 133.21l21.50 0.00v-3.20l-21.50 -0.00"/>
<path fill="currentColor"
	d="M569.13 128.21l21.50 0.00v-3.20l-21.50 -0.00"/>
<use x="520.93" y="96.01" xlink:href="#hl"/>
<use x="520.93" y="90.01" xlink:href="#hl"/>
<use x="520.93" y="90.01" xlink:href="#hd"/>
<path d="M517.43 90.01v47.20" stroke="currentColor" fill="none"/>
<use x="541.53" y="96.01" xlink:href="#hl"/>
<use x="541.53" y="90.01" xlink:href="#hl"/>
<use x="541.53" y="87.01" xlink:href="#hd"/>
<path d="M538.03 87.01v50.20" stroke="currentColor" fill="none"/>
<use x="562.03" y="114.01" xlink:href="#r32"/>
<use x="572.63" y="96.01" xlink:href="#hl"/>
<use x="572.63" y="90.01" xlink:href="#hl"/>
<use x="572.63" y="84.01" xlink:href="#hl"/>
<use x="572.63" y="84.01" xlink:href="#hd"/>
<path d="M569.13 84.01v53.20" stroke="currentColor" fill="none"/>
<use x="583.43" y="96.01" xlink:href="#hl"/>
<use x="583.43" y="90.01" xlink:href="#hl"/>
<use x="583.43" y="84.01" xlink:href="#hl"/>
<use x="583.43" y="81.01" xlink:href="#hd"/>
<path d="M579.93 81.01v56.20" stroke="currentColor" fill="none"/>
<use x="594.13" y="96.01" xlink:href="#hl"/>
<use x="594.13" y="90.01" xlink:href="#hl"/>
<use x="594.13" y="84.01" xlink:href="#hl"/>
<use x="594.13" y="84.01" xlink:href="#hd"/>
<path d="M590.63 84.01v53.20" stroke="currentColor" fill="none"/>
<path fill="currentColor"
	d="M602.13 114.01l71.30 0.00v-3.20l-71.30 -0.00"/>
<path fill="currentColor"
	d="M602.43 109.01l32.00 0.00v-3.20l-32.00 -0.00"/>
<path fill="currentColor"
	d="M602.43 104.01l32.00 0.00v-3.20l-32.00 -0.00"/>
<path fill="currentColor"
	d="M629.93 99.01l-6.00 -0.00v-3.20l6.00 0.00"/>
<use x="605.93" y="96.01" xlink:href="#hl"/>
<use x="605.93" y="90.01" xlink:href="#hl"/>
<use x="605.93" y="84.01" xlink:href="#hl"/>
<use x="605.93" y="81.01" xlink:href="#hd"/>
<path d="M602.43 81.01v32.00" stroke="currentColor" fill="none"/>
<use x="616.73" y="96.01" xlink:href="#hl"/>
<use x="616.73" y="90.01" xlink:href="#hl"/>
<use x="616.73" y="84.01" xlink:href="#hl"/>
<use x="616.73" y="84.01" xlink:href="#hd"/>
<path d="M613.23 84.01v29.00" stroke="currentColor" fill="none"/>
<use x="627.43" y="96.01" xlink:href="#hl"/>
<use x="627.43" y="90.01" xlink:href="#hl"/>
<use x="627.43" y="84.01" xlink:href="#hl"/>
<use x="627.43" y="81.01" xlink:href="#hd"/>
<path d="M623.93 81.01v32.00" stroke="currentColor" fill="none"/>
<use x="637.93" y="96.01" xlink:href="#hl"/>
<use x="637.93" y="90.01" xlink:href="#hl"/>
<use x="637.93" y="84.01" xlink:href="#hl"/>
<use x="637.93" y="84.01" xlink:href="#hd"/>
<circle fill="currentColor" cx="645.93" cy="81.01" r="1.2"/>
<path d="M634.43 84.01v29.00" stroke="currentColor" fill="none"/>
<use x="655.93" y="96.01" xlink:href="#hl"/>
<use x="655.93" y="90.01" xlink:href="#hl"/>
<use x="655.93" y="87.01" xlink:href="#hd"/>
<path d="M652.43 87.01v26.00" stroke="currentColor" fill="none"/>
<use x="676.53" y="96.01" xlink:href="#hl"/>
<use x="676.53" y="90.01" xlink:href="#hl"/>
<use x="676.53" y="87.01" xlink:href="#hd"/>
<path d="M673.03 87.01v26.00" stroke="currentColor" fill="none"/>
</g>
</svg>
