<?xml version="1.0" standalone="no"?>
<!DOCTYPE svg PUBLIC "-//W3C//DTD SVG 1.1//EN"
	"http://www.w3.org/Graphics/SVG/1.1/DTD/svg11.dtd">
<svg xmlns="http://www.w3.org/2000/svg" version="1.1"
	xmlns:xlink="http://www.w3.org/1999/xlink"
	xml:space='preserve' color="black"
	width="7.38in" height="1.40in" viewBox="0 0 531 101">
<title>5797.abc (5797) tune 1</title>
<!-- Creator: abcm2ps-7.8.14 -->
<!-- CreationDate: Mar 13, 2016 18:54 -->
<!-- CommandLine: -qxg 5797.abc -O ../svgs/5797.svg -->
<g transform="scale(0.750)" stroke-width="0.70" font-family="Times" font-size="20.00">
<text x="354.13" y="21.67" text-anchor="middle">5797.  Sonatas, Longo 395 in A</text>
</g>
<g transform="scale(0.750)" stroke-width="0.70" font-family="Times" font-size="14.00" font-style="italic">
<text x="694.93" y="45.34" text-anchor="end">Domenico Scarlatti</text>
</g>
<g transform="scale(0.525)" stroke-width="0.70" font-family="Times" font-size="14.00" font-style="italic">
<defs>
<ellipse id="hd" rx="4.1" ry="2.9"
	transform="rotate(-20)" fill="currentColor"/>
</defs>
<use x="122.76" y="94.16" xlink:href="#hd"/>
<path d="M126.26 94.16v-20.00" stroke="currentColor" fill="none"/>
</g>
<g transform="scale(0.750)" stroke-width="0.70" font-family="Times" font-size="15.00" font-weight="bold">
<text x="93.63" y="68.01">= 120</text>
<path stroke="currentColor" fill="none"
	d="M194.63 111.01v-24.00"/>
<path stroke="currentColor" fill="none"
	d="M316.03 111.01v-24.00"/>
<path stroke="currentColor" fill="none"
	d="M534.23 111.01v-24.00"/>
<path stroke="currentColor" fill="none"
	d="M670.73 111.01v-24.00"/>
<path stroke="currentColor" fill="none"
	d="M13.33 111.01h681.60m-681.60 -6h681.60m-681.60 -6h681.60m-681.60 -6h681.60m-681.60 -6h681.60"/>
<defs>
<path id="utclef" fill="currentColor" d="m-50 -90
	c-72 -41 -72 -158 52 -188
	c150 -10 220 188 90 256
	c-114 52 -275 0 -293 -136
	c-15 -181 93 -229 220 -334
	c88 -87 79 -133 62 -210
	c-51 33 -94 105 -89 186
	c17 267 36 374 49 574
	c6 96 -19 134 -77 135
	c-80 1 -126 -93 -61 -133
	c85 -41 133 101 31 105
	c23 17 92 37 90 -92
	c-10 -223 -39 -342 -50 -617
	c0 -90 0 -162 96 -232
	c56 72 63 230 22 289
	c-74 106 -257 168 -255 316
	c9 153 148 185 252 133
	c86 -65 29 -192 -80 -176
	c-71 12 -105 67 -59 124"/>
<use id="tclef" transform="scale(0.045)"
	xlink:href="#utclef"/>
</defs>
<use x="25.33" y="111.01" xlink:href="#tclef"/>
<defs>
<path id="usharp" fill="currentColor" d="
	m136 -702
	v890
	h32
	v-890
	m128 840
	h32
	v-888
	h-32
	m-232 286
	v116
	l338 -96
	v-116
	m-338 442
	v116
	l338 -98
	v-114"/>
<use id="sh0" transform="translate(-4,5) scale(0.018)"
	xlink:href="#usharp"/>
</defs>
<use x="40.33" y="87.01" xlink:href="#sh0"/>
<use x="45.83" y="96.01" xlink:href="#sh0"/>
<use x="51.33" y="84.01" xlink:href="#sh0"/>
<g font-family="serif" font-size="16" font-weight="bold" font-style="normal"
	transform="translate(67.33,111.01) scale(1.2,1)">
	<text y="-1" text-anchor="middle">2</text>
	<text y="-13" text-anchor="middle">2</text>
</g>
<use x="85.33" y="102.01" xlink:href="#hd"/>
<path d="M88.83 102.01v-20.00" stroke="currentColor" fill="none"/>
<path fill="currentColor"
	d="	M88.83 82.01c0.6 5.6 9.6 9 5.6 18.4
	c1.6 -6 -1.3 -11.6 -5.6 -12.8
"/>
<use x="104.33" y="93.01" xlink:href="#hd"/>
<path d="M100.83 93.01v20.00" stroke="currentColor" fill="none"/>
<path fill="currentColor"
	d="M100.83 113.01c0.6 -5.6 9.6 -9 5.6 -18.4
	c1.6 6 -1.3 11.6 -5.6 12.8
"/>
<use x="117.43" y="96.01" xlink:href="#hd"/>
<path d="M113.93 96.01v20.00" stroke="currentColor" fill="none"/>
<path fill="currentColor"
	d="M113.93 116.01c0.6 -5.6 9.6 -9 5.6 -18.4
	c1.6 6 -1.3 11.6 -5.6 12.8
"/>
<use x="130.53" y="87.01" xlink:href="#hd"/>
<path d="M127.03 87.01v20.00" stroke="currentColor" fill="none"/>
<path fill="currentColor"
	d="M127.03 107.01c0.6 -5.6 9.6 -9 5.6 -18.4
	c1.6 6 -1.3 11.6 -5.6 12.8
"/>
<use x="143.63" y="90.01" xlink:href="#hd"/>
<path d="M140.13 90.01v20.00" stroke="currentColor" fill="none"/>
<path fill="currentColor"
	d="M140.13 110.01c0.6 -5.6 9.6 -9 5.6 -18.4
	c1.6 6 -1.3 11.6 -5.6 12.8
"/>
<defs>
<path id="hl" stroke="currentColor" d="m-6 0h12"/>
</defs>
<use x="156.73" y="81.01" xlink:href="#hl"/>
<use x="156.73" y="81.01" xlink:href="#hd"/>
<path d="M153.23 81.01v20.00" stroke="currentColor" fill="none"/>
<path fill="currentColor"
	d="M153.23 101.01c0.6 -5.6 9.6 -9 5.6 -18.4
	c1.6 6 -1.3 11.6 -5.6 12.8
"/>
<use x="169.83" y="84.01" xlink:href="#hd"/>
<path d="M166.33 84.01v20.00" stroke="currentColor" fill="none"/>
<path fill="currentColor"
	d="M166.33 104.01c0.6 -5.6 9.6 -9 5.6 -18.4
	c1.6 6 -1.3 11.6 -5.6 12.8
"/>
<use x="182.93" y="81.01" xlink:href="#hl"/>
<use x="182.93" y="78.01" xlink:href="#hd"/>
<path d="M179.43 78.01v21.00" stroke="currentColor" fill="none"/>
<path fill="currentColor"
	d="M179.43 99.01c0.6 -5.6 9.6 -9 5.6 -18.4
	c1.6 6 -1.3 11.6 -5.6 12.8
"/>
<use x="207.13" y="81.01" xlink:href="#hl"/>
<use x="207.13" y="81.01" xlink:href="#hd"/>
<path d="M203.63 81.01v20.00" stroke="currentColor" fill="none"/>
<path fill="currentColor"
	d="M203.63 101.01c0.6 -5.6 9.6 -9 5.6 -18.4
	c1.6 6 -1.3 11.6 -5.6 12.8
"/>
<use x="221.03" y="81.01" xlink:href="#hl"/>
<use x="221.03" y="75.01" xlink:href="#hl"/>
<use x="221.03" y="72.01" xlink:href="#hd"/>
<path d="M217.53 72.01v27.00" stroke="currentColor" fill="none"/>
<path fill="currentColor"
	d="M217.53 99.01c0.6 -5.6 9.6 -9 5.6 -18.4
	c1.6 6 -1.3 11.6 -5.6 12.8
"/>
<use x="234.93" y="81.01" xlink:href="#hl"/>
<use x="234.93" y="75.01" xlink:href="#hl"/>
<use x="234.93" y="75.01" xlink:href="#hd"/>
<path d="M231.43 75.01v24.00" stroke="currentColor" fill="none"/>
<path fill="currentColor"
	d="M231.43 99.01c0.6 -5.6 9.6 -9 5.6 -18.4
	c1.6 6 -1.3 11.6 -5.6 12.8
"/>
<use x="248.73" y="81.01" xlink:href="#hl"/>
<use x="248.73" y="75.01" xlink:href="#hl"/>
<use x="248.73" y="69.01" xlink:href="#hl"/>
<use x="248.73" y="66.01" xlink:href="#hd"/>
<path d="M245.23 66.01v33.00" stroke="currentColor" fill="none"/>
<path fill="currentColor"
	d="M245.23 99.01c0.6 -5.6 9.6 -9 5.6 -18.4
	c1.6 6 -1.3 11.6 -5.6 12.8
"/>
<use x="262.63" y="81.01" xlink:href="#hl"/>
<use x="262.63" y="75.01" xlink:href="#hl"/>
<use x="262.63" y="69.01" xlink:href="#hl"/>
<use x="262.63" y="69.01" xlink:href="#hd"/>
<path d="M259.13 69.01v30.00" stroke="currentColor" fill="none"/>
<path fill="currentColor"
	d="M259.13 99.01c0.6 -5.6 9.6 -9 5.6 -18.4
	c1.6 6 -1.3 11.6 -5.6 12.8
"/>
<use x="276.53" y="81.01" xlink:href="#hl"/>
<use x="276.53" y="75.01" xlink:href="#hl"/>
<use x="276.53" y="69.01" xlink:href="#hl"/>
<use x="276.53" y="63.01" xlink:href="#hl"/>
<use x="276.53" y="60.01" xlink:href="#hd"/>
<path d="M273.03 60.01v39.00" stroke="currentColor" fill="none"/>
<path fill="currentColor"
	d="M273.03 99.01c0.6 -5.6 9.6 -9 5.6 -18.4
	c1.6 6 -1.3 11.6 -5.6 12.8
"/>
<use x="290.43" y="81.01" xlink:href="#hl"/>
<use x="290.43" y="75.01" xlink:href="#hl"/>
<use x="290.43" y="69.01" xlink:href="#hl"/>
<use x="290.43" y="63.01" xlink:href="#hl"/>
<use x="290.43" y="63.01" xlink:href="#hd"/>
<path d="M286.93 63.01v36.00" stroke="currentColor" fill="none"/>
<path fill="currentColor"
	d="M286.93 99.01c0.6 -5.6 9.6 -9 5.6 -18.4
	c1.6 6 -1.3 11.6 -5.6 12.8
"/>
<use x="304.33" y="81.01" xlink:href="#hl"/>
<use x="304.33" y="75.01" xlink:href="#hl"/>
<use x="304.33" y="69.01" xlink:href="#hl"/>
<use x="304.33" y="63.01" xlink:href="#hl"/>
<use x="304.33" y="57.01" xlink:href="#hl"/>
<use x="304.33" y="57.01" xlink:href="#hd"/>
<path d="M300.83 57.01v42.00" stroke="currentColor" fill="none"/>
<path fill="currentColor"
	d="M300.83 99.01c0.6 -5.6 9.6 -9 5.6 -18.4
	c1.6 6 -1.3 11.6 -5.6 12.8
"/>
<use x="328.53" y="81.01" xlink:href="#hl"/>
<use x="328.53" y="75.01" xlink:href="#hl"/>
<use x="328.53" y="69.01" xlink:href="#hl"/>
<use x="328.53" y="63.01" xlink:href="#hl"/>
<use x="328.53" y="60.01" xlink:href="#hd"/>
<path d="M325.03 60.01v39.00" stroke="currentColor" fill="none"/>
<use x="345.83" y="81.01" xlink:href="#hl"/>
<use x="345.83" y="75.01" xlink:href="#hl"/>
<use x="345.83" y="69.01" xlink:href="#hl"/>
<use x="345.83" y="69.01" xlink:href="#hd"/>
<path d="M342.33 69.01v30.00" stroke="currentColor" fill="none"/>
<defs>
<path id="r8e" fill="currentColor" d="m 0 0
	c-1.5 1.5 -2.4 2 -3.6 2
	c2.4 -2.8 -2.8 -4 -2.8 -1.2
	c0 2.7 4.3 2.4 5.9 0.6"/>
<g id="r32">
	<path d="m4.8 -10l-5.5 21.6" stroke="currentColor" fill="none"/>
	<use x="4.9" y="-10" xlink:href="#r8e"/>
	<use x="3.4" y="-4" xlink:href="#r8e"/>
	<use x="1.9" y="2" xlink:href="#r8e"/>
</g>
</defs>
<use x="361.23" y="99.01" xlink:href="#r32"/>
<path fill="currentColor"
	d="M366.43 99.21l21.70 0.00v-3.20l-21.70 -0.00"/>
<path fill="currentColor"
	d="M366.73 94.21l21.00 0.00v-3.20l-21.00 -0.00"/>
<path fill="currentColor"
	d="M366.73 89.21l21.00 0.00v-3.20l-21.00 -0.00"/>
<use x="370.23" y="81.01" xlink:href="#hl"/>
<use x="370.23" y="75.01" xlink:href="#hl"/>
<use x="370.23" y="72.01" xlink:href="#hd"/>
<path d="M366.73 72.01v26.20" stroke="currentColor" fill="none"/>
<use x="380.73" y="81.01" xlink:href="#hl"/>
<use x="380.73" y="75.01" xlink:href="#hl"/>
<use x="380.73" y="69.01" xlink:href="#hl"/>
<use x="380.73" y="69.01" xlink:href="#hd"/>
<path d="M377.23 69.01v29.20" stroke="currentColor" fill="none"/>
<use x="391.23" y="81.01" xlink:href="#hl"/>
<use x="391.23" y="75.01" xlink:href="#hl"/>
<use x="391.23" y="72.01" xlink:href="#hd"/>
<path d="M387.73 72.01v26.20" stroke="currentColor" fill="none"/>
<path fill="currentColor"
	d="M397.93 99.21l32.20 0.00v-3.20l-32.20 -0.00"/>
<path fill="currentColor"
	d="M398.23 94.21l31.50 0.00v-3.20l-31.50 -0.00"/>
<path fill="currentColor"
	d="M398.23 89.21l31.50 0.00v-3.20l-31.50 -0.00"/>
<use x="401.73" y="81.01" xlink:href="#hl"/>
<use x="401.73" y="75.01" xlink:href="#hl"/>
<use x="401.73" y="69.01" xlink:href="#hl"/>
<use x="401.73" y="69.01" xlink:href="#hd"/>
<path d="M398.23 69.01v29.20" stroke="currentColor" fill="none"/>
<use x="412.23" y="81.01" xlink:href="#hl"/>
<use x="412.23" y="75.01" xlink:href="#hl"/>
<use x="412.23" y="72.01" xlink:href="#hd"/>
<path d="M408.73 72.01v26.20" stroke="currentColor" fill="none"/>
<use x="422.73" y="81.01" xlink:href="#hl"/>
<use x="422.73" y="75.01" xlink:href="#hl"/>
<use x="422.73" y="69.01" xlink:href="#hl"/>
<use x="422.73" y="69.01" xlink:href="#hd"/>
<path d="M419.23 69.01v29.20" stroke="currentColor" fill="none"/>
<use x="433.23" y="81.01" xlink:href="#hl"/>
<use x="433.23" y="75.01" xlink:href="#hl"/>
<use x="433.23" y="72.01" xlink:href="#hd"/>
<path d="M429.73 72.01v26.20" stroke="currentColor" fill="none"/>
<path fill="currentColor"
	d="M439.93 99.21l32.20 0.00v-3.20l-32.20 -0.00"/>
<path fill="currentColor"
	d="M440.23 94.21l31.50 0.00v-3.20l-31.50 -0.00"/>
<path fill="currentColor"
	d="M440.23 89.21l31.50 0.00v-3.20l-31.50 -0.00"/>
<use x="443.73" y="81.01" xlink:href="#hl"/>
<use x="443.73" y="75.01" xlink:href="#hl"/>
<use x="443.73" y="69.01" xlink:href="#hl"/>
<use x="443.73" y="69.01" xlink:href="#hd"/>
<path d="M440.23 69.01v29.20" stroke="currentColor" fill="none"/>
<use x="454.23" y="81.01" xlink:href="#hl"/>
<use x="454.23" y="75.01" xlink:href="#hl"/>
<use x="454.23" y="72.01" xlink:href="#hd"/>
<path d="M450.73 72.01v26.20" stroke="currentColor" fill="none"/>
<use x="464.73" y="81.01" xlink:href="#hl"/>
<use x="464.73" y="75.01" xlink:href="#hl"/>
<use x="464.73" y="69.01" xlink:href="#hl"/>
<use x="464.73" y="69.01" xlink:href="#hd"/>
<path d="M461.23 69.01v29.20" stroke="currentColor" fill="none"/>
<use x="475.23" y="81.01" xlink:href="#hl"/>
<use x="475.23" y="75.01" xlink:href="#hl"/>
<use x="475.23" y="72.01" xlink:href="#hd"/>
<path d="M471.73 72.01v26.20" stroke="currentColor" fill="none"/>
<path fill="currentColor"
	d="M481.93 99.01l32.20 0.00v-3.20l-32.20 -0.00"/>
<path fill="currentColor"
	d="M482.23 94.01l31.50 0.00v-3.20l-31.50 -0.00"/>
<path fill="currentColor"
	d="M482.23 89.01l31.50 0.00v-3.20l-31.50 -0.00"/>
<path fill="currentColor"
	d="M509.23 84.01l-6.00 -0.00v-3.20l6.00 0.00"/>
<use x="485.73" y="81.01" xlink:href="#hl"/>
<use x="485.73" y="75.01" xlink:href="#hl"/>
<use x="485.73" y="69.01" xlink:href="#hl"/>
<use x="485.73" y="69.01" xlink:href="#hd"/>
<path d="M482.23 69.01v29.00" stroke="currentColor" fill="none"/>
<use x="496.23" y="81.01" xlink:href="#hl"/>
<use x="496.23" y="75.01" xlink:href="#hl"/>
<use x="496.23" y="72.01" xlink:href="#hd"/>
<path d="M492.73 72.01v26.00" stroke="currentColor" fill="none"/>
<use x="506.73" y="81.01" xlink:href="#hl"/>
<use x="506.73" y="75.01" xlink:href="#hl"/>
<use x="506.73" y="69.01" xlink:href="#hl"/>
<use x="506.73" y="69.01" xlink:href="#hd"/>
<path d="M503.23 69.01v29.00" stroke="currentColor" fill="none"/>
<use x="517.23" y="81.01" xlink:href="#hl"/>
<use x="517.23" y="75.01" xlink:href="#hl"/>
<use x="517.23" y="72.01" xlink:href="#hd"/>
<circle fill="currentColor" cx="525.23" cy="72.01" r="1.2"/>
<path d="M513.73 72.01v26.00" stroke="currentColor" fill="none"/>
<use x="546.73" y="81.01" xlink:href="#hl"/>
<use x="546.73" y="75.01" xlink:href="#hl"/>
<use x="546.73" y="75.01" xlink:href="#hd"/>
<path d="M543.23 75.01v24.00" stroke="currentColor" fill="none"/>
<use x="562.13" y="99.01" xlink:href="#r32"/>
<path fill="currentColor"
	d="M567.23 99.21l21.70 0.00v-3.20l-21.70 -0.00"/>
<path fill="currentColor"
	d="M567.63 94.21l21.00 0.00v-3.20l-21.00 -0.00"/>
<path fill="currentColor"
	d="M567.63 89.21l21.00 0.00v-3.20l-21.00 -0.00"/>
<use x="571.13" y="81.01" xlink:href="#hl"/>
<use x="571.13" y="75.01" xlink:href="#hl"/>
<use x="571.13" y="69.01" xlink:href="#hl"/>
<use x="571.13" y="69.01" xlink:href="#hd"/>
<path d="M567.63 69.01v29.20" stroke="currentColor" fill="none"/>
<use x="581.63" y="81.01" xlink:href="#hl"/>
<use x="581.63" y="75.01" xlink:href="#hl"/>
<use x="581.63" y="69.01" xlink:href="#hl"/>
<use x="581.63" y="66.01" xlink:href="#hd"/>
<path d="M578.13 66.01v32.20" stroke="currentColor" fill="none"/>
<use x="592.13" y="81.01" xlink:href="#hl"/>
<use x="592.13" y="75.01" xlink:href="#hl"/>
<use x="592.13" y="69.01" xlink:href="#hl"/>
<use x="592.13" y="69.01" xlink:href="#hd"/>
<path d="M588.63 69.01v29.20" stroke="currentColor" fill="none"/>
<path fill="currentColor"
	d="M598.73 99.01l32.20 0.00v-3.20l-32.20 -0.00"/>
<path fill="currentColor"
	d="M599.13 94.01l31.50 0.00v-3.20l-31.50 -0.00"/>
<path fill="currentColor"
	d="M599.13 89.01l31.50 0.00v-3.20l-31.50 -0.00"/>
<path fill="currentColor"
	d="M626.13 84.01l-6.00 -0.00v-3.20l6.00 0.00"/>
<use x="602.63" y="81.01" xlink:href="#hl"/>
<use x="602.63" y="75.01" xlink:href="#hl"/>
<use x="602.63" y="69.01" xlink:href="#hl"/>
<use x="602.63" y="66.01" xlink:href="#hd"/>
<path d="M599.13 66.01v32.00" stroke="currentColor" fill="none"/>
<use x="613.13" y="81.01" xlink:href="#hl"/>
<use x="613.13" y="75.01" xlink:href="#hl"/>
<use x="613.13" y="69.01" xlink:href="#hl"/>
<use x="613.13" y="69.01" xlink:href="#hd"/>
<path d="M609.63 69.01v29.00" stroke="currentColor" fill="none"/>
<use x="623.63" y="81.01" xlink:href="#hl"/>
<use x="623.63" y="75.01" xlink:href="#hl"/>
<use x="623.63" y="69.01" xlink:href="#hl"/>
<use x="623.63" y="66.01" xlink:href="#hd"/>
<path d="M620.13 66.01v32.00" stroke="currentColor" fill="none"/>
<use x="634.13" y="81.01" xlink:href="#hl"/>
<use x="634.13" y="75.01" xlink:href="#hl"/>
<use x="634.13" y="69.01" xlink:href="#hl"/>
<use x="634.13" y="69.01" xlink:href="#hd"/>
<circle fill="currentColor" cx="642.13" cy="66.01" r="1.2"/>
<path d="M630.63 69.01v29.00" stroke="currentColor" fill="none"/>
<use x="652.13" y="81.01" xlink:href="#hl"/>
<use x="652.13" y="75.01" xlink:href="#hl"/>
<defs>
<path id="Hd" fill="currentColor" d="m3 -1.6
	c-1 -1.8 -7 1.4 -6 3.2
	c1 1.8 7 -1.4 6 -3.2
	m0.5 -0.3
	c2 3.8 -5 7.6 -7 3.8
	c-2 -3.8 5 -7.6 7 -3.8"/>
</defs>
<use x="652.13" y="72.01" xlink:href="#Hd"/>
<path d="M648.63 72.01v27.00" stroke="currentColor" fill="none"/>
<use x="683.23" y="81.01" xlink:href="#hl"/>
<use x="683.23" y="75.01" xlink:href="#hl"/>
<use x="683.23" y="75.01" xlink:href="#hd"/>
<path d="M679.73 75.01v24.00" stroke="currentColor" fill="none"/>
</g>
</svg>
