<?xml version="1.0" standalone="no"?>
<!DOCTYPE svg PUBLIC "-//W3C//DTD SVG 1.1//EN"
	"http://www.w3.org/Graphics/SVG/1.1/DTD/svg11.dtd">
<svg xmlns="http://www.w3.org/2000/svg" version="1.1"
	xmlns:xlink="http://www.w3.org/1999/xlink"
	xml:space='preserve' color="black"
	width="7.38in" height="1.65in" viewBox="0 0 531 119">
<title>5808.abc (5808) tune 1</title>
<!-- Creator: abcm2ps-7.8.14 -->
<!-- CreationDate: Mar 13, 2016 18:54 -->
<!-- CommandLine: -qxg 5808.abc -O ../svgs/5808.svg -->
<g transform="scale(0.750)" stroke-width="0.70" font-family="Times" font-size="20.00">
<text x="354.13" y="21.67" text-anchor="middle">5808.  Sonatas, Longo 474 in F</text>
</g>
<g transform="scale(0.750)" stroke-width="0.70" font-family="Times" font-size="14.00" font-style="italic">
<text x="694.93" y="45.34" text-anchor="end">Domenico Scarlatti</text>
</g>
<g transform="scale(0.525)" stroke-width="0.70" font-family="Times" font-size="14.00" font-style="italic">
<defs>
<ellipse id="hd" rx="4.1" ry="2.9"
	transform="rotate(-20)" fill="currentColor"/>
</defs>
<use x="107.04" y="94.16" xlink:href="#hd"/>
<path d="M110.54 94.16v-20.00" stroke="currentColor" fill="none"/>
</g>
<g transform="scale(0.750)" stroke-width="0.70" font-family="Times" font-size="15.00" font-weight="bold">
<text x="82.63" y="68.01">= 120</text>
<path stroke="currentColor" fill="none"
	d="M182.33 135.01v-24.00"/>
<path stroke="currentColor" fill="none"
	d="M313.33 135.01v-24.00"/>
<path stroke="currentColor" fill="none"
	d="M435.53 135.01v-24.00"/>
<path stroke="currentColor" fill="none"
	d="M546.03 135.01v-24.00"/>
<path stroke="currentColor" fill="none"
	d="M13.33 135.01h532.70m-532.70 -6h532.70m-532.70 -6h532.70m-532.70 -6h532.70m-532.70 -6h532.70"/>
<text font-family="serif" font-size="12" font-style="italic" font-weight="normal"
	x="489.03" y="145.21" text-anchor="middle">3</text>
<defs>
<path id="utclef" fill="currentColor" d="m-50 -90
	c-72 -41 -72 -158 52 -188
	c150 -10 220 188 90 256
	c-114 52 -275 0 -293 -136
	c-15 -181 93 -229 220 -334
	c88 -87 79 -133 62 -210
	c-51 33 -94 105 -89 186
	c17 267 36 374 49 574
	c6 96 -19 134 -77 135
	c-80 1 -126 -93 -61 -133
	c85 -41 133 101 31 105
	c23 17 92 37 90 -92
	c-10 -223 -39 -342 -50 -617
	c0 -90 0 -162 96 -232
	c56 72 63 230 22 289
	c-74 106 -257 168 -255 316
	c9 153 148 185 252 133
	c86 -65 29 -192 -80 -176
	c-71 12 -105 67 -59 124"/>
<use id="tclef" transform="scale(0.045)"
	xlink:href="#utclef"/>
</defs>
<use x="25.33" y="135.01" xlink:href="#tclef"/>
<defs>
<path id="uflat" fill="currentColor" d="
	m100 -746
	h32
	v734
	l-32 4
	m32 -332
	c46 -72 152 -90 208 -20
	c100 110 -120 326 -208 348
	m0 -28
	c54 0 200 -206 130 -290
	c-50 -60 -130 -4 -130 34"/>
<use id="ft0" transform="translate(-3.5,3.5) scale(0.018)"
	xlink:href="#uflat"/>
</defs>
<use x="40.33" y="123.01" xlink:href="#ft0"/>
<g font-family="serif" font-size="16" font-weight="bold" font-style="normal"
	transform="translate(56.33,135.01) scale(1.2,1)">
	<text y="-1" text-anchor="middle">8</text>
	<text y="-13" text-anchor="middle">3</text>
</g>
<path fill="currentColor"
	d="M70.53 123.21l36.70 0.00v-3.20l-36.70 -0.00"/>
<path fill="currentColor"
	d="M70.83 118.21l36.00 0.00v-3.20l-36.00 -0.00"/>
<defs>
<path id="hl" stroke="currentColor" d="m-6 0h12"/>
</defs>
<use x="74.33" y="105.01" xlink:href="#hl"/>
<use x="74.33" y="99.01" xlink:href="#hl"/>
<use x="74.33" y="93.01" xlink:href="#hl"/>
<use x="74.33" y="87.01" xlink:href="#hl"/>
<use x="74.33" y="81.01" xlink:href="#hl"/>
<use x="74.33" y="78.01" xlink:href="#hd"/>
<path d="M70.83 78.01v44.20" stroke="currentColor" fill="none"/>
<use x="92.33" y="105.01" xlink:href="#hl"/>
<use x="92.33" y="99.01" xlink:href="#hl"/>
<use x="92.33" y="93.01" xlink:href="#hl"/>
<use x="92.33" y="87.01" xlink:href="#hl"/>
<use x="92.33" y="84.01" xlink:href="#hd"/>
<path d="M88.83 84.01v38.20" stroke="currentColor" fill="none"/>
<use x="110.33" y="105.01" xlink:href="#hl"/>
<use x="110.33" y="99.01" xlink:href="#hl"/>
<use x="110.33" y="99.01" xlink:href="#hd"/>
<path d="M106.83 99.01v23.20" stroke="currentColor" fill="none"/>
<path fill="currentColor"
	d="M126.53 123.21l36.70 0.00v-3.20l-36.70 -0.00"/>
<path fill="currentColor"
	d="M126.83 118.21l36.00 0.00v-3.20l-36.00 -0.00"/>
<use x="130.33" y="105.01" xlink:href="#hl"/>
<use x="130.33" y="99.01" xlink:href="#hl"/>
<use x="130.33" y="93.01" xlink:href="#hl"/>
<use x="130.33" y="90.01" xlink:href="#hd"/>
<path d="M126.83 90.01v32.20" stroke="currentColor" fill="none"/>
<use x="148.33" y="105.01" xlink:href="#hl"/>
<use x="148.33" y="99.01" xlink:href="#hl"/>
<use x="148.33" y="93.01" xlink:href="#hl"/>
<use x="148.33" y="93.01" xlink:href="#hd"/>
<path d="M144.83 93.01v29.20" stroke="currentColor" fill="none"/>
<use x="166.33" y="105.01" xlink:href="#hl"/>
<use x="166.33" y="99.01" xlink:href="#hl"/>
<use x="166.33" y="93.01" xlink:href="#hl"/>
<use x="166.33" y="87.01" xlink:href="#hl"/>
<use x="166.33" y="87.01" xlink:href="#hd"/>
<path d="M162.83 87.01v35.20" stroke="currentColor" fill="none"/>
<defs>
<path id="r8e" fill="currentColor" d="m 0 0
	c-1.5 1.5 -2.4 2 -3.6 2
	c2.4 -2.8 -2.8 -4 -2.8 -1.2
	c0 2.7 4.3 2.4 5.9 0.6"/>
<g id="r32">
	<path d="m4.8 -10l-5.5 21.6" stroke="currentColor" fill="none"/>
	<use x="4.9" y="-10" xlink:href="#r8e"/>
	<use x="3.4" y="-4" xlink:href="#r8e"/>
	<use x="1.9" y="2" xlink:href="#r8e"/>
</g>
</defs>
<use x="196.43" y="123.01" xlink:href="#r32"/>
<path fill="currentColor"
	d="M206.83 123.21l31.40 0.00v-3.20l-31.40 -0.00"/>
<path fill="currentColor"
	d="M207.13 118.21l30.70 0.00v-3.20l-30.70 -0.00"/>
<path fill="currentColor"
	d="M213.13 113.21l-6.00 -0.00v-3.20l6.00 0.00"/>
<use x="210.63" y="105.01" xlink:href="#hl"/>
<use x="210.63" y="99.01" xlink:href="#hl"/>
<use x="210.63" y="93.01" xlink:href="#hl"/>
<use x="210.63" y="90.01" xlink:href="#hd"/>
<path d="M207.13 90.01v32.20" stroke="currentColor" fill="none"/>
<use x="223.33" y="105.01" xlink:href="#hl"/>
<use x="223.33" y="99.01" xlink:href="#hl"/>
<use x="223.33" y="93.01" xlink:href="#hl"/>
<use x="223.33" y="93.01" xlink:href="#hd"/>
<path d="M219.83 93.01v29.20" stroke="currentColor" fill="none"/>
<use x="241.33" y="105.01" xlink:href="#hl"/>
<use x="241.33" y="99.01" xlink:href="#hl"/>
<use x="241.33" y="93.01" xlink:href="#hl"/>
<use x="241.33" y="90.01" xlink:href="#hd"/>
<path d="M237.83 90.01v32.20" stroke="currentColor" fill="none"/>
<path fill="currentColor"
	d="M257.53 123.21l36.70 0.00v-3.20l-36.70 -0.00"/>
<path fill="currentColor"
	d="M257.83 118.21l36.00 0.00v-3.20l-36.00 -0.00"/>
<use x="261.33" y="105.01" xlink:href="#hl"/>
<use x="261.33" y="99.01" xlink:href="#hl"/>
<use x="261.33" y="93.01" xlink:href="#hl"/>
<use x="261.33" y="87.01" xlink:href="#hl"/>
<use x="261.33" y="87.01" xlink:href="#hd"/>
<path d="M257.83 87.01v35.20" stroke="currentColor" fill="none"/>
<use x="279.33" y="105.01" xlink:href="#hl"/>
<use x="279.33" y="99.01" xlink:href="#hl"/>
<use x="279.33" y="93.01" xlink:href="#hl"/>
<use x="279.33" y="87.01" xlink:href="#hl"/>
<use x="279.33" y="84.01" xlink:href="#hd"/>
<path d="M275.83 84.01v38.20" stroke="currentColor" fill="none"/>
<use x="297.33" y="105.01" xlink:href="#hl"/>
<use x="297.33" y="99.01" xlink:href="#hl"/>
<use x="297.33" y="93.01" xlink:href="#hl"/>
<use x="297.33" y="90.01" xlink:href="#hd"/>
<path d="M293.83 90.01v32.20" stroke="currentColor" fill="none"/>
<path fill="currentColor"
	d="M323.63 123.21l36.70 0.00v-3.20l-36.70 -0.00"/>
<path fill="currentColor"
	d="M324.03 118.21l36.00 0.00v-3.20l-36.00 -0.00"/>
<use x="327.53" y="105.01" xlink:href="#hl"/>
<use x="327.53" y="99.01" xlink:href="#hl"/>
<use x="327.53" y="93.01" xlink:href="#hl"/>
<use x="327.53" y="87.01" xlink:href="#hl"/>
<use x="327.53" y="81.01" xlink:href="#hl"/>
<use x="327.53" y="81.01" xlink:href="#hd"/>
<path d="M324.03 81.01v41.20" stroke="currentColor" fill="none"/>
<use x="345.53" y="105.01" xlink:href="#hl"/>
<use x="345.53" y="99.01" xlink:href="#hl"/>
<use x="345.53" y="93.01" xlink:href="#hl"/>
<use x="345.53" y="87.01" xlink:href="#hl"/>
<use x="345.53" y="87.01" xlink:href="#hd"/>
<path d="M342.03 87.01v35.20" stroke="currentColor" fill="none"/>
<use x="363.53" y="105.01" xlink:href="#hl"/>
<use x="363.53" y="99.01" xlink:href="#hl"/>
<use x="363.53" y="93.01" xlink:href="#hl"/>
<use x="363.53" y="93.01" xlink:href="#hd"/>
<path d="M360.03 93.01v29.20" stroke="currentColor" fill="none"/>
<path fill="currentColor"
	d="M379.63 126.81l36.70 3.50v-3.20l-36.70 -3.50"/>
<path fill="currentColor"
	d="M380.03 121.81l36.00 3.40v-3.20l-36.00 -3.40"/>
<use x="383.53" y="105.01" xlink:href="#hl"/>
<use x="383.53" y="99.01" xlink:href="#hl"/>
<use x="383.53" y="99.01" xlink:href="#hd"/>
<path d="M380.03 99.01v26.80" stroke="currentColor" fill="none"/>
<use x="401.53" y="105.01" xlink:href="#hl"/>
<use x="401.53" y="102.01" xlink:href="#hd"/>
<path d="M398.03 102.01v25.50" stroke="currentColor" fill="none"/>
<use x="419.53" y="108.01" xlink:href="#hd"/>
<path d="M416.03 108.01v21.20" stroke="currentColor" fill="none"/>
<use x="449.63" y="105.01" xlink:href="#hl"/>
<use x="449.63" y="105.01" xlink:href="#hd"/>
<path d="M446.13 105.01v25.00" stroke="currentColor" fill="none"/>
<path fill="currentColor"
	d="M446.13 130.01c0.9 -3.7 9.1 -6.4 6 -12.4
	c1 5.4 -4.2 8.4 -6 8.4
M446.13 124.61c0.9 -3.7 9.1 -6.4 6 -12.4
	c1 5.4 -4.2 8.4 -6 8.4
M446.13 119.21c0.9 -3.7 9.1 -6.4 6 -12.4
	c1 5.4 -4.2 8.4 -6 8.4
"/>
<use x="462.43" y="123.01" xlink:href="#r32"/>
<path fill="currentColor"
	d="M472.73 130.31l28.80 -4.30v-3.20l-28.80 4.30"/>
<path fill="currentColor"
	d="M473.03 125.21l28.10 -4.20v-3.20l-28.10 4.20"/>
<use x="476.53" y="108.01" xlink:href="#hd"/>
<path d="M473.03 108.01v21.20" stroke="currentColor" fill="none"/>
<use x="490.63" y="105.01" xlink:href="#hl"/>
<use x="490.63" y="105.01" xlink:href="#hd"/>
<path d="M487.13 105.01v22.10" stroke="currentColor" fill="none"/>
<use x="504.63" y="105.01" xlink:href="#hl"/>
<use x="504.63" y="102.01" xlink:href="#hd"/>
<path d="M501.13 102.01v23.00" stroke="currentColor" fill="none"/>
<use x="520.23" y="105.01" xlink:href="#hl"/>
<use x="520.23" y="105.01" xlink:href="#hd"/>
<circle fill="currentColor" cx="528.23" cy="102.01" r="1.2"/>
<path d="M516.73 105.01v20.00" stroke="currentColor" fill="none"/>
<path fill="currentColor"
	d="M516.73 125.01c0.6 -5.6 9.6 -9 5.6 -18.4
	c1.6 6 -1.3 11.6 -5.6 12.8
"/>
</g>
</svg>
