<?xml version="1.0" standalone="no"?>
<!DOCTYPE svg PUBLIC "-//W3C//DTD SVG 1.1//EN"
	"http://www.w3.org/Graphics/SVG/1.1/DTD/svg11.dtd">
<svg xmlns="http://www.w3.org/2000/svg" version="1.1"
	xmlns:xlink="http://www.w3.org/1999/xlink"
	xml:space='preserve' color="black"
	width="7.38in" height="1.45in" viewBox="0 0 531 104">
<title>5823.abc (5823) tune 1</title>
<!-- Creator: abcm2ps-7.8.14 -->
<!-- CreationDate: Mar 13, 2016 18:54 -->
<!-- CommandLine: -qxg 5823.abc -O ../svgs/5823.svg -->
<g transform="scale(0.750)" stroke-width="0.70" font-family="Times" font-size="20.00">
<text x="354.13" y="21.67" text-anchor="middle">5823.  Polish Dance, Op. 3, No. 1, 2nd. Theme</text>
</g>
<g transform="scale(0.750)" stroke-width="0.70" font-family="Times" font-size="14.00" font-style="italic">
<text x="694.93" y="45.34" text-anchor="end">Franz Scharwenka</text>
</g>
<g transform="scale(0.525)" stroke-width="0.70" font-family="Times" font-size="14.00" font-style="italic">
<defs>
<ellipse id="hd" rx="4.1" ry="2.9"
	transform="rotate(-20)" fill="currentColor"/>
</defs>
<use x="122.76" y="94.16" xlink:href="#hd"/>
<path d="M126.26 94.16v-20.00" stroke="currentColor" fill="none"/>
</g>
<g transform="scale(0.750)" stroke-width="0.70" font-family="Times" font-size="15.00" font-weight="bold">
<text x="93.63" y="68.01">= 120</text>
<path stroke="currentColor" fill="none"
	d="M190.33 116.01v-24.00"/>
<path stroke="currentColor" fill="none"
	d="M337.93 116.01v-24.00"/>
<path stroke="currentColor" fill="none"
	d="M491.83 116.01v-24.00"/>
<path stroke="currentColor" fill="none"
	d="M633.43 116.01v-24.00"/>
<path stroke="currentColor" fill="none"
	d="M13.33 116.01h681.60m-681.60 -6h681.60m-681.60 -6h681.60m-681.60 -6h681.60m-681.60 -6h681.60"/>
<defs>
<path id="utclef" fill="currentColor" d="m-50 -90
	c-72 -41 -72 -158 52 -188
	c150 -10 220 188 90 256
	c-114 52 -275 0 -293 -136
	c-15 -181 93 -229 220 -334
	c88 -87 79 -133 62 -210
	c-51 33 -94 105 -89 186
	c17 267 36 374 49 574
	c6 96 -19 134 -77 135
	c-80 1 -126 -93 -61 -133
	c85 -41 133 101 31 105
	c23 17 92 37 90 -92
	c-10 -223 -39 -342 -50 -617
	c0 -90 0 -162 96 -232
	c56 72 63 230 22 289
	c-74 106 -257 168 -255 316
	c9 153 148 185 252 133
	c86 -65 29 -192 -80 -176
	c-71 12 -105 67 -59 124"/>
<use id="tclef" transform="scale(0.045)"
	xlink:href="#utclef"/>
</defs>
<use x="25.33" y="116.01" xlink:href="#tclef"/>
<defs>
<path id="uflat" fill="currentColor" d="
	m100 -746
	h32
	v734
	l-32 4
	m32 -332
	c46 -72 152 -90 208 -20
	c100 110 -120 326 -208 348
	m0 -28
	c54 0 200 -206 130 -290
	c-50 -60 -130 -4 -130 34"/>
<use id="ft0" transform="translate(-3.5,3.5) scale(0.018)"
	xlink:href="#uflat"/>
</defs>
<use x="40.33" y="104.01" xlink:href="#ft0"/>
<use x="45.83" y="95.01" xlink:href="#ft0"/>
<use x="51.33" y="107.01" xlink:href="#ft0"/>
<g font-family="serif" font-size="16" font-weight="bold" font-style="normal"
	transform="translate(67.33,116.01) scale(1.2,1)">
	<text y="-1" text-anchor="middle">4</text>
	<text y="-13" text-anchor="middle">3</text>
</g>
<defs>
<path id="hl" stroke="currentColor" d="m-6 0h12"/>
</defs>
<use x="85.33" y="86.01" xlink:href="#hl"/>
<use x="85.33" y="83.01" xlink:href="#hd"/>
<circle fill="currentColor" cx="93.33" cy="83.01" r="1.2"/>
<path d="M81.83 83.01v21.00" stroke="currentColor" fill="none"/>
<path fill="currentColor"
	d="M122.93 106.01l17.10 0.00v-3.20l-17.10 -0.00"/>
<path fill="currentColor"
	d="M123.23 101.01l16.40 0.00v-3.20l-16.40 -0.00"/>
<use x="126.73" y="86.01" xlink:href="#hl"/>
<use x="126.73" y="83.01" xlink:href="#hd"/>
<path d="M123.23 83.01v22.00" stroke="currentColor" fill="none"/>
<use x="143.13" y="86.01" xlink:href="#hl"/>
<use x="143.13" y="80.01" xlink:href="#hl"/>
<use x="143.13" y="80.01" xlink:href="#hd"/>
<path d="M139.63 80.01v25.00" stroke="currentColor" fill="none"/>
<use x="161.33" y="86.01" xlink:href="#hl"/>
<use x="161.33" y="80.01" xlink:href="#hl"/>
<use x="161.33" y="77.01" xlink:href="#hd"/>
<path d="M157.83 77.01v27.00" stroke="currentColor" fill="none"/>
<path fill="currentColor"
	d="M199.43 104.21l46.90 0.00v-3.20l-46.90 -0.00"/>
<use x="203.33" y="86.01" xlink:href="#hl"/>
<use x="203.33" y="80.01" xlink:href="#hl"/>
<use x="203.33" y="74.01" xlink:href="#hl"/>
<use x="203.33" y="74.01" xlink:href="#hd"/>
<path d="M199.83 74.01v29.20" stroke="currentColor" fill="none"/>
<use x="226.43" y="86.01" xlink:href="#hl"/>
<use x="226.43" y="80.01" xlink:href="#hl"/>
<use x="226.43" y="74.01" xlink:href="#hl"/>
<use x="226.43" y="71.01" xlink:href="#hd"/>
<path d="M222.93 71.01v32.20" stroke="currentColor" fill="none"/>
<use x="249.53" y="86.01" xlink:href="#hl"/>
<use x="249.53" y="80.01" xlink:href="#hl"/>
<use x="249.53" y="74.01" xlink:href="#hl"/>
<use x="249.53" y="68.01" xlink:href="#hl"/>
<use x="249.53" y="68.01" xlink:href="#hd"/>
<path d="M246.03 68.01v35.20" stroke="currentColor" fill="none"/>
<defs>
<path id="r8e" fill="currentColor" d="m 0 0
	c-1.5 1.5 -2.4 2 -3.6 2
	c2.4 -2.8 -2.8 -4 -2.8 -1.2
	c0 2.7 4.3 2.4 5.9 0.6"/>
<g id="r16">
	<path d="m3.3 -4l-4 15.6" stroke="currentColor" fill="none"/>
	<use x="3.4" y="-4" xlink:href="#r8e"/>
	<use x="1.9" y="2" xlink:href="#r8e"/>
</g>
</defs>
<use x="272.63" y="104.01" xlink:href="#r16"/>
<use x="290.73" y="86.01" xlink:href="#hl"/>
<use x="290.73" y="80.01" xlink:href="#hl"/>
<use x="290.73" y="74.01" xlink:href="#hl"/>
<use x="290.73" y="68.01" xlink:href="#hl"/>
<use x="290.73" y="65.01" xlink:href="#hd"/>
<path d="M287.23 65.01v39.00" stroke="currentColor" fill="none"/>
<path fill="currentColor"
	d="M287.23 104.01c0.9 -3.7 9.1 -6.4 6 -12.4
	c1 5.4 -4.2 8.4 -6 8.4
M287.23 98.61c0.9 -3.7 9.1 -6.4 6 -12.4
	c1 5.4 -4.2 8.4 -6 8.4
"/>
<use x="308.93" y="86.01" xlink:href="#hl"/>
<use x="308.93" y="80.01" xlink:href="#hl"/>
<use x="308.93" y="74.01" xlink:href="#hl"/>
<use x="308.93" y="68.01" xlink:href="#hl"/>
<use x="308.93" y="62.01" xlink:href="#hl"/>
<use x="308.93" y="62.01" xlink:href="#hd"/>
<path d="M305.43 62.01v42.00" stroke="currentColor" fill="none"/>
<path fill="currentColor"
	d="M347.03 104.21l46.90 0.00v-3.20l-46.90 -0.00"/>
<use x="350.83" y="86.01" xlink:href="#hl"/>
<use x="350.83" y="80.01" xlink:href="#hl"/>
<use x="350.83" y="74.01" xlink:href="#hl"/>
<use x="350.83" y="68.01" xlink:href="#hl"/>
<use x="350.83" y="62.01" xlink:href="#hl"/>
<use x="350.83" y="62.01" xlink:href="#hd"/>
<path d="M347.33 62.01v41.20" stroke="currentColor" fill="none"/>
<use x="373.93" y="86.01" xlink:href="#hl"/>
<use x="373.93" y="80.01" xlink:href="#hl"/>
<use x="373.93" y="74.01" xlink:href="#hl"/>
<use x="373.93" y="68.01" xlink:href="#hl"/>
<use x="373.93" y="68.01" xlink:href="#hd"/>
<path d="M370.43 68.01v35.20" stroke="currentColor" fill="none"/>
<use x="397.03" y="86.01" xlink:href="#hl"/>
<use x="397.03" y="80.01" xlink:href="#hl"/>
<use x="397.03" y="74.01" xlink:href="#hl"/>
<use x="397.03" y="68.01" xlink:href="#hl"/>
<use x="397.03" y="62.01" xlink:href="#hl"/>
<use x="397.03" y="62.01" xlink:href="#hd"/>
<path d="M393.53 62.01v41.20" stroke="currentColor" fill="none"/>
<defs>
<g id="r32">
	<path d="m4.8 -10l-5.5 21.6" stroke="currentColor" fill="none"/>
	<use x="4.9" y="-10" xlink:href="#r8e"/>
	<use x="3.4" y="-4" xlink:href="#r8e"/>
	<use x="1.9" y="2" xlink:href="#r8e"/>
</g>
</defs>
<use x="420.13" y="104.01" xlink:href="#r32"/>
<use x="431.83" y="104.01" xlink:href="#r32"/>
<use x="444.73" y="86.01" xlink:href="#hl"/>
<use x="444.73" y="80.01" xlink:href="#hl"/>
<use x="444.73" y="74.01" xlink:href="#hl"/>
<use x="444.73" y="68.01" xlink:href="#hl"/>
<use x="444.73" y="65.01" xlink:href="#hd"/>
<path d="M441.23 65.01v39.00" stroke="currentColor" fill="none"/>
<path fill="currentColor"
	d="M441.23 104.01c0.9 -3.7 9.1 -6.4 6 -12.4
	c1 5.4 -4.2 8.4 -6 8.4
M441.23 98.61c0.9 -3.7 9.1 -6.4 6 -12.4
	c1 5.4 -4.2 8.4 -6 8.4
"/>
<use x="462.83" y="86.01" xlink:href="#hl"/>
<use x="462.83" y="80.01" xlink:href="#hl"/>
<use x="462.83" y="80.01" xlink:href="#hd"/>
<path d="M459.33 80.01v24.00" stroke="currentColor" fill="none"/>
<use x="504.83" y="86.01" xlink:href="#hl"/>
<use x="504.83" y="80.01" xlink:href="#hl"/>
<use x="504.83" y="77.01" xlink:href="#hd"/>
<path d="M501.33 77.01v27.00" stroke="currentColor" fill="none"/>
<use x="541.03" y="86.01" xlink:href="#hl"/>
<use x="541.03" y="80.01" xlink:href="#hl"/>
<use x="541.03" y="74.01" xlink:href="#hl"/>
<use x="541.03" y="74.01" xlink:href="#hd"/>
<path d="M537.53 74.01v30.00" stroke="currentColor" fill="none"/>
<path fill="currentColor"
	d="M537.53 104.01c0.6 -5.6 9.6 -9 5.6 -18.4
	c1.6 6 -1.3 11.6 -5.6 12.8
"/>
<path fill="currentColor"
	d="M562.83 104.21l46.90 0.00v-3.20l-46.90 -0.00"/>
<use x="566.63" y="86.01" xlink:href="#hl"/>
<use x="566.63" y="80.01" xlink:href="#hl"/>
<use x="566.63" y="74.01" xlink:href="#hl"/>
<use x="566.63" y="71.01" xlink:href="#hd"/>
<path d="M563.13 71.01v32.20" stroke="currentColor" fill="none"/>
<use x="589.73" y="86.01" xlink:href="#hl"/>
<use x="589.73" y="80.01" xlink:href="#hl"/>
<use x="589.73" y="74.01" xlink:href="#hl"/>
<use x="589.73" y="68.01" xlink:href="#hl"/>
<use x="589.73" y="68.01" xlink:href="#hd"/>
<path d="M586.23 68.01v35.20" stroke="currentColor" fill="none"/>
<use x="612.83" y="86.01" xlink:href="#hl"/>
<use x="612.83" y="83.01" xlink:href="#hd"/>
<path d="M609.33 83.01v20.20" stroke="currentColor" fill="none"/>
<path fill="currentColor"
	d="M642.53 104.21l23.80 0.00v-3.20l-23.80 -0.00"/>
<use x="646.33" y="86.01" xlink:href="#hl"/>
<use x="646.33" y="80.01" xlink:href="#hl"/>
<use x="646.33" y="74.01" xlink:href="#hl"/>
<use x="646.33" y="74.01" xlink:href="#hd"/>
<path d="M642.83 74.01v29.20" stroke="currentColor" fill="none"/>
<use x="669.43" y="86.01" xlink:href="#hl"/>
<use x="669.43" y="80.01" xlink:href="#hl"/>
<use x="669.43" y="80.01" xlink:href="#hd"/>
<path d="M665.93 80.01v23.20" stroke="currentColor" fill="none"/>
<path fill="currentColor"
	d="M88.83 81.01c5.43 -5.12 29.02 -5.12 34.45 -0.00
	l0.00 -0.23c-6.46 -6.89 -27.99 -6.89 -34.45 0.23"/>
<path fill="currentColor"
	d="M312.43 62.01c5.50 -5.13 29.43 -5.13 34.93 -0.00
	l0.00 -0.23c-6.55 -6.89 -28.38 -6.89 -34.93 0.23"/>
</g>
</svg>
