<?xml version="1.0" standalone="no"?>
<!DOCTYPE svg PUBLIC "-//W3C//DTD SVG 1.1//EN"
	"http://www.w3.org/Graphics/SVG/1.1/DTD/svg11.dtd">
<svg xmlns="http://www.w3.org/2000/svg" version="1.1"
	xmlns:xlink="http://www.w3.org/1999/xlink"
	xml:space='preserve' color="black"
	width="7.38in" height="1.42in" viewBox="0 0 531 102">
<title>5831.abc (5831) tune 1</title>
<!-- Creator: abcm2ps-7.8.14 -->
<!-- CreationDate: Mar 13, 2016 18:54 -->
<!-- CommandLine: -qxg 5831.abc -O ../svgs/5831.svg -->
<g transform="scale(0.750)" stroke-width="0.70" font-family="Times" font-size="20.00">
<text x="354.13" y="21.67" text-anchor="middle">5831.  A Victory Ball, 2nd. Theme</text>
</g>
<g transform="scale(0.750)" stroke-width="0.70" font-family="Times" font-size="14.00" font-style="italic">
<text x="694.93" y="45.34" text-anchor="end">Ernest Schelling</text>
</g>
<g transform="scale(0.525)" stroke-width="0.70" font-family="Times" font-size="14.00" font-style="italic">
<defs>
<ellipse id="hd" rx="4.1" ry="2.9"
	transform="rotate(-20)" fill="currentColor"/>
</defs>
<use x="130.61" y="94.16" xlink:href="#hd"/>
<path d="M134.11 94.16v-20.00" stroke="currentColor" fill="none"/>
</g>
<g transform="scale(0.750)" stroke-width="0.70" font-family="Times" font-size="15.00" font-weight="bold">
<text x="99.13" y="68.01">= 120</text>
<path stroke="currentColor" fill="none"
	d="M187.93 113.01v-24.00"/>
<path stroke="currentColor" fill="none"
	d="M347.03 113.01v-24.00"/>
<path stroke="currentColor" fill="none"
	d="M506.13 113.01v-24.00"/>
<path stroke="currentColor" fill="none"
	d="M665.33 113.01v-24.00"/>
<path stroke="currentColor" fill="none"
	d="M13.33 113.01h681.60m-681.60 -6h681.60m-681.60 -6h681.60m-681.60 -6h681.60m-681.60 -6h681.60"/>
<defs>
<path id="utclef" fill="currentColor" d="m-50 -90
	c-72 -41 -72 -158 52 -188
	c150 -10 220 188 90 256
	c-114 52 -275 0 -293 -136
	c-15 -181 93 -229 220 -334
	c88 -87 79 -133 62 -210
	c-51 33 -94 105 -89 186
	c17 267 36 374 49 574
	c6 96 -19 134 -77 135
	c-80 1 -126 -93 -61 -133
	c85 -41 133 101 31 105
	c23 17 92 37 90 -92
	c-10 -223 -39 -342 -50 -617
	c0 -90 0 -162 96 -232
	c56 72 63 230 22 289
	c-74 106 -257 168 -255 316
	c9 153 148 185 252 133
	c86 -65 29 -192 -80 -176
	c-71 12 -105 67 -59 124"/>
<use id="tclef" transform="scale(0.045)"
	xlink:href="#utclef"/>
</defs>
<use x="25.33" y="113.01" xlink:href="#tclef"/>
<defs>
<path id="uflat" fill="currentColor" d="
	m100 -746
	h32
	v734
	l-32 4
	m32 -332
	c46 -72 152 -90 208 -20
	c100 110 -120 326 -208 348
	m0 -28
	c54 0 200 -206 130 -290
	c-50 -60 -130 -4 -130 34"/>
<use id="ft0" transform="translate(-3.5,3.5) scale(0.018)"
	xlink:href="#uflat"/>
</defs>
<use x="40.33" y="101.01" xlink:href="#ft0"/>
<use x="45.83" y="92.01" xlink:href="#ft0"/>
<use x="51.33" y="104.01" xlink:href="#ft0"/>
<use x="56.83" y="95.01" xlink:href="#ft0"/>
<g font-family="serif" font-size="16" font-weight="bold" font-style="normal"
	transform="translate(72.83,113.01) scale(1.2,1)">
	<text y="-1" text-anchor="middle">4</text>
	<text y="-13" text-anchor="middle">4</text>
</g>
<use x="90.83" y="92.01" xlink:href="#hd"/>
<path d="M87.33 92.01v20.00" stroke="currentColor" fill="none"/>
<use x="116.23" y="89.01" xlink:href="#hd"/>
<path d="M112.73 89.01v20.00" stroke="currentColor" fill="none"/>
<defs>
<path id="hl" stroke="currentColor" d="m-6 0h12"/>
</defs>
<use x="141.63" y="83.01" xlink:href="#hl"/>
<use x="141.63" y="83.01" xlink:href="#hd"/>
<path d="M138.13 83.01v20.00" stroke="currentColor" fill="none"/>
<use x="167.23" y="83.01" xlink:href="#hl"/>
<use x="167.23" y="77.01" xlink:href="#hl"/>
<use x="167.23" y="71.01" xlink:href="#hl"/>
<use x="167.23" y="71.01" xlink:href="#hd"/>
<path d="M163.73 71.01v30.00" stroke="currentColor" fill="none"/>
<use x="200.43" y="83.01" xlink:href="#hl"/>
<use x="200.43" y="77.01" xlink:href="#hl"/>
<use x="200.43" y="71.01" xlink:href="#hl"/>
<use x="200.43" y="71.01" xlink:href="#hd"/>
<path d="M196.93 71.01v30.00" stroke="currentColor" fill="none"/>
<path fill="currentColor"
	d="M196.93 101.01c0.6 -5.6 9.6 -9 5.6 -18.4
	c1.6 6 -1.3 11.6 -5.6 12.8
"/>
<use x="219.93" y="83.01" xlink:href="#hl"/>
<use x="219.93" y="77.01" xlink:href="#hl"/>
<use x="219.93" y="74.01" xlink:href="#hd"/>
<defs>
<path id="unat" fill="currentColor" d="
	m96 -750
	h-32
	v716
	l32 -8
	l182 -54
	v282
	h32
	v-706
	l-34 10
	l-180 50
	v-290
	m0 592
	v-190
	l182 -52
	v188"/>
<use id="nt0" transform="translate(-3,5) scale(0.018)"
	xlink:href="#unat"/>
</defs>
<use x="210.93" y="74.01" xlink:href="#nt0"/>
<path d="M216.43 74.01v27.00" stroke="currentColor" fill="none"/>
<path fill="currentColor"
	d="M216.43 101.01c0.6 -5.6 9.6 -9 5.6 -18.4
	c1.6 6 -1.3 11.6 -5.6 12.8
"/>
<use x="238.43" y="83.01" xlink:href="#hl"/>
<use x="238.43" y="77.01" xlink:href="#hl"/>
<use x="238.43" y="77.01" xlink:href="#hd"/>
<path d="M234.93 77.01v24.00" stroke="currentColor" fill="none"/>
<path fill="currentColor"
	d="M234.93 101.01c0.6 -5.6 9.6 -9 5.6 -18.4
	c1.6 6 -1.3 11.6 -5.6 12.8
"/>
<use x="256.93" y="83.01" xlink:href="#hl"/>
<use x="256.93" y="80.01" xlink:href="#hd"/>
<path d="M253.43 80.01v21.00" stroke="currentColor" fill="none"/>
<path fill="currentColor"
	d="M253.43 101.01c0.6 -5.6 9.6 -9 5.6 -18.4
	c1.6 6 -1.3 11.6 -5.6 12.8
"/>
<use x="275.53" y="83.01" xlink:href="#hl"/>
<use x="275.53" y="77.01" xlink:href="#hl"/>
<use x="275.53" y="77.01" xlink:href="#hd"/>
<path d="M272.03 77.01v24.00" stroke="currentColor" fill="none"/>
<path fill="currentColor"
	d="M272.03 101.01c0.6 -5.6 9.6 -9 5.6 -18.4
	c1.6 6 -1.3 11.6 -5.6 12.8
"/>
<use x="295.03" y="83.01" xlink:href="#hl"/>
<use x="295.03" y="77.01" xlink:href="#hl"/>
<use x="295.03" y="74.01" xlink:href="#hd"/>
<use x="286.03" y="74.01" xlink:href="#nt0"/>
<path d="M291.53 74.01v27.00" stroke="currentColor" fill="none"/>
<path fill="currentColor"
	d="M291.53 101.01c0.6 -5.6 9.6 -9 5.6 -18.4
	c1.6 6 -1.3 11.6 -5.6 12.8
"/>
<use x="313.53" y="83.01" xlink:href="#hl"/>
<use x="313.53" y="77.01" xlink:href="#hl"/>
<use x="313.53" y="71.01" xlink:href="#hl"/>
<use x="313.53" y="68.01" xlink:href="#hd"/>
<path d="M310.03 68.01v33.00" stroke="currentColor" fill="none"/>
<path fill="currentColor"
	d="M310.03 101.01c0.6 -5.6 9.6 -9 5.6 -18.4
	c1.6 6 -1.3 11.6 -5.6 12.8
"/>
<use x="332.03" y="83.01" xlink:href="#hl"/>
<use x="332.03" y="77.01" xlink:href="#hl"/>
<use x="332.03" y="71.01" xlink:href="#hl"/>
<use x="332.03" y="71.01" xlink:href="#hd"/>
<path d="M328.53 71.01v30.00" stroke="currentColor" fill="none"/>
<path fill="currentColor"
	d="M328.53 101.01c0.6 -5.6 9.6 -9 5.6 -18.4
	c1.6 6 -1.3 11.6 -5.6 12.8
"/>
<use x="359.53" y="83.01" xlink:href="#hl"/>
<use x="359.53" y="77.01" xlink:href="#hl"/>
<use x="359.53" y="71.01" xlink:href="#hl"/>
<use x="359.53" y="71.01" xlink:href="#hd"/>
<path d="M356.03 71.01v30.00" stroke="currentColor" fill="none"/>
<path fill="currentColor"
	d="M356.03 101.01c0.6 -5.6 9.6 -9 5.6 -18.4
	c1.6 6 -1.3 11.6 -5.6 12.8
"/>
<use x="379.03" y="83.01" xlink:href="#hl"/>
<use x="379.03" y="77.01" xlink:href="#hl"/>
<use x="379.03" y="74.01" xlink:href="#hd"/>
<use x="370.03" y="74.01" xlink:href="#nt0"/>
<path d="M375.53 74.01v27.00" stroke="currentColor" fill="none"/>
<path fill="currentColor"
	d="M375.53 101.01c0.6 -5.6 9.6 -9 5.6 -18.4
	c1.6 6 -1.3 11.6 -5.6 12.8
"/>
<use x="397.53" y="83.01" xlink:href="#hl"/>
<use x="397.53" y="77.01" xlink:href="#hl"/>
<use x="397.53" y="77.01" xlink:href="#hd"/>
<path d="M394.03 77.01v24.00" stroke="currentColor" fill="none"/>
<path fill="currentColor"
	d="M394.03 101.01c0.6 -5.6 9.6 -9 5.6 -18.4
	c1.6 6 -1.3 11.6 -5.6 12.8
"/>
<use x="416.13" y="83.01" xlink:href="#hl"/>
<use x="416.13" y="80.01" xlink:href="#hd"/>
<path d="M412.63 80.01v21.00" stroke="currentColor" fill="none"/>
<path fill="currentColor"
	d="M412.63 101.01c0.6 -5.6 9.6 -9 5.6 -18.4
	c1.6 6 -1.3 11.6 -5.6 12.8
"/>
<use x="434.63" y="83.01" xlink:href="#hl"/>
<use x="434.63" y="77.01" xlink:href="#hl"/>
<use x="434.63" y="77.01" xlink:href="#hd"/>
<path d="M431.13 77.01v24.00" stroke="currentColor" fill="none"/>
<path fill="currentColor"
	d="M431.13 101.01c0.6 -5.6 9.6 -9 5.6 -18.4
	c1.6 6 -1.3 11.6 -5.6 12.8
"/>
<use x="454.13" y="83.01" xlink:href="#hl"/>
<use x="454.13" y="77.01" xlink:href="#hl"/>
<use x="454.13" y="74.01" xlink:href="#hd"/>
<use x="445.13" y="74.01" xlink:href="#nt0"/>
<path d="M450.63 74.01v27.00" stroke="currentColor" fill="none"/>
<path fill="currentColor"
	d="M450.63 101.01c0.6 -5.6 9.6 -9 5.6 -18.4
	c1.6 6 -1.3 11.6 -5.6 12.8
"/>
<use x="472.63" y="83.01" xlink:href="#hl"/>
<use x="472.63" y="77.01" xlink:href="#hl"/>
<use x="472.63" y="71.01" xlink:href="#hl"/>
<use x="472.63" y="68.01" xlink:href="#hd"/>
<path d="M469.13 68.01v33.00" stroke="currentColor" fill="none"/>
<path fill="currentColor"
	d="M469.13 101.01c0.6 -5.6 9.6 -9 5.6 -18.4
	c1.6 6 -1.3 11.6 -5.6 12.8
"/>
<use x="491.23" y="83.01" xlink:href="#hl"/>
<use x="491.23" y="77.01" xlink:href="#hl"/>
<use x="491.23" y="71.01" xlink:href="#hl"/>
<use x="491.23" y="71.01" xlink:href="#hd"/>
<path d="M487.73 71.01v30.00" stroke="currentColor" fill="none"/>
<path fill="currentColor"
	d="M487.73 101.01c0.6 -5.6 9.6 -9 5.6 -18.4
	c1.6 6 -1.3 11.6 -5.6 12.8
"/>
<use x="518.63" y="83.01" xlink:href="#hl"/>
<use x="518.63" y="77.01" xlink:href="#hl"/>
<use x="518.63" y="71.01" xlink:href="#hl"/>
<use x="518.63" y="71.01" xlink:href="#hd"/>
<path d="M515.13 71.01v30.00" stroke="currentColor" fill="none"/>
<path fill="currentColor"
	d="M515.13 101.01c0.6 -5.6 9.6 -9 5.6 -18.4
	c1.6 6 -1.3 11.6 -5.6 12.8
"/>
<use x="538.23" y="83.01" xlink:href="#hl"/>
<use x="538.23" y="77.01" xlink:href="#hl"/>
<use x="538.23" y="74.01" xlink:href="#hd"/>
<use x="529.23" y="74.01" xlink:href="#nt0"/>
<path d="M534.73 74.01v27.00" stroke="currentColor" fill="none"/>
<path fill="currentColor"
	d="M534.73 101.01c0.6 -5.6 9.6 -9 5.6 -18.4
	c1.6 6 -1.3 11.6 -5.6 12.8
"/>
<use x="556.73" y="83.01" xlink:href="#hl"/>
<use x="556.73" y="77.01" xlink:href="#hl"/>
<use x="556.73" y="77.01" xlink:href="#hd"/>
<path d="M553.23 77.01v24.00" stroke="currentColor" fill="none"/>
<path fill="currentColor"
	d="M553.23 101.01c0.6 -5.6 9.6 -9 5.6 -18.4
	c1.6 6 -1.3 11.6 -5.6 12.8
"/>
<use x="576.23" y="83.01" xlink:href="#hl"/>
<use x="576.23" y="77.01" xlink:href="#hl"/>
<use x="576.23" y="74.01" xlink:href="#hd"/>
<use x="567.23" y="74.01" xlink:href="#nt0"/>
<path d="M572.73 74.01v27.00" stroke="currentColor" fill="none"/>
<path fill="currentColor"
	d="M572.73 101.01c0.6 -5.6 9.6 -9 5.6 -18.4
	c1.6 6 -1.3 11.6 -5.6 12.8
"/>
<use x="594.73" y="83.01" xlink:href="#hl"/>
<use x="594.73" y="77.01" xlink:href="#hl"/>
<use x="594.73" y="71.01" xlink:href="#hl"/>
<use x="594.73" y="71.01" xlink:href="#hd"/>
<path d="M591.23 71.01v30.00" stroke="currentColor" fill="none"/>
<path fill="currentColor"
	d="M591.23 101.01c0.6 -5.6 9.6 -9 5.6 -18.4
	c1.6 6 -1.3 11.6 -5.6 12.8
"/>
<use x="613.23" y="83.01" xlink:href="#hl"/>
<use x="613.23" y="77.01" xlink:href="#hl"/>
<use x="613.23" y="71.01" xlink:href="#hl"/>
<use x="613.23" y="65.01" xlink:href="#hl"/>
<use x="613.23" y="65.01" xlink:href="#hd"/>
<path d="M609.73 65.01v36.00" stroke="currentColor" fill="none"/>
<path fill="currentColor"
	d="M609.73 101.01c0.6 -5.6 9.6 -9 5.6 -18.4
	c1.6 6 -1.3 11.6 -5.6 12.8
"/>
<use x="631.83" y="83.01" xlink:href="#hl"/>
<use x="631.83" y="77.01" xlink:href="#hl"/>
<use x="631.83" y="71.01" xlink:href="#hl"/>
<use x="631.83" y="65.01" xlink:href="#hl"/>
<use x="631.83" y="59.01" xlink:href="#hl"/>
<use x="631.83" y="59.01" xlink:href="#hd"/>
<path d="M628.33 59.01v42.00" stroke="currentColor" fill="none"/>
<path fill="currentColor"
	d="M628.33 101.01c0.6 -5.6 9.6 -9 5.6 -18.4
	c1.6 6 -1.3 11.6 -5.6 12.8
"/>
<use x="650.33" y="83.01" xlink:href="#hl"/>
<use x="650.33" y="77.01" xlink:href="#hl"/>
<use x="650.33" y="71.01" xlink:href="#hl"/>
<use x="650.33" y="65.01" xlink:href="#hl"/>
<use x="650.33" y="62.01" xlink:href="#hd"/>
<path d="M646.83 62.01v39.00" stroke="currentColor" fill="none"/>
<path fill="currentColor"
	d="M646.83 101.01c0.6 -5.6 9.6 -9 5.6 -18.4
	c1.6 6 -1.3 11.6 -5.6 12.8
"/>
<use x="677.83" y="83.01" xlink:href="#hl"/>
<use x="677.83" y="77.01" xlink:href="#hl"/>
<use x="677.83" y="71.01" xlink:href="#hl"/>
<use x="677.83" y="65.01" xlink:href="#hl"/>
<use x="677.83" y="62.01" xlink:href="#hd"/>
<path d="M674.33 62.01v39.00" stroke="currentColor" fill="none"/>
<path fill="currentColor"
	d="M674.33 101.01c0.6 -5.6 9.6 -9 5.6 -18.4
	c1.6 6 -1.3 11.6 -5.6 12.8
"/>
<path fill="currentColor"
	d="M170.73 71.01c4.12 -4.97 22.02 -4.97 26.13 -0.00
	l0.00 -0.23c-4.90 -6.74 -21.23 -6.74 -26.13 0.23"/>
<path fill="currentColor"
	d="M335.53 71.01c3.22 -4.87 17.24 -4.87 20.47 -0.00
	l0.00 -0.22c-3.84 -6.65 -16.63 -6.65 -20.47 0.22"/>
<path fill="currentColor"
	d="M494.73 71.01c3.22 -4.87 17.24 -4.87 20.47 -0.00
	l0.00 -0.22c-3.84 -6.65 -16.63 -6.65 -20.47 0.22"/>
<path fill="currentColor"
	d="M653.83 60.01c3.22 -4.87 17.24 -4.87 20.47 -0.00
	l0.00 -0.22c-3.84 -6.65 -16.63 -6.65 -20.47 0.22"/>
</g>
</svg>
