<?xml version="1.0" standalone="no"?>
<!DOCTYPE svg PUBLIC "-//W3C//DTD SVG 1.1//EN"
	"http://www.w3.org/Graphics/SVG/1.1/DTD/svg11.dtd">
<svg xmlns="http://www.w3.org/2000/svg" version="1.1"
	xmlns:xlink="http://www.w3.org/1999/xlink"
	xml:space='preserve' color="black"
	width="7.38in" height="1.42in" viewBox="0 0 531 102">
<title>5833.abc (5833) tune 1</title>
<!-- Creator: abcm2ps-7.8.14 -->
<!-- CreationDate: Mar 13, 2016 18:54 -->
<!-- CommandLine: -qxg 5833.abc -O ../svgs/5833.svg -->
<g transform="scale(0.750)" stroke-width="0.70" font-family="Times" font-size="20.00">
<text x="354.13" y="21.67" text-anchor="middle">5833.  A Victory Ball, 4th. Theme A</text>
</g>
<g transform="scale(0.750)" stroke-width="0.70" font-family="Times" font-size="14.00" font-style="italic">
<text x="694.93" y="45.34" text-anchor="end">Ernest Schelling</text>
</g>
<g transform="scale(0.525)" stroke-width="0.70" font-family="Times" font-size="14.00" font-style="italic">
<defs>
<ellipse id="hd" rx="4.1" ry="2.9"
	transform="rotate(-20)" fill="currentColor"/>
</defs>
<use x="138.47" y="94.16" xlink:href="#hd"/>
<path d="M141.97 94.16v-20.00" stroke="currentColor" fill="none"/>
</g>
<g transform="scale(0.750)" stroke-width="0.70" font-family="Times" font-size="15.00" font-weight="bold">
<text x="104.63" y="68.01">= 120</text>
<path stroke="currentColor" fill="none"
	d="M184.73 113.01v-24.00"/>
<path stroke="currentColor" fill="none"
	d="M287.43 113.01v-24.00"/>
<path stroke="currentColor" fill="none"
	d="M382.83 113.01v-24.00"/>
<path stroke="currentColor" fill="none"
	d="M515.23 113.01v-24.00"/>
<path stroke="currentColor" fill="none"
	d="M614.23 113.01v-24.00"/>
<path stroke="currentColor" fill="none"
	d="M13.33 113.01h681.60m-681.60 -6h681.60m-681.60 -6h681.60m-681.60 -6h681.60m-681.60 -6h681.60"/>
<text font-family="serif" font-size="12" font-style="italic" font-weight="normal"
	x="235.43" y="118.01" text-anchor="middle">3</text>
<text font-family="serif" font-size="12" font-style="italic" font-weight="normal"
	x="663.33" y="118.01" text-anchor="middle">3</text>
<defs>
<path id="utclef" fill="currentColor" d="m-50 -90
	c-72 -41 -72 -158 52 -188
	c150 -10 220 188 90 256
	c-114 52 -275 0 -293 -136
	c-15 -181 93 -229 220 -334
	c88 -87 79 -133 62 -210
	c-51 33 -94 105 -89 186
	c17 267 36 374 49 574
	c6 96 -19 134 -77 135
	c-80 1 -126 -93 -61 -133
	c85 -41 133 101 31 105
	c23 17 92 37 90 -92
	c-10 -223 -39 -342 -50 -617
	c0 -90 0 -162 96 -232
	c56 72 63 230 22 289
	c-74 106 -257 168 -255 316
	c9 153 148 185 252 133
	c86 -65 29 -192 -80 -176
	c-71 12 -105 67 -59 124"/>
<use id="tclef" transform="scale(0.045)"
	xlink:href="#utclef"/>
</defs>
<use x="25.33" y="113.01" xlink:href="#tclef"/>
<defs>
<path id="uflat" fill="currentColor" d="
	m100 -746
	h32
	v734
	l-32 4
	m32 -332
	c46 -72 152 -90 208 -20
	c100 110 -120 326 -208 348
	m0 -28
	c54 0 200 -206 130 -290
	c-50 -60 -130 -4 -130 34"/>
<use id="ft0" transform="translate(-3.5,3.5) scale(0.018)"
	xlink:href="#uflat"/>
</defs>
<use x="40.33" y="101.01" xlink:href="#ft0"/>
<use x="45.83" y="92.01" xlink:href="#ft0"/>
<use x="51.33" y="104.01" xlink:href="#ft0"/>
<use x="56.83" y="95.01" xlink:href="#ft0"/>
<use x="62.33" y="107.01" xlink:href="#ft0"/>
<g font-family="serif" font-size="16" font-weight="bold" font-style="normal"
	transform="translate(78.33,113.01) scale(1.2,1)">
	<text y="-1" text-anchor="middle">4</text>
	<text y="-13" text-anchor="middle">2</text>
</g>
<use x="96.33" y="95.01" xlink:href="#hd"/>
<path d="M92.83 95.01v20.00" stroke="currentColor" fill="none"/>
<path fill="currentColor"
	d="M92.83 115.01c0.6 -5.6 9.6 -9 5.6 -18.4
	c1.6 6 -1.3 11.6 -5.6 12.8
"/>
<path fill="currentColor"
	d="M114.23 117.31l36.60 -6.10v-3.20l-36.60 6.10"/>
<path fill="currentColor"
	d="M120.63 111.21l-6.00 1.00v-3.20l6.00 -1.00"/>
<path fill="currentColor"
	d="M144.53 107.21l6.00 -1.00v-3.20l-6.00 1.00"/>
<use x="118.13" y="95.01" xlink:href="#hd"/>
<defs>
<path id="unat" fill="currentColor" d="
	m96 -750
	h-32
	v716
	l32 -8
	l182 -54
	v282
	h32
	v-706
	l-34 10
	l-180 50
	v-290
	m0 592
	v-190
	l182 -52
	v188"/>
<use id="nt0" transform="translate(-3,5) scale(0.018)"
	xlink:href="#unat"/>
</defs>
<use x="109.13" y="95.01" xlink:href="#nt0"/>
<path d="M114.63 95.01v21.20" stroke="currentColor" fill="none"/>
<use x="136.13" y="92.01" xlink:href="#hd"/>
<use x="127.13" y="92.01" xlink:href="#nt0"/>
<path d="M132.63 92.01v21.20" stroke="currentColor" fill="none"/>
<use x="154.03" y="86.01" xlink:href="#hd"/>
<path d="M150.53 86.01v24.20" stroke="currentColor" fill="none"/>
<defs>
<path id="hl" stroke="currentColor" d="m-6 0h12"/>
</defs>
<use x="168.53" y="83.01" xlink:href="#hl"/>
<use x="168.53" y="83.01" xlink:href="#hd"/>
<path d="M165.03 83.01v20.00" stroke="currentColor" fill="none"/>
<path fill="currentColor"
	d="M165.03 103.01c0.6 -5.6 9.6 -9 5.6 -18.4
	c1.6 6 -1.3 11.6 -5.6 12.8
"/>
<use x="197.23" y="83.01" xlink:href="#hl"/>
<use x="197.23" y="80.01" xlink:href="#hd"/>
<path d="M193.73 80.01v21.00" stroke="currentColor" fill="none"/>
<path fill="currentColor"
	d="M193.73 101.01c0.6 -5.6 9.6 -9 5.6 -18.4
	c1.6 6 -1.3 11.6 -5.6 12.8
"/>
<path fill="currentColor"
	d="M215.23 101.21l36.70 0.00v-3.20l-36.70 -0.00"/>
<use x="219.03" y="83.01" xlink:href="#hl"/>
<use x="219.03" y="80.01" xlink:href="#hd"/>
<use x="210.03" y="80.01" xlink:href="#nt0"/>
<path d="M215.53 80.01v20.20" stroke="currentColor" fill="none"/>
<use x="237.03" y="83.01" xlink:href="#hl"/>
<use x="237.03" y="77.01" xlink:href="#hl"/>
<use x="237.03" y="74.01" xlink:href="#hd"/>
<use x="228.03" y="74.01" xlink:href="#ft0"/>
<path d="M233.53 74.01v26.20" stroke="currentColor" fill="none"/>
<use x="255.03" y="83.01" xlink:href="#hl"/>
<use x="255.03" y="77.01" xlink:href="#hl"/>
<use x="255.03" y="71.01" xlink:href="#hl"/>
<use x="255.03" y="71.01" xlink:href="#hd"/>
<use x="246.03" y="71.01" xlink:href="#ft0"/>
<path d="M251.53 71.01v29.20" stroke="currentColor" fill="none"/>
<use x="271.13" y="83.01" xlink:href="#hl"/>
<use x="271.13" y="77.01" xlink:href="#hl"/>
<use x="271.13" y="71.01" xlink:href="#hl"/>
<use x="271.13" y="68.01" xlink:href="#hd"/>
<path d="M267.63 68.01v33.00" stroke="currentColor" fill="none"/>
<path fill="currentColor"
	d="M267.63 101.01c0.6 -5.6 9.6 -9 5.6 -18.4
	c1.6 6 -1.3 11.6 -5.6 12.8
"/>
<use x="299.93" y="83.01" xlink:href="#hl"/>
<use x="299.93" y="77.01" xlink:href="#hl"/>
<use x="299.93" y="71.01" xlink:href="#hl"/>
<use x="299.93" y="65.01" xlink:href="#hl"/>
<use x="299.93" y="65.01" xlink:href="#hd"/>
<path d="M296.43 65.01v36.00" stroke="currentColor" fill="none"/>
<path fill="currentColor"
	d="M296.43 101.01c0.6 -5.6 9.6 -9 5.6 -18.4
	c1.6 6 -1.3 11.6 -5.6 12.8
"/>
<path fill="currentColor"
	d="M316.03 101.21l32.50 0.00v-3.20l-32.50 -0.00"/>
<path fill="currentColor"
	d="M322.43 96.21l-6.00 -0.00v-3.20l6.00 0.00"/>
<path fill="currentColor"
	d="M342.23 96.21l6.00 0.00v-3.20l-6.00 -0.00"/>
<use x="319.93" y="83.01" xlink:href="#hl"/>
<use x="319.93" y="77.01" xlink:href="#hl"/>
<use x="319.93" y="71.01" xlink:href="#hl"/>
<use x="319.93" y="65.01" xlink:href="#hl"/>
<use x="319.93" y="62.01" xlink:href="#hd"/>
<path d="M316.43 62.01v38.20" stroke="currentColor" fill="none"/>
<use x="333.53" y="83.01" xlink:href="#hl"/>
<use x="333.53" y="77.01" xlink:href="#hl"/>
<use x="333.53" y="71.01" xlink:href="#hl"/>
<use x="333.53" y="65.01" xlink:href="#hl"/>
<use x="333.53" y="65.01" xlink:href="#hd"/>
<path d="M330.03 65.01v35.20" stroke="currentColor" fill="none"/>
<use x="351.73" y="83.01" xlink:href="#hl"/>
<use x="351.73" y="77.01" xlink:href="#hl"/>
<use x="351.73" y="71.01" xlink:href="#hl"/>
<use x="351.73" y="68.01" xlink:href="#hd"/>
<path d="M348.23 68.01v32.20" stroke="currentColor" fill="none"/>
<use x="366.63" y="83.01" xlink:href="#hl"/>
<use x="366.63" y="77.01" xlink:href="#hl"/>
<use x="366.63" y="71.01" xlink:href="#hl"/>
<use x="366.63" y="65.01" xlink:href="#hl"/>
<use x="366.63" y="65.01" xlink:href="#hd"/>
<path d="M363.13 65.01v36.00" stroke="currentColor" fill="none"/>
<path fill="currentColor"
	d="M363.13 101.01c0.6 -5.6 9.6 -9 5.6 -18.4
	c1.6 6 -1.3 11.6 -5.6 12.8
"/>
<path fill="currentColor"
	d="M391.53 101.21l74.20 0.00v-3.20l-74.20 -0.00"/>
<path fill="currentColor"
	d="M417.83 96.21l47.50 0.00v-3.20l-47.50 -0.00"/>
<path fill="currentColor"
	d="M423.83 91.21l-6.00 -0.00v-3.20l6.00 0.00"/>
<path fill="currentColor"
	d="M440.83 91.21l6.00 0.00v-3.20l-6.00 -0.00"/>
<use x="395.33" y="83.01" xlink:href="#hl"/>
<use x="395.33" y="77.01" xlink:href="#hl"/>
<use x="395.33" y="71.01" xlink:href="#hl"/>
<use x="395.33" y="65.01" xlink:href="#hl"/>
<use x="395.33" y="65.01" xlink:href="#hd"/>
<circle fill="currentColor" cx="403.33" cy="62.01" r="1.2"/>
<path d="M391.83 65.01v35.20" stroke="currentColor" fill="none"/>
<use x="421.33" y="83.01" xlink:href="#hl"/>
<use x="421.33" y="77.01" xlink:href="#hl"/>
<use x="421.33" y="71.01" xlink:href="#hl"/>
<use x="421.33" y="65.01" xlink:href="#hl"/>
<use x="421.33" y="65.01" xlink:href="#hd"/>
<path d="M417.83 65.01v35.20" stroke="currentColor" fill="none"/>
<use x="431.83" y="83.01" xlink:href="#hl"/>
<use x="431.83" y="77.01" xlink:href="#hl"/>
<use x="431.83" y="71.01" xlink:href="#hl"/>
<use x="431.83" y="65.01" xlink:href="#hl"/>
<use x="431.83" y="62.01" xlink:href="#hd"/>
<path d="M428.33 62.01v38.20" stroke="currentColor" fill="none"/>
<use x="450.33" y="83.01" xlink:href="#hl"/>
<use x="450.33" y="77.01" xlink:href="#hl"/>
<use x="450.33" y="71.01" xlink:href="#hl"/>
<use x="450.33" y="65.01" xlink:href="#hl"/>
<use x="450.33" y="62.01" xlink:href="#hd"/>
<path d="M446.83 62.01v38.20" stroke="currentColor" fill="none"/>
<use x="450.33" y="68.01" xlink:href="#hd"/>
<use x="468.83" y="83.01" xlink:href="#hl"/>
<use x="468.83" y="77.01" xlink:href="#hl"/>
<use x="468.83" y="71.01" xlink:href="#hl"/>
<use x="468.83" y="68.01" xlink:href="#hd"/>
<path d="M465.33 68.01v32.20" stroke="currentColor" fill="none"/>
<defs>
<path id="r8e" fill="currentColor" d="m 0 0
	c-1.5 1.5 -2.4 2 -3.6 2
	c2.4 -2.8 -2.8 -4 -2.8 -1.2
	c0 2.7 4.3 2.4 5.9 0.6"/>
<g id="r32">
	<path d="m4.8 -10l-5.5 21.6" stroke="currentColor" fill="none"/>
	<use x="4.9" y="-10" xlink:href="#r8e"/>
	<use x="3.4" y="-4" xlink:href="#r8e"/>
	<use x="1.9" y="2" xlink:href="#r8e"/>
</g>
</defs>
<use x="482.13" y="101.01" xlink:href="#r32"/>
<use x="492.13" y="101.01" xlink:href="#r32"/>
<use x="503.03" y="83.01" xlink:href="#hl"/>
<use x="503.03" y="77.01" xlink:href="#hl"/>
<use x="503.03" y="71.01" xlink:href="#hl"/>
<use x="503.03" y="71.01" xlink:href="#hd"/>
<path d="M499.53 71.01v30.00" stroke="currentColor" fill="none"/>
<path fill="currentColor"
	d="M499.53 101.01c0.9 -3.7 9.1 -6.4 6 -12.4
	c1 5.4 -4.2 8.4 -6 8.4
M499.53 95.61c0.9 -3.7 9.1 -6.4 6 -12.4
	c1 5.4 -4.2 8.4 -6 8.4
"/>
<use x="527.73" y="83.01" xlink:href="#hl"/>
<use x="527.73" y="77.01" xlink:href="#hl"/>
<use x="527.73" y="71.01" xlink:href="#hl"/>
<use x="527.73" y="71.01" xlink:href="#hd"/>
<path d="M524.23 71.01v30.00" stroke="currentColor" fill="none"/>
<path fill="currentColor"
	d="M524.23 101.01c0.6 -5.6 9.6 -9 5.6 -18.4
	c1.6 6 -1.3 11.6 -5.6 12.8
"/>
<path fill="currentColor"
	d="M545.63 101.21l34.30 0.00v-3.20l-34.30 -0.00"/>
<path fill="currentColor"
	d="M551.93 96.21l-6.00 -0.00v-3.20l6.00 0.00"/>
<path fill="currentColor"
	d="M573.63 96.21l6.00 0.00v-3.20l-6.00 -0.00"/>
<use x="549.43" y="83.01" xlink:href="#hl"/>
<use x="549.43" y="77.01" xlink:href="#hl"/>
<use x="549.43" y="74.01" xlink:href="#hd"/>
<use x="540.43" y="74.01" xlink:href="#nt0"/>
<path d="M545.93 74.01v26.20" stroke="currentColor" fill="none"/>
<use x="563.13" y="83.01" xlink:href="#hl"/>
<use x="563.13" y="77.01" xlink:href="#hl"/>
<use x="563.13" y="71.01" xlink:href="#hl"/>
<use x="563.13" y="65.01" xlink:href="#hl"/>
<use x="563.13" y="65.01" xlink:href="#hd"/>
<path d="M559.63 65.01v35.20" stroke="currentColor" fill="none"/>
<use x="583.13" y="83.01" xlink:href="#hl"/>
<use x="583.13" y="77.01" xlink:href="#hl"/>
<use x="583.13" y="74.01" xlink:href="#hd"/>
<use x="574.13" y="74.01" xlink:href="#ft0"/>
<path d="M579.63 74.01v26.20" stroke="currentColor" fill="none"/>
<use x="598.03" y="83.01" xlink:href="#hl"/>
<use x="598.03" y="77.01" xlink:href="#hl"/>
<use x="598.03" y="71.01" xlink:href="#hl"/>
<use x="598.03" y="65.01" xlink:href="#hl"/>
<use x="598.03" y="65.01" xlink:href="#hd"/>
<path d="M594.53 65.01v36.00" stroke="currentColor" fill="none"/>
<path fill="currentColor"
	d="M594.53 101.01c0.6 -5.6 9.6 -9 5.6 -18.4
	c1.6 6 -1.3 11.6 -5.6 12.8
"/>
<use x="626.73" y="83.01" xlink:href="#hl"/>
<use x="626.73" y="77.01" xlink:href="#hl"/>
<use x="626.73" y="77.01" xlink:href="#hd"/>
<path d="M623.23 77.01v24.00" stroke="currentColor" fill="none"/>
<path fill="currentColor"
	d="M623.23 101.01c0.6 -5.6 9.6 -9 5.6 -18.4
	c1.6 6 -1.3 11.6 -5.6 12.8
"/>
<path fill="currentColor"
	d="M644.73 101.21l33.50 0.00v-3.20l-33.50 -0.00"/>
<use x="648.53" y="83.01" xlink:href="#hl"/>
<use x="648.53" y="80.01" xlink:href="#hd"/>
<use x="639.53" y="80.01" xlink:href="#nt0"/>
<path d="M645.03 80.01v20.20" stroke="currentColor" fill="none"/>
<use x="663.33" y="83.01" xlink:href="#hl"/>
<use x="663.33" y="77.01" xlink:href="#hl"/>
<use x="663.33" y="71.01" xlink:href="#hl"/>
<use x="663.33" y="71.01" xlink:href="#hd"/>
<path d="M659.83 71.01v29.20" stroke="currentColor" fill="none"/>
<use x="681.33" y="83.01" xlink:href="#hl"/>
<use x="681.33" y="80.01" xlink:href="#hd"/>
<use x="672.33" y="80.01" xlink:href="#ft0"/>
<path d="M677.83 80.01v20.20" stroke="currentColor" fill="none"/>
<path fill="currentColor"
	d="M370.13 65.01c3.43 -4.89 18.32 -4.89 21.75 -0.00
	l0.00 -0.22c-4.08 -6.67 -17.67 -6.67 -21.75 0.22"/>
<path fill="currentColor"
	d="M398.83 59.01c2.99 -4.84 16.01 -4.84 19.00 -0.00
	l0.00 -0.22c-3.56 -6.62 -15.44 -6.62 -19.00 0.22"/>
<path fill="currentColor"
	d="M431.83 60.01c2.91 -4.83 15.59 -4.83 18.50 -0.00
	l0.00 -0.22c-3.47 -6.61 -15.03 -6.61 -18.50 0.22"/>
<path fill="currentColor"
	d="M450.33 66.01c2.91 -4.83 15.59 -4.83 18.50 -0.00
	l0.00 -0.22c-3.47 -6.61 -15.03 -6.61 -18.50 0.22"/>
<path fill="currentColor"
	d="M506.53 71.01c2.78 -4.82 14.87 -4.82 17.65 -0.00
	l0.00 -0.22c-3.31 -6.60 -14.34 -6.60 -17.65 0.22"/>
</g>
</svg>
