<?xml version="1.0" standalone="no"?>
<!DOCTYPE svg PUBLIC "-//W3C//DTD SVG 1.1//EN"
	"http://www.w3.org/Graphics/SVG/1.1/DTD/svg11.dtd">
<svg xmlns="http://www.w3.org/2000/svg" version="1.1"
	xmlns:xlink="http://www.w3.org/1999/xlink"
	xml:space='preserve' color="black"
	width="7.38in" height="1.46in" viewBox="0 0 531 105">
<title>5848.abc (5848) tune 1</title>
<!-- Creator: abcm2ps-7.8.14 -->
<!-- CreationDate: Mar 13, 2016 18:54 -->
<!-- CommandLine: -qxg 5848.abc -O ../svgs/5848.svg -->
<g transform="scale(0.750)" stroke-width="0.70" font-family="Times" font-size="20.00">
<text x="354.13" y="21.67" text-anchor="middle">5848.  Sonata in F, Op. 8, 2nd. Mvt.</text>
</g>
<g transform="scale(0.750)" stroke-width="0.70" font-family="Times" font-size="14.00" font-style="italic">
<text x="694.93" y="45.34" text-anchor="end">Johann Schobert</text>
</g>
<g transform="scale(0.525)" stroke-width="0.70" font-family="Times" font-size="14.00" font-style="italic">
<defs>
<ellipse id="hd" rx="4.1" ry="2.9"
	transform="rotate(-20)" fill="currentColor"/>
</defs>
<use x="107.04" y="94.16" xlink:href="#hd"/>
<path d="M110.54 94.16v-20.00" stroke="currentColor" fill="none"/>
</g>
<g transform="scale(0.750)" stroke-width="0.70" font-family="Times" font-size="15.00" font-weight="bold">
<text x="82.63" y="68.01">= 120</text>
<path stroke="currentColor" fill="none"
	d="M180.43 117.01v-24.00"/>
<path stroke="currentColor" fill="none"
	d="M294.13 117.01v-24.00"/>
<path stroke="currentColor" fill="none"
	d="M419.83 117.01v-24.00"/>
<path stroke="currentColor" fill="none"
	d="M533.53 117.01v-24.00"/>
<path stroke="currentColor" fill="none"
	d="M655.93 117.01v-24.00"/>
<path stroke="currentColor" fill="none"
	d="M13.33 117.01h681.60m-681.60 -6h681.60m-681.60 -6h681.60m-681.60 -6h681.60m-681.60 -6h681.60"/>
<text font-family="serif" font-size="12" font-style="italic" font-weight="normal"
	x="201.93" y="133.71" text-anchor="middle">3</text>
<text font-family="serif" font-size="12" font-style="italic" font-weight="normal"
	x="441.33" y="133.71" text-anchor="middle">3</text>
<defs>
<path id="utclef" fill="currentColor" d="m-50 -90
	c-72 -41 -72 -158 52 -188
	c150 -10 220 188 90 256
	c-114 52 -275 0 -293 -136
	c-15 -181 93 -229 220 -334
	c88 -87 79 -133 62 -210
	c-51 33 -94 105 -89 186
	c17 267 36 374 49 574
	c6 96 -19 134 -77 135
	c-80 1 -126 -93 -61 -133
	c85 -41 133 101 31 105
	c23 17 92 37 90 -92
	c-10 -223 -39 -342 -50 -617
	c0 -90 0 -162 96 -232
	c56 72 63 230 22 289
	c-74 106 -257 168 -255 316
	c9 153 148 185 252 133
	c86 -65 29 -192 -80 -176
	c-71 12 -105 67 -59 124"/>
<use id="tclef" transform="scale(0.045)"
	xlink:href="#utclef"/>
</defs>
<use x="25.33" y="117.01" xlink:href="#tclef"/>
<defs>
<path id="uflat" fill="currentColor" d="
	m100 -746
	h32
	v734
	l-32 4
	m32 -332
	c46 -72 152 -90 208 -20
	c100 110 -120 326 -208 348
	m0 -28
	c54 0 200 -206 130 -290
	c-50 -60 -130 -4 -130 34"/>
<use id="ft0" transform="translate(-3.5,3.5) scale(0.018)"
	xlink:href="#uflat"/>
</defs>
<use x="40.33" y="105.01" xlink:href="#ft0"/>
<g font-family="serif" font-size="16" font-weight="bold" font-style="normal"
	transform="translate(56.33,117.01) scale(1.2,1)">
	<text y="-1" text-anchor="middle">4</text>
	<text y="-13" text-anchor="middle">2</text>
</g>
<defs>
<path id="hl" stroke="currentColor" d="m-6 0h12"/>
</defs>
<use x="74.33" y="87.01" xlink:href="#hl"/>
<use x="74.33" y="87.01" xlink:href="#hd"/>
<path d="M70.83 87.01v20.00" stroke="currentColor" fill="none"/>
<path fill="currentColor"
	d="M70.83 107.01c0.6 -5.6 9.6 -9 5.6 -18.4
	c1.6 6 -1.3 11.6 -5.6 12.8
"/>
<path fill="currentColor"
	d="M90.63 106.61l14.10 2.60v-3.20l-14.10 -2.60"/>
<path fill="currentColor"
	d="M91.03 101.71l13.40 2.50v-3.20l-13.40 -2.50"/>
<use x="94.53" y="87.01" xlink:href="#hl"/>
<use x="94.53" y="81.01" xlink:href="#hl"/>
<use x="94.53" y="78.01" xlink:href="#hd"/>
<path d="M91.03 78.01v27.70" stroke="currentColor" fill="none"/>
<use x="107.93" y="87.01" xlink:href="#hl"/>
<use x="107.93" y="87.01" xlink:href="#hd"/>
<path d="M104.43 87.01v21.20" stroke="currentColor" fill="none"/>
<path fill="currentColor"
	d="M118.83 117.21l31.40 0.00v-3.20l-31.40 -0.00"/>
<path fill="currentColor"
	d="M119.13 112.21l30.70 0.00v-3.20l-30.70 -0.00"/>
<path fill="currentColor"
	d="M119.13 107.21l30.70 0.00v-3.20l-30.70 -0.00"/>
<use x="122.63" y="87.01" xlink:href="#hl"/>
<use x="122.63" y="87.01" xlink:href="#hd"/>
<path d="M119.13 87.01v29.20" stroke="currentColor" fill="none"/>
<use x="133.13" y="87.01" xlink:href="#hl"/>
<use x="133.13" y="84.01" xlink:href="#hd"/>
<path d="M129.63 84.01v32.20" stroke="currentColor" fill="none"/>
<use x="143.63" y="87.01" xlink:href="#hl"/>
<use x="143.63" y="87.01" xlink:href="#hd"/>
<path d="M140.13 87.01v29.20" stroke="currentColor" fill="none"/>
<use x="153.43" y="90.01" xlink:href="#hd"/>
<path d="M149.93 90.01v26.20" stroke="currentColor" fill="none"/>
<use x="164.03" y="87.01" xlink:href="#hl"/>
<use x="164.03" y="87.01" xlink:href="#hd"/>
<path d="M160.53 87.01v20.00" stroke="currentColor" fill="none"/>
<path fill="currentColor"
	d="M160.53 107.01c0.6 -5.6 9.6 -9 5.6 -18.4
	c1.6 6 -1.3 11.6 -5.6 12.8
"/>
<path fill="currentColor"
	d="M189.03 114.31l21.90 4.00v-3.20l-21.90 -4.00"/>
<path fill="currentColor"
	d="M189.43 109.41l21.20 3.80v-3.20l-21.20 -3.80"/>
<use x="192.93" y="90.01" xlink:href="#hd"/>
<path d="M189.43 90.01v23.40" stroke="currentColor" fill="none"/>
<use x="203.53" y="93.01" xlink:href="#hd"/>
<path d="M200.03 93.01v22.30" stroke="currentColor" fill="none"/>
<use x="214.13" y="96.01" xlink:href="#hd"/>
<path d="M210.63 96.01v21.20" stroke="currentColor" fill="none"/>
<path fill="currentColor"
	d="M221.83 119.31l20.20 3.80v-3.20l-20.20 -3.80"/>
<path fill="currentColor"
	d="M222.23 114.31l19.50 3.70v-3.20l-19.50 -3.70"/>
<path fill="currentColor"
	d="M222.23 109.31l9.70 1.90v-3.20l-9.70 -1.90"/>
<use x="225.73" y="93.01" xlink:href="#hd"/>
<path d="M222.23 93.01v25.30" stroke="currentColor" fill="none"/>
<use x="235.43" y="96.01" xlink:href="#hd"/>
<path d="M231.93 96.01v24.20" stroke="currentColor" fill="none"/>
<use x="245.23" y="99.01" xlink:href="#hd"/>
<path d="M241.73 99.01v23.10" stroke="currentColor" fill="none"/>
<use x="259.73" y="99.01" xlink:href="#hd"/>
<path d="M256.23 99.01v20.00" stroke="currentColor" fill="none"/>
<path fill="currentColor"
	d="M256.23 119.01c0.6 -5.6 9.6 -9 5.6 -18.4
	c1.6 6 -1.3 11.6 -5.6 12.8
"/>
<defs>
<path id="r8e" fill="currentColor" d="m 0 0
	c-1.5 1.5 -2.4 2 -3.6 2
	c2.4 -2.8 -2.8 -4 -2.8 -1.2
	c0 2.7 4.3 2.4 5.9 0.6"/>
<g id="r8">
	<path d="m3.3 -4l-3.4 9.6" stroke="currentColor" fill="none"/>
	<use x="3.4" y="-4" xlink:href="#r8e"/>
</g>
</defs>
<use x="277.83" y="105.01" xlink:href="#r8"/>
<use x="312.63" y="87.01" xlink:href="#hl"/>
<use x="312.63" y="81.01" xlink:href="#hl"/>
<use x="312.63" y="78.01" xlink:href="#hd"/>
<use x="303.63" y="78.01" xlink:href="#ft0"/>
<path d="M309.13 78.01v27.00" stroke="currentColor" fill="none"/>
<path fill="currentColor"
	d="M309.13 105.01c0.6 -5.6 9.6 -9 5.6 -18.4
	c1.6 6 -1.3 11.6 -5.6 12.8
"/>
<path fill="currentColor"
	d="M330.13 106.61l14.10 2.60v-3.20l-14.10 -2.60"/>
<path fill="currentColor"
	d="M330.43 101.71l13.40 2.50v-3.20l-13.40 -2.50"/>
<use x="333.93" y="87.01" xlink:href="#hl"/>
<use x="333.93" y="81.01" xlink:href="#hl"/>
<use x="333.93" y="78.01" xlink:href="#hd"/>
<defs>
<path id="unat" fill="currentColor" d="
	m96 -750
	h-32
	v716
	l32 -8
	l182 -54
	v282
	h32
	v-706
	l-34 10
	l-180 50
	v-290
	m0 592
	v-190
	l182 -52
	v188"/>
<use id="nt0" transform="translate(-3,5) scale(0.018)"
	xlink:href="#unat"/>
</defs>
<use x="324.93" y="78.01" xlink:href="#nt0"/>
<path d="M330.43 78.01v27.70" stroke="currentColor" fill="none"/>
<use x="347.33" y="87.01" xlink:href="#hl"/>
<use x="347.33" y="87.01" xlink:href="#hd"/>
<path d="M343.83 87.01v21.20" stroke="currentColor" fill="none"/>
<path fill="currentColor"
	d="M358.23 117.21l31.40 0.00v-3.20l-31.40 -0.00"/>
<path fill="currentColor"
	d="M358.63 112.21l30.70 0.00v-3.20l-30.70 -0.00"/>
<path fill="currentColor"
	d="M358.63 107.21l30.70 0.00v-3.20l-30.70 -0.00"/>
<use x="362.13" y="87.01" xlink:href="#hl"/>
<use x="362.13" y="87.01" xlink:href="#hd"/>
<path d="M358.63 87.01v29.20" stroke="currentColor" fill="none"/>
<use x="372.63" y="87.01" xlink:href="#hl"/>
<use x="372.63" y="84.01" xlink:href="#hd"/>
<path d="M369.13 84.01v32.20" stroke="currentColor" fill="none"/>
<use x="383.13" y="87.01" xlink:href="#hl"/>
<use x="383.13" y="87.01" xlink:href="#hd"/>
<path d="M379.63 87.01v29.20" stroke="currentColor" fill="none"/>
<use x="392.83" y="90.01" xlink:href="#hd"/>
<path d="M389.33 90.01v26.20" stroke="currentColor" fill="none"/>
<use x="403.53" y="87.01" xlink:href="#hl"/>
<use x="403.53" y="87.01" xlink:href="#hd"/>
<path d="M400.03 87.01v20.00" stroke="currentColor" fill="none"/>
<path fill="currentColor"
	d="M400.03 107.01c0.6 -5.6 9.6 -9 5.6 -18.4
	c1.6 6 -1.3 11.6 -5.6 12.8
"/>
<path fill="currentColor"
	d="M428.43 114.31l21.90 4.00v-3.20l-21.90 -4.00"/>
<path fill="currentColor"
	d="M428.83 109.41l21.20 3.80v-3.20l-21.20 -3.80"/>
<use x="432.33" y="90.01" xlink:href="#hd"/>
<path d="M428.83 90.01v23.40" stroke="currentColor" fill="none"/>
<use x="442.93" y="93.01" xlink:href="#hd"/>
<path d="M439.43 93.01v22.30" stroke="currentColor" fill="none"/>
<use x="453.53" y="96.01" xlink:href="#hd"/>
<path d="M450.03 96.01v21.20" stroke="currentColor" fill="none"/>
<path fill="currentColor"
	d="M461.33 119.31l20.20 3.80v-3.20l-20.20 -3.80"/>
<path fill="currentColor"
	d="M461.63 114.31l19.50 3.70v-3.20l-19.50 -3.70"/>
<path fill="currentColor"
	d="M461.63 109.31l9.70 1.90v-3.20l-9.70 -1.90"/>
<use x="465.13" y="93.01" xlink:href="#hd"/>
<path d="M461.63 93.01v25.30" stroke="currentColor" fill="none"/>
<use x="474.93" y="96.01" xlink:href="#hd"/>
<path d="M471.43 96.01v24.20" stroke="currentColor" fill="none"/>
<use x="484.63" y="99.01" xlink:href="#hd"/>
<path d="M481.13 99.01v23.10" stroke="currentColor" fill="none"/>
<use x="499.13" y="99.01" xlink:href="#hd"/>
<path d="M495.63 99.01v20.00" stroke="currentColor" fill="none"/>
<path fill="currentColor"
	d="M495.63 119.01c0.6 -5.6 9.6 -9 5.6 -18.4
	c1.6 6 -1.3 11.6 -5.6 12.8
"/>
<use x="517.23" y="105.01" xlink:href="#r8"/>
<path fill="currentColor"
	d="M542.23 109.31l14.10 -2.60v-3.20l-14.10 2.60"/>
<path fill="currentColor"
	d="M542.53 104.21l13.40 -2.50v-3.20l-13.40 2.50"/>
<use x="546.03" y="87.01" xlink:href="#hl"/>
<use x="546.03" y="87.01" xlink:href="#hd"/>
<path d="M542.53 87.01v21.20" stroke="currentColor" fill="none"/>
<use x="559.43" y="87.01" xlink:href="#hl"/>
<use x="559.43" y="81.01" xlink:href="#hl"/>
<use x="559.43" y="75.01" xlink:href="#hl"/>
<use x="559.43" y="72.01" xlink:href="#hd"/>
<path d="M555.93 72.01v33.70" stroke="currentColor" fill="none"/>
<path fill="currentColor"
	d="M570.33 105.21l14.10 0.00v-3.20l-14.10 -0.00"/>
<path fill="currentColor"
	d="M570.73 100.21l13.40 0.00v-3.20l-13.40 -0.00"/>
<use x="574.23" y="87.01" xlink:href="#hl"/>
<use x="574.23" y="81.01" xlink:href="#hl"/>
<use x="574.23" y="75.01" xlink:href="#hl"/>
<use x="574.23" y="72.01" xlink:href="#hd"/>
<path d="M570.73 72.01v32.20" stroke="currentColor" fill="none"/>
<use x="587.63" y="87.01" xlink:href="#hl"/>
<use x="587.63" y="81.01" xlink:href="#hl"/>
<use x="587.63" y="75.01" xlink:href="#hl"/>
<use x="587.63" y="75.01" xlink:href="#hd"/>
<path d="M584.13 75.01v29.20" stroke="currentColor" fill="none"/>
<path fill="currentColor"
	d="M598.53 105.21l14.10 0.00v-3.20l-14.10 -0.00"/>
<path fill="currentColor"
	d="M598.83 100.21l13.40 0.00v-3.20l-13.40 -0.00"/>
<use x="602.33" y="87.01" xlink:href="#hl"/>
<use x="602.33" y="81.01" xlink:href="#hl"/>
<use x="602.33" y="75.01" xlink:href="#hl"/>
<use x="602.33" y="69.01" xlink:href="#hl"/>
<use x="602.33" y="66.01" xlink:href="#hd"/>
<path d="M598.83 66.01v38.20" stroke="currentColor" fill="none"/>
<use x="615.73" y="87.01" xlink:href="#hl"/>
<use x="615.73" y="81.01" xlink:href="#hl"/>
<use x="615.73" y="75.01" xlink:href="#hl"/>
<use x="615.73" y="75.01" xlink:href="#hd"/>
<path d="M612.23 75.01v29.20" stroke="currentColor" fill="none"/>
<path fill="currentColor"
	d="M626.63 105.21l14.10 0.00v-3.20l-14.10 -0.00"/>
<path fill="currentColor"
	d="M627.03 100.21l13.40 0.00v-3.20l-13.40 -0.00"/>
<use x="630.53" y="87.01" xlink:href="#hl"/>
<use x="630.53" y="81.01" xlink:href="#hl"/>
<use x="630.53" y="78.01" xlink:href="#hd"/>
<path d="M627.03 78.01v26.20" stroke="currentColor" fill="none"/>
<use x="643.93" y="87.01" xlink:href="#hl"/>
<use x="643.93" y="81.01" xlink:href="#hl"/>
<use x="643.93" y="75.01" xlink:href="#hl"/>
<use x="643.93" y="72.01" xlink:href="#hd"/>
<path d="M640.43 72.01v32.20" stroke="currentColor" fill="none"/>
<path fill="currentColor"
	d="M664.53 105.21l14.10 0.00v-3.20l-14.10 -0.00"/>
<path fill="currentColor"
	d="M664.93 100.21l13.40 0.00v-3.20l-13.40 -0.00"/>
<use x="668.43" y="87.01" xlink:href="#hl"/>
<use x="668.43" y="81.01" xlink:href="#hl"/>
<use x="668.43" y="75.01" xlink:href="#hl"/>
<use x="668.43" y="75.01" xlink:href="#hd"/>
<path d="M664.93 75.01v29.20" stroke="currentColor" fill="none"/>
<use x="681.83" y="87.01" xlink:href="#hl"/>
<use x="681.83" y="81.01" xlink:href="#hl"/>
<use x="681.83" y="78.01" xlink:href="#hd"/>
<path d="M678.33 78.01v26.20" stroke="currentColor" fill="none"/>
</g>
</svg>
