<?xml version="1.0" standalone="no"?>
<!DOCTYPE svg PUBLIC "-//W3C//DTD SVG 1.1//EN"
	"http://www.w3.org/Graphics/SVG/1.1/DTD/svg11.dtd">
<svg xmlns="http://www.w3.org/2000/svg" version="1.1"
	xmlns:xlink="http://www.w3.org/1999/xlink"
	xml:space='preserve' color="black"
	width="7.38in" height="1.36in" viewBox="0 0 531 98">
<title>5850.abc (5850) tune 1</title>
<!-- Creator: abcm2ps-7.8.14 -->
<!-- CreationDate: Mar 13, 2016 18:54 -->
<!-- CommandLine: -qxg 5850.abc -O ../svgs/5850.svg -->
<g transform="scale(0.750)" stroke-width="0.70" font-family="Times" font-size="20.00">
<text x="354.13" y="21.67" text-anchor="middle">5850.  Sonata in F, Op. 8, 4th. Mvt. - 1st. Theme</text>
</g>
<g transform="scale(0.750)" stroke-width="0.70" font-family="Times" font-size="14.00" font-style="italic">
<text x="694.93" y="45.34" text-anchor="end">Johann Schobert</text>
</g>
<g transform="scale(0.525)" stroke-width="0.70" font-family="Times" font-size="14.00" font-style="italic">
<defs>
<ellipse id="hd" rx="4.1" ry="2.9"
	transform="rotate(-20)" fill="currentColor"/>
</defs>
<use x="107.04" y="94.16" xlink:href="#hd"/>
<path d="M110.54 94.16v-20.00" stroke="currentColor" fill="none"/>
</g>
<g transform="scale(0.750)" stroke-width="0.70" font-family="Times" font-size="15.00" font-weight="bold">
<text x="82.63" y="68.01">= 120</text>
<path stroke="currentColor" fill="none"
	d="M151.13 108.01v-24.00"/>
<path stroke="currentColor" fill="none"
	d="M240.43 108.01v-24.00"/>
<path stroke="currentColor" fill="none"
	d="M329.63 108.01v-24.00"/>
<path stroke="currentColor" fill="none"
	d="M419.43 108.01v-24.00"/>
<path stroke="currentColor" fill="none"
	d="M558.43 108.01v-24.00"/>
<path stroke="currentColor" fill="none"
	d="M694.93 108.01v-24.00"/>
<path stroke="currentColor" fill="none"
	d="M13.33 108.01h681.60m-681.60 -6h681.60m-681.60 -6h681.60m-681.60 -6h681.60m-681.60 -6h681.60"/>
<defs>
<path id="utclef" fill="currentColor" d="m-50 -90
	c-72 -41 -72 -158 52 -188
	c150 -10 220 188 90 256
	c-114 52 -275 0 -293 -136
	c-15 -181 93 -229 220 -334
	c88 -87 79 -133 62 -210
	c-51 33 -94 105 -89 186
	c17 267 36 374 49 574
	c6 96 -19 134 -77 135
	c-80 1 -126 -93 -61 -133
	c85 -41 133 101 31 105
	c23 17 92 37 90 -92
	c-10 -223 -39 -342 -50 -617
	c0 -90 0 -162 96 -232
	c56 72 63 230 22 289
	c-74 106 -257 168 -255 316
	c9 153 148 185 252 133
	c86 -65 29 -192 -80 -176
	c-71 12 -105 67 -59 124"/>
<use id="tclef" transform="scale(0.045)"
	xlink:href="#utclef"/>
</defs>
<use x="25.33" y="108.01" xlink:href="#tclef"/>
<defs>
<path id="uflat" fill="currentColor" d="
	m100 -746
	h32
	v734
	l-32 4
	m32 -332
	c46 -72 152 -90 208 -20
	c100 110 -120 326 -208 348
	m0 -28
	c54 0 200 -206 130 -290
	c-50 -60 -130 -4 -130 34"/>
<use id="ft0" transform="translate(-3.5,3.5) scale(0.018)"
	xlink:href="#uflat"/>
</defs>
<use x="40.33" y="96.01" xlink:href="#ft0"/>
<g font-family="serif" font-size="16" font-weight="bold" font-style="normal"
	transform="translate(56.33,108.01) scale(1.2,1)">
	<text y="-1" text-anchor="middle">4</text>
	<text y="-13" text-anchor="middle">3</text>
</g>
<path fill="currentColor"
	d="M70.53 107.91l16.50 4.40v-3.20l-16.50 -4.40"/>
<use x="74.33" y="84.01" xlink:href="#hd"/>
<path d="M70.83 84.01v23.00" stroke="currentColor" fill="none"/>
<use x="90.13" y="93.01" xlink:href="#hd"/>
<path d="M86.63 93.01v18.20" stroke="currentColor" fill="none"/>
<use x="107.53" y="93.01" xlink:href="#hd"/>
<path d="M104.03 93.01v20.00" stroke="currentColor" fill="none"/>
<defs>
<path id="r4" fill="currentColor" d="m-1 -8.5
	l3.6 5.1 -2.1 5.2 2.2 4.3
	c-2.6 -2.3 -5.1 0 -2.4 2.6
	c-4.8 -3 -1.5 -6.9 1.4 -4.1
	l-3.1 -4.5 1.9 -5.1 -1.5 -3.5"/>
</defs>
<use x="131.53" y="96.01" xlink:href="#r4"/>
<path fill="currentColor"
	d="M159.73 110.41l16.50 2.30v-3.20l-16.50 -2.30"/>
<use x="163.63" y="90.01" xlink:href="#hd"/>
<path d="M160.13 90.01v19.40" stroke="currentColor" fill="none"/>
<use x="179.43" y="93.01" xlink:href="#hd"/>
<path d="M175.93 93.01v18.60" stroke="currentColor" fill="none"/>
<use x="196.83" y="93.01" xlink:href="#hd"/>
<path d="M193.33 93.01v20.00" stroke="currentColor" fill="none"/>
<use x="220.83" y="96.01" xlink:href="#r4"/>
<path fill="currentColor"
	d="M249.03 107.91l16.50 4.40v-3.20l-16.50 -4.40"/>
<use x="252.93" y="84.01" xlink:href="#hd"/>
<path d="M249.43 84.01v23.00" stroke="currentColor" fill="none"/>
<use x="268.73" y="93.01" xlink:href="#hd"/>
<path d="M265.23 93.01v18.20" stroke="currentColor" fill="none"/>
<use x="286.13" y="93.01" xlink:href="#hd"/>
<path d="M282.63 93.01v20.00" stroke="currentColor" fill="none"/>
<use x="310.13" y="96.01" xlink:href="#r4"/>
<path fill="currentColor"
	d="M338.33 96.21l16.80 1.70v-3.20l-16.80 -1.70"/>
<defs>
<path id="hl" stroke="currentColor" d="m-6 0h12"/>
</defs>
<use x="342.13" y="78.01" xlink:href="#hl"/>
<use x="342.13" y="75.01" xlink:href="#hd"/>
<path d="M338.63 75.01v20.20" stroke="currentColor" fill="none"/>
<use x="358.23" y="78.01" xlink:href="#hl"/>
<use x="358.23" y="78.01" xlink:href="#hd"/>
<path d="M354.73 78.01v18.80" stroke="currentColor" fill="none"/>
<use x="375.93" y="78.01" xlink:href="#hl"/>
<use x="375.93" y="78.01" xlink:href="#hd"/>
<path d="M372.43 78.01v20.00" stroke="currentColor" fill="none"/>
<use x="399.83" y="96.01" xlink:href="#r4"/>
<use x="431.93" y="78.01" xlink:href="#hl"/>
<use x="431.93" y="72.01" xlink:href="#hl"/>
<use x="431.93" y="66.01" xlink:href="#hl"/>
<use x="431.93" y="63.01" xlink:href="#hd"/>
<path d="M428.43 63.01v33.00" stroke="currentColor" fill="none"/>
<path fill="currentColor"
	d="M452.33 96.21l12.60 0.00v-3.20l-12.60 -0.00"/>
<path fill="currentColor"
	d="M452.63 91.21l11.90 0.00v-3.20l-11.90 -0.00"/>
<use x="456.13" y="78.01" xlink:href="#hl"/>
<use x="456.13" y="72.01" xlink:href="#hl"/>
<use x="456.13" y="66.01" xlink:href="#hl"/>
<use x="456.13" y="60.01" xlink:href="#hl"/>
<use x="456.13" y="57.01" xlink:href="#hd"/>
<path d="M452.63 57.01v38.20" stroke="currentColor" fill="none"/>
<use x="468.03" y="78.01" xlink:href="#hl"/>
<use x="468.03" y="72.01" xlink:href="#hl"/>
<use x="468.03" y="66.01" xlink:href="#hl"/>
<use x="468.03" y="60.01" xlink:href="#hl"/>
<use x="468.03" y="60.01" xlink:href="#hd"/>
<path d="M464.53 60.01v35.20" stroke="currentColor" fill="none"/>
<path fill="currentColor"
	d="M477.23 96.21l24.50 0.00v-3.20l-24.50 -0.00"/>
<path fill="currentColor"
	d="M477.63 91.21l23.80 0.00v-3.20l-23.80 -0.00"/>
<use x="481.13" y="78.01" xlink:href="#hl"/>
<use x="481.13" y="72.01" xlink:href="#hl"/>
<use x="481.13" y="66.01" xlink:href="#hl"/>
<use x="481.13" y="63.01" xlink:href="#hd"/>
<path d="M477.63 63.01v32.20" stroke="currentColor" fill="none"/>
<use x="493.03" y="78.01" xlink:href="#hl"/>
<use x="493.03" y="72.01" xlink:href="#hl"/>
<use x="493.03" y="66.01" xlink:href="#hl"/>
<use x="493.03" y="66.01" xlink:href="#hd"/>
<path d="M489.53 66.01v29.20" stroke="currentColor" fill="none"/>
<use x="504.93" y="78.01" xlink:href="#hl"/>
<use x="504.93" y="72.01" xlink:href="#hl"/>
<use x="504.93" y="69.01" xlink:href="#hd"/>
<path d="M501.43 69.01v26.20" stroke="currentColor" fill="none"/>
<path fill="currentColor"
	d="M514.03 102.21l30.60 0.00v-3.20l-30.60 -0.00"/>
<path fill="currentColor"
	d="M514.43 97.21l29.90 0.00v-3.20l-29.90 -0.00"/>
<use x="517.93" y="78.01" xlink:href="#hl"/>
<use x="517.93" y="72.01" xlink:href="#hl"/>
<use x="517.93" y="72.01" xlink:href="#hd"/>
<path d="M514.43 72.01v29.20" stroke="currentColor" fill="none"/>
<use x="535.93" y="78.01" xlink:href="#hl"/>
<use x="535.93" y="75.01" xlink:href="#hd"/>
<defs>
<path id="unat" fill="currentColor" d="
	m96 -750
	h-32
	v716
	l32 -8
	l182 -54
	v282
	h32
	v-706
	l-34 10
	l-180 50
	v-290
	m0 592
	v-190
	l182 -52
	v188"/>
<use id="nt0" transform="translate(-3,5) scale(0.018)"
	xlink:href="#unat"/>
</defs>
<use x="526.93" y="75.01" xlink:href="#nt0"/>
<path d="M532.43 75.01v26.20" stroke="currentColor" fill="none"/>
<use x="547.83" y="78.01" xlink:href="#hl"/>
<use x="547.83" y="78.01" xlink:href="#hd"/>
<path d="M544.33 78.01v23.20" stroke="currentColor" fill="none"/>
<use x="570.93" y="81.01" xlink:href="#hd"/>
<path d="M567.43 81.01v20.00" stroke="currentColor" fill="none"/>
<path fill="currentColor"
	d="M591.03 96.21l12.60 0.00v-3.20l-12.60 -0.00"/>
<path fill="currentColor"
	d="M591.33 91.21l11.90 0.00v-3.20l-11.90 -0.00"/>
<use x="594.83" y="78.01" xlink:href="#hl"/>
<use x="594.83" y="72.01" xlink:href="#hl"/>
<use x="594.83" y="69.01" xlink:href="#hd"/>
<path d="M591.33 69.01v26.20" stroke="currentColor" fill="none"/>
<use x="606.73" y="78.01" xlink:href="#hl"/>
<use x="606.73" y="72.01" xlink:href="#hl"/>
<use x="606.73" y="72.01" xlink:href="#hd"/>
<path d="M603.23 72.01v23.20" stroke="currentColor" fill="none"/>
<path fill="currentColor"
	d="M620.93 99.21l24.20 4.10v-3.20l-24.20 -4.10"/>
<path fill="currentColor"
	d="M621.23 94.21l23.50 4.00v-3.20l-23.50 -4.00"/>
<use x="624.73" y="78.01" xlink:href="#hl"/>
<use x="624.73" y="75.01" xlink:href="#hd"/>
<use x="615.73" y="75.01" xlink:href="#nt0"/>
<path d="M621.23 75.01v23.20" stroke="currentColor" fill="none"/>
<use x="636.63" y="78.01" xlink:href="#hl"/>
<use x="636.63" y="78.01" xlink:href="#hd"/>
<path d="M633.13 78.01v22.20" stroke="currentColor" fill="none"/>
<use x="648.33" y="81.01" xlink:href="#hd"/>
<path d="M644.83 81.01v21.20" stroke="currentColor" fill="none"/>
<path fill="currentColor"
	d="M657.23 108.21l24.00 4.10v-3.20l-24.00 -4.10"/>
<path fill="currentColor"
	d="M657.53 103.21l23.30 4.00v-3.20l-23.30 -4.00"/>
<use x="661.03" y="84.01" xlink:href="#hd"/>
<path d="M657.53 84.01v23.20" stroke="currentColor" fill="none"/>
<use x="672.73" y="87.01" xlink:href="#hd"/>
<path d="M669.23 87.01v22.20" stroke="currentColor" fill="none"/>
<use x="684.33" y="90.01" xlink:href="#hd"/>
<path d="M680.83 90.01v21.20" stroke="currentColor" fill="none"/>
</g>
</svg>
