<?xml version="1.0" standalone="no"?>
<!DOCTYPE svg PUBLIC "-//W3C//DTD SVG 1.1//EN"
	"http://www.w3.org/Graphics/SVG/1.1/DTD/svg11.dtd">
<svg xmlns="http://www.w3.org/2000/svg" version="1.1"
	xmlns:xlink="http://www.w3.org/1999/xlink"
	xml:space='preserve' color="black"
	width="7.38in" height="1.35in" viewBox="0 0 531 98">
<title>5914.abc (5914) tune 1</title>
<!-- Creator: abcm2ps-7.8.14 -->
<!-- CreationDate: Mar 13, 2016 18:54 -->
<!-- CommandLine: -qxg 5914.abc -O ../svgs/5914.svg -->
<g transform="scale(0.750)" stroke-width="0.70" font-family="Times" font-size="20.00">
<text x="354.13" y="21.67" text-anchor="middle">5914.  Octet in F, Op. 166, 1st. Mvt. - 1st. Theme</text>
</g>
<g transform="scale(0.750)" stroke-width="0.70" font-family="Times" font-size="14.00" font-style="italic">
<text x="694.93" y="45.34" text-anchor="end">Franz Schubert</text>
</g>
<g transform="scale(0.525)" stroke-width="0.70" font-family="Times" font-size="14.00" font-style="italic">
<defs>
<ellipse id="hd" rx="4.1" ry="2.9"
	transform="rotate(-20)" fill="currentColor"/>
</defs>
<use x="107.76" y="94.16" xlink:href="#hd"/>
<path d="M111.26 94.16v-20.00" stroke="currentColor" fill="none"/>
</g>
<g transform="scale(0.750)" stroke-width="0.70" font-family="Times" font-size="15.00" font-weight="bold">
<text x="83.13" y="68.01">= 120</text>
<path stroke="currentColor" fill="none"
	d="M199.13 107.01v-24.00"/>
<path stroke="currentColor" fill="none"
	d="M444.13 107.01v-24.00"/>
<path stroke="currentColor" fill="none"
	d="M646.73 107.01v-24.00"/>
<path stroke="currentColor" fill="none"
	d="M13.33 107.01h681.60m-681.60 -6h681.60m-681.60 -6h681.60m-681.60 -6h681.60m-681.60 -6h681.60"/>
<defs>
<path id="utclef" fill="currentColor" d="m-50 -90
	c-72 -41 -72 -158 52 -188
	c150 -10 220 188 90 256
	c-114 52 -275 0 -293 -136
	c-15 -181 93 -229 220 -334
	c88 -87 79 -133 62 -210
	c-51 33 -94 105 -89 186
	c17 267 36 374 49 574
	c6 96 -19 134 -77 135
	c-80 1 -126 -93 -61 -133
	c85 -41 133 101 31 105
	c23 17 92 37 90 -92
	c-10 -223 -39 -342 -50 -617
	c0 -90 0 -162 96 -232
	c56 72 63 230 22 289
	c-74 106 -257 168 -255 316
	c9 153 148 185 252 133
	c86 -65 29 -192 -80 -176
	c-71 12 -105 67 -59 124"/>
<use id="tclef" transform="scale(0.045)"
	xlink:href="#utclef"/>
</defs>
<use x="25.33" y="107.01" xlink:href="#tclef"/>
<defs>
<path id="uflat" fill="currentColor" d="
	m100 -746
	h32
	v734
	l-32 4
	m32 -332
	c46 -72 152 -90 208 -20
	c100 110 -120 326 -208 348
	m0 -28
	c54 0 200 -206 130 -290
	c-50 -60 -130 -4 -130 34"/>
<use id="ft0" transform="translate(-3.5,3.5) scale(0.018)"
	xlink:href="#uflat"/>
</defs>
<use x="40.33" y="95.01" xlink:href="#ft0"/>
<g font-family="serif" font-size="16" font-weight="bold" font-style="normal"
	transform="translate(56.33,107.01) scale(1.2,1)">
	<text y="-1" text-anchor="middle">4</text>
	<text y="-13" text-anchor="middle">4</text>
</g>
<defs>
<path id="Hd" fill="currentColor" d="m3 -1.6
	c-1 -1.8 -7 1.4 -6 3.2
	c1 1.8 7 -1.4 6 -3.2
	m0.5 -0.3
	c2 3.8 -5 7.6 -7 3.8
	c-2 -3.8 5 -7.6 7 -3.8"/>
</defs>
<use x="74.83" y="83.01" xlink:href="#Hd"/>
<circle fill="currentColor" cx="84.83" cy="80.01" r="1.2"/>
<path d="M71.33 83.01v20.00" stroke="currentColor" fill="none"/>
<path fill="currentColor"
	d="M144.13 107.81l33.60 -2.60v-3.20l-33.60 2.60"/>
<path fill="currentColor"
	d="M171.43 100.71l6.00 -0.50v-3.20l-6.00 0.50"/>
<use x="148.03" y="86.01" xlink:href="#hd"/>
<circle fill="currentColor" cx="156.03" cy="86.01" r="1.2"/>
<path d="M144.53 86.01v20.80" stroke="currentColor" fill="none"/>
<use x="180.93" y="83.01" xlink:href="#hd"/>
<path d="M177.43 83.01v21.20" stroke="currentColor" fill="none"/>
<use x="215.23" y="83.01" xlink:href="#hd"/>
<path d="M211.73 83.01v20.00" stroke="currentColor" fill="none"/>
<path fill="currentColor"
	d="M211.73 103.01c0.6 -5.6 9.6 -9 5.6 -18.4
	c1.6 6 -1.3 11.6 -5.6 12.8
"/>
<defs>
<path id="r8e" fill="currentColor" d="m 0 0
	c-1.5 1.5 -2.4 2 -3.6 2
	c2.4 -2.8 -2.8 -4 -2.8 -1.2
	c0 2.7 4.3 2.4 5.9 0.6"/>
<g id="r8">
	<path d="m3.3 -4l-3.4 9.6" stroke="currentColor" fill="none"/>
	<use x="3.4" y="-4" xlink:href="#r8e"/>
</g>
</defs>
<use x="244.13" y="95.01" xlink:href="#r8"/>
<path fill="currentColor"
	d="M272.43 101.21l33.60 0.00v-3.20l-33.60 -0.00"/>
<path fill="currentColor"
	d="M299.73 96.21l6.00 0.00v-3.20l-6.00 -0.00"/>
<defs>
<path id="hl" stroke="currentColor" d="m-6 0h12"/>
</defs>
<use x="276.23" y="77.01" xlink:href="#hl"/>
<use x="276.23" y="77.01" xlink:href="#hd"/>
<circle fill="currentColor" cx="284.23" cy="74.01" r="1.2"/>
<use x="267.23" y="77.01" xlink:href="#ft0"/>
<path d="M272.73 77.01v23.20" stroke="currentColor" fill="none"/>
<use x="309.23" y="77.01" xlink:href="#hl"/>
<use x="309.23" y="77.01" xlink:href="#hd"/>
<defs>
<path id="unat" fill="currentColor" d="
	m96 -750
	h-32
	v716
	l32 -8
	l182 -54
	v282
	h32
	v-706
	l-34 10
	l-180 50
	v-290
	m0 592
	v-190
	l182 -52
	v188"/>
<use id="nt0" transform="translate(-3,5) scale(0.018)"
	xlink:href="#unat"/>
</defs>
<use x="300.23" y="77.01" xlink:href="#nt0"/>
<path d="M305.73 77.01v23.20" stroke="currentColor" fill="none"/>
<use x="331.93" y="77.01" xlink:href="#hl"/>
<use x="331.93" y="77.01" xlink:href="#hd"/>
<path d="M328.43 77.01v20.00" stroke="currentColor" fill="none"/>
<path fill="currentColor"
	d="M328.43 97.01c0.6 -5.6 9.6 -9 5.6 -18.4
	c1.6 6 -1.3 11.6 -5.6 12.8
"/>
<use x="360.83" y="95.01" xlink:href="#r8"/>
<path fill="currentColor"
	d="M389.23 95.21l33.60 0.00v-3.20l-33.60 -0.00"/>
<path fill="currentColor"
	d="M416.43 90.21l6.00 0.00v-3.20l-6.00 -0.00"/>
<use x="393.03" y="77.01" xlink:href="#hl"/>
<use x="393.03" y="74.01" xlink:href="#hd"/>
<circle fill="currentColor" cx="401.03" cy="74.01" r="1.2"/>
<use x="384.03" y="74.01" xlink:href="#nt0"/>
<path d="M389.53 74.01v20.20" stroke="currentColor" fill="none"/>
<use x="425.93" y="77.01" xlink:href="#hl"/>
<use x="425.93" y="71.01" xlink:href="#hl"/>
<use x="425.93" y="71.01" xlink:href="#hd"/>
<path d="M422.43 71.01v23.20" stroke="currentColor" fill="none"/>
<use x="460.23" y="77.01" xlink:href="#hl"/>
<use x="460.23" y="71.01" xlink:href="#hl"/>
<use x="460.23" y="65.01" xlink:href="#hl"/>
<use x="460.23" y="62.01" xlink:href="#Hd"/>
<path d="M456.73 62.01v33.00" stroke="currentColor" fill="none"/>
<use x="524.53" y="77.01" xlink:href="#hl"/>
<use x="524.53" y="71.01" xlink:href="#hl"/>
<use x="524.53" y="65.01" xlink:href="#hl"/>
<use x="524.53" y="62.01" xlink:href="#hd"/>
<path d="M521.03 62.01v33.00" stroke="currentColor" fill="none"/>
<path fill="currentColor"
	d="M521.03 95.01c0.6 -5.6 9.6 -9 5.6 -18.4
	c1.6 6 -1.3 11.6 -5.6 12.8
"/>
<use x="556.63" y="77.01" xlink:href="#hl"/>
<use x="556.63" y="71.01" xlink:href="#hl"/>
<use x="556.63" y="68.01" xlink:href="#hd"/>
<path d="M553.13 68.01v27.00" stroke="currentColor" fill="none"/>
<path fill="currentColor"
	d="M553.13 95.01c0.6 -5.6 9.6 -9 5.6 -18.4
	c1.6 6 -1.3 11.6 -5.6 12.8
"/>
<use x="588.83" y="77.01" xlink:href="#hl"/>
<use x="588.83" y="74.01" xlink:href="#hd"/>
<use x="579.83" y="74.01" xlink:href="#ft0"/>
<path d="M585.33 74.01v21.00" stroke="currentColor" fill="none"/>
<path fill="currentColor"
	d="M585.33 95.01c0.6 -5.6 9.6 -9 5.6 -18.4
	c1.6 6 -1.3 11.6 -5.6 12.8
"/>
<use x="620.93" y="80.01" xlink:href="#hd"/>
<path d="M617.43 80.01v20.00" stroke="currentColor" fill="none"/>
<path fill="currentColor"
	d="M617.43 100.01c0.6 -5.6 9.6 -9 5.6 -18.4
	c1.6 6 -1.3 11.6 -5.6 12.8
"/>
<use x="662.73" y="77.01" xlink:href="#hl"/>
<use x="662.73" y="71.01" xlink:href="#hl"/>
<use x="662.73" y="71.01" xlink:href="#hd"/>
<path d="M659.23 71.01v24.00" stroke="currentColor" fill="none"/>
<path fill="currentColor"
	d="M659.23 95.01c0.6 -5.6 9.6 -9 5.6 -18.4
	c1.6 6 -1.3 11.6 -5.6 12.8
"/>
<path fill="currentColor"
	d="M463.73 60.01c8.58 -5.53 48.73 -5.53 57.31 -0.00
	l0.00 -0.26c-10.30 -7.27 -47.01 -7.27 -57.31 0.26"/>
</g>
</svg>
