<?xml version="1.0" standalone="no"?>
<!DOCTYPE svg PUBLIC "-//W3C//DTD SVG 1.1//EN"
	"http://www.w3.org/Graphics/SVG/1.1/DTD/svg11.dtd">
<svg xmlns="http://www.w3.org/2000/svg" version="1.1"
	xmlns:xlink="http://www.w3.org/1999/xlink"
	xml:space='preserve' color="black"
	width="7.38in" height="1.57in" viewBox="0 0 531 113">
<title>5915.abc (5915) tune 1</title>
<!-- Creator: abcm2ps-7.8.14 -->
<!-- CreationDate: Mar 13, 2016 18:54 -->
<!-- CommandLine: -qxg 5915.abc -O ../svgs/5915.svg -->
<g transform="scale(0.750)" stroke-width="0.70" font-family="Times" font-size="20.00">
<text x="354.13" y="21.67" text-anchor="middle">5915.  Octet in F, Op. 166, 1st. Mvt. - 2nd. Theme</text>
</g>
<g transform="scale(0.750)" stroke-width="0.70" font-family="Times" font-size="14.00" font-style="italic">
<text x="694.93" y="45.34" text-anchor="end">Franz Schubert</text>
</g>
<g transform="scale(0.525)" stroke-width="0.70" font-family="Times" font-size="14.00" font-style="italic">
<defs>
<ellipse id="hd" rx="4.1" ry="2.9"
	transform="rotate(-20)" fill="currentColor"/>
</defs>
<use x="107.04" y="94.16" xlink:href="#hd"/>
<path d="M110.54 94.16v-20.00" stroke="currentColor" fill="none"/>
</g>
<g transform="scale(0.750)" stroke-width="0.70" font-family="Times" font-size="15.00" font-weight="bold">
<text x="82.63" y="68.01">= 120</text>
<path stroke="currentColor" fill="none"
	d="M200.13 128.01v-24.00"/>
<path stroke="currentColor" fill="none"
	d="M369.13 128.01v-24.00"/>
<path stroke="currentColor" fill="none"
	d="M511.83 128.01v-24.00"/>
<path stroke="currentColor" fill="none"
	d="M13.33 128.01h681.60m-681.60 -6h681.60m-681.60 -6h681.60m-681.60 -6h681.60m-681.60 -6h681.60"/>
<defs>
<path id="utclef" fill="currentColor" d="m-50 -90
	c-72 -41 -72 -158 52 -188
	c150 -10 220 188 90 256
	c-114 52 -275 0 -293 -136
	c-15 -181 93 -229 220 -334
	c88 -87 79 -133 62 -210
	c-51 33 -94 105 -89 186
	c17 267 36 374 49 574
	c6 96 -19 134 -77 135
	c-80 1 -126 -93 -61 -133
	c85 -41 133 101 31 105
	c23 17 92 37 90 -92
	c-10 -223 -39 -342 -50 -617
	c0 -90 0 -162 96 -232
	c56 72 63 230 22 289
	c-74 106 -257 168 -255 316
	c9 153 148 185 252 133
	c86 -65 29 -192 -80 -176
	c-71 12 -105 67 -59 124"/>
<use id="tclef" transform="scale(0.045)"
	xlink:href="#utclef"/>
</defs>
<use x="25.33" y="128.01" xlink:href="#tclef"/>
<defs>
<path id="uflat" fill="currentColor" d="
	m100 -746
	h32
	v734
	l-32 4
	m32 -332
	c46 -72 152 -90 208 -20
	c100 110 -120 326 -208 348
	m0 -28
	c54 0 200 -206 130 -290
	c-50 -60 -130 -4 -130 34"/>
<use id="ft0" transform="translate(-3.5,3.5) scale(0.018)"
	xlink:href="#uflat"/>
</defs>
<use x="40.33" y="116.01" xlink:href="#ft0"/>
<g font-family="serif" font-size="16" font-weight="bold" font-style="normal"
	transform="translate(56.33,128.01) scale(1.2,1)">
	<text y="-1" text-anchor="middle">4</text>
	<text y="-13" text-anchor="middle">4</text>
</g>
<path fill="currentColor"
	d="M70.53 119.51l25.10 -3.10v-3.20l-25.10 3.10"/>
<path fill="currentColor"
	d="M89.23 112.21l6.00 -0.70v-3.20l-6.00 0.70"/>
<defs>
<path id="hl" stroke="currentColor" d="m-6 0h12"/>
</defs>
<use x="74.33" y="98.01" xlink:href="#hl"/>
<use x="74.33" y="98.01" xlink:href="#hd"/>
<circle fill="currentColor" cx="82.33" cy="95.01" r="1.2"/>
<path d="M70.83 98.01v20.50" stroke="currentColor" fill="none"/>
<use x="98.73" y="98.01" xlink:href="#hl"/>
<use x="98.73" y="92.01" xlink:href="#hl"/>
<use x="98.73" y="86.01" xlink:href="#hl"/>
<use x="98.73" y="83.01" xlink:href="#hd"/>
<path d="M95.23 83.01v32.50" stroke="currentColor" fill="none"/>
<use x="115.53" y="98.01" xlink:href="#hl"/>
<use x="115.53" y="92.01" xlink:href="#hl"/>
<use x="115.53" y="86.01" xlink:href="#hl"/>
<defs>
<path id="Hd" fill="currentColor" d="m3 -1.6
	c-1 -1.8 -7 1.4 -6 3.2
	c1 1.8 7 -1.4 6 -3.2
	m0.5 -0.3
	c2 3.8 -5 7.6 -7 3.8
	c-2 -3.8 5 -7.6 7 -3.8"/>
</defs>
<use x="115.53" y="83.01" xlink:href="#Hd"/>
<path d="M112.03 83.01v33.00" stroke="currentColor" fill="none"/>
<path fill="currentColor"
	d="M158.43 117.11l25.10 3.10v-3.20l-25.10 -3.10"/>
<path fill="currentColor"
	d="M177.23 114.51l6.00 0.70v-3.20l-6.00 -0.70"/>
<use x="162.33" y="98.01" xlink:href="#hl"/>
<use x="162.33" y="92.01" xlink:href="#hl"/>
<use x="162.33" y="86.01" xlink:href="#hl"/>
<use x="162.33" y="83.01" xlink:href="#hd"/>
<circle fill="currentColor" cx="170.33" cy="83.01" r="1.2"/>
<path d="M158.83 83.01v33.20" stroke="currentColor" fill="none"/>
<use x="186.73" y="98.01" xlink:href="#hl"/>
<use x="186.73" y="98.01" xlink:href="#hd"/>
<path d="M183.23 98.01v21.20" stroke="currentColor" fill="none"/>
<path fill="currentColor"
	d="M208.83 122.21l143.70 0.00v-3.20l-143.70 -0.00"/>
<path fill="currentColor"
	d="M227.53 117.21l6.00 0.00v-3.20l-6.00 -0.00"/>
<path fill="currentColor"
	d="M267.13 117.21l6.00 0.00v-3.20l-6.00 -0.00"/>
<path fill="currentColor"
	d="M306.63 117.21l6.00 0.00v-3.20l-6.00 -0.00"/>
<path fill="currentColor"
	d="M346.13 117.21l6.00 0.00v-3.20l-6.00 -0.00"/>
<use x="212.63" y="98.01" xlink:href="#hl"/>
<use x="212.63" y="98.01" xlink:href="#hd"/>
<circle fill="currentColor" cx="220.63" cy="95.01" r="1.2"/>
<path d="M209.13 98.01v23.20" stroke="currentColor" fill="none"/>
<use x="237.03" y="98.01" xlink:href="#hl"/>
<use x="237.03" y="92.01" xlink:href="#hl"/>
<use x="237.03" y="86.01" xlink:href="#hl"/>
<use x="237.03" y="83.01" xlink:href="#hd"/>
<path d="M233.53 83.01v38.20" stroke="currentColor" fill="none"/>
<use x="252.23" y="98.01" xlink:href="#hl"/>
<use x="252.23" y="92.01" xlink:href="#hl"/>
<use x="252.23" y="86.01" xlink:href="#hl"/>
<use x="252.23" y="83.01" xlink:href="#hd"/>
<circle fill="currentColor" cx="260.23" cy="83.01" r="1.2"/>
<path d="M248.73 83.01v38.20" stroke="currentColor" fill="none"/>
<use x="276.63" y="98.01" xlink:href="#hl"/>
<use x="276.63" y="98.01" xlink:href="#hd"/>
<path d="M273.13 98.01v23.20" stroke="currentColor" fill="none"/>
<use x="291.73" y="98.01" xlink:href="#hl"/>
<use x="291.73" y="98.01" xlink:href="#hd"/>
<circle fill="currentColor" cx="299.73" cy="95.01" r="1.2"/>
<path d="M288.23 98.01v23.20" stroke="currentColor" fill="none"/>
<use x="316.13" y="98.01" xlink:href="#hl"/>
<use x="316.13" y="92.01" xlink:href="#hl"/>
<use x="316.13" y="86.01" xlink:href="#hl"/>
<use x="316.13" y="83.01" xlink:href="#hd"/>
<path d="M312.63 83.01v38.20" stroke="currentColor" fill="none"/>
<use x="331.23" y="98.01" xlink:href="#hl"/>
<use x="331.23" y="92.01" xlink:href="#hl"/>
<use x="331.23" y="86.01" xlink:href="#hl"/>
<use x="331.23" y="83.01" xlink:href="#hd"/>
<circle fill="currentColor" cx="339.23" cy="83.01" r="1.2"/>
<path d="M327.73 83.01v38.20" stroke="currentColor" fill="none"/>
<use x="355.63" y="98.01" xlink:href="#hl"/>
<use x="355.63" y="98.01" xlink:href="#hd"/>
<path d="M352.13 98.01v23.20" stroke="currentColor" fill="none"/>
<path fill="currentColor"
	d="M377.73 119.51l25.10 -3.10v-3.20l-25.10 3.10"/>
<path fill="currentColor"
	d="M396.53 112.21l6.00 -0.70v-3.20l-6.00 0.70"/>
<use x="381.63" y="98.01" xlink:href="#hl"/>
<use x="381.63" y="98.01" xlink:href="#hd"/>
<circle fill="currentColor" cx="389.63" cy="95.01" r="1.2"/>
<path d="M378.13 98.01v20.50" stroke="currentColor" fill="none"/>
<use x="406.03" y="98.01" xlink:href="#hl"/>
<use x="406.03" y="92.01" xlink:href="#hl"/>
<use x="406.03" y="86.01" xlink:href="#hl"/>
<use x="406.03" y="83.01" xlink:href="#hd"/>
<path d="M402.53 83.01v32.50" stroke="currentColor" fill="none"/>
<use x="422.73" y="98.01" xlink:href="#hl"/>
<use x="422.73" y="92.01" xlink:href="#hl"/>
<use x="422.73" y="86.01" xlink:href="#hl"/>
<use x="422.73" y="83.01" xlink:href="#Hd"/>
<path d="M419.23 83.01v33.00" stroke="currentColor" fill="none"/>
<use x="469.53" y="98.01" xlink:href="#hl"/>
<use x="469.53" y="92.01" xlink:href="#hl"/>
<use x="469.53" y="86.01" xlink:href="#hl"/>
<use x="469.53" y="83.01" xlink:href="#hd"/>
<path d="M466.03 83.01v33.00" stroke="currentColor" fill="none"/>
<path fill="currentColor"
	d="M466.03 116.01c0.6 -5.6 9.6 -9 5.6 -18.4
	c1.6 6 -1.3 11.6 -5.6 12.8
"/>
<use x="493.03" y="98.01" xlink:href="#hl"/>
<use x="493.03" y="92.01" xlink:href="#hl"/>
<use x="493.03" y="86.01" xlink:href="#hl"/>
<use x="493.03" y="86.01" xlink:href="#hd"/>
<path d="M489.53 86.01v30.00" stroke="currentColor" fill="none"/>
<path fill="currentColor"
	d="M489.53 116.01c0.6 -5.6 9.6 -9 5.6 -18.4
	c1.6 6 -1.3 11.6 -5.6 12.8
"/>
<use x="524.33" y="98.01" xlink:href="#hl"/>
<use x="524.33" y="92.01" xlink:href="#hl"/>
<use x="524.33" y="89.01" xlink:href="#hd"/>
<path d="M520.83 89.01v27.00" stroke="currentColor" fill="none"/>
<path fill="currentColor"
	d="M520.83 116.01c0.6 -5.6 9.6 -9 5.6 -18.4
	c1.6 6 -1.3 11.6 -5.6 12.8
"/>
<use x="548.23" y="98.01" xlink:href="#hl"/>
<use x="548.23" y="92.01" xlink:href="#hl"/>
<use x="548.23" y="89.01" xlink:href="#hd"/>
<use x="539.23" y="89.01" xlink:href="#ft0"/>
<path d="M544.73 89.01v27.00" stroke="currentColor" fill="none"/>
<path fill="currentColor"
	d="M544.73 116.01c0.6 -5.6 9.6 -9 5.6 -18.4
	c1.6 6 -1.3 11.6 -5.6 12.8
"/>
<use x="572.03" y="98.01" xlink:href="#hl"/>
<use x="572.03" y="92.01" xlink:href="#hl"/>
<use x="572.03" y="89.01" xlink:href="#hd"/>
<use x="563.03" y="89.01" xlink:href="#ft0"/>
<path d="M568.53 89.01v27.00" stroke="currentColor" fill="none"/>
<path fill="currentColor"
	d="M601.63 116.21l18.70 0.00v-3.20l-18.70 -0.00"/>
<path fill="currentColor"
	d="M601.93 111.21l18.00 0.00v-3.20l-18.00 -0.00"/>
<use x="605.43" y="98.01" xlink:href="#hl"/>
<use x="605.43" y="92.01" xlink:href="#hl"/>
<use x="605.43" y="89.01" xlink:href="#hd"/>
<use x="596.43" y="89.01" xlink:href="#ft0"/>
<path d="M601.93 89.01v26.20" stroke="currentColor" fill="none"/>
<use x="623.43" y="98.01" xlink:href="#hl"/>
<use x="623.43" y="92.01" xlink:href="#hl"/>
<use x="623.43" y="89.01" xlink:href="#hd"/>
<defs>
<path id="unat" fill="currentColor" d="
	m96 -750
	h-32
	v716
	l32 -8
	l182 -54
	v282
	h32
	v-706
	l-34 10
	l-180 50
	v-290
	m0 592
	v-190
	l182 -52
	v188"/>
<use id="nt0" transform="translate(-3,5) scale(0.018)"
	xlink:href="#unat"/>
</defs>
<use x="614.43" y="89.01" xlink:href="#nt0"/>
<path d="M619.93 89.01v26.20" stroke="currentColor" fill="none"/>
<path fill="currentColor"
	d="M636.33 116.21l15.80 0.00v-3.20l-15.80 -0.00"/>
<path fill="currentColor"
	d="M636.63 111.21l15.10 0.00v-3.20l-15.10 -0.00"/>
<use x="640.13" y="98.01" xlink:href="#hl"/>
<use x="640.13" y="92.01" xlink:href="#hl"/>
<use x="640.13" y="86.01" xlink:href="#hl"/>
<use x="640.13" y="86.01" xlink:href="#hd"/>
<path d="M636.63 86.01v29.20" stroke="currentColor" fill="none"/>
<use x="655.33" y="98.01" xlink:href="#hl"/>
<use x="655.33" y="92.01" xlink:href="#hl"/>
<use x="655.33" y="89.01" xlink:href="#hd"/>
<path d="M651.83 89.01v26.20" stroke="currentColor" fill="none"/>
<use x="672.03" y="98.01" xlink:href="#hl"/>
<use x="672.03" y="98.01" xlink:href="#hd"/>
<path d="M668.53 98.01v20.00" stroke="currentColor" fill="none"/>
<path fill="currentColor"
	d="M668.53 118.01c0.6 -5.6 9.6 -9 5.6 -18.4
	c1.6 6 -1.3 11.6 -5.6 12.8
"/>
<path fill="currentColor"
	d="M119.03 81.01c6.27 -5.22 33.54 -5.22 39.81 -0.00
	l0.00 -0.24c-7.46 -6.98 -32.34 -6.98 -39.81 0.24"/>
<path fill="currentColor"
	d="M426.23 81.01c6.27 -5.22 33.54 -5.22 39.81 -0.00
	l0.00 -0.24c-7.46 -6.98 -32.34 -6.98 -39.81 0.24"/>
<path fill="currentColor"
	d="M575.53 87.01c4.15 -4.97 22.20 -4.97 26.35 -0.00
	l0.00 -0.23c-4.94 -6.75 -21.41 -6.75 -26.35 0.23"/>
</g>
</svg>
