<?xml version="1.0" standalone="no"?>
<!DOCTYPE svg PUBLIC "-//W3C//DTD SVG 1.1//EN"
	"http://www.w3.org/Graphics/SVG/1.1/DTD/svg11.dtd">
<svg xmlns="http://www.w3.org/2000/svg" version="1.1"
	xmlns:xlink="http://www.w3.org/1999/xlink"
	xml:space='preserve' color="black"
	width="7.38in" height="1.43in" viewBox="0 0 531 103">
<title>5955.abc (5955) tune 1</title>
<!-- Creator: abcm2ps-7.8.14 -->
<!-- CreationDate: Mar 13, 2016 18:54 -->
<!-- CommandLine: -qxg 5955.abc -O ../svgs/5955.svg -->
<g transform="scale(0.750)" stroke-width="0.70" font-family="Times" font-size="20.00">
<text x="354.13" y="21.67" text-anchor="middle">5955.  Quartet No. 13 in A Minor, Op. 29, 4th. Mvt. - 1st. Theme</text>
</g>
<g transform="scale(0.750)" stroke-width="0.70" font-family="Times" font-size="14.00" font-style="italic">
<text x="694.93" y="45.34" text-anchor="end">Franz Schubert</text>
</g>
<g transform="scale(0.525)" stroke-width="0.70" font-family="Times" font-size="14.00" font-style="italic">
<defs>
<ellipse id="hd" rx="4.1" ry="2.9"
	transform="rotate(-20)" fill="currentColor"/>
</defs>
<use x="122.76" y="94.16" xlink:href="#hd"/>
<path d="M126.26 94.16v-20.00" stroke="currentColor" fill="none"/>
</g>
<g transform="scale(0.750)" stroke-width="0.70" font-family="Times" font-size="15.00" font-weight="bold">
<text x="93.63" y="68.01">= 120</text>
<path stroke="currentColor" fill="none"
	d="M223.03 114.01v-24.00"/>
<path stroke="currentColor" fill="none"
	d="M329.13 114.01v-24.00"/>
<path stroke="currentColor" fill="none"
	d="M435.23 114.01v-24.00"/>
<path stroke="currentColor" fill="none"
	d="M557.93 114.01v-24.00"/>
<path stroke="currentColor" fill="none"
	d="M694.93 114.01v-24.00"/>
<path stroke="currentColor" fill="none"
	d="M13.33 114.01h681.60m-681.60 -6h681.60m-681.60 -6h681.60m-681.60 -6h681.60m-681.60 -6h681.60"/>
<defs>
<path id="utclef" fill="currentColor" d="m-50 -90
	c-72 -41 -72 -158 52 -188
	c150 -10 220 188 90 256
	c-114 52 -275 0 -293 -136
	c-15 -181 93 -229 220 -334
	c88 -87 79 -133 62 -210
	c-51 33 -94 105 -89 186
	c17 267 36 374 49 574
	c6 96 -19 134 -77 135
	c-80 1 -126 -93 -61 -133
	c85 -41 133 101 31 105
	c23 17 92 37 90 -92
	c-10 -223 -39 -342 -50 -617
	c0 -90 0 -162 96 -232
	c56 72 63 230 22 289
	c-74 106 -257 168 -255 316
	c9 153 148 185 252 133
	c86 -65 29 -192 -80 -176
	c-71 12 -105 67 -59 124"/>
<use id="tclef" transform="scale(0.045)"
	xlink:href="#utclef"/>
</defs>
<use x="25.33" y="114.01" xlink:href="#tclef"/>
<defs>
<path id="usharp" fill="currentColor" d="
	m136 -702
	v890
	h32
	v-890
	m128 840
	h32
	v-888
	h-32
	m-232 286
	v116
	l338 -96
	v-116
	m-338 442
	v116
	l338 -98
	v-114"/>
<use id="sh0" transform="translate(-4,5) scale(0.018)"
	xlink:href="#usharp"/>
</defs>
<use x="40.33" y="90.01" xlink:href="#sh0"/>
<use x="45.83" y="99.01" xlink:href="#sh0"/>
<use x="51.33" y="87.01" xlink:href="#sh0"/>
<g font-family="serif" font-size="16" font-weight="bold" font-style="normal"
	transform="translate(67.33,114.01) scale(1.2,1)">
	<text y="-1" text-anchor="middle">4</text>
	<text y="-13" text-anchor="middle">2</text>
</g>
<defs>
<path id="r8e" fill="currentColor" d="m 0 0
	c-1.5 1.5 -2.4 2 -3.6 2
	c2.4 -2.8 -2.8 -4 -2.8 -1.2
	c0 2.7 4.3 2.4 5.9 0.6"/>
<g id="r32">
	<path d="m4.8 -10l-5.5 21.6" stroke="currentColor" fill="none"/>
	<use x="4.9" y="-10" xlink:href="#r8e"/>
	<use x="3.4" y="-4" xlink:href="#r8e"/>
	<use x="1.9" y="2" xlink:href="#r8e"/>
</g>
</defs>
<use x="85.33" y="102.01" xlink:href="#r32"/>
<path fill="currentColor"
	d="M95.83 103.41l13.60 2.20v-3.20l-13.60 -2.20"/>
<path fill="currentColor"
	d="M96.13 98.51l12.90 2.00v-3.20l-12.90 -2.00"/>
<path fill="currentColor"
	d="M102.13 94.41l-6.00 -1.00v-3.20l6.00 1.00"/>
<defs>
<path id="hl" stroke="currentColor" d="m-6 0h12"/>
</defs>
<use x="99.63" y="84.01" xlink:href="#hl"/>
<use x="99.63" y="78.01" xlink:href="#hl"/>
<use x="99.63" y="78.01" xlink:href="#hd"/>
<path d="M96.13 78.01v24.50" stroke="currentColor" fill="none"/>
<use x="112.63" y="84.01" xlink:href="#hl"/>
<use x="112.63" y="81.01" xlink:href="#hd"/>
<path d="M109.13 81.01v23.50" stroke="currentColor" fill="none"/>
<path fill="currentColor"
	d="M129.03 102.21l18.90 0.00v-3.20l-18.90 -0.00"/>
<path fill="currentColor"
	d="M129.33 97.21l18.30 0.00v-3.20l-18.30 -0.00"/>
<use x="132.83" y="84.01" xlink:href="#hl"/>
<use x="132.83" y="78.01" xlink:href="#hl"/>
<use x="132.83" y="78.01" xlink:href="#hd"/>
<path d="M129.33 78.01v23.20" stroke="currentColor" fill="none"/>
<use x="151.13" y="84.01" xlink:href="#hl"/>
<use x="151.13" y="78.01" xlink:href="#hl"/>
<use x="151.13" y="75.01" xlink:href="#hd"/>
<path d="M147.63 75.01v26.20" stroke="currentColor" fill="none"/>
<use x="171.43" y="84.01" xlink:href="#hl"/>
<use x="171.43" y="78.01" xlink:href="#hl"/>
<use x="171.43" y="78.01" xlink:href="#hd"/>
<path d="M167.93 78.01v24.00" stroke="currentColor" fill="none"/>
<path fill="currentColor"
	d="M167.93 102.01c0.6 -5.6 9.6 -9 5.6 -18.4
	c1.6 6 -1.3 11.6 -5.6 12.8
"/>
<use x="200.13" y="84.01" xlink:href="#hl"/>
<use x="200.13" y="78.01" xlink:href="#hl"/>
<use x="200.13" y="75.01" xlink:href="#hd"/>
<path d="M196.63 75.01v27.00" stroke="currentColor" fill="none"/>
<path fill="currentColor"
	d="M196.63 102.01c0.6 -5.6 9.6 -9 5.6 -18.4
	c1.6 6 -1.3 11.6 -5.6 12.8
"/>
<use x="237.43" y="84.01" xlink:href="#hl"/>
<use x="237.43" y="78.01" xlink:href="#hl"/>
<use x="237.43" y="72.01" xlink:href="#hl"/>
<use x="237.43" y="72.01" xlink:href="#hd"/>
<path d="M233.93 72.01v30.00" stroke="currentColor" fill="none"/>
<use x="273.93" y="102.01" xlink:href="#r32"/>
<path fill="currentColor"
	d="M284.43 102.21l30.10 0.00v-3.20l-30.10 -0.00"/>
<path fill="currentColor"
	d="M308.13 97.21l6.00 0.00v-3.20l-6.00 -0.00"/>
<path fill="currentColor"
	d="M308.13 92.21l6.00 0.00v-3.20l-6.00 -0.00"/>
<use x="288.33" y="84.01" xlink:href="#hl"/>
<use x="288.33" y="78.01" xlink:href="#hl"/>
<use x="288.33" y="72.01" xlink:href="#hl"/>
<use x="288.33" y="69.01" xlink:href="#hd"/>
<circle fill="currentColor" cx="296.33" cy="69.01" r="1.2"/>
<path d="M284.83 69.01v32.20" stroke="currentColor" fill="none"/>
<use x="317.63" y="84.01" xlink:href="#hl"/>
<use x="317.63" y="78.01" xlink:href="#hl"/>
<use x="317.63" y="72.01" xlink:href="#hl"/>
<use x="317.63" y="69.01" xlink:href="#hd"/>
<path d="M314.13 69.01v32.20" stroke="currentColor" fill="none"/>
<use x="343.53" y="84.01" xlink:href="#hl"/>
<use x="343.53" y="78.01" xlink:href="#hl"/>
<use x="343.53" y="72.01" xlink:href="#hl"/>
<use x="343.53" y="72.01" xlink:href="#hd"/>
<path d="M340.03 72.01v30.00" stroke="currentColor" fill="none"/>
<use x="380.03" y="102.01" xlink:href="#r32"/>
<path fill="currentColor"
	d="M390.53 102.21l30.10 0.00v-3.20l-30.10 -0.00"/>
<path fill="currentColor"
	d="M414.23 97.21l6.00 0.00v-3.20l-6.00 -0.00"/>
<path fill="currentColor"
	d="M414.23 92.21l6.00 0.00v-3.20l-6.00 -0.00"/>
<use x="394.33" y="84.01" xlink:href="#hl"/>
<use x="394.33" y="78.01" xlink:href="#hl"/>
<use x="394.33" y="72.01" xlink:href="#hl"/>
<use x="394.33" y="69.01" xlink:href="#hd"/>
<circle fill="currentColor" cx="402.33" cy="69.01" r="1.2"/>
<path d="M390.83 69.01v32.20" stroke="currentColor" fill="none"/>
<use x="423.73" y="84.01" xlink:href="#hl"/>
<use x="423.73" y="78.01" xlink:href="#hl"/>
<use x="423.73" y="72.01" xlink:href="#hl"/>
<use x="423.73" y="69.01" xlink:href="#hd"/>
<path d="M420.23 69.01v32.20" stroke="currentColor" fill="none"/>
<path fill="currentColor"
	d="M445.73 102.21l43.00 0.00v-3.20l-43.00 -0.00"/>
<path fill="currentColor"
	d="M475.43 97.21l12.90 0.00v-3.20l-12.90 -0.00"/>
<path fill="currentColor"
	d="M475.43 92.21l12.90 0.00v-3.20l-12.90 -0.00"/>
<use x="449.53" y="84.01" xlink:href="#hl"/>
<use x="449.53" y="78.01" xlink:href="#hl"/>
<use x="449.53" y="72.01" xlink:href="#hl"/>
<use x="449.53" y="72.01" xlink:href="#hd"/>
<circle fill="currentColor" cx="457.53" cy="69.01" r="1.2"/>
<path d="M446.03 72.01v29.20" stroke="currentColor" fill="none"/>
<use x="478.93" y="84.01" xlink:href="#hl"/>
<use x="478.93" y="78.01" xlink:href="#hl"/>
<use x="478.93" y="72.01" xlink:href="#hl"/>
<use x="478.93" y="69.01" xlink:href="#hd"/>
<path d="M475.43 69.01v32.20" stroke="currentColor" fill="none"/>
<use x="491.93" y="84.01" xlink:href="#hl"/>
<use x="491.93" y="78.01" xlink:href="#hl"/>
<use x="491.93" y="72.01" xlink:href="#hl"/>
<use x="491.93" y="72.01" xlink:href="#hd"/>
<path d="M488.43 72.01v29.20" stroke="currentColor" fill="none"/>
<use x="506.23" y="84.01" xlink:href="#hl"/>
<use x="506.23" y="78.01" xlink:href="#hl"/>
<use x="506.23" y="75.01" xlink:href="#hd"/>
<path d="M502.73 75.01v27.00" stroke="currentColor" fill="none"/>
<path fill="currentColor"
	d="M502.73 102.01c0.6 -5.6 9.6 -9 5.6 -18.4
	c1.6 6 -1.3 11.6 -5.6 12.8
"/>
<use x="534.93" y="84.01" xlink:href="#hl"/>
<use x="534.93" y="78.01" xlink:href="#hl"/>
<use x="534.93" y="78.01" xlink:href="#hd"/>
<path d="M531.43 78.01v24.00" stroke="currentColor" fill="none"/>
<path fill="currentColor"
	d="M531.43 102.01c0.6 -5.6 9.6 -9 5.6 -18.4
	c1.6 6 -1.3 11.6 -5.6 12.8
"/>
<path fill="currentColor"
	d="M568.43 108.51l30.10 6.80v-3.20l-30.10 -6.80"/>
<path fill="currentColor"
	d="M592.13 108.91l6.00 1.30v-3.20l-6.00 -1.30"/>
<use x="572.23" y="84.01" xlink:href="#hl"/>
<use x="572.23" y="81.01" xlink:href="#hd"/>
<circle fill="currentColor" cx="580.23" cy="81.01" r="1.2"/>
<path d="M568.73 81.01v26.60" stroke="currentColor" fill="none"/>
<use x="601.63" y="93.01" xlink:href="#hd"/>
<path d="M598.13 93.01v21.20" stroke="currentColor" fill="none"/>
<path fill="currentColor"
	d="M618.03 112.21l18.90 -2.30v-3.20l-18.90 2.30"/>
<path fill="currentColor"
	d="M618.43 107.21l18.30 -2.30v-3.20l-18.30 2.30"/>
<use x="621.93" y="90.01" xlink:href="#hd"/>
<path d="M618.43 90.01v21.20" stroke="currentColor" fill="none"/>
<use x="640.13" y="87.01" xlink:href="#hd"/>
<path d="M636.63 87.01v21.90" stroke="currentColor" fill="none"/>
<path fill="currentColor"
	d="M656.63 106.21l18.90 -2.30v-3.20l-18.90 2.30"/>
<path fill="currentColor"
	d="M656.93 101.21l18.30 -2.30v-3.20l-18.30 2.30"/>
<use x="660.43" y="84.01" xlink:href="#hl"/>
<use x="660.43" y="84.01" xlink:href="#hd"/>
<path d="M656.93 84.01v21.20" stroke="currentColor" fill="none"/>
<use x="678.73" y="84.01" xlink:href="#hl"/>
<use x="678.73" y="81.01" xlink:href="#hd"/>
<path d="M675.23 81.01v21.90" stroke="currentColor" fill="none"/>
<path fill="currentColor"
	d="M291.83 67.01c3.53 -4.90 18.86 -4.90 22.39 -0.00
	l0.00 -0.22c-4.20 -6.68 -18.19 -6.68 -22.39 0.22"/>
<path fill="currentColor"
	d="M397.83 67.01c3.53 -4.90 18.86 -4.90 22.39 -0.00
	l0.00 -0.22c-4.20 -6.68 -18.19 -6.68 -22.39 0.22"/>
</g>
</svg>
