<?xml version="1.0" standalone="no"?>
<!DOCTYPE svg PUBLIC "-//W3C//DTD SVG 1.1//EN"
	"http://www.w3.org/Graphics/SVG/1.1/DTD/svg11.dtd">
<svg xmlns="http://www.w3.org/2000/svg" version="1.1"
	xmlns:xlink="http://www.w3.org/1999/xlink"
	xml:space='preserve' color="black"
	width="7.38in" height="1.46in" viewBox="0 0 531 105">
<title>5992.abc (5992) tune 1</title>
<!-- Creator: abcm2ps-7.8.14 -->
<!-- CreationDate: Mar 13, 2016 18:54 -->
<!-- CommandLine: -qxg 5992.abc -O ../svgs/5992.svg -->
<g transform="scale(0.750)" stroke-width="0.70" font-family="Times" font-size="20.00">
<text x="354.13" y="21.67" text-anchor="middle">5992.  Rosamunde, Overture, Op. 26, Entr&apos;Acte (Same as Slow Mvt. - A Min. Qt. )</text>
</g>
<g transform="scale(0.750)" stroke-width="0.70" font-family="Times" font-size="14.00" font-style="italic">
<text x="694.93" y="45.34" text-anchor="end">Franz Schubert</text>
</g>
<g transform="scale(0.525)" stroke-width="0.70" font-family="Times" font-size="14.00" font-style="italic">
<defs>
<ellipse id="hd" rx="4.1" ry="2.9"
	transform="rotate(-20)" fill="currentColor"/>
</defs>
<use x="114.90" y="94.16" xlink:href="#hd"/>
<path d="M118.40 94.16v-20.00" stroke="currentColor" fill="none"/>
</g>
<g transform="scale(0.750)" stroke-width="0.70" font-family="Times" font-size="15.00" font-weight="bold">
<text x="88.13" y="68.01">= 120</text>
<path stroke="currentColor" fill="none"
	d="M158.53 117.01v-24.00"/>
<path stroke="currentColor" fill="none"
	d="M233.23 117.01v-24.00"/>
<path stroke="currentColor" fill="none"
	d="M338.93 117.01v-24.00"/>
<path stroke="currentColor" fill="none"
	d="M390.93 117.01v-24.00"/>
<path stroke="currentColor" fill="none"
	d="M482.13 117.01v-24.00"/>
<path stroke="currentColor" fill="none"
	d="M556.83 117.01v-24.00"/>
<path stroke="currentColor" fill="none"
	d="M648.13 117.01v-24.00"/>
<path stroke="currentColor" fill="none"
	d="M13.33 117.01h681.60m-681.60 -6h681.60m-681.60 -6h681.60m-681.60 -6h681.60m-681.60 -6h681.60"/>
<defs>
<path id="utclef" fill="currentColor" d="m-50 -90
	c-72 -41 -72 -158 52 -188
	c150 -10 220 188 90 256
	c-114 52 -275 0 -293 -136
	c-15 -181 93 -229 220 -334
	c88 -87 79 -133 62 -210
	c-51 33 -94 105 -89 186
	c17 267 36 374 49 574
	c6 96 -19 134 -77 135
	c-80 1 -126 -93 -61 -133
	c85 -41 133 101 31 105
	c23 17 92 37 90 -92
	c-10 -223 -39 -342 -50 -617
	c0 -90 0 -162 96 -232
	c56 72 63 230 22 289
	c-74 106 -257 168 -255 316
	c9 153 148 185 252 133
	c86 -65 29 -192 -80 -176
	c-71 12 -105 67 -59 124"/>
<use id="tclef" transform="scale(0.045)"
	xlink:href="#utclef"/>
</defs>
<use x="25.33" y="117.01" xlink:href="#tclef"/>
<defs>
<path id="uflat" fill="currentColor" d="
	m100 -746
	h32
	v734
	l-32 4
	m32 -332
	c46 -72 152 -90 208 -20
	c100 110 -120 326 -208 348
	m0 -28
	c54 0 200 -206 130 -290
	c-50 -60 -130 -4 -130 34"/>
<use id="ft0" transform="translate(-3.5,3.5) scale(0.018)"
	xlink:href="#uflat"/>
</defs>
<use x="40.33" y="105.01" xlink:href="#ft0"/>
<use x="45.83" y="96.01" xlink:href="#ft0"/>
<g font-family="serif" font-size="16" font-weight="bold" font-style="normal"
	transform="translate(61.83,117.01) scale(1.2,1)">
	<text y="-1" text-anchor="middle">4</text>
	<text y="-13" text-anchor="middle">2</text>
</g>
<defs>
<path id="hl" stroke="currentColor" d="m-6 0h12"/>
</defs>
<use x="79.83" y="87.01" xlink:href="#hl"/>
<use x="79.83" y="81.01" xlink:href="#hl"/>
<use x="79.83" y="78.01" xlink:href="#hd"/>
<path d="M76.33 78.01v27.00" stroke="currentColor" fill="none"/>
<use x="114.33" y="87.01" xlink:href="#hl"/>
<use x="114.33" y="81.01" xlink:href="#hl"/>
<use x="114.33" y="78.01" xlink:href="#hd"/>
<path d="M110.83 78.01v27.00" stroke="currentColor" fill="none"/>
<path fill="currentColor"
	d="M110.83 105.01c0.6 -5.6 9.6 -9 5.6 -18.4
	c1.6 6 -1.3 11.6 -5.6 12.8
"/>
<use x="138.93" y="87.01" xlink:href="#hl"/>
<use x="138.93" y="81.01" xlink:href="#hl"/>
<use x="138.93" y="78.01" xlink:href="#hd"/>
<path d="M135.43 78.01v27.00" stroke="currentColor" fill="none"/>
<path fill="currentColor"
	d="M135.43 105.01c0.6 -5.6 9.6 -9 5.6 -18.4
	c1.6 6 -1.3 11.6 -5.6 12.8
"/>
<use x="171.03" y="87.01" xlink:href="#hl"/>
<use x="171.03" y="84.01" xlink:href="#hd"/>
<path d="M167.53 84.01v21.00" stroke="currentColor" fill="none"/>
<use x="205.53" y="87.01" xlink:href="#hl"/>
<use x="205.53" y="84.01" xlink:href="#hd"/>
<path d="M202.03 84.01v21.00" stroke="currentColor" fill="none"/>
<use x="245.73" y="87.01" xlink:href="#hl"/>
<use x="245.73" y="84.01" xlink:href="#hd"/>
<path d="M242.23 84.01v21.00" stroke="currentColor" fill="none"/>
<path fill="currentColor"
	d="M242.23 105.01c0.6 -5.6 9.6 -9 5.6 -18.4
	c1.6 6 -1.3 11.6 -5.6 12.8
"/>
<use x="270.23" y="87.01" xlink:href="#hl"/>
<use x="270.23" y="87.01" xlink:href="#hd"/>
<path d="M266.73 87.01v20.00" stroke="currentColor" fill="none"/>
<path fill="currentColor"
	d="M266.73 107.01c0.6 -5.6 9.6 -9 5.6 -18.4
	c1.6 6 -1.3 11.6 -5.6 12.8
"/>
<use x="294.73" y="87.01" xlink:href="#hl"/>
<use x="294.73" y="84.01" xlink:href="#hd"/>
<path d="M291.23 84.01v21.00" stroke="currentColor" fill="none"/>
<path fill="currentColor"
	d="M291.23 105.01c0.6 -5.6 9.6 -9 5.6 -18.4
	c1.6 6 -1.3 11.6 -5.6 12.8
"/>
<use x="319.23" y="87.01" xlink:href="#hl"/>
<use x="319.23" y="81.01" xlink:href="#hl"/>
<use x="319.23" y="81.01" xlink:href="#hd"/>
<path d="M315.73 81.01v24.00" stroke="currentColor" fill="none"/>
<path fill="currentColor"
	d="M315.73 105.01c0.6 -5.6 9.6 -9 5.6 -18.4
	c1.6 6 -1.3 11.6 -5.6 12.8
"/>
<defs>
<path id="Hd" fill="currentColor" d="m3 -1.6
	c-1 -1.8 -7 1.4 -6 3.2
	c1 1.8 7 -1.4 6 -3.2
	m0.5 -0.3
	c2 3.8 -5 7.6 -7 3.8
	c-2 -3.8 5 -7.6 7 -3.8"/>
</defs>
<use x="351.93" y="93.01" xlink:href="#Hd"/>
<path d="M348.43 93.01v20.00" stroke="currentColor" fill="none"/>
<use x="403.43" y="87.01" xlink:href="#hl"/>
<use x="403.43" y="81.01" xlink:href="#hl"/>
<use x="403.43" y="78.01" xlink:href="#hd"/>
<path d="M399.93 78.01v27.00" stroke="currentColor" fill="none"/>
<use x="438.03" y="87.01" xlink:href="#hl"/>
<use x="438.03" y="81.01" xlink:href="#hl"/>
<use x="438.03" y="78.01" xlink:href="#hd"/>
<path d="M434.53 78.01v27.00" stroke="currentColor" fill="none"/>
<path fill="currentColor"
	d="M434.53 105.01c0.6 -5.6 9.6 -9 5.6 -18.4
	c1.6 6 -1.3 11.6 -5.6 12.8
"/>
<use x="462.53" y="87.01" xlink:href="#hl"/>
<use x="462.53" y="81.01" xlink:href="#hl"/>
<use x="462.53" y="78.01" xlink:href="#hd"/>
<path d="M459.03 78.01v27.00" stroke="currentColor" fill="none"/>
<path fill="currentColor"
	d="M459.03 105.01c0.6 -5.6 9.6 -9 5.6 -18.4
	c1.6 6 -1.3 11.6 -5.6 12.8
"/>
<use x="494.63" y="90.01" xlink:href="#hd"/>
<path d="M491.13 90.01v20.00" stroke="currentColor" fill="none"/>
<use x="529.13" y="90.01" xlink:href="#hd"/>
<path d="M525.63 90.01v20.00" stroke="currentColor" fill="none"/>
<use x="569.33" y="90.01" xlink:href="#hd"/>
<path d="M565.83 90.01v20.00" stroke="currentColor" fill="none"/>
<path fill="currentColor"
	d="M565.83 110.01c0.6 -5.6 9.6 -9 5.6 -18.4
	c1.6 6 -1.3 11.6 -5.6 12.8
"/>
<use x="593.83" y="87.01" xlink:href="#hl"/>
<use x="593.83" y="81.01" xlink:href="#hl"/>
<use x="593.83" y="81.01" xlink:href="#hd"/>
<path d="M590.33 81.01v24.00" stroke="currentColor" fill="none"/>
<use x="628.53" y="87.01" xlink:href="#hl"/>
<use x="628.53" y="84.01" xlink:href="#hd"/>
<defs>
<path id="unat" fill="currentColor" d="
	m96 -750
	h-32
	v716
	l32 -8
	l182 -54
	v282
	h32
	v-706
	l-34 10
	l-180 50
	v-290
	m0 592
	v-190
	l182 -52
	v188"/>
<use id="nt0" transform="translate(-3,5) scale(0.018)"
	xlink:href="#unat"/>
</defs>
<use x="619.53" y="84.01" xlink:href="#nt0"/>
<path d="M625.03 84.01v21.00" stroke="currentColor" fill="none"/>
<path fill="currentColor"
	d="M625.03 105.01c0.6 -5.6 9.6 -9 5.6 -18.4
	c1.6 6 -1.3 11.6 -5.6 12.8
"/>
<use x="660.63" y="87.01" xlink:href="#hl"/>
<use x="660.63" y="81.01" xlink:href="#hl"/>
<use x="660.63" y="81.01" xlink:href="#hd"/>
<path d="M657.13 81.01v24.00" stroke="currentColor" fill="none"/>
</g>
</svg>
