<?xml version="1.0" standalone="no"?>
<!DOCTYPE svg PUBLIC "-//W3C//DTD SVG 1.1//EN"
	"http://www.w3.org/Graphics/SVG/1.1/DTD/svg11.dtd">
<svg xmlns="http://www.w3.org/2000/svg" version="1.1"
	xmlns:xlink="http://www.w3.org/1999/xlink"
	xml:space='preserve' color="black"
	width="7.38in" height="1.57in" viewBox="0 0 531 113">
<title>6034.abc (6034) tune 1</title>
<!-- Creator: abcm2ps-7.8.14 -->
<!-- CreationDate: Mar 13, 2016 18:54 -->
<!-- CommandLine: -qxg 6034.abc -O ../svgs/6034.svg -->
<g transform="scale(0.750)" stroke-width="0.70" font-family="Times" font-size="20.00">
<text x="354.13" y="21.67" text-anchor="middle">6034.  Sonatina in D, Op. 137, No. 1, 3rd. Mvt.</text>
</g>
<g transform="scale(0.750)" stroke-width="0.70" font-family="Times" font-size="14.00" font-style="italic">
<text x="694.93" y="45.34" text-anchor="end">Franz Schubert</text>
</g>
<g transform="scale(0.525)" stroke-width="0.70" font-family="Times" font-size="14.00" font-style="italic">
<defs>
<ellipse id="hd" rx="4.1" ry="2.9"
	transform="rotate(-20)" fill="currentColor"/>
</defs>
<use x="114.90" y="94.16" xlink:href="#hd"/>
<path d="M118.40 94.16v-20.00" stroke="currentColor" fill="none"/>
</g>
<g transform="scale(0.750)" stroke-width="0.70" font-family="Times" font-size="15.00" font-weight="bold">
<text x="88.13" y="68.01">= 120</text>
<path stroke="currentColor" fill="none"
	d="M209.83 128.01v-24.00"/>
<path stroke="currentColor" fill="none"
	d="M334.73 128.01v-24.00"/>
<path stroke="currentColor" fill="none"
	d="M510.23 128.01v-24.00"/>
<path stroke="currentColor" fill="none"
	d="M13.33 128.01h681.60m-681.60 -6h681.60m-681.60 -6h681.60m-681.60 -6h681.60m-681.60 -6h681.60"/>
<path stroke="currentColor" fill="none"
	d="M524.83 58.01v-3l67.00 -0.00v3"/>
<rect x="551.33" y="49.01" width="14.00" height="12" fill="white"/>
<text font-family="serif" font-size="12" font-style="italic" font-weight="normal"
	x="558.33" y="59.01" text-anchor="middle">3</text>
<defs>
<path id="utclef" fill="currentColor" d="m-50 -90
	c-72 -41 -72 -158 52 -188
	c150 -10 220 188 90 256
	c-114 52 -275 0 -293 -136
	c-15 -181 93 -229 220 -334
	c88 -87 79 -133 62 -210
	c-51 33 -94 105 -89 186
	c17 267 36 374 49 574
	c6 96 -19 134 -77 135
	c-80 1 -126 -93 -61 -133
	c85 -41 133 101 31 105
	c23 17 92 37 90 -92
	c-10 -223 -39 -342 -50 -617
	c0 -90 0 -162 96 -232
	c56 72 63 230 22 289
	c-74 106 -257 168 -255 316
	c9 153 148 185 252 133
	c86 -65 29 -192 -80 -176
	c-71 12 -105 67 -59 124"/>
<use id="tclef" transform="scale(0.045)"
	xlink:href="#utclef"/>
</defs>
<use x="25.33" y="128.01" xlink:href="#tclef"/>
<defs>
<path id="usharp" fill="currentColor" d="
	m136 -702
	v890
	h32
	v-890
	m128 840
	h32
	v-888
	h-32
	m-232 286
	v116
	l338 -96
	v-116
	m-338 442
	v116
	l338 -98
	v-114"/>
<use id="sh0" transform="translate(-4,5) scale(0.018)"
	xlink:href="#usharp"/>
</defs>
<use x="40.33" y="104.01" xlink:href="#sh0"/>
<use x="45.83" y="113.01" xlink:href="#sh0"/>
<g font-family="serif" font-size="16" font-weight="bold" font-style="normal"
	transform="translate(61.83,128.01) scale(1.2,1)">
	<text y="-1" text-anchor="middle">8</text>
	<text y="-13" text-anchor="middle">6</text>
</g>
<defs>
<path id="hl" stroke="currentColor" d="m-6 0h12"/>
</defs>
<use x="79.83" y="98.01" xlink:href="#hl"/>
<use x="79.83" y="92.01" xlink:href="#hl"/>
<use x="79.83" y="86.01" xlink:href="#hl"/>
<use x="79.83" y="83.01" xlink:href="#hd"/>
<circle fill="currentColor" cx="87.83" cy="83.01" r="1.2"/>
<path d="M76.33 83.01v33.00" stroke="currentColor" fill="none"/>
<defs>
<path id="r8e" fill="currentColor" d="m 0 0
	c-1.5 1.5 -2.4 2 -3.6 2
	c2.4 -2.8 -2.8 -4 -2.8 -1.2
	c0 2.7 4.3 2.4 5.9 0.6"/>
<g id="r32">
	<path d="m4.8 -10l-5.5 21.6" stroke="currentColor" fill="none"/>
	<use x="4.9" y="-10" xlink:href="#r8e"/>
	<use x="3.4" y="-4" xlink:href="#r8e"/>
	<use x="1.9" y="2" xlink:href="#r8e"/>
</g>
</defs>
<use x="122.93" y="116.01" xlink:href="#r32"/>
<path fill="currentColor"
	d="M133.93 116.21l49.00 0.00v-3.20l-49.00 -0.00"/>
<path fill="currentColor"
	d="M140.23 111.21l-6.00 -0.00v-3.20l6.00 0.00"/>
<use x="137.73" y="98.01" xlink:href="#hl"/>
<use x="137.73" y="92.01" xlink:href="#hl"/>
<use x="137.73" y="86.01" xlink:href="#hl"/>
<use x="137.73" y="86.01" xlink:href="#hd"/>
<circle fill="currentColor" cx="145.73" cy="83.01" r="1.2"/>
<path d="M134.23 86.01v29.20" stroke="currentColor" fill="none"/>
<use x="159.33" y="98.01" xlink:href="#hl"/>
<use x="159.33" y="92.01" xlink:href="#hl"/>
<use x="159.33" y="89.01" xlink:href="#hd"/>
<path d="M155.83 89.01v26.20" stroke="currentColor" fill="none"/>
<use x="186.03" y="98.01" xlink:href="#hl"/>
<use x="186.03" y="92.01" xlink:href="#hl"/>
<use x="186.03" y="86.01" xlink:href="#hl"/>
<use x="186.03" y="86.01" xlink:href="#hd"/>
<path d="M182.53 86.01v29.20" stroke="currentColor" fill="none"/>
<use x="224.73" y="98.01" xlink:href="#hl"/>
<use x="224.73" y="92.01" xlink:href="#hl"/>
<use x="224.73" y="89.01" xlink:href="#hd"/>
<path d="M221.23 89.01v27.00" stroke="currentColor" fill="none"/>
<use x="266.73" y="98.01" xlink:href="#hl"/>
<use x="266.73" y="92.01" xlink:href="#hl"/>
<use x="266.73" y="86.01" xlink:href="#hl"/>
<use x="266.73" y="83.01" xlink:href="#hd"/>
<path d="M263.23 83.01v33.00" stroke="currentColor" fill="none"/>
<path fill="currentColor"
	d="M263.23 116.01c0.6 -5.6 9.6 -9 5.6 -18.4
	c1.6 6 -1.3 11.6 -5.6 12.8
"/>
<use x="296.53" y="98.01" xlink:href="#hl"/>
<use x="296.53" y="98.01" xlink:href="#hd"/>
<circle fill="currentColor" cx="304.53" cy="95.01" r="1.2"/>
<path d="M293.03 98.01v20.00" stroke="currentColor" fill="none"/>
<path fill="currentColor"
	d="M345.83 116.21l54.20 0.00v-3.20l-54.20 -0.00"/>
<use x="349.63" y="98.01" xlink:href="#hl"/>
<use x="349.63" y="95.01" xlink:href="#hd"/>
<path d="M346.13 95.01v20.20" stroke="currentColor" fill="none"/>
<use x="376.43" y="98.01" xlink:href="#hl"/>
<use x="376.43" y="92.01" xlink:href="#hl"/>
<use x="376.43" y="92.01" xlink:href="#hd"/>
<path d="M372.93 92.01v23.20" stroke="currentColor" fill="none"/>
<use x="403.13" y="98.01" xlink:href="#hl"/>
<use x="403.13" y="92.01" xlink:href="#hl"/>
<use x="403.13" y="89.01" xlink:href="#hd"/>
<path d="M399.63 89.01v26.20" stroke="currentColor" fill="none"/>
<path fill="currentColor"
	d="M429.03 116.21l54.20 0.00v-3.20l-54.20 -0.00"/>
<use x="432.93" y="98.01" xlink:href="#hl"/>
<use x="432.93" y="92.01" xlink:href="#hl"/>
<use x="432.93" y="86.01" xlink:href="#hl"/>
<use x="432.93" y="86.01" xlink:href="#hd"/>
<path d="M429.43 86.01v29.20" stroke="currentColor" fill="none"/>
<use x="459.73" y="98.01" xlink:href="#hl"/>
<use x="459.73" y="92.01" xlink:href="#hl"/>
<use x="459.73" y="86.01" xlink:href="#hl"/>
<use x="459.73" y="83.01" xlink:href="#hd"/>
<path d="M456.23 83.01v32.20" stroke="currentColor" fill="none"/>
<use x="486.43" y="98.01" xlink:href="#hl"/>
<use x="486.43" y="92.01" xlink:href="#hl"/>
<use x="486.43" y="86.01" xlink:href="#hl"/>
<use x="486.43" y="80.01" xlink:href="#hl"/>
<use x="486.43" y="80.01" xlink:href="#hd"/>
<path d="M482.93 80.01v35.20" stroke="currentColor" fill="none"/>
<use x="528.83" y="98.01" xlink:href="#hl"/>
<use x="528.83" y="92.01" xlink:href="#hl"/>
<use x="528.83" y="86.01" xlink:href="#hl"/>
<use x="528.83" y="80.01" xlink:href="#hl"/>
<use x="528.83" y="80.01" xlink:href="#hd"/>
<use x="519.83" y="80.01" xlink:href="#sh0"/>
<path d="M525.33 80.01v36.00" stroke="currentColor" fill="none"/>
<use x="561.63" y="98.01" xlink:href="#hl"/>
<use x="561.63" y="92.01" xlink:href="#hl"/>
<use x="561.63" y="86.01" xlink:href="#hl"/>
<use x="561.63" y="80.01" xlink:href="#hl"/>
<use x="561.63" y="80.01" xlink:href="#hd"/>
<use x="552.63" y="80.01" xlink:href="#sh0"/>
<path d="M558.13 80.01v36.00" stroke="currentColor" fill="none"/>
<path fill="currentColor"
	d="M558.13 116.01c0.9 -3.7 9.1 -6.4 6 -12.4
	c1 5.4 -4.2 8.4 -6 8.4
M558.13 110.61c0.9 -3.7 9.1 -6.4 6 -12.4
	c1 5.4 -4.2 8.4 -6 8.4
"/>
<use x="578.03" y="98.01" xlink:href="#hl"/>
<use x="578.03" y="92.01" xlink:href="#hl"/>
<use x="578.03" y="86.01" xlink:href="#hl"/>
<use x="578.03" y="80.01" xlink:href="#hl"/>
<use x="578.03" y="74.01" xlink:href="#hl"/>
<use x="578.03" y="74.01" xlink:href="#hd"/>
<path d="M574.53 74.01v42.00" stroke="currentColor" fill="none"/>
<use x="610.83" y="98.01" xlink:href="#hl"/>
<use x="610.83" y="92.01" xlink:href="#hl"/>
<use x="610.83" y="86.01" xlink:href="#hl"/>
<use x="610.83" y="80.01" xlink:href="#hl"/>
<use x="610.83" y="74.01" xlink:href="#hl"/>
<use x="610.83" y="74.01" xlink:href="#hd"/>
<path d="M607.33 74.01v42.00" stroke="currentColor" fill="none"/>
<path fill="currentColor"
	d="M607.33 116.01c0.9 -3.7 9.1 -6.4 6 -12.4
	c1 5.4 -4.2 8.4 -6 8.4
M607.33 110.61c0.9 -3.7 9.1 -6.4 6 -12.4
	c1 5.4 -4.2 8.4 -6 8.4
"/>
<use x="631.83" y="98.01" xlink:href="#hl"/>
<use x="631.83" y="92.01" xlink:href="#hl"/>
<use x="631.83" y="86.01" xlink:href="#hl"/>
<use x="631.83" y="80.01" xlink:href="#hl"/>
<use x="631.83" y="77.01" xlink:href="#hd"/>
<path d="M628.33 77.01v39.00" stroke="currentColor" fill="none"/>
<use x="673.93" y="98.01" xlink:href="#hl"/>
<use x="673.93" y="92.01" xlink:href="#hl"/>
<use x="673.93" y="86.01" xlink:href="#hl"/>
<use x="673.93" y="80.01" xlink:href="#hl"/>
<use x="673.93" y="77.01" xlink:href="#hd"/>
<path d="M670.43 77.01v39.00" stroke="currentColor" fill="none"/>
<path fill="currentColor"
	d="M670.43 116.01c0.9 -3.7 9.1 -6.4 6 -12.4
	c1 5.4 -4.2 8.4 -6 8.4
M670.43 110.61c0.9 -3.7 9.1 -6.4 6 -12.4
	c1 5.4 -4.2 8.4 -6 8.4
"/>
<path fill="currentColor"
	d="M532.33 80.01c4.07 -4.96 21.75 -4.96 25.81 -0.00
	l0.00 -0.23c-4.84 -6.74 -20.97 -6.74 -25.81 0.23"/>
<path fill="currentColor"
	d="M581.53 74.01c4.07 -4.96 21.75 -4.96 25.81 -0.00
	l0.00 -0.23c-4.84 -6.74 -20.97 -6.74 -25.81 0.23"/>
<path fill="currentColor"
	d="M635.33 75.01c5.52 -5.13 29.52 -5.13 35.03 -0.00
	l0.00 -0.24c-6.57 -6.90 -28.47 -6.90 -35.03 0.24"/>
</g>
</svg>
