<?xml version="1.0" standalone="no"?>
<!DOCTYPE svg PUBLIC "-//W3C//DTD SVG 1.1//EN"
	"http://www.w3.org/Graphics/SVG/1.1/DTD/svg11.dtd">
<svg xmlns="http://www.w3.org/2000/svg" version="1.1"
	xmlns:xlink="http://www.w3.org/1999/xlink"
	xml:space='preserve' color="black"
	width="7.38in" height="1.40in" viewBox="0 0 531 101">
<title>6035.abc (6035) tune 1</title>
<!-- Creator: abcm2ps-7.8.14 -->
<!-- CreationDate: Mar 13, 2016 18:54 -->
<!-- CommandLine: -qxg 6035.abc -O ../svgs/6035.svg -->
<g transform="scale(0.750)" stroke-width="0.70" font-family="Times" font-size="20.00">
<text x="354.13" y="21.67" text-anchor="middle">6035.  Sonatina in G Minor, Op. 137, No. 3, 1st. Mvt.</text>
</g>
<g transform="scale(0.750)" stroke-width="0.70" font-family="Times" font-size="14.00" font-style="italic">
<text x="694.93" y="45.34" text-anchor="end">Franz Schubert</text>
</g>
<g transform="scale(0.525)" stroke-width="0.70" font-family="Times" font-size="14.00" font-style="italic">
<defs>
<ellipse id="hd" rx="4.1" ry="2.9"
	transform="rotate(-20)" fill="currentColor"/>
</defs>
<use x="114.90" y="94.16" xlink:href="#hd"/>
<path d="M118.40 94.16v-20.00" stroke="currentColor" fill="none"/>
</g>
<g transform="scale(0.750)" stroke-width="0.70" font-family="Times" font-size="15.00" font-weight="bold">
<text x="88.13" y="68.01">= 120</text>
<path stroke="currentColor" fill="none"
	d="M223.83 111.01v-24.00"/>
<path stroke="currentColor" fill="none"
	d="M384.23 111.01v-24.00"/>
<path stroke="currentColor" fill="none"
	d="M565.53 111.01v-24.00"/>
<path stroke="currentColor" fill="none"
	d="M694.93 111.01v-24.00"/>
<path stroke="currentColor" fill="none"
	d="M13.33 111.01h681.60m-681.60 -6h681.60m-681.60 -6h681.60m-681.60 -6h681.60m-681.60 -6h681.60"/>
<defs>
<path id="utclef" fill="currentColor" d="m-50 -90
	c-72 -41 -72 -158 52 -188
	c150 -10 220 188 90 256
	c-114 52 -275 0 -293 -136
	c-15 -181 93 -229 220 -334
	c88 -87 79 -133 62 -210
	c-51 33 -94 105 -89 186
	c17 267 36 374 49 574
	c6 96 -19 134 -77 135
	c-80 1 -126 -93 -61 -133
	c85 -41 133 101 31 105
	c23 17 92 37 90 -92
	c-10 -223 -39 -342 -50 -617
	c0 -90 0 -162 96 -232
	c56 72 63 230 22 289
	c-74 106 -257 168 -255 316
	c9 153 148 185 252 133
	c86 -65 29 -192 -80 -176
	c-71 12 -105 67 -59 124"/>
<use id="tclef" transform="scale(0.045)"
	xlink:href="#utclef"/>
</defs>
<use x="25.33" y="111.01" xlink:href="#tclef"/>
<defs>
<path id="uflat" fill="currentColor" d="
	m100 -746
	h32
	v734
	l-32 4
	m32 -332
	c46 -72 152 -90 208 -20
	c100 110 -120 326 -208 348
	m0 -28
	c54 0 200 -206 130 -290
	c-50 -60 -130 -4 -130 34"/>
<use id="ft0" transform="translate(-3.5,3.5) scale(0.018)"
	xlink:href="#uflat"/>
</defs>
<use x="40.33" y="99.01" xlink:href="#ft0"/>
<use x="45.83" y="90.01" xlink:href="#ft0"/>
<g font-family="serif" font-size="16" font-weight="bold" font-style="normal"
	transform="translate(61.83,111.01) scale(1.2,1)">
	<text y="-1" text-anchor="middle">4</text>
	<text y="-13" text-anchor="middle">3</text>
</g>
<use x="79.83" y="84.01" xlink:href="#hd"/>
<circle fill="currentColor" cx="87.83" cy="84.01" r="1.2"/>
<path d="M76.33 84.01v20.00" stroke="currentColor" fill="none"/>
<path fill="currentColor"
	d="M76.33 104.01c0.6 -5.6 9.6 -9 5.6 -18.4
	c1.6 6 -1.3 11.6 -5.6 12.8
"/>
<defs>
<path id="hl" stroke="currentColor" d="m-6 0h12"/>
</defs>
<use x="117.13" y="81.01" xlink:href="#hl"/>
<use x="117.13" y="78.01" xlink:href="#hd"/>
<path d="M113.63 78.01v22.00" stroke="currentColor" fill="none"/>
<path fill="currentColor"
	d="M113.63 100.01c0.9 -3.7 9.1 -6.4 6 -12.4
	c1 5.4 -4.2 8.4 -6 8.4
M113.63 94.61c0.9 -3.7 9.1 -6.4 6 -12.4
	c1 5.4 -4.2 8.4 -6 8.4
"/>
<use x="140.33" y="81.01" xlink:href="#hl"/>
<use x="140.33" y="75.01" xlink:href="#hl"/>
<use x="140.33" y="72.01" xlink:href="#hd"/>
<path d="M136.83 72.01v27.00" stroke="currentColor" fill="none"/>
<defs>
<path id="r4" fill="currentColor" d="m-1 -8.5
	l3.6 5.1 -2.1 5.2 2.2 4.3
	c-2.6 -2.3 -5.1 0 -2.4 2.6
	c-4.8 -3 -1.5 -6.9 1.4 -4.1
	l-3.1 -4.5 1.9 -5.1 -1.5 -3.5"/>
</defs>
<use x="186.73" y="99.01" xlink:href="#r4"/>
<use x="240.23" y="81.01" xlink:href="#hl"/>
<use x="240.23" y="75.01" xlink:href="#hl"/>
<use x="240.23" y="69.01" xlink:href="#hl"/>
<use x="240.23" y="69.01" xlink:href="#hd"/>
<circle fill="currentColor" cx="248.23" cy="66.01" r="1.2"/>
<path d="M236.73 69.01v30.00" stroke="currentColor" fill="none"/>
<path fill="currentColor"
	d="M236.73 99.01c0.6 -5.6 9.6 -9 5.6 -18.4
	c1.6 6 -1.3 11.6 -5.6 12.8
"/>
<use x="277.63" y="81.01" xlink:href="#hl"/>
<use x="277.63" y="75.01" xlink:href="#hl"/>
<use x="277.63" y="72.01" xlink:href="#hd"/>
<use x="268.63" y="72.01" xlink:href="#ft0"/>
<path d="M274.13 72.01v27.00" stroke="currentColor" fill="none"/>
<path fill="currentColor"
	d="M274.13 99.01c0.9 -3.7 9.1 -6.4 6 -12.4
	c1 5.4 -4.2 8.4 -6 8.4
M274.13 93.61c0.9 -3.7 9.1 -6.4 6 -12.4
	c1 5.4 -4.2 8.4 -6 8.4
"/>
<use x="300.73" y="81.01" xlink:href="#hl"/>
<use x="300.73" y="75.01" xlink:href="#hl"/>
<use x="300.73" y="72.01" xlink:href="#hd"/>
<defs>
<path id="unat" fill="currentColor" d="
	m96 -750
	h-32
	v716
	l32 -8
	l182 -54
	v282
	h32
	v-706
	l-34 10
	l-180 50
	v-290
	m0 592
	v-190
	l182 -52
	v188"/>
<use id="nt0" transform="translate(-3,5) scale(0.018)"
	xlink:href="#unat"/>
</defs>
<use x="291.73" y="72.01" xlink:href="#nt0"/>
<path d="M297.23 72.01v27.00" stroke="currentColor" fill="none"/>
<use x="347.13" y="99.01" xlink:href="#r4"/>
<use x="400.63" y="81.01" xlink:href="#hl"/>
<use x="400.63" y="75.01" xlink:href="#hl"/>
<use x="400.63" y="75.01" xlink:href="#hd"/>
<circle fill="currentColor" cx="408.63" cy="72.01" r="1.2"/>
<path d="M397.13 75.01v24.00" stroke="currentColor" fill="none"/>
<path fill="currentColor"
	d="M397.13 99.01c0.6 -5.6 9.6 -9 5.6 -18.4
	c1.6 6 -1.3 11.6 -5.6 12.8
"/>
<path fill="currentColor"
	d="M434.13 108.71l109.60 6.50v-3.20l-109.60 -6.50"/>
<path fill="currentColor"
	d="M440.53 104.11l-6.00 -0.40v-3.20l6.00 0.40"/>
<path fill="currentColor"
	d="M482.93 106.61l6.00 0.40v-3.20l-6.00 -0.40"/>
<path fill="currentColor"
	d="M537.43 109.81l6.00 0.40v-3.20l-6.00 -0.40"/>
<use x="438.03" y="81.01" xlink:href="#hl"/>
<use x="438.03" y="81.01" xlink:href="#hd"/>
<path d="M434.53 81.01v26.70" stroke="currentColor" fill="none"/>
<use x="458.83" y="81.01" xlink:href="#hl"/>
<use x="458.83" y="78.01" xlink:href="#hd"/>
<circle fill="currentColor" cx="466.83" cy="78.01" r="1.2"/>
<path d="M455.33 78.01v31.00" stroke="currentColor" fill="none"/>
<use x="492.43" y="84.01" xlink:href="#hd"/>
<use x="483.43" y="84.01" xlink:href="#ft0"/>
<path d="M488.93 84.01v27.00" stroke="currentColor" fill="none"/>
<use x="513.33" y="84.01" xlink:href="#hd"/>
<circle fill="currentColor" cx="521.33" cy="84.01" r="1.2"/>
<use x="504.33" y="84.01" xlink:href="#nt0"/>
<path d="M509.83 84.01v28.20" stroke="currentColor" fill="none"/>
<use x="546.93" y="93.01" xlink:href="#hd"/>
<path d="M543.43 93.01v21.20" stroke="currentColor" fill="none"/>
<use x="581.93" y="90.01" xlink:href="#hd"/>
<circle fill="currentColor" cx="589.93" cy="90.01" r="1.2"/>
<path d="M578.43 90.01v20.00" stroke="currentColor" fill="none"/>
<path fill="currentColor"
	d="M578.43 110.01c0.6 -5.6 9.6 -9 5.6 -18.4
	c1.6 6 -1.3 11.6 -5.6 12.8
"/>
<use x="619.23" y="93.01" xlink:href="#hd"/>
<use x="610.23" y="93.01" xlink:href="#ft0"/>
<path d="M615.73 93.01v22.00" stroke="currentColor" fill="none"/>
<path fill="currentColor"
	d="M615.73 115.01c0.9 -3.7 9.1 -6.4 6 -12.4
	c1 5.4 -4.2 8.4 -6 8.4
M615.73 109.61c0.9 -3.7 9.1 -6.4 6 -12.4
	c1 5.4 -4.2 8.4 -6 8.4
"/>
<defs>
<path id="Hd" fill="currentColor" d="m3 -1.6
	c-1 -1.8 -7 1.4 -6 3.2
	c1 1.8 7 -1.4 6 -3.2
	m0.5 -0.3
	c2 3.8 -5 7.6 -7 3.8
	c-2 -3.8 5 -7.6 7 -3.8"/>
</defs>
<use x="642.43" y="93.01" xlink:href="#Hd"/>
<use x="632.43" y="93.01" xlink:href="#nt0"/>
<path d="M638.93 93.01v20.00" stroke="currentColor" fill="none"/>
</g>
</svg>
