<?xml version="1.0" standalone="no"?>
<!DOCTYPE svg PUBLIC "-//W3C//DTD SVG 1.1//EN"
	"http://www.w3.org/Graphics/SVG/1.1/DTD/svg11.dtd">
<svg xmlns="http://www.w3.org/2000/svg" version="1.1"
	xmlns:xlink="http://www.w3.org/1999/xlink"
	xml:space='preserve' color="black"
	width="7.38in" height="1.51in" viewBox="0 0 531 109">
<title>6079.abc (6079) tune 1</title>
<!-- Creator: abcm2ps-7.8.14 -->
<!-- CreationDate: Mar 13, 2016 18:54 -->
<!-- CommandLine: -qxg 6079.abc -O ../svgs/6079.svg -->
<g transform="scale(0.750)" stroke-width="0.70" font-family="Times" font-size="20.00">
<text x="354.13" y="21.67" text-anchor="middle">6079.  Symphony No. 4 in C Minor, 2nd. Mvt. - 3rd. Theme</text>
</g>
<g transform="scale(0.750)" stroke-width="0.70" font-family="Times" font-size="14.00" font-style="italic">
<text x="694.93" y="45.34" text-anchor="end">Franz Schubert</text>
</g>
<g transform="scale(0.525)" stroke-width="0.70" font-family="Times" font-size="14.00" font-style="italic">
<defs>
<ellipse id="hd" rx="4.1" ry="2.9"
	transform="rotate(-20)" fill="currentColor"/>
</defs>
<use x="139.19" y="94.16" xlink:href="#hd"/>
<path d="M142.69 94.16v-20.00" stroke="currentColor" fill="none"/>
</g>
<g transform="scale(0.750)" stroke-width="0.70" font-family="Times" font-size="15.00" font-weight="bold">
<text x="105.13" y="68.01">= 120</text>
<path stroke="currentColor" fill="none"
	d="M187.73 122.01v-24.00"/>
<path stroke="currentColor" fill="none"
	d="M292.83 122.01v-24.00"/>
<path stroke="currentColor" fill="none"
	d="M397.93 122.01v-24.00"/>
<path stroke="currentColor" fill="none"
	d="M507.43 122.01v-24.00"/>
<path stroke="currentColor" fill="none"
	d="M13.33 122.01h494.10m-494.10 -6h494.10m-494.10 -6h494.10m-494.10 -6h494.10m-494.10 -6h494.10"/>
<defs>
<path id="utclef" fill="currentColor" d="m-50 -90
	c-72 -41 -72 -158 52 -188
	c150 -10 220 188 90 256
	c-114 52 -275 0 -293 -136
	c-15 -181 93 -229 220 -334
	c88 -87 79 -133 62 -210
	c-51 33 -94 105 -89 186
	c17 267 36 374 49 574
	c6 96 -19 134 -77 135
	c-80 1 -126 -93 -61 -133
	c85 -41 133 101 31 105
	c23 17 92 37 90 -92
	c-10 -223 -39 -342 -50 -617
	c0 -90 0 -162 96 -232
	c56 72 63 230 22 289
	c-74 106 -257 168 -255 316
	c9 153 148 185 252 133
	c86 -65 29 -192 -80 -176
	c-71 12 -105 67 -59 124"/>
<use id="tclef" transform="scale(0.045)"
	xlink:href="#utclef"/>
</defs>
<use x="25.33" y="122.01" xlink:href="#tclef"/>
<defs>
<path id="uflat" fill="currentColor" d="
	m100 -746
	h32
	v734
	l-32 4
	m32 -332
	c46 -72 152 -90 208 -20
	c100 110 -120 326 -208 348
	m0 -28
	c54 0 200 -206 130 -290
	c-50 -60 -130 -4 -130 34"/>
<use id="ft0" transform="translate(-3.5,3.5) scale(0.018)"
	xlink:href="#uflat"/>
</defs>
<use x="40.33" y="110.01" xlink:href="#ft0"/>
<use x="45.83" y="101.01" xlink:href="#ft0"/>
<use x="51.33" y="113.01" xlink:href="#ft0"/>
<use x="56.83" y="104.01" xlink:href="#ft0"/>
<g font-family="serif" font-size="16" font-weight="bold" font-style="normal"
	transform="translate(72.83,122.01) scale(1.2,1)">
	<text y="-1" text-anchor="middle">4</text>
	<text y="-13" text-anchor="middle">2</text>
</g>
<defs>
<path id="hl" stroke="currentColor" d="m-6 0h12"/>
</defs>
<use x="96.83" y="92.01" xlink:href="#hl"/>
<use x="96.83" y="86.01" xlink:href="#hl"/>
<use x="96.83" y="80.01" xlink:href="#hl"/>
<use x="96.83" y="80.01" xlink:href="#hd"/>
<defs>
<path id="unat" fill="currentColor" d="
	m96 -750
	h-32
	v716
	l32 -8
	l182 -54
	v282
	h32
	v-706
	l-34 10
	l-180 50
	v-290
	m0 592
	v-190
	l182 -52
	v188"/>
<use id="nt0" transform="translate(-3,5) scale(0.018)"
	xlink:href="#unat"/>
</defs>
<use x="87.83" y="80.01" xlink:href="#nt0"/>
<path d="M93.33 80.01v30.00" stroke="currentColor" fill="none"/>
<path fill="currentColor"
	d="M93.33 110.01c0.6 -5.6 9.6 -9 5.6 -18.4
	c1.6 6 -1.3 11.6 -5.6 12.8
"/>
<use x="125.13" y="92.01" xlink:href="#hl"/>
<use x="125.13" y="86.01" xlink:href="#hl"/>
<use x="125.13" y="80.01" xlink:href="#hl"/>
<use x="125.13" y="80.01" xlink:href="#hd"/>
<use x="116.13" y="80.01" xlink:href="#ft0"/>
<path d="M121.63 80.01v30.00" stroke="currentColor" fill="none"/>
<use x="165.13" y="92.01" xlink:href="#hl"/>
<use x="165.13" y="86.01" xlink:href="#hl"/>
<use x="165.13" y="83.01" xlink:href="#hd"/>
<path d="M161.63 83.01v27.00" stroke="currentColor" fill="none"/>
<path fill="currentColor"
	d="M161.63 110.01c0.6 -5.6 9.6 -9 5.6 -18.4
	c1.6 6 -1.3 11.6 -5.6 12.8
"/>
<use x="201.93" y="92.01" xlink:href="#hl"/>
<use x="201.93" y="86.01" xlink:href="#hl"/>
<use x="201.93" y="80.01" xlink:href="#hl"/>
<use x="201.93" y="80.01" xlink:href="#hd"/>
<path d="M198.43 80.01v30.00" stroke="currentColor" fill="none"/>
<path fill="currentColor"
	d="M198.43 110.01c0.6 -5.6 9.6 -9 5.6 -18.4
	c1.6 6 -1.3 11.6 -5.6 12.8
"/>
<use x="230.23" y="92.01" xlink:href="#hl"/>
<use x="230.23" y="86.01" xlink:href="#hl"/>
<use x="230.23" y="83.01" xlink:href="#hd"/>
<path d="M226.73 83.01v27.00" stroke="currentColor" fill="none"/>
<use x="270.23" y="92.01" xlink:href="#hl"/>
<use x="270.23" y="89.01" xlink:href="#hd"/>
<use x="261.23" y="89.01" xlink:href="#nt0"/>
<path d="M266.73 89.01v21.00" stroke="currentColor" fill="none"/>
<path fill="currentColor"
	d="M266.73 110.01c0.6 -5.6 9.6 -9 5.6 -18.4
	c1.6 6 -1.3 11.6 -5.6 12.8
"/>
<use x="307.03" y="92.01" xlink:href="#hl"/>
<use x="307.03" y="86.01" xlink:href="#hl"/>
<use x="307.03" y="80.01" xlink:href="#hl"/>
<use x="307.03" y="74.01" xlink:href="#hl"/>
<use x="307.03" y="71.01" xlink:href="#hd"/>
<path d="M303.53 71.01v39.00" stroke="currentColor" fill="none"/>
<path fill="currentColor"
	d="M303.53 110.01c0.6 -5.6 9.6 -9 5.6 -18.4
	c1.6 6 -1.3 11.6 -5.6 12.8
"/>
<use x="335.33" y="92.01" xlink:href="#hl"/>
<use x="335.33" y="86.01" xlink:href="#hl"/>
<use x="335.33" y="80.01" xlink:href="#hl"/>
<use x="335.33" y="74.01" xlink:href="#hl"/>
<use x="335.33" y="74.01" xlink:href="#hd"/>
<use x="326.33" y="74.01" xlink:href="#ft0"/>
<path d="M331.83 74.01v36.00" stroke="currentColor" fill="none"/>
<use x="375.33" y="92.01" xlink:href="#hl"/>
<use x="375.33" y="86.01" xlink:href="#hl"/>
<use x="375.33" y="80.01" xlink:href="#hl"/>
<use x="375.33" y="80.01" xlink:href="#hd"/>
<use x="366.33" y="80.01" xlink:href="#nt0"/>
<path d="M371.83 80.01v30.00" stroke="currentColor" fill="none"/>
<path fill="currentColor"
	d="M371.83 110.01c0.6 -5.6 9.6 -9 5.6 -18.4
	c1.6 6 -1.3 11.6 -5.6 12.8
"/>
<use x="416.43" y="92.01" xlink:href="#hl"/>
<use x="416.43" y="86.01" xlink:href="#hl"/>
<use x="416.43" y="80.01" xlink:href="#hl"/>
<use x="416.43" y="74.01" xlink:href="#hl"/>
<use x="416.43" y="74.01" xlink:href="#hd"/>
<use x="407.43" y="74.01" xlink:href="#ft0"/>
<path d="M412.93 74.01v36.00" stroke="currentColor" fill="none"/>
<path fill="currentColor"
	d="M412.93 110.01c0.6 -5.6 9.6 -9 5.6 -18.4
	c1.6 6 -1.3 11.6 -5.6 12.8
"/>
<use x="444.73" y="92.01" xlink:href="#hl"/>
<use x="444.73" y="86.01" xlink:href="#hl"/>
<use x="444.73" y="80.01" xlink:href="#hl"/>
<use x="444.73" y="80.01" xlink:href="#hd"/>
<use x="435.73" y="80.01" xlink:href="#nt0"/>
<path d="M441.23 80.01v30.00" stroke="currentColor" fill="none"/>
<use x="484.73" y="92.01" xlink:href="#hl"/>
<use x="484.73" y="86.01" xlink:href="#hl"/>
<use x="484.73" y="80.01" xlink:href="#hl"/>
<use x="484.73" y="80.01" xlink:href="#hd"/>
<use x="475.73" y="80.01" xlink:href="#ft0"/>
<path d="M481.23 80.01v30.00" stroke="currentColor" fill="none"/>
<path fill="currentColor"
	d="M481.23 110.01c0.6 -5.6 9.6 -9 5.6 -18.4
	c1.6 6 -1.3 11.6 -5.6 12.8
"/>
</g>
</svg>
