<?xml version="1.0" standalone="no"?>
<!DOCTYPE svg PUBLIC "-//W3C//DTD SVG 1.1//EN"
	"http://www.w3.org/Graphics/SVG/1.1/DTD/svg11.dtd">
<svg xmlns="http://www.w3.org/2000/svg" version="1.1"
	xmlns:xlink="http://www.w3.org/1999/xlink"
	xml:space='preserve' color="black"
	width="7.38in" height="1.34in" viewBox="0 0 531 97">
<title>6198.abc (6198) tune 1</title>
<!-- Creator: abcm2ps-7.8.14 -->
<!-- CreationDate: Mar 13, 2016 18:54 -->
<!-- CommandLine: -qxg 6198.abc -O ../svgs/6198.svg -->
<g transform="scale(0.750)" stroke-width="0.70" font-family="Times" font-size="20.00">
<text x="354.13" y="21.67" text-anchor="middle">6198.  Concerto in A Minor, Op. 129, 1st. Mvt. - 3rd. Theme</text>
</g>
<g transform="scale(0.750)" stroke-width="0.70" font-family="Times" font-size="14.00" font-style="italic">
<text x="694.93" y="45.34" text-anchor="end">Robert Schumann</text>
</g>
<g transform="scale(0.525)" stroke-width="0.70" font-family="Times" font-size="14.00" font-style="italic">
<defs>
<ellipse id="hd" rx="4.1" ry="2.9"
	transform="rotate(-20)" fill="currentColor"/>
</defs>
<use x="89.19" y="94.16" xlink:href="#hd"/>
<path d="M92.69 94.16v-20.00" stroke="currentColor" fill="none"/>
</g>
<g transform="scale(0.750)" stroke-width="0.70" font-family="Times" font-size="15.00" font-weight="bold">
<text x="70.13" y="68.01">= 120</text>
<path stroke="currentColor" fill="none"
	d="M179.43 106.01v-24.00"/>
<path stroke="currentColor" fill="none"
	d="M319.93 106.01v-24.00"/>
<path stroke="currentColor" fill="none"
	d="M449.93 106.01v-24.00"/>
<path stroke="currentColor" fill="none"
	d="M590.53 106.01v-24.00"/>
<path stroke="currentColor" fill="none"
	d="M13.33 106.01h681.60m-681.60 -6h681.60m-681.60 -6h681.60m-681.60 -6h681.60m-681.60 -6h681.60"/>
<defs>
<path id="utclef" fill="currentColor" d="m-50 -90
	c-72 -41 -72 -158 52 -188
	c150 -10 220 188 90 256
	c-114 52 -275 0 -293 -136
	c-15 -181 93 -229 220 -334
	c88 -87 79 -133 62 -210
	c-51 33 -94 105 -89 186
	c17 267 36 374 49 574
	c6 96 -19 134 -77 135
	c-80 1 -126 -93 -61 -133
	c85 -41 133 101 31 105
	c23 17 92 37 90 -92
	c-10 -223 -39 -342 -50 -617
	c0 -90 0 -162 96 -232
	c56 72 63 230 22 289
	c-74 106 -257 168 -255 316
	c9 153 148 185 252 133
	c86 -65 29 -192 -80 -176
	c-71 12 -105 67 -59 124"/>
<use id="tclef" transform="scale(0.045)"
	xlink:href="#utclef"/>
</defs>
<use x="25.33" y="106.01" xlink:href="#tclef"/>
<g font-family="serif" font-size="16" font-weight="bold" font-style="normal"
	transform="translate(43.83,106.01) scale(1.2,1)">
	<text y="-1" text-anchor="middle">4</text>
	<text y="-13" text-anchor="middle">4</text>
</g>
<use x="61.83" y="100.01" xlink:href="#hd"/>
<path d="M65.33 100.01v-20.00" stroke="currentColor" fill="none"/>
<use x="92.93" y="100.01" xlink:href="#hd"/>
<defs>
<path id="usharp" fill="currentColor" d="
	m136 -702
	v890
	h32
	v-890
	m128 840
	h32
	v-888
	h-32
	m-232 286
	v116
	l338 -96
	v-116
	m-338 442
	v116
	l338 -98
	v-114"/>
<use id="sh0" transform="translate(-4,5) scale(0.018)"
	xlink:href="#usharp"/>
</defs>
<use x="83.93" y="100.01" xlink:href="#sh0"/>
<path d="M96.43 100.01v-20.00" stroke="currentColor" fill="none"/>
<use x="123.63" y="97.01" xlink:href="#hd"/>
<path d="M127.13 97.01v-20.00" stroke="currentColor" fill="none"/>
<use x="154.73" y="79.01" xlink:href="#hd"/>
<defs>
<path id="unat" fill="currentColor" d="
	m96 -750
	h-32
	v716
	l32 -8
	l182 -54
	v282
	h32
	v-706
	l-34 10
	l-180 50
	v-290
	m0 592
	v-190
	l182 -52
	v188"/>
<use id="nt0" transform="translate(-3,5) scale(0.018)"
	xlink:href="#unat"/>
</defs>
<use x="145.73" y="79.01" xlink:href="#nt0"/>
<path d="M151.23 79.01v20.00" stroke="currentColor" fill="none"/>
<use x="191.93" y="79.01" xlink:href="#hd"/>
<path d="M188.43 79.01v20.00" stroke="currentColor" fill="none"/>
<path fill="currentColor"
	d="M188.43 99.01c0.6 -5.6 9.6 -9 5.6 -18.4
	c1.6 6 -1.3 11.6 -5.6 12.8
"/>
<use x="211.53" y="97.01" xlink:href="#hd"/>
<path d="M215.03 97.01v-20.00" stroke="currentColor" fill="none"/>
<path fill="currentColor"
	d="	M215.03 77.01c0.6 5.6 9.6 9 5.6 18.4
	c1.6 -6 -1.3 -11.6 -5.6 -12.8
"/>
<use x="233.83" y="91.01" xlink:href="#hd"/>
<path d="M230.33 91.01v20.00" stroke="currentColor" fill="none"/>
<use x="264.53" y="94.01" xlink:href="#hd"/>
<path d="M261.03 94.01v20.00" stroke="currentColor" fill="none"/>
<defs>
<path id="r4" fill="currentColor" d="m-1 -8.5
	l3.6 5.1 -2.1 5.2 2.2 4.3
	c-2.6 -2.3 -5.1 0 -2.4 2.6
	c-4.8 -3 -1.5 -6.9 1.4 -4.1
	l-3.1 -4.5 1.9 -5.1 -1.5 -3.5"/>
</defs>
<use x="295.23" y="94.01" xlink:href="#r4"/>
<use x="332.43" y="100.01" xlink:href="#hd"/>
<path d="M335.93 100.01v-20.00" stroke="currentColor" fill="none"/>
<use x="363.53" y="100.01" xlink:href="#hd"/>
<use x="354.53" y="100.01" xlink:href="#sh0"/>
<path d="M367.03 100.01v-20.00" stroke="currentColor" fill="none"/>
<use x="394.23" y="97.01" xlink:href="#hd"/>
<path d="M397.73 97.01v-20.00" stroke="currentColor" fill="none"/>
<use x="425.33" y="79.01" xlink:href="#hd"/>
<use x="416.33" y="79.01" xlink:href="#nt0"/>
<path d="M421.83 79.01v20.00" stroke="currentColor" fill="none"/>
<use x="462.43" y="79.01" xlink:href="#hd"/>
<path d="M458.93 79.01v20.00" stroke="currentColor" fill="none"/>
<path fill="currentColor"
	d="M458.93 99.01c0.6 -5.6 9.6 -9 5.6 -18.4
	c1.6 6 -1.3 11.6 -5.6 12.8
"/>
<use x="482.13" y="97.01" xlink:href="#hd"/>
<path d="M485.63 97.01v-20.00" stroke="currentColor" fill="none"/>
<path fill="currentColor"
	d="	M485.63 77.01c0.6 5.6 9.6 9 5.6 18.4
	c1.6 -6 -1.3 -11.6 -5.6 -12.8
"/>
<use x="504.43" y="91.01" xlink:href="#hd"/>
<path d="M500.93 91.01v20.00" stroke="currentColor" fill="none"/>
<use x="535.13" y="94.01" xlink:href="#hd"/>
<path d="M531.63 94.01v20.00" stroke="currentColor" fill="none"/>
<use x="565.83" y="91.01" xlink:href="#hd"/>
<path d="M562.33 91.01v20.00" stroke="currentColor" fill="none"/>
<use x="603.03" y="88.01" xlink:href="#hd"/>
<path d="M599.53 88.01v20.00" stroke="currentColor" fill="none"/>
<use x="633.73" y="82.01" xlink:href="#hd"/>
<path d="M630.23 82.01v20.00" stroke="currentColor" fill="none"/>
<use x="664.43" y="85.01" xlink:href="#hd"/>
<path d="M660.93 85.01v20.00" stroke="currentColor" fill="none"/>
<path fill="currentColor"
	d="M158.23 77.01c4.75 -5.04 25.41 -5.04 30.16 -0.00
	l0.00 -0.23c-5.66 -6.81 -24.51 -6.81 -30.16 0.23"/>
<path fill="currentColor"
	d="M428.83 77.01c4.75 -5.04 25.41 -5.04 30.16 -0.00
	l0.00 -0.23c-5.66 -6.81 -24.51 -6.81 -30.16 0.23"/>
</g>
</svg>
