<?xml version="1.0" standalone="no"?>
<!DOCTYPE svg PUBLIC "-//W3C//DTD SVG 1.1//EN"
	"http://www.w3.org/Graphics/SVG/1.1/DTD/svg11.dtd">
<svg xmlns="http://www.w3.org/2000/svg" version="1.1"
	xmlns:xlink="http://www.w3.org/1999/xlink"
	xml:space='preserve' color="black"
	width="7.38in" height="1.39in" viewBox="0 0 531 100">
<title>6222.abc (6222) tune 1</title>
<!-- Creator: abcm2ps-7.8.14 -->
<!-- CreationDate: Mar 13, 2016 18:54 -->
<!-- CommandLine: -qxg 6222.abc -O ../svgs/6222.svg -->
<g transform="scale(0.750)" stroke-width="0.70" font-family="Times" font-size="20.00">
<text x="354.13" y="21.67" text-anchor="middle">6222.  Davidsbundler, Op. 6, No. 13</text>
</g>
<g transform="scale(0.750)" stroke-width="0.70" font-family="Times" font-size="14.00" font-style="italic">
<text x="694.93" y="45.34" text-anchor="end">Robert Schumann</text>
</g>
<g transform="scale(0.525)" stroke-width="0.70" font-family="Times" font-size="14.00" font-style="italic">
<defs>
<ellipse id="hd" rx="4.1" ry="2.9"
	transform="rotate(-20)" fill="currentColor"/>
</defs>
<use x="114.90" y="94.16" xlink:href="#hd"/>
<path d="M118.40 94.16v-20.00" stroke="currentColor" fill="none"/>
</g>
<g transform="scale(0.750)" stroke-width="0.70" font-family="Times" font-size="15.00" font-weight="bold">
<text x="88.13" y="68.01">= 120</text>
<path stroke="currentColor" fill="none"
	d="M168.43 110.01v-24.00"/>
<path stroke="currentColor" fill="none"
	d="M275.53 110.01v-24.00"/>
<path stroke="currentColor" fill="none"
	d="M378.23 110.01v-24.00"/>
<path stroke="currentColor" fill="none"
	d="M499.93 110.01v-24.00"/>
<path stroke="currentColor" fill="none"
	d="M13.33 110.01h540.80m-540.80 -6h540.80m-540.80 -6h540.80m-540.80 -6h540.80m-540.80 -6h540.80"/>
<defs>
<path id="utclef" fill="currentColor" d="m-50 -90
	c-72 -41 -72 -158 52 -188
	c150 -10 220 188 90 256
	c-114 52 -275 0 -293 -136
	c-15 -181 93 -229 220 -334
	c88 -87 79 -133 62 -210
	c-51 33 -94 105 -89 186
	c17 267 36 374 49 574
	c6 96 -19 134 -77 135
	c-80 1 -126 -93 -61 -133
	c85 -41 133 101 31 105
	c23 17 92 37 90 -92
	c-10 -223 -39 -342 -50 -617
	c0 -90 0 -162 96 -232
	c56 72 63 230 22 289
	c-74 106 -257 168 -255 316
	c9 153 148 185 252 133
	c86 -65 29 -192 -80 -176
	c-71 12 -105 67 -59 124"/>
<use id="tclef" transform="scale(0.045)"
	xlink:href="#utclef"/>
</defs>
<use x="25.33" y="110.01" xlink:href="#tclef"/>
<defs>
<path id="usharp" fill="currentColor" d="
	m136 -702
	v890
	h32
	v-890
	m128 840
	h32
	v-888
	h-32
	m-232 286
	v116
	l338 -96
	v-116
	m-338 442
	v116
	l338 -98
	v-114"/>
<use id="sh0" transform="translate(-4,5) scale(0.018)"
	xlink:href="#usharp"/>
</defs>
<use x="40.33" y="86.01" xlink:href="#sh0"/>
<use x="45.83" y="95.01" xlink:href="#sh0"/>
<g font-family="serif" font-size="16" font-weight="bold" font-style="normal"
	transform="translate(61.83,110.01) scale(1.2,1)">
	<text y="-1" text-anchor="middle">4</text>
	<text y="-13" text-anchor="middle">2</text>
</g>
<use x="79.83" y="86.01" xlink:href="#hd"/>
<path d="M76.33 86.01v20.00" stroke="currentColor" fill="none"/>
<path fill="currentColor"
	d="M76.33 106.01c0.6 -5.6 9.6 -9 5.6 -18.4
	c1.6 6 -1.3 11.6 -5.6 12.8
"/>
<defs>
<path id="hl" stroke="currentColor" d="m-6 0h12"/>
</defs>
<use x="108.13" y="80.01" xlink:href="#hl"/>
<use x="108.13" y="80.01" xlink:href="#hd"/>
<use x="99.13" y="80.01" xlink:href="#sh0"/>
<path d="M104.63 80.01v20.00" stroke="currentColor" fill="none"/>
<path fill="currentColor"
	d="M104.63 100.01c0.6 -5.6 9.6 -9 5.6 -18.4
	c1.6 6 -1.3 11.6 -5.6 12.8
"/>
<use x="136.43" y="80.01" xlink:href="#hl"/>
<use x="136.43" y="77.01" xlink:href="#hd"/>
<path d="M132.93 77.01v21.00" stroke="currentColor" fill="none"/>
<use x="186.93" y="80.01" xlink:href="#hl"/>
<use x="186.93" y="80.01" xlink:href="#hd"/>
<use x="177.93" y="80.01" xlink:href="#sh0"/>
<path d="M183.43 80.01v20.00" stroke="currentColor" fill="none"/>
<path fill="currentColor"
	d="M183.43 100.01c0.6 -5.6 9.6 -9 5.6 -18.4
	c1.6 6 -1.3 11.6 -5.6 12.8
"/>
<use x="215.23" y="80.01" xlink:href="#hl"/>
<use x="215.23" y="77.01" xlink:href="#hd"/>
<path d="M211.73 77.01v21.00" stroke="currentColor" fill="none"/>
<path fill="currentColor"
	d="M211.73 98.01c0.6 -5.6 9.6 -9 5.6 -18.4
	c1.6 6 -1.3 11.6 -5.6 12.8
"/>
<use x="243.53" y="80.01" xlink:href="#hl"/>
<use x="243.53" y="74.01" xlink:href="#hl"/>
<use x="243.53" y="74.01" xlink:href="#hd"/>
<path d="M240.03 74.01v24.00" stroke="currentColor" fill="none"/>
<use x="289.73" y="80.01" xlink:href="#hl"/>
<use x="289.73" y="77.01" xlink:href="#hd"/>
<path d="M286.23 77.01v21.00" stroke="currentColor" fill="none"/>
<path fill="currentColor"
	d="M286.23 98.01c0.6 -5.6 9.6 -9 5.6 -18.4
	c1.6 6 -1.3 11.6 -5.6 12.8
"/>
<use x="317.93" y="80.01" xlink:href="#hl"/>
<use x="317.93" y="74.01" xlink:href="#hl"/>
<use x="317.93" y="74.01" xlink:href="#hd"/>
<path d="M314.43 74.01v24.00" stroke="currentColor" fill="none"/>
<path fill="currentColor"
	d="M314.43 98.01c0.6 -5.6 9.6 -9 5.6 -18.4
	c1.6 6 -1.3 11.6 -5.6 12.8
"/>
<use x="346.23" y="80.01" xlink:href="#hl"/>
<use x="346.23" y="74.01" xlink:href="#hl"/>
<use x="346.23" y="71.01" xlink:href="#hd"/>
<path d="M342.73 71.01v27.00" stroke="currentColor" fill="none"/>
<use x="392.43" y="80.01" xlink:href="#hl"/>
<use x="392.43" y="74.01" xlink:href="#hl"/>
<use x="392.43" y="74.01" xlink:href="#hd"/>
<path d="M388.93 74.01v24.00" stroke="currentColor" fill="none"/>
<path fill="currentColor"
	d="M388.93 98.01c0.6 -5.6 9.6 -9 5.6 -18.4
	c1.6 6 -1.3 11.6 -5.6 12.8
"/>
<use x="420.73" y="80.01" xlink:href="#hl"/>
<use x="420.73" y="74.01" xlink:href="#hl"/>
<use x="420.73" y="71.01" xlink:href="#hd"/>
<path d="M417.23 71.01v27.00" stroke="currentColor" fill="none"/>
<path fill="currentColor"
	d="M417.23 98.01c0.6 -5.6 9.6 -9 5.6 -18.4
	c1.6 6 -1.3 11.6 -5.6 12.8
"/>
<use x="449.03" y="80.01" xlink:href="#hl"/>
<use x="449.03" y="74.01" xlink:href="#hl"/>
<use x="449.03" y="68.01" xlink:href="#hl"/>
<use x="449.03" y="62.01" xlink:href="#hl"/>
<use x="449.03" y="62.01" xlink:href="#hd"/>
<path d="M445.53 62.01v36.00" stroke="currentColor" fill="none"/>
<path fill="currentColor"
	d="M445.53 98.01c0.6 -5.6 9.6 -9 5.6 -18.4
	c1.6 6 -1.3 11.6 -5.6 12.8
"/>
<use x="477.33" y="80.01" xlink:href="#hl"/>
<use x="477.33" y="74.01" xlink:href="#hl"/>
<use x="477.33" y="71.01" xlink:href="#hd"/>
<path d="M473.83 71.01v27.00" stroke="currentColor" fill="none"/>
<path fill="currentColor"
	d="M473.83 98.01c0.6 -5.6 9.6 -9 5.6 -18.4
	c1.6 6 -1.3 11.6 -5.6 12.8
"/>
<use x="514.13" y="80.01" xlink:href="#hl"/>
<use x="514.13" y="74.01" xlink:href="#hl"/>
<use x="514.13" y="74.01" xlink:href="#hd"/>
<path d="M510.63 74.01v24.00" stroke="currentColor" fill="none"/>
</g>
</svg>
