<?xml version="1.0" standalone="no"?>
<!DOCTYPE svg PUBLIC "-//W3C//DTD SVG 1.1//EN"
	"http://www.w3.org/Graphics/SVG/1.1/DTD/svg11.dtd">
<svg xmlns="http://www.w3.org/2000/svg" version="1.1"
	xmlns:xlink="http://www.w3.org/1999/xlink"
	xml:space='preserve' color="black"
	width="7.38in" height="1.34in" viewBox="0 0 531 97">
<title>6287.abc (6287) tune 1</title>
<!-- Creator: abcm2ps-7.8.14 -->
<!-- CreationDate: Mar 13, 2016 18:54 -->
<!-- CommandLine: -qxg 6287.abc -O ../svgs/6287.svg -->
<g transform="scale(0.750)" stroke-width="0.70" font-family="Times" font-size="20.00">
<text x="354.13" y="21.67" text-anchor="middle">6287.  Quartet in E Flat, Op. 47, 2nd. Mvt. - 1st. Theme</text>
</g>
<g transform="scale(0.750)" stroke-width="0.70" font-family="Times" font-size="14.00" font-style="italic">
<text x="694.93" y="45.34" text-anchor="end">Robert Schumann</text>
</g>
<g transform="scale(0.525)" stroke-width="0.70" font-family="Times" font-size="14.00" font-style="italic">
<defs>
<ellipse id="hd" rx="4.1" ry="2.9"
	transform="rotate(-20)" fill="currentColor"/>
</defs>
<use x="114.90" y="94.16" xlink:href="#hd"/>
<path d="M118.40 94.16v-20.00" stroke="currentColor" fill="none"/>
</g>
<g transform="scale(0.750)" stroke-width="0.70" font-family="Times" font-size="15.00" font-weight="bold">
<text x="88.13" y="68.01">= 120</text>
<path stroke="currentColor" fill="none"
	d="M241.83 106.01v-24.00"/>
<path stroke="currentColor" fill="none"
	d="M418.93 106.01v-24.00"/>
<path stroke="currentColor" fill="none"
	d="M595.93 106.01v-24.00"/>
<path stroke="currentColor" fill="none"
	d="M13.33 106.01h681.60m-681.60 -6h681.60m-681.60 -6h681.60m-681.60 -6h681.60m-681.60 -6h681.60"/>
<defs>
<path id="utclef" fill="currentColor" d="m-50 -90
	c-72 -41 -72 -158 52 -188
	c150 -10 220 188 90 256
	c-114 52 -275 0 -293 -136
	c-15 -181 93 -229 220 -334
	c88 -87 79 -133 62 -210
	c-51 33 -94 105 -89 186
	c17 267 36 374 49 574
	c6 96 -19 134 -77 135
	c-80 1 -126 -93 -61 -133
	c85 -41 133 101 31 105
	c23 17 92 37 90 -92
	c-10 -223 -39 -342 -50 -617
	c0 -90 0 -162 96 -232
	c56 72 63 230 22 289
	c-74 106 -257 168 -255 316
	c9 153 148 185 252 133
	c86 -65 29 -192 -80 -176
	c-71 12 -105 67 -59 124"/>
<use id="tclef" transform="scale(0.045)"
	xlink:href="#utclef"/>
</defs>
<use x="25.33" y="106.01" xlink:href="#tclef"/>
<defs>
<path id="uflat" fill="currentColor" d="
	m100 -746
	h32
	v734
	l-32 4
	m32 -332
	c46 -72 152 -90 208 -20
	c100 110 -120 326 -208 348
	m0 -28
	c54 0 200 -206 130 -290
	c-50 -60 -130 -4 -130 34"/>
<use id="ft0" transform="translate(-3.5,3.5) scale(0.018)"
	xlink:href="#uflat"/>
</defs>
<use x="40.33" y="94.01" xlink:href="#ft0"/>
<use x="45.83" y="85.01" xlink:href="#ft0"/>
<g font-family="serif" font-size="16" font-weight="bold" font-style="normal"
	transform="translate(61.83,106.01) scale(1.2,1)">
	<text y="-1" text-anchor="middle">4</text>
	<text y="-13" text-anchor="middle">3</text>
</g>
<path fill="currentColor"
	d="M76.03 113.51l54.70 -5.00v-3.20l-54.70 5.00"/>
<use x="79.83" y="94.01" xlink:href="#hd"/>
<path d="M76.33 94.01v18.50" stroke="currentColor" fill="none"/>
<use x="106.83" y="91.01" xlink:href="#hd"/>
<path d="M103.33 91.01v19.00" stroke="currentColor" fill="none"/>
<use x="133.83" y="88.01" xlink:href="#hd"/>
<path d="M130.33 88.01v19.50" stroke="currentColor" fill="none"/>
<path fill="currentColor"
	d="M160.03 108.71l54.70 4.60v-3.20l-54.70 -4.60"/>
<use x="163.83" y="85.01" xlink:href="#hd"/>
<path d="M160.33 85.01v22.70" stroke="currentColor" fill="none"/>
<use x="190.83" y="88.01" xlink:href="#hd"/>
<path d="M187.33 88.01v21.90" stroke="currentColor" fill="none"/>
<use x="217.83" y="94.01" xlink:href="#hd"/>
<path d="M214.33 94.01v18.20" stroke="currentColor" fill="none"/>
<path fill="currentColor"
	d="M260.03 79.51l54.70 -5.00v3.20l-54.70 5.00"/>
<use x="256.83" y="100.01" xlink:href="#hd"/>
<path d="M260.33 100.01v-19.50" stroke="currentColor" fill="none"/>
<use x="283.83" y="97.01" xlink:href="#hd"/>
<path d="M287.33 97.01v-19.00" stroke="currentColor" fill="none"/>
<use x="310.83" y="94.01" xlink:href="#hd"/>
<path d="M314.33 94.01v-18.50" stroke="currentColor" fill="none"/>
<path fill="currentColor"
	d="M344.03 71.81l54.70 4.60v3.20l-54.70 -4.60"/>
<use x="340.83" y="91.01" xlink:href="#hd"/>
<path d="M344.33 91.01v-18.20" stroke="currentColor" fill="none"/>
<use x="367.83" y="94.01" xlink:href="#hd"/>
<path d="M371.33 94.01v-19.00" stroke="currentColor" fill="none"/>
<use x="394.93" y="100.01" xlink:href="#hd"/>
<path d="M398.43 100.01v-22.70" stroke="currentColor" fill="none"/>
<path fill="currentColor"
	d="M437.03 83.11l54.70 -4.60v3.20l-54.70 4.60"/>
<use x="433.93" y="109.01" xlink:href="#hd"/>
<path d="M437.43 109.01v-24.90" stroke="currentColor" fill="none"/>
<use x="460.93" y="100.01" xlink:href="#hd"/>
<use x="451.93" y="100.01" xlink:href="#ft0"/>
<path d="M464.43 100.01v-18.20" stroke="currentColor" fill="none"/>
<use x="487.93" y="100.01" xlink:href="#hd"/>
<defs>
<path id="unat" fill="currentColor" d="
	m96 -750
	h-32
	v716
	l32 -8
	l182 -54
	v282
	h32
	v-706
	l-34 10
	l-180 50
	v-290
	m0 592
	v-190
	l182 -52
	v188"/>
<use id="nt0" transform="translate(-3,5) scale(0.018)"
	xlink:href="#unat"/>
</defs>
<use x="478.93" y="100.01" xlink:href="#nt0"/>
<path d="M491.43 100.01v-20.50" stroke="currentColor" fill="none"/>
<path fill="currentColor"
	d="M521.03 76.51l54.70 -5.00v3.20l-54.70 5.00"/>
<use x="517.93" y="97.01" xlink:href="#hd"/>
<path d="M521.43 97.01v-19.50" stroke="currentColor" fill="none"/>
<use x="544.93" y="94.01" xlink:href="#hd"/>
<path d="M548.43 94.01v-19.00" stroke="currentColor" fill="none"/>
<use x="571.93" y="91.01" xlink:href="#hd"/>
<path d="M575.43 91.01v-18.50" stroke="currentColor" fill="none"/>
<path fill="currentColor"
	d="M607.03 106.21l54.70 0.00v-3.20l-54.70 -0.00"/>
<use x="610.93" y="88.01" xlink:href="#hd"/>
<path d="M607.43 88.01v17.20" stroke="currentColor" fill="none"/>
<use x="637.93" y="85.01" xlink:href="#hd"/>
<path d="M634.43 85.01v20.20" stroke="currentColor" fill="none"/>
<use x="664.93" y="88.01" xlink:href="#hd"/>
<path d="M661.43 88.01v17.20" stroke="currentColor" fill="none"/>
</g>
</svg>
