<?xml version="1.0" standalone="no"?>
<!DOCTYPE svg PUBLIC "-//W3C//DTD SVG 1.1//EN"
	"http://www.w3.org/Graphics/SVG/1.1/DTD/svg11.dtd">
<svg xmlns="http://www.w3.org/2000/svg" version="1.1"
	xmlns:xlink="http://www.w3.org/1999/xlink"
	xml:space='preserve' color="black"
	width="7.38in" height="1.55in" viewBox="0 0 531 112">
<title>6310.abc (6310) tune 1</title>
<!-- Creator: abcm2ps-7.8.14 -->
<!-- CreationDate: Mar 13, 2016 18:54 -->
<!-- CommandLine: -qxg 6310.abc -O ../svgs/6310.svg -->
<g transform="scale(0.750)" stroke-width="0.70" font-family="Times" font-size="20.00">
<text x="354.13" y="21.67" text-anchor="middle">6310.  Scenes from Childhood, Op. 15, Hobby Horse</text>
</g>
<g transform="scale(0.750)" stroke-width="0.70" font-family="Times" font-size="14.00" font-style="italic">
<text x="694.93" y="45.34" text-anchor="end">Robert Schumann</text>
</g>
<g transform="scale(0.525)" stroke-width="0.70" font-family="Times" font-size="14.00" font-style="italic">
<defs>
<ellipse id="hd" rx="4.1" ry="2.9"
	transform="rotate(-20)" fill="currentColor"/>
</defs>
<use x="89.19" y="94.16" xlink:href="#hd"/>
<path d="M92.69 94.16v-20.00" stroke="currentColor" fill="none"/>
</g>
<g transform="scale(0.750)" stroke-width="0.70" font-family="Times" font-size="15.00" font-weight="bold">
<text x="70.13" y="68.01">= 120</text>
<path stroke="currentColor" fill="none"
	d="M195.13 126.01v-24.00"/>
<path stroke="currentColor" fill="none"
	d="M343.13 126.01v-24.00"/>
<path stroke="currentColor" fill="none"
	d="M491.23 126.01v-24.00"/>
<path stroke="currentColor" fill="none"
	d="M694.93 126.01v-24.00"/>
<path stroke="currentColor" fill="none"
	d="M13.33 126.01h681.60m-681.60 -6h681.60m-681.60 -6h681.60m-681.60 -6h681.60m-681.60 -6h681.60"/>
<path stroke="currentColor" fill="none"
	d="M531.23 68.01v-3l65.90 -0.00v3"/>
<rect x="557.13" y="59.01" width="14.00" height="12" fill="white"/>
<text font-family="serif" font-size="12" font-style="italic" font-weight="normal"
	x="564.13" y="69.01" text-anchor="middle">3</text>
<defs>
<path id="utclef" fill="currentColor" d="m-50 -90
	c-72 -41 -72 -158 52 -188
	c150 -10 220 188 90 256
	c-114 52 -275 0 -293 -136
	c-15 -181 93 -229 220 -334
	c88 -87 79 -133 62 -210
	c-51 33 -94 105 -89 186
	c17 267 36 374 49 574
	c6 96 -19 134 -77 135
	c-80 1 -126 -93 -61 -133
	c85 -41 133 101 31 105
	c23 17 92 37 90 -92
	c-10 -223 -39 -342 -50 -617
	c0 -90 0 -162 96 -232
	c56 72 63 230 22 289
	c-74 106 -257 168 -255 316
	c9 153 148 185 252 133
	c86 -65 29 -192 -80 -176
	c-71 12 -105 67 -59 124"/>
<use id="tclef" transform="scale(0.045)"
	xlink:href="#utclef"/>
</defs>
<use x="25.33" y="126.01" xlink:href="#tclef"/>
<g font-family="serif" font-size="16" font-weight="bold" font-style="normal"
	transform="translate(43.83,126.01) scale(1.2,1)">
	<text y="-1" text-anchor="middle">4</text>
	<text y="-13" text-anchor="middle">3</text>
</g>
<defs>
<path id="r8e" fill="currentColor" d="m 0 0
	c-1.5 1.5 -2.4 2 -3.6 2
	c2.4 -2.8 -2.8 -4 -2.8 -1.2
	c0 2.7 4.3 2.4 5.9 0.6"/>
<g id="r8">
	<path d="m3.3 -4l-3.4 9.6" stroke="currentColor" fill="none"/>
	<use x="3.4" y="-4" xlink:href="#r8e"/>
</g>
</defs>
<use x="61.83" y="114.01" xlink:href="#r8"/>
<defs>
<path id="hl" stroke="currentColor" d="m-6 0h12"/>
</defs>
<use x="91.13" y="96.01" xlink:href="#hl"/>
<use x="91.13" y="90.01" xlink:href="#hl"/>
<use x="91.13" y="84.01" xlink:href="#hl"/>
<use x="91.13" y="78.01" xlink:href="#hl"/>
<use x="91.13" y="78.01" xlink:href="#hd"/>
<path d="M87.63 78.01v36.00" stroke="currentColor" fill="none"/>
<use x="132.63" y="96.01" xlink:href="#hl"/>
<use x="132.63" y="90.01" xlink:href="#hl"/>
<use x="132.63" y="84.01" xlink:href="#hl"/>
<use x="132.63" y="78.01" xlink:href="#hl"/>
<use x="132.63" y="78.01" xlink:href="#hd"/>
<path d="M129.13 78.01v36.00" stroke="currentColor" fill="none"/>
<path fill="currentColor"
	d="M129.13 114.01c0.6 -5.6 9.6 -9 5.6 -18.4
	c1.6 6 -1.3 11.6 -5.6 12.8
"/>
<use x="162.03" y="96.01" xlink:href="#hl"/>
<use x="162.03" y="90.01" xlink:href="#hl"/>
<use x="162.03" y="84.01" xlink:href="#hl"/>
<use x="162.03" y="78.01" xlink:href="#hl"/>
<use x="162.03" y="75.01" xlink:href="#hd"/>
<path d="M158.53 75.01v39.00" stroke="currentColor" fill="none"/>
<use x="209.83" y="114.01" xlink:href="#r8"/>
<use x="239.13" y="96.01" xlink:href="#hl"/>
<use x="239.13" y="90.01" xlink:href="#hl"/>
<use x="239.13" y="84.01" xlink:href="#hl"/>
<use x="239.13" y="78.01" xlink:href="#hl"/>
<use x="239.13" y="78.01" xlink:href="#hd"/>
<path d="M235.63 78.01v36.00" stroke="currentColor" fill="none"/>
<use x="280.63" y="96.01" xlink:href="#hl"/>
<use x="280.63" y="90.01" xlink:href="#hl"/>
<use x="280.63" y="84.01" xlink:href="#hl"/>
<use x="280.63" y="78.01" xlink:href="#hl"/>
<use x="280.63" y="78.01" xlink:href="#hd"/>
<path d="M277.13 78.01v36.00" stroke="currentColor" fill="none"/>
<path fill="currentColor"
	d="M277.13 114.01c0.6 -5.6 9.6 -9 5.6 -18.4
	c1.6 6 -1.3 11.6 -5.6 12.8
"/>
<use x="310.03" y="96.01" xlink:href="#hl"/>
<use x="310.03" y="90.01" xlink:href="#hl"/>
<use x="310.03" y="84.01" xlink:href="#hl"/>
<use x="310.03" y="84.01" xlink:href="#hd"/>
<path d="M306.53 84.01v30.00" stroke="currentColor" fill="none"/>
<use x="357.83" y="114.01" xlink:href="#r8"/>
<use x="387.23" y="96.01" xlink:href="#hl"/>
<use x="387.23" y="90.01" xlink:href="#hl"/>
<use x="387.23" y="84.01" xlink:href="#hl"/>
<use x="387.23" y="81.01" xlink:href="#hd"/>
<path d="M383.73 81.01v33.00" stroke="currentColor" fill="none"/>
<use x="428.63" y="96.01" xlink:href="#hl"/>
<use x="428.63" y="90.01" xlink:href="#hl"/>
<use x="428.63" y="84.01" xlink:href="#hl"/>
<use x="428.63" y="81.01" xlink:href="#hd"/>
<path d="M425.13 81.01v33.00" stroke="currentColor" fill="none"/>
<path fill="currentColor"
	d="M425.13 114.01c0.6 -5.6 9.6 -9 5.6 -18.4
	c1.6 6 -1.3 11.6 -5.6 12.8
"/>
<use x="458.03" y="96.01" xlink:href="#hl"/>
<use x="458.03" y="90.01" xlink:href="#hl"/>
<use x="458.03" y="84.01" xlink:href="#hl"/>
<use x="458.03" y="78.01" xlink:href="#hl"/>
<use x="458.03" y="78.01" xlink:href="#hd"/>
<path d="M454.53 78.01v36.00" stroke="currentColor" fill="none"/>
<use x="505.83" y="114.01" xlink:href="#r8"/>
<use x="535.23" y="96.01" xlink:href="#hl"/>
<use x="535.23" y="90.01" xlink:href="#hl"/>
<use x="535.23" y="84.01" xlink:href="#hl"/>
<use x="535.23" y="84.01" xlink:href="#hd"/>
<path d="M531.73 84.01v30.00" stroke="currentColor" fill="none"/>
<use x="567.53" y="96.01" xlink:href="#hl"/>
<use x="567.53" y="90.01" xlink:href="#hl"/>
<use x="567.53" y="84.01" xlink:href="#hl"/>
<use x="567.53" y="84.01" xlink:href="#hd"/>
<path d="M564.03 84.01v30.00" stroke="currentColor" fill="none"/>
<path fill="currentColor"
	d="M564.03 114.01c0.9 -3.7 9.1 -6.4 6 -12.4
	c1 5.4 -4.2 8.4 -6 8.4
M564.03 108.61c0.9 -3.7 9.1 -6.4 6 -12.4
	c1 5.4 -4.2 8.4 -6 8.4
"/>
<use x="583.73" y="96.01" xlink:href="#hl"/>
<use x="583.73" y="90.01" xlink:href="#hl"/>
<use x="583.73" y="84.01" xlink:href="#hl"/>
<use x="583.73" y="84.01" xlink:href="#hd"/>
<path d="M580.23 84.01v30.00" stroke="currentColor" fill="none"/>
<use x="616.13" y="96.01" xlink:href="#hl"/>
<use x="616.13" y="90.01" xlink:href="#hl"/>
<use x="616.13" y="84.01" xlink:href="#hl"/>
<use x="616.13" y="84.01" xlink:href="#hd"/>
<path d="M612.63 84.01v30.00" stroke="currentColor" fill="none"/>
<path fill="currentColor"
	d="M612.63 114.01c0.9 -3.7 9.1 -6.4 6 -12.4
	c1 5.4 -4.2 8.4 -6 8.4
M612.63 108.61c0.9 -3.7 9.1 -6.4 6 -12.4
	c1 5.4 -4.2 8.4 -6 8.4
"/>
<use x="636.83" y="96.01" xlink:href="#hl"/>
<use x="636.83" y="90.01" xlink:href="#hl"/>
<use x="636.83" y="90.01" xlink:href="#hd"/>
<path d="M633.33 90.01v24.00" stroke="currentColor" fill="none"/>
<use x="678.33" y="96.01" xlink:href="#hl"/>
<use x="678.33" y="90.01" xlink:href="#hl"/>
<use x="678.33" y="90.01" xlink:href="#hd"/>
<path d="M674.83 90.01v24.00" stroke="currentColor" fill="none"/>
<path fill="currentColor"
	d="M674.83 114.01c0.9 -3.7 9.1 -6.4 6 -12.4
	c1 5.4 -4.2 8.4 -6 8.4
M674.83 108.61c0.9 -3.7 9.1 -6.4 6 -12.4
	c1 5.4 -4.2 8.4 -6 8.4
"/>
<path fill="currentColor"
	d="M538.73 84.01c4.00 -4.96 21.38 -4.96 25.38 -0.00
	l0.00 -0.23c-4.76 -6.73 -20.62 -6.73 -25.38 0.23"/>
<path fill="currentColor"
	d="M587.23 84.01c4.00 -4.96 21.38 -4.96 25.37 -0.00
	l0.00 -0.23c-4.76 -6.73 -20.62 -6.73 -25.37 0.23"/>
<path fill="currentColor"
	d="M640.33 90.01c5.43 -5.12 29.04 -5.12 34.47 -0.00
	l0.00 -0.23c-6.46 -6.89 -28.01 -6.89 -34.47 0.23"/>
</g>
</svg>
