<?xml version="1.0" standalone="no"?>
<!DOCTYPE svg PUBLIC "-//W3C//DTD SVG 1.1//EN"
	"http://www.w3.org/Graphics/SVG/1.1/DTD/svg11.dtd">
<svg xmlns="http://www.w3.org/2000/svg" version="1.1"
	xmlns:xlink="http://www.w3.org/1999/xlink"
	xml:space='preserve' color="black"
	width="7.38in" height="1.39in" viewBox="0 0 531 100">
<title>6323.abc (6323) tune 1</title>
<!-- Creator: abcm2ps-7.8.14 -->
<!-- CreationDate: Mar 13, 2016 18:54 -->
<!-- CommandLine: -qxg 6323.abc -O ../svgs/6323.svg -->
<g transform="scale(0.750)" stroke-width="0.70" font-family="Times" font-size="20.00">
<text x="354.13" y="21.67" text-anchor="middle">6323.  Sonata in A Minor, Op. 105, 3rd. Mvt. - 1st. Theme</text>
</g>
<g transform="scale(0.750)" stroke-width="0.70" font-family="Times" font-size="14.00" font-style="italic">
<text x="694.93" y="45.34" text-anchor="end">Robert Schumann</text>
</g>
<g transform="scale(0.525)" stroke-width="0.70" font-family="Times" font-size="14.00" font-style="italic">
<defs>
<ellipse id="hd" rx="4.1" ry="2.9"
	transform="rotate(-20)" fill="currentColor"/>
</defs>
<use x="89.19" y="94.16" xlink:href="#hd"/>
<path d="M92.69 94.16v-20.00" stroke="currentColor" fill="none"/>
</g>
<g transform="scale(0.750)" stroke-width="0.70" font-family="Times" font-size="15.00" font-weight="bold">
<text x="70.13" y="68.01">= 120</text>
<path stroke="currentColor" fill="none"
	d="M225.03 110.01v-24.00"/>
<path stroke="currentColor" fill="none"
	d="M416.33 110.01v-24.00"/>
<path stroke="currentColor" fill="none"
	d="M607.73 110.01v-24.00"/>
<path stroke="currentColor" fill="none"
	d="M13.33 110.01h681.60m-681.60 -6h681.60m-681.60 -6h681.60m-681.60 -6h681.60m-681.60 -6h681.60"/>
<defs>
<path id="utclef" fill="currentColor" d="m-50 -90
	c-72 -41 -72 -158 52 -188
	c150 -10 220 188 90 256
	c-114 52 -275 0 -293 -136
	c-15 -181 93 -229 220 -334
	c88 -87 79 -133 62 -210
	c-51 33 -94 105 -89 186
	c17 267 36 374 49 574
	c6 96 -19 134 -77 135
	c-80 1 -126 -93 -61 -133
	c85 -41 133 101 31 105
	c23 17 92 37 90 -92
	c-10 -223 -39 -342 -50 -617
	c0 -90 0 -162 96 -232
	c56 72 63 230 22 289
	c-74 106 -257 168 -255 316
	c9 153 148 185 252 133
	c86 -65 29 -192 -80 -176
	c-71 12 -105 67 -59 124"/>
<use id="tclef" transform="scale(0.045)"
	xlink:href="#utclef"/>
</defs>
<use x="25.33" y="110.01" xlink:href="#tclef"/>
<g font-family="serif" font-size="16" font-weight="bold" font-style="normal"
	transform="translate(43.83,110.01) scale(1.2,1)">
	<text y="-1" text-anchor="middle">4</text>
	<text y="-13" text-anchor="middle">2</text>
</g>
<use x="61.83" y="89.01" xlink:href="#hd"/>
<path d="M58.33 89.01v20.00" stroke="currentColor" fill="none"/>
<path fill="currentColor"
	d="M58.33 109.01c0.6 -5.6 9.6 -9 5.6 -18.4
	c1.6 6 -1.3 11.6 -5.6 12.8
"/>
<path fill="currentColor"
	d="M91.43 102.81l21.90 2.40v-3.20l-21.90 -2.40"/>
<path fill="currentColor"
	d="M91.73 97.91l21.20 2.30v-3.20l-21.20 -2.30"/>
<defs>
<path id="hl" stroke="currentColor" d="m-6 0h12"/>
</defs>
<use x="95.23" y="80.01" xlink:href="#hl"/>
<use x="95.23" y="80.01" xlink:href="#hd"/>
<path d="M91.73 80.01v21.90" stroke="currentColor" fill="none"/>
<use x="116.43" y="83.01" xlink:href="#hd"/>
<defs>
<path id="usharp" fill="currentColor" d="
	m136 -702
	v890
	h32
	v-890
	m128 840
	h32
	v-888
	h-32
	m-232 286
	v116
	l338 -96
	v-116
	m-338 442
	v116
	l338 -98
	v-114"/>
<use id="sh0" transform="translate(-4,5) scale(0.018)"
	xlink:href="#usharp"/>
</defs>
<use x="107.43" y="83.01" xlink:href="#sh0"/>
<path d="M112.93 83.01v21.20" stroke="currentColor" fill="none"/>
<path fill="currentColor"
	d="M136.23 99.81l21.90 2.40v-3.20l-21.90 -2.40"/>
<path fill="currentColor"
	d="M136.53 94.91l21.20 2.30v-3.20l-21.20 -2.30"/>
<use x="140.03" y="80.01" xlink:href="#hl"/>
<use x="140.03" y="77.01" xlink:href="#hd"/>
<path d="M136.53 77.01v21.90" stroke="currentColor" fill="none"/>
<use x="161.33" y="80.01" xlink:href="#hl"/>
<use x="161.33" y="80.01" xlink:href="#hd"/>
<path d="M157.83 80.01v21.20" stroke="currentColor" fill="none"/>
<path fill="currentColor"
	d="M181.03 98.21l21.90 0.00v-3.20l-21.90 -0.00"/>
<path fill="currentColor"
	d="M181.43 93.21l21.20 0.00v-3.20l-21.20 -0.00"/>
<use x="184.93" y="80.01" xlink:href="#hl"/>
<use x="184.93" y="74.01" xlink:href="#hl"/>
<use x="184.93" y="68.01" xlink:href="#hl"/>
<use x="184.93" y="68.01" xlink:href="#hd"/>
<path d="M181.43 68.01v29.20" stroke="currentColor" fill="none"/>
<use x="206.13" y="80.01" xlink:href="#hl"/>
<use x="206.13" y="74.01" xlink:href="#hl"/>
<use x="206.13" y="71.01" xlink:href="#hd"/>
<use x="197.13" y="71.01" xlink:href="#sh0"/>
<path d="M202.63 71.01v26.20" stroke="currentColor" fill="none"/>
<path fill="currentColor"
	d="M237.93 98.21l21.90 0.00v-3.20l-21.90 -0.00"/>
<path fill="currentColor"
	d="M238.23 93.21l21.20 0.00v-3.20l-21.20 -0.00"/>
<use x="241.73" y="80.01" xlink:href="#hl"/>
<use x="241.73" y="74.01" xlink:href="#hl"/>
<use x="241.73" y="68.01" xlink:href="#hl"/>
<use x="241.73" y="65.01" xlink:href="#hd"/>
<path d="M238.23 65.01v32.20" stroke="currentColor" fill="none"/>
<use x="262.93" y="80.01" xlink:href="#hl"/>
<use x="262.93" y="74.01" xlink:href="#hl"/>
<use x="262.93" y="68.01" xlink:href="#hl"/>
<use x="262.93" y="68.01" xlink:href="#hd"/>
<path d="M259.43 68.01v29.20" stroke="currentColor" fill="none"/>
<path fill="currentColor"
	d="M282.73 98.21l21.90 0.00v-3.20l-21.90 -0.00"/>
<path fill="currentColor"
	d="M283.03 93.21l21.20 0.00v-3.20l-21.20 -0.00"/>
<use x="286.53" y="80.01" xlink:href="#hl"/>
<use x="286.53" y="74.01" xlink:href="#hl"/>
<use x="286.53" y="68.01" xlink:href="#hl"/>
<use x="286.53" y="62.01" xlink:href="#hl"/>
<use x="286.53" y="59.01" xlink:href="#hd"/>
<path d="M283.03 59.01v38.20" stroke="currentColor" fill="none"/>
<use x="307.83" y="80.01" xlink:href="#hl"/>
<use x="307.83" y="74.01" xlink:href="#hl"/>
<use x="307.83" y="68.01" xlink:href="#hl"/>
<use x="307.83" y="62.01" xlink:href="#hl"/>
<use x="307.83" y="59.01" xlink:href="#hd"/>
<use x="298.83" y="59.01" xlink:href="#sh0"/>
<path d="M304.33 59.01v38.20" stroke="currentColor" fill="none"/>
<path fill="currentColor"
	d="M327.53 98.21l21.90 0.00v-3.20l-21.90 -0.00"/>
<path fill="currentColor"
	d="M327.93 93.21l21.20 0.00v-3.20l-21.20 -0.00"/>
<use x="331.43" y="80.01" xlink:href="#hl"/>
<use x="331.43" y="74.01" xlink:href="#hl"/>
<use x="331.43" y="68.01" xlink:href="#hl"/>
<use x="331.43" y="62.01" xlink:href="#hl"/>
<use x="331.43" y="62.01" xlink:href="#hd"/>
<defs>
<path id="unat" fill="currentColor" d="
	m96 -750
	h-32
	v716
	l32 -8
	l182 -54
	v282
	h32
	v-706
	l-34 10
	l-180 50
	v-290
	m0 592
	v-190
	l182 -52
	v188"/>
<use id="nt0" transform="translate(-3,5) scale(0.018)"
	xlink:href="#unat"/>
</defs>
<use x="322.43" y="62.01" xlink:href="#nt0"/>
<path d="M327.93 62.01v35.20" stroke="currentColor" fill="none"/>
<use x="352.63" y="80.01" xlink:href="#hl"/>
<use x="352.63" y="74.01" xlink:href="#hl"/>
<use x="352.63" y="68.01" xlink:href="#hl"/>
<use x="352.63" y="68.01" xlink:href="#hd"/>
<path d="M349.13 68.01v29.20" stroke="currentColor" fill="none"/>
<path fill="currentColor"
	d="M372.43 98.21l21.90 0.00v-3.20l-21.90 -0.00"/>
<path fill="currentColor"
	d="M372.73 93.21l21.20 0.00v-3.20l-21.20 -0.00"/>
<use x="376.23" y="80.01" xlink:href="#hl"/>
<use x="376.23" y="74.01" xlink:href="#hl"/>
<use x="376.23" y="68.01" xlink:href="#hl"/>
<use x="376.23" y="65.01" xlink:href="#hd"/>
<path d="M372.73 65.01v32.20" stroke="currentColor" fill="none"/>
<use x="397.53" y="80.01" xlink:href="#hl"/>
<use x="397.53" y="74.01" xlink:href="#hl"/>
<use x="397.53" y="68.01" xlink:href="#hl"/>
<use x="397.53" y="62.01" xlink:href="#hl"/>
<use x="397.53" y="62.01" xlink:href="#hd"/>
<path d="M394.03 62.01v35.20" stroke="currentColor" fill="none"/>
<path fill="currentColor"
	d="M429.23 98.21l21.90 0.00v-3.20l-21.90 -0.00"/>
<path fill="currentColor"
	d="M429.53 93.21l21.20 0.00v-3.20l-21.20 -0.00"/>
<use x="433.03" y="80.01" xlink:href="#hl"/>
<use x="433.03" y="74.01" xlink:href="#hl"/>
<use x="433.03" y="68.01" xlink:href="#hl"/>
<use x="433.03" y="68.01" xlink:href="#hd"/>
<path d="M429.53 68.01v29.20" stroke="currentColor" fill="none"/>
<use x="454.33" y="80.01" xlink:href="#hl"/>
<use x="454.33" y="74.01" xlink:href="#hl"/>
<use x="454.33" y="74.01" xlink:href="#hd"/>
<use x="445.33" y="74.01" xlink:href="#sh0"/>
<path d="M450.83 74.01v23.20" stroke="currentColor" fill="none"/>
<path fill="currentColor"
	d="M474.03 98.21l21.90 0.00v-3.20l-21.90 -0.00"/>
<path fill="currentColor"
	d="M474.43 93.21l21.20 0.00v-3.20l-21.20 -0.00"/>
<use x="477.93" y="80.01" xlink:href="#hl"/>
<use x="477.93" y="74.01" xlink:href="#hl"/>
<use x="477.93" y="71.01" xlink:href="#hd"/>
<use x="468.93" y="71.01" xlink:href="#nt0"/>
<path d="M474.43 71.01v26.20" stroke="currentColor" fill="none"/>
<use x="499.13" y="80.01" xlink:href="#hl"/>
<use x="499.13" y="74.01" xlink:href="#hl"/>
<use x="499.13" y="68.01" xlink:href="#hl"/>
<use x="499.13" y="68.01" xlink:href="#hd"/>
<path d="M495.63 68.01v29.20" stroke="currentColor" fill="none"/>
<path fill="currentColor"
	d="M518.93 99.21l21.90 3.00v-3.20l-21.90 -3.00"/>
<path fill="currentColor"
	d="M519.23 94.31l21.20 2.90v-3.20l-21.20 -2.90"/>
<use x="522.73" y="80.01" xlink:href="#hl"/>
<use x="522.73" y="74.01" xlink:href="#hl"/>
<use x="522.73" y="74.01" xlink:href="#hd"/>
<use x="513.73" y="74.01" xlink:href="#sh0"/>
<path d="M519.23 74.01v24.30" stroke="currentColor" fill="none"/>
<use x="544.03" y="80.01" xlink:href="#hl"/>
<use x="544.03" y="80.01" xlink:href="#hd"/>
<use x="535.03" y="80.01" xlink:href="#nt0"/>
<path d="M540.53 80.01v21.20" stroke="currentColor" fill="none"/>
<path fill="currentColor"
	d="M563.73 100.01l21.90 0.00v-3.20l-21.90 -0.00"/>
<path fill="currentColor"
	d="M564.13 95.01l21.20 0.00v-3.20l-21.20 -0.00"/>
<use x="567.63" y="80.01" xlink:href="#hl"/>
<use x="567.63" y="74.01" xlink:href="#hl"/>
<use x="567.63" y="71.01" xlink:href="#hd"/>
<path d="M564.13 71.01v28.00" stroke="currentColor" fill="none"/>
<use x="588.83" y="80.01" xlink:href="#hl"/>
<use x="588.83" y="77.01" xlink:href="#hd"/>
<path d="M585.33 77.01v22.00" stroke="currentColor" fill="none"/>
<path fill="currentColor"
	d="M622.63 107.31l21.90 4.00v-3.20l-21.90 -4.00"/>
<path fill="currentColor"
	d="M623.03 102.41l21.20 3.80v-3.20l-21.20 -3.80"/>
<use x="626.53" y="83.01" xlink:href="#hd"/>
<use x="617.53" y="83.01" xlink:href="#sh0"/>
<path d="M623.03 83.01v23.40" stroke="currentColor" fill="none"/>
<use x="647.73" y="89.01" xlink:href="#hd"/>
<path d="M644.23 89.01v21.20" stroke="currentColor" fill="none"/>
<use x="671.33" y="80.01" xlink:href="#hl"/>
<use x="671.33" y="80.01" xlink:href="#hd"/>
<path d="M667.83 80.01v22.00" stroke="currentColor" fill="none"/>
<path fill="currentColor"
	d="M667.83 102.01c0.9 -3.7 9.1 -6.4 6 -12.4
	c1 5.4 -4.2 8.4 -6 8.4
M667.83 96.61c0.9 -3.7 9.1 -6.4 6 -12.4
	c1 5.4 -4.2 8.4 -6 8.4
"/>
</g>
</svg>
