<?xml version="1.0" standalone="no"?>
<!DOCTYPE svg PUBLIC "-//W3C//DTD SVG 1.1//EN"
	"http://www.w3.org/Graphics/SVG/1.1/DTD/svg11.dtd">
<svg xmlns="http://www.w3.org/2000/svg" version="1.1"
	xmlns:xlink="http://www.w3.org/1999/xlink"
	xml:space='preserve' color="black"
	width="7.38in" height="1.46in" viewBox="0 0 531 105">
<title>6328.abc (6328) tune 1</title>
<!-- Creator: abcm2ps-7.8.14 -->
<!-- CreationDate: Mar 13, 2016 18:54 -->
<!-- CommandLine: -qxg 6328.abc -O ../svgs/6328.svg -->
<g transform="scale(0.750)" stroke-width="0.70" font-family="Times" font-size="20.00">
<text x="354.13" y="21.67" text-anchor="middle">6328.  Sonata in D Minor, Op. 121, 1st. Mvt. - 2nd. Theme</text>
</g>
<g transform="scale(0.750)" stroke-width="0.70" font-family="Times" font-size="14.00" font-style="italic">
<text x="694.93" y="45.34" text-anchor="end">Robert Schumann</text>
</g>
<g transform="scale(0.525)" stroke-width="0.70" font-family="Times" font-size="14.00" font-style="italic">
<defs>
<ellipse id="hd" rx="4.1" ry="2.9"
	transform="rotate(-20)" fill="currentColor"/>
</defs>
<use x="107.04" y="94.16" xlink:href="#hd"/>
<path d="M110.54 94.16v-20.00" stroke="currentColor" fill="none"/>
</g>
<g transform="scale(0.750)" stroke-width="0.70" font-family="Times" font-size="15.00" font-weight="bold">
<text x="82.63" y="68.01">= 120</text>
<path stroke="currentColor" fill="none"
	d="M215.33 117.01v-24.00"/>
<path stroke="currentColor" fill="none"
	d="M377.23 117.01v-24.00"/>
<path stroke="currentColor" fill="none"
	d="M518.43 117.01v-24.00"/>
<path stroke="currentColor" fill="none"
	d="M657.83 117.01v-24.00"/>
<path stroke="currentColor" fill="none"
	d="M13.33 117.01h681.60m-681.60 -6h681.60m-681.60 -6h681.60m-681.60 -6h681.60m-681.60 -6h681.60"/>
<defs>
<path id="utclef" fill="currentColor" d="m-50 -90
	c-72 -41 -72 -158 52 -188
	c150 -10 220 188 90 256
	c-114 52 -275 0 -293 -136
	c-15 -181 93 -229 220 -334
	c88 -87 79 -133 62 -210
	c-51 33 -94 105 -89 186
	c17 267 36 374 49 574
	c6 96 -19 134 -77 135
	c-80 1 -126 -93 -61 -133
	c85 -41 133 101 31 105
	c23 17 92 37 90 -92
	c-10 -223 -39 -342 -50 -617
	c0 -90 0 -162 96 -232
	c56 72 63 230 22 289
	c-74 106 -257 168 -255 316
	c9 153 148 185 252 133
	c86 -65 29 -192 -80 -176
	c-71 12 -105 67 -59 124"/>
<use id="tclef" transform="scale(0.045)"
	xlink:href="#utclef"/>
</defs>
<use x="25.33" y="117.01" xlink:href="#tclef"/>
<defs>
<path id="uflat" fill="currentColor" d="
	m100 -746
	h32
	v734
	l-32 4
	m32 -332
	c46 -72 152 -90 208 -20
	c100 110 -120 326 -208 348
	m0 -28
	c54 0 200 -206 130 -290
	c-50 -60 -130 -4 -130 34"/>
<use id="ft0" transform="translate(-3.5,3.5) scale(0.018)"
	xlink:href="#uflat"/>
</defs>
<use x="40.33" y="105.01" xlink:href="#ft0"/>
<g font-family="serif" font-size="16" font-weight="bold" font-style="normal"
	transform="translate(56.33,117.01) scale(1.2,1)">
	<text y="-1" text-anchor="middle">4</text>
	<text y="-13" text-anchor="middle">4</text>
</g>
<defs>
<path id="hl" stroke="currentColor" d="m-6 0h12"/>
</defs>
<use x="74.33" y="87.01" xlink:href="#hl"/>
<use x="74.33" y="81.01" xlink:href="#hl"/>
<use x="74.33" y="81.01" xlink:href="#hd"/>
<path d="M70.83 81.01v24.00" stroke="currentColor" fill="none"/>
<path fill="currentColor"
	d="M70.83 105.01c0.6 -5.6 9.6 -9 5.6 -18.4
	c1.6 6 -1.3 11.6 -5.6 12.8
"/>
<use x="99.03" y="87.01" xlink:href="#hl"/>
<use x="99.03" y="81.01" xlink:href="#hl"/>
<use x="99.03" y="78.01" xlink:href="#hd"/>
<path d="M95.53 78.01v27.00" stroke="currentColor" fill="none"/>
<path fill="currentColor"
	d="M95.53 105.01c0.6 -5.6 9.6 -9 5.6 -18.4
	c1.6 6 -1.3 11.6 -5.6 12.8
"/>
<use x="123.83" y="87.01" xlink:href="#hl"/>
<use x="123.83" y="84.01" xlink:href="#hd"/>
<path d="M120.33 84.01v21.00" stroke="currentColor" fill="none"/>
<path fill="currentColor"
	d="M120.33 105.01c0.6 -5.6 9.6 -9 5.6 -18.4
	c1.6 6 -1.3 11.6 -5.6 12.8
"/>
<use x="148.53" y="87.01" xlink:href="#hl"/>
<use x="148.53" y="84.01" xlink:href="#hd"/>
<path d="M145.03 84.01v21.00" stroke="currentColor" fill="none"/>
<use x="183.43" y="87.01" xlink:href="#hl"/>
<use x="183.43" y="87.01" xlink:href="#hd"/>
<circle fill="currentColor" cx="191.43" cy="84.01" r="1.2"/>
<path d="M179.93 87.01v20.00" stroke="currentColor" fill="none"/>
<use x="227.93" y="87.01" xlink:href="#hl"/>
<use x="227.93" y="87.01" xlink:href="#hd"/>
<path d="M224.43 87.01v20.00" stroke="currentColor" fill="none"/>
<path fill="currentColor"
	d="M224.43 107.01c0.6 -5.6 9.6 -9 5.6 -18.4
	c1.6 6 -1.3 11.6 -5.6 12.8
"/>
<use x="252.63" y="87.01" xlink:href="#hl"/>
<use x="252.63" y="87.01" xlink:href="#hd"/>
<path d="M249.13 87.01v20.00" stroke="currentColor" fill="none"/>
<use x="287.63" y="87.01" xlink:href="#hl"/>
<use x="287.63" y="81.01" xlink:href="#hl"/>
<use x="287.63" y="75.01" xlink:href="#hl"/>
<use x="287.63" y="75.01" xlink:href="#hd"/>
<use x="278.63" y="75.01" xlink:href="#ft0"/>
<path d="M284.13 75.01v30.00" stroke="currentColor" fill="none"/>
<use x="322.53" y="87.01" xlink:href="#hl"/>
<use x="322.53" y="81.01" xlink:href="#hl"/>
<use x="322.53" y="78.01" xlink:href="#hd"/>
<path d="M319.03 78.01v27.00" stroke="currentColor" fill="none"/>
<use x="357.43" y="87.01" xlink:href="#hl"/>
<use x="357.43" y="84.01" xlink:href="#hd"/>
<path d="M353.93 84.01v21.00" stroke="currentColor" fill="none"/>
<path fill="currentColor"
	d="M353.93 105.01c0.6 -5.6 9.6 -9 5.6 -18.4
	c1.6 6 -1.3 11.6 -5.6 12.8
"/>
<use x="389.83" y="87.01" xlink:href="#hl"/>
<use x="389.83" y="84.01" xlink:href="#hd"/>
<path d="M386.33 84.01v21.00" stroke="currentColor" fill="none"/>
<path fill="currentColor"
	d="M386.33 105.01c0.6 -5.6 9.6 -9 5.6 -18.4
	c1.6 6 -1.3 11.6 -5.6 12.8
"/>
<use x="414.53" y="90.01" xlink:href="#hd"/>
<path d="M411.03 90.01v20.00" stroke="currentColor" fill="none"/>
<use x="449.33" y="87.01" xlink:href="#hl"/>
<defs>
<path id="Hd" fill="currentColor" d="m3 -1.6
	c-1 -1.8 -7 1.4 -6 3.2
	c1 1.8 7 -1.4 6 -3.2
	m0.5 -0.3
	c2 3.8 -5 7.6 -7 3.8
	c-2 -3.8 5 -7.6 7 -3.8"/>
</defs>
<use x="449.33" y="87.01" xlink:href="#Hd"/>
<path d="M445.83 87.01v20.00" stroke="currentColor" fill="none"/>
<use x="498.63" y="87.01" xlink:href="#hl"/>
<use x="498.63" y="84.01" xlink:href="#hd"/>
<path d="M495.13 84.01v21.00" stroke="currentColor" fill="none"/>
<path fill="currentColor"
	d="M495.13 105.01c0.6 -5.6 9.6 -9 5.6 -18.4
	c1.6 6 -1.3 11.6 -5.6 12.8
"/>
<use x="531.03" y="87.01" xlink:href="#hl"/>
<use x="531.03" y="84.01" xlink:href="#hd"/>
<path d="M527.53 84.01v21.00" stroke="currentColor" fill="none"/>
<use x="566.03" y="90.01" xlink:href="#hd"/>
<use x="557.03" y="90.01" xlink:href="#ft0"/>
<path d="M562.53 90.01v20.00" stroke="currentColor" fill="none"/>
<path fill="currentColor"
	d="M562.53 110.01c0.6 -5.6 9.6 -9 5.6 -18.4
	c1.6 6 -1.3 11.6 -5.6 12.8
"/>
<use x="590.93" y="90.01" xlink:href="#hd"/>
<use x="581.93" y="90.01" xlink:href="#ft0"/>
<path d="M587.43 90.01v20.00" stroke="currentColor" fill="none"/>
<use x="625.93" y="90.01" xlink:href="#hd"/>
<circle fill="currentColor" cx="633.93" cy="90.01" r="1.2"/>
<defs>
<path id="unat" fill="currentColor" d="
	m96 -750
	h-32
	v716
	l32 -8
	l182 -54
	v282
	h32
	v-706
	l-34 10
	l-180 50
	v-290
	m0 592
	v-190
	l182 -52
	v188"/>
<use id="nt0" transform="translate(-3,5) scale(0.018)"
	xlink:href="#unat"/>
</defs>
<use x="616.93" y="90.01" xlink:href="#nt0"/>
<path d="M622.43 90.01v20.00" stroke="currentColor" fill="none"/>
<use x="670.43" y="90.01" xlink:href="#hd"/>
<path d="M666.93 90.01v20.00" stroke="currentColor" fill="none"/>
<path fill="currentColor"
	d="M666.93 110.01c0.6 -5.6 9.6 -9 5.6 -18.4
	c1.6 6 -1.3 11.6 -5.6 12.8
"/>
<path fill="currentColor"
	d="M186.93 81.01c5.90 -5.17 31.54 -5.17 37.44 -0.00
	l0.00 -0.24c-7.02 -6.94 -30.42 -6.94 -37.44 0.24"/>
<path fill="currentColor"
	d="M360.93 82.01c3.99 -4.96 21.35 -4.96 25.34 -0.00
	l0.00 -0.23c-4.75 -6.73 -20.59 -6.73 -25.34 0.23"/>
<path fill="currentColor"
	d="M502.13 82.01c3.99 -4.96 21.35 -4.96 25.34 -0.00
	l0.00 -0.23c-4.75 -6.73 -20.59 -6.73 -25.34 0.23"/>
<path fill="currentColor"
	d="M629.43 88.01c5.90 -5.17 31.54 -5.17 37.44 -0.00
	l0.00 -0.24c-7.02 -6.94 -30.42 -6.94 -37.44 0.24"/>
</g>
</svg>
