<?xml version="1.0" standalone="no"?>
<!DOCTYPE svg PUBLIC "-//W3C//DTD SVG 1.1//EN"
	"http://www.w3.org/Graphics/SVG/1.1/DTD/svg11.dtd">
<svg xmlns="http://www.w3.org/2000/svg" version="1.1"
	xmlns:xlink="http://www.w3.org/1999/xlink"
	xml:space='preserve' color="black"
	width="7.38in" height="1.42in" viewBox="0 0 531 102">
<title>6347.abc (6347) tune 1</title>
<!-- Creator: abcm2ps-7.8.14 -->
<!-- CreationDate: Mar 13, 2016 18:54 -->
<!-- CommandLine: -qxg 6347.abc -O ../svgs/6347.svg -->
<g transform="scale(0.750)" stroke-width="0.70" font-family="Times" font-size="20.00">
<text x="354.13" y="21.67" text-anchor="middle">6347.  Symphony No. 1 in B Flat, Op. 38, 1st. Mvt. - 4th. Theme</text>
</g>
<g transform="scale(0.750)" stroke-width="0.70" font-family="Times" font-size="14.00" font-style="italic">
<text x="694.93" y="45.34" text-anchor="end">Robert Schumann</text>
</g>
<g transform="scale(0.525)" stroke-width="0.70" font-family="Times" font-size="14.00" font-style="italic">
<defs>
<ellipse id="hd" rx="4.1" ry="2.9"
	transform="rotate(-20)" fill="currentColor"/>
</defs>
<use x="114.90" y="94.16" xlink:href="#hd"/>
<path d="M118.40 94.16v-20.00" stroke="currentColor" fill="none"/>
</g>
<g transform="scale(0.750)" stroke-width="0.70" font-family="Times" font-size="15.00" font-weight="bold">
<text x="88.13" y="68.01">= 120</text>
<path stroke="currentColor" fill="none"
	d="M136.73 113.01v-24.00"/>
<path stroke="currentColor" fill="none"
	d="M229.03 113.01v-24.00"/>
<path stroke="currentColor" fill="none"
	d="M298.63 113.01v-24.00"/>
<path stroke="currentColor" fill="none"
	d="M390.93 113.01v-24.00"/>
<path stroke="currentColor" fill="none"
	d="M460.83 113.01v-24.00"/>
<path stroke="currentColor" fill="none"
	d="M559.33 113.01v-24.00"/>
<path stroke="currentColor" fill="none"
	d="M657.83 113.01v-24.00"/>
<path stroke="currentColor" fill="none"
	d="M13.33 113.01h681.60m-681.60 -6h681.60m-681.60 -6h681.60m-681.60 -6h681.60m-681.60 -6h681.60"/>
<defs>
<path id="utclef" fill="currentColor" d="m-50 -90
	c-72 -41 -72 -158 52 -188
	c150 -10 220 188 90 256
	c-114 52 -275 0 -293 -136
	c-15 -181 93 -229 220 -334
	c88 -87 79 -133 62 -210
	c-51 33 -94 105 -89 186
	c17 267 36 374 49 574
	c6 96 -19 134 -77 135
	c-80 1 -126 -93 -61 -133
	c85 -41 133 101 31 105
	c23 17 92 37 90 -92
	c-10 -223 -39 -342 -50 -617
	c0 -90 0 -162 96 -232
	c56 72 63 230 22 289
	c-74 106 -257 168 -255 316
	c9 153 148 185 252 133
	c86 -65 29 -192 -80 -176
	c-71 12 -105 67 -59 124"/>
<use id="tclef" transform="scale(0.045)"
	xlink:href="#utclef"/>
</defs>
<use x="25.33" y="113.01" xlink:href="#tclef"/>
<defs>
<path id="uflat" fill="currentColor" d="
	m100 -746
	h32
	v734
	l-32 4
	m32 -332
	c46 -72 152 -90 208 -20
	c100 110 -120 326 -208 348
	m0 -28
	c54 0 200 -206 130 -290
	c-50 -60 -130 -4 -130 34"/>
<use id="ft0" transform="translate(-3.5,3.5) scale(0.018)"
	xlink:href="#uflat"/>
</defs>
<use x="40.33" y="101.01" xlink:href="#ft0"/>
<use x="45.83" y="92.01" xlink:href="#ft0"/>
<g font-family="serif" font-size="16" font-weight="bold" font-style="normal"
	transform="translate(61.83,113.01) scale(1.2,1)">
	<text y="-1" text-anchor="middle">4</text>
	<text y="-13" text-anchor="middle">2</text>
</g>
<use x="79.83" y="95.01" xlink:href="#hd"/>
<path d="M76.33 95.01v20.00" stroke="currentColor" fill="none"/>
<path fill="currentColor"
	d="M76.33 115.01c0.6 -5.6 9.6 -9 5.6 -18.4
	c1.6 6 -1.3 11.6 -5.6 12.8
"/>
<use x="104.63" y="95.01" xlink:href="#hd"/>
<circle fill="currentColor" cx="112.63" cy="92.01" r="1.2"/>
<path d="M101.13 95.01v20.00" stroke="currentColor" fill="none"/>
<use x="149.43" y="95.01" xlink:href="#hd"/>
<path d="M145.93 95.01v20.00" stroke="currentColor" fill="none"/>
<path fill="currentColor"
	d="M145.93 115.01c0.6 -5.6 9.6 -9 5.6 -18.4
	c1.6 6 -1.3 11.6 -5.6 12.8
"/>
<use x="174.13" y="89.01" xlink:href="#hd"/>
<path d="M170.63 89.01v20.00" stroke="currentColor" fill="none"/>
<defs>
<path id="hl" stroke="currentColor" d="m-6 0h12"/>
</defs>
<use x="209.03" y="83.01" xlink:href="#hl"/>
<use x="209.03" y="83.01" xlink:href="#hd"/>
<path d="M205.53 83.01v20.00" stroke="currentColor" fill="none"/>
<path fill="currentColor"
	d="M205.53 103.01c0.6 -5.6 9.6 -9 5.6 -18.4
	c1.6 6 -1.3 11.6 -5.6 12.8
"/>
<use x="241.63" y="83.01" xlink:href="#hl"/>
<use x="241.63" y="83.01" xlink:href="#hd"/>
<path d="M238.13 83.01v20.00" stroke="currentColor" fill="none"/>
<path fill="currentColor"
	d="M238.13 103.01c0.6 -5.6 9.6 -9 5.6 -18.4
	c1.6 6 -1.3 11.6 -5.6 12.8
"/>
<use x="266.53" y="83.01" xlink:href="#hl"/>
<use x="266.53" y="80.01" xlink:href="#hd"/>
<circle fill="currentColor" cx="274.53" cy="80.01" r="1.2"/>
<path d="M263.03 80.01v21.00" stroke="currentColor" fill="none"/>
<use x="311.23" y="83.01" xlink:href="#hl"/>
<use x="311.23" y="80.01" xlink:href="#hd"/>
<path d="M307.73 80.01v21.00" stroke="currentColor" fill="none"/>
<path fill="currentColor"
	d="M307.73 101.01c0.6 -5.6 9.6 -9 5.6 -18.4
	c1.6 6 -1.3 11.6 -5.6 12.8
"/>
<use x="336.13" y="83.01" xlink:href="#hl"/>
<use x="336.13" y="77.01" xlink:href="#hl"/>
<use x="336.13" y="71.01" xlink:href="#hl"/>
<use x="336.13" y="68.01" xlink:href="#hd"/>
<path d="M332.63 68.01v33.00" stroke="currentColor" fill="none"/>
<use x="371.03" y="83.01" xlink:href="#hl"/>
<use x="371.03" y="80.01" xlink:href="#hd"/>
<path d="M367.53 80.01v21.00" stroke="currentColor" fill="none"/>
<path fill="currentColor"
	d="M367.53 101.01c0.6 -5.6 9.6 -9 5.6 -18.4
	c1.6 6 -1.3 11.6 -5.6 12.8
"/>
<use x="403.63" y="83.01" xlink:href="#hl"/>
<use x="403.63" y="80.01" xlink:href="#hd"/>
<path d="M400.13 80.01v21.00" stroke="currentColor" fill="none"/>
<path fill="currentColor"
	d="M400.13 101.01c0.6 -5.6 9.6 -9 5.6 -18.4
	c1.6 6 -1.3 11.6 -5.6 12.8
"/>
<use x="428.73" y="83.01" xlink:href="#hl"/>
<use x="428.73" y="77.01" xlink:href="#hl"/>
<use x="428.73" y="74.01" xlink:href="#hd"/>
<circle fill="currentColor" cx="436.73" cy="74.01" r="1.2"/>
<use x="419.73" y="74.01" xlink:href="#ft0"/>
<path d="M425.23 74.01v27.00" stroke="currentColor" fill="none"/>
<use x="479.33" y="83.01" xlink:href="#hl"/>
<use x="479.33" y="77.01" xlink:href="#hl"/>
<use x="479.33" y="74.01" xlink:href="#hd"/>
<use x="470.33" y="74.01" xlink:href="#ft0"/>
<path d="M475.83 74.01v27.00" stroke="currentColor" fill="none"/>
<path fill="currentColor"
	d="M475.83 101.01c0.6 -5.6 9.6 -9 5.6 -18.4
	c1.6 6 -1.3 11.6 -5.6 12.8
"/>
<use x="504.23" y="83.01" xlink:href="#hl"/>
<use x="504.23" y="77.01" xlink:href="#hl"/>
<use x="504.23" y="71.01" xlink:href="#hl"/>
<use x="504.23" y="65.01" xlink:href="#hl"/>
<use x="504.23" y="65.01" xlink:href="#hd"/>
<path d="M500.73 65.01v36.00" stroke="currentColor" fill="none"/>
<use x="539.43" y="83.01" xlink:href="#hl"/>
<use x="539.43" y="77.01" xlink:href="#hl"/>
<use x="539.43" y="74.01" xlink:href="#hd"/>
<use x="530.43" y="74.01" xlink:href="#ft0"/>
<path d="M535.93 74.01v27.00" stroke="currentColor" fill="none"/>
<path fill="currentColor"
	d="M535.93 101.01c0.6 -5.6 9.6 -9 5.6 -18.4
	c1.6 6 -1.3 11.6 -5.6 12.8
"/>
<use x="577.83" y="83.01" xlink:href="#hl"/>
<use x="577.83" y="77.01" xlink:href="#hl"/>
<use x="577.83" y="74.01" xlink:href="#hd"/>
<use x="568.83" y="74.01" xlink:href="#ft0"/>
<path d="M574.33 74.01v27.00" stroke="currentColor" fill="none"/>
<path fill="currentColor"
	d="M574.33 101.01c0.6 -5.6 9.6 -9 5.6 -18.4
	c1.6 6 -1.3 11.6 -5.6 12.8
"/>
<use x="602.93" y="83.01" xlink:href="#hl"/>
<use x="602.93" y="77.01" xlink:href="#hl"/>
<use x="602.93" y="74.01" xlink:href="#hd"/>
<defs>
<path id="unat" fill="currentColor" d="
	m96 -750
	h-32
	v716
	l32 -8
	l182 -54
	v282
	h32
	v-706
	l-34 10
	l-180 50
	v-290
	m0 592
	v-190
	l182 -52
	v188"/>
<use id="nt0" transform="translate(-3,5) scale(0.018)"
	xlink:href="#unat"/>
</defs>
<use x="593.93" y="74.01" xlink:href="#nt0"/>
<path d="M599.43 74.01v27.00" stroke="currentColor" fill="none"/>
<use x="637.83" y="83.01" xlink:href="#hl"/>
<use x="637.83" y="77.01" xlink:href="#hl"/>
<use x="637.83" y="71.01" xlink:href="#hl"/>
<use x="637.83" y="65.01" xlink:href="#hl"/>
<use x="637.83" y="62.01" xlink:href="#hd"/>
<path d="M634.33 62.01v39.00" stroke="currentColor" fill="none"/>
<path fill="currentColor"
	d="M634.33 101.01c0.6 -5.6 9.6 -9 5.6 -18.4
	c1.6 6 -1.3 11.6 -5.6 12.8
"/>
<use x="670.43" y="83.01" xlink:href="#hl"/>
<use x="670.43" y="77.01" xlink:href="#hl"/>
<use x="670.43" y="71.01" xlink:href="#hl"/>
<use x="670.43" y="65.01" xlink:href="#hl"/>
<use x="670.43" y="62.01" xlink:href="#hd"/>
<path d="M666.93 62.01v39.00" stroke="currentColor" fill="none"/>
<path fill="currentColor"
	d="M666.93 101.01c0.6 -5.6 9.6 -9 5.6 -18.4
	c1.6 6 -1.3 11.6 -5.6 12.8
"/>
<path fill="currentColor"
	d="M108.13 89.01c5.95 -5.18 31.82 -5.18 37.77 -0.00
	l0.00 -0.24c-7.08 -6.94 -30.69 -6.94 -37.77 0.24"/>
<path fill="currentColor"
	d="M212.53 83.01c4.03 -4.96 21.56 -4.96 25.59 -0.00
	l0.00 -0.23c-4.80 -6.73 -20.79 -6.73 -25.59 0.23"/>
<path fill="currentColor"
	d="M270.03 78.01c5.95 -5.18 31.82 -5.18 37.77 -0.00
	l0.00 -0.24c-7.08 -6.94 -30.69 -6.94 -37.77 0.24"/>
<path fill="currentColor"
	d="M374.53 78.01c4.03 -4.96 21.56 -4.96 25.59 -0.00
	l0.00 -0.23c-4.80 -6.73 -20.79 -6.73 -25.59 0.23"/>
<path fill="currentColor"
	d="M432.23 72.01c6.80 -5.28 36.80 -5.28 43.59 -0.00
	l0.00 -0.24c-8.10 -7.04 -35.49 -7.04 -43.59 0.24"/>
<path fill="currentColor"
	d="M542.93 72.01c4.95 -5.07 26.46 -5.07 31.41 -0.00
	l0.00 -0.23c-5.89 -6.83 -25.52 -6.83 -31.41 0.23"/>
<path fill="currentColor"
	d="M641.33 60.01c4.03 -4.96 21.56 -4.96 25.59 -0.00
	l0.00 -0.23c-4.80 -6.73 -20.79 -6.73 -25.59 0.23"/>
</g>
</svg>
