<?xml version="1.0" standalone="no"?>
<!DOCTYPE svg PUBLIC "-//W3C//DTD SVG 1.1//EN"
	"http://www.w3.org/Graphics/SVG/1.1/DTD/svg11.dtd">
<svg xmlns="http://www.w3.org/2000/svg" version="1.1"
	xmlns:xlink="http://www.w3.org/1999/xlink"
	xml:space='preserve' color="black"
	width="7.38in" height="1.54in" viewBox="0 0 531 111">
<title>6349.abc (6349) tune 1</title>
<!-- Creator: abcm2ps-7.8.14 -->
<!-- CreationDate: Mar 13, 2016 18:54 -->
<!-- CommandLine: -qxg 6349.abc -O ../svgs/6349.svg -->
<g transform="scale(0.750)" stroke-width="0.70" font-family="Times" font-size="20.00">
<text x="354.13" y="21.67" text-anchor="middle">6349.  Symphony No. 1 in B Flat, Op. 38, 2nd. Mvt.</text>
</g>
<g transform="scale(0.750)" stroke-width="0.70" font-family="Times" font-size="14.00" font-style="italic">
<text x="694.93" y="45.34" text-anchor="end">Robert Schumann</text>
</g>
<g transform="scale(0.525)" stroke-width="0.70" font-family="Times" font-size="14.00" font-style="italic">
<defs>
<ellipse id="hd" rx="4.1" ry="2.9"
	transform="rotate(-20)" fill="currentColor"/>
</defs>
<use x="122.76" y="94.16" xlink:href="#hd"/>
<path d="M126.26 94.16v-20.00" stroke="currentColor" fill="none"/>
</g>
<g transform="scale(0.750)" stroke-width="0.70" font-family="Times" font-size="15.00" font-weight="bold">
<text x="93.63" y="68.01">= 120</text>
<path stroke="currentColor" fill="none"
	d="M150.13 125.01v-24.00"/>
<path stroke="currentColor" fill="none"
	d="M244.33 125.01v-24.00"/>
<path stroke="currentColor" fill="none"
	d="M324.33 125.01v-24.00"/>
<path stroke="currentColor" fill="none"
	d="M406.83 125.01v-24.00"/>
<path stroke="currentColor" fill="none"
	d="M486.83 125.01v-24.00"/>
<path stroke="currentColor" fill="none"
	d="M569.33 125.01v-24.00"/>
<path stroke="currentColor" fill="none"
	d="M649.33 125.01v-24.00"/>
<path stroke="currentColor" fill="none"
	d="M13.33 125.01h681.60m-681.60 -6h681.60m-681.60 -6h681.60m-681.60 -6h681.60m-681.60 -6h681.60"/>
<defs>
<path id="utclef" fill="currentColor" d="m-50 -90
	c-72 -41 -72 -158 52 -188
	c150 -10 220 188 90 256
	c-114 52 -275 0 -293 -136
	c-15 -181 93 -229 220 -334
	c88 -87 79 -133 62 -210
	c-51 33 -94 105 -89 186
	c17 267 36 374 49 574
	c6 96 -19 134 -77 135
	c-80 1 -126 -93 -61 -133
	c85 -41 133 101 31 105
	c23 17 92 37 90 -92
	c-10 -223 -39 -342 -50 -617
	c0 -90 0 -162 96 -232
	c56 72 63 230 22 289
	c-74 106 -257 168 -255 316
	c9 153 148 185 252 133
	c86 -65 29 -192 -80 -176
	c-71 12 -105 67 -59 124"/>
<use id="tclef" transform="scale(0.045)"
	xlink:href="#utclef"/>
</defs>
<use x="25.33" y="125.01" xlink:href="#tclef"/>
<defs>
<path id="uflat" fill="currentColor" d="
	m100 -746
	h32
	v734
	l-32 4
	m32 -332
	c46 -72 152 -90 208 -20
	c100 110 -120 326 -208 348
	m0 -28
	c54 0 200 -206 130 -290
	c-50 -60 -130 -4 -130 34"/>
<use id="ft0" transform="translate(-3.5,3.5) scale(0.018)"
	xlink:href="#uflat"/>
</defs>
<use x="40.33" y="113.01" xlink:href="#ft0"/>
<use x="45.83" y="104.01" xlink:href="#ft0"/>
<use x="51.33" y="116.01" xlink:href="#ft0"/>
<g font-family="serif" font-size="16" font-weight="bold" font-style="normal"
	transform="translate(67.33,125.01) scale(1.2,1)">
	<text y="-1" text-anchor="middle">8</text>
	<text y="-13" text-anchor="middle">3</text>
</g>
<defs>
<path id="hl" stroke="currentColor" d="m-6 0h12"/>
</defs>
<use x="85.33" y="95.01" xlink:href="#hl"/>
<use x="85.33" y="92.01" xlink:href="#hd"/>
<path d="M81.83 92.01v21.00" stroke="currentColor" fill="none"/>
<path fill="currentColor"
	d="M81.83 113.01c0.6 -5.6 9.6 -9 5.6 -18.4
	c1.6 6 -1.3 11.6 -5.6 12.8
"/>
<use x="115.73" y="95.01" xlink:href="#hl"/>
<use x="115.73" y="89.01" xlink:href="#hl"/>
<use x="115.73" y="83.01" xlink:href="#hl"/>
<use x="115.73" y="83.01" xlink:href="#hd"/>
<path d="M112.23 83.01v30.00" stroke="currentColor" fill="none"/>
<path fill="currentColor"
	d="M161.43 113.21l55.40 0.00v-3.20l-55.40 -0.00"/>
<use x="165.33" y="95.01" xlink:href="#hl"/>
<use x="165.33" y="89.01" xlink:href="#hl"/>
<use x="165.33" y="83.01" xlink:href="#hl"/>
<use x="165.33" y="83.01" xlink:href="#hd"/>
<path d="M161.83 83.01v29.20" stroke="currentColor" fill="none"/>
<use x="192.63" y="95.01" xlink:href="#hl"/>
<use x="192.63" y="89.01" xlink:href="#hl"/>
<use x="192.63" y="89.01" xlink:href="#hd"/>
<path d="M189.13 89.01v23.20" stroke="currentColor" fill="none"/>
<use x="220.03" y="95.01" xlink:href="#hl"/>
<use x="220.03" y="89.01" xlink:href="#hl"/>
<use x="220.03" y="86.01" xlink:href="#hd"/>
<path d="M216.53 86.01v26.20" stroke="currentColor" fill="none"/>
<use x="259.53" y="95.01" xlink:href="#hl"/>
<use x="259.53" y="89.01" xlink:href="#hl"/>
<use x="259.53" y="83.01" xlink:href="#hl"/>
<use x="259.53" y="83.01" xlink:href="#hd"/>
<path d="M256.03 83.01v30.00" stroke="currentColor" fill="none"/>
<path fill="currentColor"
	d="M256.03 113.01c0.6 -5.6 9.6 -9 5.6 -18.4
	c1.6 6 -1.3 11.6 -5.6 12.8
"/>
<use x="289.93" y="95.01" xlink:href="#hl"/>
<use x="289.93" y="89.01" xlink:href="#hl"/>
<use x="289.93" y="83.01" xlink:href="#hl"/>
<use x="289.93" y="77.01" xlink:href="#hl"/>
<use x="289.93" y="77.01" xlink:href="#hd"/>
<path d="M286.43 77.01v36.00" stroke="currentColor" fill="none"/>
<use x="339.53" y="95.01" xlink:href="#hl"/>
<use x="339.53" y="89.01" xlink:href="#hl"/>
<use x="339.53" y="83.01" xlink:href="#hl"/>
<use x="339.53" y="80.01" xlink:href="#hd"/>
<path d="M336.03 80.01v33.00" stroke="currentColor" fill="none"/>
<use x="382.53" y="95.01" xlink:href="#hl"/>
<use x="382.53" y="89.01" xlink:href="#hl"/>
<use x="382.53" y="83.01" xlink:href="#hl"/>
<use x="382.53" y="77.01" xlink:href="#hl"/>
<use x="382.53" y="77.01" xlink:href="#hd"/>
<path d="M379.03 77.01v36.00" stroke="currentColor" fill="none"/>
<path fill="currentColor"
	d="M379.03 113.01c0.6 -5.6 9.6 -9 5.6 -18.4
	c1.6 6 -1.3 11.6 -5.6 12.8
"/>
<use x="422.03" y="95.01" xlink:href="#hl"/>
<use x="422.03" y="89.01" xlink:href="#hl"/>
<use x="422.03" y="83.01" xlink:href="#hl"/>
<use x="422.03" y="77.01" xlink:href="#hl"/>
<use x="422.03" y="74.01" xlink:href="#hd"/>
<path d="M418.53 74.01v39.00" stroke="currentColor" fill="none"/>
<path fill="currentColor"
	d="M418.53 113.01c0.6 -5.6 9.6 -9 5.6 -18.4
	c1.6 6 -1.3 11.6 -5.6 12.8
"/>
<use x="452.43" y="95.01" xlink:href="#hl"/>
<use x="452.43" y="89.01" xlink:href="#hl"/>
<use x="452.43" y="83.01" xlink:href="#hl"/>
<use x="452.43" y="77.01" xlink:href="#hl"/>
<use x="452.43" y="71.01" xlink:href="#hl"/>
<use x="452.43" y="68.01" xlink:href="#hd"/>
<path d="M448.93 68.01v45.00" stroke="currentColor" fill="none"/>
<use x="502.03" y="95.01" xlink:href="#hl"/>
<use x="502.03" y="89.01" xlink:href="#hl"/>
<use x="502.03" y="83.01" xlink:href="#hl"/>
<use x="502.03" y="77.01" xlink:href="#hl"/>
<use x="502.03" y="71.01" xlink:href="#hl"/>
<use x="502.03" y="71.01" xlink:href="#hd"/>
<path d="M498.53 71.01v42.00" stroke="currentColor" fill="none"/>
<use x="545.03" y="95.01" xlink:href="#hl"/>
<use x="545.03" y="89.01" xlink:href="#hl"/>
<use x="545.03" y="83.01" xlink:href="#hl"/>
<use x="545.03" y="83.01" xlink:href="#hd"/>
<path d="M541.53 83.01v30.00" stroke="currentColor" fill="none"/>
<path fill="currentColor"
	d="M541.53 113.01c0.6 -5.6 9.6 -9 5.6 -18.4
	c1.6 6 -1.3 11.6 -5.6 12.8
"/>
<use x="584.53" y="95.01" xlink:href="#hl"/>
<use x="584.53" y="89.01" xlink:href="#hl"/>
<use x="584.53" y="83.01" xlink:href="#hl"/>
<use x="584.53" y="80.01" xlink:href="#hd"/>
<path d="M581.03 80.01v33.00" stroke="currentColor" fill="none"/>
<path fill="currentColor"
	d="M581.03 113.01c0.6 -5.6 9.6 -9 5.6 -18.4
	c1.6 6 -1.3 11.6 -5.6 12.8
"/>
<use x="614.93" y="95.01" xlink:href="#hl"/>
<use x="614.93" y="89.01" xlink:href="#hl"/>
<use x="614.93" y="83.01" xlink:href="#hl"/>
<use x="614.93" y="80.01" xlink:href="#hd"/>
<path d="M611.43 80.01v33.00" stroke="currentColor" fill="none"/>
<use x="664.53" y="95.01" xlink:href="#hl"/>
<use x="664.53" y="89.01" xlink:href="#hl"/>
<use x="664.53" y="83.01" xlink:href="#hl"/>
<use x="664.53" y="80.01" xlink:href="#hd"/>
<path d="M661.03 80.01v33.00" stroke="currentColor" fill="none"/>
<path fill="currentColor"
	d="M661.03 113.01c0.6 -5.6 9.6 -9 5.6 -18.4
	c1.6 6 -1.3 11.6 -5.6 12.8
"/>
<path fill="currentColor"
	d="M119.23 83.01c6.66 -5.27 35.92 -5.27 42.58 -0.00
	l0.00 -0.24c-7.93 -7.02 -34.65 -7.02 -42.58 0.24"/>
<path fill="currentColor"
	d="M618.43 78.01c6.66 -5.27 35.92 -5.27 42.58 -0.00
	l0.00 -0.24c-7.93 -7.02 -34.65 -7.02 -42.58 0.24"/>
</g>
</svg>
