<?xml version="1.0" standalone="no"?>
<!DOCTYPE svg PUBLIC "-//W3C//DTD SVG 1.1//EN"
	"http://www.w3.org/Graphics/SVG/1.1/DTD/svg11.dtd">
<svg xmlns="http://www.w3.org/2000/svg" version="1.1"
	xmlns:xlink="http://www.w3.org/1999/xlink"
	xml:space='preserve' color="black"
	width="7.38in" height="1.34in" viewBox="0 0 531 97">
<title>6359.abc (6359) tune 1</title>
<!-- Creator: abcm2ps-7.8.14 -->
<!-- CreationDate: Mar 13, 2016 18:54 -->
<!-- CommandLine: -qxg 6359.abc -O ../svgs/6359.svg -->
<g transform="scale(0.750)" stroke-width="0.70" font-family="Times" font-size="20.00">
<text x="354.13" y="21.67" text-anchor="middle">6359.  Symphony No. 1 in B Flat, Op. 38, 4th. Mvt. - 3rd. Theme</text>
</g>
<g transform="scale(0.750)" stroke-width="0.70" font-family="Times" font-size="14.00" font-style="italic">
<text x="694.93" y="45.34" text-anchor="end">Robert Schumann</text>
</g>
<g transform="scale(0.525)" stroke-width="0.70" font-family="Times" font-size="14.00" font-style="italic">
<defs>
<ellipse id="hd" rx="4.1" ry="2.9"
	transform="rotate(-20)" fill="currentColor"/>
</defs>
<use x="123.47" y="94.16" xlink:href="#hd"/>
<path d="M126.97 94.16v-20.00" stroke="currentColor" fill="none"/>
</g>
<g transform="scale(0.750)" stroke-width="0.70" font-family="Times" font-size="15.00" font-weight="bold">
<text x="94.13" y="68.01">= 120</text>
<path stroke="currentColor" fill="none"
	d="M263.63 106.01v-24.00"/>
<path stroke="currentColor" fill="none"
	d="M389.23 106.01v-24.00"/>
<path stroke="currentColor" fill="none"
	d="M521.83 106.01v-24.00"/>
<path stroke="currentColor" fill="none"
	d="M647.43 106.01v-24.00"/>
<path stroke="currentColor" fill="none"
	d="M13.33 106.01h681.60m-681.60 -6h681.60m-681.60 -6h681.60m-681.60 -6h681.60m-681.60 -6h681.60"/>
<defs>
<path id="utclef" fill="currentColor" d="m-50 -90
	c-72 -41 -72 -158 52 -188
	c150 -10 220 188 90 256
	c-114 52 -275 0 -293 -136
	c-15 -181 93 -229 220 -334
	c88 -87 79 -133 62 -210
	c-51 33 -94 105 -89 186
	c17 267 36 374 49 574
	c6 96 -19 134 -77 135
	c-80 1 -126 -93 -61 -133
	c85 -41 133 101 31 105
	c23 17 92 37 90 -92
	c-10 -223 -39 -342 -50 -617
	c0 -90 0 -162 96 -232
	c56 72 63 230 22 289
	c-74 106 -257 168 -255 316
	c9 153 148 185 252 133
	c86 -65 29 -192 -80 -176
	c-71 12 -105 67 -59 124"/>
<use id="tclef" transform="scale(0.045)"
	xlink:href="#utclef"/>
</defs>
<use x="25.33" y="106.01" xlink:href="#tclef"/>
<defs>
<path id="uflat" fill="currentColor" d="
	m100 -746
	h32
	v734
	l-32 4
	m32 -332
	c46 -72 152 -90 208 -20
	c100 110 -120 326 -208 348
	m0 -28
	c54 0 200 -206 130 -290
	c-50 -60 -130 -4 -130 34"/>
<use id="ft0" transform="translate(-3.5,3.5) scale(0.018)"
	xlink:href="#uflat"/>
</defs>
<use x="40.33" y="94.01" xlink:href="#ft0"/>
<use x="45.83" y="85.01" xlink:href="#ft0"/>
<g font-family="serif" font-size="16" font-weight="bold" font-style="normal"
	transform="translate(61.83,106.01) scale(1.2,1)">
	<text y="-1" text-anchor="middle">2</text>
	<text y="-13" text-anchor="middle">2</text>
</g>
<use x="85.83" y="94.01" xlink:href="#hd"/>
<defs>
<path id="unat" fill="currentColor" d="
	m96 -750
	h-32
	v716
	l32 -8
	l182 -54
	v282
	h32
	v-706
	l-34 10
	l-180 50
	v-290
	m0 592
	v-190
	l182 -52
	v188"/>
<use id="nt0" transform="translate(-3,5) scale(0.018)"
	xlink:href="#unat"/>
</defs>
<use x="76.83" y="94.01" xlink:href="#nt0"/>
<path d="M82.33 94.01v20.00" stroke="currentColor" fill="none"/>
<path fill="currentColor"
	d="M82.33 114.01c0.6 -5.6 9.6 -9 5.6 -18.4
	c1.6 6 -1.3 11.6 -5.6 12.8
"/>
<use x="110.73" y="91.01" xlink:href="#hd"/>
<path d="M107.23 91.01v20.00" stroke="currentColor" fill="none"/>
<path fill="currentColor"
	d="M107.23 111.01c0.6 -5.6 9.6 -9 5.6 -18.4
	c1.6 6 -1.3 11.6 -5.6 12.8
"/>
<use x="135.63" y="88.01" xlink:href="#hd"/>
<path d="M132.13 88.01v20.00" stroke="currentColor" fill="none"/>
<path fill="currentColor"
	d="M132.13 108.01c0.6 -5.6 9.6 -9 5.6 -18.4
	c1.6 6 -1.3 11.6 -5.6 12.8
"/>
<use x="160.83" y="85.01" xlink:href="#hd"/>
<use x="151.83" y="85.01" xlink:href="#nt0"/>
<path d="M157.33 85.01v20.00" stroke="currentColor" fill="none"/>
<path fill="currentColor"
	d="M157.33 105.01c0.6 -5.6 9.6 -9 5.6 -18.4
	c1.6 6 -1.3 11.6 -5.6 12.8
"/>
<use x="185.73" y="82.01" xlink:href="#hd"/>
<path d="M182.23 82.01v20.00" stroke="currentColor" fill="none"/>
<path fill="currentColor"
	d="M182.23 102.01c0.6 -5.6 9.6 -9 5.6 -18.4
	c1.6 6 -1.3 11.6 -5.6 12.8
"/>
<use x="210.63" y="79.01" xlink:href="#hd"/>
<path d="M207.13 79.01v20.00" stroke="currentColor" fill="none"/>
<path fill="currentColor"
	d="M207.13 99.01c0.6 -5.6 9.6 -9 5.6 -18.4
	c1.6 6 -1.3 11.6 -5.6 12.8
"/>
<defs>
<path id="hl" stroke="currentColor" d="m-6 0h12"/>
</defs>
<use x="235.53" y="76.01" xlink:href="#hl"/>
<use x="235.53" y="76.01" xlink:href="#hd"/>
<path d="M232.03 76.01v20.00" stroke="currentColor" fill="none"/>
<use x="276.33" y="76.01" xlink:href="#hl"/>
<use x="276.33" y="76.01" xlink:href="#hd"/>
<path d="M272.83 76.01v20.00" stroke="currentColor" fill="none"/>
<defs>
<path id="Hd" fill="currentColor" d="m3 -1.6
	c-1 -1.8 -7 1.4 -6 3.2
	c1 1.8 7 -1.4 6 -3.2
	m0.5 -0.3
	c2 3.8 -5 7.6 -7 3.8
	c-2 -3.8 5 -7.6 7 -3.8"/>
</defs>
<use x="311.43" y="82.01" xlink:href="#Hd"/>
<path d="M307.93 82.01v20.00" stroke="currentColor" fill="none"/>
<use x="361.03" y="88.01" xlink:href="#hd"/>
<path d="M357.53 88.01v20.00" stroke="currentColor" fill="none"/>
<use x="408.73" y="85.01" xlink:href="#Hd"/>
<use x="398.73" y="85.01" xlink:href="#nt0"/>
<path d="M405.23 85.01v20.00" stroke="currentColor" fill="none"/>
<use x="458.33" y="82.01" xlink:href="#hd"/>
<path d="M454.83 82.01v20.00" stroke="currentColor" fill="none"/>
<use x="493.63" y="76.01" xlink:href="#hl"/>
<use x="493.63" y="73.01" xlink:href="#hd"/>
<use x="484.63" y="73.01" xlink:href="#ft0"/>
<path d="M490.13 73.01v21.00" stroke="currentColor" fill="none"/>
<use x="534.43" y="76.01" xlink:href="#hl"/>
<use x="534.43" y="73.01" xlink:href="#hd"/>
<path d="M530.93 73.01v21.00" stroke="currentColor" fill="none"/>
<use x="569.63" y="76.01" xlink:href="#hl"/>
<use x="569.63" y="76.01" xlink:href="#Hd"/>
<path d="M566.13 76.01v20.00" stroke="currentColor" fill="none"/>
<use x="619.23" y="79.01" xlink:href="#hd"/>
<path d="M615.73 79.01v20.00" stroke="currentColor" fill="none"/>
<use x="660.03" y="79.01" xlink:href="#hd"/>
<path d="M656.53 79.01v20.00" stroke="currentColor" fill="none"/>
<path fill="currentColor"
	d="M239.03 76.01c5.32 -5.11 28.48 -5.11 33.80 -0.00
	l0.00 -0.23c-6.34 -6.87 -27.47 -6.87 -33.80 0.23"/>
<path fill="currentColor"
	d="M497.13 71.01c5.32 -5.11 28.48 -5.11 33.80 -0.00
	l0.00 -0.23c-6.34 -6.87 -27.47 -6.87 -33.80 0.23"/>
<path fill="currentColor"
	d="M622.73 77.01c5.32 -5.11 28.48 -5.11 33.80 -0.00
	l0.00 -0.23c-6.34 -6.87 -27.47 -6.87 -33.80 0.23"/>
</g>
</svg>
