<?xml version="1.0" standalone="no"?>
<!DOCTYPE svg PUBLIC "-//W3C//DTD SVG 1.1//EN"
	"http://www.w3.org/Graphics/SVG/1.1/DTD/svg11.dtd">
<svg xmlns="http://www.w3.org/2000/svg" version="1.1"
	xmlns:xlink="http://www.w3.org/1999/xlink"
	xml:space='preserve' color="black"
	width="7.38in" height="1.45in" viewBox="0 0 531 104">
<title>6385.abc (6385) tune 1</title>
<!-- Creator: abcm2ps-7.8.14 -->
<!-- CreationDate: Mar 13, 2016 18:54 -->
<!-- CommandLine: -qxg 6385.abc -O ../svgs/6385.svg -->
<g transform="scale(0.750)" stroke-width="0.70" font-family="Times" font-size="20.00">
<text x="354.13" y="21.67" text-anchor="middle">6385.  Symphony No. 3 in E Flat, Op. 97, 5th. Mvt. - 3rd. Theme</text>
</g>
<g transform="scale(0.750)" stroke-width="0.70" font-family="Times" font-size="14.00" font-style="italic">
<text x="694.93" y="45.34" text-anchor="end">Robert Schumann</text>
</g>
<g transform="scale(0.525)" stroke-width="0.70" font-family="Times" font-size="14.00" font-style="italic">
<defs>
<ellipse id="hd" rx="4.1" ry="2.9"
	transform="rotate(-20)" fill="currentColor"/>
</defs>
<use x="122.76" y="94.16" xlink:href="#hd"/>
<path d="M126.26 94.16v-20.00" stroke="currentColor" fill="none"/>
</g>
<g transform="scale(0.750)" stroke-width="0.70" font-family="Times" font-size="15.00" font-weight="bold">
<text x="93.63" y="68.01">= 120</text>
<path stroke="currentColor" fill="none"
	d="M169.23 116.01v-24.00"/>
<path stroke="currentColor" fill="none"
	d="M266.23 116.01v-24.00"/>
<path stroke="currentColor" fill="none"
	d="M418.63 116.01v-24.00"/>
<path stroke="currentColor" fill="none"
	d="M578.23 116.01v-24.00"/>
<path stroke="currentColor" fill="none"
	d="M13.33 116.01h681.60m-681.60 -6h681.60m-681.60 -6h681.60m-681.60 -6h681.60m-681.60 -6h681.60"/>
<defs>
<path id="utclef" fill="currentColor" d="m-50 -90
	c-72 -41 -72 -158 52 -188
	c150 -10 220 188 90 256
	c-114 52 -275 0 -293 -136
	c-15 -181 93 -229 220 -334
	c88 -87 79 -133 62 -210
	c-51 33 -94 105 -89 186
	c17 267 36 374 49 574
	c6 96 -19 134 -77 135
	c-80 1 -126 -93 -61 -133
	c85 -41 133 101 31 105
	c23 17 92 37 90 -92
	c-10 -223 -39 -342 -50 -617
	c0 -90 0 -162 96 -232
	c56 72 63 230 22 289
	c-74 106 -257 168 -255 316
	c9 153 148 185 252 133
	c86 -65 29 -192 -80 -176
	c-71 12 -105 67 -59 124"/>
<use id="tclef" transform="scale(0.045)"
	xlink:href="#utclef"/>
</defs>
<use x="25.33" y="116.01" xlink:href="#tclef"/>
<defs>
<path id="uflat" fill="currentColor" d="
	m100 -746
	h32
	v734
	l-32 4
	m32 -332
	c46 -72 152 -90 208 -20
	c100 110 -120 326 -208 348
	m0 -28
	c54 0 200 -206 130 -290
	c-50 -60 -130 -4 -130 34"/>
<use id="ft0" transform="translate(-3.5,3.5) scale(0.018)"
	xlink:href="#uflat"/>
</defs>
<use x="40.33" y="104.01" xlink:href="#ft0"/>
<use x="45.83" y="95.01" xlink:href="#ft0"/>
<use x="51.33" y="107.01" xlink:href="#ft0"/>
<g font-family="serif" font-size="16" font-weight="bold" font-style="normal"
	transform="translate(67.33,116.01) scale(1.2,1)">
	<text y="-1" text-anchor="middle">2</text>
	<text y="-13" text-anchor="middle">2</text>
</g>
<defs>
<path id="hl" stroke="currentColor" d="m-6 0h12"/>
</defs>
<use x="85.33" y="86.01" xlink:href="#hl"/>
<use x="85.33" y="80.01" xlink:href="#hl"/>
<use x="85.33" y="80.01" xlink:href="#hd"/>
<path d="M81.83 80.01v24.00" stroke="currentColor" fill="none"/>
<use x="121.93" y="86.01" xlink:href="#hl"/>
<defs>
<path id="Hd" fill="currentColor" d="m3 -1.6
	c-1 -1.8 -7 1.4 -6 3.2
	c1 1.8 7 -1.4 6 -3.2
	m0.5 -0.3
	c2 3.8 -5 7.6 -7 3.8
	c-2 -3.8 5 -7.6 7 -3.8"/>
</defs>
<use x="121.93" y="83.01" xlink:href="#Hd"/>
<circle fill="currentColor" cx="130.93" cy="83.01" r="1.2"/>
<path d="M118.43 83.01v21.00" stroke="currentColor" fill="none"/>
<use x="182.33" y="86.01" xlink:href="#hl"/>
<use x="182.33" y="80.01" xlink:href="#hl"/>
<use x="182.33" y="80.01" xlink:href="#hd"/>
<path d="M178.83 80.01v24.00" stroke="currentColor" fill="none"/>
<use x="219.03" y="86.01" xlink:href="#hl"/>
<use x="219.03" y="83.01" xlink:href="#Hd"/>
<circle fill="currentColor" cx="228.03" cy="83.01" r="1.2"/>
<path d="M215.53 83.01v21.00" stroke="currentColor" fill="none"/>
<use x="279.33" y="86.01" xlink:href="#hl"/>
<use x="279.33" y="80.01" xlink:href="#hl"/>
<use x="279.33" y="80.01" xlink:href="#hd"/>
<path d="M275.83 80.01v24.00" stroke="currentColor" fill="none"/>
<use x="316.03" y="86.01" xlink:href="#hl"/>
<use x="316.03" y="83.01" xlink:href="#hd"/>
<path d="M312.53 83.01v21.00" stroke="currentColor" fill="none"/>
<use x="352.63" y="86.01" xlink:href="#hl"/>
<use x="352.63" y="80.01" xlink:href="#hl"/>
<use x="352.63" y="74.01" xlink:href="#hl"/>
<use x="352.63" y="74.01" xlink:href="#hd"/>
<path d="M349.13 74.01v30.00" stroke="currentColor" fill="none"/>
<use x="389.33" y="86.01" xlink:href="#hl"/>
<use x="389.33" y="80.01" xlink:href="#hl"/>
<use x="389.33" y="77.01" xlink:href="#hd"/>
<path d="M385.83 77.01v27.00" stroke="currentColor" fill="none"/>
<use x="431.73" y="86.01" xlink:href="#hl"/>
<use x="431.73" y="80.01" xlink:href="#hl"/>
<use x="431.73" y="74.01" xlink:href="#hl"/>
<use x="431.73" y="68.01" xlink:href="#hl"/>
<use x="431.73" y="65.01" xlink:href="#hd"/>
<path d="M428.23 65.01v39.00" stroke="currentColor" fill="none"/>
<use x="468.33" y="86.01" xlink:href="#hl"/>
<use x="468.33" y="80.01" xlink:href="#hl"/>
<use x="468.33" y="74.01" xlink:href="#hl"/>
<use x="468.33" y="68.01" xlink:href="#hl"/>
<use x="468.33" y="68.01" xlink:href="#hd"/>
<path d="M464.83 68.01v36.00" stroke="currentColor" fill="none"/>
<use x="505.03" y="86.01" xlink:href="#hl"/>
<use x="505.03" y="80.01" xlink:href="#hl"/>
<use x="505.03" y="74.01" xlink:href="#hl"/>
<use x="505.03" y="68.01" xlink:href="#hl"/>
<use x="505.03" y="62.01" xlink:href="#hl"/>
<use x="505.03" y="62.01" xlink:href="#hd"/>
<circle fill="currentColor" cx="513.03" cy="59.01" r="1.2"/>
<path d="M501.53 62.01v42.00" stroke="currentColor" fill="none"/>
<path fill="currentColor"
	d="M543.13 104.21l17.30 0.00v-3.20l-17.30 -0.00"/>
<path fill="currentColor"
	d="M543.43 99.21l16.60 0.00v-3.20l-16.60 -0.00"/>
<use x="546.93" y="86.01" xlink:href="#hl"/>
<use x="546.93" y="80.01" xlink:href="#hl"/>
<use x="546.93" y="74.01" xlink:href="#hl"/>
<use x="546.93" y="68.01" xlink:href="#hl"/>
<use x="546.93" y="62.01" xlink:href="#hl"/>
<use x="546.93" y="62.01" xlink:href="#hd"/>
<path d="M543.43 62.01v41.20" stroke="currentColor" fill="none"/>
<use x="563.53" y="86.01" xlink:href="#hl"/>
<use x="563.53" y="80.01" xlink:href="#hl"/>
<use x="563.53" y="74.01" xlink:href="#hl"/>
<use x="563.53" y="68.01" xlink:href="#hl"/>
<use x="563.53" y="68.01" xlink:href="#hd"/>
<path d="M560.03 68.01v35.20" stroke="currentColor" fill="none"/>
<use x="591.33" y="86.01" xlink:href="#hl"/>
<use x="591.33" y="80.01" xlink:href="#hl"/>
<use x="591.33" y="74.01" xlink:href="#hl"/>
<use x="591.33" y="74.01" xlink:href="#hd"/>
<path d="M587.83 74.01v30.00" stroke="currentColor" fill="none"/>
<path fill="currentColor"
	d="M587.83 104.01c0.6 -5.6 9.6 -9 5.6 -18.4
	c1.6 6 -1.3 11.6 -5.6 12.8
"/>
<use x="617.33" y="86.01" xlink:href="#hl"/>
<use x="617.33" y="80.01" xlink:href="#hl"/>
<use x="617.33" y="80.01" xlink:href="#hd"/>
<path d="M613.83 80.01v24.00" stroke="currentColor" fill="none"/>
<path fill="currentColor"
	d="M613.83 104.01c0.6 -5.6 9.6 -9 5.6 -18.4
	c1.6 6 -1.3 11.6 -5.6 12.8
"/>
<use x="643.33" y="86.01" xlink:href="#hl"/>
<use x="643.33" y="83.01" xlink:href="#Hd"/>
<path d="M639.83 83.01v21.00" stroke="currentColor" fill="none"/>
<path fill="currentColor"
	d="M508.53 56.01c5.50 -5.13 29.42 -5.13 34.92 -0.00
	l0.00 -0.23c-6.55 -6.89 -28.37 -6.89 -34.92 0.23"/>
</g>
</svg>
