<?xml version="1.0" standalone="no"?>
<!DOCTYPE svg PUBLIC "-//W3C//DTD SVG 1.1//EN"
	"http://www.w3.org/Graphics/SVG/1.1/DTD/svg11.dtd">
<svg xmlns="http://www.w3.org/2000/svg" version="1.1"
	xmlns:xlink="http://www.w3.org/1999/xlink"
	xml:space='preserve' color="black"
	width="7.38in" height="1.55in" viewBox="0 0 531 112">
<title>6427.abc (6427) tune 1</title>
<!-- Creator: abcm2ps-7.8.14 -->
<!-- CreationDate: Mar 13, 2016 18:54 -->
<!-- CommandLine: -qxg 6427.abc -O ../svgs/6427.svg -->
<g transform="scale(0.750)" stroke-width="0.70" font-family="Times" font-size="20.00">
<text x="354.13" y="21.67" text-anchor="middle">6427.  Preludes, Op. 9, No. 10</text>
</g>
<g transform="scale(0.750)" stroke-width="0.70" font-family="Times" font-size="14.00" font-style="italic">
<text x="694.93" y="45.34" text-anchor="end">Alexander Scriabin</text>
</g>
<g transform="scale(0.525)" stroke-width="0.70" font-family="Times" font-size="14.00" font-style="italic">
<defs>
<ellipse id="hd" rx="4.1" ry="2.9"
	transform="rotate(-20)" fill="currentColor"/>
</defs>
<use x="130.61" y="94.16" xlink:href="#hd"/>
<path d="M134.11 94.16v-20.00" stroke="currentColor" fill="none"/>
</g>
<g transform="scale(0.750)" stroke-width="0.70" font-family="Times" font-size="15.00" font-weight="bold">
<text x="99.13" y="68.01">= 120</text>
<path stroke="currentColor" fill="none"
	d="M221.83 126.01v-24.00"/>
<path stroke="currentColor" fill="none"
	d="M366.13 126.01v-24.00"/>
<path stroke="currentColor" fill="none"
	d="M509.43 126.01v-24.00"/>
<path stroke="currentColor" fill="none"
	d="M653.23 126.01v-24.00"/>
<path stroke="currentColor" fill="none"
	d="M13.33 126.01h681.60m-681.60 -6h681.60m-681.60 -6h681.60m-681.60 -6h681.60m-681.60 -6h681.60"/>
<defs>
<path id="utclef" fill="currentColor" d="m-50 -90
	c-72 -41 -72 -158 52 -188
	c150 -10 220 188 90 256
	c-114 52 -275 0 -293 -136
	c-15 -181 93 -229 220 -334
	c88 -87 79 -133 62 -210
	c-51 33 -94 105 -89 186
	c17 267 36 374 49 574
	c6 96 -19 134 -77 135
	c-80 1 -126 -93 -61 -133
	c85 -41 133 101 31 105
	c23 17 92 37 90 -92
	c-10 -223 -39 -342 -50 -617
	c0 -90 0 -162 96 -232
	c56 72 63 230 22 289
	c-74 106 -257 168 -255 316
	c9 153 148 185 252 133
	c86 -65 29 -192 -80 -176
	c-71 12 -105 67 -59 124"/>
<use id="tclef" transform="scale(0.045)"
	xlink:href="#utclef"/>
</defs>
<use x="25.33" y="126.01" xlink:href="#tclef"/>
<defs>
<path id="usharp" fill="currentColor" d="
	m136 -702
	v890
	h32
	v-890
	m128 840
	h32
	v-888
	h-32
	m-232 286
	v116
	l338 -96
	v-116
	m-338 442
	v116
	l338 -98
	v-114"/>
<use id="sh0" transform="translate(-4,5) scale(0.018)"
	xlink:href="#usharp"/>
</defs>
<use x="40.33" y="102.01" xlink:href="#sh0"/>
<use x="45.83" y="111.01" xlink:href="#sh0"/>
<use x="51.33" y="99.01" xlink:href="#sh0"/>
<use x="56.83" y="108.01" xlink:href="#sh0"/>
<g font-family="serif" font-size="16" font-weight="bold" font-style="normal"
	transform="translate(72.83,126.01) scale(1.2,1)">
	<text y="-1" text-anchor="middle">8</text>
	<text y="-13" text-anchor="middle">6</text>
</g>
<defs>
<path id="r8e" fill="currentColor" d="m 0 0
	c-1.5 1.5 -2.4 2 -3.6 2
	c2.4 -2.8 -2.8 -4 -2.8 -1.2
	c0 2.7 4.3 2.4 5.9 0.6"/>
<g id="r8">
	<path d="m3.3 -4l-3.4 9.6" stroke="currentColor" fill="none"/>
	<use x="3.4" y="-4" xlink:href="#r8e"/>
</g>
</defs>
<use x="90.83" y="114.01" xlink:href="#r8"/>
<path fill="currentColor"
	d="M110.63 114.21l22.10 0.00v-3.20l-22.10 -0.00"/>
<defs>
<path id="hl" stroke="currentColor" d="m-6 0h12"/>
</defs>
<use x="114.53" y="96.01" xlink:href="#hl"/>
<use x="114.53" y="90.01" xlink:href="#hl"/>
<use x="114.53" y="84.01" xlink:href="#hl"/>
<use x="114.53" y="78.01" xlink:href="#hl"/>
<use x="114.53" y="78.01" xlink:href="#hd"/>
<path d="M111.03 78.01v35.20" stroke="currentColor" fill="none"/>
<use x="135.93" y="96.01" xlink:href="#hl"/>
<use x="135.93" y="90.01" xlink:href="#hl"/>
<use x="135.93" y="84.01" xlink:href="#hl"/>
<use x="135.93" y="84.01" xlink:href="#hd"/>
<path d="M132.43 84.01v29.20" stroke="currentColor" fill="none"/>
<path fill="currentColor"
	d="M156.13 114.21l22.10 0.00v-3.20l-22.10 -0.00"/>
<use x="160.03" y="96.01" xlink:href="#hl"/>
<use x="160.03" y="90.01" xlink:href="#hl"/>
<use x="160.03" y="84.01" xlink:href="#hl"/>
<use x="160.03" y="78.01" xlink:href="#hl"/>
<use x="160.03" y="78.01" xlink:href="#hd"/>
<defs>
<path id="unat" fill="currentColor" d="
	m96 -750
	h-32
	v716
	l32 -8
	l182 -54
	v282
	h32
	v-706
	l-34 10
	l-180 50
	v-290
	m0 592
	v-190
	l182 -52
	v188"/>
<use id="nt0" transform="translate(-3,5) scale(0.018)"
	xlink:href="#unat"/>
</defs>
<use x="151.03" y="78.01" xlink:href="#nt0"/>
<path d="M156.53 78.01v35.20" stroke="currentColor" fill="none"/>
<use x="181.43" y="96.01" xlink:href="#hl"/>
<use x="181.43" y="90.01" xlink:href="#hl"/>
<use x="181.43" y="87.01" xlink:href="#hd"/>
<path d="M177.93 87.01v26.20" stroke="currentColor" fill="none"/>
<use x="202.73" y="114.01" xlink:href="#r8"/>
<use x="234.33" y="114.01" xlink:href="#r8"/>
<path fill="currentColor"
	d="M254.13 114.21l22.10 0.00v-3.20l-22.10 -0.00"/>
<use x="257.93" y="96.01" xlink:href="#hl"/>
<use x="257.93" y="90.01" xlink:href="#hl"/>
<use x="257.93" y="84.01" xlink:href="#hl"/>
<use x="257.93" y="84.01" xlink:href="#hd"/>
<path d="M254.43 84.01v29.20" stroke="currentColor" fill="none"/>
<use x="279.33" y="96.01" xlink:href="#hl"/>
<use x="279.33" y="90.01" xlink:href="#hl"/>
<use x="279.33" y="90.01" xlink:href="#hd"/>
<path d="M275.83 90.01v23.20" stroke="currentColor" fill="none"/>
<path fill="currentColor"
	d="M299.63 116.91l44.30 0.00v-3.20l-44.30 -0.00"/>
<use x="303.53" y="96.01" xlink:href="#hl"/>
<use x="303.53" y="96.01" xlink:href="#hd"/>
<use x="294.53" y="96.01" xlink:href="#sh0"/>
<path d="M300.03 96.01v20.00" stroke="currentColor" fill="none"/>
<use x="325.33" y="99.01" xlink:href="#hd"/>
<use x="316.33" y="99.01" xlink:href="#sh0"/>
<path d="M321.83 99.01v17.00" stroke="currentColor" fill="none"/>
<use x="347.03" y="96.01" xlink:href="#hl"/>
<use x="347.03" y="96.01" xlink:href="#hd"/>
<use x="338.03" y="96.01" xlink:href="#sh0"/>
<path d="M343.53 96.01v20.00" stroke="currentColor" fill="none"/>
<use x="378.63" y="114.01" xlink:href="#r8"/>
<path fill="currentColor"
	d="M398.43 114.71l22.00 3.50v-3.20l-22.00 -3.50"/>
<use x="402.23" y="96.01" xlink:href="#hl"/>
<use x="402.23" y="93.01" xlink:href="#hd"/>
<path d="M398.73 93.01v20.80" stroke="currentColor" fill="none"/>
<use x="423.63" y="99.01" xlink:href="#hd"/>
<path d="M420.13 99.01v18.20" stroke="currentColor" fill="none"/>
<use x="444.93" y="114.01" xlink:href="#r8"/>
<path fill="currentColor"
	d="M465.23 117.31l22.00 4.00v-3.20l-22.00 -4.00"/>
<use x="469.03" y="96.01" xlink:href="#hl"/>
<use x="469.03" y="96.01" xlink:href="#hd"/>
<use x="460.03" y="96.01" xlink:href="#nt0"/>
<path d="M465.53 96.01v20.40" stroke="currentColor" fill="none"/>
<use x="490.43" y="102.01" xlink:href="#hd"/>
<path d="M486.93 102.01v18.20" stroke="currentColor" fill="none"/>
<use x="521.93" y="114.01" xlink:href="#r8"/>
<path fill="currentColor"
	d="M541.73 124.51l22.00 5.80v-3.20l-22.00 -5.80"/>
<use x="545.63" y="99.01" xlink:href="#hd"/>
<path d="M542.13 99.01v24.60" stroke="currentColor" fill="none"/>
<use x="566.93" y="111.01" xlink:href="#hd"/>
<path d="M563.43 111.01v18.20" stroke="currentColor" fill="none"/>
<path fill="currentColor"
	d="M586.73 131.51l44.30 -2.70v-3.20l-44.30 2.70"/>
<use x="590.63" y="99.01" xlink:href="#hd"/>
<path d="M587.13 99.01v31.50" stroke="currentColor" fill="none"/>
<use x="612.43" y="111.01" xlink:href="#hd"/>
<use x="603.43" y="111.01" xlink:href="#nt0"/>
<path d="M608.93 111.01v18.20" stroke="currentColor" fill="none"/>
<use x="634.23" y="96.01" xlink:href="#hl"/>
<use x="634.23" y="90.01" xlink:href="#hl"/>
<use x="634.23" y="90.01" xlink:href="#hd"/>
<use x="625.23" y="90.01" xlink:href="#nt0"/>
<path d="M630.73 90.01v37.90" stroke="currentColor" fill="none"/>
<use x="671.73" y="96.01" xlink:href="#hl"/>
<use x="671.73" y="90.01" xlink:href="#hl"/>
<use x="671.73" y="90.01" xlink:href="#hd"/>
<use x="662.73" y="90.01" xlink:href="#sh0"/>
<path d="M668.23 90.01v24.00" stroke="currentColor" fill="none"/>
<path fill="currentColor"
	d="M668.23 114.01c0.6 -5.6 9.6 -9 5.6 -18.4
	c1.6 6 -1.3 11.6 -5.6 12.8
"/>
</g>
</svg>
