<?xml version="1.0" standalone="no"?>
<!DOCTYPE svg PUBLIC "-//W3C//DTD SVG 1.1//EN"
	"http://www.w3.org/Graphics/SVG/1.1/DTD/svg11.dtd">
<svg xmlns="http://www.w3.org/2000/svg" version="1.1"
	xmlns:xlink="http://www.w3.org/1999/xlink"
	xml:space='preserve' color="black"
	width="7.38in" height="1.46in" viewBox="0 0 531 105">
<title>6440.abc (6440) tune 1</title>
<!-- Creator: abcm2ps-7.8.14 -->
<!-- CreationDate: Mar 13, 2016 18:54 -->
<!-- CommandLine: -qxg 6440.abc -O ../svgs/6440.svg -->
<g transform="scale(0.750)" stroke-width="0.70" font-family="Times" font-size="20.00">
<text x="354.13" y="21.67" text-anchor="middle">6440.  Vecchio Minuetto, Op. 18</text>
</g>
<g transform="scale(0.750)" stroke-width="0.70" font-family="Times" font-size="14.00" font-style="italic">
<text x="694.93" y="45.34" text-anchor="end">Giovanni Sgambati</text>
</g>
<g transform="scale(0.525)" stroke-width="0.70" font-family="Times" font-size="14.00" font-style="italic">
<defs>
<ellipse id="hd" rx="4.1" ry="2.9"
	transform="rotate(-20)" fill="currentColor"/>
</defs>
<use x="138.47" y="94.16" xlink:href="#hd"/>
<path d="M141.97 94.16v-20.00" stroke="currentColor" fill="none"/>
</g>
<g transform="scale(0.750)" stroke-width="0.70" font-family="Times" font-size="15.00" font-weight="bold">
<text x="104.63" y="68.01">= 120</text>
<path stroke="currentColor" fill="none"
	d="M221.33 117.01v-24.00"/>
<path stroke="currentColor" fill="none"
	d="M403.73 117.01v-24.00"/>
<path stroke="currentColor" fill="none"
	d="M528.93 117.01v-24.00"/>
<path stroke="currentColor" fill="none"
	d="M13.33 117.01h681.60m-681.60 -6h681.60m-681.60 -6h681.60m-681.60 -6h681.60m-681.60 -6h681.60"/>
<defs>
<path id="utclef" fill="currentColor" d="m-50 -90
	c-72 -41 -72 -158 52 -188
	c150 -10 220 188 90 256
	c-114 52 -275 0 -293 -136
	c-15 -181 93 -229 220 -334
	c88 -87 79 -133 62 -210
	c-51 33 -94 105 -89 186
	c17 267 36 374 49 574
	c6 96 -19 134 -77 135
	c-80 1 -126 -93 -61 -133
	c85 -41 133 101 31 105
	c23 17 92 37 90 -92
	c-10 -223 -39 -342 -50 -617
	c0 -90 0 -162 96 -232
	c56 72 63 230 22 289
	c-74 106 -257 168 -255 316
	c9 153 148 185 252 133
	c86 -65 29 -192 -80 -176
	c-71 12 -105 67 -59 124"/>
<use id="tclef" transform="scale(0.045)"
	xlink:href="#utclef"/>
</defs>
<use x="25.33" y="117.01" xlink:href="#tclef"/>
<defs>
<path id="uflat" fill="currentColor" d="
	m100 -746
	h32
	v734
	l-32 4
	m32 -332
	c46 -72 152 -90 208 -20
	c100 110 -120 326 -208 348
	m0 -28
	c54 0 200 -206 130 -290
	c-50 -60 -130 -4 -130 34"/>
<use id="ft0" transform="translate(-3.5,3.5) scale(0.018)"
	xlink:href="#uflat"/>
</defs>
<use x="40.33" y="105.01" xlink:href="#ft0"/>
<use x="45.83" y="96.01" xlink:href="#ft0"/>
<use x="51.33" y="108.01" xlink:href="#ft0"/>
<use x="56.83" y="99.01" xlink:href="#ft0"/>
<use x="62.33" y="111.01" xlink:href="#ft0"/>
<g font-family="serif" font-size="16" font-weight="bold" font-style="normal"
	transform="translate(78.33,117.01) scale(1.2,1)">
	<text y="-1" text-anchor="middle">4</text>
	<text y="-13" text-anchor="middle">3</text>
</g>
<defs>
<path id="hl" stroke="currentColor" d="m-6 0h12"/>
</defs>
<use x="96.33" y="87.01" xlink:href="#hl"/>
<use x="96.33" y="87.01" xlink:href="#hd"/>
<circle fill="currentColor" cx="104.33" cy="84.01" r="1.2"/>
<path d="M92.83 87.01v20.00" stroke="currentColor" fill="none"/>
<path fill="currentColor"
	d="M92.83 107.01c0.6 -5.6 9.6 -9 5.6 -18.4
	c1.6 6 -1.3 11.6 -5.6 12.8
"/>
<path fill="currentColor"
	d="M114.73 109.31l13.30 -2.60v-3.20l-13.30 2.60"/>
<path fill="currentColor"
	d="M121.03 103.01l-6.00 1.20v-3.20l6.00 -1.20"/>
<use x="118.53" y="87.01" xlink:href="#hl"/>
<use x="118.53" y="87.01" xlink:href="#hd"/>
<path d="M115.03 87.01v21.20" stroke="currentColor" fill="none"/>
<use x="131.13" y="87.01" xlink:href="#hl"/>
<use x="131.13" y="81.01" xlink:href="#hl"/>
<use x="131.13" y="78.01" xlink:href="#hd"/>
<path d="M127.63 78.01v27.80" stroke="currentColor" fill="none"/>
<path fill="currentColor"
	d="M144.83 105.21l58.90 0.00v-3.20l-58.90 -0.00"/>
<path fill="currentColor"
	d="M145.23 100.21l31.50 0.00v-3.20l-31.50 -0.00"/>
<path fill="currentColor"
	d="M145.23 95.21l31.50 0.00v-3.20l-31.50 -0.00"/>
<use x="148.73" y="87.01" xlink:href="#hl"/>
<use x="148.73" y="81.01" xlink:href="#hl"/>
<use x="148.73" y="75.01" xlink:href="#hl"/>
<use x="148.73" y="75.01" xlink:href="#hd"/>
<path d="M145.23 75.01v29.20" stroke="currentColor" fill="none"/>
<use x="159.23" y="87.01" xlink:href="#hl"/>
<use x="159.23" y="81.01" xlink:href="#hl"/>
<use x="159.23" y="78.01" xlink:href="#hd"/>
<path d="M155.73 78.01v26.20" stroke="currentColor" fill="none"/>
<use x="169.73" y="87.01" xlink:href="#hl"/>
<use x="169.73" y="81.01" xlink:href="#hl"/>
<use x="169.73" y="75.01" xlink:href="#hl"/>
<use x="169.73" y="75.01" xlink:href="#hd"/>
<path d="M166.23 75.01v29.20" stroke="currentColor" fill="none"/>
<use x="180.23" y="87.01" xlink:href="#hl"/>
<use x="180.23" y="81.01" xlink:href="#hl"/>
<use x="180.23" y="78.01" xlink:href="#hd"/>
<path d="M176.73 78.01v26.20" stroke="currentColor" fill="none"/>
<use x="190.73" y="87.01" xlink:href="#hl"/>
<use x="190.73" y="81.01" xlink:href="#hl"/>
<use x="190.73" y="81.01" xlink:href="#hd"/>
<path d="M187.23 81.01v23.20" stroke="currentColor" fill="none"/>
<use x="206.83" y="87.01" xlink:href="#hl"/>
<use x="206.83" y="81.01" xlink:href="#hl"/>
<use x="206.83" y="78.01" xlink:href="#hd"/>
<path d="M203.33 78.01v26.20" stroke="currentColor" fill="none"/>
<path fill="currentColor"
	d="M229.93 105.21l64.10 0.00v-3.20l-64.10 -0.00"/>
<path fill="currentColor"
	d="M262.63 100.21l31.10 0.00v-3.20l-31.10 -0.00"/>
<path fill="currentColor"
	d="M275.23 95.21l18.50 0.00v-3.20l-18.50 -0.00"/>
<use x="233.83" y="87.01" xlink:href="#hl"/>
<use x="233.83" y="81.01" xlink:href="#hl"/>
<use x="233.83" y="75.01" xlink:href="#hl"/>
<use x="233.83" y="75.01" xlink:href="#hd"/>
<path d="M230.33 75.01v29.20" stroke="currentColor" fill="none"/>
<use x="249.93" y="87.01" xlink:href="#hl"/>
<use x="249.93" y="81.01" xlink:href="#hl"/>
<use x="249.93" y="75.01" xlink:href="#hl"/>
<use x="249.93" y="72.01" xlink:href="#hd"/>
<path d="M246.43 72.01v32.20" stroke="currentColor" fill="none"/>
<use x="266.13" y="87.01" xlink:href="#hl"/>
<use x="266.13" y="81.01" xlink:href="#hl"/>
<use x="266.13" y="75.01" xlink:href="#hl"/>
<use x="266.13" y="72.01" xlink:href="#hd"/>
<path d="M262.63 72.01v32.20" stroke="currentColor" fill="none"/>
<use x="278.73" y="87.01" xlink:href="#hl"/>
<use x="278.73" y="81.01" xlink:href="#hl"/>
<use x="278.73" y="75.01" xlink:href="#hl"/>
<use x="278.73" y="69.01" xlink:href="#hl"/>
<use x="278.73" y="69.01" xlink:href="#hd"/>
<path d="M275.23 69.01v35.20" stroke="currentColor" fill="none"/>
<use x="297.23" y="87.01" xlink:href="#hl"/>
<use x="297.23" y="81.01" xlink:href="#hl"/>
<use x="297.23" y="75.01" xlink:href="#hl"/>
<use x="297.23" y="69.01" xlink:href="#hl"/>
<use x="297.23" y="69.01" xlink:href="#hd"/>
<path d="M293.73 69.01v35.20" stroke="currentColor" fill="none"/>
<use x="290.23" y="72.01" xlink:href="#hd"/>
<path fill="currentColor"
	d="M311.93 105.21l58.70 0.00v-3.20l-58.70 -0.00"/>
<path fill="currentColor"
	d="M312.23 100.21l47.50 0.00v-3.20l-47.50 -0.00"/>
<path fill="currentColor"
	d="M312.23 95.21l47.50 0.00v-3.20l-47.50 -0.00"/>
<use x="315.73" y="87.01" xlink:href="#hl"/>
<use x="315.73" y="81.01" xlink:href="#hl"/>
<use x="315.73" y="75.01" xlink:href="#hl"/>
<use x="315.73" y="72.01" xlink:href="#hd"/>
<path d="M312.23 72.01v32.20" stroke="currentColor" fill="none"/>
<use x="326.23" y="87.01" xlink:href="#hl"/>
<use x="326.23" y="81.01" xlink:href="#hl"/>
<use x="326.23" y="75.01" xlink:href="#hl"/>
<use x="326.23" y="75.01" xlink:href="#hd"/>
<path d="M322.73 75.01v29.20" stroke="currentColor" fill="none"/>
<use x="344.73" y="87.01" xlink:href="#hl"/>
<use x="344.73" y="81.01" xlink:href="#hl"/>
<use x="344.73" y="75.01" xlink:href="#hl"/>
<use x="344.73" y="75.01" xlink:href="#hd"/>
<path d="M341.23 75.01v29.20" stroke="currentColor" fill="none"/>
<use x="337.73" y="78.01" xlink:href="#hd"/>
<use x="363.23" y="87.01" xlink:href="#hl"/>
<use x="363.23" y="81.01" xlink:href="#hl"/>
<use x="363.23" y="78.01" xlink:href="#hd"/>
<path d="M359.73 78.01v26.20" stroke="currentColor" fill="none"/>
<use x="373.73" y="87.01" xlink:href="#hl"/>
<use x="373.73" y="81.01" xlink:href="#hl"/>
<use x="373.73" y="75.01" xlink:href="#hl"/>
<use x="373.73" y="75.01" xlink:href="#hd"/>
<path d="M370.23 75.01v29.20" stroke="currentColor" fill="none"/>
<defs>
<path id="r8e" fill="currentColor" d="m 0 0
	c-1.5 1.5 -2.4 2 -3.6 2
	c2.4 -2.8 -2.8 -4 -2.8 -1.2
	c0 2.7 4.3 2.4 5.9 0.6"/>
<g id="r8">
	<path d="m3.3 -4l-3.4 9.6" stroke="currentColor" fill="none"/>
	<use x="3.4" y="-4" xlink:href="#r8e"/>
</g>
</defs>
<use x="389.33" y="105.01" xlink:href="#r8"/>
<defs>
<path id="r4" fill="currentColor" d="m-1 -8.5
	l3.6 5.1 -2.1 5.2 2.2 4.3
	c-2.6 -2.3 -5.1 0 -2.4 2.6
	c-4.8 -3 -1.5 -6.9 1.4 -4.1
	l-3.1 -4.5 1.9 -5.1 -1.5 -3.5"/>
</defs>
<use x="416.23" y="105.01" xlink:href="#r4"/>
<use x="438.83" y="87.01" xlink:href="#hl"/>
<use x="438.83" y="81.01" xlink:href="#hl"/>
<use x="438.83" y="75.01" xlink:href="#hl"/>
<use x="438.83" y="75.01" xlink:href="#hd"/>
<path d="M435.33 75.01v30.00" stroke="currentColor" fill="none"/>
<path fill="currentColor"
	d="M435.33 105.01c0.6 -5.6 9.6 -9 5.6 -18.4
	c1.6 6 -1.3 11.6 -5.6 12.8
"/>
<path fill="currentColor"
	d="M452.53 105.21l58.90 0.00v-3.20l-58.90 -0.00"/>
<path fill="currentColor"
	d="M452.83 100.21l31.50 0.00v-3.20l-31.50 -0.00"/>
<path fill="currentColor"
	d="M452.83 95.21l31.50 0.00v-3.20l-31.50 -0.00"/>
<use x="456.33" y="87.01" xlink:href="#hl"/>
<use x="456.33" y="81.01" xlink:href="#hl"/>
<use x="456.33" y="75.01" xlink:href="#hl"/>
<use x="456.33" y="72.01" xlink:href="#hd"/>
<path d="M452.83 72.01v32.20" stroke="currentColor" fill="none"/>
<use x="466.83" y="87.01" xlink:href="#hl"/>
<use x="466.83" y="81.01" xlink:href="#hl"/>
<use x="466.83" y="75.01" xlink:href="#hl"/>
<use x="466.83" y="75.01" xlink:href="#hd"/>
<path d="M463.33 75.01v29.20" stroke="currentColor" fill="none"/>
<use x="477.33" y="87.01" xlink:href="#hl"/>
<use x="477.33" y="81.01" xlink:href="#hl"/>
<use x="477.33" y="75.01" xlink:href="#hl"/>
<use x="477.33" y="72.01" xlink:href="#hd"/>
<path d="M473.83 72.01v32.20" stroke="currentColor" fill="none"/>
<use x="487.83" y="87.01" xlink:href="#hl"/>
<use x="487.83" y="81.01" xlink:href="#hl"/>
<use x="487.83" y="75.01" xlink:href="#hl"/>
<use x="487.83" y="75.01" xlink:href="#hd"/>
<path d="M484.33 75.01v29.20" stroke="currentColor" fill="none"/>
<use x="498.33" y="87.01" xlink:href="#hl"/>
<use x="498.33" y="81.01" xlink:href="#hl"/>
<use x="498.33" y="78.01" xlink:href="#hd"/>
<path d="M494.83 78.01v26.20" stroke="currentColor" fill="none"/>
<use x="514.53" y="87.01" xlink:href="#hl"/>
<use x="514.53" y="81.01" xlink:href="#hl"/>
<use x="514.53" y="75.01" xlink:href="#hl"/>
<use x="514.53" y="75.01" xlink:href="#hd"/>
<path d="M511.03 75.01v29.20" stroke="currentColor" fill="none"/>
<path fill="currentColor"
	d="M537.63 105.21l64.10 0.00v-3.20l-64.10 -0.00"/>
<path fill="currentColor"
	d="M570.33 100.21l31.10 0.00v-3.20l-31.10 -0.00"/>
<path fill="currentColor"
	d="M582.93 95.21l18.50 0.00v-3.20l-18.50 -0.00"/>
<use x="541.43" y="87.01" xlink:href="#hl"/>
<use x="541.43" y="81.01" xlink:href="#hl"/>
<use x="541.43" y="75.01" xlink:href="#hl"/>
<use x="541.43" y="72.01" xlink:href="#hd"/>
<path d="M537.93 72.01v32.20" stroke="currentColor" fill="none"/>
<use x="557.63" y="87.01" xlink:href="#hl"/>
<use x="557.63" y="81.01" xlink:href="#hl"/>
<use x="557.63" y="75.01" xlink:href="#hl"/>
<use x="557.63" y="69.01" xlink:href="#hl"/>
<use x="557.63" y="69.01" xlink:href="#hd"/>
<path d="M554.13 69.01v35.20" stroke="currentColor" fill="none"/>
<use x="573.83" y="87.01" xlink:href="#hl"/>
<use x="573.83" y="81.01" xlink:href="#hl"/>
<use x="573.83" y="75.01" xlink:href="#hl"/>
<use x="573.83" y="69.01" xlink:href="#hl"/>
<use x="573.83" y="69.01" xlink:href="#hd"/>
<path d="M570.33 69.01v35.20" stroke="currentColor" fill="none"/>
<use x="586.43" y="87.01" xlink:href="#hl"/>
<use x="586.43" y="81.01" xlink:href="#hl"/>
<use x="586.43" y="75.01" xlink:href="#hl"/>
<use x="586.43" y="69.01" xlink:href="#hl"/>
<use x="586.43" y="66.01" xlink:href="#hd"/>
<path d="M582.93 66.01v38.20" stroke="currentColor" fill="none"/>
<use x="604.93" y="87.01" xlink:href="#hl"/>
<use x="604.93" y="81.01" xlink:href="#hl"/>
<use x="604.93" y="75.01" xlink:href="#hl"/>
<use x="604.93" y="69.01" xlink:href="#hl"/>
<use x="604.93" y="66.01" xlink:href="#hd"/>
<path d="M601.43 66.01v38.20" stroke="currentColor" fill="none"/>
<use x="597.83" y="69.01" xlink:href="#hl"/>
<use x="597.83" y="69.01" xlink:href="#hd"/>
<path fill="currentColor"
	d="M619.53 105.21l58.70 0.00v-3.20l-58.70 -0.00"/>
<path fill="currentColor"
	d="M619.93 100.21l47.50 0.00v-3.20l-47.50 -0.00"/>
<path fill="currentColor"
	d="M619.93 95.21l47.50 0.00v-3.20l-47.50 -0.00"/>
<use x="623.43" y="87.01" xlink:href="#hl"/>
<use x="623.43" y="81.01" xlink:href="#hl"/>
<use x="623.43" y="75.01" xlink:href="#hl"/>
<use x="623.43" y="69.01" xlink:href="#hl"/>
<use x="623.43" y="69.01" xlink:href="#hd"/>
<path d="M619.93 69.01v35.20" stroke="currentColor" fill="none"/>
<use x="633.93" y="87.01" xlink:href="#hl"/>
<use x="633.93" y="81.01" xlink:href="#hl"/>
<use x="633.93" y="75.01" xlink:href="#hl"/>
<use x="633.93" y="72.01" xlink:href="#hd"/>
<path d="M630.43 72.01v32.20" stroke="currentColor" fill="none"/>
<use x="652.43" y="87.01" xlink:href="#hl"/>
<use x="652.43" y="81.01" xlink:href="#hl"/>
<use x="652.43" y="75.01" xlink:href="#hl"/>
<use x="652.43" y="72.01" xlink:href="#hd"/>
<path d="M648.93 72.01v32.20" stroke="currentColor" fill="none"/>
<use x="645.33" y="75.01" xlink:href="#hl"/>
<use x="645.33" y="75.01" xlink:href="#hd"/>
<use x="670.93" y="87.01" xlink:href="#hl"/>
<use x="670.93" y="81.01" xlink:href="#hl"/>
<use x="670.93" y="75.01" xlink:href="#hl"/>
<use x="670.93" y="75.01" xlink:href="#hd"/>
<path d="M667.43 75.01v29.20" stroke="currentColor" fill="none"/>
<use x="681.43" y="87.01" xlink:href="#hl"/>
<use x="681.43" y="81.01" xlink:href="#hl"/>
<use x="681.43" y="75.01" xlink:href="#hl"/>
<use x="681.43" y="72.01" xlink:href="#hd"/>
<path d="M677.93 72.01v32.20" stroke="currentColor" fill="none"/>
<path fill="currentColor"
	d="M278.73 69.01c2.91 -4.83 15.59 -4.83 18.50 -0.00
	l0.00 -0.22c-3.47 -6.61 -15.03 -6.61 -18.50 0.22"/>
<path fill="currentColor"
	d="M297.23 70.01c2.91 -4.83 15.59 -4.83 18.50 -0.00
	l0.00 -0.22c-3.47 -6.61 -15.03 -6.61 -18.50 0.22"/>
<path fill="currentColor"
	d="M326.23 75.01c2.91 -4.83 15.59 -4.83 18.50 -0.00
	l0.00 -0.22c-3.47 -6.61 -15.03 -6.61 -18.50 0.22"/>
<path fill="currentColor"
	d="M344.73 76.01c2.91 -4.83 15.59 -4.83 18.50 -0.00
	l0.00 -0.22c-3.47 -6.61 -15.03 -6.61 -18.50 0.22"/>
<path fill="currentColor"
	d="M586.43 64.01c2.91 -4.83 15.59 -4.83 18.50 -0.00
	l0.00 -0.22c-3.47 -6.61 -15.03 -6.61 -18.50 0.22"/>
<path fill="currentColor"
	d="M604.93 69.01c2.91 -4.83 15.59 -4.83 18.50 -0.00
	l0.00 -0.22c-3.47 -6.61 -15.03 -6.61 -18.50 0.22"/>
<path fill="currentColor"
	d="M633.93 70.01c2.91 -4.83 15.59 -4.83 18.50 -0.00
	l0.00 -0.22c-3.47 -6.61 -15.03 -6.61 -18.50 0.22"/>
<path fill="currentColor"
	d="M652.43 75.01c2.91 -4.83 15.59 -4.83 18.50 -0.00
	l0.00 -0.22c-3.47 -6.61 -15.03 -6.61 -18.50 0.22"/>
</g>
</svg>
