<?xml version="1.0" standalone="no"?>
<!DOCTYPE svg PUBLIC "-//W3C//DTD SVG 1.1//EN"
	"http://www.w3.org/Graphics/SVG/1.1/DTD/svg11.dtd">
<svg xmlns="http://www.w3.org/2000/svg" version="1.1"
	xmlns:xlink="http://www.w3.org/1999/xlink"
	xml:space='preserve' color="black"
	width="7.38in" height="1.60in" viewBox="0 0 531 116">
<title>6445.abc (6445) tune 1</title>
<!-- Creator: abcm2ps-7.8.14 -->
<!-- CreationDate: Mar 13, 2016 18:54 -->
<!-- CommandLine: -qxg 6445.abc -O ../svgs/6445.svg -->
<g transform="scale(0.750)" stroke-width="0.70" font-family="Times" font-size="20.00">
<text x="354.13" y="21.67" text-anchor="middle">6445.  Concerto, Op. 35, 3rd. Mvt. - Finale, 2nd. Theme</text>
</g>
<g transform="scale(0.750)" stroke-width="0.70" font-family="Times" font-size="14.00" font-style="italic">
<text x="694.93" y="45.34" text-anchor="end">Dmitri Shostakovich</text>
</g>
<g transform="scale(0.525)" stroke-width="0.70" font-family="Times" font-size="14.00" font-style="italic">
<defs>
<ellipse id="hd" rx="4.1" ry="2.9"
	transform="rotate(-20)" fill="currentColor"/>
</defs>
<use x="114.90" y="94.16" xlink:href="#hd"/>
<path d="M118.40 94.16v-20.00" stroke="currentColor" fill="none"/>
</g>
<g transform="scale(0.750)" stroke-width="0.70" font-family="Times" font-size="15.00" font-weight="bold">
<text x="88.13" y="68.01">= 120</text>
<path stroke="currentColor" fill="none"
	d="M141.73 131.01v-24.00"/>
<path stroke="currentColor" fill="none"
	d="M214.13 131.01v-24.00"/>
<path stroke="currentColor" fill="none"
	d="M330.13 131.01v-24.00"/>
<path stroke="currentColor" fill="none"
	d="M433.43 131.01v-24.00"/>
<path stroke="currentColor" fill="none"
	d="M554.73 131.01v-24.00"/>
<path stroke="currentColor" fill="none"
	d="M653.23 131.01v-24.00"/>
<path stroke="currentColor" fill="none"
	d="M13.33 131.01h681.60m-681.60 -6h681.60m-681.60 -6h681.60m-681.60 -6h681.60m-681.60 -6h681.60"/>
<defs>
<path id="utclef" fill="currentColor" d="m-50 -90
	c-72 -41 -72 -158 52 -188
	c150 -10 220 188 90 256
	c-114 52 -275 0 -293 -136
	c-15 -181 93 -229 220 -334
	c88 -87 79 -133 62 -210
	c-51 33 -94 105 -89 186
	c17 267 36 374 49 574
	c6 96 -19 134 -77 135
	c-80 1 -126 -93 -61 -133
	c85 -41 133 101 31 105
	c23 17 92 37 90 -92
	c-10 -223 -39 -342 -50 -617
	c0 -90 0 -162 96 -232
	c56 72 63 230 22 289
	c-74 106 -257 168 -255 316
	c9 153 148 185 252 133
	c86 -65 29 -192 -80 -176
	c-71 12 -105 67 -59 124"/>
<use id="tclef" transform="scale(0.045)"
	xlink:href="#utclef"/>
</defs>
<use x="25.33" y="131.01" xlink:href="#tclef"/>
<defs>
<path id="usharp" fill="currentColor" d="
	m136 -702
	v890
	h32
	v-890
	m128 840
	h32
	v-888
	h-32
	m-232 286
	v116
	l338 -96
	v-116
	m-338 442
	v116
	l338 -98
	v-114"/>
<use id="sh0" transform="translate(-4,5) scale(0.018)"
	xlink:href="#usharp"/>
</defs>
<use x="40.33" y="107.01" xlink:href="#sh0"/>
<use x="45.83" y="116.01" xlink:href="#sh0"/>
<g font-family="serif" font-size="16" font-weight="bold" font-style="normal"
	transform="translate(61.83,131.01) scale(1.2,1)">
	<text y="-1" text-anchor="middle">4</text>
	<text y="-13" text-anchor="middle">2</text>
</g>
<path fill="currentColor"
	d="M76.03 120.51l15.40 2.70v-3.20l-15.40 -2.70"/>
<path fill="currentColor"
	d="M76.33 115.61l14.70 2.60v-3.20l-14.70 -2.60"/>
<defs>
<path id="hl" stroke="currentColor" d="m-6 0h12"/>
</defs>
<use x="79.83" y="101.01" xlink:href="#hl"/>
<use x="79.83" y="95.01" xlink:href="#hl"/>
<use x="79.83" y="89.01" xlink:href="#hl"/>
<use x="79.83" y="83.01" xlink:href="#hl"/>
<use x="79.83" y="80.01" xlink:href="#hd"/>
<path d="M76.33 80.01v39.60" stroke="currentColor" fill="none"/>
<use x="94.53" y="101.01" xlink:href="#hl"/>
<use x="94.53" y="101.01" xlink:href="#hd"/>
<path d="M91.03 101.01v21.20" stroke="currentColor" fill="none"/>
<use x="112.53" y="104.01" xlink:href="#hd"/>
<circle fill="currentColor" cx="120.53" cy="104.01" r="1.2"/>
<use x="103.53" y="104.01" xlink:href="#sh0"/>
<path d="M109.03 104.01v20.00" stroke="currentColor" fill="none"/>
<path fill="currentColor"
	d="M150.43 120.51l15.40 2.70v-3.20l-15.40 -2.70"/>
<path fill="currentColor"
	d="M150.73 115.61l14.70 2.60v-3.20l-14.70 -2.60"/>
<use x="154.23" y="101.01" xlink:href="#hl"/>
<use x="154.23" y="95.01" xlink:href="#hl"/>
<use x="154.23" y="89.01" xlink:href="#hl"/>
<use x="154.23" y="83.01" xlink:href="#hl"/>
<use x="154.23" y="80.01" xlink:href="#hd"/>
<path d="M150.73 80.01v39.60" stroke="currentColor" fill="none"/>
<use x="168.93" y="101.01" xlink:href="#hl"/>
<use x="168.93" y="101.01" xlink:href="#hd"/>
<path d="M165.43 101.01v21.20" stroke="currentColor" fill="none"/>
<use x="184.93" y="107.01" xlink:href="#hd"/>
<circle fill="currentColor" cx="192.93" cy="104.01" r="1.2"/>
<path d="M181.43 107.01v20.00" stroke="currentColor" fill="none"/>
<path fill="currentColor"
	d="M222.73 120.51l15.40 2.70v-3.20l-15.40 -2.70"/>
<path fill="currentColor"
	d="M223.13 115.61l14.70 2.60v-3.20l-14.70 -2.60"/>
<use x="226.63" y="101.01" xlink:href="#hl"/>
<use x="226.63" y="95.01" xlink:href="#hl"/>
<use x="226.63" y="89.01" xlink:href="#hl"/>
<use x="226.63" y="83.01" xlink:href="#hl"/>
<use x="226.63" y="80.01" xlink:href="#hd"/>
<path d="M223.13 80.01v39.60" stroke="currentColor" fill="none"/>
<use x="241.33" y="101.01" xlink:href="#hl"/>
<use x="241.33" y="101.01" xlink:href="#hd"/>
<path d="M237.83 101.01v21.20" stroke="currentColor" fill="none"/>
<use x="259.33" y="104.01" xlink:href="#hd"/>
<use x="250.33" y="104.01" xlink:href="#sh0"/>
<path d="M255.83 104.01v20.00" stroke="currentColor" fill="none"/>
<path fill="currentColor"
	d="M255.83 124.01c0.6 -5.6 9.6 -9 5.6 -18.4
	c1.6 6 -1.3 11.6 -5.6 12.8
"/>
<path fill="currentColor"
	d="M277.53 120.51l15.40 2.70v-3.20l-15.40 -2.70"/>
<path fill="currentColor"
	d="M277.93 115.61l14.70 2.60v-3.20l-14.70 -2.60"/>
<use x="281.43" y="101.01" xlink:href="#hl"/>
<use x="281.43" y="95.01" xlink:href="#hl"/>
<use x="281.43" y="89.01" xlink:href="#hl"/>
<use x="281.43" y="83.01" xlink:href="#hl"/>
<use x="281.43" y="80.01" xlink:href="#hd"/>
<path d="M277.93 80.01v39.60" stroke="currentColor" fill="none"/>
<use x="296.13" y="101.01" xlink:href="#hl"/>
<use x="296.13" y="101.01" xlink:href="#hd"/>
<path d="M292.63 101.01v21.20" stroke="currentColor" fill="none"/>
<use x="312.13" y="107.01" xlink:href="#hd"/>
<path d="M308.63 107.01v20.00" stroke="currentColor" fill="none"/>
<path fill="currentColor"
	d="M308.63 127.01c0.6 -5.6 9.6 -9 5.6 -18.4
	c1.6 6 -1.3 11.6 -5.6 12.8
"/>
<path fill="currentColor"
	d="M338.73 120.51l15.40 2.70v-3.20l-15.40 -2.70"/>
<path fill="currentColor"
	d="M339.13 115.61l14.70 2.60v-3.20l-14.70 -2.60"/>
<use x="342.63" y="101.01" xlink:href="#hl"/>
<use x="342.63" y="95.01" xlink:href="#hl"/>
<use x="342.63" y="89.01" xlink:href="#hl"/>
<use x="342.63" y="83.01" xlink:href="#hl"/>
<use x="342.63" y="80.01" xlink:href="#hd"/>
<path d="M339.13 80.01v39.60" stroke="currentColor" fill="none"/>
<use x="357.33" y="101.01" xlink:href="#hl"/>
<use x="357.33" y="101.01" xlink:href="#hd"/>
<path d="M353.83 101.01v21.20" stroke="currentColor" fill="none"/>
<use x="373.33" y="113.01" xlink:href="#hd"/>
<path d="M369.83 113.01v20.00" stroke="currentColor" fill="none"/>
<path fill="currentColor"
	d="M405.43 99.01l18.70 0.00v3.20l-18.70 -0.00"/>
<path fill="currentColor"
	d="M405.83 104.01l18.00 0.00v3.20l-18.00 -0.00"/>
<use x="402.33" y="122.01" xlink:href="#hd"/>
<use x="393.33" y="122.01" xlink:href="#sh0"/>
<path d="M405.83 122.01v-22.00" stroke="currentColor" fill="none"/>
<use x="420.33" y="122.01" xlink:href="#hd"/>
<use x="411.33" y="122.01" xlink:href="#sh0"/>
<path d="M423.83 122.01v-22.00" stroke="currentColor" fill="none"/>
<path fill="currentColor"
	d="M455.03 99.01l18.70 0.00v3.20l-18.70 -0.00"/>
<path fill="currentColor"
	d="M455.43 104.01l18.00 0.00v3.20l-18.00 -0.00"/>
<use x="451.93" y="122.01" xlink:href="#hd"/>
<use x="442.93" y="122.01" xlink:href="#sh0"/>
<path d="M455.43 122.01v-22.00" stroke="currentColor" fill="none"/>
<use x="469.93" y="122.01" xlink:href="#hd"/>
<use x="460.93" y="122.01" xlink:href="#sh0"/>
<path d="M473.43 122.01v-22.00" stroke="currentColor" fill="none"/>
<use x="487.93" y="122.01" xlink:href="#hd"/>
<use x="478.93" y="122.01" xlink:href="#sh0"/>
<path d="M491.43 122.01v-20.00" stroke="currentColor" fill="none"/>
<path fill="currentColor"
	d="	M491.43 102.01c0.6 5.6 9.6 9 5.6 18.4
	c1.6 -6 -1.3 -11.6 -5.6 -12.8
"/>
<use x="513.43" y="101.01" xlink:href="#hl"/>
<use x="513.43" y="101.01" xlink:href="#hd"/>
<use x="504.43" y="101.01" xlink:href="#sh0"/>
<path d="M509.93 101.01v20.00" stroke="currentColor" fill="none"/>
<path fill="currentColor"
	d="M509.93 121.01c0.6 -5.6 9.6 -9 5.6 -18.4
	c1.6 6 -1.3 11.6 -5.6 12.8
"/>
<use x="536.73" y="101.01" xlink:href="#hl"/>
<use x="536.73" y="101.01" xlink:href="#hd"/>
<use x="527.73" y="101.01" xlink:href="#sh0"/>
<path d="M533.23 101.01v20.00" stroke="currentColor" fill="none"/>
<path fill="currentColor"
	d="M533.23 121.01c0.6 -5.6 9.6 -9 5.6 -18.4
	c1.6 6 -1.3 11.6 -5.6 12.8
"/>
<use x="573.23" y="101.01" xlink:href="#hl"/>
<use x="573.23" y="95.01" xlink:href="#hl"/>
<use x="573.23" y="89.01" xlink:href="#hl"/>
<use x="573.23" y="83.01" xlink:href="#hl"/>
<use x="573.23" y="80.01" xlink:href="#hd"/>
<use x="564.23" y="80.01" xlink:href="#sh0"/>
<path d="M569.73 80.01v39.00" stroke="currentColor" fill="none"/>
<path fill="currentColor"
	d="M569.73 119.01c0.6 -5.6 9.6 -9 5.6 -18.4
	c1.6 6 -1.3 11.6 -5.6 12.8
"/>
<use x="596.53" y="101.01" xlink:href="#hl"/>
<use x="596.53" y="95.01" xlink:href="#hl"/>
<use x="596.53" y="89.01" xlink:href="#hl"/>
<use x="596.53" y="83.01" xlink:href="#hl"/>
<use x="596.53" y="77.01" xlink:href="#hl"/>
<use x="596.53" y="71.01" xlink:href="#hl"/>
<use x="596.53" y="65.01" xlink:href="#hl"/>
<use x="596.53" y="59.01" xlink:href="#hl"/>
<use x="596.53" y="59.01" xlink:href="#hd"/>
<use x="587.53" y="59.01" xlink:href="#sh0"/>
<path d="M593.03 59.01v60.00" stroke="currentColor" fill="none"/>
<path fill="currentColor"
	d="M628.73 99.01l15.20 0.00v3.20l-15.20 -0.00"/>
<path fill="currentColor"
	d="M629.13 104.01l14.50 0.00v3.20l-14.50 -0.00"/>
<use x="625.53" y="122.01" xlink:href="#hd"/>
<defs>
<path id="unat" fill="currentColor" d="
	m96 -750
	h-32
	v716
	l32 -8
	l182 -54
	v282
	h32
	v-706
	l-34 10
	l-180 50
	v-290
	m0 592
	v-190
	l182 -52
	v188"/>
<use id="nt0" transform="translate(-3,5) scale(0.018)"
	xlink:href="#unat"/>
</defs>
<use x="616.53" y="122.01" xlink:href="#nt0"/>
<path d="M629.03 122.01v-22.00" stroke="currentColor" fill="none"/>
<use x="640.13" y="122.01" xlink:href="#hd"/>
<path d="M643.63 122.01v-22.00" stroke="currentColor" fill="none"/>
<path fill="currentColor"
	d="M668.83 99.01l15.20 0.00v3.20l-15.20 -0.00"/>
<path fill="currentColor"
	d="M669.23 104.01l14.50 0.00v3.20l-14.50 -0.00"/>
<use x="665.73" y="122.01" xlink:href="#hd"/>
<path d="M669.23 122.01v-22.00" stroke="currentColor" fill="none"/>
<use x="680.23" y="122.01" xlink:href="#hd"/>
<path d="M683.73 122.01v-22.00" stroke="currentColor" fill="none"/>
</g>
</svg>
