<?xml version="1.0" standalone="no"?>
<!DOCTYPE svg PUBLIC "-//W3C//DTD SVG 1.1//EN"
	"http://www.w3.org/Graphics/SVG/1.1/DTD/svg11.dtd">
<svg xmlns="http://www.w3.org/2000/svg" version="1.1"
	xmlns:xlink="http://www.w3.org/1999/xlink"
	xml:space='preserve' color="black"
	width="7.38in" height="1.65in" viewBox="0 0 531 119">
<title>6455.abc (6455) tune 1</title>
<!-- Creator: abcm2ps-7.8.14 -->
<!-- CreationDate: Mar 13, 2016 18:54 -->
<!-- CommandLine: -qxg 6455.abc -O ../svgs/6455.svg -->
<g transform="scale(0.750)" stroke-width="0.70" font-family="Times" font-size="20.00">
<text x="354.13" y="21.67" text-anchor="middle">6455.  Quartet, Op. 49, 4th. Mvt. - 1st. Theme</text>
</g>
<g transform="scale(0.750)" stroke-width="0.70" font-family="Times" font-size="14.00" font-style="italic">
<text x="694.93" y="45.34" text-anchor="end">Dmitri Shostakovich</text>
</g>
<g transform="scale(0.525)" stroke-width="0.70" font-family="Times" font-size="14.00" font-style="italic">
<defs>
<ellipse id="hd" rx="4.1" ry="2.9"
	transform="rotate(-20)" fill="currentColor"/>
</defs>
<use x="89.19" y="94.16" xlink:href="#hd"/>
<path d="M92.69 94.16v-20.00" stroke="currentColor" fill="none"/>
</g>
<g transform="scale(0.750)" stroke-width="0.70" font-family="Times" font-size="15.00" font-weight="bold">
<text x="70.13" y="68.01">= 120</text>
<path stroke="currentColor" fill="none"
	d="M134.13 135.01v-24.00"/>
<path stroke="currentColor" fill="none"
	d="M240.63 135.01v-24.00"/>
<path stroke="currentColor" fill="none"
	d="M339.13 135.01v-24.00"/>
<path stroke="currentColor" fill="none"
	d="M457.03 135.01v-24.00"/>
<path stroke="currentColor" fill="none"
	d="M565.83 135.01v-24.00"/>
<path stroke="currentColor" fill="none"
	d="M694.93 135.01v-24.00"/>
<path stroke="currentColor" fill="none"
	d="M13.33 135.01h681.60m-681.60 -6h681.60m-681.60 -6h681.60m-681.60 -6h681.60m-681.60 -6h681.60"/>
<defs>
<path id="utclef" fill="currentColor" d="m-50 -90
	c-72 -41 -72 -158 52 -188
	c150 -10 220 188 90 256
	c-114 52 -275 0 -293 -136
	c-15 -181 93 -229 220 -334
	c88 -87 79 -133 62 -210
	c-51 33 -94 105 -89 186
	c17 267 36 374 49 574
	c6 96 -19 134 -77 135
	c-80 1 -126 -93 -61 -133
	c85 -41 133 101 31 105
	c23 17 92 37 90 -92
	c-10 -223 -39 -342 -50 -617
	c0 -90 0 -162 96 -232
	c56 72 63 230 22 289
	c-74 106 -257 168 -255 316
	c9 153 148 185 252 133
	c86 -65 29 -192 -80 -176
	c-71 12 -105 67 -59 124"/>
<use id="tclef" transform="scale(0.045)"
	xlink:href="#utclef"/>
</defs>
<use x="25.33" y="135.01" xlink:href="#tclef"/>
<g font-family="serif" font-size="16" font-weight="bold" font-style="normal"
	transform="translate(43.83,135.01) scale(1.2,1)">
	<text y="-1" text-anchor="middle">2</text>
	<text y="-13" text-anchor="middle">2</text>
</g>
<defs>
<path id="hl" stroke="currentColor" d="m-6 0h12"/>
</defs>
<use x="61.83" y="105.01" xlink:href="#hl"/>
<use x="61.83" y="99.01" xlink:href="#hl"/>
<use x="61.83" y="93.01" xlink:href="#hl"/>
<use x="61.83" y="87.01" xlink:href="#hl"/>
<use x="61.83" y="87.01" xlink:href="#hd"/>
<path d="M58.33 87.01v36.00" stroke="currentColor" fill="none"/>
<use x="84.43" y="105.01" xlink:href="#hl"/>
<use x="84.43" y="99.01" xlink:href="#hl"/>
<use x="84.43" y="93.01" xlink:href="#hl"/>
<use x="84.43" y="87.01" xlink:href="#hl"/>
<use x="84.43" y="81.01" xlink:href="#hl"/>
<defs>
<path id="Hd" fill="currentColor" d="m3 -1.6
	c-1 -1.8 -7 1.4 -6 3.2
	c1 1.8 7 -1.4 6 -3.2
	m0.5 -0.3
	c2 3.8 -5 7.6 -7 3.8
	c-2 -3.8 5 -7.6 7 -3.8"/>
</defs>
<use x="84.43" y="78.01" xlink:href="#Hd"/>
<path d="M80.93 78.01v45.00" stroke="currentColor" fill="none"/>
<use x="115.93" y="105.01" xlink:href="#hl"/>
<use x="115.93" y="99.01" xlink:href="#hl"/>
<use x="115.93" y="93.01" xlink:href="#hl"/>
<use x="115.93" y="87.01" xlink:href="#hl"/>
<use x="115.93" y="87.01" xlink:href="#hd"/>
<path d="M112.43 87.01v36.00" stroke="currentColor" fill="none"/>
<use x="146.63" y="105.01" xlink:href="#hl"/>
<use x="146.63" y="99.01" xlink:href="#hl"/>
<use x="146.63" y="93.01" xlink:href="#hl"/>
<use x="146.63" y="87.01" xlink:href="#hl"/>
<use x="146.63" y="87.01" xlink:href="#hd"/>
<circle fill="currentColor" cx="154.63" cy="84.01" r="1.2"/>
<path d="M143.13 87.01v36.00" stroke="currentColor" fill="none"/>
<use x="173.13" y="105.01" xlink:href="#hl"/>
<use x="173.13" y="99.01" xlink:href="#hl"/>
<use x="173.13" y="93.01" xlink:href="#hl"/>
<use x="173.13" y="87.01" xlink:href="#hl"/>
<use x="173.13" y="84.01" xlink:href="#hd"/>
<path d="M169.63 84.01v39.00" stroke="currentColor" fill="none"/>
<path fill="currentColor"
	d="M169.63 123.01c0.6 -5.6 9.6 -9 5.6 -18.4
	c1.6 6 -1.3 11.6 -5.6 12.8
"/>
<use x="189.53" y="105.01" xlink:href="#hl"/>
<use x="189.53" y="99.01" xlink:href="#hl"/>
<use x="189.53" y="93.01" xlink:href="#hl"/>
<use x="189.53" y="87.01" xlink:href="#hl"/>
<use x="189.53" y="81.01" xlink:href="#hl"/>
<use x="189.53" y="81.01" xlink:href="#hd"/>
<path d="M186.03 81.01v42.00" stroke="currentColor" fill="none"/>
<path fill="currentColor"
	d="M186.03 123.01c0.6 -5.6 9.6 -9 5.6 -18.4
	c1.6 6 -1.3 11.6 -5.6 12.8
"/>
<use x="205.93" y="105.01" xlink:href="#hl"/>
<use x="205.93" y="99.01" xlink:href="#hl"/>
<use x="205.93" y="93.01" xlink:href="#hl"/>
<use x="205.93" y="87.01" xlink:href="#hl"/>
<use x="205.93" y="81.01" xlink:href="#hl"/>
<use x="205.93" y="78.01" xlink:href="#hd"/>
<path d="M202.43 78.01v45.00" stroke="currentColor" fill="none"/>
<path fill="currentColor"
	d="M202.43 123.01c0.6 -5.6 9.6 -9 5.6 -18.4
	c1.6 6 -1.3 11.6 -5.6 12.8
"/>
<use x="222.33" y="105.01" xlink:href="#hl"/>
<use x="222.33" y="99.01" xlink:href="#hl"/>
<use x="222.33" y="93.01" xlink:href="#hl"/>
<use x="222.33" y="87.01" xlink:href="#hl"/>
<use x="222.33" y="81.01" xlink:href="#hl"/>
<use x="222.33" y="75.01" xlink:href="#hl"/>
<use x="222.33" y="75.01" xlink:href="#hd"/>
<path d="M218.83 75.01v48.00" stroke="currentColor" fill="none"/>
<use x="253.13" y="105.01" xlink:href="#hl"/>
<use x="253.13" y="99.01" xlink:href="#hl"/>
<use x="253.13" y="93.01" xlink:href="#hl"/>
<use x="253.13" y="87.01" xlink:href="#hl"/>
<use x="253.13" y="81.01" xlink:href="#hl"/>
<use x="253.13" y="81.01" xlink:href="#hd"/>
<path d="M249.63 81.01v42.00" stroke="currentColor" fill="none"/>
<use x="275.73" y="105.01" xlink:href="#hl"/>
<use x="275.73" y="99.01" xlink:href="#hl"/>
<use x="275.73" y="93.01" xlink:href="#hl"/>
<use x="275.73" y="87.01" xlink:href="#hl"/>
<use x="275.73" y="87.01" xlink:href="#hd"/>
<path d="M272.23 87.01v36.00" stroke="currentColor" fill="none"/>
<use x="298.33" y="105.01" xlink:href="#hl"/>
<use x="298.33" y="99.01" xlink:href="#hl"/>
<use x="298.33" y="93.01" xlink:href="#hl"/>
<use x="298.33" y="87.01" xlink:href="#hl"/>
<use x="298.33" y="87.01" xlink:href="#hd"/>
<path d="M294.83 87.01v36.00" stroke="currentColor" fill="none"/>
<use x="320.93" y="105.01" xlink:href="#hl"/>
<use x="320.93" y="99.01" xlink:href="#hl"/>
<use x="320.93" y="93.01" xlink:href="#hl"/>
<use x="320.93" y="87.01" xlink:href="#hl"/>
<use x="320.93" y="81.01" xlink:href="#hl"/>
<use x="320.93" y="75.01" xlink:href="#hl"/>
<use x="320.93" y="69.01" xlink:href="#hl"/>
<use x="320.93" y="66.01" xlink:href="#hd"/>
<path d="M317.43 66.01v57.00" stroke="currentColor" fill="none"/>
<use x="351.63" y="105.01" xlink:href="#hl"/>
<use x="351.63" y="99.01" xlink:href="#hl"/>
<use x="351.63" y="93.01" xlink:href="#hl"/>
<use x="351.63" y="87.01" xlink:href="#hl"/>
<use x="351.63" y="81.01" xlink:href="#hl"/>
<use x="351.63" y="75.01" xlink:href="#hl"/>
<use x="351.63" y="69.01" xlink:href="#hl"/>
<use x="351.63" y="66.01" xlink:href="#hd"/>
<circle fill="currentColor" cx="359.63" cy="66.01" r="1.2"/>
<path d="M348.13 66.01v57.00" stroke="currentColor" fill="none"/>
<use x="378.13" y="105.01" xlink:href="#hl"/>
<use x="378.13" y="99.01" xlink:href="#hl"/>
<use x="378.13" y="93.01" xlink:href="#hl"/>
<use x="378.13" y="87.01" xlink:href="#hl"/>
<use x="378.13" y="81.01" xlink:href="#hl"/>
<use x="378.13" y="75.01" xlink:href="#hl"/>
<use x="378.13" y="69.01" xlink:href="#hl"/>
<use x="378.13" y="69.01" xlink:href="#hd"/>
<path d="M374.63 69.01v54.00" stroke="currentColor" fill="none"/>
<path fill="currentColor"
	d="M374.63 123.01c0.6 -5.6 9.6 -9 5.6 -18.4
	c1.6 6 -1.3 11.6 -5.6 12.8
"/>
<use x="394.53" y="105.01" xlink:href="#hl"/>
<use x="394.53" y="99.01" xlink:href="#hl"/>
<use x="394.53" y="93.01" xlink:href="#hl"/>
<use x="394.53" y="87.01" xlink:href="#hl"/>
<use x="394.53" y="81.01" xlink:href="#hl"/>
<use x="394.53" y="75.01" xlink:href="#hl"/>
<use x="394.53" y="72.01" xlink:href="#hd"/>
<path d="M391.03 72.01v51.00" stroke="currentColor" fill="none"/>
<path fill="currentColor"
	d="M391.03 123.01c0.6 -5.6 9.6 -9 5.6 -18.4
	c1.6 6 -1.3 11.6 -5.6 12.8
"/>
<use x="410.93" y="105.01" xlink:href="#hl"/>
<use x="410.93" y="99.01" xlink:href="#hl"/>
<use x="410.93" y="93.01" xlink:href="#hl"/>
<use x="410.93" y="87.01" xlink:href="#hl"/>
<use x="410.93" y="81.01" xlink:href="#hl"/>
<use x="410.93" y="75.01" xlink:href="#hl"/>
<use x="410.93" y="75.01" xlink:href="#hd"/>
<path d="M407.43 75.01v48.00" stroke="currentColor" fill="none"/>
<path fill="currentColor"
	d="M407.43 123.01c0.6 -5.6 9.6 -9 5.6 -18.4
	c1.6 6 -1.3 11.6 -5.6 12.8
"/>
<use x="427.33" y="105.01" xlink:href="#hl"/>
<use x="427.33" y="99.01" xlink:href="#hl"/>
<use x="427.33" y="93.01" xlink:href="#hl"/>
<use x="427.33" y="87.01" xlink:href="#hl"/>
<use x="427.33" y="81.01" xlink:href="#hl"/>
<use x="427.33" y="78.01" xlink:href="#hd"/>
<path d="M423.83 78.01v45.00" stroke="currentColor" fill="none"/>
<path fill="currentColor"
	d="M423.83 123.01c0.6 -5.6 9.6 -9 5.6 -18.4
	c1.6 6 -1.3 11.6 -5.6 12.8
"/>
<use x="443.83" y="105.01" xlink:href="#hl"/>
<use x="443.83" y="99.01" xlink:href="#hl"/>
<use x="443.83" y="93.01" xlink:href="#hl"/>
<use x="443.83" y="87.01" xlink:href="#hl"/>
<use x="443.83" y="81.01" xlink:href="#hl"/>
<use x="443.83" y="81.01" xlink:href="#hd"/>
<path d="M440.33 81.01v42.00" stroke="currentColor" fill="none"/>
<path fill="currentColor"
	d="M440.33 123.01c0.6 -5.6 9.6 -9 5.6 -18.4
	c1.6 6 -1.3 11.6 -5.6 12.8
"/>
<use x="469.53" y="105.01" xlink:href="#hl"/>
<use x="469.53" y="99.01" xlink:href="#hl"/>
<use x="469.53" y="93.01" xlink:href="#hl"/>
<use x="469.53" y="87.01" xlink:href="#hl"/>
<use x="469.53" y="84.01" xlink:href="#hd"/>
<path d="M466.03 84.01v39.00" stroke="currentColor" fill="none"/>
<path fill="currentColor"
	d="M466.03 123.01c0.6 -5.6 9.6 -9 5.6 -18.4
	c1.6 6 -1.3 11.6 -5.6 12.8
"/>
<use x="485.93" y="105.01" xlink:href="#hl"/>
<use x="485.93" y="99.01" xlink:href="#hl"/>
<use x="485.93" y="93.01" xlink:href="#hl"/>
<use x="485.93" y="87.01" xlink:href="#hl"/>
<use x="485.93" y="87.01" xlink:href="#hd"/>
<path d="M482.43 87.01v36.00" stroke="currentColor" fill="none"/>
<path fill="currentColor"
	d="M482.43 123.01c0.6 -5.6 9.6 -9 5.6 -18.4
	c1.6 6 -1.3 11.6 -5.6 12.8
"/>
<use x="502.33" y="105.01" xlink:href="#hl"/>
<use x="502.33" y="99.01" xlink:href="#hl"/>
<use x="502.33" y="93.01" xlink:href="#hl"/>
<use x="502.33" y="87.01" xlink:href="#hl"/>
<use x="502.33" y="84.01" xlink:href="#hd"/>
<path d="M498.83 84.01v39.00" stroke="currentColor" fill="none"/>
<use x="524.93" y="105.01" xlink:href="#hl"/>
<use x="524.93" y="99.01" xlink:href="#hl"/>
<use x="524.93" y="93.01" xlink:href="#hl"/>
<use x="524.93" y="87.01" xlink:href="#hl"/>
<use x="524.93" y="81.01" xlink:href="#hl"/>
<use x="524.93" y="75.01" xlink:href="#hl"/>
<use x="524.93" y="75.01" xlink:href="#hd"/>
<path d="M521.43 75.01v48.00" stroke="currentColor" fill="none"/>
<use x="547.53" y="105.01" xlink:href="#hl"/>
<use x="547.53" y="99.01" xlink:href="#hl"/>
<use x="547.53" y="96.01" xlink:href="#hd"/>
<path d="M544.03 96.01v27.00" stroke="currentColor" fill="none"/>
<use x="578.33" y="105.01" xlink:href="#hl"/>
<use x="578.33" y="99.01" xlink:href="#hl"/>
<use x="578.33" y="93.01" xlink:href="#hl"/>
<use x="578.33" y="93.01" xlink:href="#hd"/>
<path d="M574.83 93.01v30.00" stroke="currentColor" fill="none"/>
<path fill="currentColor"
	d="M574.83 123.01c0.6 -5.6 9.6 -9 5.6 -18.4
	c1.6 6 -1.3 11.6 -5.6 12.8
"/>
<use x="594.73" y="105.01" xlink:href="#hl"/>
<use x="594.73" y="99.01" xlink:href="#hl"/>
<use x="594.73" y="93.01" xlink:href="#hl"/>
<use x="594.73" y="90.01" xlink:href="#hd"/>
<path d="M591.23 90.01v33.00" stroke="currentColor" fill="none"/>
<path fill="currentColor"
	d="M591.23 123.01c0.6 -5.6 9.6 -9 5.6 -18.4
	c1.6 6 -1.3 11.6 -5.6 12.8
"/>
<use x="611.13" y="105.01" xlink:href="#hl"/>
<use x="611.13" y="99.01" xlink:href="#hl"/>
<use x="611.13" y="93.01" xlink:href="#hl"/>
<use x="611.13" y="87.01" xlink:href="#hl"/>
<use x="611.13" y="87.01" xlink:href="#hd"/>
<path d="M607.63 87.01v36.00" stroke="currentColor" fill="none"/>
<path fill="currentColor"
	d="M607.63 123.01c0.6 -5.6 9.6 -9 5.6 -18.4
	c1.6 6 -1.3 11.6 -5.6 12.8
"/>
<use x="627.53" y="105.01" xlink:href="#hl"/>
<use x="627.53" y="99.01" xlink:href="#hl"/>
<use x="627.53" y="93.01" xlink:href="#hl"/>
<use x="627.53" y="87.01" xlink:href="#hl"/>
<use x="627.53" y="84.01" xlink:href="#hd"/>
<path d="M624.03 84.01v39.00" stroke="currentColor" fill="none"/>
<path fill="currentColor"
	d="M624.03 123.01c0.6 -5.6 9.6 -9 5.6 -18.4
	c1.6 6 -1.3 11.6 -5.6 12.8
"/>
<use x="643.93" y="105.01" xlink:href="#hl"/>
<use x="643.93" y="99.01" xlink:href="#hl"/>
<use x="643.93" y="93.01" xlink:href="#hl"/>
<use x="643.93" y="87.01" xlink:href="#hl"/>
<use x="643.93" y="81.01" xlink:href="#hl"/>
<use x="643.93" y="81.01" xlink:href="#hd"/>
<path d="M640.43 81.01v42.00" stroke="currentColor" fill="none"/>
<path fill="currentColor"
	d="M640.43 123.01c0.6 -5.6 9.6 -9 5.6 -18.4
	c1.6 6 -1.3 11.6 -5.6 12.8
"/>
<use x="660.33" y="105.01" xlink:href="#hl"/>
<use x="660.33" y="99.01" xlink:href="#hl"/>
<use x="660.33" y="93.01" xlink:href="#hl"/>
<use x="660.33" y="87.01" xlink:href="#hl"/>
<use x="660.33" y="81.01" xlink:href="#hl"/>
<use x="660.33" y="78.01" xlink:href="#hd"/>
<path d="M656.83 78.01v45.00" stroke="currentColor" fill="none"/>
<path fill="currentColor"
	d="M656.83 123.01c0.6 -5.6 9.6 -9 5.6 -18.4
	c1.6 6 -1.3 11.6 -5.6 12.8
"/>
<use x="676.73" y="105.01" xlink:href="#hl"/>
<use x="676.73" y="99.01" xlink:href="#hl"/>
<use x="676.73" y="93.01" xlink:href="#hl"/>
<use x="676.73" y="87.01" xlink:href="#hl"/>
<use x="676.73" y="81.01" xlink:href="#hl"/>
<use x="676.73" y="75.01" xlink:href="#hl"/>
<use x="676.73" y="75.01" xlink:href="#hd"/>
<path d="M673.23 75.01v48.00" stroke="currentColor" fill="none"/>
<path fill="currentColor"
	d="M119.43 87.01c3.74 -4.93 19.99 -4.93 23.73 -0.00
	l0.00 -0.22c-4.45 -6.70 -19.28 -6.70 -23.73 0.22"/>
<path fill="currentColor"
	d="M324.43 64.01c3.74 -4.93 19.99 -4.93 23.73 -0.00
	l0.00 -0.22c-4.45 -6.70 -19.28 -6.70 -23.73 0.22"/>
</g>
</svg>
