<?xml version="1.0" standalone="no"?>
<!DOCTYPE svg PUBLIC "-//W3C//DTD SVG 1.1//EN"
	"http://www.w3.org/Graphics/SVG/1.1/DTD/svg11.dtd">
<svg xmlns="http://www.w3.org/2000/svg" version="1.1"
	xmlns:xlink="http://www.w3.org/1999/xlink"
	xml:space='preserve' color="black"
	width="7.38in" height="1.34in" viewBox="0 0 531 97">
<title>6463.abc (6463) tune 1</title>
<!-- Creator: abcm2ps-7.8.14 -->
<!-- CreationDate: Mar 13, 2016 18:54 -->
<!-- CommandLine: -qxg 6463.abc -O ../svgs/6463.svg -->
<g transform="scale(0.750)" stroke-width="0.70" font-family="Times" font-size="20.00">
<text x="354.13" y="21.67" text-anchor="middle">6463.  Quintet, Op. 57, 5th. Mvt. - Finale, 1st. Theme A</text>
</g>
<g transform="scale(0.750)" stroke-width="0.70" font-family="Times" font-size="14.00" font-style="italic">
<text x="694.93" y="45.34" text-anchor="end">Dmitri Shostakovich</text>
</g>
<g transform="scale(0.525)" stroke-width="0.70" font-family="Times" font-size="14.00" font-style="italic">
<defs>
<ellipse id="hd" rx="4.1" ry="2.9"
	transform="rotate(-20)" fill="currentColor"/>
</defs>
<use x="107.04" y="94.16" xlink:href="#hd"/>
<path d="M110.54 94.16v-20.00" stroke="currentColor" fill="none"/>
</g>
<g transform="scale(0.750)" stroke-width="0.70" font-family="Times" font-size="15.00" font-weight="bold">
<text x="82.63" y="68.01">= 120</text>
<path stroke="currentColor" fill="none"
	d="M151.53 106.01v-24.00"/>
<path stroke="currentColor" fill="none"
	d="M244.13 106.01v-24.00"/>
<path stroke="currentColor" fill="none"
	d="M360.63 106.01v-24.00"/>
<path stroke="currentColor" fill="none"
	d="M560.73 106.01v-24.00"/>
<path stroke="currentColor" fill="none"
	d="M13.33 106.01h681.60m-681.60 -6h681.60m-681.60 -6h681.60m-681.60 -6h681.60m-681.60 -6h681.60"/>
<defs>
<path id="utclef" fill="currentColor" d="m-50 -90
	c-72 -41 -72 -158 52 -188
	c150 -10 220 188 90 256
	c-114 52 -275 0 -293 -136
	c-15 -181 93 -229 220 -334
	c88 -87 79 -133 62 -210
	c-51 33 -94 105 -89 186
	c17 267 36 374 49 574
	c6 96 -19 134 -77 135
	c-80 1 -126 -93 -61 -133
	c85 -41 133 101 31 105
	c23 17 92 37 90 -92
	c-10 -223 -39 -342 -50 -617
	c0 -90 0 -162 96 -232
	c56 72 63 230 22 289
	c-74 106 -257 168 -255 316
	c9 153 148 185 252 133
	c86 -65 29 -192 -80 -176
	c-71 12 -105 67 -59 124"/>
<use id="tclef" transform="scale(0.045)"
	xlink:href="#utclef"/>
</defs>
<use x="25.33" y="106.01" xlink:href="#tclef"/>
<defs>
<path id="usharp" fill="currentColor" d="
	m136 -702
	v890
	h32
	v-890
	m128 840
	h32
	v-888
	h-32
	m-232 286
	v116
	l338 -96
	v-116
	m-338 442
	v116
	l338 -98
	v-114"/>
<use id="sh0" transform="translate(-4,5) scale(0.018)"
	xlink:href="#usharp"/>
</defs>
<use x="40.33" y="82.01" xlink:href="#sh0"/>
<g font-family="serif" font-size="16" font-weight="bold" font-style="normal"
	transform="translate(56.33,106.01) scale(1.2,1)">
	<text y="-1" text-anchor="middle">2</text>
	<text y="-13" text-anchor="middle">2</text>
</g>
<use x="74.33" y="88.01" xlink:href="#hd"/>
<path d="M70.83 88.01v20.00" stroke="currentColor" fill="none"/>
<path fill="currentColor"
	d="M70.83 108.01c0.6 -5.6 9.6 -9 5.6 -18.4
	c1.6 6 -1.3 11.6 -5.6 12.8
"/>
<use x="92.73" y="109.01" xlink:href="#hd"/>
<path d="M96.23 109.01v-20.00" stroke="currentColor" fill="none"/>
<path fill="currentColor"
	d="	M96.23 89.01c0.6 5.6 9.6 9 5.6 18.4
	c1.6 -6 -1.3 -11.6 -5.6 -12.8
"/>
<defs>
<path id="Hd" fill="currentColor" d="m3 -1.6
	c-1 -1.8 -7 1.4 -6 3.2
	c1 1.8 7 -1.4 6 -3.2
	m0.5 -0.3
	c2 3.8 -5 7.6 -7 3.8
	c-2 -3.8 5 -7.6 7 -3.8"/>
</defs>
<use x="114.33" y="94.01" xlink:href="#Hd"/>
<circle fill="currentColor" cx="123.33" cy="91.01" r="1.2"/>
<path d="M110.83 94.01v20.00" stroke="currentColor" fill="none"/>
<use x="164.03" y="100.01" xlink:href="#hd"/>
<path d="M167.53 100.01v-20.00" stroke="currentColor" fill="none"/>
<path fill="currentColor"
	d="	M167.53 80.01c0.6 5.6 9.6 9 5.6 18.4
	c1.6 -6 -1.3 -11.6 -5.6 -12.8
"/>
<use x="185.33" y="109.01" xlink:href="#hd"/>
<path d="M188.83 109.01v-20.00" stroke="currentColor" fill="none"/>
<path fill="currentColor"
	d="	M188.83 89.01c0.6 5.6 9.6 9 5.6 18.4
	c1.6 -6 -1.3 -11.6 -5.6 -12.8
"/>
<use x="207.03" y="85.01" xlink:href="#Hd"/>
<circle fill="currentColor" cx="216.03" cy="85.01" r="1.2"/>
<path d="M203.53 85.01v20.00" stroke="currentColor" fill="none"/>
<use x="256.63" y="88.01" xlink:href="#hd"/>
<path d="M253.13 88.01v20.00" stroke="currentColor" fill="none"/>
<path fill="currentColor"
	d="M253.13 108.01c0.6 -5.6 9.6 -9 5.6 -18.4
	c1.6 6 -1.3 11.6 -5.6 12.8
"/>
<use x="275.03" y="100.01" xlink:href="#hd"/>
<path d="M278.53 100.01v-20.00" stroke="currentColor" fill="none"/>
<path fill="currentColor"
	d="	M278.53 80.01c0.6 5.6 9.6 9 5.6 18.4
	c1.6 -6 -1.3 -11.6 -5.6 -12.8
"/>
<use x="300.53" y="82.01" xlink:href="#hd"/>
<defs>
<path id="unat" fill="currentColor" d="
	m96 -750
	h-32
	v716
	l32 -8
	l182 -54
	v282
	h32
	v-706
	l-34 10
	l-180 50
	v-290
	m0 592
	v-190
	l182 -52
	v188"/>
<use id="nt0" transform="translate(-3,5) scale(0.018)"
	xlink:href="#unat"/>
</defs>
<use x="291.53" y="82.01" xlink:href="#nt0"/>
<path d="M297.03 82.01v20.00" stroke="currentColor" fill="none"/>
<use x="328.73" y="85.01" xlink:href="#Hd"/>
<path d="M325.23 85.01v20.00" stroke="currentColor" fill="none"/>
<defs>
<path id="hl" stroke="currentColor" d="m-6 0h12"/>
</defs>
<use x="373.13" y="76.01" xlink:href="#hl"/>
<use x="373.13" y="76.01" xlink:href="#hd"/>
<path d="M369.63 76.01v20.00" stroke="currentColor" fill="none"/>
<use x="401.23" y="88.01" xlink:href="#hd"/>
<path d="M397.73 88.01v20.00" stroke="currentColor" fill="none"/>
<path fill="currentColor"
	d="M397.73 108.01c0.6 -5.6 9.6 -9 5.6 -18.4
	c1.6 6 -1.3 11.6 -5.6 12.8
"/>
<path fill="currentColor"
	d="M417.73 107.21l18.70 -2.30v-3.20l-18.70 2.30"/>
<path fill="currentColor"
	d="M418.03 102.21l18.00 -2.20v-3.20l-18.00 2.20"/>
<use x="421.53" y="85.01" xlink:href="#hd"/>
<path d="M418.03 85.01v21.20" stroke="currentColor" fill="none"/>
<use x="439.53" y="82.01" xlink:href="#hd"/>
<use x="430.53" y="82.01" xlink:href="#nt0"/>
<path d="M436.03 82.01v22.00" stroke="currentColor" fill="none"/>
<path fill="currentColor"
	d="M450.43 101.91l18.70 2.30v-3.20l-18.70 -2.30"/>
<path fill="currentColor"
	d="M450.73 97.01l18.00 2.20v-3.20l-18.00 -2.20"/>
<use x="454.23" y="79.01" xlink:href="#hd"/>
<path d="M450.73 79.01v22.00" stroke="currentColor" fill="none"/>
<use x="472.23" y="82.01" xlink:href="#hd"/>
<use x="463.23" y="82.01" xlink:href="#nt0"/>
<path d="M468.73 82.01v21.20" stroke="currentColor" fill="none"/>
<path fill="currentColor"
	d="M483.13 108.11l14.00 2.20v-3.20l-14.00 -2.20"/>
<path fill="currentColor"
	d="M483.43 103.11l13.40 2.10v-3.20l-13.40 -2.10"/>
<use x="486.93" y="85.01" xlink:href="#hd"/>
<path d="M483.43 85.01v22.10" stroke="currentColor" fill="none"/>
<use x="500.33" y="88.01" xlink:href="#hd"/>
<path d="M496.83 88.01v21.20" stroke="currentColor" fill="none"/>
<use x="515.03" y="91.01" xlink:href="#hd"/>
<path d="M511.53 91.01v20.00" stroke="currentColor" fill="none"/>
<path fill="currentColor"
	d="M511.53 111.01c0.6 -5.6 9.6 -9 5.6 -18.4
	c1.6 6 -1.3 11.6 -5.6 12.8
"/>
<path fill="currentColor"
	d="M531.43 110.31l14.00 -2.20v-3.20l-14.00 2.20"/>
<path fill="currentColor"
	d="M531.83 105.21l13.40 -2.10v-3.20l-13.40 2.10"/>
<use x="535.33" y="88.01" xlink:href="#hd"/>
<path d="M531.83 88.01v21.20" stroke="currentColor" fill="none"/>
<use x="548.63" y="85.01" xlink:href="#hd"/>
<path d="M545.13 85.01v22.10" stroke="currentColor" fill="none"/>
<path fill="currentColor"
	d="M575.33 105.11l14.00 2.20v-3.20l-14.00 -2.20"/>
<path fill="currentColor"
	d="M575.73 100.11l13.40 2.10v-3.20l-13.40 -2.10"/>
<use x="579.23" y="82.01" xlink:href="#hd"/>
<use x="570.23" y="82.01" xlink:href="#nt0"/>
<path d="M575.73 82.01v22.10" stroke="currentColor" fill="none"/>
<use x="592.53" y="85.01" xlink:href="#hd"/>
<path d="M589.03 85.01v21.20" stroke="currentColor" fill="none"/>
<path fill="currentColor"
	d="M603.43 111.11l14.00 2.20v-3.20l-14.00 -2.20"/>
<path fill="currentColor"
	d="M603.73 106.11l13.40 2.10v-3.20l-13.40 -2.10"/>
<use x="607.23" y="88.01" xlink:href="#hd"/>
<path d="M603.73 88.01v22.10" stroke="currentColor" fill="none"/>
<use x="620.63" y="91.01" xlink:href="#hd"/>
<path d="M617.13 91.01v21.20" stroke="currentColor" fill="none"/>
<use x="638.63" y="97.01" xlink:href="#hd"/>
<use x="629.63" y="97.01" xlink:href="#sh0"/>
<path d="M642.13 97.01v-20.00" stroke="currentColor" fill="none"/>
<use x="668.03" y="97.01" xlink:href="#hd"/>
<use x="659.03" y="97.01" xlink:href="#sh0"/>
<path d="M671.53 97.01v-20.00" stroke="currentColor" fill="none"/>
</g>
</svg>
