<?xml version="1.0" standalone="no"?>
<!DOCTYPE svg PUBLIC "-//W3C//DTD SVG 1.1//EN"
	"http://www.w3.org/Graphics/SVG/1.1/DTD/svg11.dtd">
<svg xmlns="http://www.w3.org/2000/svg" version="1.1"
	xmlns:xlink="http://www.w3.org/1999/xlink"
	xml:space='preserve' color="black"
	width="7.38in" height="1.40in" viewBox="0 0 531 101">
<title>6480.abc (6480) tune 1</title>
<!-- Creator: abcm2ps-7.8.14 -->
<!-- CreationDate: Mar 13, 2016 18:54 -->
<!-- CommandLine: -qxg 6480.abc -O ../svgs/6480.svg -->
<g transform="scale(0.750)" stroke-width="0.70" font-family="Times" font-size="20.00">
<text x="354.13" y="21.67" text-anchor="middle">6480.  Symphony No. 1, in F, Op. 10, 3rd. Mvt. - 2nd. Theme</text>
</g>
<g transform="scale(0.750)" stroke-width="0.70" font-family="Times" font-size="14.00" font-style="italic">
<text x="694.93" y="45.34" text-anchor="end">Dmitri Shostakovich</text>
</g>
<g transform="scale(0.525)" stroke-width="0.70" font-family="Times" font-size="14.00" font-style="italic">
<defs>
<ellipse id="hd" rx="4.1" ry="2.9"
	transform="rotate(-20)" fill="currentColor"/>
</defs>
<use x="89.19" y="94.16" xlink:href="#hd"/>
<path d="M92.69 94.16v-20.00" stroke="currentColor" fill="none"/>
</g>
<g transform="scale(0.750)" stroke-width="0.70" font-family="Times" font-size="15.00" font-weight="bold">
<text x="70.13" y="68.01">= 120</text>
<path stroke="currentColor" fill="none"
	d="M232.13 111.01v-24.00"/>
<path stroke="currentColor" fill="none"
	d="M382.03 111.01v-24.00"/>
<path stroke="currentColor" fill="none"
	d="M549.63 111.01v-24.00"/>
<path stroke="currentColor" fill="none"
	d="M694.93 111.01v-24.00"/>
<path stroke="currentColor" fill="none"
	d="M13.33 111.01h681.60m-681.60 -6h681.60m-681.60 -6h681.60m-681.60 -6h681.60m-681.60 -6h681.60"/>
<defs>
<path id="utclef" fill="currentColor" d="m-50 -90
	c-72 -41 -72 -158 52 -188
	c150 -10 220 188 90 256
	c-114 52 -275 0 -293 -136
	c-15 -181 93 -229 220 -334
	c88 -87 79 -133 62 -210
	c-51 33 -94 105 -89 186
	c17 267 36 374 49 574
	c6 96 -19 134 -77 135
	c-80 1 -126 -93 -61 -133
	c85 -41 133 101 31 105
	c23 17 92 37 90 -92
	c-10 -223 -39 -342 -50 -617
	c0 -90 0 -162 96 -232
	c56 72 63 230 22 289
	c-74 106 -257 168 -255 316
	c9 153 148 185 252 133
	c86 -65 29 -192 -80 -176
	c-71 12 -105 67 -59 124"/>
<use id="tclef" transform="scale(0.045)"
	xlink:href="#utclef"/>
</defs>
<use x="25.33" y="111.01" xlink:href="#tclef"/>
<g font-family="serif" font-size="16" font-weight="bold" font-style="normal"
	transform="translate(43.83,111.01) scale(1.2,1)">
	<text y="-1" text-anchor="middle">4</text>
	<text y="-13" text-anchor="middle">4</text>
</g>
<defs>
<path id="hl" stroke="currentColor" d="m-6 0h12"/>
</defs>
<use x="61.83" y="81.01" xlink:href="#hl"/>
<use x="61.83" y="78.01" xlink:href="#hd"/>
<path d="M58.33 78.01v21.00" stroke="currentColor" fill="none"/>
<path fill="currentColor"
	d="M97.13 101.01l29.10 0.00v-3.20l-29.10 -0.00"/>
<path fill="currentColor"
	d="M119.83 96.01l6.00 0.00v-3.20l-6.00 -0.00"/>
<use x="100.93" y="81.01" xlink:href="#hl"/>
<use x="100.93" y="78.01" xlink:href="#hd"/>
<circle fill="currentColor" cx="108.93" cy="78.01" r="1.2"/>
<path d="M97.43 78.01v22.00" stroke="currentColor" fill="none"/>
<use x="129.33" y="81.01" xlink:href="#hl"/>
<use x="129.33" y="78.01" xlink:href="#hd"/>
<path d="M125.83 78.01v22.00" stroke="currentColor" fill="none"/>
<use x="148.93" y="81.01" xlink:href="#hl"/>
<use x="148.93" y="75.01" xlink:href="#hl"/>
<use x="148.93" y="69.01" xlink:href="#hl"/>
<use x="148.93" y="69.01" xlink:href="#hd"/>
<path d="M145.43 69.01v30.00" stroke="currentColor" fill="none"/>
<path fill="currentColor"
	d="M184.23 99.21l29.10 0.00v-3.20l-29.10 -0.00"/>
<path fill="currentColor"
	d="M206.93 94.21l6.00 0.00v-3.20l-6.00 -0.00"/>
<use x="188.03" y="81.01" xlink:href="#hl"/>
<use x="188.03" y="75.01" xlink:href="#hl"/>
<use x="188.03" y="72.01" xlink:href="#hd"/>
<circle fill="currentColor" cx="196.03" cy="72.01" r="1.2"/>
<defs>
<path id="usharp" fill="currentColor" d="
	m136 -702
	v890
	h32
	v-890
	m128 840
	h32
	v-888
	h-32
	m-232 286
	v116
	l338 -96
	v-116
	m-338 442
	v116
	l338 -98
	v-114"/>
<use id="sh0" transform="translate(-4,5) scale(0.018)"
	xlink:href="#usharp"/>
</defs>
<use x="179.03" y="72.01" xlink:href="#sh0"/>
<path d="M184.53 72.01v26.20" stroke="currentColor" fill="none"/>
<use x="216.43" y="81.01" xlink:href="#hl"/>
<use x="216.43" y="75.01" xlink:href="#hl"/>
<use x="216.43" y="69.01" xlink:href="#hl"/>
<use x="216.43" y="69.01" xlink:href="#hd"/>
<path d="M212.93 69.01v29.20" stroke="currentColor" fill="none"/>
<use x="250.63" y="81.01" xlink:href="#hl"/>
<use x="250.63" y="75.01" xlink:href="#hl"/>
<use x="250.63" y="75.01" xlink:href="#hd"/>
<use x="241.63" y="75.01" xlink:href="#sh0"/>
<path d="M247.13 75.01v24.00" stroke="currentColor" fill="none"/>
<path fill="currentColor"
	d="M285.93 99.21l29.10 0.00v-3.20l-29.10 -0.00"/>
<path fill="currentColor"
	d="M308.63 94.21l6.00 0.00v-3.20l-6.00 -0.00"/>
<use x="289.73" y="81.01" xlink:href="#hl"/>
<use x="289.73" y="75.01" xlink:href="#hl"/>
<use x="289.73" y="75.01" xlink:href="#hd"/>
<circle fill="currentColor" cx="297.73" cy="72.01" r="1.2"/>
<use x="280.73" y="75.01" xlink:href="#sh0"/>
<path d="M286.23 75.01v23.20" stroke="currentColor" fill="none"/>
<use x="318.13" y="81.01" xlink:href="#hl"/>
<use x="318.13" y="75.01" xlink:href="#hl"/>
<use x="318.13" y="75.01" xlink:href="#hd"/>
<use x="309.13" y="75.01" xlink:href="#sh0"/>
<path d="M314.63 75.01v23.20" stroke="currentColor" fill="none"/>
<use x="337.73" y="81.01" xlink:href="#hl"/>
<use x="337.73" y="75.01" xlink:href="#hl"/>
<use x="337.73" y="69.01" xlink:href="#hl"/>
<use x="337.73" y="63.01" xlink:href="#hl"/>
<defs>
<path id="Hd" fill="currentColor" d="m3 -1.6
	c-1 -1.8 -7 1.4 -6 3.2
	c1 1.8 7 -1.4 6 -3.2
	m0.5 -0.3
	c2 3.8 -5 7.6 -7 3.8
	c-2 -3.8 5 -7.6 7 -3.8"/>
</defs>
<use x="337.73" y="63.01" xlink:href="#Hd"/>
<path d="M334.23 63.01v36.00" stroke="currentColor" fill="none"/>
<use x="395.83" y="81.01" xlink:href="#hl"/>
<use x="395.83" y="75.01" xlink:href="#hl"/>
<use x="395.83" y="69.01" xlink:href="#hl"/>
<use x="395.83" y="63.01" xlink:href="#hl"/>
<use x="395.83" y="63.01" xlink:href="#hd"/>
<path d="M392.33 63.01v36.00" stroke="currentColor" fill="none"/>
<path fill="currentColor"
	d="M431.13 99.21l29.10 0.00v-3.20l-29.10 -0.00"/>
<path fill="currentColor"
	d="M453.83 94.21l6.00 0.00v-3.20l-6.00 -0.00"/>
<use x="435.03" y="81.01" xlink:href="#hl"/>
<use x="435.03" y="75.01" xlink:href="#hl"/>
<use x="435.03" y="69.01" xlink:href="#hl"/>
<use x="435.03" y="63.01" xlink:href="#hl"/>
<use x="435.03" y="63.01" xlink:href="#hd"/>
<circle fill="currentColor" cx="443.03" cy="60.01" r="1.2"/>
<path d="M431.53 63.01v35.20" stroke="currentColor" fill="none"/>
<use x="463.33" y="81.01" xlink:href="#hl"/>
<use x="463.33" y="75.01" xlink:href="#hl"/>
<use x="463.33" y="69.01" xlink:href="#hl"/>
<use x="463.33" y="63.01" xlink:href="#hl"/>
<use x="463.33" y="63.01" xlink:href="#hd"/>
<path d="M459.83 63.01v35.20" stroke="currentColor" fill="none"/>
<use x="482.93" y="81.01" xlink:href="#hl"/>
<use x="482.93" y="75.01" xlink:href="#hl"/>
<use x="482.93" y="69.01" xlink:href="#hl"/>
<use x="482.93" y="66.01" xlink:href="#hd"/>
<circle fill="currentColor" cx="490.93" cy="66.01" r="1.2"/>
<path d="M479.43 66.01v33.00" stroke="currentColor" fill="none"/>
<use x="527.53" y="81.01" xlink:href="#hl"/>
<use x="527.53" y="75.01" xlink:href="#hl"/>
<use x="527.53" y="75.01" xlink:href="#hd"/>
<defs>
<path id="unat" fill="currentColor" d="
	m96 -750
	h-32
	v716
	l32 -8
	l182 -54
	v282
	h32
	v-706
	l-34 10
	l-180 50
	v-290
	m0 592
	v-190
	l182 -52
	v188"/>
<use id="nt0" transform="translate(-3,5) scale(0.018)"
	xlink:href="#unat"/>
</defs>
<use x="518.53" y="75.01" xlink:href="#nt0"/>
<path d="M524.03 75.01v24.00" stroke="currentColor" fill="none"/>
<path fill="currentColor"
	d="M524.03 99.01c0.6 -5.6 9.6 -9 5.6 -18.4
	c1.6 6 -1.3 11.6 -5.6 12.8
"/>
<use x="563.53" y="81.01" xlink:href="#hl"/>
<use x="563.53" y="75.01" xlink:href="#hl"/>
<use x="563.53" y="69.01" xlink:href="#hl"/>
<use x="563.53" y="66.01" xlink:href="#hd"/>
<path d="M560.03 66.01v33.00" stroke="currentColor" fill="none"/>
<path fill="currentColor"
	d="M598.83 99.21l29.10 0.00v-3.20l-29.10 -0.00"/>
<path fill="currentColor"
	d="M621.53 94.21l6.00 0.00v-3.20l-6.00 -0.00"/>
<use x="602.63" y="81.01" xlink:href="#hl"/>
<use x="602.63" y="75.01" xlink:href="#hl"/>
<use x="602.63" y="69.01" xlink:href="#hl"/>
<use x="602.63" y="69.01" xlink:href="#hd"/>
<circle fill="currentColor" cx="610.63" cy="66.01" r="1.2"/>
<path d="M599.13 69.01v29.20" stroke="currentColor" fill="none"/>
<use x="631.03" y="81.01" xlink:href="#hl"/>
<use x="631.03" y="75.01" xlink:href="#hl"/>
<use x="631.03" y="69.01" xlink:href="#hl"/>
<use x="631.03" y="69.01" xlink:href="#hd"/>
<path d="M627.53 69.01v29.20" stroke="currentColor" fill="none"/>
<use x="650.63" y="81.01" xlink:href="#hl"/>
<use x="650.63" y="75.01" xlink:href="#hl"/>
<use x="650.63" y="72.01" xlink:href="#Hd"/>
<use x="640.63" y="72.01" xlink:href="#sh0"/>
<path d="M647.13 72.01v27.00" stroke="currentColor" fill="none"/>
<path fill="currentColor"
	d="M341.23 63.01c7.80 -5.42 43.34 -5.42 51.14 -0.00
	l0.00 -0.25c-9.33 -7.17 -41.81 -7.17 -51.14 0.25"/>
</g>
</svg>
