<?xml version="1.0" standalone="no"?>
<!DOCTYPE svg PUBLIC "-//W3C//DTD SVG 1.1//EN"
	"http://www.w3.org/Graphics/SVG/1.1/DTD/svg11.dtd">
<svg xmlns="http://www.w3.org/2000/svg" version="1.1"
	xmlns:xlink="http://www.w3.org/1999/xlink"
	xml:space='preserve' color="black"
	width="7.38in" height="1.42in" viewBox="0 0 531 102">
<title>6507.abc (6507) tune 1</title>
<!-- Creator: abcm2ps-7.8.14 -->
<!-- CreationDate: Mar 13, 2016 18:54 -->
<!-- CommandLine: -qxg 6507.abc -O ../svgs/6507.svg -->
<g transform="scale(0.750)" stroke-width="0.70" font-family="Times" font-size="20.00">
<text x="354.13" y="21.67" text-anchor="middle">6507.  Symphony No. 7, Op. 60, 1st. Mvt. - 2nd. Theme</text>
</g>
<g transform="scale(0.750)" stroke-width="0.70" font-family="Times" font-size="14.00" font-style="italic">
<text x="694.93" y="45.34" text-anchor="end">Dmitri Shostakovich</text>
</g>
<g transform="scale(0.525)" stroke-width="0.70" font-family="Times" font-size="14.00" font-style="italic">
<defs>
<ellipse id="hd" rx="4.1" ry="2.9"
	transform="rotate(-20)" fill="currentColor"/>
</defs>
<use x="89.19" y="94.16" xlink:href="#hd"/>
<path d="M92.69 94.16v-20.00" stroke="currentColor" fill="none"/>
</g>
<g transform="scale(0.750)" stroke-width="0.70" font-family="Times" font-size="15.00" font-weight="bold">
<text x="70.13" y="68.01">= 120</text>
<path stroke="currentColor" fill="none"
	d="M131.33 113.01v-24.00"/>
<path stroke="currentColor" fill="none"
	d="M195.83 113.01v-24.00"/>
<path stroke="currentColor" fill="none"
	d="M291.33 113.01v-24.00"/>
<path stroke="currentColor" fill="none"
	d="M373.63 113.01v-24.00"/>
<path stroke="currentColor" fill="none"
	d="M470.53 113.01v-24.00"/>
<path stroke="currentColor" fill="none"
	d="M533.73 113.01v-24.00"/>
<path stroke="currentColor" fill="none"
	d="M614.43 113.01v-24.00"/>
<path stroke="currentColor" fill="none"
	d="M694.93 113.01v-24.00"/>
<path stroke="currentColor" fill="none"
	d="M13.33 113.01h681.60m-681.60 -6h681.60m-681.60 -6h681.60m-681.60 -6h681.60m-681.60 -6h681.60"/>
<defs>
<path id="utclef" fill="currentColor" d="m-50 -90
	c-72 -41 -72 -158 52 -188
	c150 -10 220 188 90 256
	c-114 52 -275 0 -293 -136
	c-15 -181 93 -229 220 -334
	c88 -87 79 -133 62 -210
	c-51 33 -94 105 -89 186
	c17 267 36 374 49 574
	c6 96 -19 134 -77 135
	c-80 1 -126 -93 -61 -133
	c85 -41 133 101 31 105
	c23 17 92 37 90 -92
	c-10 -223 -39 -342 -50 -617
	c0 -90 0 -162 96 -232
	c56 72 63 230 22 289
	c-74 106 -257 168 -255 316
	c9 153 148 185 252 133
	c86 -65 29 -192 -80 -176
	c-71 12 -105 67 -59 124"/>
<use id="tclef" transform="scale(0.045)"
	xlink:href="#utclef"/>
</defs>
<use x="25.33" y="113.01" xlink:href="#tclef"/>
<g font-family="serif" font-size="16" font-weight="bold" font-style="normal"
	transform="translate(43.83,113.01) scale(1.2,1)">
	<text y="-1" text-anchor="middle">4</text>
	<text y="-13" text-anchor="middle">4</text>
</g>
<use x="61.83" y="95.01" xlink:href="#hd"/>
<path d="M58.33 95.01v20.00" stroke="currentColor" fill="none"/>
<defs>
<path id="Hd" fill="currentColor" d="m3 -1.6
	c-1 -1.8 -7 1.4 -6 3.2
	c1 1.8 7 -1.4 6 -3.2
	m0.5 -0.3
	c2 3.8 -5 7.6 -7 3.8
	c-2 -3.8 5 -7.6 7 -3.8"/>
</defs>
<use x="83.53" y="86.01" xlink:href="#Hd"/>
<path d="M80.03 86.01v20.00" stroke="currentColor" fill="none"/>
<defs>
<path id="hl" stroke="currentColor" d="m-6 0h12"/>
</defs>
<use x="113.63" y="83.01" xlink:href="#hl"/>
<use x="113.63" y="83.01" xlink:href="#hd"/>
<path d="M110.13 83.01v20.00" stroke="currentColor" fill="none"/>
<use x="143.83" y="83.01" xlink:href="#hl"/>
<use x="143.83" y="83.01" xlink:href="#hd"/>
<path d="M140.33 83.01v20.00" stroke="currentColor" fill="none"/>
<use x="166.93" y="89.01" xlink:href="#Hd"/>
<circle fill="currentColor" cx="175.93" cy="86.01" r="1.2"/>
<defs>
<path id="usharp" fill="currentColor" d="
	m136 -702
	v890
	h32
	v-890
	m128 840
	h32
	v-888
	h-32
	m-232 286
	v116
	l338 -96
	v-116
	m-338 442
	v116
	l338 -98
	v-114"/>
<use id="sh0" transform="translate(-4,5) scale(0.018)"
	xlink:href="#usharp"/>
</defs>
<use x="156.93" y="89.01" xlink:href="#sh0"/>
<path d="M163.43 89.01v20.00" stroke="currentColor" fill="none"/>
<use x="208.33" y="86.01" xlink:href="#hd"/>
<path d="M204.83 86.01v20.00" stroke="currentColor" fill="none"/>
<use x="229.93" y="83.01" xlink:href="#hl"/>
<use x="229.93" y="83.01" xlink:href="#hd"/>
<path d="M226.43 83.01v20.00" stroke="currentColor" fill="none"/>
<use x="251.83" y="83.01" xlink:href="#hl"/>
<use x="251.83" y="80.01" xlink:href="#hd"/>
<path d="M248.33 80.01v21.00" stroke="currentColor" fill="none"/>
<use x="273.63" y="83.01" xlink:href="#hl"/>
<use x="273.63" y="77.01" xlink:href="#hl"/>
<use x="273.63" y="77.01" xlink:href="#hd"/>
<path d="M270.13 77.01v24.00" stroke="currentColor" fill="none"/>
<use x="303.83" y="83.01" xlink:href="#hl"/>
<use x="303.83" y="77.01" xlink:href="#hl"/>
<use x="303.83" y="74.01" xlink:href="#hd"/>
<path d="M300.33 74.01v27.00" stroke="currentColor" fill="none"/>
<use x="325.63" y="83.01" xlink:href="#hl"/>
<use x="325.63" y="80.01" xlink:href="#Hd"/>
<path d="M322.13 80.01v21.00" stroke="currentColor" fill="none"/>
<use x="356.03" y="83.01" xlink:href="#hl"/>
<use x="356.03" y="77.01" xlink:href="#hl"/>
<use x="356.03" y="71.01" xlink:href="#hl"/>
<use x="356.03" y="65.01" xlink:href="#hl"/>
<use x="356.03" y="65.01" xlink:href="#hd"/>
<path d="M352.53 65.01v36.00" stroke="currentColor" fill="none"/>
<use x="386.13" y="83.01" xlink:href="#hl"/>
<use x="386.13" y="77.01" xlink:href="#hl"/>
<use x="386.13" y="71.01" xlink:href="#hl"/>
<use x="386.13" y="65.01" xlink:href="#hl"/>
<use x="386.13" y="65.01" xlink:href="#hd"/>
<path d="M382.63 65.01v36.00" stroke="currentColor" fill="none"/>
<use x="408.03" y="83.01" xlink:href="#hl"/>
<use x="408.03" y="77.01" xlink:href="#hl"/>
<use x="408.03" y="71.01" xlink:href="#hl"/>
<use x="408.03" y="65.01" xlink:href="#hl"/>
<use x="408.03" y="62.01" xlink:href="#hd"/>
<path d="M404.53 62.01v39.00" stroke="currentColor" fill="none"/>
<use x="431.03" y="83.01" xlink:href="#hl"/>
<use x="431.03" y="77.01" xlink:href="#hl"/>
<use x="431.03" y="71.01" xlink:href="#hl"/>
<use x="431.03" y="68.01" xlink:href="#hd"/>
<use x="422.03" y="68.01" xlink:href="#sh0"/>
<path d="M427.53 68.01v33.00" stroke="currentColor" fill="none"/>
<use x="452.83" y="83.01" xlink:href="#hl"/>
<use x="452.83" y="77.01" xlink:href="#hl"/>
<use x="452.83" y="74.01" xlink:href="#hd"/>
<path d="M449.33 74.01v27.00" stroke="currentColor" fill="none"/>
<use x="483.03" y="83.01" xlink:href="#hl"/>
<use x="483.03" y="77.01" xlink:href="#hl"/>
<use x="483.03" y="71.01" xlink:href="#hl"/>
<use x="483.03" y="71.01" xlink:href="#hd"/>
<path d="M479.53 71.01v30.00" stroke="currentColor" fill="none"/>
<use x="504.93" y="83.01" xlink:href="#hl"/>
<use x="504.93" y="77.01" xlink:href="#hl"/>
<use x="504.93" y="77.01" xlink:href="#Hd"/>
<circle fill="currentColor" cx="513.93" cy="74.01" r="1.2"/>
<path d="M501.43 77.01v24.00" stroke="currentColor" fill="none"/>
<use x="546.23" y="83.01" xlink:href="#hl"/>
<use x="546.23" y="80.01" xlink:href="#hd"/>
<path d="M542.73 80.01v21.00" stroke="currentColor" fill="none"/>
<use x="568.03" y="83.01" xlink:href="#hl"/>
<use x="568.03" y="77.01" xlink:href="#hl"/>
<use x="568.03" y="71.01" xlink:href="#hl"/>
<use x="568.03" y="71.01" xlink:href="#hd"/>
<path d="M564.53 71.01v30.00" stroke="currentColor" fill="none"/>
<use x="589.93" y="83.01" xlink:href="#hl"/>
<use x="589.93" y="83.01" xlink:href="#Hd"/>
<path d="M586.43 83.01v20.00" stroke="currentColor" fill="none"/>
<use x="626.93" y="83.01" xlink:href="#hl"/>
<use x="626.93" y="80.01" xlink:href="#hd"/>
<path d="M623.43 80.01v21.00" stroke="currentColor" fill="none"/>
<use x="648.73" y="83.01" xlink:href="#hl"/>
<use x="648.73" y="77.01" xlink:href="#hl"/>
<use x="648.73" y="74.01" xlink:href="#hd"/>
<path d="M645.23 74.01v27.00" stroke="currentColor" fill="none"/>
<use x="670.43" y="86.01" xlink:href="#Hd"/>
<path d="M666.93 86.01v20.00" stroke="currentColor" fill="none"/>
<path fill="currentColor"
	d="M117.13 83.01c3.65 -4.92 19.51 -4.92 23.15 -0.00
	l0.00 -0.22c-4.34 -6.69 -18.81 -6.69 -23.15 0.22"/>
<path fill="currentColor"
	d="M359.53 65.01c3.65 -4.92 19.51 -4.92 23.15 -0.00
	l0.00 -0.22c-4.34 -6.69 -18.81 -6.69 -23.15 0.22"/>
</g>
</svg>
