<?xml version="1.0" standalone="no"?>
<!DOCTYPE svg PUBLIC "-//W3C//DTD SVG 1.1//EN"
	"http://www.w3.org/Graphics/SVG/1.1/DTD/svg11.dtd">
<svg xmlns="http://www.w3.org/2000/svg" version="1.1"
	xmlns:xlink="http://www.w3.org/1999/xlink"
	xml:space='preserve' color="black"
	width="7.38in" height="1.40in" viewBox="0 0 531 101">
<title>6509.abc (6509) tune 1</title>
<!-- Creator: abcm2ps-7.8.14 -->
<!-- CreationDate: Mar 13, 2016 18:54 -->
<!-- CommandLine: -qxg 6509.abc -O ../svgs/6509.svg -->
<g transform="scale(0.750)" stroke-width="0.70" font-family="Times" font-size="20.00">
<text x="354.13" y="21.67" text-anchor="middle">6509.  Symphony No. 7, Op. 60, 2nd. Mvt. - 1st. Theme</text>
</g>
<g transform="scale(0.750)" stroke-width="0.70" font-family="Times" font-size="14.00" font-style="italic">
<text x="694.93" y="45.34" text-anchor="end">Dmitri Shostakovich</text>
</g>
<g transform="scale(0.525)" stroke-width="0.70" font-family="Times" font-size="14.00" font-style="italic">
<defs>
<ellipse id="hd" rx="4.1" ry="2.9"
	transform="rotate(-20)" fill="currentColor"/>
</defs>
<use x="114.90" y="94.16" xlink:href="#hd"/>
<path d="M118.40 94.16v-20.00" stroke="currentColor" fill="none"/>
</g>
<g transform="scale(0.750)" stroke-width="0.70" font-family="Times" font-size="15.00" font-weight="bold">
<text x="88.13" y="68.01">= 120</text>
<path stroke="currentColor" fill="none"
	d="M266.33 111.01v-24.00"/>
<path stroke="currentColor" fill="none"
	d="M448.83 111.01v-24.00"/>
<path stroke="currentColor" fill="none"
	d="M661.93 111.01v-24.00"/>
<path stroke="currentColor" fill="none"
	d="M13.33 111.01h681.60m-681.60 -6h681.60m-681.60 -6h681.60m-681.60 -6h681.60m-681.60 -6h681.60"/>
<defs>
<path id="utclef" fill="currentColor" d="m-50 -90
	c-72 -41 -72 -158 52 -188
	c150 -10 220 188 90 256
	c-114 52 -275 0 -293 -136
	c-15 -181 93 -229 220 -334
	c88 -87 79 -133 62 -210
	c-51 33 -94 105 -89 186
	c17 267 36 374 49 574
	c6 96 -19 134 -77 135
	c-80 1 -126 -93 -61 -133
	c85 -41 133 101 31 105
	c23 17 92 37 90 -92
	c-10 -223 -39 -342 -50 -617
	c0 -90 0 -162 96 -232
	c56 72 63 230 22 289
	c-74 106 -257 168 -255 316
	c9 153 148 185 252 133
	c86 -65 29 -192 -80 -176
	c-71 12 -105 67 -59 124"/>
<use id="tclef" transform="scale(0.045)"
	xlink:href="#utclef"/>
</defs>
<use x="25.33" y="111.01" xlink:href="#tclef"/>
<defs>
<path id="usharp" fill="currentColor" d="
	m136 -702
	v890
	h32
	v-890
	m128 840
	h32
	v-888
	h-32
	m-232 286
	v116
	l338 -96
	v-116
	m-338 442
	v116
	l338 -98
	v-114"/>
<use id="sh0" transform="translate(-4,5) scale(0.018)"
	xlink:href="#usharp"/>
</defs>
<use x="40.33" y="87.01" xlink:href="#sh0"/>
<use x="45.83" y="96.01" xlink:href="#sh0"/>
<g font-family="serif" font-size="16" font-weight="bold" font-style="normal"
	transform="translate(61.83,111.01) scale(1.2,1)">
	<text y="-1" text-anchor="middle">4</text>
	<text y="-13" text-anchor="middle">4</text>
</g>
<defs>
<path id="r8e" fill="currentColor" d="m 0 0
	c-1.5 1.5 -2.4 2 -3.6 2
	c2.4 -2.8 -2.8 -4 -2.8 -1.2
	c0 2.7 4.3 2.4 5.9 0.6"/>
<g id="r8">
	<path d="m3.3 -4l-3.4 9.6" stroke="currentColor" fill="none"/>
	<use x="3.4" y="-4" xlink:href="#r8e"/>
</g>
</defs>
<use x="79.83" y="99.01" xlink:href="#r8"/>
<use x="100.63" y="99.01" xlink:href="#hd"/>
<path d="M97.13 99.01v20.00" stroke="currentColor" fill="none"/>
<path fill="currentColor"
	d="M97.13 119.01c0.6 -5.6 9.6 -9 5.6 -18.4
	c1.6 6 -1.3 11.6 -5.6 12.8
"/>
<defs>
<path id="hl" stroke="currentColor" d="m-6 0h12"/>
</defs>
<use x="121.43" y="81.01" xlink:href="#hl"/>
<use x="121.43" y="78.01" xlink:href="#hd"/>
<path d="M117.93 78.01v21.00" stroke="currentColor" fill="none"/>
<path fill="currentColor"
	d="M117.93 99.01c0.6 -5.6 9.6 -9 5.6 -18.4
	c1.6 6 -1.3 11.6 -5.6 12.8
"/>
<use x="142.33" y="81.01" xlink:href="#hl"/>
<use x="142.33" y="81.01" xlink:href="#hd"/>
<path d="M138.83 81.01v20.00" stroke="currentColor" fill="none"/>
<path fill="currentColor"
	d="M138.83 101.01c0.6 -5.6 9.6 -9 5.6 -18.4
	c1.6 6 -1.3 11.6 -5.6 12.8
"/>
<use x="163.23" y="84.01" xlink:href="#hd"/>
<path d="M159.73 84.01v20.00" stroke="currentColor" fill="none"/>
<path fill="currentColor"
	d="M159.73 104.01c0.6 -5.6 9.6 -9 5.6 -18.4
	c1.6 6 -1.3 11.6 -5.6 12.8
"/>
<path fill="currentColor"
	d="M180.13 109.31l14.20 -2.20v-3.20l-14.20 2.20"/>
<path fill="currentColor"
	d="M180.53 104.21l13.50 -2.10v-3.20l-13.50 2.10"/>
<use x="184.03" y="87.01" xlink:href="#hd"/>
<path d="M180.53 87.01v21.20" stroke="currentColor" fill="none"/>
<use x="197.43" y="84.01" xlink:href="#hd"/>
<path d="M193.93 84.01v22.10" stroke="currentColor" fill="none"/>
<path fill="currentColor"
	d="M208.53 104.11l14.20 2.20v-3.20l-14.20 -2.20"/>
<path fill="currentColor"
	d="M208.83 99.11l13.50 2.10v-3.20l-13.50 -2.10"/>
<use x="212.33" y="81.01" xlink:href="#hl"/>
<use x="212.33" y="81.01" xlink:href="#hd"/>
<path d="M208.83 81.01v22.10" stroke="currentColor" fill="none"/>
<use x="225.83" y="84.01" xlink:href="#hd"/>
<path d="M222.33 84.01v21.20" stroke="currentColor" fill="none"/>
<path fill="currentColor"
	d="M236.93 110.11l14.20 2.20v-3.20l-14.20 -2.20"/>
<path fill="currentColor"
	d="M237.23 105.11l13.50 2.10v-3.20l-13.50 -2.10"/>
<use x="240.73" y="87.01" xlink:href="#hd"/>
<path d="M237.23 87.01v22.10" stroke="currentColor" fill="none"/>
<use x="254.23" y="90.01" xlink:href="#hd"/>
<path d="M250.73 90.01v21.20" stroke="currentColor" fill="none"/>
<use x="278.83" y="93.01" xlink:href="#hd"/>
<path d="M275.33 93.01v20.00" stroke="currentColor" fill="none"/>
<path fill="currentColor"
	d="M275.33 113.01c0.6 -5.6 9.6 -9 5.6 -18.4
	c1.6 6 -1.3 11.6 -5.6 12.8
"/>
<use x="299.63" y="96.01" xlink:href="#hd"/>
<path d="M296.13 96.01v20.00" stroke="currentColor" fill="none"/>
<path fill="currentColor"
	d="M296.13 116.01c0.6 -5.6 9.6 -9 5.6 -18.4
	c1.6 6 -1.3 11.6 -5.6 12.8
"/>
<use x="320.43" y="99.01" xlink:href="#hd"/>
<path d="M316.93 99.01v20.00" stroke="currentColor" fill="none"/>
<path fill="currentColor"
	d="M316.93 119.01c0.6 -5.6 9.6 -9 5.6 -18.4
	c1.6 6 -1.3 11.6 -5.6 12.8
"/>
<path fill="currentColor"
	d="M337.43 118.31l14.20 -2.20v-3.20l-14.20 2.20"/>
<path fill="currentColor"
	d="M337.73 113.21l13.50 -2.10v-3.20l-13.50 2.10"/>
<use x="341.23" y="96.01" xlink:href="#hd"/>
<path d="M337.73 96.01v21.20" stroke="currentColor" fill="none"/>
<use x="354.73" y="93.01" xlink:href="#hd"/>
<path d="M351.23 93.01v22.10" stroke="currentColor" fill="none"/>
<use x="369.63" y="90.01" xlink:href="#hd"/>
<path d="M366.13 90.01v20.00" stroke="currentColor" fill="none"/>
<path fill="currentColor"
	d="M366.13 110.01c0.6 -5.6 9.6 -9 5.6 -18.4
	c1.6 6 -1.3 11.6 -5.6 12.8
"/>
<use x="390.43" y="81.01" xlink:href="#hl"/>
<use x="390.43" y="81.01" xlink:href="#hd"/>
<path d="M386.93 81.01v20.00" stroke="currentColor" fill="none"/>
<path fill="currentColor"
	d="M386.93 101.01c0.6 -5.6 9.6 -9 5.6 -18.4
	c1.6 6 -1.3 11.6 -5.6 12.8
"/>
<use x="411.23" y="90.01" xlink:href="#hd"/>
<path d="M407.73 90.01v20.00" stroke="currentColor" fill="none"/>
<path fill="currentColor"
	d="M407.73 110.01c0.6 -5.6 9.6 -9 5.6 -18.4
	c1.6 6 -1.3 11.6 -5.6 12.8
"/>
<use x="432.03" y="81.01" xlink:href="#hl"/>
<use x="432.03" y="81.01" xlink:href="#hd"/>
<path d="M428.53 81.01v20.00" stroke="currentColor" fill="none"/>
<path fill="currentColor"
	d="M428.53 101.01c0.6 -5.6 9.6 -9 5.6 -18.4
	c1.6 6 -1.3 11.6 -5.6 12.8
"/>
<path fill="currentColor"
	d="M457.53 107.11l14.20 2.20v-3.20l-14.20 -2.20"/>
<path fill="currentColor"
	d="M457.83 102.11l13.50 2.10v-3.20l-13.50 -2.10"/>
<use x="461.33" y="84.01" xlink:href="#hd"/>
<path d="M457.83 84.01v22.10" stroke="currentColor" fill="none"/>
<use x="474.83" y="87.01" xlink:href="#hd"/>
<path d="M471.33 87.01v21.20" stroke="currentColor" fill="none"/>
<path fill="currentColor"
	d="M485.93 113.11l14.20 2.20v-3.20l-14.20 -2.20"/>
<path fill="currentColor"
	d="M486.23 108.11l13.50 2.10v-3.20l-13.50 -2.10"/>
<use x="489.73" y="90.01" xlink:href="#hd"/>
<path d="M486.23 90.01v22.10" stroke="currentColor" fill="none"/>
<use x="503.23" y="93.01" xlink:href="#hd"/>
<path d="M499.73 93.01v21.20" stroke="currentColor" fill="none"/>
<use x="518.13" y="96.01" xlink:href="#hd"/>
<path d="M514.63 96.01v20.00" stroke="currentColor" fill="none"/>
<path fill="currentColor"
	d="M514.63 116.01c0.6 -5.6 9.6 -9 5.6 -18.4
	c1.6 6 -1.3 11.6 -5.6 12.8
"/>
<use x="538.93" y="96.01" xlink:href="#hd"/>
<path d="M535.43 96.01v20.00" stroke="currentColor" fill="none"/>
<path fill="currentColor"
	d="M535.43 116.01c0.6 -5.6 9.6 -9 5.6 -18.4
	c1.6 6 -1.3 11.6 -5.6 12.8
"/>
<path fill="currentColor"
	d="M555.93 118.31l14.20 -2.20v-3.20l-14.20 2.20"/>
<path fill="currentColor"
	d="M556.23 113.21l13.50 -2.10v-3.20l-13.50 2.10"/>
<use x="559.73" y="96.01" xlink:href="#hd"/>
<path d="M556.23 96.01v21.20" stroke="currentColor" fill="none"/>
<use x="573.23" y="93.01" xlink:href="#hd"/>
<path d="M569.73 93.01v22.10" stroke="currentColor" fill="none"/>
<path fill="currentColor"
	d="M584.23 119.11l14.20 2.20v-3.20l-14.20 -2.20"/>
<path fill="currentColor"
	d="M584.63 114.11l13.50 2.10v-3.20l-13.50 -2.10"/>
<use x="588.13" y="96.01" xlink:href="#hd"/>
<path d="M584.63 96.01v22.10" stroke="currentColor" fill="none"/>
<use x="601.53" y="99.01" xlink:href="#hd"/>
<path d="M598.03 99.01v21.20" stroke="currentColor" fill="none"/>
<use x="615.03" y="102.01" xlink:href="#hd"/>
<path d="M618.53 102.01v-20.00" stroke="currentColor" fill="none"/>
<path fill="currentColor"
	d="	M618.53 82.01c0.6 5.6 9.6 9 5.6 18.4
	c1.6 -6 -1.3 -11.6 -5.6 -12.8
"/>
<path fill="currentColor"
	d="M639.53 81.91l14.20 -2.20v3.20l-14.20 2.20"/>
<path fill="currentColor"
	d="M639.93 86.91l13.50 -2.10v3.20l-13.50 2.10"/>
<use x="636.43" y="105.01" xlink:href="#hd"/>
<path d="M639.93 105.01v-22.10" stroke="currentColor" fill="none"/>
<use x="649.83" y="102.01" xlink:href="#hd"/>
<path d="M653.33 102.01v-21.20" stroke="currentColor" fill="none"/>
<use x="674.43" y="99.01" xlink:href="#hd"/>
<path d="M670.93 99.01v20.00" stroke="currentColor" fill="none"/>
<path fill="currentColor"
	d="M670.93 119.01c0.6 -5.6 9.6 -9 5.6 -18.4
	c1.6 6 -1.3 11.6 -5.6 12.8
"/>
</g>
</svg>
