<?xml version="1.0" standalone="no"?>
<!DOCTYPE svg PUBLIC "-//W3C//DTD SVG 1.1//EN"
	"http://www.w3.org/Graphics/SVG/1.1/DTD/svg11.dtd">
<svg xmlns="http://www.w3.org/2000/svg" version="1.1"
	xmlns:xlink="http://www.w3.org/1999/xlink"
	xml:space='preserve' color="black"
	width="7.38in" height="1.34in" viewBox="0 0 531 97">
<title>6511.abc (6511) tune 1</title>
<!-- Creator: abcm2ps-7.8.14 -->
<!-- CreationDate: Mar 13, 2016 18:54 -->
<!-- CommandLine: -qxg 6511.abc -O ../svgs/6511.svg -->
<g transform="scale(0.750)" stroke-width="0.70" font-family="Times" font-size="20.00">
<text x="354.13" y="21.67" text-anchor="middle">6511.  Symphony No. 7, Op. 60, 2nd. Mvt. - 3rd. Theme</text>
</g>
<g transform="scale(0.750)" stroke-width="0.70" font-family="Times" font-size="14.00" font-style="italic">
<text x="694.93" y="45.34" text-anchor="end">Dmitri Shostakovich</text>
</g>
<g transform="scale(0.525)" stroke-width="0.70" font-family="Times" font-size="14.00" font-style="italic">
<defs>
<ellipse id="hd" rx="4.1" ry="2.9"
	transform="rotate(-20)" fill="currentColor"/>
</defs>
<use x="130.61" y="94.16" xlink:href="#hd"/>
<path d="M134.11 94.16v-20.00" stroke="currentColor" fill="none"/>
</g>
<g transform="scale(0.750)" stroke-width="0.70" font-family="Times" font-size="15.00" font-weight="bold">
<text x="99.13" y="68.01">= 120</text>
<path stroke="currentColor" fill="none"
	d="M137.23 106.01v-24.00"/>
<path stroke="currentColor" fill="none"
	d="M207.03 106.01v-24.00"/>
<path stroke="currentColor" fill="none"
	d="M272.93 106.01v-24.00"/>
<path stroke="currentColor" fill="none"
	d="M350.53 106.01v-24.00"/>
<path stroke="currentColor" fill="none"
	d="M428.23 106.01v-24.00"/>
<path stroke="currentColor" fill="none"
	d="M514.33 106.01v-24.00"/>
<path stroke="currentColor" fill="none"
	d="M602.03 106.01v-24.00"/>
<path stroke="currentColor" fill="none"
	d="M660.73 106.01v-24.00"/>
<path stroke="currentColor" fill="none"
	d="M13.33 106.01h681.60m-681.60 -6h681.60m-681.60 -6h681.60m-681.60 -6h681.60m-681.60 -6h681.60"/>
<defs>
<path id="utclef" fill="currentColor" d="m-50 -90
	c-72 -41 -72 -158 52 -188
	c150 -10 220 188 90 256
	c-114 52 -275 0 -293 -136
	c-15 -181 93 -229 220 -334
	c88 -87 79 -133 62 -210
	c-51 33 -94 105 -89 186
	c17 267 36 374 49 574
	c6 96 -19 134 -77 135
	c-80 1 -126 -93 -61 -133
	c85 -41 133 101 31 105
	c23 17 92 37 90 -92
	c-10 -223 -39 -342 -50 -617
	c0 -90 0 -162 96 -232
	c56 72 63 230 22 289
	c-74 106 -257 168 -255 316
	c9 153 148 185 252 133
	c86 -65 29 -192 -80 -176
	c-71 12 -105 67 -59 124"/>
<use id="tclef" transform="scale(0.045)"
	xlink:href="#utclef"/>
</defs>
<use x="25.33" y="106.01" xlink:href="#tclef"/>
<defs>
<path id="usharp" fill="currentColor" d="
	m136 -702
	v890
	h32
	v-890
	m128 840
	h32
	v-888
	h-32
	m-232 286
	v116
	l338 -96
	v-116
	m-338 442
	v116
	l338 -98
	v-114"/>
<use id="sh0" transform="translate(-4,5) scale(0.018)"
	xlink:href="#usharp"/>
</defs>
<use x="40.33" y="82.01" xlink:href="#sh0"/>
<use x="45.83" y="91.01" xlink:href="#sh0"/>
<use x="51.33" y="79.01" xlink:href="#sh0"/>
<use x="56.83" y="88.01" xlink:href="#sh0"/>
<g font-family="serif" font-size="16" font-weight="bold" font-style="normal"
	transform="translate(72.83,106.01) scale(1.2,1)">
	<text y="-1" text-anchor="middle">8</text>
	<text y="-13" text-anchor="middle">3</text>
</g>
<defs>
<path id="hl" stroke="currentColor" d="m-6 0h12"/>
</defs>
<use x="90.83" y="112.01" xlink:href="#hl"/>
<use x="90.83" y="118.01" xlink:href="#hl"/>
<use x="90.83" y="121.01" xlink:href="#hd"/>
<path d="M94.33 121.01v-27.00" stroke="currentColor" fill="none"/>
<path fill="currentColor"
	d="	M94.33 94.01c0.6 5.6 9.6 9 5.6 18.4
	c1.6 -6 -1.3 -11.6 -5.6 -12.8
"/>
<use x="113.13" y="112.01" xlink:href="#hl"/>
<use x="113.13" y="112.01" xlink:href="#hd"/>
<path d="M116.63 112.01v-20.00" stroke="currentColor" fill="none"/>
<use x="149.73" y="112.01" xlink:href="#hl"/>
<use x="149.73" y="112.01" xlink:href="#hd"/>
<path d="M153.23 112.01v-20.00" stroke="currentColor" fill="none"/>
<path fill="currentColor"
	d="M183.73 88.91l14.60 -2.20v3.20l-14.60 2.20"/>
<path fill="currentColor"
	d="M184.03 93.91l13.90 -2.10v3.20l-13.90 2.10"/>
<use x="180.53" y="112.01" xlink:href="#hl"/>
<use x="180.53" y="112.01" xlink:href="#hd"/>
<path d="M184.03 112.01v-22.10" stroke="currentColor" fill="none"/>
<use x="194.43" y="109.01" xlink:href="#hd"/>
<path d="M197.93 109.01v-21.20" stroke="currentColor" fill="none"/>
<path fill="currentColor"
	d="M222.63 82.91l14.60 -2.20v3.20l-14.60 2.20"/>
<path fill="currentColor"
	d="M223.03 87.91l13.90 -2.10v3.20l-13.90 2.10"/>
<use x="219.53" y="106.01" xlink:href="#hd"/>
<path d="M223.03 106.01v-22.10" stroke="currentColor" fill="none"/>
<use x="233.43" y="103.01" xlink:href="#hd"/>
<path d="M236.93 103.01v-21.20" stroke="currentColor" fill="none"/>
<use x="248.83" y="100.01" xlink:href="#hd"/>
<path d="M252.33 100.01v-20.00" stroke="currentColor" fill="none"/>
<path fill="currentColor"
	d="M281.63 116.21l53.30 -5.20v-3.20l-53.30 5.20"/>
<path fill="currentColor"
	d="M320.63 107.51l13.90 -1.30v-3.20l-13.90 1.30"/>
<use x="285.43" y="97.01" xlink:href="#hd"/>
<path d="M281.93 97.01v18.20" stroke="currentColor" fill="none"/>
<use x="304.73" y="94.01" xlink:href="#hd"/>
<path d="M301.23 94.01v19.30" stroke="currentColor" fill="none"/>
<use x="324.13" y="85.01" xlink:href="#hd"/>
<path d="M320.63 85.01v26.50" stroke="currentColor" fill="none"/>
<use x="338.03" y="88.01" xlink:href="#hd"/>
<path d="M334.53 88.01v22.10" stroke="currentColor" fill="none"/>
<path fill="currentColor"
	d="M359.23 114.01l53.30 0.00v-3.20l-53.30 -0.00"/>
<path fill="currentColor"
	d="M398.23 109.01l13.90 0.00v-3.20l-13.90 -0.00"/>
<use x="363.03" y="85.01" xlink:href="#hd"/>
<path d="M359.53 85.01v28.00" stroke="currentColor" fill="none"/>
<use x="382.43" y="97.01" xlink:href="#hd"/>
<path d="M378.93 97.01v16.00" stroke="currentColor" fill="none"/>
<use x="401.73" y="85.01" xlink:href="#hd"/>
<path d="M398.23 85.01v28.00" stroke="currentColor" fill="none"/>
<use x="415.63" y="88.01" xlink:href="#hd"/>
<path d="M412.13 88.01v25.00" stroke="currentColor" fill="none"/>
<path fill="currentColor"
	d="M436.83 116.21l20.00 6.10v-3.20l-20.00 -6.10"/>
<path fill="currentColor"
	d="M450.53 115.41l6.00 1.80v-3.20l-6.00 -1.80"/>
<use x="440.73" y="85.01" xlink:href="#hd"/>
<path d="M437.23 85.01v30.30" stroke="currentColor" fill="none"/>
<use x="460.03" y="100.01" xlink:href="#hd"/>
<path d="M456.53 100.01v21.20" stroke="currentColor" fill="none"/>
<path fill="currentColor"
	d="M477.13 71.71l28.50 4.30v3.20l-28.50 -4.30"/>
<path fill="currentColor"
	d="M477.43 76.81l27.90 4.20v3.20l-27.90 -4.20"/>
<use x="473.93" y="94.01" xlink:href="#hd"/>
<path d="M477.43 94.01v-21.20" stroke="currentColor" fill="none"/>
<use x="487.93" y="97.01" xlink:href="#hd"/>
<path d="M491.43 97.01v-22.10" stroke="currentColor" fill="none"/>
<use x="501.83" y="100.01" xlink:href="#hd"/>
<path d="M505.33 100.01v-23.00" stroke="currentColor" fill="none"/>
<path fill="currentColor"
	d="M530.03 81.51l20.00 2.40v3.20l-20.00 -2.40"/>
<path fill="currentColor"
	d="M543.73 88.11l6.00 0.70v3.20l-6.00 -0.70"/>
<use x="526.83" y="103.01" xlink:href="#hd"/>
<path d="M530.33 103.01v-20.50" stroke="currentColor" fill="none"/>
<use x="546.23" y="106.01" xlink:href="#hd"/>
<path d="M549.73 106.01v-21.20" stroke="currentColor" fill="none"/>
<path fill="currentColor"
	d="M564.73 77.71l28.50 4.30v3.20l-28.50 -4.30"/>
<path fill="currentColor"
	d="M565.13 82.81l27.90 4.20v3.20l-27.90 -4.20"/>
<use x="561.63" y="100.01" xlink:href="#hd"/>
<path d="M565.13 100.01v-21.20" stroke="currentColor" fill="none"/>
<use x="575.53" y="103.01" xlink:href="#hd"/>
<path d="M579.03 103.01v-22.10" stroke="currentColor" fill="none"/>
<use x="589.43" y="106.01" xlink:href="#hd"/>
<path d="M592.93 106.01v-23.00" stroke="currentColor" fill="none"/>
<use x="614.53" y="109.01" xlink:href="#hd"/>
<path d="M618.03 109.01v-20.00" stroke="currentColor" fill="none"/>
<path fill="currentColor"
	d="	M618.03 89.01c0.6 5.6 9.6 9 5.6 18.4
	c1.6 -6 -1.3 -11.6 -5.6 -12.8
"/>
<use x="636.63" y="112.01" xlink:href="#hl"/>
<use x="636.63" y="112.01" xlink:href="#hd"/>
<path d="M640.13 112.01v-20.00" stroke="currentColor" fill="none"/>
<use x="673.23" y="112.01" xlink:href="#hl"/>
<use x="673.23" y="112.01" xlink:href="#hd"/>
<path d="M676.73 112.01v-20.00" stroke="currentColor" fill="none"/>
<path fill="currentColor"
	d="	M676.73 92.01c0.6 5.6 9.6 9 5.6 18.4
	c1.6 -6 -1.3 -11.6 -5.6 -12.8
"/>
<path fill="currentColor"
	d="M116.63 112.01c4.66 5.03 24.94 5.03 29.60 -0.00
	l0.00 0.23c-5.55 6.80 -24.05 6.80 -29.60 -0.23"/>
<path fill="currentColor"
	d="M153.23 112.01c3.75 4.93 20.06 4.93 23.81 -0.00
	l0.00 0.22c-4.46 6.70 -19.34 6.70 -23.81 -0.22"/>
<path fill="currentColor"
	d="M640.13 112.01c4.66 5.03 24.94 5.03 29.61 -0.00
	l0.00 0.23c-5.55 6.80 -24.05 6.80 -29.61 -0.23"/>
</g>
</svg>
