<?xml version="1.0" standalone="no"?>
<!DOCTYPE svg PUBLIC "-//W3C//DTD SVG 1.1//EN"
	"http://www.w3.org/Graphics/SVG/1.1/DTD/svg11.dtd">
<svg xmlns="http://www.w3.org/2000/svg" version="1.1"
	xmlns:xlink="http://www.w3.org/1999/xlink"
	xml:space='preserve' color="black"
	width="7.38in" height="1.34in" viewBox="0 0 531 97">
<title>6584.abc (6584) tune 1</title>
<!-- Creator: abcm2ps-7.8.14 -->
<!-- CreationDate: Mar 13, 2016 18:54 -->
<!-- CommandLine: -qxg 6584.abc -O ../svgs/6584.svg -->
<g transform="scale(0.750)" stroke-width="0.70" font-family="Times" font-size="20.00">
<text x="354.13" y="21.67" text-anchor="middle">6584.  Pohjola&apos;s Daughter, Op. 49, 5th. Theme</text>
</g>
<g transform="scale(0.750)" stroke-width="0.70" font-family="Times" font-size="14.00" font-style="italic">
<text x="694.93" y="45.34" text-anchor="end">Jean Sibelius</text>
</g>
<g transform="scale(0.525)" stroke-width="0.70" font-family="Times" font-size="14.00" font-style="italic">
<defs>
<ellipse id="hd" rx="4.1" ry="2.9"
	transform="rotate(-20)" fill="currentColor"/>
</defs>
<use x="117.04" y="94.16" xlink:href="#hd"/>
<path d="M120.54 94.16v-20.00" stroke="currentColor" fill="none"/>
</g>
<g transform="scale(0.750)" stroke-width="0.70" font-family="Times" font-size="15.00" font-weight="bold">
<text x="89.63" y="68.01">= 120</text>
<path stroke="currentColor" fill="none"
	d="M258.23 106.01v-24.00"/>
<path stroke="currentColor" fill="none"
	d="M489.93 106.01v-24.00"/>
<path stroke="currentColor" fill="none"
	d="M13.33 106.01h681.60m-681.60 -6h681.60m-681.60 -6h681.60m-681.60 -6h681.60m-681.60 -6h681.60"/>
<defs>
<path id="utclef" fill="currentColor" d="m-50 -90
	c-72 -41 -72 -158 52 -188
	c150 -10 220 188 90 256
	c-114 52 -275 0 -293 -136
	c-15 -181 93 -229 220 -334
	c88 -87 79 -133 62 -210
	c-51 33 -94 105 -89 186
	c17 267 36 374 49 574
	c6 96 -19 134 -77 135
	c-80 1 -126 -93 -61 -133
	c85 -41 133 101 31 105
	c23 17 92 37 90 -92
	c-10 -223 -39 -342 -50 -617
	c0 -90 0 -162 96 -232
	c56 72 63 230 22 289
	c-74 106 -257 168 -255 316
	c9 153 148 185 252 133
	c86 -65 29 -192 -80 -176
	c-71 12 -105 67 -59 124"/>
<use id="tclef" transform="scale(0.045)"
	xlink:href="#utclef"/>
</defs>
<use x="25.33" y="106.01" xlink:href="#tclef"/>
<defs>
<path id="uflat" fill="currentColor" d="
	m100 -746
	h32
	v734
	l-32 4
	m32 -332
	c46 -72 152 -90 208 -20
	c100 110 -120 326 -208 348
	m0 -28
	c54 0 200 -206 130 -290
	c-50 -60 -130 -4 -130 34"/>
<use id="ft0" transform="translate(-3.5,3.5) scale(0.018)"
	xlink:href="#uflat"/>
</defs>
<use x="40.33" y="94.01" xlink:href="#ft0"/>
<use x="45.83" y="85.01" xlink:href="#ft0"/>
<g font-family="serif" font-size="16" font-weight="bold" font-style="normal"
	transform="translate(61.83,106.01) scale(1.2,1)">
	<text y="-1" text-anchor="middle">2</text>
	<text y="-13" text-anchor="middle">3</text>
</g>
<defs>
<path id="HD" fill="currentColor" d="m-2.7 -1.4
	c1.5 -2.8 6.9 0 5.3 2.7
	c-1.5 2.8 -6.9 0 -5.3 -2.7
	m8.3 1.4
	c0 -1.5 -2.2 -3 -5.6 -3
	c-3.4 0 -5.6 1.5 -5.6 3
	c0 1.5 2.2 3 5.6 3
	c3.4 0 5.6 -1.5 5.6 -3"/>
</defs>
<use x="82.33" y="82.01" xlink:href="#HD"/>
<use x="160.63" y="88.01" xlink:href="#hd"/>
<path d="M157.13 88.01v20.00" stroke="currentColor" fill="none"/>
<defs>
<path id="r8e" fill="currentColor" d="m 0 0
	c-1.5 1.5 -2.4 2 -3.6 2
	c2.4 -2.8 -2.8 -4 -2.8 -1.2
	c0 2.7 4.3 2.4 5.9 0.6"/>
<g id="r8">
	<path d="m3.3 -4l-3.4 9.6" stroke="currentColor" fill="none"/>
	<use x="3.4" y="-4" xlink:href="#r8e"/>
</g>
</defs>
<use x="196.33" y="94.01" xlink:href="#r8"/>
<path fill="currentColor"
	d="M220.53 108.01l18.70 0.00v-3.20l-18.70 -0.00"/>
<path fill="currentColor"
	d="M220.83 103.01l18.00 0.00v-3.20l-18.00 -0.00"/>
<use x="224.33" y="88.01" xlink:href="#hd"/>
<use x="215.33" y="88.01" xlink:href="#ft0"/>
<path d="M220.83 88.01v19.00" stroke="currentColor" fill="none"/>
<use x="242.33" y="88.01" xlink:href="#hd"/>
<defs>
<path id="unat" fill="currentColor" d="
	m96 -750
	h-32
	v716
	l32 -8
	l182 -54
	v282
	h32
	v-706
	l-34 10
	l-180 50
	v-290
	m0 592
	v-190
	l182 -52
	v188"/>
<use id="nt0" transform="translate(-3,5) scale(0.018)"
	xlink:href="#unat"/>
</defs>
<use x="233.33" y="88.01" xlink:href="#nt0"/>
<path d="M238.83 88.01v19.00" stroke="currentColor" fill="none"/>
<use x="272.33" y="79.01" xlink:href="#hd"/>
<path d="M268.83 79.01v20.00" stroke="currentColor" fill="none"/>
<path fill="currentColor"
	d="M268.83 99.01c0.6 -5.6 9.6 -9 5.6 -18.4
	c1.6 6 -1.3 11.6 -5.6 12.8
"/>
<defs>
<path id="Hd" fill="currentColor" d="m3 -1.6
	c-1 -1.8 -7 1.4 -6 3.2
	c1 1.8 7 -1.4 6 -3.2
	m0.5 -0.3
	c2 3.8 -5 7.6 -7 3.8
	c-2 -3.8 5 -7.6 7 -3.8"/>
</defs>
<use x="300.33" y="82.01" xlink:href="#Hd"/>
<circle fill="currentColor" cx="309.33" cy="79.01" r="1.2"/>
<path d="M296.83 82.01v20.00" stroke="currentColor" fill="none"/>
<use x="364.23" y="82.01" xlink:href="#hd"/>
<path d="M360.73 82.01v20.00" stroke="currentColor" fill="none"/>
<path fill="currentColor"
	d="M360.73 102.01c0.6 -5.6 9.6 -9 5.6 -18.4
	c1.6 6 -1.3 11.6 -5.6 12.8
"/>
<use x="392.23" y="88.01" xlink:href="#hd"/>
<path d="M388.73 88.01v20.00" stroke="currentColor" fill="none"/>
<use x="427.93" y="94.01" xlink:href="#r8"/>
<path fill="currentColor"
	d="M452.23 108.01l18.70 0.00v-3.20l-18.70 -0.00"/>
<path fill="currentColor"
	d="M452.53 103.01l18.00 0.00v-3.20l-18.00 -0.00"/>
<use x="456.03" y="88.01" xlink:href="#hd"/>
<use x="447.03" y="88.01" xlink:href="#ft0"/>
<path d="M452.53 88.01v19.00" stroke="currentColor" fill="none"/>
<use x="474.03" y="88.01" xlink:href="#hd"/>
<use x="465.03" y="88.01" xlink:href="#nt0"/>
<path d="M470.53 88.01v19.00" stroke="currentColor" fill="none"/>
<use x="503.93" y="79.01" xlink:href="#hd"/>
<path d="M500.43 79.01v20.00" stroke="currentColor" fill="none"/>
<path fill="currentColor"
	d="M500.43 99.01c0.6 -5.6 9.6 -9 5.6 -18.4
	c1.6 6 -1.3 11.6 -5.6 12.8
"/>
<use x="532.03" y="82.01" xlink:href="#hd"/>
<path d="M528.53 82.01v20.00" stroke="currentColor" fill="none"/>
<path fill="currentColor"
	d="M567.83 116.11l36.40 -6.50v-3.20l-36.40 6.50"/>
<path fill="currentColor"
	d="M574.13 110.01l-6.00 1.10v-3.20l6.00 -1.10"/>
<use x="571.63" y="82.01" xlink:href="#hd"/>
<path d="M568.13 82.01v33.00" stroke="currentColor" fill="none"/>
<defs>
<g id="r16">
	<path d="m3.3 -4l-4 15.6" stroke="currentColor" fill="none"/>
	<use x="3.4" y="-4" xlink:href="#r8e"/>
	<use x="1.9" y="2" xlink:href="#r8e"/>
</g>
</defs>
<use x="589.53" y="94.01" xlink:href="#r16"/>
<defs>
<path id="hl" stroke="currentColor" d="m-6 0h12"/>
</defs>
<use x="607.43" y="76.01" xlink:href="#hl"/>
<use x="607.43" y="70.01" xlink:href="#hl"/>
<use x="607.43" y="70.01" xlink:href="#hd"/>
<path d="M603.93 70.01v38.60" stroke="currentColor" fill="none"/>
<use x="635.43" y="76.01" xlink:href="#hl"/>
<use x="635.43" y="73.01" xlink:href="#hd"/>
<path d="M631.93 73.01v21.00" stroke="currentColor" fill="none"/>
<use x="675.13" y="76.01" xlink:href="#hl"/>
<use x="675.13" y="73.01" xlink:href="#hd"/>
<path d="M671.63 73.01v22.00" stroke="currentColor" fill="none"/>
<path fill="currentColor"
	d="M671.63 95.01c0.9 -3.7 9.1 -6.4 6 -12.4
	c1 5.4 -4.2 8.4 -6 8.4
M671.63 89.61c0.9 -3.7 9.1 -6.4 6 -12.4
	c1 5.4 -4.2 8.4 -6 8.4
"/>
<path fill="currentColor"
	d="M303.83 76.01c8.52 -5.52 48.34 -5.52 56.86 -0.00
	l0.00 -0.26c-10.23 -7.27 -46.63 -7.27 -56.86 0.26"/>
<path fill="currentColor"
	d="M535.53 82.01c5.15 -5.09 27.52 -5.09 32.67 -0.00
	l0.00 -0.23c-6.13 -6.86 -26.54 -6.86 -32.67 0.23"/>
<path fill="currentColor"
	d="M638.93 71.01c5.15 -5.09 27.52 -5.09 32.67 -0.00
	l0.00 -0.23c-6.13 -6.86 -26.54 -6.86 -32.67 0.23"/>
</g>
</svg>
