<?xml version="1.0" standalone="no"?>
<!DOCTYPE svg PUBLIC "-//W3C//DTD SVG 1.1//EN"
	"http://www.w3.org/Graphics/SVG/1.1/DTD/svg11.dtd">
<svg xmlns="http://www.w3.org/2000/svg" version="1.1"
	xmlns:xlink="http://www.w3.org/1999/xlink"
	xml:space='preserve' color="black"
	width="7.38in" height="1.40in" viewBox="0 0 531 101">
<title>6585.abc (6585) tune 1</title>
<!-- Creator: abcm2ps-7.8.14 -->
<!-- CreationDate: Mar 13, 2016 18:54 -->
<!-- CommandLine: -qxg 6585.abc -O ../svgs/6585.svg -->
<g transform="scale(0.750)" stroke-width="0.70" font-family="Times" font-size="20.00">
<text x="354.13" y="21.67" text-anchor="middle">6585.  Quartet, Op. 56, &quot;Voces Intimae&quot;, 1st. Mvt. - 1st. Theme A, Pt. 1</text>
</g>
<g transform="scale(0.750)" stroke-width="0.70" font-family="Times" font-size="14.00" font-style="italic">
<text x="694.93" y="45.34" text-anchor="end">Jean Sibelius</text>
</g>
<g transform="scale(0.525)" stroke-width="0.70" font-family="Times" font-size="14.00" font-style="italic">
<defs>
<ellipse id="hd" rx="4.1" ry="2.9"
	transform="rotate(-20)" fill="currentColor"/>
</defs>
<use x="107.04" y="94.16" xlink:href="#hd"/>
<path d="M110.54 94.16v-20.00" stroke="currentColor" fill="none"/>
</g>
<g transform="scale(0.750)" stroke-width="0.70" font-family="Times" font-size="15.00" font-weight="bold">
<text x="82.63" y="68.01">= 120</text>
<path stroke="currentColor" fill="none"
	d="M256.33 111.01v-24.00"/>
<path stroke="currentColor" fill="none"
	d="M402.43 111.01v-24.00"/>
<path stroke="currentColor" fill="none"
	d="M580.63 111.01v-24.00"/>
<path stroke="currentColor" fill="none"
	d="M694.93 111.01v-24.00"/>
<path stroke="currentColor" fill="none"
	d="M13.33 111.01h681.60m-681.60 -6h681.60m-681.60 -6h681.60m-681.60 -6h681.60m-681.60 -6h681.60"/>
<defs>
<path id="utclef" fill="currentColor" d="m-50 -90
	c-72 -41 -72 -158 52 -188
	c150 -10 220 188 90 256
	c-114 52 -275 0 -293 -136
	c-15 -181 93 -229 220 -334
	c88 -87 79 -133 62 -210
	c-51 33 -94 105 -89 186
	c17 267 36 374 49 574
	c6 96 -19 134 -77 135
	c-80 1 -126 -93 -61 -133
	c85 -41 133 101 31 105
	c23 17 92 37 90 -92
	c-10 -223 -39 -342 -50 -617
	c0 -90 0 -162 96 -232
	c56 72 63 230 22 289
	c-74 106 -257 168 -255 316
	c9 153 148 185 252 133
	c86 -65 29 -192 -80 -176
	c-71 12 -105 67 -59 124"/>
<use id="tclef" transform="scale(0.045)"
	xlink:href="#utclef"/>
</defs>
<use x="25.33" y="111.01" xlink:href="#tclef"/>
<defs>
<path id="uflat" fill="currentColor" d="
	m100 -746
	h32
	v734
	l-32 4
	m32 -332
	c46 -72 152 -90 208 -20
	c100 110 -120 326 -208 348
	m0 -28
	c54 0 200 -206 130 -290
	c-50 -60 -130 -4 -130 34"/>
<use id="ft0" transform="translate(-3.5,3.5) scale(0.018)"
	xlink:href="#uflat"/>
</defs>
<use x="40.33" y="99.01" xlink:href="#ft0"/>
<g font-family="serif" font-size="16" font-weight="bold" font-style="normal"
	transform="translate(56.33,111.01) scale(1.2,1)">
	<text y="-1" text-anchor="middle">4</text>
	<text y="-13" text-anchor="middle">4</text>
</g>
<defs>
<path id="hl" stroke="currentColor" d="m-6 0h12"/>
</defs>
<use x="74.33" y="81.01" xlink:href="#hl"/>
<use x="74.33" y="81.01" xlink:href="#hd"/>
<path d="M70.83 81.01v20.00" stroke="currentColor" fill="none"/>
<path fill="currentColor"
	d="M70.83 101.01c0.6 -5.6 9.6 -9 5.6 -18.4
	c1.6 6 -1.3 11.6 -5.6 12.8
"/>
<use x="97.73" y="81.01" xlink:href="#hl"/>
<use x="97.73" y="78.01" xlink:href="#hd"/>
<path d="M94.23 78.01v21.00" stroke="currentColor" fill="none"/>
<path fill="currentColor"
	d="M94.23 99.01c0.6 -5.6 9.6 -9 5.6 -18.4
	c1.6 6 -1.3 11.6 -5.6 12.8
"/>
<use x="121.13" y="81.01" xlink:href="#hl"/>
<use x="121.13" y="81.01" xlink:href="#hd"/>
<path d="M117.63 81.01v20.00" stroke="currentColor" fill="none"/>
<path fill="currentColor"
	d="M117.63 101.01c0.6 -5.6 9.6 -9 5.6 -18.4
	c1.6 6 -1.3 11.6 -5.6 12.8
"/>
<use x="144.43" y="84.01" xlink:href="#hd"/>
<path d="M140.93 84.01v20.00" stroke="currentColor" fill="none"/>
<path fill="currentColor"
	d="M140.93 104.01c0.6 -5.6 9.6 -9 5.6 -18.4
	c1.6 6 -1.3 11.6 -5.6 12.8
"/>
<use x="167.73" y="81.01" xlink:href="#hl"/>
<use x="167.73" y="81.01" xlink:href="#hd"/>
<path d="M164.23 81.01v20.00" stroke="currentColor" fill="none"/>
<path fill="currentColor"
	d="M164.23 101.01c0.6 -5.6 9.6 -9 5.6 -18.4
	c1.6 6 -1.3 11.6 -5.6 12.8
"/>
<use x="191.03" y="87.01" xlink:href="#hd"/>
<path d="M187.53 87.01v20.00" stroke="currentColor" fill="none"/>
<path fill="currentColor"
	d="M187.53 107.01c0.6 -5.6 9.6 -9 5.6 -18.4
	c1.6 6 -1.3 11.6 -5.6 12.8
"/>
<use x="214.33" y="90.01" xlink:href="#hd"/>
<path d="M210.83 90.01v20.00" stroke="currentColor" fill="none"/>
<path fill="currentColor"
	d="M210.83 110.01c0.6 -5.6 9.6 -9 5.6 -18.4
	c1.6 6 -1.3 11.6 -5.6 12.8
"/>
<use x="237.63" y="87.01" xlink:href="#hd"/>
<path d="M234.13 87.01v20.00" stroke="currentColor" fill="none"/>
<path fill="currentColor"
	d="M234.13 107.01c0.6 -5.6 9.6 -9 5.6 -18.4
	c1.6 6 -1.3 11.6 -5.6 12.8
"/>
<use x="268.83" y="102.01" xlink:href="#hd"/>
<path d="M272.33 102.01v-20.00" stroke="currentColor" fill="none"/>
<path fill="currentColor"
	d="	M272.33 82.01c0.6 5.6 9.6 9 5.6 18.4
	c1.6 -6 -1.3 -11.6 -5.6 -12.8
"/>
<use x="292.63" y="93.01" xlink:href="#hd"/>
<path d="M289.13 93.01v20.00" stroke="currentColor" fill="none"/>
<path fill="currentColor"
	d="M289.13 113.01c0.6 -5.6 9.6 -9 5.6 -18.4
	c1.6 6 -1.3 11.6 -5.6 12.8
"/>
<defs>
<path id="r8e" fill="currentColor" d="m 0 0
	c-1.5 1.5 -2.4 2 -3.6 2
	c2.4 -2.8 -2.8 -4 -2.8 -1.2
	c0 2.7 4.3 2.4 5.9 0.6"/>
<g id="r8">
	<path d="m3.3 -4l-3.4 9.6" stroke="currentColor" fill="none"/>
	<use x="3.4" y="-4" xlink:href="#r8e"/>
</g>
</defs>
<use x="313.63" y="99.01" xlink:href="#r8"/>
<defs>
<path id="Hd" fill="currentColor" d="m3 -1.6
	c-1 -1.8 -7 1.4 -6 3.2
	c1 1.8 7 -1.4 6 -3.2
	m0.5 -0.3
	c2 3.8 -5 7.6 -7 3.8
	c-2 -3.8 5 -7.6 7 -3.8"/>
</defs>
<use x="336.93" y="93.01" xlink:href="#Hd"/>
<path d="M333.43 93.01v20.00" stroke="currentColor" fill="none"/>
<use x="383.63" y="93.01" xlink:href="#hd"/>
<path d="M380.13 93.01v20.00" stroke="currentColor" fill="none"/>
<path fill="currentColor"
	d="M380.13 113.01c0.6 -5.6 9.6 -9 5.6 -18.4
	c1.6 6 -1.3 11.6 -5.6 12.8
"/>
<use x="414.93" y="93.01" xlink:href="#hd"/>
<path d="M411.43 93.01v20.00" stroke="currentColor" fill="none"/>
<path fill="currentColor"
	d="M411.43 113.01c0.6 -5.6 9.6 -9 5.6 -18.4
	c1.6 6 -1.3 11.6 -5.6 12.8
"/>
<use x="435.93" y="114.01" xlink:href="#hd"/>
<path d="M439.43 114.01v-20.00" stroke="currentColor" fill="none"/>
<path fill="currentColor"
	d="	M439.43 94.01c0.6 5.6 9.6 9 5.6 18.4
	c1.6 -6 -1.3 -11.6 -5.6 -12.8
"/>
<use x="459.53" y="111.01" xlink:href="#hd"/>
<path d="M463.03 111.01v-20.00" stroke="currentColor" fill="none"/>
<path fill="currentColor"
	d="	M463.03 91.01c0.6 5.6 9.6 9 5.6 18.4
	c1.6 -6 -1.3 -11.6 -5.6 -12.8
"/>
<use x="483.23" y="108.01" xlink:href="#hd"/>
<path d="M486.73 108.01v-20.00" stroke="currentColor" fill="none"/>
<path fill="currentColor"
	d="	M486.73 88.01c0.6 5.6 9.6 9 5.6 18.4
	c1.6 -6 -1.3 -11.6 -5.6 -12.8
"/>
<use x="506.83" y="105.01" xlink:href="#hd"/>
<path d="M510.33 105.01v-20.00" stroke="currentColor" fill="none"/>
<path fill="currentColor"
	d="	M510.33 85.01c0.6 5.6 9.6 9 5.6 18.4
	c1.6 -6 -1.3 -11.6 -5.6 -12.8
"/>
<use x="530.53" y="102.01" xlink:href="#hd"/>
<path d="M534.03 102.01v-20.00" stroke="currentColor" fill="none"/>
<path fill="currentColor"
	d="	M534.03 82.01c0.6 5.6 9.6 9 5.6 18.4
	c1.6 -6 -1.3 -11.6 -5.6 -12.8
"/>
<use x="554.23" y="93.01" xlink:href="#hd"/>
<path d="M550.73 93.01v20.00" stroke="currentColor" fill="none"/>
<use x="599.13" y="93.01" xlink:href="#hd"/>
<use x="590.13" y="93.01" xlink:href="#ft0"/>
<path d="M595.63 93.01v20.00" stroke="currentColor" fill="none"/>
<path fill="currentColor"
	d="M595.63 113.01c0.6 -5.6 9.6 -9 5.6 -18.4
	c1.6 6 -1.3 11.6 -5.6 12.8
"/>
<use x="622.83" y="93.01" xlink:href="#Hd"/>
<circle fill="currentColor" cx="631.83" cy="90.01" r="1.2"/>
<defs>
<path id="unat" fill="currentColor" d="
	m96 -750
	h-32
	v716
	l32 -8
	l182 -54
	v282
	h32
	v-706
	l-34 10
	l-180 50
	v-290
	m0 592
	v-190
	l182 -52
	v188"/>
<use id="nt0" transform="translate(-3,5) scale(0.018)"
	xlink:href="#unat"/>
</defs>
<use x="612.83" y="93.01" xlink:href="#nt0"/>
<path d="M619.33 93.01v20.00" stroke="currentColor" fill="none"/>
<use x="676.13" y="93.01" xlink:href="#hd"/>
<path d="M672.63 93.01v20.00" stroke="currentColor" fill="none"/>
<path fill="currentColor"
	d="M672.63 113.01c0.6 -5.6 9.6 -9 5.6 -18.4
	c1.6 6 -1.3 11.6 -5.6 12.8
"/>
<path fill="currentColor"
	d="M340.43 93.01c6.25 -5.21 33.41 -5.21 39.66 -0.00
	l0.00 -0.24c-7.44 -6.97 -32.22 -6.97 -39.66 0.24"/>
<path fill="currentColor"
	d="M387.13 93.01c3.82 -4.94 20.43 -4.94 24.25 -0.00
	l0.00 -0.22c-4.55 -6.71 -19.70 -6.71 -24.25 0.22"/>
<path fill="currentColor"
	d="M626.33 87.01c7.17 -5.33 39.17 -5.33 46.33 -0.00
	l0.00 -0.25c-8.56 -7.09 -37.78 -7.09 -46.33 0.25"/>
</g>
</svg>
