<?xml version="1.0" standalone="no"?>
<!DOCTYPE svg PUBLIC "-//W3C//DTD SVG 1.1//EN"
	"http://www.w3.org/Graphics/SVG/1.1/DTD/svg11.dtd">
<svg xmlns="http://www.w3.org/2000/svg" version="1.1"
	xmlns:xlink="http://www.w3.org/1999/xlink"
	xml:space='preserve' color="black"
	width="7.38in" height="1.57in" viewBox="0 0 531 113">
<title>6604.abc (6604) tune 1</title>
<!-- Creator: abcm2ps-7.8.14 -->
<!-- CreationDate: Mar 13, 2016 18:54 -->
<!-- CommandLine: -qxg 6604.abc -O ../svgs/6604.svg -->
<g transform="scale(0.750)" stroke-width="0.70" font-family="Times" font-size="20.00">
<text x="354.13" y="21.67" text-anchor="middle">6604.  The Swan of Tuonela, Op. 22, No. 3, 1st. Theme B</text>
</g>
<g transform="scale(0.750)" stroke-width="0.70" font-family="Times" font-size="14.00" font-style="italic">
<text x="694.93" y="45.34" text-anchor="end">Jean Sibelius</text>
</g>
<g transform="scale(0.525)" stroke-width="0.70" font-family="Times" font-size="14.00" font-style="italic">
<defs>
<ellipse id="hd" rx="4.1" ry="2.9"
	transform="rotate(-20)" fill="currentColor"/>
</defs>
<use x="102.04" y="94.16" xlink:href="#hd"/>
<path d="M105.54 94.16v-20.00" stroke="currentColor" fill="none"/>
</g>
<g transform="scale(0.750)" stroke-width="0.70" font-family="Times" font-size="15.00" font-weight="bold">
<text x="79.13" y="68.01">= 120</text>
<path stroke="currentColor" fill="none"
	d="M289.23 128.01v-24.00"/>
<path stroke="currentColor" fill="none"
	d="M557.83 128.01v-24.00"/>
<path stroke="currentColor" fill="none"
	d="M694.93 128.01v-24.00"/>
<path stroke="currentColor" fill="none"
	d="M13.33 128.01h681.60m-681.60 -6h681.60m-681.60 -6h681.60m-681.60 -6h681.60m-681.60 -6h681.60"/>
<path stroke="currentColor" fill="none"
	d="M298.23 64.01v-3l75.30 -0.00v3"/>
<rect x="328.83" y="55.01" width="14.00" height="12" fill="white"/>
<text font-family="serif" font-size="12" font-style="italic" font-weight="normal"
	x="335.83" y="65.01" text-anchor="middle">3</text>
<defs>
<path id="utclef" fill="currentColor" d="m-50 -90
	c-72 -41 -72 -158 52 -188
	c150 -10 220 188 90 256
	c-114 52 -275 0 -293 -136
	c-15 -181 93 -229 220 -334
	c88 -87 79 -133 62 -210
	c-51 33 -94 105 -89 186
	c17 267 36 374 49 574
	c6 96 -19 134 -77 135
	c-80 1 -126 -93 -61 -133
	c85 -41 133 101 31 105
	c23 17 92 37 90 -92
	c-10 -223 -39 -342 -50 -617
	c0 -90 0 -162 96 -232
	c56 72 63 230 22 289
	c-74 106 -257 168 -255 316
	c9 153 148 185 252 133
	c86 -65 29 -192 -80 -176
	c-71 12 -105 67 -59 124"/>
<use id="tclef" transform="scale(0.045)"
	xlink:href="#utclef"/>
</defs>
<use x="25.33" y="128.01" xlink:href="#tclef"/>
<g font-family="serif" font-size="16" font-weight="bold" font-style="normal"
	transform="translate(43.83,128.01) scale(1.2,1)">
	<text y="-1" text-anchor="middle">4</text>
	<text y="-13" text-anchor="middle">9</text>
</g>
<defs>
<path id="hl1" stroke="currentColor" d="m-7 0h14"/>
</defs>
<use x="71.83" y="98.01" xlink:href="#hl1"/>
<use x="71.83" y="92.01" xlink:href="#hl1"/>
<use x="71.83" y="86.01" xlink:href="#hl1"/>
<defs>
<path id="HD" fill="currentColor" d="m-2.7 -1.4
	c1.5 -2.8 6.9 0 5.3 2.7
	c-1.5 2.8 -6.9 0 -5.3 -2.7
	m8.3 1.4
	c0 -1.5 -2.2 -3 -5.6 -3
	c-3.4 0 -5.6 1.5 -5.6 3
	c0 1.5 2.2 3 5.6 3
	c3.4 0 5.6 -1.5 5.6 -3"/>
</defs>
<use x="71.83" y="83.01" xlink:href="#HD"/>
<defs>
<path id="usharp" fill="currentColor" d="
	m136 -702
	v890
	h32
	v-890
	m128 840
	h32
	v-888
	h-32
	m-232 286
	v116
	l338 -96
	v-116
	m-338 442
	v116
	l338 -98
	v-114"/>
<use id="sh0" transform="translate(-4,5) scale(0.018)"
	xlink:href="#usharp"/>
</defs>
<use x="59.83" y="83.01" xlink:href="#sh0"/>
<defs>
<path id="hl" stroke="currentColor" d="m-6 0h12"/>
</defs>
<use x="134.83" y="98.01" xlink:href="#hl"/>
<use x="134.83" y="92.01" xlink:href="#hl"/>
<use x="134.83" y="86.01" xlink:href="#hl"/>
<use x="134.83" y="83.01" xlink:href="#hd"/>
<use x="125.83" y="83.01" xlink:href="#sh0"/>
<path d="M131.33 83.01v33.00" stroke="currentColor" fill="none"/>
<use x="166.83" y="98.01" xlink:href="#hl"/>
<use x="166.83" y="92.01" xlink:href="#hl"/>
<use x="166.83" y="86.01" xlink:href="#hl"/>
<use x="166.83" y="86.01" xlink:href="#hd"/>
<path d="M163.33 86.01v30.00" stroke="currentColor" fill="none"/>
<use x="199.13" y="98.01" xlink:href="#hl"/>
<use x="199.13" y="92.01" xlink:href="#hl"/>
<use x="199.13" y="89.01" xlink:href="#hd"/>
<use x="190.13" y="89.01" xlink:href="#sh0"/>
<path d="M195.63 89.01v27.00" stroke="currentColor" fill="none"/>
<use x="231.13" y="98.01" xlink:href="#hl"/>
<use x="231.13" y="92.01" xlink:href="#hl"/>
<use x="231.13" y="86.01" xlink:href="#hl"/>
<use x="231.13" y="86.01" xlink:href="#hd"/>
<path d="M227.63 86.01v30.00" stroke="currentColor" fill="none"/>
<use x="263.53" y="98.01" xlink:href="#hl"/>
<use x="263.53" y="92.01" xlink:href="#hl"/>
<use x="263.53" y="86.01" xlink:href="#hl"/>
<use x="263.53" y="83.01" xlink:href="#hd"/>
<use x="254.53" y="83.01" xlink:href="#sh0"/>
<path d="M260.03 83.01v33.00" stroke="currentColor" fill="none"/>
<use x="302.23" y="98.01" xlink:href="#hl"/>
<use x="302.23" y="92.01" xlink:href="#hl"/>
<use x="302.23" y="86.01" xlink:href="#hl"/>
<use x="302.23" y="80.01" xlink:href="#hl"/>
<defs>
<path id="Hd" fill="currentColor" d="m3 -1.6
	c-1 -1.8 -7 1.4 -6 3.2
	c1 1.8 7 -1.4 6 -3.2
	m0.5 -0.3
	c2 3.8 -5 7.6 -7 3.8
	c-2 -3.8 5 -7.6 7 -3.8"/>
</defs>
<use x="302.23" y="80.01" xlink:href="#Hd"/>
<path d="M298.73 80.01v36.00" stroke="currentColor" fill="none"/>
<use x="337.83" y="98.01" xlink:href="#hl"/>
<use x="337.83" y="92.01" xlink:href="#hl"/>
<use x="337.83" y="86.01" xlink:href="#hl"/>
<use x="337.83" y="80.01" xlink:href="#hl"/>
<use x="337.83" y="80.01" xlink:href="#hd"/>
<path d="M334.33 80.01v36.00" stroke="currentColor" fill="none"/>
<path fill="currentColor"
	d="M334.33 116.01c0.6 -5.6 9.6 -9 5.6 -18.4
	c1.6 6 -1.3 11.6 -5.6 12.8
"/>
<use x="356.83" y="98.01" xlink:href="#hl"/>
<use x="356.83" y="92.01" xlink:href="#hl"/>
<use x="356.83" y="86.01" xlink:href="#hl"/>
<use x="356.83" y="83.01" xlink:href="#Hd"/>
<use x="346.83" y="83.01" xlink:href="#sh0"/>
<path d="M353.33 83.01v33.00" stroke="currentColor" fill="none"/>
<use x="392.53" y="98.01" xlink:href="#hl"/>
<use x="392.53" y="92.01" xlink:href="#hl"/>
<use x="392.53" y="86.01" xlink:href="#hl"/>
<use x="392.53" y="83.01" xlink:href="#hd"/>
<use x="383.53" y="83.01" xlink:href="#sh0"/>
<path d="M389.03 83.01v33.00" stroke="currentColor" fill="none"/>
<path fill="currentColor"
	d="M389.03 116.01c0.6 -5.6 9.6 -9 5.6 -18.4
	c1.6 6 -1.3 11.6 -5.6 12.8
"/>
<use x="415.73" y="98.01" xlink:href="#hl"/>
<use x="415.73" y="92.01" xlink:href="#hl"/>
<use x="415.73" y="89.01" xlink:href="#Hd"/>
<defs>
<path id="unat" fill="currentColor" d="
	m96 -750
	h-32
	v716
	l32 -8
	l182 -54
	v282
	h32
	v-706
	l-34 10
	l-180 50
	v-290
	m0 592
	v-190
	l182 -52
	v188"/>
<use id="nt0" transform="translate(-3,5) scale(0.018)"
	xlink:href="#unat"/>
</defs>
<use x="405.73" y="89.01" xlink:href="#nt0"/>
<path d="M412.23 89.01v27.00" stroke="currentColor" fill="none"/>
<use x="461.13" y="98.01" xlink:href="#hl"/>
<use x="461.13" y="92.01" xlink:href="#hl"/>
<use x="461.13" y="89.01" xlink:href="#hd"/>
<path d="M457.63 89.01v27.00" stroke="currentColor" fill="none"/>
<path fill="currentColor"
	d="M457.63 116.01c0.6 -5.6 9.6 -9 5.6 -18.4
	c1.6 6 -1.3 11.6 -5.6 12.8
"/>
<use x="483.93" y="98.01" xlink:href="#hl"/>
<use x="483.93" y="92.01" xlink:href="#hl"/>
<use x="483.93" y="86.01" xlink:href="#hl"/>
<use x="483.93" y="86.01" xlink:href="#hd"/>
<path d="M480.43 86.01v30.00" stroke="currentColor" fill="none"/>
<use x="516.33" y="98.01" xlink:href="#hl"/>
<use x="516.33" y="92.01" xlink:href="#hl"/>
<use x="516.33" y="86.01" xlink:href="#hl"/>
<use x="516.33" y="83.01" xlink:href="#Hd"/>
<circle fill="currentColor" cx="525.33" cy="83.01" r="1.2"/>
<use x="506.33" y="83.01" xlink:href="#sh0"/>
<path d="M512.83 83.01v33.00" stroke="currentColor" fill="none"/>
<use x="580.33" y="98.01" xlink:href="#hl1"/>
<use x="580.33" y="92.01" xlink:href="#hl1"/>
<use x="580.33" y="86.01" xlink:href="#hl1"/>
<defs>
<g id="HDD">
	<use xlink:href="#HD"/>
	<path d="m-6 -4v8m12 0v-8" stroke="currentColor" fill="none"/>
</g>
</defs>
<use x="580.33" y="83.01" xlink:href="#HDD"/>
<use x="568.33" y="83.01" xlink:href="#sh0"/>
<use x="669.23" y="98.01" xlink:href="#hl"/>
<use x="669.23" y="92.01" xlink:href="#hl"/>
<use x="669.23" y="86.01" xlink:href="#hl"/>
<use x="669.23" y="83.01" xlink:href="#hd"/>
<use x="660.23" y="83.01" xlink:href="#sh0"/>
<path d="M665.73 83.01v33.00" stroke="currentColor" fill="none"/>
<path fill="currentColor"
	d="M74.33 81.01c8.54 -5.53 48.43 -5.53 56.97 -0.00
	l0.00 -0.26c-10.25 -7.27 -46.73 -7.27 -56.97 0.26"/>
<path fill="currentColor"
	d="M305.73 80.01c4.52 -5.02 24.15 -5.02 28.67 -0.00
	l0.00 -0.23c-5.38 -6.79 -23.29 -6.79 -28.67 0.23"/>
<path fill="currentColor"
	d="M360.33 81.01c4.52 -5.02 24.15 -5.02 28.67 -0.00
	l0.00 -0.23c-5.38 -6.79 -23.29 -6.79 -28.67 0.23"/>
<path fill="currentColor"
	d="M419.23 87.01c6.06 -5.19 32.42 -5.19 38.48 -0.00
	l0.00 -0.24c-7.22 -6.95 -31.27 -6.95 -38.48 0.24"/>
<path fill="currentColor"
	d="M519.83 81.01c8.41 -5.51 47.52 -5.51 55.93 -0.00
	l0.00 -0.26c-10.09 -7.25 -45.85 -7.25 -55.93 0.26"/>
<path fill="currentColor"
	d="M582.83 81.01c11.46 -5.99 71.52 -5.99 82.98 -0.00
	l0.00 -0.28c-13.95 -7.71 -69.03 -7.71 -82.98 0.28"/>
</g>
</svg>
