<?xml version="1.0" standalone="no"?>
<!DOCTYPE svg PUBLIC "-//W3C//DTD SVG 1.1//EN"
	"http://www.w3.org/Graphics/SVG/1.1/DTD/svg11.dtd">
<svg xmlns="http://www.w3.org/2000/svg" version="1.1"
	xmlns:xlink="http://www.w3.org/1999/xlink"
	xml:space='preserve' color="black"
	width="7.38in" height="1.45in" viewBox="0 0 531 104">
<title>6704.abc (6704) tune 1</title>
<!-- Creator: abcm2ps-7.8.14 -->
<!-- CreationDate: Mar 13, 2016 18:54 -->
<!-- CommandLine: -qxg 6704.abc -O ../svgs/6704.svg -->
<g transform="scale(0.750)" stroke-width="0.70" font-family="Times" font-size="20.00">
<text x="354.13" y="21.67" text-anchor="middle">6704.  Aus Meinem Leben, Quartet No. 1 in E Minor, 1st. Mvt. - 1st. Theme, Pt. 1</text>
</g>
<g transform="scale(0.750)" stroke-width="0.70" font-family="Times" font-size="14.00" font-style="italic">
<text x="694.93" y="45.34" text-anchor="end">Bedrich Smetana</text>
</g>
<g transform="scale(0.525)" stroke-width="0.70" font-family="Times" font-size="14.00" font-style="italic">
<defs>
<ellipse id="hd" rx="4.1" ry="2.9"
	transform="rotate(-20)" fill="currentColor"/>
</defs>
<use x="107.04" y="94.16" xlink:href="#hd"/>
<path d="M110.54 94.16v-20.00" stroke="currentColor" fill="none"/>
</g>
<g transform="scale(0.750)" stroke-width="0.70" font-family="Times" font-size="15.00" font-weight="bold">
<text x="82.63" y="68.01">= 120</text>
<path stroke="currentColor" fill="none"
	d="M189.63 116.01v-24.00"/>
<path stroke="currentColor" fill="none"
	d="M345.73 116.01v-24.00"/>
<path stroke="currentColor" fill="none"
	d="M475.23 116.01v-24.00"/>
<path stroke="currentColor" fill="none"
	d="M13.33 116.01h544.30m-544.30 -6h544.30m-544.30 -6h544.30m-544.30 -6h544.30m-544.30 -6h544.30"/>
<defs>
<path id="utclef" fill="currentColor" d="m-50 -90
	c-72 -41 -72 -158 52 -188
	c150 -10 220 188 90 256
	c-114 52 -275 0 -293 -136
	c-15 -181 93 -229 220 -334
	c88 -87 79 -133 62 -210
	c-51 33 -94 105 -89 186
	c17 267 36 374 49 574
	c6 96 -19 134 -77 135
	c-80 1 -126 -93 -61 -133
	c85 -41 133 101 31 105
	c23 17 92 37 90 -92
	c-10 -223 -39 -342 -50 -617
	c0 -90 0 -162 96 -232
	c56 72 63 230 22 289
	c-74 106 -257 168 -255 316
	c9 153 148 185 252 133
	c86 -65 29 -192 -80 -176
	c-71 12 -105 67 -59 124"/>
<use id="tclef" transform="scale(0.045)"
	xlink:href="#utclef"/>
</defs>
<use x="25.33" y="116.01" xlink:href="#tclef"/>
<defs>
<path id="usharp" fill="currentColor" d="
	m136 -702
	v890
	h32
	v-890
	m128 840
	h32
	v-888
	h-32
	m-232 286
	v116
	l338 -96
	v-116
	m-338 442
	v116
	l338 -98
	v-114"/>
<use id="sh0" transform="translate(-4,5) scale(0.018)"
	xlink:href="#usharp"/>
</defs>
<use x="40.33" y="92.01" xlink:href="#sh0"/>
<g font-family="serif" font-size="16" font-weight="bold" font-style="normal"
	transform="translate(56.33,116.01) scale(1.2,1)">
	<text y="-1" text-anchor="middle">4</text>
	<text y="-13" text-anchor="middle">4</text>
</g>
<defs>
<path id="hl" stroke="currentColor" d="m-6 0h12"/>
</defs>
<use x="74.33" y="86.01" xlink:href="#hl"/>
<use x="74.33" y="83.01" xlink:href="#hd"/>
<path d="M70.83 83.01v21.00" stroke="currentColor" fill="none"/>
<path fill="currentColor"
	d="M70.83 104.01c0.6 -5.6 9.6 -9 5.6 -18.4
	c1.6 6 -1.3 11.6 -5.6 12.8
"/>
<use x="102.63" y="86.01" xlink:href="#hl"/>
<defs>
<path id="Hd" fill="currentColor" d="m3 -1.6
	c-1 -1.8 -7 1.4 -6 3.2
	c1 1.8 7 -1.4 6 -3.2
	m0.5 -0.3
	c2 3.8 -5 7.6 -7 3.8
	c-2 -3.8 5 -7.6 7 -3.8"/>
</defs>
<use x="102.63" y="83.01" xlink:href="#Hd"/>
<circle fill="currentColor" cx="111.63" cy="83.01" r="1.2"/>
<path d="M99.13 83.01v21.00" stroke="currentColor" fill="none"/>
<use x="167.03" y="86.01" xlink:href="#hl"/>
<use x="167.03" y="83.01" xlink:href="#hd"/>
<path d="M163.53 83.01v21.00" stroke="currentColor" fill="none"/>
<path fill="currentColor"
	d="M163.53 104.01c0.6 -5.6 9.6 -9 5.6 -18.4
	c1.6 6 -1.3 11.6 -5.6 12.8
"/>
<use x="203.83" y="86.01" xlink:href="#hl"/>
<use x="203.83" y="83.01" xlink:href="#hd"/>
<path d="M200.33 83.01v21.00" stroke="currentColor" fill="none"/>
<path fill="currentColor"
	d="M200.33 104.01c0.6 -5.6 9.6 -9 5.6 -18.4
	c1.6 6 -1.3 11.6 -5.6 12.8
"/>
<use x="232.13" y="95.01" xlink:href="#hd"/>
<path d="M228.63 95.01v20.00" stroke="currentColor" fill="none"/>
<defs>
<rect id="r2" fill="currentColor"
	x="-3.5" y="-3" width="7" height="3"/>
</defs>
<use x="272.13" y="104.01" xlink:href="#r2"/>
<defs>
<path id="r8e" fill="currentColor" d="m 0 0
	c-1.5 1.5 -2.4 2 -3.6 2
	c2.4 -2.8 -2.8 -4 -2.8 -1.2
	c0 2.7 4.3 2.4 5.9 0.6"/>
<g id="r8">
	<path d="m3.3 -4l-3.4 9.6" stroke="currentColor" fill="none"/>
	<use x="3.4" y="-4" xlink:href="#r8e"/>
</g>
</defs>
<use x="323.03" y="104.01" xlink:href="#r8"/>
<use x="359.83" y="92.01" xlink:href="#hd"/>
<path d="M356.33 92.01v20.00" stroke="currentColor" fill="none"/>
<path fill="currentColor"
	d="M356.33 112.01c0.6 -5.6 9.6 -9 5.6 -18.4
	c1.6 6 -1.3 11.6 -5.6 12.8
"/>
<use x="388.13" y="89.01" xlink:href="#Hd"/>
<circle fill="currentColor" cx="397.13" cy="89.01" r="1.2"/>
<path d="M384.63 89.01v20.00" stroke="currentColor" fill="none"/>
<use x="452.53" y="89.01" xlink:href="#hd"/>
<path d="M449.03 89.01v20.00" stroke="currentColor" fill="none"/>
<path fill="currentColor"
	d="M449.03 109.01c0.6 -5.6 9.6 -9 5.6 -18.4
	c1.6 6 -1.3 11.6 -5.6 12.8
"/>
<use x="489.33" y="89.01" xlink:href="#hd"/>
<path d="M485.83 89.01v20.00" stroke="currentColor" fill="none"/>
<path fill="currentColor"
	d="M485.83 109.01c0.6 -5.6 9.6 -9 5.6 -18.4
	c1.6 6 -1.3 11.6 -5.6 12.8
"/>
<use x="517.63" y="104.01" xlink:href="#hd"/>
<path d="M514.13 104.01v20.00" stroke="currentColor" fill="none"/>
<path fill="currentColor"
	d="M106.13 81.01c8.59 -5.53 48.81 -5.53 57.40 -0.00
	l0.00 -0.26c-10.31 -7.28 -47.09 -7.28 -57.40 0.26"/>
<path fill="currentColor"
	d="M170.53 81.01c4.69 -5.04 25.10 -5.04 29.79 -0.00
	l0.00 -0.23c-5.59 -6.81 -24.20 -6.81 -29.79 0.23"/>
<path fill="currentColor"
	d="M391.63 87.01c8.59 -5.53 48.81 -5.53 57.40 -0.00
	l0.00 -0.26c-10.31 -7.28 -47.09 -7.28 -57.40 0.26"/>
<path fill="currentColor"
	d="M456.03 87.01c4.69 -5.04 25.10 -5.04 29.79 -0.00
	l0.00 -0.23c-5.59 -6.81 -24.20 -6.81 -29.79 0.23"/>
</g>
</svg>
