<?xml version="1.0" standalone="no"?>
<!DOCTYPE svg PUBLIC "-//W3C//DTD SVG 1.1//EN"
	"http://www.w3.org/Graphics/SVG/1.1/DTD/svg11.dtd">
<svg xmlns="http://www.w3.org/2000/svg" version="1.1"
	xmlns:xlink="http://www.w3.org/1999/xlink"
	xml:space='preserve' color="black"
	width="7.38in" height="1.43in" viewBox="0 0 531 103">
<title>6709.abc (6709) tune 1</title>
<!-- Creator: abcm2ps-7.8.14 -->
<!-- CreationDate: Mar 13, 2016 18:54 -->
<!-- CommandLine: -qxg 6709.abc -O ../svgs/6709.svg -->
<g transform="scale(0.750)" stroke-width="0.70" font-family="Times" font-size="20.00">
<text x="354.13" y="21.67" text-anchor="middle">6709.  Aus Meinem Leben, Quartet No. 1 in E Minor, 3rd. Mvt.</text>
</g>
<g transform="scale(0.750)" stroke-width="0.70" font-family="Times" font-size="14.00" font-style="italic">
<text x="694.93" y="45.34" text-anchor="end">Bedrich Smetana</text>
</g>
<g transform="scale(0.525)" stroke-width="0.70" font-family="Times" font-size="14.00" font-style="italic">
<defs>
<ellipse id="hd" rx="4.1" ry="2.9"
	transform="rotate(-20)" fill="currentColor"/>
</defs>
<use x="130.61" y="94.16" xlink:href="#hd"/>
<path d="M134.11 94.16v-20.00" stroke="currentColor" fill="none"/>
</g>
<g transform="scale(0.750)" stroke-width="0.70" font-family="Times" font-size="15.00" font-weight="bold">
<text x="99.13" y="68.01">= 120</text>
<path stroke="currentColor" fill="none"
	d="M190.83 114.01v-24.00"/>
<path stroke="currentColor" fill="none"
	d="M306.73 114.01v-24.00"/>
<path stroke="currentColor" fill="none"
	d="M419.93 114.01v-24.00"/>
<path stroke="currentColor" fill="none"
	d="M542.53 114.01v-24.00"/>
<path stroke="currentColor" fill="none"
	d="M655.73 114.01v-24.00"/>
<path stroke="currentColor" fill="none"
	d="M13.33 114.01h681.60m-681.60 -6h681.60m-681.60 -6h681.60m-681.60 -6h681.60m-681.60 -6h681.60"/>
<defs>
<path id="utclef" fill="currentColor" d="m-50 -90
	c-72 -41 -72 -158 52 -188
	c150 -10 220 188 90 256
	c-114 52 -275 0 -293 -136
	c-15 -181 93 -229 220 -334
	c88 -87 79 -133 62 -210
	c-51 33 -94 105 -89 186
	c17 267 36 374 49 574
	c6 96 -19 134 -77 135
	c-80 1 -126 -93 -61 -133
	c85 -41 133 101 31 105
	c23 17 92 37 90 -92
	c-10 -223 -39 -342 -50 -617
	c0 -90 0 -162 96 -232
	c56 72 63 230 22 289
	c-74 106 -257 168 -255 316
	c9 153 148 185 252 133
	c86 -65 29 -192 -80 -176
	c-71 12 -105 67 -59 124"/>
<use id="tclef" transform="scale(0.045)"
	xlink:href="#utclef"/>
</defs>
<use x="25.33" y="114.01" xlink:href="#tclef"/>
<defs>
<path id="uflat" fill="currentColor" d="
	m100 -746
	h32
	v734
	l-32 4
	m32 -332
	c46 -72 152 -90 208 -20
	c100 110 -120 326 -208 348
	m0 -28
	c54 0 200 -206 130 -290
	c-50 -60 -130 -4 -130 34"/>
<use id="ft0" transform="translate(-3.5,3.5) scale(0.018)"
	xlink:href="#uflat"/>
</defs>
<use x="40.33" y="102.01" xlink:href="#ft0"/>
<use x="45.83" y="93.01" xlink:href="#ft0"/>
<use x="51.33" y="105.01" xlink:href="#ft0"/>
<use x="56.83" y="96.01" xlink:href="#ft0"/>
<g font-family="serif" font-size="16" font-weight="bold" font-style="normal"
	transform="translate(72.83,114.01) scale(1.2,1)">
	<text y="-1" text-anchor="middle">8</text>
	<text y="-13" text-anchor="middle">6</text>
</g>
<defs>
<path id="hl" stroke="currentColor" d="m-6 0h12"/>
</defs>
<use x="90.83" y="84.01" xlink:href="#hl"/>
<use x="90.83" y="78.01" xlink:href="#hl"/>
<use x="90.83" y="78.01" xlink:href="#hd"/>
<circle fill="currentColor" cx="98.83" cy="75.01" r="1.2"/>
<path d="M87.33 78.01v24.00" stroke="currentColor" fill="none"/>
<use x="132.93" y="84.01" xlink:href="#hl"/>
<use x="132.93" y="78.01" xlink:href="#hl"/>
<use x="132.93" y="78.01" xlink:href="#hd"/>
<path d="M129.43 78.01v24.00" stroke="currentColor" fill="none"/>
<use x="169.83" y="84.01" xlink:href="#hl"/>
<use x="169.83" y="78.01" xlink:href="#hl"/>
<use x="169.83" y="78.01" xlink:href="#hd"/>
<path d="M166.33 78.01v24.00" stroke="currentColor" fill="none"/>
<path fill="currentColor"
	d="M166.33 102.01c0.6 -5.6 9.6 -9 5.6 -18.4
	c1.6 6 -1.3 11.6 -5.6 12.8
"/>
<path fill="currentColor"
	d="M200.13 102.21l51.20 0.00v-3.20l-51.20 -0.00"/>
<path fill="currentColor"
	d="M245.03 97.21l6.00 0.00v-3.20l-6.00 -0.00"/>
<use x="204.03" y="84.01" xlink:href="#hl"/>
<use x="204.03" y="78.01" xlink:href="#hl"/>
<use x="204.03" y="78.01" xlink:href="#hd"/>
<path d="M200.53 78.01v23.20" stroke="currentColor" fill="none"/>
<use x="227.53" y="84.01" xlink:href="#hl"/>
<use x="227.53" y="81.01" xlink:href="#hd"/>
<circle fill="currentColor" cx="235.53" cy="81.01" r="1.2"/>
<path d="M224.03 81.01v20.20" stroke="currentColor" fill="none"/>
<use x="254.53" y="84.01" xlink:href="#hl"/>
<use x="254.53" y="78.01" xlink:href="#hl"/>
<use x="254.53" y="78.01" xlink:href="#hd"/>
<path d="M251.03 78.01v23.20" stroke="currentColor" fill="none"/>
<use x="273.03" y="84.01" xlink:href="#hl"/>
<use x="273.03" y="78.01" xlink:href="#hl"/>
<use x="273.03" y="75.01" xlink:href="#hd"/>
<circle fill="currentColor" cx="281.03" cy="75.01" r="1.2"/>
<path d="M269.53 75.01v27.00" stroke="currentColor" fill="none"/>
<use x="319.93" y="84.01" xlink:href="#hl"/>
<use x="319.93" y="78.01" xlink:href="#hl"/>
<use x="319.93" y="75.01" xlink:href="#hd"/>
<circle fill="currentColor" cx="327.93" cy="75.01" r="1.2"/>
<path d="M316.43 75.01v27.00" stroke="currentColor" fill="none"/>
<use x="362.13" y="84.01" xlink:href="#hl"/>
<use x="362.13" y="78.01" xlink:href="#hl"/>
<use x="362.13" y="75.01" xlink:href="#hd"/>
<path d="M358.63 75.01v27.00" stroke="currentColor" fill="none"/>
<use x="399.03" y="84.01" xlink:href="#hl"/>
<use x="399.03" y="78.01" xlink:href="#hl"/>
<use x="399.03" y="75.01" xlink:href="#hd"/>
<path d="M395.53 75.01v27.00" stroke="currentColor" fill="none"/>
<path fill="currentColor"
	d="M395.53 102.01c0.6 -5.6 9.6 -9 5.6 -18.4
	c1.6 6 -1.3 11.6 -5.6 12.8
"/>
<path fill="currentColor"
	d="M429.33 103.01l63.20 0.00v-3.20l-63.20 -0.00"/>
<path fill="currentColor"
	d="M480.23 98.01l11.90 0.00v-3.20l-11.90 -0.00"/>
<path fill="currentColor"
	d="M480.23 93.01l11.90 0.00v-3.20l-11.90 -0.00"/>
<use x="433.13" y="84.01" xlink:href="#hl"/>
<use x="433.13" y="78.01" xlink:href="#hl"/>
<use x="433.13" y="75.01" xlink:href="#hd"/>
<path d="M429.63 75.01v27.00" stroke="currentColor" fill="none"/>
<use x="456.73" y="84.01" xlink:href="#hl"/>
<use x="456.73" y="78.01" xlink:href="#hl"/>
<use x="456.73" y="78.01" xlink:href="#hd"/>
<circle fill="currentColor" cx="464.73" cy="75.01" r="1.2"/>
<path d="M453.23 78.01v24.00" stroke="currentColor" fill="none"/>
<use x="483.73" y="84.01" xlink:href="#hl"/>
<use x="483.73" y="78.01" xlink:href="#hl"/>
<use x="483.73" y="78.01" xlink:href="#hd"/>
<path d="M480.23 78.01v24.00" stroke="currentColor" fill="none"/>
<use x="495.63" y="84.01" xlink:href="#hl"/>
<use x="495.63" y="78.01" xlink:href="#hl"/>
<use x="495.63" y="75.01" xlink:href="#hd"/>
<path d="M492.13 75.01v27.00" stroke="currentColor" fill="none"/>
<use x="508.83" y="84.01" xlink:href="#hl"/>
<use x="508.83" y="78.01" xlink:href="#hl"/>
<use x="508.83" y="72.01" xlink:href="#hl"/>
<use x="508.83" y="72.01" xlink:href="#hd"/>
<circle fill="currentColor" cx="516.83" cy="69.01" r="1.2"/>
<path d="M505.33 72.01v30.00" stroke="currentColor" fill="none"/>
<use x="555.73" y="84.01" xlink:href="#hl"/>
<use x="555.73" y="78.01" xlink:href="#hl"/>
<use x="555.73" y="72.01" xlink:href="#hl"/>
<use x="555.73" y="72.01" xlink:href="#hd"/>
<circle fill="currentColor" cx="563.73" cy="69.01" r="1.2"/>
<path d="M552.23 72.01v30.00" stroke="currentColor" fill="none"/>
<use x="597.83" y="84.01" xlink:href="#hl"/>
<use x="597.83" y="78.01" xlink:href="#hl"/>
<use x="597.83" y="72.01" xlink:href="#hl"/>
<use x="597.83" y="72.01" xlink:href="#hd"/>
<path d="M594.33 72.01v30.00" stroke="currentColor" fill="none"/>
<use x="634.83" y="84.01" xlink:href="#hl"/>
<use x="634.83" y="78.01" xlink:href="#hl"/>
<use x="634.83" y="72.01" xlink:href="#hl"/>
<use x="634.83" y="69.01" xlink:href="#hd"/>
<path d="M631.33 69.01v33.00" stroke="currentColor" fill="none"/>
<path fill="currentColor"
	d="M631.33 102.01c0.6 -5.6 9.6 -9 5.6 -18.4
	c1.6 6 -1.3 11.6 -5.6 12.8
"/>
<use x="668.93" y="84.01" xlink:href="#hl"/>
<use x="668.93" y="78.01" xlink:href="#hl"/>
<use x="668.93" y="72.01" xlink:href="#hl"/>
<use x="668.93" y="72.01" xlink:href="#hd"/>
<path d="M665.43 72.01v30.00" stroke="currentColor" fill="none"/>
<path fill="currentColor"
	d="M665.43 102.01c0.6 -5.6 9.6 -9 5.6 -18.4
	c1.6 6 -1.3 11.6 -5.6 12.8
"/>
<path fill="currentColor"
	d="M460.23 72.01c3.16 -4.86 16.89 -4.86 20.05 -0.00
	l0.00 -0.22c-3.76 -6.64 -16.29 -6.64 -20.05 0.22"/>
</g>
</svg>
