<?xml version="1.0" standalone="no"?>
<!DOCTYPE svg PUBLIC "-//W3C//DTD SVG 1.1//EN"
	"http://www.w3.org/Graphics/SVG/1.1/DTD/svg11.dtd">
<svg xmlns="http://www.w3.org/2000/svg" version="1.1"
	xmlns:xlink="http://www.w3.org/1999/xlink"
	xml:space='preserve' color="black"
	width="7.38in" height="1.34in" viewBox="0 0 531 97">
<title>6779.abc (6779) tune 1</title>
<!-- Creator: abcm2ps-7.8.14 -->
<!-- CreationDate: Mar 13, 2016 18:54 -->
<!-- CommandLine: -qxg 6779.abc -O ../svgs/6779.svg -->
<g transform="scale(0.750)" stroke-width="0.70" font-family="Times" font-size="20.00">
<text x="354.13" y="21.67" text-anchor="middle">6779.  The Washington Post March, 2nd. Theme</text>
</g>
<g transform="scale(0.750)" stroke-width="0.70" font-family="Times" font-size="14.00" font-style="italic">
<text x="694.93" y="45.34" text-anchor="end">John Philip Sousa</text>
</g>
<g transform="scale(0.525)" stroke-width="0.70" font-family="Times" font-size="14.00" font-style="italic">
<defs>
<ellipse id="hd" rx="4.1" ry="2.9"
	transform="rotate(-20)" fill="currentColor"/>
</defs>
<use x="107.04" y="94.16" xlink:href="#hd"/>
<path d="M110.54 94.16v-20.00" stroke="currentColor" fill="none"/>
</g>
<g transform="scale(0.750)" stroke-width="0.70" font-family="Times" font-size="15.00" font-weight="bold">
<text x="82.63" y="68.01">= 120</text>
<path stroke="currentColor" fill="none"
	d="M159.43 106.01v-24.00"/>
<path stroke="currentColor" fill="none"
	d="M256.93 106.01v-24.00"/>
<path stroke="currentColor" fill="none"
	d="M340.43 106.01v-24.00"/>
<path stroke="currentColor" fill="none"
	d="M387.93 106.01v-24.00"/>
<path stroke="currentColor" fill="none"
	d="M494.13 106.01v-24.00"/>
<path stroke="currentColor" fill="none"
	d="M541.63 106.01v-24.00"/>
<path stroke="currentColor" fill="none"
	d="M647.43 106.01v-24.00"/>
<path stroke="currentColor" fill="none"
	d="M694.93 106.01v-24.00"/>
<path stroke="currentColor" fill="none"
	d="M13.33 106.01h681.60m-681.60 -6h681.60m-681.60 -6h681.60m-681.60 -6h681.60m-681.60 -6h681.60"/>
<defs>
<path id="utclef" fill="currentColor" d="m-50 -90
	c-72 -41 -72 -158 52 -188
	c150 -10 220 188 90 256
	c-114 52 -275 0 -293 -136
	c-15 -181 93 -229 220 -334
	c88 -87 79 -133 62 -210
	c-51 33 -94 105 -89 186
	c17 267 36 374 49 574
	c6 96 -19 134 -77 135
	c-80 1 -126 -93 -61 -133
	c85 -41 133 101 31 105
	c23 17 92 37 90 -92
	c-10 -223 -39 -342 -50 -617
	c0 -90 0 -162 96 -232
	c56 72 63 230 22 289
	c-74 106 -257 168 -255 316
	c9 153 148 185 252 133
	c86 -65 29 -192 -80 -176
	c-71 12 -105 67 -59 124"/>
<use id="tclef" transform="scale(0.045)"
	xlink:href="#utclef"/>
</defs>
<use x="25.33" y="106.01" xlink:href="#tclef"/>
<defs>
<path id="uflat" fill="currentColor" d="
	m100 -746
	h32
	v734
	l-32 4
	m32 -332
	c46 -72 152 -90 208 -20
	c100 110 -120 326 -208 348
	m0 -28
	c54 0 200 -206 130 -290
	c-50 -60 -130 -4 -130 34"/>
<use id="ft0" transform="translate(-3.5,3.5) scale(0.018)"
	xlink:href="#uflat"/>
</defs>
<use x="40.33" y="94.01" xlink:href="#ft0"/>
<g font-family="serif" font-size="16" font-weight="bold" font-style="normal"
	transform="translate(56.33,106.01) scale(1.2,1)">
	<text y="-1" text-anchor="middle">8</text>
	<text y="-13" text-anchor="middle">6</text>
</g>
<use x="74.33" y="91.01" xlink:href="#hd"/>
<path d="M70.83 91.01v20.00" stroke="currentColor" fill="none"/>
<path fill="currentColor"
	d="M70.83 111.01c0.6 -5.6 9.6 -9 5.6 -18.4
	c1.6 6 -1.3 11.6 -5.6 12.8
"/>
<use x="93.13" y="91.01" xlink:href="#hd"/>
<path d="M89.63 91.01v20.00" stroke="currentColor" fill="none"/>
<use x="119.33" y="91.01" xlink:href="#hd"/>
<path d="M115.83 91.01v20.00" stroke="currentColor" fill="none"/>
<path fill="currentColor"
	d="M115.83 111.01c0.6 -5.6 9.6 -9 5.6 -18.4
	c1.6 6 -1.3 11.6 -5.6 12.8
"/>
<use x="138.13" y="91.01" xlink:href="#hd"/>
<path d="M134.63 91.01v20.00" stroke="currentColor" fill="none"/>
<use x="171.93" y="91.01" xlink:href="#hd"/>
<path d="M168.43 91.01v20.00" stroke="currentColor" fill="none"/>
<path fill="currentColor"
	d="M168.43 111.01c0.6 -5.6 9.6 -9 5.6 -18.4
	c1.6 6 -1.3 11.6 -5.6 12.8
"/>
<use x="190.73" y="85.01" xlink:href="#hd"/>
<path d="M187.23 85.01v20.00" stroke="currentColor" fill="none"/>
<use x="216.93" y="79.01" xlink:href="#hd"/>
<path d="M213.43 79.01v20.00" stroke="currentColor" fill="none"/>
<path fill="currentColor"
	d="M213.43 99.01c0.6 -5.6 9.6 -9 5.6 -18.4
	c1.6 6 -1.3 11.6 -5.6 12.8
"/>
<defs>
<path id="hl" stroke="currentColor" d="m-6 0h12"/>
</defs>
<use x="235.73" y="76.01" xlink:href="#hl"/>
<use x="235.73" y="70.01" xlink:href="#hl"/>
<use x="235.73" y="67.01" xlink:href="#hd"/>
<path d="M232.23 67.01v27.00" stroke="currentColor" fill="none"/>
<use x="269.43" y="76.01" xlink:href="#hl"/>
<use x="269.43" y="70.01" xlink:href="#hl"/>
<use x="269.43" y="67.01" xlink:href="#hd"/>
<path d="M265.93 67.01v27.00" stroke="currentColor" fill="none"/>
<path fill="currentColor"
	d="M265.93 94.01c0.6 -5.6 9.6 -9 5.6 -18.4
	c1.6 6 -1.3 11.6 -5.6 12.8
"/>
<use x="288.43" y="76.01" xlink:href="#hl"/>
<use x="288.43" y="70.01" xlink:href="#hl"/>
<use x="288.43" y="67.01" xlink:href="#hd"/>
<circle fill="currentColor" cx="296.43" cy="67.01" r="1.2"/>
<path d="M284.93 67.01v27.00" stroke="currentColor" fill="none"/>
<use x="319.23" y="76.01" xlink:href="#hl"/>
<use x="319.23" y="70.01" xlink:href="#hl"/>
<use x="319.23" y="67.01" xlink:href="#hd"/>
<path d="M315.73 67.01v27.00" stroke="currentColor" fill="none"/>
<use x="353.43" y="76.01" xlink:href="#hl"/>
<use x="353.43" y="70.01" xlink:href="#hl"/>
<defs>
<path id="Hd" fill="currentColor" d="m3 -1.6
	c-1 -1.8 -7 1.4 -6 3.2
	c1 1.8 7 -1.4 6 -3.2
	m0.5 -0.3
	c2 3.8 -5 7.6 -7 3.8
	c-2 -3.8 5 -7.6 7 -3.8"/>
</defs>
<use x="353.43" y="67.01" xlink:href="#Hd"/>
<circle fill="currentColor" cx="362.43" cy="67.01" r="1.2"/>
<path d="M349.93 67.01v27.00" stroke="currentColor" fill="none"/>
<path fill="currentColor"
	d="M396.53 94.21l35.20 0.00v-3.20l-35.20 -0.00"/>
<use x="400.43" y="76.01" xlink:href="#hl"/>
<use x="400.43" y="70.01" xlink:href="#hl"/>
<use x="400.43" y="70.01" xlink:href="#hd"/>
<path d="M396.93 70.01v23.20" stroke="currentColor" fill="none"/>
<use x="417.63" y="76.01" xlink:href="#hl"/>
<use x="417.63" y="70.01" xlink:href="#hl"/>
<use x="417.63" y="70.01" xlink:href="#hd"/>
<path d="M414.13 70.01v23.20" stroke="currentColor" fill="none"/>
<use x="434.83" y="76.01" xlink:href="#hl"/>
<use x="434.83" y="76.01" xlink:href="#hd"/>
<path d="M431.33 76.01v17.20" stroke="currentColor" fill="none"/>
<use x="453.83" y="76.01" xlink:href="#hl"/>
<use x="453.83" y="70.01" xlink:href="#hl"/>
<use x="453.83" y="70.01" xlink:href="#hd"/>
<path d="M450.33 70.01v24.00" stroke="currentColor" fill="none"/>
<path fill="currentColor"
	d="M450.33 94.01c0.6 -5.6 9.6 -9 5.6 -18.4
	c1.6 6 -1.3 11.6 -5.6 12.8
"/>
<use x="472.93" y="76.01" xlink:href="#hl"/>
<use x="472.93" y="70.01" xlink:href="#hl"/>
<use x="472.93" y="67.01" xlink:href="#hd"/>
<path d="M469.43 67.01v27.00" stroke="currentColor" fill="none"/>
<use x="507.13" y="76.01" xlink:href="#hl"/>
<use x="507.13" y="70.01" xlink:href="#hl"/>
<use x="507.13" y="67.01" xlink:href="#Hd"/>
<circle fill="currentColor" cx="516.13" cy="67.01" r="1.2"/>
<path d="M503.63 67.01v27.00" stroke="currentColor" fill="none"/>
<path fill="currentColor"
	d="M550.23 95.61l35.00 2.60v-3.20l-35.00 -2.60"/>
<use x="554.13" y="76.01" xlink:href="#hl"/>
<use x="554.13" y="73.01" xlink:href="#hd"/>
<path d="M550.63 73.01v21.70" stroke="currentColor" fill="none"/>
<use x="571.33" y="76.01" xlink:href="#hl"/>
<use x="571.33" y="73.01" xlink:href="#hd"/>
<path d="M567.83 73.01v22.90" stroke="currentColor" fill="none"/>
<use x="588.43" y="79.01" xlink:href="#hd"/>
<path d="M584.93 79.01v18.20" stroke="currentColor" fill="none"/>
<use x="607.23" y="76.01" xlink:href="#hl"/>
<use x="607.23" y="73.01" xlink:href="#hd"/>
<path d="M603.73 73.01v21.00" stroke="currentColor" fill="none"/>
<path fill="currentColor"
	d="M603.73 94.01c0.6 -5.6 9.6 -9 5.6 -18.4
	c1.6 6 -1.3 11.6 -5.6 12.8
"/>
<use x="626.23" y="76.01" xlink:href="#hl"/>
<use x="626.23" y="70.01" xlink:href="#hl"/>
<use x="626.23" y="67.01" xlink:href="#hd"/>
<path d="M622.73 67.01v27.00" stroke="currentColor" fill="none"/>
<use x="660.43" y="76.01" xlink:href="#hl"/>
<use x="660.43" y="70.01" xlink:href="#hl"/>
<use x="660.43" y="67.01" xlink:href="#Hd"/>
<circle fill="currentColor" cx="669.43" cy="67.01" r="1.2"/>
<path d="M656.93 67.01v27.00" stroke="currentColor" fill="none"/>
<path fill="currentColor"
	d="M141.63 89.01c4.21 -4.98 22.51 -4.98 26.72 -0.00
	l0.00 -0.23c-5.01 -6.75 -21.71 -6.75 -26.72 0.23"/>
<path fill="currentColor"
	d="M239.23 65.01c4.21 -4.98 22.51 -4.98 26.72 -0.00
	l0.00 -0.23c-5.01 -6.75 -21.71 -6.75 -26.72 0.23"/>
<path fill="currentColor"
	d="M322.73 65.01c4.29 -4.99 22.93 -4.99 27.22 -0.00
	l0.00 -0.23c-5.10 -6.76 -22.11 -6.76 -27.22 0.23"/>
<path fill="currentColor"
	d="M476.43 65.01c4.29 -4.99 22.93 -4.99 27.22 -0.00
	l0.00 -0.23c-5.10 -6.76 -22.11 -6.76 -27.22 0.23"/>
<path fill="currentColor"
	d="M629.73 65.01c4.29 -4.99 22.93 -4.99 27.22 -0.00
	l0.00 -0.23c-5.10 -6.76 -22.11 -6.76 -27.22 0.23"/>
</g>
</svg>
