<?xml version="1.0" standalone="no"?>
<!DOCTYPE svg PUBLIC "-//W3C//DTD SVG 1.1//EN"
	"http://www.w3.org/Graphics/SVG/1.1/DTD/svg11.dtd">
<svg xmlns="http://www.w3.org/2000/svg" version="1.1"
	xmlns:xlink="http://www.w3.org/1999/xlink"
	xml:space='preserve' color="black"
	width="7.38in" height="1.34in" viewBox="0 0 531 97">
<title>6810.abc (6810) tune 1</title>
<!-- Creator: abcm2ps-7.8.14 -->
<!-- CreationDate: Mar 13, 2016 18:54 -->
<!-- CommandLine: -qxg 6810.abc -O ../svgs/6810.svg -->
<g transform="scale(0.750)" stroke-width="0.70" font-family="Times" font-size="20.00">
<text x="354.13" y="21.67" text-anchor="middle">6810.  Afro-American Symphony, 3rd. Mvt. - 1st. Theme</text>
</g>
<g transform="scale(0.750)" stroke-width="0.70" font-family="Times" font-size="14.00" font-style="italic">
<text x="694.93" y="45.34" text-anchor="end">William Grant Still</text>
</g>
<g transform="scale(0.525)" stroke-width="0.70" font-family="Times" font-size="14.00" font-style="italic">
<defs>
<ellipse id="hd" rx="4.1" ry="2.9"
	transform="rotate(-20)" fill="currentColor"/>
</defs>
<use x="130.61" y="94.16" xlink:href="#hd"/>
<path d="M134.11 94.16v-20.00" stroke="currentColor" fill="none"/>
</g>
<g transform="scale(0.750)" stroke-width="0.70" font-family="Times" font-size="15.00" font-weight="bold">
<text x="99.13" y="68.01">= 120</text>
<path stroke="currentColor" fill="none"
	d="M252.93 106.01v-24.00"/>
<path stroke="currentColor" fill="none"
	d="M410.23 106.01v-24.00"/>
<path stroke="currentColor" fill="none"
	d="M570.53 106.01v-24.00"/>
<path stroke="currentColor" fill="none"
	d="M13.33 106.01h681.60m-681.60 -6h681.60m-681.60 -6h681.60m-681.60 -6h681.60m-681.60 -6h681.60"/>
<defs>
<path id="utclef" fill="currentColor" d="m-50 -90
	c-72 -41 -72 -158 52 -188
	c150 -10 220 188 90 256
	c-114 52 -275 0 -293 -136
	c-15 -181 93 -229 220 -334
	c88 -87 79 -133 62 -210
	c-51 33 -94 105 -89 186
	c17 267 36 374 49 574
	c6 96 -19 134 -77 135
	c-80 1 -126 -93 -61 -133
	c85 -41 133 101 31 105
	c23 17 92 37 90 -92
	c-10 -223 -39 -342 -50 -617
	c0 -90 0 -162 96 -232
	c56 72 63 230 22 289
	c-74 106 -257 168 -255 316
	c9 153 148 185 252 133
	c86 -65 29 -192 -80 -176
	c-71 12 -105 67 -59 124"/>
<use id="tclef" transform="scale(0.045)"
	xlink:href="#utclef"/>
</defs>
<use x="25.33" y="106.01" xlink:href="#tclef"/>
<defs>
<path id="uflat" fill="currentColor" d="
	m100 -746
	h32
	v734
	l-32 4
	m32 -332
	c46 -72 152 -90 208 -20
	c100 110 -120 326 -208 348
	m0 -28
	c54 0 200 -206 130 -290
	c-50 -60 -130 -4 -130 34"/>
<use id="ft0" transform="translate(-3.5,3.5) scale(0.018)"
	xlink:href="#uflat"/>
</defs>
<use x="40.33" y="94.01" xlink:href="#ft0"/>
<use x="45.83" y="85.01" xlink:href="#ft0"/>
<use x="51.33" y="97.01" xlink:href="#ft0"/>
<use x="56.83" y="88.01" xlink:href="#ft0"/>
<g font-family="serif" font-size="16" font-weight="bold" font-style="normal"
	transform="translate(72.83,106.01) scale(1.2,1)">
	<text y="-1" text-anchor="middle">4</text>
	<text y="-13" text-anchor="middle">4</text>
</g>
<use x="90.83" y="79.01" xlink:href="#hd"/>
<path d="M87.33 79.01v20.00" stroke="currentColor" fill="none"/>
<path fill="currentColor"
	d="M87.33 99.01c0.6 -5.6 9.6 -9 5.6 -18.4
	c1.6 6 -1.3 11.6 -5.6 12.8
"/>
<use x="116.13" y="85.01" xlink:href="#hd"/>
<path d="M112.63 85.01v20.00" stroke="currentColor" fill="none"/>
<path fill="currentColor"
	d="M112.63 105.01c0.6 -5.6 9.6 -9 5.6 -18.4
	c1.6 6 -1.3 11.6 -5.6 12.8
"/>
<defs>
<path id="hl" stroke="currentColor" d="m-6 0h12"/>
</defs>
<use x="141.43" y="76.01" xlink:href="#hl"/>
<use x="141.43" y="76.01" xlink:href="#hd"/>
<path d="M137.93 76.01v20.00" stroke="currentColor" fill="none"/>
<path fill="currentColor"
	d="M137.93 96.01c0.6 -5.6 9.6 -9 5.6 -18.4
	c1.6 6 -1.3 11.6 -5.6 12.8
"/>
<use x="166.83" y="76.01" xlink:href="#hl"/>
<use x="166.83" y="76.01" xlink:href="#hd"/>
<path d="M163.33 76.01v20.00" stroke="currentColor" fill="none"/>
<defs>
<path id="r8e" fill="currentColor" d="m 0 0
	c-1.5 1.5 -2.4 2 -3.6 2
	c2.4 -2.8 -2.8 -4 -2.8 -1.2
	c0 2.7 4.3 2.4 5.9 0.6"/>
<g id="r8">
	<path d="m3.3 -4l-3.4 9.6" stroke="currentColor" fill="none"/>
	<use x="3.4" y="-4" xlink:href="#r8e"/>
</g>
</defs>
<use x="199.03" y="94.01" xlink:href="#r8"/>
<use x="224.33" y="76.01" xlink:href="#hl"/>
<use x="224.33" y="76.01" xlink:href="#hd"/>
<path d="M220.83 76.01v20.00" stroke="currentColor" fill="none"/>
<use x="265.73" y="76.01" xlink:href="#hl"/>
<use x="265.73" y="73.01" xlink:href="#hd"/>
<path d="M262.23 73.01v21.00" stroke="currentColor" fill="none"/>
<path fill="currentColor"
	d="M262.23 94.01c0.6 -5.6 9.6 -9 5.6 -18.4
	c1.6 6 -1.3 11.6 -5.6 12.8
"/>
<use x="291.13" y="79.01" xlink:href="#hd"/>
<path d="M287.63 79.01v20.00" stroke="currentColor" fill="none"/>
<path fill="currentColor"
	d="M287.63 99.01c0.6 -5.6 9.6 -9 5.6 -18.4
	c1.6 6 -1.3 11.6 -5.6 12.8
"/>
<use x="316.43" y="76.01" xlink:href="#hl"/>
<use x="316.43" y="70.01" xlink:href="#hl"/>
<use x="316.43" y="64.01" xlink:href="#hl"/>
<use x="316.43" y="64.01" xlink:href="#hd"/>
<path d="M312.93 64.01v30.00" stroke="currentColor" fill="none"/>
<path fill="currentColor"
	d="M312.93 94.01c0.6 -5.6 9.6 -9 5.6 -18.4
	c1.6 6 -1.3 11.6 -5.6 12.8
"/>
<use x="341.73" y="76.01" xlink:href="#hl"/>
<use x="341.73" y="70.01" xlink:href="#hl"/>
<use x="341.73" y="64.01" xlink:href="#hl"/>
<use x="341.73" y="64.01" xlink:href="#hd"/>
<path d="M338.23 64.01v30.00" stroke="currentColor" fill="none"/>
<defs>
<path id="r4" fill="currentColor" d="m-1 -8.5
	l3.6 5.1 -2.1 5.2 2.2 4.3
	c-2.6 -2.3 -5.1 0 -2.4 2.6
	c-4.8 -3 -1.5 -6.9 1.4 -4.1
	l-3.1 -4.5 1.9 -5.1 -1.5 -3.5"/>
</defs>
<use x="377.53" y="94.01" xlink:href="#r4"/>
<circle fill="currentColor" cx="385.53" cy="91.01" r="1.2"/>
<use x="423.03" y="94.01" xlink:href="#r4"/>
<use x="458.73" y="76.01" xlink:href="#hl"/>
<use x="458.73" y="70.01" xlink:href="#hl"/>
<use x="458.73" y="67.01" xlink:href="#hd"/>
<circle fill="currentColor" cx="466.73" cy="67.01" r="1.2"/>
<path d="M455.23 67.01v27.00" stroke="currentColor" fill="none"/>
<use x="499.53" y="76.01" xlink:href="#hl"/>
<use x="499.53" y="70.01" xlink:href="#hl"/>
<use x="499.53" y="64.01" xlink:href="#hl"/>
<use x="499.53" y="64.01" xlink:href="#hd"/>
<path d="M496.03 64.01v30.00" stroke="currentColor" fill="none"/>
<path fill="currentColor"
	d="M496.03 94.01c0.6 -5.6 9.6 -9 5.6 -18.4
	c1.6 6 -1.3 11.6 -5.6 12.8
"/>
<use x="524.93" y="76.01" xlink:href="#hl"/>
<use x="524.93" y="70.01" xlink:href="#hl"/>
<use x="524.93" y="70.01" xlink:href="#hd"/>
<path d="M521.43 70.01v24.00" stroke="currentColor" fill="none"/>
<path fill="currentColor"
	d="M521.43 94.01c0.6 -5.6 9.6 -9 5.6 -18.4
	c1.6 6 -1.3 11.6 -5.6 12.8
"/>
<use x="550.23" y="76.01" xlink:href="#hl"/>
<use x="550.23" y="76.01" xlink:href="#hd"/>
<path d="M546.73 76.01v20.00" stroke="currentColor" fill="none"/>
<path fill="currentColor"
	d="M546.73 96.01c0.6 -5.6 9.6 -9 5.6 -18.4
	c1.6 6 -1.3 11.6 -5.6 12.8
"/>
<use x="583.33" y="76.01" xlink:href="#hl"/>
<use x="583.33" y="73.01" xlink:href="#hd"/>
<path d="M579.83 73.01v21.00" stroke="currentColor" fill="none"/>
<path fill="currentColor"
	d="M579.83 94.01c0.6 -5.6 9.6 -9 5.6 -18.4
	c1.6 6 -1.3 11.6 -5.6 12.8
"/>
<use x="608.73" y="79.01" xlink:href="#hd"/>
<path d="M605.23 79.01v20.00" stroke="currentColor" fill="none"/>
<path fill="currentColor"
	d="M605.23 99.01c0.6 -5.6 9.6 -9 5.6 -18.4
	c1.6 6 -1.3 11.6 -5.6 12.8
"/>
<use x="634.03" y="76.01" xlink:href="#hl"/>
<use x="634.03" y="76.01" xlink:href="#hd"/>
<path d="M630.53 76.01v20.00" stroke="currentColor" fill="none"/>
<path fill="currentColor"
	d="M630.53 96.01c0.6 -5.6 9.6 -9 5.6 -18.4
	c1.6 6 -1.3 11.6 -5.6 12.8
"/>
<use x="659.43" y="76.01" xlink:href="#hl"/>
<use x="659.43" y="76.01" xlink:href="#hd"/>
<path d="M655.93 76.01v20.00" stroke="currentColor" fill="none"/>
</g>
</svg>
