<?xml version="1.0" standalone="no"?>
<!DOCTYPE svg PUBLIC "-//W3C//DTD SVG 1.1//EN"
	"http://www.w3.org/Graphics/SVG/1.1/DTD/svg11.dtd">
<svg xmlns="http://www.w3.org/2000/svg" version="1.1"
	xmlns:xlink="http://www.w3.org/1999/xlink"
	xml:space='preserve' color="black"
	width="7.38in" height="1.58in" viewBox="0 0 531 114">
<title>6862.abc (6862) tune 1</title>
<!-- Creator: abcm2ps-7.8.14 -->
<!-- CreationDate: Mar 13, 2016 18:54 -->
<!-- CommandLine: -qxg 6862.abc -O ../svgs/6862.svg -->
<g transform="scale(0.750)" stroke-width="0.70" font-family="Times" font-size="20.00">
<text x="354.13" y="21.67" text-anchor="middle">6862.  Fruhlingsteimmen, Op. 410, Waltz, 6th. Theme</text>
</g>
<g transform="scale(0.750)" stroke-width="0.70" font-family="Times" font-size="14.00" font-style="italic">
<text x="694.93" y="45.34" text-anchor="end">Johann, Jr. Strauss</text>
</g>
<g transform="scale(0.525)" stroke-width="0.70" font-family="Times" font-size="14.00" font-style="italic">
<defs>
<ellipse id="hd" rx="4.1" ry="2.9"
	transform="rotate(-20)" fill="currentColor"/>
</defs>
<use x="130.61" y="94.16" xlink:href="#hd"/>
<path d="M134.11 94.16v-20.00" stroke="currentColor" fill="none"/>
</g>
<g transform="scale(0.750)" stroke-width="0.70" font-family="Times" font-size="15.00" font-weight="bold">
<text x="99.13" y="68.01">= 120</text>
<path stroke="currentColor" fill="none"
	d="M169.73 129.01v-24.00"/>
<path stroke="currentColor" fill="none"
	d="M235.83 129.01v-24.00"/>
<path stroke="currentColor" fill="none"
	d="M317.93 129.01v-24.00"/>
<path stroke="currentColor" fill="none"
	d="M386.53 129.01v-24.00"/>
<path stroke="currentColor" fill="none"
	d="M468.43 129.01v-24.00"/>
<path stroke="currentColor" fill="none"
	d="M536.73 129.01v-24.00"/>
<path stroke="currentColor" fill="none"
	d="M619.93 129.01v-24.00"/>
<path stroke="currentColor" fill="none"
	d="M694.93 129.01v-24.00"/>
<path stroke="currentColor" fill="none"
	d="M13.33 129.01h681.60m-681.60 -6h681.60m-681.60 -6h681.60m-681.60 -6h681.60m-681.60 -6h681.60"/>
<defs>
<path id="utclef" fill="currentColor" d="m-50 -90
	c-72 -41 -72 -158 52 -188
	c150 -10 220 188 90 256
	c-114 52 -275 0 -293 -136
	c-15 -181 93 -229 220 -334
	c88 -87 79 -133 62 -210
	c-51 33 -94 105 -89 186
	c17 267 36 374 49 574
	c6 96 -19 134 -77 135
	c-80 1 -126 -93 -61 -133
	c85 -41 133 101 31 105
	c23 17 92 37 90 -92
	c-10 -223 -39 -342 -50 -617
	c0 -90 0 -162 96 -232
	c56 72 63 230 22 289
	c-74 106 -257 168 -255 316
	c9 153 148 185 252 133
	c86 -65 29 -192 -80 -176
	c-71 12 -105 67 -59 124"/>
<use id="tclef" transform="scale(0.045)"
	xlink:href="#utclef"/>
</defs>
<use x="25.33" y="129.01" xlink:href="#tclef"/>
<defs>
<path id="uflat" fill="currentColor" d="
	m100 -746
	h32
	v734
	l-32 4
	m32 -332
	c46 -72 152 -90 208 -20
	c100 110 -120 326 -208 348
	m0 -28
	c54 0 200 -206 130 -290
	c-50 -60 -130 -4 -130 34"/>
<use id="ft0" transform="translate(-3.5,3.5) scale(0.018)"
	xlink:href="#uflat"/>
</defs>
<use x="40.33" y="117.01" xlink:href="#ft0"/>
<use x="45.83" y="108.01" xlink:href="#ft0"/>
<use x="51.33" y="120.01" xlink:href="#ft0"/>
<use x="56.83" y="111.01" xlink:href="#ft0"/>
<g font-family="serif" font-size="16" font-weight="bold" font-style="normal"
	transform="translate(72.83,129.01) scale(1.2,1)">
	<text y="-1" text-anchor="middle">4</text>
	<text y="-13" text-anchor="middle">3</text>
</g>
<defs>
<path id="hl" stroke="currentColor" d="m-6 0h12"/>
</defs>
<use x="90.83" y="99.01" xlink:href="#hl"/>
<use x="90.83" y="93.01" xlink:href="#hl"/>
<use x="90.83" y="87.01" xlink:href="#hl"/>
<use x="90.83" y="81.01" xlink:href="#hl"/>
<use x="90.83" y="78.01" xlink:href="#hd"/>
<path d="M87.33 78.01v39.00" stroke="currentColor" fill="none"/>
<path fill="currentColor"
	d="M87.33 117.01c0.6 -5.6 9.6 -9 5.6 -18.4
	c1.6 6 -1.3 11.6 -5.6 12.8
"/>
<defs>
<path id="r8e" fill="currentColor" d="m 0 0
	c-1.5 1.5 -2.4 2 -3.6 2
	c2.4 -2.8 -2.8 -4 -2.8 -1.2
	c0 2.7 4.3 2.4 5.9 0.6"/>
<g id="r8">
	<path d="m3.3 -4l-3.4 9.6" stroke="currentColor" fill="none"/>
	<use x="3.4" y="-4" xlink:href="#r8e"/>
</g>
</defs>
<use x="107.23" y="117.01" xlink:href="#r8"/>
<use x="125.33" y="99.01" xlink:href="#hl"/>
<use x="125.33" y="93.01" xlink:href="#hl"/>
<use x="125.33" y="87.01" xlink:href="#hl"/>
<use x="125.33" y="81.01" xlink:href="#hl"/>
<use x="125.33" y="81.01" xlink:href="#hd"/>
<circle fill="currentColor" cx="133.33" cy="78.01" r="1.2"/>
<path d="M121.83 81.01v36.00" stroke="currentColor" fill="none"/>
<use x="154.93" y="99.01" xlink:href="#hl"/>
<use x="154.93" y="93.01" xlink:href="#hl"/>
<use x="154.93" y="87.01" xlink:href="#hl"/>
<use x="154.93" y="84.01" xlink:href="#hd"/>
<path d="M151.43 84.01v33.00" stroke="currentColor" fill="none"/>
<path fill="currentColor"
	d="M151.43 117.01c0.6 -5.6 9.6 -9 5.6 -18.4
	c1.6 6 -1.3 11.6 -5.6 12.8
"/>
<use x="182.23" y="99.01" xlink:href="#hl"/>
<use x="182.23" y="93.01" xlink:href="#hl"/>
<use x="182.23" y="87.01" xlink:href="#hl"/>
<use x="182.23" y="87.01" xlink:href="#hd"/>
<path d="M178.73 87.01v30.00" stroke="currentColor" fill="none"/>
<use x="207.53" y="99.01" xlink:href="#hl"/>
<use x="207.53" y="93.01" xlink:href="#hl"/>
<defs>
<path id="Hd" fill="currentColor" d="m3 -1.6
	c-1 -1.8 -7 1.4 -6 3.2
	c1 1.8 7 -1.4 6 -3.2
	m0.5 -0.3
	c2 3.8 -5 7.6 -7 3.8
	c-2 -3.8 5 -7.6 7 -3.8"/>
</defs>
<use x="207.53" y="90.01" xlink:href="#Hd"/>
<path d="M204.03 90.01v27.00" stroke="currentColor" fill="none"/>
<use x="248.33" y="99.01" xlink:href="#hl"/>
<use x="248.33" y="93.01" xlink:href="#hl"/>
<use x="248.33" y="90.01" xlink:href="#hd"/>
<path d="M244.83 90.01v27.00" stroke="currentColor" fill="none"/>
<use x="273.53" y="99.01" xlink:href="#hl"/>
<use x="273.53" y="93.01" xlink:href="#hl"/>
<use x="273.53" y="93.01" xlink:href="#hd"/>
<circle fill="currentColor" cx="281.53" cy="90.01" r="1.2"/>
<path d="M270.03 93.01v24.00" stroke="currentColor" fill="none"/>
<use x="303.13" y="99.01" xlink:href="#hl"/>
<use x="303.13" y="96.01" xlink:href="#hd"/>
<path d="M299.63 96.01v21.00" stroke="currentColor" fill="none"/>
<path fill="currentColor"
	d="M299.63 117.01c0.6 -5.6 9.6 -9 5.6 -18.4
	c1.6 6 -1.3 11.6 -5.6 12.8
"/>
<use x="330.93" y="99.01" xlink:href="#hl"/>
<use x="330.93" y="96.01" xlink:href="#Hd"/>
<path d="M327.43 96.01v21.00" stroke="currentColor" fill="none"/>
<use x="366.13" y="99.01" xlink:href="#hl"/>
<use x="366.13" y="99.01" xlink:href="#hd"/>
<path d="M362.63 99.01v20.00" stroke="currentColor" fill="none"/>
<use x="399.03" y="99.01" xlink:href="#hl"/>
<use x="399.03" y="99.01" xlink:href="#hd"/>
<path d="M395.53 99.01v20.00" stroke="currentColor" fill="none"/>
<use x="424.23" y="99.01" xlink:href="#hl"/>
<use x="424.23" y="96.01" xlink:href="#hd"/>
<circle fill="currentColor" cx="432.23" cy="96.01" r="1.2"/>
<path d="M420.73 96.01v21.00" stroke="currentColor" fill="none"/>
<use x="453.63" y="105.01" xlink:href="#hd"/>
<path d="M450.13 105.01v20.00" stroke="currentColor" fill="none"/>
<path fill="currentColor"
	d="M450.13 125.01c0.6 -5.6 9.6 -9 5.6 -18.4
	c1.6 6 -1.3 11.6 -5.6 12.8
"/>
<use x="481.43" y="99.01" xlink:href="#hl"/>
<use x="481.43" y="99.01" xlink:href="#Hd"/>
<path d="M477.93 99.01v20.00" stroke="currentColor" fill="none"/>
<use x="516.43" y="102.01" xlink:href="#hd"/>
<path d="M512.93 102.01v20.00" stroke="currentColor" fill="none"/>
<use x="549.23" y="102.01" xlink:href="#hd"/>
<path d="M545.73 102.01v20.00" stroke="currentColor" fill="none"/>
<use x="574.33" y="99.01" xlink:href="#hl"/>
<use x="574.33" y="99.01" xlink:href="#hd"/>
<path d="M570.83 99.01v20.00" stroke="currentColor" fill="none"/>
<use x="599.53" y="99.01" xlink:href="#hl"/>
<use x="599.53" y="96.01" xlink:href="#hd"/>
<path d="M596.03 96.01v21.00" stroke="currentColor" fill="none"/>
<use x="639.43" y="99.01" xlink:href="#hl"/>
<use x="639.43" y="96.01" xlink:href="#Hd"/>
<defs>
<path id="unat" fill="currentColor" d="
	m96 -750
	h-32
	v716
	l32 -8
	l182 -54
	v282
	h32
	v-706
	l-34 10
	l-180 50
	v-290
	m0 592
	v-190
	l182 -52
	v188"/>
<use id="nt0" transform="translate(-3,5) scale(0.018)"
	xlink:href="#unat"/>
</defs>
<use x="629.43" y="96.01" xlink:href="#nt0"/>
<path d="M635.93 96.01v21.00" stroke="currentColor" fill="none"/>
<use x="674.53" y="99.01" xlink:href="#hl"/>
<use x="674.53" y="93.01" xlink:href="#hl"/>
<use x="674.53" y="93.01" xlink:href="#hd"/>
<path d="M671.03 93.01v24.00" stroke="currentColor" fill="none"/>
<path fill="currentColor"
	d="M211.03 88.01c5.33 -5.11 28.49 -5.11 33.81 -0.00
	l0.00 -0.23c-6.34 -6.87 -27.47 -6.87 -33.81 0.23"/>
<path fill="currentColor"
	d="M369.63 99.01c4.07 -4.97 21.78 -4.97 25.86 -0.00
	l0.00 -0.23c-4.85 -6.74 -21.01 -6.74 -25.86 0.23"/>
<path fill="currentColor"
	d="M519.93 100.01c4.07 -4.97 21.78 -4.97 25.86 -0.00
	l0.00 -0.23c-4.85 -6.74 -21.01 -6.74 -25.86 0.23"/>
</g>
</svg>
