<?xml version="1.0" standalone="no"?>
<!DOCTYPE svg PUBLIC "-//W3C//DTD SVG 1.1//EN"
	"http://www.w3.org/Graphics/SVG/1.1/DTD/svg11.dtd">
<svg xmlns="http://www.w3.org/2000/svg" version="1.1"
	xmlns:xlink="http://www.w3.org/1999/xlink"
	xml:space='preserve' color="black"
	width="7.38in" height="1.34in" viewBox="0 0 531 97">
<title>6867.abc (6867) tune 1</title>
<!-- Creator: abcm2ps-7.8.14 -->
<!-- CreationDate: Mar 13, 2016 18:54 -->
<!-- CommandLine: -qxg 6867.abc -O ../svgs/6867.svg -->
<g transform="scale(0.750)" stroke-width="0.70" font-family="Times" font-size="20.00">
<text x="354.13" y="21.67" text-anchor="middle">6867.  Geschichten Aus Dem Wienerwald, Op. 325, Waltzes, No. 3, 1st. Theme</text>
</g>
<g transform="scale(0.750)" stroke-width="0.70" font-family="Times" font-size="14.00" font-style="italic">
<text x="694.93" y="45.34" text-anchor="end">Johann, Jr. Strauss</text>
</g>
<g transform="scale(0.525)" stroke-width="0.70" font-family="Times" font-size="14.00" font-style="italic">
<defs>
<ellipse id="hd" rx="4.1" ry="2.9"
	transform="rotate(-20)" fill="currentColor"/>
</defs>
<use x="122.76" y="94.16" xlink:href="#hd"/>
<path d="M126.26 94.16v-20.00" stroke="currentColor" fill="none"/>
</g>
<g transform="scale(0.750)" stroke-width="0.70" font-family="Times" font-size="15.00" font-weight="bold">
<text x="93.63" y="68.01">= 120</text>
<path stroke="currentColor" fill="none"
	d="M154.33 106.01v-24.00"/>
<path stroke="currentColor" fill="none"
	d="M235.93 106.01v-24.00"/>
<path stroke="currentColor" fill="none"
	d="M317.43 106.01v-24.00"/>
<path stroke="currentColor" fill="none"
	d="M399.03 106.01v-24.00"/>
<path stroke="currentColor" fill="none"
	d="M478.13 106.01v-24.00"/>
<path stroke="currentColor" fill="none"
	d="M557.23 106.01v-24.00"/>
<path stroke="currentColor" fill="none"
	d="M639.13 106.01v-24.00"/>
<path stroke="currentColor" fill="none"
	d="M13.33 106.01h681.60m-681.60 -6h681.60m-681.60 -6h681.60m-681.60 -6h681.60m-681.60 -6h681.60"/>
<defs>
<path id="utclef" fill="currentColor" d="m-50 -90
	c-72 -41 -72 -158 52 -188
	c150 -10 220 188 90 256
	c-114 52 -275 0 -293 -136
	c-15 -181 93 -229 220 -334
	c88 -87 79 -133 62 -210
	c-51 33 -94 105 -89 186
	c17 267 36 374 49 574
	c6 96 -19 134 -77 135
	c-80 1 -126 -93 -61 -133
	c85 -41 133 101 31 105
	c23 17 92 37 90 -92
	c-10 -223 -39 -342 -50 -617
	c0 -90 0 -162 96 -232
	c56 72 63 230 22 289
	c-74 106 -257 168 -255 316
	c9 153 148 185 252 133
	c86 -65 29 -192 -80 -176
	c-71 12 -105 67 -59 124"/>
<use id="tclef" transform="scale(0.045)"
	xlink:href="#utclef"/>
</defs>
<use x="25.33" y="106.01" xlink:href="#tclef"/>
<defs>
<path id="uflat" fill="currentColor" d="
	m100 -746
	h32
	v734
	l-32 4
	m32 -332
	c46 -72 152 -90 208 -20
	c100 110 -120 326 -208 348
	m0 -28
	c54 0 200 -206 130 -290
	c-50 -60 -130 -4 -130 34"/>
<use id="ft0" transform="translate(-3.5,3.5) scale(0.018)"
	xlink:href="#uflat"/>
</defs>
<use x="40.33" y="94.01" xlink:href="#ft0"/>
<use x="45.83" y="85.01" xlink:href="#ft0"/>
<use x="51.33" y="97.01" xlink:href="#ft0"/>
<g font-family="serif" font-size="16" font-weight="bold" font-style="normal"
	transform="translate(67.33,106.01) scale(1.2,1)">
	<text y="-1" text-anchor="middle">4</text>
	<text y="-13" text-anchor="middle">3</text>
</g>
<use x="85.33" y="79.01" xlink:href="#hd"/>
<path d="M81.83 79.01v20.00" stroke="currentColor" fill="none"/>
<path fill="currentColor"
	d="M81.83 99.01c0.6 -5.6 9.6 -9 5.6 -18.4
	c1.6 6 -1.3 11.6 -5.6 12.8
"/>
<use x="103.93" y="79.01" xlink:href="#hd"/>
<path d="M100.43 79.01v20.00" stroke="currentColor" fill="none"/>
<defs>
<path id="r4" fill="currentColor" d="m-1 -8.5
	l3.6 5.1 -2.1 5.2 2.2 4.3
	c-2.6 -2.3 -5.1 0 -2.4 2.6
	c-4.8 -3 -1.5 -6.9 1.4 -4.1
	l-3.1 -4.5 1.9 -5.1 -1.5 -3.5"/>
</defs>
<use x="129.73" y="94.01" xlink:href="#r4"/>
<circle fill="currentColor" cx="137.73" cy="91.01" r="1.2"/>
<use x="166.83" y="79.01" xlink:href="#hd"/>
<path d="M163.33 79.01v20.00" stroke="currentColor" fill="none"/>
<path fill="currentColor"
	d="M163.33 99.01c0.6 -5.6 9.6 -9 5.6 -18.4
	c1.6 6 -1.3 11.6 -5.6 12.8
"/>
<use x="185.43" y="79.01" xlink:href="#hd"/>
<path d="M181.93 79.01v20.00" stroke="currentColor" fill="none"/>
<use x="211.33" y="94.01" xlink:href="#r4"/>
<circle fill="currentColor" cx="219.33" cy="91.01" r="1.2"/>
<use x="248.43" y="79.01" xlink:href="#hd"/>
<path d="M244.93 79.01v20.00" stroke="currentColor" fill="none"/>
<path fill="currentColor"
	d="M244.93 99.01c0.6 -5.6 9.6 -9 5.6 -18.4
	c1.6 6 -1.3 11.6 -5.6 12.8
"/>
<use x="267.03" y="79.01" xlink:href="#hd"/>
<path d="M263.53 79.01v20.00" stroke="currentColor" fill="none"/>
<use x="292.83" y="82.01" xlink:href="#hd"/>
<circle fill="currentColor" cx="300.83" cy="79.01" r="1.2"/>
<path d="M289.33 82.01v20.00" stroke="currentColor" fill="none"/>
<use x="329.93" y="79.01" xlink:href="#hd"/>
<path d="M326.43 79.01v20.00" stroke="currentColor" fill="none"/>
<path fill="currentColor"
	d="M326.43 99.01c0.6 -5.6 9.6 -9 5.6 -18.4
	c1.6 6 -1.3 11.6 -5.6 12.8
"/>
<defs>
<path id="hl" stroke="currentColor" d="m-6 0h12"/>
</defs>
<use x="348.53" y="76.01" xlink:href="#hl"/>
<use x="348.53" y="76.01" xlink:href="#hd"/>
<path d="M345.03 76.01v20.00" stroke="currentColor" fill="none"/>
<use x="374.43" y="94.01" xlink:href="#r4"/>
<circle fill="currentColor" cx="382.43" cy="91.01" r="1.2"/>
<use x="411.53" y="76.01" xlink:href="#hl"/>
<use x="411.53" y="70.01" xlink:href="#hl"/>
<use x="411.53" y="64.01" xlink:href="#hl"/>
<use x="411.53" y="64.01" xlink:href="#hd"/>
<path d="M408.03 64.01v30.00" stroke="currentColor" fill="none"/>
<path fill="currentColor"
	d="M408.03 94.01c0.6 -5.6 9.6 -9 5.6 -18.4
	c1.6 6 -1.3 11.6 -5.6 12.8
"/>
<use x="430.23" y="76.01" xlink:href="#hl"/>
<use x="430.23" y="70.01" xlink:href="#hl"/>
<use x="430.23" y="64.01" xlink:href="#hl"/>
<defs>
<path id="Hd" fill="currentColor" d="m3 -1.6
	c-1 -1.8 -7 1.4 -6 3.2
	c1 1.8 7 -1.4 6 -3.2
	m0.5 -0.3
	c2 3.8 -5 7.6 -7 3.8
	c-2 -3.8 5 -7.6 7 -3.8"/>
</defs>
<use x="430.23" y="64.01" xlink:href="#Hd"/>
<path d="M426.73 64.01v30.00" stroke="currentColor" fill="none"/>
<defs>
<path id="r8e" fill="currentColor" d="m 0 0
	c-1.5 1.5 -2.4 2 -3.6 2
	c2.4 -2.8 -2.8 -4 -2.8 -1.2
	c0 2.7 4.3 2.4 5.9 0.6"/>
<g id="r8">
	<path d="m3.3 -4l-3.4 9.6" stroke="currentColor" fill="none"/>
	<use x="3.4" y="-4" xlink:href="#r8e"/>
</g>
</defs>
<use x="462.93" y="94.01" xlink:href="#r8"/>
<use x="490.63" y="76.01" xlink:href="#hl"/>
<use x="490.63" y="70.01" xlink:href="#hl"/>
<use x="490.63" y="67.01" xlink:href="#hd"/>
<path d="M487.13 67.01v27.00" stroke="currentColor" fill="none"/>
<path fill="currentColor"
	d="M487.13 94.01c0.6 -5.6 9.6 -9 5.6 -18.4
	c1.6 6 -1.3 11.6 -5.6 12.8
"/>
<use x="509.43" y="76.01" xlink:href="#hl"/>
<use x="509.43" y="70.01" xlink:href="#hl"/>
<use x="509.43" y="67.01" xlink:href="#Hd"/>
<path d="M505.93 67.01v27.00" stroke="currentColor" fill="none"/>
<use x="542.03" y="94.01" xlink:href="#r8"/>
<use x="569.73" y="76.01" xlink:href="#hl"/>
<use x="569.73" y="70.01" xlink:href="#hl"/>
<use x="569.73" y="70.01" xlink:href="#hd"/>
<path d="M566.23 70.01v24.00" stroke="currentColor" fill="none"/>
<path fill="currentColor"
	d="M566.23 94.01c0.6 -5.6 9.6 -9 5.6 -18.4
	c1.6 6 -1.3 11.6 -5.6 12.8
"/>
<use x="588.53" y="76.01" xlink:href="#hl"/>
<use x="588.53" y="70.01" xlink:href="#hl"/>
<use x="588.53" y="70.01" xlink:href="#hd"/>
<path d="M585.03 70.01v24.00" stroke="currentColor" fill="none"/>
<use x="614.53" y="76.01" xlink:href="#hl"/>
<use x="614.53" y="73.01" xlink:href="#hd"/>
<circle fill="currentColor" cx="622.53" cy="73.01" r="1.2"/>
<path d="M611.03 73.01v21.00" stroke="currentColor" fill="none"/>
<use x="651.63" y="79.01" xlink:href="#hd"/>
<path d="M648.13 79.01v20.00" stroke="currentColor" fill="none"/>
<path fill="currentColor"
	d="M648.13 99.01c0.6 -5.6 9.6 -9 5.6 -18.4
	c1.6 6 -1.3 11.6 -5.6 12.8
"/>
<use x="670.23" y="76.01" xlink:href="#hl"/>
<use x="670.23" y="73.01" xlink:href="#hd"/>
<path d="M666.73 73.01v21.00" stroke="currentColor" fill="none"/>
</g>
</svg>
