<?xml version="1.0" standalone="no"?>
<!DOCTYPE svg PUBLIC "-//W3C//DTD SVG 1.1//EN"
	"http://www.w3.org/Graphics/SVG/1.1/DTD/svg11.dtd">
<svg xmlns="http://www.w3.org/2000/svg" version="1.1"
	xmlns:xlink="http://www.w3.org/1999/xlink"
	xml:space='preserve' color="black"
	width="7.38in" height="1.61in" viewBox="0 0 531 116">
<title>6899.abc (6899) tune 1</title>
<!-- Creator: abcm2ps-7.8.14 -->
<!-- CreationDate: Mar 13, 2016 18:54 -->
<!-- CommandLine: -qxg 6899.abc -O ../svgs/6899.svg -->
<g transform="scale(0.750)" stroke-width="0.70" font-family="Times" font-size="20.00">
<text x="354.13" y="21.67" text-anchor="middle">6899.  Morgenblatter Waltz, Op. 279, 3rd. Theme</text>
</g>
<g transform="scale(0.750)" stroke-width="0.70" font-family="Times" font-size="14.00" font-style="italic">
<text x="694.93" y="45.34" text-anchor="end">Johann, Jr. Strauss</text>
</g>
<g transform="scale(0.525)" stroke-width="0.70" font-family="Times" font-size="14.00" font-style="italic">
<defs>
<ellipse id="hd" rx="4.1" ry="2.9"
	transform="rotate(-20)" fill="currentColor"/>
</defs>
<use x="107.04" y="94.16" xlink:href="#hd"/>
<path d="M110.54 94.16v-20.00" stroke="currentColor" fill="none"/>
</g>
<g transform="scale(0.750)" stroke-width="0.70" font-family="Times" font-size="15.00" font-weight="bold">
<text x="82.63" y="68.01">= 120</text>
<path stroke="currentColor" fill="none"
	d="M210.03 132.01v-24.00"/>
<path stroke="currentColor" fill="none"
	d="M327.93 132.01v-24.00"/>
<path stroke="currentColor" fill="none"
	d="M420.03 132.01v-24.00"/>
<path stroke="currentColor" fill="none"
	d="M518.93 132.01v-24.00"/>
<path stroke="currentColor" fill="none"
	d="M611.03 132.01v-24.00"/>
<path stroke="currentColor" fill="none"
	d="M13.33 132.01h681.60m-681.60 -6h681.60m-681.60 -6h681.60m-681.60 -6h681.60m-681.60 -6h681.60"/>
<defs>
<path id="utclef" fill="currentColor" d="m-50 -90
	c-72 -41 -72 -158 52 -188
	c150 -10 220 188 90 256
	c-114 52 -275 0 -293 -136
	c-15 -181 93 -229 220 -334
	c88 -87 79 -133 62 -210
	c-51 33 -94 105 -89 186
	c17 267 36 374 49 574
	c6 96 -19 134 -77 135
	c-80 1 -126 -93 -61 -133
	c85 -41 133 101 31 105
	c23 17 92 37 90 -92
	c-10 -223 -39 -342 -50 -617
	c0 -90 0 -162 96 -232
	c56 72 63 230 22 289
	c-74 106 -257 168 -255 316
	c9 153 148 185 252 133
	c86 -65 29 -192 -80 -176
	c-71 12 -105 67 -59 124"/>
<use id="tclef" transform="scale(0.045)"
	xlink:href="#utclef"/>
</defs>
<use x="25.33" y="132.01" xlink:href="#tclef"/>
<defs>
<path id="uflat" fill="currentColor" d="
	m100 -746
	h32
	v734
	l-32 4
	m32 -332
	c46 -72 152 -90 208 -20
	c100 110 -120 326 -208 348
	m0 -28
	c54 0 200 -206 130 -290
	c-50 -60 -130 -4 -130 34"/>
<use id="ft0" transform="translate(-3.5,3.5) scale(0.018)"
	xlink:href="#uflat"/>
</defs>
<use x="40.33" y="120.01" xlink:href="#ft0"/>
<g font-family="serif" font-size="16" font-weight="bold" font-style="normal"
	transform="translate(56.33,132.01) scale(1.2,1)">
	<text y="-1" text-anchor="middle">4</text>
	<text y="-13" text-anchor="middle">3</text>
</g>
<path fill="currentColor"
	d="M70.53 120.21l56.00 0.00v-3.20l-56.00 -0.00"/>
<path fill="currentColor"
	d="M70.83 115.21l31.50 0.00v-3.20l-31.50 -0.00"/>
<path fill="currentColor"
	d="M70.83 110.21l31.50 0.00v-3.20l-31.50 -0.00"/>
<defs>
<path id="hl" stroke="currentColor" d="m-6 0h12"/>
</defs>
<use x="74.33" y="102.01" xlink:href="#hl"/>
<use x="74.33" y="96.01" xlink:href="#hl"/>
<use x="74.33" y="90.01" xlink:href="#hl"/>
<use x="74.33" y="84.01" xlink:href="#hl"/>
<use x="74.33" y="81.01" xlink:href="#hd"/>
<path d="M70.83 81.01v38.20" stroke="currentColor" fill="none"/>
<use x="84.83" y="102.01" xlink:href="#hl"/>
<use x="84.83" y="96.01" xlink:href="#hl"/>
<use x="84.83" y="90.01" xlink:href="#hl"/>
<use x="84.83" y="84.01" xlink:href="#hl"/>
<use x="84.83" y="84.01" xlink:href="#hd"/>
<path d="M81.33 84.01v35.20" stroke="currentColor" fill="none"/>
<use x="95.33" y="102.01" xlink:href="#hl"/>
<use x="95.33" y="96.01" xlink:href="#hl"/>
<use x="95.33" y="90.01" xlink:href="#hl"/>
<use x="95.33" y="84.01" xlink:href="#hl"/>
<use x="95.33" y="81.01" xlink:href="#hd"/>
<path d="M91.83 81.01v38.20" stroke="currentColor" fill="none"/>
<use x="105.83" y="102.01" xlink:href="#hl"/>
<use x="105.83" y="96.01" xlink:href="#hl"/>
<use x="105.83" y="90.01" xlink:href="#hl"/>
<use x="105.83" y="84.01" xlink:href="#hl"/>
<use x="105.83" y="78.01" xlink:href="#hl"/>
<use x="105.83" y="78.01" xlink:href="#hd"/>
<path d="M102.33 78.01v41.20" stroke="currentColor" fill="none"/>
<use x="116.33" y="102.01" xlink:href="#hl"/>
<use x="116.33" y="96.01" xlink:href="#hl"/>
<use x="116.33" y="90.01" xlink:href="#hl"/>
<use x="116.33" y="84.01" xlink:href="#hl"/>
<use x="116.33" y="81.01" xlink:href="#hd"/>
<path d="M112.83 81.01v38.20" stroke="currentColor" fill="none"/>
<use x="129.63" y="102.01" xlink:href="#hl"/>
<use x="129.63" y="96.01" xlink:href="#hl"/>
<use x="129.63" y="93.01" xlink:href="#hd"/>
<path d="M126.13 93.01v26.20" stroke="currentColor" fill="none"/>
<defs>
<path id="r8e" fill="currentColor" d="m 0 0
	c-1.5 1.5 -2.4 2 -3.6 2
	c2.4 -2.8 -2.8 -4 -2.8 -1.2
	c0 2.7 4.3 2.4 5.9 0.6"/>
<g id="r8">
	<path d="m3.3 -4l-3.4 9.6" stroke="currentColor" fill="none"/>
	<use x="3.4" y="-4" xlink:href="#r8e"/>
</g>
</defs>
<use x="142.43" y="120.01" xlink:href="#r8"/>
<path fill="currentColor"
	d="M152.23 120.21l11.20 0.00v-3.20l-11.20 -0.00"/>
<path fill="currentColor"
	d="M152.63 115.21l10.50 0.00v-3.20l-10.50 -0.00"/>
<path fill="currentColor"
	d="M152.63 110.21l10.50 0.00v-3.20l-10.50 -0.00"/>
<use x="156.13" y="102.01" xlink:href="#hl"/>
<use x="156.13" y="96.01" xlink:href="#hl"/>
<use x="156.13" y="90.01" xlink:href="#hl"/>
<use x="156.13" y="84.01" xlink:href="#hl"/>
<use x="156.13" y="84.01" xlink:href="#hd"/>
<path d="M152.63 84.01v35.20" stroke="currentColor" fill="none"/>
<use x="166.63" y="102.01" xlink:href="#hl"/>
<use x="166.63" y="96.01" xlink:href="#hl"/>
<use x="166.63" y="90.01" xlink:href="#hl"/>
<use x="166.63" y="87.01" xlink:href="#hd"/>
<path d="M163.13 87.01v32.20" stroke="currentColor" fill="none"/>
<path fill="currentColor"
	d="M173.23 120.21l21.70 0.00v-3.20l-21.70 -0.00"/>
<path fill="currentColor"
	d="M173.63 115.21l10.50 0.00v-3.20l-10.50 -0.00"/>
<path fill="currentColor"
	d="M173.63 110.21l10.50 0.00v-3.20l-10.50 -0.00"/>
<use x="177.13" y="102.01" xlink:href="#hl"/>
<use x="177.13" y="96.01" xlink:href="#hl"/>
<use x="177.13" y="90.01" xlink:href="#hl"/>
<use x="177.13" y="84.01" xlink:href="#hl"/>
<use x="177.13" y="84.01" xlink:href="#hd"/>
<path d="M173.63 84.01v35.20" stroke="currentColor" fill="none"/>
<use x="187.63" y="102.01" xlink:href="#hl"/>
<use x="187.63" y="96.01" xlink:href="#hl"/>
<use x="187.63" y="90.01" xlink:href="#hl"/>
<use x="187.63" y="84.01" xlink:href="#hl"/>
<use x="187.63" y="81.01" xlink:href="#hd"/>
<path d="M184.13 81.01v38.20" stroke="currentColor" fill="none"/>
<use x="198.13" y="102.01" xlink:href="#hl"/>
<use x="198.13" y="96.01" xlink:href="#hl"/>
<use x="198.13" y="90.01" xlink:href="#hl"/>
<use x="198.13" y="84.01" xlink:href="#hl"/>
<use x="198.13" y="84.01" xlink:href="#hd"/>
<path d="M194.63 84.01v35.20" stroke="currentColor" fill="none"/>
<path fill="currentColor"
	d="M218.63 144.21l57.60 0.00v-3.20l-57.60 -0.00"/>
<path fill="currentColor"
	d="M244.43 139.21l31.50 0.00v-3.20l-31.50 -0.00"/>
<path fill="currentColor"
	d="M244.43 134.21l31.50 0.00v-3.20l-31.50 -0.00"/>
<use x="222.53" y="102.01" xlink:href="#hl"/>
<use x="222.53" y="96.01" xlink:href="#hl"/>
<use x="222.53" y="93.01" xlink:href="#hd"/>
<path d="M219.03 93.01v50.20" stroke="currentColor" fill="none"/>
<use x="235.23" y="120.01" xlink:href="#r8"/>
<use x="247.93" y="102.01" xlink:href="#hl"/>
<use x="247.93" y="96.01" xlink:href="#hl"/>
<use x="247.93" y="90.01" xlink:href="#hl"/>
<use x="247.93" y="87.01" xlink:href="#hd"/>
<path d="M244.43 87.01v56.20" stroke="currentColor" fill="none"/>
<use x="258.43" y="102.01" xlink:href="#hl"/>
<use x="258.43" y="96.01" xlink:href="#hl"/>
<use x="258.43" y="90.01" xlink:href="#hl"/>
<use x="258.43" y="90.01" xlink:href="#hd"/>
<path d="M254.93 90.01v53.20" stroke="currentColor" fill="none"/>
<use x="268.93" y="102.01" xlink:href="#hl"/>
<use x="268.93" y="96.01" xlink:href="#hl"/>
<use x="268.93" y="90.01" xlink:href="#hl"/>
<use x="268.93" y="87.01" xlink:href="#hd"/>
<path d="M265.43 87.01v56.20" stroke="currentColor" fill="none"/>
<use x="279.43" y="102.01" xlink:href="#hl"/>
<use x="279.43" y="96.01" xlink:href="#hl"/>
<use x="279.43" y="90.01" xlink:href="#hl"/>
<use x="279.43" y="84.01" xlink:href="#hl"/>
<use x="279.43" y="84.01" xlink:href="#hd"/>
<path d="M275.93 84.01v59.20" stroke="currentColor" fill="none"/>
<path fill="currentColor"
	d="M286.13 120.21l14.00 0.00v-3.20l-14.00 -0.00"/>
<use x="289.93" y="102.01" xlink:href="#hl"/>
<use x="289.93" y="96.01" xlink:href="#hl"/>
<use x="289.93" y="90.01" xlink:href="#hl"/>
<use x="289.93" y="87.01" xlink:href="#hd"/>
<path d="M286.43 87.01v32.20" stroke="currentColor" fill="none"/>
<use x="303.23" y="102.01" xlink:href="#hl"/>
<use x="303.23" y="96.01" xlink:href="#hl"/>
<use x="303.23" y="93.01" xlink:href="#hd"/>
<path d="M299.73 93.01v26.20" stroke="currentColor" fill="none"/>
<use x="316.03" y="120.01" xlink:href="#r8"/>
<path fill="currentColor"
	d="M336.53 120.21l27.40 0.00v-3.20l-27.40 -0.00"/>
<use x="340.43" y="102.01" xlink:href="#hl"/>
<use x="340.43" y="96.01" xlink:href="#hl"/>
<use x="340.43" y="96.01" xlink:href="#hd"/>
<path d="M336.93 96.01v23.20" stroke="currentColor" fill="none"/>
<use x="353.73" y="102.01" xlink:href="#hl"/>
<use x="353.73" y="96.01" xlink:href="#hl"/>
<use x="353.73" y="90.01" xlink:href="#hl"/>
<use x="353.73" y="84.01" xlink:href="#hl"/>
<use x="353.73" y="78.01" xlink:href="#hl"/>
<use x="353.73" y="75.01" xlink:href="#hd"/>
<path d="M350.23 75.01v44.20" stroke="currentColor" fill="none"/>
<use x="367.13" y="102.01" xlink:href="#hl"/>
<use x="367.13" y="96.01" xlink:href="#hl"/>
<use x="367.13" y="90.01" xlink:href="#hl"/>
<use x="367.13" y="84.01" xlink:href="#hl"/>
<use x="367.13" y="78.01" xlink:href="#hl"/>
<use x="367.13" y="75.01" xlink:href="#hd"/>
<path d="M363.63 75.01v44.20" stroke="currentColor" fill="none"/>
<path fill="currentColor"
	d="M377.63 120.21l27.40 0.00v-3.20l-27.40 -0.00"/>
<use x="381.43" y="102.01" xlink:href="#hl"/>
<use x="381.43" y="96.01" xlink:href="#hl"/>
<use x="381.43" y="90.01" xlink:href="#hl"/>
<use x="381.43" y="84.01" xlink:href="#hl"/>
<use x="381.43" y="78.01" xlink:href="#hl"/>
<use x="381.43" y="75.01" xlink:href="#hd"/>
<path d="M377.93 75.01v44.20" stroke="currentColor" fill="none"/>
<use x="394.73" y="102.01" xlink:href="#hl"/>
<use x="394.73" y="96.01" xlink:href="#hl"/>
<use x="394.73" y="90.01" xlink:href="#hl"/>
<use x="394.73" y="84.01" xlink:href="#hl"/>
<use x="394.73" y="78.01" xlink:href="#hl"/>
<use x="394.73" y="75.01" xlink:href="#hd"/>
<path d="M391.23 75.01v44.20" stroke="currentColor" fill="none"/>
<use x="408.13" y="102.01" xlink:href="#hl"/>
<use x="408.13" y="96.01" xlink:href="#hl"/>
<use x="408.13" y="90.01" xlink:href="#hl"/>
<use x="408.13" y="84.01" xlink:href="#hl"/>
<use x="408.13" y="78.01" xlink:href="#hl"/>
<use x="408.13" y="75.01" xlink:href="#hd"/>
<path d="M404.63 75.01v44.20" stroke="currentColor" fill="none"/>
<use x="432.53" y="102.01" xlink:href="#hl"/>
<use x="432.53" y="96.01" xlink:href="#hl"/>
<use x="432.53" y="90.01" xlink:href="#hl"/>
<use x="432.53" y="84.01" xlink:href="#hl"/>
<use x="432.53" y="78.01" xlink:href="#hl"/>
<use x="432.53" y="75.01" xlink:href="#hd"/>
<path d="M429.03 75.01v45.00" stroke="currentColor" fill="none"/>
<path fill="currentColor"
	d="M447.13 120.21l11.40 0.00v-3.20l-11.40 -0.00"/>
<path fill="currentColor"
	d="M447.43 115.21l10.70 0.00v-3.20l-10.70 -0.00"/>
<use x="450.93" y="102.01" xlink:href="#hl"/>
<use x="450.93" y="96.01" xlink:href="#hl"/>
<use x="450.93" y="96.01" xlink:href="#hd"/>
<path d="M447.43 96.01v23.20" stroke="currentColor" fill="none"/>
<use x="461.73" y="102.01" xlink:href="#hl"/>
<use x="461.73" y="96.01" xlink:href="#hl"/>
<use x="461.73" y="90.01" xlink:href="#hl"/>
<use x="461.73" y="87.01" xlink:href="#hd"/>
<path d="M458.23 87.01v32.20" stroke="currentColor" fill="none"/>
<use x="471.73" y="120.01" xlink:href="#r8"/>
<use x="485.53" y="102.01" xlink:href="#hl"/>
<use x="485.53" y="96.01" xlink:href="#hl"/>
<use x="485.53" y="90.01" xlink:href="#hl"/>
<use x="485.53" y="87.01" xlink:href="#hd"/>
<path d="M482.03 87.01v33.00" stroke="currentColor" fill="none"/>
<path fill="currentColor"
	d="M482.03 120.01c0.9 -3.7 9.1 -6.4 6 -12.4
	c1 5.4 -4.2 8.4 -6 8.4
M482.03 114.61c0.9 -3.7 9.1 -6.4 6 -12.4
	c1 5.4 -4.2 8.4 -6 8.4
"/>
<use x="496.93" y="102.01" xlink:href="#hl"/>
<use x="496.93" y="96.01" xlink:href="#hl"/>
<use x="496.93" y="90.01" xlink:href="#hl"/>
<use x="496.93" y="84.01" xlink:href="#hl"/>
<use x="496.93" y="81.01" xlink:href="#hd"/>
<path d="M493.43 81.01v39.00" stroke="currentColor" fill="none"/>
<path fill="currentColor"
	d="M493.43 120.01c0.9 -3.7 9.1 -6.4 6 -12.4
	c1 5.4 -4.2 8.4 -6 8.4
M493.43 114.61c0.9 -3.7 9.1 -6.4 6 -12.4
	c1 5.4 -4.2 8.4 -6 8.4
"/>
<use x="507.03" y="120.01" xlink:href="#r8"/>
<path fill="currentColor"
	d="M527.53 120.21l27.40 0.00v-3.20l-27.40 -0.00"/>
<use x="531.43" y="102.01" xlink:href="#hl"/>
<use x="531.43" y="96.01" xlink:href="#hl"/>
<use x="531.43" y="90.01" xlink:href="#hl"/>
<use x="531.43" y="84.01" xlink:href="#hl"/>
<use x="531.43" y="78.01" xlink:href="#hl"/>
<use x="531.43" y="78.01" xlink:href="#hd"/>
<path d="M527.93 78.01v41.20" stroke="currentColor" fill="none"/>
<use x="544.73" y="102.01" xlink:href="#hl"/>
<use x="544.73" y="96.01" xlink:href="#hl"/>
<use x="544.73" y="90.01" xlink:href="#hl"/>
<use x="544.73" y="84.01" xlink:href="#hl"/>
<use x="544.73" y="78.01" xlink:href="#hl"/>
<use x="544.73" y="75.01" xlink:href="#hd"/>
<path d="M541.23 75.01v44.20" stroke="currentColor" fill="none"/>
<use x="558.13" y="102.01" xlink:href="#hl"/>
<use x="558.13" y="96.01" xlink:href="#hl"/>
<use x="558.13" y="90.01" xlink:href="#hl"/>
<use x="558.13" y="84.01" xlink:href="#hl"/>
<use x="558.13" y="78.01" xlink:href="#hl"/>
<use x="558.13" y="75.01" xlink:href="#hd"/>
<path d="M554.63 75.01v44.20" stroke="currentColor" fill="none"/>
<path fill="currentColor"
	d="M568.63 120.21l27.40 0.00v-3.20l-27.40 -0.00"/>
<use x="572.43" y="102.01" xlink:href="#hl"/>
<use x="572.43" y="96.01" xlink:href="#hl"/>
<use x="572.43" y="90.01" xlink:href="#hl"/>
<use x="572.43" y="84.01" xlink:href="#hl"/>
<use x="572.43" y="78.01" xlink:href="#hl"/>
<use x="572.43" y="75.01" xlink:href="#hd"/>
<path d="M568.93 75.01v44.20" stroke="currentColor" fill="none"/>
<use x="585.73" y="102.01" xlink:href="#hl"/>
<use x="585.73" y="96.01" xlink:href="#hl"/>
<use x="585.73" y="90.01" xlink:href="#hl"/>
<use x="585.73" y="84.01" xlink:href="#hl"/>
<use x="585.73" y="78.01" xlink:href="#hl"/>
<use x="585.73" y="75.01" xlink:href="#hd"/>
<path d="M582.23 75.01v44.20" stroke="currentColor" fill="none"/>
<use x="599.13" y="102.01" xlink:href="#hl"/>
<use x="599.13" y="96.01" xlink:href="#hl"/>
<use x="599.13" y="90.01" xlink:href="#hl"/>
<use x="599.13" y="84.01" xlink:href="#hl"/>
<use x="599.13" y="78.01" xlink:href="#hl"/>
<use x="599.13" y="75.01" xlink:href="#hd"/>
<path d="M595.63 75.01v44.20" stroke="currentColor" fill="none"/>
<use x="623.53" y="102.01" xlink:href="#hl"/>
<use x="623.53" y="96.01" xlink:href="#hl"/>
<use x="623.53" y="90.01" xlink:href="#hl"/>
<use x="623.53" y="84.01" xlink:href="#hl"/>
<use x="623.53" y="78.01" xlink:href="#hl"/>
<use x="623.53" y="75.01" xlink:href="#hd"/>
<path d="M620.03 75.01v45.00" stroke="currentColor" fill="none"/>
<path fill="currentColor"
	d="M638.13 120.21l11.40 0.00v-3.20l-11.40 -0.00"/>
<path fill="currentColor"
	d="M638.43 115.21l10.70 0.00v-3.20l-10.70 -0.00"/>
<use x="641.93" y="102.01" xlink:href="#hl"/>
<use x="641.93" y="96.01" xlink:href="#hl"/>
<use x="641.93" y="96.01" xlink:href="#hd"/>
<path d="M638.43 96.01v23.20" stroke="currentColor" fill="none"/>
<use x="652.73" y="102.01" xlink:href="#hl"/>
<use x="652.73" y="96.01" xlink:href="#hl"/>
<use x="652.73" y="90.01" xlink:href="#hl"/>
<use x="652.73" y="90.01" xlink:href="#hd"/>
<path d="M649.23 90.01v29.20" stroke="currentColor" fill="none"/>
<use x="662.83" y="120.01" xlink:href="#r8"/>
<use x="676.53" y="102.01" xlink:href="#hl"/>
<use x="676.53" y="96.01" xlink:href="#hl"/>
<use x="676.53" y="90.01" xlink:href="#hl"/>
<use x="676.53" y="90.01" xlink:href="#hd"/>
<path d="M673.03 90.01v30.00" stroke="currentColor" fill="none"/>
<path fill="currentColor"
	d="M673.03 120.01c0.9 -3.7 9.1 -6.4 6 -12.4
	c1 5.4 -4.2 8.4 -6 8.4
M673.03 114.61c0.9 -3.7 9.1 -6.4 6 -12.4
	c1 5.4 -4.2 8.4 -6 8.4
"/>
<use x="687.93" y="102.01" xlink:href="#hl"/>
<use x="687.93" y="96.01" xlink:href="#hl"/>
<use x="687.93" y="90.01" xlink:href="#hl"/>
<use x="687.93" y="84.01" xlink:href="#hl"/>
<use x="687.93" y="78.01" xlink:href="#hl"/>
<use x="687.93" y="78.01" xlink:href="#hd"/>
<path d="M684.43 78.01v42.00" stroke="currentColor" fill="none"/>
<path fill="currentColor"
	d="M684.43 120.01c0.9 -3.7 9.1 -6.4 6 -12.4
	c1 5.4 -4.2 8.4 -6 8.4
M684.43 114.61c0.9 -3.7 9.1 -6.4 6 -12.4
	c1 5.4 -4.2 8.4 -6 8.4
"/>
</g>
</svg>
