<?xml version="1.0" standalone="no"?>
<!DOCTYPE svg PUBLIC "-//W3C//DTD SVG 1.1//EN"
	"http://www.w3.org/Graphics/SVG/1.1/DTD/svg11.dtd">
<svg xmlns="http://www.w3.org/2000/svg" version="1.1"
	xmlns:xlink="http://www.w3.org/1999/xlink"
	xml:space='preserve' color="black"
	width="7.38in" height="1.34in" viewBox="0 0 531 97">
<title>6929.abc (6929) tune 1</title>
<!-- Creator: abcm2ps-7.8.14 -->
<!-- CreationDate: Mar 13, 2016 18:54 -->
<!-- CommandLine: -qxg 6929.abc -O ../svgs/6929.svg -->
<g transform="scale(0.750)" stroke-width="0.70" font-family="Times" font-size="20.00">
<text x="354.13" y="21.67" text-anchor="middle">6929.  Wiener-Blut, Op. 354, Waltzes, No. 1, 1st. Theme</text>
</g>
<g transform="scale(0.750)" stroke-width="0.70" font-family="Times" font-size="14.00" font-style="italic">
<text x="694.93" y="45.34" text-anchor="end">Johann, Jr. Strauss</text>
</g>
<g transform="scale(0.525)" stroke-width="0.70" font-family="Times" font-size="14.00" font-style="italic">
<defs>
<ellipse id="hd" rx="4.1" ry="2.9"
	transform="rotate(-20)" fill="currentColor"/>
</defs>
<use x="97.76" y="94.16" xlink:href="#hd"/>
<path d="M101.26 94.16v-20.00" stroke="currentColor" fill="none"/>
</g>
<g transform="scale(0.750)" stroke-width="0.70" font-family="Times" font-size="15.00" font-weight="bold">
<text x="76.13" y="68.01">= 120</text>
<path stroke="currentColor" fill="none"
	d="M145.83 106.01v-24.00"/>
<path stroke="currentColor" fill="none"
	d="M196.93 106.01v-24.00"/>
<path stroke="currentColor" fill="none"
	d="M287.63 106.01v-24.00"/>
<path stroke="currentColor" fill="none"
	d="M338.73 106.01v-24.00"/>
<path stroke="currentColor" fill="none"
	d="M429.33 106.01v-24.00"/>
<path stroke="currentColor" fill="none"
	d="M536.23 106.01v-24.00"/>
<path stroke="currentColor" fill="none"
	d="M643.83 106.01v-24.00"/>
<path stroke="currentColor" fill="none"
	d="M694.93 106.01v-24.00"/>
<path stroke="currentColor" fill="none"
	d="M13.33 106.01h681.60m-681.60 -6h681.60m-681.60 -6h681.60m-681.60 -6h681.60m-681.60 -6h681.60"/>
<defs>
<path id="utclef" fill="currentColor" d="m-50 -90
	c-72 -41 -72 -158 52 -188
	c150 -10 220 188 90 256
	c-114 52 -275 0 -293 -136
	c-15 -181 93 -229 220 -334
	c88 -87 79 -133 62 -210
	c-51 33 -94 105 -89 186
	c17 267 36 374 49 574
	c6 96 -19 134 -77 135
	c-80 1 -126 -93 -61 -133
	c85 -41 133 101 31 105
	c23 17 92 37 90 -92
	c-10 -223 -39 -342 -50 -617
	c0 -90 0 -162 96 -232
	c56 72 63 230 22 289
	c-74 106 -257 168 -255 316
	c9 153 148 185 252 133
	c86 -65 29 -192 -80 -176
	c-71 12 -105 67 -59 124"/>
<use id="tclef" transform="scale(0.045)"
	xlink:href="#utclef"/>
</defs>
<use x="25.33" y="106.01" xlink:href="#tclef"/>
<g font-family="serif" font-size="16" font-weight="bold" font-style="normal"
	transform="translate(43.83,106.01) scale(1.2,1)">
	<text y="-1" text-anchor="middle">4</text>
	<text y="-13" text-anchor="middle">3</text>
</g>
<use x="67.83" y="82.01" xlink:href="#hd"/>
<circle fill="currentColor" cx="75.83" cy="79.01" r="1.2"/>
<defs>
<path id="usharp" fill="currentColor" d="
	m136 -702
	v890
	h32
	v-890
	m128 840
	h32
	v-888
	h-32
	m-232 286
	v116
	l338 -96
	v-116
	m-338 442
	v116
	l338 -98
	v-114"/>
<use id="sh0" transform="translate(-4,5) scale(0.018)"
	xlink:href="#usharp"/>
</defs>
<use x="58.83" y="82.01" xlink:href="#sh0"/>
<path d="M64.33 82.01v20.00" stroke="currentColor" fill="none"/>
<use x="101.53" y="79.01" xlink:href="#hd"/>
<path d="M98.03 79.01v20.00" stroke="currentColor" fill="none"/>
<path fill="currentColor"
	d="M98.03 99.01c0.6 -5.6 9.6 -9 5.6 -18.4
	c1.6 6 -1.3 11.6 -5.6 12.8
"/>
<defs>
<path id="hl" stroke="currentColor" d="m-6 0h12"/>
</defs>
<use x="122.33" y="76.01" xlink:href="#hl"/>
<use x="122.33" y="70.01" xlink:href="#hl"/>
<use x="122.33" y="64.01" xlink:href="#hl"/>
<use x="122.33" y="64.01" xlink:href="#hd"/>
<path d="M118.83 64.01v30.00" stroke="currentColor" fill="none"/>
<use x="158.83" y="76.01" xlink:href="#hl"/>
<use x="158.83" y="70.01" xlink:href="#hl"/>
<use x="158.83" y="64.01" xlink:href="#hl"/>
<defs>
<path id="Hd" fill="currentColor" d="m3 -1.6
	c-1 -1.8 -7 1.4 -6 3.2
	c1 1.8 7 -1.4 6 -3.2
	m0.5 -0.3
	c2 3.8 -5 7.6 -7 3.8
	c-2 -3.8 5 -7.6 7 -3.8"/>
</defs>
<use x="158.83" y="64.01" xlink:href="#Hd"/>
<circle fill="currentColor" cx="167.83" cy="61.01" r="1.2"/>
<path d="M155.33 64.01v30.00" stroke="currentColor" fill="none"/>
<use x="209.43" y="76.01" xlink:href="#hl"/>
<use x="209.43" y="73.01" xlink:href="#hd"/>
<circle fill="currentColor" cx="217.43" cy="73.01" r="1.2"/>
<path d="M205.93 73.01v21.00" stroke="currentColor" fill="none"/>
<use x="243.23" y="76.01" xlink:href="#hl"/>
<use x="243.23" y="70.01" xlink:href="#hl"/>
<use x="243.23" y="70.01" xlink:href="#hd"/>
<path d="M239.73 70.01v24.00" stroke="currentColor" fill="none"/>
<path fill="currentColor"
	d="M239.73 94.01c0.6 -5.6 9.6 -9 5.6 -18.4
	c1.6 6 -1.3 11.6 -5.6 12.8
"/>
<use x="264.13" y="76.01" xlink:href="#hl"/>
<use x="264.13" y="70.01" xlink:href="#hl"/>
<use x="264.13" y="70.01" xlink:href="#hd"/>
<path d="M260.63 70.01v24.00" stroke="currentColor" fill="none"/>
<use x="300.63" y="76.01" xlink:href="#hl"/>
<use x="300.63" y="70.01" xlink:href="#hl"/>
<use x="300.63" y="70.01" xlink:href="#Hd"/>
<circle fill="currentColor" cx="309.63" cy="67.01" r="1.2"/>
<path d="M297.13 70.01v24.00" stroke="currentColor" fill="none"/>
<use x="351.23" y="76.01" xlink:href="#hl"/>
<use x="351.23" y="73.01" xlink:href="#hd"/>
<circle fill="currentColor" cx="359.23" cy="73.01" r="1.2"/>
<path d="M347.73 73.01v21.00" stroke="currentColor" fill="none"/>
<use x="384.93" y="76.01" xlink:href="#hl"/>
<use x="384.93" y="70.01" xlink:href="#hl"/>
<use x="384.93" y="70.01" xlink:href="#hd"/>
<path d="M381.43 70.01v24.00" stroke="currentColor" fill="none"/>
<path fill="currentColor"
	d="M381.43 94.01c0.6 -5.6 9.6 -9 5.6 -18.4
	c1.6 6 -1.3 11.6 -5.6 12.8
"/>
<use x="405.83" y="79.01" xlink:href="#hd"/>
<path d="M402.33 79.01v20.00" stroke="currentColor" fill="none"/>
<use x="441.83" y="79.01" xlink:href="#hd"/>
<path d="M438.33 79.01v20.00" stroke="currentColor" fill="none"/>
<use x="470.93" y="76.01" xlink:href="#hl"/>
<use x="470.93" y="73.01" xlink:href="#hd"/>
<path d="M467.43 73.01v21.00" stroke="currentColor" fill="none"/>
<path fill="currentColor"
	d="M467.43 94.01c0.6 -5.6 9.6 -9 5.6 -18.4
	c1.6 6 -1.3 11.6 -5.6 12.8
"/>
<use x="491.93" y="76.01" xlink:href="#hl"/>
<use x="491.93" y="70.01" xlink:href="#hl"/>
<use x="491.93" y="70.01" xlink:href="#hd"/>
<path d="M488.43 70.01v24.00" stroke="currentColor" fill="none"/>
<path fill="currentColor"
	d="M488.43 94.01c0.6 -5.6 9.6 -9 5.6 -18.4
	c1.6 6 -1.3 11.6 -5.6 12.8
"/>
<use x="512.73" y="79.01" xlink:href="#hd"/>
<path d="M509.23 79.01v20.00" stroke="currentColor" fill="none"/>
<use x="548.73" y="79.01" xlink:href="#hd"/>
<path d="M545.23 79.01v20.00" stroke="currentColor" fill="none"/>
<use x="577.93" y="76.01" xlink:href="#hl"/>
<use x="577.93" y="73.01" xlink:href="#hd"/>
<path d="M574.43 73.01v21.00" stroke="currentColor" fill="none"/>
<path fill="currentColor"
	d="M574.43 94.01c0.6 -5.6 9.6 -9 5.6 -18.4
	c1.6 6 -1.3 11.6 -5.6 12.8
"/>
<use x="598.83" y="76.01" xlink:href="#hl"/>
<use x="598.83" y="70.01" xlink:href="#hl"/>
<use x="598.83" y="70.01" xlink:href="#hd"/>
<path d="M595.33 70.01v24.00" stroke="currentColor" fill="none"/>
<path fill="currentColor"
	d="M595.33 94.01c0.6 -5.6 9.6 -9 5.6 -18.4
	c1.6 6 -1.3 11.6 -5.6 12.8
"/>
<use x="620.33" y="82.01" xlink:href="#hd"/>
<defs>
<path id="unat" fill="currentColor" d="
	m96 -750
	h-32
	v716
	l32 -8
	l182 -54
	v282
	h32
	v-706
	l-34 10
	l-180 50
	v-290
	m0 592
	v-190
	l182 -52
	v188"/>
<use id="nt0" transform="translate(-3,5) scale(0.018)"
	xlink:href="#unat"/>
</defs>
<use x="611.33" y="82.01" xlink:href="#nt0"/>
<path d="M616.83 82.01v20.00" stroke="currentColor" fill="none"/>
<use x="656.83" y="82.01" xlink:href="#Hd"/>
<circle fill="currentColor" cx="665.83" cy="79.01" r="1.2"/>
<path d="M653.33 82.01v20.00" stroke="currentColor" fill="none"/>
<path fill="currentColor"
	d="M125.83 64.01c4.65 -5.03 24.85 -5.03 29.50 -0.00
	l0.00 -0.23c-5.53 -6.80 -23.97 -6.80 -29.50 0.23"/>
<path fill="currentColor"
	d="M267.63 70.01c4.65 -5.03 24.85 -5.03 29.50 -0.00
	l0.00 -0.23c-5.53 -6.80 -23.97 -6.80 -29.50 0.23"/>
<path fill="currentColor"
	d="M409.33 77.01c4.57 -5.02 24.43 -5.02 29.00 -0.00
	l0.00 -0.23c-5.44 -6.79 -23.56 -6.79 -29.00 0.23"/>
<path fill="currentColor"
	d="M516.23 77.01c4.57 -5.02 24.43 -5.02 29.00 -0.00
	l0.00 -0.23c-5.44 -6.79 -23.56 -6.79 -29.00 0.23"/>
<path fill="currentColor"
	d="M623.83 82.01c4.65 -5.03 24.85 -5.03 29.50 -0.00
	l0.00 -0.23c-5.53 -6.80 -23.97 -6.80 -29.50 0.23"/>
</g>
</svg>
