<?xml version="1.0" standalone="no"?>
<!DOCTYPE svg PUBLIC "-//W3C//DTD SVG 1.1//EN"
	"http://www.w3.org/Graphics/SVG/1.1/DTD/svg11.dtd">
<svg xmlns="http://www.w3.org/2000/svg" version="1.1"
	xmlns:xlink="http://www.w3.org/1999/xlink"
	xml:space='preserve' color="black"
	width="7.38in" height="1.52in" viewBox="0 0 531 110">
<title>6941.abc (6941) tune 1</title>
<!-- Creator: abcm2ps-7.8.14 -->
<!-- CreationDate: Mar 13, 2016 18:54 -->
<!-- CommandLine: -qxg 6941.abc -O ../svgs/6941.svg -->
<g transform="scale(0.750)" stroke-width="0.70" font-family="Times" font-size="20.00">
<text x="354.13" y="21.67" text-anchor="middle">6941.  Wiener-Bonbons, Op. 307, Waltzes, No. 5, 1st. Theme</text>
</g>
<g transform="scale(0.750)" stroke-width="0.70" font-family="Times" font-size="14.00" font-style="italic">
<text x="694.93" y="45.34" text-anchor="end">Johann, Jr. Strauss</text>
</g>
<g transform="scale(0.525)" stroke-width="0.70" font-family="Times" font-size="14.00" font-style="italic">
<defs>
<ellipse id="hd" rx="4.1" ry="2.9"
	transform="rotate(-20)" fill="currentColor"/>
</defs>
<use x="114.90" y="94.16" xlink:href="#hd"/>
<path d="M118.40 94.16v-20.00" stroke="currentColor" fill="none"/>
</g>
<g transform="scale(0.750)" stroke-width="0.70" font-family="Times" font-size="15.00" font-weight="bold">
<text x="88.13" y="68.01">= 120</text>
<path stroke="currentColor" fill="none"
	d="M169.93 123.01v-24.00"/>
<path stroke="currentColor" fill="none"
	d="M272.53 123.01v-24.00"/>
<path stroke="currentColor" fill="none"
	d="M375.13 123.01v-24.00"/>
<path stroke="currentColor" fill="none"
	d="M483.73 123.01v-24.00"/>
<path stroke="currentColor" fill="none"
	d="M592.33 123.01v-24.00"/>
<path stroke="currentColor" fill="none"
	d="M694.93 123.01v-24.00"/>
<path stroke="currentColor" fill="none"
	d="M13.33 123.01h681.60m-681.60 -6h681.60m-681.60 -6h681.60m-681.60 -6h681.60m-681.60 -6h681.60"/>
<defs>
<path id="utclef" fill="currentColor" d="m-50 -90
	c-72 -41 -72 -158 52 -188
	c150 -10 220 188 90 256
	c-114 52 -275 0 -293 -136
	c-15 -181 93 -229 220 -334
	c88 -87 79 -133 62 -210
	c-51 33 -94 105 -89 186
	c17 267 36 374 49 574
	c6 96 -19 134 -77 135
	c-80 1 -126 -93 -61 -133
	c85 -41 133 101 31 105
	c23 17 92 37 90 -92
	c-10 -223 -39 -342 -50 -617
	c0 -90 0 -162 96 -232
	c56 72 63 230 22 289
	c-74 106 -257 168 -255 316
	c9 153 148 185 252 133
	c86 -65 29 -192 -80 -176
	c-71 12 -105 67 -59 124"/>
<use id="tclef" transform="scale(0.045)"
	xlink:href="#utclef"/>
</defs>
<use x="25.33" y="123.01" xlink:href="#tclef"/>
<defs>
<path id="uflat" fill="currentColor" d="
	m100 -746
	h32
	v734
	l-32 4
	m32 -332
	c46 -72 152 -90 208 -20
	c100 110 -120 326 -208 348
	m0 -28
	c54 0 200 -206 130 -290
	c-50 -60 -130 -4 -130 34"/>
<use id="ft0" transform="translate(-3.5,3.5) scale(0.018)"
	xlink:href="#uflat"/>
</defs>
<use x="40.33" y="111.01" xlink:href="#ft0"/>
<use x="45.83" y="102.01" xlink:href="#ft0"/>
<g font-family="serif" font-size="16" font-weight="bold" font-style="normal"
	transform="translate(61.83,123.01) scale(1.2,1)">
	<text y="-1" text-anchor="middle">4</text>
	<text y="-13" text-anchor="middle">3</text>
</g>
<defs>
<path id="hl" stroke="currentColor" d="m-6 0h12"/>
</defs>
<use x="79.83" y="93.01" xlink:href="#hl"/>
<use x="79.83" y="87.01" xlink:href="#hl"/>
<use x="79.83" y="81.01" xlink:href="#hl"/>
<use x="79.83" y="78.01" xlink:href="#hd"/>
<path d="M76.33 78.01v33.00" stroke="currentColor" fill="none"/>
<use x="104.93" y="93.01" xlink:href="#hl"/>
<use x="104.93" y="87.01" xlink:href="#hl"/>
<use x="104.93" y="81.01" xlink:href="#hl"/>
<use x="104.93" y="81.01" xlink:href="#hd"/>
<defs>
<path id="unat" fill="currentColor" d="
	m96 -750
	h-32
	v716
	l32 -8
	l182 -54
	v282
	h32
	v-706
	l-34 10
	l-180 50
	v-290
	m0 592
	v-190
	l182 -52
	v188"/>
<use id="nt0" transform="translate(-3,5) scale(0.018)"
	xlink:href="#unat"/>
</defs>
<use x="95.93" y="81.01" xlink:href="#nt0"/>
<path d="M101.43 81.01v30.00" stroke="currentColor" fill="none"/>
<path fill="currentColor"
	d="M101.43 111.01c0.6 -5.6 9.6 -9 5.6 -18.4
	c1.6 6 -1.3 11.6 -5.6 12.8
"/>
<path fill="currentColor"
	d="M118.33 111.21l34.40 0.00v-3.20l-34.40 -0.00"/>
<use x="122.13" y="93.01" xlink:href="#hl"/>
<use x="122.13" y="87.01" xlink:href="#hl"/>
<use x="122.13" y="81.01" xlink:href="#hl"/>
<use x="122.13" y="78.01" xlink:href="#hd"/>
<path d="M118.63 78.01v32.20" stroke="currentColor" fill="none"/>
<use x="140.13" y="93.01" xlink:href="#hl"/>
<use x="140.13" y="87.01" xlink:href="#hl"/>
<use x="140.13" y="81.01" xlink:href="#hl"/>
<use x="140.13" y="81.01" xlink:href="#hd"/>
<use x="131.13" y="81.01" xlink:href="#nt0"/>
<path d="M136.63 81.01v29.20" stroke="currentColor" fill="none"/>
<use x="155.93" y="93.01" xlink:href="#hl"/>
<use x="155.93" y="87.01" xlink:href="#hl"/>
<use x="155.93" y="81.01" xlink:href="#hl"/>
<use x="155.93" y="78.01" xlink:href="#hd"/>
<path d="M152.43 78.01v32.20" stroke="currentColor" fill="none"/>
<use x="182.43" y="93.01" xlink:href="#hl"/>
<use x="182.43" y="87.01" xlink:href="#hl"/>
<use x="182.43" y="81.01" xlink:href="#hl"/>
<use x="182.43" y="75.01" xlink:href="#hl"/>
<use x="182.43" y="75.01" xlink:href="#hd"/>
<path d="M178.93 75.01v36.00" stroke="currentColor" fill="none"/>
<use x="207.53" y="93.01" xlink:href="#hl"/>
<use x="207.53" y="87.01" xlink:href="#hl"/>
<use x="207.53" y="81.01" xlink:href="#hl"/>
<use x="207.53" y="81.01" xlink:href="#hd"/>
<use x="198.53" y="81.01" xlink:href="#nt0"/>
<path d="M204.03 81.01v30.00" stroke="currentColor" fill="none"/>
<path fill="currentColor"
	d="M204.03 111.01c0.6 -5.6 9.6 -9 5.6 -18.4
	c1.6 6 -1.3 11.6 -5.6 12.8
"/>
<path fill="currentColor"
	d="M220.93 111.21l34.40 0.00v-3.20l-34.40 -0.00"/>
<use x="224.73" y="93.01" xlink:href="#hl"/>
<use x="224.73" y="87.01" xlink:href="#hl"/>
<use x="224.73" y="81.01" xlink:href="#hl"/>
<use x="224.73" y="78.01" xlink:href="#hd"/>
<path d="M221.23 78.01v32.20" stroke="currentColor" fill="none"/>
<use x="242.73" y="93.01" xlink:href="#hl"/>
<use x="242.73" y="87.01" xlink:href="#hl"/>
<use x="242.73" y="81.01" xlink:href="#hl"/>
<use x="242.73" y="81.01" xlink:href="#hd"/>
<use x="233.73" y="81.01" xlink:href="#nt0"/>
<path d="M239.23 81.01v29.20" stroke="currentColor" fill="none"/>
<use x="258.53" y="93.01" xlink:href="#hl"/>
<use x="258.53" y="87.01" xlink:href="#hl"/>
<use x="258.53" y="81.01" xlink:href="#hl"/>
<use x="258.53" y="78.01" xlink:href="#hd"/>
<path d="M255.03 78.01v32.20" stroke="currentColor" fill="none"/>
<use x="285.03" y="93.01" xlink:href="#hl"/>
<use x="285.03" y="87.01" xlink:href="#hl"/>
<use x="285.03" y="84.01" xlink:href="#hd"/>
<path d="M281.53 84.01v27.00" stroke="currentColor" fill="none"/>
<use x="310.13" y="93.01" xlink:href="#hl"/>
<use x="310.13" y="87.01" xlink:href="#hl"/>
<use x="310.13" y="81.01" xlink:href="#hl"/>
<use x="310.13" y="81.01" xlink:href="#hd"/>
<use x="301.13" y="81.01" xlink:href="#nt0"/>
<path d="M306.63 81.01v30.00" stroke="currentColor" fill="none"/>
<path fill="currentColor"
	d="M306.63 111.01c0.6 -5.6 9.6 -9 5.6 -18.4
	c1.6 6 -1.3 11.6 -5.6 12.8
"/>
<path fill="currentColor"
	d="M323.53 111.21l34.40 0.00v-3.20l-34.40 -0.00"/>
<use x="327.33" y="93.01" xlink:href="#hl"/>
<use x="327.33" y="87.01" xlink:href="#hl"/>
<use x="327.33" y="81.01" xlink:href="#hl"/>
<use x="327.33" y="78.01" xlink:href="#hd"/>
<path d="M323.83 78.01v32.20" stroke="currentColor" fill="none"/>
<use x="345.33" y="93.01" xlink:href="#hl"/>
<use x="345.33" y="87.01" xlink:href="#hl"/>
<use x="345.33" y="81.01" xlink:href="#hl"/>
<use x="345.33" y="81.01" xlink:href="#hd"/>
<use x="336.33" y="81.01" xlink:href="#nt0"/>
<path d="M341.83 81.01v29.20" stroke="currentColor" fill="none"/>
<use x="361.13" y="93.01" xlink:href="#hl"/>
<use x="361.13" y="87.01" xlink:href="#hl"/>
<use x="361.13" y="81.01" xlink:href="#hl"/>
<use x="361.13" y="78.01" xlink:href="#hd"/>
<path d="M357.63 78.01v32.20" stroke="currentColor" fill="none"/>
<use x="393.63" y="93.01" xlink:href="#hl"/>
<use x="393.63" y="87.01" xlink:href="#hl"/>
<use x="393.63" y="81.01" xlink:href="#hl"/>
<use x="393.63" y="81.01" xlink:href="#hd"/>
<use x="384.63" y="81.01" xlink:href="#ft0"/>
<path d="M390.13 81.01v30.00" stroke="currentColor" fill="none"/>
<use x="418.73" y="93.01" xlink:href="#hl"/>
<use x="418.73" y="87.01" xlink:href="#hl"/>
<use x="418.73" y="81.01" xlink:href="#hl"/>
<use x="418.73" y="81.01" xlink:href="#hd"/>
<use x="409.73" y="81.01" xlink:href="#nt0"/>
<path d="M415.23 81.01v30.00" stroke="currentColor" fill="none"/>
<path fill="currentColor"
	d="M415.23 111.01c0.6 -5.6 9.6 -9 5.6 -18.4
	c1.6 6 -1.3 11.6 -5.6 12.8
"/>
<path fill="currentColor"
	d="M432.13 111.21l34.40 0.00v-3.20l-34.40 -0.00"/>
<use x="435.93" y="93.01" xlink:href="#hl"/>
<use x="435.93" y="87.01" xlink:href="#hl"/>
<use x="435.93" y="81.01" xlink:href="#hl"/>
<use x="435.93" y="78.01" xlink:href="#hd"/>
<path d="M432.43 78.01v32.20" stroke="currentColor" fill="none"/>
<use x="453.93" y="93.01" xlink:href="#hl"/>
<use x="453.93" y="87.01" xlink:href="#hl"/>
<use x="453.93" y="81.01" xlink:href="#hl"/>
<use x="453.93" y="81.01" xlink:href="#hd"/>
<use x="444.93" y="81.01" xlink:href="#nt0"/>
<path d="M450.43 81.01v29.20" stroke="currentColor" fill="none"/>
<use x="469.73" y="93.01" xlink:href="#hl"/>
<use x="469.73" y="87.01" xlink:href="#hl"/>
<use x="469.73" y="81.01" xlink:href="#hl"/>
<use x="469.73" y="78.01" xlink:href="#hd"/>
<path d="M466.23 78.01v32.20" stroke="currentColor" fill="none"/>
<use x="502.23" y="93.01" xlink:href="#hl"/>
<use x="502.23" y="87.01" xlink:href="#hl"/>
<use x="502.23" y="81.01" xlink:href="#hl"/>
<use x="502.23" y="75.01" xlink:href="#hl"/>
<use x="502.23" y="69.01" xlink:href="#hl"/>
<use x="502.23" y="63.01" xlink:href="#hl"/>
<use x="502.23" y="60.01" xlink:href="#hd"/>
<use x="493.23" y="60.01" xlink:href="#ft0"/>
<path d="M498.73 60.01v51.00" stroke="currentColor" fill="none"/>
<use x="527.33" y="93.01" xlink:href="#hl"/>
<use x="527.33" y="87.01" xlink:href="#hl"/>
<use x="527.33" y="81.01" xlink:href="#hl"/>
<use x="527.33" y="81.01" xlink:href="#hd"/>
<use x="518.33" y="81.01" xlink:href="#nt0"/>
<path d="M523.83 81.01v30.00" stroke="currentColor" fill="none"/>
<path fill="currentColor"
	d="M523.83 111.01c0.6 -5.6 9.6 -9 5.6 -18.4
	c1.6 6 -1.3 11.6 -5.6 12.8
"/>
<path fill="currentColor"
	d="M540.73 111.21l34.40 0.00v-3.20l-34.40 -0.00"/>
<use x="544.53" y="93.01" xlink:href="#hl"/>
<use x="544.53" y="87.01" xlink:href="#hl"/>
<use x="544.53" y="81.01" xlink:href="#hl"/>
<use x="544.53" y="78.01" xlink:href="#hd"/>
<path d="M541.03 78.01v32.20" stroke="currentColor" fill="none"/>
<use x="562.53" y="93.01" xlink:href="#hl"/>
<use x="562.53" y="87.01" xlink:href="#hl"/>
<use x="562.53" y="81.01" xlink:href="#hl"/>
<use x="562.53" y="81.01" xlink:href="#hd"/>
<use x="553.53" y="81.01" xlink:href="#nt0"/>
<path d="M559.03 81.01v29.20" stroke="currentColor" fill="none"/>
<use x="578.33" y="93.01" xlink:href="#hl"/>
<use x="578.33" y="87.01" xlink:href="#hl"/>
<use x="578.33" y="81.01" xlink:href="#hl"/>
<use x="578.33" y="78.01" xlink:href="#hd"/>
<path d="M574.83 78.01v32.20" stroke="currentColor" fill="none"/>
<use x="604.83" y="93.01" xlink:href="#hl"/>
<use x="604.83" y="87.01" xlink:href="#hl"/>
<use x="604.83" y="81.01" xlink:href="#hl"/>
<use x="604.83" y="75.01" xlink:href="#hl"/>
<use x="604.83" y="75.01" xlink:href="#hd"/>
<path d="M601.33 75.01v36.00" stroke="currentColor" fill="none"/>
<use x="629.93" y="93.01" xlink:href="#hl"/>
<use x="629.93" y="87.01" xlink:href="#hl"/>
<use x="629.93" y="81.01" xlink:href="#hl"/>
<use x="629.93" y="81.01" xlink:href="#hd"/>
<use x="620.93" y="81.01" xlink:href="#nt0"/>
<path d="M626.43 81.01v30.00" stroke="currentColor" fill="none"/>
<path fill="currentColor"
	d="M626.43 111.01c0.6 -5.6 9.6 -9 5.6 -18.4
	c1.6 6 -1.3 11.6 -5.6 12.8
"/>
<path fill="currentColor"
	d="M643.33 111.21l34.40 0.00v-3.20l-34.40 -0.00"/>
<use x="647.13" y="93.01" xlink:href="#hl"/>
<use x="647.13" y="87.01" xlink:href="#hl"/>
<use x="647.13" y="81.01" xlink:href="#hl"/>
<use x="647.13" y="78.01" xlink:href="#hd"/>
<path d="M643.63 78.01v32.20" stroke="currentColor" fill="none"/>
<use x="665.13" y="93.01" xlink:href="#hl"/>
<use x="665.13" y="87.01" xlink:href="#hl"/>
<use x="665.13" y="81.01" xlink:href="#hl"/>
<use x="665.13" y="81.01" xlink:href="#hd"/>
<use x="656.13" y="81.01" xlink:href="#nt0"/>
<path d="M661.63 81.01v29.20" stroke="currentColor" fill="none"/>
<use x="680.93" y="93.01" xlink:href="#hl"/>
<use x="680.93" y="87.01" xlink:href="#hl"/>
<use x="680.93" y="81.01" xlink:href="#hl"/>
<use x="680.93" y="78.01" xlink:href="#hd"/>
<path d="M677.43 78.01v32.20" stroke="currentColor" fill="none"/>
</g>
</svg>
