<?xml version="1.0" standalone="no"?>
<!DOCTYPE svg PUBLIC "-//W3C//DTD SVG 1.1//EN"
	"http://www.w3.org/Graphics/SVG/1.1/DTD/svg11.dtd">
<svg xmlns="http://www.w3.org/2000/svg" version="1.1"
	xmlns:xlink="http://www.w3.org/1999/xlink"
	xml:space='preserve' color="black"
	width="7.38in" height="1.40in" viewBox="0 0 531 101">
<title>6948.abc (6948) tune 1</title>
<!-- Creator: abcm2ps-7.8.14 -->
<!-- CreationDate: Mar 13, 2016 18:54 -->
<!-- CommandLine: -qxg 6948.abc -O ../svgs/6948.svg -->
<g transform="scale(0.750)" stroke-width="0.70" font-family="Times" font-size="20.00">
<text x="354.13" y="21.67" text-anchor="middle">6948.  Dorfschwalben Aus Oesterreich, Op. 164, Waltzes, No. 3</text>
</g>
<g transform="scale(0.750)" stroke-width="0.70" font-family="Times" font-size="14.00" font-style="italic">
<text x="694.93" y="45.34" text-anchor="end">Joseph Strauss</text>
</g>
<g transform="scale(0.525)" stroke-width="0.70" font-family="Times" font-size="14.00" font-style="italic">
<defs>
<ellipse id="hd" rx="4.1" ry="2.9"
	transform="rotate(-20)" fill="currentColor"/>
</defs>
<use x="114.90" y="94.16" xlink:href="#hd"/>
<path d="M118.40 94.16v-20.00" stroke="currentColor" fill="none"/>
</g>
<g transform="scale(0.750)" stroke-width="0.70" font-family="Times" font-size="15.00" font-weight="bold">
<text x="88.13" y="68.01">= 120</text>
<path stroke="currentColor" fill="none"
	d="M153.33 111.01v-24.00"/>
<path stroke="currentColor" fill="none"
	d="M240.03 111.01v-24.00"/>
<path stroke="currentColor" fill="none"
	d="M332.33 111.01v-24.00"/>
<path stroke="currentColor" fill="none"
	d="M419.03 111.01v-24.00"/>
<path stroke="currentColor" fill="none"
	d="M480.73 111.01v-24.00"/>
<path stroke="currentColor" fill="none"
	d="M566.93 111.01v-24.00"/>
<path stroke="currentColor" fill="none"
	d="M637.73 111.01v-24.00"/>
<path stroke="currentColor" fill="none"
	d="M13.33 111.01h681.60m-681.60 -6h681.60m-681.60 -6h681.60m-681.60 -6h681.60m-681.60 -6h681.60"/>
<defs>
<path id="utclef" fill="currentColor" d="m-50 -90
	c-72 -41 -72 -158 52 -188
	c150 -10 220 188 90 256
	c-114 52 -275 0 -293 -136
	c-15 -181 93 -229 220 -334
	c88 -87 79 -133 62 -210
	c-51 33 -94 105 -89 186
	c17 267 36 374 49 574
	c6 96 -19 134 -77 135
	c-80 1 -126 -93 -61 -133
	c85 -41 133 101 31 105
	c23 17 92 37 90 -92
	c-10 -223 -39 -342 -50 -617
	c0 -90 0 -162 96 -232
	c56 72 63 230 22 289
	c-74 106 -257 168 -255 316
	c9 153 148 185 252 133
	c86 -65 29 -192 -80 -176
	c-71 12 -105 67 -59 124"/>
<use id="tclef" transform="scale(0.045)"
	xlink:href="#utclef"/>
</defs>
<use x="25.33" y="111.01" xlink:href="#tclef"/>
<defs>
<path id="uflat" fill="currentColor" d="
	m100 -746
	h32
	v734
	l-32 4
	m32 -332
	c46 -72 152 -90 208 -20
	c100 110 -120 326 -208 348
	m0 -28
	c54 0 200 -206 130 -290
	c-50 -60 -130 -4 -130 34"/>
<use id="ft0" transform="translate(-3.5,3.5) scale(0.018)"
	xlink:href="#uflat"/>
</defs>
<use x="40.33" y="99.01" xlink:href="#ft0"/>
<use x="45.83" y="90.01" xlink:href="#ft0"/>
<g font-family="serif" font-size="16" font-weight="bold" font-style="normal"
	transform="translate(61.83,111.01) scale(1.2,1)">
	<text y="-1" text-anchor="middle">4</text>
	<text y="-13" text-anchor="middle">3</text>
</g>
<use x="79.83" y="87.01" xlink:href="#hd"/>
<path d="M76.33 87.01v20.00" stroke="currentColor" fill="none"/>
<defs>
<path id="hl" stroke="currentColor" d="m-6 0h12"/>
</defs>
<use x="102.83" y="81.01" xlink:href="#hl"/>
<use x="102.83" y="78.01" xlink:href="#hd"/>
<path d="M99.33 78.01v21.00" stroke="currentColor" fill="none"/>
<path fill="currentColor"
	d="M99.33 99.01c0.6 -5.6 9.6 -9 5.6 -18.4
	c1.6 6 -1.3 11.6 -5.6 12.8
"/>
<defs>
<path id="r8e" fill="currentColor" d="m 0 0
	c-1.5 1.5 -2.4 2 -3.6 2
	c2.4 -2.8 -2.8 -4 -2.8 -1.2
	c0 2.7 4.3 2.4 5.9 0.6"/>
<g id="r8">
	<path d="m3.3 -4l-3.4 9.6" stroke="currentColor" fill="none"/>
	<use x="3.4" y="-4" xlink:href="#r8e"/>
</g>
</defs>
<use x="117.93" y="99.01" xlink:href="#r8"/>
<use x="134.63" y="81.01" xlink:href="#hl"/>
<use x="134.63" y="78.01" xlink:href="#hd"/>
<path d="M131.13 78.01v21.00" stroke="currentColor" fill="none"/>
<path fill="currentColor"
	d="M162.03 99.21l16.10 0.00v-3.20l-16.10 -0.00"/>
<use x="165.83" y="81.01" xlink:href="#hl"/>
<use x="165.83" y="78.01" xlink:href="#hd"/>
<path d="M162.33 78.01v20.20" stroke="currentColor" fill="none"/>
<use x="181.23" y="81.01" xlink:href="#hl"/>
<use x="181.23" y="78.01" xlink:href="#hd"/>
<path d="M177.73 78.01v20.20" stroke="currentColor" fill="none"/>
<use x="198.13" y="81.01" xlink:href="#hl"/>
<use x="198.13" y="78.01" xlink:href="#hd"/>
<path d="M194.63 78.01v21.00" stroke="currentColor" fill="none"/>
<use x="221.33" y="81.01" xlink:href="#hl"/>
<use x="221.33" y="78.01" xlink:href="#hd"/>
<path d="M217.83 78.01v21.00" stroke="currentColor" fill="none"/>
<use x="258.53" y="81.01" xlink:href="#hl"/>
<use x="258.53" y="78.01" xlink:href="#hd"/>
<defs>
<path id="unat" fill="currentColor" d="
	m96 -750
	h-32
	v716
	l32 -8
	l182 -54
	v282
	h32
	v-706
	l-34 10
	l-180 50
	v-290
	m0 592
	v-190
	l182 -52
	v188"/>
<use id="nt0" transform="translate(-3,5) scale(0.018)"
	xlink:href="#unat"/>
</defs>
<use x="249.53" y="78.01" xlink:href="#nt0"/>
<path d="M255.03 78.01v21.00" stroke="currentColor" fill="none"/>
<use x="281.73" y="81.01" xlink:href="#hl"/>
<use x="281.73" y="75.01" xlink:href="#hl"/>
<use x="281.73" y="75.01" xlink:href="#hd"/>
<path d="M278.23 75.01v24.00" stroke="currentColor" fill="none"/>
<path fill="currentColor"
	d="M278.23 99.01c0.6 -5.6 9.6 -9 5.6 -18.4
	c1.6 6 -1.3 11.6 -5.6 12.8
"/>
<use x="296.93" y="99.01" xlink:href="#r8"/>
<use x="313.63" y="81.01" xlink:href="#hl"/>
<use x="313.63" y="75.01" xlink:href="#hl"/>
<use x="313.63" y="75.01" xlink:href="#hd"/>
<path d="M310.13 75.01v24.00" stroke="currentColor" fill="none"/>
<path fill="currentColor"
	d="M341.03 99.21l16.10 0.00v-3.20l-16.10 -0.00"/>
<use x="344.83" y="81.01" xlink:href="#hl"/>
<use x="344.83" y="75.01" xlink:href="#hl"/>
<use x="344.83" y="75.01" xlink:href="#hd"/>
<path d="M341.33 75.01v23.20" stroke="currentColor" fill="none"/>
<use x="360.23" y="81.01" xlink:href="#hl"/>
<use x="360.23" y="75.01" xlink:href="#hl"/>
<use x="360.23" y="75.01" xlink:href="#hd"/>
<path d="M356.73 75.01v23.20" stroke="currentColor" fill="none"/>
<use x="377.13" y="81.01" xlink:href="#hl"/>
<use x="377.13" y="75.01" xlink:href="#hl"/>
<use x="377.13" y="75.01" xlink:href="#hd"/>
<path d="M373.63 75.01v24.00" stroke="currentColor" fill="none"/>
<use x="400.33" y="81.01" xlink:href="#hl"/>
<use x="400.33" y="75.01" xlink:href="#hl"/>
<use x="400.33" y="75.01" xlink:href="#hd"/>
<path d="M396.83 75.01v24.00" stroke="currentColor" fill="none"/>
<use x="431.53" y="81.01" xlink:href="#hl"/>
<use x="431.53" y="75.01" xlink:href="#hl"/>
<use x="431.53" y="75.01" xlink:href="#hd"/>
<path d="M428.03 75.01v24.00" stroke="currentColor" fill="none"/>
<use x="454.73" y="81.01" xlink:href="#hl"/>
<use x="454.73" y="75.01" xlink:href="#hl"/>
<use x="454.73" y="69.01" xlink:href="#hl"/>
<use x="454.73" y="63.01" xlink:href="#hl"/>
<defs>
<path id="Hd" fill="currentColor" d="m3 -1.6
	c-1 -1.8 -7 1.4 -6 3.2
	c1 1.8 7 -1.4 6 -3.2
	m0.5 -0.3
	c2 3.8 -5 7.6 -7 3.8
	c-2 -3.8 5 -7.6 7 -3.8"/>
</defs>
<use x="454.73" y="63.01" xlink:href="#Hd"/>
<path d="M451.23 63.01v36.00" stroke="currentColor" fill="none"/>
<use x="493.23" y="81.01" xlink:href="#hl"/>
<use x="493.23" y="75.01" xlink:href="#hl"/>
<use x="493.23" y="69.01" xlink:href="#hl"/>
<use x="493.23" y="63.01" xlink:href="#hl"/>
<use x="493.23" y="60.01" xlink:href="#hd"/>
<path d="M489.73 60.01v39.00" stroke="currentColor" fill="none"/>
<use x="516.43" y="81.01" xlink:href="#hl"/>
<use x="516.43" y="75.01" xlink:href="#hl"/>
<use x="516.43" y="69.01" xlink:href="#hl"/>
<use x="516.43" y="69.01" xlink:href="#hd"/>
<path d="M512.93 69.01v30.00" stroke="currentColor" fill="none"/>
<path fill="currentColor"
	d="M512.93 99.01c0.6 -5.6 9.6 -9 5.6 -18.4
	c1.6 6 -1.3 11.6 -5.6 12.8
"/>
<use x="531.53" y="99.01" xlink:href="#r8"/>
<use x="548.23" y="81.01" xlink:href="#hl"/>
<use x="548.23" y="75.01" xlink:href="#hl"/>
<use x="548.23" y="69.01" xlink:href="#hl"/>
<use x="548.23" y="69.01" xlink:href="#hd"/>
<path d="M544.73 69.01v30.00" stroke="currentColor" fill="none"/>
<path fill="currentColor"
	d="M575.63 99.21l16.10 0.00v-3.20l-16.10 -0.00"/>
<use x="579.43" y="81.01" xlink:href="#hl"/>
<use x="579.43" y="75.01" xlink:href="#hl"/>
<use x="579.43" y="69.01" xlink:href="#hl"/>
<use x="579.43" y="69.01" xlink:href="#hd"/>
<path d="M575.93 69.01v29.20" stroke="currentColor" fill="none"/>
<use x="594.83" y="81.01" xlink:href="#hl"/>
<use x="594.83" y="75.01" xlink:href="#hl"/>
<use x="594.83" y="69.01" xlink:href="#hl"/>
<use x="594.83" y="69.01" xlink:href="#hd"/>
<path d="M591.33 69.01v29.20" stroke="currentColor" fill="none"/>
<use x="611.73" y="81.01" xlink:href="#hl"/>
<use x="611.73" y="75.01" xlink:href="#hl"/>
<use x="611.73" y="69.01" xlink:href="#hl"/>
<use x="611.73" y="66.01" xlink:href="#Hd"/>
<path d="M608.23 66.01v33.00" stroke="currentColor" fill="none"/>
<use x="650.23" y="81.01" xlink:href="#hl"/>
<use x="650.23" y="75.01" xlink:href="#hl"/>
<use x="650.23" y="69.01" xlink:href="#hl"/>
<use x="650.23" y="63.01" xlink:href="#hl"/>
<use x="650.23" y="63.01" xlink:href="#hd"/>
<path d="M646.73 63.01v36.00" stroke="currentColor" fill="none"/>
<use x="673.43" y="81.01" xlink:href="#hl"/>
<use x="673.43" y="75.01" xlink:href="#hl"/>
<use x="673.43" y="72.01" xlink:href="#hd"/>
<path d="M669.93 72.01v27.00" stroke="currentColor" fill="none"/>
<path fill="currentColor"
	d="M138.13 76.01c3.82 -4.94 20.42 -4.94 24.24 -0.00
	l0.00 -0.22c-4.54 -6.71 -19.69 -6.71 -24.24 0.22"/>
<path fill="currentColor"
	d="M317.13 75.01c3.82 -4.94 20.42 -4.94 24.24 -0.00
	l0.00 -0.22c-4.54 -6.71 -19.69 -6.71 -24.24 0.22"/>
<path fill="currentColor"
	d="M551.73 69.01c3.82 -4.94 20.42 -4.94 24.24 -0.00
	l0.00 -0.22c-4.54 -6.71 -19.69 -6.71 -24.24 0.22"/>
</g>
</svg>
