<?xml version="1.0" standalone="no"?>
<!DOCTYPE svg PUBLIC "-//W3C//DTD SVG 1.1//EN"
	"http://www.w3.org/Graphics/SVG/1.1/DTD/svg11.dtd">
<svg xmlns="http://www.w3.org/2000/svg" version="1.1"
	xmlns:xlink="http://www.w3.org/1999/xlink"
	xml:space='preserve' color="black"
	width="7.38in" height="1.74in" viewBox="0 0 531 125">
<title>6984.abc (6984) tune 1</title>
<!-- Creator: abcm2ps-7.8.14 -->
<!-- CreationDate: Mar 13, 2016 18:54 -->
<!-- CommandLine: -qxg 6984.abc -O ../svgs/6984.svg -->
<g transform="scale(0.750)" stroke-width="0.70" font-family="Times" font-size="20.00">
<text x="354.13" y="21.67" text-anchor="middle">6984.  Also Sprach Zarathustra, Op. 30, 7th. Theme A</text>
</g>
<g transform="scale(0.750)" stroke-width="0.70" font-family="Times" font-size="14.00" font-style="italic">
<text x="694.93" y="45.34" text-anchor="end">Richard Strauss</text>
</g>
<g transform="scale(0.525)" stroke-width="0.70" font-family="Times" font-size="14.00" font-style="italic">
<defs>
<ellipse id="hd" rx="4.1" ry="2.9"
	transform="rotate(-20)" fill="currentColor"/>
</defs>
<use x="89.19" y="94.16" xlink:href="#hd"/>
<path d="M92.69 94.16v-20.00" stroke="currentColor" fill="none"/>
</g>
<g transform="scale(0.750)" stroke-width="0.70" font-family="Times" font-size="15.00" font-weight="bold">
<text x="70.13" y="68.01">= 120</text>
<path stroke="currentColor" fill="none"
	d="M155.63 144.01v-24.00"/>
<path stroke="currentColor" fill="none"
	d="M247.73 144.01v-24.00"/>
<path stroke="currentColor" fill="none"
	d="M313.73 144.01v-24.00"/>
<path stroke="currentColor" fill="none"
	d="M413.93 144.01v-24.00"/>
<path stroke="currentColor" fill="none"
	d="M530.03 144.01v-24.00"/>
<path stroke="currentColor" fill="none"
	d="M629.93 144.01v-24.00"/>
<path stroke="currentColor" fill="none"
	d="M13.33 144.01h681.60m-681.60 -6h681.60m-681.60 -6h681.60m-681.60 -6h681.60m-681.60 -6h681.60"/>
<path stroke="currentColor" fill="none"
	d="M57.83 89.21v-3l34.20 -15.00v3"/>
<rect x="67.93" y="72.71" width="14.00" height="12" fill="white"/>
<text font-family="serif" font-size="12" font-style="italic" font-weight="normal"
	x="74.93" y="82.71" text-anchor="middle">3</text>
<defs>
<path id="utclef" fill="currentColor" d="m-50 -90
	c-72 -41 -72 -158 52 -188
	c150 -10 220 188 90 256
	c-114 52 -275 0 -293 -136
	c-15 -181 93 -229 220 -334
	c88 -87 79 -133 62 -210
	c-51 33 -94 105 -89 186
	c17 267 36 374 49 574
	c6 96 -19 134 -77 135
	c-80 1 -126 -93 -61 -133
	c85 -41 133 101 31 105
	c23 17 92 37 90 -92
	c-10 -223 -39 -342 -50 -617
	c0 -90 0 -162 96 -232
	c56 72 63 230 22 289
	c-74 106 -257 168 -255 316
	c9 153 148 185 252 133
	c86 -65 29 -192 -80 -176
	c-71 12 -105 67 -59 124"/>
<use id="tclef" transform="scale(0.045)"
	xlink:href="#utclef"/>
</defs>
<use x="25.33" y="144.01" xlink:href="#tclef"/>
<g font-family="serif" font-size="16" font-weight="bold" font-style="normal"
	transform="translate(43.83,144.01) scale(1.2,1)">
	<text y="-1" text-anchor="middle">4</text>
	<text y="-13" text-anchor="middle">3</text>
</g>
<path fill="currentColor"
	d="M58.03 132.21l39.90 0.00v-3.20l-39.90 -0.00"/>
<defs>
<path id="hl" stroke="currentColor" d="m-6 0h12"/>
</defs>
<use x="61.83" y="114.01" xlink:href="#hl"/>
<use x="61.83" y="108.01" xlink:href="#hl"/>
<use x="61.83" y="102.01" xlink:href="#hl"/>
<use x="61.83" y="102.01" xlink:href="#hd"/>
<path d="M58.33 102.01v29.20" stroke="currentColor" fill="none"/>
<use x="74.93" y="114.01" xlink:href="#hl"/>
<use x="74.93" y="108.01" xlink:href="#hl"/>
<use x="74.93" y="102.01" xlink:href="#hl"/>
<use x="74.93" y="96.01" xlink:href="#hl"/>
<use x="74.93" y="96.01" xlink:href="#hd"/>
<path d="M71.43 96.01v35.20" stroke="currentColor" fill="none"/>
<use x="88.03" y="114.01" xlink:href="#hl"/>
<use x="88.03" y="108.01" xlink:href="#hl"/>
<use x="88.03" y="102.01" xlink:href="#hl"/>
<use x="88.03" y="96.01" xlink:href="#hl"/>
<use x="88.03" y="90.01" xlink:href="#hl"/>
<use x="88.03" y="87.01" xlink:href="#hd"/>
<path d="M84.53 87.01v44.20" stroke="currentColor" fill="none"/>
<use x="101.13" y="114.01" xlink:href="#hl"/>
<use x="101.13" y="108.01" xlink:href="#hl"/>
<use x="101.13" y="102.01" xlink:href="#hl"/>
<use x="101.13" y="96.01" xlink:href="#hl"/>
<use x="101.13" y="90.01" xlink:href="#hl"/>
<use x="101.13" y="84.01" xlink:href="#hl"/>
<use x="101.13" y="78.01" xlink:href="#hl"/>
<use x="101.13" y="78.01" xlink:href="#hd"/>
<path d="M97.63 78.01v53.20" stroke="currentColor" fill="none"/>
<defs>
<path id="r8e" fill="currentColor" d="m 0 0
	c-1.5 1.5 -2.4 2 -3.6 2
	c2.4 -2.8 -2.8 -4 -2.8 -1.2
	c0 2.7 4.3 2.4 5.9 0.6"/>
<g id="r8">
	<path d="m3.3 -4l-3.4 9.6" stroke="currentColor" fill="none"/>
	<use x="3.4" y="-4" xlink:href="#r8e"/>
</g>
</defs>
<use x="117.33" y="132.01" xlink:href="#r8"/>
<use x="135.33" y="114.01" xlink:href="#hl"/>
<use x="135.33" y="108.01" xlink:href="#hl"/>
<use x="135.33" y="102.01" xlink:href="#hl"/>
<use x="135.33" y="96.01" xlink:href="#hl"/>
<use x="135.33" y="90.01" xlink:href="#hl"/>
<use x="135.33" y="84.01" xlink:href="#hl"/>
<use x="135.33" y="81.01" xlink:href="#hd"/>
<path d="M131.83 81.01v51.00" stroke="currentColor" fill="none"/>
<use x="168.13" y="114.01" xlink:href="#hl"/>
<use x="168.13" y="108.01" xlink:href="#hl"/>
<use x="168.13" y="102.01" xlink:href="#hl"/>
<use x="168.13" y="96.01" xlink:href="#hl"/>
<use x="168.13" y="90.01" xlink:href="#hl"/>
<use x="168.13" y="84.01" xlink:href="#hl"/>
<use x="168.13" y="81.01" xlink:href="#hd"/>
<path d="M164.63 81.01v51.00" stroke="currentColor" fill="none"/>
<use x="193.23" y="114.01" xlink:href="#hl"/>
<use x="193.23" y="108.01" xlink:href="#hl"/>
<use x="193.23" y="102.01" xlink:href="#hl"/>
<use x="193.23" y="96.01" xlink:href="#hl"/>
<use x="193.23" y="90.01" xlink:href="#hl"/>
<use x="193.23" y="84.01" xlink:href="#hl"/>
<use x="193.23" y="84.01" xlink:href="#hd"/>
<path d="M189.73 84.01v48.00" stroke="currentColor" fill="none"/>
<path fill="currentColor"
	d="M189.73 132.01c0.6 -5.6 9.6 -9 5.6 -18.4
	c1.6 6 -1.3 11.6 -5.6 12.8
"/>
<use x="209.53" y="132.01" xlink:href="#r8"/>
<use x="227.53" y="114.01" xlink:href="#hl"/>
<use x="227.53" y="108.01" xlink:href="#hl"/>
<use x="227.53" y="102.01" xlink:href="#hl"/>
<use x="227.53" y="96.01" xlink:href="#hl"/>
<use x="227.53" y="90.01" xlink:href="#hl"/>
<use x="227.53" y="87.01" xlink:href="#hd"/>
<path d="M224.03 87.01v45.00" stroke="currentColor" fill="none"/>
<use x="260.23" y="114.01" xlink:href="#hl"/>
<use x="260.23" y="108.01" xlink:href="#hl"/>
<use x="260.23" y="102.01" xlink:href="#hl"/>
<use x="260.23" y="96.01" xlink:href="#hl"/>
<use x="260.23" y="90.01" xlink:href="#hl"/>
<use x="260.23" y="84.01" xlink:href="#hl"/>
<use x="260.23" y="84.01" xlink:href="#hd"/>
<path d="M256.73 84.01v48.00" stroke="currentColor" fill="none"/>
<use x="285.43" y="114.01" xlink:href="#hl"/>
<use x="285.43" y="108.01" xlink:href="#hl"/>
<use x="285.43" y="102.01" xlink:href="#hl"/>
<use x="285.43" y="96.01" xlink:href="#hl"/>
<use x="285.43" y="90.01" xlink:href="#hl"/>
<use x="285.43" y="84.01" xlink:href="#hl"/>
<defs>
<path id="Hd" fill="currentColor" d="m3 -1.6
	c-1 -1.8 -7 1.4 -6 3.2
	c1 1.8 7 -1.4 6 -3.2
	m0.5 -0.3
	c2 3.8 -5 7.6 -7 3.8
	c-2 -3.8 5 -7.6 7 -3.8"/>
</defs>
<use x="285.43" y="81.01" xlink:href="#Hd"/>
<path d="M281.93 81.01v51.00" stroke="currentColor" fill="none"/>
<use x="326.23" y="114.01" xlink:href="#hl"/>
<use x="326.23" y="108.01" xlink:href="#hl"/>
<use x="326.23" y="102.01" xlink:href="#hl"/>
<use x="326.23" y="96.01" xlink:href="#hl"/>
<use x="326.23" y="90.01" xlink:href="#hl"/>
<use x="326.23" y="84.01" xlink:href="#hl"/>
<use x="326.23" y="81.01" xlink:href="#hd"/>
<path d="M322.73 81.01v51.00" stroke="currentColor" fill="none"/>
<use x="348.83" y="132.01" xlink:href="#r8"/>
<path fill="currentColor"
	d="M362.93 148.31l33.20 -6.40v-3.20l-33.20 6.40"/>
<use x="366.73" y="129.01" xlink:href="#hd"/>
<path d="M363.23 129.01v18.20" stroke="currentColor" fill="none"/>
<use x="383.03" y="117.01" xlink:href="#hd"/>
<path d="M379.53 117.01v27.10" stroke="currentColor" fill="none"/>
<use x="399.33" y="114.01" xlink:href="#hl"/>
<use x="399.33" y="108.01" xlink:href="#hl"/>
<use x="399.33" y="108.01" xlink:href="#hd"/>
<path d="M395.83 108.01v32.90" stroke="currentColor" fill="none"/>
<path fill="currentColor"
	d="M422.63 132.21l24.60 0.00v-3.20l-24.60 -0.00"/>
<path fill="currentColor"
	d="M422.93 127.21l23.90 0.00v-3.20l-23.90 -0.00"/>
<use x="426.43" y="114.01" xlink:href="#hl"/>
<use x="426.43" y="108.01" xlink:href="#hl"/>
<use x="426.43" y="102.01" xlink:href="#hl"/>
<use x="426.43" y="102.01" xlink:href="#hd"/>
<path d="M422.93 102.01v29.20" stroke="currentColor" fill="none"/>
<use x="438.43" y="114.01" xlink:href="#hl"/>
<use x="438.43" y="108.01" xlink:href="#hl"/>
<use x="438.43" y="102.01" xlink:href="#hl"/>
<use x="438.43" y="96.01" xlink:href="#hl"/>
<use x="438.43" y="96.01" xlink:href="#hd"/>
<path d="M434.93 96.01v35.20" stroke="currentColor" fill="none"/>
<use x="450.43" y="114.01" xlink:href="#hl"/>
<use x="450.43" y="108.01" xlink:href="#hl"/>
<use x="450.43" y="102.01" xlink:href="#hl"/>
<use x="450.43" y="96.01" xlink:href="#hl"/>
<use x="450.43" y="90.01" xlink:href="#hl"/>
<use x="450.43" y="87.01" xlink:href="#hd"/>
<path d="M446.93 87.01v44.20" stroke="currentColor" fill="none"/>
<path fill="currentColor"
	d="M459.73 132.21l12.60 0.00v-3.20l-12.60 -0.00"/>
<path fill="currentColor"
	d="M466.03 127.21l-6.00 -0.00v-3.20l6.00 0.00"/>
<use x="463.53" y="114.01" xlink:href="#hl"/>
<use x="463.53" y="108.01" xlink:href="#hl"/>
<use x="463.53" y="102.01" xlink:href="#hl"/>
<use x="463.53" y="96.01" xlink:href="#hl"/>
<use x="463.53" y="90.01" xlink:href="#hl"/>
<use x="463.53" y="84.01" xlink:href="#hl"/>
<use x="463.53" y="81.01" xlink:href="#hd"/>
<path d="M460.03 81.01v50.20" stroke="currentColor" fill="none"/>
<use x="475.53" y="114.01" xlink:href="#hl"/>
<use x="475.53" y="108.01" xlink:href="#hl"/>
<use x="475.53" y="102.01" xlink:href="#hl"/>
<use x="475.53" y="96.01" xlink:href="#hl"/>
<use x="475.53" y="90.01" xlink:href="#hl"/>
<use x="475.53" y="84.01" xlink:href="#hl"/>
<use x="475.53" y="78.01" xlink:href="#hl"/>
<use x="475.53" y="72.01" xlink:href="#hl"/>
<use x="475.53" y="72.01" xlink:href="#hd"/>
<path d="M472.03 72.01v59.20" stroke="currentColor" fill="none"/>
<use x="491.83" y="132.01" xlink:href="#r8"/>
<use x="509.83" y="114.01" xlink:href="#hl"/>
<use x="509.83" y="108.01" xlink:href="#hl"/>
<use x="509.83" y="102.01" xlink:href="#hl"/>
<use x="509.83" y="96.01" xlink:href="#hl"/>
<use x="509.83" y="90.01" xlink:href="#hl"/>
<use x="509.83" y="84.01" xlink:href="#hl"/>
<use x="509.83" y="78.01" xlink:href="#hl"/>
<use x="509.83" y="75.01" xlink:href="#hd"/>
<path d="M506.33 75.01v57.00" stroke="currentColor" fill="none"/>
<path fill="currentColor"
	d="M538.73 132.21l33.60 0.00v-3.20l-33.60 -0.00"/>
<use x="542.53" y="114.01" xlink:href="#hl"/>
<use x="542.53" y="108.01" xlink:href="#hl"/>
<use x="542.53" y="102.01" xlink:href="#hl"/>
<use x="542.53" y="96.01" xlink:href="#hl"/>
<use x="542.53" y="90.01" xlink:href="#hl"/>
<use x="542.53" y="84.01" xlink:href="#hl"/>
<use x="542.53" y="78.01" xlink:href="#hl"/>
<use x="542.53" y="75.01" xlink:href="#hd"/>
<path d="M539.03 75.01v56.20" stroke="currentColor" fill="none"/>
<use x="559.03" y="114.01" xlink:href="#hl"/>
<use x="559.03" y="108.01" xlink:href="#hl"/>
<use x="559.03" y="102.01" xlink:href="#hl"/>
<use x="559.03" y="96.01" xlink:href="#hl"/>
<use x="559.03" y="90.01" xlink:href="#hl"/>
<use x="559.03" y="84.01" xlink:href="#hl"/>
<use x="559.03" y="81.01" xlink:href="#hd"/>
<path d="M555.53 81.01v50.20" stroke="currentColor" fill="none"/>
<use x="575.43" y="114.01" xlink:href="#hl"/>
<use x="575.43" y="108.01" xlink:href="#hl"/>
<use x="575.43" y="102.01" xlink:href="#hl"/>
<use x="575.43" y="96.01" xlink:href="#hl"/>
<use x="575.43" y="90.01" xlink:href="#hl"/>
<use x="575.43" y="84.01" xlink:href="#hl"/>
<use x="575.43" y="78.01" xlink:href="#hl"/>
<use x="575.43" y="75.01" xlink:href="#hd"/>
<path d="M571.93 75.01v56.20" stroke="currentColor" fill="none"/>
<use x="591.73" y="132.01" xlink:href="#r8"/>
<use x="609.73" y="114.01" xlink:href="#hl"/>
<use x="609.73" y="108.01" xlink:href="#hl"/>
<use x="609.73" y="102.01" xlink:href="#hl"/>
<use x="609.73" y="96.01" xlink:href="#hl"/>
<use x="609.73" y="90.01" xlink:href="#hl"/>
<use x="609.73" y="84.01" xlink:href="#hl"/>
<use x="609.73" y="78.01" xlink:href="#hl"/>
<use x="609.73" y="78.01" xlink:href="#hd"/>
<path d="M606.23 78.01v54.00" stroke="currentColor" fill="none"/>
<use x="642.43" y="114.01" xlink:href="#hl"/>
<use x="642.43" y="108.01" xlink:href="#hl"/>
<use x="642.43" y="102.01" xlink:href="#hl"/>
<use x="642.43" y="96.01" xlink:href="#hl"/>
<use x="642.43" y="90.01" xlink:href="#hl"/>
<use x="642.43" y="84.01" xlink:href="#hl"/>
<use x="642.43" y="84.01" xlink:href="#hd"/>
<path d="M638.93 84.01v48.00" stroke="currentColor" fill="none"/>
<use x="667.63" y="114.01" xlink:href="#hl"/>
<use x="667.63" y="108.01" xlink:href="#hl"/>
<use x="667.63" y="102.01" xlink:href="#hl"/>
<use x="667.63" y="96.01" xlink:href="#hl"/>
<use x="667.63" y="90.01" xlink:href="#hl"/>
<use x="667.63" y="87.01" xlink:href="#hd"/>
<circle fill="currentColor" cx="675.63" cy="87.01" r="1.2"/>
<path d="M664.13 87.01v45.00" stroke="currentColor" fill="none"/>
<path fill="currentColor"
	d="M138.83 79.01c4.06 -4.96 21.70 -4.96 25.75 -0.00
	l0.00 -0.23c-4.83 -6.74 -20.92 -6.74 -25.75 0.23"/>
<path fill="currentColor"
	d="M288.93 79.01c5.32 -5.11 28.45 -5.11 33.77 -0.00
	l0.00 -0.23c-6.33 -6.87 -27.44 -6.87 -33.77 0.23"/>
<path fill="currentColor"
	d="M513.33 73.01c4.06 -4.96 21.70 -4.96 25.75 -0.00
	l0.00 -0.23c-4.83 -6.74 -20.92 -6.74 -25.75 0.23"/>
</g>
</svg>
