<?xml version="1.0" standalone="no"?>
<!DOCTYPE svg PUBLIC "-//W3C//DTD SVG 1.1//EN"
	"http://www.w3.org/Graphics/SVG/1.1/DTD/svg11.dtd">
<svg xmlns="http://www.w3.org/2000/svg" version="1.1"
	xmlns:xlink="http://www.w3.org/1999/xlink"
	xml:space='preserve' color="black"
	width="7.38in" height="1.40in" viewBox="0 0 531 101">
<title>7007.abc (7007) tune 1</title>
<!-- Creator: abcm2ps-7.8.14 -->
<!-- CreationDate: Mar 13, 2016 18:54 -->
<!-- CommandLine: -qxg 7007.abc -O ../svgs/7007.svg -->
<g transform="scale(0.750)" stroke-width="0.70" font-family="Times" font-size="20.00">
<text x="354.13" y="21.67" text-anchor="middle">7007.  Der Burger Als Edelmann, Op. 60, The Fencing Master, 2nd. Theme</text>
</g>
<g transform="scale(0.750)" stroke-width="0.70" font-family="Times" font-size="14.00" font-style="italic">
<text x="694.93" y="45.34" text-anchor="end">Richard Strauss</text>
</g>
<g transform="scale(0.525)" stroke-width="0.70" font-family="Times" font-size="14.00" font-style="italic">
<defs>
<ellipse id="hd" rx="4.1" ry="2.9"
	transform="rotate(-20)" fill="currentColor"/>
</defs>
<use x="114.90" y="94.16" xlink:href="#hd"/>
<path d="M118.40 94.16v-20.00" stroke="currentColor" fill="none"/>
</g>
<g transform="scale(0.750)" stroke-width="0.70" font-family="Times" font-size="15.00" font-weight="bold">
<text x="88.13" y="68.01">= 120</text>
<path stroke="currentColor" fill="none"
	d="M174.43 111.01v-24.00"/>
<path stroke="currentColor" fill="none"
	d="M281.63 111.01v-24.00"/>
<path stroke="currentColor" fill="none"
	d="M388.73 111.01v-24.00"/>
<path stroke="currentColor" fill="none"
	d="M504.13 111.01v-24.00"/>
<path stroke="currentColor" fill="none"
	d="M611.33 111.01v-24.00"/>
<path stroke="currentColor" fill="none"
	d="M694.93 111.01v-24.00"/>
<path stroke="currentColor" fill="none"
	d="M13.33 111.01h681.60m-681.60 -6h681.60m-681.60 -6h681.60m-681.60 -6h681.60m-681.60 -6h681.60"/>
<defs>
<path id="utclef" fill="currentColor" d="m-50 -90
	c-72 -41 -72 -158 52 -188
	c150 -10 220 188 90 256
	c-114 52 -275 0 -293 -136
	c-15 -181 93 -229 220 -334
	c88 -87 79 -133 62 -210
	c-51 33 -94 105 -89 186
	c17 267 36 374 49 574
	c6 96 -19 134 -77 135
	c-80 1 -126 -93 -61 -133
	c85 -41 133 101 31 105
	c23 17 92 37 90 -92
	c-10 -223 -39 -342 -50 -617
	c0 -90 0 -162 96 -232
	c56 72 63 230 22 289
	c-74 106 -257 168 -255 316
	c9 153 148 185 252 133
	c86 -65 29 -192 -80 -176
	c-71 12 -105 67 -59 124"/>
<use id="tclef" transform="scale(0.045)"
	xlink:href="#utclef"/>
</defs>
<use x="25.33" y="111.01" xlink:href="#tclef"/>
<defs>
<path id="uflat" fill="currentColor" d="
	m100 -746
	h32
	v734
	l-32 4
	m32 -332
	c46 -72 152 -90 208 -20
	c100 110 -120 326 -208 348
	m0 -28
	c54 0 200 -206 130 -290
	c-50 -60 -130 -4 -130 34"/>
<use id="ft0" transform="translate(-3.5,3.5) scale(0.018)"
	xlink:href="#uflat"/>
</defs>
<use x="40.33" y="99.01" xlink:href="#ft0"/>
<use x="45.83" y="90.01" xlink:href="#ft0"/>
<g font-family="serif" font-size="16" font-weight="bold" font-style="normal"
	transform="translate(61.83,111.01) scale(1.2,1)">
	<text y="-1" text-anchor="middle">4</text>
	<text y="-13" text-anchor="middle">2</text>
</g>
<use x="79.83" y="87.01" xlink:href="#hd"/>
<path d="M76.33 87.01v20.00" stroke="currentColor" fill="none"/>
<path fill="currentColor"
	d="M76.33 107.01c0.6 -5.6 9.6 -9 5.6 -18.4
	c1.6 6 -1.3 11.6 -5.6 12.8
"/>
<defs>
<path id="hl" stroke="currentColor" d="m-6 0h12"/>
</defs>
<use x="102.53" y="81.01" xlink:href="#hl"/>
<use x="102.53" y="78.01" xlink:href="#hd"/>
<path d="M99.03 78.01v21.00" stroke="currentColor" fill="none"/>
<path fill="currentColor"
	d="M99.03 99.01c0.6 -5.6 9.6 -9 5.6 -18.4
	c1.6 6 -1.3 11.6 -5.6 12.8
"/>
<path fill="currentColor"
	d="M121.43 101.01l15.40 0.00v-3.20l-15.40 -0.00"/>
<path fill="currentColor"
	d="M121.73 96.01l14.70 0.00v-3.20l-14.70 -0.00"/>
<use x="125.23" y="81.01" xlink:href="#hl"/>
<use x="125.23" y="78.01" xlink:href="#hd"/>
<path d="M121.73 78.01v22.00" stroke="currentColor" fill="none"/>
<use x="139.93" y="81.01" xlink:href="#hl"/>
<use x="139.93" y="75.01" xlink:href="#hl"/>
<use x="139.93" y="75.01" xlink:href="#hd"/>
<path d="M136.43 75.01v25.00" stroke="currentColor" fill="none"/>
<use x="156.23" y="81.01" xlink:href="#hl"/>
<use x="156.23" y="75.01" xlink:href="#hl"/>
<use x="156.23" y="72.01" xlink:href="#hd"/>
<path d="M152.73 72.01v27.00" stroke="currentColor" fill="none"/>
<path fill="currentColor"
	d="M152.73 99.01c0.6 -5.6 9.6 -9 5.6 -18.4
	c1.6 6 -1.3 11.6 -5.6 12.8
"/>
<use x="186.93" y="87.01" xlink:href="#hd"/>
<path d="M183.43 87.01v20.00" stroke="currentColor" fill="none"/>
<path fill="currentColor"
	d="M183.43 107.01c0.6 -5.6 9.6 -9 5.6 -18.4
	c1.6 6 -1.3 11.6 -5.6 12.8
"/>
<use x="209.63" y="81.01" xlink:href="#hl"/>
<use x="209.63" y="78.01" xlink:href="#hd"/>
<path d="M206.13 78.01v21.00" stroke="currentColor" fill="none"/>
<path fill="currentColor"
	d="M206.13 99.01c0.6 -5.6 9.6 -9 5.6 -18.4
	c1.6 6 -1.3 11.6 -5.6 12.8
"/>
<path fill="currentColor"
	d="M228.53 101.01l15.40 0.00v-3.20l-15.40 -0.00"/>
<path fill="currentColor"
	d="M228.93 96.01l14.70 0.00v-3.20l-14.70 -0.00"/>
<use x="232.43" y="81.01" xlink:href="#hl"/>
<use x="232.43" y="78.01" xlink:href="#hd"/>
<path d="M228.93 78.01v22.00" stroke="currentColor" fill="none"/>
<use x="247.13" y="81.01" xlink:href="#hl"/>
<use x="247.13" y="75.01" xlink:href="#hl"/>
<use x="247.13" y="75.01" xlink:href="#hd"/>
<path d="M243.63 75.01v25.00" stroke="currentColor" fill="none"/>
<use x="263.33" y="81.01" xlink:href="#hl"/>
<use x="263.33" y="75.01" xlink:href="#hl"/>
<use x="263.33" y="72.01" xlink:href="#hd"/>
<path d="M259.83 72.01v27.00" stroke="currentColor" fill="none"/>
<path fill="currentColor"
	d="M259.83 99.01c0.6 -5.6 9.6 -9 5.6 -18.4
	c1.6 6 -1.3 11.6 -5.6 12.8
"/>
<use x="294.13" y="87.01" xlink:href="#hd"/>
<path d="M290.63 87.01v20.00" stroke="currentColor" fill="none"/>
<path fill="currentColor"
	d="M290.63 107.01c0.6 -5.6 9.6 -9 5.6 -18.4
	c1.6 6 -1.3 11.6 -5.6 12.8
"/>
<use x="316.83" y="81.01" xlink:href="#hl"/>
<use x="316.83" y="78.01" xlink:href="#hd"/>
<path d="M313.33 78.01v21.00" stroke="currentColor" fill="none"/>
<path fill="currentColor"
	d="M313.33 99.01c0.6 -5.6 9.6 -9 5.6 -18.4
	c1.6 6 -1.3 11.6 -5.6 12.8
"/>
<path fill="currentColor"
	d="M335.73 101.01l15.40 0.00v-3.20l-15.40 -0.00"/>
<path fill="currentColor"
	d="M336.03 96.01l14.70 0.00v-3.20l-14.70 -0.00"/>
<use x="339.53" y="81.01" xlink:href="#hl"/>
<use x="339.53" y="78.01" xlink:href="#hd"/>
<path d="M336.03 78.01v22.00" stroke="currentColor" fill="none"/>
<use x="354.23" y="81.01" xlink:href="#hl"/>
<use x="354.23" y="75.01" xlink:href="#hl"/>
<use x="354.23" y="75.01" xlink:href="#hd"/>
<path d="M350.73 75.01v25.00" stroke="currentColor" fill="none"/>
<use x="370.53" y="81.01" xlink:href="#hl"/>
<use x="370.53" y="75.01" xlink:href="#hl"/>
<use x="370.53" y="72.01" xlink:href="#hd"/>
<path d="M367.03 72.01v27.00" stroke="currentColor" fill="none"/>
<path fill="currentColor"
	d="M367.03 99.01c0.6 -5.6 9.6 -9 5.6 -18.4
	c1.6 6 -1.3 11.6 -5.6 12.8
"/>
<path fill="currentColor"
	d="M397.43 99.21l15.40 0.00v-3.20l-15.40 -0.00"/>
<path fill="currentColor"
	d="M397.73 94.21l14.70 0.00v-3.20l-14.70 -0.00"/>
<use x="401.23" y="81.01" xlink:href="#hl"/>
<use x="401.23" y="75.01" xlink:href="#hl"/>
<use x="401.23" y="72.01" xlink:href="#hd"/>
<path d="M397.73 72.01v26.20" stroke="currentColor" fill="none"/>
<use x="415.93" y="81.01" xlink:href="#hl"/>
<use x="415.93" y="75.01" xlink:href="#hl"/>
<use x="415.93" y="69.01" xlink:href="#hl"/>
<use x="415.93" y="69.01" xlink:href="#hd"/>
<path d="M412.43 69.01v29.20" stroke="currentColor" fill="none"/>
<use x="432.23" y="81.01" xlink:href="#hl"/>
<use x="432.23" y="75.01" xlink:href="#hl"/>
<use x="432.23" y="69.01" xlink:href="#hl"/>
<use x="432.23" y="66.01" xlink:href="#hd"/>
<path d="M428.73 66.01v33.00" stroke="currentColor" fill="none"/>
<path fill="currentColor"
	d="M428.73 99.01c0.6 -5.6 9.6 -9 5.6 -18.4
	c1.6 6 -1.3 11.6 -5.6 12.8
"/>
<path fill="currentColor"
	d="M451.13 99.21l15.40 0.00v-3.20l-15.40 -0.00"/>
<path fill="currentColor"
	d="M451.43 94.21l14.70 0.00v-3.20l-14.70 -0.00"/>
<use x="454.93" y="81.01" xlink:href="#hl"/>
<use x="454.93" y="75.01" xlink:href="#hl"/>
<use x="454.93" y="69.01" xlink:href="#hl"/>
<use x="454.93" y="63.01" xlink:href="#hl"/>
<use x="454.93" y="63.01" xlink:href="#hd"/>
<path d="M451.43 63.01v35.20" stroke="currentColor" fill="none"/>
<use x="469.63" y="81.01" xlink:href="#hl"/>
<use x="469.63" y="75.01" xlink:href="#hl"/>
<use x="469.63" y="69.01" xlink:href="#hl"/>
<use x="469.63" y="63.01" xlink:href="#hl"/>
<use x="469.63" y="60.01" xlink:href="#hd"/>
<path d="M466.13 60.01v38.20" stroke="currentColor" fill="none"/>
<use x="485.93" y="81.01" xlink:href="#hl"/>
<use x="485.93" y="75.01" xlink:href="#hl"/>
<use x="485.93" y="69.01" xlink:href="#hl"/>
<use x="485.93" y="63.01" xlink:href="#hl"/>
<use x="485.93" y="57.01" xlink:href="#hl"/>
<use x="485.93" y="57.01" xlink:href="#hd"/>
<path d="M482.43 57.01v42.00" stroke="currentColor" fill="none"/>
<path fill="currentColor"
	d="M482.43 99.01c0.6 -5.6 9.6 -9 5.6 -18.4
	c1.6 6 -1.3 11.6 -5.6 12.8
"/>
<defs>
<path id="r8e" fill="currentColor" d="m 0 0
	c-1.5 1.5 -2.4 2 -3.6 2
	c2.4 -2.8 -2.8 -4 -2.8 -1.2
	c0 2.7 4.3 2.4 5.9 0.6"/>
<g id="r8">
	<path d="m3.3 -4l-3.4 9.6" stroke="currentColor" fill="none"/>
	<use x="3.4" y="-4" xlink:href="#r8e"/>
</g>
</defs>
<use x="516.63" y="99.01" xlink:href="#r8"/>
<path fill="currentColor"
	d="M535.53 99.21l15.40 0.00v-3.20l-15.40 -0.00"/>
<path fill="currentColor"
	d="M535.83 94.21l14.70 0.00v-3.20l-14.70 -0.00"/>
<use x="539.33" y="81.01" xlink:href="#hl"/>
<use x="539.33" y="75.01" xlink:href="#hl"/>
<use x="539.33" y="69.01" xlink:href="#hl"/>
<use x="539.33" y="69.01" xlink:href="#hd"/>
<path d="M535.83 69.01v29.20" stroke="currentColor" fill="none"/>
<use x="554.03" y="81.01" xlink:href="#hl"/>
<use x="554.03" y="75.01" xlink:href="#hl"/>
<use x="554.03" y="72.01" xlink:href="#hd"/>
<path d="M550.53 72.01v26.20" stroke="currentColor" fill="none"/>
<use x="570.33" y="81.01" xlink:href="#hl"/>
<use x="570.33" y="75.01" xlink:href="#hl"/>
<use x="570.33" y="75.01" xlink:href="#hd"/>
<path d="M566.83 75.01v24.00" stroke="currentColor" fill="none"/>
<path fill="currentColor"
	d="M566.83 99.01c0.6 -5.6 9.6 -9 5.6 -18.4
	c1.6 6 -1.3 11.6 -5.6 12.8
"/>
<use x="593.03" y="81.01" xlink:href="#hl"/>
<use x="593.03" y="75.01" xlink:href="#hl"/>
<use x="593.03" y="69.01" xlink:href="#hl"/>
<use x="593.03" y="66.01" xlink:href="#hd"/>
<path d="M589.53 66.01v33.00" stroke="currentColor" fill="none"/>
<path fill="currentColor"
	d="M589.53 99.01c0.6 -5.6 9.6 -9 5.6 -18.4
	c1.6 6 -1.3 11.6 -5.6 12.8
"/>
<use x="623.83" y="81.01" xlink:href="#hl"/>
<use x="623.83" y="75.01" xlink:href="#hl"/>
<use x="623.83" y="72.01" xlink:href="#hd"/>
<path d="M620.33 72.01v27.00" stroke="currentColor" fill="none"/>
<path fill="currentColor"
	d="M620.33 99.01c0.6 -5.6 9.6 -9 5.6 -18.4
	c1.6 6 -1.3 11.6 -5.6 12.8
"/>
<use x="646.53" y="81.01" xlink:href="#hl"/>
<use x="646.53" y="78.01" xlink:href="#hd"/>
<path d="M643.03 78.01v21.00" stroke="currentColor" fill="none"/>
<path fill="currentColor"
	d="M643.03 99.01c0.6 -5.6 9.6 -9 5.6 -18.4
	c1.6 6 -1.3 11.6 -5.6 12.8
"/>
<use x="669.33" y="81.01" xlink:href="#hl"/>
<use x="669.33" y="75.01" xlink:href="#hl"/>
<use x="669.33" y="75.01" xlink:href="#hd"/>
<path d="M665.83 75.01v24.00" stroke="currentColor" fill="none"/>
</g>
</svg>
