<?xml version="1.0" standalone="no"?>
<!DOCTYPE svg PUBLIC "-//W3C//DTD SVG 1.1//EN"
	"http://www.w3.org/Graphics/SVG/1.1/DTD/svg11.dtd">
<svg xmlns="http://www.w3.org/2000/svg" version="1.1"
	xmlns:xlink="http://www.w3.org/1999/xlink"
	xml:space='preserve' color="black"
	width="7.38in" height="1.53in" viewBox="0 0 531 110">
<title>7019.abc (7019) tune 1</title>
<!-- Creator: abcm2ps-7.8.14 -->
<!-- CreationDate: Mar 13, 2016 18:54 -->
<!-- CommandLine: -qxg 7019.abc -O ../svgs/7019.svg -->
<g transform="scale(0.750)" stroke-width="0.70" font-family="Times" font-size="20.00">
<text x="354.13" y="21.67" text-anchor="middle">7019.  Der Burger Als Edelmann, Op. 60, The Dinner, 2nd. Theme</text>
</g>
<g transform="scale(0.750)" stroke-width="0.70" font-family="Times" font-size="14.00" font-style="italic">
<text x="694.93" y="45.34" text-anchor="end">Richard Strauss</text>
</g>
<g transform="scale(0.525)" stroke-width="0.70" font-family="Times" font-size="14.00" font-style="italic">
<defs>
<ellipse id="hd" rx="4.1" ry="2.9"
	transform="rotate(-20)" fill="currentColor"/>
</defs>
<use x="89.19" y="94.16" xlink:href="#hd"/>
<path d="M92.69 94.16v-20.00" stroke="currentColor" fill="none"/>
</g>
<g transform="scale(0.750)" stroke-width="0.70" font-family="Times" font-size="15.00" font-weight="bold">
<text x="70.13" y="68.01">= 120</text>
<path stroke="currentColor" fill="none"
	d="M199.93 124.01v-24.00"/>
<path stroke="currentColor" fill="none"
	d="M377.83 124.01v-24.00"/>
<path stroke="currentColor" fill="none"
	d="M592.13 124.01v-24.00"/>
<path stroke="currentColor" fill="none"
	d="M13.33 124.01h681.60m-681.60 -6h681.60m-681.60 -6h681.60m-681.60 -6h681.60m-681.60 -6h681.60"/>
<text font-family="serif" font-size="12" font-style="italic" font-weight="normal"
	x="254.33" y="141.91" text-anchor="middle">3</text>
<text font-family="serif" font-size="12" font-style="italic" font-weight="normal"
	x="492.43" y="137.01" text-anchor="middle">3</text>
<path stroke="currentColor" fill="none"
	d="M526.13 80.31v-3l40.60 -7.00v3"/>
<rect x="539.43" y="67.81" width="14.00" height="12" fill="white"/>
<text font-family="serif" font-size="12" font-style="italic" font-weight="normal"
	x="546.43" y="77.81" text-anchor="middle">3</text>
<path stroke="currentColor" fill="none"
	d="M621.03 60.01v-3l45.20 -0.00v3"/>
<rect x="636.63" y="51.01" width="14.00" height="12" fill="white"/>
<text font-family="serif" font-size="12" font-style="italic" font-weight="normal"
	x="643.63" y="61.01" text-anchor="middle">3</text>
<defs>
<path id="utclef" fill="currentColor" d="m-50 -90
	c-72 -41 -72 -158 52 -188
	c150 -10 220 188 90 256
	c-114 52 -275 0 -293 -136
	c-15 -181 93 -229 220 -334
	c88 -87 79 -133 62 -210
	c-51 33 -94 105 -89 186
	c17 267 36 374 49 574
	c6 96 -19 134 -77 135
	c-80 1 -126 -93 -61 -133
	c85 -41 133 101 31 105
	c23 17 92 37 90 -92
	c-10 -223 -39 -342 -50 -617
	c0 -90 0 -162 96 -232
	c56 72 63 230 22 289
	c-74 106 -257 168 -255 316
	c9 153 148 185 252 133
	c86 -65 29 -192 -80 -176
	c-71 12 -105 67 -59 124"/>
<use id="tclef" transform="scale(0.045)"
	xlink:href="#utclef"/>
</defs>
<use x="25.33" y="124.01" xlink:href="#tclef"/>
<g font-family="serif" font-size="16" font-weight="bold" font-style="normal"
	transform="translate(43.83,124.01) scale(1.2,1)">
	<text y="-1" text-anchor="middle">4</text>
	<text y="-13" text-anchor="middle">2</text>
</g>
<path fill="currentColor"
	d="M65.03 84.61l76.10 -14.90v3.20l-76.10 14.90"/>
<path fill="currentColor"
	d="M65.33 89.51l20.90 -4.10v3.20l-20.90 4.10"/>
<path fill="currentColor"
	d="M134.73 76.01l6.00 -1.20v3.20l-6.00 1.20"/>
<defs>
<path id="hl" stroke="currentColor" d="m-6 0h12"/>
</defs>
<use x="61.83" y="130.01" xlink:href="#hl"/>
<use x="61.83" y="130.01" xlink:href="#hd"/>
<path d="M65.33 130.01v-44.50" stroke="currentColor" fill="none"/>
<use x="82.73" y="130.01" xlink:href="#hl"/>
<use x="82.73" y="130.01" xlink:href="#hd"/>
<path d="M86.23 130.01v-48.60" stroke="currentColor" fill="none"/>
<use x="103.63" y="115.01" xlink:href="#hd"/>
<circle fill="currentColor" cx="111.63" cy="115.01" r="1.2"/>
<path d="M107.13 115.01v-37.60" stroke="currentColor" fill="none"/>
<use x="137.23" y="94.01" xlink:href="#hl"/>
<use x="137.23" y="88.01" xlink:href="#hl"/>
<use x="137.23" y="88.01" xlink:href="#hd"/>
<path d="M140.73 88.01v-17.20" stroke="currentColor" fill="none"/>
<path fill="currentColor"
	d="M156.63 112.21l21.60 0.00v-3.20l-21.60 -0.00"/>
<path fill="currentColor"
	d="M157.03 107.21l20.90 0.00v-3.20l-20.90 -0.00"/>
<use x="160.53" y="94.01" xlink:href="#hl"/>
<use x="160.53" y="88.01" xlink:href="#hl"/>
<use x="160.53" y="88.01" xlink:href="#hd"/>
<path d="M157.03 88.01v23.20" stroke="currentColor" fill="none"/>
<use x="181.43" y="94.01" xlink:href="#hl"/>
<use x="181.43" y="88.01" xlink:href="#hl"/>
<use x="181.43" y="82.01" xlink:href="#hl"/>
<use x="181.43" y="76.01" xlink:href="#hl"/>
<use x="181.43" y="73.01" xlink:href="#hd"/>
<path d="M177.93 73.01v38.20" stroke="currentColor" fill="none"/>
<use x="216.43" y="94.01" xlink:href="#hl"/>
<use x="216.43" y="88.01" xlink:href="#hl"/>
<use x="216.43" y="82.01" xlink:href="#hl"/>
<use x="216.43" y="76.01" xlink:href="#hl"/>
<use x="216.43" y="73.01" xlink:href="#hd"/>
<path d="M212.93 73.01v39.00" stroke="currentColor" fill="none"/>
<path fill="currentColor"
	d="M212.93 112.01c0.9 -3.7 9.1 -6.4 6 -12.4
	c1 5.4 -4.2 8.4 -6 8.4
M212.93 106.61c0.9 -3.7 9.1 -6.4 6 -12.4
	c1 5.4 -4.2 8.4 -6 8.4
"/>
<path fill="currentColor"
	d="M235.73 125.01l120.30 7.60v-3.20l-120.30 -7.60"/>
<path fill="currentColor"
	d="M236.13 120.01l32.60 2.10v-3.20l-32.60 -2.10"/>
<path fill="currentColor"
	d="M329.43 125.91l26.30 1.70v-3.20l-26.30 -1.70"/>
<use x="239.63" y="94.01" xlink:href="#hl"/>
<use x="239.63" y="88.01" xlink:href="#hl"/>
<use x="239.63" y="82.01" xlink:href="#hl"/>
<use x="239.63" y="76.01" xlink:href="#hl"/>
<use x="239.63" y="70.01" xlink:href="#hl"/>
<use x="239.63" y="64.01" xlink:href="#hl"/>
<use x="239.63" y="64.01" xlink:href="#hd"/>
<path d="M236.13 64.01v60.00" stroke="currentColor" fill="none"/>
<use x="255.93" y="94.01" xlink:href="#hl"/>
<use x="255.93" y="88.01" xlink:href="#hl"/>
<use x="255.93" y="82.01" xlink:href="#hl"/>
<use x="255.93" y="76.01" xlink:href="#hl"/>
<use x="255.93" y="70.01" xlink:href="#hl"/>
<use x="255.93" y="67.01" xlink:href="#hd"/>
<path d="M252.43 67.01v58.00" stroke="currentColor" fill="none"/>
<use x="272.23" y="94.01" xlink:href="#hl"/>
<use x="272.23" y="88.01" xlink:href="#hl"/>
<use x="272.23" y="82.01" xlink:href="#hl"/>
<use x="272.23" y="76.01" xlink:href="#hl"/>
<use x="272.23" y="73.01" xlink:href="#hd"/>
<path d="M268.73 73.01v53.10" stroke="currentColor" fill="none"/>
<use x="288.53" y="94.01" xlink:href="#hl"/>
<use x="288.53" y="88.01" xlink:href="#hl"/>
<use x="288.53" y="88.01" xlink:href="#hd"/>
<path d="M285.03 88.01v39.10" stroke="currentColor" fill="none"/>
<defs>
<path id="r8e" fill="currentColor" d="m 0 0
	c-1.5 1.5 -2.4 2 -3.6 2
	c2.4 -2.8 -2.8 -4 -2.8 -1.2
	c0 2.7 4.3 2.4 5.9 0.6"/>
<g id="r32">
	<path d="m4.8 -10l-5.5 21.6" stroke="currentColor" fill="none"/>
	<use x="4.9" y="-10" xlink:href="#r8e"/>
	<use x="3.4" y="-4" xlink:href="#r8e"/>
	<use x="1.9" y="2" xlink:href="#r8e"/>
</g>
</defs>
<use x="318.13" y="112.01" xlink:href="#r32"/>
<use x="332.93" y="94.01" xlink:href="#hl"/>
<use x="332.93" y="88.01" xlink:href="#hl"/>
<use x="332.93" y="82.01" xlink:href="#hl"/>
<use x="332.93" y="76.01" xlink:href="#hl"/>
<use x="332.93" y="73.01" xlink:href="#hd"/>
<circle fill="currentColor" cx="340.93" cy="73.01" r="1.2"/>
<path d="M329.43 73.01v56.90" stroke="currentColor" fill="none"/>
<use x="359.23" y="109.01" xlink:href="#hd"/>
<defs>
<path id="usharp" fill="currentColor" d="
	m136 -702
	v890
	h32
	v-890
	m128 840
	h32
	v-888
	h-32
	m-232 286
	v116
	l338 -96
	v-116
	m-338 442
	v116
	l338 -98
	v-114"/>
<use id="sh0" transform="translate(-4,5) scale(0.018)"
	xlink:href="#usharp"/>
</defs>
<use x="350.23" y="109.01" xlink:href="#sh0"/>
<path d="M355.73 109.01v22.60" stroke="currentColor" fill="none"/>
<path fill="currentColor"
	d="M393.03 137.41l63.90 -5.80v-3.20l-63.90 5.80"/>
<path fill="currentColor"
	d="M393.43 132.41l63.20 -5.70v-3.20l-63.20 5.70"/>
<path fill="currentColor"
	d="M450.63 122.21l6.00 -0.50v-3.20l-6.00 0.50"/>
<use x="396.93" y="109.01" xlink:href="#hd"/>
<use x="387.93" y="109.01" xlink:href="#sh0"/>
<path d="M393.43 109.01v27.40" stroke="currentColor" fill="none"/>
<use x="417.83" y="112.01" xlink:href="#r32"/>
<use x="436.33" y="94.01" xlink:href="#hl"/>
<use x="436.33" y="88.01" xlink:href="#hl"/>
<use x="436.33" y="82.01" xlink:href="#hl"/>
<use x="436.33" y="76.01" xlink:href="#hl"/>
<use x="436.33" y="70.01" xlink:href="#hl"/>
<use x="436.33" y="67.01" xlink:href="#hd"/>
<circle fill="currentColor" cx="444.33" cy="67.01" r="1.2"/>
<defs>
<path id="unat" fill="currentColor" d="
	m96 -750
	h-32
	v716
	l32 -8
	l182 -54
	v282
	h32
	v-706
	l-34 10
	l-180 50
	v-290
	m0 592
	v-190
	l182 -52
	v188"/>
<use id="nt0" transform="translate(-3,5) scale(0.018)"
	xlink:href="#unat"/>
</defs>
<use x="427.33" y="67.01" xlink:href="#nt0"/>
<path d="M432.83 67.01v65.80" stroke="currentColor" fill="none"/>
<use x="460.13" y="100.01" xlink:href="#hd"/>
<path d="M456.63 100.01v30.70" stroke="currentColor" fill="none"/>
<path fill="currentColor"
	d="M472.73 119.91l35.60 0.00v-3.20l-35.60 -0.00"/>
<path fill="currentColor"
	d="M473.03 114.91l34.90 0.00v-3.20l-34.90 -0.00"/>
<use x="476.53" y="97.01" xlink:href="#hd"/>
<path d="M473.03 97.01v22.00" stroke="currentColor" fill="none"/>
<use x="495.13" y="97.01" xlink:href="#hd"/>
<use x="486.13" y="97.01" xlink:href="#sh0"/>
<path d="M491.63 97.01v22.00" stroke="currentColor" fill="none"/>
<use x="511.43" y="94.01" xlink:href="#hl"/>
<use x="511.43" y="94.01" xlink:href="#hd"/>
<path d="M507.93 94.01v25.00" stroke="currentColor" fill="none"/>
<path fill="currentColor"
	d="M526.23 118.21l49.60 0.00v-3.20l-49.60 -0.00"/>
<path fill="currentColor"
	d="M526.63 113.21l48.90 0.00v-3.20l-48.90 -0.00"/>
<path fill="currentColor"
	d="M569.53 108.21l6.00 0.00v-3.20l-6.00 -0.00"/>
<use x="530.13" y="94.01" xlink:href="#hl"/>
<use x="530.13" y="94.01" xlink:href="#hd"/>
<use x="521.13" y="94.01" xlink:href="#sh0"/>
<path d="M526.63 94.01v23.20" stroke="currentColor" fill="none"/>
<use x="546.43" y="94.01" xlink:href="#hl"/>
<use x="546.43" y="91.01" xlink:href="#hd"/>
<path d="M542.93 91.01v26.20" stroke="currentColor" fill="none"/>
<use x="562.73" y="94.01" xlink:href="#hl"/>
<use x="562.73" y="88.01" xlink:href="#hl"/>
<use x="562.73" y="85.01" xlink:href="#hd"/>
<path d="M559.23 85.01v32.20" stroke="currentColor" fill="none"/>
<use x="579.03" y="94.01" xlink:href="#hl"/>
<use x="579.03" y="88.01" xlink:href="#hl"/>
<use x="579.03" y="88.01" xlink:href="#hd"/>
<path d="M575.53 88.01v29.20" stroke="currentColor" fill="none"/>
<use x="608.63" y="112.01" xlink:href="#r32"/>
<path fill="currentColor"
	d="M621.23 112.21l54.20 0.00v-3.20l-54.20 -0.00"/>
<path fill="currentColor"
	d="M621.53 107.21l53.50 0.00v-3.20l-53.50 -0.00"/>
<path fill="currentColor"
	d="M669.03 102.21l6.00 0.00v-3.20l-6.00 -0.00"/>
<use x="625.03" y="94.01" xlink:href="#hl"/>
<use x="625.03" y="88.01" xlink:href="#hl"/>
<use x="625.03" y="82.01" xlink:href="#hl"/>
<use x="625.03" y="79.01" xlink:href="#hd"/>
<path d="M621.53 79.01v32.20" stroke="currentColor" fill="none"/>
<use x="643.63" y="94.01" xlink:href="#hl"/>
<use x="643.63" y="88.01" xlink:href="#hl"/>
<use x="643.63" y="82.01" xlink:href="#hl"/>
<use x="643.63" y="76.01" xlink:href="#hl"/>
<use x="643.63" y="73.01" xlink:href="#hd"/>
<use x="634.63" y="73.01" xlink:href="#nt0"/>
<path d="M640.13 73.01v38.20" stroke="currentColor" fill="none"/>
<use x="662.23" y="94.01" xlink:href="#hl"/>
<use x="662.23" y="88.01" xlink:href="#hl"/>
<use x="662.23" y="82.01" xlink:href="#hl"/>
<use x="662.23" y="76.01" xlink:href="#hl"/>
<use x="662.23" y="76.01" xlink:href="#hd"/>
<use x="653.23" y="76.01" xlink:href="#nt0"/>
<path d="M658.73 76.01v35.20" stroke="currentColor" fill="none"/>
<use x="678.53" y="94.01" xlink:href="#hl"/>
<use x="678.53" y="88.01" xlink:href="#hl"/>
<use x="678.53" y="82.01" xlink:href="#hl"/>
<use x="678.53" y="79.01" xlink:href="#hd"/>
<path d="M675.03 79.01v32.20" stroke="currentColor" fill="none"/>
<path fill="currentColor"
	d="M184.93 71.01c4.41 -5.00 23.59 -5.00 28.00 -0.00
	l0.00 -0.23c-5.25 -6.78 -22.75 -6.78 -28.00 0.23"/>
<path fill="currentColor"
	d="M362.73 107.01c4.83 -5.05 25.83 -5.05 30.66 -0.00
	l0.00 -0.23c-5.75 -6.82 -24.91 -6.82 -30.66 0.23"/>
</g>
</svg>
