<?xml version="1.0" standalone="no"?>
<!DOCTYPE svg PUBLIC "-//W3C//DTD SVG 1.1//EN"
	"http://www.w3.org/Graphics/SVG/1.1/DTD/svg11.dtd">
<svg xmlns="http://www.w3.org/2000/svg" version="1.1"
	xmlns:xlink="http://www.w3.org/1999/xlink"
	xml:space='preserve' color="black"
	width="7.38in" height="1.71in" viewBox="0 0 531 123">
<title>7047.abc (7047) tune 1</title>
<!-- Creator: abcm2ps-7.8.14 -->
<!-- CreationDate: Mar 13, 2016 18:54 -->
<!-- CommandLine: -qxg 7047.abc -O ../svgs/7047.svg -->
<g transform="scale(0.750)" stroke-width="0.70" font-family="Times" font-size="20.00">
<text x="354.13" y="21.67" text-anchor="middle">7047.  Ein Heldenleben, Op. 40, 4th. Theme</text>
</g>
<g transform="scale(0.750)" stroke-width="0.70" font-family="Times" font-size="14.00" font-style="italic">
<text x="694.93" y="45.34" text-anchor="end">Richard Strauss</text>
</g>
<g transform="scale(0.525)" stroke-width="0.70" font-family="Times" font-size="14.00" font-style="italic">
<defs>
<ellipse id="hd" rx="4.1" ry="2.9"
	transform="rotate(-20)" fill="currentColor"/>
</defs>
<use x="122.76" y="94.16" xlink:href="#hd"/>
<path d="M126.26 94.16v-20.00" stroke="currentColor" fill="none"/>
</g>
<g transform="scale(0.750)" stroke-width="0.70" font-family="Times" font-size="15.00" font-weight="bold">
<text x="93.63" y="68.01">= 120</text>
<path stroke="currentColor" fill="none"
	d="M243.23 141.01v-24.00"/>
<path stroke="currentColor" fill="none"
	d="M380.33 141.01v-24.00"/>
<path stroke="currentColor" fill="none"
	d="M550.73 141.01v-24.00"/>
<path stroke="currentColor" fill="none"
	d="M13.33 141.01h681.60m-681.60 -6h681.60m-681.60 -6h681.60m-681.60 -6h681.60m-681.60 -6h681.60"/>
<defs>
<path id="utclef" fill="currentColor" d="m-50 -90
	c-72 -41 -72 -158 52 -188
	c150 -10 220 188 90 256
	c-114 52 -275 0 -293 -136
	c-15 -181 93 -229 220 -334
	c88 -87 79 -133 62 -210
	c-51 33 -94 105 -89 186
	c17 267 36 374 49 574
	c6 96 -19 134 -77 135
	c-80 1 -126 -93 -61 -133
	c85 -41 133 101 31 105
	c23 17 92 37 90 -92
	c-10 -223 -39 -342 -50 -617
	c0 -90 0 -162 96 -232
	c56 72 63 230 22 289
	c-74 106 -257 168 -255 316
	c9 153 148 185 252 133
	c86 -65 29 -192 -80 -176
	c-71 12 -105 67 -59 124"/>
<use id="tclef" transform="scale(0.045)"
	xlink:href="#utclef"/>
</defs>
<use x="25.33" y="141.01" xlink:href="#tclef"/>
<defs>
<path id="uflat" fill="currentColor" d="
	m100 -746
	h32
	v734
	l-32 4
	m32 -332
	c46 -72 152 -90 208 -20
	c100 110 -120 326 -208 348
	m0 -28
	c54 0 200 -206 130 -290
	c-50 -60 -130 -4 -130 34"/>
<use id="ft0" transform="translate(-3.5,3.5) scale(0.018)"
	xlink:href="#uflat"/>
</defs>
<use x="40.33" y="129.01" xlink:href="#ft0"/>
<use x="45.83" y="120.01" xlink:href="#ft0"/>
<use x="51.33" y="132.01" xlink:href="#ft0"/>
<g font-family="serif" font-size="16" font-weight="bold" font-style="normal"
	transform="translate(67.33,141.01) scale(1.2,1)">
	<text y="-1" text-anchor="middle">4</text>
	<text y="-13" text-anchor="middle">4</text>
</g>
<defs>
<path id="hl" stroke="currentColor" d="m-6 0h12"/>
</defs>
<use x="85.33" y="111.01" xlink:href="#hl"/>
<use x="85.33" y="105.01" xlink:href="#hl"/>
<use x="85.33" y="99.01" xlink:href="#hl"/>
<use x="85.33" y="93.01" xlink:href="#hl"/>
<use x="85.33" y="87.01" xlink:href="#hl"/>
<use x="85.33" y="81.01" xlink:href="#hl"/>
<use x="85.33" y="78.01" xlink:href="#hd"/>
<path d="M81.83 78.01v51.00" stroke="currentColor" fill="none"/>
<path fill="currentColor"
	d="M81.83 129.01c0.6 -5.6 9.6 -9 5.6 -18.4
	c1.6 6 -1.3 11.6 -5.6 12.8
"/>
<path fill="currentColor"
	d="M104.33 129.21l15.40 0.00v-3.20l-15.40 -0.00"/>
<path fill="currentColor"
	d="M104.63 124.21l14.70 0.00v-3.20l-14.70 -0.00"/>
<use x="108.13" y="111.01" xlink:href="#hl"/>
<use x="108.13" y="105.01" xlink:href="#hl"/>
<use x="108.13" y="99.01" xlink:href="#hl"/>
<use x="108.13" y="93.01" xlink:href="#hl"/>
<use x="108.13" y="87.01" xlink:href="#hl"/>
<use x="108.13" y="81.01" xlink:href="#hl"/>
<use x="108.13" y="81.01" xlink:href="#hd"/>
<path d="M104.63 81.01v47.20" stroke="currentColor" fill="none"/>
<use x="122.93" y="111.01" xlink:href="#hl"/>
<use x="122.93" y="105.01" xlink:href="#hl"/>
<use x="122.93" y="99.01" xlink:href="#hl"/>
<use x="122.93" y="93.01" xlink:href="#hl"/>
<use x="122.93" y="87.01" xlink:href="#hl"/>
<use x="122.93" y="84.01" xlink:href="#hd"/>
<path d="M119.43 84.01v44.20" stroke="currentColor" fill="none"/>
<use x="139.23" y="111.01" xlink:href="#hl"/>
<use x="139.23" y="105.01" xlink:href="#hl"/>
<use x="139.23" y="99.01" xlink:href="#hl"/>
<use x="139.23" y="93.01" xlink:href="#hl"/>
<use x="139.23" y="87.01" xlink:href="#hl"/>
<defs>
<path id="Hd" fill="currentColor" d="m3 -1.6
	c-1 -1.8 -7 1.4 -6 3.2
	c1 1.8 7 -1.4 6 -3.2
	m0.5 -0.3
	c2 3.8 -5 7.6 -7 3.8
	c-2 -3.8 5 -7.6 7 -3.8"/>
</defs>
<use x="139.23" y="87.01" xlink:href="#Hd"/>
<path d="M135.73 87.01v42.00" stroke="currentColor" fill="none"/>
<path fill="currentColor"
	d="M180.53 129.21l15.40 0.00v-3.20l-15.40 -0.00"/>
<path fill="currentColor"
	d="M180.83 124.21l14.70 0.00v-3.20l-14.70 -0.00"/>
<use x="184.33" y="111.01" xlink:href="#hl"/>
<use x="184.33" y="105.01" xlink:href="#hl"/>
<use x="184.33" y="99.01" xlink:href="#hl"/>
<use x="184.33" y="93.01" xlink:href="#hl"/>
<use x="184.33" y="87.01" xlink:href="#hl"/>
<use x="184.33" y="87.01" xlink:href="#hd"/>
<path d="M180.83 87.01v41.20" stroke="currentColor" fill="none"/>
<use x="199.03" y="111.01" xlink:href="#hl"/>
<use x="199.03" y="105.01" xlink:href="#hl"/>
<use x="199.03" y="99.01" xlink:href="#hl"/>
<use x="199.03" y="93.01" xlink:href="#hl"/>
<use x="199.03" y="87.01" xlink:href="#hl"/>
<use x="199.03" y="84.01" xlink:href="#hd"/>
<path d="M195.53 84.01v44.20" stroke="currentColor" fill="none"/>
<path fill="currentColor"
	d="M211.53 129.21l15.40 0.00v-3.20l-15.40 -0.00"/>
<path fill="currentColor"
	d="M211.83 124.21l14.70 0.00v-3.20l-14.70 -0.00"/>
<use x="215.33" y="111.01" xlink:href="#hl"/>
<use x="215.33" y="105.01" xlink:href="#hl"/>
<use x="215.33" y="99.01" xlink:href="#hl"/>
<use x="215.33" y="93.01" xlink:href="#hl"/>
<use x="215.33" y="87.01" xlink:href="#hl"/>
<use x="215.33" y="87.01" xlink:href="#hd"/>
<path d="M211.83 87.01v41.20" stroke="currentColor" fill="none"/>
<use x="230.13" y="111.01" xlink:href="#hl"/>
<use x="230.13" y="105.01" xlink:href="#hl"/>
<use x="230.13" y="99.01" xlink:href="#hl"/>
<use x="230.13" y="93.01" xlink:href="#hl"/>
<use x="230.13" y="93.01" xlink:href="#hd"/>
<path d="M226.63 93.01v35.20" stroke="currentColor" fill="none"/>
<use x="255.73" y="111.01" xlink:href="#hl"/>
<use x="255.73" y="105.01" xlink:href="#hl"/>
<use x="255.73" y="99.01" xlink:href="#hl"/>
<use x="255.73" y="93.01" xlink:href="#hl"/>
<use x="255.73" y="87.01" xlink:href="#hl"/>
<use x="255.73" y="87.01" xlink:href="#hd"/>
<path d="M252.23 87.01v42.00" stroke="currentColor" fill="none"/>
<path fill="currentColor"
	d="M252.23 129.01c0.6 -5.6 9.6 -9 5.6 -18.4
	c1.6 6 -1.3 11.6 -5.6 12.8
"/>
<path fill="currentColor"
	d="M274.73 129.21l15.40 0.00v-3.20l-15.40 -0.00"/>
<path fill="currentColor"
	d="M275.03 124.21l14.70 0.00v-3.20l-14.70 -0.00"/>
<use x="278.53" y="111.01" xlink:href="#hl"/>
<use x="278.53" y="105.01" xlink:href="#hl"/>
<use x="278.53" y="99.01" xlink:href="#hl"/>
<use x="278.53" y="93.01" xlink:href="#hl"/>
<use x="278.53" y="90.01" xlink:href="#hd"/>
<path d="M275.03 90.01v38.20" stroke="currentColor" fill="none"/>
<use x="293.23" y="111.01" xlink:href="#hl"/>
<use x="293.23" y="105.01" xlink:href="#hl"/>
<use x="293.23" y="99.01" xlink:href="#hl"/>
<use x="293.23" y="93.01" xlink:href="#hl"/>
<use x="293.23" y="93.01" xlink:href="#hd"/>
<path d="M289.73 93.01v35.20" stroke="currentColor" fill="none"/>
<use x="309.53" y="111.01" xlink:href="#hl"/>
<use x="309.53" y="105.01" xlink:href="#hl"/>
<use x="309.53" y="99.01" xlink:href="#hl"/>
<use x="309.53" y="96.01" xlink:href="#Hd"/>
<path d="M306.03 96.01v33.00" stroke="currentColor" fill="none"/>
<defs>
<path id="r4" fill="currentColor" d="m-1 -8.5
	l3.6 5.1 -2.1 5.2 2.2 4.3
	c-2.6 -2.3 -5.1 0 -2.4 2.6
	c-4.8 -3 -1.5 -6.9 1.4 -4.1
	l-3.1 -4.5 1.9 -5.1 -1.5 -3.5"/>
</defs>
<use x="354.63" y="129.01" xlink:href="#r4"/>
<use x="392.83" y="111.01" xlink:href="#hl"/>
<use x="392.83" y="105.01" xlink:href="#hl"/>
<use x="392.83" y="99.01" xlink:href="#hl"/>
<use x="392.83" y="93.01" xlink:href="#hl"/>
<use x="392.83" y="93.01" xlink:href="#hd"/>
<path d="M389.33 93.01v36.00" stroke="currentColor" fill="none"/>
<path fill="currentColor"
	d="M389.33 129.01c0.6 -5.6 9.6 -9 5.6 -18.4
	c1.6 6 -1.3 11.6 -5.6 12.8
"/>
<path fill="currentColor"
	d="M411.83 129.21l15.40 0.00v-3.20l-15.40 -0.00"/>
<path fill="currentColor"
	d="M412.13 124.21l14.70 0.00v-3.20l-14.70 -0.00"/>
<use x="415.63" y="111.01" xlink:href="#hl"/>
<use x="415.63" y="105.01" xlink:href="#hl"/>
<use x="415.63" y="99.01" xlink:href="#hl"/>
<use x="415.63" y="96.01" xlink:href="#hd"/>
<path d="M412.13 96.01v32.20" stroke="currentColor" fill="none"/>
<use x="430.43" y="111.01" xlink:href="#hl"/>
<use x="430.43" y="105.01" xlink:href="#hl"/>
<use x="430.43" y="99.01" xlink:href="#hl"/>
<use x="430.43" y="99.01" xlink:href="#hd"/>
<path d="M426.93 99.01v29.20" stroke="currentColor" fill="none"/>
<use x="446.73" y="111.01" xlink:href="#hl"/>
<use x="446.73" y="105.01" xlink:href="#hl"/>
<use x="446.73" y="102.01" xlink:href="#Hd"/>
<path d="M443.23 102.01v27.00" stroke="currentColor" fill="none"/>
<path fill="currentColor"
	d="M488.03 129.21l15.40 0.00v-3.20l-15.40 -0.00"/>
<path fill="currentColor"
	d="M488.33 124.21l14.70 0.00v-3.20l-14.70 -0.00"/>
<use x="491.83" y="111.01" xlink:href="#hl"/>
<use x="491.83" y="105.01" xlink:href="#hl"/>
<use x="491.83" y="102.01" xlink:href="#hd"/>
<path d="M488.33 102.01v26.20" stroke="currentColor" fill="none"/>
<use x="506.63" y="111.01" xlink:href="#hl"/>
<use x="506.63" y="105.01" xlink:href="#hl"/>
<use x="506.63" y="99.01" xlink:href="#hl"/>
<use x="506.63" y="99.01" xlink:href="#hd"/>
<path d="M503.13 99.01v29.20" stroke="currentColor" fill="none"/>
<path fill="currentColor"
	d="M519.03 129.21l15.40 0.00v-3.20l-15.40 -0.00"/>
<path fill="currentColor"
	d="M519.43 124.21l14.70 0.00v-3.20l-14.70 -0.00"/>
<use x="522.93" y="111.01" xlink:href="#hl"/>
<use x="522.93" y="105.01" xlink:href="#hl"/>
<use x="522.93" y="99.01" xlink:href="#hl"/>
<use x="522.93" y="96.01" xlink:href="#hd"/>
<path d="M519.43 96.01v32.20" stroke="currentColor" fill="none"/>
<use x="537.63" y="111.01" xlink:href="#hl"/>
<use x="537.63" y="105.01" xlink:href="#hl"/>
<use x="537.63" y="102.01" xlink:href="#hd"/>
<path d="M534.13 102.01v26.20" stroke="currentColor" fill="none"/>
<use x="563.23" y="111.01" xlink:href="#hl"/>
<use x="563.23" y="105.01" xlink:href="#hl"/>
<use x="563.23" y="99.01" xlink:href="#hl"/>
<use x="563.23" y="93.01" xlink:href="#hl"/>
<use x="563.23" y="87.01" xlink:href="#hl"/>
<use x="563.23" y="87.01" xlink:href="#hd"/>
<path d="M559.73 87.01v42.00" stroke="currentColor" fill="none"/>
<path fill="currentColor"
	d="M559.73 129.01c0.6 -5.6 9.6 -9 5.6 -18.4
	c1.6 6 -1.3 11.6 -5.6 12.8
"/>
<path fill="currentColor"
	d="M582.23 129.21l15.40 0.00v-3.20l-15.40 -0.00"/>
<path fill="currentColor"
	d="M582.53 124.21l14.70 0.00v-3.20l-14.70 -0.00"/>
<use x="586.03" y="111.01" xlink:href="#hl"/>
<use x="586.03" y="105.01" xlink:href="#hl"/>
<use x="586.03" y="99.01" xlink:href="#hl"/>
<use x="586.03" y="93.01" xlink:href="#hl"/>
<use x="586.03" y="90.01" xlink:href="#hd"/>
<path d="M582.53 90.01v38.20" stroke="currentColor" fill="none"/>
<use x="600.73" y="111.01" xlink:href="#hl"/>
<use x="600.73" y="105.01" xlink:href="#hl"/>
<use x="600.73" y="99.01" xlink:href="#hl"/>
<use x="600.73" y="93.01" xlink:href="#hl"/>
<use x="600.73" y="93.01" xlink:href="#hd"/>
<path d="M597.23 93.01v35.20" stroke="currentColor" fill="none"/>
<use x="617.03" y="111.01" xlink:href="#hl"/>
<use x="617.03" y="105.01" xlink:href="#hl"/>
<use x="617.03" y="99.01" xlink:href="#hl"/>
<use x="617.03" y="96.01" xlink:href="#hd"/>
<path d="M613.53 96.01v33.00" stroke="currentColor" fill="none"/>
<path fill="currentColor"
	d="M613.53 129.01c0.6 -5.6 9.6 -9 5.6 -18.4
	c1.6 6 -1.3 11.6 -5.6 12.8
"/>
<path fill="currentColor"
	d="M636.03 129.21l15.40 0.00v-3.20l-15.40 -0.00"/>
<path fill="currentColor"
	d="M636.43 124.21l14.70 0.00v-3.20l-14.70 -0.00"/>
<use x="639.93" y="111.01" xlink:href="#hl"/>
<use x="639.93" y="105.01" xlink:href="#hl"/>
<use x="639.93" y="99.01" xlink:href="#hl"/>
<use x="639.93" y="99.01" xlink:href="#hd"/>
<path d="M636.43 99.01v29.20" stroke="currentColor" fill="none"/>
<use x="654.63" y="111.01" xlink:href="#hl"/>
<use x="654.63" y="105.01" xlink:href="#hl"/>
<use x="654.63" y="102.01" xlink:href="#hd"/>
<path d="M651.13 102.01v26.20" stroke="currentColor" fill="none"/>
<use x="672.63" y="111.01" xlink:href="#hl"/>
<use x="672.63" y="105.01" xlink:href="#hl"/>
<use x="672.63" y="102.01" xlink:href="#hd"/>
<use x="663.63" y="102.01" xlink:href="#ft0"/>
<path d="M669.13 102.01v27.00" stroke="currentColor" fill="none"/>
<path fill="currentColor"
	d="M669.13 129.01c0.6 -5.6 9.6 -9 5.6 -18.4
	c1.6 6 -1.3 11.6 -5.6 12.8
"/>
</g>
</svg>
