<?xml version="1.0" standalone="no"?>
<!DOCTYPE svg PUBLIC "-//W3C//DTD SVG 1.1//EN"
	"http://www.w3.org/Graphics/SVG/1.1/DTD/svg11.dtd">
<svg xmlns="http://www.w3.org/2000/svg" version="1.1"
	xmlns:xlink="http://www.w3.org/1999/xlink"
	xml:space='preserve' color="black"
	width="7.38in" height="1.52in" viewBox="0 0 531 110">
<title>7056.abc (7056) tune 1</title>
<!-- Creator: abcm2ps-7.8.14 -->
<!-- CreationDate: Mar 13, 2016 18:54 -->
<!-- CommandLine: -qxg 7056.abc -O ../svgs/7056.svg -->
<g transform="scale(0.750)" stroke-width="0.70" font-family="Times" font-size="20.00">
<text x="354.13" y="21.67" text-anchor="middle">7056.  Der Rosenkavalier, Waltz Themes, Op. 59.</text>
</g>
<g transform="scale(0.750)" stroke-width="0.70" font-family="Times" font-size="14.00" font-style="italic">
<text x="694.93" y="45.34" text-anchor="end">Richard Strauss</text>
</g>
<g transform="scale(0.525)" stroke-width="0.70" font-family="Times" font-size="14.00" font-style="italic">
<defs>
<ellipse id="hd" rx="4.1" ry="2.9"
	transform="rotate(-20)" fill="currentColor"/>
</defs>
<use x="114.90" y="94.16" xlink:href="#hd"/>
<path d="M118.40 94.16v-20.00" stroke="currentColor" fill="none"/>
</g>
<g transform="scale(0.750)" stroke-width="0.70" font-family="Times" font-size="15.00" font-weight="bold">
<text x="88.13" y="68.01">= 120</text>
<path stroke="currentColor" fill="none"
	d="M147.93 123.01v-24.00"/>
<path stroke="currentColor" fill="none"
	d="M228.63 123.01v-24.00"/>
<path stroke="currentColor" fill="none"
	d="M309.23 123.01v-24.00"/>
<path stroke="currentColor" fill="none"
	d="M389.73 123.01v-24.00"/>
<path stroke="currentColor" fill="none"
	d="M487.03 123.01v-24.00"/>
<path stroke="currentColor" fill="none"
	d="M575.83 123.01v-24.00"/>
<path stroke="currentColor" fill="none"
	d="M646.33 123.01v-24.00"/>
<path stroke="currentColor" fill="none"
	d="M694.93 123.01v-24.00"/>
<path stroke="currentColor" fill="none"
	d="M13.33 123.01h681.60m-681.60 -6h681.60m-681.60 -6h681.60m-681.60 -6h681.60m-681.60 -6h681.60"/>
<defs>
<path id="utclef" fill="currentColor" d="m-50 -90
	c-72 -41 -72 -158 52 -188
	c150 -10 220 188 90 256
	c-114 52 -275 0 -293 -136
	c-15 -181 93 -229 220 -334
	c88 -87 79 -133 62 -210
	c-51 33 -94 105 -89 186
	c17 267 36 374 49 574
	c6 96 -19 134 -77 135
	c-80 1 -126 -93 -61 -133
	c85 -41 133 101 31 105
	c23 17 92 37 90 -92
	c-10 -223 -39 -342 -50 -617
	c0 -90 0 -162 96 -232
	c56 72 63 230 22 289
	c-74 106 -257 168 -255 316
	c9 153 148 185 252 133
	c86 -65 29 -192 -80 -176
	c-71 12 -105 67 -59 124"/>
<use id="tclef" transform="scale(0.045)"
	xlink:href="#utclef"/>
</defs>
<use x="25.33" y="123.01" xlink:href="#tclef"/>
<defs>
<path id="usharp" fill="currentColor" d="
	m136 -702
	v890
	h32
	v-890
	m128 840
	h32
	v-888
	h-32
	m-232 286
	v116
	l338 -96
	v-116
	m-338 442
	v116
	l338 -98
	v-114"/>
<use id="sh0" transform="translate(-4,5) scale(0.018)"
	xlink:href="#usharp"/>
</defs>
<use x="40.33" y="99.01" xlink:href="#sh0"/>
<use x="45.83" y="108.01" xlink:href="#sh0"/>
<g font-family="serif" font-size="16" font-weight="bold" font-style="normal"
	transform="translate(61.83,123.01) scale(1.2,1)">
	<text y="-1" text-anchor="middle">4</text>
	<text y="-13" text-anchor="middle">3</text>
</g>
<path fill="currentColor"
	d="M76.03 112.81l18.50 -1.70v-3.20l-18.50 1.70"/>
<defs>
<path id="hl" stroke="currentColor" d="m-6 0h12"/>
</defs>
<use x="79.83" y="93.01" xlink:href="#hl"/>
<use x="79.83" y="93.01" xlink:href="#hd"/>
<path d="M76.33 93.01v18.80" stroke="currentColor" fill="none"/>
<use x="97.63" y="93.01" xlink:href="#hl"/>
<use x="97.63" y="87.01" xlink:href="#hl"/>
<use x="97.63" y="81.01" xlink:href="#hl"/>
<use x="97.63" y="78.01" xlink:href="#hd"/>
<path d="M94.13 78.01v32.20" stroke="currentColor" fill="none"/>
<use x="117.23" y="93.01" xlink:href="#hl"/>
<use x="117.23" y="87.01" xlink:href="#hl"/>
<use x="117.23" y="81.01" xlink:href="#hl"/>
<defs>
<path id="Hd" fill="currentColor" d="m3 -1.6
	c-1 -1.8 -7 1.4 -6 3.2
	c1 1.8 7 -1.4 6 -3.2
	m0.5 -0.3
	c2 3.8 -5 7.6 -7 3.8
	c-2 -3.8 5 -7.6 7 -3.8"/>
</defs>
<use x="117.23" y="78.01" xlink:href="#Hd"/>
<path d="M113.73 78.01v33.00" stroke="currentColor" fill="none"/>
<path fill="currentColor"
	d="M156.63 112.81l18.50 -1.70v-3.20l-18.50 1.70"/>
<use x="160.43" y="93.01" xlink:href="#hl"/>
<use x="160.43" y="93.01" xlink:href="#hd"/>
<path d="M156.93 93.01v18.80" stroke="currentColor" fill="none"/>
<use x="178.23" y="93.01" xlink:href="#hl"/>
<use x="178.23" y="87.01" xlink:href="#hl"/>
<use x="178.23" y="81.01" xlink:href="#hl"/>
<use x="178.23" y="81.01" xlink:href="#hd"/>
<path d="M174.73 81.01v29.20" stroke="currentColor" fill="none"/>
<use x="197.93" y="93.01" xlink:href="#hl"/>
<use x="197.93" y="87.01" xlink:href="#hl"/>
<use x="197.93" y="81.01" xlink:href="#hl"/>
<use x="197.93" y="81.01" xlink:href="#Hd"/>
<path d="M194.43 81.01v30.00" stroke="currentColor" fill="none"/>
<path fill="currentColor"
	d="M237.33 112.81l18.50 -1.70v-3.20l-18.50 1.70"/>
<use x="241.13" y="93.01" xlink:href="#hl"/>
<use x="241.13" y="93.01" xlink:href="#hd"/>
<path d="M237.63 93.01v18.80" stroke="currentColor" fill="none"/>
<use x="258.93" y="93.01" xlink:href="#hl"/>
<use x="258.93" y="87.01" xlink:href="#hl"/>
<use x="258.93" y="84.01" xlink:href="#hd"/>
<path d="M255.43 84.01v26.20" stroke="currentColor" fill="none"/>
<use x="278.53" y="93.01" xlink:href="#hl"/>
<use x="278.53" y="87.01" xlink:href="#hl"/>
<use x="278.53" y="84.01" xlink:href="#Hd"/>
<path d="M275.03 84.01v27.00" stroke="currentColor" fill="none"/>
<path fill="currentColor"
	d="M317.93 118.31l18.30 -4.40v-3.20l-18.30 4.40"/>
<use x="321.73" y="99.01" xlink:href="#hd"/>
<path d="M318.23 99.01v18.20" stroke="currentColor" fill="none"/>
<use x="339.43" y="93.01" xlink:href="#hl"/>
<use x="339.43" y="87.01" xlink:href="#hl"/>
<use x="339.43" y="87.01" xlink:href="#hd"/>
<path d="M335.93 87.01v26.00" stroke="currentColor" fill="none"/>
<use x="359.03" y="93.01" xlink:href="#hl"/>
<use x="359.03" y="87.01" xlink:href="#hl"/>
<use x="359.03" y="87.01" xlink:href="#Hd"/>
<path d="M355.53 87.01v24.00" stroke="currentColor" fill="none"/>
<path fill="currentColor"
	d="M398.43 124.31l18.30 -5.60v-3.20l-18.30 5.60"/>
<use x="402.23" y="105.01" xlink:href="#hd"/>
<path d="M398.73 105.01v18.20" stroke="currentColor" fill="none"/>
<use x="419.93" y="93.01" xlink:href="#hl"/>
<use x="419.93" y="90.01" xlink:href="#hd"/>
<path d="M416.43 90.01v27.80" stroke="currentColor" fill="none"/>
<use x="439.53" y="93.01" xlink:href="#hl"/>
<use x="439.53" y="90.01" xlink:href="#hd"/>
<circle fill="currentColor" cx="447.53" cy="90.01" r="1.2"/>
<path d="M436.03 90.01v21.00" stroke="currentColor" fill="none"/>
<use x="471.23" y="93.01" xlink:href="#hl"/>
<use x="471.23" y="93.01" xlink:href="#hd"/>
<path d="M467.73 93.01v20.00" stroke="currentColor" fill="none"/>
<path fill="currentColor"
	d="M467.73 113.01c0.6 -5.6 9.6 -9 5.6 -18.4
	c1.6 6 -1.3 11.6 -5.6 12.8
"/>
<use x="499.53" y="93.01" xlink:href="#hl"/>
<use x="499.53" y="87.01" xlink:href="#hl"/>
<use x="499.53" y="81.01" xlink:href="#hl"/>
<use x="499.53" y="78.01" xlink:href="#hd"/>
<path d="M496.03 78.01v33.00" stroke="currentColor" fill="none"/>
<use x="526.73" y="99.01" xlink:href="#hd"/>
<path d="M523.23 99.01v20.00" stroke="currentColor" fill="none"/>
<use x="553.93" y="96.01" xlink:href="#hd"/>
<path d="M550.43 96.01v20.00" stroke="currentColor" fill="none"/>
<use x="588.33" y="93.01" xlink:href="#hl"/>
<use x="588.33" y="93.01" xlink:href="#hd"/>
<path d="M584.83 93.01v20.00" stroke="currentColor" fill="none"/>
<use x="615.53" y="96.01" xlink:href="#Hd"/>
<path d="M612.03 96.01v20.00" stroke="currentColor" fill="none"/>
<use x="659.33" y="96.01" xlink:href="#Hd"/>
<circle fill="currentColor" cx="668.33" cy="96.01" r="1.2"/>
<path d="M655.83 96.01v20.00" stroke="currentColor" fill="none"/>
<path fill="currentColor"
	d="M619.03 94.01c5.78 -5.16 30.94 -5.16 36.72 -0.00
	l0.00 -0.24c-6.89 -6.92 -29.84 -6.92 -36.72 0.24"/>
</g>
</svg>
