<?xml version="1.0" standalone="no"?>
<!DOCTYPE svg PUBLIC "-//W3C//DTD SVG 1.1//EN"
	"http://www.w3.org/Graphics/SVG/1.1/DTD/svg11.dtd">
<svg xmlns="http://www.w3.org/2000/svg" version="1.1"
	xmlns:xlink="http://www.w3.org/1999/xlink"
	xml:space='preserve' color="black"
	width="7.38in" height="1.54in" viewBox="0 0 531 111">
<title>7060.abc (7060) tune 1</title>
<!-- Creator: abcm2ps-7.8.14 -->
<!-- CreationDate: Mar 13, 2016 18:54 -->
<!-- CommandLine: -qxg 7060.abc -O ../svgs/7060.svg -->
<g transform="scale(0.750)" stroke-width="0.70" font-family="Times" font-size="20.00">
<text x="354.13" y="21.67" text-anchor="middle">7060.  Salome, Op. 54, Dance of the Seven Veils, 2nd. Theme</text>
</g>
<g transform="scale(0.750)" stroke-width="0.70" font-family="Times" font-size="14.00" font-style="italic">
<text x="694.93" y="45.34" text-anchor="end">Richard Strauss</text>
</g>
<g transform="scale(0.525)" stroke-width="0.70" font-family="Times" font-size="14.00" font-style="italic">
<defs>
<ellipse id="hd" rx="4.1" ry="2.9"
	transform="rotate(-20)" fill="currentColor"/>
</defs>
<use x="89.90" y="94.16" xlink:href="#hd"/>
<path d="M93.40 94.16v-20.00" stroke="currentColor" fill="none"/>
</g>
<g transform="scale(0.750)" stroke-width="0.70" font-family="Times" font-size="15.00" font-weight="bold">
<text x="70.63" y="68.01">= 120</text>
<path stroke="currentColor" fill="none"
	d="M181.43 125.01v-24.00"/>
<path stroke="currentColor" fill="none"
	d="M236.13 125.01v-24.00"/>
<path stroke="currentColor" fill="none"
	d="M320.33 125.01v-24.00"/>
<path stroke="currentColor" fill="none"
	d="M450.43 125.01v-24.00"/>
<path stroke="currentColor" fill="none"
	d="M638.53 125.01v-24.00"/>
<path stroke="currentColor" fill="none"
	d="M13.33 125.01h681.60m-681.60 -6h681.60m-681.60 -6h681.60m-681.60 -6h681.60m-681.60 -6h681.60"/>
<text font-family="serif" font-size="12" font-style="italic" font-weight="normal"
	x="425.03" y="131.01" text-anchor="middle">3</text>
<text font-family="serif" font-size="12" font-style="italic" font-weight="normal"
	x="502.43" y="137.01" text-anchor="middle">3</text>
<text font-family="serif" font-size="12" font-style="italic" font-weight="normal"
	x="569.13" y="136.01" text-anchor="middle">3</text>
<defs>
<path id="utclef" fill="currentColor" d="m-50 -90
	c-72 -41 -72 -158 52 -188
	c150 -10 220 188 90 256
	c-114 52 -275 0 -293 -136
	c-15 -181 93 -229 220 -334
	c88 -87 79 -133 62 -210
	c-51 33 -94 105 -89 186
	c17 267 36 374 49 574
	c6 96 -19 134 -77 135
	c-80 1 -126 -93 -61 -133
	c85 -41 133 101 31 105
	c23 17 92 37 90 -92
	c-10 -223 -39 -342 -50 -617
	c0 -90 0 -162 96 -232
	c56 72 63 230 22 289
	c-74 106 -257 168 -255 316
	c9 153 148 185 252 133
	c86 -65 29 -192 -80 -176
	c-71 12 -105 67 -59 124"/>
<use id="tclef" transform="scale(0.045)"
	xlink:href="#utclef"/>
</defs>
<use x="25.33" y="125.01" xlink:href="#tclef"/>
<g font-family="serif" font-size="16" font-weight="bold" font-style="normal"
	transform="translate(43.83,125.01) scale(1.2,1)">
	<text y="-1" text-anchor="middle">4</text>
	<text y="-13" text-anchor="middle">3</text>
</g>
<defs>
<path id="hl" stroke="currentColor" d="m-6 0h12"/>
</defs>
<use x="62.33" y="95.01" xlink:href="#hl"/>
<use x="62.33" y="89.01" xlink:href="#hl"/>
<use x="62.33" y="83.01" xlink:href="#hl"/>
<defs>
<path id="Hd" fill="currentColor" d="m3 -1.6
	c-1 -1.8 -7 1.4 -6 3.2
	c1 1.8 7 -1.4 6 -3.2
	m0.5 -0.3
	c2 3.8 -5 7.6 -7 3.8
	c-2 -3.8 5 -7.6 7 -3.8"/>
</defs>
<use x="62.33" y="83.01" xlink:href="#Hd"/>
<path d="M58.83 83.01v30.00" stroke="currentColor" fill="none"/>
<use x="108.03" y="95.01" xlink:href="#hl"/>
<use x="108.03" y="89.01" xlink:href="#hl"/>
<use x="108.03" y="83.01" xlink:href="#hl"/>
<use x="108.03" y="83.01" xlink:href="#hd"/>
<path d="M104.53 83.01v30.00" stroke="currentColor" fill="none"/>
<path fill="currentColor"
	d="M104.53 113.01c0.9 -3.7 9.1 -6.4 6 -12.4
	c1 5.4 -4.2 8.4 -6 8.4
M104.53 107.61c0.9 -3.7 9.1 -6.4 6 -12.4
	c1 5.4 -4.2 8.4 -6 8.4
"/>
<path fill="currentColor"
	d="M120.73 114.01l47.70 0.00v-3.20l-47.70 -0.00"/>
<path fill="currentColor"
	d="M121.13 109.01l47.00 0.00v-3.20l-47.00 -0.00"/>
<path fill="currentColor"
	d="M121.13 104.01l18.00 0.00v-3.20l-18.00 -0.00"/>
<path fill="currentColor"
	d="M162.13 104.01l6.00 0.00v-3.20l-6.00 -0.00"/>
<use x="124.63" y="95.01" xlink:href="#hl"/>
<use x="124.63" y="89.01" xlink:href="#hl"/>
<use x="124.63" y="83.01" xlink:href="#hl"/>
<use x="124.63" y="80.01" xlink:href="#hd"/>
<path d="M121.13 80.01v33.00" stroke="currentColor" fill="none"/>
<use x="142.63" y="95.01" xlink:href="#hl"/>
<use x="142.63" y="89.01" xlink:href="#hl"/>
<use x="142.63" y="86.01" xlink:href="#hd"/>
<defs>
<path id="usharp" fill="currentColor" d="
	m136 -702
	v890
	h32
	v-890
	m128 840
	h32
	v-888
	h-32
	m-232 286
	v116
	l338 -96
	v-116
	m-338 442
	v116
	l338 -98
	v-114"/>
<use id="sh0" transform="translate(-4,5) scale(0.018)"
	xlink:href="#usharp"/>
</defs>
<use x="133.63" y="86.01" xlink:href="#sh0"/>
<path d="M139.13 86.01v27.00" stroke="currentColor" fill="none"/>
<use x="153.63" y="95.01" xlink:href="#hl"/>
<use x="153.63" y="89.01" xlink:href="#hl"/>
<use x="153.63" y="83.01" xlink:href="#hl"/>
<use x="153.63" y="77.01" xlink:href="#hl"/>
<use x="153.63" y="74.01" xlink:href="#hd"/>
<circle fill="currentColor" cx="161.63" cy="74.01" r="1.2"/>
<path d="M150.13 74.01v39.00" stroke="currentColor" fill="none"/>
<use x="171.63" y="95.01" xlink:href="#hl"/>
<use x="171.63" y="89.01" xlink:href="#hl"/>
<use x="171.63" y="89.01" xlink:href="#hd"/>
<path d="M168.13 89.01v24.00" stroke="currentColor" fill="none"/>
<use x="194.43" y="95.01" xlink:href="#hl"/>
<use x="194.43" y="95.01" xlink:href="#Hd"/>
<circle fill="currentColor" cx="203.43" cy="92.01" r="1.2"/>
<path d="M190.93 95.01v20.00" stroke="currentColor" fill="none"/>
<use x="249.13" y="95.01" xlink:href="#hl"/>
<use x="249.13" y="95.01" xlink:href="#Hd"/>
<path d="M245.63 95.01v20.00" stroke="currentColor" fill="none"/>
<use x="294.73" y="95.01" xlink:href="#hl"/>
<use x="294.73" y="89.01" xlink:href="#hl"/>
<use x="294.73" y="83.01" xlink:href="#hl"/>
<use x="294.73" y="77.01" xlink:href="#hl"/>
<use x="294.73" y="71.01" xlink:href="#hl"/>
<use x="294.73" y="68.01" xlink:href="#hd"/>
<use x="285.73" y="68.01" xlink:href="#sh0"/>
<path d="M291.23 68.01v45.00" stroke="currentColor" fill="none"/>
<use x="339.83" y="95.01" xlink:href="#hl"/>
<use x="339.83" y="89.01" xlink:href="#hl"/>
<use x="339.83" y="83.01" xlink:href="#hl"/>
<use x="339.83" y="77.01" xlink:href="#hl"/>
<use x="339.83" y="71.01" xlink:href="#hl"/>
<use x="339.83" y="68.01" xlink:href="#Hd"/>
<use x="329.83" y="68.01" xlink:href="#sh0"/>
<path d="M336.33 68.01v45.00" stroke="currentColor" fill="none"/>
<use x="385.53" y="95.01" xlink:href="#hl"/>
<use x="385.53" y="89.01" xlink:href="#hl"/>
<use x="385.53" y="83.01" xlink:href="#hl"/>
<use x="385.53" y="77.01" xlink:href="#hl"/>
<use x="385.53" y="71.01" xlink:href="#hl"/>
<use x="385.53" y="68.01" xlink:href="#hd"/>
<circle fill="currentColor" cx="393.53" cy="68.01" r="1.2"/>
<use x="376.53" y="68.01" xlink:href="#sh0"/>
<path d="M382.03 68.01v45.00" stroke="currentColor" fill="none"/>
<path fill="currentColor"
	d="M382.03 113.01c0.6 -5.6 9.6 -9 5.6 -18.4
	c1.6 6 -1.3 11.6 -5.6 12.8
"/>
<path fill="currentColor"
	d="M408.53 114.01l29.20 0.00v-3.20l-29.20 -0.00"/>
<path fill="currentColor"
	d="M408.93 109.01l28.50 0.00v-3.20l-28.50 -0.00"/>
<path fill="currentColor"
	d="M408.93 104.01l28.50 0.00v-3.20l-28.50 -0.00"/>
<use x="412.43" y="95.01" xlink:href="#hl"/>
<use x="412.43" y="89.01" xlink:href="#hl"/>
<use x="412.43" y="83.01" xlink:href="#hl"/>
<use x="412.43" y="77.01" xlink:href="#hl"/>
<use x="412.43" y="74.01" xlink:href="#hd"/>
<path d="M408.93 74.01v39.00" stroke="currentColor" fill="none"/>
<use x="422.93" y="95.01" xlink:href="#hl"/>
<use x="422.93" y="89.01" xlink:href="#hl"/>
<use x="422.93" y="83.01" xlink:href="#hl"/>
<use x="422.93" y="83.01" xlink:href="#hd"/>
<path d="M419.43 83.01v30.00" stroke="currentColor" fill="none"/>
<use x="440.93" y="95.01" xlink:href="#hl"/>
<use x="440.93" y="89.01" xlink:href="#hl"/>
<use x="440.93" y="89.01" xlink:href="#hd"/>
<defs>
<path id="unat" fill="currentColor" d="
	m96 -750
	h-32
	v716
	l32 -8
	l182 -54
	v282
	h32
	v-706
	l-34 10
	l-180 50
	v-290
	m0 592
	v-190
	l182 -52
	v188"/>
<use id="nt0" transform="translate(-3,5) scale(0.018)"
	xlink:href="#unat"/>
</defs>
<use x="431.93" y="89.01" xlink:href="#nt0"/>
<path d="M437.43 89.01v24.00" stroke="currentColor" fill="none"/>
<use x="462.93" y="95.01" xlink:href="#hl"/>
<use x="462.93" y="89.01" xlink:href="#hl"/>
<use x="462.93" y="83.01" xlink:href="#hl"/>
<use x="462.93" y="77.01" xlink:href="#hl"/>
<use x="462.93" y="71.01" xlink:href="#hl"/>
<use x="462.93" y="68.01" xlink:href="#hd"/>
<circle fill="currentColor" cx="470.93" cy="68.01" r="1.2"/>
<path d="M459.43 68.01v45.00" stroke="currentColor" fill="none"/>
<path fill="currentColor"
	d="M459.43 113.01c0.6 -5.6 9.6 -9 5.6 -18.4
	c1.6 6 -1.3 11.6 -5.6 12.8
"/>
<path fill="currentColor"
	d="M485.93 119.91l39.70 0.00v-3.20l-39.70 -0.00"/>
<path fill="currentColor"
	d="M486.23 114.91l28.50 0.00v-3.20l-28.50 -0.00"/>
<path fill="currentColor"
	d="M486.23 109.91l28.50 0.00v-3.20l-28.50 -0.00"/>
<use x="489.73" y="95.01" xlink:href="#hl"/>
<use x="489.73" y="89.01" xlink:href="#hl"/>
<use x="489.73" y="83.01" xlink:href="#hl"/>
<use x="489.73" y="77.01" xlink:href="#hl"/>
<use x="489.73" y="77.01" xlink:href="#hd"/>
<path d="M486.23 77.01v42.00" stroke="currentColor" fill="none"/>
<use x="507.73" y="95.01" xlink:href="#hl"/>
<use x="507.73" y="89.01" xlink:href="#hl"/>
<use x="507.73" y="86.01" xlink:href="#hd"/>
<use x="498.73" y="86.01" xlink:href="#sh0"/>
<path d="M504.23 86.01v33.00" stroke="currentColor" fill="none"/>
<use x="518.23" y="95.01" xlink:href="#hl"/>
<use x="518.23" y="95.01" xlink:href="#hd"/>
<path d="M514.73 95.01v24.00" stroke="currentColor" fill="none"/>
<use x="528.73" y="95.01" xlink:href="#hl"/>
<use x="528.73" y="89.01" xlink:href="#hl"/>
<use x="528.73" y="83.01" xlink:href="#hl"/>
<use x="528.73" y="77.01" xlink:href="#hl"/>
<use x="528.73" y="71.01" xlink:href="#hl"/>
<use x="528.73" y="71.01" xlink:href="#hd"/>
<circle fill="currentColor" cx="536.73" cy="68.01" r="1.2"/>
<path d="M525.23 71.01v48.00" stroke="currentColor" fill="none"/>
<path fill="currentColor"
	d="M552.63 119.21l29.20 0.00v-3.20l-29.20 -0.00"/>
<path fill="currentColor"
	d="M553.03 114.21l28.50 0.00v-3.20l-28.50 -0.00"/>
<path fill="currentColor"
	d="M553.03 109.21l28.50 0.00v-3.20l-28.50 -0.00"/>
<use x="556.53" y="95.01" xlink:href="#hl"/>
<use x="556.53" y="89.01" xlink:href="#hl"/>
<use x="556.53" y="83.01" xlink:href="#hl"/>
<use x="556.53" y="80.01" xlink:href="#hd"/>
<use x="547.53" y="80.01" xlink:href="#sh0"/>
<path d="M553.03 80.01v38.20" stroke="currentColor" fill="none"/>
<use x="574.53" y="95.01" xlink:href="#hl"/>
<use x="574.53" y="89.01" xlink:href="#hl"/>
<use x="574.53" y="86.01" xlink:href="#hd"/>
<use x="565.53" y="86.01" xlink:href="#sh0"/>
<path d="M571.03 86.01v32.20" stroke="currentColor" fill="none"/>
<use x="585.03" y="95.01" xlink:href="#hl"/>
<use x="585.03" y="92.01" xlink:href="#hd"/>
<path d="M581.53 92.01v26.20" stroke="currentColor" fill="none"/>
<defs>
<path id="r8e" fill="currentColor" d="m 0 0
	c-1.5 1.5 -2.4 2 -3.6 2
	c2.4 -2.8 -2.8 -4 -2.8 -1.2
	c0 2.7 4.3 2.4 5.9 0.6"/>
<g id="r32">
	<path d="m4.8 -10l-5.5 21.6" stroke="currentColor" fill="none"/>
	<use x="4.9" y="-10" xlink:href="#r8e"/>
	<use x="3.4" y="-4" xlink:href="#r8e"/>
	<use x="1.9" y="2" xlink:href="#r8e"/>
</g>
</defs>
<use x="594.03" y="113.01" xlink:href="#r32"/>
<use x="604.83" y="113.01" xlink:href="#r32"/>
<use x="616.73" y="95.01" xlink:href="#hl"/>
<use x="616.73" y="89.01" xlink:href="#hl"/>
<use x="616.73" y="83.01" xlink:href="#hl"/>
<use x="616.73" y="83.01" xlink:href="#hd"/>
<circle fill="currentColor" cx="624.73" cy="80.01" r="1.2"/>
<path d="M613.23 83.01v30.00" stroke="currentColor" fill="none"/>
<path fill="currentColor"
	d="M613.23 113.01c0.6 -5.6 9.6 -9 5.6 -18.4
	c1.6 6 -1.3 11.6 -5.6 12.8
"/>
<use x="651.53" y="95.01" xlink:href="#hl"/>
<use x="651.53" y="89.01" xlink:href="#hl"/>
<use x="651.53" y="83.01" xlink:href="#hl"/>
<use x="651.53" y="83.01" xlink:href="#Hd"/>
<path d="M648.03 83.01v30.00" stroke="currentColor" fill="none"/>
<path fill="currentColor"
	d="M65.83 83.01c6.09 -5.20 32.58 -5.20 38.67 -0.00
	l0.00 -0.24c-7.25 -6.96 -31.42 -6.96 -38.67 0.24"/>
<path fill="currentColor"
	d="M197.93 89.01c7.34 -5.36 40.31 -5.36 47.66 -0.00
	l0.00 -0.25c-8.77 -7.11 -38.88 -7.11 -47.66 0.25"/>
<path fill="currentColor"
	d="M298.23 66.01c6.01 -5.19 32.16 -5.19 38.17 -0.00
	l0.00 -0.24c-7.16 -6.95 -31.01 -6.95 -38.17 0.24"/>
<path fill="currentColor"
	d="M343.33 66.01c6.09 -5.20 32.58 -5.20 38.67 -0.00
	l0.00 -0.24c-7.25 -6.96 -31.42 -6.96 -38.67 0.24"/>
<path fill="currentColor"
	d="M620.23 77.01c4.38 -5.00 23.41 -5.00 27.79 -0.00
	l0.00 -0.23c-5.21 -6.77 -22.58 -6.77 -27.79 0.23"/>
</g>
</svg>
