<?xml version="1.0" standalone="no"?>
<!DOCTYPE svg PUBLIC "-//W3C//DTD SVG 1.1//EN"
	"http://www.w3.org/Graphics/SVG/1.1/DTD/svg11.dtd">
<svg xmlns="http://www.w3.org/2000/svg" version="1.1"
	xmlns:xlink="http://www.w3.org/1999/xlink"
	xml:space='preserve' color="black"
	width="7.38in" height="1.36in" viewBox="0 0 531 98">
<title>7062.abc (7062) tune 1</title>
<!-- Creator: abcm2ps-7.8.14 -->
<!-- CreationDate: Mar 13, 2016 18:54 -->
<!-- CommandLine: -qxg 7062.abc -O ../svgs/7062.svg -->
<g transform="scale(0.750)" stroke-width="0.70" font-family="Times" font-size="20.00">
<text x="354.13" y="21.67" text-anchor="middle">7062.  Salome, Op. 54, Dance of the Seven Veils, 4th. Theme</text>
</g>
<g transform="scale(0.750)" stroke-width="0.70" font-family="Times" font-size="14.00" font-style="italic">
<text x="694.93" y="45.34" text-anchor="end">Richard Strauss</text>
</g>
<g transform="scale(0.525)" stroke-width="0.70" font-family="Times" font-size="14.00" font-style="italic">
<defs>
<ellipse id="hd" rx="4.1" ry="2.9"
	transform="rotate(-20)" fill="currentColor"/>
</defs>
<use x="131.33" y="94.16" xlink:href="#hd"/>
<path d="M134.83 94.16v-20.00" stroke="currentColor" fill="none"/>
</g>
<g transform="scale(0.750)" stroke-width="0.70" font-family="Times" font-size="15.00" font-weight="bold">
<text x="99.63" y="68.01">= 120</text>
<path stroke="currentColor" fill="none"
	d="M157.23 108.01v-24.00"/>
<path stroke="currentColor" fill="none"
	d="M273.63 108.01v-24.00"/>
<path stroke="currentColor" fill="none"
	d="M352.53 108.01v-24.00"/>
<path stroke="currentColor" fill="none"
	d="M468.93 108.01v-24.00"/>
<path stroke="currentColor" fill="none"
	d="M551.23 108.01v-24.00"/>
<path stroke="currentColor" fill="none"
	d="M646.93 108.01v-24.00"/>
<path stroke="currentColor" fill="none"
	d="M694.93 108.01v-24.00"/>
<path stroke="currentColor" fill="none"
	d="M13.33 108.01h681.60m-681.60 -6h681.60m-681.60 -6h681.60m-681.60 -6h681.60m-681.60 -6h681.60"/>
<text font-family="serif" font-size="12" font-style="italic" font-weight="normal"
	x="616.73" y="118.21" text-anchor="middle">3</text>
<defs>
<path id="utclef" fill="currentColor" d="m-50 -90
	c-72 -41 -72 -158 52 -188
	c150 -10 220 188 90 256
	c-114 52 -275 0 -293 -136
	c-15 -181 93 -229 220 -334
	c88 -87 79 -133 62 -210
	c-51 33 -94 105 -89 186
	c17 267 36 374 49 574
	c6 96 -19 134 -77 135
	c-80 1 -126 -93 -61 -133
	c85 -41 133 101 31 105
	c23 17 92 37 90 -92
	c-10 -223 -39 -342 -50 -617
	c0 -90 0 -162 96 -232
	c56 72 63 230 22 289
	c-74 106 -257 168 -255 316
	c9 153 148 185 252 133
	c86 -65 29 -192 -80 -176
	c-71 12 -105 67 -59 124"/>
<use id="tclef" transform="scale(0.045)"
	xlink:href="#utclef"/>
</defs>
<use x="25.33" y="108.01" xlink:href="#tclef"/>
<defs>
<path id="usharp" fill="currentColor" d="
	m136 -702
	v890
	h32
	v-890
	m128 840
	h32
	v-888
	h-32
	m-232 286
	v116
	l338 -96
	v-116
	m-338 442
	v116
	l338 -98
	v-114"/>
<use id="sh0" transform="translate(-4,5) scale(0.018)"
	xlink:href="#usharp"/>
</defs>
<use x="40.33" y="84.01" xlink:href="#sh0"/>
<use x="45.83" y="93.01" xlink:href="#sh0"/>
<use x="51.33" y="81.01" xlink:href="#sh0"/>
<use x="56.83" y="90.01" xlink:href="#sh0"/>
<g font-family="serif" font-size="16" font-weight="bold" font-style="normal"
	transform="translate(72.83,108.01) scale(1.2,1)">
	<text y="-1" text-anchor="middle">4</text>
	<text y="-13" text-anchor="middle">3</text>
</g>
<defs>
<path id="Hd" fill="currentColor" d="m3 -1.6
	c-1 -1.8 -7 1.4 -6 3.2
	c1 1.8 7 -1.4 6 -3.2
	m0.5 -0.3
	c2 3.8 -5 7.6 -7 3.8
	c-2 -3.8 5 -7.6 7 -3.8"/>
</defs>
<use x="91.33" y="93.01" xlink:href="#Hd"/>
<path d="M87.83 93.01v20.00" stroke="currentColor" fill="none"/>
<path fill="currentColor"
	d="M127.33 76.31l18.00 2.30v3.20l-18.00 -2.30"/>
<use x="124.23" y="96.01" xlink:href="#hd"/>
<path d="M127.73 96.01v-18.60" stroke="currentColor" fill="none"/>
<use x="141.53" y="99.01" xlink:href="#hd"/>
<path d="M145.03 99.01v-19.40" stroke="currentColor" fill="none"/>
<use x="170.23" y="93.01" xlink:href="#Hd"/>
<path d="M166.73 93.01v20.00" stroke="currentColor" fill="none"/>
<path fill="currentColor"
	d="M204.63 115.01l54.20 0.00v-3.20l-54.20 -0.00"/>
<path fill="currentColor"
	d="M204.93 110.01l53.50 0.00v-3.20l-53.50 -0.00"/>
<path fill="currentColor"
	d="M233.93 105.01l6.00 0.00v-3.20l-6.00 -0.00"/>
<use x="208.43" y="93.01" xlink:href="#hd"/>
<circle fill="currentColor" cx="216.43" cy="93.01" r="1.2"/>
<path d="M204.93 93.01v21.00" stroke="currentColor" fill="none"/>
<use x="224.93" y="90.01" xlink:href="#hd"/>
<path d="M221.43 90.01v24.00" stroke="currentColor" fill="none"/>
<use x="243.43" y="87.01" xlink:href="#hd"/>
<path d="M239.93 87.01v27.00" stroke="currentColor" fill="none"/>
<use x="236.43" y="90.01" xlink:href="#hd"/>
<use x="261.93" y="87.01" xlink:href="#hd"/>
<path d="M258.43 87.01v27.00" stroke="currentColor" fill="none"/>
<use x="286.63" y="93.01" xlink:href="#Hd"/>
<path d="M283.13 93.01v20.00" stroke="currentColor" fill="none"/>
<path fill="currentColor"
	d="M322.63 76.31l18.00 2.30v3.20l-18.00 -2.30"/>
<use x="319.53" y="96.01" xlink:href="#hd"/>
<path d="M323.03 96.01v-18.60" stroke="currentColor" fill="none"/>
<use x="336.83" y="99.01" xlink:href="#hd"/>
<path d="M340.33 99.01v-19.40" stroke="currentColor" fill="none"/>
<use x="365.53" y="93.01" xlink:href="#Hd"/>
<path d="M362.03 93.01v20.00" stroke="currentColor" fill="none"/>
<path fill="currentColor"
	d="M399.93 115.21l54.20 -4.00v-3.20l-54.20 4.00"/>
<path fill="currentColor"
	d="M400.23 110.21l53.50 -4.00v-3.20l-53.50 4.00"/>
<path fill="currentColor"
	d="M429.23 103.01l6.00 -0.40v-3.20l-6.00 0.40"/>
<use x="403.73" y="93.01" xlink:href="#hd"/>
<circle fill="currentColor" cx="411.73" cy="93.01" r="1.2"/>
<path d="M400.23 93.01v21.20" stroke="currentColor" fill="none"/>
<use x="420.23" y="90.01" xlink:href="#hd"/>
<path d="M416.73 90.01v23.00" stroke="currentColor" fill="none"/>
<use x="438.73" y="84.01" xlink:href="#hd"/>
<path d="M435.23 84.01v27.60" stroke="currentColor" fill="none"/>
<use x="438.73" y="90.01" xlink:href="#hd"/>
<use x="457.23" y="84.01" xlink:href="#hd"/>
<path d="M453.73 84.01v26.20" stroke="currentColor" fill="none"/>
<use x="481.93" y="87.01" xlink:href="#Hd"/>
<path d="M478.43 87.01v20.00" stroke="currentColor" fill="none"/>
<path fill="currentColor"
	d="M514.33 110.31l18.00 2.30v-3.20l-18.00 -2.30"/>
<use x="518.23" y="90.01" xlink:href="#hd"/>
<path d="M514.73 90.01v19.40" stroke="currentColor" fill="none"/>
<use x="535.53" y="93.01" xlink:href="#hd"/>
<path d="M532.03 93.01v18.60" stroke="currentColor" fill="none"/>
<use x="564.23" y="87.01" xlink:href="#Hd"/>
<path d="M560.73 87.01v20.00" stroke="currentColor" fill="none"/>
<path fill="currentColor"
	d="M598.53 103.31l32.60 -4.40v-3.20l-32.60 4.40"/>
<use x="602.33" y="84.01" xlink:href="#hd"/>
<defs>
<path id="unat" fill="currentColor" d="
	m96 -750
	h-32
	v716
	l32 -8
	l182 -54
	v282
	h32
	v-706
	l-34 10
	l-180 50
	v-290
	m0 592
	v-190
	l182 -52
	v188"/>
<use id="nt0" transform="translate(-3,5) scale(0.018)"
	xlink:href="#unat"/>
</defs>
<use x="593.33" y="84.01" xlink:href="#nt0"/>
<path d="M598.83 84.01v18.30" stroke="currentColor" fill="none"/>
<use x="620.33" y="81.01" xlink:href="#hd"/>
<use x="611.33" y="81.01" xlink:href="#nt0"/>
<path d="M616.83 81.01v18.80" stroke="currentColor" fill="none"/>
<defs>
<path id="hl" stroke="currentColor" d="m-6 0h12"/>
</defs>
<use x="634.33" y="78.01" xlink:href="#hl"/>
<use x="634.33" y="78.01" xlink:href="#hd"/>
<path d="M630.83 78.01v19.90" stroke="currentColor" fill="none"/>
<use x="659.93" y="90.01" xlink:href="#Hd"/>
<circle fill="currentColor" cx="668.93" cy="87.01" r="1.2"/>
<path d="M656.43 90.01v20.00" stroke="currentColor" fill="none"/>
<path fill="currentColor"
	d="M173.73 91.01c4.92 -5.06 26.34 -5.06 31.26 -0.00
	l0.00 -0.23c-5.86 -6.83 -25.40 -6.83 -31.26 0.23"/>
<path fill="currentColor"
	d="M224.93 90.01c2.25 -4.76 12.04 -4.76 14.29 -0.00
	l0.00 -0.21c-2.68 -6.54 -11.61 -6.54 -14.29 0.21"/>
<path fill="currentColor"
	d="M243.43 85.01c2.91 -4.83 15.59 -4.83 18.50 -0.00
	l0.00 -0.22c-3.47 -6.61 -15.03 -6.61 -18.50 0.22"/>
<path fill="currentColor"
	d="M369.03 91.01c4.92 -5.06 26.34 -5.06 31.26 -0.00
	l0.00 -0.23c-5.86 -6.83 -25.40 -6.83 -31.26 0.23"/>
<path fill="currentColor"
	d="M420.23 90.01c2.91 -4.83 15.59 -4.83 18.50 -0.00
	l0.00 -0.22c-3.47 -6.61 -15.03 -6.61 -18.50 0.22"/>
<path fill="currentColor"
	d="M438.73 84.01c2.91 -4.83 15.59 -4.83 18.50 -0.00
	l0.00 -0.22c-3.47 -6.61 -15.03 -6.61 -18.50 0.22"/>
</g>
</svg>
