<?xml version="1.0" standalone="no"?>
<!DOCTYPE svg PUBLIC "-//W3C//DTD SVG 1.1//EN"
	"http://www.w3.org/Graphics/SVG/1.1/DTD/svg11.dtd">
<svg xmlns="http://www.w3.org/2000/svg" version="1.1"
	xmlns:xlink="http://www.w3.org/1999/xlink"
	xml:space='preserve' color="black"
	width="7.38in" height="1.34in" viewBox="0 0 531 97">
<title>7080.abc (7080) tune 1</title>
<!-- Creator: abcm2ps-7.8.14 -->
<!-- CreationDate: Mar 13, 2016 18:54 -->
<!-- CommandLine: -qxg 7080.abc -O ../svgs/7080.svg -->
<g transform="scale(0.750)" stroke-width="0.70" font-family="Times" font-size="20.00">
<text x="354.13" y="21.67" text-anchor="middle">7080.  Till Eulenspiegels Lustige Streiche, Op. 28, 2nd. Theme</text>
</g>
<g transform="scale(0.750)" stroke-width="0.70" font-family="Times" font-size="14.00" font-style="italic">
<text x="694.93" y="45.34" text-anchor="end">Richard Strauss</text>
</g>
<g transform="scale(0.525)" stroke-width="0.70" font-family="Times" font-size="14.00" font-style="italic">
<defs>
<ellipse id="hd" rx="4.1" ry="2.9"
	transform="rotate(-20)" fill="currentColor"/>
</defs>
<use x="107.04" y="94.16" xlink:href="#hd"/>
<path d="M110.54 94.16v-20.00" stroke="currentColor" fill="none"/>
</g>
<g transform="scale(0.750)" stroke-width="0.70" font-family="Times" font-size="15.00" font-weight="bold">
<text x="82.63" y="68.01">= 120</text>
<path stroke="currentColor" fill="none"
	d="M183.23 106.01v-24.00"/>
<path stroke="currentColor" fill="none"
	d="M320.73 106.01v-24.00"/>
<path stroke="currentColor" fill="none"
	d="M448.53 106.01v-24.00"/>
<path stroke="currentColor" fill="none"
	d="M565.63 106.01v-24.00"/>
<path stroke="currentColor" fill="none"
	d="M694.93 106.01v-24.00"/>
<path stroke="currentColor" fill="none"
	d="M13.33 106.01h681.60m-681.60 -6h681.60m-681.60 -6h681.60m-681.60 -6h681.60m-681.60 -6h681.60"/>
<defs>
<path id="utclef" fill="currentColor" d="m-50 -90
	c-72 -41 -72 -158 52 -188
	c150 -10 220 188 90 256
	c-114 52 -275 0 -293 -136
	c-15 -181 93 -229 220 -334
	c88 -87 79 -133 62 -210
	c-51 33 -94 105 -89 186
	c17 267 36 374 49 574
	c6 96 -19 134 -77 135
	c-80 1 -126 -93 -61 -133
	c85 -41 133 101 31 105
	c23 17 92 37 90 -92
	c-10 -223 -39 -342 -50 -617
	c0 -90 0 -162 96 -232
	c56 72 63 230 22 289
	c-74 106 -257 168 -255 316
	c9 153 148 185 252 133
	c86 -65 29 -192 -80 -176
	c-71 12 -105 67 -59 124"/>
<use id="tclef" transform="scale(0.045)"
	xlink:href="#utclef"/>
</defs>
<use x="25.33" y="106.01" xlink:href="#tclef"/>
<defs>
<path id="uflat" fill="currentColor" d="
	m100 -746
	h32
	v734
	l-32 4
	m32 -332
	c46 -72 152 -90 208 -20
	c100 110 -120 326 -208 348
	m0 -28
	c54 0 200 -206 130 -290
	c-50 -60 -130 -4 -130 34"/>
<use id="ft0" transform="translate(-3.5,3.5) scale(0.018)"
	xlink:href="#uflat"/>
</defs>
<use x="40.33" y="94.01" xlink:href="#ft0"/>
<g font-family="serif" font-size="16" font-weight="bold" font-style="normal"
	transform="translate(56.33,106.01) scale(1.2,1)">
	<text y="-1" text-anchor="middle">8</text>
	<text y="-13" text-anchor="middle">6</text>
</g>
<defs>
<path id="r8e" fill="currentColor" d="m 0 0
	c-1.5 1.5 -2.4 2 -3.6 2
	c2.4 -2.8 -2.8 -4 -2.8 -1.2
	c0 2.7 4.3 2.4 5.9 0.6"/>
<g id="r8">
	<path d="m3.3 -4l-3.4 9.6" stroke="currentColor" fill="none"/>
	<use x="3.4" y="-4" xlink:href="#r8e"/>
</g>
</defs>
<use x="74.33" y="94.01" xlink:href="#r8"/>
<path fill="currentColor"
	d="M91.93 110.31l20.10 -4.80v-3.20l-20.10 4.80"/>
<use x="95.83" y="91.01" xlink:href="#hd"/>
<path d="M92.33 91.01v18.20" stroke="currentColor" fill="none"/>
<use x="115.23" y="82.01" xlink:href="#hd"/>
<path d="M111.73 82.01v22.50" stroke="currentColor" fill="none"/>
<use x="136.73" y="79.01" xlink:href="#hd"/>
<path d="M133.23 79.01v20.00" stroke="currentColor" fill="none"/>
<path fill="currentColor"
	d="M133.23 99.01c0.6 -5.6 9.6 -9 5.6 -18.4
	c1.6 6 -1.3 11.6 -5.6 12.8
"/>
<defs>
<path id="hl" stroke="currentColor" d="m-6 0h12"/>
</defs>
<use x="159.03" y="76.01" xlink:href="#hl"/>
<use x="159.03" y="76.01" xlink:href="#hd"/>
<use x="150.03" y="76.01" xlink:href="#ft0"/>
<path d="M155.53 76.01v20.00" stroke="currentColor" fill="none"/>
<path fill="currentColor"
	d="M197.83 104.01l40.30 6.30v-3.20l-40.30 -6.30"/>
<use x="201.73" y="76.01" xlink:href="#hl"/>
<use x="201.73" y="76.01" xlink:href="#hd"/>
<use x="192.73" y="76.01" xlink:href="#ft0"/>
<path d="M198.23 76.01v27.00" stroke="currentColor" fill="none"/>
<use x="221.93" y="76.01" xlink:href="#hl"/>
<use x="221.93" y="76.01" xlink:href="#hd"/>
<defs>
<path id="unat" fill="currentColor" d="
	m96 -750
	h-32
	v716
	l32 -8
	l182 -54
	v282
	h32
	v-706
	l-34 10
	l-180 50
	v-290
	m0 592
	v-190
	l182 -52
	v188"/>
<use id="nt0" transform="translate(-3,5) scale(0.018)"
	xlink:href="#unat"/>
</defs>
<use x="212.93" y="76.01" xlink:href="#nt0"/>
<path d="M218.43 76.01v30.20" stroke="currentColor" fill="none"/>
<use x="241.33" y="91.01" xlink:href="#hd"/>
<path d="M237.83 91.01v18.20" stroke="currentColor" fill="none"/>
<path fill="currentColor"
	d="M259.03 101.21l41.10 -3.10v-3.20l-41.10 3.10"/>
<use x="262.83" y="82.01" xlink:href="#hd"/>
<path d="M259.33 82.01v18.20" stroke="currentColor" fill="none"/>
<use x="283.03" y="76.01" xlink:href="#hl"/>
<use x="283.03" y="76.01" xlink:href="#hd"/>
<use x="274.03" y="76.01" xlink:href="#ft0"/>
<path d="M279.53 76.01v22.70" stroke="currentColor" fill="none"/>
<use x="303.33" y="76.01" xlink:href="#hl"/>
<use x="303.33" y="76.01" xlink:href="#hd"/>
<use x="294.33" y="76.01" xlink:href="#ft0"/>
<path d="M299.83 76.01v21.10" stroke="currentColor" fill="none"/>
<use x="339.23" y="76.01" xlink:href="#hl"/>
<use x="339.23" y="76.01" xlink:href="#hd"/>
<use x="330.23" y="76.01" xlink:href="#ft0"/>
<path d="M335.73 76.01v20.00" stroke="currentColor" fill="none"/>
<use x="370.03" y="76.01" xlink:href="#hl"/>
<use x="370.03" y="76.01" xlink:href="#hd"/>
<use x="361.03" y="76.01" xlink:href="#nt0"/>
<path d="M366.53 76.01v20.00" stroke="currentColor" fill="none"/>
<path fill="currentColor"
	d="M366.53 96.01c0.6 -5.6 9.6 -9 5.6 -18.4
	c1.6 6 -1.3 11.6 -5.6 12.8
"/>
<path fill="currentColor"
	d="M387.63 110.31l40.30 -6.30v-3.20l-40.30 6.30"/>
<use x="391.53" y="91.01" xlink:href="#hd"/>
<path d="M388.03 91.01v18.20" stroke="currentColor" fill="none"/>
<use x="410.93" y="82.01" xlink:href="#hd"/>
<path d="M407.43 82.01v24.20" stroke="currentColor" fill="none"/>
<use x="431.13" y="76.01" xlink:href="#hl"/>
<use x="431.13" y="76.01" xlink:href="#hd"/>
<use x="422.13" y="76.01" xlink:href="#ft0"/>
<path d="M427.63 76.01v27.00" stroke="currentColor" fill="none"/>
<use x="467.03" y="76.01" xlink:href="#hl"/>
<use x="467.03" y="76.01" xlink:href="#hd"/>
<use x="458.03" y="76.01" xlink:href="#ft0"/>
<path d="M463.53 76.01v20.00" stroke="currentColor" fill="none"/>
<use x="497.83" y="76.01" xlink:href="#hl"/>
<use x="497.83" y="76.01" xlink:href="#hd"/>
<use x="488.83" y="76.01" xlink:href="#nt0"/>
<path d="M494.33 76.01v20.00" stroke="currentColor" fill="none"/>
<path fill="currentColor"
	d="M524.23 94.21l20.90 0.00v-3.20l-20.90 -0.00"/>
<use x="528.03" y="76.01" xlink:href="#hl"/>
<use x="528.03" y="73.01" xlink:href="#hd"/>
<path d="M524.53 73.01v20.20" stroke="currentColor" fill="none"/>
<use x="548.23" y="76.01" xlink:href="#hl"/>
<use x="548.23" y="73.01" xlink:href="#hd"/>
<use x="539.23" y="73.01" xlink:href="#nt0"/>
<path d="M544.73 73.01v20.20" stroke="currentColor" fill="none"/>
<path fill="currentColor"
	d="M574.33 94.21l39.80 0.00v-3.20l-39.80 -0.00"/>
<use x="578.13" y="76.01" xlink:href="#hl"/>
<use x="578.13" y="70.01" xlink:href="#hl"/>
<use x="578.13" y="67.01" xlink:href="#hd"/>
<path d="M574.63 67.01v26.20" stroke="currentColor" fill="none"/>
<use x="597.73" y="76.01" xlink:href="#hl"/>
<use x="597.73" y="70.01" xlink:href="#hl"/>
<use x="597.73" y="70.01" xlink:href="#hd"/>
<path d="M594.23 70.01v23.20" stroke="currentColor" fill="none"/>
<use x="617.23" y="76.01" xlink:href="#hl"/>
<use x="617.23" y="76.01" xlink:href="#hd"/>
<path d="M613.73 76.01v17.20" stroke="currentColor" fill="none"/>
<path fill="currentColor"
	d="M634.83 110.01l39.50 6.30v-3.20l-39.50 -6.30"/>
<use x="638.73" y="82.01" xlink:href="#hd"/>
<path d="M635.23 82.01v27.10" stroke="currentColor" fill="none"/>
<use x="658.13" y="91.01" xlink:href="#hd"/>
<path d="M654.63 91.01v21.10" stroke="currentColor" fill="none"/>
<use x="677.53" y="97.01" xlink:href="#hd"/>
<path d="M674.03 97.01v18.20" stroke="currentColor" fill="none"/>
<path fill="currentColor"
	d="M162.53 76.01c5.63 -5.14 30.10 -5.14 35.72 -0.00
	l0.00 -0.24c-6.70 -6.91 -29.02 -6.91 -35.72 0.24"/>
<path fill="currentColor"
	d="M306.83 76.01c4.55 -5.02 24.34 -5.02 28.89 -0.00
	l0.00 -0.23c-5.42 -6.79 -23.47 -6.79 -28.89 0.23"/>
</g>
</svg>
