<?xml version="1.0" standalone="no"?>
<!DOCTYPE svg PUBLIC "-//W3C//DTD SVG 1.1//EN"
	"http://www.w3.org/Graphics/SVG/1.1/DTD/svg11.dtd">
<svg xmlns="http://www.w3.org/2000/svg" version="1.1"
	xmlns:xlink="http://www.w3.org/1999/xlink"
	xml:space='preserve' color="black"
	width="7.38in" height="1.43in" viewBox="0 0 531 103">
<title>7090.abc (7090) tune 1</title>
<!-- Creator: abcm2ps-7.8.14 -->
<!-- CreationDate: Mar 13, 2016 18:54 -->
<!-- CommandLine: -qxg 7090.abc -O ../svgs/7090.svg -->
<g transform="scale(0.750)" stroke-width="0.70" font-family="Times" font-size="20.00">
<text x="354.13" y="21.67" text-anchor="middle">7090.  Tod Und Verklarung, Op. 24, 5th. Theme</text>
</g>
<g transform="scale(0.750)" stroke-width="0.70" font-family="Times" font-size="14.00" font-style="italic">
<text x="694.93" y="45.34" text-anchor="end">Richard Strauss</text>
</g>
<g transform="scale(0.525)" stroke-width="0.70" font-family="Times" font-size="14.00" font-style="italic">
<defs>
<ellipse id="hd" rx="4.1" ry="2.9"
	transform="rotate(-20)" fill="currentColor"/>
</defs>
<use x="97.76" y="94.16" xlink:href="#hd"/>
<path d="M101.26 94.16v-20.00" stroke="currentColor" fill="none"/>
</g>
<g transform="scale(0.750)" stroke-width="0.70" font-family="Times" font-size="15.00" font-weight="bold">
<text x="76.13" y="68.01">= 120</text>
<path stroke="currentColor" fill="none"
	d="M219.83 114.01v-24.00"/>
<path stroke="currentColor" fill="none"
	d="M325.53 114.01v-24.00"/>
<path stroke="currentColor" fill="none"
	d="M13.33 114.01h406.30m-406.30 -6h406.30m-406.30 -6h406.30m-406.30 -6h406.30m-406.30 -6h406.30"/>
<defs>
<path id="utclef" fill="currentColor" d="m-50 -90
	c-72 -41 -72 -158 52 -188
	c150 -10 220 188 90 256
	c-114 52 -275 0 -293 -136
	c-15 -181 93 -229 220 -334
	c88 -87 79 -133 62 -210
	c-51 33 -94 105 -89 186
	c17 267 36 374 49 574
	c6 96 -19 134 -77 135
	c-80 1 -126 -93 -61 -133
	c85 -41 133 101 31 105
	c23 17 92 37 90 -92
	c-10 -223 -39 -342 -50 -617
	c0 -90 0 -162 96 -232
	c56 72 63 230 22 289
	c-74 106 -257 168 -255 316
	c9 153 148 185 252 133
	c86 -65 29 -192 -80 -176
	c-71 12 -105 67 -59 124"/>
<use id="tclef" transform="scale(0.045)"
	xlink:href="#utclef"/>
</defs>
<use x="25.33" y="114.01" xlink:href="#tclef"/>
<g font-family="serif" font-size="16" font-weight="bold" font-style="normal"
	transform="translate(43.83,114.01) scale(1.2,1)">
	<text y="-1" text-anchor="middle">4</text>
	<text y="-13" text-anchor="middle">4</text>
</g>
<use x="67.83" y="96.01" xlink:href="#hd"/>
<defs>
<path id="usharp" fill="currentColor" d="
	m136 -702
	v890
	h32
	v-890
	m128 840
	h32
	v-888
	h-32
	m-232 286
	v116
	l338 -96
	v-116
	m-338 442
	v116
	l338 -98
	v-114"/>
<use id="sh0" transform="translate(-4,5) scale(0.018)"
	xlink:href="#usharp"/>
</defs>
<use x="58.83" y="96.01" xlink:href="#sh0"/>
<path d="M64.33 96.01v20.00" stroke="currentColor" fill="none"/>
<use x="107.83" y="87.01" xlink:href="#hd"/>
<use x="98.83" y="87.01" xlink:href="#sh0"/>
<path d="M104.33 87.01v20.00" stroke="currentColor" fill="none"/>
<defs>
<path id="hl" stroke="currentColor" d="m-6 0h12"/>
</defs>
<use x="147.83" y="84.01" xlink:href="#hl"/>
<use x="147.83" y="84.01" xlink:href="#hd"/>
<use x="138.83" y="84.01" xlink:href="#sh0"/>
<path d="M144.33 84.01v20.00" stroke="currentColor" fill="none"/>
<use x="187.83" y="84.01" xlink:href="#hl"/>
<use x="187.83" y="78.01" xlink:href="#hl"/>
<use x="187.83" y="78.01" xlink:href="#hd"/>
<path d="M184.33 78.01v24.00" stroke="currentColor" fill="none"/>
<use x="233.93" y="84.01" xlink:href="#hl"/>
<use x="233.93" y="78.01" xlink:href="#hl"/>
<use x="233.93" y="72.01" xlink:href="#hl"/>
<use x="233.93" y="66.01" xlink:href="#hl"/>
<use x="233.93" y="60.01" xlink:href="#hl"/>
<use x="233.93" y="57.01" xlink:href="#hd"/>
<path d="M230.43 57.01v45.00" stroke="currentColor" fill="none"/>
<use x="273.93" y="84.01" xlink:href="#hl"/>
<use x="273.93" y="78.01" xlink:href="#hl"/>
<use x="273.93" y="72.01" xlink:href="#hl"/>
<use x="273.93" y="66.01" xlink:href="#hl"/>
<defs>
<path id="Hd" fill="currentColor" d="m3 -1.6
	c-1 -1.8 -7 1.4 -6 3.2
	c1 1.8 7 -1.4 6 -3.2
	m0.5 -0.3
	c2 3.8 -5 7.6 -7 3.8
	c-2 -3.8 5 -7.6 7 -3.8"/>
</defs>
<use x="273.93" y="63.01" xlink:href="#Hd"/>
<circle fill="currentColor" cx="282.93" cy="63.01" r="1.2"/>
<use x="263.93" y="63.01" xlink:href="#sh0"/>
<path d="M270.43 63.01v39.00" stroke="currentColor" fill="none"/>
<use x="339.63" y="84.01" xlink:href="#hl"/>
<use x="339.63" y="78.01" xlink:href="#hl"/>
<use x="339.63" y="72.01" xlink:href="#hl"/>
<use x="339.63" y="66.01" xlink:href="#hl"/>
<use x="339.63" y="60.01" xlink:href="#hl"/>
<use x="339.63" y="57.01" xlink:href="#hd"/>
<path d="M336.13 57.01v45.00" stroke="currentColor" fill="none"/>
<use x="379.63" y="84.01" xlink:href="#hl"/>
<use x="379.63" y="78.01" xlink:href="#hl"/>
<use x="379.63" y="72.01" xlink:href="#hl"/>
<use x="379.63" y="66.01" xlink:href="#hl"/>
<use x="379.63" y="63.01" xlink:href="#hd"/>
<use x="370.63" y="63.01" xlink:href="#sh0"/>
<path d="M376.13 63.01v39.00" stroke="currentColor" fill="none"/>
</g>
</svg>
