<?xml version="1.0" standalone="no"?>
<!DOCTYPE svg PUBLIC "-//W3C//DTD SVG 1.1//EN"
	"http://www.w3.org/Graphics/SVG/1.1/DTD/svg11.dtd">
<svg xmlns="http://www.w3.org/2000/svg" version="1.1"
	xmlns:xlink="http://www.w3.org/1999/xlink"
	xml:space='preserve' color="black"
	width="7.38in" height="1.48in" viewBox="0 0 531 107">
<title>7110.abc (7110) tune 1</title>
<!-- Creator: abcm2ps-7.8.14 -->
<!-- CreationDate: Mar 13, 2016 18:54 -->
<!-- CommandLine: -qxg 7110.abc -O ../svgs/7110.svg -->
<g transform="scale(0.750)" stroke-width="0.70" font-family="Times" font-size="20.00">
<text x="354.13" y="21.67" text-anchor="middle">7110.  Le Baiser de la Fee, 3rd. Mvt. - Au Moulin, 1st. Theme</text>
</g>
<g transform="scale(0.750)" stroke-width="0.70" font-family="Times" font-size="14.00" font-style="italic">
<text x="694.93" y="45.34" text-anchor="end">Igor Stravinsky</text>
</g>
<g transform="scale(0.525)" stroke-width="0.70" font-family="Times" font-size="14.00" font-style="italic">
<defs>
<ellipse id="hd" rx="4.1" ry="2.9"
	transform="rotate(-20)" fill="currentColor"/>
</defs>
<use x="123.47" y="94.16" xlink:href="#hd"/>
<path d="M126.97 94.16v-20.00" stroke="currentColor" fill="none"/>
</g>
<g transform="scale(0.750)" stroke-width="0.70" font-family="Times" font-size="15.00" font-weight="bold">
<text x="94.13" y="68.01">= 120</text>
<path stroke="currentColor" fill="none"
	d="M161.43 119.01v-24.00"/>
<path stroke="currentColor" fill="none"
	d="M266.53 119.01v-24.00"/>
<path stroke="currentColor" fill="none"
	d="M351.83 119.01v-24.00"/>
<path stroke="currentColor" fill="none"
	d="M440.33 119.01v-24.00"/>
<path stroke="currentColor" fill="none"
	d="M528.93 119.01v-24.00"/>
<path stroke="currentColor" fill="none"
	d="M634.03 119.01v-24.00"/>
<path stroke="currentColor" fill="none"
	d="M13.33 119.01h681.60m-681.60 -6h681.60m-681.60 -6h681.60m-681.60 -6h681.60m-681.60 -6h681.60"/>
<defs>
<path id="utclef" fill="currentColor" d="m-50 -90
	c-72 -41 -72 -158 52 -188
	c150 -10 220 188 90 256
	c-114 52 -275 0 -293 -136
	c-15 -181 93 -229 220 -334
	c88 -87 79 -133 62 -210
	c-51 33 -94 105 -89 186
	c17 267 36 374 49 574
	c6 96 -19 134 -77 135
	c-80 1 -126 -93 -61 -133
	c85 -41 133 101 31 105
	c23 17 92 37 90 -92
	c-10 -223 -39 -342 -50 -617
	c0 -90 0 -162 96 -232
	c56 72 63 230 22 289
	c-74 106 -257 168 -255 316
	c9 153 148 185 252 133
	c86 -65 29 -192 -80 -176
	c-71 12 -105 67 -59 124"/>
<use id="tclef" transform="scale(0.045)"
	xlink:href="#utclef"/>
</defs>
<use x="25.33" y="119.01" xlink:href="#tclef"/>
<defs>
<path id="uflat" fill="currentColor" d="
	m100 -746
	h32
	v734
	l-32 4
	m32 -332
	c46 -72 152 -90 208 -20
	c100 110 -120 326 -208 348
	m0 -28
	c54 0 200 -206 130 -290
	c-50 -60 -130 -4 -130 34"/>
<use id="ft0" transform="translate(-3.5,3.5) scale(0.018)"
	xlink:href="#uflat"/>
</defs>
<use x="40.33" y="107.01" xlink:href="#ft0"/>
<use x="45.83" y="98.01" xlink:href="#ft0"/>
<use x="51.33" y="110.01" xlink:href="#ft0"/>
<g font-family="serif" font-size="16" font-weight="bold" font-style="normal"
	transform="translate(67.33,119.01) scale(1.2,1)">
	<text y="-1" text-anchor="middle">4</text>
	<text y="-13" text-anchor="middle">3</text>
</g>
<defs>
<path id="hl" stroke="currentColor" d="m-6 0h12"/>
</defs>
<use x="85.83" y="89.01" xlink:href="#hl"/>
<defs>
<path id="Hd" fill="currentColor" d="m3 -1.6
	c-1 -1.8 -7 1.4 -6 3.2
	c1 1.8 7 -1.4 6 -3.2
	m0.5 -0.3
	c2 3.8 -5 7.6 -7 3.8
	c-2 -3.8 5 -7.6 7 -3.8"/>
</defs>
<use x="85.83" y="86.01" xlink:href="#Hd"/>
<path d="M82.33 86.01v21.00" stroke="currentColor" fill="none"/>
<use x="134.03" y="89.01" xlink:href="#hl"/>
<use x="134.03" y="83.01" xlink:href="#hl"/>
<use x="134.03" y="83.01" xlink:href="#hd"/>
<path d="M130.53 83.01v24.00" stroke="currentColor" fill="none"/>
<use x="173.93" y="89.01" xlink:href="#hl"/>
<use x="173.93" y="83.01" xlink:href="#hl"/>
<use x="173.93" y="83.01" xlink:href="#hd"/>
<path d="M170.43 83.01v24.00" stroke="currentColor" fill="none"/>
<use x="208.03" y="89.01" xlink:href="#hl"/>
<use x="208.03" y="83.01" xlink:href="#hl"/>
<use x="208.03" y="77.01" xlink:href="#hl"/>
<use x="208.03" y="74.01" xlink:href="#hd"/>
<circle fill="currentColor" cx="216.03" cy="74.01" r="1.2"/>
<path d="M204.53 74.01v33.00" stroke="currentColor" fill="none"/>
<use x="247.13" y="89.01" xlink:href="#hl"/>
<use x="247.13" y="83.01" xlink:href="#hl"/>
<use x="247.13" y="77.01" xlink:href="#hl"/>
<use x="247.13" y="77.01" xlink:href="#hd"/>
<path d="M243.63 77.01v30.00" stroke="currentColor" fill="none"/>
<path fill="currentColor"
	d="M243.63 107.01c0.6 -5.6 9.6 -9 5.6 -18.4
	c1.6 6 -1.3 11.6 -5.6 12.8
"/>
<use x="279.03" y="89.01" xlink:href="#hl"/>
<use x="279.03" y="83.01" xlink:href="#hl"/>
<use x="279.03" y="77.01" xlink:href="#hl"/>
<use x="279.03" y="71.01" xlink:href="#hl"/>
<use x="279.03" y="71.01" xlink:href="#hd"/>
<path d="M275.53 71.01v36.00" stroke="currentColor" fill="none"/>
<use x="313.23" y="89.01" xlink:href="#hl"/>
<use x="313.23" y="83.01" xlink:href="#hl"/>
<use x="313.23" y="83.01" xlink:href="#Hd"/>
<path d="M309.73 83.01v24.00" stroke="currentColor" fill="none"/>
<use x="364.83" y="89.01" xlink:href="#hl"/>
<use x="364.83" y="83.01" xlink:href="#hl"/>
<use x="364.83" y="77.01" xlink:href="#hl"/>
<use x="364.83" y="77.01" xlink:href="#Hd"/>
<path d="M361.33 77.01v30.00" stroke="currentColor" fill="none"/>
<use x="413.03" y="89.01" xlink:href="#hl"/>
<use x="413.03" y="83.01" xlink:href="#hl"/>
<use x="413.03" y="80.01" xlink:href="#hd"/>
<path d="M409.53 80.01v27.00" stroke="currentColor" fill="none"/>
<use x="453.33" y="89.01" xlink:href="#hl"/>
<use x="453.33" y="83.01" xlink:href="#hl"/>
<use x="453.33" y="77.01" xlink:href="#hl"/>
<use x="453.33" y="74.01" xlink:href="#Hd"/>
<path d="M449.83 74.01v33.00" stroke="currentColor" fill="none"/>
<use x="501.53" y="89.01" xlink:href="#hl"/>
<use x="501.53" y="83.01" xlink:href="#hl"/>
<use x="501.53" y="83.01" xlink:href="#hd"/>
<path d="M498.03 83.01v24.00" stroke="currentColor" fill="none"/>
<use x="541.43" y="89.01" xlink:href="#hl"/>
<use x="541.43" y="83.01" xlink:href="#hl"/>
<use x="541.43" y="83.01" xlink:href="#hd"/>
<path d="M537.93 83.01v24.00" stroke="currentColor" fill="none"/>
<use x="575.53" y="89.01" xlink:href="#hl"/>
<use x="575.53" y="83.01" xlink:href="#hl"/>
<use x="575.53" y="77.01" xlink:href="#hl"/>
<use x="575.53" y="74.01" xlink:href="#hd"/>
<circle fill="currentColor" cx="583.53" cy="74.01" r="1.2"/>
<path d="M572.03 74.01v33.00" stroke="currentColor" fill="none"/>
<use x="614.63" y="89.01" xlink:href="#hl"/>
<use x="614.63" y="83.01" xlink:href="#hl"/>
<use x="614.63" y="77.01" xlink:href="#hl"/>
<use x="614.63" y="77.01" xlink:href="#hd"/>
<path d="M611.13 77.01v30.00" stroke="currentColor" fill="none"/>
<path fill="currentColor"
	d="M611.13 107.01c0.6 -5.6 9.6 -9 5.6 -18.4
	c1.6 6 -1.3 11.6 -5.6 12.8
"/>
<use x="647.03" y="89.01" xlink:href="#hl"/>
<use x="647.03" y="83.01" xlink:href="#hl"/>
<use x="647.03" y="77.01" xlink:href="#hl"/>
<use x="647.03" y="71.01" xlink:href="#hl"/>
<use x="647.03" y="71.01" xlink:href="#Hd"/>
<path d="M643.53 71.01v36.00" stroke="currentColor" fill="none"/>
<path fill="currentColor"
	d="M137.53 83.01c5.17 -5.09 27.68 -5.09 32.85 -0.00
	l0.00 -0.23c-6.16 -6.86 -26.69 -6.86 -32.85 0.23"/>
<path fill="currentColor"
	d="M505.03 83.01c5.17 -5.09 27.68 -5.09 32.85 -0.00
	l0.00 -0.23c-6.16 -6.86 -26.69 -6.86 -32.85 0.23"/>
</g>
</svg>
