<?xml version="1.0" standalone="no"?>
<!DOCTYPE svg PUBLIC "-//W3C//DTD SVG 1.1//EN"
	"http://www.w3.org/Graphics/SVG/1.1/DTD/svg11.dtd">
<svg xmlns="http://www.w3.org/2000/svg" version="1.1"
	xmlns:xlink="http://www.w3.org/1999/xlink"
	xml:space='preserve' color="black"
	width="7.38in" height="1.57in" viewBox="0 0 531 113">
<title>7117.abc (7117) tune 1</title>
<!-- Creator: abcm2ps-7.8.14 -->
<!-- CreationDate: Mar 13, 2016 18:54 -->
<!-- CommandLine: -qxg 7117.abc -O ../svgs/7117.svg -->
<g transform="scale(0.750)" stroke-width="0.70" font-family="Times" font-size="20.00">
<text x="354.13" y="21.67" text-anchor="middle">7117.  Le Baiser de la Fee, 3rd. Mvt. - Scene, 2nd. Theme</text>
</g>
<g transform="scale(0.750)" stroke-width="0.70" font-family="Times" font-size="14.00" font-style="italic">
<text x="694.93" y="45.34" text-anchor="end">Igor Stravinsky</text>
</g>
<g transform="scale(0.525)" stroke-width="0.70" font-family="Times" font-size="14.00" font-style="italic">
<defs>
<ellipse id="hd" rx="4.1" ry="2.9"
	transform="rotate(-20)" fill="currentColor"/>
</defs>
<use x="97.76" y="94.16" xlink:href="#hd"/>
<path d="M101.26 94.16v-20.00" stroke="currentColor" fill="none"/>
</g>
<g transform="scale(0.750)" stroke-width="0.70" font-family="Times" font-size="15.00" font-weight="bold">
<text x="76.13" y="68.01">= 120</text>
<path stroke="currentColor" fill="none"
	d="M129.53 128.01v-24.00"/>
<path stroke="currentColor" fill="none"
	d="M230.73 128.01v-24.00"/>
<path stroke="currentColor" fill="none"
	d="M305.43 128.01v-24.00"/>
<path stroke="currentColor" fill="none"
	d="M365.63 128.01v-24.00"/>
<path stroke="currentColor" fill="none"
	d="M419.33 128.01v-24.00"/>
<path stroke="currentColor" fill="none"
	d="M634.83 128.01v-24.00"/>
<path stroke="currentColor" fill="none"
	d="M694.93 128.01v-24.00"/>
<path stroke="currentColor" fill="none"
	d="M13.33 128.01h681.60m-681.60 -6h681.60m-681.60 -6h681.60m-681.60 -6h681.60m-681.60 -6h681.60"/>
<defs>
<path id="utclef" fill="currentColor" d="m-50 -90
	c-72 -41 -72 -158 52 -188
	c150 -10 220 188 90 256
	c-114 52 -275 0 -293 -136
	c-15 -181 93 -229 220 -334
	c88 -87 79 -133 62 -210
	c-51 33 -94 105 -89 186
	c17 267 36 374 49 574
	c6 96 -19 134 -77 135
	c-80 1 -126 -93 -61 -133
	c85 -41 133 101 31 105
	c23 17 92 37 90 -92
	c-10 -223 -39 -342 -50 -617
	c0 -90 0 -162 96 -232
	c56 72 63 230 22 289
	c-74 106 -257 168 -255 316
	c9 153 148 185 252 133
	c86 -65 29 -192 -80 -176
	c-71 12 -105 67 -59 124"/>
<use id="tclef" transform="scale(0.045)"
	xlink:href="#utclef"/>
</defs>
<use x="25.33" y="128.01" xlink:href="#tclef"/>
<g font-family="serif" font-size="16" font-weight="bold" font-style="normal"
	transform="translate(43.83,128.01) scale(1.2,1)">
	<text y="-1" text-anchor="middle">4</text>
	<text y="-13" text-anchor="middle">2</text>
</g>
<defs>
<path id="hl" stroke="currentColor" d="m-6 0h12"/>
</defs>
<use x="67.83" y="98.01" xlink:href="#hl"/>
<use x="67.83" y="92.01" xlink:href="#hl"/>
<use x="67.83" y="86.01" xlink:href="#hl"/>
<use x="67.83" y="80.01" xlink:href="#hl"/>
<use x="67.83" y="80.01" xlink:href="#hd"/>
<circle fill="currentColor" cx="75.83" cy="77.01" r="1.2"/>
<defs>
<path id="usharp" fill="currentColor" d="
	m136 -702
	v890
	h32
	v-890
	m128 840
	h32
	v-888
	h-32
	m-232 286
	v116
	l338 -96
	v-116
	m-338 442
	v116
	l338 -98
	v-114"/>
<use id="sh0" transform="translate(-4,5) scale(0.018)"
	xlink:href="#usharp"/>
</defs>
<use x="58.83" y="80.01" xlink:href="#sh0"/>
<path d="M64.33 80.01v36.00" stroke="currentColor" fill="none"/>
<use x="109.03" y="98.01" xlink:href="#hl"/>
<use x="109.03" y="92.01" xlink:href="#hl"/>
<use x="109.03" y="86.01" xlink:href="#hl"/>
<use x="109.03" y="86.01" xlink:href="#hd"/>
<path d="M105.53 86.01v30.00" stroke="currentColor" fill="none"/>
<path fill="currentColor"
	d="M105.53 116.01c0.6 -5.6 9.6 -9 5.6 -18.4
	c1.6 6 -1.3 11.6 -5.6 12.8
"/>
<use x="148.03" y="98.01" xlink:href="#hl"/>
<use x="148.03" y="92.01" xlink:href="#hl"/>
<use x="148.03" y="86.01" xlink:href="#hl"/>
<use x="148.03" y="80.01" xlink:href="#hl"/>
<use x="148.03" y="80.01" xlink:href="#hd"/>
<use x="139.03" y="80.01" xlink:href="#sh0"/>
<path d="M144.53 80.01v36.00" stroke="currentColor" fill="none"/>
<path fill="currentColor"
	d="M144.53 116.01c0.6 -5.6 9.6 -9 5.6 -18.4
	c1.6 6 -1.3 11.6 -5.6 12.8
"/>
<use x="173.93" y="98.01" xlink:href="#hl"/>
<use x="173.93" y="92.01" xlink:href="#hl"/>
<use x="173.93" y="92.01" xlink:href="#hd"/>
<use x="164.93" y="92.01" xlink:href="#sh0"/>
<path d="M170.43 92.01v24.00" stroke="currentColor" fill="none"/>
<use x="210.23" y="98.01" xlink:href="#hl"/>
<use x="210.23" y="92.01" xlink:href="#hl"/>
<use x="210.23" y="89.01" xlink:href="#hd"/>
<use x="201.23" y="89.01" xlink:href="#sh0"/>
<path d="M206.73 89.01v27.00" stroke="currentColor" fill="none"/>
<path fill="currentColor"
	d="M206.73 116.01c0.6 -5.6 9.6 -9 5.6 -18.4
	c1.6 6 -1.3 11.6 -5.6 12.8
"/>
<use x="243.83" y="98.01" xlink:href="#hl"/>
<use x="243.83" y="92.01" xlink:href="#hl"/>
<use x="243.83" y="86.01" xlink:href="#hl"/>
<use x="243.83" y="86.01" xlink:href="#hd"/>
<circle fill="currentColor" cx="251.83" cy="83.01" r="1.2"/>
<path d="M240.33 86.01v30.00" stroke="currentColor" fill="none"/>
<use x="284.93" y="107.01" xlink:href="#hd"/>
<path d="M281.43 107.01v20.00" stroke="currentColor" fill="none"/>
<path fill="currentColor"
	d="M281.43 127.01c0.6 -5.6 9.6 -9 5.6 -18.4
	c1.6 6 -1.3 11.6 -5.6 12.8
"/>
<use x="324.93" y="98.01" xlink:href="#hl"/>
<use x="324.93" y="92.01" xlink:href="#hl"/>
<defs>
<path id="Hd" fill="currentColor" d="m3 -1.6
	c-1 -1.8 -7 1.4 -6 3.2
	c1 1.8 7 -1.4 6 -3.2
	m0.5 -0.3
	c2 3.8 -5 7.6 -7 3.8
	c-2 -3.8 5 -7.6 7 -3.8"/>
</defs>
<use x="324.93" y="92.01" xlink:href="#Hd"/>
<use x="314.93" y="92.01" xlink:href="#sh0"/>
<path d="M321.43 92.01v24.00" stroke="currentColor" fill="none"/>
<use x="378.73" y="98.01" xlink:href="#hl"/>
<use x="378.73" y="95.01" xlink:href="#Hd"/>
<path d="M375.23 95.01v21.00" stroke="currentColor" fill="none"/>
<path fill="currentColor"
	d="M434.03 116.91l42.20 0.00v-3.20l-42.20 -0.00"/>
<path fill="currentColor"
	d="M434.33 111.91l41.50 0.00v-3.20l-41.50 -0.00"/>
<path fill="currentColor"
	d="M434.33 106.91l41.50 0.00v-3.20l-41.50 -0.00"/>
<use x="437.83" y="98.01" xlink:href="#hl"/>
<use x="437.83" y="92.01" xlink:href="#hl"/>
<use x="437.83" y="92.01" xlink:href="#hd"/>
<defs>
<path id="unat" fill="currentColor" d="
	m96 -750
	h-32
	v716
	l32 -8
	l182 -54
	v282
	h32
	v-706
	l-34 10
	l-180 50
	v-290
	m0 592
	v-190
	l182 -52
	v188"/>
<use id="nt0" transform="translate(-3,5) scale(0.018)"
	xlink:href="#unat"/>
</defs>
<use x="428.83" y="92.01" xlink:href="#nt0"/>
<path d="M434.33 92.01v24.00" stroke="currentColor" fill="none"/>
<use x="455.83" y="98.01" xlink:href="#hl"/>
<use x="455.83" y="92.01" xlink:href="#hl"/>
<use x="455.83" y="89.01" xlink:href="#hd"/>
<use x="446.83" y="89.01" xlink:href="#nt0"/>
<path d="M452.33 89.01v27.00" stroke="currentColor" fill="none"/>
<use x="467.63" y="98.01" xlink:href="#hl"/>
<use x="467.63" y="92.01" xlink:href="#hl"/>
<use x="467.63" y="92.01" xlink:href="#hd"/>
<path d="M464.13 92.01v24.00" stroke="currentColor" fill="none"/>
<use x="479.33" y="98.01" xlink:href="#hl"/>
<use x="479.33" y="92.01" xlink:href="#hl"/>
<use x="479.33" y="89.01" xlink:href="#hd"/>
<path d="M475.83 89.01v27.00" stroke="currentColor" fill="none"/>
<path fill="currentColor"
	d="M488.53 116.91l36.00 0.00v-3.20l-36.00 -0.00"/>
<path fill="currentColor"
	d="M488.93 111.91l35.30 0.00v-3.20l-35.30 -0.00"/>
<path fill="currentColor"
	d="M488.93 106.91l35.30 0.00v-3.20l-35.30 -0.00"/>
<use x="492.43" y="98.01" xlink:href="#hl"/>
<use x="492.43" y="92.01" xlink:href="#hl"/>
<use x="492.43" y="92.01" xlink:href="#hd"/>
<path d="M488.93 92.01v24.00" stroke="currentColor" fill="none"/>
<use x="504.13" y="98.01" xlink:href="#hl"/>
<use x="504.13" y="92.01" xlink:href="#hl"/>
<use x="504.13" y="89.01" xlink:href="#hd"/>
<path d="M500.63 89.01v27.00" stroke="currentColor" fill="none"/>
<use x="515.93" y="98.01" xlink:href="#hl"/>
<use x="515.93" y="92.01" xlink:href="#hl"/>
<use x="515.93" y="92.01" xlink:href="#hd"/>
<path d="M512.43 92.01v24.00" stroke="currentColor" fill="none"/>
<use x="527.73" y="98.01" xlink:href="#hl"/>
<use x="527.73" y="92.01" xlink:href="#hl"/>
<use x="527.73" y="89.01" xlink:href="#hd"/>
<path d="M524.23 89.01v27.00" stroke="currentColor" fill="none"/>
<path fill="currentColor"
	d="M536.83 116.91l36.00 0.00v-3.20l-36.00 -0.00"/>
<path fill="currentColor"
	d="M537.23 111.91l35.30 0.00v-3.20l-35.30 -0.00"/>
<path fill="currentColor"
	d="M537.23 106.91l35.30 0.00v-3.20l-35.30 -0.00"/>
<use x="540.73" y="98.01" xlink:href="#hl"/>
<use x="540.73" y="92.01" xlink:href="#hl"/>
<use x="540.73" y="92.01" xlink:href="#hd"/>
<path d="M537.23 92.01v24.00" stroke="currentColor" fill="none"/>
<use x="552.53" y="98.01" xlink:href="#hl"/>
<use x="552.53" y="92.01" xlink:href="#hl"/>
<use x="552.53" y="89.01" xlink:href="#hd"/>
<path d="M549.03 89.01v27.00" stroke="currentColor" fill="none"/>
<use x="564.23" y="98.01" xlink:href="#hl"/>
<use x="564.23" y="92.01" xlink:href="#hl"/>
<use x="564.23" y="92.01" xlink:href="#hd"/>
<path d="M560.73 92.01v24.00" stroke="currentColor" fill="none"/>
<use x="576.03" y="98.01" xlink:href="#hl"/>
<use x="576.03" y="92.01" xlink:href="#hl"/>
<use x="576.03" y="89.01" xlink:href="#hd"/>
<path d="M572.53 89.01v27.00" stroke="currentColor" fill="none"/>
<path fill="currentColor"
	d="M585.23 116.91l36.00 0.00v-3.20l-36.00 -0.00"/>
<path fill="currentColor"
	d="M585.53 111.91l35.30 0.00v-3.20l-35.30 -0.00"/>
<path fill="currentColor"
	d="M585.53 106.91l35.30 0.00v-3.20l-35.30 -0.00"/>
<use x="589.03" y="98.01" xlink:href="#hl"/>
<use x="589.03" y="92.01" xlink:href="#hl"/>
<use x="589.03" y="92.01" xlink:href="#hd"/>
<path d="M585.53 92.01v24.00" stroke="currentColor" fill="none"/>
<use x="600.83" y="98.01" xlink:href="#hl"/>
<use x="600.83" y="92.01" xlink:href="#hl"/>
<use x="600.83" y="89.01" xlink:href="#hd"/>
<path d="M597.33 89.01v27.00" stroke="currentColor" fill="none"/>
<use x="612.63" y="98.01" xlink:href="#hl"/>
<use x="612.63" y="92.01" xlink:href="#hl"/>
<use x="612.63" y="92.01" xlink:href="#hd"/>
<path d="M609.13 92.01v24.00" stroke="currentColor" fill="none"/>
<use x="624.33" y="98.01" xlink:href="#hl"/>
<use x="624.33" y="92.01" xlink:href="#hl"/>
<use x="624.33" y="89.01" xlink:href="#hd"/>
<path d="M620.83 89.01v27.00" stroke="currentColor" fill="none"/>
<use x="654.33" y="98.01" xlink:href="#hl"/>
<use x="654.33" y="92.01" xlink:href="#hl"/>
<use x="654.33" y="92.01" xlink:href="#Hd"/>
<use x="644.33" y="92.01" xlink:href="#sh0"/>
<path d="M650.83 92.01v24.00" stroke="currentColor" fill="none"/>
</g>
</svg>
