<?xml version="1.0" standalone="no"?>
<!DOCTYPE svg PUBLIC "-//W3C//DTD SVG 1.1//EN"
	"http://www.w3.org/Graphics/SVG/1.1/DTD/svg11.dtd">
<svg xmlns="http://www.w3.org/2000/svg" version="1.1"
	xmlns:xlink="http://www.w3.org/1999/xlink"
	xml:space='preserve' color="black"
	width="7.38in" height="1.34in" viewBox="0 0 531 97">
<title>7129.abc (7129) tune 1</title>
<!-- Creator: abcm2ps-7.8.14 -->
<!-- CreationDate: Mar 13, 2016 18:54 -->
<!-- CommandLine: -qxg 7129.abc -O ../svgs/7129.svg -->
<g transform="scale(0.750)" stroke-width="0.70" font-family="Times" font-size="20.00">
<text x="354.13" y="21.67" text-anchor="middle">7129.  Capriccio, 2nd. Mvt. - 3rd. Theme</text>
</g>
<g transform="scale(0.750)" stroke-width="0.70" font-family="Times" font-size="14.00" font-style="italic">
<text x="694.93" y="45.34" text-anchor="end">Igor Stravinsky</text>
</g>
<g transform="scale(0.525)" stroke-width="0.70" font-family="Times" font-size="14.00" font-style="italic">
<defs>
<ellipse id="hd" rx="4.1" ry="2.9"
	transform="rotate(-20)" fill="currentColor"/>
</defs>
<use x="107.04" y="94.16" xlink:href="#hd"/>
<path d="M110.54 94.16v-20.00" stroke="currentColor" fill="none"/>
</g>
<g transform="scale(0.750)" stroke-width="0.70" font-family="Times" font-size="15.00" font-weight="bold">
<text x="82.63" y="68.01">= 120</text>
<path stroke="currentColor" fill="none"
	d="M154.53 106.01v-24.00"/>
<path stroke="currentColor" fill="none"
	d="M258.73 106.01v-24.00"/>
<path stroke="currentColor" fill="none"
	d="M372.43 106.01v-24.00"/>
<path stroke="currentColor" fill="none"
	d="M13.33 106.01h404.10m-404.10 -6h404.10m-404.10 -6h404.10m-404.10 -6h404.10m-404.10 -6h404.10"/>
<text font-family="serif" font-size="12" font-style="italic" font-weight="normal"
	x="213.43" y="126.41" text-anchor="middle">3</text>
<text font-family="serif" font-size="12" font-style="italic" font-weight="normal"
	x="319.63" y="123.61" text-anchor="middle">3</text>
<text font-family="serif" font-size="12" font-style="italic" font-weight="normal"
	x="351.13" y="121.31" text-anchor="middle">3</text>
<text font-family="serif" font-size="12" font-style="italic" font-weight="normal"
	x="394.93" y="124.41" text-anchor="middle">3</text>
<defs>
<path id="utclef" fill="currentColor" d="m-50 -90
	c-72 -41 -72 -158 52 -188
	c150 -10 220 188 90 256
	c-114 52 -275 0 -293 -136
	c-15 -181 93 -229 220 -334
	c88 -87 79 -133 62 -210
	c-51 33 -94 105 -89 186
	c17 267 36 374 49 574
	c6 96 -19 134 -77 135
	c-80 1 -126 -93 -61 -133
	c85 -41 133 101 31 105
	c23 17 92 37 90 -92
	c-10 -223 -39 -342 -50 -617
	c0 -90 0 -162 96 -232
	c56 72 63 230 22 289
	c-74 106 -257 168 -255 316
	c9 153 148 185 252 133
	c86 -65 29 -192 -80 -176
	c-71 12 -105 67 -59 124"/>
<use id="tclef" transform="scale(0.045)"
	xlink:href="#utclef"/>
</defs>
<use x="25.33" y="106.01" xlink:href="#tclef"/>
<defs>
<path id="uflat" fill="currentColor" d="
	m100 -746
	h32
	v734
	l-32 4
	m32 -332
	c46 -72 152 -90 208 -20
	c100 110 -120 326 -208 348
	m0 -28
	c54 0 200 -206 130 -290
	c-50 -60 -130 -4 -130 34"/>
<use id="ft0" transform="translate(-3.5,3.5) scale(0.018)"
	xlink:href="#uflat"/>
</defs>
<use x="40.33" y="94.01" xlink:href="#ft0"/>
<g font-family="serif" font-size="16" font-weight="bold" font-style="normal"
	transform="translate(56.33,106.01) scale(1.2,1)">
	<text y="-1" text-anchor="middle">8</text>
	<text y="-13" text-anchor="middle">2</text>
</g>
<path fill="currentColor"
	d="M70.53 118.21l40.20 0.00v-3.20l-40.20 -0.00"/>
<path fill="currentColor"
	d="M70.83 113.21l39.50 0.00v-3.20l-39.50 -0.00"/>
<path fill="currentColor"
	d="M104.33 108.21l6.00 0.00v-3.20l-6.00 -0.00"/>
<use x="74.33" y="91.01" xlink:href="#hd"/>
<circle fill="currentColor" cx="82.33" cy="91.01" r="1.2"/>
<path d="M70.83 91.01v26.20" stroke="currentColor" fill="none"/>
<use x="113.83" y="94.01" xlink:href="#hd"/>
<use x="97.83" y="94.01" xlink:href="#ft0"/>
<path d="M110.33 94.01v23.20" stroke="currentColor" fill="none"/>
<use x="106.83" y="94.01" xlink:href="#hd"/>
<defs>
<path id="unat" fill="currentColor" d="
	m96 -750
	h-32
	v716
	l32 -8
	l182 -54
	v282
	h32
	v-706
	l-34 10
	l-180 50
	v-290
	m0 592
	v-190
	l182 -52
	v188"/>
<use id="nt0" transform="translate(-3,5) scale(0.018)"
	xlink:href="#unat"/>
</defs>
<use x="90.83" y="94.01" xlink:href="#nt0"/>
<use x="131.83" y="97.01" xlink:href="#hd"/>
<use x="122.83" y="97.01" xlink:href="#ft0"/>
<path d="M135.33 97.01v-20.00" stroke="currentColor" fill="none"/>
<path fill="currentColor"
	d="	M135.33 77.01c0.6 5.6 9.6 9 5.6 18.4
	c1.6 -6 -1.3 -11.6 -5.6 -12.8
"/>
<path fill="currentColor"
	d="M176.13 71.61l18.70 -2.90v3.20l-18.70 2.90"/>
<path fill="currentColor"
	d="M176.53 76.61l18.00 -2.80v3.20l-18.00 2.80"/>
<path fill="currentColor"
	d="M176.53 81.61l18.00 -2.80v3.20l-18.00 2.80"/>
<use x="173.03" y="97.01" xlink:href="#hd"/>
<use x="164.03" y="97.01" xlink:href="#ft0"/>
<path d="M176.53 97.01v-24.40" stroke="currentColor" fill="none"/>
<use x="191.03" y="97.01" xlink:href="#hd"/>
<use x="182.03" y="97.01" xlink:href="#ft0"/>
<path d="M194.53 97.01v-27.20" stroke="currentColor" fill="none"/>
<use x="191.03" y="91.01" xlink:href="#hd"/>
<path fill="currentColor"
	d="M201.33 110.31l20.50 -5.00v-3.20l-20.50 5.00"/>
<path fill="currentColor"
	d="M201.63 105.21l19.90 -4.90v-3.20l-19.90 4.90"/>
<path fill="currentColor"
	d="M201.63 100.21l19.90 -4.90v-3.20l-19.90 4.90"/>
<use x="205.13" y="85.01" xlink:href="#hd"/>
<path d="M201.63 85.01v24.20" stroke="currentColor" fill="none"/>
<use x="215.03" y="82.01" xlink:href="#hd"/>
<path d="M211.53 82.01v24.80" stroke="currentColor" fill="none"/>
<defs>
<path id="hl" stroke="currentColor" d="m-6 0h12"/>
</defs>
<use x="225.03" y="76.01" xlink:href="#hl"/>
<use x="225.03" y="70.01" xlink:href="#hl"/>
<use x="225.03" y="67.01" xlink:href="#hd"/>
<path d="M221.53 67.01v37.30" stroke="currentColor" fill="none"/>
<use x="236.03" y="76.01" xlink:href="#hl"/>
<use x="236.03" y="70.01" xlink:href="#hl"/>
<use x="236.03" y="70.01" xlink:href="#hd"/>
<path d="M232.53 70.01v24.00" stroke="currentColor" fill="none"/>
<path fill="currentColor"
	d="M232.53 94.01c0.6 -5.6 9.6 -9 5.6 -18.4
	c1.6 6 -1.3 11.6 -5.6 12.8
"/>
<path fill="currentColor"
	d="M269.03 100.91l24.70 6.40v-3.20l-24.70 -6.40"/>
<path fill="currentColor"
	d="M269.33 96.01l24.00 6.20v-3.20l-24.00 -6.20"/>
<path fill="currentColor"
	d="M287.33 95.61l6.00 1.60v-3.20l-6.00 -1.60"/>
<use x="272.83" y="76.01" xlink:href="#hl"/>
<use x="272.83" y="70.01" xlink:href="#hl"/>
<use x="272.83" y="70.01" xlink:href="#hd"/>
<circle fill="currentColor" cx="280.83" cy="67.01" r="1.2"/>
<path d="M269.33 70.01v30.00" stroke="currentColor" fill="none"/>
<use x="296.83" y="82.01" xlink:href="#hd"/>
<path d="M293.33 82.01v24.20" stroke="currentColor" fill="none"/>
<use x="289.83" y="85.01" xlink:href="#hd"/>
<path fill="currentColor"
	d="M307.13 105.21l21.10 5.10v-3.20l-21.10 -5.10"/>
<path fill="currentColor"
	d="M307.53 100.31l20.40 4.90v-3.20l-20.40 -4.90"/>
<path fill="currentColor"
	d="M307.53 95.31l20.40 4.90v-3.20l-20.40 -4.90"/>
<use x="311.03" y="76.01" xlink:href="#hl"/>
<use x="311.03" y="70.01" xlink:href="#hl"/>
<use x="311.03" y="67.01" xlink:href="#hd"/>
<path d="M307.53 67.01v37.30" stroke="currentColor" fill="none"/>
<use x="321.53" y="76.01" xlink:href="#hl"/>
<use x="321.53" y="70.01" xlink:href="#hl"/>
<use x="321.53" y="70.01" xlink:href="#hd"/>
<path d="M318.03 70.01v36.80" stroke="currentColor" fill="none"/>
<use x="331.43" y="85.01" xlink:href="#hd"/>
<path d="M327.93 85.01v24.20" stroke="currentColor" fill="none"/>
<path fill="currentColor"
	d="M338.63 107.31l21.10 -4.30v-3.20l-21.10 4.30"/>
<path fill="currentColor"
	d="M338.93 102.21l20.40 -4.20v-3.20l-20.40 4.20"/>
<path fill="currentColor"
	d="M338.93 97.21l20.40 -4.20v-3.20l-20.40 4.20"/>
<use x="342.43" y="82.01" xlink:href="#hd"/>
<path d="M338.93 82.01v24.20" stroke="currentColor" fill="none"/>
<use x="352.43" y="76.01" xlink:href="#hl"/>
<use x="352.43" y="70.01" xlink:href="#hl"/>
<use x="352.43" y="67.01" xlink:href="#hd"/>
<path d="M348.93 67.01v37.20" stroke="currentColor" fill="none"/>
<use x="362.93" y="76.01" xlink:href="#hl"/>
<use x="362.93" y="70.01" xlink:href="#hl"/>
<use x="362.93" y="70.01" xlink:href="#hd"/>
<path d="M359.43 70.01v32.00" stroke="currentColor" fill="none"/>
<path fill="currentColor"
	d="M382.73 110.31l20.50 -5.00v-3.20l-20.50 5.00"/>
<path fill="currentColor"
	d="M383.03 105.21l19.90 -4.90v-3.20l-19.90 4.90"/>
<path fill="currentColor"
	d="M383.03 100.21l19.90 -4.90v-3.20l-19.90 4.90"/>
<use x="386.53" y="85.01" xlink:href="#hd"/>
<path d="M383.03 85.01v24.20" stroke="currentColor" fill="none"/>
<use x="396.53" y="82.01" xlink:href="#hd"/>
<path d="M393.03 82.01v24.80" stroke="currentColor" fill="none"/>
<use x="406.43" y="76.01" xlink:href="#hl"/>
<use x="406.43" y="70.01" xlink:href="#hl"/>
<use x="406.43" y="67.01" xlink:href="#hd"/>
<path d="M402.93 67.01v37.30" stroke="currentColor" fill="none"/>
<path fill="currentColor"
	d="M135.33 99.01c5.38 5.11 28.76 5.11 34.14 -0.00
	l0.00 0.23c-6.40 6.88 -27.74 6.88 -34.14 -0.23"/>
<path fill="currentColor"
	d="M239.53 70.01c4.69 -5.04 25.10 -5.04 29.79 -0.00
	l0.00 -0.23c-5.59 -6.81 -24.20 -6.81 -29.79 0.23"/>
</g>
</svg>
