<?xml version="1.0" standalone="no"?>
<!DOCTYPE svg PUBLIC "-//W3C//DTD SVG 1.1//EN"
	"http://www.w3.org/Graphics/SVG/1.1/DTD/svg11.dtd">
<svg xmlns="http://www.w3.org/2000/svg" version="1.1"
	xmlns:xlink="http://www.w3.org/1999/xlink"
	xml:space='preserve' color="black"
	width="7.38in" height="1.55in" viewBox="0 0 531 112">
<title>7137.abc (7137) tune 1</title>
<!-- Creator: abcm2ps-7.8.14 -->
<!-- CreationDate: Mar 13, 2016 18:54 -->
<!-- CommandLine: -qxg 7137.abc -O ../svgs/7137.svg -->
<g transform="scale(0.750)" stroke-width="0.70" font-family="Times" font-size="20.00">
<text x="354.13" y="21.67" text-anchor="middle">7137.  Chant du Rossignol, 2nd. Mvt. - March Chinoise, 1st. Theme</text>
</g>
<g transform="scale(0.750)" stroke-width="0.70" font-family="Times" font-size="14.00" font-style="italic">
<text x="694.93" y="45.34" text-anchor="end">Igor Stravinsky</text>
</g>
<g transform="scale(0.525)" stroke-width="0.70" font-family="Times" font-size="14.00" font-style="italic">
<defs>
<ellipse id="hd" rx="4.1" ry="2.9"
	transform="rotate(-20)" fill="currentColor"/>
</defs>
<use x="138.47" y="94.16" xlink:href="#hd"/>
<path d="M141.97 94.16v-20.00" stroke="currentColor" fill="none"/>
</g>
<g transform="scale(0.750)" stroke-width="0.70" font-family="Times" font-size="15.00" font-weight="bold">
<text x="104.63" y="68.01">= 120</text>
<path stroke="currentColor" fill="none"
	d="M202.73 126.01v-24.00"/>
<path stroke="currentColor" fill="none"
	d="M344.03 126.01v-24.00"/>
<path stroke="currentColor" fill="none"
	d="M464.43 126.01v-24.00"/>
<path stroke="currentColor" fill="none"
	d="M605.73 126.01v-24.00"/>
<path stroke="currentColor" fill="none"
	d="M13.33 126.01h681.60m-681.60 -6h681.60m-681.60 -6h681.60m-681.60 -6h681.60m-681.60 -6h681.60"/>
<defs>
<path id="utclef" fill="currentColor" d="m-50 -90
	c-72 -41 -72 -158 52 -188
	c150 -10 220 188 90 256
	c-114 52 -275 0 -293 -136
	c-15 -181 93 -229 220 -334
	c88 -87 79 -133 62 -210
	c-51 33 -94 105 -89 186
	c17 267 36 374 49 574
	c6 96 -19 134 -77 135
	c-80 1 -126 -93 -61 -133
	c85 -41 133 101 31 105
	c23 17 92 37 90 -92
	c-10 -223 -39 -342 -50 -617
	c0 -90 0 -162 96 -232
	c56 72 63 230 22 289
	c-74 106 -257 168 -255 316
	c9 153 148 185 252 133
	c86 -65 29 -192 -80 -176
	c-71 12 -105 67 -59 124"/>
<use id="tclef" transform="scale(0.045)"
	xlink:href="#utclef"/>
</defs>
<use x="25.33" y="126.01" xlink:href="#tclef"/>
<defs>
<path id="usharp" fill="currentColor" d="
	m136 -702
	v890
	h32
	v-890
	m128 840
	h32
	v-888
	h-32
	m-232 286
	v116
	l338 -96
	v-116
	m-338 442
	v116
	l338 -98
	v-114"/>
<use id="sh0" transform="translate(-4,5) scale(0.018)"
	xlink:href="#usharp"/>
</defs>
<use x="40.33" y="102.01" xlink:href="#sh0"/>
<use x="45.83" y="111.01" xlink:href="#sh0"/>
<use x="51.33" y="99.01" xlink:href="#sh0"/>
<use x="56.83" y="108.01" xlink:href="#sh0"/>
<use x="62.33" y="117.01" xlink:href="#sh0"/>
<g font-family="serif" font-size="16" font-weight="bold" font-style="normal"
	transform="translate(78.33,126.01) scale(1.2,1)">
	<text y="-1" text-anchor="middle">4</text>
	<text y="-13" text-anchor="middle">2</text>
</g>
<defs>
<path id="hl" stroke="currentColor" d="m-6 0h12"/>
</defs>
<use x="96.33" y="96.01" xlink:href="#hl"/>
<use x="96.33" y="90.01" xlink:href="#hl"/>
<use x="96.33" y="84.01" xlink:href="#hl"/>
<use x="96.33" y="81.01" xlink:href="#hd"/>
<path d="M92.83 81.01v33.00" stroke="currentColor" fill="none"/>
<path fill="currentColor"
	d="M92.83 114.01c0.6 -5.6 9.6 -9 5.6 -18.4
	c1.6 6 -1.3 11.6 -5.6 12.8
"/>
<use x="124.33" y="96.01" xlink:href="#hl"/>
<use x="124.33" y="90.01" xlink:href="#hl"/>
<use x="124.33" y="84.01" xlink:href="#hl"/>
<use x="124.33" y="78.01" xlink:href="#hl"/>
<use x="124.33" y="78.01" xlink:href="#hd"/>
<path d="M120.83 78.01v36.00" stroke="currentColor" fill="none"/>
<path fill="currentColor"
	d="M120.83 114.01c0.6 -5.6 9.6 -9 5.6 -18.4
	c1.6 6 -1.3 11.6 -5.6 12.8
"/>
<use x="152.33" y="96.01" xlink:href="#hl"/>
<use x="152.33" y="90.01" xlink:href="#hl"/>
<use x="152.33" y="84.01" xlink:href="#hl"/>
<use x="152.33" y="78.01" xlink:href="#hl"/>
<use x="152.33" y="75.01" xlink:href="#hd"/>
<path d="M148.83 75.01v39.00" stroke="currentColor" fill="none"/>
<path fill="currentColor"
	d="M148.83 114.01c0.6 -5.6 9.6 -9 5.6 -18.4
	c1.6 6 -1.3 11.6 -5.6 12.8
"/>
<use x="180.33" y="96.01" xlink:href="#hl"/>
<use x="180.33" y="90.01" xlink:href="#hl"/>
<use x="180.33" y="84.01" xlink:href="#hl"/>
<use x="180.33" y="78.01" xlink:href="#hl"/>
<use x="180.33" y="72.01" xlink:href="#hl"/>
<use x="180.33" y="69.01" xlink:href="#hd"/>
<path d="M176.83 69.01v45.00" stroke="currentColor" fill="none"/>
<path fill="currentColor"
	d="M176.83 114.01c0.6 -5.6 9.6 -9 5.6 -18.4
	c1.6 6 -1.3 11.6 -5.6 12.8
"/>
<path fill="currentColor"
	d="M212.93 114.21l18.50 0.00v-3.20l-18.50 -0.00"/>
<path fill="currentColor"
	d="M213.23 109.21l17.80 0.00v-3.20l-17.80 -0.00"/>
<use x="216.73" y="96.01" xlink:href="#hl"/>
<use x="216.73" y="90.01" xlink:href="#hl"/>
<use x="216.73" y="84.01" xlink:href="#hl"/>
<use x="216.73" y="78.01" xlink:href="#hl"/>
<use x="216.73" y="72.01" xlink:href="#hl"/>
<use x="216.73" y="66.01" xlink:href="#hl"/>
<use x="216.73" y="66.01" xlink:href="#hd"/>
<path d="M213.23 66.01v47.20" stroke="currentColor" fill="none"/>
<use x="234.53" y="96.01" xlink:href="#hl"/>
<use x="234.53" y="90.01" xlink:href="#hl"/>
<use x="234.53" y="84.01" xlink:href="#hl"/>
<use x="234.53" y="78.01" xlink:href="#hl"/>
<use x="234.53" y="72.01" xlink:href="#hl"/>
<use x="234.53" y="66.01" xlink:href="#hl"/>
<use x="234.53" y="60.01" xlink:href="#hl"/>
<use x="234.53" y="60.01" xlink:href="#hd"/>
<path d="M231.03 60.01v53.20" stroke="currentColor" fill="none"/>
<use x="254.33" y="96.01" xlink:href="#hl"/>
<use x="254.33" y="90.01" xlink:href="#hl"/>
<use x="254.33" y="84.01" xlink:href="#hl"/>
<use x="254.33" y="78.01" xlink:href="#hl"/>
<use x="254.33" y="72.01" xlink:href="#hl"/>
<use x="254.33" y="66.01" xlink:href="#hl"/>
<use x="254.33" y="66.01" xlink:href="#hd"/>
<path d="M250.83 66.01v48.00" stroke="currentColor" fill="none"/>
<path fill="currentColor"
	d="M250.83 114.01c0.6 -5.6 9.6 -9 5.6 -18.4
	c1.6 6 -1.3 11.6 -5.6 12.8
"/>
<use x="282.33" y="96.01" xlink:href="#hl"/>
<use x="282.33" y="90.01" xlink:href="#hl"/>
<use x="282.33" y="84.01" xlink:href="#hl"/>
<use x="282.33" y="78.01" xlink:href="#hl"/>
<use x="282.33" y="72.01" xlink:href="#hl"/>
<use x="282.33" y="69.01" xlink:href="#hd"/>
<path d="M278.83 69.01v45.00" stroke="currentColor" fill="none"/>
<path fill="currentColor"
	d="M278.83 114.01c0.6 -5.6 9.6 -9 5.6 -18.4
	c1.6 6 -1.3 11.6 -5.6 12.8
"/>
<path fill="currentColor"
	d="M306.53 114.21l18.50 0.00v-3.20l-18.50 -0.00"/>
<path fill="currentColor"
	d="M306.83 109.21l17.80 0.00v-3.20l-17.80 -0.00"/>
<use x="310.33" y="96.01" xlink:href="#hl"/>
<use x="310.33" y="90.01" xlink:href="#hl"/>
<use x="310.33" y="84.01" xlink:href="#hl"/>
<use x="310.33" y="78.01" xlink:href="#hl"/>
<use x="310.33" y="75.01" xlink:href="#hd"/>
<path d="M306.83 75.01v38.20" stroke="currentColor" fill="none"/>
<use x="328.13" y="96.01" xlink:href="#hl"/>
<use x="328.13" y="90.01" xlink:href="#hl"/>
<use x="328.13" y="84.01" xlink:href="#hl"/>
<use x="328.13" y="78.01" xlink:href="#hl"/>
<use x="328.13" y="78.01" xlink:href="#hd"/>
<path d="M324.63 78.01v35.20" stroke="currentColor" fill="none"/>
<use x="358.03" y="96.01" xlink:href="#hl"/>
<use x="358.03" y="90.01" xlink:href="#hl"/>
<use x="358.03" y="84.01" xlink:href="#hl"/>
<use x="358.03" y="81.01" xlink:href="#hd"/>
<path d="M354.53 81.01v33.00" stroke="currentColor" fill="none"/>
<path fill="currentColor"
	d="M354.53 114.01c0.6 -5.6 9.6 -9 5.6 -18.4
	c1.6 6 -1.3 11.6 -5.6 12.8
"/>
<use x="386.03" y="96.01" xlink:href="#hl"/>
<use x="386.03" y="90.01" xlink:href="#hl"/>
<use x="386.03" y="84.01" xlink:href="#hl"/>
<use x="386.03" y="78.01" xlink:href="#hl"/>
<use x="386.03" y="78.01" xlink:href="#hd"/>
<path d="M382.53 78.01v36.00" stroke="currentColor" fill="none"/>
<path fill="currentColor"
	d="M382.53 114.01c0.6 -5.6 9.6 -9 5.6 -18.4
	c1.6 6 -1.3 11.6 -5.6 12.8
"/>
<use x="414.03" y="96.01" xlink:href="#hl"/>
<use x="414.03" y="90.01" xlink:href="#hl"/>
<use x="414.03" y="84.01" xlink:href="#hl"/>
<use x="414.03" y="78.01" xlink:href="#hl"/>
<use x="414.03" y="75.01" xlink:href="#hd"/>
<path d="M410.53 75.01v39.00" stroke="currentColor" fill="none"/>
<path fill="currentColor"
	d="M410.53 114.01c0.6 -5.6 9.6 -9 5.6 -18.4
	c1.6 6 -1.3 11.6 -5.6 12.8
"/>
<use x="442.03" y="96.01" xlink:href="#hl"/>
<use x="442.03" y="90.01" xlink:href="#hl"/>
<use x="442.03" y="84.01" xlink:href="#hl"/>
<use x="442.03" y="78.01" xlink:href="#hl"/>
<use x="442.03" y="72.01" xlink:href="#hl"/>
<use x="442.03" y="69.01" xlink:href="#hd"/>
<path d="M438.53 69.01v45.00" stroke="currentColor" fill="none"/>
<path fill="currentColor"
	d="M438.53 114.01c0.6 -5.6 9.6 -9 5.6 -18.4
	c1.6 6 -1.3 11.6 -5.6 12.8
"/>
<use x="478.43" y="96.01" xlink:href="#hl"/>
<use x="478.43" y="90.01" xlink:href="#hl"/>
<use x="478.43" y="84.01" xlink:href="#hl"/>
<use x="478.43" y="78.01" xlink:href="#hl"/>
<use x="478.43" y="72.01" xlink:href="#hl"/>
<use x="478.43" y="66.01" xlink:href="#hl"/>
<use x="478.43" y="66.01" xlink:href="#hd"/>
<path d="M474.93 66.01v48.00" stroke="currentColor" fill="none"/>
<path fill="currentColor"
	d="M474.93 114.01c0.6 -5.6 9.6 -9 5.6 -18.4
	c1.6 6 -1.3 11.6 -5.6 12.8
"/>
<use x="506.43" y="96.01" xlink:href="#hl"/>
<use x="506.43" y="90.01" xlink:href="#hl"/>
<use x="506.43" y="84.01" xlink:href="#hl"/>
<use x="506.43" y="78.01" xlink:href="#hl"/>
<use x="506.43" y="72.01" xlink:href="#hl"/>
<use x="506.43" y="66.01" xlink:href="#hl"/>
<use x="506.43" y="60.01" xlink:href="#hl"/>
<use x="506.43" y="60.01" xlink:href="#hd"/>
<path d="M502.93 60.01v54.00" stroke="currentColor" fill="none"/>
<path fill="currentColor"
	d="M502.93 114.01c0.6 -5.6 9.6 -9 5.6 -18.4
	c1.6 6 -1.3 11.6 -5.6 12.8
"/>
<path fill="currentColor"
	d="M530.63 114.21l18.50 0.00v-3.20l-18.50 -0.00"/>
<path fill="currentColor"
	d="M530.93 109.21l17.80 0.00v-3.20l-17.80 -0.00"/>
<use x="534.43" y="96.01" xlink:href="#hl"/>
<use x="534.43" y="90.01" xlink:href="#hl"/>
<use x="534.43" y="84.01" xlink:href="#hl"/>
<use x="534.43" y="78.01" xlink:href="#hl"/>
<use x="534.43" y="72.01" xlink:href="#hl"/>
<use x="534.43" y="66.01" xlink:href="#hl"/>
<use x="534.43" y="66.01" xlink:href="#hd"/>
<path d="M530.93 66.01v47.20" stroke="currentColor" fill="none"/>
<use x="552.23" y="96.01" xlink:href="#hl"/>
<use x="552.23" y="90.01" xlink:href="#hl"/>
<use x="552.23" y="84.01" xlink:href="#hl"/>
<use x="552.23" y="78.01" xlink:href="#hl"/>
<use x="552.23" y="72.01" xlink:href="#hl"/>
<use x="552.23" y="69.01" xlink:href="#hd"/>
<path d="M548.73 69.01v44.20" stroke="currentColor" fill="none"/>
<path fill="currentColor"
	d="M568.23 114.21l18.50 0.00v-3.20l-18.50 -0.00"/>
<path fill="currentColor"
	d="M568.53 109.21l17.80 0.00v-3.20l-17.80 -0.00"/>
<use x="572.03" y="96.01" xlink:href="#hl"/>
<use x="572.03" y="90.01" xlink:href="#hl"/>
<use x="572.03" y="84.01" xlink:href="#hl"/>
<use x="572.03" y="78.01" xlink:href="#hl"/>
<use x="572.03" y="75.01" xlink:href="#hd"/>
<path d="M568.53 75.01v38.20" stroke="currentColor" fill="none"/>
<use x="589.83" y="96.01" xlink:href="#hl"/>
<use x="589.83" y="90.01" xlink:href="#hl"/>
<use x="589.83" y="84.01" xlink:href="#hl"/>
<use x="589.83" y="78.01" xlink:href="#hl"/>
<use x="589.83" y="78.01" xlink:href="#hd"/>
<path d="M586.33 78.01v35.20" stroke="currentColor" fill="none"/>
<path fill="currentColor"
	d="M615.93 114.21l18.50 0.00v-3.20l-18.50 -0.00"/>
<path fill="currentColor"
	d="M616.23 109.21l17.80 0.00v-3.20l-17.80 -0.00"/>
<use x="619.73" y="96.01" xlink:href="#hl"/>
<use x="619.73" y="90.01" xlink:href="#hl"/>
<use x="619.73" y="84.01" xlink:href="#hl"/>
<use x="619.73" y="81.01" xlink:href="#hd"/>
<path d="M616.23 81.01v32.20" stroke="currentColor" fill="none"/>
<use x="637.53" y="96.01" xlink:href="#hl"/>
<use x="637.53" y="90.01" xlink:href="#hl"/>
<use x="637.53" y="84.01" xlink:href="#hl"/>
<use x="637.53" y="78.01" xlink:href="#hl"/>
<use x="637.53" y="78.01" xlink:href="#hd"/>
<path d="M634.03 78.01v35.20" stroke="currentColor" fill="none"/>
<path fill="currentColor"
	d="M653.53 114.21l18.50 0.00v-3.20l-18.50 -0.00"/>
<path fill="currentColor"
	d="M653.83 109.21l17.80 0.00v-3.20l-17.80 -0.00"/>
<use x="657.33" y="96.01" xlink:href="#hl"/>
<use x="657.33" y="90.01" xlink:href="#hl"/>
<use x="657.33" y="84.01" xlink:href="#hl"/>
<use x="657.33" y="78.01" xlink:href="#hl"/>
<use x="657.33" y="75.01" xlink:href="#hd"/>
<path d="M653.83 75.01v38.20" stroke="currentColor" fill="none"/>
<use x="675.13" y="96.01" xlink:href="#hl"/>
<use x="675.13" y="90.01" xlink:href="#hl"/>
<use x="675.13" y="84.01" xlink:href="#hl"/>
<use x="675.13" y="78.01" xlink:href="#hl"/>
<use x="675.13" y="72.01" xlink:href="#hl"/>
<use x="675.13" y="69.01" xlink:href="#hd"/>
<path d="M671.63 69.01v44.20" stroke="currentColor" fill="none"/>
</g>
</svg>
