<?xml version="1.0" standalone="no"?>
<!DOCTYPE svg PUBLIC "-//W3C//DTD SVG 1.1//EN"
	"http://www.w3.org/Graphics/SVG/1.1/DTD/svg11.dtd">
<svg xmlns="http://www.w3.org/2000/svg" version="1.1"
	xmlns:xlink="http://www.w3.org/1999/xlink"
	xml:space='preserve' color="black"
	width="7.38in" height="1.40in" viewBox="0 0 531 101">
<title>7145.abc (7145) tune 1</title>
<!-- Creator: abcm2ps-7.8.14 -->
<!-- CreationDate: Mar 13, 2016 18:54 -->
<!-- CommandLine: -qxg 7145.abc -O ../svgs/7145.svg -->
<g transform="scale(0.750)" stroke-width="0.70" font-family="Times" font-size="20.00">
<text x="354.13" y="21.67" text-anchor="middle">7145.  Concerto, 3rd. Mvt. - 2nd. Theme</text>
</g>
<g transform="scale(0.750)" stroke-width="0.70" font-family="Times" font-size="14.00" font-style="italic">
<text x="694.93" y="45.34" text-anchor="end">Igor Stravinsky</text>
</g>
<g transform="scale(0.525)" stroke-width="0.70" font-family="Times" font-size="14.00" font-style="italic">
<defs>
<ellipse id="hd" rx="4.1" ry="2.9"
	transform="rotate(-20)" fill="currentColor"/>
</defs>
<use x="97.76" y="94.16" xlink:href="#hd"/>
<path d="M101.26 94.16v-20.00" stroke="currentColor" fill="none"/>
</g>
<g transform="scale(0.750)" stroke-width="0.70" font-family="Times" font-size="15.00" font-weight="bold">
<text x="76.13" y="68.01">= 120</text>
<path stroke="currentColor" fill="none"
	d="M133.53 111.01v-24.00"/>
<path stroke="currentColor" fill="none"
	d="M227.83 111.01v-24.00"/>
<path stroke="currentColor" fill="none"
	d="M306.03 111.01v-24.00"/>
<path stroke="currentColor" fill="none"
	d="M400.33 111.01v-24.00"/>
<path stroke="currentColor" fill="none"
	d="M466.23 111.01v-24.00"/>
<path stroke="currentColor" fill="none"
	d="M559.93 111.01v-24.00"/>
<path stroke="currentColor" fill="none"
	d="M662.13 111.01v-24.00"/>
<path stroke="currentColor" fill="none"
	d="M13.33 111.01h681.60m-681.60 -6h681.60m-681.60 -6h681.60m-681.60 -6h681.60m-681.60 -6h681.60"/>
<defs>
<path id="utclef" fill="currentColor" d="m-50 -90
	c-72 -41 -72 -158 52 -188
	c150 -10 220 188 90 256
	c-114 52 -275 0 -293 -136
	c-15 -181 93 -229 220 -334
	c88 -87 79 -133 62 -210
	c-51 33 -94 105 -89 186
	c17 267 36 374 49 574
	c6 96 -19 134 -77 135
	c-80 1 -126 -93 -61 -133
	c85 -41 133 101 31 105
	c23 17 92 37 90 -92
	c-10 -223 -39 -342 -50 -617
	c0 -90 0 -162 96 -232
	c56 72 63 230 22 289
	c-74 106 -257 168 -255 316
	c9 153 148 185 252 133
	c86 -65 29 -192 -80 -176
	c-71 12 -105 67 -59 124"/>
<use id="tclef" transform="scale(0.045)"
	xlink:href="#utclef"/>
</defs>
<use x="25.33" y="111.01" xlink:href="#tclef"/>
<g font-family="serif" font-size="16" font-weight="bold" font-style="normal"
	transform="translate(43.83,111.01) scale(1.2,1)">
	<text y="-1" text-anchor="middle">4</text>
	<text y="-13" text-anchor="middle">2</text>
</g>
<defs>
<path id="hl" stroke="currentColor" d="m-6 0h12"/>
</defs>
<use x="67.83" y="81.01" xlink:href="#hl"/>
<use x="67.83" y="81.01" xlink:href="#hd"/>
<defs>
<path id="usharp" fill="currentColor" d="
	m136 -702
	v890
	h32
	v-890
	m128 840
	h32
	v-888
	h-32
	m-232 286
	v116
	l338 -96
	v-116
	m-338 442
	v116
	l338 -98
	v-114"/>
<use id="sh0" transform="translate(-4,5) scale(0.018)"
	xlink:href="#usharp"/>
</defs>
<use x="58.83" y="81.01" xlink:href="#sh0"/>
<path d="M64.33 81.01v20.00" stroke="currentColor" fill="none"/>
<use x="97.43" y="81.01" xlink:href="#hl"/>
<use x="97.43" y="78.01" xlink:href="#hd"/>
<path d="M93.93 78.01v21.00" stroke="currentColor" fill="none"/>
<path fill="currentColor"
	d="M93.93 99.01c0.6 -5.6 9.6 -9 5.6 -18.4
	c1.6 6 -1.3 11.6 -5.6 12.8
"/>
<defs>
<path id="r8e" fill="currentColor" d="m 0 0
	c-1.5 1.5 -2.4 2 -3.6 2
	c2.4 -2.8 -2.8 -4 -2.8 -1.2
	c0 2.7 4.3 2.4 5.9 0.6"/>
<g id="r8">
	<path d="m3.3 -4l-3.4 9.6" stroke="currentColor" fill="none"/>
	<use x="3.4" y="-4" xlink:href="#r8e"/>
</g>
</defs>
<use x="116.43" y="99.01" xlink:href="#r8"/>
<use x="146.03" y="99.01" xlink:href="#r8"/>
<use x="167.83" y="81.01" xlink:href="#hl"/>
<use x="167.83" y="81.01" xlink:href="#hd"/>
<use x="158.83" y="81.01" xlink:href="#sh0"/>
<path d="M164.33 81.01v20.00" stroke="currentColor" fill="none"/>
<path fill="currentColor"
	d="M164.33 101.01c0.6 -5.6 9.6 -9 5.6 -18.4
	c1.6 6 -1.3 11.6 -5.6 12.8
"/>
<use x="189.03" y="81.01" xlink:href="#hl"/>
<use x="189.03" y="78.01" xlink:href="#hd"/>
<path d="M185.53 78.01v21.00" stroke="currentColor" fill="none"/>
<path fill="currentColor"
	d="M185.53 99.01c0.6 -5.6 9.6 -9 5.6 -18.4
	c1.6 6 -1.3 11.6 -5.6 12.8
"/>
<use x="210.83" y="81.01" xlink:href="#hl"/>
<use x="210.83" y="81.01" xlink:href="#hd"/>
<use x="201.83" y="81.01" xlink:href="#sh0"/>
<path d="M207.33 81.01v20.00" stroke="currentColor" fill="none"/>
<path fill="currentColor"
	d="M207.33 101.01c0.6 -5.6 9.6 -9 5.6 -18.4
	c1.6 6 -1.3 11.6 -5.6 12.8
"/>
<use x="240.33" y="81.01" xlink:href="#hl"/>
<use x="240.33" y="75.01" xlink:href="#hl"/>
<use x="240.33" y="69.01" xlink:href="#hl"/>
<use x="240.33" y="63.01" xlink:href="#hl"/>
<use x="240.33" y="63.01" xlink:href="#hd"/>
<path d="M236.83 63.01v36.00" stroke="currentColor" fill="none"/>
<use x="269.93" y="81.01" xlink:href="#hl"/>
<use x="269.93" y="78.01" xlink:href="#hd"/>
<path d="M266.43 78.01v21.00" stroke="currentColor" fill="none"/>
<path fill="currentColor"
	d="M266.43 99.01c0.6 -5.6 9.6 -9 5.6 -18.4
	c1.6 6 -1.3 11.6 -5.6 12.8
"/>
<use x="289.03" y="99.01" xlink:href="#r8"/>
<use x="318.53" y="99.01" xlink:href="#r8"/>
<use x="340.33" y="81.01" xlink:href="#hl"/>
<use x="340.33" y="81.01" xlink:href="#hd"/>
<use x="331.33" y="81.01" xlink:href="#sh0"/>
<path d="M336.83 81.01v20.00" stroke="currentColor" fill="none"/>
<path fill="currentColor"
	d="M336.83 101.01c0.6 -5.6 9.6 -9 5.6 -18.4
	c1.6 6 -1.3 11.6 -5.6 12.8
"/>
<use x="361.53" y="81.01" xlink:href="#hl"/>
<use x="361.53" y="78.01" xlink:href="#hd"/>
<path d="M358.03 78.01v21.00" stroke="currentColor" fill="none"/>
<path fill="currentColor"
	d="M358.03 99.01c0.6 -5.6 9.6 -9 5.6 -18.4
	c1.6 6 -1.3 11.6 -5.6 12.8
"/>
<use x="383.33" y="81.01" xlink:href="#hl"/>
<use x="383.33" y="81.01" xlink:href="#hd"/>
<use x="374.33" y="81.01" xlink:href="#sh0"/>
<path d="M379.83 81.01v20.00" stroke="currentColor" fill="none"/>
<path fill="currentColor"
	d="M379.83 101.01c0.6 -5.6 9.6 -9 5.6 -18.4
	c1.6 6 -1.3 11.6 -5.6 12.8
"/>
<use x="412.83" y="81.01" xlink:href="#hl"/>
<use x="412.83" y="75.01" xlink:href="#hl"/>
<use x="412.83" y="69.01" xlink:href="#hl"/>
<use x="412.83" y="63.01" xlink:href="#hl"/>
<use x="412.83" y="63.01" xlink:href="#hd"/>
<path d="M409.33 63.01v36.00" stroke="currentColor" fill="none"/>
<use x="442.43" y="81.01" xlink:href="#hl"/>
<use x="442.43" y="78.01" xlink:href="#hd"/>
<path d="M438.93 78.01v21.00" stroke="currentColor" fill="none"/>
<use x="478.73" y="81.01" xlink:href="#hl"/>
<use x="478.73" y="78.01" xlink:href="#hd"/>
<path d="M475.23 78.01v21.00" stroke="currentColor" fill="none"/>
<path fill="currentColor"
	d="M475.23 99.01c0.6 -5.6 9.6 -9 5.6 -18.4
	c1.6 6 -1.3 11.6 -5.6 12.8
"/>
<use x="500.53" y="81.01" xlink:href="#hl"/>
<use x="500.53" y="81.01" xlink:href="#hd"/>
<use x="491.53" y="81.01" xlink:href="#sh0"/>
<path d="M497.03 81.01v20.00" stroke="currentColor" fill="none"/>
<path fill="currentColor"
	d="M497.03 101.01c0.6 -5.6 9.6 -9 5.6 -18.4
	c1.6 6 -1.3 11.6 -5.6 12.8
"/>
<use x="521.73" y="81.01" xlink:href="#hl"/>
<use x="521.73" y="75.01" xlink:href="#hl"/>
<use x="521.73" y="69.01" xlink:href="#hl"/>
<use x="521.73" y="63.01" xlink:href="#hl"/>
<use x="521.73" y="63.01" xlink:href="#hd"/>
<path d="M518.23 63.01v36.00" stroke="currentColor" fill="none"/>
<path fill="currentColor"
	d="M518.23 99.01c0.6 -5.6 9.6 -9 5.6 -18.4
	c1.6 6 -1.3 11.6 -5.6 12.8
"/>
<use x="542.93" y="81.01" xlink:href="#hl"/>
<use x="542.93" y="78.01" xlink:href="#hd"/>
<path d="M539.43 78.01v21.00" stroke="currentColor" fill="none"/>
<path fill="currentColor"
	d="M539.43 99.01c0.6 -5.6 9.6 -9 5.6 -18.4
	c1.6 6 -1.3 11.6 -5.6 12.8
"/>
<use x="572.43" y="81.01" xlink:href="#hl"/>
<use x="572.43" y="75.01" xlink:href="#hl"/>
<use x="572.43" y="69.01" xlink:href="#hl"/>
<use x="572.43" y="63.01" xlink:href="#hl"/>
<use x="572.43" y="63.01" xlink:href="#hd"/>
<path d="M568.93 63.01v36.00" stroke="currentColor" fill="none"/>
<path fill="currentColor"
	d="M568.93 99.01c0.6 -5.6 9.6 -9 5.6 -18.4
	c1.6 6 -1.3 11.6 -5.6 12.8
"/>
<use x="593.63" y="81.01" xlink:href="#hl"/>
<use x="593.63" y="75.01" xlink:href="#hl"/>
<use x="593.63" y="75.01" xlink:href="#hd"/>
<path d="M590.13 75.01v24.00" stroke="currentColor" fill="none"/>
<path fill="currentColor"
	d="M590.13 99.01c0.6 -5.6 9.6 -9 5.6 -18.4
	c1.6 6 -1.3 11.6 -5.6 12.8
"/>
<use x="614.83" y="81.01" xlink:href="#hl"/>
<use x="614.83" y="75.01" xlink:href="#hl"/>
<use x="614.83" y="69.01" xlink:href="#hl"/>
<use x="614.83" y="63.01" xlink:href="#hl"/>
<use x="614.83" y="63.01" xlink:href="#hd"/>
<path d="M611.33 63.01v36.00" stroke="currentColor" fill="none"/>
<path fill="currentColor"
	d="M611.33 99.01c0.6 -5.6 9.6 -9 5.6 -18.4
	c1.6 6 -1.3 11.6 -5.6 12.8
"/>
<path fill="currentColor"
	d="M632.23 99.21l14.50 0.00v-3.20l-14.50 -0.00"/>
<path fill="currentColor"
	d="M632.53 94.21l13.80 0.00v-3.20l-13.80 -0.00"/>
<use x="636.03" y="81.01" xlink:href="#hl"/>
<use x="636.03" y="75.01" xlink:href="#hl"/>
<use x="636.03" y="69.01" xlink:href="#hl"/>
<use x="636.03" y="66.01" xlink:href="#hd"/>
<path d="M632.53 66.01v32.20" stroke="currentColor" fill="none"/>
<use x="649.83" y="81.01" xlink:href="#hl"/>
<use x="649.83" y="75.01" xlink:href="#hl"/>
<use x="649.83" y="69.01" xlink:href="#hl"/>
<use x="649.83" y="69.01" xlink:href="#hd"/>
<path d="M646.33 69.01v29.20" stroke="currentColor" fill="none"/>
<use x="674.63" y="81.01" xlink:href="#hl"/>
<use x="674.63" y="75.01" xlink:href="#hl"/>
<use x="674.63" y="69.01" xlink:href="#hl"/>
<use x="674.63" y="66.01" xlink:href="#hd"/>
<path d="M671.13 66.01v33.00" stroke="currentColor" fill="none"/>
<path fill="currentColor"
	d="M671.13 99.01c0.6 -5.6 9.6 -9 5.6 -18.4
	c1.6 6 -1.3 11.6 -5.6 12.8
"/>
<path fill="currentColor"
	d="M445.93 76.01c4.61 -5.03 24.66 -5.03 29.27 -0.00
	l0.00 -0.23c-5.49 -6.80 -23.78 -6.80 -29.27 0.23"/>
</g>
</svg>
