<?xml version="1.0" standalone="no"?>
<!DOCTYPE svg PUBLIC "-//W3C//DTD SVG 1.1//EN"
	"http://www.w3.org/Graphics/SVG/1.1/DTD/svg11.dtd">
<svg xmlns="http://www.w3.org/2000/svg" version="1.1"
	xmlns:xlink="http://www.w3.org/1999/xlink"
	xml:space='preserve' color="black"
	width="7.38in" height="1.43in" viewBox="0 0 531 103">
<title>7151.abc (7151) tune 1</title>
<!-- Creator: abcm2ps-7.8.14 -->
<!-- CreationDate: Mar 13, 2016 18:54 -->
<!-- CommandLine: -qxg 7151.abc -O ../svgs/7151.svg -->
<g transform="scale(0.750)" stroke-width="0.70" font-family="Times" font-size="20.00">
<text x="354.13" y="21.67" text-anchor="middle">7151.  Concerto in D, 3rd. Mvt. - Aria B</text>
</g>
<g transform="scale(0.750)" stroke-width="0.70" font-family="Times" font-size="14.00" font-style="italic">
<text x="694.93" y="45.34" text-anchor="end">Igor Stravinsky</text>
</g>
<g transform="scale(0.525)" stroke-width="0.70" font-family="Times" font-size="14.00" font-style="italic">
<defs>
<ellipse id="hd" rx="4.1" ry="2.9"
	transform="rotate(-20)" fill="currentColor"/>
</defs>
<use x="123.47" y="94.16" xlink:href="#hd"/>
<path d="M126.97 94.16v-20.00" stroke="currentColor" fill="none"/>
</g>
<g transform="scale(0.750)" stroke-width="0.70" font-family="Times" font-size="15.00" font-weight="bold">
<text x="94.13" y="68.01">= 120</text>
<path stroke="currentColor" fill="none"
	d="M234.23 114.01v-24.00"/>
<path stroke="currentColor" fill="none"
	d="M304.13 114.01v-24.00"/>
<path stroke="currentColor" fill="none"
	d="M513.33 114.01v-24.00"/>
<path stroke="currentColor" fill="none"
	d="M664.83 114.01v-24.00"/>
<path stroke="currentColor" fill="none"
	d="M13.33 114.01h681.60m-681.60 -6h681.60m-681.60 -6h681.60m-681.60 -6h681.60m-681.60 -6h681.60"/>
<defs>
<path id="utclef" fill="currentColor" d="m-50 -90
	c-72 -41 -72 -158 52 -188
	c150 -10 220 188 90 256
	c-114 52 -275 0 -293 -136
	c-15 -181 93 -229 220 -334
	c88 -87 79 -133 62 -210
	c-51 33 -94 105 -89 186
	c17 267 36 374 49 574
	c6 96 -19 134 -77 135
	c-80 1 -126 -93 -61 -133
	c85 -41 133 101 31 105
	c23 17 92 37 90 -92
	c-10 -223 -39 -342 -50 -617
	c0 -90 0 -162 96 -232
	c56 72 63 230 22 289
	c-74 106 -257 168 -255 316
	c9 153 148 185 252 133
	c86 -65 29 -192 -80 -176
	c-71 12 -105 67 -59 124"/>
<use id="tclef" transform="scale(0.045)"
	xlink:href="#utclef"/>
</defs>
<use x="25.33" y="114.01" xlink:href="#tclef"/>
<defs>
<path id="usharp" fill="currentColor" d="
	m136 -702
	v890
	h32
	v-890
	m128 840
	h32
	v-888
	h-32
	m-232 286
	v116
	l338 -96
	v-116
	m-338 442
	v116
	l338 -98
	v-114"/>
<use id="sh0" transform="translate(-4,5) scale(0.018)"
	xlink:href="#usharp"/>
</defs>
<use x="40.33" y="90.01" xlink:href="#sh0"/>
<use x="45.83" y="99.01" xlink:href="#sh0"/>
<use x="51.33" y="87.01" xlink:href="#sh0"/>
<g font-family="serif" font-size="16" font-weight="bold" font-style="normal"
	transform="translate(67.33,114.01) scale(1.2,1)">
	<text y="-1" text-anchor="middle">4</text>
	<text y="-13" text-anchor="middle">4</text>
</g>
<defs>
<path id="hl" stroke="currentColor" d="m-6 0h12"/>
</defs>
<use x="85.83" y="84.01" xlink:href="#hl"/>
<use x="85.83" y="78.01" xlink:href="#hl"/>
<defs>
<path id="Hd" fill="currentColor" d="m3 -1.6
	c-1 -1.8 -7 1.4 -6 3.2
	c1 1.8 7 -1.4 6 -3.2
	m0.5 -0.3
	c2 3.8 -5 7.6 -7 3.8
	c-2 -3.8 5 -7.6 7 -3.8"/>
</defs>
<use x="85.83" y="78.01" xlink:href="#Hd"/>
<circle fill="currentColor" cx="95.83" cy="75.01" r="1.2"/>
<path d="M82.33 78.01v24.00" stroke="currentColor" fill="none"/>
<path fill="currentColor"
	d="M138.63 108.21l35.10 0.00v-3.20l-35.10 -0.00"/>
<path fill="currentColor"
	d="M138.93 103.21l34.40 0.00v-3.20l-34.40 -0.00"/>
<path fill="currentColor"
	d="M138.93 98.21l34.40 0.00v-3.20l-34.40 -0.00"/>
<use x="142.43" y="84.01" xlink:href="#hl"/>
<use x="142.43" y="81.01" xlink:href="#hd"/>
<path d="M138.93 81.01v26.20" stroke="currentColor" fill="none"/>
<use x="153.93" y="84.01" xlink:href="#hl"/>
<use x="153.93" y="78.01" xlink:href="#hl"/>
<use x="153.93" y="78.01" xlink:href="#hd"/>
<path d="M150.43 78.01v29.20" stroke="currentColor" fill="none"/>
<use x="165.43" y="84.01" xlink:href="#hl"/>
<use x="165.43" y="81.01" xlink:href="#hd"/>
<path d="M161.93 81.01v26.20" stroke="currentColor" fill="none"/>
<use x="176.93" y="84.01" xlink:href="#hl"/>
<use x="176.93" y="78.01" xlink:href="#hl"/>
<use x="176.93" y="78.01" xlink:href="#hd"/>
<path d="M173.43 78.01v29.20" stroke="currentColor" fill="none"/>
<path fill="currentColor"
	d="M185.73 109.01l35.10 0.00v-3.20l-35.10 -0.00"/>
<path fill="currentColor"
	d="M186.13 104.01l34.40 0.00v-3.20l-34.40 -0.00"/>
<path fill="currentColor"
	d="M186.13 99.01l34.40 0.00v-3.20l-34.40 -0.00"/>
<use x="189.63" y="84.01" xlink:href="#hl"/>
<use x="189.63" y="81.01" xlink:href="#hd"/>
<path d="M186.13 81.01v27.00" stroke="currentColor" fill="none"/>
<use x="201.03" y="84.01" xlink:href="#hl"/>
<use x="201.03" y="78.01" xlink:href="#hl"/>
<use x="201.03" y="78.01" xlink:href="#hd"/>
<path d="M197.53 78.01v30.00" stroke="currentColor" fill="none"/>
<use x="212.53" y="84.01" xlink:href="#hl"/>
<use x="212.53" y="81.01" xlink:href="#hd"/>
<path d="M209.03 81.01v27.00" stroke="currentColor" fill="none"/>
<use x="224.03" y="84.01" xlink:href="#hl"/>
<use x="224.03" y="84.01" xlink:href="#hd"/>
<path d="M220.53 84.01v24.00" stroke="currentColor" fill="none"/>
<defs>
<path id="hl1" stroke="currentColor" d="m-7 0h14"/>
</defs>
<use x="249.23" y="84.01" xlink:href="#hl1"/>
<defs>
<path id="HD" fill="currentColor" d="m-2.7 -1.4
	c1.5 -2.8 6.9 0 5.3 2.7
	c-1.5 2.8 -6.9 0 -5.3 -2.7
	m8.3 1.4
	c0 -1.5 -2.2 -3 -5.6 -3
	c-3.4 0 -5.6 1.5 -5.6 3
	c0 1.5 2.2 3 5.6 3
	c3.4 0 5.6 -1.5 5.6 -3"/>
</defs>
<use x="249.23" y="81.01" xlink:href="#HD"/>
<use x="316.93" y="84.01" xlink:href="#hl"/>
<use x="316.93" y="81.01" xlink:href="#hd"/>
<path d="M313.43 81.01v21.00" stroke="currentColor" fill="none"/>
<path fill="currentColor"
	d="M313.43 102.01c0.6 -5.6 9.6 -9 5.6 -18.4
	c1.6 6 -1.3 11.6 -5.6 12.8
"/>
<path fill="currentColor"
	d="M338.43 108.21l35.10 0.00v-3.20l-35.10 -0.00"/>
<path fill="currentColor"
	d="M338.73 103.21l34.40 0.00v-3.20l-34.40 -0.00"/>
<path fill="currentColor"
	d="M338.73 98.21l34.40 0.00v-3.20l-34.40 -0.00"/>
<use x="342.23" y="84.01" xlink:href="#hl"/>
<use x="342.23" y="81.01" xlink:href="#hd"/>
<path d="M338.73 81.01v26.20" stroke="currentColor" fill="none"/>
<use x="353.73" y="84.01" xlink:href="#hl"/>
<use x="353.73" y="81.01" xlink:href="#hd"/>
<path d="M350.23 81.01v26.20" stroke="currentColor" fill="none"/>
<use x="365.23" y="84.01" xlink:href="#hl"/>
<use x="365.23" y="78.01" xlink:href="#hl"/>
<use x="365.23" y="78.01" xlink:href="#hd"/>
<path d="M361.73 78.01v29.20" stroke="currentColor" fill="none"/>
<use x="376.73" y="84.01" xlink:href="#hl"/>
<use x="376.73" y="81.01" xlink:href="#hd"/>
<path d="M373.23 81.01v26.20" stroke="currentColor" fill="none"/>
<use x="389.43" y="84.01" xlink:href="#hl"/>
<use x="389.43" y="84.01" xlink:href="#hd"/>
<path d="M385.93 84.01v25.00" stroke="currentColor" fill="none"/>
<path fill="currentColor"
	d="M385.93 109.01c0.9 -3.7 9.1 -6.4 6 -12.4
	c1 5.4 -4.2 8.4 -6 8.4
M385.93 103.61c0.9 -3.7 9.1 -6.4 6 -12.4
	c1 5.4 -4.2 8.4 -6 8.4
M385.93 98.21c0.9 -3.7 9.1 -6.4 6 -12.4
	c1 5.4 -4.2 8.4 -6 8.4
"/>
<use x="402.13" y="84.01" xlink:href="#hl"/>
<use x="402.13" y="81.01" xlink:href="#hd"/>
<circle fill="currentColor" cx="410.13" cy="81.01" r="1.2"/>
<path d="M398.63 81.01v21.00" stroke="currentColor" fill="none"/>
<path fill="currentColor"
	d="M438.83 107.41l57.10 4.80v-3.20l-57.10 -4.80"/>
<path fill="currentColor"
	d="M445.13 103.01l-6.00 -0.50v-3.20l6.00 0.50"/>
<path fill="currentColor"
	d="M489.53 106.71l6.00 0.50v-3.20l-6.00 -0.50"/>
<path fill="currentColor"
	d="M445.13 98.01l-6.00 -0.50v-3.20l6.00 0.50"/>
<use x="442.63" y="84.01" xlink:href="#hl"/>
<use x="442.63" y="81.01" xlink:href="#hd"/>
<path d="M439.13 81.01v25.50" stroke="currentColor" fill="none"/>
<use x="454.13" y="84.01" xlink:href="#hl"/>
<use x="454.13" y="84.01" xlink:href="#hd"/>
<path d="M450.63 84.01v23.40" stroke="currentColor" fill="none"/>
<use x="476.63" y="87.01" xlink:href="#hd"/>
<path d="M473.13 87.01v22.30" stroke="currentColor" fill="none"/>
<use x="499.03" y="90.01" xlink:href="#hd"/>
<path d="M495.53 90.01v21.20" stroke="currentColor" fill="none"/>
<path fill="currentColor"
	d="M522.23 112.21l41.50 -4.60v-3.20l-41.50 4.60"/>
<path fill="currentColor"
	d="M528.63 106.51l-6.00 0.70v-3.20l6.00 -0.70"/>
<use x="526.13" y="90.01" xlink:href="#hd"/>
<path d="M522.63 90.01v21.20" stroke="currentColor" fill="none"/>
<use x="544.13" y="84.01" xlink:href="#hl"/>
<use x="544.13" y="78.01" xlink:href="#hl"/>
<use x="544.13" y="72.01" xlink:href="#hl"/>
<use x="544.13" y="69.01" xlink:href="#hd"/>
<defs>
<path id="unat" fill="currentColor" d="
	m96 -750
	h-32
	v716
	l32 -8
	l182 -54
	v282
	h32
	v-706
	l-34 10
	l-180 50
	v-290
	m0 592
	v-190
	l182 -52
	v188"/>
<use id="nt0" transform="translate(-3,5) scale(0.018)"
	xlink:href="#unat"/>
</defs>
<use x="535.13" y="69.01" xlink:href="#nt0"/>
<path d="M540.63 69.01v40.20" stroke="currentColor" fill="none"/>
<use x="566.93" y="84.01" xlink:href="#hl"/>
<use x="566.93" y="78.01" xlink:href="#hl"/>
<use x="566.93" y="72.01" xlink:href="#hl"/>
<use x="566.93" y="69.01" xlink:href="#hd"/>
<use x="557.93" y="69.01" xlink:href="#sh0"/>
<path d="M563.43 69.01v37.70" stroke="currentColor" fill="none"/>
<use x="591.93" y="84.01" xlink:href="#hl"/>
<use x="591.93" y="78.01" xlink:href="#hl"/>
<use x="591.93" y="78.01" xlink:href="#Hd"/>
<path d="M588.43 78.01v24.00" stroke="currentColor" fill="none"/>
<use x="641.73" y="84.01" xlink:href="#hl"/>
<use x="641.73" y="78.01" xlink:href="#hl"/>
<use x="641.73" y="78.01" xlink:href="#hd"/>
<circle fill="currentColor" cx="649.73" cy="75.01" r="1.2"/>
<path d="M638.23 78.01v24.00" stroke="currentColor" fill="none"/>
<path fill="currentColor"
	d="M638.23 102.01c0.6 -5.6 9.6 -9 5.6 -18.4
	c1.6 6 -1.3 11.6 -5.6 12.8
"/>
<use x="677.63" y="84.01" xlink:href="#hl"/>
<use x="677.63" y="78.01" xlink:href="#hl"/>
<use x="677.63" y="78.01" xlink:href="#hd"/>
<path d="M674.13 78.01v24.00" stroke="currentColor" fill="none"/>
<path fill="currentColor"
	d="M674.13 102.01c0.9 -3.7 9.1 -6.4 6 -12.4
	c1 5.4 -4.2 8.4 -6 8.4
M674.13 96.61c0.9 -3.7 9.1 -6.4 6 -12.4
	c1 5.4 -4.2 8.4 -6 8.4
"/>
<path fill="currentColor"
	d="M251.73 79.01c9.12 -5.61 52.61 -5.61 61.73 -0.00
	l0.00 -0.26c-10.97 -7.35 -50.76 -7.35 -61.73 0.26"/>
<path fill="currentColor"
	d="M320.43 79.01c2.88 -4.83 15.42 -4.83 18.30 -0.00
	l0.00 -0.22c-3.43 -6.61 -14.87 -6.61 -18.30 0.22"/>
<path fill="currentColor"
	d="M405.63 79.01c5.29 -5.10 28.27 -5.10 33.56 -0.00
	l0.00 -0.23c-6.29 -6.87 -27.26 -6.87 -33.56 0.23"/>
<path fill="currentColor"
	d="M502.53 90.01c3.16 -4.86 16.89 -4.86 20.05 -0.00
	l0.00 -0.22c-3.76 -6.64 -16.29 -6.64 -20.05 0.22"/>
<path fill="currentColor"
	d="M595.43 78.01c6.70 -5.27 36.17 -5.27 42.86 -0.00
	l0.00 -0.24c-7.98 -7.03 -34.88 -7.03 -42.86 0.24"/>
<path fill="currentColor"
	d="M645.23 72.01c4.54 -5.02 24.29 -5.02 28.83 -0.00
	l0.00 -0.23c-5.40 -6.79 -23.42 -6.79 -28.83 0.23"/>
</g>
</svg>
