<?xml version="1.0" standalone="no"?>
<!DOCTYPE svg PUBLIC "-//W3C//DTD SVG 1.1//EN"
	"http://www.w3.org/Graphics/SVG/1.1/DTD/svg11.dtd">
<svg xmlns="http://www.w3.org/2000/svg" version="1.1"
	xmlns:xlink="http://www.w3.org/1999/xlink"
	xml:space='preserve' color="black"
	width="7.38in" height="1.61in" viewBox="0 0 531 116">
<title>7178.abc (7178) tune 1</title>
<!-- Creator: abcm2ps-7.8.14 -->
<!-- CreationDate: Mar 13, 2016 18:54 -->
<!-- CommandLine: -qxg 7178.abc -O ../svgs/7178.svg -->
<g transform="scale(0.750)" stroke-width="0.70" font-family="Times" font-size="20.00">
<text x="354.13" y="21.67" text-anchor="middle">7178.  Petrouchka, Le Tour de Passe-passe</text>
</g>
<g transform="scale(0.750)" stroke-width="0.70" font-family="Times" font-size="14.00" font-style="italic">
<text x="694.93" y="45.34" text-anchor="end">Igor Stravinsky</text>
</g>
<g transform="scale(0.525)" stroke-width="0.70" font-family="Times" font-size="14.00" font-style="italic">
<defs>
<ellipse id="hd" rx="4.1" ry="2.9"
	transform="rotate(-20)" fill="currentColor"/>
</defs>
<use x="122.76" y="94.16" xlink:href="#hd"/>
<path d="M126.26 94.16v-20.00" stroke="currentColor" fill="none"/>
</g>
<g transform="scale(0.750)" stroke-width="0.70" font-family="Times" font-size="15.00" font-weight="bold">
<text x="93.63" y="68.01">= 120</text>
<path stroke="currentColor" fill="none"
	d="M317.53 132.01v-24.00"/>
<path stroke="currentColor" fill="none"
	d="M567.03 132.01v-24.00"/>
<path stroke="currentColor" fill="none"
	d="M13.33 132.01h681.60m-681.60 -6h681.60m-681.60 -6h681.60m-681.60 -6h681.60m-681.60 -6h681.60"/>
<text font-family="serif" font-size="12" font-style="italic" font-weight="normal"
	x="97.43" y="137.01" text-anchor="middle">3</text>
<defs>
<path id="utclef" fill="currentColor" d="m-50 -90
	c-72 -41 -72 -158 52 -188
	c150 -10 220 188 90 256
	c-114 52 -275 0 -293 -136
	c-15 -181 93 -229 220 -334
	c88 -87 79 -133 62 -210
	c-51 33 -94 105 -89 186
	c17 267 36 374 49 574
	c6 96 -19 134 -77 135
	c-80 1 -126 -93 -61 -133
	c85 -41 133 101 31 105
	c23 17 92 37 90 -92
	c-10 -223 -39 -342 -50 -617
	c0 -90 0 -162 96 -232
	c56 72 63 230 22 289
	c-74 106 -257 168 -255 316
	c9 153 148 185 252 133
	c86 -65 29 -192 -80 -176
	c-71 12 -105 67 -59 124"/>
<use id="tclef" transform="scale(0.045)"
	xlink:href="#utclef"/>
</defs>
<use x="25.33" y="132.01" xlink:href="#tclef"/>
<defs>
<path id="uflat" fill="currentColor" d="
	m100 -746
	h32
	v734
	l-32 4
	m32 -332
	c46 -72 152 -90 208 -20
	c100 110 -120 326 -208 348
	m0 -28
	c54 0 200 -206 130 -290
	c-50 -60 -130 -4 -130 34"/>
<use id="ft0" transform="translate(-3.5,3.5) scale(0.018)"
	xlink:href="#uflat"/>
</defs>
<use x="40.33" y="120.01" xlink:href="#ft0"/>
<use x="45.83" y="111.01" xlink:href="#ft0"/>
<use x="51.33" y="123.01" xlink:href="#ft0"/>
<g font-family="serif" font-size="16" font-weight="bold" font-style="normal"
	transform="translate(67.33,132.01) scale(1.2,1)">
	<text y="-1" text-anchor="middle">4</text>
	<text y="-13" text-anchor="middle">4</text>
</g>
<path fill="currentColor"
	d="M81.53 120.21l28.10 0.00v-3.20l-28.10 -0.00"/>
<path fill="currentColor"
	d="M81.83 115.21l27.40 0.00v-3.20l-27.40 -0.00"/>
<defs>
<path id="hl" stroke="currentColor" d="m-6 0h12"/>
</defs>
<use x="85.33" y="102.01" xlink:href="#hl"/>
<use x="85.33" y="96.01" xlink:href="#hl"/>
<use x="85.33" y="93.01" xlink:href="#hd"/>
<path d="M81.83 93.01v26.20" stroke="currentColor" fill="none"/>
<use x="99.03" y="102.01" xlink:href="#hl"/>
<use x="99.03" y="96.01" xlink:href="#hl"/>
<use x="99.03" y="90.01" xlink:href="#hl"/>
<use x="99.03" y="90.01" xlink:href="#hd"/>
<path d="M95.53 90.01v29.20" stroke="currentColor" fill="none"/>
<use x="112.73" y="102.01" xlink:href="#hl"/>
<use x="112.73" y="96.01" xlink:href="#hl"/>
<use x="112.73" y="90.01" xlink:href="#hl"/>
<use x="112.73" y="84.01" xlink:href="#hl"/>
<use x="112.73" y="84.01" xlink:href="#hd"/>
<path d="M109.23 84.01v35.20" stroke="currentColor" fill="none"/>
<path fill="currentColor"
	d="M124.13 120.21l28.90 0.00v-3.20l-28.90 -0.00"/>
<path fill="currentColor"
	d="M146.73 115.21l6.00 0.00v-3.20l-6.00 -0.00"/>
<use x="127.93" y="102.01" xlink:href="#hl"/>
<use x="127.93" y="96.01" xlink:href="#hl"/>
<use x="127.93" y="90.01" xlink:href="#hl"/>
<use x="127.93" y="84.01" xlink:href="#hl"/>
<use x="127.93" y="78.01" xlink:href="#hl"/>
<use x="127.93" y="78.01" xlink:href="#hd"/>
<circle fill="currentColor" cx="135.93" cy="75.01" r="1.2"/>
<path d="M124.43 78.01v41.20" stroke="currentColor" fill="none"/>
<use x="156.23" y="102.01" xlink:href="#hl"/>
<use x="156.23" y="96.01" xlink:href="#hl"/>
<use x="156.23" y="90.01" xlink:href="#hl"/>
<use x="156.23" y="84.01" xlink:href="#hl"/>
<use x="156.23" y="81.01" xlink:href="#hd"/>
<path d="M152.73 81.01v38.20" stroke="currentColor" fill="none"/>
<path fill="currentColor"
	d="M171.83 120.21l64.00 0.00v-3.20l-64.00 -0.00"/>
<path fill="currentColor"
	d="M172.23 115.21l17.50 0.00v-3.20l-17.50 -0.00"/>
<path fill="currentColor"
	d="M229.53 115.21l6.00 0.00v-3.20l-6.00 -0.00"/>
<use x="175.73" y="102.01" xlink:href="#hl"/>
<use x="175.73" y="96.01" xlink:href="#hl"/>
<use x="175.73" y="90.01" xlink:href="#hl"/>
<use x="175.73" y="87.01" xlink:href="#hd"/>
<path d="M172.23 87.01v32.20" stroke="currentColor" fill="none"/>
<use x="193.23" y="102.01" xlink:href="#hl"/>
<use x="193.23" y="96.01" xlink:href="#hl"/>
<use x="193.23" y="93.01" xlink:href="#hd"/>
<path d="M189.73 93.01v26.20" stroke="currentColor" fill="none"/>
<use x="210.73" y="102.01" xlink:href="#hl"/>
<use x="210.73" y="99.01" xlink:href="#hd"/>
<circle fill="currentColor" cx="218.73" cy="99.01" r="1.2"/>
<path d="M207.23 99.01v20.20" stroke="currentColor" fill="none"/>
<use x="239.03" y="102.01" xlink:href="#hl"/>
<use x="239.03" y="96.01" xlink:href="#hl"/>
<use x="239.03" y="93.01" xlink:href="#hd"/>
<path d="M235.53 93.01v26.20" stroke="currentColor" fill="none"/>
<path fill="currentColor"
	d="M254.63 120.21l18.20 0.00v-3.20l-18.20 -0.00"/>
<path fill="currentColor"
	d="M254.93 115.21l17.50 0.00v-3.20l-17.50 -0.00"/>
<use x="258.43" y="102.01" xlink:href="#hl"/>
<use x="258.43" y="96.01" xlink:href="#hl"/>
<use x="258.43" y="90.01" xlink:href="#hl"/>
<use x="258.43" y="87.01" xlink:href="#hd"/>
<path d="M254.93 87.01v32.20" stroke="currentColor" fill="none"/>
<use x="276.03" y="102.01" xlink:href="#hl"/>
<use x="276.03" y="96.01" xlink:href="#hl"/>
<use x="276.03" y="90.01" xlink:href="#hl"/>
<use x="276.03" y="84.01" xlink:href="#hl"/>
<use x="276.03" y="81.01" xlink:href="#hd"/>
<path d="M272.53 81.01v38.20" stroke="currentColor" fill="none"/>
<use x="295.53" y="102.01" xlink:href="#hl"/>
<use x="295.53" y="96.01" xlink:href="#hl"/>
<use x="295.53" y="90.01" xlink:href="#hl"/>
<use x="295.53" y="84.01" xlink:href="#hl"/>
<use x="295.53" y="78.01" xlink:href="#hl"/>
<use x="295.53" y="75.01" xlink:href="#hd"/>
<path d="M292.03 75.01v45.00" stroke="currentColor" fill="none"/>
<path fill="currentColor"
	d="M292.03 120.01c0.6 -5.6 9.6 -9 5.6 -18.4
	c1.6 6 -1.3 11.6 -5.6 12.8
"/>
<path fill="currentColor"
	d="M327.53 120.21l18.20 0.00v-3.20l-18.20 -0.00"/>
<path fill="currentColor"
	d="M327.83 115.21l17.50 0.00v-3.20l-17.50 -0.00"/>
<use x="331.33" y="102.01" xlink:href="#hl"/>
<use x="331.33" y="96.01" xlink:href="#hl"/>
<use x="331.33" y="90.01" xlink:href="#hl"/>
<use x="331.33" y="84.01" xlink:href="#hl"/>
<use x="331.33" y="78.01" xlink:href="#hl"/>
<use x="331.33" y="75.01" xlink:href="#hd"/>
<path d="M327.83 75.01v44.20" stroke="currentColor" fill="none"/>
<use x="348.83" y="102.01" xlink:href="#hl"/>
<use x="348.83" y="96.01" xlink:href="#hl"/>
<use x="348.83" y="90.01" xlink:href="#hl"/>
<use x="348.83" y="84.01" xlink:href="#hl"/>
<use x="348.83" y="78.01" xlink:href="#hl"/>
<use x="348.83" y="78.01" xlink:href="#hd"/>
<path d="M345.33 78.01v41.20" stroke="currentColor" fill="none"/>
<path fill="currentColor"
	d="M364.53 120.21l64.00 0.00v-3.20l-64.00 -0.00"/>
<path fill="currentColor"
	d="M364.83 115.21l17.50 0.00v-3.20l-17.50 -0.00"/>
<path fill="currentColor"
	d="M422.13 115.21l6.00 0.00v-3.20l-6.00 -0.00"/>
<use x="368.33" y="102.01" xlink:href="#hl"/>
<use x="368.33" y="96.01" xlink:href="#hl"/>
<use x="368.33" y="90.01" xlink:href="#hl"/>
<use x="368.33" y="84.01" xlink:href="#hl"/>
<use x="368.33" y="81.01" xlink:href="#hd"/>
<path d="M364.83 81.01v38.20" stroke="currentColor" fill="none"/>
<use x="385.93" y="102.01" xlink:href="#hl"/>
<use x="385.93" y="96.01" xlink:href="#hl"/>
<use x="385.93" y="90.01" xlink:href="#hl"/>
<use x="385.93" y="87.01" xlink:href="#hd"/>
<path d="M382.43 87.01v32.20" stroke="currentColor" fill="none"/>
<use x="403.43" y="102.01" xlink:href="#hl"/>
<use x="403.43" y="96.01" xlink:href="#hl"/>
<use x="403.43" y="90.01" xlink:href="#hl"/>
<use x="403.43" y="90.01" xlink:href="#hd"/>
<circle fill="currentColor" cx="411.43" cy="87.01" r="1.2"/>
<path d="M399.93 90.01v29.20" stroke="currentColor" fill="none"/>
<use x="431.63" y="102.01" xlink:href="#hl"/>
<use x="431.63" y="96.01" xlink:href="#hl"/>
<use x="431.63" y="93.01" xlink:href="#hd"/>
<path d="M428.13 93.01v26.20" stroke="currentColor" fill="none"/>
<path fill="currentColor"
	d="M447.33 120.21l64.00 0.00v-3.20l-64.00 -0.00"/>
<path fill="currentColor"
	d="M447.63 115.21l17.50 0.00v-3.20l-17.50 -0.00"/>
<path fill="currentColor"
	d="M504.93 115.21l6.00 0.00v-3.20l-6.00 -0.00"/>
<use x="451.13" y="102.01" xlink:href="#hl"/>
<use x="451.13" y="96.01" xlink:href="#hl"/>
<use x="451.13" y="90.01" xlink:href="#hl"/>
<use x="451.13" y="90.01" xlink:href="#hd"/>
<path d="M447.63 90.01v29.20" stroke="currentColor" fill="none"/>
<use x="468.73" y="102.01" xlink:href="#hl"/>
<use x="468.73" y="96.01" xlink:href="#hl"/>
<use x="468.73" y="90.01" xlink:href="#hl"/>
<use x="468.73" y="84.01" xlink:href="#hl"/>
<use x="468.73" y="84.01" xlink:href="#hd"/>
<path d="M465.23 84.01v35.20" stroke="currentColor" fill="none"/>
<use x="486.23" y="102.01" xlink:href="#hl"/>
<use x="486.23" y="96.01" xlink:href="#hl"/>
<use x="486.23" y="90.01" xlink:href="#hl"/>
<use x="486.23" y="84.01" xlink:href="#hl"/>
<use x="486.23" y="78.01" xlink:href="#hl"/>
<use x="486.23" y="78.01" xlink:href="#hd"/>
<circle fill="currentColor" cx="494.23" cy="75.01" r="1.2"/>
<path d="M482.73 78.01v41.20" stroke="currentColor" fill="none"/>
<use x="514.43" y="102.01" xlink:href="#hl"/>
<use x="514.43" y="96.01" xlink:href="#hl"/>
<use x="514.43" y="90.01" xlink:href="#hl"/>
<use x="514.43" y="84.01" xlink:href="#hl"/>
<use x="514.43" y="81.01" xlink:href="#hd"/>
<path d="M510.93 81.01v38.20" stroke="currentColor" fill="none"/>
<path fill="currentColor"
	d="M530.13 120.21l18.20 0.00v-3.20l-18.20 -0.00"/>
<path fill="currentColor"
	d="M530.43 115.21l17.50 0.00v-3.20l-17.50 -0.00"/>
<use x="533.93" y="102.01" xlink:href="#hl"/>
<use x="533.93" y="96.01" xlink:href="#hl"/>
<use x="533.93" y="90.01" xlink:href="#hl"/>
<use x="533.93" y="87.01" xlink:href="#hd"/>
<path d="M530.43 87.01v32.20" stroke="currentColor" fill="none"/>
<use x="551.53" y="102.01" xlink:href="#hl"/>
<use x="551.53" y="96.01" xlink:href="#hl"/>
<use x="551.53" y="93.01" xlink:href="#hd"/>
<path d="M548.03 93.01v26.20" stroke="currentColor" fill="none"/>
<path fill="currentColor"
	d="M577.03 120.21l28.90 0.00v-3.20l-28.90 -0.00"/>
<path fill="currentColor"
	d="M599.63 115.21l6.00 0.00v-3.20l-6.00 -0.00"/>
<use x="580.93" y="102.01" xlink:href="#hl"/>
<use x="580.93" y="99.01" xlink:href="#hd"/>
<circle fill="currentColor" cx="588.93" cy="99.01" r="1.2"/>
<path d="M577.43 99.01v20.20" stroke="currentColor" fill="none"/>
<use x="609.13" y="102.01" xlink:href="#hl"/>
<use x="609.13" y="96.01" xlink:href="#hl"/>
<use x="609.13" y="93.01" xlink:href="#hd"/>
<path d="M605.63 93.01v26.20" stroke="currentColor" fill="none"/>
<path fill="currentColor"
	d="M624.73 120.21l35.80 0.00v-3.20l-35.80 -0.00"/>
<path fill="currentColor"
	d="M625.13 115.21l17.50 0.00v-3.20l-17.50 -0.00"/>
<use x="628.63" y="102.01" xlink:href="#hl"/>
<use x="628.63" y="96.01" xlink:href="#hl"/>
<use x="628.63" y="90.01" xlink:href="#hl"/>
<use x="628.63" y="87.01" xlink:href="#hd"/>
<path d="M625.13 87.01v32.20" stroke="currentColor" fill="none"/>
<use x="646.13" y="102.01" xlink:href="#hl"/>
<use x="646.13" y="96.01" xlink:href="#hl"/>
<use x="646.13" y="90.01" xlink:href="#hl"/>
<use x="646.13" y="84.01" xlink:href="#hl"/>
<use x="646.13" y="81.01" xlink:href="#hd"/>
<path d="M642.63 81.01v38.20" stroke="currentColor" fill="none"/>
<use x="663.63" y="102.01" xlink:href="#hl"/>
<use x="663.63" y="96.01" xlink:href="#hl"/>
<use x="663.63" y="90.01" xlink:href="#hl"/>
<use x="663.63" y="84.01" xlink:href="#hl"/>
<use x="663.63" y="78.01" xlink:href="#hl"/>
<use x="663.63" y="72.01" xlink:href="#hl"/>
<use x="663.63" y="72.01" xlink:href="#hd"/>
<circle fill="currentColor" cx="671.63" cy="69.01" r="1.2"/>
<path d="M660.13 72.01v47.20" stroke="currentColor" fill="none"/>
<path fill="currentColor"
	d="M299.03 73.01c4.54 -5.02 24.30 -5.02 28.85 -0.00
	l0.00 -0.23c-5.41 -6.79 -23.44 -6.79 -28.85 0.23"/>
</g>
</svg>
