<?xml version="1.0" standalone="no"?>
<!DOCTYPE svg PUBLIC "-//W3C//DTD SVG 1.1//EN"
	"http://www.w3.org/Graphics/SVG/1.1/DTD/svg11.dtd">
<svg xmlns="http://www.w3.org/2000/svg" version="1.1"
	xmlns:xlink="http://www.w3.org/1999/xlink"
	xml:space='preserve' color="black"
	width="7.38in" height="1.34in" viewBox="0 0 531 97">
<title>7226.abc (7226) tune 1</title>
<!-- Creator: abcm2ps-7.8.14 -->
<!-- CreationDate: Mar 13, 2016 18:54 -->
<!-- CommandLine: -qxg 7226.abc -O ../svgs/7226.svg -->
<g transform="scale(0.750)" stroke-width="0.70" font-family="Times" font-size="20.00">
<text x="354.13" y="21.67" text-anchor="middle">7226.  Symphony in Three Mvts., 1st. Mvt. - 2nd. Theme</text>
</g>
<g transform="scale(0.750)" stroke-width="0.70" font-family="Times" font-size="14.00" font-style="italic">
<text x="694.93" y="45.34" text-anchor="end">Igor Stravinsky</text>
</g>
<g transform="scale(0.525)" stroke-width="0.70" font-family="Times" font-size="14.00" font-style="italic">
<defs>
<ellipse id="hd" rx="4.1" ry="2.9"
	transform="rotate(-20)" fill="currentColor"/>
</defs>
<use x="89.19" y="94.16" xlink:href="#hd"/>
<path d="M92.69 94.16v-20.00" stroke="currentColor" fill="none"/>
</g>
<g transform="scale(0.750)" stroke-width="0.70" font-family="Times" font-size="15.00" font-weight="bold">
<text x="70.13" y="68.01">= 120</text>
<path stroke="currentColor" fill="none"
	d="M209.83 106.01v-24.00"/>
<path stroke="currentColor" fill="none"
	d="M380.33 106.01v-24.00"/>
<path stroke="currentColor" fill="none"
	d="M465.83 106.01v-24.00"/>
<path stroke="currentColor" fill="none"
	d="M13.33 106.01h452.50m-452.50 -6h452.50m-452.50 -6h452.50m-452.50 -6h452.50m-452.50 -6h452.50"/>
<defs>
<path id="utclef" fill="currentColor" d="m-50 -90
	c-72 -41 -72 -158 52 -188
	c150 -10 220 188 90 256
	c-114 52 -275 0 -293 -136
	c-15 -181 93 -229 220 -334
	c88 -87 79 -133 62 -210
	c-51 33 -94 105 -89 186
	c17 267 36 374 49 574
	c6 96 -19 134 -77 135
	c-80 1 -126 -93 -61 -133
	c85 -41 133 101 31 105
	c23 17 92 37 90 -92
	c-10 -223 -39 -342 -50 -617
	c0 -90 0 -162 96 -232
	c56 72 63 230 22 289
	c-74 106 -257 168 -255 316
	c9 153 148 185 252 133
	c86 -65 29 -192 -80 -176
	c-71 12 -105 67 -59 124"/>
<use id="tclef" transform="scale(0.045)"
	xlink:href="#utclef"/>
</defs>
<use x="25.33" y="106.01" xlink:href="#tclef"/>
<g font-family="serif" font-size="16" font-weight="bold" font-style="normal"
	transform="translate(43.83,106.01) scale(1.2,1)">
	<text y="-1" text-anchor="middle">4</text>
	<text y="-13" text-anchor="middle">4</text>
</g>
<defs>
<path id="r4" fill="currentColor" d="m-1 -8.5
	l3.6 5.1 -2.1 5.2 2.2 4.3
	c-2.6 -2.3 -5.1 0 -2.4 2.6
	c-4.8 -3 -1.5 -6.9 1.4 -4.1
	l-3.1 -4.5 1.9 -5.1 -1.5 -3.5"/>
</defs>
<use x="61.83" y="94.01" xlink:href="#r4"/>
<use x="97.83" y="100.01" xlink:href="#hd"/>
<path d="M101.33 100.01v-20.00" stroke="currentColor" fill="none"/>
<use x="137.83" y="97.01" xlink:href="#hd"/>
<defs>
<path id="usharp" fill="currentColor" d="
	m136 -702
	v890
	h32
	v-890
	m128 840
	h32
	v-888
	h-32
	m-232 286
	v116
	l338 -96
	v-116
	m-338 442
	v116
	l338 -98
	v-114"/>
<use id="sh0" transform="translate(-4,5) scale(0.018)"
	xlink:href="#usharp"/>
</defs>
<use x="128.83" y="97.01" xlink:href="#sh0"/>
<path d="M141.33 97.01v-20.00" stroke="currentColor" fill="none"/>
<use x="177.83" y="79.01" xlink:href="#hd"/>
<path d="M174.33 79.01v20.00" stroke="currentColor" fill="none"/>
<use x="228.33" y="97.01" xlink:href="#hd"/>
<use x="219.33" y="97.01" xlink:href="#sh0"/>
<path d="M231.83 97.01v-20.00" stroke="currentColor" fill="none"/>
<use x="268.33" y="100.01" xlink:href="#hd"/>
<path d="M271.83 100.01v-20.00" stroke="currentColor" fill="none"/>
<use x="308.33" y="97.01" xlink:href="#hd"/>
<use x="299.33" y="97.01" xlink:href="#sh0"/>
<path d="M311.83 97.01v-20.00" stroke="currentColor" fill="none"/>
<defs>
<path id="hl" stroke="currentColor" d="m-6 0h12"/>
</defs>
<use x="348.33" y="76.01" xlink:href="#hl"/>
<use x="348.33" y="76.01" xlink:href="#hd"/>
<use x="339.33" y="76.01" xlink:href="#sh0"/>
<path d="M344.83 76.01v20.00" stroke="currentColor" fill="none"/>
<defs>
<path id="hl1" stroke="currentColor" d="m-7 0h14"/>
</defs>
<use x="402.83" y="76.01" xlink:href="#hl1"/>
<defs>
<path id="HD" fill="currentColor" d="m-2.7 -1.4
	c1.5 -2.8 6.9 0 5.3 2.7
	c-1.5 2.8 -6.9 0 -5.3 -2.7
	m8.3 1.4
	c0 -1.5 -2.2 -3 -5.6 -3
	c-3.4 0 -5.6 1.5 -5.6 3
	c0 1.5 2.2 3 5.6 3
	c3.4 0 5.6 -1.5 5.6 -3"/>
</defs>
<use x="402.83" y="76.01" xlink:href="#HD"/>
<use x="390.83" y="76.01" xlink:href="#sh0"/>
<path fill="currentColor"
	d="M351.83 76.01c7.19 -5.34 39.31 -5.34 46.50 -0.00
	l0.00 -0.25c-8.58 -7.09 -37.92 -7.09 -46.50 0.25"/>
</g>
</svg>
