<?xml version="1.0" standalone="no"?>
<!DOCTYPE svg PUBLIC "-//W3C//DTD SVG 1.1//EN"
	"http://www.w3.org/Graphics/SVG/1.1/DTD/svg11.dtd">
<svg xmlns="http://www.w3.org/2000/svg" version="1.1"
	xmlns:xlink="http://www.w3.org/1999/xlink"
	xml:space='preserve' color="black"
	width="7.38in" height="1.34in" viewBox="0 0 531 97">
<title>7276.abc (7276) tune 1</title>
<!-- Creator: abcm2ps-7.8.14 -->
<!-- CreationDate: Mar 13, 2016 18:54 -->
<!-- CommandLine: -qxg 7276.abc -O ../svgs/7276.svg -->
<g transform="scale(0.750)" stroke-width="0.70" font-family="Times" font-size="20.00">
<text x="354.13" y="21.67" text-anchor="middle">7276.  Poet and Peasant, Overture, 4th. Theme</text>
</g>
<g transform="scale(0.750)" stroke-width="0.70" font-family="Times" font-size="14.00" font-style="italic">
<text x="694.93" y="45.34" text-anchor="end">Franz von Suppe</text>
</g>
<g transform="scale(0.525)" stroke-width="0.70" font-family="Times" font-size="14.00" font-style="italic">
<defs>
<ellipse id="hd" rx="4.1" ry="2.9"
	transform="rotate(-20)" fill="currentColor"/>
</defs>
<use x="114.90" y="94.16" xlink:href="#hd"/>
<path d="M118.40 94.16v-20.00" stroke="currentColor" fill="none"/>
</g>
<g transform="scale(0.750)" stroke-width="0.70" font-family="Times" font-size="15.00" font-weight="bold">
<text x="88.13" y="68.01">= 120</text>
<path stroke="currentColor" fill="none"
	d="M226.03 106.01v-24.00"/>
<path stroke="currentColor" fill="none"
	d="M386.43 106.01v-24.00"/>
<path stroke="currentColor" fill="none"
	d="M546.83 106.01v-24.00"/>
<path stroke="currentColor" fill="none"
	d="M694.93 106.01v-24.00"/>
<path stroke="currentColor" fill="none"
	d="M13.33 106.01h681.60m-681.60 -6h681.60m-681.60 -6h681.60m-681.60 -6h681.60m-681.60 -6h681.60"/>
<defs>
<path id="utclef" fill="currentColor" d="m-50 -90
	c-72 -41 -72 -158 52 -188
	c150 -10 220 188 90 256
	c-114 52 -275 0 -293 -136
	c-15 -181 93 -229 220 -334
	c88 -87 79 -133 62 -210
	c-51 33 -94 105 -89 186
	c17 267 36 374 49 574
	c6 96 -19 134 -77 135
	c-80 1 -126 -93 -61 -133
	c85 -41 133 101 31 105
	c23 17 92 37 90 -92
	c-10 -223 -39 -342 -50 -617
	c0 -90 0 -162 96 -232
	c56 72 63 230 22 289
	c-74 106 -257 168 -255 316
	c9 153 148 185 252 133
	c86 -65 29 -192 -80 -176
	c-71 12 -105 67 -59 124"/>
<use id="tclef" transform="scale(0.045)"
	xlink:href="#utclef"/>
</defs>
<use x="25.33" y="106.01" xlink:href="#tclef"/>
<defs>
<path id="uflat" fill="currentColor" d="
	m100 -746
	h32
	v734
	l-32 4
	m32 -332
	c46 -72 152 -90 208 -20
	c100 110 -120 326 -208 348
	m0 -28
	c54 0 200 -206 130 -290
	c-50 -60 -130 -4 -130 34"/>
<use id="ft0" transform="translate(-3.5,3.5) scale(0.018)"
	xlink:href="#uflat"/>
</defs>
<use x="40.33" y="94.01" xlink:href="#ft0"/>
<use x="45.83" y="85.01" xlink:href="#ft0"/>
<g font-family="serif" font-size="16" font-weight="bold" font-style="normal"
	transform="translate(61.83,106.01) scale(1.2,1)">
	<text y="-1" text-anchor="middle">4</text>
	<text y="-13" text-anchor="middle">2</text>
</g>
<path fill="currentColor"
	d="M76.03 107.01l39.20 0.00v-3.20l-39.20 -0.00"/>
<path fill="currentColor"
	d="M76.33 102.01l38.50 0.00v-3.20l-38.50 -0.00"/>
<path fill="currentColor"
	d="M76.33 97.01l38.50 0.00v-3.20l-38.50 -0.00"/>
<use x="79.83" y="82.01" xlink:href="#hd"/>
<path d="M76.33 82.01v24.00" stroke="currentColor" fill="none"/>
<use x="92.63" y="79.01" xlink:href="#hd"/>
<path d="M89.13 79.01v27.00" stroke="currentColor" fill="none"/>
<use x="105.53" y="82.01" xlink:href="#hd"/>
<path d="M102.03 82.01v24.00" stroke="currentColor" fill="none"/>
<use x="118.33" y="79.01" xlink:href="#hd"/>
<path d="M114.83 79.01v27.00" stroke="currentColor" fill="none"/>
<path fill="currentColor"
	d="M132.53 107.21l18.80 -2.30v-3.20l-18.80 2.30"/>
<path fill="currentColor"
	d="M132.83 102.21l18.10 -2.30v-3.20l-18.10 2.30"/>
<use x="136.33" y="85.01" xlink:href="#hd"/>
<defs>
<path id="unat" fill="currentColor" d="
	m96 -750
	h-32
	v716
	l32 -8
	l182 -54
	v282
	h32
	v-706
	l-34 10
	l-180 50
	v-290
	m0 592
	v-190
	l182 -52
	v188"/>
<use id="nt0" transform="translate(-3,5) scale(0.018)"
	xlink:href="#unat"/>
</defs>
<use x="127.33" y="85.01" xlink:href="#nt0"/>
<path d="M132.83 85.01v21.20" stroke="currentColor" fill="none"/>
<use x="154.53" y="82.01" xlink:href="#hd"/>
<path d="M151.03 82.01v21.90" stroke="currentColor" fill="none"/>
<defs>
<path id="hl" stroke="currentColor" d="m-6 0h12"/>
</defs>
<use x="174.63" y="76.01" xlink:href="#hl"/>
<use x="174.63" y="73.01" xlink:href="#hd"/>
<path d="M171.13 73.01v21.00" stroke="currentColor" fill="none"/>
<path fill="currentColor"
	d="M171.13 94.01c0.6 -5.6 9.6 -9 5.6 -18.4
	c1.6 6 -1.3 11.6 -5.6 12.8
"/>
<use x="203.13" y="76.01" xlink:href="#hl"/>
<use x="203.13" y="70.01" xlink:href="#hl"/>
<use x="203.13" y="67.01" xlink:href="#hd"/>
<path d="M199.63 67.01v27.00" stroke="currentColor" fill="none"/>
<path fill="currentColor"
	d="M199.63 94.01c0.6 -5.6 9.6 -9 5.6 -18.4
	c1.6 6 -1.3 11.6 -5.6 12.8
"/>
<path fill="currentColor"
	d="M236.43 106.21l39.20 0.00v-3.20l-39.20 -0.00"/>
<path fill="currentColor"
	d="M236.73 101.21l38.50 0.00v-3.20l-38.50 -0.00"/>
<path fill="currentColor"
	d="M236.73 96.21l38.50 0.00v-3.20l-38.50 -0.00"/>
<use x="240.23" y="79.01" xlink:href="#hd"/>
<path d="M236.73 79.01v26.20" stroke="currentColor" fill="none"/>
<use x="253.03" y="76.01" xlink:href="#hl"/>
<use x="253.03" y="76.01" xlink:href="#hd"/>
<path d="M249.53 76.01v29.20" stroke="currentColor" fill="none"/>
<use x="265.93" y="79.01" xlink:href="#hd"/>
<path d="M262.43 79.01v26.20" stroke="currentColor" fill="none"/>
<use x="278.73" y="76.01" xlink:href="#hl"/>
<use x="278.73" y="76.01" xlink:href="#hd"/>
<path d="M275.23 76.01v29.20" stroke="currentColor" fill="none"/>
<path fill="currentColor"
	d="M292.93 102.01l18.80 0.00v-3.20l-18.80 -0.00"/>
<path fill="currentColor"
	d="M293.23 97.01l18.10 0.00v-3.20l-18.10 -0.00"/>
<use x="296.73" y="79.01" xlink:href="#hd"/>
<use x="287.73" y="79.01" xlink:href="#ft0"/>
<path d="M293.23 79.01v22.00" stroke="currentColor" fill="none"/>
<use x="314.93" y="79.01" xlink:href="#hd"/>
<use x="305.93" y="79.01" xlink:href="#nt0"/>
<path d="M311.43 79.01v22.00" stroke="currentColor" fill="none"/>
<use x="335.03" y="76.01" xlink:href="#hl"/>
<use x="335.03" y="70.01" xlink:href="#hl"/>
<use x="335.03" y="70.01" xlink:href="#hd"/>
<path d="M331.53 70.01v24.00" stroke="currentColor" fill="none"/>
<path fill="currentColor"
	d="M331.53 94.01c0.6 -5.6 9.6 -9 5.6 -18.4
	c1.6 6 -1.3 11.6 -5.6 12.8
"/>
<use x="363.63" y="76.01" xlink:href="#hl"/>
<use x="363.63" y="73.01" xlink:href="#hd"/>
<path d="M360.13 73.01v21.00" stroke="currentColor" fill="none"/>
<path fill="currentColor"
	d="M360.13 94.01c0.6 -5.6 9.6 -9 5.6 -18.4
	c1.6 6 -1.3 11.6 -5.6 12.8
"/>
<path fill="currentColor"
	d="M396.83 101.01l39.20 0.00v-3.20l-39.20 -0.00"/>
<path fill="currentColor"
	d="M397.13 96.01l38.50 0.00v-3.20l-38.50 -0.00"/>
<path fill="currentColor"
	d="M397.13 91.01l38.50 0.00v-3.20l-38.50 -0.00"/>
<use x="400.63" y="76.01" xlink:href="#hl"/>
<use x="400.63" y="76.01" xlink:href="#hd"/>
<path d="M397.13 76.01v24.00" stroke="currentColor" fill="none"/>
<use x="413.53" y="76.01" xlink:href="#hl"/>
<use x="413.53" y="73.01" xlink:href="#hd"/>
<path d="M410.03 73.01v27.00" stroke="currentColor" fill="none"/>
<use x="426.33" y="76.01" xlink:href="#hl"/>
<use x="426.33" y="76.01" xlink:href="#hd"/>
<path d="M422.83 76.01v24.00" stroke="currentColor" fill="none"/>
<use x="439.13" y="76.01" xlink:href="#hl"/>
<use x="439.13" y="73.01" xlink:href="#hd"/>
<path d="M435.63 73.01v27.00" stroke="currentColor" fill="none"/>
<path fill="currentColor"
	d="M453.33 100.21l18.80 0.00v-3.20l-18.80 -0.00"/>
<path fill="currentColor"
	d="M453.63 95.21l18.10 0.00v-3.20l-18.10 -0.00"/>
<use x="457.13" y="76.01" xlink:href="#hl"/>
<use x="457.13" y="76.01" xlink:href="#hd"/>
<use x="448.13" y="76.01" xlink:href="#ft0"/>
<path d="M453.63 76.01v23.20" stroke="currentColor" fill="none"/>
<use x="475.33" y="76.01" xlink:href="#hl"/>
<use x="475.33" y="76.01" xlink:href="#hd"/>
<use x="466.33" y="76.01" xlink:href="#nt0"/>
<path d="M471.83 76.01v23.20" stroke="currentColor" fill="none"/>
<use x="495.43" y="76.01" xlink:href="#hl"/>
<use x="495.43" y="70.01" xlink:href="#hl"/>
<use x="495.43" y="64.01" xlink:href="#hl"/>
<use x="495.43" y="58.01" xlink:href="#hl"/>
<use x="495.43" y="58.01" xlink:href="#hd"/>
<path d="M491.93 58.01v36.00" stroke="currentColor" fill="none"/>
<path fill="currentColor"
	d="M491.93 94.01c0.6 -5.6 9.6 -9 5.6 -18.4
	c1.6 6 -1.3 11.6 -5.6 12.8
"/>
<use x="524.03" y="76.01" xlink:href="#hl"/>
<use x="524.03" y="70.01" xlink:href="#hl"/>
<use x="524.03" y="64.01" xlink:href="#hl"/>
<use x="524.03" y="61.01" xlink:href="#hd"/>
<path d="M520.53 61.01v33.00" stroke="currentColor" fill="none"/>
<path fill="currentColor"
	d="M520.53 94.01c0.6 -5.6 9.6 -9 5.6 -18.4
	c1.6 6 -1.3 11.6 -5.6 12.8
"/>
<use x="565.33" y="76.01" xlink:href="#hl"/>
<use x="565.33" y="70.01" xlink:href="#hl"/>
<use x="565.33" y="64.01" xlink:href="#hl"/>
<use x="565.33" y="64.01" xlink:href="#hd"/>
<use x="556.33" y="64.01" xlink:href="#ft0"/>
<path d="M561.83 64.01v30.00" stroke="currentColor" fill="none"/>
<path fill="currentColor"
	d="M561.83 94.01c0.6 -5.6 9.6 -9 5.6 -18.4
	c1.6 6 -1.3 11.6 -5.6 12.8
"/>
<path fill="currentColor"
	d="M590.03 94.21l18.80 0.00v-3.20l-18.80 -0.00"/>
<path fill="currentColor"
	d="M590.33 89.21l18.10 0.00v-3.20l-18.10 -0.00"/>
<use x="593.83" y="76.01" xlink:href="#hl"/>
<use x="593.83" y="70.01" xlink:href="#hl"/>
<use x="593.83" y="67.01" xlink:href="#hd"/>
<path d="M590.33 67.01v26.20" stroke="currentColor" fill="none"/>
<use x="612.03" y="76.01" xlink:href="#hl"/>
<use x="612.03" y="70.01" xlink:href="#hl"/>
<use x="612.03" y="70.01" xlink:href="#hd"/>
<path d="M608.53 70.01v23.20" stroke="currentColor" fill="none"/>
<use x="632.13" y="76.01" xlink:href="#hl"/>
<use x="632.13" y="73.01" xlink:href="#hd"/>
<path d="M628.63 73.01v21.00" stroke="currentColor" fill="none"/>
<path fill="currentColor"
	d="M628.63 94.01c0.6 -5.6 9.6 -9 5.6 -18.4
	c1.6 6 -1.3 11.6 -5.6 12.8
"/>
<path fill="currentColor"
	d="M656.83 98.91l18.80 2.30v-3.20l-18.80 -2.30"/>
<path fill="currentColor"
	d="M657.13 93.91l18.10 2.30v-3.20l-18.10 -2.30"/>
<use x="660.63" y="76.01" xlink:href="#hl"/>
<use x="660.63" y="76.01" xlink:href="#hd"/>
<path d="M657.13 76.01v21.90" stroke="currentColor" fill="none"/>
<use x="678.83" y="79.01" xlink:href="#hd"/>
<path d="M675.33 79.01v21.20" stroke="currentColor" fill="none"/>
</g>
</svg>
