<?xml version="1.0" standalone="no"?>
<!DOCTYPE svg PUBLIC "-//W3C//DTD SVG 1.1//EN"
	"http://www.w3.org/Graphics/SVG/1.1/DTD/svg11.dtd">
<svg xmlns="http://www.w3.org/2000/svg" version="1.1"
	xmlns:xlink="http://www.w3.org/1999/xlink"
	xml:space='preserve' color="black"
	width="7.38in" height="1.71in" viewBox="0 0 531 123">
<title>7281.abc (7281) tune 1</title>
<!-- Creator: abcm2ps-7.8.14 -->
<!-- CreationDate: Mar 13, 2016 18:54 -->
<!-- CommandLine: -qxg 7281.abc -O ../svgs/7281.svg -->
<g transform="scale(0.750)" stroke-width="0.70" font-family="Times" font-size="20.00">
<text x="354.13" y="21.67" text-anchor="middle">7281.  Carnival in Paris, Op. 9, 1st. Theme</text>
</g>
<g transform="scale(0.750)" stroke-width="0.70" font-family="Times" font-size="14.00" font-style="italic">
<text x="694.93" y="45.34" text-anchor="end">Johan Severin Svendsen</text>
</g>
<g transform="scale(0.525)" stroke-width="0.70" font-family="Times" font-size="14.00" font-style="italic">
<defs>
<ellipse id="hd" rx="4.1" ry="2.9"
	transform="rotate(-20)" fill="currentColor"/>
</defs>
<use x="130.61" y="94.16" xlink:href="#hd"/>
<path d="M134.11 94.16v-20.00" stroke="currentColor" fill="none"/>
</g>
<g transform="scale(0.750)" stroke-width="0.70" font-family="Times" font-size="15.00" font-weight="bold">
<text x="99.13" y="68.01">= 120</text>
<path stroke="currentColor" fill="none"
	d="M175.23 141.01v-24.00"/>
<path stroke="currentColor" fill="none"
	d="M269.73 141.01v-24.00"/>
<path stroke="currentColor" fill="none"
	d="M393.83 141.01v-24.00"/>
<path stroke="currentColor" fill="none"
	d="M522.83 141.01v-24.00"/>
<path stroke="currentColor" fill="none"
	d="M627.93 141.01v-24.00"/>
<path stroke="currentColor" fill="none"
	d="M13.33 141.01h681.60m-681.60 -6h681.60m-681.60 -6h681.60m-681.60 -6h681.60m-681.60 -6h681.60"/>
<defs>
<path id="utclef" fill="currentColor" d="m-50 -90
	c-72 -41 -72 -158 52 -188
	c150 -10 220 188 90 256
	c-114 52 -275 0 -293 -136
	c-15 -181 93 -229 220 -334
	c88 -87 79 -133 62 -210
	c-51 33 -94 105 -89 186
	c17 267 36 374 49 574
	c6 96 -19 134 -77 135
	c-80 1 -126 -93 -61 -133
	c85 -41 133 101 31 105
	c23 17 92 37 90 -92
	c-10 -223 -39 -342 -50 -617
	c0 -90 0 -162 96 -232
	c56 72 63 230 22 289
	c-74 106 -257 168 -255 316
	c9 153 148 185 252 133
	c86 -65 29 -192 -80 -176
	c-71 12 -105 67 -59 124"/>
<use id="tclef" transform="scale(0.045)"
	xlink:href="#utclef"/>
</defs>
<use x="25.33" y="141.01" xlink:href="#tclef"/>
<defs>
<path id="usharp" fill="currentColor" d="
	m136 -702
	v890
	h32
	v-890
	m128 840
	h32
	v-888
	h-32
	m-232 286
	v116
	l338 -96
	v-116
	m-338 442
	v116
	l338 -98
	v-114"/>
<use id="sh0" transform="translate(-4,5) scale(0.018)"
	xlink:href="#usharp"/>
</defs>
<use x="40.33" y="117.01" xlink:href="#sh0"/>
<use x="45.83" y="126.01" xlink:href="#sh0"/>
<use x="51.33" y="114.01" xlink:href="#sh0"/>
<use x="56.83" y="123.01" xlink:href="#sh0"/>
<g font-family="serif" font-size="16" font-weight="bold" font-style="normal"
	transform="translate(72.83,141.01) scale(1.2,1)">
	<text y="-1" text-anchor="middle">8</text>
	<text y="-13" text-anchor="middle">6</text>
</g>
<defs>
<path id="hl" stroke="currentColor" d="m-6 0h12"/>
</defs>
<use x="90.83" y="111.01" xlink:href="#hl"/>
<use x="90.83" y="105.01" xlink:href="#hl"/>
<use x="90.83" y="99.01" xlink:href="#hl"/>
<use x="90.83" y="93.01" xlink:href="#hl"/>
<use x="90.83" y="87.01" xlink:href="#hl"/>
<use x="90.83" y="81.01" xlink:href="#hl"/>
<use x="90.83" y="78.01" xlink:href="#hd"/>
<circle fill="currentColor" cx="98.83" cy="78.01" r="1.2"/>
<path d="M87.33 78.01v51.00" stroke="currentColor" fill="none"/>
<path fill="currentColor"
	d="M119.23 129.21l36.80 0.00v-3.20l-36.80 -0.00"/>
<use x="123.03" y="111.01" xlink:href="#hl"/>
<use x="123.03" y="105.01" xlink:href="#hl"/>
<use x="123.03" y="99.01" xlink:href="#hl"/>
<use x="123.03" y="93.01" xlink:href="#hl"/>
<use x="123.03" y="87.01" xlink:href="#hl"/>
<use x="123.03" y="81.01" xlink:href="#hl"/>
<use x="123.03" y="81.01" xlink:href="#hd"/>
<path d="M119.53 81.01v47.20" stroke="currentColor" fill="none"/>
<use x="141.13" y="111.01" xlink:href="#hl"/>
<use x="141.13" y="105.01" xlink:href="#hl"/>
<use x="141.13" y="99.01" xlink:href="#hl"/>
<use x="141.13" y="93.01" xlink:href="#hl"/>
<use x="141.13" y="87.01" xlink:href="#hl"/>
<use x="141.13" y="84.01" xlink:href="#hd"/>
<path d="M137.63 84.01v44.20" stroke="currentColor" fill="none"/>
<use x="159.13" y="111.01" xlink:href="#hl"/>
<use x="159.13" y="105.01" xlink:href="#hl"/>
<use x="159.13" y="99.01" xlink:href="#hl"/>
<use x="159.13" y="93.01" xlink:href="#hl"/>
<use x="159.13" y="87.01" xlink:href="#hl"/>
<use x="159.13" y="87.01" xlink:href="#hd"/>
<path d="M155.63 87.01v41.20" stroke="currentColor" fill="none"/>
<path fill="currentColor"
	d="M183.93 129.21l36.80 0.00v-3.20l-36.80 -0.00"/>
<use x="187.73" y="111.01" xlink:href="#hl"/>
<use x="187.73" y="105.01" xlink:href="#hl"/>
<use x="187.73" y="99.01" xlink:href="#hl"/>
<use x="187.73" y="93.01" xlink:href="#hl"/>
<use x="187.73" y="93.01" xlink:href="#hd"/>
<path d="M184.23 93.01v35.20" stroke="currentColor" fill="none"/>
<use x="205.83" y="111.01" xlink:href="#hl"/>
<use x="205.83" y="105.01" xlink:href="#hl"/>
<use x="205.83" y="99.01" xlink:href="#hl"/>
<use x="205.83" y="96.01" xlink:href="#hd"/>
<path d="M202.33 96.01v32.20" stroke="currentColor" fill="none"/>
<use x="223.93" y="111.01" xlink:href="#hl"/>
<use x="223.93" y="105.01" xlink:href="#hl"/>
<use x="223.93" y="99.01" xlink:href="#hl"/>
<use x="223.93" y="99.01" xlink:href="#hd"/>
<path d="M220.43 99.01v29.20" stroke="currentColor" fill="none"/>
<defs>
<path id="r4" fill="currentColor" d="m-1 -8.5
	l3.6 5.1 -2.1 5.2 2.2 4.3
	c-2.6 -2.3 -5.1 0 -2.4 2.6
	c-4.8 -3 -1.5 -6.9 1.4 -4.1
	l-3.1 -4.5 1.9 -5.1 -1.5 -3.5"/>
</defs>
<use x="243.53" y="129.01" xlink:href="#r4"/>
<circle fill="currentColor" cx="251.53" cy="126.01" r="1.2"/>
<path fill="currentColor"
	d="M278.33 129.21l37.90 0.00v-3.20l-37.90 -0.00"/>
<use x="282.23" y="111.01" xlink:href="#hl"/>
<use x="282.23" y="105.01" xlink:href="#hl"/>
<use x="282.23" y="99.01" xlink:href="#hl"/>
<use x="282.23" y="93.01" xlink:href="#hl"/>
<use x="282.23" y="87.01" xlink:href="#hl"/>
<use x="282.23" y="81.01" xlink:href="#hl"/>
<use x="282.23" y="78.01" xlink:href="#hd"/>
<path d="M278.73 78.01v50.20" stroke="currentColor" fill="none"/>
<use x="301.43" y="111.01" xlink:href="#hl"/>
<use x="301.43" y="105.01" xlink:href="#hl"/>
<use x="301.43" y="99.01" xlink:href="#hl"/>
<use x="301.43" y="93.01" xlink:href="#hl"/>
<use x="301.43" y="87.01" xlink:href="#hl"/>
<use x="301.43" y="81.01" xlink:href="#hl"/>
<use x="301.43" y="81.01" xlink:href="#hd"/>
<defs>
<path id="unat" fill="currentColor" d="
	m96 -750
	h-32
	v716
	l32 -8
	l182 -54
	v282
	h32
	v-706
	l-34 10
	l-180 50
	v-290
	m0 592
	v-190
	l182 -52
	v188"/>
<use id="nt0" transform="translate(-3,5) scale(0.018)"
	xlink:href="#unat"/>
</defs>
<use x="292.43" y="81.01" xlink:href="#nt0"/>
<path d="M297.93 81.01v47.20" stroke="currentColor" fill="none"/>
<use x="319.43" y="111.01" xlink:href="#hl"/>
<use x="319.43" y="105.01" xlink:href="#hl"/>
<use x="319.43" y="99.01" xlink:href="#hl"/>
<use x="319.43" y="93.01" xlink:href="#hl"/>
<use x="319.43" y="87.01" xlink:href="#hl"/>
<use x="319.43" y="81.01" xlink:href="#hl"/>
<use x="319.43" y="78.01" xlink:href="#hd"/>
<path d="M315.93 78.01v50.20" stroke="currentColor" fill="none"/>
<path fill="currentColor"
	d="M336.63 129.21l37.90 0.00v-3.20l-37.90 -0.00"/>
<use x="340.43" y="111.01" xlink:href="#hl"/>
<use x="340.43" y="105.01" xlink:href="#hl"/>
<use x="340.43" y="99.01" xlink:href="#hl"/>
<use x="340.43" y="93.01" xlink:href="#hl"/>
<use x="340.43" y="87.01" xlink:href="#hl"/>
<use x="340.43" y="81.01" xlink:href="#hl"/>
<use x="340.43" y="81.01" xlink:href="#hd"/>
<use x="331.43" y="81.01" xlink:href="#nt0"/>
<path d="M336.93 81.01v47.20" stroke="currentColor" fill="none"/>
<use x="358.53" y="111.01" xlink:href="#hl"/>
<use x="358.53" y="105.01" xlink:href="#hl"/>
<use x="358.53" y="99.01" xlink:href="#hl"/>
<use x="358.53" y="93.01" xlink:href="#hl"/>
<use x="358.53" y="87.01" xlink:href="#hl"/>
<use x="358.53" y="81.01" xlink:href="#hl"/>
<use x="358.53" y="78.01" xlink:href="#hd"/>
<path d="M355.03 78.01v50.20" stroke="currentColor" fill="none"/>
<use x="377.73" y="111.01" xlink:href="#hl"/>
<use x="377.73" y="105.01" xlink:href="#hl"/>
<use x="377.73" y="99.01" xlink:href="#hl"/>
<use x="377.73" y="93.01" xlink:href="#hl"/>
<use x="377.73" y="87.01" xlink:href="#hl"/>
<use x="377.73" y="81.01" xlink:href="#hl"/>
<use x="377.73" y="81.01" xlink:href="#hd"/>
<use x="368.73" y="81.01" xlink:href="#nt0"/>
<path d="M374.23 81.01v47.20" stroke="currentColor" fill="none"/>
<path fill="currentColor"
	d="M408.43 129.21l37.90 0.00v-3.20l-37.90 -0.00"/>
<use x="412.33" y="111.01" xlink:href="#hl"/>
<use x="412.33" y="105.01" xlink:href="#hl"/>
<use x="412.33" y="99.01" xlink:href="#hl"/>
<use x="412.33" y="93.01" xlink:href="#hl"/>
<use x="412.33" y="87.01" xlink:href="#hl"/>
<use x="412.33" y="81.01" xlink:href="#hl"/>
<use x="412.33" y="75.01" xlink:href="#hl"/>
<use x="412.33" y="75.01" xlink:href="#hd"/>
<use x="403.33" y="75.01" xlink:href="#nt0"/>
<path d="M408.83 75.01v53.20" stroke="currentColor" fill="none"/>
<use x="430.33" y="111.01" xlink:href="#hl"/>
<use x="430.33" y="105.01" xlink:href="#hl"/>
<use x="430.33" y="99.01" xlink:href="#hl"/>
<use x="430.33" y="93.01" xlink:href="#hl"/>
<use x="430.33" y="87.01" xlink:href="#hl"/>
<use x="430.33" y="84.01" xlink:href="#hd"/>
<path d="M426.83 84.01v44.20" stroke="currentColor" fill="none"/>
<use x="449.53" y="111.01" xlink:href="#hl"/>
<use x="449.53" y="105.01" xlink:href="#hl"/>
<use x="449.53" y="99.01" xlink:href="#hl"/>
<use x="449.53" y="93.01" xlink:href="#hl"/>
<use x="449.53" y="87.01" xlink:href="#hl"/>
<use x="449.53" y="81.01" xlink:href="#hl"/>
<use x="449.53" y="75.01" xlink:href="#hl"/>
<use x="449.53" y="75.01" xlink:href="#hd"/>
<use x="440.53" y="75.01" xlink:href="#nt0"/>
<path d="M446.03 75.01v53.20" stroke="currentColor" fill="none"/>
<path fill="currentColor"
	d="M465.63 129.21l37.90 0.00v-3.20l-37.90 -0.00"/>
<use x="469.43" y="111.01" xlink:href="#hl"/>
<use x="469.43" y="105.01" xlink:href="#hl"/>
<use x="469.43" y="99.01" xlink:href="#hl"/>
<use x="469.43" y="93.01" xlink:href="#hl"/>
<use x="469.43" y="87.01" xlink:href="#hl"/>
<use x="469.43" y="84.01" xlink:href="#hd"/>
<path d="M465.93 84.01v44.20" stroke="currentColor" fill="none"/>
<use x="488.63" y="111.01" xlink:href="#hl"/>
<use x="488.63" y="105.01" xlink:href="#hl"/>
<use x="488.63" y="99.01" xlink:href="#hl"/>
<use x="488.63" y="93.01" xlink:href="#hl"/>
<use x="488.63" y="87.01" xlink:href="#hl"/>
<use x="488.63" y="81.01" xlink:href="#hl"/>
<use x="488.63" y="75.01" xlink:href="#hl"/>
<use x="488.63" y="75.01" xlink:href="#hd"/>
<use x="479.63" y="75.01" xlink:href="#nt0"/>
<path d="M485.13 75.01v53.20" stroke="currentColor" fill="none"/>
<use x="506.73" y="111.01" xlink:href="#hl"/>
<use x="506.73" y="105.01" xlink:href="#hl"/>
<use x="506.73" y="99.01" xlink:href="#hl"/>
<use x="506.73" y="93.01" xlink:href="#hl"/>
<use x="506.73" y="87.01" xlink:href="#hl"/>
<use x="506.73" y="84.01" xlink:href="#hd"/>
<path d="M503.23 84.01v44.20" stroke="currentColor" fill="none"/>
<use x="541.33" y="111.01" xlink:href="#hl"/>
<use x="541.33" y="105.01" xlink:href="#hl"/>
<use x="541.33" y="99.01" xlink:href="#hl"/>
<use x="541.33" y="93.01" xlink:href="#hl"/>
<use x="541.33" y="87.01" xlink:href="#hl"/>
<use x="541.33" y="81.01" xlink:href="#hl"/>
<use x="541.33" y="75.01" xlink:href="#hl"/>
<use x="541.33" y="75.01" xlink:href="#hd"/>
<circle fill="currentColor" cx="549.33" cy="72.01" r="1.2"/>
<use x="532.33" y="75.01" xlink:href="#sh0"/>
<path d="M537.83 75.01v54.00" stroke="currentColor" fill="none"/>
<path fill="currentColor"
	d="M570.73 129.21l37.90 0.00v-3.20l-37.90 -0.00"/>
<use x="574.63" y="111.01" xlink:href="#hl"/>
<use x="574.63" y="105.01" xlink:href="#hl"/>
<use x="574.63" y="99.01" xlink:href="#hl"/>
<use x="574.63" y="93.01" xlink:href="#hl"/>
<use x="574.63" y="87.01" xlink:href="#hl"/>
<use x="574.63" y="81.01" xlink:href="#hl"/>
<use x="574.63" y="75.01" xlink:href="#hl"/>
<use x="574.63" y="75.01" xlink:href="#hd"/>
<use x="565.63" y="75.01" xlink:href="#nt0"/>
<path d="M571.13 75.01v53.20" stroke="currentColor" fill="none"/>
<use x="593.73" y="111.01" xlink:href="#hl"/>
<use x="593.73" y="105.01" xlink:href="#hl"/>
<use x="593.73" y="99.01" xlink:href="#hl"/>
<use x="593.73" y="93.01" xlink:href="#hl"/>
<use x="593.73" y="87.01" xlink:href="#hl"/>
<use x="593.73" y="81.01" xlink:href="#hl"/>
<use x="593.73" y="81.01" xlink:href="#hd"/>
<use x="584.73" y="81.01" xlink:href="#sh0"/>
<path d="M590.23 81.01v47.20" stroke="currentColor" fill="none"/>
<use x="611.83" y="111.01" xlink:href="#hl"/>
<use x="611.83" y="105.01" xlink:href="#hl"/>
<use x="611.83" y="99.01" xlink:href="#hl"/>
<use x="611.83" y="93.01" xlink:href="#hl"/>
<use x="611.83" y="87.01" xlink:href="#hl"/>
<use x="611.83" y="84.01" xlink:href="#hd"/>
<path d="M608.33 84.01v44.20" stroke="currentColor" fill="none"/>
<path fill="currentColor"
	d="M636.63 129.21l36.80 0.00v-3.20l-36.80 -0.00"/>
<use x="640.43" y="111.01" xlink:href="#hl"/>
<use x="640.43" y="105.01" xlink:href="#hl"/>
<use x="640.43" y="99.01" xlink:href="#hl"/>
<use x="640.43" y="93.01" xlink:href="#hl"/>
<use x="640.43" y="87.01" xlink:href="#hl"/>
<use x="640.43" y="84.01" xlink:href="#hd"/>
<path d="M636.93 84.01v44.20" stroke="currentColor" fill="none"/>
<use x="658.53" y="111.01" xlink:href="#hl"/>
<use x="658.53" y="105.01" xlink:href="#hl"/>
<use x="658.53" y="99.01" xlink:href="#hl"/>
<use x="658.53" y="93.01" xlink:href="#hl"/>
<use x="658.53" y="87.01" xlink:href="#hl"/>
<use x="658.53" y="87.01" xlink:href="#hd"/>
<path d="M655.03 87.01v41.20" stroke="currentColor" fill="none"/>
<use x="676.53" y="111.01" xlink:href="#hl"/>
<use x="676.53" y="105.01" xlink:href="#hl"/>
<use x="676.53" y="99.01" xlink:href="#hl"/>
<use x="676.53" y="93.01" xlink:href="#hl"/>
<use x="676.53" y="90.01" xlink:href="#hd"/>
<path d="M673.03 90.01v38.20" stroke="currentColor" fill="none"/>
</g>
</svg>
