<?xml version="1.0" standalone="no"?>
<!DOCTYPE svg PUBLIC "-//W3C//DTD SVG 1.1//EN"
	"http://www.w3.org/Graphics/SVG/1.1/DTD/svg11.dtd">
<svg xmlns="http://www.w3.org/2000/svg" version="1.1"
	xmlns:xlink="http://www.w3.org/1999/xlink"
	xml:space='preserve' color="black"
	width="7.38in" height="1.54in" viewBox="0 0 531 111">
<title>7284.abc (7284) tune 1</title>
<!-- Creator: abcm2ps-7.8.14 -->
<!-- CreationDate: Mar 13, 2016 18:54 -->
<!-- CommandLine: -qxg 7284.abc -O ../svgs/7284.svg -->
<g transform="scale(0.750)" stroke-width="0.70" font-family="Times" font-size="20.00">
<text x="354.13" y="21.67" text-anchor="middle">7284.  Festival Polonaise, Op. 12, 1st. Theme</text>
</g>
<g transform="scale(0.750)" stroke-width="0.70" font-family="Times" font-size="14.00" font-style="italic">
<text x="694.93" y="45.34" text-anchor="end">Johan Severin Svendsen</text>
</g>
<g transform="scale(0.525)" stroke-width="0.70" font-family="Times" font-size="14.00" font-style="italic">
<defs>
<ellipse id="hd" rx="4.1" ry="2.9"
	transform="rotate(-20)" fill="currentColor"/>
</defs>
<use x="130.61" y="94.16" xlink:href="#hd"/>
<path d="M134.11 94.16v-20.00" stroke="currentColor" fill="none"/>
</g>
<g transform="scale(0.750)" stroke-width="0.70" font-family="Times" font-size="15.00" font-weight="bold">
<text x="99.13" y="68.01">= 120</text>
<path stroke="currentColor" fill="none"
	d="M202.03 125.01v-24.00"/>
<path stroke="currentColor" fill="none"
	d="M284.83 125.01v-24.00"/>
<path stroke="currentColor" fill="none"
	d="M417.93 125.01v-24.00"/>
<path stroke="currentColor" fill="none"
	d="M500.63 125.01v-24.00"/>
<path stroke="currentColor" fill="none"
	d="M633.83 125.01v-24.00"/>
<path stroke="currentColor" fill="none"
	d="M13.33 125.01h681.60m-681.60 -6h681.60m-681.60 -6h681.60m-681.60 -6h681.60m-681.60 -6h681.60"/>
<defs>
<path id="utclef" fill="currentColor" d="m-50 -90
	c-72 -41 -72 -158 52 -188
	c150 -10 220 188 90 256
	c-114 52 -275 0 -293 -136
	c-15 -181 93 -229 220 -334
	c88 -87 79 -133 62 -210
	c-51 33 -94 105 -89 186
	c17 267 36 374 49 574
	c6 96 -19 134 -77 135
	c-80 1 -126 -93 -61 -133
	c85 -41 133 101 31 105
	c23 17 92 37 90 -92
	c-10 -223 -39 -342 -50 -617
	c0 -90 0 -162 96 -232
	c56 72 63 230 22 289
	c-74 106 -257 168 -255 316
	c9 153 148 185 252 133
	c86 -65 29 -192 -80 -176
	c-71 12 -105 67 -59 124"/>
<use id="tclef" transform="scale(0.045)"
	xlink:href="#utclef"/>
</defs>
<use x="25.33" y="125.01" xlink:href="#tclef"/>
<defs>
<path id="usharp" fill="currentColor" d="
	m136 -702
	v890
	h32
	v-890
	m128 840
	h32
	v-888
	h-32
	m-232 286
	v116
	l338 -96
	v-116
	m-338 442
	v116
	l338 -98
	v-114"/>
<use id="sh0" transform="translate(-4,5) scale(0.018)"
	xlink:href="#usharp"/>
</defs>
<use x="40.33" y="101.01" xlink:href="#sh0"/>
<use x="45.83" y="110.01" xlink:href="#sh0"/>
<use x="51.33" y="98.01" xlink:href="#sh0"/>
<use x="56.83" y="107.01" xlink:href="#sh0"/>
<g font-family="serif" font-size="16" font-weight="bold" font-style="normal"
	transform="translate(72.83,125.01) scale(1.2,1)">
	<text y="-1" text-anchor="middle">4</text>
	<text y="-13" text-anchor="middle">3</text>
</g>
<defs>
<path id="hl" stroke="currentColor" d="m-6 0h12"/>
</defs>
<use x="90.83" y="95.01" xlink:href="#hl"/>
<use x="90.83" y="89.01" xlink:href="#hl"/>
<use x="90.83" y="83.01" xlink:href="#hl"/>
<use x="90.83" y="83.01" xlink:href="#hd"/>
<path d="M87.33 83.01v30.00" stroke="currentColor" fill="none"/>
<path fill="currentColor"
	d="M114.13 115.01l13.40 0.00v-3.20l-13.40 -0.00"/>
<path fill="currentColor"
	d="M114.53 110.01l12.70 0.00v-3.20l-12.70 -0.00"/>
<use x="118.03" y="95.01" xlink:href="#hl"/>
<use x="118.03" y="89.01" xlink:href="#hl"/>
<use x="118.03" y="83.01" xlink:href="#hl"/>
<use x="118.03" y="83.01" xlink:href="#hd"/>
<path d="M114.53 83.01v31.00" stroke="currentColor" fill="none"/>
<use x="130.73" y="95.01" xlink:href="#hl"/>
<use x="130.73" y="92.01" xlink:href="#hd"/>
<path d="M127.23 92.01v22.00" stroke="currentColor" fill="none"/>
<path fill="currentColor"
	d="M140.73 113.21l46.80 0.00v-3.20l-46.80 -0.00"/>
<path fill="currentColor"
	d="M141.13 108.21l12.70 0.00v-3.20l-12.70 -0.00"/>
<path fill="currentColor"
	d="M181.23 108.21l6.00 0.00v-3.20l-6.00 -0.00"/>
<use x="144.63" y="95.01" xlink:href="#hl"/>
<use x="144.63" y="89.01" xlink:href="#hl"/>
<use x="144.63" y="89.01" xlink:href="#hd"/>
<path d="M141.13 89.01v23.20" stroke="currentColor" fill="none"/>
<use x="157.33" y="95.01" xlink:href="#hl"/>
<use x="157.33" y="89.01" xlink:href="#hl"/>
<use x="157.33" y="86.01" xlink:href="#hd"/>
<path d="M153.83 86.01v26.20" stroke="currentColor" fill="none"/>
<use x="170.03" y="95.01" xlink:href="#hl"/>
<use x="170.03" y="89.01" xlink:href="#hl"/>
<use x="170.03" y="83.01" xlink:href="#hl"/>
<use x="170.03" y="83.01" xlink:href="#hd"/>
<circle fill="currentColor" cx="178.03" cy="80.01" r="1.2"/>
<path d="M166.53 83.01v29.20" stroke="currentColor" fill="none"/>
<use x="190.73" y="95.01" xlink:href="#hl"/>
<use x="190.73" y="89.01" xlink:href="#hl"/>
<use x="190.73" y="83.01" xlink:href="#hl"/>
<use x="190.73" y="83.01" xlink:href="#hd"/>
<path d="M187.23 83.01v29.20" stroke="currentColor" fill="none"/>
<use x="214.53" y="95.01" xlink:href="#hl"/>
<use x="214.53" y="89.01" xlink:href="#hl"/>
<use x="214.53" y="83.01" xlink:href="#hl"/>
<use x="214.53" y="83.01" xlink:href="#hd"/>
<path d="M211.03 83.01v30.00" stroke="currentColor" fill="none"/>
<use x="239.63" y="104.01" xlink:href="#hd"/>
<circle fill="currentColor" cx="247.63" cy="104.01" r="1.2"/>
<path d="M236.13 104.01v20.00" stroke="currentColor" fill="none"/>
<use x="269.63" y="95.01" xlink:href="#hl"/>
<use x="269.63" y="89.01" xlink:href="#hl"/>
<use x="269.63" y="83.01" xlink:href="#hl"/>
<use x="269.63" y="83.01" xlink:href="#hd"/>
<path d="M266.13 83.01v30.00" stroke="currentColor" fill="none"/>
<path fill="currentColor"
	d="M266.13 113.01c0.6 -5.6 9.6 -9 5.6 -18.4
	c1.6 6 -1.3 11.6 -5.6 12.8
"/>
<use x="297.33" y="95.01" xlink:href="#hl"/>
<use x="297.33" y="89.01" xlink:href="#hl"/>
<use x="297.33" y="83.01" xlink:href="#hl"/>
<use x="297.33" y="83.01" xlink:href="#hd"/>
<path d="M293.83 83.01v30.00" stroke="currentColor" fill="none"/>
<path fill="currentColor"
	d="M320.63 113.21l18.70 0.00v-3.20l-18.70 -0.00"/>
<path fill="currentColor"
	d="M320.93 108.21l18.00 0.00v-3.20l-18.00 -0.00"/>
<use x="324.43" y="95.01" xlink:href="#hl"/>
<use x="324.43" y="89.01" xlink:href="#hl"/>
<use x="324.43" y="83.01" xlink:href="#hl"/>
<use x="324.43" y="83.01" xlink:href="#hd"/>
<path d="M320.93 83.01v29.20" stroke="currentColor" fill="none"/>
<use x="342.43" y="95.01" xlink:href="#hl"/>
<use x="342.43" y="89.01" xlink:href="#hl"/>
<use x="342.43" y="89.01" xlink:href="#hd"/>
<defs>
<path id="unat" fill="currentColor" d="
	m96 -750
	h-32
	v716
	l32 -8
	l182 -54
	v282
	h32
	v-706
	l-34 10
	l-180 50
	v-290
	m0 592
	v-190
	l182 -52
	v188"/>
<use id="nt0" transform="translate(-3,5) scale(0.018)"
	xlink:href="#unat"/>
</defs>
<use x="333.43" y="89.01" xlink:href="#nt0"/>
<path d="M338.93 89.01v23.20" stroke="currentColor" fill="none"/>
<path fill="currentColor"
	d="M356.63 113.21l46.80 0.00v-3.20l-46.80 -0.00"/>
<path fill="currentColor"
	d="M356.93 108.21l12.70 0.00v-3.20l-12.70 -0.00"/>
<path fill="currentColor"
	d="M397.03 108.21l6.00 0.00v-3.20l-6.00 -0.00"/>
<use x="360.43" y="95.01" xlink:href="#hl"/>
<use x="360.43" y="89.01" xlink:href="#hl"/>
<use x="360.43" y="89.01" xlink:href="#hd"/>
<use x="351.43" y="89.01" xlink:href="#sh0"/>
<path d="M356.93 89.01v23.20" stroke="currentColor" fill="none"/>
<use x="373.13" y="95.01" xlink:href="#hl"/>
<use x="373.13" y="89.01" xlink:href="#hl"/>
<use x="373.13" y="86.01" xlink:href="#hd"/>
<path d="M369.63 86.01v26.20" stroke="currentColor" fill="none"/>
<use x="385.93" y="95.01" xlink:href="#hl"/>
<use x="385.93" y="89.01" xlink:href="#hl"/>
<use x="385.93" y="83.01" xlink:href="#hl"/>
<use x="385.93" y="83.01" xlink:href="#hd"/>
<circle fill="currentColor" cx="393.93" cy="80.01" r="1.2"/>
<path d="M382.43 83.01v29.20" stroke="currentColor" fill="none"/>
<use x="406.53" y="95.01" xlink:href="#hl"/>
<use x="406.53" y="89.01" xlink:href="#hl"/>
<use x="406.53" y="83.01" xlink:href="#hl"/>
<use x="406.53" y="83.01" xlink:href="#hd"/>
<path d="M403.03 83.01v29.20" stroke="currentColor" fill="none"/>
<use x="430.43" y="95.01" xlink:href="#hl"/>
<use x="430.43" y="89.01" xlink:href="#hl"/>
<use x="430.43" y="83.01" xlink:href="#hl"/>
<use x="430.43" y="83.01" xlink:href="#hd"/>
<path d="M426.93 83.01v30.00" stroke="currentColor" fill="none"/>
<use x="455.53" y="104.01" xlink:href="#hd"/>
<circle fill="currentColor" cx="463.53" cy="104.01" r="1.2"/>
<path d="M452.03 104.01v20.00" stroke="currentColor" fill="none"/>
<use x="485.53" y="95.01" xlink:href="#hl"/>
<use x="485.53" y="89.01" xlink:href="#hl"/>
<use x="485.53" y="83.01" xlink:href="#hl"/>
<use x="485.53" y="83.01" xlink:href="#hd"/>
<path d="M482.03 83.01v30.00" stroke="currentColor" fill="none"/>
<path fill="currentColor"
	d="M482.03 113.01c0.6 -5.6 9.6 -9 5.6 -18.4
	c1.6 6 -1.3 11.6 -5.6 12.8
"/>
<use x="513.13" y="95.01" xlink:href="#hl"/>
<use x="513.13" y="89.01" xlink:href="#hl"/>
<use x="513.13" y="83.01" xlink:href="#hl"/>
<use x="513.13" y="83.01" xlink:href="#hd"/>
<path d="M509.63 83.01v30.00" stroke="currentColor" fill="none"/>
<path fill="currentColor"
	d="M536.53 113.21l18.70 0.00v-3.20l-18.70 -0.00"/>
<path fill="currentColor"
	d="M536.83 108.21l18.00 0.00v-3.20l-18.00 -0.00"/>
<use x="540.33" y="95.01" xlink:href="#hl"/>
<use x="540.33" y="89.01" xlink:href="#hl"/>
<use x="540.33" y="83.01" xlink:href="#hl"/>
<use x="540.33" y="83.01" xlink:href="#hd"/>
<path d="M536.83 83.01v29.20" stroke="currentColor" fill="none"/>
<use x="558.33" y="95.01" xlink:href="#hl"/>
<use x="558.33" y="89.01" xlink:href="#hl"/>
<use x="558.33" y="89.01" xlink:href="#hd"/>
<use x="549.33" y="89.01" xlink:href="#nt0"/>
<path d="M554.83 89.01v23.20" stroke="currentColor" fill="none"/>
<path fill="currentColor"
	d="M572.53 113.21l46.80 0.00v-3.20l-46.80 -0.00"/>
<path fill="currentColor"
	d="M572.83 108.21l12.70 0.00v-3.20l-12.70 -0.00"/>
<path fill="currentColor"
	d="M612.93 108.21l6.00 0.00v-3.20l-6.00 -0.00"/>
<use x="576.33" y="95.01" xlink:href="#hl"/>
<use x="576.33" y="89.01" xlink:href="#hl"/>
<use x="576.33" y="89.01" xlink:href="#hd"/>
<use x="567.33" y="89.01" xlink:href="#sh0"/>
<path d="M572.83 89.01v23.20" stroke="currentColor" fill="none"/>
<use x="589.03" y="95.01" xlink:href="#hl"/>
<use x="589.03" y="89.01" xlink:href="#hl"/>
<use x="589.03" y="86.01" xlink:href="#hd"/>
<path d="M585.53 86.01v26.20" stroke="currentColor" fill="none"/>
<use x="601.73" y="95.01" xlink:href="#hl"/>
<use x="601.73" y="89.01" xlink:href="#hl"/>
<use x="601.73" y="83.01" xlink:href="#hl"/>
<use x="601.73" y="83.01" xlink:href="#hd"/>
<circle fill="currentColor" cx="609.73" cy="80.01" r="1.2"/>
<path d="M598.23 83.01v29.20" stroke="currentColor" fill="none"/>
<use x="622.43" y="95.01" xlink:href="#hl"/>
<use x="622.43" y="89.01" xlink:href="#hl"/>
<use x="622.43" y="83.01" xlink:href="#hl"/>
<use x="622.43" y="83.01" xlink:href="#hd"/>
<path d="M618.93 83.01v29.20" stroke="currentColor" fill="none"/>
<use x="646.33" y="95.01" xlink:href="#hl"/>
<use x="646.33" y="89.01" xlink:href="#hl"/>
<use x="646.33" y="83.01" xlink:href="#hl"/>
<use x="646.33" y="83.01" xlink:href="#hd"/>
<path d="M642.83 83.01v30.00" stroke="currentColor" fill="none"/>
<use x="671.73" y="95.01" xlink:href="#hl"/>
<use x="671.73" y="92.01" xlink:href="#hd"/>
<path d="M668.23 92.01v21.00" stroke="currentColor" fill="none"/>
<path fill="currentColor"
	d="M94.33 83.01c3.18 -4.86 17.01 -4.86 20.19 -0.00
	l0.00 -0.22c-3.79 -6.64 -16.40 -6.64 -20.19 0.22"/>
<path fill="currentColor"
	d="M300.83 83.01c3.18 -4.86 17.01 -4.86 20.19 -0.00
	l0.00 -0.22c-3.79 -6.64 -16.40 -6.64 -20.19 0.22"/>
<path fill="currentColor"
	d="M516.63 83.01c3.18 -4.86 17.01 -4.86 20.19 -0.00
	l0.00 -0.22c-3.79 -6.64 -16.40 -6.64 -20.19 0.22"/>
</g>
</svg>
