<?xml version="1.0" standalone="no"?>
<!DOCTYPE svg PUBLIC "-//W3C//DTD SVG 1.1//EN"
	"http://www.w3.org/Graphics/SVG/1.1/DTD/svg11.dtd">
<svg xmlns="http://www.w3.org/2000/svg" version="1.1"
	xmlns:xlink="http://www.w3.org/1999/xlink"
	xml:space='preserve' color="black"
	width="7.38in" height="1.40in" viewBox="0 0 531 101">
<title>7304.abc (7304) tune 1</title>
<!-- Creator: abcm2ps-7.8.14 -->
<!-- CreationDate: Mar 13, 2016 18:54 -->
<!-- CommandLine: -qxg 7304.abc -O ../svgs/7304.svg -->
<g transform="scale(0.750)" stroke-width="0.70" font-family="Times" font-size="20.00">
<text x="354.13" y="21.67" text-anchor="middle">7304.  Tarantella, Op. 28, No. 2, 3rd. Theme</text>
</g>
<g transform="scale(0.750)" stroke-width="0.70" font-family="Times" font-size="14.00" font-style="italic">
<text x="694.93" y="45.34" text-anchor="end">Karol Szymanowski</text>
</g>
<g transform="scale(0.525)" stroke-width="0.70" font-family="Times" font-size="14.00" font-style="italic">
<defs>
<ellipse id="hd" rx="4.1" ry="2.9"
	transform="rotate(-20)" fill="currentColor"/>
</defs>
<use x="107.04" y="94.16" xlink:href="#hd"/>
<path d="M110.54 94.16v-20.00" stroke="currentColor" fill="none"/>
</g>
<g transform="scale(0.750)" stroke-width="0.70" font-family="Times" font-size="15.00" font-weight="bold">
<text x="82.63" y="68.01">= 120</text>
<path stroke="currentColor" fill="none"
	d="M155.23 111.01v-24.00"/>
<path stroke="currentColor" fill="none"
	d="M231.43 111.01v-24.00"/>
<path stroke="currentColor" fill="none"
	d="M337.63 111.01v-24.00"/>
<path stroke="currentColor" fill="none"
	d="M442.43 111.01v-24.00"/>
<path stroke="currentColor" fill="none"
	d="M542.43 111.01v-24.00"/>
<path stroke="currentColor" fill="none"
	d="M618.73 111.01v-24.00"/>
<path stroke="currentColor" fill="none"
	d="M694.93 111.01v-24.00"/>
<path stroke="currentColor" fill="none"
	d="M13.33 111.01h681.60m-681.60 -6h681.60m-681.60 -6h681.60m-681.60 -6h681.60m-681.60 -6h681.60"/>
<defs>
<path id="utclef" fill="currentColor" d="m-50 -90
	c-72 -41 -72 -158 52 -188
	c150 -10 220 188 90 256
	c-114 52 -275 0 -293 -136
	c-15 -181 93 -229 220 -334
	c88 -87 79 -133 62 -210
	c-51 33 -94 105 -89 186
	c17 267 36 374 49 574
	c6 96 -19 134 -77 135
	c-80 1 -126 -93 -61 -133
	c85 -41 133 101 31 105
	c23 17 92 37 90 -92
	c-10 -223 -39 -342 -50 -617
	c0 -90 0 -162 96 -232
	c56 72 63 230 22 289
	c-74 106 -257 168 -255 316
	c9 153 148 185 252 133
	c86 -65 29 -192 -80 -176
	c-71 12 -105 67 -59 124"/>
<use id="tclef" transform="scale(0.045)"
	xlink:href="#utclef"/>
</defs>
<use x="25.33" y="111.01" xlink:href="#tclef"/>
<defs>
<path id="usharp" fill="currentColor" d="
	m136 -702
	v890
	h32
	v-890
	m128 840
	h32
	v-888
	h-32
	m-232 286
	v116
	l338 -96
	v-116
	m-338 442
	v116
	l338 -98
	v-114"/>
<use id="sh0" transform="translate(-4,5) scale(0.018)"
	xlink:href="#usharp"/>
</defs>
<use x="40.33" y="87.01" xlink:href="#sh0"/>
<g font-family="serif" font-size="16" font-weight="bold" font-style="normal"
	transform="translate(56.33,111.01) scale(1.2,1)">
	<text y="-1" text-anchor="middle">8</text>
	<text y="-13" text-anchor="middle">6</text>
</g>
<use x="74.33" y="87.01" xlink:href="#hd"/>
<path d="M70.83 87.01v20.00" stroke="currentColor" fill="none"/>
<defs>
<path id="hl" stroke="currentColor" d="m-6 0h12"/>
</defs>
<use x="104.93" y="81.01" xlink:href="#hl"/>
<use x="104.93" y="78.01" xlink:href="#hd"/>
<path d="M101.43 78.01v21.00" stroke="currentColor" fill="none"/>
<path fill="currentColor"
	d="M101.43 99.01c0.6 -5.6 9.6 -9 5.6 -18.4
	c1.6 6 -1.3 11.6 -5.6 12.8
"/>
<use x="126.73" y="87.01" xlink:href="#hd"/>
<circle fill="currentColor" cx="134.73" cy="84.01" r="1.2"/>
<path d="M123.23 87.01v20.00" stroke="currentColor" fill="none"/>
<use x="167.73" y="87.01" xlink:href="#hd"/>
<circle fill="currentColor" cx="175.73" cy="84.01" r="1.2"/>
<path d="M164.23 87.01v20.00" stroke="currentColor" fill="none"/>
<use x="202.93" y="84.01" xlink:href="#hd"/>
<circle fill="currentColor" cx="210.93" cy="84.01" r="1.2"/>
<path d="M199.43 84.01v20.00" stroke="currentColor" fill="none"/>
<use x="243.93" y="81.01" xlink:href="#hl"/>
<use x="243.93" y="81.01" xlink:href="#hd"/>
<circle fill="currentColor" cx="251.93" cy="78.01" r="1.2"/>
<path d="M240.43 81.01v20.00" stroke="currentColor" fill="none"/>
<path fill="currentColor"
	d="M276.03 105.21l40.80 0.00v-3.20l-40.80 -0.00"/>
<use x="279.93" y="87.01" xlink:href="#hd"/>
<defs>
<path id="unat" fill="currentColor" d="
	m96 -750
	h-32
	v716
	l32 -8
	l182 -54
	v282
	h32
	v-706
	l-34 10
	l-180 50
	v-290
	m0 592
	v-190
	l182 -52
	v188"/>
<use id="nt0" transform="translate(-3,5) scale(0.018)"
	xlink:href="#unat"/>
</defs>
<use x="270.93" y="87.01" xlink:href="#nt0"/>
<path d="M276.43 87.01v17.20" stroke="currentColor" fill="none"/>
<use x="299.63" y="84.01" xlink:href="#hd"/>
<path d="M296.13 84.01v20.20" stroke="currentColor" fill="none"/>
<use x="319.93" y="87.01" xlink:href="#hd"/>
<use x="310.93" y="87.01" xlink:href="#nt0"/>
<path d="M316.43 87.01v17.20" stroke="currentColor" fill="none"/>
<use x="350.13" y="90.01" xlink:href="#hd"/>
<circle fill="currentColor" cx="358.13" cy="90.01" r="1.2"/>
<path d="M346.63 90.01v20.00" stroke="currentColor" fill="none"/>
<path fill="currentColor"
	d="M381.53 102.01l40.10 0.00v-3.20l-40.10 -0.00"/>
<use x="385.33" y="84.01" xlink:href="#hd"/>
<path d="M381.83 84.01v17.00" stroke="currentColor" fill="none"/>
<use x="405.03" y="81.01" xlink:href="#hl"/>
<use x="405.03" y="81.01" xlink:href="#hd"/>
<path d="M401.53 81.01v20.00" stroke="currentColor" fill="none"/>
<use x="424.73" y="84.01" xlink:href="#hd"/>
<path d="M421.23 84.01v17.00" stroke="currentColor" fill="none"/>
<use x="460.93" y="87.01" xlink:href="#hd"/>
<use x="451.93" y="87.01" xlink:href="#sh0"/>
<path d="M457.43 87.01v20.00" stroke="currentColor" fill="none"/>
<use x="492.13" y="93.01" xlink:href="#hd"/>
<use x="483.13" y="93.01" xlink:href="#sh0"/>
<path d="M488.63 93.01v20.00" stroke="currentColor" fill="none"/>
<path fill="currentColor"
	d="M488.63 113.01c0.6 -5.6 9.6 -9 5.6 -18.4
	c1.6 6 -1.3 11.6 -5.6 12.8
"/>
<use x="513.93" y="87.01" xlink:href="#hd"/>
<circle fill="currentColor" cx="521.93" cy="84.01" r="1.2"/>
<path d="M510.43 87.01v20.00" stroke="currentColor" fill="none"/>
<use x="554.93" y="87.01" xlink:href="#hd"/>
<circle fill="currentColor" cx="562.93" cy="84.01" r="1.2"/>
<path d="M551.43 87.01v20.00" stroke="currentColor" fill="none"/>
<use x="590.23" y="87.01" xlink:href="#hd"/>
<circle fill="currentColor" cx="598.23" cy="84.01" r="1.2"/>
<path d="M586.73 87.01v20.00" stroke="currentColor" fill="none"/>
<use x="631.23" y="87.01" xlink:href="#hd"/>
<circle fill="currentColor" cx="639.23" cy="84.01" r="1.2"/>
<path d="M627.73 87.01v20.00" stroke="currentColor" fill="none"/>
<use x="666.43" y="90.01" xlink:href="#hd"/>
<circle fill="currentColor" cx="674.43" cy="90.01" r="1.2"/>
<path d="M662.93 90.01v20.00" stroke="currentColor" fill="none"/>
<path fill="currentColor"
	d="M130.23 81.01c5.35 -5.11 28.64 -5.11 33.99 -0.00
	l0.00 -0.23c-6.37 -6.88 -27.62 -6.88 -33.99 0.23"/>
<path fill="currentColor"
	d="M517.43 81.01c5.35 -5.11 28.64 -5.11 33.99 -0.00
	l0.00 -0.23c-6.37 -6.88 -27.62 -6.88 -33.99 0.23"/>
<path fill="currentColor"
	d="M593.73 81.01c5.35 -5.11 28.64 -5.11 33.99 -0.00
	l0.00 -0.23c-6.37 -6.88 -27.62 -6.88 -33.99 0.23"/>
</g>
</svg>
