<?xml version="1.0" standalone="no"?>
<!DOCTYPE svg PUBLIC "-//W3C//DTD SVG 1.1//EN"
	"http://www.w3.org/Graphics/SVG/1.1/DTD/svg11.dtd">
<svg xmlns="http://www.w3.org/2000/svg" version="1.1"
	xmlns:xlink="http://www.w3.org/1999/xlink"
	xml:space='preserve' color="black"
	width="7.38in" height="1.34in" viewBox="0 0 531 97">
<title>7312.abc (7312) tune 1</title>
<!-- Creator: abcm2ps-7.8.14 -->
<!-- CreationDate: Mar 13, 2016 18:54 -->
<!-- CommandLine: -qxg 7312.abc -O ../svgs/7312.svg -->
<g transform="scale(0.750)" stroke-width="0.70" font-family="Times" font-size="20.00">
<text x="354.13" y="21.67" text-anchor="middle">7312.  Concerto in D, 1st. Mvt.</text>
</g>
<g transform="scale(0.750)" stroke-width="0.70" font-family="Times" font-size="14.00" font-style="italic">
<text x="694.93" y="45.34" text-anchor="end">Giuseppe Tartini</text>
</g>
<g transform="scale(0.525)" stroke-width="0.70" font-family="Times" font-size="14.00" font-style="italic">
<defs>
<ellipse id="hd" rx="4.1" ry="2.9"
	transform="rotate(-20)" fill="currentColor"/>
</defs>
<use x="114.90" y="94.16" xlink:href="#hd"/>
<path d="M118.40 94.16v-20.00" stroke="currentColor" fill="none"/>
</g>
<g transform="scale(0.750)" stroke-width="0.70" font-family="Times" font-size="15.00" font-weight="bold">
<text x="88.13" y="68.01">= 120</text>
<path stroke="currentColor" fill="none"
	d="M176.43 106.01v-24.00"/>
<path stroke="currentColor" fill="none"
	d="M399.83 106.01v-24.00"/>
<path stroke="currentColor" fill="none"
	d="M524.33 106.01v-24.00"/>
<path stroke="currentColor" fill="none"
	d="M694.93 106.01v-24.00"/>
<path stroke="currentColor" fill="none"
	d="M13.33 106.01h681.60m-681.60 -6h681.60m-681.60 -6h681.60m-681.60 -6h681.60m-681.60 -6h681.60"/>
<defs>
<path id="utclef" fill="currentColor" d="m-50 -90
	c-72 -41 -72 -158 52 -188
	c150 -10 220 188 90 256
	c-114 52 -275 0 -293 -136
	c-15 -181 93 -229 220 -334
	c88 -87 79 -133 62 -210
	c-51 33 -94 105 -89 186
	c17 267 36 374 49 574
	c6 96 -19 134 -77 135
	c-80 1 -126 -93 -61 -133
	c85 -41 133 101 31 105
	c23 17 92 37 90 -92
	c-10 -223 -39 -342 -50 -617
	c0 -90 0 -162 96 -232
	c56 72 63 230 22 289
	c-74 106 -257 168 -255 316
	c9 153 148 185 252 133
	c86 -65 29 -192 -80 -176
	c-71 12 -105 67 -59 124"/>
<use id="tclef" transform="scale(0.045)"
	xlink:href="#utclef"/>
</defs>
<use x="25.33" y="106.01" xlink:href="#tclef"/>
<defs>
<path id="usharp" fill="currentColor" d="
	m136 -702
	v890
	h32
	v-890
	m128 840
	h32
	v-888
	h-32
	m-232 286
	v116
	l338 -96
	v-116
	m-338 442
	v116
	l338 -98
	v-114"/>
<use id="sh0" transform="translate(-4,5) scale(0.018)"
	xlink:href="#usharp"/>
</defs>
<use x="40.33" y="82.01" xlink:href="#sh0"/>
<use x="45.83" y="91.01" xlink:href="#sh0"/>
<g font-family="serif" font-size="16" font-weight="bold" font-style="normal"
	transform="translate(61.83,106.01) scale(1.2,1)">
	<text y="-1" text-anchor="middle">4</text>
	<text y="-13" text-anchor="middle">4</text>
</g>
<use x="79.83" y="88.01" xlink:href="#hd"/>
<path d="M76.33 88.01v20.00" stroke="currentColor" fill="none"/>
<path fill="currentColor"
	d="M99.43 104.91l20.30 2.40v-3.20l-20.30 -2.40"/>
<path fill="currentColor"
	d="M113.33 101.51l6.00 0.70v-3.20l-6.00 -0.70"/>
<use x="103.23" y="82.01" xlink:href="#hd"/>
<circle fill="currentColor" cx="111.23" cy="79.01" r="1.2"/>
<path d="M99.73 82.01v21.90" stroke="currentColor" fill="none"/>
<use x="122.83" y="85.01" xlink:href="#hd"/>
<path d="M119.33 85.01v21.20" stroke="currentColor" fill="none"/>
<use x="135.73" y="88.01" xlink:href="#hd"/>
<path d="M132.23 88.01v20.00" stroke="currentColor" fill="none"/>
<use x="157.13" y="97.01" xlink:href="#hd"/>
<path d="M160.63 97.01v-20.00" stroke="currentColor" fill="none"/>
<defs>
<path id="r8e" fill="currentColor" d="m 0 0
	c-1.5 1.5 -2.4 2 -3.6 2
	c2.4 -2.8 -2.8 -4 -2.8 -1.2
	c0 2.7 4.3 2.4 5.9 0.6"/>
<g id="r8">
	<path d="m3.3 -4l-3.4 9.6" stroke="currentColor" fill="none"/>
	<use x="3.4" y="-4" xlink:href="#r8e"/>
</g>
</defs>
<use x="188.93" y="94.01" xlink:href="#r8"/>
<use x="204.73" y="94.01" xlink:href="#hd"/>
<path d="M208.23 94.01v-20.00" stroke="currentColor" fill="none"/>
<path fill="currentColor"
	d="	M208.23 74.01c0.6 5.6 9.6 9 5.6 18.4
	c1.6 -6 -1.3 -11.6 -5.6 -12.8
"/>
<path fill="currentColor"
	d="M220.83 118.61l17.20 -2.30v-3.20l-17.20 2.30"/>
<path fill="currentColor"
	d="M221.13 113.61l16.50 -2.20v-3.20l-16.50 2.20"/>
<path fill="currentColor"
	d="M231.63 107.21l6.00 -0.80v-3.20l-6.00 0.80"/>
<use x="224.63" y="94.01" xlink:href="#hd"/>
<circle fill="currentColor" cx="232.63" cy="91.01" r="1.2"/>
<path d="M221.13 94.01v23.60" stroke="currentColor" fill="none"/>
<use x="241.13" y="91.01" xlink:href="#hd"/>
<path d="M237.63 91.01v24.40" stroke="currentColor" fill="none"/>
<path fill="currentColor"
	d="M247.13 115.31l21.60 3.90v-3.20l-21.60 -3.90"/>
<path fill="currentColor"
	d="M247.43 110.41l20.90 3.80v-3.20l-20.90 -3.80"/>
<path fill="currentColor"
	d="M259.33 107.61l9.10 1.60v-3.20l-9.10 -1.60"/>
<use x="250.93" y="88.01" xlink:href="#hd"/>
<path d="M247.43 88.01v26.40" stroke="currentColor" fill="none"/>
<use x="262.83" y="91.01" xlink:href="#hd"/>
<path d="M259.33 91.01v25.60" stroke="currentColor" fill="none"/>
<use x="271.93" y="94.01" xlink:href="#hd"/>
<path d="M268.43 94.01v24.20" stroke="currentColor" fill="none"/>
<path fill="currentColor"
	d="M277.93 118.91l28.00 0.00v-3.20l-28.00 -0.00"/>
<path fill="currentColor"
	d="M278.23 113.91l27.30 0.00v-3.20l-27.30 -0.00"/>
<path fill="currentColor"
	d="M278.23 108.91l27.30 0.00v-3.20l-27.30 -0.00"/>
<use x="281.73" y="94.01" xlink:href="#hd"/>
<path d="M278.23 94.01v24.00" stroke="currentColor" fill="none"/>
<use x="290.83" y="91.01" xlink:href="#hd"/>
<path d="M287.33 91.01v27.00" stroke="currentColor" fill="none"/>
<use x="299.93" y="94.01" xlink:href="#hd"/>
<path d="M296.43 94.01v24.00" stroke="currentColor" fill="none"/>
<use x="309.03" y="91.01" xlink:href="#hd"/>
<path d="M305.53 91.01v27.00" stroke="currentColor" fill="none"/>
<path fill="currentColor"
	d="M315.03 118.91l28.00 0.00v-3.20l-28.00 -0.00"/>
<path fill="currentColor"
	d="M315.33 113.91l27.30 0.00v-3.20l-27.30 -0.00"/>
<path fill="currentColor"
	d="M315.33 108.91l27.30 0.00v-3.20l-27.30 -0.00"/>
<use x="318.83" y="94.01" xlink:href="#hd"/>
<path d="M315.33 94.01v24.00" stroke="currentColor" fill="none"/>
<use x="327.93" y="91.01" xlink:href="#hd"/>
<path d="M324.43 91.01v27.00" stroke="currentColor" fill="none"/>
<use x="337.03" y="94.01" xlink:href="#hd"/>
<path d="M333.53 94.01v24.00" stroke="currentColor" fill="none"/>
<use x="346.13" y="91.01" xlink:href="#hd"/>
<path d="M342.63 91.01v27.00" stroke="currentColor" fill="none"/>
<defs>
<g id="r32">
	<path d="m4.8 -10l-5.5 21.6" stroke="currentColor" fill="none"/>
	<use x="4.9" y="-10" xlink:href="#r8e"/>
	<use x="3.4" y="-4" xlink:href="#r8e"/>
	<use x="1.9" y="2" xlink:href="#r8e"/>
</g>
</defs>
<use x="355.23" y="94.01" xlink:href="#r32"/>
<path fill="currentColor"
	d="M367.53 69.81l26.70 0.00v3.20l-26.70 -0.00"/>
<path fill="currentColor"
	d="M387.83 74.81l6.00 0.00v3.20l-6.00 -0.00"/>
<path fill="currentColor"
	d="M387.83 79.81l6.00 0.00v3.20l-6.00 -0.00"/>
<use x="364.33" y="97.01" xlink:href="#hd"/>
<circle fill="currentColor" cx="372.33" cy="97.01" r="1.2"/>
<path d="M367.83 97.01v-26.20" stroke="currentColor" fill="none"/>
<use x="390.33" y="97.01" xlink:href="#hd"/>
<path d="M393.83 97.01v-26.20" stroke="currentColor" fill="none"/>
<use x="412.33" y="88.01" xlink:href="#hd"/>
<path d="M408.83 88.01v20.00" stroke="currentColor" fill="none"/>
<path fill="currentColor"
	d="M431.93 118.91l60.90 0.00v-3.20l-60.90 -0.00"/>
<path fill="currentColor"
	d="M445.83 113.91l6.00 0.00v-3.20l-6.00 -0.00"/>
<path fill="currentColor"
	d="M483.33 113.91l9.10 0.00v-3.20l-9.10 -0.00"/>
<path fill="currentColor"
	d="M483.33 108.91l9.10 0.00v-3.20l-9.10 -0.00"/>
<use x="435.73" y="82.01" xlink:href="#hd"/>
<circle fill="currentColor" cx="443.73" cy="79.01" r="1.2"/>
<path d="M432.23 82.01v36.00" stroke="currentColor" fill="none"/>
<use x="455.33" y="85.01" xlink:href="#hd"/>
<path d="M451.83 85.01v33.00" stroke="currentColor" fill="none"/>
<use x="467.23" y="88.01" xlink:href="#hd"/>
<circle fill="currentColor" cx="475.23" cy="85.01" r="1.2"/>
<path d="M463.73 88.01v30.00" stroke="currentColor" fill="none"/>
<use x="486.83" y="91.01" xlink:href="#hd"/>
<path d="M483.33 91.01v27.00" stroke="currentColor" fill="none"/>
<use x="495.93" y="88.01" xlink:href="#hd"/>
<path d="M492.43 88.01v30.00" stroke="currentColor" fill="none"/>
<use x="505.03" y="97.01" xlink:href="#hd"/>
<path d="M508.53 97.01v-20.00" stroke="currentColor" fill="none"/>
<use x="536.83" y="94.01" xlink:href="#r8"/>
<use x="552.63" y="100.01" xlink:href="#hd"/>
<path d="M556.13 100.01v-20.00" stroke="currentColor" fill="none"/>
<path fill="currentColor"
	d="	M556.13 80.01c0.6 5.6 9.6 9 5.6 18.4
	c1.6 -6 -1.3 -11.6 -5.6 -12.8
"/>
<path fill="currentColor"
	d="M575.03 74.01l17.20 -2.30v3.20l-17.20 2.30"/>
<path fill="currentColor"
	d="M575.43 79.01l16.50 -2.20v3.20l-16.50 2.20"/>
<path fill="currentColor"
	d="M585.93 82.61l6.00 -0.80v3.20l-6.00 0.80"/>
<use x="571.93" y="100.01" xlink:href="#hd"/>
<circle fill="currentColor" cx="579.93" cy="97.01" r="1.2"/>
<path d="M575.43 100.01v-25.00" stroke="currentColor" fill="none"/>
<use x="588.43" y="97.01" xlink:href="#hd"/>
<path d="M591.93 97.01v-24.20" stroke="currentColor" fill="none"/>
<path fill="currentColor"
	d="M601.43 69.61l21.60 3.90v3.20l-21.60 -3.90"/>
<path fill="currentColor"
	d="M601.73 74.61l20.90 3.80v3.20l-20.90 -3.80"/>
<path fill="currentColor"
	d="M613.63 81.81l9.10 1.60v3.20l-9.10 -1.60"/>
<use x="598.23" y="94.01" xlink:href="#hd"/>
<path d="M601.73 94.01v-23.40" stroke="currentColor" fill="none"/>
<use x="610.13" y="97.01" xlink:href="#hd"/>
<path d="M613.63 97.01v-24.20" stroke="currentColor" fill="none"/>
<use x="619.23" y="100.01" xlink:href="#hd"/>
<path d="M622.73 100.01v-25.60" stroke="currentColor" fill="none"/>
<use x="629.03" y="100.01" xlink:href="#hd"/>
<path d="M632.53 100.01v-20.00" stroke="currentColor" fill="none"/>
<use x="650.33" y="94.01" xlink:href="#r32"/>
<path fill="currentColor"
	d="M662.63 75.81l26.70 0.00v3.20l-26.70 -0.00"/>
<path fill="currentColor"
	d="M682.93 80.81l6.00 0.00v3.20l-6.00 -0.00"/>
<path fill="currentColor"
	d="M682.93 85.81l6.00 0.00v3.20l-6.00 -0.00"/>
<use x="659.43" y="103.01" xlink:href="#hd"/>
<circle fill="currentColor" cx="667.43" cy="103.01" r="1.2"/>
<path d="M662.93 103.01v-26.20" stroke="currentColor" fill="none"/>
<use x="685.43" y="103.01" xlink:href="#hd"/>
<path d="M688.93 103.01v-26.20" stroke="currentColor" fill="none"/>
<path fill="currentColor"
	d="M367.83 99.01c2.99 4.84 16.01 4.84 19.00 -0.00
	l0.00 0.22c-3.56 6.62 -15.44 6.62 -19.00 -0.22"/>
<path fill="currentColor"
	d="M662.93 105.01c2.99 4.84 16.01 4.84 19.00 -0.00
	l0.00 0.22c-3.56 6.62 -15.44 6.62 -19.00 -0.22"/>
</g>
</svg>
