<?xml version="1.0" standalone="no"?>
<!DOCTYPE svg PUBLIC "-//W3C//DTD SVG 1.1//EN"
	"http://www.w3.org/Graphics/SVG/1.1/DTD/svg11.dtd">
<svg xmlns="http://www.w3.org/2000/svg" version="1.1"
	xmlns:xlink="http://www.w3.org/1999/xlink"
	xml:space='preserve' color="black"
	width="7.38in" height="1.35in" viewBox="0 0 531 98">
<title>7340.abc (7340) tune 1</title>
<!-- Creator: abcm2ps-7.8.14 -->
<!-- CreationDate: Mar 13, 2016 18:54 -->
<!-- CommandLine: -qxg 7340.abc -O ../svgs/7340.svg -->
<g transform="scale(0.750)" stroke-width="0.70" font-family="Times" font-size="20.00">
<text x="354.13" y="21.67" text-anchor="middle">7340.  Sonata in G Minor, 2nd. Mvt.</text>
</g>
<g transform="scale(0.750)" stroke-width="0.70" font-family="Times" font-size="14.00" font-style="italic">
<text x="694.93" y="45.34" text-anchor="end">Giuseppe Tartini</text>
</g>
<g transform="scale(0.525)" stroke-width="0.70" font-family="Times" font-size="14.00" font-style="italic">
<defs>
<ellipse id="hd" rx="4.1" ry="2.9"
	transform="rotate(-20)" fill="currentColor"/>
</defs>
<use x="114.90" y="94.16" xlink:href="#hd"/>
<path d="M118.40 94.16v-20.00" stroke="currentColor" fill="none"/>
</g>
<g transform="scale(0.750)" stroke-width="0.70" font-family="Times" font-size="15.00" font-weight="bold">
<text x="88.13" y="68.01">= 120</text>
<path stroke="currentColor" fill="none"
	d="M154.73 107.01v-24.00"/>
<path stroke="currentColor" fill="none"
	d="M272.23 107.01v-24.00"/>
<path stroke="currentColor" fill="none"
	d="M390.53 107.01v-24.00"/>
<path stroke="currentColor" fill="none"
	d="M508.03 107.01v-24.00"/>
<path stroke="currentColor" fill="none"
	d="M595.43 107.01v-24.00"/>
<path stroke="currentColor" fill="none"
	d="M694.93 107.01v-24.00"/>
<path stroke="currentColor" fill="none"
	d="M13.33 107.01h681.60m-681.60 -6h681.60m-681.60 -6h681.60m-681.60 -6h681.60m-681.60 -6h681.60"/>
<defs>
<path id="utclef" fill="currentColor" d="m-50 -90
	c-72 -41 -72 -158 52 -188
	c150 -10 220 188 90 256
	c-114 52 -275 0 -293 -136
	c-15 -181 93 -229 220 -334
	c88 -87 79 -133 62 -210
	c-51 33 -94 105 -89 186
	c17 267 36 374 49 574
	c6 96 -19 134 -77 135
	c-80 1 -126 -93 -61 -133
	c85 -41 133 101 31 105
	c23 17 92 37 90 -92
	c-10 -223 -39 -342 -50 -617
	c0 -90 0 -162 96 -232
	c56 72 63 230 22 289
	c-74 106 -257 168 -255 316
	c9 153 148 185 252 133
	c86 -65 29 -192 -80 -176
	c-71 12 -105 67 -59 124"/>
<use id="tclef" transform="scale(0.045)"
	xlink:href="#utclef"/>
</defs>
<use x="25.33" y="107.01" xlink:href="#tclef"/>
<defs>
<path id="uflat" fill="currentColor" d="
	m100 -746
	h32
	v734
	l-32 4
	m32 -332
	c46 -72 152 -90 208 -20
	c100 110 -120 326 -208 348
	m0 -28
	c54 0 200 -206 130 -290
	c-50 -60 -130 -4 -130 34"/>
<use id="ft0" transform="translate(-3.5,3.5) scale(0.018)"
	xlink:href="#uflat"/>
</defs>
<use x="40.33" y="95.01" xlink:href="#ft0"/>
<use x="45.83" y="86.01" xlink:href="#ft0"/>
<g font-family="serif" font-size="16" font-weight="bold" font-style="normal"
	transform="translate(61.83,107.01) scale(1.2,1)">
	<text y="-1" text-anchor="middle">4</text>
	<text y="-13" text-anchor="middle">3</text>
</g>
<path fill="currentColor"
	d="M76.03 120.31l25.30 -6.20v-3.20l-25.30 6.20"/>
<use x="79.83" y="101.01" xlink:href="#hd"/>
<path d="M76.33 101.01v18.20" stroke="currentColor" fill="none"/>
<use x="92.13" y="95.01" xlink:href="#hd"/>
<path d="M88.63 95.01v21.20" stroke="currentColor" fill="none"/>
<use x="104.43" y="89.01" xlink:href="#hd"/>
<path d="M100.93 89.01v24.10" stroke="currentColor" fill="none"/>
<path fill="currentColor"
	d="M113.83 99.21l26.10 -2.50v-3.20l-26.10 2.50"/>
<use x="117.63" y="80.01" xlink:href="#hd"/>
<path d="M114.13 80.01v18.20" stroke="currentColor" fill="none"/>
<defs>
<path id="hl" stroke="currentColor" d="m-6 0h12"/>
</defs>
<use x="129.93" y="77.01" xlink:href="#hl"/>
<use x="129.93" y="74.01" xlink:href="#hd"/>
<path d="M126.43 74.01v23.00" stroke="currentColor" fill="none"/>
<use x="143.03" y="77.01" xlink:href="#hl"/>
<use x="143.03" y="71.01" xlink:href="#hl"/>
<use x="143.03" y="68.01" xlink:href="#hd"/>
<path d="M139.53 68.01v27.80" stroke="currentColor" fill="none"/>
<defs>
<path id="r8e" fill="currentColor" d="m 0 0
	c-1.5 1.5 -2.4 2 -3.6 2
	c2.4 -2.8 -2.8 -4 -2.8 -1.2
	c0 2.7 4.3 2.4 5.9 0.6"/>
<g id="r32">
	<path d="m4.8 -10l-5.5 21.6" stroke="currentColor" fill="none"/>
	<use x="4.9" y="-10" xlink:href="#r8e"/>
	<use x="3.4" y="-4" xlink:href="#r8e"/>
	<use x="1.9" y="2" xlink:href="#r8e"/>
</g>
</defs>
<use x="167.23" y="95.01" xlink:href="#r32"/>
<use x="176.23" y="95.01" xlink:href="#r32"/>
<path fill="currentColor"
	d="M181.43 95.21l36.70 0.00v-3.20l-36.70 -0.00"/>
<path fill="currentColor"
	d="M187.73 90.21l-6.00 -0.00v-3.20l6.00 0.00"/>
<use x="185.23" y="77.01" xlink:href="#hl"/>
<use x="185.23" y="71.01" xlink:href="#hl"/>
<use x="185.23" y="65.01" xlink:href="#hl"/>
<use x="185.23" y="59.01" xlink:href="#hl"/>
<use x="185.23" y="59.01" xlink:href="#hd"/>
<path d="M181.73 59.01v35.20" stroke="currentColor" fill="none"/>
<use x="203.23" y="77.01" xlink:href="#hl"/>
<use x="203.23" y="71.01" xlink:href="#hl"/>
<use x="203.23" y="65.01" xlink:href="#hl"/>
<use x="203.23" y="59.01" xlink:href="#hl"/>
<use x="203.23" y="59.01" xlink:href="#hd"/>
<use x="194.23" y="59.01" xlink:href="#ft0"/>
<path d="M199.73 59.01v35.20" stroke="currentColor" fill="none"/>
<use x="221.23" y="77.01" xlink:href="#hl"/>
<use x="221.23" y="71.01" xlink:href="#hl"/>
<use x="221.23" y="65.01" xlink:href="#hl"/>
<use x="221.23" y="59.01" xlink:href="#hl"/>
<use x="221.23" y="59.01" xlink:href="#hd"/>
<defs>
<path id="unat" fill="currentColor" d="
	m96 -750
	h-32
	v716
	l32 -8
	l182 -54
	v282
	h32
	v-706
	l-34 10
	l-180 50
	v-290
	m0 592
	v-190
	l182 -52
	v188"/>
<use id="nt0" transform="translate(-3,5) scale(0.018)"
	xlink:href="#unat"/>
</defs>
<use x="212.23" y="59.01" xlink:href="#nt0"/>
<path d="M217.73 59.01v35.20" stroke="currentColor" fill="none"/>
<path fill="currentColor"
	d="M231.33 96.81l26.10 2.50v-3.20l-26.10 -2.50"/>
<use x="235.13" y="77.01" xlink:href="#hl"/>
<use x="235.13" y="71.01" xlink:href="#hl"/>
<use x="235.13" y="68.01" xlink:href="#hd"/>
<path d="M231.63 68.01v27.80" stroke="currentColor" fill="none"/>
<use x="248.23" y="77.01" xlink:href="#hl"/>
<use x="248.23" y="74.01" xlink:href="#hd"/>
<path d="M244.73 74.01v23.00" stroke="currentColor" fill="none"/>
<use x="260.53" y="80.01" xlink:href="#hd"/>
<path d="M257.03 80.01v18.20" stroke="currentColor" fill="none"/>
<use x="284.73" y="95.01" xlink:href="#r32"/>
<use x="293.73" y="95.01" xlink:href="#r32"/>
<path fill="currentColor"
	d="M298.93 95.21l36.70 0.00v-3.20l-36.70 -0.00"/>
<path fill="currentColor"
	d="M305.23 90.21l-6.00 -0.00v-3.20l6.00 0.00"/>
<use x="302.73" y="77.01" xlink:href="#hl"/>
<use x="302.73" y="71.01" xlink:href="#hl"/>
<use x="302.73" y="65.01" xlink:href="#hl"/>
<use x="302.73" y="59.01" xlink:href="#hl"/>
<use x="302.73" y="59.01" xlink:href="#hd"/>
<path d="M299.23 59.01v35.20" stroke="currentColor" fill="none"/>
<use x="320.73" y="77.01" xlink:href="#hl"/>
<use x="320.73" y="71.01" xlink:href="#hl"/>
<use x="320.73" y="65.01" xlink:href="#hl"/>
<use x="320.73" y="59.01" xlink:href="#hl"/>
<use x="320.73" y="59.01" xlink:href="#hd"/>
<use x="311.73" y="59.01" xlink:href="#ft0"/>
<path d="M317.23 59.01v35.20" stroke="currentColor" fill="none"/>
<use x="338.73" y="77.01" xlink:href="#hl"/>
<use x="338.73" y="71.01" xlink:href="#hl"/>
<use x="338.73" y="65.01" xlink:href="#hl"/>
<use x="338.73" y="59.01" xlink:href="#hl"/>
<use x="338.73" y="59.01" xlink:href="#hd"/>
<use x="329.73" y="59.01" xlink:href="#nt0"/>
<path d="M335.23 59.01v35.20" stroke="currentColor" fill="none"/>
<path fill="currentColor"
	d="M348.83 95.21l26.80 0.00v-3.20l-26.80 -0.00"/>
<use x="352.63" y="77.01" xlink:href="#hl"/>
<use x="352.63" y="71.01" xlink:href="#hl"/>
<use x="352.63" y="65.01" xlink:href="#hl"/>
<use x="352.63" y="65.01" xlink:href="#hd"/>
<path d="M349.13 65.01v29.20" stroke="currentColor" fill="none"/>
<use x="365.73" y="77.01" xlink:href="#hl"/>
<use x="365.73" y="71.01" xlink:href="#hl"/>
<use x="365.73" y="71.01" xlink:href="#hd"/>
<path d="M362.23 71.01v23.20" stroke="currentColor" fill="none"/>
<use x="378.83" y="77.01" xlink:href="#hl"/>
<use x="378.83" y="74.01" xlink:href="#hd"/>
<path d="M375.33 74.01v20.20" stroke="currentColor" fill="none"/>
<use x="403.03" y="95.01" xlink:href="#r32"/>
<use x="412.03" y="95.01" xlink:href="#r32"/>
<path fill="currentColor"
	d="M417.13 95.21l36.70 0.00v-3.20l-36.70 -0.00"/>
<path fill="currentColor"
	d="M423.53 90.21l-6.00 -0.00v-3.20l6.00 0.00"/>
<use x="421.03" y="77.01" xlink:href="#hl"/>
<use x="421.03" y="71.01" xlink:href="#hl"/>
<use x="421.03" y="65.01" xlink:href="#hl"/>
<use x="421.03" y="59.01" xlink:href="#hl"/>
<use x="421.03" y="59.01" xlink:href="#hd"/>
<path d="M417.53 59.01v35.20" stroke="currentColor" fill="none"/>
<use x="439.03" y="77.01" xlink:href="#hl"/>
<use x="439.03" y="71.01" xlink:href="#hl"/>
<use x="439.03" y="65.01" xlink:href="#hl"/>
<use x="439.03" y="59.01" xlink:href="#hl"/>
<use x="439.03" y="59.01" xlink:href="#hd"/>
<use x="430.03" y="59.01" xlink:href="#ft0"/>
<path d="M435.53 59.01v35.20" stroke="currentColor" fill="none"/>
<use x="457.03" y="77.01" xlink:href="#hl"/>
<use x="457.03" y="71.01" xlink:href="#hl"/>
<use x="457.03" y="65.01" xlink:href="#hl"/>
<use x="457.03" y="59.01" xlink:href="#hl"/>
<use x="457.03" y="59.01" xlink:href="#hd"/>
<use x="448.03" y="59.01" xlink:href="#nt0"/>
<path d="M453.53 59.01v35.20" stroke="currentColor" fill="none"/>
<path fill="currentColor"
	d="M467.13 96.81l26.10 2.50v-3.20l-26.10 -2.50"/>
<use x="470.93" y="77.01" xlink:href="#hl"/>
<use x="470.93" y="71.01" xlink:href="#hl"/>
<use x="470.93" y="68.01" xlink:href="#hd"/>
<path d="M467.43 68.01v27.80" stroke="currentColor" fill="none"/>
<use x="484.03" y="77.01" xlink:href="#hl"/>
<use x="484.03" y="74.01" xlink:href="#hd"/>
<path d="M480.53 74.01v23.00" stroke="currentColor" fill="none"/>
<use x="496.33" y="80.01" xlink:href="#hd"/>
<path d="M492.83 80.01v18.20" stroke="currentColor" fill="none"/>
<path fill="currentColor"
	d="M516.63 120.31l25.30 -6.20v-3.20l-25.30 6.20"/>
<use x="520.53" y="101.01" xlink:href="#hd"/>
<path d="M517.03 101.01v18.20" stroke="currentColor" fill="none"/>
<use x="532.83" y="95.01" xlink:href="#hd"/>
<path d="M529.33 95.01v21.20" stroke="currentColor" fill="none"/>
<use x="545.13" y="89.01" xlink:href="#hd"/>
<path d="M541.63 89.01v24.10" stroke="currentColor" fill="none"/>
<path fill="currentColor"
	d="M554.53 99.21l26.10 -2.50v-3.20l-26.10 2.50"/>
<use x="558.33" y="80.01" xlink:href="#hd"/>
<path d="M554.83 80.01v18.20" stroke="currentColor" fill="none"/>
<use x="570.63" y="77.01" xlink:href="#hl"/>
<use x="570.63" y="74.01" xlink:href="#hd"/>
<path d="M567.13 74.01v23.00" stroke="currentColor" fill="none"/>
<use x="583.73" y="77.01" xlink:href="#hl"/>
<use x="583.73" y="71.01" xlink:href="#hl"/>
<use x="583.73" y="68.01" xlink:href="#hd"/>
<path d="M580.23 68.01v27.80" stroke="currentColor" fill="none"/>
<path fill="currentColor"
	d="M604.03 95.21l36.70 0.00v-3.20l-36.70 -0.00"/>
<use x="607.93" y="77.01" xlink:href="#hl"/>
<use x="607.93" y="71.01" xlink:href="#hl"/>
<use x="607.93" y="65.01" xlink:href="#hl"/>
<use x="607.93" y="59.01" xlink:href="#hl"/>
<use x="607.93" y="59.01" xlink:href="#hd"/>
<path d="M604.43 59.01v35.20" stroke="currentColor" fill="none"/>
<use x="625.93" y="77.01" xlink:href="#hl"/>
<use x="625.93" y="71.01" xlink:href="#hl"/>
<use x="625.93" y="65.01" xlink:href="#hl"/>
<use x="625.93" y="59.01" xlink:href="#hl"/>
<use x="625.93" y="59.01" xlink:href="#hd"/>
<use x="616.93" y="59.01" xlink:href="#ft0"/>
<path d="M622.43 59.01v35.20" stroke="currentColor" fill="none"/>
<use x="643.93" y="77.01" xlink:href="#hl"/>
<use x="643.93" y="71.01" xlink:href="#hl"/>
<use x="643.93" y="65.01" xlink:href="#hl"/>
<use x="643.93" y="59.01" xlink:href="#hl"/>
<use x="643.93" y="59.01" xlink:href="#hd"/>
<use x="634.93" y="59.01" xlink:href="#nt0"/>
<path d="M640.43 59.01v35.20" stroke="currentColor" fill="none"/>
<path fill="currentColor"
	d="M654.03 96.81l26.10 2.50v-3.20l-26.10 -2.50"/>
<use x="657.83" y="77.01" xlink:href="#hl"/>
<use x="657.83" y="71.01" xlink:href="#hl"/>
<use x="657.83" y="68.01" xlink:href="#hd"/>
<path d="M654.33 68.01v27.80" stroke="currentColor" fill="none"/>
<use x="670.93" y="77.01" xlink:href="#hl"/>
<use x="670.93" y="74.01" xlink:href="#hd"/>
<path d="M667.43 74.01v23.00" stroke="currentColor" fill="none"/>
<use x="683.23" y="80.01" xlink:href="#hd"/>
<path d="M679.73 80.01v18.20" stroke="currentColor" fill="none"/>
</g>
</svg>
