<?xml version="1.0" standalone="no"?>
<!DOCTYPE svg PUBLIC "-//W3C//DTD SVG 1.1//EN"
	"http://www.w3.org/Graphics/SVG/1.1/DTD/svg11.dtd">
<svg xmlns="http://www.w3.org/2000/svg" version="1.1"
	xmlns:xlink="http://www.w3.org/1999/xlink"
	xml:space='preserve' color="black"
	width="7.38in" height="1.77in" viewBox="0 0 531 128">
<title>7352.abc (7352) tune 1</title>
<!-- Creator: abcm2ps-7.8.14 -->
<!-- CreationDate: Mar 13, 2016 18:54 -->
<!-- CommandLine: -qxg 7352.abc -O ../svgs/7352.svg -->
<g transform="scale(0.750)" stroke-width="0.70" font-family="Times" font-size="20.00">
<text x="354.13" y="21.67" text-anchor="middle">7352.  Through the Looking Glass, Op. 12, 3rd. Mvt. - Looking-glass Insects, 1st. Theme</text>
</g>
<g transform="scale(0.750)" stroke-width="0.70" font-family="Times" font-size="14.00" font-style="italic">
<text x="694.93" y="45.34" text-anchor="end">Deems Taylor</text>
</g>
<g transform="scale(0.525)" stroke-width="0.70" font-family="Times" font-size="14.00" font-style="italic">
<defs>
<ellipse id="hd" rx="4.1" ry="2.9"
	transform="rotate(-20)" fill="currentColor"/>
</defs>
<use x="89.19" y="94.16" xlink:href="#hd"/>
<path d="M92.69 94.16v-20.00" stroke="currentColor" fill="none"/>
</g>
<g transform="scale(0.750)" stroke-width="0.70" font-family="Times" font-size="15.00" font-weight="bold">
<text x="70.13" y="68.01">= 120</text>
<path stroke="currentColor" fill="none"
	d="M169.33 147.01v-24.00"/>
<path stroke="currentColor" fill="none"
	d="M291.03 147.01v-24.00"/>
<path stroke="currentColor" fill="none"
	d="M412.73 147.01v-24.00"/>
<path stroke="currentColor" fill="none"
	d="M13.33 147.01h508.20m-508.20 -6h508.20m-508.20 -6h508.20m-508.20 -6h508.20m-508.20 -6h508.20"/>
<defs>
<path id="utclef" fill="currentColor" d="m-50 -90
	c-72 -41 -72 -158 52 -188
	c150 -10 220 188 90 256
	c-114 52 -275 0 -293 -136
	c-15 -181 93 -229 220 -334
	c88 -87 79 -133 62 -210
	c-51 33 -94 105 -89 186
	c17 267 36 374 49 574
	c6 96 -19 134 -77 135
	c-80 1 -126 -93 -61 -133
	c85 -41 133 101 31 105
	c23 17 92 37 90 -92
	c-10 -223 -39 -342 -50 -617
	c0 -90 0 -162 96 -232
	c56 72 63 230 22 289
	c-74 106 -257 168 -255 316
	c9 153 148 185 252 133
	c86 -65 29 -192 -80 -176
	c-71 12 -105 67 -59 124"/>
<use id="tclef" transform="scale(0.045)"
	xlink:href="#utclef"/>
</defs>
<use x="25.33" y="147.01" xlink:href="#tclef"/>
<g font-family="serif" font-size="16" font-weight="bold" font-style="normal"
	transform="translate(43.83,147.01) scale(1.2,1)">
	<text y="-1" text-anchor="middle">4</text>
	<text y="-13" text-anchor="middle">2</text>
</g>
<defs>
<path id="hl" stroke="currentColor" d="m-6 0h12"/>
</defs>
<use x="61.83" y="117.01" xlink:href="#hl"/>
<use x="61.83" y="111.01" xlink:href="#hl"/>
<use x="61.83" y="105.01" xlink:href="#hl"/>
<use x="61.83" y="99.01" xlink:href="#hl"/>
<use x="61.83" y="93.01" xlink:href="#hl"/>
<use x="61.83" y="87.01" xlink:href="#hl"/>
<use x="61.83" y="81.01" xlink:href="#hl"/>
<use x="61.83" y="78.01" xlink:href="#hd"/>
<path d="M58.33 78.01v57.00" stroke="currentColor" fill="none"/>
<path fill="currentColor"
	d="M58.33 135.01c0.6 -5.6 9.6 -9 5.6 -18.4
	c1.6 6 -1.3 11.6 -5.6 12.8
"/>
<use x="90.13" y="117.01" xlink:href="#hl"/>
<use x="90.13" y="111.01" xlink:href="#hl"/>
<use x="90.13" y="105.01" xlink:href="#hl"/>
<use x="90.13" y="99.01" xlink:href="#hl"/>
<use x="90.13" y="93.01" xlink:href="#hl"/>
<use x="90.13" y="87.01" xlink:href="#hl"/>
<use x="90.13" y="87.01" xlink:href="#hd"/>
<path d="M86.63 87.01v48.00" stroke="currentColor" fill="none"/>
<path fill="currentColor"
	d="M86.63 135.01c0.6 -5.6 9.6 -9 5.6 -18.4
	c1.6 6 -1.3 11.6 -5.6 12.8
"/>
<use x="118.43" y="117.01" xlink:href="#hl"/>
<use x="118.43" y="111.01" xlink:href="#hl"/>
<use x="118.43" y="105.01" xlink:href="#hl"/>
<use x="118.43" y="99.01" xlink:href="#hl"/>
<use x="118.43" y="93.01" xlink:href="#hl"/>
<use x="118.43" y="87.01" xlink:href="#hl"/>
<use x="118.43" y="84.01" xlink:href="#hd"/>
<path d="M114.93 84.01v51.00" stroke="currentColor" fill="none"/>
<path fill="currentColor"
	d="M114.93 135.01c0.6 -5.6 9.6 -9 5.6 -18.4
	c1.6 6 -1.3 11.6 -5.6 12.8
"/>
<use x="146.73" y="117.01" xlink:href="#hl"/>
<use x="146.73" y="111.01" xlink:href="#hl"/>
<use x="146.73" y="105.01" xlink:href="#hl"/>
<use x="146.73" y="99.01" xlink:href="#hl"/>
<use x="146.73" y="93.01" xlink:href="#hl"/>
<use x="146.73" y="90.01" xlink:href="#hd"/>
<path d="M143.23 90.01v45.00" stroke="currentColor" fill="none"/>
<path fill="currentColor"
	d="M143.23 135.01c0.6 -5.6 9.6 -9 5.6 -18.4
	c1.6 6 -1.3 11.6 -5.6 12.8
"/>
<use x="183.53" y="117.01" xlink:href="#hl"/>
<use x="183.53" y="111.01" xlink:href="#hl"/>
<use x="183.53" y="105.01" xlink:href="#hl"/>
<use x="183.53" y="99.01" xlink:href="#hl"/>
<use x="183.53" y="93.01" xlink:href="#hl"/>
<use x="183.53" y="87.01" xlink:href="#hl"/>
<use x="183.53" y="87.01" xlink:href="#hd"/>
<path d="M180.03 87.01v48.00" stroke="currentColor" fill="none"/>
<path fill="currentColor"
	d="M180.03 135.01c0.6 -5.6 9.6 -9 5.6 -18.4
	c1.6 6 -1.3 11.6 -5.6 12.8
"/>
<use x="211.83" y="117.01" xlink:href="#hl"/>
<use x="211.83" y="111.01" xlink:href="#hl"/>
<use x="211.83" y="105.01" xlink:href="#hl"/>
<use x="211.83" y="99.01" xlink:href="#hl"/>
<use x="211.83" y="93.01" xlink:href="#hl"/>
<use x="211.83" y="93.01" xlink:href="#hd"/>
<path d="M208.33 93.01v42.00" stroke="currentColor" fill="none"/>
<path fill="currentColor"
	d="M208.33 135.01c0.6 -5.6 9.6 -9 5.6 -18.4
	c1.6 6 -1.3 11.6 -5.6 12.8
"/>
<use x="240.13" y="117.01" xlink:href="#hl"/>
<use x="240.13" y="111.01" xlink:href="#hl"/>
<use x="240.13" y="105.01" xlink:href="#hl"/>
<use x="240.13" y="99.01" xlink:href="#hl"/>
<use x="240.13" y="93.01" xlink:href="#hl"/>
<use x="240.13" y="90.01" xlink:href="#hd"/>
<path d="M236.63 90.01v45.00" stroke="currentColor" fill="none"/>
<path fill="currentColor"
	d="M236.63 135.01c0.6 -5.6 9.6 -9 5.6 -18.4
	c1.6 6 -1.3 11.6 -5.6 12.8
"/>
<use x="268.43" y="117.01" xlink:href="#hl"/>
<use x="268.43" y="111.01" xlink:href="#hl"/>
<use x="268.43" y="105.01" xlink:href="#hl"/>
<use x="268.43" y="99.01" xlink:href="#hl"/>
<use x="268.43" y="96.01" xlink:href="#hd"/>
<path d="M264.93 96.01v39.00" stroke="currentColor" fill="none"/>
<path fill="currentColor"
	d="M264.93 135.01c0.6 -5.6 9.6 -9 5.6 -18.4
	c1.6 6 -1.3 11.6 -5.6 12.8
"/>
<use x="305.23" y="117.01" xlink:href="#hl"/>
<use x="305.23" y="111.01" xlink:href="#hl"/>
<use x="305.23" y="105.01" xlink:href="#hl"/>
<use x="305.23" y="99.01" xlink:href="#hl"/>
<use x="305.23" y="93.01" xlink:href="#hl"/>
<use x="305.23" y="93.01" xlink:href="#hd"/>
<path d="M301.73 93.01v42.00" stroke="currentColor" fill="none"/>
<path fill="currentColor"
	d="M301.73 135.01c0.6 -5.6 9.6 -9 5.6 -18.4
	c1.6 6 -1.3 11.6 -5.6 12.8
"/>
<use x="333.53" y="117.01" xlink:href="#hl"/>
<use x="333.53" y="111.01" xlink:href="#hl"/>
<use x="333.53" y="105.01" xlink:href="#hl"/>
<use x="333.53" y="99.01" xlink:href="#hl"/>
<use x="333.53" y="99.01" xlink:href="#hd"/>
<path d="M330.03 99.01v36.00" stroke="currentColor" fill="none"/>
<path fill="currentColor"
	d="M330.03 135.01c0.6 -5.6 9.6 -9 5.6 -18.4
	c1.6 6 -1.3 11.6 -5.6 12.8
"/>
<use x="361.83" y="117.01" xlink:href="#hl"/>
<use x="361.83" y="111.01" xlink:href="#hl"/>
<use x="361.83" y="105.01" xlink:href="#hl"/>
<use x="361.83" y="99.01" xlink:href="#hl"/>
<use x="361.83" y="93.01" xlink:href="#hl"/>
<use x="361.83" y="90.01" xlink:href="#hd"/>
<path d="M358.33 90.01v45.00" stroke="currentColor" fill="none"/>
<path fill="currentColor"
	d="M358.33 135.01c0.6 -5.6 9.6 -9 5.6 -18.4
	c1.6 6 -1.3 11.6 -5.6 12.8
"/>
<use x="390.13" y="117.01" xlink:href="#hl"/>
<use x="390.13" y="111.01" xlink:href="#hl"/>
<use x="390.13" y="105.01" xlink:href="#hl"/>
<use x="390.13" y="99.01" xlink:href="#hl"/>
<use x="390.13" y="96.01" xlink:href="#hd"/>
<path d="M386.63 96.01v39.00" stroke="currentColor" fill="none"/>
<path fill="currentColor"
	d="M386.63 135.01c0.6 -5.6 9.6 -9 5.6 -18.4
	c1.6 6 -1.3 11.6 -5.6 12.8
"/>
<use x="426.93" y="117.01" xlink:href="#hl"/>
<use x="426.93" y="111.01" xlink:href="#hl"/>
<use x="426.93" y="105.01" xlink:href="#hl"/>
<use x="426.93" y="99.01" xlink:href="#hl"/>
<use x="426.93" y="93.01" xlink:href="#hl"/>
<use x="426.93" y="90.01" xlink:href="#hd"/>
<path d="M423.43 90.01v45.00" stroke="currentColor" fill="none"/>
<path fill="currentColor"
	d="M423.43 135.01c0.6 -5.6 9.6 -9 5.6 -18.4
	c1.6 6 -1.3 11.6 -5.6 12.8
"/>
<path fill="currentColor"
	d="M451.33 135.21l18.70 0.00v-3.20l-18.70 -0.00"/>
<path fill="currentColor"
	d="M451.73 130.21l18.00 0.00v-3.20l-18.00 -0.00"/>
<use x="455.23" y="117.01" xlink:href="#hl"/>
<use x="455.23" y="111.01" xlink:href="#hl"/>
<use x="455.23" y="105.01" xlink:href="#hl"/>
<use x="455.23" y="99.01" xlink:href="#hl"/>
<use x="455.23" y="93.01" xlink:href="#hl"/>
<use x="455.23" y="93.01" xlink:href="#hd"/>
<path d="M451.73 93.01v41.20" stroke="currentColor" fill="none"/>
<use x="473.23" y="117.01" xlink:href="#hl"/>
<use x="473.23" y="111.01" xlink:href="#hl"/>
<use x="473.23" y="105.01" xlink:href="#hl"/>
<use x="473.23" y="99.01" xlink:href="#hl"/>
<use x="473.23" y="93.01" xlink:href="#hl"/>
<use x="473.23" y="87.01" xlink:href="#hl"/>
<use x="473.23" y="87.01" xlink:href="#hd"/>
<path d="M469.73 87.01v47.20" stroke="currentColor" fill="none"/>
<use x="493.23" y="117.01" xlink:href="#hl"/>
<use x="493.23" y="111.01" xlink:href="#hl"/>
<use x="493.23" y="105.01" xlink:href="#hl"/>
<use x="493.23" y="99.01" xlink:href="#hl"/>
<use x="493.23" y="93.01" xlink:href="#hl"/>
<use x="493.23" y="87.01" xlink:href="#hl"/>
<use x="493.23" y="84.01" xlink:href="#hd"/>
<path d="M489.73 84.01v51.00" stroke="currentColor" fill="none"/>
<path fill="currentColor"
	d="M489.73 135.01c0.6 -5.6 9.6 -9 5.6 -18.4
	c1.6 6 -1.3 11.6 -5.6 12.8
"/>
</g>
</svg>
