<?xml version="1.0" standalone="no"?>
<!DOCTYPE svg PUBLIC "-//W3C//DTD SVG 1.1//EN"
	"http://www.w3.org/Graphics/SVG/1.1/DTD/svg11.dtd">
<svg xmlns="http://www.w3.org/2000/svg" version="1.1"
	xmlns:xlink="http://www.w3.org/1999/xlink"
	xml:space='preserve' color="black"
	width="7.38in" height="1.46in" viewBox="0 0 531 105">
<title>7357.abc (7357) tune 1</title>
<!-- Creator: abcm2ps-7.8.14 -->
<!-- CreationDate: Mar 13, 2016 18:54 -->
<!-- CommandLine: -qxg 7357.abc -O ../svgs/7357.svg -->
<g transform="scale(0.750)" stroke-width="0.70" font-family="Times" font-size="20.00">
<text x="354.13" y="21.67" text-anchor="middle">7357.  Fantasias for Harpsi., No. 2</text>
</g>
<g transform="scale(0.750)" stroke-width="0.70" font-family="Times" font-size="14.00" font-style="italic">
<text x="694.93" y="45.34" text-anchor="end">Georg Philipp Telemann</text>
</g>
<g transform="scale(0.525)" stroke-width="0.70" font-family="Times" font-size="14.00" font-style="italic">
<defs>
<ellipse id="hd" rx="4.1" ry="2.9"
	transform="rotate(-20)" fill="currentColor"/>
</defs>
<use x="89.90" y="94.16" xlink:href="#hd"/>
<path d="M93.40 94.16v-20.00" stroke="currentColor" fill="none"/>
</g>
<g transform="scale(0.750)" stroke-width="0.70" font-family="Times" font-size="15.00" font-weight="bold">
<text x="70.63" y="68.01">= 120</text>
<path stroke="currentColor" fill="none"
	d="M208.03 117.01v-24.00"/>
<path stroke="currentColor" fill="none"
	d="M366.63 117.01v-24.00"/>
<path stroke="currentColor" fill="none"
	d="M520.03 117.01v-24.00"/>
<path stroke="currentColor" fill="none"
	d="M694.93 117.01v-24.00"/>
<path stroke="currentColor" fill="none"
	d="M13.33 117.01h681.60m-681.60 -6h681.60m-681.60 -6h681.60m-681.60 -6h681.60m-681.60 -6h681.60"/>
<defs>
<path id="utclef" fill="currentColor" d="m-50 -90
	c-72 -41 -72 -158 52 -188
	c150 -10 220 188 90 256
	c-114 52 -275 0 -293 -136
	c-15 -181 93 -229 220 -334
	c88 -87 79 -133 62 -210
	c-51 33 -94 105 -89 186
	c17 267 36 374 49 574
	c6 96 -19 134 -77 135
	c-80 1 -126 -93 -61 -133
	c85 -41 133 101 31 105
	c23 17 92 37 90 -92
	c-10 -223 -39 -342 -50 -617
	c0 -90 0 -162 96 -232
	c56 72 63 230 22 289
	c-74 106 -257 168 -255 316
	c9 153 148 185 252 133
	c86 -65 29 -192 -80 -176
	c-71 12 -105 67 -59 124"/>
<use id="tclef" transform="scale(0.045)"
	xlink:href="#utclef"/>
</defs>
<use x="25.33" y="117.01" xlink:href="#tclef"/>
<g font-family="serif" font-size="16" font-weight="bold" font-style="normal"
	transform="translate(43.83,117.01) scale(1.2,1)">
	<text y="-1" text-anchor="middle">2</text>
	<text y="-13" text-anchor="middle">4</text>
</g>
<defs>
<path id="hl" stroke="currentColor" d="m-6 0h12"/>
</defs>
<use x="62.33" y="87.01" xlink:href="#hl"/>
<use x="62.33" y="81.01" xlink:href="#hl"/>
<defs>
<path id="Hd" fill="currentColor" d="m3 -1.6
	c-1 -1.8 -7 1.4 -6 3.2
	c1 1.8 7 -1.4 6 -3.2
	m0.5 -0.3
	c2 3.8 -5 7.6 -7 3.8
	c-2 -3.8 5 -7.6 7 -3.8"/>
</defs>
<use x="62.33" y="78.01" xlink:href="#Hd"/>
<path d="M58.83 78.01v27.00" stroke="currentColor" fill="none"/>
<use x="88.43" y="87.01" xlink:href="#hl"/>
<use x="88.43" y="87.01" xlink:href="#Hd"/>
<path d="M84.93 87.01v20.00" stroke="currentColor" fill="none"/>
<use x="114.23" y="93.01" xlink:href="#hd"/>
<path d="M110.73 93.01v20.00" stroke="currentColor" fill="none"/>
<path fill="currentColor"
	d="M110.73 113.01c0.6 -5.6 9.6 -9 5.6 -18.4
	c1.6 6 -1.3 11.6 -5.6 12.8
"/>
<use x="127.93" y="96.01" xlink:href="#hd"/>
<path d="M124.43 96.01v20.00" stroke="currentColor" fill="none"/>
<path fill="currentColor"
	d="M124.43 116.01c0.6 -5.6 9.6 -9 5.6 -18.4
	c1.6 6 -1.3 11.6 -5.6 12.8
"/>
<use x="141.53" y="99.01" xlink:href="#hd"/>
<path d="M138.03 99.01v20.00" stroke="currentColor" fill="none"/>
<defs>
<path id="r4" fill="currentColor" d="m-1 -8.5
	l3.6 5.1 -2.1 5.2 2.2 4.3
	c-2.6 -2.3 -5.1 0 -2.4 2.6
	c-4.8 -3 -1.5 -6.9 1.4 -4.1
	l-3.1 -4.5 1.9 -5.1 -1.5 -3.5"/>
</defs>
<use x="160.13" y="105.01" xlink:href="#r4"/>
<use x="178.83" y="87.01" xlink:href="#hl"/>
<use x="178.83" y="81.01" xlink:href="#hl"/>
<use x="178.83" y="78.01" xlink:href="#hd"/>
<path d="M175.33 78.01v27.00" stroke="currentColor" fill="none"/>
<path fill="currentColor"
	d="M175.33 105.01c0.6 -5.6 9.6 -9 5.6 -18.4
	c1.6 6 -1.3 11.6 -5.6 12.8
"/>
<use x="196.83" y="87.01" xlink:href="#hl"/>
<use x="196.83" y="81.01" xlink:href="#hl"/>
<use x="196.83" y="81.01" xlink:href="#hd"/>
<defs>
<path id="usharp" fill="currentColor" d="
	m136 -702
	v890
	h32
	v-890
	m128 840
	h32
	v-888
	h-32
	m-232 286
	v116
	l338 -96
	v-116
	m-338 442
	v116
	l338 -98
	v-114"/>
<use id="sh0" transform="translate(-4,5) scale(0.018)"
	xlink:href="#usharp"/>
</defs>
<use x="187.83" y="81.01" xlink:href="#sh0"/>
<path d="M193.33 81.01v24.00" stroke="currentColor" fill="none"/>
<path fill="currentColor"
	d="M193.33 105.01c0.6 -5.6 9.6 -9 5.6 -18.4
	c1.6 6 -1.3 11.6 -5.6 12.8
"/>
<use x="220.53" y="87.01" xlink:href="#hl"/>
<use x="220.53" y="81.01" xlink:href="#hl"/>
<use x="220.53" y="78.01" xlink:href="#hd"/>
<path d="M217.03 78.01v27.00" stroke="currentColor" fill="none"/>
<use x="239.23" y="93.01" xlink:href="#hd"/>
<path d="M235.73 93.01v20.00" stroke="currentColor" fill="none"/>
<use x="257.83" y="90.01" xlink:href="#hd"/>
<path d="M254.33 90.01v20.00" stroke="currentColor" fill="none"/>
<use x="276.53" y="87.01" xlink:href="#hl"/>
<use x="276.53" y="87.01" xlink:href="#hd"/>
<path d="M273.03 87.01v20.00" stroke="currentColor" fill="none"/>
<use x="295.13" y="99.01" xlink:href="#hd"/>
<path d="M291.63 99.01v20.00" stroke="currentColor" fill="none"/>
<use x="313.73" y="93.01" xlink:href="#hd"/>
<path d="M310.23 93.01v20.00" stroke="currentColor" fill="none"/>
<use x="332.43" y="87.01" xlink:href="#hl"/>
<use x="332.43" y="87.01" xlink:href="#hd"/>
<path d="M328.93 87.01v20.00" stroke="currentColor" fill="none"/>
<use x="351.33" y="87.01" xlink:href="#hl"/>
<use x="351.33" y="81.01" xlink:href="#hl"/>
<use x="351.33" y="78.01" xlink:href="#hd"/>
<path d="M347.83 78.01v27.00" stroke="currentColor" fill="none"/>
<defs>
<path id="hl1" stroke="currentColor" d="m-7 0h14"/>
</defs>
<use x="381.63" y="87.01" xlink:href="#hl1"/>
<use x="381.63" y="81.01" xlink:href="#hl1"/>
<use x="381.63" y="75.01" xlink:href="#hl1"/>
<defs>
<path id="HD" fill="currentColor" d="m-2.7 -1.4
	c1.5 -2.8 6.9 0 5.3 2.7
	c-1.5 2.8 -6.9 0 -5.3 -2.7
	m8.3 1.4
	c0 -1.5 -2.2 -3 -5.6 -3
	c-3.4 0 -5.6 1.5 -5.6 3
	c0 1.5 2.2 3 5.6 3
	c3.4 0 5.6 -1.5 5.6 -3"/>
</defs>
<use x="381.63" y="72.01" xlink:href="#HD"/>
<use x="416.63" y="105.01" xlink:href="#r4"/>
<use x="435.33" y="87.01" xlink:href="#hl"/>
<use x="435.33" y="81.01" xlink:href="#hl"/>
<use x="435.33" y="75.01" xlink:href="#hl"/>
<use x="435.33" y="75.01" xlink:href="#hd"/>
<path d="M431.83 75.01v30.00" stroke="currentColor" fill="none"/>
<path fill="currentColor"
	d="M431.83 105.01c0.6 -5.6 9.6 -9 5.6 -18.4
	c1.6 6 -1.3 11.6 -5.6 12.8
"/>
<use x="449.13" y="87.01" xlink:href="#hl"/>
<use x="449.13" y="81.01" xlink:href="#hl"/>
<use x="449.13" y="78.01" xlink:href="#hd"/>
<path d="M445.63 78.01v27.00" stroke="currentColor" fill="none"/>
<path fill="currentColor"
	d="M445.63 105.01c0.6 -5.6 9.6 -9 5.6 -18.4
	c1.6 6 -1.3 11.6 -5.6 12.8
"/>
<use x="463.03" y="87.01" xlink:href="#hl"/>
<use x="463.03" y="81.01" xlink:href="#hl"/>
<use x="463.03" y="75.01" xlink:href="#hl"/>
<use x="463.03" y="72.01" xlink:href="#hd"/>
<path d="M459.53 72.01v33.00" stroke="currentColor" fill="none"/>
<path fill="currentColor"
	d="M459.53 105.01c0.6 -5.6 9.6 -9 5.6 -18.4
	c1.6 6 -1.3 11.6 -5.6 12.8
"/>
<use x="476.83" y="87.01" xlink:href="#hl"/>
<use x="476.83" y="81.01" xlink:href="#hl"/>
<use x="476.83" y="75.01" xlink:href="#hl"/>
<use x="476.83" y="75.01" xlink:href="#hd"/>
<path d="M473.33 75.01v30.00" stroke="currentColor" fill="none"/>
<path fill="currentColor"
	d="M473.33 105.01c0.6 -5.6 9.6 -9 5.6 -18.4
	c1.6 6 -1.3 11.6 -5.6 12.8
"/>
<use x="490.73" y="87.01" xlink:href="#hl"/>
<use x="490.73" y="81.01" xlink:href="#hl"/>
<use x="490.73" y="78.01" xlink:href="#hd"/>
<path d="M487.23 78.01v27.00" stroke="currentColor" fill="none"/>
<path fill="currentColor"
	d="M487.23 105.01c0.6 -5.6 9.6 -9 5.6 -18.4
	c1.6 6 -1.3 11.6 -5.6 12.8
"/>
<use x="508.73" y="87.01" xlink:href="#hl"/>
<use x="508.73" y="81.01" xlink:href="#hl"/>
<use x="508.73" y="81.01" xlink:href="#hd"/>
<defs>
<path id="unat" fill="currentColor" d="
	m96 -750
	h-32
	v716
	l32 -8
	l182 -54
	v282
	h32
	v-706
	l-34 10
	l-180 50
	v-290
	m0 592
	v-190
	l182 -52
	v188"/>
<use id="nt0" transform="translate(-3,5) scale(0.018)"
	xlink:href="#unat"/>
</defs>
<use x="499.73" y="81.01" xlink:href="#nt0"/>
<path d="M505.23 81.01v24.00" stroke="currentColor" fill="none"/>
<path fill="currentColor"
	d="M505.23 105.01c0.6 -5.6 9.6 -9 5.6 -18.4
	c1.6 6 -1.3 11.6 -5.6 12.8
"/>
<use x="532.53" y="87.01" xlink:href="#hl"/>
<use x="532.53" y="81.01" xlink:href="#hl"/>
<use x="532.53" y="78.01" xlink:href="#hd"/>
<path d="M529.03 78.01v27.00" stroke="currentColor" fill="none"/>
<use x="551.13" y="90.01" xlink:href="#hd"/>
<path d="M547.63 90.01v20.00" stroke="currentColor" fill="none"/>
<use x="569.83" y="87.01" xlink:href="#hl"/>
<use x="569.83" y="81.01" xlink:href="#hl"/>
<use x="569.83" y="75.01" xlink:href="#hl"/>
<use x="569.83" y="69.01" xlink:href="#hl"/>
<use x="569.83" y="69.01" xlink:href="#Hd"/>
<path d="M566.33 69.01v36.00" stroke="currentColor" fill="none"/>
<use x="595.73" y="105.01" xlink:href="#r4"/>
<use x="614.33" y="87.01" xlink:href="#hl"/>
<use x="614.33" y="81.01" xlink:href="#hl"/>
<use x="614.33" y="75.01" xlink:href="#hl"/>
<use x="614.33" y="72.01" xlink:href="#hd"/>
<path d="M610.83 72.01v33.00" stroke="currentColor" fill="none"/>
<path fill="currentColor"
	d="M610.83 105.01c0.6 -5.6 9.6 -9 5.6 -18.4
	c1.6 6 -1.3 11.6 -5.6 12.8
"/>
<use x="628.23" y="87.01" xlink:href="#hl"/>
<use x="628.23" y="81.01" xlink:href="#hl"/>
<use x="628.23" y="75.01" xlink:href="#hl"/>
<use x="628.23" y="75.01" xlink:href="#hd"/>
<path d="M624.73 75.01v30.00" stroke="currentColor" fill="none"/>
<path fill="currentColor"
	d="M624.73 105.01c0.6 -5.6 9.6 -9 5.6 -18.4
	c1.6 6 -1.3 11.6 -5.6 12.8
"/>
<use x="642.03" y="87.01" xlink:href="#hl"/>
<use x="642.03" y="81.01" xlink:href="#hl"/>
<use x="642.03" y="75.01" xlink:href="#hl"/>
<use x="642.03" y="69.01" xlink:href="#hl"/>
<use x="642.03" y="69.01" xlink:href="#hd"/>
<path d="M638.53 69.01v36.00" stroke="currentColor" fill="none"/>
<path fill="currentColor"
	d="M638.53 105.01c0.6 -5.6 9.6 -9 5.6 -18.4
	c1.6 6 -1.3 11.6 -5.6 12.8
"/>
<use x="655.93" y="87.01" xlink:href="#hl"/>
<use x="655.93" y="81.01" xlink:href="#hl"/>
<use x="655.93" y="75.01" xlink:href="#hl"/>
<use x="655.93" y="72.01" xlink:href="#hd"/>
<path d="M652.43 72.01v33.00" stroke="currentColor" fill="none"/>
<path fill="currentColor"
	d="M652.43 105.01c0.6 -5.6 9.6 -9 5.6 -18.4
	c1.6 6 -1.3 11.6 -5.6 12.8
"/>
<use x="669.83" y="87.01" xlink:href="#hl"/>
<use x="669.83" y="81.01" xlink:href="#hl"/>
<use x="669.83" y="75.01" xlink:href="#hl"/>
<use x="669.83" y="75.01" xlink:href="#hd"/>
<path d="M666.33 75.01v30.00" stroke="currentColor" fill="none"/>
<path fill="currentColor"
	d="M666.33 105.01c0.6 -5.6 9.6 -9 5.6 -18.4
	c1.6 6 -1.3 11.6 -5.6 12.8
"/>
<use x="683.63" y="87.01" xlink:href="#hl"/>
<use x="683.63" y="81.01" xlink:href="#hl"/>
<use x="683.63" y="78.01" xlink:href="#hd"/>
<path d="M680.13 78.01v27.00" stroke="currentColor" fill="none"/>
<path fill="currentColor"
	d="M680.13 105.01c0.6 -5.6 9.6 -9 5.6 -18.4
	c1.6 6 -1.3 11.6 -5.6 12.8
"/>
</g>
</svg>
