<?xml version="1.0" standalone="no"?>
<!DOCTYPE svg PUBLIC "-//W3C//DTD SVG 1.1//EN"
	"http://www.w3.org/Graphics/SVG/1.1/DTD/svg11.dtd">
<svg xmlns="http://www.w3.org/2000/svg" version="1.1"
	xmlns:xlink="http://www.w3.org/1999/xlink"
	xml:space='preserve' color="black"
	width="7.38in" height="1.59in" viewBox="0 0 531 114">
<title>7385.abc (7385) tune 1</title>
<!-- Creator: abcm2ps-7.8.14 -->
<!-- CreationDate: Mar 13, 2016 18:54 -->
<!-- CommandLine: -qxg 7385.abc -O ../svgs/7385.svg -->
<g transform="scale(0.750)" stroke-width="0.70" font-family="Times" font-size="20.00">
<text x="354.13" y="21.67" text-anchor="middle">7385.  Suite in A Minor, Forlane</text>
</g>
<g transform="scale(0.750)" stroke-width="0.70" font-family="Times" font-size="14.00" font-style="italic">
<text x="694.93" y="45.34" text-anchor="end">Georg Philipp Telemann</text>
</g>
<g transform="scale(0.525)" stroke-width="0.70" font-family="Times" font-size="14.00" font-style="italic">
<defs>
<ellipse id="hd" rx="4.1" ry="2.9"
	transform="rotate(-20)" fill="currentColor"/>
</defs>
<use x="81.76" y="94.16" xlink:href="#hd"/>
<path d="M85.26 94.16v-20.00" stroke="currentColor" fill="none"/>
</g>
<g transform="scale(0.750)" stroke-width="0.70" font-family="Times" font-size="15.00" font-weight="bold">
<text x="64.93" y="68.01">= 120</text>
<path stroke="currentColor" fill="none"
	d="M178.83 129.21v-24.00"/>
<path stroke="currentColor" fill="none"
	d="M286.13 129.21v-24.00"/>
<path stroke="currentColor" fill="none"
	d="M393.53 129.21v-24.00"/>
<path stroke="currentColor" fill="none"
	d="M500.83 129.21v-24.00"/>
<path stroke="currentColor" fill="none"
	d="M588.93 129.21v-24.00"/>
<path stroke="currentColor" fill="none"
	d="M694.93 129.21v-24.00"/>
<path stroke="currentColor" fill="none"
	d="M13.33 129.21h681.60m-681.60 -6h681.60m-681.60 -6h681.60m-681.60 -6h681.60m-681.60 -6h681.60"/>
<path stroke="currentColor" fill="none"
	d="M200.53 56.21v-3l27.40 12.00v3"/>
<rect x="207.23" y="53.21" width="14.00" height="12" fill="white"/>
<text font-family="serif" font-size="12" font-style="italic" font-weight="normal"
	x="214.23" y="63.21" text-anchor="middle">3</text>
<path stroke="currentColor" fill="none"
	d="M307.83 79.41v-3l27.40 -15.00v3"/>
<rect x="314.53" y="62.91" width="14.00" height="12" fill="white"/>
<text font-family="serif" font-size="12" font-style="italic" font-weight="normal"
	x="321.53" y="72.91" text-anchor="middle">3</text>
<path stroke="currentColor" fill="none"
	d="M415.13 56.21v-3l27.40 12.00v3"/>
<rect x="421.83" y="53.21" width="14.00" height="12" fill="white"/>
<text font-family="serif" font-size="12" font-style="italic" font-weight="normal"
	x="428.83" y="63.21" text-anchor="middle">3</text>
<path stroke="currentColor" fill="none"
	d="M610.63 70.81v-3l26.10 12.00v3"/>
<rect x="616.63" y="67.81" width="14.00" height="12" fill="white"/>
<text font-family="serif" font-size="12" font-style="italic" font-weight="normal"
	x="623.63" y="77.81" text-anchor="middle">3</text>
<defs>
<path id="utclef" fill="currentColor" d="m-50 -90
	c-72 -41 -72 -158 52 -188
	c150 -10 220 188 90 256
	c-114 52 -275 0 -293 -136
	c-15 -181 93 -229 220 -334
	c88 -87 79 -133 62 -210
	c-51 33 -94 105 -89 186
	c17 267 36 374 49 574
	c6 96 -19 134 -77 135
	c-80 1 -126 -93 -61 -133
	c85 -41 133 101 31 105
	c23 17 92 37 90 -92
	c-10 -223 -39 -342 -50 -617
	c0 -90 0 -162 96 -232
	c56 72 63 230 22 289
	c-74 106 -257 168 -255 316
	c9 153 148 185 252 133
	c86 -65 29 -192 -80 -176
	c-71 12 -105 67 -59 124"/>
<use id="tclef" transform="scale(0.045)"
	xlink:href="#utclef"/>
</defs>
<use x="23.03" y="129.21" xlink:href="#tclef"/>
<g font-family="serif" font-size="16" font-weight="bold" font-style="normal"
	transform="translate(40.63,129.21) scale(1.2,1)">
	<text y="-1" text-anchor="middle">8</text>
	<text y="-13" text-anchor="middle">6</text>
</g>
<defs>
<path id="hl" stroke="currentColor" d="m-6 0h12"/>
</defs>
<use x="56.63" y="99.21" xlink:href="#hl"/>
<use x="56.63" y="93.21" xlink:href="#hl"/>
<use x="56.63" y="87.21" xlink:href="#hl"/>
<use x="56.63" y="87.21" xlink:href="#hd"/>
<path d="M53.13 87.21v30.00" stroke="currentColor" fill="none"/>
<path fill="currentColor"
	d="M53.13 117.21c0.6 -5.6 9.6 -9 5.6 -18.4
	c1.6 6 -1.3 11.6 -5.6 12.8
"/>
<use x="71.13" y="99.21" xlink:href="#hl"/>
<use x="71.13" y="99.21" xlink:href="#hd"/>
<path d="M67.63 99.21v20.00" stroke="currentColor" fill="none"/>
<path fill="currentColor"
	d="M87.83 117.51l23.10 0.00v-3.20l-23.10 -0.00"/>
<path fill="currentColor"
	d="M101.23 112.51l9.40 0.00v-3.20l-9.40 -0.00"/>
<path fill="currentColor"
	d="M101.23 107.51l9.40 0.00v-3.20l-9.40 -0.00"/>
<use x="91.63" y="99.21" xlink:href="#hl"/>
<use x="91.63" y="93.21" xlink:href="#hl"/>
<use x="91.63" y="87.21" xlink:href="#hl"/>
<use x="91.63" y="84.21" xlink:href="#hd"/>
<path d="M88.13 84.21v32.20" stroke="currentColor" fill="none"/>
<use x="104.73" y="99.21" xlink:href="#hl"/>
<use x="104.73" y="93.21" xlink:href="#hl"/>
<use x="104.73" y="87.21" xlink:href="#hl"/>
<use x="104.73" y="87.21" xlink:href="#hd"/>
<path d="M101.23 87.21v29.20" stroke="currentColor" fill="none"/>
<use x="114.03" y="99.21" xlink:href="#hl"/>
<use x="114.03" y="93.21" xlink:href="#hl"/>
<use x="114.03" y="87.21" xlink:href="#hl"/>
<use x="114.03" y="84.21" xlink:href="#hd"/>
<path d="M110.53 84.21v32.20" stroke="currentColor" fill="none"/>
<path fill="currentColor"
	d="M119.63 117.51l47.60 0.00v-3.20l-47.60 -0.00"/>
<path fill="currentColor"
	d="M119.93 112.51l46.90 0.00v-3.20l-46.90 -0.00"/>
<path fill="currentColor"
	d="M119.93 107.51l46.90 0.00v-3.20l-46.90 -0.00"/>
<use x="123.43" y="99.21" xlink:href="#hl"/>
<use x="123.43" y="93.21" xlink:href="#hl"/>
<use x="123.43" y="87.21" xlink:href="#hl"/>
<use x="123.43" y="87.21" xlink:href="#hd"/>
<path d="M119.93 87.21v29.20" stroke="currentColor" fill="none"/>
<use x="132.83" y="99.21" xlink:href="#hl"/>
<use x="132.83" y="93.21" xlink:href="#hl"/>
<use x="132.83" y="87.21" xlink:href="#hl"/>
<use x="132.83" y="84.21" xlink:href="#hd"/>
<path d="M129.33 84.21v32.20" stroke="currentColor" fill="none"/>
<use x="142.23" y="99.21" xlink:href="#hl"/>
<use x="142.23" y="93.21" xlink:href="#hl"/>
<use x="142.23" y="87.21" xlink:href="#hl"/>
<use x="142.23" y="87.21" xlink:href="#hd"/>
<path d="M138.73 87.21v29.20" stroke="currentColor" fill="none"/>
<use x="151.63" y="99.21" xlink:href="#hl"/>
<use x="151.63" y="93.21" xlink:href="#hl"/>
<use x="151.63" y="87.21" xlink:href="#hl"/>
<use x="151.63" y="84.21" xlink:href="#hd"/>
<path d="M148.13 84.21v32.20" stroke="currentColor" fill="none"/>
<use x="160.93" y="99.21" xlink:href="#hl"/>
<use x="160.93" y="93.21" xlink:href="#hl"/>
<use x="160.93" y="87.21" xlink:href="#hl"/>
<use x="160.93" y="87.21" xlink:href="#hd"/>
<path d="M157.43 87.21v29.20" stroke="currentColor" fill="none"/>
<use x="170.33" y="99.21" xlink:href="#hl"/>
<use x="170.33" y="93.21" xlink:href="#hl"/>
<use x="170.33" y="87.21" xlink:href="#hl"/>
<use x="170.33" y="84.21" xlink:href="#hd"/>
<path d="M166.83 84.21v32.20" stroke="currentColor" fill="none"/>
<use x="190.03" y="99.21" xlink:href="#hl"/>
<use x="190.03" y="93.21" xlink:href="#hl"/>
<use x="190.03" y="90.21" xlink:href="#hd"/>
<path d="M186.53 90.21v27.00" stroke="currentColor" fill="none"/>
<path fill="currentColor"
	d="M186.53 117.21c0.6 -5.6 9.6 -9 5.6 -18.4
	c1.6 6 -1.3 11.6 -5.6 12.8
"/>
<use x="204.53" y="99.21" xlink:href="#hl"/>
<use x="204.53" y="93.21" xlink:href="#hl"/>
<use x="204.53" y="87.21" xlink:href="#hl"/>
<use x="204.53" y="81.21" xlink:href="#hl"/>
<use x="204.53" y="81.21" xlink:href="#hd"/>
<path d="M201.03 81.21v36.00" stroke="currentColor" fill="none"/>
<use x="221.03" y="99.21" xlink:href="#hl"/>
<use x="221.03" y="93.21" xlink:href="#hl"/>
<use x="221.03" y="87.21" xlink:href="#hl"/>
<use x="221.03" y="81.21" xlink:href="#hl"/>
<use x="221.03" y="81.21" xlink:href="#hd"/>
<path d="M217.53 81.21v36.00" stroke="currentColor" fill="none"/>
<path fill="currentColor"
	d="M217.53 117.21c0.9 -3.7 9.1 -6.4 6 -12.4
	c1 5.4 -4.2 8.4 -6 8.4
M217.53 111.81c0.9 -3.7 9.1 -6.4 6 -12.4
	c1 5.4 -4.2 8.4 -6 8.4
"/>
<use x="230.43" y="99.21" xlink:href="#hl"/>
<use x="230.43" y="93.21" xlink:href="#hl"/>
<use x="230.43" y="93.21" xlink:href="#hd"/>
<path d="M226.93 93.21v24.00" stroke="currentColor" fill="none"/>
<use x="246.93" y="99.21" xlink:href="#hl"/>
<use x="246.93" y="93.21" xlink:href="#hl"/>
<use x="246.93" y="93.21" xlink:href="#hd"/>
<path d="M243.43 93.21v24.00" stroke="currentColor" fill="none"/>
<path fill="currentColor"
	d="M243.43 117.21c0.9 -3.7 9.1 -6.4 6 -12.4
	c1 5.4 -4.2 8.4 -6 8.4
M243.43 111.81c0.9 -3.7 9.1 -6.4 6 -12.4
	c1 5.4 -4.2 8.4 -6 8.4
"/>
<use x="257.23" y="99.21" xlink:href="#hl"/>
<use x="257.23" y="93.21" xlink:href="#hl"/>
<use x="257.23" y="93.21" xlink:href="#hd"/>
<path d="M253.73 93.21v24.00" stroke="currentColor" fill="none"/>
<use x="277.63" y="99.21" xlink:href="#hl"/>
<use x="277.63" y="93.21" xlink:href="#hl"/>
<use x="277.63" y="93.21" xlink:href="#hd"/>
<path d="M274.13 93.21v24.00" stroke="currentColor" fill="none"/>
<path fill="currentColor"
	d="M274.13 117.21c0.9 -3.7 9.1 -6.4 6 -12.4
	c1 5.4 -4.2 8.4 -6 8.4
M274.13 111.81c0.9 -3.7 9.1 -6.4 6 -12.4
	c1 5.4 -4.2 8.4 -6 8.4
"/>
<use x="297.33" y="99.21" xlink:href="#hl"/>
<use x="297.33" y="93.21" xlink:href="#hl"/>
<use x="297.33" y="87.21" xlink:href="#hl"/>
<use x="297.33" y="87.21" xlink:href="#hd"/>
<path d="M293.83 87.21v30.00" stroke="currentColor" fill="none"/>
<path fill="currentColor"
	d="M293.83 117.21c0.6 -5.6 9.6 -9 5.6 -18.4
	c1.6 6 -1.3 11.6 -5.6 12.8
"/>
<use x="311.83" y="99.21" xlink:href="#hl"/>
<use x="311.83" y="99.21" xlink:href="#hd"/>
<path d="M308.33 99.21v20.00" stroke="currentColor" fill="none"/>
<use x="328.33" y="99.21" xlink:href="#hl"/>
<use x="328.33" y="99.21" xlink:href="#hd"/>
<path d="M324.83 99.21v22.00" stroke="currentColor" fill="none"/>
<path fill="currentColor"
	d="M324.83 121.21c0.9 -3.7 9.1 -6.4 6 -12.4
	c1 5.4 -4.2 8.4 -6 8.4
M324.83 115.81c0.9 -3.7 9.1 -6.4 6 -12.4
	c1 5.4 -4.2 8.4 -6 8.4
"/>
<use x="337.73" y="99.21" xlink:href="#hl"/>
<use x="337.73" y="93.21" xlink:href="#hl"/>
<use x="337.73" y="87.21" xlink:href="#hl"/>
<use x="337.73" y="84.21" xlink:href="#hd"/>
<path d="M334.23 84.21v33.00" stroke="currentColor" fill="none"/>
<use x="354.23" y="99.21" xlink:href="#hl"/>
<use x="354.23" y="93.21" xlink:href="#hl"/>
<use x="354.23" y="87.21" xlink:href="#hl"/>
<use x="354.23" y="84.21" xlink:href="#hd"/>
<path d="M350.73 84.21v33.00" stroke="currentColor" fill="none"/>
<path fill="currentColor"
	d="M350.73 117.21c0.9 -3.7 9.1 -6.4 6 -12.4
	c1 5.4 -4.2 8.4 -6 8.4
M350.73 111.81c0.9 -3.7 9.1 -6.4 6 -12.4
	c1 5.4 -4.2 8.4 -6 8.4
"/>
<use x="364.53" y="99.21" xlink:href="#hl"/>
<use x="364.53" y="93.21" xlink:href="#hl"/>
<use x="364.53" y="87.21" xlink:href="#hl"/>
<use x="364.53" y="87.21" xlink:href="#hd"/>
<path d="M361.03 87.21v30.00" stroke="currentColor" fill="none"/>
<use x="385.03" y="99.21" xlink:href="#hl"/>
<use x="385.03" y="93.21" xlink:href="#hl"/>
<use x="385.03" y="87.21" xlink:href="#hl"/>
<use x="385.03" y="87.21" xlink:href="#hd"/>
<path d="M381.53 87.21v30.00" stroke="currentColor" fill="none"/>
<path fill="currentColor"
	d="M381.53 117.21c0.9 -3.7 9.1 -6.4 6 -12.4
	c1 5.4 -4.2 8.4 -6 8.4
M381.53 111.81c0.9 -3.7 9.1 -6.4 6 -12.4
	c1 5.4 -4.2 8.4 -6 8.4
"/>
<use x="404.63" y="99.21" xlink:href="#hl"/>
<use x="404.63" y="93.21" xlink:href="#hl"/>
<use x="404.63" y="90.21" xlink:href="#hd"/>
<path d="M401.13 90.21v27.00" stroke="currentColor" fill="none"/>
<path fill="currentColor"
	d="M401.13 117.21c0.6 -5.6 9.6 -9 5.6 -18.4
	c1.6 6 -1.3 11.6 -5.6 12.8
"/>
<use x="419.13" y="99.21" xlink:href="#hl"/>
<use x="419.13" y="93.21" xlink:href="#hl"/>
<use x="419.13" y="87.21" xlink:href="#hl"/>
<use x="419.13" y="81.21" xlink:href="#hl"/>
<use x="419.13" y="81.21" xlink:href="#hd"/>
<path d="M415.63 81.21v36.00" stroke="currentColor" fill="none"/>
<use x="435.63" y="99.21" xlink:href="#hl"/>
<use x="435.63" y="93.21" xlink:href="#hl"/>
<use x="435.63" y="87.21" xlink:href="#hl"/>
<use x="435.63" y="81.21" xlink:href="#hl"/>
<use x="435.63" y="81.21" xlink:href="#hd"/>
<path d="M432.13 81.21v36.00" stroke="currentColor" fill="none"/>
<path fill="currentColor"
	d="M432.13 117.21c0.9 -3.7 9.1 -6.4 6 -12.4
	c1 5.4 -4.2 8.4 -6 8.4
M432.13 111.81c0.9 -3.7 9.1 -6.4 6 -12.4
	c1 5.4 -4.2 8.4 -6 8.4
"/>
<use x="445.03" y="99.21" xlink:href="#hl"/>
<use x="445.03" y="93.21" xlink:href="#hl"/>
<use x="445.03" y="93.21" xlink:href="#hd"/>
<path d="M441.53 93.21v24.00" stroke="currentColor" fill="none"/>
<use x="461.63" y="99.21" xlink:href="#hl"/>
<use x="461.63" y="93.21" xlink:href="#hl"/>
<use x="461.63" y="93.21" xlink:href="#hd"/>
<path d="M458.13 93.21v24.00" stroke="currentColor" fill="none"/>
<path fill="currentColor"
	d="M458.13 117.21c0.9 -3.7 9.1 -6.4 6 -12.4
	c1 5.4 -4.2 8.4 -6 8.4
M458.13 111.81c0.9 -3.7 9.1 -6.4 6 -12.4
	c1 5.4 -4.2 8.4 -6 8.4
"/>
<use x="471.83" y="99.21" xlink:href="#hl"/>
<use x="471.83" y="93.21" xlink:href="#hl"/>
<use x="471.83" y="93.21" xlink:href="#hd"/>
<path d="M468.33 93.21v24.00" stroke="currentColor" fill="none"/>
<use x="492.33" y="99.21" xlink:href="#hl"/>
<use x="492.33" y="93.21" xlink:href="#hl"/>
<use x="492.33" y="93.21" xlink:href="#hd"/>
<path d="M488.83 93.21v24.00" stroke="currentColor" fill="none"/>
<path fill="currentColor"
	d="M488.83 117.21c0.9 -3.7 9.1 -6.4 6 -12.4
	c1 5.4 -4.2 8.4 -6 8.4
M488.83 111.81c0.9 -3.7 9.1 -6.4 6 -12.4
	c1 5.4 -4.2 8.4 -6 8.4
"/>
<path fill="currentColor"
	d="M508.13 117.51l29.80 0.00v-3.20l-29.80 -0.00"/>
<path fill="currentColor"
	d="M531.63 112.51l6.00 0.00v-3.20l-6.00 -0.00"/>
<use x="511.93" y="99.21" xlink:href="#hl"/>
<use x="511.93" y="93.21" xlink:href="#hl"/>
<use x="511.93" y="87.21" xlink:href="#hl"/>
<use x="511.93" y="87.21" xlink:href="#hd"/>
<path d="M508.43 87.21v29.20" stroke="currentColor" fill="none"/>
<use x="525.03" y="99.21" xlink:href="#hl"/>
<use x="525.03" y="93.21" xlink:href="#hl"/>
<use x="525.03" y="90.21" xlink:href="#hd"/>
<circle fill="currentColor" cx="533.03" cy="90.21" r="1.2"/>
<path d="M521.53 90.21v26.20" stroke="currentColor" fill="none"/>
<use x="541.13" y="99.21" xlink:href="#hl"/>
<use x="541.13" y="93.21" xlink:href="#hl"/>
<use x="541.13" y="87.21" xlink:href="#hl"/>
<use x="541.13" y="87.21" xlink:href="#hd"/>
<path d="M537.63 87.21v29.20" stroke="currentColor" fill="none"/>
<path fill="currentColor"
	d="M547.53 117.51l29.80 0.00v-3.20l-29.80 -0.00"/>
<path fill="currentColor"
	d="M570.93 112.51l6.00 0.00v-3.20l-6.00 -0.00"/>
<use x="551.33" y="99.21" xlink:href="#hl"/>
<use x="551.33" y="93.21" xlink:href="#hl"/>
<use x="551.33" y="93.21" xlink:href="#hd"/>
<path d="M547.83 93.21v23.20" stroke="currentColor" fill="none"/>
<use x="564.43" y="99.21" xlink:href="#hl"/>
<use x="564.43" y="96.21" xlink:href="#hd"/>
<circle fill="currentColor" cx="572.43" cy="96.21" r="1.2"/>
<path d="M560.93 96.21v20.20" stroke="currentColor" fill="none"/>
<use x="580.43" y="99.21" xlink:href="#hl"/>
<use x="580.43" y="93.21" xlink:href="#hl"/>
<use x="580.43" y="93.21" xlink:href="#hd"/>
<path d="M576.93 93.21v23.20" stroke="currentColor" fill="none"/>
<use x="600.13" y="99.21" xlink:href="#hl"/>
<use x="600.13" y="99.21" xlink:href="#hd"/>
<path d="M596.63 99.21v20.00" stroke="currentColor" fill="none"/>
<path fill="currentColor"
	d="M596.63 119.21c0.6 -5.6 9.6 -9 5.6 -18.4
	c1.6 6 -1.3 11.6 -5.6 12.8
"/>
<use x="614.63" y="99.21" xlink:href="#hl"/>
<use x="614.63" y="96.21" xlink:href="#hd"/>
<path d="M611.13 96.21v21.00" stroke="currentColor" fill="none"/>
<use x="631.13" y="99.21" xlink:href="#hl"/>
<use x="631.13" y="96.21" xlink:href="#hd"/>
<path d="M627.63 96.21v22.00" stroke="currentColor" fill="none"/>
<path fill="currentColor"
	d="M627.63 118.21c0.9 -3.7 9.1 -6.4 6 -12.4
	c1 5.4 -4.2 8.4 -6 8.4
M627.63 112.81c0.9 -3.7 9.1 -6.4 6 -12.4
	c1 5.4 -4.2 8.4 -6 8.4
"/>
<use x="639.23" y="108.21" xlink:href="#hd"/>
<path d="M635.73 108.21v20.00" stroke="currentColor" fill="none"/>
<use x="655.73" y="108.21" xlink:href="#hd"/>
<path d="M652.23 108.21v22.00" stroke="currentColor" fill="none"/>
<path fill="currentColor"
	d="M652.23 130.21c0.9 -3.7 9.1 -6.4 6 -12.4
	c1 5.4 -4.2 8.4 -6 8.4
M652.23 124.81c0.9 -3.7 9.1 -6.4 6 -12.4
	c1 5.4 -4.2 8.4 -6 8.4
"/>
<use x="665.93" y="108.21" xlink:href="#hd"/>
<path d="M662.43 108.21v20.00" stroke="currentColor" fill="none"/>
<use x="686.43" y="108.21" xlink:href="#hd"/>
<path d="M682.93 108.21v22.00" stroke="currentColor" fill="none"/>
<path fill="currentColor"
	d="M682.93 130.21c0.9 -3.7 9.1 -6.4 6 -12.4
	c1 5.4 -4.2 8.4 -6 8.4
M682.93 124.81c0.9 -3.7 9.1 -6.4 6 -12.4
	c1 5.4 -4.2 8.4 -6 8.4
"/>
<path fill="currentColor"
	d="M204.53 81.21c2.60 -4.80 13.93 -4.80 16.53 -0.00
	l0.00 -0.22c-3.10 -6.58 -13.43 -6.58 -16.53 0.22"/>
<path fill="currentColor"
	d="M230.43 93.21c2.60 -4.80 13.93 -4.80 16.53 -0.00
	l0.00 -0.22c-3.10 -6.58 -13.43 -6.58 -16.53 0.22"/>
<path fill="currentColor"
	d="M260.73 93.21c2.12 -4.74 11.36 -4.74 13.48 -0.00
	l0.00 -0.21c-2.53 -6.53 -10.96 -6.53 -13.48 0.21"/>
<path fill="currentColor"
	d="M311.83 99.21c2.60 -4.80 13.93 -4.80 16.53 -0.00
	l0.00 -0.22c-3.10 -6.58 -13.43 -6.58 -16.53 0.22"/>
<path fill="currentColor"
	d="M337.73 82.21c2.60 -4.80 13.93 -4.80 16.53 -0.00
	l0.00 -0.22c-3.10 -6.58 -13.43 -6.58 -16.53 0.22"/>
<path fill="currentColor"
	d="M368.03 87.21c2.12 -4.74 11.36 -4.74 13.48 -0.00
	l0.00 -0.21c-2.53 -6.53 -10.96 -6.53 -13.48 0.21"/>
<path fill="currentColor"
	d="M419.13 81.21c2.60 -4.80 13.93 -4.80 16.53 -0.00
	l0.00 -0.22c-3.10 -6.58 -13.43 -6.58 -16.53 0.22"/>
<path fill="currentColor"
	d="M445.03 93.21c2.60 -4.80 13.93 -4.80 16.53 -0.00
	l0.00 -0.22c-3.10 -6.58 -13.43 -6.58 -16.53 0.22"/>
<path fill="currentColor"
	d="M475.33 93.21c2.12 -4.74 11.36 -4.74 13.48 -0.00
	l0.00 -0.21c-2.53 -6.53 -10.96 -6.53 -13.48 0.21"/>
<path fill="currentColor"
	d="M614.63 94.21c2.60 -4.80 13.93 -4.80 16.53 -0.00
	l0.00 -0.22c-3.10 -6.58 -13.43 -6.58 -16.53 0.22"/>
<path fill="currentColor"
	d="M639.23 106.21c2.60 -4.80 13.93 -4.80 16.53 -0.00
	l0.00 -0.22c-3.10 -6.58 -13.43 -6.58 -16.53 0.22"/>
<path fill="currentColor"
	d="M669.43 106.21c2.12 -4.74 11.36 -4.74 13.48 -0.00
	l0.00 -0.21c-2.53 -6.53 -10.96 -6.53 -13.48 0.21"/>
</g>
</svg>
