<?xml version="1.0" standalone="no"?>
<!DOCTYPE svg PUBLIC "-//W3C//DTD SVG 1.1//EN"
	"http://www.w3.org/Graphics/SVG/1.1/DTD/svg11.dtd">
<svg xmlns="http://www.w3.org/2000/svg" version="1.1"
	xmlns:xlink="http://www.w3.org/1999/xlink"
	xml:space='preserve' color="black"
	width="7.38in" height="2.23in" viewBox="0 0 531 161">
<title>7386.abc (7386) tune 1</title>
<!-- Creator: abcm2ps-7.8.14 -->
<!-- CreationDate: Mar 13, 2016 18:54 -->
<!-- CommandLine: -qxg 7386.abc -O ../svgs/7386.svg -->
<g transform="scale(0.750)" stroke-width="0.70" font-family="Times" font-size="20.00">
<text x="354.13" y="21.67" text-anchor="middle">7386.  Suite in A Minor, Minuet, 1st. Theme</text>
</g>
<g transform="scale(0.750)" stroke-width="0.70" font-family="Times" font-size="14.00" font-style="italic">
<text x="694.93" y="45.34" text-anchor="end">Georg Philipp Telemann</text>
</g>
<g transform="scale(0.525)" stroke-width="0.70" font-family="Times" font-size="14.00" font-style="italic">
<defs>
<ellipse id="hd" rx="4.1" ry="2.9"
	transform="rotate(-20)" fill="currentColor"/>
</defs>
<use x="89.19" y="94.16" xlink:href="#hd"/>
<path d="M92.69 94.16v-20.00" stroke="currentColor" fill="none"/>
</g>
<g transform="scale(0.750)" stroke-width="0.70" font-family="Times" font-size="15.00" font-weight="bold">
<text x="70.13" y="68.01">= 120</text>
<path stroke="currentColor" fill="none"
	d="M305.83 111.01v-24.00"/>
<path stroke="currentColor" fill="none"
	d="M437.53 111.01v-24.00"/>
<path stroke="currentColor" fill="none"
	d="M694.93 111.01v-24.00"/>
<path stroke="currentColor" fill="none"
	d="M13.33 111.01h681.60m-681.60 -6h681.60m-681.60 -6h681.60m-681.60 -6h681.60m-681.60 -6h681.60"/>
<defs>
<path id="utclef" fill="currentColor" d="m-50 -90
	c-72 -41 -72 -158 52 -188
	c150 -10 220 188 90 256
	c-114 52 -275 0 -293 -136
	c-15 -181 93 -229 220 -334
	c88 -87 79 -133 62 -210
	c-51 33 -94 105 -89 186
	c17 267 36 374 49 574
	c6 96 -19 134 -77 135
	c-80 1 -126 -93 -61 -133
	c85 -41 133 101 31 105
	c23 17 92 37 90 -92
	c-10 -223 -39 -342 -50 -617
	c0 -90 0 -162 96 -232
	c56 72 63 230 22 289
	c-74 106 -257 168 -255 316
	c9 153 148 185 252 133
	c86 -65 29 -192 -80 -176
	c-71 12 -105 67 -59 124"/>
<use id="tclef" transform="scale(0.045)"
	xlink:href="#utclef"/>
</defs>
<use x="25.33" y="111.01" xlink:href="#tclef"/>
<g font-family="serif" font-size="16" font-weight="bold" font-style="normal"
	transform="translate(43.83,111.01) scale(1.2,1)">
	<text y="-1" text-anchor="middle">4</text>
	<text y="-13" text-anchor="middle">3</text>
</g>
<path fill="currentColor"
	d="M58.03 123.21l83.40 0.00v-3.20l-83.40 -0.00"/>
<path fill="currentColor"
	d="M117.13 118.21l23.90 0.00v-3.20l-23.90 -0.00"/>
<path fill="currentColor"
	d="M117.13 113.21l23.90 0.00v-3.20l-23.90 -0.00"/>
<use x="61.83" y="84.01" xlink:href="#hd"/>
<path d="M58.33 84.01v38.20" stroke="currentColor" fill="none"/>
<defs>
<path id="hl" stroke="currentColor" d="m-6 0h12"/>
</defs>
<use x="85.33" y="81.01" xlink:href="#hl"/>
<use x="85.33" y="78.01" xlink:href="#hd"/>
<path d="M81.83 78.01v44.20" stroke="currentColor" fill="none"/>
<defs>
<path id="r8e" fill="currentColor" d="m 0 0
	c-1.5 1.5 -2.4 2 -3.6 2
	c2.4 -2.8 -2.8 -4 -2.8 -1.2
	c0 2.7 4.3 2.4 5.9 0.6"/>
<g id="r32">
	<path d="m4.8 -10l-5.5 21.6" stroke="currentColor" fill="none"/>
	<use x="4.9" y="-10" xlink:href="#r8e"/>
	<use x="3.4" y="-4" xlink:href="#r8e"/>
	<use x="1.9" y="2" xlink:href="#r8e"/>
</g>
</defs>
<use x="108.83" y="99.01" xlink:href="#r32"/>
<use x="120.63" y="81.01" xlink:href="#hl"/>
<use x="120.63" y="78.01" xlink:href="#hd"/>
<path d="M117.13 78.01v44.20" stroke="currentColor" fill="none"/>
<use x="132.63" y="81.01" xlink:href="#hl"/>
<use x="132.63" y="75.01" xlink:href="#hl"/>
<use x="132.63" y="75.01" xlink:href="#hd"/>
<path d="M129.13 75.01v47.20" stroke="currentColor" fill="none"/>
<use x="144.53" y="81.01" xlink:href="#hl"/>
<use x="144.53" y="78.01" xlink:href="#hd"/>
<path d="M141.03 78.01v44.20" stroke="currentColor" fill="none"/>
<path fill="currentColor"
	d="M153.93 105.21l60.30 0.00v-3.20l-60.30 -0.00"/>
<path fill="currentColor"
	d="M154.23 100.21l59.70 0.00v-3.20l-59.70 -0.00"/>
<path fill="currentColor"
	d="M154.23 95.21l59.70 0.00v-3.20l-59.70 -0.00"/>
<use x="157.73" y="81.01" xlink:href="#hl"/>
<use x="157.73" y="75.01" xlink:href="#hl"/>
<use x="157.73" y="75.01" xlink:href="#hd"/>
<path d="M154.23 75.01v29.20" stroke="currentColor" fill="none"/>
<use x="169.73" y="81.01" xlink:href="#hl"/>
<use x="169.73" y="78.01" xlink:href="#hd"/>
<path d="M166.23 78.01v26.20" stroke="currentColor" fill="none"/>
<use x="181.63" y="81.01" xlink:href="#hl"/>
<use x="181.63" y="75.01" xlink:href="#hl"/>
<use x="181.63" y="75.01" xlink:href="#hd"/>
<path d="M178.13 75.01v29.20" stroke="currentColor" fill="none"/>
<use x="193.53" y="81.01" xlink:href="#hl"/>
<use x="193.53" y="78.01" xlink:href="#hd"/>
<path d="M190.03 78.01v26.20" stroke="currentColor" fill="none"/>
<use x="205.53" y="81.01" xlink:href="#hl"/>
<use x="205.53" y="75.01" xlink:href="#hl"/>
<use x="205.53" y="75.01" xlink:href="#hd"/>
<path d="M202.03 75.01v29.20" stroke="currentColor" fill="none"/>
<use x="217.43" y="81.01" xlink:href="#hl"/>
<use x="217.43" y="78.01" xlink:href="#hd"/>
<path d="M213.93 78.01v26.20" stroke="currentColor" fill="none"/>
<path fill="currentColor"
	d="M226.83 105.01l58.90 0.00v-3.20l-58.90 -0.00"/>
<path fill="currentColor"
	d="M227.13 100.01l58.20 0.00v-3.20l-58.20 -0.00"/>
<path fill="currentColor"
	d="M227.13 95.01l58.20 0.00v-3.20l-58.20 -0.00"/>
<path fill="currentColor"
	d="M280.83 90.01l-6.00 -0.00v-3.20l6.00 0.00"/>
<use x="230.63" y="81.01" xlink:href="#hl"/>
<use x="230.63" y="75.01" xlink:href="#hl"/>
<use x="230.63" y="75.01" xlink:href="#hd"/>
<path d="M227.13 75.01v29.00" stroke="currentColor" fill="none"/>
<use x="242.53" y="81.01" xlink:href="#hl"/>
<use x="242.53" y="78.01" xlink:href="#hd"/>
<path d="M239.03 78.01v26.00" stroke="currentColor" fill="none"/>
<use x="254.53" y="81.01" xlink:href="#hl"/>
<use x="254.53" y="75.01" xlink:href="#hl"/>
<use x="254.53" y="75.01" xlink:href="#hd"/>
<path d="M251.03 75.01v29.00" stroke="currentColor" fill="none"/>
<use x="266.43" y="81.01" xlink:href="#hl"/>
<use x="266.43" y="78.01" xlink:href="#hd"/>
<path d="M262.93 78.01v26.00" stroke="currentColor" fill="none"/>
<use x="278.33" y="81.01" xlink:href="#hl"/>
<use x="278.33" y="75.01" xlink:href="#hl"/>
<use x="278.33" y="75.01" xlink:href="#hd"/>
<path d="M274.83 75.01v29.00" stroke="currentColor" fill="none"/>
<use x="288.83" y="81.01" xlink:href="#hl"/>
<use x="288.83" y="78.01" xlink:href="#hd"/>
<circle fill="currentColor" cx="296.83" cy="78.01" r="1.2"/>
<path d="M285.33 78.01v26.00" stroke="currentColor" fill="none"/>
<use x="319.13" y="81.01" xlink:href="#hl"/>
<use x="319.13" y="75.01" xlink:href="#hl"/>
<use x="319.13" y="75.01" xlink:href="#hd"/>
<path d="M315.63 75.01v24.00" stroke="currentColor" fill="none"/>
<use x="355.93" y="81.01" xlink:href="#hl"/>
<use x="355.93" y="78.01" xlink:href="#hd"/>
<path d="M352.43 78.01v21.00" stroke="currentColor" fill="none"/>
<path fill="currentColor"
	d="M352.43 99.01c0.6 -5.6 9.6 -9 5.6 -18.4
	c1.6 6 -1.3 11.6 -5.6 12.8
"/>
<use x="382.03" y="81.01" xlink:href="#hl"/>
<use x="382.03" y="81.01" xlink:href="#hd"/>
<path d="M378.53 81.01v20.00" stroke="currentColor" fill="none"/>
<path fill="currentColor"
	d="M378.53 101.01c0.6 -5.6 9.6 -9 5.6 -18.4
	c1.6 6 -1.3 11.6 -5.6 12.8
"/>
<use x="408.13" y="81.01" xlink:href="#hl"/>
<use x="408.13" y="75.01" xlink:href="#hl"/>
<use x="408.13" y="69.01" xlink:href="#hl"/>
<use x="408.13" y="69.01" xlink:href="#hd"/>
<path d="M404.63 69.01v30.00" stroke="currentColor" fill="none"/>
<path fill="currentColor"
	d="M447.03 123.21l83.40 0.00v-3.20l-83.40 -0.00"/>
<path fill="currentColor"
	d="M506.23 118.21l23.90 0.00v-3.20l-23.90 -0.00"/>
<path fill="currentColor"
	d="M506.23 113.21l23.90 0.00v-3.20l-23.90 -0.00"/>
<use x="450.83" y="81.01" xlink:href="#hl"/>
<use x="450.83" y="81.01" xlink:href="#hd"/>
<path d="M447.33 81.01v41.20" stroke="currentColor" fill="none"/>
<use x="474.33" y="81.01" xlink:href="#hl"/>
<use x="474.33" y="78.01" xlink:href="#hd"/>
<path d="M470.83 78.01v44.20" stroke="currentColor" fill="none"/>
<use x="497.83" y="99.01" xlink:href="#r32"/>
<use x="509.73" y="81.01" xlink:href="#hl"/>
<use x="509.73" y="78.01" xlink:href="#hd"/>
<path d="M506.23 78.01v44.20" stroke="currentColor" fill="none"/>
<use x="521.63" y="81.01" xlink:href="#hl"/>
<use x="521.63" y="75.01" xlink:href="#hl"/>
<use x="521.63" y="75.01" xlink:href="#hd"/>
<path d="M518.13 75.01v47.20" stroke="currentColor" fill="none"/>
<use x="533.63" y="81.01" xlink:href="#hl"/>
<use x="533.63" y="78.01" xlink:href="#hd"/>
<path d="M530.13 78.01v44.20" stroke="currentColor" fill="none"/>
<path fill="currentColor"
	d="M542.93 105.21l60.30 0.00v-3.20l-60.30 -0.00"/>
<path fill="currentColor"
	d="M543.33 100.21l59.70 0.00v-3.20l-59.70 -0.00"/>
<path fill="currentColor"
	d="M543.33 95.21l59.70 0.00v-3.20l-59.70 -0.00"/>
<use x="546.83" y="81.01" xlink:href="#hl"/>
<use x="546.83" y="75.01" xlink:href="#hl"/>
<use x="546.83" y="75.01" xlink:href="#hd"/>
<path d="M543.33 75.01v29.20" stroke="currentColor" fill="none"/>
<use x="558.73" y="81.01" xlink:href="#hl"/>
<use x="558.73" y="78.01" xlink:href="#hd"/>
<path d="M555.23 78.01v26.20" stroke="currentColor" fill="none"/>
<use x="570.63" y="81.01" xlink:href="#hl"/>
<use x="570.63" y="75.01" xlink:href="#hl"/>
<use x="570.63" y="75.01" xlink:href="#hd"/>
<path d="M567.13 75.01v29.20" stroke="currentColor" fill="none"/>
<use x="582.63" y="81.01" xlink:href="#hl"/>
<use x="582.63" y="78.01" xlink:href="#hd"/>
<path d="M579.13 78.01v26.20" stroke="currentColor" fill="none"/>
<use x="594.53" y="81.01" xlink:href="#hl"/>
<use x="594.53" y="75.01" xlink:href="#hl"/>
<use x="594.53" y="75.01" xlink:href="#hd"/>
<path d="M591.03 75.01v29.20" stroke="currentColor" fill="none"/>
<use x="606.43" y="81.01" xlink:href="#hl"/>
<use x="606.43" y="78.01" xlink:href="#hd"/>
<path d="M602.93 78.01v26.20" stroke="currentColor" fill="none"/>
<path fill="currentColor"
	d="M615.83 105.01l58.90 0.00v-3.20l-58.90 -0.00"/>
<path fill="currentColor"
	d="M616.23 100.01l58.20 0.00v-3.20l-58.20 -0.00"/>
<path fill="currentColor"
	d="M616.23 95.01l58.20 0.00v-3.20l-58.20 -0.00"/>
<path fill="currentColor"
	d="M669.93 90.01l-6.00 -0.00v-3.20l6.00 0.00"/>
<use x="619.73" y="81.01" xlink:href="#hl"/>
<use x="619.73" y="75.01" xlink:href="#hl"/>
<use x="619.73" y="75.01" xlink:href="#hd"/>
<path d="M616.23 75.01v29.00" stroke="currentColor" fill="none"/>
<use x="631.63" y="81.01" xlink:href="#hl"/>
<use x="631.63" y="78.01" xlink:href="#hd"/>
<path d="M628.13 78.01v26.00" stroke="currentColor" fill="none"/>
<use x="643.53" y="81.01" xlink:href="#hl"/>
<use x="643.53" y="75.01" xlink:href="#hl"/>
<use x="643.53" y="75.01" xlink:href="#hd"/>
<path d="M640.03 75.01v29.00" stroke="currentColor" fill="none"/>
<use x="655.53" y="81.01" xlink:href="#hl"/>
<use x="655.53" y="78.01" xlink:href="#hd"/>
<path d="M652.03 78.01v26.00" stroke="currentColor" fill="none"/>
<use x="667.43" y="81.01" xlink:href="#hl"/>
<use x="667.43" y="75.01" xlink:href="#hl"/>
<use x="667.43" y="75.01" xlink:href="#hd"/>
<path d="M663.93 75.01v29.00" stroke="currentColor" fill="none"/>
<use x="677.93" y="81.01" xlink:href="#hl"/>
<use x="677.93" y="78.01" xlink:href="#hd"/>
<circle fill="currentColor" cx="685.93" cy="78.01" r="1.2"/>
<path d="M674.43 78.01v26.00" stroke="currentColor" fill="none"/>
<path stroke="currentColor" fill="none"
	d="M198.53 191.01v-24.00"/>
<path stroke="currentColor" fill="none"
	d="M365.53 191.01v-24.00"/>
<path stroke="currentColor" fill="none"
	d="M532.43 191.01v-24.00"/>
<path stroke="currentColor" fill="none"
	d="M13.33 191.01h519.10m-519.10 -6h519.10m-519.10 -6h519.10m-519.10 -6h519.10m-519.10 -6h519.10"/>
<use x="25.33" y="191.01" xlink:href="#tclef"/>
<use x="49.83" y="179.01" xlink:href="#r32"/>
<path fill="currentColor"
	d="M60.13 179.21l46.60 0.00v-3.20l-46.60 -0.00"/>
<path fill="currentColor"
	d="M66.53 174.21l-6.00 -0.00v-3.20l6.00 0.00"/>
<use x="64.03" y="161.01" xlink:href="#hl"/>
<use x="64.03" y="155.01" xlink:href="#hl"/>
<use x="64.03" y="152.01" xlink:href="#hd"/>
<circle fill="currentColor" cx="72.03" cy="152.01" r="1.2"/>
<path d="M60.53 152.01v26.20" stroke="currentColor" fill="none"/>
<use x="84.43" y="161.01" xlink:href="#hl"/>
<use x="84.43" y="155.01" xlink:href="#hl"/>
<use x="84.43" y="155.01" xlink:href="#hd"/>
<path d="M80.93 155.01v23.20" stroke="currentColor" fill="none"/>
<use x="109.93" y="161.01" xlink:href="#hl"/>
<use x="109.93" y="158.01" xlink:href="#hd"/>
<path d="M106.43 158.01v20.20" stroke="currentColor" fill="none"/>
<use x="138.23" y="161.01" xlink:href="#hl"/>
<use x="138.23" y="161.01" xlink:href="#hd"/>
<path d="M134.73 161.01v20.00" stroke="currentColor" fill="none"/>
<path fill="currentColor"
	d="M134.73 181.01c0.6 -5.6 9.6 -9 5.6 -18.4
	c1.6 6 -1.3 11.6 -5.6 12.8
"/>
<use x="166.53" y="161.01" xlink:href="#hl"/>
<use x="166.53" y="155.01" xlink:href="#hl"/>
<use x="166.53" y="149.01" xlink:href="#hl"/>
<use x="166.53" y="143.01" xlink:href="#hl"/>
<use x="166.53" y="140.01" xlink:href="#hd"/>
<path d="M163.03 140.01v39.00" stroke="currentColor" fill="none"/>
<path fill="currentColor"
	d="M208.83 179.21l51.60 0.00v-3.20l-51.60 -0.00"/>
<use x="212.73" y="161.01" xlink:href="#hl"/>
<use x="212.73" y="155.01" xlink:href="#hl"/>
<use x="212.73" y="149.01" xlink:href="#hl"/>
<use x="212.73" y="143.01" xlink:href="#hl"/>
<use x="212.73" y="143.01" xlink:href="#hd"/>
<path d="M209.23 143.01v35.20" stroke="currentColor" fill="none"/>
<use x="238.13" y="161.01" xlink:href="#hl"/>
<use x="238.13" y="155.01" xlink:href="#hl"/>
<use x="238.13" y="149.01" xlink:href="#hl"/>
<use x="238.13" y="143.01" xlink:href="#hl"/>
<use x="238.13" y="140.01" xlink:href="#hd"/>
<path d="M234.63 140.01v38.20" stroke="currentColor" fill="none"/>
<use x="263.63" y="161.01" xlink:href="#hl"/>
<use x="263.63" y="155.01" xlink:href="#hl"/>
<use x="263.63" y="149.01" xlink:href="#hl"/>
<use x="263.63" y="143.01" xlink:href="#hl"/>
<use x="263.63" y="143.01" xlink:href="#hd"/>
<path d="M260.13 143.01v35.20" stroke="currentColor" fill="none"/>
<path fill="currentColor"
	d="M288.13 179.21l51.60 0.00v-3.20l-51.60 -0.00"/>
<use x="291.93" y="161.01" xlink:href="#hl"/>
<use x="291.93" y="155.01" xlink:href="#hl"/>
<use x="291.93" y="149.01" xlink:href="#hl"/>
<use x="291.93" y="149.01" xlink:href="#hd"/>
<path d="M288.43 149.01v29.20" stroke="currentColor" fill="none"/>
<use x="317.43" y="161.01" xlink:href="#hl"/>
<use x="317.43" y="155.01" xlink:href="#hl"/>
<use x="317.43" y="149.01" xlink:href="#hl"/>
<use x="317.43" y="146.01" xlink:href="#hd"/>
<path d="M313.93 146.01v32.20" stroke="currentColor" fill="none"/>
<use x="342.83" y="161.01" xlink:href="#hl"/>
<use x="342.83" y="155.01" xlink:href="#hl"/>
<use x="342.83" y="152.01" xlink:href="#hd"/>
<path d="M339.33 152.01v26.20" stroke="currentColor" fill="none"/>
<path fill="currentColor"
	d="M375.83 179.21l51.60 0.00v-3.20l-51.60 -0.00"/>
<use x="379.63" y="161.01" xlink:href="#hl"/>
<use x="379.63" y="155.01" xlink:href="#hl"/>
<use x="379.63" y="149.01" xlink:href="#hl"/>
<use x="379.63" y="149.01" xlink:href="#hd"/>
<path d="M376.13 149.01v29.20" stroke="currentColor" fill="none"/>
<use x="405.13" y="161.01" xlink:href="#hl"/>
<use x="405.13" y="155.01" xlink:href="#hl"/>
<use x="405.13" y="149.01" xlink:href="#hl"/>
<use x="405.13" y="146.01" xlink:href="#hd"/>
<path d="M401.63 146.01v32.20" stroke="currentColor" fill="none"/>
<use x="430.63" y="161.01" xlink:href="#hl"/>
<use x="430.63" y="155.01" xlink:href="#hl"/>
<use x="430.63" y="149.01" xlink:href="#hl"/>
<use x="430.63" y="149.01" xlink:href="#hd"/>
<path d="M427.13 149.01v29.20" stroke="currentColor" fill="none"/>
<path fill="currentColor"
	d="M455.03 179.21l51.60 0.00v-3.20l-51.60 -0.00"/>
<use x="458.93" y="161.01" xlink:href="#hl"/>
<use x="458.93" y="155.01" xlink:href="#hl"/>
<use x="458.93" y="155.01" xlink:href="#hd"/>
<path d="M455.43 155.01v23.20" stroke="currentColor" fill="none"/>
<use x="484.33" y="161.01" xlink:href="#hl"/>
<use x="484.33" y="155.01" xlink:href="#hl"/>
<use x="484.33" y="152.01" xlink:href="#hd"/>
<path d="M480.83 152.01v26.20" stroke="currentColor" fill="none"/>
<use x="509.83" y="161.01" xlink:href="#hl"/>
<use x="509.83" y="158.01" xlink:href="#hd"/>
<path d="M506.33 158.01v20.20" stroke="currentColor" fill="none"/>
</g>
</svg>
