<?xml version="1.0" standalone="no"?>
<!DOCTYPE svg PUBLIC "-//W3C//DTD SVG 1.1//EN"
	"http://www.w3.org/Graphics/SVG/1.1/DTD/svg11.dtd">
<svg xmlns="http://www.w3.org/2000/svg" version="1.1"
	xmlns:xlink="http://www.w3.org/1999/xlink"
	xml:space='preserve' color="black"
	width="7.38in" height="1.52in" viewBox="0 0 531 110">
<title>7393.abc (7393) tune 1</title>
<!-- Creator: abcm2ps-7.8.14 -->
<!-- CreationDate: Mar 13, 2016 18:54 -->
<!-- CommandLine: -qxg 7393.abc -O ../svgs/7393.svg -->
<g transform="scale(0.750)" stroke-width="0.70" font-family="Times" font-size="20.00">
<text x="354.13" y="21.67" text-anchor="middle">7393.  Le Caid, Overture, 2nd. Theme</text>
</g>
<g transform="scale(0.750)" stroke-width="0.70" font-family="Times" font-size="14.00" font-style="italic">
<text x="694.93" y="45.34" text-anchor="end">Ambroise Thomas</text>
</g>
<g transform="scale(0.525)" stroke-width="0.70" font-family="Times" font-size="14.00" font-style="italic">
<defs>
<ellipse id="hd" rx="4.1" ry="2.9"
	transform="rotate(-20)" fill="currentColor"/>
</defs>
<use x="122.76" y="94.16" xlink:href="#hd"/>
<path d="M126.26 94.16v-20.00" stroke="currentColor" fill="none"/>
</g>
<g transform="scale(0.750)" stroke-width="0.70" font-family="Times" font-size="15.00" font-weight="bold">
<text x="93.63" y="68.01">= 120</text>
<path stroke="currentColor" fill="none"
	d="M202.53 123.01v-24.00"/>
<path stroke="currentColor" fill="none"
	d="M305.33 123.01v-24.00"/>
<path stroke="currentColor" fill="none"
	d="M436.73 123.01v-24.00"/>
<path stroke="currentColor" fill="none"
	d="M539.43 123.01v-24.00"/>
<path stroke="currentColor" fill="none"
	d="M13.33 123.01h526.10m-526.10 -6h526.10m-526.10 -6h526.10m-526.10 -6h526.10m-526.10 -6h526.10"/>
<defs>
<path id="utclef" fill="currentColor" d="m-50 -90
	c-72 -41 -72 -158 52 -188
	c150 -10 220 188 90 256
	c-114 52 -275 0 -293 -136
	c-15 -181 93 -229 220 -334
	c88 -87 79 -133 62 -210
	c-51 33 -94 105 -89 186
	c17 267 36 374 49 574
	c6 96 -19 134 -77 135
	c-80 1 -126 -93 -61 -133
	c85 -41 133 101 31 105
	c23 17 92 37 90 -92
	c-10 -223 -39 -342 -50 -617
	c0 -90 0 -162 96 -232
	c56 72 63 230 22 289
	c-74 106 -257 168 -255 316
	c9 153 148 185 252 133
	c86 -65 29 -192 -80 -176
	c-71 12 -105 67 -59 124"/>
<use id="tclef" transform="scale(0.045)"
	xlink:href="#utclef"/>
</defs>
<use x="25.33" y="123.01" xlink:href="#tclef"/>
<defs>
<path id="usharp" fill="currentColor" d="
	m136 -702
	v890
	h32
	v-890
	m128 840
	h32
	v-888
	h-32
	m-232 286
	v116
	l338 -96
	v-116
	m-338 442
	v116
	l338 -98
	v-114"/>
<use id="sh0" transform="translate(-4,5) scale(0.018)"
	xlink:href="#usharp"/>
</defs>
<use x="40.33" y="99.01" xlink:href="#sh0"/>
<use x="45.83" y="108.01" xlink:href="#sh0"/>
<use x="51.33" y="96.01" xlink:href="#sh0"/>
<g font-family="serif" font-size="16" font-weight="bold" font-style="normal"
	transform="translate(67.33,123.01) scale(1.2,1)">
	<text y="-1" text-anchor="middle">4</text>
	<text y="-13" text-anchor="middle">2</text>
</g>
<defs>
<path id="hl" stroke="currentColor" d="m-6 0h12"/>
</defs>
<use x="85.33" y="93.01" xlink:href="#hl"/>
<use x="85.33" y="87.01" xlink:href="#hl"/>
<use x="85.33" y="81.01" xlink:href="#hl"/>
<use x="85.33" y="81.01" xlink:href="#hd"/>
<path d="M81.83 81.01v30.00" stroke="currentColor" fill="none"/>
<path fill="currentColor"
	d="M81.83 111.01c0.6 -5.6 9.6 -9 5.6 -18.4
	c1.6 6 -1.3 11.6 -5.6 12.8
"/>
<path fill="currentColor"
	d="M109.83 111.21l18.70 0.00v-3.20l-18.70 -0.00"/>
<path fill="currentColor"
	d="M110.13 106.21l18.00 0.00v-3.20l-18.00 -0.00"/>
<use x="113.63" y="93.01" xlink:href="#hl"/>
<use x="113.63" y="87.01" xlink:href="#hl"/>
<use x="113.63" y="84.01" xlink:href="#hd"/>
<use x="104.63" y="84.01" xlink:href="#sh0"/>
<path d="M110.13 84.01v26.20" stroke="currentColor" fill="none"/>
<use x="131.63" y="93.01" xlink:href="#hl"/>
<use x="131.63" y="87.01" xlink:href="#hl"/>
<use x="131.63" y="81.01" xlink:href="#hl"/>
<use x="131.63" y="78.01" xlink:href="#hd"/>
<path d="M128.13 78.01v32.20" stroke="currentColor" fill="none"/>
<use x="151.63" y="93.01" xlink:href="#hl"/>
<use x="151.63" y="87.01" xlink:href="#hl"/>
<use x="151.63" y="81.01" xlink:href="#hl"/>
<use x="151.63" y="81.01" xlink:href="#hd"/>
<path d="M148.13 81.01v30.00" stroke="currentColor" fill="none"/>
<path fill="currentColor"
	d="M148.13 111.01c0.6 -5.6 9.6 -9 5.6 -18.4
	c1.6 6 -1.3 11.6 -5.6 12.8
"/>
<use x="179.93" y="93.01" xlink:href="#hl"/>
<use x="179.93" y="87.01" xlink:href="#hl"/>
<use x="179.93" y="87.01" xlink:href="#hd"/>
<path d="M176.43 87.01v24.00" stroke="currentColor" fill="none"/>
<path fill="currentColor"
	d="M176.43 111.01c0.6 -5.6 9.6 -9 5.6 -18.4
	c1.6 6 -1.3 11.6 -5.6 12.8
"/>
<use x="216.73" y="93.01" xlink:href="#hl"/>
<use x="216.73" y="90.01" xlink:href="#hd"/>
<path d="M213.23 90.01v21.00" stroke="currentColor" fill="none"/>
<path fill="currentColor"
	d="M213.23 111.01c0.6 -5.6 9.6 -9 5.6 -18.4
	c1.6 6 -1.3 11.6 -5.6 12.8
"/>
<use x="245.03" y="99.01" xlink:href="#hd"/>
<path d="M241.53 99.01v20.00" stroke="currentColor" fill="none"/>
<path fill="currentColor"
	d="M241.53 119.01c0.6 -5.6 9.6 -9 5.6 -18.4
	c1.6 6 -1.3 11.6 -5.6 12.8
"/>
<use x="273.33" y="93.01" xlink:href="#hl"/>
<use x="273.33" y="90.01" xlink:href="#hd"/>
<path d="M269.83 90.01v21.00" stroke="currentColor" fill="none"/>
<use x="319.43" y="93.01" xlink:href="#hl"/>
<use x="319.43" y="90.01" xlink:href="#hd"/>
<path d="M315.93 90.01v21.00" stroke="currentColor" fill="none"/>
<path fill="currentColor"
	d="M315.93 111.01c0.6 -5.6 9.6 -9 5.6 -18.4
	c1.6 6 -1.3 11.6 -5.6 12.8
"/>
<path fill="currentColor"
	d="M343.93 115.31l18.70 -2.90v-3.20l-18.70 2.90"/>
<path fill="currentColor"
	d="M344.23 110.21l18.00 -2.80v-3.20l-18.00 2.80"/>
<use x="347.73" y="93.01" xlink:href="#hl"/>
<use x="347.73" y="93.01" xlink:href="#hd"/>
<use x="338.73" y="93.01" xlink:href="#sh0"/>
<path d="M344.23 93.01v21.20" stroke="currentColor" fill="none"/>
<use x="365.73" y="93.01" xlink:href="#hl"/>
<use x="365.73" y="87.01" xlink:href="#hl"/>
<use x="365.73" y="87.01" xlink:href="#hd"/>
<path d="M362.23 87.01v24.40" stroke="currentColor" fill="none"/>
<use x="385.73" y="93.01" xlink:href="#hl"/>
<use x="385.73" y="90.01" xlink:href="#hd"/>
<path d="M382.23 90.01v21.00" stroke="currentColor" fill="none"/>
<path fill="currentColor"
	d="M382.23 111.01c0.6 -5.6 9.6 -9 5.6 -18.4
	c1.6 6 -1.3 11.6 -5.6 12.8
"/>
<use x="414.03" y="102.01" xlink:href="#hd"/>
<path d="M410.53 102.01v20.00" stroke="currentColor" fill="none"/>
<path fill="currentColor"
	d="M410.53 122.01c0.6 -5.6 9.6 -9 5.6 -18.4
	c1.6 6 -1.3 11.6 -5.6 12.8
"/>
<use x="450.83" y="93.01" xlink:href="#hl"/>
<use x="450.83" y="87.01" xlink:href="#hl"/>
<use x="450.83" y="87.01" xlink:href="#hd"/>
<path d="M447.33 87.01v24.00" stroke="currentColor" fill="none"/>
<path fill="currentColor"
	d="M447.33 111.01c0.6 -5.6 9.6 -9 5.6 -18.4
	c1.6 6 -1.3 11.6 -5.6 12.8
"/>
<use x="479.13" y="93.01" xlink:href="#hl"/>
<use x="479.13" y="90.01" xlink:href="#hd"/>
<path d="M475.63 90.01v21.00" stroke="currentColor" fill="none"/>
<path fill="currentColor"
	d="M475.63 111.01c0.6 -5.6 9.6 -9 5.6 -18.4
	c1.6 6 -1.3 11.6 -5.6 12.8
"/>
<use x="507.43" y="93.01" xlink:href="#hl"/>
<use x="507.43" y="93.01" xlink:href="#hd"/>
<defs>
<path id="unat" fill="currentColor" d="
	m96 -750
	h-32
	v716
	l32 -8
	l182 -54
	v282
	h32
	v-706
	l-34 10
	l-180 50
	v-290
	m0 592
	v-190
	l182 -52
	v188"/>
<use id="nt0" transform="translate(-3,5) scale(0.018)"
	xlink:href="#unat"/>
</defs>
<use x="498.43" y="93.01" xlink:href="#nt0"/>
<path d="M503.93 93.01v20.00" stroke="currentColor" fill="none"/>
</g>
</svg>
