<?xml version="1.0" standalone="no"?>
<!DOCTYPE svg PUBLIC "-//W3C//DTD SVG 1.1//EN"
	"http://www.w3.org/Graphics/SVG/1.1/DTD/svg11.dtd">
<svg xmlns="http://www.w3.org/2000/svg" version="1.1"
	xmlns:xlink="http://www.w3.org/1999/xlink"
	xml:space='preserve' color="black"
	width="7.38in" height="1.36in" viewBox="0 0 531 98">
<title>7396.abc (7396) tune 1</title>
<!-- Creator: abcm2ps-7.8.14 -->
<!-- CreationDate: Mar 13, 2016 18:54 -->
<!-- CommandLine: -qxg 7396.abc -O ../svgs/7396.svg -->
<g transform="scale(0.750)" stroke-width="0.70" font-family="Times" font-size="20.00">
<text x="354.13" y="21.67" text-anchor="middle">7396.  Hamlet - Act IV, Pas de Chasseurs, 1st. Theme A</text>
</g>
<g transform="scale(0.750)" stroke-width="0.70" font-family="Times" font-size="14.00" font-style="italic">
<text x="694.93" y="45.34" text-anchor="end">Ambroise Thomas</text>
</g>
<g transform="scale(0.525)" stroke-width="0.70" font-family="Times" font-size="14.00" font-style="italic">
<defs>
<ellipse id="hd" rx="4.1" ry="2.9"
	transform="rotate(-20)" fill="currentColor"/>
</defs>
<use x="122.76" y="94.16" xlink:href="#hd"/>
<path d="M126.26 94.16v-20.00" stroke="currentColor" fill="none"/>
</g>
<g transform="scale(0.750)" stroke-width="0.70" font-family="Times" font-size="15.00" font-weight="bold">
<text x="93.63" y="68.01">= 120</text>
<path stroke="currentColor" fill="none"
	d="M162.53 108.01v-24.00"/>
<path stroke="currentColor" fill="none"
	d="M232.83 108.01v-24.00"/>
<path stroke="currentColor" fill="none"
	d="M322.53 108.01v-24.00"/>
<path stroke="currentColor" fill="none"
	d="M393.03 108.01v-24.00"/>
<path stroke="currentColor" fill="none"
	d="M476.23 108.01v-24.00"/>
<path stroke="currentColor" fill="none"
	d="M548.13 108.01v-24.00"/>
<path stroke="currentColor" fill="none"
	d="M639.53 108.01v-24.00"/>
<path stroke="currentColor" fill="none"
	d="M13.33 108.01h681.60m-681.60 -6h681.60m-681.60 -6h681.60m-681.60 -6h681.60m-681.60 -6h681.60"/>
<defs>
<path id="utclef" fill="currentColor" d="m-50 -90
	c-72 -41 -72 -158 52 -188
	c150 -10 220 188 90 256
	c-114 52 -275 0 -293 -136
	c-15 -181 93 -229 220 -334
	c88 -87 79 -133 62 -210
	c-51 33 -94 105 -89 186
	c17 267 36 374 49 574
	c6 96 -19 134 -77 135
	c-80 1 -126 -93 -61 -133
	c85 -41 133 101 31 105
	c23 17 92 37 90 -92
	c-10 -223 -39 -342 -50 -617
	c0 -90 0 -162 96 -232
	c56 72 63 230 22 289
	c-74 106 -257 168 -255 316
	c9 153 148 185 252 133
	c86 -65 29 -192 -80 -176
	c-71 12 -105 67 -59 124"/>
<use id="tclef" transform="scale(0.045)"
	xlink:href="#utclef"/>
</defs>
<use x="25.33" y="108.01" xlink:href="#tclef"/>
<defs>
<path id="usharp" fill="currentColor" d="
	m136 -702
	v890
	h32
	v-890
	m128 840
	h32
	v-888
	h-32
	m-232 286
	v116
	l338 -96
	v-116
	m-338 442
	v116
	l338 -98
	v-114"/>
<use id="sh0" transform="translate(-4,5) scale(0.018)"
	xlink:href="#usharp"/>
</defs>
<use x="40.33" y="84.01" xlink:href="#sh0"/>
<use x="45.83" y="93.01" xlink:href="#sh0"/>
<use x="51.33" y="81.01" xlink:href="#sh0"/>
<g font-family="serif" font-size="16" font-weight="bold" font-style="normal"
	transform="translate(67.33,108.01) scale(1.2,1)">
	<text y="-1" text-anchor="middle">4</text>
	<text y="-13" text-anchor="middle">2</text>
</g>
<defs>
<path id="hl" stroke="currentColor" d="m-6 0h12"/>
</defs>
<use x="85.33" y="78.01" xlink:href="#hl"/>
<use x="85.33" y="78.01" xlink:href="#hd"/>
<path d="M81.83 78.01v20.00" stroke="currentColor" fill="none"/>
<path fill="currentColor"
	d="M81.83 98.01c0.6 -5.6 9.6 -9 5.6 -18.4
	c1.6 6 -1.3 11.6 -5.6 12.8
"/>
<defs>
<path id="r8e" fill="currentColor" d="m 0 0
	c-1.5 1.5 -2.4 2 -3.6 2
	c2.4 -2.8 -2.8 -4 -2.8 -1.2
	c0 2.7 4.3 2.4 5.9 0.6"/>
<g id="r8">
	<path d="m3.3 -4l-3.4 9.6" stroke="currentColor" fill="none"/>
	<use x="3.4" y="-4" xlink:href="#r8e"/>
</g>
</defs>
<use x="102.03" y="96.01" xlink:href="#r8"/>
<use x="120.43" y="78.01" xlink:href="#hl"/>
<use x="120.43" y="78.01" xlink:href="#hd"/>
<path d="M116.93 78.01v20.00" stroke="currentColor" fill="none"/>
<path fill="currentColor"
	d="M116.93 98.01c0.6 -5.6 9.6 -9 5.6 -18.4
	c1.6 6 -1.3 11.6 -5.6 12.8
"/>
<path fill="currentColor"
	d="M135.23 102.21l13.10 0.00v-3.20l-13.10 -0.00"/>
<path fill="currentColor"
	d="M135.63 97.21l12.40 0.00v-3.20l-12.40 -0.00"/>
<use x="139.13" y="78.01" xlink:href="#hl"/>
<use x="139.13" y="78.01" xlink:href="#hd"/>
<path d="M135.63 78.01v23.20" stroke="currentColor" fill="none"/>
<use x="151.43" y="78.01" xlink:href="#hl"/>
<use x="151.43" y="78.01" xlink:href="#hd"/>
<path d="M147.93 78.01v23.20" stroke="currentColor" fill="none"/>
<use x="175.03" y="81.01" xlink:href="#hd"/>
<path d="M171.53 81.01v20.00" stroke="currentColor" fill="none"/>
<path fill="currentColor"
	d="M171.53 101.01c0.6 -5.6 9.6 -9 5.6 -18.4
	c1.6 6 -1.3 11.6 -5.6 12.8
"/>
<use x="193.43" y="78.01" xlink:href="#hl"/>
<use x="193.43" y="75.01" xlink:href="#hd"/>
<path d="M189.93 75.01v21.00" stroke="currentColor" fill="none"/>
<path fill="currentColor"
	d="M189.93 96.01c0.6 -5.6 9.6 -9 5.6 -18.4
	c1.6 6 -1.3 11.6 -5.6 12.8
"/>
<use x="212.03" y="78.01" xlink:href="#hl"/>
<use x="212.03" y="78.01" xlink:href="#hd"/>
<path d="M208.53 78.01v20.00" stroke="currentColor" fill="none"/>
<use x="245.33" y="78.01" xlink:href="#hl"/>
<use x="245.33" y="72.01" xlink:href="#hl"/>
<use x="245.33" y="72.01" xlink:href="#hd"/>
<path d="M241.83 72.01v24.00" stroke="currentColor" fill="none"/>
<path fill="currentColor"
	d="M241.83 96.01c0.6 -5.6 9.6 -9 5.6 -18.4
	c1.6 6 -1.3 11.6 -5.6 12.8
"/>
<use x="262.03" y="96.01" xlink:href="#r8"/>
<use x="280.43" y="78.01" xlink:href="#hl"/>
<use x="280.43" y="72.01" xlink:href="#hl"/>
<use x="280.43" y="72.01" xlink:href="#hd"/>
<path d="M276.93 72.01v24.00" stroke="currentColor" fill="none"/>
<path fill="currentColor"
	d="M276.93 96.01c0.6 -5.6 9.6 -9 5.6 -18.4
	c1.6 6 -1.3 11.6 -5.6 12.8
"/>
<path fill="currentColor"
	d="M295.23 96.21l13.10 0.00v-3.20l-13.10 -0.00"/>
<path fill="currentColor"
	d="M295.53 91.21l12.40 0.00v-3.20l-12.40 -0.00"/>
<use x="299.03" y="78.01" xlink:href="#hl"/>
<use x="299.03" y="72.01" xlink:href="#hl"/>
<use x="299.03" y="72.01" xlink:href="#hd"/>
<path d="M295.53 72.01v23.20" stroke="currentColor" fill="none"/>
<use x="311.43" y="78.01" xlink:href="#hl"/>
<use x="311.43" y="72.01" xlink:href="#hl"/>
<use x="311.43" y="72.01" xlink:href="#hd"/>
<path d="M307.93 72.01v23.20" stroke="currentColor" fill="none"/>
<use x="335.03" y="78.01" xlink:href="#hl"/>
<use x="335.03" y="72.01" xlink:href="#hl"/>
<use x="335.03" y="66.01" xlink:href="#hl"/>
<use x="335.03" y="66.01" xlink:href="#hd"/>
<path d="M331.53 66.01v30.00" stroke="currentColor" fill="none"/>
<path fill="currentColor"
	d="M331.53 96.01c0.6 -5.6 9.6 -9 5.6 -18.4
	c1.6 6 -1.3 11.6 -5.6 12.8
"/>
<use x="353.63" y="78.01" xlink:href="#hl"/>
<use x="353.63" y="75.01" xlink:href="#hd"/>
<path d="M350.13 75.01v21.00" stroke="currentColor" fill="none"/>
<path fill="currentColor"
	d="M350.13 96.01c0.6 -5.6 9.6 -9 5.6 -18.4
	c1.6 6 -1.3 11.6 -5.6 12.8
"/>
<use x="372.23" y="78.01" xlink:href="#hl"/>
<use x="372.23" y="75.01" xlink:href="#hd"/>
<path d="M368.73 75.01v21.00" stroke="currentColor" fill="none"/>
<use x="405.53" y="81.01" xlink:href="#hd"/>
<path d="M402.03 81.01v20.00" stroke="currentColor" fill="none"/>
<path fill="currentColor"
	d="M402.03 101.01c0.6 -5.6 9.6 -9 5.6 -18.4
	c1.6 6 -1.3 11.6 -5.6 12.8
"/>
<use x="423.93" y="78.01" xlink:href="#hl"/>
<use x="423.93" y="75.01" xlink:href="#hd"/>
<path d="M420.43 75.01v21.00" stroke="currentColor" fill="none"/>
<path fill="currentColor"
	d="M420.43 96.01c0.6 -5.6 9.6 -9 5.6 -18.4
	c1.6 6 -1.3 11.6 -5.6 12.8
"/>
<use x="442.53" y="78.01" xlink:href="#hl"/>
<use x="442.53" y="72.01" xlink:href="#hl"/>
<use x="442.53" y="69.01" xlink:href="#hd"/>
<path d="M439.03 69.01v27.00" stroke="currentColor" fill="none"/>
<path fill="currentColor"
	d="M439.03 96.01c0.6 -5.6 9.6 -9 5.6 -18.4
	c1.6 6 -1.3 11.6 -5.6 12.8
"/>
<use x="461.13" y="78.01" xlink:href="#hl"/>
<use x="461.13" y="72.01" xlink:href="#hl"/>
<use x="461.13" y="66.01" xlink:href="#hl"/>
<use x="461.13" y="63.01" xlink:href="#hd"/>
<path d="M457.63 63.01v33.00" stroke="currentColor" fill="none"/>
<path fill="currentColor"
	d="M457.63 96.01c0.6 -5.6 9.6 -9 5.6 -18.4
	c1.6 6 -1.3 11.6 -5.6 12.8
"/>
<use x="488.73" y="78.01" xlink:href="#hl"/>
<use x="488.73" y="72.01" xlink:href="#hl"/>
<use x="488.73" y="66.01" xlink:href="#hl"/>
<use x="488.73" y="66.01" xlink:href="#hd"/>
<path d="M485.23 66.01v30.00" stroke="currentColor" fill="none"/>
<path fill="currentColor"
	d="M485.23 96.01c0.6 -5.6 9.6 -9 5.6 -18.4
	c1.6 6 -1.3 11.6 -5.6 12.8
"/>
<use x="507.33" y="78.01" xlink:href="#hl"/>
<use x="507.33" y="72.01" xlink:href="#hl"/>
<use x="507.33" y="66.01" xlink:href="#hl"/>
<use x="507.33" y="60.01" xlink:href="#hl"/>
<use x="507.33" y="57.01" xlink:href="#hd"/>
<path d="M503.83 57.01v39.00" stroke="currentColor" fill="none"/>
<use x="533.13" y="78.01" xlink:href="#hl"/>
<use x="533.13" y="72.01" xlink:href="#hl"/>
<use x="533.13" y="66.01" xlink:href="#hl"/>
<use x="533.13" y="66.01" xlink:href="#hd"/>
<path d="M529.63 66.01v30.00" stroke="currentColor" fill="none"/>
<path fill="currentColor"
	d="M529.63 96.01c0.6 -5.6 9.6 -9 5.6 -18.4
	c1.6 6 -1.3 11.6 -5.6 12.8
"/>
<use x="560.63" y="78.01" xlink:href="#hl"/>
<use x="560.63" y="72.01" xlink:href="#hl"/>
<use x="560.63" y="72.01" xlink:href="#hd"/>
<path d="M557.13 72.01v24.00" stroke="currentColor" fill="none"/>
<path fill="currentColor"
	d="M557.13 96.01c0.6 -5.6 9.6 -9 5.6 -18.4
	c1.6 6 -1.3 11.6 -5.6 12.8
"/>
<use x="579.33" y="78.01" xlink:href="#hl"/>
<use x="579.33" y="78.01" xlink:href="#hd"/>
<path d="M575.83 78.01v20.00" stroke="currentColor" fill="none"/>
<path fill="currentColor"
	d="M575.83 98.01c0.6 -5.6 9.6 -9 5.6 -18.4
	c1.6 6 -1.3 11.6 -5.6 12.8
"/>
<use x="597.73" y="87.01" xlink:href="#hd"/>
<path d="M594.23 87.01v20.00" stroke="currentColor" fill="none"/>
<path fill="currentColor"
	d="M594.23 107.01c0.6 -5.6 9.6 -9 5.6 -18.4
	c1.6 6 -1.3 11.6 -5.6 12.8
"/>
<path fill="currentColor"
	d="M612.33 98.01l13.10 0.00v-3.20l-13.10 -0.00"/>
<path fill="currentColor"
	d="M612.63 93.01l12.40 0.00v-3.20l-12.40 -0.00"/>
<use x="616.13" y="78.01" xlink:href="#hl"/>
<use x="616.13" y="75.01" xlink:href="#hd"/>
<path d="M612.63 75.01v22.00" stroke="currentColor" fill="none"/>
<use x="628.53" y="78.01" xlink:href="#hl"/>
<use x="628.53" y="72.01" xlink:href="#hl"/>
<use x="628.53" y="72.01" xlink:href="#hd"/>
<path d="M625.03 72.01v25.00" stroke="currentColor" fill="none"/>
<use x="652.03" y="78.01" xlink:href="#hl"/>
<use x="652.03" y="75.01" xlink:href="#hd"/>
<path d="M648.53 75.01v21.00" stroke="currentColor" fill="none"/>
<use x="677.73" y="78.01" xlink:href="#hl"/>
<use x="677.73" y="78.01" xlink:href="#hd"/>
<path d="M674.23 78.01v20.00" stroke="currentColor" fill="none"/>
<path fill="currentColor"
	d="M674.23 98.01c0.6 -5.6 9.6 -9 5.6 -18.4
	c1.6 6 -1.3 11.6 -5.6 12.8
"/>
</g>
</svg>
