<?xml version="1.0" standalone="no"?>
<!DOCTYPE svg PUBLIC "-//W3C//DTD SVG 1.1//EN"
	"http://www.w3.org/Graphics/SVG/1.1/DTD/svg11.dtd">
<svg xmlns="http://www.w3.org/2000/svg" version="1.1"
	xmlns:xlink="http://www.w3.org/1999/xlink"
	xml:space='preserve' color="black"
	width="7.38in" height="1.36in" viewBox="0 0 531 98">
<title>7407.abc (7407) tune 1</title>
<!-- Creator: abcm2ps-7.8.14 -->
<!-- CreationDate: Mar 13, 2016 18:54 -->
<!-- CommandLine: -qxg 7407.abc -O ../svgs/7407.svg -->
<g transform="scale(0.750)" stroke-width="0.70" font-family="Times" font-size="20.00">
<text x="354.13" y="21.67" text-anchor="middle">7407.  Mignon, Overture, 3rd. Theme</text>
</g>
<g transform="scale(0.750)" stroke-width="0.70" font-family="Times" font-size="14.00" font-style="italic">
<text x="694.93" y="45.34" text-anchor="end">Ambroise Thomas</text>
</g>
<g transform="scale(0.525)" stroke-width="0.70" font-family="Times" font-size="14.00" font-style="italic">
<defs>
<ellipse id="hd" rx="4.1" ry="2.9"
	transform="rotate(-20)" fill="currentColor"/>
</defs>
<use x="122.76" y="94.16" xlink:href="#hd"/>
<path d="M126.26 94.16v-20.00" stroke="currentColor" fill="none"/>
</g>
<g transform="scale(0.750)" stroke-width="0.70" font-family="Times" font-size="15.00" font-weight="bold">
<text x="93.63" y="68.01">= 120</text>
<path stroke="currentColor" fill="none"
	d="M295.93 108.01v-24.00"/>
<path stroke="currentColor" fill="none"
	d="M518.73 108.01v-24.00"/>
<path stroke="currentColor" fill="none"
	d="M13.33 108.01h539.60m-539.60 -6h539.60m-539.60 -6h539.60m-539.60 -6h539.60m-539.60 -6h539.60"/>
<defs>
<path id="utclef" fill="currentColor" d="m-50 -90
	c-72 -41 -72 -158 52 -188
	c150 -10 220 188 90 256
	c-114 52 -275 0 -293 -136
	c-15 -181 93 -229 220 -334
	c88 -87 79 -133 62 -210
	c-51 33 -94 105 -89 186
	c17 267 36 374 49 574
	c6 96 -19 134 -77 135
	c-80 1 -126 -93 -61 -133
	c85 -41 133 101 31 105
	c23 17 92 37 90 -92
	c-10 -223 -39 -342 -50 -617
	c0 -90 0 -162 96 -232
	c56 72 63 230 22 289
	c-74 106 -257 168 -255 316
	c9 153 148 185 252 133
	c86 -65 29 -192 -80 -176
	c-71 12 -105 67 -59 124"/>
<use id="tclef" transform="scale(0.045)"
	xlink:href="#utclef"/>
</defs>
<use x="25.33" y="108.01" xlink:href="#tclef"/>
<defs>
<path id="usharp" fill="currentColor" d="
	m136 -702
	v890
	h32
	v-890
	m128 840
	h32
	v-888
	h-32
	m-232 286
	v116
	l338 -96
	v-116
	m-338 442
	v116
	l338 -98
	v-114"/>
<use id="sh0" transform="translate(-4,5) scale(0.018)"
	xlink:href="#usharp"/>
</defs>
<use x="40.33" y="84.01" xlink:href="#sh0"/>
<use x="45.83" y="93.01" xlink:href="#sh0"/>
<use x="51.33" y="81.01" xlink:href="#sh0"/>
<g font-family="serif" font-size="16" font-weight="bold" font-style="normal"
	transform="translate(67.33,108.01) scale(1.2,1)">
	<text y="-1" text-anchor="middle">4</text>
	<text y="-13" text-anchor="middle">3</text>
</g>
<defs>
<path id="r8e" fill="currentColor" d="m 0 0
	c-1.5 1.5 -2.4 2 -3.6 2
	c2.4 -2.8 -2.8 -4 -2.8 -1.2
	c0 2.7 4.3 2.4 5.9 0.6"/>
<g id="r16">
	<path d="m3.3 -4l-4 15.6" stroke="currentColor" fill="none"/>
	<use x="3.4" y="-4" xlink:href="#r8e"/>
	<use x="1.9" y="2" xlink:href="#r8e"/>
</g>
</defs>
<use x="85.33" y="96.01" xlink:href="#r16"/>
<path fill="currentColor"
	d="M101.53 102.51l18.70 3.70v-3.20l-18.70 -3.70"/>
<path fill="currentColor"
	d="M101.83 97.61l18.00 3.60v-3.20l-18.00 -3.60"/>
<defs>
<path id="hl" stroke="currentColor" d="m-6 0h12"/>
</defs>
<use x="105.33" y="78.01" xlink:href="#hl"/>
<use x="105.33" y="78.01" xlink:href="#hd"/>
<path d="M101.83 78.01v23.60" stroke="currentColor" fill="none"/>
<use x="123.33" y="84.01" xlink:href="#hd"/>
<path d="M119.83 84.01v21.20" stroke="currentColor" fill="none"/>
<path fill="currentColor"
	d="M139.53 102.21l36.70 0.00v-3.20l-36.70 -0.00"/>
<path fill="currentColor"
	d="M139.83 97.21l36.00 0.00v-3.20l-36.00 -0.00"/>
<use x="143.33" y="78.01" xlink:href="#hl"/>
<use x="143.33" y="78.01" xlink:href="#hd"/>
<path d="M139.83 78.01v23.20" stroke="currentColor" fill="none"/>
<use x="161.33" y="78.01" xlink:href="#hl"/>
<use x="161.33" y="72.01" xlink:href="#hl"/>
<use x="161.33" y="69.01" xlink:href="#hd"/>
<path d="M157.83 69.01v32.20" stroke="currentColor" fill="none"/>
<use x="179.33" y="78.01" xlink:href="#hl"/>
<use x="179.33" y="78.01" xlink:href="#hd"/>
<path d="M175.83 78.01v23.20" stroke="currentColor" fill="none"/>
<path fill="currentColor"
	d="M195.53 106.21l36.70 -4.20v-3.20l-36.70 4.20"/>
<path fill="currentColor"
	d="M195.83 101.21l36.00 -4.20v-3.20l-36.00 4.20"/>
<use x="199.33" y="84.01" xlink:href="#hd"/>
<path d="M195.83 84.01v21.20" stroke="currentColor" fill="none"/>
<use x="217.33" y="78.01" xlink:href="#hl"/>
<use x="217.33" y="78.01" xlink:href="#hd"/>
<path d="M213.83 78.01v25.10" stroke="currentColor" fill="none"/>
<use x="235.33" y="78.01" xlink:href="#hl"/>
<use x="235.33" y="75.01" xlink:href="#hd"/>
<path d="M231.83 75.01v26.00" stroke="currentColor" fill="none"/>
<use x="253.33" y="96.01" xlink:href="#r16"/>
<use x="273.33" y="78.01" xlink:href="#hl"/>
<use x="273.33" y="75.01" xlink:href="#hd"/>
<path d="M269.83 75.01v21.00" stroke="currentColor" fill="none"/>
<path fill="currentColor"
	d="M269.83 96.01c0.6 -5.6 9.6 -9 5.6 -18.4
	c1.6 6 -1.3 11.6 -5.6 12.8
"/>
<path fill="currentColor"
	d="M306.33 98.01l36.70 0.00v-3.20l-36.70 -0.00"/>
<path fill="currentColor"
	d="M306.63 93.01l36.00 0.00v-3.20l-36.00 -0.00"/>
<use x="310.13" y="78.01" xlink:href="#hl"/>
<use x="310.13" y="75.01" xlink:href="#hd"/>
<path d="M306.63 75.01v22.00" stroke="currentColor" fill="none"/>
<use x="328.13" y="78.01" xlink:href="#hl"/>
<use x="328.13" y="75.01" xlink:href="#hd"/>
<path d="M324.63 75.01v22.00" stroke="currentColor" fill="none"/>
<use x="346.13" y="78.01" xlink:href="#hl"/>
<use x="346.13" y="72.01" xlink:href="#hl"/>
<use x="346.13" y="66.01" xlink:href="#hl"/>
<use x="346.13" y="66.01" xlink:href="#hd"/>
<path d="M342.63 66.01v31.00" stroke="currentColor" fill="none"/>
<path fill="currentColor"
	d="M362.33 98.01l36.70 0.00v-3.20l-36.70 -0.00"/>
<path fill="currentColor"
	d="M362.63 93.01l36.00 0.00v-3.20l-36.00 -0.00"/>
<use x="366.13" y="78.01" xlink:href="#hl"/>
<use x="366.13" y="75.01" xlink:href="#hd"/>
<path d="M362.63 75.01v22.00" stroke="currentColor" fill="none"/>
<use x="384.13" y="78.01" xlink:href="#hl"/>
<use x="384.13" y="72.01" xlink:href="#hl"/>
<use x="384.13" y="69.01" xlink:href="#hd"/>
<path d="M380.63 69.01v28.00" stroke="currentColor" fill="none"/>
<use x="402.13" y="78.01" xlink:href="#hl"/>
<use x="402.13" y="72.01" xlink:href="#hl"/>
<use x="402.13" y="72.01" xlink:href="#hd"/>
<path d="M398.63 72.01v25.00" stroke="currentColor" fill="none"/>
<path fill="currentColor"
	d="M418.33 102.21l36.70 0.00v-3.20l-36.70 -0.00"/>
<path fill="currentColor"
	d="M418.63 97.21l36.00 0.00v-3.20l-36.00 -0.00"/>
<use x="422.13" y="78.01" xlink:href="#hl"/>
<use x="422.13" y="75.01" xlink:href="#hd"/>
<path d="M418.63 75.01v26.20" stroke="currentColor" fill="none"/>
<use x="440.13" y="78.01" xlink:href="#hl"/>
<use x="440.13" y="72.01" xlink:href="#hl"/>
<use x="440.13" y="72.01" xlink:href="#hd"/>
<path d="M436.63 72.01v29.20" stroke="currentColor" fill="none"/>
<use x="458.13" y="78.01" xlink:href="#hl"/>
<use x="458.13" y="78.01" xlink:href="#hd"/>
<path d="M454.63 78.01v23.20" stroke="currentColor" fill="none"/>
<use x="476.13" y="96.01" xlink:href="#r16"/>
<use x="496.13" y="78.01" xlink:href="#hl"/>
<use x="496.13" y="78.01" xlink:href="#hd"/>
<path d="M492.63 78.01v20.00" stroke="currentColor" fill="none"/>
<path fill="currentColor"
	d="M492.63 98.01c0.6 -5.6 9.6 -9 5.6 -18.4
	c1.6 6 -1.3 11.6 -5.6 12.8
"/>
<use x="532.93" y="78.01" xlink:href="#hl"/>
<use x="532.93" y="78.01" xlink:href="#hd"/>
<path d="M529.43 78.01v22.00" stroke="currentColor" fill="none"/>
<path fill="currentColor"
	d="M529.43 100.01c0.9 -3.7 9.1 -6.4 6 -12.4
	c1 5.4 -4.2 8.4 -6 8.4
M529.43 94.61c0.9 -3.7 9.1 -6.4 6 -12.4
	c1 5.4 -4.2 8.4 -6 8.4
"/>
<path fill="currentColor"
	d="M276.83 73.01c4.69 -5.04 25.10 -5.04 29.79 -0.00
	l0.00 -0.23c-5.59 -6.81 -24.20 -6.81 -29.79 0.23"/>
<path fill="currentColor"
	d="M499.63 78.01c4.69 -5.04 25.10 -5.04 29.79 -0.00
	l0.00 -0.23c-5.59 -6.81 -24.20 -6.81 -29.79 0.23"/>
</g>
</svg>
