<?xml version="1.0" standalone="no"?>
<!DOCTYPE svg PUBLIC "-//W3C//DTD SVG 1.1//EN"
	"http://www.w3.org/Graphics/SVG/1.1/DTD/svg11.dtd">
<svg xmlns="http://www.w3.org/2000/svg" version="1.1"
	xmlns:xlink="http://www.w3.org/1999/xlink"
	xml:space='preserve' color="black"
	width="7.38in" height="1.49in" viewBox="0 0 531 107">
<title>7409.abc (7409) tune 1</title>
<!-- Creator: abcm2ps-7.8.14 -->
<!-- CreationDate: Mar 13, 2016 18:54 -->
<!-- CommandLine: -qxg 7409.abc -O ../svgs/7409.svg -->
<g transform="scale(0.750)" stroke-width="0.70" font-family="Times" font-size="20.00">
<text x="354.13" y="21.67" text-anchor="middle">7409.  Mignon, Act II, Intermezzo (Gavotte)</text>
</g>
<g transform="scale(0.750)" stroke-width="0.70" font-family="Times" font-size="14.00" font-style="italic">
<text x="694.93" y="45.34" text-anchor="end">Ambroise Thomas</text>
</g>
<g transform="scale(0.525)" stroke-width="0.70" font-family="Times" font-size="14.00" font-style="italic">
<defs>
<ellipse id="hd" rx="4.1" ry="2.9"
	transform="rotate(-20)" fill="currentColor"/>
</defs>
<use x="122.76" y="94.16" xlink:href="#hd"/>
<path d="M126.26 94.16v-20.00" stroke="currentColor" fill="none"/>
</g>
<g transform="scale(0.750)" stroke-width="0.70" font-family="Times" font-size="15.00" font-weight="bold">
<text x="93.63" y="68.01">= 120</text>
<path stroke="currentColor" fill="none"
	d="M248.03 120.01v-24.00"/>
<path stroke="currentColor" fill="none"
	d="M382.33 120.01v-24.00"/>
<path stroke="currentColor" fill="none"
	d="M560.63 120.01v-24.00"/>
<path stroke="currentColor" fill="none"
	d="M694.93 120.01v-24.00"/>
<path stroke="currentColor" fill="none"
	d="M13.33 120.01h681.60m-681.60 -6h681.60m-681.60 -6h681.60m-681.60 -6h681.60m-681.60 -6h681.60"/>
<defs>
<path id="utclef" fill="currentColor" d="m-50 -90
	c-72 -41 -72 -158 52 -188
	c150 -10 220 188 90 256
	c-114 52 -275 0 -293 -136
	c-15 -181 93 -229 220 -334
	c88 -87 79 -133 62 -210
	c-51 33 -94 105 -89 186
	c17 267 36 374 49 574
	c6 96 -19 134 -77 135
	c-80 1 -126 -93 -61 -133
	c85 -41 133 101 31 105
	c23 17 92 37 90 -92
	c-10 -223 -39 -342 -50 -617
	c0 -90 0 -162 96 -232
	c56 72 63 230 22 289
	c-74 106 -257 168 -255 316
	c9 153 148 185 252 133
	c86 -65 29 -192 -80 -176
	c-71 12 -105 67 -59 124"/>
<use id="tclef" transform="scale(0.045)"
	xlink:href="#utclef"/>
</defs>
<use x="25.33" y="120.01" xlink:href="#tclef"/>
<defs>
<path id="usharp" fill="currentColor" d="
	m136 -702
	v890
	h32
	v-890
	m128 840
	h32
	v-888
	h-32
	m-232 286
	v116
	l338 -96
	v-116
	m-338 442
	v116
	l338 -98
	v-114"/>
<use id="sh0" transform="translate(-4,5) scale(0.018)"
	xlink:href="#usharp"/>
</defs>
<use x="40.33" y="96.01" xlink:href="#sh0"/>
<use x="45.83" y="105.01" xlink:href="#sh0"/>
<use x="51.33" y="93.01" xlink:href="#sh0"/>
<g font-family="serif" font-size="16" font-weight="bold" font-style="normal"
	transform="translate(67.33,120.01) scale(1.2,1)">
	<text y="-1" text-anchor="middle">4</text>
	<text y="-13" text-anchor="middle">2</text>
</g>
<defs>
<path id="hl" stroke="currentColor" d="m-6 0h12"/>
</defs>
<use x="85.33" y="90.01" xlink:href="#hl"/>
<use x="85.33" y="87.01" xlink:href="#hd"/>
<path d="M81.83 87.01v22.00" stroke="currentColor" fill="none"/>
<path fill="currentColor"
	d="M81.83 109.01c0.9 -3.7 9.1 -6.4 6 -12.4
	c1 5.4 -4.2 8.4 -6 8.4
M81.83 103.61c0.9 -3.7 9.1 -6.4 6 -12.4
	c1 5.4 -4.2 8.4 -6 8.4
"/>
<defs>
<path id="r8e" fill="currentColor" d="m 0 0
	c-1.5 1.5 -2.4 2 -3.6 2
	c2.4 -2.8 -2.8 -4 -2.8 -1.2
	c0 2.7 4.3 2.4 5.9 0.6"/>
<g id="r16">
	<path d="m3.3 -4l-4 15.6" stroke="currentColor" fill="none"/>
	<use x="3.4" y="-4" xlink:href="#r8e"/>
	<use x="1.9" y="2" xlink:href="#r8e"/>
</g>
</defs>
<use x="105.13" y="108.01" xlink:href="#r16"/>
<use x="127.13" y="90.01" xlink:href="#hl"/>
<use x="127.13" y="84.01" xlink:href="#hl"/>
<use x="127.13" y="78.01" xlink:href="#hl"/>
<use x="127.13" y="78.01" xlink:href="#hd"/>
<path d="M123.63 78.01v30.00" stroke="currentColor" fill="none"/>
<path fill="currentColor"
	d="M123.63 108.01c0.9 -3.7 9.1 -6.4 6 -12.4
	c1 5.4 -4.2 8.4 -6 8.4
M123.63 102.61c0.9 -3.7 9.1 -6.4 6 -12.4
	c1 5.4 -4.2 8.4 -6 8.4
"/>
<use x="146.93" y="108.01" xlink:href="#r16"/>
<use x="168.93" y="90.01" xlink:href="#hl"/>
<use x="168.93" y="84.01" xlink:href="#hl"/>
<use x="168.93" y="84.01" xlink:href="#hd"/>
<path d="M165.43 84.01v24.00" stroke="currentColor" fill="none"/>
<path fill="currentColor"
	d="M165.43 108.01c0.9 -3.7 9.1 -6.4 6 -12.4
	c1 5.4 -4.2 8.4 -6 8.4
M165.43 102.61c0.9 -3.7 9.1 -6.4 6 -12.4
	c1 5.4 -4.2 8.4 -6 8.4
"/>
<use x="188.63" y="108.01" xlink:href="#r16"/>
<use x="210.63" y="90.01" xlink:href="#hl"/>
<use x="210.63" y="90.01" xlink:href="#hd"/>
<path d="M207.13 90.01v22.00" stroke="currentColor" fill="none"/>
<path fill="currentColor"
	d="M207.13 112.01c0.9 -3.7 9.1 -6.4 6 -12.4
	c1 5.4 -4.2 8.4 -6 8.4
M207.13 106.61c0.9 -3.7 9.1 -6.4 6 -12.4
	c1 5.4 -4.2 8.4 -6 8.4
"/>
<use x="230.43" y="108.01" xlink:href="#r16"/>
<use x="263.63" y="99.01" xlink:href="#hd"/>
<path d="M260.13 99.01v22.00" stroke="currentColor" fill="none"/>
<path fill="currentColor"
	d="M260.13 121.01c0.9 -3.7 9.1 -6.4 6 -12.4
	c1 5.4 -4.2 8.4 -6 8.4
M260.13 115.61c0.9 -3.7 9.1 -6.4 6 -12.4
	c1 5.4 -4.2 8.4 -6 8.4
"/>
<use x="283.43" y="108.01" xlink:href="#r16"/>
<use x="305.43" y="90.01" xlink:href="#hl"/>
<use x="305.43" y="87.01" xlink:href="#hd"/>
<path d="M301.93 87.01v22.00" stroke="currentColor" fill="none"/>
<path fill="currentColor"
	d="M301.93 109.01c0.9 -3.7 9.1 -6.4 6 -12.4
	c1 5.4 -4.2 8.4 -6 8.4
M301.93 103.61c0.9 -3.7 9.1 -6.4 6 -12.4
	c1 5.4 -4.2 8.4 -6 8.4
"/>
<use x="325.13" y="108.01" xlink:href="#r16"/>
<use x="347.13" y="90.01" xlink:href="#hl"/>
<use x="347.13" y="90.01" xlink:href="#hd"/>
<path d="M343.63 90.01v20.00" stroke="currentColor" fill="none"/>
<path fill="currentColor"
	d="M394.03 110.01l20.50 0.00v-3.20l-20.50 -0.00"/>
<path fill="currentColor"
	d="M394.43 105.01l19.80 0.00v-3.20l-19.80 -0.00"/>
<use x="397.93" y="90.01" xlink:href="#hl"/>
<use x="397.93" y="87.01" xlink:href="#hd"/>
<path d="M394.43 87.01v22.00" stroke="currentColor" fill="none"/>
<use x="417.73" y="90.01" xlink:href="#hl"/>
<use x="417.73" y="84.01" xlink:href="#hl"/>
<use x="417.73" y="84.01" xlink:href="#hd"/>
<path d="M414.23 84.01v25.00" stroke="currentColor" fill="none"/>
<path fill="currentColor"
	d="M435.83 108.21l20.50 0.00v-3.20l-20.50 -0.00"/>
<path fill="currentColor"
	d="M436.23 103.21l19.80 0.00v-3.20l-19.80 -0.00"/>
<use x="439.73" y="90.01" xlink:href="#hl"/>
<use x="439.73" y="84.01" xlink:href="#hl"/>
<use x="439.73" y="78.01" xlink:href="#hl"/>
<use x="439.73" y="78.01" xlink:href="#hd"/>
<path d="M436.23 78.01v29.20" stroke="currentColor" fill="none"/>
<use x="459.43" y="90.01" xlink:href="#hl"/>
<use x="459.43" y="84.01" xlink:href="#hl"/>
<use x="459.43" y="81.01" xlink:href="#hd"/>
<path d="M455.93 81.01v26.20" stroke="currentColor" fill="none"/>
<path fill="currentColor"
	d="M477.63 108.21l20.50 0.00v-3.20l-20.50 -0.00"/>
<path fill="currentColor"
	d="M477.93 103.21l19.80 0.00v-3.20l-19.80 -0.00"/>
<use x="481.43" y="90.01" xlink:href="#hl"/>
<use x="481.43" y="84.01" xlink:href="#hl"/>
<use x="481.43" y="84.01" xlink:href="#hd"/>
<path d="M477.93 84.01v23.20" stroke="currentColor" fill="none"/>
<use x="501.23" y="90.01" xlink:href="#hl"/>
<use x="501.23" y="84.01" xlink:href="#hl"/>
<use x="501.23" y="81.01" xlink:href="#hd"/>
<path d="M497.73 81.01v26.20" stroke="currentColor" fill="none"/>
<path fill="currentColor"
	d="M519.43 108.21l20.50 0.00v-3.20l-20.50 -0.00"/>
<path fill="currentColor"
	d="M519.73 103.21l19.80 0.00v-3.20l-19.80 -0.00"/>
<use x="523.23" y="90.01" xlink:href="#hl"/>
<use x="523.23" y="84.01" xlink:href="#hl"/>
<use x="523.23" y="78.01" xlink:href="#hl"/>
<use x="523.23" y="78.01" xlink:href="#hd"/>
<path d="M519.73 78.01v29.20" stroke="currentColor" fill="none"/>
<use x="543.03" y="90.01" xlink:href="#hl"/>
<use x="543.03" y="84.01" xlink:href="#hl"/>
<use x="543.03" y="78.01" xlink:href="#hl"/>
<use x="543.03" y="75.01" xlink:href="#hd"/>
<path d="M539.53 75.01v32.20" stroke="currentColor" fill="none"/>
<path fill="currentColor"
	d="M572.33 108.21l20.50 0.00v-3.20l-20.50 -0.00"/>
<path fill="currentColor"
	d="M572.73 103.21l19.80 0.00v-3.20l-19.80 -0.00"/>
<use x="576.23" y="90.01" xlink:href="#hl"/>
<use x="576.23" y="84.01" xlink:href="#hl"/>
<use x="576.23" y="81.01" xlink:href="#hd"/>
<path d="M572.73 81.01v26.20" stroke="currentColor" fill="none"/>
<use x="595.93" y="90.01" xlink:href="#hl"/>
<use x="595.93" y="84.01" xlink:href="#hl"/>
<use x="595.93" y="78.01" xlink:href="#hl"/>
<use x="595.93" y="78.01" xlink:href="#hd"/>
<path d="M592.43 78.01v29.20" stroke="currentColor" fill="none"/>
<path fill="currentColor"
	d="M614.13 108.21l20.50 0.00v-3.20l-20.50 -0.00"/>
<path fill="currentColor"
	d="M614.43 103.21l19.80 0.00v-3.20l-19.80 -0.00"/>
<use x="617.93" y="90.01" xlink:href="#hl"/>
<use x="617.93" y="84.01" xlink:href="#hl"/>
<use x="617.93" y="78.01" xlink:href="#hl"/>
<use x="617.93" y="72.01" xlink:href="#hl"/>
<use x="617.93" y="72.01" xlink:href="#hd"/>
<path d="M614.43 72.01v35.20" stroke="currentColor" fill="none"/>
<use x="637.73" y="90.01" xlink:href="#hl"/>
<use x="637.73" y="84.01" xlink:href="#hl"/>
<use x="637.73" y="78.01" xlink:href="#hl"/>
<use x="637.73" y="75.01" xlink:href="#hd"/>
<path d="M634.23 75.01v32.20" stroke="currentColor" fill="none"/>
<use x="659.73" y="90.01" xlink:href="#hl"/>
<use x="659.73" y="84.01" xlink:href="#hl"/>
<use x="659.73" y="78.01" xlink:href="#hl"/>
<use x="659.73" y="78.01" xlink:href="#hd"/>
<path d="M656.23 78.01v30.00" stroke="currentColor" fill="none"/>
</g>
</svg>
