<?xml version="1.0" standalone="no"?>
<!DOCTYPE svg PUBLIC "-//W3C//DTD SVG 1.1//EN"
	"http://www.w3.org/Graphics/SVG/1.1/DTD/svg11.dtd">
<svg xmlns="http://www.w3.org/2000/svg" version="1.1"
	xmlns:xlink="http://www.w3.org/1999/xlink"
	xml:space='preserve' color="black"
	width="7.38in" height="1.49in" viewBox="0 0 531 107">
<title>7441.abc (7441) tune 1</title>
<!-- Creator: abcm2ps-7.8.14 -->
<!-- CreationDate: Mar 13, 2016 18:54 -->
<!-- CommandLine: -qxg 7441.abc -O ../svgs/7441.svg -->
<g transform="scale(0.750)" stroke-width="0.70" font-family="Times" font-size="20.00">
<text x="354.13" y="21.67" text-anchor="middle">7441.  The River (Film Suite), 1st. Mvt. - The Old South, 1st. Theme</text>
</g>
<g transform="scale(0.750)" stroke-width="0.70" font-family="Times" font-size="14.00" font-style="italic">
<text x="694.93" y="45.34" text-anchor="end">Virgil Thomson</text>
</g>
<g transform="scale(0.525)" stroke-width="0.70" font-family="Times" font-size="14.00" font-style="italic">
<defs>
<ellipse id="hd" rx="4.1" ry="2.9"
	transform="rotate(-20)" fill="currentColor"/>
</defs>
<use x="130.61" y="94.16" xlink:href="#hd"/>
<path d="M134.11 94.16v-20.00" stroke="currentColor" fill="none"/>
</g>
<g transform="scale(0.750)" stroke-width="0.70" font-family="Times" font-size="15.00" font-weight="bold">
<text x="99.13" y="68.01">= 120</text>
<path stroke="currentColor" fill="none"
	d="M165.83 120.01v-24.00"/>
<path stroke="currentColor" fill="none"
	d="M266.13 120.01v-24.00"/>
<path stroke="currentColor" fill="none"
	d="M356.43 120.01v-24.00"/>
<path stroke="currentColor" fill="none"
	d="M435.03 120.01v-24.00"/>
<path stroke="currentColor" fill="none"
	d="M504.43 120.01v-24.00"/>
<path stroke="currentColor" fill="none"
	d="M573.93 120.01v-24.00"/>
<path stroke="currentColor" fill="none"
	d="M643.33 120.01v-24.00"/>
<path stroke="currentColor" fill="none"
	d="M13.33 120.01h681.60m-681.60 -6h681.60m-681.60 -6h681.60m-681.60 -6h681.60m-681.60 -6h681.60"/>
<defs>
<path id="utclef" fill="currentColor" d="m-50 -90
	c-72 -41 -72 -158 52 -188
	c150 -10 220 188 90 256
	c-114 52 -275 0 -293 -136
	c-15 -181 93 -229 220 -334
	c88 -87 79 -133 62 -210
	c-51 33 -94 105 -89 186
	c17 267 36 374 49 574
	c6 96 -19 134 -77 135
	c-80 1 -126 -93 -61 -133
	c85 -41 133 101 31 105
	c23 17 92 37 90 -92
	c-10 -223 -39 -342 -50 -617
	c0 -90 0 -162 96 -232
	c56 72 63 230 22 289
	c-74 106 -257 168 -255 316
	c9 153 148 185 252 133
	c86 -65 29 -192 -80 -176
	c-71 12 -105 67 -59 124"/>
<use id="tclef" transform="scale(0.045)"
	xlink:href="#utclef"/>
</defs>
<use x="25.33" y="120.01" xlink:href="#tclef"/>
<defs>
<path id="usharp" fill="currentColor" d="
	m136 -702
	v890
	h32
	v-890
	m128 840
	h32
	v-888
	h-32
	m-232 286
	v116
	l338 -96
	v-116
	m-338 442
	v116
	l338 -98
	v-114"/>
<use id="sh0" transform="translate(-4,5) scale(0.018)"
	xlink:href="#usharp"/>
</defs>
<use x="40.33" y="96.01" xlink:href="#sh0"/>
<use x="45.83" y="105.01" xlink:href="#sh0"/>
<use x="51.33" y="93.01" xlink:href="#sh0"/>
<use x="56.83" y="102.01" xlink:href="#sh0"/>
<g font-family="serif" font-size="16" font-weight="bold" font-style="normal"
	transform="translate(72.83,120.01) scale(1.2,1)">
	<text y="-1" text-anchor="middle">4</text>
	<text y="-13" text-anchor="middle">4</text>
</g>
<use x="90.83" y="99.01" xlink:href="#hd"/>
<path d="M87.33 99.01v20.00" stroke="currentColor" fill="none"/>
<path fill="currentColor"
	d="M87.33 119.01c0.6 -5.6 9.6 -9 5.6 -18.4
	c1.6 6 -1.3 11.6 -5.6 12.8
"/>
<use x="104.03" y="102.01" xlink:href="#hd"/>
<path d="M100.53 102.01v20.00" stroke="currentColor" fill="none"/>
<path fill="currentColor"
	d="M100.53 122.01c0.6 -5.6 9.6 -9 5.6 -18.4
	c1.6 6 -1.3 11.6 -5.6 12.8
"/>
<use x="116.13" y="111.01" xlink:href="#hd"/>
<path d="M119.63 111.01v-20.00" stroke="currentColor" fill="none"/>
<use x="133.63" y="111.01" xlink:href="#hd"/>
<path d="M137.13 111.01v-20.00" stroke="currentColor" fill="none"/>
<use x="151.13" y="111.01" xlink:href="#hd"/>
<path d="M154.63 111.01v-20.00" stroke="currentColor" fill="none"/>
<use x="178.33" y="111.01" xlink:href="#hd"/>
<path d="M181.83 111.01v-20.00" stroke="currentColor" fill="none"/>
<path fill="currentColor"
	d="	M181.83 91.01c0.6 5.6 9.6 9 5.6 18.4
	c1.6 -6 -1.3 -11.6 -5.6 -12.8
"/>
<use x="194.83" y="117.01" xlink:href="#hd"/>
<path d="M198.33 117.01v-20.00" stroke="currentColor" fill="none"/>
<path fill="currentColor"
	d="	M198.33 97.01c0.6 5.6 9.6 9 5.6 18.4
	c1.6 -6 -1.3 -11.6 -5.6 -12.8
"/>
<defs>
<path id="Hd" fill="currentColor" d="m3 -1.6
	c-1 -1.8 -7 1.4 -6 3.2
	c1 1.8 7 -1.4 6 -3.2
	m0.5 -0.3
	c2 3.8 -5 7.6 -7 3.8
	c-2 -3.8 5 -7.6 7 -3.8"/>
</defs>
<use x="211.83" y="120.01" xlink:href="#Hd"/>
<path d="M215.33 120.01v-20.00" stroke="currentColor" fill="none"/>
<use x="238.43" y="120.01" xlink:href="#hd"/>
<path d="M241.93 120.01v-20.00" stroke="currentColor" fill="none"/>
<path fill="currentColor"
	d="	M241.93 100.01c0.6 5.6 9.6 9 5.6 18.4
	c1.6 -6 -1.3 -11.6 -5.6 -12.8
"/>
<defs>
<path id="r8e" fill="currentColor" d="m 0 0
	c-1.5 1.5 -2.4 2 -3.6 2
	c2.4 -2.8 -2.8 -4 -2.8 -1.2
	c0 2.7 4.3 2.4 5.9 0.6"/>
<g id="r8">
	<path d="m3.3 -4l-3.4 9.6" stroke="currentColor" fill="none"/>
	<use x="3.4" y="-4" xlink:href="#r8e"/>
</g>
</defs>
<use x="254.93" y="108.01" xlink:href="#r8"/>
<defs>
<path id="hl" stroke="currentColor" d="m-6 0h12"/>
</defs>
<use x="278.63" y="90.01" xlink:href="#hl"/>
<use x="278.63" y="84.01" xlink:href="#hl"/>
<use x="278.63" y="78.01" xlink:href="#hl"/>
<use x="278.63" y="72.01" xlink:href="#hl"/>
<use x="278.63" y="66.01" xlink:href="#hl"/>
<use x="278.63" y="60.01" xlink:href="#hl"/>
<use x="278.63" y="57.01" xlink:href="#hd"/>
<path d="M275.13 57.01v51.00" stroke="currentColor" fill="none"/>
<path fill="currentColor"
	d="M275.13 108.01c0.6 -5.6 9.6 -9 5.6 -18.4
	c1.6 6 -1.3 11.6 -5.6 12.8
"/>
<use x="292.23" y="90.01" xlink:href="#hl"/>
<use x="292.23" y="84.01" xlink:href="#hl"/>
<use x="292.23" y="78.01" xlink:href="#hl"/>
<use x="292.23" y="72.01" xlink:href="#hl"/>
<use x="292.23" y="66.01" xlink:href="#hl"/>
<use x="292.23" y="60.01" xlink:href="#hl"/>
<use x="292.23" y="60.01" xlink:href="#hd"/>
<path d="M288.73 60.01v48.00" stroke="currentColor" fill="none"/>
<path fill="currentColor"
	d="M288.73 108.01c0.6 -5.6 9.6 -9 5.6 -18.4
	c1.6 6 -1.3 11.6 -5.6 12.8
"/>
<use x="305.83" y="90.01" xlink:href="#hl"/>
<use x="305.83" y="84.01" xlink:href="#hl"/>
<use x="305.83" y="78.01" xlink:href="#hl"/>
<use x="305.83" y="72.01" xlink:href="#hl"/>
<use x="305.83" y="69.01" xlink:href="#hd"/>
<path d="M302.33 69.01v39.00" stroke="currentColor" fill="none"/>
<use x="323.73" y="90.01" xlink:href="#hl"/>
<use x="323.73" y="84.01" xlink:href="#hl"/>
<use x="323.73" y="78.01" xlink:href="#hl"/>
<use x="323.73" y="72.01" xlink:href="#hl"/>
<use x="323.73" y="69.01" xlink:href="#hd"/>
<path d="M320.23 69.01v39.00" stroke="currentColor" fill="none"/>
<use x="341.73" y="90.01" xlink:href="#hl"/>
<use x="341.73" y="84.01" xlink:href="#hl"/>
<use x="341.73" y="78.01" xlink:href="#hl"/>
<use x="341.73" y="72.01" xlink:href="#hl"/>
<use x="341.73" y="69.01" xlink:href="#hd"/>
<path d="M338.23 69.01v39.00" stroke="currentColor" fill="none"/>
<use x="368.93" y="90.01" xlink:href="#hl"/>
<use x="368.93" y="84.01" xlink:href="#hl"/>
<use x="368.93" y="78.01" xlink:href="#hl"/>
<use x="368.93" y="72.01" xlink:href="#hl"/>
<use x="368.93" y="69.01" xlink:href="#hd"/>
<path d="M365.43 69.01v39.00" stroke="currentColor" fill="none"/>
<path fill="currentColor"
	d="M365.43 108.01c0.6 -5.6 9.6 -9 5.6 -18.4
	c1.6 6 -1.3 11.6 -5.6 12.8
"/>
<use x="382.43" y="90.01" xlink:href="#hl"/>
<use x="382.43" y="84.01" xlink:href="#hl"/>
<use x="382.43" y="78.01" xlink:href="#hl"/>
<use x="382.43" y="75.01" xlink:href="#hd"/>
<path d="M378.93 75.01v33.00" stroke="currentColor" fill="none"/>
<path fill="currentColor"
	d="M378.93 108.01c0.6 -5.6 9.6 -9 5.6 -18.4
	c1.6 6 -1.3 11.6 -5.6 12.8
"/>
<use x="396.03" y="90.01" xlink:href="#hl"/>
<use x="396.03" y="84.01" xlink:href="#hl"/>
<use x="396.03" y="78.01" xlink:href="#hl"/>
<use x="396.03" y="78.01" xlink:href="#Hd"/>
<path d="M392.53 78.01v30.00" stroke="currentColor" fill="none"/>
<use x="420.33" y="90.01" xlink:href="#hl"/>
<use x="420.33" y="84.01" xlink:href="#hl"/>
<use x="420.33" y="78.01" xlink:href="#hl"/>
<use x="420.33" y="78.01" xlink:href="#hd"/>
<path d="M416.83 78.01v30.00" stroke="currentColor" fill="none"/>
<use x="447.53" y="90.01" xlink:href="#hl"/>
<use x="447.53" y="84.01" xlink:href="#hl"/>
<use x="447.53" y="78.01" xlink:href="#hl"/>
<use x="447.53" y="75.01" xlink:href="#hd"/>
<path d="M444.03 75.01v33.00" stroke="currentColor" fill="none"/>
<use x="465.53" y="90.01" xlink:href="#hl"/>
<use x="465.53" y="84.01" xlink:href="#hl"/>
<use x="465.53" y="78.01" xlink:href="#hl"/>
<use x="465.53" y="72.01" xlink:href="#hl"/>
<use x="465.53" y="69.01" xlink:href="#Hd"/>
<path d="M462.03 69.01v39.00" stroke="currentColor" fill="none"/>
<use x="489.83" y="90.01" xlink:href="#hl"/>
<use x="489.83" y="84.01" xlink:href="#hl"/>
<use x="489.83" y="78.01" xlink:href="#hl"/>
<use x="489.83" y="75.01" xlink:href="#hd"/>
<path d="M486.33 75.01v33.00" stroke="currentColor" fill="none"/>
<use x="516.93" y="90.01" xlink:href="#hl"/>
<use x="516.93" y="84.01" xlink:href="#hl"/>
<use x="516.93" y="78.01" xlink:href="#hl"/>
<use x="516.93" y="72.01" xlink:href="#hl"/>
<use x="516.93" y="69.01" xlink:href="#hd"/>
<path d="M513.43 69.01v39.00" stroke="currentColor" fill="none"/>
<use x="534.93" y="90.01" xlink:href="#hl"/>
<use x="534.93" y="84.01" xlink:href="#hl"/>
<use x="534.93" y="78.01" xlink:href="#hl"/>
<use x="534.93" y="78.01" xlink:href="#Hd"/>
<path d="M531.43 78.01v30.00" stroke="currentColor" fill="none"/>
<use x="559.23" y="90.01" xlink:href="#hl"/>
<use x="559.23" y="84.01" xlink:href="#hl"/>
<use x="559.23" y="78.01" xlink:href="#hl"/>
<use x="559.23" y="72.01" xlink:href="#hl"/>
<use x="559.23" y="69.01" xlink:href="#hd"/>
<path d="M555.73 69.01v39.00" stroke="currentColor" fill="none"/>
<use x="586.43" y="90.01" xlink:href="#hl"/>
<use x="586.43" y="84.01" xlink:href="#hl"/>
<use x="586.43" y="78.01" xlink:href="#hl"/>
<use x="586.43" y="72.01" xlink:href="#hl"/>
<use x="586.43" y="69.01" xlink:href="#hd"/>
<path d="M582.93 69.01v39.00" stroke="currentColor" fill="none"/>
<use x="604.33" y="90.01" xlink:href="#hl"/>
<use x="604.33" y="84.01" xlink:href="#hl"/>
<use x="604.33" y="78.01" xlink:href="#hl"/>
<use x="604.33" y="72.01" xlink:href="#hl"/>
<use x="604.33" y="66.01" xlink:href="#hl"/>
<use x="604.33" y="63.01" xlink:href="#Hd"/>
<path d="M600.83 63.01v45.00" stroke="currentColor" fill="none"/>
<use x="628.63" y="90.01" xlink:href="#hl"/>
<use x="628.63" y="84.01" xlink:href="#hl"/>
<use x="628.63" y="78.01" xlink:href="#hl"/>
<use x="628.63" y="72.01" xlink:href="#hl"/>
<use x="628.63" y="66.01" xlink:href="#hl"/>
<use x="628.63" y="66.01" xlink:href="#hd"/>
<path d="M625.13 66.01v42.00" stroke="currentColor" fill="none"/>
<use x="655.83" y="90.01" xlink:href="#hl"/>
<use x="655.83" y="84.01" xlink:href="#hl"/>
<use x="655.83" y="78.01" xlink:href="#hl"/>
<use x="655.83" y="72.01" xlink:href="#hl"/>
<use x="655.83" y="66.01" xlink:href="#hl"/>
<use x="655.83" y="63.01" xlink:href="#hd"/>
<path d="M652.33 63.01v45.00" stroke="currentColor" fill="none"/>
<use x="673.83" y="90.01" xlink:href="#hl"/>
<use x="673.83" y="84.01" xlink:href="#hl"/>
<use x="673.83" y="78.01" xlink:href="#hl"/>
<use x="673.83" y="78.01" xlink:href="#Hd"/>
<path d="M670.33 78.01v30.00" stroke="currentColor" fill="none"/>
<path fill="currentColor"
	d="M215.33 120.01c3.09 4.85 16.51 4.85 19.60 -0.00
	l0.00 0.22c-3.68 6.63 -15.93 6.63 -19.60 -0.22"/>
</g>
</svg>
