<?xml version="1.0" standalone="no"?>
<!DOCTYPE svg PUBLIC "-//W3C//DTD SVG 1.1//EN"
	"http://www.w3.org/Graphics/SVG/1.1/DTD/svg11.dtd">
<svg xmlns="http://www.w3.org/2000/svg" version="1.1"
	xmlns:xlink="http://www.w3.org/1999/xlink"
	xml:space='preserve' color="black"
	width="7.38in" height="1.48in" viewBox="0 0 531 107">
<title>7443.abc (7443) tune 1</title>
<!-- Creator: abcm2ps-7.8.14 -->
<!-- CreationDate: Mar 13, 2016 18:54 -->
<!-- CommandLine: -qxg 7443.abc -O ../svgs/7443.svg -->
<g transform="scale(0.750)" stroke-width="0.70" font-family="Times" font-size="20.00">
<text x="354.13" y="21.67" text-anchor="middle">7443.  The River, 1st. Mvt. - The Old South, 3rd. Theme</text>
</g>
<g transform="scale(0.750)" stroke-width="0.70" font-family="Times" font-size="14.00" font-style="italic">
<text x="694.93" y="45.34" text-anchor="end">Virgil Thomson</text>
</g>
<g transform="scale(0.525)" stroke-width="0.70" font-family="Times" font-size="14.00" font-style="italic">
<defs>
<ellipse id="hd" rx="4.1" ry="2.9"
	transform="rotate(-20)" fill="currentColor"/>
</defs>
<use x="107.04" y="94.16" xlink:href="#hd"/>
<path d="M110.54 94.16v-20.00" stroke="currentColor" fill="none"/>
</g>
<g transform="scale(0.750)" stroke-width="0.70" font-family="Times" font-size="15.00" font-weight="bold">
<text x="82.63" y="68.01">= 120</text>
<path stroke="currentColor" fill="none"
	d="M141.33 119.01v-24.00"/>
<path stroke="currentColor" fill="none"
	d="M231.43 119.01v-24.00"/>
<path stroke="currentColor" fill="none"
	d="M311.23 119.01v-24.00"/>
<path stroke="currentColor" fill="none"
	d="M401.73 119.01v-24.00"/>
<path stroke="currentColor" fill="none"
	d="M491.83 119.01v-24.00"/>
<path stroke="currentColor" fill="none"
	d="M571.13 119.01v-24.00"/>
<path stroke="currentColor" fill="none"
	d="M650.43 119.01v-24.00"/>
<path stroke="currentColor" fill="none"
	d="M694.93 119.01v-24.00"/>
<path stroke="currentColor" fill="none"
	d="M13.33 119.01h681.60m-681.60 -6h681.60m-681.60 -6h681.60m-681.60 -6h681.60m-681.60 -6h681.60"/>
<defs>
<path id="utclef" fill="currentColor" d="m-50 -90
	c-72 -41 -72 -158 52 -188
	c150 -10 220 188 90 256
	c-114 52 -275 0 -293 -136
	c-15 -181 93 -229 220 -334
	c88 -87 79 -133 62 -210
	c-51 33 -94 105 -89 186
	c17 267 36 374 49 574
	c6 96 -19 134 -77 135
	c-80 1 -126 -93 -61 -133
	c85 -41 133 101 31 105
	c23 17 92 37 90 -92
	c-10 -223 -39 -342 -50 -617
	c0 -90 0 -162 96 -232
	c56 72 63 230 22 289
	c-74 106 -257 168 -255 316
	c9 153 148 185 252 133
	c86 -65 29 -192 -80 -176
	c-71 12 -105 67 -59 124"/>
<use id="tclef" transform="scale(0.045)"
	xlink:href="#utclef"/>
</defs>
<use x="25.33" y="119.01" xlink:href="#tclef"/>
<defs>
<path id="uflat" fill="currentColor" d="
	m100 -746
	h32
	v734
	l-32 4
	m32 -332
	c46 -72 152 -90 208 -20
	c100 110 -120 326 -208 348
	m0 -28
	c54 0 200 -206 130 -290
	c-50 -60 -130 -4 -130 34"/>
<use id="ft0" transform="translate(-3.5,3.5) scale(0.018)"
	xlink:href="#uflat"/>
</defs>
<use x="40.33" y="107.01" xlink:href="#ft0"/>
<g font-family="serif" font-size="16" font-weight="bold" font-style="normal"
	transform="translate(56.33,119.01) scale(1.2,1)">
	<text y="-1" text-anchor="middle">4</text>
	<text y="-13" text-anchor="middle">3</text>
</g>
<use x="74.33" y="95.01" xlink:href="#hd"/>
<path d="M70.83 95.01v20.00" stroke="currentColor" fill="none"/>
<defs>
<path id="hl" stroke="currentColor" d="m-6 0h12"/>
</defs>
<use x="98.13" y="89.01" xlink:href="#hl"/>
<use x="98.13" y="89.01" xlink:href="#hd"/>
<path d="M94.63 89.01v20.00" stroke="currentColor" fill="none"/>
<use x="122.03" y="89.01" xlink:href="#hl"/>
<use x="122.03" y="83.01" xlink:href="#hl"/>
<use x="122.03" y="83.01" xlink:href="#hd"/>
<path d="M118.53 83.01v24.00" stroke="currentColor" fill="none"/>
<use x="153.83" y="89.01" xlink:href="#hl"/>
<use x="153.83" y="83.01" xlink:href="#hl"/>
<use x="153.83" y="83.01" xlink:href="#hd"/>
<path d="M150.33 83.01v24.00" stroke="currentColor" fill="none"/>
<use x="177.83" y="89.01" xlink:href="#hl"/>
<use x="177.83" y="89.01" xlink:href="#hd"/>
<path d="M174.33 89.01v20.00" stroke="currentColor" fill="none"/>
<path fill="currentColor"
	d="M174.33 109.01c0.6 -5.6 9.6 -9 5.6 -18.4
	c1.6 6 -1.3 11.6 -5.6 12.8
"/>
<use x="195.03" y="92.01" xlink:href="#hd"/>
<path d="M191.53 92.01v20.00" stroke="currentColor" fill="none"/>
<path fill="currentColor"
	d="M191.53 112.01c0.6 -5.6 9.6 -9 5.6 -18.4
	c1.6 6 -1.3 11.6 -5.6 12.8
"/>
<use x="212.13" y="89.01" xlink:href="#hl"/>
<use x="212.13" y="89.01" xlink:href="#hd"/>
<path d="M208.63 89.01v20.00" stroke="currentColor" fill="none"/>
<use x="243.93" y="89.01" xlink:href="#hl"/>
<use x="243.93" y="89.01" xlink:href="#hd"/>
<path d="M240.43 89.01v20.00" stroke="currentColor" fill="none"/>
<use x="267.93" y="89.01" xlink:href="#hl"/>
<use x="267.93" y="83.01" xlink:href="#hl"/>
<use x="267.93" y="83.01" xlink:href="#hd"/>
<path d="M264.43 83.01v24.00" stroke="currentColor" fill="none"/>
<use x="291.83" y="89.01" xlink:href="#hl"/>
<use x="291.83" y="83.01" xlink:href="#hl"/>
<use x="291.83" y="77.01" xlink:href="#hl"/>
<use x="291.83" y="74.01" xlink:href="#hd"/>
<path d="M288.33 74.01v33.00" stroke="currentColor" fill="none"/>
<use x="323.73" y="89.01" xlink:href="#hl"/>
<use x="323.73" y="83.01" xlink:href="#hl"/>
<use x="323.73" y="77.01" xlink:href="#hl"/>
<use x="323.73" y="74.01" xlink:href="#hd"/>
<path d="M320.23 74.01v33.00" stroke="currentColor" fill="none"/>
<use x="347.63" y="89.01" xlink:href="#hl"/>
<use x="347.63" y="83.01" xlink:href="#hl"/>
<use x="347.63" y="80.01" xlink:href="#hd"/>
<path d="M344.13 80.01v27.00" stroke="currentColor" fill="none"/>
<path fill="currentColor"
	d="M344.13 107.01c0.6 -5.6 9.6 -9 5.6 -18.4
	c1.6 6 -1.3 11.6 -5.6 12.8
"/>
<use x="365.03" y="89.01" xlink:href="#hl"/>
<use x="365.03" y="83.01" xlink:href="#hl"/>
<use x="365.03" y="83.01" xlink:href="#hd"/>
<path d="M361.53 83.01v24.00" stroke="currentColor" fill="none"/>
<path fill="currentColor"
	d="M361.53 107.01c0.6 -5.6 9.6 -9 5.6 -18.4
	c1.6 6 -1.3 11.6 -5.6 12.8
"/>
<use x="382.43" y="89.01" xlink:href="#hl"/>
<use x="382.43" y="89.01" xlink:href="#hd"/>
<path d="M378.93 89.01v20.00" stroke="currentColor" fill="none"/>
<use x="414.23" y="89.01" xlink:href="#hl"/>
<use x="414.23" y="89.01" xlink:href="#hd"/>
<path d="M410.73 89.01v20.00" stroke="currentColor" fill="none"/>
<use x="437.93" y="95.01" xlink:href="#hd"/>
<path d="M434.43 95.01v20.00" stroke="currentColor" fill="none"/>
<path fill="currentColor"
	d="M434.43 115.01c0.6 -5.6 9.6 -9 5.6 -18.4
	c1.6 6 -1.3 11.6 -5.6 12.8
"/>
<use x="455.13" y="89.01" xlink:href="#hl"/>
<use x="455.13" y="89.01" xlink:href="#hd"/>
<path d="M451.63 89.01v20.00" stroke="currentColor" fill="none"/>
<path fill="currentColor"
	d="M451.63 109.01c0.6 -5.6 9.6 -9 5.6 -18.4
	c1.6 6 -1.3 11.6 -5.6 12.8
"/>
<use x="472.53" y="89.01" xlink:href="#hl"/>
<use x="472.53" y="83.01" xlink:href="#hl"/>
<use x="472.53" y="80.01" xlink:href="#hd"/>
<path d="M469.03 80.01v27.00" stroke="currentColor" fill="none"/>
<use x="504.33" y="89.01" xlink:href="#hl"/>
<use x="504.33" y="83.01" xlink:href="#hl"/>
<use x="504.33" y="80.01" xlink:href="#hd"/>
<path d="M500.83 80.01v27.00" stroke="currentColor" fill="none"/>
<use x="528.03" y="95.01" xlink:href="#hd"/>
<path d="M524.53 95.01v20.00" stroke="currentColor" fill="none"/>
<use x="551.83" y="89.01" xlink:href="#hl"/>
<use x="551.83" y="89.01" xlink:href="#hd"/>
<path d="M548.33 89.01v20.00" stroke="currentColor" fill="none"/>
<use x="583.63" y="89.01" xlink:href="#hl"/>
<use x="583.63" y="89.01" xlink:href="#hd"/>
<path d="M580.13 89.01v20.00" stroke="currentColor" fill="none"/>
<use x="607.43" y="92.01" xlink:href="#hd"/>
<path d="M603.93 92.01v20.00" stroke="currentColor" fill="none"/>
<use x="631.13" y="95.01" xlink:href="#hd"/>
<path d="M627.63 95.01v20.00" stroke="currentColor" fill="none"/>
<defs>
<path id="Hd" fill="currentColor" d="m3 -1.6
	c-1 -1.8 -7 1.4 -6 3.2
	c1 1.8 7 -1.4 6 -3.2
	m0.5 -0.3
	c2 3.8 -5 7.6 -7 3.8
	c-2 -3.8 5 -7.6 7 -3.8"/>
</defs>
<use x="663.43" y="95.01" xlink:href="#Hd"/>
<circle fill="currentColor" cx="672.43" cy="92.01" r="1.2"/>
<path d="M659.93 95.01v20.00" stroke="currentColor" fill="none"/>
<path fill="currentColor"
	d="M125.53 83.01c3.91 -4.95 20.91 -4.95 24.82 -0.00
	l0.00 -0.22c-4.65 -6.72 -20.16 -6.72 -24.82 0.22"/>
<path fill="currentColor"
	d="M215.63 89.01c3.91 -4.95 20.91 -4.95 24.82 -0.00
	l0.00 -0.22c-4.65 -6.72 -20.16 -6.72 -24.82 0.22"/>
<path fill="currentColor"
	d="M295.33 72.01c3.91 -4.95 20.91 -4.95 24.82 -0.00
	l0.00 -0.22c-4.65 -6.72 -20.16 -6.72 -24.82 0.22"/>
<path fill="currentColor"
	d="M385.93 89.01c3.91 -4.95 20.91 -4.95 24.82 -0.00
	l0.00 -0.22c-4.65 -6.72 -20.16 -6.72 -24.82 0.22"/>
<path fill="currentColor"
	d="M476.03 78.01c3.91 -4.95 20.91 -4.95 24.82 -0.00
	l0.00 -0.22c-4.65 -6.72 -20.16 -6.72 -24.82 0.22"/>
<path fill="currentColor"
	d="M555.33 89.01c3.91 -4.95 20.91 -4.95 24.82 -0.00
	l0.00 -0.22c-4.65 -6.72 -20.16 -6.72 -24.82 0.22"/>
<path fill="currentColor"
	d="M634.63 95.01c3.99 -4.96 21.33 -4.96 25.32 -0.00
	l0.00 -0.23c-4.75 -6.73 -20.57 -6.73 -25.32 0.23"/>
</g>
</svg>
