<?xml version="1.0" standalone="no"?>
<!DOCTYPE svg PUBLIC "-//W3C//DTD SVG 1.1//EN"
	"http://www.w3.org/Graphics/SVG/1.1/DTD/svg11.dtd">
<svg xmlns="http://www.w3.org/2000/svg" version="1.1"
	xmlns:xlink="http://www.w3.org/1999/xlink"
	xml:space='preserve' color="black"
	width="7.38in" height="1.40in" viewBox="0 0 531 101">
<title>7446.abc (7446) tune 1</title>
<!-- Creator: abcm2ps-7.8.14 -->
<!-- CreationDate: Mar 13, 2016 18:54 -->
<!-- CommandLine: -qxg 7446.abc -O ../svgs/7446.svg -->
<g transform="scale(0.750)" stroke-width="0.70" font-family="Times" font-size="20.00">
<text x="354.13" y="21.67" text-anchor="middle">7446.  The River, 2nd. Mvt. - 1st. Theme (Hot Time in the Old Town Tonight)</text>
</g>
<g transform="scale(0.750)" stroke-width="0.70" font-family="Times" font-size="14.00" font-style="italic">
<text x="694.93" y="45.34" text-anchor="end">Virgil Thomson</text>
</g>
<g transform="scale(0.525)" stroke-width="0.70" font-family="Times" font-size="14.00" font-style="italic">
<defs>
<ellipse id="hd" rx="4.1" ry="2.9"
	transform="rotate(-20)" fill="currentColor"/>
</defs>
<use x="89.19" y="94.16" xlink:href="#hd"/>
<path d="M92.69 94.16v-20.00" stroke="currentColor" fill="none"/>
</g>
<g transform="scale(0.750)" stroke-width="0.70" font-family="Times" font-size="15.00" font-weight="bold">
<text x="70.13" y="68.01">= 120</text>
<path stroke="currentColor" fill="none"
	d="M206.13 111.01v-24.00"/>
<path stroke="currentColor" fill="none"
	d="M386.43 111.01v-24.00"/>
<path stroke="currentColor" fill="none"
	d="M543.63 111.01v-24.00"/>
<path stroke="currentColor" fill="none"
	d="M13.33 111.01h681.60m-681.60 -6h681.60m-681.60 -6h681.60m-681.60 -6h681.60m-681.60 -6h681.60"/>
<defs>
<path id="utclef" fill="currentColor" d="m-50 -90
	c-72 -41 -72 -158 52 -188
	c150 -10 220 188 90 256
	c-114 52 -275 0 -293 -136
	c-15 -181 93 -229 220 -334
	c88 -87 79 -133 62 -210
	c-51 33 -94 105 -89 186
	c17 267 36 374 49 574
	c6 96 -19 134 -77 135
	c-80 1 -126 -93 -61 -133
	c85 -41 133 101 31 105
	c23 17 92 37 90 -92
	c-10 -223 -39 -342 -50 -617
	c0 -90 0 -162 96 -232
	c56 72 63 230 22 289
	c-74 106 -257 168 -255 316
	c9 153 148 185 252 133
	c86 -65 29 -192 -80 -176
	c-71 12 -105 67 -59 124"/>
<use id="tclef" transform="scale(0.045)"
	xlink:href="#utclef"/>
</defs>
<use x="25.33" y="111.01" xlink:href="#tclef"/>
<g font-family="serif" font-size="16" font-weight="bold" font-style="normal"
	transform="translate(43.83,111.01) scale(1.2,1)">
	<text y="-1" text-anchor="middle">4</text>
	<text y="-13" text-anchor="middle">4</text>
</g>
<defs>
<path id="hl" stroke="currentColor" d="m-6 0h12"/>
</defs>
<use x="61.83" y="81.01" xlink:href="#hl"/>
<use x="61.83" y="78.01" xlink:href="#hd"/>
<path d="M58.33 78.01v21.00" stroke="currentColor" fill="none"/>
<use x="97.93" y="81.01" xlink:href="#hl"/>
<use x="97.93" y="78.01" xlink:href="#hd"/>
<path d="M94.43 78.01v21.00" stroke="currentColor" fill="none"/>
<use x="134.03" y="81.01" xlink:href="#hl"/>
<use x="134.03" y="78.01" xlink:href="#hd"/>
<circle fill="currentColor" cx="142.03" cy="78.01" r="1.2"/>
<path d="M130.53 78.01v21.00" stroke="currentColor" fill="none"/>
<path fill="currentColor"
	d="M171.43 101.01l17.00 0.00v-3.20l-17.00 -0.00"/>
<path fill="currentColor"
	d="M171.73 96.01l16.30 0.00v-3.20l-16.30 -0.00"/>
<use x="175.23" y="81.01" xlink:href="#hl"/>
<use x="175.23" y="78.01" xlink:href="#hd"/>
<path d="M171.73 78.01v22.00" stroke="currentColor" fill="none"/>
<use x="191.63" y="81.01" xlink:href="#hl"/>
<use x="191.63" y="78.01" xlink:href="#hd"/>
<path d="M188.13 78.01v22.00" stroke="currentColor" fill="none"/>
<use x="219.03" y="81.01" xlink:href="#hl"/>
<use x="219.03" y="75.01" xlink:href="#hl"/>
<use x="219.03" y="75.01" xlink:href="#hd"/>
<path d="M215.53 75.01v24.00" stroke="currentColor" fill="none"/>
<path fill="currentColor"
	d="M215.53 99.01c0.6 -5.6 9.6 -9 5.6 -18.4
	c1.6 6 -1.3 11.6 -5.6 12.8
"/>
<use x="244.53" y="81.01" xlink:href="#hl"/>
<use x="244.53" y="78.01" xlink:href="#hd"/>
<path d="M241.03 78.01v21.00" stroke="currentColor" fill="none"/>
<path fill="currentColor"
	d="M241.03 99.01c0.6 -5.6 9.6 -9 5.6 -18.4
	c1.6 6 -1.3 11.6 -5.6 12.8
"/>
<use x="270.23" y="81.01" xlink:href="#hl"/>
<use x="270.23" y="81.01" xlink:href="#hd"/>
<defs>
<path id="usharp" fill="currentColor" d="
	m136 -702
	v890
	h32
	v-890
	m128 840
	h32
	v-888
	h-32
	m-232 286
	v116
	l338 -96
	v-116
	m-338 442
	v116
	l338 -98
	v-114"/>
<use id="sh0" transform="translate(-4,5) scale(0.018)"
	xlink:href="#usharp"/>
</defs>
<use x="261.23" y="81.01" xlink:href="#sh0"/>
<path d="M266.73 81.01v20.00" stroke="currentColor" fill="none"/>
<path fill="currentColor"
	d="M266.73 101.01c0.6 -5.6 9.6 -9 5.6 -18.4
	c1.6 6 -1.3 11.6 -5.6 12.8
"/>
<use x="295.83" y="81.01" xlink:href="#hl"/>
<use x="295.83" y="78.01" xlink:href="#hd"/>
<path d="M292.33 78.01v21.00" stroke="currentColor" fill="none"/>
<path fill="currentColor"
	d="M292.33 99.01c0.6 -5.6 9.6 -9 5.6 -18.4
	c1.6 6 -1.3 11.6 -5.6 12.8
"/>
<use x="321.43" y="84.01" xlink:href="#hd"/>
<path d="M317.93 84.01v20.00" stroke="currentColor" fill="none"/>
<defs>
<path id="r4" fill="currentColor" d="m-1 -8.5
	l3.6 5.1 -2.1 5.2 2.2 4.3
	c-2.6 -2.3 -5.1 0 -2.4 2.6
	c-4.8 -3 -1.5 -6.9 1.4 -4.1
	l-3.1 -4.5 1.9 -5.1 -1.5 -3.5"/>
</defs>
<use x="357.53" y="99.01" xlink:href="#r4"/>
<use x="399.33" y="81.01" xlink:href="#hl"/>
<use x="399.33" y="75.01" xlink:href="#hl"/>
<use x="399.33" y="72.01" xlink:href="#hd"/>
<path d="M395.83 72.01v27.00" stroke="currentColor" fill="none"/>
<use x="435.43" y="81.01" xlink:href="#hl"/>
<use x="435.43" y="75.01" xlink:href="#hl"/>
<use x="435.43" y="72.01" xlink:href="#hd"/>
<path d="M431.93 72.01v27.00" stroke="currentColor" fill="none"/>
<use x="471.53" y="81.01" xlink:href="#hl"/>
<use x="471.53" y="75.01" xlink:href="#hl"/>
<use x="471.53" y="72.01" xlink:href="#hd"/>
<circle fill="currentColor" cx="479.53" cy="72.01" r="1.2"/>
<path d="M468.03 72.01v27.00" stroke="currentColor" fill="none"/>
<path fill="currentColor"
	d="M508.93 99.21l17.00 0.00v-3.20l-17.00 -0.00"/>
<path fill="currentColor"
	d="M509.23 94.21l16.30 0.00v-3.20l-16.30 -0.00"/>
<use x="512.73" y="81.01" xlink:href="#hl"/>
<use x="512.73" y="75.01" xlink:href="#hl"/>
<use x="512.73" y="72.01" xlink:href="#hd"/>
<path d="M509.23 72.01v26.20" stroke="currentColor" fill="none"/>
<use x="529.03" y="81.01" xlink:href="#hl"/>
<use x="529.03" y="75.01" xlink:href="#hl"/>
<use x="529.03" y="72.01" xlink:href="#hd"/>
<path d="M525.53 72.01v26.20" stroke="currentColor" fill="none"/>
<use x="556.43" y="81.01" xlink:href="#hl"/>
<use x="556.43" y="75.01" xlink:href="#hl"/>
<use x="556.43" y="69.01" xlink:href="#hl"/>
<use x="556.43" y="69.01" xlink:href="#hd"/>
<path d="M552.93 69.01v30.00" stroke="currentColor" fill="none"/>
<path fill="currentColor"
	d="M552.93 99.01c0.6 -5.6 9.6 -9 5.6 -18.4
	c1.6 6 -1.3 11.6 -5.6 12.8
"/>
<use x="582.03" y="81.01" xlink:href="#hl"/>
<use x="582.03" y="75.01" xlink:href="#hl"/>
<use x="582.03" y="72.01" xlink:href="#hd"/>
<path d="M578.53 72.01v27.00" stroke="currentColor" fill="none"/>
<path fill="currentColor"
	d="M578.53 99.01c0.6 -5.6 9.6 -9 5.6 -18.4
	c1.6 6 -1.3 11.6 -5.6 12.8
"/>
<use x="607.73" y="81.01" xlink:href="#hl"/>
<use x="607.73" y="75.01" xlink:href="#hl"/>
<use x="607.73" y="75.01" xlink:href="#hd"/>
<use x="598.73" y="75.01" xlink:href="#sh0"/>
<path d="M604.23 75.01v24.00" stroke="currentColor" fill="none"/>
<path fill="currentColor"
	d="M604.23 99.01c0.6 -5.6 9.6 -9 5.6 -18.4
	c1.6 6 -1.3 11.6 -5.6 12.8
"/>
<use x="633.33" y="81.01" xlink:href="#hl"/>
<use x="633.33" y="75.01" xlink:href="#hl"/>
<use x="633.33" y="72.01" xlink:href="#hd"/>
<path d="M629.83 72.01v27.00" stroke="currentColor" fill="none"/>
<path fill="currentColor"
	d="M629.83 99.01c0.6 -5.6 9.6 -9 5.6 -18.4
	c1.6 6 -1.3 11.6 -5.6 12.8
"/>
<use x="658.93" y="81.01" xlink:href="#hl"/>
<use x="658.93" y="78.01" xlink:href="#hd"/>
<path d="M655.43 78.01v21.00" stroke="currentColor" fill="none"/>
</g>
</svg>
