<?xml version="1.0" standalone="no"?>
<!DOCTYPE svg PUBLIC "-//W3C//DTD SVG 1.1//EN"
	"http://www.w3.org/Graphics/SVG/1.1/DTD/svg11.dtd">
<svg xmlns="http://www.w3.org/2000/svg" version="1.1"
	xmlns:xlink="http://www.w3.org/1999/xlink"
	xml:space='preserve' color="black"
	width="7.38in" height="1.34in" viewBox="0 0 531 97">
<title>7447.abc (7447) tune 1</title>
<!-- Creator: abcm2ps-7.8.14 -->
<!-- CreationDate: Mar 13, 2016 18:54 -->
<!-- CommandLine: -qxg 7447.abc -O ../svgs/7447.svg -->
<g transform="scale(0.750)" stroke-width="0.70" font-family="Times" font-size="20.00">
<text x="354.13" y="21.67" text-anchor="middle">7447.  The River, 2nd. Mvt. - 2nd. Theme (Oh, My Name is Samuel Hall)</text>
</g>
<g transform="scale(0.750)" stroke-width="0.70" font-family="Times" font-size="14.00" font-style="italic">
<text x="694.93" y="45.34" text-anchor="end">Virgil Thomson</text>
</g>
<g transform="scale(0.525)" stroke-width="0.70" font-family="Times" font-size="14.00" font-style="italic">
<defs>
<ellipse id="hd" rx="4.1" ry="2.9"
	transform="rotate(-20)" fill="currentColor"/>
</defs>
<use x="107.04" y="94.16" xlink:href="#hd"/>
<path d="M110.54 94.16v-20.00" stroke="currentColor" fill="none"/>
</g>
<g transform="scale(0.750)" stroke-width="0.70" font-family="Times" font-size="15.00" font-weight="bold">
<text x="82.63" y="68.01">= 120</text>
<path stroke="currentColor" fill="none"
	d="M238.23 106.01v-24.00"/>
<path stroke="currentColor" fill="none"
	d="M386.83 106.01v-24.00"/>
<path stroke="currentColor" fill="none"
	d="M563.33 106.01v-24.00"/>
<path stroke="currentColor" fill="none"
	d="M13.33 106.01h681.60m-681.60 -6h681.60m-681.60 -6h681.60m-681.60 -6h681.60m-681.60 -6h681.60"/>
<defs>
<path id="utclef" fill="currentColor" d="m-50 -90
	c-72 -41 -72 -158 52 -188
	c150 -10 220 188 90 256
	c-114 52 -275 0 -293 -136
	c-15 -181 93 -229 220 -334
	c88 -87 79 -133 62 -210
	c-51 33 -94 105 -89 186
	c17 267 36 374 49 574
	c6 96 -19 134 -77 135
	c-80 1 -126 -93 -61 -133
	c85 -41 133 101 31 105
	c23 17 92 37 90 -92
	c-10 -223 -39 -342 -50 -617
	c0 -90 0 -162 96 -232
	c56 72 63 230 22 289
	c-74 106 -257 168 -255 316
	c9 153 148 185 252 133
	c86 -65 29 -192 -80 -176
	c-71 12 -105 67 -59 124"/>
<use id="tclef" transform="scale(0.045)"
	xlink:href="#utclef"/>
</defs>
<use x="25.33" y="106.01" xlink:href="#tclef"/>
<defs>
<path id="usharp" fill="currentColor" d="
	m136 -702
	v890
	h32
	v-890
	m128 840
	h32
	v-888
	h-32
	m-232 286
	v116
	l338 -96
	v-116
	m-338 442
	v116
	l338 -98
	v-114"/>
<use id="sh0" transform="translate(-4,5) scale(0.018)"
	xlink:href="#usharp"/>
</defs>
<use x="40.33" y="82.01" xlink:href="#sh0"/>
<g font-family="serif" font-size="16" font-weight="bold" font-style="normal"
	transform="translate(56.33,106.01) scale(1.2,1)">
	<text y="-1" text-anchor="middle">4</text>
	<text y="-13" text-anchor="middle">4</text>
</g>
<path fill="currentColor"
	d="M70.53 108.01l25.30 0.00v-3.20l-25.30 -0.00"/>
<path fill="currentColor"
	d="M89.43 103.01l6.00 0.00v-3.20l-6.00 -0.00"/>
<use x="74.33" y="88.01" xlink:href="#hd"/>
<circle fill="currentColor" cx="82.33" cy="85.01" r="1.2"/>
<path d="M70.83 88.01v19.00" stroke="currentColor" fill="none"/>
<use x="98.93" y="88.01" xlink:href="#hd"/>
<path d="M95.43 88.01v19.00" stroke="currentColor" fill="none"/>
<use x="115.93" y="79.01" xlink:href="#hd"/>
<path d="M112.43 79.01v20.00" stroke="currentColor" fill="none"/>
<path fill="currentColor"
	d="M112.43 99.01c0.6 -5.6 9.6 -9 5.6 -18.4
	c1.6 6 -1.3 11.6 -5.6 12.8
"/>
<use x="139.73" y="79.01" xlink:href="#hd"/>
<path d="M136.23 79.01v20.00" stroke="currentColor" fill="none"/>
<path fill="currentColor"
	d="M136.23 99.01c0.6 -5.6 9.6 -9 5.6 -18.4
	c1.6 6 -1.3 11.6 -5.6 12.8
"/>
<use x="163.63" y="79.01" xlink:href="#hd"/>
<path d="M160.13 79.01v20.00" stroke="currentColor" fill="none"/>
<path fill="currentColor"
	d="M160.13 99.01c0.6 -5.6 9.6 -9 5.6 -18.4
	c1.6 6 -1.3 11.6 -5.6 12.8
"/>
<use x="187.43" y="79.01" xlink:href="#hd"/>
<path d="M183.93 79.01v20.00" stroke="currentColor" fill="none"/>
<path fill="currentColor"
	d="M183.93 99.01c0.6 -5.6 9.6 -9 5.6 -18.4
	c1.6 6 -1.3 11.6 -5.6 12.8
"/>
<use x="211.23" y="79.01" xlink:href="#hd"/>
<path d="M207.73 79.01v20.00" stroke="currentColor" fill="none"/>
<use x="250.73" y="82.01" xlink:href="#hd"/>
<path d="M247.23 82.01v20.00" stroke="currentColor" fill="none"/>
<path fill="currentColor"
	d="M247.23 102.01c0.6 -5.6 9.6 -9 5.6 -18.4
	c1.6 6 -1.3 11.6 -5.6 12.8
"/>
<use x="274.53" y="79.01" xlink:href="#hd"/>
<path d="M271.03 79.01v20.00" stroke="currentColor" fill="none"/>
<path fill="currentColor"
	d="M271.03 99.01c0.6 -5.6 9.6 -9 5.6 -18.4
	c1.6 6 -1.3 11.6 -5.6 12.8
"/>
<defs>
<path id="hl" stroke="currentColor" d="m-6 0h12"/>
</defs>
<use x="298.43" y="76.01" xlink:href="#hl"/>
<defs>
<path id="Hd" fill="currentColor" d="m3 -1.6
	c-1 -1.8 -7 1.4 -6 3.2
	c1 1.8 7 -1.4 6 -3.2
	m0.5 -0.3
	c2 3.8 -5 7.6 -7 3.8
	c-2 -3.8 5 -7.6 7 -3.8"/>
</defs>
<use x="298.43" y="76.01" xlink:href="#Hd"/>
<path d="M294.93 76.01v20.00" stroke="currentColor" fill="none"/>
<use x="346.13" y="76.01" xlink:href="#hl"/>
<use x="346.13" y="76.01" xlink:href="#hd"/>
<path d="M342.63 76.01v20.00" stroke="currentColor" fill="none"/>
<path fill="currentColor"
	d="M342.63 96.01c0.6 -5.6 9.6 -9 5.6 -18.4
	c1.6 6 -1.3 11.6 -5.6 12.8
"/>
<defs>
<path id="r8e" fill="currentColor" d="m 0 0
	c-1.5 1.5 -2.4 2 -3.6 2
	c2.4 -2.8 -2.8 -4 -2.8 -1.2
	c0 2.7 4.3 2.4 5.9 0.6"/>
<g id="r8">
	<path d="m3.3 -4l-3.4 9.6" stroke="currentColor" fill="none"/>
	<use x="3.4" y="-4" xlink:href="#r8e"/>
</g>
</defs>
<use x="367.63" y="94.01" xlink:href="#r8"/>
<path fill="currentColor"
	d="M395.43 108.01l25.30 0.00v-3.20l-25.30 -0.00"/>
<path fill="currentColor"
	d="M414.43 103.01l6.00 0.00v-3.20l-6.00 -0.00"/>
<use x="399.33" y="88.01" xlink:href="#hd"/>
<circle fill="currentColor" cx="407.33" cy="85.01" r="1.2"/>
<path d="M395.83 88.01v19.00" stroke="currentColor" fill="none"/>
<use x="423.93" y="88.01" xlink:href="#hd"/>
<path d="M420.43 88.01v19.00" stroke="currentColor" fill="none"/>
<use x="440.83" y="76.01" xlink:href="#hl"/>
<use x="440.83" y="76.01" xlink:href="#hd"/>
<path d="M437.33 76.01v20.00" stroke="currentColor" fill="none"/>
<path fill="currentColor"
	d="M437.33 96.01c0.6 -5.6 9.6 -9 5.6 -18.4
	c1.6 6 -1.3 11.6 -5.6 12.8
"/>
<use x="464.73" y="76.01" xlink:href="#hl"/>
<use x="464.73" y="76.01" xlink:href="#hd"/>
<path d="M461.23 76.01v20.00" stroke="currentColor" fill="none"/>
<path fill="currentColor"
	d="M461.23 96.01c0.6 -5.6 9.6 -9 5.6 -18.4
	c1.6 6 -1.3 11.6 -5.6 12.8
"/>
<use x="488.63" y="76.01" xlink:href="#hl"/>
<use x="488.63" y="76.01" xlink:href="#hd"/>
<path d="M485.13 76.01v20.00" stroke="currentColor" fill="none"/>
<path fill="currentColor"
	d="M485.13 96.01c0.6 -5.6 9.6 -9 5.6 -18.4
	c1.6 6 -1.3 11.6 -5.6 12.8
"/>
<use x="512.53" y="76.01" xlink:href="#hl"/>
<use x="512.53" y="76.01" xlink:href="#hd"/>
<path d="M509.03 76.01v20.00" stroke="currentColor" fill="none"/>
<path fill="currentColor"
	d="M509.03 96.01c0.6 -5.6 9.6 -9 5.6 -18.4
	c1.6 6 -1.3 11.6 -5.6 12.8
"/>
<use x="536.43" y="76.01" xlink:href="#hl"/>
<use x="536.43" y="76.01" xlink:href="#hd"/>
<path d="M532.93 76.01v20.00" stroke="currentColor" fill="none"/>
<use x="575.83" y="79.01" xlink:href="#hd"/>
<path d="M572.33 79.01v20.00" stroke="currentColor" fill="none"/>
<path fill="currentColor"
	d="M572.33 99.01c0.6 -5.6 9.6 -9 5.6 -18.4
	c1.6 6 -1.3 11.6 -5.6 12.8
"/>
<use x="599.73" y="76.01" xlink:href="#hl"/>
<use x="599.73" y="76.01" xlink:href="#hd"/>
<path d="M596.23 76.01v20.00" stroke="currentColor" fill="none"/>
<path fill="currentColor"
	d="M596.23 96.01c0.6 -5.6 9.6 -9 5.6 -18.4
	c1.6 6 -1.3 11.6 -5.6 12.8
"/>
<use x="623.63" y="76.01" xlink:href="#hl"/>
<use x="623.63" y="73.01" xlink:href="#Hd"/>
<path d="M620.13 73.01v21.00" stroke="currentColor" fill="none"/>
<use x="671.33" y="76.01" xlink:href="#hl"/>
<use x="671.33" y="73.01" xlink:href="#hd"/>
<path d="M667.83 73.01v21.00" stroke="currentColor" fill="none"/>
<path fill="currentColor"
	d="M667.83 94.01c0.6 -5.6 9.6 -9 5.6 -18.4
	c1.6 6 -1.3 11.6 -5.6 12.8
"/>
<path fill="currentColor"
	d="M301.93 76.01c6.40 -5.23 34.33 -5.23 40.73 -0.00
	l0.00 -0.24c-7.62 -6.99 -33.10 -6.99 -40.73 0.24"/>
<path fill="currentColor"
	d="M627.13 71.01c6.40 -5.23 34.33 -5.23 40.73 -0.00
	l0.00 -0.24c-7.62 -6.99 -33.10 -6.99 -40.73 0.24"/>
</g>
</svg>
