<?xml version="1.0" standalone="no"?>
<!DOCTYPE svg PUBLIC "-//W3C//DTD SVG 1.1//EN"
	"http://www.w3.org/Graphics/SVG/1.1/DTD/svg11.dtd">
<svg xmlns="http://www.w3.org/2000/svg" version="1.1"
	xmlns:xlink="http://www.w3.org/1999/xlink"
	xml:space='preserve' color="black"
	width="7.38in" height="1.55in" viewBox="0 0 531 112">
<title>7473.abc (7473) tune 1</title>
<!-- Creator: abcm2ps-7.8.14 -->
<!-- CreationDate: Mar 13, 2016 18:54 -->
<!-- CommandLine: -qxg 7473.abc -O ../svgs/7473.svg -->
<g transform="scale(0.750)" stroke-width="0.70" font-family="Times" font-size="20.00">
<text x="354.13" y="21.67" text-anchor="middle">7473.  Concerto No. 2, in G, Op. 44, 1st. Mvt. - 1st. Theme</text>
</g>
<g transform="scale(0.750)" stroke-width="0.70" font-family="Times" font-size="14.00" font-style="italic">
<text x="694.93" y="45.34" text-anchor="end">Peter Ilyich Tschaikovsky</text>
</g>
<g transform="scale(0.525)" stroke-width="0.70" font-family="Times" font-size="14.00" font-style="italic">
<defs>
<ellipse id="hd" rx="4.1" ry="2.9"
	transform="rotate(-20)" fill="currentColor"/>
</defs>
<use x="107.04" y="94.16" xlink:href="#hd"/>
<path d="M110.54 94.16v-20.00" stroke="currentColor" fill="none"/>
</g>
<g transform="scale(0.750)" stroke-width="0.70" font-family="Times" font-size="15.00" font-weight="bold">
<text x="82.63" y="68.01">= 120</text>
<path stroke="currentColor" fill="none"
	d="M214.03 126.01v-24.00"/>
<path stroke="currentColor" fill="none"
	d="M377.63 126.01v-24.00"/>
<path stroke="currentColor" fill="none"
	d="M541.23 126.01v-24.00"/>
<path stroke="currentColor" fill="none"
	d="M694.93 126.01v-24.00"/>
<path stroke="currentColor" fill="none"
	d="M13.33 126.01h681.60m-681.60 -6h681.60m-681.60 -6h681.60m-681.60 -6h681.60m-681.60 -6h681.60"/>
<defs>
<path id="utclef" fill="currentColor" d="m-50 -90
	c-72 -41 -72 -158 52 -188
	c150 -10 220 188 90 256
	c-114 52 -275 0 -293 -136
	c-15 -181 93 -229 220 -334
	c88 -87 79 -133 62 -210
	c-51 33 -94 105 -89 186
	c17 267 36 374 49 574
	c6 96 -19 134 -77 135
	c-80 1 -126 -93 -61 -133
	c85 -41 133 101 31 105
	c23 17 92 37 90 -92
	c-10 -223 -39 -342 -50 -617
	c0 -90 0 -162 96 -232
	c56 72 63 230 22 289
	c-74 106 -257 168 -255 316
	c9 153 148 185 252 133
	c86 -65 29 -192 -80 -176
	c-71 12 -105 67 -59 124"/>
<use id="tclef" transform="scale(0.045)"
	xlink:href="#utclef"/>
</defs>
<use x="25.33" y="126.01" xlink:href="#tclef"/>
<defs>
<path id="usharp" fill="currentColor" d="
	m136 -702
	v890
	h32
	v-890
	m128 840
	h32
	v-888
	h-32
	m-232 286
	v116
	l338 -96
	v-116
	m-338 442
	v116
	l338 -98
	v-114"/>
<use id="sh0" transform="translate(-4,5) scale(0.018)"
	xlink:href="#usharp"/>
</defs>
<use x="40.33" y="102.01" xlink:href="#sh0"/>
<g font-family="serif" font-size="16" font-weight="bold" font-style="normal"
	transform="translate(56.33,126.01) scale(1.2,1)">
	<text y="-1" text-anchor="middle">4</text>
	<text y="-13" text-anchor="middle">4</text>
</g>
<defs>
<path id="hl" stroke="currentColor" d="m-6 0h12"/>
</defs>
<use x="74.33" y="96.01" xlink:href="#hl"/>
<use x="74.33" y="90.01" xlink:href="#hl"/>
<use x="74.33" y="84.01" xlink:href="#hl"/>
<use x="74.33" y="78.01" xlink:href="#hl"/>
<use x="74.33" y="78.01" xlink:href="#hd"/>
<path d="M70.83 78.01v36.00" stroke="currentColor" fill="none"/>
<use x="113.73" y="96.01" xlink:href="#hl"/>
<use x="113.73" y="90.01" xlink:href="#hl"/>
<use x="113.73" y="84.01" xlink:href="#hl"/>
<use x="113.73" y="81.01" xlink:href="#hd"/>
<path d="M110.23 81.01v33.00" stroke="currentColor" fill="none"/>
<path fill="currentColor"
	d="M110.23 114.01c0.6 -5.6 9.6 -9 5.6 -18.4
	c1.6 6 -1.3 11.6 -5.6 12.8
"/>
<use x="141.63" y="96.01" xlink:href="#hl"/>
<use x="141.63" y="90.01" xlink:href="#hl"/>
<use x="141.63" y="84.01" xlink:href="#hl"/>
<use x="141.63" y="84.01" xlink:href="#hd"/>
<path d="M138.13 84.01v30.00" stroke="currentColor" fill="none"/>
<path fill="currentColor"
	d="M138.13 114.01c0.6 -5.6 9.6 -9 5.6 -18.4
	c1.6 6 -1.3 11.6 -5.6 12.8
"/>
<use x="169.43" y="96.01" xlink:href="#hl"/>
<use x="169.43" y="90.01" xlink:href="#hl"/>
<use x="169.43" y="84.01" xlink:href="#hl"/>
<defs>
<path id="Hd" fill="currentColor" d="m3 -1.6
	c-1 -1.8 -7 1.4 -6 3.2
	c1 1.8 7 -1.4 6 -3.2
	m0.5 -0.3
	c2 3.8 -5 7.6 -7 3.8
	c-2 -3.8 5 -7.6 7 -3.8"/>
</defs>
<use x="169.43" y="81.01" xlink:href="#Hd"/>
<path d="M165.93 81.01v33.00" stroke="currentColor" fill="none"/>
<use x="228.03" y="96.01" xlink:href="#hl"/>
<use x="228.03" y="90.01" xlink:href="#hl"/>
<use x="228.03" y="84.01" xlink:href="#hl"/>
<use x="228.03" y="78.01" xlink:href="#hl"/>
<use x="228.03" y="78.01" xlink:href="#hd"/>
<path d="M224.53 78.01v36.00" stroke="currentColor" fill="none"/>
<use x="267.33" y="96.01" xlink:href="#hl"/>
<use x="267.33" y="90.01" xlink:href="#hl"/>
<use x="267.33" y="84.01" xlink:href="#hl"/>
<use x="267.33" y="78.01" xlink:href="#hl"/>
<use x="267.33" y="75.01" xlink:href="#hd"/>
<path d="M263.83 75.01v39.00" stroke="currentColor" fill="none"/>
<use x="306.73" y="108.01" xlink:href="#hd"/>
<path d="M303.23 108.01v20.00" stroke="currentColor" fill="none"/>
<defs>
<path id="r4" fill="currentColor" d="m-1 -8.5
	l3.6 5.1 -2.1 5.2 2.2 4.3
	c-2.6 -2.3 -5.1 0 -2.4 2.6
	c-4.8 -3 -1.5 -6.9 1.4 -4.1
	l-3.1 -4.5 1.9 -5.1 -1.5 -3.5"/>
</defs>
<use x="346.13" y="114.01" xlink:href="#r4"/>
<use x="391.63" y="96.01" xlink:href="#hl"/>
<use x="391.63" y="90.01" xlink:href="#hl"/>
<use x="391.63" y="84.01" xlink:href="#hl"/>
<use x="391.63" y="78.01" xlink:href="#hl"/>
<use x="391.63" y="72.01" xlink:href="#hl"/>
<use x="391.63" y="72.01" xlink:href="#hd"/>
<path d="M388.13 72.01v42.00" stroke="currentColor" fill="none"/>
<use x="431.03" y="96.01" xlink:href="#hl"/>
<use x="431.03" y="90.01" xlink:href="#hl"/>
<use x="431.03" y="84.01" xlink:href="#hl"/>
<use x="431.03" y="78.01" xlink:href="#hl"/>
<use x="431.03" y="72.01" xlink:href="#hl"/>
<use x="431.03" y="69.01" xlink:href="#hd"/>
<path d="M427.53 69.01v45.00" stroke="currentColor" fill="none"/>
<use x="470.33" y="96.01" xlink:href="#hl"/>
<use x="470.33" y="90.01" xlink:href="#hl"/>
<use x="470.33" y="84.01" xlink:href="#hl"/>
<use x="470.33" y="78.01" xlink:href="#hl"/>
<use x="470.33" y="72.01" xlink:href="#hl"/>
<use x="470.33" y="72.01" xlink:href="#hd"/>
<path d="M466.83 72.01v42.00" stroke="currentColor" fill="none"/>
<use x="509.73" y="96.01" xlink:href="#hl"/>
<use x="509.73" y="90.01" xlink:href="#hl"/>
<use x="509.73" y="84.01" xlink:href="#hl"/>
<use x="509.73" y="78.01" xlink:href="#hl"/>
<use x="509.73" y="72.01" xlink:href="#hl"/>
<use x="509.73" y="69.01" xlink:href="#hd"/>
<path d="M506.23 69.01v45.00" stroke="currentColor" fill="none"/>
<use x="555.23" y="96.01" xlink:href="#hl"/>
<use x="555.23" y="90.01" xlink:href="#hl"/>
<use x="555.23" y="84.01" xlink:href="#hl"/>
<use x="555.23" y="78.01" xlink:href="#hl"/>
<use x="555.23" y="72.01" xlink:href="#hl"/>
<use x="555.23" y="66.01" xlink:href="#hl"/>
<use x="555.23" y="66.01" xlink:href="#hd"/>
<path d="M551.73 66.01v48.00" stroke="currentColor" fill="none"/>
<use x="594.63" y="96.01" xlink:href="#hl"/>
<use x="594.63" y="90.01" xlink:href="#hl"/>
<use x="594.63" y="84.01" xlink:href="#hl"/>
<use x="594.63" y="78.01" xlink:href="#hl"/>
<use x="594.63" y="72.01" xlink:href="#hl"/>
<use x="594.63" y="72.01" xlink:href="#hd"/>
<path d="M591.13 72.01v42.00" stroke="currentColor" fill="none"/>
<path fill="currentColor"
	d="M591.13 114.01c0.6 -5.6 9.6 -9 5.6 -18.4
	c1.6 6 -1.3 11.6 -5.6 12.8
"/>
<use x="622.43" y="96.01" xlink:href="#hl"/>
<use x="622.43" y="90.01" xlink:href="#hl"/>
<use x="622.43" y="84.01" xlink:href="#hl"/>
<use x="622.43" y="78.01" xlink:href="#hl"/>
<use x="622.43" y="78.01" xlink:href="#hd"/>
<path d="M618.93 78.01v36.00" stroke="currentColor" fill="none"/>
<path fill="currentColor"
	d="M618.93 114.01c0.6 -5.6 9.6 -9 5.6 -18.4
	c1.6 6 -1.3 11.6 -5.6 12.8
"/>
<use x="650.33" y="96.01" xlink:href="#hl"/>
<use x="650.33" y="90.01" xlink:href="#hl"/>
<use x="650.33" y="84.01" xlink:href="#hl"/>
<use x="650.33" y="78.01" xlink:href="#hl"/>
<use x="650.33" y="75.01" xlink:href="#Hd"/>
<path d="M646.83 75.01v39.00" stroke="currentColor" fill="none"/>
</g>
</svg>
