<?xml version="1.0" standalone="no"?>
<!DOCTYPE svg PUBLIC "-//W3C//DTD SVG 1.1//EN"
	"http://www.w3.org/Graphics/SVG/1.1/DTD/svg11.dtd">
<svg xmlns="http://www.w3.org/2000/svg" version="1.1"
	xmlns:xlink="http://www.w3.org/1999/xlink"
	xml:space='preserve' color="black"
	width="7.38in" height="1.52in" viewBox="0 0 531 110">
<title>7520.abc (7520) tune 1</title>
<!-- Creator: abcm2ps-7.8.14 -->
<!-- CreationDate: Mar 13, 2016 18:54 -->
<!-- CommandLine: -qxg 7520.abc -O ../svgs/7520.svg -->
<g transform="scale(0.750)" stroke-width="0.70" font-family="Times" font-size="20.00">
<text x="354.13" y="21.67" text-anchor="middle">7520.  The Seasons, Autumn Song (October), Op. 37, No. 10, 2nd. Theme</text>
</g>
<g transform="scale(0.750)" stroke-width="0.70" font-family="Times" font-size="14.00" font-style="italic">
<text x="694.93" y="45.34" text-anchor="end">Peter Ilyich Tschaikovsky</text>
</g>
<g transform="scale(0.525)" stroke-width="0.70" font-family="Times" font-size="14.00" font-style="italic">
<defs>
<ellipse id="hd" rx="4.1" ry="2.9"
	transform="rotate(-20)" fill="currentColor"/>
</defs>
<use x="107.04" y="94.16" xlink:href="#hd"/>
<path d="M110.54 94.16v-20.00" stroke="currentColor" fill="none"/>
</g>
<g transform="scale(0.750)" stroke-width="0.70" font-family="Times" font-size="15.00" font-weight="bold">
<text x="82.63" y="68.01">= 120</text>
<path stroke="currentColor" fill="none"
	d="M222.13 123.01v-24.00"/>
<path stroke="currentColor" fill="none"
	d="M446.93 123.01v-24.00"/>
<path stroke="currentColor" fill="none"
	d="M611.13 123.01v-24.00"/>
<path stroke="currentColor" fill="none"
	d="M13.33 123.01h681.60m-681.60 -6h681.60m-681.60 -6h681.60m-681.60 -6h681.60m-681.60 -6h681.60"/>
<defs>
<path id="utclef" fill="currentColor" d="m-50 -90
	c-72 -41 -72 -158 52 -188
	c150 -10 220 188 90 256
	c-114 52 -275 0 -293 -136
	c-15 -181 93 -229 220 -334
	c88 -87 79 -133 62 -210
	c-51 33 -94 105 -89 186
	c17 267 36 374 49 574
	c6 96 -19 134 -77 135
	c-80 1 -126 -93 -61 -133
	c85 -41 133 101 31 105
	c23 17 92 37 90 -92
	c-10 -223 -39 -342 -50 -617
	c0 -90 0 -162 96 -232
	c56 72 63 230 22 289
	c-74 106 -257 168 -255 316
	c9 153 148 185 252 133
	c86 -65 29 -192 -80 -176
	c-71 12 -105 67 -59 124"/>
<use id="tclef" transform="scale(0.045)"
	xlink:href="#utclef"/>
</defs>
<use x="25.33" y="123.01" xlink:href="#tclef"/>
<defs>
<path id="uflat" fill="currentColor" d="
	m100 -746
	h32
	v734
	l-32 4
	m32 -332
	c46 -72 152 -90 208 -20
	c100 110 -120 326 -208 348
	m0 -28
	c54 0 200 -206 130 -290
	c-50 -60 -130 -4 -130 34"/>
<use id="ft0" transform="translate(-3.5,3.5) scale(0.018)"
	xlink:href="#uflat"/>
</defs>
<use x="40.33" y="111.01" xlink:href="#ft0"/>
<g font-family="serif" font-size="16" font-weight="bold" font-style="normal"
	transform="translate(56.33,123.01) scale(1.2,1)">
	<text y="-1" text-anchor="middle">4</text>
	<text y="-13" text-anchor="middle">4</text>
</g>
<defs>
<path id="r4" fill="currentColor" d="m-1 -8.5
	l3.6 5.1 -2.1 5.2 2.2 4.3
	c-2.6 -2.3 -5.1 0 -2.4 2.6
	c-4.8 -3 -1.5 -6.9 1.4 -4.1
	l-3.1 -4.5 1.9 -5.1 -1.5 -3.5"/>
</defs>
<use x="74.33" y="111.01" xlink:href="#r4"/>
<defs>
<path id="hl" stroke="currentColor" d="m-6 0h12"/>
</defs>
<use x="120.33" y="93.01" xlink:href="#hl"/>
<use x="120.33" y="87.01" xlink:href="#hl"/>
<use x="120.33" y="81.01" xlink:href="#hl"/>
<defs>
<path id="Hd" fill="currentColor" d="m3 -1.6
	c-1 -1.8 -7 1.4 -6 3.2
	c1 1.8 7 -1.4 6 -3.2
	m0.5 -0.3
	c2 3.8 -5 7.6 -7 3.8
	c-2 -3.8 5 -7.6 7 -3.8"/>
</defs>
<use x="120.33" y="78.01" xlink:href="#Hd"/>
<path d="M116.83 78.01v33.00" stroke="currentColor" fill="none"/>
<use x="185.43" y="93.01" xlink:href="#hl"/>
<use x="185.43" y="87.01" xlink:href="#hl"/>
<use x="185.43" y="81.01" xlink:href="#hl"/>
<use x="185.43" y="81.01" xlink:href="#hd"/>
<path d="M181.93 81.01v30.00" stroke="currentColor" fill="none"/>
<use x="238.43" y="93.01" xlink:href="#hl"/>
<use x="238.43" y="87.01" xlink:href="#hl"/>
<use x="238.43" y="81.01" xlink:href="#hl"/>
<use x="238.43" y="81.01" xlink:href="#hd"/>
<path d="M234.93 81.01v30.00" stroke="currentColor" fill="none"/>
<path fill="currentColor"
	d="M234.93 111.01c0.6 -5.6 9.6 -9 5.6 -18.4
	c1.6 6 -1.3 11.6 -5.6 12.8
"/>
<use x="271.03" y="93.01" xlink:href="#hl"/>
<use x="271.03" y="87.01" xlink:href="#hl"/>
<use x="271.03" y="84.01" xlink:href="#hd"/>
<path d="M267.53 84.01v27.00" stroke="currentColor" fill="none"/>
<path fill="currentColor"
	d="M267.53 111.01c0.6 -5.6 9.6 -9 5.6 -18.4
	c1.6 6 -1.3 11.6 -5.6 12.8
"/>
<use x="303.53" y="93.01" xlink:href="#hl"/>
<use x="303.53" y="93.01" xlink:href="#hd"/>
<use x="294.53" y="93.01" xlink:href="#ft0"/>
<path d="M300.03 93.01v20.00" stroke="currentColor" fill="none"/>
<path fill="currentColor"
	d="M300.03 113.01c0.6 -5.6 9.6 -9 5.6 -18.4
	c1.6 6 -1.3 11.6 -5.6 12.8
"/>
<use x="336.03" y="93.01" xlink:href="#hl"/>
<use x="336.03" y="93.01" xlink:href="#hd"/>
<defs>
<path id="unat" fill="currentColor" d="
	m96 -750
	h-32
	v716
	l32 -8
	l182 -54
	v282
	h32
	v-706
	l-34 10
	l-180 50
	v-290
	m0 592
	v-190
	l182 -52
	v188"/>
<use id="nt0" transform="translate(-3,5) scale(0.018)"
	xlink:href="#unat"/>
</defs>
<use x="327.03" y="93.01" xlink:href="#nt0"/>
<path d="M332.53 93.01v20.00" stroke="currentColor" fill="none"/>
<path fill="currentColor"
	d="M332.53 113.01c0.6 -5.6 9.6 -9 5.6 -18.4
	c1.6 6 -1.3 11.6 -5.6 12.8
"/>
<use x="368.63" y="93.01" xlink:href="#hl"/>
<use x="368.63" y="87.01" xlink:href="#hl"/>
<use x="368.63" y="84.01" xlink:href="#hd"/>
<circle fill="currentColor" cx="376.63" cy="84.01" r="1.2"/>
<path d="M365.13 84.01v27.00" stroke="currentColor" fill="none"/>
<use x="420.93" y="93.01" xlink:href="#hl"/>
<use x="420.93" y="87.01" xlink:href="#hl"/>
<use x="420.93" y="87.01" xlink:href="#hd"/>
<path d="M417.43 87.01v24.00" stroke="currentColor" fill="none"/>
<path fill="currentColor"
	d="M417.43 111.01c0.6 -5.6 9.6 -9 5.6 -18.4
	c1.6 6 -1.3 11.6 -5.6 12.8
"/>
<use x="463.23" y="93.01" xlink:href="#hl"/>
<use x="463.23" y="90.01" xlink:href="#hd"/>
<path d="M459.73 90.01v21.00" stroke="currentColor" fill="none"/>
<use x="509.23" y="93.01" xlink:href="#hl"/>
<use x="509.23" y="90.01" xlink:href="#Hd"/>
<path d="M505.73 90.01v21.00" stroke="currentColor" fill="none"/>
<use x="574.33" y="96.01" xlink:href="#hd"/>
<use x="565.33" y="96.01" xlink:href="#ft0"/>
<path d="M570.83 96.01v20.00" stroke="currentColor" fill="none"/>
<use x="629.83" y="96.01" xlink:href="#hd"/>
<use x="620.83" y="96.01" xlink:href="#ft0"/>
<path d="M626.33 96.01v20.00" stroke="currentColor" fill="none"/>
<path fill="currentColor"
	d="M626.33 116.01c0.6 -5.6 9.6 -9 5.6 -18.4
	c1.6 6 -1.3 11.6 -5.6 12.8
"/>
<use x="662.43" y="96.01" xlink:href="#hd"/>
<use x="653.43" y="96.01" xlink:href="#nt0"/>
<path d="M658.93 96.01v20.00" stroke="currentColor" fill="none"/>
<path fill="currentColor"
	d="M658.93 116.01c0.6 -5.6 9.6 -9 5.6 -18.4
	c1.6 6 -1.3 11.6 -5.6 12.8
"/>
<path fill="currentColor"
	d="M188.93 81.01c7.13 -5.33 38.93 -5.33 46.06 -0.00
	l0.00 -0.25c-8.51 -7.08 -37.55 -7.08 -46.06 0.25"/>
<path fill="currentColor"
	d="M577.83 94.01c7.46 -5.37 41.10 -5.37 48.56 -0.00
	l0.00 -0.25c-8.92 -7.13 -39.64 -7.13 -48.56 0.25"/>
</g>
</svg>
