<?xml version="1.0" standalone="no"?>
<!DOCTYPE svg PUBLIC "-//W3C//DTD SVG 1.1//EN"
	"http://www.w3.org/Graphics/SVG/1.1/DTD/svg11.dtd">
<svg xmlns="http://www.w3.org/2000/svg" version="1.1"
	xmlns:xlink="http://www.w3.org/1999/xlink"
	xml:space='preserve' color="black"
	width="7.38in" height="1.34in" viewBox="0 0 531 97">
<title>7603.abc (7603) tune 1</title>
<!-- Creator: abcm2ps-7.8.14 -->
<!-- CreationDate: Mar 13, 2016 18:54 -->
<!-- CommandLine: -qxg 7603.abc -O ../svgs/7603.svg -->
<g transform="scale(0.750)" stroke-width="0.70" font-family="Times" font-size="20.00">
<text x="354.13" y="21.67" text-anchor="middle">7603.  Symphony No. 4, in F Minor, Op. 36, 3rd. Mvt. - 1st. Theme A</text>
</g>
<g transform="scale(0.750)" stroke-width="0.70" font-family="Times" font-size="14.00" font-style="italic">
<text x="694.93" y="45.34" text-anchor="end">Peter Ilyich Tschaikovsky</text>
</g>
<g transform="scale(0.525)" stroke-width="0.70" font-family="Times" font-size="14.00" font-style="italic">
<defs>
<ellipse id="hd" rx="4.1" ry="2.9"
	transform="rotate(-20)" fill="currentColor"/>
</defs>
<use x="107.04" y="94.16" xlink:href="#hd"/>
<path d="M110.54 94.16v-20.00" stroke="currentColor" fill="none"/>
</g>
<g transform="scale(0.750)" stroke-width="0.70" font-family="Times" font-size="15.00" font-weight="bold">
<text x="82.63" y="68.01">= 120</text>
<path stroke="currentColor" fill="none"
	d="M140.53 106.01v-24.00"/>
<path stroke="currentColor" fill="none"
	d="M219.23 106.01v-24.00"/>
<path stroke="currentColor" fill="none"
	d="M298.63 106.01v-24.00"/>
<path stroke="currentColor" fill="none"
	d="M378.03 106.01v-24.00"/>
<path stroke="currentColor" fill="none"
	d="M457.43 106.01v-24.00"/>
<path stroke="currentColor" fill="none"
	d="M536.83 106.01v-24.00"/>
<path stroke="currentColor" fill="none"
	d="M616.23 106.01v-24.00"/>
<path stroke="currentColor" fill="none"
	d="M694.93 106.01v-24.00"/>
<path stroke="currentColor" fill="none"
	d="M13.33 106.01h681.60m-681.60 -6h681.60m-681.60 -6h681.60m-681.60 -6h681.60m-681.60 -6h681.60"/>
<defs>
<path id="utclef" fill="currentColor" d="m-50 -90
	c-72 -41 -72 -158 52 -188
	c150 -10 220 188 90 256
	c-114 52 -275 0 -293 -136
	c-15 -181 93 -229 220 -334
	c88 -87 79 -133 62 -210
	c-51 33 -94 105 -89 186
	c17 267 36 374 49 574
	c6 96 -19 134 -77 135
	c-80 1 -126 -93 -61 -133
	c85 -41 133 101 31 105
	c23 17 92 37 90 -92
	c-10 -223 -39 -342 -50 -617
	c0 -90 0 -162 96 -232
	c56 72 63 230 22 289
	c-74 106 -257 168 -255 316
	c9 153 148 185 252 133
	c86 -65 29 -192 -80 -176
	c-71 12 -105 67 -59 124"/>
<use id="tclef" transform="scale(0.045)"
	xlink:href="#utclef"/>
</defs>
<use x="25.33" y="106.01" xlink:href="#tclef"/>
<defs>
<path id="uflat" fill="currentColor" d="
	m100 -746
	h32
	v734
	l-32 4
	m32 -332
	c46 -72 152 -90 208 -20
	c100 110 -120 326 -208 348
	m0 -28
	c54 0 200 -206 130 -290
	c-50 -60 -130 -4 -130 34"/>
<use id="ft0" transform="translate(-3.5,3.5) scale(0.018)"
	xlink:href="#uflat"/>
</defs>
<use x="40.33" y="94.01" xlink:href="#ft0"/>
<g font-family="serif" font-size="16" font-weight="bold" font-style="normal"
	transform="translate(56.33,106.01) scale(1.2,1)">
	<text y="-1" text-anchor="middle">4</text>
	<text y="-13" text-anchor="middle">2</text>
</g>
<use x="74.33" y="82.01" xlink:href="#hd"/>
<path d="M70.83 82.01v20.00" stroke="currentColor" fill="none"/>
<path fill="currentColor"
	d="M70.83 102.01c0.6 -5.6 9.6 -9 5.6 -18.4
	c1.6 6 -1.3 11.6 -5.6 12.8
"/>
<use x="91.63" y="85.01" xlink:href="#hd"/>
<path d="M88.13 85.01v20.00" stroke="currentColor" fill="none"/>
<path fill="currentColor"
	d="M88.13 105.01c0.6 -5.6 9.6 -9 5.6 -18.4
	c1.6 6 -1.3 11.6 -5.6 12.8
"/>
<use x="108.93" y="88.01" xlink:href="#hd"/>
<path d="M105.43 88.01v20.00" stroke="currentColor" fill="none"/>
<path fill="currentColor"
	d="M105.43 108.01c0.6 -5.6 9.6 -9 5.6 -18.4
	c1.6 6 -1.3 11.6 -5.6 12.8
"/>
<use x="126.33" y="91.01" xlink:href="#hd"/>
<path d="M122.83 91.01v20.00" stroke="currentColor" fill="none"/>
<path fill="currentColor"
	d="M122.83 111.01c0.6 -5.6 9.6 -9 5.6 -18.4
	c1.6 6 -1.3 11.6 -5.6 12.8
"/>
<use x="153.03" y="88.01" xlink:href="#hd"/>
<path d="M149.53 88.01v20.00" stroke="currentColor" fill="none"/>
<path fill="currentColor"
	d="M149.53 108.01c0.6 -5.6 9.6 -9 5.6 -18.4
	c1.6 6 -1.3 11.6 -5.6 12.8
"/>
<use x="170.33" y="85.01" xlink:href="#hd"/>
<path d="M166.83 85.01v20.00" stroke="currentColor" fill="none"/>
<path fill="currentColor"
	d="M166.83 105.01c0.6 -5.6 9.6 -9 5.6 -18.4
	c1.6 6 -1.3 11.6 -5.6 12.8
"/>
<use x="187.63" y="82.01" xlink:href="#hd"/>
<path d="M184.13 82.01v20.00" stroke="currentColor" fill="none"/>
<path fill="currentColor"
	d="M184.13 102.01c0.6 -5.6 9.6 -9 5.6 -18.4
	c1.6 6 -1.3 11.6 -5.6 12.8
"/>
<defs>
<path id="hl" stroke="currentColor" d="m-6 0h12"/>
</defs>
<use x="205.03" y="76.01" xlink:href="#hl"/>
<use x="205.03" y="76.01" xlink:href="#hd"/>
<path d="M201.53 76.01v20.00" stroke="currentColor" fill="none"/>
<path fill="currentColor"
	d="M201.53 96.01c0.6 -5.6 9.6 -9 5.6 -18.4
	c1.6 6 -1.3 11.6 -5.6 12.8
"/>
<use x="231.73" y="76.01" xlink:href="#hl"/>
<use x="231.73" y="70.01" xlink:href="#hl"/>
<use x="231.73" y="70.01" xlink:href="#hd"/>
<path d="M228.23 70.01v24.00" stroke="currentColor" fill="none"/>
<path fill="currentColor"
	d="M228.23 94.01c0.6 -5.6 9.6 -9 5.6 -18.4
	c1.6 6 -1.3 11.6 -5.6 12.8
"/>
<use x="249.23" y="76.01" xlink:href="#hl"/>
<use x="249.23" y="70.01" xlink:href="#hl"/>
<use x="249.23" y="70.01" xlink:href="#hd"/>
<path d="M245.73 70.01v24.00" stroke="currentColor" fill="none"/>
<path fill="currentColor"
	d="M245.73 94.01c0.6 -5.6 9.6 -9 5.6 -18.4
	c1.6 6 -1.3 11.6 -5.6 12.8
"/>
<use x="266.83" y="76.01" xlink:href="#hl"/>
<use x="266.83" y="70.01" xlink:href="#hl"/>
<use x="266.83" y="70.01" xlink:href="#hd"/>
<path d="M263.33 70.01v24.00" stroke="currentColor" fill="none"/>
<path fill="currentColor"
	d="M263.33 94.01c0.6 -5.6 9.6 -9 5.6 -18.4
	c1.6 6 -1.3 11.6 -5.6 12.8
"/>
<use x="284.43" y="76.01" xlink:href="#hl"/>
<use x="284.43" y="70.01" xlink:href="#hl"/>
<use x="284.43" y="67.01" xlink:href="#hd"/>
<path d="M280.93 67.01v27.00" stroke="currentColor" fill="none"/>
<path fill="currentColor"
	d="M280.93 94.01c0.6 -5.6 9.6 -9 5.6 -18.4
	c1.6 6 -1.3 11.6 -5.6 12.8
"/>
<use x="311.13" y="76.01" xlink:href="#hl"/>
<use x="311.13" y="70.01" xlink:href="#hl"/>
<use x="311.13" y="70.01" xlink:href="#hd"/>
<path d="M307.63 70.01v24.00" stroke="currentColor" fill="none"/>
<path fill="currentColor"
	d="M307.63 94.01c0.6 -5.6 9.6 -9 5.6 -18.4
	c1.6 6 -1.3 11.6 -5.6 12.8
"/>
<use x="328.63" y="76.01" xlink:href="#hl"/>
<use x="328.63" y="70.01" xlink:href="#hl"/>
<use x="328.63" y="70.01" xlink:href="#hd"/>
<path d="M325.13 70.01v24.00" stroke="currentColor" fill="none"/>
<path fill="currentColor"
	d="M325.13 94.01c0.6 -5.6 9.6 -9 5.6 -18.4
	c1.6 6 -1.3 11.6 -5.6 12.8
"/>
<use x="346.23" y="76.01" xlink:href="#hl"/>
<use x="346.23" y="70.01" xlink:href="#hl"/>
<use x="346.23" y="70.01" xlink:href="#hd"/>
<path d="M342.73 70.01v24.00" stroke="currentColor" fill="none"/>
<path fill="currentColor"
	d="M342.73 94.01c0.6 -5.6 9.6 -9 5.6 -18.4
	c1.6 6 -1.3 11.6 -5.6 12.8
"/>
<use x="363.83" y="76.01" xlink:href="#hl"/>
<use x="363.83" y="70.01" xlink:href="#hl"/>
<use x="363.83" y="67.01" xlink:href="#hd"/>
<path d="M360.33 67.01v27.00" stroke="currentColor" fill="none"/>
<path fill="currentColor"
	d="M360.33 94.01c0.6 -5.6 9.6 -9 5.6 -18.4
	c1.6 6 -1.3 11.6 -5.6 12.8
"/>
<use x="390.53" y="76.01" xlink:href="#hl"/>
<use x="390.53" y="70.01" xlink:href="#hl"/>
<use x="390.53" y="70.01" xlink:href="#hd"/>
<path d="M387.03 70.01v24.00" stroke="currentColor" fill="none"/>
<path fill="currentColor"
	d="M387.03 94.01c0.6 -5.6 9.6 -9 5.6 -18.4
	c1.6 6 -1.3 11.6 -5.6 12.8
"/>
<use x="408.13" y="76.01" xlink:href="#hl"/>
<use x="408.13" y="70.01" xlink:href="#hl"/>
<use x="408.13" y="67.01" xlink:href="#hd"/>
<path d="M404.63 67.01v27.00" stroke="currentColor" fill="none"/>
<path fill="currentColor"
	d="M404.63 94.01c0.6 -5.6 9.6 -9 5.6 -18.4
	c1.6 6 -1.3 11.6 -5.6 12.8
"/>
<use x="425.63" y="76.01" xlink:href="#hl"/>
<use x="425.63" y="70.01" xlink:href="#hl"/>
<use x="425.63" y="70.01" xlink:href="#hd"/>
<path d="M422.13 70.01v24.00" stroke="currentColor" fill="none"/>
<path fill="currentColor"
	d="M422.13 94.01c0.6 -5.6 9.6 -9 5.6 -18.4
	c1.6 6 -1.3 11.6 -5.6 12.8
"/>
<use x="443.23" y="76.01" xlink:href="#hl"/>
<use x="443.23" y="70.01" xlink:href="#hl"/>
<use x="443.23" y="67.01" xlink:href="#hd"/>
<path d="M439.73 67.01v27.00" stroke="currentColor" fill="none"/>
<path fill="currentColor"
	d="M439.73 94.01c0.6 -5.6 9.6 -9 5.6 -18.4
	c1.6 6 -1.3 11.6 -5.6 12.8
"/>
<use x="469.93" y="76.01" xlink:href="#hl"/>
<use x="469.93" y="70.01" xlink:href="#hl"/>
<use x="469.93" y="70.01" xlink:href="#hd"/>
<path d="M466.43 70.01v24.00" stroke="currentColor" fill="none"/>
<path fill="currentColor"
	d="M466.43 94.01c0.6 -5.6 9.6 -9 5.6 -18.4
	c1.6 6 -1.3 11.6 -5.6 12.8
"/>
<use x="487.53" y="76.01" xlink:href="#hl"/>
<use x="487.53" y="70.01" xlink:href="#hl"/>
<use x="487.53" y="67.01" xlink:href="#hd"/>
<path d="M484.03 67.01v27.00" stroke="currentColor" fill="none"/>
<path fill="currentColor"
	d="M484.03 94.01c0.6 -5.6 9.6 -9 5.6 -18.4
	c1.6 6 -1.3 11.6 -5.6 12.8
"/>
<use x="505.03" y="76.01" xlink:href="#hl"/>
<use x="505.03" y="70.01" xlink:href="#hl"/>
<use x="505.03" y="70.01" xlink:href="#hd"/>
<path d="M501.53 70.01v24.00" stroke="currentColor" fill="none"/>
<path fill="currentColor"
	d="M501.53 94.01c0.6 -5.6 9.6 -9 5.6 -18.4
	c1.6 6 -1.3 11.6 -5.6 12.8
"/>
<use x="522.63" y="76.01" xlink:href="#hl"/>
<use x="522.63" y="70.01" xlink:href="#hl"/>
<use x="522.63" y="64.01" xlink:href="#hl"/>
<use x="522.63" y="61.01" xlink:href="#hd"/>
<path d="M519.13 61.01v33.00" stroke="currentColor" fill="none"/>
<path fill="currentColor"
	d="M519.13 94.01c0.6 -5.6 9.6 -9 5.6 -18.4
	c1.6 6 -1.3 11.6 -5.6 12.8
"/>
<use x="549.33" y="76.01" xlink:href="#hl"/>
<use x="549.33" y="70.01" xlink:href="#hl"/>
<use x="549.33" y="64.01" xlink:href="#hl"/>
<use x="549.33" y="64.01" xlink:href="#hd"/>
<path d="M545.83 64.01v30.00" stroke="currentColor" fill="none"/>
<path fill="currentColor"
	d="M545.83 94.01c0.6 -5.6 9.6 -9 5.6 -18.4
	c1.6 6 -1.3 11.6 -5.6 12.8
"/>
<use x="566.93" y="76.01" xlink:href="#hl"/>
<use x="566.93" y="70.01" xlink:href="#hl"/>
<use x="566.93" y="67.01" xlink:href="#hd"/>
<path d="M563.43 67.01v27.00" stroke="currentColor" fill="none"/>
<path fill="currentColor"
	d="M563.43 94.01c0.6 -5.6 9.6 -9 5.6 -18.4
	c1.6 6 -1.3 11.6 -5.6 12.8
"/>
<use x="584.43" y="76.01" xlink:href="#hl"/>
<use x="584.43" y="70.01" xlink:href="#hl"/>
<use x="584.43" y="70.01" xlink:href="#hd"/>
<path d="M580.93 70.01v24.00" stroke="currentColor" fill="none"/>
<path fill="currentColor"
	d="M580.93 94.01c0.6 -5.6 9.6 -9 5.6 -18.4
	c1.6 6 -1.3 11.6 -5.6 12.8
"/>
<use x="602.03" y="76.01" xlink:href="#hl"/>
<use x="602.03" y="73.01" xlink:href="#hd"/>
<path d="M598.53 73.01v21.00" stroke="currentColor" fill="none"/>
<path fill="currentColor"
	d="M598.53 94.01c0.6 -5.6 9.6 -9 5.6 -18.4
	c1.6 6 -1.3 11.6 -5.6 12.8
"/>
<use x="628.73" y="76.01" xlink:href="#hl"/>
<use x="628.73" y="76.01" xlink:href="#hd"/>
<path d="M625.23 76.01v20.00" stroke="currentColor" fill="none"/>
<path fill="currentColor"
	d="M625.23 96.01c0.6 -5.6 9.6 -9 5.6 -18.4
	c1.6 6 -1.3 11.6 -5.6 12.8
"/>
<use x="646.03" y="79.01" xlink:href="#hd"/>
<path d="M642.53 79.01v20.00" stroke="currentColor" fill="none"/>
<path fill="currentColor"
	d="M642.53 99.01c0.6 -5.6 9.6 -9 5.6 -18.4
	c1.6 6 -1.3 11.6 -5.6 12.8
"/>
<use x="663.43" y="82.01" xlink:href="#hd"/>
<path d="M659.93 82.01v20.00" stroke="currentColor" fill="none"/>
<path fill="currentColor"
	d="M659.93 102.01c0.6 -5.6 9.6 -9 5.6 -18.4
	c1.6 6 -1.3 11.6 -5.6 12.8
"/>
<use x="680.73" y="85.01" xlink:href="#hd"/>
<path d="M677.23 85.01v20.00" stroke="currentColor" fill="none"/>
<path fill="currentColor"
	d="M677.23 105.01c0.6 -5.6 9.6 -9 5.6 -18.4
	c1.6 6 -1.3 11.6 -5.6 12.8
"/>
</g>
</svg>
