<?xml version="1.0" standalone="no"?>
<!DOCTYPE svg PUBLIC "-//W3C//DTD SVG 1.1//EN"
	"http://www.w3.org/Graphics/SVG/1.1/DTD/svg11.dtd">
<svg xmlns="http://www.w3.org/2000/svg" version="1.1"
	xmlns:xlink="http://www.w3.org/1999/xlink"
	xml:space='preserve' color="black"
	width="7.38in" height="1.40in" viewBox="0 0 531 101">
<title>7670.abc (7670) tune 1</title>
<!-- Creator: abcm2ps-7.8.14 -->
<!-- CreationDate: Mar 13, 2016 18:54 -->
<!-- CommandLine: -qxg 7670.abc -O ../svgs/7670.svg -->
<g transform="scale(0.750)" stroke-width="0.70" font-family="Times" font-size="20.00">
<text x="354.13" y="21.67" text-anchor="middle">7670.  Concerto Accademico in D Minor, 1st. Mvt. - 3rd. Theme</text>
</g>
<g transform="scale(0.750)" stroke-width="0.70" font-family="Times" font-size="14.00" font-style="italic">
<text x="694.93" y="45.34" text-anchor="end">Ralph Vaughan Williams</text>
</g>
<g transform="scale(0.525)" stroke-width="0.70" font-family="Times" font-size="14.00" font-style="italic">
<defs>
<ellipse id="hd" rx="4.1" ry="2.9"
	transform="rotate(-20)" fill="currentColor"/>
</defs>
<use x="89.19" y="94.16" xlink:href="#hd"/>
<path d="M92.69 94.16v-20.00" stroke="currentColor" fill="none"/>
</g>
<g transform="scale(0.750)" stroke-width="0.70" font-family="Times" font-size="15.00" font-weight="bold">
<text x="70.13" y="68.01">= 120</text>
<path stroke="currentColor" fill="none"
	d="M124.93 111.01v-24.00"/>
<path stroke="currentColor" fill="none"
	d="M184.43 111.01v-24.00"/>
<path stroke="currentColor" fill="none"
	d="M300.63 111.01v-24.00"/>
<path stroke="currentColor" fill="none"
	d="M374.33 111.01v-24.00"/>
<path stroke="currentColor" fill="none"
	d="M434.23 111.01v-24.00"/>
<path stroke="currentColor" fill="none"
	d="M551.43 111.01v-24.00"/>
<path stroke="currentColor" fill="none"
	d="M694.93 111.01v-24.00"/>
<path stroke="currentColor" fill="none"
	d="M13.33 111.01h681.60m-681.60 -6h681.60m-681.60 -6h681.60m-681.60 -6h681.60m-681.60 -6h681.60"/>
<defs>
<path id="utclef" fill="currentColor" d="m-50 -90
	c-72 -41 -72 -158 52 -188
	c150 -10 220 188 90 256
	c-114 52 -275 0 -293 -136
	c-15 -181 93 -229 220 -334
	c88 -87 79 -133 62 -210
	c-51 33 -94 105 -89 186
	c17 267 36 374 49 574
	c6 96 -19 134 -77 135
	c-80 1 -126 -93 -61 -133
	c85 -41 133 101 31 105
	c23 17 92 37 90 -92
	c-10 -223 -39 -342 -50 -617
	c0 -90 0 -162 96 -232
	c56 72 63 230 22 289
	c-74 106 -257 168 -255 316
	c9 153 148 185 252 133
	c86 -65 29 -192 -80 -176
	c-71 12 -105 67 -59 124"/>
<use id="tclef" transform="scale(0.045)"
	xlink:href="#utclef"/>
</defs>
<use x="25.33" y="111.01" xlink:href="#tclef"/>
<g font-family="serif" font-size="16" font-weight="bold" font-style="normal"
	transform="translate(43.83,111.01) scale(1.2,1)">
	<text y="-1" text-anchor="middle">4</text>
	<text y="-13" text-anchor="middle">2</text>
</g>
<use x="61.83" y="102.01" xlink:href="#hd"/>
<path d="M65.33 102.01v-20.00" stroke="currentColor" fill="none"/>
<use x="87.53" y="102.01" xlink:href="#hd"/>
<path d="M91.03 102.01v-20.00" stroke="currentColor" fill="none"/>
<path fill="currentColor"
	d="	M91.03 82.01c0.6 5.6 9.6 9 5.6 18.4
	c1.6 -6 -1.3 -11.6 -5.6 -12.8
"/>
<use x="109.23" y="93.01" xlink:href="#hd"/>
<path d="M105.73 93.01v20.00" stroke="currentColor" fill="none"/>
<path fill="currentColor"
	d="M105.73 113.01c0.6 -5.6 9.6 -9 5.6 -18.4
	c1.6 6 -1.3 11.6 -5.6 12.8
"/>
<use x="137.43" y="90.01" xlink:href="#hd"/>
<path d="M133.93 90.01v20.00" stroke="currentColor" fill="none"/>
<defs>
<path id="hl" stroke="currentColor" d="m-6 0h12"/>
</defs>
<use x="163.23" y="81.01" xlink:href="#hl"/>
<use x="163.23" y="81.01" xlink:href="#hd"/>
<path d="M159.73 81.01v20.00" stroke="currentColor" fill="none"/>
<use x="196.93" y="84.01" xlink:href="#hd"/>
<path d="M193.43 84.01v20.00" stroke="currentColor" fill="none"/>
<path fill="currentColor"
	d="M193.43 104.01c0.6 -5.6 9.6 -9 5.6 -18.4
	c1.6 6 -1.3 11.6 -5.6 12.8
"/>
<path fill="currentColor"
	d="M212.03 117.21l73.50 5.40v-3.20l-73.50 -5.40"/>
<path fill="currentColor"
	d="M238.33 114.11l46.90 3.40v-3.20l-46.90 -3.40"/>
<path fill="currentColor"
	d="M244.33 109.61l-6.00 -0.40v-3.20l6.00 0.40"/>
<path fill="currentColor"
	d="M260.73 110.81l6.00 0.40v-3.20l-6.00 -0.40"/>
<use x="215.83" y="90.01" xlink:href="#hd"/>
<circle fill="currentColor" cx="223.83" cy="90.01" r="1.2"/>
<path d="M212.33 90.01v26.20" stroke="currentColor" fill="none"/>
<use x="241.83" y="90.01" xlink:href="#hd"/>
<path d="M238.33 90.01v28.10" stroke="currentColor" fill="none"/>
<use x="251.73" y="93.01" xlink:href="#hd"/>
<path d="M248.23 93.01v25.80" stroke="currentColor" fill="none"/>
<use x="270.23" y="93.01" xlink:href="#hd"/>
<path d="M266.73 93.01v27.20" stroke="currentColor" fill="none"/>
<use x="270.23" y="99.01" xlink:href="#hd"/>
<use x="288.73" y="99.01" xlink:href="#hd"/>
<path d="M285.23 99.01v22.60" stroke="currentColor" fill="none"/>
<use x="313.13" y="81.01" xlink:href="#hl"/>
<use x="313.13" y="81.01" xlink:href="#hd"/>
<path d="M309.63 81.01v20.00" stroke="currentColor" fill="none"/>
<use x="339.23" y="81.01" xlink:href="#hl"/>
<use x="339.23" y="81.01" xlink:href="#hd"/>
<path d="M335.73 81.01v20.00" stroke="currentColor" fill="none"/>
<path fill="currentColor"
	d="M335.73 101.01c0.6 -5.6 9.6 -9 5.6 -18.4
	c1.6 6 -1.3 11.6 -5.6 12.8
"/>
<use x="358.53" y="81.01" xlink:href="#hl"/>
<use x="358.53" y="75.01" xlink:href="#hl"/>
<use x="358.53" y="72.01" xlink:href="#hd"/>
<path d="M355.03 72.01v27.00" stroke="currentColor" fill="none"/>
<path fill="currentColor"
	d="M355.03 99.01c0.6 -5.6 9.6 -9 5.6 -18.4
	c1.6 6 -1.3 11.6 -5.6 12.8
"/>
<use x="386.83" y="81.01" xlink:href="#hl"/>
<use x="386.83" y="75.01" xlink:href="#hl"/>
<use x="386.83" y="69.01" xlink:href="#hl"/>
<use x="386.83" y="69.01" xlink:href="#hd"/>
<path d="M383.33 69.01v30.00" stroke="currentColor" fill="none"/>
<use x="412.93" y="81.01" xlink:href="#hl"/>
<use x="412.93" y="75.01" xlink:href="#hl"/>
<use x="412.93" y="69.01" xlink:href="#hl"/>
<use x="412.93" y="63.01" xlink:href="#hl"/>
<use x="412.93" y="60.01" xlink:href="#hd"/>
<path d="M409.43 60.01v39.00" stroke="currentColor" fill="none"/>
<use x="446.73" y="81.01" xlink:href="#hl"/>
<use x="446.73" y="75.01" xlink:href="#hl"/>
<use x="446.73" y="69.01" xlink:href="#hl"/>
<use x="446.73" y="63.01" xlink:href="#hl"/>
<use x="446.73" y="57.01" xlink:href="#hl"/>
<use x="446.73" y="57.01" xlink:href="#hd"/>
<path d="M443.23 57.01v42.00" stroke="currentColor" fill="none"/>
<path fill="currentColor"
	d="M443.23 99.01c0.6 -5.6 9.6 -9 5.6 -18.4
	c1.6 6 -1.3 11.6 -5.6 12.8
"/>
<path fill="currentColor"
	d="M462.23 100.01l74.20 0.00v-3.20l-74.20 -0.00"/>
<path fill="currentColor"
	d="M488.53 95.01l47.50 0.00v-3.20l-47.50 -0.00"/>
<path fill="currentColor"
	d="M494.53 90.01l-6.00 -0.00v-3.20l6.00 0.00"/>
<path fill="currentColor"
	d="M511.53 90.01l6.00 0.00v-3.20l-6.00 -0.00"/>
<use x="466.03" y="81.01" xlink:href="#hl"/>
<use x="466.03" y="75.01" xlink:href="#hl"/>
<use x="466.03" y="69.01" xlink:href="#hl"/>
<use x="466.03" y="69.01" xlink:href="#hd"/>
<circle fill="currentColor" cx="474.03" cy="66.01" r="1.2"/>
<path d="M462.53 69.01v30.00" stroke="currentColor" fill="none"/>
<use x="492.03" y="81.01" xlink:href="#hl"/>
<use x="492.03" y="75.01" xlink:href="#hl"/>
<use x="492.03" y="69.01" xlink:href="#hl"/>
<use x="492.03" y="69.01" xlink:href="#hd"/>
<path d="M488.53 69.01v30.00" stroke="currentColor" fill="none"/>
<use x="502.53" y="81.01" xlink:href="#hl"/>
<use x="502.53" y="75.01" xlink:href="#hl"/>
<use x="502.53" y="72.01" xlink:href="#hd"/>
<path d="M499.03 72.01v27.00" stroke="currentColor" fill="none"/>
<use x="521.03" y="81.01" xlink:href="#hl"/>
<use x="521.03" y="75.01" xlink:href="#hl"/>
<use x="521.03" y="72.01" xlink:href="#hd"/>
<path d="M517.53 72.01v27.00" stroke="currentColor" fill="none"/>
<use x="521.03" y="78.01" xlink:href="#hd"/>
<use x="539.53" y="81.01" xlink:href="#hl"/>
<use x="539.53" y="78.01" xlink:href="#hd"/>
<path d="M536.03 78.01v21.00" stroke="currentColor" fill="none"/>
<path fill="currentColor"
	d="M560.03 116.41l119.80 9.10v-3.20l-119.80 -9.10"/>
<path fill="currentColor"
	d="M560.43 111.51l36.50 2.80v-3.20l-36.50 -2.80"/>
<path fill="currentColor"
	d="M642.53 117.71l37.00 2.80v-3.20l-37.00 -2.80"/>
<path fill="currentColor"
	d="M590.93 108.81l6.00 0.50v-3.20l-6.00 -0.50"/>
<path fill="currentColor"
	d="M655.03 113.61l6.00 0.50v-3.20l-6.00 -0.50"/>
<use x="563.93" y="81.01" xlink:href="#hl"/>
<use x="563.93" y="75.01" xlink:href="#hl"/>
<use x="563.93" y="72.01" xlink:href="#hd"/>
<circle fill="currentColor" cx="571.93" cy="72.01" r="1.2"/>
<path d="M560.43 72.01v43.50" stroke="currentColor" fill="none"/>
<use x="581.93" y="81.01" xlink:href="#hl"/>
<use x="581.93" y="75.01" xlink:href="#hl"/>
<use x="581.93" y="75.01" xlink:href="#hd"/>
<path d="M578.43 75.01v41.80" stroke="currentColor" fill="none"/>
<use x="600.43" y="81.01" xlink:href="#hl"/>
<use x="600.43" y="75.01" xlink:href="#hl"/>
<use x="600.43" y="75.01" xlink:href="#hd"/>
<path d="M596.93 75.01v43.20" stroke="currentColor" fill="none"/>
<use x="600.43" y="81.01" xlink:href="#hd"/>
<use x="618.93" y="81.01" xlink:href="#hl"/>
<use x="618.93" y="81.01" xlink:href="#hd"/>
<path d="M615.43 81.01v38.60" stroke="currentColor" fill="none"/>
<defs>
<path id="r8e" fill="currentColor" d="m 0 0
	c-1.5 1.5 -2.4 2 -3.6 2
	c2.4 -2.8 -2.8 -4 -2.8 -1.2
	c0 2.7 4.3 2.4 5.9 0.6"/>
<g id="r32">
	<path d="m4.8 -10l-5.5 21.6" stroke="currentColor" fill="none"/>
	<use x="4.9" y="-10" xlink:href="#r8e"/>
	<use x="3.4" y="-4" xlink:href="#r8e"/>
	<use x="1.9" y="2" xlink:href="#r8e"/>
</g>
</defs>
<use x="636.23" y="99.01" xlink:href="#r32"/>
<use x="646.03" y="84.01" xlink:href="#hd"/>
<path d="M642.53 84.01v37.70" stroke="currentColor" fill="none"/>
<use x="664.53" y="84.01" xlink:href="#hd"/>
<path d="M661.03 84.01v39.10" stroke="currentColor" fill="none"/>
<use x="664.53" y="93.01" xlink:href="#hd"/>
<use x="683.03" y="93.01" xlink:href="#hd"/>
<path d="M679.53 93.01v31.50" stroke="currentColor" fill="none"/>
<path fill="currentColor"
	d="M219.33 88.01c2.99 -4.84 16.01 -4.84 19.00 -0.00
	l0.00 -0.22c-3.56 -6.62 -15.44 -6.62 -19.00 0.22"/>
<path fill="currentColor"
	d="M251.73 93.01c2.91 -4.83 15.59 -4.83 18.50 -0.00
	l0.00 -0.22c-3.47 -6.61 -15.03 -6.61 -18.50 0.22"/>
<path fill="currentColor"
	d="M270.23 99.01c2.91 -4.83 15.59 -4.83 18.50 -0.00
	l0.00 -0.22c-3.47 -6.61 -15.03 -6.61 -18.50 0.22"/>
<path fill="currentColor"
	d="M469.53 63.01c2.99 -4.84 16.01 -4.84 19.00 -0.00
	l0.00 -0.22c-3.56 -6.62 -15.44 -6.62 -19.00 0.22"/>
<path fill="currentColor"
	d="M502.53 70.01c2.91 -4.83 15.59 -4.83 18.50 -0.00
	l0.00 -0.22c-3.47 -6.61 -15.03 -6.61 -18.50 0.22"/>
<path fill="currentColor"
	d="M521.03 76.01c2.91 -4.83 15.59 -4.83 18.50 -0.00
	l0.00 -0.22c-3.47 -6.61 -15.03 -6.61 -18.50 0.22"/>
<path fill="currentColor"
	d="M581.93 75.01c2.91 -4.83 15.59 -4.83 18.50 -0.00
	l0.00 -0.22c-3.47 -6.61 -15.03 -6.61 -18.50 0.22"/>
<path fill="currentColor"
	d="M600.43 81.01c2.91 -4.83 15.59 -4.83 18.50 -0.00
	l0.00 -0.22c-3.47 -6.61 -15.03 -6.61 -18.50 0.22"/>
<path fill="currentColor"
	d="M646.03 82.01c2.91 -4.83 15.59 -4.83 18.50 -0.00
	l0.00 -0.22c-3.47 -6.61 -15.03 -6.61 -18.50 0.22"/>
<path fill="currentColor"
	d="M664.53 93.01c2.91 -4.83 15.59 -4.83 18.50 -0.00
	l0.00 -0.22c-3.47 -6.61 -15.03 -6.61 -18.50 0.22"/>
</g>
</svg>
