<?xml version="1.0" standalone="no"?>
<!DOCTYPE svg PUBLIC "-//W3C//DTD SVG 1.1//EN"
	"http://www.w3.org/Graphics/SVG/1.1/DTD/svg11.dtd">
<svg xmlns="http://www.w3.org/2000/svg" version="1.1"
	xmlns:xlink="http://www.w3.org/1999/xlink"
	xml:space='preserve' color="black"
	width="7.38in" height="1.80in" viewBox="0 0 531 130">
<title>7672.abc (7672) tune 1</title>
<!-- Creator: abcm2ps-7.8.14 -->
<!-- CreationDate: Mar 13, 2016 18:54 -->
<!-- CommandLine: -qxg 7672.abc -O ../svgs/7672.svg -->
<g transform="scale(0.750)" stroke-width="0.70" font-family="Times" font-size="20.00">
<text x="354.13" y="21.67" text-anchor="middle">7672.  Concerto Accademico in D Minor, 3rd. Mvt. - 1st. Theme</text>
</g>
<g transform="scale(0.750)" stroke-width="0.70" font-family="Times" font-size="14.00" font-style="italic">
<text x="694.93" y="45.34" text-anchor="end">Ralph Vaughan Williams</text>
</g>
<g transform="scale(0.525)" stroke-width="0.70" font-family="Times" font-size="14.00" font-style="italic">
<defs>
<ellipse id="hd" rx="4.1" ry="2.9"
	transform="rotate(-20)" fill="currentColor"/>
</defs>
<use x="89.19" y="94.16" xlink:href="#hd"/>
<path d="M92.69 94.16v-20.00" stroke="currentColor" fill="none"/>
</g>
<g transform="scale(0.750)" stroke-width="0.70" font-family="Times" font-size="15.00" font-weight="bold">
<text x="70.13" y="68.01">= 120</text>
<path stroke="currentColor" fill="none"
	d="M187.33 150.01v-24.00"/>
<path stroke="currentColor" fill="none"
	d="M325.43 150.01v-24.00"/>
<path stroke="currentColor" fill="none"
	d="M468.93 150.01v-24.00"/>
<path stroke="currentColor" fill="none"
	d="M612.53 150.01v-24.00"/>
<path stroke="currentColor" fill="none"
	d="M13.33 150.01h681.60m-681.60 -6h681.60m-681.60 -6h681.60m-681.60 -6h681.60m-681.60 -6h681.60"/>
<defs>
<path id="utclef" fill="currentColor" d="m-50 -90
	c-72 -41 -72 -158 52 -188
	c150 -10 220 188 90 256
	c-114 52 -275 0 -293 -136
	c-15 -181 93 -229 220 -334
	c88 -87 79 -133 62 -210
	c-51 33 -94 105 -89 186
	c17 267 36 374 49 574
	c6 96 -19 134 -77 135
	c-80 1 -126 -93 -61 -133
	c85 -41 133 101 31 105
	c23 17 92 37 90 -92
	c-10 -223 -39 -342 -50 -617
	c0 -90 0 -162 96 -232
	c56 72 63 230 22 289
	c-74 106 -257 168 -255 316
	c9 153 148 185 252 133
	c86 -65 29 -192 -80 -176
	c-71 12 -105 67 -59 124"/>
<use id="tclef" transform="scale(0.045)"
	xlink:href="#utclef"/>
</defs>
<use x="25.33" y="150.01" xlink:href="#tclef"/>
<g font-family="serif" font-size="16" font-weight="bold" font-style="normal"
	transform="translate(43.83,150.01) scale(1.2,1)">
	<text y="-1" text-anchor="middle">8</text>
	<text y="-13" text-anchor="middle">6</text>
</g>
<path fill="currentColor"
	d="M58.03 138.21l42.70 0.00v-3.20l-42.70 -0.00"/>
<defs>
<path id="hl" stroke="currentColor" d="m-6 0h12"/>
</defs>
<use x="61.83" y="120.01" xlink:href="#hl"/>
<use x="61.83" y="114.01" xlink:href="#hl"/>
<use x="61.83" y="108.01" xlink:href="#hl"/>
<use x="61.83" y="102.01" xlink:href="#hl"/>
<use x="61.83" y="96.01" xlink:href="#hl"/>
<use x="61.83" y="90.01" xlink:href="#hl"/>
<use x="61.83" y="84.01" xlink:href="#hl"/>
<use x="61.83" y="78.01" xlink:href="#hl"/>
<use x="61.83" y="78.01" xlink:href="#hd"/>
<path d="M58.33 78.01v59.20" stroke="currentColor" fill="none"/>
<use x="82.63" y="120.01" xlink:href="#hl"/>
<use x="82.63" y="114.01" xlink:href="#hl"/>
<use x="82.63" y="108.01" xlink:href="#hl"/>
<use x="82.63" y="102.01" xlink:href="#hl"/>
<use x="82.63" y="96.01" xlink:href="#hl"/>
<use x="82.63" y="90.01" xlink:href="#hl"/>
<use x="82.63" y="84.01" xlink:href="#hl"/>
<use x="82.63" y="78.01" xlink:href="#hl"/>
<use x="82.63" y="78.01" xlink:href="#hd"/>
<path d="M79.13 78.01v59.20" stroke="currentColor" fill="none"/>
<use x="103.83" y="120.01" xlink:href="#hl"/>
<use x="103.83" y="114.01" xlink:href="#hl"/>
<use x="103.83" y="108.01" xlink:href="#hl"/>
<use x="103.83" y="102.01" xlink:href="#hl"/>
<use x="103.83" y="96.01" xlink:href="#hl"/>
<use x="103.83" y="90.01" xlink:href="#hl"/>
<use x="103.83" y="84.01" xlink:href="#hl"/>
<use x="103.83" y="81.01" xlink:href="#hd"/>
<defs>
<path id="usharp" fill="currentColor" d="
	m136 -702
	v890
	h32
	v-890
	m128 840
	h32
	v-888
	h-32
	m-232 286
	v116
	l338 -96
	v-116
	m-338 442
	v116
	l338 -98
	v-114"/>
<use id="sh0" transform="translate(-4,5) scale(0.018)"
	xlink:href="#usharp"/>
</defs>
<use x="94.83" y="81.01" xlink:href="#sh0"/>
<path d="M100.33 81.01v56.20" stroke="currentColor" fill="none"/>
<path fill="currentColor"
	d="M123.03 138.21l42.70 0.00v-3.20l-42.70 -0.00"/>
<use x="126.83" y="120.01" xlink:href="#hl"/>
<use x="126.83" y="114.01" xlink:href="#hl"/>
<use x="126.83" y="108.01" xlink:href="#hl"/>
<use x="126.83" y="102.01" xlink:href="#hl"/>
<use x="126.83" y="96.01" xlink:href="#hl"/>
<use x="126.83" y="90.01" xlink:href="#hl"/>
<use x="126.83" y="90.01" xlink:href="#hd"/>
<path d="M123.33 90.01v47.20" stroke="currentColor" fill="none"/>
<use x="147.63" y="120.01" xlink:href="#hl"/>
<use x="147.63" y="114.01" xlink:href="#hl"/>
<use x="147.63" y="108.01" xlink:href="#hl"/>
<use x="147.63" y="102.01" xlink:href="#hl"/>
<use x="147.63" y="96.01" xlink:href="#hl"/>
<use x="147.63" y="90.01" xlink:href="#hl"/>
<use x="147.63" y="90.01" xlink:href="#hd"/>
<path d="M144.13 90.01v47.20" stroke="currentColor" fill="none"/>
<use x="168.93" y="120.01" xlink:href="#hl"/>
<use x="168.93" y="114.01" xlink:href="#hl"/>
<use x="168.93" y="108.01" xlink:href="#hl"/>
<use x="168.93" y="102.01" xlink:href="#hl"/>
<use x="168.93" y="96.01" xlink:href="#hl"/>
<use x="168.93" y="93.01" xlink:href="#hd"/>
<use x="159.93" y="93.01" xlink:href="#sh0"/>
<path d="M165.43 93.01v44.20" stroke="currentColor" fill="none"/>
<path fill="currentColor"
	d="M196.03 138.21l42.70 0.00v-3.20l-42.70 -0.00"/>
<use x="199.83" y="120.01" xlink:href="#hl"/>
<use x="199.83" y="114.01" xlink:href="#hl"/>
<use x="199.83" y="108.01" xlink:href="#hl"/>
<use x="199.83" y="102.01" xlink:href="#hl"/>
<use x="199.83" y="99.01" xlink:href="#hd"/>
<path d="M196.33 99.01v38.20" stroke="currentColor" fill="none"/>
<use x="220.63" y="120.01" xlink:href="#hl"/>
<use x="220.63" y="114.01" xlink:href="#hl"/>
<use x="220.63" y="108.01" xlink:href="#hl"/>
<use x="220.63" y="102.01" xlink:href="#hl"/>
<use x="220.63" y="99.01" xlink:href="#hd"/>
<path d="M217.13 99.01v38.20" stroke="currentColor" fill="none"/>
<use x="241.93" y="120.01" xlink:href="#hl"/>
<use x="241.93" y="114.01" xlink:href="#hl"/>
<use x="241.93" y="108.01" xlink:href="#hl"/>
<use x="241.93" y="102.01" xlink:href="#hl"/>
<use x="241.93" y="102.01" xlink:href="#hd"/>
<use x="232.93" y="102.01" xlink:href="#sh0"/>
<path d="M238.43 102.01v35.20" stroke="currentColor" fill="none"/>
<path fill="currentColor"
	d="M261.53 138.21l42.20 0.00v-3.20l-42.20 -0.00"/>
<use x="265.33" y="120.01" xlink:href="#hl"/>
<use x="265.33" y="114.01" xlink:href="#hl"/>
<use x="265.33" y="108.01" xlink:href="#hl"/>
<use x="265.33" y="105.01" xlink:href="#hd"/>
<use x="256.33" y="105.01" xlink:href="#sh0"/>
<path d="M261.83 105.01v32.20" stroke="currentColor" fill="none"/>
<use x="286.13" y="120.01" xlink:href="#hl"/>
<use x="286.13" y="114.01" xlink:href="#hl"/>
<use x="286.13" y="111.01" xlink:href="#hd"/>
<path d="M282.63 111.01v26.20" stroke="currentColor" fill="none"/>
<use x="306.93" y="120.01" xlink:href="#hl"/>
<use x="306.93" y="114.01" xlink:href="#hl"/>
<use x="306.93" y="111.01" xlink:href="#hd"/>
<path d="M303.43 111.01v26.20" stroke="currentColor" fill="none"/>
<path fill="currentColor"
	d="M340.03 138.21l42.20 0.00v-3.20l-42.20 -0.00"/>
<use x="343.93" y="120.01" xlink:href="#hl"/>
<use x="343.93" y="114.01" xlink:href="#hl"/>
<use x="343.93" y="108.01" xlink:href="#hl"/>
<use x="343.93" y="105.01" xlink:href="#hd"/>
<defs>
<path id="unat" fill="currentColor" d="
	m96 -750
	h-32
	v716
	l32 -8
	l182 -54
	v282
	h32
	v-706
	l-34 10
	l-180 50
	v-290
	m0 592
	v-190
	l182 -52
	v188"/>
<use id="nt0" transform="translate(-3,5) scale(0.018)"
	xlink:href="#unat"/>
</defs>
<use x="334.93" y="105.01" xlink:href="#nt0"/>
<path d="M340.43 105.01v32.20" stroke="currentColor" fill="none"/>
<use x="364.63" y="120.01" xlink:href="#hl"/>
<use x="364.63" y="114.01" xlink:href="#hl"/>
<use x="364.63" y="111.01" xlink:href="#hd"/>
<path d="M361.13 111.01v26.20" stroke="currentColor" fill="none"/>
<use x="385.43" y="120.01" xlink:href="#hl"/>
<use x="385.43" y="114.01" xlink:href="#hl"/>
<use x="385.43" y="111.01" xlink:href="#hd"/>
<path d="M381.93 111.01v26.20" stroke="currentColor" fill="none"/>
<path fill="currentColor"
	d="M405.13 138.21l42.20 0.00v-3.20l-42.20 -0.00"/>
<use x="408.93" y="120.01" xlink:href="#hl"/>
<use x="408.93" y="114.01" xlink:href="#hl"/>
<use x="408.93" y="108.01" xlink:href="#hl"/>
<use x="408.93" y="105.01" xlink:href="#hd"/>
<use x="399.93" y="105.01" xlink:href="#sh0"/>
<path d="M405.43 105.01v32.20" stroke="currentColor" fill="none"/>
<use x="429.73" y="120.01" xlink:href="#hl"/>
<use x="429.73" y="114.01" xlink:href="#hl"/>
<use x="429.73" y="111.01" xlink:href="#hd"/>
<path d="M426.23 111.01v26.20" stroke="currentColor" fill="none"/>
<use x="450.53" y="120.01" xlink:href="#hl"/>
<use x="450.53" y="114.01" xlink:href="#hl"/>
<use x="450.53" y="111.01" xlink:href="#hd"/>
<path d="M447.03 111.01v26.20" stroke="currentColor" fill="none"/>
<path fill="currentColor"
	d="M483.63 138.21l42.20 0.00v-3.20l-42.20 -0.00"/>
<use x="487.43" y="120.01" xlink:href="#hl"/>
<use x="487.43" y="114.01" xlink:href="#hl"/>
<use x="487.43" y="108.01" xlink:href="#hl"/>
<use x="487.43" y="102.01" xlink:href="#hl"/>
<use x="487.43" y="102.01" xlink:href="#hd"/>
<use x="478.43" y="102.01" xlink:href="#sh0"/>
<path d="M483.93 102.01v35.20" stroke="currentColor" fill="none"/>
<use x="508.23" y="120.01" xlink:href="#hl"/>
<use x="508.23" y="114.01" xlink:href="#hl"/>
<use x="508.23" y="108.01" xlink:href="#hl"/>
<use x="508.23" y="108.01" xlink:href="#hd"/>
<path d="M504.73 108.01v29.20" stroke="currentColor" fill="none"/>
<use x="529.03" y="120.01" xlink:href="#hl"/>
<use x="529.03" y="114.01" xlink:href="#hl"/>
<use x="529.03" y="108.01" xlink:href="#hl"/>
<use x="529.03" y="108.01" xlink:href="#hd"/>
<path d="M525.53 108.01v29.20" stroke="currentColor" fill="none"/>
<path fill="currentColor"
	d="M548.63 138.21l42.20 0.00v-3.20l-42.20 -0.00"/>
<use x="552.53" y="120.01" xlink:href="#hl"/>
<use x="552.53" y="114.01" xlink:href="#hl"/>
<use x="552.53" y="108.01" xlink:href="#hl"/>
<use x="552.53" y="105.01" xlink:href="#hd"/>
<use x="543.53" y="105.01" xlink:href="#sh0"/>
<path d="M549.03 105.01v32.20" stroke="currentColor" fill="none"/>
<use x="573.23" y="120.01" xlink:href="#hl"/>
<use x="573.23" y="114.01" xlink:href="#hl"/>
<use x="573.23" y="111.01" xlink:href="#hd"/>
<path d="M569.73 111.01v26.20" stroke="currentColor" fill="none"/>
<use x="594.03" y="120.01" xlink:href="#hl"/>
<use x="594.03" y="114.01" xlink:href="#hl"/>
<use x="594.03" y="111.01" xlink:href="#hd"/>
<path d="M590.53 111.01v26.20" stroke="currentColor" fill="none"/>
<path fill="currentColor"
	d="M627.23 138.21l42.20 0.00v-3.20l-42.20 -0.00"/>
<use x="631.03" y="120.01" xlink:href="#hl"/>
<use x="631.03" y="114.01" xlink:href="#hl"/>
<use x="631.03" y="108.01" xlink:href="#hl"/>
<use x="631.03" y="105.01" xlink:href="#hd"/>
<use x="622.03" y="105.01" xlink:href="#nt0"/>
<path d="M627.53 105.01v32.20" stroke="currentColor" fill="none"/>
<use x="651.83" y="120.01" xlink:href="#hl"/>
<use x="651.83" y="114.01" xlink:href="#hl"/>
<use x="651.83" y="111.01" xlink:href="#hd"/>
<path d="M648.33 111.01v26.20" stroke="currentColor" fill="none"/>
<use x="672.63" y="120.01" xlink:href="#hl"/>
<use x="672.63" y="114.01" xlink:href="#hl"/>
<use x="672.63" y="111.01" xlink:href="#hd"/>
<path d="M669.13 111.01v26.20" stroke="currentColor" fill="none"/>
</g>
</svg>
