<?xml version="1.0" standalone="no"?>
<!DOCTYPE svg PUBLIC "-//W3C//DTD SVG 1.1//EN"
	"http://www.w3.org/Graphics/SVG/1.1/DTD/svg11.dtd">
<svg xmlns="http://www.w3.org/2000/svg" version="1.1"
	xmlns:xlink="http://www.w3.org/1999/xlink"
	xml:space='preserve' color="black"
	width="7.38in" height="1.43in" viewBox="0 0 531 103">
<title>7679.abc (7679) tune 1</title>
<!-- Creator: abcm2ps-7.8.14 -->
<!-- CreationDate: Mar 13, 2016 18:54 -->
<!-- CommandLine: -qxg 7679.abc -O ../svgs/7679.svg -->
<g transform="scale(0.750)" stroke-width="0.70" font-family="Times" font-size="20.00">
<text x="354.13" y="21.67" text-anchor="middle">7679.  The Lark Ascending, 4th. Theme</text>
</g>
<g transform="scale(0.750)" stroke-width="0.70" font-family="Times" font-size="14.00" font-style="italic">
<text x="694.93" y="45.34" text-anchor="end">Ralph Vaughan Williams</text>
</g>
<g transform="scale(0.525)" stroke-width="0.70" font-family="Times" font-size="14.00" font-style="italic">
<defs>
<ellipse id="hd" rx="4.1" ry="2.9"
	transform="rotate(-20)" fill="currentColor"/>
</defs>
<use x="107.04" y="94.16" xlink:href="#hd"/>
<path d="M110.54 94.16v-20.00" stroke="currentColor" fill="none"/>
</g>
<g transform="scale(0.750)" stroke-width="0.70" font-family="Times" font-size="15.00" font-weight="bold">
<text x="82.63" y="68.01">= 120</text>
<path stroke="currentColor" fill="none"
	d="M204.33 114.01v-24.00"/>
<path stroke="currentColor" fill="none"
	d="M357.73 114.01v-24.00"/>
<path stroke="currentColor" fill="none"
	d="M503.63 114.01v-24.00"/>
<path stroke="currentColor" fill="none"
	d="M13.33 114.01h681.60m-681.60 -6h681.60m-681.60 -6h681.60m-681.60 -6h681.60m-681.60 -6h681.60"/>
<defs>
<path id="utclef" fill="currentColor" d="m-50 -90
	c-72 -41 -72 -158 52 -188
	c150 -10 220 188 90 256
	c-114 52 -275 0 -293 -136
	c-15 -181 93 -229 220 -334
	c88 -87 79 -133 62 -210
	c-51 33 -94 105 -89 186
	c17 267 36 374 49 574
	c6 96 -19 134 -77 135
	c-80 1 -126 -93 -61 -133
	c85 -41 133 101 31 105
	c23 17 92 37 90 -92
	c-10 -223 -39 -342 -50 -617
	c0 -90 0 -162 96 -232
	c56 72 63 230 22 289
	c-74 106 -257 168 -255 316
	c9 153 148 185 252 133
	c86 -65 29 -192 -80 -176
	c-71 12 -105 67 -59 124"/>
<use id="tclef" transform="scale(0.045)"
	xlink:href="#utclef"/>
</defs>
<use x="25.33" y="114.01" xlink:href="#tclef"/>
<defs>
<path id="uflat" fill="currentColor" d="
	m100 -746
	h32
	v734
	l-32 4
	m32 -332
	c46 -72 152 -90 208 -20
	c100 110 -120 326 -208 348
	m0 -28
	c54 0 200 -206 130 -290
	c-50 -60 -130 -4 -130 34"/>
<use id="ft0" transform="translate(-3.5,3.5) scale(0.018)"
	xlink:href="#uflat"/>
</defs>
<use x="40.33" y="102.01" xlink:href="#ft0"/>
<g font-family="serif" font-size="16" font-weight="bold" font-style="normal"
	transform="translate(56.33,114.01) scale(1.2,1)">
	<text y="-1" text-anchor="middle">8</text>
	<text y="-13" text-anchor="middle">6</text>
</g>
<path fill="currentColor"
	d="M70.53 102.21l57.90 0.00v-3.20l-57.90 -0.00"/>
<defs>
<path id="hl" stroke="currentColor" d="m-6 0h12"/>
</defs>
<use x="74.33" y="84.01" xlink:href="#hl"/>
<use x="74.33" y="78.01" xlink:href="#hl"/>
<use x="74.33" y="78.01" xlink:href="#hd"/>
<path d="M70.83 78.01v23.20" stroke="currentColor" fill="none"/>
<use x="102.93" y="84.01" xlink:href="#hl"/>
<use x="102.93" y="84.01" xlink:href="#hd"/>
<path d="M99.43 84.01v17.20" stroke="currentColor" fill="none"/>
<use x="131.53" y="84.01" xlink:href="#hl"/>
<use x="131.53" y="84.01" xlink:href="#hd"/>
<path d="M128.03 84.01v17.20" stroke="currentColor" fill="none"/>
<use x="163.43" y="84.01" xlink:href="#hl"/>
<use x="163.43" y="78.01" xlink:href="#hl"/>
<use x="163.43" y="78.01" xlink:href="#hd"/>
<circle fill="currentColor" cx="171.43" cy="75.01" r="1.2"/>
<path d="M159.93 78.01v24.00" stroke="currentColor" fill="none"/>
<use x="220.23" y="84.01" xlink:href="#hl"/>
<use x="220.23" y="78.01" xlink:href="#hl"/>
<use x="220.23" y="78.01" xlink:href="#hd"/>
<circle fill="currentColor" cx="228.23" cy="75.01" r="1.2"/>
<path d="M216.73 78.01v24.00" stroke="currentColor" fill="none"/>
<path fill="currentColor"
	d="M216.73 102.01c0.6 -5.6 9.6 -9 5.6 -18.4
	c1.6 6 -1.3 11.6 -5.6 12.8
"/>
<use x="256.43" y="84.01" xlink:href="#hl"/>
<use x="256.43" y="84.01" xlink:href="#hd"/>
<circle fill="currentColor" cx="264.43" cy="81.01" r="1.2"/>
<path d="M252.93 84.01v20.00" stroke="currentColor" fill="none"/>
<path fill="currentColor"
	d="M252.93 104.01c0.6 -5.6 9.6 -9 5.6 -18.4
	c1.6 6 -1.3 11.6 -5.6 12.8
"/>
<use x="292.63" y="87.01" xlink:href="#hd"/>
<circle fill="currentColor" cx="300.63" cy="87.01" r="1.2"/>
<path d="M289.13 87.01v20.00" stroke="currentColor" fill="none"/>
<path fill="currentColor"
	d="M289.13 107.01c0.6 -5.6 9.6 -9 5.6 -18.4
	c1.6 6 -1.3 11.6 -5.6 12.8
"/>
<use x="328.83" y="93.01" xlink:href="#hd"/>
<circle fill="currentColor" cx="336.83" cy="93.01" r="1.2"/>
<path d="M325.33 93.01v20.00" stroke="currentColor" fill="none"/>
<path fill="currentColor"
	d="M325.33 113.01c0.6 -5.6 9.6 -9 5.6 -18.4
	c1.6 6 -1.3 11.6 -5.6 12.8
"/>
<path fill="currentColor"
	d="M369.83 102.21l57.90 0.00v-3.20l-57.90 -0.00"/>
<use x="373.63" y="84.01" xlink:href="#hl"/>
<use x="373.63" y="78.01" xlink:href="#hl"/>
<use x="373.63" y="78.01" xlink:href="#hd"/>
<path d="M370.13 78.01v23.20" stroke="currentColor" fill="none"/>
<use x="402.23" y="84.01" xlink:href="#hl"/>
<use x="402.23" y="84.01" xlink:href="#hd"/>
<path d="M398.73 84.01v17.20" stroke="currentColor" fill="none"/>
<use x="430.93" y="84.01" xlink:href="#hl"/>
<use x="430.93" y="84.01" xlink:href="#hd"/>
<path d="M427.43 84.01v17.20" stroke="currentColor" fill="none"/>
<use x="462.73" y="84.01" xlink:href="#hl"/>
<use x="462.73" y="78.01" xlink:href="#hl"/>
<use x="462.73" y="78.01" xlink:href="#hd"/>
<circle fill="currentColor" cx="470.73" cy="75.01" r="1.2"/>
<path d="M459.23 78.01v24.00" stroke="currentColor" fill="none"/>
<path fill="currentColor"
	d="M515.73 110.01l41.10 0.00v-3.20l-41.10 -0.00"/>
<path fill="currentColor"
	d="M516.03 105.01l40.50 0.00v-3.20l-40.50 -0.00"/>
<use x="519.53" y="84.01" xlink:href="#hl"/>
<use x="519.53" y="78.01" xlink:href="#hl"/>
<use x="519.53" y="78.01" xlink:href="#hd"/>
<path d="M516.03 78.01v31.00" stroke="currentColor" fill="none"/>
<use x="539.73" y="87.01" xlink:href="#hd"/>
<path d="M536.23 87.01v22.00" stroke="currentColor" fill="none"/>
<use x="560.03" y="84.01" xlink:href="#hl"/>
<use x="560.03" y="84.01" xlink:href="#hd"/>
<path d="M556.53 84.01v25.00" stroke="currentColor" fill="none"/>
<path fill="currentColor"
	d="M578.63 102.21l20.90 0.00v-3.20l-20.90 -0.00"/>
<path fill="currentColor"
	d="M584.93 97.21l-6.00 -0.00v-3.20l6.00 0.00"/>
<use x="582.43" y="84.01" xlink:href="#hl"/>
<use x="582.43" y="78.01" xlink:href="#hl"/>
<use x="582.43" y="78.01" xlink:href="#hd"/>
<path d="M578.93 78.01v23.20" stroke="currentColor" fill="none"/>
<use x="602.73" y="84.01" xlink:href="#hl"/>
<use x="602.73" y="81.01" xlink:href="#hd"/>
<defs>
<path id="unat" fill="currentColor" d="
	m96 -750
	h-32
	v716
	l32 -8
	l182 -54
	v282
	h32
	v-706
	l-34 10
	l-180 50
	v-290
	m0 592
	v-190
	l182 -52
	v188"/>
<use id="nt0" transform="translate(-3,5) scale(0.018)"
	xlink:href="#unat"/>
</defs>
<use x="593.73" y="81.01" xlink:href="#nt0"/>
<path d="M599.23 81.01v20.20" stroke="currentColor" fill="none"/>
<path fill="currentColor"
	d="M630.63 106.81l29.30 -2.50v-3.20l-29.30 2.50"/>
<use x="634.53" y="87.01" xlink:href="#hd"/>
<path d="M631.03 87.01v18.70" stroke="currentColor" fill="none"/>
<use x="663.13" y="84.01" xlink:href="#hl"/>
<use x="663.13" y="84.01" xlink:href="#hd"/>
<path d="M659.63 84.01v19.30" stroke="currentColor" fill="none"/>
<path fill="currentColor"
	d="M166.93 72.01c7.63 -5.40 42.21 -5.40 49.84 -0.00
	l0.00 -0.25c-9.12 -7.15 -40.72 -7.15 -49.84 0.25"/>
<path fill="currentColor"
	d="M466.23 72.01c7.63 -5.40 42.21 -5.40 49.84 -0.00
	l0.00 -0.25c-9.12 -7.15 -40.72 -7.15 -49.84 0.25"/>
</g>
</svg>
