<?xml version="1.0" standalone="no"?>
<!DOCTYPE svg PUBLIC "-//W3C//DTD SVG 1.1//EN"
	"http://www.w3.org/Graphics/SVG/1.1/DTD/svg11.dtd">
<svg xmlns="http://www.w3.org/2000/svg" version="1.1"
	xmlns:xlink="http://www.w3.org/1999/xlink"
	xml:space='preserve' color="black"
	width="7.38in" height="1.55in" viewBox="0 0 531 112">
<title>7719.abc (7719) tune 1</title>
<!-- Creator: abcm2ps-7.8.14 -->
<!-- CreationDate: Mar 13, 2016 18:54 -->
<!-- CommandLine: -qxg 7719.abc -O ../svgs/7719.svg -->
<g transform="scale(0.750)" stroke-width="0.70" font-family="Times" font-size="20.00">
<text x="354.13" y="21.67" text-anchor="middle">7719.  The Wasps, 5th. Mvt. - Ballet and Final Tableau, 6th. Theme</text>
</g>
<g transform="scale(0.750)" stroke-width="0.70" font-family="Times" font-size="14.00" font-style="italic">
<text x="694.93" y="45.34" text-anchor="end">Ralph Vaughan Williams</text>
</g>
<g transform="scale(0.525)" stroke-width="0.70" font-family="Times" font-size="14.00" font-style="italic">
<defs>
<ellipse id="hd" rx="4.1" ry="2.9"
	transform="rotate(-20)" fill="currentColor"/>
</defs>
<use x="89.19" y="94.16" xlink:href="#hd"/>
<path d="M92.69 94.16v-20.00" stroke="currentColor" fill="none"/>
</g>
<g transform="scale(0.750)" stroke-width="0.70" font-family="Times" font-size="15.00" font-weight="bold">
<text x="70.13" y="68.01">= 120</text>
<path stroke="currentColor" fill="none"
	d="M212.93 126.01v-24.00"/>
<path stroke="currentColor" fill="none"
	d="M376.53 126.01v-24.00"/>
<path stroke="currentColor" fill="none"
	d="M543.23 126.01v-24.00"/>
<path stroke="currentColor" fill="none"
	d="M694.93 126.01v-24.00"/>
<path stroke="currentColor" fill="none"
	d="M13.33 126.01h681.60m-681.60 -6h681.60m-681.60 -6h681.60m-681.60 -6h681.60m-681.60 -6h681.60"/>
<defs>
<path id="utclef" fill="currentColor" d="m-50 -90
	c-72 -41 -72 -158 52 -188
	c150 -10 220 188 90 256
	c-114 52 -275 0 -293 -136
	c-15 -181 93 -229 220 -334
	c88 -87 79 -133 62 -210
	c-51 33 -94 105 -89 186
	c17 267 36 374 49 574
	c6 96 -19 134 -77 135
	c-80 1 -126 -93 -61 -133
	c85 -41 133 101 31 105
	c23 17 92 37 90 -92
	c-10 -223 -39 -342 -50 -617
	c0 -90 0 -162 96 -232
	c56 72 63 230 22 289
	c-74 106 -257 168 -255 316
	c9 153 148 185 252 133
	c86 -65 29 -192 -80 -176
	c-71 12 -105 67 -59 124"/>
<use id="tclef" transform="scale(0.045)"
	xlink:href="#utclef"/>
</defs>
<use x="25.33" y="126.01" xlink:href="#tclef"/>
<g font-family="serif" font-size="16" font-weight="bold" font-style="normal"
	transform="translate(43.83,126.01) scale(1.2,1)">
	<text y="-1" text-anchor="middle">4</text>
	<text y="-13" text-anchor="middle">3</text>
</g>
<defs>
<path id="hl" stroke="currentColor" d="m-6 0h12"/>
</defs>
<use x="61.83" y="96.01" xlink:href="#hl"/>
<use x="61.83" y="90.01" xlink:href="#hl"/>
<use x="61.83" y="84.01" xlink:href="#hl"/>
<use x="61.83" y="84.01" xlink:href="#hd"/>
<circle fill="currentColor" cx="69.83" cy="81.01" r="1.2"/>
<path d="M58.33 84.01v30.00" stroke="currentColor" fill="none"/>
<path fill="currentColor"
	d="M58.33 114.01c0.6 -5.6 9.6 -9 5.6 -18.4
	c1.6 6 -1.3 11.6 -5.6 12.8
"/>
<path fill="currentColor"
	d="M85.73 114.21l16.20 0.00v-3.20l-16.20 -0.00"/>
<path fill="currentColor"
	d="M92.03 109.21l-6.00 -0.00v-3.20l6.00 0.00"/>
<use x="89.53" y="96.01" xlink:href="#hl"/>
<use x="89.53" y="90.01" xlink:href="#hl"/>
<use x="89.53" y="84.01" xlink:href="#hl"/>
<use x="89.53" y="81.01" xlink:href="#hd"/>
<path d="M86.03 81.01v32.20" stroke="currentColor" fill="none"/>
<use x="105.03" y="96.01" xlink:href="#hl"/>
<use x="105.03" y="90.01" xlink:href="#hl"/>
<use x="105.03" y="84.01" xlink:href="#hl"/>
<use x="105.03" y="78.01" xlink:href="#hl"/>
<use x="105.03" y="78.01" xlink:href="#hd"/>
<path d="M101.53 78.01v35.20" stroke="currentColor" fill="none"/>
<path fill="currentColor"
	d="M125.33 114.21l22.50 0.00v-3.20l-22.50 -0.00"/>
<path fill="currentColor"
	d="M141.43 109.21l6.00 0.00v-3.20l-6.00 -0.00"/>
<use x="129.23" y="96.01" xlink:href="#hl"/>
<use x="129.23" y="90.01" xlink:href="#hl"/>
<use x="129.23" y="84.01" xlink:href="#hl"/>
<use x="129.23" y="78.01" xlink:href="#hl"/>
<use x="129.23" y="78.01" xlink:href="#hd"/>
<path d="M125.73 78.01v35.20" stroke="currentColor" fill="none"/>
<use x="150.93" y="96.01" xlink:href="#hl"/>
<use x="150.93" y="90.01" xlink:href="#hl"/>
<use x="150.93" y="84.01" xlink:href="#hl"/>
<use x="150.93" y="81.01" xlink:href="#hd"/>
<path d="M147.43 81.01v32.20" stroke="currentColor" fill="none"/>
<path fill="currentColor"
	d="M164.33 114.21l31.70 0.00v-3.20l-31.70 -0.00"/>
<path fill="currentColor"
	d="M164.63 109.21l31.00 0.00v-3.20l-31.00 -0.00"/>
<use x="168.13" y="96.01" xlink:href="#hl"/>
<use x="168.13" y="90.01" xlink:href="#hl"/>
<use x="168.13" y="84.01" xlink:href="#hl"/>
<use x="168.13" y="84.01" xlink:href="#hd"/>
<path d="M164.63 84.01v29.20" stroke="currentColor" fill="none"/>
<use x="183.63" y="96.01" xlink:href="#hl"/>
<use x="183.63" y="90.01" xlink:href="#hl"/>
<use x="183.63" y="84.01" xlink:href="#hl"/>
<use x="183.63" y="81.01" xlink:href="#hd"/>
<path d="M180.13 81.01v32.20" stroke="currentColor" fill="none"/>
<use x="199.13" y="96.01" xlink:href="#hl"/>
<use x="199.13" y="90.01" xlink:href="#hl"/>
<use x="199.13" y="87.01" xlink:href="#hd"/>
<path d="M195.63 87.01v26.20" stroke="currentColor" fill="none"/>
<use x="225.43" y="96.01" xlink:href="#hl"/>
<use x="225.43" y="90.01" xlink:href="#hl"/>
<use x="225.43" y="84.01" xlink:href="#hl"/>
<use x="225.43" y="84.01" xlink:href="#hd"/>
<circle fill="currentColor" cx="233.43" cy="81.01" r="1.2"/>
<path d="M221.93 84.01v30.00" stroke="currentColor" fill="none"/>
<path fill="currentColor"
	d="M221.93 114.01c0.6 -5.6 9.6 -9 5.6 -18.4
	c1.6 6 -1.3 11.6 -5.6 12.8
"/>
<path fill="currentColor"
	d="M249.33 114.21l16.20 0.00v-3.20l-16.20 -0.00"/>
<path fill="currentColor"
	d="M255.63 109.21l-6.00 -0.00v-3.20l6.00 0.00"/>
<use x="253.13" y="96.01" xlink:href="#hl"/>
<use x="253.13" y="90.01" xlink:href="#hl"/>
<use x="253.13" y="84.01" xlink:href="#hl"/>
<use x="253.13" y="81.01" xlink:href="#hd"/>
<path d="M249.63 81.01v32.20" stroke="currentColor" fill="none"/>
<use x="268.63" y="96.01" xlink:href="#hl"/>
<use x="268.63" y="90.01" xlink:href="#hl"/>
<use x="268.63" y="84.01" xlink:href="#hl"/>
<use x="268.63" y="78.01" xlink:href="#hl"/>
<use x="268.63" y="78.01" xlink:href="#hd"/>
<path d="M265.13 78.01v35.20" stroke="currentColor" fill="none"/>
<path fill="currentColor"
	d="M288.93 114.21l22.50 0.00v-3.20l-22.50 -0.00"/>
<path fill="currentColor"
	d="M305.03 109.21l6.00 0.00v-3.20l-6.00 -0.00"/>
<use x="292.83" y="96.01" xlink:href="#hl"/>
<use x="292.83" y="90.01" xlink:href="#hl"/>
<use x="292.83" y="84.01" xlink:href="#hl"/>
<use x="292.83" y="78.01" xlink:href="#hl"/>
<use x="292.83" y="78.01" xlink:href="#hd"/>
<path d="M289.33 78.01v35.20" stroke="currentColor" fill="none"/>
<use x="314.53" y="96.01" xlink:href="#hl"/>
<use x="314.53" y="90.01" xlink:href="#hl"/>
<use x="314.53" y="84.01" xlink:href="#hl"/>
<use x="314.53" y="81.01" xlink:href="#hd"/>
<path d="M311.03 81.01v32.20" stroke="currentColor" fill="none"/>
<path fill="currentColor"
	d="M327.93 114.21l31.70 0.00v-3.20l-31.70 -0.00"/>
<path fill="currentColor"
	d="M328.23 109.21l31.00 0.00v-3.20l-31.00 -0.00"/>
<use x="331.73" y="96.01" xlink:href="#hl"/>
<use x="331.73" y="90.01" xlink:href="#hl"/>
<use x="331.73" y="84.01" xlink:href="#hl"/>
<use x="331.73" y="84.01" xlink:href="#hd"/>
<path d="M328.23 84.01v29.20" stroke="currentColor" fill="none"/>
<use x="347.23" y="96.01" xlink:href="#hl"/>
<use x="347.23" y="90.01" xlink:href="#hl"/>
<use x="347.23" y="84.01" xlink:href="#hl"/>
<use x="347.23" y="81.01" xlink:href="#hd"/>
<path d="M343.73 81.01v32.20" stroke="currentColor" fill="none"/>
<use x="362.73" y="96.01" xlink:href="#hl"/>
<use x="362.73" y="90.01" xlink:href="#hl"/>
<use x="362.73" y="87.01" xlink:href="#hd"/>
<path d="M359.23 87.01v26.20" stroke="currentColor" fill="none"/>
<use x="389.03" y="96.01" xlink:href="#hl"/>
<use x="389.03" y="90.01" xlink:href="#hl"/>
<use x="389.03" y="84.01" xlink:href="#hl"/>
<use x="389.03" y="78.01" xlink:href="#hl"/>
<use x="389.03" y="78.01" xlink:href="#hd"/>
<circle fill="currentColor" cx="397.03" cy="75.01" r="1.2"/>
<path d="M385.53 78.01v36.00" stroke="currentColor" fill="none"/>
<path fill="currentColor"
	d="M385.53 114.01c0.6 -5.6 9.6 -9 5.6 -18.4
	c1.6 6 -1.3 11.6 -5.6 12.8
"/>
<path fill="currentColor"
	d="M412.93 114.21l18.70 0.00v-3.20l-18.70 -0.00"/>
<path fill="currentColor"
	d="M419.23 109.21l-6.00 -0.00v-3.20l6.00 0.00"/>
<use x="416.73" y="96.01" xlink:href="#hl"/>
<use x="416.73" y="90.01" xlink:href="#hl"/>
<use x="416.73" y="84.01" xlink:href="#hl"/>
<use x="416.73" y="78.01" xlink:href="#hl"/>
<use x="416.73" y="75.01" xlink:href="#hd"/>
<path d="M413.23 75.01v38.20" stroke="currentColor" fill="none"/>
<use x="434.73" y="96.01" xlink:href="#hl"/>
<use x="434.73" y="90.01" xlink:href="#hl"/>
<use x="434.73" y="84.01" xlink:href="#hl"/>
<use x="434.73" y="78.01" xlink:href="#hl"/>
<use x="434.73" y="75.01" xlink:href="#hd"/>
<defs>
<path id="usharp" fill="currentColor" d="
	m136 -702
	v890
	h32
	v-890
	m128 840
	h32
	v-888
	h-32
	m-232 286
	v116
	l338 -96
	v-116
	m-338 442
	v116
	l338 -98
	v-114"/>
<use id="sh0" transform="translate(-4,5) scale(0.018)"
	xlink:href="#usharp"/>
</defs>
<use x="425.73" y="75.01" xlink:href="#sh0"/>
<path d="M431.23 75.01v38.20" stroke="currentColor" fill="none"/>
<path fill="currentColor"
	d="M455.33 114.21l22.70 0.00v-3.20l-22.70 -0.00"/>
<path fill="currentColor"
	d="M471.73 109.21l6.00 0.00v-3.20l-6.00 -0.00"/>
<use x="459.23" y="96.01" xlink:href="#hl"/>
<use x="459.23" y="90.01" xlink:href="#hl"/>
<use x="459.23" y="84.01" xlink:href="#hl"/>
<use x="459.23" y="78.01" xlink:href="#hl"/>
<use x="459.23" y="75.01" xlink:href="#hd"/>
<use x="450.23" y="75.01" xlink:href="#sh0"/>
<path d="M455.73 75.01v38.20" stroke="currentColor" fill="none"/>
<use x="481.23" y="96.01" xlink:href="#hl"/>
<use x="481.23" y="90.01" xlink:href="#hl"/>
<use x="481.23" y="84.01" xlink:href="#hl"/>
<use x="481.23" y="78.01" xlink:href="#hl"/>
<use x="481.23" y="75.01" xlink:href="#hd"/>
<defs>
<path id="unat" fill="currentColor" d="
	m96 -750
	h-32
	v716
	l32 -8
	l182 -54
	v282
	h32
	v-706
	l-34 10
	l-180 50
	v-290
	m0 592
	v-190
	l182 -52
	v188"/>
<use id="nt0" transform="translate(-3,5) scale(0.018)"
	xlink:href="#unat"/>
</defs>
<use x="472.23" y="75.01" xlink:href="#nt0"/>
<path d="M477.73 75.01v38.20" stroke="currentColor" fill="none"/>
<path fill="currentColor"
	d="M494.63 114.21l31.70 0.00v-3.20l-31.70 -0.00"/>
<path fill="currentColor"
	d="M494.93 109.21l31.00 0.00v-3.20l-31.00 -0.00"/>
<use x="498.43" y="96.01" xlink:href="#hl"/>
<use x="498.43" y="90.01" xlink:href="#hl"/>
<use x="498.43" y="84.01" xlink:href="#hl"/>
<use x="498.43" y="78.01" xlink:href="#hl"/>
<use x="498.43" y="78.01" xlink:href="#hd"/>
<path d="M494.93 78.01v35.20" stroke="currentColor" fill="none"/>
<use x="513.93" y="96.01" xlink:href="#hl"/>
<use x="513.93" y="90.01" xlink:href="#hl"/>
<use x="513.93" y="84.01" xlink:href="#hl"/>
<use x="513.93" y="78.01" xlink:href="#hl"/>
<use x="513.93" y="75.01" xlink:href="#hd"/>
<path d="M510.43 75.01v38.20" stroke="currentColor" fill="none"/>
<use x="529.43" y="96.01" xlink:href="#hl"/>
<use x="529.43" y="90.01" xlink:href="#hl"/>
<use x="529.43" y="84.01" xlink:href="#hl"/>
<use x="529.43" y="81.01" xlink:href="#hd"/>
<path d="M525.93 81.01v32.20" stroke="currentColor" fill="none"/>
<path fill="currentColor"
	d="M551.93 114.21l31.70 0.00v-3.20l-31.70 -0.00"/>
<path fill="currentColor"
	d="M552.23 109.21l31.00 0.00v-3.20l-31.00 -0.00"/>
<use x="555.73" y="96.01" xlink:href="#hl"/>
<use x="555.73" y="90.01" xlink:href="#hl"/>
<use x="555.73" y="84.01" xlink:href="#hl"/>
<use x="555.73" y="78.01" xlink:href="#hl"/>
<use x="555.73" y="78.01" xlink:href="#hd"/>
<path d="M552.23 78.01v35.20" stroke="currentColor" fill="none"/>
<use x="571.23" y="96.01" xlink:href="#hl"/>
<use x="571.23" y="90.01" xlink:href="#hl"/>
<use x="571.23" y="84.01" xlink:href="#hl"/>
<use x="571.23" y="81.01" xlink:href="#hd"/>
<path d="M567.73 81.01v32.20" stroke="currentColor" fill="none"/>
<use x="586.73" y="96.01" xlink:href="#hl"/>
<use x="586.73" y="90.01" xlink:href="#hl"/>
<use x="586.73" y="84.01" xlink:href="#hl"/>
<use x="586.73" y="78.01" xlink:href="#hl"/>
<use x="586.73" y="78.01" xlink:href="#hd"/>
<path d="M583.23 78.01v35.20" stroke="currentColor" fill="none"/>
<path fill="currentColor"
	d="M600.03 114.61l16.20 2.80v-3.20l-16.20 -2.80"/>
<path fill="currentColor"
	d="M606.43 110.71l-6.00 -1.00v-3.20l6.00 1.00"/>
<use x="603.93" y="96.01" xlink:href="#hl"/>
<use x="603.93" y="90.01" xlink:href="#hl"/>
<use x="603.93" y="87.01" xlink:href="#hd"/>
<path d="M600.43 87.01v26.70" stroke="currentColor" fill="none"/>
<use x="619.43" y="96.01" xlink:href="#hl"/>
<use x="619.43" y="96.01" xlink:href="#hd"/>
<path d="M615.93 96.01v20.30" stroke="currentColor" fill="none"/>
<use x="643.53" y="96.01" xlink:href="#hl"/>
<use x="643.53" y="90.01" xlink:href="#hl"/>
<use x="643.53" y="87.01" xlink:href="#hd"/>
<path d="M640.03 87.01v27.00" stroke="currentColor" fill="none"/>
<path fill="currentColor"
	d="M640.03 114.01c0.6 -5.6 9.6 -9 5.6 -18.4
	c1.6 6 -1.3 11.6 -5.6 12.8
"/>
<use x="667.73" y="96.01" xlink:href="#hl"/>
<use x="667.73" y="90.01" xlink:href="#hl"/>
<use x="667.73" y="87.01" xlink:href="#hd"/>
<path d="M664.23 87.01v27.00" stroke="currentColor" fill="none"/>
</g>
</svg>
