<?xml version="1.0" standalone="no"?>
<!DOCTYPE svg PUBLIC "-//W3C//DTD SVG 1.1//EN"
	"http://www.w3.org/Graphics/SVG/1.1/DTD/svg11.dtd">
<svg xmlns="http://www.w3.org/2000/svg" version="1.1"
	xmlns:xlink="http://www.w3.org/1999/xlink"
	xml:space='preserve' color="black"
	width="7.38in" height="1.43in" viewBox="0 0 531 103">
<title>7727.abc (7727) tune 1</title>
<!-- Creator: abcm2ps-7.8.14 -->
<!-- CreationDate: Mar 13, 2016 18:54 -->
<!-- CommandLine: -qxg 7727.abc -O ../svgs/7727.svg -->
<g transform="scale(0.750)" stroke-width="0.70" font-family="Times" font-size="20.00">
<text x="354.13" y="21.67" text-anchor="middle">7727.  Sonata in E Minor, 5th. Mvt. - Gigue</text>
</g>
<g transform="scale(0.750)" stroke-width="0.70" font-family="Times" font-size="14.00" font-style="italic">
<text x="694.93" y="45.34" text-anchor="end">Francesco Veracini</text>
</g>
<g transform="scale(0.525)" stroke-width="0.70" font-family="Times" font-size="14.00" font-style="italic">
<defs>
<ellipse id="hd" rx="4.1" ry="2.9"
	transform="rotate(-20)" fill="currentColor"/>
</defs>
<use x="107.04" y="94.16" xlink:href="#hd"/>
<path d="M110.54 94.16v-20.00" stroke="currentColor" fill="none"/>
</g>
<g transform="scale(0.750)" stroke-width="0.70" font-family="Times" font-size="15.00" font-weight="bold">
<text x="82.63" y="68.01">= 120</text>
<path stroke="currentColor" fill="none"
	d="M119.63 114.01v-24.00"/>
<path stroke="currentColor" fill="none"
	d="M202.03 114.01v-24.00"/>
<path stroke="currentColor" fill="none"
	d="M304.83 114.01v-24.00"/>
<path stroke="currentColor" fill="none"
	d="M390.23 114.01v-24.00"/>
<path stroke="currentColor" fill="none"
	d="M482.43 114.01v-24.00"/>
<path stroke="currentColor" fill="none"
	d="M564.83 114.01v-24.00"/>
<path stroke="currentColor" fill="none"
	d="M659.53 114.01v-24.00"/>
<path stroke="currentColor" fill="none"
	d="M13.33 114.01h681.60m-681.60 -6h681.60m-681.60 -6h681.60m-681.60 -6h681.60m-681.60 -6h681.60"/>
<defs>
<path id="utclef" fill="currentColor" d="m-50 -90
	c-72 -41 -72 -158 52 -188
	c150 -10 220 188 90 256
	c-114 52 -275 0 -293 -136
	c-15 -181 93 -229 220 -334
	c88 -87 79 -133 62 -210
	c-51 33 -94 105 -89 186
	c17 267 36 374 49 574
	c6 96 -19 134 -77 135
	c-80 1 -126 -93 -61 -133
	c85 -41 133 101 31 105
	c23 17 92 37 90 -92
	c-10 -223 -39 -342 -50 -617
	c0 -90 0 -162 96 -232
	c56 72 63 230 22 289
	c-74 106 -257 168 -255 316
	c9 153 148 185 252 133
	c86 -65 29 -192 -80 -176
	c-71 12 -105 67 -59 124"/>
<use id="tclef" transform="scale(0.045)"
	xlink:href="#utclef"/>
</defs>
<use x="25.33" y="114.01" xlink:href="#tclef"/>
<defs>
<path id="usharp" fill="currentColor" d="
	m136 -702
	v890
	h32
	v-890
	m128 840
	h32
	v-888
	h-32
	m-232 286
	v116
	l338 -96
	v-116
	m-338 442
	v116
	l338 -98
	v-114"/>
<use id="sh0" transform="translate(-4,5) scale(0.018)"
	xlink:href="#usharp"/>
</defs>
<use x="40.33" y="90.01" xlink:href="#sh0"/>
<g font-family="serif" font-size="16" font-weight="bold" font-style="normal"
	transform="translate(56.33,114.01) scale(1.2,1)">
	<text y="-1" text-anchor="middle">8</text>
	<text y="-13" text-anchor="middle">6</text>
</g>
<use x="74.33" y="93.01" xlink:href="#hd"/>
<circle fill="currentColor" cx="82.33" cy="93.01" r="1.2"/>
<path d="M70.83 93.01v20.00" stroke="currentColor" fill="none"/>
<defs>
<path id="hl" stroke="currentColor" d="m-6 0h12"/>
</defs>
<use x="98.73" y="84.01" xlink:href="#hl"/>
<use x="98.73" y="78.01" xlink:href="#hl"/>
<use x="98.73" y="78.01" xlink:href="#hd"/>
<circle fill="currentColor" cx="106.73" cy="75.01" r="1.2"/>
<path d="M95.23 78.01v24.00" stroke="currentColor" fill="none"/>
<defs>
<path id="r8e" fill="currentColor" d="m 0 0
	c-1.5 1.5 -2.4 2 -3.6 2
	c2.4 -2.8 -2.8 -4 -2.8 -1.2
	c0 2.7 4.3 2.4 5.9 0.6"/>
<g id="r32">
	<path d="m4.8 -10l-5.5 21.6" stroke="currentColor" fill="none"/>
	<use x="4.9" y="-10" xlink:href="#r8e"/>
	<use x="3.4" y="-4" xlink:href="#r8e"/>
	<use x="1.9" y="2" xlink:href="#r8e"/>
</g>
</defs>
<use x="132.13" y="102.01" xlink:href="#r32"/>
<use x="141.63" y="84.01" xlink:href="#hl"/>
<defs>
<path id="Hd" fill="currentColor" d="m3 -1.6
	c-1 -1.8 -7 1.4 -6 3.2
	c1 1.8 7 -1.4 6 -3.2
	m0.5 -0.3
	c2 3.8 -5 7.6 -7 3.8
	c-2 -3.8 5 -7.6 7 -3.8"/>
</defs>
<use x="141.63" y="81.01" xlink:href="#Hd"/>
<path d="M138.13 81.01v21.00" stroke="currentColor" fill="none"/>
<path fill="currentColor"
	d="M167.63 104.01l18.70 0.00v-3.20l-18.70 -0.00"/>
<path fill="currentColor"
	d="M173.93 99.01l-6.00 -0.00v-3.20l6.00 0.00"/>
<use x="171.43" y="84.01" xlink:href="#hl"/>
<use x="171.43" y="81.01" xlink:href="#hd"/>
<circle fill="currentColor" cx="179.43" cy="81.01" r="1.2"/>
<path d="M167.93 81.01v22.00" stroke="currentColor" fill="none"/>
<use x="189.43" y="84.01" xlink:href="#hl"/>
<use x="189.43" y="78.01" xlink:href="#hl"/>
<use x="189.43" y="72.01" xlink:href="#hl"/>
<use x="189.43" y="72.01" xlink:href="#hd"/>
<path d="M185.93 72.01v31.00" stroke="currentColor" fill="none"/>
<path fill="currentColor"
	d="M216.73 102.21l28.90 0.00v-3.20l-28.90 -0.00"/>
<use x="220.53" y="84.01" xlink:href="#hl"/>
<use x="220.53" y="78.01" xlink:href="#hl"/>
<use x="220.53" y="75.01" xlink:href="#hd"/>
<use x="211.53" y="75.01" xlink:href="#sh0"/>
<path d="M217.03 75.01v26.20" stroke="currentColor" fill="none"/>
<use x="234.63" y="84.01" xlink:href="#hl"/>
<use x="234.63" y="78.01" xlink:href="#hl"/>
<use x="234.63" y="72.01" xlink:href="#hl"/>
<use x="234.63" y="72.01" xlink:href="#hd"/>
<path d="M231.13 72.01v29.20" stroke="currentColor" fill="none"/>
<use x="248.73" y="84.01" xlink:href="#hl"/>
<use x="248.73" y="78.01" xlink:href="#hl"/>
<use x="248.73" y="72.01" xlink:href="#hl"/>
<use x="248.73" y="69.01" xlink:href="#hd"/>
<path d="M245.23 69.01v32.20" stroke="currentColor" fill="none"/>
<path fill="currentColor"
	d="M260.13 102.21l28.90 0.00v-3.20l-28.90 -0.00"/>
<use x="264.03" y="84.01" xlink:href="#hl"/>
<use x="264.03" y="78.01" xlink:href="#hl"/>
<use x="264.03" y="78.01" xlink:href="#hd"/>
<path d="M260.53 78.01v23.20" stroke="currentColor" fill="none"/>
<use x="278.13" y="84.01" xlink:href="#hl"/>
<use x="278.13" y="81.01" xlink:href="#hd"/>
<path d="M274.63 81.01v20.20" stroke="currentColor" fill="none"/>
<use x="292.23" y="84.01" xlink:href="#hl"/>
<use x="292.23" y="84.01" xlink:href="#hd"/>
<path d="M288.73 84.01v17.20" stroke="currentColor" fill="none"/>
<path fill="currentColor"
	d="M313.43 106.21l28.40 -3.80v-3.20l-28.40 3.80"/>
<use x="317.33" y="87.01" xlink:href="#hd"/>
<path d="M313.83 87.01v18.20" stroke="currentColor" fill="none"/>
<use x="330.83" y="84.01" xlink:href="#hl"/>
<use x="330.83" y="84.01" xlink:href="#hd"/>
<path d="M327.33 84.01v19.40" stroke="currentColor" fill="none"/>
<use x="344.93" y="84.01" xlink:href="#hl"/>
<use x="344.93" y="81.01" xlink:href="#hd"/>
<path d="M341.43 81.01v20.50" stroke="currentColor" fill="none"/>
<use x="359.73" y="93.01" xlink:href="#hd"/>
<path d="M356.23 93.01v20.00" stroke="currentColor" fill="none"/>
<defs>
<g id="r8">
	<path d="m3.3 -4l-3.4 9.6" stroke="currentColor" fill="none"/>
	<use x="3.4" y="-4" xlink:href="#r8e"/>
</g>
</defs>
<use x="377.63" y="102.01" xlink:href="#r8"/>
<use x="402.73" y="102.01" xlink:href="#r32"/>
<use x="411.73" y="102.01" xlink:href="#r32"/>
<use x="420.73" y="84.01" xlink:href="#hl"/>
<use x="420.73" y="78.01" xlink:href="#hl"/>
<use x="420.73" y="72.01" xlink:href="#hl"/>
<use x="420.73" y="72.01" xlink:href="#hd"/>
<path d="M417.23 72.01v30.00" stroke="currentColor" fill="none"/>
<use x="443.53" y="84.01" xlink:href="#hl"/>
<use x="443.53" y="78.01" xlink:href="#hl"/>
<use x="443.53" y="72.01" xlink:href="#hl"/>
<use x="443.53" y="72.01" xlink:href="#hd"/>
<path d="M440.03 72.01v30.00" stroke="currentColor" fill="none"/>
<path fill="currentColor"
	d="M440.03 102.01c0.9 -3.7 9.1 -6.4 6 -12.4
	c1 5.4 -4.2 8.4 -6 8.4
M440.03 96.61c0.9 -3.7 9.1 -6.4 6 -12.4
	c1 5.4 -4.2 8.4 -6 8.4
"/>
<use x="461.53" y="84.01" xlink:href="#hl"/>
<use x="461.53" y="78.01" xlink:href="#hl"/>
<use x="461.53" y="75.01" xlink:href="#hd"/>
<circle fill="currentColor" cx="469.53" cy="75.01" r="1.2"/>
<defs>
<path id="unat" fill="currentColor" d="
	m96 -750
	h-32
	v716
	l32 -8
	l182 -54
	v282
	h32
	v-706
	l-34 10
	l-180 50
	v-290
	m0 592
	v-190
	l182 -52
	v188"/>
<use id="nt0" transform="translate(-3,5) scale(0.018)"
	xlink:href="#unat"/>
</defs>
<use x="452.53" y="75.01" xlink:href="#nt0"/>
<path d="M458.03 75.01v27.00" stroke="currentColor" fill="none"/>
<use x="494.93" y="102.01" xlink:href="#r32"/>
<use x="504.43" y="84.01" xlink:href="#hl"/>
<use x="504.43" y="78.01" xlink:href="#hl"/>
<use x="504.43" y="78.01" xlink:href="#Hd"/>
<path d="M500.93 78.01v24.00" stroke="currentColor" fill="none"/>
<path fill="currentColor"
	d="M530.43 102.21l18.70 0.00v-3.20l-18.70 -0.00"/>
<path fill="currentColor"
	d="M536.73 97.21l-6.00 -0.00v-3.20l6.00 0.00"/>
<use x="534.23" y="84.01" xlink:href="#hl"/>
<use x="534.23" y="78.01" xlink:href="#hl"/>
<use x="534.23" y="78.01" xlink:href="#hd"/>
<circle fill="currentColor" cx="542.23" cy="75.01" r="1.2"/>
<path d="M530.73 78.01v23.20" stroke="currentColor" fill="none"/>
<use x="552.23" y="84.01" xlink:href="#hl"/>
<use x="552.23" y="81.01" xlink:href="#hd"/>
<path d="M548.73 81.01v20.20" stroke="currentColor" fill="none"/>
<path fill="currentColor"
	d="M573.53 105.01l28.40 0.00v-3.20l-28.40 -0.00"/>
<use x="577.33" y="84.01" xlink:href="#hl"/>
<use x="577.33" y="84.01" xlink:href="#hd"/>
<path d="M573.83 84.01v20.00" stroke="currentColor" fill="none"/>
<use x="591.43" y="84.01" xlink:href="#hl"/>
<use x="591.43" y="81.01" xlink:href="#hd"/>
<path d="M587.93 81.01v23.00" stroke="currentColor" fill="none"/>
<use x="605.03" y="87.01" xlink:href="#hd"/>
<path d="M601.53 87.01v17.00" stroke="currentColor" fill="none"/>
<path fill="currentColor"
	d="M615.93 111.01l27.80 0.00v-3.20l-27.80 -0.00"/>
<use x="619.83" y="90.01" xlink:href="#hd"/>
<path d="M616.33 90.01v20.00" stroke="currentColor" fill="none"/>
<use x="633.33" y="87.01" xlink:href="#hd"/>
<path d="M629.83 87.01v23.00" stroke="currentColor" fill="none"/>
<use x="646.93" y="93.01" xlink:href="#hd"/>
<path d="M643.43 93.01v17.00" stroke="currentColor" fill="none"/>
<use x="672.03" y="102.01" xlink:href="#hd"/>
<circle fill="currentColor" cx="680.03" cy="99.01" r="1.2"/>
<path d="M668.53 102.01v20.00" stroke="currentColor" fill="none"/>
<path fill="currentColor"
	d="M145.13 79.01c3.60 -4.91 19.25 -4.91 22.85 -0.00
	l0.00 -0.22c-4.28 -6.69 -18.56 -6.69 -22.85 0.22"/>
<path fill="currentColor"
	d="M424.23 72.01c2.49 -4.78 13.34 -4.78 15.83 -0.00
	l0.00 -0.22c-2.97 -6.57 -12.86 -6.57 -15.83 0.22"/>
<path fill="currentColor"
	d="M507.93 78.01c3.60 -4.91 19.25 -4.91 22.85 -0.00
	l0.00 -0.22c-4.28 -6.69 -18.56 -6.69 -22.85 0.22"/>
</g>
</svg>
