<?xml version="1.0" standalone="no"?>
<!DOCTYPE svg PUBLIC "-//W3C//DTD SVG 1.1//EN"
	"http://www.w3.org/Graphics/SVG/1.1/DTD/svg11.dtd">
<svg xmlns="http://www.w3.org/2000/svg" version="1.1"
	xmlns:xlink="http://www.w3.org/1999/xlink"
	xml:space='preserve' color="black"
	width="7.38in" height="1.43in" viewBox="0 0 531 103">
<title>7752.abc (7752) tune 1</title>
<!-- Creator: abcm2ps-7.8.14 -->
<!-- CreationDate: Mar 13, 2016 18:54 -->
<!-- CommandLine: -qxg 7752.abc -O ../svgs/7752.svg -->
<g transform="scale(0.750)" stroke-width="0.70" font-family="Times" font-size="20.00">
<text x="354.13" y="21.67" text-anchor="middle">7752.  Quartet in E Minor, 4th. Mvt.</text>
</g>
<g transform="scale(0.750)" stroke-width="0.70" font-family="Times" font-size="14.00" font-style="italic">
<text x="694.93" y="45.34" text-anchor="end">Giuseppe Verdi</text>
</g>
<g transform="scale(0.525)" stroke-width="0.70" font-family="Times" font-size="14.00" font-style="italic">
<defs>
<ellipse id="hd" rx="4.1" ry="2.9"
	transform="rotate(-20)" fill="currentColor"/>
</defs>
<use x="107.04" y="94.16" xlink:href="#hd"/>
<path d="M110.54 94.16v-20.00" stroke="currentColor" fill="none"/>
</g>
<g transform="scale(0.750)" stroke-width="0.70" font-family="Times" font-size="15.00" font-weight="bold">
<text x="82.63" y="68.01">= 120</text>
<path stroke="currentColor" fill="none"
	d="M197.83 114.01v-24.00"/>
<path stroke="currentColor" fill="none"
	d="M341.13 114.01v-24.00"/>
<path stroke="currentColor" fill="none"
	d="M485.13 114.01v-24.00"/>
<path stroke="currentColor" fill="none"
	d="M623.53 114.01v-24.00"/>
<path stroke="currentColor" fill="none"
	d="M13.33 114.01h681.60m-681.60 -6h681.60m-681.60 -6h681.60m-681.60 -6h681.60m-681.60 -6h681.60"/>
<defs>
<path id="utclef" fill="currentColor" d="m-50 -90
	c-72 -41 -72 -158 52 -188
	c150 -10 220 188 90 256
	c-114 52 -275 0 -293 -136
	c-15 -181 93 -229 220 -334
	c88 -87 79 -133 62 -210
	c-51 33 -94 105 -89 186
	c17 267 36 374 49 574
	c6 96 -19 134 -77 135
	c-80 1 -126 -93 -61 -133
	c85 -41 133 101 31 105
	c23 17 92 37 90 -92
	c-10 -223 -39 -342 -50 -617
	c0 -90 0 -162 96 -232
	c56 72 63 230 22 289
	c-74 106 -257 168 -255 316
	c9 153 148 185 252 133
	c86 -65 29 -192 -80 -176
	c-71 12 -105 67 -59 124"/>
<use id="tclef" transform="scale(0.045)"
	xlink:href="#utclef"/>
</defs>
<use x="25.33" y="114.01" xlink:href="#tclef"/>
<defs>
<path id="usharp" fill="currentColor" d="
	m136 -702
	v890
	h32
	v-890
	m128 840
	h32
	v-888
	h-32
	m-232 286
	v116
	l338 -96
	v-116
	m-338 442
	v116
	l338 -98
	v-114"/>
<use id="sh0" transform="translate(-4,5) scale(0.018)"
	xlink:href="#usharp"/>
</defs>
<use x="40.33" y="90.01" xlink:href="#sh0"/>
<g font-family="serif" font-size="16" font-weight="bold" font-style="normal"
	transform="translate(56.33,114.01) scale(1.2,1)">
	<text y="-1" text-anchor="middle">4</text>
	<text y="-13" text-anchor="middle">4</text>
</g>
<defs>
<path id="r8e" fill="currentColor" d="m 0 0
	c-1.5 1.5 -2.4 2 -3.6 2
	c2.4 -2.8 -2.8 -4 -2.8 -1.2
	c0 2.7 4.3 2.4 5.9 0.6"/>
<g id="r8">
	<path d="m3.3 -4l-3.4 9.6" stroke="currentColor" fill="none"/>
	<use x="3.4" y="-4" xlink:href="#r8e"/>
</g>
</defs>
<use x="74.33" y="102.01" xlink:href="#r8"/>
<use x="92.33" y="96.01" xlink:href="#hd"/>
<use x="83.33" y="96.01" xlink:href="#sh0"/>
<path d="M88.83 96.01v20.00" stroke="currentColor" fill="none"/>
<path fill="currentColor"
	d="M88.83 116.01c0.6 -5.6 9.6 -9 5.6 -18.4
	c1.6 6 -1.3 11.6 -5.6 12.8
"/>
<use x="107.53" y="90.01" xlink:href="#hd"/>
<path d="M104.03 90.01v20.00" stroke="currentColor" fill="none"/>
<path fill="currentColor"
	d="M104.03 110.01c0.6 -5.6 9.6 -9 5.6 -18.4
	c1.6 6 -1.3 11.6 -5.6 12.8
"/>
<defs>
<path id="hl" stroke="currentColor" d="m-6 0h12"/>
</defs>
<use x="122.73" y="84.01" xlink:href="#hl"/>
<use x="122.73" y="78.01" xlink:href="#hl"/>
<use x="122.73" y="78.01" xlink:href="#hd"/>
<path d="M119.23 78.01v24.00" stroke="currentColor" fill="none"/>
<path fill="currentColor"
	d="M119.23 102.01c0.6 -5.6 9.6 -9 5.6 -18.4
	c1.6 6 -1.3 11.6 -5.6 12.8
"/>
<use x="138.33" y="84.01" xlink:href="#hl"/>
<use x="138.33" y="78.01" xlink:href="#hl"/>
<use x="138.33" y="78.01" xlink:href="#hd"/>
<path d="M134.83 78.01v24.00" stroke="currentColor" fill="none"/>
<path fill="currentColor"
	d="M134.83 102.01c0.6 -5.6 9.6 -9 5.6 -18.4
	c1.6 6 -1.3 11.6 -5.6 12.8
"/>
<use x="153.93" y="84.01" xlink:href="#hl"/>
<use x="153.93" y="81.01" xlink:href="#hd"/>
<path d="M150.43 81.01v21.00" stroke="currentColor" fill="none"/>
<path fill="currentColor"
	d="M150.43 102.01c0.6 -5.6 9.6 -9 5.6 -18.4
	c1.6 6 -1.3 11.6 -5.6 12.8
"/>
<use x="169.53" y="84.01" xlink:href="#hl"/>
<use x="169.53" y="81.01" xlink:href="#hd"/>
<path d="M166.03 81.01v21.00" stroke="currentColor" fill="none"/>
<path fill="currentColor"
	d="M166.03 102.01c0.6 -5.6 9.6 -9 5.6 -18.4
	c1.6 6 -1.3 11.6 -5.6 12.8
"/>
<use x="185.13" y="84.01" xlink:href="#hl"/>
<use x="185.13" y="84.01" xlink:href="#hd"/>
<path d="M181.63 84.01v20.00" stroke="currentColor" fill="none"/>
<path fill="currentColor"
	d="M181.63 104.01c0.6 -5.6 9.6 -9 5.6 -18.4
	c1.6 6 -1.3 11.6 -5.6 12.8
"/>
<use x="210.33" y="84.01" xlink:href="#hl"/>
<use x="210.33" y="84.01" xlink:href="#hd"/>
<path d="M206.83 84.01v20.00" stroke="currentColor" fill="none"/>
<path fill="currentColor"
	d="M206.83 104.01c0.6 -5.6 9.6 -9 5.6 -18.4
	c1.6 6 -1.3 11.6 -5.6 12.8
"/>
<use x="228.33" y="87.01" xlink:href="#hd"/>
<use x="219.33" y="87.01" xlink:href="#sh0"/>
<path d="M224.83 87.01v20.00" stroke="currentColor" fill="none"/>
<path fill="currentColor"
	d="M224.83 107.01c0.6 -5.6 9.6 -9 5.6 -18.4
	c1.6 6 -1.3 11.6 -5.6 12.8
"/>
<use x="246.33" y="87.01" xlink:href="#hd"/>
<use x="237.33" y="87.01" xlink:href="#sh0"/>
<path d="M242.83 87.01v20.00" stroke="currentColor" fill="none"/>
<path fill="currentColor"
	d="M242.83 107.01c0.6 -5.6 9.6 -9 5.6 -18.4
	c1.6 6 -1.3 11.6 -5.6 12.8
"/>
<use x="261.53" y="84.01" xlink:href="#hl"/>
<use x="261.53" y="84.01" xlink:href="#hd"/>
<path d="M258.03 84.01v20.00" stroke="currentColor" fill="none"/>
<path fill="currentColor"
	d="M258.03 104.01c0.6 -5.6 9.6 -9 5.6 -18.4
	c1.6 6 -1.3 11.6 -5.6 12.8
"/>
<use x="277.13" y="84.01" xlink:href="#hl"/>
<use x="277.13" y="84.01" xlink:href="#hd"/>
<path d="M273.63 84.01v20.00" stroke="currentColor" fill="none"/>
<path fill="currentColor"
	d="M273.63 104.01c0.6 -5.6 9.6 -9 5.6 -18.4
	c1.6 6 -1.3 11.6 -5.6 12.8
"/>
<use x="295.13" y="87.01" xlink:href="#hd"/>
<use x="286.13" y="87.01" xlink:href="#sh0"/>
<path d="M291.63 87.01v20.00" stroke="currentColor" fill="none"/>
<path fill="currentColor"
	d="M291.63 107.01c0.6 -5.6 9.6 -9 5.6 -18.4
	c1.6 6 -1.3 11.6 -5.6 12.8
"/>
<use x="313.13" y="87.01" xlink:href="#hd"/>
<use x="304.13" y="87.01" xlink:href="#sh0"/>
<path d="M309.63 87.01v20.00" stroke="currentColor" fill="none"/>
<path fill="currentColor"
	d="M309.63 107.01c0.6 -5.6 9.6 -9 5.6 -18.4
	c1.6 6 -1.3 11.6 -5.6 12.8
"/>
<use x="328.33" y="84.01" xlink:href="#hl"/>
<use x="328.33" y="81.01" xlink:href="#hd"/>
<path d="M324.83 81.01v21.00" stroke="currentColor" fill="none"/>
<path fill="currentColor"
	d="M324.83 102.01c0.6 -5.6 9.6 -9 5.6 -18.4
	c1.6 6 -1.3 11.6 -5.6 12.8
"/>
<use x="353.63" y="84.01" xlink:href="#hl"/>
<use x="353.63" y="81.01" xlink:href="#hd"/>
<path d="M350.13 81.01v21.00" stroke="currentColor" fill="none"/>
<path fill="currentColor"
	d="M350.13 102.01c0.6 -5.6 9.6 -9 5.6 -18.4
	c1.6 6 -1.3 11.6 -5.6 12.8
"/>
<use x="371.63" y="84.01" xlink:href="#hl"/>
<use x="371.63" y="84.01" xlink:href="#hd"/>
<use x="362.63" y="84.01" xlink:href="#sh0"/>
<path d="M368.13 84.01v20.00" stroke="currentColor" fill="none"/>
<path fill="currentColor"
	d="M368.13 104.01c0.6 -5.6 9.6 -9 5.6 -18.4
	c1.6 6 -1.3 11.6 -5.6 12.8
"/>
<use x="389.63" y="84.01" xlink:href="#hl"/>
<use x="389.63" y="78.01" xlink:href="#hl"/>
<use x="389.63" y="78.01" xlink:href="#hd"/>
<use x="380.63" y="78.01" xlink:href="#sh0"/>
<path d="M386.13 78.01v24.00" stroke="currentColor" fill="none"/>
<path fill="currentColor"
	d="M386.13 102.01c0.6 -5.6 9.6 -9 5.6 -18.4
	c1.6 6 -1.3 11.6 -5.6 12.8
"/>
<use x="405.13" y="84.01" xlink:href="#hl"/>
<use x="405.13" y="78.01" xlink:href="#hl"/>
<use x="405.13" y="72.01" xlink:href="#hl"/>
<use x="405.13" y="72.01" xlink:href="#hd"/>
<path d="M401.63 72.01v30.00" stroke="currentColor" fill="none"/>
<path fill="currentColor"
	d="M401.63 102.01c0.6 -5.6 9.6 -9 5.6 -18.4
	c1.6 6 -1.3 11.6 -5.6 12.8
"/>
<use x="423.13" y="84.01" xlink:href="#hl"/>
<use x="423.13" y="78.01" xlink:href="#hl"/>
<use x="423.13" y="72.01" xlink:href="#hl"/>
<use x="423.13" y="66.01" xlink:href="#hl"/>
<use x="423.13" y="66.01" xlink:href="#hd"/>
<defs>
<path id="unat" fill="currentColor" d="
	m96 -750
	h-32
	v716
	l32 -8
	l182 -54
	v282
	h32
	v-706
	l-34 10
	l-180 50
	v-290
	m0 592
	v-190
	l182 -52
	v188"/>
<use id="nt0" transform="translate(-3,5) scale(0.018)"
	xlink:href="#unat"/>
</defs>
<use x="414.13" y="66.01" xlink:href="#nt0"/>
<path d="M419.63 66.01v36.00" stroke="currentColor" fill="none"/>
<path fill="currentColor"
	d="M419.63 102.01c0.6 -5.6 9.6 -9 5.6 -18.4
	c1.6 6 -1.3 11.6 -5.6 12.8
"/>
<use x="438.73" y="84.01" xlink:href="#hl"/>
<use x="438.73" y="78.01" xlink:href="#hl"/>
<use x="438.73" y="72.01" xlink:href="#hl"/>
<use x="438.73" y="69.01" xlink:href="#hd"/>
<path d="M435.23 69.01v33.00" stroke="currentColor" fill="none"/>
<path fill="currentColor"
	d="M435.23 102.01c0.6 -5.6 9.6 -9 5.6 -18.4
	c1.6 6 -1.3 11.6 -5.6 12.8
"/>
<use x="456.73" y="84.01" xlink:href="#hl"/>
<use x="456.73" y="78.01" xlink:href="#hl"/>
<use x="456.73" y="75.01" xlink:href="#hd"/>
<use x="447.73" y="75.01" xlink:href="#sh0"/>
<path d="M453.23 75.01v27.00" stroke="currentColor" fill="none"/>
<path fill="currentColor"
	d="M453.23 102.01c0.6 -5.6 9.6 -9 5.6 -18.4
	c1.6 6 -1.3 11.6 -5.6 12.8
"/>
<use x="472.33" y="84.01" xlink:href="#hl"/>
<use x="472.33" y="81.01" xlink:href="#hd"/>
<path d="M468.83 81.01v21.00" stroke="currentColor" fill="none"/>
<path fill="currentColor"
	d="M468.83 102.01c0.6 -5.6 9.6 -9 5.6 -18.4
	c1.6 6 -1.3 11.6 -5.6 12.8
"/>
<use x="497.63" y="84.01" xlink:href="#hl"/>
<use x="497.63" y="78.01" xlink:href="#hl"/>
<use x="497.63" y="72.01" xlink:href="#hl"/>
<use x="497.63" y="69.01" xlink:href="#hd"/>
<path d="M494.13 69.01v33.00" stroke="currentColor" fill="none"/>
<path fill="currentColor"
	d="M494.13 102.01c0.6 -5.6 9.6 -9 5.6 -18.4
	c1.6 6 -1.3 11.6 -5.6 12.8
"/>
<use x="513.13" y="84.01" xlink:href="#hl"/>
<use x="513.13" y="78.01" xlink:href="#hl"/>
<use x="513.13" y="72.01" xlink:href="#hl"/>
<use x="513.13" y="72.01" xlink:href="#hd"/>
<path d="M509.63 72.01v30.00" stroke="currentColor" fill="none"/>
<path fill="currentColor"
	d="M509.63 102.01c0.6 -5.6 9.6 -9 5.6 -18.4
	c1.6 6 -1.3 11.6 -5.6 12.8
"/>
<use x="528.73" y="84.01" xlink:href="#hl"/>
<use x="528.73" y="81.01" xlink:href="#hd"/>
<path d="M525.23 81.01v21.00" stroke="currentColor" fill="none"/>
<path fill="currentColor"
	d="M525.23 102.01c0.6 -5.6 9.6 -9 5.6 -18.4
	c1.6 6 -1.3 11.6 -5.6 12.8
"/>
<use x="546.73" y="84.01" xlink:href="#hl"/>
<use x="546.73" y="78.01" xlink:href="#hl"/>
<use x="546.73" y="75.01" xlink:href="#hd"/>
<use x="537.73" y="75.01" xlink:href="#nt0"/>
<path d="M543.23 75.01v27.00" stroke="currentColor" fill="none"/>
<path fill="currentColor"
	d="M543.23 102.01c0.6 -5.6 9.6 -9 5.6 -18.4
	c1.6 6 -1.3 11.6 -5.6 12.8
"/>
<use x="562.33" y="84.01" xlink:href="#hl"/>
<use x="562.33" y="78.01" xlink:href="#hl"/>
<use x="562.33" y="75.01" xlink:href="#hd"/>
<path d="M558.83 75.01v27.00" stroke="currentColor" fill="none"/>
<path fill="currentColor"
	d="M558.83 102.01c0.6 -5.6 9.6 -9 5.6 -18.4
	c1.6 6 -1.3 11.6 -5.6 12.8
"/>
<use x="580.33" y="84.01" xlink:href="#hl"/>
<use x="580.33" y="78.01" xlink:href="#hl"/>
<use x="580.33" y="78.01" xlink:href="#hd"/>
<use x="571.33" y="78.01" xlink:href="#nt0"/>
<path d="M576.83 78.01v24.00" stroke="currentColor" fill="none"/>
<path fill="currentColor"
	d="M576.83 102.01c0.6 -5.6 9.6 -9 5.6 -18.4
	c1.6 6 -1.3 11.6 -5.6 12.8
"/>
<use x="595.53" y="90.01" xlink:href="#hd"/>
<path d="M592.03 90.01v20.00" stroke="currentColor" fill="none"/>
<path fill="currentColor"
	d="M592.03 110.01c0.6 -5.6 9.6 -9 5.6 -18.4
	c1.6 6 -1.3 11.6 -5.6 12.8
"/>
<use x="610.73" y="84.01" xlink:href="#hl"/>
<use x="610.73" y="78.01" xlink:href="#hl"/>
<use x="610.73" y="78.01" xlink:href="#hd"/>
<path d="M607.23 78.01v24.00" stroke="currentColor" fill="none"/>
<path fill="currentColor"
	d="M607.23 102.01c0.6 -5.6 9.6 -9 5.6 -18.4
	c1.6 6 -1.3 11.6 -5.6 12.8
"/>
<use x="636.03" y="84.01" xlink:href="#hl"/>
<use x="636.03" y="78.01" xlink:href="#hl"/>
<use x="636.03" y="78.01" xlink:href="#hd"/>
<path d="M632.53 78.01v24.00" stroke="currentColor" fill="none"/>
<path fill="currentColor"
	d="M632.53 102.01c0.6 -5.6 9.6 -9 5.6 -18.4
	c1.6 6 -1.3 11.6 -5.6 12.8
"/>
<use x="651.63" y="84.01" xlink:href="#hl"/>
<use x="651.63" y="81.01" xlink:href="#hd"/>
<path d="M648.13 81.01v21.00" stroke="currentColor" fill="none"/>
<path fill="currentColor"
	d="M648.13 102.01c0.6 -5.6 9.6 -9 5.6 -18.4
	c1.6 6 -1.3 11.6 -5.6 12.8
"/>
<use x="666.83" y="93.01" xlink:href="#hd"/>
<path d="M663.33 93.01v20.00" stroke="currentColor" fill="none"/>
<path fill="currentColor"
	d="M663.33 113.01c0.6 -5.6 9.6 -9 5.6 -18.4
	c1.6 6 -1.3 11.6 -5.6 12.8
"/>
<use x="682.03" y="87.01" xlink:href="#hd"/>
<path d="M678.53 87.01v20.00" stroke="currentColor" fill="none"/>
<path fill="currentColor"
	d="M678.53 107.01c0.6 -5.6 9.6 -9 5.6 -18.4
	c1.6 6 -1.3 11.6 -5.6 12.8
"/>
</g>
</svg>
