<?xml version="1.0" standalone="no"?>
<!DOCTYPE svg PUBLIC "-//W3C//DTD SVG 1.1//EN"
	"http://www.w3.org/Graphics/SVG/1.1/DTD/svg11.dtd">
<svg xmlns="http://www.w3.org/2000/svg" version="1.1"
	xmlns:xlink="http://www.w3.org/1999/xlink"
	xml:space='preserve' color="black"
	width="7.38in" height="1.61in" viewBox="0 0 531 116">
<title>7758.abc (7758) tune 1</title>
<!-- Creator: abcm2ps-7.8.14 -->
<!-- CreationDate: Mar 13, 2016 18:54 -->
<!-- CommandLine: -qxg 7758.abc -O ../svgs/7758.svg -->
<g transform="scale(0.750)" stroke-width="0.70" font-family="Times" font-size="20.00">
<text x="354.13" y="21.67" text-anchor="middle">7758.  Ballade et Polonaise, Op. 38, 2nd. Theme</text>
</g>
<g transform="scale(0.750)" stroke-width="0.70" font-family="Times" font-size="14.00" font-style="italic">
<text x="694.93" y="45.34" text-anchor="end">Henri Vieuxtemps</text>
</g>
<g transform="scale(0.525)" stroke-width="0.70" font-family="Times" font-size="14.00" font-style="italic">
<defs>
<ellipse id="hd" rx="4.1" ry="2.9"
	transform="rotate(-20)" fill="currentColor"/>
</defs>
<use x="107.04" y="94.16" xlink:href="#hd"/>
<path d="M110.54 94.16v-20.00" stroke="currentColor" fill="none"/>
</g>
<g transform="scale(0.750)" stroke-width="0.70" font-family="Times" font-size="15.00" font-weight="bold">
<text x="82.63" y="68.01">= 120</text>
<path stroke="currentColor" fill="none"
	d="M258.23 132.01v-24.00"/>
<path stroke="currentColor" fill="none"
	d="M413.53 132.01v-24.00"/>
<path stroke="currentColor" fill="none"
	d="M568.13 132.01v-24.00"/>
<path stroke="currentColor" fill="none"
	d="M13.33 132.01h681.60m-681.60 -6h681.60m-681.60 -6h681.60m-681.60 -6h681.60m-681.60 -6h681.60"/>
<defs>
<path id="utclef" fill="currentColor" d="m-50 -90
	c-72 -41 -72 -158 52 -188
	c150 -10 220 188 90 256
	c-114 52 -275 0 -293 -136
	c-15 -181 93 -229 220 -334
	c88 -87 79 -133 62 -210
	c-51 33 -94 105 -89 186
	c17 267 36 374 49 574
	c6 96 -19 134 -77 135
	c-80 1 -126 -93 -61 -133
	c85 -41 133 101 31 105
	c23 17 92 37 90 -92
	c-10 -223 -39 -342 -50 -617
	c0 -90 0 -162 96 -232
	c56 72 63 230 22 289
	c-74 106 -257 168 -255 316
	c9 153 148 185 252 133
	c86 -65 29 -192 -80 -176
	c-71 12 -105 67 -59 124"/>
<use id="tclef" transform="scale(0.045)"
	xlink:href="#utclef"/>
</defs>
<use x="25.33" y="132.01" xlink:href="#tclef"/>
<defs>
<path id="usharp" fill="currentColor" d="
	m136 -702
	v890
	h32
	v-890
	m128 840
	h32
	v-888
	h-32
	m-232 286
	v116
	l338 -96
	v-116
	m-338 442
	v116
	l338 -98
	v-114"/>
<use id="sh0" transform="translate(-4,5) scale(0.018)"
	xlink:href="#usharp"/>
</defs>
<use x="40.33" y="108.01" xlink:href="#sh0"/>
<g font-family="serif" font-size="16" font-weight="bold" font-style="normal"
	transform="translate(56.33,132.01) scale(1.2,1)">
	<text y="-1" text-anchor="middle">4</text>
	<text y="-13" text-anchor="middle">3</text>
</g>
<defs>
<path id="hl" stroke="currentColor" d="m-6 0h12"/>
</defs>
<use x="74.33" y="102.01" xlink:href="#hl"/>
<use x="74.33" y="96.01" xlink:href="#hl"/>
<use x="74.33" y="90.01" xlink:href="#hl"/>
<use x="74.33" y="84.01" xlink:href="#hl"/>
<use x="74.33" y="78.01" xlink:href="#hl"/>
<use x="74.33" y="78.01" xlink:href="#hd"/>
<path d="M70.83 78.01v42.00" stroke="currentColor" fill="none"/>
<path fill="currentColor"
	d="M70.83 120.01c0.6 -5.6 9.6 -9 5.6 -18.4
	c1.6 6 -1.3 11.6 -5.6 12.8
"/>
<defs>
<path id="r8e" fill="currentColor" d="m 0 0
	c-1.5 1.5 -2.4 2 -3.6 2
	c2.4 -2.8 -2.8 -4 -2.8 -1.2
	c0 2.7 4.3 2.4 5.9 0.6"/>
<g id="r16">
	<path d="m3.3 -4l-4 15.6" stroke="currentColor" fill="none"/>
	<use x="3.4" y="-4" xlink:href="#r8e"/>
	<use x="1.9" y="2" xlink:href="#r8e"/>
</g>
</defs>
<use x="98.13" y="120.01" xlink:href="#r16"/>
<use x="116.73" y="102.01" xlink:href="#hl"/>
<use x="116.73" y="96.01" xlink:href="#hl"/>
<use x="116.73" y="90.01" xlink:href="#hl"/>
<use x="116.73" y="84.01" xlink:href="#hl"/>
<use x="116.73" y="78.01" xlink:href="#hl"/>
<use x="116.73" y="78.01" xlink:href="#hd"/>
<circle fill="currentColor" cx="124.73" cy="75.01" r="1.2"/>
<path d="M113.23 78.01v42.00" stroke="currentColor" fill="none"/>
<path fill="currentColor"
	d="M113.23 120.01c0.6 -5.6 9.6 -9 5.6 -18.4
	c1.6 6 -1.3 11.6 -5.6 12.8
"/>
<defs>
<g id="r32">
	<path d="m4.8 -10l-5.5 21.6" stroke="currentColor" fill="none"/>
	<use x="4.9" y="-10" xlink:href="#r8e"/>
	<use x="3.4" y="-4" xlink:href="#r8e"/>
	<use x="1.9" y="2" xlink:href="#r8e"/>
</g>
</defs>
<use x="143.93" y="120.01" xlink:href="#r32"/>
<path fill="currentColor"
	d="M158.03 120.21l29.50 0.00v-3.20l-29.50 -0.00"/>
<path fill="currentColor"
	d="M158.43 115.21l28.80 0.00v-3.20l-28.80 -0.00"/>
<path fill="currentColor"
	d="M164.43 110.21l-6.00 -0.00v-3.20l6.00 0.00"/>
<use x="161.93" y="102.01" xlink:href="#hl"/>
<use x="161.93" y="96.01" xlink:href="#hl"/>
<use x="161.93" y="90.01" xlink:href="#hl"/>
<use x="161.93" y="84.01" xlink:href="#hl"/>
<use x="161.93" y="81.01" xlink:href="#hd"/>
<use x="152.93" y="81.01" xlink:href="#sh0"/>
<path d="M158.43 81.01v38.20" stroke="currentColor" fill="none"/>
<use x="173.93" y="102.01" xlink:href="#hl"/>
<use x="173.93" y="96.01" xlink:href="#hl"/>
<use x="173.93" y="90.01" xlink:href="#hl"/>
<use x="173.93" y="84.01" xlink:href="#hl"/>
<use x="173.93" y="78.01" xlink:href="#hl"/>
<use x="173.93" y="78.01" xlink:href="#hd"/>
<path d="M170.43 78.01v41.20" stroke="currentColor" fill="none"/>
<use x="190.73" y="102.01" xlink:href="#hl"/>
<use x="190.73" y="96.01" xlink:href="#hl"/>
<use x="190.73" y="90.01" xlink:href="#hl"/>
<use x="190.73" y="84.01" xlink:href="#hl"/>
<use x="190.73" y="78.01" xlink:href="#hl"/>
<use x="190.73" y="75.01" xlink:href="#hd"/>
<path d="M187.23 75.01v44.20" stroke="currentColor" fill="none"/>
<path fill="currentColor"
	d="M205.63 120.21l34.40 0.00v-3.20l-34.40 -0.00"/>
<path fill="currentColor"
	d="M205.93 115.21l33.70 0.00v-3.20l-33.70 -0.00"/>
<use x="209.43" y="102.01" xlink:href="#hl"/>
<use x="209.43" y="96.01" xlink:href="#hl"/>
<use x="209.43" y="90.01" xlink:href="#hl"/>
<use x="209.43" y="84.01" xlink:href="#hl"/>
<use x="209.43" y="78.01" xlink:href="#hl"/>
<use x="209.43" y="78.01" xlink:href="#hd"/>
<path d="M205.93 78.01v41.20" stroke="currentColor" fill="none"/>
<use x="226.33" y="102.01" xlink:href="#hl"/>
<use x="226.33" y="96.01" xlink:href="#hl"/>
<use x="226.33" y="90.01" xlink:href="#hl"/>
<use x="226.33" y="84.01" xlink:href="#hl"/>
<use x="226.33" y="78.01" xlink:href="#hl"/>
<use x="226.33" y="78.01" xlink:href="#hd"/>
<path d="M222.83 78.01v41.20" stroke="currentColor" fill="none"/>
<use x="243.23" y="102.01" xlink:href="#hl"/>
<use x="243.23" y="96.01" xlink:href="#hl"/>
<use x="243.23" y="90.01" xlink:href="#hl"/>
<use x="243.23" y="84.01" xlink:href="#hl"/>
<use x="243.23" y="84.01" xlink:href="#hd"/>
<path d="M239.73 84.01v35.20" stroke="currentColor" fill="none"/>
<path fill="currentColor"
	d="M267.63 144.21l41.50 0.00v-3.20l-41.50 -0.00"/>
<path fill="currentColor"
	d="M268.03 139.21l40.80 0.00v-3.20l-40.80 -0.00"/>
<path fill="currentColor"
	d="M268.03 134.21l12.00 0.00v-3.20l-12.00 -0.00"/>
<use x="271.53" y="102.01" xlink:href="#hl"/>
<use x="271.53" y="96.01" xlink:href="#hl"/>
<use x="271.53" y="90.01" xlink:href="#hl"/>
<use x="271.53" y="84.01" xlink:href="#hl"/>
<use x="271.53" y="78.01" xlink:href="#hl"/>
<use x="271.53" y="72.01" xlink:href="#hl"/>
<use x="271.53" y="66.01" xlink:href="#hl"/>
<use x="271.53" y="66.01" xlink:href="#hd"/>
<path d="M268.03 66.01v77.20" stroke="currentColor" fill="none"/>
<use x="283.53" y="102.01" xlink:href="#hl"/>
<use x="283.53" y="96.01" xlink:href="#hl"/>
<use x="283.53" y="90.01" xlink:href="#hl"/>
<use x="283.53" y="84.01" xlink:href="#hl"/>
<use x="283.53" y="78.01" xlink:href="#hl"/>
<use x="283.53" y="72.01" xlink:href="#hl"/>
<use x="283.53" y="66.01" xlink:href="#hl"/>
<use x="283.53" y="63.01" xlink:href="#hd"/>
<path d="M280.03 63.01v80.20" stroke="currentColor" fill="none"/>
<use x="295.43" y="120.01" xlink:href="#r16"/>
<use x="312.23" y="102.01" xlink:href="#hl"/>
<use x="312.23" y="96.01" xlink:href="#hl"/>
<use x="312.23" y="90.01" xlink:href="#hl"/>
<use x="312.23" y="84.01" xlink:href="#hl"/>
<use x="312.23" y="78.01" xlink:href="#hl"/>
<use x="312.23" y="72.01" xlink:href="#hl"/>
<use x="312.23" y="69.01" xlink:href="#hd"/>
<path d="M308.73 69.01v74.20" stroke="currentColor" fill="none"/>
<use x="331.03" y="102.01" xlink:href="#hl"/>
<use x="331.03" y="96.01" xlink:href="#hl"/>
<use x="331.03" y="90.01" xlink:href="#hl"/>
<use x="331.03" y="90.01" xlink:href="#hd"/>
<path d="M327.53 90.01v30.00" stroke="currentColor" fill="none"/>
<path fill="currentColor"
	d="M327.53 120.01c0.9 -3.7 9.1 -6.4 6 -12.4
	c1 5.4 -4.2 8.4 -6 8.4
M327.53 114.61c0.9 -3.7 9.1 -6.4 6 -12.4
	c1 5.4 -4.2 8.4 -6 8.4
"/>
<use x="349.83" y="102.01" xlink:href="#hl"/>
<use x="349.83" y="96.01" xlink:href="#hl"/>
<use x="349.83" y="90.01" xlink:href="#hl"/>
<use x="349.83" y="84.01" xlink:href="#hl"/>
<use x="349.83" y="81.01" xlink:href="#hd"/>
<circle fill="currentColor" cx="357.83" cy="81.01" r="1.2"/>
<defs>
<path id="unat" fill="currentColor" d="
	m96 -750
	h-32
	v716
	l32 -8
	l182 -54
	v282
	h32
	v-706
	l-34 10
	l-180 50
	v-290
	m0 592
	v-190
	l182 -52
	v188"/>
<use id="nt0" transform="translate(-3,5) scale(0.018)"
	xlink:href="#unat"/>
</defs>
<use x="340.83" y="81.01" xlink:href="#nt0"/>
<path d="M346.33 81.01v39.00" stroke="currentColor" fill="none"/>
<use x="392.33" y="102.01" xlink:href="#hl"/>
<use x="392.33" y="96.01" xlink:href="#hl"/>
<use x="392.33" y="90.01" xlink:href="#hl"/>
<use x="392.33" y="84.01" xlink:href="#hl"/>
<use x="392.33" y="84.01" xlink:href="#hd"/>
<path d="M388.83 84.01v36.00" stroke="currentColor" fill="none"/>
<path fill="currentColor"
	d="M388.83 120.01c0.6 -5.6 9.6 -9 5.6 -18.4
	c1.6 6 -1.3 11.6 -5.6 12.8
"/>
<use x="426.83" y="102.01" xlink:href="#hl"/>
<use x="426.83" y="96.01" xlink:href="#hl"/>
<use x="426.83" y="90.01" xlink:href="#hl"/>
<use x="426.83" y="87.01" xlink:href="#hd"/>
<path d="M423.33 87.01v33.00" stroke="currentColor" fill="none"/>
<path fill="currentColor"
	d="M423.33 120.01c0.6 -5.6 9.6 -9 5.6 -18.4
	c1.6 6 -1.3 11.6 -5.6 12.8
"/>
<use x="450.53" y="120.01" xlink:href="#r16"/>
<use x="469.23" y="102.01" xlink:href="#hl"/>
<use x="469.23" y="96.01" xlink:href="#hl"/>
<use x="469.23" y="90.01" xlink:href="#hl"/>
<use x="469.23" y="87.01" xlink:href="#hd"/>
<circle fill="currentColor" cx="477.23" cy="87.01" r="1.2"/>
<path d="M465.73 87.01v33.00" stroke="currentColor" fill="none"/>
<path fill="currentColor"
	d="M465.73 120.01c0.6 -5.6 9.6 -9 5.6 -18.4
	c1.6 6 -1.3 11.6 -5.6 12.8
"/>
<path fill="currentColor"
	d="M495.53 120.21l48.30 0.00v-3.20l-48.30 -0.00"/>
<use x="499.43" y="102.01" xlink:href="#hl"/>
<use x="499.43" y="96.01" xlink:href="#hl"/>
<use x="499.43" y="90.01" xlink:href="#hl"/>
<use x="499.43" y="84.01" xlink:href="#hl"/>
<use x="499.43" y="81.01" xlink:href="#hd"/>
<path d="M495.93 81.01v38.20" stroke="currentColor" fill="none"/>
<use x="523.23" y="102.01" xlink:href="#hl"/>
<use x="523.23" y="96.01" xlink:href="#hl"/>
<use x="523.23" y="90.01" xlink:href="#hl"/>
<use x="523.23" y="84.01" xlink:href="#hl"/>
<use x="523.23" y="78.01" xlink:href="#hl"/>
<use x="523.23" y="75.01" xlink:href="#hd"/>
<path d="M519.73 75.01v44.20" stroke="currentColor" fill="none"/>
<use x="546.93" y="102.01" xlink:href="#hl"/>
<use x="546.93" y="96.01" xlink:href="#hl"/>
<use x="546.93" y="90.01" xlink:href="#hl"/>
<use x="546.93" y="84.01" xlink:href="#hl"/>
<use x="546.93" y="78.01" xlink:href="#hl"/>
<use x="546.93" y="72.01" xlink:href="#hl"/>
<use x="546.93" y="69.01" xlink:href="#hd"/>
<path d="M543.43 69.01v50.20" stroke="currentColor" fill="none"/>
<path fill="currentColor"
	d="M577.63 120.21l34.40 0.00v-3.20l-34.40 -0.00"/>
<path fill="currentColor"
	d="M577.93 115.21l33.70 0.00v-3.20l-33.70 -0.00"/>
<use x="581.43" y="102.01" xlink:href="#hl"/>
<use x="581.43" y="96.01" xlink:href="#hl"/>
<use x="581.43" y="90.01" xlink:href="#hl"/>
<use x="581.43" y="84.01" xlink:href="#hl"/>
<use x="581.43" y="78.01" xlink:href="#hl"/>
<use x="581.43" y="72.01" xlink:href="#hl"/>
<use x="581.43" y="69.01" xlink:href="#hd"/>
<path d="M577.93 69.01v50.20" stroke="currentColor" fill="none"/>
<use x="598.33" y="102.01" xlink:href="#hl"/>
<use x="598.33" y="96.01" xlink:href="#hl"/>
<use x="598.33" y="90.01" xlink:href="#hl"/>
<use x="598.33" y="84.01" xlink:href="#hl"/>
<use x="598.33" y="78.01" xlink:href="#hl"/>
<use x="598.33" y="72.01" xlink:href="#hl"/>
<use x="598.33" y="72.01" xlink:href="#hd"/>
<path d="M594.83 72.01v47.20" stroke="currentColor" fill="none"/>
<use x="615.13" y="102.01" xlink:href="#hl"/>
<use x="615.13" y="96.01" xlink:href="#hl"/>
<use x="615.13" y="90.01" xlink:href="#hl"/>
<use x="615.13" y="84.01" xlink:href="#hl"/>
<use x="615.13" y="78.01" xlink:href="#hl"/>
<use x="615.13" y="72.01" xlink:href="#hl"/>
<use x="615.13" y="72.01" xlink:href="#hd"/>
<path d="M611.63 72.01v47.20" stroke="currentColor" fill="none"/>
<use x="634.03" y="102.01" xlink:href="#hl"/>
<use x="634.03" y="96.01" xlink:href="#hl"/>
<use x="634.03" y="90.01" xlink:href="#hl"/>
<use x="634.03" y="84.01" xlink:href="#hl"/>
<use x="634.03" y="78.01" xlink:href="#hl"/>
<use x="634.03" y="75.01" xlink:href="#hd"/>
<use x="625.03" y="75.01" xlink:href="#sh0"/>
<path d="M630.53 75.01v45.00" stroke="currentColor" fill="none"/>
<path fill="currentColor"
	d="M630.53 120.01c0.9 -3.7 9.1 -6.4 6 -12.4
	c1 5.4 -4.2 8.4 -6 8.4
M630.53 114.61c0.9 -3.7 9.1 -6.4 6 -12.4
	c1 5.4 -4.2 8.4 -6 8.4
"/>
<use x="652.73" y="102.01" xlink:href="#hl"/>
<use x="652.73" y="96.01" xlink:href="#hl"/>
<use x="652.73" y="90.01" xlink:href="#hl"/>
<use x="652.73" y="84.01" xlink:href="#hl"/>
<use x="652.73" y="78.01" xlink:href="#hl"/>
<use x="652.73" y="72.01" xlink:href="#hl"/>
<use x="652.73" y="72.01" xlink:href="#hd"/>
<circle fill="currentColor" cx="660.73" cy="69.01" r="1.2"/>
<path d="M649.23 72.01v48.00" stroke="currentColor" fill="none"/>
</g>
</svg>
