<?xml version="1.0" standalone="no"?>
<!DOCTYPE svg PUBLIC "-//W3C//DTD SVG 1.1//EN"
	"http://www.w3.org/Graphics/SVG/1.1/DTD/svg11.dtd">
<svg xmlns="http://www.w3.org/2000/svg" version="1.1"
	xmlns:xlink="http://www.w3.org/1999/xlink"
	xml:space='preserve' color="black"
	width="7.38in" height="1.60in" viewBox="0 0 531 116">
<title>7763.abc (7763) tune 1</title>
<!-- Creator: abcm2ps-7.8.14 -->
<!-- CreationDate: Mar 13, 2016 18:54 -->
<!-- CommandLine: -qxg 7763.abc -O ../svgs/7763.svg -->
<g transform="scale(0.750)" stroke-width="0.70" font-family="Times" font-size="20.00">
<text x="354.13" y="21.67" text-anchor="middle">7763.  Concerto No. 4 in D Minor, 1st. Mvt. - 1st. Theme B</text>
</g>
<g transform="scale(0.750)" stroke-width="0.70" font-family="Times" font-size="14.00" font-style="italic">
<text x="694.93" y="45.34" text-anchor="end">Henri Vieuxtemps</text>
</g>
<g transform="scale(0.525)" stroke-width="0.70" font-family="Times" font-size="14.00" font-style="italic">
<defs>
<ellipse id="hd" rx="4.1" ry="2.9"
	transform="rotate(-20)" fill="currentColor"/>
</defs>
<use x="107.04" y="94.16" xlink:href="#hd"/>
<path d="M110.54 94.16v-20.00" stroke="currentColor" fill="none"/>
</g>
<g transform="scale(0.750)" stroke-width="0.70" font-family="Times" font-size="15.00" font-weight="bold">
<text x="82.63" y="68.01">= 120</text>
<path stroke="currentColor" fill="none"
	d="M321.83 131.01v-24.00"/>
<path stroke="currentColor" fill="none"
	d="M492.13 131.01v-24.00"/>
<path stroke="currentColor" fill="none"
	d="M13.33 131.01h681.60m-681.60 -6h681.60m-681.60 -6h681.60m-681.60 -6h681.60m-681.60 -6h681.60"/>
<defs>
<path id="utclef" fill="currentColor" d="m-50 -90
	c-72 -41 -72 -158 52 -188
	c150 -10 220 188 90 256
	c-114 52 -275 0 -293 -136
	c-15 -181 93 -229 220 -334
	c88 -87 79 -133 62 -210
	c-51 33 -94 105 -89 186
	c17 267 36 374 49 574
	c6 96 -19 134 -77 135
	c-80 1 -126 -93 -61 -133
	c85 -41 133 101 31 105
	c23 17 92 37 90 -92
	c-10 -223 -39 -342 -50 -617
	c0 -90 0 -162 96 -232
	c56 72 63 230 22 289
	c-74 106 -257 168 -255 316
	c9 153 148 185 252 133
	c86 -65 29 -192 -80 -176
	c-71 12 -105 67 -59 124"/>
<use id="tclef" transform="scale(0.045)"
	xlink:href="#utclef"/>
</defs>
<use x="25.33" y="131.01" xlink:href="#tclef"/>
<defs>
<path id="uflat" fill="currentColor" d="
	m100 -746
	h32
	v734
	l-32 4
	m32 -332
	c46 -72 152 -90 208 -20
	c100 110 -120 326 -208 348
	m0 -28
	c54 0 200 -206 130 -290
	c-50 -60 -130 -4 -130 34"/>
<use id="ft0" transform="translate(-3.5,3.5) scale(0.018)"
	xlink:href="#uflat"/>
</defs>
<use x="40.33" y="119.01" xlink:href="#ft0"/>
<g font-family="serif" font-size="16" font-weight="bold" font-style="normal"
	transform="translate(56.33,131.01) scale(1.2,1)">
	<text y="-1" text-anchor="middle">4</text>
	<text y="-13" text-anchor="middle">4</text>
</g>
<defs>
<path id="hl" stroke="currentColor" d="m-6 0h12"/>
</defs>
<use x="74.33" y="101.01" xlink:href="#hl"/>
<use x="74.33" y="95.01" xlink:href="#hl"/>
<use x="74.33" y="89.01" xlink:href="#hl"/>
<use x="74.33" y="83.01" xlink:href="#hl"/>
<use x="74.33" y="80.01" xlink:href="#hd"/>
<path d="M70.83 80.01v39.00" stroke="currentColor" fill="none"/>
<path fill="currentColor"
	d="M70.83 119.01c0.6 -5.6 9.6 -9 5.6 -18.4
	c1.6 6 -1.3 11.6 -5.6 12.8
"/>
<use x="101.13" y="101.01" xlink:href="#hl"/>
<use x="101.13" y="95.01" xlink:href="#hl"/>
<use x="101.13" y="89.01" xlink:href="#hl"/>
<use x="101.13" y="83.01" xlink:href="#hl"/>
<use x="101.13" y="80.01" xlink:href="#hd"/>
<use x="92.13" y="80.01" xlink:href="#ft0"/>
<path d="M97.63 80.01v39.00" stroke="currentColor" fill="none"/>
<path fill="currentColor"
	d="M97.63 119.01c0.6 -5.6 9.6 -9 5.6 -18.4
	c1.6 6 -1.3 11.6 -5.6 12.8
"/>
<use x="127.93" y="101.01" xlink:href="#hl"/>
<use x="127.93" y="95.01" xlink:href="#hl"/>
<use x="127.93" y="89.01" xlink:href="#hl"/>
<use x="127.93" y="83.01" xlink:href="#hl"/>
<use x="127.93" y="80.01" xlink:href="#hd"/>
<defs>
<path id="unat" fill="currentColor" d="
	m96 -750
	h-32
	v716
	l32 -8
	l182 -54
	v282
	h32
	v-706
	l-34 10
	l-180 50
	v-290
	m0 592
	v-190
	l182 -52
	v188"/>
<use id="nt0" transform="translate(-3,5) scale(0.018)"
	xlink:href="#unat"/>
</defs>
<use x="118.93" y="80.01" xlink:href="#nt0"/>
<path d="M124.43 80.01v39.00" stroke="currentColor" fill="none"/>
<path fill="currentColor"
	d="M124.43 119.01c0.6 -5.6 9.6 -9 5.6 -18.4
	c1.6 6 -1.3 11.6 -5.6 12.8
"/>
<path fill="currentColor"
	d="M150.73 119.21l17.70 0.00v-3.20l-17.70 -0.00"/>
<path fill="currentColor"
	d="M151.13 114.21l17.00 0.00v-3.20l-17.00 -0.00"/>
<use x="154.63" y="101.01" xlink:href="#hl"/>
<use x="154.63" y="95.01" xlink:href="#hl"/>
<use x="154.63" y="89.01" xlink:href="#hl"/>
<use x="154.63" y="89.01" xlink:href="#hd"/>
<path d="M151.13 89.01v29.20" stroke="currentColor" fill="none"/>
<use x="171.63" y="101.01" xlink:href="#hl"/>
<use x="171.63" y="95.01" xlink:href="#hl"/>
<use x="171.63" y="89.01" xlink:href="#hl"/>
<use x="171.63" y="86.01" xlink:href="#hd"/>
<path d="M168.13 86.01v32.20" stroke="currentColor" fill="none"/>
<path fill="currentColor"
	d="M186.83 119.21l18.70 0.00v-3.20l-18.70 -0.00"/>
<path fill="currentColor"
	d="M187.23 114.21l18.00 0.00v-3.20l-18.00 -0.00"/>
<use x="190.73" y="101.01" xlink:href="#hl"/>
<use x="190.73" y="95.01" xlink:href="#hl"/>
<use x="190.73" y="92.01" xlink:href="#hd"/>
<use x="181.73" y="92.01" xlink:href="#ft0"/>
<path d="M187.23 92.01v26.20" stroke="currentColor" fill="none"/>
<use x="208.73" y="101.01" xlink:href="#hl"/>
<use x="208.73" y="95.01" xlink:href="#hl"/>
<use x="208.73" y="92.01" xlink:href="#hd"/>
<use x="199.73" y="92.01" xlink:href="#nt0"/>
<path d="M205.23 92.01v26.20" stroke="currentColor" fill="none"/>
<path fill="currentColor"
	d="M223.93 125.21l18.70 0.00v-3.20l-18.70 -0.00"/>
<path fill="currentColor"
	d="M224.23 120.21l18.00 0.00v-3.20l-18.00 -0.00"/>
<use x="227.73" y="101.01" xlink:href="#hl"/>
<use x="227.73" y="101.01" xlink:href="#hd"/>
<use x="218.73" y="101.01" xlink:href="#ft0"/>
<path d="M224.23 101.01v23.20" stroke="currentColor" fill="none"/>
<use x="245.73" y="101.01" xlink:href="#hl"/>
<use x="245.73" y="101.01" xlink:href="#hd"/>
<use x="236.73" y="101.01" xlink:href="#nt0"/>
<path d="M242.23 101.01v23.20" stroke="currentColor" fill="none"/>
<path fill="currentColor"
	d="M260.83 132.21l17.70 -2.30v-3.20l-17.70 2.30"/>
<path fill="currentColor"
	d="M261.13 127.21l17.00 -2.20v-3.20l-17.00 2.20"/>
<use x="264.63" y="110.01" xlink:href="#hd"/>
<path d="M261.13 110.01v21.20" stroke="currentColor" fill="none"/>
<use x="281.63" y="107.01" xlink:href="#hd"/>
<path d="M278.13 107.01v22.00" stroke="currentColor" fill="none"/>
<use x="300.53" y="113.01" xlink:href="#hd"/>
<path d="M297.03 113.01v20.00" stroke="currentColor" fill="none"/>
<path fill="currentColor"
	d="M297.03 133.01c0.6 -5.6 9.6 -9 5.6 -18.4
	c1.6 6 -1.3 11.6 -5.6 12.8
"/>
<use x="335.33" y="101.01" xlink:href="#hl"/>
<use x="335.33" y="95.01" xlink:href="#hl"/>
<use x="335.33" y="92.01" xlink:href="#hd"/>
<path d="M331.83 92.01v27.00" stroke="currentColor" fill="none"/>
<path fill="currentColor"
	d="M369.23 119.21l26.20 0.00v-3.20l-26.20 -0.00"/>
<path fill="currentColor"
	d="M369.53 114.21l25.50 0.00v-3.20l-25.50 -0.00"/>
<path fill="currentColor"
	d="M389.03 109.21l6.00 0.00v-3.20l-6.00 -0.00"/>
<use x="373.03" y="101.01" xlink:href="#hl"/>
<use x="373.03" y="95.01" xlink:href="#hl"/>
<use x="373.03" y="92.01" xlink:href="#hd"/>
<circle fill="currentColor" cx="381.03" cy="92.01" r="1.2"/>
<path d="M369.53 92.01v26.20" stroke="currentColor" fill="none"/>
<use x="398.53" y="101.01" xlink:href="#hl"/>
<use x="398.53" y="95.01" xlink:href="#hl"/>
<use x="398.53" y="89.01" xlink:href="#hl"/>
<use x="398.53" y="89.01" xlink:href="#hd"/>
<use x="389.53" y="89.01" xlink:href="#ft0"/>
<path d="M395.03 89.01v29.20" stroke="currentColor" fill="none"/>
<use x="417.53" y="101.01" xlink:href="#hl"/>
<use x="417.53" y="95.01" xlink:href="#hl"/>
<use x="417.53" y="89.01" xlink:href="#hl"/>
<defs>
<path id="Hd" fill="currentColor" d="m3 -1.6
	c-1 -1.8 -7 1.4 -6 3.2
	c1 1.8 7 -1.4 6 -3.2
	m0.5 -0.3
	c2 3.8 -5 7.6 -7 3.8
	c-2 -3.8 5 -7.6 7 -3.8"/>
</defs>
<use x="417.53" y="89.01" xlink:href="#Hd"/>
<use x="407.53" y="89.01" xlink:href="#ft0"/>
<path d="M414.03 89.01v30.00" stroke="currentColor" fill="none"/>
<use x="470.73" y="101.01" xlink:href="#hl"/>
<use x="470.73" y="95.01" xlink:href="#hl"/>
<use x="470.73" y="89.01" xlink:href="#hl"/>
<use x="470.73" y="89.01" xlink:href="#hd"/>
<use x="461.73" y="89.01" xlink:href="#ft0"/>
<path d="M467.23 89.01v30.00" stroke="currentColor" fill="none"/>
<path fill="currentColor"
	d="M467.23 119.01c0.6 -5.6 9.6 -9 5.6 -18.4
	c1.6 6 -1.3 11.6 -5.6 12.8
"/>
<use x="505.53" y="101.01" xlink:href="#hl"/>
<use x="505.53" y="95.01" xlink:href="#hl"/>
<use x="505.53" y="95.01" xlink:href="#hd"/>
<path d="M502.03 95.01v24.00" stroke="currentColor" fill="none"/>
<path fill="currentColor"
	d="M502.03 119.01c0.6 -5.6 9.6 -9 5.6 -18.4
	c1.6 6 -1.3 11.6 -5.6 12.8
"/>
<use x="532.23" y="101.01" xlink:href="#hl"/>
<use x="532.23" y="101.01" xlink:href="#hd"/>
<path d="M528.73 101.01v20.00" stroke="currentColor" fill="none"/>
<path fill="currentColor"
	d="M528.73 121.01c0.6 -5.6 9.6 -9 5.6 -18.4
	c1.6 6 -1.3 11.6 -5.6 12.8
"/>
<use x="558.83" y="104.01" xlink:href="#hd"/>
<path d="M555.33 104.01v20.00" stroke="currentColor" fill="none"/>
<path fill="currentColor"
	d="M555.33 124.01c0.6 -5.6 9.6 -9 5.6 -18.4
	c1.6 6 -1.3 11.6 -5.6 12.8
"/>
<path fill="currentColor"
	d="M581.73 126.21l17.70 -2.30v-3.20l-17.70 2.30"/>
<path fill="currentColor"
	d="M582.13 121.21l17.00 -2.20v-3.20l-17.00 2.20"/>
<use x="585.63" y="104.01" xlink:href="#hd"/>
<use x="576.63" y="104.01" xlink:href="#ft0"/>
<path d="M582.13 104.01v21.20" stroke="currentColor" fill="none"/>
<use x="602.63" y="101.01" xlink:href="#hl"/>
<use x="602.63" y="101.01" xlink:href="#hd"/>
<path d="M599.13 101.01v22.00" stroke="currentColor" fill="none"/>
<path fill="currentColor"
	d="M617.63 138.21l17.70 -2.30v-3.20l-17.70 2.30"/>
<path fill="currentColor"
	d="M617.93 133.21l17.00 -2.20v-3.20l-17.00 2.20"/>
<use x="621.43" y="116.01" xlink:href="#hd"/>
<path d="M617.93 116.01v21.20" stroke="currentColor" fill="none"/>
<use x="638.43" y="113.01" xlink:href="#hd"/>
<path d="M634.93 113.01v22.00" stroke="currentColor" fill="none"/>
<use x="657.53" y="110.01" xlink:href="#hd"/>
<use x="648.53" y="110.01" xlink:href="#ft0"/>
<path d="M654.03 110.01v20.00" stroke="currentColor" fill="none"/>
<path fill="currentColor"
	d="M338.83 90.01c4.84 -5.05 25.89 -5.05 30.73 -0.00
	l0.00 -0.23c-5.76 -6.82 -24.97 -6.82 -30.73 0.23"/>
<path fill="currentColor"
	d="M421.03 89.01c7.15 -5.33 39.06 -5.33 46.21 -0.00
	l0.00 -0.25c-8.54 -7.09 -37.68 -7.09 -46.21 0.25"/>
</g>
</svg>
