<?xml version="1.0" standalone="no"?>
<!DOCTYPE svg PUBLIC "-//W3C//DTD SVG 1.1//EN"
	"http://www.w3.org/Graphics/SVG/1.1/DTD/svg11.dtd">
<svg xmlns="http://www.w3.org/2000/svg" version="1.1"
	xmlns:xlink="http://www.w3.org/1999/xlink"
	xml:space='preserve' color="black"
	width="7.38in" height="1.49in" viewBox="0 0 531 107">
<title>7766.abc (7766) tune 1</title>
<!-- Creator: abcm2ps-7.8.14 -->
<!-- CreationDate: Mar 13, 2016 18:54 -->
<!-- CommandLine: -qxg 7766.abc -O ../svgs/7766.svg -->
<g transform="scale(0.750)" stroke-width="0.70" font-family="Times" font-size="20.00">
<text x="354.13" y="21.67" text-anchor="middle">7766.  Concerto No. 4 in D Minor, 2nd. Mvt. - 2nd. Theme</text>
</g>
<g transform="scale(0.750)" stroke-width="0.70" font-family="Times" font-size="14.00" font-style="italic">
<text x="694.93" y="45.34" text-anchor="end">Henri Vieuxtemps</text>
</g>
<g transform="scale(0.525)" stroke-width="0.70" font-family="Times" font-size="14.00" font-style="italic">
<defs>
<ellipse id="hd" rx="4.1" ry="2.9"
	transform="rotate(-20)" fill="currentColor"/>
</defs>
<use x="122.76" y="94.16" xlink:href="#hd"/>
<path d="M126.26 94.16v-20.00" stroke="currentColor" fill="none"/>
</g>
<g transform="scale(0.750)" stroke-width="0.70" font-family="Times" font-size="15.00" font-weight="bold">
<text x="93.63" y="68.01">= 120</text>
<path stroke="currentColor" fill="none"
	d="M151.83 120.01v-24.00"/>
<path stroke="currentColor" fill="none"
	d="M314.13 120.01v-24.00"/>
<path stroke="currentColor" fill="none"
	d="M393.33 120.01v-24.00"/>
<path stroke="currentColor" fill="none"
	d="M472.43 120.01v-24.00"/>
<path stroke="currentColor" fill="none"
	d="M643.43 120.01v-24.00"/>
<path stroke="currentColor" fill="none"
	d="M694.93 120.01v-24.00"/>
<path stroke="currentColor" fill="none"
	d="M13.33 120.01h681.60m-681.60 -6h681.60m-681.60 -6h681.60m-681.60 -6h681.60m-681.60 -6h681.60"/>
<path stroke="currentColor" fill="none"
	d="M178.43 70.91v-3l41.90 -6.00v3"/>
<rect x="192.33" y="58.91" width="14.00" height="12" fill="white"/>
<text font-family="serif" font-size="12" font-style="italic" font-weight="normal"
	x="199.33" y="68.91" text-anchor="middle">3</text>
<path stroke="currentColor" fill="none"
	d="M505.03 70.91v-3l41.90 -6.00v3"/>
<rect x="518.93" y="58.91" width="14.00" height="12" fill="white"/>
<text font-family="serif" font-size="12" font-style="italic" font-weight="normal"
	x="525.93" y="68.91" text-anchor="middle">3</text>
<defs>
<path id="utclef" fill="currentColor" d="m-50 -90
	c-72 -41 -72 -158 52 -188
	c150 -10 220 188 90 256
	c-114 52 -275 0 -293 -136
	c-15 -181 93 -229 220 -334
	c88 -87 79 -133 62 -210
	c-51 33 -94 105 -89 186
	c17 267 36 374 49 574
	c6 96 -19 134 -77 135
	c-80 1 -126 -93 -61 -133
	c85 -41 133 101 31 105
	c23 17 92 37 90 -92
	c-10 -223 -39 -342 -50 -617
	c0 -90 0 -162 96 -232
	c56 72 63 230 22 289
	c-74 106 -257 168 -255 316
	c9 153 148 185 252 133
	c86 -65 29 -192 -80 -176
	c-71 12 -105 67 -59 124"/>
<use id="tclef" transform="scale(0.045)"
	xlink:href="#utclef"/>
</defs>
<use x="25.33" y="120.01" xlink:href="#tclef"/>
<defs>
<path id="uflat" fill="currentColor" d="
	m100 -746
	h32
	v734
	l-32 4
	m32 -332
	c46 -72 152 -90 208 -20
	c100 110 -120 326 -208 348
	m0 -28
	c54 0 200 -206 130 -290
	c-50 -60 -130 -4 -130 34"/>
<use id="ft0" transform="translate(-3.5,3.5) scale(0.018)"
	xlink:href="#uflat"/>
</defs>
<use x="40.33" y="108.01" xlink:href="#ft0"/>
<use x="45.83" y="99.01" xlink:href="#ft0"/>
<use x="51.33" y="111.01" xlink:href="#ft0"/>
<g font-family="serif" font-size="16" font-weight="bold" font-style="normal"
	transform="translate(67.33,120.01) scale(1.2,1)">
	<text y="-1" text-anchor="middle">4</text>
	<text y="-13" text-anchor="middle">4</text>
</g>
<defs>
<path id="hl" stroke="currentColor" d="m-6 0h12"/>
</defs>
<use x="85.33" y="90.01" xlink:href="#hl"/>
<use x="85.33" y="84.01" xlink:href="#hl"/>
<use x="85.33" y="78.01" xlink:href="#hl"/>
<use x="85.33" y="78.01" xlink:href="#hd"/>
<circle fill="currentColor" cx="93.33" cy="75.01" r="1.2"/>
<path d="M81.83 78.01v30.00" stroke="currentColor" fill="none"/>
<use x="110.33" y="90.01" xlink:href="#hl"/>
<use x="110.33" y="84.01" xlink:href="#hl"/>
<use x="110.33" y="78.01" xlink:href="#hl"/>
<use x="110.33" y="78.01" xlink:href="#hd"/>
<circle fill="currentColor" cx="118.33" cy="75.01" r="1.2"/>
<path d="M106.83 78.01v30.00" stroke="currentColor" fill="none"/>
<use x="135.43" y="90.01" xlink:href="#hl"/>
<use x="135.43" y="90.01" xlink:href="#hd"/>
<path d="M131.93 90.01v20.00" stroke="currentColor" fill="none"/>
<use x="164.33" y="90.01" xlink:href="#hl"/>
<use x="164.33" y="87.01" xlink:href="#hd"/>
<path d="M160.83 87.01v21.00" stroke="currentColor" fill="none"/>
<path fill="currentColor"
	d="M160.83 108.01c0.6 -5.6 9.6 -9 5.6 -18.4
	c1.6 6 -1.3 11.6 -5.6 12.8
"/>
<use x="182.43" y="90.01" xlink:href="#hl"/>
<use x="182.43" y="87.01" xlink:href="#hd"/>
<defs>
<path id="unat" fill="currentColor" d="
	m96 -750
	h-32
	v716
	l32 -8
	l182 -54
	v282
	h32
	v-706
	l-34 10
	l-180 50
	v-290
	m0 592
	v-190
	l182 -52
	v188"/>
<use id="nt0" transform="translate(-3,5) scale(0.018)"
	xlink:href="#unat"/>
</defs>
<use x="173.43" y="87.01" xlink:href="#nt0"/>
<path d="M178.93 87.01v21.00" stroke="currentColor" fill="none"/>
<use x="201.83" y="90.01" xlink:href="#hl"/>
<use x="201.83" y="87.01" xlink:href="#hd"/>
<use x="192.83" y="87.01" xlink:href="#nt0"/>
<path d="M198.33 87.01v22.00" stroke="currentColor" fill="none"/>
<path fill="currentColor"
	d="M198.33 109.01c0.9 -3.7 9.1 -6.4 6 -12.4
	c1 5.4 -4.2 8.4 -6 8.4
M198.33 103.61c0.9 -3.7 9.1 -6.4 6 -12.4
	c1 5.4 -4.2 8.4 -6 8.4
"/>
<use x="219.83" y="90.01" xlink:href="#hl"/>
<use x="219.83" y="84.01" xlink:href="#hl"/>
<use x="219.83" y="81.01" xlink:href="#hd"/>
<use x="210.83" y="81.01" xlink:href="#ft0"/>
<path d="M216.33 81.01v27.00" stroke="currentColor" fill="none"/>
<use x="239.33" y="90.01" xlink:href="#hl"/>
<use x="239.33" y="84.01" xlink:href="#hl"/>
<use x="239.33" y="81.01" xlink:href="#hd"/>
<use x="230.33" y="81.01" xlink:href="#ft0"/>
<path d="M235.83 81.01v27.00" stroke="currentColor" fill="none"/>
<path fill="currentColor"
	d="M235.83 108.01c0.9 -3.7 9.1 -6.4 6 -12.4
	c1 5.4 -4.2 8.4 -6 8.4
M235.83 102.61c0.9 -3.7 9.1 -6.4 6 -12.4
	c1 5.4 -4.2 8.4 -6 8.4
"/>
<use x="251.23" y="90.01" xlink:href="#hl"/>
<use x="251.23" y="84.01" xlink:href="#hl"/>
<use x="251.23" y="78.01" xlink:href="#hl"/>
<use x="251.23" y="78.01" xlink:href="#hd"/>
<path d="M247.73 78.01v30.00" stroke="currentColor" fill="none"/>
<use x="274.23" y="90.01" xlink:href="#hl"/>
<use x="274.23" y="84.01" xlink:href="#hl"/>
<use x="274.23" y="78.01" xlink:href="#hl"/>
<use x="274.23" y="78.01" xlink:href="#hd"/>
<path d="M270.73 78.01v30.00" stroke="currentColor" fill="none"/>
<path fill="currentColor"
	d="M270.73 108.01c0.9 -3.7 9.1 -6.4 6 -12.4
	c1 5.4 -4.2 8.4 -6 8.4
M270.73 102.61c0.9 -3.7 9.1 -6.4 6 -12.4
	c1 5.4 -4.2 8.4 -6 8.4
"/>
<use x="286.23" y="90.01" xlink:href="#hl"/>
<use x="286.23" y="84.01" xlink:href="#hl"/>
<use x="286.23" y="78.01" xlink:href="#hl"/>
<use x="286.23" y="75.01" xlink:href="#hd"/>
<path d="M282.73 75.01v33.00" stroke="currentColor" fill="none"/>
<path fill="currentColor"
	d="M282.73 108.01c0.6 -5.6 9.6 -9 5.6 -18.4
	c1.6 6 -1.3 11.6 -5.6 12.8
"/>
<use x="301.53" y="90.01" xlink:href="#hl"/>
<use x="301.53" y="84.01" xlink:href="#hl"/>
<use x="301.53" y="78.01" xlink:href="#hl"/>
<use x="301.53" y="72.01" xlink:href="#hl"/>
<use x="301.53" y="72.01" xlink:href="#hd"/>
<path d="M298.03 72.01v36.00" stroke="currentColor" fill="none"/>
<path fill="currentColor"
	d="M298.03 108.01c0.6 -5.6 9.6 -9 5.6 -18.4
	c1.6 6 -1.3 11.6 -5.6 12.8
"/>
<use x="327.13" y="90.01" xlink:href="#hl"/>
<use x="327.13" y="84.01" xlink:href="#hl"/>
<use x="327.13" y="78.01" xlink:href="#hl"/>
<use x="327.13" y="72.01" xlink:href="#hl"/>
<defs>
<path id="Hd" fill="currentColor" d="m3 -1.6
	c-1 -1.8 -7 1.4 -6 3.2
	c1 1.8 7 -1.4 6 -3.2
	m0.5 -0.3
	c2 3.8 -5 7.6 -7 3.8
	c-2 -3.8 5 -7.6 7 -3.8"/>
</defs>
<use x="327.13" y="72.01" xlink:href="#Hd"/>
<path d="M323.63 72.01v36.00" stroke="currentColor" fill="none"/>
<use x="357.03" y="90.01" xlink:href="#hl"/>
<use x="357.03" y="84.01" xlink:href="#hl"/>
<use x="357.03" y="78.01" xlink:href="#hl"/>
<use x="357.03" y="72.01" xlink:href="#hl"/>
<use x="357.03" y="72.01" xlink:href="#hd"/>
<path d="M353.53 72.01v36.00" stroke="currentColor" fill="none"/>
<path fill="currentColor"
	d="M353.53 108.01c0.6 -5.6 9.6 -9 5.6 -18.4
	c1.6 6 -1.3 11.6 -5.6 12.8
"/>
<use x="372.43" y="90.01" xlink:href="#hl"/>
<use x="372.43" y="84.01" xlink:href="#hl"/>
<use x="372.43" y="78.01" xlink:href="#hl"/>
<use x="372.43" y="78.01" xlink:href="#hd"/>
<circle fill="currentColor" cx="380.43" cy="75.01" r="1.2"/>
<path d="M368.93 78.01v30.00" stroke="currentColor" fill="none"/>
<use x="405.83" y="90.01" xlink:href="#hl"/>
<use x="405.83" y="84.01" xlink:href="#hl"/>
<use x="405.83" y="78.01" xlink:href="#hl"/>
<use x="405.83" y="78.01" xlink:href="#hd"/>
<circle fill="currentColor" cx="413.83" cy="75.01" r="1.2"/>
<path d="M402.33 78.01v30.00" stroke="currentColor" fill="none"/>
<use x="430.93" y="90.01" xlink:href="#hl"/>
<use x="430.93" y="84.01" xlink:href="#hl"/>
<use x="430.93" y="78.01" xlink:href="#hl"/>
<use x="430.93" y="78.01" xlink:href="#hd"/>
<circle fill="currentColor" cx="438.93" cy="75.01" r="1.2"/>
<path d="M427.43 78.01v30.00" stroke="currentColor" fill="none"/>
<use x="455.93" y="90.01" xlink:href="#hl"/>
<use x="455.93" y="90.01" xlink:href="#hd"/>
<path d="M452.43 90.01v20.00" stroke="currentColor" fill="none"/>
<use x="490.93" y="90.01" xlink:href="#hl"/>
<use x="490.93" y="87.01" xlink:href="#hd"/>
<use x="481.93" y="87.01" xlink:href="#ft0"/>
<path d="M487.43 87.01v21.00" stroke="currentColor" fill="none"/>
<path fill="currentColor"
	d="M487.43 108.01c0.6 -5.6 9.6 -9 5.6 -18.4
	c1.6 6 -1.3 11.6 -5.6 12.8
"/>
<use x="509.03" y="90.01" xlink:href="#hl"/>
<use x="509.03" y="87.01" xlink:href="#hd"/>
<use x="500.03" y="87.01" xlink:href="#nt0"/>
<path d="M505.53 87.01v21.00" stroke="currentColor" fill="none"/>
<use x="528.43" y="90.01" xlink:href="#hl"/>
<use x="528.43" y="87.01" xlink:href="#hd"/>
<use x="519.43" y="87.01" xlink:href="#nt0"/>
<path d="M524.93 87.01v22.00" stroke="currentColor" fill="none"/>
<path fill="currentColor"
	d="M524.93 109.01c0.9 -3.7 9.1 -6.4 6 -12.4
	c1 5.4 -4.2 8.4 -6 8.4
M524.93 103.61c0.9 -3.7 9.1 -6.4 6 -12.4
	c1 5.4 -4.2 8.4 -6 8.4
"/>
<use x="546.43" y="90.01" xlink:href="#hl"/>
<use x="546.43" y="84.01" xlink:href="#hl"/>
<use x="546.43" y="81.01" xlink:href="#hd"/>
<use x="537.43" y="81.01" xlink:href="#ft0"/>
<path d="M542.93 81.01v27.00" stroke="currentColor" fill="none"/>
<use x="565.83" y="90.01" xlink:href="#hl"/>
<use x="565.83" y="84.01" xlink:href="#hl"/>
<use x="565.83" y="81.01" xlink:href="#hd"/>
<use x="556.83" y="81.01" xlink:href="#ft0"/>
<path d="M562.33 81.01v27.00" stroke="currentColor" fill="none"/>
<path fill="currentColor"
	d="M562.33 108.01c0.9 -3.7 9.1 -6.4 6 -12.4
	c1 5.4 -4.2 8.4 -6 8.4
M562.33 102.61c0.9 -3.7 9.1 -6.4 6 -12.4
	c1 5.4 -4.2 8.4 -6 8.4
"/>
<use x="577.83" y="90.01" xlink:href="#hl"/>
<use x="577.83" y="84.01" xlink:href="#hl"/>
<use x="577.83" y="78.01" xlink:href="#hl"/>
<use x="577.83" y="78.01" xlink:href="#hd"/>
<path d="M574.33 78.01v30.00" stroke="currentColor" fill="none"/>
<use x="600.83" y="90.01" xlink:href="#hl"/>
<use x="600.83" y="84.01" xlink:href="#hl"/>
<use x="600.83" y="78.01" xlink:href="#hl"/>
<use x="600.83" y="78.01" xlink:href="#hd"/>
<path d="M597.33 78.01v30.00" stroke="currentColor" fill="none"/>
<path fill="currentColor"
	d="M597.33 108.01c0.9 -3.7 9.1 -6.4 6 -12.4
	c1 5.4 -4.2 8.4 -6 8.4
M597.33 102.61c0.9 -3.7 9.1 -6.4 6 -12.4
	c1 5.4 -4.2 8.4 -6 8.4
"/>
<use x="612.73" y="90.01" xlink:href="#hl"/>
<use x="612.73" y="84.01" xlink:href="#hl"/>
<use x="612.73" y="78.01" xlink:href="#hl"/>
<use x="612.73" y="75.01" xlink:href="#hd"/>
<path d="M609.23 75.01v33.00" stroke="currentColor" fill="none"/>
<path fill="currentColor"
	d="M609.23 108.01c0.6 -5.6 9.6 -9 5.6 -18.4
	c1.6 6 -1.3 11.6 -5.6 12.8
"/>
<use x="630.83" y="90.01" xlink:href="#hl"/>
<use x="630.83" y="84.01" xlink:href="#hl"/>
<use x="630.83" y="78.01" xlink:href="#hl"/>
<use x="630.83" y="72.01" xlink:href="#hl"/>
<use x="630.83" y="72.01" xlink:href="#hd"/>
<use x="621.83" y="72.01" xlink:href="#ft0"/>
<path d="M627.33 72.01v36.00" stroke="currentColor" fill="none"/>
<path fill="currentColor"
	d="M627.33 108.01c0.6 -5.6 9.6 -9 5.6 -18.4
	c1.6 6 -1.3 11.6 -5.6 12.8
"/>
<defs>
<path id="hl1" stroke="currentColor" d="m-7 0h14"/>
</defs>
<use x="665.93" y="90.01" xlink:href="#hl1"/>
<use x="665.93" y="84.01" xlink:href="#hl1"/>
<use x="665.93" y="78.01" xlink:href="#hl1"/>
<use x="665.93" y="72.01" xlink:href="#hl1"/>
<defs>
<path id="HD" fill="currentColor" d="m-2.7 -1.4
	c1.5 -2.8 6.9 0 5.3 2.7
	c-1.5 2.8 -6.9 0 -5.3 -2.7
	m8.3 1.4
	c0 -1.5 -2.2 -3 -5.6 -3
	c-3.4 0 -5.6 1.5 -5.6 3
	c0 1.5 2.2 3 5.6 3
	c3.4 0 5.6 -1.5 5.6 -3"/>
</defs>
<use x="665.93" y="72.01" xlink:href="#HD"/>
<use x="653.93" y="72.01" xlink:href="#ft0"/>
<path fill="currentColor"
	d="M182.43 85.01c3.06 -4.85 16.37 -4.85 19.44 -0.00
	l0.00 -0.22c-3.64 -6.63 -15.79 -6.63 -19.44 0.22"/>
<path fill="currentColor"
	d="M219.83 79.01c3.06 -4.85 16.37 -4.85 19.44 -0.00
	l0.00 -0.22c-3.64 -6.63 -15.79 -6.63 -19.44 0.22"/>
<path fill="currentColor"
	d="M254.73 78.01c2.52 -4.79 13.47 -4.79 15.99 -0.00
	l0.00 -0.22c-3.00 -6.57 -12.99 -6.57 -15.99 0.22"/>
<path fill="currentColor"
	d="M305.03 72.01c2.94 -4.84 15.72 -4.84 18.66 -0.00
	l0.00 -0.22c-3.50 -6.62 -15.16 -6.62 -18.66 0.22"/>
<path fill="currentColor"
	d="M330.63 72.01c3.61 -4.91 19.29 -4.91 22.90 -0.00
	l0.00 -0.22c-4.29 -6.69 -18.60 -6.69 -22.90 0.22"/>
<path fill="currentColor"
	d="M509.03 85.01c3.06 -4.85 16.37 -4.85 19.44 -0.00
	l0.00 -0.22c-3.64 -6.63 -15.79 -6.63 -19.44 0.22"/>
<path fill="currentColor"
	d="M546.43 79.01c3.06 -4.85 16.37 -4.85 19.44 -0.00
	l0.00 -0.22c-3.64 -6.63 -15.79 -6.63 -19.44 0.22"/>
<path fill="currentColor"
	d="M581.33 78.01c2.52 -4.79 13.47 -4.79 15.99 -0.00
	l0.00 -0.22c-3.00 -6.57 -12.99 -6.57 -15.99 0.22"/>
<path fill="currentColor"
	d="M634.33 72.01c4.28 -4.99 22.88 -4.99 27.16 -0.00
	l0.00 -0.23c-5.09 -6.76 -22.06 -6.76 -27.16 0.23"/>
</g>
</svg>
