<?xml version="1.0" standalone="no"?>
<!DOCTYPE svg PUBLIC "-//W3C//DTD SVG 1.1//EN"
	"http://www.w3.org/Graphics/SVG/1.1/DTD/svg11.dtd">
<svg xmlns="http://www.w3.org/2000/svg" version="1.1"
	xmlns:xlink="http://www.w3.org/1999/xlink"
	xml:space='preserve' color="black"
	width="7.38in" height="1.34in" viewBox="0 0 531 97">
<title>7772.abc (7772) tune 1</title>
<!-- Creator: abcm2ps-7.8.14 -->
<!-- CreationDate: Mar 13, 2016 18:54 -->
<!-- CommandLine: -qxg 7772.abc -O ../svgs/7772.svg -->
<g transform="scale(0.750)" stroke-width="0.70" font-family="Times" font-size="20.00">
<text x="354.13" y="21.67" text-anchor="middle">7772.  Bachianas-Brasileiras, 2nd. Theme</text>
</g>
<g transform="scale(0.750)" stroke-width="0.70" font-family="Times" font-size="14.00" font-style="italic">
<text x="694.93" y="45.34" text-anchor="end">Heitor Villa-Lobos</text>
</g>
<g transform="scale(0.525)" stroke-width="0.70" font-family="Times" font-size="14.00" font-style="italic">
<defs>
<ellipse id="hd" rx="4.1" ry="2.9"
	transform="rotate(-20)" fill="currentColor"/>
</defs>
<use x="89.19" y="94.16" xlink:href="#hd"/>
<path d="M92.69 94.16v-20.00" stroke="currentColor" fill="none"/>
</g>
<g transform="scale(0.750)" stroke-width="0.70" font-family="Times" font-size="15.00" font-weight="bold">
<text x="70.13" y="68.01">= 120</text>
<path stroke="currentColor" fill="none"
	d="M116.23 106.01v-24.00"/>
<path stroke="currentColor" fill="none"
	d="M182.53 106.01v-24.00"/>
<path stroke="currentColor" fill="none"
	d="M231.23 106.01v-24.00"/>
<path stroke="currentColor" fill="none"
	d="M325.73 106.01v-24.00"/>
<path stroke="currentColor" fill="none"
	d="M392.63 106.01v-24.00"/>
<path stroke="currentColor" fill="none"
	d="M458.93 106.01v-24.00"/>
<path stroke="currentColor" fill="none"
	d="M507.63 106.01v-24.00"/>
<path stroke="currentColor" fill="none"
	d="M577.03 106.01v-24.00"/>
<path stroke="currentColor" fill="none"
	d="M646.43 106.01v-24.00"/>
<path stroke="currentColor" fill="none"
	d="M13.33 106.01h681.60m-681.60 -6h681.60m-681.60 -6h681.60m-681.60 -6h681.60m-681.60 -6h681.60"/>
<defs>
<path id="utclef" fill="currentColor" d="m-50 -90
	c-72 -41 -72 -158 52 -188
	c150 -10 220 188 90 256
	c-114 52 -275 0 -293 -136
	c-15 -181 93 -229 220 -334
	c88 -87 79 -133 62 -210
	c-51 33 -94 105 -89 186
	c17 267 36 374 49 574
	c6 96 -19 134 -77 135
	c-80 1 -126 -93 -61 -133
	c85 -41 133 101 31 105
	c23 17 92 37 90 -92
	c-10 -223 -39 -342 -50 -617
	c0 -90 0 -162 96 -232
	c56 72 63 230 22 289
	c-74 106 -257 168 -255 316
	c9 153 148 185 252 133
	c86 -65 29 -192 -80 -176
	c-71 12 -105 67 -59 124"/>
<use id="tclef" transform="scale(0.045)"
	xlink:href="#utclef"/>
</defs>
<use x="25.33" y="106.01" xlink:href="#tclef"/>
<g font-family="serif" font-size="16" font-weight="bold" font-style="normal"
	transform="translate(43.83,106.01) scale(1.2,1)">
	<text y="-1" text-anchor="middle">4</text>
	<text y="-13" text-anchor="middle">2</text>
</g>
<use x="61.83" y="91.01" xlink:href="#hd"/>
<circle fill="currentColor" cx="69.83" cy="91.01" r="1.2"/>
<path d="M58.33 91.01v20.00" stroke="currentColor" fill="none"/>
<use x="98.13" y="91.01" xlink:href="#hd"/>
<path d="M94.63 91.01v20.00" stroke="currentColor" fill="none"/>
<path fill="currentColor"
	d="M94.63 111.01c0.6 -5.6 9.6 -9 5.6 -18.4
	c1.6 6 -1.3 11.6 -5.6 12.8
"/>
<use x="128.73" y="91.01" xlink:href="#hd"/>
<path d="M125.23 91.01v20.00" stroke="currentColor" fill="none"/>
<use x="157.13" y="97.01" xlink:href="#hd"/>
<path d="M160.63 97.01v-20.00" stroke="currentColor" fill="none"/>
<defs>
<path id="Hd" fill="currentColor" d="m3 -1.6
	c-1 -1.8 -7 1.4 -6 3.2
	c1 1.8 7 -1.4 6 -3.2
	m0.5 -0.3
	c2 3.8 -5 7.6 -7 3.8
	c-2 -3.8 5 -7.6 7 -3.8"/>
</defs>
<use x="195.53" y="91.01" xlink:href="#Hd"/>
<path d="M192.03 91.01v20.00" stroke="currentColor" fill="none"/>
<use x="243.73" y="91.01" xlink:href="#hd"/>
<path d="M240.23 91.01v20.00" stroke="currentColor" fill="none"/>
<use x="275.23" y="91.01" xlink:href="#hd"/>
<path d="M271.73 91.01v20.00" stroke="currentColor" fill="none"/>
<path fill="currentColor"
	d="M271.73 111.01c0.6 -5.6 9.6 -9 5.6 -18.4
	c1.6 6 -1.3 11.6 -5.6 12.8
"/>
<path fill="currentColor"
	d="M294.43 116.31l11.10 -2.00v-3.20l-11.10 2.00"/>
<path fill="currentColor"
	d="M294.83 111.21l10.40 -1.90v-3.20l-10.40 1.90"/>
<path fill="currentColor"
	d="M300.83 105.11l-6.00 1.10v-3.20l6.00 -1.10"/>
<use x="298.33" y="91.01" xlink:href="#hd"/>
<path d="M294.83 91.01v24.20" stroke="currentColor" fill="none"/>
<use x="308.73" y="88.01" xlink:href="#hd"/>
<circle fill="currentColor" cx="316.73" cy="85.01" r="1.2"/>
<path d="M305.23 88.01v25.30" stroke="currentColor" fill="none"/>
<use x="338.23" y="88.01" xlink:href="#hd"/>
<circle fill="currentColor" cx="346.23" cy="85.01" r="1.2"/>
<path d="M334.73 88.01v20.00" stroke="currentColor" fill="none"/>
<use x="374.43" y="88.01" xlink:href="#hd"/>
<path d="M370.93 88.01v20.00" stroke="currentColor" fill="none"/>
<path fill="currentColor"
	d="M370.93 108.01c0.6 -5.6 9.6 -9 5.6 -18.4
	c1.6 6 -1.3 11.6 -5.6 12.8
"/>
<use x="405.13" y="88.01" xlink:href="#hd"/>
<path d="M401.63 88.01v20.00" stroke="currentColor" fill="none"/>
<use x="433.53" y="97.01" xlink:href="#hd"/>
<path d="M437.03 97.01v-20.00" stroke="currentColor" fill="none"/>
<use x="471.93" y="88.01" xlink:href="#Hd"/>
<path d="M468.43 88.01v20.00" stroke="currentColor" fill="none"/>
<use x="520.13" y="88.01" xlink:href="#hd"/>
<path d="M516.63 88.01v20.00" stroke="currentColor" fill="none"/>
<use x="551.63" y="88.01" xlink:href="#hd"/>
<path d="M548.13 88.01v20.00" stroke="currentColor" fill="none"/>
<use x="589.53" y="85.01" xlink:href="#hd"/>
<path d="M586.03 85.01v20.00" stroke="currentColor" fill="none"/>
<use x="621.03" y="88.01" xlink:href="#hd"/>
<path d="M617.53 88.01v20.00" stroke="currentColor" fill="none"/>
<use x="658.93" y="91.01" xlink:href="#hd"/>
<circle fill="currentColor" cx="666.93" cy="91.01" r="1.2"/>
<path d="M655.43 91.01v20.00" stroke="currentColor" fill="none"/>
<path fill="currentColor"
	d="M101.63 89.01c3.72 -4.93 19.89 -4.93 23.61 -0.00
	l0.00 -0.22c-4.43 -6.70 -19.18 -6.70 -23.61 0.22"/>
<path fill="currentColor"
	d="M199.03 89.01c6.47 -5.24 34.73 -5.24 41.20 -0.00
	l0.00 -0.24c-7.70 -7.00 -33.49 -7.00 -41.20 0.24"/>
<path fill="currentColor"
	d="M278.73 89.01c2.52 -4.79 13.50 -4.79 16.03 -0.00
	l0.00 -0.22c-3.01 -6.57 -13.02 -6.57 -16.03 0.22"/>
<path fill="currentColor"
	d="M312.23 82.01c3.54 -4.90 18.96 -4.90 22.50 -0.00
	l0.00 -0.22c-4.22 -6.68 -18.28 -6.68 -22.50 0.22"/>
<path fill="currentColor"
	d="M377.93 88.01c3.72 -4.93 19.89 -4.93 23.61 -0.00
	l0.00 -0.22c-4.43 -6.70 -19.18 -6.70 -23.61 0.22"/>
<path fill="currentColor"
	d="M475.43 88.01c6.47 -5.24 34.73 -5.24 41.20 -0.00
	l0.00 -0.24c-7.70 -7.00 -33.49 -7.00 -41.20 0.24"/>
</g>
</svg>
