<?xml version="1.0" standalone="no"?>
<!DOCTYPE svg PUBLIC "-//W3C//DTD SVG 1.1//EN"
	"http://www.w3.org/Graphics/SVG/1.1/DTD/svg11.dtd">
<svg xmlns="http://www.w3.org/2000/svg" version="1.1"
	xmlns:xlink="http://www.w3.org/1999/xlink"
	xml:space='preserve' color="black"
	width="7.38in" height="1.52in" viewBox="0 0 531 110">
<title>7794.abc (7794) tune 1</title>
<!-- Creator: abcm2ps-7.8.14 -->
<!-- CreationDate: Mar 13, 2016 18:54 -->
<!-- CommandLine: -qxg 7794.abc -O ../svgs/7794.svg -->
<g transform="scale(0.750)" stroke-width="0.70" font-family="Times" font-size="20.00">
<text x="354.13" y="21.67" text-anchor="middle">7794.  Concerto in A, 2nd. Mvt.</text>
</g>
<g transform="scale(0.750)" stroke-width="0.70" font-family="Times" font-size="14.00" font-style="italic">
<text x="694.93" y="45.34" text-anchor="end">Antonio Vivaldi</text>
</g>
<g transform="scale(0.525)" stroke-width="0.70" font-family="Times" font-size="14.00" font-style="italic">
<defs>
<ellipse id="hd" rx="4.1" ry="2.9"
	transform="rotate(-20)" fill="currentColor"/>
</defs>
<use x="114.90" y="94.16" xlink:href="#hd"/>
<path d="M118.40 94.16v-20.00" stroke="currentColor" fill="none"/>
</g>
<g transform="scale(0.750)" stroke-width="0.70" font-family="Times" font-size="15.00" font-weight="bold">
<text x="88.13" y="68.01">= 120</text>
<path stroke="currentColor" fill="none"
	d="M409.73 123.01v-24.00"/>
<path stroke="currentColor" fill="none"
	d="M13.33 123.01h681.60m-681.60 -6h681.60m-681.60 -6h681.60m-681.60 -6h681.60m-681.60 -6h681.60"/>
<defs>
<path id="utclef" fill="currentColor" d="m-50 -90
	c-72 -41 -72 -158 52 -188
	c150 -10 220 188 90 256
	c-114 52 -275 0 -293 -136
	c-15 -181 93 -229 220 -334
	c88 -87 79 -133 62 -210
	c-51 33 -94 105 -89 186
	c17 267 36 374 49 574
	c6 96 -19 134 -77 135
	c-80 1 -126 -93 -61 -133
	c85 -41 133 101 31 105
	c23 17 92 37 90 -92
	c-10 -223 -39 -342 -50 -617
	c0 -90 0 -162 96 -232
	c56 72 63 230 22 289
	c-74 106 -257 168 -255 316
	c9 153 148 185 252 133
	c86 -65 29 -192 -80 -176
	c-71 12 -105 67 -59 124"/>
<use id="tclef" transform="scale(0.045)"
	xlink:href="#utclef"/>
</defs>
<use x="25.33" y="123.01" xlink:href="#tclef"/>
<defs>
<path id="usharp" fill="currentColor" d="
	m136 -702
	v890
	h32
	v-890
	m128 840
	h32
	v-888
	h-32
	m-232 286
	v116
	l338 -96
	v-116
	m-338 442
	v116
	l338 -98
	v-114"/>
<use id="sh0" transform="translate(-4,5) scale(0.018)"
	xlink:href="#usharp"/>
</defs>
<use x="40.33" y="99.01" xlink:href="#sh0"/>
<use x="45.83" y="108.01" xlink:href="#sh0"/>
<g font-family="serif" font-size="16" font-weight="bold" font-style="normal"
	transform="translate(61.83,123.01) scale(1.2,1)">
	<text y="-1" text-anchor="middle">4</text>
	<text y="-13" text-anchor="middle">4</text>
</g>
<defs>
<path id="hl" stroke="currentColor" d="m-6 0h12"/>
</defs>
<use x="79.83" y="93.01" xlink:href="#hl"/>
<use x="79.83" y="90.01" xlink:href="#hd"/>
<path d="M76.33 90.01v21.00" stroke="currentColor" fill="none"/>
<path fill="currentColor"
	d="M76.33 111.01c0.6 -5.6 9.6 -9 5.6 -18.4
	c1.6 6 -1.3 11.6 -5.6 12.8
"/>
<path fill="currentColor"
	d="M105.63 111.21l19.60 0.00v-3.20l-19.60 -0.00"/>
<path fill="currentColor"
	d="M106.03 106.21l18.90 0.00v-3.20l-18.90 -0.00"/>
<use x="109.53" y="93.01" xlink:href="#hl"/>
<use x="109.53" y="87.01" xlink:href="#hl"/>
<use x="109.53" y="84.01" xlink:href="#hd"/>
<path d="M106.03 84.01v26.20" stroke="currentColor" fill="none"/>
<use x="128.43" y="93.01" xlink:href="#hl"/>
<use x="128.43" y="87.01" xlink:href="#hl"/>
<use x="128.43" y="81.01" xlink:href="#hl"/>
<use x="128.43" y="78.01" xlink:href="#hd"/>
<path d="M124.93 78.01v32.20" stroke="currentColor" fill="none"/>
<path fill="currentColor"
	d="M145.53 111.21l40.70 0.00v-3.20l-40.70 -0.00"/>
<path fill="currentColor"
	d="M145.83 106.21l40.10 0.00v-3.20l-40.10 -0.00"/>
<path fill="currentColor"
	d="M145.83 101.21l40.10 0.00v-3.20l-40.10 -0.00"/>
<use x="149.33" y="93.01" xlink:href="#hl"/>
<use x="149.33" y="87.01" xlink:href="#hl"/>
<use x="149.33" y="81.01" xlink:href="#hl"/>
<use x="149.33" y="75.01" xlink:href="#hl"/>
<use x="149.33" y="69.01" xlink:href="#hl"/>
<use x="149.33" y="69.01" xlink:href="#hd"/>
<path d="M145.83 69.01v41.20" stroke="currentColor" fill="none"/>
<use x="162.73" y="93.01" xlink:href="#hl"/>
<use x="162.73" y="87.01" xlink:href="#hl"/>
<use x="162.73" y="81.01" xlink:href="#hl"/>
<use x="162.73" y="75.01" xlink:href="#hl"/>
<use x="162.73" y="72.01" xlink:href="#hd"/>
<path d="M159.23 72.01v38.20" stroke="currentColor" fill="none"/>
<use x="176.03" y="93.01" xlink:href="#hl"/>
<use x="176.03" y="87.01" xlink:href="#hl"/>
<use x="176.03" y="81.01" xlink:href="#hl"/>
<use x="176.03" y="75.01" xlink:href="#hl"/>
<use x="176.03" y="75.01" xlink:href="#hd"/>
<path d="M172.53 75.01v35.20" stroke="currentColor" fill="none"/>
<use x="189.43" y="93.01" xlink:href="#hl"/>
<use x="189.43" y="87.01" xlink:href="#hl"/>
<use x="189.43" y="81.01" xlink:href="#hl"/>
<use x="189.43" y="78.01" xlink:href="#hd"/>
<path d="M185.93 78.01v32.20" stroke="currentColor" fill="none"/>
<path fill="currentColor"
	d="M200.43 117.21l40.70 0.00v-3.20l-40.70 -0.00"/>
<path fill="currentColor"
	d="M200.73 112.21l40.10 0.00v-3.20l-40.10 -0.00"/>
<path fill="currentColor"
	d="M200.73 107.21l40.10 0.00v-3.20l-40.10 -0.00"/>
<use x="204.23" y="93.01" xlink:href="#hl"/>
<use x="204.23" y="87.01" xlink:href="#hl"/>
<use x="204.23" y="81.01" xlink:href="#hl"/>
<use x="204.23" y="81.01" xlink:href="#hd"/>
<path d="M200.73 81.01v35.20" stroke="currentColor" fill="none"/>
<use x="217.63" y="93.01" xlink:href="#hl"/>
<use x="217.63" y="87.01" xlink:href="#hl"/>
<use x="217.63" y="84.01" xlink:href="#hd"/>
<path d="M214.13 84.01v32.20" stroke="currentColor" fill="none"/>
<use x="230.93" y="93.01" xlink:href="#hl"/>
<use x="230.93" y="87.01" xlink:href="#hl"/>
<use x="230.93" y="87.01" xlink:href="#hd"/>
<path d="M227.43 87.01v29.20" stroke="currentColor" fill="none"/>
<use x="244.33" y="93.01" xlink:href="#hl"/>
<use x="244.33" y="90.01" xlink:href="#hd"/>
<path d="M240.83 90.01v26.20" stroke="currentColor" fill="none"/>
<defs>
<path id="r8e" fill="currentColor" d="m 0 0
	c-1.5 1.5 -2.4 2 -3.6 2
	c2.4 -2.8 -2.8 -4 -2.8 -1.2
	c0 2.7 4.3 2.4 5.9 0.6"/>
<g id="r32">
	<path d="m4.8 -10l-5.5 21.6" stroke="currentColor" fill="none"/>
	<use x="4.9" y="-10" xlink:href="#r8e"/>
	<use x="3.4" y="-4" xlink:href="#r8e"/>
	<use x="1.9" y="2" xlink:href="#r8e"/>
</g>
</defs>
<use x="257.63" y="111.01" xlink:href="#r32"/>
<use x="271.03" y="111.01" xlink:href="#r32"/>
<use x="285.83" y="93.01" xlink:href="#hl"/>
<use x="285.83" y="87.01" xlink:href="#hl"/>
<use x="285.83" y="81.01" xlink:href="#hl"/>
<use x="285.83" y="75.01" xlink:href="#hl"/>
<use x="285.83" y="75.01" xlink:href="#hd"/>
<path d="M282.33 75.01v36.00" stroke="currentColor" fill="none"/>
<path fill="currentColor"
	d="M282.33 111.01c0.9 -3.7 9.1 -6.4 6 -12.4
	c1 5.4 -4.2 8.4 -6 8.4
M282.33 105.61c0.9 -3.7 9.1 -6.4 6 -12.4
	c1 5.4 -4.2 8.4 -6 8.4
"/>
<use x="306.83" y="93.01" xlink:href="#hl"/>
<use x="306.83" y="87.01" xlink:href="#hl"/>
<use x="306.83" y="81.01" xlink:href="#hl"/>
<use x="306.83" y="78.01" xlink:href="#hd"/>
<path d="M303.33 78.01v33.00" stroke="currentColor" fill="none"/>
<path fill="currentColor"
	d="M303.33 111.01c0.6 -5.6 9.6 -9 5.6 -18.4
	c1.6 6 -1.3 11.6 -5.6 12.8
"/>
<use x="333.53" y="111.01" xlink:href="#r32"/>
<use x="346.93" y="111.01" xlink:href="#r32"/>
<use x="365.03" y="93.01" xlink:href="#hl"/>
<use x="365.03" y="87.01" xlink:href="#hl"/>
<use x="365.03" y="87.01" xlink:href="#hd"/>
<defs>
<path id="unat" fill="currentColor" d="
	m96 -750
	h-32
	v716
	l32 -8
	l182 -54
	v282
	h32
	v-706
	l-34 10
	l-180 50
	v-290
	m0 592
	v-190
	l182 -52
	v188"/>
<use id="nt0" transform="translate(-3,5) scale(0.018)"
	xlink:href="#unat"/>
</defs>
<use x="356.03" y="87.01" xlink:href="#nt0"/>
<path d="M361.53 87.01v24.00" stroke="currentColor" fill="none"/>
<path fill="currentColor"
	d="M361.53 111.01c0.9 -3.7 9.1 -6.4 6 -12.4
	c1 5.4 -4.2 8.4 -6 8.4
M361.53 105.61c0.9 -3.7 9.1 -6.4 6 -12.4
	c1 5.4 -4.2 8.4 -6 8.4
"/>
<use x="385.93" y="93.01" xlink:href="#hl"/>
<use x="385.93" y="90.01" xlink:href="#hd"/>
<path d="M382.43 90.01v21.00" stroke="currentColor" fill="none"/>
<path fill="currentColor"
	d="M382.43 111.01c0.6 -5.6 9.6 -9 5.6 -18.4
	c1.6 6 -1.3 11.6 -5.6 12.8
"/>
<path fill="currentColor"
	d="M420.73 124.21l45.50 -6.20v-3.20l-45.50 6.20"/>
<path fill="currentColor"
	d="M421.03 119.21l44.80 -6.10v-3.20l-44.80 6.10"/>
<path fill="currentColor"
	d="M421.03 114.21l44.80 -6.10v-3.20l-44.80 6.10"/>
<use x="424.53" y="99.01" xlink:href="#hd"/>
<path d="M421.03 99.01v24.20" stroke="currentColor" fill="none"/>
<use x="442.63" y="93.01" xlink:href="#hl"/>
<use x="442.63" y="93.01" xlink:href="#hd"/>
<use x="433.63" y="93.01" xlink:href="#sh0"/>
<path d="M439.13 93.01v27.70" stroke="currentColor" fill="none"/>
<use x="456.03" y="93.01" xlink:href="#hl"/>
<use x="456.03" y="87.01" xlink:href="#hl"/>
<use x="456.03" y="81.01" xlink:href="#hl"/>
<use x="456.03" y="81.01" xlink:href="#hd"/>
<path d="M452.53 81.01v37.90" stroke="currentColor" fill="none"/>
<use x="469.33" y="93.01" xlink:href="#hl"/>
<use x="469.33" y="87.01" xlink:href="#hl"/>
<use x="469.33" y="81.01" xlink:href="#hl"/>
<use x="469.33" y="75.01" xlink:href="#hl"/>
<use x="469.33" y="75.01" xlink:href="#hd"/>
<path d="M465.83 75.01v42.10" stroke="currentColor" fill="none"/>
<path fill="currentColor"
	d="M480.33 111.21l32.90 0.00v-3.20l-32.90 -0.00"/>
<path fill="currentColor"
	d="M480.73 106.21l32.20 0.00v-3.20l-32.20 -0.00"/>
<path fill="currentColor"
	d="M499.53 101.21l13.40 0.00v-3.20l-13.40 -0.00"/>
<use x="484.23" y="93.01" xlink:href="#hl"/>
<use x="484.23" y="87.01" xlink:href="#hl"/>
<use x="484.23" y="81.01" xlink:href="#hl"/>
<use x="484.23" y="75.01" xlink:href="#hl"/>
<use x="484.23" y="75.01" xlink:href="#hd"/>
<path d="M480.73 75.01v35.20" stroke="currentColor" fill="none"/>
<use x="503.03" y="93.01" xlink:href="#hl"/>
<use x="503.03" y="87.01" xlink:href="#hl"/>
<use x="503.03" y="81.01" xlink:href="#hl"/>
<use x="503.03" y="78.01" xlink:href="#hd"/>
<path d="M499.53 78.01v32.20" stroke="currentColor" fill="none"/>
<use x="516.43" y="93.01" xlink:href="#hl"/>
<use x="516.43" y="87.01" xlink:href="#hl"/>
<use x="516.43" y="81.01" xlink:href="#hl"/>
<use x="516.43" y="81.01" xlink:href="#hd"/>
<path d="M512.93 81.01v29.20" stroke="currentColor" fill="none"/>
<path fill="currentColor"
	d="M527.43 111.21l32.90 0.00v-3.20l-32.90 -0.00"/>
<path fill="currentColor"
	d="M527.73 106.21l32.20 0.00v-3.20l-32.20 -0.00"/>
<path fill="currentColor"
	d="M546.63 101.21l13.40 0.00v-3.20l-13.40 -0.00"/>
<use x="531.23" y="93.01" xlink:href="#hl"/>
<use x="531.23" y="87.01" xlink:href="#hl"/>
<use x="531.23" y="81.01" xlink:href="#hl"/>
<use x="531.23" y="81.01" xlink:href="#hd"/>
<path d="M527.73 81.01v29.20" stroke="currentColor" fill="none"/>
<use x="550.13" y="93.01" xlink:href="#hl"/>
<use x="550.13" y="87.01" xlink:href="#hl"/>
<use x="550.13" y="81.01" xlink:href="#hl"/>
<use x="550.13" y="75.01" xlink:href="#hl"/>
<use x="550.13" y="72.01" xlink:href="#hd"/>
<use x="541.13" y="72.01" xlink:href="#sh0"/>
<path d="M546.63 72.01v38.20" stroke="currentColor" fill="none"/>
<use x="563.53" y="93.01" xlink:href="#hl"/>
<use x="563.53" y="87.01" xlink:href="#hl"/>
<use x="563.53" y="81.01" xlink:href="#hl"/>
<use x="563.53" y="81.01" xlink:href="#hd"/>
<path d="M560.03 81.01v29.20" stroke="currentColor" fill="none"/>
<path fill="currentColor"
	d="M574.53 111.21l32.90 0.00v-3.20l-32.90 -0.00"/>
<path fill="currentColor"
	d="M574.83 106.21l32.20 0.00v-3.20l-32.20 -0.00"/>
<path fill="currentColor"
	d="M593.73 101.21l13.40 0.00v-3.20l-13.40 -0.00"/>
<use x="578.33" y="93.01" xlink:href="#hl"/>
<use x="578.33" y="87.01" xlink:href="#hl"/>
<use x="578.33" y="81.01" xlink:href="#hl"/>
<use x="578.33" y="81.01" xlink:href="#hd"/>
<path d="M574.83 81.01v29.20" stroke="currentColor" fill="none"/>
<use x="597.23" y="93.01" xlink:href="#hl"/>
<use x="597.23" y="87.01" xlink:href="#hl"/>
<use x="597.23" y="81.01" xlink:href="#hl"/>
<use x="597.23" y="75.01" xlink:href="#hl"/>
<use x="597.23" y="69.01" xlink:href="#hl"/>
<use x="597.23" y="66.01" xlink:href="#hd"/>
<use x="588.23" y="66.01" xlink:href="#sh0"/>
<path d="M593.73 66.01v44.20" stroke="currentColor" fill="none"/>
<use x="610.53" y="93.01" xlink:href="#hl"/>
<use x="610.53" y="87.01" xlink:href="#hl"/>
<use x="610.53" y="81.01" xlink:href="#hl"/>
<use x="610.53" y="81.01" xlink:href="#hd"/>
<path d="M607.03 81.01v29.20" stroke="currentColor" fill="none"/>
<path fill="currentColor"
	d="M621.53 111.21l19.60 0.00v-3.20l-19.60 -0.00"/>
<path fill="currentColor"
	d="M621.93 106.21l18.90 0.00v-3.20l-18.90 -0.00"/>
<use x="625.43" y="93.01" xlink:href="#hl"/>
<use x="625.43" y="87.01" xlink:href="#hl"/>
<use x="625.43" y="84.01" xlink:href="#hd"/>
<path d="M621.93 84.01v26.20" stroke="currentColor" fill="none"/>
<use x="644.33" y="93.01" xlink:href="#hl"/>
<use x="644.33" y="87.01" xlink:href="#hl"/>
<use x="644.33" y="87.01" xlink:href="#hd"/>
<path d="M640.83 87.01v23.20" stroke="currentColor" fill="none"/>
<use x="665.23" y="93.01" xlink:href="#hl"/>
<use x="665.23" y="90.01" xlink:href="#hd"/>
<path d="M661.73 90.01v21.00" stroke="currentColor" fill="none"/>
<path fill="currentColor"
	d="M661.73 111.01c0.6 -5.6 9.6 -9 5.6 -18.4
	c1.6 6 -1.3 11.6 -5.6 12.8
"/>
</g>
</svg>
