<?xml version="1.0" standalone="no"?>
<!DOCTYPE svg PUBLIC "-//W3C//DTD SVG 1.1//EN"
	"http://www.w3.org/Graphics/SVG/1.1/DTD/svg11.dtd">
<svg xmlns="http://www.w3.org/2000/svg" version="1.1"
	xmlns:xlink="http://www.w3.org/1999/xlink"
	xml:space='preserve' color="black"
	width="7.38in" height="1.46in" viewBox="0 0 531 105">
<title>7809.abc (7809) tune 1</title>
<!-- Creator: abcm2ps-7.8.14 -->
<!-- CreationDate: Mar 13, 2016 18:54 -->
<!-- CommandLine: -qxg 7809.abc -O ../svgs/7809.svg -->
<g transform="scale(0.750)" stroke-width="0.70" font-family="Times" font-size="20.00">
<text x="354.13" y="21.67" text-anchor="middle">7809.  Concerto in G Minor, 1st. Mvt.</text>
</g>
<g transform="scale(0.750)" stroke-width="0.70" font-family="Times" font-size="14.00" font-style="italic">
<text x="694.93" y="45.34" text-anchor="end">Antonio Vivaldi</text>
</g>
<g transform="scale(0.525)" stroke-width="0.70" font-family="Times" font-size="14.00" font-style="italic">
<defs>
<ellipse id="hd" rx="4.1" ry="2.9"
	transform="rotate(-20)" fill="currentColor"/>
</defs>
<use x="114.90" y="94.16" xlink:href="#hd"/>
<path d="M118.40 94.16v-20.00" stroke="currentColor" fill="none"/>
</g>
<g transform="scale(0.750)" stroke-width="0.70" font-family="Times" font-size="15.00" font-weight="bold">
<text x="88.13" y="68.01">= 120</text>
<path stroke="currentColor" fill="none"
	d="M233.83 117.01v-24.00"/>
<path stroke="currentColor" fill="none"
	d="M399.63 117.01v-24.00"/>
<path stroke="currentColor" fill="none"
	d="M565.13 117.01v-24.00"/>
<path stroke="currentColor" fill="none"
	d="M13.33 117.01h681.60m-681.60 -6h681.60m-681.60 -6h681.60m-681.60 -6h681.60m-681.60 -6h681.60"/>
<defs>
<path id="utclef" fill="currentColor" d="m-50 -90
	c-72 -41 -72 -158 52 -188
	c150 -10 220 188 90 256
	c-114 52 -275 0 -293 -136
	c-15 -181 93 -229 220 -334
	c88 -87 79 -133 62 -210
	c-51 33 -94 105 -89 186
	c17 267 36 374 49 574
	c6 96 -19 134 -77 135
	c-80 1 -126 -93 -61 -133
	c85 -41 133 101 31 105
	c23 17 92 37 90 -92
	c-10 -223 -39 -342 -50 -617
	c0 -90 0 -162 96 -232
	c56 72 63 230 22 289
	c-74 106 -257 168 -255 316
	c9 153 148 185 252 133
	c86 -65 29 -192 -80 -176
	c-71 12 -105 67 -59 124"/>
<use id="tclef" transform="scale(0.045)"
	xlink:href="#utclef"/>
</defs>
<use x="25.33" y="117.01" xlink:href="#tclef"/>
<defs>
<path id="uflat" fill="currentColor" d="
	m100 -746
	h32
	v734
	l-32 4
	m32 -332
	c46 -72 152 -90 208 -20
	c100 110 -120 326 -208 348
	m0 -28
	c54 0 200 -206 130 -290
	c-50 -60 -130 -4 -130 34"/>
<use id="ft0" transform="translate(-3.5,3.5) scale(0.018)"
	xlink:href="#uflat"/>
</defs>
<use x="40.33" y="105.01" xlink:href="#ft0"/>
<use x="45.83" y="96.01" xlink:href="#ft0"/>
<g font-family="serif" font-size="16" font-weight="bold" font-style="normal"
	transform="translate(61.83,117.01) scale(1.2,1)">
	<text y="-1" text-anchor="middle">4</text>
	<text y="-13" text-anchor="middle">4</text>
</g>
<use x="79.83" y="90.01" xlink:href="#hd"/>
<path d="M76.33 90.01v20.00" stroke="currentColor" fill="none"/>
<path fill="currentColor"
	d="M76.33 110.01c0.6 -5.6 9.6 -9 5.6 -18.4
	c1.6 6 -1.3 11.6 -5.6 12.8
"/>
<defs>
<path id="hl" stroke="currentColor" d="m-6 0h12"/>
</defs>
<use x="99.33" y="87.01" xlink:href="#hl"/>
<use x="99.33" y="84.01" xlink:href="#hd"/>
<path d="M95.83 84.01v21.00" stroke="currentColor" fill="none"/>
<path fill="currentColor"
	d="M95.83 105.01c0.6 -5.6 9.6 -9 5.6 -18.4
	c1.6 6 -1.3 11.6 -5.6 12.8
"/>
<use x="119.03" y="87.01" xlink:href="#hl"/>
<use x="119.03" y="81.01" xlink:href="#hl"/>
<use x="119.03" y="78.01" xlink:href="#hd"/>
<path d="M115.53 78.01v27.00" stroke="currentColor" fill="none"/>
<path fill="currentColor"
	d="M115.53 105.01c0.6 -5.6 9.6 -9 5.6 -18.4
	c1.6 6 -1.3 11.6 -5.6 12.8
"/>
<use x="138.63" y="87.01" xlink:href="#hl"/>
<use x="138.63" y="81.01" xlink:href="#hl"/>
<use x="138.63" y="75.01" xlink:href="#hl"/>
<use x="138.63" y="69.01" xlink:href="#hl"/>
<use x="138.63" y="69.01" xlink:href="#hd"/>
<path d="M135.13 69.01v36.00" stroke="currentColor" fill="none"/>
<path fill="currentColor"
	d="M135.13 105.01c0.6 -5.6 9.6 -9 5.6 -18.4
	c1.6 6 -1.3 11.6 -5.6 12.8
"/>
<use x="159.03" y="87.01" xlink:href="#hl"/>
<use x="159.03" y="81.01" xlink:href="#hl"/>
<use x="159.03" y="75.01" xlink:href="#hl"/>
<use x="159.03" y="69.01" xlink:href="#hl"/>
<use x="159.03" y="69.01" xlink:href="#hd"/>
<use x="150.03" y="69.01" xlink:href="#ft0"/>
<path d="M155.53 69.01v36.00" stroke="currentColor" fill="none"/>
<path fill="currentColor"
	d="M155.53 105.01c0.6 -5.6 9.6 -9 5.6 -18.4
	c1.6 6 -1.3 11.6 -5.6 12.8
"/>
<use x="178.63" y="87.01" xlink:href="#hl"/>
<use x="178.63" y="81.01" xlink:href="#hl"/>
<use x="178.63" y="75.01" xlink:href="#hl"/>
<use x="178.63" y="69.01" xlink:href="#hl"/>
<use x="178.63" y="66.01" xlink:href="#hd"/>
<path d="M175.13 66.01v39.00" stroke="currentColor" fill="none"/>
<path fill="currentColor"
	d="M175.13 105.01c0.6 -5.6 9.6 -9 5.6 -18.4
	c1.6 6 -1.3 11.6 -5.6 12.8
"/>
<use x="198.33" y="87.01" xlink:href="#hl"/>
<use x="198.33" y="81.01" xlink:href="#hl"/>
<use x="198.33" y="81.01" xlink:href="#hd"/>
<path d="M194.83 81.01v24.00" stroke="currentColor" fill="none"/>
<path fill="currentColor"
	d="M194.83 105.01c0.6 -5.6 9.6 -9 5.6 -18.4
	c1.6 6 -1.3 11.6 -5.6 12.8
"/>
<use x="217.93" y="87.01" xlink:href="#hl"/>
<use x="217.93" y="81.01" xlink:href="#hl"/>
<use x="217.93" y="75.01" xlink:href="#hl"/>
<use x="217.93" y="75.01" xlink:href="#hd"/>
<path d="M214.43 75.01v30.00" stroke="currentColor" fill="none"/>
<path fill="currentColor"
	d="M214.43 105.01c0.6 -5.6 9.6 -9 5.6 -18.4
	c1.6 6 -1.3 11.6 -5.6 12.8
"/>
<use x="246.33" y="87.01" xlink:href="#hl"/>
<use x="246.33" y="87.01" xlink:href="#hd"/>
<path d="M242.83 87.01v20.00" stroke="currentColor" fill="none"/>
<path fill="currentColor"
	d="M242.83 107.01c0.6 -5.6 9.6 -9 5.6 -18.4
	c1.6 6 -1.3 11.6 -5.6 12.8
"/>
<use x="265.93" y="87.01" xlink:href="#hl"/>
<use x="265.93" y="81.01" xlink:href="#hl"/>
<use x="265.93" y="81.01" xlink:href="#hd"/>
<path d="M262.43 81.01v24.00" stroke="currentColor" fill="none"/>
<path fill="currentColor"
	d="M262.43 105.01c0.6 -5.6 9.6 -9 5.6 -18.4
	c1.6 6 -1.3 11.6 -5.6 12.8
"/>
<use x="286.23" y="90.01" xlink:href="#hd"/>
<use x="277.23" y="90.01" xlink:href="#ft0"/>
<path d="M282.73 90.01v20.00" stroke="currentColor" fill="none"/>
<path fill="currentColor"
	d="M282.73 110.01c0.6 -5.6 9.6 -9 5.6 -18.4
	c1.6 6 -1.3 11.6 -5.6 12.8
"/>
<use x="305.83" y="87.01" xlink:href="#hl"/>
<use x="305.83" y="81.01" xlink:href="#hl"/>
<use x="305.83" y="81.01" xlink:href="#hd"/>
<path d="M302.33 81.01v24.00" stroke="currentColor" fill="none"/>
<path fill="currentColor"
	d="M302.33 105.01c0.6 -5.6 9.6 -9 5.6 -18.4
	c1.6 6 -1.3 11.6 -5.6 12.8
"/>
<use x="324.23" y="111.01" xlink:href="#hd"/>
<defs>
<path id="unat" fill="currentColor" d="
	m96 -750
	h-32
	v716
	l32 -8
	l182 -54
	v282
	h32
	v-706
	l-34 10
	l-180 50
	v-290
	m0 592
	v-190
	l182 -52
	v188"/>
<use id="nt0" transform="translate(-3,5) scale(0.018)"
	xlink:href="#unat"/>
</defs>
<use x="315.23" y="111.01" xlink:href="#nt0"/>
<path d="M327.73 111.01v-20.00" stroke="currentColor" fill="none"/>
<path fill="currentColor"
	d="	M327.73 91.01c0.6 5.6 9.6 9 5.6 18.4
	c1.6 -6 -1.3 -11.6 -5.6 -12.8
"/>
<use x="344.63" y="90.01" xlink:href="#hd"/>
<path d="M341.13 90.01v20.00" stroke="currentColor" fill="none"/>
<path fill="currentColor"
	d="M341.13 110.01c0.6 -5.6 9.6 -9 5.6 -18.4
	c1.6 6 -1.3 11.6 -5.6 12.8
"/>
<use x="364.23" y="87.01" xlink:href="#hl"/>
<use x="364.23" y="84.01" xlink:href="#hd"/>
<path d="M360.73 84.01v21.00" stroke="currentColor" fill="none"/>
<path fill="currentColor"
	d="M360.73 105.01c0.6 -5.6 9.6 -9 5.6 -18.4
	c1.6 6 -1.3 11.6 -5.6 12.8
"/>
<use x="383.83" y="87.01" xlink:href="#hl"/>
<use x="383.83" y="81.01" xlink:href="#hl"/>
<use x="383.83" y="78.01" xlink:href="#hd"/>
<path d="M380.33 78.01v27.00" stroke="currentColor" fill="none"/>
<path fill="currentColor"
	d="M380.33 105.01c0.6 -5.6 9.6 -9 5.6 -18.4
	c1.6 6 -1.3 11.6 -5.6 12.8
"/>
<use x="412.13" y="87.01" xlink:href="#hl"/>
<use x="412.13" y="81.01" xlink:href="#hl"/>
<use x="412.13" y="75.01" xlink:href="#hl"/>
<use x="412.13" y="69.01" xlink:href="#hl"/>
<use x="412.13" y="69.01" xlink:href="#hd"/>
<path d="M408.63 69.01v36.00" stroke="currentColor" fill="none"/>
<path fill="currentColor"
	d="M408.63 105.01c0.6 -5.6 9.6 -9 5.6 -18.4
	c1.6 6 -1.3 11.6 -5.6 12.8
"/>
<use x="431.83" y="87.01" xlink:href="#hl"/>
<use x="431.83" y="81.01" xlink:href="#hl"/>
<use x="431.83" y="75.01" xlink:href="#hl"/>
<use x="431.83" y="69.01" xlink:href="#hl"/>
<use x="431.83" y="63.01" xlink:href="#hl"/>
<use x="431.83" y="63.01" xlink:href="#hd"/>
<path d="M428.33 63.01v42.00" stroke="currentColor" fill="none"/>
<path fill="currentColor"
	d="M428.33 105.01c0.6 -5.6 9.6 -9 5.6 -18.4
	c1.6 6 -1.3 11.6 -5.6 12.8
"/>
<use x="451.43" y="87.01" xlink:href="#hl"/>
<use x="451.43" y="81.01" xlink:href="#hl"/>
<use x="451.43" y="75.01" xlink:href="#hl"/>
<use x="451.43" y="69.01" xlink:href="#hl"/>
<use x="451.43" y="69.01" xlink:href="#hd"/>
<path d="M447.93 69.01v36.00" stroke="currentColor" fill="none"/>
<path fill="currentColor"
	d="M447.93 105.01c0.6 -5.6 9.6 -9 5.6 -18.4
	c1.6 6 -1.3 11.6 -5.6 12.8
"/>
<use x="471.13" y="87.01" xlink:href="#hl"/>
<use x="471.13" y="81.01" xlink:href="#hl"/>
<use x="471.13" y="78.01" xlink:href="#hd"/>
<path d="M467.63 78.01v27.00" stroke="currentColor" fill="none"/>
<path fill="currentColor"
	d="M467.63 105.01c0.6 -5.6 9.6 -9 5.6 -18.4
	c1.6 6 -1.3 11.6 -5.6 12.8
"/>
<use x="490.83" y="87.01" xlink:href="#hl"/>
<use x="490.83" y="81.01" xlink:href="#hl"/>
<use x="490.83" y="75.01" xlink:href="#hl"/>
<use x="490.83" y="75.01" xlink:href="#hd"/>
<path d="M487.33 75.01v30.00" stroke="currentColor" fill="none"/>
<path fill="currentColor"
	d="M487.33 105.01c0.6 -5.6 9.6 -9 5.6 -18.4
	c1.6 6 -1.3 11.6 -5.6 12.8
"/>
<use x="510.33" y="102.01" xlink:href="#hd"/>
<path d="M506.83 102.01v20.00" stroke="currentColor" fill="none"/>
<path fill="currentColor"
	d="M506.83 122.01c0.6 -5.6 9.6 -9 5.6 -18.4
	c1.6 6 -1.3 11.6 -5.6 12.8
"/>
<use x="529.83" y="96.01" xlink:href="#hd"/>
<path d="M526.33 96.01v20.00" stroke="currentColor" fill="none"/>
<path fill="currentColor"
	d="M526.33 116.01c0.6 -5.6 9.6 -9 5.6 -18.4
	c1.6 6 -1.3 11.6 -5.6 12.8
"/>
<use x="549.33" y="90.01" xlink:href="#hd"/>
<path d="M545.83 90.01v20.00" stroke="currentColor" fill="none"/>
<path fill="currentColor"
	d="M545.83 110.01c0.6 -5.6 9.6 -9 5.6 -18.4
	c1.6 6 -1.3 11.6 -5.6 12.8
"/>
<use x="577.63" y="87.01" xlink:href="#hl"/>
<use x="577.63" y="81.01" xlink:href="#hl"/>
<use x="577.63" y="81.01" xlink:href="#hd"/>
<path d="M574.13 81.01v24.00" stroke="currentColor" fill="none"/>
<path fill="currentColor"
	d="M574.13 105.01c0.6 -5.6 9.6 -9 5.6 -18.4
	c1.6 6 -1.3 11.6 -5.6 12.8
"/>
<use x="597.33" y="87.01" xlink:href="#hl"/>
<use x="597.33" y="81.01" xlink:href="#hl"/>
<use x="597.33" y="75.01" xlink:href="#hl"/>
<use x="597.33" y="75.01" xlink:href="#hd"/>
<path d="M593.83 75.01v30.00" stroke="currentColor" fill="none"/>
<path fill="currentColor"
	d="M593.83 105.01c0.6 -5.6 9.6 -9 5.6 -18.4
	c1.6 6 -1.3 11.6 -5.6 12.8
"/>
<use x="617.03" y="87.01" xlink:href="#hl"/>
<use x="617.03" y="81.01" xlink:href="#hl"/>
<use x="617.03" y="75.01" xlink:href="#hl"/>
<use x="617.03" y="69.01" xlink:href="#hl"/>
<use x="617.03" y="69.01" xlink:href="#hd"/>
<path d="M613.53 69.01v36.00" stroke="currentColor" fill="none"/>
<path fill="currentColor"
	d="M613.53 105.01c0.6 -5.6 9.6 -9 5.6 -18.4
	c1.6 6 -1.3 11.6 -5.6 12.8
"/>
<use x="636.63" y="87.01" xlink:href="#hl"/>
<use x="636.63" y="84.01" xlink:href="#hd"/>
<path d="M633.13 84.01v21.00" stroke="currentColor" fill="none"/>
<path fill="currentColor"
	d="M633.13 105.01c0.6 -5.6 9.6 -9 5.6 -18.4
	c1.6 6 -1.3 11.6 -5.6 12.8
"/>
<use x="656.33" y="87.01" xlink:href="#hl"/>
<use x="656.33" y="87.01" xlink:href="#hd"/>
<path d="M652.83 87.01v20.00" stroke="currentColor" fill="none"/>
<path fill="currentColor"
	d="M652.83 107.01c0.6 -5.6 9.6 -9 5.6 -18.4
	c1.6 6 -1.3 11.6 -5.6 12.8
"/>
<use x="675.83" y="93.01" xlink:href="#hd"/>
<path d="M672.33 93.01v20.00" stroke="currentColor" fill="none"/>
<path fill="currentColor"
	d="M672.33 113.01c0.6 -5.6 9.6 -9 5.6 -18.4
	c1.6 6 -1.3 11.6 -5.6 12.8
"/>
</g>
</svg>
