<?xml version="1.0" standalone="no"?>
<!DOCTYPE svg PUBLIC "-//W3C//DTD SVG 1.1//EN"
	"http://www.w3.org/Graphics/SVG/1.1/DTD/svg11.dtd">
<svg xmlns="http://www.w3.org/2000/svg" version="1.1"
	xmlns:xlink="http://www.w3.org/1999/xlink"
	xml:space='preserve' color="black"
	width="7.38in" height="1.46in" viewBox="0 0 531 105">
<title>7827.abc (7827) tune 1</title>
<!-- Creator: abcm2ps-7.8.14 -->
<!-- CreationDate: Mar 13, 2016 18:54 -->
<!-- CommandLine: -qxg 7827.abc -O ../svgs/7827.svg -->
<g transform="scale(0.750)" stroke-width="0.70" font-family="Times" font-size="20.00">
<text x="354.13" y="21.67" text-anchor="middle">7827.  Concerto Grosso in B Minor, Op. 3, No. 10, 3rd. Mvt.</text>
</g>
<g transform="scale(0.750)" stroke-width="0.70" font-family="Times" font-size="14.00" font-style="italic">
<text x="694.93" y="45.34" text-anchor="end">Antonio Vivaldi</text>
</g>
<g transform="scale(0.525)" stroke-width="0.70" font-family="Times" font-size="14.00" font-style="italic">
<defs>
<ellipse id="hd" rx="4.1" ry="2.9"
	transform="rotate(-20)" fill="currentColor"/>
</defs>
<use x="114.90" y="94.16" xlink:href="#hd"/>
<path d="M118.40 94.16v-20.00" stroke="currentColor" fill="none"/>
</g>
<g transform="scale(0.750)" stroke-width="0.70" font-family="Times" font-size="15.00" font-weight="bold">
<text x="88.13" y="68.01">= 120</text>
<path stroke="currentColor" fill="none"
	d="M245.23 117.01v-24.00"/>
<path stroke="currentColor" fill="none"
	d="M424.73 117.01v-24.00"/>
<path stroke="currentColor" fill="none"
	d="M13.33 117.01h513.90m-513.90 -6h513.90m-513.90 -6h513.90m-513.90 -6h513.90m-513.90 -6h513.90"/>
<defs>
<path id="utclef" fill="currentColor" d="m-50 -90
	c-72 -41 -72 -158 52 -188
	c150 -10 220 188 90 256
	c-114 52 -275 0 -293 -136
	c-15 -181 93 -229 220 -334
	c88 -87 79 -133 62 -210
	c-51 33 -94 105 -89 186
	c17 267 36 374 49 574
	c6 96 -19 134 -77 135
	c-80 1 -126 -93 -61 -133
	c85 -41 133 101 31 105
	c23 17 92 37 90 -92
	c-10 -223 -39 -342 -50 -617
	c0 -90 0 -162 96 -232
	c56 72 63 230 22 289
	c-74 106 -257 168 -255 316
	c9 153 148 185 252 133
	c86 -65 29 -192 -80 -176
	c-71 12 -105 67 -59 124"/>
<use id="tclef" transform="scale(0.045)"
	xlink:href="#utclef"/>
</defs>
<use x="25.33" y="117.01" xlink:href="#tclef"/>
<defs>
<path id="usharp" fill="currentColor" d="
	m136 -702
	v890
	h32
	v-890
	m128 840
	h32
	v-888
	h-32
	m-232 286
	v116
	l338 -96
	v-116
	m-338 442
	v116
	l338 -98
	v-114"/>
<use id="sh0" transform="translate(-4,5) scale(0.018)"
	xlink:href="#usharp"/>
</defs>
<use x="40.33" y="93.01" xlink:href="#sh0"/>
<use x="45.83" y="102.01" xlink:href="#sh0"/>
<g font-family="serif" font-size="16" font-weight="bold" font-style="normal"
	transform="translate(61.83,117.01) scale(1.2,1)">
	<text y="-1" text-anchor="middle">8</text>
	<text y="-13" text-anchor="middle">6</text>
</g>
<path fill="currentColor"
	d="M76.03 105.21l26.10 0.00v-3.20l-26.10 -0.00"/>
<path fill="currentColor"
	d="M95.83 100.21l6.00 0.00v-3.20l-6.00 -0.00"/>
<defs>
<path id="hl" stroke="currentColor" d="m-6 0h12"/>
</defs>
<use x="79.83" y="87.01" xlink:href="#hl"/>
<use x="79.83" y="84.01" xlink:href="#hd"/>
<path d="M76.33 84.01v20.20" stroke="currentColor" fill="none"/>
<use x="105.33" y="87.01" xlink:href="#hl"/>
<use x="105.33" y="81.01" xlink:href="#hl"/>
<use x="105.33" y="78.01" xlink:href="#hd"/>
<path d="M101.83 78.01v26.20" stroke="currentColor" fill="none"/>
<path fill="currentColor"
	d="M121.43 105.21l18.70 0.00v-3.20l-18.70 -0.00"/>
<path fill="currentColor"
	d="M127.83 100.21l-6.00 -0.00v-3.20l6.00 0.00"/>
<use x="125.33" y="87.01" xlink:href="#hl"/>
<use x="125.33" y="81.01" xlink:href="#hl"/>
<use x="125.33" y="81.01" xlink:href="#hd"/>
<path d="M121.83 81.01v23.20" stroke="currentColor" fill="none"/>
<use x="143.33" y="87.01" xlink:href="#hl"/>
<use x="143.33" y="84.01" xlink:href="#hd"/>
<path d="M139.83 84.01v20.20" stroke="currentColor" fill="none"/>
<path fill="currentColor"
	d="M167.73 111.21l51.60 0.00v-3.20l-51.60 -0.00"/>
<use x="171.63" y="93.01" xlink:href="#hd"/>
<path d="M168.13 93.01v17.20" stroke="currentColor" fill="none"/>
<use x="197.03" y="87.01" xlink:href="#hl"/>
<use x="197.03" y="84.01" xlink:href="#hd"/>
<path d="M193.53 84.01v26.20" stroke="currentColor" fill="none"/>
<use x="222.53" y="93.01" xlink:href="#hd"/>
<path d="M219.03 93.01v17.20" stroke="currentColor" fill="none"/>
<path fill="currentColor"
	d="M255.53 120.11l26.10 -4.20v-3.20l-26.10 4.20"/>
<path fill="currentColor"
	d="M275.33 111.91l6.00 -1.00v-3.20l-6.00 1.00"/>
<use x="259.33" y="99.01" xlink:href="#hd"/>
<path d="M255.83 99.01v20.00" stroke="currentColor" fill="none"/>
<use x="284.83" y="93.01" xlink:href="#hd"/>
<path d="M281.33 93.01v22.00" stroke="currentColor" fill="none"/>
<path fill="currentColor"
	d="M300.93 118.31l18.70 2.30v-3.20l-18.70 -2.30"/>
<path fill="currentColor"
	d="M307.33 114.11l-6.00 -0.80v-3.20l6.00 0.80"/>
<use x="304.83" y="96.01" xlink:href="#hd"/>
<path d="M301.33 96.01v21.40" stroke="currentColor" fill="none"/>
<use x="322.83" y="99.01" xlink:href="#hd"/>
<path d="M319.33 99.01v20.60" stroke="currentColor" fill="none"/>
<use x="351.13" y="87.01" xlink:href="#hl"/>
<use x="351.13" y="84.01" xlink:href="#hd"/>
<circle fill="currentColor" cx="359.13" cy="84.01" r="1.2"/>
<path d="M347.63 84.01v21.00" stroke="currentColor" fill="none"/>
<path fill="currentColor"
	d="M347.63 105.01c0.6 -5.6 9.6 -9 5.6 -18.4
	c1.6 6 -1.3 11.6 -5.6 12.8
"/>
<path fill="currentColor"
	d="M379.43 120.11l26.10 -4.20v-3.20l-26.10 4.20"/>
<path fill="currentColor"
	d="M399.23 111.91l6.00 -1.00v-3.20l-6.00 1.00"/>
<use x="383.33" y="99.01" xlink:href="#hd"/>
<path d="M379.83 99.01v20.00" stroke="currentColor" fill="none"/>
<use x="408.73" y="93.01" xlink:href="#hd"/>
<path d="M405.23 93.01v22.00" stroke="currentColor" fill="none"/>
<use x="438.93" y="93.01" xlink:href="#hd"/>
<path d="M435.43 93.01v22.00" stroke="currentColor" fill="none"/>
<path fill="currentColor"
	d="M435.43 115.01c0.9 -3.7 9.1 -6.4 6 -12.4
	c1 5.4 -4.2 8.4 -6 8.4
M435.43 109.61c0.9 -3.7 9.1 -6.4 6 -12.4
	c1 5.4 -4.2 8.4 -6 8.4
"/>
<use x="458.93" y="87.01" xlink:href="#hl"/>
<use x="458.93" y="84.01" xlink:href="#hd"/>
<path d="M455.43 84.01v21.00" stroke="currentColor" fill="none"/>
<use x="498.93" y="105.01" xlink:href="#hd"/>
<path d="M495.43 105.01v20.00" stroke="currentColor" fill="none"/>
<path fill="currentColor"
	d="M495.43 125.01c0.6 -5.6 9.6 -9 5.6 -18.4
	c1.6 6 -1.3 11.6 -5.6 12.8
"/>
<path fill="currentColor"
	d="M412.23 93.01c3.65 -4.92 19.50 -4.92 23.15 -0.00
	l0.00 -0.22c-4.34 -6.69 -18.81 -6.69 -23.15 0.22"/>
</g>
</svg>
