<?xml version="1.0" standalone="no"?>
<!DOCTYPE svg PUBLIC "-//W3C//DTD SVG 1.1//EN"
	"http://www.w3.org/Graphics/SVG/1.1/DTD/svg11.dtd">
<svg xmlns="http://www.w3.org/2000/svg" version="1.1"
	xmlns:xlink="http://www.w3.org/1999/xlink"
	xml:space='preserve' color="black"
	width="7.38in" height="1.45in" viewBox="0 0 531 104">
<title>7857.abc (7857) tune 1</title>
<!-- Creator: abcm2ps-7.8.14 -->
<!-- CreationDate: Mar 13, 2016 18:54 -->
<!-- CommandLine: -qxg 7857.abc -O ../svgs/7857.svg -->
<g transform="scale(0.750)" stroke-width="0.70" font-family="Times" font-size="20.00">
<text x="354.13" y="21.67" text-anchor="middle">7857.  Die Feen, Overture, 2nd. Theme</text>
</g>
<g transform="scale(0.750)" stroke-width="0.70" font-family="Times" font-size="14.00" font-style="italic">
<text x="694.93" y="45.34" text-anchor="end">Richard Wagner</text>
</g>
<g transform="scale(0.525)" stroke-width="0.70" font-family="Times" font-size="14.00" font-style="italic">
<defs>
<ellipse id="hd" rx="4.1" ry="2.9"
	transform="rotate(-20)" fill="currentColor"/>
</defs>
<use x="130.61" y="94.16" xlink:href="#hd"/>
<path d="M134.11 94.16v-20.00" stroke="currentColor" fill="none"/>
</g>
<g transform="scale(0.750)" stroke-width="0.70" font-family="Times" font-size="15.00" font-weight="bold">
<text x="99.13" y="68.01">= 120</text>
<path stroke="currentColor" fill="none"
	d="M292.33 116.01v-24.00"/>
<path stroke="currentColor" fill="none"
	d="M439.33 116.01v-24.00"/>
<path stroke="currentColor" fill="none"
	d="M586.53 116.01v-24.00"/>
<path stroke="currentColor" fill="none"
	d="M13.33 116.01h681.60m-681.60 -6h681.60m-681.60 -6h681.60m-681.60 -6h681.60m-681.60 -6h681.60"/>
<defs>
<path id="utclef" fill="currentColor" d="m-50 -90
	c-72 -41 -72 -158 52 -188
	c150 -10 220 188 90 256
	c-114 52 -275 0 -293 -136
	c-15 -181 93 -229 220 -334
	c88 -87 79 -133 62 -210
	c-51 33 -94 105 -89 186
	c17 267 36 374 49 574
	c6 96 -19 134 -77 135
	c-80 1 -126 -93 -61 -133
	c85 -41 133 101 31 105
	c23 17 92 37 90 -92
	c-10 -223 -39 -342 -50 -617
	c0 -90 0 -162 96 -232
	c56 72 63 230 22 289
	c-74 106 -257 168 -255 316
	c9 153 148 185 252 133
	c86 -65 29 -192 -80 -176
	c-71 12 -105 67 -59 124"/>
<use id="tclef" transform="scale(0.045)"
	xlink:href="#utclef"/>
</defs>
<use x="25.33" y="116.01" xlink:href="#tclef"/>
<defs>
<path id="usharp" fill="currentColor" d="
	m136 -702
	v890
	h32
	v-890
	m128 840
	h32
	v-888
	h-32
	m-232 286
	v116
	l338 -96
	v-116
	m-338 442
	v116
	l338 -98
	v-114"/>
<use id="sh0" transform="translate(-4,5) scale(0.018)"
	xlink:href="#usharp"/>
</defs>
<use x="40.33" y="92.01" xlink:href="#sh0"/>
<use x="45.83" y="101.01" xlink:href="#sh0"/>
<use x="51.33" y="89.01" xlink:href="#sh0"/>
<use x="56.83" y="98.01" xlink:href="#sh0"/>
<g font-family="serif" font-size="16" font-weight="bold" font-style="normal"
	transform="translate(72.83,116.01) scale(1.2,1)">
	<text y="-1" text-anchor="middle">2</text>
	<text y="-13" text-anchor="middle">2</text>
</g>
<defs>
<path id="r8e" fill="currentColor" d="m 0 0
	c-1.5 1.5 -2.4 2 -3.6 2
	c2.4 -2.8 -2.8 -4 -2.8 -1.2
	c0 2.7 4.3 2.4 5.9 0.6"/>
<g id="r8">
	<path d="m3.3 -4l-3.4 9.6" stroke="currentColor" fill="none"/>
	<use x="3.4" y="-4" xlink:href="#r8e"/>
</g>
</defs>
<use x="90.83" y="104.01" xlink:href="#r8"/>
<use x="114.53" y="107.01" xlink:href="#hd"/>
<use x="105.53" y="107.01" xlink:href="#sh0"/>
<path d="M118.03 107.01v-20.00" stroke="currentColor" fill="none"/>
<path fill="currentColor"
	d="	M118.03 87.01c0.6 5.6 9.6 9 5.6 18.4
	c1.6 -6 -1.3 -11.6 -5.6 -12.8
"/>
<use x="140.73" y="104.01" xlink:href="#hd"/>
<path d="M144.23 104.01v-20.00" stroke="currentColor" fill="none"/>
<path fill="currentColor"
	d="	M144.23 84.01c0.6 5.6 9.6 9 5.6 18.4
	c1.6 -6 -1.3 -11.6 -5.6 -12.8
"/>
<use x="167.03" y="89.01" xlink:href="#hd"/>
<path d="M163.53 89.01v20.00" stroke="currentColor" fill="none"/>
<path fill="currentColor"
	d="M163.53 109.01c0.6 -5.6 9.6 -9 5.6 -18.4
	c1.6 6 -1.3 11.6 -5.6 12.8
"/>
<use x="193.13" y="92.01" xlink:href="#hd"/>
<path d="M189.63 92.01v20.00" stroke="currentColor" fill="none"/>
<path fill="currentColor"
	d="M189.63 112.01c0.6 -5.6 9.6 -9 5.6 -18.4
	c1.6 6 -1.3 11.6 -5.6 12.8
"/>
<use x="219.23" y="95.01" xlink:href="#hd"/>
<path d="M215.73 95.01v20.00" stroke="currentColor" fill="none"/>
<path fill="currentColor"
	d="M215.73 115.01c0.6 -5.6 9.6 -9 5.6 -18.4
	c1.6 6 -1.3 11.6 -5.6 12.8
"/>
<defs>
<path id="hl" stroke="currentColor" d="m-6 0h12"/>
</defs>
<use x="245.33" y="86.01" xlink:href="#hl"/>
<use x="245.33" y="80.01" xlink:href="#hl"/>
<use x="245.33" y="80.01" xlink:href="#hd"/>
<path d="M241.83 80.01v24.00" stroke="currentColor" fill="none"/>
<path fill="currentColor"
	d="M241.83 104.01c0.6 -5.6 9.6 -9 5.6 -18.4
	c1.6 6 -1.3 11.6 -5.6 12.8
"/>
<use x="271.43" y="86.01" xlink:href="#hl"/>
<use x="271.43" y="83.01" xlink:href="#hd"/>
<path d="M267.93 83.01v21.00" stroke="currentColor" fill="none"/>
<path fill="currentColor"
	d="M267.93 104.01c0.6 -5.6 9.6 -9 5.6 -18.4
	c1.6 6 -1.3 11.6 -5.6 12.8
"/>
<use x="305.53" y="89.01" xlink:href="#hd"/>
<path d="M302.03 89.01v20.00" stroke="currentColor" fill="none"/>
<path fill="currentColor"
	d="M302.03 109.01c0.6 -5.6 9.6 -9 5.6 -18.4
	c1.6 6 -1.3 11.6 -5.6 12.8
"/>
<use x="331.63" y="86.01" xlink:href="#hl"/>
<use x="331.63" y="80.01" xlink:href="#hl"/>
<use x="331.63" y="74.01" xlink:href="#hl"/>
<use x="331.63" y="68.01" xlink:href="#hl"/>
<use x="331.63" y="68.01" xlink:href="#hd"/>
<path d="M328.13 68.01v36.00" stroke="currentColor" fill="none"/>
<path fill="currentColor"
	d="M328.13 104.01c0.6 -5.6 9.6 -9 5.6 -18.4
	c1.6 6 -1.3 11.6 -5.6 12.8
"/>
<use x="357.83" y="86.01" xlink:href="#hl"/>
<use x="357.83" y="80.01" xlink:href="#hl"/>
<use x="357.83" y="74.01" xlink:href="#hl"/>
<defs>
<path id="Hd" fill="currentColor" d="m3 -1.6
	c-1 -1.8 -7 1.4 -6 3.2
	c1 1.8 7 -1.4 6 -3.2
	m0.5 -0.3
	c2 3.8 -5 7.6 -7 3.8
	c-2 -3.8 5 -7.6 7 -3.8"/>
</defs>
<use x="357.83" y="71.01" xlink:href="#Hd"/>
<path d="M354.33 71.01v33.00" stroke="currentColor" fill="none"/>
<use x="409.83" y="86.01" xlink:href="#hl"/>
<use x="409.83" y="80.01" xlink:href="#hl"/>
<use x="409.83" y="74.01" xlink:href="#hl"/>
<use x="409.83" y="74.01" xlink:href="#hd"/>
<path d="M406.33 74.01v30.00" stroke="currentColor" fill="none"/>
<use x="452.53" y="86.01" xlink:href="#hl"/>
<use x="452.53" y="83.01" xlink:href="#hd"/>
<path d="M449.03 83.01v21.00" stroke="currentColor" fill="none"/>
<path fill="currentColor"
	d="M449.03 104.01c0.6 -5.6 9.6 -9 5.6 -18.4
	c1.6 6 -1.3 11.6 -5.6 12.8
"/>
<use x="478.73" y="86.01" xlink:href="#hl"/>
<use x="478.73" y="80.01" xlink:href="#hl"/>
<use x="478.73" y="74.01" xlink:href="#hl"/>
<use x="478.73" y="68.01" xlink:href="#hl"/>
<use x="478.73" y="62.01" xlink:href="#hl"/>
<use x="478.73" y="62.01" xlink:href="#hd"/>
<path d="M475.23 62.01v42.00" stroke="currentColor" fill="none"/>
<path fill="currentColor"
	d="M475.23 104.01c0.6 -5.6 9.6 -9 5.6 -18.4
	c1.6 6 -1.3 11.6 -5.6 12.8
"/>
<use x="504.93" y="86.01" xlink:href="#hl"/>
<use x="504.93" y="80.01" xlink:href="#hl"/>
<use x="504.93" y="74.01" xlink:href="#hl"/>
<use x="504.93" y="68.01" xlink:href="#hl"/>
<use x="504.93" y="65.01" xlink:href="#Hd"/>
<defs>
<path id="unat" fill="currentColor" d="
	m96 -750
	h-32
	v716
	l32 -8
	l182 -54
	v282
	h32
	v-706
	l-34 10
	l-180 50
	v-290
	m0 592
	v-190
	l182 -52
	v188"/>
<use id="nt0" transform="translate(-3,5) scale(0.018)"
	xlink:href="#unat"/>
</defs>
<use x="494.93" y="65.01" xlink:href="#nt0"/>
<path d="M501.43 65.01v39.00" stroke="currentColor" fill="none"/>
<use x="557.03" y="86.01" xlink:href="#hl"/>
<use x="557.03" y="80.01" xlink:href="#hl"/>
<use x="557.03" y="74.01" xlink:href="#hl"/>
<use x="557.03" y="68.01" xlink:href="#hl"/>
<use x="557.03" y="68.01" xlink:href="#hd"/>
<path d="M553.53 68.01v36.00" stroke="currentColor" fill="none"/>
<use x="606.03" y="86.01" xlink:href="#hl"/>
<use x="606.03" y="80.01" xlink:href="#hl"/>
<use x="606.03" y="74.01" xlink:href="#hl"/>
<use x="606.03" y="68.01" xlink:href="#hl"/>
<use x="606.03" y="62.01" xlink:href="#hl"/>
<use x="606.03" y="59.01" xlink:href="#Hd"/>
<use x="596.03" y="59.01" xlink:href="#nt0"/>
<path d="M602.53 59.01v45.00" stroke="currentColor" fill="none"/>
<use x="658.23" y="86.01" xlink:href="#hl"/>
<use x="658.23" y="80.01" xlink:href="#hl"/>
<use x="658.23" y="74.01" xlink:href="#hl"/>
<use x="658.23" y="68.01" xlink:href="#hl"/>
<use x="658.23" y="62.01" xlink:href="#hl"/>
<use x="658.23" y="59.01" xlink:href="#hd"/>
<use x="649.23" y="59.01" xlink:href="#sh0"/>
<path d="M654.73 59.01v45.00" stroke="currentColor" fill="none"/>
</g>
</svg>
