<?xml version="1.0" standalone="no"?>
<!DOCTYPE svg PUBLIC "-//W3C//DTD SVG 1.1//EN"
	"http://www.w3.org/Graphics/SVG/1.1/DTD/svg11.dtd">
<svg xmlns="http://www.w3.org/2000/svg" version="1.1"
	xmlns:xlink="http://www.w3.org/1999/xlink"
	xml:space='preserve' color="black"
	width="7.38in" height="1.40in" viewBox="0 0 531 101">
<title>7872.abc (7872) tune 1</title>
<!-- Creator: abcm2ps-7.8.14 -->
<!-- CreationDate: Mar 13, 2016 18:54 -->
<!-- CommandLine: -qxg 7872.abc -O ../svgs/7872.svg -->
<g transform="scale(0.750)" stroke-width="0.70" font-family="Times" font-size="20.00">
<text x="354.13" y="21.67" text-anchor="middle">7872.  Die Meistersinger von Nurnberg, Overture, 5th. Theme</text>
</g>
<g transform="scale(0.750)" stroke-width="0.70" font-family="Times" font-size="14.00" font-style="italic">
<text x="694.93" y="45.34" text-anchor="end">Richard Wagner</text>
</g>
<g transform="scale(0.525)" stroke-width="0.70" font-family="Times" font-size="14.00" font-style="italic">
<defs>
<ellipse id="hd" rx="4.1" ry="2.9"
	transform="rotate(-20)" fill="currentColor"/>
</defs>
<use x="130.61" y="94.16" xlink:href="#hd"/>
<path d="M134.11 94.16v-20.00" stroke="currentColor" fill="none"/>
</g>
<g transform="scale(0.750)" stroke-width="0.70" font-family="Times" font-size="15.00" font-weight="bold">
<text x="99.13" y="68.01">= 120</text>
<path stroke="currentColor" fill="none"
	d="M266.63 111.01v-24.00"/>
<path stroke="currentColor" fill="none"
	d="M525.03 111.01v-24.00"/>
<path stroke="currentColor" fill="none"
	d="M13.33 111.01h681.60m-681.60 -6h681.60m-681.60 -6h681.60m-681.60 -6h681.60m-681.60 -6h681.60"/>
<defs>
<path id="utclef" fill="currentColor" d="m-50 -90
	c-72 -41 -72 -158 52 -188
	c150 -10 220 188 90 256
	c-114 52 -275 0 -293 -136
	c-15 -181 93 -229 220 -334
	c88 -87 79 -133 62 -210
	c-51 33 -94 105 -89 186
	c17 267 36 374 49 574
	c6 96 -19 134 -77 135
	c-80 1 -126 -93 -61 -133
	c85 -41 133 101 31 105
	c23 17 92 37 90 -92
	c-10 -223 -39 -342 -50 -617
	c0 -90 0 -162 96 -232
	c56 72 63 230 22 289
	c-74 106 -257 168 -255 316
	c9 153 148 185 252 133
	c86 -65 29 -192 -80 -176
	c-71 12 -105 67 -59 124"/>
<use id="tclef" transform="scale(0.045)"
	xlink:href="#utclef"/>
</defs>
<use x="25.33" y="111.01" xlink:href="#tclef"/>
<defs>
<path id="usharp" fill="currentColor" d="
	m136 -702
	v890
	h32
	v-890
	m128 840
	h32
	v-888
	h-32
	m-232 286
	v116
	l338 -96
	v-116
	m-338 442
	v116
	l338 -98
	v-114"/>
<use id="sh0" transform="translate(-4,5) scale(0.018)"
	xlink:href="#usharp"/>
</defs>
<use x="40.33" y="87.01" xlink:href="#sh0"/>
<use x="45.83" y="96.01" xlink:href="#sh0"/>
<use x="51.33" y="84.01" xlink:href="#sh0"/>
<use x="56.83" y="93.01" xlink:href="#sh0"/>
<g font-family="serif" font-size="16" font-weight="bold" font-style="normal"
	transform="translate(72.83,111.01) scale(1.2,1)">
	<text y="-1" text-anchor="middle">4</text>
	<text y="-13" text-anchor="middle">4</text>
</g>
<defs>
<path id="hl" stroke="currentColor" d="m-6 0h12"/>
</defs>
<use x="90.83" y="81.01" xlink:href="#hl"/>
<use x="90.83" y="78.01" xlink:href="#hd"/>
<path d="M87.33 78.01v21.00" stroke="currentColor" fill="none"/>
<use x="130.73" y="90.01" xlink:href="#hd"/>
<path d="M127.23 90.01v20.00" stroke="currentColor" fill="none"/>
<path fill="currentColor"
	d="M127.23 110.01c0.6 -5.6 9.6 -9 5.6 -18.4
	c1.6 6 -1.3 11.6 -5.6 12.8
"/>
<use x="159.03" y="84.01" xlink:href="#hd"/>
<path d="M155.53 84.01v20.00" stroke="currentColor" fill="none"/>
<path fill="currentColor"
	d="M155.53 104.01c0.6 -5.6 9.6 -9 5.6 -18.4
	c1.6 6 -1.3 11.6 -5.6 12.8
"/>
<use x="187.23" y="99.01" xlink:href="#hd"/>
<circle fill="currentColor" cx="195.23" cy="96.01" r="1.2"/>
<path d="M183.73 99.01v20.00" stroke="currentColor" fill="none"/>
<path fill="currentColor"
	d="M228.93 118.21l18.70 -2.30v-3.20l-18.70 2.30"/>
<path fill="currentColor"
	d="M229.23 113.21l18.00 -2.20v-3.20l-18.00 2.20"/>
<use x="232.73" y="96.01" xlink:href="#hd"/>
<path d="M229.23 96.01v21.20" stroke="currentColor" fill="none"/>
<use x="250.73" y="93.01" xlink:href="#hd"/>
<path d="M247.23 93.01v22.00" stroke="currentColor" fill="none"/>
<use x="280.83" y="90.01" xlink:href="#hd"/>
<path d="M277.33 90.01v20.00" stroke="currentColor" fill="none"/>
<path fill="currentColor"
	d="M277.33 110.01c0.6 -5.6 9.6 -9 5.6 -18.4
	c1.6 6 -1.3 11.6 -5.6 12.8
"/>
<use x="309.03" y="84.01" xlink:href="#hd"/>
<path d="M305.53 84.01v20.00" stroke="currentColor" fill="none"/>
<path fill="currentColor"
	d="M305.53 104.01c0.6 -5.6 9.6 -9 5.6 -18.4
	c1.6 6 -1.3 11.6 -5.6 12.8
"/>
<path fill="currentColor"
	d="M333.43 100.91l18.70 2.30v-3.20l-18.70 -2.30"/>
<path fill="currentColor"
	d="M333.83 96.01l18.00 2.20v-3.20l-18.00 -2.20"/>
<use x="337.33" y="81.01" xlink:href="#hl"/>
<use x="337.33" y="78.01" xlink:href="#hd"/>
<path d="M333.83 78.01v22.00" stroke="currentColor" fill="none"/>
<use x="355.33" y="81.01" xlink:href="#hl"/>
<use x="355.33" y="81.01" xlink:href="#hd"/>
<use x="346.33" y="81.01" xlink:href="#sh0"/>
<path d="M351.83 81.01v21.20" stroke="currentColor" fill="none"/>
<path fill="currentColor"
	d="M371.43 112.51l18.70 5.80v-3.20l-18.70 -5.80"/>
<path fill="currentColor"
	d="M371.83 107.61l18.00 5.60v-3.20l-18.00 -5.60"/>
<use x="375.33" y="81.01" xlink:href="#hl"/>
<use x="375.33" y="81.01" xlink:href="#hd"/>
<defs>
<path id="unat" fill="currentColor" d="
	m96 -750
	h-32
	v716
	l32 -8
	l182 -54
	v282
	h32
	v-706
	l-34 10
	l-180 50
	v-290
	m0 592
	v-190
	l182 -52
	v188"/>
<use id="nt0" transform="translate(-3,5) scale(0.018)"
	xlink:href="#unat"/>
</defs>
<use x="366.33" y="81.01" xlink:href="#nt0"/>
<path d="M371.83 81.01v30.60" stroke="currentColor" fill="none"/>
<use x="393.23" y="96.01" xlink:href="#hd"/>
<path d="M389.73 96.01v21.20" stroke="currentColor" fill="none"/>
<use x="413.23" y="90.01" xlink:href="#hd"/>
<path d="M409.73 90.01v20.00" stroke="currentColor" fill="none"/>
<path fill="currentColor"
	d="M449.33 115.21l18.70 -2.30v-3.20l-18.70 2.30"/>
<path fill="currentColor"
	d="M449.63 110.21l18.00 -2.20v-3.20l-18.00 2.20"/>
<use x="453.13" y="93.01" xlink:href="#hd"/>
<path d="M449.63 93.01v21.20" stroke="currentColor" fill="none"/>
<use x="471.13" y="90.01" xlink:href="#hd"/>
<path d="M467.63 90.01v22.00" stroke="currentColor" fill="none"/>
<path fill="currentColor"
	d="M487.23 109.21l18.70 -2.30v-3.20l-18.70 2.30"/>
<path fill="currentColor"
	d="M487.63 104.21l18.00 -2.20v-3.20l-18.00 2.20"/>
<use x="491.13" y="87.01" xlink:href="#hd"/>
<path d="M487.63 87.01v21.20" stroke="currentColor" fill="none"/>
<use x="509.03" y="84.01" xlink:href="#hd"/>
<path d="M505.53 84.01v22.00" stroke="currentColor" fill="none"/>
<use x="539.23" y="96.01" xlink:href="#hd"/>
<path d="M535.73 96.01v20.00" stroke="currentColor" fill="none"/>
<path fill="currentColor"
	d="M575.23 118.21l18.70 -2.30v-3.20l-18.70 2.30"/>
<path fill="currentColor"
	d="M575.63 113.21l18.00 -2.20v-3.20l-18.00 2.20"/>
<use x="579.13" y="96.01" xlink:href="#hd"/>
<path d="M575.63 96.01v21.20" stroke="currentColor" fill="none"/>
<use x="597.13" y="93.01" xlink:href="#hd"/>
<path d="M593.63 93.01v22.00" stroke="currentColor" fill="none"/>
<path fill="currentColor"
	d="M613.23 112.21l18.70 -2.30v-3.20l-18.70 2.30"/>
<path fill="currentColor"
	d="M613.53 107.21l18.00 -2.20v-3.20l-18.00 2.20"/>
<use x="617.03" y="90.01" xlink:href="#hd"/>
<path d="M613.53 90.01v21.20" stroke="currentColor" fill="none"/>
<use x="635.03" y="87.01" xlink:href="#hd"/>
<path d="M631.53 87.01v22.00" stroke="currentColor" fill="none"/>
<use x="655.03" y="99.01" xlink:href="#hd"/>
<path d="M651.53 99.01v20.00" stroke="currentColor" fill="none"/>
<path fill="currentColor"
	d="M542.73 94.01c5.19 -5.09 27.75 -5.09 32.94 -0.00
	l0.00 -0.23c-6.18 -6.86 -26.76 -6.86 -32.94 0.23"/>
</g>
</svg>
