<?xml version="1.0" standalone="no"?>
<!DOCTYPE svg PUBLIC "-//W3C//DTD SVG 1.1//EN"
	"http://www.w3.org/Graphics/SVG/1.1/DTD/svg11.dtd">
<svg xmlns="http://www.w3.org/2000/svg" version="1.1"
	xmlns:xlink="http://www.w3.org/1999/xlink"
	xml:space='preserve' color="black"
	width="7.38in" height="1.36in" viewBox="0 0 531 98">
<title>7878.abc (7878) tune 1</title>
<!-- Creator: abcm2ps-7.8.14 -->
<!-- CreationDate: Mar 13, 2016 18:54 -->
<!-- CommandLine: -qxg 7878.abc -O ../svgs/7878.svg -->
<g transform="scale(0.750)" stroke-width="0.70" font-family="Times" font-size="20.00">
<text x="354.13" y="21.67" text-anchor="middle">7878.  Parsifal, Prelude, 3rd. Theme</text>
</g>
<g transform="scale(0.750)" stroke-width="0.70" font-family="Times" font-size="14.00" font-style="italic">
<text x="694.93" y="45.34" text-anchor="end">Richard Wagner</text>
</g>
<g transform="scale(0.525)" stroke-width="0.70" font-family="Times" font-size="14.00" font-style="italic">
<defs>
<ellipse id="hd" rx="4.1" ry="2.9"
	transform="rotate(-20)" fill="currentColor"/>
</defs>
<use x="130.61" y="94.16" xlink:href="#hd"/>
<path d="M134.11 94.16v-20.00" stroke="currentColor" fill="none"/>
</g>
<g transform="scale(0.750)" stroke-width="0.70" font-family="Times" font-size="15.00" font-weight="bold">
<text x="99.13" y="68.01">= 120</text>
<path stroke="currentColor" fill="none"
	d="M213.23 108.01v-24.00"/>
<path stroke="currentColor" fill="none"
	d="M317.13 108.01v-24.00"/>
<path stroke="currentColor" fill="none"
	d="M401.33 108.01v-24.00"/>
<path stroke="currentColor" fill="none"
	d="M546.03 108.01v-24.00"/>
<path stroke="currentColor" fill="none"
	d="M649.93 108.01v-24.00"/>
<path stroke="currentColor" fill="none"
	d="M13.33 108.01h681.60m-681.60 -6h681.60m-681.60 -6h681.60m-681.60 -6h681.60m-681.60 -6h681.60"/>
<defs>
<path id="utclef" fill="currentColor" d="m-50 -90
	c-72 -41 -72 -158 52 -188
	c150 -10 220 188 90 256
	c-114 52 -275 0 -293 -136
	c-15 -181 93 -229 220 -334
	c88 -87 79 -133 62 -210
	c-51 33 -94 105 -89 186
	c17 267 36 374 49 574
	c6 96 -19 134 -77 135
	c-80 1 -126 -93 -61 -133
	c85 -41 133 101 31 105
	c23 17 92 37 90 -92
	c-10 -223 -39 -342 -50 -617
	c0 -90 0 -162 96 -232
	c56 72 63 230 22 289
	c-74 106 -257 168 -255 316
	c9 153 148 185 252 133
	c86 -65 29 -192 -80 -176
	c-71 12 -105 67 -59 124"/>
<use id="tclef" transform="scale(0.045)"
	xlink:href="#utclef"/>
</defs>
<use x="25.33" y="108.01" xlink:href="#tclef"/>
<defs>
<path id="uflat" fill="currentColor" d="
	m100 -746
	h32
	v734
	l-32 4
	m32 -332
	c46 -72 152 -90 208 -20
	c100 110 -120 326 -208 348
	m0 -28
	c54 0 200 -206 130 -290
	c-50 -60 -130 -4 -130 34"/>
<use id="ft0" transform="translate(-3.5,3.5) scale(0.018)"
	xlink:href="#uflat"/>
</defs>
<use x="40.33" y="96.01" xlink:href="#ft0"/>
<use x="45.83" y="87.01" xlink:href="#ft0"/>
<use x="51.33" y="99.01" xlink:href="#ft0"/>
<use x="56.83" y="90.01" xlink:href="#ft0"/>
<g font-family="serif" font-size="16" font-weight="bold" font-style="normal"
	transform="translate(72.83,108.01) scale(1.2,1)">
	<text y="-1" text-anchor="middle">4</text>
	<text y="-13" text-anchor="middle">6</text>
</g>
<use x="90.83" y="87.01" xlink:href="#hd"/>
<path d="M87.33 87.01v20.00" stroke="currentColor" fill="none"/>
<defs>
<path id="hl" stroke="currentColor" d="m-6 0h12"/>
</defs>
<use x="114.63" y="78.01" xlink:href="#hl"/>
<use x="114.63" y="78.01" xlink:href="#hd"/>
<path d="M111.13 78.01v20.00" stroke="currentColor" fill="none"/>
<use x="138.53" y="81.01" xlink:href="#hd"/>
<path d="M135.03 81.01v20.00" stroke="currentColor" fill="none"/>
<use x="162.33" y="84.01" xlink:href="#hd"/>
<path d="M158.83 84.01v20.00" stroke="currentColor" fill="none"/>
<defs>
<path id="Hd" fill="currentColor" d="m3 -1.6
	c-1 -1.8 -7 1.4 -6 3.2
	c1 1.8 7 -1.4 6 -3.2
	m0.5 -0.3
	c2 3.8 -5 7.6 -7 3.8
	c-2 -3.8 5 -7.6 7 -3.8"/>
</defs>
<use x="186.23" y="87.01" xlink:href="#Hd"/>
<path d="M182.73 87.01v20.00" stroke="currentColor" fill="none"/>
<use x="225.73" y="84.01" xlink:href="#hd"/>
<path d="M222.23 84.01v20.00" stroke="currentColor" fill="none"/>
<defs>
<path id="HD" fill="currentColor" d="m-2.7 -1.4
	c1.5 -2.8 6.9 0 5.3 2.7
	c-1.5 2.8 -6.9 0 -5.3 -2.7
	m8.3 1.4
	c0 -1.5 -2.2 -3 -5.6 -3
	c-3.4 0 -5.6 1.5 -5.6 3
	c0 1.5 2.2 3 5.6 3
	c3.4 0 5.6 -1.5 5.6 -3"/>
</defs>
<use x="250.73" y="81.01" xlink:href="#HD"/>
<use x="297.73" y="81.01" xlink:href="#hd"/>
<path d="M294.23 81.01v20.00" stroke="currentColor" fill="none"/>
<use x="330.13" y="81.01" xlink:href="#Hd"/>
<path d="M326.63 81.01v20.00" stroke="currentColor" fill="none"/>
<defs>
<rect id="r1" fill="currentColor"
	x="-3.5" y="-6" width="7" height="3"/>
</defs>
<use x="363.63" y="96.01" xlink:href="#r1"/>
<use x="419.83" y="81.01" xlink:href="#hd"/>
<use x="410.83" y="81.01" xlink:href="#ft0"/>
<path d="M416.33 81.01v20.00" stroke="currentColor" fill="none"/>
<use x="444.83" y="78.01" xlink:href="#hl"/>
<use x="444.83" y="75.01" xlink:href="#hd"/>
<defs>
<path id="unat" fill="currentColor" d="
	m96 -750
	h-32
	v716
	l32 -8
	l182 -54
	v282
	h32
	v-706
	l-34 10
	l-180 50
	v-290
	m0 592
	v-190
	l182 -52
	v188"/>
<use id="nt0" transform="translate(-3,5) scale(0.018)"
	xlink:href="#unat"/>
</defs>
<use x="435.83" y="75.01" xlink:href="#nt0"/>
<path d="M441.33 75.01v21.00" stroke="currentColor" fill="none"/>
<use x="469.83" y="78.01" xlink:href="#hl"/>
<use x="469.83" y="75.01" xlink:href="#hd"/>
<use x="460.83" y="75.01" xlink:href="#ft0"/>
<path d="M466.33 75.01v21.00" stroke="currentColor" fill="none"/>
<use x="493.93" y="78.01" xlink:href="#hl"/>
<use x="493.93" y="78.01" xlink:href="#hd"/>
<path d="M490.43 78.01v20.00" stroke="currentColor" fill="none"/>
<use x="519.03" y="81.01" xlink:href="#Hd"/>
<use x="509.03" y="81.01" xlink:href="#ft0"/>
<path d="M515.53 81.01v20.00" stroke="currentColor" fill="none"/>
<use x="558.53" y="78.01" xlink:href="#hl"/>
<use x="558.53" y="78.01" xlink:href="#hd"/>
<path d="M555.03 78.01v20.00" stroke="currentColor" fill="none"/>
<defs>
<path id="hl1" stroke="currentColor" d="m-7 0h14"/>
</defs>
<use x="583.53" y="78.01" xlink:href="#hl1"/>
<use x="583.53" y="75.01" xlink:href="#HD"/>
<use x="630.53" y="78.01" xlink:href="#hl"/>
<use x="630.53" y="75.01" xlink:href="#hd"/>
<path d="M627.03 75.01v21.00" stroke="currentColor" fill="none"/>
<use x="662.93" y="78.01" xlink:href="#hl"/>
<use x="662.93" y="75.01" xlink:href="#Hd"/>
<path d="M659.43 75.01v21.00" stroke="currentColor" fill="none"/>
<path fill="currentColor"
	d="M253.23 79.01c6.43 -5.24 34.51 -5.24 40.95 -0.00
	l0.00 -0.24c-7.66 -7.00 -33.29 -7.00 -40.95 0.24"/>
<path fill="currentColor"
	d="M301.23 79.01c4.00 -4.96 21.38 -4.96 25.38 -0.00
	l0.00 -0.23c-4.76 -6.73 -20.62 -6.73 -25.38 0.23"/>
<path fill="currentColor"
	d="M586.03 73.01c6.43 -5.24 34.51 -5.24 40.95 -0.00
	l0.00 -0.24c-7.66 -7.00 -33.29 -7.00 -40.95 0.24"/>
<path fill="currentColor"
	d="M634.03 73.01c4.00 -4.96 21.38 -4.96 25.38 -0.00
	l0.00 -0.23c-4.76 -6.73 -20.62 -6.73 -25.38 0.23"/>
</g>
</svg>
