<?xml version="1.0" standalone="no"?>
<!DOCTYPE svg PUBLIC "-//W3C//DTD SVG 1.1//EN"
	"http://www.w3.org/Graphics/SVG/1.1/DTD/svg11.dtd">
<svg xmlns="http://www.w3.org/2000/svg" version="1.1"
	xmlns:xlink="http://www.w3.org/1999/xlink"
	xml:space='preserve' color="black"
	width="7.38in" height="1.65in" viewBox="0 0 531 119">
<title>7887.abc (7887) tune 1</title>
<!-- Creator: abcm2ps-7.8.14 -->
<!-- CreationDate: Mar 13, 2016 18:54 -->
<!-- CommandLine: -qxg 7887.abc -O ../svgs/7887.svg -->
<g transform="scale(0.750)" stroke-width="0.70" font-family="Times" font-size="20.00">
<text x="354.13" y="21.67" text-anchor="middle">7887.  Die Walkure, Magic Fire Music, 2nd. Theme</text>
</g>
<g transform="scale(0.750)" stroke-width="0.70" font-family="Times" font-size="14.00" font-style="italic">
<text x="694.93" y="45.34" text-anchor="end">Richard Wagner</text>
</g>
<g transform="scale(0.525)" stroke-width="0.70" font-family="Times" font-size="14.00" font-style="italic">
<defs>
<ellipse id="hd" rx="4.1" ry="2.9"
	transform="rotate(-20)" fill="currentColor"/>
</defs>
<use x="130.61" y="94.16" xlink:href="#hd"/>
<path d="M134.11 94.16v-20.00" stroke="currentColor" fill="none"/>
</g>
<g transform="scale(0.750)" stroke-width="0.70" font-family="Times" font-size="15.00" font-weight="bold">
<text x="99.13" y="68.01">= 120</text>
<path stroke="currentColor" fill="none"
	d="M201.63 135.01v-24.00"/>
<path stroke="currentColor" fill="none"
	d="M324.93 135.01v-24.00"/>
<path stroke="currentColor" fill="none"
	d="M448.33 135.01v-24.00"/>
<path stroke="currentColor" fill="none"
	d="M571.63 135.01v-24.00"/>
<path stroke="currentColor" fill="none"
	d="M694.93 135.01v-24.00"/>
<path stroke="currentColor" fill="none"
	d="M13.33 135.01h681.60m-681.60 -6h681.60m-681.60 -6h681.60m-681.60 -6h681.60m-681.60 -6h681.60"/>
<defs>
<path id="utclef" fill="currentColor" d="m-50 -90
	c-72 -41 -72 -158 52 -188
	c150 -10 220 188 90 256
	c-114 52 -275 0 -293 -136
	c-15 -181 93 -229 220 -334
	c88 -87 79 -133 62 -210
	c-51 33 -94 105 -89 186
	c17 267 36 374 49 574
	c6 96 -19 134 -77 135
	c-80 1 -126 -93 -61 -133
	c85 -41 133 101 31 105
	c23 17 92 37 90 -92
	c-10 -223 -39 -342 -50 -617
	c0 -90 0 -162 96 -232
	c56 72 63 230 22 289
	c-74 106 -257 168 -255 316
	c9 153 148 185 252 133
	c86 -65 29 -192 -80 -176
	c-71 12 -105 67 -59 124"/>
<use id="tclef" transform="scale(0.045)"
	xlink:href="#utclef"/>
</defs>
<use x="25.33" y="135.01" xlink:href="#tclef"/>
<defs>
<path id="usharp" fill="currentColor" d="
	m136 -702
	v890
	h32
	v-890
	m128 840
	h32
	v-888
	h-32
	m-232 286
	v116
	l338 -96
	v-116
	m-338 442
	v116
	l338 -98
	v-114"/>
<use id="sh0" transform="translate(-4,5) scale(0.018)"
	xlink:href="#usharp"/>
</defs>
<use x="40.33" y="111.01" xlink:href="#sh0"/>
<use x="45.83" y="120.01" xlink:href="#sh0"/>
<use x="51.33" y="108.01" xlink:href="#sh0"/>
<use x="56.83" y="117.01" xlink:href="#sh0"/>
<g font-family="serif" font-size="16" font-weight="bold" font-style="normal"
	transform="translate(72.83,135.01) scale(1.2,1)">
	<text y="-1" text-anchor="middle">4</text>
	<text y="-13" text-anchor="middle">4</text>
</g>
<defs>
<path id="hl" stroke="currentColor" d="m-6 0h12"/>
</defs>
<use x="90.83" y="105.01" xlink:href="#hl"/>
<use x="90.83" y="99.01" xlink:href="#hl"/>
<use x="90.83" y="93.01" xlink:href="#hl"/>
<use x="90.83" y="93.01" xlink:href="#hd"/>
<path d="M87.33 93.01v30.00" stroke="currentColor" fill="none"/>
<use x="117.23" y="105.01" xlink:href="#hl"/>
<use x="117.23" y="99.01" xlink:href="#hl"/>
<use x="117.23" y="93.01" xlink:href="#hl"/>
<use x="117.23" y="87.01" xlink:href="#hl"/>
<use x="117.23" y="81.01" xlink:href="#hl"/>
<use x="117.23" y="78.01" xlink:href="#hd"/>
<path d="M113.73 78.01v45.00" stroke="currentColor" fill="none"/>
<use x="143.73" y="105.01" xlink:href="#hl"/>
<use x="143.73" y="99.01" xlink:href="#hl"/>
<use x="143.73" y="93.01" xlink:href="#hl"/>
<use x="143.73" y="87.01" xlink:href="#hl"/>
<use x="143.73" y="81.01" xlink:href="#hl"/>
<use x="143.73" y="81.01" xlink:href="#hd"/>
<path d="M140.23 81.01v42.00" stroke="currentColor" fill="none"/>
<path fill="currentColor"
	d="M166.33 123.21l21.00 0.00v-3.20l-21.00 -0.00"/>
<path fill="currentColor"
	d="M181.03 118.21l6.00 0.00v-3.20l-6.00 -0.00"/>
<use x="170.13" y="105.01" xlink:href="#hl"/>
<use x="170.13" y="99.01" xlink:href="#hl"/>
<use x="170.13" y="93.01" xlink:href="#hl"/>
<use x="170.13" y="87.01" xlink:href="#hl"/>
<use x="170.13" y="87.01" xlink:href="#hd"/>
<circle fill="currentColor" cx="178.13" cy="84.01" r="1.2"/>
<path d="M166.63 87.01v35.20" stroke="currentColor" fill="none"/>
<use x="190.53" y="105.01" xlink:href="#hl"/>
<use x="190.53" y="99.01" xlink:href="#hl"/>
<use x="190.53" y="93.01" xlink:href="#hl"/>
<use x="190.53" y="90.01" xlink:href="#hd"/>
<path d="M187.03 90.01v32.20" stroke="currentColor" fill="none"/>
<use x="214.13" y="105.01" xlink:href="#hl"/>
<use x="214.13" y="99.01" xlink:href="#hl"/>
<use x="214.13" y="93.01" xlink:href="#hl"/>
<use x="214.13" y="93.01" xlink:href="#hd"/>
<path d="M210.63 93.01v30.00" stroke="currentColor" fill="none"/>
<use x="240.63" y="105.01" xlink:href="#hl"/>
<use x="240.63" y="99.01" xlink:href="#hl"/>
<use x="240.63" y="93.01" xlink:href="#hl"/>
<use x="240.63" y="87.01" xlink:href="#hl"/>
<use x="240.63" y="81.01" xlink:href="#hl"/>
<use x="240.63" y="78.01" xlink:href="#hd"/>
<path d="M237.13 78.01v45.00" stroke="currentColor" fill="none"/>
<use x="267.03" y="105.01" xlink:href="#hl"/>
<use x="267.03" y="99.01" xlink:href="#hl"/>
<use x="267.03" y="93.01" xlink:href="#hl"/>
<use x="267.03" y="87.01" xlink:href="#hl"/>
<use x="267.03" y="81.01" xlink:href="#hl"/>
<use x="267.03" y="81.01" xlink:href="#hd"/>
<path d="M263.53 81.01v42.00" stroke="currentColor" fill="none"/>
<path fill="currentColor"
	d="M289.63 123.21l21.00 0.00v-3.20l-21.00 -0.00"/>
<path fill="currentColor"
	d="M304.33 118.21l6.00 0.00v-3.20l-6.00 -0.00"/>
<use x="293.53" y="105.01" xlink:href="#hl"/>
<use x="293.53" y="99.01" xlink:href="#hl"/>
<use x="293.53" y="93.01" xlink:href="#hl"/>
<use x="293.53" y="87.01" xlink:href="#hl"/>
<use x="293.53" y="87.01" xlink:href="#hd"/>
<circle fill="currentColor" cx="301.53" cy="84.01" r="1.2"/>
<path d="M290.03 87.01v35.20" stroke="currentColor" fill="none"/>
<use x="313.83" y="105.01" xlink:href="#hl"/>
<use x="313.83" y="99.01" xlink:href="#hl"/>
<use x="313.83" y="93.01" xlink:href="#hl"/>
<use x="313.83" y="90.01" xlink:href="#hd"/>
<path d="M310.33 90.01v32.20" stroke="currentColor" fill="none"/>
<use x="337.43" y="105.01" xlink:href="#hl"/>
<use x="337.43" y="99.01" xlink:href="#hl"/>
<use x="337.43" y="93.01" xlink:href="#hl"/>
<use x="337.43" y="93.01" xlink:href="#hd"/>
<path d="M333.93 93.01v30.00" stroke="currentColor" fill="none"/>
<use x="363.93" y="105.01" xlink:href="#hl"/>
<use x="363.93" y="99.01" xlink:href="#hl"/>
<use x="363.93" y="93.01" xlink:href="#hl"/>
<use x="363.93" y="87.01" xlink:href="#hl"/>
<use x="363.93" y="81.01" xlink:href="#hl"/>
<use x="363.93" y="78.01" xlink:href="#hd"/>
<path d="M360.43 78.01v45.00" stroke="currentColor" fill="none"/>
<use x="390.33" y="105.01" xlink:href="#hl"/>
<use x="390.33" y="99.01" xlink:href="#hl"/>
<use x="390.33" y="93.01" xlink:href="#hl"/>
<use x="390.33" y="87.01" xlink:href="#hl"/>
<use x="390.33" y="81.01" xlink:href="#hl"/>
<use x="390.33" y="81.01" xlink:href="#hd"/>
<path d="M386.83 81.01v42.00" stroke="currentColor" fill="none"/>
<path fill="currentColor"
	d="M412.93 123.21l21.00 0.00v-3.20l-21.00 -0.00"/>
<path fill="currentColor"
	d="M427.63 118.21l6.00 0.00v-3.20l-6.00 -0.00"/>
<use x="416.83" y="105.01" xlink:href="#hl"/>
<use x="416.83" y="99.01" xlink:href="#hl"/>
<use x="416.83" y="93.01" xlink:href="#hl"/>
<use x="416.83" y="87.01" xlink:href="#hl"/>
<use x="416.83" y="87.01" xlink:href="#hd"/>
<circle fill="currentColor" cx="424.83" cy="84.01" r="1.2"/>
<path d="M413.33 87.01v35.20" stroke="currentColor" fill="none"/>
<use x="437.13" y="105.01" xlink:href="#hl"/>
<use x="437.13" y="99.01" xlink:href="#hl"/>
<use x="437.13" y="93.01" xlink:href="#hl"/>
<use x="437.13" y="90.01" xlink:href="#hd"/>
<path d="M433.63 90.01v32.20" stroke="currentColor" fill="none"/>
<use x="460.83" y="105.01" xlink:href="#hl"/>
<use x="460.83" y="99.01" xlink:href="#hl"/>
<use x="460.83" y="93.01" xlink:href="#hl"/>
<use x="460.83" y="93.01" xlink:href="#hd"/>
<path d="M457.33 93.01v30.00" stroke="currentColor" fill="none"/>
<use x="487.23" y="105.01" xlink:href="#hl"/>
<use x="487.23" y="99.01" xlink:href="#hl"/>
<use x="487.23" y="93.01" xlink:href="#hl"/>
<use x="487.23" y="87.01" xlink:href="#hl"/>
<use x="487.23" y="81.01" xlink:href="#hl"/>
<use x="487.23" y="78.01" xlink:href="#hd"/>
<path d="M483.73 78.01v45.00" stroke="currentColor" fill="none"/>
<use x="513.73" y="105.01" xlink:href="#hl"/>
<use x="513.73" y="99.01" xlink:href="#hl"/>
<use x="513.73" y="93.01" xlink:href="#hl"/>
<use x="513.73" y="87.01" xlink:href="#hl"/>
<use x="513.73" y="81.01" xlink:href="#hl"/>
<use x="513.73" y="81.01" xlink:href="#hd"/>
<path d="M510.23 81.01v42.00" stroke="currentColor" fill="none"/>
<path fill="currentColor"
	d="M536.33 123.21l21.00 0.00v-3.20l-21.00 -0.00"/>
<path fill="currentColor"
	d="M550.93 118.21l6.00 0.00v-3.20l-6.00 -0.00"/>
<use x="540.13" y="105.01" xlink:href="#hl"/>
<use x="540.13" y="99.01" xlink:href="#hl"/>
<use x="540.13" y="93.01" xlink:href="#hl"/>
<use x="540.13" y="87.01" xlink:href="#hl"/>
<use x="540.13" y="84.01" xlink:href="#hd"/>
<circle fill="currentColor" cx="548.13" cy="84.01" r="1.2"/>
<path d="M536.63 84.01v38.20" stroke="currentColor" fill="none"/>
<use x="560.43" y="105.01" xlink:href="#hl"/>
<use x="560.43" y="99.01" xlink:href="#hl"/>
<use x="560.43" y="93.01" xlink:href="#hl"/>
<use x="560.43" y="87.01" xlink:href="#hl"/>
<use x="560.43" y="87.01" xlink:href="#hd"/>
<path d="M556.93 87.01v35.20" stroke="currentColor" fill="none"/>
<use x="584.13" y="105.01" xlink:href="#hl"/>
<use x="584.13" y="99.01" xlink:href="#hl"/>
<use x="584.13" y="93.01" xlink:href="#hl"/>
<use x="584.13" y="87.01" xlink:href="#hl"/>
<use x="584.13" y="84.01" xlink:href="#hd"/>
<path d="M580.63 84.01v39.00" stroke="currentColor" fill="none"/>
<use x="610.53" y="105.01" xlink:href="#hl"/>
<use x="610.53" y="99.01" xlink:href="#hl"/>
<use x="610.53" y="93.01" xlink:href="#hl"/>
<use x="610.53" y="87.01" xlink:href="#hl"/>
<use x="610.53" y="81.01" xlink:href="#hl"/>
<use x="610.53" y="75.01" xlink:href="#hl"/>
<use x="610.53" y="69.01" xlink:href="#hl"/>
<use x="610.53" y="69.01" xlink:href="#hd"/>
<path d="M607.03 69.01v54.00" stroke="currentColor" fill="none"/>
<use x="637.03" y="105.01" xlink:href="#hl"/>
<use x="637.03" y="99.01" xlink:href="#hl"/>
<use x="637.03" y="93.01" xlink:href="#hl"/>
<use x="637.03" y="87.01" xlink:href="#hl"/>
<use x="637.03" y="81.01" xlink:href="#hl"/>
<use x="637.03" y="75.01" xlink:href="#hl"/>
<use x="637.03" y="72.01" xlink:href="#hd"/>
<path d="M633.53 72.01v51.00" stroke="currentColor" fill="none"/>
<path fill="currentColor"
	d="M659.63 123.21l21.00 0.00v-3.20l-21.00 -0.00"/>
<path fill="currentColor"
	d="M674.23 118.21l6.00 0.00v-3.20l-6.00 -0.00"/>
<use x="663.43" y="105.01" xlink:href="#hl"/>
<use x="663.43" y="99.01" xlink:href="#hl"/>
<use x="663.43" y="93.01" xlink:href="#hl"/>
<use x="663.43" y="87.01" xlink:href="#hl"/>
<use x="663.43" y="81.01" xlink:href="#hl"/>
<use x="663.43" y="78.01" xlink:href="#hd"/>
<circle fill="currentColor" cx="671.43" cy="78.01" r="1.2"/>
<path d="M659.93 78.01v44.20" stroke="currentColor" fill="none"/>
<use x="683.73" y="105.01" xlink:href="#hl"/>
<use x="683.73" y="99.01" xlink:href="#hl"/>
<use x="683.73" y="93.01" xlink:href="#hl"/>
<use x="683.73" y="87.01" xlink:href="#hl"/>
<use x="683.73" y="81.01" xlink:href="#hl"/>
<use x="683.73" y="81.01" xlink:href="#hd"/>
<path d="M680.23 81.01v41.20" stroke="currentColor" fill="none"/>
</g>
</svg>
