<?xml version="1.0" standalone="no"?>
<!DOCTYPE svg PUBLIC "-//W3C//DTD SVG 1.1//EN"
	"http://www.w3.org/Graphics/SVG/1.1/DTD/svg11.dtd">
<svg xmlns="http://www.w3.org/2000/svg" version="1.1"
	xmlns:xlink="http://www.w3.org/1999/xlink"
	xml:space='preserve' color="black"
	width="7.38in" height="1.34in" viewBox="0 0 531 97">
<title>7890.abc (7890) tune 1</title>
<!-- Creator: abcm2ps-7.8.14 -->
<!-- CreationDate: Mar 13, 2016 18:54 -->
<!-- CommandLine: -qxg 7890.abc -O ../svgs/7890.svg -->
<g transform="scale(0.750)" stroke-width="0.70" font-family="Times" font-size="20.00">
<text x="354.13" y="21.67" text-anchor="middle">7890.  Siegfried, Waldweben, 3rd. Theme</text>
</g>
<g transform="scale(0.750)" stroke-width="0.70" font-family="Times" font-size="14.00" font-style="italic">
<text x="694.93" y="45.34" text-anchor="end">Richard Wagner</text>
</g>
<g transform="scale(0.525)" stroke-width="0.70" font-family="Times" font-size="14.00" font-style="italic">
<defs>
<ellipse id="hd" rx="4.1" ry="2.9"
	transform="rotate(-20)" fill="currentColor"/>
</defs>
<use x="107.76" y="94.16" xlink:href="#hd"/>
<path d="M111.26 94.16v-20.00" stroke="currentColor" fill="none"/>
</g>
<g transform="scale(0.750)" stroke-width="0.70" font-family="Times" font-size="15.00" font-weight="bold">
<text x="83.13" y="68.01">= 120</text>
<path stroke="currentColor" fill="none"
	d="M147.43 106.01v-24.00"/>
<path stroke="currentColor" fill="none"
	d="M231.43 106.01v-24.00"/>
<path stroke="currentColor" fill="none"
	d="M376.73 106.01v-24.00"/>
<path stroke="currentColor" fill="none"
	d="M468.43 106.01v-24.00"/>
<path stroke="currentColor" fill="none"
	d="M556.53 106.01v-24.00"/>
<path stroke="currentColor" fill="none"
	d="M610.93 106.01v-24.00"/>
<path stroke="currentColor" fill="none"
	d="M694.93 106.01v-24.00"/>
<path stroke="currentColor" fill="none"
	d="M13.33 106.01h681.60m-681.60 -6h681.60m-681.60 -6h681.60m-681.60 -6h681.60m-681.60 -6h681.60"/>
<path stroke="currentColor" fill="none"
	d="M239.93 77.01v-3l47.90 -0.00v3"/>
<rect x="256.83" y="68.01" width="14.00" height="12" fill="white"/>
<text font-family="serif" font-size="12" font-style="italic" font-weight="normal"
	x="263.83" y="78.01" text-anchor="middle">3</text>
<defs>
<path id="utclef" fill="currentColor" d="m-50 -90
	c-72 -41 -72 -158 52 -188
	c150 -10 220 188 90 256
	c-114 52 -275 0 -293 -136
	c-15 -181 93 -229 220 -334
	c88 -87 79 -133 62 -210
	c-51 33 -94 105 -89 186
	c17 267 36 374 49 574
	c6 96 -19 134 -77 135
	c-80 1 -126 -93 -61 -133
	c85 -41 133 101 31 105
	c23 17 92 37 90 -92
	c-10 -223 -39 -342 -50 -617
	c0 -90 0 -162 96 -232
	c56 72 63 230 22 289
	c-74 106 -257 168 -255 316
	c9 153 148 185 252 133
	c86 -65 29 -192 -80 -176
	c-71 12 -105 67 -59 124"/>
<use id="tclef" transform="scale(0.045)"
	xlink:href="#utclef"/>
</defs>
<use x="25.33" y="106.01" xlink:href="#tclef"/>
<defs>
<path id="usharp" fill="currentColor" d="
	m136 -702
	v890
	h32
	v-890
	m128 840
	h32
	v-888
	h-32
	m-232 286
	v116
	l338 -96
	v-116
	m-338 442
	v116
	l338 -98
	v-114"/>
<use id="sh0" transform="translate(-4,5) scale(0.018)"
	xlink:href="#usharp"/>
</defs>
<use x="40.33" y="82.01" xlink:href="#sh0"/>
<g font-family="serif" font-size="16" font-weight="bold" font-style="normal"
	transform="translate(56.33,106.01) scale(1.2,1)">
	<text y="-1" text-anchor="middle">8</text>
	<text y="-13" text-anchor="middle">6</text>
</g>
<defs>
<path id="Hd" fill="currentColor" d="m3 -1.6
	c-1 -1.8 -7 1.4 -6 3.2
	c1 1.8 7 -1.4 6 -3.2
	m0.5 -0.3
	c2 3.8 -5 7.6 -7 3.8
	c-2 -3.8 5 -7.6 7 -3.8"/>
</defs>
<use x="74.83" y="100.01" xlink:href="#Hd"/>
<path d="M78.33 100.01v-20.00" stroke="currentColor" fill="none"/>
<path fill="currentColor"
	d="M116.13 79.01l19.50 0.00v3.20l-19.50 -0.00"/>
<use x="113.03" y="100.01" xlink:href="#hd"/>
<path d="M116.53 100.01v-20.00" stroke="currentColor" fill="none"/>
<use x="131.83" y="100.01" xlink:href="#hd"/>
<use x="122.83" y="100.01" xlink:href="#sh0"/>
<path d="M135.33 100.01v-20.00" stroke="currentColor" fill="none"/>
<use x="160.43" y="97.01" xlink:href="#Hd"/>
<path d="M163.93 97.01v-20.00" stroke="currentColor" fill="none"/>
<path fill="currentColor"
	d="M201.73 76.71l17.90 -2.30v3.20l-17.90 2.30"/>
<use x="198.53" y="97.01" xlink:href="#hd"/>
<path d="M202.03 97.01v-19.40" stroke="currentColor" fill="none"/>
<use x="215.83" y="94.01" xlink:href="#hd"/>
<path d="M219.33 94.01v-18.60" stroke="currentColor" fill="none"/>
<use x="243.93" y="91.01" xlink:href="#hd"/>
<path d="M240.43 91.01v20.00" stroke="currentColor" fill="none"/>
<use x="266.33" y="91.01" xlink:href="#hd"/>
<path d="M262.83 91.01v22.00" stroke="currentColor" fill="none"/>
<path fill="currentColor"
	d="M262.83 113.01c0.9 -3.7 9.1 -6.4 6 -12.4
	c1 5.4 -4.2 8.4 -6 8.4
M262.83 107.61c0.9 -3.7 9.1 -6.4 6 -12.4
	c1 5.4 -4.2 8.4 -6 8.4
"/>
<use x="284.33" y="91.01" xlink:href="#hd"/>
<use x="275.33" y="91.01" xlink:href="#sh0"/>
<path d="M280.83 91.01v20.00" stroke="currentColor" fill="none"/>
<use x="306.73" y="91.01" xlink:href="#hd"/>
<use x="297.73" y="91.01" xlink:href="#sh0"/>
<path d="M303.23 91.01v22.00" stroke="currentColor" fill="none"/>
<path fill="currentColor"
	d="M303.23 113.01c0.9 -3.7 9.1 -6.4 6 -12.4
	c1 5.4 -4.2 8.4 -6 8.4
M303.23 107.61c0.9 -3.7 9.1 -6.4 6 -12.4
	c1 5.4 -4.2 8.4 -6 8.4
"/>
<use x="320.63" y="85.01" xlink:href="#hd"/>
<path d="M317.13 85.01v20.00" stroke="currentColor" fill="none"/>
<path fill="currentColor"
	d="M344.63 107.41l13.30 2.10v-3.20l-13.30 -2.10"/>
<path fill="currentColor"
	d="M350.93 103.41l-6.00 -1.00v-3.20l6.00 1.00"/>
<use x="348.43" y="85.01" xlink:href="#hd"/>
<path d="M344.93 85.01v21.50" stroke="currentColor" fill="none"/>
<use x="361.13" y="88.01" xlink:href="#hd"/>
<path d="M357.63 88.01v20.50" stroke="currentColor" fill="none"/>
<use x="395.23" y="91.01" xlink:href="#hd"/>
<circle fill="currentColor" cx="403.23" cy="91.01" r="1.2"/>
<defs>
<path id="unat" fill="currentColor" d="
	m96 -750
	h-32
	v716
	l32 -8
	l182 -54
	v282
	h32
	v-706
	l-34 10
	l-180 50
	v-290
	m0 592
	v-190
	l182 -52
	v188"/>
<use id="nt0" transform="translate(-3,5) scale(0.018)"
	xlink:href="#unat"/>
</defs>
<use x="386.23" y="91.01" xlink:href="#nt0"/>
<path d="M391.73 91.01v20.00" stroke="currentColor" fill="none"/>
<use x="426.13" y="94.01" xlink:href="#hd"/>
<path d="M422.63 94.01v20.00" stroke="currentColor" fill="none"/>
<use x="451.43" y="103.01" xlink:href="#hd"/>
<use x="442.43" y="103.01" xlink:href="#nt0"/>
<path d="M454.93 103.01v-20.00" stroke="currentColor" fill="none"/>
<path fill="currentColor"
	d="	M454.93 83.01c0.6 5.6 9.6 9 5.6 18.4
	c1.6 -6 -1.3 -11.6 -5.6 -12.8
"/>
<use x="480.93" y="97.01" xlink:href="#hd"/>
<circle fill="currentColor" cx="488.93" cy="97.01" r="1.2"/>
<path d="M484.43 97.01v-20.00" stroke="currentColor" fill="none"/>
<use x="513.33" y="100.01" xlink:href="#hd"/>
<use x="504.33" y="100.01" xlink:href="#nt0"/>
<path d="M516.83 100.01v-20.00" stroke="currentColor" fill="none"/>
<defs>
<path id="hl" stroke="currentColor" d="m-6 0h12"/>
</defs>
<use x="539.53" y="112.01" xlink:href="#hl"/>
<use x="539.53" y="112.01" xlink:href="#hd"/>
<path d="M543.03 112.01v-20.00" stroke="currentColor" fill="none"/>
<path fill="currentColor"
	d="	M543.03 92.01c0.6 5.6 9.6 9 5.6 18.4
	c1.6 -6 -1.3 -11.6 -5.6 -12.8
"/>
<use x="576.03" y="103.01" xlink:href="#Hd"/>
<circle fill="currentColor" cx="585.03" cy="103.01" r="1.2"/>
<use x="566.03" y="103.01" xlink:href="#nt0"/>
<path d="M579.53 103.01v-20.00" stroke="currentColor" fill="none"/>
<use x="623.93" y="97.01" xlink:href="#Hd"/>
<path d="M627.43 97.01v-20.00" stroke="currentColor" fill="none"/>
<path fill="currentColor"
	d="M665.23 77.31l17.90 2.30v3.20l-17.90 -2.30"/>
<use x="662.13" y="97.01" xlink:href="#hd"/>
<path d="M665.63 97.01v-18.60" stroke="currentColor" fill="none"/>
<use x="679.33" y="100.01" xlink:href="#hd"/>
<path d="M682.83 100.01v-19.40" stroke="currentColor" fill="none"/>
<path fill="currentColor"
	d="M78.33 100.01c4.91 5.06 26.25 5.06 31.16 -0.00
	l0.00 0.23c-5.84 6.83 -25.32 6.83 -31.16 -0.23"/>
<path fill="currentColor"
	d="M163.93 99.01c4.91 5.06 26.25 5.06 31.16 -0.00
	l0.00 0.23c-5.84 6.83 -25.32 6.83 -31.16 -0.23"/>
<path fill="currentColor"
	d="M247.43 89.01c2.43 -4.78 13.00 -4.78 15.43 -0.00
	l0.00 -0.22c-2.89 -6.56 -12.54 -6.56 -15.43 0.22"/>
<path fill="currentColor"
	d="M287.83 89.01c2.43 -4.78 13.00 -4.78 15.43 -0.00
	l0.00 -0.22c-2.89 -6.56 -12.54 -6.56 -15.43 0.22"/>
<path fill="currentColor"
	d="M324.13 83.01c3.28 -4.88 17.56 -4.88 20.84 -0.00
	l0.00 -0.22c-3.91 -6.65 -16.93 -6.65 -20.84 0.22"/>
<path fill="currentColor"
	d="M627.43 99.01c4.91 5.06 26.25 5.06 31.16 -0.00
	l0.00 0.23c-5.84 6.83 -25.32 6.83 -31.16 -0.23"/>
</g>
</svg>
