<?xml version="1.0" standalone="no"?>
<!DOCTYPE svg PUBLIC "-//W3C//DTD SVG 1.1//EN"
	"http://www.w3.org/Graphics/SVG/1.1/DTD/svg11.dtd">
<svg xmlns="http://www.w3.org/2000/svg" version="1.1"
	xmlns:xlink="http://www.w3.org/1999/xlink"
	xml:space='preserve' color="black"
	width="7.38in" height="1.34in" viewBox="0 0 531 97">
<title>7902.abc (7902) tune 1</title>
<!-- Creator: abcm2ps-7.8.14 -->
<!-- CreationDate: Mar 13, 2016 18:54 -->
<!-- CommandLine: -qxg 7902.abc -O ../svgs/7902.svg -->
<g transform="scale(0.750)" stroke-width="0.70" font-family="Times" font-size="20.00">
<text x="354.13" y="21.67" text-anchor="middle">7902.  Gotterdammerung, Siegfried&apos;s Funeral Music, 1st. Theme</text>
</g>
<g transform="scale(0.750)" stroke-width="0.70" font-family="Times" font-size="14.00" font-style="italic">
<text x="694.93" y="45.34" text-anchor="end">Richard Wagner</text>
</g>
<g transform="scale(0.525)" stroke-width="0.70" font-family="Times" font-size="14.00" font-style="italic">
<defs>
<ellipse id="hd" rx="4.1" ry="2.9"
	transform="rotate(-20)" fill="currentColor"/>
</defs>
<use x="122.76" y="94.16" xlink:href="#hd"/>
<path d="M126.26 94.16v-20.00" stroke="currentColor" fill="none"/>
</g>
<g transform="scale(0.750)" stroke-width="0.70" font-family="Times" font-size="15.00" font-weight="bold">
<text x="93.63" y="68.01">= 120</text>
<path stroke="currentColor" fill="none"
	d="M324.23 106.01v-24.00"/>
<path stroke="currentColor" fill="none"
	d="M565.03 106.01v-24.00"/>
<path stroke="currentColor" fill="none"
	d="M13.33 106.01h681.60m-681.60 -6h681.60m-681.60 -6h681.60m-681.60 -6h681.60m-681.60 -6h681.60"/>
<text font-family="serif" font-size="12" font-style="italic" font-weight="normal"
	x="250.83" y="77.71" text-anchor="middle">3</text>
<text font-family="serif" font-size="12" font-style="italic" font-weight="normal"
	x="296.13" y="68.01" text-anchor="middle">3</text>
<text font-family="serif" font-size="12" font-style="italic" font-weight="normal"
	x="352.03" y="66.31" text-anchor="middle">3</text>
<text font-family="serif" font-size="12" font-style="italic" font-weight="normal"
	x="542.03" y="77.71" text-anchor="middle">3</text>
<text font-family="serif" font-size="12" font-style="italic" font-weight="normal"
	x="597.83" y="68.01" text-anchor="middle">3</text>
<text font-family="serif" font-size="12" font-style="italic" font-weight="normal"
	x="643.23" y="66.31" text-anchor="middle">3</text>
<defs>
<path id="utclef" fill="currentColor" d="m-50 -90
	c-72 -41 -72 -158 52 -188
	c150 -10 220 188 90 256
	c-114 52 -275 0 -293 -136
	c-15 -181 93 -229 220 -334
	c88 -87 79 -133 62 -210
	c-51 33 -94 105 -89 186
	c17 267 36 374 49 574
	c6 96 -19 134 -77 135
	c-80 1 -126 -93 -61 -133
	c85 -41 133 101 31 105
	c23 17 92 37 90 -92
	c-10 -223 -39 -342 -50 -617
	c0 -90 0 -162 96 -232
	c56 72 63 230 22 289
	c-74 106 -257 168 -255 316
	c9 153 148 185 252 133
	c86 -65 29 -192 -80 -176
	c-71 12 -105 67 -59 124"/>
<use id="tclef" transform="scale(0.045)"
	xlink:href="#utclef"/>
</defs>
<use x="25.33" y="106.01" xlink:href="#tclef"/>
<defs>
<path id="uflat" fill="currentColor" d="
	m100 -746
	h32
	v734
	l-32 4
	m32 -332
	c46 -72 152 -90 208 -20
	c100 110 -120 326 -208 348
	m0 -28
	c54 0 200 -206 130 -290
	c-50 -60 -130 -4 -130 34"/>
<use id="ft0" transform="translate(-3.5,3.5) scale(0.018)"
	xlink:href="#uflat"/>
</defs>
<use x="40.33" y="94.01" xlink:href="#ft0"/>
<use x="45.83" y="85.01" xlink:href="#ft0"/>
<use x="51.33" y="97.01" xlink:href="#ft0"/>
<g font-family="serif" font-size="16" font-weight="bold" font-style="normal"
	transform="translate(67.33,106.01) scale(1.2,1)">
	<text y="-1" text-anchor="middle">4</text>
	<text y="-13" text-anchor="middle">4</text>
</g>
<path fill="currentColor"
	d="M81.53 114.01l17.20 0.00v-3.20l-17.20 -0.00"/>
<path fill="currentColor"
	d="M81.83 109.01l16.50 0.00v-3.20l-16.50 -0.00"/>
<use x="85.33" y="91.01" xlink:href="#hd"/>
<path d="M81.83 91.01v22.00" stroke="currentColor" fill="none"/>
<use x="101.83" y="91.01" xlink:href="#hd"/>
<path d="M98.33 91.01v22.00" stroke="currentColor" fill="none"/>
<defs>
<path id="r4" fill="currentColor" d="m-1 -8.5
	l3.6 5.1 -2.1 5.2 2.2 4.3
	c-2.6 -2.3 -5.1 0 -2.4 2.6
	c-4.8 -3 -1.5 -6.9 1.4 -4.1
	l-3.1 -4.5 1.9 -5.1 -1.5 -3.5"/>
</defs>
<use x="120.23" y="94.01" xlink:href="#r4"/>
<defs>
<path id="r8e" fill="currentColor" d="m 0 0
	c-1.5 1.5 -2.4 2 -3.6 2
	c2.4 -2.8 -2.8 -4 -2.8 -1.2
	c0 2.7 4.3 2.4 5.9 0.6"/>
<g id="r16">
	<path d="m3.3 -4l-4 15.6" stroke="currentColor" fill="none"/>
	<use x="3.4" y="-4" xlink:href="#r8e"/>
	<use x="1.9" y="2" xlink:href="#r8e"/>
</g>
</defs>
<use x="152.93" y="94.01" xlink:href="#r16"/>
<use x="171.33" y="91.01" xlink:href="#hd"/>
<path d="M167.83 91.01v22.00" stroke="currentColor" fill="none"/>
<path fill="currentColor"
	d="M167.83 113.01c0.9 -3.7 9.1 -6.4 6 -12.4
	c1 5.4 -4.2 8.4 -6 8.4
M167.83 107.61c0.9 -3.7 9.1 -6.4 6 -12.4
	c1 5.4 -4.2 8.4 -6 8.4
"/>
<use x="189.63" y="91.01" xlink:href="#hd"/>
<path d="M186.13 91.01v20.00" stroke="currentColor" fill="none"/>
<path fill="currentColor"
	d="M186.13 111.01c0.6 -5.6 9.6 -9 5.6 -18.4
	c1.6 6 -1.3 11.6 -5.6 12.8
"/>
<defs>
<g id="r8">
	<path d="m3.3 -4l-3.4 9.6" stroke="currentColor" fill="none"/>
	<use x="3.4" y="-4" xlink:href="#r8e"/>
</g>
</defs>
<use x="212.93" y="94.01" xlink:href="#r8"/>
<path fill="currentColor"
	d="M239.33 88.01l26.70 -4.20v3.20l-26.70 4.20"/>
<path fill="currentColor"
	d="M239.73 92.91l26.00 -4.10v3.20l-26.00 4.10"/>
<defs>
<path id="hl" stroke="currentColor" d="m-6 0h12"/>
</defs>
<use x="236.23" y="112.01" xlink:href="#hl"/>
<use x="236.23" y="112.01" xlink:href="#hd"/>
<path d="M239.73 112.01v-23.10" stroke="currentColor" fill="none"/>
<use x="249.23" y="109.01" xlink:href="#hd"/>
<path d="M252.73 109.01v-22.10" stroke="currentColor" fill="none"/>
<use x="262.23" y="106.01" xlink:href="#hd"/>
<path d="M265.73 106.01v-21.20" stroke="currentColor" fill="none"/>
<path fill="currentColor"
	d="M279.73 75.81l36.70 0.00v3.20l-36.70 -0.00"/>
<path fill="currentColor"
	d="M280.03 80.81l36.00 0.00v3.20l-36.00 -0.00"/>
<use x="276.53" y="103.01" xlink:href="#hd"/>
<path d="M280.03 103.01v-26.20" stroke="currentColor" fill="none"/>
<use x="294.53" y="100.01" xlink:href="#hd"/>
<use x="285.53" y="100.01" xlink:href="#ft0"/>
<path d="M298.03 100.01v-23.20" stroke="currentColor" fill="none"/>
<use x="312.53" y="100.01" xlink:href="#hd"/>
<defs>
<path id="unat" fill="currentColor" d="
	m96 -750
	h-32
	v716
	l32 -8
	l182 -54
	v282
	h32
	v-706
	l-34 10
	l-180 50
	v-290
	m0 592
	v-190
	l182 -52
	v188"/>
<use id="nt0" transform="translate(-3,5) scale(0.018)"
	xlink:href="#unat"/>
</defs>
<use x="303.53" y="100.01" xlink:href="#nt0"/>
<path d="M316.03 100.01v-23.20" stroke="currentColor" fill="none"/>
<path fill="currentColor"
	d="M340.53 71.71l26.70 4.20v3.20l-26.70 -4.20"/>
<path fill="currentColor"
	d="M340.93 76.81l26.00 4.10v3.20l-26.00 -4.10"/>
<use x="337.43" y="94.01" xlink:href="#hd"/>
<path d="M340.93 94.01v-21.20" stroke="currentColor" fill="none"/>
<use x="350.43" y="97.01" xlink:href="#hd"/>
<path d="M353.93 97.01v-22.10" stroke="currentColor" fill="none"/>
<use x="363.43" y="100.01" xlink:href="#hd"/>
<path d="M366.93 100.01v-23.10" stroke="currentColor" fill="none"/>
<path fill="currentColor"
	d="M380.93 75.81l17.20 0.00v3.20l-17.20 -0.00"/>
<path fill="currentColor"
	d="M381.23 80.81l16.50 0.00v3.20l-16.50 -0.00"/>
<use x="377.73" y="100.01" xlink:href="#hd"/>
<path d="M381.23 100.01v-23.20" stroke="currentColor" fill="none"/>
<use x="394.33" y="100.01" xlink:href="#hd"/>
<path d="M397.83 100.01v-23.20" stroke="currentColor" fill="none"/>
<use x="412.63" y="94.01" xlink:href="#r4"/>
<use x="445.43" y="94.01" xlink:href="#r16"/>
<use x="461.93" y="100.01" xlink:href="#hd"/>
<path d="M465.43 100.01v-21.00" stroke="currentColor" fill="none"/>
<path fill="currentColor"
	d="M465.43 79.01c0.9 3.7 9.1 6.4 6 12.4
	c1 -5.4 -4.2 -8.4 -6 -8.4
M465.43 84.41c0.9 3.7 9.1 6.4 6 12.4
	c1 -5.4 -4.2 -8.4 -6 -8.4
"/>
<use x="480.63" y="100.01" xlink:href="#hd"/>
<path d="M484.13 100.01v-20.00" stroke="currentColor" fill="none"/>
<path fill="currentColor"
	d="	M484.13 80.01c0.6 5.6 9.6 9 5.6 18.4
	c1.6 -6 -1.3 -11.6 -5.6 -12.8
"/>
<use x="504.13" y="94.01" xlink:href="#r8"/>
<path fill="currentColor"
	d="M530.63 88.01l26.70 -4.20v3.20l-26.70 4.20"/>
<path fill="currentColor"
	d="M530.93 92.91l26.00 -4.10v3.20l-26.00 4.10"/>
<use x="527.43" y="112.01" xlink:href="#hl"/>
<use x="527.43" y="112.01" xlink:href="#hd"/>
<path d="M530.93 112.01v-23.10" stroke="currentColor" fill="none"/>
<use x="540.43" y="109.01" xlink:href="#hd"/>
<path d="M543.93 109.01v-22.10" stroke="currentColor" fill="none"/>
<use x="553.43" y="106.01" xlink:href="#hd"/>
<path d="M556.93 106.01v-21.20" stroke="currentColor" fill="none"/>
<path fill="currentColor"
	d="M581.43 75.81l36.70 0.00v3.20l-36.70 -0.00"/>
<path fill="currentColor"
	d="M581.73 80.81l36.00 0.00v3.20l-36.00 -0.00"/>
<use x="578.23" y="103.01" xlink:href="#hd"/>
<path d="M581.73 103.01v-26.20" stroke="currentColor" fill="none"/>
<use x="596.23" y="100.01" xlink:href="#hd"/>
<use x="587.23" y="100.01" xlink:href="#ft0"/>
<path d="M599.73 100.01v-23.20" stroke="currentColor" fill="none"/>
<use x="614.23" y="100.01" xlink:href="#hd"/>
<use x="605.23" y="100.01" xlink:href="#nt0"/>
<path d="M617.73 100.01v-23.20" stroke="currentColor" fill="none"/>
<path fill="currentColor"
	d="M631.73 71.71l26.70 4.20v3.20l-26.70 -4.20"/>
<path fill="currentColor"
	d="M632.13 76.81l26.00 4.10v3.20l-26.00 -4.10"/>
<use x="628.63" y="94.01" xlink:href="#hd"/>
<path d="M632.13 94.01v-21.20" stroke="currentColor" fill="none"/>
<use x="641.63" y="97.01" xlink:href="#hd"/>
<path d="M645.13 97.01v-22.10" stroke="currentColor" fill="none"/>
<use x="654.63" y="100.01" xlink:href="#hd"/>
<path d="M658.13 100.01v-23.10" stroke="currentColor" fill="none"/>
<use x="669.03" y="100.01" xlink:href="#hd"/>
<path d="M672.53 100.01v-20.00" stroke="currentColor" fill="none"/>
<path fill="currentColor"
	d="	M672.53 80.01c0.6 5.6 9.6 9 5.6 18.4
	c1.6 -6 -1.3 -11.6 -5.6 -12.8
"/>
</g>
</svg>
