<?xml version="1.0" standalone="no"?>
<!DOCTYPE svg PUBLIC "-//W3C//DTD SVG 1.1//EN"
	"http://www.w3.org/Graphics/SVG/1.1/DTD/svg11.dtd">
<svg xmlns="http://www.w3.org/2000/svg" version="1.1"
	xmlns:xlink="http://www.w3.org/1999/xlink"
	xml:space='preserve' color="black"
	width="7.38in" height="1.34in" viewBox="0 0 531 97">
<title>7925.abc (7925) tune 1</title>
<!-- Creator: abcm2ps-7.8.14 -->
<!-- CreationDate: Mar 13, 2016 18:54 -->
<!-- CommandLine: -qxg 7925.abc -O ../svgs/7925.svg -->
<g transform="scale(0.750)" stroke-width="0.70" font-family="Times" font-size="20.00">
<text x="354.13" y="21.67" text-anchor="middle">7925.  Tannhauser, Act II, March, 2nd. Theme</text>
</g>
<g transform="scale(0.750)" stroke-width="0.70" font-family="Times" font-size="14.00" font-style="italic">
<text x="694.93" y="45.34" text-anchor="end">Richard Wagner</text>
</g>
<g transform="scale(0.525)" stroke-width="0.70" font-family="Times" font-size="14.00" font-style="italic">
<defs>
<ellipse id="hd" rx="4.1" ry="2.9"
	transform="rotate(-20)" fill="currentColor"/>
</defs>
<use x="139.19" y="94.16" xlink:href="#hd"/>
<path d="M142.69 94.16v-20.00" stroke="currentColor" fill="none"/>
</g>
<g transform="scale(0.750)" stroke-width="0.70" font-family="Times" font-size="15.00" font-weight="bold">
<text x="105.13" y="68.01">= 120</text>
<path stroke="currentColor" fill="none"
	d="M213.93 106.01v-24.00"/>
<path stroke="currentColor" fill="none"
	d="M355.63 106.01v-24.00"/>
<path stroke="currentColor" fill="none"
	d="M503.13 106.01v-24.00"/>
<path stroke="currentColor" fill="none"
	d="M641.03 106.01v-24.00"/>
<path stroke="currentColor" fill="none"
	d="M13.33 106.01h681.60m-681.60 -6h681.60m-681.60 -6h681.60m-681.60 -6h681.60m-681.60 -6h681.60"/>
<defs>
<path id="utclef" fill="currentColor" d="m-50 -90
	c-72 -41 -72 -158 52 -188
	c150 -10 220 188 90 256
	c-114 52 -275 0 -293 -136
	c-15 -181 93 -229 220 -334
	c88 -87 79 -133 62 -210
	c-51 33 -94 105 -89 186
	c17 267 36 374 49 574
	c6 96 -19 134 -77 135
	c-80 1 -126 -93 -61 -133
	c85 -41 133 101 31 105
	c23 17 92 37 90 -92
	c-10 -223 -39 -342 -50 -617
	c0 -90 0 -162 96 -232
	c56 72 63 230 22 289
	c-74 106 -257 168 -255 316
	c9 153 148 185 252 133
	c86 -65 29 -192 -80 -176
	c-71 12 -105 67 -59 124"/>
<use id="tclef" transform="scale(0.045)"
	xlink:href="#utclef"/>
</defs>
<use x="25.33" y="106.01" xlink:href="#tclef"/>
<defs>
<path id="usharp" fill="currentColor" d="
	m136 -702
	v890
	h32
	v-890
	m128 840
	h32
	v-888
	h-32
	m-232 286
	v116
	l338 -96
	v-116
	m-338 442
	v116
	l338 -98
	v-114"/>
<use id="sh0" transform="translate(-4,5) scale(0.018)"
	xlink:href="#usharp"/>
</defs>
<use x="40.33" y="82.01" xlink:href="#sh0"/>
<use x="45.83" y="91.01" xlink:href="#sh0"/>
<use x="51.33" y="79.01" xlink:href="#sh0"/>
<use x="56.83" y="88.01" xlink:href="#sh0"/>
<use x="62.33" y="97.01" xlink:href="#sh0"/>
<g font-family="serif" font-size="16" font-weight="bold" font-style="normal"
	transform="translate(78.33,106.01) scale(1.2,1)">
	<text y="-1" text-anchor="middle">4</text>
	<text y="-13" text-anchor="middle">4</text>
</g>
<defs>
<path id="Hd" fill="currentColor" d="m3 -1.6
	c-1 -1.8 -7 1.4 -6 3.2
	c1 1.8 7 -1.4 6 -3.2
	m0.5 -0.3
	c2 3.8 -5 7.6 -7 3.8
	c-2 -3.8 5 -7.6 7 -3.8"/>
</defs>
<use x="96.83" y="82.01" xlink:href="#Hd"/>
<path d="M93.33 82.01v20.00" stroke="currentColor" fill="none"/>
<path fill="currentColor"
	d="M135.63 106.21l62.60 0.00v-3.20l-62.60 -0.00"/>
<path fill="currentColor"
	d="M155.53 101.21l6.00 0.00v-3.20l-6.00 -0.00"/>
<path fill="currentColor"
	d="M191.93 101.21l6.00 0.00v-3.20l-6.00 -0.00"/>
<use x="139.53" y="82.01" xlink:href="#hd"/>
<circle fill="currentColor" cx="147.53" cy="79.01" r="1.2"/>
<defs>
<path id="unat" fill="currentColor" d="
	m96 -750
	h-32
	v716
	l32 -8
	l182 -54
	v282
	h32
	v-706
	l-34 10
	l-180 50
	v-290
	m0 592
	v-190
	l182 -52
	v188"/>
<use id="nt0" transform="translate(-3,5) scale(0.018)"
	xlink:href="#unat"/>
</defs>
<use x="130.53" y="82.01" xlink:href="#nt0"/>
<path d="M136.03 82.01v23.20" stroke="currentColor" fill="none"/>
<use x="165.03" y="82.01" xlink:href="#hd"/>
<use x="156.03" y="82.01" xlink:href="#sh0"/>
<path d="M161.53 82.01v23.20" stroke="currentColor" fill="none"/>
<use x="178.93" y="79.01" xlink:href="#hd"/>
<circle fill="currentColor" cx="186.93" cy="79.01" r="1.2"/>
<path d="M175.43 79.01v26.20" stroke="currentColor" fill="none"/>
<defs>
<path id="hl" stroke="currentColor" d="m-6 0h12"/>
</defs>
<use x="201.43" y="76.01" xlink:href="#hl"/>
<use x="201.43" y="76.01" xlink:href="#hd"/>
<path d="M197.93 76.01v29.20" stroke="currentColor" fill="none"/>
<use x="226.93" y="76.01" xlink:href="#hl"/>
<use x="226.93" y="73.01" xlink:href="#Hd"/>
<path d="M223.43 73.01v21.00" stroke="currentColor" fill="none"/>
<defs>
<path id="r8e" fill="currentColor" d="m 0 0
	c-1.5 1.5 -2.4 2 -3.6 2
	c2.4 -2.8 -2.8 -4 -2.8 -1.2
	c0 2.7 4.3 2.4 5.9 0.6"/>
<g id="r32">
	<path d="m4.8 -10l-5.5 21.6" stroke="currentColor" fill="none"/>
	<use x="4.9" y="-10" xlink:href="#r8e"/>
	<use x="3.4" y="-4" xlink:href="#r8e"/>
	<use x="1.9" y="2" xlink:href="#r8e"/>
</g>
</defs>
<use x="264.63" y="94.01" xlink:href="#r32"/>
<path fill="currentColor"
	d="M271.93 100.21l68.10 0.00v-3.20l-68.10 -0.00"/>
<path fill="currentColor"
	d="M292.43 95.21l10.50 0.00v-3.20l-10.50 -0.00"/>
<path fill="currentColor"
	d="M333.63 95.21l6.00 0.00v-3.20l-6.00 -0.00"/>
<path fill="currentColor"
	d="M298.43 90.21l-6.00 -0.00v-3.20l6.00 0.00"/>
<use x="275.73" y="76.01" xlink:href="#hl"/>
<use x="275.73" y="73.01" xlink:href="#hd"/>
<path d="M272.23 73.01v26.20" stroke="currentColor" fill="none"/>
<use x="295.93" y="76.01" xlink:href="#hl"/>
<use x="295.93" y="73.01" xlink:href="#hd"/>
<path d="M292.43 73.01v26.20" stroke="currentColor" fill="none"/>
<use x="306.43" y="76.01" xlink:href="#hl"/>
<use x="306.43" y="76.01" xlink:href="#hd"/>
<path d="M302.93 76.01v23.20" stroke="currentColor" fill="none"/>
<use x="320.53" y="76.01" xlink:href="#hl"/>
<use x="320.53" y="73.01" xlink:href="#hd"/>
<circle fill="currentColor" cx="328.53" cy="73.01" r="1.2"/>
<path d="M317.03 73.01v26.20" stroke="currentColor" fill="none"/>
<use x="343.13" y="76.01" xlink:href="#hl"/>
<use x="343.13" y="70.01" xlink:href="#hl"/>
<use x="343.13" y="67.01" xlink:href="#hd"/>
<path d="M339.63 67.01v32.20" stroke="currentColor" fill="none"/>
<use x="368.13" y="76.01" xlink:href="#hl"/>
<use x="368.13" y="70.01" xlink:href="#hl"/>
<use x="368.13" y="64.01" xlink:href="#hl"/>
<use x="368.13" y="61.01" xlink:href="#hd"/>
<circle fill="currentColor" cx="376.13" cy="61.01" r="1.2"/>
<path d="M364.63 61.01v33.00" stroke="currentColor" fill="none"/>
<use x="403.53" y="76.01" xlink:href="#hl"/>
<use x="403.53" y="70.01" xlink:href="#hl"/>
<use x="403.53" y="64.01" xlink:href="#hl"/>
<use x="403.53" y="61.01" xlink:href="#hd"/>
<use x="394.53" y="61.01" xlink:href="#nt0"/>
<path d="M400.03 61.01v33.00" stroke="currentColor" fill="none"/>
<path fill="currentColor"
	d="M400.03 94.01c0.6 -5.6 9.6 -9 5.6 -18.4
	c1.6 6 -1.3 11.6 -5.6 12.8
"/>
<use x="425.03" y="76.01" xlink:href="#hl"/>
<use x="425.03" y="70.01" xlink:href="#hl"/>
<use x="425.03" y="64.01" xlink:href="#hl"/>
<use x="425.03" y="64.01" xlink:href="#hd"/>
<path d="M421.53 64.01v30.00" stroke="currentColor" fill="none"/>
<path fill="currentColor"
	d="M421.53 94.01c0.6 -5.6 9.6 -9 5.6 -18.4
	c1.6 6 -1.3 11.6 -5.6 12.8
"/>
<use x="446.43" y="76.01" xlink:href="#hl"/>
<use x="446.43" y="70.01" xlink:href="#hl"/>
<use x="446.43" y="67.01" xlink:href="#hd"/>
<path d="M442.93 67.01v27.00" stroke="currentColor" fill="none"/>
<path fill="currentColor"
	d="M442.93 94.01c0.6 -5.6 9.6 -9 5.6 -18.4
	c1.6 6 -1.3 11.6 -5.6 12.8
"/>
<path fill="currentColor"
	d="M464.13 96.01l23.40 0.00v-3.20l-23.40 -0.00"/>
<path fill="currentColor"
	d="M481.13 91.01l6.00 0.00v-3.20l-6.00 -0.00"/>
<use x="467.93" y="76.01" xlink:href="#hl"/>
<use x="467.93" y="70.01" xlink:href="#hl"/>
<use x="467.93" y="70.01" xlink:href="#hd"/>
<circle fill="currentColor" cx="475.93" cy="67.01" r="1.2"/>
<path d="M464.43 70.01v25.00" stroke="currentColor" fill="none"/>
<use x="490.63" y="76.01" xlink:href="#hl"/>
<use x="490.63" y="73.01" xlink:href="#hd"/>
<path d="M487.13 73.01v22.00" stroke="currentColor" fill="none"/>
<use x="516.13" y="76.01" xlink:href="#hl"/>
<use x="516.13" y="76.01" xlink:href="#Hd"/>
<path d="M512.63 76.01v20.00" stroke="currentColor" fill="none"/>
<use x="557.93" y="79.01" xlink:href="#hd"/>
<path d="M554.43 79.01v20.00" stroke="currentColor" fill="none"/>
<path fill="currentColor"
	d="M554.43 99.01c0.6 -5.6 9.6 -9 5.6 -18.4
	c1.6 6 -1.3 11.6 -5.6 12.8
"/>
<use x="580.13" y="76.01" xlink:href="#hl"/>
<use x="580.13" y="70.01" xlink:href="#hl"/>
<use x="580.13" y="70.01" xlink:href="#hd"/>
<use x="571.13" y="70.01" xlink:href="#nt0"/>
<path d="M576.63 70.01v24.00" stroke="currentColor" fill="none"/>
<path fill="currentColor"
	d="M576.63 94.01c0.6 -5.6 9.6 -9 5.6 -18.4
	c1.6 6 -1.3 11.6 -5.6 12.8
"/>
<use x="602.33" y="76.01" xlink:href="#hl"/>
<use x="602.33" y="70.01" xlink:href="#hl"/>
<use x="602.33" y="70.01" xlink:href="#hd"/>
<use x="593.33" y="70.01" xlink:href="#sh0"/>
<path d="M598.83 70.01v24.00" stroke="currentColor" fill="none"/>
<path fill="currentColor"
	d="M598.83 94.01c0.6 -5.6 9.6 -9 5.6 -18.4
	c1.6 6 -1.3 11.6 -5.6 12.8
"/>
<use x="623.83" y="76.01" xlink:href="#hl"/>
<use x="623.83" y="70.01" xlink:href="#hl"/>
<use x="623.83" y="64.01" xlink:href="#hl"/>
<use x="623.83" y="64.01" xlink:href="#hd"/>
<path d="M620.33 64.01v30.00" stroke="currentColor" fill="none"/>
<path fill="currentColor"
	d="M620.33 94.01c0.6 -5.6 9.6 -9 5.6 -18.4
	c1.6 6 -1.3 11.6 -5.6 12.8
"/>
<use x="654.03" y="76.01" xlink:href="#hl"/>
<use x="654.03" y="70.01" xlink:href="#hl"/>
<use x="654.03" y="64.01" xlink:href="#hl"/>
<use x="654.03" y="58.01" xlink:href="#hl"/>
<use x="654.03" y="58.01" xlink:href="#Hd"/>
<path d="M650.53 58.01v36.00" stroke="currentColor" fill="none"/>
<path fill="currentColor"
	d="M279.23 71.01c2.08 -4.74 11.13 -4.74 13.21 -0.00
	l0.00 -0.21c-2.48 -6.52 -10.73 -6.52 -13.21 0.21"/>
</g>
</svg>
