<?xml version="1.0" standalone="no"?>
<!DOCTYPE svg PUBLIC "-//W3C//DTD SVG 1.1//EN"
	"http://www.w3.org/Graphics/SVG/1.1/DTD/svg11.dtd">
<svg xmlns="http://www.w3.org/2000/svg" version="1.1"
	xmlns:xlink="http://www.w3.org/1999/xlink"
	xml:space='preserve' color="black"
	width="7.38in" height="1.68in" viewBox="0 0 531 121">
<title>7939.abc (7939) tune 1</title>
<!-- Creator: abcm2ps-7.8.14 -->
<!-- CreationDate: Mar 13, 2016 18:54 -->
<!-- CommandLine: -qxg 7939.abc -O ../svgs/7939.svg -->
<g transform="scale(0.750)" stroke-width="0.70" font-family="Times" font-size="20.00">
<text x="354.13" y="21.67" text-anchor="middle">7939.  Dolores Waltzes, Op. 170, No. 1, 2nd. Theme</text>
</g>
<g transform="scale(0.750)" stroke-width="0.70" font-family="Times" font-size="14.00" font-style="italic">
<text x="694.93" y="45.34" text-anchor="end">Emil Waldteufel</text>
</g>
<g transform="scale(0.525)" stroke-width="0.70" font-family="Times" font-size="14.00" font-style="italic">
<defs>
<ellipse id="hd" rx="4.1" ry="2.9"
	transform="rotate(-20)" fill="currentColor"/>
</defs>
<use x="107.04" y="94.16" xlink:href="#hd"/>
<path d="M110.54 94.16v-20.00" stroke="currentColor" fill="none"/>
</g>
<g transform="scale(0.750)" stroke-width="0.70" font-family="Times" font-size="15.00" font-weight="bold">
<text x="82.63" y="68.01">= 120</text>
<path stroke="currentColor" fill="none"
	d="M165.13 138.01v-24.00"/>
<path stroke="currentColor" fill="none"
	d="M264.43 138.01v-24.00"/>
<path stroke="currentColor" fill="none"
	d="M391.13 138.01v-24.00"/>
<path stroke="currentColor" fill="none"
	d="M497.63 138.01v-24.00"/>
<path stroke="currentColor" fill="none"
	d="M624.33 138.01v-24.00"/>
<path stroke="currentColor" fill="none"
	d="M13.33 138.01h681.60m-681.60 -6h681.60m-681.60 -6h681.60m-681.60 -6h681.60m-681.60 -6h681.60"/>
<defs>
<path id="utclef" fill="currentColor" d="m-50 -90
	c-72 -41 -72 -158 52 -188
	c150 -10 220 188 90 256
	c-114 52 -275 0 -293 -136
	c-15 -181 93 -229 220 -334
	c88 -87 79 -133 62 -210
	c-51 33 -94 105 -89 186
	c17 267 36 374 49 574
	c6 96 -19 134 -77 135
	c-80 1 -126 -93 -61 -133
	c85 -41 133 101 31 105
	c23 17 92 37 90 -92
	c-10 -223 -39 -342 -50 -617
	c0 -90 0 -162 96 -232
	c56 72 63 230 22 289
	c-74 106 -257 168 -255 316
	c9 153 148 185 252 133
	c86 -65 29 -192 -80 -176
	c-71 12 -105 67 -59 124"/>
<use id="tclef" transform="scale(0.045)"
	xlink:href="#utclef"/>
</defs>
<use x="25.33" y="138.01" xlink:href="#tclef"/>
<defs>
<path id="uflat" fill="currentColor" d="
	m100 -746
	h32
	v734
	l-32 4
	m32 -332
	c46 -72 152 -90 208 -20
	c100 110 -120 326 -208 348
	m0 -28
	c54 0 200 -206 130 -290
	c-50 -60 -130 -4 -130 34"/>
<use id="ft0" transform="translate(-3.5,3.5) scale(0.018)"
	xlink:href="#uflat"/>
</defs>
<use x="40.33" y="126.01" xlink:href="#ft0"/>
<g font-family="serif" font-size="16" font-weight="bold" font-style="normal"
	transform="translate(56.33,138.01) scale(1.2,1)">
	<text y="-1" text-anchor="middle">4</text>
	<text y="-13" text-anchor="middle">3</text>
</g>
<path fill="currentColor"
	d="M70.53 138.21l31.70 0.00v-3.20l-31.70 -0.00"/>
<defs>
<path id="hl" stroke="currentColor" d="m-6 0h12"/>
</defs>
<use x="74.33" y="108.01" xlink:href="#hl"/>
<use x="74.33" y="102.01" xlink:href="#hl"/>
<use x="74.33" y="96.01" xlink:href="#hl"/>
<use x="74.33" y="90.01" xlink:href="#hl"/>
<use x="74.33" y="84.01" xlink:href="#hl"/>
<use x="74.33" y="78.01" xlink:href="#hl"/>
<use x="74.33" y="78.01" xlink:href="#hd"/>
<path d="M70.83 78.01v59.20" stroke="currentColor" fill="none"/>
<defs>
<path id="r8e" fill="currentColor" d="m 0 0
	c-1.5 1.5 -2.4 2 -3.6 2
	c2.4 -2.8 -2.8 -4 -2.8 -1.2
	c0 2.7 4.3 2.4 5.9 0.6"/>
<g id="r8">
	<path d="m3.3 -4l-3.4 9.6" stroke="currentColor" fill="none"/>
	<use x="3.4" y="-4" xlink:href="#r8e"/>
</g>
</defs>
<use x="89.83" y="126.01" xlink:href="#r8"/>
<use x="105.33" y="108.01" xlink:href="#hl"/>
<use x="105.33" y="102.01" xlink:href="#hl"/>
<use x="105.33" y="96.01" xlink:href="#hl"/>
<use x="105.33" y="90.01" xlink:href="#hl"/>
<use x="105.33" y="84.01" xlink:href="#hl"/>
<use x="105.33" y="81.01" xlink:href="#hd"/>
<path d="M101.83 81.01v56.20" stroke="currentColor" fill="none"/>
<defs>
<g id="r16">
	<path d="m3.3 -4l-4 15.6" stroke="currentColor" fill="none"/>
	<use x="3.4" y="-4" xlink:href="#r8e"/>
	<use x="1.9" y="2" xlink:href="#r8e"/>
</g>
</defs>
<use x="120.83" y="126.01" xlink:href="#r16"/>
<use x="133.43" y="108.01" xlink:href="#hl"/>
<use x="133.43" y="102.01" xlink:href="#hl"/>
<use x="133.43" y="96.01" xlink:href="#hl"/>
<use x="133.43" y="90.01" xlink:href="#hl"/>
<use x="133.43" y="84.01" xlink:href="#hl"/>
<use x="133.43" y="84.01" xlink:href="#hd"/>
<path d="M129.93 84.01v42.00" stroke="currentColor" fill="none"/>
<use x="154.43" y="126.01" xlink:href="#r16"/>
<use x="177.63" y="126.01" xlink:href="#r16"/>
<use x="190.23" y="108.01" xlink:href="#hl"/>
<use x="190.23" y="102.01" xlink:href="#hl"/>
<use x="190.23" y="96.01" xlink:href="#hl"/>
<use x="190.23" y="90.01" xlink:href="#hl"/>
<use x="190.23" y="87.01" xlink:href="#hd"/>
<path d="M186.73 87.01v39.00" stroke="currentColor" fill="none"/>
<path fill="currentColor"
	d="M186.73 126.01c0.6 -5.6 9.6 -9 5.6 -18.4
	c1.6 6 -1.3 11.6 -5.6 12.8
"/>
<use x="207.53" y="108.01" xlink:href="#hl"/>
<use x="207.53" y="102.01" xlink:href="#hl"/>
<use x="207.53" y="96.01" xlink:href="#hl"/>
<use x="207.53" y="90.01" xlink:href="#hl"/>
<use x="207.53" y="90.01" xlink:href="#hd"/>
<path d="M204.03 90.01v36.00" stroke="currentColor" fill="none"/>
<defs>
<path id="r4" fill="currentColor" d="m-1 -8.5
	l3.6 5.1 -2.1 5.2 2.2 4.3
	c-2.6 -2.3 -5.1 0 -2.4 2.6
	c-4.8 -3 -1.5 -6.9 1.4 -4.1
	l-3.1 -4.5 1.9 -5.1 -1.5 -3.5"/>
</defs>
<use x="230.73" y="126.01" xlink:href="#r4"/>
<use x="253.83" y="108.01" xlink:href="#hl"/>
<use x="253.83" y="102.01" xlink:href="#hl"/>
<use x="253.83" y="96.01" xlink:href="#hl"/>
<use x="253.83" y="90.01" xlink:href="#hl"/>
<use x="253.83" y="84.01" xlink:href="#hl"/>
<use x="253.83" y="84.01" xlink:href="#hd"/>
<path d="M250.33 84.01v42.00" stroke="currentColor" fill="none"/>
<path fill="currentColor"
	d="M250.33 126.01c0.9 -3.7 9.1 -6.4 6 -12.4
	c1 5.4 -4.2 8.4 -6 8.4
M250.33 120.61c0.9 -3.7 9.1 -6.4 6 -12.4
	c1 5.4 -4.2 8.4 -6 8.4
"/>
<use x="276.93" y="108.01" xlink:href="#hl"/>
<use x="276.93" y="102.01" xlink:href="#hl"/>
<use x="276.93" y="96.01" xlink:href="#hl"/>
<use x="276.93" y="90.01" xlink:href="#hl"/>
<use x="276.93" y="84.01" xlink:href="#hl"/>
<use x="276.93" y="84.01" xlink:href="#hd"/>
<path d="M273.43 84.01v42.00" stroke="currentColor" fill="none"/>
<path fill="currentColor"
	d="M273.43 126.01c0.9 -3.7 9.1 -6.4 6 -12.4
	c1 5.4 -4.2 8.4 -6 8.4
M273.43 120.61c0.9 -3.7 9.1 -6.4 6 -12.4
	c1 5.4 -4.2 8.4 -6 8.4
"/>
<use x="288.53" y="126.01" xlink:href="#r8"/>
<path fill="currentColor"
	d="M301.63 150.21l66.70 0.00v-3.20l-66.70 -0.00"/>
<path fill="currentColor"
	d="M362.03 145.21l6.00 0.00v-3.20l-6.00 -0.00"/>
<path fill="currentColor"
	d="M362.03 140.21l6.00 0.00v-3.20l-6.00 -0.00"/>
<use x="305.53" y="108.01" xlink:href="#hl"/>
<use x="305.53" y="102.01" xlink:href="#hl"/>
<use x="305.53" y="96.01" xlink:href="#hl"/>
<use x="305.53" y="90.01" xlink:href="#hl"/>
<use x="305.53" y="84.01" xlink:href="#hl"/>
<use x="305.53" y="78.01" xlink:href="#hl"/>
<use x="305.53" y="78.01" xlink:href="#hd"/>
<path d="M302.03 78.01v71.20" stroke="currentColor" fill="none"/>
<use x="321.03" y="126.01" xlink:href="#r8"/>
<defs>
<g id="r32">
	<path d="m4.8 -10l-5.5 21.6" stroke="currentColor" fill="none"/>
	<use x="4.9" y="-10" xlink:href="#r8e"/>
	<use x="3.4" y="-4" xlink:href="#r8e"/>
	<use x="1.9" y="2" xlink:href="#r8e"/>
</g>
</defs>
<use x="336.53" y="126.01" xlink:href="#r32"/>
<use x="345.53" y="108.01" xlink:href="#hl"/>
<use x="345.53" y="102.01" xlink:href="#hl"/>
<use x="345.53" y="96.01" xlink:href="#hl"/>
<use x="345.53" y="90.01" xlink:href="#hl"/>
<use x="345.53" y="87.01" xlink:href="#hd"/>
<circle fill="currentColor" cx="353.53" cy="87.01" r="1.2"/>
<path d="M342.03 87.01v62.20" stroke="currentColor" fill="none"/>
<use x="371.53" y="108.01" xlink:href="#hl"/>
<use x="371.53" y="102.01" xlink:href="#hl"/>
<use x="371.53" y="96.01" xlink:href="#hl"/>
<use x="371.53" y="90.01" xlink:href="#hl"/>
<use x="371.53" y="87.01" xlink:href="#hd"/>
<path d="M368.03 87.01v62.20" stroke="currentColor" fill="none"/>
<use x="380.53" y="126.01" xlink:href="#r16"/>
<use x="403.63" y="126.01" xlink:href="#r16"/>
<use x="421.63" y="108.01" xlink:href="#hl"/>
<use x="421.63" y="102.01" xlink:href="#hl"/>
<use x="421.63" y="96.01" xlink:href="#hl"/>
<use x="421.63" y="90.01" xlink:href="#hl"/>
<use x="421.63" y="87.01" xlink:href="#hd"/>
<use x="412.63" y="87.01" xlink:href="#ft0"/>
<path d="M418.13 87.01v39.00" stroke="currentColor" fill="none"/>
<path fill="currentColor"
	d="M418.13 126.01c0.6 -5.6 9.6 -9 5.6 -18.4
	c1.6 6 -1.3 11.6 -5.6 12.8
"/>
<use x="440.73" y="108.01" xlink:href="#hl"/>
<use x="440.73" y="102.01" xlink:href="#hl"/>
<use x="440.73" y="96.01" xlink:href="#hl"/>
<use x="440.73" y="90.01" xlink:href="#hl"/>
<use x="440.73" y="87.01" xlink:href="#hd"/>
<defs>
<path id="unat" fill="currentColor" d="
	m96 -750
	h-32
	v716
	l32 -8
	l182 -54
	v282
	h32
	v-706
	l-34 10
	l-180 50
	v-290
	m0 592
	v-190
	l182 -52
	v188"/>
<use id="nt0" transform="translate(-3,5) scale(0.018)"
	xlink:href="#unat"/>
</defs>
<use x="431.73" y="87.01" xlink:href="#nt0"/>
<path d="M437.23 87.01v39.00" stroke="currentColor" fill="none"/>
<use x="463.83" y="126.01" xlink:href="#r4"/>
<use x="487.03" y="108.01" xlink:href="#hl"/>
<use x="487.03" y="102.01" xlink:href="#hl"/>
<use x="487.03" y="96.01" xlink:href="#hl"/>
<use x="487.03" y="90.01" xlink:href="#hl"/>
<use x="487.03" y="87.01" xlink:href="#hd"/>
<path d="M483.53 87.01v39.00" stroke="currentColor" fill="none"/>
<path fill="currentColor"
	d="M483.53 126.01c0.9 -3.7 9.1 -6.4 6 -12.4
	c1 5.4 -4.2 8.4 -6 8.4
M483.53 120.61c0.9 -3.7 9.1 -6.4 6 -12.4
	c1 5.4 -4.2 8.4 -6 8.4
"/>
<use x="510.13" y="108.01" xlink:href="#hl"/>
<use x="510.13" y="102.01" xlink:href="#hl"/>
<use x="510.13" y="96.01" xlink:href="#hl"/>
<use x="510.13" y="90.01" xlink:href="#hl"/>
<use x="510.13" y="87.01" xlink:href="#hd"/>
<path d="M506.63 87.01v39.00" stroke="currentColor" fill="none"/>
<path fill="currentColor"
	d="M506.63 126.01c0.9 -3.7 9.1 -6.4 6 -12.4
	c1 5.4 -4.2 8.4 -6 8.4
M506.63 120.61c0.9 -3.7 9.1 -6.4 6 -12.4
	c1 5.4 -4.2 8.4 -6 8.4
"/>
<use x="521.73" y="126.01" xlink:href="#r8"/>
<path fill="currentColor"
	d="M534.83 150.21l66.70 0.00v-3.20l-66.70 -0.00"/>
<path fill="currentColor"
	d="M595.23 145.21l6.00 0.00v-3.20l-6.00 -0.00"/>
<path fill="currentColor"
	d="M595.23 140.21l6.00 0.00v-3.20l-6.00 -0.00"/>
<use x="538.73" y="108.01" xlink:href="#hl"/>
<use x="538.73" y="102.01" xlink:href="#hl"/>
<use x="538.73" y="96.01" xlink:href="#hl"/>
<use x="538.73" y="90.01" xlink:href="#hl"/>
<use x="538.73" y="84.01" xlink:href="#hl"/>
<use x="538.73" y="84.01" xlink:href="#hd"/>
<path d="M535.23 84.01v65.20" stroke="currentColor" fill="none"/>
<use x="554.23" y="126.01" xlink:href="#r8"/>
<use x="569.73" y="126.01" xlink:href="#r32"/>
<use x="578.73" y="108.01" xlink:href="#hl"/>
<use x="578.73" y="102.01" xlink:href="#hl"/>
<use x="578.73" y="96.01" xlink:href="#hl"/>
<use x="578.73" y="90.01" xlink:href="#hl"/>
<use x="578.73" y="90.01" xlink:href="#hd"/>
<circle fill="currentColor" cx="586.73" cy="87.01" r="1.2"/>
<path d="M575.23 90.01v59.20" stroke="currentColor" fill="none"/>
<use x="604.73" y="108.01" xlink:href="#hl"/>
<use x="604.73" y="102.01" xlink:href="#hl"/>
<use x="604.73" y="96.01" xlink:href="#hl"/>
<use x="604.73" y="90.01" xlink:href="#hl"/>
<use x="604.73" y="90.01" xlink:href="#hd"/>
<path d="M601.23 90.01v59.20" stroke="currentColor" fill="none"/>
<use x="613.73" y="126.01" xlink:href="#r16"/>
<use x="636.83" y="126.01" xlink:href="#r16"/>
<use x="654.83" y="108.01" xlink:href="#hl"/>
<use x="654.83" y="102.01" xlink:href="#hl"/>
<use x="654.83" y="96.01" xlink:href="#hl"/>
<use x="654.83" y="90.01" xlink:href="#hl"/>
<use x="654.83" y="90.01" xlink:href="#hd"/>
<use x="645.83" y="90.01" xlink:href="#ft0"/>
<path d="M651.33 90.01v36.00" stroke="currentColor" fill="none"/>
<path fill="currentColor"
	d="M651.33 126.01c0.6 -5.6 9.6 -9 5.6 -18.4
	c1.6 6 -1.3 11.6 -5.6 12.8
"/>
<use x="673.93" y="108.01" xlink:href="#hl"/>
<use x="673.93" y="102.01" xlink:href="#hl"/>
<use x="673.93" y="96.01" xlink:href="#hl"/>
<use x="673.93" y="90.01" xlink:href="#hl"/>
<use x="673.93" y="90.01" xlink:href="#hd"/>
<use x="664.93" y="90.01" xlink:href="#nt0"/>
<path d="M670.43 90.01v36.00" stroke="currentColor" fill="none"/>
<path fill="currentColor"
	d="M257.33 84.01c2.54 -4.79 13.60 -4.79 16.14 -0.00
	l0.00 -0.22c-3.03 -6.57 -13.11 -6.57 -16.14 0.22"/>
<path fill="currentColor"
	d="M349.03 85.01c2.99 -4.84 16.01 -4.84 19.00 -0.00
	l0.00 -0.22c-3.56 -6.62 -15.44 -6.62 -19.00 0.22"/>
<path fill="currentColor"
	d="M490.53 85.01c2.54 -4.79 13.60 -4.79 16.14 -0.00
	l0.00 -0.22c-3.03 -6.57 -13.11 -6.57 -16.14 0.22"/>
<path fill="currentColor"
	d="M582.23 84.01c2.99 -4.84 16.01 -4.84 19.00 -0.00
	l0.00 -0.22c-3.56 -6.62 -15.44 -6.62 -19.00 0.22"/>
</g>
</svg>
