<?xml version="1.0" standalone="no"?>
<!DOCTYPE svg PUBLIC "-//W3C//DTD SVG 1.1//EN"
	"http://www.w3.org/Graphics/SVG/1.1/DTD/svg11.dtd">
<svg xmlns="http://www.w3.org/2000/svg" version="1.1"
	xmlns:xlink="http://www.w3.org/1999/xlink"
	xml:space='preserve' color="black"
	width="7.38in" height="1.34in" viewBox="0 0 531 97">
<title>7971.abc (7971) tune 1</title>
<!-- Creator: abcm2ps-7.8.14 -->
<!-- CreationDate: Mar 13, 2016 18:54 -->
<!-- CommandLine: -qxg 7971.abc -O ../svgs/7971.svg -->
<g transform="scale(0.750)" stroke-width="0.70" font-family="Times" font-size="20.00">
<text x="354.13" y="21.67" text-anchor="middle">7971.  Immer Oder Nimmer, Op. 156, No. 3, 1st. Theme</text>
</g>
<g transform="scale(0.750)" stroke-width="0.70" font-family="Times" font-size="14.00" font-style="italic">
<text x="694.93" y="45.34" text-anchor="end">Emil Waldteufel</text>
</g>
<g transform="scale(0.525)" stroke-width="0.70" font-family="Times" font-size="14.00" font-style="italic">
<defs>
<ellipse id="hd" rx="4.1" ry="2.9"
	transform="rotate(-20)" fill="currentColor"/>
</defs>
<use x="123.47" y="94.16" xlink:href="#hd"/>
<path d="M126.97 94.16v-20.00" stroke="currentColor" fill="none"/>
</g>
<g transform="scale(0.750)" stroke-width="0.70" font-family="Times" font-size="15.00" font-weight="bold">
<text x="94.13" y="68.01">= 120</text>
<path stroke="currentColor" fill="none"
	d="M112.93 106.01v-24.00"/>
<path stroke="currentColor" fill="none"
	d="M180.63 106.01v-24.00"/>
<path stroke="currentColor" fill="none"
	d="M227.23 106.01v-24.00"/>
<path stroke="currentColor" fill="none"
	d="M303.43 106.01v-24.00"/>
<path stroke="currentColor" fill="none"
	d="M343.53 106.01v-24.00"/>
<path stroke="currentColor" fill="none"
	d="M414.53 106.01v-24.00"/>
<path stroke="currentColor" fill="none"
	d="M461.03 106.01v-24.00"/>
<path stroke="currentColor" fill="none"
	d="M543.83 106.01v-24.00"/>
<path stroke="currentColor" fill="none"
	d="M583.83 106.01v-24.00"/>
<path stroke="currentColor" fill="none"
	d="M654.83 106.01v-24.00"/>
<path stroke="currentColor" fill="none"
	d="M694.93 106.01v-24.00"/>
<path stroke="currentColor" fill="none"
	d="M13.33 106.01h681.60m-681.60 -6h681.60m-681.60 -6h681.60m-681.60 -6h681.60m-681.60 -6h681.60"/>
<defs>
<path id="utclef" fill="currentColor" d="m-50 -90
	c-72 -41 -72 -158 52 -188
	c150 -10 220 188 90 256
	c-114 52 -275 0 -293 -136
	c-15 -181 93 -229 220 -334
	c88 -87 79 -133 62 -210
	c-51 33 -94 105 -89 186
	c17 267 36 374 49 574
	c6 96 -19 134 -77 135
	c-80 1 -126 -93 -61 -133
	c85 -41 133 101 31 105
	c23 17 92 37 90 -92
	c-10 -223 -39 -342 -50 -617
	c0 -90 0 -162 96 -232
	c56 72 63 230 22 289
	c-74 106 -257 168 -255 316
	c9 153 148 185 252 133
	c86 -65 29 -192 -80 -176
	c-71 12 -105 67 -59 124"/>
<use id="tclef" transform="scale(0.045)"
	xlink:href="#utclef"/>
</defs>
<use x="25.33" y="106.01" xlink:href="#tclef"/>
<defs>
<path id="usharp" fill="currentColor" d="
	m136 -702
	v890
	h32
	v-890
	m128 840
	h32
	v-888
	h-32
	m-232 286
	v116
	l338 -96
	v-116
	m-338 442
	v116
	l338 -98
	v-114"/>
<use id="sh0" transform="translate(-4,5) scale(0.018)"
	xlink:href="#usharp"/>
</defs>
<use x="40.33" y="82.01" xlink:href="#sh0"/>
<use x="45.83" y="91.01" xlink:href="#sh0"/>
<use x="51.33" y="79.01" xlink:href="#sh0"/>
<g font-family="serif" font-size="16" font-weight="bold" font-style="normal"
	transform="translate(67.33,106.01) scale(1.2,1)">
	<text y="-1" text-anchor="middle">4</text>
	<text y="-13" text-anchor="middle">3</text>
</g>
<defs>
<path id="Hd" fill="currentColor" d="m3 -1.6
	c-1 -1.8 -7 1.4 -6 3.2
	c1 1.8 7 -1.4 6 -3.2
	m0.5 -0.3
	c2 3.8 -5 7.6 -7 3.8
	c-2 -3.8 5 -7.6 7 -3.8"/>
</defs>
<use x="85.83" y="85.01" xlink:href="#Hd"/>
<circle fill="currentColor" cx="95.83" cy="85.01" r="1.2"/>
<path d="M82.33 85.01v20.00" stroke="currentColor" fill="none"/>
<use x="125.43" y="85.01" xlink:href="#hd"/>
<path d="M121.93 85.01v20.00" stroke="currentColor" fill="none"/>
<use x="144.83" y="79.01" xlink:href="#hd"/>
<path d="M141.33 79.01v20.00" stroke="currentColor" fill="none"/>
<defs>
<path id="hl" stroke="currentColor" d="m-6 0h12"/>
</defs>
<use x="164.33" y="76.01" xlink:href="#hl"/>
<use x="164.33" y="76.01" xlink:href="#hd"/>
<path d="M160.83 76.01v20.00" stroke="currentColor" fill="none"/>
<use x="200.13" y="76.01" xlink:href="#hl"/>
<use x="200.13" y="76.01" xlink:href="#Hd"/>
<circle fill="currentColor" cx="209.13" cy="73.01" r="1.2"/>
<use x="190.13" y="76.01" xlink:href="#sh0"/>
<path d="M196.63 76.01v20.00" stroke="currentColor" fill="none"/>
<use x="239.73" y="76.01" xlink:href="#hl"/>
<use x="239.73" y="73.01" xlink:href="#hd"/>
<path d="M236.23 73.01v21.00" stroke="currentColor" fill="none"/>
<path fill="currentColor"
	d="M236.23 94.01c0.6 -5.6 9.6 -9 5.6 -18.4
	c1.6 6 -1.3 11.6 -5.6 12.8
"/>
<defs>
<path id="r8e" fill="currentColor" d="m 0 0
	c-1.5 1.5 -2.4 2 -3.6 2
	c2.4 -2.8 -2.8 -4 -2.8 -1.2
	c0 2.7 4.3 2.4 5.9 0.6"/>
<g id="r8">
	<path d="m3.3 -4l-3.4 9.6" stroke="currentColor" fill="none"/>
	<use x="3.4" y="-4" xlink:href="#r8e"/>
</g>
</defs>
<use x="253.13" y="94.01" xlink:href="#r8"/>
<use x="267.73" y="85.01" xlink:href="#hd"/>
<path d="M264.23 85.01v20.00" stroke="currentColor" fill="none"/>
<use x="287.13" y="85.01" xlink:href="#hd"/>
<path d="M283.63 85.01v20.00" stroke="currentColor" fill="none"/>
<use x="316.43" y="85.01" xlink:href="#Hd"/>
<circle fill="currentColor" cx="325.43" cy="85.01" r="1.2"/>
<path d="M312.93 85.01v20.00" stroke="currentColor" fill="none"/>
<use x="356.03" y="85.01" xlink:href="#hd"/>
<path d="M352.53 85.01v20.00" stroke="currentColor" fill="none"/>
<use x="378.33" y="76.01" xlink:href="#hl"/>
<use x="378.33" y="76.01" xlink:href="#hd"/>
<defs>
<path id="unat" fill="currentColor" d="
	m96 -750
	h-32
	v716
	l32 -8
	l182 -54
	v282
	h32
	v-706
	l-34 10
	l-180 50
	v-290
	m0 592
	v-190
	l182 -52
	v188"/>
<use id="nt0" transform="translate(-3,5) scale(0.018)"
	xlink:href="#unat"/>
</defs>
<use x="369.33" y="76.01" xlink:href="#nt0"/>
<path d="M374.83 76.01v20.00" stroke="currentColor" fill="none"/>
<use x="398.23" y="76.01" xlink:href="#hl"/>
<use x="398.23" y="73.01" xlink:href="#hd"/>
<path d="M394.73 73.01v21.00" stroke="currentColor" fill="none"/>
<use x="434.03" y="76.01" xlink:href="#hl"/>
<use x="434.03" y="70.01" xlink:href="#hl"/>
<use x="434.03" y="70.01" xlink:href="#Hd"/>
<circle fill="currentColor" cx="443.03" cy="67.01" r="1.2"/>
<use x="424.03" y="70.01" xlink:href="#nt0"/>
<path d="M430.53 70.01v24.00" stroke="currentColor" fill="none"/>
<use x="479.53" y="76.01" xlink:href="#hl"/>
<use x="479.53" y="70.01" xlink:href="#hl"/>
<use x="479.53" y="70.01" xlink:href="#hd"/>
<use x="470.53" y="70.01" xlink:href="#sh0"/>
<path d="M476.03 70.01v24.00" stroke="currentColor" fill="none"/>
<path fill="currentColor"
	d="M476.03 94.01c0.6 -5.6 9.6 -9 5.6 -18.4
	c1.6 6 -1.3 11.6 -5.6 12.8
"/>
<use x="493.03" y="94.01" xlink:href="#r8"/>
<use x="507.53" y="76.01" xlink:href="#hl"/>
<use x="507.53" y="70.01" xlink:href="#hl"/>
<use x="507.53" y="70.01" xlink:href="#hd"/>
<path d="M504.03 70.01v24.00" stroke="currentColor" fill="none"/>
<use x="527.53" y="76.01" xlink:href="#hl"/>
<use x="527.53" y="70.01" xlink:href="#hl"/>
<use x="527.53" y="70.01" xlink:href="#hd"/>
<path d="M524.03 70.01v24.00" stroke="currentColor" fill="none"/>
<use x="556.83" y="76.01" xlink:href="#hl"/>
<use x="556.83" y="70.01" xlink:href="#hl"/>
<use x="556.83" y="70.01" xlink:href="#Hd"/>
<circle fill="currentColor" cx="565.83" cy="67.01" r="1.2"/>
<path d="M553.33 70.01v24.00" stroke="currentColor" fill="none"/>
<use x="596.33" y="76.01" xlink:href="#hl"/>
<use x="596.33" y="70.01" xlink:href="#hl"/>
<use x="596.33" y="70.01" xlink:href="#hd"/>
<path d="M592.83 70.01v24.00" stroke="currentColor" fill="none"/>
<use x="616.33" y="76.01" xlink:href="#hl"/>
<use x="616.33" y="70.01" xlink:href="#hl"/>
<use x="616.33" y="70.01" xlink:href="#hd"/>
<path d="M612.83 70.01v24.00" stroke="currentColor" fill="none"/>
<use x="638.53" y="76.01" xlink:href="#hl"/>
<use x="638.53" y="70.01" xlink:href="#hl"/>
<use x="638.53" y="67.01" xlink:href="#hd"/>
<use x="629.53" y="67.01" xlink:href="#sh0"/>
<path d="M635.03 67.01v27.00" stroke="currentColor" fill="none"/>
<use x="667.83" y="76.01" xlink:href="#hl"/>
<use x="667.83" y="70.01" xlink:href="#hl"/>
<use x="667.83" y="64.01" xlink:href="#hl"/>
<use x="667.83" y="64.01" xlink:href="#Hd"/>
<circle fill="currentColor" cx="676.83" cy="61.01" r="1.2"/>
<path d="M664.33 64.01v30.00" stroke="currentColor" fill="none"/>
<path fill="currentColor"
	d="M89.33 83.01c5.13 -5.09 27.44 -5.09 32.57 -0.00
	l0.00 -0.23c-6.11 -6.85 -26.46 -6.85 -32.57 0.23"/>
<path fill="currentColor"
	d="M319.93 83.01c5.13 -5.09 27.44 -5.09 32.57 -0.00
	l0.00 -0.23c-6.11 -6.85 -26.46 -6.85 -32.57 0.23"/>
<path fill="currentColor"
	d="M560.33 64.01c5.13 -5.09 27.44 -5.09 32.57 -0.00
	l0.00 -0.23c-6.11 -6.85 -26.46 -6.85 -32.57 0.23"/>
</g>
</svg>
