<?xml version="1.0" standalone="no"?>
<!DOCTYPE svg PUBLIC "-//W3C//DTD SVG 1.1//EN"
	"http://www.w3.org/Graphics/SVG/1.1/DTD/svg11.dtd">
<svg xmlns="http://www.w3.org/2000/svg" version="1.1"
	xmlns:xlink="http://www.w3.org/1999/xlink"
	xml:space='preserve' color="black"
	width="7.38in" height="1.43in" viewBox="0 0 531 103">
<title>8039.abc (8039) tune 1</title>
<!-- Creator: abcm2ps-7.8.14 -->
<!-- CreationDate: Mar 13, 2016 18:54 -->
<!-- CommandLine: -qxg 8039.abc -O ../svgs/8039.svg -->
<g transform="scale(0.750)" stroke-width="0.70" font-family="Times" font-size="20.00">
<text x="354.13" y="21.67" text-anchor="middle">8039.  Portsmouth Point, Overture, 1st. Theme B</text>
</g>
<g transform="scale(0.750)" stroke-width="0.70" font-family="Times" font-size="14.00" font-style="italic">
<text x="694.93" y="45.34" text-anchor="end">William Turner Walton</text>
</g>
<g transform="scale(0.525)" stroke-width="0.70" font-family="Times" font-size="14.00" font-style="italic">
<defs>
<ellipse id="hd" rx="4.1" ry="2.9"
	transform="rotate(-20)" fill="currentColor"/>
</defs>
<use x="89.19" y="94.16" xlink:href="#hd"/>
<path d="M92.69 94.16v-20.00" stroke="currentColor" fill="none"/>
</g>
<g transform="scale(0.750)" stroke-width="0.70" font-family="Times" font-size="15.00" font-weight="bold">
<text x="70.13" y="68.01">= 120</text>
<path stroke="currentColor" fill="none"
	d="M240.03 114.01v-24.00"/>
<path stroke="currentColor" fill="none"
	d="M489.13 114.01v-24.00"/>
<path stroke="currentColor" fill="none"
	d="M694.93 114.01v-24.00"/>
<path stroke="currentColor" fill="none"
	d="M13.33 114.01h681.60m-681.60 -6h681.60m-681.60 -6h681.60m-681.60 -6h681.60m-681.60 -6h681.60"/>
<defs>
<path id="utclef" fill="currentColor" d="m-50 -90
	c-72 -41 -72 -158 52 -188
	c150 -10 220 188 90 256
	c-114 52 -275 0 -293 -136
	c-15 -181 93 -229 220 -334
	c88 -87 79 -133 62 -210
	c-51 33 -94 105 -89 186
	c17 267 36 374 49 574
	c6 96 -19 134 -77 135
	c-80 1 -126 -93 -61 -133
	c85 -41 133 101 31 105
	c23 17 92 37 90 -92
	c-10 -223 -39 -342 -50 -617
	c0 -90 0 -162 96 -232
	c56 72 63 230 22 289
	c-74 106 -257 168 -255 316
	c9 153 148 185 252 133
	c86 -65 29 -192 -80 -176
	c-71 12 -105 67 -59 124"/>
<use id="tclef" transform="scale(0.045)"
	xlink:href="#utclef"/>
</defs>
<use x="25.33" y="114.01" xlink:href="#tclef"/>
<g font-family="serif" font-size="16" font-weight="bold" font-style="normal"
	transform="translate(43.83,114.01) scale(1.2,1)">
	<text y="-1" text-anchor="middle">4</text>
	<text y="-13" text-anchor="middle">4</text>
</g>
<use x="61.83" y="99.01" xlink:href="#hd"/>
<path d="M58.33 99.01v20.00" stroke="currentColor" fill="none"/>
<path fill="currentColor"
	d="M97.63 103.01l29.40 3.20v-3.20l-29.40 -3.20"/>
<path fill="currentColor"
	d="M120.63 100.51l6.00 0.70v-3.20l-6.00 -0.70"/>
<defs>
<path id="hl" stroke="currentColor" d="m-6 0h12"/>
</defs>
<use x="101.43" y="84.01" xlink:href="#hl"/>
<use x="101.43" y="78.01" xlink:href="#hl"/>
<use x="101.43" y="78.01" xlink:href="#hd"/>
<circle fill="currentColor" cx="109.43" cy="75.01" r="1.2"/>
<path d="M97.93 78.01v24.10" stroke="currentColor" fill="none"/>
<use x="130.13" y="84.01" xlink:href="#hl"/>
<use x="130.13" y="84.01" xlink:href="#hd"/>
<path d="M126.63 84.01v21.20" stroke="currentColor" fill="none"/>
<use x="149.93" y="87.01" xlink:href="#hd"/>
<path d="M146.43 87.01v20.00" stroke="currentColor" fill="none"/>
<path fill="currentColor"
	d="M146.43 107.01c0.6 -5.6 9.6 -9 5.6 -18.4
	c1.6 6 -1.3 11.6 -5.6 12.8
"/>
<use x="178.03" y="93.01" xlink:href="#hd"/>
<path d="M174.53 93.01v20.00" stroke="currentColor" fill="none"/>
<use x="217.63" y="99.01" xlink:href="#hd"/>
<path d="M214.13 99.01v20.00" stroke="currentColor" fill="none"/>
<path fill="currentColor"
	d="M214.13 119.01c0.6 -5.6 9.6 -9 5.6 -18.4
	c1.6 6 -1.3 11.6 -5.6 12.8
"/>
<path fill="currentColor"
	d="M250.23 118.21l18.50 -2.30v-3.20l-18.50 2.30"/>
<path fill="currentColor"
	d="M250.53 113.21l17.80 -2.20v-3.20l-17.80 2.20"/>
<use x="254.03" y="96.01" xlink:href="#hd"/>
<path d="M250.53 96.01v21.20" stroke="currentColor" fill="none"/>
<use x="271.83" y="93.01" xlink:href="#hd"/>
<path d="M268.33 93.01v22.00" stroke="currentColor" fill="none"/>
<use x="291.63" y="96.01" xlink:href="#hd"/>
<path d="M288.13 96.01v20.00" stroke="currentColor" fill="none"/>
<path fill="currentColor"
	d="M288.13 116.01c0.6 -5.6 9.6 -9 5.6 -18.4
	c1.6 6 -1.3 11.6 -5.6 12.8
"/>
<use x="319.73" y="99.01" xlink:href="#hd"/>
<path d="M316.23 99.01v20.00" stroke="currentColor" fill="none"/>
<path fill="currentColor"
	d="M316.23 119.01c0.6 -5.6 9.6 -9 5.6 -18.4
	c1.6 6 -1.3 11.6 -5.6 12.8
"/>
<path fill="currentColor"
	d="M343.93 118.91l18.50 2.30v-3.20l-18.50 -2.30"/>
<path fill="currentColor"
	d="M344.23 114.01l17.80 2.20v-3.20l-17.80 -2.20"/>
<use x="347.73" y="96.01" xlink:href="#hd"/>
<path d="M344.23 96.01v22.00" stroke="currentColor" fill="none"/>
<use x="365.53" y="99.01" xlink:href="#hd"/>
<path d="M362.03 99.01v21.20" stroke="currentColor" fill="none"/>
<use x="385.33" y="102.01" xlink:href="#hd"/>
<path d="M381.83 102.01v20.00" stroke="currentColor" fill="none"/>
<path fill="currentColor"
	d="M381.83 122.01c0.6 -5.6 9.6 -9 5.6 -18.4
	c1.6 6 -1.3 11.6 -5.6 12.8
"/>
<use x="410.63" y="105.01" xlink:href="#hd"/>
<path d="M414.13 105.01v-20.00" stroke="currentColor" fill="none"/>
<path fill="currentColor"
	d="	M414.13 85.01c0.6 5.6 9.6 9 5.6 18.4
	c1.6 -6 -1.3 -11.6 -5.6 -12.8
"/>
<use x="438.63" y="108.01" xlink:href="#hd"/>
<path d="M442.13 108.01v-20.00" stroke="currentColor" fill="none"/>
<path fill="currentColor"
	d="	M442.13 88.01c0.6 5.6 9.6 9 5.6 18.4
	c1.6 -6 -1.3 -11.6 -5.6 -12.8
"/>
<use x="466.63" y="99.01" xlink:href="#hd"/>
<path d="M463.13 99.01v20.00" stroke="currentColor" fill="none"/>
<path fill="currentColor"
	d="M463.13 119.01c0.6 -5.6 9.6 -9 5.6 -18.4
	c1.6 6 -1.3 11.6 -5.6 12.8
"/>
<use x="503.13" y="99.01" xlink:href="#hd"/>
<path d="M499.63 99.01v20.00" stroke="currentColor" fill="none"/>
<path fill="currentColor"
	d="M499.63 119.01c0.6 -5.6 9.6 -9 5.6 -18.4
	c1.6 6 -1.3 11.6 -5.6 12.8
"/>
<path fill="currentColor"
	d="M527.33 103.01l29.40 3.20v-3.20l-29.40 -3.20"/>
<path fill="currentColor"
	d="M550.33 100.51l6.00 0.70v-3.20l-6.00 -0.70"/>
<use x="531.13" y="84.01" xlink:href="#hl"/>
<use x="531.13" y="78.01" xlink:href="#hl"/>
<use x="531.13" y="78.01" xlink:href="#hd"/>
<circle fill="currentColor" cx="539.13" cy="75.01" r="1.2"/>
<path d="M527.63 78.01v24.10" stroke="currentColor" fill="none"/>
<use x="559.83" y="84.01" xlink:href="#hl"/>
<use x="559.83" y="84.01" xlink:href="#hd"/>
<path d="M556.33 84.01v21.20" stroke="currentColor" fill="none"/>
<use x="579.63" y="87.01" xlink:href="#hd"/>
<path d="M576.13 87.01v20.00" stroke="currentColor" fill="none"/>
<path fill="currentColor"
	d="M576.13 107.01c0.6 -5.6 9.6 -9 5.6 -18.4
	c1.6 6 -1.3 11.6 -5.6 12.8
"/>
<defs>
<path id="r8e" fill="currentColor" d="m 0 0
	c-1.5 1.5 -2.4 2 -3.6 2
	c2.4 -2.8 -2.8 -4 -2.8 -1.2
	c0 2.7 4.3 2.4 5.9 0.6"/>
<g id="r8">
	<path d="m3.3 -4l-3.4 9.6" stroke="currentColor" fill="none"/>
	<use x="3.4" y="-4" xlink:href="#r8e"/>
</g>
</defs>
<use x="604.83" y="102.01" xlink:href="#r8"/>
<use x="632.93" y="93.01" xlink:href="#hd"/>
<path d="M629.43 93.01v20.00" stroke="currentColor" fill="none"/>
<use x="672.53" y="99.01" xlink:href="#hd"/>
<path d="M669.03 99.01v20.00" stroke="currentColor" fill="none"/>
<path fill="currentColor"
	d="M669.03 119.01c0.6 -5.6 9.6 -9 5.6 -18.4
	c1.6 6 -1.3 11.6 -5.6 12.8
"/>
<path fill="currentColor"
	d="M470.13 97.01c4.64 -5.03 24.81 -5.03 29.45 -0.00
	l0.00 -0.23c-5.52 -6.80 -23.92 -6.80 -29.45 0.23"/>
</g>
</svg>
