<?xml version="1.0" standalone="no"?>
<!DOCTYPE svg PUBLIC "-//W3C//DTD SVG 1.1//EN"
	"http://www.w3.org/Graphics/SVG/1.1/DTD/svg11.dtd">
<svg xmlns="http://www.w3.org/2000/svg" version="1.1"
	xmlns:xlink="http://www.w3.org/1999/xlink"
	xml:space='preserve' color="black"
	width="7.38in" height="1.40in" viewBox="0 0 531 101">
<title>8043.abc (8043) tune 1</title>
<!-- Creator: abcm2ps-7.8.14 -->
<!-- CreationDate: Mar 13, 2016 18:54 -->
<!-- CommandLine: -qxg 8043.abc -O ../svgs/8043.svg -->
<g transform="scale(0.750)" stroke-width="0.70" font-family="Times" font-size="20.00">
<text x="354.13" y="21.67" text-anchor="middle">8043.  Capriol, Suite for Orch., 3rd. Mvt. - Tordion</text>
</g>
<g transform="scale(0.750)" stroke-width="0.70" font-family="Times" font-size="14.00" font-style="italic">
<text x="694.93" y="45.34" text-anchor="end">Peter Warlock</text>
</g>
<g transform="scale(0.525)" stroke-width="0.70" font-family="Times" font-size="14.00" font-style="italic">
<defs>
<ellipse id="hd" rx="4.1" ry="2.9"
	transform="rotate(-20)" fill="currentColor"/>
</defs>
<use x="89.19" y="94.16" xlink:href="#hd"/>
<path d="M92.69 94.16v-20.00" stroke="currentColor" fill="none"/>
</g>
<g transform="scale(0.750)" stroke-width="0.70" font-family="Times" font-size="15.00" font-weight="bold">
<text x="70.13" y="68.01">= 120</text>
<path stroke="currentColor" fill="none"
	d="M224.33 111.01v-24.00"/>
<path stroke="currentColor" fill="none"
	d="M399.03 111.01v-24.00"/>
<path stroke="currentColor" fill="none"
	d="M583.23 111.01v-24.00"/>
<path stroke="currentColor" fill="none"
	d="M694.93 111.01v-24.00"/>
<path stroke="currentColor" fill="none"
	d="M13.33 111.01h681.60m-681.60 -6h681.60m-681.60 -6h681.60m-681.60 -6h681.60m-681.60 -6h681.60"/>
<defs>
<path id="utclef" fill="currentColor" d="m-50 -90
	c-72 -41 -72 -158 52 -188
	c150 -10 220 188 90 256
	c-114 52 -275 0 -293 -136
	c-15 -181 93 -229 220 -334
	c88 -87 79 -133 62 -210
	c-51 33 -94 105 -89 186
	c17 267 36 374 49 574
	c6 96 -19 134 -77 135
	c-80 1 -126 -93 -61 -133
	c85 -41 133 101 31 105
	c23 17 92 37 90 -92
	c-10 -223 -39 -342 -50 -617
	c0 -90 0 -162 96 -232
	c56 72 63 230 22 289
	c-74 106 -257 168 -255 316
	c9 153 148 185 252 133
	c86 -65 29 -192 -80 -176
	c-71 12 -105 67 -59 124"/>
<use id="tclef" transform="scale(0.045)"
	xlink:href="#utclef"/>
</defs>
<use x="25.33" y="111.01" xlink:href="#tclef"/>
<g font-family="serif" font-size="16" font-weight="bold" font-style="normal"
	transform="translate(43.83,111.01) scale(1.2,1)">
	<text y="-1" text-anchor="middle">4</text>
	<text y="-13" text-anchor="middle">6</text>
</g>
<defs>
<path id="hl" stroke="currentColor" d="m-6 0h12"/>
</defs>
<use x="61.83" y="81.01" xlink:href="#hl"/>
<use x="61.83" y="78.01" xlink:href="#hd"/>
<path d="M58.33 78.01v21.00" stroke="currentColor" fill="none"/>
<use x="88.33" y="81.01" xlink:href="#hl"/>
<use x="88.33" y="81.01" xlink:href="#hd"/>
<path d="M84.83 81.01v20.00" stroke="currentColor" fill="none"/>
<use x="114.83" y="84.01" xlink:href="#hd"/>
<path d="M111.33 84.01v20.00" stroke="currentColor" fill="none"/>
<use x="141.23" y="81.01" xlink:href="#hl"/>
<use x="141.23" y="75.01" xlink:href="#hl"/>
<use x="141.23" y="75.01" xlink:href="#hd"/>
<path d="M137.73 75.01v24.00" stroke="currentColor" fill="none"/>
<defs>
<path id="r8e" fill="currentColor" d="m 0 0
	c-1.5 1.5 -2.4 2 -3.6 2
	c2.4 -2.8 -2.8 -4 -2.8 -1.2
	c0 2.7 4.3 2.4 5.9 0.6"/>
<g id="r8">
	<path d="m3.3 -4l-3.4 9.6" stroke="currentColor" fill="none"/>
	<use x="3.4" y="-4" xlink:href="#r8e"/>
</g>
</defs>
<use x="165.13" y="99.01" xlink:href="#r8"/>
<use x="184.03" y="81.01" xlink:href="#hl"/>
<use x="184.03" y="78.01" xlink:href="#hd"/>
<path d="M180.53 78.01v21.00" stroke="currentColor" fill="none"/>
<path fill="currentColor"
	d="M180.53 99.01c0.6 -5.6 9.6 -9 5.6 -18.4
	c1.6 6 -1.3 11.6 -5.6 12.8
"/>
<use x="203.03" y="81.01" xlink:href="#hl"/>
<use x="203.03" y="81.01" xlink:href="#hd"/>
<path d="M199.53 81.01v20.00" stroke="currentColor" fill="none"/>
<use x="236.83" y="84.01" xlink:href="#hd"/>
<path d="M233.33 84.01v20.00" stroke="currentColor" fill="none"/>
<use x="263.23" y="87.01" xlink:href="#hd"/>
<path d="M259.73 87.01v20.00" stroke="currentColor" fill="none"/>
<use x="289.73" y="90.01" xlink:href="#hd"/>
<path d="M286.23 90.01v20.00" stroke="currentColor" fill="none"/>
<use x="316.13" y="87.01" xlink:href="#hd"/>
<path d="M312.63 87.01v20.00" stroke="currentColor" fill="none"/>
<use x="340.03" y="99.01" xlink:href="#r8"/>
<use x="358.83" y="90.01" xlink:href="#hd"/>
<path d="M355.33 90.01v20.00" stroke="currentColor" fill="none"/>
<path fill="currentColor"
	d="M355.33 110.01c0.6 -5.6 9.6 -9 5.6 -18.4
	c1.6 6 -1.3 11.6 -5.6 12.8
"/>
<use x="377.73" y="93.01" xlink:href="#hd"/>
<path d="M374.23 93.01v20.00" stroke="currentColor" fill="none"/>
<use x="411.53" y="81.01" xlink:href="#hl"/>
<use x="411.53" y="78.01" xlink:href="#hd"/>
<path d="M408.03 78.01v21.00" stroke="currentColor" fill="none"/>
<use x="438.13" y="81.01" xlink:href="#hl"/>
<use x="438.13" y="81.01" xlink:href="#hd"/>
<path d="M434.63 81.01v20.00" stroke="currentColor" fill="none"/>
<use x="464.53" y="84.01" xlink:href="#hd"/>
<path d="M461.03 84.01v20.00" stroke="currentColor" fill="none"/>
<use x="491.03" y="81.01" xlink:href="#hl"/>
<use x="491.03" y="75.01" xlink:href="#hl"/>
<use x="491.03" y="75.01" xlink:href="#hd"/>
<path d="M487.53 75.01v24.00" stroke="currentColor" fill="none"/>
<use x="514.83" y="99.01" xlink:href="#r8"/>
<path fill="currentColor"
	d="M529.93 99.41l34.90 3.90v-3.20l-34.90 -3.90"/>
<use x="533.73" y="81.01" xlink:href="#hl"/>
<use x="533.73" y="78.01" xlink:href="#hd"/>
<path d="M530.23 78.01v20.40" stroke="currentColor" fill="none"/>
<use x="550.83" y="81.01" xlink:href="#hl"/>
<use x="550.83" y="81.01" xlink:href="#hd"/>
<path d="M547.33 81.01v19.30" stroke="currentColor" fill="none"/>
<use x="567.93" y="84.01" xlink:href="#hd"/>
<path d="M564.43 84.01v18.30" stroke="currentColor" fill="none"/>
<defs>
<path id="Hd" fill="currentColor" d="m3 -1.6
	c-1 -1.8 -7 1.4 -6 3.2
	c1 1.8 7 -1.4 6 -3.2
	m0.5 -0.3
	c2 3.8 -5 7.6 -7 3.8
	c-2 -3.8 5 -7.6 7 -3.8"/>
</defs>
<use x="596.23" y="84.01" xlink:href="#Hd"/>
<path d="M592.73 84.01v20.00" stroke="currentColor" fill="none"/>
<use x="633.93" y="87.01" xlink:href="#hd"/>
<defs>
<path id="usharp" fill="currentColor" d="
	m136 -702
	v890
	h32
	v-890
	m128 840
	h32
	v-888
	h-32
	m-232 286
	v116
	l338 -96
	v-116
	m-338 442
	v116
	l338 -98
	v-114"/>
<use id="sh0" transform="translate(-4,5) scale(0.018)"
	xlink:href="#usharp"/>
</defs>
<use x="624.93" y="87.01" xlink:href="#sh0"/>
<path d="M630.43 87.01v20.00" stroke="currentColor" fill="none"/>
<use x="660.43" y="84.01" xlink:href="#Hd"/>
<circle fill="currentColor" cx="669.43" cy="84.01" r="1.2"/>
<path d="M656.93 84.01v20.00" stroke="currentColor" fill="none"/>
</g>
</svg>
