<?xml version="1.0" standalone="no"?>
<!DOCTYPE svg PUBLIC "-//W3C//DTD SVG 1.1//EN"
	"http://www.w3.org/Graphics/SVG/1.1/DTD/svg11.dtd">
<svg xmlns="http://www.w3.org/2000/svg" version="1.1"
	xmlns:xlink="http://www.w3.org/1999/xlink"
	xml:space='preserve' color="black"
	width="7.38in" height="1.34in" viewBox="0 0 531 97">
<title>8071.abc (8071) tune 1</title>
<!-- Creator: abcm2ps-7.8.14 -->
<!-- CreationDate: Mar 13, 2016 18:54 -->
<!-- CommandLine: -qxg 8071.abc -O ../svgs/8071.svg -->
<g transform="scale(0.750)" stroke-width="0.70" font-family="Times" font-size="20.00">
<text x="354.13" y="21.67" text-anchor="middle">8071.  Invitation to the Dance, Op. 65, Intro. A</text>
</g>
<g transform="scale(0.750)" stroke-width="0.70" font-family="Times" font-size="14.00" font-style="italic">
<text x="694.93" y="45.34" text-anchor="end">Carl Maria Von Weber</text>
</g>
<g transform="scale(0.525)" stroke-width="0.70" font-family="Times" font-size="14.00" font-style="italic">
<defs>
<ellipse id="hd" rx="4.1" ry="2.9"
	transform="rotate(-20)" fill="currentColor"/>
</defs>
<use x="138.47" y="94.16" xlink:href="#hd"/>
<path d="M141.97 94.16v-20.00" stroke="currentColor" fill="none"/>
</g>
<g transform="scale(0.750)" stroke-width="0.70" font-family="Times" font-size="15.00" font-weight="bold">
<text x="104.63" y="68.01">= 120</text>
<path stroke="currentColor" fill="none"
	d="M265.03 106.01v-24.00"/>
<path stroke="currentColor" fill="none"
	d="M408.33 106.01v-24.00"/>
<path stroke="currentColor" fill="none"
	d="M551.63 106.01v-24.00"/>
<path stroke="currentColor" fill="none"
	d="M694.93 106.01v-24.00"/>
<path stroke="currentColor" fill="none"
	d="M13.33 106.01h681.60m-681.60 -6h681.60m-681.60 -6h681.60m-681.60 -6h681.60m-681.60 -6h681.60"/>
<defs>
<path id="utclef" fill="currentColor" d="m-50 -90
	c-72 -41 -72 -158 52 -188
	c150 -10 220 188 90 256
	c-114 52 -275 0 -293 -136
	c-15 -181 93 -229 220 -334
	c88 -87 79 -133 62 -210
	c-51 33 -94 105 -89 186
	c17 267 36 374 49 574
	c6 96 -19 134 -77 135
	c-80 1 -126 -93 -61 -133
	c85 -41 133 101 31 105
	c23 17 92 37 90 -92
	c-10 -223 -39 -342 -50 -617
	c0 -90 0 -162 96 -232
	c56 72 63 230 22 289
	c-74 106 -257 168 -255 316
	c9 153 148 185 252 133
	c86 -65 29 -192 -80 -176
	c-71 12 -105 67 -59 124"/>
<use id="tclef" transform="scale(0.045)"
	xlink:href="#utclef"/>
</defs>
<use x="25.33" y="106.01" xlink:href="#tclef"/>
<defs>
<path id="uflat" fill="currentColor" d="
	m100 -746
	h32
	v734
	l-32 4
	m32 -332
	c46 -72 152 -90 208 -20
	c100 110 -120 326 -208 348
	m0 -28
	c54 0 200 -206 130 -290
	c-50 -60 -130 -4 -130 34"/>
<use id="ft0" transform="translate(-3.5,3.5) scale(0.018)"
	xlink:href="#uflat"/>
</defs>
<use x="40.33" y="94.01" xlink:href="#ft0"/>
<use x="45.83" y="85.01" xlink:href="#ft0"/>
<use x="51.33" y="97.01" xlink:href="#ft0"/>
<use x="56.83" y="88.01" xlink:href="#ft0"/>
<use x="62.33" y="100.01" xlink:href="#ft0"/>
<g font-family="serif" font-size="16" font-weight="bold" font-style="normal"
	transform="translate(78.33,106.01) scale(1.2,1)">
	<text y="-1" text-anchor="middle">4</text>
	<text y="-13" text-anchor="middle">3</text>
</g>
<path fill="currentColor"
	d="M99.53 93.81l56.90 0.00v3.20l-56.90 -0.00"/>
<defs>
<path id="hl" stroke="currentColor" d="m-6 0h12"/>
</defs>
<use x="96.33" y="112.01" xlink:href="#hl"/>
<use x="96.33" y="118.01" xlink:href="#hl"/>
<use x="96.33" y="118.01" xlink:href="#hd"/>
<path d="M99.83 118.01v-23.20" stroke="currentColor" fill="none"/>
<use x="124.43" y="112.01" xlink:href="#hl"/>
<use x="124.43" y="118.01" xlink:href="#hl"/>
<use x="124.43" y="118.01" xlink:href="#hd"/>
<path d="M127.93 118.01v-23.20" stroke="currentColor" fill="none"/>
<use x="152.53" y="112.01" xlink:href="#hl"/>
<use x="152.53" y="118.01" xlink:href="#hl"/>
<use x="152.53" y="118.01" xlink:href="#hd"/>
<path d="M156.03 118.01v-23.20" stroke="currentColor" fill="none"/>
<path fill="currentColor"
	d="M186.93 91.21l56.90 -2.70v3.20l-56.90 2.70"/>
<use x="183.83" y="112.01" xlink:href="#hl"/>
<use x="183.83" y="118.01" xlink:href="#hl"/>
<use x="183.83" y="118.01" xlink:href="#hd"/>
<path d="M187.33 118.01v-25.80" stroke="currentColor" fill="none"/>
<use x="211.93" y="109.01" xlink:href="#hd"/>
<path d="M215.43 109.01v-18.20" stroke="currentColor" fill="none"/>
<use x="240.03" y="109.01" xlink:href="#hd"/>
<path d="M243.53 109.01v-19.60" stroke="currentColor" fill="none"/>
<path fill="currentColor"
	d="M283.83 75.71l56.90 -6.90v3.20l-56.90 6.90"/>
<use x="280.63" y="103.01" xlink:href="#hd"/>
<path d="M284.13 103.01v-26.40" stroke="currentColor" fill="none"/>
<use x="308.73" y="97.01" xlink:href="#hd"/>
<path d="M312.23 97.01v-23.80" stroke="currentColor" fill="none"/>
<use x="336.83" y="88.01" xlink:href="#hd"/>
<path d="M340.33 88.01v-18.20" stroke="currentColor" fill="none"/>
<use x="368.13" y="82.01" xlink:href="#hd"/>
<circle fill="currentColor" cx="376.13" cy="79.01" r="1.2"/>
<path d="M364.63 82.01v20.00" stroke="currentColor" fill="none"/>
<path fill="currentColor"
	d="M420.13 102.51l56.90 5.00v-3.20l-56.90 -5.00"/>
<use x="423.93" y="82.01" xlink:href="#hd"/>
<path d="M420.43 82.01v19.50" stroke="currentColor" fill="none"/>
<use x="452.03" y="85.01" xlink:href="#hd"/>
<path d="M448.53 85.01v19.00" stroke="currentColor" fill="none"/>
<use x="480.13" y="88.01" xlink:href="#hd"/>
<path d="M476.63 88.01v18.50" stroke="currentColor" fill="none"/>
<use x="511.43" y="91.01" xlink:href="#hd"/>
<circle fill="currentColor" cx="519.43" cy="91.01" r="1.2"/>
<path d="M507.93 91.01v20.00" stroke="currentColor" fill="none"/>
<path fill="currentColor"
	d="M563.43 107.51l56.90 -5.00v-3.20l-56.90 5.00"/>
<use x="567.23" y="88.01" xlink:href="#hd"/>
<path d="M563.73 88.01v18.50" stroke="currentColor" fill="none"/>
<use x="595.33" y="85.01" xlink:href="#hd"/>
<path d="M591.83 85.01v19.00" stroke="currentColor" fill="none"/>
<use x="623.43" y="82.01" xlink:href="#hd"/>
<path d="M619.93 82.01v19.50" stroke="currentColor" fill="none"/>
<use x="654.73" y="79.01" xlink:href="#hd"/>
<circle fill="currentColor" cx="662.73" cy="79.01" r="1.2"/>
<path d="M651.23 79.01v20.00" stroke="currentColor" fill="none"/>
<path fill="currentColor"
	d="M371.63 76.01c7.50 -5.38 41.33 -5.38 48.83 -0.00
	l0.00 -0.25c-8.96 -7.13 -39.87 -7.13 -48.83 0.25"/>
</g>
</svg>
