<?xml version="1.0" standalone="no"?>
<!DOCTYPE svg PUBLIC "-//W3C//DTD SVG 1.1//EN"
	"http://www.w3.org/Graphics/SVG/1.1/DTD/svg11.dtd">
<svg xmlns="http://www.w3.org/2000/svg" version="1.1"
	xmlns:xlink="http://www.w3.org/1999/xlink"
	xml:space='preserve' color="black"
	width="7.38in" height="1.43in" viewBox="0 0 531 103">
<title>8099.abc (8099) tune 1</title>
<!-- Creator: abcm2ps-7.8.14 -->
<!-- CreationDate: Mar 13, 2016 18:54 -->
<!-- CommandLine: -qxg 8099.abc -O ../svgs/8099.svg -->
<g transform="scale(0.750)" stroke-width="0.70" font-family="Times" font-size="20.00">
<text x="354.13" y="21.67" text-anchor="middle">8099.  Sonata No. 1 in C, Op. 24, 2nd. Mvt.</text>
</g>
<g transform="scale(0.750)" stroke-width="0.70" font-family="Times" font-size="14.00" font-style="italic">
<text x="694.93" y="45.34" text-anchor="end">Carl Maria Von Weber</text>
</g>
<g transform="scale(0.525)" stroke-width="0.70" font-family="Times" font-size="14.00" font-style="italic">
<defs>
<ellipse id="hd" rx="4.1" ry="2.9"
	transform="rotate(-20)" fill="currentColor"/>
</defs>
<use x="107.04" y="94.16" xlink:href="#hd"/>
<path d="M110.54 94.16v-20.00" stroke="currentColor" fill="none"/>
</g>
<g transform="scale(0.750)" stroke-width="0.70" font-family="Times" font-size="15.00" font-weight="bold">
<text x="82.63" y="68.01">= 120</text>
<path stroke="currentColor" fill="none"
	d="M187.93 114.01v-24.00"/>
<path stroke="currentColor" fill="none"
	d="M428.83 114.01v-24.00"/>
<path stroke="currentColor" fill="none"
	d="M599.83 114.01v-24.00"/>
<path stroke="currentColor" fill="none"
	d="M13.33 114.01h681.60m-681.60 -6h681.60m-681.60 -6h681.60m-681.60 -6h681.60m-681.60 -6h681.60"/>
<defs>
<path id="utclef" fill="currentColor" d="m-50 -90
	c-72 -41 -72 -158 52 -188
	c150 -10 220 188 90 256
	c-114 52 -275 0 -293 -136
	c-15 -181 93 -229 220 -334
	c88 -87 79 -133 62 -210
	c-51 33 -94 105 -89 186
	c17 267 36 374 49 574
	c6 96 -19 134 -77 135
	c-80 1 -126 -93 -61 -133
	c85 -41 133 101 31 105
	c23 17 92 37 90 -92
	c-10 -223 -39 -342 -50 -617
	c0 -90 0 -162 96 -232
	c56 72 63 230 22 289
	c-74 106 -257 168 -255 316
	c9 153 148 185 252 133
	c86 -65 29 -192 -80 -176
	c-71 12 -105 67 -59 124"/>
<use id="tclef" transform="scale(0.045)"
	xlink:href="#utclef"/>
</defs>
<use x="25.33" y="114.01" xlink:href="#tclef"/>
<defs>
<path id="uflat" fill="currentColor" d="
	m100 -746
	h32
	v734
	l-32 4
	m32 -332
	c46 -72 152 -90 208 -20
	c100 110 -120 326 -208 348
	m0 -28
	c54 0 200 -206 130 -290
	c-50 -60 -130 -4 -130 34"/>
<use id="ft0" transform="translate(-3.5,3.5) scale(0.018)"
	xlink:href="#uflat"/>
</defs>
<use x="40.33" y="102.01" xlink:href="#ft0"/>
<g font-family="serif" font-size="16" font-weight="bold" font-style="normal"
	transform="translate(56.33,114.01) scale(1.2,1)">
	<text y="-1" text-anchor="middle">4</text>
	<text y="-13" text-anchor="middle">3</text>
</g>
<defs>
<path id="hl" stroke="currentColor" d="m-6 0h12"/>
</defs>
<use x="74.33" y="84.01" xlink:href="#hl"/>
<use x="74.33" y="78.01" xlink:href="#hl"/>
<use x="74.33" y="78.01" xlink:href="#hd"/>
<path d="M70.83 78.01v24.00" stroke="currentColor" fill="none"/>
<use x="114.93" y="84.01" xlink:href="#hl"/>
<use x="114.93" y="84.01" xlink:href="#hd"/>
<path d="M111.43 84.01v20.00" stroke="currentColor" fill="none"/>
<use x="155.53" y="84.01" xlink:href="#hl"/>
<use x="155.53" y="78.01" xlink:href="#hl"/>
<use x="155.53" y="75.01" xlink:href="#hd"/>
<path d="M152.03 75.01v27.00" stroke="currentColor" fill="none"/>
<path fill="currentColor"
	d="M198.43 126.71l47.30 -2.90v-3.20l-47.30 2.90"/>
<path fill="currentColor"
	d="M198.83 121.71l46.60 -2.80v-3.20l-46.60 2.80"/>
<path fill="currentColor"
	d="M232.53 114.61l12.90 -0.80v-3.20l-12.90 0.80"/>
<use x="202.33" y="87.01" xlink:href="#hd"/>
<circle fill="currentColor" cx="210.33" cy="87.01" r="1.2"/>
<path d="M198.83 87.01v38.70" stroke="currentColor" fill="none"/>
<defs>
<path id="r8e" fill="currentColor" d="m 0 0
	c-1.5 1.5 -2.4 2 -3.6 2
	c2.4 -2.8 -2.8 -4 -2.8 -1.2
	c0 2.7 4.3 2.4 5.9 0.6"/>
<g id="r32">
	<path d="m4.8 -10l-5.5 21.6" stroke="currentColor" fill="none"/>
	<use x="4.9" y="-10" xlink:href="#r8e"/>
	<use x="3.4" y="-4" xlink:href="#r8e"/>
	<use x="1.9" y="2" xlink:href="#r8e"/>
</g>
</defs>
<use x="223.13" y="102.01" xlink:href="#r32"/>
<use x="236.03" y="84.01" xlink:href="#hl"/>
<use x="236.03" y="84.01" xlink:href="#hd"/>
<path d="M232.53 84.01v39.60" stroke="currentColor" fill="none"/>
<use x="248.93" y="84.01" xlink:href="#hl"/>
<use x="248.93" y="84.01" xlink:href="#hd"/>
<path d="M245.43 84.01v38.80" stroke="currentColor" fill="none"/>
<path fill="currentColor"
	d="M259.43 109.01l65.30 0.00v-3.20l-65.30 -0.00"/>
<path fill="currentColor"
	d="M259.83 104.01l64.60 0.00v-3.20l-64.60 -0.00"/>
<path fill="currentColor"
	d="M259.83 99.01l64.60 0.00v-3.20l-64.60 -0.00"/>
<use x="263.33" y="84.01" xlink:href="#hl"/>
<use x="263.33" y="81.01" xlink:href="#hd"/>
<path d="M259.83 81.01v27.00" stroke="currentColor" fill="none"/>
<use x="276.23" y="84.01" xlink:href="#hl"/>
<use x="276.23" y="84.01" xlink:href="#hd"/>
<path d="M272.73 84.01v24.00" stroke="currentColor" fill="none"/>
<use x="289.13" y="84.01" xlink:href="#hl"/>
<use x="289.13" y="81.01" xlink:href="#hd"/>
<path d="M285.63 81.01v27.00" stroke="currentColor" fill="none"/>
<use x="302.03" y="84.01" xlink:href="#hl"/>
<use x="302.03" y="84.01" xlink:href="#hd"/>
<path d="M298.53 84.01v24.00" stroke="currentColor" fill="none"/>
<use x="314.93" y="84.01" xlink:href="#hl"/>
<use x="314.93" y="81.01" xlink:href="#hd"/>
<path d="M311.43 81.01v27.00" stroke="currentColor" fill="none"/>
<use x="327.93" y="84.01" xlink:href="#hl"/>
<use x="327.93" y="84.01" xlink:href="#hd"/>
<path d="M324.43 84.01v24.00" stroke="currentColor" fill="none"/>
<path fill="currentColor"
	d="M338.43 126.21l68.80 0.00v-3.20l-68.80 -0.00"/>
<path fill="currentColor"
	d="M344.73 121.21l-6.00 -0.00v-3.20l6.00 0.00"/>
<path fill="currentColor"
	d="M393.93 121.21l12.90 0.00v-3.20l-12.90 -0.00"/>
<path fill="currentColor"
	d="M344.73 116.21l-6.00 -0.00v-3.20l6.00 0.00"/>
<path fill="currentColor"
	d="M399.93 116.21l-6.00 -0.00v-3.20l6.00 0.00"/>
<use x="342.23" y="84.01" xlink:href="#hl"/>
<use x="342.23" y="81.01" xlink:href="#hd"/>
<path d="M338.73 81.01v44.20" stroke="currentColor" fill="none"/>
<use x="355.13" y="102.01" xlink:href="#r32"/>
<use x="368.03" y="84.01" xlink:href="#hl"/>
<use x="368.03" y="81.01" xlink:href="#hd"/>
<circle fill="currentColor" cx="376.03" cy="81.01" r="1.2"/>
<path d="M364.53 81.01v44.20" stroke="currentColor" fill="none"/>
<use x="397.43" y="84.01" xlink:href="#hl"/>
<use x="397.43" y="81.01" xlink:href="#hd"/>
<path d="M393.93 81.01v44.20" stroke="currentColor" fill="none"/>
<use x="410.43" y="84.01" xlink:href="#hl"/>
<use x="410.43" y="78.01" xlink:href="#hl"/>
<use x="410.43" y="78.01" xlink:href="#hd"/>
<circle fill="currentColor" cx="418.43" cy="75.01" r="1.2"/>
<path d="M406.93 78.01v47.20" stroke="currentColor" fill="none"/>
<path fill="currentColor"
	d="M439.43 114.21l138.80 0.00v-3.20l-138.80 -0.00"/>
<path fill="currentColor"
	d="M471.53 109.21l-6.00 -0.00v-3.20l6.00 0.00"/>
<path fill="currentColor"
	d="M501.93 109.21l6.00 0.00v-3.20l-6.00 -0.00"/>
<path fill="currentColor"
	d="M571.83 109.21l6.00 0.00v-3.20l-6.00 -0.00"/>
<path fill="currentColor"
	d="M471.53 104.21l-6.00 -0.00v-3.20l6.00 0.00"/>
<use x="443.23" y="84.01" xlink:href="#hl"/>
<use x="443.23" y="78.01" xlink:href="#hl"/>
<use x="443.23" y="78.01" xlink:href="#hd"/>
<path d="M439.73 78.01v35.20" stroke="currentColor" fill="none"/>
<use x="469.03" y="84.01" xlink:href="#hl"/>
<use x="469.03" y="78.01" xlink:href="#hl"/>
<use x="469.03" y="78.01" xlink:href="#hd"/>
<path d="M465.53 78.01v35.20" stroke="currentColor" fill="none"/>
<use x="482.03" y="90.01" xlink:href="#hd"/>
<circle fill="currentColor" cx="490.03" cy="87.01" r="1.2"/>
<path d="M478.53 90.01v23.20" stroke="currentColor" fill="none"/>
<use x="511.43" y="87.01" xlink:href="#hd"/>
<path d="M507.93 87.01v26.20" stroke="currentColor" fill="none"/>
<use x="529.63" y="84.01" xlink:href="#hl"/>
<use x="529.63" y="84.01" xlink:href="#hd"/>
<path d="M526.13 84.01v29.20" stroke="currentColor" fill="none"/>
<use x="555.53" y="87.01" xlink:href="#hd"/>
<path d="M552.03 87.01v26.20" stroke="currentColor" fill="none"/>
<use x="581.33" y="90.01" xlink:href="#hd"/>
<circle fill="currentColor" cx="589.33" cy="87.01" r="1.2"/>
<path d="M577.83 90.01v23.20" stroke="currentColor" fill="none"/>
<path fill="currentColor"
	d="M610.33 115.01l26.50 0.00v-3.20l-26.50 -0.00"/>
<path fill="currentColor"
	d="M630.53 110.01l6.00 0.00v-3.20l-6.00 -0.00"/>
<path fill="currentColor"
	d="M630.53 105.01l6.00 0.00v-3.20l-6.00 -0.00"/>
<use x="614.13" y="90.01" xlink:href="#hd"/>
<path d="M610.63 90.01v24.00" stroke="currentColor" fill="none"/>
<use x="640.03" y="90.01" xlink:href="#hd"/>
<path d="M636.53 90.01v24.00" stroke="currentColor" fill="none"/>
<use x="654.33" y="99.01" xlink:href="#hd"/>
<path d="M650.83 99.01v20.00" stroke="currentColor" fill="none"/>
<path fill="currentColor"
	d="M371.53 79.01c3.53 -4.90 18.87 -4.90 22.40 -0.00
	l0.00 -0.22c-4.20 -6.68 -18.20 -6.68 -22.40 0.22"/>
<path fill="currentColor"
	d="M413.93 72.01c4.07 -4.96 21.76 -4.96 25.83 -0.00
	l0.00 -0.23c-4.84 -6.74 -20.99 -6.74 -25.83 0.23"/>
<path fill="currentColor"
	d="M446.73 78.01c2.97 -4.84 15.87 -4.84 18.84 -0.00
	l0.00 -0.22c-3.53 -6.62 -15.31 -6.62 -18.84 0.22"/>
<path fill="currentColor"
	d="M584.83 84.01c4.07 -4.96 21.76 -4.96 25.83 -0.00
	l0.00 -0.23c-4.84 -6.74 -20.99 -6.74 -25.83 0.23"/>
<path fill="currentColor"
	d="M617.63 90.01c2.97 -4.84 15.87 -4.84 18.84 -0.00
	l0.00 -0.22c-3.53 -6.62 -15.31 -6.62 -18.84 0.22"/>
</g>
</svg>
