<?xml version="1.0" standalone="no"?>
<!DOCTYPE svg PUBLIC "-//W3C//DTD SVG 1.1//EN"
	"http://www.w3.org/Graphics/SVG/1.1/DTD/svg11.dtd">
<svg xmlns="http://www.w3.org/2000/svg" version="1.1"
	xmlns:xlink="http://www.w3.org/1999/xlink"
	xml:space='preserve' color="black"
	width="7.38in" height="1.40in" viewBox="0 0 531 101">
<title>8119.abc (8119) tune 1</title>
<!-- Creator: abcm2ps-7.8.14 -->
<!-- CreationDate: Mar 13, 2016 18:54 -->
<!-- CommandLine: -qxg 8119.abc -O ../svgs/8119.svg -->
<g transform="scale(0.750)" stroke-width="0.70" font-family="Times" font-size="20.00">
<text x="354.13" y="21.67" text-anchor="middle">8119.  Under the Spreading Chestnut Tree, (Variations and Fugue on an old English tune), 1st. Theme, Theme for Variations</text>
</g>
<g transform="scale(0.750)" stroke-width="0.70" font-family="Times" font-size="14.00" font-style="italic">
<text x="694.93" y="45.34" text-anchor="end">Jaromir Weinberger</text>
</g>
<g transform="scale(0.525)" stroke-width="0.70" font-family="Times" font-size="14.00" font-style="italic">
<defs>
<ellipse id="hd" rx="4.1" ry="2.9"
	transform="rotate(-20)" fill="currentColor"/>
</defs>
<use x="107.04" y="94.16" xlink:href="#hd"/>
<path d="M110.54 94.16v-20.00" stroke="currentColor" fill="none"/>
</g>
<g transform="scale(0.750)" stroke-width="0.70" font-family="Times" font-size="15.00" font-weight="bold">
<text x="82.63" y="68.01">= 120</text>
<path stroke="currentColor" fill="none"
	d="M149.43 111.01v-24.00"/>
<path stroke="currentColor" fill="none"
	d="M227.53 111.01v-24.00"/>
<path stroke="currentColor" fill="none"
	d="M306.93 111.01v-24.00"/>
<path stroke="currentColor" fill="none"
	d="M385.43 111.01v-24.00"/>
<path stroke="currentColor" fill="none"
	d="M464.83 111.01v-24.00"/>
<path stroke="currentColor" fill="none"
	d="M543.33 111.01v-24.00"/>
<path stroke="currentColor" fill="none"
	d="M630.93 111.01v-24.00"/>
<path stroke="currentColor" fill="none"
	d="M13.33 111.01h681.60m-681.60 -6h681.60m-681.60 -6h681.60m-681.60 -6h681.60m-681.60 -6h681.60"/>
<defs>
<path id="utclef" fill="currentColor" d="m-50 -90
	c-72 -41 -72 -158 52 -188
	c150 -10 220 188 90 256
	c-114 52 -275 0 -293 -136
	c-15 -181 93 -229 220 -334
	c88 -87 79 -133 62 -210
	c-51 33 -94 105 -89 186
	c17 267 36 374 49 574
	c6 96 -19 134 -77 135
	c-80 1 -126 -93 -61 -133
	c85 -41 133 101 31 105
	c23 17 92 37 90 -92
	c-10 -223 -39 -342 -50 -617
	c0 -90 0 -162 96 -232
	c56 72 63 230 22 289
	c-74 106 -257 168 -255 316
	c9 153 148 185 252 133
	c86 -65 29 -192 -80 -176
	c-71 12 -105 67 -59 124"/>
<use id="tclef" transform="scale(0.045)"
	xlink:href="#utclef"/>
</defs>
<use x="25.33" y="111.01" xlink:href="#tclef"/>
<defs>
<path id="usharp" fill="currentColor" d="
	m136 -702
	v890
	h32
	v-890
	m128 840
	h32
	v-888
	h-32
	m-232 286
	v116
	l338 -96
	v-116
	m-338 442
	v116
	l338 -98
	v-114"/>
<use id="sh0" transform="translate(-4,5) scale(0.018)"
	xlink:href="#usharp"/>
</defs>
<use x="40.33" y="87.01" xlink:href="#sh0"/>
<g font-family="serif" font-size="16" font-weight="bold" font-style="normal"
	transform="translate(56.33,111.01) scale(1.2,1)">
	<text y="-1" text-anchor="middle">4</text>
	<text y="-13" text-anchor="middle">4</text>
</g>
<use x="74.33" y="84.01" xlink:href="#hd"/>
<path d="M70.83 84.01v20.00" stroke="currentColor" fill="none"/>
<use x="91.53" y="84.01" xlink:href="#hd"/>
<path d="M88.03 84.01v20.00" stroke="currentColor" fill="none"/>
<path fill="currentColor"
	d="M88.03 104.01c0.6 -5.6 9.6 -9 5.6 -18.4
	c1.6 6 -1.3 11.6 -5.6 12.8
"/>
<defs>
<path id="hl" stroke="currentColor" d="m-6 0h12"/>
</defs>
<use x="104.53" y="81.01" xlink:href="#hl"/>
<use x="104.53" y="81.01" xlink:href="#hd"/>
<path d="M101.03 81.01v20.00" stroke="currentColor" fill="none"/>
<path fill="currentColor"
	d="M101.03 101.01c0.6 -5.6 9.6 -9 5.6 -18.4
	c1.6 6 -1.3 11.6 -5.6 12.8
"/>
<use x="117.83" y="81.01" xlink:href="#hl"/>
<use x="117.83" y="78.01" xlink:href="#hd"/>
<path d="M114.33 78.01v21.00" stroke="currentColor" fill="none"/>
<path fill="currentColor"
	d="M114.33 99.01c0.6 -5.6 9.6 -9 5.6 -18.4
	c1.6 6 -1.3 11.6 -5.6 12.8
"/>
<use x="131.23" y="81.01" xlink:href="#hl"/>
<use x="131.23" y="75.01" xlink:href="#hl"/>
<use x="131.23" y="72.01" xlink:href="#hd"/>
<circle fill="currentColor" cx="139.23" cy="72.01" r="1.2"/>
<path d="M127.73 72.01v27.00" stroke="currentColor" fill="none"/>
<use x="161.93" y="81.01" xlink:href="#hl"/>
<use x="161.93" y="78.01" xlink:href="#hd"/>
<path d="M158.43 78.01v21.00" stroke="currentColor" fill="none"/>
<use x="179.53" y="81.01" xlink:href="#hl"/>
<use x="179.53" y="81.01" xlink:href="#hd"/>
<path d="M176.03 81.01v20.00" stroke="currentColor" fill="none"/>
<use x="196.83" y="84.01" xlink:href="#hd"/>
<circle fill="currentColor" cx="204.83" cy="84.01" r="1.2"/>
<path d="M193.33 84.01v20.00" stroke="currentColor" fill="none"/>
<defs>
<path id="r8e" fill="currentColor" d="m 0 0
	c-1.5 1.5 -2.4 2 -3.6 2
	c2.4 -2.8 -2.8 -4 -2.8 -1.2
	c0 2.7 4.3 2.4 5.9 0.6"/>
<g id="r8">
	<path d="m3.3 -4l-3.4 9.6" stroke="currentColor" fill="none"/>
	<use x="3.4" y="-4" xlink:href="#r8e"/>
</g>
</defs>
<use x="216.53" y="99.01" xlink:href="#r8"/>
<use x="240.03" y="81.01" xlink:href="#hl"/>
<use x="240.03" y="81.01" xlink:href="#hd"/>
<path d="M236.53 81.01v20.00" stroke="currentColor" fill="none"/>
<use x="257.63" y="81.01" xlink:href="#hl"/>
<use x="257.63" y="78.01" xlink:href="#hd"/>
<path d="M254.13 78.01v21.00" stroke="currentColor" fill="none"/>
<use x="275.33" y="81.01" xlink:href="#hl"/>
<use x="275.33" y="75.01" xlink:href="#hl"/>
<use x="275.33" y="75.01" xlink:href="#hd"/>
<path d="M271.83 75.01v24.00" stroke="currentColor" fill="none"/>
<path fill="currentColor"
	d="M271.83 99.01c0.6 -5.6 9.6 -9 5.6 -18.4
	c1.6 6 -1.3 11.6 -5.6 12.8
"/>
<use x="288.73" y="81.01" xlink:href="#hl"/>
<use x="288.73" y="75.01" xlink:href="#hl"/>
<use x="288.73" y="69.01" xlink:href="#hl"/>
<use x="288.73" y="69.01" xlink:href="#hd"/>
<circle fill="currentColor" cx="296.73" cy="66.01" r="1.2"/>
<path d="M285.23 69.01v30.00" stroke="currentColor" fill="none"/>
<use x="319.43" y="81.01" xlink:href="#hl"/>
<use x="319.43" y="75.01" xlink:href="#hl"/>
<use x="319.43" y="75.01" xlink:href="#hd"/>
<path d="M315.93 75.01v24.00" stroke="currentColor" fill="none"/>
<use x="337.03" y="81.01" xlink:href="#hl"/>
<use x="337.03" y="78.01" xlink:href="#hd"/>
<path d="M333.53 78.01v21.00" stroke="currentColor" fill="none"/>
<use x="354.73" y="81.01" xlink:href="#hl"/>
<use x="354.73" y="81.01" xlink:href="#hd"/>
<circle fill="currentColor" cx="362.73" cy="78.01" r="1.2"/>
<path d="M351.23 81.01v20.00" stroke="currentColor" fill="none"/>
<use x="374.43" y="99.01" xlink:href="#r8"/>
<use x="397.93" y="81.01" xlink:href="#hl"/>
<use x="397.93" y="75.01" xlink:href="#hl"/>
<use x="397.93" y="69.01" xlink:href="#hl"/>
<use x="397.93" y="63.01" xlink:href="#hl"/>
<use x="397.93" y="63.01" xlink:href="#hd"/>
<path d="M394.43 63.01v36.00" stroke="currentColor" fill="none"/>
<use x="415.53" y="81.01" xlink:href="#hl"/>
<use x="415.53" y="75.01" xlink:href="#hl"/>
<use x="415.53" y="69.01" xlink:href="#hl"/>
<use x="415.53" y="63.01" xlink:href="#hl"/>
<use x="415.53" y="63.01" xlink:href="#hd"/>
<path d="M412.03 63.01v36.00" stroke="currentColor" fill="none"/>
<use x="433.23" y="81.01" xlink:href="#hl"/>
<use x="433.23" y="75.01" xlink:href="#hl"/>
<use x="433.23" y="69.01" xlink:href="#hl"/>
<use x="433.23" y="66.01" xlink:href="#hd"/>
<path d="M429.73 66.01v33.00" stroke="currentColor" fill="none"/>
<path fill="currentColor"
	d="M429.73 99.01c0.6 -5.6 9.6 -9 5.6 -18.4
	c1.6 6 -1.3 11.6 -5.6 12.8
"/>
<use x="446.53" y="81.01" xlink:href="#hl"/>
<use x="446.53" y="75.01" xlink:href="#hl"/>
<use x="446.53" y="72.01" xlink:href="#hd"/>
<circle fill="currentColor" cx="454.53" cy="72.01" r="1.2"/>
<path d="M443.03 72.01v27.00" stroke="currentColor" fill="none"/>
<use x="477.33" y="81.01" xlink:href="#hl"/>
<use x="477.33" y="75.01" xlink:href="#hl"/>
<use x="477.33" y="69.01" xlink:href="#hl"/>
<use x="477.33" y="69.01" xlink:href="#hd"/>
<path d="M473.83 69.01v30.00" stroke="currentColor" fill="none"/>
<use x="494.93" y="81.01" xlink:href="#hl"/>
<use x="494.93" y="75.01" xlink:href="#hl"/>
<use x="494.93" y="69.01" xlink:href="#hl"/>
<use x="494.93" y="69.01" xlink:href="#hd"/>
<path d="M491.43 69.01v30.00" stroke="currentColor" fill="none"/>
<use x="512.53" y="81.01" xlink:href="#hl"/>
<use x="512.53" y="75.01" xlink:href="#hl"/>
<use x="512.53" y="72.01" xlink:href="#hd"/>
<circle fill="currentColor" cx="520.53" cy="72.01" r="1.2"/>
<path d="M509.03 72.01v27.00" stroke="currentColor" fill="none"/>
<use x="532.33" y="99.01" xlink:href="#r8"/>
<use x="555.83" y="84.01" xlink:href="#hd"/>
<path d="M552.33 84.01v20.00" stroke="currentColor" fill="none"/>
<use x="573.03" y="84.01" xlink:href="#hd"/>
<path d="M569.53 84.01v20.00" stroke="currentColor" fill="none"/>
<path fill="currentColor"
	d="M569.53 104.01c0.6 -5.6 9.6 -9 5.6 -18.4
	c1.6 6 -1.3 11.6 -5.6 12.8
"/>
<use x="585.93" y="81.01" xlink:href="#hl"/>
<use x="585.93" y="81.01" xlink:href="#hd"/>
<path d="M582.43 81.01v20.00" stroke="currentColor" fill="none"/>
<path fill="currentColor"
	d="M582.43 101.01c0.6 -5.6 9.6 -9 5.6 -18.4
	c1.6 6 -1.3 11.6 -5.6 12.8
"/>
<use x="599.33" y="81.01" xlink:href="#hl"/>
<use x="599.33" y="78.01" xlink:href="#hd"/>
<path d="M595.83 78.01v21.00" stroke="currentColor" fill="none"/>
<path fill="currentColor"
	d="M595.83 99.01c0.6 -5.6 9.6 -9 5.6 -18.4
	c1.6 6 -1.3 11.6 -5.6 12.8
"/>
<use x="612.73" y="81.01" xlink:href="#hl"/>
<use x="612.73" y="75.01" xlink:href="#hl"/>
<use x="612.73" y="72.01" xlink:href="#hd"/>
<circle fill="currentColor" cx="620.73" cy="72.01" r="1.2"/>
<path d="M609.23 72.01v27.00" stroke="currentColor" fill="none"/>
<use x="643.43" y="81.01" xlink:href="#hl"/>
<use x="643.43" y="78.01" xlink:href="#hd"/>
<path d="M639.93 78.01v21.00" stroke="currentColor" fill="none"/>
<use x="661.03" y="81.01" xlink:href="#hl"/>
<use x="661.03" y="81.01" xlink:href="#hd"/>
<path d="M657.53 81.01v20.00" stroke="currentColor" fill="none"/>
<use x="678.23" y="84.01" xlink:href="#hd"/>
<circle fill="currentColor" cx="686.23" cy="84.01" r="1.2"/>
<path d="M674.73 84.01v20.00" stroke="currentColor" fill="none"/>
</g>
</svg>
