<?xml version="1.0" standalone="no"?>
<!DOCTYPE svg PUBLIC "-//W3C//DTD SVG 1.1//EN"
	"http://www.w3.org/Graphics/SVG/1.1/DTD/svg11.dtd">
<svg xmlns="http://www.w3.org/2000/svg" version="1.1"
	xmlns:xlink="http://www.w3.org/1999/xlink"
	xml:space='preserve' color="black"
	width="7.38in" height="1.70in" viewBox="0 0 531 122">
<title>8200.abc (8200) tune 1</title>
<!-- Creator: abcm2ps-7.8.14 -->
<!-- CreationDate: Mar 13, 2016 18:54 -->
<!-- CommandLine: -qxg 8200.abc -O ../svgs/8200.svg -->
<g transform="scale(0.750)" stroke-width="0.70" font-family="Times" font-size="20.00">
<text x="354.13" y="21.67" text-anchor="middle">8200.  Romeo and Juliet, Overture, Op. 17, 2nd. Mvt., Fete at the Capulets - 2nd. Theme</text>
</g>
<g transform="scale(0.750)" stroke-width="0.70" font-family="Times" font-size="14.00" font-style="italic">
<text x="694.93" y="45.34" text-anchor="end">Hector Berlioz</text>
</g>
<g transform="scale(0.525)" stroke-width="0.70" font-family="Times" font-size="14.00" font-style="italic">
<defs>
<ellipse id="hd" rx="4.1" ry="2.9"
	transform="rotate(-20)" fill="currentColor"/>
</defs>
<use x="107.04" y="94.16" xlink:href="#hd"/>
<path d="M110.54 94.16v-20.00" stroke="currentColor" fill="none"/>
</g>
<g transform="scale(0.750)" stroke-width="0.70" font-family="Times" font-size="15.00" font-weight="bold">
<text x="82.63" y="68.01">= 120</text>
<path stroke="currentColor" fill="none"
	d="M238.13 140.01v-24.00"/>
<path stroke="currentColor" fill="none"
	d="M366.43 140.01v-24.00"/>
<path stroke="currentColor" fill="none"
	d="M557.43 140.01v-24.00"/>
<path stroke="currentColor" fill="none"
	d="M13.33 140.01h681.60m-681.60 -6h681.60m-681.60 -6h681.60m-681.60 -6h681.60m-681.60 -6h681.60"/>
<text font-family="serif" font-size="12" font-style="italic" font-weight="normal"
	x="393.83" y="145.01" text-anchor="middle">3</text>
<text font-family="serif" font-size="12" font-style="italic" font-weight="normal"
	x="445.63" y="145.01" text-anchor="middle">3</text>
<defs>
<path id="utclef" fill="currentColor" d="m-50 -90
	c-72 -41 -72 -158 52 -188
	c150 -10 220 188 90 256
	c-114 52 -275 0 -293 -136
	c-15 -181 93 -229 220 -334
	c88 -87 79 -133 62 -210
	c-51 33 -94 105 -89 186
	c17 267 36 374 49 574
	c6 96 -19 134 -77 135
	c-80 1 -126 -93 -61 -133
	c85 -41 133 101 31 105
	c23 17 92 37 90 -92
	c-10 -223 -39 -342 -50 -617
	c0 -90 0 -162 96 -232
	c56 72 63 230 22 289
	c-74 106 -257 168 -255 316
	c9 153 148 185 252 133
	c86 -65 29 -192 -80 -176
	c-71 12 -105 67 -59 124"/>
<use id="tclef" transform="scale(0.045)"
	xlink:href="#utclef"/>
</defs>
<use x="25.33" y="140.01" xlink:href="#tclef"/>
<defs>
<path id="uflat" fill="currentColor" d="
	m100 -746
	h32
	v734
	l-32 4
	m32 -332
	c46 -72 152 -90 208 -20
	c100 110 -120 326 -208 348
	m0 -28
	c54 0 200 -206 130 -290
	c-50 -60 -130 -4 -130 34"/>
<use id="ft0" transform="translate(-3.5,3.5) scale(0.018)"
	xlink:href="#uflat"/>
</defs>
<use x="40.33" y="128.01" xlink:href="#ft0"/>
<g font-family="serif" font-size="16" font-weight="bold" font-style="normal"
	transform="translate(56.33,140.01) scale(1.2,1)">
	<text y="-1" text-anchor="middle">2</text>
	<text y="-13" text-anchor="middle">2</text>
</g>
<defs>
<path id="r8e" fill="currentColor" d="m 0 0
	c-1.5 1.5 -2.4 2 -3.6 2
	c2.4 -2.8 -2.8 -4 -2.8 -1.2
	c0 2.7 4.3 2.4 5.9 0.6"/>
<g id="r32">
	<path d="m4.8 -10l-5.5 21.6" stroke="currentColor" fill="none"/>
	<use x="4.9" y="-10" xlink:href="#r8e"/>
	<use x="3.4" y="-4" xlink:href="#r8e"/>
	<use x="1.9" y="2" xlink:href="#r8e"/>
</g>
</defs>
<use x="74.33" y="128.01" xlink:href="#r32"/>
<path fill="currentColor"
	d="M82.23 128.21l32.70 0.00v-3.20l-32.70 -0.00"/>
<path fill="currentColor"
	d="M103.93 123.21l10.70 0.00v-3.20l-10.70 -0.00"/>
<path fill="currentColor"
	d="M109.93 118.21l-6.00 -0.00v-3.20l6.00 0.00"/>
<defs>
<path id="hl" stroke="currentColor" d="m-6 0h12"/>
</defs>
<use x="86.13" y="110.01" xlink:href="#hl"/>
<use x="86.13" y="104.01" xlink:href="#hl"/>
<use x="86.13" y="98.01" xlink:href="#hl"/>
<use x="86.13" y="92.01" xlink:href="#hl"/>
<use x="86.13" y="86.01" xlink:href="#hl"/>
<use x="86.13" y="83.01" xlink:href="#hd"/>
<path d="M82.63 83.01v44.20" stroke="currentColor" fill="none"/>
<use x="107.43" y="110.01" xlink:href="#hl"/>
<use x="107.43" y="104.01" xlink:href="#hl"/>
<use x="107.43" y="98.01" xlink:href="#hl"/>
<use x="107.43" y="92.01" xlink:href="#hl"/>
<use x="107.43" y="86.01" xlink:href="#hl"/>
<use x="107.43" y="83.01" xlink:href="#hd"/>
<path d="M103.93 83.01v44.20" stroke="currentColor" fill="none"/>
<use x="118.13" y="110.01" xlink:href="#hl"/>
<use x="118.13" y="104.01" xlink:href="#hl"/>
<use x="118.13" y="98.01" xlink:href="#hl"/>
<use x="118.13" y="92.01" xlink:href="#hl"/>
<use x="118.13" y="86.01" xlink:href="#hl"/>
<use x="118.13" y="83.01" xlink:href="#hd"/>
<path d="M114.63 83.01v44.20" stroke="currentColor" fill="none"/>
<use x="134.63" y="110.01" xlink:href="#hl"/>
<use x="134.63" y="104.01" xlink:href="#hl"/>
<use x="134.63" y="98.01" xlink:href="#hl"/>
<use x="134.63" y="92.01" xlink:href="#hl"/>
<use x="134.63" y="86.01" xlink:href="#hl"/>
<use x="134.63" y="83.01" xlink:href="#hd"/>
<circle fill="currentColor" cx="142.63" cy="83.01" r="1.2"/>
<path d="M131.13 83.01v45.00" stroke="currentColor" fill="none"/>
<use x="172.33" y="110.01" xlink:href="#hl"/>
<use x="172.33" y="104.01" xlink:href="#hl"/>
<use x="172.33" y="98.01" xlink:href="#hl"/>
<use x="172.33" y="92.01" xlink:href="#hl"/>
<use x="172.33" y="86.01" xlink:href="#hl"/>
<use x="172.33" y="86.01" xlink:href="#hd"/>
<defs>
<path id="unat" fill="currentColor" d="
	m96 -750
	h-32
	v716
	l32 -8
	l182 -54
	v282
	h32
	v-706
	l-34 10
	l-180 50
	v-290
	m0 592
	v-190
	l182 -52
	v188"/>
<use id="nt0" transform="translate(-3,5) scale(0.018)"
	xlink:href="#unat"/>
</defs>
<use x="163.33" y="86.01" xlink:href="#nt0"/>
<path d="M168.83 86.01v42.00" stroke="currentColor" fill="none"/>
<path fill="currentColor"
	d="M168.83 128.01c0.6 -5.6 9.6 -9 5.6 -18.4
	c1.6 6 -1.3 11.6 -5.6 12.8
"/>
<use x="195.93" y="110.01" xlink:href="#hl"/>
<use x="195.93" y="104.01" xlink:href="#hl"/>
<use x="195.93" y="98.01" xlink:href="#hl"/>
<use x="195.93" y="92.01" xlink:href="#hl"/>
<use x="195.93" y="86.01" xlink:href="#hl"/>
<use x="195.93" y="86.01" xlink:href="#hd"/>
<use x="186.93" y="86.01" xlink:href="#nt0"/>
<path d="M192.43 86.01v42.00" stroke="currentColor" fill="none"/>
<path fill="currentColor"
	d="M192.43 128.01c0.6 -5.6 9.6 -9 5.6 -18.4
	c1.6 6 -1.3 11.6 -5.6 12.8
"/>
<use x="219.43" y="110.01" xlink:href="#hl"/>
<use x="219.43" y="104.01" xlink:href="#hl"/>
<use x="219.43" y="98.01" xlink:href="#hl"/>
<use x="219.43" y="92.01" xlink:href="#hl"/>
<use x="219.43" y="86.01" xlink:href="#hl"/>
<use x="219.43" y="86.01" xlink:href="#hd"/>
<use x="210.43" y="86.01" xlink:href="#ft0"/>
<path d="M215.93 86.01v42.00" stroke="currentColor" fill="none"/>
<path fill="currentColor"
	d="M215.93 128.01c0.6 -5.6 9.6 -9 5.6 -18.4
	c1.6 6 -1.3 11.6 -5.6 12.8
"/>
<use x="250.63" y="110.01" xlink:href="#hl"/>
<use x="250.63" y="104.01" xlink:href="#hl"/>
<use x="250.63" y="98.01" xlink:href="#hl"/>
<use x="250.63" y="92.01" xlink:href="#hl"/>
<use x="250.63" y="86.01" xlink:href="#hl"/>
<use x="250.63" y="86.01" xlink:href="#hd"/>
<path d="M247.13 86.01v42.00" stroke="currentColor" fill="none"/>
<path fill="currentColor"
	d="M247.13 128.01c0.6 -5.6 9.6 -9 5.6 -18.4
	c1.6 6 -1.3 11.6 -5.6 12.8
"/>
<use x="273.83" y="110.01" xlink:href="#hl"/>
<use x="273.83" y="104.01" xlink:href="#hl"/>
<use x="273.83" y="98.01" xlink:href="#hl"/>
<use x="273.83" y="92.01" xlink:href="#hl"/>
<use x="273.83" y="89.01" xlink:href="#hd"/>
<path d="M270.33 89.01v39.00" stroke="currentColor" fill="none"/>
<path fill="currentColor"
	d="M270.33 128.01c0.6 -5.6 9.6 -9 5.6 -18.4
	c1.6 6 -1.3 11.6 -5.6 12.8
"/>
<use x="297.03" y="110.01" xlink:href="#hl"/>
<use x="297.03" y="104.01" xlink:href="#hl"/>
<use x="297.03" y="98.01" xlink:href="#hl"/>
<use x="297.03" y="92.01" xlink:href="#hl"/>
<use x="297.03" y="92.01" xlink:href="#hd"/>
<path d="M293.53 92.01v36.00" stroke="currentColor" fill="none"/>
<use x="329.63" y="110.01" xlink:href="#hl"/>
<use x="329.63" y="104.01" xlink:href="#hl"/>
<use x="329.63" y="98.01" xlink:href="#hl"/>
<defs>
<path id="Hd" fill="currentColor" d="m3 -1.6
	c-1 -1.8 -7 1.4 -6 3.2
	c1 1.8 7 -1.4 6 -3.2
	m0.5 -0.3
	c2 3.8 -5 7.6 -7 3.8
	c-2 -3.8 5 -7.6 7 -3.8"/>
</defs>
<use x="329.63" y="95.01" xlink:href="#Hd"/>
<path d="M326.13 95.01v33.00" stroke="currentColor" fill="none"/>
<path fill="currentColor"
	d="M375.13 128.21l33.50 0.00v-3.20l-33.50 -0.00"/>
<use x="378.93" y="110.01" xlink:href="#hl"/>
<use x="378.93" y="104.01" xlink:href="#hl"/>
<use x="378.93" y="98.01" xlink:href="#hl"/>
<use x="378.93" y="92.01" xlink:href="#hl"/>
<use x="378.93" y="89.01" xlink:href="#hd"/>
<path d="M375.43 89.01v38.20" stroke="currentColor" fill="none"/>
<use x="395.43" y="110.01" xlink:href="#hl"/>
<use x="395.43" y="104.01" xlink:href="#hl"/>
<use x="395.43" y="98.01" xlink:href="#hl"/>
<use x="395.43" y="92.01" xlink:href="#hl"/>
<use x="395.43" y="92.01" xlink:href="#hd"/>
<path d="M391.93 92.01v35.20" stroke="currentColor" fill="none"/>
<use x="411.83" y="110.01" xlink:href="#hl"/>
<use x="411.83" y="104.01" xlink:href="#hl"/>
<use x="411.83" y="98.01" xlink:href="#hl"/>
<use x="411.83" y="95.01" xlink:href="#hd"/>
<path d="M408.33 95.01v32.20" stroke="currentColor" fill="none"/>
<path fill="currentColor"
	d="M426.23 128.21l35.10 0.00v-3.20l-35.10 -0.00"/>
<use x="430.03" y="110.01" xlink:href="#hl"/>
<use x="430.03" y="104.01" xlink:href="#hl"/>
<use x="430.03" y="98.01" xlink:href="#hl"/>
<use x="430.03" y="95.01" xlink:href="#hd"/>
<path d="M426.53 95.01v32.20" stroke="currentColor" fill="none"/>
<use x="446.43" y="110.01" xlink:href="#hl"/>
<use x="446.43" y="104.01" xlink:href="#hl"/>
<use x="446.43" y="98.01" xlink:href="#hl"/>
<use x="446.43" y="98.01" xlink:href="#hd"/>
<path d="M442.93 98.01v29.20" stroke="currentColor" fill="none"/>
<use x="464.43" y="110.01" xlink:href="#hl"/>
<use x="464.43" y="104.01" xlink:href="#hl"/>
<use x="464.43" y="98.01" xlink:href="#hl"/>
<use x="464.43" y="98.01" xlink:href="#hd"/>
<use x="455.43" y="98.01" xlink:href="#ft0"/>
<path d="M460.93 98.01v29.20" stroke="currentColor" fill="none"/>
<use x="483.03" y="110.01" xlink:href="#hl"/>
<use x="483.03" y="104.01" xlink:href="#hl"/>
<use x="483.03" y="98.01" xlink:href="#hl"/>
<use x="483.03" y="98.01" xlink:href="#hd"/>
<use x="474.03" y="98.01" xlink:href="#nt0"/>
<path d="M479.53 98.01v30.00" stroke="currentColor" fill="none"/>
<use x="515.63" y="110.01" xlink:href="#hl"/>
<use x="515.63" y="104.01" xlink:href="#hl"/>
<use x="515.63" y="104.01" xlink:href="#hd"/>
<path d="M512.13 104.01v24.00" stroke="currentColor" fill="none"/>
<path fill="currentColor"
	d="M512.13 128.01c0.6 -5.6 9.6 -9 5.6 -18.4
	c1.6 6 -1.3 11.6 -5.6 12.8
"/>
<use x="538.83" y="110.01" xlink:href="#hl"/>
<use x="538.83" y="104.01" xlink:href="#hl"/>
<use x="538.83" y="98.01" xlink:href="#hl"/>
<use x="538.83" y="98.01" xlink:href="#hd"/>
<path d="M535.33 98.01v30.00" stroke="currentColor" fill="none"/>
<path fill="currentColor"
	d="M535.33 128.01c0.6 -5.6 9.6 -9 5.6 -18.4
	c1.6 6 -1.3 11.6 -5.6 12.8
"/>
<use x="569.93" y="110.01" xlink:href="#hl"/>
<use x="569.93" y="104.01" xlink:href="#hl"/>
<use x="569.93" y="98.01" xlink:href="#hl"/>
<use x="569.93" y="98.01" xlink:href="#hd"/>
<path d="M566.43 98.01v30.00" stroke="currentColor" fill="none"/>
<path fill="currentColor"
	d="M566.43 128.01c0.6 -5.6 9.6 -9 5.6 -18.4
	c1.6 6 -1.3 11.6 -5.6 12.8
"/>
<use x="593.13" y="110.01" xlink:href="#hl"/>
<use x="593.13" y="104.01" xlink:href="#hl"/>
<use x="593.13" y="98.01" xlink:href="#hl"/>
<use x="593.13" y="92.01" xlink:href="#hl"/>
<use x="593.13" y="92.01" xlink:href="#hd"/>
<path d="M589.63 92.01v36.00" stroke="currentColor" fill="none"/>
<path fill="currentColor"
	d="M589.63 128.01c0.6 -5.6 9.6 -9 5.6 -18.4
	c1.6 6 -1.3 11.6 -5.6 12.8
"/>
<use x="616.33" y="110.01" xlink:href="#hl"/>
<use x="616.33" y="104.01" xlink:href="#hl"/>
<use x="616.33" y="98.01" xlink:href="#hl"/>
<use x="616.33" y="92.01" xlink:href="#hl"/>
<use x="616.33" y="92.01" xlink:href="#hd"/>
<path d="M612.83 92.01v36.00" stroke="currentColor" fill="none"/>
<path fill="currentColor"
	d="M612.83 128.01c0.6 -5.6 9.6 -9 5.6 -18.4
	c1.6 6 -1.3 11.6 -5.6 12.8
"/>
<use x="639.53" y="110.01" xlink:href="#hl"/>
<use x="639.53" y="104.01" xlink:href="#hl"/>
<use x="639.53" y="98.01" xlink:href="#hl"/>
<use x="639.53" y="98.01" xlink:href="#hd"/>
<path d="M636.03 98.01v30.00" stroke="currentColor" fill="none"/>
<path fill="currentColor"
	d="M636.03 128.01c0.6 -5.6 9.6 -9 5.6 -18.4
	c1.6 6 -1.3 11.6 -5.6 12.8
"/>
<use x="662.83" y="110.01" xlink:href="#hl"/>
<use x="662.83" y="104.01" xlink:href="#hl"/>
<use x="662.83" y="98.01" xlink:href="#hl"/>
<use x="662.83" y="95.01" xlink:href="#hd"/>
<path d="M659.33 95.01v33.00" stroke="currentColor" fill="none"/>
<path fill="currentColor"
	d="M89.63 81.01c2.25 -4.76 12.04 -4.76 14.30 -0.00
	l0.00 -0.21c-2.68 -6.54 -11.62 -6.54 -14.30 0.21"/>
</g>
</svg>
