<?xml version="1.0" standalone="no"?>
<!DOCTYPE svg PUBLIC "-//W3C//DTD SVG 1.1//EN"
	"http://www.w3.org/Graphics/SVG/1.1/DTD/svg11.dtd">
<svg xmlns="http://www.w3.org/2000/svg" version="1.1"
	xmlns:xlink="http://www.w3.org/1999/xlink"
	xml:space='preserve' color="black"
	width="7.38in" height="1.34in" viewBox="0 0 531 97">
<title>8222.abc (8222) tune 1</title>
<!-- Creator: abcm2ps-7.8.14 -->
<!-- CreationDate: Mar 13, 2016 18:54 -->
<!-- CommandLine: -qxg 8222.abc -O ../svgs/8222.svg -->
<g transform="scale(0.750)" stroke-width="0.70" font-family="Times" font-size="20.00">
<text x="354.13" y="21.67" text-anchor="middle">8222.  Harold in Italy, Op. 16, 1st. Mvt. - 3rd. Theme</text>
</g>
<g transform="scale(0.750)" stroke-width="0.70" font-family="Times" font-size="14.00" font-style="italic">
<text x="694.93" y="45.34" text-anchor="end">Hector Berlioz</text>
</g>
<g transform="scale(0.525)" stroke-width="0.70" font-family="Times" font-size="14.00" font-style="italic">
<defs>
<ellipse id="hd" rx="4.1" ry="2.9"
	transform="rotate(-20)" fill="currentColor"/>
</defs>
<use x="107.04" y="94.16" xlink:href="#hd"/>
<path d="M110.54 94.16v-20.00" stroke="currentColor" fill="none"/>
</g>
<g transform="scale(0.750)" stroke-width="0.70" font-family="Times" font-size="15.00" font-weight="bold">
<text x="82.63" y="68.01">= 120</text>
<path stroke="currentColor" fill="none"
	d="M156.33 106.01v-24.00"/>
<path stroke="currentColor" fill="none"
	d="M293.03 106.01v-24.00"/>
<path stroke="currentColor" fill="none"
	d="M393.53 106.01v-24.00"/>
<path stroke="currentColor" fill="none"
	d="M13.33 106.01h484.20m-484.20 -6h484.20m-484.20 -6h484.20m-484.20 -6h484.20m-484.20 -6h484.20"/>
<defs>
<path id="utclef" fill="currentColor" d="m-50 -90
	c-72 -41 -72 -158 52 -188
	c150 -10 220 188 90 256
	c-114 52 -275 0 -293 -136
	c-15 -181 93 -229 220 -334
	c88 -87 79 -133 62 -210
	c-51 33 -94 105 -89 186
	c17 267 36 374 49 574
	c6 96 -19 134 -77 135
	c-80 1 -126 -93 -61 -133
	c85 -41 133 101 31 105
	c23 17 92 37 90 -92
	c-10 -223 -39 -342 -50 -617
	c0 -90 0 -162 96 -232
	c56 72 63 230 22 289
	c-74 106 -257 168 -255 316
	c9 153 148 185 252 133
	c86 -65 29 -192 -80 -176
	c-71 12 -105 67 -59 124"/>
<use id="tclef" transform="scale(0.045)"
	xlink:href="#utclef"/>
</defs>
<use x="25.33" y="106.01" xlink:href="#tclef"/>
<defs>
<path id="usharp" fill="currentColor" d="
	m136 -702
	v890
	h32
	v-890
	m128 840
	h32
	v-888
	h-32
	m-232 286
	v116
	l338 -96
	v-116
	m-338 442
	v116
	l338 -98
	v-114"/>
<use id="sh0" transform="translate(-4,5) scale(0.018)"
	xlink:href="#usharp"/>
</defs>
<use x="40.33" y="82.01" xlink:href="#sh0"/>
<g font-family="serif" font-size="16" font-weight="bold" font-style="normal"
	transform="translate(56.33,106.01) scale(1.2,1)">
	<text y="-1" text-anchor="middle">8</text>
	<text y="-13" text-anchor="middle">6</text>
</g>
<defs>
<path id="hl" stroke="currentColor" d="m-6 0h12"/>
</defs>
<use x="74.33" y="112.01" xlink:href="#hl"/>
<use x="74.33" y="118.01" xlink:href="#hl"/>
<use x="74.33" y="118.01" xlink:href="#hd"/>
<circle fill="currentColor" cx="82.33" cy="115.01" r="1.2"/>
<path d="M77.83 118.01v-24.00" stroke="currentColor" fill="none"/>
<use x="119.83" y="112.01" xlink:href="#hl"/>
<use x="119.83" y="112.01" xlink:href="#hd"/>
<circle fill="currentColor" cx="127.83" cy="109.01" r="1.2"/>
<path d="M123.33 112.01v-20.00" stroke="currentColor" fill="none"/>
<defs>
<path id="Hd" fill="currentColor" d="m3 -1.6
	c-1 -1.8 -7 1.4 -6 3.2
	c1 1.8 7 -1.4 6 -3.2
	m0.5 -0.3
	c2 3.8 -5 7.6 -7 3.8
	c-2 -3.8 5 -7.6 7 -3.8"/>
</defs>
<use x="175.83" y="103.01" xlink:href="#Hd"/>
<defs>
<path id="unat" fill="currentColor" d="
	m96 -750
	h-32
	v716
	l32 -8
	l182 -54
	v282
	h32
	v-706
	l-34 10
	l-180 50
	v-290
	m0 592
	v-190
	l182 -52
	v188"/>
<use id="nt0" transform="translate(-3,5) scale(0.018)"
	xlink:href="#unat"/>
</defs>
<use x="165.83" y="103.01" xlink:href="#nt0"/>
<path d="M179.33 103.01v-20.00" stroke="currentColor" fill="none"/>
<use x="232.43" y="103.01" xlink:href="#hd"/>
<use x="223.43" y="103.01" xlink:href="#nt0"/>
<path d="M235.93 103.01v-21.00" stroke="currentColor" fill="none"/>
<path fill="currentColor"
	d="M235.93 82.01c0.9 3.7 9.1 6.4 6 12.4
	c1 -5.4 -4.2 -8.4 -6 -8.4
M235.93 87.41c0.9 3.7 9.1 6.4 6 12.4
	c1 -5.4 -4.2 -8.4 -6 -8.4
"/>
<path fill="currentColor"
	d="M255.53 74.91l18.70 -3.70v3.20l-18.70 3.70"/>
<path fill="currentColor"
	d="M261.93 78.61l-6.00 1.20v3.20l6.00 -1.20"/>
<use x="252.43" y="97.01" xlink:href="#hd"/>
<path d="M255.93 97.01v-21.20" stroke="currentColor" fill="none"/>
<use x="270.43" y="91.01" xlink:href="#hd"/>
<path d="M273.93 91.01v-18.80" stroke="currentColor" fill="none"/>
<use x="311.53" y="82.01" xlink:href="#hd"/>
<circle fill="currentColor" cx="319.53" cy="79.01" r="1.2"/>
<use x="302.53" y="82.01" xlink:href="#nt0"/>
<path d="M308.03 82.01v20.00" stroke="currentColor" fill="none"/>
<use x="357.03" y="88.01" xlink:href="#hd"/>
<circle fill="currentColor" cx="365.03" cy="85.01" r="1.2"/>
<path d="M353.53 88.01v20.00" stroke="currentColor" fill="none"/>
<use x="412.03" y="82.01" xlink:href="#hd"/>
<circle fill="currentColor" cx="420.03" cy="79.01" r="1.2"/>
<use x="403.03" y="82.01" xlink:href="#nt0"/>
<path d="M408.53 82.01v20.00" stroke="currentColor" fill="none"/>
<use x="457.53" y="91.01" xlink:href="#hd"/>
<path d="M454.03 91.01v20.00" stroke="currentColor" fill="none"/>
<path fill="currentColor"
	d="M179.33 105.01c7.60 5.39 42.00 5.39 49.60 -0.00
	l0.00 0.25c-9.09 7.14 -40.51 7.14 -49.60 -0.25"/>
</g>
</svg>
