<?xml version="1.0" standalone="no"?>
<!DOCTYPE svg PUBLIC "-//W3C//DTD SVG 1.1//EN"
	"http://www.w3.org/Graphics/SVG/1.1/DTD/svg11.dtd">
<svg xmlns="http://www.w3.org/2000/svg" version="1.1"
	xmlns:xlink="http://www.w3.org/1999/xlink"
	xml:space='preserve' color="black"
	width="7.38in" height="1.77in" viewBox="0 0 531 128">
<title>8244.abc (8244) tune 1</title>
<!-- Creator: abcm2ps-7.8.14 -->
<!-- CreationDate: Mar 13, 2016 18:54 -->
<!-- CommandLine: -qxg 8244.abc -O ../svgs/8244.svg -->
<g transform="scale(0.750)" stroke-width="0.70" font-family="Times" font-size="20.00">
<text x="354.13" y="21.67" text-anchor="middle">8244.  Jeremiah, Symphony - 3rd. Mvt. - 1st. Theme</text>
</g>
<g transform="scale(0.750)" stroke-width="0.70" font-family="Times" font-size="14.00" font-style="italic">
<text x="694.93" y="45.34" text-anchor="end">Leonard Bernstein</text>
</g>
<g transform="scale(0.525)" stroke-width="0.70" font-family="Times" font-size="14.00" font-style="italic">
<defs>
<ellipse id="hd" rx="4.1" ry="2.9"
	transform="rotate(-20)" fill="currentColor"/>
</defs>
<use x="89.19" y="94.16" xlink:href="#hd"/>
<path d="M92.69 94.16v-20.00" stroke="currentColor" fill="none"/>
</g>
<g transform="scale(0.750)" stroke-width="0.70" font-family="Times" font-size="15.00" font-weight="bold">
<text x="70.13" y="68.01">= 120</text>
<path stroke="currentColor" fill="none"
	d="M221.43 147.01v-24.00"/>
<path stroke="currentColor" fill="none"
	d="M414.13 147.01v-24.00"/>
<path stroke="currentColor" fill="none"
	d="M633.93 147.01v-24.00"/>
<path stroke="currentColor" fill="none"
	d="M13.33 147.01h681.60m-681.60 -6h681.60m-681.60 -6h681.60m-681.60 -6h681.60m-681.60 -6h681.60"/>
<path stroke="currentColor" fill="none"
	d="M57.83 79.01v-3l78.30 -0.00v3"/>
<rect x="90.03" y="70.01" width="14.00" height="12" fill="white"/>
<text font-family="serif" font-size="12" font-style="italic" font-weight="normal"
	x="97.03" y="80.01" text-anchor="middle">3</text>
<defs>
<path id="utclef" fill="currentColor" d="m-50 -90
	c-72 -41 -72 -158 52 -188
	c150 -10 220 188 90 256
	c-114 52 -275 0 -293 -136
	c-15 -181 93 -229 220 -334
	c88 -87 79 -133 62 -210
	c-51 33 -94 105 -89 186
	c17 267 36 374 49 574
	c6 96 -19 134 -77 135
	c-80 1 -126 -93 -61 -133
	c85 -41 133 101 31 105
	c23 17 92 37 90 -92
	c-10 -223 -39 -342 -50 -617
	c0 -90 0 -162 96 -232
	c56 72 63 230 22 289
	c-74 106 -257 168 -255 316
	c9 153 148 185 252 133
	c86 -65 29 -192 -80 -176
	c-71 12 -105 67 -59 124"/>
<use id="tclef" transform="scale(0.045)"
	xlink:href="#utclef"/>
</defs>
<use x="25.33" y="147.01" xlink:href="#tclef"/>
<g font-family="serif" font-size="16" font-weight="bold" font-style="normal"
	transform="translate(43.83,147.01) scale(1.2,1)">
	<text y="-1" text-anchor="middle">4</text>
	<text y="-13" text-anchor="middle">3</text>
</g>
<defs>
<path id="hl" stroke="currentColor" d="m-6 0h12"/>
</defs>
<use x="61.83" y="117.01" xlink:href="#hl"/>
<use x="61.83" y="111.01" xlink:href="#hl"/>
<use x="61.83" y="105.01" xlink:href="#hl"/>
<use x="61.83" y="99.01" xlink:href="#hl"/>
<use x="61.83" y="93.01" xlink:href="#hl"/>
<use x="61.83" y="90.01" xlink:href="#hd"/>
<path d="M58.33 90.01v45.00" stroke="currentColor" fill="none"/>
<use x="97.03" y="117.01" xlink:href="#hl"/>
<use x="97.03" y="111.01" xlink:href="#hl"/>
<use x="97.03" y="105.01" xlink:href="#hl"/>
<use x="97.03" y="99.01" xlink:href="#hl"/>
<use x="97.03" y="96.01" xlink:href="#hd"/>
<defs>
<path id="usharp" fill="currentColor" d="
	m136 -702
	v890
	h32
	v-890
	m128 840
	h32
	v-888
	h-32
	m-232 286
	v116
	l338 -96
	v-116
	m-338 442
	v116
	l338 -98
	v-114"/>
<use id="sh0" transform="translate(-4,5) scale(0.018)"
	xlink:href="#usharp"/>
</defs>
<use x="88.03" y="96.01" xlink:href="#sh0"/>
<path d="M93.53 96.01v39.00" stroke="currentColor" fill="none"/>
<use x="132.13" y="117.01" xlink:href="#hl"/>
<use x="132.13" y="111.01" xlink:href="#hl"/>
<use x="132.13" y="105.01" xlink:href="#hl"/>
<use x="132.13" y="99.01" xlink:href="#hl"/>
<use x="132.13" y="96.01" xlink:href="#hd"/>
<use x="123.13" y="96.01" xlink:href="#sh0"/>
<path d="M128.63 96.01v39.00" stroke="currentColor" fill="none"/>
<path fill="currentColor"
	d="M163.43 135.21l29.40 0.00v-3.20l-29.40 -0.00"/>
<use x="167.33" y="117.01" xlink:href="#hl"/>
<use x="167.33" y="111.01" xlink:href="#hl"/>
<use x="167.33" y="105.01" xlink:href="#hl"/>
<use x="167.33" y="99.01" xlink:href="#hl"/>
<use x="167.33" y="96.01" xlink:href="#hd"/>
<use x="158.33" y="96.01" xlink:href="#sh0"/>
<path d="M163.83 96.01v38.20" stroke="currentColor" fill="none"/>
<use x="195.93" y="117.01" xlink:href="#hl"/>
<use x="195.93" y="111.01" xlink:href="#hl"/>
<use x="195.93" y="105.01" xlink:href="#hl"/>
<use x="195.93" y="99.01" xlink:href="#hl"/>
<use x="195.93" y="96.01" xlink:href="#hd"/>
<use x="186.93" y="96.01" xlink:href="#sh0"/>
<path d="M192.43 96.01v38.20" stroke="currentColor" fill="none"/>
<use x="240.33" y="117.01" xlink:href="#hl"/>
<use x="240.33" y="111.01" xlink:href="#hl"/>
<use x="240.33" y="105.01" xlink:href="#hl"/>
<use x="240.33" y="99.01" xlink:href="#hl"/>
<use x="240.33" y="96.01" xlink:href="#hd"/>
<use x="231.33" y="96.01" xlink:href="#sh0"/>
<path d="M236.83 96.01v39.00" stroke="currentColor" fill="none"/>
<path fill="currentColor"
	d="M236.83 135.01c0.6 -5.6 9.6 -9 5.6 -18.4
	c1.6 6 -1.3 11.6 -5.6 12.8
"/>
<use x="272.13" y="117.01" xlink:href="#hl"/>
<use x="272.13" y="111.01" xlink:href="#hl"/>
<use x="272.13" y="105.01" xlink:href="#hl"/>
<use x="272.13" y="99.01" xlink:href="#hl"/>
<use x="272.13" y="99.01" xlink:href="#hd"/>
<use x="263.13" y="99.01" xlink:href="#sh0"/>
<path d="M268.63 99.01v36.00" stroke="currentColor" fill="none"/>
<path fill="currentColor"
	d="M313.33 135.21l29.40 0.00v-3.20l-29.40 -0.00"/>
<path fill="currentColor"
	d="M336.33 130.21l6.00 0.00v-3.20l-6.00 -0.00"/>
<use x="317.23" y="117.01" xlink:href="#hl"/>
<use x="317.23" y="111.01" xlink:href="#hl"/>
<use x="317.23" y="105.01" xlink:href="#hl"/>
<use x="317.23" y="99.01" xlink:href="#hl"/>
<use x="317.23" y="96.01" xlink:href="#hd"/>
<use x="308.23" y="96.01" xlink:href="#sh0"/>
<path d="M313.73 96.01v38.20" stroke="currentColor" fill="none"/>
<use x="345.83" y="117.01" xlink:href="#hl"/>
<use x="345.83" y="111.01" xlink:href="#hl"/>
<use x="345.83" y="105.01" xlink:href="#hl"/>
<use x="345.83" y="99.01" xlink:href="#hl"/>
<use x="345.83" y="93.01" xlink:href="#hl"/>
<use x="345.83" y="90.01" xlink:href="#hd"/>
<use x="336.83" y="90.01" xlink:href="#sh0"/>
<path d="M342.33 90.01v44.20" stroke="currentColor" fill="none"/>
<path fill="currentColor"
	d="M364.53 135.21l20.90 0.00v-3.20l-20.90 -0.00"/>
<path fill="currentColor"
	d="M370.93 130.21l-6.00 -0.00v-3.20l6.00 0.00"/>
<use x="368.43" y="117.01" xlink:href="#hl"/>
<use x="368.43" y="111.01" xlink:href="#hl"/>
<use x="368.43" y="105.01" xlink:href="#hl"/>
<use x="368.43" y="99.01" xlink:href="#hl"/>
<use x="368.43" y="93.01" xlink:href="#hl"/>
<use x="368.43" y="90.01" xlink:href="#hd"/>
<defs>
<path id="unat" fill="currentColor" d="
	m96 -750
	h-32
	v716
	l32 -8
	l182 -54
	v282
	h32
	v-706
	l-34 10
	l-180 50
	v-290
	m0 592
	v-190
	l182 -52
	v188"/>
<use id="nt0" transform="translate(-3,5) scale(0.018)"
	xlink:href="#unat"/>
</defs>
<use x="359.43" y="90.01" xlink:href="#nt0"/>
<path d="M364.93 90.01v44.20" stroke="currentColor" fill="none"/>
<use x="388.63" y="117.01" xlink:href="#hl"/>
<use x="388.63" y="111.01" xlink:href="#hl"/>
<use x="388.63" y="105.01" xlink:href="#hl"/>
<use x="388.63" y="99.01" xlink:href="#hl"/>
<use x="388.63" y="96.01" xlink:href="#hd"/>
<use x="379.63" y="96.01" xlink:href="#sh0"/>
<path d="M385.13 96.01v38.20" stroke="currentColor" fill="none"/>
<path fill="currentColor"
	d="M429.13 135.21l58.00 0.00v-3.20l-58.00 -0.00"/>
<use x="433.03" y="117.01" xlink:href="#hl"/>
<use x="433.03" y="111.01" xlink:href="#hl"/>
<use x="433.03" y="105.01" xlink:href="#hl"/>
<use x="433.03" y="99.01" xlink:href="#hl"/>
<use x="433.03" y="96.01" xlink:href="#hd"/>
<use x="424.03" y="96.01" xlink:href="#sh0"/>
<path d="M429.53 96.01v38.20" stroke="currentColor" fill="none"/>
<use x="461.63" y="117.01" xlink:href="#hl"/>
<use x="461.63" y="111.01" xlink:href="#hl"/>
<use x="461.63" y="105.01" xlink:href="#hl"/>
<use x="461.63" y="102.01" xlink:href="#hd"/>
<path d="M458.13 102.01v32.20" stroke="currentColor" fill="none"/>
<use x="490.33" y="117.01" xlink:href="#hl"/>
<use x="490.33" y="111.01" xlink:href="#hl"/>
<use x="490.33" y="105.01" xlink:href="#hl"/>
<use x="490.33" y="99.01" xlink:href="#hl"/>
<use x="490.33" y="96.01" xlink:href="#hd"/>
<use x="481.33" y="96.01" xlink:href="#sh0"/>
<path d="M486.83 96.01v38.20" stroke="currentColor" fill="none"/>
<path fill="currentColor"
	d="M518.33 135.21l94.40 0.00v-3.20l-94.40 -0.00"/>
<path fill="currentColor"
	d="M547.33 130.21l65.10 0.00v-3.20l-65.10 -0.00"/>
<path fill="currentColor"
	d="M587.63 125.21l6.00 0.00v-3.20l-6.00 -0.00"/>
<use x="522.23" y="117.01" xlink:href="#hl"/>
<use x="522.23" y="111.01" xlink:href="#hl"/>
<use x="522.23" y="105.01" xlink:href="#hl"/>
<use x="522.23" y="99.01" xlink:href="#hl"/>
<use x="522.23" y="96.01" xlink:href="#hd"/>
<use x="513.23" y="96.01" xlink:href="#sh0"/>
<path d="M518.73 96.01v38.20" stroke="currentColor" fill="none"/>
<use x="550.83" y="117.01" xlink:href="#hl"/>
<use x="550.83" y="111.01" xlink:href="#hl"/>
<use x="550.83" y="105.01" xlink:href="#hl"/>
<use x="550.83" y="99.01" xlink:href="#hl"/>
<use x="550.83" y="99.01" xlink:href="#hd"/>
<circle fill="currentColor" cx="558.83" cy="96.01" r="1.2"/>
<use x="541.83" y="99.01" xlink:href="#sh0"/>
<path d="M547.33 99.01v35.20" stroke="currentColor" fill="none"/>
<use x="576.83" y="117.01" xlink:href="#hl"/>
<use x="576.83" y="111.01" xlink:href="#hl"/>
<use x="576.83" y="105.01" xlink:href="#hl"/>
<use x="576.83" y="99.01" xlink:href="#hl"/>
<use x="576.83" y="99.01" xlink:href="#hd"/>
<use x="567.83" y="99.01" xlink:href="#nt0"/>
<path d="M573.33 99.01v35.20" stroke="currentColor" fill="none"/>
<use x="597.13" y="117.01" xlink:href="#hl"/>
<use x="597.13" y="111.01" xlink:href="#hl"/>
<use x="597.13" y="105.01" xlink:href="#hl"/>
<use x="597.13" y="99.01" xlink:href="#hl"/>
<use x="597.13" y="99.01" xlink:href="#hd"/>
<path d="M593.63 99.01v35.20" stroke="currentColor" fill="none"/>
<use x="590.13" y="102.01" xlink:href="#hd"/>
<use x="615.93" y="117.01" xlink:href="#hl"/>
<use x="615.93" y="111.01" xlink:href="#hl"/>
<use x="615.93" y="105.01" xlink:href="#hl"/>
<use x="615.93" y="102.01" xlink:href="#hd"/>
<path d="M612.43 102.01v32.20" stroke="currentColor" fill="none"/>
<use x="649.93" y="117.01" xlink:href="#hl"/>
<use x="649.93" y="111.01" xlink:href="#hl"/>
<use x="649.93" y="105.01" xlink:href="#hl"/>
<use x="649.93" y="102.01" xlink:href="#hd"/>
<path d="M646.43 102.01v33.00" stroke="currentColor" fill="none"/>
<path fill="currentColor"
	d="M392.13 94.01c5.88 -5.17 31.46 -5.17 37.34 -0.00
	l0.00 -0.24c-7.00 -6.93 -30.34 -6.93 -37.34 0.24"/>
<path fill="currentColor"
	d="M580.33 99.01c2.09 -4.74 11.18 -4.74 13.26 -0.00
	l0.00 -0.21c-2.49 -6.53 -10.78 -6.53 -13.26 0.21"/>
<path fill="currentColor"
	d="M597.13 100.01c2.96 -4.84 15.85 -4.84 18.82 -0.00
	l0.00 -0.22c-3.53 -6.62 -15.29 -6.62 -18.82 0.22"/>
<path fill="currentColor"
	d="M619.43 100.01c4.24 -4.98 22.70 -4.98 26.94 -0.00
	l0.00 -0.23c-5.05 -6.76 -21.89 -6.76 -26.94 0.23"/>
</g>
</svg>
