<?xml version="1.0" standalone="no"?>
<!DOCTYPE svg PUBLIC "-//W3C//DTD SVG 1.1//EN"
	"http://www.w3.org/Graphics/SVG/1.1/DTD/svg11.dtd">
<svg xmlns="http://www.w3.org/2000/svg" version="1.1"
	xmlns:xlink="http://www.w3.org/1999/xlink"
	xml:space='preserve' color="black"
	width="7.38in" height="1.68in" viewBox="0 0 531 121">
<title>8288.abc (8288) tune 1</title>
<!-- Creator: abcm2ps-7.8.14 -->
<!-- CreationDate: Mar 13, 2016 18:54 -->
<!-- CommandLine: -qxg 8288.abc -O ../svgs/8288.svg -->
<g transform="scale(0.750)" stroke-width="0.70" font-family="Times" font-size="20.00">
<text x="354.13" y="21.67" text-anchor="middle">8288.  Concerto grosso, Str, Orch. and Pft., Obligato, 1st. Mvt., Prelude</text>
</g>
<g transform="scale(0.750)" stroke-width="0.70" font-family="Times" font-size="14.00" font-style="italic">
<text x="694.93" y="45.34" text-anchor="end">Ernest Bloch</text>
</g>
<g transform="scale(0.525)" stroke-width="0.70" font-family="Times" font-size="14.00" font-style="italic">
<defs>
<ellipse id="hd" rx="4.1" ry="2.9"
	transform="rotate(-20)" fill="currentColor"/>
</defs>
<use x="89.19" y="94.16" xlink:href="#hd"/>
<path d="M92.69 94.16v-20.00" stroke="currentColor" fill="none"/>
</g>
<g transform="scale(0.750)" stroke-width="0.70" font-family="Times" font-size="15.00" font-weight="bold">
<text x="70.13" y="68.01">= 120</text>
<path stroke="currentColor" fill="none"
	d="M118.63 138.01v-24.00"/>
<path stroke="currentColor" fill="none"
	d="M199.13 138.01v-24.00"/>
<path stroke="currentColor" fill="none"
	d="M268.43 138.01v-24.00"/>
<path stroke="currentColor" fill="none"
	d="M348.83 138.01v-24.00"/>
<path stroke="currentColor" fill="none"
	d="M418.23 138.01v-24.00"/>
<path stroke="currentColor" fill="none"
	d="M498.63 138.01v-24.00"/>
<path stroke="currentColor" fill="none"
	d="M567.93 138.01v-24.00"/>
<path stroke="currentColor" fill="none"
	d="M652.43 138.01v-24.00"/>
<path stroke="currentColor" fill="none"
	d="M694.93 138.01v-24.00"/>
<path stroke="currentColor" fill="none"
	d="M13.33 138.01h681.60m-681.60 -6h681.60m-681.60 -6h681.60m-681.60 -6h681.60m-681.60 -6h681.60"/>
<defs>
<path id="utclef" fill="currentColor" d="m-50 -90
	c-72 -41 -72 -158 52 -188
	c150 -10 220 188 90 256
	c-114 52 -275 0 -293 -136
	c-15 -181 93 -229 220 -334
	c88 -87 79 -133 62 -210
	c-51 33 -94 105 -89 186
	c17 267 36 374 49 574
	c6 96 -19 134 -77 135
	c-80 1 -126 -93 -61 -133
	c85 -41 133 101 31 105
	c23 17 92 37 90 -92
	c-10 -223 -39 -342 -50 -617
	c0 -90 0 -162 96 -232
	c56 72 63 230 22 289
	c-74 106 -257 168 -255 316
	c9 153 148 185 252 133
	c86 -65 29 -192 -80 -176
	c-71 12 -105 67 -59 124"/>
<use id="tclef" transform="scale(0.045)"
	xlink:href="#utclef"/>
</defs>
<use x="25.33" y="138.01" xlink:href="#tclef"/>
<g font-family="serif" font-size="16" font-weight="bold" font-style="normal"
	transform="translate(43.83,138.01) scale(1.2,1)">
	<text y="-1" text-anchor="middle">4</text>
	<text y="-13" text-anchor="middle">2</text>
</g>
<use x="61.83" y="120.01" xlink:href="#hd"/>
<path d="M58.33 120.01v20.00" stroke="currentColor" fill="none"/>
<path fill="currentColor"
	d="M58.33 140.01c0.6 -5.6 9.6 -9 5.6 -18.4
	c1.6 6 -1.3 11.6 -5.6 12.8
"/>
<defs>
<path id="r8e" fill="currentColor" d="m 0 0
	c-1.5 1.5 -2.4 2 -3.6 2
	c2.4 -2.8 -2.8 -4 -2.8 -1.2
	c0 2.7 4.3 2.4 5.9 0.6"/>
<g id="r8">
	<path d="m3.3 -4l-3.4 9.6" stroke="currentColor" fill="none"/>
	<use x="3.4" y="-4" xlink:href="#r8e"/>
</g>
</defs>
<use x="78.83" y="126.01" xlink:href="#r8"/>
<defs>
<path id="hl" stroke="currentColor" d="m-6 0h12"/>
</defs>
<use x="97.53" y="108.01" xlink:href="#hl"/>
<use x="97.53" y="102.01" xlink:href="#hl"/>
<use x="97.53" y="96.01" xlink:href="#hl"/>
<use x="97.53" y="90.01" xlink:href="#hl"/>
<use x="97.53" y="84.01" xlink:href="#hl"/>
<use x="97.53" y="78.01" xlink:href="#hl"/>
<use x="97.53" y="78.01" xlink:href="#hd"/>
<path d="M94.03 78.01v48.00" stroke="currentColor" fill="none"/>
<use x="131.13" y="120.01" xlink:href="#hd"/>
<path d="M127.63 120.01v20.00" stroke="currentColor" fill="none"/>
<path fill="currentColor"
	d="M127.63 140.01c0.6 -5.6 9.6 -9 5.6 -18.4
	c1.6 6 -1.3 11.6 -5.6 12.8
"/>
<use x="148.13" y="126.01" xlink:href="#r8"/>
<use x="166.83" y="108.01" xlink:href="#hl"/>
<use x="166.83" y="102.01" xlink:href="#hl"/>
<use x="166.83" y="96.01" xlink:href="#hl"/>
<use x="166.83" y="96.01" xlink:href="#hd"/>
<path d="M163.33 96.01v30.00" stroke="currentColor" fill="none"/>
<path fill="currentColor"
	d="M163.33 126.01c0.6 -5.6 9.6 -9 5.6 -18.4
	c1.6 6 -1.3 11.6 -5.6 12.8
"/>
<use x="183.83" y="126.01" xlink:href="#r8"/>
<use x="211.63" y="120.01" xlink:href="#hd"/>
<path d="M208.13 120.01v20.00" stroke="currentColor" fill="none"/>
<path fill="currentColor"
	d="M208.13 140.01c0.6 -5.6 9.6 -9 5.6 -18.4
	c1.6 6 -1.3 11.6 -5.6 12.8
"/>
<use x="228.53" y="126.01" xlink:href="#r8"/>
<use x="247.33" y="108.01" xlink:href="#hl"/>
<use x="247.33" y="102.01" xlink:href="#hl"/>
<use x="247.33" y="96.01" xlink:href="#hl"/>
<use x="247.33" y="93.01" xlink:href="#hd"/>
<path d="M243.83 93.01v33.00" stroke="currentColor" fill="none"/>
<use x="280.93" y="120.01" xlink:href="#hd"/>
<path d="M277.43 120.01v20.00" stroke="currentColor" fill="none"/>
<path fill="currentColor"
	d="M277.43 140.01c0.6 -5.6 9.6 -9 5.6 -18.4
	c1.6 6 -1.3 11.6 -5.6 12.8
"/>
<use x="297.93" y="126.01" xlink:href="#r8"/>
<use x="316.63" y="108.01" xlink:href="#hl"/>
<use x="316.63" y="102.01" xlink:href="#hl"/>
<use x="316.63" y="96.01" xlink:href="#hl"/>
<use x="316.63" y="90.01" xlink:href="#hl"/>
<use x="316.63" y="90.01" xlink:href="#hd"/>
<path d="M313.13 90.01v36.00" stroke="currentColor" fill="none"/>
<path fill="currentColor"
	d="M313.13 126.01c0.6 -5.6 9.6 -9 5.6 -18.4
	c1.6 6 -1.3 11.6 -5.6 12.8
"/>
<use x="333.63" y="126.01" xlink:href="#r8"/>
<use x="361.33" y="120.01" xlink:href="#hd"/>
<path d="M357.83 120.01v20.00" stroke="currentColor" fill="none"/>
<path fill="currentColor"
	d="M357.83 140.01c0.6 -5.6 9.6 -9 5.6 -18.4
	c1.6 6 -1.3 11.6 -5.6 12.8
"/>
<use x="378.33" y="126.01" xlink:href="#r8"/>
<use x="397.03" y="108.01" xlink:href="#hl"/>
<use x="397.03" y="102.01" xlink:href="#hl"/>
<use x="397.03" y="96.01" xlink:href="#hl"/>
<use x="397.03" y="93.01" xlink:href="#hd"/>
<path d="M393.53 93.01v33.00" stroke="currentColor" fill="none"/>
<use x="430.73" y="120.01" xlink:href="#hd"/>
<path d="M427.23 120.01v20.00" stroke="currentColor" fill="none"/>
<path fill="currentColor"
	d="M427.23 140.01c0.6 -5.6 9.6 -9 5.6 -18.4
	c1.6 6 -1.3 11.6 -5.6 12.8
"/>
<use x="447.63" y="126.01" xlink:href="#r8"/>
<use x="466.43" y="108.01" xlink:href="#hl"/>
<use x="466.43" y="102.01" xlink:href="#hl"/>
<use x="466.43" y="96.01" xlink:href="#hl"/>
<use x="466.43" y="90.01" xlink:href="#hl"/>
<use x="466.43" y="90.01" xlink:href="#hd"/>
<path d="M462.93 90.01v36.00" stroke="currentColor" fill="none"/>
<path fill="currentColor"
	d="M462.93 126.01c0.6 -5.6 9.6 -9 5.6 -18.4
	c1.6 6 -1.3 11.6 -5.6 12.8
"/>
<use x="483.33" y="126.01" xlink:href="#r8"/>
<use x="511.13" y="120.01" xlink:href="#hd"/>
<path d="M507.63 120.01v20.00" stroke="currentColor" fill="none"/>
<path fill="currentColor"
	d="M507.63 140.01c0.6 -5.6 9.6 -9 5.6 -18.4
	c1.6 6 -1.3 11.6 -5.6 12.8
"/>
<use x="528.13" y="126.01" xlink:href="#r8"/>
<use x="546.83" y="108.01" xlink:href="#hl"/>
<use x="546.83" y="102.01" xlink:href="#hl"/>
<use x="546.83" y="96.01" xlink:href="#hl"/>
<use x="546.83" y="90.01" xlink:href="#hl"/>
<use x="546.83" y="87.01" xlink:href="#hd"/>
<path d="M543.33 87.01v39.00" stroke="currentColor" fill="none"/>
<use x="580.43" y="108.01" xlink:href="#hl"/>
<use x="580.43" y="102.01" xlink:href="#hl"/>
<use x="580.43" y="96.01" xlink:href="#hl"/>
<use x="580.43" y="90.01" xlink:href="#hl"/>
<use x="580.43" y="84.01" xlink:href="#hl"/>
<use x="580.43" y="84.01" xlink:href="#hd"/>
<path d="M576.93 84.01v42.00" stroke="currentColor" fill="none"/>
<path fill="currentColor"
	d="M576.93 126.01c0.6 -5.6 9.6 -9 5.6 -18.4
	c1.6 6 -1.3 11.6 -5.6 12.8
"/>
<use x="599.33" y="108.01" xlink:href="#hl"/>
<use x="599.33" y="102.01" xlink:href="#hl"/>
<use x="599.33" y="96.01" xlink:href="#hl"/>
<use x="599.33" y="90.01" xlink:href="#hl"/>
<use x="599.33" y="84.01" xlink:href="#hl"/>
<use x="599.33" y="81.01" xlink:href="#hd"/>
<path d="M595.83 81.01v45.00" stroke="currentColor" fill="none"/>
<path fill="currentColor"
	d="M595.83 126.01c0.6 -5.6 9.6 -9 5.6 -18.4
	c1.6 6 -1.3 11.6 -5.6 12.8
"/>
<use x="618.33" y="108.01" xlink:href="#hl"/>
<use x="618.33" y="102.01" xlink:href="#hl"/>
<use x="618.33" y="96.01" xlink:href="#hl"/>
<use x="618.33" y="90.01" xlink:href="#hl"/>
<use x="618.33" y="84.01" xlink:href="#hl"/>
<use x="618.33" y="81.01" xlink:href="#hd"/>
<path d="M614.83 81.01v45.00" stroke="currentColor" fill="none"/>
<path fill="currentColor"
	d="M614.83 126.01c0.6 -5.6 9.6 -9 5.6 -18.4
	c1.6 6 -1.3 11.6 -5.6 12.8
"/>
<use x="637.23" y="108.01" xlink:href="#hl"/>
<use x="637.23" y="102.01" xlink:href="#hl"/>
<use x="637.23" y="96.01" xlink:href="#hl"/>
<use x="637.23" y="90.01" xlink:href="#hl"/>
<use x="637.23" y="84.01" xlink:href="#hl"/>
<use x="637.23" y="84.01" xlink:href="#hd"/>
<path d="M633.73 84.01v42.00" stroke="currentColor" fill="none"/>
<path fill="currentColor"
	d="M633.73 126.01c0.6 -5.6 9.6 -9 5.6 -18.4
	c1.6 6 -1.3 11.6 -5.6 12.8
"/>
<use x="665.43" y="108.01" xlink:href="#hl"/>
<use x="665.43" y="102.01" xlink:href="#hl"/>
<use x="665.43" y="96.01" xlink:href="#hl"/>
<use x="665.43" y="90.01" xlink:href="#hl"/>
<defs>
<path id="Hd" fill="currentColor" d="m3 -1.6
	c-1 -1.8 -7 1.4 -6 3.2
	c1 1.8 7 -1.4 6 -3.2
	m0.5 -0.3
	c2 3.8 -5 7.6 -7 3.8
	c-2 -3.8 5 -7.6 7 -3.8"/>
</defs>
<use x="665.43" y="87.01" xlink:href="#Hd"/>
<path d="M661.93 87.01v39.00" stroke="currentColor" fill="none"/>
</g>
</svg>
