<?xml version="1.0" standalone="no"?>
<!DOCTYPE svg PUBLIC "-//W3C//DTD SVG 1.1//EN"
	"http://www.w3.org/Graphics/SVG/1.1/DTD/svg11.dtd">
<svg xmlns="http://www.w3.org/2000/svg" version="1.1"
	xmlns:xlink="http://www.w3.org/1999/xlink"
	xml:space='preserve' color="black"
	width="7.38in" height="1.42in" viewBox="0 0 531 102">
<title>8397.abc (8397) tune 1</title>
<!-- Creator: abcm2ps-7.8.14 -->
<!-- CreationDate: Mar 13, 2016 18:54 -->
<!-- CommandLine: -qxg 8397.abc -O ../svgs/8397.svg -->
<g transform="scale(0.750)" stroke-width="0.70" font-family="Times" font-size="20.00">
<text x="354.13" y="21.67" text-anchor="middle">8397.  Variations Symphoniques, Op. 63, Cello and Orch. - Intro</text>
</g>
<g transform="scale(0.750)" stroke-width="0.70" font-family="Times" font-size="14.00" font-style="italic">
<text x="694.93" y="45.34" text-anchor="end">Leon Boellmann</text>
</g>
<g transform="scale(0.525)" stroke-width="0.70" font-family="Times" font-size="14.00" font-style="italic">
<defs>
<ellipse id="hd" rx="4.1" ry="2.9"
	transform="rotate(-20)" fill="currentColor"/>
</defs>
<use x="107.04" y="94.16" xlink:href="#hd"/>
<path d="M110.54 94.16v-20.00" stroke="currentColor" fill="none"/>
</g>
<g transform="scale(0.750)" stroke-width="0.70" font-family="Times" font-size="15.00" font-weight="bold">
<text x="82.63" y="68.01">= 120</text>
<path stroke="currentColor" fill="none"
	d="M220.43 113.01v-24.00"/>
<path stroke="currentColor" fill="none"
	d="M396.13 113.01v-24.00"/>
<path stroke="currentColor" fill="none"
	d="M568.73 113.01v-24.00"/>
<path stroke="currentColor" fill="none"
	d="M13.33 113.01h681.60m-681.60 -6h681.60m-681.60 -6h681.60m-681.60 -6h681.60m-681.60 -6h681.60"/>
<defs>
<path id="utclef" fill="currentColor" d="m-50 -90
	c-72 -41 -72 -158 52 -188
	c150 -10 220 188 90 256
	c-114 52 -275 0 -293 -136
	c-15 -181 93 -229 220 -334
	c88 -87 79 -133 62 -210
	c-51 33 -94 105 -89 186
	c17 267 36 374 49 574
	c6 96 -19 134 -77 135
	c-80 1 -126 -93 -61 -133
	c85 -41 133 101 31 105
	c23 17 92 37 90 -92
	c-10 -223 -39 -342 -50 -617
	c0 -90 0 -162 96 -232
	c56 72 63 230 22 289
	c-74 106 -257 168 -255 316
	c9 153 148 185 252 133
	c86 -65 29 -192 -80 -176
	c-71 12 -105 67 -59 124"/>
<use id="tclef" transform="scale(0.045)"
	xlink:href="#utclef"/>
</defs>
<use x="25.33" y="113.01" xlink:href="#tclef"/>
<defs>
<path id="uflat" fill="currentColor" d="
	m100 -746
	h32
	v734
	l-32 4
	m32 -332
	c46 -72 152 -90 208 -20
	c100 110 -120 326 -208 348
	m0 -28
	c54 0 200 -206 130 -290
	c-50 -60 -130 -4 -130 34"/>
<use id="ft0" transform="translate(-3.5,3.5) scale(0.018)"
	xlink:href="#uflat"/>
</defs>
<use x="40.33" y="101.01" xlink:href="#ft0"/>
<g font-family="serif" font-size="16" font-weight="bold" font-style="normal"
	transform="translate(56.33,113.01) scale(1.2,1)">
	<text y="-1" text-anchor="middle">4</text>
	<text y="-13" text-anchor="middle">4</text>
</g>
<defs>
<path id="hl" stroke="currentColor" d="m-6 0h12"/>
</defs>
<use x="74.33" y="83.01" xlink:href="#hl"/>
<use x="74.33" y="80.01" xlink:href="#hd"/>
<path d="M70.83 80.01v22.00" stroke="currentColor" fill="none"/>
<path fill="currentColor"
	d="M70.83 102.01c0.9 -3.7 9.1 -6.4 6 -12.4
	c1 5.4 -4.2 8.4 -6 8.4
M70.83 96.61c0.9 -3.7 9.1 -6.4 6 -12.4
	c1 5.4 -4.2 8.4 -6 8.4
"/>
<use x="91.83" y="83.01" xlink:href="#hl"/>
<use x="91.83" y="83.01" xlink:href="#hd"/>
<circle fill="currentColor" cx="99.83" cy="80.01" r="1.2"/>
<path d="M88.33 83.01v20.00" stroke="currentColor" fill="none"/>
<use x="131.73" y="83.01" xlink:href="#hl"/>
<use x="131.73" y="83.01" xlink:href="#hd"/>
<path d="M128.23 83.01v22.00" stroke="currentColor" fill="none"/>
<path fill="currentColor"
	d="M128.23 105.01c0.9 -3.7 9.1 -6.4 6 -12.4
	c1 5.4 -4.2 8.4 -6 8.4
M128.23 99.61c0.9 -3.7 9.1 -6.4 6 -12.4
	c1 5.4 -4.2 8.4 -6 8.4
"/>
<use x="149.13" y="89.01" xlink:href="#hd"/>
<path d="M145.63 89.01v22.00" stroke="currentColor" fill="none"/>
<path fill="currentColor"
	d="M145.63 111.01c0.9 -3.7 9.1 -6.4 6 -12.4
	c1 5.4 -4.2 8.4 -6 8.4
M145.63 105.61c0.9 -3.7 9.1 -6.4 6 -12.4
	c1 5.4 -4.2 8.4 -6 8.4
"/>
<use x="166.53" y="95.01" xlink:href="#hd"/>
<circle fill="currentColor" cx="174.53" cy="92.01" r="1.2"/>
<path d="M163.03 95.01v20.00" stroke="currentColor" fill="none"/>
<use x="206.43" y="95.01" xlink:href="#hd"/>
<path d="M202.93 95.01v22.00" stroke="currentColor" fill="none"/>
<path fill="currentColor"
	d="M202.93 117.01c0.9 -3.7 9.1 -6.4 6 -12.4
	c1 5.4 -4.2 8.4 -6 8.4
M202.93 111.61c0.9 -3.7 9.1 -6.4 6 -12.4
	c1 5.4 -4.2 8.4 -6 8.4
"/>
<use x="233.03" y="101.01" xlink:href="#hd"/>
<path d="M236.53 101.01v-21.00" stroke="currentColor" fill="none"/>
<path fill="currentColor"
	d="M236.53 80.01c0.9 3.7 9.1 6.4 6 12.4
	c1 -5.4 -4.2 -8.4 -6 -8.4
M236.53 85.41c0.9 3.7 9.1 6.4 6 12.4
	c1 -5.4 -4.2 -8.4 -6 -8.4
"/>
<use x="250.63" y="104.01" xlink:href="#hd"/>
<circle fill="currentColor" cx="258.63" cy="104.01" r="1.2"/>
<path d="M254.13 104.01v-20.00" stroke="currentColor" fill="none"/>
<use x="290.53" y="104.01" xlink:href="#hd"/>
<path d="M294.03 104.01v-21.00" stroke="currentColor" fill="none"/>
<path fill="currentColor"
	d="M294.03 83.01c0.9 3.7 9.1 6.4 6 12.4
	c1 -5.4 -4.2 -8.4 -6 -8.4
M294.03 88.41c0.9 3.7 9.1 6.4 6 12.4
	c1 -5.4 -4.2 -8.4 -6 -8.4
"/>
<use x="308.23" y="110.01" xlink:href="#hd"/>
<path d="M311.73 110.01v-21.00" stroke="currentColor" fill="none"/>
<path fill="currentColor"
	d="M311.73 89.01c0.9 3.7 9.1 6.4 6 12.4
	c1 -5.4 -4.2 -8.4 -6 -8.4
M311.73 94.41c0.9 3.7 9.1 6.4 6 12.4
	c1 -5.4 -4.2 -8.4 -6 -8.4
"/>
<use x="325.93" y="116.01" xlink:href="#hd"/>
<path d="M329.43 116.01v-20.00" stroke="currentColor" fill="none"/>
<defs>
<path id="r8e" fill="currentColor" d="m 0 0
	c-1.5 1.5 -2.4 2 -3.6 2
	c2.4 -2.8 -2.8 -4 -2.8 -1.2
	c0 2.7 4.3 2.4 5.9 0.6"/>
<g id="r8">
	<path d="m3.3 -4l-3.4 9.6" stroke="currentColor" fill="none"/>
	<use x="3.4" y="-4" xlink:href="#r8e"/>
</g>
</defs>
<use x="357.03" y="101.01" xlink:href="#r8"/>
<use x="379.13" y="119.01" xlink:href="#hl"/>
<use x="379.13" y="125.01" xlink:href="#hl"/>
<use x="379.13" y="125.01" xlink:href="#hd"/>
<path d="M382.63 125.01v-24.00" stroke="currentColor" fill="none"/>
<path fill="currentColor"
	d="M382.63 101.01c0.9 3.7 9.1 6.4 6 12.4
	c1 -5.4 -4.2 -8.4 -6 -8.4
M382.63 106.41c0.9 3.7 9.1 6.4 6 12.4
	c1 -5.4 -4.2 -8.4 -6 -8.4
"/>
<use x="408.73" y="119.01" xlink:href="#hl"/>
<use x="408.73" y="125.01" xlink:href="#hl"/>
<use x="408.73" y="125.01" xlink:href="#hd"/>
<path d="M412.23 125.01v-24.00" stroke="currentColor" fill="none"/>
<path fill="currentColor"
	d="M412.23 101.01c0.9 3.7 9.1 6.4 6 12.4
	c1 -5.4 -4.2 -8.4 -6 -8.4
M412.23 106.41c0.9 3.7 9.1 6.4 6 12.4
	c1 -5.4 -4.2 -8.4 -6 -8.4
"/>
<use x="426.73" y="119.01" xlink:href="#hl"/>
<use x="426.73" y="122.01" xlink:href="#hd"/>
<circle fill="currentColor" cx="434.73" cy="122.01" r="1.2"/>
<path d="M430.23 122.01v-21.00" stroke="currentColor" fill="none"/>
<path fill="currentColor"
	d="M469.43 82.41l89.10 -9.70v3.20l-89.10 9.70"/>
<path fill="currentColor"
	d="M552.23 78.51l6.00 -0.70v3.20l-6.00 0.70"/>
<use x="466.23" y="116.01" xlink:href="#hd"/>
<path d="M469.73 116.01v-32.60" stroke="currentColor" fill="none"/>
<use x="488.33" y="110.01" xlink:href="#hd"/>
<path d="M491.83 110.01v-29.00" stroke="currentColor" fill="none"/>
<use x="510.53" y="104.01" xlink:href="#hd"/>
<path d="M514.03 104.01v-25.40" stroke="currentColor" fill="none"/>
<use x="532.63" y="101.01" xlink:href="#hd"/>
<path d="M536.13 101.01v-24.80" stroke="currentColor" fill="none"/>
<use x="554.73" y="95.01" xlink:href="#hd"/>
<path d="M558.23 95.01v-21.20" stroke="currentColor" fill="none"/>
<use x="581.23" y="95.01" xlink:href="#hd"/>
<path d="M577.73 95.01v22.00" stroke="currentColor" fill="none"/>
<path fill="currentColor"
	d="M577.73 117.01c0.9 -3.7 9.1 -6.4 6 -12.4
	c1 5.4 -4.2 8.4 -6 8.4
M577.73 111.61c0.9 -3.7 9.1 -6.4 6 -12.4
	c1 5.4 -4.2 8.4 -6 8.4
"/>
<use x="598.73" y="95.01" xlink:href="#hd"/>
<circle fill="currentColor" cx="606.73" cy="92.01" r="1.2"/>
<path d="M595.23 95.01v20.00" stroke="currentColor" fill="none"/>
<use x="638.53" y="95.01" xlink:href="#hd"/>
<use x="629.53" y="95.01" xlink:href="#ft0"/>
<path d="M635.03 95.01v20.00" stroke="currentColor" fill="none"/>
<path fill="currentColor"
	d="M635.03 115.01c0.6 -5.6 9.6 -9 5.6 -18.4
	c1.6 6 -1.3 11.6 -5.6 12.8
"/>
<use x="660.73" y="104.01" xlink:href="#hd"/>
<path d="M664.23 104.01v-20.00" stroke="currentColor" fill="none"/>
<path fill="currentColor"
	d="M95.33 77.01c5.18 -5.09 27.70 -5.09 32.87 -0.00
	l0.00 -0.23c-6.16 -6.86 -26.71 -6.86 -32.87 0.23"/>
<path fill="currentColor"
	d="M170.03 89.01c5.18 -5.09 27.70 -5.09 32.87 -0.00
	l0.00 -0.23c-6.16 -6.86 -26.71 -6.86 -32.87 0.23"/>
<path fill="currentColor"
	d="M254.13 106.01c5.18 5.09 27.70 5.09 32.87 -0.00
	l0.00 0.23c-6.16 6.86 -26.71 6.86 -32.87 -0.23"/>
<path fill="currentColor"
	d="M382.63 125.01c3.55 4.91 18.99 4.91 22.54 -0.00
	l0.00 0.22c-4.23 6.68 -18.31 6.68 -22.54 -0.22"/>
<path fill="currentColor"
	d="M558.23 95.01c3.08 4.85 16.48 4.85 19.56 -0.00
	l0.00 0.22c-3.67 6.63 -15.90 6.63 -19.56 -0.22"/>
</g>
</svg>
