<?xml version="1.0" standalone="no"?>
<!DOCTYPE svg PUBLIC "-//W3C//DTD SVG 1.1//EN"
	"http://www.w3.org/Graphics/SVG/1.1/DTD/svg11.dtd">
<svg xmlns="http://www.w3.org/2000/svg" version="1.1"
	xmlns:xlink="http://www.w3.org/1999/xlink"
	xml:space='preserve' color="black"
	width="7.38in" height="1.74in" viewBox="0 0 531 125">
<title>8435.abc (8435) tune 1</title>
<!-- Creator: abcm2ps-7.8.14 -->
<!-- CreationDate: Mar 13, 2016 18:54 -->
<!-- CommandLine: -qxg 8435.abc -O ../svgs/8435.svg -->
<g transform="scale(0.750)" stroke-width="0.70" font-family="Times" font-size="20.00">
<text x="354.13" y="21.67" text-anchor="middle">8435.  Symphony No. 1 in E Flat, 2nd. Mvt. - 2nd. Theme</text>
</g>
<g transform="scale(0.750)" stroke-width="0.70" font-family="Times" font-size="14.00" font-style="italic">
<text x="694.93" y="45.34" text-anchor="end">Alexander Borodin</text>
</g>
<g transform="scale(0.525)" stroke-width="0.70" font-family="Times" font-size="14.00" font-style="italic">
<defs>
<ellipse id="hd" rx="4.1" ry="2.9"
	transform="rotate(-20)" fill="currentColor"/>
</defs>
<use x="122.76" y="94.16" xlink:href="#hd"/>
<path d="M126.26 94.16v-20.00" stroke="currentColor" fill="none"/>
</g>
<g transform="scale(0.750)" stroke-width="0.70" font-family="Times" font-size="15.00" font-weight="bold">
<text x="93.63" y="68.01">= 120</text>
<path stroke="currentColor" fill="none"
	d="M122.33 144.01v-24.00"/>
<path stroke="currentColor" fill="none"
	d="M211.53 144.01v-24.00"/>
<path stroke="currentColor" fill="none"
	d="M300.63 144.01v-24.00"/>
<path stroke="currentColor" fill="none"
	d="M389.83 144.01v-24.00"/>
<path stroke="currentColor" fill="none"
	d="M474.23 144.01v-24.00"/>
<path stroke="currentColor" fill="none"
	d="M558.63 144.01v-24.00"/>
<path stroke="currentColor" fill="none"
	d="M643.03 144.01v-24.00"/>
<path stroke="currentColor" fill="none"
	d="M13.33 144.01h681.60m-681.60 -6h681.60m-681.60 -6h681.60m-681.60 -6h681.60m-681.60 -6h681.60"/>
<defs>
<path id="utclef" fill="currentColor" d="m-50 -90
	c-72 -41 -72 -158 52 -188
	c150 -10 220 188 90 256
	c-114 52 -275 0 -293 -136
	c-15 -181 93 -229 220 -334
	c88 -87 79 -133 62 -210
	c-51 33 -94 105 -89 186
	c17 267 36 374 49 574
	c6 96 -19 134 -77 135
	c-80 1 -126 -93 -61 -133
	c85 -41 133 101 31 105
	c23 17 92 37 90 -92
	c-10 -223 -39 -342 -50 -617
	c0 -90 0 -162 96 -232
	c56 72 63 230 22 289
	c-74 106 -257 168 -255 316
	c9 153 148 185 252 133
	c86 -65 29 -192 -80 -176
	c-71 12 -105 67 -59 124"/>
<use id="tclef" transform="scale(0.045)"
	xlink:href="#utclef"/>
</defs>
<use x="25.33" y="144.01" xlink:href="#tclef"/>
<defs>
<path id="uflat" fill="currentColor" d="
	m100 -746
	h32
	v734
	l-32 4
	m32 -332
	c46 -72 152 -90 208 -20
	c100 110 -120 326 -208 348
	m0 -28
	c54 0 200 -206 130 -290
	c-50 -60 -130 -4 -130 34"/>
<use id="ft0" transform="translate(-3.5,3.5) scale(0.018)"
	xlink:href="#uflat"/>
</defs>
<use x="40.33" y="132.01" xlink:href="#ft0"/>
<use x="45.83" y="123.01" xlink:href="#ft0"/>
<use x="51.33" y="135.01" xlink:href="#ft0"/>
<g font-family="serif" font-size="16" font-weight="bold" font-style="normal"
	transform="translate(67.33,144.01) scale(1.2,1)">
	<text y="-1" text-anchor="middle">8</text>
	<text y="-13" text-anchor="middle">3</text>
</g>
<defs>
<path id="hl" stroke="currentColor" d="m-6 0h12"/>
</defs>
<use x="85.33" y="114.01" xlink:href="#hl"/>
<use x="85.33" y="108.01" xlink:href="#hl"/>
<use x="85.33" y="102.01" xlink:href="#hl"/>
<use x="85.33" y="96.01" xlink:href="#hl"/>
<use x="85.33" y="90.01" xlink:href="#hl"/>
<use x="85.33" y="84.01" xlink:href="#hl"/>
<use x="85.33" y="78.01" xlink:href="#hl"/>
<use x="85.33" y="78.01" xlink:href="#hd"/>
<circle fill="currentColor" cx="93.33" cy="75.01" r="1.2"/>
<path d="M81.83 78.01v54.00" stroke="currentColor" fill="none"/>
<path fill="currentColor"
	d="M132.93 132.21l52.40 0.00v-3.20l-52.40 -0.00"/>
<use x="136.73" y="114.01" xlink:href="#hl"/>
<use x="136.73" y="108.01" xlink:href="#hl"/>
<use x="136.73" y="102.01" xlink:href="#hl"/>
<use x="136.73" y="96.01" xlink:href="#hl"/>
<use x="136.73" y="90.01" xlink:href="#hl"/>
<use x="136.73" y="84.01" xlink:href="#hl"/>
<use x="136.73" y="81.01" xlink:href="#hd"/>
<path d="M133.23 81.01v50.20" stroke="currentColor" fill="none"/>
<use x="162.63" y="114.01" xlink:href="#hl"/>
<use x="162.63" y="108.01" xlink:href="#hl"/>
<use x="162.63" y="102.01" xlink:href="#hl"/>
<use x="162.63" y="96.01" xlink:href="#hl"/>
<use x="162.63" y="90.01" xlink:href="#hl"/>
<use x="162.63" y="84.01" xlink:href="#hl"/>
<use x="162.63" y="84.01" xlink:href="#hd"/>
<path d="M159.13 84.01v47.20" stroke="currentColor" fill="none"/>
<use x="188.53" y="114.01" xlink:href="#hl"/>
<use x="188.53" y="108.01" xlink:href="#hl"/>
<use x="188.53" y="102.01" xlink:href="#hl"/>
<use x="188.53" y="96.01" xlink:href="#hl"/>
<use x="188.53" y="90.01" xlink:href="#hl"/>
<use x="188.53" y="87.01" xlink:href="#hd"/>
<path d="M185.03 87.01v44.20" stroke="currentColor" fill="none"/>
<path fill="currentColor"
	d="M222.03 132.21l52.40 0.00v-3.20l-52.40 -0.00"/>
<use x="225.83" y="114.01" xlink:href="#hl"/>
<use x="225.83" y="108.01" xlink:href="#hl"/>
<use x="225.83" y="102.01" xlink:href="#hl"/>
<use x="225.83" y="96.01" xlink:href="#hl"/>
<use x="225.83" y="90.01" xlink:href="#hl"/>
<use x="225.83" y="90.01" xlink:href="#hd"/>
<path d="M222.33 90.01v41.20" stroke="currentColor" fill="none"/>
<use x="251.73" y="114.01" xlink:href="#hl"/>
<use x="251.73" y="108.01" xlink:href="#hl"/>
<use x="251.73" y="102.01" xlink:href="#hl"/>
<use x="251.73" y="96.01" xlink:href="#hl"/>
<use x="251.73" y="93.01" xlink:href="#hd"/>
<defs>
<path id="unat" fill="currentColor" d="
	m96 -750
	h-32
	v716
	l32 -8
	l182 -54
	v282
	h32
	v-706
	l-34 10
	l-180 50
	v-290
	m0 592
	v-190
	l182 -52
	v188"/>
<use id="nt0" transform="translate(-3,5) scale(0.018)"
	xlink:href="#unat"/>
</defs>
<use x="242.73" y="93.01" xlink:href="#nt0"/>
<path d="M248.23 93.01v38.20" stroke="currentColor" fill="none"/>
<use x="277.63" y="114.01" xlink:href="#hl"/>
<use x="277.63" y="108.01" xlink:href="#hl"/>
<use x="277.63" y="102.01" xlink:href="#hl"/>
<use x="277.63" y="96.01" xlink:href="#hl"/>
<use x="277.63" y="96.01" xlink:href="#hd"/>
<path d="M274.13 96.01v35.20" stroke="currentColor" fill="none"/>
<path fill="currentColor"
	d="M311.23 132.21l52.40 0.00v-3.20l-52.40 -0.00"/>
<use x="315.03" y="114.01" xlink:href="#hl"/>
<use x="315.03" y="108.01" xlink:href="#hl"/>
<use x="315.03" y="102.01" xlink:href="#hl"/>
<use x="315.03" y="99.01" xlink:href="#hd"/>
<path d="M311.53 99.01v32.20" stroke="currentColor" fill="none"/>
<use x="340.93" y="114.01" xlink:href="#hl"/>
<use x="340.93" y="108.01" xlink:href="#hl"/>
<use x="340.93" y="102.01" xlink:href="#hl"/>
<use x="340.93" y="102.01" xlink:href="#hd"/>
<path d="M337.43 102.01v29.20" stroke="currentColor" fill="none"/>
<use x="366.83" y="114.01" xlink:href="#hl"/>
<use x="366.83" y="108.01" xlink:href="#hl"/>
<use x="366.83" y="105.01" xlink:href="#hd"/>
<path d="M363.33 105.01v26.20" stroke="currentColor" fill="none"/>
<defs>
<path id="r8e" fill="currentColor" d="m 0 0
	c-1.5 1.5 -2.4 2 -3.6 2
	c2.4 -2.8 -2.8 -4 -2.8 -1.2
	c0 2.7 4.3 2.4 5.9 0.6"/>
<g id="r32">
	<path d="m4.8 -10l-5.5 21.6" stroke="currentColor" fill="none"/>
	<use x="4.9" y="-10" xlink:href="#r8e"/>
	<use x="3.4" y="-4" xlink:href="#r8e"/>
	<use x="1.9" y="2" xlink:href="#r8e"/>
</g>
</defs>
<use x="404.13" y="132.01" xlink:href="#r32"/>
<use x="418.53" y="114.01" xlink:href="#hl"/>
<use x="418.53" y="108.01" xlink:href="#hl"/>
<use x="418.53" y="102.01" xlink:href="#hl"/>
<use x="418.53" y="96.01" xlink:href="#hl"/>
<use x="418.53" y="96.01" xlink:href="#hd"/>
<circle fill="currentColor" cx="426.53" cy="93.01" r="1.2"/>
<path d="M415.03 96.01v36.00" stroke="currentColor" fill="none"/>
<path fill="currentColor"
	d="M415.03 132.01c0.9 -3.7 9.1 -6.4 6 -12.4
	c1 5.4 -4.2 8.4 -6 8.4
M415.03 126.61c0.9 -3.7 9.1 -6.4 6 -12.4
	c1 5.4 -4.2 8.4 -6 8.4
"/>
<defs>
<path id="r4" fill="currentColor" d="m-1 -8.5
	l3.6 5.1 -2.1 5.2 2.2 4.3
	c-2.6 -2.3 -5.1 0 -2.4 2.6
	c-4.8 -3 -1.5 -6.9 1.4 -4.1
	l-3.1 -4.5 1.9 -5.1 -1.5 -3.5"/>
</defs>
<use x="441.73" y="132.01" xlink:href="#r4"/>
<use x="488.63" y="132.01" xlink:href="#r32"/>
<use x="502.93" y="114.01" xlink:href="#hl"/>
<use x="502.93" y="108.01" xlink:href="#hl"/>
<use x="502.93" y="102.01" xlink:href="#hl"/>
<use x="502.93" y="96.01" xlink:href="#hl"/>
<use x="502.93" y="96.01" xlink:href="#hd"/>
<circle fill="currentColor" cx="510.93" cy="93.01" r="1.2"/>
<path d="M499.43 96.01v36.00" stroke="currentColor" fill="none"/>
<path fill="currentColor"
	d="M499.43 132.01c0.9 -3.7 9.1 -6.4 6 -12.4
	c1 5.4 -4.2 8.4 -6 8.4
M499.43 126.61c0.9 -3.7 9.1 -6.4 6 -12.4
	c1 5.4 -4.2 8.4 -6 8.4
"/>
<use x="526.13" y="132.01" xlink:href="#r4"/>
<use x="573.03" y="132.01" xlink:href="#r32"/>
<use x="587.43" y="114.01" xlink:href="#hl"/>
<use x="587.43" y="108.01" xlink:href="#hl"/>
<use x="587.43" y="102.01" xlink:href="#hl"/>
<use x="587.43" y="96.01" xlink:href="#hl"/>
<use x="587.43" y="96.01" xlink:href="#hd"/>
<circle fill="currentColor" cx="595.43" cy="93.01" r="1.2"/>
<path d="M583.93 96.01v36.00" stroke="currentColor" fill="none"/>
<path fill="currentColor"
	d="M583.93 132.01c0.9 -3.7 9.1 -6.4 6 -12.4
	c1 5.4 -4.2 8.4 -6 8.4
M583.93 126.61c0.9 -3.7 9.1 -6.4 6 -12.4
	c1 5.4 -4.2 8.4 -6 8.4
"/>
<use x="610.53" y="132.01" xlink:href="#r4"/>
<use x="657.43" y="132.01" xlink:href="#r32"/>
<use x="671.83" y="114.01" xlink:href="#hl"/>
<use x="671.83" y="108.01" xlink:href="#hl"/>
<use x="671.83" y="102.01" xlink:href="#hl"/>
<use x="671.83" y="99.01" xlink:href="#hd"/>
<circle fill="currentColor" cx="679.83" cy="99.01" r="1.2"/>
<path d="M668.33 99.01v33.00" stroke="currentColor" fill="none"/>
<path fill="currentColor"
	d="M668.33 132.01c0.9 -3.7 9.1 -6.4 6 -12.4
	c1 5.4 -4.2 8.4 -6 8.4
M668.33 126.61c0.9 -3.7 9.1 -6.4 6 -12.4
	c1 5.4 -4.2 8.4 -6 8.4
"/>
</g>
</svg>
