<?xml version="1.0" standalone="no"?>
<!DOCTYPE svg PUBLIC "-//W3C//DTD SVG 1.1//EN"
	"http://www.w3.org/Graphics/SVG/1.1/DTD/svg11.dtd">
<svg xmlns="http://www.w3.org/2000/svg" version="1.1"
	xmlns:xlink="http://www.w3.org/1999/xlink"
	xml:space='preserve' color="black"
	width="7.38in" height="1.42in" viewBox="0 0 531 102">
<title>8481.abc (8481) tune 1</title>
<!-- Creator: abcm2ps-7.8.14 -->
<!-- CreationDate: Mar 13, 2016 18:54 -->
<!-- CommandLine: -qxg 8481.abc -O ../svgs/8481.svg -->
<g transform="scale(0.750)" stroke-width="0.70" font-family="Times" font-size="20.00">
<text x="354.13" y="21.67" text-anchor="middle">8481.  Concerto No. 2 in B Flat, Op. 83, Pft. and Orch., 2nd. Mvt. - 1st. Theme</text>
</g>
<g transform="scale(0.750)" stroke-width="0.70" font-family="Times" font-size="14.00" font-style="italic">
<text x="694.93" y="45.34" text-anchor="end">Johannes Brahms</text>
</g>
<g transform="scale(0.525)" stroke-width="0.70" font-family="Times" font-size="14.00" font-style="italic">
<defs>
<ellipse id="hd" rx="4.1" ry="2.9"
	transform="rotate(-20)" fill="currentColor"/>
</defs>
<use x="107.04" y="94.16" xlink:href="#hd"/>
<path d="M110.54 94.16v-20.00" stroke="currentColor" fill="none"/>
</g>
<g transform="scale(0.750)" stroke-width="0.70" font-family="Times" font-size="15.00" font-weight="bold">
<text x="82.63" y="68.01">= 120</text>
<path stroke="currentColor" fill="none"
	d="M157.53 113.01v-24.00"/>
<path stroke="currentColor" fill="none"
	d="M235.93 113.01v-24.00"/>
<path stroke="currentColor" fill="none"
	d="M279.83 113.01v-24.00"/>
<path stroke="currentColor" fill="none"
	d="M323.73 113.01v-24.00"/>
<path stroke="currentColor" fill="none"
	d="M402.13 113.01v-24.00"/>
<path stroke="currentColor" fill="none"
	d="M480.53 113.01v-24.00"/>
<path stroke="currentColor" fill="none"
	d="M558.73 113.01v-24.00"/>
<path stroke="currentColor" fill="none"
	d="M637.13 113.01v-24.00"/>
<path stroke="currentColor" fill="none"
	d="M13.33 113.01h681.60m-681.60 -6h681.60m-681.60 -6h681.60m-681.60 -6h681.60m-681.60 -6h681.60"/>
<defs>
<path id="utclef" fill="currentColor" d="m-50 -90
	c-72 -41 -72 -158 52 -188
	c150 -10 220 188 90 256
	c-114 52 -275 0 -293 -136
	c-15 -181 93 -229 220 -334
	c88 -87 79 -133 62 -210
	c-51 33 -94 105 -89 186
	c17 267 36 374 49 574
	c6 96 -19 134 -77 135
	c-80 1 -126 -93 -61 -133
	c85 -41 133 101 31 105
	c23 17 92 37 90 -92
	c-10 -223 -39 -342 -50 -617
	c0 -90 0 -162 96 -232
	c56 72 63 230 22 289
	c-74 106 -257 168 -255 316
	c9 153 148 185 252 133
	c86 -65 29 -192 -80 -176
	c-71 12 -105 67 -59 124"/>
<use id="tclef" transform="scale(0.045)"
	xlink:href="#utclef"/>
</defs>
<use x="25.33" y="113.01" xlink:href="#tclef"/>
<defs>
<path id="uflat" fill="currentColor" d="
	m100 -746
	h32
	v734
	l-32 4
	m32 -332
	c46 -72 152 -90 208 -20
	c100 110 -120 326 -208 348
	m0 -28
	c54 0 200 -206 130 -290
	c-50 -60 -130 -4 -130 34"/>
<use id="ft0" transform="translate(-3.5,3.5) scale(0.018)"
	xlink:href="#uflat"/>
</defs>
<use x="40.33" y="101.01" xlink:href="#ft0"/>
<g font-family="serif" font-size="16" font-weight="bold" font-style="normal"
	transform="translate(56.33,113.01) scale(1.2,1)">
	<text y="-1" text-anchor="middle">4</text>
	<text y="-13" text-anchor="middle">3</text>
</g>
<path fill="currentColor"
	d="M70.53 113.21l31.30 0.00v-3.20l-31.30 -0.00"/>
<use x="74.33" y="95.01" xlink:href="#hd"/>
<path d="M70.83 95.01v17.20" stroke="currentColor" fill="none"/>
<use x="89.63" y="92.01" xlink:href="#hd"/>
<path d="M86.13 92.01v20.20" stroke="currentColor" fill="none"/>
<use x="104.93" y="95.01" xlink:href="#hd"/>
<path d="M101.43 95.01v17.20" stroke="currentColor" fill="none"/>
<use x="121.73" y="92.01" xlink:href="#hd"/>
<path d="M118.23 92.01v20.00" stroke="currentColor" fill="none"/>
<path fill="currentColor"
	d="M118.23 112.01c0.6 -5.6 9.6 -9 5.6 -18.4
	c1.6 6 -1.3 11.6 -5.6 12.8
"/>
<use x="138.63" y="89.01" xlink:href="#hd"/>
<path d="M135.13 89.01v20.00" stroke="currentColor" fill="none"/>
<defs>
<path id="hl" stroke="currentColor" d="m-6 0h12"/>
</defs>
<use x="170.03" y="83.01" xlink:href="#hl"/>
<use x="170.03" y="83.01" xlink:href="#hd"/>
<path d="M166.53 83.01v20.00" stroke="currentColor" fill="none"/>
<use x="193.53" y="83.01" xlink:href="#hl"/>
<use x="193.53" y="77.01" xlink:href="#hl"/>
<use x="193.53" y="74.01" xlink:href="#hd"/>
<path d="M190.03 74.01v27.00" stroke="currentColor" fill="none"/>
<use x="217.03" y="83.01" xlink:href="#hl"/>
<use x="217.03" y="77.01" xlink:href="#hl"/>
<use x="217.03" y="71.01" xlink:href="#hl"/>
<use x="217.03" y="65.01" xlink:href="#hl"/>
<use x="217.03" y="62.01" xlink:href="#hd"/>
<path d="M213.53 62.01v39.00" stroke="currentColor" fill="none"/>
<use x="248.93" y="83.01" xlink:href="#hl"/>
<use x="248.93" y="77.01" xlink:href="#hl"/>
<use x="248.93" y="71.01" xlink:href="#hl"/>
<use x="248.93" y="65.01" xlink:href="#hl"/>
<defs>
<path id="Hd" fill="currentColor" d="m3 -1.6
	c-1 -1.8 -7 1.4 -6 3.2
	c1 1.8 7 -1.4 6 -3.2
	m0.5 -0.3
	c2 3.8 -5 7.6 -7 3.8
	c-2 -3.8 5 -7.6 7 -3.8"/>
</defs>
<use x="248.93" y="62.01" xlink:href="#Hd"/>
<circle fill="currentColor" cx="257.93" cy="62.01" r="1.2"/>
<path d="M245.43 62.01v39.00" stroke="currentColor" fill="none"/>
<use x="292.83" y="83.01" xlink:href="#hl"/>
<use x="292.83" y="77.01" xlink:href="#hl"/>
<use x="292.83" y="71.01" xlink:href="#hl"/>
<use x="292.83" y="65.01" xlink:href="#hl"/>
<use x="292.83" y="62.01" xlink:href="#Hd"/>
<circle fill="currentColor" cx="301.83" cy="62.01" r="1.2"/>
<path d="M289.33 62.01v39.00" stroke="currentColor" fill="none"/>
<use x="336.23" y="83.01" xlink:href="#hl"/>
<use x="336.23" y="77.01" xlink:href="#hl"/>
<use x="336.23" y="71.01" xlink:href="#hl"/>
<use x="336.23" y="65.01" xlink:href="#hl"/>
<use x="336.23" y="62.01" xlink:href="#hd"/>
<path d="M332.73 62.01v39.00" stroke="currentColor" fill="none"/>
<use x="359.73" y="83.01" xlink:href="#hl"/>
<use x="359.73" y="77.01" xlink:href="#hl"/>
<use x="359.73" y="71.01" xlink:href="#hl"/>
<use x="359.73" y="65.01" xlink:href="#hl"/>
<use x="359.73" y="65.01" xlink:href="#hd"/>
<path d="M356.23 65.01v36.00" stroke="currentColor" fill="none"/>
<use x="383.23" y="83.01" xlink:href="#hl"/>
<use x="383.23" y="77.01" xlink:href="#hl"/>
<use x="383.23" y="71.01" xlink:href="#hl"/>
<use x="383.23" y="68.01" xlink:href="#hd"/>
<path d="M379.73 68.01v33.00" stroke="currentColor" fill="none"/>
<use x="414.63" y="83.01" xlink:href="#hl"/>
<use x="414.63" y="77.01" xlink:href="#hl"/>
<use x="414.63" y="71.01" xlink:href="#hl"/>
<use x="414.63" y="68.01" xlink:href="#hd"/>
<path d="M411.13 68.01v33.00" stroke="currentColor" fill="none"/>
<use x="438.13" y="83.01" xlink:href="#hl"/>
<use x="438.13" y="77.01" xlink:href="#hl"/>
<use x="438.13" y="71.01" xlink:href="#hl"/>
<use x="438.13" y="65.01" xlink:href="#hl"/>
<use x="438.13" y="65.01" xlink:href="#hd"/>
<path d="M434.63 65.01v36.00" stroke="currentColor" fill="none"/>
<use x="461.63" y="83.01" xlink:href="#hl"/>
<use x="461.63" y="77.01" xlink:href="#hl"/>
<use x="461.63" y="71.01" xlink:href="#hl"/>
<use x="461.63" y="68.01" xlink:href="#hd"/>
<path d="M458.13 68.01v33.00" stroke="currentColor" fill="none"/>
<use x="493.03" y="83.01" xlink:href="#hl"/>
<use x="493.03" y="77.01" xlink:href="#hl"/>
<use x="493.03" y="71.01" xlink:href="#hl"/>
<use x="493.03" y="68.01" xlink:href="#hd"/>
<path d="M489.53 68.01v33.00" stroke="currentColor" fill="none"/>
<use x="516.53" y="83.01" xlink:href="#hl"/>
<use x="516.53" y="77.01" xlink:href="#hl"/>
<use x="516.53" y="71.01" xlink:href="#hl"/>
<use x="516.53" y="71.01" xlink:href="#hd"/>
<path d="M513.03 71.01v30.00" stroke="currentColor" fill="none"/>
<defs>
<path id="r4" fill="currentColor" d="m-1 -8.5
	l3.6 5.1 -2.1 5.2 2.2 4.3
	c-2.6 -2.3 -5.1 0 -2.4 2.6
	c-4.8 -3 -1.5 -6.9 1.4 -4.1
	l-3.1 -4.5 1.9 -5.1 -1.5 -3.5"/>
</defs>
<use x="539.73" y="101.01" xlink:href="#r4"/>
<use x="571.23" y="83.01" xlink:href="#hl"/>
<use x="571.23" y="77.01" xlink:href="#hl"/>
<use x="571.23" y="74.01" xlink:href="#hd"/>
<path d="M567.73 74.01v27.00" stroke="currentColor" fill="none"/>
<use x="594.63" y="83.01" xlink:href="#hl"/>
<use x="594.63" y="77.01" xlink:href="#hl"/>
<use x="594.63" y="71.01" xlink:href="#hl"/>
<use x="594.63" y="71.01" xlink:href="#hd"/>
<path d="M591.13 71.01v30.00" stroke="currentColor" fill="none"/>
<use x="618.13" y="83.01" xlink:href="#hl"/>
<use x="618.13" y="77.01" xlink:href="#hl"/>
<use x="618.13" y="71.01" xlink:href="#hl"/>
<use x="618.13" y="65.01" xlink:href="#hl"/>
<use x="618.13" y="62.01" xlink:href="#hd"/>
<path d="M614.63 62.01v39.00" stroke="currentColor" fill="none"/>
<use x="649.63" y="83.01" xlink:href="#hl"/>
<use x="649.63" y="77.01" xlink:href="#hl"/>
<use x="649.63" y="71.01" xlink:href="#hl"/>
<use x="649.63" y="65.01" xlink:href="#hl"/>
<use x="649.63" y="62.01" xlink:href="#hd"/>
<path d="M646.13 62.01v39.00" stroke="currentColor" fill="none"/>
<use x="673.03" y="83.01" xlink:href="#hl"/>
<use x="673.03" y="77.01" xlink:href="#hl"/>
<use x="673.03" y="71.01" xlink:href="#hl"/>
<use x="673.03" y="65.01" xlink:href="#hl"/>
<use x="673.03" y="65.01" xlink:href="#hd"/>
<path d="M669.53 65.01v36.00" stroke="currentColor" fill="none"/>
<path fill="currentColor"
	d="M220.53 60.01c3.93 -4.95 21.02 -4.95 24.94 -0.00
	l0.00 -0.22c-4.68 -6.72 -20.27 -6.72 -24.94 0.22"/>
<path fill="currentColor"
	d="M252.43 60.01c5.81 -5.16 31.10 -5.16 36.91 -0.00
	l0.00 -0.24c-6.92 -6.93 -29.99 -6.93 -36.91 0.24"/>
<path fill="currentColor"
	d="M296.33 60.01c5.73 -5.16 30.68 -5.16 36.41 -0.00
	l0.00 -0.24c-6.83 -6.92 -29.58 -6.92 -36.41 0.24"/>
<path fill="currentColor"
	d="M386.73 66.01c3.85 -4.94 20.59 -4.94 24.44 -0.00
	l0.00 -0.22c-4.58 -6.72 -19.86 -6.72 -24.44 0.22"/>
<path fill="currentColor"
	d="M465.13 66.01c3.85 -4.94 20.59 -4.94 24.44 -0.00
	l0.00 -0.22c-4.58 -6.72 -19.86 -6.72 -24.44 0.22"/>
<path fill="currentColor"
	d="M621.63 60.01c3.85 -4.94 20.59 -4.94 24.44 -0.00
	l0.00 -0.22c-4.58 -6.72 -19.86 -6.72 -24.44 0.22"/>
</g>
</svg>
