<?xml version="1.0" standalone="no"?>
<!DOCTYPE svg PUBLIC "-//W3C//DTD SVG 1.1//EN"
	"http://www.w3.org/Graphics/SVG/1.1/DTD/svg11.dtd">
<svg xmlns="http://www.w3.org/2000/svg" version="1.1"
	xmlns:xlink="http://www.w3.org/1999/xlink"
	xml:space='preserve' color="black"
	width="7.38in" height="1.58in" viewBox="0 0 531 114">
<title>8495.abc (8495) tune 1</title>
<!-- Creator: abcm2ps-7.8.14 -->
<!-- CreationDate: Mar 13, 2016 18:54 -->
<!-- CommandLine: -qxg 8495.abc -O ../svgs/8495.svg -->
<g transform="scale(0.750)" stroke-width="0.70" font-family="Times" font-size="20.00">
<text x="354.13" y="21.67" text-anchor="middle">8495.  Concerto in A Minor, Op. 102, Vn. Cl. and Orch., 1st. Mvt. - 1st. Theme</text>
</g>
<g transform="scale(0.750)" stroke-width="0.70" font-family="Times" font-size="14.00" font-style="italic">
<text x="694.93" y="45.34" text-anchor="end">Johannes Brahms</text>
</g>
<g transform="scale(0.525)" stroke-width="0.70" font-family="Times" font-size="14.00" font-style="italic">
<defs>
<ellipse id="hd" rx="4.1" ry="2.9"
	transform="rotate(-20)" fill="currentColor"/>
</defs>
<use x="89.19" y="94.16" xlink:href="#hd"/>
<path d="M92.69 94.16v-20.00" stroke="currentColor" fill="none"/>
</g>
<g transform="scale(0.750)" stroke-width="0.70" font-family="Times" font-size="15.00" font-weight="bold">
<text x="70.13" y="68.01">= 120</text>
<path stroke="currentColor" fill="none"
	d="M172.13 129.01v-24.00"/>
<path stroke="currentColor" fill="none"
	d="M295.03 129.01v-24.00"/>
<path stroke="currentColor" fill="none"
	d="M430.33 129.01v-24.00"/>
<path stroke="currentColor" fill="none"
	d="M550.63 129.01v-24.00"/>
<path stroke="currentColor" fill="none"
	d="M640.03 129.01v-24.00"/>
<path stroke="currentColor" fill="none"
	d="M13.33 129.01h681.60m-681.60 -6h681.60m-681.60 -6h681.60m-681.60 -6h681.60m-681.60 -6h681.60"/>
<path stroke="currentColor" fill="none"
	d="M303.53 84.61v-3l55.30 -6.00v3"/>
<rect x="324.13" y="72.61" width="14.00" height="12" fill="white"/>
<text font-family="serif" font-size="12" font-style="italic" font-weight="normal"
	x="331.13" y="82.61" text-anchor="middle">3</text>
<defs>
<path id="utclef" fill="currentColor" d="m-50 -90
	c-72 -41 -72 -158 52 -188
	c150 -10 220 188 90 256
	c-114 52 -275 0 -293 -136
	c-15 -181 93 -229 220 -334
	c88 -87 79 -133 62 -210
	c-51 33 -94 105 -89 186
	c17 267 36 374 49 574
	c6 96 -19 134 -77 135
	c-80 1 -126 -93 -61 -133
	c85 -41 133 101 31 105
	c23 17 92 37 90 -92
	c-10 -223 -39 -342 -50 -617
	c0 -90 0 -162 96 -232
	c56 72 63 230 22 289
	c-74 106 -257 168 -255 316
	c9 153 148 185 252 133
	c86 -65 29 -192 -80 -176
	c-71 12 -105 67 -59 124"/>
<use id="tclef" transform="scale(0.045)"
	xlink:href="#utclef"/>
</defs>
<use x="25.33" y="129.01" xlink:href="#tclef"/>
<g font-family="serif" font-size="16" font-weight="bold" font-style="normal"
	transform="translate(43.83,129.01) scale(1.2,1)">
	<text y="-1" text-anchor="middle">4</text>
	<text y="-13" text-anchor="middle">4</text>
</g>
<defs>
<path id="hl" stroke="currentColor" d="m-6 0h12"/>
</defs>
<use x="61.83" y="99.01" xlink:href="#hl"/>
<use x="61.83" y="93.01" xlink:href="#hl"/>
<use x="61.83" y="87.01" xlink:href="#hl"/>
<use x="61.83" y="81.01" xlink:href="#hl"/>
<use x="61.83" y="78.01" xlink:href="#hd"/>
<circle fill="currentColor" cx="69.83" cy="78.01" r="1.2"/>
<path d="M58.33 78.01v39.00" stroke="currentColor" fill="none"/>
<use x="96.43" y="99.01" xlink:href="#hl"/>
<use x="96.43" y="93.01" xlink:href="#hl"/>
<use x="96.43" y="87.01" xlink:href="#hl"/>
<use x="96.43" y="81.01" xlink:href="#hl"/>
<use x="96.43" y="81.01" xlink:href="#hd"/>
<path d="M92.93 81.01v36.00" stroke="currentColor" fill="none"/>
<path fill="currentColor"
	d="M92.93 117.01c0.6 -5.6 9.6 -9 5.6 -18.4
	c1.6 6 -1.3 11.6 -5.6 12.8
"/>
<use x="117.93" y="99.01" xlink:href="#hl"/>
<use x="117.93" y="93.01" xlink:href="#hl"/>
<use x="117.93" y="87.01" xlink:href="#hl"/>
<use x="117.93" y="87.01" xlink:href="#hd"/>
<path d="M114.43 87.01v30.00" stroke="currentColor" fill="none"/>
<defs>
<path id="r4" fill="currentColor" d="m-1 -8.5
	l3.6 5.1 -2.1 5.2 2.2 4.3
	c-2.6 -2.3 -5.1 0 -2.4 2.6
	c-4.8 -3 -1.5 -6.9 1.4 -4.1
	l-3.1 -4.5 1.9 -5.1 -1.5 -3.5"/>
</defs>
<use x="148.03" y="117.01" xlink:href="#r4"/>
<use x="184.63" y="99.01" xlink:href="#hl"/>
<use x="184.63" y="93.01" xlink:href="#hl"/>
<use x="184.63" y="87.01" xlink:href="#hl"/>
<use x="184.63" y="84.01" xlink:href="#hd"/>
<circle fill="currentColor" cx="192.63" cy="84.01" r="1.2"/>
<path d="M181.13 84.01v33.00" stroke="currentColor" fill="none"/>
<use x="219.33" y="99.01" xlink:href="#hl"/>
<use x="219.33" y="93.01" xlink:href="#hl"/>
<use x="219.33" y="87.01" xlink:href="#hl"/>
<use x="219.33" y="87.01" xlink:href="#hd"/>
<path d="M215.83 87.01v30.00" stroke="currentColor" fill="none"/>
<path fill="currentColor"
	d="M215.83 117.01c0.6 -5.6 9.6 -9 5.6 -18.4
	c1.6 6 -1.3 11.6 -5.6 12.8
"/>
<use x="240.83" y="99.01" xlink:href="#hl"/>
<use x="240.83" y="99.01" xlink:href="#hd"/>
<path d="M237.33 99.01v20.00" stroke="currentColor" fill="none"/>
<use x="270.83" y="117.01" xlink:href="#r4"/>
<use x="307.53" y="99.01" xlink:href="#hl"/>
<use x="307.53" y="96.01" xlink:href="#hd"/>
<path d="M304.03 96.01v21.00" stroke="currentColor" fill="none"/>
<use x="331.13" y="99.01" xlink:href="#hl"/>
<use x="331.13" y="93.01" xlink:href="#hl"/>
<use x="331.13" y="93.01" xlink:href="#hd"/>
<path d="M327.63 93.01v24.00" stroke="currentColor" fill="none"/>
<use x="354.83" y="99.01" xlink:href="#hl"/>
<use x="354.83" y="93.01" xlink:href="#hl"/>
<use x="354.83" y="90.01" xlink:href="#hd"/>
<path d="M351.33 90.01v27.00" stroke="currentColor" fill="none"/>
<use x="378.43" y="99.01" xlink:href="#hl"/>
<use x="378.43" y="93.01" xlink:href="#hl"/>
<use x="378.43" y="93.01" xlink:href="#hd"/>
<circle fill="currentColor" cx="386.43" cy="90.01" r="1.2"/>
<path d="M374.93 93.01v24.00" stroke="currentColor" fill="none"/>
<use x="413.13" y="99.01" xlink:href="#hl"/>
<use x="413.13" y="99.01" xlink:href="#hd"/>
<path d="M409.63 99.01v20.00" stroke="currentColor" fill="none"/>
<path fill="currentColor"
	d="M409.63 119.01c0.6 -5.6 9.6 -9 5.6 -18.4
	c1.6 6 -1.3 11.6 -5.6 12.8
"/>
<use x="442.83" y="102.01" xlink:href="#hd"/>
<circle fill="currentColor" cx="450.83" cy="102.01" r="1.2"/>
<path d="M439.33 102.01v20.00" stroke="currentColor" fill="none"/>
<use x="477.43" y="105.01" xlink:href="#hd"/>
<path d="M473.93 105.01v20.00" stroke="currentColor" fill="none"/>
<path fill="currentColor"
	d="M473.93 125.01c0.6 -5.6 9.6 -9 5.6 -18.4
	c1.6 6 -1.3 11.6 -5.6 12.8
"/>
<use x="498.83" y="108.01" xlink:href="#hd"/>
<circle fill="currentColor" cx="506.83" cy="108.01" r="1.2"/>
<path d="M495.33 108.01v20.00" stroke="currentColor" fill="none"/>
<use x="533.33" y="99.01" xlink:href="#hl"/>
<use x="533.33" y="93.01" xlink:href="#hl"/>
<use x="533.33" y="93.01" xlink:href="#hd"/>
<path d="M529.83 93.01v24.00" stroke="currentColor" fill="none"/>
<path fill="currentColor"
	d="M529.83 117.01c0.6 -5.6 9.6 -9 5.6 -18.4
	c1.6 6 -1.3 11.6 -5.6 12.8
"/>
<use x="563.63" y="99.01" xlink:href="#hl"/>
<defs>
<path id="Hd" fill="currentColor" d="m3 -1.6
	c-1 -1.8 -7 1.4 -6 3.2
	c1 1.8 7 -1.4 6 -3.2
	m0.5 -0.3
	c2 3.8 -5 7.6 -7 3.8
	c-2 -3.8 5 -7.6 7 -3.8"/>
</defs>
<use x="563.63" y="96.01" xlink:href="#Hd"/>
<path d="M560.13 96.01v21.00" stroke="currentColor" fill="none"/>
<use x="606.03" y="99.01" xlink:href="#hl"/>
<use x="606.03" y="99.01" xlink:href="#Hd"/>
<path d="M602.53 99.01v20.00" stroke="currentColor" fill="none"/>
<use x="653.03" y="99.01" xlink:href="#hl"/>
<use x="653.03" y="93.01" xlink:href="#hl"/>
<use x="653.03" y="87.01" xlink:href="#hl"/>
<use x="653.03" y="87.01" xlink:href="#Hd"/>
<path d="M649.53 87.01v30.00" stroke="currentColor" fill="none"/>
</g>
</svg>
