<?xml version="1.0" standalone="no"?>
<!DOCTYPE svg PUBLIC "-//W3C//DTD SVG 1.1//EN"
	"http://www.w3.org/Graphics/SVG/1.1/DTD/svg11.dtd">
<svg xmlns="http://www.w3.org/2000/svg" version="1.1"
	xmlns:xlink="http://www.w3.org/1999/xlink"
	xml:space='preserve' color="black"
	width="7.38in" height="1.43in" viewBox="0 0 531 103">
<title>8522.abc (8522) tune 1</title>
<!-- Creator: abcm2ps-7.8.14 -->
<!-- CreationDate: Mar 13, 2016 18:54 -->
<!-- CommandLine: -qxg 8522.abc -O ../svgs/8522.svg -->
<g transform="scale(0.750)" stroke-width="0.70" font-family="Times" font-size="20.00">
<text x="354.13" y="21.67" text-anchor="middle">8522.  Intermezzo in A, Op. 118, No. 2, 1st. Mvt.</text>
</g>
<g transform="scale(0.750)" stroke-width="0.70" font-family="Times" font-size="14.00" font-style="italic">
<text x="694.93" y="45.34" text-anchor="end">Johannes Brahms</text>
</g>
<g transform="scale(0.525)" stroke-width="0.70" font-family="Times" font-size="14.00" font-style="italic">
<defs>
<ellipse id="hd" rx="4.1" ry="2.9"
	transform="rotate(-20)" fill="currentColor"/>
</defs>
<use x="122.76" y="94.16" xlink:href="#hd"/>
<path d="M126.26 94.16v-20.00" stroke="currentColor" fill="none"/>
</g>
<g transform="scale(0.750)" stroke-width="0.70" font-family="Times" font-size="15.00" font-weight="bold">
<text x="93.63" y="68.01">= 120</text>
<path stroke="currentColor" fill="none"
	d="M197.63 114.01v-24.00"/>
<path stroke="currentColor" fill="none"
	d="M325.93 114.01v-24.00"/>
<path stroke="currentColor" fill="none"
	d="M490.63 114.01v-24.00"/>
<path stroke="currentColor" fill="none"
	d="M633.53 114.01v-24.00"/>
<path stroke="currentColor" fill="none"
	d="M13.33 114.01h681.60m-681.60 -6h681.60m-681.60 -6h681.60m-681.60 -6h681.60m-681.60 -6h681.60"/>
<defs>
<path id="utclef" fill="currentColor" d="m-50 -90
	c-72 -41 -72 -158 52 -188
	c150 -10 220 188 90 256
	c-114 52 -275 0 -293 -136
	c-15 -181 93 -229 220 -334
	c88 -87 79 -133 62 -210
	c-51 33 -94 105 -89 186
	c17 267 36 374 49 574
	c6 96 -19 134 -77 135
	c-80 1 -126 -93 -61 -133
	c85 -41 133 101 31 105
	c23 17 92 37 90 -92
	c-10 -223 -39 -342 -50 -617
	c0 -90 0 -162 96 -232
	c56 72 63 230 22 289
	c-74 106 -257 168 -255 316
	c9 153 148 185 252 133
	c86 -65 29 -192 -80 -176
	c-71 12 -105 67 -59 124"/>
<use id="tclef" transform="scale(0.045)"
	xlink:href="#utclef"/>
</defs>
<use x="25.33" y="114.01" xlink:href="#tclef"/>
<defs>
<path id="usharp" fill="currentColor" d="
	m136 -702
	v890
	h32
	v-890
	m128 840
	h32
	v-888
	h-32
	m-232 286
	v116
	l338 -96
	v-116
	m-338 442
	v116
	l338 -98
	v-114"/>
<use id="sh0" transform="translate(-4,5) scale(0.018)"
	xlink:href="#usharp"/>
</defs>
<use x="40.33" y="90.01" xlink:href="#sh0"/>
<use x="45.83" y="99.01" xlink:href="#sh0"/>
<use x="51.33" y="87.01" xlink:href="#sh0"/>
<g font-family="serif" font-size="16" font-weight="bold" font-style="normal"
	transform="translate(67.33,114.01) scale(1.2,1)">
	<text y="-1" text-anchor="middle">4</text>
	<text y="-13" text-anchor="middle">3</text>
</g>
<path fill="currentColor"
	d="M81.53 102.21l29.50 0.00v-3.20l-29.50 -0.00"/>
<defs>
<path id="hl" stroke="currentColor" d="m-6 0h12"/>
</defs>
<use x="85.33" y="84.01" xlink:href="#hl"/>
<use x="85.33" y="78.01" xlink:href="#hl"/>
<use x="85.33" y="78.01" xlink:href="#hd"/>
<path d="M81.83 78.01v23.20" stroke="currentColor" fill="none"/>
<use x="114.23" y="84.01" xlink:href="#hl"/>
<use x="114.23" y="81.01" xlink:href="#hd"/>
<path d="M110.73 81.01v20.20" stroke="currentColor" fill="none"/>
<use x="146.23" y="84.01" xlink:href="#hl"/>
<use x="146.23" y="78.01" xlink:href="#hl"/>
<defs>
<path id="Hd" fill="currentColor" d="m3 -1.6
	c-1 -1.8 -7 1.4 -6 3.2
	c1 1.8 7 -1.4 6 -3.2
	m0.5 -0.3
	c2 3.8 -5 7.6 -7 3.8
	c-2 -3.8 5 -7.6 7 -3.8"/>
</defs>
<use x="146.23" y="75.01" xlink:href="#Hd"/>
<path d="M142.73 75.01v27.00" stroke="currentColor" fill="none"/>
<path fill="currentColor"
	d="M209.83 102.21l29.50 0.00v-3.20l-29.50 -0.00"/>
<use x="213.63" y="84.01" xlink:href="#hl"/>
<use x="213.63" y="78.01" xlink:href="#hl"/>
<use x="213.63" y="78.01" xlink:href="#hd"/>
<path d="M210.13 78.01v23.20" stroke="currentColor" fill="none"/>
<use x="242.53" y="84.01" xlink:href="#hl"/>
<use x="242.53" y="81.01" xlink:href="#hd"/>
<path d="M239.03 81.01v20.20" stroke="currentColor" fill="none"/>
<use x="274.53" y="84.01" xlink:href="#hl"/>
<use x="274.53" y="78.01" xlink:href="#hl"/>
<use x="274.53" y="72.01" xlink:href="#hl"/>
<use x="274.53" y="66.01" xlink:href="#hl"/>
<use x="274.53" y="63.01" xlink:href="#Hd"/>
<path d="M271.03 63.01v39.00" stroke="currentColor" fill="none"/>
<use x="341.93" y="84.01" xlink:href="#hl"/>
<use x="341.93" y="84.01" xlink:href="#hd"/>
<circle fill="currentColor" cx="349.93" cy="81.01" r="1.2"/>
<path d="M338.43 84.01v20.00" stroke="currentColor" fill="none"/>
<path fill="currentColor"
	d="M338.43 104.01c0.6 -5.6 9.6 -9 5.6 -18.4
	c1.6 6 -1.3 11.6 -5.6 12.8
"/>
<path fill="currentColor"
	d="M374.53 104.01l53.90 0.00v-3.20l-53.90 -0.00"/>
<path fill="currentColor"
	d="M380.93 99.01l-6.00 -0.00v-3.20l6.00 0.00"/>
<path fill="currentColor"
	d="M422.13 99.01l6.00 0.00v-3.20l-6.00 -0.00"/>
<use x="378.43" y="84.01" xlink:href="#hl"/>
<use x="378.43" y="81.01" xlink:href="#hd"/>
<path d="M374.93 81.01v22.00" stroke="currentColor" fill="none"/>
<use x="398.83" y="84.01" xlink:href="#hl"/>
<use x="398.83" y="81.01" xlink:href="#hd"/>
<circle fill="currentColor" cx="406.83" cy="81.01" r="1.2"/>
<path d="M395.33 81.01v22.00" stroke="currentColor" fill="none"/>
<use x="431.63" y="84.01" xlink:href="#hl"/>
<use x="431.63" y="78.01" xlink:href="#hl"/>
<use x="431.63" y="72.01" xlink:href="#hl"/>
<use x="431.63" y="72.01" xlink:href="#hd"/>
<path d="M428.13 72.01v31.00" stroke="currentColor" fill="none"/>
<use x="454.33" y="84.01" xlink:href="#hl"/>
<use x="454.33" y="78.01" xlink:href="#hl"/>
<use x="454.33" y="72.01" xlink:href="#hl"/>
<use x="454.33" y="72.01" xlink:href="#hd"/>
<path d="M450.83 72.01v30.00" stroke="currentColor" fill="none"/>
<use x="506.63" y="84.01" xlink:href="#hl"/>
<use x="506.63" y="78.01" xlink:href="#hl"/>
<use x="506.63" y="75.01" xlink:href="#hd"/>
<path d="M503.13 75.01v27.00" stroke="currentColor" fill="none"/>
<use x="551.93" y="84.01" xlink:href="#hl"/>
<use x="551.93" y="84.01" xlink:href="#hd"/>
<path d="M548.43 84.01v20.00" stroke="currentColor" fill="none"/>
<use x="597.33" y="87.01" xlink:href="#hd"/>
<path d="M593.83 87.01v20.00" stroke="currentColor" fill="none"/>
<use x="649.63" y="87.01" xlink:href="#hd"/>
<path d="M646.13 87.01v20.00" stroke="currentColor" fill="none"/>
<path fill="currentColor"
	d="M600.83 85.01c7.03 -5.32 38.28 -5.32 45.30 -0.00
	l0.00 -0.25c-8.39 -7.07 -36.92 -7.07 -45.30 0.25"/>
</g>
</svg>
