<?xml version="1.0" standalone="no"?>
<!DOCTYPE svg PUBLIC "-//W3C//DTD SVG 1.1//EN"
	"http://www.w3.org/Graphics/SVG/1.1/DTD/svg11.dtd">
<svg xmlns="http://www.w3.org/2000/svg" version="1.1"
	xmlns:xlink="http://www.w3.org/1999/xlink"
	xml:space='preserve' color="black"
	width="7.38in" height="1.65in" viewBox="0 0 531 119">
<title>8538.abc (8538) tune 1</title>
<!-- Creator: abcm2ps-7.8.14 -->
<!-- CreationDate: Mar 13, 2016 18:54 -->
<!-- CommandLine: -qxg 8538.abc -O ../svgs/8538.svg -->
<g transform="scale(0.750)" stroke-width="0.70" font-family="Times" font-size="20.00">
<text x="354.13" y="21.67" text-anchor="middle">8538.  Tragic Overture, Op. 81 - 3rd. Theme</text>
</g>
<g transform="scale(0.750)" stroke-width="0.70" font-family="Times" font-size="14.00" font-style="italic">
<text x="694.93" y="45.34" text-anchor="end">Johannes Brahms</text>
</g>
<g transform="scale(0.525)" stroke-width="0.70" font-family="Times" font-size="14.00" font-style="italic">
<defs>
<ellipse id="hd" rx="4.1" ry="2.9"
	transform="rotate(-20)" fill="currentColor"/>
</defs>
<use x="115.61" y="94.16" xlink:href="#hd"/>
<path d="M119.11 94.16v-20.00" stroke="currentColor" fill="none"/>
</g>
<g transform="scale(0.750)" stroke-width="0.70" font-family="Times" font-size="15.00" font-weight="bold">
<text x="88.63" y="68.01">= 120</text>
<path stroke="currentColor" fill="none"
	d="M213.93 135.01v-24.00"/>
<path stroke="currentColor" fill="none"
	d="M359.93 135.01v-24.00"/>
<path stroke="currentColor" fill="none"
	d="M506.03 135.01v-24.00"/>
<path stroke="currentColor" fill="none"
	d="M694.93 135.01v-24.00"/>
<path stroke="currentColor" fill="none"
	d="M13.33 135.01h681.60m-681.60 -6h681.60m-681.60 -6h681.60m-681.60 -6h681.60m-681.60 -6h681.60"/>
<defs>
<path id="utclef" fill="currentColor" d="m-50 -90
	c-72 -41 -72 -158 52 -188
	c150 -10 220 188 90 256
	c-114 52 -275 0 -293 -136
	c-15 -181 93 -229 220 -334
	c88 -87 79 -133 62 -210
	c-51 33 -94 105 -89 186
	c17 267 36 374 49 574
	c6 96 -19 134 -77 135
	c-80 1 -126 -93 -61 -133
	c85 -41 133 101 31 105
	c23 17 92 37 90 -92
	c-10 -223 -39 -342 -50 -617
	c0 -90 0 -162 96 -232
	c56 72 63 230 22 289
	c-74 106 -257 168 -255 316
	c9 153 148 185 252 133
	c86 -65 29 -192 -80 -176
	c-71 12 -105 67 -59 124"/>
<use id="tclef" transform="scale(0.045)"
	xlink:href="#utclef"/>
</defs>
<use x="25.33" y="135.01" xlink:href="#tclef"/>
<defs>
<path id="uflat" fill="currentColor" d="
	m100 -746
	h32
	v734
	l-32 4
	m32 -332
	c46 -72 152 -90 208 -20
	c100 110 -120 326 -208 348
	m0 -28
	c54 0 200 -206 130 -290
	c-50 -60 -130 -4 -130 34"/>
<use id="ft0" transform="translate(-3.5,3.5) scale(0.018)"
	xlink:href="#uflat"/>
</defs>
<use x="40.33" y="123.01" xlink:href="#ft0"/>
<g font-family="serif" font-size="16" font-weight="bold" font-style="normal"
	transform="translate(56.33,135.01) scale(1.2,1)">
	<text y="-1" text-anchor="middle">4</text>
	<text y="-13" text-anchor="middle">4</text>
</g>
<defs>
<path id="hl" stroke="currentColor" d="m-6 0h12"/>
</defs>
<use x="80.33" y="105.01" xlink:href="#hl"/>
<use x="80.33" y="99.01" xlink:href="#hl"/>
<use x="80.33" y="93.01" xlink:href="#hl"/>
<use x="80.33" y="87.01" xlink:href="#hl"/>
<use x="80.33" y="81.01" xlink:href="#hl"/>
<use x="80.33" y="81.01" xlink:href="#hd"/>
<defs>
<path id="unat" fill="currentColor" d="
	m96 -750
	h-32
	v716
	l32 -8
	l182 -54
	v282
	h32
	v-706
	l-34 10
	l-180 50
	v-290
	m0 592
	v-190
	l182 -52
	v188"/>
<use id="nt0" transform="translate(-3,5) scale(0.018)"
	xlink:href="#unat"/>
</defs>
<use x="71.33" y="81.01" xlink:href="#nt0"/>
<path d="M76.83 81.01v42.00" stroke="currentColor" fill="none"/>
<path fill="currentColor"
	d="M76.83 123.01c0.6 -5.6 9.6 -9 5.6 -18.4
	c1.6 6 -1.3 11.6 -5.6 12.8
"/>
<defs>
<path id="r8e" fill="currentColor" d="m 0 0
	c-1.5 1.5 -2.4 2 -3.6 2
	c2.4 -2.8 -2.8 -4 -2.8 -1.2
	c0 2.7 4.3 2.4 5.9 0.6"/>
<g id="r16">
	<path d="m3.3 -4l-4 15.6" stroke="currentColor" fill="none"/>
	<use x="3.4" y="-4" xlink:href="#r8e"/>
	<use x="1.9" y="2" xlink:href="#r8e"/>
</g>
</defs>
<use x="102.43" y="123.01" xlink:href="#r16"/>
<use x="119.83" y="105.01" xlink:href="#hl"/>
<use x="119.83" y="99.01" xlink:href="#hl"/>
<use x="119.83" y="93.01" xlink:href="#hl"/>
<use x="119.83" y="87.01" xlink:href="#hl"/>
<use x="119.83" y="81.01" xlink:href="#hl"/>
<use x="119.83" y="78.01" xlink:href="#hd"/>
<path d="M116.33 78.01v45.00" stroke="currentColor" fill="none"/>
<path fill="currentColor"
	d="M116.33 123.01c0.9 -3.7 9.1 -6.4 6 -12.4
	c1 5.4 -4.2 8.4 -6 8.4
M116.33 117.61c0.9 -3.7 9.1 -6.4 6 -12.4
	c1 5.4 -4.2 8.4 -6 8.4
"/>
<use x="137.23" y="105.01" xlink:href="#hl"/>
<use x="137.23" y="99.01" xlink:href="#hl"/>
<use x="137.23" y="93.01" xlink:href="#hl"/>
<use x="137.23" y="87.01" xlink:href="#hl"/>
<defs>
<path id="Hd" fill="currentColor" d="m3 -1.6
	c-1 -1.8 -7 1.4 -6 3.2
	c1 1.8 7 -1.4 6 -3.2
	m0.5 -0.3
	c2 3.8 -5 7.6 -7 3.8
	c-2 -3.8 5 -7.6 7 -3.8"/>
</defs>
<use x="137.23" y="84.01" xlink:href="#Hd"/>
<path d="M133.73 84.01v39.00" stroke="currentColor" fill="none"/>
<use x="186.13" y="105.01" xlink:href="#hl"/>
<use x="186.13" y="99.01" xlink:href="#hl"/>
<use x="186.13" y="93.01" xlink:href="#hl"/>
<use x="186.13" y="87.01" xlink:href="#hl"/>
<use x="186.13" y="87.01" xlink:href="#hd"/>
<path d="M182.63 87.01v36.00" stroke="currentColor" fill="none"/>
<use x="226.43" y="105.01" xlink:href="#hl"/>
<use x="226.43" y="99.01" xlink:href="#hl"/>
<use x="226.43" y="93.01" xlink:href="#hl"/>
<use x="226.43" y="90.01" xlink:href="#hd"/>
<path d="M222.93 90.01v33.00" stroke="currentColor" fill="none"/>
<path fill="currentColor"
	d="M222.93 123.01c0.6 -5.6 9.6 -9 5.6 -18.4
	c1.6 6 -1.3 11.6 -5.6 12.8
"/>
<use x="248.53" y="123.01" xlink:href="#r16"/>
<use x="265.93" y="105.01" xlink:href="#hl"/>
<use x="265.93" y="99.01" xlink:href="#hl"/>
<use x="265.93" y="93.01" xlink:href="#hl"/>
<use x="265.93" y="87.01" xlink:href="#hl"/>
<use x="265.93" y="87.01" xlink:href="#hd"/>
<path d="M262.43 87.01v36.00" stroke="currentColor" fill="none"/>
<path fill="currentColor"
	d="M262.43 123.01c0.9 -3.7 9.1 -6.4 6 -12.4
	c1 5.4 -4.2 8.4 -6 8.4
M262.43 117.61c0.9 -3.7 9.1 -6.4 6 -12.4
	c1 5.4 -4.2 8.4 -6 8.4
"/>
<use x="283.33" y="105.01" xlink:href="#hl"/>
<use x="283.33" y="99.01" xlink:href="#hl"/>
<use x="283.33" y="93.01" xlink:href="#hl"/>
<use x="283.33" y="87.01" xlink:href="#hl"/>
<use x="283.33" y="84.01" xlink:href="#Hd"/>
<path d="M279.83 84.01v39.00" stroke="currentColor" fill="none"/>
<use x="332.23" y="105.01" xlink:href="#hl"/>
<use x="332.23" y="99.01" xlink:href="#hl"/>
<use x="332.23" y="93.01" xlink:href="#hl"/>
<use x="332.23" y="93.01" xlink:href="#hd"/>
<path d="M328.73 93.01v30.00" stroke="currentColor" fill="none"/>
<use x="372.43" y="105.01" xlink:href="#hl"/>
<use x="372.43" y="99.01" xlink:href="#hl"/>
<use x="372.43" y="93.01" xlink:href="#hl"/>
<use x="372.43" y="90.01" xlink:href="#hd"/>
<path d="M368.93 90.01v33.00" stroke="currentColor" fill="none"/>
<path fill="currentColor"
	d="M368.93 123.01c0.6 -5.6 9.6 -9 5.6 -18.4
	c1.6 6 -1.3 11.6 -5.6 12.8
"/>
<use x="394.53" y="123.01" xlink:href="#r16"/>
<use x="411.93" y="105.01" xlink:href="#hl"/>
<use x="411.93" y="99.01" xlink:href="#hl"/>
<use x="411.93" y="93.01" xlink:href="#hl"/>
<use x="411.93" y="87.01" xlink:href="#hl"/>
<use x="411.93" y="87.01" xlink:href="#hd"/>
<path d="M408.43 87.01v36.00" stroke="currentColor" fill="none"/>
<path fill="currentColor"
	d="M408.43 123.01c0.9 -3.7 9.1 -6.4 6 -12.4
	c1 5.4 -4.2 8.4 -6 8.4
M408.43 117.61c0.9 -3.7 9.1 -6.4 6 -12.4
	c1 5.4 -4.2 8.4 -6 8.4
"/>
<use x="429.43" y="105.01" xlink:href="#hl"/>
<use x="429.43" y="99.01" xlink:href="#hl"/>
<use x="429.43" y="93.01" xlink:href="#hl"/>
<use x="429.43" y="87.01" xlink:href="#hl"/>
<use x="429.43" y="84.01" xlink:href="#Hd"/>
<path d="M425.93 84.01v39.00" stroke="currentColor" fill="none"/>
<use x="478.33" y="105.01" xlink:href="#hl"/>
<use x="478.33" y="99.01" xlink:href="#hl"/>
<use x="478.33" y="93.01" xlink:href="#hl"/>
<use x="478.33" y="93.01" xlink:href="#hd"/>
<path d="M474.83 93.01v30.00" stroke="currentColor" fill="none"/>
<use x="518.53" y="105.01" xlink:href="#hl"/>
<use x="518.53" y="99.01" xlink:href="#hl"/>
<use x="518.53" y="96.01" xlink:href="#hd"/>
<path d="M515.03 96.01v27.00" stroke="currentColor" fill="none"/>
<path fill="currentColor"
	d="M515.03 123.01c0.6 -5.6 9.6 -9 5.6 -18.4
	c1.6 6 -1.3 11.6 -5.6 12.8
"/>
<use x="540.63" y="123.01" xlink:href="#r16"/>
<use x="558.03" y="105.01" xlink:href="#hl"/>
<use x="558.03" y="99.01" xlink:href="#hl"/>
<use x="558.03" y="93.01" xlink:href="#hl"/>
<use x="558.03" y="93.01" xlink:href="#hd"/>
<path d="M554.53 93.01v30.00" stroke="currentColor" fill="none"/>
<path fill="currentColor"
	d="M554.53 123.01c0.9 -3.7 9.1 -6.4 6 -12.4
	c1 5.4 -4.2 8.4 -6 8.4
M554.53 117.61c0.9 -3.7 9.1 -6.4 6 -12.4
	c1 5.4 -4.2 8.4 -6 8.4
"/>
<use x="575.43" y="105.01" xlink:href="#hl"/>
<use x="575.43" y="99.01" xlink:href="#hl"/>
<use x="575.43" y="99.01" xlink:href="#hd"/>
<path d="M571.93 99.01v24.00" stroke="currentColor" fill="none"/>
<use x="610.23" y="105.01" xlink:href="#hl"/>
<use x="610.23" y="102.01" xlink:href="#hd"/>
<use x="601.23" y="102.01" xlink:href="#nt0"/>
<path d="M606.73 102.01v21.00" stroke="currentColor" fill="none"/>
<path fill="currentColor"
	d="M606.73 123.01c0.6 -5.6 9.6 -9 5.6 -18.4
	c1.6 6 -1.3 11.6 -5.6 12.8
"/>
<use x="632.33" y="123.01" xlink:href="#r16"/>
<use x="649.73" y="105.01" xlink:href="#hl"/>
<use x="649.73" y="99.01" xlink:href="#hl"/>
<use x="649.73" y="99.01" xlink:href="#hd"/>
<path d="M646.23 99.01v24.00" stroke="currentColor" fill="none"/>
<path fill="currentColor"
	d="M646.23 123.01c0.9 -3.7 9.1 -6.4 6 -12.4
	c1 5.4 -4.2 8.4 -6 8.4
M646.23 117.61c0.9 -3.7 9.1 -6.4 6 -12.4
	c1 5.4 -4.2 8.4 -6 8.4
"/>
<use x="667.23" y="105.01" xlink:href="#hl"/>
<use x="667.23" y="105.01" xlink:href="#hd"/>
<path d="M663.73 105.01v20.00" stroke="currentColor" fill="none"/>
</g>
</svg>
