<?xml version="1.0" standalone="no"?>
<!DOCTYPE svg PUBLIC "-//W3C//DTD SVG 1.1//EN"
	"http://www.w3.org/Graphics/SVG/1.1/DTD/svg11.dtd">
<svg xmlns="http://www.w3.org/2000/svg" version="1.1"
	xmlns:xlink="http://www.w3.org/1999/xlink"
	xml:space='preserve' color="black"
	width="7.38in" height="1.48in" viewBox="0 0 531 107">
<title>8551.abc (8551) tune 1</title>
<!-- Creator: abcm2ps-7.8.14 -->
<!-- CreationDate: Mar 13, 2016 18:54 -->
<!-- CommandLine: -qxg 8551.abc -O ../svgs/8551.svg -->
<g transform="scale(0.750)" stroke-width="0.70" font-family="Times" font-size="20.00">
<text x="354.13" y="21.67" text-anchor="middle">8551.  Quartet in A, Op. 26, Pft. and Str., 1st. Mvt. - 1st. Theme</text>
</g>
<g transform="scale(0.750)" stroke-width="0.70" font-family="Times" font-size="14.00" font-style="italic">
<text x="694.93" y="45.34" text-anchor="end">Johannes Brahms</text>
</g>
<g transform="scale(0.525)" stroke-width="0.70" font-family="Times" font-size="14.00" font-style="italic">
<defs>
<ellipse id="hd" rx="4.1" ry="2.9"
	transform="rotate(-20)" fill="currentColor"/>
</defs>
<use x="122.76" y="94.16" xlink:href="#hd"/>
<path d="M126.26 94.16v-20.00" stroke="currentColor" fill="none"/>
</g>
<g transform="scale(0.750)" stroke-width="0.70" font-family="Times" font-size="15.00" font-weight="bold">
<text x="93.63" y="68.01">= 120</text>
<path stroke="currentColor" fill="none"
	d="M234.53 119.01v-24.00"/>
<path stroke="currentColor" fill="none"
	d="M359.03 119.01v-24.00"/>
<path stroke="currentColor" fill="none"
	d="M520.73 119.01v-24.00"/>
<path stroke="currentColor" fill="none"
	d="M651.23 119.01v-24.00"/>
<path stroke="currentColor" fill="none"
	d="M13.33 119.01h681.60m-681.60 -6h681.60m-681.60 -6h681.60m-681.60 -6h681.60m-681.60 -6h681.60"/>
<text font-family="serif" font-size="12" font-style="italic" font-weight="normal"
	x="201.83" y="124.01" text-anchor="middle">3</text>
<text font-family="serif" font-size="12" font-style="italic" font-weight="normal"
	x="488.03" y="124.01" text-anchor="middle">3</text>
<defs>
<path id="utclef" fill="currentColor" d="m-50 -90
	c-72 -41 -72 -158 52 -188
	c150 -10 220 188 90 256
	c-114 52 -275 0 -293 -136
	c-15 -181 93 -229 220 -334
	c88 -87 79 -133 62 -210
	c-51 33 -94 105 -89 186
	c17 267 36 374 49 574
	c6 96 -19 134 -77 135
	c-80 1 -126 -93 -61 -133
	c85 -41 133 101 31 105
	c23 17 92 37 90 -92
	c-10 -223 -39 -342 -50 -617
	c0 -90 0 -162 96 -232
	c56 72 63 230 22 289
	c-74 106 -257 168 -255 316
	c9 153 148 185 252 133
	c86 -65 29 -192 -80 -176
	c-71 12 -105 67 -59 124"/>
<use id="tclef" transform="scale(0.045)"
	xlink:href="#utclef"/>
</defs>
<use x="25.33" y="119.01" xlink:href="#tclef"/>
<defs>
<path id="usharp" fill="currentColor" d="
	m136 -702
	v890
	h32
	v-890
	m128 840
	h32
	v-888
	h-32
	m-232 286
	v116
	l338 -96
	v-116
	m-338 442
	v116
	l338 -98
	v-114"/>
<use id="sh0" transform="translate(-4,5) scale(0.018)"
	xlink:href="#usharp"/>
</defs>
<use x="40.33" y="95.01" xlink:href="#sh0"/>
<use x="45.83" y="104.01" xlink:href="#sh0"/>
<use x="51.33" y="92.01" xlink:href="#sh0"/>
<g font-family="serif" font-size="16" font-weight="bold" font-style="normal"
	transform="translate(67.33,119.01) scale(1.2,1)">
	<text y="-1" text-anchor="middle">4</text>
	<text y="-13" text-anchor="middle">3</text>
</g>
<defs>
<path id="hl" stroke="currentColor" d="m-6 0h12"/>
</defs>
<use x="85.33" y="89.01" xlink:href="#hl"/>
<use x="85.33" y="83.01" xlink:href="#hl"/>
<use x="85.33" y="83.01" xlink:href="#hd"/>
<path d="M81.83 83.01v24.00" stroke="currentColor" fill="none"/>
<defs>
<path id="r8e" fill="currentColor" d="m 0 0
	c-1.5 1.5 -2.4 2 -3.6 2
	c2.4 -2.8 -2.8 -4 -2.8 -1.2
	c0 2.7 4.3 2.4 5.9 0.6"/>
<g id="r16">
	<path d="m3.3 -4l-4 15.6" stroke="currentColor" fill="none"/>
	<use x="3.4" y="-4" xlink:href="#r8e"/>
	<use x="1.9" y="2" xlink:href="#r8e"/>
</g>
</defs>
<use x="114.23" y="107.01" xlink:href="#r16"/>
<circle fill="currentColor" cx="122.23" cy="104.01" r="1.2"/>
<path fill="currentColor"
	d="M129.63 108.01l37.70 0.00v-3.20l-37.70 -0.00"/>
<path fill="currentColor"
	d="M130.03 103.01l37.00 0.00v-3.20l-37.00 -0.00"/>
<path fill="currentColor"
	d="M142.53 98.01l6.00 0.00v-3.20l-6.00 -0.00"/>
<use x="133.53" y="89.01" xlink:href="#hl"/>
<use x="133.53" y="83.01" xlink:href="#hl"/>
<use x="133.53" y="83.01" xlink:href="#hd"/>
<path d="M130.03 83.01v24.00" stroke="currentColor" fill="none"/>
<use x="152.03" y="89.01" xlink:href="#hl"/>
<use x="152.03" y="83.01" xlink:href="#hl"/>
<use x="152.03" y="83.01" xlink:href="#hd"/>
<path d="M148.53 83.01v24.00" stroke="currentColor" fill="none"/>
<use x="144.93" y="86.01" xlink:href="#hd"/>
<use x="170.53" y="89.01" xlink:href="#hl"/>
<use x="170.53" y="86.01" xlink:href="#hd"/>
<path d="M167.03 86.01v21.00" stroke="currentColor" fill="none"/>
<path fill="currentColor"
	d="M183.23 107.21l33.60 0.00v-3.20l-33.60 -0.00"/>
<use x="187.03" y="89.01" xlink:href="#hl"/>
<use x="187.03" y="83.01" xlink:href="#hl"/>
<use x="187.03" y="83.01" xlink:href="#hd"/>
<path d="M183.53 83.01v23.20" stroke="currentColor" fill="none"/>
<use x="203.43" y="89.01" xlink:href="#hl"/>
<use x="203.43" y="86.01" xlink:href="#hd"/>
<path d="M199.93 86.01v20.20" stroke="currentColor" fill="none"/>
<use x="219.93" y="89.01" xlink:href="#hl"/>
<use x="219.93" y="83.01" xlink:href="#hl"/>
<use x="219.93" y="83.01" xlink:href="#hd"/>
<path d="M216.43 83.01v23.20" stroke="currentColor" fill="none"/>
<use x="247.03" y="89.01" xlink:href="#hl"/>
<use x="247.03" y="89.01" xlink:href="#hd"/>
<path d="M243.53 89.01v20.00" stroke="currentColor" fill="none"/>
<defs>
<g id="r8">
	<path d="m3.3 -4l-3.4 9.6" stroke="currentColor" fill="none"/>
	<use x="3.4" y="-4" xlink:href="#r8e"/>
</g>
</defs>
<use x="275.93" y="107.01" xlink:href="#r8"/>
<path fill="currentColor"
	d="M295.03 107.21l42.30 0.00v-3.20l-42.30 -0.00"/>
<use x="298.83" y="89.01" xlink:href="#hl"/>
<use x="298.83" y="86.01" xlink:href="#hd"/>
<path d="M295.33 86.01v20.20" stroke="currentColor" fill="none"/>
<use x="319.63" y="89.01" xlink:href="#hl"/>
<use x="319.63" y="83.01" xlink:href="#hl"/>
<use x="319.63" y="83.01" xlink:href="#hd"/>
<path d="M316.13 83.01v23.20" stroke="currentColor" fill="none"/>
<use x="340.53" y="89.01" xlink:href="#hl"/>
<use x="340.53" y="83.01" xlink:href="#hl"/>
<use x="340.53" y="77.01" xlink:href="#hl"/>
<use x="340.53" y="77.01" xlink:href="#hd"/>
<path d="M337.03 77.01v29.20" stroke="currentColor" fill="none"/>
<use x="371.53" y="89.01" xlink:href="#hl"/>
<use x="371.53" y="83.01" xlink:href="#hl"/>
<use x="371.53" y="80.01" xlink:href="#hd"/>
<path d="M368.03 80.01v27.00" stroke="currentColor" fill="none"/>
<use x="400.43" y="107.01" xlink:href="#r16"/>
<circle fill="currentColor" cx="408.43" cy="104.01" r="1.2"/>
<path fill="currentColor"
	d="M415.83 108.01l37.70 0.00v-3.20l-37.70 -0.00"/>
<path fill="currentColor"
	d="M416.13 103.01l37.00 0.00v-3.20l-37.00 -0.00"/>
<path fill="currentColor"
	d="M428.63 98.01l6.00 0.00v-3.20l-6.00 -0.00"/>
<use x="419.63" y="89.01" xlink:href="#hl"/>
<use x="419.63" y="83.01" xlink:href="#hl"/>
<use x="419.63" y="83.01" xlink:href="#hd"/>
<path d="M416.13 83.01v24.00" stroke="currentColor" fill="none"/>
<use x="438.13" y="89.01" xlink:href="#hl"/>
<use x="438.13" y="83.01" xlink:href="#hl"/>
<use x="438.13" y="83.01" xlink:href="#hd"/>
<path d="M434.63 83.01v24.00" stroke="currentColor" fill="none"/>
<use x="431.13" y="86.01" xlink:href="#hd"/>
<use x="456.63" y="89.01" xlink:href="#hl"/>
<use x="456.63" y="86.01" xlink:href="#hd"/>
<path d="M453.13 86.01v21.00" stroke="currentColor" fill="none"/>
<path fill="currentColor"
	d="M469.43 107.21l33.60 0.00v-3.20l-33.60 -0.00"/>
<use x="473.23" y="89.01" xlink:href="#hl"/>
<use x="473.23" y="83.01" xlink:href="#hl"/>
<use x="473.23" y="83.01" xlink:href="#hd"/>
<path d="M469.73 83.01v23.20" stroke="currentColor" fill="none"/>
<use x="489.63" y="89.01" xlink:href="#hl"/>
<use x="489.63" y="86.01" xlink:href="#hd"/>
<path d="M486.13 86.01v20.20" stroke="currentColor" fill="none"/>
<use x="506.13" y="89.01" xlink:href="#hl"/>
<use x="506.13" y="83.01" xlink:href="#hl"/>
<use x="506.13" y="83.01" xlink:href="#hd"/>
<path d="M502.63 83.01v23.20" stroke="currentColor" fill="none"/>
<use x="539.23" y="89.01" xlink:href="#hl"/>
<use x="539.23" y="89.01" xlink:href="#hd"/>
<use x="530.23" y="89.01" xlink:href="#sh0"/>
<path d="M535.73 89.01v20.00" stroke="currentColor" fill="none"/>
<use x="568.13" y="107.01" xlink:href="#r8"/>
<path fill="currentColor"
	d="M587.23 107.21l42.30 0.00v-3.20l-42.30 -0.00"/>
<use x="591.03" y="89.01" xlink:href="#hl"/>
<use x="591.03" y="86.01" xlink:href="#hd"/>
<path d="M587.53 86.01v20.20" stroke="currentColor" fill="none"/>
<use x="611.83" y="89.01" xlink:href="#hl"/>
<use x="611.83" y="83.01" xlink:href="#hl"/>
<use x="611.83" y="80.01" xlink:href="#hd"/>
<path d="M608.33 80.01v26.20" stroke="currentColor" fill="none"/>
<use x="632.73" y="89.01" xlink:href="#hl"/>
<use x="632.73" y="83.01" xlink:href="#hl"/>
<use x="632.73" y="77.01" xlink:href="#hl"/>
<use x="632.73" y="74.01" xlink:href="#hd"/>
<path d="M629.23 74.01v32.20" stroke="currentColor" fill="none"/>
<use x="663.73" y="89.01" xlink:href="#hl"/>
<use x="663.73" y="83.01" xlink:href="#hl"/>
<use x="663.73" y="77.01" xlink:href="#hl"/>
<use x="663.73" y="77.01" xlink:href="#hd"/>
<path d="M660.23 77.01v30.00" stroke="currentColor" fill="none"/>
<path fill="currentColor"
	d="M133.53 83.01c2.91 -4.83 15.59 -4.83 18.50 -0.00
	l0.00 -0.22c-3.47 -6.61 -15.03 -6.61 -18.50 0.22"/>
<path fill="currentColor"
	d="M152.03 84.01c2.91 -4.83 15.59 -4.83 18.50 -0.00
	l0.00 -0.22c-3.47 -6.61 -15.03 -6.61 -18.50 0.22"/>
<path fill="currentColor"
	d="M419.63 83.01c2.91 -4.83 15.59 -4.83 18.50 -0.00
	l0.00 -0.22c-3.47 -6.61 -15.03 -6.61 -18.50 0.22"/>
<path fill="currentColor"
	d="M438.13 84.01c2.91 -4.83 15.59 -4.83 18.50 -0.00
	l0.00 -0.22c-3.47 -6.61 -15.03 -6.61 -18.50 0.22"/>
</g>
</svg>
