<?xml version="1.0" standalone="no"?>
<!DOCTYPE svg PUBLIC "-//W3C//DTD SVG 1.1//EN"
	"http://www.w3.org/Graphics/SVG/1.1/DTD/svg11.dtd">
<svg xmlns="http://www.w3.org/2000/svg" version="1.1"
	xmlns:xlink="http://www.w3.org/1999/xlink"
	xml:space='preserve' color="black"
	width="7.38in" height="1.34in" viewBox="0 0 531 97">
<title>8559.abc (8559) tune 1</title>
<!-- Creator: abcm2ps-7.8.14 -->
<!-- CreationDate: Mar 13, 2016 18:54 -->
<!-- CommandLine: -qxg 8559.abc -O ../svgs/8559.svg -->
<g transform="scale(0.750)" stroke-width="0.70" font-family="Times" font-size="20.00">
<text x="354.13" y="21.67" text-anchor="middle">8559.  Quartet in C Minor, Op. 51, No. 1, 2nd. Mvt.</text>
</g>
<g transform="scale(0.750)" stroke-width="0.70" font-family="Times" font-size="14.00" font-style="italic">
<text x="694.93" y="45.34" text-anchor="end">Johannes Brahms</text>
</g>
<g transform="scale(0.525)" stroke-width="0.70" font-family="Times" font-size="14.00" font-style="italic">
<defs>
<ellipse id="hd" rx="4.1" ry="2.9"
	transform="rotate(-20)" fill="currentColor"/>
</defs>
<use x="130.61" y="94.16" xlink:href="#hd"/>
<path d="M134.11 94.16v-20.00" stroke="currentColor" fill="none"/>
</g>
<g transform="scale(0.750)" stroke-width="0.70" font-family="Times" font-size="15.00" font-weight="bold">
<text x="99.13" y="68.01">= 120</text>
<path stroke="currentColor" fill="none"
	d="M225.83 106.01v-24.00"/>
<path stroke="currentColor" fill="none"
	d="M374.03 106.01v-24.00"/>
<path stroke="currentColor" fill="none"
	d="M500.43 106.01v-24.00"/>
<path stroke="currentColor" fill="none"
	d="M632.03 106.01v-24.00"/>
<path stroke="currentColor" fill="none"
	d="M13.33 106.01h681.60m-681.60 -6h681.60m-681.60 -6h681.60m-681.60 -6h681.60m-681.60 -6h681.60"/>
<defs>
<path id="utclef" fill="currentColor" d="m-50 -90
	c-72 -41 -72 -158 52 -188
	c150 -10 220 188 90 256
	c-114 52 -275 0 -293 -136
	c-15 -181 93 -229 220 -334
	c88 -87 79 -133 62 -210
	c-51 33 -94 105 -89 186
	c17 267 36 374 49 574
	c6 96 -19 134 -77 135
	c-80 1 -126 -93 -61 -133
	c85 -41 133 101 31 105
	c23 17 92 37 90 -92
	c-10 -223 -39 -342 -50 -617
	c0 -90 0 -162 96 -232
	c56 72 63 230 22 289
	c-74 106 -257 168 -255 316
	c9 153 148 185 252 133
	c86 -65 29 -192 -80 -176
	c-71 12 -105 67 -59 124"/>
<use id="tclef" transform="scale(0.045)"
	xlink:href="#utclef"/>
</defs>
<use x="25.33" y="106.01" xlink:href="#tclef"/>
<defs>
<path id="uflat" fill="currentColor" d="
	m100 -746
	h32
	v734
	l-32 4
	m32 -332
	c46 -72 152 -90 208 -20
	c100 110 -120 326 -208 348
	m0 -28
	c54 0 200 -206 130 -290
	c-50 -60 -130 -4 -130 34"/>
<use id="ft0" transform="translate(-3.5,3.5) scale(0.018)"
	xlink:href="#uflat"/>
</defs>
<use x="40.33" y="94.01" xlink:href="#ft0"/>
<use x="45.83" y="85.01" xlink:href="#ft0"/>
<use x="51.33" y="97.01" xlink:href="#ft0"/>
<use x="56.83" y="88.01" xlink:href="#ft0"/>
<g font-family="serif" font-size="16" font-weight="bold" font-style="normal"
	transform="translate(72.83,106.01) scale(1.2,1)">
	<text y="-1" text-anchor="middle">4</text>
	<text y="-13" text-anchor="middle">3</text>
</g>
<path fill="currentColor"
	d="M87.03 108.01l68.00 0.00v-3.20l-68.00 -0.00"/>
<path fill="currentColor"
	d="M131.93 103.01l6.00 0.00v-3.20l-6.00 -0.00"/>
<use x="90.83" y="85.01" xlink:href="#hd"/>
<path d="M87.33 85.01v22.00" stroke="currentColor" fill="none"/>
<use x="114.43" y="82.01" xlink:href="#hd"/>
<circle fill="currentColor" cx="122.43" cy="79.01" r="1.2"/>
<path d="M110.93 82.01v25.00" stroke="currentColor" fill="none"/>
<use x="141.43" y="85.01" xlink:href="#hd"/>
<path d="M137.93 85.01v22.00" stroke="currentColor" fill="none"/>
<use x="158.13" y="85.01" xlink:href="#hd"/>
<circle fill="currentColor" cx="166.13" cy="85.01" r="1.2"/>
<path d="M154.63 85.01v22.00" stroke="currentColor" fill="none"/>
<path fill="currentColor"
	d="M184.23 108.01l17.40 0.00v-3.20l-17.40 -0.00"/>
<path fill="currentColor"
	d="M190.53 103.01l-6.00 -0.00v-3.20l6.00 0.00"/>
<use x="188.03" y="88.01" xlink:href="#hd"/>
<path d="M184.53 88.01v19.00" stroke="currentColor" fill="none"/>
<use x="204.73" y="88.01" xlink:href="#hd"/>
<path d="M201.23 88.01v19.00" stroke="currentColor" fill="none"/>
<path fill="currentColor"
	d="M235.23 102.01l68.00 0.00v-3.20l-68.00 -0.00"/>
<path fill="currentColor"
	d="M280.13 97.01l6.00 0.00v-3.20l-6.00 -0.00"/>
<use x="239.03" y="82.01" xlink:href="#hd"/>
<path d="M235.53 82.01v19.00" stroke="currentColor" fill="none"/>
<defs>
<path id="hl" stroke="currentColor" d="m-6 0h12"/>
</defs>
<use x="262.63" y="76.01" xlink:href="#hl"/>
<use x="262.63" y="76.01" xlink:href="#hd"/>
<circle fill="currentColor" cx="270.63" cy="73.01" r="1.2"/>
<path d="M259.13 76.01v25.00" stroke="currentColor" fill="none"/>
<use x="289.63" y="79.01" xlink:href="#hd"/>
<path d="M286.13 79.01v22.00" stroke="currentColor" fill="none"/>
<use x="306.33" y="79.01" xlink:href="#hd"/>
<circle fill="currentColor" cx="314.33" cy="79.01" r="1.2"/>
<path d="M302.83 79.01v22.00" stroke="currentColor" fill="none"/>
<path fill="currentColor"
	d="M332.43 106.21l17.40 0.00v-3.20l-17.40 -0.00"/>
<path fill="currentColor"
	d="M338.73 101.21l-6.00 -0.00v-3.20l6.00 0.00"/>
<use x="336.23" y="82.01" xlink:href="#hd"/>
<path d="M332.73 82.01v23.20" stroke="currentColor" fill="none"/>
<use x="353.03" y="82.01" xlink:href="#hd"/>
<path d="M349.53 82.01v23.20" stroke="currentColor" fill="none"/>
<use x="387.23" y="85.01" xlink:href="#hd"/>
<path d="M383.73 85.01v20.00" stroke="currentColor" fill="none"/>
<path fill="currentColor"
	d="M383.73 105.01c0.6 -5.6 9.6 -9 5.6 -18.4
	c1.6 6 -1.3 11.6 -5.6 12.8
"/>
<use x="413.63" y="88.01" xlink:href="#hd"/>
<circle fill="currentColor" cx="421.63" cy="85.01" r="1.2"/>
<defs>
<path id="unat" fill="currentColor" d="
	m96 -750
	h-32
	v716
	l32 -8
	l182 -54
	v282
	h32
	v-706
	l-34 10
	l-180 50
	v-290
	m0 592
	v-190
	l182 -52
	v188"/>
<use id="nt0" transform="translate(-3,5) scale(0.018)"
	xlink:href="#unat"/>
</defs>
<use x="404.63" y="88.01" xlink:href="#nt0"/>
<path d="M410.13 88.01v20.00" stroke="currentColor" fill="none"/>
<path fill="currentColor"
	d="M451.93 106.21l24.30 0.00v-3.20l-24.30 -0.00"/>
<use x="455.83" y="85.01" xlink:href="#hd"/>
<path d="M452.33 85.01v20.20" stroke="currentColor" fill="none"/>
<use x="479.43" y="85.01" xlink:href="#hd"/>
<path d="M475.93 85.01v20.20" stroke="currentColor" fill="none"/>
<use x="518.93" y="88.01" xlink:href="#hd"/>
<use x="509.93" y="88.01" xlink:href="#nt0"/>
<path d="M515.43 88.01v20.00" stroke="currentColor" fill="none"/>
<path fill="currentColor"
	d="M515.43 108.01c0.6 -5.6 9.6 -9 5.6 -18.4
	c1.6 6 -1.3 11.6 -5.6 12.8
"/>
<use x="545.23" y="88.01" xlink:href="#hd"/>
<circle fill="currentColor" cx="553.23" cy="85.01" r="1.2"/>
<use x="536.23" y="88.01" xlink:href="#nt0"/>
<path d="M541.73 88.01v20.00" stroke="currentColor" fill="none"/>
<path fill="currentColor"
	d="M583.63 100.21l24.30 0.00v-3.20l-24.30 -0.00"/>
<use x="587.43" y="79.01" xlink:href="#hd"/>
<path d="M583.93 79.01v20.20" stroke="currentColor" fill="none"/>
<use x="611.03" y="79.01" xlink:href="#hd"/>
<path d="M607.53 79.01v20.20" stroke="currentColor" fill="none"/>
<path fill="currentColor"
	d="M641.43 101.71l24.30 -2.50v-3.20l-24.30 2.50"/>
<use x="645.33" y="82.01" xlink:href="#hd"/>
<path d="M641.83 82.01v18.70" stroke="currentColor" fill="none"/>
<use x="668.93" y="79.01" xlink:href="#hd"/>
<path d="M665.43 79.01v19.30" stroke="currentColor" fill="none"/>
</g>
</svg>
