<?xml version="1.0" standalone="no"?>
<!DOCTYPE svg PUBLIC "-//W3C//DTD SVG 1.1//EN"
	"http://www.w3.org/Graphics/SVG/1.1/DTD/svg11.dtd">
<svg xmlns="http://www.w3.org/2000/svg" version="1.1"
	xmlns:xlink="http://www.w3.org/1999/xlink"
	xml:space='preserve' color="black"
	width="7.38in" height="1.49in" viewBox="0 0 531 107">
<title>8574.abc (8574) tune 1</title>
<!-- Creator: abcm2ps-7.8.14 -->
<!-- CreationDate: Mar 13, 2016 18:54 -->
<!-- CommandLine: -qxg 8574.abc -O ../svgs/8574.svg -->
<g transform="scale(0.750)" stroke-width="0.70" font-family="Times" font-size="20.00">
<text x="354.13" y="21.67" text-anchor="middle">8574.  Quartet in C Minor, Op. 60, 1st. Mvt. - 2nd. Theme</text>
</g>
<g transform="scale(0.750)" stroke-width="0.70" font-family="Times" font-size="14.00" font-style="italic">
<text x="694.93" y="45.34" text-anchor="end">Johannes Brahms</text>
</g>
<g transform="scale(0.525)" stroke-width="0.70" font-family="Times" font-size="14.00" font-style="italic">
<defs>
<ellipse id="hd" rx="4.1" ry="2.9"
	transform="rotate(-20)" fill="currentColor"/>
</defs>
<use x="122.76" y="94.16" xlink:href="#hd"/>
<path d="M126.26 94.16v-20.00" stroke="currentColor" fill="none"/>
</g>
<g transform="scale(0.750)" stroke-width="0.70" font-family="Times" font-size="15.00" font-weight="bold">
<text x="93.63" y="68.01">= 120</text>
<path stroke="currentColor" fill="none"
	d="M170.23 120.01v-24.00"/>
<path stroke="currentColor" fill="none"
	d="M263.23 120.01v-24.00"/>
<path stroke="currentColor" fill="none"
	d="M381.93 120.01v-24.00"/>
<path stroke="currentColor" fill="none"
	d="M500.63 120.01v-24.00"/>
<path stroke="currentColor" fill="none"
	d="M597.73 120.01v-24.00"/>
<path stroke="currentColor" fill="none"
	d="M694.93 120.01v-24.00"/>
<path stroke="currentColor" fill="none"
	d="M13.33 120.01h681.60m-681.60 -6h681.60m-681.60 -6h681.60m-681.60 -6h681.60m-681.60 -6h681.60"/>
<defs>
<path id="utclef" fill="currentColor" d="m-50 -90
	c-72 -41 -72 -158 52 -188
	c150 -10 220 188 90 256
	c-114 52 -275 0 -293 -136
	c-15 -181 93 -229 220 -334
	c88 -87 79 -133 62 -210
	c-51 33 -94 105 -89 186
	c17 267 36 374 49 574
	c6 96 -19 134 -77 135
	c-80 1 -126 -93 -61 -133
	c85 -41 133 101 31 105
	c23 17 92 37 90 -92
	c-10 -223 -39 -342 -50 -617
	c0 -90 0 -162 96 -232
	c56 72 63 230 22 289
	c-74 106 -257 168 -255 316
	c9 153 148 185 252 133
	c86 -65 29 -192 -80 -176
	c-71 12 -105 67 -59 124"/>
<use id="tclef" transform="scale(0.045)"
	xlink:href="#utclef"/>
</defs>
<use x="25.33" y="120.01" xlink:href="#tclef"/>
<defs>
<path id="uflat" fill="currentColor" d="
	m100 -746
	h32
	v734
	l-32 4
	m32 -332
	c46 -72 152 -90 208 -20
	c100 110 -120 326 -208 348
	m0 -28
	c54 0 200 -206 130 -290
	c-50 -60 -130 -4 -130 34"/>
<use id="ft0" transform="translate(-3.5,3.5) scale(0.018)"
	xlink:href="#uflat"/>
</defs>
<use x="40.33" y="108.01" xlink:href="#ft0"/>
<use x="45.83" y="99.01" xlink:href="#ft0"/>
<use x="51.33" y="111.01" xlink:href="#ft0"/>
<g font-family="serif" font-size="16" font-weight="bold" font-style="normal"
	transform="translate(67.33,120.01) scale(1.2,1)">
	<text y="-1" text-anchor="middle">4</text>
	<text y="-13" text-anchor="middle">3</text>
</g>
<defs>
<path id="hl" stroke="currentColor" d="m-6 0h12"/>
</defs>
<use x="85.33" y="90.01" xlink:href="#hl"/>
<use x="85.33" y="84.01" xlink:href="#hl"/>
<use x="85.33" y="78.01" xlink:href="#hl"/>
<use x="85.33" y="78.01" xlink:href="#hd"/>
<path d="M81.83 78.01v30.00" stroke="currentColor" fill="none"/>
<use x="115.63" y="90.01" xlink:href="#hl"/>
<use x="115.63" y="87.01" xlink:href="#hd"/>
<path d="M112.13 87.01v21.00" stroke="currentColor" fill="none"/>
<use x="145.93" y="90.01" xlink:href="#hl"/>
<use x="145.93" y="90.01" xlink:href="#hd"/>
<path d="M142.43 90.01v20.00" stroke="currentColor" fill="none"/>
<use x="182.73" y="93.01" xlink:href="#hd"/>
<circle fill="currentColor" cx="190.73" cy="93.01" r="1.2"/>
<path d="M179.23 93.01v20.00" stroke="currentColor" fill="none"/>
<use x="217.43" y="96.01" xlink:href="#hd"/>
<path d="M213.93 96.01v20.00" stroke="currentColor" fill="none"/>
<path fill="currentColor"
	d="M213.93 116.01c0.6 -5.6 9.6 -9 5.6 -18.4
	c1.6 6 -1.3 11.6 -5.6 12.8
"/>
<use x="238.93" y="99.01" xlink:href="#hd"/>
<path d="M235.43 99.01v20.00" stroke="currentColor" fill="none"/>
<path fill="currentColor"
	d="M271.93 120.21l39.50 0.00v-3.20l-39.50 -0.00"/>
<use x="275.73" y="99.01" xlink:href="#hd"/>
<path d="M272.23 99.01v20.20" stroke="currentColor" fill="none"/>
<use x="295.13" y="102.01" xlink:href="#hd"/>
<path d="M291.63 102.01v17.20" stroke="currentColor" fill="none"/>
<use x="314.63" y="102.01" xlink:href="#hd"/>
<path d="M311.13 102.01v17.20" stroke="currentColor" fill="none"/>
<use x="336.13" y="99.01" xlink:href="#hd"/>
<path d="M332.63 99.01v20.00" stroke="currentColor" fill="none"/>
<path fill="currentColor"
	d="M332.63 119.01c0.6 -5.6 9.6 -9 5.6 -18.4
	c1.6 6 -1.3 11.6 -5.6 12.8
"/>
<use x="357.63" y="96.01" xlink:href="#hd"/>
<path d="M354.13 96.01v20.00" stroke="currentColor" fill="none"/>
<path fill="currentColor"
	d="M390.53 114.21l39.50 0.00v-3.20l-39.50 -0.00"/>
<use x="394.43" y="93.01" xlink:href="#hd"/>
<path d="M390.93 93.01v20.20" stroke="currentColor" fill="none"/>
<use x="413.83" y="96.01" xlink:href="#hd"/>
<path d="M410.33 96.01v17.20" stroke="currentColor" fill="none"/>
<use x="433.23" y="96.01" xlink:href="#hd"/>
<path d="M429.73 96.01v17.20" stroke="currentColor" fill="none"/>
<use x="454.83" y="93.01" xlink:href="#hd"/>
<path d="M451.33 93.01v20.00" stroke="currentColor" fill="none"/>
<path fill="currentColor"
	d="M451.33 113.01c0.6 -5.6 9.6 -9 5.6 -18.4
	c1.6 6 -1.3 11.6 -5.6 12.8
"/>
<use x="476.33" y="90.01" xlink:href="#hl"/>
<use x="476.33" y="90.01" xlink:href="#hd"/>
<path d="M472.83 90.01v20.00" stroke="currentColor" fill="none"/>
<use x="513.13" y="90.01" xlink:href="#hl"/>
<use x="513.13" y="87.01" xlink:href="#hd"/>
<path d="M509.63 87.01v21.00" stroke="currentColor" fill="none"/>
<use x="543.33" y="96.01" xlink:href="#hd"/>
<path d="M539.83 96.01v20.00" stroke="currentColor" fill="none"/>
<use x="573.43" y="90.01" xlink:href="#hl"/>
<use x="573.43" y="90.01" xlink:href="#hd"/>
<path d="M569.93 90.01v20.00" stroke="currentColor" fill="none"/>
<use x="610.23" y="90.01" xlink:href="#hl"/>
<use x="610.23" y="90.01" xlink:href="#hd"/>
<path d="M606.73 90.01v20.00" stroke="currentColor" fill="none"/>
<use x="640.43" y="93.01" xlink:href="#hd"/>
<path d="M636.93 93.01v20.00" stroke="currentColor" fill="none"/>
<use x="670.63" y="99.01" xlink:href="#hd"/>
<path d="M667.13 99.01v20.00" stroke="currentColor" fill="none"/>
<path fill="currentColor"
	d="M576.93 90.01c4.69 -5.04 25.10 -5.04 29.79 -0.00
	l0.00 -0.23c-5.59 -6.81 -24.21 -6.81 -29.79 0.23"/>
</g>
</svg>
