<?xml version="1.0" standalone="no"?>
<!DOCTYPE svg PUBLIC "-//W3C//DTD SVG 1.1//EN"
	"http://www.w3.org/Graphics/SVG/1.1/DTD/svg11.dtd">
<svg xmlns="http://www.w3.org/2000/svg" version="1.1"
	xmlns:xlink="http://www.w3.org/1999/xlink"
	xml:space='preserve' color="black"
	width="7.38in" height="1.55in" viewBox="0 0 531 112">
<title>8588.abc (8588) tune 1</title>
<!-- Creator: abcm2ps-7.8.14 -->
<!-- CreationDate: Mar 13, 2016 18:54 -->
<!-- CommandLine: -qxg 8588.abc -O ../svgs/8588.svg -->
<g transform="scale(0.750)" stroke-width="0.70" font-family="Times" font-size="20.00">
<text x="354.13" y="21.67" text-anchor="middle">8588.  Quintet in F Minor, Op. 34, 1st. Mvt. - 2nd. Theme</text>
</g>
<g transform="scale(0.750)" stroke-width="0.70" font-family="Times" font-size="14.00" font-style="italic">
<text x="694.93" y="45.34" text-anchor="end">Johannes Brahms</text>
</g>
<g transform="scale(0.525)" stroke-width="0.70" font-family="Times" font-size="14.00" font-style="italic">
<defs>
<ellipse id="hd" rx="4.1" ry="2.9"
	transform="rotate(-20)" fill="currentColor"/>
</defs>
<use x="130.61" y="94.16" xlink:href="#hd"/>
<path d="M134.11 94.16v-20.00" stroke="currentColor" fill="none"/>
</g>
<g transform="scale(0.750)" stroke-width="0.70" font-family="Times" font-size="15.00" font-weight="bold">
<text x="99.13" y="68.01">= 120</text>
<path stroke="currentColor" fill="none"
	d="M314.23 126.01v-24.00"/>
<path stroke="currentColor" fill="none"
	d="M554.23 126.01v-24.00"/>
<path stroke="currentColor" fill="none"
	d="M13.33 126.01h681.60m-681.60 -6h681.60m-681.60 -6h681.60m-681.60 -6h681.60m-681.60 -6h681.60"/>
<defs>
<path id="utclef" fill="currentColor" d="m-50 -90
	c-72 -41 -72 -158 52 -188
	c150 -10 220 188 90 256
	c-114 52 -275 0 -293 -136
	c-15 -181 93 -229 220 -334
	c88 -87 79 -133 62 -210
	c-51 33 -94 105 -89 186
	c17 267 36 374 49 574
	c6 96 -19 134 -77 135
	c-80 1 -126 -93 -61 -133
	c85 -41 133 101 31 105
	c23 17 92 37 90 -92
	c-10 -223 -39 -342 -50 -617
	c0 -90 0 -162 96 -232
	c56 72 63 230 22 289
	c-74 106 -257 168 -255 316
	c9 153 148 185 252 133
	c86 -65 29 -192 -80 -176
	c-71 12 -105 67 -59 124"/>
<use id="tclef" transform="scale(0.045)"
	xlink:href="#utclef"/>
</defs>
<use x="25.33" y="126.01" xlink:href="#tclef"/>
<defs>
<path id="usharp" fill="currentColor" d="
	m136 -702
	v890
	h32
	v-890
	m128 840
	h32
	v-888
	h-32
	m-232 286
	v116
	l338 -96
	v-116
	m-338 442
	v116
	l338 -98
	v-114"/>
<use id="sh0" transform="translate(-4,5) scale(0.018)"
	xlink:href="#usharp"/>
</defs>
<use x="40.33" y="102.01" xlink:href="#sh0"/>
<use x="45.83" y="111.01" xlink:href="#sh0"/>
<use x="51.33" y="99.01" xlink:href="#sh0"/>
<use x="56.83" y="108.01" xlink:href="#sh0"/>
<g font-family="serif" font-size="16" font-weight="bold" font-style="normal"
	transform="translate(72.83,126.01) scale(1.2,1)">
	<text y="-1" text-anchor="middle">4</text>
	<text y="-13" text-anchor="middle">4</text>
</g>
<defs>
<path id="hl" stroke="currentColor" d="m-6 0h12"/>
</defs>
<use x="90.83" y="96.01" xlink:href="#hl"/>
<use x="90.83" y="90.01" xlink:href="#hl"/>
<use x="90.83" y="84.01" xlink:href="#hl"/>
<use x="90.83" y="78.01" xlink:href="#hl"/>
<use x="90.83" y="78.01" xlink:href="#hd"/>
<path d="M87.33 78.01v36.00" stroke="currentColor" fill="none"/>
<path fill="currentColor"
	d="M87.33 114.01c0.6 -5.6 9.6 -9 5.6 -18.4
	c1.6 6 -1.3 11.6 -5.6 12.8
"/>
<use x="118.33" y="99.01" xlink:href="#hd"/>
<path d="M114.83 99.01v20.00" stroke="currentColor" fill="none"/>
<path fill="currentColor"
	d="M114.83 119.01c0.6 -5.6 9.6 -9 5.6 -18.4
	c1.6 6 -1.3 11.6 -5.6 12.8
"/>
<use x="145.93" y="96.01" xlink:href="#hl"/>
<use x="145.93" y="96.01" xlink:href="#hd"/>
<path d="M142.43 96.01v20.00" stroke="currentColor" fill="none"/>
<path fill="currentColor"
	d="M142.43 116.01c0.6 -5.6 9.6 -9 5.6 -18.4
	c1.6 6 -1.3 11.6 -5.6 12.8
"/>
<use x="173.43" y="99.01" xlink:href="#hd"/>
<path d="M169.93 99.01v20.00" stroke="currentColor" fill="none"/>
<path fill="currentColor"
	d="M169.93 119.01c0.6 -5.6 9.6 -9 5.6 -18.4
	c1.6 6 -1.3 11.6 -5.6 12.8
"/>
<defs>
<path id="r8e" fill="currentColor" d="m 0 0
	c-1.5 1.5 -2.4 2 -3.6 2
	c2.4 -2.8 -2.8 -4 -2.8 -1.2
	c0 2.7 4.3 2.4 5.9 0.6"/>
<g id="r16">
	<path d="m3.3 -4l-4 15.6" stroke="currentColor" fill="none"/>
	<use x="3.4" y="-4" xlink:href="#r8e"/>
	<use x="1.9" y="2" xlink:href="#r8e"/>
</g>
</defs>
<use x="198.23" y="114.01" xlink:href="#r16"/>
<use x="217.73" y="96.01" xlink:href="#hl"/>
<use x="217.73" y="90.01" xlink:href="#hl"/>
<use x="217.73" y="84.01" xlink:href="#hl"/>
<use x="217.73" y="84.01" xlink:href="#hd"/>
<path d="M214.23 84.01v30.00" stroke="currentColor" fill="none"/>
<path fill="currentColor"
	d="M214.23 114.01c0.9 -3.7 9.1 -6.4 6 -12.4
	c1 5.4 -4.2 8.4 -6 8.4
M214.23 108.61c0.9 -3.7 9.1 -6.4 6 -12.4
	c1 5.4 -4.2 8.4 -6 8.4
"/>
<use x="237.13" y="105.01" xlink:href="#hd"/>
<path d="M233.63 105.01v20.00" stroke="currentColor" fill="none"/>
<path fill="currentColor"
	d="M233.63 125.01c0.6 -5.6 9.6 -9 5.6 -18.4
	c1.6 6 -1.3 11.6 -5.6 12.8
"/>
<use x="264.73" y="102.01" xlink:href="#hd"/>
<path d="M261.23 102.01v20.00" stroke="currentColor" fill="none"/>
<path fill="currentColor"
	d="M261.23 122.01c0.6 -5.6 9.6 -9 5.6 -18.4
	c1.6 6 -1.3 11.6 -5.6 12.8
"/>
<use x="292.23" y="105.01" xlink:href="#hd"/>
<path d="M288.73 105.01v20.00" stroke="currentColor" fill="none"/>
<path fill="currentColor"
	d="M288.73 125.01c0.6 -5.6 9.6 -9 5.6 -18.4
	c1.6 6 -1.3 11.6 -5.6 12.8
"/>
<use x="328.03" y="114.01" xlink:href="#r16"/>
<use x="347.53" y="96.01" xlink:href="#hl"/>
<use x="347.53" y="90.01" xlink:href="#hl"/>
<use x="347.53" y="90.01" xlink:href="#hd"/>
<path d="M344.03 90.01v24.00" stroke="currentColor" fill="none"/>
<path fill="currentColor"
	d="M344.03 114.01c0.9 -3.7 9.1 -6.4 6 -12.4
	c1 5.4 -4.2 8.4 -6 8.4
M344.03 108.61c0.9 -3.7 9.1 -6.4 6 -12.4
	c1 5.4 -4.2 8.4 -6 8.4
"/>
<use x="367.03" y="111.01" xlink:href="#hd"/>
<path d="M363.53 111.01v20.00" stroke="currentColor" fill="none"/>
<path fill="currentColor"
	d="M363.53 131.01c0.6 -5.6 9.6 -9 5.6 -18.4
	c1.6 6 -1.3 11.6 -5.6 12.8
"/>
<use x="394.53" y="105.01" xlink:href="#hd"/>
<path d="M391.03 105.01v20.00" stroke="currentColor" fill="none"/>
<path fill="currentColor"
	d="M391.03 125.01c0.6 -5.6 9.6 -9 5.6 -18.4
	c1.6 6 -1.3 11.6 -5.6 12.8
"/>
<use x="422.03" y="96.01" xlink:href="#hl"/>
<use x="422.03" y="96.01" xlink:href="#hd"/>
<path d="M418.53 96.01v20.00" stroke="currentColor" fill="none"/>
<path fill="currentColor"
	d="M418.53 116.01c0.6 -5.6 9.6 -9 5.6 -18.4
	c1.6 6 -1.3 11.6 -5.6 12.8
"/>
<use x="449.63" y="96.01" xlink:href="#hl"/>
<use x="449.63" y="90.01" xlink:href="#hl"/>
<use x="449.63" y="90.01" xlink:href="#hd"/>
<path d="M446.13 90.01v24.00" stroke="currentColor" fill="none"/>
<path fill="currentColor"
	d="M446.13 114.01c0.6 -5.6 9.6 -9 5.6 -18.4
	c1.6 6 -1.3 11.6 -5.6 12.8
"/>
<use x="477.13" y="96.01" xlink:href="#hl"/>
<use x="477.13" y="90.01" xlink:href="#hl"/>
<use x="477.13" y="84.01" xlink:href="#hl"/>
<use x="477.13" y="84.01" xlink:href="#hd"/>
<path d="M473.63 84.01v30.00" stroke="currentColor" fill="none"/>
<path fill="currentColor"
	d="M473.63 114.01c0.6 -5.6 9.6 -9 5.6 -18.4
	c1.6 6 -1.3 11.6 -5.6 12.8
"/>
<use x="504.73" y="96.01" xlink:href="#hl"/>
<use x="504.73" y="90.01" xlink:href="#hl"/>
<use x="504.73" y="84.01" xlink:href="#hl"/>
<use x="504.73" y="81.01" xlink:href="#hd"/>
<path d="M501.23 81.01v33.00" stroke="currentColor" fill="none"/>
<path fill="currentColor"
	d="M501.23 114.01c0.6 -5.6 9.6 -9 5.6 -18.4
	c1.6 6 -1.3 11.6 -5.6 12.8
"/>
<use x="532.23" y="96.01" xlink:href="#hl"/>
<use x="532.23" y="90.01" xlink:href="#hl"/>
<use x="532.23" y="84.01" xlink:href="#hl"/>
<use x="532.23" y="78.01" xlink:href="#hl"/>
<use x="532.23" y="78.01" xlink:href="#hd"/>
<path d="M528.73 78.01v36.00" stroke="currentColor" fill="none"/>
<path fill="currentColor"
	d="M528.73 114.01c0.6 -5.6 9.6 -9 5.6 -18.4
	c1.6 6 -1.3 11.6 -5.6 12.8
"/>
<use x="568.03" y="96.01" xlink:href="#hl"/>
<use x="568.03" y="90.01" xlink:href="#hl"/>
<use x="568.03" y="84.01" xlink:href="#hl"/>
<use x="568.03" y="81.01" xlink:href="#hd"/>
<path d="M564.53 81.01v33.00" stroke="currentColor" fill="none"/>
<path fill="currentColor"
	d="M564.53 114.01c0.6 -5.6 9.6 -9 5.6 -18.4
	c1.6 6 -1.3 11.6 -5.6 12.8
"/>
<use x="595.63" y="96.01" xlink:href="#hl"/>
<use x="595.63" y="90.01" xlink:href="#hl"/>
<use x="595.63" y="84.01" xlink:href="#hl"/>
<use x="595.63" y="84.01" xlink:href="#hd"/>
<path d="M592.13 84.01v30.00" stroke="currentColor" fill="none"/>
<path fill="currentColor"
	d="M592.13 114.01c0.6 -5.6 9.6 -9 5.6 -18.4
	c1.6 6 -1.3 11.6 -5.6 12.8
"/>
<use x="623.13" y="96.01" xlink:href="#hl"/>
<use x="623.13" y="90.01" xlink:href="#hl"/>
<use x="623.13" y="84.01" xlink:href="#hl"/>
<use x="623.13" y="81.01" xlink:href="#hd"/>
<path d="M619.63 81.01v33.00" stroke="currentColor" fill="none"/>
<path fill="currentColor"
	d="M619.63 114.01c0.6 -5.6 9.6 -9 5.6 -18.4
	c1.6 6 -1.3 11.6 -5.6 12.8
"/>
<use x="650.73" y="96.01" xlink:href="#hl"/>
<use x="650.73" y="90.01" xlink:href="#hl"/>
<use x="650.73" y="84.01" xlink:href="#hl"/>
<use x="650.73" y="78.01" xlink:href="#hl"/>
<use x="650.73" y="78.01" xlink:href="#hd"/>
<circle fill="currentColor" cx="658.73" cy="75.01" r="1.2"/>
<path d="M647.23 78.01v36.00" stroke="currentColor" fill="none"/>
</g>
</svg>
