<?xml version="1.0" standalone="no"?>
<!DOCTYPE svg PUBLIC "-//W3C//DTD SVG 1.1//EN"
	"http://www.w3.org/Graphics/SVG/1.1/DTD/svg11.dtd">
<svg xmlns="http://www.w3.org/2000/svg" version="1.1"
	xmlns:xlink="http://www.w3.org/1999/xlink"
	xml:space='preserve' color="black"
	width="7.38in" height="1.60in" viewBox="0 0 531 116">
<title>8595.abc (8595) tune 1</title>
<!-- Creator: abcm2ps-7.8.14 -->
<!-- CreationDate: Mar 13, 2016 18:54 -->
<!-- CommandLine: -qxg 8595.abc -O ../svgs/8595.svg -->
<g transform="scale(0.750)" stroke-width="0.70" font-family="Times" font-size="20.00">
<text x="354.13" y="21.67" text-anchor="middle">8595.  Quintet in F Minor, Op. 34, 3rd. Mvt. - 3rd. Theme</text>
</g>
<g transform="scale(0.750)" stroke-width="0.70" font-family="Times" font-size="14.00" font-style="italic">
<text x="694.93" y="45.34" text-anchor="end">Johannes Brahms</text>
</g>
<g transform="scale(0.525)" stroke-width="0.70" font-family="Times" font-size="14.00" font-style="italic">
<defs>
<ellipse id="hd" rx="4.1" ry="2.9"
	transform="rotate(-20)" fill="currentColor"/>
</defs>
<use x="131.33" y="94.16" xlink:href="#hd"/>
<path d="M134.83 94.16v-20.00" stroke="currentColor" fill="none"/>
</g>
<g transform="scale(0.750)" stroke-width="0.70" font-family="Times" font-size="15.00" font-weight="bold">
<text x="99.63" y="68.01">= 120</text>
<path stroke="currentColor" fill="none"
	d="M153.63 131.01v-24.00"/>
<path stroke="currentColor" fill="none"
	d="M263.33 131.01v-24.00"/>
<path stroke="currentColor" fill="none"
	d="M338.13 131.01v-24.00"/>
<path stroke="currentColor" fill="none"
	d="M442.53 131.01v-24.00"/>
<path stroke="currentColor" fill="none"
	d="M546.93 131.01v-24.00"/>
<path stroke="currentColor" fill="none"
	d="M649.83 131.01v-24.00"/>
<path stroke="currentColor" fill="none"
	d="M13.33 131.01h681.60m-681.60 -6h681.60m-681.60 -6h681.60m-681.60 -6h681.60m-681.60 -6h681.60"/>
<defs>
<path id="utclef" fill="currentColor" d="m-50 -90
	c-72 -41 -72 -158 52 -188
	c150 -10 220 188 90 256
	c-114 52 -275 0 -293 -136
	c-15 -181 93 -229 220 -334
	c88 -87 79 -133 62 -210
	c-51 33 -94 105 -89 186
	c17 267 36 374 49 574
	c6 96 -19 134 -77 135
	c-80 1 -126 -93 -61 -133
	c85 -41 133 101 31 105
	c23 17 92 37 90 -92
	c-10 -223 -39 -342 -50 -617
	c0 -90 0 -162 96 -232
	c56 72 63 230 22 289
	c-74 106 -257 168 -255 316
	c9 153 148 185 252 133
	c86 -65 29 -192 -80 -176
	c-71 12 -105 67 -59 124"/>
<use id="tclef" transform="scale(0.045)"
	xlink:href="#utclef"/>
</defs>
<use x="25.33" y="131.01" xlink:href="#tclef"/>
<defs>
<path id="uflat" fill="currentColor" d="
	m100 -746
	h32
	v734
	l-32 4
	m32 -332
	c46 -72 152 -90 208 -20
	c100 110 -120 326 -208 348
	m0 -28
	c54 0 200 -206 130 -290
	c-50 -60 -130 -4 -130 34"/>
<use id="ft0" transform="translate(-3.5,3.5) scale(0.018)"
	xlink:href="#uflat"/>
</defs>
<use x="40.33" y="119.01" xlink:href="#ft0"/>
<use x="45.83" y="110.01" xlink:href="#ft0"/>
<use x="51.33" y="122.01" xlink:href="#ft0"/>
<g font-family="serif" font-size="16" font-weight="bold" font-style="normal"
	transform="translate(67.33,131.01) scale(1.2,1)">
	<text y="-1" text-anchor="middle">8</text>
	<text y="-13" text-anchor="middle">6</text>
</g>
<defs>
<path id="hl" stroke="currentColor" d="m-6 0h12"/>
</defs>
<use x="91.33" y="101.01" xlink:href="#hl"/>
<use x="91.33" y="95.01" xlink:href="#hl"/>
<use x="91.33" y="89.01" xlink:href="#hl"/>
<use x="91.33" y="83.01" xlink:href="#hl"/>
<use x="91.33" y="80.01" xlink:href="#hd"/>
<circle fill="currentColor" cx="99.33" cy="80.01" r="1.2"/>
<defs>
<path id="unat" fill="currentColor" d="
	m96 -750
	h-32
	v716
	l32 -8
	l182 -54
	v282
	h32
	v-706
	l-34 10
	l-180 50
	v-290
	m0 592
	v-190
	l182 -52
	v188"/>
<use id="nt0" transform="translate(-3,5) scale(0.018)"
	xlink:href="#unat"/>
</defs>
<use x="82.33" y="80.01" xlink:href="#nt0"/>
<path d="M87.83 80.01v39.00" stroke="currentColor" fill="none"/>
<use x="125.83" y="101.01" xlink:href="#hl"/>
<use x="125.83" y="95.01" xlink:href="#hl"/>
<use x="125.83" y="89.01" xlink:href="#hl"/>
<use x="125.83" y="83.01" xlink:href="#hl"/>
<use x="125.83" y="83.01" xlink:href="#hd"/>
<circle fill="currentColor" cx="133.83" cy="80.01" r="1.2"/>
<path d="M122.33 83.01v36.00" stroke="currentColor" fill="none"/>
<use x="172.13" y="101.01" xlink:href="#hl"/>
<use x="172.13" y="95.01" xlink:href="#hl"/>
<use x="172.13" y="89.01" xlink:href="#hl"/>
<use x="172.13" y="89.01" xlink:href="#hd"/>
<circle fill="currentColor" cx="180.13" cy="86.01" r="1.2"/>
<use x="163.13" y="89.01" xlink:href="#nt0"/>
<path d="M168.63 89.01v30.00" stroke="currentColor" fill="none"/>
<path fill="currentColor"
	d="M202.83 119.21l40.10 0.00v-3.20l-40.10 -0.00"/>
<use x="206.63" y="101.01" xlink:href="#hl"/>
<use x="206.63" y="95.01" xlink:href="#hl"/>
<use x="206.63" y="89.01" xlink:href="#hl"/>
<use x="206.63" y="86.01" xlink:href="#hd"/>
<path d="M203.13 86.01v32.20" stroke="currentColor" fill="none"/>
<use x="226.73" y="101.01" xlink:href="#hl"/>
<use x="226.73" y="95.01" xlink:href="#hl"/>
<use x="226.73" y="89.01" xlink:href="#hl"/>
<use x="226.73" y="89.01" xlink:href="#hd"/>
<use x="217.73" y="89.01" xlink:href="#nt0"/>
<path d="M223.23 89.01v29.20" stroke="currentColor" fill="none"/>
<use x="246.13" y="101.01" xlink:href="#hl"/>
<use x="246.13" y="95.01" xlink:href="#hl"/>
<use x="246.13" y="89.01" xlink:href="#hl"/>
<use x="246.13" y="86.01" xlink:href="#hd"/>
<path d="M242.63 86.01v32.20" stroke="currentColor" fill="none"/>
<use x="275.83" y="101.01" xlink:href="#hl"/>
<use x="275.83" y="95.01" xlink:href="#hl"/>
<use x="275.83" y="89.01" xlink:href="#hl"/>
<use x="275.83" y="83.01" xlink:href="#hl"/>
<use x="275.83" y="83.01" xlink:href="#hd"/>
<circle fill="currentColor" cx="283.83" cy="80.01" r="1.2"/>
<path d="M272.33 83.01v36.00" stroke="currentColor" fill="none"/>
<use x="310.33" y="101.01" xlink:href="#hl"/>
<use x="310.33" y="95.01" xlink:href="#hl"/>
<use x="310.33" y="89.01" xlink:href="#hl"/>
<use x="310.33" y="86.01" xlink:href="#hd"/>
<circle fill="currentColor" cx="318.33" cy="86.01" r="1.2"/>
<path d="M306.83 86.01v33.00" stroke="currentColor" fill="none"/>
<use x="350.63" y="101.01" xlink:href="#hl"/>
<use x="350.63" y="95.01" xlink:href="#hl"/>
<use x="350.63" y="92.01" xlink:href="#hd"/>
<circle fill="currentColor" cx="358.63" cy="92.01" r="1.2"/>
<path d="M347.13 92.01v27.00" stroke="currentColor" fill="none"/>
<path fill="currentColor"
	d="M382.03 119.21l40.10 0.00v-3.20l-40.10 -0.00"/>
<use x="385.93" y="101.01" xlink:href="#hl"/>
<use x="385.93" y="95.01" xlink:href="#hl"/>
<use x="385.93" y="89.01" xlink:href="#hl"/>
<use x="385.93" y="89.01" xlink:href="#hd"/>
<use x="376.93" y="89.01" xlink:href="#nt0"/>
<path d="M382.43 89.01v29.20" stroke="currentColor" fill="none"/>
<use x="405.23" y="101.01" xlink:href="#hl"/>
<use x="405.23" y="95.01" xlink:href="#hl"/>
<use x="405.23" y="92.01" xlink:href="#hd"/>
<path d="M401.73 92.01v26.20" stroke="currentColor" fill="none"/>
<use x="425.33" y="101.01" xlink:href="#hl"/>
<use x="425.33" y="95.01" xlink:href="#hl"/>
<use x="425.33" y="89.01" xlink:href="#hl"/>
<use x="425.33" y="89.01" xlink:href="#hd"/>
<use x="416.33" y="89.01" xlink:href="#nt0"/>
<path d="M421.83 89.01v29.20" stroke="currentColor" fill="none"/>
<use x="455.03" y="101.01" xlink:href="#hl"/>
<use x="455.03" y="95.01" xlink:href="#hl"/>
<use x="455.03" y="95.01" xlink:href="#hd"/>
<circle fill="currentColor" cx="463.03" cy="92.01" r="1.2"/>
<path d="M451.53 95.01v24.00" stroke="currentColor" fill="none"/>
<path fill="currentColor"
	d="M486.43 119.21l40.10 0.00v-3.20l-40.10 -0.00"/>
<use x="490.33" y="101.01" xlink:href="#hl"/>
<use x="490.33" y="95.01" xlink:href="#hl"/>
<use x="490.33" y="89.01" xlink:href="#hl"/>
<use x="490.33" y="89.01" xlink:href="#hd"/>
<use x="481.33" y="89.01" xlink:href="#nt0"/>
<path d="M486.83 89.01v29.20" stroke="currentColor" fill="none"/>
<use x="509.63" y="101.01" xlink:href="#hl"/>
<use x="509.63" y="95.01" xlink:href="#hl"/>
<use x="509.63" y="92.01" xlink:href="#hd"/>
<path d="M506.13 92.01v26.20" stroke="currentColor" fill="none"/>
<use x="529.73" y="101.01" xlink:href="#hl"/>
<use x="529.73" y="95.01" xlink:href="#hl"/>
<use x="529.73" y="89.01" xlink:href="#hl"/>
<use x="529.73" y="89.01" xlink:href="#hd"/>
<use x="520.73" y="89.01" xlink:href="#nt0"/>
<path d="M526.23 89.01v29.20" stroke="currentColor" fill="none"/>
<use x="559.43" y="101.01" xlink:href="#hl"/>
<use x="559.43" y="95.01" xlink:href="#hl"/>
<use x="559.43" y="95.01" xlink:href="#hd"/>
<circle fill="currentColor" cx="567.43" cy="92.01" r="1.2"/>
<path d="M555.93 95.01v24.00" stroke="currentColor" fill="none"/>
<path fill="currentColor"
	d="M590.13 119.21l39.30 0.00v-3.20l-39.30 -0.00"/>
<use x="593.93" y="101.01" xlink:href="#hl"/>
<use x="593.93" y="95.01" xlink:href="#hl"/>
<use x="593.93" y="92.01" xlink:href="#hd"/>
<path d="M590.43 92.01v26.20" stroke="currentColor" fill="none"/>
<use x="613.23" y="101.01" xlink:href="#hl"/>
<use x="613.23" y="95.01" xlink:href="#hl"/>
<use x="613.23" y="95.01" xlink:href="#hd"/>
<path d="M609.73 95.01v23.20" stroke="currentColor" fill="none"/>
<use x="632.63" y="101.01" xlink:href="#hl"/>
<use x="632.63" y="95.01" xlink:href="#hl"/>
<use x="632.63" y="92.01" xlink:href="#hd"/>
<path d="M629.13 92.01v26.20" stroke="currentColor" fill="none"/>
<use x="662.33" y="104.01" xlink:href="#hd"/>
<circle fill="currentColor" cx="670.33" cy="104.01" r="1.2"/>
<path d="M658.83 104.01v20.00" stroke="currentColor" fill="none"/>
</g>
</svg>
