<?xml version="1.0" standalone="no"?>
<!DOCTYPE svg PUBLIC "-//W3C//DTD SVG 1.1//EN"
	"http://www.w3.org/Graphics/SVG/1.1/DTD/svg11.dtd">
<svg xmlns="http://www.w3.org/2000/svg" version="1.1"
	xmlns:xlink="http://www.w3.org/1999/xlink"
	xml:space='preserve' color="black"
	width="7.38in" height="1.34in" viewBox="0 0 531 97">
<title>8599.abc (8599) tune 1</title>
<!-- Creator: abcm2ps-7.8.14 -->
<!-- CreationDate: Mar 13, 2016 18:54 -->
<!-- CommandLine: -qxg 8599.abc -O ../svgs/8599.svg -->
<g transform="scale(0.750)" stroke-width="0.70" font-family="Times" font-size="20.00">
<text x="354.13" y="21.67" text-anchor="middle">8599.  Quintet in F, Op. 88, 2nd. Mvt.</text>
</g>
<g transform="scale(0.750)" stroke-width="0.70" font-family="Times" font-size="14.00" font-style="italic">
<text x="694.93" y="45.34" text-anchor="end">Johannes Brahms</text>
</g>
<g transform="scale(0.525)" stroke-width="0.70" font-family="Times" font-size="14.00" font-style="italic">
<defs>
<ellipse id="hd" rx="4.1" ry="2.9"
	transform="rotate(-20)" fill="currentColor"/>
</defs>
<use x="130.61" y="94.16" xlink:href="#hd"/>
<path d="M134.11 94.16v-20.00" stroke="currentColor" fill="none"/>
</g>
<g transform="scale(0.750)" stroke-width="0.70" font-family="Times" font-size="15.00" font-weight="bold">
<text x="99.13" y="68.01">= 120</text>
<path stroke="currentColor" fill="none"
	d="M241.43 106.01v-24.00"/>
<path stroke="currentColor" fill="none"
	d="M406.23 106.01v-24.00"/>
<path stroke="currentColor" fill="none"
	d="M541.83 106.01v-24.00"/>
<path stroke="currentColor" fill="none"
	d="M694.93 106.01v-24.00"/>
<path stroke="currentColor" fill="none"
	d="M13.33 106.01h681.60m-681.60 -6h681.60m-681.60 -6h681.60m-681.60 -6h681.60m-681.60 -6h681.60"/>
<text font-family="serif" font-size="12" font-style="italic" font-weight="normal"
	x="202.43" y="122.11" text-anchor="middle">3</text>
<text font-family="serif" font-size="12" font-style="italic" font-weight="normal"
	x="367.23" y="122.11" text-anchor="middle">3</text>
<defs>
<path id="utclef" fill="currentColor" d="m-50 -90
	c-72 -41 -72 -158 52 -188
	c150 -10 220 188 90 256
	c-114 52 -275 0 -293 -136
	c-15 -181 93 -229 220 -334
	c88 -87 79 -133 62 -210
	c-51 33 -94 105 -89 186
	c17 267 36 374 49 574
	c6 96 -19 134 -77 135
	c-80 1 -126 -93 -61 -133
	c85 -41 133 101 31 105
	c23 17 92 37 90 -92
	c-10 -223 -39 -342 -50 -617
	c0 -90 0 -162 96 -232
	c56 72 63 230 22 289
	c-74 106 -257 168 -255 316
	c9 153 148 185 252 133
	c86 -65 29 -192 -80 -176
	c-71 12 -105 67 -59 124"/>
<use id="tclef" transform="scale(0.045)"
	xlink:href="#utclef"/>
</defs>
<use x="25.33" y="106.01" xlink:href="#tclef"/>
<defs>
<path id="usharp" fill="currentColor" d="
	m136 -702
	v890
	h32
	v-890
	m128 840
	h32
	v-888
	h-32
	m-232 286
	v116
	l338 -96
	v-116
	m-338 442
	v116
	l338 -98
	v-114"/>
<use id="sh0" transform="translate(-4,5) scale(0.018)"
	xlink:href="#usharp"/>
</defs>
<use x="40.33" y="82.01" xlink:href="#sh0"/>
<use x="45.83" y="91.01" xlink:href="#sh0"/>
<use x="51.33" y="79.01" xlink:href="#sh0"/>
<use x="56.83" y="88.01" xlink:href="#sh0"/>
<g font-family="serif" font-size="16" font-weight="bold" font-style="normal"
	transform="translate(72.83,106.01) scale(1.2,1)">
	<text y="-1" text-anchor="middle">4</text>
	<text y="-13" text-anchor="middle">3</text>
</g>
<path fill="currentColor"
	d="M87.03 99.31l26.10 2.50v-3.20l-26.10 -2.50"/>
<use x="90.83" y="79.01" xlink:href="#hd"/>
<path d="M87.33 79.01v19.30" stroke="currentColor" fill="none"/>
<use x="116.23" y="82.01" xlink:href="#hd"/>
<defs>
<path id="unat" fill="currentColor" d="
	m96 -750
	h-32
	v716
	l32 -8
	l182 -54
	v282
	h32
	v-706
	l-34 10
	l-180 50
	v-290
	m0 592
	v-190
	l182 -52
	v188"/>
<use id="nt0" transform="translate(-3,5) scale(0.018)"
	xlink:href="#unat"/>
</defs>
<use x="107.23" y="82.01" xlink:href="#nt0"/>
<path d="M112.73 82.01v18.70" stroke="currentColor" fill="none"/>
<use x="144.43" y="88.01" xlink:href="#hd"/>
<path d="M140.93 88.01v20.00" stroke="currentColor" fill="none"/>
<path fill="currentColor"
	d="M180.43 107.21l40.30 -3.10v-3.20l-40.30 3.10"/>
<use x="184.23" y="88.01" xlink:href="#hd"/>
<path d="M180.73 88.01v18.20" stroke="currentColor" fill="none"/>
<use x="204.03" y="82.01" xlink:href="#hd"/>
<use x="195.03" y="82.01" xlink:href="#nt0"/>
<path d="M200.53 82.01v22.70" stroke="currentColor" fill="none"/>
<use x="223.83" y="82.01" xlink:href="#hd"/>
<use x="214.83" y="82.01" xlink:href="#sh0"/>
<path d="M220.33 82.01v21.20" stroke="currentColor" fill="none"/>
<path fill="currentColor"
	d="M251.73 99.31l26.10 2.50v-3.20l-26.10 -2.50"/>
<use x="255.53" y="79.01" xlink:href="#hd"/>
<path d="M252.03 79.01v19.30" stroke="currentColor" fill="none"/>
<use x="280.93" y="82.01" xlink:href="#hd"/>
<use x="271.93" y="82.01" xlink:href="#nt0"/>
<path d="M277.43 82.01v18.70" stroke="currentColor" fill="none"/>
<use x="309.13" y="88.01" xlink:href="#hd"/>
<path d="M305.63 88.01v20.00" stroke="currentColor" fill="none"/>
<path fill="currentColor"
	d="M345.13 107.21l40.30 -3.10v-3.20l-40.30 3.10"/>
<use x="349.03" y="88.01" xlink:href="#hd"/>
<path d="M345.53 88.01v18.20" stroke="currentColor" fill="none"/>
<use x="368.83" y="82.01" xlink:href="#hd"/>
<use x="359.83" y="82.01" xlink:href="#nt0"/>
<path d="M365.33 82.01v22.70" stroke="currentColor" fill="none"/>
<use x="388.63" y="82.01" xlink:href="#hd"/>
<use x="379.63" y="82.01" xlink:href="#sh0"/>
<path d="M385.13 82.01v21.20" stroke="currentColor" fill="none"/>
<path fill="currentColor"
	d="M416.43 98.71l26.10 -2.50v-3.20l-26.10 2.50"/>
<use x="420.33" y="79.01" xlink:href="#hd"/>
<path d="M416.83 79.01v18.70" stroke="currentColor" fill="none"/>
<defs>
<path id="hl" stroke="currentColor" d="m-6 0h12"/>
</defs>
<use x="445.63" y="76.01" xlink:href="#hl"/>
<use x="445.63" y="76.01" xlink:href="#hd"/>
<use x="436.63" y="76.01" xlink:href="#sh0"/>
<path d="M442.13 76.01v19.30" stroke="currentColor" fill="none"/>
<use x="473.83" y="76.01" xlink:href="#hl"/>
<use x="473.83" y="76.01" xlink:href="#hd"/>
<circle fill="currentColor" cx="481.83" cy="73.01" r="1.2"/>
<use x="464.83" y="76.01" xlink:href="#sh0"/>
<path d="M470.33 76.01v20.00" stroke="currentColor" fill="none"/>
<use x="519.23" y="76.01" xlink:href="#hl"/>
<use x="519.23" y="73.01" xlink:href="#hd"/>
<path d="M515.73 73.01v21.00" stroke="currentColor" fill="none"/>
<path fill="currentColor"
	d="M515.73 94.01c0.6 -5.6 9.6 -9 5.6 -18.4
	c1.6 6 -1.3 11.6 -5.6 12.8
"/>
<path fill="currentColor"
	d="M552.03 94.21l51.40 0.00v-3.20l-51.40 -0.00"/>
<use x="555.93" y="76.01" xlink:href="#hl"/>
<use x="555.93" y="73.01" xlink:href="#hd"/>
<path d="M552.43 73.01v20.20" stroke="currentColor" fill="none"/>
<use x="581.23" y="76.01" xlink:href="#hl"/>
<use x="581.23" y="70.01" xlink:href="#hl"/>
<use x="581.23" y="70.01" xlink:href="#hd"/>
<path d="M577.73 70.01v23.20" stroke="currentColor" fill="none"/>
<use x="606.63" y="76.01" xlink:href="#hl"/>
<use x="606.63" y="73.01" xlink:href="#hd"/>
<path d="M603.13 73.01v20.20" stroke="currentColor" fill="none"/>
<use x="634.83" y="76.01" xlink:href="#hl"/>
<use x="634.83" y="76.01" xlink:href="#hd"/>
<use x="625.83" y="76.01" xlink:href="#nt0"/>
<path d="M631.33 76.01v20.00" stroke="currentColor" fill="none"/>
<path fill="currentColor"
	d="M631.33 96.01c0.6 -5.6 9.6 -9 5.6 -18.4
	c1.6 6 -1.3 11.6 -5.6 12.8
"/>
<use x="663.03" y="79.01" xlink:href="#hd"/>
<path d="M659.53 79.01v20.00" stroke="currentColor" fill="none"/>
</g>
</svg>
