<?xml version="1.0" standalone="no"?>
<!DOCTYPE svg PUBLIC "-//W3C//DTD SVG 1.1//EN"
	"http://www.w3.org/Graphics/SVG/1.1/DTD/svg11.dtd">
<svg xmlns="http://www.w3.org/2000/svg" version="1.1"
	xmlns:xlink="http://www.w3.org/1999/xlink"
	xml:space='preserve' color="black"
	width="7.38in" height="1.68in" viewBox="0 0 531 121">
<title>8603.abc (8603) tune 1</title>
<!-- Creator: abcm2ps-7.8.14 -->
<!-- CreationDate: Mar 13, 2016 18:54 -->
<!-- CommandLine: -qxg 8603.abc -O ../svgs/8603.svg -->
<g transform="scale(0.750)" stroke-width="0.70" font-family="Times" font-size="20.00">
<text x="354.13" y="21.67" text-anchor="middle">8603.  Quintet in G, Op. 111, 1st. Mvt. - 2nd. Theme</text>
</g>
<g transform="scale(0.750)" stroke-width="0.70" font-family="Times" font-size="14.00" font-style="italic">
<text x="694.93" y="45.34" text-anchor="end">Johannes Brahms</text>
</g>
<g transform="scale(0.525)" stroke-width="0.70" font-family="Times" font-size="14.00" font-style="italic">
<defs>
<ellipse id="hd" rx="4.1" ry="2.9"
	transform="rotate(-20)" fill="currentColor"/>
</defs>
<use x="107.04" y="94.16" xlink:href="#hd"/>
<path d="M110.54 94.16v-20.00" stroke="currentColor" fill="none"/>
</g>
<g transform="scale(0.750)" stroke-width="0.70" font-family="Times" font-size="15.00" font-weight="bold">
<text x="82.63" y="68.01">= 120</text>
<path stroke="currentColor" fill="none"
	d="M195.73 138.01v-24.00"/>
<path stroke="currentColor" fill="none"
	d="M335.63 138.01v-24.00"/>
<path stroke="currentColor" fill="none"
	d="M611.43 138.01v-24.00"/>
<path stroke="currentColor" fill="none"
	d="M13.33 138.01h681.60m-681.60 -6h681.60m-681.60 -6h681.60m-681.60 -6h681.60m-681.60 -6h681.60"/>
<path stroke="currentColor" fill="none"
	d="M346.03 71.01v-3l64.10 -0.00v3"/>
<rect x="371.03" y="62.01" width="14.00" height="12" fill="white"/>
<text font-family="serif" font-size="12" font-style="italic" font-weight="normal"
	x="378.03" y="72.01" text-anchor="middle">3</text>
<defs>
<path id="utclef" fill="currentColor" d="m-50 -90
	c-72 -41 -72 -158 52 -188
	c150 -10 220 188 90 256
	c-114 52 -275 0 -293 -136
	c-15 -181 93 -229 220 -334
	c88 -87 79 -133 62 -210
	c-51 33 -94 105 -89 186
	c17 267 36 374 49 574
	c6 96 -19 134 -77 135
	c-80 1 -126 -93 -61 -133
	c85 -41 133 101 31 105
	c23 17 92 37 90 -92
	c-10 -223 -39 -342 -50 -617
	c0 -90 0 -162 96 -232
	c56 72 63 230 22 289
	c-74 106 -257 168 -255 316
	c9 153 148 185 252 133
	c86 -65 29 -192 -80 -176
	c-71 12 -105 67 -59 124"/>
<use id="tclef" transform="scale(0.045)"
	xlink:href="#utclef"/>
</defs>
<use x="25.33" y="138.01" xlink:href="#tclef"/>
<defs>
<path id="usharp" fill="currentColor" d="
	m136 -702
	v890
	h32
	v-890
	m128 840
	h32
	v-888
	h-32
	m-232 286
	v116
	l338 -96
	v-116
	m-338 442
	v116
	l338 -98
	v-114"/>
<use id="sh0" transform="translate(-4,5) scale(0.018)"
	xlink:href="#usharp"/>
</defs>
<use x="40.33" y="114.01" xlink:href="#sh0"/>
<g font-family="serif" font-size="16" font-weight="bold" font-style="normal"
	transform="translate(56.33,138.01) scale(1.2,1)">
	<text y="-1" text-anchor="middle">8</text>
	<text y="-13" text-anchor="middle">9</text>
</g>
<defs>
<path id="hl" stroke="currentColor" d="m-6 0h12"/>
</defs>
<use x="74.33" y="108.01" xlink:href="#hl"/>
<use x="74.33" y="102.01" xlink:href="#hl"/>
<use x="74.33" y="96.01" xlink:href="#hl"/>
<use x="74.33" y="90.01" xlink:href="#hl"/>
<use x="74.33" y="84.01" xlink:href="#hl"/>
<use x="74.33" y="78.01" xlink:href="#hl"/>
<use x="74.33" y="78.01" xlink:href="#hd"/>
<path d="M70.83 78.01v48.00" stroke="currentColor" fill="none"/>
<use x="114.83" y="108.01" xlink:href="#hl"/>
<use x="114.83" y="102.01" xlink:href="#hl"/>
<use x="114.83" y="96.01" xlink:href="#hl"/>
<use x="114.83" y="90.01" xlink:href="#hl"/>
<use x="114.83" y="84.01" xlink:href="#hl"/>
<use x="114.83" y="81.01" xlink:href="#hd"/>
<use x="105.83" y="81.01" xlink:href="#sh0"/>
<path d="M111.33 81.01v45.00" stroke="currentColor" fill="none"/>
<path fill="currentColor"
	d="M111.33 126.01c0.6 -5.6 9.6 -9 5.6 -18.4
	c1.6 6 -1.3 11.6 -5.6 12.8
"/>
<use x="143.53" y="108.01" xlink:href="#hl"/>
<use x="143.53" y="102.01" xlink:href="#hl"/>
<use x="143.53" y="96.01" xlink:href="#hl"/>
<use x="143.53" y="90.01" xlink:href="#hl"/>
<use x="143.53" y="84.01" xlink:href="#hl"/>
<use x="143.53" y="78.01" xlink:href="#hl"/>
<defs>
<path id="Hd" fill="currentColor" d="m3 -1.6
	c-1 -1.8 -7 1.4 -6 3.2
	c1 1.8 7 -1.4 6 -3.2
	m0.5 -0.3
	c2 3.8 -5 7.6 -7 3.8
	c-2 -3.8 5 -7.6 7 -3.8"/>
</defs>
<use x="143.53" y="75.01" xlink:href="#Hd"/>
<circle fill="currentColor" cx="152.53" cy="75.01" r="1.2"/>
<path d="M140.03 75.01v51.00" stroke="currentColor" fill="none"/>
<use x="214.23" y="108.01" xlink:href="#hl"/>
<use x="214.23" y="102.01" xlink:href="#hl"/>
<use x="214.23" y="96.01" xlink:href="#hl"/>
<use x="214.23" y="90.01" xlink:href="#hl"/>
<use x="214.23" y="84.01" xlink:href="#hl"/>
<use x="214.23" y="81.01" xlink:href="#hd"/>
<use x="205.23" y="81.01" xlink:href="#sh0"/>
<path d="M210.73 81.01v45.00" stroke="currentColor" fill="none"/>
<use x="254.83" y="108.01" xlink:href="#hl"/>
<use x="254.83" y="102.01" xlink:href="#hl"/>
<use x="254.83" y="96.01" xlink:href="#hl"/>
<use x="254.83" y="90.01" xlink:href="#hl"/>
<use x="254.83" y="84.01" xlink:href="#hl"/>
<use x="254.83" y="84.01" xlink:href="#hd"/>
<path d="M251.33 84.01v42.00" stroke="currentColor" fill="none"/>
<path fill="currentColor"
	d="M251.33 126.01c0.6 -5.6 9.6 -9 5.6 -18.4
	c1.6 6 -1.3 11.6 -5.6 12.8
"/>
<use x="283.43" y="108.01" xlink:href="#hl"/>
<use x="283.43" y="102.01" xlink:href="#hl"/>
<use x="283.43" y="96.01" xlink:href="#hl"/>
<use x="283.43" y="90.01" xlink:href="#hl"/>
<use x="283.43" y="84.01" xlink:href="#hl"/>
<use x="283.43" y="78.01" xlink:href="#hl"/>
<use x="283.43" y="78.01" xlink:href="#Hd"/>
<circle fill="currentColor" cx="292.43" cy="75.01" r="1.2"/>
<path d="M279.93 78.01v48.00" stroke="currentColor" fill="none"/>
<use x="350.03" y="108.01" xlink:href="#hl"/>
<use x="350.03" y="102.01" xlink:href="#hl"/>
<use x="350.03" y="96.01" xlink:href="#hl"/>
<use x="350.03" y="90.01" xlink:href="#hl"/>
<use x="350.03" y="87.01" xlink:href="#hd"/>
<path d="M346.53 87.01v39.00" stroke="currentColor" fill="none"/>
<use x="381.63" y="108.01" xlink:href="#hl"/>
<use x="381.63" y="102.01" xlink:href="#hl"/>
<use x="381.63" y="96.01" xlink:href="#hl"/>
<use x="381.63" y="90.01" xlink:href="#hl"/>
<use x="381.63" y="87.01" xlink:href="#hd"/>
<path d="M378.13 87.01v39.00" stroke="currentColor" fill="none"/>
<path fill="currentColor"
	d="M378.13 126.01c0.9 -3.7 9.1 -6.4 6 -12.4
	c1 5.4 -4.2 8.4 -6 8.4
M378.13 120.61c0.9 -3.7 9.1 -6.4 6 -12.4
	c1 5.4 -4.2 8.4 -6 8.4
"/>
<use x="397.43" y="108.01" xlink:href="#hl"/>
<use x="397.43" y="102.01" xlink:href="#hl"/>
<use x="397.43" y="96.01" xlink:href="#hl"/>
<use x="397.43" y="93.01" xlink:href="#hd"/>
<path d="M393.93 93.01v33.00" stroke="currentColor" fill="none"/>
<use x="429.13" y="108.01" xlink:href="#hl"/>
<use x="429.13" y="102.01" xlink:href="#hl"/>
<use x="429.13" y="96.01" xlink:href="#hl"/>
<use x="429.13" y="93.01" xlink:href="#hd"/>
<path d="M425.63 93.01v33.00" stroke="currentColor" fill="none"/>
<path fill="currentColor"
	d="M425.63 126.01c0.9 -3.7 9.1 -6.4 6 -12.4
	c1 5.4 -4.2 8.4 -6 8.4
M425.63 120.61c0.9 -3.7 9.1 -6.4 6 -12.4
	c1 5.4 -4.2 8.4 -6 8.4
"/>
<use x="449.33" y="108.01" xlink:href="#hl"/>
<use x="449.33" y="102.01" xlink:href="#hl"/>
<use x="449.33" y="96.01" xlink:href="#hl"/>
<use x="449.33" y="90.01" xlink:href="#hl"/>
<use x="449.33" y="87.01" xlink:href="#hd"/>
<path d="M445.83 87.01v39.00" stroke="currentColor" fill="none"/>
<path fill="currentColor"
	d="M486.03 126.21l18.90 0.00v-3.20l-18.90 -0.00"/>
<path fill="currentColor"
	d="M492.43 121.21l-6.00 -0.00v-3.20l6.00 0.00"/>
<use x="489.93" y="108.01" xlink:href="#hl"/>
<use x="489.93" y="102.01" xlink:href="#hl"/>
<use x="489.93" y="96.01" xlink:href="#hl"/>
<use x="489.93" y="90.01" xlink:href="#hl"/>
<use x="489.93" y="87.01" xlink:href="#hd"/>
<path d="M486.43 87.01v38.20" stroke="currentColor" fill="none"/>
<use x="508.13" y="108.01" xlink:href="#hl"/>
<use x="508.13" y="102.01" xlink:href="#hl"/>
<use x="508.13" y="96.01" xlink:href="#hl"/>
<use x="508.13" y="90.01" xlink:href="#hl"/>
<use x="508.13" y="90.01" xlink:href="#hd"/>
<path d="M504.63 90.01v35.20" stroke="currentColor" fill="none"/>
<path fill="currentColor"
	d="M533.03 126.21l52.30 0.00v-3.20l-52.30 -0.00"/>
<use x="536.83" y="108.01" xlink:href="#hl"/>
<use x="536.83" y="102.01" xlink:href="#hl"/>
<use x="536.83" y="96.01" xlink:href="#hl"/>
<use x="536.83" y="90.01" xlink:href="#hl"/>
<use x="536.83" y="84.01" xlink:href="#hl"/>
<use x="536.83" y="84.01" xlink:href="#hd"/>
<path d="M533.33 84.01v41.20" stroke="currentColor" fill="none"/>
<use x="562.63" y="108.01" xlink:href="#hl"/>
<use x="562.63" y="102.01" xlink:href="#hl"/>
<use x="562.63" y="96.01" xlink:href="#hl"/>
<use x="562.63" y="90.01" xlink:href="#hl"/>
<use x="562.63" y="87.01" xlink:href="#hd"/>
<path d="M559.13 87.01v38.20" stroke="currentColor" fill="none"/>
<use x="588.43" y="108.01" xlink:href="#hl"/>
<use x="588.43" y="102.01" xlink:href="#hl"/>
<use x="588.43" y="96.01" xlink:href="#hl"/>
<use x="588.43" y="90.01" xlink:href="#hl"/>
<use x="588.43" y="90.01" xlink:href="#hd"/>
<use x="579.43" y="90.01" xlink:href="#sh0"/>
<path d="M584.93 90.01v35.20" stroke="currentColor" fill="none"/>
<use x="625.73" y="108.01" xlink:href="#hl"/>
<use x="625.73" y="102.01" xlink:href="#hl"/>
<use x="625.73" y="96.01" xlink:href="#hl"/>
<use x="625.73" y="90.01" xlink:href="#hl"/>
<use x="625.73" y="84.01" xlink:href="#hl"/>
<use x="625.73" y="84.01" xlink:href="#hd"/>
<path d="M622.23 84.01v42.00" stroke="currentColor" fill="none"/>
<use x="666.23" y="108.01" xlink:href="#hl"/>
<use x="666.23" y="102.01" xlink:href="#hl"/>
<use x="666.23" y="96.01" xlink:href="#hl"/>
<use x="666.23" y="90.01" xlink:href="#hl"/>
<use x="666.23" y="87.01" xlink:href="#hd"/>
<path d="M662.73 87.01v39.00" stroke="currentColor" fill="none"/>
<path fill="currentColor"
	d="M662.73 126.01c0.6 -5.6 9.6 -9 5.6 -18.4
	c1.6 6 -1.3 11.6 -5.6 12.8
"/>
<path fill="currentColor"
	d="M353.53 85.01c3.88 -4.94 20.76 -4.94 24.64 -0.00
	l0.00 -0.22c-4.62 -6.72 -20.02 -6.72 -24.64 0.22"/>
<path fill="currentColor"
	d="M400.93 91.01c3.88 -4.94 20.76 -4.94 24.64 -0.00
	l0.00 -0.22c-4.62 -6.72 -20.02 -6.72 -24.64 0.22"/>
<path fill="currentColor"
	d="M452.83 85.01c5.28 -5.10 28.25 -5.10 33.53 -0.00
	l0.00 -0.23c-6.29 -6.87 -27.24 -6.87 -33.53 0.23"/>
</g>
</svg>
