<?xml version="1.0" standalone="no"?>
<!DOCTYPE svg PUBLIC "-//W3C//DTD SVG 1.1//EN"
	"http://www.w3.org/Graphics/SVG/1.1/DTD/svg11.dtd">
<svg xmlns="http://www.w3.org/2000/svg" version="1.1"
	xmlns:xlink="http://www.w3.org/1999/xlink"
	xml:space='preserve' color="black"
	width="7.38in" height="1.52in" viewBox="0 0 531 110">
<title>8610.abc (8610) tune 1</title>
<!-- Creator: abcm2ps-7.8.14 -->
<!-- CreationDate: Mar 13, 2016 18:54 -->
<!-- CommandLine: -qxg 8610.abc -O ../svgs/8610.svg -->
<g transform="scale(0.750)" stroke-width="0.70" font-family="Times" font-size="20.00">
<text x="354.13" y="21.67" text-anchor="middle">8610.  Quintet in B Minor, Op. 115, 2nd. Mvt.</text>
</g>
<g transform="scale(0.750)" stroke-width="0.70" font-family="Times" font-size="14.00" font-style="italic">
<text x="694.93" y="45.34" text-anchor="end">Johannes Brahms</text>
</g>
<g transform="scale(0.525)" stroke-width="0.70" font-family="Times" font-size="14.00" font-style="italic">
<defs>
<ellipse id="hd" rx="4.1" ry="2.9"
	transform="rotate(-20)" fill="currentColor"/>
</defs>
<use x="138.47" y="94.16" xlink:href="#hd"/>
<path d="M141.97 94.16v-20.00" stroke="currentColor" fill="none"/>
</g>
<g transform="scale(0.750)" stroke-width="0.70" font-family="Times" font-size="15.00" font-weight="bold">
<text x="104.63" y="68.01">= 120</text>
<path stroke="currentColor" fill="none"
	d="M181.63 123.01v-24.00"/>
<path stroke="currentColor" fill="none"
	d="M279.43 123.01v-24.00"/>
<path stroke="currentColor" fill="none"
	d="M377.33 123.01v-24.00"/>
<path stroke="currentColor" fill="none"
	d="M481.13 123.01v-24.00"/>
<path stroke="currentColor" fill="none"
	d="M585.53 123.01v-24.00"/>
<path stroke="currentColor" fill="none"
	d="M694.93 123.01v-24.00"/>
<path stroke="currentColor" fill="none"
	d="M13.33 123.01h681.60m-681.60 -6h681.60m-681.60 -6h681.60m-681.60 -6h681.60m-681.60 -6h681.60"/>
<defs>
<path id="utclef" fill="currentColor" d="m-50 -90
	c-72 -41 -72 -158 52 -188
	c150 -10 220 188 90 256
	c-114 52 -275 0 -293 -136
	c-15 -181 93 -229 220 -334
	c88 -87 79 -133 62 -210
	c-51 33 -94 105 -89 186
	c17 267 36 374 49 574
	c6 96 -19 134 -77 135
	c-80 1 -126 -93 -61 -133
	c85 -41 133 101 31 105
	c23 17 92 37 90 -92
	c-10 -223 -39 -342 -50 -617
	c0 -90 0 -162 96 -232
	c56 72 63 230 22 289
	c-74 106 -257 168 -255 316
	c9 153 148 185 252 133
	c86 -65 29 -192 -80 -176
	c-71 12 -105 67 -59 124"/>
<use id="tclef" transform="scale(0.045)"
	xlink:href="#utclef"/>
</defs>
<use x="25.33" y="123.01" xlink:href="#tclef"/>
<defs>
<path id="usharp" fill="currentColor" d="
	m136 -702
	v890
	h32
	v-890
	m128 840
	h32
	v-888
	h-32
	m-232 286
	v116
	l338 -96
	v-116
	m-338 442
	v116
	l338 -98
	v-114"/>
<use id="sh0" transform="translate(-4,5) scale(0.018)"
	xlink:href="#usharp"/>
</defs>
<use x="40.33" y="99.01" xlink:href="#sh0"/>
<use x="45.83" y="108.01" xlink:href="#sh0"/>
<use x="51.33" y="96.01" xlink:href="#sh0"/>
<use x="56.83" y="105.01" xlink:href="#sh0"/>
<use x="62.33" y="114.01" xlink:href="#sh0"/>
<g font-family="serif" font-size="16" font-weight="bold" font-style="normal"
	transform="translate(78.33,123.01) scale(1.2,1)">
	<text y="-1" text-anchor="middle">4</text>
	<text y="-13" text-anchor="middle">3</text>
</g>
<defs>
<path id="hl" stroke="currentColor" d="m-6 0h12"/>
</defs>
<use x="96.33" y="93.01" xlink:href="#hl"/>
<use x="96.33" y="87.01" xlink:href="#hl"/>
<use x="96.33" y="81.01" xlink:href="#hl"/>
<use x="96.33" y="78.01" xlink:href="#hd"/>
<path d="M92.83 78.01v33.00" stroke="currentColor" fill="none"/>
<use x="126.73" y="93.01" xlink:href="#hl"/>
<use x="126.73" y="87.01" xlink:href="#hl"/>
<use x="126.73" y="84.01" xlink:href="#hd"/>
<path d="M123.23 84.01v27.00" stroke="currentColor" fill="none"/>
<use x="157.23" y="93.01" xlink:href="#hl"/>
<use x="157.23" y="87.01" xlink:href="#hl"/>
<use x="157.23" y="87.01" xlink:href="#hd"/>
<path d="M153.73 87.01v24.00" stroke="currentColor" fill="none"/>
<use x="194.13" y="93.01" xlink:href="#hl"/>
<use x="194.13" y="87.01" xlink:href="#hl"/>
<use x="194.13" y="81.01" xlink:href="#hl"/>
<use x="194.13" y="78.01" xlink:href="#hd"/>
<path d="M190.63 78.01v33.00" stroke="currentColor" fill="none"/>
<use x="224.63" y="93.01" xlink:href="#hl"/>
<use x="224.63" y="87.01" xlink:href="#hl"/>
<use x="224.63" y="84.01" xlink:href="#hd"/>
<path d="M221.13 84.01v27.00" stroke="currentColor" fill="none"/>
<use x="255.03" y="93.01" xlink:href="#hl"/>
<use x="255.03" y="87.01" xlink:href="#hl"/>
<use x="255.03" y="87.01" xlink:href="#hd"/>
<path d="M251.53 87.01v24.00" stroke="currentColor" fill="none"/>
<use x="291.93" y="93.01" xlink:href="#hl"/>
<use x="291.93" y="87.01" xlink:href="#hl"/>
<use x="291.93" y="81.01" xlink:href="#hl"/>
<use x="291.93" y="78.01" xlink:href="#hd"/>
<path d="M288.43 78.01v33.00" stroke="currentColor" fill="none"/>
<use x="322.43" y="93.01" xlink:href="#hl"/>
<use x="322.43" y="87.01" xlink:href="#hl"/>
<use x="322.43" y="84.01" xlink:href="#hd"/>
<path d="M318.93 84.01v27.00" stroke="currentColor" fill="none"/>
<use x="352.83" y="93.01" xlink:href="#hl"/>
<use x="352.83" y="87.01" xlink:href="#hl"/>
<use x="352.83" y="81.01" xlink:href="#hl"/>
<use x="352.83" y="75.01" xlink:href="#hl"/>
<use x="352.83" y="75.01" xlink:href="#hd"/>
<path d="M349.33 75.01v36.00" stroke="currentColor" fill="none"/>
<use x="395.83" y="93.01" xlink:href="#hl"/>
<use x="395.83" y="87.01" xlink:href="#hl"/>
<use x="395.83" y="84.01" xlink:href="#hd"/>
<defs>
<path id="unat" fill="currentColor" d="
	m96 -750
	h-32
	v716
	l32 -8
	l182 -54
	v282
	h32
	v-706
	l-34 10
	l-180 50
	v-290
	m0 592
	v-190
	l182 -52
	v188"/>
<use id="nt0" transform="translate(-3,5) scale(0.018)"
	xlink:href="#unat"/>
</defs>
<use x="386.83" y="84.01" xlink:href="#nt0"/>
<path d="M392.33 84.01v27.00" stroke="currentColor" fill="none"/>
<use x="426.23" y="93.01" xlink:href="#hl"/>
<use x="426.23" y="87.01" xlink:href="#hl"/>
<use x="426.23" y="87.01" xlink:href="#hd"/>
<path d="M422.73 87.01v24.00" stroke="currentColor" fill="none"/>
<use x="456.73" y="93.01" xlink:href="#hl"/>
<use x="456.73" y="87.01" xlink:href="#hl"/>
<use x="456.73" y="81.01" xlink:href="#hl"/>
<use x="456.73" y="78.01" xlink:href="#hd"/>
<path d="M453.23 78.01v33.00" stroke="currentColor" fill="none"/>
<use x="493.63" y="93.01" xlink:href="#hl"/>
<use x="493.63" y="90.01" xlink:href="#hd"/>
<circle fill="currentColor" cx="501.63" cy="90.01" r="1.2"/>
<path d="M490.13 90.01v21.00" stroke="currentColor" fill="none"/>
<path fill="currentColor"
	d="M524.93 111.21l40.00 0.00v-3.20l-40.00 -0.00"/>
<use x="528.73" y="93.01" xlink:href="#hl"/>
<use x="528.73" y="93.01" xlink:href="#hd"/>
<path d="M525.23 93.01v17.20" stroke="currentColor" fill="none"/>
<use x="548.43" y="93.01" xlink:href="#hl"/>
<use x="548.43" y="90.01" xlink:href="#hd"/>
<path d="M544.93 90.01v20.20" stroke="currentColor" fill="none"/>
<use x="568.03" y="93.01" xlink:href="#hl"/>
<use x="568.03" y="87.01" xlink:href="#hl"/>
<use x="568.03" y="87.01" xlink:href="#hd"/>
<path d="M564.53 87.01v23.20" stroke="currentColor" fill="none"/>
<path fill="currentColor"
	d="M594.23 111.21l20.90 0.00v-3.20l-20.90 -0.00"/>
<use x="598.03" y="93.01" xlink:href="#hl"/>
<use x="598.03" y="87.01" xlink:href="#hl"/>
<use x="598.03" y="81.01" xlink:href="#hl"/>
<use x="598.03" y="81.01" xlink:href="#hd"/>
<path d="M594.53 81.01v29.20" stroke="currentColor" fill="none"/>
<use x="618.33" y="93.01" xlink:href="#hl"/>
<use x="618.33" y="87.01" xlink:href="#hl"/>
<use x="618.33" y="84.01" xlink:href="#hd"/>
<use x="609.33" y="84.01" xlink:href="#nt0"/>
<path d="M614.83 84.01v26.20" stroke="currentColor" fill="none"/>
<use x="640.03" y="93.01" xlink:href="#hl"/>
<use x="640.03" y="87.01" xlink:href="#hl"/>
<use x="640.03" y="87.01" xlink:href="#hd"/>
<path d="M636.53 87.01v24.00" stroke="currentColor" fill="none"/>
<use x="670.53" y="93.01" xlink:href="#hl"/>
<use x="670.53" y="90.01" xlink:href="#hd"/>
<path d="M667.03 90.01v21.00" stroke="currentColor" fill="none"/>
</g>
</svg>
