<?xml version="1.0" standalone="no"?>
<!DOCTYPE svg PUBLIC "-//W3C//DTD SVG 1.1//EN"
	"http://www.w3.org/Graphics/SVG/1.1/DTD/svg11.dtd">
<svg xmlns="http://www.w3.org/2000/svg" version="1.1"
	xmlns:xlink="http://www.w3.org/1999/xlink"
	xml:space='preserve' color="black"
	width="7.38in" height="1.57in" viewBox="0 0 531 113">
<title>8622.abc (8622) tune 1</title>
<!-- Creator: abcm2ps-7.8.14 -->
<!-- CreationDate: Mar 13, 2016 18:54 -->
<!-- CommandLine: -qxg 8622.abc -O ../svgs/8622.svg -->
<g transform="scale(0.750)" stroke-width="0.70" font-family="Times" font-size="20.00">
<text x="354.13" y="21.67" text-anchor="middle">8622.  Serenade in D, Op. 11, 1st. Mvt. - 2nd. Theme</text>
</g>
<g transform="scale(0.750)" stroke-width="0.70" font-family="Times" font-size="14.00" font-style="italic">
<text x="694.93" y="45.34" text-anchor="end">Johannes Brahms</text>
</g>
<g transform="scale(0.525)" stroke-width="0.70" font-family="Times" font-size="14.00" font-style="italic">
<defs>
<ellipse id="hd" rx="4.1" ry="2.9"
	transform="rotate(-20)" fill="currentColor"/>
</defs>
<use x="115.61" y="94.16" xlink:href="#hd"/>
<path d="M119.11 94.16v-20.00" stroke="currentColor" fill="none"/>
</g>
<g transform="scale(0.750)" stroke-width="0.70" font-family="Times" font-size="15.00" font-weight="bold">
<text x="88.63" y="68.01">= 120</text>
<path stroke="currentColor" fill="none"
	d="M140.53 128.01v-24.00"/>
<path stroke="currentColor" fill="none"
	d="M202.23 128.01v-24.00"/>
<path stroke="currentColor" fill="none"
	d="M276.03 128.01v-24.00"/>
<path stroke="currentColor" fill="none"
	d="M337.63 128.01v-24.00"/>
<path stroke="currentColor" fill="none"
	d="M487.93 128.01v-24.00"/>
<path stroke="currentColor" fill="none"
	d="M635.73 128.01v-24.00"/>
<path stroke="currentColor" fill="none"
	d="M13.33 128.01h681.60m-681.60 -6h681.60m-681.60 -6h681.60m-681.60 -6h681.60m-681.60 -6h681.60"/>
<defs>
<path id="utclef" fill="currentColor" d="m-50 -90
	c-72 -41 -72 -158 52 -188
	c150 -10 220 188 90 256
	c-114 52 -275 0 -293 -136
	c-15 -181 93 -229 220 -334
	c88 -87 79 -133 62 -210
	c-51 33 -94 105 -89 186
	c17 267 36 374 49 574
	c6 96 -19 134 -77 135
	c-80 1 -126 -93 -61 -133
	c85 -41 133 101 31 105
	c23 17 92 37 90 -92
	c-10 -223 -39 -342 -50 -617
	c0 -90 0 -162 96 -232
	c56 72 63 230 22 289
	c-74 106 -257 168 -255 316
	c9 153 148 185 252 133
	c86 -65 29 -192 -80 -176
	c-71 12 -105 67 -59 124"/>
<use id="tclef" transform="scale(0.045)"
	xlink:href="#utclef"/>
</defs>
<use x="25.33" y="128.01" xlink:href="#tclef"/>
<defs>
<path id="usharp" fill="currentColor" d="
	m136 -702
	v890
	h32
	v-890
	m128 840
	h32
	v-888
	h-32
	m-232 286
	v116
	l338 -96
	v-116
	m-338 442
	v116
	l338 -98
	v-114"/>
<use id="sh0" transform="translate(-4,5) scale(0.018)"
	xlink:href="#usharp"/>
</defs>
<use x="40.33" y="104.01" xlink:href="#sh0"/>
<use x="45.83" y="113.01" xlink:href="#sh0"/>
<g font-family="serif" font-size="16" font-weight="bold" font-style="normal"
	transform="translate(61.83,128.01) scale(1.2,1)">
	<text y="-1" text-anchor="middle">2</text>
	<text y="-13" text-anchor="middle">2</text>
</g>
<defs>
<path id="Hd" fill="currentColor" d="m3 -1.6
	c-1 -1.8 -7 1.4 -6 3.2
	c1 1.8 7 -1.4 6 -3.2
	m0.5 -0.3
	c2 3.8 -5 7.6 -7 3.8
	c-2 -3.8 5 -7.6 7 -3.8"/>
</defs>
<use x="80.33" y="107.01" xlink:href="#Hd"/>
<path d="M76.83 107.01v20.00" stroke="currentColor" fill="none"/>
<defs>
<path id="hl" stroke="currentColor" d="m-6 0h12"/>
</defs>
<use x="105.53" y="98.01" xlink:href="#hl"/>
<use x="105.53" y="98.01" xlink:href="#hd"/>
<path d="M102.03 98.01v20.00" stroke="currentColor" fill="none"/>
<use x="124.73" y="98.01" xlink:href="#hl"/>
<use x="124.73" y="92.01" xlink:href="#hl"/>
<use x="124.73" y="92.01" xlink:href="#hd"/>
<path d="M121.23 92.01v24.00" stroke="currentColor" fill="none"/>
<use x="153.03" y="98.01" xlink:href="#hl"/>
<use x="153.03" y="92.01" xlink:href="#hl"/>
<use x="153.03" y="86.01" xlink:href="#hl"/>
<use x="153.03" y="86.01" xlink:href="#hd"/>
<path d="M149.53 86.01v30.00" stroke="currentColor" fill="none"/>
<use x="175.63" y="101.01" xlink:href="#Hd"/>
<circle fill="currentColor" cx="184.63" cy="101.01" r="1.2"/>
<use x="165.63" y="101.01" xlink:href="#sh0"/>
<path d="M172.13 101.01v20.00" stroke="currentColor" fill="none"/>
<use x="215.23" y="98.01" xlink:href="#hl"/>
<use x="215.23" y="98.01" xlink:href="#Hd"/>
<path d="M211.73 98.01v20.00" stroke="currentColor" fill="none"/>
<use x="240.93" y="98.01" xlink:href="#hl"/>
<use x="240.93" y="92.01" xlink:href="#hl"/>
<use x="240.93" y="92.01" xlink:href="#hd"/>
<path d="M237.43 92.01v24.00" stroke="currentColor" fill="none"/>
<use x="260.23" y="98.01" xlink:href="#hl"/>
<use x="260.23" y="92.01" xlink:href="#hl"/>
<use x="260.23" y="86.01" xlink:href="#hl"/>
<use x="260.23" y="86.01" xlink:href="#hd"/>
<path d="M256.73 86.01v30.00" stroke="currentColor" fill="none"/>
<use x="288.53" y="98.01" xlink:href="#hl"/>
<use x="288.53" y="92.01" xlink:href="#hl"/>
<use x="288.53" y="86.01" xlink:href="#hl"/>
<use x="288.53" y="80.01" xlink:href="#hl"/>
<use x="288.53" y="77.01" xlink:href="#hd"/>
<path d="M285.03 77.01v39.00" stroke="currentColor" fill="none"/>
<use x="311.13" y="98.01" xlink:href="#hl"/>
<use x="311.13" y="92.01" xlink:href="#hl"/>
<use x="311.13" y="89.01" xlink:href="#Hd"/>
<circle fill="currentColor" cx="320.13" cy="89.01" r="1.2"/>
<use x="301.13" y="89.01" xlink:href="#sh0"/>
<path d="M307.63 89.01v27.00" stroke="currentColor" fill="none"/>
<use x="356.13" y="98.01" xlink:href="#hl"/>
<use x="356.13" y="92.01" xlink:href="#hl"/>
<use x="356.13" y="89.01" xlink:href="#hd"/>
<use x="347.13" y="89.01" xlink:href="#sh0"/>
<path d="M352.63 89.01v27.00" stroke="currentColor" fill="none"/>
<use x="378.33" y="98.01" xlink:href="#hl"/>
<use x="378.33" y="92.01" xlink:href="#hl"/>
<use x="378.33" y="89.01" xlink:href="#hd"/>
<defs>
<path id="unat" fill="currentColor" d="
	m96 -750
	h-32
	v716
	l32 -8
	l182 -54
	v282
	h32
	v-706
	l-34 10
	l-180 50
	v-290
	m0 592
	v-190
	l182 -52
	v188"/>
<use id="nt0" transform="translate(-3,5) scale(0.018)"
	xlink:href="#unat"/>
</defs>
<use x="369.33" y="89.01" xlink:href="#nt0"/>
<path d="M374.83 89.01v27.00" stroke="currentColor" fill="none"/>
<use x="400.73" y="98.01" xlink:href="#hl"/>
<use x="400.73" y="92.01" xlink:href="#hl"/>
<use x="400.73" y="89.01" xlink:href="#hd"/>
<circle fill="currentColor" cx="408.73" cy="89.01" r="1.2"/>
<path d="M397.23 89.01v27.00" stroke="currentColor" fill="none"/>
<path fill="currentColor"
	d="M397.23 116.01c0.9 -3.7 9.1 -6.4 6 -12.4
	c1 5.4 -4.2 8.4 -6 8.4
M397.23 110.61c0.9 -3.7 9.1 -6.4 6 -12.4
	c1 5.4 -4.2 8.4 -6 8.4
"/>
<use x="418.73" y="98.01" xlink:href="#hl"/>
<use x="418.73" y="92.01" xlink:href="#hl"/>
<use x="418.73" y="86.01" xlink:href="#hl"/>
<use x="418.73" y="83.01" xlink:href="#hd"/>
<path d="M415.23 83.01v33.00" stroke="currentColor" fill="none"/>
<path fill="currentColor"
	d="M437.33 116.21l37.70 0.00v-3.20l-37.70 -0.00"/>
<path fill="currentColor"
	d="M437.63 111.21l37.00 0.00v-3.20l-37.00 -0.00"/>
<path fill="currentColor"
	d="M450.13 106.21l6.00 0.00v-3.20l-6.00 -0.00"/>
<use x="441.13" y="98.01" xlink:href="#hl"/>
<use x="441.13" y="92.01" xlink:href="#hl"/>
<use x="441.13" y="86.01" xlink:href="#hl"/>
<use x="441.13" y="83.01" xlink:href="#hd"/>
<path d="M437.63 83.01v32.20" stroke="currentColor" fill="none"/>
<use x="459.63" y="98.01" xlink:href="#hl"/>
<use x="459.63" y="92.01" xlink:href="#hl"/>
<use x="459.63" y="86.01" xlink:href="#hl"/>
<use x="459.63" y="80.01" xlink:href="#hl"/>
<use x="459.63" y="77.01" xlink:href="#hd"/>
<path d="M456.13 77.01v38.20" stroke="currentColor" fill="none"/>
<use x="459.63" y="83.01" xlink:href="#hd"/>
<use x="478.13" y="98.01" xlink:href="#hl"/>
<use x="478.13" y="92.01" xlink:href="#hl"/>
<use x="478.13" y="86.01" xlink:href="#hl"/>
<use x="478.13" y="80.01" xlink:href="#hl"/>
<use x="478.13" y="77.01" xlink:href="#hd"/>
<path d="M474.63 77.01v38.20" stroke="currentColor" fill="none"/>
<use x="500.43" y="98.01" xlink:href="#hl"/>
<use x="500.43" y="92.01" xlink:href="#hl"/>
<use x="500.43" y="86.01" xlink:href="#hl"/>
<use x="500.43" y="80.01" xlink:href="#hl"/>
<use x="500.43" y="77.01" xlink:href="#hd"/>
<path d="M496.93 77.01v39.00" stroke="currentColor" fill="none"/>
<use x="519.63" y="98.01" xlink:href="#hl"/>
<use x="519.63" y="92.01" xlink:href="#hl"/>
<use x="519.63" y="86.01" xlink:href="#hl"/>
<use x="519.63" y="80.01" xlink:href="#hl"/>
<use x="519.63" y="74.01" xlink:href="#hl"/>
<use x="519.63" y="68.01" xlink:href="#hl"/>
<use x="519.63" y="62.01" xlink:href="#hl"/>
<use x="519.63" y="62.01" xlink:href="#hd"/>
<path d="M516.13 62.01v54.00" stroke="currentColor" fill="none"/>
<use x="542.03" y="98.01" xlink:href="#hl"/>
<use x="542.03" y="92.01" xlink:href="#hl"/>
<use x="542.03" y="86.01" xlink:href="#hl"/>
<use x="542.03" y="80.01" xlink:href="#hl"/>
<use x="542.03" y="74.01" xlink:href="#hl"/>
<use x="542.03" y="68.01" xlink:href="#hl"/>
<use x="542.03" y="62.01" xlink:href="#hl"/>
<use x="542.03" y="62.01" xlink:href="#hd"/>
<circle fill="currentColor" cx="550.03" cy="59.01" r="1.2"/>
<path d="M538.53 62.01v54.00" stroke="currentColor" fill="none"/>
<path fill="currentColor"
	d="M538.53 116.01c0.9 -3.7 9.1 -6.4 6 -12.4
	c1 5.4 -4.2 8.4 -6 8.4
M538.53 110.61c0.9 -3.7 9.1 -6.4 6 -12.4
	c1 5.4 -4.2 8.4 -6 8.4
"/>
<use x="560.03" y="98.01" xlink:href="#hl"/>
<use x="560.03" y="92.01" xlink:href="#hl"/>
<use x="560.03" y="86.01" xlink:href="#hl"/>
<use x="560.03" y="80.01" xlink:href="#hl"/>
<use x="560.03" y="74.01" xlink:href="#hl"/>
<use x="560.03" y="68.01" xlink:href="#hl"/>
<use x="560.03" y="65.01" xlink:href="#hd"/>
<path d="M556.53 65.01v51.00" stroke="currentColor" fill="none"/>
<path fill="currentColor"
	d="M578.63 116.21l44.20 0.00v-3.20l-44.20 -0.00"/>
<path fill="currentColor"
	d="M578.93 111.21l43.50 0.00v-3.20l-43.50 -0.00"/>
<path fill="currentColor"
	d="M597.93 106.21l6.00 0.00v-3.20l-6.00 -0.00"/>
<use x="582.43" y="98.01" xlink:href="#hl"/>
<use x="582.43" y="92.01" xlink:href="#hl"/>
<use x="582.43" y="86.01" xlink:href="#hl"/>
<use x="582.43" y="80.01" xlink:href="#hl"/>
<use x="582.43" y="74.01" xlink:href="#hl"/>
<use x="582.43" y="68.01" xlink:href="#hl"/>
<use x="582.43" y="65.01" xlink:href="#hd"/>
<path d="M578.93 65.01v50.20" stroke="currentColor" fill="none"/>
<use x="607.43" y="98.01" xlink:href="#hl"/>
<use x="607.43" y="92.01" xlink:href="#hl"/>
<use x="607.43" y="86.01" xlink:href="#hl"/>
<use x="607.43" y="80.01" xlink:href="#hl"/>
<use x="607.43" y="74.01" xlink:href="#hl"/>
<use x="607.43" y="68.01" xlink:href="#hl"/>
<use x="607.43" y="65.01" xlink:href="#hd"/>
<path d="M603.93 65.01v50.20" stroke="currentColor" fill="none"/>
<use x="600.43" y="68.01" xlink:href="#hl"/>
<use x="600.43" y="68.01" xlink:href="#hd"/>
<use x="591.43" y="68.01" xlink:href="#sh0"/>
<use x="625.93" y="98.01" xlink:href="#hl"/>
<use x="625.93" y="92.01" xlink:href="#hl"/>
<use x="625.93" y="86.01" xlink:href="#hl"/>
<use x="625.93" y="80.01" xlink:href="#hl"/>
<use x="625.93" y="74.01" xlink:href="#hl"/>
<use x="625.93" y="68.01" xlink:href="#hl"/>
<use x="625.93" y="68.01" xlink:href="#hd"/>
<use x="616.93" y="68.01" xlink:href="#sh0"/>
<path d="M622.43 68.01v47.20" stroke="currentColor" fill="none"/>
<use x="654.23" y="98.01" xlink:href="#hl"/>
<use x="654.23" y="92.01" xlink:href="#hl"/>
<use x="654.23" y="86.01" xlink:href="#hl"/>
<use x="654.23" y="80.01" xlink:href="#hl"/>
<use x="654.23" y="74.01" xlink:href="#hl"/>
<use x="654.23" y="68.01" xlink:href="#hl"/>
<use x="654.23" y="68.01" xlink:href="#hd"/>
<use x="645.23" y="68.01" xlink:href="#sh0"/>
<path d="M650.73 68.01v48.00" stroke="currentColor" fill="none"/>
<use x="673.53" y="98.01" xlink:href="#hl"/>
<use x="673.53" y="92.01" xlink:href="#hl"/>
<use x="673.53" y="86.01" xlink:href="#hl"/>
<use x="673.53" y="80.01" xlink:href="#hl"/>
<use x="673.53" y="74.01" xlink:href="#hl"/>
<use x="673.53" y="71.01" xlink:href="#Hd"/>
<path d="M670.03 71.01v45.00" stroke="currentColor" fill="none"/>
<path fill="currentColor"
	d="M381.83 87.01c2.42 -4.78 12.96 -4.78 15.39 -0.00
	l0.00 -0.22c-2.89 -6.56 -12.50 -6.56 -15.39 0.22"/>
<path fill="currentColor"
	d="M422.23 81.01c2.42 -4.78 12.96 -4.78 15.39 -0.00
	l0.00 -0.22c-2.89 -6.56 -12.50 -6.56 -15.39 0.22"/>
<path fill="currentColor"
	d="M441.13 81.01c2.91 -4.83 15.59 -4.83 18.50 -0.00
	l0.00 -0.22c-3.47 -6.61 -15.03 -6.61 -18.50 0.22"/>
<path fill="currentColor"
	d="M459.63 75.01c2.91 -4.83 15.59 -4.83 18.50 -0.00
	l0.00 -0.22c-3.47 -6.61 -15.03 -6.61 -18.50 0.22"/>
<path fill="currentColor"
	d="M481.63 75.01c2.41 -4.77 12.87 -4.77 15.28 -0.00
	l0.00 -0.22c-2.86 -6.56 -12.41 -6.56 -15.28 0.22"/>
<path fill="currentColor"
	d="M523.13 62.01c2.42 -4.78 12.96 -4.78 15.39 -0.00
	l0.00 -0.22c-2.89 -6.56 -12.50 -6.56 -15.39 0.22"/>
<path fill="currentColor"
	d="M563.53 63.01c2.42 -4.78 12.96 -4.78 15.39 -0.00
	l0.00 -0.22c-2.89 -6.56 -12.50 -6.56 -15.39 0.22"/>
<path fill="currentColor"
	d="M585.93 63.01c2.84 -4.82 15.18 -4.82 18.02 -0.00
	l0.00 -0.22c-3.38 -6.61 -14.64 -6.61 -18.02 0.22"/>
<path fill="currentColor"
	d="M607.43 68.01c2.91 -4.83 15.59 -4.83 18.50 -0.00
	l0.00 -0.22c-3.47 -6.61 -15.03 -6.61 -18.50 0.22"/>
<path fill="currentColor"
	d="M629.43 68.01c3.35 -4.88 17.93 -4.88 21.28 -0.00
	l0.00 -0.22c-3.99 -6.66 -17.29 -6.66 -21.28 0.22"/>
</g>
</svg>
