<?xml version="1.0" standalone="no"?>
<!DOCTYPE svg PUBLIC "-//W3C//DTD SVG 1.1//EN"
	"http://www.w3.org/Graphics/SVG/1.1/DTD/svg11.dtd">
<svg xmlns="http://www.w3.org/2000/svg" version="1.1"
	xmlns:xlink="http://www.w3.org/1999/xlink"
	xml:space='preserve' color="black"
	width="7.38in" height="1.34in" viewBox="0 0 531 97">
<title>8656.abc (8656) tune 1</title>
<!-- Creator: abcm2ps-7.8.14 -->
<!-- CreationDate: Mar 13, 2016 18:54 -->
<!-- CommandLine: -qxg 8656.abc -O ../svgs/8656.svg -->
<g transform="scale(0.750)" stroke-width="0.70" font-family="Times" font-size="20.00">
<text x="354.13" y="21.67" text-anchor="middle">8656.  Sonata in E Minor, Op. 38, 1st. Mvt. - 2nd. Theme</text>
</g>
<g transform="scale(0.750)" stroke-width="0.70" font-family="Times" font-size="14.00" font-style="italic">
<text x="694.93" y="45.34" text-anchor="end">Johannes Brahms</text>
</g>
<g transform="scale(0.525)" stroke-width="0.70" font-family="Times" font-size="14.00" font-style="italic">
<defs>
<ellipse id="hd" rx="4.1" ry="2.9"
	transform="rotate(-20)" fill="currentColor"/>
</defs>
<use x="107.04" y="94.16" xlink:href="#hd"/>
<path d="M110.54 94.16v-20.00" stroke="currentColor" fill="none"/>
</g>
<g transform="scale(0.750)" stroke-width="0.70" font-family="Times" font-size="15.00" font-weight="bold">
<text x="82.63" y="68.01">= 120</text>
<path stroke="currentColor" fill="none"
	d="M211.93 106.01v-24.00"/>
<path stroke="currentColor" fill="none"
	d="M380.33 106.01v-24.00"/>
<path stroke="currentColor" fill="none"
	d="M499.73 106.01v-24.00"/>
<path stroke="currentColor" fill="none"
	d="M625.23 106.01v-24.00"/>
<path stroke="currentColor" fill="none"
	d="M13.33 106.01h681.60m-681.60 -6h681.60m-681.60 -6h681.60m-681.60 -6h681.60m-681.60 -6h681.60"/>
<defs>
<path id="utclef" fill="currentColor" d="m-50 -90
	c-72 -41 -72 -158 52 -188
	c150 -10 220 188 90 256
	c-114 52 -275 0 -293 -136
	c-15 -181 93 -229 220 -334
	c88 -87 79 -133 62 -210
	c-51 33 -94 105 -89 186
	c17 267 36 374 49 574
	c6 96 -19 134 -77 135
	c-80 1 -126 -93 -61 -133
	c85 -41 133 101 31 105
	c23 17 92 37 90 -92
	c-10 -223 -39 -342 -50 -617
	c0 -90 0 -162 96 -232
	c56 72 63 230 22 289
	c-74 106 -257 168 -255 316
	c9 153 148 185 252 133
	c86 -65 29 -192 -80 -176
	c-71 12 -105 67 -59 124"/>
<use id="tclef" transform="scale(0.045)"
	xlink:href="#utclef"/>
</defs>
<use x="25.33" y="106.01" xlink:href="#tclef"/>
<defs>
<path id="usharp" fill="currentColor" d="
	m136 -702
	v890
	h32
	v-890
	m128 840
	h32
	v-888
	h-32
	m-232 286
	v116
	l338 -96
	v-116
	m-338 442
	v116
	l338 -98
	v-114"/>
<use id="sh0" transform="translate(-4,5) scale(0.018)"
	xlink:href="#usharp"/>
</defs>
<use x="40.33" y="82.01" xlink:href="#sh0"/>
<g font-family="serif" font-size="16" font-weight="bold" font-style="normal"
	transform="translate(56.33,106.01) scale(1.2,1)">
	<text y="-1" text-anchor="middle">4</text>
	<text y="-13" text-anchor="middle">4</text>
</g>
<use x="74.33" y="103.01" xlink:href="#hd"/>
<path d="M77.83 103.01v-20.00" stroke="currentColor" fill="none"/>
<path fill="currentColor"
	d="	M77.83 83.01c0.6 5.6 9.6 9 5.6 18.4
	c1.6 -6 -1.3 -11.6 -5.6 -12.8
"/>
<use x="96.73" y="94.01" xlink:href="#hd"/>
<circle fill="currentColor" cx="104.73" cy="91.01" r="1.2"/>
<path d="M93.23 94.01v20.00" stroke="currentColor" fill="none"/>
<use x="128.43" y="103.01" xlink:href="#hd"/>
<path d="M131.93 103.01v-20.00" stroke="currentColor" fill="none"/>
<path fill="currentColor"
	d="	M131.93 83.01c0.6 5.6 9.6 9 5.6 18.4
	c1.6 -6 -1.3 -11.6 -5.6 -12.8
"/>
<use x="150.83" y="94.01" xlink:href="#hd"/>
<path d="M147.33 94.01v20.00" stroke="currentColor" fill="none"/>
<path fill="currentColor"
	d="M147.33 114.01c0.6 -5.6 9.6 -9 5.6 -18.4
	c1.6 6 -1.3 11.6 -5.6 12.8
"/>
<use x="172.63" y="88.01" xlink:href="#hd"/>
<path d="M169.13 88.01v20.00" stroke="currentColor" fill="none"/>
<path fill="currentColor"
	d="M169.13 108.01c0.6 -5.6 9.6 -9 5.6 -18.4
	c1.6 6 -1.3 11.6 -5.6 12.8
"/>
<use x="194.33" y="94.01" xlink:href="#hd"/>
<path d="M190.83 94.01v20.00" stroke="currentColor" fill="none"/>
<path fill="currentColor"
	d="M190.83 114.01c0.6 -5.6 9.6 -9 5.6 -18.4
	c1.6 6 -1.3 11.6 -5.6 12.8
"/>
<use x="224.43" y="94.01" xlink:href="#hd"/>
<path d="M227.93 94.01v-20.00" stroke="currentColor" fill="none"/>
<use x="254.83" y="103.01" xlink:href="#hd"/>
<path d="M258.33 103.01v-20.00" stroke="currentColor" fill="none"/>
<path fill="currentColor"
	d="	M258.33 83.01c0.6 5.6 9.6 9 5.6 18.4
	c1.6 -6 -1.3 -11.6 -5.6 -12.8
"/>
<use x="277.23" y="94.01" xlink:href="#hd"/>
<path d="M273.73 94.01v20.00" stroke="currentColor" fill="none"/>
<path fill="currentColor"
	d="M273.73 114.01c0.6 -5.6 9.6 -9 5.6 -18.4
	c1.6 6 -1.3 11.6 -5.6 12.8
"/>
<use x="299.03" y="88.01" xlink:href="#hd"/>
<path d="M295.53 88.01v20.00" stroke="currentColor" fill="none"/>
<path fill="currentColor"
	d="M295.53 108.01c0.6 -5.6 9.6 -9 5.6 -18.4
	c1.6 6 -1.3 11.6 -5.6 12.8
"/>
<use x="320.73" y="94.01" xlink:href="#hd"/>
<path d="M317.23 94.01v20.00" stroke="currentColor" fill="none"/>
<path fill="currentColor"
	d="M317.23 114.01c0.6 -5.6 9.6 -9 5.6 -18.4
	c1.6 6 -1.3 11.6 -5.6 12.8
"/>
<use x="340.33" y="103.01" xlink:href="#hd"/>
<path d="M343.83 103.01v-20.00" stroke="currentColor" fill="none"/>
<path fill="currentColor"
	d="	M343.83 83.01c0.6 5.6 9.6 9 5.6 18.4
	c1.6 -6 -1.3 -11.6 -5.6 -12.8
"/>
<use x="362.83" y="94.01" xlink:href="#hd"/>
<path d="M359.33 94.01v20.00" stroke="currentColor" fill="none"/>
<path fill="currentColor"
	d="M359.33 114.01c0.6 -5.6 9.6 -9 5.6 -18.4
	c1.6 6 -1.3 11.6 -5.6 12.8
"/>
<use x="392.83" y="88.01" xlink:href="#hd"/>
<path d="M389.33 88.01v20.00" stroke="currentColor" fill="none"/>
<path fill="currentColor"
	d="M389.33 108.01c0.6 -5.6 9.6 -9 5.6 -18.4
	c1.6 6 -1.3 11.6 -5.6 12.8
"/>
<use x="414.53" y="82.01" xlink:href="#hd"/>
<circle fill="currentColor" cx="422.53" cy="79.01" r="1.2"/>
<path d="M411.03 82.01v20.00" stroke="currentColor" fill="none"/>
<use x="449.63" y="79.01" xlink:href="#hd"/>
<path d="M446.13 79.01v20.00" stroke="currentColor" fill="none"/>
<path fill="currentColor"
	d="M446.13 99.01c0.6 -5.6 9.6 -9 5.6 -18.4
	c1.6 6 -1.3 11.6 -5.6 12.8
"/>
<use x="471.43" y="79.01" xlink:href="#hd"/>
<circle fill="currentColor" cx="479.43" cy="79.01" r="1.2"/>
<path d="M467.93 79.01v20.00" stroke="currentColor" fill="none"/>
<use x="518.23" y="91.01" xlink:href="#hd"/>
<use x="509.23" y="91.01" xlink:href="#sh0"/>
<path d="M514.73 91.01v20.00" stroke="currentColor" fill="none"/>
<path fill="currentColor"
	d="M514.73 111.01c0.6 -5.6 9.6 -9 5.6 -18.4
	c1.6 6 -1.3 11.6 -5.6 12.8
"/>
<use x="540.03" y="82.01" xlink:href="#hd"/>
<circle fill="currentColor" cx="548.03" cy="79.01" r="1.2"/>
<path d="M536.53 82.01v20.00" stroke="currentColor" fill="none"/>
<defs>
<path id="hl" stroke="currentColor" d="m-6 0h12"/>
</defs>
<use x="575.13" y="76.01" xlink:href="#hl"/>
<use x="575.13" y="73.01" xlink:href="#hd"/>
<path d="M571.63 73.01v21.00" stroke="currentColor" fill="none"/>
<path fill="currentColor"
	d="M571.63 94.01c0.6 -5.6 9.6 -9 5.6 -18.4
	c1.6 6 -1.3 11.6 -5.6 12.8
"/>
<use x="596.93" y="76.01" xlink:href="#hl"/>
<use x="596.93" y="73.01" xlink:href="#hd"/>
<circle fill="currentColor" cx="604.93" cy="73.01" r="1.2"/>
<path d="M593.43 73.01v21.00" stroke="currentColor" fill="none"/>
<use x="637.73" y="94.01" xlink:href="#hd"/>
<path d="M634.23 94.01v20.00" stroke="currentColor" fill="none"/>
<path fill="currentColor"
	d="M634.23 114.01c0.6 -5.6 9.6 -9 5.6 -18.4
	c1.6 6 -1.3 11.6 -5.6 12.8
"/>
<use x="660.13" y="91.01" xlink:href="#hd"/>
<circle fill="currentColor" cx="668.13" cy="91.01" r="1.2"/>
<use x="651.13" y="91.01" xlink:href="#sh0"/>
<path d="M656.63 91.01v20.00" stroke="currentColor" fill="none"/>
<path fill="currentColor"
	d="M197.83 94.01c3.63 -4.91 19.42 -4.91 23.04 -0.00
	l0.00 -0.22c-4.32 -6.69 -18.72 -6.69 -23.04 0.22"/>
</g>
</svg>
