<?xml version="1.0" standalone="no"?>
<!DOCTYPE svg PUBLIC "-//W3C//DTD SVG 1.1//EN"
	"http://www.w3.org/Graphics/SVG/1.1/DTD/svg11.dtd">
<svg xmlns="http://www.w3.org/2000/svg" version="1.1"
	xmlns:xlink="http://www.w3.org/1999/xlink"
	xml:space='preserve' color="black"
	width="7.38in" height="1.36in" viewBox="0 0 531 98">
<title>8666.abc (8666) tune 1</title>
<!-- Creator: abcm2ps-7.8.14 -->
<!-- CreationDate: Mar 13, 2016 18:54 -->
<!-- CommandLine: -qxg 8666.abc -O ../svgs/8666.svg -->
<g transform="scale(0.750)" stroke-width="0.70" font-family="Times" font-size="20.00">
<text x="354.13" y="21.67" text-anchor="middle">8666.  Sonata in F, Op. 99, 3rd. Mvt. - 2nd. Theme</text>
</g>
<g transform="scale(0.750)" stroke-width="0.70" font-family="Times" font-size="14.00" font-style="italic">
<text x="694.93" y="45.34" text-anchor="end">Johannes Brahms</text>
</g>
<g transform="scale(0.525)" stroke-width="0.70" font-family="Times" font-size="14.00" font-style="italic">
<defs>
<ellipse id="hd" rx="4.1" ry="2.9"
	transform="rotate(-20)" fill="currentColor"/>
</defs>
<use x="107.04" y="94.16" xlink:href="#hd"/>
<path d="M110.54 94.16v-20.00" stroke="currentColor" fill="none"/>
</g>
<g transform="scale(0.750)" stroke-width="0.70" font-family="Times" font-size="15.00" font-weight="bold">
<text x="82.63" y="68.01">= 120</text>
<path stroke="currentColor" fill="none"
	d="M175.73 108.01v-24.00"/>
<path stroke="currentColor" fill="none"
	d="M294.63 108.01v-24.00"/>
<path stroke="currentColor" fill="none"
	d="M413.53 108.01v-24.00"/>
<path stroke="currentColor" fill="none"
	d="M494.83 108.01v-24.00"/>
<path stroke="currentColor" fill="none"
	d="M613.73 108.01v-24.00"/>
<path stroke="currentColor" fill="none"
	d="M694.93 108.01v-24.00"/>
<path stroke="currentColor" fill="none"
	d="M13.33 108.01h681.60m-681.60 -6h681.60m-681.60 -6h681.60m-681.60 -6h681.60m-681.60 -6h681.60"/>
<defs>
<path id="utclef" fill="currentColor" d="m-50 -90
	c-72 -41 -72 -158 52 -188
	c150 -10 220 188 90 256
	c-114 52 -275 0 -293 -136
	c-15 -181 93 -229 220 -334
	c88 -87 79 -133 62 -210
	c-51 33 -94 105 -89 186
	c17 267 36 374 49 574
	c6 96 -19 134 -77 135
	c-80 1 -126 -93 -61 -133
	c85 -41 133 101 31 105
	c23 17 92 37 90 -92
	c-10 -223 -39 -342 -50 -617
	c0 -90 0 -162 96 -232
	c56 72 63 230 22 289
	c-74 106 -257 168 -255 316
	c9 153 148 185 252 133
	c86 -65 29 -192 -80 -176
	c-71 12 -105 67 -59 124"/>
<use id="tclef" transform="scale(0.045)"
	xlink:href="#utclef"/>
</defs>
<use x="25.33" y="108.01" xlink:href="#tclef"/>
<defs>
<path id="uflat" fill="currentColor" d="
	m100 -746
	h32
	v734
	l-32 4
	m32 -332
	c46 -72 152 -90 208 -20
	c100 110 -120 326 -208 348
	m0 -28
	c54 0 200 -206 130 -290
	c-50 -60 -130 -4 -130 34"/>
<use id="ft0" transform="translate(-3.5,3.5) scale(0.018)"
	xlink:href="#uflat"/>
</defs>
<use x="40.33" y="96.01" xlink:href="#ft0"/>
<g font-family="serif" font-size="16" font-weight="bold" font-style="normal"
	transform="translate(56.33,108.01) scale(1.2,1)">
	<text y="-1" text-anchor="middle">8</text>
	<text y="-13" text-anchor="middle">6</text>
</g>
<defs>
<path id="hl" stroke="currentColor" d="m-6 0h12"/>
</defs>
<use x="74.33" y="78.01" xlink:href="#hl"/>
<use x="74.33" y="78.01" xlink:href="#hd"/>
<circle fill="currentColor" cx="82.33" cy="75.01" r="1.2"/>
<path d="M70.83 78.01v20.00" stroke="currentColor" fill="none"/>
<use x="130.63" y="81.01" xlink:href="#hd"/>
<circle fill="currentColor" cx="138.63" cy="81.01" r="1.2"/>
<path d="M127.13 81.01v20.00" stroke="currentColor" fill="none"/>
<use x="193.23" y="87.01" xlink:href="#hd"/>
<circle fill="currentColor" cx="201.23" cy="87.01" r="1.2"/>
<path d="M189.73 87.01v20.00" stroke="currentColor" fill="none"/>
<use x="249.53" y="84.01" xlink:href="#hd"/>
<circle fill="currentColor" cx="257.53" cy="81.01" r="1.2"/>
<path d="M246.03 84.01v20.00" stroke="currentColor" fill="none"/>
<use x="312.13" y="78.01" xlink:href="#hl"/>
<use x="312.13" y="75.01" xlink:href="#hd"/>
<circle fill="currentColor" cx="320.13" cy="75.01" r="1.2"/>
<path d="M308.63 75.01v21.00" stroke="currentColor" fill="none"/>
<use x="368.43" y="78.01" xlink:href="#hl"/>
<use x="368.43" y="78.01" xlink:href="#hd"/>
<circle fill="currentColor" cx="376.43" cy="75.01" r="1.2"/>
<path d="M364.93 78.01v20.00" stroke="currentColor" fill="none"/>
<defs>
<path id="Hd" fill="currentColor" d="m3 -1.6
	c-1 -1.8 -7 1.4 -6 3.2
	c1 1.8 7 -1.4 6 -3.2
	m0.5 -0.3
	c2 3.8 -5 7.6 -7 3.8
	c-2 -3.8 5 -7.6 7 -3.8"/>
</defs>
<use x="431.03" y="81.01" xlink:href="#Hd"/>
<circle fill="currentColor" cx="440.03" cy="81.01" r="1.2"/>
<path d="M427.53 81.01v20.00" stroke="currentColor" fill="none"/>
<use x="512.33" y="78.01" xlink:href="#hl"/>
<use x="512.33" y="72.01" xlink:href="#hl"/>
<use x="512.33" y="72.01" xlink:href="#hd"/>
<circle fill="currentColor" cx="520.33" cy="69.01" r="1.2"/>
<path d="M508.83 72.01v24.00" stroke="currentColor" fill="none"/>
<use x="568.63" y="78.01" xlink:href="#hl"/>
<use x="568.63" y="75.01" xlink:href="#hd"/>
<circle fill="currentColor" cx="576.63" cy="75.01" r="1.2"/>
<path d="M565.13 75.01v21.00" stroke="currentColor" fill="none"/>
<use x="631.23" y="81.01" xlink:href="#Hd"/>
<circle fill="currentColor" cx="640.23" cy="81.01" r="1.2"/>
<path d="M627.73 81.01v20.00" stroke="currentColor" fill="none"/>
</g>
</svg>
