<?xml version="1.0" standalone="no"?>
<!DOCTYPE svg PUBLIC "-//W3C//DTD SVG 1.1//EN"
	"http://www.w3.org/Graphics/SVG/1.1/DTD/svg11.dtd">
<svg xmlns="http://www.w3.org/2000/svg" version="1.1"
	xmlns:xlink="http://www.w3.org/1999/xlink"
	xml:space='preserve' color="black"
	width="7.38in" height="1.34in" viewBox="0 0 531 97">
<title>8674.abc (8674) tune 1</title>
<!-- Creator: abcm2ps-7.8.14 -->
<!-- CreationDate: Mar 13, 2016 18:54 -->
<!-- CommandLine: -qxg 8674.abc -O ../svgs/8674.svg -->
<g transform="scale(0.750)" stroke-width="0.70" font-family="Times" font-size="20.00">
<text x="354.13" y="21.67" text-anchor="middle">8674.  Sonata in E Flat, Op. 120, No. 2, 2nd. Mvt. - 1st. Theme</text>
</g>
<g transform="scale(0.750)" stroke-width="0.70" font-family="Times" font-size="14.00" font-style="italic">
<text x="694.93" y="45.34" text-anchor="end">Johannes Brahms</text>
</g>
<g transform="scale(0.525)" stroke-width="0.70" font-family="Times" font-size="14.00" font-style="italic">
<defs>
<ellipse id="hd" rx="4.1" ry="2.9"
	transform="rotate(-20)" fill="currentColor"/>
</defs>
<use x="154.90" y="94.16" xlink:href="#hd"/>
<path d="M158.40 94.16v-20.00" stroke="currentColor" fill="none"/>
</g>
<g transform="scale(0.750)" stroke-width="0.70" font-family="Times" font-size="15.00" font-weight="bold">
<text x="116.13" y="68.01">= 120</text>
<path stroke="currentColor" fill="none"
	d="M209.53 106.01v-24.00"/>
<path stroke="currentColor" fill="none"
	d="M392.93 106.01v-24.00"/>
<path stroke="currentColor" fill="none"
	d="M511.53 106.01v-24.00"/>
<path stroke="currentColor" fill="none"
	d="M694.93 106.01v-24.00"/>
<path stroke="currentColor" fill="none"
	d="M13.33 106.01h681.60m-681.60 -6h681.60m-681.60 -6h681.60m-681.60 -6h681.60m-681.60 -6h681.60"/>
<defs>
<path id="utclef" fill="currentColor" d="m-50 -90
	c-72 -41 -72 -158 52 -188
	c150 -10 220 188 90 256
	c-114 52 -275 0 -293 -136
	c-15 -181 93 -229 220 -334
	c88 -87 79 -133 62 -210
	c-51 33 -94 105 -89 186
	c17 267 36 374 49 574
	c6 96 -19 134 -77 135
	c-80 1 -126 -93 -61 -133
	c85 -41 133 101 31 105
	c23 17 92 37 90 -92
	c-10 -223 -39 -342 -50 -617
	c0 -90 0 -162 96 -232
	c56 72 63 230 22 289
	c-74 106 -257 168 -255 316
	c9 153 148 185 252 133
	c86 -65 29 -192 -80 -176
	c-71 12 -105 67 -59 124"/>
<use id="tclef" transform="scale(0.045)"
	xlink:href="#utclef"/>
</defs>
<use x="25.33" y="106.01" xlink:href="#tclef"/>
<defs>
<path id="uflat" fill="currentColor" d="
	m100 -746
	h32
	v734
	l-32 4
	m32 -332
	c46 -72 152 -90 208 -20
	c100 110 -120 326 -208 348
	m0 -28
	c54 0 200 -206 130 -290
	c-50 -60 -130 -4 -130 34"/>
<use id="ft0" transform="translate(-3.5,3.5) scale(0.018)"
	xlink:href="#uflat"/>
</defs>
<use x="40.33" y="94.01" xlink:href="#ft0"/>
<use x="45.83" y="85.01" xlink:href="#ft0"/>
<use x="51.33" y="97.01" xlink:href="#ft0"/>
<use x="56.83" y="88.01" xlink:href="#ft0"/>
<use x="62.33" y="100.01" xlink:href="#ft0"/>
<use x="67.83" y="91.01" xlink:href="#ft0"/>
<g font-family="serif" font-size="16" font-weight="bold" font-style="normal"
	transform="translate(83.83,106.01) scale(1.2,1)">
	<text y="-1" text-anchor="middle">4</text>
	<text y="-13" text-anchor="middle">3</text>
</g>
<use x="107.83" y="94.01" xlink:href="#hd"/>
<use x="98.83" y="94.01" xlink:href="#ft0"/>
<path d="M104.33 94.01v20.00" stroke="currentColor" fill="none"/>
<defs>
<path id="Hd" fill="currentColor" d="m3 -1.6
	c-1 -1.8 -7 1.4 -6 3.2
	c1 1.8 7 -1.4 6 -3.2
	m0.5 -0.3
	c2 3.8 -5 7.6 -7 3.8
	c-2 -3.8 5 -7.6 7 -3.8"/>
</defs>
<use x="155.53" y="79.01" xlink:href="#Hd"/>
<path d="M152.03 79.01v20.00" stroke="currentColor" fill="none"/>
<path fill="currentColor"
	d="M222.63 96.51l61.50 5.10v-3.20l-61.50 -5.10"/>
<defs>
<path id="hl" stroke="currentColor" d="m-6 0h12"/>
</defs>
<use x="226.43" y="76.01" xlink:href="#hl"/>
<use x="226.43" y="76.01" xlink:href="#hd"/>
<path d="M222.93 76.01v19.50" stroke="currentColor" fill="none"/>
<use x="256.83" y="79.01" xlink:href="#hd"/>
<path d="M253.33 79.01v19.00" stroke="currentColor" fill="none"/>
<use x="287.23" y="82.01" xlink:href="#hd"/>
<path d="M283.73 82.01v18.50" stroke="currentColor" fill="none"/>
<use x="321.03" y="85.01" xlink:href="#hd"/>
<path d="M317.53 85.01v20.00" stroke="currentColor" fill="none"/>
<path fill="currentColor"
	d="M317.53 105.01c0.6 -5.6 9.6 -9 5.6 -18.4
	c1.6 6 -1.3 11.6 -5.6 12.8
"/>
<use x="354.73" y="76.01" xlink:href="#hl"/>
<use x="354.73" y="73.01" xlink:href="#hd"/>
<path d="M351.23 73.01v21.00" stroke="currentColor" fill="none"/>
<use x="409.83" y="79.01" xlink:href="#hd"/>
<path d="M406.33 79.01v20.00" stroke="currentColor" fill="none"/>
<use x="457.53" y="76.01" xlink:href="#hl"/>
<use x="457.53" y="70.01" xlink:href="#hl"/>
<use x="457.53" y="64.01" xlink:href="#hl"/>
<use x="457.53" y="64.01" xlink:href="#Hd"/>
<path d="M454.03 64.01v30.00" stroke="currentColor" fill="none"/>
<path fill="currentColor"
	d="M524.63 94.21l61.50 0.00v-3.20l-61.50 -0.00"/>
<use x="528.43" y="76.01" xlink:href="#hl"/>
<use x="528.43" y="70.01" xlink:href="#hl"/>
<use x="528.43" y="64.01" xlink:href="#hl"/>
<use x="528.43" y="61.01" xlink:href="#hd"/>
<path d="M524.93 61.01v32.20" stroke="currentColor" fill="none"/>
<use x="558.83" y="76.01" xlink:href="#hl"/>
<use x="558.83" y="70.01" xlink:href="#hl"/>
<use x="558.83" y="64.01" xlink:href="#hl"/>
<use x="558.83" y="64.01" xlink:href="#hd"/>
<path d="M555.33 64.01v29.20" stroke="currentColor" fill="none"/>
<use x="589.23" y="76.01" xlink:href="#hl"/>
<use x="589.23" y="70.01" xlink:href="#hl"/>
<use x="589.23" y="67.01" xlink:href="#hd"/>
<path d="M585.73 67.01v26.20" stroke="currentColor" fill="none"/>
<use x="623.03" y="76.01" xlink:href="#hl"/>
<use x="623.03" y="73.01" xlink:href="#hd"/>
<defs>
<path id="unat" fill="currentColor" d="
	m96 -750
	h-32
	v716
	l32 -8
	l182 -54
	v282
	h32
	v-706
	l-34 10
	l-180 50
	v-290
	m0 592
	v-190
	l182 -52
	v188"/>
<use id="nt0" transform="translate(-3,5) scale(0.018)"
	xlink:href="#unat"/>
</defs>
<use x="614.03" y="73.01" xlink:href="#nt0"/>
<path d="M619.53 73.01v21.00" stroke="currentColor" fill="none"/>
<path fill="currentColor"
	d="M619.53 94.01c0.6 -5.6 9.6 -9 5.6 -18.4
	c1.6 6 -1.3 11.6 -5.6 12.8
"/>
<use x="656.73" y="76.01" xlink:href="#hl"/>
<use x="656.73" y="70.01" xlink:href="#hl"/>
<use x="656.73" y="67.01" xlink:href="#hd"/>
<path d="M653.23 67.01v27.00" stroke="currentColor" fill="none"/>
</g>
</svg>
