<?xml version="1.0" standalone="no"?>
<!DOCTYPE svg PUBLIC "-//W3C//DTD SVG 1.1//EN"
	"http://www.w3.org/Graphics/SVG/1.1/DTD/svg11.dtd">
<svg xmlns="http://www.w3.org/2000/svg" version="1.1"
	xmlns:xlink="http://www.w3.org/1999/xlink"
	xml:space='preserve' color="black"
	width="7.38in" height="1.34in" viewBox="0 0 531 97">
<title>8704.abc (8704) tune 1</title>
<!-- Creator: abcm2ps-7.8.14 -->
<!-- CreationDate: Mar 13, 2016 18:54 -->
<!-- CommandLine: -qxg 8704.abc -O ../svgs/8704.svg -->
<g transform="scale(0.750)" stroke-width="0.70" font-family="Times" font-size="20.00">
<text x="354.13" y="21.67" text-anchor="middle">8704.  Sonata in D Minor, Op. 108, 3rd. Mvt.</text>
</g>
<g transform="scale(0.750)" stroke-width="0.70" font-family="Times" font-size="14.00" font-style="italic">
<text x="694.93" y="45.34" text-anchor="end">Johannes Brahms</text>
</g>
<g transform="scale(0.525)" stroke-width="0.70" font-family="Times" font-size="14.00" font-style="italic">
<defs>
<ellipse id="hd" rx="4.1" ry="2.9"
	transform="rotate(-20)" fill="currentColor"/>
</defs>
<use x="122.76" y="94.16" xlink:href="#hd"/>
<path d="M126.26 94.16v-20.00" stroke="currentColor" fill="none"/>
</g>
<g transform="scale(0.750)" stroke-width="0.70" font-family="Times" font-size="15.00" font-weight="bold">
<text x="93.63" y="68.01">= 120</text>
<path stroke="currentColor" fill="none"
	d="M153.43 106.01v-24.00"/>
<path stroke="currentColor" fill="none"
	d="M234.03 106.01v-24.00"/>
<path stroke="currentColor" fill="none"
	d="M314.63 106.01v-24.00"/>
<path stroke="currentColor" fill="none"
	d="M396.93 106.01v-24.00"/>
<path stroke="currentColor" fill="none"
	d="M486.83 106.01v-24.00"/>
<path stroke="currentColor" fill="none"
	d="M576.73 106.01v-24.00"/>
<path stroke="currentColor" fill="none"
	d="M659.03 106.01v-24.00"/>
<path stroke="currentColor" fill="none"
	d="M13.33 106.01h681.60m-681.60 -6h681.60m-681.60 -6h681.60m-681.60 -6h681.60m-681.60 -6h681.60"/>
<defs>
<path id="utclef" fill="currentColor" d="m-50 -90
	c-72 -41 -72 -158 52 -188
	c150 -10 220 188 90 256
	c-114 52 -275 0 -293 -136
	c-15 -181 93 -229 220 -334
	c88 -87 79 -133 62 -210
	c-51 33 -94 105 -89 186
	c17 267 36 374 49 574
	c6 96 -19 134 -77 135
	c-80 1 -126 -93 -61 -133
	c85 -41 133 101 31 105
	c23 17 92 37 90 -92
	c-10 -223 -39 -342 -50 -617
	c0 -90 0 -162 96 -232
	c56 72 63 230 22 289
	c-74 106 -257 168 -255 316
	c9 153 148 185 252 133
	c86 -65 29 -192 -80 -176
	c-71 12 -105 67 -59 124"/>
<use id="tclef" transform="scale(0.045)"
	xlink:href="#utclef"/>
</defs>
<use x="25.33" y="106.01" xlink:href="#tclef"/>
<defs>
<path id="usharp" fill="currentColor" d="
	m136 -702
	v890
	h32
	v-890
	m128 840
	h32
	v-888
	h-32
	m-232 286
	v116
	l338 -96
	v-116
	m-338 442
	v116
	l338 -98
	v-114"/>
<use id="sh0" transform="translate(-4,5) scale(0.018)"
	xlink:href="#usharp"/>
</defs>
<use x="40.33" y="82.01" xlink:href="#sh0"/>
<use x="45.83" y="91.01" xlink:href="#sh0"/>
<use x="51.33" y="79.01" xlink:href="#sh0"/>
<g font-family="serif" font-size="16" font-weight="bold" font-style="normal"
	transform="translate(67.33,106.01) scale(1.2,1)">
	<text y="-1" text-anchor="middle">4</text>
	<text y="-13" text-anchor="middle">2</text>
</g>
<use x="85.33" y="82.01" xlink:href="#hd"/>
<path d="M81.83 82.01v20.00" stroke="currentColor" fill="none"/>
<path fill="currentColor"
	d="M81.83 102.01c0.6 -5.6 9.6 -9 5.6 -18.4
	c1.6 6 -1.3 11.6 -5.6 12.8
"/>
<use x="103.53" y="82.01" xlink:href="#hd"/>
<path d="M100.03 82.01v20.00" stroke="currentColor" fill="none"/>
<path fill="currentColor"
	d="M100.03 102.01c0.6 -5.6 9.6 -9 5.6 -18.4
	c1.6 6 -1.3 11.6 -5.6 12.8
"/>
<defs>
<path id="r8e" fill="currentColor" d="m 0 0
	c-1.5 1.5 -2.4 2 -3.6 2
	c2.4 -2.8 -2.8 -4 -2.8 -1.2
	c0 2.7 4.3 2.4 5.9 0.6"/>
<g id="r8">
	<path d="m3.3 -4l-3.4 9.6" stroke="currentColor" fill="none"/>
	<use x="3.4" y="-4" xlink:href="#r8e"/>
</g>
</defs>
<use x="120.13" y="94.01" xlink:href="#r8"/>
<defs>
<path id="hl" stroke="currentColor" d="m-6 0h12"/>
</defs>
<use x="138.43" y="76.01" xlink:href="#hl"/>
<use x="138.43" y="76.01" xlink:href="#hd"/>
<path d="M134.93 76.01v20.00" stroke="currentColor" fill="none"/>
<path fill="currentColor"
	d="M134.93 96.01c0.6 -5.6 9.6 -9 5.6 -18.4
	c1.6 6 -1.3 11.6 -5.6 12.8
"/>
<use x="165.93" y="82.01" xlink:href="#hd"/>
<path d="M162.43 82.01v20.00" stroke="currentColor" fill="none"/>
<path fill="currentColor"
	d="M162.43 102.01c0.6 -5.6 9.6 -9 5.6 -18.4
	c1.6 6 -1.3 11.6 -5.6 12.8
"/>
<use x="184.13" y="82.01" xlink:href="#hd"/>
<path d="M180.63 82.01v20.00" stroke="currentColor" fill="none"/>
<path fill="currentColor"
	d="M180.63 102.01c0.6 -5.6 9.6 -9 5.6 -18.4
	c1.6 6 -1.3 11.6 -5.6 12.8
"/>
<use x="200.73" y="94.01" xlink:href="#r8"/>
<use x="219.03" y="76.01" xlink:href="#hl"/>
<use x="219.03" y="76.01" xlink:href="#hd"/>
<path d="M215.53 76.01v20.00" stroke="currentColor" fill="none"/>
<path fill="currentColor"
	d="M215.53 96.01c0.6 -5.6 9.6 -9 5.6 -18.4
	c1.6 6 -1.3 11.6 -5.6 12.8
"/>
<use x="246.53" y="82.01" xlink:href="#hd"/>
<path d="M243.03 82.01v20.00" stroke="currentColor" fill="none"/>
<path fill="currentColor"
	d="M243.03 102.01c0.6 -5.6 9.6 -9 5.6 -18.4
	c1.6 6 -1.3 11.6 -5.6 12.8
"/>
<use x="264.73" y="82.01" xlink:href="#hd"/>
<path d="M261.23 82.01v20.00" stroke="currentColor" fill="none"/>
<path fill="currentColor"
	d="M261.23 102.01c0.6 -5.6 9.6 -9 5.6 -18.4
	c1.6 6 -1.3 11.6 -5.6 12.8
"/>
<use x="281.33" y="94.01" xlink:href="#r8"/>
<use x="299.63" y="76.01" xlink:href="#hl"/>
<use x="299.63" y="76.01" xlink:href="#hd"/>
<path d="M296.13 76.01v20.00" stroke="currentColor" fill="none"/>
<path fill="currentColor"
	d="M296.13 96.01c0.6 -5.6 9.6 -9 5.6 -18.4
	c1.6 6 -1.3 11.6 -5.6 12.8
"/>
<use x="327.13" y="82.01" xlink:href="#hd"/>
<path d="M323.63 82.01v20.00" stroke="currentColor" fill="none"/>
<path fill="currentColor"
	d="M323.63 102.01c0.6 -5.6 9.6 -9 5.6 -18.4
	c1.6 6 -1.3 11.6 -5.6 12.8
"/>
<use x="345.33" y="76.01" xlink:href="#hl"/>
<use x="345.33" y="76.01" xlink:href="#hd"/>
<path d="M341.83 76.01v20.00" stroke="currentColor" fill="none"/>
<path fill="currentColor"
	d="M341.83 96.01c0.6 -5.6 9.6 -9 5.6 -18.4
	c1.6 6 -1.3 11.6 -5.6 12.8
"/>
<use x="363.63" y="79.01" xlink:href="#hd"/>
<path d="M360.13 79.01v20.00" stroke="currentColor" fill="none"/>
<path fill="currentColor"
	d="M360.13 99.01c0.6 -5.6 9.6 -9 5.6 -18.4
	c1.6 6 -1.3 11.6 -5.6 12.8
"/>
<use x="381.83" y="82.01" xlink:href="#hd"/>
<path d="M378.33 82.01v20.00" stroke="currentColor" fill="none"/>
<path fill="currentColor"
	d="M378.33 102.01c0.6 -5.6 9.6 -9 5.6 -18.4
	c1.6 6 -1.3 11.6 -5.6 12.8
"/>
<use x="415.43" y="82.01" xlink:href="#hd"/>
<defs>
<path id="unat" fill="currentColor" d="
	m96 -750
	h-32
	v716
	l32 -8
	l182 -54
	v282
	h32
	v-706
	l-34 10
	l-180 50
	v-290
	m0 592
	v-190
	l182 -52
	v188"/>
<use id="nt0" transform="translate(-3,5) scale(0.018)"
	xlink:href="#unat"/>
</defs>
<use x="406.43" y="82.01" xlink:href="#nt0"/>
<path d="M411.93 82.01v20.00" stroke="currentColor" fill="none"/>
<path fill="currentColor"
	d="M411.93 102.01c0.6 -5.6 9.6 -9 5.6 -18.4
	c1.6 6 -1.3 11.6 -5.6 12.8
"/>
<use x="435.33" y="82.01" xlink:href="#hd"/>
<use x="426.33" y="82.01" xlink:href="#nt0"/>
<path d="M431.83 82.01v20.00" stroke="currentColor" fill="none"/>
<path fill="currentColor"
	d="M431.83 102.01c0.6 -5.6 9.6 -9 5.6 -18.4
	c1.6 6 -1.3 11.6 -5.6 12.8
"/>
<use x="451.93" y="94.01" xlink:href="#r8"/>
<use x="471.83" y="79.01" xlink:href="#hd"/>
<use x="462.83" y="79.01" xlink:href="#nt0"/>
<path d="M468.33 79.01v20.00" stroke="currentColor" fill="none"/>
<path fill="currentColor"
	d="M468.33 99.01c0.6 -5.6 9.6 -9 5.6 -18.4
	c1.6 6 -1.3 11.6 -5.6 12.8
"/>
<use x="505.33" y="82.01" xlink:href="#hd"/>
<use x="496.33" y="82.01" xlink:href="#nt0"/>
<path d="M501.83 82.01v20.00" stroke="currentColor" fill="none"/>
<path fill="currentColor"
	d="M501.83 102.01c0.6 -5.6 9.6 -9 5.6 -18.4
	c1.6 6 -1.3 11.6 -5.6 12.8
"/>
<use x="525.23" y="82.01" xlink:href="#hd"/>
<use x="516.23" y="82.01" xlink:href="#nt0"/>
<path d="M521.73 82.01v20.00" stroke="currentColor" fill="none"/>
<path fill="currentColor"
	d="M521.73 102.01c0.6 -5.6 9.6 -9 5.6 -18.4
	c1.6 6 -1.3 11.6 -5.6 12.8
"/>
<use x="541.83" y="94.01" xlink:href="#r8"/>
<use x="561.73" y="79.01" xlink:href="#hd"/>
<use x="552.73" y="79.01" xlink:href="#nt0"/>
<path d="M558.23 79.01v20.00" stroke="currentColor" fill="none"/>
<path fill="currentColor"
	d="M558.23 99.01c0.6 -5.6 9.6 -9 5.6 -18.4
	c1.6 6 -1.3 11.6 -5.6 12.8
"/>
<use x="589.23" y="85.01" xlink:href="#hd"/>
<path d="M585.73 85.01v20.00" stroke="currentColor" fill="none"/>
<path fill="currentColor"
	d="M585.73 105.01c0.6 -5.6 9.6 -9 5.6 -18.4
	c1.6 6 -1.3 11.6 -5.6 12.8
"/>
<use x="607.53" y="85.01" xlink:href="#hd"/>
<path d="M604.03 85.01v20.00" stroke="currentColor" fill="none"/>
<path fill="currentColor"
	d="M604.03 105.01c0.6 -5.6 9.6 -9 5.6 -18.4
	c1.6 6 -1.3 11.6 -5.6 12.8
"/>
<use x="624.13" y="94.01" xlink:href="#r8"/>
<use x="644.03" y="82.01" xlink:href="#hd"/>
<use x="635.03" y="82.01" xlink:href="#sh0"/>
<path d="M640.53 82.01v20.00" stroke="currentColor" fill="none"/>
<path fill="currentColor"
	d="M640.53 102.01c0.6 -5.6 9.6 -9 5.6 -18.4
	c1.6 6 -1.3 11.6 -5.6 12.8
"/>
<use x="677.53" y="88.01" xlink:href="#hd"/>
<use x="668.53" y="88.01" xlink:href="#sh0"/>
<path d="M674.03 88.01v20.00" stroke="currentColor" fill="none"/>
<path fill="currentColor"
	d="M674.03 108.01c0.6 -5.6 9.6 -9 5.6 -18.4
	c1.6 6 -1.3 11.6 -5.6 12.8
"/>
</g>
</svg>
