<?xml version="1.0" standalone="no"?>
<!DOCTYPE svg PUBLIC "-//W3C//DTD SVG 1.1//EN"
	"http://www.w3.org/Graphics/SVG/1.1/DTD/svg11.dtd">
<svg xmlns="http://www.w3.org/2000/svg" version="1.1"
	xmlns:xlink="http://www.w3.org/1999/xlink"
	xml:space='preserve' color="black"
	width="7.38in" height="1.48in" viewBox="0 0 531 107">
<title>8709.abc (8709) tune 1</title>
<!-- Creator: abcm2ps-7.8.14 -->
<!-- CreationDate: Mar 13, 2016 18:54 -->
<!-- CommandLine: -qxg 8709.abc -O ../svgs/8709.svg -->
<g transform="scale(0.750)" stroke-width="0.70" font-family="Times" font-size="20.00">
<text x="354.13" y="21.67" text-anchor="middle">8709.  Symphony No. 1 in C Minor, Op. 68, 1st. Mvt. - Intro A 2</text>
</g>
<g transform="scale(0.750)" stroke-width="0.70" font-family="Times" font-size="14.00" font-style="italic">
<text x="694.93" y="45.34" text-anchor="end">Johannes Brahms</text>
</g>
<g transform="scale(0.525)" stroke-width="0.70" font-family="Times" font-size="14.00" font-style="italic">
<defs>
<ellipse id="hd" rx="4.1" ry="2.9"
	transform="rotate(-20)" fill="currentColor"/>
</defs>
<use x="123.47" y="94.16" xlink:href="#hd"/>
<path d="M126.97 94.16v-20.00" stroke="currentColor" fill="none"/>
</g>
<g transform="scale(0.750)" stroke-width="0.70" font-family="Times" font-size="15.00" font-weight="bold">
<text x="94.13" y="68.01">= 120</text>
<path stroke="currentColor" fill="none"
	d="M177.53 119.01v-24.00"/>
<path stroke="currentColor" fill="none"
	d="M329.93 119.01v-24.00"/>
<path stroke="currentColor" fill="none"
	d="M437.13 119.01v-24.00"/>
<path stroke="currentColor" fill="none"
	d="M550.23 119.01v-24.00"/>
<path stroke="currentColor" fill="none"
	d="M694.93 119.01v-24.00"/>
<path stroke="currentColor" fill="none"
	d="M13.33 119.01h681.60m-681.60 -6h681.60m-681.60 -6h681.60m-681.60 -6h681.60m-681.60 -6h681.60"/>
<defs>
<path id="utclef" fill="currentColor" d="m-50 -90
	c-72 -41 -72 -158 52 -188
	c150 -10 220 188 90 256
	c-114 52 -275 0 -293 -136
	c-15 -181 93 -229 220 -334
	c88 -87 79 -133 62 -210
	c-51 33 -94 105 -89 186
	c17 267 36 374 49 574
	c6 96 -19 134 -77 135
	c-80 1 -126 -93 -61 -133
	c85 -41 133 101 31 105
	c23 17 92 37 90 -92
	c-10 -223 -39 -342 -50 -617
	c0 -90 0 -162 96 -232
	c56 72 63 230 22 289
	c-74 106 -257 168 -255 316
	c9 153 148 185 252 133
	c86 -65 29 -192 -80 -176
	c-71 12 -105 67 -59 124"/>
<use id="tclef" transform="scale(0.045)"
	xlink:href="#utclef"/>
</defs>
<use x="25.33" y="119.01" xlink:href="#tclef"/>
<defs>
<path id="uflat" fill="currentColor" d="
	m100 -746
	h32
	v734
	l-32 4
	m32 -332
	c46 -72 152 -90 208 -20
	c100 110 -120 326 -208 348
	m0 -28
	c54 0 200 -206 130 -290
	c-50 -60 -130 -4 -130 34"/>
<use id="ft0" transform="translate(-3.5,3.5) scale(0.018)"
	xlink:href="#uflat"/>
</defs>
<use x="40.33" y="107.01" xlink:href="#ft0"/>
<use x="45.83" y="98.01" xlink:href="#ft0"/>
<use x="51.33" y="110.01" xlink:href="#ft0"/>
<g font-family="serif" font-size="16" font-weight="bold" font-style="normal"
	transform="translate(67.33,119.01) scale(1.2,1)">
	<text y="-1" text-anchor="middle">8</text>
	<text y="-13" text-anchor="middle">6</text>
</g>
<defs>
<path id="hl" stroke="currentColor" d="m-6 0h12"/>
</defs>
<use x="85.83" y="89.01" xlink:href="#hl"/>
<use x="85.83" y="83.01" xlink:href="#hl"/>
<defs>
<path id="Hd" fill="currentColor" d="m3 -1.6
	c-1 -1.8 -7 1.4 -6 3.2
	c1 1.8 7 -1.4 6 -3.2
	m0.5 -0.3
	c2 3.8 -5 7.6 -7 3.8
	c-2 -3.8 5 -7.6 7 -3.8"/>
</defs>
<use x="85.83" y="83.01" xlink:href="#Hd"/>
<path d="M82.33 83.01v24.00" stroke="currentColor" fill="none"/>
<path fill="currentColor"
	d="M131.33 107.21l23.30 0.00v-3.20l-23.30 -0.00"/>
<use x="135.13" y="89.01" xlink:href="#hl"/>
<use x="135.13" y="83.01" xlink:href="#hl"/>
<use x="135.13" y="83.01" xlink:href="#hd"/>
<path d="M131.63 83.01v23.20" stroke="currentColor" fill="none"/>
<use x="157.73" y="89.01" xlink:href="#hl"/>
<use x="157.73" y="83.01" xlink:href="#hl"/>
<use x="157.73" y="80.01" xlink:href="#hd"/>
<use x="148.73" y="80.01" xlink:href="#ft0"/>
<path d="M154.23 80.01v26.20" stroke="currentColor" fill="none"/>
<use x="196.03" y="89.01" xlink:href="#hl"/>
<use x="196.03" y="83.01" xlink:href="#hl"/>
<use x="196.03" y="80.01" xlink:href="#hd"/>
<use x="187.03" y="80.01" xlink:href="#ft0"/>
<path d="M192.53 80.01v27.00" stroke="currentColor" fill="none"/>
<use x="231.03" y="89.01" xlink:href="#hl"/>
<use x="231.03" y="83.01" xlink:href="#hl"/>
<use x="231.03" y="80.01" xlink:href="#hd"/>
<defs>
<path id="unat" fill="currentColor" d="
	m96 -750
	h-32
	v716
	l32 -8
	l182 -54
	v282
	h32
	v-706
	l-34 10
	l-180 50
	v-290
	m0 592
	v-190
	l182 -52
	v188"/>
<use id="nt0" transform="translate(-3,5) scale(0.018)"
	xlink:href="#unat"/>
</defs>
<use x="222.03" y="80.01" xlink:href="#nt0"/>
<path d="M227.53 80.01v27.00" stroke="currentColor" fill="none"/>
<path fill="currentColor"
	d="M227.53 107.01c0.6 -5.6 9.6 -9 5.6 -18.4
	c1.6 6 -1.3 11.6 -5.6 12.8
"/>
<use x="255.73" y="89.01" xlink:href="#hl"/>
<use x="255.73" y="83.01" xlink:href="#hl"/>
<use x="255.73" y="80.01" xlink:href="#hd"/>
<circle fill="currentColor" cx="263.73" cy="80.01" r="1.2"/>
<path d="M252.23 80.01v27.00" stroke="currentColor" fill="none"/>
<path fill="currentColor"
	d="M252.23 107.01c0.6 -5.6 9.6 -9 5.6 -18.4
	c1.6 6 -1.3 11.6 -5.6 12.8
"/>
<path fill="currentColor"
	d="M280.23 107.21l32.40 0.00v-3.20l-32.40 -0.00"/>
<path fill="currentColor"
	d="M280.53 102.21l31.70 0.00v-3.20l-31.70 -0.00"/>
<use x="284.03" y="89.01" xlink:href="#hl"/>
<use x="284.03" y="83.01" xlink:href="#hl"/>
<use x="284.03" y="77.01" xlink:href="#hl"/>
<use x="284.03" y="77.01" xlink:href="#hd"/>
<path d="M280.53 77.01v29.20" stroke="currentColor" fill="none"/>
<use x="299.93" y="89.01" xlink:href="#hl"/>
<use x="299.93" y="83.01" xlink:href="#hl"/>
<use x="299.93" y="77.01" xlink:href="#hl"/>
<use x="299.93" y="74.01" xlink:href="#hd"/>
<path d="M296.43 74.01v32.20" stroke="currentColor" fill="none"/>
<use x="315.83" y="89.01" xlink:href="#hl"/>
<use x="315.83" y="83.01" xlink:href="#hl"/>
<use x="315.83" y="77.01" xlink:href="#hl"/>
<use x="315.83" y="71.01" xlink:href="#hl"/>
<use x="315.83" y="71.01" xlink:href="#hd"/>
<path d="M312.33 71.01v35.20" stroke="currentColor" fill="none"/>
<use x="342.53" y="89.01" xlink:href="#hl"/>
<use x="342.53" y="83.01" xlink:href="#hl"/>
<use x="342.53" y="77.01" xlink:href="#hl"/>
<use x="342.53" y="71.01" xlink:href="#hl"/>
<use x="342.53" y="71.01" xlink:href="#hd"/>
<path d="M339.03 71.01v36.00" stroke="currentColor" fill="none"/>
<use x="377.23" y="89.01" xlink:href="#hl"/>
<use x="377.23" y="83.01" xlink:href="#hl"/>
<use x="377.23" y="77.01" xlink:href="#hl"/>
<use x="377.23" y="71.01" xlink:href="#hl"/>
<use x="377.23" y="68.01" xlink:href="#hd"/>
<circle fill="currentColor" cx="385.23" cy="68.01" r="1.2"/>
<path d="M373.73 68.01v39.00" stroke="currentColor" fill="none"/>
<use x="417.33" y="89.01" xlink:href="#hl"/>
<use x="417.33" y="83.01" xlink:href="#hl"/>
<use x="417.33" y="77.01" xlink:href="#hl"/>
<use x="417.33" y="71.01" xlink:href="#hl"/>
<use x="417.33" y="68.01" xlink:href="#hd"/>
<use x="408.33" y="68.01" xlink:href="#nt0"/>
<path d="M413.83 68.01v39.00" stroke="currentColor" fill="none"/>
<path fill="currentColor"
	d="M413.83 107.01c0.6 -5.6 9.6 -9 5.6 -18.4
	c1.6 6 -1.3 11.6 -5.6 12.8
"/>
<use x="455.63" y="89.01" xlink:href="#hl"/>
<use x="455.63" y="83.01" xlink:href="#hl"/>
<use x="455.63" y="77.01" xlink:href="#hl"/>
<use x="455.63" y="71.01" xlink:href="#hl"/>
<use x="455.63" y="68.01" xlink:href="#hd"/>
<use x="446.63" y="68.01" xlink:href="#nt0"/>
<path d="M452.13 68.01v39.00" stroke="currentColor" fill="none"/>
<use x="490.33" y="89.01" xlink:href="#hl"/>
<use x="490.33" y="83.01" xlink:href="#hl"/>
<use x="490.33" y="77.01" xlink:href="#hl"/>
<use x="490.33" y="71.01" xlink:href="#hl"/>
<use x="490.33" y="65.01" xlink:href="#hl"/>
<use x="490.33" y="65.01" xlink:href="#hd"/>
<circle fill="currentColor" cx="498.33" cy="62.01" r="1.2"/>
<path d="M486.83 65.01v42.00" stroke="currentColor" fill="none"/>
<use x="530.43" y="89.01" xlink:href="#hl"/>
<use x="530.43" y="83.01" xlink:href="#hl"/>
<use x="530.43" y="77.01" xlink:href="#hl"/>
<use x="530.43" y="71.01" xlink:href="#hl"/>
<use x="530.43" y="68.01" xlink:href="#hd"/>
<use x="521.43" y="68.01" xlink:href="#ft0"/>
<path d="M526.93 68.01v39.00" stroke="currentColor" fill="none"/>
<path fill="currentColor"
	d="M526.93 107.01c0.6 -5.6 9.6 -9 5.6 -18.4
	c1.6 6 -1.3 11.6 -5.6 12.8
"/>
<use x="562.93" y="89.01" xlink:href="#hl"/>
<use x="562.93" y="83.01" xlink:href="#hl"/>
<use x="562.93" y="77.01" xlink:href="#hl"/>
<use x="562.93" y="71.01" xlink:href="#hl"/>
<use x="562.93" y="68.01" xlink:href="#hd"/>
<circle fill="currentColor" cx="570.93" cy="68.01" r="1.2"/>
<path d="M559.43 68.01v39.00" stroke="currentColor" fill="none"/>
<path fill="currentColor"
	d="M559.43 107.01c0.6 -5.6 9.6 -9 5.6 -18.4
	c1.6 6 -1.3 11.6 -5.6 12.8
"/>
<path fill="currentColor"
	d="M587.43 115.01l32.30 0.00v-3.20l-32.30 -0.00"/>
<path fill="currentColor"
	d="M587.73 110.01l31.60 0.00v-3.20l-31.60 -0.00"/>
<use x="591.23" y="89.01" xlink:href="#hl"/>
<use x="591.23" y="83.01" xlink:href="#hl"/>
<use x="591.23" y="77.01" xlink:href="#hl"/>
<use x="591.23" y="71.01" xlink:href="#hl"/>
<use x="591.23" y="71.01" xlink:href="#hd"/>
<path d="M587.73 71.01v43.00" stroke="currentColor" fill="none"/>
<use x="607.03" y="92.01" xlink:href="#hd"/>
<path d="M603.53 92.01v22.00" stroke="currentColor" fill="none"/>
<use x="622.83" y="89.01" xlink:href="#hl"/>
<use x="622.83" y="83.01" xlink:href="#hl"/>
<use x="622.83" y="80.01" xlink:href="#hd"/>
<path d="M619.33 80.01v34.00" stroke="currentColor" fill="none"/>
<use x="640.43" y="89.01" xlink:href="#hl"/>
<use x="640.43" y="83.01" xlink:href="#hl"/>
<use x="640.43" y="77.01" xlink:href="#hl"/>
<use x="640.43" y="71.01" xlink:href="#hl"/>
<use x="640.43" y="71.01" xlink:href="#hd"/>
<path d="M636.93 71.01v36.00" stroke="currentColor" fill="none"/>
<use x="675.13" y="89.01" xlink:href="#hl"/>
<use x="675.13" y="83.01" xlink:href="#hl"/>
<use x="675.13" y="77.01" xlink:href="#hl"/>
<use x="675.13" y="74.01" xlink:href="#hd"/>
<path d="M671.63 74.01v33.00" stroke="currentColor" fill="none"/>
<path fill="currentColor"
	d="M671.63 107.01c0.6 -5.6 9.6 -9 5.6 -18.4
	c1.6 6 -1.3 11.6 -5.6 12.8
"/>
<path fill="currentColor"
	d="M89.33 83.01c6.62 -5.26 35.68 -5.26 42.30 -0.00
	l0.00 -0.24c-7.89 -7.02 -34.41 -7.02 -42.30 0.24"/>
<path fill="currentColor"
	d="M161.23 78.01c4.93 -5.06 26.37 -5.06 31.30 -0.00
	l0.00 -0.23c-5.87 -6.83 -25.43 -6.83 -31.30 0.23"/>
<path fill="currentColor"
	d="M319.33 71.01c3.11 -4.86 16.64 -4.86 19.75 -0.00
	l0.00 -0.22c-3.70 -6.64 -16.05 -6.64 -19.75 0.22"/>
<path fill="currentColor"
	d="M420.83 66.01c4.93 -5.06 26.37 -5.06 31.30 -0.00
	l0.00 -0.23c-5.87 -6.83 -25.43 -6.83 -31.30 0.23"/>
<path fill="currentColor"
	d="M533.93 66.01c4.01 -4.96 21.44 -4.96 25.45 -0.00
	l0.00 -0.23c-4.77 -6.73 -20.67 -6.73 -25.45 0.23"/>
</g>
</svg>
