<?xml version="1.0" standalone="no"?>
<!DOCTYPE svg PUBLIC "-//W3C//DTD SVG 1.1//EN"
	"http://www.w3.org/Graphics/SVG/1.1/DTD/svg11.dtd">
<svg xmlns="http://www.w3.org/2000/svg" version="1.1"
	xmlns:xlink="http://www.w3.org/1999/xlink"
	xml:space='preserve' color="black"
	width="7.38in" height="1.49in" viewBox="0 0 531 107">
<title>8730.abc (8730) tune 1</title>
<!-- Creator: abcm2ps-7.8.14 -->
<!-- CreationDate: Mar 13, 2016 18:54 -->
<!-- CommandLine: -qxg 8730.abc -O ../svgs/8730.svg -->
<g transform="scale(0.750)" stroke-width="0.70" font-family="Times" font-size="20.00">
<text x="354.13" y="21.67" text-anchor="middle">8730.  Symphony No. 1 in C Minor, Op. 68, 4th. Mvt. - 2nd. Theme</text>
</g>
<g transform="scale(0.750)" stroke-width="0.70" font-family="Times" font-size="14.00" font-style="italic">
<text x="694.93" y="45.34" text-anchor="end">Johannes Brahms</text>
</g>
<g transform="scale(0.525)" stroke-width="0.70" font-family="Times" font-size="14.00" font-style="italic">
<defs>
<ellipse id="hd" rx="4.1" ry="2.9"
	transform="rotate(-20)" fill="currentColor"/>
</defs>
<use x="89.19" y="94.16" xlink:href="#hd"/>
<path d="M92.69 94.16v-20.00" stroke="currentColor" fill="none"/>
</g>
<g transform="scale(0.750)" stroke-width="0.70" font-family="Times" font-size="15.00" font-weight="bold">
<text x="70.13" y="68.01">= 120</text>
<path stroke="currentColor" fill="none"
	d="M179.23 120.01v-24.00"/>
<path stroke="currentColor" fill="none"
	d="M354.83 120.01v-24.00"/>
<path stroke="currentColor" fill="none"
	d="M524.83 120.01v-24.00"/>
<path stroke="currentColor" fill="none"
	d="M694.93 120.01v-24.00"/>
<path stroke="currentColor" fill="none"
	d="M13.33 120.01h681.60m-681.60 -6h681.60m-681.60 -6h681.60m-681.60 -6h681.60m-681.60 -6h681.60"/>
<defs>
<path id="utclef" fill="currentColor" d="m-50 -90
	c-72 -41 -72 -158 52 -188
	c150 -10 220 188 90 256
	c-114 52 -275 0 -293 -136
	c-15 -181 93 -229 220 -334
	c88 -87 79 -133 62 -210
	c-51 33 -94 105 -89 186
	c17 267 36 374 49 574
	c6 96 -19 134 -77 135
	c-80 1 -126 -93 -61 -133
	c85 -41 133 101 31 105
	c23 17 92 37 90 -92
	c-10 -223 -39 -342 -50 -617
	c0 -90 0 -162 96 -232
	c56 72 63 230 22 289
	c-74 106 -257 168 -255 316
	c9 153 148 185 252 133
	c86 -65 29 -192 -80 -176
	c-71 12 -105 67 -59 124"/>
<use id="tclef" transform="scale(0.045)"
	xlink:href="#utclef"/>
</defs>
<use x="25.33" y="120.01" xlink:href="#tclef"/>
<g font-family="serif" font-size="16" font-weight="bold" font-style="normal"
	transform="translate(43.83,120.01) scale(1.2,1)">
	<text y="-1" text-anchor="middle">4</text>
	<text y="-13" text-anchor="middle">4</text>
</g>
<defs>
<path id="hl" stroke="currentColor" d="m-6 0h12"/>
</defs>
<use x="61.83" y="90.01" xlink:href="#hl"/>
<use x="61.83" y="84.01" xlink:href="#hl"/>
<use x="61.83" y="78.01" xlink:href="#hl"/>
<use x="61.83" y="78.01" xlink:href="#hd"/>
<path d="M58.33 78.01v30.00" stroke="currentColor" fill="none"/>
<use x="92.63" y="90.01" xlink:href="#hl"/>
<use x="92.63" y="84.01" xlink:href="#hl"/>
<use x="92.63" y="81.01" xlink:href="#hd"/>
<path d="M89.13 81.01v27.00" stroke="currentColor" fill="none"/>
<use x="123.83" y="96.01" xlink:href="#hd"/>
<defs>
<path id="usharp" fill="currentColor" d="
	m136 -702
	v890
	h32
	v-890
	m128 840
	h32
	v-888
	h-32
	m-232 286
	v116
	l338 -96
	v-116
	m-338 442
	v116
	l338 -98
	v-114"/>
<use id="sh0" transform="translate(-4,5) scale(0.018)"
	xlink:href="#usharp"/>
</defs>
<use x="114.83" y="96.01" xlink:href="#sh0"/>
<path d="M120.33 96.01v20.00" stroke="currentColor" fill="none"/>
<use x="154.53" y="93.01" xlink:href="#hd"/>
<path d="M151.03 93.01v20.00" stroke="currentColor" fill="none"/>
<use x="197.73" y="90.01" xlink:href="#hl"/>
<use x="197.73" y="84.01" xlink:href="#hl"/>
<use x="197.73" y="78.01" xlink:href="#hl"/>
<use x="197.73" y="75.01" xlink:href="#hd"/>
<use x="188.73" y="75.01" xlink:href="#sh0"/>
<path d="M194.23 75.01v33.00" stroke="currentColor" fill="none"/>
<path fill="currentColor"
	d="M194.23 108.01c0.6 -5.6 9.6 -9 5.6 -18.4
	c1.6 6 -1.3 11.6 -5.6 12.8
"/>
<use x="219.73" y="90.01" xlink:href="#hl"/>
<use x="219.73" y="84.01" xlink:href="#hl"/>
<use x="219.73" y="78.01" xlink:href="#hl"/>
<use x="219.73" y="78.01" xlink:href="#hd"/>
<path d="M216.23 78.01v30.00" stroke="currentColor" fill="none"/>
<path fill="currentColor"
	d="M216.23 108.01c0.6 -5.6 9.6 -9 5.6 -18.4
	c1.6 6 -1.3 11.6 -5.6 12.8
"/>
<use x="242.03" y="90.01" xlink:href="#hl"/>
<use x="242.03" y="84.01" xlink:href="#hl"/>
<use x="242.03" y="84.01" xlink:href="#hd"/>
<use x="233.03" y="84.01" xlink:href="#sh0"/>
<path d="M238.53 84.01v24.00" stroke="currentColor" fill="none"/>
<path fill="currentColor"
	d="M238.53 108.01c0.6 -5.6 9.6 -9 5.6 -18.4
	c1.6 6 -1.3 11.6 -5.6 12.8
"/>
<use x="264.03" y="90.01" xlink:href="#hl"/>
<use x="264.03" y="84.01" xlink:href="#hl"/>
<use x="264.03" y="81.01" xlink:href="#hd"/>
<path d="M260.53 81.01v27.00" stroke="currentColor" fill="none"/>
<path fill="currentColor"
	d="M260.53 108.01c0.6 -5.6 9.6 -9 5.6 -18.4
	c1.6 6 -1.3 11.6 -5.6 12.8
"/>
<use x="285.93" y="99.01" xlink:href="#hd"/>
<path d="M282.43 99.01v20.00" stroke="currentColor" fill="none"/>
<path fill="currentColor"
	d="M282.43 119.01c0.6 -5.6 9.6 -9 5.6 -18.4
	c1.6 6 -1.3 11.6 -5.6 12.8
"/>
<use x="308.23" y="96.01" xlink:href="#hd"/>
<use x="299.23" y="96.01" xlink:href="#sh0"/>
<path d="M304.73 96.01v20.00" stroke="currentColor" fill="none"/>
<path fill="currentColor"
	d="M304.73 116.01c0.6 -5.6 9.6 -9 5.6 -18.4
	c1.6 6 -1.3 11.6 -5.6 12.8
"/>
<use x="330.13" y="93.01" xlink:href="#hd"/>
<path d="M326.63 93.01v20.00" stroke="currentColor" fill="none"/>
<use x="367.33" y="99.01" xlink:href="#hd"/>
<path d="M363.83 99.01v20.00" stroke="currentColor" fill="none"/>
<path fill="currentColor"
	d="M363.83 119.01c0.6 -5.6 9.6 -9 5.6 -18.4
	c1.6 6 -1.3 11.6 -5.6 12.8
"/>
<use x="389.73" y="96.01" xlink:href="#hd"/>
<use x="380.73" y="96.01" xlink:href="#sh0"/>
<path d="M386.23 96.01v20.00" stroke="currentColor" fill="none"/>
<path fill="currentColor"
	d="M386.23 116.01c0.6 -5.6 9.6 -9 5.6 -18.4
	c1.6 6 -1.3 11.6 -5.6 12.8
"/>
<use x="411.53" y="93.01" xlink:href="#hd"/>
<path d="M408.03 93.01v20.00" stroke="currentColor" fill="none"/>
<path fill="currentColor"
	d="M408.03 113.01c0.6 -5.6 9.6 -9 5.6 -18.4
	c1.6 6 -1.3 11.6 -5.6 12.8
"/>
<use x="433.43" y="102.01" xlink:href="#hd"/>
<path d="M429.93 102.01v20.00" stroke="currentColor" fill="none"/>
<path fill="currentColor"
	d="M429.93 122.01c0.6 -5.6 9.6 -9 5.6 -18.4
	c1.6 6 -1.3 11.6 -5.6 12.8
"/>
<use x="455.83" y="96.01" xlink:href="#hd"/>
<use x="446.83" y="96.01" xlink:href="#sh0"/>
<path d="M452.33 96.01v20.00" stroke="currentColor" fill="none"/>
<path fill="currentColor"
	d="M452.33 116.01c0.6 -5.6 9.6 -9 5.6 -18.4
	c1.6 6 -1.3 11.6 -5.6 12.8
"/>
<use x="478.23" y="90.01" xlink:href="#hl"/>
<use x="478.23" y="84.01" xlink:href="#hl"/>
<use x="478.23" y="84.01" xlink:href="#hd"/>
<defs>
<path id="unat" fill="currentColor" d="
	m96 -750
	h-32
	v716
	l32 -8
	l182 -54
	v282
	h32
	v-706
	l-34 10
	l-180 50
	v-290
	m0 592
	v-190
	l182 -52
	v188"/>
<use id="nt0" transform="translate(-3,5) scale(0.018)"
	xlink:href="#unat"/>
</defs>
<use x="469.23" y="84.01" xlink:href="#nt0"/>
<path d="M474.73 84.01v24.00" stroke="currentColor" fill="none"/>
<path fill="currentColor"
	d="M474.73 108.01c0.6 -5.6 9.6 -9 5.6 -18.4
	c1.6 6 -1.3 11.6 -5.6 12.8
"/>
<use x="500.13" y="90.01" xlink:href="#hl"/>
<use x="500.13" y="87.01" xlink:href="#hd"/>
<path d="M496.63 87.01v21.00" stroke="currentColor" fill="none"/>
<use x="537.33" y="93.01" xlink:href="#hd"/>
<path d="M533.83 93.01v20.00" stroke="currentColor" fill="none"/>
<path fill="currentColor"
	d="M533.83 113.01c0.6 -5.6 9.6 -9 5.6 -18.4
	c1.6 6 -1.3 11.6 -5.6 12.8
"/>
<use x="559.23" y="90.01" xlink:href="#hl"/>
<use x="559.23" y="90.01" xlink:href="#hd"/>
<path d="M555.73 90.01v20.00" stroke="currentColor" fill="none"/>
<path fill="currentColor"
	d="M555.73 110.01c0.6 -5.6 9.6 -9 5.6 -18.4
	c1.6 6 -1.3 11.6 -5.6 12.8
"/>
<use x="581.13" y="90.01" xlink:href="#hl"/>
<use x="581.13" y="87.01" xlink:href="#hd"/>
<path d="M577.63 87.01v21.00" stroke="currentColor" fill="none"/>
<path fill="currentColor"
	d="M577.63 108.01c0.6 -5.6 9.6 -9 5.6 -18.4
	c1.6 6 -1.3 11.6 -5.6 12.8
"/>
<use x="603.53" y="96.01" xlink:href="#hd"/>
<use x="594.53" y="96.01" xlink:href="#sh0"/>
<path d="M600.03 96.01v20.00" stroke="currentColor" fill="none"/>
<path fill="currentColor"
	d="M600.03 116.01c0.6 -5.6 9.6 -9 5.6 -18.4
	c1.6 6 -1.3 11.6 -5.6 12.8
"/>
<use x="625.93" y="90.01" xlink:href="#hl"/>
<use x="625.93" y="84.01" xlink:href="#hl"/>
<use x="625.93" y="81.01" xlink:href="#hd"/>
<use x="616.93" y="81.01" xlink:href="#sh0"/>
<path d="M622.43 81.01v27.00" stroke="currentColor" fill="none"/>
<path fill="currentColor"
	d="M622.43 108.01c0.6 -5.6 9.6 -9 5.6 -18.4
	c1.6 6 -1.3 11.6 -5.6 12.8
"/>
<use x="648.23" y="90.01" xlink:href="#hl"/>
<use x="648.23" y="84.01" xlink:href="#hl"/>
<use x="648.23" y="78.01" xlink:href="#hl"/>
<use x="648.23" y="75.01" xlink:href="#hd"/>
<use x="639.23" y="75.01" xlink:href="#sh0"/>
<path d="M644.73 75.01v33.00" stroke="currentColor" fill="none"/>
<path fill="currentColor"
	d="M644.73 108.01c0.6 -5.6 9.6 -9 5.6 -18.4
	c1.6 6 -1.3 11.6 -5.6 12.8
"/>
<use x="670.23" y="90.01" xlink:href="#hl"/>
<use x="670.23" y="87.01" xlink:href="#hd"/>
<path d="M666.73 87.01v21.00" stroke="currentColor" fill="none"/>
</g>
</svg>
