<?xml version="1.0" standalone="no"?>
<!DOCTYPE svg PUBLIC "-//W3C//DTD SVG 1.1//EN"
	"http://www.w3.org/Graphics/SVG/1.1/DTD/svg11.dtd">
<svg xmlns="http://www.w3.org/2000/svg" version="1.1"
	xmlns:xlink="http://www.w3.org/1999/xlink"
	xml:space='preserve' color="black"
	width="7.38in" height="1.36in" viewBox="0 0 531 98">
<title>8739.abc (8739) tune 1</title>
<!-- Creator: abcm2ps-7.8.14 -->
<!-- CreationDate: Mar 13, 2016 18:54 -->
<!-- CommandLine: -qxg 8739.abc -O ../svgs/8739.svg -->
<g transform="scale(0.750)" stroke-width="0.70" font-family="Times" font-size="20.00">
<text x="354.13" y="21.67" text-anchor="middle">8739.  Symphony No. 2 in D, Op. 73, 1st. Mvt. - Coda</text>
</g>
<g transform="scale(0.750)" stroke-width="0.70" font-family="Times" font-size="14.00" font-style="italic">
<text x="694.93" y="45.34" text-anchor="end">Johannes Brahms</text>
</g>
<g transform="scale(0.525)" stroke-width="0.70" font-family="Times" font-size="14.00" font-style="italic">
<defs>
<ellipse id="hd" rx="4.1" ry="2.9"
	transform="rotate(-20)" fill="currentColor"/>
</defs>
<use x="114.90" y="94.16" xlink:href="#hd"/>
<path d="M118.40 94.16v-20.00" stroke="currentColor" fill="none"/>
</g>
<g transform="scale(0.750)" stroke-width="0.70" font-family="Times" font-size="15.00" font-weight="bold">
<text x="88.13" y="68.01">= 120</text>
<path stroke="currentColor" fill="none"
	d="M186.33 108.01v-24.00"/>
<path stroke="currentColor" fill="none"
	d="M268.03 108.01v-24.00"/>
<path stroke="currentColor" fill="none"
	d="M387.03 108.01v-24.00"/>
<path stroke="currentColor" fill="none"
	d="M468.63 108.01v-24.00"/>
<path stroke="currentColor" fill="none"
	d="M517.23 108.01v-24.00"/>
<path stroke="currentColor" fill="none"
	d="M606.53 108.01v-24.00"/>
<path stroke="currentColor" fill="none"
	d="M694.93 108.01v-24.00"/>
<path stroke="currentColor" fill="none"
	d="M13.33 108.01h681.60m-681.60 -6h681.60m-681.60 -6h681.60m-681.60 -6h681.60m-681.60 -6h681.60"/>
<defs>
<path id="utclef" fill="currentColor" d="m-50 -90
	c-72 -41 -72 -158 52 -188
	c150 -10 220 188 90 256
	c-114 52 -275 0 -293 -136
	c-15 -181 93 -229 220 -334
	c88 -87 79 -133 62 -210
	c-51 33 -94 105 -89 186
	c17 267 36 374 49 574
	c6 96 -19 134 -77 135
	c-80 1 -126 -93 -61 -133
	c85 -41 133 101 31 105
	c23 17 92 37 90 -92
	c-10 -223 -39 -342 -50 -617
	c0 -90 0 -162 96 -232
	c56 72 63 230 22 289
	c-74 106 -257 168 -255 316
	c9 153 148 185 252 133
	c86 -65 29 -192 -80 -176
	c-71 12 -105 67 -59 124"/>
<use id="tclef" transform="scale(0.045)"
	xlink:href="#utclef"/>
</defs>
<use x="25.33" y="108.01" xlink:href="#tclef"/>
<defs>
<path id="usharp" fill="currentColor" d="
	m136 -702
	v890
	h32
	v-890
	m128 840
	h32
	v-888
	h-32
	m-232 286
	v116
	l338 -96
	v-116
	m-338 442
	v116
	l338 -98
	v-114"/>
<use id="sh0" transform="translate(-4,5) scale(0.018)"
	xlink:href="#usharp"/>
</defs>
<use x="40.33" y="84.01" xlink:href="#sh0"/>
<use x="45.83" y="93.01" xlink:href="#sh0"/>
<g font-family="serif" font-size="16" font-weight="bold" font-style="normal"
	transform="translate(61.83,108.01) scale(1.2,1)">
	<text y="-1" text-anchor="middle">4</text>
	<text y="-13" text-anchor="middle">3</text>
</g>
<path fill="currentColor"
	d="M76.03 99.01l36.70 0.00v-3.20l-36.70 -0.00"/>
<defs>
<path id="hl" stroke="currentColor" d="m-6 0h12"/>
</defs>
<use x="79.83" y="78.01" xlink:href="#hl"/>
<use x="79.83" y="78.01" xlink:href="#hd"/>
<path d="M76.33 78.01v20.00" stroke="currentColor" fill="none"/>
<use x="98.33" y="81.01" xlink:href="#hd"/>
<use x="89.33" y="81.01" xlink:href="#sh0"/>
<path d="M94.83 81.01v17.00" stroke="currentColor" fill="none"/>
<use x="115.83" y="78.01" xlink:href="#hl"/>
<use x="115.83" y="78.01" xlink:href="#hd"/>
<path d="M112.33 78.01v20.00" stroke="currentColor" fill="none"/>
<path fill="currentColor"
	d="M131.43 96.21l36.00 0.00v-3.20l-36.00 -0.00"/>
<use x="135.33" y="78.01" xlink:href="#hl"/>
<use x="135.33" y="72.01" xlink:href="#hl"/>
<use x="135.33" y="69.01" xlink:href="#hd"/>
<path d="M131.83 69.01v26.20" stroke="currentColor" fill="none"/>
<use x="152.93" y="78.01" xlink:href="#hl"/>
<use x="152.93" y="72.01" xlink:href="#hl"/>
<use x="152.93" y="72.01" xlink:href="#hd"/>
<path d="M149.43 72.01v23.20" stroke="currentColor" fill="none"/>
<use x="170.63" y="78.01" xlink:href="#hl"/>
<use x="170.63" y="72.01" xlink:href="#hl"/>
<use x="170.63" y="69.01" xlink:href="#hd"/>
<path d="M167.13 69.01v26.20" stroke="currentColor" fill="none"/>
<use x="198.83" y="78.01" xlink:href="#hl"/>
<use x="198.83" y="72.01" xlink:href="#hl"/>
<use x="198.83" y="66.01" xlink:href="#hl"/>
<use x="198.83" y="63.01" xlink:href="#hd"/>
<path d="M195.33 63.01v33.00" stroke="currentColor" fill="none"/>
<path fill="currentColor"
	d="M195.33 96.01c0.6 -5.6 9.6 -9 5.6 -18.4
	c1.6 6 -1.3 11.6 -5.6 12.8
"/>
<defs>
<rect id="r2" fill="currentColor"
	x="-3.5" y="-3" width="7" height="3"/>
</defs>
<use x="218.23" y="96.01" xlink:href="#r2"/>
<defs>
<path id="r8e" fill="currentColor" d="m 0 0
	c-1.5 1.5 -2.4 2 -3.6 2
	c2.4 -2.8 -2.8 -4 -2.8 -1.2
	c0 2.7 4.3 2.4 5.9 0.6"/>
<g id="r8">
	<path d="m3.3 -4l-3.4 9.6" stroke="currentColor" fill="none"/>
	<use x="3.4" y="-4" xlink:href="#r8e"/>
</g>
</defs>
<use x="252.23" y="96.01" xlink:href="#r8"/>
<path fill="currentColor"
	d="M276.63 99.01l36.70 0.00v-3.20l-36.70 -0.00"/>
<use x="280.53" y="78.01" xlink:href="#hl"/>
<use x="280.53" y="78.01" xlink:href="#hd"/>
<path d="M277.03 78.01v20.00" stroke="currentColor" fill="none"/>
<use x="298.93" y="81.01" xlink:href="#hd"/>
<use x="289.93" y="81.01" xlink:href="#sh0"/>
<path d="M295.43 81.01v17.00" stroke="currentColor" fill="none"/>
<use x="316.43" y="78.01" xlink:href="#hl"/>
<use x="316.43" y="78.01" xlink:href="#hd"/>
<path d="M312.93 78.01v20.00" stroke="currentColor" fill="none"/>
<path fill="currentColor"
	d="M332.13 96.21l36.00 0.00v-3.20l-36.00 -0.00"/>
<use x="335.93" y="78.01" xlink:href="#hl"/>
<use x="335.93" y="72.01" xlink:href="#hl"/>
<use x="335.93" y="69.01" xlink:href="#hd"/>
<path d="M332.43 69.01v26.20" stroke="currentColor" fill="none"/>
<use x="353.63" y="78.01" xlink:href="#hl"/>
<use x="353.63" y="72.01" xlink:href="#hl"/>
<use x="353.63" y="72.01" xlink:href="#hd"/>
<path d="M350.13 72.01v23.20" stroke="currentColor" fill="none"/>
<use x="371.23" y="78.01" xlink:href="#hl"/>
<use x="371.23" y="72.01" xlink:href="#hl"/>
<use x="371.23" y="69.01" xlink:href="#hd"/>
<path d="M367.73 69.01v26.20" stroke="currentColor" fill="none"/>
<use x="399.53" y="78.01" xlink:href="#hl"/>
<use x="399.53" y="72.01" xlink:href="#hl"/>
<use x="399.53" y="66.01" xlink:href="#hl"/>
<use x="399.53" y="63.01" xlink:href="#hd"/>
<path d="M396.03 63.01v33.00" stroke="currentColor" fill="none"/>
<path fill="currentColor"
	d="M396.03 96.01c0.6 -5.6 9.6 -9 5.6 -18.4
	c1.6 6 -1.3 11.6 -5.6 12.8
"/>
<use x="418.83" y="96.01" xlink:href="#r2"/>
<use x="452.93" y="96.01" xlink:href="#r8"/>
<defs>
<rect id="r1" fill="currentColor"
	x="-3.5" y="-6" width="7" height="3"/>
</defs>
<use x="492.93" y="96.01" xlink:href="#r1"/>
<use x="529.73" y="78.01" xlink:href="#hl"/>
<use x="529.73" y="75.01" xlink:href="#hd"/>
<path d="M526.23 75.01v21.00" stroke="currentColor" fill="none"/>
<use x="557.63" y="78.01" xlink:href="#hl"/>
<use x="557.63" y="78.01" xlink:href="#hd"/>
<use x="548.63" y="78.01" xlink:href="#sh0"/>
<path d="M554.13 78.01v20.00" stroke="currentColor" fill="none"/>
<use x="584.73" y="78.01" xlink:href="#hl"/>
<use x="584.73" y="75.01" xlink:href="#hd"/>
<path d="M581.23 75.01v21.00" stroke="currentColor" fill="none"/>
<use x="619.03" y="78.01" xlink:href="#hl"/>
<use x="619.03" y="72.01" xlink:href="#hl"/>
<use x="619.03" y="66.01" xlink:href="#hl"/>
<use x="619.03" y="66.01" xlink:href="#hd"/>
<path d="M615.53 66.01v30.00" stroke="currentColor" fill="none"/>
<use x="646.03" y="78.01" xlink:href="#hl"/>
<use x="646.03" y="72.01" xlink:href="#hl"/>
<use x="646.03" y="69.01" xlink:href="#hd"/>
<path d="M642.53 69.01v27.00" stroke="currentColor" fill="none"/>
<use x="673.13" y="78.01" xlink:href="#hl"/>
<use x="673.13" y="75.01" xlink:href="#hd"/>
<path d="M669.63 75.01v21.00" stroke="currentColor" fill="none"/>
</g>
</svg>
