<?xml version="1.0" standalone="no"?>
<!DOCTYPE svg PUBLIC "-//W3C//DTD SVG 1.1//EN"
	"http://www.w3.org/Graphics/SVG/1.1/DTD/svg11.dtd">
<svg xmlns="http://www.w3.org/2000/svg" version="1.1"
	xmlns:xlink="http://www.w3.org/1999/xlink"
	xml:space='preserve' color="black"
	width="7.38in" height="1.40in" viewBox="0 0 531 101">
<title>8787.abc (8787) tune 1</title>
<!-- Creator: abcm2ps-7.8.14 -->
<!-- CreationDate: Mar 13, 2016 18:54 -->
<!-- CommandLine: -qxg 8787.abc -O ../svgs/8787.svg -->
<g transform="scale(0.750)" stroke-width="0.70" font-family="Times" font-size="20.00">
<text x="354.13" y="21.67" text-anchor="middle">8787.  Symphony No. 4 in E Minor, Op. 98, 4th. Mvt. - 6th. Theme</text>
</g>
<g transform="scale(0.750)" stroke-width="0.70" font-family="Times" font-size="14.00" font-style="italic">
<text x="694.93" y="45.34" text-anchor="end">Johannes Brahms</text>
</g>
<g transform="scale(0.525)" stroke-width="0.70" font-family="Times" font-size="14.00" font-style="italic">
<defs>
<ellipse id="hd" rx="4.1" ry="2.9"
	transform="rotate(-20)" fill="currentColor"/>
</defs>
<use x="131.33" y="94.16" xlink:href="#hd"/>
<path d="M134.83 94.16v-20.00" stroke="currentColor" fill="none"/>
</g>
<g transform="scale(0.750)" stroke-width="0.70" font-family="Times" font-size="15.00" font-weight="bold">
<text x="99.63" y="68.01">= 120</text>
<path stroke="currentColor" fill="none"
	d="M252.33 111.01v-24.00"/>
<path stroke="currentColor" fill="none"
	d="M403.03 111.01v-24.00"/>
<path stroke="currentColor" fill="none"
	d="M577.13 111.01v-24.00"/>
<path stroke="currentColor" fill="none"
	d="M13.33 111.01h681.60m-681.60 -6h681.60m-681.60 -6h681.60m-681.60 -6h681.60m-681.60 -6h681.60"/>
<defs>
<path id="utclef" fill="currentColor" d="m-50 -90
	c-72 -41 -72 -158 52 -188
	c150 -10 220 188 90 256
	c-114 52 -275 0 -293 -136
	c-15 -181 93 -229 220 -334
	c88 -87 79 -133 62 -210
	c-51 33 -94 105 -89 186
	c17 267 36 374 49 574
	c6 96 -19 134 -77 135
	c-80 1 -126 -93 -61 -133
	c85 -41 133 101 31 105
	c23 17 92 37 90 -92
	c-10 -223 -39 -342 -50 -617
	c0 -90 0 -162 96 -232
	c56 72 63 230 22 289
	c-74 106 -257 168 -255 316
	c9 153 148 185 252 133
	c86 -65 29 -192 -80 -176
	c-71 12 -105 67 -59 124"/>
<use id="tclef" transform="scale(0.045)"
	xlink:href="#utclef"/>
</defs>
<use x="25.33" y="111.01" xlink:href="#tclef"/>
<defs>
<path id="usharp" fill="currentColor" d="
	m136 -702
	v890
	h32
	v-890
	m128 840
	h32
	v-888
	h-32
	m-232 286
	v116
	l338 -96
	v-116
	m-338 442
	v116
	l338 -98
	v-114"/>
<use id="sh0" transform="translate(-4,5) scale(0.018)"
	xlink:href="#usharp"/>
</defs>
<use x="40.33" y="87.01" xlink:href="#sh0"/>
<use x="45.83" y="96.01" xlink:href="#sh0"/>
<use x="51.33" y="84.01" xlink:href="#sh0"/>
<use x="56.83" y="93.01" xlink:href="#sh0"/>
<g font-family="serif" font-size="16" font-weight="bold" font-style="normal"
	transform="translate(72.83,111.01) scale(1.2,1)">
	<text y="-1" text-anchor="middle">2</text>
	<text y="-13" text-anchor="middle">3</text>
</g>
<defs>
<path id="Hd" fill="currentColor" d="m3 -1.6
	c-1 -1.8 -7 1.4 -6 3.2
	c1 1.8 7 -1.4 6 -3.2
	m0.5 -0.3
	c2 3.8 -5 7.6 -7 3.8
	c-2 -3.8 5 -7.6 7 -3.8"/>
</defs>
<use x="91.33" y="84.01" xlink:href="#Hd"/>
<path d="M87.83 84.01v20.00" stroke="currentColor" fill="none"/>
<defs>
<path id="hl" stroke="currentColor" d="m-6 0h12"/>
</defs>
<use x="140.53" y="81.01" xlink:href="#hl"/>
<use x="140.53" y="78.01" xlink:href="#Hd"/>
<path d="M137.03 78.01v21.00" stroke="currentColor" fill="none"/>
<defs>
<path id="r4" fill="currentColor" d="m-1 -8.5
	l3.6 5.1 -2.1 5.2 2.2 4.3
	c-2.6 -2.3 -5.1 0 -2.4 2.6
	c-4.8 -3 -1.5 -6.9 1.4 -4.1
	l-3.1 -4.5 1.9 -5.1 -1.5 -3.5"/>
</defs>
<use x="189.63" y="99.01" xlink:href="#r4"/>
<use x="224.43" y="81.01" xlink:href="#hl"/>
<use x="224.43" y="75.01" xlink:href="#hl"/>
<use x="224.43" y="75.01" xlink:href="#hd"/>
<path d="M220.93 75.01v24.00" stroke="currentColor" fill="none"/>
<use x="265.33" y="81.01" xlink:href="#hl"/>
<use x="265.33" y="75.01" xlink:href="#hl"/>
<use x="265.33" y="75.01" xlink:href="#Hd"/>
<path d="M261.83 75.01v24.00" stroke="currentColor" fill="none"/>
<use x="314.53" y="81.01" xlink:href="#hl"/>
<use x="314.53" y="75.01" xlink:href="#hl"/>
<use x="314.53" y="72.01" xlink:href="#Hd"/>
<path d="M311.03 72.01v27.00" stroke="currentColor" fill="none"/>
<defs>
<rect id="r2" fill="currentColor"
	x="-3.5" y="-3" width="7" height="3"/>
</defs>
<use x="363.73" y="99.01" xlink:href="#r2"/>
<use x="416.03" y="81.01" xlink:href="#hl"/>
<use x="416.03" y="75.01" xlink:href="#hl"/>
<use x="416.03" y="72.01" xlink:href="#Hd"/>
<path d="M412.53 72.01v27.00" stroke="currentColor" fill="none"/>
<use x="465.23" y="81.01" xlink:href="#hl"/>
<use x="465.23" y="75.01" xlink:href="#hl"/>
<use x="465.23" y="69.01" xlink:href="#hl"/>
<use x="465.23" y="69.01" xlink:href="#Hd"/>
<path d="M461.73 69.01v30.00" stroke="currentColor" fill="none"/>
<use x="514.43" y="99.01" xlink:href="#r4"/>
<use x="549.23" y="81.01" xlink:href="#hl"/>
<use x="549.23" y="78.01" xlink:href="#hd"/>
<path d="M545.73 78.01v21.00" stroke="currentColor" fill="none"/>
<use x="596.63" y="81.01" xlink:href="#hl"/>
<use x="596.63" y="75.01" xlink:href="#hl"/>
<use x="596.63" y="75.01" xlink:href="#Hd"/>
<defs>
<path id="unat" fill="currentColor" d="
	m96 -750
	h-32
	v716
	l32 -8
	l182 -54
	v282
	h32
	v-706
	l-34 10
	l-180 50
	v-290
	m0 592
	v-190
	l182 -52
	v188"/>
<use id="nt0" transform="translate(-3,5) scale(0.018)"
	xlink:href="#unat"/>
</defs>
<use x="586.63" y="75.01" xlink:href="#nt0"/>
<path d="M593.13 75.01v24.00" stroke="currentColor" fill="none"/>
<use x="646.03" y="81.01" xlink:href="#hl"/>
<use x="646.03" y="75.01" xlink:href="#hl"/>
<use x="646.03" y="75.01" xlink:href="#Hd"/>
<use x="636.03" y="75.01" xlink:href="#sh0"/>
<path d="M642.53 75.01v24.00" stroke="currentColor" fill="none"/>
</g>
</svg>
