<?xml version="1.0" standalone="no"?>
<!DOCTYPE svg PUBLIC "-//W3C//DTD SVG 1.1//EN"
	"http://www.w3.org/Graphics/SVG/1.1/DTD/svg11.dtd">
<svg xmlns="http://www.w3.org/2000/svg" version="1.1"
	xmlns:xlink="http://www.w3.org/1999/xlink"
	xml:space='preserve' color="black"
	width="7.38in" height="1.49in" viewBox="0 0 531 107">
<title>8794.abc (8794) tune 1</title>
<!-- Creator: abcm2ps-7.8.14 -->
<!-- CreationDate: Mar 13, 2016 18:54 -->
<!-- CommandLine: -qxg 8794.abc -O ../svgs/8794.svg -->
<g transform="scale(0.750)" stroke-width="0.70" font-family="Times" font-size="20.00">
<text x="354.13" y="21.67" text-anchor="middle">8794.  Trio in A Minor, Op. 114, 4th. Mvt. - 2nd. Theme</text>
</g>
<g transform="scale(0.750)" stroke-width="0.70" font-family="Times" font-size="14.00" font-style="italic">
<text x="694.93" y="45.34" text-anchor="end">Johannes Brahms</text>
</g>
<g transform="scale(0.525)" stroke-width="0.70" font-family="Times" font-size="14.00" font-style="italic">
<defs>
<ellipse id="hd" rx="4.1" ry="2.9"
	transform="rotate(-20)" fill="currentColor"/>
</defs>
<use x="89.19" y="94.16" xlink:href="#hd"/>
<path d="M92.69 94.16v-20.00" stroke="currentColor" fill="none"/>
</g>
<g transform="scale(0.750)" stroke-width="0.70" font-family="Times" font-size="15.00" font-weight="bold">
<text x="70.13" y="68.01">= 120</text>
<path stroke="currentColor" fill="none"
	d="M173.83 120.01v-24.00"/>
<path stroke="currentColor" fill="none"
	d="M299.93 120.01v-24.00"/>
<path stroke="currentColor" fill="none"
	d="M426.13 120.01v-24.00"/>
<path stroke="currentColor" fill="none"
	d="M552.23 120.01v-24.00"/>
<path stroke="currentColor" fill="none"
	d="M13.33 120.01h538.90m-538.90 -6h538.90m-538.90 -6h538.90m-538.90 -6h538.90m-538.90 -6h538.90"/>
<defs>
<path id="utclef" fill="currentColor" d="m-50 -90
	c-72 -41 -72 -158 52 -188
	c150 -10 220 188 90 256
	c-114 52 -275 0 -293 -136
	c-15 -181 93 -229 220 -334
	c88 -87 79 -133 62 -210
	c-51 33 -94 105 -89 186
	c17 267 36 374 49 574
	c6 96 -19 134 -77 135
	c-80 1 -126 -93 -61 -133
	c85 -41 133 101 31 105
	c23 17 92 37 90 -92
	c-10 -223 -39 -342 -50 -617
	c0 -90 0 -162 96 -232
	c56 72 63 230 22 289
	c-74 106 -257 168 -255 316
	c9 153 148 185 252 133
	c86 -65 29 -192 -80 -176
	c-71 12 -105 67 -59 124"/>
<use id="tclef" transform="scale(0.045)"
	xlink:href="#utclef"/>
</defs>
<use x="25.33" y="120.01" xlink:href="#tclef"/>
<g font-family="serif" font-size="16" font-weight="bold" font-style="normal"
	transform="translate(43.83,120.01) scale(1.2,1)">
	<text y="-1" text-anchor="middle">4</text>
	<text y="-13" text-anchor="middle">2</text>
</g>
<defs>
<path id="hl" stroke="currentColor" d="m-6 0h12"/>
</defs>
<use x="61.83" y="90.01" xlink:href="#hl"/>
<use x="61.83" y="84.01" xlink:href="#hl"/>
<use x="61.83" y="78.01" xlink:href="#hl"/>
<use x="61.83" y="78.01" xlink:href="#hd"/>
<path d="M58.33 78.01v30.00" stroke="currentColor" fill="none"/>
<path fill="currentColor"
	d="M98.03 108.21l18.70 0.00v-3.20l-18.70 -0.00"/>
<path fill="currentColor"
	d="M98.33 103.21l18.00 0.00v-3.20l-18.00 -0.00"/>
<use x="101.83" y="90.01" xlink:href="#hl"/>
<use x="101.83" y="84.01" xlink:href="#hl"/>
<use x="101.83" y="81.01" xlink:href="#hd"/>
<path d="M98.33 81.01v26.20" stroke="currentColor" fill="none"/>
<use x="119.83" y="90.01" xlink:href="#hl"/>
<use x="119.83" y="84.01" xlink:href="#hl"/>
<use x="119.83" y="84.01" xlink:href="#hd"/>
<defs>
<path id="usharp" fill="currentColor" d="
	m136 -702
	v890
	h32
	v-890
	m128 840
	h32
	v-888
	h-32
	m-232 286
	v116
	l338 -96
	v-116
	m-338 442
	v116
	l338 -98
	v-114"/>
<use id="sh0" transform="translate(-4,5) scale(0.018)"
	xlink:href="#usharp"/>
</defs>
<use x="110.83" y="84.01" xlink:href="#sh0"/>
<path d="M116.33 84.01v23.20" stroke="currentColor" fill="none"/>
<path fill="currentColor"
	d="M136.03 110.01l18.70 0.00v-3.20l-18.70 -0.00"/>
<path fill="currentColor"
	d="M136.33 105.01l18.00 0.00v-3.20l-18.00 -0.00"/>
<use x="139.83" y="90.01" xlink:href="#hl"/>
<use x="139.83" y="87.01" xlink:href="#hd"/>
<path d="M136.33 87.01v22.00" stroke="currentColor" fill="none"/>
<use x="157.83" y="90.01" xlink:href="#hl"/>
<use x="157.83" y="84.01" xlink:href="#hl"/>
<use x="157.83" y="81.01" xlink:href="#hd"/>
<path d="M154.33 81.01v28.00" stroke="currentColor" fill="none"/>
<use x="187.93" y="90.01" xlink:href="#hl"/>
<use x="187.93" y="84.01" xlink:href="#hl"/>
<use x="187.93" y="78.01" xlink:href="#hl"/>
<use x="187.93" y="78.01" xlink:href="#hd"/>
<path d="M184.43 78.01v30.00" stroke="currentColor" fill="none"/>
<path fill="currentColor"
	d="M224.13 110.01l18.70 0.00v-3.20l-18.70 -0.00"/>
<path fill="currentColor"
	d="M224.43 105.01l18.00 0.00v-3.20l-18.00 -0.00"/>
<use x="227.93" y="90.01" xlink:href="#hl"/>
<use x="227.93" y="84.01" xlink:href="#hl"/>
<use x="227.93" y="84.01" xlink:href="#hd"/>
<use x="218.93" y="84.01" xlink:href="#sh0"/>
<path d="M224.43 84.01v25.00" stroke="currentColor" fill="none"/>
<use x="245.93" y="90.01" xlink:href="#hl"/>
<use x="245.93" y="87.01" xlink:href="#hd"/>
<path d="M242.43 87.01v22.00" stroke="currentColor" fill="none"/>
<path fill="currentColor"
	d="M262.13 112.31l18.70 -2.90v-3.20l-18.70 2.90"/>
<path fill="currentColor"
	d="M262.43 107.21l18.00 -2.80v-3.20l-18.00 2.80"/>
<use x="265.93" y="90.01" xlink:href="#hl"/>
<use x="265.93" y="90.01" xlink:href="#hd"/>
<path d="M262.43 90.01v21.20" stroke="currentColor" fill="none"/>
<use x="283.93" y="90.01" xlink:href="#hl"/>
<use x="283.93" y="84.01" xlink:href="#hl"/>
<use x="283.93" y="84.01" xlink:href="#hd"/>
<use x="274.93" y="84.01" xlink:href="#sh0"/>
<path d="M280.43 84.01v24.40" stroke="currentColor" fill="none"/>
<use x="314.13" y="90.01" xlink:href="#hl"/>
<use x="314.13" y="84.01" xlink:href="#hl"/>
<use x="314.13" y="78.01" xlink:href="#hl"/>
<use x="314.13" y="78.01" xlink:href="#hd"/>
<path d="M310.63 78.01v30.00" stroke="currentColor" fill="none"/>
<path fill="currentColor"
	d="M350.33 108.21l18.70 0.00v-3.20l-18.70 -0.00"/>
<path fill="currentColor"
	d="M350.63 103.21l18.00 0.00v-3.20l-18.00 -0.00"/>
<use x="354.13" y="90.01" xlink:href="#hl"/>
<use x="354.13" y="84.01" xlink:href="#hl"/>
<use x="354.13" y="81.01" xlink:href="#hd"/>
<path d="M350.63 81.01v26.20" stroke="currentColor" fill="none"/>
<use x="372.13" y="90.01" xlink:href="#hl"/>
<use x="372.13" y="84.01" xlink:href="#hl"/>
<use x="372.13" y="84.01" xlink:href="#hd"/>
<use x="363.13" y="84.01" xlink:href="#sh0"/>
<path d="M368.63 84.01v23.20" stroke="currentColor" fill="none"/>
<path fill="currentColor"
	d="M388.33 110.01l18.70 0.00v-3.20l-18.70 -0.00"/>
<path fill="currentColor"
	d="M388.63 105.01l18.00 0.00v-3.20l-18.00 -0.00"/>
<use x="392.13" y="90.01" xlink:href="#hl"/>
<use x="392.13" y="87.01" xlink:href="#hd"/>
<path d="M388.63 87.01v22.00" stroke="currentColor" fill="none"/>
<use x="410.13" y="90.01" xlink:href="#hl"/>
<use x="410.13" y="84.01" xlink:href="#hl"/>
<use x="410.13" y="81.01" xlink:href="#hd"/>
<path d="M406.63 81.01v28.00" stroke="currentColor" fill="none"/>
<use x="440.23" y="90.01" xlink:href="#hl"/>
<use x="440.23" y="84.01" xlink:href="#hl"/>
<use x="440.23" y="78.01" xlink:href="#hl"/>
<use x="440.23" y="72.01" xlink:href="#hl"/>
<use x="440.23" y="69.01" xlink:href="#hd"/>
<path d="M436.73 69.01v39.00" stroke="currentColor" fill="none"/>
<path fill="currentColor"
	d="M476.43 110.01l18.70 0.00v-3.20l-18.70 -0.00"/>
<path fill="currentColor"
	d="M476.73 105.01l18.00 0.00v-3.20l-18.00 -0.00"/>
<use x="480.23" y="90.01" xlink:href="#hl"/>
<use x="480.23" y="84.01" xlink:href="#hl"/>
<use x="480.23" y="84.01" xlink:href="#hd"/>
<use x="471.23" y="84.01" xlink:href="#sh0"/>
<path d="M476.73 84.01v25.00" stroke="currentColor" fill="none"/>
<use x="498.23" y="90.01" xlink:href="#hl"/>
<use x="498.23" y="87.01" xlink:href="#hd"/>
<path d="M494.73 87.01v22.00" stroke="currentColor" fill="none"/>
<path fill="currentColor"
	d="M514.43 112.31l18.70 -2.90v-3.20l-18.70 2.90"/>
<path fill="currentColor"
	d="M514.73 107.21l18.00 -2.80v-3.20l-18.00 2.80"/>
<use x="518.23" y="90.01" xlink:href="#hl"/>
<use x="518.23" y="90.01" xlink:href="#hd"/>
<path d="M514.73 90.01v21.20" stroke="currentColor" fill="none"/>
<use x="536.23" y="90.01" xlink:href="#hl"/>
<use x="536.23" y="84.01" xlink:href="#hl"/>
<use x="536.23" y="84.01" xlink:href="#hd"/>
<use x="527.23" y="84.01" xlink:href="#sh0"/>
<path d="M532.73 84.01v24.40" stroke="currentColor" fill="none"/>
</g>
</svg>
