<?xml version="1.0" standalone="no"?>
<!DOCTYPE svg PUBLIC "-//W3C//DTD SVG 1.1//EN"
	"http://www.w3.org/Graphics/SVG/1.1/DTD/svg11.dtd">
<svg xmlns="http://www.w3.org/2000/svg" version="1.1"
	xmlns:xlink="http://www.w3.org/1999/xlink"
	xml:space='preserve' color="black"
	width="7.38in" height="1.40in" viewBox="0 0 531 101">
<title>8842.abc (8842) tune 1</title>
<!-- Creator: abcm2ps-7.8.14 -->
<!-- CreationDate: Mar 13, 2016 18:54 -->
<!-- CommandLine: -qxg 8842.abc -O ../svgs/8842.svg -->
<g transform="scale(0.750)" stroke-width="0.70" font-family="Times" font-size="20.00">
<text x="354.13" y="21.67" text-anchor="middle">8842.  Waltzes, Op. 39, No. 14</text>
</g>
<g transform="scale(0.750)" stroke-width="0.70" font-family="Times" font-size="14.00" font-style="italic">
<text x="694.93" y="45.34" text-anchor="end">Johannes Brahms</text>
</g>
<g transform="scale(0.525)" stroke-width="0.70" font-family="Times" font-size="14.00" font-style="italic">
<defs>
<ellipse id="hd" rx="4.1" ry="2.9"
	transform="rotate(-20)" fill="currentColor"/>
</defs>
<use x="138.47" y="94.16" xlink:href="#hd"/>
<path d="M141.97 94.16v-20.00" stroke="currentColor" fill="none"/>
</g>
<g transform="scale(0.750)" stroke-width="0.70" font-family="Times" font-size="15.00" font-weight="bold">
<text x="104.63" y="68.01">= 120</text>
<path stroke="currentColor" fill="none"
	d="M246.43 111.01v-24.00"/>
<path stroke="currentColor" fill="none"
	d="M377.13 111.01v-24.00"/>
<path stroke="currentColor" fill="none"
	d="M547.23 111.01v-24.00"/>
<path stroke="currentColor" fill="none"
	d="M694.93 111.01v-24.00"/>
<path stroke="currentColor" fill="none"
	d="M13.33 111.01h681.60m-681.60 -6h681.60m-681.60 -6h681.60m-681.60 -6h681.60m-681.60 -6h681.60"/>
<defs>
<path id="utclef" fill="currentColor" d="m-50 -90
	c-72 -41 -72 -158 52 -188
	c150 -10 220 188 90 256
	c-114 52 -275 0 -293 -136
	c-15 -181 93 -229 220 -334
	c88 -87 79 -133 62 -210
	c-51 33 -94 105 -89 186
	c17 267 36 374 49 574
	c6 96 -19 134 -77 135
	c-80 1 -126 -93 -61 -133
	c85 -41 133 101 31 105
	c23 17 92 37 90 -92
	c-10 -223 -39 -342 -50 -617
	c0 -90 0 -162 96 -232
	c56 72 63 230 22 289
	c-74 106 -257 168 -255 316
	c9 153 148 185 252 133
	c86 -65 29 -192 -80 -176
	c-71 12 -105 67 -59 124"/>
<use id="tclef" transform="scale(0.045)"
	xlink:href="#utclef"/>
</defs>
<use x="25.33" y="111.01" xlink:href="#tclef"/>
<defs>
<path id="usharp" fill="currentColor" d="
	m136 -702
	v890
	h32
	v-890
	m128 840
	h32
	v-888
	h-32
	m-232 286
	v116
	l338 -96
	v-116
	m-338 442
	v116
	l338 -98
	v-114"/>
<use id="sh0" transform="translate(-4,5) scale(0.018)"
	xlink:href="#usharp"/>
</defs>
<use x="40.33" y="87.01" xlink:href="#sh0"/>
<use x="45.83" y="96.01" xlink:href="#sh0"/>
<use x="51.33" y="84.01" xlink:href="#sh0"/>
<use x="56.83" y="93.01" xlink:href="#sh0"/>
<use x="62.33" y="102.01" xlink:href="#sh0"/>
<g font-family="serif" font-size="16" font-weight="bold" font-style="normal"
	transform="translate(78.33,111.01) scale(1.2,1)">
	<text y="-1" text-anchor="middle">4</text>
	<text y="-13" text-anchor="middle">3</text>
</g>
<defs>
<path id="r8e" fill="currentColor" d="m 0 0
	c-1.5 1.5 -2.4 2 -3.6 2
	c2.4 -2.8 -2.8 -4 -2.8 -1.2
	c0 2.7 4.3 2.4 5.9 0.6"/>
<g id="r32">
	<path d="m4.8 -10l-5.5 21.6" stroke="currentColor" fill="none"/>
	<use x="4.9" y="-10" xlink:href="#r8e"/>
	<use x="3.4" y="-4" xlink:href="#r8e"/>
	<use x="1.9" y="2" xlink:href="#r8e"/>
</g>
</defs>
<use x="96.33" y="99.01" xlink:href="#r32"/>
<path fill="currentColor"
	d="M106.13 100.31l20.40 2.40v-3.20l-20.40 -2.40"/>
<path fill="currentColor"
	d="M112.43 96.01l-6.00 -0.70v-3.20l6.00 0.70"/>
<defs>
<path id="hl" stroke="currentColor" d="m-6 0h12"/>
</defs>
<use x="109.93" y="81.01" xlink:href="#hl"/>
<use x="109.93" y="78.01" xlink:href="#hd"/>
<circle fill="currentColor" cx="117.93" cy="78.01" r="1.2"/>
<path d="M106.43 78.01v21.30" stroke="currentColor" fill="none"/>
<use x="129.73" y="81.01" xlink:href="#hl"/>
<use x="129.73" y="81.01" xlink:href="#hd"/>
<path d="M126.23 81.01v20.70" stroke="currentColor" fill="none"/>
<use x="156.83" y="81.01" xlink:href="#hl"/>
<use x="156.83" y="78.01" xlink:href="#hd"/>
<path d="M153.33 78.01v21.00" stroke="currentColor" fill="none"/>
<use x="191.33" y="99.01" xlink:href="#r32"/>
<path fill="currentColor"
	d="M201.13 100.31l20.40 2.40v-3.20l-20.40 -2.40"/>
<path fill="currentColor"
	d="M207.43 96.01l-6.00 -0.70v-3.20l6.00 0.70"/>
<use x="204.93" y="81.01" xlink:href="#hl"/>
<use x="204.93" y="78.01" xlink:href="#hd"/>
<circle fill="currentColor" cx="212.93" cy="78.01" r="1.2"/>
<path d="M201.43 78.01v21.30" stroke="currentColor" fill="none"/>
<use x="224.73" y="81.01" xlink:href="#hl"/>
<use x="224.73" y="81.01" xlink:href="#hd"/>
<path d="M221.23 81.01v20.70" stroke="currentColor" fill="none"/>
<path fill="currentColor"
	d="M256.23 99.21l25.10 0.00v-3.20l-25.10 -0.00"/>
<use x="260.13" y="81.01" xlink:href="#hl"/>
<use x="260.13" y="78.01" xlink:href="#hd"/>
<path d="M256.63 78.01v20.20" stroke="currentColor" fill="none"/>
<use x="284.53" y="81.01" xlink:href="#hl"/>
<use x="284.53" y="75.01" xlink:href="#hl"/>
<use x="284.53" y="75.01" xlink:href="#hd"/>
<path d="M281.03 75.01v23.20" stroke="currentColor" fill="none"/>
<use x="311.73" y="81.01" xlink:href="#hl"/>
<use x="311.73" y="75.01" xlink:href="#hl"/>
<use x="311.73" y="72.01" xlink:href="#hd"/>
<circle fill="currentColor" cx="319.73" cy="72.01" r="1.2"/>
<path d="M308.23 72.01v27.00" stroke="currentColor" fill="none"/>
<use x="355.43" y="81.01" xlink:href="#hl"/>
<use x="355.43" y="81.01" xlink:href="#hd"/>
<path d="M351.93 81.01v20.00" stroke="currentColor" fill="none"/>
<path fill="currentColor"
	d="M351.93 101.01c0.6 -5.6 9.6 -9 5.6 -18.4
	c1.6 6 -1.3 11.6 -5.6 12.8
"/>
<use x="390.73" y="99.01" xlink:href="#r32"/>
<path fill="currentColor"
	d="M400.53 123.21l121.80 0.00v-3.20l-121.80 -0.00"/>
<path fill="currentColor"
	d="M406.93 118.21l-6.00 -0.00v-3.20l6.00 0.00"/>
<path fill="currentColor"
	d="M479.33 118.21l6.00 0.00v-3.20l-6.00 -0.00"/>
<path fill="currentColor"
	d="M479.33 113.21l6.00 0.00v-3.20l-6.00 -0.00"/>
<use x="404.43" y="81.01" xlink:href="#hl"/>
<use x="404.43" y="78.01" xlink:href="#hd"/>
<circle fill="currentColor" cx="412.43" cy="78.01" r="1.2"/>
<path d="M400.93 78.01v44.20" stroke="currentColor" fill="none"/>
<use x="424.13" y="81.01" xlink:href="#hl"/>
<use x="424.13" y="81.01" xlink:href="#hd"/>
<path d="M420.63 81.01v41.20" stroke="currentColor" fill="none"/>
<use x="448.63" y="99.01" xlink:href="#r32"/>
<use x="460.83" y="81.01" xlink:href="#hl"/>
<use x="460.83" y="78.01" xlink:href="#hd"/>
<circle fill="currentColor" cx="468.83" cy="78.01" r="1.2"/>
<path d="M457.33 78.01v44.20" stroke="currentColor" fill="none"/>
<use x="488.83" y="81.01" xlink:href="#hl"/>
<use x="488.83" y="78.01" xlink:href="#hd"/>
<path d="M485.33 78.01v44.20" stroke="currentColor" fill="none"/>
<use x="501.13" y="81.01" xlink:href="#hl"/>
<use x="501.13" y="78.01" xlink:href="#hd"/>
<path d="M497.63 78.01v44.20" stroke="currentColor" fill="none"/>
<use x="525.53" y="81.01" xlink:href="#hl"/>
<use x="525.53" y="81.01" xlink:href="#hd"/>
<path d="M522.03 81.01v41.20" stroke="currentColor" fill="none"/>
<path fill="currentColor"
	d="M557.03 99.21l49.60 0.00v-3.20l-49.60 -0.00"/>
<use x="560.93" y="81.01" xlink:href="#hl"/>
<use x="560.93" y="78.01" xlink:href="#hd"/>
<path d="M557.43 78.01v20.20" stroke="currentColor" fill="none"/>
<use x="585.33" y="81.01" xlink:href="#hl"/>
<use x="585.33" y="75.01" xlink:href="#hl"/>
<use x="585.33" y="75.01" xlink:href="#hd"/>
<path d="M581.83 75.01v23.20" stroke="currentColor" fill="none"/>
<use x="609.83" y="81.01" xlink:href="#hl"/>
<use x="609.83" y="75.01" xlink:href="#hl"/>
<use x="609.83" y="72.01" xlink:href="#hd"/>
<path d="M606.33 72.01v26.20" stroke="currentColor" fill="none"/>
<use x="637.03" y="81.01" xlink:href="#hl"/>
<use x="637.03" y="75.01" xlink:href="#hl"/>
<use x="637.03" y="69.01" xlink:href="#hl"/>
<use x="637.03" y="66.01" xlink:href="#hd"/>
<defs>
<path id="unat" fill="currentColor" d="
	m96 -750
	h-32
	v716
	l32 -8
	l182 -54
	v282
	h32
	v-706
	l-34 10
	l-180 50
	v-290
	m0 592
	v-190
	l182 -52
	v188"/>
<use id="nt0" transform="translate(-3,5) scale(0.018)"
	xlink:href="#unat"/>
</defs>
<use x="628.03" y="66.01" xlink:href="#nt0"/>
<path d="M633.53 66.01v33.00" stroke="currentColor" fill="none"/>
<path fill="currentColor"
	d="M633.53 99.01c0.6 -5.6 9.6 -9 5.6 -18.4
	c1.6 6 -1.3 11.6 -5.6 12.8
"/>
<use x="664.23" y="81.01" xlink:href="#hl"/>
<use x="664.23" y="75.01" xlink:href="#hl"/>
<use x="664.23" y="69.01" xlink:href="#hl"/>
<use x="664.23" y="66.01" xlink:href="#hd"/>
<use x="655.23" y="66.01" xlink:href="#sh0"/>
<path d="M660.73 66.01v33.00" stroke="currentColor" fill="none"/>
<path fill="currentColor"
	d="M464.33 76.01c3.30 -4.88 17.66 -4.88 20.96 -0.00
	l0.00 -0.22c-3.93 -6.66 -17.03 -6.66 -20.96 0.22"/>
</g>
</svg>
