<?xml version="1.0" standalone="no"?>
<!DOCTYPE svg PUBLIC "-//W3C//DTD SVG 1.1//EN"
	"http://www.w3.org/Graphics/SVG/1.1/DTD/svg11.dtd">
<svg xmlns="http://www.w3.org/2000/svg" version="1.1"
	xmlns:xlink="http://www.w3.org/1999/xlink"
	xml:space='preserve' color="black"
	width="7.38in" height="2.80in" viewBox="0 0 531 202">
<title>8849.abc (8849) tune 1</title>
<!-- Creator: abcm2ps-7.8.14 -->
<!-- CreationDate: Mar 13, 2016 18:54 -->
<!-- CommandLine: -qxg 8849.abc -O ../svgs/8849.svg -->
<g transform="scale(0.750)" stroke-width="0.70" font-family="Times" font-size="20.00">
<text x="354.13" y="21.67" text-anchor="middle">8849.  Peter Grimes: Four Sea Interludes, Op. 33a, 4th. Interlude - Storm - 1st. Theme</text>
</g>
<g transform="scale(0.750)" stroke-width="0.70" font-family="Times" font-size="14.00" font-style="italic">
<text x="694.93" y="45.34" text-anchor="end">Benjamin Britten</text>
</g>
<g transform="scale(0.525)" stroke-width="0.70" font-family="Times" font-size="14.00" font-style="italic">
<defs>
<ellipse id="hd" rx="4.1" ry="2.9"
	transform="rotate(-20)" fill="currentColor"/>
</defs>
<use x="146.33" y="94.16" xlink:href="#hd"/>
<path d="M149.83 94.16v-20.00" stroke="currentColor" fill="none"/>
</g>
<g transform="scale(0.750)" stroke-width="0.70" font-family="Times" font-size="15.00" font-weight="bold">
<text x="110.13" y="68.01">= 120</text>
<path stroke="currentColor" fill="none"
	d="M233.33 106.01v-24.00"/>
<path stroke="currentColor" fill="none"
	d="M383.23 106.01v-24.00"/>
<path stroke="currentColor" fill="none"
	d="M13.33 106.01h681.60m-681.60 -6h681.60m-681.60 -6h681.60m-681.60 -6h681.60m-681.60 -6h681.60"/>
<defs>
<path id="utclef" fill="currentColor" d="m-50 -90
	c-72 -41 -72 -158 52 -188
	c150 -10 220 188 90 256
	c-114 52 -275 0 -293 -136
	c-15 -181 93 -229 220 -334
	c88 -87 79 -133 62 -210
	c-51 33 -94 105 -89 186
	c17 267 36 374 49 574
	c6 96 -19 134 -77 135
	c-80 1 -126 -93 -61 -133
	c85 -41 133 101 31 105
	c23 17 92 37 90 -92
	c-10 -223 -39 -342 -50 -617
	c0 -90 0 -162 96 -232
	c56 72 63 230 22 289
	c-74 106 -257 168 -255 316
	c9 153 148 185 252 133
	c86 -65 29 -192 -80 -176
	c-71 12 -105 67 -59 124"/>
<use id="tclef" transform="scale(0.045)"
	xlink:href="#utclef"/>
</defs>
<use x="25.33" y="106.01" xlink:href="#tclef"/>
<defs>
<path id="uflat" fill="currentColor" d="
	m100 -746
	h32
	v734
	l-32 4
	m32 -332
	c46 -72 152 -90 208 -20
	c100 110 -120 326 -208 348
	m0 -28
	c54 0 200 -206 130 -290
	c-50 -60 -130 -4 -130 34"/>
<use id="ft0" transform="translate(-3.5,3.5) scale(0.018)"
	xlink:href="#uflat"/>
</defs>
<use x="40.33" y="94.01" xlink:href="#ft0"/>
<use x="45.83" y="85.01" xlink:href="#ft0"/>
<use x="51.33" y="97.01" xlink:href="#ft0"/>
<use x="56.83" y="88.01" xlink:href="#ft0"/>
<use x="62.33" y="100.01" xlink:href="#ft0"/>
<use x="67.83" y="91.01" xlink:href="#ft0"/>
<g font-family="serif" font-size="16" font-weight="bold" font-style="normal"
	transform="translate(83.83,106.01) scale(1.2,1)">
	<text y="-1" text-anchor="middle">2</text>
	<text y="-13" text-anchor="middle">2</text>
</g>
<defs>
<path id="r8e" fill="currentColor" d="m 0 0
	c-1.5 1.5 -2.4 2 -3.6 2
	c2.4 -2.8 -2.8 -4 -2.8 -1.2
	c0 2.7 4.3 2.4 5.9 0.6"/>
<g id="r8">
	<path d="m3.3 -4l-3.4 9.6" stroke="currentColor" fill="none"/>
	<use x="3.4" y="-4" xlink:href="#r8e"/>
</g>
</defs>
<use x="101.83" y="94.01" xlink:href="#r8"/>
<use x="115.03" y="106.01" xlink:href="#hd"/>
<path d="M118.53 106.01v-20.00" stroke="currentColor" fill="none"/>
<path fill="currentColor"
	d="	M118.53 86.01c0.6 5.6 9.6 9 5.6 18.4
	c1.6 -6 -1.3 -11.6 -5.6 -12.8
"/>
<use x="140.53" y="106.01" xlink:href="#hd"/>
<defs>
<path id="unat" fill="currentColor" d="
	m96 -750
	h-32
	v716
	l32 -8
	l182 -54
	v282
	h32
	v-706
	l-34 10
	l-180 50
	v-290
	m0 592
	v-190
	l182 -52
	v188"/>
<use id="nt0" transform="translate(-3,5) scale(0.018)"
	xlink:href="#unat"/>
</defs>
<use x="131.53" y="106.01" xlink:href="#nt0"/>
<path d="M144.03 106.01v-20.00" stroke="currentColor" fill="none"/>
<path fill="currentColor"
	d="	M144.03 86.01c0.6 5.6 9.6 9 5.6 18.4
	c1.6 -6 -1.3 -11.6 -5.6 -12.8
"/>
<use x="166.03" y="106.01" xlink:href="#hd"/>
<use x="157.03" y="106.01" xlink:href="#ft0"/>
<path d="M169.53 106.01v-20.00" stroke="currentColor" fill="none"/>
<path fill="currentColor"
	d="	M169.53 86.01c0.6 5.6 9.6 9 5.6 18.4
	c1.6 -6 -1.3 -11.6 -5.6 -12.8
"/>
<use x="186.43" y="94.01" xlink:href="#hd"/>
<path d="M182.93 94.01v20.00" stroke="currentColor" fill="none"/>
<use x="202.63" y="94.01" xlink:href="#r8"/>
<use x="215.83" y="106.01" xlink:href="#hd"/>
<path d="M219.33 106.01v-20.00" stroke="currentColor" fill="none"/>
<path fill="currentColor"
	d="	M219.33 86.01c0.6 5.6 9.6 9 5.6 18.4
	c1.6 -6 -1.3 -11.6 -5.6 -12.8
"/>
<use x="251.83" y="106.01" xlink:href="#hd"/>
<use x="242.83" y="106.01" xlink:href="#nt0"/>
<path d="M255.33 106.01v-20.00" stroke="currentColor" fill="none"/>
<path fill="currentColor"
	d="	M255.33 86.01c0.6 5.6 9.6 9 5.6 18.4
	c1.6 -6 -1.3 -11.6 -5.6 -12.8
"/>
<use x="277.33" y="106.01" xlink:href="#hd"/>
<use x="268.33" y="106.01" xlink:href="#ft0"/>
<path d="M280.83 106.01v-20.00" stroke="currentColor" fill="none"/>
<path fill="currentColor"
	d="	M280.83 86.01c0.6 5.6 9.6 9 5.6 18.4
	c1.6 -6 -1.3 -11.6 -5.6 -12.8
"/>
<use x="297.83" y="94.01" xlink:href="#hd"/>
<path d="M294.33 94.01v20.00" stroke="currentColor" fill="none"/>
<path fill="currentColor"
	d="M294.33 114.01c0.6 -5.6 9.6 -9 5.6 -18.4
	c1.6 6 -1.3 11.6 -5.6 12.8
"/>
<use x="317.73" y="94.01" xlink:href="#hd"/>
<circle fill="currentColor" cx="325.73" cy="91.01" r="1.2"/>
<use x="308.73" y="94.01" xlink:href="#ft0"/>
<path d="M314.23 94.01v20.00" stroke="currentColor" fill="none"/>
<use x="340.23" y="106.01" xlink:href="#hd"/>
<path d="M343.73 106.01v-20.00" stroke="currentColor" fill="none"/>
<path fill="currentColor"
	d="	M343.73 86.01c0.6 5.6 9.6 9 5.6 18.4
	c1.6 -6 -1.3 -11.6 -5.6 -12.8
"/>
<use x="365.73" y="106.01" xlink:href="#hd"/>
<use x="356.73" y="106.01" xlink:href="#nt0"/>
<path d="M369.23 106.01v-20.00" stroke="currentColor" fill="none"/>
<path fill="currentColor"
	d="	M369.23 86.01c0.6 5.6 9.6 9 5.6 18.4
	c1.6 -6 -1.3 -11.6 -5.6 -12.8
"/>
<use x="401.73" y="106.01" xlink:href="#hd"/>
<use x="392.73" y="106.01" xlink:href="#ft0"/>
<path d="M405.23 106.01v-20.00" stroke="currentColor" fill="none"/>
<path fill="currentColor"
	d="	M405.23 86.01c0.6 5.6 9.6 9 5.6 18.4
	c1.6 -6 -1.3 -11.6 -5.6 -12.8
"/>
<path fill="currentColor"
	d="M430.43 69.01l37.70 0.00v3.20l-37.70 -0.00"/>
<path fill="currentColor"
	d="M430.73 74.01l37.00 0.00v3.20l-37.00 -0.00"/>
<path fill="currentColor"
	d="M430.73 79.01l37.00 0.00v3.20l-37.00 -0.00"/>
<use x="427.23" y="97.01" xlink:href="#hd"/>
<use x="418.23" y="97.01" xlink:href="#nt0"/>
<path d="M430.73 97.01v-27.00" stroke="currentColor" fill="none"/>
<use x="436.73" y="94.01" xlink:href="#hd"/>
<path d="M440.23 94.01v-24.00" stroke="currentColor" fill="none"/>
<use x="454.73" y="97.01" xlink:href="#hd"/>
<use x="445.73" y="97.01" xlink:href="#nt0"/>
<path d="M458.23 97.01v-27.00" stroke="currentColor" fill="none"/>
<use x="464.33" y="94.01" xlink:href="#hd"/>
<path d="M467.83 94.01v-24.00" stroke="currentColor" fill="none"/>
<path fill="currentColor"
	d="M485.43 69.01l37.70 0.00v3.20l-37.70 -0.00"/>
<path fill="currentColor"
	d="M485.83 74.01l37.00 0.00v3.20l-37.00 -0.00"/>
<path fill="currentColor"
	d="M485.83 79.01l37.00 0.00v3.20l-37.00 -0.00"/>
<use x="482.33" y="97.01" xlink:href="#hd"/>
<use x="473.33" y="97.01" xlink:href="#nt0"/>
<path d="M485.83 97.01v-27.00" stroke="currentColor" fill="none"/>
<use x="491.83" y="94.01" xlink:href="#hd"/>
<path d="M495.33 94.01v-24.00" stroke="currentColor" fill="none"/>
<use x="509.83" y="97.01" xlink:href="#hd"/>
<use x="500.83" y="97.01" xlink:href="#nt0"/>
<path d="M513.33 97.01v-27.00" stroke="currentColor" fill="none"/>
<use x="519.33" y="94.01" xlink:href="#hd"/>
<path d="M522.83 94.01v-24.00" stroke="currentColor" fill="none"/>
<path fill="currentColor"
	d="M540.53 69.01l37.70 0.00v3.20l-37.70 -0.00"/>
<path fill="currentColor"
	d="M540.83 74.01l37.00 0.00v3.20l-37.00 -0.00"/>
<path fill="currentColor"
	d="M540.83 79.01l37.00 0.00v3.20l-37.00 -0.00"/>
<use x="537.33" y="97.01" xlink:href="#hd"/>
<use x="528.33" y="97.01" xlink:href="#nt0"/>
<path d="M540.83 97.01v-27.00" stroke="currentColor" fill="none"/>
<use x="546.83" y="94.01" xlink:href="#hd"/>
<path d="M550.33 94.01v-24.00" stroke="currentColor" fill="none"/>
<use x="564.83" y="97.01" xlink:href="#hd"/>
<use x="555.83" y="97.01" xlink:href="#nt0"/>
<path d="M568.33 97.01v-27.00" stroke="currentColor" fill="none"/>
<use x="574.33" y="94.01" xlink:href="#hd"/>
<path d="M577.83 94.01v-24.00" stroke="currentColor" fill="none"/>
<path fill="currentColor"
	d="M595.53 69.01l37.70 0.00v3.20l-37.70 -0.00"/>
<path fill="currentColor"
	d="M595.83 74.01l37.00 0.00v3.20l-37.00 -0.00"/>
<path fill="currentColor"
	d="M595.83 79.01l37.00 0.00v3.20l-37.00 -0.00"/>
<use x="592.33" y="97.01" xlink:href="#hd"/>
<use x="583.33" y="97.01" xlink:href="#nt0"/>
<path d="M595.83 97.01v-27.00" stroke="currentColor" fill="none"/>
<use x="601.83" y="94.01" xlink:href="#hd"/>
<path d="M605.33 94.01v-24.00" stroke="currentColor" fill="none"/>
<use x="619.83" y="97.01" xlink:href="#hd"/>
<use x="610.83" y="97.01" xlink:href="#nt0"/>
<path d="M623.33 97.01v-27.00" stroke="currentColor" fill="none"/>
<use x="629.43" y="94.01" xlink:href="#hd"/>
<path d="M632.93 94.01v-24.00" stroke="currentColor" fill="none"/>
<path fill="currentColor"
	d="M650.53 69.01l37.70 0.00v3.20l-37.70 -0.00"/>
<path fill="currentColor"
	d="M650.93 74.01l37.00 0.00v3.20l-37.00 -0.00"/>
<path fill="currentColor"
	d="M650.93 79.01l37.00 0.00v3.20l-37.00 -0.00"/>
<use x="647.43" y="97.01" xlink:href="#hd"/>
<use x="638.43" y="97.01" xlink:href="#nt0"/>
<path d="M650.93 97.01v-27.00" stroke="currentColor" fill="none"/>
<use x="656.93" y="94.01" xlink:href="#hd"/>
<path d="M660.43 94.01v-24.00" stroke="currentColor" fill="none"/>
<use x="674.93" y="97.01" xlink:href="#hd"/>
<use x="665.93" y="97.01" xlink:href="#nt0"/>
<path d="M678.43 97.01v-27.00" stroke="currentColor" fill="none"/>
<use x="684.43" y="94.01" xlink:href="#hd"/>
<path d="M687.93 94.01v-24.00" stroke="currentColor" fill="none"/>
<path stroke="currentColor" fill="none"
	d="M235.53 176.01v-24.00"/>
<path stroke="currentColor" fill="none"
	d="M694.93 176.01v-24.00"/>
<path stroke="currentColor" fill="none"
	d="M13.33 176.01h681.60m-681.60 -6h681.60m-681.60 -6h681.60m-681.60 -6h681.60m-681.60 -6h681.60"/>
<use x="25.33" y="176.01" xlink:href="#tclef"/>
<use x="40.33" y="164.01" xlink:href="#ft0"/>
<use x="45.83" y="155.01" xlink:href="#ft0"/>
<use x="51.33" y="167.01" xlink:href="#ft0"/>
<use x="56.83" y="158.01" xlink:href="#ft0"/>
<use x="62.33" y="170.01" xlink:href="#ft0"/>
<use x="67.83" y="161.01" xlink:href="#ft0"/>
<path fill="currentColor"
	d="M95.03 139.01l54.90 0.00v3.20l-54.90 -0.00"/>
<path fill="currentColor"
	d="M95.33 144.01l54.20 0.00v3.20l-54.20 -0.00"/>
<path fill="currentColor"
	d="M95.33 149.01l54.20 0.00v3.20l-54.20 -0.00"/>
<use x="91.83" y="167.01" xlink:href="#hd"/>
<use x="82.83" y="167.01" xlink:href="#nt0"/>
<path d="M95.33 167.01v-27.00" stroke="currentColor" fill="none"/>
<use x="109.13" y="164.01" xlink:href="#hd"/>
<path d="M112.63 164.01v-24.00" stroke="currentColor" fill="none"/>
<use x="128.83" y="167.01" xlink:href="#hd"/>
<use x="119.83" y="167.01" xlink:href="#nt0"/>
<path d="M132.33 167.01v-27.00" stroke="currentColor" fill="none"/>
<use x="146.03" y="164.01" xlink:href="#hd"/>
<path d="M149.53 164.01v-24.00" stroke="currentColor" fill="none"/>
<path fill="currentColor"
	d="M169.13 139.01l54.90 0.00v3.20l-54.90 -0.00"/>
<path fill="currentColor"
	d="M169.43 144.01l54.20 0.00v3.20l-54.20 -0.00"/>
<path fill="currentColor"
	d="M169.43 149.01l54.20 0.00v3.20l-54.20 -0.00"/>
<use x="165.93" y="167.01" xlink:href="#hd"/>
<use x="156.93" y="167.01" xlink:href="#nt0"/>
<path d="M169.43 167.01v-27.00" stroke="currentColor" fill="none"/>
<use x="183.23" y="164.01" xlink:href="#hd"/>
<path d="M186.73 164.01v-24.00" stroke="currentColor" fill="none"/>
<use x="202.93" y="167.01" xlink:href="#hd"/>
<use x="193.93" y="167.01" xlink:href="#nt0"/>
<path d="M206.43 167.01v-27.00" stroke="currentColor" fill="none"/>
<use x="220.23" y="164.01" xlink:href="#hd"/>
<path d="M223.73 164.01v-24.00" stroke="currentColor" fill="none"/>
<path fill="currentColor"
	d="M259.13 139.01l54.90 0.00v3.20l-54.90 -0.00"/>
<path fill="currentColor"
	d="M259.43 144.01l54.20 0.00v3.20l-54.20 -0.00"/>
<path fill="currentColor"
	d="M259.43 149.01l54.20 0.00v3.20l-54.20 -0.00"/>
<use x="255.93" y="167.01" xlink:href="#hd"/>
<use x="246.93" y="167.01" xlink:href="#nt0"/>
<path d="M259.43 167.01v-27.00" stroke="currentColor" fill="none"/>
<use x="273.23" y="164.01" xlink:href="#hd"/>
<path d="M276.73 164.01v-24.00" stroke="currentColor" fill="none"/>
<use x="292.93" y="167.01" xlink:href="#hd"/>
<use x="283.93" y="167.01" xlink:href="#nt0"/>
<path d="M296.43 167.01v-27.00" stroke="currentColor" fill="none"/>
<use x="310.13" y="164.01" xlink:href="#hd"/>
<path d="M313.63 164.01v-24.00" stroke="currentColor" fill="none"/>
<use x="327.43" y="164.01" xlink:href="#r8"/>
<use x="361.93" y="176.01" xlink:href="#hd"/>
<path d="M365.43 176.01v-20.00" stroke="currentColor" fill="none"/>
<path fill="currentColor"
	d="	M365.43 156.01c0.6 5.6 9.6 9 5.6 18.4
	c1.6 -6 -1.3 -11.6 -5.6 -12.8
"/>
<use x="400.33" y="176.01" xlink:href="#hd"/>
<use x="391.33" y="176.01" xlink:href="#nt0"/>
<path d="M403.83 176.01v-20.00" stroke="currentColor" fill="none"/>
<path fill="currentColor"
	d="	M403.83 156.01c0.6 5.6 9.6 9 5.6 18.4
	c1.6 -6 -1.3 -11.6 -5.6 -12.8
"/>
<use x="438.73" y="176.01" xlink:href="#hd"/>
<use x="429.73" y="176.01" xlink:href="#ft0"/>
<path d="M442.23 176.01v-20.00" stroke="currentColor" fill="none"/>
<path fill="currentColor"
	d="	M442.23 156.01c0.6 5.6 9.6 9 5.6 18.4
	c1.6 -6 -1.3 -11.6 -5.6 -12.8
"/>
<path fill="currentColor"
	d="M480.23 139.01l54.90 0.00v3.20l-54.90 -0.00"/>
<path fill="currentColor"
	d="M480.63 144.01l54.20 0.00v3.20l-54.20 -0.00"/>
<path fill="currentColor"
	d="M480.63 149.01l54.20 0.00v3.20l-54.20 -0.00"/>
<use x="477.13" y="167.01" xlink:href="#hd"/>
<use x="468.13" y="167.01" xlink:href="#nt0"/>
<path d="M480.63 167.01v-27.00" stroke="currentColor" fill="none"/>
<use x="494.33" y="164.01" xlink:href="#hd"/>
<path d="M497.83 164.01v-24.00" stroke="currentColor" fill="none"/>
<use x="514.03" y="167.01" xlink:href="#hd"/>
<use x="505.03" y="167.01" xlink:href="#nt0"/>
<path d="M517.53 167.01v-27.00" stroke="currentColor" fill="none"/>
<use x="531.33" y="164.01" xlink:href="#hd"/>
<path d="M534.83 164.01v-24.00" stroke="currentColor" fill="none"/>
<path fill="currentColor"
	d="M554.33 139.01l54.90 0.00v3.20l-54.90 -0.00"/>
<path fill="currentColor"
	d="M554.73 144.01l54.20 0.00v3.20l-54.20 -0.00"/>
<path fill="currentColor"
	d="M554.73 149.01l54.20 0.00v3.20l-54.20 -0.00"/>
<use x="551.23" y="167.01" xlink:href="#hd"/>
<use x="542.23" y="167.01" xlink:href="#nt0"/>
<path d="M554.73 167.01v-27.00" stroke="currentColor" fill="none"/>
<use x="568.53" y="164.01" xlink:href="#hd"/>
<path d="M572.03 164.01v-24.00" stroke="currentColor" fill="none"/>
<use x="588.23" y="167.01" xlink:href="#hd"/>
<use x="579.23" y="167.01" xlink:href="#nt0"/>
<path d="M591.73 167.01v-27.00" stroke="currentColor" fill="none"/>
<use x="605.43" y="164.01" xlink:href="#hd"/>
<path d="M608.93 164.01v-24.00" stroke="currentColor" fill="none"/>
<path fill="currentColor"
	d="M628.53 139.01l54.90 0.00v3.20l-54.90 -0.00"/>
<path fill="currentColor"
	d="M628.83 144.01l54.20 0.00v3.20l-54.20 -0.00"/>
<path fill="currentColor"
	d="M628.83 149.01l54.20 0.00v3.20l-54.20 -0.00"/>
<use x="625.33" y="167.01" xlink:href="#hd"/>
<use x="616.33" y="167.01" xlink:href="#nt0"/>
<path d="M628.83 167.01v-27.00" stroke="currentColor" fill="none"/>
<use x="642.63" y="164.01" xlink:href="#hd"/>
<path d="M646.13 164.01v-24.00" stroke="currentColor" fill="none"/>
<use x="662.33" y="167.01" xlink:href="#hd"/>
<use x="653.33" y="167.01" xlink:href="#nt0"/>
<path d="M665.83 167.01v-27.00" stroke="currentColor" fill="none"/>
<use x="679.63" y="164.01" xlink:href="#hd"/>
<path d="M683.13 164.01v-24.00" stroke="currentColor" fill="none"/>
<path stroke="currentColor" fill="none"
	d="M13.33 246.01h467.00m-467.00 -6h467.00m-467.00 -6h467.00m-467.00 -6h467.00m-467.00 -6h467.00"/>
<use x="25.33" y="246.01" xlink:href="#tclef"/>
<use x="40.33" y="234.01" xlink:href="#ft0"/>
<use x="45.83" y="225.01" xlink:href="#ft0"/>
<use x="51.33" y="237.01" xlink:href="#ft0"/>
<use x="56.83" y="228.01" xlink:href="#ft0"/>
<use x="62.33" y="240.01" xlink:href="#ft0"/>
<use x="67.83" y="231.01" xlink:href="#ft0"/>
<path fill="currentColor"
	d="M95.03 209.01l57.60 0.00v3.20l-57.60 -0.00"/>
<path fill="currentColor"
	d="M95.33 214.01l56.90 0.00v3.20l-56.90 -0.00"/>
<path fill="currentColor"
	d="M95.33 219.01l56.90 0.00v3.20l-56.90 -0.00"/>
<use x="91.83" y="237.01" xlink:href="#hd"/>
<use x="82.83" y="237.01" xlink:href="#nt0"/>
<path d="M95.33 237.01v-27.00" stroke="currentColor" fill="none"/>
<use x="110.03" y="234.01" xlink:href="#hd"/>
<path d="M113.53 234.01v-24.00" stroke="currentColor" fill="none"/>
<use x="130.63" y="237.01" xlink:href="#hd"/>
<use x="121.63" y="237.01" xlink:href="#nt0"/>
<path d="M134.13 237.01v-27.00" stroke="currentColor" fill="none"/>
<use x="148.73" y="234.01" xlink:href="#hd"/>
<path d="M152.23 234.01v-24.00" stroke="currentColor" fill="none"/>
<path fill="currentColor"
	d="M172.83 209.01l57.60 0.00v3.20l-57.60 -0.00"/>
<path fill="currentColor"
	d="M173.13 214.01l56.90 0.00v3.20l-56.90 -0.00"/>
<path fill="currentColor"
	d="M173.13 219.01l56.90 0.00v3.20l-56.90 -0.00"/>
<use x="169.63" y="237.01" xlink:href="#hd"/>
<use x="160.63" y="237.01" xlink:href="#nt0"/>
<path d="M173.13 237.01v-27.00" stroke="currentColor" fill="none"/>
<use x="187.83" y="234.01" xlink:href="#hd"/>
<path d="M191.33 234.01v-24.00" stroke="currentColor" fill="none"/>
<use x="208.43" y="237.01" xlink:href="#hd"/>
<use x="199.43" y="237.01" xlink:href="#nt0"/>
<path d="M211.93 237.01v-27.00" stroke="currentColor" fill="none"/>
<use x="226.63" y="234.01" xlink:href="#hd"/>
<path d="M230.13 234.01v-24.00" stroke="currentColor" fill="none"/>
<path fill="currentColor"
	d="M250.63 209.01l57.60 0.00v3.20l-57.60 -0.00"/>
<path fill="currentColor"
	d="M251.03 214.01l56.90 0.00v3.20l-56.90 -0.00"/>
<path fill="currentColor"
	d="M251.03 219.01l56.90 0.00v3.20l-56.90 -0.00"/>
<use x="247.53" y="237.01" xlink:href="#hd"/>
<use x="238.53" y="237.01" xlink:href="#nt0"/>
<path d="M251.03 237.01v-27.00" stroke="currentColor" fill="none"/>
<use x="265.63" y="234.01" xlink:href="#hd"/>
<path d="M269.13 234.01v-24.00" stroke="currentColor" fill="none"/>
<use x="286.23" y="237.01" xlink:href="#hd"/>
<use x="277.23" y="237.01" xlink:href="#nt0"/>
<path d="M289.73 237.01v-27.00" stroke="currentColor" fill="none"/>
<use x="304.43" y="234.01" xlink:href="#hd"/>
<path d="M307.93 234.01v-24.00" stroke="currentColor" fill="none"/>
<path fill="currentColor"
	d="M328.53 209.01l57.60 0.00v3.20l-57.60 -0.00"/>
<path fill="currentColor"
	d="M328.83 214.01l56.90 0.00v3.20l-56.90 -0.00"/>
<path fill="currentColor"
	d="M328.83 219.01l56.90 0.00v3.20l-56.90 -0.00"/>
<use x="325.33" y="237.01" xlink:href="#hd"/>
<use x="316.33" y="237.01" xlink:href="#nt0"/>
<path d="M328.83 237.01v-27.00" stroke="currentColor" fill="none"/>
<use x="343.53" y="234.01" xlink:href="#hd"/>
<path d="M347.03 234.01v-24.00" stroke="currentColor" fill="none"/>
<use x="364.13" y="237.01" xlink:href="#hd"/>
<use x="355.13" y="237.01" xlink:href="#nt0"/>
<path d="M367.63 237.01v-27.00" stroke="currentColor" fill="none"/>
<use x="382.33" y="234.01" xlink:href="#hd"/>
<path d="M385.83 234.01v-24.00" stroke="currentColor" fill="none"/>
<path fill="currentColor"
	d="M406.33 209.01l57.60 0.00v3.20l-57.60 -0.00"/>
<path fill="currentColor"
	d="M406.63 214.01l56.90 0.00v3.20l-56.90 -0.00"/>
<path fill="currentColor"
	d="M406.63 219.01l56.90 0.00v3.20l-56.90 -0.00"/>
<use x="403.13" y="237.01" xlink:href="#hd"/>
<use x="394.13" y="237.01" xlink:href="#nt0"/>
<path d="M406.63 237.01v-27.00" stroke="currentColor" fill="none"/>
<use x="421.33" y="234.01" xlink:href="#hd"/>
<path d="M424.83 234.01v-24.00" stroke="currentColor" fill="none"/>
<use x="441.93" y="237.01" xlink:href="#hd"/>
<use x="432.93" y="237.01" xlink:href="#nt0"/>
<path d="M445.43 237.01v-27.00" stroke="currentColor" fill="none"/>
<use x="460.13" y="234.01" xlink:href="#hd"/>
<path d="M463.63 234.01v-24.00" stroke="currentColor" fill="none"/>
</g>
</svg>
