<?xml version="1.0" standalone="no"?>
<!DOCTYPE svg PUBLIC "-//W3C//DTD SVG 1.1//EN"
	"http://www.w3.org/Graphics/SVG/1.1/DTD/svg11.dtd">
<svg xmlns="http://www.w3.org/2000/svg" version="1.1"
	xmlns:xlink="http://www.w3.org/1999/xlink"
	xml:space='preserve' color="black"
	width="7.38in" height="1.34in" viewBox="0 0 531 97">
<title>8854.abc (8854) tune 1</title>
<!-- Creator: abcm2ps-7.8.14 -->
<!-- CreationDate: Mar 13, 2016 18:54 -->
<!-- CommandLine: -qxg 8854.abc -O ../svgs/8854.svg -->
<g transform="scale(0.750)" stroke-width="0.70" font-family="Times" font-size="20.00">
<text x="354.13" y="21.67" text-anchor="middle">8854.  Phantasy-Quartet, Oboe, Vn., Viola and Vcl., 1st. Theme</text>
</g>
<g transform="scale(0.750)" stroke-width="0.70" font-family="Times" font-size="14.00" font-style="italic">
<text x="694.93" y="45.34" text-anchor="end">Benjamin Britten</text>
</g>
<g transform="scale(0.525)" stroke-width="0.70" font-family="Times" font-size="14.00" font-style="italic">
<defs>
<ellipse id="hd" rx="4.1" ry="2.9"
	transform="rotate(-20)" fill="currentColor"/>
</defs>
<use x="107.04" y="94.16" xlink:href="#hd"/>
<path d="M110.54 94.16v-20.00" stroke="currentColor" fill="none"/>
</g>
<g transform="scale(0.750)" stroke-width="0.70" font-family="Times" font-size="15.00" font-weight="bold">
<text x="82.63" y="68.01">= 120</text>
<path stroke="currentColor" fill="none"
	d="M248.93 106.01v-24.00"/>
<path stroke="currentColor" fill="none"
	d="M378.43 106.01v-24.00"/>
<path stroke="currentColor" fill="none"
	d="M565.53 106.01v-24.00"/>
<path stroke="currentColor" fill="none"
	d="M694.93 106.01v-24.00"/>
<path stroke="currentColor" fill="none"
	d="M13.33 106.01h681.60m-681.60 -6h681.60m-681.60 -6h681.60m-681.60 -6h681.60m-681.60 -6h681.60"/>
<text font-family="serif" font-size="12" font-style="italic" font-weight="normal"
	x="139.13" y="122.01" text-anchor="middle">3</text>
<text font-family="serif" font-size="12" font-style="italic" font-weight="normal"
	x="455.73" y="122.01" text-anchor="middle">3</text>
<defs>
<path id="ubclef" fill="currentColor" d="m-200 -87
	c124 -35 222 -78 254 -236
	c43 -228 -167 -246 -192 -103
	c59 -80 157 22 92 78
	c-62 47 -115 -22 -106 -88
	c21 -141 270 -136 274 52
	c-1 175 -106 264 -322 297
	m357 -250
	c0 -36 51 -34 51 0
	c0 37 -51 36 -51 0
	m-2 -129
	c0 -36 51 -34 51 0
	c0 38 -51 37 -51 0"/>
<use id="bclef" transform="scale(0.045)"
	xlink:href="#ubclef"/>
</defs>
<use x="25.33" y="106.01" xlink:href="#bclef"/>
<defs>
<path id="usharp" fill="currentColor" d="
	m136 -702
	v890
	h32
	v-890
	m128 840
	h32
	v-888
	h-32
	m-232 286
	v116
	l338 -96
	v-116
	m-338 442
	v116
	l338 -98
	v-114"/>
<use id="sh0" transform="translate(-4,5) scale(0.018)"
	xlink:href="#usharp"/>
</defs>
<use x="40.33" y="88.01" xlink:href="#sh0"/>
<g font-family="serif" font-size="16" font-weight="bold" font-style="normal"
	transform="translate(56.33,106.01) scale(1.2,1)">
	<text y="-1" text-anchor="middle">4</text>
	<text y="-13" text-anchor="middle">4</text>
</g>
<use x="74.33" y="88.01" xlink:href="#hd"/>
<path d="M70.83 88.01v20.00" stroke="currentColor" fill="none"/>
<path fill="currentColor"
	d="M70.83 108.01c0.6 -5.6 9.6 -9 5.6 -18.4
	c1.6 6 -1.3 11.6 -5.6 12.8
"/>
<defs>
<path id="r8e" fill="currentColor" d="m 0 0
	c-1.5 1.5 -2.4 2 -3.6 2
	c2.4 -2.8 -2.8 -4 -2.8 -1.2
	c0 2.7 4.3 2.4 5.9 0.6"/>
<g id="r16">
	<path d="m3.3 -4l-4 15.6" stroke="currentColor" fill="none"/>
	<use x="3.4" y="-4" xlink:href="#r8e"/>
	<use x="1.9" y="2" xlink:href="#r8e"/>
</g>
</defs>
<use x="94.03" y="94.01" xlink:href="#r16"/>
<use x="109.63" y="88.01" xlink:href="#hd"/>
<path d="M106.13 88.01v22.00" stroke="currentColor" fill="none"/>
<path fill="currentColor"
	d="M106.13 110.01c0.9 -3.7 9.1 -6.4 6 -12.4
	c1 5.4 -4.2 8.4 -6 8.4
M106.13 104.61c0.9 -3.7 9.1 -6.4 6 -12.4
	c1 5.4 -4.2 8.4 -6 8.4
"/>
<path fill="currentColor"
	d="M121.43 106.21l31.60 0.00v-3.20l-31.60 -0.00"/>
<use x="125.23" y="82.01" xlink:href="#hd"/>
<path d="M121.73 82.01v23.20" stroke="currentColor" fill="none"/>
<use x="140.73" y="88.01" xlink:href="#hd"/>
<path d="M137.23 88.01v17.20" stroke="currentColor" fill="none"/>
<use x="156.23" y="82.01" xlink:href="#hd"/>
<path d="M152.73 82.01v23.20" stroke="currentColor" fill="none"/>
<use x="173.33" y="88.01" xlink:href="#hd"/>
<path d="M169.83 88.01v20.00" stroke="currentColor" fill="none"/>
<path fill="currentColor"
	d="M169.83 108.01c0.6 -5.6 9.6 -9 5.6 -18.4
	c1.6 6 -1.3 11.6 -5.6 12.8
"/>
<use x="193.03" y="94.01" xlink:href="#r16"/>
<use x="208.63" y="88.01" xlink:href="#hd"/>
<path d="M205.13 88.01v22.00" stroke="currentColor" fill="none"/>
<path fill="currentColor"
	d="M205.13 110.01c0.9 -3.7 9.1 -6.4 6 -12.4
	c1 5.4 -4.2 8.4 -6 8.4
M205.13 104.61c0.9 -3.7 9.1 -6.4 6 -12.4
	c1 5.4 -4.2 8.4 -6 8.4
"/>
<use x="224.23" y="82.01" xlink:href="#hd"/>
<path d="M220.73 82.01v20.00" stroke="currentColor" fill="none"/>
<defs>
<path id="hl" stroke="currentColor" d="m-6 0h12"/>
</defs>
<use x="261.43" y="76.01" xlink:href="#hl"/>
<use x="261.43" y="73.01" xlink:href="#hd"/>
<path d="M257.93 73.01v21.00" stroke="currentColor" fill="none"/>
<use x="292.23" y="76.01" xlink:href="#hl"/>
<use x="292.23" y="76.01" xlink:href="#hd"/>
<path d="M288.73 76.01v20.00" stroke="currentColor" fill="none"/>
<use x="322.93" y="79.01" xlink:href="#hd"/>
<path d="M319.43 79.01v20.00" stroke="currentColor" fill="none"/>
<use x="353.73" y="82.01" xlink:href="#hd"/>
<path d="M350.23 82.01v20.00" stroke="currentColor" fill="none"/>
<use x="390.93" y="85.01" xlink:href="#hd"/>
<path d="M387.43 85.01v20.00" stroke="currentColor" fill="none"/>
<path fill="currentColor"
	d="M387.43 105.01c0.6 -5.6 9.6 -9 5.6 -18.4
	c1.6 6 -1.3 11.6 -5.6 12.8
"/>
<use x="410.63" y="94.01" xlink:href="#r16"/>
<use x="426.23" y="85.01" xlink:href="#hd"/>
<path d="M422.73 85.01v22.00" stroke="currentColor" fill="none"/>
<path fill="currentColor"
	d="M422.73 107.01c0.9 -3.7 9.1 -6.4 6 -12.4
	c1 5.4 -4.2 8.4 -6 8.4
M422.73 101.61c0.9 -3.7 9.1 -6.4 6 -12.4
	c1 5.4 -4.2 8.4 -6 8.4
"/>
<path fill="currentColor"
	d="M437.93 106.21l31.60 0.00v-3.20l-31.60 -0.00"/>
<use x="441.83" y="88.01" xlink:href="#hd"/>
<path d="M438.33 88.01v17.20" stroke="currentColor" fill="none"/>
<use x="457.33" y="85.01" xlink:href="#hd"/>
<path d="M453.83 85.01v20.20" stroke="currentColor" fill="none"/>
<use x="472.73" y="88.01" xlink:href="#hd"/>
<path d="M469.23 88.01v17.20" stroke="currentColor" fill="none"/>
<use x="489.93" y="85.01" xlink:href="#hd"/>
<path d="M486.43 85.01v20.00" stroke="currentColor" fill="none"/>
<path fill="currentColor"
	d="M486.43 105.01c0.6 -5.6 9.6 -9 5.6 -18.4
	c1.6 6 -1.3 11.6 -5.6 12.8
"/>
<use x="509.63" y="94.01" xlink:href="#r16"/>
<use x="525.23" y="85.01" xlink:href="#hd"/>
<path d="M521.73 85.01v22.00" stroke="currentColor" fill="none"/>
<path fill="currentColor"
	d="M521.73 107.01c0.9 -3.7 9.1 -6.4 6 -12.4
	c1 5.4 -4.2 8.4 -6 8.4
M521.73 101.61c0.9 -3.7 9.1 -6.4 6 -12.4
	c1 5.4 -4.2 8.4 -6 8.4
"/>
<use x="540.83" y="88.01" xlink:href="#hd"/>
<path d="M537.33 88.01v20.00" stroke="currentColor" fill="none"/>
<use x="578.03" y="82.01" xlink:href="#hd"/>
<path d="M574.53 82.01v20.00" stroke="currentColor" fill="none"/>
<use x="608.73" y="85.01" xlink:href="#hd"/>
<path d="M605.23 85.01v20.00" stroke="currentColor" fill="none"/>
<use x="639.53" y="88.01" xlink:href="#hd"/>
<path d="M636.03 88.01v20.00" stroke="currentColor" fill="none"/>
<use x="670.23" y="91.01" xlink:href="#hd"/>
<path d="M666.73 91.01v20.00" stroke="currentColor" fill="none"/>
</g>
</svg>
