<?xml version="1.0" standalone="no"?>
<!DOCTYPE svg PUBLIC "-//W3C//DTD SVG 1.1//EN"
	"http://www.w3.org/Graphics/SVG/1.1/DTD/svg11.dtd">
<svg xmlns="http://www.w3.org/2000/svg" version="1.1"
	xmlns:xlink="http://www.w3.org/1999/xlink"
	xml:space='preserve' color="black"
	width="7.38in" height="1.39in" viewBox="0 0 531 100">
<title>8855.abc (8855) tune 1</title>
<!-- Creator: abcm2ps-7.8.14 -->
<!-- CreationDate: Mar 13, 2016 18:54 -->
<!-- CommandLine: -qxg 8855.abc -O ../svgs/8855.svg -->
<g transform="scale(0.750)" stroke-width="0.70" font-family="Times" font-size="20.00">
<text x="354.13" y="21.67" text-anchor="middle">8855.  Phantasy-Quartet, 2nd. Theme</text>
</g>
<g transform="scale(0.750)" stroke-width="0.70" font-family="Times" font-size="14.00" font-style="italic">
<text x="694.93" y="45.34" text-anchor="end">Benjamin Britten</text>
</g>
<g transform="scale(0.525)" stroke-width="0.70" font-family="Times" font-size="14.00" font-style="italic">
<defs>
<ellipse id="hd" rx="4.1" ry="2.9"
	transform="rotate(-20)" fill="currentColor"/>
</defs>
<use x="91.33" y="94.16" xlink:href="#hd"/>
<path d="M94.83 94.16v-20.00" stroke="currentColor" fill="none"/>
</g>
<g transform="scale(0.750)" stroke-width="0.70" font-family="Times" font-size="15.00" font-weight="bold">
<text x="71.63" y="68.01">= 120</text>
<path stroke="currentColor" fill="none"
	d="M99.33 110.01v-24.00"/>
<path stroke="currentColor" fill="none"
	d="M198.33 110.01v-24.00"/>
<path stroke="currentColor" fill="none"
	d="M282.53 110.01v-24.00"/>
<path stroke="currentColor" fill="none"
	d="M332.53 110.01v-24.00"/>
<path stroke="currentColor" fill="none"
	d="M382.53 110.01v-24.00"/>
<path stroke="currentColor" fill="none"
	d="M432.43 110.01v-24.00"/>
<path stroke="currentColor" fill="none"
	d="M531.53 110.01v-24.00"/>
<path stroke="currentColor" fill="none"
	d="M637.93 110.01v-24.00"/>
<path stroke="currentColor" fill="none"
	d="M13.33 110.01h681.60m-681.60 -6h681.60m-681.60 -6h681.60m-681.60 -6h681.60m-681.60 -6h681.60"/>
<defs>
<path id="utclef" fill="currentColor" d="m-50 -90
	c-72 -41 -72 -158 52 -188
	c150 -10 220 188 90 256
	c-114 52 -275 0 -293 -136
	c-15 -181 93 -229 220 -334
	c88 -87 79 -133 62 -210
	c-51 33 -94 105 -89 186
	c17 267 36 374 49 574
	c6 96 -19 134 -77 135
	c-80 1 -126 -93 -61 -133
	c85 -41 133 101 31 105
	c23 17 92 37 90 -92
	c-10 -223 -39 -342 -50 -617
	c0 -90 0 -162 96 -232
	c56 72 63 230 22 289
	c-74 106 -257 168 -255 316
	c9 153 148 185 252 133
	c86 -65 29 -192 -80 -176
	c-71 12 -105 67 -59 124"/>
<use id="tclef" transform="scale(0.045)"
	xlink:href="#utclef"/>
</defs>
<use x="25.33" y="110.01" xlink:href="#tclef"/>
<g font-family="serif" font-size="16" font-weight="bold" font-style="normal"
	transform="translate(43.83,110.01) scale(1.2,1)">
	<text y="-1" text-anchor="middle">4</text>
	<text y="-13" text-anchor="middle">4</text>
</g>
<defs>
<path id="HD" fill="currentColor" d="m-2.7 -1.4
	c1.5 -2.8 6.9 0 5.3 2.7
	c-1.5 2.8 -6.9 0 -5.3 -2.7
	m8.3 1.4
	c0 -1.5 -2.2 -3 -5.6 -3
	c-3.4 0 -5.6 1.5 -5.6 3
	c0 1.5 2.2 3 5.6 3
	c3.4 0 5.6 -1.5 5.6 -3"/>
</defs>
<use x="64.33" y="83.01" xlink:href="#HD"/>
<use x="111.83" y="83.01" xlink:href="#hd"/>
<path d="M108.33 83.01v20.00" stroke="currentColor" fill="none"/>
<defs>
<path id="hl" stroke="currentColor" d="m-6 0h12"/>
</defs>
<use x="134.63" y="80.01" xlink:href="#hl"/>
<use x="134.63" y="80.01" xlink:href="#hd"/>
<path d="M131.13 80.01v20.00" stroke="currentColor" fill="none"/>
<use x="157.63" y="80.01" xlink:href="#hl"/>
<use x="157.63" y="74.01" xlink:href="#hl"/>
<use x="157.63" y="71.01" xlink:href="#hd"/>
<circle fill="currentColor" cx="165.63" cy="71.01" r="1.2"/>
<path d="M154.13 71.01v27.00" stroke="currentColor" fill="none"/>
<use x="184.73" y="80.01" xlink:href="#hl"/>
<use x="184.73" y="74.01" xlink:href="#hl"/>
<use x="184.73" y="74.01" xlink:href="#hd"/>
<path d="M181.23 74.01v24.00" stroke="currentColor" fill="none"/>
<path fill="currentColor"
	d="M181.23 98.01c0.6 -5.6 9.6 -9 5.6 -18.4
	c1.6 6 -1.3 11.6 -5.6 12.8
"/>
<use x="210.83" y="80.01" xlink:href="#hl"/>
<use x="210.83" y="74.01" xlink:href="#hl"/>
<use x="210.83" y="71.01" xlink:href="#hd"/>
<path d="M207.33 71.01v27.00" stroke="currentColor" fill="none"/>
<use x="233.83" y="80.01" xlink:href="#hl"/>
<use x="233.83" y="74.01" xlink:href="#hl"/>
<use x="233.83" y="68.01" xlink:href="#hl"/>
<use x="233.83" y="68.01" xlink:href="#hd"/>
<path d="M230.33 68.01v30.00" stroke="currentColor" fill="none"/>
<defs>
<path id="Hd" fill="currentColor" d="m3 -1.6
	c-1 -1.8 -7 1.4 -6 3.2
	c1 1.8 7 -1.4 6 -3.2
	m0.5 -0.3
	c2 3.8 -5 7.6 -7 3.8
	c-2 -3.8 5 -7.6 7 -3.8"/>
</defs>
<use x="256.73" y="83.01" xlink:href="#Hd"/>
<path d="M253.23 83.01v20.00" stroke="currentColor" fill="none"/>
<use x="297.53" y="83.01" xlink:href="#HD"/>
<defs>
<rect id="r1" fill="currentColor"
	x="-3.5" y="-6" width="7" height="3"/>
</defs>
<use x="357.53" y="98.01" xlink:href="#r1"/>
<use x="397.53" y="83.01" xlink:href="#HD"/>
<use x="444.93" y="83.01" xlink:href="#hd"/>
<path d="M441.43 83.01v20.00" stroke="currentColor" fill="none"/>
<use x="467.73" y="80.01" xlink:href="#hl"/>
<use x="467.73" y="80.01" xlink:href="#hd"/>
<path d="M464.23 80.01v20.00" stroke="currentColor" fill="none"/>
<use x="490.83" y="80.01" xlink:href="#hl"/>
<use x="490.83" y="74.01" xlink:href="#hl"/>
<use x="490.83" y="71.01" xlink:href="#hd"/>
<circle fill="currentColor" cx="498.83" cy="71.01" r="1.2"/>
<path d="M487.33 71.01v27.00" stroke="currentColor" fill="none"/>
<use x="517.93" y="80.01" xlink:href="#hl"/>
<use x="517.93" y="74.01" xlink:href="#hl"/>
<use x="517.93" y="74.01" xlink:href="#hd"/>
<path d="M514.43 74.01v24.00" stroke="currentColor" fill="none"/>
<path fill="currentColor"
	d="M514.43 98.01c0.6 -5.6 9.6 -9 5.6 -18.4
	c1.6 6 -1.3 11.6 -5.6 12.8
"/>
<use x="544.03" y="80.01" xlink:href="#hl"/>
<use x="544.03" y="74.01" xlink:href="#hl"/>
<use x="544.03" y="71.01" xlink:href="#hd"/>
<path d="M540.53 71.01v27.00" stroke="currentColor" fill="none"/>
<use x="567.03" y="80.01" xlink:href="#hl"/>
<use x="567.03" y="74.01" xlink:href="#hl"/>
<use x="567.03" y="68.01" xlink:href="#hl"/>
<use x="567.03" y="68.01" xlink:href="#hd"/>
<path d="M563.53 68.01v30.00" stroke="currentColor" fill="none"/>
<use x="589.83" y="83.01" xlink:href="#hd"/>
<circle fill="currentColor" cx="597.83" cy="83.01" r="1.2"/>
<path d="M586.33 83.01v20.00" stroke="currentColor" fill="none"/>
<path fill="currentColor"
	d="M612.83 98.21l11.90 0.00v-3.20l-11.90 -0.00"/>
<path fill="currentColor"
	d="M613.23 93.21l11.20 0.00v-3.20l-11.20 -0.00"/>
<use x="616.73" y="80.01" xlink:href="#hl"/>
<use x="616.73" y="74.01" xlink:href="#hl"/>
<use x="616.73" y="71.01" xlink:href="#hd"/>
<path d="M613.23 71.01v26.20" stroke="currentColor" fill="none"/>
<use x="627.93" y="80.01" xlink:href="#hl"/>
<use x="627.93" y="74.01" xlink:href="#hl"/>
<use x="627.93" y="74.01" xlink:href="#hd"/>
<path d="M624.43 74.01v23.20" stroke="currentColor" fill="none"/>
<use x="650.43" y="80.01" xlink:href="#hl"/>
<use x="650.43" y="74.01" xlink:href="#hl"/>
<use x="650.43" y="71.01" xlink:href="#hd"/>
<path d="M646.93 71.01v27.00" stroke="currentColor" fill="none"/>
<use x="673.43" y="80.01" xlink:href="#hl"/>
<use x="673.43" y="74.01" xlink:href="#hl"/>
<use x="673.43" y="68.01" xlink:href="#hl"/>
<use x="673.43" y="68.01" xlink:href="#hd"/>
<path d="M669.93 68.01v30.00" stroke="currentColor" fill="none"/>
<path fill="currentColor"
	d="M66.83 81.01c6.51 -5.25 34.97 -5.25 41.48 -0.00
	l0.00 -0.24c-7.75 -7.01 -33.73 -7.01 -41.48 0.24"/>
<path fill="currentColor"
	d="M260.23 81.01c5.16 -5.09 27.62 -5.09 32.79 -0.00
	l0.00 -0.23c-6.15 -6.86 -26.64 -6.86 -32.79 0.23"/>
<path fill="currentColor"
	d="M400.03 81.01c6.51 -5.25 34.97 -5.25 41.48 -0.00
	l0.00 -0.24c-7.75 -7.01 -33.73 -7.01 -41.48 0.24"/>
</g>
</svg>
