<?xml version="1.0" standalone="no"?>
<!DOCTYPE svg PUBLIC "-//W3C//DTD SVG 1.1//EN"
	"http://www.w3.org/Graphics/SVG/1.1/DTD/svg11.dtd">
<svg xmlns="http://www.w3.org/2000/svg" version="1.1"
	xmlns:xlink="http://www.w3.org/1999/xlink"
	xml:space='preserve' color="black"
	width="7.38in" height="1.48in" viewBox="0 0 531 107">
<title>8944.abc (8944) tune 1</title>
<!-- Creator: abcm2ps-7.8.14 -->
<!-- CreationDate: Mar 13, 2016 18:54 -->
<!-- CommandLine: -qxg 8944.abc -O ../svgs/8944.svg -->
<g transform="scale(0.750)" stroke-width="0.70" font-family="Times" font-size="20.00">
<text x="354.13" y="21.67" text-anchor="middle">8944.  Symphony No. 9 in D Minor, 1st. Mvt. - 2nd. Theme</text>
</g>
<g transform="scale(0.750)" stroke-width="0.70" font-family="Times" font-size="14.00" font-style="italic">
<text x="694.93" y="45.34" text-anchor="end">Anton Bruckner</text>
</g>
<g transform="scale(0.525)" stroke-width="0.70" font-family="Times" font-size="14.00" font-style="italic">
<defs>
<ellipse id="hd" rx="4.1" ry="2.9"
	transform="rotate(-20)" fill="currentColor"/>
</defs>
<use x="123.47" y="94.16" xlink:href="#hd"/>
<path d="M126.97 94.16v-20.00" stroke="currentColor" fill="none"/>
</g>
<g transform="scale(0.750)" stroke-width="0.70" font-family="Times" font-size="15.00" font-weight="bold">
<text x="94.13" y="68.01">= 120</text>
<path stroke="currentColor" fill="none"
	d="M180.23 119.01v-24.00"/>
<path stroke="currentColor" fill="none"
	d="M287.63 119.01v-24.00"/>
<path stroke="currentColor" fill="none"
	d="M404.73 119.01v-24.00"/>
<path stroke="currentColor" fill="none"
	d="M500.03 119.01v-24.00"/>
<path stroke="currentColor" fill="none"
	d="M606.93 119.01v-24.00"/>
<path stroke="currentColor" fill="none"
	d="M13.33 119.01h681.60m-681.60 -6h681.60m-681.60 -6h681.60m-681.60 -6h681.60m-681.60 -6h681.60"/>
<defs>
<path id="utclef" fill="currentColor" d="m-50 -90
	c-72 -41 -72 -158 52 -188
	c150 -10 220 188 90 256
	c-114 52 -275 0 -293 -136
	c-15 -181 93 -229 220 -334
	c88 -87 79 -133 62 -210
	c-51 33 -94 105 -89 186
	c17 267 36 374 49 574
	c6 96 -19 134 -77 135
	c-80 1 -126 -93 -61 -133
	c85 -41 133 101 31 105
	c23 17 92 37 90 -92
	c-10 -223 -39 -342 -50 -617
	c0 -90 0 -162 96 -232
	c56 72 63 230 22 289
	c-74 106 -257 168 -255 316
	c9 153 148 185 252 133
	c86 -65 29 -192 -80 -176
	c-71 12 -105 67 -59 124"/>
<use id="tclef" transform="scale(0.045)"
	xlink:href="#utclef"/>
</defs>
<use x="25.33" y="119.01" xlink:href="#tclef"/>
<defs>
<path id="usharp" fill="currentColor" d="
	m136 -702
	v890
	h32
	v-890
	m128 840
	h32
	v-888
	h-32
	m-232 286
	v116
	l338 -96
	v-116
	m-338 442
	v116
	l338 -98
	v-114"/>
<use id="sh0" transform="translate(-4,5) scale(0.018)"
	xlink:href="#usharp"/>
</defs>
<use x="40.33" y="95.01" xlink:href="#sh0"/>
<use x="45.83" y="104.01" xlink:href="#sh0"/>
<use x="51.33" y="92.01" xlink:href="#sh0"/>
<g font-family="serif" font-size="16" font-weight="bold" font-style="normal"
	transform="translate(67.33,119.01) scale(1.2,1)">
	<text y="-1" text-anchor="middle">4</text>
	<text y="-13" text-anchor="middle">4</text>
</g>
<defs>
<path id="hl" stroke="currentColor" d="m-6 0h12"/>
</defs>
<use x="85.83" y="89.01" xlink:href="#hl"/>
<use x="85.83" y="83.01" xlink:href="#hl"/>
<defs>
<path id="Hd" fill="currentColor" d="m3 -1.6
	c-1 -1.8 -7 1.4 -6 3.2
	c1 1.8 7 -1.4 6 -3.2
	m0.5 -0.3
	c2 3.8 -5 7.6 -7 3.8
	c-2 -3.8 5 -7.6 7 -3.8"/>
</defs>
<use x="85.83" y="83.01" xlink:href="#Hd"/>
<circle fill="currentColor" cx="95.83" cy="80.01" r="1.2"/>
<path d="M82.33 83.01v24.00" stroke="currentColor" fill="none"/>
<use x="138.33" y="89.01" xlink:href="#hl"/>
<use x="138.33" y="83.01" xlink:href="#hl"/>
<use x="138.33" y="83.01" xlink:href="#hd"/>
<path d="M134.83 83.01v24.00" stroke="currentColor" fill="none"/>
<path fill="currentColor"
	d="M134.83 107.01c0.6 -5.6 9.6 -9 5.6 -18.4
	c1.6 6 -1.3 11.6 -5.6 12.8
"/>
<use x="161.83" y="95.01" xlink:href="#hd"/>
<defs>
<path id="unat" fill="currentColor" d="
	m96 -750
	h-32
	v716
	l32 -8
	l182 -54
	v282
	h32
	v-706
	l-34 10
	l-180 50
	v-290
	m0 592
	v-190
	l182 -52
	v188"/>
<use id="nt0" transform="translate(-3,5) scale(0.018)"
	xlink:href="#unat"/>
</defs>
<use x="152.83" y="95.01" xlink:href="#nt0"/>
<path d="M158.33 95.01v20.00" stroke="currentColor" fill="none"/>
<path fill="currentColor"
	d="M158.33 115.01c0.6 -5.6 9.6 -9 5.6 -18.4
	c1.6 6 -1.3 11.6 -5.6 12.8
"/>
<use x="193.23" y="89.01" xlink:href="#hl"/>
<use x="193.23" y="83.01" xlink:href="#hl"/>
<use x="193.23" y="83.01" xlink:href="#Hd"/>
<circle fill="currentColor" cx="202.23" cy="80.01" r="1.2"/>
<path d="M189.73 83.01v24.00" stroke="currentColor" fill="none"/>
<use x="245.73" y="89.01" xlink:href="#hl"/>
<use x="245.73" y="83.01" xlink:href="#hl"/>
<use x="245.73" y="83.01" xlink:href="#hd"/>
<path d="M242.23 83.01v24.00" stroke="currentColor" fill="none"/>
<path fill="currentColor"
	d="M242.23 107.01c0.6 -5.6 9.6 -9 5.6 -18.4
	c1.6 6 -1.3 11.6 -5.6 12.8
"/>
<use x="269.23" y="95.01" xlink:href="#hd"/>
<use x="260.23" y="95.01" xlink:href="#nt0"/>
<path d="M265.73 95.01v20.00" stroke="currentColor" fill="none"/>
<path fill="currentColor"
	d="M265.73 115.01c0.6 -5.6 9.6 -9 5.6 -18.4
	c1.6 6 -1.3 11.6 -5.6 12.8
"/>
<use x="300.63" y="89.01" xlink:href="#hl"/>
<use x="300.63" y="83.01" xlink:href="#hl"/>
<use x="300.63" y="83.01" xlink:href="#Hd"/>
<path d="M297.13 83.01v24.00" stroke="currentColor" fill="none"/>
<use x="346.13" y="89.01" xlink:href="#hl"/>
<use x="346.13" y="83.01" xlink:href="#hl"/>
<use x="346.13" y="80.01" xlink:href="#hd"/>
<path d="M342.63 80.01v27.00" stroke="currentColor" fill="none"/>
<use x="378.83" y="89.01" xlink:href="#hl"/>
<use x="378.83" y="83.01" xlink:href="#hl"/>
<use x="378.83" y="80.01" xlink:href="#hd"/>
<use x="369.83" y="80.01" xlink:href="#sh0"/>
<path d="M375.33 80.01v27.00" stroke="currentColor" fill="none"/>
<use x="417.73" y="89.01" xlink:href="#hl"/>
<use x="417.73" y="83.01" xlink:href="#hl"/>
<use x="417.73" y="77.01" xlink:href="#hl"/>
<use x="417.73" y="77.01" xlink:href="#Hd"/>
<path d="M414.23 77.01v30.00" stroke="currentColor" fill="none"/>
<use x="463.63" y="89.01" xlink:href="#hl"/>
<use x="463.63" y="83.01" xlink:href="#hl"/>
<use x="463.63" y="80.01" xlink:href="#Hd"/>
<use x="453.63" y="80.01" xlink:href="#sh0"/>
<path d="M460.13 80.01v27.00" stroke="currentColor" fill="none"/>
<use x="513.03" y="89.01" xlink:href="#hl"/>
<use x="513.03" y="83.01" xlink:href="#hl"/>
<use x="513.03" y="77.01" xlink:href="#hl"/>
<use x="513.03" y="77.01" xlink:href="#Hd"/>
<circle fill="currentColor" cx="522.03" cy="74.01" r="1.2"/>
<path d="M509.53 77.01v30.00" stroke="currentColor" fill="none"/>
<use x="565.63" y="89.01" xlink:href="#hl"/>
<use x="565.63" y="83.01" xlink:href="#hl"/>
<use x="565.63" y="77.01" xlink:href="#hl"/>
<use x="565.63" y="77.01" xlink:href="#hd"/>
<path d="M562.13 77.01v30.00" stroke="currentColor" fill="none"/>
<path fill="currentColor"
	d="M562.13 107.01c0.6 -5.6 9.6 -9 5.6 -18.4
	c1.6 6 -1.3 11.6 -5.6 12.8
"/>
<use x="588.53" y="92.01" xlink:href="#hd"/>
<path d="M585.03 92.01v20.00" stroke="currentColor" fill="none"/>
<path fill="currentColor"
	d="M585.03 112.01c0.6 -5.6 9.6 -9 5.6 -18.4
	c1.6 6 -1.3 11.6 -5.6 12.8
"/>
<use x="619.93" y="89.01" xlink:href="#hl"/>
<use x="619.93" y="83.01" xlink:href="#hl"/>
<use x="619.93" y="77.01" xlink:href="#hl"/>
<use x="619.93" y="77.01" xlink:href="#Hd"/>
<circle fill="currentColor" cx="628.93" cy="74.01" r="1.2"/>
<path d="M616.43 77.01v30.00" stroke="currentColor" fill="none"/>
<use x="672.53" y="89.01" xlink:href="#hl"/>
<use x="672.53" y="83.01" xlink:href="#hl"/>
<use x="672.53" y="77.01" xlink:href="#hl"/>
<use x="672.53" y="77.01" xlink:href="#hd"/>
<path d="M669.03 77.01v30.00" stroke="currentColor" fill="none"/>
<path fill="currentColor"
	d="M669.03 107.01c0.6 -5.6 9.6 -9 5.6 -18.4
	c1.6 6 -1.3 11.6 -5.6 12.8
"/>
<path fill="currentColor"
	d="M89.33 77.01c7.06 -5.32 38.47 -5.32 45.53 -0.00
	l0.00 -0.25c-8.42 -7.07 -37.10 -7.07 -45.53 0.25"/>
<path fill="currentColor"
	d="M196.73 77.01c7.06 -5.32 38.47 -5.32 45.53 -0.00
	l0.00 -0.25c-8.42 -7.07 -37.10 -7.07 -45.53 0.25"/>
<path fill="currentColor"
	d="M516.53 71.01c7.06 -5.32 38.47 -5.32 45.53 -0.00
	l0.00 -0.25c-8.42 -7.07 -37.10 -7.07 -45.53 0.25"/>
<path fill="currentColor"
	d="M623.43 71.01c7.06 -5.32 38.47 -5.32 45.53 -0.00
	l0.00 -0.25c-8.42 -7.07 -37.10 -7.07 -45.53 0.25"/>
</g>
</svg>
