<?xml version="1.0" standalone="no"?>
<!DOCTYPE svg PUBLIC "-//W3C//DTD SVG 1.1//EN"
	"http://www.w3.org/Graphics/SVG/1.1/DTD/svg11.dtd">
<svg xmlns="http://www.w3.org/2000/svg" version="1.1"
	xmlns:xlink="http://www.w3.org/1999/xlink"
	xml:space='preserve' color="black"
	width="7.38in" height="1.40in" viewBox="0 0 531 101">
<title>8959.abc (8959) tune 1</title>
<!-- Creator: abcm2ps-7.8.14 -->
<!-- CreationDate: Mar 13, 2016 18:54 -->
<!-- CommandLine: -qxg 8959.abc -O ../svgs/8959.svg -->
<g transform="scale(0.750)" stroke-width="0.70" font-family="Times" font-size="20.00">
<text x="354.13" y="21.67" text-anchor="middle">8959.  Prelude and Fugue, No. 8 in E, 2nd. Theme - Fugue</text>
</g>
<g transform="scale(0.750)" stroke-width="0.70" font-family="Times" font-size="14.00" font-style="italic">
<text x="694.93" y="45.34" text-anchor="end">Dietrich Buxtehude</text>
</g>
<g transform="scale(0.525)" stroke-width="0.70" font-family="Times" font-size="14.00" font-style="italic">
<defs>
<ellipse id="hd" rx="4.1" ry="2.9"
	transform="rotate(-20)" fill="currentColor"/>
</defs>
<use x="130.61" y="94.16" xlink:href="#hd"/>
<path d="M134.11 94.16v-20.00" stroke="currentColor" fill="none"/>
</g>
<g transform="scale(0.750)" stroke-width="0.70" font-family="Times" font-size="15.00" font-weight="bold">
<text x="99.13" y="68.01">= 120</text>
<path stroke="currentColor" fill="none"
	d="M227.73 111.01v-24.00"/>
<path stroke="currentColor" fill="none"
	d="M447.13 111.01v-24.00"/>
<path stroke="currentColor" fill="none"
	d="M694.93 111.01v-24.00"/>
<path stroke="currentColor" fill="none"
	d="M13.33 111.01h681.60m-681.60 -6h681.60m-681.60 -6h681.60m-681.60 -6h681.60m-681.60 -6h681.60"/>
<defs>
<path id="utclef" fill="currentColor" d="m-50 -90
	c-72 -41 -72 -158 52 -188
	c150 -10 220 188 90 256
	c-114 52 -275 0 -293 -136
	c-15 -181 93 -229 220 -334
	c88 -87 79 -133 62 -210
	c-51 33 -94 105 -89 186
	c17 267 36 374 49 574
	c6 96 -19 134 -77 135
	c-80 1 -126 -93 -61 -133
	c85 -41 133 101 31 105
	c23 17 92 37 90 -92
	c-10 -223 -39 -342 -50 -617
	c0 -90 0 -162 96 -232
	c56 72 63 230 22 289
	c-74 106 -257 168 -255 316
	c9 153 148 185 252 133
	c86 -65 29 -192 -80 -176
	c-71 12 -105 67 -59 124"/>
<use id="tclef" transform="scale(0.045)"
	xlink:href="#utclef"/>
</defs>
<use x="25.33" y="111.01" xlink:href="#tclef"/>
<defs>
<path id="usharp" fill="currentColor" d="
	m136 -702
	v890
	h32
	v-890
	m128 840
	h32
	v-888
	h-32
	m-232 286
	v116
	l338 -96
	v-116
	m-338 442
	v116
	l338 -98
	v-114"/>
<use id="sh0" transform="translate(-4,5) scale(0.018)"
	xlink:href="#usharp"/>
</defs>
<use x="40.33" y="87.01" xlink:href="#sh0"/>
<use x="45.83" y="96.01" xlink:href="#sh0"/>
<use x="51.33" y="84.01" xlink:href="#sh0"/>
<use x="56.83" y="93.01" xlink:href="#sh0"/>
<g font-family="serif" font-size="16" font-weight="bold" font-style="normal"
	transform="translate(72.83,111.01) scale(1.2,1)">
	<text y="-1" text-anchor="middle">4</text>
	<text y="-13" text-anchor="middle">4</text>
</g>
<defs>
<path id="r4" fill="currentColor" d="m-1 -8.5
	l3.6 5.1 -2.1 5.2 2.2 4.3
	c-2.6 -2.3 -5.1 0 -2.4 2.6
	c-4.8 -3 -1.5 -6.9 1.4 -4.1
	l-3.1 -4.5 1.9 -5.1 -1.5 -3.5"/>
</defs>
<use x="90.83" y="99.01" xlink:href="#r4"/>
<defs>
<path id="hl" stroke="currentColor" d="m-6 0h12"/>
</defs>
<use x="126.83" y="81.01" xlink:href="#hl"/>
<use x="126.83" y="78.01" xlink:href="#hd"/>
<path d="M123.33 78.01v21.00" stroke="currentColor" fill="none"/>
<use x="162.83" y="84.01" xlink:href="#hd"/>
<path d="M159.33 84.01v20.00" stroke="currentColor" fill="none"/>
<use x="198.93" y="81.01" xlink:href="#hl"/>
<use x="198.93" y="75.01" xlink:href="#hl"/>
<use x="198.93" y="75.01" xlink:href="#hd"/>
<path d="M195.43 75.01v24.00" stroke="currentColor" fill="none"/>
<use x="240.73" y="81.01" xlink:href="#hl"/>
<use x="240.73" y="78.01" xlink:href="#hd"/>
<path d="M237.23 78.01v21.00" stroke="currentColor" fill="none"/>
<use x="276.73" y="81.01" xlink:href="#hl"/>
<use x="276.73" y="75.01" xlink:href="#hl"/>
<use x="276.73" y="69.01" xlink:href="#hl"/>
<use x="276.73" y="69.01" xlink:href="#hd"/>
<path d="M273.23 69.01v30.00" stroke="currentColor" fill="none"/>
<path fill="currentColor"
	d="M308.93 99.21l17.00 0.00v-3.20l-17.00 -0.00"/>
<path fill="currentColor"
	d="M309.33 94.21l16.30 0.00v-3.20l-16.30 -0.00"/>
<use x="312.83" y="81.01" xlink:href="#hl"/>
<use x="312.83" y="75.01" xlink:href="#hl"/>
<use x="312.83" y="72.01" xlink:href="#hd"/>
<path d="M309.33 72.01v26.20" stroke="currentColor" fill="none"/>
<use x="329.13" y="81.01" xlink:href="#hl"/>
<use x="329.13" y="75.01" xlink:href="#hl"/>
<use x="329.13" y="69.01" xlink:href="#hl"/>
<use x="329.13" y="69.01" xlink:href="#hd"/>
<path d="M325.63 69.01v29.20" stroke="currentColor" fill="none"/>
<path fill="currentColor"
	d="M343.43 99.21l17.00 0.00v-3.20l-17.00 -0.00"/>
<path fill="currentColor"
	d="M343.83 94.21l16.30 0.00v-3.20l-16.30 -0.00"/>
<use x="347.33" y="81.01" xlink:href="#hl"/>
<use x="347.33" y="75.01" xlink:href="#hl"/>
<use x="347.33" y="75.01" xlink:href="#hd"/>
<path d="M343.83 75.01v23.20" stroke="currentColor" fill="none"/>
<use x="363.63" y="81.01" xlink:href="#hl"/>
<use x="363.63" y="75.01" xlink:href="#hl"/>
<use x="363.63" y="72.01" xlink:href="#hd"/>
<path d="M360.13 72.01v26.20" stroke="currentColor" fill="none"/>
<path fill="currentColor"
	d="M377.93 101.01l17.00 0.00v-3.20l-17.00 -0.00"/>
<path fill="currentColor"
	d="M378.23 96.01l16.30 0.00v-3.20l-16.30 -0.00"/>
<use x="381.73" y="81.01" xlink:href="#hl"/>
<use x="381.73" y="78.01" xlink:href="#hd"/>
<path d="M378.23 78.01v22.00" stroke="currentColor" fill="none"/>
<use x="398.13" y="81.01" xlink:href="#hl"/>
<use x="398.13" y="75.01" xlink:href="#hl"/>
<use x="398.13" y="75.01" xlink:href="#hd"/>
<path d="M394.63 75.01v25.00" stroke="currentColor" fill="none"/>
<path fill="currentColor"
	d="M412.43 103.21l17.00 -2.30v-3.20l-17.00 2.30"/>
<path fill="currentColor"
	d="M412.73 98.21l16.30 -2.20v-3.20l-16.30 2.20"/>
<use x="416.23" y="81.01" xlink:href="#hl"/>
<use x="416.23" y="81.01" xlink:href="#hd"/>
<path d="M412.73 81.01v21.20" stroke="currentColor" fill="none"/>
<use x="432.53" y="81.01" xlink:href="#hl"/>
<use x="432.53" y="78.01" xlink:href="#hd"/>
<path d="M429.03 78.01v22.00" stroke="currentColor" fill="none"/>
<path fill="currentColor"
	d="M456.23 106.31l17.00 -3.60v-3.20l-17.00 3.60"/>
<path fill="currentColor"
	d="M456.53 101.21l16.30 -3.50v-3.20l-16.30 3.50"/>
<use x="460.03" y="84.01" xlink:href="#hd"/>
<path d="M456.53 84.01v21.20" stroke="currentColor" fill="none"/>
<use x="476.33" y="81.01" xlink:href="#hl"/>
<use x="476.33" y="78.01" xlink:href="#hd"/>
<path d="M472.83 78.01v23.70" stroke="currentColor" fill="none"/>
<path fill="currentColor"
	d="M490.63 99.21l17.00 0.00v-3.20l-17.00 -0.00"/>
<path fill="currentColor"
	d="M490.93 94.21l16.30 0.00v-3.20l-16.30 -0.00"/>
<use x="494.43" y="81.01" xlink:href="#hl"/>
<use x="494.43" y="75.01" xlink:href="#hl"/>
<use x="494.43" y="75.01" xlink:href="#hd"/>
<path d="M490.93 75.01v23.20" stroke="currentColor" fill="none"/>
<use x="510.83" y="81.01" xlink:href="#hl"/>
<use x="510.83" y="75.01" xlink:href="#hl"/>
<use x="510.83" y="72.01" xlink:href="#hd"/>
<path d="M507.33 72.01v26.20" stroke="currentColor" fill="none"/>
<path fill="currentColor"
	d="M525.13 102.41l17.00 3.90v-3.20l-17.00 -3.90"/>
<path fill="currentColor"
	d="M525.43 97.41l16.30 3.80v-3.20l-16.30 -3.80"/>
<use x="528.93" y="81.01" xlink:href="#hl"/>
<use x="528.93" y="75.01" xlink:href="#hl"/>
<use x="528.93" y="69.01" xlink:href="#hl"/>
<use x="528.93" y="69.01" xlink:href="#hd"/>
<path d="M525.43 69.01v32.40" stroke="currentColor" fill="none"/>
<use x="545.23" y="84.01" xlink:href="#hd"/>
<path d="M541.73 84.01v21.20" stroke="currentColor" fill="none"/>
<path fill="currentColor"
	d="M559.53 104.01l17.00 2.30v-3.20l-17.00 -2.30"/>
<path fill="currentColor"
	d="M559.83 99.01l16.30 2.20v-3.20l-16.30 -2.20"/>
<use x="563.33" y="81.01" xlink:href="#hl"/>
<use x="563.33" y="81.01" xlink:href="#hd"/>
<path d="M559.83 81.01v22.00" stroke="currentColor" fill="none"/>
<use x="579.63" y="84.01" xlink:href="#hd"/>
<path d="M576.13 84.01v21.20" stroke="currentColor" fill="none"/>
<use x="597.73" y="87.01" xlink:href="#hd"/>
<path d="M594.23 87.01v20.00" stroke="currentColor" fill="none"/>
<path fill="currentColor"
	d="M594.23 107.01c0.6 -5.6 9.6 -9 5.6 -18.4
	c1.6 6 -1.3 11.6 -5.6 12.8
"/>
<use x="623.33" y="81.01" xlink:href="#hl"/>
<use x="623.33" y="75.01" xlink:href="#hl"/>
<use x="623.33" y="69.01" xlink:href="#hl"/>
<use x="623.33" y="66.01" xlink:href="#hd"/>
<path d="M619.83 66.01v33.00" stroke="currentColor" fill="none"/>
<path fill="currentColor"
	d="M619.83 99.01c0.6 -5.6 9.6 -9 5.6 -18.4
	c1.6 6 -1.3 11.6 -5.6 12.8
"/>
<use x="648.93" y="81.01" xlink:href="#hl"/>
<use x="648.93" y="78.01" xlink:href="#hd"/>
<path d="M645.43 78.01v21.00" stroke="currentColor" fill="none"/>
<path fill="currentColor"
	d="M645.43 99.01c0.6 -5.6 9.6 -9 5.6 -18.4
	c1.6 6 -1.3 11.6 -5.6 12.8
"/>
<use x="674.43" y="81.01" xlink:href="#hl"/>
<use x="674.43" y="75.01" xlink:href="#hl"/>
<use x="674.43" y="69.01" xlink:href="#hl"/>
<use x="674.43" y="69.01" xlink:href="#hd"/>
<path d="M670.93 69.01v30.00" stroke="currentColor" fill="none"/>
<path fill="currentColor"
	d="M670.93 99.01c0.6 -5.6 9.6 -9 5.6 -18.4
	c1.6 6 -1.3 11.6 -5.6 12.8
"/>
</g>
</svg>
