<?xml version="1.0" standalone="no"?>
<!DOCTYPE svg PUBLIC "-//W3C//DTD SVG 1.1//EN"
	"http://www.w3.org/Graphics/SVG/1.1/DTD/svg11.dtd">
<svg xmlns="http://www.w3.org/2000/svg" version="1.1"
	xmlns:xlink="http://www.w3.org/1999/xlink"
	xml:space='preserve' color="black"
	width="7.38in" height="1.48in" viewBox="0 0 531 107">
<title>8991.abc (8991) tune 1</title>
<!-- Creator: abcm2ps-7.8.14 -->
<!-- CreationDate: Mar 13, 2016 18:54 -->
<!-- CommandLine: -qxg 8991.abc -O ../svgs/8991.svg -->
<g transform="scale(0.750)" stroke-width="0.70" font-family="Times" font-size="20.00">
<text x="354.13" y="21.67" text-anchor="middle">8991.  Thunderbird Suite, 3rd. Mvt. - Nuwana&apos;s Love song - (Blackfeet Indian Tune)</text>
</g>
<g transform="scale(0.750)" stroke-width="0.70" font-family="Times" font-size="14.00" font-style="italic">
<text x="694.93" y="45.34" text-anchor="end">Charles Wakefield Cadman</text>
</g>
<g transform="scale(0.525)" stroke-width="0.70" font-family="Times" font-size="14.00" font-style="italic">
<defs>
<ellipse id="hd" rx="4.1" ry="2.9"
	transform="rotate(-20)" fill="currentColor"/>
</defs>
<use x="107.04" y="94.16" xlink:href="#hd"/>
<path d="M110.54 94.16v-20.00" stroke="currentColor" fill="none"/>
</g>
<g transform="scale(0.750)" stroke-width="0.70" font-family="Times" font-size="15.00" font-weight="bold">
<text x="82.63" y="68.01">= 120</text>
<path stroke="currentColor" fill="none"
	d="M224.83 119.01v-24.00"/>
<path stroke="currentColor" fill="none"
	d="M382.93 119.01v-24.00"/>
<path stroke="currentColor" fill="none"
	d="M553.13 119.01v-24.00"/>
<path stroke="currentColor" fill="none"
	d="M13.33 119.01h681.60m-681.60 -6h681.60m-681.60 -6h681.60m-681.60 -6h681.60m-681.60 -6h681.60"/>
<text font-family="serif" font-size="12" font-style="italic" font-weight="normal"
	x="251.63" y="127.01" text-anchor="middle">3</text>
<text font-family="serif" font-size="12" font-style="italic" font-weight="normal"
	x="521.33" y="127.01" text-anchor="middle">3</text>
<defs>
<path id="utclef" fill="currentColor" d="m-50 -90
	c-72 -41 -72 -158 52 -188
	c150 -10 220 188 90 256
	c-114 52 -275 0 -293 -136
	c-15 -181 93 -229 220 -334
	c88 -87 79 -133 62 -210
	c-51 33 -94 105 -89 186
	c17 267 36 374 49 574
	c6 96 -19 134 -77 135
	c-80 1 -126 -93 -61 -133
	c85 -41 133 101 31 105
	c23 17 92 37 90 -92
	c-10 -223 -39 -342 -50 -617
	c0 -90 0 -162 96 -232
	c56 72 63 230 22 289
	c-74 106 -257 168 -255 316
	c9 153 148 185 252 133
	c86 -65 29 -192 -80 -176
	c-71 12 -105 67 -59 124"/>
<use id="tclef" transform="scale(0.045)"
	xlink:href="#utclef"/>
</defs>
<use x="25.33" y="119.01" xlink:href="#tclef"/>
<defs>
<path id="uflat" fill="currentColor" d="
	m100 -746
	h32
	v734
	l-32 4
	m32 -332
	c46 -72 152 -90 208 -20
	c100 110 -120 326 -208 348
	m0 -28
	c54 0 200 -206 130 -290
	c-50 -60 -130 -4 -130 34"/>
<use id="ft0" transform="translate(-3.5,3.5) scale(0.018)"
	xlink:href="#uflat"/>
</defs>
<use x="40.33" y="107.01" xlink:href="#ft0"/>
<g font-family="serif" font-size="16" font-weight="bold" font-style="normal"
	transform="translate(56.33,119.01) scale(1.2,1)">
	<text y="-1" text-anchor="middle">4</text>
	<text y="-13" text-anchor="middle">4</text>
</g>
<defs>
<path id="hl" stroke="currentColor" d="m-6 0h12"/>
</defs>
<use x="74.33" y="89.01" xlink:href="#hl"/>
<use x="74.33" y="83.01" xlink:href="#hl"/>
<use x="74.33" y="80.01" xlink:href="#hd"/>
<path d="M70.83 80.01v27.00" stroke="currentColor" fill="none"/>
<use x="106.43" y="89.01" xlink:href="#hl"/>
<use x="106.43" y="83.01" xlink:href="#hl"/>
<use x="106.43" y="80.01" xlink:href="#hd"/>
<use x="97.43" y="80.01" xlink:href="#ft0"/>
<path d="M102.93 80.01v27.00" stroke="currentColor" fill="none"/>
<path fill="currentColor"
	d="M102.93 107.01c0.6 -5.6 9.6 -9 5.6 -18.4
	c1.6 6 -1.3 11.6 -5.6 12.8
"/>
<use x="129.03" y="89.01" xlink:href="#hl"/>
<use x="129.03" y="89.01" xlink:href="#hd"/>
<path d="M125.53 89.01v20.00" stroke="currentColor" fill="none"/>
<path fill="currentColor"
	d="M125.53 109.01c0.6 -5.6 9.6 -9 5.6 -18.4
	c1.6 6 -1.3 11.6 -5.6 12.8
"/>
<use x="152.03" y="89.01" xlink:href="#hl"/>
<use x="152.03" y="83.01" xlink:href="#hl"/>
<use x="152.03" y="80.01" xlink:href="#hd"/>
<defs>
<path id="unat" fill="currentColor" d="
	m96 -750
	h-32
	v716
	l32 -8
	l182 -54
	v282
	h32
	v-706
	l-34 10
	l-180 50
	v-290
	m0 592
	v-190
	l182 -52
	v188"/>
<use id="nt0" transform="translate(-3,5) scale(0.018)"
	xlink:href="#unat"/>
</defs>
<use x="143.03" y="80.01" xlink:href="#nt0"/>
<path d="M148.53 80.01v27.00" stroke="currentColor" fill="none"/>
<use x="184.13" y="89.01" xlink:href="#hl"/>
<use x="184.13" y="83.01" xlink:href="#hl"/>
<use x="184.13" y="80.01" xlink:href="#hd"/>
<use x="175.13" y="80.01" xlink:href="#ft0"/>
<path d="M180.63 80.01v27.00" stroke="currentColor" fill="none"/>
<path fill="currentColor"
	d="M180.63 107.01c0.6 -5.6 9.6 -9 5.6 -18.4
	c1.6 6 -1.3 11.6 -5.6 12.8
"/>
<use x="206.73" y="89.01" xlink:href="#hl"/>
<use x="206.73" y="89.01" xlink:href="#hd"/>
<path d="M203.23 89.01v20.00" stroke="currentColor" fill="none"/>
<path fill="currentColor"
	d="M203.23 109.01c0.6 -5.6 9.6 -9 5.6 -18.4
	c1.6 6 -1.3 11.6 -5.6 12.8
"/>
<path fill="currentColor"
	d="M233.53 110.01l32.60 0.00v-3.20l-32.60 -0.00"/>
<use x="237.33" y="92.01" xlink:href="#hd"/>
<path d="M233.83 92.01v17.00" stroke="currentColor" fill="none"/>
<use x="253.23" y="89.01" xlink:href="#hl"/>
<use x="253.23" y="89.01" xlink:href="#hd"/>
<path d="M249.73 89.01v20.00" stroke="currentColor" fill="none"/>
<use x="269.23" y="92.01" xlink:href="#hd"/>
<path d="M265.73 92.01v17.00" stroke="currentColor" fill="none"/>
<path fill="currentColor"
	d="M283.03 119.11l26.20 4.20v-3.20l-26.20 -4.20"/>
<path fill="currentColor"
	d="M302.93 117.21l6.00 1.00v-3.20l-6.00 -1.00"/>
<use x="286.93" y="95.01" xlink:href="#hd"/>
<circle fill="currentColor" cx="294.93" cy="92.01" r="1.2"/>
<path d="M283.43 95.01v23.10" stroke="currentColor" fill="none"/>
<use x="312.43" y="101.01" xlink:href="#hd"/>
<use x="303.43" y="101.01" xlink:href="#nt0"/>
<path d="M308.93 101.01v21.20" stroke="currentColor" fill="none"/>
<use x="328.43" y="101.01" xlink:href="#hd"/>
<circle fill="currentColor" cx="336.43" cy="98.01" r="1.2"/>
<path d="M324.93 101.01v20.00" stroke="currentColor" fill="none"/>
<use x="364.73" y="95.01" xlink:href="#hd"/>
<path d="M361.23 95.01v20.00" stroke="currentColor" fill="none"/>
<path fill="currentColor"
	d="M361.23 115.01c0.6 -5.6 9.6 -9 5.6 -18.4
	c1.6 6 -1.3 11.6 -5.6 12.8
"/>
<path fill="currentColor"
	d="M391.53 117.81l24.10 2.50v-3.20l-24.10 -2.50"/>
<path fill="currentColor"
	d="M409.33 114.61l6.00 0.60v-3.20l-6.00 -0.60"/>
<use x="395.43" y="95.01" xlink:href="#hd"/>
<circle fill="currentColor" cx="403.43" cy="92.01" r="1.2"/>
<path d="M391.93 95.01v21.80" stroke="currentColor" fill="none"/>
<use x="418.83" y="98.01" xlink:href="#hd"/>
<path d="M415.33 98.01v21.20" stroke="currentColor" fill="none"/>
<path fill="currentColor"
	d="M431.03 120.31l15.20 -4.20v-3.20l-15.20 4.20"/>
<path fill="currentColor"
	d="M437.33 113.51l-6.00 1.70v-3.20l6.00 -1.70"/>
<use x="434.83" y="98.01" xlink:href="#hd"/>
<path d="M431.33 98.01v21.20" stroke="currentColor" fill="none"/>
<use x="449.33" y="89.01" xlink:href="#hl"/>
<use x="449.33" y="89.01" xlink:href="#hd"/>
<circle fill="currentColor" cx="457.33" cy="86.01" r="1.2"/>
<path d="M445.83 89.01v26.20" stroke="currentColor" fill="none"/>
<use x="475.43" y="89.01" xlink:href="#hl"/>
<use x="475.43" y="89.01" xlink:href="#hd"/>
<path d="M471.93 89.01v20.00" stroke="currentColor" fill="none"/>
<path fill="currentColor"
	d="M503.13 110.01l32.60 0.00v-3.20l-32.60 -0.00"/>
<use x="507.03" y="92.01" xlink:href="#hd"/>
<path d="M503.53 92.01v17.00" stroke="currentColor" fill="none"/>
<use x="522.93" y="89.01" xlink:href="#hl"/>
<use x="522.93" y="89.01" xlink:href="#hd"/>
<path d="M519.43 89.01v20.00" stroke="currentColor" fill="none"/>
<use x="538.93" y="92.01" xlink:href="#hd"/>
<path d="M535.43 92.01v17.00" stroke="currentColor" fill="none"/>
<use x="565.63" y="95.01" xlink:href="#hd"/>
<path d="M562.13 95.01v20.00" stroke="currentColor" fill="none"/>
<path fill="currentColor"
	d="M562.13 115.01c0.6 -5.6 9.6 -9 5.6 -18.4
	c1.6 6 -1.3 11.6 -5.6 12.8
"/>
<use x="588.13" y="101.01" xlink:href="#hd"/>
<path d="M584.63 101.01v20.00" stroke="currentColor" fill="none"/>
<path fill="currentColor"
	d="M584.63 121.01c0.6 -5.6 9.6 -9 5.6 -18.4
	c1.6 6 -1.3 11.6 -5.6 12.8
"/>
<path fill="currentColor"
	d="M606.83 119.21l24.10 0.00v-3.20l-24.10 -0.00"/>
<path fill="currentColor"
	d="M624.63 114.21l6.00 0.00v-3.20l-6.00 -0.00"/>
<use x="610.63" y="95.01" xlink:href="#hd"/>
<circle fill="currentColor" cx="618.63" cy="92.01" r="1.2"/>
<path d="M607.13 95.01v23.20" stroke="currentColor" fill="none"/>
<use x="634.13" y="95.01" xlink:href="#hd"/>
<path d="M630.63 95.01v23.20" stroke="currentColor" fill="none"/>
<use x="650.13" y="92.01" xlink:href="#hd"/>
<path d="M646.63 92.01v20.00" stroke="currentColor" fill="none"/>
<path fill="currentColor"
	d="M646.63 112.01c0.6 -5.6 9.6 -9 5.6 -18.4
	c1.6 6 -1.3 11.6 -5.6 12.8
"/>
<use x="672.63" y="101.01" xlink:href="#hd"/>
<path d="M669.13 101.01v20.00" stroke="currentColor" fill="none"/>
<path fill="currentColor"
	d="M669.13 121.01c0.6 -5.6 9.6 -9 5.6 -18.4
	c1.6 6 -1.3 11.6 -5.6 12.8
"/>
</g>
</svg>
