<?xml version="1.0" standalone="no"?>
<!DOCTYPE svg PUBLIC "-//W3C//DTD SVG 1.1//EN"
	"http://www.w3.org/Graphics/SVG/1.1/DTD/svg11.dtd">
<svg xmlns="http://www.w3.org/2000/svg" version="1.1"
	xmlns:xlink="http://www.w3.org/1999/xlink"
	xml:space='preserve' color="black"
	width="7.38in" height="1.37in" viewBox="0 0 531 99">
<title>8994.abc (8994) tune 1</title>
<!-- Creator: abcm2ps-7.8.14 -->
<!-- CreationDate: Mar 13, 2016 18:54 -->
<!-- CommandLine: -qxg 8994.abc -O ../svgs/8994.svg -->
<g transform="scale(0.750)" stroke-width="0.70" font-family="Times" font-size="20.00">
<text x="354.13" y="21.67" text-anchor="middle">8994.  Suite No. 1 in A, Cello and Pft., 1st. Mvt. - La Milanese</text>
</g>
<g transform="scale(0.750)" stroke-width="0.70" font-family="Times" font-size="14.00" font-style="italic">
<text x="694.93" y="45.34" text-anchor="end">Louis de Caix d&apos;Hervelois</text>
</g>
<g transform="scale(0.525)" stroke-width="0.70" font-family="Times" font-size="14.00" font-style="italic">
<defs>
<ellipse id="hd" rx="4.1" ry="2.9"
	transform="rotate(-20)" fill="currentColor"/>
</defs>
<use x="122.76" y="94.16" xlink:href="#hd"/>
<path d="M126.26 94.16v-20.00" stroke="currentColor" fill="none"/>
</g>
<g transform="scale(0.750)" stroke-width="0.70" font-family="Times" font-size="15.00" font-weight="bold">
<text x="93.63" y="68.01">= 120</text>
<path stroke="currentColor" fill="none"
	d="M221.43 108.61v-24.00"/>
<path stroke="currentColor" fill="none"
	d="M352.93 108.61v-24.00"/>
<path stroke="currentColor" fill="none"
	d="M501.83 108.61v-24.00"/>
<path stroke="currentColor" fill="none"
	d="M694.93 108.61v-24.00"/>
<path stroke="currentColor" fill="none"
	d="M13.33 108.61h681.60m-681.60 -6h681.60m-681.60 -6h681.60m-681.60 -6h681.60m-681.60 -6h681.60"/>
<path stroke="currentColor" fill="none"
	d="M535.83 76.71v-3l72.10 -23.00v3"/>
<rect x="564.93" y="56.21" width="14.00" height="12" fill="white"/>
<text font-family="serif" font-size="12" font-style="italic" font-weight="normal"
	x="571.93" y="66.21" text-anchor="middle">3</text>
<defs>
<path id="utclef" fill="currentColor" d="m-50 -90
	c-72 -41 -72 -158 52 -188
	c150 -10 220 188 90 256
	c-114 52 -275 0 -293 -136
	c-15 -181 93 -229 220 -334
	c88 -87 79 -133 62 -210
	c-51 33 -94 105 -89 186
	c17 267 36 374 49 574
	c6 96 -19 134 -77 135
	c-80 1 -126 -93 -61 -133
	c85 -41 133 101 31 105
	c23 17 92 37 90 -92
	c-10 -223 -39 -342 -50 -617
	c0 -90 0 -162 96 -232
	c56 72 63 230 22 289
	c-74 106 -257 168 -255 316
	c9 153 148 185 252 133
	c86 -65 29 -192 -80 -176
	c-71 12 -105 67 -59 124"/>
<use id="tclef" transform="scale(0.045)"
	xlink:href="#utclef"/>
</defs>
<use x="25.33" y="108.61" xlink:href="#tclef"/>
<defs>
<path id="usharp" fill="currentColor" d="
	m136 -702
	v890
	h32
	v-890
	m128 840
	h32
	v-888
	h-32
	m-232 286
	v116
	l338 -96
	v-116
	m-338 442
	v116
	l338 -98
	v-114"/>
<use id="sh0" transform="translate(-4,5) scale(0.018)"
	xlink:href="#usharp"/>
</defs>
<use x="40.33" y="84.61" xlink:href="#sh0"/>
<use x="45.83" y="93.61" xlink:href="#sh0"/>
<use x="51.33" y="81.61" xlink:href="#sh0"/>
<g font-family="serif" font-size="16" font-weight="bold" font-style="normal"
	transform="translate(67.33,108.61) scale(1.2,1)">
	<text y="-1" text-anchor="middle">8</text>
	<text y="-13" text-anchor="middle">6</text>
</g>
<path fill="currentColor"
	d="M88.53 81.91l46.00 -3.20v3.20l-46.00 3.20"/>
<use x="85.33" y="108.61" xlink:href="#hd"/>
<path d="M88.83 108.61v-25.60" stroke="currentColor" fill="none"/>
<use x="108.03" y="99.61" xlink:href="#hd"/>
<path d="M111.53 99.61v-18.20" stroke="currentColor" fill="none"/>
<use x="130.73" y="102.61" xlink:href="#hd"/>
<path d="M134.23 102.61v-22.80" stroke="currentColor" fill="none"/>
<path fill="currentColor"
	d="M159.03 77.41l46.00 0.00v3.20l-46.00 -0.00"/>
<use x="155.83" y="99.61" xlink:href="#hd"/>
<path d="M159.33 99.61v-21.20" stroke="currentColor" fill="none"/>
<use x="178.53" y="96.61" xlink:href="#hd"/>
<path d="M182.03 96.61v-18.20" stroke="currentColor" fill="none"/>
<use x="201.23" y="99.61" xlink:href="#hd"/>
<path d="M204.73 99.61v-21.20" stroke="currentColor" fill="none"/>
<path fill="currentColor"
	d="M230.43 118.81l49.40 0.00v-3.20l-49.40 -0.00"/>
<path fill="currentColor"
	d="M273.43 113.81l6.00 0.00v-3.20l-6.00 -0.00"/>
<use x="234.23" y="96.61" xlink:href="#hd"/>
<path d="M230.73 96.61v21.20" stroke="currentColor" fill="none"/>
<use x="256.93" y="93.61" xlink:href="#hd"/>
<circle fill="currentColor" cx="264.93" cy="93.61" r="1.2"/>
<path d="M253.43 93.61v24.20" stroke="currentColor" fill="none"/>
<use x="282.93" y="96.61" xlink:href="#hd"/>
<path d="M279.43 96.61v21.20" stroke="currentColor" fill="none"/>
<use x="299.03" y="99.61" xlink:href="#hd"/>
<path d="M302.53 99.61v-20.00" stroke="currentColor" fill="none"/>
<path fill="currentColor"
	d="	M302.53 79.61c0.6 5.6 9.6 9 5.6 18.4
	c1.6 -6 -1.3 -11.6 -5.6 -12.8
"/>
<defs>
<path id="hl" stroke="currentColor" d="m-6 0h12"/>
</defs>
<use x="324.43" y="114.61" xlink:href="#hl"/>
<use x="324.43" y="120.61" xlink:href="#hl"/>
<use x="324.43" y="120.61" xlink:href="#hd"/>
<path d="M327.93 120.61v-24.00" stroke="currentColor" fill="none"/>
<path fill="currentColor"
	d="M361.93 108.81l46.00 0.00v-3.20l-46.00 -0.00"/>
<use x="365.73" y="87.61" xlink:href="#hd"/>
<path d="M362.23 87.61v20.20" stroke="currentColor" fill="none"/>
<use x="388.43" y="90.61" xlink:href="#hd"/>
<path d="M384.93 90.61v17.20" stroke="currentColor" fill="none"/>
<use x="411.13" y="87.61" xlink:href="#hd"/>
<path d="M407.63 87.61v20.20" stroke="currentColor" fill="none"/>
<path fill="currentColor"
	d="M432.43 111.51l46.00 0.00v-3.20l-46.00 -0.00"/>
<use x="436.23" y="90.61" xlink:href="#hd"/>
<path d="M432.73 90.61v20.00" stroke="currentColor" fill="none"/>
<use x="458.93" y="93.61" xlink:href="#hd"/>
<path d="M455.43 93.61v17.00" stroke="currentColor" fill="none"/>
<use x="481.63" y="90.61" xlink:href="#hd"/>
<path d="M478.13 90.61v20.00" stroke="currentColor" fill="none"/>
<use x="514.63" y="93.61" xlink:href="#hd"/>
<path d="M511.13 93.61v20.00" stroke="currentColor" fill="none"/>
<path fill="currentColor"
	d="M511.13 113.61c0.6 -5.6 9.6 -9 5.6 -18.4
	c1.6 6 -1.3 11.6 -5.6 12.8
"/>
<use x="539.83" y="96.61" xlink:href="#hd"/>
<path d="M536.33 96.61v20.00" stroke="currentColor" fill="none"/>
<use x="567.93" y="96.61" xlink:href="#hd"/>
<path d="M564.43 96.61v22.00" stroke="currentColor" fill="none"/>
<path fill="currentColor"
	d="M564.43 118.61c0.9 -3.7 9.1 -6.4 6 -12.4
	c1 5.4 -4.2 8.4 -6 8.4
M564.43 113.21c0.9 -3.7 9.1 -6.4 6 -12.4
	c1 5.4 -4.2 8.4 -6 8.4
"/>
<defs>
<path id="ubclef" fill="currentColor" d="m-200 -87
	c124 -35 222 -78 254 -236
	c43 -228 -167 -246 -192 -103
	c59 -80 157 22 92 78
	c-62 47 -115 -22 -106 -88
	c21 -141 270 -136 274 52
	c-1 175 -106 264 -322 297
	m357 -250
	c0 -36 51 -34 51 0
	c0 37 -51 36 -51 0
	m-2 -129
	c0 -36 51 -34 51 0
	c0 38 -51 37 -51 0"/>
<use id="sbclef" transform="translate(0,-3.5) scale(0.037)"
	xlink:href="#ubclef"/>
</defs>
<use x="584.43" y="108.61" xlink:href="#sbclef"/>
<use x="598.93" y="78.61" xlink:href="#hl"/>
<use x="598.93" y="72.61" xlink:href="#hl"/>
<use x="598.93" y="72.61" xlink:href="#hd"/>
<path d="M595.43 72.61v24.00" stroke="currentColor" fill="none"/>
<use x="626.93" y="78.61" xlink:href="#hl"/>
<use x="626.93" y="72.61" xlink:href="#hl"/>
<use x="626.93" y="72.61" xlink:href="#hd"/>
<path d="M623.43 72.61v24.00" stroke="currentColor" fill="none"/>
<path fill="currentColor"
	d="M623.43 96.61c0.9 -3.7 9.1 -6.4 6 -12.4
	c1 5.4 -4.2 8.4 -6 8.4
M623.43 91.21c0.9 -3.7 9.1 -6.4 6 -12.4
	c1 5.4 -4.2 8.4 -6 8.4
"/>
<use x="644.83" y="93.61" xlink:href="#hd"/>
<path d="M641.33 93.61v20.00" stroke="currentColor" fill="none"/>
<use x="680.53" y="93.61" xlink:href="#hd"/>
<path d="M677.03 93.61v22.00" stroke="currentColor" fill="none"/>
<path fill="currentColor"
	d="M677.03 115.61c0.9 -3.7 9.1 -6.4 6 -12.4
	c1 5.4 -4.2 8.4 -6 8.4
M677.03 110.21c0.9 -3.7 9.1 -6.4 6 -12.4
	c1 5.4 -4.2 8.4 -6 8.4
"/>
<path fill="currentColor"
	d="M543.33 96.61c3.31 -4.88 17.73 -4.88 21.04 -0.00
	l0.00 -0.22c-3.95 -6.66 -17.10 -6.66 -21.04 0.22"/>
<path fill="currentColor"
	d="M602.43 72.61c3.31 -4.88 17.73 -4.88 21.04 -0.00
	l0.00 -0.22c-3.95 -6.66 -17.10 -6.66 -21.04 0.22"/>
<path fill="currentColor"
	d="M648.33 91.61c4.53 -5.02 24.23 -5.02 28.76 -0.00
	l0.00 -0.23c-5.39 -6.79 -23.37 -6.79 -28.76 0.23"/>
</g>
</svg>
