<?xml version="1.0" standalone="no"?>
<!DOCTYPE svg PUBLIC "-//W3C//DTD SVG 1.1//EN"
	"http://www.w3.org/Graphics/SVG/1.1/DTD/svg11.dtd">
<svg xmlns="http://www.w3.org/2000/svg" version="1.1"
	xmlns:xlink="http://www.w3.org/1999/xlink"
	xml:space='preserve' color="black"
	width="7.38in" height="1.34in" viewBox="0 0 531 97">
<title>8999.abc (8999) tune 1</title>
<!-- Creator: abcm2ps-7.8.14 -->
<!-- CreationDate: Mar 13, 2016 18:54 -->
<!-- CommandLine: -qxg 8999.abc -O ../svgs/8999.svg -->
<g transform="scale(0.750)" stroke-width="0.70" font-family="Times" font-size="20.00">
<text x="354.13" y="21.67" text-anchor="middle">8999.  Suite No. 2 in D Minor, Vcl. and Pft., 1st. Mvt. - Prelude</text>
</g>
<g transform="scale(0.750)" stroke-width="0.70" font-family="Times" font-size="14.00" font-style="italic">
<text x="694.93" y="45.34" text-anchor="end">Louis de Caix d&apos;Hervelois</text>
</g>
<g transform="scale(0.525)" stroke-width="0.70" font-family="Times" font-size="14.00" font-style="italic">
<defs>
<ellipse id="hd" rx="4.1" ry="2.9"
	transform="rotate(-20)" fill="currentColor"/>
</defs>
<use x="107.04" y="94.16" xlink:href="#hd"/>
<path d="M110.54 94.16v-20.00" stroke="currentColor" fill="none"/>
</g>
<g transform="scale(0.750)" stroke-width="0.70" font-family="Times" font-size="15.00" font-weight="bold">
<text x="82.63" y="68.01">= 120</text>
<path stroke="currentColor" fill="none"
	d="M285.43 106.01v-24.00"/>
<path stroke="currentColor" fill="none"
	d="M444.63 106.01v-24.00"/>
<path stroke="currentColor" fill="none"
	d="M631.23 106.01v-24.00"/>
<path stroke="currentColor" fill="none"
	d="M13.33 106.01h681.60m-681.60 -6h681.60m-681.60 -6h681.60m-681.60 -6h681.60m-681.60 -6h681.60"/>
<defs>
<path id="utclef" fill="currentColor" d="m-50 -90
	c-72 -41 -72 -158 52 -188
	c150 -10 220 188 90 256
	c-114 52 -275 0 -293 -136
	c-15 -181 93 -229 220 -334
	c88 -87 79 -133 62 -210
	c-51 33 -94 105 -89 186
	c17 267 36 374 49 574
	c6 96 -19 134 -77 135
	c-80 1 -126 -93 -61 -133
	c85 -41 133 101 31 105
	c23 17 92 37 90 -92
	c-10 -223 -39 -342 -50 -617
	c0 -90 0 -162 96 -232
	c56 72 63 230 22 289
	c-74 106 -257 168 -255 316
	c9 153 148 185 252 133
	c86 -65 29 -192 -80 -176
	c-71 12 -105 67 -59 124"/>
<use id="tclef" transform="scale(0.045)"
	xlink:href="#utclef"/>
</defs>
<use x="25.33" y="106.01" xlink:href="#tclef"/>
<defs>
<path id="uflat" fill="currentColor" d="
	m100 -746
	h32
	v734
	l-32 4
	m32 -332
	c46 -72 152 -90 208 -20
	c100 110 -120 326 -208 348
	m0 -28
	c54 0 200 -206 130 -290
	c-50 -60 -130 -4 -130 34"/>
<use id="ft0" transform="translate(-3.5,3.5) scale(0.018)"
	xlink:href="#uflat"/>
</defs>
<use x="40.33" y="94.01" xlink:href="#ft0"/>
<g font-family="serif" font-size="16" font-weight="bold" font-style="normal"
	transform="translate(56.33,106.01) scale(1.2,1)">
	<text y="-1" text-anchor="middle">4</text>
	<text y="-13" text-anchor="middle">4</text>
</g>
<path fill="currentColor"
	d="M70.53 112.21l38.50 -3.00v-3.20l-38.50 3.00"/>
<path fill="currentColor"
	d="M97.03 105.21l11.60 -0.90v-3.20l-11.60 0.90"/>
<path fill="currentColor"
	d="M97.03 100.21l11.60 -0.90v-3.20l-11.60 0.90"/>
<use x="74.33" y="88.01" xlink:href="#hd"/>
<circle fill="currentColor" cx="82.33" cy="85.01" r="1.2"/>
<path d="M70.83 88.01v23.20" stroke="currentColor" fill="none"/>
<use x="100.53" y="85.01" xlink:href="#hd"/>
<path d="M97.03 85.01v24.20" stroke="currentColor" fill="none"/>
<use x="112.13" y="82.01" xlink:href="#hd"/>
<path d="M108.63 82.01v26.30" stroke="currentColor" fill="none"/>
<use x="125.03" y="85.01" xlink:href="#hd"/>
<path d="M121.53 85.01v20.00" stroke="currentColor" fill="none"/>
<defs>
<path id="r8e" fill="currentColor" d="m 0 0
	c-1.5 1.5 -2.4 2 -3.6 2
	c2.4 -2.8 -2.8 -4 -2.8 -1.2
	c0 2.7 4.3 2.4 5.9 0.6"/>
<g id="r32">
	<path d="m4.8 -10l-5.5 21.6" stroke="currentColor" fill="none"/>
	<use x="4.9" y="-10" xlink:href="#r8e"/>
	<use x="3.4" y="-4" xlink:href="#r8e"/>
	<use x="1.9" y="2" xlink:href="#r8e"/>
</g>
</defs>
<use x="157.33" y="94.01" xlink:href="#r32"/>
<use x="170.13" y="79.01" xlink:href="#hd"/>
<circle fill="currentColor" cx="178.13" cy="79.01" r="1.2"/>
<path d="M166.63 79.01v22.00" stroke="currentColor" fill="none"/>
<path fill="currentColor"
	d="M166.63 101.01c0.9 -3.7 9.1 -6.4 6 -12.4
	c1 5.4 -4.2 8.4 -6 8.4
M166.63 95.61c0.9 -3.7 9.1 -6.4 6 -12.4
	c1 5.4 -4.2 8.4 -6 8.4
"/>
<path fill="currentColor"
	d="M187.03 105.01l17.00 2.30v-3.20l-17.00 -2.30"/>
<path fill="currentColor"
	d="M187.33 100.01l16.30 2.20v-3.20l-16.30 -2.20"/>
<use x="190.83" y="82.01" xlink:href="#hd"/>
<path d="M187.33 82.01v22.00" stroke="currentColor" fill="none"/>
<use x="207.13" y="85.01" xlink:href="#hd"/>
<path d="M203.63 85.01v21.20" stroke="currentColor" fill="none"/>
<use x="223.43" y="94.01" xlink:href="#r32"/>
<path fill="currentColor"
	d="M232.43 107.01l35.40 0.00v-3.20l-35.40 -0.00"/>
<path fill="currentColor"
	d="M255.93 102.01l11.60 0.00v-3.20l-11.60 -0.00"/>
<path fill="currentColor"
	d="M261.93 97.01l-6.00 -0.00v-3.20l6.00 0.00"/>
<use x="236.23" y="82.01" xlink:href="#hd"/>
<path d="M232.73 82.01v24.00" stroke="currentColor" fill="none"/>
<use x="259.43" y="82.01" xlink:href="#hd"/>
<path d="M255.93 82.01v24.00" stroke="currentColor" fill="none"/>
<use x="270.93" y="85.01" xlink:href="#hd"/>
<path d="M267.43 85.01v21.00" stroke="currentColor" fill="none"/>
<use x="298.43" y="88.01" xlink:href="#hd"/>
<path d="M294.93 88.01v20.00" stroke="currentColor" fill="none"/>
<path fill="currentColor"
	d="M294.93 108.01c0.6 -5.6 9.6 -9 5.6 -18.4
	c1.6 6 -1.3 11.6 -5.6 12.8
"/>
<defs>
<path id="hl" stroke="currentColor" d="m-6 0h12"/>
</defs>
<use x="323.83" y="76.01" xlink:href="#hl"/>
<use x="323.83" y="73.01" xlink:href="#hd"/>
<path d="M320.33 73.01v21.00" stroke="currentColor" fill="none"/>
<path fill="currentColor"
	d="M320.33 94.01c0.6 -5.6 9.6 -9 5.6 -18.4
	c1.6 6 -1.3 11.6 -5.6 12.8
"/>
<use x="349.33" y="76.01" xlink:href="#hl"/>
<use x="349.33" y="73.01" xlink:href="#hd"/>
<circle fill="currentColor" cx="357.33" cy="73.01" r="1.2"/>
<path d="M345.83 73.01v21.00" stroke="currentColor" fill="none"/>
<use x="390.43" y="76.01" xlink:href="#hl"/>
<use x="390.43" y="76.01" xlink:href="#hd"/>
<path d="M386.93 76.01v20.00" stroke="currentColor" fill="none"/>
<path fill="currentColor"
	d="M386.93 96.01c0.6 -5.6 9.6 -9 5.6 -18.4
	c1.6 6 -1.3 11.6 -5.6 12.8
"/>
<use x="415.83" y="88.01" xlink:href="#hd"/>
<path d="M412.33 88.01v20.00" stroke="currentColor" fill="none"/>
<use x="457.53" y="79.01" xlink:href="#hd"/>
<path d="M454.03 79.01v20.00" stroke="currentColor" fill="none"/>
<path fill="currentColor"
	d="M454.03 99.01c0.6 -5.6 9.6 -9 5.6 -18.4
	c1.6 6 -1.3 11.6 -5.6 12.8
"/>
<path fill="currentColor"
	d="M479.43 107.21l35.40 6.00v-3.20l-35.40 -6.00"/>
<path fill="currentColor"
	d="M479.73 102.31l34.70 5.90v-3.20l-34.70 -5.90"/>
<path fill="currentColor"
	d="M479.73 97.31l34.70 5.90v-3.20l-34.70 -5.90"/>
<use x="483.23" y="79.01" xlink:href="#hd"/>
<path d="M479.73 79.01v27.30" stroke="currentColor" fill="none"/>
<use x="494.83" y="82.01" xlink:href="#hd"/>
<path d="M491.33 82.01v26.20" stroke="currentColor" fill="none"/>
<use x="506.33" y="85.01" xlink:href="#hd"/>
<path d="M502.83 85.01v25.20" stroke="currentColor" fill="none"/>
<use x="517.93" y="88.01" xlink:href="#hd"/>
<path d="M514.43 88.01v24.20" stroke="currentColor" fill="none"/>
<use x="535.93" y="88.01" xlink:href="#hd"/>
<circle fill="currentColor" cx="543.93" cy="85.01" r="1.2"/>
<use x="526.93" y="88.01" xlink:href="#ft0"/>
<path d="M532.43 88.01v20.00" stroke="currentColor" fill="none"/>
<use x="576.93" y="82.01" xlink:href="#hd"/>
<path d="M573.43 82.01v20.00" stroke="currentColor" fill="none"/>
<path fill="currentColor"
	d="M573.43 102.01c0.6 -5.6 9.6 -9 5.6 -18.4
	c1.6 6 -1.3 11.6 -5.6 12.8
"/>
<use x="602.43" y="82.01" xlink:href="#hd"/>
<path d="M598.93 82.01v20.00" stroke="currentColor" fill="none"/>
<use x="644.13" y="82.01" xlink:href="#hd"/>
<path d="M640.63 82.01v20.00" stroke="currentColor" fill="none"/>
<path fill="currentColor"
	d="M640.63 102.01c0.6 -5.6 9.6 -9 5.6 -18.4
	c1.6 6 -1.3 11.6 -5.6 12.8
"/>
<use x="669.53" y="85.01" xlink:href="#hd"/>
<path d="M666.03 85.01v20.00" stroke="currentColor" fill="none"/>
<path fill="currentColor"
	d="M666.03 105.01c0.6 -5.6 9.6 -9 5.6 -18.4
	c1.6 6 -1.3 11.6 -5.6 12.8
"/>
<path fill="currentColor"
	d="M239.73 82.01c2.55 -4.79 13.61 -4.79 16.16 -0.00
	l0.00 -0.22c-3.03 -6.57 -13.13 -6.57 -16.16 0.22"/>
<path fill="currentColor"
	d="M461.03 77.01c2.94 -4.84 15.74 -4.84 18.68 -0.00
	l0.00 -0.22c-3.50 -6.62 -15.18 -6.62 -18.68 0.22"/>
<path fill="currentColor"
	d="M605.93 82.01c5.46 -5.12 29.23 -5.12 34.69 -0.00
	l0.00 -0.23c-6.50 -6.89 -28.19 -6.89 -34.69 0.23"/>
</g>
</svg>
