<?xml version="1.0" standalone="no"?>
<!DOCTYPE svg PUBLIC "-//W3C//DTD SVG 1.1//EN"
	"http://www.w3.org/Graphics/SVG/1.1/DTD/svg11.dtd">
<svg xmlns="http://www.w3.org/2000/svg" version="1.1"
	xmlns:xlink="http://www.w3.org/1999/xlink"
	xml:space='preserve' color="black"
	width="7.38in" height="1.49in" viewBox="0 0 531 107">
<title>9079.abc (9079) tune 1</title>
<!-- Creator: abcm2ps-7.8.14 -->
<!-- CreationDate: Mar 13, 2016 18:54 -->
<!-- CommandLine: -qxg 9079.abc -O ../svgs/9079.svg -->
<g transform="scale(0.750)" stroke-width="0.70" font-family="Times" font-size="20.00">
<text x="354.13" y="21.67" text-anchor="middle">9079.  Le Roi Malgre Lui, Orch. - Prelude</text>
</g>
<g transform="scale(0.750)" stroke-width="0.70" font-family="Times" font-size="14.00" font-style="italic">
<text x="694.93" y="45.34" text-anchor="end">Alexis Emmanuel Chabrier</text>
</g>
<g transform="scale(0.525)" stroke-width="0.70" font-family="Times" font-size="14.00" font-style="italic">
<defs>
<ellipse id="hd" rx="4.1" ry="2.9"
	transform="rotate(-20)" fill="currentColor"/>
</defs>
<use x="130.61" y="94.16" xlink:href="#hd"/>
<path d="M134.11 94.16v-20.00" stroke="currentColor" fill="none"/>
</g>
<g transform="scale(0.750)" stroke-width="0.70" font-family="Times" font-size="15.00" font-weight="bold">
<text x="99.13" y="68.01">= 120</text>
<path stroke="currentColor" fill="none"
	d="M148.13 120.01v-24.00"/>
<path stroke="currentColor" fill="none"
	d="M218.03 120.01v-24.00"/>
<path stroke="currentColor" fill="none"
	d="M306.23 120.01v-24.00"/>
<path stroke="currentColor" fill="none"
	d="M386.13 120.01v-24.00"/>
<path stroke="currentColor" fill="none"
	d="M456.03 120.01v-24.00"/>
<path stroke="currentColor" fill="none"
	d="M573.53 120.01v-24.00"/>
<path stroke="currentColor" fill="none"
	d="M661.73 120.01v-24.00"/>
<path stroke="currentColor" fill="none"
	d="M13.33 120.01h681.60m-681.60 -6h681.60m-681.60 -6h681.60m-681.60 -6h681.60m-681.60 -6h681.60"/>
<path stroke="currentColor" fill="none"
	d="M484.03 62.81v-3l29.00 9.00v3"/>
<rect x="491.53" y="58.31" width="14.00" height="12" fill="white"/>
<text font-family="serif" font-size="12" font-style="italic" font-weight="normal"
	x="498.53" y="68.31" text-anchor="middle">3</text>
<defs>
<path id="utclef" fill="currentColor" d="m-50 -90
	c-72 -41 -72 -158 52 -188
	c150 -10 220 188 90 256
	c-114 52 -275 0 -293 -136
	c-15 -181 93 -229 220 -334
	c88 -87 79 -133 62 -210
	c-51 33 -94 105 -89 186
	c17 267 36 374 49 574
	c6 96 -19 134 -77 135
	c-80 1 -126 -93 -61 -133
	c85 -41 133 101 31 105
	c23 17 92 37 90 -92
	c-10 -223 -39 -342 -50 -617
	c0 -90 0 -162 96 -232
	c56 72 63 230 22 289
	c-74 106 -257 168 -255 316
	c9 153 148 185 252 133
	c86 -65 29 -192 -80 -176
	c-71 12 -105 67 -59 124"/>
<use id="tclef" transform="scale(0.045)"
	xlink:href="#utclef"/>
</defs>
<use x="25.33" y="120.01" xlink:href="#tclef"/>
<defs>
<path id="usharp" fill="currentColor" d="
	m136 -702
	v890
	h32
	v-890
	m128 840
	h32
	v-888
	h-32
	m-232 286
	v116
	l338 -96
	v-116
	m-338 442
	v116
	l338 -98
	v-114"/>
<use id="sh0" transform="translate(-4,5) scale(0.018)"
	xlink:href="#usharp"/>
</defs>
<use x="40.33" y="96.01" xlink:href="#sh0"/>
<use x="45.83" y="105.01" xlink:href="#sh0"/>
<use x="51.33" y="93.01" xlink:href="#sh0"/>
<use x="56.83" y="102.01" xlink:href="#sh0"/>
<g font-family="serif" font-size="16" font-weight="bold" font-style="normal"
	transform="translate(72.83,120.01) scale(1.2,1)">
	<text y="-1" text-anchor="middle">4</text>
	<text y="-13" text-anchor="middle">3</text>
</g>
<defs>
<path id="hl" stroke="currentColor" d="m-6 0h12"/>
</defs>
<use x="90.83" y="90.01" xlink:href="#hl"/>
<use x="90.83" y="84.01" xlink:href="#hl"/>
<use x="90.83" y="78.01" xlink:href="#hl"/>
<use x="90.83" y="78.01" xlink:href="#hd"/>
<path d="M87.33 78.01v30.00" stroke="currentColor" fill="none"/>
<use x="117.83" y="90.01" xlink:href="#hl"/>
<use x="117.83" y="84.01" xlink:href="#hl"/>
<defs>
<path id="Hd" fill="currentColor" d="m3 -1.6
	c-1 -1.8 -7 1.4 -6 3.2
	c1 1.8 7 -1.4 6 -3.2
	m0.5 -0.3
	c2 3.8 -5 7.6 -7 3.8
	c-2 -3.8 5 -7.6 7 -3.8"/>
</defs>
<use x="117.83" y="84.01" xlink:href="#Hd"/>
<path d="M114.33 84.01v24.00" stroke="currentColor" fill="none"/>
<use x="160.63" y="90.01" xlink:href="#hl"/>
<use x="160.63" y="84.01" xlink:href="#hl"/>
<use x="160.63" y="78.01" xlink:href="#hl"/>
<use x="160.63" y="78.01" xlink:href="#hd"/>
<path d="M157.13 78.01v30.00" stroke="currentColor" fill="none"/>
<use x="187.63" y="90.01" xlink:href="#hl"/>
<use x="187.63" y="84.01" xlink:href="#hl"/>
<use x="187.63" y="78.01" xlink:href="#hl"/>
<use x="187.63" y="75.01" xlink:href="#Hd"/>
<path d="M184.13 75.01v33.00" stroke="currentColor" fill="none"/>
<use x="230.53" y="90.01" xlink:href="#hl"/>
<use x="230.53" y="84.01" xlink:href="#hl"/>
<use x="230.53" y="78.01" xlink:href="#hl"/>
<use x="230.53" y="78.01" xlink:href="#hd"/>
<path d="M227.03 78.01v30.00" stroke="currentColor" fill="none"/>
<use x="257.53" y="90.01" xlink:href="#hl"/>
<use x="257.53" y="84.01" xlink:href="#hl"/>
<use x="257.53" y="84.01" xlink:href="#hd"/>
<path d="M254.03 84.01v24.00" stroke="currentColor" fill="none"/>
<use x="284.53" y="90.01" xlink:href="#hl"/>
<use x="284.53" y="84.01" xlink:href="#hl"/>
<use x="284.53" y="78.01" xlink:href="#hl"/>
<use x="284.53" y="78.01" xlink:href="#hd"/>
<path d="M281.03 78.01v30.00" stroke="currentColor" fill="none"/>
<use x="318.73" y="90.01" xlink:href="#hl"/>
<use x="318.73" y="84.01" xlink:href="#hl"/>
<use x="318.73" y="78.01" xlink:href="#hl"/>
<use x="318.73" y="75.01" xlink:href="#hd"/>
<circle fill="currentColor" cx="326.73" cy="75.01" r="1.2"/>
<path d="M315.23 75.01v33.00" stroke="currentColor" fill="none"/>
<path fill="currentColor"
	d="M315.23 108.01c0.6 -5.6 9.6 -9 5.6 -18.4
	c1.6 6 -1.3 11.6 -5.6 12.8
"/>
<use x="341.63" y="90.01" xlink:href="#hl"/>
<use x="341.63" y="84.01" xlink:href="#hl"/>
<use x="341.63" y="78.01" xlink:href="#hl"/>
<use x="341.63" y="75.01" xlink:href="#hd"/>
<path d="M338.13 75.01v33.00" stroke="currentColor" fill="none"/>
<path fill="currentColor"
	d="M338.13 108.01c0.9 -3.7 9.1 -6.4 6 -12.4
	c1 5.4 -4.2 8.4 -6 8.4
M338.13 102.61c0.9 -3.7 9.1 -6.4 6 -12.4
	c1 5.4 -4.2 8.4 -6 8.4
"/>
<use x="355.83" y="90.01" xlink:href="#hl"/>
<use x="355.83" y="84.01" xlink:href="#hl"/>
<use x="355.83" y="78.01" xlink:href="#hl"/>
<use x="355.83" y="75.01" xlink:href="#Hd"/>
<path d="M352.33 75.01v33.00" stroke="currentColor" fill="none"/>
<use x="398.63" y="90.01" xlink:href="#hl"/>
<use x="398.63" y="84.01" xlink:href="#hl"/>
<use x="398.63" y="78.01" xlink:href="#hl"/>
<use x="398.63" y="72.01" xlink:href="#hl"/>
<use x="398.63" y="72.01" xlink:href="#hd"/>
<path d="M395.13 72.01v36.00" stroke="currentColor" fill="none"/>
<use x="425.63" y="90.01" xlink:href="#hl"/>
<use x="425.63" y="84.01" xlink:href="#hl"/>
<use x="425.63" y="84.01" xlink:href="#Hd"/>
<path d="M422.13 84.01v24.00" stroke="currentColor" fill="none"/>
<use x="468.53" y="90.01" xlink:href="#hl"/>
<use x="468.53" y="84.01" xlink:href="#hl"/>
<use x="468.53" y="78.01" xlink:href="#hl"/>
<use x="468.53" y="72.01" xlink:href="#hl"/>
<use x="468.53" y="72.01" xlink:href="#hd"/>
<path d="M465.03 72.01v36.00" stroke="currentColor" fill="none"/>
<path fill="currentColor"
	d="M465.03 108.01c0.6 -5.6 9.6 -9 5.6 -18.4
	c1.6 6 -1.3 11.6 -5.6 12.8
"/>
<path fill="currentColor"
	d="M484.13 109.01l50.20 0.00v-3.20l-50.20 -0.00"/>
<path fill="currentColor"
	d="M484.53 104.01l49.50 0.00v-3.20l-49.50 -0.00"/>
<path fill="currentColor"
	d="M528.03 99.01l6.00 0.00v-3.20l-6.00 -0.00"/>
<use x="488.03" y="90.01" xlink:href="#hl"/>
<use x="488.03" y="84.01" xlink:href="#hl"/>
<use x="488.03" y="78.01" xlink:href="#hl"/>
<use x="488.03" y="75.01" xlink:href="#hd"/>
<path d="M484.53 75.01v33.00" stroke="currentColor" fill="none"/>
<use x="498.53" y="90.01" xlink:href="#hl"/>
<use x="498.53" y="84.01" xlink:href="#hl"/>
<use x="498.53" y="81.01" xlink:href="#hd"/>
<path d="M495.03 81.01v27.00" stroke="currentColor" fill="none"/>
<use x="509.03" y="90.01" xlink:href="#hl"/>
<use x="509.03" y="87.01" xlink:href="#hd"/>
<path d="M505.53 87.01v21.00" stroke="currentColor" fill="none"/>
<use x="519.53" y="90.01" xlink:href="#hl"/>
<use x="519.53" y="84.01" xlink:href="#hl"/>
<use x="519.53" y="84.01" xlink:href="#hd"/>
<circle fill="currentColor" cx="527.53" cy="81.01" r="1.2"/>
<path d="M516.03 84.01v24.00" stroke="currentColor" fill="none"/>
<use x="537.53" y="90.01" xlink:href="#hl"/>
<use x="537.53" y="84.01" xlink:href="#hl"/>
<use x="537.53" y="84.01" xlink:href="#hd"/>
<path d="M534.03 84.01v24.00" stroke="currentColor" fill="none"/>
<use x="548.03" y="90.01" xlink:href="#hl"/>
<use x="548.03" y="84.01" xlink:href="#hl"/>
<use x="548.03" y="84.01" xlink:href="#hd"/>
<circle fill="currentColor" cx="556.03" cy="81.01" r="1.2"/>
<path d="M544.53 84.01v24.00" stroke="currentColor" fill="none"/>
<use x="586.03" y="90.01" xlink:href="#hl"/>
<use x="586.03" y="84.01" xlink:href="#hl"/>
<use x="586.03" y="78.01" xlink:href="#hl"/>
<use x="586.03" y="72.01" xlink:href="#hl"/>
<use x="586.03" y="72.01" xlink:href="#hd"/>
<path d="M582.53 72.01v36.00" stroke="currentColor" fill="none"/>
<use x="613.03" y="90.01" xlink:href="#hl"/>
<use x="613.03" y="84.01" xlink:href="#hl"/>
<use x="613.03" y="84.01" xlink:href="#hd"/>
<path d="M609.53 84.01v24.00" stroke="currentColor" fill="none"/>
<use x="640.03" y="90.01" xlink:href="#hl"/>
<use x="640.03" y="84.01" xlink:href="#hl"/>
<use x="640.03" y="78.01" xlink:href="#hl"/>
<use x="640.03" y="72.01" xlink:href="#hl"/>
<use x="640.03" y="72.01" xlink:href="#hd"/>
<path d="M636.53 72.01v36.00" stroke="currentColor" fill="none"/>
<use x="674.23" y="90.01" xlink:href="#hl"/>
<use x="674.23" y="84.01" xlink:href="#hl"/>
<use x="674.23" y="78.01" xlink:href="#hl"/>
<use x="674.23" y="78.01" xlink:href="#hd"/>
<circle fill="currentColor" cx="682.23" cy="75.01" r="1.2"/>
<path d="M670.73 78.01v30.00" stroke="currentColor" fill="none"/>
<path fill="currentColor"
	d="M670.73 108.01c0.6 -5.6 9.6 -9 5.6 -18.4
	c1.6 6 -1.3 11.6 -5.6 12.8
"/>
</g>
</svg>
