<?xml version="1.0" standalone="no"?>
<!DOCTYPE svg PUBLIC "-//W3C//DTD SVG 1.1//EN"
	"http://www.w3.org/Graphics/SVG/1.1/DTD/svg11.dtd">
<svg xmlns="http://www.w3.org/2000/svg" version="1.1"
	xmlns:xlink="http://www.w3.org/1999/xlink"
	xml:space='preserve' color="black"
	width="7.38in" height="1.45in" viewBox="0 0 531 104">
<title>9111.abc (9111) tune 1</title>
<!-- Creator: abcm2ps-7.8.14 -->
<!-- CreationDate: Mar 13, 2016 18:54 -->
<!-- CommandLine: -qxg 9111.abc -O ../svgs/9111.svg -->
<g transform="scale(0.750)" stroke-width="0.70" font-family="Times" font-size="20.00">
<text x="354.13" y="21.67" text-anchor="middle">9111.  Quartet, Op. 30, 1st. Mvt. - 2nd. Theme</text>
</g>
<g transform="scale(0.750)" stroke-width="0.70" font-family="Times" font-size="14.00" font-style="italic">
<text x="694.93" y="45.34" text-anchor="end">Ernest Chausson</text>
</g>
<g transform="scale(0.525)" stroke-width="0.70" font-family="Times" font-size="14.00" font-style="italic">
<defs>
<ellipse id="hd" rx="4.1" ry="2.9"
	transform="rotate(-20)" fill="currentColor"/>
</defs>
<use x="132.76" y="94.16" xlink:href="#hd"/>
<path d="M136.26 94.16v-20.00" stroke="currentColor" fill="none"/>
</g>
<g transform="scale(0.750)" stroke-width="0.70" font-family="Times" font-size="15.00" font-weight="bold">
<text x="100.63" y="68.01">= 120</text>
<path stroke="currentColor" fill="none"
	d="M205.73 116.01v-24.00"/>
<path stroke="currentColor" fill="none"
	d="M372.13 116.01v-24.00"/>
<path stroke="currentColor" fill="none"
	d="M561.53 116.01v-24.00"/>
<path stroke="currentColor" fill="none"
	d="M694.93 116.01v-24.00"/>
<path stroke="currentColor" fill="none"
	d="M13.33 116.01h681.60m-681.60 -6h681.60m-681.60 -6h681.60m-681.60 -6h681.60m-681.60 -6h681.60"/>
<path stroke="currentColor" fill="none"
	d="M454.73 75.01v-3l81.50 -0.00v3"/>
<rect x="488.43" y="66.01" width="14.00" height="12" fill="white"/>
<text font-family="serif" font-size="12" font-style="italic" font-weight="normal"
	x="495.43" y="76.01" text-anchor="middle">3</text>
<defs>
<path id="utclef" fill="currentColor" d="m-50 -90
	c-72 -41 -72 -158 52 -188
	c150 -10 220 188 90 256
	c-114 52 -275 0 -293 -136
	c-15 -181 93 -229 220 -334
	c88 -87 79 -133 62 -210
	c-51 33 -94 105 -89 186
	c17 267 36 374 49 574
	c6 96 -19 134 -77 135
	c-80 1 -126 -93 -61 -133
	c85 -41 133 101 31 105
	c23 17 92 37 90 -92
	c-10 -223 -39 -342 -50 -617
	c0 -90 0 -162 96 -232
	c56 72 63 230 22 289
	c-74 106 -257 168 -255 316
	c9 153 148 185 252 133
	c86 -65 29 -192 -80 -176
	c-71 12 -105 67 -59 124"/>
<use id="tclef" transform="scale(0.045)"
	xlink:href="#utclef"/>
</defs>
<use x="25.33" y="116.01" xlink:href="#tclef"/>
<defs>
<path id="usharp" fill="currentColor" d="
	m136 -702
	v890
	h32
	v-890
	m128 840
	h32
	v-888
	h-32
	m-232 286
	v116
	l338 -96
	v-116
	m-338 442
	v116
	l338 -98
	v-114"/>
<use id="sh0" transform="translate(-4,5) scale(0.018)"
	xlink:href="#usharp"/>
</defs>
<use x="40.33" y="92.01" xlink:href="#sh0"/>
<use x="45.83" y="101.01" xlink:href="#sh0"/>
<use x="51.33" y="89.01" xlink:href="#sh0"/>
<g font-family="serif" font-size="16" font-weight="bold" font-style="normal"
	transform="translate(67.33,116.01) scale(1.2,1)">
	<text y="-1" text-anchor="middle">2</text>
	<text y="-13" text-anchor="middle">2</text>
</g>
<defs>
<path id="hl" stroke="currentColor" d="m-6 0h12"/>
</defs>
<use x="92.33" y="86.01" xlink:href="#hl"/>
<use x="92.33" y="80.01" xlink:href="#hl"/>
<defs>
<path id="Hd" fill="currentColor" d="m3 -1.6
	c-1 -1.8 -7 1.4 -6 3.2
	c1 1.8 7 -1.4 6 -3.2
	m0.5 -0.3
	c2 3.8 -5 7.6 -7 3.8
	c-2 -3.8 5 -7.6 7 -3.8"/>
</defs>
<use x="92.33" y="80.01" xlink:href="#Hd"/>
<circle fill="currentColor" cx="102.33" cy="77.01" r="1.2"/>
<defs>
<path id="unat" fill="currentColor" d="
	m96 -750
	h-32
	v716
	l32 -8
	l182 -54
	v282
	h32
	v-706
	l-34 10
	l-180 50
	v-290
	m0 592
	v-190
	l182 -52
	v188"/>
<use id="nt0" transform="translate(-3,5) scale(0.018)"
	xlink:href="#unat"/>
</defs>
<use x="82.33" y="80.01" xlink:href="#nt0"/>
<path d="M88.83 80.01v24.00" stroke="currentColor" fill="none"/>
<use x="168.03" y="86.01" xlink:href="#hl"/>
<use x="168.03" y="80.01" xlink:href="#hl"/>
<use x="168.03" y="77.01" xlink:href="#hd"/>
<path d="M164.53 77.01v27.00" stroke="currentColor" fill="none"/>
<use x="224.73" y="86.01" xlink:href="#hl"/>
<use x="224.73" y="80.01" xlink:href="#hl"/>
<use x="224.73" y="74.01" xlink:href="#hl"/>
<use x="224.73" y="71.01" xlink:href="#hd"/>
<use x="215.73" y="71.01" xlink:href="#nt0"/>
<path d="M221.23 71.01v33.00" stroke="currentColor" fill="none"/>
<use x="271.83" y="86.01" xlink:href="#hl"/>
<use x="271.83" y="80.01" xlink:href="#hl"/>
<use x="271.83" y="77.01" xlink:href="#hd"/>
<path d="M268.33 77.01v27.00" stroke="currentColor" fill="none"/>
<use x="318.83" y="86.01" xlink:href="#hl"/>
<use x="318.83" y="80.01" xlink:href="#hl"/>
<use x="318.83" y="80.01" xlink:href="#Hd"/>
<use x="308.83" y="80.01" xlink:href="#nt0"/>
<path d="M315.33 80.01v24.00" stroke="currentColor" fill="none"/>
<use x="392.13" y="89.01" xlink:href="#Hd"/>
<use x="382.13" y="89.01" xlink:href="#nt0"/>
<path d="M388.63 89.01v20.00" stroke="currentColor" fill="none"/>
<use x="458.73" y="89.01" xlink:href="#hd"/>
<use x="449.73" y="89.01" xlink:href="#nt0"/>
<path d="M455.23 89.01v20.00" stroke="currentColor" fill="none"/>
<use x="495.43" y="86.01" xlink:href="#hl"/>
<use x="495.43" y="86.01" xlink:href="#hd"/>
<path d="M491.93 86.01v20.00" stroke="currentColor" fill="none"/>
<use x="532.13" y="89.01" xlink:href="#hd"/>
<use x="523.13" y="89.01" xlink:href="#nt0"/>
<path d="M528.63 89.01v20.00" stroke="currentColor" fill="none"/>
<use x="581.53" y="86.01" xlink:href="#hl"/>
<use x="581.53" y="80.01" xlink:href="#hl"/>
<use x="581.53" y="80.01" xlink:href="#Hd"/>
<circle fill="currentColor" cx="590.53" cy="77.01" r="1.2"/>
<use x="571.53" y="80.01" xlink:href="#nt0"/>
<path d="M578.03 80.01v24.00" stroke="currentColor" fill="none"/>
<use x="657.33" y="86.01" xlink:href="#hl"/>
<use x="657.33" y="86.01" xlink:href="#hd"/>
<use x="648.33" y="86.01" xlink:href="#sh0"/>
<path d="M653.83 86.01v20.00" stroke="currentColor" fill="none"/>
</g>
</svg>
