<?xml version="1.0" standalone="no"?>
<!DOCTYPE svg PUBLIC "-//W3C//DTD SVG 1.1//EN"
	"http://www.w3.org/Graphics/SVG/1.1/DTD/svg11.dtd">
<svg xmlns="http://www.w3.org/2000/svg" version="1.1"
	xmlns:xlink="http://www.w3.org/1999/xlink"
	xml:space='preserve' color="black"
	width="7.38in" height="1.35in" viewBox="0 0 531 98">
<title>9152.abc (9152) tune 1</title>
<!-- Creator: abcm2ps-7.8.14 -->
<!-- CreationDate: Mar 13, 2016 18:54 -->
<!-- CommandLine: -qxg 9152.abc -O ../svgs/9152.svg -->
<g transform="scale(0.750)" stroke-width="0.70" font-family="Times" font-size="20.00">
<text x="354.13" y="21.67" text-anchor="middle">9152.  Ballade 1, Op. 23 - 1st. Theme</text>
</g>
<g transform="scale(0.750)" stroke-width="0.70" font-family="Times" font-size="14.00" font-style="italic">
<text x="694.93" y="45.34" text-anchor="end">Frederic Chopin</text>
</g>
<g transform="scale(0.525)" stroke-width="0.70" font-family="Times" font-size="14.00" font-style="italic">
<defs>
<ellipse id="hd" rx="4.1" ry="2.9"
	transform="rotate(-20)" fill="currentColor"/>
</defs>
<use x="114.90" y="94.16" xlink:href="#hd"/>
<path d="M118.40 94.16v-20.00" stroke="currentColor" fill="none"/>
</g>
<g transform="scale(0.750)" stroke-width="0.70" font-family="Times" font-size="15.00" font-weight="bold">
<text x="88.13" y="68.01">= 120</text>
<path stroke="currentColor" fill="none"
	d="M246.63 107.01v-24.00"/>
<path stroke="currentColor" fill="none"
	d="M384.13 107.01v-24.00"/>
<path stroke="currentColor" fill="none"
	d="M564.03 107.01v-24.00"/>
<path stroke="currentColor" fill="none"
	d="M13.33 107.01h681.60m-681.60 -6h681.60m-681.60 -6h681.60m-681.60 -6h681.60m-681.60 -6h681.60"/>
<defs>
<path id="utclef" fill="currentColor" d="m-50 -90
	c-72 -41 -72 -158 52 -188
	c150 -10 220 188 90 256
	c-114 52 -275 0 -293 -136
	c-15 -181 93 -229 220 -334
	c88 -87 79 -133 62 -210
	c-51 33 -94 105 -89 186
	c17 267 36 374 49 574
	c6 96 -19 134 -77 135
	c-80 1 -126 -93 -61 -133
	c85 -41 133 101 31 105
	c23 17 92 37 90 -92
	c-10 -223 -39 -342 -50 -617
	c0 -90 0 -162 96 -232
	c56 72 63 230 22 289
	c-74 106 -257 168 -255 316
	c9 153 148 185 252 133
	c86 -65 29 -192 -80 -176
	c-71 12 -105 67 -59 124"/>
<use id="tclef" transform="scale(0.045)"
	xlink:href="#utclef"/>
</defs>
<use x="25.33" y="107.01" xlink:href="#tclef"/>
<defs>
<path id="uflat" fill="currentColor" d="
	m100 -746
	h32
	v734
	l-32 4
	m32 -332
	c46 -72 152 -90 208 -20
	c100 110 -120 326 -208 348
	m0 -28
	c54 0 200 -206 130 -290
	c-50 -60 -130 -4 -130 34"/>
<use id="ft0" transform="translate(-3.5,3.5) scale(0.018)"
	xlink:href="#uflat"/>
</defs>
<use x="40.33" y="95.01" xlink:href="#ft0"/>
<use x="45.83" y="86.01" xlink:href="#ft0"/>
<g font-family="serif" font-size="16" font-weight="bold" font-style="normal"
	transform="translate(61.83,107.01) scale(1.2,1)">
	<text y="-1" text-anchor="middle">4</text>
	<text y="-13" text-anchor="middle">6</text>
</g>
<path fill="currentColor"
	d="M76.03 111.21l39.70 -5.40v-3.20l-39.70 5.40"/>
<use x="79.83" y="92.01" xlink:href="#hd"/>
<path d="M76.33 92.01v18.20" stroke="currentColor" fill="none"/>
<use x="99.03" y="89.01" xlink:href="#hd"/>
<path d="M95.53 89.01v18.60" stroke="currentColor" fill="none"/>
<use x="118.83" y="80.01" xlink:href="#hd"/>
<use x="109.83" y="80.01" xlink:href="#ft0"/>
<path d="M115.33 80.01v24.90" stroke="currentColor" fill="none"/>
<path fill="currentColor"
	d="M136.23 95.11l20.00 1.70v-3.20l-20.00 -1.70"/>
<defs>
<path id="hl" stroke="currentColor" d="m-6 0h12"/>
</defs>
<use x="140.13" y="77.01" xlink:href="#hl"/>
<use x="140.13" y="74.01" xlink:href="#hd"/>
<path d="M136.63 74.01v20.20" stroke="currentColor" fill="none"/>
<use x="159.33" y="77.01" xlink:href="#hl"/>
<use x="159.33" y="77.01" xlink:href="#hd"/>
<path d="M155.83 77.01v18.80" stroke="currentColor" fill="none"/>
<defs>
<path id="Hd" fill="currentColor" d="m3 -1.6
	c-1 -1.8 -7 1.4 -6 3.2
	c1 1.8 7 -1.4 6 -3.2
	m0.5 -0.3
	c2 3.8 -5 7.6 -7 3.8
	c-2 -3.8 5 -7.6 7 -3.8"/>
</defs>
<use x="181.33" y="80.01" xlink:href="#Hd"/>
<circle fill="currentColor" cx="190.33" cy="80.01" r="1.2"/>
<defs>
<path id="unat" fill="currentColor" d="
	m96 -750
	h-32
	v716
	l32 -8
	l182 -54
	v282
	h32
	v-706
	l-34 10
	l-180 50
	v-290
	m0 592
	v-190
	l182 -52
	v188"/>
<use id="nt0" transform="translate(-3,5) scale(0.018)"
	xlink:href="#unat"/>
</defs>
<use x="171.33" y="80.01" xlink:href="#nt0"/>
<path d="M177.83 80.01v20.00" stroke="currentColor" fill="none"/>
<use x="229.43" y="77.01" xlink:href="#hl"/>
<use x="229.43" y="71.01" xlink:href="#hl"/>
<use x="229.43" y="68.01" xlink:href="#hd"/>
<path d="M225.93 68.01v27.00" stroke="currentColor" fill="none"/>
<path fill="currentColor"
	d="M225.93 95.01c0.6 -5.6 9.6 -9 5.6 -18.4
	c1.6 6 -1.3 11.6 -5.6 12.8
"/>
<use x="259.63" y="77.01" xlink:href="#hl"/>
<use x="259.63" y="71.01" xlink:href="#hl"/>
<use x="259.63" y="68.01" xlink:href="#Hd"/>
<path d="M256.13 68.01v27.00" stroke="currentColor" fill="none"/>
<use x="302.13" y="77.01" xlink:href="#hl"/>
<use x="302.13" y="71.01" xlink:href="#hl"/>
<use x="302.13" y="68.01" xlink:href="#hd"/>
<path d="M298.63 68.01v27.00" stroke="currentColor" fill="none"/>
<path fill="currentColor"
	d="M298.63 95.01c0.6 -5.6 9.6 -9 5.6 -18.4
	c1.6 6 -1.3 11.6 -5.6 12.8
"/>
<use x="323.53" y="77.01" xlink:href="#hl"/>
<use x="323.53" y="71.01" xlink:href="#hl"/>
<use x="323.53" y="71.01" xlink:href="#Hd"/>
<circle fill="currentColor" cx="332.53" cy="68.01" r="1.2"/>
<path d="M320.03 71.01v24.00" stroke="currentColor" fill="none"/>
<defs>
<path id="r8e" fill="currentColor" d="m 0 0
	c-1.5 1.5 -2.4 2 -3.6 2
	c2.4 -2.8 -2.8 -4 -2.8 -1.2
	c0 2.7 4.3 2.4 5.9 0.6"/>
<g id="r8">
	<path d="m3.3 -4l-3.4 9.6" stroke="currentColor" fill="none"/>
	<use x="3.4" y="-4" xlink:href="#r8e"/>
</g>
</defs>
<use x="366.93" y="95.01" xlink:href="#r8"/>
<path fill="currentColor"
	d="M392.73 111.21l39.70 -5.40v-3.20l-39.70 5.40"/>
<use x="396.63" y="92.01" xlink:href="#hd"/>
<path d="M393.13 92.01v18.20" stroke="currentColor" fill="none"/>
<use x="415.83" y="89.01" xlink:href="#hd"/>
<path d="M412.33 89.01v18.60" stroke="currentColor" fill="none"/>
<use x="435.63" y="80.01" xlink:href="#hd"/>
<use x="426.63" y="80.01" xlink:href="#ft0"/>
<path d="M432.13 80.01v24.90" stroke="currentColor" fill="none"/>
<path fill="currentColor"
	d="M453.03 95.11l20.00 1.70v-3.20l-20.00 -1.70"/>
<use x="456.83" y="77.01" xlink:href="#hl"/>
<use x="456.83" y="74.01" xlink:href="#hd"/>
<path d="M453.33 74.01v20.20" stroke="currentColor" fill="none"/>
<use x="476.13" y="77.01" xlink:href="#hl"/>
<use x="476.13" y="77.01" xlink:href="#hd"/>
<path d="M472.63 77.01v18.80" stroke="currentColor" fill="none"/>
<use x="498.13" y="80.01" xlink:href="#Hd"/>
<circle fill="currentColor" cx="507.13" cy="80.01" r="1.2"/>
<use x="488.13" y="80.01" xlink:href="#nt0"/>
<path d="M494.63 80.01v20.00" stroke="currentColor" fill="none"/>
<use x="546.93" y="86.01" xlink:href="#hd"/>
<use x="537.93" y="86.01" xlink:href="#nt0"/>
<path d="M543.43 86.01v20.00" stroke="currentColor" fill="none"/>
<path fill="currentColor"
	d="M543.43 106.01c0.6 -5.6 9.6 -9 5.6 -18.4
	c1.6 6 -1.3 11.6 -5.6 12.8
"/>
<use x="583.53" y="86.01" xlink:href="#Hd"/>
<use x="573.53" y="86.01" xlink:href="#nt0"/>
<path d="M580.03 86.01v20.00" stroke="currentColor" fill="none"/>
<use x="626.13" y="86.01" xlink:href="#hd"/>
<use x="617.13" y="86.01" xlink:href="#nt0"/>
<path d="M622.63 86.01v20.00" stroke="currentColor" fill="none"/>
<path fill="currentColor"
	d="M622.63 106.01c0.6 -5.6 9.6 -9 5.6 -18.4
	c1.6 6 -1.3 11.6 -5.6 12.8
"/>
<use x="648.03" y="80.01" xlink:href="#Hd"/>
<circle fill="currentColor" cx="657.03" cy="80.01" r="1.2"/>
<use x="638.03" y="80.01" xlink:href="#ft0"/>
<path d="M644.53 80.01v20.00" stroke="currentColor" fill="none"/>
<path fill="currentColor"
	d="M232.93 66.01c3.65 -4.92 19.51 -4.92 23.16 -0.00
	l0.00 -0.22c-4.34 -6.69 -18.82 -6.69 -23.16 0.22"/>
<path fill="currentColor"
	d="M263.13 66.01c5.60 -5.14 29.95 -5.14 35.55 -0.00
	l0.00 -0.24c-6.67 -6.90 -28.89 -6.90 -35.55 0.24"/>
<path fill="currentColor"
	d="M550.43 84.01c4.67 -5.03 24.99 -5.03 29.66 -0.00
	l0.00 -0.23c-5.56 -6.80 -24.10 -6.80 -29.66 0.23"/>
<path fill="currentColor"
	d="M587.03 84.01c5.60 -5.14 29.95 -5.14 35.55 -0.00
	l0.00 -0.24c-6.67 -6.90 -28.89 -6.90 -35.55 0.24"/>
</g>
</svg>
