<?xml version="1.0" standalone="no"?>
<!DOCTYPE svg PUBLIC "-//W3C//DTD SVG 1.1//EN"
	"http://www.w3.org/Graphics/SVG/1.1/DTD/svg11.dtd">
<svg xmlns="http://www.w3.org/2000/svg" version="1.1"
	xmlns:xlink="http://www.w3.org/1999/xlink"
	xml:space='preserve' color="black"
	width="7.38in" height="1.61in" viewBox="0 0 531 116">
<title>9165.abc (9165) tune 1</title>
<!-- Creator: abcm2ps-7.8.14 -->
<!-- CreationDate: Mar 13, 2016 18:54 -->
<!-- CommandLine: -qxg 9165.abc -O ../svgs/9165.svg -->
<g transform="scale(0.750)" stroke-width="0.70" font-family="Times" font-size="20.00">
<text x="354.13" y="21.67" text-anchor="middle">9165.  Concerto No. 1 in E Minor, 3rd. Mvt. - 1st. Theme</text>
</g>
<g transform="scale(0.750)" stroke-width="0.70" font-family="Times" font-size="14.00" font-style="italic">
<text x="694.93" y="45.34" text-anchor="end">Frederic Chopin</text>
</g>
<g transform="scale(0.525)" stroke-width="0.70" font-family="Times" font-size="14.00" font-style="italic">
<defs>
<ellipse id="hd" rx="4.1" ry="2.9"
	transform="rotate(-20)" fill="currentColor"/>
</defs>
<use x="130.61" y="94.16" xlink:href="#hd"/>
<path d="M134.11 94.16v-20.00" stroke="currentColor" fill="none"/>
</g>
<g transform="scale(0.750)" stroke-width="0.70" font-family="Times" font-size="15.00" font-weight="bold">
<text x="99.13" y="68.01">= 120</text>
<path stroke="currentColor" fill="none"
	d="M198.33 132.01v-24.00"/>
<path stroke="currentColor" fill="none"
	d="M322.13 132.01v-24.00"/>
<path stroke="currentColor" fill="none"
	d="M13.33 132.01h457.00m-457.00 -6h457.00m-457.00 -6h457.00m-457.00 -6h457.00m-457.00 -6h457.00"/>
<defs>
<path id="utclef" fill="currentColor" d="m-50 -90
	c-72 -41 -72 -158 52 -188
	c150 -10 220 188 90 256
	c-114 52 -275 0 -293 -136
	c-15 -181 93 -229 220 -334
	c88 -87 79 -133 62 -210
	c-51 33 -94 105 -89 186
	c17 267 36 374 49 574
	c6 96 -19 134 -77 135
	c-80 1 -126 -93 -61 -133
	c85 -41 133 101 31 105
	c23 17 92 37 90 -92
	c-10 -223 -39 -342 -50 -617
	c0 -90 0 -162 96 -232
	c56 72 63 230 22 289
	c-74 106 -257 168 -255 316
	c9 153 148 185 252 133
	c86 -65 29 -192 -80 -176
	c-71 12 -105 67 -59 124"/>
<use id="tclef" transform="scale(0.045)"
	xlink:href="#utclef"/>
</defs>
<use x="25.33" y="132.01" xlink:href="#tclef"/>
<defs>
<path id="usharp" fill="currentColor" d="
	m136 -702
	v890
	h32
	v-890
	m128 840
	h32
	v-888
	h-32
	m-232 286
	v116
	l338 -96
	v-116
	m-338 442
	v116
	l338 -98
	v-114"/>
<use id="sh0" transform="translate(-4,5) scale(0.018)"
	xlink:href="#usharp"/>
</defs>
<use x="40.33" y="108.01" xlink:href="#sh0"/>
<use x="45.83" y="117.01" xlink:href="#sh0"/>
<use x="51.33" y="105.01" xlink:href="#sh0"/>
<use x="56.83" y="114.01" xlink:href="#sh0"/>
<g font-family="serif" font-size="16" font-weight="bold" font-style="normal"
	transform="translate(72.83,132.01) scale(1.2,1)">
	<text y="-1" text-anchor="middle">4</text>
	<text y="-13" text-anchor="middle">2</text>
</g>
<defs>
<path id="hl" stroke="currentColor" d="m-6 0h12"/>
</defs>
<use x="90.83" y="102.01" xlink:href="#hl"/>
<use x="90.83" y="99.01" xlink:href="#hd"/>
<path d="M87.33 99.01v21.00" stroke="currentColor" fill="none"/>
<path fill="currentColor"
	d="M87.33 120.01c0.6 -5.6 9.6 -9 5.6 -18.4
	c1.6 6 -1.3 11.6 -5.6 12.8
"/>
<use x="119.13" y="102.01" xlink:href="#hl"/>
<use x="119.13" y="96.01" xlink:href="#hl"/>
<use x="119.13" y="90.01" xlink:href="#hl"/>
<use x="119.13" y="84.01" xlink:href="#hl"/>
<use x="119.13" y="78.01" xlink:href="#hl"/>
<use x="119.13" y="78.01" xlink:href="#hd"/>
<path d="M115.63 78.01v42.00" stroke="currentColor" fill="none"/>
<path fill="currentColor"
	d="M115.63 120.01c0.6 -5.6 9.6 -9 5.6 -18.4
	c1.6 6 -1.3 11.6 -5.6 12.8
"/>
<use x="147.43" y="102.01" xlink:href="#hl"/>
<use x="147.43" y="96.01" xlink:href="#hl"/>
<use x="147.43" y="90.01" xlink:href="#hl"/>
<use x="147.43" y="90.01" xlink:href="#hd"/>
<path d="M143.93 90.01v30.00" stroke="currentColor" fill="none"/>
<path fill="currentColor"
	d="M143.93 120.01c0.6 -5.6 9.6 -9 5.6 -18.4
	c1.6 6 -1.3 11.6 -5.6 12.8
"/>
<use x="175.73" y="102.01" xlink:href="#hl"/>
<use x="175.73" y="96.01" xlink:href="#hl"/>
<use x="175.73" y="90.01" xlink:href="#hl"/>
<use x="175.73" y="84.01" xlink:href="#hl"/>
<use x="175.73" y="84.01" xlink:href="#hd"/>
<path d="M172.23 84.01v36.00" stroke="currentColor" fill="none"/>
<path fill="currentColor"
	d="M172.23 120.01c0.6 -5.6 9.6 -9 5.6 -18.4
	c1.6 6 -1.3 11.6 -5.6 12.8
"/>
<path fill="currentColor"
	d="M208.73 120.21l29.70 0.00v-3.20l-29.70 -0.00"/>
<path fill="currentColor"
	d="M232.03 115.21l6.00 0.00v-3.20l-6.00 -0.00"/>
<use x="212.53" y="102.01" xlink:href="#hl"/>
<use x="212.53" y="96.01" xlink:href="#hl"/>
<use x="212.53" y="90.01" xlink:href="#hl"/>
<use x="212.53" y="84.01" xlink:href="#hl"/>
<use x="212.53" y="84.01" xlink:href="#hd"/>
<circle fill="currentColor" cx="220.53" cy="81.01" r="1.2"/>
<path d="M209.03 84.01v35.20" stroke="currentColor" fill="none"/>
<use x="241.53" y="102.01" xlink:href="#hl"/>
<use x="241.53" y="96.01" xlink:href="#hl"/>
<use x="241.53" y="90.01" xlink:href="#hl"/>
<use x="241.53" y="87.01" xlink:href="#hd"/>
<path d="M238.03 87.01v32.20" stroke="currentColor" fill="none"/>
<path fill="currentColor"
	d="M257.63 121.91l18.70 0.00v-3.20l-18.70 -0.00"/>
<path fill="currentColor"
	d="M258.03 116.91l18.00 0.00v-3.20l-18.00 -0.00"/>
<use x="261.53" y="102.01" xlink:href="#hl"/>
<use x="261.53" y="96.01" xlink:href="#hl"/>
<use x="261.53" y="93.01" xlink:href="#hd"/>
<path d="M258.03 93.01v28.00" stroke="currentColor" fill="none"/>
<use x="279.53" y="102.01" xlink:href="#hl"/>
<use x="279.53" y="99.01" xlink:href="#hd"/>
<path d="M276.03 99.01v22.00" stroke="currentColor" fill="none"/>
<use x="299.53" y="102.01" xlink:href="#hl"/>
<use x="299.53" y="96.01" xlink:href="#hl"/>
<use x="299.53" y="90.01" xlink:href="#hl"/>
<use x="299.53" y="90.01" xlink:href="#hd"/>
<path d="M296.03 90.01v30.00" stroke="currentColor" fill="none"/>
<path fill="currentColor"
	d="M296.03 120.01c0.6 -5.6 9.6 -9 5.6 -18.4
	c1.6 6 -1.3 11.6 -5.6 12.8
"/>
<path fill="currentColor"
	d="M332.43 120.21l18.70 0.00v-3.20l-18.70 -0.00"/>
<path fill="currentColor"
	d="M332.83 115.21l18.00 0.00v-3.20l-18.00 -0.00"/>
<use x="336.33" y="102.01" xlink:href="#hl"/>
<use x="336.33" y="96.01" xlink:href="#hl"/>
<use x="336.33" y="90.01" xlink:href="#hl"/>
<use x="336.33" y="84.01" xlink:href="#hl"/>
<use x="336.33" y="84.01" xlink:href="#hd"/>
<path d="M332.83 84.01v35.20" stroke="currentColor" fill="none"/>
<use x="354.33" y="102.01" xlink:href="#hl"/>
<use x="354.33" y="96.01" xlink:href="#hl"/>
<use x="354.33" y="90.01" xlink:href="#hl"/>
<use x="354.33" y="84.01" xlink:href="#hl"/>
<use x="354.33" y="81.01" xlink:href="#hd"/>
<path d="M350.83 81.01v38.20" stroke="currentColor" fill="none"/>
<path fill="currentColor"
	d="M370.43 120.21l18.70 0.00v-3.20l-18.70 -0.00"/>
<path fill="currentColor"
	d="M370.83 115.21l18.00 0.00v-3.20l-18.00 -0.00"/>
<use x="374.33" y="102.01" xlink:href="#hl"/>
<use x="374.33" y="96.01" xlink:href="#hl"/>
<use x="374.33" y="90.01" xlink:href="#hl"/>
<use x="374.33" y="84.01" xlink:href="#hl"/>
<use x="374.33" y="81.01" xlink:href="#hd"/>
<use x="365.33" y="81.01" xlink:href="#sh0"/>
<path d="M370.83 81.01v38.20" stroke="currentColor" fill="none"/>
<use x="392.33" y="102.01" xlink:href="#hl"/>
<use x="392.33" y="96.01" xlink:href="#hl"/>
<use x="392.33" y="90.01" xlink:href="#hl"/>
<use x="392.33" y="84.01" xlink:href="#hl"/>
<use x="392.33" y="78.01" xlink:href="#hl"/>
<use x="392.33" y="78.01" xlink:href="#hd"/>
<path d="M388.83 78.01v41.20" stroke="currentColor" fill="none"/>
<path fill="currentColor"
	d="M408.43 120.21l18.70 0.00v-3.20l-18.70 -0.00"/>
<path fill="currentColor"
	d="M408.83 115.21l18.00 0.00v-3.20l-18.00 -0.00"/>
<use x="412.33" y="102.01" xlink:href="#hl"/>
<use x="412.33" y="96.01" xlink:href="#hl"/>
<use x="412.33" y="90.01" xlink:href="#hl"/>
<use x="412.33" y="84.01" xlink:href="#hl"/>
<use x="412.33" y="78.01" xlink:href="#hl"/>
<use x="412.33" y="75.01" xlink:href="#hd"/>
<path d="M408.83 75.01v44.20" stroke="currentColor" fill="none"/>
<use x="430.33" y="102.01" xlink:href="#hl"/>
<use x="430.33" y="96.01" xlink:href="#hl"/>
<use x="430.33" y="90.01" xlink:href="#hl"/>
<use x="430.33" y="84.01" xlink:href="#hl"/>
<use x="430.33" y="78.01" xlink:href="#hl"/>
<use x="430.33" y="72.01" xlink:href="#hl"/>
<use x="430.33" y="72.01" xlink:href="#hd"/>
<path d="M426.83 72.01v47.20" stroke="currentColor" fill="none"/>
<use x="450.33" y="102.01" xlink:href="#hl"/>
<use x="450.33" y="96.01" xlink:href="#hl"/>
<use x="450.33" y="90.01" xlink:href="#hl"/>
<use x="450.33" y="84.01" xlink:href="#hl"/>
<use x="450.33" y="78.01" xlink:href="#hl"/>
<use x="450.33" y="72.01" xlink:href="#hl"/>
<use x="450.33" y="69.01" xlink:href="#hd"/>
<path d="M446.83 69.01v51.00" stroke="currentColor" fill="none"/>
<path fill="currentColor"
	d="M446.83 120.01c0.9 -3.7 9.1 -6.4 6 -12.4
	c1 5.4 -4.2 8.4 -6 8.4
M446.83 114.61c0.9 -3.7 9.1 -6.4 6 -12.4
	c1 5.4 -4.2 8.4 -6 8.4
"/>
<path fill="currentColor"
	d="M179.23 84.01c4.69 -5.04 25.10 -5.04 29.79 -0.00
	l0.00 -0.23c-5.59 -6.81 -24.20 -6.81 -29.79 0.23"/>
</g>
</svg>
