<?xml version="1.0" standalone="no"?>
<!DOCTYPE svg PUBLIC "-//W3C//DTD SVG 1.1//EN"
	"http://www.w3.org/Graphics/SVG/1.1/DTD/svg11.dtd">
<svg xmlns="http://www.w3.org/2000/svg" version="1.1"
	xmlns:xlink="http://www.w3.org/1999/xlink"
	xml:space='preserve' color="black"
	width="7.38in" height="1.55in" viewBox="0 0 531 112">
<title>9177.abc (9177) tune 1</title>
<!-- Creator: abcm2ps-7.8.14 -->
<!-- CreationDate: Mar 13, 2016 18:54 -->
<!-- CommandLine: -qxg 9177.abc -O ../svgs/9177.svg -->
<g transform="scale(0.750)" stroke-width="0.70" font-family="Times" font-size="20.00">
<text x="354.13" y="21.67" text-anchor="middle">9177.  Etudes, Op. 10 - No. 4, in C Sharp Minor</text>
</g>
<g transform="scale(0.750)" stroke-width="0.70" font-family="Times" font-size="14.00" font-style="italic">
<text x="694.93" y="45.34" text-anchor="end">Frederic Chopin</text>
</g>
<g transform="scale(0.525)" stroke-width="0.70" font-family="Times" font-size="14.00" font-style="italic">
<defs>
<ellipse id="hd" rx="4.1" ry="2.9"
	transform="rotate(-20)" fill="currentColor"/>
</defs>
<use x="130.61" y="94.16" xlink:href="#hd"/>
<path d="M134.11 94.16v-20.00" stroke="currentColor" fill="none"/>
</g>
<g transform="scale(0.750)" stroke-width="0.70" font-family="Times" font-size="15.00" font-weight="bold">
<text x="99.13" y="68.01">= 120</text>
<path stroke="currentColor" fill="none"
	d="M350.13 126.01v-24.00"/>
<path stroke="currentColor" fill="none"
	d="M618.33 126.01v-24.00"/>
<path stroke="currentColor" fill="none"
	d="M13.33 126.01h681.60m-681.60 -6h681.60m-681.60 -6h681.60m-681.60 -6h681.60m-681.60 -6h681.60"/>
<defs>
<path id="utclef" fill="currentColor" d="m-50 -90
	c-72 -41 -72 -158 52 -188
	c150 -10 220 188 90 256
	c-114 52 -275 0 -293 -136
	c-15 -181 93 -229 220 -334
	c88 -87 79 -133 62 -210
	c-51 33 -94 105 -89 186
	c17 267 36 374 49 574
	c6 96 -19 134 -77 135
	c-80 1 -126 -93 -61 -133
	c85 -41 133 101 31 105
	c23 17 92 37 90 -92
	c-10 -223 -39 -342 -50 -617
	c0 -90 0 -162 96 -232
	c56 72 63 230 22 289
	c-74 106 -257 168 -255 316
	c9 153 148 185 252 133
	c86 -65 29 -192 -80 -176
	c-71 12 -105 67 -59 124"/>
<use id="tclef" transform="scale(0.045)"
	xlink:href="#utclef"/>
</defs>
<use x="25.33" y="126.01" xlink:href="#tclef"/>
<defs>
<path id="usharp" fill="currentColor" d="
	m136 -702
	v890
	h32
	v-890
	m128 840
	h32
	v-888
	h-32
	m-232 286
	v116
	l338 -96
	v-116
	m-338 442
	v116
	l338 -98
	v-114"/>
<use id="sh0" transform="translate(-4,5) scale(0.018)"
	xlink:href="#usharp"/>
</defs>
<use x="40.33" y="102.01" xlink:href="#sh0"/>
<use x="45.83" y="111.01" xlink:href="#sh0"/>
<use x="51.33" y="99.01" xlink:href="#sh0"/>
<use x="56.83" y="108.01" xlink:href="#sh0"/>
<g font-family="serif" font-size="16" font-weight="bold" font-style="normal"
	transform="translate(72.83,126.01) scale(1.2,1)">
	<text y="-1" text-anchor="middle">4</text>
	<text y="-13" text-anchor="middle">4</text>
</g>
<path fill="currentColor"
	d="M87.03 114.21l16.10 0.00v-3.20l-16.10 -0.00"/>
<path fill="currentColor"
	d="M87.33 109.21l15.40 0.00v-3.20l-15.40 -0.00"/>
<defs>
<path id="hl" stroke="currentColor" d="m-6 0h12"/>
</defs>
<use x="90.83" y="96.01" xlink:href="#hl"/>
<use x="90.83" y="90.01" xlink:href="#hl"/>
<use x="90.83" y="84.01" xlink:href="#hl"/>
<use x="90.83" y="78.01" xlink:href="#hl"/>
<use x="90.83" y="78.01" xlink:href="#hd"/>
<path d="M87.33 78.01v35.20" stroke="currentColor" fill="none"/>
<use x="106.23" y="96.01" xlink:href="#hl"/>
<use x="106.23" y="90.01" xlink:href="#hl"/>
<use x="106.23" y="84.01" xlink:href="#hl"/>
<use x="106.23" y="81.01" xlink:href="#hd"/>
<path d="M102.73 81.01v32.20" stroke="currentColor" fill="none"/>
<path fill="currentColor"
	d="M119.33 114.21l16.10 0.00v-3.20l-16.10 -0.00"/>
<path fill="currentColor"
	d="M119.73 109.21l15.40 0.00v-3.20l-15.40 -0.00"/>
<use x="123.23" y="96.01" xlink:href="#hl"/>
<use x="123.23" y="90.01" xlink:href="#hl"/>
<use x="123.23" y="84.01" xlink:href="#hl"/>
<use x="123.23" y="84.01" xlink:href="#hd"/>
<path d="M119.73 84.01v29.20" stroke="currentColor" fill="none"/>
<use x="138.53" y="96.01" xlink:href="#hl"/>
<use x="138.53" y="90.01" xlink:href="#hl"/>
<use x="138.53" y="87.01" xlink:href="#hd"/>
<path d="M135.03 87.01v26.20" stroke="currentColor" fill="none"/>
<path fill="currentColor"
	d="M151.73 114.21l16.10 0.00v-3.20l-16.10 -0.00"/>
<path fill="currentColor"
	d="M152.13 109.21l15.40 0.00v-3.20l-15.40 -0.00"/>
<use x="155.63" y="96.01" xlink:href="#hl"/>
<use x="155.63" y="90.01" xlink:href="#hl"/>
<use x="155.63" y="90.01" xlink:href="#hd"/>
<path d="M152.13 90.01v23.20" stroke="currentColor" fill="none"/>
<use x="170.93" y="96.01" xlink:href="#hl"/>
<use x="170.93" y="90.01" xlink:href="#hl"/>
<use x="170.93" y="87.01" xlink:href="#hd"/>
<path d="M167.43 87.01v26.20" stroke="currentColor" fill="none"/>
<path fill="currentColor"
	d="M185.13 114.21l18.70 0.00v-3.20l-18.70 -0.00"/>
<path fill="currentColor"
	d="M185.43 109.21l18.00 0.00v-3.20l-18.00 -0.00"/>
<use x="188.93" y="96.01" xlink:href="#hl"/>
<use x="188.93" y="90.01" xlink:href="#hl"/>
<use x="188.93" y="90.01" xlink:href="#hd"/>
<defs>
<path id="unat" fill="currentColor" d="
	m96 -750
	h-32
	v716
	l32 -8
	l182 -54
	v282
	h32
	v-706
	l-34 10
	l-180 50
	v-290
	m0 592
	v-190
	l182 -52
	v188"/>
<use id="nt0" transform="translate(-3,5) scale(0.018)"
	xlink:href="#unat"/>
</defs>
<use x="179.93" y="90.01" xlink:href="#nt0"/>
<path d="M185.43 90.01v23.20" stroke="currentColor" fill="none"/>
<use x="206.93" y="96.01" xlink:href="#hl"/>
<use x="206.93" y="90.01" xlink:href="#hl"/>
<use x="206.93" y="90.01" xlink:href="#hd"/>
<use x="197.93" y="90.01" xlink:href="#sh0"/>
<path d="M203.43 90.01v23.20" stroke="currentColor" fill="none"/>
<path fill="currentColor"
	d="M220.13 114.21l16.10 0.00v-3.20l-16.10 -0.00"/>
<path fill="currentColor"
	d="M220.43 109.21l15.40 0.00v-3.20l-15.40 -0.00"/>
<use x="223.93" y="96.01" xlink:href="#hl"/>
<use x="223.93" y="90.01" xlink:href="#hl"/>
<use x="223.93" y="87.01" xlink:href="#hd"/>
<path d="M220.43 87.01v26.20" stroke="currentColor" fill="none"/>
<use x="239.33" y="96.01" xlink:href="#hl"/>
<use x="239.33" y="90.01" xlink:href="#hl"/>
<use x="239.33" y="84.01" xlink:href="#hl"/>
<use x="239.33" y="84.01" xlink:href="#hd"/>
<path d="M235.83 84.01v29.20" stroke="currentColor" fill="none"/>
<path fill="currentColor"
	d="M252.53 114.21l16.10 0.00v-3.20l-16.10 -0.00"/>
<path fill="currentColor"
	d="M252.83 109.21l15.40 0.00v-3.20l-15.40 -0.00"/>
<use x="256.33" y="96.01" xlink:href="#hl"/>
<use x="256.33" y="90.01" xlink:href="#hl"/>
<use x="256.33" y="90.01" xlink:href="#hd"/>
<path d="M252.83 90.01v23.20" stroke="currentColor" fill="none"/>
<use x="271.73" y="96.01" xlink:href="#hl"/>
<use x="271.73" y="90.01" xlink:href="#hl"/>
<use x="271.73" y="87.01" xlink:href="#hd"/>
<path d="M268.23 87.01v26.20" stroke="currentColor" fill="none"/>
<path fill="currentColor"
	d="M284.83 114.21l16.10 0.00v-3.20l-16.10 -0.00"/>
<path fill="currentColor"
	d="M285.23 109.21l15.40 0.00v-3.20l-15.40 -0.00"/>
<use x="288.73" y="96.01" xlink:href="#hl"/>
<use x="288.73" y="90.01" xlink:href="#hl"/>
<use x="288.73" y="84.01" xlink:href="#hl"/>
<use x="288.73" y="84.01" xlink:href="#hd"/>
<path d="M285.23 84.01v29.20" stroke="currentColor" fill="none"/>
<use x="304.13" y="96.01" xlink:href="#hl"/>
<use x="304.13" y="90.01" xlink:href="#hl"/>
<use x="304.13" y="84.01" xlink:href="#hl"/>
<use x="304.13" y="81.01" xlink:href="#hd"/>
<path d="M300.63 81.01v32.20" stroke="currentColor" fill="none"/>
<path fill="currentColor"
	d="M317.23 114.21l16.10 0.00v-3.20l-16.10 -0.00"/>
<path fill="currentColor"
	d="M317.63 109.21l15.40 0.00v-3.20l-15.40 -0.00"/>
<use x="321.13" y="96.01" xlink:href="#hl"/>
<use x="321.13" y="90.01" xlink:href="#hl"/>
<use x="321.13" y="87.01" xlink:href="#hd"/>
<path d="M317.63 87.01v26.20" stroke="currentColor" fill="none"/>
<use x="336.43" y="96.01" xlink:href="#hl"/>
<use x="336.43" y="90.01" xlink:href="#hl"/>
<use x="336.43" y="84.01" xlink:href="#hl"/>
<use x="336.43" y="84.01" xlink:href="#hd"/>
<path d="M332.93 84.01v29.20" stroke="currentColor" fill="none"/>
<path fill="currentColor"
	d="M358.83 114.21l16.10 0.00v-3.20l-16.10 -0.00"/>
<path fill="currentColor"
	d="M359.13 109.21l15.40 0.00v-3.20l-15.40 -0.00"/>
<use x="362.63" y="96.01" xlink:href="#hl"/>
<use x="362.63" y="90.01" xlink:href="#hl"/>
<use x="362.63" y="84.01" xlink:href="#hl"/>
<use x="362.63" y="81.01" xlink:href="#hd"/>
<path d="M359.13 81.01v32.20" stroke="currentColor" fill="none"/>
<use x="378.03" y="96.01" xlink:href="#hl"/>
<use x="378.03" y="90.01" xlink:href="#hl"/>
<use x="378.03" y="84.01" xlink:href="#hl"/>
<use x="378.03" y="78.01" xlink:href="#hl"/>
<use x="378.03" y="78.01" xlink:href="#hd"/>
<path d="M374.53 78.01v35.20" stroke="currentColor" fill="none"/>
<path fill="currentColor"
	d="M391.13 114.21l16.10 0.00v-3.20l-16.10 -0.00"/>
<path fill="currentColor"
	d="M391.53 109.21l15.40 0.00v-3.20l-15.40 -0.00"/>
<use x="395.03" y="96.01" xlink:href="#hl"/>
<use x="395.03" y="90.01" xlink:href="#hl"/>
<use x="395.03" y="84.01" xlink:href="#hl"/>
<use x="395.03" y="84.01" xlink:href="#hd"/>
<path d="M391.53 84.01v29.20" stroke="currentColor" fill="none"/>
<use x="410.43" y="96.01" xlink:href="#hl"/>
<use x="410.43" y="90.01" xlink:href="#hl"/>
<use x="410.43" y="84.01" xlink:href="#hl"/>
<use x="410.43" y="81.01" xlink:href="#hd"/>
<path d="M406.93 81.01v32.20" stroke="currentColor" fill="none"/>
<path fill="currentColor"
	d="M423.53 114.21l16.10 0.00v-3.20l-16.10 -0.00"/>
<path fill="currentColor"
	d="M423.93 109.21l15.40 0.00v-3.20l-15.40 -0.00"/>
<use x="427.43" y="96.01" xlink:href="#hl"/>
<use x="427.43" y="90.01" xlink:href="#hl"/>
<use x="427.43" y="84.01" xlink:href="#hl"/>
<use x="427.43" y="78.01" xlink:href="#hl"/>
<use x="427.43" y="78.01" xlink:href="#hd"/>
<path d="M423.93 78.01v35.20" stroke="currentColor" fill="none"/>
<use x="442.73" y="96.01" xlink:href="#hl"/>
<use x="442.73" y="90.01" xlink:href="#hl"/>
<use x="442.73" y="84.01" xlink:href="#hl"/>
<use x="442.73" y="78.01" xlink:href="#hl"/>
<use x="442.73" y="75.01" xlink:href="#hd"/>
<path d="M439.23 75.01v38.20" stroke="currentColor" fill="none"/>
<path fill="currentColor"
	d="M455.93 114.21l16.10 0.00v-3.20l-16.10 -0.00"/>
<path fill="currentColor"
	d="M456.23 109.21l15.40 0.00v-3.20l-15.40 -0.00"/>
<use x="459.73" y="96.01" xlink:href="#hl"/>
<use x="459.73" y="90.01" xlink:href="#hl"/>
<use x="459.73" y="84.01" xlink:href="#hl"/>
<use x="459.73" y="78.01" xlink:href="#hl"/>
<use x="459.73" y="78.01" xlink:href="#hd"/>
<path d="M456.23 78.01v35.20" stroke="currentColor" fill="none"/>
<use x="475.13" y="96.01" xlink:href="#hl"/>
<use x="475.13" y="90.01" xlink:href="#hl"/>
<use x="475.13" y="84.01" xlink:href="#hl"/>
<use x="475.13" y="78.01" xlink:href="#hl"/>
<use x="475.13" y="72.01" xlink:href="#hl"/>
<use x="475.13" y="69.01" xlink:href="#hd"/>
<path d="M471.63 69.01v44.20" stroke="currentColor" fill="none"/>
<path fill="currentColor"
	d="M488.33 114.21l16.10 0.00v-3.20l-16.10 -0.00"/>
<path fill="currentColor"
	d="M488.63 109.21l15.40 0.00v-3.20l-15.40 -0.00"/>
<use x="492.13" y="96.01" xlink:href="#hl"/>
<use x="492.13" y="90.01" xlink:href="#hl"/>
<use x="492.13" y="84.01" xlink:href="#hl"/>
<use x="492.13" y="81.01" xlink:href="#hd"/>
<path d="M488.63 81.01v32.20" stroke="currentColor" fill="none"/>
<use x="507.53" y="96.01" xlink:href="#hl"/>
<use x="507.53" y="90.01" xlink:href="#hl"/>
<use x="507.53" y="84.01" xlink:href="#hl"/>
<use x="507.53" y="78.01" xlink:href="#hl"/>
<use x="507.53" y="78.01" xlink:href="#hd"/>
<path d="M504.03 78.01v35.20" stroke="currentColor" fill="none"/>
<path fill="currentColor"
	d="M520.73 114.21l16.10 0.00v-3.20l-16.10 -0.00"/>
<path fill="currentColor"
	d="M521.03 109.21l15.40 0.00v-3.20l-15.40 -0.00"/>
<use x="524.53" y="96.01" xlink:href="#hl"/>
<use x="524.53" y="90.01" xlink:href="#hl"/>
<use x="524.53" y="84.01" xlink:href="#hl"/>
<use x="524.53" y="81.01" xlink:href="#hd"/>
<path d="M521.03 81.01v32.20" stroke="currentColor" fill="none"/>
<use x="539.93" y="96.01" xlink:href="#hl"/>
<use x="539.93" y="90.01" xlink:href="#hl"/>
<use x="539.93" y="84.01" xlink:href="#hl"/>
<use x="539.93" y="78.01" xlink:href="#hl"/>
<use x="539.93" y="72.01" xlink:href="#hl"/>
<use x="539.93" y="69.01" xlink:href="#hd"/>
<path d="M536.43 69.01v44.20" stroke="currentColor" fill="none"/>
<path fill="currentColor"
	d="M553.03 114.21l16.10 0.00v-3.20l-16.10 -0.00"/>
<path fill="currentColor"
	d="M553.43 109.21l15.40 0.00v-3.20l-15.40 -0.00"/>
<use x="556.93" y="96.01" xlink:href="#hl"/>
<use x="556.93" y="90.01" xlink:href="#hl"/>
<use x="556.93" y="84.01" xlink:href="#hl"/>
<use x="556.93" y="84.01" xlink:href="#hd"/>
<path d="M553.43 84.01v29.20" stroke="currentColor" fill="none"/>
<use x="572.23" y="96.01" xlink:href="#hl"/>
<use x="572.23" y="90.01" xlink:href="#hl"/>
<use x="572.23" y="84.01" xlink:href="#hl"/>
<use x="572.23" y="81.01" xlink:href="#hd"/>
<path d="M568.73 81.01v32.20" stroke="currentColor" fill="none"/>
<path fill="currentColor"
	d="M585.43 114.21l16.10 0.00v-3.20l-16.10 -0.00"/>
<path fill="currentColor"
	d="M585.83 109.21l15.40 0.00v-3.20l-15.40 -0.00"/>
<use x="589.33" y="96.01" xlink:href="#hl"/>
<use x="589.33" y="90.01" xlink:href="#hl"/>
<use x="589.33" y="84.01" xlink:href="#hl"/>
<use x="589.33" y="84.01" xlink:href="#hd"/>
<path d="M585.83 84.01v29.20" stroke="currentColor" fill="none"/>
<use x="604.63" y="96.01" xlink:href="#hl"/>
<use x="604.63" y="90.01" xlink:href="#hl"/>
<use x="604.63" y="84.01" xlink:href="#hl"/>
<use x="604.63" y="78.01" xlink:href="#hl"/>
<use x="604.63" y="72.01" xlink:href="#hl"/>
<use x="604.63" y="69.01" xlink:href="#hd"/>
<path d="M601.13 69.01v44.20" stroke="currentColor" fill="none"/>
<path fill="currentColor"
	d="M627.03 114.21l16.10 0.00v-3.20l-16.10 -0.00"/>
<path fill="currentColor"
	d="M627.33 109.21l15.40 0.00v-3.20l-15.40 -0.00"/>
<use x="630.83" y="96.01" xlink:href="#hl"/>
<use x="630.83" y="90.01" xlink:href="#hl"/>
<use x="630.83" y="87.01" xlink:href="#hd"/>
<path d="M627.33 87.01v26.20" stroke="currentColor" fill="none"/>
<use x="646.23" y="96.01" xlink:href="#hl"/>
<use x="646.23" y="90.01" xlink:href="#hl"/>
<use x="646.23" y="84.01" xlink:href="#hl"/>
<use x="646.23" y="84.01" xlink:href="#hd"/>
<path d="M642.73 84.01v29.20" stroke="currentColor" fill="none"/>
<path fill="currentColor"
	d="M659.33 114.21l16.10 0.00v-3.20l-16.10 -0.00"/>
<path fill="currentColor"
	d="M659.73 109.21l15.40 0.00v-3.20l-15.40 -0.00"/>
<use x="663.23" y="96.01" xlink:href="#hl"/>
<use x="663.23" y="90.01" xlink:href="#hl"/>
<use x="663.23" y="87.01" xlink:href="#hd"/>
<path d="M659.73 87.01v26.20" stroke="currentColor" fill="none"/>
<use x="678.53" y="96.01" xlink:href="#hl"/>
<use x="678.53" y="90.01" xlink:href="#hl"/>
<use x="678.53" y="84.01" xlink:href="#hl"/>
<use x="678.53" y="78.01" xlink:href="#hl"/>
<use x="678.53" y="72.01" xlink:href="#hl"/>
<use x="678.53" y="69.01" xlink:href="#hd"/>
<path d="M675.03 69.01v44.20" stroke="currentColor" fill="none"/>
</g>
</svg>
