<?xml version="1.0" standalone="no"?>
<!DOCTYPE svg PUBLIC "-//W3C//DTD SVG 1.1//EN"
	"http://www.w3.org/Graphics/SVG/1.1/DTD/svg11.dtd">
<svg xmlns="http://www.w3.org/2000/svg" version="1.1"
	xmlns:xlink="http://www.w3.org/1999/xlink"
	xml:space='preserve' color="black"
	width="7.38in" height="1.46in" viewBox="0 0 531 105">
<title>9211.abc (9211) tune 1</title>
<!-- Creator: abcm2ps-7.8.14 -->
<!-- CreationDate: Mar 13, 2016 18:54 -->
<!-- CommandLine: -qxg 9211.abc -O ../svgs/9211.svg -->
<g transform="scale(0.750)" stroke-width="0.70" font-family="Times" font-size="20.00">
<text x="354.13" y="21.67" text-anchor="middle">9211.  Impromptu, Op. 29 - 3rd. Theme</text>
</g>
<g transform="scale(0.750)" stroke-width="0.70" font-family="Times" font-size="14.00" font-style="italic">
<text x="694.93" y="45.34" text-anchor="end">Frederic Chopin</text>
</g>
<g transform="scale(0.525)" stroke-width="0.70" font-family="Times" font-size="14.00" font-style="italic">
<defs>
<ellipse id="hd" rx="4.1" ry="2.9"
	transform="rotate(-20)" fill="currentColor"/>
</defs>
<use x="130.61" y="94.16" xlink:href="#hd"/>
<path d="M134.11 94.16v-20.00" stroke="currentColor" fill="none"/>
</g>
<g transform="scale(0.750)" stroke-width="0.70" font-family="Times" font-size="15.00" font-weight="bold">
<text x="99.13" y="68.01">= 120</text>
<path stroke="currentColor" fill="none"
	d="M222.63 117.01v-24.00"/>
<path stroke="currentColor" fill="none"
	d="M324.53 117.01v-24.00"/>
<path stroke="currentColor" fill="none"
	d="M558.83 117.01v-24.00"/>
<path stroke="currentColor" fill="none"
	d="M661.53 117.01v-24.00"/>
<path stroke="currentColor" fill="none"
	d="M13.33 117.01h681.60m-681.60 -6h681.60m-681.60 -6h681.60m-681.60 -6h681.60m-681.60 -6h681.60"/>
<path stroke="currentColor" fill="none"
	d="M355.03 67.01v-3l29.00 -0.00v3"/>
<rect x="362.53" y="58.01" width="14.00" height="12" fill="white"/>
<text font-family="serif" font-size="12" font-style="italic" font-weight="normal"
	x="369.53" y="68.01" text-anchor="middle">3</text>
<path stroke="currentColor" fill="none"
	d="M471.83 61.01v-3l57.20 -0.00v3"/>
<rect x="493.53" y="52.01" width="14.00" height="12" fill="white"/>
<text font-family="serif" font-size="12" font-style="italic" font-weight="normal"
	x="500.53" y="62.01" text-anchor="middle">3</text>
<defs>
<path id="utclef" fill="currentColor" d="m-50 -90
	c-72 -41 -72 -158 52 -188
	c150 -10 220 188 90 256
	c-114 52 -275 0 -293 -136
	c-15 -181 93 -229 220 -334
	c88 -87 79 -133 62 -210
	c-51 33 -94 105 -89 186
	c17 267 36 374 49 574
	c6 96 -19 134 -77 135
	c-80 1 -126 -93 -61 -133
	c85 -41 133 101 31 105
	c23 17 92 37 90 -92
	c-10 -223 -39 -342 -50 -617
	c0 -90 0 -162 96 -232
	c56 72 63 230 22 289
	c-74 106 -257 168 -255 316
	c9 153 148 185 252 133
	c86 -65 29 -192 -80 -176
	c-71 12 -105 67 -59 124"/>
<use id="tclef" transform="scale(0.045)"
	xlink:href="#utclef"/>
</defs>
<use x="25.33" y="117.01" xlink:href="#tclef"/>
<defs>
<path id="uflat" fill="currentColor" d="
	m100 -746
	h32
	v734
	l-32 4
	m32 -332
	c46 -72 152 -90 208 -20
	c100 110 -120 326 -208 348
	m0 -28
	c54 0 200 -206 130 -290
	c-50 -60 -130 -4 -130 34"/>
<use id="ft0" transform="translate(-3.5,3.5) scale(0.018)"
	xlink:href="#uflat"/>
</defs>
<use x="40.33" y="105.01" xlink:href="#ft0"/>
<use x="45.83" y="96.01" xlink:href="#ft0"/>
<use x="51.33" y="108.01" xlink:href="#ft0"/>
<use x="56.83" y="99.01" xlink:href="#ft0"/>
<g font-family="serif" font-size="16" font-weight="bold" font-style="normal"
	transform="translate(72.83,117.01) scale(1.2,1)">
	<text y="-1" text-anchor="middle">4</text>
	<text y="-13" text-anchor="middle">4</text>
</g>
<defs>
<path id="hl" stroke="currentColor" d="m-6 0h12"/>
</defs>
<use x="90.83" y="87.01" xlink:href="#hl"/>
<use x="90.83" y="81.01" xlink:href="#hl"/>
<use x="90.83" y="81.01" xlink:href="#hd"/>
<path d="M87.33 81.01v24.00" stroke="currentColor" fill="none"/>
<path fill="currentColor"
	d="M87.33 105.01c0.6 -5.6 9.6 -9 5.6 -18.4
	c1.6 6 -1.3 11.6 -5.6 12.8
"/>
<use x="112.83" y="87.01" xlink:href="#hl"/>
<use x="112.83" y="81.01" xlink:href="#hl"/>
<use x="112.83" y="78.01" xlink:href="#hd"/>
<path d="M109.33 78.01v27.00" stroke="currentColor" fill="none"/>
<use x="143.53" y="87.01" xlink:href="#hl"/>
<use x="143.53" y="81.01" xlink:href="#hl"/>
<use x="143.53" y="81.01" xlink:href="#hd"/>
<path d="M140.03 81.01v24.00" stroke="currentColor" fill="none"/>
<use x="174.23" y="87.01" xlink:href="#hl"/>
<use x="174.23" y="81.01" xlink:href="#hl"/>
<use x="174.23" y="75.01" xlink:href="#hl"/>
<use x="174.23" y="72.01" xlink:href="#hd"/>
<path d="M170.73 72.01v33.00" stroke="currentColor" fill="none"/>
<use x="204.83" y="87.01" xlink:href="#hl"/>
<use x="204.83" y="81.01" xlink:href="#hl"/>
<use x="204.83" y="75.01" xlink:href="#hl"/>
<use x="204.83" y="69.01" xlink:href="#hl"/>
<use x="204.83" y="69.01" xlink:href="#hd"/>
<path d="M201.33 69.01v36.00" stroke="currentColor" fill="none"/>
<path fill="currentColor"
	d="M201.33 105.01c0.6 -5.6 9.6 -9 5.6 -18.4
	c1.6 6 -1.3 11.6 -5.6 12.8
"/>
<use x="235.13" y="87.01" xlink:href="#hl"/>
<use x="235.13" y="81.01" xlink:href="#hl"/>
<use x="235.13" y="75.01" xlink:href="#hl"/>
<use x="235.13" y="69.01" xlink:href="#hl"/>
<use x="235.13" y="69.01" xlink:href="#hd"/>
<path d="M231.63 69.01v36.00" stroke="currentColor" fill="none"/>
<path fill="currentColor"
	d="M231.63 105.01c0.6 -5.6 9.6 -9 5.6 -18.4
	c1.6 6 -1.3 11.6 -5.6 12.8
"/>
<use x="257.13" y="87.01" xlink:href="#hl"/>
<use x="257.13" y="81.01" xlink:href="#hl"/>
<use x="257.13" y="75.01" xlink:href="#hl"/>
<use x="257.13" y="69.01" xlink:href="#hl"/>
<defs>
<path id="Hd" fill="currentColor" d="m3 -1.6
	c-1 -1.8 -7 1.4 -6 3.2
	c1 1.8 7 -1.4 6 -3.2
	m0.5 -0.3
	c2 3.8 -5 7.6 -7 3.8
	c-2 -3.8 5 -7.6 7 -3.8"/>
</defs>
<use x="257.13" y="66.01" xlink:href="#Hd"/>
<circle fill="currentColor" cx="266.13" cy="66.01" r="1.2"/>
<path d="M253.63 66.01v39.00" stroke="currentColor" fill="none"/>
<use x="306.73" y="87.01" xlink:href="#hl"/>
<use x="306.73" y="81.01" xlink:href="#hl"/>
<use x="306.73" y="81.01" xlink:href="#hd"/>
<path d="M303.23 81.01v24.00" stroke="currentColor" fill="none"/>
<path fill="currentColor"
	d="M303.23 105.01c0.6 -5.6 9.6 -9 5.6 -18.4
	c1.6 6 -1.3 11.6 -5.6 12.8
"/>
<use x="337.03" y="87.01" xlink:href="#hl"/>
<use x="337.03" y="81.01" xlink:href="#hl"/>
<use x="337.03" y="81.01" xlink:href="#hd"/>
<path d="M333.53 81.01v24.00" stroke="currentColor" fill="none"/>
<path fill="currentColor"
	d="M333.53 105.01c0.6 -5.6 9.6 -9 5.6 -18.4
	c1.6 6 -1.3 11.6 -5.6 12.8
"/>
<path fill="currentColor"
	d="M355.23 106.01l79.70 0.00v-3.20l-79.70 -0.00"/>
<path fill="currentColor"
	d="M355.53 101.01l60.60 0.00v-3.20l-60.60 -0.00"/>
<path fill="currentColor"
	d="M355.53 96.01l31.50 0.00v-3.20l-31.50 -0.00"/>
<path fill="currentColor"
	d="M410.13 96.01l6.00 0.00v-3.20l-6.00 -0.00"/>
<use x="359.03" y="87.01" xlink:href="#hl"/>
<use x="359.03" y="81.01" xlink:href="#hl"/>
<use x="359.03" y="78.01" xlink:href="#hd"/>
<path d="M355.53 78.01v27.00" stroke="currentColor" fill="none"/>
<use x="369.53" y="87.01" xlink:href="#hl"/>
<use x="369.53" y="81.01" xlink:href="#hl"/>
<use x="369.53" y="81.01" xlink:href="#hd"/>
<path d="M366.03 81.01v24.00" stroke="currentColor" fill="none"/>
<use x="380.03" y="87.01" xlink:href="#hl"/>
<use x="380.03" y="81.01" xlink:href="#hl"/>
<use x="380.03" y="78.01" xlink:href="#hd"/>
<path d="M376.53 78.01v27.00" stroke="currentColor" fill="none"/>
<use x="390.53" y="87.01" xlink:href="#hl"/>
<use x="390.53" y="81.01" xlink:href="#hl"/>
<use x="390.53" y="75.01" xlink:href="#hl"/>
<use x="390.53" y="75.01" xlink:href="#hd"/>
<path d="M387.03 75.01v30.00" stroke="currentColor" fill="none"/>
<use x="401.13" y="87.01" xlink:href="#hl"/>
<use x="401.13" y="81.01" xlink:href="#hl"/>
<use x="401.13" y="78.01" xlink:href="#hd"/>
<path d="M397.63 78.01v27.00" stroke="currentColor" fill="none"/>
<use x="419.63" y="87.01" xlink:href="#hl"/>
<use x="419.63" y="81.01" xlink:href="#hl"/>
<use x="419.63" y="78.01" xlink:href="#hd"/>
<path d="M416.13 78.01v27.00" stroke="currentColor" fill="none"/>
<use x="412.53" y="81.01" xlink:href="#hl"/>
<use x="412.53" y="81.01" xlink:href="#hd"/>
<use x="438.13" y="87.01" xlink:href="#hl"/>
<use x="438.13" y="81.01" xlink:href="#hl"/>
<use x="438.13" y="81.01" xlink:href="#hd"/>
<path d="M434.63 81.01v24.00" stroke="currentColor" fill="none"/>
<defs>
<path id="r8e" fill="currentColor" d="m 0 0
	c-1.5 1.5 -2.4 2 -3.6 2
	c2.4 -2.8 -2.8 -4 -2.8 -1.2
	c0 2.7 4.3 2.4 5.9 0.6"/>
<g id="r32">
	<path d="m4.8 -10l-5.5 21.6" stroke="currentColor" fill="none"/>
	<use x="4.9" y="-10" xlink:href="#r8e"/>
	<use x="3.4" y="-4" xlink:href="#r8e"/>
	<use x="1.9" y="2" xlink:href="#r8e"/>
</g>
</defs>
<use x="457.83" y="105.01" xlink:href="#r32"/>
<use x="475.83" y="87.01" xlink:href="#hl"/>
<use x="475.83" y="81.01" xlink:href="#hl"/>
<use x="475.83" y="78.01" xlink:href="#hd"/>
<defs>
<path id="unat" fill="currentColor" d="
	m96 -750
	h-32
	v716
	l32 -8
	l182 -54
	v282
	h32
	v-706
	l-34 10
	l-180 50
	v-290
	m0 592
	v-190
	l182 -52
	v188"/>
<use id="nt0" transform="translate(-3,5) scale(0.018)"
	xlink:href="#unat"/>
</defs>
<use x="466.83" y="78.01" xlink:href="#nt0"/>
<path d="M472.33 78.01v27.00" stroke="currentColor" fill="none"/>
<use x="500.93" y="87.01" xlink:href="#hl"/>
<use x="500.93" y="81.01" xlink:href="#hl"/>
<use x="500.93" y="75.01" xlink:href="#hl"/>
<use x="500.93" y="75.01" xlink:href="#hd"/>
<use x="491.93" y="75.01" xlink:href="#nt0"/>
<path d="M497.43 75.01v30.00" stroke="currentColor" fill="none"/>
<use x="525.13" y="87.01" xlink:href="#hl"/>
<use x="525.13" y="81.01" xlink:href="#hl"/>
<use x="525.13" y="75.01" xlink:href="#hl"/>
<use x="525.13" y="72.01" xlink:href="#hd"/>
<path d="M521.63 72.01v33.00" stroke="currentColor" fill="none"/>
<use x="549.33" y="87.01" xlink:href="#hl"/>
<use x="549.33" y="81.01" xlink:href="#hl"/>
<use x="549.33" y="75.01" xlink:href="#hl"/>
<use x="549.33" y="69.01" xlink:href="#hl"/>
<use x="549.33" y="69.01" xlink:href="#hd"/>
<path d="M545.83 69.01v36.00" stroke="currentColor" fill="none"/>
<path fill="currentColor"
	d="M545.83 105.01c0.9 -3.7 9.1 -6.4 6 -12.4
	c1 5.4 -4.2 8.4 -6 8.4
M545.83 99.61c0.9 -3.7 9.1 -6.4 6 -12.4
	c1 5.4 -4.2 8.4 -6 8.4
M545.83 94.21c0.9 -3.7 9.1 -6.4 6 -12.4
	c1 5.4 -4.2 8.4 -6 8.4
"/>
<use x="571.33" y="87.01" xlink:href="#hl"/>
<use x="571.33" y="81.01" xlink:href="#hl"/>
<use x="571.33" y="75.01" xlink:href="#hl"/>
<use x="571.33" y="69.01" xlink:href="#hl"/>
<use x="571.33" y="69.01" xlink:href="#hd"/>
<path d="M567.83 69.01v36.00" stroke="currentColor" fill="none"/>
<path fill="currentColor"
	d="M567.83 105.01c0.6 -5.6 9.6 -9 5.6 -18.4
	c1.6 6 -1.3 11.6 -5.6 12.8
"/>
<use x="593.33" y="87.01" xlink:href="#hl"/>
<use x="593.33" y="81.01" xlink:href="#hl"/>
<use x="593.33" y="75.01" xlink:href="#hl"/>
<use x="593.33" y="69.01" xlink:href="#hl"/>
<use x="593.33" y="66.01" xlink:href="#Hd"/>
<circle fill="currentColor" cx="602.33" cy="66.01" r="1.2"/>
<path d="M589.83 66.01v39.00" stroke="currentColor" fill="none"/>
<use x="643.83" y="87.01" xlink:href="#hl"/>
<use x="643.83" y="81.01" xlink:href="#hl"/>
<use x="643.83" y="75.01" xlink:href="#hl"/>
<use x="643.83" y="69.01" xlink:href="#hl"/>
<use x="643.83" y="66.01" xlink:href="#hd"/>
<path d="M640.33 66.01v39.00" stroke="currentColor" fill="none"/>
<path fill="currentColor"
	d="M640.33 105.01c0.6 -5.6 9.6 -9 5.6 -18.4
	c1.6 6 -1.3 11.6 -5.6 12.8
"/>
<use x="674.03" y="87.01" xlink:href="#hl"/>
<use x="674.03" y="81.01" xlink:href="#hl"/>
<use x="674.03" y="75.01" xlink:href="#hl"/>
<use x="674.03" y="69.01" xlink:href="#hl"/>
<use x="674.03" y="66.01" xlink:href="#hd"/>
<path d="M670.53 66.01v39.00" stroke="currentColor" fill="none"/>
<path fill="currentColor"
	d="M670.53 105.01c0.6 -5.6 9.6 -9 5.6 -18.4
	c1.6 6 -1.3 11.6 -5.6 12.8
"/>
<path fill="currentColor"
	d="M208.33 69.01c3.66 -4.92 19.59 -4.92 23.25 -0.00
	l0.00 -0.22c-4.36 -6.70 -18.89 -6.70 -23.25 0.22"/>
<path fill="currentColor"
	d="M310.23 81.01c3.66 -4.92 19.59 -4.92 23.25 -0.00
	l0.00 -0.22c-4.36 -6.70 -18.89 -6.70 -23.25 0.22"/>
<path fill="currentColor"
	d="M401.13 76.01c2.91 -4.83 15.59 -4.83 18.50 -0.00
	l0.00 -0.22c-3.47 -6.61 -15.03 -6.61 -18.50 0.22"/>
<path fill="currentColor"
	d="M419.63 81.01c2.91 -4.83 15.59 -4.83 18.50 -0.00
	l0.00 -0.22c-3.47 -6.61 -15.03 -6.61 -18.50 0.22"/>
<path fill="currentColor"
	d="M552.83 69.01c2.36 -4.77 12.64 -4.77 15.00 -0.00
	l0.00 -0.22c-2.81 -6.56 -12.19 -6.56 -15.00 0.22"/>
<path fill="currentColor"
	d="M596.83 64.01c6.78 -5.28 36.71 -5.28 43.49 -0.00
	l0.00 -0.24c-8.09 -7.04 -35.40 -7.04 -43.49 0.24"/>
<path fill="currentColor"
	d="M647.33 64.01c3.66 -4.92 19.59 -4.92 23.25 -0.00
	l0.00 -0.22c-4.36 -6.70 -18.89 -6.70 -23.25 0.22"/>
</g>
</svg>
