<?xml version="1.0" standalone="no"?>
<!DOCTYPE svg PUBLIC "-//W3C//DTD SVG 1.1//EN"
	"http://www.w3.org/Graphics/SVG/1.1/DTD/svg11.dtd">
<svg xmlns="http://www.w3.org/2000/svg" version="1.1"
	xmlns:xlink="http://www.w3.org/1999/xlink"
	xml:space='preserve' color="black"
	width="7.38in" height="1.34in" viewBox="0 0 531 97">
<title>9212.abc (9212) tune 1</title>
<!-- Creator: abcm2ps-7.8.14 -->
<!-- CreationDate: Mar 13, 2016 18:54 -->
<!-- CommandLine: -qxg 9212.abc -O ../svgs/9212.svg -->
<g transform="scale(0.750)" stroke-width="0.70" font-family="Times" font-size="20.00">
<text x="354.13" y="21.67" text-anchor="middle">9212.  Impromptu, Op. 36</text>
</g>
<g transform="scale(0.750)" stroke-width="0.70" font-family="Times" font-size="14.00" font-style="italic">
<text x="694.93" y="45.34" text-anchor="end">Frederic Chopin</text>
</g>
<g transform="scale(0.525)" stroke-width="0.70" font-family="Times" font-size="14.00" font-style="italic">
<defs>
<ellipse id="hd" rx="4.1" ry="2.9"
	transform="rotate(-20)" fill="currentColor"/>
</defs>
<use x="146.33" y="94.16" xlink:href="#hd"/>
<path d="M149.83 94.16v-20.00" stroke="currentColor" fill="none"/>
</g>
<g transform="scale(0.750)" stroke-width="0.70" font-family="Times" font-size="15.00" font-weight="bold">
<text x="110.13" y="68.01">= 120</text>
<path stroke="currentColor" fill="none"
	d="M220.73 106.01v-24.00"/>
<path stroke="currentColor" fill="none"
	d="M338.83 106.01v-24.00"/>
<path stroke="currentColor" fill="none"
	d="M456.83 106.01v-24.00"/>
<path stroke="currentColor" fill="none"
	d="M555.93 106.01v-24.00"/>
<path stroke="currentColor" fill="none"
	d="M655.13 106.01v-24.00"/>
<path stroke="currentColor" fill="none"
	d="M13.33 106.01h681.60m-681.60 -6h681.60m-681.60 -6h681.60m-681.60 -6h681.60m-681.60 -6h681.60"/>
<defs>
<path id="utclef" fill="currentColor" d="m-50 -90
	c-72 -41 -72 -158 52 -188
	c150 -10 220 188 90 256
	c-114 52 -275 0 -293 -136
	c-15 -181 93 -229 220 -334
	c88 -87 79 -133 62 -210
	c-51 33 -94 105 -89 186
	c17 267 36 374 49 574
	c6 96 -19 134 -77 135
	c-80 1 -126 -93 -61 -133
	c85 -41 133 101 31 105
	c23 17 92 37 90 -92
	c-10 -223 -39 -342 -50 -617
	c0 -90 0 -162 96 -232
	c56 72 63 230 22 289
	c-74 106 -257 168 -255 316
	c9 153 148 185 252 133
	c86 -65 29 -192 -80 -176
	c-71 12 -105 67 -59 124"/>
<use id="tclef" transform="scale(0.045)"
	xlink:href="#utclef"/>
</defs>
<use x="25.33" y="106.01" xlink:href="#tclef"/>
<defs>
<path id="usharp" fill="currentColor" d="
	m136 -702
	v890
	h32
	v-890
	m128 840
	h32
	v-888
	h-32
	m-232 286
	v116
	l338 -96
	v-116
	m-338 442
	v116
	l338 -98
	v-114"/>
<use id="sh0" transform="translate(-4,5) scale(0.018)"
	xlink:href="#usharp"/>
</defs>
<use x="40.33" y="82.01" xlink:href="#sh0"/>
<use x="45.83" y="91.01" xlink:href="#sh0"/>
<use x="51.33" y="79.01" xlink:href="#sh0"/>
<use x="56.83" y="88.01" xlink:href="#sh0"/>
<use x="62.33" y="97.01" xlink:href="#sh0"/>
<use x="67.83" y="85.01" xlink:href="#sh0"/>
<g font-family="serif" font-size="16" font-weight="bold" font-style="normal"
	transform="translate(83.83,106.01) scale(1.2,1)">
	<text y="-1" text-anchor="middle">2</text>
	<text y="-13" text-anchor="middle">2</text>
</g>
<use x="101.83" y="91.01" xlink:href="#hd"/>
<path d="M98.33 91.01v20.00" stroke="currentColor" fill="none"/>
<use x="129.53" y="85.01" xlink:href="#hd"/>
<path d="M126.03 85.01v20.00" stroke="currentColor" fill="none"/>
<use x="157.13" y="79.01" xlink:href="#hd"/>
<path d="M153.63 79.01v20.00" stroke="currentColor" fill="none"/>
<use x="184.83" y="85.01" xlink:href="#hd"/>
<path d="M181.33 85.01v20.00" stroke="currentColor" fill="none"/>
<path fill="currentColor"
	d="M181.33 105.01c0.6 -5.6 9.6 -9 5.6 -18.4
	c1.6 6 -1.3 11.6 -5.6 12.8
"/>
<use x="204.63" y="79.01" xlink:href="#hd"/>
<path d="M201.13 79.01v20.00" stroke="currentColor" fill="none"/>
<path fill="currentColor"
	d="M201.13 99.01c0.6 -5.6 9.6 -9 5.6 -18.4
	c1.6 6 -1.3 11.6 -5.6 12.8
"/>
<defs>
<path id="hl" stroke="currentColor" d="m-6 0h12"/>
</defs>
<use x="233.23" y="76.01" xlink:href="#hl"/>
<use x="233.23" y="76.01" xlink:href="#hd"/>
<path d="M229.73 76.01v20.00" stroke="currentColor" fill="none"/>
<use x="261.03" y="76.01" xlink:href="#hl"/>
<use x="261.03" y="73.01" xlink:href="#hd"/>
<path d="M257.53 73.01v21.00" stroke="currentColor" fill="none"/>
<use x="288.83" y="76.01" xlink:href="#hl"/>
<use x="288.83" y="70.01" xlink:href="#hl"/>
<use x="288.83" y="70.01" xlink:href="#hd"/>
<path d="M285.33 70.01v24.00" stroke="currentColor" fill="none"/>
<use x="316.43" y="79.01" xlink:href="#hd"/>
<path d="M312.93 79.01v20.00" stroke="currentColor" fill="none"/>
<use x="351.33" y="76.01" xlink:href="#hl"/>
<use x="351.33" y="76.01" xlink:href="#hd"/>
<path d="M347.83 76.01v20.00" stroke="currentColor" fill="none"/>
<use x="379.13" y="76.01" xlink:href="#hl"/>
<use x="379.13" y="73.01" xlink:href="#hd"/>
<path d="M375.63 73.01v21.00" stroke="currentColor" fill="none"/>
<use x="406.73" y="79.01" xlink:href="#hd"/>
<path d="M403.23 79.01v20.00" stroke="currentColor" fill="none"/>
<use x="434.43" y="76.01" xlink:href="#hl"/>
<use x="434.43" y="76.01" xlink:href="#hd"/>
<path d="M430.93 76.01v20.00" stroke="currentColor" fill="none"/>
<use x="469.33" y="85.01" xlink:href="#hd"/>
<path d="M465.83 85.01v20.00" stroke="currentColor" fill="none"/>
<use x="496.93" y="88.01" xlink:href="#hd"/>
<path d="M493.43 88.01v20.00" stroke="currentColor" fill="none"/>
<defs>
<path id="Hd" fill="currentColor" d="m3 -1.6
	c-1 -1.8 -7 1.4 -6 3.2
	c1 1.8 7 -1.4 6 -3.2
	m0.5 -0.3
	c2 3.8 -5 7.6 -7 3.8
	c-2 -3.8 5 -7.6 7 -3.8"/>
</defs>
<use x="524.63" y="91.01" xlink:href="#Hd"/>
<path d="M521.13 91.01v20.00" stroke="currentColor" fill="none"/>
<use x="568.43" y="91.01" xlink:href="#hd"/>
<path d="M564.93 91.01v20.00" stroke="currentColor" fill="none"/>
<use x="596.13" y="88.01" xlink:href="#hd"/>
<path d="M592.63 88.01v20.00" stroke="currentColor" fill="none"/>
<use x="623.83" y="91.01" xlink:href="#Hd"/>
<path d="M620.33 91.01v20.00" stroke="currentColor" fill="none"/>
<use x="667.63" y="91.01" xlink:href="#hd"/>
<path d="M664.13 91.01v20.00" stroke="currentColor" fill="none"/>
<path fill="currentColor"
	d="M528.13 89.01c5.80 -5.16 31.01 -5.16 36.80 -0.00
	l0.00 -0.24c-6.90 -6.93 -29.90 -6.93 -36.80 0.24"/>
<path fill="currentColor"
	d="M627.33 89.01c5.80 -5.16 31.01 -5.16 36.80 -0.00
	l0.00 -0.24c-6.90 -6.93 -29.90 -6.93 -36.80 0.24"/>
</g>
</svg>
