<?xml version="1.0" standalone="no"?>
<!DOCTYPE svg PUBLIC "-//W3C//DTD SVG 1.1//EN"
	"http://www.w3.org/Graphics/SVG/1.1/DTD/svg11.dtd">
<svg xmlns="http://www.w3.org/2000/svg" version="1.1"
	xmlns:xlink="http://www.w3.org/1999/xlink"
	xml:space='preserve' color="black"
	width="7.38in" height="1.46in" viewBox="0 0 531 105">
<title>9220.abc (9220) tune 1</title>
<!-- Creator: abcm2ps-7.8.14 -->
<!-- CreationDate: Mar 13, 2016 18:54 -->
<!-- CommandLine: -qxg 9220.abc -O ../svgs/9220.svg -->
<g transform="scale(0.750)" stroke-width="0.70" font-family="Times" font-size="20.00">
<text x="354.13" y="21.67" text-anchor="middle">9220.  Mazurkas 13, Op. 17, No. 4</text>
</g>
<g transform="scale(0.750)" stroke-width="0.70" font-family="Times" font-size="14.00" font-style="italic">
<text x="694.93" y="45.34" text-anchor="end">Frederic Chopin</text>
</g>
<g transform="scale(0.525)" stroke-width="0.70" font-family="Times" font-size="14.00" font-style="italic">
<defs>
<ellipse id="hd" rx="4.1" ry="2.9"
	transform="rotate(-20)" fill="currentColor"/>
</defs>
<use x="89.19" y="94.16" xlink:href="#hd"/>
<path d="M92.69 94.16v-20.00" stroke="currentColor" fill="none"/>
</g>
<g transform="scale(0.750)" stroke-width="0.70" font-family="Times" font-size="15.00" font-weight="bold">
<text x="70.13" y="68.01">= 120</text>
<path stroke="currentColor" fill="none"
	d="M186.03 117.01v-24.00"/>
<path stroke="currentColor" fill="none"
	d="M328.43 117.01v-24.00"/>
<path stroke="currentColor" fill="none"
	d="M481.33 117.01v-24.00"/>
<path stroke="currentColor" fill="none"
	d="M547.03 117.01v-24.00"/>
<path stroke="currentColor" fill="none"
	d="M13.33 117.01h533.70m-533.70 -6h533.70m-533.70 -6h533.70m-533.70 -6h533.70m-533.70 -6h533.70"/>
<defs>
<path id="utclef" fill="currentColor" d="m-50 -90
	c-72 -41 -72 -158 52 -188
	c150 -10 220 188 90 256
	c-114 52 -275 0 -293 -136
	c-15 -181 93 -229 220 -334
	c88 -87 79 -133 62 -210
	c-51 33 -94 105 -89 186
	c17 267 36 374 49 574
	c6 96 -19 134 -77 135
	c-80 1 -126 -93 -61 -133
	c85 -41 133 101 31 105
	c23 17 92 37 90 -92
	c-10 -223 -39 -342 -50 -617
	c0 -90 0 -162 96 -232
	c56 72 63 230 22 289
	c-74 106 -257 168 -255 316
	c9 153 148 185 252 133
	c86 -65 29 -192 -80 -176
	c-71 12 -105 67 -59 124"/>
<use id="tclef" transform="scale(0.045)"
	xlink:href="#utclef"/>
</defs>
<use x="25.33" y="117.01" xlink:href="#tclef"/>
<g font-family="serif" font-size="16" font-weight="bold" font-style="normal"
	transform="translate(43.83,117.01) scale(1.2,1)">
	<text y="-1" text-anchor="middle">4</text>
	<text y="-13" text-anchor="middle">3</text>
</g>
<defs>
<path id="hl" stroke="currentColor" d="m-6 0h12"/>
</defs>
<use x="61.83" y="87.01" xlink:href="#hl"/>
<use x="61.83" y="84.01" xlink:href="#hd"/>
<circle fill="currentColor" cx="69.83" cy="84.01" r="1.2"/>
<path d="M58.33 84.01v21.00" stroke="currentColor" fill="none"/>
<path fill="currentColor"
	d="M58.33 105.01c0.6 -5.6 9.6 -9 5.6 -18.4
	c1.6 6 -1.3 11.6 -5.6 12.8
"/>
<use x="94.03" y="87.01" xlink:href="#hl"/>
<use x="94.03" y="81.01" xlink:href="#hl"/>
<use x="94.03" y="81.01" xlink:href="#hd"/>
<path d="M90.53 81.01v24.00" stroke="currentColor" fill="none"/>
<path fill="currentColor"
	d="M90.53 105.01c0.9 -3.7 9.1 -6.4 6 -12.4
	c1 5.4 -4.2 8.4 -6 8.4
M90.53 99.61c0.9 -3.7 9.1 -6.4 6 -12.4
	c1 5.4 -4.2 8.4 -6 8.4
"/>
<use x="114.03" y="87.01" xlink:href="#hl"/>
<use x="114.03" y="81.01" xlink:href="#hl"/>
<use x="114.03" y="78.01" xlink:href="#hd"/>
<path d="M110.53 78.01v27.00" stroke="currentColor" fill="none"/>
<use x="154.03" y="87.01" xlink:href="#hl"/>
<use x="154.03" y="87.01" xlink:href="#hd"/>
<path d="M150.53 87.01v20.00" stroke="currentColor" fill="none"/>
<defs>
<path id="r8e" fill="currentColor" d="m 0 0
	c-1.5 1.5 -2.4 2 -3.6 2
	c2.4 -2.8 -2.8 -4 -2.8 -1.2
	c0 2.7 4.3 2.4 5.9 0.6"/>
<g id="r32">
	<path d="m4.8 -10l-5.5 21.6" stroke="currentColor" fill="none"/>
	<use x="4.9" y="-10" xlink:href="#r8e"/>
	<use x="3.4" y="-4" xlink:href="#r8e"/>
	<use x="1.9" y="2" xlink:href="#r8e"/>
</g>
</defs>
<use x="200.13" y="105.01" xlink:href="#r32"/>
<use x="214.33" y="87.01" xlink:href="#hl"/>
<use x="214.33" y="81.01" xlink:href="#hl"/>
<use x="214.33" y="81.01" xlink:href="#hd"/>
<circle fill="currentColor" cx="222.33" cy="78.01" r="1.2"/>
<path d="M210.83 81.01v24.00" stroke="currentColor" fill="none"/>
<path fill="currentColor"
	d="M256.03 105.21l46.60 0.00v-3.20l-46.60 -0.00"/>
<path fill="currentColor"
	d="M262.33 100.21l-6.00 -0.00v-3.20l6.00 0.00"/>
<use x="259.83" y="87.01" xlink:href="#hl"/>
<use x="259.83" y="81.01" xlink:href="#hl"/>
<use x="259.83" y="81.01" xlink:href="#hd"/>
<circle fill="currentColor" cx="267.83" cy="78.01" r="1.2"/>
<path d="M256.33 81.01v23.20" stroke="currentColor" fill="none"/>
<use x="280.33" y="87.01" xlink:href="#hl"/>
<use x="280.33" y="84.01" xlink:href="#hd"/>
<path d="M276.83 84.01v20.20" stroke="currentColor" fill="none"/>
<use x="305.83" y="87.01" xlink:href="#hl"/>
<use x="305.83" y="81.01" xlink:href="#hl"/>
<use x="305.83" y="81.01" xlink:href="#hd"/>
<path d="M302.33 81.01v23.20" stroke="currentColor" fill="none"/>
<path fill="currentColor"
	d="M338.73 105.21l26.10 0.00v-3.20l-26.10 -0.00"/>
<use x="342.63" y="87.01" xlink:href="#hl"/>
<use x="342.63" y="81.01" xlink:href="#hl"/>
<use x="342.63" y="78.01" xlink:href="#hd"/>
<path d="M339.13 78.01v26.20" stroke="currentColor" fill="none"/>
<use x="368.13" y="87.01" xlink:href="#hl"/>
<use x="368.13" y="81.01" xlink:href="#hl"/>
<use x="368.13" y="75.01" xlink:href="#hl"/>
<use x="368.13" y="75.01" xlink:href="#hd"/>
<path d="M364.63 75.01v29.20" stroke="currentColor" fill="none"/>
<use x="396.43" y="87.01" xlink:href="#hl"/>
<use x="396.43" y="81.01" xlink:href="#hl"/>
<use x="396.43" y="75.01" xlink:href="#hl"/>
<use x="396.43" y="72.01" xlink:href="#hd"/>
<path d="M392.93 72.01v33.00" stroke="currentColor" fill="none"/>
<path fill="currentColor"
	d="M432.53 105.21l29.70 0.00v-3.20l-29.70 -0.00"/>
<path fill="currentColor"
	d="M455.83 100.21l6.00 0.00v-3.20l-6.00 -0.00"/>
<use x="436.43" y="87.01" xlink:href="#hl"/>
<use x="436.43" y="81.01" xlink:href="#hl"/>
<use x="436.43" y="75.01" xlink:href="#hl"/>
<use x="436.43" y="69.01" xlink:href="#hl"/>
<use x="436.43" y="69.01" xlink:href="#hd"/>
<circle fill="currentColor" cx="444.43" cy="66.01" r="1.2"/>
<path d="M432.93 69.01v35.20" stroke="currentColor" fill="none"/>
<use x="465.33" y="87.01" xlink:href="#hl"/>
<use x="465.33" y="81.01" xlink:href="#hl"/>
<use x="465.33" y="78.01" xlink:href="#hd"/>
<path d="M461.83 78.01v26.20" stroke="currentColor" fill="none"/>
<use x="495.53" y="87.01" xlink:href="#hl"/>
<use x="495.53" y="81.01" xlink:href="#hl"/>
<use x="495.53" y="75.01" xlink:href="#hl"/>
<defs>
<path id="Hd" fill="currentColor" d="m3 -1.6
	c-1 -1.8 -7 1.4 -6 3.2
	c1 1.8 7 -1.4 6 -3.2
	m0.5 -0.3
	c2 3.8 -5 7.6 -7 3.8
	c-2 -3.8 5 -7.6 7 -3.8"/>
</defs>
<use x="495.53" y="75.01" xlink:href="#Hd"/>
<circle fill="currentColor" cx="504.53" cy="72.01" r="1.2"/>
<path d="M492.03 75.01v30.00" stroke="currentColor" fill="none"/>
<path fill="currentColor"
	d="M217.83 75.01c6.07 -5.19 32.46 -5.19 38.53 -0.00
	l0.00 -0.24c-7.23 -6.96 -31.31 -6.96 -38.53 0.24"/>
</g>
</svg>
