<?xml version="1.0" standalone="no"?>
<!DOCTYPE svg PUBLIC "-//W3C//DTD SVG 1.1//EN"
	"http://www.w3.org/Graphics/SVG/1.1/DTD/svg11.dtd">
<svg xmlns="http://www.w3.org/2000/svg" version="1.1"
	xmlns:xlink="http://www.w3.org/1999/xlink"
	xml:space='preserve' color="black"
	width="7.38in" height="1.55in" viewBox="0 0 531 112">
<title>9259.abc (9259) tune 1</title>
<!-- Creator: abcm2ps-7.8.14 -->
<!-- CreationDate: Mar 13, 2016 18:54 -->
<!-- CommandLine: -qxg 9259.abc -O ../svgs/9259.svg -->
<g transform="scale(0.750)" stroke-width="0.70" font-family="Times" font-size="20.00">
<text x="354.13" y="21.67" text-anchor="middle">9259.  Nocturnes, Op. 37, No. 2 in G (Theme B)</text>
</g>
<g transform="scale(0.750)" stroke-width="0.70" font-family="Times" font-size="14.00" font-style="italic">
<text x="694.93" y="45.34" text-anchor="end">Frederic Chopin</text>
</g>
<g transform="scale(0.525)" stroke-width="0.70" font-family="Times" font-size="14.00" font-style="italic">
<defs>
<ellipse id="hd" rx="4.1" ry="2.9"
	transform="rotate(-20)" fill="currentColor"/>
</defs>
<use x="107.04" y="94.16" xlink:href="#hd"/>
<path d="M110.54 94.16v-20.00" stroke="currentColor" fill="none"/>
</g>
<g transform="scale(0.750)" stroke-width="0.70" font-family="Times" font-size="15.00" font-weight="bold">
<text x="82.63" y="68.01">= 120</text>
<path stroke="currentColor" fill="none"
	d="M244.43 126.11v-24.00"/>
<path stroke="currentColor" fill="none"
	d="M427.83 126.11v-24.00"/>
<path stroke="currentColor" fill="none"
	d="M612.53 126.11v-24.00"/>
<path stroke="currentColor" fill="none"
	d="M13.33 126.11h681.60m-681.60 -6h681.60m-681.60 -6h681.60m-681.60 -6h681.60m-681.60 -6h681.60"/>
<path stroke="currentColor" fill="none"
	d="M96.83 78.41v-3l57.00 8.00v3"/>
<rect x="118.33" y="73.41" width="14.00" height="12" fill="white"/>
<text font-family="serif" font-size="12" font-style="italic" font-weight="normal"
	x="125.33" y="83.41" text-anchor="middle">3</text>
<path stroke="currentColor" fill="none"
	d="M280.33 78.41v-3l57.00 8.00v3"/>
<rect x="301.73" y="73.41" width="14.00" height="12" fill="white"/>
<text font-family="serif" font-size="12" font-style="italic" font-weight="normal"
	x="308.73" y="83.41" text-anchor="middle">3</text>
<path stroke="currentColor" fill="none"
	d="M463.73 68.11v-3l58.40 -0.00v3"/>
<rect x="485.93" y="59.11" width="14.00" height="12" fill="white"/>
<text font-family="serif" font-size="12" font-style="italic" font-weight="normal"
	x="492.93" y="69.11" text-anchor="middle">3</text>
<defs>
<path id="utclef" fill="currentColor" d="m-50 -90
	c-72 -41 -72 -158 52 -188
	c150 -10 220 188 90 256
	c-114 52 -275 0 -293 -136
	c-15 -181 93 -229 220 -334
	c88 -87 79 -133 62 -210
	c-51 33 -94 105 -89 186
	c17 267 36 374 49 574
	c6 96 -19 134 -77 135
	c-80 1 -126 -93 -61 -133
	c85 -41 133 101 31 105
	c23 17 92 37 90 -92
	c-10 -223 -39 -342 -50 -617
	c0 -90 0 -162 96 -232
	c56 72 63 230 22 289
	c-74 106 -257 168 -255 316
	c9 153 148 185 252 133
	c86 -65 29 -192 -80 -176
	c-71 12 -105 67 -59 124"/>
<use id="tclef" transform="scale(0.045)"
	xlink:href="#utclef"/>
</defs>
<use x="25.33" y="126.11" xlink:href="#tclef"/>
<defs>
<path id="usharp" fill="currentColor" d="
	m136 -702
	v890
	h32
	v-890
	m128 840
	h32
	v-888
	h-32
	m-232 286
	v116
	l338 -96
	v-116
	m-338 442
	v116
	l338 -98
	v-114"/>
<use id="sh0" transform="translate(-4,5) scale(0.018)"
	xlink:href="#usharp"/>
</defs>
<use x="40.33" y="102.11" xlink:href="#sh0"/>
<g font-family="serif" font-size="16" font-weight="bold" font-style="normal"
	transform="translate(56.33,126.11) scale(1.2,1)">
	<text y="-1" text-anchor="middle">8</text>
	<text y="-13" text-anchor="middle">6</text>
</g>
<defs>
<path id="hl" stroke="currentColor" d="m-6 0h12"/>
</defs>
<use x="74.33" y="96.11" xlink:href="#hl"/>
<use x="74.33" y="96.11" xlink:href="#hd"/>
<path d="M70.83 96.11v20.00" stroke="currentColor" fill="none"/>
<path fill="currentColor"
	d="M70.83 116.11c0.6 -5.6 9.6 -9 5.6 -18.4
	c1.6 6 -1.3 11.6 -5.6 12.8
"/>
<use x="100.83" y="99.11" xlink:href="#hd"/>
<path d="M97.33 99.11v20.00" stroke="currentColor" fill="none"/>
<use x="130.23" y="99.11" xlink:href="#hd"/>
<path d="M126.73 99.11v22.00" stroke="currentColor" fill="none"/>
<path fill="currentColor"
	d="M126.73 121.11c0.9 -3.7 9.1 -6.4 6 -12.4
	c1 5.4 -4.2 8.4 -6 8.4
M126.73 115.71c0.9 -3.7 9.1 -6.4 6 -12.4
	c1 5.4 -4.2 8.4 -6 8.4
"/>
<use x="143.43" y="120.11" xlink:href="#hd"/>
<path d="M146.93 120.11v-20.00" stroke="currentColor" fill="none"/>
<use x="172.83" y="120.11" xlink:href="#hd"/>
<path d="M176.33 120.11v-21.00" stroke="currentColor" fill="none"/>
<path fill="currentColor"
	d="M176.33 99.11c0.9 3.7 9.1 6.4 6 12.4
	c1 -5.4 -4.2 -8.4 -6 -8.4
M176.33 104.51c0.9 3.7 9.1 6.4 6 12.4
	c1 -5.4 -4.2 -8.4 -6 -8.4
"/>
<use x="191.83" y="99.11" xlink:href="#hd"/>
<path d="M188.33 99.11v20.00" stroke="currentColor" fill="none"/>
<use x="229.33" y="99.11" xlink:href="#hd"/>
<path d="M225.83 99.11v22.00" stroke="currentColor" fill="none"/>
<path fill="currentColor"
	d="M225.83 121.11c0.9 -3.7 9.1 -6.4 6 -12.4
	c1 5.4 -4.2 8.4 -6 8.4
M225.83 115.71c0.9 -3.7 9.1 -6.4 6 -12.4
	c1 5.4 -4.2 8.4 -6 8.4
"/>
<use x="257.73" y="96.11" xlink:href="#hl"/>
<use x="257.73" y="96.11" xlink:href="#hd"/>
<path d="M254.23 96.11v20.00" stroke="currentColor" fill="none"/>
<path fill="currentColor"
	d="M254.23 116.11c0.6 -5.6 9.6 -9 5.6 -18.4
	c1.6 6 -1.3 11.6 -5.6 12.8
"/>
<use x="284.33" y="99.11" xlink:href="#hd"/>
<path d="M280.83 99.11v20.00" stroke="currentColor" fill="none"/>
<use x="313.63" y="99.11" xlink:href="#hd"/>
<path d="M310.13 99.11v22.00" stroke="currentColor" fill="none"/>
<path fill="currentColor"
	d="M310.13 121.11c0.9 -3.7 9.1 -6.4 6 -12.4
	c1 5.4 -4.2 8.4 -6 8.4
M310.13 115.71c0.9 -3.7 9.1 -6.4 6 -12.4
	c1 5.4 -4.2 8.4 -6 8.4
"/>
<use x="326.83" y="120.11" xlink:href="#hd"/>
<path d="M330.33 120.11v-20.00" stroke="currentColor" fill="none"/>
<use x="356.23" y="120.11" xlink:href="#hd"/>
<path d="M359.73 120.11v-21.00" stroke="currentColor" fill="none"/>
<path fill="currentColor"
	d="M359.73 99.11c0.9 3.7 9.1 6.4 6 12.4
	c1 -5.4 -4.2 -8.4 -6 -8.4
M359.73 104.51c0.9 3.7 9.1 6.4 6 12.4
	c1 -5.4 -4.2 -8.4 -6 -8.4
"/>
<use x="375.23" y="99.11" xlink:href="#hd"/>
<path d="M371.73 99.11v20.00" stroke="currentColor" fill="none"/>
<use x="412.83" y="99.11" xlink:href="#hd"/>
<path d="M409.33 99.11v22.00" stroke="currentColor" fill="none"/>
<path fill="currentColor"
	d="M409.33 121.11c0.9 -3.7 9.1 -6.4 6 -12.4
	c1 5.4 -4.2 8.4 -6 8.4
M409.33 115.71c0.9 -3.7 9.1 -6.4 6 -12.4
	c1 5.4 -4.2 8.4 -6 8.4
"/>
<use x="441.23" y="96.11" xlink:href="#hl"/>
<use x="441.23" y="90.11" xlink:href="#hl"/>
<use x="441.23" y="84.11" xlink:href="#hl"/>
<use x="441.23" y="84.11" xlink:href="#hd"/>
<path d="M437.73 84.11v30.00" stroke="currentColor" fill="none"/>
<path fill="currentColor"
	d="M437.73 114.11c0.6 -5.6 9.6 -9 5.6 -18.4
	c1.6 6 -1.3 11.6 -5.6 12.8
"/>
<use x="467.73" y="96.11" xlink:href="#hl"/>
<use x="467.73" y="90.11" xlink:href="#hl"/>
<use x="467.73" y="84.11" xlink:href="#hl"/>
<use x="467.73" y="84.11" xlink:href="#hd"/>
<path d="M464.23 84.11v30.00" stroke="currentColor" fill="none"/>
<use x="497.13" y="96.11" xlink:href="#hl"/>
<use x="497.13" y="90.11" xlink:href="#hl"/>
<use x="497.13" y="84.11" xlink:href="#hl"/>
<use x="497.13" y="84.11" xlink:href="#hd"/>
<path d="M493.63 84.11v30.00" stroke="currentColor" fill="none"/>
<path fill="currentColor"
	d="M493.63 114.11c0.9 -3.7 9.1 -6.4 6 -12.4
	c1 5.4 -4.2 8.4 -6 8.4
M493.63 108.71c0.9 -3.7 9.1 -6.4 6 -12.4
	c1 5.4 -4.2 8.4 -6 8.4
"/>
<use x="511.83" y="96.11" xlink:href="#hl"/>
<use x="511.83" y="90.11" xlink:href="#hl"/>
<use x="511.83" y="87.11" xlink:href="#hd"/>
<path d="M508.33 87.11v27.00" stroke="currentColor" fill="none"/>
<use x="541.13" y="96.11" xlink:href="#hl"/>
<use x="541.13" y="90.11" xlink:href="#hl"/>
<use x="541.13" y="87.11" xlink:href="#hd"/>
<path d="M537.63 87.11v27.00" stroke="currentColor" fill="none"/>
<path fill="currentColor"
	d="M537.63 114.11c0.9 -3.7 9.1 -6.4 6 -12.4
	c1 5.4 -4.2 8.4 -6 8.4
M537.63 108.71c0.9 -3.7 9.1 -6.4 6 -12.4
	c1 5.4 -4.2 8.4 -6 8.4
"/>
<use x="559.93" y="96.11" xlink:href="#hl"/>
<use x="559.93" y="90.11" xlink:href="#hl"/>
<use x="559.93" y="90.11" xlink:href="#hd"/>
<path d="M556.43 90.11v24.00" stroke="currentColor" fill="none"/>
<use x="597.53" y="96.11" xlink:href="#hl"/>
<use x="597.53" y="90.11" xlink:href="#hl"/>
<use x="597.53" y="90.11" xlink:href="#hd"/>
<path d="M594.03 90.11v24.00" stroke="currentColor" fill="none"/>
<path fill="currentColor"
	d="M594.03 114.11c0.9 -3.7 9.1 -6.4 6 -12.4
	c1 5.4 -4.2 8.4 -6 8.4
M594.03 108.71c0.9 -3.7 9.1 -6.4 6 -12.4
	c1 5.4 -4.2 8.4 -6 8.4
"/>
<use x="625.93" y="96.11" xlink:href="#hl"/>
<use x="625.93" y="96.11" xlink:href="#hd"/>
<path d="M622.43 96.11v20.00" stroke="currentColor" fill="none"/>
<path fill="currentColor"
	d="M622.43 116.11c0.6 -5.6 9.6 -9 5.6 -18.4
	c1.6 6 -1.3 11.6 -5.6 12.8
"/>
<use x="652.43" y="99.11" xlink:href="#hd"/>
<circle fill="currentColor" cx="660.43" cy="99.11" r="1.2"/>
<path d="M648.93 99.11v20.00" stroke="currentColor" fill="none"/>
<path fill="currentColor"
	d="M104.33 97.11c3.52 -4.90 18.84 -4.90 22.37 -0.00
	l0.00 -0.22c-4.19 -6.68 -18.17 -6.68 -22.37 0.22"/>
<path fill="currentColor"
	d="M146.93 120.11c3.52 4.90 18.84 4.90 22.37 -0.00
	l0.00 0.22c-4.19 6.68 -18.17 6.68 -22.37 -0.22"/>
<path fill="currentColor"
	d="M195.33 97.11c4.81 -5.05 25.74 -5.05 30.55 -0.00
	l0.00 -0.23c-5.73 -6.82 -24.82 -6.82 -30.55 0.23"/>
<path fill="currentColor"
	d="M287.83 97.11c3.52 -4.90 18.84 -4.90 22.37 -0.00
	l0.00 -0.22c-4.19 -6.68 -18.17 -6.68 -22.37 0.22"/>
<path fill="currentColor"
	d="M330.33 120.11c3.52 4.90 18.84 4.90 22.37 -0.00
	l0.00 0.22c-4.19 6.68 -18.17 6.68 -22.37 -0.22"/>
<path fill="currentColor"
	d="M378.73 97.11c4.81 -5.05 25.74 -5.05 30.55 -0.00
	l0.00 -0.23c-5.73 -6.82 -24.82 -6.82 -30.55 0.23"/>
<path fill="currentColor"
	d="M471.23 84.11c3.52 -4.90 18.84 -4.90 22.37 -0.00
	l0.00 -0.22c-4.19 -6.68 -18.17 -6.68 -22.37 0.22"/>
<path fill="currentColor"
	d="M515.33 85.11c3.52 -4.90 18.84 -4.90 22.37 -0.00
	l0.00 -0.22c-4.19 -6.68 -18.17 -6.68 -22.37 0.22"/>
<path fill="currentColor"
	d="M563.43 90.11c4.81 -5.05 25.74 -5.05 30.55 -0.00
	l0.00 -0.23c-5.73 -6.82 -24.82 -6.82 -30.55 0.23"/>
</g>
</svg>
