<?xml version="1.0" standalone="no"?>
<!DOCTYPE svg PUBLIC "-//W3C//DTD SVG 1.1//EN"
	"http://www.w3.org/Graphics/SVG/1.1/DTD/svg11.dtd">
<svg xmlns="http://www.w3.org/2000/svg" version="1.1"
	xmlns:xlink="http://www.w3.org/1999/xlink"
	xml:space='preserve' color="black"
	width="7.38in" height="1.43in" viewBox="0 0 531 103">
<title>9263.abc (9263) tune 1</title>
<!-- Creator: abcm2ps-7.8.14 -->
<!-- CreationDate: Mar 13, 2016 18:54 -->
<!-- CommandLine: -qxg 9263.abc -O ../svgs/9263.svg -->
<g transform="scale(0.750)" stroke-width="0.70" font-family="Times" font-size="20.00">
<text x="354.13" y="21.67" text-anchor="middle">9263.  Nocturnes, Op. 55, No. 1 in F Minor</text>
</g>
<g transform="scale(0.750)" stroke-width="0.70" font-family="Times" font-size="14.00" font-style="italic">
<text x="694.93" y="45.34" text-anchor="end">Frederic Chopin</text>
</g>
<g transform="scale(0.525)" stroke-width="0.70" font-family="Times" font-size="14.00" font-style="italic">
<defs>
<ellipse id="hd" rx="4.1" ry="2.9"
	transform="rotate(-20)" fill="currentColor"/>
</defs>
<use x="131.33" y="94.16" xlink:href="#hd"/>
<path d="M134.83 94.16v-20.00" stroke="currentColor" fill="none"/>
</g>
<g transform="scale(0.750)" stroke-width="0.70" font-family="Times" font-size="15.00" font-weight="bold">
<text x="99.63" y="68.01">= 120</text>
<path stroke="currentColor" fill="none"
	d="M219.93 114.01v-24.00"/>
<path stroke="currentColor" fill="none"
	d="M402.03 114.01v-24.00"/>
<path stroke="currentColor" fill="none"
	d="M13.33 114.01h442.90m-442.90 -6h442.90m-442.90 -6h442.90m-442.90 -6h442.90m-442.90 -6h442.90"/>
<defs>
<path id="utclef" fill="currentColor" d="m-50 -90
	c-72 -41 -72 -158 52 -188
	c150 -10 220 188 90 256
	c-114 52 -275 0 -293 -136
	c-15 -181 93 -229 220 -334
	c88 -87 79 -133 62 -210
	c-51 33 -94 105 -89 186
	c17 267 36 374 49 574
	c6 96 -19 134 -77 135
	c-80 1 -126 -93 -61 -133
	c85 -41 133 101 31 105
	c23 17 92 37 90 -92
	c-10 -223 -39 -342 -50 -617
	c0 -90 0 -162 96 -232
	c56 72 63 230 22 289
	c-74 106 -257 168 -255 316
	c9 153 148 185 252 133
	c86 -65 29 -192 -80 -176
	c-71 12 -105 67 -59 124"/>
<use id="tclef" transform="scale(0.045)"
	xlink:href="#utclef"/>
</defs>
<use x="25.33" y="114.01" xlink:href="#tclef"/>
<defs>
<path id="uflat" fill="currentColor" d="
	m100 -746
	h32
	v734
	l-32 4
	m32 -332
	c46 -72 152 -90 208 -20
	c100 110 -120 326 -208 348
	m0 -28
	c54 0 200 -206 130 -290
	c-50 -60 -130 -4 -130 34"/>
<use id="ft0" transform="translate(-3.5,3.5) scale(0.018)"
	xlink:href="#uflat"/>
</defs>
<use x="40.33" y="102.01" xlink:href="#ft0"/>
<use x="45.83" y="93.01" xlink:href="#ft0"/>
<use x="51.33" y="105.01" xlink:href="#ft0"/>
<use x="56.83" y="96.01" xlink:href="#ft0"/>
<g font-family="serif" font-size="16" font-weight="bold" font-style="normal"
	transform="translate(72.83,114.01) scale(1.2,1)">
	<text y="-1" text-anchor="middle">4</text>
	<text y="-13" text-anchor="middle">4</text>
</g>
<defs>
<path id="hl" stroke="currentColor" d="m-6 0h12"/>
</defs>
<use x="91.33" y="84.01" xlink:href="#hl"/>
<use x="91.33" y="78.01" xlink:href="#hl"/>
<defs>
<path id="Hd" fill="currentColor" d="m3 -1.6
	c-1 -1.8 -7 1.4 -6 3.2
	c1 1.8 7 -1.4 6 -3.2
	m0.5 -0.3
	c2 3.8 -5 7.6 -7 3.8
	c-2 -3.8 5 -7.6 7 -3.8"/>
</defs>
<use x="91.33" y="78.01" xlink:href="#Hd"/>
<path d="M87.83 78.01v24.00" stroke="currentColor" fill="none"/>
<use x="147.93" y="84.01" xlink:href="#hl"/>
<use x="147.93" y="78.01" xlink:href="#hl"/>
<use x="147.93" y="72.01" xlink:href="#hl"/>
<use x="147.93" y="69.01" xlink:href="#hd"/>
<path d="M144.43 69.01v33.00" stroke="currentColor" fill="none"/>
<use x="187.93" y="84.01" xlink:href="#hl"/>
<use x="187.93" y="78.01" xlink:href="#hl"/>
<use x="187.93" y="72.01" xlink:href="#hl"/>
<use x="187.93" y="72.01" xlink:href="#hd"/>
<path d="M184.43 72.01v30.00" stroke="currentColor" fill="none"/>
<use x="234.13" y="84.01" xlink:href="#hl"/>
<use x="234.13" y="78.01" xlink:href="#hl"/>
<use x="234.13" y="75.01" xlink:href="#hd"/>
<path d="M230.63 75.01v27.00" stroke="currentColor" fill="none"/>
<path fill="currentColor"
	d="M270.23 104.01l76.60 0.00v-3.20l-76.60 -0.00"/>
<path fill="currentColor"
	d="M293.53 99.01l6.00 0.00v-3.20l-6.00 -0.00"/>
<path fill="currentColor"
	d="M340.53 99.01l6.00 0.00v-3.20l-6.00 -0.00"/>
<use x="274.13" y="84.01" xlink:href="#hl"/>
<use x="274.13" y="78.01" xlink:href="#hl"/>
<use x="274.13" y="78.01" xlink:href="#hd"/>
<circle fill="currentColor" cx="282.13" cy="75.01" r="1.2"/>
<path d="M270.63 78.01v25.00" stroke="currentColor" fill="none"/>
<use x="303.03" y="84.01" xlink:href="#hl"/>
<use x="303.03" y="81.01" xlink:href="#hd"/>
<defs>
<path id="unat" fill="currentColor" d="
	m96 -750
	h-32
	v716
	l32 -8
	l182 -54
	v282
	h32
	v-706
	l-34 10
	l-180 50
	v-290
	m0 592
	v-190
	l182 -52
	v188"/>
<use id="nt0" transform="translate(-3,5) scale(0.018)"
	xlink:href="#unat"/>
</defs>
<use x="294.03" y="81.01" xlink:href="#nt0"/>
<path d="M299.53 81.01v22.00" stroke="currentColor" fill="none"/>
<use x="321.03" y="84.01" xlink:href="#hl"/>
<use x="321.03" y="78.01" xlink:href="#hl"/>
<use x="321.03" y="78.01" xlink:href="#hd"/>
<circle fill="currentColor" cx="329.03" cy="75.01" r="1.2"/>
<path d="M317.53 78.01v25.00" stroke="currentColor" fill="none"/>
<use x="350.03" y="84.01" xlink:href="#hl"/>
<use x="350.03" y="78.01" xlink:href="#hl"/>
<use x="350.03" y="75.01" xlink:href="#hd"/>
<path d="M346.53 75.01v28.00" stroke="currentColor" fill="none"/>
<use x="370.03" y="84.01" xlink:href="#hl"/>
<use x="370.03" y="78.01" xlink:href="#hl"/>
<use x="370.03" y="78.01" xlink:href="#hd"/>
<path d="M366.53 78.01v24.00" stroke="currentColor" fill="none"/>
<use x="416.23" y="84.01" xlink:href="#hl"/>
<use x="416.23" y="78.01" xlink:href="#hl"/>
<use x="416.23" y="78.01" xlink:href="#hd"/>
<path d="M412.73 78.01v24.00" stroke="currentColor" fill="none"/>
<path fill="currentColor"
	d="M373.53 78.01c6.17 -5.20 32.98 -5.20 39.15 -0.00
	l0.00 -0.24c-7.34 -6.97 -31.81 -6.97 -39.15 0.24"/>
</g>
</svg>
