<?xml version="1.0" standalone="no"?>
<!DOCTYPE svg PUBLIC "-//W3C//DTD SVG 1.1//EN"
	"http://www.w3.org/Graphics/SVG/1.1/DTD/svg11.dtd">
<svg xmlns="http://www.w3.org/2000/svg" version="1.1"
	xmlns:xlink="http://www.w3.org/1999/xlink"
	xml:space='preserve' color="black"
	width="7.38in" height="1.34in" viewBox="0 0 531 97">
<title>9324.abc (9324) tune 1</title>
<!-- Creator: abcm2ps-7.8.14 -->
<!-- CreationDate: Mar 13, 2016 18:54 -->
<!-- CommandLine: -qxg 9324.abc -O ../svgs/9324.svg -->
<g transform="scale(0.750)" stroke-width="0.70" font-family="Times" font-size="20.00">
<text x="354.13" y="21.67" text-anchor="middle">9324.  Sonata in B Flat Minor, Op. 35, 3rd. Mvt. - Funeral March - 1st. Theme</text>
</g>
<g transform="scale(0.750)" stroke-width="0.70" font-family="Times" font-size="14.00" font-style="italic">
<text x="694.93" y="45.34" text-anchor="end">Frederic Chopin</text>
</g>
<g transform="scale(0.525)" stroke-width="0.70" font-family="Times" font-size="14.00" font-style="italic">
<defs>
<ellipse id="hd" rx="4.1" ry="2.9"
	transform="rotate(-20)" fill="currentColor"/>
</defs>
<use x="138.47" y="94.16" xlink:href="#hd"/>
<path d="M141.97 94.16v-20.00" stroke="currentColor" fill="none"/>
</g>
<g transform="scale(0.750)" stroke-width="0.70" font-family="Times" font-size="15.00" font-weight="bold">
<text x="104.63" y="68.01">= 120</text>
<path stroke="currentColor" fill="none"
	d="M270.33 106.01v-24.00"/>
<path stroke="currentColor" fill="none"
	d="M449.03 106.01v-24.00"/>
<path stroke="currentColor" fill="none"
	d="M13.33 106.01h435.70m-435.70 -6h435.70m-435.70 -6h435.70m-435.70 -6h435.70m-435.70 -6h435.70"/>
<defs>
<path id="utclef" fill="currentColor" d="m-50 -90
	c-72 -41 -72 -158 52 -188
	c150 -10 220 188 90 256
	c-114 52 -275 0 -293 -136
	c-15 -181 93 -229 220 -334
	c88 -87 79 -133 62 -210
	c-51 33 -94 105 -89 186
	c17 267 36 374 49 574
	c6 96 -19 134 -77 135
	c-80 1 -126 -93 -61 -133
	c85 -41 133 101 31 105
	c23 17 92 37 90 -92
	c-10 -223 -39 -342 -50 -617
	c0 -90 0 -162 96 -232
	c56 72 63 230 22 289
	c-74 106 -257 168 -255 316
	c9 153 148 185 252 133
	c86 -65 29 -192 -80 -176
	c-71 12 -105 67 -59 124"/>
<use id="tclef" transform="scale(0.045)"
	xlink:href="#utclef"/>
</defs>
<use x="25.33" y="106.01" xlink:href="#tclef"/>
<defs>
<path id="uflat" fill="currentColor" d="
	m100 -746
	h32
	v734
	l-32 4
	m32 -332
	c46 -72 152 -90 208 -20
	c100 110 -120 326 -208 348
	m0 -28
	c54 0 200 -206 130 -290
	c-50 -60 -130 -4 -130 34"/>
<use id="ft0" transform="translate(-3.5,3.5) scale(0.018)"
	xlink:href="#uflat"/>
</defs>
<use x="40.33" y="94.01" xlink:href="#ft0"/>
<use x="45.83" y="85.01" xlink:href="#ft0"/>
<use x="51.33" y="97.01" xlink:href="#ft0"/>
<use x="56.83" y="88.01" xlink:href="#ft0"/>
<use x="62.33" y="100.01" xlink:href="#ft0"/>
<g font-family="serif" font-size="16" font-weight="bold" font-style="normal"
	transform="translate(78.33,106.01) scale(1.2,1)">
	<text y="-1" text-anchor="middle">4</text>
	<text y="-13" text-anchor="middle">4</text>
</g>
<use x="96.33" y="94.01" xlink:href="#hd"/>
<path d="M92.83 94.01v20.00" stroke="currentColor" fill="none"/>
<path fill="currentColor"
	d="M132.53 114.01l29.70 0.00v-3.20l-29.70 -0.00"/>
<path fill="currentColor"
	d="M155.83 109.01l6.00 0.00v-3.20l-6.00 -0.00"/>
<use x="136.33" y="94.01" xlink:href="#hd"/>
<circle fill="currentColor" cx="144.33" cy="91.01" r="1.2"/>
<path d="M132.83 94.01v19.00" stroke="currentColor" fill="none"/>
<use x="165.33" y="94.01" xlink:href="#hd"/>
<path d="M161.83 94.01v19.00" stroke="currentColor" fill="none"/>
<use x="185.33" y="94.01" xlink:href="#hd"/>
<path d="M181.83 94.01v20.00" stroke="currentColor" fill="none"/>
<path fill="currentColor"
	d="M221.43 110.71l29.70 2.50v-3.20l-29.70 -2.50"/>
<path fill="currentColor"
	d="M244.83 107.71l6.00 0.50v-3.20l-6.00 -0.50"/>
<use x="225.33" y="88.01" xlink:href="#hd"/>
<circle fill="currentColor" cx="233.33" cy="85.01" r="1.2"/>
<path d="M221.83 88.01v21.70" stroke="currentColor" fill="none"/>
<use x="254.33" y="91.01" xlink:href="#hd"/>
<path d="M250.83 91.01v21.20" stroke="currentColor" fill="none"/>
<defs>
<path id="r8e" fill="currentColor" d="m 0 0
	c-1.5 1.5 -2.4 2 -3.6 2
	c2.4 -2.8 -2.8 -4 -2.8 -1.2
	c0 2.7 4.3 2.4 5.9 0.6"/>
<g id="r32">
	<path d="m4.8 -10l-5.5 21.6" stroke="currentColor" fill="none"/>
	<use x="4.9" y="-10" xlink:href="#r8e"/>
	<use x="3.4" y="-4" xlink:href="#r8e"/>
	<use x="1.9" y="2" xlink:href="#r8e"/>
</g>
</defs>
<use x="284.43" y="94.01" xlink:href="#r32"/>
<path fill="currentColor"
	d="M294.73 118.91l85.90 0.00v-3.20l-85.90 -0.00"/>
<path fill="currentColor"
	d="M320.53 113.91l12.70 0.00v-3.20l-12.70 -0.00"/>
<path fill="currentColor"
	d="M374.23 113.91l6.00 0.00v-3.20l-6.00 -0.00"/>
<path fill="currentColor"
	d="M326.53 108.91l-6.00 -0.00v-3.20l6.00 0.00"/>
<use x="298.63" y="91.01" xlink:href="#hd"/>
<path d="M295.13 91.01v27.00" stroke="currentColor" fill="none"/>
<use x="324.03" y="91.01" xlink:href="#hd"/>
<path d="M320.53 91.01v27.00" stroke="currentColor" fill="none"/>
<use x="336.83" y="94.01" xlink:href="#hd"/>
<path d="M333.33 94.01v24.00" stroke="currentColor" fill="none"/>
<use x="354.83" y="94.01" xlink:href="#hd"/>
<circle fill="currentColor" cx="362.83" cy="91.01" r="1.2"/>
<path d="M351.33 94.01v24.00" stroke="currentColor" fill="none"/>
<use x="383.73" y="94.01" xlink:href="#hd"/>
<path d="M380.23 94.01v24.00" stroke="currentColor" fill="none"/>
<defs>
<path id="Hd" fill="currentColor" d="m3 -1.6
	c-1 -1.8 -7 1.4 -6 3.2
	c1 1.8 7 -1.4 6 -3.2
	m0.5 -0.3
	c2 3.8 -5 7.6 -7 3.8
	c-2 -3.8 5 -7.6 7 -3.8"/>
</defs>
<use x="403.73" y="94.01" xlink:href="#Hd"/>
<path d="M400.23 94.01v20.00" stroke="currentColor" fill="none"/>
<path fill="currentColor"
	d="M302.13 89.01c2.91 -4.83 15.56 -4.83 18.47 -0.00
	l0.00 -0.22c-3.46 -6.61 -15.01 -6.61 -18.47 0.22"/>
</g>
</svg>
