<?xml version="1.0" standalone="no"?>
<!DOCTYPE svg PUBLIC "-//W3C//DTD SVG 1.1//EN"
	"http://www.w3.org/Graphics/SVG/1.1/DTD/svg11.dtd">
<svg xmlns="http://www.w3.org/2000/svg" version="1.1"
	xmlns:xlink="http://www.w3.org/1999/xlink"
	xml:space='preserve' color="black"
	width="7.38in" height="1.65in" viewBox="0 0 531 119">
<title>9351.abc (9351) tune 1</title>
<!-- Creator: abcm2ps-7.8.14 -->
<!-- CreationDate: Mar 13, 2016 18:54 -->
<!-- CommandLine: -qxg 9351.abc -O ../svgs/9351.svg -->
<g transform="scale(0.750)" stroke-width="0.70" font-family="Times" font-size="20.00">
<text x="354.13" y="21.67" text-anchor="middle">9351.  Waltzes, Op. 70, No. 1 in G Flat - 1st. Theme</text>
</g>
<g transform="scale(0.750)" stroke-width="0.70" font-family="Times" font-size="14.00" font-style="italic">
<text x="694.93" y="45.34" text-anchor="end">Frederic Chopin</text>
</g>
<g transform="scale(0.525)" stroke-width="0.70" font-family="Times" font-size="14.00" font-style="italic">
<defs>
<ellipse id="hd" rx="4.1" ry="2.9"
	transform="rotate(-20)" fill="currentColor"/>
</defs>
<use x="146.33" y="94.16" xlink:href="#hd"/>
<path d="M149.83 94.16v-20.00" stroke="currentColor" fill="none"/>
</g>
<g transform="scale(0.750)" stroke-width="0.70" font-family="Times" font-size="15.00" font-weight="bold">
<text x="110.13" y="68.01">= 120</text>
<path stroke="currentColor" fill="none"
	d="M294.53 135.01v-24.00"/>
<path stroke="currentColor" fill="none"
	d="M470.23 135.01v-24.00"/>
<path stroke="currentColor" fill="none"
	d="M13.33 135.01h543.70m-543.70 -6h543.70m-543.70 -6h543.70m-543.70 -6h543.70m-543.70 -6h543.70"/>
<path stroke="currentColor" fill="none"
	d="M383.93 58.01v-3l47.70 -0.00v3"/>
<rect x="400.83" y="49.01" width="14.00" height="12" fill="white"/>
<text font-family="serif" font-size="12" font-style="italic" font-weight="normal"
	x="407.83" y="59.01" text-anchor="middle">3</text>
<defs>
<path id="utclef" fill="currentColor" d="m-50 -90
	c-72 -41 -72 -158 52 -188
	c150 -10 220 188 90 256
	c-114 52 -275 0 -293 -136
	c-15 -181 93 -229 220 -334
	c88 -87 79 -133 62 -210
	c-51 33 -94 105 -89 186
	c17 267 36 374 49 574
	c6 96 -19 134 -77 135
	c-80 1 -126 -93 -61 -133
	c85 -41 133 101 31 105
	c23 17 92 37 90 -92
	c-10 -223 -39 -342 -50 -617
	c0 -90 0 -162 96 -232
	c56 72 63 230 22 289
	c-74 106 -257 168 -255 316
	c9 153 148 185 252 133
	c86 -65 29 -192 -80 -176
	c-71 12 -105 67 -59 124"/>
<use id="tclef" transform="scale(0.045)"
	xlink:href="#utclef"/>
</defs>
<use x="25.33" y="135.01" xlink:href="#tclef"/>
<defs>
<path id="uflat" fill="currentColor" d="
	m100 -746
	h32
	v734
	l-32 4
	m32 -332
	c46 -72 152 -90 208 -20
	c100 110 -120 326 -208 348
	m0 -28
	c54 0 200 -206 130 -290
	c-50 -60 -130 -4 -130 34"/>
<use id="ft0" transform="translate(-3.5,3.5) scale(0.018)"
	xlink:href="#uflat"/>
</defs>
<use x="40.33" y="123.01" xlink:href="#ft0"/>
<use x="45.83" y="114.01" xlink:href="#ft0"/>
<use x="51.33" y="126.01" xlink:href="#ft0"/>
<use x="56.83" y="117.01" xlink:href="#ft0"/>
<use x="62.33" y="129.01" xlink:href="#ft0"/>
<use x="67.83" y="120.01" xlink:href="#ft0"/>
<g font-family="serif" font-size="16" font-weight="bold" font-style="normal"
	transform="translate(83.83,135.01) scale(1.2,1)">
	<text y="-1" text-anchor="middle">4</text>
	<text y="-13" text-anchor="middle">3</text>
</g>
<defs>
<path id="r8e" fill="currentColor" d="m 0 0
	c-1.5 1.5 -2.4 2 -3.6 2
	c2.4 -2.8 -2.8 -4 -2.8 -1.2
	c0 2.7 4.3 2.4 5.9 0.6"/>
<g id="r32">
	<path d="m4.8 -10l-5.5 21.6" stroke="currentColor" fill="none"/>
	<use x="4.9" y="-10" xlink:href="#r8e"/>
	<use x="3.4" y="-4" xlink:href="#r8e"/>
	<use x="1.9" y="2" xlink:href="#r8e"/>
</g>
</defs>
<use x="101.83" y="123.01" xlink:href="#r32"/>
<path fill="currentColor"
	d="M112.13 123.21l46.60 0.00v-3.20l-46.60 -0.00"/>
<path fill="currentColor"
	d="M118.53 118.21l-6.00 -0.00v-3.20l6.00 0.00"/>
<defs>
<path id="hl" stroke="currentColor" d="m-6 0h12"/>
</defs>
<use x="116.03" y="105.01" xlink:href="#hl"/>
<use x="116.03" y="99.01" xlink:href="#hl"/>
<use x="116.03" y="93.01" xlink:href="#hl"/>
<use x="116.03" y="87.01" xlink:href="#hl"/>
<use x="116.03" y="87.01" xlink:href="#hd"/>
<circle fill="currentColor" cx="124.03" cy="84.01" r="1.2"/>
<path d="M112.53 87.01v35.20" stroke="currentColor" fill="none"/>
<use x="136.43" y="105.01" xlink:href="#hl"/>
<use x="136.43" y="99.01" xlink:href="#hl"/>
<use x="136.43" y="93.01" xlink:href="#hl"/>
<use x="136.43" y="90.01" xlink:href="#hd"/>
<path d="M132.93 90.01v32.20" stroke="currentColor" fill="none"/>
<use x="161.93" y="105.01" xlink:href="#hl"/>
<use x="161.93" y="99.01" xlink:href="#hl"/>
<use x="161.93" y="93.01" xlink:href="#hl"/>
<use x="161.93" y="93.01" xlink:href="#hd"/>
<path d="M158.43 93.01v29.20" stroke="currentColor" fill="none"/>
<path fill="currentColor"
	d="M186.43 123.21l82.40 0.00v-3.20l-82.40 -0.00"/>
<path fill="currentColor"
	d="M186.73 118.21l38.20 0.00v-3.20l-38.20 -0.00"/>
<path fill="currentColor"
	d="M186.73 113.21l38.20 0.00v-3.20l-38.20 -0.00"/>
<use x="190.23" y="105.01" xlink:href="#hl"/>
<use x="190.23" y="99.01" xlink:href="#hl"/>
<use x="190.23" y="96.01" xlink:href="#hd"/>
<path d="M186.73 96.01v26.20" stroke="currentColor" fill="none"/>
<use x="202.93" y="105.01" xlink:href="#hl"/>
<use x="202.93" y="99.01" xlink:href="#hl"/>
<use x="202.93" y="93.01" xlink:href="#hl"/>
<use x="202.93" y="93.01" xlink:href="#hd"/>
<path d="M199.43 93.01v29.20" stroke="currentColor" fill="none"/>
<use x="215.73" y="105.01" xlink:href="#hl"/>
<use x="215.73" y="99.01" xlink:href="#hl"/>
<use x="215.73" y="96.01" xlink:href="#hd"/>
<path d="M212.23 96.01v26.20" stroke="currentColor" fill="none"/>
<use x="228.43" y="105.01" xlink:href="#hl"/>
<use x="228.43" y="99.01" xlink:href="#hl"/>
<use x="228.43" y="93.01" xlink:href="#hl"/>
<use x="228.43" y="93.01" xlink:href="#hd"/>
<path d="M224.93 93.01v29.20" stroke="currentColor" fill="none"/>
<use x="246.43" y="105.01" xlink:href="#hl"/>
<use x="246.43" y="99.01" xlink:href="#hl"/>
<use x="246.43" y="99.01" xlink:href="#hd"/>
<defs>
<path id="unat" fill="currentColor" d="
	m96 -750
	h-32
	v716
	l32 -8
	l182 -54
	v282
	h32
	v-706
	l-34 10
	l-180 50
	v-290
	m0 592
	v-190
	l182 -52
	v188"/>
<use id="nt0" transform="translate(-3,5) scale(0.018)"
	xlink:href="#unat"/>
</defs>
<use x="237.43" y="99.01" xlink:href="#nt0"/>
<path d="M242.93 99.01v23.20" stroke="currentColor" fill="none"/>
<use x="271.93" y="105.01" xlink:href="#hl"/>
<use x="271.93" y="99.01" xlink:href="#hl"/>
<use x="271.93" y="96.01" xlink:href="#hd"/>
<path d="M268.43 96.01v26.20" stroke="currentColor" fill="none"/>
<path fill="currentColor"
	d="M304.83 123.21l51.60 0.00v-3.20l-51.60 -0.00"/>
<use x="308.73" y="105.01" xlink:href="#hl"/>
<use x="308.73" y="99.01" xlink:href="#hl"/>
<use x="308.73" y="93.01" xlink:href="#hl"/>
<use x="308.73" y="90.01" xlink:href="#hd"/>
<path d="M305.23 90.01v32.20" stroke="currentColor" fill="none"/>
<use x="334.13" y="105.01" xlink:href="#hl"/>
<use x="334.13" y="99.01" xlink:href="#hl"/>
<use x="334.13" y="93.01" xlink:href="#hl"/>
<use x="334.13" y="87.01" xlink:href="#hl"/>
<use x="334.13" y="84.01" xlink:href="#hd"/>
<path d="M330.63 84.01v38.20" stroke="currentColor" fill="none"/>
<use x="359.63" y="105.01" xlink:href="#hl"/>
<use x="359.63" y="99.01" xlink:href="#hl"/>
<use x="359.63" y="93.01" xlink:href="#hl"/>
<use x="359.63" y="87.01" xlink:href="#hl"/>
<use x="359.63" y="81.01" xlink:href="#hl"/>
<use x="359.63" y="81.01" xlink:href="#hd"/>
<path d="M356.13 81.01v41.20" stroke="currentColor" fill="none"/>
<path fill="currentColor"
	d="M384.13 123.21l60.30 0.00v-3.20l-60.30 -0.00"/>
<use x="387.93" y="105.01" xlink:href="#hl"/>
<use x="387.93" y="99.01" xlink:href="#hl"/>
<use x="387.93" y="93.01" xlink:href="#hl"/>
<use x="387.93" y="87.01" xlink:href="#hl"/>
<use x="387.93" y="81.01" xlink:href="#hl"/>
<use x="387.93" y="75.01" xlink:href="#hl"/>
<use x="387.93" y="72.01" xlink:href="#hd"/>
<path d="M384.43 72.01v50.20" stroke="currentColor" fill="none"/>
<use x="407.83" y="105.01" xlink:href="#hl"/>
<use x="407.83" y="99.01" xlink:href="#hl"/>
<use x="407.83" y="93.01" xlink:href="#hl"/>
<use x="407.83" y="87.01" xlink:href="#hl"/>
<use x="407.83" y="81.01" xlink:href="#hl"/>
<use x="407.83" y="75.01" xlink:href="#hl"/>
<use x="407.83" y="69.01" xlink:href="#hl"/>
<use x="407.83" y="69.01" xlink:href="#hd"/>
<path d="M404.33 69.01v53.20" stroke="currentColor" fill="none"/>
<use x="427.63" y="105.01" xlink:href="#hl"/>
<use x="427.63" y="99.01" xlink:href="#hl"/>
<use x="427.63" y="93.01" xlink:href="#hl"/>
<use x="427.63" y="87.01" xlink:href="#hl"/>
<use x="427.63" y="81.01" xlink:href="#hl"/>
<use x="427.63" y="75.01" xlink:href="#hl"/>
<use x="427.63" y="72.01" xlink:href="#hd"/>
<path d="M424.13 72.01v50.20" stroke="currentColor" fill="none"/>
<use x="447.53" y="105.01" xlink:href="#hl"/>
<use x="447.53" y="99.01" xlink:href="#hl"/>
<use x="447.53" y="93.01" xlink:href="#hl"/>
<use x="447.53" y="87.01" xlink:href="#hl"/>
<use x="447.53" y="81.01" xlink:href="#hl"/>
<use x="447.53" y="75.01" xlink:href="#hl"/>
<use x="447.53" y="75.01" xlink:href="#hd"/>
<path d="M444.03 75.01v47.20" stroke="currentColor" fill="none"/>
<use x="488.73" y="105.01" xlink:href="#hl"/>
<use x="488.73" y="99.01" xlink:href="#hl"/>
<use x="488.73" y="93.01" xlink:href="#hl"/>
<use x="488.73" y="87.01" xlink:href="#hl"/>
<use x="488.73" y="81.01" xlink:href="#hl"/>
<use x="488.73" y="81.01" xlink:href="#hd"/>
<use x="479.73" y="81.01" xlink:href="#ft0"/>
<path d="M485.23 81.01v42.00" stroke="currentColor" fill="none"/>
<path fill="currentColor"
	d="M485.23 123.01c0.6 -5.6 9.6 -9 5.6 -18.4
	c1.6 6 -1.3 11.6 -5.6 12.8
"/>
<use x="517.03" y="105.01" xlink:href="#hl"/>
<use x="517.03" y="99.01" xlink:href="#hl"/>
<use x="517.03" y="93.01" xlink:href="#hl"/>
<use x="517.03" y="87.01" xlink:href="#hl"/>
<use x="517.03" y="81.01" xlink:href="#hl"/>
<use x="517.03" y="75.01" xlink:href="#hl"/>
<use x="517.03" y="69.01" xlink:href="#hl"/>
<use x="517.03" y="63.01" xlink:href="#hl"/>
<use x="517.03" y="60.01" xlink:href="#hd"/>
<path d="M513.53 60.01v63.00" stroke="currentColor" fill="none"/>
</g>
</svg>
