<?xml version="1.0" standalone="no"?>
<!DOCTYPE svg PUBLIC "-//W3C//DTD SVG 1.1//EN"
	"http://www.w3.org/Graphics/SVG/1.1/DTD/svg11.dtd">
<svg xmlns="http://www.w3.org/2000/svg" version="1.1"
	xmlns:xlink="http://www.w3.org/1999/xlink"
	xml:space='preserve' color="black"
	width="7.38in" height="1.43in" viewBox="0 0 531 103">
<title>9369.abc (9369) tune 1</title>
<!-- Creator: abcm2ps-7.8.14 -->
<!-- CreationDate: Mar 13, 2016 18:54 -->
<!-- CommandLine: -qxg 9369.abc -O ../svgs/9369.svg -->
<g transform="scale(0.750)" stroke-width="0.70" font-family="Times" font-size="20.00">
<text x="354.13" y="21.67" text-anchor="middle">9369.  Sonata No. 1 in B Flat, 1st. Mvt. - 2nd. Theme</text>
</g>
<g transform="scale(0.750)" stroke-width="0.70" font-family="Times" font-size="14.00" font-style="italic">
<text x="694.93" y="45.34" text-anchor="end">Muzio Clementi</text>
</g>
<g transform="scale(0.525)" stroke-width="0.70" font-family="Times" font-size="14.00" font-style="italic">
<defs>
<ellipse id="hd" rx="4.1" ry="2.9"
	transform="rotate(-20)" fill="currentColor"/>
</defs>
<use x="114.90" y="94.16" xlink:href="#hd"/>
<path d="M118.40 94.16v-20.00" stroke="currentColor" fill="none"/>
</g>
<g transform="scale(0.750)" stroke-width="0.70" font-family="Times" font-size="15.00" font-weight="bold">
<text x="88.13" y="68.01">= 120</text>
<path stroke="currentColor" fill="none"
	d="M294.73 114.01v-24.00"/>
<path stroke="currentColor" fill="none"
	d="M464.53 114.01v-24.00"/>
<path stroke="currentColor" fill="none"
	d="M694.93 114.01v-24.00"/>
<path stroke="currentColor" fill="none"
	d="M13.33 114.01h681.60m-681.60 -6h681.60m-681.60 -6h681.60m-681.60 -6h681.60m-681.60 -6h681.60"/>
<text font-family="serif" font-size="12" font-style="italic" font-weight="normal"
	x="421.83" y="119.01" text-anchor="middle">3</text>
<defs>
<path id="utclef" fill="currentColor" d="m-50 -90
	c-72 -41 -72 -158 52 -188
	c150 -10 220 188 90 256
	c-114 52 -275 0 -293 -136
	c-15 -181 93 -229 220 -334
	c88 -87 79 -133 62 -210
	c-51 33 -94 105 -89 186
	c17 267 36 374 49 574
	c6 96 -19 134 -77 135
	c-80 1 -126 -93 -61 -133
	c85 -41 133 101 31 105
	c23 17 92 37 90 -92
	c-10 -223 -39 -342 -50 -617
	c0 -90 0 -162 96 -232
	c56 72 63 230 22 289
	c-74 106 -257 168 -255 316
	c9 153 148 185 252 133
	c86 -65 29 -192 -80 -176
	c-71 12 -105 67 -59 124"/>
<use id="tclef" transform="scale(0.045)"
	xlink:href="#utclef"/>
</defs>
<use x="25.33" y="114.01" xlink:href="#tclef"/>
<defs>
<path id="uflat" fill="currentColor" d="
	m100 -746
	h32
	v734
	l-32 4
	m32 -332
	c46 -72 152 -90 208 -20
	c100 110 -120 326 -208 348
	m0 -28
	c54 0 200 -206 130 -290
	c-50 -60 -130 -4 -130 34"/>
<use id="ft0" transform="translate(-3.5,3.5) scale(0.018)"
	xlink:href="#uflat"/>
</defs>
<use x="40.33" y="102.01" xlink:href="#ft0"/>
<use x="45.83" y="93.01" xlink:href="#ft0"/>
<g font-family="serif" font-size="16" font-weight="bold" font-style="normal"
	transform="translate(61.83,114.01) scale(1.2,1)">
	<text y="-1" text-anchor="middle">4</text>
	<text y="-13" text-anchor="middle">3</text>
</g>
<path fill="currentColor"
	d="M76.03 108.21l40.10 0.00v-3.20l-40.10 -0.00"/>
<path fill="currentColor"
	d="M76.33 103.21l39.40 0.00v-3.20l-39.40 -0.00"/>
<defs>
<path id="hl" stroke="currentColor" d="m-6 0h12"/>
</defs>
<use x="79.83" y="84.01" xlink:href="#hl"/>
<use x="79.83" y="84.01" xlink:href="#hd"/>
<path d="M76.33 84.01v23.20" stroke="currentColor" fill="none"/>
<use x="99.53" y="84.01" xlink:href="#hl"/>
<use x="99.53" y="78.01" xlink:href="#hl"/>
<use x="99.53" y="78.01" xlink:href="#hd"/>
<path d="M96.03 78.01v29.20" stroke="currentColor" fill="none"/>
<use x="119.23" y="84.01" xlink:href="#hl"/>
<use x="119.23" y="84.01" xlink:href="#hd"/>
<use x="110.23" y="84.01" xlink:href="#ft0"/>
<path d="M115.73 84.01v23.20" stroke="currentColor" fill="none"/>
<path fill="currentColor"
	d="M137.33 108.21l40.10 0.00v-3.20l-40.10 -0.00"/>
<path fill="currentColor"
	d="M137.73 103.21l39.40 0.00v-3.20l-39.40 -0.00"/>
<use x="141.23" y="84.01" xlink:href="#hl"/>
<use x="141.23" y="78.01" xlink:href="#hl"/>
<use x="141.23" y="78.01" xlink:href="#hd"/>
<path d="M137.73 78.01v29.20" stroke="currentColor" fill="none"/>
<use x="160.93" y="84.01" xlink:href="#hl"/>
<use x="160.93" y="84.01" xlink:href="#hd"/>
<defs>
<path id="unat" fill="currentColor" d="
	m96 -750
	h-32
	v716
	l32 -8
	l182 -54
	v282
	h32
	v-706
	l-34 10
	l-180 50
	v-290
	m0 592
	v-190
	l182 -52
	v188"/>
<use id="nt0" transform="translate(-3,5) scale(0.018)"
	xlink:href="#unat"/>
</defs>
<use x="151.93" y="84.01" xlink:href="#nt0"/>
<path d="M157.43 84.01v23.20" stroke="currentColor" fill="none"/>
<use x="180.63" y="84.01" xlink:href="#hl"/>
<use x="180.63" y="78.01" xlink:href="#hl"/>
<use x="180.63" y="78.01" xlink:href="#hd"/>
<path d="M177.13 78.01v29.20" stroke="currentColor" fill="none"/>
<path fill="currentColor"
	d="M198.73 108.21l68.00 0.00v-3.20l-68.00 -0.00"/>
<path fill="currentColor"
	d="M199.03 103.21l19.70 0.00v-3.20l-19.70 -0.00"/>
<use x="202.53" y="84.01" xlink:href="#hl"/>
<use x="202.53" y="84.01" xlink:href="#hd"/>
<use x="193.53" y="84.01" xlink:href="#ft0"/>
<path d="M199.03 84.01v23.20" stroke="currentColor" fill="none"/>
<use x="222.23" y="84.01" xlink:href="#hl"/>
<use x="222.23" y="78.01" xlink:href="#hl"/>
<use x="222.23" y="78.01" xlink:href="#hd"/>
<path d="M218.73 78.01v29.20" stroke="currentColor" fill="none"/>
<use x="241.93" y="84.01" xlink:href="#hl"/>
<use x="241.93" y="84.01" xlink:href="#hd"/>
<use x="232.93" y="84.01" xlink:href="#nt0"/>
<path d="M238.43 84.01v23.20" stroke="currentColor" fill="none"/>
<use x="269.83" y="84.01" xlink:href="#hl"/>
<use x="269.83" y="78.01" xlink:href="#hl"/>
<use x="269.83" y="72.01" xlink:href="#hl"/>
<use x="269.83" y="69.01" xlink:href="#hd"/>
<path d="M266.33 69.01v38.20" stroke="currentColor" fill="none"/>
<use x="310.23" y="84.01" xlink:href="#hl"/>
<use x="310.23" y="78.01" xlink:href="#hl"/>
<use x="310.23" y="72.01" xlink:href="#hl"/>
<use x="310.23" y="69.01" xlink:href="#hd"/>
<circle fill="currentColor" cx="318.23" cy="69.01" r="1.2"/>
<path d="M306.73 69.01v33.00" stroke="currentColor" fill="none"/>
<path fill="currentColor"
	d="M356.23 102.21l20.40 0.00v-3.20l-20.40 -0.00"/>
<path fill="currentColor"
	d="M356.53 97.21l19.70 0.00v-3.20l-19.70 -0.00"/>
<use x="360.03" y="84.01" xlink:href="#hl"/>
<use x="360.03" y="78.01" xlink:href="#hl"/>
<use x="360.03" y="72.01" xlink:href="#hl"/>
<use x="360.03" y="72.01" xlink:href="#hd"/>
<use x="351.03" y="72.01" xlink:href="#nt0"/>
<path d="M356.53 72.01v29.20" stroke="currentColor" fill="none"/>
<use x="379.83" y="84.01" xlink:href="#hl"/>
<use x="379.83" y="78.01" xlink:href="#hl"/>
<use x="379.83" y="72.01" xlink:href="#hl"/>
<use x="379.83" y="69.01" xlink:href="#hd"/>
<path d="M376.33 69.01v32.20" stroke="currentColor" fill="none"/>
<path fill="currentColor"
	d="M397.83 102.21l44.20 0.00v-3.20l-44.20 -0.00"/>
<use x="401.73" y="84.01" xlink:href="#hl"/>
<use x="401.73" y="78.01" xlink:href="#hl"/>
<use x="401.73" y="72.01" xlink:href="#hl"/>
<use x="401.73" y="66.01" xlink:href="#hl"/>
<use x="401.73" y="66.01" xlink:href="#hd"/>
<path d="M398.23 66.01v35.20" stroke="currentColor" fill="none"/>
<use x="423.43" y="84.01" xlink:href="#hl"/>
<use x="423.43" y="78.01" xlink:href="#hl"/>
<use x="423.43" y="72.01" xlink:href="#hl"/>
<use x="423.43" y="72.01" xlink:href="#hd"/>
<use x="414.43" y="72.01" xlink:href="#nt0"/>
<path d="M419.93 72.01v29.20" stroke="currentColor" fill="none"/>
<use x="445.23" y="84.01" xlink:href="#hl"/>
<use x="445.23" y="81.01" xlink:href="#hd"/>
<path d="M441.73 81.01v20.20" stroke="currentColor" fill="none"/>
<path fill="currentColor"
	d="M476.23 108.21l40.10 0.00v-3.20l-40.10 -0.00"/>
<path fill="currentColor"
	d="M476.53 103.21l39.40 0.00v-3.20l-39.40 -0.00"/>
<use x="480.03" y="84.01" xlink:href="#hl"/>
<use x="480.03" y="84.01" xlink:href="#hd"/>
<path d="M476.53 84.01v23.20" stroke="currentColor" fill="none"/>
<use x="499.83" y="84.01" xlink:href="#hl"/>
<use x="499.83" y="78.01" xlink:href="#hl"/>
<use x="499.83" y="78.01" xlink:href="#hd"/>
<path d="M496.33 78.01v29.20" stroke="currentColor" fill="none"/>
<use x="519.53" y="84.01" xlink:href="#hl"/>
<use x="519.53" y="84.01" xlink:href="#hd"/>
<use x="510.53" y="84.01" xlink:href="#ft0"/>
<path d="M516.03 84.01v23.20" stroke="currentColor" fill="none"/>
<path fill="currentColor"
	d="M537.63 108.21l40.10 0.00v-3.20l-40.10 -0.00"/>
<path fill="currentColor"
	d="M537.93 103.21l39.40 0.00v-3.20l-39.40 -0.00"/>
<use x="541.43" y="84.01" xlink:href="#hl"/>
<use x="541.43" y="78.01" xlink:href="#hl"/>
<use x="541.43" y="78.01" xlink:href="#hd"/>
<path d="M537.93 78.01v29.20" stroke="currentColor" fill="none"/>
<use x="561.13" y="84.01" xlink:href="#hl"/>
<use x="561.13" y="84.01" xlink:href="#hd"/>
<use x="552.13" y="84.01" xlink:href="#nt0"/>
<path d="M557.63 84.01v23.20" stroke="currentColor" fill="none"/>
<use x="580.83" y="84.01" xlink:href="#hl"/>
<use x="580.83" y="78.01" xlink:href="#hl"/>
<use x="580.83" y="78.01" xlink:href="#hd"/>
<path d="M577.33 78.01v29.20" stroke="currentColor" fill="none"/>
<path fill="currentColor"
	d="M598.93 108.21l68.00 0.00v-3.20l-68.00 -0.00"/>
<path fill="currentColor"
	d="M599.33 103.21l19.70 0.00v-3.20l-19.70 -0.00"/>
<use x="602.83" y="84.01" xlink:href="#hl"/>
<use x="602.83" y="84.01" xlink:href="#hd"/>
<use x="593.83" y="84.01" xlink:href="#ft0"/>
<path d="M599.33 84.01v23.20" stroke="currentColor" fill="none"/>
<use x="622.53" y="84.01" xlink:href="#hl"/>
<use x="622.53" y="78.01" xlink:href="#hl"/>
<use x="622.53" y="78.01" xlink:href="#hd"/>
<path d="M619.03 78.01v29.20" stroke="currentColor" fill="none"/>
<use x="642.23" y="84.01" xlink:href="#hl"/>
<use x="642.23" y="84.01" xlink:href="#hd"/>
<use x="633.23" y="84.01" xlink:href="#nt0"/>
<path d="M638.73 84.01v23.20" stroke="currentColor" fill="none"/>
<use x="670.13" y="84.01" xlink:href="#hl"/>
<use x="670.13" y="78.01" xlink:href="#hl"/>
<use x="670.13" y="72.01" xlink:href="#hl"/>
<use x="670.13" y="69.01" xlink:href="#hd"/>
<path d="M666.63 69.01v38.20" stroke="currentColor" fill="none"/>
</g>
</svg>
