<?xml version="1.0" standalone="no"?>
<!DOCTYPE svg PUBLIC "-//W3C//DTD SVG 1.1//EN"
	"http://www.w3.org/Graphics/SVG/1.1/DTD/svg11.dtd">
<svg xmlns="http://www.w3.org/2000/svg" version="1.1"
	xmlns:xlink="http://www.w3.org/1999/xlink"
	xml:space='preserve' color="black"
	width="7.38in" height="1.39in" viewBox="0 0 531 100">
<title>9391.abc (9391) tune 1</title>
<!-- Creator: abcm2ps-7.8.14 -->
<!-- CreationDate: Mar 13, 2016 18:54 -->
<!-- CommandLine: -qxg 9391.abc -O ../svgs/9391.svg -->
<g transform="scale(0.750)" stroke-width="0.70" font-family="Times" font-size="20.00">
<text x="354.13" y="21.67" text-anchor="middle">9391.  Appalachian Spring, Ballet, 1st. Theme, A and B</text>
</g>
<g transform="scale(0.750)" stroke-width="0.70" font-family="Times" font-size="14.00" font-style="italic">
<text x="694.93" y="45.34" text-anchor="end">Aaron Copland</text>
</g>
<g transform="scale(0.525)" stroke-width="0.70" font-family="Times" font-size="14.00" font-style="italic">
<defs>
<ellipse id="hd" rx="4.1" ry="2.9"
	transform="rotate(-20)" fill="currentColor"/>
</defs>
<use x="123.47" y="94.16" xlink:href="#hd"/>
<path d="M126.97 94.16v-20.00" stroke="currentColor" fill="none"/>
</g>
<g transform="scale(0.750)" stroke-width="0.70" font-family="Times" font-size="15.00" font-weight="bold">
<text x="94.13" y="68.01">= 120</text>
<path stroke="currentColor" fill="none"
	d="M223.13 110.01v-24.00"/>
<path stroke="currentColor" fill="none"
	d="M375.53 110.01v-24.00"/>
<path stroke="currentColor" fill="none"
	d="M488.33 110.01v-24.00"/>
<path stroke="currentColor" fill="none"
	d="M637.13 110.01v-24.00"/>
<path stroke="currentColor" fill="none"
	d="M13.33 110.01h681.60m-681.60 -6h681.60m-681.60 -6h681.60m-681.60 -6h681.60m-681.60 -6h681.60"/>
<defs>
<path id="utclef" fill="currentColor" d="m-50 -90
	c-72 -41 -72 -158 52 -188
	c150 -10 220 188 90 256
	c-114 52 -275 0 -293 -136
	c-15 -181 93 -229 220 -334
	c88 -87 79 -133 62 -210
	c-51 33 -94 105 -89 186
	c17 267 36 374 49 574
	c6 96 -19 134 -77 135
	c-80 1 -126 -93 -61 -133
	c85 -41 133 101 31 105
	c23 17 92 37 90 -92
	c-10 -223 -39 -342 -50 -617
	c0 -90 0 -162 96 -232
	c56 72 63 230 22 289
	c-74 106 -257 168 -255 316
	c9 153 148 185 252 133
	c86 -65 29 -192 -80 -176
	c-71 12 -105 67 -59 124"/>
<use id="tclef" transform="scale(0.045)"
	xlink:href="#utclef"/>
</defs>
<use x="25.33" y="110.01" xlink:href="#tclef"/>
<defs>
<path id="usharp" fill="currentColor" d="
	m136 -702
	v890
	h32
	v-890
	m128 840
	h32
	v-888
	h-32
	m-232 286
	v116
	l338 -96
	v-116
	m-338 442
	v116
	l338 -98
	v-114"/>
<use id="sh0" transform="translate(-4,5) scale(0.018)"
	xlink:href="#usharp"/>
</defs>
<use x="40.33" y="86.01" xlink:href="#sh0"/>
<use x="45.83" y="95.01" xlink:href="#sh0"/>
<use x="51.33" y="83.01" xlink:href="#sh0"/>
<g font-family="serif" font-size="16" font-weight="bold" font-style="normal"
	transform="translate(67.33,110.01) scale(1.2,1)">
	<text y="-1" text-anchor="middle">4</text>
	<text y="-13" text-anchor="middle">4</text>
</g>
<defs>
<path id="hl" stroke="currentColor" d="m-6 0h12"/>
</defs>
<use x="85.83" y="80.01" xlink:href="#hl"/>
<defs>
<path id="Hd" fill="currentColor" d="m3 -1.6
	c-1 -1.8 -7 1.4 -6 3.2
	c1 1.8 7 -1.4 6 -3.2
	m0.5 -0.3
	c2 3.8 -5 7.6 -7 3.8
	c-2 -3.8 5 -7.6 7 -3.8"/>
</defs>
<use x="85.83" y="80.01" xlink:href="#Hd"/>
<path d="M82.33 80.01v20.00" stroke="currentColor" fill="none"/>
<use x="146.23" y="80.01" xlink:href="#hl"/>
<use x="146.23" y="74.01" xlink:href="#hl"/>
<use x="146.23" y="74.01" xlink:href="#hd"/>
<path d="M142.73 74.01v24.00" stroke="currentColor" fill="none"/>
<use x="188.93" y="80.01" xlink:href="#hl"/>
<use x="188.93" y="74.01" xlink:href="#hl"/>
<use x="188.93" y="68.01" xlink:href="#hl"/>
<use x="188.93" y="68.01" xlink:href="#hd"/>
<path d="M185.43 68.01v30.00" stroke="currentColor" fill="none"/>
<use x="238.23" y="80.01" xlink:href="#hl"/>
<use x="238.23" y="74.01" xlink:href="#hl"/>
<use x="238.23" y="74.01" xlink:href="#hd"/>
<path d="M234.73 74.01v24.00" stroke="currentColor" fill="none"/>
<use x="280.93" y="80.01" xlink:href="#hl"/>
<use x="280.93" y="74.01" xlink:href="#hl"/>
<use x="280.93" y="68.01" xlink:href="#hl"/>
<use x="280.93" y="68.01" xlink:href="#Hd"/>
<path d="M277.43 68.01v30.00" stroke="currentColor" fill="none"/>
<use x="341.33" y="95.01" xlink:href="#hd"/>
<path d="M337.83 95.01v20.00" stroke="currentColor" fill="none"/>
<use x="390.63" y="89.01" xlink:href="#hd"/>
<path d="M387.13 89.01v20.00" stroke="currentColor" fill="none"/>
<use x="433.33" y="80.01" xlink:href="#hl"/>
<use x="433.33" y="80.01" xlink:href="#Hd"/>
<circle fill="currentColor" cx="442.33" cy="77.01" r="1.2"/>
<path d="M429.83 80.01v20.00" stroke="currentColor" fill="none"/>
<use x="503.43" y="80.01" xlink:href="#hl"/>
<use x="503.43" y="77.01" xlink:href="#hd"/>
<path d="M499.93 77.01v21.00" stroke="currentColor" fill="none"/>
<use x="546.13" y="80.01" xlink:href="#hl"/>
<use x="546.13" y="74.01" xlink:href="#hl"/>
<use x="546.13" y="68.01" xlink:href="#hl"/>
<use x="546.13" y="68.01" xlink:href="#hd"/>
<path d="M542.63 68.01v30.00" stroke="currentColor" fill="none"/>
<use x="588.83" y="80.01" xlink:href="#hl"/>
<use x="588.83" y="74.01" xlink:href="#hl"/>
<use x="588.83" y="68.01" xlink:href="#hl"/>
<use x="588.83" y="62.01" xlink:href="#hl"/>
<use x="588.83" y="62.01" xlink:href="#Hd"/>
<path d="M585.33 62.01v36.00" stroke="currentColor" fill="none"/>
<use x="652.23" y="80.01" xlink:href="#hl"/>
<use x="652.23" y="74.01" xlink:href="#hl"/>
<use x="652.23" y="68.01" xlink:href="#hl"/>
<use x="652.23" y="62.01" xlink:href="#hl"/>
<use x="652.23" y="62.01" xlink:href="#hd"/>
<path d="M648.73 62.01v36.00" stroke="currentColor" fill="none"/>
<path fill="currentColor"
	d="M592.33 62.01c8.47 -5.52 47.97 -5.52 56.44 -0.00
	l0.00 -0.26c-10.16 -7.26 -46.27 -7.26 -56.44 0.26"/>
</g>
</svg>
