<?xml version="1.0" standalone="no"?>
<!DOCTYPE svg PUBLIC "-//W3C//DTD SVG 1.1//EN"
	"http://www.w3.org/Graphics/SVG/1.1/DTD/svg11.dtd">
<svg xmlns="http://www.w3.org/2000/svg" version="1.1"
	xmlns:xlink="http://www.w3.org/1999/xlink"
	xml:space='preserve' color="black"
	width="7.38in" height="1.68in" viewBox="0 0 531 121">
<title>9393.abc (9393) tune 1</title>
<!-- Creator: abcm2ps-7.8.14 -->
<!-- CreationDate: Mar 13, 2016 18:54 -->
<!-- CommandLine: -qxg 9393.abc -O ../svgs/9393.svg -->
<g transform="scale(0.750)" stroke-width="0.70" font-family="Times" font-size="20.00">
<text x="354.13" y="21.67" text-anchor="middle">9393.  Appalachian Spring, Ballet, 3rd. Theme</text>
</g>
<g transform="scale(0.750)" stroke-width="0.70" font-family="Times" font-size="14.00" font-style="italic">
<text x="694.93" y="45.34" text-anchor="end">Aaron Copland</text>
</g>
<g transform="scale(0.525)" stroke-width="0.70" font-family="Times" font-size="14.00" font-style="italic">
<defs>
<ellipse id="hd" rx="4.1" ry="2.9"
	transform="rotate(-20)" fill="currentColor"/>
</defs>
<use x="122.76" y="94.16" xlink:href="#hd"/>
<path d="M126.26 94.16v-20.00" stroke="currentColor" fill="none"/>
</g>
<g transform="scale(0.750)" stroke-width="0.70" font-family="Times" font-size="15.00" font-weight="bold">
<text x="93.63" y="68.01">= 120</text>
<path stroke="currentColor" fill="none"
	d="M113.23 138.01v-24.00"/>
<path stroke="currentColor" fill="none"
	d="M142.33 138.01v-24.00"/>
<path stroke="currentColor" fill="none"
	d="M171.53 138.01v-24.00"/>
<path stroke="currentColor" fill="none"
	d="M200.73 138.01v-24.00"/>
<path stroke="currentColor" fill="none"
	d="M229.93 138.01v-24.00"/>
<path stroke="currentColor" fill="none"
	d="M259.13 138.01v-24.00"/>
<path stroke="currentColor" fill="none"
	d="M298.63 138.01v-24.00"/>
<path stroke="currentColor" fill="none"
	d="M329.43 138.01v-24.00"/>
<path stroke="currentColor" fill="none"
	d="M369.73 138.01v-24.00"/>
<path stroke="currentColor" fill="none"
	d="M398.93 138.01v-24.00"/>
<path stroke="currentColor" fill="none"
	d="M428.13 138.01v-24.00"/>
<path stroke="currentColor" fill="none"
	d="M457.33 138.01v-24.00"/>
<path stroke="currentColor" fill="none"
	d="M486.43 138.01v-24.00"/>
<path stroke="currentColor" fill="none"
	d="M526.83 138.01v-24.00"/>
<path stroke="currentColor" fill="none"
	d="M556.03 138.01v-24.00"/>
<path stroke="currentColor" fill="none"
	d="M585.23 138.01v-24.00"/>
<path stroke="currentColor" fill="none"
	d="M614.33 138.01v-24.00"/>
<path stroke="currentColor" fill="none"
	d="M643.53 138.01v-24.00"/>
<path stroke="currentColor" fill="none"
	d="M672.73 138.01v-24.00"/>
<path stroke="currentColor" fill="none"
	d="M13.33 138.01h681.60m-681.60 -6h681.60m-681.60 -6h681.60m-681.60 -6h681.60m-681.60 -6h681.60"/>
<defs>
<path id="utclef" fill="currentColor" d="m-50 -90
	c-72 -41 -72 -158 52 -188
	c150 -10 220 188 90 256
	c-114 52 -275 0 -293 -136
	c-15 -181 93 -229 220 -334
	c88 -87 79 -133 62 -210
	c-51 33 -94 105 -89 186
	c17 267 36 374 49 574
	c6 96 -19 134 -77 135
	c-80 1 -126 -93 -61 -133
	c85 -41 133 101 31 105
	c23 17 92 37 90 -92
	c-10 -223 -39 -342 -50 -617
	c0 -90 0 -162 96 -232
	c56 72 63 230 22 289
	c-74 106 -257 168 -255 316
	c9 153 148 185 252 133
	c86 -65 29 -192 -80 -176
	c-71 12 -105 67 -59 124"/>
<use id="tclef" transform="scale(0.045)"
	xlink:href="#utclef"/>
</defs>
<use x="25.33" y="138.01" xlink:href="#tclef"/>
<defs>
<path id="usharp" fill="currentColor" d="
	m136 -702
	v890
	h32
	v-890
	m128 840
	h32
	v-888
	h-32
	m-232 286
	v116
	l338 -96
	v-116
	m-338 442
	v116
	l338 -98
	v-114"/>
<use id="sh0" transform="translate(-4,5) scale(0.018)"
	xlink:href="#usharp"/>
</defs>
<use x="40.33" y="114.01" xlink:href="#sh0"/>
<use x="45.83" y="123.01" xlink:href="#sh0"/>
<use x="51.33" y="111.01" xlink:href="#sh0"/>
<g font-family="serif" font-size="16" font-weight="bold" font-style="normal"
	transform="translate(67.33,138.01) scale(1.2,1)">
	<text y="-1" text-anchor="middle">4</text>
	<text y="-13" text-anchor="middle">2</text>
</g>
<defs>
<path id="hl" stroke="currentColor" d="m-6 0h12"/>
</defs>
<use x="85.33" y="108.01" xlink:href="#hl"/>
<use x="85.33" y="102.01" xlink:href="#hl"/>
<use x="85.33" y="96.01" xlink:href="#hl"/>
<use x="85.33" y="96.01" xlink:href="#hd"/>
<path d="M81.83 96.01v30.00" stroke="currentColor" fill="none"/>
<use x="100.53" y="108.01" xlink:href="#hl"/>
<use x="100.53" y="102.01" xlink:href="#hl"/>
<use x="100.53" y="96.01" xlink:href="#hl"/>
<use x="100.53" y="90.01" xlink:href="#hl"/>
<use x="100.53" y="87.01" xlink:href="#hd"/>
<path d="M97.03 87.01v39.00" stroke="currentColor" fill="none"/>
<use x="126.23" y="108.01" xlink:href="#hl"/>
<use x="126.23" y="102.01" xlink:href="#hl"/>
<use x="126.23" y="96.01" xlink:href="#hl"/>
<use x="126.23" y="90.01" xlink:href="#hl"/>
<use x="126.23" y="84.01" xlink:href="#hl"/>
<use x="126.23" y="78.01" xlink:href="#hl"/>
<defs>
<path id="Hd" fill="currentColor" d="m3 -1.6
	c-1 -1.8 -7 1.4 -6 3.2
	c1 1.8 7 -1.4 6 -3.2
	m0.5 -0.3
	c2 3.8 -5 7.6 -7 3.8
	c-2 -3.8 5 -7.6 7 -3.8"/>
</defs>
<use x="126.23" y="78.01" xlink:href="#Hd"/>
<path d="M122.73 78.01v48.00" stroke="currentColor" fill="none"/>
<use x="155.33" y="108.01" xlink:href="#hl"/>
<use x="155.33" y="102.01" xlink:href="#hl"/>
<use x="155.33" y="96.01" xlink:href="#hl"/>
<use x="155.33" y="90.01" xlink:href="#hl"/>
<use x="155.33" y="84.01" xlink:href="#hl"/>
<use x="155.33" y="81.01" xlink:href="#Hd"/>
<path d="M151.83 81.01v45.00" stroke="currentColor" fill="none"/>
<use x="184.53" y="108.01" xlink:href="#hl"/>
<use x="184.53" y="102.01" xlink:href="#hl"/>
<use x="184.53" y="96.01" xlink:href="#hl"/>
<use x="184.53" y="90.01" xlink:href="#hl"/>
<use x="184.53" y="84.01" xlink:href="#hl"/>
<use x="184.53" y="81.01" xlink:href="#Hd"/>
<path d="M181.03 81.01v45.00" stroke="currentColor" fill="none"/>
<use x="213.73" y="108.01" xlink:href="#hl"/>
<use x="213.73" y="102.01" xlink:href="#hl"/>
<use x="213.73" y="96.01" xlink:href="#hl"/>
<use x="213.73" y="90.01" xlink:href="#hl"/>
<use x="213.73" y="84.01" xlink:href="#hl"/>
<use x="213.73" y="84.01" xlink:href="#Hd"/>
<path d="M210.23 84.01v42.00" stroke="currentColor" fill="none"/>
<use x="242.93" y="108.01" xlink:href="#hl"/>
<use x="242.93" y="102.01" xlink:href="#hl"/>
<use x="242.93" y="96.01" xlink:href="#hl"/>
<use x="242.93" y="90.01" xlink:href="#hl"/>
<use x="242.93" y="84.01" xlink:href="#hl"/>
<use x="242.93" y="84.01" xlink:href="#Hd"/>
<path d="M239.43 84.01v42.00" stroke="currentColor" fill="none"/>
<use x="271.63" y="108.01" xlink:href="#hl"/>
<use x="271.63" y="102.01" xlink:href="#hl"/>
<use x="271.63" y="96.01" xlink:href="#hl"/>
<use x="271.63" y="90.01" xlink:href="#hl"/>
<use x="271.63" y="84.01" xlink:href="#hl"/>
<use x="271.63" y="84.01" xlink:href="#hd"/>
<path d="M268.13 84.01v42.00" stroke="currentColor" fill="none"/>
<defs>
<path id="r4" fill="currentColor" d="m-1 -8.5
	l3.6 5.1 -2.1 5.2 2.2 4.3
	c-2.6 -2.3 -5.1 0 -2.4 2.6
	c-4.8 -3 -1.5 -6.9 1.4 -4.1
	l-3.1 -4.5 1.9 -5.1 -1.5 -3.5"/>
</defs>
<use x="285.93" y="126.01" xlink:href="#r4"/>
<defs>
<rect id="r1" fill="currentColor"
	x="-3.5" y="-6" width="7" height="3"/>
</defs>
<use x="314.03" y="126.01" xlink:href="#r1"/>
<use x="341.93" y="108.01" xlink:href="#hl"/>
<use x="341.93" y="102.01" xlink:href="#hl"/>
<use x="341.93" y="96.01" xlink:href="#hl"/>
<use x="341.93" y="96.01" xlink:href="#hd"/>
<path d="M338.43 96.01v30.00" stroke="currentColor" fill="none"/>
<use x="357.03" y="108.01" xlink:href="#hl"/>
<use x="357.03" y="102.01" xlink:href="#hl"/>
<use x="357.03" y="96.01" xlink:href="#hl"/>
<use x="357.03" y="90.01" xlink:href="#hl"/>
<use x="357.03" y="87.01" xlink:href="#hd"/>
<path d="M353.53 87.01v39.00" stroke="currentColor" fill="none"/>
<use x="382.73" y="108.01" xlink:href="#hl"/>
<use x="382.73" y="102.01" xlink:href="#hl"/>
<use x="382.73" y="96.01" xlink:href="#hl"/>
<use x="382.73" y="90.01" xlink:href="#hl"/>
<use x="382.73" y="84.01" xlink:href="#hl"/>
<use x="382.73" y="78.01" xlink:href="#hl"/>
<use x="382.73" y="78.01" xlink:href="#Hd"/>
<path d="M379.23 78.01v48.00" stroke="currentColor" fill="none"/>
<use x="411.93" y="108.01" xlink:href="#hl"/>
<use x="411.93" y="102.01" xlink:href="#hl"/>
<use x="411.93" y="96.01" xlink:href="#hl"/>
<use x="411.93" y="90.01" xlink:href="#hl"/>
<use x="411.93" y="84.01" xlink:href="#hl"/>
<use x="411.93" y="81.01" xlink:href="#Hd"/>
<path d="M408.43 81.01v45.00" stroke="currentColor" fill="none"/>
<use x="441.13" y="108.01" xlink:href="#hl"/>
<use x="441.13" y="102.01" xlink:href="#hl"/>
<use x="441.13" y="96.01" xlink:href="#hl"/>
<use x="441.13" y="90.01" xlink:href="#hl"/>
<use x="441.13" y="84.01" xlink:href="#hl"/>
<use x="441.13" y="81.01" xlink:href="#Hd"/>
<path d="M437.63 81.01v45.00" stroke="currentColor" fill="none"/>
<use x="470.33" y="108.01" xlink:href="#hl"/>
<use x="470.33" y="102.01" xlink:href="#hl"/>
<use x="470.33" y="96.01" xlink:href="#hl"/>
<use x="470.33" y="90.01" xlink:href="#hl"/>
<use x="470.33" y="84.01" xlink:href="#hl"/>
<use x="470.33" y="78.01" xlink:href="#hl"/>
<use x="470.33" y="75.01" xlink:href="#Hd"/>
<path d="M466.83 75.01v51.00" stroke="currentColor" fill="none"/>
<use x="498.93" y="108.01" xlink:href="#hl"/>
<use x="498.93" y="102.01" xlink:href="#hl"/>
<use x="498.93" y="96.01" xlink:href="#hl"/>
<use x="498.93" y="90.01" xlink:href="#hl"/>
<use x="498.93" y="84.01" xlink:href="#hl"/>
<use x="498.93" y="78.01" xlink:href="#hl"/>
<use x="498.93" y="75.01" xlink:href="#hd"/>
<path d="M495.43 75.01v51.00" stroke="currentColor" fill="none"/>
<use x="514.13" y="108.01" xlink:href="#hl"/>
<use x="514.13" y="102.01" xlink:href="#hl"/>
<use x="514.13" y="96.01" xlink:href="#hl"/>
<use x="514.13" y="90.01" xlink:href="#hl"/>
<use x="514.13" y="84.01" xlink:href="#hl"/>
<use x="514.13" y="84.01" xlink:href="#hd"/>
<path d="M510.63 84.01v42.00" stroke="currentColor" fill="none"/>
<use x="539.83" y="108.01" xlink:href="#hl"/>
<use x="539.83" y="102.01" xlink:href="#hl"/>
<use x="539.83" y="96.01" xlink:href="#hl"/>
<use x="539.83" y="90.01" xlink:href="#hl"/>
<use x="539.83" y="84.01" xlink:href="#hl"/>
<use x="539.83" y="84.01" xlink:href="#Hd"/>
<path d="M536.33 84.01v42.00" stroke="currentColor" fill="none"/>
<use x="569.03" y="108.01" xlink:href="#hl"/>
<use x="569.03" y="102.01" xlink:href="#hl"/>
<use x="569.03" y="96.01" xlink:href="#hl"/>
<use x="569.03" y="90.01" xlink:href="#hl"/>
<use x="569.03" y="84.01" xlink:href="#hl"/>
<use x="569.03" y="78.01" xlink:href="#hl"/>
<use x="569.03" y="72.01" xlink:href="#hl"/>
<use x="569.03" y="72.01" xlink:href="#Hd"/>
<path d="M565.53 72.01v54.00" stroke="currentColor" fill="none"/>
<use x="598.23" y="108.01" xlink:href="#hl"/>
<use x="598.23" y="102.01" xlink:href="#hl"/>
<use x="598.23" y="96.01" xlink:href="#hl"/>
<use x="598.23" y="90.01" xlink:href="#hl"/>
<use x="598.23" y="84.01" xlink:href="#hl"/>
<use x="598.23" y="78.01" xlink:href="#hl"/>
<use x="598.23" y="72.01" xlink:href="#hl"/>
<use x="598.23" y="66.01" xlink:href="#hl"/>
<use x="598.23" y="66.01" xlink:href="#Hd"/>
<path d="M594.73 66.01v60.00" stroke="currentColor" fill="none"/>
<use x="627.33" y="108.01" xlink:href="#hl"/>
<use x="627.33" y="102.01" xlink:href="#hl"/>
<use x="627.33" y="96.01" xlink:href="#hl"/>
<use x="627.33" y="90.01" xlink:href="#hl"/>
<use x="627.33" y="84.01" xlink:href="#hl"/>
<use x="627.33" y="78.01" xlink:href="#hl"/>
<use x="627.33" y="75.01" xlink:href="#Hd"/>
<path d="M623.83 75.01v51.00" stroke="currentColor" fill="none"/>
<use x="656.53" y="108.01" xlink:href="#hl"/>
<use x="656.53" y="102.01" xlink:href="#hl"/>
<use x="656.53" y="96.01" xlink:href="#hl"/>
<use x="656.53" y="90.01" xlink:href="#hl"/>
<use x="656.53" y="84.01" xlink:href="#hl"/>
<use x="656.53" y="84.01" xlink:href="#Hd"/>
<path d="M653.03 84.01v42.00" stroke="currentColor" fill="none"/>
<use x="685.23" y="108.01" xlink:href="#hl"/>
<use x="685.23" y="102.01" xlink:href="#hl"/>
<use x="685.23" y="96.01" xlink:href="#hl"/>
<use x="685.23" y="90.01" xlink:href="#hl"/>
<use x="685.23" y="84.01" xlink:href="#hl"/>
<use x="685.23" y="84.01" xlink:href="#hd"/>
<path d="M681.73 84.01v42.00" stroke="currentColor" fill="none"/>
<path fill="currentColor"
	d="M158.83 79.01c3.49 -4.90 18.69 -4.90 22.18 -0.00
	l0.00 -0.22c-4.16 -6.68 -18.02 -6.68 -22.18 0.22"/>
<path fill="currentColor"
	d="M217.23 84.01c3.49 -4.90 18.69 -4.90 22.18 -0.00
	l0.00 -0.22c-4.16 -6.68 -18.02 -6.68 -22.18 0.22"/>
<path fill="currentColor"
	d="M246.43 84.01c3.41 -4.89 18.27 -4.89 21.68 -0.00
	l0.00 -0.22c-4.07 -6.67 -17.62 -6.67 -21.68 0.22"/>
<path fill="currentColor"
	d="M415.43 79.01c3.49 -4.90 18.69 -4.90 22.18 -0.00
	l0.00 -0.22c-4.16 -6.68 -18.02 -6.68 -22.18 0.22"/>
<path fill="currentColor"
	d="M473.83 73.01c3.41 -4.89 18.27 -4.89 21.68 -0.00
	l0.00 -0.22c-4.07 -6.67 -17.62 -6.67 -21.68 0.22"/>
<path fill="currentColor"
	d="M517.63 84.01c2.95 -4.84 15.76 -4.84 18.70 -0.00
	l0.00 -0.22c-3.51 -6.62 -15.20 -6.62 -18.70 0.22"/>
<path fill="currentColor"
	d="M660.03 84.01c3.41 -4.89 18.27 -4.89 21.68 -0.00
	l0.00 -0.22c-4.07 -6.67 -17.62 -6.67 -21.68 0.22"/>
</g>
</svg>
