<?xml version="1.0" standalone="no"?>
<!DOCTYPE svg PUBLIC "-//W3C//DTD SVG 1.1//EN"
	"http://www.w3.org/Graphics/SVG/1.1/DTD/svg11.dtd">
<svg xmlns="http://www.w3.org/2000/svg" version="1.1"
	xmlns:xlink="http://www.w3.org/1999/xlink"
	xml:space='preserve' color="black"
	width="7.38in" height="1.55in" viewBox="0 0 531 112">
<title>9409.abc (9409) tune 1</title>
<!-- Creator: abcm2ps-7.8.14 -->
<!-- CreationDate: Mar 13, 2016 18:54 -->
<!-- CommandLine: -qxg 9409.abc -O ../svgs/9409.svg -->
<g transform="scale(0.750)" stroke-width="0.70" font-family="Times" font-size="20.00">
<text x="354.13" y="21.67" text-anchor="middle">9409.  Concerto for Orch. and Pft., 1st. Mvt. - 1st. Theme B</text>
</g>
<g transform="scale(0.750)" stroke-width="0.70" font-family="Times" font-size="14.00" font-style="italic">
<text x="694.93" y="45.34" text-anchor="end">Aaron Copland</text>
</g>
<g transform="scale(0.525)" stroke-width="0.70" font-family="Times" font-size="14.00" font-style="italic">
<defs>
<ellipse id="hd" rx="4.1" ry="2.9"
	transform="rotate(-20)" fill="currentColor"/>
</defs>
<use x="89.19" y="94.16" xlink:href="#hd"/>
<path d="M92.69 94.16v-20.00" stroke="currentColor" fill="none"/>
</g>
<g transform="scale(0.750)" stroke-width="0.70" font-family="Times" font-size="15.00" font-weight="bold">
<text x="70.13" y="68.01">= 120</text>
<path stroke="currentColor" fill="none"
	d="M223.63 126.01v-24.00"/>
<path stroke="currentColor" fill="none"
	d="M398.03 126.01v-24.00"/>
<path stroke="currentColor" fill="none"
	d="M578.03 126.01v-24.00"/>
<path stroke="currentColor" fill="none"
	d="M13.33 126.01h681.60m-681.60 -6h681.60m-681.60 -6h681.60m-681.60 -6h681.60m-681.60 -6h681.60"/>
<defs>
<path id="utclef" fill="currentColor" d="m-50 -90
	c-72 -41 -72 -158 52 -188
	c150 -10 220 188 90 256
	c-114 52 -275 0 -293 -136
	c-15 -181 93 -229 220 -334
	c88 -87 79 -133 62 -210
	c-51 33 -94 105 -89 186
	c17 267 36 374 49 574
	c6 96 -19 134 -77 135
	c-80 1 -126 -93 -61 -133
	c85 -41 133 101 31 105
	c23 17 92 37 90 -92
	c-10 -223 -39 -342 -50 -617
	c0 -90 0 -162 96 -232
	c56 72 63 230 22 289
	c-74 106 -257 168 -255 316
	c9 153 148 185 252 133
	c86 -65 29 -192 -80 -176
	c-71 12 -105 67 -59 124"/>
<use id="tclef" transform="scale(0.045)"
	xlink:href="#utclef"/>
</defs>
<use x="25.33" y="126.01" xlink:href="#tclef"/>
<g font-family="serif" font-size="16" font-weight="bold" font-style="normal"
	transform="translate(43.83,126.01) scale(1.2,1)">
	<text y="-1" text-anchor="middle">4</text>
	<text y="-13" text-anchor="middle">4</text>
</g>
<defs>
<path id="hl" stroke="currentColor" d="m-6 0h12"/>
</defs>
<use x="61.83" y="96.01" xlink:href="#hl"/>
<use x="61.83" y="90.01" xlink:href="#hl"/>
<use x="61.83" y="84.01" xlink:href="#hl"/>
<use x="61.83" y="84.01" xlink:href="#hd"/>
<path d="M58.33 84.01v30.00" stroke="currentColor" fill="none"/>
<path fill="currentColor"
	d="M58.33 114.01c0.6 -5.6 9.6 -9 5.6 -18.4
	c1.6 6 -1.3 11.6 -5.6 12.8
"/>
<use x="86.63" y="96.01" xlink:href="#hl"/>
<use x="86.63" y="90.01" xlink:href="#hl"/>
<use x="86.63" y="84.01" xlink:href="#hl"/>
<use x="86.63" y="81.01" xlink:href="#hd"/>
<defs>
<path id="usharp" fill="currentColor" d="
	m136 -702
	v890
	h32
	v-890
	m128 840
	h32
	v-888
	h-32
	m-232 286
	v116
	l338 -96
	v-116
	m-338 442
	v116
	l338 -98
	v-114"/>
<use id="sh0" transform="translate(-4,5) scale(0.018)"
	xlink:href="#usharp"/>
</defs>
<use x="77.63" y="81.01" xlink:href="#sh0"/>
<path d="M83.13 81.01v33.00" stroke="currentColor" fill="none"/>
<path fill="currentColor"
	d="M83.13 114.01c0.6 -5.6 9.6 -9 5.6 -18.4
	c1.6 6 -1.3 11.6 -5.6 12.8
"/>
<use x="111.53" y="96.01" xlink:href="#hl"/>
<use x="111.53" y="90.01" xlink:href="#hl"/>
<use x="111.53" y="84.01" xlink:href="#hl"/>
<use x="111.53" y="78.01" xlink:href="#hl"/>
<use x="111.53" y="78.01" xlink:href="#hd"/>
<use x="102.53" y="78.01" xlink:href="#sh0"/>
<path d="M108.03 78.01v36.00" stroke="currentColor" fill="none"/>
<path fill="currentColor"
	d="M108.03 114.01c0.6 -5.6 9.6 -9 5.6 -18.4
	c1.6 6 -1.3 11.6 -5.6 12.8
"/>
<use x="136.33" y="96.01" xlink:href="#hl"/>
<use x="136.33" y="90.01" xlink:href="#hl"/>
<use x="136.33" y="84.01" xlink:href="#hl"/>
<use x="136.33" y="78.01" xlink:href="#hl"/>
<use x="136.33" y="75.01" xlink:href="#hd"/>
<use x="127.33" y="75.01" xlink:href="#sh0"/>
<path d="M132.83 75.01v39.00" stroke="currentColor" fill="none"/>
<path fill="currentColor"
	d="M132.83 114.01c0.6 -5.6 9.6 -9 5.6 -18.4
	c1.6 6 -1.3 11.6 -5.6 12.8
"/>
<use x="161.13" y="96.01" xlink:href="#hl"/>
<use x="161.13" y="90.01" xlink:href="#hl"/>
<use x="161.13" y="84.01" xlink:href="#hl"/>
<use x="161.13" y="78.01" xlink:href="#hl"/>
<use x="161.13" y="75.01" xlink:href="#hd"/>
<use x="152.13" y="75.01" xlink:href="#sh0"/>
<path d="M157.63 75.01v39.00" stroke="currentColor" fill="none"/>
<use x="196.03" y="96.01" xlink:href="#hl"/>
<use x="196.03" y="90.01" xlink:href="#hl"/>
<use x="196.03" y="84.01" xlink:href="#hl"/>
<use x="196.03" y="78.01" xlink:href="#hl"/>
<use x="196.03" y="78.01" xlink:href="#hd"/>
<use x="187.03" y="78.01" xlink:href="#sh0"/>
<path d="M192.53 78.01v36.00" stroke="currentColor" fill="none"/>
<use x="236.23" y="96.01" xlink:href="#hl"/>
<use x="236.23" y="90.01" xlink:href="#hl"/>
<use x="236.23" y="84.01" xlink:href="#hl"/>
<use x="236.23" y="84.01" xlink:href="#hd"/>
<path d="M232.73 84.01v30.00" stroke="currentColor" fill="none"/>
<path fill="currentColor"
	d="M232.73 114.01c0.6 -5.6 9.6 -9 5.6 -18.4
	c1.6 6 -1.3 11.6 -5.6 12.8
"/>
<use x="261.03" y="96.01" xlink:href="#hl"/>
<use x="261.03" y="90.01" xlink:href="#hl"/>
<use x="261.03" y="84.01" xlink:href="#hl"/>
<use x="261.03" y="81.01" xlink:href="#hd"/>
<use x="252.03" y="81.01" xlink:href="#sh0"/>
<path d="M257.53 81.01v33.00" stroke="currentColor" fill="none"/>
<path fill="currentColor"
	d="M257.53 114.01c0.6 -5.6 9.6 -9 5.6 -18.4
	c1.6 6 -1.3 11.6 -5.6 12.8
"/>
<use x="285.83" y="96.01" xlink:href="#hl"/>
<use x="285.83" y="90.01" xlink:href="#hl"/>
<use x="285.83" y="84.01" xlink:href="#hl"/>
<use x="285.83" y="78.01" xlink:href="#hl"/>
<use x="285.83" y="78.01" xlink:href="#hd"/>
<use x="276.83" y="78.01" xlink:href="#sh0"/>
<path d="M282.33 78.01v36.00" stroke="currentColor" fill="none"/>
<path fill="currentColor"
	d="M282.33 114.01c0.6 -5.6 9.6 -9 5.6 -18.4
	c1.6 6 -1.3 11.6 -5.6 12.8
"/>
<use x="310.73" y="96.01" xlink:href="#hl"/>
<use x="310.73" y="90.01" xlink:href="#hl"/>
<use x="310.73" y="84.01" xlink:href="#hl"/>
<use x="310.73" y="78.01" xlink:href="#hl"/>
<use x="310.73" y="75.01" xlink:href="#hd"/>
<use x="301.73" y="75.01" xlink:href="#sh0"/>
<path d="M307.23 75.01v39.00" stroke="currentColor" fill="none"/>
<path fill="currentColor"
	d="M307.23 114.01c0.6 -5.6 9.6 -9 5.6 -18.4
	c1.6 6 -1.3 11.6 -5.6 12.8
"/>
<use x="335.53" y="96.01" xlink:href="#hl"/>
<use x="335.53" y="90.01" xlink:href="#hl"/>
<use x="335.53" y="84.01" xlink:href="#hl"/>
<use x="335.53" y="78.01" xlink:href="#hl"/>
<use x="335.53" y="75.01" xlink:href="#hd"/>
<use x="326.53" y="75.01" xlink:href="#sh0"/>
<path d="M332.03 75.01v39.00" stroke="currentColor" fill="none"/>
<use x="370.33" y="96.01" xlink:href="#hl"/>
<use x="370.33" y="90.01" xlink:href="#hl"/>
<use x="370.33" y="84.01" xlink:href="#hl"/>
<use x="370.33" y="78.01" xlink:href="#hl"/>
<use x="370.33" y="72.01" xlink:href="#hl"/>
<use x="370.33" y="69.01" xlink:href="#hd"/>
<use x="361.33" y="69.01" xlink:href="#sh0"/>
<path d="M366.83 69.01v45.00" stroke="currentColor" fill="none"/>
<use x="416.53" y="96.01" xlink:href="#hl"/>
<use x="416.53" y="90.01" xlink:href="#hl"/>
<use x="416.53" y="84.01" xlink:href="#hl"/>
<use x="416.53" y="78.01" xlink:href="#hl"/>
<use x="416.53" y="72.01" xlink:href="#hl"/>
<use x="416.53" y="66.01" xlink:href="#hl"/>
<use x="416.53" y="66.01" xlink:href="#hd"/>
<use x="407.53" y="66.01" xlink:href="#sh0"/>
<path d="M413.03 66.01v48.00" stroke="currentColor" fill="none"/>
<path fill="currentColor"
	d="M413.03 114.01c0.6 -5.6 9.6 -9 5.6 -18.4
	c1.6 6 -1.3 11.6 -5.6 12.8
"/>
<use x="441.03" y="96.01" xlink:href="#hl"/>
<use x="441.03" y="90.01" xlink:href="#hl"/>
<use x="441.03" y="84.01" xlink:href="#hl"/>
<use x="441.03" y="78.01" xlink:href="#hl"/>
<use x="441.03" y="72.01" xlink:href="#hl"/>
<use x="441.03" y="72.01" xlink:href="#hd"/>
<path d="M437.53 72.01v42.00" stroke="currentColor" fill="none"/>
<path fill="currentColor"
	d="M437.53 114.01c0.6 -5.6 9.6 -9 5.6 -18.4
	c1.6 6 -1.3 11.6 -5.6 12.8
"/>
<use x="465.93" y="96.01" xlink:href="#hl"/>
<use x="465.93" y="90.01" xlink:href="#hl"/>
<use x="465.93" y="84.01" xlink:href="#hl"/>
<use x="465.93" y="78.01" xlink:href="#hl"/>
<use x="465.93" y="78.01" xlink:href="#hd"/>
<use x="456.93" y="78.01" xlink:href="#sh0"/>
<path d="M462.43 78.01v36.00" stroke="currentColor" fill="none"/>
<path fill="currentColor"
	d="M462.43 114.01c0.6 -5.6 9.6 -9 5.6 -18.4
	c1.6 6 -1.3 11.6 -5.6 12.8
"/>
<use x="490.73" y="96.01" xlink:href="#hl"/>
<use x="490.73" y="90.01" xlink:href="#hl"/>
<use x="490.73" y="84.01" xlink:href="#hl"/>
<use x="490.73" y="81.01" xlink:href="#hd"/>
<use x="481.73" y="81.01" xlink:href="#sh0"/>
<path d="M487.23 81.01v33.00" stroke="currentColor" fill="none"/>
<path fill="currentColor"
	d="M487.23 114.01c0.6 -5.6 9.6 -9 5.6 -18.4
	c1.6 6 -1.3 11.6 -5.6 12.8
"/>
<use x="515.53" y="96.01" xlink:href="#hl"/>
<use x="515.53" y="90.01" xlink:href="#hl"/>
<use x="515.53" y="84.01" xlink:href="#hl"/>
<use x="515.53" y="81.01" xlink:href="#hd"/>
<use x="506.53" y="81.01" xlink:href="#sh0"/>
<path d="M512.03 81.01v33.00" stroke="currentColor" fill="none"/>
<use x="550.43" y="96.01" xlink:href="#hl"/>
<use x="550.43" y="90.01" xlink:href="#hl"/>
<use x="550.43" y="87.01" xlink:href="#hd"/>
<defs>
<path id="unat" fill="currentColor" d="
	m96 -750
	h-32
	v716
	l32 -8
	l182 -54
	v282
	h32
	v-706
	l-34 10
	l-180 50
	v-290
	m0 592
	v-190
	l182 -52
	v188"/>
<use id="nt0" transform="translate(-3,5) scale(0.018)"
	xlink:href="#unat"/>
</defs>
<use x="541.43" y="87.01" xlink:href="#nt0"/>
<path d="M546.93 87.01v27.00" stroke="currentColor" fill="none"/>
<use x="596.53" y="96.01" xlink:href="#hl"/>
<use x="596.53" y="90.01" xlink:href="#hl"/>
<use x="596.53" y="90.01" xlink:href="#hd"/>
<use x="587.53" y="90.01" xlink:href="#nt0"/>
<path d="M593.03 90.01v24.00" stroke="currentColor" fill="none"/>
<path fill="currentColor"
	d="M593.03 114.01c0.6 -5.6 9.6 -9 5.6 -18.4
	c1.6 6 -1.3 11.6 -5.6 12.8
"/>
<use x="621.13" y="96.01" xlink:href="#hl"/>
<use x="621.13" y="90.01" xlink:href="#hl"/>
<use x="621.13" y="84.01" xlink:href="#hl"/>
<use x="621.13" y="84.01" xlink:href="#hd"/>
<path d="M617.63 84.01v30.00" stroke="currentColor" fill="none"/>
<path fill="currentColor"
	d="M617.63 114.01c0.6 -5.6 9.6 -9 5.6 -18.4
	c1.6 6 -1.3 11.6 -5.6 12.8
"/>
<use x="645.93" y="96.01" xlink:href="#hl"/>
<use x="645.93" y="96.01" xlink:href="#hd"/>
<use x="636.93" y="96.01" xlink:href="#sh0"/>
<path d="M642.43 96.01v20.00" stroke="currentColor" fill="none"/>
<path fill="currentColor"
	d="M642.43 116.01c0.6 -5.6 9.6 -9 5.6 -18.4
	c1.6 6 -1.3 11.6 -5.6 12.8
"/>
<use x="670.73" y="96.01" xlink:href="#hl"/>
<use x="670.73" y="90.01" xlink:href="#hl"/>
<use x="670.73" y="84.01" xlink:href="#hl"/>
<use x="670.73" y="81.01" xlink:href="#hd"/>
<use x="661.73" y="81.01" xlink:href="#sh0"/>
<path d="M667.23 81.01v33.00" stroke="currentColor" fill="none"/>
<path fill="currentColor"
	d="M667.23 114.01c0.6 -5.6 9.6 -9 5.6 -18.4
	c1.6 6 -1.3 11.6 -5.6 12.8
"/>
</g>
</svg>
