<?xml version="1.0" standalone="no"?>
<!DOCTYPE svg PUBLIC "-//W3C//DTD SVG 1.1//EN"
	"http://www.w3.org/Graphics/SVG/1.1/DTD/svg11.dtd">
<svg xmlns="http://www.w3.org/2000/svg" version="1.1"
	xmlns:xlink="http://www.w3.org/1999/xlink"
	xml:space='preserve' color="black"
	width="7.38in" height="1.60in" viewBox="0 0 531 116">
<title>9417.abc (9417) tune 1</title>
<!-- Creator: abcm2ps-7.8.14 -->
<!-- CreationDate: Mar 13, 2016 18:54 -->
<!-- CommandLine: -qxg 9417.abc -O ../svgs/9417.svg -->
<g transform="scale(0.750)" stroke-width="0.70" font-family="Times" font-size="20.00">
<text x="354.13" y="21.67" text-anchor="middle">9417.  Dance Symphony - 1st. Mvt. - 2nd. Theme</text>
</g>
<g transform="scale(0.750)" stroke-width="0.70" font-family="Times" font-size="14.00" font-style="italic">
<text x="694.93" y="45.34" text-anchor="end">Aaron Copland</text>
</g>
<g transform="scale(0.525)" stroke-width="0.70" font-family="Times" font-size="14.00" font-style="italic">
<defs>
<ellipse id="hd" rx="4.1" ry="2.9"
	transform="rotate(-20)" fill="currentColor"/>
</defs>
<use x="97.76" y="94.16" xlink:href="#hd"/>
<path d="M101.26 94.16v-20.00" stroke="currentColor" fill="none"/>
</g>
<g transform="scale(0.750)" stroke-width="0.70" font-family="Times" font-size="15.00" font-weight="bold">
<text x="76.13" y="68.01">= 120</text>
<path stroke="currentColor" fill="none"
	d="M197.53 131.01v-24.00"/>
<path stroke="currentColor" fill="none"
	d="M339.43 131.01v-24.00"/>
<path stroke="currentColor" fill="none"
	d="M516.83 131.01v-24.00"/>
<path stroke="currentColor" fill="none"
	d="M13.33 131.01h681.60m-681.60 -6h681.60m-681.60 -6h681.60m-681.60 -6h681.60m-681.60 -6h681.60"/>
<defs>
<path id="utclef" fill="currentColor" d="m-50 -90
	c-72 -41 -72 -158 52 -188
	c150 -10 220 188 90 256
	c-114 52 -275 0 -293 -136
	c-15 -181 93 -229 220 -334
	c88 -87 79 -133 62 -210
	c-51 33 -94 105 -89 186
	c17 267 36 374 49 574
	c6 96 -19 134 -77 135
	c-80 1 -126 -93 -61 -133
	c85 -41 133 101 31 105
	c23 17 92 37 90 -92
	c-10 -223 -39 -342 -50 -617
	c0 -90 0 -162 96 -232
	c56 72 63 230 22 289
	c-74 106 -257 168 -255 316
	c9 153 148 185 252 133
	c86 -65 29 -192 -80 -176
	c-71 12 -105 67 -59 124"/>
<use id="tclef" transform="scale(0.045)"
	xlink:href="#utclef"/>
</defs>
<use x="25.33" y="131.01" xlink:href="#tclef"/>
<g font-family="serif" font-size="16" font-weight="bold" font-style="normal"
	transform="translate(43.83,131.01) scale(1.2,1)">
	<text y="-1" text-anchor="middle">2</text>
	<text y="-13" text-anchor="middle">2</text>
</g>
<defs>
<path id="hl" stroke="currentColor" d="m-6 0h12"/>
</defs>
<use x="67.83" y="101.01" xlink:href="#hl"/>
<use x="67.83" y="95.01" xlink:href="#hl"/>
<use x="67.83" y="89.01" xlink:href="#hl"/>
<use x="67.83" y="83.01" xlink:href="#hl"/>
<use x="67.83" y="80.01" xlink:href="#hd"/>
<defs>
<path id="usharp" fill="currentColor" d="
	m136 -702
	v890
	h32
	v-890
	m128 840
	h32
	v-888
	h-32
	m-232 286
	v116
	l338 -96
	v-116
	m-338 442
	v116
	l338 -98
	v-114"/>
<use id="sh0" transform="translate(-4,5) scale(0.018)"
	xlink:href="#usharp"/>
</defs>
<use x="58.83" y="80.01" xlink:href="#sh0"/>
<path d="M64.33 80.01v39.00" stroke="currentColor" fill="none"/>
<use x="103.03" y="101.01" xlink:href="#hl"/>
<use x="103.03" y="95.01" xlink:href="#hl"/>
<use x="103.03" y="89.01" xlink:href="#hl"/>
<use x="103.03" y="83.01" xlink:href="#hl"/>
<defs>
<path id="Hd" fill="currentColor" d="m3 -1.6
	c-1 -1.8 -7 1.4 -6 3.2
	c1 1.8 7 -1.4 6 -3.2
	m0.5 -0.3
	c2 3.8 -5 7.6 -7 3.8
	c-2 -3.8 5 -7.6 7 -3.8"/>
</defs>
<use x="103.03" y="83.01" xlink:href="#Hd"/>
<use x="93.03" y="83.01" xlink:href="#sh0"/>
<path d="M99.53 83.01v36.00" stroke="currentColor" fill="none"/>
<use x="152.73" y="101.01" xlink:href="#hl"/>
<use x="152.73" y="95.01" xlink:href="#hl"/>
<use x="152.73" y="89.01" xlink:href="#hl"/>
<use x="152.73" y="83.01" xlink:href="#hl"/>
<use x="152.73" y="83.01" xlink:href="#hd"/>
<defs>
<path id="unat" fill="currentColor" d="
	m96 -750
	h-32
	v716
	l32 -8
	l182 -54
	v282
	h32
	v-706
	l-34 10
	l-180 50
	v-290
	m0 592
	v-190
	l182 -52
	v188"/>
<use id="nt0" transform="translate(-3,5) scale(0.018)"
	xlink:href="#unat"/>
</defs>
<use x="143.73" y="83.01" xlink:href="#nt0"/>
<path d="M149.23 83.01v36.00" stroke="currentColor" fill="none"/>
<path fill="currentColor"
	d="M149.23 119.01c0.6 -5.6 9.6 -9 5.6 -18.4
	c1.6 6 -1.3 11.6 -5.6 12.8
"/>
<use x="177.63" y="101.01" xlink:href="#hl"/>
<use x="177.63" y="95.01" xlink:href="#hl"/>
<use x="177.63" y="89.01" xlink:href="#hl"/>
<use x="177.63" y="86.01" xlink:href="#hd"/>
<path d="M174.13 86.01v33.00" stroke="currentColor" fill="none"/>
<path fill="currentColor"
	d="M174.13 119.01c0.6 -5.6 9.6 -9 5.6 -18.4
	c1.6 6 -1.3 11.6 -5.6 12.8
"/>
<use x="210.13" y="101.01" xlink:href="#hl"/>
<use x="210.13" y="95.01" xlink:href="#hl"/>
<use x="210.13" y="89.01" xlink:href="#hl"/>
<use x="210.13" y="89.01" xlink:href="#hd"/>
<path d="M206.63 89.01v30.00" stroke="currentColor" fill="none"/>
<use x="245.13" y="101.01" xlink:href="#hl"/>
<use x="245.13" y="95.01" xlink:href="#hl"/>
<use x="245.13" y="92.01" xlink:href="#Hd"/>
<path d="M241.63 92.01v27.00" stroke="currentColor" fill="none"/>
<use x="294.63" y="101.01" xlink:href="#hl"/>
<use x="294.63" y="95.01" xlink:href="#hl"/>
<use x="294.63" y="89.01" xlink:href="#hl"/>
<use x="294.63" y="89.01" xlink:href="#hd"/>
<path d="M291.13 89.01v30.00" stroke="currentColor" fill="none"/>
<path fill="currentColor"
	d="M291.13 119.01c0.6 -5.6 9.6 -9 5.6 -18.4
	c1.6 6 -1.3 11.6 -5.6 12.8
"/>
<use x="319.53" y="101.01" xlink:href="#hl"/>
<use x="319.53" y="95.01" xlink:href="#hl"/>
<use x="319.53" y="89.01" xlink:href="#hl"/>
<use x="319.53" y="86.01" xlink:href="#hd"/>
<path d="M316.03 86.01v33.00" stroke="currentColor" fill="none"/>
<path fill="currentColor"
	d="M316.03 119.01c0.6 -5.6 9.6 -9 5.6 -18.4
	c1.6 6 -1.3 11.6 -5.6 12.8
"/>
<use x="352.03" y="101.01" xlink:href="#hl"/>
<use x="352.03" y="95.01" xlink:href="#hl"/>
<use x="352.03" y="89.01" xlink:href="#hl"/>
<use x="352.03" y="83.01" xlink:href="#hl"/>
<use x="352.03" y="83.01" xlink:href="#hd"/>
<path d="M348.53 83.01v36.00" stroke="currentColor" fill="none"/>
<use x="387.03" y="101.01" xlink:href="#hl"/>
<use x="387.03" y="95.01" xlink:href="#hl"/>
<use x="387.03" y="89.01" xlink:href="#hl"/>
<use x="387.03" y="86.01" xlink:href="#hd"/>
<path d="M383.53 86.01v33.00" stroke="currentColor" fill="none"/>
<path fill="currentColor"
	d="M383.53 119.01c0.6 -5.6 9.6 -9 5.6 -18.4
	c1.6 6 -1.3 11.6 -5.6 12.8
"/>
<use x="411.93" y="101.01" xlink:href="#hl"/>
<use x="411.93" y="95.01" xlink:href="#hl"/>
<use x="411.93" y="89.01" xlink:href="#hl"/>
<use x="411.93" y="89.01" xlink:href="#hd"/>
<path d="M408.43 89.01v30.00" stroke="currentColor" fill="none"/>
<path fill="currentColor"
	d="M408.43 119.01c0.6 -5.6 9.6 -9 5.6 -18.4
	c1.6 6 -1.3 11.6 -5.6 12.8
"/>
<use x="436.83" y="101.01" xlink:href="#hl"/>
<use x="436.83" y="95.01" xlink:href="#hl"/>
<use x="436.83" y="92.01" xlink:href="#hd"/>
<path d="M433.33 92.01v27.00" stroke="currentColor" fill="none"/>
<use x="472.03" y="101.01" xlink:href="#hl"/>
<use x="472.03" y="95.01" xlink:href="#hl"/>
<use x="472.03" y="95.01" xlink:href="#hd"/>
<use x="463.03" y="95.01" xlink:href="#sh0"/>
<path d="M468.53 95.01v24.00" stroke="currentColor" fill="none"/>
<path fill="currentColor"
	d="M468.53 119.01c0.6 -5.6 9.6 -9 5.6 -18.4
	c1.6 6 -1.3 11.6 -5.6 12.8
"/>
<use x="496.83" y="101.01" xlink:href="#hl"/>
<use x="496.83" y="98.01" xlink:href="#hd"/>
<path d="M493.33 98.01v21.00" stroke="currentColor" fill="none"/>
<path fill="currentColor"
	d="M493.33 119.01c0.6 -5.6 9.6 -9 5.6 -18.4
	c1.6 6 -1.3 11.6 -5.6 12.8
"/>
<use x="535.33" y="101.01" xlink:href="#hl"/>
<use x="535.33" y="101.01" xlink:href="#hd"/>
<use x="526.33" y="101.01" xlink:href="#sh0"/>
<path d="M531.83 101.01v20.00" stroke="currentColor" fill="none"/>
<use x="570.53" y="104.01" xlink:href="#hd"/>
<use x="561.53" y="104.01" xlink:href="#sh0"/>
<path d="M567.03 104.01v20.00" stroke="currentColor" fill="none"/>
<path fill="currentColor"
	d="M567.03 124.01c0.6 -5.6 9.6 -9 5.6 -18.4
	c1.6 6 -1.3 11.6 -5.6 12.8
"/>
<use x="595.53" y="101.01" xlink:href="#hl"/>
<use x="595.53" y="101.01" xlink:href="#hd"/>
<use x="586.53" y="101.01" xlink:href="#sh0"/>
<path d="M592.03 101.01v20.00" stroke="currentColor" fill="none"/>
<path fill="currentColor"
	d="M592.03 121.01c0.6 -5.6 9.6 -9 5.6 -18.4
	c1.6 6 -1.3 11.6 -5.6 12.8
"/>
<use x="620.43" y="101.01" xlink:href="#hl"/>
<use x="620.43" y="98.01" xlink:href="#hd"/>
<path d="M616.93 98.01v21.00" stroke="currentColor" fill="none"/>
<path fill="currentColor"
	d="M616.93 119.01c0.6 -5.6 9.6 -9 5.6 -18.4
	c1.6 6 -1.3 11.6 -5.6 12.8
"/>
<use x="645.43" y="101.01" xlink:href="#hl"/>
<use x="645.43" y="95.01" xlink:href="#hl"/>
<use x="645.43" y="95.01" xlink:href="#hd"/>
<use x="636.43" y="95.01" xlink:href="#sh0"/>
<path d="M641.93 95.01v24.00" stroke="currentColor" fill="none"/>
<path fill="currentColor"
	d="M641.93 119.01c0.6 -5.6 9.6 -9 5.6 -18.4
	c1.6 6 -1.3 11.6 -5.6 12.8
"/>
<use x="670.33" y="101.01" xlink:href="#hl"/>
<use x="670.33" y="95.01" xlink:href="#hl"/>
<use x="670.33" y="92.01" xlink:href="#hd"/>
<path d="M666.83 92.01v27.00" stroke="currentColor" fill="none"/>
<path fill="currentColor"
	d="M666.83 119.01c0.6 -5.6 9.6 -9 5.6 -18.4
	c1.6 6 -1.3 11.6 -5.6 12.8
"/>
</g>
</svg>
