<?xml version="1.0" standalone="no"?>
<!DOCTYPE svg PUBLIC "-//W3C//DTD SVG 1.1//EN"
	"http://www.w3.org/Graphics/SVG/1.1/DTD/svg11.dtd">
<svg xmlns="http://www.w3.org/2000/svg" version="1.1"
	xmlns:xlink="http://www.w3.org/1999/xlink"
	xml:space='preserve' color="black"
	width="7.38in" height="1.79in" viewBox="0 0 531 129">
<title>9420.abc (9420) tune 1</title>
<!-- Creator: abcm2ps-7.8.14 -->
<!-- CreationDate: Mar 13, 2016 18:54 -->
<!-- CommandLine: -qxg 9420.abc -O ../svgs/9420.svg -->
<g transform="scale(0.750)" stroke-width="0.70" font-family="Times" font-size="20.00">
<text x="354.13" y="21.67" text-anchor="middle">9420.  Dance Symphony - 2nd. Mvt. - 2nd. Theme</text>
</g>
<g transform="scale(0.750)" stroke-width="0.70" font-family="Times" font-size="14.00" font-style="italic">
<text x="694.93" y="45.34" text-anchor="end">Aaron Copland</text>
</g>
<g transform="scale(0.525)" stroke-width="0.70" font-family="Times" font-size="14.00" font-style="italic">
<defs>
<ellipse id="hd" rx="4.1" ry="2.9"
	transform="rotate(-20)" fill="currentColor"/>
</defs>
<use x="97.76" y="94.16" xlink:href="#hd"/>
<path d="M101.26 94.16v-20.00" stroke="currentColor" fill="none"/>
</g>
<g transform="scale(0.750)" stroke-width="0.70" font-family="Times" font-size="15.00" font-weight="bold">
<text x="76.13" y="68.01">= 120</text>
<path stroke="currentColor" fill="none"
	d="M134.73 149.01v-24.00"/>
<path stroke="currentColor" fill="none"
	d="M214.23 149.01v-24.00"/>
<path stroke="currentColor" fill="none"
	d="M299.63 149.01v-24.00"/>
<path stroke="currentColor" fill="none"
	d="M396.03 149.01v-24.00"/>
<path stroke="currentColor" fill="none"
	d="M481.43 149.01v-24.00"/>
<path stroke="currentColor" fill="none"
	d="M577.83 149.01v-24.00"/>
<path stroke="currentColor" fill="none"
	d="M694.93 149.01v-24.00"/>
<path stroke="currentColor" fill="none"
	d="M13.33 149.01h681.60m-681.60 -6h681.60m-681.60 -6h681.60m-681.60 -6h681.60m-681.60 -6h681.60"/>
<defs>
<path id="utclef" fill="currentColor" d="m-50 -90
	c-72 -41 -72 -158 52 -188
	c150 -10 220 188 90 256
	c-114 52 -275 0 -293 -136
	c-15 -181 93 -229 220 -334
	c88 -87 79 -133 62 -210
	c-51 33 -94 105 -89 186
	c17 267 36 374 49 574
	c6 96 -19 134 -77 135
	c-80 1 -126 -93 -61 -133
	c85 -41 133 101 31 105
	c23 17 92 37 90 -92
	c-10 -223 -39 -342 -50 -617
	c0 -90 0 -162 96 -232
	c56 72 63 230 22 289
	c-74 106 -257 168 -255 316
	c9 153 148 185 252 133
	c86 -65 29 -192 -80 -176
	c-71 12 -105 67 -59 124"/>
<use id="tclef" transform="scale(0.045)"
	xlink:href="#utclef"/>
</defs>
<use x="25.33" y="149.01" xlink:href="#tclef"/>
<g font-family="serif" font-size="16" font-weight="bold" font-style="normal"
	transform="translate(43.83,149.01) scale(1.2,1)">
	<text y="-1" text-anchor="middle">4</text>
	<text y="-13" text-anchor="middle">3</text>
</g>
<defs>
<path id="hl" stroke="currentColor" d="m-6 0h12"/>
</defs>
<use x="67.83" y="119.01" xlink:href="#hl"/>
<use x="67.83" y="113.01" xlink:href="#hl"/>
<use x="67.83" y="107.01" xlink:href="#hl"/>
<use x="67.83" y="101.01" xlink:href="#hl"/>
<use x="67.83" y="95.01" xlink:href="#hl"/>
<use x="67.83" y="89.01" xlink:href="#hl"/>
<use x="67.83" y="83.01" xlink:href="#hl"/>
<use x="67.83" y="80.01" xlink:href="#hd"/>
<defs>
<path id="usharp" fill="currentColor" d="
	m136 -702
	v890
	h32
	v-890
	m128 840
	h32
	v-888
	h-32
	m-232 286
	v116
	l338 -96
	v-116
	m-338 442
	v116
	l338 -98
	v-114"/>
<use id="sh0" transform="translate(-4,5) scale(0.018)"
	xlink:href="#usharp"/>
</defs>
<use x="58.83" y="80.01" xlink:href="#sh0"/>
<path d="M64.33 80.01v57.00" stroke="currentColor" fill="none"/>
<use x="99.33" y="119.01" xlink:href="#hl"/>
<use x="99.33" y="113.01" xlink:href="#hl"/>
<use x="99.33" y="107.01" xlink:href="#hl"/>
<use x="99.33" y="101.01" xlink:href="#hl"/>
<use x="99.33" y="95.01" xlink:href="#hl"/>
<use x="99.33" y="89.01" xlink:href="#hl"/>
<defs>
<path id="Hd" fill="currentColor" d="m3 -1.6
	c-1 -1.8 -7 1.4 -6 3.2
	c1 1.8 7 -1.4 6 -3.2
	m0.5 -0.3
	c2 3.8 -5 7.6 -7 3.8
	c-2 -3.8 5 -7.6 7 -3.8"/>
</defs>
<use x="99.33" y="86.01" xlink:href="#Hd"/>
<path d="M95.83 86.01v51.00" stroke="currentColor" fill="none"/>
<use x="147.23" y="119.01" xlink:href="#hl"/>
<use x="147.23" y="113.01" xlink:href="#hl"/>
<use x="147.23" y="107.01" xlink:href="#hl"/>
<use x="147.23" y="101.01" xlink:href="#hl"/>
<use x="147.23" y="95.01" xlink:href="#hl"/>
<use x="147.23" y="89.01" xlink:href="#hl"/>
<use x="147.23" y="89.01" xlink:href="#hd"/>
<path d="M143.73 89.01v48.00" stroke="currentColor" fill="none"/>
<use x="178.73" y="119.01" xlink:href="#hl"/>
<use x="178.73" y="113.01" xlink:href="#hl"/>
<use x="178.73" y="107.01" xlink:href="#hl"/>
<use x="178.73" y="101.01" xlink:href="#hl"/>
<use x="178.73" y="95.01" xlink:href="#hl"/>
<use x="178.73" y="92.01" xlink:href="#Hd"/>
<path d="M175.23 92.01v45.00" stroke="currentColor" fill="none"/>
<use x="232.73" y="119.01" xlink:href="#hl"/>
<use x="232.73" y="113.01" xlink:href="#hl"/>
<use x="232.73" y="107.01" xlink:href="#hl"/>
<use x="232.73" y="101.01" xlink:href="#hl"/>
<use x="232.73" y="95.01" xlink:href="#hl"/>
<use x="232.73" y="89.01" xlink:href="#hl"/>
<use x="232.73" y="83.01" xlink:href="#hl"/>
<use x="232.73" y="80.01" xlink:href="#hd"/>
<use x="223.73" y="80.01" xlink:href="#sh0"/>
<path d="M229.23 80.01v57.00" stroke="currentColor" fill="none"/>
<use x="264.13" y="119.01" xlink:href="#hl"/>
<use x="264.13" y="113.01" xlink:href="#hl"/>
<use x="264.13" y="107.01" xlink:href="#hl"/>
<use x="264.13" y="101.01" xlink:href="#hl"/>
<use x="264.13" y="95.01" xlink:href="#hl"/>
<use x="264.13" y="89.01" xlink:href="#hl"/>
<use x="264.13" y="86.01" xlink:href="#Hd"/>
<path d="M260.63 86.01v51.00" stroke="currentColor" fill="none"/>
<use x="312.13" y="119.01" xlink:href="#hl"/>
<use x="312.13" y="113.01" xlink:href="#hl"/>
<use x="312.13" y="107.01" xlink:href="#hl"/>
<use x="312.13" y="101.01" xlink:href="#hl"/>
<use x="312.13" y="95.01" xlink:href="#hl"/>
<use x="312.13" y="89.01" xlink:href="#hl"/>
<use x="312.13" y="89.01" xlink:href="#hd"/>
<circle fill="currentColor" cx="320.13" cy="86.01" r="1.2"/>
<path d="M308.63 89.01v48.00" stroke="currentColor" fill="none"/>
<path fill="currentColor"
	d="M308.63 137.01c0.6 -5.6 9.6 -9 5.6 -18.4
	c1.6 6 -1.3 11.6 -5.6 12.8
"/>
<path fill="currentColor"
	d="M334.43 137.21l11.30 0.00v-3.20l-11.30 -0.00"/>
<path fill="currentColor"
	d="M334.73 132.21l10.60 0.00v-3.20l-10.60 -0.00"/>
<path fill="currentColor"
	d="M334.73 127.21l10.60 0.00v-3.20l-10.60 -0.00"/>
<use x="338.23" y="119.01" xlink:href="#hl"/>
<use x="338.23" y="113.01" xlink:href="#hl"/>
<use x="338.23" y="107.01" xlink:href="#hl"/>
<use x="338.23" y="101.01" xlink:href="#hl"/>
<use x="338.23" y="95.01" xlink:href="#hl"/>
<use x="338.23" y="89.01" xlink:href="#hl"/>
<use x="338.23" y="86.01" xlink:href="#hd"/>
<path d="M334.73 86.01v50.20" stroke="currentColor" fill="none"/>
<use x="348.83" y="119.01" xlink:href="#hl"/>
<use x="348.83" y="113.01" xlink:href="#hl"/>
<use x="348.83" y="107.01" xlink:href="#hl"/>
<use x="348.83" y="101.01" xlink:href="#hl"/>
<use x="348.83" y="95.01" xlink:href="#hl"/>
<use x="348.83" y="89.01" xlink:href="#hl"/>
<use x="348.83" y="89.01" xlink:href="#hd"/>
<path d="M345.33 89.01v47.20" stroke="currentColor" fill="none"/>
<use x="360.53" y="119.01" xlink:href="#hl"/>
<use x="360.53" y="113.01" xlink:href="#hl"/>
<use x="360.53" y="107.01" xlink:href="#hl"/>
<use x="360.53" y="101.01" xlink:href="#hl"/>
<use x="360.53" y="95.01" xlink:href="#hl"/>
<use x="360.53" y="92.01" xlink:href="#Hd"/>
<path d="M357.03 92.01v45.00" stroke="currentColor" fill="none"/>
<use x="414.53" y="119.01" xlink:href="#hl"/>
<use x="414.53" y="113.01" xlink:href="#hl"/>
<use x="414.53" y="107.01" xlink:href="#hl"/>
<use x="414.53" y="101.01" xlink:href="#hl"/>
<use x="414.53" y="95.01" xlink:href="#hl"/>
<use x="414.53" y="89.01" xlink:href="#hl"/>
<use x="414.53" y="83.01" xlink:href="#hl"/>
<use x="414.53" y="80.01" xlink:href="#hd"/>
<use x="405.53" y="80.01" xlink:href="#sh0"/>
<path d="M411.03 80.01v57.00" stroke="currentColor" fill="none"/>
<use x="445.93" y="119.01" xlink:href="#hl"/>
<use x="445.93" y="113.01" xlink:href="#hl"/>
<use x="445.93" y="107.01" xlink:href="#hl"/>
<use x="445.93" y="101.01" xlink:href="#hl"/>
<use x="445.93" y="95.01" xlink:href="#hl"/>
<use x="445.93" y="89.01" xlink:href="#hl"/>
<use x="445.93" y="86.01" xlink:href="#Hd"/>
<path d="M442.43 86.01v51.00" stroke="currentColor" fill="none"/>
<use x="493.93" y="119.01" xlink:href="#hl"/>
<use x="493.93" y="113.01" xlink:href="#hl"/>
<use x="493.93" y="107.01" xlink:href="#hl"/>
<use x="493.93" y="101.01" xlink:href="#hl"/>
<use x="493.93" y="95.01" xlink:href="#hl"/>
<use x="493.93" y="89.01" xlink:href="#hl"/>
<use x="493.93" y="89.01" xlink:href="#hd"/>
<circle fill="currentColor" cx="501.93" cy="86.01" r="1.2"/>
<path d="M490.43 89.01v48.00" stroke="currentColor" fill="none"/>
<path fill="currentColor"
	d="M490.43 137.01c0.6 -5.6 9.6 -9 5.6 -18.4
	c1.6 6 -1.3 11.6 -5.6 12.8
"/>
<path fill="currentColor"
	d="M516.23 137.21l11.30 0.00v-3.20l-11.30 -0.00"/>
<path fill="currentColor"
	d="M516.53 132.21l10.60 0.00v-3.20l-10.60 -0.00"/>
<path fill="currentColor"
	d="M516.53 127.21l10.60 0.00v-3.20l-10.60 -0.00"/>
<use x="520.03" y="119.01" xlink:href="#hl"/>
<use x="520.03" y="113.01" xlink:href="#hl"/>
<use x="520.03" y="107.01" xlink:href="#hl"/>
<use x="520.03" y="101.01" xlink:href="#hl"/>
<use x="520.03" y="95.01" xlink:href="#hl"/>
<use x="520.03" y="89.01" xlink:href="#hl"/>
<use x="520.03" y="86.01" xlink:href="#hd"/>
<path d="M516.53 86.01v50.20" stroke="currentColor" fill="none"/>
<use x="530.73" y="119.01" xlink:href="#hl"/>
<use x="530.73" y="113.01" xlink:href="#hl"/>
<use x="530.73" y="107.01" xlink:href="#hl"/>
<use x="530.73" y="101.01" xlink:href="#hl"/>
<use x="530.73" y="95.01" xlink:href="#hl"/>
<use x="530.73" y="89.01" xlink:href="#hl"/>
<use x="530.73" y="89.01" xlink:href="#hd"/>
<path d="M527.23 89.01v47.20" stroke="currentColor" fill="none"/>
<use x="542.43" y="119.01" xlink:href="#hl"/>
<use x="542.43" y="113.01" xlink:href="#hl"/>
<use x="542.43" y="107.01" xlink:href="#hl"/>
<use x="542.43" y="101.01" xlink:href="#hl"/>
<use x="542.43" y="95.01" xlink:href="#hl"/>
<use x="542.43" y="92.01" xlink:href="#Hd"/>
<path d="M538.93 92.01v45.00" stroke="currentColor" fill="none"/>
<use x="596.33" y="119.01" xlink:href="#hl"/>
<use x="596.33" y="113.01" xlink:href="#hl"/>
<use x="596.33" y="107.01" xlink:href="#hl"/>
<use x="596.33" y="101.01" xlink:href="#hl"/>
<use x="596.33" y="98.01" xlink:href="#hd"/>
<circle fill="currentColor" cx="604.33" cy="98.01" r="1.2"/>
<use x="587.33" y="98.01" xlink:href="#sh0"/>
<path d="M592.83 98.01v39.00" stroke="currentColor" fill="none"/>
<path fill="currentColor"
	d="M592.83 137.01c0.6 -5.6 9.6 -9 5.6 -18.4
	c1.6 6 -1.3 11.6 -5.6 12.8
"/>
<path fill="currentColor"
	d="M618.63 137.21l18.70 0.00v-3.20l-18.70 -0.00"/>
<path fill="currentColor"
	d="M618.93 132.21l18.00 0.00v-3.20l-18.00 -0.00"/>
<path fill="currentColor"
	d="M618.93 127.21l18.00 0.00v-3.20l-18.00 -0.00"/>
<use x="622.43" y="119.01" xlink:href="#hl"/>
<use x="622.43" y="113.01" xlink:href="#hl"/>
<use x="622.43" y="107.01" xlink:href="#hl"/>
<use x="622.43" y="101.01" xlink:href="#hl"/>
<use x="622.43" y="95.01" xlink:href="#hl"/>
<use x="622.43" y="92.01" xlink:href="#hd"/>
<path d="M618.93 92.01v44.20" stroke="currentColor" fill="none"/>
<use x="640.43" y="119.01" xlink:href="#hl"/>
<use x="640.43" y="113.01" xlink:href="#hl"/>
<use x="640.43" y="107.01" xlink:href="#hl"/>
<use x="640.43" y="101.01" xlink:href="#hl"/>
<use x="640.43" y="98.01" xlink:href="#hd"/>
<use x="631.43" y="98.01" xlink:href="#sh0"/>
<path d="M636.93 98.01v38.20" stroke="currentColor" fill="none"/>
<use x="659.43" y="119.01" xlink:href="#hl"/>
<use x="659.43" y="113.01" xlink:href="#hl"/>
<use x="659.43" y="107.01" xlink:href="#hl"/>
<use x="659.43" y="104.01" xlink:href="#Hd"/>
<use x="649.43" y="104.01" xlink:href="#sh0"/>
<path d="M655.93 104.01v33.00" stroke="currentColor" fill="none"/>
</g>
</svg>
