<?xml version="1.0" standalone="no"?>
<!DOCTYPE svg PUBLIC "-//W3C//DTD SVG 1.1//EN"
	"http://www.w3.org/Graphics/SVG/1.1/DTD/svg11.dtd">
<svg xmlns="http://www.w3.org/2000/svg" version="1.1"
	xmlns:xlink="http://www.w3.org/1999/xlink"
	xml:space='preserve' color="black"
	width="7.38in" height="1.52in" viewBox="0 0 531 110">
<title>9475.abc (9475) tune 1</title>
<!-- Creator: abcm2ps-7.8.14 -->
<!-- CreationDate: Mar 13, 2016 18:54 -->
<!-- CommandLine: -qxg 9475.abc -O ../svgs/9475.svg -->
<g transform="scale(0.750)" stroke-width="0.70" font-family="Times" font-size="20.00">
<text x="354.13" y="21.67" text-anchor="middle">9475.  Sonata Da Camera, B Flat, Op. 2, No. 5, 2 Vns., 2nd. Mvt. - Allemande</text>
</g>
<g transform="scale(0.750)" stroke-width="0.70" font-family="Times" font-size="14.00" font-style="italic">
<text x="694.93" y="45.34" text-anchor="end">Arcangelo Corelli</text>
</g>
<g transform="scale(0.525)" stroke-width="0.70" font-family="Times" font-size="14.00" font-style="italic">
<defs>
<ellipse id="hd" rx="4.1" ry="2.9"
	transform="rotate(-20)" fill="currentColor"/>
</defs>
<use x="107.76" y="94.16" xlink:href="#hd"/>
<path d="M111.26 94.16v-20.00" stroke="currentColor" fill="none"/>
</g>
<g transform="scale(0.750)" stroke-width="0.70" font-family="Times" font-size="15.00" font-weight="bold">
<text x="83.13" y="68.01">= 120</text>
<path stroke="currentColor" fill="none"
	d="M207.33 123.01v-24.00"/>
<path stroke="currentColor" fill="none"
	d="M395.03 123.01v-24.00"/>
<path stroke="currentColor" fill="none"
	d="M579.63 123.01v-24.00"/>
<path stroke="currentColor" fill="none"
	d="M13.33 123.01h681.60m-681.60 -6h681.60m-681.60 -6h681.60m-681.60 -6h681.60m-681.60 -6h681.60"/>
<defs>
<path id="utclef" fill="currentColor" d="m-50 -90
	c-72 -41 -72 -158 52 -188
	c150 -10 220 188 90 256
	c-114 52 -275 0 -293 -136
	c-15 -181 93 -229 220 -334
	c88 -87 79 -133 62 -210
	c-51 33 -94 105 -89 186
	c17 267 36 374 49 574
	c6 96 -19 134 -77 135
	c-80 1 -126 -93 -61 -133
	c85 -41 133 101 31 105
	c23 17 92 37 90 -92
	c-10 -223 -39 -342 -50 -617
	c0 -90 0 -162 96 -232
	c56 72 63 230 22 289
	c-74 106 -257 168 -255 316
	c9 153 148 185 252 133
	c86 -65 29 -192 -80 -176
	c-71 12 -105 67 -59 124"/>
<use id="tclef" transform="scale(0.045)"
	xlink:href="#utclef"/>
</defs>
<use x="25.33" y="123.01" xlink:href="#tclef"/>
<defs>
<path id="uflat" fill="currentColor" d="
	m100 -746
	h32
	v734
	l-32 4
	m32 -332
	c46 -72 152 -90 208 -20
	c100 110 -120 326 -208 348
	m0 -28
	c54 0 200 -206 130 -290
	c-50 -60 -130 -4 -130 34"/>
<use id="ft0" transform="translate(-3.5,3.5) scale(0.018)"
	xlink:href="#uflat"/>
</defs>
<use x="40.33" y="111.01" xlink:href="#ft0"/>
<g font-family="serif" font-size="16" font-weight="bold" font-style="normal"
	transform="translate(56.33,123.01) scale(1.2,1)">
	<text y="-1" text-anchor="middle">4</text>
	<text y="-13" text-anchor="middle">4</text>
</g>
<defs>
<path id="hl" stroke="currentColor" d="m-6 0h12"/>
</defs>
<use x="74.83" y="93.01" xlink:href="#hl"/>
<use x="74.83" y="87.01" xlink:href="#hl"/>
<use x="74.83" y="81.01" xlink:href="#hl"/>
<defs>
<path id="Hd" fill="currentColor" d="m3 -1.6
	c-1 -1.8 -7 1.4 -6 3.2
	c1 1.8 7 -1.4 6 -3.2
	m0.5 -0.3
	c2 3.8 -5 7.6 -7 3.8
	c-2 -3.8 5 -7.6 7 -3.8"/>
</defs>
<use x="74.83" y="78.01" xlink:href="#Hd"/>
<path d="M71.33 78.01v33.00" stroke="currentColor" fill="none"/>
<use x="130.93" y="93.01" xlink:href="#hl"/>
<use x="130.93" y="90.01" xlink:href="#hd"/>
<circle fill="currentColor" cx="138.93" cy="90.01" r="1.2"/>
<path d="M127.43 90.01v21.00" stroke="currentColor" fill="none"/>
<defs>
<path id="r8e" fill="currentColor" d="m 0 0
	c-1.5 1.5 -2.4 2 -3.6 2
	c2.4 -2.8 -2.8 -4 -2.8 -1.2
	c0 2.7 4.3 2.4 5.9 0.6"/>
<g id="r16">
	<path d="m3.3 -4l-4 15.6" stroke="currentColor" fill="none"/>
	<use x="3.4" y="-4" xlink:href="#r8e"/>
	<use x="1.9" y="2" xlink:href="#r8e"/>
</g>
</defs>
<use x="171.63" y="111.01" xlink:href="#r16"/>
<use x="191.43" y="93.01" xlink:href="#hl"/>
<use x="191.43" y="90.01" xlink:href="#hd"/>
<path d="M187.93 90.01v22.00" stroke="currentColor" fill="none"/>
<path fill="currentColor"
	d="M187.93 112.01c0.9 -3.7 9.1 -6.4 6 -12.4
	c1 5.4 -4.2 8.4 -6 8.4
M187.93 106.61c0.9 -3.7 9.1 -6.4 6 -12.4
	c1 5.4 -4.2 8.4 -6 8.4
"/>
<path fill="currentColor"
	d="M217.53 113.01l122.80 0.00v-3.20l-122.80 -0.00"/>
<path fill="currentColor"
	d="M240.63 108.01l6.00 0.00v-3.20l-6.00 -0.00"/>
<path fill="currentColor"
	d="M287.33 108.01l6.00 0.00v-3.20l-6.00 -0.00"/>
<path fill="currentColor"
	d="M334.03 108.01l6.00 0.00v-3.20l-6.00 -0.00"/>
<use x="221.33" y="93.01" xlink:href="#hl"/>
<use x="221.33" y="87.01" xlink:href="#hl"/>
<use x="221.33" y="87.01" xlink:href="#hd"/>
<circle fill="currentColor" cx="229.33" cy="84.01" r="1.2"/>
<path d="M217.83 87.01v25.00" stroke="currentColor" fill="none"/>
<use x="250.13" y="93.01" xlink:href="#hl"/>
<use x="250.13" y="87.01" xlink:href="#hl"/>
<use x="250.13" y="84.01" xlink:href="#hd"/>
<path d="M246.63 84.01v28.00" stroke="currentColor" fill="none"/>
<use x="268.13" y="93.01" xlink:href="#hl"/>
<use x="268.13" y="87.01" xlink:href="#hl"/>
<use x="268.13" y="81.01" xlink:href="#hl"/>
<use x="268.13" y="81.01" xlink:href="#hd"/>
<circle fill="currentColor" cx="276.13" cy="78.01" r="1.2"/>
<use x="259.13" y="81.01" xlink:href="#ft0"/>
<path d="M264.63 81.01v31.00" stroke="currentColor" fill="none"/>
<use x="296.83" y="93.01" xlink:href="#hl"/>
<use x="296.83" y="87.01" xlink:href="#hl"/>
<use x="296.83" y="81.01" xlink:href="#hl"/>
<use x="296.83" y="78.01" xlink:href="#hd"/>
<path d="M293.33 78.01v34.00" stroke="currentColor" fill="none"/>
<use x="314.73" y="93.01" xlink:href="#hl"/>
<use x="314.73" y="87.01" xlink:href="#hl"/>
<use x="314.73" y="84.01" xlink:href="#hd"/>
<circle fill="currentColor" cx="322.73" cy="84.01" r="1.2"/>
<path d="M311.23 84.01v28.00" stroke="currentColor" fill="none"/>
<use x="343.53" y="93.01" xlink:href="#hl"/>
<use x="343.53" y="90.01" xlink:href="#hd"/>
<path d="M340.03 90.01v22.00" stroke="currentColor" fill="none"/>
<use x="363.33" y="93.01" xlink:href="#hl"/>
<use x="363.33" y="87.01" xlink:href="#hl"/>
<use x="363.33" y="81.01" xlink:href="#hl"/>
<use x="363.33" y="75.01" xlink:href="#hl"/>
<use x="363.33" y="69.01" xlink:href="#hl"/>
<use x="363.33" y="69.01" xlink:href="#hd"/>
<path d="M359.83 69.01v42.00" stroke="currentColor" fill="none"/>
<use x="409.13" y="93.01" xlink:href="#hl"/>
<use x="409.13" y="87.01" xlink:href="#hl"/>
<use x="409.13" y="81.01" xlink:href="#hl"/>
<use x="409.13" y="75.01" xlink:href="#hl"/>
<use x="409.13" y="69.01" xlink:href="#hl"/>
<use x="409.13" y="69.01" xlink:href="#hd"/>
<path d="M405.63 69.01v42.00" stroke="currentColor" fill="none"/>
<use x="448.73" y="93.01" xlink:href="#hl"/>
<use x="448.73" y="87.01" xlink:href="#hl"/>
<use x="448.73" y="81.01" xlink:href="#hl"/>
<use x="448.73" y="75.01" xlink:href="#hl"/>
<use x="448.73" y="72.01" xlink:href="#hd"/>
<path d="M445.23 72.01v39.00" stroke="currentColor" fill="none"/>
<path fill="currentColor"
	d="M484.63 113.01l76.10 0.00v-3.20l-76.10 -0.00"/>
<path fill="currentColor"
	d="M507.73 108.01l6.00 0.00v-3.20l-6.00 -0.00"/>
<path fill="currentColor"
	d="M554.33 108.01l6.00 0.00v-3.20l-6.00 -0.00"/>
<use x="488.43" y="93.01" xlink:href="#hl"/>
<use x="488.43" y="87.01" xlink:href="#hl"/>
<use x="488.43" y="81.01" xlink:href="#hl"/>
<use x="488.43" y="75.01" xlink:href="#hl"/>
<use x="488.43" y="69.01" xlink:href="#hl"/>
<use x="488.43" y="69.01" xlink:href="#hd"/>
<circle fill="currentColor" cx="496.43" cy="66.01" r="1.2"/>
<path d="M484.93 69.01v43.00" stroke="currentColor" fill="none"/>
<use x="517.23" y="93.01" xlink:href="#hl"/>
<use x="517.23" y="87.01" xlink:href="#hl"/>
<use x="517.23" y="84.01" xlink:href="#hd"/>
<path d="M513.73 84.01v28.00" stroke="currentColor" fill="none"/>
<use x="535.03" y="93.01" xlink:href="#hl"/>
<use x="535.03" y="87.01" xlink:href="#hl"/>
<use x="535.03" y="87.01" xlink:href="#hd"/>
<circle fill="currentColor" cx="543.03" cy="84.01" r="1.2"/>
<path d="M531.53 87.01v25.00" stroke="currentColor" fill="none"/>
<use x="563.83" y="93.01" xlink:href="#hl"/>
<use x="563.83" y="90.01" xlink:href="#hd"/>
<path d="M560.33 90.01v22.00" stroke="currentColor" fill="none"/>
<use x="599.13" y="93.01" xlink:href="#hl"/>
<use x="599.13" y="87.01" xlink:href="#hl"/>
<use x="599.13" y="81.01" xlink:href="#hl"/>
<use x="599.13" y="81.01" xlink:href="#Hd"/>
<use x="589.13" y="81.01" xlink:href="#ft0"/>
<path d="M595.63 81.01v30.00" stroke="currentColor" fill="none"/>
<use x="655.33" y="93.01" xlink:href="#hl"/>
<use x="655.33" y="87.01" xlink:href="#hl"/>
<use x="655.33" y="84.01" xlink:href="#hd"/>
<path d="M651.83 84.01v27.00" stroke="currentColor" fill="none"/>
<path fill="currentColor"
	d="M366.83 69.01c6.11 -5.20 32.67 -5.20 38.78 -0.00
	l0.00 -0.24c-7.27 -6.96 -31.51 -6.96 -38.78 0.24"/>
</g>
</svg>
