<?xml version="1.0" standalone="no"?>
<!DOCTYPE svg PUBLIC "-//W3C//DTD SVG 1.1//EN"
	"http://www.w3.org/Graphics/SVG/1.1/DTD/svg11.dtd">
<svg xmlns="http://www.w3.org/2000/svg" version="1.1"
	xmlns:xlink="http://www.w3.org/1999/xlink"
	xml:space='preserve' color="black"
	width="7.38in" height="1.49in" viewBox="0 0 531 107">
<title>9503.abc (9503) tune 1</title>
<!-- Creator: abcm2ps-7.8.14 -->
<!-- CreationDate: Mar 13, 2016 18:54 -->
<!-- CommandLine: -qxg 9503.abc -O ../svgs/9503.svg -->
<g transform="scale(0.750)" stroke-width="0.70" font-family="Times" font-size="20.00">
<text x="354.13" y="21.67" text-anchor="middle">9503.  Concert No. 9 in E, Ritratto Dell, &quot;Amore&quot; - 1st. Mvt., Le Charme</text>
</g>
<g transform="scale(0.750)" stroke-width="0.70" font-family="Times" font-size="14.00" font-style="italic">
<text x="694.93" y="45.34" text-anchor="end">Francois Couperin</text>
</g>
<g transform="scale(0.525)" stroke-width="0.70" font-family="Times" font-size="14.00" font-style="italic">
<defs>
<ellipse id="hd" rx="4.1" ry="2.9"
	transform="rotate(-20)" fill="currentColor"/>
</defs>
<use x="130.61" y="94.16" xlink:href="#hd"/>
<path d="M134.11 94.16v-20.00" stroke="currentColor" fill="none"/>
</g>
<g transform="scale(0.750)" stroke-width="0.70" font-family="Times" font-size="15.00" font-weight="bold">
<text x="99.13" y="68.01">= 120</text>
<path stroke="currentColor" fill="none"
	d="M323.53 120.01v-24.00"/>
<path stroke="currentColor" fill="none"
	d="M641.13 120.01v-24.00"/>
<path stroke="currentColor" fill="none"
	d="M13.33 120.01h681.60m-681.60 -6h681.60m-681.60 -6h681.60m-681.60 -6h681.60m-681.60 -6h681.60"/>
<text font-family="serif" font-size="12" font-style="italic" font-weight="normal"
	x="262.33" y="125.01" text-anchor="middle">3</text>
<defs>
<path id="utclef" fill="currentColor" d="m-50 -90
	c-72 -41 -72 -158 52 -188
	c150 -10 220 188 90 256
	c-114 52 -275 0 -293 -136
	c-15 -181 93 -229 220 -334
	c88 -87 79 -133 62 -210
	c-51 33 -94 105 -89 186
	c17 267 36 374 49 574
	c6 96 -19 134 -77 135
	c-80 1 -126 -93 -61 -133
	c85 -41 133 101 31 105
	c23 17 92 37 90 -92
	c-10 -223 -39 -342 -50 -617
	c0 -90 0 -162 96 -232
	c56 72 63 230 22 289
	c-74 106 -257 168 -255 316
	c9 153 148 185 252 133
	c86 -65 29 -192 -80 -176
	c-71 12 -105 67 -59 124"/>
<use id="tclef" transform="scale(0.045)"
	xlink:href="#utclef"/>
</defs>
<use x="25.33" y="120.01" xlink:href="#tclef"/>
<defs>
<path id="usharp" fill="currentColor" d="
	m136 -702
	v890
	h32
	v-890
	m128 840
	h32
	v-888
	h-32
	m-232 286
	v116
	l338 -96
	v-116
	m-338 442
	v116
	l338 -98
	v-114"/>
<use id="sh0" transform="translate(-4,5) scale(0.018)"
	xlink:href="#usharp"/>
</defs>
<use x="40.33" y="96.01" xlink:href="#sh0"/>
<use x="45.83" y="105.01" xlink:href="#sh0"/>
<use x="51.33" y="93.01" xlink:href="#sh0"/>
<use x="56.83" y="102.01" xlink:href="#sh0"/>
<g font-family="serif" font-size="16" font-weight="bold" font-style="normal"
	transform="translate(72.83,120.01) scale(1.2,1)">
	<text y="-1" text-anchor="middle">4</text>
	<text y="-13" text-anchor="middle">4</text>
</g>
<defs>
<path id="r4" fill="currentColor" d="m-1 -8.5
	l3.6 5.1 -2.1 5.2 2.2 4.3
	c-2.6 -2.3 -5.1 0 -2.4 2.6
	c-4.8 -3 -1.5 -6.9 1.4 -4.1
	l-3.1 -4.5 1.9 -5.1 -1.5 -3.5"/>
</defs>
<use x="90.83" y="108.01" xlink:href="#r4"/>
<circle fill="currentColor" cx="98.83" cy="105.01" r="1.2"/>
<path fill="currentColor"
	d="M134.93 108.21l19.60 0.00v-3.20l-19.60 -0.00"/>
<path fill="currentColor"
	d="M135.33 103.21l19.00 0.00v-3.20l-19.00 -0.00"/>
<defs>
<path id="hl" stroke="currentColor" d="m-6 0h12"/>
</defs>
<use x="138.83" y="90.01" xlink:href="#hl"/>
<use x="138.83" y="84.01" xlink:href="#hl"/>
<use x="138.83" y="78.01" xlink:href="#hl"/>
<use x="138.83" y="78.01" xlink:href="#hd"/>
<path d="M135.33 78.01v29.20" stroke="currentColor" fill="none"/>
<use x="157.73" y="90.01" xlink:href="#hl"/>
<use x="157.73" y="84.01" xlink:href="#hl"/>
<use x="157.73" y="81.01" xlink:href="#hd"/>
<path d="M154.23 81.01v26.20" stroke="currentColor" fill="none"/>
<use x="178.83" y="90.01" xlink:href="#hl"/>
<use x="178.83" y="84.01" xlink:href="#hl"/>
<use x="178.83" y="78.01" xlink:href="#hl"/>
<use x="178.83" y="78.01" xlink:href="#hd"/>
<path d="M175.33 78.01v30.00" stroke="currentColor" fill="none"/>
<path fill="currentColor"
	d="M175.33 108.01c0.6 -5.6 9.6 -9 5.6 -18.4
	c1.6 6 -1.3 11.6 -5.6 12.8
"/>
<use x="208.63" y="90.01" xlink:href="#hl"/>
<use x="208.63" y="84.01" xlink:href="#hl"/>
<use x="208.63" y="78.01" xlink:href="#hl"/>
<use x="208.63" y="75.01" xlink:href="#hd"/>
<path d="M205.13 75.01v33.00" stroke="currentColor" fill="none"/>
<path fill="currentColor"
	d="M205.13 108.01c0.6 -5.6 9.6 -9 5.6 -18.4
	c1.6 6 -1.3 11.6 -5.6 12.8
"/>
<use x="238.43" y="90.01" xlink:href="#hl"/>
<use x="238.43" y="84.01" xlink:href="#hl"/>
<use x="238.43" y="78.01" xlink:href="#hl"/>
<use x="238.43" y="72.01" xlink:href="#hl"/>
<use x="238.43" y="72.01" xlink:href="#hd"/>
<path d="M234.93 72.01v36.00" stroke="currentColor" fill="none"/>
<path fill="currentColor"
	d="M234.93 108.01c0.9 -3.7 9.1 -6.4 6 -12.4
	c1 5.4 -4.2 8.4 -6 8.4
M234.93 102.61c0.9 -3.7 9.1 -6.4 6 -12.4
	c1 5.4 -4.2 8.4 -6 8.4
M234.93 97.21c0.9 -3.7 9.1 -6.4 6 -12.4
	c1 5.4 -4.2 8.4 -6 8.4
"/>
<path fill="currentColor"
	d="M249.53 108.21l54.00 0.00v-3.20l-54.00 -0.00"/>
<path fill="currentColor"
	d="M249.83 103.21l53.30 0.00v-3.20l-53.30 -0.00"/>
<path fill="currentColor"
	d="M249.83 98.21l21.20 0.00v-3.20l-21.20 -0.00"/>
<use x="253.33" y="90.01" xlink:href="#hl"/>
<use x="253.33" y="84.01" xlink:href="#hl"/>
<use x="253.33" y="78.01" xlink:href="#hl"/>
<use x="253.33" y="75.01" xlink:href="#hd"/>
<path d="M249.83 75.01v32.20" stroke="currentColor" fill="none"/>
<use x="263.93" y="90.01" xlink:href="#hl"/>
<use x="263.93" y="84.01" xlink:href="#hl"/>
<use x="263.93" y="78.01" xlink:href="#hl"/>
<use x="263.93" y="72.01" xlink:href="#hl"/>
<use x="263.93" y="72.01" xlink:href="#hd"/>
<path d="M260.43 72.01v35.20" stroke="currentColor" fill="none"/>
<use x="274.53" y="90.01" xlink:href="#hl"/>
<use x="274.53" y="84.01" xlink:href="#hl"/>
<use x="274.53" y="78.01" xlink:href="#hl"/>
<use x="274.53" y="72.01" xlink:href="#hl"/>
<use x="274.53" y="69.01" xlink:href="#hd"/>
<path d="M271.03 69.01v38.20" stroke="currentColor" fill="none"/>
<use x="285.13" y="90.01" xlink:href="#hl"/>
<use x="285.13" y="84.01" xlink:href="#hl"/>
<use x="285.13" y="78.01" xlink:href="#hl"/>
<use x="285.13" y="72.01" xlink:href="#hl"/>
<use x="285.13" y="72.01" xlink:href="#hd"/>
<circle fill="currentColor" cx="293.13" cy="69.01" r="1.2"/>
<path d="M281.63 72.01v35.20" stroke="currentColor" fill="none"/>
<use x="306.73" y="90.01" xlink:href="#hl"/>
<use x="306.73" y="84.01" xlink:href="#hl"/>
<use x="306.73" y="78.01" xlink:href="#hl"/>
<use x="306.73" y="72.01" xlink:href="#hl"/>
<use x="306.73" y="69.01" xlink:href="#hd"/>
<path d="M303.23 69.01v38.20" stroke="currentColor" fill="none"/>
<defs>
<path id="r8e" fill="currentColor" d="m 0 0
	c-1.5 1.5 -2.4 2 -3.6 2
	c2.4 -2.8 -2.8 -4 -2.8 -1.2
	c0 2.7 4.3 2.4 5.9 0.6"/>
<g id="r32">
	<path d="m4.8 -10l-5.5 21.6" stroke="currentColor" fill="none"/>
	<use x="4.9" y="-10" xlink:href="#r8e"/>
	<use x="3.4" y="-4" xlink:href="#r8e"/>
	<use x="1.9" y="2" xlink:href="#r8e"/>
</g>
</defs>
<use x="338.43" y="108.01" xlink:href="#r32"/>
<use x="351.83" y="108.01" xlink:href="#r32"/>
<use x="366.73" y="90.01" xlink:href="#hl"/>
<use x="366.73" y="84.01" xlink:href="#hl"/>
<use x="366.73" y="78.01" xlink:href="#hl"/>
<use x="366.73" y="72.01" xlink:href="#hl"/>
<use x="366.73" y="72.01" xlink:href="#hd"/>
<path d="M363.23 72.01v36.00" stroke="currentColor" fill="none"/>
<path fill="currentColor"
	d="M363.23 108.01c0.9 -3.7 9.1 -6.4 6 -12.4
	c1 5.4 -4.2 8.4 -6 8.4
M363.23 102.61c0.9 -3.7 9.1 -6.4 6 -12.4
	c1 5.4 -4.2 8.4 -6 8.4
"/>
<use x="385.73" y="108.01" xlink:href="#r32"/>
<use x="400.63" y="90.01" xlink:href="#hl"/>
<use x="400.63" y="84.01" xlink:href="#hl"/>
<use x="400.63" y="78.01" xlink:href="#hl"/>
<use x="400.63" y="78.01" xlink:href="#hd"/>
<circle fill="currentColor" cx="408.63" cy="75.01" r="1.2"/>
<path d="M397.13 78.01v30.00" stroke="currentColor" fill="none"/>
<path fill="currentColor"
	d="M397.13 108.01c0.9 -3.7 9.1 -6.4 6 -12.4
	c1 5.4 -4.2 8.4 -6 8.4
M397.13 102.61c0.9 -3.7 9.1 -6.4 6 -12.4
	c1 5.4 -4.2 8.4 -6 8.4
"/>
<defs>
<g id="r8">
	<path d="m3.3 -4l-3.4 9.6" stroke="currentColor" fill="none"/>
	<use x="3.4" y="-4" xlink:href="#r8e"/>
</g>
</defs>
<use x="422.23" y="108.01" xlink:href="#r8"/>
<path fill="currentColor"
	d="M448.13 108.21l19.60 0.00v-3.20l-19.60 -0.00"/>
<path fill="currentColor"
	d="M448.53 103.21l19.00 0.00v-3.20l-19.00 -0.00"/>
<use x="452.03" y="90.01" xlink:href="#hl"/>
<use x="452.03" y="84.01" xlink:href="#hl"/>
<use x="452.03" y="78.01" xlink:href="#hl"/>
<use x="452.03" y="78.01" xlink:href="#hd"/>
<path d="M448.53 78.01v29.20" stroke="currentColor" fill="none"/>
<use x="470.93" y="90.01" xlink:href="#hl"/>
<use x="470.93" y="84.01" xlink:href="#hl"/>
<use x="470.93" y="81.01" xlink:href="#hd"/>
<path d="M467.43 81.01v26.20" stroke="currentColor" fill="none"/>
<use x="489.93" y="108.01" xlink:href="#r32"/>
<use x="503.33" y="108.01" xlink:href="#r32"/>
<use x="518.23" y="90.01" xlink:href="#hl"/>
<use x="518.23" y="84.01" xlink:href="#hl"/>
<use x="518.23" y="84.01" xlink:href="#hd"/>
<path d="M514.73 84.01v24.00" stroke="currentColor" fill="none"/>
<path fill="currentColor"
	d="M514.73 108.01c0.9 -3.7 9.1 -6.4 6 -12.4
	c1 5.4 -4.2 8.4 -6 8.4
M514.73 102.61c0.9 -3.7 9.1 -6.4 6 -12.4
	c1 5.4 -4.2 8.4 -6 8.4
"/>
<use x="539.33" y="90.01" xlink:href="#hl"/>
<use x="539.33" y="87.01" xlink:href="#hd"/>
<path d="M535.83 87.01v21.00" stroke="currentColor" fill="none"/>
<path fill="currentColor"
	d="M535.83 108.01c0.6 -5.6 9.6 -9 5.6 -18.4
	c1.6 6 -1.3 11.6 -5.6 12.8
"/>
<use x="569.13" y="90.01" xlink:href="#hl"/>
<use x="569.13" y="84.01" xlink:href="#hl"/>
<use x="569.13" y="84.01" xlink:href="#hd"/>
<path d="M565.63 84.01v24.00" stroke="currentColor" fill="none"/>
<path fill="currentColor"
	d="M565.63 108.01c0.6 -5.6 9.6 -9 5.6 -18.4
	c1.6 6 -1.3 11.6 -5.6 12.8
"/>
<use x="595.93" y="108.01" xlink:href="#r32"/>
<use x="609.33" y="108.01" xlink:href="#r32"/>
<use x="624.33" y="90.01" xlink:href="#hl"/>
<use x="624.33" y="84.01" xlink:href="#hl"/>
<use x="624.33" y="81.01" xlink:href="#hd"/>
<path d="M620.83 81.01v27.00" stroke="currentColor" fill="none"/>
<path fill="currentColor"
	d="M620.83 108.01c0.9 -3.7 9.1 -6.4 6 -12.4
	c1 5.4 -4.2 8.4 -6 8.4
M620.83 102.61c0.9 -3.7 9.1 -6.4 6 -12.4
	c1 5.4 -4.2 8.4 -6 8.4
"/>
<use x="656.03" y="108.01" xlink:href="#r32"/>
<use x="670.93" y="90.01" xlink:href="#hl"/>
<use x="670.93" y="84.01" xlink:href="#hl"/>
<use x="670.93" y="78.01" xlink:href="#hl"/>
<use x="670.93" y="78.01" xlink:href="#hd"/>
<circle fill="currentColor" cx="678.93" cy="75.01" r="1.2"/>
<path d="M667.43 78.01v30.00" stroke="currentColor" fill="none"/>
<path fill="currentColor"
	d="M667.43 108.01c0.9 -3.7 9.1 -6.4 6 -12.4
	c1 5.4 -4.2 8.4 -6 8.4
M667.43 102.61c0.9 -3.7 9.1 -6.4 6 -12.4
	c1 5.4 -4.2 8.4 -6 8.4
"/>
</g>
</svg>
