<?xml version="1.0" standalone="no"?>
<!DOCTYPE svg PUBLIC "-//W3C//DTD SVG 1.1//EN"
	"http://www.w3.org/Graphics/SVG/1.1/DTD/svg11.dtd">
<svg xmlns="http://www.w3.org/2000/svg" version="1.1"
	xmlns:xlink="http://www.w3.org/1999/xlink"
	xml:space='preserve' color="black"
	width="7.38in" height="1.55in" viewBox="0 0 531 112">
<title>9509.abc (9509) tune 1</title>
<!-- Creator: abcm2ps-7.8.14 -->
<!-- CreationDate: Mar 13, 2016 18:54 -->
<!-- CommandLine: -qxg 9509.abc -O ../svgs/9509.svg -->
<g transform="scale(0.750)" stroke-width="0.70" font-family="Times" font-size="20.00">
<text x="354.13" y="21.67" text-anchor="middle">9509.  Concert No. 9 in E, Ritratto Dell, &quot;Amore&quot; - 7th. Mvt., La Douceur</text>
</g>
<g transform="scale(0.750)" stroke-width="0.70" font-family="Times" font-size="14.00" font-style="italic">
<text x="694.93" y="45.34" text-anchor="end">Francois Couperin</text>
</g>
<g transform="scale(0.525)" stroke-width="0.70" font-family="Times" font-size="14.00" font-style="italic">
<defs>
<ellipse id="hd" rx="4.1" ry="2.9"
	transform="rotate(-20)" fill="currentColor"/>
</defs>
<use x="107.04" y="94.16" xlink:href="#hd"/>
<path d="M110.54 94.16v-20.00" stroke="currentColor" fill="none"/>
</g>
<g transform="scale(0.750)" stroke-width="0.70" font-family="Times" font-size="15.00" font-weight="bold">
<text x="82.63" y="68.01">= 120</text>
<path stroke="currentColor" fill="none"
	d="M158.93 126.01v-24.00"/>
<path stroke="currentColor" fill="none"
	d="M241.03 126.01v-24.00"/>
<path stroke="currentColor" fill="none"
	d="M356.63 126.01v-24.00"/>
<path stroke="currentColor" fill="none"
	d="M463.93 126.01v-24.00"/>
<path stroke="currentColor" fill="none"
	d="M559.93 126.01v-24.00"/>
<path stroke="currentColor" fill="none"
	d="M664.83 126.01v-24.00"/>
<path stroke="currentColor" fill="none"
	d="M13.33 126.01h681.60m-681.60 -6h681.60m-681.60 -6h681.60m-681.60 -6h681.60m-681.60 -6h681.60"/>
<defs>
<path id="utclef" fill="currentColor" d="m-50 -90
	c-72 -41 -72 -158 52 -188
	c150 -10 220 188 90 256
	c-114 52 -275 0 -293 -136
	c-15 -181 93 -229 220 -334
	c88 -87 79 -133 62 -210
	c-51 33 -94 105 -89 186
	c17 267 36 374 49 574
	c6 96 -19 134 -77 135
	c-80 1 -126 -93 -61 -133
	c85 -41 133 101 31 105
	c23 17 92 37 90 -92
	c-10 -223 -39 -342 -50 -617
	c0 -90 0 -162 96 -232
	c56 72 63 230 22 289
	c-74 106 -257 168 -255 316
	c9 153 148 185 252 133
	c86 -65 29 -192 -80 -176
	c-71 12 -105 67 -59 124"/>
<use id="tclef" transform="scale(0.045)"
	xlink:href="#utclef"/>
</defs>
<use x="25.33" y="126.01" xlink:href="#tclef"/>
<defs>
<path id="usharp" fill="currentColor" d="
	m136 -702
	v890
	h32
	v-890
	m128 840
	h32
	v-888
	h-32
	m-232 286
	v116
	l338 -96
	v-116
	m-338 442
	v116
	l338 -98
	v-114"/>
<use id="sh0" transform="translate(-4,5) scale(0.018)"
	xlink:href="#usharp"/>
</defs>
<use x="40.33" y="102.01" xlink:href="#sh0"/>
<g font-family="serif" font-size="16" font-weight="bold" font-style="normal"
	transform="translate(56.33,126.01) scale(1.2,1)">
	<text y="-1" text-anchor="middle">8</text>
	<text y="-13" text-anchor="middle">3</text>
</g>
<path fill="currentColor"
	d="M70.53 114.21l16.60 0.00v-3.20l-16.60 -0.00"/>
<path fill="currentColor"
	d="M76.83 109.21l-6.00 -0.00v-3.20l6.00 0.00"/>
<defs>
<path id="hl" stroke="currentColor" d="m-6 0h12"/>
</defs>
<use x="74.33" y="96.01" xlink:href="#hl"/>
<use x="74.33" y="90.01" xlink:href="#hl"/>
<use x="74.33" y="84.01" xlink:href="#hl"/>
<use x="74.33" y="78.01" xlink:href="#hl"/>
<use x="74.33" y="78.01" xlink:href="#hd"/>
<path d="M70.83 78.01v35.20" stroke="currentColor" fill="none"/>
<use x="90.23" y="96.01" xlink:href="#hl"/>
<use x="90.23" y="90.01" xlink:href="#hl"/>
<use x="90.23" y="84.01" xlink:href="#hl"/>
<use x="90.23" y="81.01" xlink:href="#hd"/>
<path d="M86.73 81.01v32.20" stroke="currentColor" fill="none"/>
<use x="115.03" y="96.01" xlink:href="#hl"/>
<use x="115.03" y="90.01" xlink:href="#hl"/>
<use x="115.03" y="84.01" xlink:href="#hl"/>
<use x="115.03" y="84.01" xlink:href="#hd"/>
<path d="M111.53 84.01v30.00" stroke="currentColor" fill="none"/>
<path fill="currentColor"
	d="M111.53 114.01c0.6 -5.6 9.6 -9 5.6 -18.4
	c1.6 6 -1.3 11.6 -5.6 12.8
"/>
<defs>
<path id="r8e" fill="currentColor" d="m 0 0
	c-1.5 1.5 -2.4 2 -3.6 2
	c2.4 -2.8 -2.8 -4 -2.8 -1.2
	c0 2.7 4.3 2.4 5.9 0.6"/>
<g id="r32">
	<path d="m4.8 -10l-5.5 21.6" stroke="currentColor" fill="none"/>
	<use x="4.9" y="-10" xlink:href="#r8e"/>
	<use x="3.4" y="-4" xlink:href="#r8e"/>
	<use x="1.9" y="2" xlink:href="#r8e"/>
</g>
</defs>
<use x="137.33" y="114.01" xlink:href="#r32"/>
<use x="148.73" y="114.01" xlink:href="#r32"/>
<path fill="currentColor"
	d="M173.53 114.21l16.60 0.00v-3.20l-16.60 -0.00"/>
<path fill="currentColor"
	d="M179.93 109.21l-6.00 -0.00v-3.20l6.00 0.00"/>
<use x="177.43" y="96.01" xlink:href="#hl"/>
<use x="177.43" y="90.01" xlink:href="#hl"/>
<use x="177.43" y="87.01" xlink:href="#hd"/>
<use x="168.43" y="87.01" xlink:href="#sh0"/>
<path d="M173.93 87.01v26.20" stroke="currentColor" fill="none"/>
<use x="193.33" y="96.01" xlink:href="#hl"/>
<use x="193.33" y="90.01" xlink:href="#hl"/>
<use x="193.33" y="84.01" xlink:href="#hl"/>
<use x="193.33" y="84.01" xlink:href="#hd"/>
<path d="M189.83 84.01v29.20" stroke="currentColor" fill="none"/>
<use x="218.13" y="96.01" xlink:href="#hl"/>
<use x="218.13" y="93.01" xlink:href="#hd"/>
<circle fill="currentColor" cx="226.13" cy="93.01" r="1.2"/>
<path d="M214.63 93.01v21.00" stroke="currentColor" fill="none"/>
<path fill="currentColor"
	d="M214.63 114.01c0.6 -5.6 9.6 -9 5.6 -18.4
	c1.6 6 -1.3 11.6 -5.6 12.8
"/>
<path fill="currentColor"
	d="M249.93 120.21l32.60 0.00v-3.20l-32.60 -0.00"/>
<path fill="currentColor"
	d="M250.33 115.21l31.90 0.00v-3.20l-31.90 -0.00"/>
<use x="253.83" y="96.01" xlink:href="#hl"/>
<use x="253.83" y="90.01" xlink:href="#hl"/>
<use x="253.83" y="90.01" xlink:href="#hd"/>
<path d="M250.33 90.01v29.20" stroke="currentColor" fill="none"/>
<use x="269.73" y="96.01" xlink:href="#hl"/>
<use x="269.73" y="93.01" xlink:href="#hd"/>
<path d="M266.23 93.01v26.20" stroke="currentColor" fill="none"/>
<use x="285.63" y="96.01" xlink:href="#hl"/>
<use x="285.63" y="96.01" xlink:href="#hd"/>
<path d="M282.13 96.01v23.20" stroke="currentColor" fill="none"/>
<path fill="currentColor"
	d="M299.43 126.21l43.90 0.00v-3.20l-43.90 -0.00"/>
<path fill="currentColor"
	d="M299.73 121.21l43.20 0.00v-3.20l-43.20 -0.00"/>
<path fill="currentColor"
	d="M331.63 116.21l11.40 0.00v-3.20l-11.40 -0.00"/>
<use x="303.23" y="99.01" xlink:href="#hd"/>
<path d="M299.73 99.01v26.20" stroke="currentColor" fill="none"/>
<use x="319.13" y="96.01" xlink:href="#hl"/>
<use x="319.13" y="96.01" xlink:href="#hd"/>
<path d="M315.63 96.01v29.20" stroke="currentColor" fill="none"/>
<use x="335.13" y="96.01" xlink:href="#hl"/>
<use x="335.13" y="96.01" xlink:href="#hd"/>
<path d="M331.63 96.01v29.20" stroke="currentColor" fill="none"/>
<use x="346.43" y="99.01" xlink:href="#hd"/>
<path d="M342.93 99.01v26.20" stroke="currentColor" fill="none"/>
<path fill="currentColor"
	d="M369.83 126.21l41.80 0.00v-3.20l-41.80 -0.00"/>
<path fill="currentColor"
	d="M370.13 121.21l41.10 0.00v-3.20l-41.10 -0.00"/>
<path fill="currentColor"
	d="M376.13 116.21l-6.00 -0.00v-3.20l6.00 0.00"/>
<path fill="currentColor"
	d="M399.93 116.21l11.40 0.00v-3.20l-11.40 -0.00"/>
<use x="373.63" y="96.01" xlink:href="#hl"/>
<use x="373.63" y="93.01" xlink:href="#hd"/>
<path d="M370.13 93.01v32.20" stroke="currentColor" fill="none"/>
<use x="366.63" y="96.01" xlink:href="#hl"/>
<use x="366.63" y="96.01" xlink:href="#hd"/>
<use x="385.03" y="96.01" xlink:href="#hl"/>
<use x="385.03" y="96.01" xlink:href="#hd"/>
<circle fill="currentColor" cx="393.03" cy="93.01" r="1.2"/>
<path d="M381.53 96.01v29.20" stroke="currentColor" fill="none"/>
<use x="403.43" y="99.01" xlink:href="#hd"/>
<path d="M399.93 99.01v26.20" stroke="currentColor" fill="none"/>
<use x="414.73" y="96.01" xlink:href="#hl"/>
<use x="414.73" y="96.01" xlink:href="#hd"/>
<path d="M411.23 96.01v29.20" stroke="currentColor" fill="none"/>
<path fill="currentColor"
	d="M423.53 121.31l23.00 6.00v-3.20l-23.00 -6.00"/>
<path fill="currentColor"
	d="M440.23 120.61l6.00 1.60v-3.20l-6.00 -1.60"/>
<use x="427.43" y="96.01" xlink:href="#hl"/>
<use x="427.43" y="93.01" xlink:href="#hd"/>
<path d="M423.93 93.01v27.40" stroke="currentColor" fill="none"/>
<use x="449.73" y="105.01" xlink:href="#hd"/>
<path d="M446.23 105.01v21.20" stroke="currentColor" fill="none"/>
<path fill="currentColor"
	d="M472.73 127.21l16.60 -2.30v-3.20l-16.60 2.30"/>
<path fill="currentColor"
	d="M479.13 121.41l-6.00 0.80v-3.20l6.00 -0.80"/>
<use x="476.63" y="105.01" xlink:href="#hd"/>
<path d="M473.13 105.01v21.20" stroke="currentColor" fill="none"/>
<use x="492.53" y="102.01" xlink:href="#hd"/>
<path d="M489.03 102.01v22.00" stroke="currentColor" fill="none"/>
<use x="514.83" y="114.01" xlink:href="#r32"/>
<path fill="currentColor"
	d="M523.53 121.91l19.00 2.30v-3.20l-19.00 -2.30"/>
<path fill="currentColor"
	d="M523.83 116.91l18.40 2.30v-3.20l-18.40 -2.30"/>
<use x="527.33" y="99.01" xlink:href="#hd"/>
<circle fill="currentColor" cx="535.33" cy="99.01" r="1.2"/>
<path d="M523.83 99.01v21.90" stroke="currentColor" fill="none"/>
<use x="545.73" y="102.01" xlink:href="#hd"/>
<path d="M542.23 102.01v21.20" stroke="currentColor" fill="none"/>
<path fill="currentColor"
	d="M568.83 124.31l16.60 -3.60v-3.20l-16.60 3.60"/>
<path fill="currentColor"
	d="M575.13 117.91l-6.00 1.30v-3.20l6.00 -1.30"/>
<use x="572.63" y="102.01" xlink:href="#hd"/>
<path d="M569.13 102.01v21.20" stroke="currentColor" fill="none"/>
<use x="588.53" y="96.01" xlink:href="#hl"/>
<use x="588.53" y="96.01" xlink:href="#hd"/>
<path d="M585.03 96.01v23.80" stroke="currentColor" fill="none"/>
<use x="610.83" y="114.01" xlink:href="#r32"/>
<use x="622.13" y="114.01" xlink:href="#r32"/>
<path fill="currentColor"
	d="M630.93 122.01l16.60 2.30v-3.20l-16.60 -2.30"/>
<path fill="currentColor"
	d="M631.23 117.01l15.90 2.20v-3.20l-15.90 -2.20"/>
<use x="634.73" y="99.01" xlink:href="#hd"/>
<path d="M631.23 99.01v22.00" stroke="currentColor" fill="none"/>
<use x="650.63" y="102.01" xlink:href="#hd"/>
<path d="M647.13 102.01v21.20" stroke="currentColor" fill="none"/>
<use x="677.53" y="102.01" xlink:href="#hd"/>
<path d="M674.03 102.01v22.00" stroke="currentColor" fill="none"/>
<path fill="currentColor"
	d="M674.03 124.01c0.9 -3.7 9.1 -6.4 6 -12.4
	c1 5.4 -4.2 8.4 -6 8.4
M674.03 118.61c0.9 -3.7 9.1 -6.4 6 -12.4
	c1 5.4 -4.2 8.4 -6 8.4
"/>
<path fill="currentColor"
	d="M453.23 103.01c3.14 -4.86 16.77 -4.86 19.91 -0.00
	l0.00 -0.22c-3.73 -6.64 -16.18 -6.64 -19.91 0.22"/>
<path fill="currentColor"
	d="M549.23 102.01c3.14 -4.86 16.77 -4.86 19.91 -0.00
	l0.00 -0.22c-3.73 -6.64 -16.18 -6.64 -19.91 0.22"/>
<path fill="currentColor"
	d="M654.13 102.01c3.14 -4.86 16.77 -4.86 19.91 -0.00
	l0.00 -0.22c-3.73 -6.64 -16.18 -6.64 -19.91 0.22"/>
</g>
</svg>
