<?xml version="1.0" standalone="no"?>
<!DOCTYPE svg PUBLIC "-//W3C//DTD SVG 1.1//EN"
	"http://www.w3.org/Graphics/SVG/1.1/DTD/svg11.dtd">
<svg xmlns="http://www.w3.org/2000/svg" version="1.1"
	xmlns:xlink="http://www.w3.org/1999/xlink"
	xml:space='preserve' color="black"
	width="7.38in" height="1.34in" viewBox="0 0 531 97">
<title>9514.abc (9514) tune 1</title>
<!-- Creator: abcm2ps-7.8.14 -->
<!-- CreationDate: Mar 13, 2016 18:54 -->
<!-- CommandLine: -qxg 9514.abc -O ../svgs/9514.svg -->
<g transform="scale(0.750)" stroke-width="0.70" font-family="Times" font-size="20.00">
<text x="354.13" y="21.67" text-anchor="middle">9514.  Concert No. 13, in G, 3rd. Mvt., Sarabande</text>
</g>
<g transform="scale(0.750)" stroke-width="0.70" font-family="Times" font-size="14.00" font-style="italic">
<text x="694.93" y="45.34" text-anchor="end">Francois Couperin</text>
</g>
<g transform="scale(0.525)" stroke-width="0.70" font-family="Times" font-size="14.00" font-style="italic">
<defs>
<ellipse id="hd" rx="4.1" ry="2.9"
	transform="rotate(-20)" fill="currentColor"/>
</defs>
<use x="107.04" y="94.16" xlink:href="#hd"/>
<path d="M110.54 94.16v-20.00" stroke="currentColor" fill="none"/>
</g>
<g transform="scale(0.750)" stroke-width="0.70" font-family="Times" font-size="15.00" font-weight="bold">
<text x="82.63" y="68.01">= 120</text>
<path stroke="currentColor" fill="none"
	d="M219.73 106.01v-24.00"/>
<path stroke="currentColor" fill="none"
	d="M389.03 106.01v-24.00"/>
<path stroke="currentColor" fill="none"
	d="M522.43 106.01v-24.00"/>
<path stroke="currentColor" fill="none"
	d="M694.93 106.01v-24.00"/>
<path stroke="currentColor" fill="none"
	d="M13.33 106.01h681.60m-681.60 -6h681.60m-681.60 -6h681.60m-681.60 -6h681.60m-681.60 -6h681.60"/>
<defs>
<path id="utclef" fill="currentColor" d="m-50 -90
	c-72 -41 -72 -158 52 -188
	c150 -10 220 188 90 256
	c-114 52 -275 0 -293 -136
	c-15 -181 93 -229 220 -334
	c88 -87 79 -133 62 -210
	c-51 33 -94 105 -89 186
	c17 267 36 374 49 574
	c6 96 -19 134 -77 135
	c-80 1 -126 -93 -61 -133
	c85 -41 133 101 31 105
	c23 17 92 37 90 -92
	c-10 -223 -39 -342 -50 -617
	c0 -90 0 -162 96 -232
	c56 72 63 230 22 289
	c-74 106 -257 168 -255 316
	c9 153 148 185 252 133
	c86 -65 29 -192 -80 -176
	c-71 12 -105 67 -59 124"/>
<use id="tclef" transform="scale(0.045)"
	xlink:href="#utclef"/>
</defs>
<use x="25.33" y="106.01" xlink:href="#tclef"/>
<defs>
<path id="usharp" fill="currentColor" d="
	m136 -702
	v890
	h32
	v-890
	m128 840
	h32
	v-888
	h-32
	m-232 286
	v116
	l338 -96
	v-116
	m-338 442
	v116
	l338 -98
	v-114"/>
<use id="sh0" transform="translate(-4,5) scale(0.018)"
	xlink:href="#usharp"/>
</defs>
<use x="40.33" y="82.01" xlink:href="#sh0"/>
<g font-family="serif" font-size="16" font-weight="bold" font-style="normal"
	transform="translate(56.33,106.01) scale(1.2,1)">
	<text y="-1" text-anchor="middle">4</text>
	<text y="-13" text-anchor="middle">3</text>
</g>
<use x="74.33" y="94.01" xlink:href="#hd"/>
<path d="M70.83 94.01v20.00" stroke="currentColor" fill="none"/>
<defs>
<path id="r8e" fill="currentColor" d="m 0 0
	c-1.5 1.5 -2.4 2 -3.6 2
	c2.4 -2.8 -2.8 -4 -2.8 -1.2
	c0 2.7 4.3 2.4 5.9 0.6"/>
<g id="r32">
	<path d="m4.8 -10l-5.5 21.6" stroke="currentColor" fill="none"/>
	<use x="4.9" y="-10" xlink:href="#r8e"/>
	<use x="3.4" y="-4" xlink:href="#r8e"/>
	<use x="1.9" y="2" xlink:href="#r8e"/>
</g>
</defs>
<use x="113.63" y="94.01" xlink:href="#r32"/>
<use x="129.03" y="88.01" xlink:href="#hd"/>
<path d="M125.53 88.01v20.00" stroke="currentColor" fill="none"/>
<path fill="currentColor"
	d="M168.83 111.91l23.00 5.10v-3.20l-23.00 -5.10"/>
<path fill="currentColor"
	d="M175.13 108.31l-6.00 -1.30v-3.20l6.00 1.30"/>
<use x="172.63" y="88.01" xlink:href="#hd"/>
<circle fill="currentColor" cx="180.63" cy="85.01" r="1.2"/>
<path d="M169.13 88.01v23.00" stroke="currentColor" fill="none"/>
<use x="195.03" y="97.01" xlink:href="#hd"/>
<path d="M191.53 97.01v19.00" stroke="currentColor" fill="none"/>
<use x="235.13" y="94.01" xlink:href="#r32"/>
<path fill="currentColor"
	d="M252.23 67.21l90.30 4.50v3.20l-90.30 -4.50"/>
<path fill="currentColor"
	d="M278.13 73.51l6.00 0.30v3.20l-6.00 -0.30"/>
<path fill="currentColor"
	d="M336.13 76.41l6.00 0.30v3.20l-6.00 -0.30"/>
<path fill="currentColor"
	d="M278.13 78.51l6.00 0.30v3.20l-6.00 -0.30"/>
<path fill="currentColor"
	d="M336.13 81.41l6.00 0.30v3.20l-6.00 -0.30"/>
<use x="249.03" y="94.01" xlink:href="#hd"/>
<circle fill="currentColor" cx="257.03" cy="91.01" r="1.2"/>
<path d="M252.53 94.01v-25.80" stroke="currentColor" fill="none"/>
<use x="280.63" y="94.01" xlink:href="#hd"/>
<path d="M284.13 94.01v-24.20" stroke="currentColor" fill="none"/>
<use x="294.53" y="94.01" xlink:href="#r32"/>
<use x="307.03" y="100.01" xlink:href="#hd"/>
<circle fill="currentColor" cx="315.03" cy="97.01" r="1.2"/>
<path d="M310.53 100.01v-28.90" stroke="currentColor" fill="none"/>
<use x="338.63" y="100.01" xlink:href="#hd"/>
<path d="M342.13 100.01v-27.30" stroke="currentColor" fill="none"/>
<use x="354.13" y="109.01" xlink:href="#hd"/>
<path d="M357.63 109.01v-20.00" stroke="currentColor" fill="none"/>
<use x="404.43" y="100.01" xlink:href="#hd"/>
<path d="M407.93 100.01v-20.00" stroke="currentColor" fill="none"/>
<use x="448.03" y="97.01" xlink:href="#hd"/>
<circle fill="currentColor" cx="456.03" cy="97.01" r="1.2"/>
<path d="M451.53 97.01v-20.00" stroke="currentColor" fill="none"/>
<use x="497.73" y="94.01" xlink:href="#hd"/>
<path d="M501.23 94.01v-20.00" stroke="currentColor" fill="none"/>
<path fill="currentColor"
	d="	M501.23 74.01c0.6 5.6 9.6 9 5.6 18.4
	c1.6 -6 -1.3 -11.6 -5.6 -12.8
"/>
<path fill="currentColor"
	d="M541.03 69.81l39.90 0.00v3.20l-39.90 -0.00"/>
<path fill="currentColor"
	d="M541.33 74.81l39.30 0.00v3.20l-39.30 -0.00"/>
<use x="537.83" y="94.01" xlink:href="#hd"/>
<path d="M541.33 94.01v-23.20" stroke="currentColor" fill="none"/>
<use x="557.53" y="97.01" xlink:href="#hd"/>
<path d="M561.03 97.01v-26.20" stroke="currentColor" fill="none"/>
<use x="577.13" y="94.01" xlink:href="#hd"/>
<path d="M580.63 94.01v-23.20" stroke="currentColor" fill="none"/>
<use x="598.93" y="91.01" xlink:href="#hd"/>
<path d="M595.43 91.01v22.00" stroke="currentColor" fill="none"/>
<path fill="currentColor"
	d="M595.43 113.01c0.9 -3.7 9.1 -6.4 6 -12.4
	c1 5.4 -4.2 8.4 -6 8.4
M595.43 107.61c0.9 -3.7 9.1 -6.4 6 -12.4
	c1 5.4 -4.2 8.4 -6 8.4
"/>
<use x="620.73" y="94.01" xlink:href="#hd"/>
<path d="M617.23 94.01v20.00" stroke="currentColor" fill="none"/>
<use x="660.03" y="97.01" xlink:href="#hd"/>
<path d="M663.53 97.01v-20.00" stroke="currentColor" fill="none"/>
<path fill="currentColor"
	d="M132.53 88.01c5.77 -5.16 30.86 -5.16 36.63 -0.00
	l0.00 -0.24c-6.87 -6.92 -29.76 -6.92 -36.63 0.24"/>
<path fill="currentColor"
	d="M252.53 94.01c3.88 4.94 20.73 4.94 24.61 -0.00
	l0.00 0.22c-4.61 6.72 -20.00 6.72 -24.61 -0.22"/>
<path fill="currentColor"
	d="M310.53 100.01c3.88 4.94 20.73 4.94 24.61 -0.00
	l0.00 0.22c-4.61 6.72 -20.00 6.72 -24.61 -0.22"/>
</g>
</svg>
