<?xml version="1.0" standalone="no"?>
<!DOCTYPE svg PUBLIC "-//W3C//DTD SVG 1.1//EN"
	"http://www.w3.org/Graphics/SVG/1.1/DTD/svg11.dtd">
<svg xmlns="http://www.w3.org/2000/svg" version="1.1"
	xmlns:xlink="http://www.w3.org/1999/xlink"
	xml:space='preserve' color="black"
	width="7.38in" height="1.52in" viewBox="0 0 531 110">
<title>9516.abc (9516) tune 1</title>
<!-- Creator: abcm2ps-7.8.14 -->
<!-- CreationDate: Mar 13, 2016 18:54 -->
<!-- CommandLine: -qxg 9516.abc -O ../svgs/9516.svg -->
<g transform="scale(0.750)" stroke-width="0.70" font-family="Times" font-size="20.00">
<text x="354.13" y="21.67" text-anchor="middle">9516.  Concert Royal, No. 2, 1st. Mvt., Prelude</text>
</g>
<g transform="scale(0.750)" stroke-width="0.70" font-family="Times" font-size="14.00" font-style="italic">
<text x="694.93" y="45.34" text-anchor="end">Francois Couperin</text>
</g>
<g transform="scale(0.525)" stroke-width="0.70" font-family="Times" font-size="14.00" font-style="italic">
<defs>
<ellipse id="hd" rx="4.1" ry="2.9"
	transform="rotate(-20)" fill="currentColor"/>
</defs>
<use x="114.90" y="94.16" xlink:href="#hd"/>
<path d="M118.40 94.16v-20.00" stroke="currentColor" fill="none"/>
</g>
<g transform="scale(0.750)" stroke-width="0.70" font-family="Times" font-size="15.00" font-weight="bold">
<text x="88.13" y="68.01">= 120</text>
<path stroke="currentColor" fill="none"
	d="M218.63 123.01v-24.00"/>
<path stroke="currentColor" fill="none"
	d="M370.03 123.01v-24.00"/>
<path stroke="currentColor" fill="none"
	d="M541.33 123.01v-24.00"/>
<path stroke="currentColor" fill="none"
	d="M694.93 123.01v-24.00"/>
<path stroke="currentColor" fill="none"
	d="M13.33 123.01h681.60m-681.60 -6h681.60m-681.60 -6h681.60m-681.60 -6h681.60m-681.60 -6h681.60"/>
<text font-family="serif" font-size="12" font-style="italic" font-weight="normal"
	x="147.93" y="128.01" text-anchor="middle">3</text>
<path stroke="currentColor" fill="none"
	d="M486.63 66.31v-3l32.60 -6.00v3"/>
<rect x="495.93" y="54.31" width="14.00" height="12" fill="white"/>
<text font-family="serif" font-size="12" font-style="italic" font-weight="normal"
	x="502.93" y="64.31" text-anchor="middle">3</text>
<defs>
<path id="utclef" fill="currentColor" d="m-50 -90
	c-72 -41 -72 -158 52 -188
	c150 -10 220 188 90 256
	c-114 52 -275 0 -293 -136
	c-15 -181 93 -229 220 -334
	c88 -87 79 -133 62 -210
	c-51 33 -94 105 -89 186
	c17 267 36 374 49 574
	c6 96 -19 134 -77 135
	c-80 1 -126 -93 -61 -133
	c85 -41 133 101 31 105
	c23 17 92 37 90 -92
	c-10 -223 -39 -342 -50 -617
	c0 -90 0 -162 96 -232
	c56 72 63 230 22 289
	c-74 106 -257 168 -255 316
	c9 153 148 185 252 133
	c86 -65 29 -192 -80 -176
	c-71 12 -105 67 -59 124"/>
<use id="tclef" transform="scale(0.045)"
	xlink:href="#utclef"/>
</defs>
<use x="25.33" y="123.01" xlink:href="#tclef"/>
<defs>
<path id="usharp" fill="currentColor" d="
	m136 -702
	v890
	h32
	v-890
	m128 840
	h32
	v-888
	h-32
	m-232 286
	v116
	l338 -96
	v-116
	m-338 442
	v116
	l338 -98
	v-114"/>
<use id="sh0" transform="translate(-4,5) scale(0.018)"
	xlink:href="#usharp"/>
</defs>
<use x="40.33" y="99.01" xlink:href="#sh0"/>
<use x="45.83" y="108.01" xlink:href="#sh0"/>
<g font-family="serif" font-size="16" font-weight="bold" font-style="normal"
	transform="translate(61.83,123.01) scale(1.2,1)">
	<text y="-1" text-anchor="middle">4</text>
	<text y="-13" text-anchor="middle">3</text>
</g>
<defs>
<path id="hl" stroke="currentColor" d="m-6 0h12"/>
</defs>
<use x="79.83" y="93.01" xlink:href="#hl"/>
<use x="79.83" y="87.01" xlink:href="#hl"/>
<use x="79.83" y="84.01" xlink:href="#hd"/>
<path d="M76.33 84.01v27.00" stroke="currentColor" fill="none"/>
<use x="113.83" y="93.01" xlink:href="#hl"/>
<use x="113.83" y="87.01" xlink:href="#hl"/>
<use x="113.83" y="81.01" xlink:href="#hl"/>
<use x="113.83" y="78.01" xlink:href="#hd"/>
<path d="M110.33 78.01v33.00" stroke="currentColor" fill="none"/>
<path fill="currentColor"
	d="M110.33 111.01c0.9 -3.7 9.1 -6.4 6 -12.4
	c1 5.4 -4.2 8.4 -6 8.4
M110.33 105.61c0.9 -3.7 9.1 -6.4 6 -12.4
	c1 5.4 -4.2 8.4 -6 8.4
M110.33 100.21c0.9 -3.7 9.1 -6.4 6 -12.4
	c1 5.4 -4.2 8.4 -6 8.4
"/>
<defs>
<path id="r8e" fill="currentColor" d="m 0 0
	c-1.5 1.5 -2.4 2 -3.6 2
	c2.4 -2.8 -2.8 -4 -2.8 -1.2
	c0 2.7 4.3 2.4 5.9 0.6"/>
<g id="r32">
	<path d="m4.8 -10l-5.5 21.6" stroke="currentColor" fill="none"/>
	<use x="4.9" y="-10" xlink:href="#r8e"/>
	<use x="3.4" y="-4" xlink:href="#r8e"/>
	<use x="1.9" y="2" xlink:href="#r8e"/>
</g>
</defs>
<use x="124.93" y="111.01" xlink:href="#r32"/>
<path fill="currentColor"
	d="M133.43 111.21l62.70 0.00v-3.20l-62.70 -0.00"/>
<path fill="currentColor"
	d="M133.73 106.21l24.60 0.00v-3.20l-24.60 -0.00"/>
<use x="137.23" y="93.01" xlink:href="#hl"/>
<use x="137.23" y="87.01" xlink:href="#hl"/>
<use x="137.23" y="81.01" xlink:href="#hl"/>
<use x="137.23" y="81.01" xlink:href="#hd"/>
<path d="M133.73 81.01v29.20" stroke="currentColor" fill="none"/>
<use x="149.53" y="93.01" xlink:href="#hl"/>
<use x="149.53" y="87.01" xlink:href="#hl"/>
<use x="149.53" y="81.01" xlink:href="#hl"/>
<use x="149.53" y="78.01" xlink:href="#hd"/>
<path d="M146.03 78.01v32.20" stroke="currentColor" fill="none"/>
<use x="161.83" y="93.01" xlink:href="#hl"/>
<use x="161.83" y="87.01" xlink:href="#hl"/>
<use x="161.83" y="81.01" xlink:href="#hl"/>
<use x="161.83" y="75.01" xlink:href="#hl"/>
<use x="161.83" y="75.01" xlink:href="#hd"/>
<path d="M158.33 75.01v35.20" stroke="currentColor" fill="none"/>
<use x="174.13" y="93.01" xlink:href="#hl"/>
<use x="174.13" y="87.01" xlink:href="#hl"/>
<use x="174.13" y="81.01" xlink:href="#hl"/>
<use x="174.13" y="78.01" xlink:href="#hd"/>
<circle fill="currentColor" cx="182.13" cy="78.01" r="1.2"/>
<path d="M170.63 78.01v32.20" stroke="currentColor" fill="none"/>
<use x="199.23" y="93.01" xlink:href="#hl"/>
<use x="199.23" y="87.01" xlink:href="#hl"/>
<use x="199.23" y="81.01" xlink:href="#hl"/>
<use x="199.23" y="81.01" xlink:href="#hd"/>
<path d="M195.73 81.01v29.20" stroke="currentColor" fill="none"/>
<path fill="currentColor"
	d="M227.33 135.21l129.60 0.00v-3.20l-129.60 -0.00"/>
<path fill="currentColor"
	d="M302.43 130.21l6.00 0.00v-3.20l-6.00 -0.00"/>
<path fill="currentColor"
	d="M350.63 130.21l6.00 0.00v-3.20l-6.00 -0.00"/>
<path fill="currentColor"
	d="M302.43 125.21l6.00 0.00v-3.20l-6.00 -0.00"/>
<path fill="currentColor"
	d="M350.63 125.21l6.00 0.00v-3.20l-6.00 -0.00"/>
<use x="231.13" y="93.01" xlink:href="#hl"/>
<use x="231.13" y="87.01" xlink:href="#hl"/>
<use x="231.13" y="84.01" xlink:href="#hd"/>
<path d="M227.63 84.01v50.20" stroke="currentColor" fill="none"/>
<use x="253.03" y="93.01" xlink:href="#hl"/>
<use x="253.03" y="87.01" xlink:href="#hl"/>
<use x="253.03" y="81.01" xlink:href="#hl"/>
<use x="253.03" y="78.01" xlink:href="#hd"/>
<path d="M249.53 78.01v56.20" stroke="currentColor" fill="none"/>
<use x="274.83" y="111.01" xlink:href="#r32"/>
<use x="285.93" y="93.01" xlink:href="#hl"/>
<use x="285.93" y="87.01" xlink:href="#hl"/>
<use x="285.93" y="81.01" xlink:href="#hl"/>
<use x="285.93" y="81.01" xlink:href="#hd"/>
<circle fill="currentColor" cx="293.93" cy="78.01" r="1.2"/>
<path d="M282.43 81.01v53.20" stroke="currentColor" fill="none"/>
<use x="311.93" y="93.01" xlink:href="#hl"/>
<use x="311.93" y="87.01" xlink:href="#hl"/>
<use x="311.93" y="81.01" xlink:href="#hl"/>
<use x="311.93" y="81.01" xlink:href="#hd"/>
<path d="M308.43 81.01v53.20" stroke="currentColor" fill="none"/>
<use x="323.03" y="111.01" xlink:href="#r32"/>
<use x="334.13" y="93.01" xlink:href="#hl"/>
<use x="334.13" y="87.01" xlink:href="#hl"/>
<use x="334.13" y="87.01" xlink:href="#hd"/>
<circle fill="currentColor" cx="342.13" cy="84.01" r="1.2"/>
<path d="M330.63 87.01v47.20" stroke="currentColor" fill="none"/>
<use x="360.13" y="93.01" xlink:href="#hl"/>
<use x="360.13" y="87.01" xlink:href="#hl"/>
<use x="360.13" y="87.01" xlink:href="#hd"/>
<path d="M356.63 87.01v47.20" stroke="currentColor" fill="none"/>
<use x="382.53" y="111.01" xlink:href="#r32"/>
<path fill="currentColor"
	d="M391.03 117.91l26.70 0.00v-3.20l-26.70 -0.00"/>
<path fill="currentColor"
	d="M411.33 112.91l6.00 0.00v-3.20l-6.00 -0.00"/>
<path fill="currentColor"
	d="M411.33 107.91l6.00 0.00v-3.20l-6.00 -0.00"/>
<use x="394.83" y="93.01" xlink:href="#hl"/>
<use x="394.83" y="93.01" xlink:href="#hd"/>
<circle fill="currentColor" cx="402.83" cy="90.01" r="1.2"/>
<path d="M391.33 93.01v24.00" stroke="currentColor" fill="none"/>
<use x="420.83" y="93.01" xlink:href="#hl"/>
<use x="420.83" y="93.01" xlink:href="#hd"/>
<path d="M417.33 93.01v24.00" stroke="currentColor" fill="none"/>
<use x="433.23" y="93.01" xlink:href="#hl"/>
<use x="433.23" y="87.01" xlink:href="#hl"/>
<use x="433.23" y="84.01" xlink:href="#hd"/>
<path d="M429.73 84.01v27.00" stroke="currentColor" fill="none"/>
<use x="467.23" y="93.01" xlink:href="#hl"/>
<use x="467.23" y="87.01" xlink:href="#hl"/>
<use x="467.23" y="81.01" xlink:href="#hl"/>
<use x="467.23" y="75.01" xlink:href="#hl"/>
<use x="467.23" y="75.01" xlink:href="#hd"/>
<path d="M463.73 75.01v36.00" stroke="currentColor" fill="none"/>
<path fill="currentColor"
	d="M463.73 111.01c0.9 -3.7 9.1 -6.4 6 -12.4
	c1 5.4 -4.2 8.4 -6 8.4
M463.73 105.61c0.9 -3.7 9.1 -6.4 6 -12.4
	c1 5.4 -4.2 8.4 -6 8.4
M463.73 100.21c0.9 -3.7 9.1 -6.4 6 -12.4
	c1 5.4 -4.2 8.4 -6 8.4
"/>
<use x="478.33" y="111.01" xlink:href="#r32"/>
<path fill="currentColor"
	d="M486.83 111.21l37.50 0.00v-3.20l-37.50 -0.00"/>
<path fill="currentColor"
	d="M487.13 106.21l36.80 0.00v-3.20l-36.80 -0.00"/>
<use x="490.63" y="93.01" xlink:href="#hl"/>
<use x="490.63" y="87.01" xlink:href="#hl"/>
<use x="490.63" y="81.01" xlink:href="#hl"/>
<use x="490.63" y="78.01" xlink:href="#hd"/>
<path d="M487.13 78.01v32.20" stroke="currentColor" fill="none"/>
<use x="502.93" y="93.01" xlink:href="#hl"/>
<use x="502.93" y="87.01" xlink:href="#hl"/>
<use x="502.93" y="81.01" xlink:href="#hl"/>
<use x="502.93" y="75.01" xlink:href="#hl"/>
<use x="502.93" y="75.01" xlink:href="#hd"/>
<path d="M499.43 75.01v35.20" stroke="currentColor" fill="none"/>
<use x="515.23" y="93.01" xlink:href="#hl"/>
<use x="515.23" y="87.01" xlink:href="#hl"/>
<use x="515.23" y="81.01" xlink:href="#hl"/>
<use x="515.23" y="75.01" xlink:href="#hl"/>
<use x="515.23" y="72.01" xlink:href="#hd"/>
<path d="M511.73 72.01v38.20" stroke="currentColor" fill="none"/>
<use x="527.53" y="93.01" xlink:href="#hl"/>
<use x="527.53" y="87.01" xlink:href="#hl"/>
<use x="527.53" y="81.01" xlink:href="#hl"/>
<use x="527.53" y="75.01" xlink:href="#hl"/>
<use x="527.53" y="75.01" xlink:href="#hd"/>
<path d="M524.03 75.01v35.20" stroke="currentColor" fill="none"/>
<path fill="currentColor"
	d="M550.03 111.21l77.90 0.00v-3.20l-77.90 -0.00"/>
<path fill="currentColor"
	d="M594.03 106.21l33.50 0.00v-3.20l-33.50 -0.00"/>
<path fill="currentColor"
	d="M594.03 101.21l33.50 0.00v-3.20l-33.50 -0.00"/>
<use x="553.83" y="93.01" xlink:href="#hl"/>
<use x="553.83" y="87.01" xlink:href="#hl"/>
<use x="553.83" y="81.01" xlink:href="#hl"/>
<use x="553.83" y="75.01" xlink:href="#hl"/>
<use x="553.83" y="75.01" xlink:href="#hd"/>
<path d="M550.33 75.01v35.20" stroke="currentColor" fill="none"/>
<use x="575.73" y="93.01" xlink:href="#hl"/>
<use x="575.73" y="87.01" xlink:href="#hl"/>
<use x="575.73" y="81.01" xlink:href="#hl"/>
<use x="575.73" y="78.01" xlink:href="#hd"/>
<path d="M572.23 78.01v32.20" stroke="currentColor" fill="none"/>
<use x="597.53" y="93.01" xlink:href="#hl"/>
<use x="597.53" y="87.01" xlink:href="#hl"/>
<use x="597.53" y="81.01" xlink:href="#hl"/>
<use x="597.53" y="81.01" xlink:href="#hd"/>
<path d="M594.03 81.01v29.20" stroke="currentColor" fill="none"/>
<use x="608.73" y="93.01" xlink:href="#hl"/>
<use x="608.73" y="87.01" xlink:href="#hl"/>
<use x="608.73" y="84.01" xlink:href="#hd"/>
<path d="M605.23 84.01v26.20" stroke="currentColor" fill="none"/>
<use x="619.93" y="93.01" xlink:href="#hl"/>
<use x="619.93" y="87.01" xlink:href="#hl"/>
<use x="619.93" y="81.01" xlink:href="#hl"/>
<use x="619.93" y="81.01" xlink:href="#hd"/>
<path d="M616.43 81.01v29.20" stroke="currentColor" fill="none"/>
<use x="631.13" y="93.01" xlink:href="#hl"/>
<use x="631.13" y="87.01" xlink:href="#hl"/>
<use x="631.13" y="81.01" xlink:href="#hl"/>
<use x="631.13" y="78.01" xlink:href="#hd"/>
<path d="M627.63 78.01v32.20" stroke="currentColor" fill="none"/>
<use x="643.43" y="93.01" xlink:href="#hl"/>
<use x="643.43" y="87.01" xlink:href="#hl"/>
<use x="643.43" y="81.01" xlink:href="#hl"/>
<use x="643.43" y="81.01" xlink:href="#hd"/>
<path d="M639.93 81.01v30.00" stroke="currentColor" fill="none"/>
<path fill="currentColor"
	d="M639.93 111.01c0.6 -5.6 9.6 -9 5.6 -18.4
	c1.6 6 -1.3 11.6 -5.6 12.8
"/>
<use x="667.63" y="93.01" xlink:href="#hl"/>
<use x="667.63" y="87.01" xlink:href="#hl"/>
<use x="667.63" y="87.01" xlink:href="#hd"/>
<path d="M664.13 87.01v24.00" stroke="currentColor" fill="none"/>
<path fill="currentColor"
	d="M289.43 75.01c2.99 -4.84 16.01 -4.84 19.00 -0.00
	l0.00 -0.22c-3.56 -6.62 -15.44 -6.62 -19.00 0.22"/>
<path fill="currentColor"
	d="M337.63 81.01c2.99 -4.84 16.01 -4.84 19.00 -0.00
	l0.00 -0.22c-3.56 -6.62 -15.44 -6.62 -19.00 0.22"/>
<path fill="currentColor"
	d="M398.33 87.01c2.99 -4.84 16.01 -4.84 19.00 -0.00
	l0.00 -0.22c-3.56 -6.62 -15.44 -6.62 -19.00 0.22"/>
<path fill="currentColor"
	d="M531.03 75.01c3.05 -4.85 16.32 -4.85 19.37 -0.00
	l0.00 -0.22c-3.63 -6.63 -15.73 -6.63 -19.37 0.22"/>
</g>
</svg>
