<?xml version="1.0" standalone="no"?>
<!DOCTYPE svg PUBLIC "-//W3C//DTD SVG 1.1//EN"
	"http://www.w3.org/Graphics/SVG/1.1/DTD/svg11.dtd">
<svg xmlns="http://www.w3.org/2000/svg" version="1.1"
	xmlns:xlink="http://www.w3.org/1999/xlink"
	xml:space='preserve' color="black"
	width="7.38in" height="1.52in" viewBox="0 0 531 110">
<title>9563.abc (9563) tune 1</title>
<!-- Creator: abcm2ps-7.8.14 -->
<!-- CreationDate: Mar 13, 2016 18:54 -->
<!-- CommandLine: -qxg 9563.abc -O ../svgs/9563.svg -->
<g transform="scale(0.750)" stroke-width="0.70" font-family="Times" font-size="20.00">
<text x="354.13" y="21.67" text-anchor="middle">9563.  Soeur Monique</text>
</g>
<g transform="scale(0.750)" stroke-width="0.70" font-family="Times" font-size="14.00" font-style="italic">
<text x="694.93" y="45.34" text-anchor="end">Francois Couperin</text>
</g>
<g transform="scale(0.525)" stroke-width="0.70" font-family="Times" font-size="14.00" font-style="italic">
<defs>
<ellipse id="hd" rx="4.1" ry="2.9"
	transform="rotate(-20)" fill="currentColor"/>
</defs>
<use x="107.04" y="94.16" xlink:href="#hd"/>
<path d="M110.54 94.16v-20.00" stroke="currentColor" fill="none"/>
</g>
<g transform="scale(0.750)" stroke-width="0.70" font-family="Times" font-size="15.00" font-weight="bold">
<text x="82.63" y="68.01">= 120</text>
<path stroke="currentColor" fill="none"
	d="M217.93 123.01v-24.00"/>
<path stroke="currentColor" fill="none"
	d="M374.03 123.01v-24.00"/>
<path stroke="currentColor" fill="none"
	d="M536.13 123.01v-24.00"/>
<path stroke="currentColor" fill="none"
	d="M13.33 123.01h681.60m-681.60 -6h681.60m-681.60 -6h681.60m-681.60 -6h681.60m-681.60 -6h681.60"/>
<defs>
<path id="utclef" fill="currentColor" d="m-50 -90
	c-72 -41 -72 -158 52 -188
	c150 -10 220 188 90 256
	c-114 52 -275 0 -293 -136
	c-15 -181 93 -229 220 -334
	c88 -87 79 -133 62 -210
	c-51 33 -94 105 -89 186
	c17 267 36 374 49 574
	c6 96 -19 134 -77 135
	c-80 1 -126 -93 -61 -133
	c85 -41 133 101 31 105
	c23 17 92 37 90 -92
	c-10 -223 -39 -342 -50 -617
	c0 -90 0 -162 96 -232
	c56 72 63 230 22 289
	c-74 106 -257 168 -255 316
	c9 153 148 185 252 133
	c86 -65 29 -192 -80 -176
	c-71 12 -105 67 -59 124"/>
<use id="tclef" transform="scale(0.045)"
	xlink:href="#utclef"/>
</defs>
<use x="25.33" y="123.01" xlink:href="#tclef"/>
<defs>
<path id="uflat" fill="currentColor" d="
	m100 -746
	h32
	v734
	l-32 4
	m32 -332
	c46 -72 152 -90 208 -20
	c100 110 -120 326 -208 348
	m0 -28
	c54 0 200 -206 130 -290
	c-50 -60 -130 -4 -130 34"/>
<use id="ft0" transform="translate(-3.5,3.5) scale(0.018)"
	xlink:href="#uflat"/>
</defs>
<use x="40.33" y="111.01" xlink:href="#ft0"/>
<g font-family="serif" font-size="16" font-weight="bold" font-style="normal"
	transform="translate(56.33,123.01) scale(1.2,1)">
	<text y="-1" text-anchor="middle">8</text>
	<text y="-13" text-anchor="middle">6</text>
</g>
<defs>
<path id="hl" stroke="currentColor" d="m-6 0h12"/>
</defs>
<use x="74.33" y="93.01" xlink:href="#hl"/>
<use x="74.33" y="87.01" xlink:href="#hl"/>
<use x="74.33" y="87.01" xlink:href="#hd"/>
<path d="M70.83 87.01v24.00" stroke="currentColor" fill="none"/>
<defs>
<path id="r8e" fill="currentColor" d="m 0 0
	c-1.5 1.5 -2.4 2 -3.6 2
	c2.4 -2.8 -2.8 -4 -2.8 -1.2
	c0 2.7 4.3 2.4 5.9 0.6"/>
<g id="r32">
	<path d="m4.8 -10l-5.5 21.6" stroke="currentColor" fill="none"/>
	<use x="4.9" y="-10" xlink:href="#r8e"/>
	<use x="3.4" y="-4" xlink:href="#r8e"/>
	<use x="1.9" y="2" xlink:href="#r8e"/>
</g>
</defs>
<use x="101.63" y="111.01" xlink:href="#r32"/>
<use x="111.83" y="111.01" xlink:href="#r32"/>
<use x="123.03" y="93.01" xlink:href="#hl"/>
<use x="123.03" y="87.01" xlink:href="#hl"/>
<use x="123.03" y="81.01" xlink:href="#hl"/>
<use x="123.03" y="78.01" xlink:href="#hd"/>
<path d="M119.53 78.01v33.00" stroke="currentColor" fill="none"/>
<path fill="currentColor"
	d="M119.53 111.01c0.9 -3.7 9.1 -6.4 6 -12.4
	c1 5.4 -4.2 8.4 -6 8.4
M119.53 105.61c0.9 -3.7 9.1 -6.4 6 -12.4
	c1 5.4 -4.2 8.4 -6 8.4
"/>
<path fill="currentColor"
	d="M134.83 111.21l62.40 0.00v-3.20l-62.40 -0.00"/>
<path fill="currentColor"
	d="M135.23 106.21l31.50 0.00v-3.20l-31.50 -0.00"/>
<path fill="currentColor"
	d="M135.23 101.21l31.50 0.00v-3.20l-31.50 -0.00"/>
<use x="138.73" y="93.01" xlink:href="#hl"/>
<use x="138.73" y="87.01" xlink:href="#hl"/>
<use x="138.73" y="81.01" xlink:href="#hl"/>
<use x="138.73" y="81.01" xlink:href="#hd"/>
<path d="M135.23 81.01v29.20" stroke="currentColor" fill="none"/>
<use x="149.23" y="93.01" xlink:href="#hl"/>
<use x="149.23" y="87.01" xlink:href="#hl"/>
<use x="149.23" y="84.01" xlink:href="#hd"/>
<path d="M145.73 84.01v26.20" stroke="currentColor" fill="none"/>
<use x="159.73" y="93.01" xlink:href="#hl"/>
<use x="159.73" y="87.01" xlink:href="#hl"/>
<use x="159.73" y="81.01" xlink:href="#hl"/>
<use x="159.73" y="81.01" xlink:href="#hd"/>
<path d="M156.23 81.01v29.20" stroke="currentColor" fill="none"/>
<use x="170.23" y="93.01" xlink:href="#hl"/>
<use x="170.23" y="87.01" xlink:href="#hl"/>
<use x="170.23" y="81.01" xlink:href="#hl"/>
<use x="170.23" y="78.01" xlink:href="#hd"/>
<path d="M166.73 78.01v32.20" stroke="currentColor" fill="none"/>
<use x="180.73" y="93.01" xlink:href="#hl"/>
<use x="180.73" y="87.01" xlink:href="#hl"/>
<use x="180.73" y="81.01" xlink:href="#hl"/>
<use x="180.73" y="81.01" xlink:href="#hd"/>
<path d="M177.23 81.01v29.20" stroke="currentColor" fill="none"/>
<use x="200.43" y="93.01" xlink:href="#hl"/>
<use x="200.43" y="87.01" xlink:href="#hl"/>
<use x="200.43" y="84.01" xlink:href="#hd"/>
<path d="M196.93 84.01v26.20" stroke="currentColor" fill="none"/>
<use x="230.43" y="93.01" xlink:href="#hl"/>
<use x="230.43" y="87.01" xlink:href="#hl"/>
<use x="230.43" y="87.01" xlink:href="#hd"/>
<path d="M226.93 87.01v24.00" stroke="currentColor" fill="none"/>
<use x="257.73" y="111.01" xlink:href="#r32"/>
<use x="267.93" y="111.01" xlink:href="#r32"/>
<use x="279.13" y="93.01" xlink:href="#hl"/>
<use x="279.13" y="87.01" xlink:href="#hl"/>
<use x="279.13" y="81.01" xlink:href="#hl"/>
<use x="279.13" y="78.01" xlink:href="#hd"/>
<path d="M275.63 78.01v33.00" stroke="currentColor" fill="none"/>
<path fill="currentColor"
	d="M275.63 111.01c0.9 -3.7 9.1 -6.4 6 -12.4
	c1 5.4 -4.2 8.4 -6 8.4
M275.63 105.61c0.9 -3.7 9.1 -6.4 6 -12.4
	c1 5.4 -4.2 8.4 -6 8.4
"/>
<path fill="currentColor"
	d="M290.93 111.21l62.40 0.00v-3.20l-62.40 -0.00"/>
<path fill="currentColor"
	d="M291.33 106.21l31.50 0.00v-3.20l-31.50 -0.00"/>
<path fill="currentColor"
	d="M291.33 101.21l31.50 0.00v-3.20l-31.50 -0.00"/>
<use x="294.83" y="93.01" xlink:href="#hl"/>
<use x="294.83" y="87.01" xlink:href="#hl"/>
<use x="294.83" y="81.01" xlink:href="#hl"/>
<use x="294.83" y="81.01" xlink:href="#hd"/>
<path d="M291.33 81.01v29.20" stroke="currentColor" fill="none"/>
<use x="305.33" y="93.01" xlink:href="#hl"/>
<use x="305.33" y="87.01" xlink:href="#hl"/>
<use x="305.33" y="84.01" xlink:href="#hd"/>
<path d="M301.83 84.01v26.20" stroke="currentColor" fill="none"/>
<use x="315.83" y="93.01" xlink:href="#hl"/>
<use x="315.83" y="87.01" xlink:href="#hl"/>
<use x="315.83" y="81.01" xlink:href="#hl"/>
<use x="315.83" y="81.01" xlink:href="#hd"/>
<path d="M312.33 81.01v29.20" stroke="currentColor" fill="none"/>
<use x="326.33" y="93.01" xlink:href="#hl"/>
<use x="326.33" y="87.01" xlink:href="#hl"/>
<use x="326.33" y="81.01" xlink:href="#hl"/>
<use x="326.33" y="78.01" xlink:href="#hd"/>
<path d="M322.83 78.01v32.20" stroke="currentColor" fill="none"/>
<use x="336.83" y="93.01" xlink:href="#hl"/>
<use x="336.83" y="87.01" xlink:href="#hl"/>
<use x="336.83" y="81.01" xlink:href="#hl"/>
<use x="336.83" y="81.01" xlink:href="#hd"/>
<path d="M333.33 81.01v29.20" stroke="currentColor" fill="none"/>
<use x="356.53" y="93.01" xlink:href="#hl"/>
<use x="356.53" y="87.01" xlink:href="#hl"/>
<use x="356.53" y="84.01" xlink:href="#hd"/>
<path d="M353.03 84.01v26.20" stroke="currentColor" fill="none"/>
<use x="386.53" y="93.01" xlink:href="#hl"/>
<use x="386.53" y="87.01" xlink:href="#hl"/>
<use x="386.53" y="87.01" xlink:href="#hd"/>
<path d="M383.03 87.01v24.00" stroke="currentColor" fill="none"/>
<path fill="currentColor"
	d="M383.03 111.01c0.6 -5.6 9.6 -9 5.6 -18.4
	c1.6 6 -1.3 11.6 -5.6 12.8
"/>
<use x="406.03" y="111.01" xlink:href="#r32"/>
<use x="416.23" y="111.01" xlink:href="#r32"/>
<path fill="currentColor"
	d="M423.63 111.21l14.90 0.00v-3.20l-14.90 -0.00"/>
<path fill="currentColor"
	d="M430.03 106.21l-6.00 -0.00v-3.20l6.00 0.00"/>
<use x="427.53" y="93.01" xlink:href="#hl"/>
<use x="427.53" y="87.01" xlink:href="#hl"/>
<use x="427.53" y="81.01" xlink:href="#hl"/>
<use x="427.53" y="78.01" xlink:href="#hd"/>
<path d="M424.03 78.01v32.20" stroke="currentColor" fill="none"/>
<use x="441.63" y="93.01" xlink:href="#hl"/>
<use x="441.63" y="87.01" xlink:href="#hl"/>
<use x="441.63" y="81.01" xlink:href="#hl"/>
<use x="441.63" y="75.01" xlink:href="#hl"/>
<use x="441.63" y="75.01" xlink:href="#hd"/>
<path d="M438.13 75.01v35.20" stroke="currentColor" fill="none"/>
<use x="463.43" y="93.01" xlink:href="#hl"/>
<use x="463.43" y="87.01" xlink:href="#hl"/>
<use x="463.43" y="81.01" xlink:href="#hl"/>
<use x="463.43" y="75.01" xlink:href="#hl"/>
<use x="463.43" y="72.01" xlink:href="#hd"/>
<path d="M459.93 72.01v39.00" stroke="currentColor" fill="none"/>
<path fill="currentColor"
	d="M459.93 111.01c0.6 -5.6 9.6 -9 5.6 -18.4
	c1.6 6 -1.3 11.6 -5.6 12.8
"/>
<use x="483.03" y="111.01" xlink:href="#r32"/>
<use x="493.23" y="111.01" xlink:href="#r32"/>
<path fill="currentColor"
	d="M500.53 111.21l14.90 0.00v-3.20l-14.90 -0.00"/>
<path fill="currentColor"
	d="M506.93 106.21l-6.00 -0.00v-3.20l6.00 0.00"/>
<use x="504.43" y="93.01" xlink:href="#hl"/>
<use x="504.43" y="87.01" xlink:href="#hl"/>
<use x="504.43" y="81.01" xlink:href="#hl"/>
<use x="504.43" y="75.01" xlink:href="#hl"/>
<use x="504.43" y="75.01" xlink:href="#hd"/>
<path d="M500.93 75.01v35.20" stroke="currentColor" fill="none"/>
<use x="518.63" y="93.01" xlink:href="#hl"/>
<use x="518.63" y="87.01" xlink:href="#hl"/>
<use x="518.63" y="81.01" xlink:href="#hl"/>
<use x="518.63" y="78.01" xlink:href="#hd"/>
<path d="M515.13 78.01v32.20" stroke="currentColor" fill="none"/>
<path fill="currentColor"
	d="M544.83 111.21l62.40 0.00v-3.20l-62.40 -0.00"/>
<path fill="currentColor"
	d="M545.13 106.21l31.50 0.00v-3.20l-31.50 -0.00"/>
<path fill="currentColor"
	d="M545.13 101.21l31.50 0.00v-3.20l-31.50 -0.00"/>
<use x="548.63" y="93.01" xlink:href="#hl"/>
<use x="548.63" y="87.01" xlink:href="#hl"/>
<use x="548.63" y="81.01" xlink:href="#hl"/>
<use x="548.63" y="75.01" xlink:href="#hl"/>
<use x="548.63" y="69.01" xlink:href="#hl"/>
<use x="548.63" y="69.01" xlink:href="#hd"/>
<path d="M545.13 69.01v41.20" stroke="currentColor" fill="none"/>
<use x="559.13" y="93.01" xlink:href="#hl"/>
<use x="559.13" y="87.01" xlink:href="#hl"/>
<use x="559.13" y="81.01" xlink:href="#hl"/>
<use x="559.13" y="75.01" xlink:href="#hl"/>
<use x="559.13" y="72.01" xlink:href="#hd"/>
<path d="M555.63 72.01v38.20" stroke="currentColor" fill="none"/>
<use x="569.63" y="93.01" xlink:href="#hl"/>
<use x="569.63" y="87.01" xlink:href="#hl"/>
<use x="569.63" y="81.01" xlink:href="#hl"/>
<use x="569.63" y="75.01" xlink:href="#hl"/>
<use x="569.63" y="69.01" xlink:href="#hl"/>
<use x="569.63" y="69.01" xlink:href="#hd"/>
<path d="M566.13 69.01v41.20" stroke="currentColor" fill="none"/>
<use x="580.13" y="93.01" xlink:href="#hl"/>
<use x="580.13" y="87.01" xlink:href="#hl"/>
<use x="580.13" y="81.01" xlink:href="#hl"/>
<use x="580.13" y="75.01" xlink:href="#hl"/>
<use x="580.13" y="69.01" xlink:href="#hl"/>
<use x="580.13" y="66.01" xlink:href="#hd"/>
<path d="M576.63 66.01v44.20" stroke="currentColor" fill="none"/>
<use x="590.63" y="93.01" xlink:href="#hl"/>
<use x="590.63" y="87.01" xlink:href="#hl"/>
<use x="590.63" y="81.01" xlink:href="#hl"/>
<use x="590.63" y="75.01" xlink:href="#hl"/>
<use x="590.63" y="69.01" xlink:href="#hl"/>
<use x="590.63" y="69.01" xlink:href="#hd"/>
<path d="M587.13 69.01v41.20" stroke="currentColor" fill="none"/>
<use x="610.33" y="93.01" xlink:href="#hl"/>
<use x="610.33" y="87.01" xlink:href="#hl"/>
<use x="610.33" y="81.01" xlink:href="#hl"/>
<use x="610.33" y="75.01" xlink:href="#hl"/>
<use x="610.33" y="72.01" xlink:href="#hd"/>
<path d="M606.83 72.01v38.20" stroke="currentColor" fill="none"/>
<path fill="currentColor"
	d="M628.23 111.21l42.70 0.00v-3.20l-42.70 -0.00"/>
<path fill="currentColor"
	d="M628.63 106.21l31.50 0.00v-3.20l-31.50 -0.00"/>
<path fill="currentColor"
	d="M628.63 101.21l31.50 0.00v-3.20l-31.50 -0.00"/>
<use x="632.13" y="93.01" xlink:href="#hl"/>
<use x="632.13" y="87.01" xlink:href="#hl"/>
<use x="632.13" y="81.01" xlink:href="#hl"/>
<use x="632.13" y="75.01" xlink:href="#hl"/>
<use x="632.13" y="75.01" xlink:href="#hd"/>
<path d="M628.63 75.01v35.20" stroke="currentColor" fill="none"/>
<use x="642.63" y="93.01" xlink:href="#hl"/>
<use x="642.63" y="87.01" xlink:href="#hl"/>
<use x="642.63" y="81.01" xlink:href="#hl"/>
<use x="642.63" y="78.01" xlink:href="#hd"/>
<path d="M639.13 78.01v32.20" stroke="currentColor" fill="none"/>
<use x="653.13" y="93.01" xlink:href="#hl"/>
<use x="653.13" y="87.01" xlink:href="#hl"/>
<use x="653.13" y="81.01" xlink:href="#hl"/>
<use x="653.13" y="75.01" xlink:href="#hl"/>
<use x="653.13" y="75.01" xlink:href="#hd"/>
<path d="M649.63 75.01v35.20" stroke="currentColor" fill="none"/>
<use x="663.63" y="93.01" xlink:href="#hl"/>
<use x="663.63" y="87.01" xlink:href="#hl"/>
<use x="663.63" y="81.01" xlink:href="#hl"/>
<use x="663.63" y="75.01" xlink:href="#hl"/>
<use x="663.63" y="72.01" xlink:href="#hd"/>
<path d="M660.13 72.01v38.20" stroke="currentColor" fill="none"/>
<use x="674.13" y="93.01" xlink:href="#hl"/>
<use x="674.13" y="87.01" xlink:href="#hl"/>
<use x="674.13" y="81.01" xlink:href="#hl"/>
<use x="674.13" y="75.01" xlink:href="#hl"/>
<use x="674.13" y="75.01" xlink:href="#hd"/>
<path d="M670.63 75.01v35.20" stroke="currentColor" fill="none"/>
</g>
</svg>
