<?xml version="1.0" standalone="no"?>
<!DOCTYPE svg PUBLIC "-//W3C//DTD SVG 1.1//EN"
	"http://www.w3.org/Graphics/SVG/1.1/DTD/svg11.dtd">
<svg xmlns="http://www.w3.org/2000/svg" version="1.1"
	xmlns:xlink="http://www.w3.org/1999/xlink"
	xml:space='preserve' color="black"
	width="7.38in" height="1.38in" viewBox="0 0 531 99">
<title>9580.abc (9580) tune 1</title>
<!-- Creator: abcm2ps-7.8.14 -->
<!-- CreationDate: Mar 13, 2016 18:54 -->
<!-- CommandLine: -qxg 9580.abc -O ../svgs/9580.svg -->
<g transform="scale(0.750)" stroke-width="0.70" font-family="Times" font-size="20.00">
<text x="354.13" y="21.67" text-anchor="middle">9580.  La Guitarre</text>
</g>
<g transform="scale(0.750)" stroke-width="0.70" font-family="Times" font-size="14.00" font-style="italic">
<text x="694.93" y="45.34" text-anchor="end">Louis Claude Daquin</text>
</g>
<g transform="scale(0.525)" stroke-width="0.70" font-family="Times" font-size="14.00" font-style="italic">
<defs>
<ellipse id="hd" rx="4.1" ry="2.9"
	transform="rotate(-20)" fill="currentColor"/>
</defs>
<use x="107.04" y="94.16" xlink:href="#hd"/>
<path d="M110.54 94.16v-20.00" stroke="currentColor" fill="none"/>
</g>
<g transform="scale(0.750)" stroke-width="0.70" font-family="Times" font-size="15.00" font-weight="bold">
<text x="82.63" y="68.01">= 120</text>
<path stroke="currentColor" fill="none"
	d="M183.33 109.01v-24.00"/>
<path stroke="currentColor" fill="none"
	d="M273.93 109.01v-24.00"/>
<path stroke="currentColor" fill="none"
	d="M395.43 109.01v-24.00"/>
<path stroke="currentColor" fill="none"
	d="M486.03 109.01v-24.00"/>
<path stroke="currentColor" fill="none"
	d="M607.53 109.01v-24.00"/>
<path stroke="currentColor" fill="none"
	d="M13.33 109.01h681.60m-681.60 -6h681.60m-681.60 -6h681.60m-681.60 -6h681.60m-681.60 -6h681.60"/>
<defs>
<path id="utclef" fill="currentColor" d="m-50 -90
	c-72 -41 -72 -158 52 -188
	c150 -10 220 188 90 256
	c-114 52 -275 0 -293 -136
	c-15 -181 93 -229 220 -334
	c88 -87 79 -133 62 -210
	c-51 33 -94 105 -89 186
	c17 267 36 374 49 574
	c6 96 -19 134 -77 135
	c-80 1 -126 -93 -61 -133
	c85 -41 133 101 31 105
	c23 17 92 37 90 -92
	c-10 -223 -39 -342 -50 -617
	c0 -90 0 -162 96 -232
	c56 72 63 230 22 289
	c-74 106 -257 168 -255 316
	c9 153 148 185 252 133
	c86 -65 29 -192 -80 -176
	c-71 12 -105 67 -59 124"/>
<use id="tclef" transform="scale(0.045)"
	xlink:href="#utclef"/>
</defs>
<use x="25.33" y="109.01" xlink:href="#tclef"/>
<defs>
<path id="usharp" fill="currentColor" d="
	m136 -702
	v890
	h32
	v-890
	m128 840
	h32
	v-888
	h-32
	m-232 286
	v116
	l338 -96
	v-116
	m-338 442
	v116
	l338 -98
	v-114"/>
<use id="sh0" transform="translate(-4,5) scale(0.018)"
	xlink:href="#usharp"/>
</defs>
<use x="40.33" y="85.01" xlink:href="#sh0"/>
<g font-family="serif" font-size="16" font-weight="bold" font-style="normal"
	transform="translate(56.33,109.01) scale(1.2,1)">
	<text y="-1" text-anchor="middle">8</text>
	<text y="-13" text-anchor="middle">6</text>
</g>
<path fill="currentColor"
	d="M77.53 76.31l37.00 3.10v3.20l-37.00 -3.10"/>
<use x="74.33" y="97.01" xlink:href="#hd"/>
<path d="M77.83 97.01v-19.70" stroke="currentColor" fill="none"/>
<use x="92.53" y="97.01" xlink:href="#hd"/>
<path d="M96.03 97.01v-18.20" stroke="currentColor" fill="none"/>
<use x="110.63" y="103.01" xlink:href="#hd"/>
<path d="M114.13 103.01v-22.70" stroke="currentColor" fill="none"/>
<path fill="currentColor"
	d="M133.93 76.31l37.00 3.10v3.20l-37.00 -3.10"/>
<use x="130.73" y="97.01" xlink:href="#hd"/>
<path d="M134.23 97.01v-19.70" stroke="currentColor" fill="none"/>
<use x="148.93" y="97.01" xlink:href="#hd"/>
<path d="M152.43 97.01v-18.20" stroke="currentColor" fill="none"/>
<use x="167.03" y="103.01" xlink:href="#hd"/>
<path d="M170.53 103.01v-22.70" stroke="currentColor" fill="none"/>
<use x="195.83" y="97.01" xlink:href="#hd"/>
<path d="M199.33 97.01v-20.00" stroke="currentColor" fill="none"/>
<path fill="currentColor"
	d="	M199.33 77.01c0.6 5.6 9.6 9 5.6 18.4
	c1.6 -6 -1.3 -11.6 -5.6 -12.8
"/>
<defs>
<path id="Hd" fill="currentColor" d="m3 -1.6
	c-1 -1.8 -7 1.4 -6 3.2
	c1 1.8 7 -1.4 6 -3.2
	m0.5 -0.3
	c2 3.8 -5 7.6 -7 3.8
	c-2 -3.8 5 -7.6 7 -3.8"/>
</defs>
<use x="216.63" y="100.01" xlink:href="#Hd"/>
<path d="M220.13 100.01v-20.00" stroke="currentColor" fill="none"/>
<use x="256.93" y="100.01" xlink:href="#hd"/>
<path d="M260.43 100.01v-20.00" stroke="currentColor" fill="none"/>
<path fill="currentColor"
	d="	M260.43 80.01c0.6 5.6 9.6 9 5.6 18.4
	c1.6 -6 -1.3 -11.6 -5.6 -12.8
"/>
<path fill="currentColor"
	d="M289.63 77.81l37.00 0.00v3.20l-37.00 -0.00"/>
<use x="286.43" y="100.01" xlink:href="#hd"/>
<path d="M289.93 100.01v-21.20" stroke="currentColor" fill="none"/>
<use x="304.63" y="97.01" xlink:href="#hd"/>
<path d="M308.13 97.01v-18.20" stroke="currentColor" fill="none"/>
<use x="322.73" y="103.01" xlink:href="#hd"/>
<path d="M326.23 103.01v-24.20" stroke="currentColor" fill="none"/>
<path fill="currentColor"
	d="M346.03 76.31l37.00 3.10v3.20l-37.00 -3.10"/>
<use x="342.83" y="97.01" xlink:href="#hd"/>
<path d="M346.33 97.01v-19.70" stroke="currentColor" fill="none"/>
<use x="361.03" y="97.01" xlink:href="#hd"/>
<path d="M364.53 97.01v-18.20" stroke="currentColor" fill="none"/>
<use x="379.23" y="103.01" xlink:href="#hd"/>
<path d="M382.73 103.01v-22.70" stroke="currentColor" fill="none"/>
<use x="407.93" y="97.01" xlink:href="#hd"/>
<path d="M411.43 97.01v-20.00" stroke="currentColor" fill="none"/>
<path fill="currentColor"
	d="	M411.43 77.01c0.6 5.6 9.6 9 5.6 18.4
	c1.6 -6 -1.3 -11.6 -5.6 -12.8
"/>
<use x="428.83" y="100.01" xlink:href="#Hd"/>
<path d="M432.33 100.01v-20.00" stroke="currentColor" fill="none"/>
<use x="469.03" y="100.01" xlink:href="#hd"/>
<path d="M472.53 100.01v-20.00" stroke="currentColor" fill="none"/>
<path fill="currentColor"
	d="	M472.53 80.01c0.6 5.6 9.6 9 5.6 18.4
	c1.6 -6 -1.3 -11.6 -5.6 -12.8
"/>
<path fill="currentColor"
	d="M494.73 113.21l37.00 3.10v-3.20l-37.00 -3.10"/>
<use x="498.53" y="91.01" xlink:href="#hd"/>
<path d="M495.03 91.01v21.20" stroke="currentColor" fill="none"/>
<use x="516.73" y="91.01" xlink:href="#hd"/>
<path d="M513.23 91.01v22.70" stroke="currentColor" fill="none"/>
<use x="534.93" y="97.01" xlink:href="#hd"/>
<path d="M531.43 97.01v18.20" stroke="currentColor" fill="none"/>
<path fill="currentColor"
	d="M551.13 122.21l37.00 0.00v-3.20l-37.00 -0.00"/>
<use x="554.93" y="103.01" xlink:href="#hd"/>
<path d="M551.43 103.01v18.20" stroke="currentColor" fill="none"/>
<use x="573.13" y="88.01" xlink:href="#hd"/>
<path d="M569.63 88.01v33.20" stroke="currentColor" fill="none"/>
<use x="591.33" y="100.01" xlink:href="#hd"/>
<path d="M587.83 100.01v21.20" stroke="currentColor" fill="none"/>
<path fill="currentColor"
	d="M616.23 122.21l37.00 -3.10v-3.20l-37.00 3.10"/>
<use x="620.03" y="103.01" xlink:href="#hd"/>
<path d="M616.53 103.01v18.20" stroke="currentColor" fill="none"/>
<use x="638.23" y="91.01" xlink:href="#hd"/>
<path d="M634.73 91.01v28.70" stroke="currentColor" fill="none"/>
<use x="656.43" y="97.01" xlink:href="#hd"/>
<path d="M652.93 97.01v21.20" stroke="currentColor" fill="none"/>
<use x="674.53" y="103.01" xlink:href="#hd"/>
<path d="M678.03 103.01v-20.00" stroke="currentColor" fill="none"/>
<path fill="currentColor"
	d="	M678.03 83.01c0.6 5.6 9.6 9 5.6 18.4
	c1.6 -6 -1.3 -11.6 -5.6 -12.8
"/>
<path fill="currentColor"
	d="M220.13 102.01c5.24 5.10 28.03 5.10 33.27 -0.00
	l0.00 0.23c-6.24 6.87 -27.03 6.87 -33.27 -0.23"/>
<path fill="currentColor"
	d="M432.33 102.01c5.24 5.10 28.03 5.10 33.27 -0.00
	l0.00 0.23c-6.24 6.87 -27.03 6.87 -33.27 -0.23"/>
</g>
</svg>
