<?xml version="1.0" standalone="no"?>
<!DOCTYPE svg PUBLIC "-//W3C//DTD SVG 1.1//EN"
	"http://www.w3.org/Graphics/SVG/1.1/DTD/svg11.dtd">
<svg xmlns="http://www.w3.org/2000/svg" version="1.1"
	xmlns:xlink="http://www.w3.org/1999/xlink"
	xml:space='preserve' color="black"
	width="7.38in" height="1.40in" viewBox="0 0 531 101">
<title>9585.abc (9585) tune 1</title>
<!-- Creator: abcm2ps-7.8.14 -->
<!-- CreationDate: Mar 13, 2016 18:54 -->
<!-- CommandLine: -qxg 9585.abc -O ../svgs/9585.svg -->
<g transform="scale(0.750)" stroke-width="0.70" font-family="Times" font-size="20.00">
<text x="354.13" y="21.67" text-anchor="middle">9585.  Noel No. 10</text>
</g>
<g transform="scale(0.750)" stroke-width="0.70" font-family="Times" font-size="14.00" font-style="italic">
<text x="694.93" y="45.34" text-anchor="end">Louis Claude Daquin</text>
</g>
<g transform="scale(0.525)" stroke-width="0.70" font-family="Times" font-size="14.00" font-style="italic">
<defs>
<ellipse id="hd" rx="4.1" ry="2.9"
	transform="rotate(-20)" fill="currentColor"/>
</defs>
<use x="107.04" y="94.16" xlink:href="#hd"/>
<path d="M110.54 94.16v-20.00" stroke="currentColor" fill="none"/>
</g>
<g transform="scale(0.750)" stroke-width="0.70" font-family="Times" font-size="15.00" font-weight="bold">
<text x="82.63" y="68.01">= 120</text>
<path stroke="currentColor" fill="none"
	d="M227.33 111.01v-24.00"/>
<path stroke="currentColor" fill="none"
	d="M388.93 111.01v-24.00"/>
<path stroke="currentColor" fill="none"
	d="M554.73 111.01v-24.00"/>
<path stroke="currentColor" fill="none"
	d="M694.93 111.01v-24.00"/>
<path stroke="currentColor" fill="none"
	d="M13.33 111.01h681.60m-681.60 -6h681.60m-681.60 -6h681.60m-681.60 -6h681.60m-681.60 -6h681.60"/>
<defs>
<path id="utclef" fill="currentColor" d="m-50 -90
	c-72 -41 -72 -158 52 -188
	c150 -10 220 188 90 256
	c-114 52 -275 0 -293 -136
	c-15 -181 93 -229 220 -334
	c88 -87 79 -133 62 -210
	c-51 33 -94 105 -89 186
	c17 267 36 374 49 574
	c6 96 -19 134 -77 135
	c-80 1 -126 -93 -61 -133
	c85 -41 133 101 31 105
	c23 17 92 37 90 -92
	c-10 -223 -39 -342 -50 -617
	c0 -90 0 -162 96 -232
	c56 72 63 230 22 289
	c-74 106 -257 168 -255 316
	c9 153 148 185 252 133
	c86 -65 29 -192 -80 -176
	c-71 12 -105 67 -59 124"/>
<use id="tclef" transform="scale(0.045)"
	xlink:href="#utclef"/>
</defs>
<use x="25.33" y="111.01" xlink:href="#tclef"/>
<defs>
<path id="usharp" fill="currentColor" d="
	m136 -702
	v890
	h32
	v-890
	m128 840
	h32
	v-888
	h-32
	m-232 286
	v116
	l338 -96
	v-116
	m-338 442
	v116
	l338 -98
	v-114"/>
<use id="sh0" transform="translate(-4,5) scale(0.018)"
	xlink:href="#usharp"/>
</defs>
<use x="40.33" y="87.01" xlink:href="#sh0"/>
<g font-family="serif" font-size="16" font-weight="bold" font-style="normal"
	transform="translate(56.33,111.01) scale(1.2,1)">
	<text y="-1" text-anchor="middle">2</text>
	<text y="-13" text-anchor="middle">2</text>
</g>
<defs>
<path id="hl" stroke="currentColor" d="m-6 0h12"/>
</defs>
<use x="74.33" y="81.01" xlink:href="#hl"/>
<use x="74.33" y="78.01" xlink:href="#hd"/>
<path d="M70.83 78.01v21.00" stroke="currentColor" fill="none"/>
<use x="105.83" y="81.01" xlink:href="#hl"/>
<use x="105.83" y="78.01" xlink:href="#hd"/>
<path d="M102.33 78.01v21.00" stroke="currentColor" fill="none"/>
<path fill="currentColor"
	d="M133.43 111.21l31.80 0.00v-3.20l-31.80 -0.00"/>
<path fill="currentColor"
	d="M133.73 106.21l31.10 0.00v-3.20l-31.10 -0.00"/>
<path fill="currentColor"
	d="M133.73 101.21l31.10 0.00v-3.20l-31.10 -0.00"/>
<use x="137.23" y="81.01" xlink:href="#hl"/>
<use x="137.23" y="81.01" xlink:href="#hd"/>
<path d="M133.73 81.01v29.20" stroke="currentColor" fill="none"/>
<use x="147.53" y="84.01" xlink:href="#hd"/>
<path d="M144.03 84.01v26.20" stroke="currentColor" fill="none"/>
<use x="157.83" y="81.01" xlink:href="#hl"/>
<use x="157.83" y="81.01" xlink:href="#hd"/>
<path d="M154.33 81.01v29.20" stroke="currentColor" fill="none"/>
<use x="168.33" y="81.01" xlink:href="#hl"/>
<use x="168.33" y="78.01" xlink:href="#hd"/>
<path d="M164.83 78.01v32.20" stroke="currentColor" fill="none"/>
<use x="179.83" y="81.01" xlink:href="#hl"/>
<use x="179.83" y="81.01" xlink:href="#hd"/>
<path d="M176.33 81.01v20.00" stroke="currentColor" fill="none"/>
<path fill="currentColor"
	d="M176.33 101.01c0.6 -5.6 9.6 -9 5.6 -18.4
	c1.6 6 -1.3 11.6 -5.6 12.8
"/>
<use x="202.13" y="84.01" xlink:href="#hd"/>
<path d="M198.63 84.01v20.00" stroke="currentColor" fill="none"/>
<use x="239.83" y="81.01" xlink:href="#hl"/>
<use x="239.83" y="75.01" xlink:href="#hl"/>
<use x="239.83" y="72.01" xlink:href="#hd"/>
<path d="M236.33 72.01v27.00" stroke="currentColor" fill="none"/>
<use x="271.33" y="81.01" xlink:href="#hl"/>
<use x="271.33" y="75.01" xlink:href="#hl"/>
<use x="271.33" y="72.01" xlink:href="#hd"/>
<path d="M267.83 72.01v27.00" stroke="currentColor" fill="none"/>
<path fill="currentColor"
	d="M298.93 101.01l15.10 2.20v-3.20l-15.10 -2.20"/>
<path fill="currentColor"
	d="M299.33 96.11l14.40 2.10v-3.20l-14.40 -2.10"/>
<use x="302.83" y="81.01" xlink:href="#hl"/>
<use x="302.83" y="78.01" xlink:href="#hd"/>
<path d="M299.33 78.01v22.10" stroke="currentColor" fill="none"/>
<use x="317.23" y="81.01" xlink:href="#hl"/>
<use x="317.23" y="81.01" xlink:href="#hd"/>
<path d="M313.73 81.01v21.20" stroke="currentColor" fill="none"/>
<path fill="currentColor"
	d="M329.43 101.01l15.10 0.00v-3.20l-15.10 -0.00"/>
<path fill="currentColor"
	d="M329.73 96.01l14.40 0.00v-3.20l-14.40 -0.00"/>
<use x="333.23" y="81.01" xlink:href="#hl"/>
<use x="333.23" y="78.01" xlink:href="#hd"/>
<path d="M329.73 78.01v22.00" stroke="currentColor" fill="none"/>
<use x="347.63" y="81.01" xlink:href="#hl"/>
<use x="347.63" y="75.01" xlink:href="#hl"/>
<use x="347.63" y="75.01" xlink:href="#hd"/>
<path d="M344.13 75.01v25.00" stroke="currentColor" fill="none"/>
<use x="363.63" y="81.01" xlink:href="#hl"/>
<use x="363.63" y="78.01" xlink:href="#hd"/>
<path d="M360.13 78.01v21.00" stroke="currentColor" fill="none"/>
<use x="401.43" y="81.01" xlink:href="#hl"/>
<use x="401.43" y="75.01" xlink:href="#hl"/>
<use x="401.43" y="72.01" xlink:href="#hd"/>
<path d="M397.93 72.01v27.00" stroke="currentColor" fill="none"/>
<use x="432.83" y="84.01" xlink:href="#hd"/>
<path d="M429.33 84.01v20.00" stroke="currentColor" fill="none"/>
<path fill="currentColor"
	d="M460.33 105.21l32.20 0.00v-3.20l-32.20 -0.00"/>
<path fill="currentColor"
	d="M460.63 100.21l31.50 0.00v-3.20l-31.50 -0.00"/>
<path fill="currentColor"
	d="M460.63 95.21l31.50 0.00v-3.20l-31.50 -0.00"/>
<use x="464.13" y="81.01" xlink:href="#hl"/>
<use x="464.13" y="75.01" xlink:href="#hl"/>
<use x="464.13" y="75.01" xlink:href="#hd"/>
<path d="M460.63 75.01v29.20" stroke="currentColor" fill="none"/>
<use x="474.63" y="81.01" xlink:href="#hl"/>
<use x="474.63" y="78.01" xlink:href="#hd"/>
<path d="M471.13 78.01v26.20" stroke="currentColor" fill="none"/>
<use x="485.13" y="81.01" xlink:href="#hl"/>
<use x="485.13" y="75.01" xlink:href="#hl"/>
<use x="485.13" y="75.01" xlink:href="#hd"/>
<path d="M481.63 75.01v29.20" stroke="currentColor" fill="none"/>
<use x="495.63" y="81.01" xlink:href="#hl"/>
<use x="495.63" y="75.01" xlink:href="#hl"/>
<use x="495.63" y="72.01" xlink:href="#hd"/>
<path d="M492.13 72.01v32.20" stroke="currentColor" fill="none"/>
<use x="507.13" y="81.01" xlink:href="#hl"/>
<use x="507.13" y="75.01" xlink:href="#hl"/>
<use x="507.13" y="75.01" xlink:href="#hd"/>
<path d="M503.63 75.01v24.00" stroke="currentColor" fill="none"/>
<path fill="currentColor"
	d="M503.63 99.01c0.6 -5.6 9.6 -9 5.6 -18.4
	c1.6 6 -1.3 11.6 -5.6 12.8
"/>
<use x="529.53" y="81.01" xlink:href="#hl"/>
<use x="529.53" y="78.01" xlink:href="#hd"/>
<path d="M526.03 78.01v21.00" stroke="currentColor" fill="none"/>
<path fill="currentColor"
	d="M563.43 104.01l15.00 2.20v-3.20l-15.00 -2.20"/>
<path fill="currentColor"
	d="M563.73 99.11l14.40 2.10v-3.20l-14.40 -2.10"/>
<use x="567.23" y="81.01" xlink:href="#hl"/>
<use x="567.23" y="81.01" xlink:href="#hd"/>
<path d="M563.73 81.01v22.10" stroke="currentColor" fill="none"/>
<use x="581.63" y="84.01" xlink:href="#hd"/>
<path d="M578.13 84.01v21.20" stroke="currentColor" fill="none"/>
<path fill="currentColor"
	d="M593.73 103.21l15.10 -2.20v-3.20l-15.10 2.20"/>
<path fill="currentColor"
	d="M594.03 98.21l14.40 -2.10v-3.20l-14.40 2.10"/>
<use x="597.53" y="81.01" xlink:href="#hl"/>
<use x="597.53" y="81.01" xlink:href="#hd"/>
<path d="M594.03 81.01v21.20" stroke="currentColor" fill="none"/>
<use x="612.03" y="81.01" xlink:href="#hl"/>
<use x="612.03" y="78.01" xlink:href="#hd"/>
<path d="M608.53 78.01v22.10" stroke="currentColor" fill="none"/>
<use x="628.03" y="81.01" xlink:href="#hl"/>
<use x="628.03" y="81.01" xlink:href="#hd"/>
<path d="M624.53 81.01v20.00" stroke="currentColor" fill="none"/>
<defs>
<path id="Hd" fill="currentColor" d="m3 -1.6
	c-1 -1.8 -7 1.4 -6 3.2
	c1 1.8 7 -1.4 6 -3.2
	m0.5 -0.3
	c2 3.8 -5 7.6 -7 3.8
	c-2 -3.8 5 -7.6 7 -3.8"/>
</defs>
<use x="659.43" y="84.01" xlink:href="#Hd"/>
<path d="M655.93 84.01v20.00" stroke="currentColor" fill="none"/>
</g>
</svg>
