<?xml version="1.0" standalone="no"?>
<!DOCTYPE svg PUBLIC "-//W3C//DTD SVG 1.1//EN"
	"http://www.w3.org/Graphics/SVG/1.1/DTD/svg11.dtd">
<svg xmlns="http://www.w3.org/2000/svg" version="1.1"
	xmlns:xlink="http://www.w3.org/1999/xlink"
	xml:space='preserve' color="black"
	width="7.38in" height="1.57in" viewBox="0 0 531 113">
<title>9588.abc (9588) tune 1</title>
<!-- Creator: abcm2ps-7.8.14 -->
<!-- CreationDate: Mar 13, 2016 18:54 -->
<!-- CommandLine: -qxg 9588.abc -O ../svgs/9588.svg -->
<g transform="scale(0.750)" stroke-width="0.70" font-family="Times" font-size="20.00">
<text x="354.13" y="21.67" text-anchor="middle">9588.  Roussalka, Opera Dance of the Nymphs - 1st. Theme</text>
</g>
<g transform="scale(0.750)" stroke-width="0.70" font-family="Times" font-size="14.00" font-style="italic">
<text x="694.93" y="45.34" text-anchor="end">Alexander Sergeivich Dargomijsky</text>
</g>
<g transform="scale(0.525)" stroke-width="0.70" font-family="Times" font-size="14.00" font-style="italic">
<defs>
<ellipse id="hd" rx="4.1" ry="2.9"
	transform="rotate(-20)" fill="currentColor"/>
</defs>
<use x="114.90" y="94.16" xlink:href="#hd"/>
<path d="M118.40 94.16v-20.00" stroke="currentColor" fill="none"/>
</g>
<g transform="scale(0.750)" stroke-width="0.70" font-family="Times" font-size="15.00" font-weight="bold">
<text x="88.13" y="68.01">= 120</text>
<path stroke="currentColor" fill="none"
	d="M148.43 128.01v-24.00"/>
<path stroke="currentColor" fill="none"
	d="M256.63 128.01v-24.00"/>
<path stroke="currentColor" fill="none"
	d="M358.23 128.01v-24.00"/>
<path stroke="currentColor" fill="none"
	d="M466.53 128.01v-24.00"/>
<path stroke="currentColor" fill="none"
	d="M543.93 128.01v-24.00"/>
<path stroke="currentColor" fill="none"
	d="M653.33 128.01v-24.00"/>
<path stroke="currentColor" fill="none"
	d="M13.33 128.01h681.60m-681.60 -6h681.60m-681.60 -6h681.60m-681.60 -6h681.60m-681.60 -6h681.60"/>
<defs>
<path id="utclef" fill="currentColor" d="m-50 -90
	c-72 -41 -72 -158 52 -188
	c150 -10 220 188 90 256
	c-114 52 -275 0 -293 -136
	c-15 -181 93 -229 220 -334
	c88 -87 79 -133 62 -210
	c-51 33 -94 105 -89 186
	c17 267 36 374 49 574
	c6 96 -19 134 -77 135
	c-80 1 -126 -93 -61 -133
	c85 -41 133 101 31 105
	c23 17 92 37 90 -92
	c-10 -223 -39 -342 -50 -617
	c0 -90 0 -162 96 -232
	c56 72 63 230 22 289
	c-74 106 -257 168 -255 316
	c9 153 148 185 252 133
	c86 -65 29 -192 -80 -176
	c-71 12 -105 67 -59 124"/>
<use id="tclef" transform="scale(0.045)"
	xlink:href="#utclef"/>
</defs>
<use x="25.33" y="128.01" xlink:href="#tclef"/>
<defs>
<path id="uflat" fill="currentColor" d="
	m100 -746
	h32
	v734
	l-32 4
	m32 -332
	c46 -72 152 -90 208 -20
	c100 110 -120 326 -208 348
	m0 -28
	c54 0 200 -206 130 -290
	c-50 -60 -130 -4 -130 34"/>
<use id="ft0" transform="translate(-3.5,3.5) scale(0.018)"
	xlink:href="#uflat"/>
</defs>
<use x="40.33" y="116.01" xlink:href="#ft0"/>
<use x="45.83" y="107.01" xlink:href="#ft0"/>
<g font-family="serif" font-size="16" font-weight="bold" font-style="normal"
	transform="translate(61.83,128.01) scale(1.2,1)">
	<text y="-1" text-anchor="middle">4</text>
	<text y="-13" text-anchor="middle">2</text>
</g>
<defs>
<path id="hl" stroke="currentColor" d="m-6 0h12"/>
</defs>
<use x="79.83" y="98.01" xlink:href="#hl"/>
<use x="79.83" y="92.01" xlink:href="#hl"/>
<use x="79.83" y="89.01" xlink:href="#hd"/>
<path d="M76.33 89.01v27.00" stroke="currentColor" fill="none"/>
<path fill="currentColor"
	d="M106.53 116.21l26.20 0.00v-3.20l-26.20 -0.00"/>
<path fill="currentColor"
	d="M126.43 111.21l6.00 0.00v-3.20l-6.00 -0.00"/>
<use x="110.43" y="98.01" xlink:href="#hl"/>
<use x="110.43" y="92.01" xlink:href="#hl"/>
<use x="110.43" y="86.01" xlink:href="#hl"/>
<use x="110.43" y="80.01" xlink:href="#hl"/>
<use x="110.43" y="80.01" xlink:href="#hd"/>
<circle fill="currentColor" cx="118.43" cy="77.01" r="1.2"/>
<use x="101.43" y="80.01" xlink:href="#ft0"/>
<path d="M106.93 80.01v35.20" stroke="currentColor" fill="none"/>
<use x="135.93" y="98.01" xlink:href="#hl"/>
<use x="135.93" y="92.01" xlink:href="#hl"/>
<use x="135.93" y="86.01" xlink:href="#hl"/>
<use x="135.93" y="80.01" xlink:href="#hl"/>
<use x="135.93" y="80.01" xlink:href="#hd"/>
<defs>
<path id="unat" fill="currentColor" d="
	m96 -750
	h-32
	v716
	l32 -8
	l182 -54
	v282
	h32
	v-706
	l-34 10
	l-180 50
	v-290
	m0 592
	v-190
	l182 -52
	v188"/>
<use id="nt0" transform="translate(-3,5) scale(0.018)"
	xlink:href="#unat"/>
</defs>
<use x="126.93" y="80.01" xlink:href="#nt0"/>
<path d="M132.43 80.01v35.20" stroke="currentColor" fill="none"/>
<use x="160.93" y="98.01" xlink:href="#hl"/>
<use x="160.93" y="92.01" xlink:href="#hl"/>
<use x="160.93" y="89.01" xlink:href="#hd"/>
<path d="M157.43 89.01v27.00" stroke="currentColor" fill="none"/>
<path fill="currentColor"
	d="M157.43 116.01c0.6 -5.6 9.6 -9 5.6 -18.4
	c1.6 6 -1.3 11.6 -5.6 12.8
"/>
<path fill="currentColor"
	d="M178.43 116.91l25.20 0.00v-3.20l-25.20 -0.00"/>
<path fill="currentColor"
	d="M178.73 111.91l24.50 0.00v-3.20l-24.50 -0.00"/>
<path fill="currentColor"
	d="M192.83 106.91l10.50 0.00v-3.20l-10.50 -0.00"/>
<use x="182.23" y="98.01" xlink:href="#hl"/>
<use x="182.23" y="92.01" xlink:href="#hl"/>
<use x="182.23" y="92.01" xlink:href="#hd"/>
<path d="M178.73 92.01v24.00" stroke="currentColor" fill="none"/>
<use x="196.33" y="98.01" xlink:href="#hl"/>
<use x="196.33" y="92.01" xlink:href="#hl"/>
<use x="196.33" y="89.01" xlink:href="#hd"/>
<path d="M192.83 89.01v27.00" stroke="currentColor" fill="none"/>
<use x="206.83" y="98.01" xlink:href="#hl"/>
<use x="206.83" y="92.01" xlink:href="#hl"/>
<use x="206.83" y="92.01" xlink:href="#hd"/>
<path d="M203.33 92.01v24.00" stroke="currentColor" fill="none"/>
<use x="218.03" y="98.01" xlink:href="#hl"/>
<use x="218.03" y="95.01" xlink:href="#hd"/>
<path d="M214.53 95.01v21.00" stroke="currentColor" fill="none"/>
<path fill="currentColor"
	d="M214.53 116.01c0.6 -5.6 9.6 -9 5.6 -18.4
	c1.6 6 -1.3 11.6 -5.6 12.8
"/>
<use x="239.43" y="98.01" xlink:href="#hl"/>
<use x="239.43" y="92.01" xlink:href="#hl"/>
<use x="239.43" y="92.01" xlink:href="#hd"/>
<path d="M235.93 92.01v24.00" stroke="currentColor" fill="none"/>
<path fill="currentColor"
	d="M235.93 116.01c0.6 -5.6 9.6 -9 5.6 -18.4
	c1.6 6 -1.3 11.6 -5.6 12.8
"/>
<use x="269.13" y="98.01" xlink:href="#hl"/>
<use x="269.13" y="92.01" xlink:href="#hl"/>
<use x="269.13" y="89.01" xlink:href="#hd"/>
<path d="M265.63 89.01v27.00" stroke="currentColor" fill="none"/>
<path fill="currentColor"
	d="M295.93 116.21l14.70 0.00v-3.20l-14.70 -0.00"/>
<path fill="currentColor"
	d="M296.23 111.21l14.00 0.00v-3.20l-14.00 -0.00"/>
<use x="299.73" y="98.01" xlink:href="#hl"/>
<use x="299.73" y="92.01" xlink:href="#hl"/>
<use x="299.73" y="86.01" xlink:href="#hl"/>
<use x="299.73" y="80.01" xlink:href="#hl"/>
<use x="299.73" y="80.01" xlink:href="#hd"/>
<use x="290.73" y="80.01" xlink:href="#ft0"/>
<path d="M296.23 80.01v35.20" stroke="currentColor" fill="none"/>
<use x="313.73" y="98.01" xlink:href="#hl"/>
<use x="313.73" y="92.01" xlink:href="#hl"/>
<use x="313.73" y="86.01" xlink:href="#hl"/>
<use x="313.73" y="80.01" xlink:href="#hl"/>
<use x="313.73" y="77.01" xlink:href="#hd"/>
<path d="M310.23 77.01v38.20" stroke="currentColor" fill="none"/>
<path fill="currentColor"
	d="M327.93 116.21l14.70 0.00v-3.20l-14.70 -0.00"/>
<path fill="currentColor"
	d="M328.23 111.21l14.00 0.00v-3.20l-14.00 -0.00"/>
<use x="331.73" y="98.01" xlink:href="#hl"/>
<use x="331.73" y="92.01" xlink:href="#hl"/>
<use x="331.73" y="86.01" xlink:href="#hl"/>
<use x="331.73" y="80.01" xlink:href="#hl"/>
<use x="331.73" y="80.01" xlink:href="#hd"/>
<use x="322.73" y="80.01" xlink:href="#nt0"/>
<path d="M328.23 80.01v35.20" stroke="currentColor" fill="none"/>
<use x="345.73" y="98.01" xlink:href="#hl"/>
<use x="345.73" y="92.01" xlink:href="#hl"/>
<use x="345.73" y="86.01" xlink:href="#hl"/>
<use x="345.73" y="86.01" xlink:href="#hd"/>
<path d="M342.23 86.01v29.20" stroke="currentColor" fill="none"/>
<use x="370.73" y="98.01" xlink:href="#hl"/>
<use x="370.73" y="92.01" xlink:href="#hl"/>
<use x="370.73" y="89.01" xlink:href="#hd"/>
<path d="M367.23 89.01v27.00" stroke="currentColor" fill="none"/>
<path fill="currentColor"
	d="M367.23 116.01c0.6 -5.6 9.6 -9 5.6 -18.4
	c1.6 6 -1.3 11.6 -5.6 12.8
"/>
<path fill="currentColor"
	d="M388.33 116.91l25.20 0.00v-3.20l-25.20 -0.00"/>
<path fill="currentColor"
	d="M388.63 111.91l24.50 0.00v-3.20l-24.50 -0.00"/>
<path fill="currentColor"
	d="M402.63 106.91l10.50 0.00v-3.20l-10.50 -0.00"/>
<use x="392.13" y="98.01" xlink:href="#hl"/>
<use x="392.13" y="92.01" xlink:href="#hl"/>
<use x="392.13" y="92.01" xlink:href="#hd"/>
<path d="M388.63 92.01v24.00" stroke="currentColor" fill="none"/>
<use x="406.13" y="98.01" xlink:href="#hl"/>
<use x="406.13" y="92.01" xlink:href="#hl"/>
<use x="406.13" y="89.01" xlink:href="#hd"/>
<path d="M402.63 89.01v27.00" stroke="currentColor" fill="none"/>
<use x="416.63" y="98.01" xlink:href="#hl"/>
<use x="416.63" y="92.01" xlink:href="#hl"/>
<use x="416.63" y="92.01" xlink:href="#hd"/>
<path d="M413.13 92.01v24.00" stroke="currentColor" fill="none"/>
<use x="427.93" y="98.01" xlink:href="#hl"/>
<use x="427.93" y="95.01" xlink:href="#hd"/>
<path d="M424.43 95.01v21.00" stroke="currentColor" fill="none"/>
<path fill="currentColor"
	d="M424.43 116.01c0.6 -5.6 9.6 -9 5.6 -18.4
	c1.6 6 -1.3 11.6 -5.6 12.8
"/>
<use x="449.33" y="98.01" xlink:href="#hl"/>
<use x="449.33" y="92.01" xlink:href="#hl"/>
<use x="449.33" y="92.01" xlink:href="#hd"/>
<path d="M445.83 92.01v24.00" stroke="currentColor" fill="none"/>
<path fill="currentColor"
	d="M445.83 116.01c0.6 -5.6 9.6 -9 5.6 -18.4
	c1.6 6 -1.3 11.6 -5.6 12.8
"/>
<use x="479.03" y="98.01" xlink:href="#hl"/>
<use x="479.03" y="92.01" xlink:href="#hl"/>
<use x="479.03" y="89.01" xlink:href="#hd"/>
<path d="M475.53 89.01v27.00" stroke="currentColor" fill="none"/>
<path fill="currentColor"
	d="M504.93 119.51l23.40 -3.00v-3.20l-23.40 3.00"/>
<path fill="currentColor"
	d="M521.93 112.31l6.00 -0.80v-3.20l-6.00 0.80"/>
<use x="508.83" y="98.01" xlink:href="#hl"/>
<use x="508.83" y="98.01" xlink:href="#hd"/>
<circle fill="currentColor" cx="516.83" cy="95.01" r="1.2"/>
<path d="M505.33 98.01v20.50" stroke="currentColor" fill="none"/>
<use x="531.43" y="98.01" xlink:href="#hl"/>
<use x="531.43" y="92.01" xlink:href="#hl"/>
<use x="531.43" y="92.01" xlink:href="#hd"/>
<path d="M527.93 92.01v23.50" stroke="currentColor" fill="none"/>
<path fill="currentColor"
	d="M552.63 118.01l14.70 2.20v-3.20l-14.70 -2.20"/>
<path fill="currentColor"
	d="M552.93 113.11l14.00 2.10v-3.20l-14.00 -2.10"/>
<use x="556.43" y="98.01" xlink:href="#hl"/>
<use x="556.43" y="95.01" xlink:href="#hd"/>
<path d="M552.93 95.01v22.10" stroke="currentColor" fill="none"/>
<use x="570.53" y="98.01" xlink:href="#hl"/>
<use x="570.53" y="98.01" xlink:href="#hd"/>
<path d="M567.03 98.01v21.20" stroke="currentColor" fill="none"/>
<path fill="currentColor"
	d="M581.93 123.31l14.50 -3.40v-3.20l-14.50 3.40"/>
<path fill="currentColor"
	d="M582.23 118.21l13.90 -3.20v-3.20l-13.90 3.20"/>
<use x="585.73" y="101.01" xlink:href="#hd"/>
<path d="M582.23 101.01v21.20" stroke="currentColor" fill="none"/>
<use x="599.63" y="98.01" xlink:href="#hl"/>
<use x="599.63" y="95.01" xlink:href="#hd"/>
<path d="M596.13 95.01v24.00" stroke="currentColor" fill="none"/>
<use x="614.93" y="107.01" xlink:href="#hd"/>
<path d="M611.43 107.01v20.00" stroke="currentColor" fill="none"/>
<path fill="currentColor"
	d="M611.43 127.01c0.6 -5.6 9.6 -9 5.6 -18.4
	c1.6 6 -1.3 11.6 -5.6 12.8
"/>
<use x="636.13" y="107.01" xlink:href="#hd"/>
<path d="M632.63 107.01v20.00" stroke="currentColor" fill="none"/>
<path fill="currentColor"
	d="M632.63 127.01c0.6 -5.6 9.6 -9 5.6 -18.4
	c1.6 6 -1.3 11.6 -5.6 12.8
"/>
<use x="665.83" y="110.01" xlink:href="#hd"/>
<path d="M662.33 110.01v20.00" stroke="currentColor" fill="none"/>
</g>
</svg>
