<?xml version="1.0" standalone="no"?>
<!DOCTYPE svg PUBLIC "-//W3C//DTD SVG 1.1//EN"
	"http://www.w3.org/Graphics/SVG/1.1/DTD/svg11.dtd">
<svg xmlns="http://www.w3.org/2000/svg" version="1.1"
	xmlns:xlink="http://www.w3.org/1999/xlink"
	xml:space='preserve' color="black"
	width="7.38in" height="1.68in" viewBox="0 0 531 121">
<title>9611.abc (9611) tune 1</title>
<!-- Creator: abcm2ps-7.8.14 -->
<!-- CreationDate: Mar 13, 2016 18:54 -->
<!-- CommandLine: -qxg 9611.abc -O ../svgs/9611.svg -->
<g transform="scale(0.750)" stroke-width="0.70" font-family="Times" font-size="20.00">
<text x="354.13" y="21.67" text-anchor="middle">9611.  Estampes - Pagodes</text>
</g>
<g transform="scale(0.750)" stroke-width="0.70" font-family="Times" font-size="14.00" font-style="italic">
<text x="694.93" y="45.34" text-anchor="end">Claude Debussy</text>
</g>
<g transform="scale(0.525)" stroke-width="0.70" font-family="Times" font-size="14.00" font-style="italic">
<defs>
<ellipse id="hd" rx="4.1" ry="2.9"
	transform="rotate(-20)" fill="currentColor"/>
</defs>
<use x="138.47" y="94.16" xlink:href="#hd"/>
<path d="M141.97 94.16v-20.00" stroke="currentColor" fill="none"/>
</g>
<g transform="scale(0.750)" stroke-width="0.70" font-family="Times" font-size="15.00" font-weight="bold">
<text x="104.63" y="68.01">= 120</text>
<path stroke="currentColor" fill="none"
	d="M366.03 138.01v-24.00"/>
<path stroke="currentColor" fill="none"
	d="M694.93 138.01v-24.00"/>
<path stroke="currentColor" fill="none"
	d="M13.33 138.01h681.60m-681.60 -6h681.60m-681.60 -6h681.60m-681.60 -6h681.60m-681.60 -6h681.60"/>
<text font-family="serif" font-size="12" font-style="italic" font-weight="normal"
	x="647.73" y="143.01" text-anchor="middle">3</text>
<defs>
<path id="utclef" fill="currentColor" d="m-50 -90
	c-72 -41 -72 -158 52 -188
	c150 -10 220 188 90 256
	c-114 52 -275 0 -293 -136
	c-15 -181 93 -229 220 -334
	c88 -87 79 -133 62 -210
	c-51 33 -94 105 -89 186
	c17 267 36 374 49 574
	c6 96 -19 134 -77 135
	c-80 1 -126 -93 -61 -133
	c85 -41 133 101 31 105
	c23 17 92 37 90 -92
	c-10 -223 -39 -342 -50 -617
	c0 -90 0 -162 96 -232
	c56 72 63 230 22 289
	c-74 106 -257 168 -255 316
	c9 153 148 185 252 133
	c86 -65 29 -192 -80 -176
	c-71 12 -105 67 -59 124"/>
<use id="tclef" transform="scale(0.045)"
	xlink:href="#utclef"/>
</defs>
<use x="25.33" y="138.01" xlink:href="#tclef"/>
<defs>
<path id="usharp" fill="currentColor" d="
	m136 -702
	v890
	h32
	v-890
	m128 840
	h32
	v-888
	h-32
	m-232 286
	v116
	l338 -96
	v-116
	m-338 442
	v116
	l338 -98
	v-114"/>
<use id="sh0" transform="translate(-4,5) scale(0.018)"
	xlink:href="#usharp"/>
</defs>
<use x="40.33" y="114.01" xlink:href="#sh0"/>
<use x="45.83" y="123.01" xlink:href="#sh0"/>
<use x="51.33" y="111.01" xlink:href="#sh0"/>
<use x="56.83" y="120.01" xlink:href="#sh0"/>
<use x="62.33" y="129.01" xlink:href="#sh0"/>
<g font-family="serif" font-size="16" font-weight="bold" font-style="normal"
	transform="translate(78.33,138.01) scale(1.2,1)">
	<text y="-1" text-anchor="middle">4</text>
	<text y="-13" text-anchor="middle">4</text>
</g>
<defs>
<path id="r8e" fill="currentColor" d="m 0 0
	c-1.5 1.5 -2.4 2 -3.6 2
	c2.4 -2.8 -2.8 -4 -2.8 -1.2
	c0 2.7 4.3 2.4 5.9 0.6"/>
<g id="r8">
	<path d="m3.3 -4l-3.4 9.6" stroke="currentColor" fill="none"/>
	<use x="3.4" y="-4" xlink:href="#r8e"/>
</g>
</defs>
<use x="96.33" y="126.01" xlink:href="#r8"/>
<path fill="currentColor"
	d="M126.93 133.31l22.60 -4.40v-3.20l-22.60 4.40"/>
<path fill="currentColor"
	d="M127.23 128.21l21.90 -4.30v-3.20l-21.90 4.30"/>
<use x="130.73" y="111.01" xlink:href="#hd"/>
<path d="M127.23 111.01v21.20" stroke="currentColor" fill="none"/>
<defs>
<path id="hl" stroke="currentColor" d="m-6 0h12"/>
</defs>
<use x="152.63" y="108.01" xlink:href="#hl"/>
<use x="152.63" y="102.01" xlink:href="#hl"/>
<use x="152.63" y="102.01" xlink:href="#hd"/>
<path d="M149.13 102.01v25.90" stroke="currentColor" fill="none"/>
<use x="176.93" y="108.01" xlink:href="#hl"/>
<use x="176.93" y="102.01" xlink:href="#hl"/>
<use x="176.93" y="99.01" xlink:href="#hd"/>
<circle fill="currentColor" cx="184.93" cy="99.01" r="1.2"/>
<path d="M173.43 99.01v27.00" stroke="currentColor" fill="none"/>
<path fill="currentColor"
	d="M228.43 126.21l22.60 0.00v-3.20l-22.60 -0.00"/>
<path fill="currentColor"
	d="M228.83 121.21l21.90 0.00v-3.20l-21.90 -0.00"/>
<use x="232.33" y="108.01" xlink:href="#hl"/>
<use x="232.33" y="102.01" xlink:href="#hl"/>
<use x="232.33" y="96.01" xlink:href="#hl"/>
<use x="232.33" y="93.01" xlink:href="#hd"/>
<path d="M228.83 93.01v32.20" stroke="currentColor" fill="none"/>
<use x="254.23" y="108.01" xlink:href="#hl"/>
<use x="254.23" y="102.01" xlink:href="#hl"/>
<use x="254.23" y="96.01" xlink:href="#hl"/>
<use x="254.23" y="90.01" xlink:href="#hl"/>
<use x="254.23" y="90.01" xlink:href="#hd"/>
<path d="M250.73 90.01v35.20" stroke="currentColor" fill="none"/>
<path fill="currentColor"
	d="M274.73 126.21l22.60 0.00v-3.20l-22.60 -0.00"/>
<path fill="currentColor"
	d="M275.03 121.21l21.90 0.00v-3.20l-21.90 -0.00"/>
<use x="278.53" y="108.01" xlink:href="#hl"/>
<use x="278.53" y="102.01" xlink:href="#hl"/>
<use x="278.53" y="99.01" xlink:href="#hd"/>
<path d="M275.03 99.01v26.20" stroke="currentColor" fill="none"/>
<use x="300.43" y="108.01" xlink:href="#hl"/>
<use x="300.43" y="102.01" xlink:href="#hl"/>
<use x="300.43" y="96.01" xlink:href="#hl"/>
<use x="300.43" y="93.01" xlink:href="#hd"/>
<path d="M296.93 93.01v32.20" stroke="currentColor" fill="none"/>
<path fill="currentColor"
	d="M320.93 126.21l22.60 0.00v-3.20l-22.60 -0.00"/>
<path fill="currentColor"
	d="M321.23 121.21l21.90 0.00v-3.20l-21.90 -0.00"/>
<use x="324.73" y="108.01" xlink:href="#hl"/>
<use x="324.73" y="102.01" xlink:href="#hl"/>
<use x="324.73" y="102.01" xlink:href="#hd"/>
<path d="M321.23 102.01v23.20" stroke="currentColor" fill="none"/>
<use x="346.63" y="108.01" xlink:href="#hl"/>
<use x="346.63" y="102.01" xlink:href="#hl"/>
<use x="346.63" y="99.01" xlink:href="#hd"/>
<path d="M343.13 99.01v26.20" stroke="currentColor" fill="none"/>
<use x="383.33" y="126.01" xlink:href="#r8"/>
<path fill="currentColor"
	d="M413.83 133.31l22.60 -4.40v-3.20l-22.60 4.40"/>
<path fill="currentColor"
	d="M414.23 128.21l21.90 -4.30v-3.20l-21.90 4.30"/>
<use x="417.73" y="111.01" xlink:href="#hd"/>
<path d="M414.23 111.01v21.20" stroke="currentColor" fill="none"/>
<use x="439.63" y="108.01" xlink:href="#hl"/>
<use x="439.63" y="102.01" xlink:href="#hl"/>
<use x="439.63" y="102.01" xlink:href="#hd"/>
<path d="M436.13 102.01v25.90" stroke="currentColor" fill="none"/>
<use x="463.93" y="108.01" xlink:href="#hl"/>
<use x="463.93" y="102.01" xlink:href="#hl"/>
<use x="463.93" y="99.01" xlink:href="#hd"/>
<path d="M460.43 99.01v27.00" stroke="currentColor" fill="none"/>
<path fill="currentColor"
	d="M460.43 126.01c0.6 -5.6 9.6 -9 5.6 -18.4
	c1.6 6 -1.3 11.6 -5.6 12.8
"/>
<path fill="currentColor"
	d="M494.43 126.21l22.60 0.00v-3.20l-22.60 -0.00"/>
<path fill="currentColor"
	d="M494.83 121.21l21.90 0.00v-3.20l-21.90 -0.00"/>
<use x="498.33" y="108.01" xlink:href="#hl"/>
<use x="498.33" y="102.01" xlink:href="#hl"/>
<use x="498.33" y="96.01" xlink:href="#hl"/>
<use x="498.33" y="90.01" xlink:href="#hl"/>
<use x="498.33" y="90.01" xlink:href="#hd"/>
<path d="M494.83 90.01v35.20" stroke="currentColor" fill="none"/>
<use x="520.23" y="108.01" xlink:href="#hl"/>
<use x="520.23" y="102.01" xlink:href="#hl"/>
<use x="520.23" y="96.01" xlink:href="#hl"/>
<use x="520.23" y="90.01" xlink:href="#hl"/>
<use x="520.23" y="84.01" xlink:href="#hl"/>
<use x="520.23" y="81.01" xlink:href="#hd"/>
<path d="M516.73 81.01v44.20" stroke="currentColor" fill="none"/>
<use x="544.53" y="108.01" xlink:href="#hl"/>
<use x="544.53" y="102.01" xlink:href="#hl"/>
<use x="544.53" y="96.01" xlink:href="#hl"/>
<use x="544.53" y="90.01" xlink:href="#hl"/>
<use x="544.53" y="84.01" xlink:href="#hl"/>
<use x="544.53" y="78.01" xlink:href="#hl"/>
<use x="544.53" y="78.01" xlink:href="#hd"/>
<path d="M541.03 78.01v48.00" stroke="currentColor" fill="none"/>
<path fill="currentColor"
	d="M541.03 126.01c0.6 -5.6 9.6 -9 5.6 -18.4
	c1.6 6 -1.3 11.6 -5.6 12.8
"/>
<path fill="currentColor"
	d="M575.13 126.21l22.60 0.00v-3.20l-22.60 -0.00"/>
<path fill="currentColor"
	d="M575.43 121.21l21.90 0.00v-3.20l-21.90 -0.00"/>
<use x="578.93" y="108.01" xlink:href="#hl"/>
<use x="578.93" y="102.01" xlink:href="#hl"/>
<use x="578.93" y="96.01" xlink:href="#hl"/>
<use x="578.93" y="90.01" xlink:href="#hl"/>
<use x="578.93" y="84.01" xlink:href="#hl"/>
<use x="578.93" y="78.01" xlink:href="#hl"/>
<use x="578.93" y="72.01" xlink:href="#hl"/>
<use x="578.93" y="69.01" xlink:href="#hd"/>
<path d="M575.43 69.01v56.20" stroke="currentColor" fill="none"/>
<use x="600.83" y="108.01" xlink:href="#hl"/>
<use x="600.83" y="102.01" xlink:href="#hl"/>
<use x="600.83" y="96.01" xlink:href="#hl"/>
<use x="600.83" y="90.01" xlink:href="#hl"/>
<use x="600.83" y="84.01" xlink:href="#hl"/>
<use x="600.83" y="78.01" xlink:href="#hl"/>
<use x="600.83" y="72.01" xlink:href="#hl"/>
<use x="600.83" y="66.01" xlink:href="#hl"/>
<use x="600.83" y="60.01" xlink:href="#hl"/>
<use x="600.83" y="60.01" xlink:href="#hd"/>
<path d="M597.33 60.01v65.20" stroke="currentColor" fill="none"/>
<path fill="currentColor"
	d="M621.33 126.21l49.00 0.00v-3.20l-49.00 -0.00"/>
<use x="625.13" y="108.01" xlink:href="#hl"/>
<use x="625.13" y="102.01" xlink:href="#hl"/>
<use x="625.13" y="96.01" xlink:href="#hl"/>
<use x="625.13" y="90.01" xlink:href="#hl"/>
<use x="625.13" y="84.01" xlink:href="#hl"/>
<use x="625.13" y="78.01" xlink:href="#hl"/>
<use x="625.13" y="72.01" xlink:href="#hl"/>
<use x="625.13" y="66.01" xlink:href="#hl"/>
<use x="625.13" y="60.01" xlink:href="#hl"/>
<use x="625.13" y="57.01" xlink:href="#hd"/>
<path d="M621.63 57.01v68.20" stroke="currentColor" fill="none"/>
<use x="649.33" y="108.01" xlink:href="#hl"/>
<use x="649.33" y="102.01" xlink:href="#hl"/>
<use x="649.33" y="96.01" xlink:href="#hl"/>
<use x="649.33" y="90.01" xlink:href="#hl"/>
<use x="649.33" y="90.01" xlink:href="#hd"/>
<path d="M645.83 90.01v35.20" stroke="currentColor" fill="none"/>
<use x="673.43" y="108.01" xlink:href="#hl"/>
<use x="673.43" y="102.01" xlink:href="#hl"/>
<use x="673.43" y="96.01" xlink:href="#hl"/>
<use x="673.43" y="90.01" xlink:href="#hl"/>
<use x="673.43" y="84.01" xlink:href="#hl"/>
<use x="673.43" y="81.01" xlink:href="#hd"/>
<path d="M669.93 81.01v44.20" stroke="currentColor" fill="none"/>
</g>
</svg>
