<?xml version="1.0" standalone="no"?>
<!DOCTYPE svg PUBLIC "-//W3C//DTD SVG 1.1//EN"
	"http://www.w3.org/Graphics/SVG/1.1/DTD/svg11.dtd">
<svg xmlns="http://www.w3.org/2000/svg" version="1.1"
	xmlns:xlink="http://www.w3.org/1999/xlink"
	xml:space='preserve' color="black"
	width="7.38in" height="1.61in" viewBox="0 0 531 116">
<title>9648.abc (9648) tune 1</title>
<!-- Creator: abcm2ps-7.8.14 -->
<!-- CreationDate: Mar 13, 2016 18:54 -->
<!-- CommandLine: -qxg 9648.abc -O ../svgs/9648.svg -->
<g transform="scale(0.750)" stroke-width="0.70" font-family="Times" font-size="20.00">
<text x="354.13" y="21.67" text-anchor="middle">9648.  La Mer, De L&apos;Aube A  Sur La Mer, 1st. Mvt. - 3rd. Theme</text>
</g>
<g transform="scale(0.750)" stroke-width="0.70" font-family="Times" font-size="14.00" font-style="italic">
<text x="694.93" y="45.34" text-anchor="end">Claude Debussy</text>
</g>
<g transform="scale(0.525)" stroke-width="0.70" font-family="Times" font-size="14.00" font-style="italic">
<defs>
<ellipse id="hd" rx="4.1" ry="2.9"
	transform="rotate(-20)" fill="currentColor"/>
</defs>
<use x="130.61" y="94.16" xlink:href="#hd"/>
<path d="M134.11 94.16v-20.00" stroke="currentColor" fill="none"/>
</g>
<g transform="scale(0.750)" stroke-width="0.70" font-family="Times" font-size="15.00" font-weight="bold">
<text x="99.13" y="68.01">= 120</text>
<path stroke="currentColor" fill="none"
	d="M301.03 132.01v-24.00"/>
<path stroke="currentColor" fill="none"
	d="M468.03 132.01v-24.00"/>
<path stroke="currentColor" fill="none"
	d="M13.33 132.01h454.70m-454.70 -6h454.70m-454.70 -6h454.70m-454.70 -6h454.70m-454.70 -6h454.70"/>
<text font-family="serif" font-size="12" font-style="italic" font-weight="normal"
	x="103.33" y="137.01" text-anchor="middle">3</text>
<path stroke="currentColor" fill="none"
	d="M168.63 74.51v-3l36.10 -9.00v3"/>
<rect x="179.63" y="61.01" width="14.00" height="12" fill="white"/>
<text font-family="serif" font-size="12" font-style="italic" font-weight="normal"
	x="186.63" y="71.01" text-anchor="middle">3</text>
<defs>
<path id="utclef" fill="currentColor" d="m-50 -90
	c-72 -41 -72 -158 52 -188
	c150 -10 220 188 90 256
	c-114 52 -275 0 -293 -136
	c-15 -181 93 -229 220 -334
	c88 -87 79 -133 62 -210
	c-51 33 -94 105 -89 186
	c17 267 36 374 49 574
	c6 96 -19 134 -77 135
	c-80 1 -126 -93 -61 -133
	c85 -41 133 101 31 105
	c23 17 92 37 90 -92
	c-10 -223 -39 -342 -50 -617
	c0 -90 0 -162 96 -232
	c56 72 63 230 22 289
	c-74 106 -257 168 -255 316
	c9 153 148 185 252 133
	c86 -65 29 -192 -80 -176
	c-71 12 -105 67 -59 124"/>
<use id="tclef" transform="scale(0.045)"
	xlink:href="#utclef"/>
</defs>
<use x="25.33" y="132.01" xlink:href="#tclef"/>
<defs>
<path id="uflat" fill="currentColor" d="
	m100 -746
	h32
	v734
	l-32 4
	m32 -332
	c46 -72 152 -90 208 -20
	c100 110 -120 326 -208 348
	m0 -28
	c54 0 200 -206 130 -290
	c-50 -60 -130 -4 -130 34"/>
<use id="ft0" transform="translate(-3.5,3.5) scale(0.018)"
	xlink:href="#uflat"/>
</defs>
<use x="40.33" y="120.01" xlink:href="#ft0"/>
<use x="45.83" y="111.01" xlink:href="#ft0"/>
<use x="51.33" y="123.01" xlink:href="#ft0"/>
<use x="56.83" y="114.01" xlink:href="#ft0"/>
<g font-family="serif" font-size="16" font-weight="bold" font-style="normal"
	transform="translate(72.83,132.01) scale(1.2,1)">
	<text y="-1" text-anchor="middle">8</text>
	<text y="-13" text-anchor="middle">6</text>
</g>
<path fill="currentColor"
	d="M87.03 120.21l68.30 0.00v-3.20l-68.30 -0.00"/>
<path fill="currentColor"
	d="M87.33 115.21l28.10 0.00v-3.20l-28.10 -0.00"/>
<path fill="currentColor"
	d="M148.93 115.21l6.00 0.00v-3.20l-6.00 -0.00"/>
<path fill="currentColor"
	d="M148.93 110.21l6.00 0.00v-3.20l-6.00 -0.00"/>
<defs>
<path id="hl" stroke="currentColor" d="m-6 0h12"/>
</defs>
<use x="90.83" y="102.01" xlink:href="#hl"/>
<use x="90.83" y="96.01" xlink:href="#hl"/>
<use x="90.83" y="90.01" xlink:href="#hl"/>
<use x="90.83" y="84.01" xlink:href="#hl"/>
<use x="90.83" y="78.01" xlink:href="#hl"/>
<use x="90.83" y="78.01" xlink:href="#hd"/>
<path d="M87.33 78.01v41.20" stroke="currentColor" fill="none"/>
<use x="104.93" y="102.01" xlink:href="#hl"/>
<use x="104.93" y="96.01" xlink:href="#hl"/>
<use x="104.93" y="90.01" xlink:href="#hl"/>
<use x="104.93" y="84.01" xlink:href="#hl"/>
<use x="104.93" y="81.01" xlink:href="#hd"/>
<path d="M101.43 81.01v38.20" stroke="currentColor" fill="none"/>
<use x="118.93" y="102.01" xlink:href="#hl"/>
<use x="118.93" y="96.01" xlink:href="#hl"/>
<use x="118.93" y="90.01" xlink:href="#hl"/>
<use x="118.93" y="87.01" xlink:href="#hd"/>
<path d="M115.43 87.01v32.20" stroke="currentColor" fill="none"/>
<use x="133.03" y="102.01" xlink:href="#hl"/>
<use x="133.03" y="96.01" xlink:href="#hl"/>
<use x="133.03" y="90.01" xlink:href="#hl"/>
<use x="133.03" y="90.01" xlink:href="#hd"/>
<path d="M129.53 90.01v29.20" stroke="currentColor" fill="none"/>
<use x="158.43" y="102.01" xlink:href="#hl"/>
<use x="158.43" y="96.01" xlink:href="#hl"/>
<use x="158.43" y="90.01" xlink:href="#hl"/>
<use x="158.43" y="90.01" xlink:href="#hd"/>
<path d="M154.93 90.01v29.20" stroke="currentColor" fill="none"/>
<path fill="currentColor"
	d="M168.73 144.21l106.50 0.00v-3.20l-106.50 -0.00"/>
<path fill="currentColor"
	d="M169.13 139.21l67.60 0.00v-3.20l-67.60 -0.00"/>
<path fill="currentColor"
	d="M211.23 134.21l25.50 0.00v-3.20l-25.50 -0.00"/>
<use x="172.63" y="102.01" xlink:href="#hl"/>
<use x="172.63" y="96.01" xlink:href="#hl"/>
<use x="172.63" y="90.01" xlink:href="#hl"/>
<use x="172.63" y="87.01" xlink:href="#hd"/>
<path d="M169.13 87.01v56.20" stroke="currentColor" fill="none"/>
<use x="186.63" y="102.01" xlink:href="#hl"/>
<use x="186.63" y="96.01" xlink:href="#hl"/>
<use x="186.63" y="90.01" xlink:href="#hl"/>
<use x="186.63" y="84.01" xlink:href="#hl"/>
<use x="186.63" y="81.01" xlink:href="#hd"/>
<path d="M183.13 81.01v62.20" stroke="currentColor" fill="none"/>
<use x="200.73" y="102.01" xlink:href="#hl"/>
<use x="200.73" y="96.01" xlink:href="#hl"/>
<use x="200.73" y="90.01" xlink:href="#hl"/>
<use x="200.73" y="84.01" xlink:href="#hl"/>
<use x="200.73" y="78.01" xlink:href="#hl"/>
<use x="200.73" y="78.01" xlink:href="#hd"/>
<path d="M197.23 78.01v65.20" stroke="currentColor" fill="none"/>
<use x="214.73" y="102.01" xlink:href="#hl"/>
<use x="214.73" y="96.01" xlink:href="#hl"/>
<use x="214.73" y="90.01" xlink:href="#hl"/>
<use x="214.73" y="84.01" xlink:href="#hl"/>
<use x="214.73" y="81.01" xlink:href="#hd"/>
<path d="M211.23 81.01v62.20" stroke="currentColor" fill="none"/>
<defs>
<path id="r8e" fill="currentColor" d="m 0 0
	c-1.5 1.5 -2.4 2 -3.6 2
	c2.4 -2.8 -2.8 -4 -2.8 -1.2
	c0 2.7 4.3 2.4 5.9 0.6"/>
<g id="r32">
	<path d="m4.8 -10l-5.5 21.6" stroke="currentColor" fill="none"/>
	<use x="4.9" y="-10" xlink:href="#r8e"/>
	<use x="3.4" y="-4" xlink:href="#r8e"/>
	<use x="1.9" y="2" xlink:href="#r8e"/>
</g>
</defs>
<use x="227.53" y="120.01" xlink:href="#r32"/>
<use x="240.23" y="102.01" xlink:href="#hl"/>
<use x="240.23" y="96.01" xlink:href="#hl"/>
<use x="240.23" y="90.01" xlink:href="#hl"/>
<use x="240.23" y="87.01" xlink:href="#hd"/>
<path d="M236.73 87.01v56.20" stroke="currentColor" fill="none"/>
<use x="252.93" y="102.01" xlink:href="#hl"/>
<use x="252.93" y="96.01" xlink:href="#hl"/>
<use x="252.93" y="90.01" xlink:href="#hl"/>
<use x="252.93" y="84.01" xlink:href="#hl"/>
<use x="252.93" y="81.01" xlink:href="#hd"/>
<path d="M249.43 81.01v62.20" stroke="currentColor" fill="none"/>
<use x="278.43" y="102.01" xlink:href="#hl"/>
<use x="278.43" y="96.01" xlink:href="#hl"/>
<use x="278.43" y="90.01" xlink:href="#hl"/>
<use x="278.43" y="84.01" xlink:href="#hl"/>
<use x="278.43" y="78.01" xlink:href="#hl"/>
<use x="278.43" y="78.01" xlink:href="#hd"/>
<path d="M274.93 78.01v65.20" stroke="currentColor" fill="none"/>
<path fill="currentColor"
	d="M311.43 120.21l51.60 0.00v-3.20l-51.60 -0.00"/>
<use x="315.23" y="102.01" xlink:href="#hl"/>
<use x="315.23" y="96.01" xlink:href="#hl"/>
<use x="315.23" y="90.01" xlink:href="#hl"/>
<use x="315.23" y="84.01" xlink:href="#hl"/>
<use x="315.23" y="78.01" xlink:href="#hl"/>
<use x="315.23" y="78.01" xlink:href="#hd"/>
<path d="M311.73 78.01v41.20" stroke="currentColor" fill="none"/>
<use x="340.73" y="102.01" xlink:href="#hl"/>
<use x="340.73" y="96.01" xlink:href="#hl"/>
<use x="340.73" y="90.01" xlink:href="#hl"/>
<use x="340.73" y="84.01" xlink:href="#hl"/>
<use x="340.73" y="81.01" xlink:href="#hd"/>
<path d="M337.23 81.01v38.20" stroke="currentColor" fill="none"/>
<use x="366.13" y="102.01" xlink:href="#hl"/>
<use x="366.13" y="96.01" xlink:href="#hl"/>
<use x="366.13" y="90.01" xlink:href="#hl"/>
<use x="366.13" y="90.01" xlink:href="#hd"/>
<path d="M362.63 90.01v29.20" stroke="currentColor" fill="none"/>
<path fill="currentColor"
	d="M390.63 124.91l51.60 5.30v-3.20l-51.60 -5.30"/>
<use x="394.43" y="102.01" xlink:href="#hl"/>
<use x="394.43" y="99.01" xlink:href="#hd"/>
<path d="M390.93 99.01v25.00" stroke="currentColor" fill="none"/>
<use x="419.93" y="102.01" xlink:href="#hl"/>
<use x="419.93" y="102.01" xlink:href="#hd"/>
<path d="M416.43 102.01v24.60" stroke="currentColor" fill="none"/>
<use x="445.43" y="111.01" xlink:href="#hd"/>
<path d="M441.93 111.01v18.20" stroke="currentColor" fill="none"/>
<path fill="currentColor"
	d="M136.53 90.01c2.91 -4.83 15.56 -4.83 18.47 -0.00
	l0.00 -0.22c-3.46 -6.61 -15.01 -6.61 -18.47 0.22"/>
<path fill="currentColor"
	d="M281.93 78.01c4.69 -5.04 25.10 -5.04 29.79 -0.00
	l0.00 -0.23c-5.59 -6.81 -24.20 -6.81 -29.79 0.23"/>
</g>
</svg>
