<?xml version="1.0" standalone="no"?>
<!DOCTYPE svg PUBLIC "-//W3C//DTD SVG 1.1//EN"
	"http://www.w3.org/Graphics/SVG/1.1/DTD/svg11.dtd">
<svg xmlns="http://www.w3.org/2000/svg" version="1.1"
	xmlns:xlink="http://www.w3.org/1999/xlink"
	xml:space='preserve' color="black"
	width="7.38in" height="1.40in" viewBox="0 0 531 101">
<title>9656.abc (9656) tune 1</title>
<!-- Creator: abcm2ps-7.8.14 -->
<!-- CreationDate: Mar 13, 2016 18:54 -->
<!-- CommandLine: -qxg 9656.abc -O ../svgs/9656.svg -->
<g transform="scale(0.750)" stroke-width="0.70" font-family="Times" font-size="20.00">
<text x="354.13" y="21.67" text-anchor="middle">9656.  Dialogue du Vent et de la Mer, 3rd. Mvt. - 2nd. Theme</text>
</g>
<g transform="scale(0.750)" stroke-width="0.70" font-family="Times" font-size="14.00" font-style="italic">
<text x="694.93" y="45.34" text-anchor="end">Claude Debussy</text>
</g>
<g transform="scale(0.525)" stroke-width="0.70" font-family="Times" font-size="14.00" font-style="italic">
<defs>
<ellipse id="hd" rx="4.1" ry="2.9"
	transform="rotate(-20)" fill="currentColor"/>
</defs>
<use x="139.19" y="94.16" xlink:href="#hd"/>
<path d="M142.69 94.16v-20.00" stroke="currentColor" fill="none"/>
</g>
<g transform="scale(0.750)" stroke-width="0.70" font-family="Times" font-size="15.00" font-weight="bold">
<text x="105.13" y="68.01">= 120</text>
<path stroke="currentColor" fill="none"
	d="M230.73 111.01v-24.00"/>
<path stroke="currentColor" fill="none"
	d="M356.33 111.01v-24.00"/>
<path stroke="currentColor" fill="none"
	d="M441.03 111.01v-24.00"/>
<path stroke="currentColor" fill="none"
	d="M525.63 111.01v-24.00"/>
<path stroke="currentColor" fill="none"
	d="M610.33 111.01v-24.00"/>
<path stroke="currentColor" fill="none"
	d="M694.93 111.01v-24.00"/>
<path stroke="currentColor" fill="none"
	d="M13.33 111.01h681.60m-681.60 -6h681.60m-681.60 -6h681.60m-681.60 -6h681.60m-681.60 -6h681.60"/>
<path stroke="currentColor" fill="none"
	d="M92.83 79.01v-3l103.60 -0.00v3"/>
<rect x="137.63" y="70.01" width="14.00" height="12" fill="white"/>
<text font-family="serif" font-size="12" font-style="italic" font-weight="normal"
	x="144.63" y="80.01" text-anchor="middle">3</text>
<defs>
<path id="utclef" fill="currentColor" d="m-50 -90
	c-72 -41 -72 -158 52 -188
	c150 -10 220 188 90 256
	c-114 52 -275 0 -293 -136
	c-15 -181 93 -229 220 -334
	c88 -87 79 -133 62 -210
	c-51 33 -94 105 -89 186
	c17 267 36 374 49 574
	c6 96 -19 134 -77 135
	c-80 1 -126 -93 -61 -133
	c85 -41 133 101 31 105
	c23 17 92 37 90 -92
	c-10 -223 -39 -342 -50 -617
	c0 -90 0 -162 96 -232
	c56 72 63 230 22 289
	c-74 106 -257 168 -255 316
	c9 153 148 185 252 133
	c86 -65 29 -192 -80 -176
	c-71 12 -105 67 -59 124"/>
<use id="tclef" transform="scale(0.045)"
	xlink:href="#utclef"/>
</defs>
<use x="25.33" y="111.01" xlink:href="#tclef"/>
<defs>
<path id="uflat" fill="currentColor" d="
	m100 -746
	h32
	v734
	l-32 4
	m32 -332
	c46 -72 152 -90 208 -20
	c100 110 -120 326 -208 348
	m0 -28
	c54 0 200 -206 130 -290
	c-50 -60 -130 -4 -130 34"/>
<use id="ft0" transform="translate(-3.5,3.5) scale(0.018)"
	xlink:href="#uflat"/>
</defs>
<use x="40.33" y="99.01" xlink:href="#ft0"/>
<use x="45.83" y="90.01" xlink:href="#ft0"/>
<use x="51.33" y="102.01" xlink:href="#ft0"/>
<use x="56.83" y="93.01" xlink:href="#ft0"/>
<use x="62.33" y="105.01" xlink:href="#ft0"/>
<g font-family="serif" font-size="16" font-weight="bold" font-style="normal"
	transform="translate(78.33,111.01) scale(1.2,1)">
	<text y="-1" text-anchor="middle">2</text>
	<text y="-13" text-anchor="middle">2</text>
</g>
<defs>
<path id="Hd" fill="currentColor" d="m3 -1.6
	c-1 -1.8 -7 1.4 -6 3.2
	c1 1.8 7 -1.4 6 -3.2
	m0.5 -0.3
	c2 3.8 -5 7.6 -7 3.8
	c-2 -3.8 5 -7.6 7 -3.8"/>
</defs>
<use x="96.83" y="90.01" xlink:href="#Hd"/>
<path d="M93.33 90.01v20.00" stroke="currentColor" fill="none"/>
<use x="144.63" y="90.01" xlink:href="#Hd"/>
<path d="M141.13 90.01v20.00" stroke="currentColor" fill="none"/>
<use x="192.43" y="90.01" xlink:href="#Hd"/>
<path d="M188.93 90.01v20.00" stroke="currentColor" fill="none"/>
<use x="246.03" y="90.01" xlink:href="#Hd"/>
<path d="M242.53 90.01v20.00" stroke="currentColor" fill="none"/>
<use x="307.33" y="99.01" xlink:href="#Hd"/>
<path d="M303.83 99.01v20.00" stroke="currentColor" fill="none"/>
<defs>
<path id="HD" fill="currentColor" d="m-2.7 -1.4
	c1.5 -2.8 6.9 0 5.3 2.7
	c-1.5 2.8 -6.9 0 -5.3 -2.7
	m8.3 1.4
	c0 -1.5 -2.2 -3 -5.6 -3
	c-3.4 0 -5.6 1.5 -5.6 3
	c0 1.5 2.2 3 5.6 3
	c3.4 0 5.6 -1.5 5.6 -3"/>
</defs>
<use x="372.73" y="99.01" xlink:href="#HD"/>
<use x="457.33" y="90.01" xlink:href="#HD"/>
<use x="541.93" y="84.01" xlink:href="#HD"/>
<use x="626.63" y="84.01" xlink:href="#HD"/>
<path fill="currentColor"
	d="M310.83 99.01c8.59 -5.53 48.78 -5.53 57.36 -0.00
	l0.00 -0.26c-10.31 -7.28 -47.06 -7.28 -57.36 0.26"/>
<path fill="currentColor"
	d="M544.43 82.01c10.91 -5.90 66.73 -5.90 77.64 -0.00
	l0.00 -0.28c-13.24 -7.62 -64.40 -7.62 -77.64 0.28"/>
</g>
</svg>
