<?xml version="1.0" standalone="no"?>
<!DOCTYPE svg PUBLIC "-//W3C//DTD SVG 1.1//EN"
	"http://www.w3.org/Graphics/SVG/1.1/DTD/svg11.dtd">
<svg xmlns="http://www.w3.org/2000/svg" version="1.1"
	xmlns:xlink="http://www.w3.org/1999/xlink"
	xml:space='preserve' color="black"
	width="7.38in" height="1.34in" viewBox="0 0 531 97">
<title>9678.abc (9678) tune 1</title>
<!-- Creator: abcm2ps-7.8.14 -->
<!-- CreationDate: Mar 13, 2016 18:54 -->
<!-- CommandLine: -qxg 9678.abc -O ../svgs/9678.svg -->
<g transform="scale(0.750)" stroke-width="0.70" font-family="Times" font-size="20.00">
<text x="354.13" y="21.67" text-anchor="middle">9678.  La Plus Que Lente, Waltz, Pft., 1st. Theme</text>
</g>
<g transform="scale(0.750)" stroke-width="0.70" font-family="Times" font-size="14.00" font-style="italic">
<text x="694.93" y="45.34" text-anchor="end">Claude Debussy</text>
</g>
<g transform="scale(0.525)" stroke-width="0.70" font-family="Times" font-size="14.00" font-style="italic">
<defs>
<ellipse id="hd" rx="4.1" ry="2.9"
	transform="rotate(-20)" fill="currentColor"/>
</defs>
<use x="146.33" y="94.16" xlink:href="#hd"/>
<path d="M149.83 94.16v-20.00" stroke="currentColor" fill="none"/>
</g>
<g transform="scale(0.750)" stroke-width="0.70" font-family="Times" font-size="15.00" font-weight="bold">
<text x="110.13" y="68.01">= 120</text>
<path stroke="currentColor" fill="none"
	d="M186.63 106.01v-24.00"/>
<path stroke="currentColor" fill="none"
	d="M279.93 106.01v-24.00"/>
<path stroke="currentColor" fill="none"
	d="M409.33 106.01v-24.00"/>
<path stroke="currentColor" fill="none"
	d="M506.63 106.01v-24.00"/>
<path stroke="currentColor" fill="none"
	d="M601.63 106.01v-24.00"/>
<path stroke="currentColor" fill="none"
	d="M694.93 106.01v-24.00"/>
<path stroke="currentColor" fill="none"
	d="M13.33 106.01h681.60m-681.60 -6h681.60m-681.60 -6h681.60m-681.60 -6h681.60m-681.60 -6h681.60"/>
<defs>
<path id="utclef" fill="currentColor" d="m-50 -90
	c-72 -41 -72 -158 52 -188
	c150 -10 220 188 90 256
	c-114 52 -275 0 -293 -136
	c-15 -181 93 -229 220 -334
	c88 -87 79 -133 62 -210
	c-51 33 -94 105 -89 186
	c17 267 36 374 49 574
	c6 96 -19 134 -77 135
	c-80 1 -126 -93 -61 -133
	c85 -41 133 101 31 105
	c23 17 92 37 90 -92
	c-10 -223 -39 -342 -50 -617
	c0 -90 0 -162 96 -232
	c56 72 63 230 22 289
	c-74 106 -257 168 -255 316
	c9 153 148 185 252 133
	c86 -65 29 -192 -80 -176
	c-71 12 -105 67 -59 124"/>
<use id="tclef" transform="scale(0.045)"
	xlink:href="#utclef"/>
</defs>
<use x="25.33" y="106.01" xlink:href="#tclef"/>
<defs>
<path id="uflat" fill="currentColor" d="
	m100 -746
	h32
	v734
	l-32 4
	m32 -332
	c46 -72 152 -90 208 -20
	c100 110 -120 326 -208 348
	m0 -28
	c54 0 200 -206 130 -290
	c-50 -60 -130 -4 -130 34"/>
<use id="ft0" transform="translate(-3.5,3.5) scale(0.018)"
	xlink:href="#uflat"/>
</defs>
<use x="40.33" y="94.01" xlink:href="#ft0"/>
<use x="45.83" y="85.01" xlink:href="#ft0"/>
<use x="51.33" y="97.01" xlink:href="#ft0"/>
<use x="56.83" y="88.01" xlink:href="#ft0"/>
<use x="62.33" y="100.01" xlink:href="#ft0"/>
<use x="67.83" y="91.01" xlink:href="#ft0"/>
<g font-family="serif" font-size="16" font-weight="bold" font-style="normal"
	transform="translate(83.83,106.01) scale(1.2,1)">
	<text y="-1" text-anchor="middle">4</text>
	<text y="-13" text-anchor="middle">3</text>
</g>
<defs>
<path id="r4" fill="currentColor" d="m-1 -8.5
	l3.6 5.1 -2.1 5.2 2.2 4.3
	c-2.6 -2.3 -5.1 0 -2.4 2.6
	c-4.8 -3 -1.5 -6.9 1.4 -4.1
	l-3.1 -4.5 1.9 -5.1 -1.5 -3.5"/>
</defs>
<use x="101.83" y="94.01" xlink:href="#r4"/>
<use x="132.03" y="88.01" xlink:href="#hd"/>
<path d="M128.53 88.01v20.00" stroke="currentColor" fill="none"/>
<use x="162.33" y="85.01" xlink:href="#hd"/>
<path d="M158.83 85.01v20.00" stroke="currentColor" fill="none"/>
<use x="199.13" y="82.01" xlink:href="#hd"/>
<circle fill="currentColor" cx="207.13" cy="79.01" r="1.2"/>
<path d="M195.63 82.01v20.00" stroke="currentColor" fill="none"/>
<defs>
<path id="hl" stroke="currentColor" d="m-6 0h12"/>
</defs>
<use x="234.03" y="76.01" xlink:href="#hl"/>
<use x="234.03" y="76.01" xlink:href="#hd"/>
<path d="M230.53 76.01v20.00" stroke="currentColor" fill="none"/>
<path fill="currentColor"
	d="M230.53 96.01c0.6 -5.6 9.6 -9 5.6 -18.4
	c1.6 6 -1.3 11.6 -5.6 12.8
"/>
<use x="255.53" y="82.01" xlink:href="#hd"/>
<path d="M252.03 82.01v20.00" stroke="currentColor" fill="none"/>
<path fill="currentColor"
	d="M288.53 100.21l39.60 0.00v-3.20l-39.60 -0.00"/>
<use x="292.43" y="82.01" xlink:href="#hd"/>
<path d="M288.93 82.01v17.20" stroke="currentColor" fill="none"/>
<use x="311.93" y="76.01" xlink:href="#hl"/>
<use x="311.93" y="76.01" xlink:href="#hd"/>
<path d="M308.43 76.01v23.20" stroke="currentColor" fill="none"/>
<use x="331.33" y="82.01" xlink:href="#hd"/>
<path d="M327.83 82.01v17.20" stroke="currentColor" fill="none"/>
<path fill="currentColor"
	d="M349.13 100.21l39.60 0.00v-3.20l-39.60 -0.00"/>
<use x="352.93" y="76.01" xlink:href="#hl"/>
<use x="352.93" y="76.01" xlink:href="#hd"/>
<path d="M349.43 76.01v23.20" stroke="currentColor" fill="none"/>
<use x="372.43" y="82.01" xlink:href="#hd"/>
<path d="M368.93 82.01v17.20" stroke="currentColor" fill="none"/>
<use x="391.93" y="76.01" xlink:href="#hl"/>
<use x="391.93" y="76.01" xlink:href="#hd"/>
<path d="M388.43 76.01v23.20" stroke="currentColor" fill="none"/>
<use x="421.83" y="82.01" xlink:href="#hd"/>
<path d="M418.33 82.01v20.00" stroke="currentColor" fill="none"/>
<use x="452.03" y="94.01" xlink:href="#r4"/>
<use x="482.33" y="82.01" xlink:href="#hd"/>
<path d="M478.83 82.01v20.00" stroke="currentColor" fill="none"/>
<use x="519.13" y="82.01" xlink:href="#hd"/>
<path d="M515.63 82.01v20.00" stroke="currentColor" fill="none"/>
<use x="549.33" y="88.01" xlink:href="#hd"/>
<circle fill="currentColor" cx="557.33" cy="85.01" r="1.2"/>
<path d="M545.83 88.01v20.00" stroke="currentColor" fill="none"/>
<use x="584.23" y="85.01" xlink:href="#hd"/>
<path d="M580.73 85.01v20.00" stroke="currentColor" fill="none"/>
<path fill="currentColor"
	d="M580.73 105.01c0.6 -5.6 9.6 -9 5.6 -18.4
	c1.6 6 -1.3 11.6 -5.6 12.8
"/>
<use x="614.13" y="82.01" xlink:href="#hd"/>
<circle fill="currentColor" cx="622.13" cy="79.01" r="1.2"/>
<path d="M610.63 82.01v20.00" stroke="currentColor" fill="none"/>
<use x="649.03" y="76.01" xlink:href="#hl"/>
<use x="649.03" y="76.01" xlink:href="#hd"/>
<path d="M645.53 76.01v20.00" stroke="currentColor" fill="none"/>
<path fill="currentColor"
	d="M645.53 96.01c0.6 -5.6 9.6 -9 5.6 -18.4
	c1.6 6 -1.3 11.6 -5.6 12.8
"/>
<use x="670.63" y="82.01" xlink:href="#hd"/>
<path d="M667.13 82.01v20.00" stroke="currentColor" fill="none"/>
<path fill="currentColor"
	d="M259.03 82.01c4.70 -5.04 25.15 -5.04 29.85 -0.00
	l0.00 -0.23c-5.60 -6.81 -24.25 -6.81 -29.85 0.23"/>
<path fill="currentColor"
	d="M485.83 82.01c4.70 -5.04 25.15 -5.04 29.85 -0.00
	l0.00 -0.23c-5.60 -6.81 -24.25 -6.81 -29.85 0.23"/>
</g>
</svg>
