<?xml version="1.0" standalone="no"?>
<!DOCTYPE svg PUBLIC "-//W3C//DTD SVG 1.1//EN"
	"http://www.w3.org/Graphics/SVG/1.1/DTD/svg11.dtd">
<svg xmlns="http://www.w3.org/2000/svg" version="1.1"
	xmlns:xlink="http://www.w3.org/1999/xlink"
	xml:space='preserve' color="black"
	width="7.38in" height="1.71in" viewBox="0 0 531 123">
<title>9685.abc (9685) tune 1</title>
<!-- Creator: abcm2ps-7.8.14 -->
<!-- CreationDate: Mar 13, 2016 18:54 -->
<!-- CommandLine: -qxg 9685.abc -O ../svgs/9685.svg -->
<g transform="scale(0.750)" stroke-width="0.70" font-family="Times" font-size="20.00">
<text x="354.13" y="21.67" text-anchor="middle">9685.  Preludes, Book I, Pft., No. 10 La Cathedrale Engloutie (The Sunken Cathedral), 1st. Theme</text>
</g>
<g transform="scale(0.750)" stroke-width="0.70" font-family="Times" font-size="14.00" font-style="italic">
<text x="694.93" y="45.34" text-anchor="end">Claude Debussy</text>
</g>
<g transform="scale(0.525)" stroke-width="0.70" font-family="Times" font-size="14.00" font-style="italic">
<defs>
<ellipse id="hd" rx="4.1" ry="2.9"
	transform="rotate(-20)" fill="currentColor"/>
</defs>
<use x="89.90" y="94.16" xlink:href="#hd"/>
<path d="M93.40 94.16v-20.00" stroke="currentColor" fill="none"/>
</g>
<g transform="scale(0.750)" stroke-width="0.70" font-family="Times" font-size="15.00" font-weight="bold">
<text x="70.63" y="68.01">= 120</text>
<path stroke="currentColor" fill="none"
	d="M129.33 141.01v-24.00"/>
<path stroke="currentColor" fill="none"
	d="M237.83 141.01v-24.00"/>
<path stroke="currentColor" fill="none"
	d="M325.23 141.01v-24.00"/>
<path stroke="currentColor" fill="none"
	d="M433.63 141.01v-24.00"/>
<path stroke="currentColor" fill="none"
	d="M542.83 141.01v-24.00"/>
<path stroke="currentColor" fill="none"
	d="M651.33 141.01v-24.00"/>
<path stroke="currentColor" fill="none"
	d="M13.33 141.01h681.60m-681.60 -6h681.60m-681.60 -6h681.60m-681.60 -6h681.60m-681.60 -6h681.60"/>
<defs>
<path id="utclef" fill="currentColor" d="m-50 -90
	c-72 -41 -72 -158 52 -188
	c150 -10 220 188 90 256
	c-114 52 -275 0 -293 -136
	c-15 -181 93 -229 220 -334
	c88 -87 79 -133 62 -210
	c-51 33 -94 105 -89 186
	c17 267 36 374 49 574
	c6 96 -19 134 -77 135
	c-80 1 -126 -93 -61 -133
	c85 -41 133 101 31 105
	c23 17 92 37 90 -92
	c-10 -223 -39 -342 -50 -617
	c0 -90 0 -162 96 -232
	c56 72 63 230 22 289
	c-74 106 -257 168 -255 316
	c9 153 148 185 252 133
	c86 -65 29 -192 -80 -176
	c-71 12 -105 67 -59 124"/>
<use id="tclef" transform="scale(0.045)"
	xlink:href="#utclef"/>
</defs>
<use x="25.33" y="141.01" xlink:href="#tclef"/>
<g font-family="serif" font-size="16" font-weight="bold" font-style="normal"
	transform="translate(43.83,141.01) scale(1.2,1)">
	<text y="-1" text-anchor="middle">4</text>
	<text y="-13" text-anchor="middle">6</text>
</g>
<defs>
<path id="hl" stroke="currentColor" d="m-6 0h12"/>
</defs>
<use x="62.33" y="111.01" xlink:href="#hl"/>
<use x="62.33" y="105.01" xlink:href="#hl"/>
<use x="62.33" y="99.01" xlink:href="#hl"/>
<use x="62.33" y="93.01" xlink:href="#hl"/>
<use x="62.33" y="87.01" xlink:href="#hl"/>
<use x="62.33" y="81.01" xlink:href="#hl"/>
<defs>
<path id="Hd" fill="currentColor" d="m3 -1.6
	c-1 -1.8 -7 1.4 -6 3.2
	c1 1.8 7 -1.4 6 -3.2
	m0.5 -0.3
	c2 3.8 -5 7.6 -7 3.8
	c-2 -3.8 5 -7.6 7 -3.8"/>
</defs>
<use x="62.33" y="78.01" xlink:href="#Hd"/>
<path d="M58.83 78.01v51.00" stroke="currentColor" fill="none"/>
<defs>
<path id="hl1" stroke="currentColor" d="m-7 0h14"/>
</defs>
<use x="95.63" y="111.01" xlink:href="#hl1"/>
<use x="95.63" y="105.01" xlink:href="#hl1"/>
<use x="95.63" y="99.01" xlink:href="#hl1"/>
<use x="95.63" y="93.01" xlink:href="#hl1"/>
<use x="95.63" y="87.01" xlink:href="#hl1"/>
<defs>
<path id="HD" fill="currentColor" d="m-2.7 -1.4
	c1.5 -2.8 6.9 0 5.3 2.7
	c-1.5 2.8 -6.9 0 -5.3 -2.7
	m8.3 1.4
	c0 -1.5 -2.2 -3 -5.6 -3
	c-3.4 0 -5.6 1.5 -5.6 3
	c0 1.5 2.2 3 5.6 3
	c3.4 0 5.6 -1.5 5.6 -3"/>
</defs>
<use x="95.63" y="84.01" xlink:href="#HD"/>
<defs>
<path id="usharp" fill="currentColor" d="
	m136 -702
	v890
	h32
	v-890
	m128 840
	h32
	v-888
	h-32
	m-232 286
	v116
	l338 -96
	v-116
	m-338 442
	v116
	l338 -98
	v-114"/>
<use id="sh0" transform="translate(-4,5) scale(0.018)"
	xlink:href="#usharp"/>
</defs>
<use x="83.63" y="84.01" xlink:href="#sh0"/>
<use x="148.83" y="111.01" xlink:href="#hl"/>
<use x="148.83" y="105.01" xlink:href="#hl"/>
<use x="148.83" y="99.01" xlink:href="#hl"/>
<use x="148.83" y="93.01" xlink:href="#hl"/>
<use x="148.83" y="87.01" xlink:href="#hl"/>
<use x="148.83" y="81.01" xlink:href="#hl"/>
<use x="148.83" y="81.01" xlink:href="#Hd"/>
<use x="138.83" y="81.01" xlink:href="#sh0"/>
<path d="M145.33 81.01v48.00" stroke="currentColor" fill="none"/>
<use x="181.03" y="111.01" xlink:href="#hl"/>
<use x="181.03" y="105.01" xlink:href="#hl"/>
<use x="181.03" y="99.01" xlink:href="#hl"/>
<use x="181.03" y="93.01" xlink:href="#hl"/>
<use x="181.03" y="87.01" xlink:href="#hl"/>
<use x="181.03" y="81.01" xlink:href="#hl"/>
<use x="181.03" y="75.01" xlink:href="#hl"/>
<use x="181.03" y="72.01" xlink:href="#Hd"/>
<use x="171.03" y="72.01" xlink:href="#sh0"/>
<path d="M177.53 72.01v57.00" stroke="currentColor" fill="none"/>
<use x="212.53" y="111.01" xlink:href="#hl"/>
<use x="212.53" y="105.01" xlink:href="#hl"/>
<use x="212.53" y="99.01" xlink:href="#hl"/>
<use x="212.53" y="93.01" xlink:href="#hl"/>
<use x="212.53" y="87.01" xlink:href="#hl"/>
<use x="212.53" y="81.01" xlink:href="#hl"/>
<use x="212.53" y="78.01" xlink:href="#Hd"/>
<path d="M209.03 78.01v51.00" stroke="currentColor" fill="none"/>
<use x="257.33" y="111.01" xlink:href="#hl"/>
<use x="257.33" y="105.01" xlink:href="#hl"/>
<use x="257.33" y="99.01" xlink:href="#hl"/>
<use x="257.33" y="93.01" xlink:href="#hl"/>
<use x="257.33" y="87.01" xlink:href="#hl"/>
<use x="257.33" y="84.01" xlink:href="#Hd"/>
<use x="247.33" y="84.01" xlink:href="#sh0"/>
<path d="M253.83 84.01v45.00" stroke="currentColor" fill="none"/>
<use x="290.63" y="111.01" xlink:href="#hl1"/>
<use x="290.63" y="105.01" xlink:href="#hl1"/>
<use x="290.63" y="99.01" xlink:href="#hl1"/>
<use x="290.63" y="93.01" xlink:href="#hl1"/>
<use x="290.63" y="93.01" xlink:href="#HD"/>
<use x="278.63" y="93.01" xlink:href="#sh0"/>
<use x="344.73" y="111.01" xlink:href="#hl"/>
<use x="344.73" y="105.01" xlink:href="#hl"/>
<use x="344.73" y="99.01" xlink:href="#hl"/>
<use x="344.73" y="93.01" xlink:href="#hl"/>
<use x="344.73" y="90.01" xlink:href="#Hd"/>
<use x="334.73" y="90.01" xlink:href="#sh0"/>
<path d="M341.23 90.01v39.00" stroke="currentColor" fill="none"/>
<use x="376.83" y="111.01" xlink:href="#hl"/>
<use x="376.83" y="105.01" xlink:href="#hl"/>
<use x="376.83" y="99.01" xlink:href="#hl"/>
<use x="376.83" y="93.01" xlink:href="#hl"/>
<use x="376.83" y="87.01" xlink:href="#hl"/>
<use x="376.83" y="81.01" xlink:href="#hl"/>
<use x="376.83" y="81.01" xlink:href="#Hd"/>
<use x="366.83" y="81.01" xlink:href="#sh0"/>
<path d="M373.33 81.01v48.00" stroke="currentColor" fill="none"/>
<use x="408.33" y="111.01" xlink:href="#hl"/>
<use x="408.33" y="105.01" xlink:href="#hl"/>
<use x="408.33" y="99.01" xlink:href="#hl"/>
<use x="408.33" y="93.01" xlink:href="#hl"/>
<use x="408.33" y="87.01" xlink:href="#hl"/>
<use x="408.33" y="87.01" xlink:href="#Hd"/>
<path d="M404.83 87.01v42.00" stroke="currentColor" fill="none"/>
<use x="453.13" y="111.01" xlink:href="#hl"/>
<use x="453.13" y="105.01" xlink:href="#hl"/>
<use x="453.13" y="99.01" xlink:href="#hl"/>
<use x="453.13" y="93.01" xlink:href="#hl"/>
<use x="453.13" y="93.01" xlink:href="#Hd"/>
<use x="443.13" y="93.01" xlink:href="#sh0"/>
<path d="M449.63 93.01v36.00" stroke="currentColor" fill="none"/>
<use x="485.33" y="111.01" xlink:href="#hl"/>
<use x="485.33" y="105.01" xlink:href="#hl"/>
<use x="485.33" y="99.01" xlink:href="#hl"/>
<use x="485.33" y="93.01" xlink:href="#hl"/>
<use x="485.33" y="90.01" xlink:href="#Hd"/>
<use x="475.33" y="90.01" xlink:href="#sh0"/>
<path d="M481.83 90.01v39.00" stroke="currentColor" fill="none"/>
<use x="517.53" y="111.01" xlink:href="#hl"/>
<use x="517.53" y="105.01" xlink:href="#hl"/>
<use x="517.53" y="99.01" xlink:href="#hl"/>
<use x="517.53" y="93.01" xlink:href="#hl"/>
<use x="517.53" y="87.01" xlink:href="#hl"/>
<use x="517.53" y="81.01" xlink:href="#hl"/>
<use x="517.53" y="81.01" xlink:href="#Hd"/>
<use x="507.53" y="81.01" xlink:href="#sh0"/>
<path d="M514.03 81.01v48.00" stroke="currentColor" fill="none"/>
<use x="562.33" y="111.01" xlink:href="#hl"/>
<use x="562.33" y="105.01" xlink:href="#hl"/>
<use x="562.33" y="99.01" xlink:href="#hl"/>
<use x="562.33" y="93.01" xlink:href="#hl"/>
<use x="562.33" y="87.01" xlink:href="#hl"/>
<use x="562.33" y="84.01" xlink:href="#Hd"/>
<use x="552.33" y="84.01" xlink:href="#sh0"/>
<path d="M558.83 84.01v45.00" stroke="currentColor" fill="none"/>
<use x="594.53" y="111.01" xlink:href="#hl"/>
<use x="594.53" y="105.01" xlink:href="#hl"/>
<use x="594.53" y="99.01" xlink:href="#hl"/>
<use x="594.53" y="93.01" xlink:href="#hl"/>
<use x="594.53" y="87.01" xlink:href="#hl"/>
<use x="594.53" y="81.01" xlink:href="#hl"/>
<use x="594.53" y="81.01" xlink:href="#Hd"/>
<use x="584.53" y="81.01" xlink:href="#sh0"/>
<path d="M591.03 81.01v48.00" stroke="currentColor" fill="none"/>
<use x="626.03" y="111.01" xlink:href="#hl"/>
<use x="626.03" y="105.01" xlink:href="#hl"/>
<use x="626.03" y="99.01" xlink:href="#hl"/>
<use x="626.03" y="93.01" xlink:href="#hl"/>
<use x="626.03" y="87.01" xlink:href="#hl"/>
<use x="626.03" y="87.01" xlink:href="#Hd"/>
<path d="M622.53 87.01v42.00" stroke="currentColor" fill="none"/>
<use x="664.33" y="111.01" xlink:href="#hl"/>
<use x="664.33" y="105.01" xlink:href="#hl"/>
<use x="664.33" y="99.01" xlink:href="#hl"/>
<use x="664.33" y="93.01" xlink:href="#hl"/>
<use x="664.33" y="87.01" xlink:href="#hl"/>
<use x="664.33" y="87.01" xlink:href="#Hd"/>
<path d="M660.83 87.01v42.00" stroke="currentColor" fill="none"/>
<path fill="currentColor"
	d="M629.53 87.01c4.93 -5.06 26.37 -5.06 31.30 -0.00
	l0.00 -0.23c-5.87 -6.83 -25.43 -6.83 -31.30 0.23"/>
</g>
</svg>
