<?xml version="1.0" standalone="no"?>
<!DOCTYPE svg PUBLIC "-//W3C//DTD SVG 1.1//EN"
	"http://www.w3.org/Graphics/SVG/1.1/DTD/svg11.dtd">
<svg xmlns="http://www.w3.org/2000/svg" version="1.1"
	xmlns:xlink="http://www.w3.org/1999/xlink"
	xml:space='preserve' color="black"
	width="7.38in" height="1.55in" viewBox="0 0 531 112">
<title>9711.abc (9711) tune 1</title>
<!-- Creator: abcm2ps-7.8.14 -->
<!-- CreationDate: Mar 13, 2016 18:54 -->
<!-- CommandLine: -qxg 9711.abc -O ../svgs/9711.svg -->
<g transform="scale(0.750)" stroke-width="0.70" font-family="Times" font-size="20.00">
<text x="354.13" y="21.67" text-anchor="middle">9711.  Reverie, Pft., 1st. Theme</text>
</g>
<g transform="scale(0.750)" stroke-width="0.70" font-family="Times" font-size="14.00" font-style="italic">
<text x="694.93" y="45.34" text-anchor="end">Claude Debussy</text>
</g>
<g transform="scale(0.525)" stroke-width="0.70" font-family="Times" font-size="14.00" font-style="italic">
<defs>
<ellipse id="hd" rx="4.1" ry="2.9"
	transform="rotate(-20)" fill="currentColor"/>
</defs>
<use x="107.76" y="94.16" xlink:href="#hd"/>
<path d="M111.26 94.16v-20.00" stroke="currentColor" fill="none"/>
</g>
<g transform="scale(0.750)" stroke-width="0.70" font-family="Times" font-size="15.00" font-weight="bold">
<text x="83.13" y="68.01">= 120</text>
<path stroke="currentColor" fill="none"
	d="M139.43 126.01v-24.00"/>
<path stroke="currentColor" fill="none"
	d="M273.43 126.01v-24.00"/>
<path stroke="currentColor" fill="none"
	d="M375.43 126.01v-24.00"/>
<path stroke="currentColor" fill="none"
	d="M470.53 126.01v-24.00"/>
<path stroke="currentColor" fill="none"
	d="M563.03 126.01v-24.00"/>
<path stroke="currentColor" fill="none"
	d="M640.53 126.01v-24.00"/>
<path stroke="currentColor" fill="none"
	d="M694.93 126.01v-24.00"/>
<path stroke="currentColor" fill="none"
	d="M13.33 126.01h681.60m-681.60 -6h681.60m-681.60 -6h681.60m-681.60 -6h681.60m-681.60 -6h681.60"/>
<path stroke="currentColor" fill="none"
	d="M281.93 73.01v-3l48.50 -0.00v3"/>
<rect x="299.13" y="64.01" width="14.00" height="12" fill="white"/>
<text font-family="serif" font-size="12" font-style="italic" font-weight="normal"
	x="306.13" y="74.01" text-anchor="middle">3</text>
<defs>
<path id="utclef" fill="currentColor" d="m-50 -90
	c-72 -41 -72 -158 52 -188
	c150 -10 220 188 90 256
	c-114 52 -275 0 -293 -136
	c-15 -181 93 -229 220 -334
	c88 -87 79 -133 62 -210
	c-51 33 -94 105 -89 186
	c17 267 36 374 49 574
	c6 96 -19 134 -77 135
	c-80 1 -126 -93 -61 -133
	c85 -41 133 101 31 105
	c23 17 92 37 90 -92
	c-10 -223 -39 -342 -50 -617
	c0 -90 0 -162 96 -232
	c56 72 63 230 22 289
	c-74 106 -257 168 -255 316
	c9 153 148 185 252 133
	c86 -65 29 -192 -80 -176
	c-71 12 -105 67 -59 124"/>
<use id="tclef" transform="scale(0.045)"
	xlink:href="#utclef"/>
</defs>
<use x="25.33" y="126.01" xlink:href="#tclef"/>
<defs>
<path id="uflat" fill="currentColor" d="
	m100 -746
	h32
	v734
	l-32 4
	m32 -332
	c46 -72 152 -90 208 -20
	c100 110 -120 326 -208 348
	m0 -28
	c54 0 200 -206 130 -290
	c-50 -60 -130 -4 -130 34"/>
<use id="ft0" transform="translate(-3.5,3.5) scale(0.018)"
	xlink:href="#uflat"/>
</defs>
<use x="40.33" y="114.01" xlink:href="#ft0"/>
<g font-family="serif" font-size="16" font-weight="bold" font-style="normal"
	transform="translate(56.33,126.01) scale(1.2,1)">
	<text y="-1" text-anchor="middle">4</text>
	<text y="-13" text-anchor="middle">4</text>
</g>
<defs>
<path id="hl" stroke="currentColor" d="m-6 0h12"/>
</defs>
<use x="74.83" y="96.01" xlink:href="#hl"/>
<use x="74.83" y="90.01" xlink:href="#hl"/>
<use x="74.83" y="84.01" xlink:href="#hl"/>
<use x="74.83" y="78.01" xlink:href="#hl"/>
<defs>
<path id="Hd" fill="currentColor" d="m3 -1.6
	c-1 -1.8 -7 1.4 -6 3.2
	c1 1.8 7 -1.4 6 -3.2
	m0.5 -0.3
	c2 3.8 -5 7.6 -7 3.8
	c-2 -3.8 5 -7.6 7 -3.8"/>
</defs>
<use x="74.83" y="78.01" xlink:href="#Hd"/>
<path d="M71.33 78.01v36.00" stroke="currentColor" fill="none"/>
<use x="110.63" y="96.01" xlink:href="#hl"/>
<use x="110.63" y="90.01" xlink:href="#hl"/>
<use x="110.63" y="87.01" xlink:href="#Hd"/>
<path d="M107.13 87.01v27.00" stroke="currentColor" fill="none"/>
<use x="151.93" y="96.01" xlink:href="#hl"/>
<use x="151.93" y="90.01" xlink:href="#hl"/>
<use x="151.93" y="87.01" xlink:href="#hd"/>
<path d="M148.43 87.01v27.00" stroke="currentColor" fill="none"/>
<use x="177.53" y="96.01" xlink:href="#hl"/>
<use x="177.53" y="90.01" xlink:href="#hl"/>
<use x="177.53" y="84.01" xlink:href="#hl"/>
<use x="177.53" y="84.01" xlink:href="#hd"/>
<path d="M174.03 84.01v30.00" stroke="currentColor" fill="none"/>
<path fill="currentColor"
	d="M174.03 114.01c0.6 -5.6 9.6 -9 5.6 -18.4
	c1.6 6 -1.3 11.6 -5.6 12.8
"/>
<use x="196.03" y="96.01" xlink:href="#hl"/>
<use x="196.03" y="90.01" xlink:href="#hl"/>
<use x="196.03" y="84.01" xlink:href="#hl"/>
<use x="196.03" y="81.01" xlink:href="#hd"/>
<path d="M192.53 81.01v33.00" stroke="currentColor" fill="none"/>
<path fill="currentColor"
	d="M192.53 114.01c0.6 -5.6 9.6 -9 5.6 -18.4
	c1.6 6 -1.3 11.6 -5.6 12.8
"/>
<use x="214.43" y="96.01" xlink:href="#hl"/>
<use x="214.43" y="90.01" xlink:href="#hl"/>
<use x="214.43" y="84.01" xlink:href="#hl"/>
<use x="214.43" y="78.01" xlink:href="#hl"/>
<use x="214.43" y="78.01" xlink:href="#hd"/>
<path d="M210.93 78.01v36.00" stroke="currentColor" fill="none"/>
<use x="240.13" y="96.01" xlink:href="#hl"/>
<use x="240.13" y="90.01" xlink:href="#hl"/>
<use x="240.13" y="84.01" xlink:href="#hl"/>
<use x="240.13" y="84.01" xlink:href="#hd"/>
<path d="M236.63 84.01v30.00" stroke="currentColor" fill="none"/>
<path fill="currentColor"
	d="M236.63 114.01c0.6 -5.6 9.6 -9 5.6 -18.4
	c1.6 6 -1.3 11.6 -5.6 12.8
"/>
<use x="258.53" y="96.01" xlink:href="#hl"/>
<use x="258.53" y="90.01" xlink:href="#hl"/>
<use x="258.53" y="87.01" xlink:href="#hd"/>
<path d="M255.03 87.01v27.00" stroke="currentColor" fill="none"/>
<path fill="currentColor"
	d="M255.03 114.01c0.6 -5.6 9.6 -9 5.6 -18.4
	c1.6 6 -1.3 11.6 -5.6 12.8
"/>
<use x="285.93" y="96.01" xlink:href="#hl"/>
<use x="285.93" y="90.01" xlink:href="#hl"/>
<use x="285.93" y="84.01" xlink:href="#hl"/>
<use x="285.93" y="84.01" xlink:href="#hd"/>
<path d="M282.43 84.01v30.00" stroke="currentColor" fill="none"/>
<use x="306.13" y="96.01" xlink:href="#hl"/>
<use x="306.13" y="90.01" xlink:href="#hl"/>
<use x="306.13" y="90.01" xlink:href="#hd"/>
<path d="M302.63 90.01v24.00" stroke="currentColor" fill="none"/>
<use x="326.43" y="96.01" xlink:href="#hl"/>
<use x="326.43" y="90.01" xlink:href="#hl"/>
<use x="326.43" y="84.01" xlink:href="#hl"/>
<use x="326.43" y="84.01" xlink:href="#hd"/>
<path d="M322.93 84.01v30.00" stroke="currentColor" fill="none"/>
<use x="346.63" y="96.01" xlink:href="#hl"/>
<use x="346.63" y="90.01" xlink:href="#hl"/>
<use x="346.63" y="87.01" xlink:href="#Hd"/>
<path d="M343.13 87.01v27.00" stroke="currentColor" fill="none"/>
<use x="388.43" y="96.01" xlink:href="#hl"/>
<use x="388.43" y="90.01" xlink:href="#hl"/>
<use x="388.43" y="87.01" xlink:href="#Hd"/>
<path d="M384.93 87.01v27.00" stroke="currentColor" fill="none"/>
<use x="424.23" y="96.01" xlink:href="#hl"/>
<use x="424.23" y="93.01" xlink:href="#hd"/>
<path d="M420.73 93.01v21.00" stroke="currentColor" fill="none"/>
<use x="449.93" y="96.01" xlink:href="#hl"/>
<use x="449.93" y="90.01" xlink:href="#hl"/>
<use x="449.93" y="87.01" xlink:href="#hd"/>
<path d="M446.43 87.01v27.00" stroke="currentColor" fill="none"/>
<use x="483.03" y="96.01" xlink:href="#hl"/>
<use x="483.03" y="90.01" xlink:href="#hl"/>
<use x="483.03" y="84.01" xlink:href="#hl"/>
<use x="483.03" y="84.01" xlink:href="#hd"/>
<path d="M479.53 84.01v30.00" stroke="currentColor" fill="none"/>
<use x="508.63" y="96.01" xlink:href="#hl"/>
<use x="508.63" y="90.01" xlink:href="#hl"/>
<use x="508.63" y="84.01" xlink:href="#hl"/>
<use x="508.63" y="81.01" xlink:href="#hd"/>
<path d="M505.13 81.01v33.00" stroke="currentColor" fill="none"/>
<use x="534.23" y="96.01" xlink:href="#hl"/>
<use x="534.23" y="90.01" xlink:href="#hl"/>
<use x="534.23" y="90.01" xlink:href="#Hd"/>
<path d="M530.73 90.01v24.00" stroke="currentColor" fill="none"/>
<use x="576.03" y="96.01" xlink:href="#hl"/>
<use x="576.03" y="90.01" xlink:href="#hl"/>
<use x="576.03" y="90.01" xlink:href="#Hd"/>
<path d="M572.53 90.01v24.00" stroke="currentColor" fill="none"/>
<use x="611.73" y="99.01" xlink:href="#Hd"/>
<path d="M608.23 99.01v20.00" stroke="currentColor" fill="none"/>
<defs>
<path id="hl1" stroke="currentColor" d="m-7 0h14"/>
</defs>
<use x="655.53" y="96.01" xlink:href="#hl1"/>
<defs>
<path id="HD" fill="currentColor" d="m-2.7 -1.4
	c1.5 -2.8 6.9 0 5.3 2.7
	c-1.5 2.8 -6.9 0 -5.3 -2.7
	m8.3 1.4
	c0 -1.5 -2.2 -3 -5.6 -3
	c-3.4 0 -5.6 1.5 -5.6 3
	c0 1.5 2.2 3 5.6 3
	c3.4 0 5.6 -1.5 5.6 -3"/>
</defs>
<use x="655.53" y="96.01" xlink:href="#HD"/>
<path fill="currentColor"
	d="M114.13 85.01c5.40 -5.12 28.90 -5.12 34.30 -0.00
	l0.00 -0.23c-6.43 -6.88 -27.87 -6.88 -34.30 0.23"/>
<path fill="currentColor"
	d="M350.13 85.01c5.48 -5.13 29.32 -5.13 34.80 -0.00
	l0.00 -0.23c-6.52 -6.89 -28.27 -6.89 -34.80 0.23"/>
<path fill="currentColor"
	d="M537.73 90.01c5.48 -5.13 29.32 -5.13 34.80 -0.00
	l0.00 -0.23c-6.52 -6.89 -28.27 -6.89 -34.80 0.23"/>
</g>
</svg>
