<?xml version="1.0" standalone="no"?>
<!DOCTYPE svg PUBLIC "-//W3C//DTD SVG 1.1//EN"
	"http://www.w3.org/Graphics/SVG/1.1/DTD/svg11.dtd">
<svg xmlns="http://www.w3.org/2000/svg" version="1.1"
	xmlns:xlink="http://www.w3.org/1999/xlink"
	xml:space='preserve' color="black"
	width="7.38in" height="1.35in" viewBox="0 0 531 98">
<title>9716.abc (9716) tune 1</title>
<!-- Creator: abcm2ps-7.8.14 -->
<!-- CreationDate: Mar 13, 2016 18:54 -->
<!-- CommandLine: -qxg 9716.abc -O ../svgs/9716.svg -->
<g transform="scale(0.750)" stroke-width="0.70" font-family="Times" font-size="20.00">
<text x="354.13" y="21.67" text-anchor="middle">9716.  Sonata in G Minor, 2nd. Mvt., 2nd. Theme</text>
</g>
<g transform="scale(0.750)" stroke-width="0.70" font-family="Times" font-size="14.00" font-style="italic">
<text x="694.93" y="45.34" text-anchor="end">Claude Debussy</text>
</g>
<g transform="scale(0.525)" stroke-width="0.70" font-family="Times" font-size="14.00" font-style="italic">
<defs>
<ellipse id="hd" rx="4.1" ry="2.9"
	transform="rotate(-20)" fill="currentColor"/>
</defs>
<use x="107.04" y="94.16" xlink:href="#hd"/>
<path d="M110.54 94.16v-20.00" stroke="currentColor" fill="none"/>
</g>
<g transform="scale(0.750)" stroke-width="0.70" font-family="Times" font-size="15.00" font-weight="bold">
<text x="82.63" y="68.01">= 120</text>
<path stroke="currentColor" fill="none"
	d="M163.43 107.01v-24.00"/>
<path stroke="currentColor" fill="none"
	d="M323.73 107.01v-24.00"/>
<path stroke="currentColor" fill="none"
	d="M456.93 107.01v-24.00"/>
<path stroke="currentColor" fill="none"
	d="M565.43 107.01v-24.00"/>
<path stroke="currentColor" fill="none"
	d="M694.93 107.01v-24.00"/>
<path stroke="currentColor" fill="none"
	d="M13.33 107.01h681.60m-681.60 -6h681.60m-681.60 -6h681.60m-681.60 -6h681.60m-681.60 -6h681.60"/>
<defs>
<path id="utclef" fill="currentColor" d="m-50 -90
	c-72 -41 -72 -158 52 -188
	c150 -10 220 188 90 256
	c-114 52 -275 0 -293 -136
	c-15 -181 93 -229 220 -334
	c88 -87 79 -133 62 -210
	c-51 33 -94 105 -89 186
	c17 267 36 374 49 574
	c6 96 -19 134 -77 135
	c-80 1 -126 -93 -61 -133
	c85 -41 133 101 31 105
	c23 17 92 37 90 -92
	c-10 -223 -39 -342 -50 -617
	c0 -90 0 -162 96 -232
	c56 72 63 230 22 289
	c-74 106 -257 168 -255 316
	c9 153 148 185 252 133
	c86 -65 29 -192 -80 -176
	c-71 12 -105 67 -59 124"/>
<use id="tclef" transform="scale(0.045)"
	xlink:href="#utclef"/>
</defs>
<use x="25.33" y="107.01" xlink:href="#tclef"/>
<defs>
<path id="usharp" fill="currentColor" d="
	m136 -702
	v890
	h32
	v-890
	m128 840
	h32
	v-888
	h-32
	m-232 286
	v116
	l338 -96
	v-116
	m-338 442
	v116
	l338 -98
	v-114"/>
<use id="sh0" transform="translate(-4,5) scale(0.018)"
	xlink:href="#usharp"/>
</defs>
<use x="40.33" y="83.01" xlink:href="#sh0"/>
<g font-family="serif" font-size="16" font-weight="bold" font-style="normal"
	transform="translate(56.33,107.01) scale(1.2,1)">
	<text y="-1" text-anchor="middle">4</text>
	<text y="-13" text-anchor="middle">2</text>
</g>
<defs>
<path id="r4" fill="currentColor" d="m-1 -8.5
	l3.6 5.1 -2.1 5.2 2.2 4.3
	c-2.6 -2.3 -5.1 0 -2.4 2.6
	c-4.8 -3 -1.5 -6.9 1.4 -4.1
	l-3.1 -4.5 1.9 -5.1 -1.5 -3.5"/>
</defs>
<use x="74.33" y="95.01" xlink:href="#r4"/>
<use x="123.83" y="83.01" xlink:href="#hd"/>
<defs>
<path id="unat" fill="currentColor" d="
	m96 -750
	h-32
	v716
	l32 -8
	l182 -54
	v282
	h32
	v-706
	l-34 10
	l-180 50
	v-290
	m0 592
	v-190
	l182 -52
	v188"/>
<use id="nt0" transform="translate(-3,5) scale(0.018)"
	xlink:href="#unat"/>
</defs>
<use x="114.83" y="83.01" xlink:href="#nt0"/>
<path d="M120.33 83.01v20.00" stroke="currentColor" fill="none"/>
<path fill="currentColor"
	d="M179.03 112.01l55.40 3.40v-3.20l-55.40 -3.40"/>
<path fill="currentColor"
	d="M215.13 109.21l18.80 1.20v-3.20l-18.80 -1.20"/>
<path fill="currentColor"
	d="M215.13 104.21l18.80 1.20v-3.20l-18.80 -1.20"/>
<use x="182.83" y="83.01" xlink:href="#hd"/>
<circle fill="currentColor" cx="190.83" cy="80.01" r="1.2"/>
<use x="173.83" y="83.01" xlink:href="#nt0"/>
<path d="M179.33 83.01v28.00" stroke="currentColor" fill="none"/>
<use x="218.63" y="89.01" xlink:href="#hd"/>
<path d="M215.13 89.01v24.20" stroke="currentColor" fill="none"/>
<use x="237.53" y="89.01" xlink:href="#hd"/>
<use x="228.53" y="89.01" xlink:href="#sh0"/>
<path d="M234.03 89.01v25.40" stroke="currentColor" fill="none"/>
<path fill="currentColor"
	d="M251.13 108.01l55.40 0.00v-3.20l-55.40 -0.00"/>
<path fill="currentColor"
	d="M287.33 103.01l18.80 0.00v-3.20l-18.80 -0.00"/>
<path fill="currentColor"
	d="M287.33 98.01l18.80 0.00v-3.20l-18.80 -0.00"/>
<use x="255.03" y="86.01" xlink:href="#hd"/>
<circle fill="currentColor" cx="263.03" cy="86.01" r="1.2"/>
<path d="M251.53 86.01v21.00" stroke="currentColor" fill="none"/>
<use x="290.83" y="80.01" xlink:href="#hd"/>
<path d="M287.33 80.01v27.00" stroke="currentColor" fill="none"/>
<use x="309.73" y="83.01" xlink:href="#hd"/>
<use x="300.73" y="83.01" xlink:href="#sh0"/>
<path d="M306.23 83.01v24.00" stroke="currentColor" fill="none"/>
<path fill="currentColor"
	d="M339.33 109.01l94.60 0.00v-3.20l-94.60 -0.00"/>
<path fill="currentColor"
	d="M369.53 104.01l6.00 0.00v-3.20l-6.00 -0.00"/>
<path fill="currentColor"
	d="M427.63 104.01l6.00 0.00v-3.20l-6.00 -0.00"/>
<use x="343.13" y="83.01" xlink:href="#hd"/>
<circle fill="currentColor" cx="351.13" cy="80.01" r="1.2"/>
<use x="334.13" y="83.01" xlink:href="#nt0"/>
<path d="M339.63 83.01v25.00" stroke="currentColor" fill="none"/>
<use x="379.03" y="89.01" xlink:href="#hd"/>
<use x="370.03" y="89.01" xlink:href="#nt0"/>
<path d="M375.53 89.01v19.00" stroke="currentColor" fill="none"/>
<use x="401.23" y="92.01" xlink:href="#hd"/>
<circle fill="currentColor" cx="409.23" cy="92.01" r="1.2"/>
<path d="M397.73 92.01v16.00" stroke="currentColor" fill="none"/>
<use x="437.13" y="86.01" xlink:href="#hd"/>
<path d="M433.63 86.01v22.00" stroke="currentColor" fill="none"/>
<use x="476.33" y="98.01" xlink:href="#hd"/>
<use x="467.33" y="98.01" xlink:href="#sh0"/>
<path d="M479.83 98.01v-20.00" stroke="currentColor" fill="none"/>
<use x="525.83" y="92.01" xlink:href="#hd"/>
<use x="516.83" y="92.01" xlink:href="#sh0"/>
<path d="M522.33 92.01v20.00" stroke="currentColor" fill="none"/>
<path fill="currentColor"
	d="M580.93 114.91l52.30 -3.70v-3.20l-52.30 3.70"/>
<path fill="currentColor"
	d="M617.13 107.31l15.80 -1.10v-3.20l-15.80 1.10"/>
<path fill="currentColor"
	d="M617.13 102.31l15.80 -1.10v-3.20l-15.80 1.10"/>
<use x="584.83" y="92.01" xlink:href="#hd"/>
<circle fill="currentColor" cx="592.83" cy="92.01" r="1.2"/>
<use x="575.83" y="92.01" xlink:href="#sh0"/>
<path d="M581.33 92.01v21.90" stroke="currentColor" fill="none"/>
<use x="620.63" y="83.01" xlink:href="#hd"/>
<use x="611.63" y="83.01" xlink:href="#nt0"/>
<path d="M617.13 83.01v28.30" stroke="currentColor" fill="none"/>
<use x="636.43" y="86.01" xlink:href="#hd"/>
<path d="M632.93 86.01v24.20" stroke="currentColor" fill="none"/>
<use x="655.33" y="89.01" xlink:href="#hd"/>
<use x="646.33" y="89.01" xlink:href="#sh0"/>
<path d="M651.83 89.01v20.00" stroke="currentColor" fill="none"/>
<path fill="currentColor"
	d="M127.33 83.01c7.91 -5.44 44.10 -5.44 52.02 -0.00
	l0.00 -0.25c-9.47 -7.18 -42.54 -7.18 -52.02 0.25"/>
<path fill="currentColor"
	d="M529.33 90.01c7.91 -5.44 44.10 -5.44 52.02 -0.00
	l0.00 -0.25c-9.47 -7.18 -42.54 -7.18 -52.02 0.25"/>
</g>
</svg>
