<?xml version="1.0" standalone="no"?>
<!DOCTYPE svg PUBLIC "-//W3C//DTD SVG 1.1//EN"
	"http://www.w3.org/Graphics/SVG/1.1/DTD/svg11.dtd">
<svg xmlns="http://www.w3.org/2000/svg" version="1.1"
	xmlns:xlink="http://www.w3.org/1999/xlink"
	xml:space='preserve' color="black"
	width="7.38in" height="1.34in" viewBox="0 0 531 97">
<title>9736.abc (9736) tune 1</title>
<!-- Creator: abcm2ps-7.8.14 -->
<!-- CreationDate: Mar 13, 2016 18:54 -->
<!-- CommandLine: -qxg 9736.abc -O ../svgs/9736.svg -->
<g transform="scale(0.750)" stroke-width="0.70" font-family="Times" font-size="20.00">
<text x="354.13" y="21.67" text-anchor="middle">9736.  Coppelia, Act III, Marche de la Cloche, 1st. Theme</text>
</g>
<g transform="scale(0.750)" stroke-width="0.70" font-family="Times" font-size="14.00" font-style="italic">
<text x="694.93" y="45.34" text-anchor="end">Clement Philibert Leo Delibes</text>
</g>
<g transform="scale(0.525)" stroke-width="0.70" font-family="Times" font-size="14.00" font-style="italic">
<defs>
<ellipse id="hd" rx="4.1" ry="2.9"
	transform="rotate(-20)" fill="currentColor"/>
</defs>
<use x="107.04" y="94.16" xlink:href="#hd"/>
<path d="M110.54 94.16v-20.00" stroke="currentColor" fill="none"/>
</g>
<g transform="scale(0.750)" stroke-width="0.70" font-family="Times" font-size="15.00" font-weight="bold">
<text x="82.63" y="68.01">= 120</text>
<path stroke="currentColor" fill="none"
	d="M167.53 106.01v-24.00"/>
<path stroke="currentColor" fill="none"
	d="M273.13 106.01v-24.00"/>
<path stroke="currentColor" fill="none"
	d="M396.13 106.01v-24.00"/>
<path stroke="currentColor" fill="none"
	d="M510.03 106.01v-24.00"/>
<path stroke="currentColor" fill="none"
	d="M602.43 106.01v-24.00"/>
<path stroke="currentColor" fill="none"
	d="M694.93 106.01v-24.00"/>
<path stroke="currentColor" fill="none"
	d="M13.33 106.01h681.60m-681.60 -6h681.60m-681.60 -6h681.60m-681.60 -6h681.60m-681.60 -6h681.60"/>
<defs>
<path id="utclef" fill="currentColor" d="m-50 -90
	c-72 -41 -72 -158 52 -188
	c150 -10 220 188 90 256
	c-114 52 -275 0 -293 -136
	c-15 -181 93 -229 220 -334
	c88 -87 79 -133 62 -210
	c-51 33 -94 105 -89 186
	c17 267 36 374 49 574
	c6 96 -19 134 -77 135
	c-80 1 -126 -93 -61 -133
	c85 -41 133 101 31 105
	c23 17 92 37 90 -92
	c-10 -223 -39 -342 -50 -617
	c0 -90 0 -162 96 -232
	c56 72 63 230 22 289
	c-74 106 -257 168 -255 316
	c9 153 148 185 252 133
	c86 -65 29 -192 -80 -176
	c-71 12 -105 67 -59 124"/>
<use id="tclef" transform="scale(0.045)"
	xlink:href="#utclef"/>
</defs>
<use x="25.33" y="106.01" xlink:href="#tclef"/>
<defs>
<path id="uflat" fill="currentColor" d="
	m100 -746
	h32
	v734
	l-32 4
	m32 -332
	c46 -72 152 -90 208 -20
	c100 110 -120 326 -208 348
	m0 -28
	c54 0 200 -206 130 -290
	c-50 -60 -130 -4 -130 34"/>
<use id="ft0" transform="translate(-3.5,3.5) scale(0.018)"
	xlink:href="#uflat"/>
</defs>
<use x="40.33" y="94.01" xlink:href="#ft0"/>
<g font-family="serif" font-size="16" font-weight="bold" font-style="normal"
	transform="translate(56.33,106.01) scale(1.2,1)">
	<text y="-1" text-anchor="middle">4</text>
	<text y="-13" text-anchor="middle">2</text>
</g>
<use x="74.33" y="94.01" xlink:href="#hd"/>
<path d="M70.83 94.01v20.00" stroke="currentColor" fill="none"/>
<path fill="currentColor"
	d="M70.83 114.01c0.6 -5.6 9.6 -9 5.6 -18.4
	c1.6 6 -1.3 11.6 -5.6 12.8
"/>
<path fill="currentColor"
	d="M92.83 111.61l15.10 4.70v-3.20l-15.10 -4.70"/>
<path fill="currentColor"
	d="M93.23 106.71l14.40 4.50v-3.20l-14.40 -4.50"/>
<use x="96.73" y="82.01" xlink:href="#hd"/>
<path d="M93.23 82.01v28.70" stroke="currentColor" fill="none"/>
<use x="111.13" y="94.01" xlink:href="#hd"/>
<path d="M107.63 94.01v21.20" stroke="currentColor" fill="none"/>
<use x="127.13" y="91.01" xlink:href="#hd"/>
<path d="M123.63 91.01v20.00" stroke="currentColor" fill="none"/>
<path fill="currentColor"
	d="M123.63 111.01c0.6 -5.6 9.6 -9 5.6 -18.4
	c1.6 6 -1.3 11.6 -5.6 12.8
"/>
<use x="149.43" y="88.01" xlink:href="#hd"/>
<path d="M145.93 88.01v20.00" stroke="currentColor" fill="none"/>
<path fill="currentColor"
	d="M145.93 108.01c0.6 -5.6 9.6 -9 5.6 -18.4
	c1.6 6 -1.3 11.6 -5.6 12.8
"/>
<use x="180.03" y="94.01" xlink:href="#hd"/>
<path d="M176.53 94.01v20.00" stroke="currentColor" fill="none"/>
<path fill="currentColor"
	d="M176.53 114.01c0.6 -5.6 9.6 -9 5.6 -18.4
	c1.6 6 -1.3 11.6 -5.6 12.8
"/>
<path fill="currentColor"
	d="M198.53 111.61l15.10 4.70v-3.20l-15.10 -4.70"/>
<path fill="currentColor"
	d="M198.83 106.71l14.40 4.50v-3.20l-14.40 -4.50"/>
<use x="202.33" y="82.01" xlink:href="#hd"/>
<path d="M198.83 82.01v28.70" stroke="currentColor" fill="none"/>
<use x="216.83" y="94.01" xlink:href="#hd"/>
<path d="M213.33 94.01v21.20" stroke="currentColor" fill="none"/>
<use x="232.73" y="91.01" xlink:href="#hd"/>
<path d="M229.23 91.01v20.00" stroke="currentColor" fill="none"/>
<path fill="currentColor"
	d="M229.23 111.01c0.6 -5.6 9.6 -9 5.6 -18.4
	c1.6 6 -1.3 11.6 -5.6 12.8
"/>
<use x="255.13" y="88.01" xlink:href="#hd"/>
<path d="M251.63 88.01v20.00" stroke="currentColor" fill="none"/>
<path fill="currentColor"
	d="M251.63 108.01c0.6 -5.6 9.6 -9 5.6 -18.4
	c1.6 6 -1.3 11.6 -5.6 12.8
"/>
<path fill="currentColor"
	d="M281.83 116.31l15.10 -4.70v-3.20l-15.10 4.70"/>
<path fill="currentColor"
	d="M282.13 111.21l14.40 -4.50v-3.20l-14.40 4.50"/>
<use x="285.63" y="94.01" xlink:href="#hd"/>
<path d="M282.13 94.01v21.20" stroke="currentColor" fill="none"/>
<use x="300.13" y="82.01" xlink:href="#hd"/>
<path d="M296.63 82.01v28.70" stroke="currentColor" fill="none"/>
<path fill="currentColor"
	d="M312.23 116.21l15.10 -2.20v-3.20l-15.10 2.20"/>
<path fill="currentColor"
	d="M312.53 111.21l14.40 -2.10v-3.20l-14.40 2.10"/>
<use x="316.03" y="94.01" xlink:href="#hd"/>
<path d="M312.53 94.01v21.20" stroke="currentColor" fill="none"/>
<use x="330.43" y="91.01" xlink:href="#hd"/>
<path d="M326.93 91.01v22.10" stroke="currentColor" fill="none"/>
<use x="346.43" y="88.01" xlink:href="#hd"/>
<path d="M342.93 88.01v20.00" stroke="currentColor" fill="none"/>
<path fill="currentColor"
	d="M342.93 108.01c0.6 -5.6 9.6 -9 5.6 -18.4
	c1.6 6 -1.3 11.6 -5.6 12.8
"/>
<path fill="currentColor"
	d="M364.93 113.21l15.10 -2.20v-3.20l-15.10 2.20"/>
<path fill="currentColor"
	d="M365.33 108.21l14.40 -2.10v-3.20l-14.40 2.10"/>
<use x="368.83" y="91.01" xlink:href="#hd"/>
<path d="M365.33 91.01v21.20" stroke="currentColor" fill="none"/>
<use x="383.23" y="88.01" xlink:href="#hd"/>
<path d="M379.73 88.01v22.10" stroke="currentColor" fill="none"/>
<path fill="currentColor"
	d="M404.83 116.31l15.10 -3.40v-3.20l-15.10 3.40"/>
<path fill="currentColor"
	d="M405.13 111.21l14.40 -3.30v-3.20l-14.40 3.30"/>
<use x="408.63" y="94.01" xlink:href="#hd"/>
<path d="M405.13 94.01v21.20" stroke="currentColor" fill="none"/>
<use x="423.03" y="88.01" xlink:href="#hd"/>
<path d="M419.53 88.01v23.90" stroke="currentColor" fill="none"/>
<path fill="currentColor"
	d="M435.23 104.31l15.10 -4.20v-3.20l-15.10 4.20"/>
<path fill="currentColor"
	d="M435.53 99.21l14.40 -4.00v-3.20l-14.40 4.00"/>
<use x="439.03" y="82.01" xlink:href="#hd"/>
<path d="M435.53 82.01v21.20" stroke="currentColor" fill="none"/>
<defs>
<path id="hl" stroke="currentColor" d="m-6 0h12"/>
</defs>
<use x="453.43" y="76.01" xlink:href="#hl"/>
<use x="453.43" y="73.01" xlink:href="#hd"/>
<path d="M449.93 73.01v26.20" stroke="currentColor" fill="none"/>
<use x="469.53" y="76.01" xlink:href="#hl"/>
<use x="469.53" y="70.01" xlink:href="#hl"/>
<use x="469.53" y="67.01" xlink:href="#hd"/>
<path d="M466.03 67.01v27.00" stroke="currentColor" fill="none"/>
<path fill="currentColor"
	d="M466.03 94.01c0.6 -5.6 9.6 -9 5.6 -18.4
	c1.6 6 -1.3 11.6 -5.6 12.8
"/>
<use x="491.93" y="76.01" xlink:href="#hl"/>
<use x="491.93" y="70.01" xlink:href="#hl"/>
<use x="491.93" y="67.01" xlink:href="#hd"/>
<path d="M488.43 67.01v27.00" stroke="currentColor" fill="none"/>
<path fill="currentColor"
	d="M488.43 94.01c0.6 -5.6 9.6 -9 5.6 -18.4
	c1.6 6 -1.3 11.6 -5.6 12.8
"/>
<path fill="currentColor"
	d="M518.63 94.21l24.10 0.00v-3.20l-24.10 -0.00"/>
<path fill="currentColor"
	d="M536.43 89.21l6.00 0.00v-3.20l-6.00 -0.00"/>
<use x="522.53" y="76.01" xlink:href="#hl"/>
<use x="522.53" y="70.01" xlink:href="#hl"/>
<use x="522.53" y="70.01" xlink:href="#hd"/>
<circle fill="currentColor" cx="530.53" cy="67.01" r="1.2"/>
<path d="M519.03 70.01v23.20" stroke="currentColor" fill="none"/>
<use x="545.93" y="76.01" xlink:href="#hl"/>
<use x="545.93" y="70.01" xlink:href="#hl"/>
<use x="545.93" y="67.01" xlink:href="#hd"/>
<path d="M542.43 67.01v26.20" stroke="currentColor" fill="none"/>
<use x="561.93" y="76.01" xlink:href="#hl"/>
<use x="561.93" y="70.01" xlink:href="#hl"/>
<use x="561.93" y="70.01" xlink:href="#hd"/>
<path d="M558.43 70.01v24.00" stroke="currentColor" fill="none"/>
<path fill="currentColor"
	d="M558.43 94.01c0.6 -5.6 9.6 -9 5.6 -18.4
	c1.6 6 -1.3 11.6 -5.6 12.8
"/>
<use x="584.43" y="76.01" xlink:href="#hl"/>
<use x="584.43" y="76.01" xlink:href="#hd"/>
<path d="M580.93 76.01v20.00" stroke="currentColor" fill="none"/>
<path fill="currentColor"
	d="M580.93 96.01c0.6 -5.6 9.6 -9 5.6 -18.4
	c1.6 6 -1.3 11.6 -5.6 12.8
"/>
<path fill="currentColor"
	d="M611.13 94.21l24.10 0.00v-3.20l-24.10 -0.00"/>
<path fill="currentColor"
	d="M628.93 89.21l6.00 0.00v-3.20l-6.00 -0.00"/>
<use x="614.93" y="76.01" xlink:href="#hl"/>
<use x="614.93" y="70.01" xlink:href="#hl"/>
<use x="614.93" y="70.01" xlink:href="#hd"/>
<circle fill="currentColor" cx="622.93" cy="67.01" r="1.2"/>
<path d="M611.43 70.01v23.20" stroke="currentColor" fill="none"/>
<use x="638.43" y="76.01" xlink:href="#hl"/>
<use x="638.43" y="70.01" xlink:href="#hl"/>
<use x="638.43" y="67.01" xlink:href="#hd"/>
<path d="M634.93 67.01v26.20" stroke="currentColor" fill="none"/>
<use x="654.43" y="76.01" xlink:href="#hl"/>
<use x="654.43" y="70.01" xlink:href="#hl"/>
<use x="654.43" y="70.01" xlink:href="#hd"/>
<path d="M650.93 70.01v24.00" stroke="currentColor" fill="none"/>
<path fill="currentColor"
	d="M650.93 94.01c0.6 -5.6 9.6 -9 5.6 -18.4
	c1.6 6 -1.3 11.6 -5.6 12.8
"/>
<use x="676.93" y="76.01" xlink:href="#hl"/>
<use x="676.93" y="76.01" xlink:href="#hd"/>
<path d="M673.43 76.01v20.00" stroke="currentColor" fill="none"/>
<path fill="currentColor"
	d="M673.43 96.01c0.6 -5.6 9.6 -9 5.6 -18.4
	c1.6 6 -1.3 11.6 -5.6 12.8
"/>
</g>
</svg>
