<?xml version="1.0" standalone="no"?>
<!DOCTYPE svg PUBLIC "-//W3C//DTD SVG 1.1//EN"
	"http://www.w3.org/Graphics/SVG/1.1/DTD/svg11.dtd">
<svg xmlns="http://www.w3.org/2000/svg" version="1.1"
	xmlns:xlink="http://www.w3.org/1999/xlink"
	xml:space='preserve' color="black"
	width="7.38in" height="1.83in" viewBox="0 0 531 132">
<title>9775.abc (9775) tune 1</title>
<!-- Creator: abcm2ps-7.8.14 -->
<!-- CreationDate: Mar 13, 2016 18:54 -->
<!-- CommandLine: -qxg 9775.abc -O ../svgs/9775.svg -->
<g transform="scale(0.750)" stroke-width="0.70" font-family="Times" font-size="20.00">
<text x="354.13" y="21.67" text-anchor="middle">9775.  Concerto, Vn. and Orch., 6th. Theme</text>
</g>
<g transform="scale(0.750)" stroke-width="0.70" font-family="Times" font-size="14.00" font-style="italic">
<text x="694.93" y="45.34" text-anchor="end">Frederick Delius</text>
</g>
<g transform="scale(0.525)" stroke-width="0.70" font-family="Times" font-size="14.00" font-style="italic">
<defs>
<ellipse id="hd" rx="4.1" ry="2.9"
	transform="rotate(-20)" fill="currentColor"/>
</defs>
<use x="89.19" y="94.16" xlink:href="#hd"/>
<path d="M92.69 94.16v-20.00" stroke="currentColor" fill="none"/>
</g>
<g transform="scale(0.750)" stroke-width="0.70" font-family="Times" font-size="15.00" font-weight="bold">
<text x="70.13" y="68.01">= 120</text>
<path stroke="currentColor" fill="none"
	d="M303.23 152.81v-24.00"/>
<path stroke="currentColor" fill="none"
	d="M500.93 152.81v-24.00"/>
<path stroke="currentColor" fill="none"
	d="M694.93 152.81v-24.00"/>
<path stroke="currentColor" fill="none"
	d="M13.33 152.81h681.60m-681.60 -6h681.60m-681.60 -6h681.60m-681.60 -6h681.60m-681.60 -6h681.60"/>
<path stroke="currentColor" fill="none"
	d="M57.83 83.81v-3l71.30 -9.00v3"/>
<rect x="86.43" y="70.31" width="14.00" height="12" fill="white"/>
<text font-family="serif" font-size="12" font-style="italic" font-weight="normal"
	x="93.43" y="80.31" text-anchor="middle">3</text>
<defs>
<path id="utclef" fill="currentColor" d="m-50 -90
	c-72 -41 -72 -158 52 -188
	c150 -10 220 188 90 256
	c-114 52 -275 0 -293 -136
	c-15 -181 93 -229 220 -334
	c88 -87 79 -133 62 -210
	c-51 33 -94 105 -89 186
	c17 267 36 374 49 574
	c6 96 -19 134 -77 135
	c-80 1 -126 -93 -61 -133
	c85 -41 133 101 31 105
	c23 17 92 37 90 -92
	c-10 -223 -39 -342 -50 -617
	c0 -90 0 -162 96 -232
	c56 72 63 230 22 289
	c-74 106 -257 168 -255 316
	c9 153 148 185 252 133
	c86 -65 29 -192 -80 -176
	c-71 12 -105 67 -59 124"/>
<use id="tclef" transform="scale(0.045)"
	xlink:href="#utclef"/>
</defs>
<use x="25.33" y="152.81" xlink:href="#tclef"/>
<g font-family="serif" font-size="16" font-weight="bold" font-style="normal"
	transform="translate(43.83,152.81) scale(1.2,1)">
	<text y="-1" text-anchor="middle">4</text>
	<text y="-13" text-anchor="middle">4</text>
</g>
<defs>
<path id="hl" stroke="currentColor" d="m-6 0h12"/>
</defs>
<use x="61.83" y="122.81" xlink:href="#hl"/>
<use x="61.83" y="116.81" xlink:href="#hl"/>
<use x="61.83" y="110.81" xlink:href="#hl"/>
<use x="61.83" y="104.81" xlink:href="#hl"/>
<use x="61.83" y="101.81" xlink:href="#hd"/>
<path d="M58.33 101.81v39.00" stroke="currentColor" fill="none"/>
<use x="96.33" y="122.81" xlink:href="#hl"/>
<use x="96.33" y="116.81" xlink:href="#hl"/>
<use x="96.33" y="110.81" xlink:href="#hl"/>
<use x="96.33" y="104.81" xlink:href="#hl"/>
<use x="96.33" y="101.81" xlink:href="#hd"/>
<path d="M92.83 101.81v39.00" stroke="currentColor" fill="none"/>
<path fill="currentColor"
	d="M92.83 140.81c0.9 -3.7 9.1 -6.4 6 -12.4
	c1 5.4 -4.2 8.4 -6 8.4
M92.83 135.41c0.9 -3.7 9.1 -6.4 6 -12.4
	c1 5.4 -4.2 8.4 -6 8.4
"/>
<use x="113.63" y="122.81" xlink:href="#hl"/>
<use x="113.63" y="116.81" xlink:href="#hl"/>
<use x="113.63" y="110.81" xlink:href="#hl"/>
<use x="113.63" y="104.81" xlink:href="#hl"/>
<use x="113.63" y="98.81" xlink:href="#hl"/>
<use x="113.63" y="92.81" xlink:href="#hl"/>
<use x="113.63" y="92.81" xlink:href="#hd"/>
<path d="M110.13 92.81v48.00" stroke="currentColor" fill="none"/>
<use x="148.13" y="122.81" xlink:href="#hl"/>
<use x="148.13" y="116.81" xlink:href="#hl"/>
<use x="148.13" y="110.81" xlink:href="#hl"/>
<use x="148.13" y="104.81" xlink:href="#hl"/>
<use x="148.13" y="98.81" xlink:href="#hl"/>
<use x="148.13" y="92.81" xlink:href="#hl"/>
<use x="148.13" y="92.81" xlink:href="#hd"/>
<path d="M144.63 92.81v48.00" stroke="currentColor" fill="none"/>
<path fill="currentColor"
	d="M144.63 140.81c0.9 -3.7 9.1 -6.4 6 -12.4
	c1 5.4 -4.2 8.4 -6 8.4
M144.63 135.41c0.9 -3.7 9.1 -6.4 6 -12.4
	c1 5.4 -4.2 8.4 -6 8.4
"/>
<use x="170.23" y="122.81" xlink:href="#hl"/>
<use x="170.23" y="116.81" xlink:href="#hl"/>
<use x="170.23" y="110.81" xlink:href="#hl"/>
<use x="170.23" y="104.81" xlink:href="#hl"/>
<use x="170.23" y="98.81" xlink:href="#hl"/>
<use x="170.23" y="95.81" xlink:href="#hd"/>
<path d="M166.73 95.81v45.00" stroke="currentColor" fill="none"/>
<use x="214.43" y="122.81" xlink:href="#hl"/>
<use x="214.43" y="116.81" xlink:href="#hl"/>
<use x="214.43" y="110.81" xlink:href="#hl"/>
<use x="214.43" y="104.81" xlink:href="#hl"/>
<use x="214.43" y="98.81" xlink:href="#hl"/>
<use x="214.43" y="95.81" xlink:href="#hd"/>
<path d="M210.93 95.81v45.00" stroke="currentColor" fill="none"/>
<path fill="currentColor"
	d="M210.93 140.81c0.9 -3.7 9.1 -6.4 6 -12.4
	c1 5.4 -4.2 8.4 -6 8.4
M210.93 135.41c0.9 -3.7 9.1 -6.4 6 -12.4
	c1 5.4 -4.2 8.4 -6 8.4
"/>
<use x="236.53" y="122.81" xlink:href="#hl"/>
<use x="236.53" y="116.81" xlink:href="#hl"/>
<use x="236.53" y="110.81" xlink:href="#hl"/>
<use x="236.53" y="104.81" xlink:href="#hl"/>
<use x="236.53" y="101.81" xlink:href="#hd"/>
<path d="M233.03 101.81v39.00" stroke="currentColor" fill="none"/>
<path fill="currentColor"
	d="M233.03 140.81c0.6 -5.6 9.6 -9 5.6 -18.4
	c1.6 6 -1.3 11.6 -5.6 12.8
"/>
<use x="267.83" y="122.81" xlink:href="#hl"/>
<use x="267.83" y="116.81" xlink:href="#hl"/>
<use x="267.83" y="110.81" xlink:href="#hl"/>
<use x="267.83" y="110.81" xlink:href="#hd"/>
<path d="M264.33 110.81v30.00" stroke="currentColor" fill="none"/>
<use x="318.83" y="122.81" xlink:href="#hl"/>
<use x="318.83" y="116.81" xlink:href="#hl"/>
<use x="318.83" y="113.81" xlink:href="#hd"/>
<path d="M315.33 113.81v27.00" stroke="currentColor" fill="none"/>
<path fill="currentColor"
	d="M315.33 140.81c0.6 -5.6 9.6 -9 5.6 -18.4
	c1.6 6 -1.3 11.6 -5.6 12.8
"/>
<use x="350.13" y="122.81" xlink:href="#hl"/>
<use x="350.13" y="116.81" xlink:href="#hl"/>
<use x="350.13" y="110.81" xlink:href="#hl"/>
<use x="350.13" y="110.81" xlink:href="#hd"/>
<circle fill="currentColor" cx="358.13" cy="107.81" r="1.2"/>
<path d="M346.63 110.81v30.00" stroke="currentColor" fill="none"/>
<use x="400.43" y="122.81" xlink:href="#hl"/>
<use x="400.43" y="116.81" xlink:href="#hl"/>
<use x="400.43" y="110.81" xlink:href="#hl"/>
<use x="400.43" y="104.81" xlink:href="#hl"/>
<use x="400.43" y="104.81" xlink:href="#hd"/>
<path d="M396.93 104.81v36.00" stroke="currentColor" fill="none"/>
<use x="444.63" y="122.81" xlink:href="#hl"/>
<use x="444.63" y="116.81" xlink:href="#hl"/>
<use x="444.63" y="110.81" xlink:href="#hl"/>
<use x="444.63" y="104.81" xlink:href="#hl"/>
<use x="444.63" y="101.81" xlink:href="#hd"/>
<path d="M441.13 101.81v39.00" stroke="currentColor" fill="none"/>
<path fill="currentColor"
	d="M441.13 140.81c0.6 -5.6 9.6 -9 5.6 -18.4
	c1.6 6 -1.3 11.6 -5.6 12.8
"/>
<use x="475.93" y="122.81" xlink:href="#hl"/>
<use x="475.93" y="116.81" xlink:href="#hl"/>
<use x="475.93" y="110.81" xlink:href="#hl"/>
<use x="475.93" y="104.81" xlink:href="#hl"/>
<use x="475.93" y="98.81" xlink:href="#hl"/>
<use x="475.93" y="98.81" xlink:href="#hd"/>
<path d="M472.43 98.81v42.00" stroke="currentColor" fill="none"/>
<path fill="currentColor"
	d="M472.43 140.81c0.6 -5.6 9.6 -9 5.6 -18.4
	c1.6 6 -1.3 11.6 -5.6 12.8
"/>
<use x="516.63" y="122.81" xlink:href="#hl"/>
<use x="516.63" y="116.81" xlink:href="#hl"/>
<use x="516.63" y="110.81" xlink:href="#hl"/>
<use x="516.63" y="104.81" xlink:href="#hl"/>
<use x="516.63" y="98.81" xlink:href="#hl"/>
<use x="516.63" y="98.81" xlink:href="#hd"/>
<path d="M513.13 98.81v42.00" stroke="currentColor" fill="none"/>
<path fill="currentColor"
	d="M513.13 140.81c0.6 -5.6 9.6 -9 5.6 -18.4
	c1.6 6 -1.3 11.6 -5.6 12.8
"/>
<use x="547.93" y="122.81" xlink:href="#hl"/>
<use x="547.93" y="116.81" xlink:href="#hl"/>
<use x="547.93" y="110.81" xlink:href="#hl"/>
<use x="547.93" y="104.81" xlink:href="#hl"/>
<use x="547.93" y="101.81" xlink:href="#hd"/>
<path d="M544.43 101.81v39.00" stroke="currentColor" fill="none"/>
<path fill="currentColor"
	d="M544.43 140.81c0.6 -5.6 9.6 -9 5.6 -18.4
	c1.6 6 -1.3 11.6 -5.6 12.8
"/>
<use x="579.13" y="122.81" xlink:href="#hl"/>
<use x="579.13" y="116.81" xlink:href="#hl"/>
<use x="579.13" y="110.81" xlink:href="#hl"/>
<use x="579.13" y="110.81" xlink:href="#hd"/>
<path d="M575.63 110.81v30.00" stroke="currentColor" fill="none"/>
<use x="623.43" y="122.81" xlink:href="#hl"/>
<use x="623.43" y="116.81" xlink:href="#hl"/>
<use x="623.43" y="113.81" xlink:href="#hd"/>
<path d="M619.93 113.81v27.00" stroke="currentColor" fill="none"/>
<path fill="currentColor"
	d="M619.93 140.81c0.6 -5.6 9.6 -9 5.6 -18.4
	c1.6 6 -1.3 11.6 -5.6 12.8
"/>
<use x="654.63" y="122.81" xlink:href="#hl"/>
<use x="654.63" y="116.81" xlink:href="#hl"/>
<use x="654.63" y="116.81" xlink:href="#hd"/>
<circle fill="currentColor" cx="662.63" cy="113.81" r="1.2"/>
<path d="M651.13 116.81v24.00" stroke="currentColor" fill="none"/>
<path fill="currentColor"
	d="M65.33 99.81c4.33 -5.00 23.18 -5.00 27.51 -0.00
	l0.00 -0.23c-5.16 -6.77 -22.36 -6.77 -27.51 0.23"/>
<path fill="currentColor"
	d="M117.13 92.81c4.33 -5.00 23.18 -5.00 27.51 -0.00
	l0.00 -0.23c-5.16 -6.77 -22.36 -6.77 -27.51 0.23"/>
<path fill="currentColor"
	d="M173.73 93.81c5.86 -5.17 31.35 -5.17 37.21 -0.00
	l0.00 -0.24c-6.98 -6.93 -30.24 -6.93 -37.21 0.24"/>
<path fill="currentColor"
	d="M479.43 98.81c5.30 -5.11 28.36 -5.11 33.67 -0.00
	l0.00 -0.23c-6.31 -6.87 -27.35 -6.87 -33.67 0.23"/>
</g>
</svg>
