<?xml version="1.0" standalone="no"?>
<!DOCTYPE svg PUBLIC "-//W3C//DTD SVG 1.1//EN"
	"http://www.w3.org/Graphics/SVG/1.1/DTD/svg11.dtd">
<svg xmlns="http://www.w3.org/2000/svg" version="1.1"
	xmlns:xlink="http://www.w3.org/1999/xlink"
	xml:space='preserve' color="black"
	width="7.38in" height="1.64in" viewBox="0 0 531 118">
<title>9785.abc (9785) tune 1</title>
<!-- Creator: abcm2ps-7.8.14 -->
<!-- CreationDate: Mar 13, 2016 18:54 -->
<!-- CommandLine: -qxg 9785.abc -O ../svgs/9785.svg -->
<g transform="scale(0.750)" stroke-width="0.70" font-family="Times" font-size="20.00">
<text x="354.13" y="21.67" text-anchor="middle">9785.  In a Summer Garden, 4th. Theme</text>
</g>
<g transform="scale(0.750)" stroke-width="0.70" font-family="Times" font-size="14.00" font-style="italic">
<text x="694.93" y="45.34" text-anchor="end">Frederick Delius</text>
</g>
<g transform="scale(0.525)" stroke-width="0.70" font-family="Times" font-size="14.00" font-style="italic">
<defs>
<ellipse id="hd" rx="4.1" ry="2.9"
	transform="rotate(-20)" fill="currentColor"/>
</defs>
<use x="89.90" y="94.16" xlink:href="#hd"/>
<path d="M93.40 94.16v-20.00" stroke="currentColor" fill="none"/>
</g>
<g transform="scale(0.750)" stroke-width="0.70" font-family="Times" font-size="15.00" font-weight="bold">
<text x="70.63" y="68.01">= 120</text>
<path stroke="currentColor" fill="none"
	d="M125.73 134.01v-24.00"/>
<path stroke="currentColor" fill="none"
	d="M373.63 134.01v-24.00"/>
<path stroke="currentColor" fill="none"
	d="M621.43 134.01v-24.00"/>
<path stroke="currentColor" fill="none"
	d="M13.33 134.01h681.60m-681.60 -6h681.60m-681.60 -6h681.60m-681.60 -6h681.60m-681.60 -6h681.60"/>
<defs>
<path id="utclef" fill="currentColor" d="m-50 -90
	c-72 -41 -72 -158 52 -188
	c150 -10 220 188 90 256
	c-114 52 -275 0 -293 -136
	c-15 -181 93 -229 220 -334
	c88 -87 79 -133 62 -210
	c-51 33 -94 105 -89 186
	c17 267 36 374 49 574
	c6 96 -19 134 -77 135
	c-80 1 -126 -93 -61 -133
	c85 -41 133 101 31 105
	c23 17 92 37 90 -92
	c-10 -223 -39 -342 -50 -617
	c0 -90 0 -162 96 -232
	c56 72 63 230 22 289
	c-74 106 -257 168 -255 316
	c9 153 148 185 252 133
	c86 -65 29 -192 -80 -176
	c-71 12 -105 67 -59 124"/>
<use id="tclef" transform="scale(0.045)"
	xlink:href="#utclef"/>
</defs>
<use x="25.33" y="134.01" xlink:href="#tclef"/>
<g font-family="serif" font-size="16" font-weight="bold" font-style="normal"
	transform="translate(43.83,134.01) scale(1.2,1)">
	<text y="-1" text-anchor="middle">4</text>
	<text y="-13" text-anchor="middle">3</text>
</g>
<defs>
<path id="hl" stroke="currentColor" d="m-6 0h12"/>
</defs>
<use x="62.33" y="104.01" xlink:href="#hl"/>
<use x="62.33" y="98.01" xlink:href="#hl"/>
<use x="62.33" y="92.01" xlink:href="#hl"/>
<use x="62.33" y="86.01" xlink:href="#hl"/>
<defs>
<path id="Hd" fill="currentColor" d="m3 -1.6
	c-1 -1.8 -7 1.4 -6 3.2
	c1 1.8 7 -1.4 6 -3.2
	m0.5 -0.3
	c2 3.8 -5 7.6 -7 3.8
	c-2 -3.8 5 -7.6 7 -3.8"/>
</defs>
<use x="62.33" y="83.01" xlink:href="#Hd"/>
<circle fill="currentColor" cx="72.33" cy="83.01" r="1.2"/>
<path d="M58.83 83.01v39.00" stroke="currentColor" fill="none"/>
<path fill="currentColor"
	d="M139.33 122.21l32.00 0.00v-3.20l-32.00 -0.00"/>
<path fill="currentColor"
	d="M165.03 117.21l6.00 0.00v-3.20l-6.00 -0.00"/>
<use x="143.13" y="104.01" xlink:href="#hl"/>
<use x="143.13" y="98.01" xlink:href="#hl"/>
<use x="143.13" y="92.01" xlink:href="#hl"/>
<use x="143.13" y="86.01" xlink:href="#hl"/>
<use x="143.13" y="83.01" xlink:href="#hd"/>
<path d="M139.63 83.01v38.20" stroke="currentColor" fill="none"/>
<use x="174.53" y="104.01" xlink:href="#hl"/>
<use x="174.53" y="98.01" xlink:href="#hl"/>
<use x="174.53" y="92.01" xlink:href="#hl"/>
<use x="174.53" y="86.01" xlink:href="#hl"/>
<use x="174.53" y="86.01" xlink:href="#hd"/>
<path d="M171.03 86.01v35.20" stroke="currentColor" fill="none"/>
<path fill="currentColor"
	d="M195.23 122.21l22.80 0.00v-3.20l-22.80 -0.00"/>
<path fill="currentColor"
	d="M201.63 117.21l-6.00 -0.00v-3.20l6.00 0.00"/>
<use x="199.13" y="104.01" xlink:href="#hl"/>
<use x="199.13" y="98.01" xlink:href="#hl"/>
<use x="199.13" y="92.01" xlink:href="#hl"/>
<use x="199.13" y="86.01" xlink:href="#hl"/>
<use x="199.13" y="83.01" xlink:href="#hd"/>
<path d="M195.63 83.01v38.20" stroke="currentColor" fill="none"/>
<use x="221.23" y="104.01" xlink:href="#hl"/>
<use x="221.23" y="98.01" xlink:href="#hl"/>
<use x="221.23" y="92.01" xlink:href="#hl"/>
<use x="221.23" y="89.01" xlink:href="#hd"/>
<defs>
<path id="usharp" fill="currentColor" d="
	m136 -702
	v890
	h32
	v-890
	m128 840
	h32
	v-888
	h-32
	m-232 286
	v116
	l338 -96
	v-116
	m-338 442
	v116
	l338 -98
	v-114"/>
<use id="sh0" transform="translate(-4,5) scale(0.018)"
	xlink:href="#usharp"/>
</defs>
<use x="212.23" y="89.01" xlink:href="#sh0"/>
<path d="M217.73 89.01v32.20" stroke="currentColor" fill="none"/>
<path fill="currentColor"
	d="M252.23 123.91l98.50 0.00v-3.20l-98.50 -0.00"/>
<path fill="currentColor"
	d="M252.63 118.91l22.20 0.00v-3.20l-22.20 -0.00"/>
<path fill="currentColor"
	d="M328.23 118.91l22.20 0.00v-3.20l-22.20 -0.00"/>
<use x="256.13" y="104.01" xlink:href="#hl"/>
<use x="256.13" y="98.01" xlink:href="#hl"/>
<use x="256.13" y="92.01" xlink:href="#hl"/>
<use x="256.13" y="92.01" xlink:href="#hd"/>
<path d="M252.63 92.01v31.00" stroke="currentColor" fill="none"/>
<use x="278.23" y="104.01" xlink:href="#hl"/>
<use x="278.23" y="98.01" xlink:href="#hl"/>
<use x="278.23" y="92.01" xlink:href="#hl"/>
<use x="278.23" y="89.01" xlink:href="#hd"/>
<use x="269.23" y="89.01" xlink:href="#sh0"/>
<path d="M274.73 89.01v34.00" stroke="currentColor" fill="none"/>
<use x="300.43" y="104.01" xlink:href="#hl"/>
<use x="300.43" y="98.01" xlink:href="#hl"/>
<use x="300.43" y="95.01" xlink:href="#hd"/>
<path d="M296.93 95.01v28.00" stroke="currentColor" fill="none"/>
<use x="331.73" y="104.01" xlink:href="#hl"/>
<use x="331.73" y="101.01" xlink:href="#hd"/>
<path d="M328.23 101.01v22.00" stroke="currentColor" fill="none"/>
<use x="353.93" y="104.01" xlink:href="#hl"/>
<use x="353.93" y="98.01" xlink:href="#hl"/>
<use x="353.93" y="95.01" xlink:href="#hd"/>
<path d="M350.43 95.01v28.00" stroke="currentColor" fill="none"/>
<path fill="currentColor"
	d="M387.23 122.21l32.00 0.00v-3.20l-32.00 -0.00"/>
<path fill="currentColor"
	d="M412.83 117.21l6.00 0.00v-3.20l-6.00 -0.00"/>
<use x="391.03" y="104.01" xlink:href="#hl"/>
<use x="391.03" y="98.01" xlink:href="#hl"/>
<use x="391.03" y="92.01" xlink:href="#hl"/>
<use x="391.03" y="92.01" xlink:href="#hd"/>
<path d="M387.53 92.01v29.20" stroke="currentColor" fill="none"/>
<use x="422.33" y="104.01" xlink:href="#hl"/>
<use x="422.33" y="98.01" xlink:href="#hl"/>
<use x="422.33" y="92.01" xlink:href="#hl"/>
<use x="422.33" y="89.01" xlink:href="#hd"/>
<use x="413.33" y="89.01" xlink:href="#sh0"/>
<path d="M418.83 89.01v32.20" stroke="currentColor" fill="none"/>
<path fill="currentColor"
	d="M443.13 122.21l22.80 0.00v-3.20l-22.80 -0.00"/>
<path fill="currentColor"
	d="M449.53 117.21l-6.00 -0.00v-3.20l6.00 0.00"/>
<use x="447.03" y="104.01" xlink:href="#hl"/>
<use x="447.03" y="98.01" xlink:href="#hl"/>
<use x="447.03" y="92.01" xlink:href="#hl"/>
<use x="447.03" y="92.01" xlink:href="#hd"/>
<path d="M443.53 92.01v29.20" stroke="currentColor" fill="none"/>
<use x="469.13" y="104.01" xlink:href="#hl"/>
<use x="469.13" y="98.01" xlink:href="#hl"/>
<use x="469.13" y="95.01" xlink:href="#hd"/>
<path d="M465.63 95.01v26.20" stroke="currentColor" fill="none"/>
<path fill="currentColor"
	d="M500.13 123.91l98.50 0.00v-3.20l-98.50 -0.00"/>
<path fill="currentColor"
	d="M500.43 118.91l22.20 0.00v-3.20l-22.20 -0.00"/>
<path fill="currentColor"
	d="M576.13 118.91l22.20 0.00v-3.20l-22.20 -0.00"/>
<use x="503.93" y="104.01" xlink:href="#hl"/>
<use x="503.93" y="101.01" xlink:href="#hd"/>
<path d="M500.43 101.01v22.00" stroke="currentColor" fill="none"/>
<use x="526.13" y="104.01" xlink:href="#hl"/>
<use x="526.13" y="98.01" xlink:href="#hl"/>
<use x="526.13" y="95.01" xlink:href="#hd"/>
<path d="M522.63 95.01v28.00" stroke="currentColor" fill="none"/>
<use x="548.23" y="104.01" xlink:href="#hl"/>
<use x="548.23" y="98.01" xlink:href="#hl"/>
<use x="548.23" y="92.01" xlink:href="#hl"/>
<use x="548.23" y="92.01" xlink:href="#hd"/>
<path d="M544.73 92.01v31.00" stroke="currentColor" fill="none"/>
<use x="579.63" y="104.01" xlink:href="#hl"/>
<use x="579.63" y="98.01" xlink:href="#hl"/>
<use x="579.63" y="92.01" xlink:href="#hl"/>
<use x="579.63" y="89.01" xlink:href="#hd"/>
<use x="570.63" y="89.01" xlink:href="#sh0"/>
<path d="M576.13 89.01v34.00" stroke="currentColor" fill="none"/>
<use x="601.83" y="104.01" xlink:href="#hl"/>
<use x="601.83" y="98.01" xlink:href="#hl"/>
<use x="601.83" y="92.01" xlink:href="#hl"/>
<use x="601.83" y="86.01" xlink:href="#hl"/>
<use x="601.83" y="86.01" xlink:href="#hd"/>
<path d="M598.33 86.01v37.00" stroke="currentColor" fill="none"/>
<use x="638.93" y="104.01" xlink:href="#hl"/>
<use x="638.93" y="98.01" xlink:href="#hl"/>
<use x="638.93" y="92.01" xlink:href="#hl"/>
<use x="638.93" y="86.01" xlink:href="#hl"/>
<use x="638.93" y="83.01" xlink:href="#hd"/>
<circle fill="currentColor" cx="646.93" cy="83.01" r="1.2"/>
<path d="M635.43 83.01v39.00" stroke="currentColor" fill="none"/>
<path fill="currentColor"
	d="M65.83 81.01c10.50 -5.83 63.32 -5.83 73.83 -0.00
	l0.00 -0.27c-12.72 -7.56 -61.11 -7.56 -73.83 0.27"/>
</g>
</svg>
