<?xml version="1.0" standalone="no"?>
<!DOCTYPE svg PUBLIC "-//W3C//DTD SVG 1.1//EN"
	"http://www.w3.org/Graphics/SVG/1.1/DTD/svg11.dtd">
<svg xmlns="http://www.w3.org/2000/svg" version="1.1"
	xmlns:xlink="http://www.w3.org/1999/xlink"
	xml:space='preserve' color="black"
	width="7.38in" height="1.39in" viewBox="0 0 531 100">
<title>9800.abc (9800) tune 1</title>
<!-- Creator: abcm2ps-7.8.14 -->
<!-- CreationDate: Mar 13, 2016 18:54 -->
<!-- CommandLine: -qxg 9800.abc -O ../svgs/9800.svg -->
<g transform="scale(0.750)" stroke-width="0.70" font-family="Times" font-size="20.00">
<text x="354.13" y="21.67" text-anchor="middle">9800.  Juba Dance, Pft., from in the Bottoms, 2nd. Theme, A and B</text>
</g>
<g transform="scale(0.750)" stroke-width="0.70" font-family="Times" font-size="14.00" font-style="italic">
<text x="694.93" y="45.34" text-anchor="end">Robert Nathaniel Dett</text>
</g>
<g transform="scale(0.525)" stroke-width="0.70" font-family="Times" font-size="14.00" font-style="italic">
<defs>
<ellipse id="hd" rx="4.1" ry="2.9"
	transform="rotate(-20)" fill="currentColor"/>
</defs>
<use x="114.90" y="94.16" xlink:href="#hd"/>
<path d="M118.40 94.16v-20.00" stroke="currentColor" fill="none"/>
</g>
<g transform="scale(0.750)" stroke-width="0.70" font-family="Times" font-size="15.00" font-weight="bold">
<text x="88.13" y="68.01">= 120</text>
<path stroke="currentColor" fill="none"
	d="M147.43 110.01v-24.00"/>
<path stroke="currentColor" fill="none"
	d="M279.33 110.01v-24.00"/>
<path stroke="currentColor" fill="none"
	d="M376.23 110.01v-24.00"/>
<path stroke="currentColor" fill="none"
	d="M515.33 110.01v-24.00"/>
<path stroke="currentColor" fill="none"
	d="M650.53 110.01v-24.00"/>
<path stroke="currentColor" fill="none"
	d="M13.33 110.01h681.60m-681.60 -6h681.60m-681.60 -6h681.60m-681.60 -6h681.60m-681.60 -6h681.60"/>
<defs>
<path id="ubclef" fill="currentColor" d="m-200 -87
	c124 -35 222 -78 254 -236
	c43 -228 -167 -246 -192 -103
	c59 -80 157 22 92 78
	c-62 47 -115 -22 -106 -88
	c21 -141 270 -136 274 52
	c-1 175 -106 264 -322 297
	m357 -250
	c0 -36 51 -34 51 0
	c0 37 -51 36 -51 0
	m-2 -129
	c0 -36 51 -34 51 0
	c0 38 -51 37 -51 0"/>
<use id="bclef" transform="scale(0.045)"
	xlink:href="#ubclef"/>
</defs>
<use x="25.33" y="110.01" xlink:href="#bclef"/>
<defs>
<path id="uflat" fill="currentColor" d="
	m100 -746
	h32
	v734
	l-32 4
	m32 -332
	c46 -72 152 -90 208 -20
	c100 110 -120 326 -208 348
	m0 -28
	c54 0 200 -206 130 -290
	c-50 -60 -130 -4 -130 34"/>
<use id="ft0" transform="translate(-3.5,3.5) scale(0.018)"
	xlink:href="#uflat"/>
</defs>
<use x="40.33" y="104.01" xlink:href="#ft0"/>
<use x="45.83" y="95.01" xlink:href="#ft0"/>
<g font-family="serif" font-size="16" font-weight="bold" font-style="normal"
	transform="translate(61.83,110.01) scale(1.2,1)">
	<text y="-1" text-anchor="middle">4</text>
	<text y="-13" text-anchor="middle">2</text>
</g>
<use x="79.83" y="92.01" xlink:href="#hd"/>
<path d="M76.33 92.01v20.00" stroke="currentColor" fill="none"/>
<path fill="currentColor"
	d="M76.33 112.01c0.6 -5.6 9.6 -9 5.6 -18.4
	c1.6 6 -1.3 11.6 -5.6 12.8
"/>
<use x="109.43" y="83.01" xlink:href="#hd"/>
<circle fill="currentColor" cx="117.43" cy="83.01" r="1.2"/>
<path d="M105.93 83.01v20.00" stroke="currentColor" fill="none"/>
<use x="162.23" y="83.01" xlink:href="#hd"/>
<path d="M158.73 83.01v20.00" stroke="currentColor" fill="none"/>
<path fill="currentColor"
	d="M200.23 105.31l19.50 -3.80v-3.20l-19.50 3.80"/>
<path fill="currentColor"
	d="M200.53 100.21l18.80 -3.70v-3.20l-18.80 3.70"/>
<use x="204.03" y="83.01" xlink:href="#hd"/>
<path d="M200.53 83.01v21.20" stroke="currentColor" fill="none"/>
<defs>
<path id="hl" stroke="currentColor" d="m-6 0h12"/>
</defs>
<use x="222.93" y="80.01" xlink:href="#hl"/>
<use x="222.93" y="77.01" xlink:href="#hd"/>
<path d="M219.43 77.01v23.50" stroke="currentColor" fill="none"/>
<path fill="currentColor"
	d="M239.93 104.51l19.50 3.80v-3.20l-19.50 -3.80"/>
<path fill="currentColor"
	d="M240.33 99.51l18.80 3.70v-3.20l-18.80 -3.70"/>
<use x="243.83" y="80.01" xlink:href="#hl"/>
<use x="243.83" y="80.01" xlink:href="#hd"/>
<path d="M240.33 80.01v23.50" stroke="currentColor" fill="none"/>
<use x="262.63" y="86.01" xlink:href="#hd"/>
<path d="M259.13 86.01v21.20" stroke="currentColor" fill="none"/>
<use x="294.13" y="92.01" xlink:href="#hd"/>
<path d="M290.63 92.01v20.00" stroke="currentColor" fill="none"/>
<path fill="currentColor"
	d="M290.63 112.01c0.6 -5.6 9.6 -9 5.6 -18.4
	c1.6 6 -1.3 11.6 -5.6 12.8
"/>
<defs>
<path id="r4" fill="currentColor" d="m-1 -8.5
	l3.6 5.1 -2.1 5.2 2.2 4.3
	c-2.6 -2.3 -5.1 0 -2.4 2.6
	c-4.8 -3 -1.5 -6.9 1.4 -4.1
	l-3.1 -4.5 1.9 -5.1 -1.5 -3.5"/>
</defs>
<use x="323.73" y="98.01" xlink:href="#r4"/>
<circle fill="currentColor" cx="331.73" cy="95.01" r="1.2"/>
<defs>
<path id="utclef" fill="currentColor" d="m-50 -90
	c-72 -41 -72 -158 52 -188
	c150 -10 220 188 90 256
	c-114 52 -275 0 -293 -136
	c-15 -181 93 -229 220 -334
	c88 -87 79 -133 62 -210
	c-51 33 -94 105 -89 186
	c17 267 36 374 49 574
	c6 96 -19 134 -77 135
	c-80 1 -126 -93 -61 -133
	c85 -41 133 101 31 105
	c23 17 92 37 90 -92
	c-10 -223 -39 -342 -50 -617
	c0 -90 0 -162 96 -232
	c56 72 63 230 22 289
	c-74 106 -257 168 -255 316
	c9 153 148 185 252 133
	c86 -65 29 -192 -80 -176
	c-71 12 -105 67 -59 124"/>
<use id="stclef" transform="translate(0,-0.6) scale(0.037)"
	xlink:href="#utclef"/>
</defs>
<use x="361.23" y="110.01" xlink:href="#stclef"/>
<use x="391.03" y="107.01" xlink:href="#hd"/>
<path d="M394.53 107.01v-20.00" stroke="currentColor" fill="none"/>
<path fill="currentColor"
	d="	M394.53 87.01c0.6 5.6 9.6 9 5.6 18.4
	c1.6 -6 -1.3 -11.6 -5.6 -12.8
"/>
<use x="420.63" y="98.01" xlink:href="#hd"/>
<path d="M417.13 98.01v20.00" stroke="currentColor" fill="none"/>
<path fill="currentColor"
	d="M417.13 118.01c0.6 -5.6 9.6 -9 5.6 -18.4
	c1.6 6 -1.3 11.6 -5.6 12.8
"/>
<use x="450.23" y="95.01" xlink:href="#hd"/>
<path d="M446.73 95.01v20.00" stroke="currentColor" fill="none"/>
<path fill="currentColor"
	d="M446.73 115.01c0.6 -5.6 9.6 -9 5.6 -18.4
	c1.6 6 -1.3 11.6 -5.6 12.8
"/>
<path fill="currentColor"
	d="M475.93 114.91l19.50 2.40v-3.20l-19.50 -2.40"/>
<path fill="currentColor"
	d="M476.33 109.91l18.80 2.30v-3.20l-18.80 -2.30"/>
<use x="479.83" y="92.01" xlink:href="#hd"/>
<path d="M476.33 92.01v21.90" stroke="currentColor" fill="none"/>
<use x="498.63" y="95.01" xlink:href="#hd"/>
<path d="M495.13 95.01v21.20" stroke="currentColor" fill="none"/>
<path fill="currentColor"
	d="M526.33 116.51l19.50 3.80v-3.20l-19.50 -3.80"/>
<path fill="currentColor"
	d="M526.63 111.51l18.80 3.70v-3.20l-18.80 -3.70"/>
<use x="530.13" y="92.01" xlink:href="#hd"/>
<path d="M526.63 92.01v23.50" stroke="currentColor" fill="none"/>
<use x="548.93" y="98.01" xlink:href="#hd"/>
<path d="M545.43 98.01v21.20" stroke="currentColor" fill="none"/>
<use x="567.73" y="104.01" xlink:href="#hd"/>
<path d="M571.23 104.01v-20.00" stroke="currentColor" fill="none"/>
<path fill="currentColor"
	d="	M571.23 84.01c0.6 5.6 9.6 9 5.6 18.4
	c1.6 -6 -1.3 -11.6 -5.6 -12.8
"/>
<use x="597.33" y="98.01" xlink:href="#hd"/>
<path d="M600.83 98.01v-20.00" stroke="currentColor" fill="none"/>
<path fill="currentColor"
	d="	M600.83 78.01c0.6 5.6 9.6 9 5.6 18.4
	c1.6 -6 -1.3 -11.6 -5.6 -12.8
"/>
<use x="626.93" y="101.01" xlink:href="#hd"/>
<path d="M630.43 101.01v-20.00" stroke="currentColor" fill="none"/>
<path fill="currentColor"
	d="	M630.43 81.01c0.6 5.6 9.6 9 5.6 18.4
	c1.6 -6 -1.3 -11.6 -5.6 -12.8
"/>
<use x="665.33" y="95.01" xlink:href="#hd"/>
<path d="M661.83 95.01v20.00" stroke="currentColor" fill="none"/>
<path fill="currentColor"
	d="M661.83 115.01c0.6 -5.6 9.6 -9 5.6 -18.4
	c1.6 6 -1.3 11.6 -5.6 12.8
"/>
<path fill="currentColor"
	d="M112.93 81.01c7.10 -5.33 38.76 -5.33 45.86 -0.00
	l0.00 -0.25c-8.48 -7.08 -37.38 -7.08 -45.86 0.25"/>
</g>
</svg>
