<?xml version="1.0" standalone="no"?>
<!DOCTYPE svg PUBLIC "-//W3C//DTD SVG 1.1//EN"
	"http://www.w3.org/Graphics/SVG/1.1/DTD/svg11.dtd">
<svg xmlns="http://www.w3.org/2000/svg" version="1.1"
	xmlns:xlink="http://www.w3.org/1999/xlink"
	xml:space='preserve' color="black"
	width="7.38in" height="1.61in" viewBox="0 0 531 116">
<title>9801.abc (9801) tune 1</title>
<!-- Creator: abcm2ps-7.8.14 -->
<!-- CreationDate: Mar 13, 2016 18:54 -->
<!-- CommandLine: -qxg 9801.abc -O ../svgs/9801.svg -->
<g transform="scale(0.750)" stroke-width="0.70" font-family="Times" font-size="20.00">
<text x="354.13" y="21.67" text-anchor="middle">9801.  Rounds, Str. Orch., 1st. Mvt., 1st. Theme</text>
</g>
<g transform="scale(0.750)" stroke-width="0.70" font-family="Times" font-size="14.00" font-style="italic">
<text x="694.93" y="45.34" text-anchor="end">David Diamond</text>
</g>
<g transform="scale(0.525)" stroke-width="0.70" font-family="Times" font-size="14.00" font-style="italic">
<defs>
<ellipse id="hd" rx="4.1" ry="2.9"
	transform="rotate(-20)" fill="currentColor"/>
</defs>
<use x="130.61" y="94.16" xlink:href="#hd"/>
<path d="M134.11 94.16v-20.00" stroke="currentColor" fill="none"/>
</g>
<g transform="scale(0.750)" stroke-width="0.70" font-family="Times" font-size="15.00" font-weight="bold">
<text x="99.13" y="68.01">= 120</text>
<path stroke="currentColor" fill="none"
	d="M252.33 132.01v-24.00"/>
<path stroke="currentColor" fill="none"
	d="M426.33 132.01v-24.00"/>
<path stroke="currentColor" fill="none"
	d="M600.43 132.01v-24.00"/>
<path stroke="currentColor" fill="none"
	d="M13.33 132.01h681.60m-681.60 -6h681.60m-681.60 -6h681.60m-681.60 -6h681.60m-681.60 -6h681.60"/>
<defs>
<path id="utclef" fill="currentColor" d="m-50 -90
	c-72 -41 -72 -158 52 -188
	c150 -10 220 188 90 256
	c-114 52 -275 0 -293 -136
	c-15 -181 93 -229 220 -334
	c88 -87 79 -133 62 -210
	c-51 33 -94 105 -89 186
	c17 267 36 374 49 574
	c6 96 -19 134 -77 135
	c-80 1 -126 -93 -61 -133
	c85 -41 133 101 31 105
	c23 17 92 37 90 -92
	c-10 -223 -39 -342 -50 -617
	c0 -90 0 -162 96 -232
	c56 72 63 230 22 289
	c-74 106 -257 168 -255 316
	c9 153 148 185 252 133
	c86 -65 29 -192 -80 -176
	c-71 12 -105 67 -59 124"/>
<use id="tclef" transform="scale(0.045)"
	xlink:href="#utclef"/>
</defs>
<use x="25.33" y="132.01" xlink:href="#tclef"/>
<defs>
<path id="usharp" fill="currentColor" d="
	m136 -702
	v890
	h32
	v-890
	m128 840
	h32
	v-888
	h-32
	m-232 286
	v116
	l338 -96
	v-116
	m-338 442
	v116
	l338 -98
	v-114"/>
<use id="sh0" transform="translate(-4,5) scale(0.018)"
	xlink:href="#usharp"/>
</defs>
<use x="40.33" y="108.01" xlink:href="#sh0"/>
<use x="45.83" y="117.01" xlink:href="#sh0"/>
<use x="51.33" y="105.01" xlink:href="#sh0"/>
<use x="56.83" y="114.01" xlink:href="#sh0"/>
<g font-family="serif" font-size="16" font-weight="bold" font-style="normal"
	transform="translate(72.83,132.01) scale(1.2,1)">
	<text y="-1" text-anchor="middle">2</text>
	<text y="-13" text-anchor="middle">2</text>
</g>
<defs>
<path id="r8e" fill="currentColor" d="m 0 0
	c-1.5 1.5 -2.4 2 -3.6 2
	c2.4 -2.8 -2.8 -4 -2.8 -1.2
	c0 2.7 4.3 2.4 5.9 0.6"/>
<g id="r8">
	<path d="m3.3 -4l-3.4 9.6" stroke="currentColor" fill="none"/>
	<use x="3.4" y="-4" xlink:href="#r8e"/>
</g>
</defs>
<use x="90.83" y="120.01" xlink:href="#r8"/>
<defs>
<path id="hl" stroke="currentColor" d="m-6 0h12"/>
</defs>
<use x="111.43" y="102.01" xlink:href="#hl"/>
<use x="111.43" y="96.01" xlink:href="#hl"/>
<use x="111.43" y="90.01" xlink:href="#hl"/>
<use x="111.43" y="84.01" xlink:href="#hl"/>
<use x="111.43" y="78.01" xlink:href="#hl"/>
<use x="111.43" y="78.01" xlink:href="#hd"/>
<path d="M107.93 78.01v42.00" stroke="currentColor" fill="none"/>
<path fill="currentColor"
	d="M107.93 120.01c0.6 -5.6 9.6 -9 5.6 -18.4
	c1.6 6 -1.3 11.6 -5.6 12.8
"/>
<use x="132.13" y="102.01" xlink:href="#hl"/>
<use x="132.13" y="96.01" xlink:href="#hl"/>
<use x="132.13" y="90.01" xlink:href="#hl"/>
<use x="132.13" y="84.01" xlink:href="#hl"/>
<use x="132.13" y="78.01" xlink:href="#hl"/>
<use x="132.13" y="78.01" xlink:href="#hd"/>
<path d="M128.63 78.01v42.00" stroke="currentColor" fill="none"/>
<path fill="currentColor"
	d="M128.63 120.01c0.6 -5.6 9.6 -9 5.6 -18.4
	c1.6 6 -1.3 11.6 -5.6 12.8
"/>
<use x="152.83" y="102.01" xlink:href="#hl"/>
<use x="152.83" y="96.01" xlink:href="#hl"/>
<use x="152.83" y="90.01" xlink:href="#hl"/>
<use x="152.83" y="84.01" xlink:href="#hl"/>
<use x="152.83" y="78.01" xlink:href="#hl"/>
<use x="152.83" y="78.01" xlink:href="#hd"/>
<path d="M149.33 78.01v42.00" stroke="currentColor" fill="none"/>
<path fill="currentColor"
	d="M149.33 120.01c0.6 -5.6 9.6 -9 5.6 -18.4
	c1.6 6 -1.3 11.6 -5.6 12.8
"/>
<use x="173.53" y="102.01" xlink:href="#hl"/>
<use x="173.53" y="96.01" xlink:href="#hl"/>
<use x="173.53" y="90.01" xlink:href="#hl"/>
<use x="173.53" y="84.01" xlink:href="#hl"/>
<use x="173.53" y="78.01" xlink:href="#hl"/>
<use x="173.53" y="78.01" xlink:href="#hd"/>
<path d="M170.03 78.01v42.00" stroke="currentColor" fill="none"/>
<path fill="currentColor"
	d="M170.03 120.01c0.6 -5.6 9.6 -9 5.6 -18.4
	c1.6 6 -1.3 11.6 -5.6 12.8
"/>
<use x="194.23" y="102.01" xlink:href="#hl"/>
<use x="194.23" y="96.01" xlink:href="#hl"/>
<use x="194.23" y="90.01" xlink:href="#hl"/>
<use x="194.23" y="84.01" xlink:href="#hl"/>
<use x="194.23" y="84.01" xlink:href="#hd"/>
<path d="M190.73 84.01v36.00" stroke="currentColor" fill="none"/>
<path fill="currentColor"
	d="M190.73 120.01c0.6 -5.6 9.6 -9 5.6 -18.4
	c1.6 6 -1.3 11.6 -5.6 12.8
"/>
<use x="214.93" y="102.01" xlink:href="#hl"/>
<use x="214.93" y="96.01" xlink:href="#hl"/>
<use x="214.93" y="90.01" xlink:href="#hl"/>
<use x="214.93" y="84.01" xlink:href="#hl"/>
<use x="214.93" y="84.01" xlink:href="#hd"/>
<path d="M211.43 84.01v36.00" stroke="currentColor" fill="none"/>
<path fill="currentColor"
	d="M211.43 120.01c0.6 -5.6 9.6 -9 5.6 -18.4
	c1.6 6 -1.3 11.6 -5.6 12.8
"/>
<use x="235.63" y="102.01" xlink:href="#hl"/>
<use x="235.63" y="96.01" xlink:href="#hl"/>
<use x="235.63" y="90.01" xlink:href="#hl"/>
<use x="235.63" y="84.01" xlink:href="#hl"/>
<use x="235.63" y="84.01" xlink:href="#hd"/>
<path d="M232.13 84.01v36.00" stroke="currentColor" fill="none"/>
<path fill="currentColor"
	d="M232.13 120.01c0.6 -5.6 9.6 -9 5.6 -18.4
	c1.6 6 -1.3 11.6 -5.6 12.8
"/>
<use x="264.83" y="102.01" xlink:href="#hl"/>
<use x="264.83" y="96.01" xlink:href="#hl"/>
<use x="264.83" y="90.01" xlink:href="#hl"/>
<use x="264.83" y="84.01" xlink:href="#hl"/>
<use x="264.83" y="84.01" xlink:href="#hd"/>
<path d="M261.33 84.01v36.00" stroke="currentColor" fill="none"/>
<path fill="currentColor"
	d="M261.33 120.01c0.6 -5.6 9.6 -9 5.6 -18.4
	c1.6 6 -1.3 11.6 -5.6 12.8
"/>
<use x="285.53" y="102.01" xlink:href="#hl"/>
<use x="285.53" y="96.01" xlink:href="#hl"/>
<use x="285.53" y="90.01" xlink:href="#hl"/>
<use x="285.53" y="84.01" xlink:href="#hl"/>
<use x="285.53" y="78.01" xlink:href="#hl"/>
<use x="285.53" y="78.01" xlink:href="#hd"/>
<path d="M282.03 78.01v42.00" stroke="currentColor" fill="none"/>
<path fill="currentColor"
	d="M282.03 120.01c0.6 -5.6 9.6 -9 5.6 -18.4
	c1.6 6 -1.3 11.6 -5.6 12.8
"/>
<use x="306.23" y="102.01" xlink:href="#hl"/>
<use x="306.23" y="96.01" xlink:href="#hl"/>
<use x="306.23" y="90.01" xlink:href="#hl"/>
<use x="306.23" y="84.01" xlink:href="#hl"/>
<use x="306.23" y="78.01" xlink:href="#hl"/>
<use x="306.23" y="78.01" xlink:href="#hd"/>
<path d="M302.73 78.01v42.00" stroke="currentColor" fill="none"/>
<path fill="currentColor"
	d="M302.73 120.01c0.6 -5.6 9.6 -9 5.6 -18.4
	c1.6 6 -1.3 11.6 -5.6 12.8
"/>
<use x="326.93" y="102.01" xlink:href="#hl"/>
<use x="326.93" y="96.01" xlink:href="#hl"/>
<use x="326.93" y="90.01" xlink:href="#hl"/>
<use x="326.93" y="84.01" xlink:href="#hl"/>
<use x="326.93" y="78.01" xlink:href="#hl"/>
<use x="326.93" y="78.01" xlink:href="#hd"/>
<path d="M323.43 78.01v42.00" stroke="currentColor" fill="none"/>
<path fill="currentColor"
	d="M323.43 120.01c0.6 -5.6 9.6 -9 5.6 -18.4
	c1.6 6 -1.3 11.6 -5.6 12.8
"/>
<use x="347.63" y="102.01" xlink:href="#hl"/>
<use x="347.63" y="96.01" xlink:href="#hl"/>
<use x="347.63" y="90.01" xlink:href="#hl"/>
<use x="347.63" y="84.01" xlink:href="#hl"/>
<use x="347.63" y="78.01" xlink:href="#hl"/>
<use x="347.63" y="78.01" xlink:href="#hd"/>
<path d="M344.13 78.01v42.00" stroke="currentColor" fill="none"/>
<path fill="currentColor"
	d="M344.13 120.01c0.6 -5.6 9.6 -9 5.6 -18.4
	c1.6 6 -1.3 11.6 -5.6 12.8
"/>
<use x="368.33" y="102.01" xlink:href="#hl"/>
<use x="368.33" y="96.01" xlink:href="#hl"/>
<use x="368.33" y="90.01" xlink:href="#hl"/>
<use x="368.33" y="84.01" xlink:href="#hl"/>
<use x="368.33" y="84.01" xlink:href="#hd"/>
<path d="M364.83 84.01v36.00" stroke="currentColor" fill="none"/>
<path fill="currentColor"
	d="M364.83 120.01c0.6 -5.6 9.6 -9 5.6 -18.4
	c1.6 6 -1.3 11.6 -5.6 12.8
"/>
<use x="389.03" y="102.01" xlink:href="#hl"/>
<use x="389.03" y="96.01" xlink:href="#hl"/>
<use x="389.03" y="90.01" xlink:href="#hl"/>
<use x="389.03" y="84.01" xlink:href="#hl"/>
<use x="389.03" y="84.01" xlink:href="#hd"/>
<path d="M385.53 84.01v36.00" stroke="currentColor" fill="none"/>
<path fill="currentColor"
	d="M385.53 120.01c0.6 -5.6 9.6 -9 5.6 -18.4
	c1.6 6 -1.3 11.6 -5.6 12.8
"/>
<use x="409.73" y="102.01" xlink:href="#hl"/>
<use x="409.73" y="96.01" xlink:href="#hl"/>
<use x="409.73" y="90.01" xlink:href="#hl"/>
<use x="409.73" y="84.01" xlink:href="#hl"/>
<use x="409.73" y="84.01" xlink:href="#hd"/>
<path d="M406.23 84.01v36.00" stroke="currentColor" fill="none"/>
<path fill="currentColor"
	d="M406.23 120.01c0.6 -5.6 9.6 -9 5.6 -18.4
	c1.6 6 -1.3 11.6 -5.6 12.8
"/>
<use x="438.83" y="102.01" xlink:href="#hl"/>
<use x="438.83" y="96.01" xlink:href="#hl"/>
<use x="438.83" y="90.01" xlink:href="#hl"/>
<use x="438.83" y="84.01" xlink:href="#hl"/>
<use x="438.83" y="84.01" xlink:href="#hd"/>
<path d="M435.33 84.01v36.00" stroke="currentColor" fill="none"/>
<path fill="currentColor"
	d="M435.33 120.01c0.6 -5.6 9.6 -9 5.6 -18.4
	c1.6 6 -1.3 11.6 -5.6 12.8
"/>
<use x="459.53" y="102.01" xlink:href="#hl"/>
<use x="459.53" y="96.01" xlink:href="#hl"/>
<use x="459.53" y="90.01" xlink:href="#hl"/>
<use x="459.53" y="84.01" xlink:href="#hl"/>
<use x="459.53" y="78.01" xlink:href="#hl"/>
<use x="459.53" y="78.01" xlink:href="#hd"/>
<path d="M456.03 78.01v42.00" stroke="currentColor" fill="none"/>
<path fill="currentColor"
	d="M456.03 120.01c0.6 -5.6 9.6 -9 5.6 -18.4
	c1.6 6 -1.3 11.6 -5.6 12.8
"/>
<use x="480.23" y="102.01" xlink:href="#hl"/>
<use x="480.23" y="96.01" xlink:href="#hl"/>
<use x="480.23" y="90.01" xlink:href="#hl"/>
<use x="480.23" y="84.01" xlink:href="#hl"/>
<use x="480.23" y="78.01" xlink:href="#hl"/>
<use x="480.23" y="78.01" xlink:href="#hd"/>
<path d="M476.73 78.01v42.00" stroke="currentColor" fill="none"/>
<path fill="currentColor"
	d="M476.73 120.01c0.6 -5.6 9.6 -9 5.6 -18.4
	c1.6 6 -1.3 11.6 -5.6 12.8
"/>
<use x="500.93" y="102.01" xlink:href="#hl"/>
<use x="500.93" y="96.01" xlink:href="#hl"/>
<use x="500.93" y="90.01" xlink:href="#hl"/>
<use x="500.93" y="84.01" xlink:href="#hl"/>
<use x="500.93" y="78.01" xlink:href="#hl"/>
<use x="500.93" y="78.01" xlink:href="#hd"/>
<path d="M497.43 78.01v42.00" stroke="currentColor" fill="none"/>
<path fill="currentColor"
	d="M497.43 120.01c0.6 -5.6 9.6 -9 5.6 -18.4
	c1.6 6 -1.3 11.6 -5.6 12.8
"/>
<use x="521.63" y="102.01" xlink:href="#hl"/>
<use x="521.63" y="96.01" xlink:href="#hl"/>
<use x="521.63" y="90.01" xlink:href="#hl"/>
<use x="521.63" y="84.01" xlink:href="#hl"/>
<use x="521.63" y="78.01" xlink:href="#hl"/>
<use x="521.63" y="78.01" xlink:href="#hd"/>
<path d="M518.13 78.01v42.00" stroke="currentColor" fill="none"/>
<path fill="currentColor"
	d="M518.13 120.01c0.6 -5.6 9.6 -9 5.6 -18.4
	c1.6 6 -1.3 11.6 -5.6 12.8
"/>
<use x="542.33" y="102.01" xlink:href="#hl"/>
<use x="542.33" y="96.01" xlink:href="#hl"/>
<use x="542.33" y="90.01" xlink:href="#hl"/>
<use x="542.33" y="84.01" xlink:href="#hl"/>
<use x="542.33" y="84.01" xlink:href="#hd"/>
<path d="M538.83 84.01v36.00" stroke="currentColor" fill="none"/>
<path fill="currentColor"
	d="M538.83 120.01c0.6 -5.6 9.6 -9 5.6 -18.4
	c1.6 6 -1.3 11.6 -5.6 12.8
"/>
<use x="563.03" y="102.01" xlink:href="#hl"/>
<use x="563.03" y="96.01" xlink:href="#hl"/>
<use x="563.03" y="90.01" xlink:href="#hl"/>
<use x="563.03" y="84.01" xlink:href="#hl"/>
<use x="563.03" y="84.01" xlink:href="#hd"/>
<path d="M559.53 84.01v36.00" stroke="currentColor" fill="none"/>
<path fill="currentColor"
	d="M559.53 120.01c0.6 -5.6 9.6 -9 5.6 -18.4
	c1.6 6 -1.3 11.6 -5.6 12.8
"/>
<use x="583.73" y="102.01" xlink:href="#hl"/>
<use x="583.73" y="96.01" xlink:href="#hl"/>
<use x="583.73" y="90.01" xlink:href="#hl"/>
<use x="583.73" y="84.01" xlink:href="#hl"/>
<use x="583.73" y="84.01" xlink:href="#hd"/>
<path d="M580.23 84.01v36.00" stroke="currentColor" fill="none"/>
<path fill="currentColor"
	d="M580.23 120.01c0.6 -5.6 9.6 -9 5.6 -18.4
	c1.6 6 -1.3 11.6 -5.6 12.8
"/>
<use x="612.93" y="102.01" xlink:href="#hl"/>
<use x="612.93" y="96.01" xlink:href="#hl"/>
<use x="612.93" y="90.01" xlink:href="#hl"/>
<use x="612.93" y="84.01" xlink:href="#hl"/>
<use x="612.93" y="84.01" xlink:href="#hd"/>
<path d="M609.43 84.01v36.00" stroke="currentColor" fill="none"/>
<path fill="currentColor"
	d="M609.43 120.01c0.6 -5.6 9.6 -9 5.6 -18.4
	c1.6 6 -1.3 11.6 -5.6 12.8
"/>
<use x="633.63" y="102.01" xlink:href="#hl"/>
<use x="633.63" y="96.01" xlink:href="#hl"/>
<use x="633.63" y="90.01" xlink:href="#hl"/>
<use x="633.63" y="84.01" xlink:href="#hl"/>
<use x="633.63" y="78.01" xlink:href="#hl"/>
<use x="633.63" y="78.01" xlink:href="#hd"/>
<path d="M630.13 78.01v42.00" stroke="currentColor" fill="none"/>
<path fill="currentColor"
	d="M630.13 120.01c0.6 -5.6 9.6 -9 5.6 -18.4
	c1.6 6 -1.3 11.6 -5.6 12.8
"/>
<use x="654.33" y="102.01" xlink:href="#hl"/>
<use x="654.33" y="96.01" xlink:href="#hl"/>
<use x="654.33" y="90.01" xlink:href="#hl"/>
<use x="654.33" y="84.01" xlink:href="#hl"/>
<use x="654.33" y="78.01" xlink:href="#hl"/>
<use x="654.33" y="78.01" xlink:href="#hd"/>
<path d="M650.83 78.01v42.00" stroke="currentColor" fill="none"/>
<path fill="currentColor"
	d="M650.83 120.01c0.6 -5.6 9.6 -9 5.6 -18.4
	c1.6 6 -1.3 11.6 -5.6 12.8
"/>
<use x="675.03" y="102.01" xlink:href="#hl"/>
<use x="675.03" y="96.01" xlink:href="#hl"/>
<use x="675.03" y="90.01" xlink:href="#hl"/>
<use x="675.03" y="84.01" xlink:href="#hl"/>
<use x="675.03" y="78.01" xlink:href="#hl"/>
<use x="675.03" y="78.01" xlink:href="#hd"/>
<path d="M671.53 78.01v42.00" stroke="currentColor" fill="none"/>
<path fill="currentColor"
	d="M671.53 120.01c0.6 -5.6 9.6 -9 5.6 -18.4
	c1.6 6 -1.3 11.6 -5.6 12.8
"/>
</g>
</svg>
