<?xml version="1.0" standalone="no"?>
<!DOCTYPE svg PUBLIC "-//W3C//DTD SVG 1.1//EN"
	"http://www.w3.org/Graphics/SVG/1.1/DTD/svg11.dtd">
<svg xmlns="http://www.w3.org/2000/svg" version="1.1"
	xmlns:xlink="http://www.w3.org/1999/xlink"
	xml:space='preserve' color="black"
	width="7.38in" height="1.52in" viewBox="0 0 531 110">
<title>9806.abc (9806) tune 1</title>
<!-- Creator: abcm2ps-7.8.14 -->
<!-- CreationDate: Mar 13, 2016 18:54 -->
<!-- CommandLine: -qxg 9806.abc -O ../svgs/9806.svg -->
<g transform="scale(0.750)" stroke-width="0.70" font-family="Times" font-size="20.00">
<text x="354.13" y="21.67" text-anchor="middle">9806.  Rounds, Str. Orch., 3rd. Mvt., 2nd. Theme</text>
</g>
<g transform="scale(0.750)" stroke-width="0.70" font-family="Times" font-size="14.00" font-style="italic">
<text x="694.93" y="45.34" text-anchor="end">David Diamond</text>
</g>
<g transform="scale(0.525)" stroke-width="0.70" font-family="Times" font-size="14.00" font-style="italic">
<defs>
<ellipse id="hd" rx="4.1" ry="2.9"
	transform="rotate(-20)" fill="currentColor"/>
</defs>
<use x="89.90" y="94.16" xlink:href="#hd"/>
<path d="M93.40 94.16v-20.00" stroke="currentColor" fill="none"/>
</g>
<g transform="scale(0.750)" stroke-width="0.70" font-family="Times" font-size="15.00" font-weight="bold">
<text x="70.63" y="68.01">= 120</text>
<path stroke="currentColor" fill="none"
	d="M153.53 123.01v-24.00"/>
<path stroke="currentColor" fill="none"
	d="M257.03 123.01v-24.00"/>
<path stroke="currentColor" fill="none"
	d="M390.93 123.01v-24.00"/>
<path stroke="currentColor" fill="none"
	d="M507.13 123.01v-24.00"/>
<path stroke="currentColor" fill="none"
	d="M641.53 123.01v-24.00"/>
<path stroke="currentColor" fill="none"
	d="M13.33 123.01h681.60m-681.60 -6h681.60m-681.60 -6h681.60m-681.60 -6h681.60m-681.60 -6h681.60"/>
<defs>
<path id="utclef" fill="currentColor" d="m-50 -90
	c-72 -41 -72 -158 52 -188
	c150 -10 220 188 90 256
	c-114 52 -275 0 -293 -136
	c-15 -181 93 -229 220 -334
	c88 -87 79 -133 62 -210
	c-51 33 -94 105 -89 186
	c17 267 36 374 49 574
	c6 96 -19 134 -77 135
	c-80 1 -126 -93 -61 -133
	c85 -41 133 101 31 105
	c23 17 92 37 90 -92
	c-10 -223 -39 -342 -50 -617
	c0 -90 0 -162 96 -232
	c56 72 63 230 22 289
	c-74 106 -257 168 -255 316
	c9 153 148 185 252 133
	c86 -65 29 -192 -80 -176
	c-71 12 -105 67 -59 124"/>
<use id="tclef" transform="scale(0.045)"
	xlink:href="#utclef"/>
</defs>
<use x="25.33" y="123.01" xlink:href="#tclef"/>
<g font-family="serif" font-size="16" font-weight="bold" font-style="normal"
	transform="translate(43.83,123.01) scale(1.2,1)">
	<text y="-1" text-anchor="middle">4</text>
	<text y="-13" text-anchor="middle">4</text>
</g>
<defs>
<path id="hl" stroke="currentColor" d="m-6 0h12"/>
</defs>
<use x="62.33" y="93.01" xlink:href="#hl"/>
<use x="62.33" y="87.01" xlink:href="#hl"/>
<defs>
<path id="Hd" fill="currentColor" d="m3 -1.6
	c-1 -1.8 -7 1.4 -6 3.2
	c1 1.8 7 -1.4 6 -3.2
	m0.5 -0.3
	c2 3.8 -5 7.6 -7 3.8
	c-2 -3.8 5 -7.6 7 -3.8"/>
</defs>
<use x="62.33" y="87.01" xlink:href="#Hd"/>
<path d="M58.83 87.01v24.00" stroke="currentColor" fill="none"/>
<use x="103.23" y="93.01" xlink:href="#hl"/>
<use x="103.23" y="87.01" xlink:href="#hl"/>
<use x="103.23" y="81.01" xlink:href="#hl"/>
<use x="103.23" y="78.01" xlink:href="#hd"/>
<circle fill="currentColor" cx="111.23" cy="78.01" r="1.2"/>
<path d="M99.73 78.01v33.00" stroke="currentColor" fill="none"/>
<use x="136.83" y="93.01" xlink:href="#hl"/>
<use x="136.83" y="87.01" xlink:href="#hl"/>
<use x="136.83" y="81.01" xlink:href="#hl"/>
<use x="136.83" y="75.01" xlink:href="#hl"/>
<use x="136.83" y="72.01" xlink:href="#hd"/>
<path d="M133.33 72.01v39.00" stroke="currentColor" fill="none"/>
<path fill="currentColor"
	d="M133.33 111.01c0.6 -5.6 9.6 -9 5.6 -18.4
	c1.6 6 -1.3 11.6 -5.6 12.8
"/>
<use x="166.03" y="93.01" xlink:href="#hl"/>
<use x="166.03" y="87.01" xlink:href="#hl"/>
<use x="166.03" y="81.01" xlink:href="#hl"/>
<use x="166.03" y="75.01" xlink:href="#hl"/>
<use x="166.03" y="75.01" xlink:href="#hd"/>
<path d="M162.53 75.01v36.00" stroke="currentColor" fill="none"/>
<use x="195.13" y="93.01" xlink:href="#hl"/>
<use x="195.13" y="87.01" xlink:href="#hl"/>
<use x="195.13" y="81.01" xlink:href="#hl"/>
<use x="195.13" y="75.01" xlink:href="#hl"/>
<use x="195.13" y="72.01" xlink:href="#hd"/>
<path d="M191.63 72.01v39.00" stroke="currentColor" fill="none"/>
<use x="224.23" y="93.01" xlink:href="#hl"/>
<use x="224.23" y="87.01" xlink:href="#hl"/>
<use x="224.23" y="81.01" xlink:href="#hl"/>
<use x="224.23" y="78.01" xlink:href="#Hd"/>
<path d="M220.73 78.01v33.00" stroke="currentColor" fill="none"/>
<use x="270.03" y="93.01" xlink:href="#hl"/>
<use x="270.03" y="87.01" xlink:href="#hl"/>
<use x="270.03" y="87.01" xlink:href="#Hd"/>
<path d="M266.53 87.01v24.00" stroke="currentColor" fill="none"/>
<use x="311.43" y="93.01" xlink:href="#hl"/>
<use x="311.43" y="87.01" xlink:href="#hl"/>
<use x="311.43" y="81.01" xlink:href="#hl"/>
<use x="311.43" y="75.01" xlink:href="#hl"/>
<use x="311.43" y="72.01" xlink:href="#hd"/>
<defs>
<path id="usharp" fill="currentColor" d="
	m136 -702
	v890
	h32
	v-890
	m128 840
	h32
	v-888
	h-32
	m-232 286
	v116
	l338 -96
	v-116
	m-338 442
	v116
	l338 -98
	v-114"/>
<use id="sh0" transform="translate(-4,5) scale(0.018)"
	xlink:href="#usharp"/>
</defs>
<use x="302.43" y="72.01" xlink:href="#sh0"/>
<path d="M307.93 72.01v39.00" stroke="currentColor" fill="none"/>
<path fill="currentColor"
	d="M307.93 111.01c0.6 -5.6 9.6 -9 5.6 -18.4
	c1.6 6 -1.3 11.6 -5.6 12.8
"/>
<use x="332.73" y="93.01" xlink:href="#hl"/>
<use x="332.73" y="87.01" xlink:href="#hl"/>
<use x="332.73" y="81.01" xlink:href="#hl"/>
<use x="332.73" y="75.01" xlink:href="#hl"/>
<use x="332.73" y="72.01" xlink:href="#hd"/>
<defs>
<path id="unat" fill="currentColor" d="
	m96 -750
	h-32
	v716
	l32 -8
	l182 -54
	v282
	h32
	v-706
	l-34 10
	l-180 50
	v-290
	m0 592
	v-190
	l182 -52
	v188"/>
<use id="nt0" transform="translate(-3,5) scale(0.018)"
	xlink:href="#unat"/>
</defs>
<use x="323.73" y="72.01" xlink:href="#nt0"/>
<path d="M329.23 72.01v39.00" stroke="currentColor" fill="none"/>
<path fill="currentColor"
	d="M329.23 111.01c0.6 -5.6 9.6 -9 5.6 -18.4
	c1.6 6 -1.3 11.6 -5.6 12.8
"/>
<use x="353.53" y="93.01" xlink:href="#hl"/>
<use x="353.53" y="87.01" xlink:href="#hl"/>
<use x="353.53" y="81.01" xlink:href="#hl"/>
<use x="353.53" y="75.01" xlink:href="#hl"/>
<use x="353.53" y="75.01" xlink:href="#hd"/>
<path d="M350.03 75.01v36.00" stroke="currentColor" fill="none"/>
<path fill="currentColor"
	d="M350.03 111.01c0.6 -5.6 9.6 -9 5.6 -18.4
	c1.6 6 -1.3 11.6 -5.6 12.8
"/>
<use x="374.23" y="93.01" xlink:href="#hl"/>
<use x="374.23" y="87.01" xlink:href="#hl"/>
<use x="374.23" y="81.01" xlink:href="#hl"/>
<use x="374.23" y="78.01" xlink:href="#hd"/>
<path d="M370.73 78.01v33.00" stroke="currentColor" fill="none"/>
<path fill="currentColor"
	d="M370.73 111.01c0.6 -5.6 9.6 -9 5.6 -18.4
	c1.6 6 -1.3 11.6 -5.6 12.8
"/>
<use x="403.43" y="93.01" xlink:href="#hl"/>
<use x="403.43" y="87.01" xlink:href="#hl"/>
<use x="403.43" y="81.01" xlink:href="#hl"/>
<use x="403.43" y="75.01" xlink:href="#hl"/>
<use x="403.43" y="75.01" xlink:href="#hd"/>
<path d="M399.93 75.01v36.00" stroke="currentColor" fill="none"/>
<path fill="currentColor"
	d="M399.93 111.01c0.6 -5.6 9.6 -9 5.6 -18.4
	c1.6 6 -1.3 11.6 -5.6 12.8
"/>
<defs>
<path id="r8e" fill="currentColor" d="m 0 0
	c-1.5 1.5 -2.4 2 -3.6 2
	c2.4 -2.8 -2.8 -4 -2.8 -1.2
	c0 2.7 4.3 2.4 5.9 0.6"/>
<g id="r8">
	<path d="m3.3 -4l-3.4 9.6" stroke="currentColor" fill="none"/>
	<use x="3.4" y="-4" xlink:href="#r8e"/>
</g>
</defs>
<use x="422.13" y="111.01" xlink:href="#r8"/>
<use x="442.93" y="93.01" xlink:href="#hl"/>
<use x="442.93" y="87.01" xlink:href="#hl"/>
<use x="442.93" y="87.01" xlink:href="#Hd"/>
<path d="M439.43 87.01v24.00" stroke="currentColor" fill="none"/>
<use x="483.83" y="93.01" xlink:href="#hl"/>
<use x="483.83" y="87.01" xlink:href="#hl"/>
<use x="483.83" y="81.01" xlink:href="#hl"/>
<use x="483.83" y="78.01" xlink:href="#hd"/>
<path d="M480.33 78.01v33.00" stroke="currentColor" fill="none"/>
<use x="519.63" y="93.01" xlink:href="#hl"/>
<use x="519.63" y="87.01" xlink:href="#hl"/>
<use x="519.63" y="81.01" xlink:href="#hl"/>
<use x="519.63" y="75.01" xlink:href="#hl"/>
<use x="519.63" y="72.01" xlink:href="#hd"/>
<path d="M516.13 72.01v39.00" stroke="currentColor" fill="none"/>
<use x="548.73" y="93.01" xlink:href="#hl"/>
<use x="548.73" y="87.01" xlink:href="#hl"/>
<use x="548.73" y="81.01" xlink:href="#hl"/>
<use x="548.73" y="75.01" xlink:href="#hl"/>
<use x="548.73" y="69.01" xlink:href="#hl"/>
<use x="548.73" y="66.01" xlink:href="#hd"/>
<circle fill="currentColor" cx="556.73" cy="66.01" r="1.2"/>
<path d="M545.23 66.01v45.00" stroke="currentColor" fill="none"/>
<use x="582.73" y="93.01" xlink:href="#hl"/>
<use x="582.73" y="87.01" xlink:href="#hl"/>
<use x="582.73" y="81.01" xlink:href="#hl"/>
<use x="582.73" y="75.01" xlink:href="#hl"/>
<use x="582.73" y="72.01" xlink:href="#hd"/>
<use x="573.73" y="72.01" xlink:href="#sh0"/>
<path d="M579.23 72.01v39.00" stroke="currentColor" fill="none"/>
<path fill="currentColor"
	d="M579.23 111.01c0.6 -5.6 9.6 -9 5.6 -18.4
	c1.6 6 -1.3 11.6 -5.6 12.8
"/>
<use x="604.03" y="93.01" xlink:href="#hl"/>
<use x="604.03" y="87.01" xlink:href="#hl"/>
<use x="604.03" y="81.01" xlink:href="#hl"/>
<use x="604.03" y="75.01" xlink:href="#hl"/>
<use x="604.03" y="72.01" xlink:href="#hd"/>
<use x="595.03" y="72.01" xlink:href="#nt0"/>
<path d="M600.53 72.01v39.00" stroke="currentColor" fill="none"/>
<path fill="currentColor"
	d="M600.53 111.01c0.6 -5.6 9.6 -9 5.6 -18.4
	c1.6 6 -1.3 11.6 -5.6 12.8
"/>
<use x="624.83" y="93.01" xlink:href="#hl"/>
<use x="624.83" y="87.01" xlink:href="#hl"/>
<use x="624.83" y="81.01" xlink:href="#hl"/>
<use x="624.83" y="78.01" xlink:href="#hd"/>
<path d="M621.33 78.01v33.00" stroke="currentColor" fill="none"/>
<path fill="currentColor"
	d="M621.33 111.01c0.6 -5.6 9.6 -9 5.6 -18.4
	c1.6 6 -1.3 11.6 -5.6 12.8
"/>
<use x="654.03" y="93.01" xlink:href="#hl"/>
<use x="654.03" y="87.01" xlink:href="#hl"/>
<use x="654.03" y="81.01" xlink:href="#hl"/>
<use x="654.03" y="78.01" xlink:href="#hd"/>
<path d="M650.53 78.01v33.00" stroke="currentColor" fill="none"/>
<path fill="currentColor"
	d="M650.53 111.01c0.6 -5.6 9.6 -9 5.6 -18.4
	c1.6 6 -1.3 11.6 -5.6 12.8
"/>
<use x="674.83" y="93.01" xlink:href="#hl"/>
<use x="674.83" y="87.01" xlink:href="#hl"/>
<use x="674.83" y="84.01" xlink:href="#hd"/>
<path d="M671.33 84.01v27.00" stroke="currentColor" fill="none"/>
<path fill="currentColor"
	d="M671.33 111.01c0.6 -5.6 9.6 -9 5.6 -18.4
	c1.6 6 -1.3 11.6 -5.6 12.8
"/>
</g>
</svg>
