<?xml version="1.0" standalone="no"?>
<!DOCTYPE svg PUBLIC "-//W3C//DTD SVG 1.1//EN"
	"http://www.w3.org/Graphics/SVG/1.1/DTD/svg11.dtd">
<svg xmlns="http://www.w3.org/2000/svg" version="1.1"
	xmlns:xlink="http://www.w3.org/1999/xlink"
	xml:space='preserve' color="black"
	width="7.38in" height="1.51in" viewBox="0 0 531 109">
<title>9844.abc (9844) tune 1</title>
<!-- Creator: abcm2ps-7.8.14 -->
<!-- CreationDate: Mar 13, 2016 18:54 -->
<!-- CommandLine: -qxg 9844.abc -O ../svgs/9844.svg -->
<g transform="scale(0.750)" stroke-width="0.70" font-family="Times" font-size="20.00">
<text x="354.13" y="21.67" text-anchor="middle">9844.  The Earl of Essex Galliard, Lute and strings</text>
</g>
<g transform="scale(0.750)" stroke-width="0.70" font-family="Times" font-size="14.00" font-style="italic">
<text x="694.93" y="45.34" text-anchor="end">John Dowland</text>
</g>
<g transform="scale(0.525)" stroke-width="0.70" font-family="Times" font-size="14.00" font-style="italic">
<defs>
<ellipse id="hd" rx="4.1" ry="2.9"
	transform="rotate(-20)" fill="currentColor"/>
</defs>
<use x="107.04" y="94.16" xlink:href="#hd"/>
<path d="M110.54 94.16v-20.00" stroke="currentColor" fill="none"/>
</g>
<g transform="scale(0.750)" stroke-width="0.70" font-family="Times" font-size="15.00" font-weight="bold">
<text x="82.63" y="68.01">= 120</text>
<path stroke="currentColor" fill="none"
	d="M177.33 122.21v-24.00"/>
<path stroke="currentColor" fill="none"
	d="M272.53 122.21v-24.00"/>
<path stroke="currentColor" fill="none"
	d="M371.33 122.21v-24.00"/>
<path stroke="currentColor" fill="none"
	d="M424.33 122.21v-24.00"/>
<path stroke="currentColor" fill="none"
	d="M580.23 122.21v-24.00"/>
<path stroke="currentColor" fill="none"
	d="M694.93 122.21v-24.00"/>
<path stroke="currentColor" fill="none"
	d="M13.33 122.21h681.60m-681.60 -6h681.60m-681.60 -6h681.60m-681.60 -6h681.60m-681.60 -6h681.60"/>
<path stroke="currentColor" fill="none"
	d="M432.83 57.51v-3l47.10 6.00v3"/>
<rect x="449.33" y="51.51" width="14.00" height="12" fill="white"/>
<text font-family="serif" font-size="12" font-style="italic" font-weight="normal"
	x="456.33" y="61.51" text-anchor="middle">3</text>
<defs>
<path id="utclef" fill="currentColor" d="m-50 -90
	c-72 -41 -72 -158 52 -188
	c150 -10 220 188 90 256
	c-114 52 -275 0 -293 -136
	c-15 -181 93 -229 220 -334
	c88 -87 79 -133 62 -210
	c-51 33 -94 105 -89 186
	c17 267 36 374 49 574
	c6 96 -19 134 -77 135
	c-80 1 -126 -93 -61 -133
	c85 -41 133 101 31 105
	c23 17 92 37 90 -92
	c-10 -223 -39 -342 -50 -617
	c0 -90 0 -162 96 -232
	c56 72 63 230 22 289
	c-74 106 -257 168 -255 316
	c9 153 148 185 252 133
	c86 -65 29 -192 -80 -176
	c-71 12 -105 67 -59 124"/>
<use id="tclef" transform="scale(0.045)"
	xlink:href="#utclef"/>
</defs>
<use x="25.33" y="122.21" xlink:href="#tclef"/>
<defs>
<path id="uflat" fill="currentColor" d="
	m100 -746
	h32
	v734
	l-32 4
	m32 -332
	c46 -72 152 -90 208 -20
	c100 110 -120 326 -208 348
	m0 -28
	c54 0 200 -206 130 -290
	c-50 -60 -130 -4 -130 34"/>
<use id="ft0" transform="translate(-3.5,3.5) scale(0.018)"
	xlink:href="#uflat"/>
</defs>
<use x="40.33" y="110.21" xlink:href="#ft0"/>
<g font-family="serif" font-size="16" font-weight="bold" font-style="normal"
	transform="translate(56.33,122.21) scale(1.2,1)">
	<text y="-1" text-anchor="middle">4</text>
	<text y="-13" text-anchor="middle">3</text>
</g>
<use x="74.33" y="95.21" xlink:href="#hd"/>
<circle fill="currentColor" cx="82.33" cy="95.21" r="1.2"/>
<path d="M70.83 95.21v20.00" stroke="currentColor" fill="none"/>
<path fill="currentColor"
	d="M70.83 115.21c0.6 -5.6 9.6 -9 5.6 -18.4
	c1.6 6 -1.3 11.6 -5.6 12.8
"/>
<path fill="currentColor"
	d="M95.83 118.11l37.90 0.00v-3.20l-37.90 -0.00"/>
<path fill="currentColor"
	d="M102.23 113.11l-6.00 -0.00v-3.20l6.00 0.00"/>
<path fill="currentColor"
	d="M127.43 113.11l6.00 0.00v-3.20l-6.00 -0.00"/>
<defs>
<path id="hl" stroke="currentColor" d="m-6 0h12"/>
</defs>
<use x="99.73" y="92.21" xlink:href="#hl"/>
<use x="99.73" y="92.21" xlink:href="#hd"/>
<path d="M96.23 92.21v25.00" stroke="currentColor" fill="none"/>
<use x="114.03" y="92.21" xlink:href="#hl"/>
<use x="114.03" y="89.21" xlink:href="#hd"/>
<circle fill="currentColor" cx="122.03" cy="89.21" r="1.2"/>
<path d="M110.53 89.21v28.00" stroke="currentColor" fill="none"/>
<use x="136.93" y="95.21" xlink:href="#hd"/>
<path d="M133.43 95.21v22.00" stroke="currentColor" fill="none"/>
<use x="152.63" y="92.21" xlink:href="#hl"/>
<use x="152.63" y="86.21" xlink:href="#hl"/>
<use x="152.63" y="80.21" xlink:href="#hl"/>
<use x="152.63" y="74.21" xlink:href="#hl"/>
<use x="152.63" y="74.21" xlink:href="#hd"/>
<path d="M149.13 74.21v36.00" stroke="currentColor" fill="none"/>
<use x="189.83" y="92.21" xlink:href="#hl"/>
<use x="189.83" y="86.21" xlink:href="#hl"/>
<use x="189.83" y="80.21" xlink:href="#hl"/>
<use x="189.83" y="77.21" xlink:href="#hd"/>
<circle fill="currentColor" cx="197.83" cy="77.21" r="1.2"/>
<path d="M186.33 77.21v33.00" stroke="currentColor" fill="none"/>
<use x="225.83" y="92.21" xlink:href="#hl"/>
<use x="225.83" y="86.21" xlink:href="#hl"/>
<use x="225.83" y="80.21" xlink:href="#hl"/>
<use x="225.83" y="80.21" xlink:href="#hd"/>
<use x="216.83" y="80.21" xlink:href="#ft0"/>
<path d="M222.33 80.21v30.00" stroke="currentColor" fill="none"/>
<path fill="currentColor"
	d="M222.33 110.21c0.6 -5.6 9.6 -9 5.6 -18.4
	c1.6 6 -1.3 11.6 -5.6 12.8
"/>
<use x="247.83" y="92.21" xlink:href="#hl"/>
<use x="247.83" y="86.21" xlink:href="#hl"/>
<use x="247.83" y="83.21" xlink:href="#hd"/>
<path d="M244.33 83.21v27.00" stroke="currentColor" fill="none"/>
<use x="285.03" y="92.21" xlink:href="#hl"/>
<use x="285.03" y="86.21" xlink:href="#hl"/>
<use x="285.03" y="83.21" xlink:href="#hd"/>
<path d="M281.53 83.21v27.00" stroke="currentColor" fill="none"/>
<use x="315.83" y="92.21" xlink:href="#hl"/>
<use x="315.83" y="86.21" xlink:href="#hl"/>
<use x="315.83" y="86.21" xlink:href="#hd"/>
<path d="M312.33 86.21v24.00" stroke="currentColor" fill="none"/>
<use x="346.63" y="92.21" xlink:href="#hl"/>
<use x="346.63" y="89.21" xlink:href="#hd"/>
<path d="M343.13 89.21v21.00" stroke="currentColor" fill="none"/>
<use x="384.33" y="92.21" xlink:href="#hl"/>
<defs>
<path id="Hd" fill="currentColor" d="m3 -1.6
	c-1 -1.8 -7 1.4 -6 3.2
	c1 1.8 7 -1.4 6 -3.2
	m0.5 -0.3
	c2 3.8 -5 7.6 -7 3.8
	c-2 -3.8 5 -7.6 7 -3.8"/>
</defs>
<use x="384.33" y="92.21" xlink:href="#Hd"/>
<circle fill="currentColor" cx="393.33" cy="89.21" r="1.2"/>
<path d="M380.83 92.21v20.00" stroke="currentColor" fill="none"/>
<use x="436.83" y="92.21" xlink:href="#hl"/>
<use x="436.83" y="86.21" xlink:href="#hl"/>
<use x="436.83" y="80.21" xlink:href="#hl"/>
<use x="436.83" y="77.21" xlink:href="#hd"/>
<path d="M433.33 77.21v33.00" stroke="currentColor" fill="none"/>
<use x="461.63" y="92.21" xlink:href="#hl"/>
<use x="461.63" y="86.21" xlink:href="#hl"/>
<use x="461.63" y="80.21" xlink:href="#hl"/>
<use x="461.63" y="77.21" xlink:href="#hd"/>
<path d="M458.13 77.21v33.00" stroke="currentColor" fill="none"/>
<path fill="currentColor"
	d="M458.13 110.21c0.9 -3.7 9.1 -6.4 6 -12.4
	c1 5.4 -4.2 8.4 -6 8.4
M458.13 104.81c0.9 -3.7 9.1 -6.4 6 -12.4
	c1 5.4 -4.2 8.4 -6 8.4
"/>
<use x="474.03" y="92.21" xlink:href="#hl"/>
<use x="474.03" y="86.21" xlink:href="#hl"/>
<use x="474.03" y="83.21" xlink:href="#hd"/>
<path d="M470.53 83.21v27.00" stroke="currentColor" fill="none"/>
<use x="498.83" y="92.21" xlink:href="#hl"/>
<use x="498.83" y="86.21" xlink:href="#hl"/>
<use x="498.83" y="83.21" xlink:href="#hd"/>
<path d="M495.33 83.21v27.00" stroke="currentColor" fill="none"/>
<path fill="currentColor"
	d="M495.33 110.21c0.9 -3.7 9.1 -6.4 6 -12.4
	c1 5.4 -4.2 8.4 -6 8.4
M495.33 104.81c0.9 -3.7 9.1 -6.4 6 -12.4
	c1 5.4 -4.2 8.4 -6 8.4
"/>
<use x="516.83" y="92.21" xlink:href="#hl"/>
<use x="516.83" y="86.21" xlink:href="#hl"/>
<use x="516.83" y="80.21" xlink:href="#hl"/>
<use x="516.83" y="80.21" xlink:href="#hd"/>
<use x="507.83" y="80.21" xlink:href="#ft0"/>
<path d="M513.33 80.21v30.00" stroke="currentColor" fill="none"/>
<path fill="currentColor"
	d="M544.43 110.41l15.00 0.00v-3.20l-15.00 -0.00"/>
<path fill="currentColor"
	d="M550.73 105.41l-6.00 -0.00v-3.20l6.00 0.00"/>
<use x="548.23" y="92.21" xlink:href="#hl"/>
<use x="548.23" y="86.21" xlink:href="#hl"/>
<use x="548.23" y="80.21" xlink:href="#hl"/>
<use x="548.23" y="80.21" xlink:href="#hd"/>
<use x="539.23" y="80.21" xlink:href="#ft0"/>
<path d="M544.73 80.21v29.20" stroke="currentColor" fill="none"/>
<use x="562.53" y="92.21" xlink:href="#hl"/>
<use x="562.53" y="86.21" xlink:href="#hl"/>
<use x="562.53" y="86.21" xlink:href="#hd"/>
<path d="M559.03 86.21v23.20" stroke="currentColor" fill="none"/>
<use x="592.73" y="92.21" xlink:href="#hl"/>
<use x="592.73" y="86.21" xlink:href="#hl"/>
<use x="592.73" y="83.21" xlink:href="#hd"/>
<circle fill="currentColor" cx="600.73" cy="83.21" r="1.2"/>
<path d="M589.23 83.21v27.00" stroke="currentColor" fill="none"/>
<path fill="currentColor"
	d="M624.33 116.41l54.70 0.00v-3.20l-54.70 -0.00"/>
<path fill="currentColor"
	d="M664.43 111.41l14.30 0.00v-3.20l-14.30 -0.00"/>
<use x="628.23" y="92.21" xlink:href="#hl"/>
<use x="628.23" y="86.21" xlink:href="#hl"/>
<use x="628.23" y="86.21" xlink:href="#hd"/>
<path d="M624.73 86.21v29.20" stroke="currentColor" fill="none"/>
<use x="648.03" y="92.21" xlink:href="#hl"/>
<use x="648.03" y="89.21" xlink:href="#hd"/>
<path d="M644.53 89.21v26.20" stroke="currentColor" fill="none"/>
<use x="667.93" y="92.21" xlink:href="#hl"/>
<use x="667.93" y="92.21" xlink:href="#hd"/>
<path d="M664.43 92.21v23.20" stroke="currentColor" fill="none"/>
<use x="682.23" y="92.21" xlink:href="#hl"/>
<use x="682.23" y="89.21" xlink:href="#hd"/>
<path d="M678.73 89.21v26.20" stroke="currentColor" fill="none"/>
<path fill="currentColor"
	d="M440.33 75.21c2.80 -4.82 14.99 -4.82 17.79 -0.00
	l0.00 -0.22c-3.34 -6.60 -14.45 -6.60 -17.79 0.22"/>
<path fill="currentColor"
	d="M477.53 81.21c2.80 -4.82 14.99 -4.82 17.79 -0.00
	l0.00 -0.22c-3.34 -6.60 -14.45 -6.60 -17.79 0.22"/>
<path fill="currentColor"
	d="M520.33 80.21c3.84 -4.94 20.53 -4.94 24.37 -0.00
	l0.00 -0.22c-4.57 -6.71 -19.80 -6.71 -24.37 0.22"/>
</g>
</svg>
